<?xml version="1.0" encoding="UTF-8" standalone="no"?>
<!DOCTYPE svg PUBLIC "-//W3C//DTD SVG 1.1//EN"
 "http://www.w3.org/Graphics/SVG/1.1/DTD/svg11.dtd">
<!-- Generated by graphviz version 2.36.0 (20140111.2315)
 -->
<!-- Title: extlib/tlx/tlx/algorithm.hpp Pages: 1 -->
<svg width="1226pt" height="356pt"
 viewBox="0.00 0.00 1226.00 356.00" xmlns="http://www.w3.org/2000/svg" xmlns:xlink="http://www.w3.org/1999/xlink">
<g id="graph0" class="graph" transform="scale(1 1) rotate(0) translate(4 352)">
<title>extlib/tlx/tlx/algorithm.hpp</title>
<!-- Node1 -->
<g id="node1" class="node"><title>Node1</title>
<polygon fill="#bfbfbf" stroke="black" points="446,-328.5 446,-347.5 574,-347.5 574,-328.5 446,-328.5"/>
<text text-anchor="middle" x="510" y="-335.5" font-family="Helvetica,sans-Serif" font-size="10.00">extlib/tlx/tlx/algorithm.hpp</text>
</g>
<!-- Node2 -->
<g id="node2" class="node"><title>Node2</title>
<g id="a_node2"><a xlink:href="exclusive__scan_8hpp.html" target="_top" xlink:title="tlx/algorithm/exclusive\l_scan.hpp">
<polygon fill="none" stroke="black" points="0,-125 0,-155 114,-155 114,-125 0,-125"/>
<text text-anchor="start" x="8" y="-143" font-family="Helvetica,sans-Serif" font-size="10.00">tlx/algorithm/exclusive</text>
<text text-anchor="middle" x="57" y="-132" font-family="Helvetica,sans-Serif" font-size="10.00">_scan.hpp</text>
</a>
</g>
</g>
<!-- Node1&#45;&gt;Node2 -->
<g id="edge1" class="edge"><title>Node1&#45;&gt;Node2</title>
<path fill="none" stroke="midnightblue" d="M445.977,-336.848C386.791,-334.43 297.724,-324.893 228,-292 162.288,-261 102.942,-196.886 74.5831,-163.038"/>
<polygon fill="midnightblue" stroke="midnightblue" points="77.1185,-160.611 68.0559,-155.123 71.718,-165.065 77.1185,-160.611"/>
</g>
<!-- Node5 -->
<g id="node5" class="node"><title>Node5</title>
<g id="a_node5"><a xlink:href="is__sorted__cmp_8hpp.html" target="_top" xlink:title="tlx/algorithm/is_sorted\l_cmp.hpp">
<polygon fill="none" stroke="black" points="270.5,-261 270.5,-291 383.5,-291 383.5,-261 270.5,-261"/>
<text text-anchor="start" x="278.5" y="-279" font-family="Helvetica,sans-Serif" font-size="10.00">tlx/algorithm/is_sorted</text>
<text text-anchor="middle" x="327" y="-268" font-family="Helvetica,sans-Serif" font-size="10.00">_cmp.hpp</text>
</a>
</g>
</g>
<!-- Node1&#45;&gt;Node5 -->
<g id="edge4" class="edge"><title>Node1&#45;&gt;Node5</title>
<path fill="none" stroke="midnightblue" d="M483.781,-328.403C456.705,-319.526 413.718,-305.432 379.598,-294.245"/>
<polygon fill="midnightblue" stroke="midnightblue" points="380.37,-290.815 369.777,-291.025 378.189,-297.467 380.37,-290.815"/>
</g>
<!-- Node6 -->
<g id="node6" class="node"><title>Node6</title>
<g id="a_node6"><a xlink:href="merge__advance_8hpp.html" target="_top" xlink:title="tlx/algorithm/merge\l_advance.hpp">
<polygon fill="none" stroke="black" points="1118,-125 1118,-155 1218,-155 1218,-125 1118,-125"/>
<text text-anchor="start" x="1126" y="-143" font-family="Helvetica,sans-Serif" font-size="10.00">tlx/algorithm/merge</text>
<text text-anchor="middle" x="1168" y="-132" font-family="Helvetica,sans-Serif" font-size="10.00">_advance.hpp</text>
</a>
</g>
</g>
<!-- Node1&#45;&gt;Node6 -->
<g id="edge6" class="edge"><title>Node1&#45;&gt;Node6</title>
<path fill="none" stroke="midnightblue" d="M574.083,-334.976C646.146,-331.307 766.032,-320.993 865,-292 932.537,-272.215 944.978,-255.319 1008,-224 1051.1,-202.579 1100.17,-176.935 1132.48,-159.876"/>
<polygon fill="midnightblue" stroke="midnightblue" points="1134.33,-162.857 1141.53,-155.088 1131.06,-156.669 1134.33,-162.857"/>
</g>
<!-- Node8 -->
<g id="node8" class="node"><title>Node8</title>
<g id="a_node8"><a xlink:href="merge__combine_8hpp.html" target="_top" xlink:title="tlx/algorithm/merge\l_combine.hpp">
<polygon fill="none" stroke="black" points="132,-125 132,-155 232,-155 232,-125 132,-125"/>
<text text-anchor="start" x="140" y="-143" font-family="Helvetica,sans-Serif" font-size="10.00">tlx/algorithm/merge</text>
<text text-anchor="middle" x="182" y="-132" font-family="Helvetica,sans-Serif" font-size="10.00">_combine.hpp</text>
</a>
</g>
</g>
<!-- Node1&#45;&gt;Node8 -->
<g id="edge8" class="edge"><title>Node1&#45;&gt;Node8</title>
<path fill="none" stroke="midnightblue" d="M445.831,-331.806C382.053,-325.534 289.717,-313.105 261,-292 218.406,-260.696 196.786,-199.539 187.611,-165.445"/>
<polygon fill="midnightblue" stroke="midnightblue" points="190.914,-164.229 185.059,-155.398 184.129,-165.952 190.914,-164.229"/>
</g>
<!-- Node9 -->
<g id="node9" class="node"><title>Node9</title>
<g id="a_node9"><a xlink:href="multisequence__partition_8hpp.html" target="_top" xlink:title="tlx/algorithm/multisequence\l_partition.hpp">
<polygon fill="none" stroke="black" points="442,-125 442,-155 578,-155 578,-125 442,-125"/>
<text text-anchor="start" x="450" y="-143" font-family="Helvetica,sans-Serif" font-size="10.00">tlx/algorithm/multisequence</text>
<text text-anchor="middle" x="510" y="-132" font-family="Helvetica,sans-Serif" font-size="10.00">_partition.hpp</text>
</a>
</g>
</g>
<!-- Node1&#45;&gt;Node9 -->
<g id="edge12" class="edge"><title>Node1&#45;&gt;Node9</title>
<path fill="none" stroke="midnightblue" d="M510,-328.325C510,-299.913 510,-208.968 510,-165.107"/>
<polygon fill="midnightblue" stroke="midnightblue" points="513.5,-165.037 510,-155.037 506.5,-165.037 513.5,-165.037"/>
</g>
<!-- Node17 -->
<g id="node17" class="node"><title>Node17</title>
<g id="a_node17"><a xlink:href="multisequence__selection_8hpp.html" target="_top" xlink:title="tlx/algorithm/multisequence\l_selection.hpp">
<polygon fill="none" stroke="black" points="288,-125 288,-155 424,-155 424,-125 288,-125"/>
<text text-anchor="start" x="296" y="-143" font-family="Helvetica,sans-Serif" font-size="10.00">tlx/algorithm/multisequence</text>
<text text-anchor="middle" x="356" y="-132" font-family="Helvetica,sans-Serif" font-size="10.00">_selection.hpp</text>
</a>
</g>
</g>
<!-- Node1&#45;&gt;Node17 -->
<g id="edge23" class="edge"><title>Node1&#45;&gt;Node17</title>
<path fill="none" stroke="midnightblue" d="M503.184,-328.325C480.482,-299.432 406.967,-205.867 373.221,-162.918"/>
<polygon fill="midnightblue" stroke="midnightblue" points="375.959,-160.738 367.029,-155.037 370.455,-165.062 375.959,-160.738"/>
</g>
<!-- Node18 -->
<g id="node18" class="node"><title>Node18</title>
<g id="a_node18"><a xlink:href="extlib_2tlx_2tlx_2algorithm_2multiway__merge_8hpp.html" target="_top" xlink:title="tlx/algorithm/multiway\l_merge.hpp">
<polygon fill="none" stroke="black" points="888,-193 888,-223 1000,-223 1000,-193 888,-193"/>
<text text-anchor="start" x="896" y="-211" font-family="Helvetica,sans-Serif" font-size="10.00">tlx/algorithm/multiway</text>
<text text-anchor="middle" x="944" y="-200" font-family="Helvetica,sans-Serif" font-size="10.00">_merge.hpp</text>
</a>
</g>
</g>
<!-- Node1&#45;&gt;Node18 -->
<g id="edge31" class="edge"><title>Node1&#45;&gt;Node18</title>
<path fill="none" stroke="midnightblue" d="M574.282,-336.131C638.904,-333.346 740.372,-323.691 822,-292 859.646,-277.385 897.19,-249.296 920.482,-229.87"/>
<polygon fill="midnightblue" stroke="midnightblue" points="923.04,-232.289 928.392,-223.146 918.506,-226.956 923.04,-232.289"/>
</g>
<!-- Node23 -->
<g id="node23" class="node"><title>Node23</title>
<g id="a_node23"><a xlink:href="multiway__merge__splitting_8hpp.html" target="_top" xlink:title="tlx/algorithm/multiway\l_merge_splitting.hpp">
<polygon fill="none" stroke="black" points="565,-193 565,-223 677,-223 677,-193 565,-193"/>
<text text-anchor="start" x="573" y="-211" font-family="Helvetica,sans-Serif" font-size="10.00">tlx/algorithm/multiway</text>
<text text-anchor="middle" x="621" y="-200" font-family="Helvetica,sans-Serif" font-size="10.00">_merge_splitting.hpp</text>
</a>
</g>
</g>
<!-- Node1&#45;&gt;Node23 -->
<g id="edge46" class="edge"><title>Node1&#45;&gt;Node23</title>
<path fill="none" stroke="midnightblue" d="M517.629,-328.202C534.837,-308.359 577.1,-259.623 601.932,-230.988"/>
<polygon fill="midnightblue" stroke="midnightblue" points="604.828,-232.991 608.735,-223.143 599.539,-228.405 604.828,-232.991"/>
</g>
<!-- Node24 -->
<g id="node24" class="node"><title>Node24</title>
<g id="a_node24"><a xlink:href="parallel__multiway__merge_8hpp.html" target="_top" xlink:title="tlx/algorithm/parallel\l_multiway_merge.hpp">
<polygon fill="none" stroke="black" points="702,-261 702,-291 814,-291 814,-261 702,-261"/>
<text text-anchor="start" x="710" y="-279" font-family="Helvetica,sans-Serif" font-size="10.00">tlx/algorithm/parallel</text>
<text text-anchor="middle" x="758" y="-268" font-family="Helvetica,sans-Serif" font-size="10.00">_multiway_merge.hpp</text>
</a>
</g>
</g>
<!-- Node1&#45;&gt;Node24 -->
<g id="edge51" class="edge"><title>Node1&#45;&gt;Node24</title>
<path fill="none" stroke="midnightblue" d="M545.269,-328.467C583.347,-319.255 644.869,-304.371 691.98,-292.973"/>
<polygon fill="midnightblue" stroke="midnightblue" points="692.904,-296.35 701.801,-290.597 691.258,-289.546 692.904,-296.35"/>
</g>
<!-- Node3 -->
<g id="node3" class="node"><title>Node3</title>
<polygon fill="none" stroke="#bfbfbf" points="191.5,-62.5 191.5,-81.5 250.5,-81.5 250.5,-62.5 191.5,-62.5"/>
<text text-anchor="middle" x="221" y="-69.5" font-family="Helvetica,sans-Serif" font-size="10.00">functional</text>
</g>
<!-- Node2&#45;&gt;Node3 -->
<g id="edge2" class="edge"><title>Node2&#45;&gt;Node3</title>
<path fill="none" stroke="midnightblue" d="M92.1821,-124.841C121.185,-113.169 161.94,-96.7681 189.794,-85.5585"/>
<polygon fill="midnightblue" stroke="midnightblue" points="191.457,-88.6623 199.427,-81.6819 188.843,-82.1684 191.457,-88.6623"/>
</g>
<!-- Node4 -->
<g id="node4" class="node"><title>Node4</title>
<polygon fill="none" stroke="#bfbfbf" points="66.5,-62.5 66.5,-81.5 113.5,-81.5 113.5,-62.5 66.5,-62.5"/>
<text text-anchor="middle" x="90" y="-69.5" font-family="Helvetica,sans-Serif" font-size="10.00">iterator</text>
</g>
<!-- Node2&#45;&gt;Node4 -->
<g id="edge3" class="edge"><title>Node2&#45;&gt;Node4</title>
<path fill="none" stroke="midnightblue" d="M64.1605,-124.679C69.1021,-114.796 75.7103,-101.579 81.0068,-90.9864"/>
<polygon fill="midnightblue" stroke="midnightblue" points="84.2442,-92.3378 85.5859,-81.8283 77.9832,-89.2073 84.2442,-92.3378"/>
</g>
<!-- Node5&#45;&gt;Node3 -->
<g id="edge5" class="edge"><title>Node5&#45;&gt;Node3</title>
<path fill="none" stroke="midnightblue" d="M319.546,-260.796C300.645,-224.777 250.882,-129.946 230.209,-90.5495"/>
<polygon fill="midnightblue" stroke="midnightblue" points="233.257,-88.8255 225.511,-81.5969 227.059,-92.0782 233.257,-88.8255"/>
</g>
<!-- Node7 -->
<g id="node7" class="node"><title>Node7</title>
<polygon fill="none" stroke="#bfbfbf" points="647,-0.5 647,-19.5 703,-19.5 703,-0.5 647,-0.5"/>
<text text-anchor="middle" x="675" y="-7.5" font-family="Helvetica,sans-Serif" font-size="10.00">algorithm</text>
</g>
<!-- Node6&#45;&gt;Node7 -->
<g id="edge7" class="edge"><title>Node6&#45;&gt;Node7</title>
<path fill="none" stroke="midnightblue" d="M1172.7,-124.864C1177.84,-106.446 1183.23,-74.4263 1166,-56 1165.03,-54.9637 828.539,-24.747 713.234,-14.4206"/>
<polygon fill="midnightblue" stroke="midnightblue" points="713.371,-10.919 703.098,-13.5131 712.746,-17.8911 713.371,-10.919"/>
</g>
<!-- Node8&#45;&gt;Node3 -->
<g id="edge10" class="edge"><title>Node8&#45;&gt;Node3</title>
<path fill="none" stroke="midnightblue" d="M190.462,-124.679C196.363,-114.694 204.273,-101.307 210.565,-90.6596"/>
<polygon fill="midnightblue" stroke="midnightblue" points="213.709,-92.2181 215.783,-81.8283 207.683,-88.657 213.709,-92.2181"/>
</g>
<!-- Node8&#45;&gt;Node4 -->
<g id="edge11" class="edge"><title>Node8&#45;&gt;Node4</title>
<path fill="none" stroke="midnightblue" d="M162.037,-124.679C146.752,-113.713 125.748,-98.645 110.363,-87.6085"/>
<polygon fill="midnightblue" stroke="midnightblue" points="112.206,-84.6231 102.041,-81.6379 108.126,-90.3109 112.206,-84.6231"/>
</g>
<!-- Node8&#45;&gt;Node7 -->
<g id="edge9" class="edge"><title>Node8&#45;&gt;Node7</title>
<path fill="none" stroke="midnightblue" d="M176.894,-124.924C171.241,-106.571 164.999,-74.6239 182,-56 212.488,-22.6024 526.051,-13.7039 636.643,-11.5948"/>
<polygon fill="midnightblue" stroke="midnightblue" points="636.761,-15.0933 646.696,-11.4113 636.634,-8.09451 636.761,-15.0933"/>
</g>
<!-- Node9&#45;&gt;Node3 -->
<g id="edge15" class="edge"><title>Node9&#45;&gt;Node3</title>
<path fill="none" stroke="midnightblue" d="M448.357,-124.922C391.558,-111.951 308.962,-93.0883 260.532,-82.0281"/>
<polygon fill="midnightblue" stroke="midnightblue" points="261.266,-78.6057 250.738,-79.7913 259.708,-85.43 261.266,-78.6057"/>
</g>
<!-- Node9&#45;&gt;Node7 -->
<g id="edge13" class="edge"><title>Node9&#45;&gt;Node7</title>
<path fill="none" stroke="midnightblue" d="M526.489,-124.804C546.235,-107.957 580.473,-79.2234 611,-56 624.918,-45.4117 641.025,-34.0915 653.598,-25.4538"/>
<polygon fill="midnightblue" stroke="midnightblue" points="655.76,-28.2154 662.047,-19.6871 651.814,-22.4337 655.76,-28.2154"/>
</g>
<!-- Node10 -->
<g id="node10" class="node"><title>Node10</title>
<polygon fill="none" stroke="#bfbfbf" points="368.5,-62.5 368.5,-81.5 417.5,-81.5 417.5,-62.5 368.5,-62.5"/>
<text text-anchor="middle" x="393" y="-69.5" font-family="Helvetica,sans-Serif" font-size="10.00">cassert</text>
</g>
<!-- Node9&#45;&gt;Node10 -->
<g id="edge14" class="edge"><title>Node9&#45;&gt;Node10</title>
<path fill="none" stroke="midnightblue" d="M484.901,-124.841C464.845,-113.528 436.912,-97.7707 417.119,-86.6053"/>
<polygon fill="midnightblue" stroke="midnightblue" points="418.82,-83.5467 408.391,-81.6819 415.381,-89.6436 418.82,-83.5467"/>
</g>
<!-- Node11 -->
<g id="node11" class="node"><title>Node11</title>
<polygon fill="none" stroke="#bfbfbf" points="307.5,-62.5 307.5,-81.5 350.5,-81.5 350.5,-62.5 307.5,-62.5"/>
<text text-anchor="middle" x="329" y="-69.5" font-family="Helvetica,sans-Serif" font-size="10.00">queue</text>
</g>
<!-- Node9&#45;&gt;Node11 -->
<g id="edge16" class="edge"><title>Node9&#45;&gt;Node11</title>
<path fill="none" stroke="midnightblue" d="M462.787,-124.9C432.698,-115.463 393.1,-102.204 359,-88 357.411,-87.3381 355.789,-86.629 354.162,-85.8925"/>
<polygon fill="midnightblue" stroke="midnightblue" points="355.534,-82.6686 345.002,-81.5115 352.513,-88.9836 355.534,-82.6686"/>
</g>
<!-- Node12 -->
<g id="node12" class="node"><title>Node12</title>
<polygon fill="none" stroke="#bfbfbf" points="653,-62.5 653,-81.5 697,-81.5 697,-62.5 653,-62.5"/>
<text text-anchor="middle" x="675" y="-69.5" font-family="Helvetica,sans-Serif" font-size="10.00">vector</text>
</g>
<!-- Node9&#45;&gt;Node12 -->
<g id="edge17" class="edge"><title>Node9&#45;&gt;Node12</title>
<path fill="none" stroke="midnightblue" d="M545.397,-124.841C574.705,-113.118 615.94,-96.6241 643.972,-85.4113"/>
<polygon fill="midnightblue" stroke="midnightblue" points="645.31,-88.6455 653.295,-81.6819 642.711,-82.1462 645.31,-88.6455"/>
</g>
<!-- Node13 -->
<g id="node13" class="node"><title>Node13</title>
<g id="a_node13"><a xlink:href="round__to__power__of__two_8hpp.html" target="_top" xlink:title="tlx/math/round_to_power\l_of_two.hpp">
<polygon fill="none" stroke="black" points="435,-57 435,-87 559,-87 559,-57 435,-57"/>
<text text-anchor="start" x="443" y="-75" font-family="Helvetica,sans-Serif" font-size="10.00">tlx/math/round_to_power</text>
<text text-anchor="middle" x="497" y="-64" font-family="Helvetica,sans-Serif" font-size="10.00">_of_two.hpp</text>
</a>
</g>
</g>
<!-- Node9&#45;&gt;Node13 -->
<g id="edge18" class="edge"><title>Node9&#45;&gt;Node13</title>
<path fill="none" stroke="midnightblue" d="M507.179,-124.679C505.595,-116.636 503.576,-106.385 501.754,-97.1369"/>
<polygon fill="midnightblue" stroke="midnightblue" points="505.182,-96.4281 499.815,-87.2931 498.314,-97.781 505.182,-96.4281"/>
</g>
<!-- Node14 -->
<g id="node14" class="node"><title>Node14</title>
<g id="a_node14"><a xlink:href="simple__vector_8hpp.html" target="_top" xlink:title="tlx/simple_vector.hpp">
<polygon fill="none" stroke="black" points="753,-62.5 753,-81.5 863,-81.5 863,-62.5 753,-62.5"/>
<text text-anchor="middle" x="808" y="-69.5" font-family="Helvetica,sans-Serif" font-size="10.00">tlx/simple_vector.hpp</text>
</a>
</g>
</g>
<!-- Node9&#45;&gt;Node14 -->
<g id="edge19" class="edge"><title>Node9&#45;&gt;Node14</title>
<path fill="none" stroke="midnightblue" d="M573.563,-124.922C629.215,-112.597 708.884,-94.9519 759.524,-83.7364"/>
<polygon fill="midnightblue" stroke="midnightblue" points="760.553,-87.0934 769.559,-81.5138 759.039,-80.259 760.553,-87.0934"/>
</g>
<!-- Node14&#45;&gt;Node7 -->
<g id="edge20" class="edge"><title>Node14&#45;&gt;Node7</title>
<path fill="none" stroke="midnightblue" d="M788.944,-62.4035C766.525,-52.2896 729.095,-35.4036 703.287,-23.761"/>
<polygon fill="midnightblue" stroke="midnightblue" points="704.575,-20.5025 694.02,-19.5806 701.696,-26.8832 704.575,-20.5025"/>
</g>
<!-- Node15 -->
<g id="node15" class="node"><title>Node15</title>
<polygon fill="none" stroke="#bfbfbf" points="785.5,-0.5 785.5,-19.5 830.5,-19.5 830.5,-0.5 785.5,-0.5"/>
<text text-anchor="middle" x="808" y="-7.5" font-family="Helvetica,sans-Serif" font-size="10.00">cstdlib</text>
</g>
<!-- Node14&#45;&gt;Node15 -->
<g id="edge21" class="edge"><title>Node14&#45;&gt;Node15</title>
<path fill="none" stroke="midnightblue" d="M808,-62.4035C808,-53.9381 808,-40.7283 808,-29.8199"/>
<polygon fill="midnightblue" stroke="midnightblue" points="811.5,-29.5806 808,-19.5806 804.5,-29.5806 811.5,-29.5806"/>
</g>
<!-- Node16 -->
<g id="node16" class="node"><title>Node16</title>
<polygon fill="none" stroke="#bfbfbf" points="939,-0.5 939,-19.5 979,-19.5 979,-0.5 939,-0.5"/>
<text text-anchor="middle" x="959" y="-7.5" font-family="Helvetica,sans-Serif" font-size="10.00">utility</text>
</g>
<!-- Node14&#45;&gt;Node16 -->
<g id="edge22" class="edge"><title>Node14&#45;&gt;Node16</title>
<path fill="none" stroke="midnightblue" d="M829.635,-62.4035C855.864,-51.9812 900.191,-34.3677 929.527,-22.7111"/>
<polygon fill="midnightblue" stroke="midnightblue" points="930.852,-25.9507 938.853,-19.0053 928.268,-19.4454 930.852,-25.9507"/>
</g>
<!-- Node17&#45;&gt;Node3 -->
<g id="edge26" class="edge"><title>Node17&#45;&gt;Node3</title>
<path fill="none" stroke="midnightblue" d="M327.039,-124.841C303.583,-113.374 270.791,-97.3421 247.904,-86.1532"/>
<polygon fill="midnightblue" stroke="midnightblue" points="249.28,-82.9297 238.758,-81.6819 246.205,-89.2184 249.28,-82.9297"/>
</g>
<!-- Node17&#45;&gt;Node7 -->
<g id="edge24" class="edge"><title>Node17&#45;&gt;Node7</title>
<path fill="none" stroke="midnightblue" d="M334.044,-124.759C310.247,-107.617 278.16,-78.3491 298,-56 320.257,-30.9282 545.236,-17.2857 636.671,-12.741"/>
<polygon fill="midnightblue" stroke="midnightblue" points="637.065,-16.226 646.883,-12.2438 636.725,-9.2343 637.065,-16.226"/>
</g>
<!-- Node17&#45;&gt;Node10 -->
<g id="edge25" class="edge"><title>Node17&#45;&gt;Node10</title>
<path fill="none" stroke="midnightblue" d="M364.028,-124.679C369.626,-114.694 377.131,-101.307 383.1,-90.6596"/>
<polygon fill="midnightblue" stroke="midnightblue" points="386.214,-92.2627 388.051,-81.8283 380.108,-88.8396 386.214,-92.2627"/>
</g>
<!-- Node17&#45;&gt;Node11 -->
<g id="edge27" class="edge"><title>Node17&#45;&gt;Node11</title>
<path fill="none" stroke="midnightblue" d="M350.141,-124.679C346.14,-114.898 340.803,-101.852 336.492,-91.3148"/>
<polygon fill="midnightblue" stroke="midnightblue" points="339.637,-89.7585 332.612,-81.8283 333.159,-92.409 339.637,-89.7585"/>
</g>
<!-- Node17&#45;&gt;Node12 -->
<g id="edge28" class="edge"><title>Node17&#45;&gt;Node12</title>
<path fill="none" stroke="midnightblue" d="M424.042,-124.922C491.52,-110.961 591.984,-90.1758 642.912,-79.6389"/>
<polygon fill="midnightblue" stroke="midnightblue" points="643.914,-83.0058 652.998,-77.5522 642.496,-76.1509 643.914,-83.0058"/>
</g>
<!-- Node17&#45;&gt;Node13 -->
<g id="edge29" class="edge"><title>Node17&#45;&gt;Node13</title>
<path fill="none" stroke="midnightblue" d="M386.248,-124.841C407.064,-115.098 434.922,-102.058 457.49,-91.4941"/>
<polygon fill="midnightblue" stroke="midnightblue" points="459.229,-94.5446 466.802,-87.1352 456.261,-88.2048 459.229,-94.5446"/>
</g>
<!-- Node17&#45;&gt;Node14 -->
<g id="edge30" class="edge"><title>Node17&#45;&gt;Node14</title>
<path fill="none" stroke="midnightblue" d="M424.395,-125.452C427.3,-124.948 430.177,-124.461 433,-124 553.347,-104.332 584.218,-104.787 705,-88 717.287,-86.2923 730.391,-84.4218 742.99,-82.5987"/>
<polygon fill="midnightblue" stroke="midnightblue" points="743.568,-86.0516 752.961,-81.1507 742.562,-79.1242 743.568,-86.0516"/>
</g>
<!-- Node18&#45;&gt;Node6 -->
<g id="edge34" class="edge"><title>Node18&#45;&gt;Node6</title>
<path fill="none" stroke="midnightblue" d="M991.779,-192.922C1026.57,-182.67 1073.86,-168.738 1110.69,-157.887"/>
<polygon fill="midnightblue" stroke="midnightblue" points="1111.69,-161.24 1120.29,-155.056 1109.71,-154.525 1111.69,-161.24"/>
</g>
<!-- Node18&#45;&gt;Node12 -->
<g id="edge33" class="edge"><title>Node18&#45;&gt;Node12</title>
<path fill="none" stroke="midnightblue" d="M915.721,-192.913C863.383,-166.842 752.132,-111.423 701.312,-86.107"/>
<polygon fill="midnightblue" stroke="midnightblue" points="702.782,-82.9294 692.271,-81.6034 699.661,-89.1951 702.782,-82.9294"/>
</g>
<!-- Node18&#45;&gt;Node14 -->
<g id="edge44" class="edge"><title>Node18&#45;&gt;Node14</title>
<path fill="none" stroke="midnightblue" d="M929.077,-192.787C918.417,-182.598 903.762,-168.519 891,-156 867.497,-132.944 840.601,-105.931 823.956,-89.1391"/>
<polygon fill="midnightblue" stroke="midnightblue" points="826.192,-86.4221 816.668,-81.7787 821.217,-91.3473 826.192,-86.4221"/>
</g>
<!-- Node19 -->
<g id="node19" class="node"><title>Node19</title>
<polygon fill="none" stroke="#bfbfbf" points="1010.5,-130.5 1010.5,-149.5 1061.5,-149.5 1061.5,-130.5 1010.5,-130.5"/>
<text text-anchor="middle" x="1036" y="-137.5" font-family="Helvetica,sans-Serif" font-size="10.00">numeric</text>
</g>
<!-- Node18&#45;&gt;Node19 -->
<g id="edge32" class="edge"><title>Node18&#45;&gt;Node19</title>
<path fill="none" stroke="midnightblue" d="M963.963,-192.679C979.248,-181.713 1000.25,-166.645 1015.64,-155.609"/>
<polygon fill="midnightblue" stroke="midnightblue" points="1017.87,-158.311 1023.96,-149.638 1013.79,-152.623 1017.87,-158.311"/>
</g>
<!-- Node20 -->
<g id="node20" class="node"><title>Node20</title>
<g id="a_node20"><a xlink:href="loser__tree_8hpp.html" target="_top" xlink:title="tlx/loser_tree.hpp">
<polygon fill="none" stroke="black" points="900,-130.5 900,-149.5 992,-149.5 992,-130.5 900,-130.5"/>
<text text-anchor="middle" x="946" y="-137.5" font-family="Helvetica,sans-Serif" font-size="10.00">tlx/loser_tree.hpp</text>
</a>
</g>
</g>
<!-- Node18&#45;&gt;Node20 -->
<g id="edge35" class="edge"><title>Node18&#45;&gt;Node20</title>
<path fill="none" stroke="midnightblue" d="M944.434,-192.679C944.724,-183.101 945.109,-170.394 945.425,-159.977"/>
<polygon fill="midnightblue" stroke="midnightblue" points="948.928,-159.93 945.732,-149.828 941.931,-159.718 948.928,-159.93"/>
</g>
<!-- Node22 -->
<g id="node22" class="node"><title>Node22</title>
<g id="a_node22"><a xlink:href="unused_8hpp.html" target="_top" xlink:title="tlx/unused.hpp">
<polygon fill="none" stroke="black" points="1077,-62.5 1077,-81.5 1157,-81.5 1157,-62.5 1077,-62.5"/>
<text text-anchor="middle" x="1117" y="-69.5" font-family="Helvetica,sans-Serif" font-size="10.00">tlx/unused.hpp</text>
</a>
</g>
</g>
<!-- Node18&#45;&gt;Node22 -->
<g id="edge45" class="edge"><title>Node18&#45;&gt;Node22</title>
<path fill="none" stroke="midnightblue" d="M1000.21,-193.182C1023.77,-185.263 1050.22,-173.352 1070,-156 1090.19,-138.291 1103.66,-109.71 1110.82,-91.1392"/>
<polygon fill="midnightblue" stroke="midnightblue" points="1114.19,-92.1133 1114.31,-81.5191 1107.61,-89.725 1114.19,-92.1133"/>
</g>
<!-- Node20&#45;&gt;Node3 -->
<g id="edge38" class="edge"><title>Node20&#45;&gt;Node3</title>
<path fill="none" stroke="midnightblue" d="M899.846,-137.174C793.369,-132.568 522.467,-118.596 298,-88 285.893,-86.3498 272.814,-84.0138 260.933,-81.6755"/>
<polygon fill="midnightblue" stroke="midnightblue" points="261.349,-78.1889 250.853,-79.6372 259.961,-85.0501 261.349,-78.1889"/>
</g>
<!-- Node20&#45;&gt;Node7 -->
<g id="edge36" class="edge"><title>Node20&#45;&gt;Node7</title>
<path fill="none" stroke="midnightblue" d="M940.918,-130.37C930.382,-113.283 904.411,-75.1482 872,-56 822.157,-26.5535 754.718,-16.3715 713.076,-12.8535"/>
<polygon fill="midnightblue" stroke="midnightblue" points="713.308,-9.36113 703.072,-12.095 712.779,-16.3411 713.308,-9.36113"/>
</g>
<!-- Node20&#45;&gt;Node10 -->
<g id="edge37" class="edge"><title>Node20&#45;&gt;Node10</title>
<path fill="none" stroke="midnightblue" d="M899.891,-139.502C808.04,-139.412 596.403,-133.732 426,-88 423.5,-87.3292 420.952,-86.4868 418.436,-85.5452"/>
<polygon fill="midnightblue" stroke="midnightblue" points="419.629,-82.2498 409.056,-81.5759 416.901,-88.6964 419.629,-82.2498"/>
</g>
<!-- Node20&#45;&gt;Node13 -->
<g id="edge41" class="edge"><title>Node20&#45;&gt;Node13</title>
<path fill="none" stroke="midnightblue" d="M899.64,-132.185C821.274,-120.666 662.083,-97.2661 569.062,-83.5926"/>
<polygon fill="midnightblue" stroke="midnightblue" points="569.567,-80.1293 559.164,-82.1377 568.549,-87.0549 569.567,-80.1293"/>
</g>
<!-- Node20&#45;&gt;Node14 -->
<g id="edge42" class="edge"><title>Node20&#45;&gt;Node14</title>
<path fill="none" stroke="midnightblue" d="M927.959,-130.372C904.301,-119.057 862.584,-99.1053 835.115,-85.9678"/>
<polygon fill="midnightblue" stroke="midnightblue" points="836.577,-82.7876 826.046,-81.6305 833.557,-89.1025 836.577,-82.7876"/>
</g>
<!-- Node20&#45;&gt;Node16 -->
<g id="edge39" class="edge"><title>Node20&#45;&gt;Node16</title>
<path fill="none" stroke="midnightblue" d="M972.933,-130.462C992.337,-122.736 1017.11,-109.256 1029,-88 1035.94,-75.587 1035.82,-68.483 1029,-56 1020.37,-40.1889 1003.54,-29.1045 988.545,-21.8932"/>
<polygon fill="midnightblue" stroke="midnightblue" points="989.623,-18.5432 979.062,-17.7029 986.794,-24.946 989.623,-18.5432"/>
</g>
<!-- Node21 -->
<g id="node21" class="node"><title>Node21</title>
<g id="a_node21"><a xlink:href="likely_8hpp.html" target="_top" xlink:title="tlx/define/likely.hpp">
<polygon fill="none" stroke="black" points="919.5,-62.5 919.5,-81.5 1020.5,-81.5 1020.5,-62.5 919.5,-62.5"/>
<text text-anchor="middle" x="970" y="-69.5" font-family="Helvetica,sans-Serif" font-size="10.00">tlx/define/likely.hpp</text>
</a>
</g>
</g>
<!-- Node20&#45;&gt;Node21 -->
<g id="edge40" class="edge"><title>Node20&#45;&gt;Node21</title>
<path fill="none" stroke="midnightblue" d="M949.138,-130.372C952.711,-120.544 958.654,-104.202 963.285,-91.4673"/>
<polygon fill="midnightblue" stroke="midnightblue" points="966.657,-92.4352 966.785,-81.8411 960.078,-90.0429 966.657,-92.4352"/>
</g>
<!-- Node20&#45;&gt;Node22 -->
<g id="edge43" class="edge"><title>Node20&#45;&gt;Node22</title>
<path fill="none" stroke="midnightblue" d="M968.355,-130.372C998.265,-118.827 1051.47,-98.2926 1085.45,-85.1772"/>
<polygon fill="midnightblue" stroke="midnightblue" points="1086.84,-88.3919 1094.91,-81.5259 1084.32,-81.8615 1086.84,-88.3919"/>
</g>
<!-- Node23&#45;&gt;Node7 -->
<g id="edge47" class="edge"><title>Node23&#45;&gt;Node7</title>
<path fill="none" stroke="midnightblue" d="M621.068,-192.711C621.65,-165.243 625.15,-103.581 644,-56 648.054,-45.7661 654.802,-35.5647 660.968,-27.4687"/>
<polygon fill="midnightblue" stroke="midnightblue" points="663.747,-29.5979 667.277,-19.6081 658.288,-25.2166 663.747,-29.5979"/>
</g>
<!-- Node23&#45;&gt;Node9 -->
<g id="edge49" class="edge"><title>Node23&#45;&gt;Node9</title>
<path fill="none" stroke="midnightblue" d="M597.188,-192.841C581.239,-183.359 560.041,-170.754 542.54,-160.348"/>
<polygon fill="midnightblue" stroke="midnightblue" points="544.157,-157.238 533.773,-155.135 540.579,-163.254 544.157,-157.238"/>
</g>
<!-- Node23&#45;&gt;Node12 -->
<g id="edge48" class="edge"><title>Node23&#45;&gt;Node12</title>
<path fill="none" stroke="midnightblue" d="M626.779,-192.66C636.675,-168.103 656.846,-118.049 667.699,-91.1169"/>
<polygon fill="midnightblue" stroke="midnightblue" points="670.991,-92.311 671.483,-81.7275 664.499,-89.6945 670.991,-92.311"/>
</g>
<!-- Node23&#45;&gt;Node14 -->
<g id="edge50" class="edge"><title>Node23&#45;&gt;Node14</title>
<path fill="none" stroke="midnightblue" d="M640.659,-192.913C676.275,-167.391 751.137,-113.747 787.419,-87.7481"/>
<polygon fill="midnightblue" stroke="midnightblue" points="789.674,-90.4376 795.764,-81.7679 785.597,-84.7476 789.674,-90.4376"/>
</g>
<!-- Node24&#45;&gt;Node7 -->
<g id="edge52" class="edge"><title>Node24&#45;&gt;Node7</title>
<path fill="none" stroke="midnightblue" d="M795.365,-260.955C811.525,-252.795 828.813,-240.753 838,-224 844.839,-211.53 843.109,-205.273 838,-192 815.617,-133.855 785.679,-134.311 744,-88 725.155,-67.0608 703.484,-42.8569 689.535,-27.2603"/>
<polygon fill="midnightblue" stroke="midnightblue" points="691.921,-24.678 682.646,-19.5565 686.703,-29.3439 691.921,-24.678"/>
</g>
<!-- Node24&#45;&gt;Node12 -->
<g id="edge54" class="edge"><title>Node24&#45;&gt;Node12</title>
<path fill="none" stroke="midnightblue" d="M752.164,-260.796C737.427,-224.93 698.729,-130.75 682.418,-91.0544"/>
<polygon fill="midnightblue" stroke="midnightblue" points="685.57,-89.5163 678.532,-81.5969 679.096,-92.1768 685.57,-89.5163"/>
</g>
<!-- Node24&#45;&gt;Node14 -->
<g id="edge57" class="edge"><title>Node24&#45;&gt;Node14</title>
<path fill="none" stroke="midnightblue" d="M761.1,-260.871C764.76,-244.33 771.098,-216.123 777,-192 785.72,-156.357 796.705,-114.934 802.982,-91.5588"/>
<polygon fill="midnightblue" stroke="midnightblue" points="806.433,-92.204 805.655,-81.6378 799.674,-90.3828 806.433,-92.204"/>
</g>
<!-- Node24&#45;&gt;Node18 -->
<g id="edge55" class="edge"><title>Node24&#45;&gt;Node18</title>
<path fill="none" stroke="midnightblue" d="M797.902,-260.841C826.316,-250.759 864.675,-237.147 894.958,-226.402"/>
<polygon fill="midnightblue" stroke="midnightblue" points="896.23,-229.664 904.484,-223.022 893.889,-223.067 896.23,-229.664"/>
</g>
<!-- Node24&#45;&gt;Node23 -->
<g id="edge56" class="edge"><title>Node24&#45;&gt;Node23</title>
<path fill="none" stroke="midnightblue" d="M728.61,-260.841C708.384,-251.098 681.317,-238.058 659.389,-227.494"/>
<polygon fill="midnightblue" stroke="midnightblue" points="660.869,-224.322 650.341,-223.135 657.831,-230.629 660.869,-224.322"/>
</g>
<!-- Node25 -->
<g id="node25" class="node"><title>Node25</title>
<polygon fill="none" stroke="#bfbfbf" points="786,-198.5 786,-217.5 830,-217.5 830,-198.5 786,-198.5"/>
<text text-anchor="middle" x="808" y="-205.5" font-family="Helvetica,sans-Serif" font-size="10.00">thread</text>
</g>
<!-- Node24&#45;&gt;Node25 -->
<g id="edge53" class="edge"><title>Node24&#45;&gt;Node25</title>
<path fill="none" stroke="midnightblue" d="M768.849,-260.679C776.568,-250.49 786.971,-236.759 795.113,-226.011"/>
<polygon fill="midnightblue" stroke="midnightblue" points="798.063,-227.913 801.312,-217.828 792.483,-223.686 798.063,-227.913"/>
</g>
</g>
</svg>
