<?xml version="1.0" encoding="UTF-8" standalone="no"?>
<!DOCTYPE svg PUBLIC "-//W3C//DTD SVG 1.1//EN"
 "http://www.w3.org/Graphics/SVG/1.1/DTD/svg11.dtd">
<!-- Generated by graphviz version 2.36.0 (20140111.2315)
 -->
<!-- Title: thrill/mem/aligned_allocator.hpp Pages: 1 -->
<svg width="1518pt" height="400pt"
 viewBox="0.00 0.00 1518.00 400.00" xmlns="http://www.w3.org/2000/svg" xmlns:xlink="http://www.w3.org/1999/xlink">
<g id="graph0" class="graph" transform="scale(1 1) rotate(0) translate(4 396)">
<title>thrill/mem/aligned_allocator.hpp</title>
<!-- Node1 -->
<g id="node1" class="node"><title>Node1</title>
<polygon fill="#bfbfbf" stroke="black" points="510.5,-361 510.5,-391 603.5,-391 603.5,-361 510.5,-361"/>
<text text-anchor="start" x="518.5" y="-379" font-family="Helvetica,sans-Serif" font-size="10.00">thrill/mem/aligned</text>
<text text-anchor="middle" x="557" y="-368" font-family="Helvetica,sans-Serif" font-size="10.00">_allocator.hpp</text>
</g>
<!-- Node2 -->
<g id="node2" class="node"><title>Node2</title>
<g id="a_node2"><a xlink:href="thrill_2common_2logger_8hpp.html" target="_top" xlink:title="thrill/common/logger.hpp">
<polygon fill="none" stroke="black" points="1087.5,-304.5 1087.5,-323.5 1210.5,-323.5 1210.5,-304.5 1087.5,-304.5"/>
<text text-anchor="middle" x="1149" y="-311.5" font-family="Helvetica,sans-Serif" font-size="10.00">thrill/common/logger.hpp</text>
</a>
</g>
</g>
<!-- Node1&#45;&gt;Node2 -->
<g id="edge1" class="edge"><title>Node1&#45;&gt;Node2</title>
<path fill="none" stroke="midnightblue" d="M603.948,-370.242C707.156,-359.781 954.345,-334.729 1077.19,-322.278"/>
<polygon fill="midnightblue" stroke="midnightblue" points="1077.65,-325.749 1087.25,-321.259 1076.95,-318.785 1077.65,-325.749"/>
</g>
<!-- Node4 -->
<g id="node4" class="node"><title>Node4</title>
<g id="a_node4"><a xlink:href="thrill_2mem_2allocator__base_8hpp.html" target="_top" xlink:title="thrill/mem/allocator\l_base.hpp">
<polygon fill="none" stroke="black" points="507.5,-181 507.5,-211 606.5,-211 606.5,-181 507.5,-181"/>
<text text-anchor="start" x="515.5" y="-199" font-family="Helvetica,sans-Serif" font-size="10.00">thrill/mem/allocator</text>
<text text-anchor="middle" x="557" y="-188" font-family="Helvetica,sans-Serif" font-size="10.00">_base.hpp</text>
</a>
</g>
</g>
<!-- Node1&#45;&gt;Node4 -->
<g id="edge62" class="edge"><title>Node1&#45;&gt;Node4</title>
<path fill="none" stroke="midnightblue" d="M557,-360.734C557,-330.4 557,-259.187 557,-221.457"/>
<polygon fill="midnightblue" stroke="midnightblue" points="560.5,-221.333 557,-211.334 553.5,-221.334 560.5,-221.333"/>
</g>
<!-- Node16 -->
<g id="node16" class="node"><title>Node16</title>
<polygon fill="none" stroke="#bfbfbf" points="534.5,-68.5 534.5,-87.5 579.5,-87.5 579.5,-68.5 534.5,-68.5"/>
<text text-anchor="middle" x="557" y="-75.5" font-family="Helvetica,sans-Serif" font-size="10.00">cstdlib</text>
</g>
<!-- Node1&#45;&gt;Node16 -->
<g id="edge64" class="edge"><title>Node1&#45;&gt;Node16</title>
<path fill="none" stroke="midnightblue" d="M512.946,-360.873C409.583,-325.557 166.821,-228.715 257,-124 274.279,-103.936 449.552,-87.6244 523.921,-81.552"/>
<polygon fill="midnightblue" stroke="midnightblue" points="524.443,-85.0214 534.13,-80.7312 523.882,-78.044 524.443,-85.0214"/>
</g>
<!-- Node26 -->
<g id="node26" class="node"><title>Node26</title>
<polygon fill="none" stroke="#bfbfbf" points="57.5,-68.5 57.5,-87.5 106.5,-87.5 106.5,-68.5 57.5,-68.5"/>
<text text-anchor="middle" x="82" y="-75.5" font-family="Helvetica,sans-Serif" font-size="10.00">cassert</text>
</g>
<!-- Node1&#45;&gt;Node26 -->
<g id="edge63" class="edge"><title>Node1&#45;&gt;Node26</title>
<path fill="none" stroke="midnightblue" d="M510.469,-375.162C376.599,-374.385 0,-362.962 0,-259 0,-259 0,-259 0,-195 0,-152.201 37.6815,-114.122 61.9569,-94.0315"/>
<polygon fill="midnightblue" stroke="midnightblue" points="64.2642,-96.6683 69.9006,-87.6971 59.8999,-91.1952 64.2642,-96.6683"/>
</g>
<!-- Node29 -->
<g id="node29" class="node"><title>Node29</title>
<polygon fill="none" stroke="#bfbfbf" points="1403,-68.5 1403,-87.5 1455,-87.5 1455,-68.5 1403,-68.5"/>
<text text-anchor="middle" x="1429" y="-75.5" font-family="Helvetica,sans-Serif" font-size="10.00">memory</text>
</g>
<!-- Node1&#45;&gt;Node29 -->
<g id="edge65" class="edge"><title>Node1&#45;&gt;Node29</title>
<path fill="none" stroke="midnightblue" d="M603.61,-374.288C794.944,-370.761 1510,-351.399 1510,-259 1510,-259 1510,-259 1510,-195 1510,-152.374 1472.78,-114.234 1448.8,-94.0854"/>
<polygon fill="midnightblue" stroke="midnightblue" points="1450.93,-91.3044 1440.95,-87.7312 1446.52,-96.7444 1450.93,-91.3044"/>
</g>
<!-- Node3 -->
<g id="node3" class="node"><title>Node3</title>
<g id="a_node3"><a xlink:href="allocator_8hpp.html" target="_top" xlink:title="thrill/mem/allocator.hpp">
<polygon fill="none" stroke="black" points="359,-248.5 359,-267.5 477,-267.5 477,-248.5 359,-248.5"/>
<text text-anchor="middle" x="418" y="-255.5" font-family="Helvetica,sans-Serif" font-size="10.00">thrill/mem/allocator.hpp</text>
</a>
</g>
</g>
<!-- Node2&#45;&gt;Node3 -->
<g id="edge2" class="edge"><title>Node2&#45;&gt;Node3</title>
<path fill="none" stroke="midnightblue" d="M1087.31,-308.443C951.976,-298.446 629.821,-274.648 487.563,-264.139"/>
<polygon fill="midnightblue" stroke="midnightblue" points="487.458,-260.621 477.227,-263.375 486.942,-267.602 487.458,-260.621"/>
</g>
<!-- Node19 -->
<g id="node19" class="node"><title>Node19</title>
<polygon fill="none" stroke="#bfbfbf" points="1329,-68.5 1329,-87.5 1381,-87.5 1381,-68.5 1329,-68.5"/>
<text text-anchor="middle" x="1355" y="-75.5" font-family="Helvetica,sans-Serif" font-size="10.00">sstream</text>
</g>
<!-- Node2&#45;&gt;Node19 -->
<g id="edge60" class="edge"><title>Node2&#45;&gt;Node19</title>
<path fill="none" stroke="midnightblue" d="M1210.31,-304.465C1241.43,-298.03 1278.73,-286.932 1308,-268 1335.28,-250.351 1343.89,-242.533 1355,-212 1369.04,-173.443 1363.59,-124.329 1358.94,-97.8932"/>
<polygon fill="midnightblue" stroke="midnightblue" points="1362.32,-96.9163 1356.99,-87.7545 1355.44,-98.2348 1362.32,-96.9163"/>
</g>
<!-- Node20 -->
<g id="node20" class="node"><title>Node20</title>
<polygon fill="none" stroke="#bfbfbf" points="1261.5,-68.5 1261.5,-87.5 1302.5,-87.5 1302.5,-68.5 1261.5,-68.5"/>
<text text-anchor="middle" x="1282" y="-75.5" font-family="Helvetica,sans-Serif" font-size="10.00">string</text>
</g>
<!-- Node2&#45;&gt;Node20 -->
<g id="edge61" class="edge"><title>Node2&#45;&gt;Node20</title>
<path fill="none" stroke="midnightblue" d="M1189.46,-304.471C1234.95,-292.48 1306.67,-265.794 1339,-212 1347.23,-198.303 1335.42,-130.548 1332,-124 1325.67,-111.868 1314.65,-101.414 1304.57,-93.6432"/>
<polygon fill="midnightblue" stroke="midnightblue" points="1306.6,-90.7916 1296.45,-87.7693 1302.5,-96.4644 1306.6,-90.7916"/>
</g>
<!-- Node34 -->
<g id="node34" class="node"><title>Node34</title>
<g id="a_node34"><a xlink:href="pool_8hpp.html" target="_top" xlink:title="thrill/mem/pool.hpp">
<polygon fill="none" stroke="black" points="1099.5,-248.5 1099.5,-267.5 1198.5,-267.5 1198.5,-248.5 1099.5,-248.5"/>
<text text-anchor="middle" x="1149" y="-255.5" font-family="Helvetica,sans-Serif" font-size="10.00">thrill/mem/pool.hpp</text>
</a>
</g>
</g>
<!-- Node2&#45;&gt;Node34 -->
<g id="edge48" class="edge"><title>Node2&#45;&gt;Node34</title>
<path fill="none" stroke="midnightblue" d="M1149,-304.083C1149,-297.006 1149,-286.861 1149,-277.986"/>
<polygon fill="midnightblue" stroke="midnightblue" points="1152.5,-277.751 1149,-267.751 1145.5,-277.751 1152.5,-277.751"/>
</g>
<!-- Node3&#45;&gt;Node4 -->
<g id="edge3" class="edge"><title>Node3&#45;&gt;Node4</title>
<path fill="none" stroke="midnightblue" d="M437.915,-248.403C457.951,-239.755 489.459,-226.155 515.033,-215.115"/>
<polygon fill="midnightblue" stroke="midnightblue" points="516.714,-218.202 524.508,-211.025 513.94,-211.775 516.714,-218.202"/>
</g>
<!-- Node3&#45;&gt;Node20 -->
<g id="edge45" class="edge"><title>Node3&#45;&gt;Node20</title>
<path fill="none" stroke="midnightblue" d="M477.103,-251.364C539.881,-244.695 641.76,-231.913 728,-212 773.468,-201.501 782.272,-189.3 828,-180 999.446,-145.132 1062.48,-220.146 1220,-144 1241.86,-133.433 1260.06,-111.678 1270.97,-96.2518"/>
<polygon fill="midnightblue" stroke="midnightblue" points="1274.1,-97.8696 1276.79,-87.6211 1268.3,-93.9572 1274.1,-97.8696"/>
</g>
<!-- Node21 -->
<g id="node21" class="node"><title>Node21</title>
<polygon fill="none" stroke="#bfbfbf" points="598,-68.5 598,-87.5 642,-87.5 642,-68.5 598,-68.5"/>
<text text-anchor="middle" x="620" y="-75.5" font-family="Helvetica,sans-Serif" font-size="10.00">vector</text>
</g>
<!-- Node3&#45;&gt;Node21 -->
<g id="edge47" class="edge"><title>Node3&#45;&gt;Node21</title>
<path fill="none" stroke="midnightblue" d="M394.18,-248.366C341.824,-228.163 224.927,-175.601 271,-124 316.328,-73.2327 502.641,-99.331 587.641,-87.4508"/>
<polygon fill="midnightblue" stroke="midnightblue" points="588.448,-90.8645 597.731,-85.7578 587.29,-83.961 588.448,-90.8645"/>
</g>
<!-- Node23 -->
<g id="node23" class="node"><title>Node23</title>
<g id="a_node23"><a xlink:href="mem_2manager_8hpp.html" target="_top" xlink:title="thrill/mem/manager.hpp">
<polygon fill="none" stroke="black" points="66.5,-124.5 66.5,-143.5 185.5,-143.5 185.5,-124.5 66.5,-124.5"/>
<text text-anchor="middle" x="126" y="-131.5" font-family="Helvetica,sans-Serif" font-size="10.00">thrill/mem/manager.hpp</text>
</a>
</g>
</g>
<!-- Node3&#45;&gt;Node23 -->
<g id="edge39" class="edge"><title>Node3&#45;&gt;Node23</title>
<path fill="none" stroke="midnightblue" d="M362.751,-248.477C326.24,-241.583 277.935,-230.008 238,-212 233.057,-209.771 177.448,-171.029 146.496,-149.369"/>
<polygon fill="midnightblue" stroke="midnightblue" points="148.322,-146.375 138.123,-143.506 144.306,-152.109 148.322,-146.375"/>
</g>
<!-- Node3&#45;&gt;Node26 -->
<g id="edge40" class="edge"><title>Node3&#45;&gt;Node26</title>
<path fill="none" stroke="midnightblue" d="M358.716,-249.903C311.988,-243.22 245.656,-231.297 190,-212 127.274,-190.252 91.6488,-200.63 57,-144 47.6827,-128.772 57.4304,-109.486 67.3501,-95.8898"/>
<polygon fill="midnightblue" stroke="midnightblue" points="70.2314,-97.8891 73.695,-87.8764 64.7433,-93.5438 70.2314,-97.8891"/>
</g>
<!-- Node3&#45;&gt;Node29 -->
<g id="edge43" class="edge"><title>Node3&#45;&gt;Node29</title>
<path fill="none" stroke="midnightblue" d="M477.076,-250.877C550.9,-242.999 681.041,-228.365 792,-212 873.684,-199.953 893.386,-192.511 975,-180 1095.97,-161.456 1129.06,-172.846 1248,-144 1303.08,-130.642 1364.69,-106.421 1399.96,-91.6154"/>
<polygon fill="midnightblue" stroke="midnightblue" points="1401.76,-94.6526 1409.6,-87.5257 1399.03,-88.2083 1401.76,-94.6526"/>
</g>
<!-- Node30 -->
<g id="node30" class="node"><title>Node30</title>
<polygon fill="none" stroke="#bfbfbf" points="1101,-68.5 1101,-87.5 1163,-87.5 1163,-68.5 1101,-68.5"/>
<text text-anchor="middle" x="1132" y="-75.5" font-family="Helvetica,sans-Serif" font-size="10.00">type_traits</text>
</g>
<!-- Node3&#45;&gt;Node30 -->
<g id="edge46" class="edge"><title>Node3&#45;&gt;Node30</title>
<path fill="none" stroke="midnightblue" d="M458.145,-248.486C526.305,-234.076 669.046,-204.097 790,-180 873.434,-163.378 896.584,-168.677 978,-144 1024.36,-129.948 1075.74,-106.583 1105.88,-92.0263"/>
<polygon fill="midnightblue" stroke="midnightblue" points="1107.44,-95.1628 1114.89,-87.6324 1104.37,-88.8715 1107.44,-95.1628"/>
</g>
<!-- Node31 -->
<g id="node31" class="node"><title>Node31</title>
<polygon fill="none" stroke="#bfbfbf" points="396.5,-124.5 396.5,-143.5 439.5,-143.5 439.5,-124.5 396.5,-124.5"/>
<text text-anchor="middle" x="418" y="-131.5" font-family="Helvetica,sans-Serif" font-size="10.00">deque</text>
</g>
<!-- Node3&#45;&gt;Node31 -->
<g id="edge41" class="edge"><title>Node3&#45;&gt;Node31</title>
<path fill="none" stroke="midnightblue" d="M418,-248.226C418,-228.53 418,-180.437 418,-153.7"/>
<polygon fill="midnightblue" stroke="midnightblue" points="421.5,-153.694 418,-143.694 414.5,-153.694 421.5,-153.694"/>
</g>
<!-- Node32 -->
<g id="node32" class="node"><title>Node32</title>
<polygon fill="none" stroke="#bfbfbf" points="280.5,-124.5 280.5,-143.5 325.5,-143.5 325.5,-124.5 280.5,-124.5"/>
<text text-anchor="middle" x="303" y="-131.5" font-family="Helvetica,sans-Serif" font-size="10.00">iosfwd</text>
</g>
<!-- Node3&#45;&gt;Node32 -->
<g id="edge42" class="edge"><title>Node3&#45;&gt;Node32</title>
<path fill="none" stroke="midnightblue" d="M409.729,-248.226C390.583,-227.914 342.971,-177.404 318.325,-151.258"/>
<polygon fill="midnightblue" stroke="midnightblue" points="320.602,-148.57 311.196,-143.694 315.508,-153.372 320.602,-148.57"/>
</g>
<!-- Node33 -->
<g id="node33" class="node"><title>Node33</title>
<polygon fill="none" stroke="#bfbfbf" points="343.5,-124.5 343.5,-143.5 378.5,-143.5 378.5,-124.5 343.5,-124.5"/>
<text text-anchor="middle" x="361" y="-131.5" font-family="Helvetica,sans-Serif" font-size="10.00">new</text>
</g>
<!-- Node3&#45;&gt;Node33 -->
<g id="edge44" class="edge"><title>Node3&#45;&gt;Node33</title>
<path fill="none" stroke="midnightblue" d="M413.901,-248.226C404.616,-228.354 381.827,-179.576 369.405,-152.989"/>
<polygon fill="midnightblue" stroke="midnightblue" points="372.466,-151.273 365.062,-143.694 366.124,-154.236 372.466,-151.273"/>
</g>
<!-- Node5 -->
<g id="node5" class="node"><title>Node5</title>
<g id="a_node5"><a xlink:href="thrill_2common_2string_8hpp.html" target="_top" xlink:title="thrill/common/string.hpp">
<polygon fill="none" stroke="black" points="812.5,-124.5 812.5,-143.5 933.5,-143.5 933.5,-124.5 812.5,-124.5"/>
<text text-anchor="middle" x="873" y="-131.5" font-family="Helvetica,sans-Serif" font-size="10.00">thrill/common/string.hpp</text>
</a>
</g>
</g>
<!-- Node4&#45;&gt;Node5 -->
<g id="edge4" class="edge"><title>Node4&#45;&gt;Node5</title>
<path fill="none" stroke="midnightblue" d="M606.723,-185.559C664.229,-174.64 758.607,-156.72 818.189,-145.407"/>
<polygon fill="midnightblue" stroke="midnightblue" points="818.995,-148.817 828.166,-143.513 817.689,-141.94 818.995,-148.817"/>
</g>
<!-- Node4&#45;&gt;Node20 -->
<g id="edge36" class="edge"><title>Node4&#45;&gt;Node20</title>
<path fill="none" stroke="midnightblue" d="M606.713,-191.663C750.568,-181.914 1158.79,-153.566 1186,-144 1216.68,-133.215 1246.87,-110.154 1264.97,-94.6075"/>
<polygon fill="midnightblue" stroke="midnightblue" points="1267.65,-96.9077 1272.83,-87.6658 1263.02,-91.6599 1267.65,-96.9077"/>
</g>
<!-- Node4&#45;&gt;Node21 -->
<g id="edge38" class="edge"><title>Node4&#45;&gt;Node21</title>
<path fill="none" stroke="midnightblue" d="M606.632,-189.413C635.555,-183.321 669.816,-170.593 688,-144 702.16,-123.292 674.844,-104.032 650.728,-91.9385"/>
<polygon fill="midnightblue" stroke="midnightblue" points="651.933,-88.6365 641.398,-87.5146 648.934,-94.9615 651.933,-88.6365"/>
</g>
<!-- Node22 -->
<g id="node22" class="node"><title>Node22</title>
<g id="a_node22"><a xlink:href="malloc__tracker_8hpp.html" target="_top" xlink:title="thrill/mem/malloc_tracker.hpp">
<polygon fill="none" stroke="black" points="534.5,-124.5 534.5,-143.5 679.5,-143.5 679.5,-124.5 534.5,-124.5"/>
<text text-anchor="middle" x="607" y="-131.5" font-family="Helvetica,sans-Serif" font-size="10.00">thrill/mem/malloc_tracker.hpp</text>
</a>
</g>
</g>
<!-- Node4&#45;&gt;Node22 -->
<g id="edge21" class="edge"><title>Node4&#45;&gt;Node22</title>
<path fill="none" stroke="midnightblue" d="M568.849,-180.781C576.19,-171.972 585.645,-160.626 593.306,-151.433"/>
<polygon fill="midnightblue" stroke="midnightblue" points="596.011,-153.653 599.725,-143.731 590.634,-149.172 596.011,-153.653"/>
</g>
<!-- Node4&#45;&gt;Node23 -->
<g id="edge23" class="edge"><title>Node4&#45;&gt;Node23</title>
<path fill="none" stroke="midnightblue" d="M507.138,-188.059C430.405,-177.377 283.119,-156.873 195.817,-144.719"/>
<polygon fill="midnightblue" stroke="midnightblue" points="196.125,-141.228 185.738,-143.316 195.16,-148.162 196.125,-141.228"/>
</g>
<!-- Node25 -->
<g id="node25" class="node"><title>Node25</title>
<polygon fill="none" stroke="#bfbfbf" points="176,-68.5 176,-87.5 222,-87.5 222,-68.5 176,-68.5"/>
<text text-anchor="middle" x="199" y="-75.5" font-family="Helvetica,sans-Serif" font-size="10.00">atomic</text>
</g>
<!-- Node4&#45;&gt;Node25 -->
<g id="edge31" class="edge"><title>Node4&#45;&gt;Node25</title>
<path fill="none" stroke="midnightblue" d="M546.551,-180.907C533.443,-164.362 509.341,-137.473 482,-124 398.955,-83.0777 287.101,-77.8715 232.206,-78.0796"/>
<polygon fill="midnightblue" stroke="midnightblue" points="231.975,-74.5817 222.011,-78.1844 232.047,-81.5813 231.975,-74.5817"/>
</g>
<!-- Node4&#45;&gt;Node26 -->
<g id="edge32" class="edge"><title>Node4&#45;&gt;Node26</title>
<path fill="none" stroke="midnightblue" d="M536.408,-180.864C507.557,-161.17 457.547,-127.483 448,-124 432.522,-118.353 205.221,-92.6841 116.813,-82.8497"/>
<polygon fill="midnightblue" stroke="midnightblue" points="117.069,-79.3567 106.743,-81.7313 116.296,-86.3139 117.069,-79.3567"/>
</g>
<!-- Node27 -->
<g id="node27" class="node"><title>Node27</title>
<g id="a_node27"><a xlink:href="extlib_2tlx_2tlx_2allocator__base_8hpp.html" target="_top" xlink:title="tlx/allocator_base.hpp">
<polygon fill="none" stroke="black" points="1066,-124.5 1066,-143.5 1178,-143.5 1178,-124.5 1066,-124.5"/>
<text text-anchor="middle" x="1122" y="-131.5" font-family="Helvetica,sans-Serif" font-size="10.00">tlx/allocator_base.hpp</text>
</a>
</g>
</g>
<!-- Node4&#45;&gt;Node27 -->
<g id="edge27" class="edge"><title>Node4&#45;&gt;Node27</title>
<path fill="none" stroke="midnightblue" d="M606.645,-189.728C708.456,-178.916 940.932,-154.228 1055.57,-142.054"/>
<polygon fill="midnightblue" stroke="midnightblue" points="1056.05,-145.523 1065.63,-140.987 1055.31,-138.562 1056.05,-145.523"/>
</g>
<!-- Node4&#45;&gt;Node30 -->
<g id="edge37" class="edge"><title>Node4&#45;&gt;Node30</title>
<path fill="none" stroke="midnightblue" d="M606.535,-190.272C695.774,-181.451 880.022,-161.766 942,-144 962.649,-138.081 965.917,-131.624 986,-124 1020.83,-110.78 1061.38,-98.5216 1090.9,-90.1486"/>
<polygon fill="midnightblue" stroke="midnightblue" points="1092.17,-93.427 1100.85,-87.3538 1090.28,-86.6877 1092.17,-93.427"/>
</g>
<!-- Node4&#45;&gt;Node31 -->
<g id="edge33" class="edge"><title>Node4&#45;&gt;Node31</title>
<path fill="none" stroke="midnightblue" d="M524.411,-180.933C501.064,-170.855 469.89,-157.399 447.323,-147.657"/>
<polygon fill="midnightblue" stroke="midnightblue" points="448.492,-144.35 437.923,-143.6 445.717,-150.777 448.492,-144.35"/>
</g>
<!-- Node4&#45;&gt;Node32 -->
<g id="edge34" class="edge"><title>Node4&#45;&gt;Node32</title>
<path fill="none" stroke="midnightblue" d="M507.201,-184.473C464.089,-175.166 399.854,-160.835 335.547,-144.301"/>
<polygon fill="midnightblue" stroke="midnightblue" points="336.203,-140.856 325.645,-141.738 334.449,-147.633 336.203,-140.856"/>
</g>
<!-- Node4&#45;&gt;Node33 -->
<g id="edge35" class="edge"><title>Node4&#45;&gt;Node33</title>
<path fill="none" stroke="midnightblue" d="M508.102,-180.919C476.301,-171.627 433.723,-158.937 388.318,-144.342"/>
<polygon fill="midnightblue" stroke="midnightblue" points="389.18,-140.943 378.589,-141.2 387.029,-147.604 389.18,-140.943"/>
</g>
<!-- Node6 -->
<g id="node6" class="node"><title>Node6</title>
<g id="a_node6"><a xlink:href="define_8hpp.html" target="_top" xlink:title="tlx/define.hpp">
<polygon fill="none" stroke="black" points="909.5,-68.5 909.5,-87.5 984.5,-87.5 984.5,-68.5 909.5,-68.5"/>
<text text-anchor="middle" x="947" y="-75.5" font-family="Helvetica,sans-Serif" font-size="10.00">tlx/define.hpp</text>
</a>
</g>
</g>
<!-- Node5&#45;&gt;Node6 -->
<g id="edge5" class="edge"><title>Node5&#45;&gt;Node6</title>
<path fill="none" stroke="midnightblue" d="M884.889,-124.324C896.15,-116.107 913.287,-103.602 926.709,-93.8069"/>
<polygon fill="midnightblue" stroke="midnightblue" points="928.88,-96.5559 934.894,-87.8339 924.753,-90.9014 928.88,-96.5559"/>
</g>
<!-- Node13 -->
<g id="node13" class="node"><title>Node13</title>
<g id="a_node13"><a xlink:href="unused_8hpp.html" target="_top" xlink:title="tlx/unused.hpp">
<polygon fill="none" stroke="black" points="1003,-68.5 1003,-87.5 1083,-87.5 1083,-68.5 1003,-68.5"/>
<text text-anchor="middle" x="1043" y="-75.5" font-family="Helvetica,sans-Serif" font-size="10.00">tlx/unused.hpp</text>
</a>
</g>
</g>
<!-- Node5&#45;&gt;Node13 -->
<g id="edge12" class="edge"><title>Node5&#45;&gt;Node13</title>
<path fill="none" stroke="midnightblue" d="M899.937,-124.444C928.66,-115.32 974.329,-100.813 1006.32,-90.6509"/>
<polygon fill="midnightblue" stroke="midnightblue" points="1007.72,-93.8797 1016.19,-87.5164 1005.6,-87.2081 1007.72,-93.8797"/>
</g>
<!-- Node14 -->
<g id="node14" class="node"><title>Node14</title>
<polygon fill="none" stroke="#bfbfbf" points="660,-68.5 660,-87.5 698,-87.5 698,-68.5 660,-68.5"/>
<text text-anchor="middle" x="679" y="-75.5" font-family="Helvetica,sans-Serif" font-size="10.00">array</text>
</g>
<!-- Node5&#45;&gt;Node14 -->
<g id="edge13" class="edge"><title>Node5&#45;&gt;Node14</title>
<path fill="none" stroke="midnightblue" d="M839.802,-124.484C808.235,-116.279 759.202,-103.261 708.138,-88.2426"/>
<polygon fill="midnightblue" stroke="midnightblue" points="708.826,-84.7961 698.243,-85.3145 706.839,-91.5084 708.826,-84.7961"/>
</g>
<!-- Node15 -->
<g id="node15" class="node"><title>Node15</title>
<polygon fill="none" stroke="#bfbfbf" points="716.5,-68.5 716.5,-87.5 765.5,-87.5 765.5,-68.5 716.5,-68.5"/>
<text text-anchor="middle" x="741" y="-75.5" font-family="Helvetica,sans-Serif" font-size="10.00">cstdarg</text>
</g>
<!-- Node5&#45;&gt;Node15 -->
<g id="edge14" class="edge"><title>Node5&#45;&gt;Node15</title>
<path fill="none" stroke="midnightblue" d="M852.084,-124.444C830.264,-115.517 795.85,-101.439 771.108,-91.3168"/>
<polygon fill="midnightblue" stroke="midnightblue" points="772.399,-88.0634 761.818,-87.5164 769.748,-94.5422 772.399,-88.0634"/>
</g>
<!-- Node5&#45;&gt;Node16 -->
<g id="edge15" class="edge"><title>Node5&#45;&gt;Node16</title>
<path fill="none" stroke="midnightblue" d="M812.228,-125.467C756.661,-118.105 672.061,-105.708 589.445,-87.8668"/>
<polygon fill="midnightblue" stroke="midnightblue" points="590.16,-84.4405 579.643,-85.722 588.664,-91.2787 590.16,-84.4405"/>
</g>
<!-- Node17 -->
<g id="node17" class="node"><title>Node17</title>
<polygon fill="none" stroke="#bfbfbf" points="784,-68.5 784,-87.5 824,-87.5 824,-68.5 784,-68.5"/>
<text text-anchor="middle" x="804" y="-75.5" font-family="Helvetica,sans-Serif" font-size="10.00">limits</text>
</g>
<!-- Node5&#45;&gt;Node17 -->
<g id="edge16" class="edge"><title>Node5&#45;&gt;Node17</title>
<path fill="none" stroke="midnightblue" d="M861.914,-124.324C851.514,-116.185 835.739,-103.839 823.278,-94.0874"/>
<polygon fill="midnightblue" stroke="midnightblue" points="825.32,-91.2407 815.288,-87.8339 821.006,-96.7533 825.32,-91.2407"/>
</g>
<!-- Node18 -->
<g id="node18" class="node"><title>Node18</title>
<polygon fill="none" stroke="#bfbfbf" points="842.5,-68.5 842.5,-87.5 891.5,-87.5 891.5,-68.5 842.5,-68.5"/>
<text text-anchor="middle" x="867" y="-75.5" font-family="Helvetica,sans-Serif" font-size="10.00">random</text>
</g>
<!-- Node5&#45;&gt;Node18 -->
<g id="edge17" class="edge"><title>Node5&#45;&gt;Node18</title>
<path fill="none" stroke="midnightblue" d="M872.009,-124.083C871.214,-116.927 870.071,-106.635 869.077,-97.6911"/>
<polygon fill="midnightblue" stroke="midnightblue" points="872.555,-97.3034 867.972,-87.7511 865.598,-98.0765 872.555,-97.3034"/>
</g>
<!-- Node5&#45;&gt;Node19 -->
<g id="edge18" class="edge"><title>Node5&#45;&gt;Node19</title>
<path fill="none" stroke="midnightblue" d="M933.821,-128.672C1018.63,-122.201 1177.07,-108.525 1311,-88 1313.5,-87.6176 1316.06,-87.188 1318.65,-86.7292"/>
<polygon fill="midnightblue" stroke="midnightblue" points="1319.38,-90.1528 1328.55,-84.8534 1318.08,-83.275 1319.38,-90.1528"/>
</g>
<!-- Node5&#45;&gt;Node20 -->
<g id="edge19" class="edge"><title>Node5&#45;&gt;Node20</title>
<path fill="none" stroke="midnightblue" d="M933.776,-127.106C1006.58,-119.683 1132.11,-105.726 1239,-88 1242.95,-87.3449 1247.09,-86.5801 1251.17,-85.7779"/>
<polygon fill="midnightblue" stroke="midnightblue" points="1251.98,-89.1858 1261.07,-83.7487 1250.57,-82.3284 1251.98,-89.1858"/>
</g>
<!-- Node5&#45;&gt;Node21 -->
<g id="edge20" class="edge"><title>Node5&#45;&gt;Node21</title>
<path fill="none" stroke="midnightblue" d="M825.11,-124.475C782.18,-116.568 717.291,-103.965 652.299,-88.1681"/>
<polygon fill="midnightblue" stroke="midnightblue" points="652.838,-84.6966 642.292,-85.7103 651.168,-91.4946 652.838,-84.6966"/>
</g>
<!-- Node7 -->
<g id="node7" class="node"><title>Node7</title>
<g id="a_node7"><a xlink:href="attribute__always__inline_8hpp.html" target="_top" xlink:title="tlx/define/attribute\l_always_inline.hpp">
<polygon fill="none" stroke="black" points="613.5,-1 613.5,-31 712.5,-31 712.5,-1 613.5,-1"/>
<text text-anchor="start" x="621.5" y="-19" font-family="Helvetica,sans-Serif" font-size="10.00">tlx/define/attribute</text>
<text text-anchor="middle" x="663" y="-8" font-family="Helvetica,sans-Serif" font-size="10.00">_always_inline.hpp</text>
</a>
</g>
</g>
<!-- Node6&#45;&gt;Node7 -->
<g id="edge6" class="edge"><title>Node6&#45;&gt;Node7</title>
<path fill="none" stroke="midnightblue" d="M909.261,-69.7542C858.496,-59.9647 769.91,-42.7218 722.617,-32.2785"/>
<polygon fill="midnightblue" stroke="midnightblue" points="723.153,-28.8118 712.629,-30.0319 721.617,-35.6412 723.153,-28.8118"/>
</g>
<!-- Node8 -->
<g id="node8" class="node"><title>Node8</title>
<g id="a_node8"><a xlink:href="attribute__fallthrough_8hpp.html" target="_top" xlink:title="tlx/define/attribute\l_fallthrough.hpp">
<polygon fill="none" stroke="black" points="730.5,-1 730.5,-31 825.5,-31 825.5,-1 730.5,-1"/>
<text text-anchor="start" x="738.5" y="-19" font-family="Helvetica,sans-Serif" font-size="10.00">tlx/define/attribute</text>
<text text-anchor="middle" x="778" y="-8" font-family="Helvetica,sans-Serif" font-size="10.00">_fallthrough.hpp</text>
</a>
</g>
</g>
<!-- Node6&#45;&gt;Node8 -->
<g id="edge7" class="edge"><title>Node6&#45;&gt;Node8</title>
<path fill="none" stroke="midnightblue" d="M922.786,-68.4035C897.89,-59.5644 858.424,-45.553 826.98,-34.3895"/>
<polygon fill="midnightblue" stroke="midnightblue" points="828.099,-31.0728 817.505,-31.0253 825.757,-37.6694 828.099,-31.0728"/>
</g>
<!-- Node9 -->
<g id="node9" class="node"><title>Node9</title>
<g id="a_node9"><a xlink:href="attribute__format__printf_8hpp.html" target="_top" xlink:title="tlx/define/attribute\l_format_printf.hpp">
<polygon fill="none" stroke="black" points="843.5,-1 843.5,-31 938.5,-31 938.5,-1 843.5,-1"/>
<text text-anchor="start" x="851.5" y="-19" font-family="Helvetica,sans-Serif" font-size="10.00">tlx/define/attribute</text>
<text text-anchor="middle" x="891" y="-8" font-family="Helvetica,sans-Serif" font-size="10.00">_format_printf.hpp</text>
</a>
</g>
</g>
<!-- Node6&#45;&gt;Node9 -->
<g id="edge8" class="edge"><title>Node6&#45;&gt;Node9</title>
<path fill="none" stroke="midnightblue" d="M938.977,-68.4035C931.747,-60.657 920.809,-48.9379 911.202,-38.6447"/>
<polygon fill="midnightblue" stroke="midnightblue" points="913.58,-36.0633 904.198,-31.1408 908.463,-40.8395 913.58,-36.0633"/>
</g>
<!-- Node10 -->
<g id="node10" class="node"><title>Node10</title>
<g id="a_node10"><a xlink:href="attribute__packed_8hpp.html" target="_top" xlink:title="tlx/define/attribute\l_packed.hpp">
<polygon fill="none" stroke="black" points="956.5,-1 956.5,-31 1051.5,-31 1051.5,-1 956.5,-1"/>
<text text-anchor="start" x="964.5" y="-19" font-family="Helvetica,sans-Serif" font-size="10.00">tlx/define/attribute</text>
<text text-anchor="middle" x="1004" y="-8" font-family="Helvetica,sans-Serif" font-size="10.00">_packed.hpp</text>
</a>
</g>
</g>
<!-- Node6&#45;&gt;Node10 -->
<g id="edge9" class="edge"><title>Node6&#45;&gt;Node10</title>
<path fill="none" stroke="midnightblue" d="M955.167,-68.4035C962.526,-60.657 973.659,-48.9379 983.438,-38.6447"/>
<polygon fill="midnightblue" stroke="midnightblue" points="986.216,-40.8015 990.566,-31.1408 981.141,-35.9802 986.216,-40.8015"/>
</g>
<!-- Node11 -->
<g id="node11" class="node"><title>Node11</title>
<g id="a_node11"><a xlink:href="attribute__warn__unused__result_8hpp.html" target="_top" xlink:title="tlx/define/attribute\l_warn_unused_result.hpp">
<polygon fill="none" stroke="black" points="1070,-1 1070,-31 1198,-31 1198,-1 1070,-1"/>
<text text-anchor="start" x="1078" y="-19" font-family="Helvetica,sans-Serif" font-size="10.00">tlx/define/attribute</text>
<text text-anchor="middle" x="1134" y="-8" font-family="Helvetica,sans-Serif" font-size="10.00">_warn_unused_result.hpp</text>
</a>
</g>
</g>
<!-- Node6&#45;&gt;Node11 -->
<g id="edge10" class="edge"><title>Node6&#45;&gt;Node11</title>
<path fill="none" stroke="midnightblue" d="M973.793,-68.4035C1001.58,-59.4882 1045.76,-45.311 1080.7,-34.1014"/>
<polygon fill="midnightblue" stroke="midnightblue" points="1081.84,-37.4132 1090.29,-31.0253 1079.7,-30.7479 1081.84,-37.4132"/>
</g>
<!-- Node12 -->
<g id="node12" class="node"><title>Node12</title>
<g id="a_node12"><a xlink:href="likely_8hpp.html" target="_top" xlink:title="tlx/define/likely.hpp">
<polygon fill="none" stroke="black" points="1216.5,-6.5 1216.5,-25.5 1317.5,-25.5 1317.5,-6.5 1216.5,-6.5"/>
<text text-anchor="middle" x="1267" y="-13.5" font-family="Helvetica,sans-Serif" font-size="10.00">tlx/define/likely.hpp</text>
</a>
</g>
</g>
<!-- Node6&#45;&gt;Node12 -->
<g id="edge11" class="edge"><title>Node6&#45;&gt;Node12</title>
<path fill="none" stroke="midnightblue" d="M984.697,-69.7067C987.842,-69.1209 990.975,-68.5452 994,-68 1088.49,-50.9707 1113.02,-51.6576 1207,-32 1212.79,-30.7888 1218.87,-29.4042 1224.84,-27.9769"/>
<polygon fill="midnightblue" stroke="midnightblue" points="1225.84,-31.3352 1234.72,-25.5577 1224.18,-24.536 1225.84,-31.3352"/>
</g>
<!-- Node22&#45;&gt;Node16 -->
<g id="edge22" class="edge"><title>Node22&#45;&gt;Node16</title>
<path fill="none" stroke="midnightblue" d="M598.744,-124.083C591.535,-116.298 580.89,-104.801 572.154,-95.3665"/>
<polygon fill="midnightblue" stroke="midnightblue" points="574.465,-92.7108 565.103,-87.7511 569.329,-97.4666 574.465,-92.7108"/>
</g>
<!-- Node24 -->
<g id="node24" class="node"><title>Node24</title>
<polygon fill="none" stroke="#bfbfbf" points="386,-68.5 386,-87.5 442,-87.5 442,-68.5 386,-68.5"/>
<text text-anchor="middle" x="414" y="-75.5" font-family="Helvetica,sans-Serif" font-size="10.00">algorithm</text>
</g>
<!-- Node23&#45;&gt;Node24 -->
<g id="edge24" class="edge"><title>Node23&#45;&gt;Node24</title>
<path fill="none" stroke="midnightblue" d="M171.634,-124.444C228.139,-113.849 323.35,-95.9968 376.048,-86.116"/>
<polygon fill="midnightblue" stroke="midnightblue" points="376.813,-89.5337 385.997,-84.2506 375.523,-82.6536 376.813,-89.5337"/>
</g>
<!-- Node23&#45;&gt;Node25 -->
<g id="edge25" class="edge"><title>Node23&#45;&gt;Node25</title>
<path fill="none" stroke="midnightblue" d="M137.729,-124.324C148.837,-116.107 165.742,-103.602 178.983,-93.8069"/>
<polygon fill="midnightblue" stroke="midnightblue" points="181.1,-96.5948 187.058,-87.8339 176.937,-90.9671 181.1,-96.5948"/>
</g>
<!-- Node23&#45;&gt;Node26 -->
<g id="edge26" class="edge"><title>Node23&#45;&gt;Node26</title>
<path fill="none" stroke="midnightblue" d="M118.734,-124.083C112.455,-116.377 103.212,-105.033 95.5692,-95.6531"/>
<polygon fill="midnightblue" stroke="midnightblue" points="98.1606,-93.2926 89.1305,-87.7511 92.7339,-97.7143 98.1606,-93.2926"/>
</g>
<!-- Node28 -->
<g id="node28" class="node"><title>Node28</title>
<polygon fill="none" stroke="#bfbfbf" points="1181.5,-68.5 1181.5,-87.5 1230.5,-87.5 1230.5,-68.5 1181.5,-68.5"/>
<text text-anchor="middle" x="1206" y="-75.5" font-family="Helvetica,sans-Serif" font-size="10.00">cstddef</text>
</g>
<!-- Node27&#45;&gt;Node28 -->
<g id="edge28" class="edge"><title>Node27&#45;&gt;Node28</title>
<path fill="none" stroke="midnightblue" d="M1135.5,-124.324C1148.6,-115.9 1168.71,-102.971 1184.11,-93.0741"/>
<polygon fill="midnightblue" stroke="midnightblue" points="1186.02,-96.0063 1192.54,-87.6545 1182.23,-90.118 1186.02,-96.0063"/>
</g>
<!-- Node27&#45;&gt;Node29 -->
<g id="edge29" class="edge"><title>Node27&#45;&gt;Node29</title>
<path fill="none" stroke="midnightblue" d="M1178.13,-124.586C1232.48,-116.202 1317.12,-102.513 1390,-88 1390.89,-87.8219 1391.8,-87.6383 1392.71,-87.4504"/>
<polygon fill="midnightblue" stroke="midnightblue" points="1393.58,-90.8449 1402.61,-85.3166 1392.1,-84.002 1393.58,-90.8449"/>
</g>
<!-- Node27&#45;&gt;Node30 -->
<g id="edge30" class="edge"><title>Node27&#45;&gt;Node30</title>
<path fill="none" stroke="midnightblue" d="M1123.65,-124.083C1124.98,-116.927 1126.88,-106.635 1128.54,-97.6911"/>
<polygon fill="midnightblue" stroke="midnightblue" points="1132,-98.2212 1130.38,-87.7511 1125.12,-96.9466 1132,-98.2212"/>
</g>
<!-- Node34&#45;&gt;Node4 -->
<g id="edge50" class="edge"><title>Node34&#45;&gt;Node4</title>
<path fill="none" stroke="midnightblue" d="M1099.29,-251.962C990.952,-240.982 733.904,-214.93 616.881,-203.069"/>
<polygon fill="midnightblue" stroke="midnightblue" points="616.978,-199.561 606.676,-202.035 616.272,-206.525 616.978,-199.561"/>
</g>
<!-- Node34&#45;&gt;Node20 -->
<g id="edge56" class="edge"><title>Node34&#45;&gt;Node20</title>
<path fill="none" stroke="midnightblue" d="M1198.62,-250.602C1243.37,-243.694 1304.33,-231.052 1319,-212 1346.06,-176.849 1314.65,-123.008 1295.18,-95.874"/>
<polygon fill="midnightblue" stroke="midnightblue" points="1297.91,-93.6879 1289.13,-87.7614 1292.3,-97.871 1297.91,-93.6879"/>
</g>
<!-- Node34&#45;&gt;Node21 -->
<g id="edge59" class="edge"><title>Node34&#45;&gt;Node21</title>
<path fill="none" stroke="midnightblue" d="M1102.79,-248.46C1064.71,-240.796 1009.58,-228.258 963,-212 931.084,-200.86 925.218,-192.968 894,-180 807.53,-144.081 703.216,-107.421 651.81,-89.7841"/>
<polygon fill="midnightblue" stroke="midnightblue" points="652.85,-86.4407 642.255,-86.5162 650.585,-93.0641 652.85,-86.4407"/>
</g>
<!-- Node34&#45;&gt;Node24 -->
<g id="edge51" class="edge"><title>Node34&#45;&gt;Node24</title>
<path fill="none" stroke="midnightblue" d="M1099.34,-251.655C1047.38,-245.272 963.803,-232.769 894,-212 798.575,-183.607 783.592,-151.825 688,-124 605.77,-100.065 505.714,-87.6786 452.174,-82.339"/>
<polygon fill="midnightblue" stroke="midnightblue" points="452.396,-78.8442 442.106,-81.3637 451.722,-85.8116 452.396,-78.8442"/>
</g>
<!-- Node34&#45;&gt;Node28 -->
<g id="edge52" class="edge"><title>Node34&#45;&gt;Node28</title>
<path fill="none" stroke="midnightblue" d="M1099.28,-252.361C1035.46,-244.5 937.186,-224.813 975,-180 1036.35,-107.294 1114.52,-206.775 1186,-144 1199.15,-132.452 1203.78,-112.487 1205.34,-97.7228"/>
<polygon fill="midnightblue" stroke="midnightblue" points="1208.84,-97.8881 1206.03,-87.6716 1201.86,-97.408 1208.84,-97.8881"/>
</g>
<!-- Node34&#45;&gt;Node29 -->
<g id="edge54" class="edge"><title>Node34&#45;&gt;Node29</title>
<path fill="none" stroke="midnightblue" d="M1198.64,-255.064C1239.5,-251.302 1297.29,-240.792 1339,-212 1381.5,-182.658 1409.62,-126.137 1421.92,-97.1369"/>
<polygon fill="midnightblue" stroke="midnightblue" points="1425.19,-98.3803 1425.73,-87.7992 1418.71,-95.735 1425.19,-98.3803"/>
</g>
<!-- Node34&#45;&gt;Node30 -->
<g id="edge57" class="edge"><title>Node34&#45;&gt;Node30</title>
<path fill="none" stroke="midnightblue" d="M1198.59,-249.922C1254.67,-239.909 1334.15,-218.402 1301,-180 1229.37,-97.0238 1128.63,-226.976 1057,-144 1039.37,-123.583 1071.35,-103.83 1098.85,-91.5642"/>
<polygon fill="midnightblue" stroke="midnightblue" points="1100.47,-94.6797 1108.31,-87.549 1097.74,-88.2368 1100.47,-94.6797"/>
</g>
<!-- Node35 -->
<g id="node35" class="node"><title>Node35</title>
<g id="a_node35"><a xlink:href="config_8hpp.html" target="_top" xlink:title="thrill/common/config.hpp">
<polygon fill="none" stroke="black" points="984.5,-186.5 984.5,-205.5 1107.5,-205.5 1107.5,-186.5 984.5,-186.5"/>
<text text-anchor="middle" x="1046" y="-193.5" font-family="Helvetica,sans-Serif" font-size="10.00">thrill/common/config.hpp</text>
</a>
</g>
</g>
<!-- Node34&#45;&gt;Node35 -->
<g id="edge49" class="edge"><title>Node34&#45;&gt;Node35</title>
<path fill="none" stroke="midnightblue" d="M1134.24,-248.403C1117.34,-238.557 1089.42,-222.291 1069.51,-210.695"/>
<polygon fill="midnightblue" stroke="midnightblue" points="1071.13,-207.59 1060.73,-205.581 1067.61,-213.638 1071.13,-207.59"/>
</g>
<!-- Node36 -->
<g id="node36" class="node"><title>Node36</title>
<polygon fill="none" stroke="#bfbfbf" points="1126,-186.5 1126,-205.5 1172,-205.5 1172,-186.5 1126,-186.5"/>
<text text-anchor="middle" x="1149" y="-193.5" font-family="Helvetica,sans-Serif" font-size="10.00">cstdint</text>
</g>
<!-- Node34&#45;&gt;Node36 -->
<g id="edge53" class="edge"><title>Node34&#45;&gt;Node36</title>
<path fill="none" stroke="midnightblue" d="M1149,-248.403C1149,-239.938 1149,-226.728 1149,-215.82"/>
<polygon fill="midnightblue" stroke="midnightblue" points="1152.5,-215.581 1149,-205.581 1145.5,-215.581 1152.5,-215.581"/>
</g>
<!-- Node37 -->
<g id="node37" class="node"><title>Node37</title>
<polygon fill="none" stroke="#bfbfbf" points="1190,-186.5 1190,-205.5 1234,-205.5 1234,-186.5 1190,-186.5"/>
<text text-anchor="middle" x="1212" y="-193.5" font-family="Helvetica,sans-Serif" font-size="10.00">mutex</text>
</g>
<!-- Node34&#45;&gt;Node37 -->
<g id="edge55" class="edge"><title>Node34&#45;&gt;Node37</title>
<path fill="none" stroke="midnightblue" d="M1158.03,-248.403C1167.76,-239.136 1183.46,-224.183 1195.42,-212.788"/>
<polygon fill="midnightblue" stroke="midnightblue" points="1198.16,-215.012 1202.99,-205.581 1193.34,-209.943 1198.16,-215.012"/>
</g>
<!-- Node38 -->
<g id="node38" class="node"><title>Node38</title>
<polygon fill="none" stroke="#bfbfbf" points="1252,-186.5 1252,-205.5 1292,-205.5 1292,-186.5 1252,-186.5"/>
<text text-anchor="middle" x="1272" y="-193.5" font-family="Helvetica,sans-Serif" font-size="10.00">utility</text>
</g>
<!-- Node34&#45;&gt;Node38 -->
<g id="edge58" class="edge"><title>Node34&#45;&gt;Node38</title>
<path fill="none" stroke="midnightblue" d="M1166.86,-248.442C1185.61,-239.439 1215.93,-224.826 1242,-212 1243.18,-211.422 1244.38,-210.829 1245.59,-210.229"/>
<polygon fill="midnightblue" stroke="midnightblue" points="1247.49,-213.193 1254.89,-205.605 1244.37,-206.925 1247.49,-213.193"/>
</g>
</g>
</svg>
