<?xml version="1.0" encoding="UTF-8" standalone="no"?>
<!DOCTYPE svg PUBLIC "-//W3C//DTD SVG 1.1//EN"
 "http://www.w3.org/Graphics/SVG/1.1/DTD/svg11.dtd">
<!-- Generated by graphviz version 2.36.0 (20140111.2315)
 -->
<!-- Title: thrill/api/all_reduce.hpp Pages: 1 -->
<svg width="2199pt" height="240pt"
 viewBox="0.00 0.00 2199.00 240.00" xmlns="http://www.w3.org/2000/svg" xmlns:xlink="http://www.w3.org/1999/xlink">
<g id="graph0" class="graph" transform="scale(1 1) rotate(0) translate(4 236)">
<title>thrill/api/all_reduce.hpp</title>
<!-- Node1 -->
<g id="node1" class="node"><title>Node1</title>
<polygon fill="#bfbfbf" stroke="black" points="995,-212.5 995,-231.5 1111,-231.5 1111,-212.5 995,-212.5"/>
<text text-anchor="middle" x="1053" y="-219.5" font-family="Helvetica,sans-Serif" font-size="10.00">thrill/api/all_reduce.hpp</text>
</g>
<!-- Node2 -->
<g id="node2" class="node"><title>Node2</title>
<g id="a_node2"><a xlink:href="max_8hpp.html" target="_top" xlink:title="thrill/api/max.hpp">
<polygon fill="none" stroke="black" points="642.5,-156.5 642.5,-175.5 733.5,-175.5 733.5,-156.5 642.5,-156.5"/>
<text text-anchor="middle" x="688" y="-163.5" font-family="Helvetica,sans-Serif" font-size="10.00">thrill/api/max.hpp</text>
</a>
</g>
</g>
<!-- Node1&#45;&gt;Node2 -->
<g id="edge1" class="edge"><title>Node1&#45;&gt;Node2</title>
<path fill="none" stroke="midnightblue" d="M985.104,-210.955C911.789,-200.108 797.023,-183.129 733.732,-173.766"/>
<polygon fill="midnightblue" stroke="midnightblue" points="984.76,-214.442 995.165,-212.444 985.785,-207.518 984.76,-214.442"/>
</g>
<!-- Node3 -->
<g id="node3" class="node"><title>Node3</title>
<g id="a_node3"><a xlink:href="thrill_8hpp.html" target="_top" xlink:title="thrill/thrill.hpp">
<polygon fill="none" stroke="black" points="980,-89.5 980,-108.5 1054,-108.5 1054,-89.5 980,-89.5"/>
<text text-anchor="middle" x="1017" y="-96.5" font-family="Helvetica,sans-Serif" font-size="10.00">thrill/thrill.hpp</text>
</a>
</g>
</g>
<!-- Node1&#45;&gt;Node3 -->
<g id="edge43" class="edge"><title>Node1&#45;&gt;Node3</title>
<path fill="none" stroke="midnightblue" d="M1045.73,-203.19C1042.52,-194.988 1038.84,-185.079 1036,-176 1028.45,-151.856 1021.84,-122.676 1018.79,-108.524"/>
<polygon fill="midnightblue" stroke="midnightblue" points="1042.48,-204.492 1049.44,-212.477 1048.98,-201.892 1042.48,-204.492"/>
</g>
<!-- Node17 -->
<g id="node17" class="node"><title>Node17</title>
<g id="a_node17"><a xlink:href="min_8hpp.html" target="_top" xlink:title="thrill/api/min.hpp">
<polygon fill="none" stroke="black" points="1045,-156.5 1045,-175.5 1133,-175.5 1133,-156.5 1045,-156.5"/>
<text text-anchor="middle" x="1089" y="-163.5" font-family="Helvetica,sans-Serif" font-size="10.00">thrill/api/min.hpp</text>
</a>
</g>
</g>
<!-- Node1&#45;&gt;Node17 -->
<g id="edge23" class="edge"><title>Node1&#45;&gt;Node17</title>
<path fill="none" stroke="midnightblue" d="M1064.62,-203.566C1070.82,-194.275 1078.17,-183.248 1083.17,-175.751"/>
<polygon fill="midnightblue" stroke="midnightblue" points="1061.58,-201.821 1058.94,-212.083 1067.4,-205.704 1061.58,-201.821"/>
</g>
<!-- Node19 -->
<g id="node19" class="node"><title>Node19</title>
<g id="a_node19"><a xlink:href="sum_8hpp.html" target="_top" xlink:title="thrill/api/sum.hpp">
<polygon fill="none" stroke="black" points="1411.5,-156.5 1411.5,-175.5 1502.5,-175.5 1502.5,-156.5 1411.5,-156.5"/>
<text text-anchor="middle" x="1457" y="-163.5" font-family="Helvetica,sans-Serif" font-size="10.00">thrill/api/sum.hpp</text>
</a>
</g>
</g>
<!-- Node1&#45;&gt;Node19 -->
<g id="edge26" class="edge"><title>Node1&#45;&gt;Node19</title>
<path fill="none" stroke="midnightblue" d="M1121.35,-211.864C1203.89,-200.832 1340.42,-182.582 1411.23,-173.117"/>
<polygon fill="midnightblue" stroke="midnightblue" points="1120.76,-208.412 1111.31,-213.206 1121.69,-215.35 1120.76,-208.412"/>
</g>
<!-- Node2&#45;&gt;Node3 -->
<g id="edge2" class="edge"><title>Node2&#45;&gt;Node3</title>
<path fill="none" stroke="midnightblue" d="M744.088,-159.477C800.772,-153.07 890.528,-140.652 966,-120 976.825,-117.038 988.506,-112.557 997.954,-108.587"/>
<polygon fill="midnightblue" stroke="midnightblue" points="743.453,-156.026 733.899,-160.604 744.223,-162.983 743.453,-156.026"/>
</g>
<!-- Node4 -->
<g id="node4" class="node"><title>Node4</title>
<g id="a_node4"><a xlink:href="page__rank__run_8cpp.html" target="_top" xlink:title="examples/page_rank\l/page_rank_run.cpp">
<polygon fill="none" stroke="black" points="1072.5,-84 1072.5,-114 1179.5,-114 1179.5,-84 1072.5,-84"/>
<text text-anchor="start" x="1080.5" y="-102" font-family="Helvetica,sans-Serif" font-size="10.00">examples/page_rank</text>
<text text-anchor="middle" x="1126" y="-91" font-family="Helvetica,sans-Serif" font-size="10.00">/page_rank_run.cpp</text>
</a>
</g>
</g>
<!-- Node2&#45;&gt;Node4 -->
<g id="edge3" class="edge"><title>Node2&#45;&gt;Node4</title>
<path fill="none" stroke="midnightblue" d="M743.769,-161.594C817.498,-156.345 951.148,-144.24 1063,-120 1070.4,-118.396 1078.17,-116.29 1085.64,-114.047"/>
<polygon fill="midnightblue" stroke="midnightblue" points="743.504,-158.103 733.771,-162.289 743.99,-165.087 743.504,-158.103"/>
</g>
<!-- Node5 -->
<g id="node5" class="node"><title>Node5</title>
<g id="a_node5"><a xlink:href="check__sa_8hpp.html" target="_top" xlink:title="examples/suffix_sorting\l/check_sa.hpp">
<polygon fill="none" stroke="black" points="628,-84 628,-114 748,-114 748,-84 628,-84"/>
<text text-anchor="start" x="636" y="-102" font-family="Helvetica,sans-Serif" font-size="10.00">examples/suffix_sorting</text>
<text text-anchor="middle" x="688" y="-91" font-family="Helvetica,sans-Serif" font-size="10.00">/check_sa.hpp</text>
</a>
</g>
</g>
<!-- Node2&#45;&gt;Node5 -->
<g id="edge4" class="edge"><title>Node2&#45;&gt;Node5</title>
<path fill="none" stroke="midnightblue" d="M688,-145.911C688,-135.722 688,-123.401 688,-114.089"/>
<polygon fill="midnightblue" stroke="midnightblue" points="684.5,-146.234 688,-156.234 691.5,-146.234 684.5,-146.234"/>
</g>
<!-- Node6 -->
<g id="node6" class="node"><title>Node6</title>
<g id="a_node6"><a xlink:href="dc3_8cpp.html" target="_top" xlink:title="examples/suffix_sorting\l/dc3.cpp">
<polygon fill="none" stroke="black" points="832,-6 832,-36 952,-36 952,-6 832,-6"/>
<text text-anchor="start" x="840" y="-24" font-family="Helvetica,sans-Serif" font-size="10.00">examples/suffix_sorting</text>
<text text-anchor="middle" x="892" y="-13" font-family="Helvetica,sans-Serif" font-size="10.00">/dc3.cpp</text>
</a>
</g>
</g>
<!-- Node2&#45;&gt;Node6 -->
<g id="edge17" class="edge"><title>Node2&#45;&gt;Node6</title>
<path fill="none" stroke="midnightblue" d="M743.823,-160.553C798.247,-154.921 875.452,-143.037 894,-120 913.317,-96.0082 904.319,-56.9528 897.388,-36.128"/>
<polygon fill="midnightblue" stroke="midnightblue" points="743.212,-157.096 733.605,-161.565 743.902,-164.062 743.212,-157.096"/>
</g>
<!-- Node7 -->
<g id="node7" class="node"><title>Node7</title>
<g id="a_node7"><a xlink:href="dc7_8cpp.html" target="_top" xlink:title="examples/suffix_sorting\l/dc7.cpp">
<polygon fill="none" stroke="black" points="970,-6 970,-36 1090,-36 1090,-6 970,-6"/>
<text text-anchor="start" x="978" y="-24" font-family="Helvetica,sans-Serif" font-size="10.00">examples/suffix_sorting</text>
<text text-anchor="middle" x="1030" y="-13" font-family="Helvetica,sans-Serif" font-size="10.00">/dc7.cpp</text>
</a>
</g>
</g>
<!-- Node2&#45;&gt;Node7 -->
<g id="edge18" class="edge"><title>Node2&#45;&gt;Node7</title>
<path fill="none" stroke="midnightblue" d="M743.914,-161.684C791.221,-157.088 859.773,-146.129 914,-120 936.563,-109.128 989.532,-60.4117 1015.34,-36.0149"/>
<polygon fill="midnightblue" stroke="midnightblue" points="743.5,-158.207 733.857,-162.596 744.133,-165.178 743.5,-158.207"/>
</g>
<!-- Node8 -->
<g id="node8" class="node"><title>Node8</title>
<g id="a_node8"><a xlink:href="prefix__doubling_8cpp.html" target="_top" xlink:title="examples/suffix_sorting\l/prefix_doubling.cpp">
<polygon fill="none" stroke="black" points="512,-6 512,-36 632,-36 632,-6 512,-6"/>
<text text-anchor="start" x="520" y="-24" font-family="Helvetica,sans-Serif" font-size="10.00">examples/suffix_sorting</text>
<text text-anchor="middle" x="572" y="-13" font-family="Helvetica,sans-Serif" font-size="10.00">/prefix_doubling.cpp</text>
</a>
</g>
</g>
<!-- Node2&#45;&gt;Node8 -->
<g id="edge19" class="edge"><title>Node2&#45;&gt;Node8</title>
<path fill="none" stroke="midnightblue" d="M632.304,-162.782C567.583,-158.897 466.614,-148.347 443,-120 431.052,-105.658 432.761,-93.6076 443,-78 458.402,-54.5239 485.998,-40.8389 511.724,-32.8858"/>
<polygon fill="midnightblue" stroke="midnightblue" points="632.181,-166.28 642.363,-163.349 632.576,-159.291 632.181,-166.28"/>
</g>
<!-- Node9 -->
<g id="node9" class="node"><title>Node9</title>
<g id="a_node9"><a xlink:href="prefix__quadrupling_8cpp.html" target="_top" xlink:title="examples/suffix_sorting\l/prefix_quadrupling.cpp">
<polygon fill="none" stroke="black" points="650,-6 650,-36 770,-36 770,-6 650,-6"/>
<text text-anchor="start" x="658" y="-24" font-family="Helvetica,sans-Serif" font-size="10.00">examples/suffix_sorting</text>
<text text-anchor="middle" x="710" y="-13" font-family="Helvetica,sans-Serif" font-size="10.00">/prefix_quadrupling.cpp</text>
</a>
</g>
</g>
<!-- Node2&#45;&gt;Node9 -->
<g id="edge20" class="edge"><title>Node2&#45;&gt;Node9</title>
<path fill="none" stroke="midnightblue" d="M654.94,-152.008C641.234,-144.781 626.749,-134.304 619,-120 610.109,-103.587 609.894,-94.2951 619,-78 629.859,-58.5676 650.533,-45.0484 669.434,-36.1686"/>
<polygon fill="midnightblue" stroke="midnightblue" points="653.686,-155.29 664.212,-156.499 656.738,-148.99 653.686,-155.29"/>
</g>
<!-- Node11 -->
<g id="node11" class="node"><title>Node11</title>
<g id="a_node11"><a xlink:href="construct__bwt_8hpp.html" target="_top" xlink:title="examples/suffix_sorting\l/construct_bwt.hpp">
<polygon fill="none" stroke="black" points="138,-84 138,-114 258,-114 258,-84 138,-84"/>
<text text-anchor="start" x="146" y="-102" font-family="Helvetica,sans-Serif" font-size="10.00">examples/suffix_sorting</text>
<text text-anchor="middle" x="198" y="-91" font-family="Helvetica,sans-Serif" font-size="10.00">/construct_bwt.hpp</text>
</a>
</g>
</g>
<!-- Node2&#45;&gt;Node11 -->
<g id="edge10" class="edge"><title>Node2&#45;&gt;Node11</title>
<path fill="none" stroke="midnightblue" d="M631.966,-162.147C550.844,-157.311 396.248,-145.434 267,-120 258.923,-118.411 250.425,-116.311 242.259,-114.071"/>
<polygon fill="midnightblue" stroke="midnightblue" points="632.253,-165.67 642.439,-162.757 632.659,-158.682 632.253,-165.67"/>
</g>
<!-- Node12 -->
<g id="node12" class="node"><title>Node12</title>
<g id="a_node12"><a xlink:href="construct__lcp_8hpp.html" target="_top" xlink:title="examples/suffix_sorting\l/construct_lcp.hpp">
<polygon fill="none" stroke="black" points="276,-84 276,-114 396,-114 396,-84 276,-84"/>
<text text-anchor="start" x="284" y="-102" font-family="Helvetica,sans-Serif" font-size="10.00">examples/suffix_sorting</text>
<text text-anchor="middle" x="336" y="-91" font-family="Helvetica,sans-Serif" font-size="10.00">/construct_lcp.hpp</text>
</a>
</g>
</g>
<!-- Node2&#45;&gt;Node12 -->
<g id="edge12" class="edge"><title>Node2&#45;&gt;Node12</title>
<path fill="none" stroke="midnightblue" d="M632.342,-157.719C575.992,-149.943 486.491,-136.481 410,-120 401.934,-118.262 393.435,-116.193 385.185,-114.055"/>
<polygon fill="midnightblue" stroke="midnightblue" points="632.085,-161.216 642.468,-159.104 633.034,-154.281 632.085,-161.216"/>
</g>
<!-- Node13 -->
<g id="node13" class="node"><title>Node13</title>
<g id="a_node13"><a xlink:href="construct__wt_8hpp.html" target="_top" xlink:title="examples/suffix_sorting\l/construct_wt.hpp">
<polygon fill="none" stroke="black" points="0,-84 0,-114 120,-114 120,-84 0,-84"/>
<text text-anchor="start" x="8" y="-102" font-family="Helvetica,sans-Serif" font-size="10.00">examples/suffix_sorting</text>
<text text-anchor="middle" x="60" y="-91" font-family="Helvetica,sans-Serif" font-size="10.00">/construct_wt.hpp</text>
</a>
</g>
</g>
<!-- Node2&#45;&gt;Node13 -->
<g id="edge14" class="edge"><title>Node2&#45;&gt;Node13</title>
<path fill="none" stroke="midnightblue" d="M632.016,-164.218C530.802,-161.982 310.983,-153.346 129,-120 120.658,-118.471 111.879,-116.344 103.484,-114.043"/>
<polygon fill="midnightblue" stroke="midnightblue" points="632.238,-167.724 642.309,-164.433 632.384,-160.725 632.238,-167.724"/>
</g>
<!-- Node15 -->
<g id="node15" class="node"><title>Node15</title>
<g id="a_node15"><a xlink:href="wavelet__tree_8cpp.html" target="_top" xlink:title="examples/suffix_sorting\l/wavelet_tree.cpp">
<polygon fill="none" stroke="black" points="452,-84 452,-114 572,-114 572,-84 452,-84"/>
<text text-anchor="start" x="460" y="-102" font-family="Helvetica,sans-Serif" font-size="10.00">examples/suffix_sorting</text>
<text text-anchor="middle" x="512" y="-91" font-family="Helvetica,sans-Serif" font-size="10.00">/wavelet_tree.cpp</text>
</a>
</g>
</g>
<!-- Node2&#45;&gt;Node15 -->
<g id="edge21" class="edge"><title>Node2&#45;&gt;Node15</title>
<path fill="none" stroke="midnightblue" d="M655.092,-152.846C625.26,-141.829 581.297,-125.593 549.984,-114.028"/>
<polygon fill="midnightblue" stroke="midnightblue" points="654.035,-156.187 664.629,-156.369 656.46,-149.621 654.035,-156.187"/>
</g>
<!-- Node16 -->
<g id="node16" class="node"><title>Node16</title>
<g id="a_node16"><a xlink:href="wavelet__tree2_8cpp.html" target="_top" xlink:title="examples/suffix_sorting\l/wavelet_tree2.cpp">
<polygon fill="none" stroke="black" points="766,-84 766,-114 886,-114 886,-84 766,-84"/>
<text text-anchor="start" x="774" y="-102" font-family="Helvetica,sans-Serif" font-size="10.00">examples/suffix_sorting</text>
<text text-anchor="middle" x="826" y="-91" font-family="Helvetica,sans-Serif" font-size="10.00">/wavelet_tree2.cpp</text>
</a>
</g>
</g>
<!-- Node2&#45;&gt;Node16 -->
<g id="edge22" class="edge"><title>Node2&#45;&gt;Node16</title>
<path fill="none" stroke="midnightblue" d="M715.656,-151.974C738.986,-140.985 772.305,-125.291 796.217,-114.028"/>
<polygon fill="midnightblue" stroke="midnightblue" points="713.881,-148.941 706.325,-156.369 716.863,-155.274 713.881,-148.941"/>
</g>
<!-- Node5&#45;&gt;Node6 -->
<g id="edge5" class="edge"><title>Node5&#45;&gt;Node6</title>
<path fill="none" stroke="midnightblue" d="M735.264,-80.3918C771.466,-66.9049 820.737,-48.5488 854.31,-36.0413"/>
<polygon fill="midnightblue" stroke="midnightblue" points="734.042,-77.1122 725.893,-83.8831 736.485,-83.6717 734.042,-77.1122"/>
</g>
<!-- Node5&#45;&gt;Node7 -->
<g id="edge6" class="edge"><title>Node5&#45;&gt;Node7</title>
<path fill="none" stroke="midnightblue" d="M743.66,-81.3163C748.159,-80.1362 752.646,-79.014 757,-78 846.242,-57.2158 870.719,-62.6136 960,-42 967.635,-40.2371 975.678,-38.155 983.483,-36.0118"/>
<polygon fill="midnightblue" stroke="midnightblue" points="742.582,-77.9821 733.844,-83.9729 744.411,-84.7391 742.582,-77.9821"/>
</g>
<!-- Node5&#45;&gt;Node8 -->
<g id="edge7" class="edge"><title>Node5&#45;&gt;Node8</title>
<path fill="none" stroke="midnightblue" d="M657.915,-78.289C637.701,-65.0455 611.547,-47.9101 593.431,-36.0413"/>
<polygon fill="midnightblue" stroke="midnightblue" points="656.17,-81.3304 666.453,-83.8831 660.007,-75.4752 656.17,-81.3304"/>
</g>
<!-- Node5&#45;&gt;Node9 -->
<g id="edge8" class="edge"><title>Node5&#45;&gt;Node9</title>
<path fill="none" stroke="midnightblue" d="M694.958,-73.9628C698.551,-61.5505 702.812,-46.8296 705.881,-36.2309"/>
<polygon fill="midnightblue" stroke="midnightblue" points="691.557,-73.1261 692.138,-83.705 698.281,-75.0726 691.557,-73.1261"/>
</g>
<!-- Node10 -->
<g id="node10" class="node"><title>Node10</title>
<g id="a_node10"><a xlink:href="suffix__sorting_8cpp.html" target="_top" xlink:title="examples/suffix_sorting\l/suffix_sorting.cpp">
<polygon fill="none" stroke="black" points="207,-6 207,-36 327,-36 327,-6 207,-6"/>
<text text-anchor="start" x="215" y="-24" font-family="Helvetica,sans-Serif" font-size="10.00">examples/suffix_sorting</text>
<text text-anchor="middle" x="267" y="-13" font-family="Helvetica,sans-Serif" font-size="10.00">/suffix_sorting.cpp</text>
</a>
</g>
</g>
<!-- Node5&#45;&gt;Node10 -->
<g id="edge9" class="edge"><title>Node5&#45;&gt;Node10</title>
<path fill="none" stroke="midnightblue" d="M617.773,-84.931C605.198,-82.6091 592.213,-80.2233 580,-78 492.017,-61.9829 390.046,-43.8121 327.024,-32.6275"/>
<polygon fill="midnightblue" stroke="midnightblue" points="617.277,-88.3987 627.747,-86.7752 618.55,-81.5154 617.277,-88.3987"/>
</g>
<!-- Node11&#45;&gt;Node10 -->
<g id="edge11" class="edge"><title>Node11&#45;&gt;Node10</title>
<path fill="none" stroke="midnightblue" d="M217.819,-76.1707C229.475,-63.3319 243.88,-47.4656 254.08,-36.2309"/>
<polygon fill="midnightblue" stroke="midnightblue" points="215.109,-73.9485 210.978,-83.705 220.292,-78.6538 215.109,-73.9485"/>
</g>
<!-- Node12&#45;&gt;Node10 -->
<g id="edge13" class="edge"><title>Node12&#45;&gt;Node10</title>
<path fill="none" stroke="midnightblue" d="M316.181,-76.1707C304.525,-63.3319 290.12,-47.4656 279.92,-36.2309"/>
<polygon fill="midnightblue" stroke="midnightblue" points="313.708,-78.6538 323.022,-83.705 318.891,-73.9485 313.708,-78.6538"/>
</g>
<!-- Node13&#45;&gt;Node10 -->
<g id="edge15" class="edge"><title>Node13&#45;&gt;Node10</title>
<path fill="none" stroke="midnightblue" d="M107.959,-80.3918C144.693,-66.9049 194.689,-48.5488 228.756,-36.0413"/>
<polygon fill="midnightblue" stroke="midnightblue" points="106.631,-77.1509 98.45,-83.8831 109.044,-83.722 106.631,-77.1509"/>
</g>
<!-- Node14 -->
<g id="node14" class="node"><title>Node14</title>
<g id="a_node14"><a xlink:href="wavelet__tree3_8cpp.html" target="_top" xlink:title="examples/suffix_sorting\l/wavelet_tree3.cpp">
<polygon fill="none" stroke="black" points="0,-6 0,-36 120,-36 120,-6 0,-6"/>
<text text-anchor="start" x="8" y="-24" font-family="Helvetica,sans-Serif" font-size="10.00">examples/suffix_sorting</text>
<text text-anchor="middle" x="60" y="-13" font-family="Helvetica,sans-Serif" font-size="10.00">/wavelet_tree3.cpp</text>
</a>
</g>
</g>
<!-- Node13&#45;&gt;Node14 -->
<g id="edge16" class="edge"><title>Node13&#45;&gt;Node14</title>
<path fill="none" stroke="midnightblue" d="M60,-73.5898C60,-61.2565 60,-46.7237 60,-36.2309"/>
<polygon fill="midnightblue" stroke="midnightblue" points="56.5001,-73.7049 60,-83.705 63.5001,-73.705 56.5001,-73.7049"/>
</g>
<!-- Node17&#45;&gt;Node3 -->
<g id="edge24" class="edge"><title>Node17&#45;&gt;Node3</title>
<path fill="none" stroke="midnightblue" d="M1071.67,-149.356C1057.52,-136.578 1038.04,-118.992 1026.56,-108.627"/>
<polygon fill="midnightblue" stroke="midnightblue" points="1069.52,-152.131 1079.29,-156.234 1074.21,-146.935 1069.52,-152.131"/>
</g>
<!-- Node18 -->
<g id="node18" class="node"><title>Node18</title>
<g id="a_node18"><a xlink:href="bfs_8cpp.html" target="_top" xlink:title="examples/bfs/bfs.cpp">
<polygon fill="none" stroke="black" points="1198,-89.5 1198,-108.5 1308,-108.5 1308,-89.5 1198,-89.5"/>
<text text-anchor="middle" x="1253" y="-96.5" font-family="Helvetica,sans-Serif" font-size="10.00">examples/bfs/bfs.cpp</text>
</a>
</g>
</g>
<!-- Node17&#45;&gt;Node18 -->
<g id="edge25" class="edge"><title>Node17&#45;&gt;Node18</title>
<path fill="none" stroke="midnightblue" d="M1120.28,-152.604C1152.84,-139.698 1202.97,-119.827 1231.39,-108.564"/>
<polygon fill="midnightblue" stroke="midnightblue" points="1118.78,-149.43 1110.78,-156.369 1121.36,-155.938 1118.78,-149.43"/>
</g>
<!-- Node19&#45;&gt;Node3 -->
<g id="edge27" class="edge"><title>Node19&#45;&gt;Node3</title>
<path fill="none" stroke="midnightblue" d="M1400.82,-163.789C1323.49,-160.954 1180.5,-151.499 1063,-120 1052.91,-117.294 1042.17,-112.73 1033.61,-108.645"/>
<polygon fill="midnightblue" stroke="midnightblue" points="1401.17,-167.303 1411.28,-164.146 1401.41,-160.307 1401.17,-167.303"/>
</g>
<!-- Node19&#45;&gt;Node4 -->
<g id="edge33" class="edge"><title>Node19&#45;&gt;Node4</title>
<path fill="none" stroke="midnightblue" d="M1400.93,-157.932C1346.38,-150.506 1261.38,-137.474 1189,-120 1181.97,-118.303 1174.59,-116.231 1167.45,-114.07"/>
<polygon fill="midnightblue" stroke="midnightblue" points="1400.7,-161.433 1411.08,-159.297 1401.64,-154.496 1400.7,-161.433"/>
</g>
<!-- Node19&#45;&gt;Node6 -->
<g id="edge39" class="edge"><title>Node19&#45;&gt;Node6</title>
<path fill="none" stroke="midnightblue" d="M1486.82,-151.606C1499.48,-144.234 1512.92,-133.753 1520,-120 1528.54,-103.402 1532.77,-91.6169 1520,-78 1477.43,-32.5976 1022.31,-52.7272 961,-42 952.523,-40.5168 943.603,-38.3801 935.094,-36.0501"/>
<polygon fill="midnightblue" stroke="midnightblue" points="1485,-148.611 1477.85,-156.427 1488.31,-154.778 1485,-148.611"/>
</g>
<!-- Node19&#45;&gt;Node7 -->
<g id="edge40" class="edge"><title>Node19&#45;&gt;Node7</title>
<path fill="none" stroke="midnightblue" d="M1508.96,-153.084C1526.31,-146.365 1543.8,-135.975 1554,-120 1564.05,-104.267 1566.48,-91.8829 1554,-78 1523.46,-44.0206 1221.55,-28.9733 1090.35,-24.0013"/>
<polygon fill="midnightblue" stroke="midnightblue" points="1507.66,-149.832 1499.39,-156.451 1509.98,-156.435 1507.66,-149.832"/>
</g>
<!-- Node19&#45;&gt;Node8 -->
<g id="edge41" class="edge"><title>Node19&#45;&gt;Node8</title>
<path fill="none" stroke="midnightblue" d="M1416.11,-153.278C1395.01,-145.931 1369.64,-134.979 1350,-120 1331.12,-105.606 1338.07,-88.9416 1317,-78 1183.5,-8.66359 789.326,-67.1045 641,-42 632.392,-40.543 623.332,-38.3875 614.712,-36.0243"/>
<polygon fill="midnightblue" stroke="midnightblue" points="1415.19,-156.658 1425.78,-156.499 1417.4,-150.017 1415.19,-156.658"/>
</g>
<!-- Node19&#45;&gt;Node9 -->
<g id="edge42" class="edge"><title>Node19&#45;&gt;Node9</title>
<path fill="none" stroke="midnightblue" d="M1435.01,-150.822C1422.36,-142.35 1406.37,-131.105 1393,-120 1372.45,-102.929 1374.38,-88.9157 1350,-78 1242.86,-30.0369 939.516,-56.2494 823,-42 805.795,-39.8959 787.233,-36.9121 770.224,-33.8895"/>
<polygon fill="midnightblue" stroke="midnightblue" points="1433.28,-153.87 1443.55,-156.458 1437.13,-148.028 1433.28,-153.87"/>
</g>
<!-- Node19&#45;&gt;Node18 -->
<g id="edge28" class="edge"><title>Node19&#45;&gt;Node18</title>
<path fill="none" stroke="midnightblue" d="M1420.17,-153.265C1379.75,-140.386 1315.84,-120.021 1279.88,-108.564"/>
<polygon fill="midnightblue" stroke="midnightblue" points="1419.32,-156.667 1429.91,-156.369 1421.44,-149.998 1419.32,-156.667"/>
</g>
<!-- Node20 -->
<g id="node20" class="node"><title>Node20</title>
<g id="a_node20"><a xlink:href="k-means_8hpp.html" target="_top" xlink:title="examples/k&#45;means/k\l&#45;means.hpp">
<polygon fill="none" stroke="black" points="1606.5,-84 1606.5,-114 1713.5,-114 1713.5,-84 1606.5,-84"/>
<text text-anchor="start" x="1614.5" y="-102" font-family="Helvetica,sans-Serif" font-size="10.00">examples/k&#45;means/k</text>
<text text-anchor="middle" x="1660" y="-91" font-family="Helvetica,sans-Serif" font-size="10.00">&#45;means.hpp</text>
</a>
</g>
</g>
<!-- Node19&#45;&gt;Node20 -->
<g id="edge29" class="edge"><title>Node19&#45;&gt;Node20</title>
<path fill="none" stroke="midnightblue" d="M1493.62,-153.275C1528.04,-142.253 1579.6,-125.744 1616.19,-114.028"/>
<polygon fill="midnightblue" stroke="midnightblue" points="1492.41,-149.986 1483.96,-156.369 1494.55,-156.652 1492.41,-149.986"/>
</g>
<!-- Node22 -->
<g id="node22" class="node"><title>Node22</title>
<g id="a_node22"><a xlink:href="logistic__regression_8hpp.html" target="_top" xlink:title="examples/logistic_regression\l/logistic_regression.hpp">
<polygon fill="none" stroke="black" points="1731.5,-84 1731.5,-114 1874.5,-114 1874.5,-84 1731.5,-84"/>
<text text-anchor="start" x="1739.5" y="-102" font-family="Helvetica,sans-Serif" font-size="10.00">examples/logistic_regression</text>
<text text-anchor="middle" x="1803" y="-91" font-family="Helvetica,sans-Serif" font-size="10.00">/logistic_regression.hpp</text>
</a>
</g>
</g>
<!-- Node19&#45;&gt;Node22 -->
<g id="edge31" class="edge"><title>Node19&#45;&gt;Node22</title>
<path fill="none" stroke="midnightblue" d="M1512.69,-156.768C1566.47,-148.53 1650.11,-134.958 1722,-120 1730.65,-118.2 1739.78,-116.122 1748.66,-114.002"/>
<polygon fill="midnightblue" stroke="midnightblue" points="1512.04,-153.327 1502.68,-158.293 1513.09,-160.248 1512.04,-153.327"/>
</g>
<!-- Node24 -->
<g id="node24" class="node"><title>Node24</title>
<g id="a_node24"><a xlink:href="percentiles_8cpp.html" target="_top" xlink:title="examples/percentiles\l/percentiles.cpp">
<polygon fill="none" stroke="black" points="1402.5,-84 1402.5,-114 1511.5,-114 1511.5,-84 1402.5,-84"/>
<text text-anchor="start" x="1410.5" y="-102" font-family="Helvetica,sans-Serif" font-size="10.00">examples/percentiles</text>
<text text-anchor="middle" x="1457" y="-91" font-family="Helvetica,sans-Serif" font-size="10.00">/percentiles.cpp</text>
</a>
</g>
</g>
<!-- Node19&#45;&gt;Node24 -->
<g id="edge34" class="edge"><title>Node19&#45;&gt;Node24</title>
<path fill="none" stroke="midnightblue" d="M1457,-145.911C1457,-135.722 1457,-123.401 1457,-114.089"/>
<polygon fill="midnightblue" stroke="midnightblue" points="1453.5,-146.234 1457,-156.234 1460.5,-146.234 1453.5,-146.234"/>
</g>
<!-- Node25 -->
<g id="node25" class="node"><title>Node25</title>
<g id="a_node25"><a xlink:href="examples_2select_2select_8hpp.html" target="_top" xlink:title="examples/select/select.hpp">
<polygon fill="none" stroke="black" points="1893,-89.5 1893,-108.5 2029,-108.5 2029,-89.5 1893,-89.5"/>
<text text-anchor="middle" x="1961" y="-96.5" font-family="Helvetica,sans-Serif" font-size="10.00">examples/select/select.hpp</text>
</a>
</g>
</g>
<!-- Node19&#45;&gt;Node25 -->
<g id="edge35" class="edge"><title>Node19&#45;&gt;Node25</title>
<path fill="none" stroke="midnightblue" d="M1512.77,-161.711C1594.5,-156.304 1751.39,-143.694 1883,-120 1899.37,-117.052 1917.38,-112.524 1931.96,-108.52"/>
<polygon fill="midnightblue" stroke="midnightblue" points="1512.45,-158.224 1502.7,-162.365 1512.91,-165.209 1512.45,-158.224"/>
</g>
<!-- Node27 -->
<g id="node27" class="node"><title>Node27</title>
<g id="a_node27"><a xlink:href="stochastic__gradient__descent_8hpp.html" target="_top" xlink:title="examples/stochastic\l_gradient_descent/stochastic\l_gradient_descent.hpp">
<polygon fill="none" stroke="black" points="2047,-78.5 2047,-119.5 2191,-119.5 2191,-78.5 2047,-78.5"/>
<text text-anchor="start" x="2055" y="-107.5" font-family="Helvetica,sans-Serif" font-size="10.00">examples/stochastic</text>
<text text-anchor="start" x="2055" y="-96.5" font-family="Helvetica,sans-Serif" font-size="10.00">_gradient_descent/stochastic</text>
<text text-anchor="middle" x="2119" y="-85.5" font-family="Helvetica,sans-Serif" font-size="10.00">_gradient_descent.hpp</text>
</a>
</g>
</g>
<!-- Node19&#45;&gt;Node27 -->
<g id="edge37" class="edge"><title>Node19&#45;&gt;Node27</title>
<path fill="none" stroke="midnightblue" d="M1512.76,-163.733C1616.68,-160.697 1846.8,-150.794 2038,-120 2040.86,-119.539 2043.77,-119.029 2046.7,-118.478"/>
<polygon fill="midnightblue" stroke="midnightblue" points="1512.4,-160.241 1502.5,-164.022 1512.6,-167.239 1512.4,-160.241"/>
</g>
<!-- Node21 -->
<g id="node21" class="node"><title>Node21</title>
<g id="a_node21"><a xlink:href="k-means__run_8cpp.html" target="_top" xlink:title="examples/k&#45;means/k\l&#45;means_run.cpp">
<polygon fill="none" stroke="black" points="1606.5,-6 1606.5,-36 1713.5,-36 1713.5,-6 1606.5,-6"/>
<text text-anchor="start" x="1614.5" y="-24" font-family="Helvetica,sans-Serif" font-size="10.00">examples/k&#45;means/k</text>
<text text-anchor="middle" x="1660" y="-13" font-family="Helvetica,sans-Serif" font-size="10.00">&#45;means_run.cpp</text>
</a>
</g>
</g>
<!-- Node20&#45;&gt;Node21 -->
<g id="edge30" class="edge"><title>Node20&#45;&gt;Node21</title>
<path fill="none" stroke="midnightblue" d="M1660,-73.5898C1660,-61.2565 1660,-46.7237 1660,-36.2309"/>
<polygon fill="midnightblue" stroke="midnightblue" points="1656.5,-73.7049 1660,-83.705 1663.5,-73.705 1656.5,-73.7049"/>
</g>
<!-- Node23 -->
<g id="node23" class="node"><title>Node23</title>
<g id="a_node23"><a xlink:href="logistic__regression_8cpp.html" target="_top" xlink:title="examples/logistic_regression\l/logistic_regression.cpp">
<polygon fill="none" stroke="black" points="1731.5,-6 1731.5,-36 1874.5,-36 1874.5,-6 1731.5,-6"/>
<text text-anchor="start" x="1739.5" y="-24" font-family="Helvetica,sans-Serif" font-size="10.00">examples/logistic_regression</text>
<text text-anchor="middle" x="1803" y="-13" font-family="Helvetica,sans-Serif" font-size="10.00">/logistic_regression.cpp</text>
</a>
</g>
</g>
<!-- Node22&#45;&gt;Node23 -->
<g id="edge32" class="edge"><title>Node22&#45;&gt;Node23</title>
<path fill="none" stroke="midnightblue" d="M1803,-73.5898C1803,-61.2565 1803,-46.7237 1803,-36.2309"/>
<polygon fill="midnightblue" stroke="midnightblue" points="1799.5,-73.7049 1803,-83.705 1806.5,-73.705 1799.5,-73.7049"/>
</g>
<!-- Node26 -->
<g id="node26" class="node"><title>Node26</title>
<g id="a_node26"><a xlink:href="select__run_8cpp.html" target="_top" xlink:title="examples/select/select\l_run.cpp">
<polygon fill="none" stroke="black" points="1902.5,-6 1902.5,-36 2019.5,-36 2019.5,-6 1902.5,-6"/>
<text text-anchor="start" x="1910.5" y="-24" font-family="Helvetica,sans-Serif" font-size="10.00">examples/select/select</text>
<text text-anchor="middle" x="1961" y="-13" font-family="Helvetica,sans-Serif" font-size="10.00">_run.cpp</text>
</a>
</g>
</g>
<!-- Node25&#45;&gt;Node26 -->
<g id="edge36" class="edge"><title>Node25&#45;&gt;Node26</title>
<path fill="none" stroke="midnightblue" d="M1961,-79.2816C1961,-65.9036 1961,-48.188 1961,-36.0198"/>
<polygon fill="midnightblue" stroke="midnightblue" points="1957.5,-79.2818 1961,-89.2818 1964.5,-79.2819 1957.5,-79.2818"/>
</g>
<!-- Node28 -->
<g id="node28" class="node"><title>Node28</title>
<g id="a_node28"><a xlink:href="stochastic__gradient__descent__run_8cpp.html" target="_top" xlink:title="examples/stochastic\l_gradient_descent/stochastic\l_gradient_descent_run.cpp">
<polygon fill="none" stroke="black" points="2047,-0.5 2047,-41.5 2191,-41.5 2191,-0.5 2047,-0.5"/>
<text text-anchor="start" x="2055" y="-29.5" font-family="Helvetica,sans-Serif" font-size="10.00">examples/stochastic</text>
<text text-anchor="start" x="2055" y="-18.5" font-family="Helvetica,sans-Serif" font-size="10.00">_gradient_descent/stochastic</text>
<text text-anchor="middle" x="2119" y="-7.5" font-family="Helvetica,sans-Serif" font-size="10.00">_gradient_descent_run.cpp</text>
</a>
</g>
</g>
<!-- Node27&#45;&gt;Node28 -->
<g id="edge38" class="edge"><title>Node27&#45;&gt;Node28</title>
<path fill="none" stroke="midnightblue" d="M2119,-68.2965C2119,-59.3009 2119,-49.6532 2119,-41.5056"/>
<polygon fill="midnightblue" stroke="midnightblue" points="2115.5,-68.4281 2119,-78.4281 2122.5,-68.4281 2115.5,-68.4281"/>
</g>
</g>
</svg>
