<?xml version="1.0" encoding="UTF-8" standalone="no"?>
<!DOCTYPE svg PUBLIC "-//W3C//DTD SVG 1.1//EN"
 "http://www.w3.org/Graphics/SVG/1.1/DTD/svg11.dtd">
<!-- Generated by graphviz version 2.40.1 (20161225.0304)
 -->
<!-- Title: extlib/tlx/tlx/string/appendline.cpp Pages: 1 -->
<svg width="228pt" height="151pt"
 viewBox="0.00 0.00 228.00 151.00" xmlns="http://www.w3.org/2000/svg" xmlns:xlink="http://www.w3.org/1999/xlink">
<g id="graph0" class="graph" transform="scale(1 1) rotate(0) translate(4 147)">
<title>extlib/tlx/tlx/string/appendline.cpp</title>
<!-- Node0 -->
<g id="node1" class="node">
<title>Node0</title>
<polygon fill="#bfbfbf" stroke="#000000" points="74.5,-112.5 74.5,-142.5 181.5,-142.5 181.5,-112.5 74.5,-112.5"/>
<text text-anchor="start" x="82.5" y="-130.5" font-family="Helvetica,sans-Serif" font-size="10.00" fill="#000000">extlib/tlx/tlx/string</text>
<text text-anchor="middle" x="128" y="-119.5" font-family="Helvetica,sans-Serif" font-size="10.00" fill="#000000">/appendline.cpp</text>
</g>
<!-- Node1 -->
<g id="node2" class="node">
<title>Node1</title>
<g id="a_node2"><a xlink:href="appendline_8hpp.html" target="_top" xlink:title="tlx/string/appendline.hpp">
<polygon fill="none" stroke="#000000" points="0,-56.5 0,-75.5 138,-75.5 138,-56.5 0,-56.5"/>
<text text-anchor="middle" x="69" y="-63.5" font-family="Helvetica,sans-Serif" font-size="10.00" fill="#000000">tlx/string/appendline.hpp</text>
</a>
</g>
</g>
<!-- Node0&#45;&gt;Node1 -->
<g id="edge1" class="edge">
<title>Node0&#45;&gt;Node1</title>
<path fill="none" stroke="#191970" d="M113.4157,-112.2977C104.97,-103.4941 94.3108,-92.3833 85.5516,-83.2529"/>
<polygon fill="#191970" stroke="#191970" points="87.8952,-80.6402 78.4466,-75.8469 82.8439,-85.4862 87.8952,-80.6402"/>
</g>
<!-- Node4 -->
<g id="node5" class="node">
<title>Node4</title>
<polygon fill="none" stroke="#bfbfbf" points="156,-56.5 156,-75.5 220,-75.5 220,-56.5 156,-56.5"/>
<text text-anchor="middle" x="188" y="-63.5" font-family="Helvetica,sans-Serif" font-size="10.00" fill="#000000">algorithm</text>
</g>
<!-- Node0&#45;&gt;Node4 -->
<g id="edge4" class="edge">
<title>Node0&#45;&gt;Node4</title>
<path fill="none" stroke="#191970" d="M142.8315,-112.2977C151.4204,-103.4941 162.2602,-92.3833 171.1679,-83.2529"/>
<polygon fill="#191970" stroke="#191970" points="173.9152,-85.4489 178.3932,-75.8469 168.9047,-80.5606 173.9152,-85.4489"/>
</g>
<!-- Node2 -->
<g id="node3" class="node">
<title>Node2</title>
<polygon fill="none" stroke="#bfbfbf" points="9,-.5 9,-19.5 63,-19.5 63,-.5 9,-.5"/>
<text text-anchor="middle" x="36" y="-7.5" font-family="Helvetica,sans-Serif" font-size="10.00" fill="#000000">istream</text>
</g>
<!-- Node1&#45;&gt;Node2 -->
<g id="edge2" class="edge">
<title>Node1&#45;&gt;Node2</title>
<path fill="none" stroke="#191970" d="M63.2518,-56.2455C58.7565,-48.617 52.3752,-37.7881 46.9175,-28.5267"/>
<polygon fill="#191970" stroke="#191970" points="49.7747,-26.4811 41.6823,-19.6427 43.7439,-30.035 49.7747,-26.4811"/>
</g>
<!-- Node3 -->
<g id="node4" class="node">
<title>Node3</title>
<polygon fill="none" stroke="#bfbfbf" points="81,-.5 81,-19.5 125,-19.5 125,-.5 81,-.5"/>
<text text-anchor="middle" x="103" y="-7.5" font-family="Helvetica,sans-Serif" font-size="10.00" fill="#000000">string</text>
</g>
<!-- Node1&#45;&gt;Node3 -->
<g id="edge3" class="edge">
<title>Node1&#45;&gt;Node3</title>
<path fill="none" stroke="#191970" d="M74.9223,-56.2455C79.6027,-48.5367 86.2673,-37.5598 91.9289,-28.2348"/>
<polygon fill="#191970" stroke="#191970" points="94.9475,-30.007 97.1455,-19.6427 88.9639,-26.3741 94.9475,-30.007"/>
</g>
</g>
</svg>
