<?xml version="1.0" encoding="UTF-8" standalone="no"?>
<!DOCTYPE svg PUBLIC "-//W3C//DTD SVG 1.1//EN"
 "http://www.w3.org/Graphics/SVG/1.1/DTD/svg11.dtd">
<!-- Generated by graphviz version 2.26.3 (20100126.1600)
 -->
<!-- Title: extlib/tlx/tlx/meta/apply_tuple.hpp Pages: 1 -->
<svg width="210pt" height="160pt"
 viewBox="0.00 0.00 210.00 160.00" xmlns="http://www.w3.org/2000/svg" xmlns:xlink="http://www.w3.org/1999/xlink">
<g id="graph1" class="graph" transform="scale(1 1) rotate(0) translate(4 156)">
<title>extlib/tlx/tlx/meta/apply_tuple.hpp</title>
<!-- Node1 -->
<g id="node1" class="node"><title>Node1</title>
<polygon fill="#bfbfbf" stroke="black" points="29,-117 29,-151 121,-151 121,-117 29,-117"/>
<text text-anchor="start" x="37" y="-138" font-family="Helvetica,sans-Serif" font-size="10.00">extlib/tlx/tlx/meta</text>
<text text-anchor="middle" x="75" y="-125" font-family="Helvetica,sans-Serif" font-size="10.00">/apply_tuple.hpp</text>
</g>
<!-- Node2 -->
<g id="node3" class="node"><title>Node2</title>
<polygon fill="none" stroke="#bfbfbf" points="0,-58.5 0,-79.5 40,-79.5 40,-58.5 0,-58.5"/>
<text text-anchor="middle" x="20" y="-66.5" font-family="Helvetica,sans-Serif" font-size="10.00">utility</text>
</g>
<!-- Node1&#45;&gt;Node2 -->
<g id="edge2" class="edge"><title>Node1&#45;&gt;Node2</title>
<path fill="none" stroke="midnightblue" d="M60.5494,-116.922C52.9467,-107.937 43.6116,-96.9047 35.8156,-87.6912"/>
<polygon fill="midnightblue" stroke="midnightblue" points="38.3139,-85.2252 29.1825,-79.8521 32.9701,-89.7468 38.3139,-85.2252"/>
</g>
<!-- Node3 -->
<g id="node5" class="node"><title>Node3</title>
<a xlink:href="index__sequence_8hpp.html" target="_top" xlink:title="tlx/meta/index_sequence.hpp">
<polygon fill="none" stroke="black" points="58,-58.5 58,-79.5 202,-79.5 202,-58.5 58,-58.5"/>
<text text-anchor="middle" x="130" y="-66.5" font-family="Helvetica,sans-Serif" font-size="10.00">tlx/meta/index_sequence.hpp</text>
</a>
</g>
<!-- Node1&#45;&gt;Node3 -->
<g id="edge4" class="edge"><title>Node1&#45;&gt;Node3</title>
<path fill="none" stroke="midnightblue" d="M89.4506,-116.922C97.0533,-107.937 106.388,-96.9047 114.184,-87.6912"/>
<polygon fill="midnightblue" stroke="midnightblue" points="117.03,-89.7468 120.817,-79.8521 111.686,-85.2252 117.03,-89.7468"/>
</g>
<!-- Node4 -->
<g id="node7" class="node"><title>Node4</title>
<polygon fill="none" stroke="#bfbfbf" points="105.5,-0.5 105.5,-21.5 154.5,-21.5 154.5,-0.5 105.5,-0.5"/>
<text text-anchor="middle" x="130" y="-8.5" font-family="Helvetica,sans-Serif" font-size="10.00">cstddef</text>
</g>
<!-- Node3&#45;&gt;Node4 -->
<g id="edge6" class="edge"><title>Node3&#45;&gt;Node4</title>
<path fill="none" stroke="midnightblue" d="M130,-58.3619C130,-50.9219 130,-40.7427 130,-31.7276"/>
<polygon fill="midnightblue" stroke="midnightblue" points="133.5,-31.5706 130,-21.5707 126.5,-31.5707 133.5,-31.5706"/>
</g>
</g>
</svg>
