<?xml version="1.0" encoding="UTF-8" standalone="no"?>
<!DOCTYPE svg PUBLIC "-//W3C//DTD SVG 1.1//EN"
 "http://www.w3.org/Graphics/SVG/1.1/DTD/svg11.dtd">
<!-- Generated by graphviz version 2.40.1 (20161225.0304)
 -->
<!-- Title: extlib/foxxll/foxxll/mng/async_schedule.hpp Pages: 1 -->
<svg width="476pt" height="106pt"
 viewBox="0.00 0.00 476.00 106.00" xmlns="http://www.w3.org/2000/svg" xmlns:xlink="http://www.w3.org/1999/xlink">
<g id="graph0" class="graph" transform="scale(1 1) rotate(0) translate(4 102)">
<title>extlib/foxxll/foxxll/mng/async_schedule.hpp</title>
<!-- Node11 -->
<g id="node1" class="node">
<title>Node11</title>
<polygon fill="#bfbfbf" stroke="#000000" points="150.5,-67.5 150.5,-97.5 293.5,-97.5 293.5,-67.5 150.5,-67.5"/>
<text text-anchor="start" x="158.5" y="-85.5" font-family="Helvetica,sans-Serif" font-size="10.00" fill="#000000">extlib/foxxll/foxxll</text>
<text text-anchor="middle" x="222" y="-74.5" font-family="Helvetica,sans-Serif" font-size="10.00" fill="#000000">/mng/async_schedule.hpp</text>
</g>
<!-- Node12 -->
<g id="node2" class="node">
<title>Node12</title>
<g id="a_node2"><a xlink:href="async__schedule_8cpp.html" target="_top" xlink:title="extlib/foxxll/foxxll\l/mng/async_schedule.cpp">
<polygon fill="none" stroke="#000000" points="0,-.5 0,-30.5 142,-30.5 142,-.5 0,-.5"/>
<text text-anchor="start" x="8" y="-18.5" font-family="Helvetica,sans-Serif" font-size="10.00" fill="#000000">extlib/foxxll/foxxll</text>
<text text-anchor="middle" x="71" y="-7.5" font-family="Helvetica,sans-Serif" font-size="10.00" fill="#000000">/mng/async_schedule.cpp</text>
</a>
</g>
</g>
<!-- Node11&#45;&gt;Node12 -->
<g id="edge1" class="edge">
<title>Node11&#45;&gt;Node12</title>
<path fill="none" stroke="#191970" d="M178.7582,-63.3132C155.3497,-52.9267 126.8461,-40.2794 105.0351,-30.6017"/>
<polygon fill="#191970" stroke="#191970" points="177.5525,-66.6073 188.1127,-67.4639 180.3916,-60.2089 177.5525,-66.6073"/>
</g>
<!-- Node13 -->
<g id="node3" class="node">
<title>Node13</title>
<g id="a_node3"><a xlink:href="buf__istream_8hpp.html" target="_top" xlink:title="extlib/foxxll/foxxll\l/mng/buf_istream.hpp">
<polygon fill="none" stroke="#000000" points="160,-.5 160,-30.5 284,-30.5 284,-.5 160,-.5"/>
<text text-anchor="start" x="168" y="-18.5" font-family="Helvetica,sans-Serif" font-size="10.00" fill="#000000">extlib/foxxll/foxxll</text>
<text text-anchor="middle" x="222" y="-7.5" font-family="Helvetica,sans-Serif" font-size="10.00" fill="#000000">/mng/buf_istream.hpp</text>
</a>
</g>
</g>
<!-- Node11&#45;&gt;Node13 -->
<g id="edge2" class="edge">
<title>Node11&#45;&gt;Node13</title>
<path fill="none" stroke="#191970" d="M222,-57.0249C222,-48.128 222,-38.4287 222,-30.6432"/>
<polygon fill="#191970" stroke="#191970" points="218.5001,-57.2966 222,-67.2967 225.5001,-57.2967 218.5001,-57.2966"/>
</g>
<!-- Node14 -->
<g id="node4" class="node">
<title>Node14</title>
<g id="a_node4"><a xlink:href="buf__istream__reverse_8hpp.html" target="_top" xlink:title="extlib/foxxll/foxxll\l/mng/buf_istream_reverse.hpp">
<polygon fill="none" stroke="#000000" points="302,-.5 302,-30.5 468,-30.5 468,-.5 302,-.5"/>
<text text-anchor="start" x="310" y="-18.5" font-family="Helvetica,sans-Serif" font-size="10.00" fill="#000000">extlib/foxxll/foxxll</text>
<text text-anchor="middle" x="385" y="-7.5" font-family="Helvetica,sans-Serif" font-size="10.00" fill="#000000">/mng/buf_istream_reverse.hpp</text>
</a>
</g>
</g>
<!-- Node11&#45;&gt;Node14 -->
<g id="edge3" class="edge">
<title>Node11&#45;&gt;Node14</title>
<path fill="none" stroke="#191970" d="M268.0058,-63.5897C293.3994,-53.1518 324.5065,-40.3654 348.2601,-30.6017"/>
<polygon fill="#191970" stroke="#191970" points="266.4989,-60.4248 258.5804,-67.4639 269.1602,-66.8992 266.4989,-60.4248"/>
</g>
</g>
</svg>
