<?xml version="1.0" encoding="UTF-8" standalone="no"?>
<!DOCTYPE svg PUBLIC "-//W3C//DTD SVG 1.1//EN"
 "http://www.w3.org/Graphics/SVG/1.1/DTD/svg11.dtd">
<!-- Generated by graphviz version 2.26.3 (20100126.1600)
 -->
<!-- Title: thrill/common/atomic_movable.hpp Pages: 1 -->
<svg width="114pt" height="102pt"
 viewBox="0.00 0.00 114.00 102.00" xmlns="http://www.w3.org/2000/svg" xmlns:xlink="http://www.w3.org/1999/xlink">
<g id="graph1" class="graph" transform="scale(1 1) rotate(0) translate(4 98)">
<title>thrill/common/atomic_movable.hpp</title>
<!-- Node1 -->
<g id="node1" class="node"><title>Node1</title>
<polygon fill="#bfbfbf" stroke="black" points="-0.5,-59 -0.5,-93 106.5,-93 106.5,-59 -0.5,-59"/>
<text text-anchor="start" x="7.5" y="-80" font-family="Helvetica,sans-Serif" font-size="10.00">thrill/common/atomic</text>
<text text-anchor="middle" x="53" y="-67" font-family="Helvetica,sans-Serif" font-size="10.00">_movable.hpp</text>
</g>
<!-- Node2 -->
<g id="node3" class="node"><title>Node2</title>
<polygon fill="none" stroke="#bfbfbf" points="0,-0.5 0,-21.5 46,-21.5 46,-0.5 0,-0.5"/>
<text text-anchor="middle" x="23" y="-8.5" font-family="Helvetica,sans-Serif" font-size="10.00">atomic</text>
</g>
<!-- Node1&#45;&gt;Node2 -->
<g id="edge2" class="edge"><title>Node1&#45;&gt;Node2</title>
<path fill="none" stroke="midnightblue" d="M45.1179,-58.922C41.1825,-50.3954 36.3962,-40.0251 32.2839,-31.1151"/>
<polygon fill="midnightblue" stroke="midnightblue" points="35.3772,-29.465 28.0087,-21.8521 29.0214,-32.3984 35.3772,-29.465"/>
</g>
<!-- Node3 -->
<g id="node5" class="node"><title>Node3</title>
<polygon fill="none" stroke="#bfbfbf" points="64,-0.5 64,-21.5 104,-21.5 104,-0.5 64,-0.5"/>
<text text-anchor="middle" x="84" y="-8.5" font-family="Helvetica,sans-Serif" font-size="10.00">utility</text>
</g>
<!-- Node1&#45;&gt;Node3 -->
<g id="edge4" class="edge"><title>Node1&#45;&gt;Node3</title>
<path fill="none" stroke="midnightblue" d="M61.1449,-58.922C65.2114,-50.3954 70.1573,-40.0251 74.4066,-31.1151"/>
<polygon fill="midnightblue" stroke="midnightblue" points="77.6787,-32.3848 78.8244,-21.8521 71.3605,-29.3715 77.6787,-32.3848"/>
</g>
</g>
</svg>
