<?xml version="1.0" encoding="UTF-8" standalone="no"?>
<!DOCTYPE svg PUBLIC "-//W3C//DTD SVG 1.1//EN"
 "http://www.w3.org/Graphics/SVG/1.1/DTD/svg11.dtd">
<!-- Generated by graphviz version 2.26.3 (20100126.1600)
 -->
<!-- Title: extlib/tlx/tlx/string/base64.cpp Pages: 1 -->
<svg width="190pt" height="160pt"
 viewBox="0.00 0.00 190.00 160.00" xmlns="http://www.w3.org/2000/svg" xmlns:xlink="http://www.w3.org/1999/xlink">
<g id="graph1" class="graph" transform="scale(1 1) rotate(0) translate(4 156)">
<title>extlib/tlx/tlx/string/base64.cpp</title>
<!-- Node1 -->
<g id="node1" class="node"><title>Node1</title>
<polygon fill="#bfbfbf" stroke="black" points="56,-117 56,-151 150,-151 150,-117 56,-117"/>
<text text-anchor="start" x="64" y="-138" font-family="Helvetica,sans-Serif" font-size="10.00">extlib/tlx/tlx/string</text>
<text text-anchor="middle" x="103" y="-125" font-family="Helvetica,sans-Serif" font-size="10.00">/base64.cpp</text>
</g>
<!-- Node2 -->
<g id="node3" class="node"><title>Node2</title>
<a xlink:href="base64_8hpp.html" target="_top" xlink:title="tlx/string/base64.hpp">
<polygon fill="none" stroke="black" points="-0.5,-58.5 -0.5,-79.5 106.5,-79.5 106.5,-58.5 -0.5,-58.5"/>
<text text-anchor="middle" x="53" y="-66.5" font-family="Helvetica,sans-Serif" font-size="10.00">tlx/string/base64.hpp</text>
</a>
</g>
<!-- Node1&#45;&gt;Node2 -->
<g id="edge2" class="edge"><title>Node1&#45;&gt;Node2</title>
<path fill="none" stroke="midnightblue" d="M89.8631,-116.922C83.022,-108.029 74.6382,-97.1296 67.5952,-87.9738"/>
<polygon fill="midnightblue" stroke="midnightblue" points="70.2191,-85.6443 61.3478,-79.8521 64.6707,-89.9123 70.2191,-85.6443"/>
</g>
<!-- Node4 -->
<g id="node7" class="node"><title>Node4</title>
<polygon fill="none" stroke="#bfbfbf" points="123.5,-58.5 123.5,-79.5 182.5,-79.5 182.5,-58.5 123.5,-58.5"/>
<text text-anchor="middle" x="153" y="-66.5" font-family="Helvetica,sans-Serif" font-size="10.00">stdexcept</text>
</g>
<!-- Node1&#45;&gt;Node4 -->
<g id="edge6" class="edge"><title>Node1&#45;&gt;Node4</title>
<path fill="none" stroke="midnightblue" d="M116.137,-116.922C122.978,-108.029 131.362,-97.1296 138.405,-87.9738"/>
<polygon fill="midnightblue" stroke="midnightblue" points="141.329,-89.9123 144.652,-79.8521 135.781,-85.6443 141.329,-89.9123"/>
</g>
<!-- Node3 -->
<g id="node5" class="node"><title>Node3</title>
<polygon fill="none" stroke="#bfbfbf" points="32.5,-0.5 32.5,-21.5 73.5,-21.5 73.5,-0.5 32.5,-0.5"/>
<text text-anchor="middle" x="53" y="-8.5" font-family="Helvetica,sans-Serif" font-size="10.00">string</text>
</g>
<!-- Node2&#45;&gt;Node3 -->
<g id="edge4" class="edge"><title>Node2&#45;&gt;Node3</title>
<path fill="none" stroke="midnightblue" d="M53,-58.3619C53,-50.9219 53,-40.7427 53,-31.7276"/>
<polygon fill="midnightblue" stroke="midnightblue" points="56.5001,-31.5706 53,-21.5707 49.5001,-31.5707 56.5001,-31.5706"/>
</g>
</g>
</svg>
