<?xml version="1.0" encoding="UTF-8" standalone="no"?>
<!DOCTYPE svg PUBLIC "-//W3C//DTD SVG 1.1//EN"
 "http://www.w3.org/Graphics/SVG/1.1/DTD/svg11.dtd">
<!-- Generated by graphviz version 2.36.0 (20140111.2315)
 -->
<!-- Title: thrill/api/bernoulli_sample.hpp Pages: 1 -->
<svg width="398pt" height="196pt"
 viewBox="0.00 0.00 398.00 196.00" xmlns="http://www.w3.org/2000/svg" xmlns:xlink="http://www.w3.org/1999/xlink">
<g id="graph0" class="graph" transform="scale(1 1) rotate(0) translate(4 192)">
<title>thrill/api/bernoulli_sample.hpp</title>
<!-- Node1 -->
<g id="node1" class="node"><title>Node1</title>
<polygon fill="#bfbfbf" stroke="black" points="115.5,-157 115.5,-187 204.5,-187 204.5,-157 115.5,-157"/>
<text text-anchor="start" x="123.5" y="-175" font-family="Helvetica,sans-Serif" font-size="10.00">thrill/api/bernoulli</text>
<text text-anchor="middle" x="160" y="-164" font-family="Helvetica,sans-Serif" font-size="10.00">_sample.hpp</text>
</g>
<!-- Node2 -->
<g id="node2" class="node"><title>Node2</title>
<g id="a_node2"><a xlink:href="thrill_8hpp.html" target="_top" xlink:title="thrill/thrill.hpp">
<polygon fill="none" stroke="black" points="0,-89.5 0,-108.5 74,-108.5 74,-89.5 0,-89.5"/>
<text text-anchor="middle" x="37" y="-96.5" font-family="Helvetica,sans-Serif" font-size="10.00">thrill/thrill.hpp</text>
</a>
</g>
</g>
<!-- Node1&#45;&gt;Node2 -->
<g id="edge1" class="edge"><title>Node1&#45;&gt;Node2</title>
<path fill="none" stroke="midnightblue" d="M126.77,-151.819C102.39,-137.745 70.4342,-119.299 51.9631,-108.637"/>
<polygon fill="midnightblue" stroke="midnightblue" points="125.289,-155.005 135.699,-156.973 128.788,-148.942 125.289,-155.005"/>
</g>
<!-- Node3 -->
<g id="node3" class="node"><title>Node3</title>
<g id="a_node3"><a xlink:href="examples_2select_2select_8hpp.html" target="_top" xlink:title="examples/select/select.hpp">
<polygon fill="none" stroke="black" points="92,-89.5 92,-108.5 228,-108.5 228,-89.5 92,-89.5"/>
<text text-anchor="middle" x="160" y="-96.5" font-family="Helvetica,sans-Serif" font-size="10.00">examples/select/select.hpp</text>
</a>
</g>
</g>
<!-- Node1&#45;&gt;Node3 -->
<g id="edge2" class="edge"><title>Node1&#45;&gt;Node3</title>
<path fill="none" stroke="midnightblue" d="M160,-146.632C160,-133.468 160,-118.031 160,-108.637"/>
<polygon fill="midnightblue" stroke="midnightblue" points="156.5,-146.973 160,-156.973 163.5,-146.973 156.5,-146.973"/>
</g>
<!-- Node5 -->
<g id="node5" class="node"><title>Node5</title>
<g id="a_node5"><a xlink:href="stochastic__gradient__descent_8hpp.html" target="_top" xlink:title="examples/stochastic\l_gradient_descent/stochastic\l_gradient_descent.hpp">
<polygon fill="none" stroke="black" points="246,-78.5 246,-119.5 390,-119.5 390,-78.5 246,-78.5"/>
<text text-anchor="start" x="254" y="-107.5" font-family="Helvetica,sans-Serif" font-size="10.00">examples/stochastic</text>
<text text-anchor="start" x="254" y="-96.5" font-family="Helvetica,sans-Serif" font-size="10.00">_gradient_descent/stochastic</text>
<text text-anchor="middle" x="318" y="-85.5" font-family="Helvetica,sans-Serif" font-size="10.00">_gradient_descent.hpp</text>
</a>
</g>
</g>
<!-- Node1&#45;&gt;Node5 -->
<g id="edge4" class="edge"><title>Node1&#45;&gt;Node5</title>
<path fill="none" stroke="midnightblue" d="M200.557,-152.775C223.225,-142.589 251.476,-129.894 274.589,-119.507"/>
<polygon fill="midnightblue" stroke="midnightblue" points="198.902,-149.681 191.216,-156.973 201.772,-156.066 198.902,-149.681"/>
</g>
<!-- Node4 -->
<g id="node4" class="node"><title>Node4</title>
<g id="a_node4"><a xlink:href="select__run_8cpp.html" target="_top" xlink:title="examples/select/select\l_run.cpp">
<polygon fill="none" stroke="black" points="101.5,-6 101.5,-36 218.5,-36 218.5,-6 101.5,-6"/>
<text text-anchor="start" x="109.5" y="-24" font-family="Helvetica,sans-Serif" font-size="10.00">examples/select/select</text>
<text text-anchor="middle" x="160" y="-13" font-family="Helvetica,sans-Serif" font-size="10.00">_run.cpp</text>
</a>
</g>
</g>
<!-- Node3&#45;&gt;Node4 -->
<g id="edge3" class="edge"><title>Node3&#45;&gt;Node4</title>
<path fill="none" stroke="midnightblue" d="M160,-79.2816C160,-65.9036 160,-48.188 160,-36.0198"/>
<polygon fill="midnightblue" stroke="midnightblue" points="156.5,-79.2818 160,-89.2818 163.5,-79.2819 156.5,-79.2818"/>
</g>
<!-- Node6 -->
<g id="node6" class="node"><title>Node6</title>
<g id="a_node6"><a xlink:href="stochastic__gradient__descent__run_8cpp.html" target="_top" xlink:title="examples/stochastic\l_gradient_descent/stochastic\l_gradient_descent_run.cpp">
<polygon fill="none" stroke="black" points="246,-0.5 246,-41.5 390,-41.5 390,-0.5 246,-0.5"/>
<text text-anchor="start" x="254" y="-29.5" font-family="Helvetica,sans-Serif" font-size="10.00">examples/stochastic</text>
<text text-anchor="start" x="254" y="-18.5" font-family="Helvetica,sans-Serif" font-size="10.00">_gradient_descent/stochastic</text>
<text text-anchor="middle" x="318" y="-7.5" font-family="Helvetica,sans-Serif" font-size="10.00">_gradient_descent_run.cpp</text>
</a>
</g>
</g>
<!-- Node5&#45;&gt;Node6 -->
<g id="edge5" class="edge"><title>Node5&#45;&gt;Node6</title>
<path fill="none" stroke="midnightblue" d="M318,-68.2965C318,-59.3009 318,-49.6532 318,-41.5056"/>
<polygon fill="midnightblue" stroke="midnightblue" points="314.5,-68.4281 318,-78.4281 321.5,-68.4281 314.5,-68.4281"/>
</g>
</g>
</svg>
