<?xml version="1.0" encoding="UTF-8" standalone="no"?>
<!DOCTYPE svg PUBLIC "-//W3C//DTD SVG 1.1//EN"
 "http://www.w3.org/Graphics/SVG/1.1/DTD/svg11.dtd">
<!-- Generated by graphviz version 2.26.3 (20100126.1600)
 -->
<!-- Title: thrill/data/block.cpp Pages: 1 -->
<svg width="3565pt" height="752pt"
 viewBox="0.00 0.00 3565.47 752.00" xmlns="http://www.w3.org/2000/svg" xmlns:xlink="http://www.w3.org/1999/xlink">
<g id="graph1" class="graph" transform="scale(1 1) rotate(0) translate(4 748)">
<title>thrill/data/block.cpp</title>
<!-- Node1 -->
<g id="node1" class="node"><title>Node1</title>
<polygon fill="#bfbfbf" stroke="black" points="1089.5,-722.5 1089.5,-743.5 1190.5,-743.5 1190.5,-722.5 1089.5,-722.5"/>
<text text-anchor="middle" x="1140" y="-730.5" font-family="Helvetica,sans-Serif" font-size="10.00">thrill/data/block.cpp</text>
</g>
<!-- Node2 -->
<g id="node3" class="node"><title>Node2</title>
<a xlink:href="block_8hpp.html" target="_top" xlink:title="thrill/data/block.hpp">
<polygon fill="none" stroke="black" points="1089.5,-599.5 1089.5,-620.5 1190.5,-620.5 1190.5,-599.5 1089.5,-599.5"/>
<text text-anchor="middle" x="1140" y="-607.5" font-family="Helvetica,sans-Serif" font-size="10.00">thrill/data/block.hpp</text>
</a>
</g>
<!-- Node1&#45;&gt;Node2 -->
<g id="edge2" class="edge"><title>Node1&#45;&gt;Node2</title>
<path fill="none" stroke="midnightblue" d="M1140,-722.085C1140,-701.609 1140,-657.133 1140,-630.778"/>
<polygon fill="midnightblue" stroke="midnightblue" points="1143.5,-630.715 1140,-620.715 1136.5,-630.715 1143.5,-630.715"/>
</g>
<!-- Node20 -->
<g id="node39" class="node"><title>Node20</title>
<polygon fill="none" stroke="#bfbfbf" points="264.5,-72.5 264.5,-93.5 305.5,-93.5 305.5,-72.5 264.5,-72.5"/>
<text text-anchor="middle" x="285" y="-80.5" font-family="Helvetica,sans-Serif" font-size="10.00">string</text>
</g>
<!-- Node1&#45;&gt;Node20 -->
<g id="edge366" class="edge"><title>Node1&#45;&gt;Node20</title>
<path fill="none" stroke="midnightblue" d="M1089.17,-730.224C867.949,-717.814 0,-665.583 0,-610 0,-610 0,-610 0,-220 3.55271e-15,-176.045 6.46021,-157.186 41,-130 73.7905,-104.191 196.365,-90.549 254.299,-85.4237"/>
<polygon fill="midnightblue" stroke="midnightblue" points="254.663,-88.9054 264.327,-84.5648 254.065,-81.931 254.663,-88.9054"/>
</g>
<!-- Node52 -->
<g id="node167" class="node"><title>Node52</title>
<a xlink:href="block__pool_8hpp.html" target="_top" xlink:title="thrill/data/block_pool.hpp">
<polygon fill="none" stroke="black" points="2694.5,-664.5 2694.5,-685.5 2819.5,-685.5 2819.5,-664.5 2694.5,-664.5"/>
<text text-anchor="middle" x="2757" y="-672.5" font-family="Helvetica,sans-Serif" font-size="10.00">thrill/data/block_pool.hpp</text>
</a>
</g>
<!-- Node1&#45;&gt;Node52 -->
<g id="edge230" class="edge"><title>Node1&#45;&gt;Node52</title>
<path fill="none" stroke="midnightblue" d="M1190.61,-731.185C1425.25,-722.768 2407.4,-687.54 2684.14,-677.613"/>
<polygon fill="midnightblue" stroke="midnightblue" points="2684.59,-681.099 2694.46,-677.243 2684.34,-674.104 2684.59,-681.099"/>
</g>
<!-- Node3 -->
<g id="node5" class="node"><title>Node3</title>
<a xlink:href="thrill_2common_2logger_8hpp.html" target="_top" xlink:title="thrill/common/logger.hpp">
<polygon fill="none" stroke="black" points="1016.5,-353.5 1016.5,-374.5 1139.5,-374.5 1139.5,-353.5 1016.5,-353.5"/>
<text text-anchor="middle" x="1078" y="-361.5" font-family="Helvetica,sans-Serif" font-size="10.00">thrill/common/logger.hpp</text>
</a>
</g>
<!-- Node2&#45;&gt;Node3 -->
<g id="edge4" class="edge"><title>Node2&#45;&gt;Node3</title>
<path fill="none" stroke="midnightblue" d="M1089.26,-601.99C1062.02,-594.826 1030.7,-581.332 1014,-556 976.575,-499.243 1032.28,-418.601 1061.72,-382.601"/>
<polygon fill="midnightblue" stroke="midnightblue" points="1064.49,-384.75 1068.23,-374.839 1059.12,-380.251 1064.49,-384.75"/>
</g>
<!-- Node2&#45;&gt;Node20 -->
<g id="edge228" class="edge"><title>Node2&#45;&gt;Node20</title>
<path fill="none" stroke="midnightblue" d="M1089.4,-609.538C877.946,-606.949 76,-590.32 76,-487 76,-487 76,-487 76,-220 76,-178.602 70.555,-159.099 100,-130 121.648,-108.606 207.48,-93.7153 254.241,-87.0103"/>
<polygon fill="midnightblue" stroke="midnightblue" points="254.987,-90.4403 264.408,-85.5933 254.02,-83.5073 254.987,-90.4403"/>
</g>
<!-- Node23 -->
<g id="node46" class="node"><title>Node23</title>
<a xlink:href="mem_2manager_8hpp.html" target="_top" xlink:title="thrill/mem/manager.hpp">
<polygon fill="none" stroke="black" points="1543.5,-137.5 1543.5,-158.5 1662.5,-158.5 1662.5,-137.5 1543.5,-137.5"/>
<text text-anchor="middle" x="1603" y="-145.5" font-family="Helvetica,sans-Serif" font-size="10.00">thrill/mem/manager.hpp</text>
</a>
</g>
<!-- Node2&#45;&gt;Node23 -->
<g id="edge218" class="edge"><title>Node2&#45;&gt;Node23</title>
<path fill="none" stroke="midnightblue" d="M1139.23,-599.435C1136.56,-554.995 1131.69,-380.608 1210,-274 1229.44,-247.542 1308.13,-213.186 1339,-202 1420.21,-172.567 1445.59,-184.347 1530,-166 1537.1,-164.456 1544.57,-162.732 1551.91,-160.98"/>
<polygon fill="midnightblue" stroke="midnightblue" points="1552.89,-164.343 1561.78,-158.586 1551.24,-157.54 1552.89,-164.343"/>
</g>
<!-- Node26 -->
<g id="node52" class="node"><title>Node26</title>
<polygon fill="none" stroke="#bfbfbf" points="1817.5,-72.5 1817.5,-93.5 1866.5,-93.5 1866.5,-72.5 1817.5,-72.5"/>
<text text-anchor="middle" x="1842" y="-80.5" font-family="Helvetica,sans-Serif" font-size="10.00">cassert</text>
</g>
<!-- Node2&#45;&gt;Node26 -->
<g id="edge224" class="edge"><title>Node2&#45;&gt;Node26</title>
<path fill="none" stroke="midnightblue" d="M1141.78,-599.283C1147.19,-568.925 1165.47,-480.512 1204,-418 1275.08,-302.696 1297.92,-262.716 1419,-202 1520.13,-151.286 1570.93,-218.783 1671,-166 1690.2,-155.874 1685.83,-141.869 1704,-130 1736.04,-109.078 1778.36,-96.4758 1807.65,-89.6635"/>
<polygon fill="midnightblue" stroke="midnightblue" points="1808.42,-93.0767 1817.43,-87.4913 1806.91,-86.2433 1808.42,-93.0767"/>
</g>
<!-- Node34 -->
<g id="node82" class="node"><title>Node34</title>
<a xlink:href="pool_8hpp.html" target="_top" xlink:title="thrill/mem/pool.hpp">
<polygon fill="none" stroke="black" points="2165.5,-281.5 2165.5,-302.5 2264.5,-302.5 2264.5,-281.5 2165.5,-281.5"/>
<text text-anchor="middle" x="2215" y="-289.5" font-family="Helvetica,sans-Serif" font-size="10.00">thrill/mem/pool.hpp</text>
</a>
</g>
<!-- Node2&#45;&gt;Node34 -->
<g id="edge220" class="edge"><title>Node2&#45;&gt;Node34</title>
<path fill="none" stroke="midnightblue" d="M1190.64,-607.416C1328.14,-600.178 1706.31,-578.746 1829,-556 2047.19,-515.549 2197.96,-580.586 2297,-382 2304.14,-367.682 2304.59,-360.085 2297,-346 2287.59,-328.527 2269.77,-315.778 2253.15,-307.07"/>
<polygon fill="midnightblue" stroke="midnightblue" points="2254.61,-303.891 2244.09,-302.643 2251.54,-310.18 2254.61,-303.891"/>
</g>
<!-- Node39 -->
<g id="node101" class="node"><title>Node39</title>
<a xlink:href="byte__block_8hpp.html" target="_top" xlink:title="thrill/data/byte_block.hpp">
<polygon fill="none" stroke="black" points="1695.5,-534.5 1695.5,-555.5 1820.5,-555.5 1820.5,-534.5 1695.5,-534.5"/>
<text text-anchor="middle" x="1758" y="-542.5" font-family="Helvetica,sans-Serif" font-size="10.00">thrill/data/byte_block.hpp</text>
</a>
</g>
<!-- Node2&#45;&gt;Node39 -->
<g id="edge124" class="edge"><title>Node2&#45;&gt;Node39</title>
<path fill="none" stroke="midnightblue" d="M1190.52,-605.722C1286.45,-597.43 1501.54,-578.038 1682,-556 1683.09,-555.867 1684.19,-555.731 1685.3,-555.592"/>
<polygon fill="midnightblue" stroke="midnightblue" points="1685.94,-559.039 1695.4,-554.285 1685.04,-552.097 1685.94,-559.039"/>
</g>
<!-- Node42 -->
<g id="node107" class="node"><title>Node42</title>
<polygon fill="none" stroke="#bfbfbf" points="1620,-353.5 1620,-374.5 1672,-374.5 1672,-353.5 1620,-353.5"/>
<text text-anchor="middle" x="1646" y="-361.5" font-family="Helvetica,sans-Serif" font-size="10.00">ostream</text>
</g>
<!-- Node2&#45;&gt;Node42 -->
<g id="edge226" class="edge"><title>Node2&#45;&gt;Node42</title>
<path fill="none" stroke="midnightblue" d="M1190.9,-606.783C1308.42,-598.171 1592.91,-570.147 1649,-498 1674.46,-465.258 1663.01,-413.155 1653.71,-384.521"/>
<polygon fill="midnightblue" stroke="midnightblue" points="1656.92,-383.084 1650.33,-374.785 1650.3,-385.379 1656.92,-383.084"/>
</g>
<!-- Node50 -->
<g id="node133" class="node"><title>Node50</title>
<a xlink:href="counting__ptr_8hpp.html" target="_top" xlink:title="tlx/counting_ptr.hpp">
<polygon fill="none" stroke="black" points="1428,-209.5 1428,-230.5 1530,-230.5 1530,-209.5 1428,-209.5"/>
<text text-anchor="middle" x="1479" y="-217.5" font-family="Helvetica,sans-Serif" font-size="10.00">tlx/counting_ptr.hpp</text>
</a>
</g>
<!-- Node2&#45;&gt;Node50 -->
<g id="edge222" class="edge"><title>Node2&#45;&gt;Node50</title>
<path fill="none" stroke="midnightblue" d="M1146.65,-599.08C1165.24,-568.924 1219.97,-482.465 1275,-418 1336.37,-346.106 1420.09,-270.967 1458.37,-237.675"/>
<polygon fill="midnightblue" stroke="midnightblue" points="1460.98,-240.049 1466.25,-230.859 1456.4,-234.756 1460.98,-240.049"/>
</g>
<!-- Node4 -->
<g id="node7" class="node"><title>Node4</title>
<a xlink:href="allocator_8hpp.html" target="_top" xlink:title="thrill/mem/allocator.hpp">
<polygon fill="none" stroke="black" points="1001,-281.5 1001,-302.5 1119,-302.5 1119,-281.5 1001,-281.5"/>
<text text-anchor="middle" x="1060" y="-289.5" font-family="Helvetica,sans-Serif" font-size="10.00">thrill/mem/allocator.hpp</text>
</a>
</g>
<!-- Node3&#45;&gt;Node4 -->
<g id="edge6" class="edge"><title>Node3&#45;&gt;Node4</title>
<path fill="none" stroke="midnightblue" d="M1075.34,-353.376C1072.66,-342.635 1068.44,-325.761 1065.11,-312.422"/>
<polygon fill="midnightblue" stroke="midnightblue" points="1068.49,-311.52 1062.67,-302.667 1061.7,-313.218 1068.49,-311.52"/>
</g>
<!-- Node19 -->
<g id="node37" class="node"><title>Node19</title>
<polygon fill="none" stroke="#bfbfbf" points="1611,-72.5 1611,-93.5 1663,-93.5 1663,-72.5 1611,-72.5"/>
<text text-anchor="middle" x="1637" y="-80.5" font-family="Helvetica,sans-Serif" font-size="10.00">sstream</text>
</g>
<!-- Node3&#45;&gt;Node19 -->
<g id="edge120" class="edge"><title>Node3&#45;&gt;Node19</title>
<path fill="none" stroke="midnightblue" d="M1089.96,-353.372C1100.96,-343.115 1117.15,-326.72 1128,-310 1175.36,-237.008 1135.08,-181.787 1205,-130 1236.55,-106.633 1502.43,-90.1909 1600.69,-84.8622"/>
<polygon fill="midnightblue" stroke="midnightblue" points="1600.95,-88.3536 1610.75,-84.3241 1600.57,-81.3636 1600.95,-88.3536"/>
</g>
<!-- Node3&#45;&gt;Node20 -->
<g id="edge122" class="edge"><title>Node3&#45;&gt;Node20</title>
<path fill="none" stroke="midnightblue" d="M1016.45,-363.608C846.611,-361.97 380.474,-353.515 328,-310 266.246,-258.79 274.74,-149.037 281.409,-103.478"/>
<polygon fill="midnightblue" stroke="midnightblue" points="284.868,-104.012 282.981,-93.5861 277.955,-102.913 284.868,-104.012"/>
</g>
<!-- Node3&#45;&gt;Node34 -->
<g id="edge96" class="edge"><title>Node3&#45;&gt;Node34</title>
<path fill="none" stroke="midnightblue" d="M1139.63,-361.819C1353.63,-354.121 2056.98,-327.731 2157,-310 2163.34,-308.877 2169.95,-307.266 2176.34,-305.464"/>
<polygon fill="midnightblue" stroke="midnightblue" points="2177.58,-308.748 2186.14,-302.518 2175.56,-302.045 2177.58,-308.748"/>
</g>
<!-- Node5 -->
<g id="node9" class="node"><title>Node5</title>
<a xlink:href="thrill_2mem_2allocator__base_8hpp.html" target="_top" xlink:title="thrill/mem/allocator\l_base.hpp">
<polygon fill="none" stroke="black" points="1010.5,-203 1010.5,-237 1109.5,-237 1109.5,-203 1010.5,-203"/>
<text text-anchor="start" x="1018.5" y="-224" font-family="Helvetica,sans-Serif" font-size="10.00">thrill/mem/allocator</text>
<text text-anchor="middle" x="1060" y="-211" font-family="Helvetica,sans-Serif" font-size="10.00">_base.hpp</text>
</a>
</g>
<!-- Node4&#45;&gt;Node5 -->
<g id="edge8" class="edge"><title>Node4&#45;&gt;Node5</title>
<path fill="none" stroke="midnightblue" d="M1060,-281.376C1060,-272.451 1060,-259.293 1060,-247.446"/>
<polygon fill="midnightblue" stroke="midnightblue" points="1063.5,-247.094 1060,-237.094 1056.5,-247.094 1063.5,-247.094"/>
</g>
<!-- Node4&#45;&gt;Node20 -->
<g id="edge90" class="edge"><title>Node4&#45;&gt;Node20</title>
<path fill="none" stroke="midnightblue" d="M1000.76,-290.91C873.094,-287.844 576.157,-276.656 484,-238 415.36,-209.209 415.578,-174.618 356,-130 341.441,-119.097 324.475,-107.816 310.779,-99.0407"/>
<polygon fill="midnightblue" stroke="midnightblue" points="312.628,-96.0687 302.309,-93.6645 308.876,-101.979 312.628,-96.0687"/>
</g>
<!-- Node21 -->
<g id="node41" class="node"><title>Node21</title>
<polygon fill="none" stroke="#bfbfbf" points="2713,-72.5 2713,-93.5 2757,-93.5 2757,-72.5 2713,-72.5"/>
<text text-anchor="middle" x="2735" y="-80.5" font-family="Helvetica,sans-Serif" font-size="10.00">vector</text>
</g>
<!-- Node4&#45;&gt;Node21 -->
<g id="edge94" class="edge"><title>Node4&#45;&gt;Node21</title>
<path fill="none" stroke="midnightblue" d="M1119,-291.093C1356.29,-287.226 2230.49,-270.799 2279,-238 2322.66,-208.475 2285.41,-161.05 2328,-130 2358.13,-108.034 2611.99,-90.5182 2702.83,-84.9007"/>
<polygon fill="midnightblue" stroke="midnightblue" points="2703.06,-88.3931 2712.83,-84.2898 2702.63,-81.4061 2703.06,-88.3931"/>
</g>
<!-- Node4&#45;&gt;Node23 -->
<g id="edge78" class="edge"><title>Node4&#45;&gt;Node23</title>
<path fill="none" stroke="midnightblue" d="M1100.39,-281.406C1132.08,-272.24 1176.74,-257.406 1213,-238 1236.51,-225.417 1236.32,-212.096 1261,-202 1372.64,-156.334 1411.49,-188.472 1530,-166 1537.75,-164.53 1545.92,-162.749 1553.87,-160.888"/>
<polygon fill="midnightblue" stroke="midnightblue" points="1554.87,-164.247 1563.77,-158.504 1553.23,-157.442 1554.87,-164.247"/>
</g>
<!-- Node4&#45;&gt;Node26 -->
<g id="edge80" class="edge"><title>Node4&#45;&gt;Node26</title>
<path fill="none" stroke="midnightblue" d="M1073.81,-281.217C1099.54,-261.754 1157.29,-221.013 1213,-202 1333.41,-160.903 1382.01,-220.45 1497,-166 1518.03,-156.044 1514.1,-140.227 1535,-130 1582.45,-106.778 1737.11,-91.5701 1807.07,-85.7124"/>
<polygon fill="midnightblue" stroke="midnightblue" points="1807.47,-89.1916 1817.15,-84.8844 1806.9,-82.2151 1807.47,-89.1916"/>
</g>
<!-- Node29 -->
<g id="node58" class="node"><title>Node29</title>
<polygon fill="none" stroke="#bfbfbf" points="2120,-72.5 2120,-93.5 2172,-93.5 2172,-72.5 2120,-72.5"/>
<text text-anchor="middle" x="2146" y="-80.5" font-family="Helvetica,sans-Serif" font-size="10.00">memory</text>
</g>
<!-- Node4&#45;&gt;Node29 -->
<g id="edge86" class="edge"><title>Node4&#45;&gt;Node29</title>
<path fill="none" stroke="midnightblue" d="M1096.67,-281.465C1161.31,-263.195 1299.99,-225.353 1419,-202 1530.02,-180.215 1559.18,-183.218 1671,-166 1865.11,-136.11 1915.3,-136.724 2107,-94 2107.9,-93.7991 2108.81,-93.59 2109.73,-93.3739"/>
<polygon fill="midnightblue" stroke="midnightblue" points="2110.83,-96.705 2119.67,-90.8558 2109.11,-89.9194 2110.83,-96.705"/>
</g>
<!-- Node30 -->
<g id="node60" class="node"><title>Node30</title>
<polygon fill="none" stroke="#bfbfbf" points="751,-72.5 751,-93.5 813,-93.5 813,-72.5 751,-72.5"/>
<text text-anchor="middle" x="782" y="-80.5" font-family="Helvetica,sans-Serif" font-size="10.00">type_traits</text>
</g>
<!-- Node4&#45;&gt;Node30 -->
<g id="edge92" class="edge"><title>Node4&#45;&gt;Node30</title>
<path fill="none" stroke="midnightblue" d="M1000.79,-288.774C870.298,-281.271 566.304,-261.487 526,-238 492.119,-218.256 486.894,-203.367 475,-166 470.147,-150.754 464.577,-142.14 475,-130 492.101,-110.081 660.863,-93.2676 740.631,-86.3628"/>
<polygon fill="midnightblue" stroke="midnightblue" points="741.15,-89.8313 750.816,-85.4933 740.554,-82.8567 741.15,-89.8313"/>
</g>
<!-- Node31 -->
<g id="node64" class="node"><title>Node31</title>
<polygon fill="none" stroke="#bfbfbf" points="483.5,-137.5 483.5,-158.5 526.5,-158.5 526.5,-137.5 483.5,-137.5"/>
<text text-anchor="middle" x="505" y="-145.5" font-family="Helvetica,sans-Serif" font-size="10.00">deque</text>
</g>
<!-- Node4&#45;&gt;Node31 -->
<g id="edge82" class="edge"><title>Node4&#45;&gt;Node31</title>
<path fill="none" stroke="midnightblue" d="M1000.92,-288.361C877.685,-280.367 601.576,-260.21 565,-238 538.515,-221.917 521.246,-189.178 512.315,-167.935"/>
<polygon fill="midnightblue" stroke="midnightblue" points="515.535,-166.56 508.597,-158.554 509.027,-169.14 515.535,-166.56"/>
</g>
<!-- Node32 -->
<g id="node66" class="node"><title>Node32</title>
<polygon fill="none" stroke="#bfbfbf" points="671.5,-137.5 671.5,-158.5 716.5,-158.5 716.5,-137.5 671.5,-137.5"/>
<text text-anchor="middle" x="694" y="-145.5" font-family="Helvetica,sans-Serif" font-size="10.00">iosfwd</text>
</g>
<!-- Node4&#45;&gt;Node32 -->
<g id="edge84" class="edge"><title>Node4&#45;&gt;Node32</title>
<path fill="none" stroke="midnightblue" d="M1033.09,-281.411C967.024,-255.419 797.084,-188.558 726.005,-160.592"/>
<polygon fill="midnightblue" stroke="midnightblue" points="727.239,-157.317 716.652,-156.912 724.676,-163.831 727.239,-157.317"/>
</g>
<!-- Node33 -->
<g id="node68" class="node"><title>Node33</title>
<polygon fill="none" stroke="#bfbfbf" points="543.5,-137.5 543.5,-158.5 578.5,-158.5 578.5,-137.5 543.5,-137.5"/>
<text text-anchor="middle" x="561" y="-145.5" font-family="Helvetica,sans-Serif" font-size="10.00">new</text>
</g>
<!-- Node4&#45;&gt;Node33 -->
<g id="edge88" class="edge"><title>Node4&#45;&gt;Node33</title>
<path fill="none" stroke="midnightblue" d="M1000.98,-288.684C882.293,-281.515 623.318,-263.17 592,-238 571.145,-221.239 564.269,-189.681 562.033,-168.746"/>
<polygon fill="midnightblue" stroke="midnightblue" points="565.51,-168.324 561.222,-158.636 558.533,-168.884 565.51,-168.324"/>
</g>
<!-- Node6 -->
<g id="node11" class="node"><title>Node6</title>
<a xlink:href="thrill_2common_2string_8hpp.html" target="_top" xlink:title="thrill/common/string.hpp">
<polygon fill="none" stroke="black" points="999.5,-137.5 999.5,-158.5 1120.5,-158.5 1120.5,-137.5 999.5,-137.5"/>
<text text-anchor="middle" x="1060" y="-145.5" font-family="Helvetica,sans-Serif" font-size="10.00">thrill/common/string.hpp</text>
</a>
</g>
<!-- Node5&#45;&gt;Node6 -->
<g id="edge10" class="edge"><title>Node5&#45;&gt;Node6</title>
<path fill="none" stroke="midnightblue" d="M1060,-202.937C1060,-192.814 1060,-179.898 1060,-169.133"/>
<polygon fill="midnightblue" stroke="midnightblue" points="1063.5,-168.901 1060,-158.901 1056.5,-168.901 1063.5,-168.901"/>
</g>
<!-- Node5&#45;&gt;Node20 -->
<g id="edge72" class="edge"><title>Node5&#45;&gt;Node20</title>
<path fill="none" stroke="midnightblue" d="M1010.14,-216.676C917.856,-209.958 724.237,-193.061 663,-166 640.202,-155.925 642.777,-140.122 620,-130 565.762,-105.895 388.337,-90.5552 316.06,-85.166"/>
<polygon fill="midnightblue" stroke="midnightblue" points="316.02,-81.6538 305.791,-84.4148 315.509,-88.6351 316.02,-81.6538"/>
</g>
<!-- Node5&#45;&gt;Node21 -->
<g id="edge76" class="edge"><title>Node5&#45;&gt;Node21</title>
<path fill="none" stroke="midnightblue" d="M1109.55,-216.156C1213.64,-207.964 1462.61,-187.748 1671,-166 1804.13,-152.106 1836.7,-142.109 1970,-130 2253.46,-104.25 2597.32,-88.7178 2702.74,-84.3058"/>
<polygon fill="midnightblue" stroke="midnightblue" points="2702.9,-87.8023 2712.75,-83.8907 2702.61,-80.8084 2702.9,-87.8023"/>
</g>
<!-- Node22 -->
<g id="node43" class="node"><title>Node22</title>
<a xlink:href="malloc__tracker_8hpp.html" target="_top" xlink:title="thrill/mem/malloc_tracker.hpp">
<polygon fill="none" stroke="black" points="1213.5,-137.5 1213.5,-158.5 1358.5,-158.5 1358.5,-137.5 1213.5,-137.5"/>
<text text-anchor="middle" x="1286" y="-145.5" font-family="Helvetica,sans-Serif" font-size="10.00">thrill/mem/malloc_tracker.hpp</text>
</a>
</g>
<!-- Node5&#45;&gt;Node22 -->
<g id="edge42" class="edge"><title>Node5&#45;&gt;Node22</title>
<path fill="none" stroke="midnightblue" d="M1109.6,-204.199C1149.55,-191.469 1205.15,-173.757 1243.18,-161.64"/>
<polygon fill="midnightblue" stroke="midnightblue" points="1244.47,-164.904 1252.94,-158.534 1242.35,-158.234 1244.47,-164.904"/>
</g>
<!-- Node5&#45;&gt;Node23 -->
<g id="edge46" class="edge"><title>Node5&#45;&gt;Node23</title>
<path fill="none" stroke="midnightblue" d="M1109.58,-214.614C1190.72,-205.632 1356.88,-186.543 1497,-166 1508.9,-164.255 1521.53,-162.247 1533.77,-160.22"/>
<polygon fill="midnightblue" stroke="midnightblue" points="1534.64,-163.623 1543.93,-158.518 1533.49,-156.719 1534.64,-163.623"/>
</g>
<!-- Node25 -->
<g id="node50" class="node"><title>Node25</title>
<polygon fill="none" stroke="#bfbfbf" points="873,-72.5 873,-93.5 919,-93.5 919,-72.5 873,-72.5"/>
<text text-anchor="middle" x="896" y="-80.5" font-family="Helvetica,sans-Serif" font-size="10.00">atomic</text>
</g>
<!-- Node5&#45;&gt;Node25 -->
<g id="edge62" class="edge"><title>Node5&#45;&gt;Node25</title>
<path fill="none" stroke="midnightblue" d="M1010.17,-211.668C963.073,-202.657 897.39,-186.751 882,-166 868.412,-147.678 876.599,-120.842 885.059,-102.685"/>
<polygon fill="midnightblue" stroke="midnightblue" points="888.263,-104.105 889.651,-93.6008 882.016,-100.947 888.263,-104.105"/>
</g>
<!-- Node5&#45;&gt;Node26 -->
<g id="edge64" class="edge"><title>Node5&#45;&gt;Node26</title>
<path fill="none" stroke="midnightblue" d="M1080.47,-202.754C1107.18,-181.385 1156.26,-145.86 1205,-130 1219.44,-125.302 1675.72,-94.2209 1806.99,-85.3562"/>
<polygon fill="midnightblue" stroke="midnightblue" points="1807.54,-88.8277 1817.28,-84.6624 1807.07,-81.8436 1807.54,-88.8277"/>
</g>
<!-- Node27 -->
<g id="node54" class="node"><title>Node27</title>
<a xlink:href="extlib_2tlx_2tlx_2allocator__base_8hpp.html" target="_top" xlink:title="tlx/allocator_base.hpp">
<polygon fill="none" stroke="black" points="1376,-137.5 1376,-158.5 1488,-158.5 1488,-137.5 1376,-137.5"/>
<text text-anchor="middle" x="1432" y="-145.5" font-family="Helvetica,sans-Serif" font-size="10.00">tlx/allocator_base.hpp</text>
</a>
</g>
<!-- Node5&#45;&gt;Node27 -->
<g id="edge54" class="edge"><title>Node5&#45;&gt;Node27</title>
<path fill="none" stroke="midnightblue" d="M1109.74,-212.756C1170.7,-203.532 1277,-186.328 1367,-166 1373.3,-164.578 1379.89,-162.934 1386.37,-161.229"/>
<polygon fill="midnightblue" stroke="midnightblue" points="1387.65,-164.509 1396.4,-158.523 1385.83,-157.751 1387.65,-164.509"/>
</g>
<!-- Node5&#45;&gt;Node30 -->
<g id="edge74" class="edge"><title>Node5&#45;&gt;Node30</title>
<path fill="none" stroke="midnightblue" d="M1010.29,-218.209C935.165,-214.34 798.253,-202.361 768,-166 753.264,-148.289 761.989,-120.911 770.867,-102.492"/>
<polygon fill="midnightblue" stroke="midnightblue" points="774.016,-104.023 775.533,-93.5368 767.808,-100.788 774.016,-104.023"/>
</g>
<!-- Node5&#45;&gt;Node31 -->
<g id="edge66" class="edge"><title>Node5&#45;&gt;Node31</title>
<path fill="none" stroke="midnightblue" d="M1010.24,-217.644C896.869,-211.832 622.477,-195.13 535,-166 532.846,-165.283 530.682,-164.391 528.556,-163.392"/>
<polygon fill="midnightblue" stroke="midnightblue" points="530.088,-160.241 519.634,-158.523 526.735,-166.386 530.088,-160.241"/>
</g>
<!-- Node5&#45;&gt;Node32 -->
<g id="edge68" class="edge"><title>Node5&#45;&gt;Node32</title>
<path fill="none" stroke="midnightblue" d="M1010.26,-216.548C944.699,-210.947 826.384,-197.185 730,-166 727.258,-165.113 724.464,-164.044 721.708,-162.875"/>
<polygon fill="midnightblue" stroke="midnightblue" points="723.147,-159.685 712.604,-158.636 720.192,-166.03 723.147,-159.685"/>
</g>
<!-- Node5&#45;&gt;Node33 -->
<g id="edge70" class="edge"><title>Node5&#45;&gt;Node33</title>
<path fill="none" stroke="midnightblue" d="M1010.34,-215.882C929.935,-208.742 766.501,-192.26 630,-166 616.228,-163.351 601.134,-159.521 588.584,-156.075"/>
<polygon fill="midnightblue" stroke="midnightblue" points="589.299,-152.641 578.725,-153.305 587.405,-159.38 589.299,-152.641"/>
</g>
<!-- Node7 -->
<g id="node13" class="node"><title>Node7</title>
<a xlink:href="define_8hpp.html" target="_top" xlink:title="tlx/define.hpp">
<polygon fill="none" stroke="black" points="1079.5,-72.5 1079.5,-93.5 1154.5,-93.5 1154.5,-72.5 1079.5,-72.5"/>
<text text-anchor="middle" x="1117" y="-80.5" font-family="Helvetica,sans-Serif" font-size="10.00">tlx/define.hpp</text>
</a>
</g>
<!-- Node6&#45;&gt;Node7 -->
<g id="edge12" class="edge"><title>Node6&#45;&gt;Node7</title>
<path fill="none" stroke="midnightblue" d="M1069.41,-137.267C1077.96,-127.517 1090.75,-112.932 1100.92,-101.336"/>
<polygon fill="midnightblue" stroke="midnightblue" points="1103.8,-103.36 1107.76,-93.5337 1098.54,-98.7447 1103.8,-103.36"/>
</g>
<!-- Node13 -->
<g id="node25" class="node"><title>Node13</title>
<a xlink:href="unused_8hpp.html" target="_top" xlink:title="tlx/unused.hpp">
<polygon fill="none" stroke="black" points="1172,-72.5 1172,-93.5 1252,-93.5 1252,-72.5 1172,-72.5"/>
<text text-anchor="middle" x="1212" y="-80.5" font-family="Helvetica,sans-Serif" font-size="10.00">tlx/unused.hpp</text>
</a>
</g>
<!-- Node6&#45;&gt;Node13 -->
<g id="edge24" class="edge"><title>Node6&#45;&gt;Node13</title>
<path fill="none" stroke="midnightblue" d="M1084.76,-137.412C1110.04,-126.6 1149.49,-109.731 1177.76,-97.6422"/>
<polygon fill="midnightblue" stroke="midnightblue" points="1179.43,-100.734 1187.25,-93.5835 1176.68,-94.2974 1179.43,-100.734"/>
</g>
<!-- Node14 -->
<g id="node27" class="node"><title>Node14</title>
<polygon fill="none" stroke="#bfbfbf" points="2775,-72.5 2775,-93.5 2813,-93.5 2813,-72.5 2775,-72.5"/>
<text text-anchor="middle" x="2794" y="-80.5" font-family="Helvetica,sans-Serif" font-size="10.00">array</text>
</g>
<!-- Node6&#45;&gt;Node14 -->
<g id="edge26" class="edge"><title>Node6&#45;&gt;Node14</title>
<path fill="none" stroke="midnightblue" d="M1120.54,-139.108C1146.49,-135.654 1177.17,-132.043 1205,-130 1547.84,-104.831 2409.66,-161.424 2765.14,-93.4319"/>
<polygon fill="midnightblue" stroke="midnightblue" points="2765.86,-96.8577 2774.99,-91.4889 2764.5,-89.99 2765.86,-96.8577"/>
</g>
<!-- Node15 -->
<g id="node29" class="node"><title>Node15</title>
<polygon fill="none" stroke="#bfbfbf" points="955.5,-72.5 955.5,-93.5 1004.5,-93.5 1004.5,-72.5 955.5,-72.5"/>
<text text-anchor="middle" x="980" y="-80.5" font-family="Helvetica,sans-Serif" font-size="10.00">cstdarg</text>
</g>
<!-- Node6&#45;&gt;Node15 -->
<g id="edge28" class="edge"><title>Node6&#45;&gt;Node15</title>
<path fill="none" stroke="midnightblue" d="M1046.79,-137.267C1034.32,-127.139 1015.44,-111.792 1000.92,-99.9995"/>
<polygon fill="midnightblue" stroke="midnightblue" points="1002.93,-97.1233 992.965,-93.5337 998.519,-102.556 1002.93,-97.1233"/>
</g>
<!-- Node16 -->
<g id="node31" class="node"><title>Node16</title>
<polygon fill="none" stroke="#bfbfbf" points="1987.5,-72.5 1987.5,-93.5 2032.5,-93.5 2032.5,-72.5 1987.5,-72.5"/>
<text text-anchor="middle" x="2010" y="-80.5" font-family="Helvetica,sans-Serif" font-size="10.00">cstdlib</text>
</g>
<!-- Node6&#45;&gt;Node16 -->
<g id="edge30" class="edge"><title>Node6&#45;&gt;Node16</title>
<path fill="none" stroke="midnightblue" d="M1120.57,-139.523C1146.53,-136.139 1177.21,-132.469 1205,-130 1502.04,-103.615 1577.47,-114.111 1875,-94 1909.8,-91.648 1949.59,-88.3292 1976.9,-85.9532"/>
<polygon fill="midnightblue" stroke="midnightblue" points="1977.43,-89.4209 1987.08,-85.0613 1976.82,-82.4477 1977.43,-89.4209"/>
</g>
<!-- Node17 -->
<g id="node33" class="node"><title>Node17</title>
<polygon fill="none" stroke="#bfbfbf" points="1022,-72.5 1022,-93.5 1062,-93.5 1062,-72.5 1022,-72.5"/>
<text text-anchor="middle" x="1042" y="-80.5" font-family="Helvetica,sans-Serif" font-size="10.00">limits</text>
</g>
<!-- Node6&#45;&gt;Node17 -->
<g id="edge32" class="edge"><title>Node6&#45;&gt;Node17</title>
<path fill="none" stroke="midnightblue" d="M1057.03,-137.267C1054.49,-128.085 1050.75,-114.615 1047.65,-103.392"/>
<polygon fill="midnightblue" stroke="midnightblue" points="1050.96,-102.237 1044.92,-93.5337 1044.21,-104.105 1050.96,-102.237"/>
</g>
<!-- Node18 -->
<g id="node35" class="node"><title>Node18</title>
<polygon fill="none" stroke="#bfbfbf" points="1361.5,-72.5 1361.5,-93.5 1410.5,-93.5 1410.5,-72.5 1361.5,-72.5"/>
<text text-anchor="middle" x="1386" y="-80.5" font-family="Helvetica,sans-Serif" font-size="10.00">random</text>
</g>
<!-- Node6&#45;&gt;Node18 -->
<g id="edge34" class="edge"><title>Node6&#45;&gt;Node18</title>
<path fill="none" stroke="midnightblue" d="M1101.78,-137.418C1112.28,-134.876 1123.53,-132.248 1134,-130 1211.23,-113.419 1302.49,-97.2388 1351.21,-88.873"/>
<polygon fill="midnightblue" stroke="midnightblue" points="1351.96,-92.2959 1361.23,-87.1606 1350.78,-85.396 1351.96,-92.2959"/>
</g>
<!-- Node6&#45;&gt;Node19 -->
<g id="edge36" class="edge"><title>Node6&#45;&gt;Node19</title>
<path fill="none" stroke="midnightblue" d="M1098.57,-137.495C1109.91,-134.711 1122.39,-131.943 1134,-130 1307.41,-100.967 1517.67,-88.5836 1600.74,-84.577"/>
<polygon fill="midnightblue" stroke="midnightblue" points="1601.09,-88.0644 1610.91,-84.0978 1600.76,-81.0722 1601.09,-88.0644"/>
</g>
<!-- Node6&#45;&gt;Node20 -->
<g id="edge38" class="edge"><title>Node6&#45;&gt;Node20</title>
<path fill="none" stroke="midnightblue" d="M1022.22,-137.488C1010.68,-134.635 997.892,-131.831 986,-130 853.752,-109.637 433.297,-89.6557 315.778,-84.3586"/>
<polygon fill="midnightblue" stroke="midnightblue" points="315.822,-80.8572 305.675,-83.9059 315.509,-87.8502 315.822,-80.8572"/>
</g>
<!-- Node6&#45;&gt;Node21 -->
<g id="edge40" class="edge"><title>Node6&#45;&gt;Node21</title>
<path fill="none" stroke="midnightblue" d="M1120.55,-139.211C1146.5,-135.775 1177.18,-132.149 1205,-130 1511.04,-106.355 2510.6,-87.1122 2702.85,-83.5803"/>
<polygon fill="midnightblue" stroke="midnightblue" points="2702.94,-87.0793 2712.88,-83.3969 2702.82,-80.0805 2702.94,-87.0793"/>
</g>
<!-- Node8 -->
<g id="node15" class="node"><title>Node8</title>
<a xlink:href="attribute__always__inline_8hpp.html" target="_top" xlink:title="tlx/define/attribute\l_always_inline.hpp">
<polygon fill="none" stroke="black" points="841.5,-1 841.5,-35 940.5,-35 940.5,-1 841.5,-1"/>
<text text-anchor="start" x="849.5" y="-22" font-family="Helvetica,sans-Serif" font-size="10.00">tlx/define/attribute</text>
<text text-anchor="middle" x="891" y="-9" font-family="Helvetica,sans-Serif" font-size="10.00">_always_inline.hpp</text>
</a>
</g>
<!-- Node7&#45;&gt;Node8 -->
<g id="edge14" class="edge"><title>Node7&#45;&gt;Node8</title>
<path fill="none" stroke="midnightblue" d="M1079.21,-72.7557C1047.17,-63.9958 999.765,-50.8644 950.244,-36.3341"/>
<polygon fill="midnightblue" stroke="midnightblue" points="951.228,-32.9753 940.646,-33.5081 949.25,-39.6903 951.228,-32.9753"/>
</g>
<!-- Node9 -->
<g id="node17" class="node"><title>Node9</title>
<a xlink:href="attribute__format__printf_8hpp.html" target="_top" xlink:title="tlx/define/attribute\l_format_printf.hpp">
<polygon fill="none" stroke="black" points="957.5,-1 957.5,-35 1052.5,-35 1052.5,-1 957.5,-1"/>
<text text-anchor="start" x="965.5" y="-22" font-family="Helvetica,sans-Serif" font-size="10.00">tlx/define/attribute</text>
<text text-anchor="middle" x="1005" y="-9" font-family="Helvetica,sans-Serif" font-size="10.00">_format_printf.hpp</text>
</a>
</g>
<!-- Node7&#45;&gt;Node9 -->
<g id="edge16" class="edge"><title>Node7&#45;&gt;Node9</title>
<path fill="none" stroke="midnightblue" d="M1098.51,-72.2666C1083.56,-63.5901 1062,-51.083 1043.36,-40.2622"/>
<polygon fill="midnightblue" stroke="midnightblue" points="1044.89,-37.1023 1034.48,-35.1099 1041.37,-43.1565 1044.89,-37.1023"/>
</g>
<!-- Node10 -->
<g id="node19" class="node"><title>Node10</title>
<a xlink:href="attribute__packed_8hpp.html" target="_top" xlink:title="tlx/define/attribute\l_packed.hpp">
<polygon fill="none" stroke="black" points="1069.5,-1 1069.5,-35 1164.5,-35 1164.5,-1 1069.5,-1"/>
<text text-anchor="start" x="1077.5" y="-22" font-family="Helvetica,sans-Serif" font-size="10.00">tlx/define/attribute</text>
<text text-anchor="middle" x="1117" y="-9" font-family="Helvetica,sans-Serif" font-size="10.00">_packed.hpp</text>
</a>
</g>
<!-- Node7&#45;&gt;Node10 -->
<g id="edge18" class="edge"><title>Node7&#45;&gt;Node10</title>
<path fill="none" stroke="midnightblue" d="M1117,-72.2666C1117,-64.931 1117,-54.8573 1117,-45.3796"/>
<polygon fill="midnightblue" stroke="midnightblue" points="1120.5,-45.1098 1117,-35.1099 1113.5,-45.1099 1120.5,-45.1098"/>
</g>
<!-- Node11 -->
<g id="node21" class="node"><title>Node11</title>
<a xlink:href="attribute__warn__unused__result_8hpp.html" target="_top" xlink:title="tlx/define/attribute\l_warn_unused_result.hpp">
<polygon fill="none" stroke="black" points="1182,-1 1182,-35 1310,-35 1310,-1 1182,-1"/>
<text text-anchor="start" x="1190" y="-22" font-family="Helvetica,sans-Serif" font-size="10.00">tlx/define/attribute</text>
<text text-anchor="middle" x="1246" y="-9" font-family="Helvetica,sans-Serif" font-size="10.00">_warn_unused_result.hpp</text>
</a>
</g>
<!-- Node7&#45;&gt;Node11 -->
<g id="edge20" class="edge"><title>Node7&#45;&gt;Node11</title>
<path fill="none" stroke="midnightblue" d="M1138.01,-72.412C1155.5,-63.5984 1180.98,-50.7606 1202.8,-39.768"/>
<polygon fill="midnightblue" stroke="midnightblue" points="1204.54,-42.8124 1211.89,-35.1869 1201.39,-36.5612 1204.54,-42.8124"/>
</g>
<!-- Node12 -->
<g id="node23" class="node"><title>Node12</title>
<a xlink:href="likely_8hpp.html" target="_top" xlink:title="tlx/define/likely.hpp">
<polygon fill="none" stroke="black" points="1327.5,-7.5 1327.5,-28.5 1428.5,-28.5 1428.5,-7.5 1327.5,-7.5"/>
<text text-anchor="middle" x="1378" y="-15.5" font-family="Helvetica,sans-Serif" font-size="10.00">tlx/define/likely.hpp</text>
</a>
</g>
<!-- Node7&#45;&gt;Node12 -->
<g id="edge22" class="edge"><title>Node7&#45;&gt;Node12</title>
<path fill="none" stroke="midnightblue" d="M1154.65,-73.9711C1157.47,-73.3015 1160.28,-72.6385 1163,-72 1232.27,-55.7254 1250.26,-54.3929 1319,-36 1324.24,-34.5986 1329.71,-33.0476 1335.12,-31.4608"/>
<polygon fill="midnightblue" stroke="midnightblue" points="1336.15,-34.8066 1344.73,-28.5909 1334.15,-28.0994 1336.15,-34.8066"/>
</g>
<!-- Node22&#45;&gt;Node16 -->
<g id="edge44" class="edge"><title>Node22&#45;&gt;Node16</title>
<path fill="none" stroke="midnightblue" d="M1327.82,-137.468C1340.35,-134.649 1354.17,-131.87 1367,-130 1590.98,-97.3603 1649.31,-111.191 1875,-94 1909.78,-91.3511 1949.57,-88.0794 1976.89,-85.7956"/>
<polygon fill="midnightblue" stroke="midnightblue" points="1977.4,-89.2653 1987.07,-84.9421 1976.82,-82.2898 1977.4,-89.2653"/>
</g>
<!-- Node24 -->
<g id="node48" class="node"><title>Node24</title>
<polygon fill="none" stroke="#bfbfbf" points="3117,-72.5 3117,-93.5 3173,-93.5 3173,-72.5 3117,-72.5"/>
<text text-anchor="middle" x="3145" y="-80.5" font-family="Helvetica,sans-Serif" font-size="10.00">algorithm</text>
</g>
<!-- Node23&#45;&gt;Node24 -->
<g id="edge48" class="edge"><title>Node23&#45;&gt;Node24</title>
<path fill="none" stroke="midnightblue" d="M1662.92,-146.274C1925.79,-138.65 2969.7,-107.806 3106.76,-93.4509"/>
<polygon fill="midnightblue" stroke="midnightblue" points="3107.41,-96.8954 3116.89,-92.1559 3106.53,-89.9518 3107.41,-96.8954"/>
</g>
<!-- Node23&#45;&gt;Node25 -->
<g id="edge50" class="edge"><title>Node23&#45;&gt;Node25</title>
<path fill="none" stroke="midnightblue" d="M1547.59,-137.485C1531.34,-134.701 1513.5,-131.936 1497,-130 1253.7,-101.457 1189.61,-127.916 947,-94 941.281,-93.2005 935.248,-92.1171 929.412,-90.9407"/>
<polygon fill="midnightblue" stroke="midnightblue" points="929.74,-87.4319 919.229,-88.7641 928.277,-94.2772 929.74,-87.4319"/>
</g>
<!-- Node23&#45;&gt;Node26 -->
<g id="edge52" class="edge"><title>Node23&#45;&gt;Node26</title>
<path fill="none" stroke="midnightblue" d="M1641.67,-137.484C1687.63,-124.984 1763.62,-104.316 1807.62,-92.3507"/>
<polygon fill="midnightblue" stroke="midnightblue" points="1808.56,-95.7229 1817.29,-89.7212 1806.72,-88.9683 1808.56,-95.7229"/>
</g>
<!-- Node28 -->
<g id="node56" class="node"><title>Node28</title>
<polygon fill="none" stroke="#bfbfbf" points="2049.5,-72.5 2049.5,-93.5 2098.5,-93.5 2098.5,-72.5 2049.5,-72.5"/>
<text text-anchor="middle" x="2074" y="-80.5" font-family="Helvetica,sans-Serif" font-size="10.00">cstddef</text>
</g>
<!-- Node27&#45;&gt;Node28 -->
<g id="edge56" class="edge"><title>Node27&#45;&gt;Node28</title>
<path fill="none" stroke="midnightblue" d="M1486.1,-137.478C1501.82,-134.71 1519.05,-131.955 1535,-130 1755.5,-102.96 1818.05,-136.969 2039.34,-93.9385"/>
<polygon fill="midnightblue" stroke="midnightblue" points="2040.18,-97.3396 2049.31,-91.9679 2038.83,-90.4723 2040.18,-97.3396"/>
</g>
<!-- Node27&#45;&gt;Node29 -->
<g id="edge58" class="edge"><title>Node27&#45;&gt;Node29</title>
<path fill="none" stroke="midnightblue" d="M1485.56,-137.488C1501.42,-134.687 1518.87,-131.912 1535,-130 1787.96,-100.029 1855.9,-136.814 2107,-94 2107.91,-93.8448 2108.83,-93.6766 2109.75,-93.4972"/>
<polygon fill="midnightblue" stroke="midnightblue" points="2110.77,-96.8563 2119.74,-91.2229 2109.21,-90.0311 2110.77,-96.8563"/>
</g>
<!-- Node27&#45;&gt;Node30 -->
<g id="edge60" class="edge"><title>Node27&#45;&gt;Node30</title>
<path fill="none" stroke="midnightblue" d="M1398.89,-137.464C1388.75,-134.609 1377.5,-131.811 1367,-130 1146.13,-91.9047 1086.95,-116.91 864,-94 850.696,-92.6329 836.222,-90.8051 823.19,-89.0326"/>
<polygon fill="midnightblue" stroke="midnightblue" points="823.483,-85.5399 813.097,-87.6328 822.521,-92.4735 823.483,-85.5399"/>
</g>
<!-- Node34&#45;&gt;Node5 -->
<g id="edge100" class="edge"><title>Node34&#45;&gt;Node5</title>
<path fill="none" stroke="midnightblue" d="M2186.15,-281.475C2176.95,-278.547 2166.66,-275.706 2157,-274 1833.62,-216.879 1746.99,-254.222 1419,-238 1313.7,-232.792 1191.04,-226.619 1119.78,-223.022"/>
<polygon fill="midnightblue" stroke="midnightblue" points="1119.82,-219.52 1109.65,-222.511 1119.46,-226.511 1119.82,-219.52"/>
</g>
<!-- Node34&#45;&gt;Node20 -->
<g id="edge112" class="edge"><title>Node34&#45;&gt;Node20</title>
<path fill="none" stroke="midnightblue" d="M2186.46,-281.466C2177.19,-278.5 2166.77,-275.638 2157,-274 1650.48,-189.116 1512.55,-293.731 1002,-238 830.253,-219.252 770.986,-249.975 620,-166 601.031,-155.45 606.135,-140.246 587,-130 540.363,-105.027 383.157,-90.4427 315.921,-85.2144"/>
<polygon fill="midnightblue" stroke="midnightblue" points="315.799,-81.6951 305.563,-84.428 315.269,-88.675 315.799,-81.6951"/>
</g>
<!-- Node34&#45;&gt;Node21 -->
<g id="edge118" class="edge"><title>Node34&#45;&gt;Node21</title>
<path fill="none" stroke="midnightblue" d="M2245.28,-281.459C2266.46,-272.724 2294.06,-258.416 2312,-238 2346.1,-199.188 2314.11,-161.573 2355,-130 2382.37,-108.868 2616.28,-91.0387 2702.91,-85.1033"/>
<polygon fill="midnightblue" stroke="midnightblue" points="2703.21,-88.5908 2712.95,-84.4233 2702.74,-81.6068 2703.21,-88.5908"/>
</g>
<!-- Node34&#45;&gt;Node24 -->
<g id="edge102" class="edge"><title>Node34&#45;&gt;Node24</title>
<path fill="none" stroke="midnightblue" d="M2264.57,-289.069C2424.02,-278.958 2921.42,-241.916 3061,-166 3080.07,-155.629 3078.67,-145.368 3094,-130 3104.1,-119.876 3115.8,-109.031 3125.45,-100.313"/>
<polygon fill="midnightblue" stroke="midnightblue" points="3127.88,-102.834 3132.99,-93.5521 3123.21,-97.6226 3127.88,-102.834"/>
</g>
<!-- Node34&#45;&gt;Node28 -->
<g id="edge104" class="edge"><title>Node34&#45;&gt;Node28</title>
<path fill="none" stroke="midnightblue" d="M2181.25,-281.389C2141.33,-268.504 2079.44,-247.337 2073,-238 2044.99,-197.375 2057.62,-135.418 2067.04,-103.535"/>
<polygon fill="midnightblue" stroke="midnightblue" points="2070.51,-104.186 2070.17,-93.5966 2063.83,-102.085 2070.51,-104.186"/>
</g>
<!-- Node34&#45;&gt;Node29 -->
<g id="edge108" class="edge"><title>Node34&#45;&gt;Node29</title>
<path fill="none" stroke="midnightblue" d="M2204.79,-281.355C2195.54,-271.086 2182.28,-254.683 2175,-238 2155.3,-192.83 2148.97,-134.549 2146.94,-103.927"/>
<polygon fill="midnightblue" stroke="midnightblue" points="2150.42,-103.415 2146.36,-93.6297 2143.43,-103.812 2150.42,-103.415"/>
</g>
<!-- Node34&#45;&gt;Node30 -->
<g id="edge114" class="edge"><title>Node34&#45;&gt;Node30</title>
<path fill="none" stroke="midnightblue" d="M2183.91,-281.486C2175.27,-278.799 2165.82,-276.084 2157,-274 1965,-228.655 1915.24,-222.245 1719,-202 1625.74,-192.379 962.959,-201.036 876,-166 842.429,-152.474 812.817,-121.512 796.181,-101.464"/>
<polygon fill="midnightblue" stroke="midnightblue" points="798.868,-99.2202 789.872,-93.6234 793.414,-103.609 798.868,-99.2202"/>
</g>
<!-- Node35 -->
<g id="node84" class="node"><title>Node35</title>
<a xlink:href="config_8hpp.html" target="_top" xlink:title="thrill/common/config.hpp">
<polygon fill="none" stroke="black" points="1587.5,-209.5 1587.5,-230.5 1710.5,-230.5 1710.5,-209.5 1587.5,-209.5"/>
<text text-anchor="middle" x="1649" y="-217.5" font-family="Helvetica,sans-Serif" font-size="10.00">thrill/common/config.hpp</text>
</a>
</g>
<!-- Node34&#45;&gt;Node35 -->
<g id="edge98" class="edge"><title>Node34&#45;&gt;Node35</title>
<path fill="none" stroke="midnightblue" d="M2185.21,-281.44C2176.24,-278.62 2166.31,-275.847 2157,-274 1984.09,-239.686 1936.92,-259.878 1762,-238 1748.44,-236.304 1734,-234.219 1720.15,-232.077"/>
<polygon fill="midnightblue" stroke="midnightblue" points="1720.6,-228.606 1710.18,-230.513 1719.51,-235.521 1720.6,-228.606"/>
</g>
<!-- Node36 -->
<g id="node89" class="node"><title>Node36</title>
<polygon fill="none" stroke="#bfbfbf" points="2082,-209.5 2082,-230.5 2128,-230.5 2128,-209.5 2082,-209.5"/>
<text text-anchor="middle" x="2105" y="-217.5" font-family="Helvetica,sans-Serif" font-size="10.00">cstdint</text>
</g>
<!-- Node34&#45;&gt;Node36 -->
<g id="edge106" class="edge"><title>Node34&#45;&gt;Node36</title>
<path fill="none" stroke="midnightblue" d="M2198.77,-281.376C2180.57,-269.465 2150.85,-250.013 2129.75,-236.202"/>
<polygon fill="midnightblue" stroke="midnightblue" points="2131.58,-233.216 2121.3,-230.667 2127.75,-239.073 2131.58,-233.216"/>
</g>
<!-- Node37 -->
<g id="node92" class="node"><title>Node37</title>
<polygon fill="none" stroke="#bfbfbf" points="3229,-72.5 3229,-93.5 3273,-93.5 3273,-72.5 3229,-72.5"/>
<text text-anchor="middle" x="3251" y="-80.5" font-family="Helvetica,sans-Serif" font-size="10.00">mutex</text>
</g>
<!-- Node34&#45;&gt;Node37 -->
<g id="edge110" class="edge"><title>Node34&#45;&gt;Node37</title>
<path fill="none" stroke="midnightblue" d="M2264.56,-289.602C2398.21,-282.88 2763.88,-262.717 2882,-238 2978.16,-217.878 3000.71,-204.724 3091,-166 3138.96,-145.433 3192.32,-116.444 3223.7,-98.7309"/>
<polygon fill="midnightblue" stroke="midnightblue" points="3225.74,-101.6 3232.71,-93.6176 3222.28,-95.5128 3225.74,-101.6"/>
</g>
<!-- Node38 -->
<g id="node96" class="node"><title>Node38</title>
<polygon fill="none" stroke="#bfbfbf" points="2364,-137.5 2364,-158.5 2404,-158.5 2404,-137.5 2364,-137.5"/>
<text text-anchor="middle" x="2384" y="-145.5" font-family="Helvetica,sans-Serif" font-size="10.00">utility</text>
</g>
<!-- Node34&#45;&gt;Node38 -->
<g id="edge116" class="edge"><title>Node34&#45;&gt;Node38</title>
<path fill="none" stroke="midnightblue" d="M2264.55,-282.57C2292.83,-274.882 2327.11,-261.337 2350,-238 2368.65,-218.985 2377.26,-188.736 2381.1,-168.628"/>
<polygon fill="midnightblue" stroke="midnightblue" points="2384.57,-169.077 2382.77,-158.636 2377.67,-167.919 2384.57,-169.077"/>
</g>
<!-- Node39&#45;&gt;Node20 -->
<g id="edge214" class="edge"><title>Node39&#45;&gt;Node20</title>
<path fill="none" stroke="midnightblue" d="M1695.34,-538.743C1430.76,-512.195 415.737,-408.989 353,-382 307.208,-362.301 291.746,-353.273 267,-310 227.248,-240.485 236.839,-206.952 259,-130 261.812,-120.234 266.942,-110.265 271.907,-102.036"/>
<polygon fill="midnightblue" stroke="midnightblue" points="274.871,-103.898 277.309,-93.5876 268.973,-100.127 274.871,-103.898"/>
</g>
<!-- Node39&#45;&gt;Node21 -->
<g id="edge216" class="edge"><title>Node39&#45;&gt;Node21</title>
<path fill="none" stroke="midnightblue" d="M1820.53,-541.821C1978.57,-532.915 2389.95,-504.063 2509,-440 2579,-402.328 2714.54,-241.641 2739,-166 2745.63,-145.507 2743.16,-120.687 2739.96,-103.557"/>
<polygon fill="midnightblue" stroke="midnightblue" points="2743.33,-102.591 2737.83,-93.5339 2736.48,-104.042 2743.33,-102.591"/>
</g>
<!-- Node39&#45;&gt;Node34 -->
<g id="edge210" class="edge"><title>Node39&#45;&gt;Node34</title>
<path fill="none" stroke="midnightblue" d="M1798.06,-534.426C1850.09,-520.737 1943.74,-496.237 2024,-476 2089.22,-459.555 2108.11,-463.865 2171,-440 2222.67,-420.391 2252.45,-429.325 2281,-382 2289.26,-368.3 2287.85,-360.459 2281,-346 2273.41,-329.977 2258.47,-317.127 2244.73,-307.989"/>
<polygon fill="midnightblue" stroke="midnightblue" points="2246.3,-304.841 2235.96,-302.523 2242.59,-310.782 2246.3,-304.841"/>
</g>
<!-- Node40 -->
<g id="node103" class="node"><title>Node40</title>
<a xlink:href="bid_8hpp.html" target="_top" xlink:title="thrill/io/bid.hpp">
<polygon fill="none" stroke="black" points="1749,-418.5 1749,-439.5 1829,-439.5 1829,-418.5 1749,-418.5"/>
<text text-anchor="middle" x="1789" y="-426.5" font-family="Helvetica,sans-Serif" font-size="10.00">thrill/io/bid.hpp</text>
</a>
</g>
<!-- Node39&#45;&gt;Node40 -->
<g id="edge126" class="edge"><title>Node39&#45;&gt;Node40</title>
<path fill="none" stroke="midnightblue" d="M1760.86,-534.295C1766.01,-515.045 1776.9,-474.289 1783.52,-449.509"/>
<polygon fill="midnightblue" stroke="midnightblue" points="1786.95,-450.244 1786.15,-439.679 1780.18,-448.437 1786.95,-450.244"/>
</g>
<!-- Node43 -->
<g id="node110" class="node"><title>Node43</title>
<a xlink:href="file__base_8hpp.html" target="_top" xlink:title="thrill/io/file_base.hpp">
<polygon fill="none" stroke="black" points="1534,-476.5 1534,-497.5 1640,-497.5 1640,-476.5 1534,-476.5"/>
<text text-anchor="middle" x="1587" y="-484.5" font-family="Helvetica,sans-Serif" font-size="10.00">thrill/io/file_base.hpp</text>
</a>
</g>
<!-- Node39&#45;&gt;Node43 -->
<g id="edge134" class="edge"><title>Node39&#45;&gt;Node43</title>
<path fill="none" stroke="midnightblue" d="M1727.03,-534.497C1699.16,-525.041 1658,-511.083 1627.52,-500.743"/>
<polygon fill="midnightblue" stroke="midnightblue" points="1628.62,-497.421 1618.02,-497.523 1626.37,-504.05 1628.62,-497.421"/>
</g>
<!-- Node39&#45;&gt;Node50 -->
<g id="edge212" class="edge"><title>Node39&#45;&gt;Node50</title>
<path fill="none" stroke="midnightblue" d="M1695.33,-537.757C1636.12,-529.965 1552.42,-516.198 1525,-498 1494.08,-477.482 1478,-466.105 1478,-429 1478,-429 1478,-429 1478,-364 1478,-320.273 1478.47,-269.08 1478.76,-241.033"/>
<polygon fill="midnightblue" stroke="midnightblue" points="1482.26,-240.876 1478.87,-230.838 1475.26,-240.8 1482.26,-240.876"/>
</g>
<!-- Node40&#45;&gt;Node21 -->
<g id="edge132" class="edge"><title>Node40&#45;&gt;Node21</title>
<path fill="none" stroke="midnightblue" d="M1829.26,-426.667C1930.83,-420.538 2195.48,-402.999 2281,-382 2445.95,-341.496 2489.97,-326.415 2635,-238 2676.98,-212.405 2694.3,-208.517 2719,-166 2730.12,-146.861 2733.69,-121.462 2734.75,-103.824"/>
<polygon fill="midnightblue" stroke="midnightblue" points="2738.25,-103.859 2735.13,-93.7336 2731.25,-103.594 2738.25,-103.859"/>
</g>
<!-- Node41 -->
<g id="node105" class="node"><title>Node41</title>
<polygon fill="none" stroke="#bfbfbf" points="1766,-353.5 1766,-374.5 1812,-374.5 1812,-353.5 1766,-353.5"/>
<text text-anchor="middle" x="1789" y="-361.5" font-family="Helvetica,sans-Serif" font-size="10.00">cstring</text>
</g>
<!-- Node40&#45;&gt;Node41 -->
<g id="edge128" class="edge"><title>Node40&#45;&gt;Node41</title>
<path fill="none" stroke="midnightblue" d="M1789,-418.267C1789,-409.18 1789,-395.892 1789,-384.74"/>
<polygon fill="midnightblue" stroke="midnightblue" points="1792.5,-384.534 1789,-374.534 1785.5,-384.534 1792.5,-384.534"/>
</g>
<!-- Node40&#45;&gt;Node42 -->
<g id="edge130" class="edge"><title>Node40&#45;&gt;Node42</title>
<path fill="none" stroke="midnightblue" d="M1765.71,-418.412C1742.02,-407.647 1705.13,-390.878 1678.56,-378.801"/>
<polygon fill="midnightblue" stroke="midnightblue" points="1679.84,-375.535 1669.28,-374.584 1676.94,-381.908 1679.84,-375.535"/>
</g>
<!-- Node43&#45;&gt;Node3 -->
<g id="edge142" class="edge"><title>Node43&#45;&gt;Node3</title>
<path fill="none" stroke="midnightblue" d="M1566.09,-476.401C1535.17,-461.172 1475.07,-433.257 1421,-418 1329.21,-392.096 1219.86,-377.585 1149.72,-370.279"/>
<polygon fill="midnightblue" stroke="midnightblue" points="1149.97,-366.786 1139.66,-369.253 1149.26,-373.75 1149.97,-366.786"/>
</g>
<!-- Node43&#45;&gt;Node20 -->
<g id="edge208" class="edge"><title>Node43&#45;&gt;Node20</title>
<path fill="none" stroke="midnightblue" d="M1533.77,-478.851C1428.66,-462.811 1197.74,-427.847 1118,-418 935.152,-395.42 434.413,-431.594 296,-310 236.725,-257.927 263.341,-148.699 277.831,-103.379"/>
<polygon fill="midnightblue" stroke="midnightblue" points="281.191,-104.368 281.032,-93.7744 274.55,-102.155 281.191,-104.368"/>
</g>
<!-- Node43&#45;&gt;Node26 -->
<g id="edge204" class="edge"><title>Node43&#45;&gt;Node26</title>
<path fill="none" stroke="midnightblue" d="M1582.38,-476.414C1565.35,-435.571 1510.49,-286.33 1579,-202 1628.24,-141.381 1681.47,-201.572 1751,-166 1782.18,-150.051 1810.7,-120.541 1827.21,-101.348"/>
<polygon fill="midnightblue" stroke="midnightblue" points="1829.98,-103.494 1833.72,-93.5819 1824.62,-98.997 1829.98,-103.494"/>
</g>
<!-- Node43&#45;&gt;Node35 -->
<g id="edge136" class="edge"><title>Node43&#45;&gt;Node35</title>
<path fill="none" stroke="midnightblue" d="M1588.36,-476.297C1591.46,-452.623 1599.7,-394.104 1611,-346 1619.88,-308.218 1633.7,-265.101 1642,-240.363"/>
<polygon fill="midnightblue" stroke="midnightblue" points="1645.4,-241.259 1645.29,-230.665 1638.77,-239.012 1645.4,-241.259"/>
</g>
<!-- Node43&#45;&gt;Node40 -->
<g id="edge144" class="edge"><title>Node43&#45;&gt;Node40</title>
<path fill="none" stroke="midnightblue" d="M1623.58,-476.497C1656.94,-466.918 1706.39,-452.72 1742.53,-442.342"/>
<polygon fill="midnightblue" stroke="midnightblue" points="1743.71,-445.647 1752.35,-439.523 1741.77,-438.919 1743.71,-445.647"/>
</g>
<!-- Node43&#45;&gt;Node42 -->
<g id="edge206" class="edge"><title>Node43&#45;&gt;Node42</title>
<path fill="none" stroke="midnightblue" d="M1592.24,-476.085C1602.14,-455.427 1623.77,-410.337 1636.37,-384.076"/>
<polygon fill="midnightblue" stroke="midnightblue" points="1639.69,-385.245 1640.86,-374.715 1633.38,-382.218 1639.69,-385.245"/>
</g>
<!-- Node44 -->
<g id="node113" class="node"><title>Node44</title>
<a xlink:href="defines_8hpp.html" target="_top" xlink:title="thrill/common/defines.hpp">
<polygon fill="none" stroke="black" points="1284,-418.5 1284,-439.5 1412,-439.5 1412,-418.5 1284,-418.5"/>
<text text-anchor="middle" x="1348" y="-426.5" font-family="Helvetica,sans-Serif" font-size="10.00">thrill/common/defines.hpp</text>
</a>
</g>
<!-- Node43&#45;&gt;Node44 -->
<g id="edge138" class="edge"><title>Node43&#45;&gt;Node44</title>
<path fill="none" stroke="midnightblue" d="M1543.72,-476.497C1503.74,-466.795 1444.24,-452.355 1401.34,-441.945"/>
<polygon fill="midnightblue" stroke="midnightblue" points="1401.91,-438.48 1391.36,-439.523 1400.25,-445.283 1401.91,-438.48"/>
</g>
<!-- Node45 -->
<g id="node118" class="node"><title>Node45</title>
<a xlink:href="request_8hpp.html" target="_top" xlink:title="thrill/io/request.hpp">
<polygon fill="none" stroke="black" points="2401.5,-418.5 2401.5,-439.5 2500.5,-439.5 2500.5,-418.5 2401.5,-418.5"/>
<text text-anchor="middle" x="2451" y="-426.5" font-family="Helvetica,sans-Serif" font-size="10.00">thrill/io/request.hpp</text>
</a>
</g>
<!-- Node43&#45;&gt;Node45 -->
<g id="edge146" class="edge"><title>Node43&#45;&gt;Node45</title>
<path fill="none" stroke="midnightblue" d="M1640.07,-483.437C1792.49,-473.206 2230.86,-443.778 2391.27,-433.009"/>
<polygon fill="midnightblue" stroke="midnightblue" points="2391.69,-436.49 2401.43,-432.328 2391.22,-429.505 2391.69,-436.49"/>
</g>
<!-- Node43&#45;&gt;Node50 -->
<g id="edge202" class="edge"><title>Node43&#45;&gt;Node50</title>
<path fill="none" stroke="midnightblue" d="M1573.13,-476.486C1562.58,-467.794 1548.49,-454.554 1540,-440 1529.77,-422.456 1496.82,-291.983 1484.09,-240.655"/>
<polygon fill="midnightblue" stroke="midnightblue" points="1487.43,-239.578 1481.63,-230.711 1480.63,-241.259 1487.43,-239.578"/>
</g>
<!-- Node44&#45;&gt;Node30 -->
<g id="edge140" class="edge"><title>Node44&#45;&gt;Node30</title>
<path fill="none" stroke="midnightblue" d="M1283.72,-423.675C1103.15,-407.396 597.138,-352.296 484,-238 449.714,-203.363 433.165,-166.903 465,-130 482.781,-109.388 658.65,-92.822 740.497,-86.1627"/>
<polygon fill="midnightblue" stroke="midnightblue" points="741.242,-89.6143 750.93,-85.3261 740.683,-82.6367 741.242,-89.6143"/>
</g>
<!-- Node45&#45;&gt;Node20 -->
<g id="edge200" class="edge"><title>Node45&#45;&gt;Node20</title>
<path fill="none" stroke="midnightblue" d="M2401.12,-428.321C2297.5,-426.2 2062.69,-417.503 1992,-382 1972.6,-372.258 1978.76,-354.987 1959,-346 1813.11,-279.638 672.113,-350.338 517,-310 411.343,-282.523 374.566,-259.374 318,-166 305.89,-146.01 296.601,-120.789 291.009,-103.425"/>
<polygon fill="midnightblue" stroke="midnightblue" points="294.313,-102.263 288.012,-93.7454 287.626,-104.333 294.313,-102.263"/>
</g>
<!-- Node45&#45;&gt;Node26 -->
<g id="edge194" class="edge"><title>Node45&#45;&gt;Node26</title>
<path fill="none" stroke="midnightblue" d="M2401.3,-424.992C2327.31,-418.402 2192.24,-403.796 2149,-382 2006.72,-310.274 2009.8,-239.448 1894,-130 1883.5,-120.074 1871.55,-109.244 1861.76,-100.484"/>
<polygon fill="midnightblue" stroke="midnightblue" points="1863.91,-97.716 1854.12,-93.6775 1859.26,-102.943 1863.91,-97.716"/>
</g>
<!-- Node45&#45;&gt;Node29 -->
<g id="edge196" class="edge"><title>Node45&#45;&gt;Node29</title>
<path fill="none" stroke="midnightblue" d="M2462.85,-418.385C2512.88,-373.422 2704.97,-199.436 2719,-166 2725.19,-151.247 2729.84,-141.767 2719,-130 2682.6,-90.4973 2302.3,-84.1959 2182.16,-83.1908"/>
<polygon fill="midnightblue" stroke="midnightblue" points="2182.04,-79.6898 2172.01,-83.1135 2181.98,-86.6896 2182.04,-79.6898"/>
</g>
<!-- Node45&#45;&gt;Node34 -->
<g id="edge164" class="edge"><title>Node45&#45;&gt;Node34</title>
<path fill="none" stroke="midnightblue" d="M2446.03,-418.385C2437.24,-400.735 2417.25,-365.38 2390,-346 2355.89,-321.746 2310.6,-308.158 2274.63,-300.679"/>
<polygon fill="midnightblue" stroke="midnightblue" points="2275.24,-297.232 2264.75,-298.727 2273.89,-304.099 2275.24,-297.232"/>
</g>
<!-- Node45&#45;&gt;Node37 -->
<g id="edge198" class="edge"><title>Node45&#45;&gt;Node37</title>
<path fill="none" stroke="midnightblue" d="M2500.6,-426.835C2651,-420.098 3093.22,-398.938 3119,-382 3217.49,-317.283 3243.05,-160.773 3249.19,-104.01"/>
<polygon fill="midnightblue" stroke="midnightblue" points="3252.71,-104.056 3250.2,-93.7608 3245.74,-103.369 3252.71,-104.056"/>
</g>
<!-- Node46 -->
<g id="node120" class="node"><title>Node46</title>
<a xlink:href="shared__state_8hpp.html" target="_top" xlink:title="thrill/common/shared\l_state.hpp">
<polygon fill="none" stroke="black" points="3003.5,-347 3003.5,-381 3110.5,-381 3110.5,-347 3003.5,-347"/>
<text text-anchor="start" x="3011.5" y="-368" font-family="Helvetica,sans-Serif" font-size="10.00">thrill/common/shared</text>
<text text-anchor="middle" x="3057" y="-355" font-family="Helvetica,sans-Serif" font-size="10.00">_state.hpp</text>
</a>
</g>
<!-- Node45&#45;&gt;Node46 -->
<g id="edge148" class="edge"><title>Node45&#45;&gt;Node46</title>
<path fill="none" stroke="midnightblue" d="M2500.59,-423.681C2609.91,-411.955 2871.53,-383.894 2993.01,-370.864"/>
<polygon fill="midnightblue" stroke="midnightblue" points="2993.69,-374.31 3003.26,-369.764 2992.95,-367.35 2993.69,-374.31"/>
</g>
<!-- Node48 -->
<g id="node125" class="node"><title>Node48</title>
<a xlink:href="exceptions_8hpp.html" target="_top" xlink:title="thrill/io/exceptions.hpp">
<polygon fill="none" stroke="black" points="2158,-353.5 2158,-374.5 2272,-374.5 2272,-353.5 2158,-353.5"/>
<text text-anchor="middle" x="2215" y="-361.5" font-family="Helvetica,sans-Serif" font-size="10.00">thrill/io/exceptions.hpp</text>
</a>
</g>
<!-- Node45&#45;&gt;Node48 -->
<g id="edge154" class="edge"><title>Node45&#45;&gt;Node48</title>
<path fill="none" stroke="midnightblue" d="M2412.82,-418.484C2371.95,-407.227 2307.02,-389.345 2262.79,-377.162"/>
<polygon fill="midnightblue" stroke="midnightblue" points="2263.7,-373.782 2253.12,-374.501 2261.84,-380.53 2263.7,-373.782"/>
</g>
<!-- Node45&#45;&gt;Node50 -->
<g id="edge166" class="edge"><title>Node45&#45;&gt;Node50</title>
<path fill="none" stroke="midnightblue" d="M2401.31,-427.013C2329.03,-423.168 2191.19,-412.22 2078,-382 2037.97,-371.312 2031.35,-358.981 1992,-346 1831.97,-293.208 1637.38,-251.287 1540.28,-231.829"/>
<polygon fill="midnightblue" stroke="midnightblue" points="1540.84,-228.371 1530.35,-229.848 1539.47,-235.236 1540.84,-228.371"/>
</g>
<!-- Node51 -->
<g id="node141" class="node"><title>Node51</title>
<a xlink:href="delegate_8hpp.html" target="_top" xlink:title="tlx/delegate.hpp">
<polygon fill="none" stroke="black" points="2184,-209.5 2184,-230.5 2270,-230.5 2270,-209.5 2184,-209.5"/>
<text text-anchor="middle" x="2227" y="-217.5" font-family="Helvetica,sans-Serif" font-size="10.00">tlx/delegate.hpp</text>
</a>
</g>
<!-- Node45&#45;&gt;Node51 -->
<g id="edge180" class="edge"><title>Node45&#45;&gt;Node51</title>
<path fill="none" stroke="midnightblue" d="M2449.22,-418.241C2445.96,-401.308 2437.68,-368.097 2420,-346 2377.11,-292.412 2305.05,-254.068 2262.17,-234.599"/>
<polygon fill="midnightblue" stroke="midnightblue" points="2263.52,-231.371 2252.96,-230.507 2260.68,-237.768 2263.52,-231.371"/>
</g>
<!-- Node46&#45;&gt;Node37 -->
<g id="edge152" class="edge"><title>Node46&#45;&gt;Node37</title>
<path fill="none" stroke="midnightblue" d="M3076.71,-346.972C3087.95,-336.796 3101.95,-323.296 3113,-310 3170.88,-240.349 3221.16,-143.995 3241.44,-102.88"/>
<polygon fill="midnightblue" stroke="midnightblue" points="3244.7,-104.189 3245.94,-93.667 3238.41,-101.118 3244.7,-104.189"/>
</g>
<!-- Node47 -->
<g id="node122" class="node"><title>Node47</title>
<polygon fill="none" stroke="#bfbfbf" points="3009.5,-281.5 3009.5,-302.5 3104.5,-302.5 3104.5,-281.5 3009.5,-281.5"/>
<text text-anchor="middle" x="3057" y="-289.5" font-family="Helvetica,sans-Serif" font-size="10.00">condition_variable</text>
</g>
<!-- Node46&#45;&gt;Node47 -->
<g id="edge150" class="edge"><title>Node46&#45;&gt;Node47</title>
<path fill="none" stroke="midnightblue" d="M3057,-346.937C3057,-336.814 3057,-323.898 3057,-313.133"/>
<polygon fill="midnightblue" stroke="midnightblue" points="3060.5,-312.901 3057,-302.901 3053.5,-312.901 3060.5,-312.901"/>
</g>
<!-- Node48&#45;&gt;Node20 -->
<g id="edge160" class="edge"><title>Node48&#45;&gt;Node20</title>
<path fill="none" stroke="midnightblue" d="M2157.76,-358.674C2112.74,-354.656 2048.42,-349.291 1992,-346 1643.54,-325.675 736.753,-394.986 425,-238 393.218,-221.996 327.88,-139.427 299.119,-101.765"/>
<polygon fill="midnightblue" stroke="midnightblue" points="301.778,-99.4788 292.943,-93.6305 296.202,-103.712 301.778,-99.4788"/>
</g>
<!-- Node48&#45;&gt;Node34 -->
<g id="edge156" class="edge"><title>Node48&#45;&gt;Node34</title>
<path fill="none" stroke="midnightblue" d="M2215,-353.376C2215,-342.741 2215,-326.095 2215,-312.82"/>
<polygon fill="midnightblue" stroke="midnightblue" points="2218.5,-312.667 2215,-302.667 2211.5,-312.667 2218.5,-312.667"/>
</g>
<!-- Node48&#45;&gt;Node38 -->
<g id="edge162" class="edge"><title>Node48&#45;&gt;Node38</title>
<path fill="none" stroke="midnightblue" d="M2237.62,-353.455C2273.46,-335.421 2342.44,-295.004 2374,-238 2385.84,-216.615 2386.99,-188.007 2386.06,-168.839"/>
<polygon fill="midnightblue" stroke="midnightblue" points="2389.55,-168.495 2385.34,-158.769 2382.56,-168.993 2389.55,-168.495"/>
</g>
<!-- Node49 -->
<g id="node128" class="node"><title>Node49</title>
<polygon fill="none" stroke="#bfbfbf" points="2089.5,-281.5 2089.5,-302.5 2148.5,-302.5 2148.5,-281.5 2089.5,-281.5"/>
<text text-anchor="middle" x="2119" y="-289.5" font-family="Helvetica,sans-Serif" font-size="10.00">stdexcept</text>
</g>
<!-- Node48&#45;&gt;Node49 -->
<g id="edge158" class="edge"><title>Node48&#45;&gt;Node49</title>
<path fill="none" stroke="midnightblue" d="M2200.83,-353.376C2185.24,-341.678 2159.94,-322.705 2141.6,-308.948"/>
<polygon fill="midnightblue" stroke="midnightblue" points="2143.32,-305.867 2133.22,-302.667 2139.12,-311.467 2143.32,-305.867"/>
</g>
<!-- Node50&#45;&gt;Node24 -->
<g id="edge168" class="edge"><title>Node50&#45;&gt;Node24</title>
<path fill="none" stroke="midnightblue" d="M1530.25,-209.898C1545.86,-207.059 1563.09,-204.16 1579,-202 1751.93,-178.52 1796.4,-183.847 1970,-166 2111.05,-151.499 2145.64,-141.112 2287,-130 2647.83,-101.635 2746.04,-153.542 3106.95,-93.7939"/>
<polygon fill="midnightblue" stroke="midnightblue" points="3107.6,-97.2339 3116.89,-92.1321 3106.45,-90.3298 3107.6,-97.2339"/>
</g>
<!-- Node50&#45;&gt;Node25 -->
<g id="edge170" class="edge"><title>Node50&#45;&gt;Node25</title>
<path fill="none" stroke="midnightblue" d="M1427.92,-218.203C1319.19,-213.76 1068.45,-200.044 991,-166 957.843,-151.425 927.88,-121.044 910.821,-101.361"/>
<polygon fill="midnightblue" stroke="midnightblue" points="913.449,-99.0479 904.329,-93.657 908.097,-103.559 913.449,-99.0479"/>
</g>
<!-- Node50&#45;&gt;Node26 -->
<g id="edge172" class="edge"><title>Node50&#45;&gt;Node26</title>
<path fill="none" stroke="midnightblue" d="M1516.62,-209.436C1525.88,-206.92 1535.78,-204.3 1545,-202 1615.3,-184.464 1636.77,-193.015 1704,-166 1747.58,-148.487 1793.4,-118.212 1819.74,-99.4696"/>
<polygon fill="midnightblue" stroke="midnightblue" points="1821.84,-102.277 1827.9,-93.5905 1817.74,-96.5983 1821.84,-102.277"/>
</g>
<!-- Node50&#45;&gt;Node30 -->
<g id="edge176" class="edge"><title>Node50&#45;&gt;Node30</title>
<path fill="none" stroke="midnightblue" d="M1427.78,-217.476C1274.76,-209.729 830.033,-185.622 806,-166 787.74,-151.091 782.854,-123.208 781.804,-103.898"/>
<polygon fill="midnightblue" stroke="midnightblue" points="785.298,-103.595 781.557,-93.6824 778.3,-103.764 785.298,-103.595"/>
</g>
<!-- Node50&#45;&gt;Node32 -->
<g id="edge174" class="edge"><title>Node50&#45;&gt;Node32</title>
<path fill="none" stroke="midnightblue" d="M1427.81,-217.199C1286.93,-209.318 895.463,-186.205 768,-166 754.295,-163.828 739.391,-160.411 726.574,-157.136"/>
<polygon fill="midnightblue" stroke="midnightblue" points="727.366,-153.726 716.805,-154.566 725.585,-160.495 727.366,-153.726"/>
</g>
<!-- Node50&#45;&gt;Node38 -->
<g id="edge178" class="edge"><title>Node50&#45;&gt;Node38</title>
<path fill="none" stroke="midnightblue" d="M1530.21,-209.53C1545.81,-206.678 1563.06,-203.865 1579,-202 1869.46,-168.032 1944.69,-191.667 2236,-166 2276.88,-162.398 2323.88,-156.355 2353.75,-152.275"/>
<polygon fill="midnightblue" stroke="midnightblue" points="2354.51,-155.703 2363.94,-150.869 2353.55,-148.769 2354.51,-155.703"/>
</g>
<!-- Node51&#45;&gt;Node24 -->
<g id="edge182" class="edge"><title>Node51&#45;&gt;Node24</title>
<path fill="none" stroke="midnightblue" d="M2237.43,-209.42C2257.84,-189.523 2305.4,-147.004 2355,-130 2510.53,-76.676 2927,-120.386 3106.94,-93.7098"/>
<polygon fill="midnightblue" stroke="midnightblue" points="3107.56,-97.1543 3116.88,-92.1202 3106.46,-90.242 3107.56,-97.1543"/>
</g>
<!-- Node51&#45;&gt;Node26 -->
<g id="edge184" class="edge"><title>Node51&#45;&gt;Node26</title>
<path fill="none" stroke="midnightblue" d="M2197.43,-209.477C2127.3,-184.523 1951.21,-121.863 1876.44,-95.2559"/>
<polygon fill="midnightblue" stroke="midnightblue" points="1877.18,-91.8036 1866.59,-91.7485 1874.83,-98.3986 1877.18,-91.8036"/>
</g>
<!-- Node51&#45;&gt;Node28 -->
<g id="edge186" class="edge"><title>Node51&#45;&gt;Node28</title>
<path fill="none" stroke="midnightblue" d="M2214.99,-209.25C2188.74,-185.741 2126,-129.561 2093.8,-100.731"/>
<polygon fill="midnightblue" stroke="midnightblue" points="2095.73,-97.7636 2085.95,-93.7002 2091.06,-102.979 2095.73,-97.7636"/>
</g>
<!-- Node51&#45;&gt;Node29 -->
<g id="edge188" class="edge"><title>Node51&#45;&gt;Node29</title>
<path fill="none" stroke="midnightblue" d="M2220.64,-209.25C2207.04,-186.241 2174.93,-131.937 2157.59,-102.608"/>
<polygon fill="midnightblue" stroke="midnightblue" points="2160.43,-100.527 2152.33,-93.7002 2154.4,-104.09 2160.43,-100.527"/>
</g>
<!-- Node51&#45;&gt;Node30 -->
<g id="edge190" class="edge"><title>Node51&#45;&gt;Node30</title>
<path fill="none" stroke="midnightblue" d="M2183.74,-209.836C2169,-206.776 2152.36,-203.764 2137,-202 1883.87,-172.915 1240.47,-217.797 991,-166 923.868,-152.062 850.486,-118.187 811.021,-98.2881"/>
<polygon fill="midnightblue" stroke="midnightblue" points="812.241,-94.981 801.743,-93.5508 809.058,-101.215 812.241,-94.981"/>
</g>
<!-- Node51&#45;&gt;Node38 -->
<g id="edge192" class="edge"><title>Node51&#45;&gt;Node38</title>
<path fill="none" stroke="midnightblue" d="M2250.17,-209.376C2277.87,-196.669 2324.3,-175.38 2354.53,-161.514"/>
<polygon fill="midnightblue" stroke="midnightblue" points="2356.11,-164.643 2363.74,-157.293 2353.19,-158.28 2356.11,-164.643"/>
</g>
<!-- Node52&#45;&gt;Node2 -->
<g id="edge256" class="edge"><title>Node52&#45;&gt;Node2</title>
<path fill="none" stroke="midnightblue" d="M2694.1,-674.003C2421.94,-669.563 1352.73,-650.814 1204,-628 1196.54,-626.856 1188.72,-625.123 1181.21,-623.176"/>
<polygon fill="midnightblue" stroke="midnightblue" points="1182.14,-619.801 1171.57,-620.525 1180.28,-626.551 1182.14,-619.801"/>
</g>
<!-- Node52&#45;&gt;Node20 -->
<g id="edge360" class="edge"><title>Node52&#45;&gt;Node20</title>
<path fill="none" stroke="midnightblue" d="M2694.18,-674.34C2473.03,-671.781 1709.98,-660.965 1081,-628 848.808,-615.831 38,-777.511 38,-545 38,-545 38,-545 38,-220 38,-177.082 40.4255,-157.944 73,-130 99.9698,-106.864 202.177,-92.3157 254.191,-86.2532"/>
<polygon fill="midnightblue" stroke="midnightblue" points="254.643,-89.7245 264.186,-85.121 253.855,-82.7689 254.643,-89.7245"/>
</g>
<!-- Node52&#45;&gt;Node21 -->
<g id="edge364" class="edge"><title>Node52&#45;&gt;Node21</title>
<path fill="none" stroke="midnightblue" d="M2819.65,-672.263C2956.5,-664.577 3270,-636.935 3270,-545 3270,-545 3270,-545 3270,-429 3270,-330.946 3190.26,-334.384 3113,-274 3064.6,-236.166 2932.82,-155.652 2877,-130 2832.64,-109.614 2816.95,-110.483 2767.06,-94.2443"/>
<polygon fill="midnightblue" stroke="midnightblue" points="2767.92,-90.8431 2757.33,-91.0041 2765.71,-97.4845 2767.92,-90.8431"/>
</g>
<!-- Node52&#45;&gt;Node23 -->
<g id="edge352" class="edge"><title>Node52&#45;&gt;Node23</title>
<path fill="none" stroke="midnightblue" d="M2694.28,-673.045C2405.52,-663.638 1218,-620.372 1218,-545 1218,-545 1218,-545 1218,-487 1218,-332 1292.94,-292.187 1419,-202 1430.01,-194.123 1501.31,-174.456 1551.84,-161.161"/>
<polygon fill="midnightblue" stroke="midnightblue" points="1552.86,-164.512 1561.65,-158.592 1551.09,-157.741 1552.86,-164.512"/>
</g>
<!-- Node52&#45;&gt;Node24 -->
<g id="edge354" class="edge"><title>Node52&#45;&gt;Node24</title>
<path fill="none" stroke="midnightblue" d="M2819.63,-673.19C2958.05,-668.707 3281.02,-655.414 3322,-628 3343.04,-613.928 3422,-469.059 3422,-429 3422,-429 3422,-429 3422,-364 3422,-227.309 3253.71,-132.985 3179.48,-98.0286"/>
<polygon fill="midnightblue" stroke="midnightblue" points="3180.62,-94.6997 3170.07,-93.6808 3177.68,-101.054 3180.62,-94.6997"/>
</g>
<!-- Node52&#45;&gt;Node37 -->
<g id="edge358" class="edge"><title>Node52&#45;&gt;Node37</title>
<path fill="none" stroke="midnightblue" d="M2819.82,-673.249C3000.24,-667.951 3508.82,-651.035 3536,-628 3564.87,-603.534 3555,-582.843 3555,-545 3555,-545 3555,-545 3555,-220 3555,-160.858 3361.34,-108.85 3283.16,-90.2633"/>
<polygon fill="midnightblue" stroke="midnightblue" points="3283.89,-86.8398 3273.35,-87.9643 3282.29,-93.6549 3283.89,-86.8398"/>
</g>
<!-- Node52&#45;&gt;Node38 -->
<g id="edge362" class="edge"><title>Node52&#45;&gt;Node38</title>
<path fill="none" stroke="midnightblue" d="M2766.98,-664.37C2774.73,-655.414 2784.97,-641.873 2790,-628 2813.1,-564.254 2814.35,-532.589 2777,-476 2773.82,-471.187 2469.61,-205.472 2465,-202 2441.37,-184.188 2433.46,-182.65 2409,-166 2408.25,-165.486 2407.48,-164.961 2406.71,-164.429"/>
<polygon fill="midnightblue" stroke="midnightblue" points="2408.64,-161.506 2398.45,-158.6 2404.6,-167.226 2408.64,-161.506"/>
</g>
<!-- Node52&#45;&gt;Node39 -->
<g id="edge258" class="edge"><title>Node52&#45;&gt;Node39</title>
<path fill="none" stroke="midnightblue" d="M2694.46,-670.209C2601.94,-662.834 2423.23,-647.488 2272,-628 2075.74,-602.709 2025.28,-588.768 1830.74,-556.938"/>
<polygon fill="midnightblue" stroke="midnightblue" points="1831.2,-553.467 1820.77,-555.311 1830.07,-560.375 1831.2,-553.467"/>
</g>
<!-- Node52&#45;&gt;Node45 -->
<g id="edge350" class="edge"><title>Node52&#45;&gt;Node45</title>
<path fill="none" stroke="midnightblue" d="M2761.23,-664.311C2773.4,-631.579 2804.7,-531.583 2757,-476 2741.19,-457.578 2595.31,-441.751 2510.81,-434.03"/>
<polygon fill="midnightblue" stroke="midnightblue" points="2511.09,-430.542 2500.82,-433.129 2510.46,-437.513 2511.09,-430.542"/>
</g>
<!-- Node53 -->
<g id="node169" class="node"><title>Node53</title>
<a xlink:href="json__logger_8hpp.html" target="_top" xlink:title="thrill/common/json\l_logger.hpp">
<polygon fill="none" stroke="black" points="2956,-131 2956,-165 3052,-165 3052,-131 2956,-131"/>
<text text-anchor="start" x="2964" y="-152" font-family="Helvetica,sans-Serif" font-size="10.00">thrill/common/json</text>
<text text-anchor="middle" x="3004" y="-139" font-family="Helvetica,sans-Serif" font-size="10.00">_logger.hpp</text>
</a>
</g>
<!-- Node52&#45;&gt;Node53 -->
<g id="edge232" class="edge"><title>Node52&#45;&gt;Node53</title>
<path fill="none" stroke="midnightblue" d="M2819.78,-672.268C2950.76,-666.157 3244.3,-650.161 3284,-628 3324.21,-605.559 3346,-591.045 3346,-545 3346,-545 3346,-545 3346,-292 3346,-231.178 3159.95,-181.74 3062.3,-159.98"/>
<polygon fill="midnightblue" stroke="midnightblue" points="3062.79,-156.506 3052.27,-157.775 3061.29,-163.342 3062.79,-156.506"/>
</g>
<!-- Node57 -->
<g id="node183" class="node"><title>Node57</title>
<a xlink:href="profile__task_8hpp.html" target="_top" xlink:title="thrill/common/profile\l_task.hpp">
<polygon fill="none" stroke="black" points="3423,-593 3423,-627 3527,-627 3527,-593 3423,-593"/>
<text text-anchor="start" x="3431" y="-614" font-family="Helvetica,sans-Serif" font-size="10.00">thrill/common/profile</text>
<text text-anchor="middle" x="3475" y="-601" font-family="Helvetica,sans-Serif" font-size="10.00">_task.hpp</text>
</a>
</g>
<!-- Node52&#45;&gt;Node57 -->
<g id="edge252" class="edge"><title>Node52&#45;&gt;Node57</title>
<path fill="none" stroke="midnightblue" d="M2819.57,-672.044C2960.01,-665.155 3296.78,-647.16 3409,-628 3410.28,-627.781 3411.58,-627.547 3412.88,-627.301"/>
<polygon fill="midnightblue" stroke="midnightblue" points="3413.9,-630.665 3422.97,-625.194 3412.47,-623.813 3413.9,-630.665"/>
</g>
<!-- Node59 -->
<g id="node189" class="node"><title>Node59</title>
<a xlink:href="block__manager_8hpp.html" target="_top" xlink:title="thrill/io/block_manager.hpp">
<polygon fill="none" stroke="black" points="2280.5,-599.5 2280.5,-620.5 2413.5,-620.5 2413.5,-599.5 2280.5,-599.5"/>
<text text-anchor="middle" x="2347" y="-607.5" font-family="Helvetica,sans-Serif" font-size="10.00">thrill/io/block_manager.hpp</text>
</a>
</g>
<!-- Node52&#45;&gt;Node59 -->
<g id="edge260" class="edge"><title>Node52&#45;&gt;Node59</title>
<path fill="none" stroke="midnightblue" d="M2694.28,-665.057C2621.61,-653.536 2501.87,-634.553 2423.72,-622.163"/>
<polygon fill="midnightblue" stroke="midnightblue" points="2423.88,-618.644 2413.45,-620.535 2422.78,-625.558 2423.88,-618.644"/>
</g>
<!-- Node67 -->
<g id="node231" class="node"><title>Node67</title>
<polygon fill="none" stroke="#bfbfbf" points="2689.5,-476.5 2689.5,-497.5 2748.5,-497.5 2748.5,-476.5 2689.5,-476.5"/>
<text text-anchor="middle" x="2719" y="-484.5" font-family="Helvetica,sans-Serif" font-size="10.00">functional</text>
</g>
<!-- Node52&#45;&gt;Node67 -->
<g id="edge356" class="edge"><title>Node52&#45;&gt;Node67</title>
<path fill="none" stroke="midnightblue" d="M2754.85,-664.354C2748.73,-634.107 2731.19,-547.285 2723.13,-507.437"/>
<polygon fill="midnightblue" stroke="midnightblue" points="2726.54,-506.638 2721.13,-497.53 2719.68,-508.025 2726.54,-506.638"/>
</g>
<!-- Node53&#45;&gt;Node14 -->
<g id="edge236" class="edge"><title>Node53&#45;&gt;Node14</title>
<path fill="none" stroke="midnightblue" d="M2955.78,-133.926C2912.11,-121.146 2851.27,-103.251 2822.74,-93.9918"/>
<polygon fill="midnightblue" stroke="midnightblue" points="2823.79,-90.654 2813.2,-90.7933 2821.57,-97.2909 2823.79,-90.654"/>
</g>
<!-- Node53&#45;&gt;Node19 -->
<g id="edge246" class="edge"><title>Node53&#45;&gt;Node19</title>
<path fill="none" stroke="midnightblue" d="M2955.86,-144.613C2899.21,-140.708 2802.3,-134.278 2719,-130 2314.77,-109.242 2213.22,-114.918 1809,-94 1762.15,-91.5756 1708.17,-87.995 1673.37,-85.5837"/>
<polygon fill="midnightblue" stroke="midnightblue" points="1673.43,-82.0797 1663.21,-84.8755 1672.95,-89.0627 1673.43,-82.0797"/>
</g>
<!-- Node53&#45;&gt;Node20 -->
<g id="edge248" class="edge"><title>Node53&#45;&gt;Node20</title>
<path fill="none" stroke="midnightblue" d="M2955.88,-144.3C2899.24,-140.098 2802.35,-133.389 2719,-130 1840.91,-94.2942 1620.62,-112.574 742,-94 581.672,-90.6108 389.727,-85.7188 315.961,-83.8078"/>
<polygon fill="midnightblue" stroke="midnightblue" points="316.04,-80.3088 305.953,-83.548 315.858,-87.3064 316.04,-80.3088"/>
</g>
<!-- Node53&#45;&gt;Node21 -->
<g id="edge250" class="edge"><title>Node53&#45;&gt;Node21</title>
<path fill="none" stroke="midnightblue" d="M2955.7,-133.569C2951.08,-132.313 2946.46,-131.102 2942,-130 2867.52,-111.602 2844.69,-115.083 2766.99,-94.0021"/>
<polygon fill="midnightblue" stroke="midnightblue" points="2767.8,-90.5964 2757.23,-91.3064 2765.94,-97.3436 2767.8,-90.5964"/>
</g>
<!-- Node53&#45;&gt;Node26 -->
<g id="edge238" class="edge"><title>Node53&#45;&gt;Node26</title>
<path fill="none" stroke="midnightblue" d="M2955.86,-144.746C2899.2,-140.967 2802.28,-134.656 2719,-130 2390.24,-111.622 2307.6,-115.179 1979,-94 1944.16,-91.7545 1904.4,-88.4827 1876.71,-86.0912"/>
<polygon fill="midnightblue" stroke="midnightblue" points="1877,-82.6028 1866.73,-85.2217 1876.39,-89.5764 1877,-82.6028"/>
</g>
<!-- Node53&#45;&gt;Node37 -->
<g id="edge244" class="edge"><title>Node53&#45;&gt;Node37</title>
<path fill="none" stroke="midnightblue" d="M3052.21,-135.313C3101.5,-122.343 3176.65,-102.565 3219.03,-91.413"/>
<polygon fill="midnightblue" stroke="midnightblue" points="3220.03,-94.7687 3228.81,-88.839 3218.25,-87.9992 3220.03,-94.7687"/>
</g>
<!-- Node54 -->
<g id="node171" class="node"><title>Node54</title>
<a xlink:href="vexpand_8hpp.html" target="_top" xlink:title="tlx/meta/vexpand.hpp">
<polygon fill="none" stroke="black" points="2921,-72.5 2921,-93.5 3031,-93.5 3031,-72.5 2921,-72.5"/>
<text text-anchor="middle" x="2976" y="-80.5" font-family="Helvetica,sans-Serif" font-size="10.00">tlx/meta/vexpand.hpp</text>
</a>
</g>
<!-- Node53&#45;&gt;Node54 -->
<g id="edge234" class="edge"><title>Node53&#45;&gt;Node54</title>
<path fill="none" stroke="midnightblue" d="M2996.64,-130.922C2992.97,-122.395 2988.5,-112.025 2984.66,-103.115"/>
<polygon fill="midnightblue" stroke="midnightblue" points="2987.85,-101.652 2980.67,-93.8521 2981.42,-104.421 2987.85,-101.652"/>
</g>
<!-- Node55 -->
<g id="node175" class="node"><title>Node55</title>
<polygon fill="none" stroke="#bfbfbf" points="3049,-72.5 3049,-93.5 3099,-93.5 3099,-72.5 3049,-72.5"/>
<text text-anchor="middle" x="3074" y="-80.5" font-family="Helvetica,sans-Serif" font-size="10.00">fstream</text>
</g>
<!-- Node53&#45;&gt;Node55 -->
<g id="edge240" class="edge"><title>Node53&#45;&gt;Node55</title>
<path fill="none" stroke="midnightblue" d="M3022.39,-130.922C3032.36,-121.662 3044.68,-110.227 3054.78,-100.85"/>
<polygon fill="midnightblue" stroke="midnightblue" points="3057.37,-103.221 3062.31,-93.8521 3052.6,-98.0918 3057.37,-103.221"/>
</g>
<!-- Node56 -->
<g id="node177" class="node"><title>Node56</title>
<polygon fill="none" stroke="#bfbfbf" points="2830.5,-72.5 2830.5,-93.5 2903.5,-93.5 2903.5,-72.5 2830.5,-72.5"/>
<text text-anchor="middle" x="2867" y="-80.5" font-family="Helvetica,sans-Serif" font-size="10.00">initializer_list</text>
</g>
<!-- Node53&#45;&gt;Node56 -->
<g id="edge242" class="edge"><title>Node53&#45;&gt;Node56</title>
<path fill="none" stroke="midnightblue" d="M2968,-130.922C2946.51,-120.726 2919.47,-107.894 2898.77,-98.0744"/>
<polygon fill="midnightblue" stroke="midnightblue" points="2900,-94.7828 2889.46,-93.6584 2897,-101.107 2900,-94.7828"/>
</g>
<!-- Node58 -->
<g id="node185" class="node"><title>Node58</title>
<polygon fill="none" stroke="#bfbfbf" points="3452,-534.5 3452,-555.5 3498,-555.5 3498,-534.5 3452,-534.5"/>
<text text-anchor="middle" x="3475" y="-542.5" font-family="Helvetica,sans-Serif" font-size="10.00">chrono</text>
</g>
<!-- Node57&#45;&gt;Node58 -->
<g id="edge254" class="edge"><title>Node57&#45;&gt;Node58</title>
<path fill="none" stroke="midnightblue" d="M3475,-592.922C3475,-584.67 3475,-574.692 3475,-565.982"/>
<polygon fill="midnightblue" stroke="midnightblue" points="3478.5,-565.852 3475,-555.852 3471.5,-565.852 3478.5,-565.852"/>
</g>
<!-- Node59&#45;&gt;Node16 -->
<g id="edge342" class="edge"><title>Node59&#45;&gt;Node16</title>
<path fill="none" stroke="midnightblue" d="M2330.23,-599.404C2314.92,-589.293 2292.15,-573.105 2275,-556 2220.63,-501.757 2218.71,-478.184 2171,-418 2132.19,-369.036 2112.41,-364.012 2081,-310 2063.82,-280.457 2064.68,-270.466 2054,-238 2038.35,-190.403 2023.06,-133.531 2015.29,-103.664"/>
<polygon fill="midnightblue" stroke="midnightblue" points="2018.58,-102.422 2012.69,-93.6153 2011.8,-104.173 2018.58,-102.422"/>
</g>
<!-- Node59&#45;&gt;Node20 -->
<g id="edge346" class="edge"><title>Node59&#45;&gt;Node20</title>
<path fill="none" stroke="midnightblue" d="M2280.32,-608.074C1930.14,-597.309 313.94,-539.309 164,-382 86.696,-300.897 87.8826,-218.184 157,-130 169.275,-114.339 220.625,-98.9789 254.438,-90.2779"/>
<polygon fill="midnightblue" stroke="midnightblue" points="255.46,-93.6299 264.306,-87.7984 253.754,-86.8409 255.46,-93.6299"/>
</g>
<!-- Node59&#45;&gt;Node21 -->
<g id="edge348" class="edge"><title>Node59&#45;&gt;Node21</title>
<path fill="none" stroke="midnightblue" d="M2413.85,-603.949C2504.2,-595.121 2660.08,-577.408 2713,-556 2802.75,-519.689 2890,-525.822 2890,-429 2890,-429 2890,-429 2890,-220 2890,-175.859 2879.87,-160.543 2848,-130 2841.77,-124.03 2797.96,-106.716 2766.76,-94.856"/>
<polygon fill="midnightblue" stroke="midnightblue" points="2767.73,-91.4808 2757.14,-91.2182 2765.26,-98.0285 2767.73,-91.4808"/>
</g>
<!-- Node59&#45;&gt;Node24 -->
<g id="edge340" class="edge"><title>Node59&#45;&gt;Node24</title>
<path fill="none" stroke="midnightblue" d="M2413.52,-607.747C2619.34,-599.899 3232,-569.603 3232,-487 3232,-487 3232,-487 3232,-429 3232,-301.516 3175.76,-155.371 3153.72,-102.976"/>
<polygon fill="midnightblue" stroke="midnightblue" points="3156.82,-101.339 3149.68,-93.5183 3150.39,-104.089 3156.82,-101.339"/>
</g>
<!-- Node59&#45;&gt;Node35 -->
<g id="edge262" class="edge"><title>Node59&#45;&gt;Node35</title>
<path fill="none" stroke="midnightblue" d="M2282.32,-599.467C2142.91,-575.597 1820.26,-513.691 1740,-440 1709.01,-411.542 1669.75,-289.193 1654.98,-240.301"/>
<polygon fill="midnightblue" stroke="midnightblue" points="1658.28,-239.119 1652.06,-230.54 1651.57,-241.124 1658.28,-239.119"/>
</g>
<!-- Node59&#45;&gt;Node37 -->
<g id="edge344" class="edge"><title>Node59&#45;&gt;Node37</title>
<path fill="none" stroke="midnightblue" d="M2413.71,-608.288C2575.08,-603.667 2982.98,-588.998 3115,-556 3243.26,-523.941 3384,-561.21 3384,-429 3384,-429 3384,-429 3384,-364 3384,-255.942 3302.66,-145.035 3267.2,-101.826"/>
<polygon fill="midnightblue" stroke="midnightblue" points="3269.66,-99.3145 3260.57,-93.882 3264.29,-103.801 3269.66,-99.3145"/>
</g>
<!-- Node59&#45;&gt;Node40 -->
<g id="edge266" class="edge"><title>Node59&#45;&gt;Node40</title>
<path fill="none" stroke="midnightblue" d="M2312.75,-599.412C2249.48,-579.792 2110.01,-536.295 1993,-498 1936.05,-479.36 1870.44,-457.013 1829.34,-442.907"/>
<polygon fill="midnightblue" stroke="midnightblue" points="1830.29,-439.532 1819.7,-439.593 1828.02,-446.152 1830.29,-439.532"/>
</g>
<!-- Node59&#45;&gt;Node43 -->
<g id="edge336" class="edge"><title>Node59&#45;&gt;Node43</title>
<path fill="none" stroke="midnightblue" d="M2280.27,-604.727C2194.16,-597.245 2039.95,-581.543 1910,-556 1873.4,-548.805 1865.33,-542.451 1829,-534 1768.68,-519.97 1699.23,-506.784 1650.24,-497.97"/>
<polygon fill="midnightblue" stroke="midnightblue" points="1650.57,-494.474 1640.11,-496.157 1649.34,-501.364 1650.57,-494.474"/>
</g>
<!-- Node59&#45;&gt;Node44 -->
<g id="edge264" class="edge"><title>Node59&#45;&gt;Node44</title>
<path fill="none" stroke="midnightblue" d="M2280.49,-608.353C2160.92,-604.552 1902.08,-592.486 1687,-556 1586.03,-538.872 1558.5,-537.458 1464,-498 1429.83,-483.733 1393.65,-460.788 1370.95,-445.315"/>
<polygon fill="midnightblue" stroke="midnightblue" points="1372.88,-442.393 1362.67,-439.586 1368.9,-448.151 1372.88,-442.393"/>
</g>
<!-- Node59&#45;&gt;Node45 -->
<g id="edge338" class="edge"><title>Node59&#45;&gt;Node45</title>
<path fill="none" stroke="midnightblue" d="M2368.12,-599.368C2384.43,-590.09 2406.28,-575.123 2419,-556 2440.82,-523.202 2447.76,-476.631 2449.97,-449.95"/>
<polygon fill="midnightblue" stroke="midnightblue" points="2453.47,-450.045 2450.66,-439.831 2446.49,-449.571 2453.47,-450.045"/>
</g>
<!-- Node60 -->
<g id="node194" class="node"><title>Node60</title>
<a xlink:href="block__alloc__strategy_8hpp.html" target="_top" xlink:title="thrill/io/block_alloc\l_strategy.hpp">
<polygon fill="none" stroke="black" points="2765.5,-275 2765.5,-309 2862.5,-309 2862.5,-275 2765.5,-275"/>
<text text-anchor="start" x="2773.5" y="-296" font-family="Helvetica,sans-Serif" font-size="10.00">thrill/io/block_alloc</text>
<text text-anchor="middle" x="2814" y="-283" font-family="Helvetica,sans-Serif" font-size="10.00">_strategy.hpp</text>
</a>
</g>
<!-- Node59&#45;&gt;Node60 -->
<g id="edge268" class="edge"><title>Node59&#45;&gt;Node60</title>
<path fill="none" stroke="midnightblue" d="M2413.73,-602.684C2495.75,-593.065 2629.73,-575.13 2676,-556 2716.92,-539.082 2731.65,-534.3 2757,-498 2795.9,-442.307 2808.31,-360.925 2812.23,-319.074"/>
<polygon fill="midnightblue" stroke="midnightblue" points="2815.72,-319.345 2813.07,-309.086 2808.74,-318.757 2815.72,-319.345"/>
</g>
<!-- Node61 -->
<g id="node196" class="node"><title>Node61</title>
<a xlink:href="config__file_8hpp.html" target="_top" xlink:title="thrill/io/config_file.hpp">
<polygon fill="none" stroke="black" points="2515.5,-209.5 2515.5,-230.5 2626.5,-230.5 2626.5,-209.5 2515.5,-209.5"/>
<text text-anchor="middle" x="2571" y="-217.5" font-family="Helvetica,sans-Serif" font-size="10.00">thrill/io/config_file.hpp</text>
</a>
</g>
<!-- Node59&#45;&gt;Node61 -->
<g id="edge294" class="edge"><title>Node59&#45;&gt;Node61</title>
<path fill="none" stroke="midnightblue" d="M2369.9,-599.493C2389.32,-589.894 2417.25,-574.415 2438,-556 2486.6,-512.862 2500.15,-499.176 2527,-440 2558.12,-371.411 2567.33,-280.919 2569.98,-240.746"/>
<polygon fill="midnightblue" stroke="midnightblue" points="2573.48,-240.787 2570.57,-230.599 2566.49,-240.376 2573.48,-240.787"/>
</g>
<!-- Node63 -->
<g id="node211" class="node"><title>Node63</title>
<a xlink:href="create__file_8hpp.html" target="_top" xlink:title="thrill/io/create_file.hpp">
<polygon fill="none" stroke="black" points="1300,-534.5 1300,-555.5 1412,-555.5 1412,-534.5 1300,-534.5"/>
<text text-anchor="middle" x="1356" y="-542.5" font-family="Helvetica,sans-Serif" font-size="10.00">thrill/io/create_file.hpp</text>
</a>
</g>
<!-- Node59&#45;&gt;Node63 -->
<g id="edge296" class="edge"><title>Node59&#45;&gt;Node63</title>
<path fill="none" stroke="midnightblue" d="M2280.36,-608.316C2128.44,-603.991 1744.9,-590.323 1426,-556 1424.73,-555.863 1423.44,-555.719 1422.15,-555.569"/>
<polygon fill="midnightblue" stroke="midnightblue" points="1422.46,-552.08 1412.1,-554.308 1421.59,-559.026 1422.46,-552.08"/>
</g>
<!-- Node64 -->
<g id="node215" class="node"><title>Node64</title>
<a xlink:href="disk__allocator_8hpp.html" target="_top" xlink:title="thrill/io/disk_allocator.hpp">
<polygon fill="none" stroke="black" points="2283.5,-534.5 2283.5,-555.5 2410.5,-555.5 2410.5,-534.5 2283.5,-534.5"/>
<text text-anchor="middle" x="2347" y="-542.5" font-family="Helvetica,sans-Serif" font-size="10.00">thrill/io/disk_allocator.hpp</text>
</a>
</g>
<!-- Node59&#45;&gt;Node64 -->
<g id="edge302" class="edge"><title>Node59&#45;&gt;Node64</title>
<path fill="none" stroke="midnightblue" d="M2347,-599.267C2347,-590.18 2347,-576.892 2347,-565.74"/>
<polygon fill="midnightblue" stroke="midnightblue" points="2350.5,-565.534 2347,-555.534 2343.5,-565.534 2350.5,-565.534"/>
</g>
<!-- Node60&#45;&gt;Node18 -->
<g id="edge290" class="edge"><title>Node60&#45;&gt;Node18</title>
<path fill="none" stroke="midnightblue" d="M2784.1,-274.897C2719.17,-238.903 2559.29,-156.468 2413,-130 2057.96,-65.7646 1962.39,-111.175 1602,-94 1538.03,-90.9516 1463.43,-87.0828 1420.75,-84.8397"/>
<polygon fill="midnightblue" stroke="midnightblue" points="1420.79,-81.3367 1410.62,-84.306 1420.42,-88.3271 1420.79,-81.3367"/>
</g>
<!-- Node60&#45;&gt;Node21 -->
<g id="edge292" class="edge"><title>Node60&#45;&gt;Node21</title>
<path fill="none" stroke="midnightblue" d="M2821.71,-274.854C2834.55,-243.501 2856.25,-175.927 2828,-130 2820.96,-118.556 2790.78,-104.569 2766.68,-94.8434"/>
<polygon fill="midnightblue" stroke="midnightblue" points="2767.73,-91.495 2757.15,-91.0837 2765.17,-98.0073 2767.73,-91.495"/>
</g>
<!-- Node60&#45;&gt;Node24 -->
<g id="edge288" class="edge"><title>Node60&#45;&gt;Node24</title>
<path fill="none" stroke="midnightblue" d="M2862.68,-279.687C2922.72,-262.509 3025.25,-226.461 3094,-166 3113.93,-148.472 3128.59,-121.242 3136.95,-102.793"/>
<polygon fill="midnightblue" stroke="midnightblue" points="3140.19,-104.132 3140.94,-93.5638 3133.76,-101.353 3140.19,-104.132"/>
</g>
<!-- Node60&#45;&gt;Node61 -->
<g id="edge270" class="edge"><title>Node60&#45;&gt;Node61</title>
<path fill="none" stroke="midnightblue" d="M2765.41,-277.603C2721.94,-264.723 2658.72,-245.99 2616.29,-233.419"/>
<polygon fill="midnightblue" stroke="midnightblue" points="2617.09,-230.005 2606.51,-230.52 2615.1,-236.717 2617.09,-230.005"/>
</g>
<!-- Node61&#45;&gt;Node16 -->
<g id="edge280" class="edge"><title>Node61&#45;&gt;Node16</title>
<path fill="none" stroke="midnightblue" d="M2564.48,-209.282C2551.8,-189.544 2521.72,-147.837 2484,-130 2397.41,-89.0554 2152.99,-113.123 2042.75,-93.7887"/>
<polygon fill="midnightblue" stroke="midnightblue" points="2043.32,-90.3325 2032.83,-91.8477 2041.97,-97.2023 2043.32,-90.3325"/>
</g>
<!-- Node61&#45;&gt;Node20 -->
<g id="edge282" class="edge"><title>Node61&#45;&gt;Node20</title>
<path fill="none" stroke="midnightblue" d="M2515.32,-216.009C2456.59,-211.931 2361.33,-205.687 2279,-202 1706.91,-176.379 1561.78,-212.468 991,-166 872.093,-156.32 843.435,-144.337 725,-130 571.572,-111.427 387.567,-93.0205 315.789,-85.9883"/>
<polygon fill="midnightblue" stroke="midnightblue" points="315.934,-82.4859 305.641,-84.9967 315.253,-89.4527 315.934,-82.4859"/>
</g>
<!-- Node61&#45;&gt;Node21 -->
<g id="edge286" class="edge"><title>Node61&#45;&gt;Node21</title>
<path fill="none" stroke="midnightblue" d="M2566.18,-209.282C2558.76,-190.983 2547.17,-153.427 2565,-130 2581.61,-108.175 2658.22,-93.88 2702.72,-87.2639"/>
<polygon fill="midnightblue" stroke="midnightblue" points="2703.36,-90.7084 2712.76,-85.8208 2702.36,-83.7797 2703.36,-90.7084"/>
</g>
<!-- Node61&#45;&gt;Node26 -->
<g id="edge278" class="edge"><title>Node61&#45;&gt;Node26</title>
<path fill="none" stroke="midnightblue" d="M2554.68,-209.492C2520.65,-187.777 2442.78,-139.211 2413,-130 2409.77,-129.002 2000.19,-95.7998 1876.79,-85.8135"/>
<polygon fill="midnightblue" stroke="midnightblue" points="1876.99,-82.3188 1866.74,-85.0008 1876.43,-89.296 1876.99,-82.3188"/>
</g>
<!-- Node61&#45;&gt;Node38 -->
<g id="edge284" class="edge"><title>Node61&#45;&gt;Node38</title>
<path fill="none" stroke="midnightblue" d="M2536.41,-209.407C2505.03,-199.419 2457.73,-183.414 2418,-166 2415.96,-165.107 2413.88,-164.141 2411.8,-163.137"/>
<polygon fill="midnightblue" stroke="midnightblue" points="2413.32,-159.986 2402.82,-158.596 2410.16,-166.232 2413.32,-159.986"/>
</g>
<!-- Node62 -->
<g id="node198" class="node"><title>Node62</title>
<a xlink:href="singleton_8hpp.html" target="_top" xlink:title="thrill/common/singleton.hpp">
<polygon fill="none" stroke="black" points="2574,-137.5 2574,-158.5 2710,-158.5 2710,-137.5 2574,-137.5"/>
<text text-anchor="middle" x="2642" y="-145.5" font-family="Helvetica,sans-Serif" font-size="10.00">thrill/common/singleton.hpp</text>
</a>
</g>
<!-- Node61&#45;&gt;Node62 -->
<g id="edge272" class="edge"><title>Node61&#45;&gt;Node62</title>
<path fill="none" stroke="midnightblue" d="M2581.48,-209.376C2592.7,-197.997 2610.71,-179.735 2624.17,-166.085"/>
<polygon fill="midnightblue" stroke="midnightblue" points="2626.95,-168.245 2631.48,-158.667 2621.97,-163.33 2626.95,-168.245"/>
</g>
<!-- Node62&#45;&gt;Node16 -->
<g id="edge274" class="edge"><title>Node62&#45;&gt;Node16</title>
<path fill="none" stroke="midnightblue" d="M2577.97,-137.497C2559.91,-134.779 2540.21,-132.045 2522,-130 2312.19,-106.445 2252.56,-137.276 2042.61,-93.9169"/>
<polygon fill="midnightblue" stroke="midnightblue" points="2043.33,-90.4913 2032.83,-91.8646 2041.9,-97.3423 2043.33,-90.4913"/>
</g>
<!-- Node62&#45;&gt;Node37 -->
<g id="edge276" class="edge"><title>Node62&#45;&gt;Node37</title>
<path fill="none" stroke="midnightblue" d="M2710.34,-142.455C2812.96,-133.837 3012.88,-115.917 3182,-94 3194.07,-92.4363 3207.27,-90.4095 3218.86,-88.5224"/>
<polygon fill="midnightblue" stroke="midnightblue" points="3219.69,-91.9333 3228.98,-86.8459 3218.55,-85.0274 3219.69,-91.9333"/>
</g>
<!-- Node63&#45;&gt;Node20 -->
<g id="edge300" class="edge"><title>Node63&#45;&gt;Node20</title>
<path fill="none" stroke="midnightblue" d="M1308.67,-534.492C1241.28,-519.813 1113.69,-493.057 1004,-476 959.018,-469.005 223.406,-412.925 190,-382 142.968,-338.46 143.863,-178.854 176,-130 193.22,-103.822 228.437,-92.1601 254.198,-87.0059"/>
<polygon fill="midnightblue" stroke="midnightblue" points="255,-90.4183 264.235,-85.2251 253.777,-83.5259 255,-90.4183"/>
</g>
<!-- Node63&#45;&gt;Node43 -->
<g id="edge298" class="edge"><title>Node63&#45;&gt;Node43</title>
<path fill="none" stroke="midnightblue" d="M1397.83,-534.497C1436.39,-524.816 1493.74,-510.416 1535.18,-500.01"/>
<polygon fill="midnightblue" stroke="midnightblue" points="1536.24,-503.353 1545.09,-497.523 1534.54,-496.564 1536.24,-503.353"/>
</g>
<!-- Node64&#45;&gt;Node24 -->
<g id="edge324" class="edge"><title>Node64&#45;&gt;Node24</title>
<path fill="none" stroke="midnightblue" d="M2379.89,-534.467C2407.03,-525.515 2446.41,-511.931 2480,-498 2727.16,-395.5 2793.18,-375.035 3023,-238 3069.73,-210.136 3091,-210.713 3122,-166 3134.98,-147.275 3140.66,-121.435 3143.13,-103.585"/>
<polygon fill="midnightblue" stroke="midnightblue" points="3146.6,-103.975 3144.29,-93.6375 3139.65,-103.165 3146.6,-103.975"/>
</g>
<!-- Node64&#45;&gt;Node26 -->
<g id="edge326" class="edge"><title>Node64&#45;&gt;Node26</title>
<path fill="none" stroke="midnightblue" d="M2315.08,-534.497C2260.31,-516.493 2152.59,-481.167 2135,-476 2037.57,-447.385 2012.61,-442.24 1914,-418 1844.48,-400.912 1801.61,-437.993 1757,-382 1721.4,-337.311 1802.85,-161.983 1832.07,-102.706"/>
<polygon fill="midnightblue" stroke="midnightblue" points="1835.26,-104.144 1836.58,-93.6317 1828.99,-101.026 1835.26,-104.144"/>
</g>
<!-- Node64&#45;&gt;Node34 -->
<g id="edge322" class="edge"><title>Node64&#45;&gt;Node34</title>
<path fill="none" stroke="midnightblue" d="M2351.21,-534.303C2363.03,-502.38 2393.03,-406.28 2352,-346 2341.72,-330.9 2300.23,-315.833 2265.58,-305.466"/>
<polygon fill="midnightblue" stroke="midnightblue" points="2266.13,-301.982 2255.55,-302.538 2264.17,-308.701 2266.13,-301.982"/>
</g>
<!-- Node64&#45;&gt;Node37 -->
<g id="edge330" class="edge"><title>Node64&#45;&gt;Node37</title>
<path fill="none" stroke="midnightblue" d="M2397.34,-534.491C2462.7,-520.871 2580.32,-496.445 2681,-476 2890.19,-433.518 2969.44,-492.632 3152,-382 3243.12,-326.779 3243.68,-271.833 3256,-166 3258.46,-144.913 3256.44,-120.663 3254.28,-103.842"/>
<polygon fill="midnightblue" stroke="midnightblue" points="3257.68,-102.924 3252.81,-93.5148 3250.75,-103.907 3257.68,-102.924"/>
</g>
<!-- Node64&#45;&gt;Node38 -->
<g id="edge334" class="edge"><title>Node64&#45;&gt;Node38</title>
<path fill="none" stroke="midnightblue" d="M2380.01,-534.488C2418.91,-520.113 2481.71,-490.208 2509,-440 2563.14,-340.384 2449.69,-212.428 2402.92,-165.91"/>
<polygon fill="midnightblue" stroke="midnightblue" points="2405.12,-163.163 2395.52,-158.676 2400.22,-168.169 2405.12,-163.163"/>
</g>
<!-- Node64&#45;&gt;Node40 -->
<g id="edge304" class="edge"><title>Node64&#45;&gt;Node40</title>
<path fill="none" stroke="midnightblue" d="M2289.01,-534.478C2238.89,-525.263 2164.56,-511.3 2100,-498 2007.64,-478.971 1900.35,-454.681 1838.99,-440.579"/>
<polygon fill="midnightblue" stroke="midnightblue" points="1839.71,-437.154 1829.17,-438.322 1838.14,-443.975 1839.71,-437.154"/>
</g>
<!-- Node64&#45;&gt;Node42 -->
<g id="edge332" class="edge"><title>Node64&#45;&gt;Node42</title>
<path fill="none" stroke="midnightblue" d="M2306.28,-534.486C2180.64,-502.046 1800.37,-403.859 1681.74,-373.229"/>
<polygon fill="midnightblue" stroke="midnightblue" points="1682.61,-369.837 1672.05,-370.726 1680.86,-376.615 1682.61,-369.837"/>
</g>
<!-- Node64&#45;&gt;Node43 -->
<g id="edge320" class="edge"><title>Node64&#45;&gt;Node43</title>
<path fill="none" stroke="midnightblue" d="M2283.18,-540.13C2139.92,-529.196 1794.07,-502.803 1650.81,-491.87"/>
<polygon fill="midnightblue" stroke="midnightblue" points="1650.68,-488.35 1640.44,-491.078 1650.15,-495.329 1650.68,-488.35"/>
</g>
<!-- Node65 -->
<g id="node218" class="node"><title>Node65</title>
<a xlink:href="error__handling_8hpp.html" target="_top" xlink:title="thrill/io/error_handling.hpp">
<polygon fill="none" stroke="black" points="2034,-418.5 2034,-439.5 2162,-439.5 2162,-418.5 2034,-418.5"/>
<text text-anchor="middle" x="2098" y="-426.5" font-family="Helvetica,sans-Serif" font-size="10.00">thrill/io/error_handling.hpp</text>
</a>
</g>
<!-- Node64&#45;&gt;Node65 -->
<g id="edge306" class="edge"><title>Node64&#45;&gt;Node65</title>
<path fill="none" stroke="midnightblue" d="M2325.78,-534.498C2297.95,-520.782 2247.53,-496.145 2204,-476 2180.03,-464.905 2152.78,-452.836 2131.91,-443.706"/>
<polygon fill="midnightblue" stroke="midnightblue" points="2133.08,-440.398 2122.52,-439.605 2130.28,-446.813 2133.08,-440.398"/>
</g>
<!-- Node64&#45;&gt;Node67 -->
<g id="edge328" class="edge"><title>Node64&#45;&gt;Node67</title>
<path fill="none" stroke="midnightblue" d="M2410.53,-535.095C2487.39,-523.112 2614.47,-503.297 2678.9,-493.253"/>
<polygon fill="midnightblue" stroke="midnightblue" points="2679.71,-496.668 2689.05,-491.669 2678.63,-489.752 2679.71,-496.668"/>
</g>
<!-- Node65&#45;&gt;Node19 -->
<g id="edge318" class="edge"><title>Node65&#45;&gt;Node19</title>
<path fill="none" stroke="midnightblue" d="M2034.25,-418.499C1984.42,-409.488 1919.91,-395.804 1897,-382 1865.21,-362.839 1702.19,-163.427 1651.84,-101.345"/>
<polygon fill="midnightblue" stroke="midnightblue" points="1654.52,-99.0961 1645.5,-93.5295 1649.08,-103.503 1654.52,-99.0961"/>
</g>
<!-- Node65&#45;&gt;Node34 -->
<g id="edge312" class="edge"><title>Node65&#45;&gt;Node34</title>
<path fill="none" stroke="midnightblue" d="M2103.11,-418.288C2111.33,-401.706 2128.64,-369.309 2149,-346 2161.38,-331.823 2177.75,-318.408 2191.08,-308.495"/>
<polygon fill="midnightblue" stroke="midnightblue" points="2193.29,-311.216 2199.34,-302.514 2189.19,-305.548 2193.29,-311.216"/>
</g>
<!-- Node65&#45;&gt;Node35 -->
<g id="edge308" class="edge"><title>Node65&#45;&gt;Node35</title>
<path fill="none" stroke="midnightblue" d="M2033.8,-419.753C1975.21,-410.659 1893.42,-396.123 1864,-382 1841.53,-371.212 1840.62,-361.373 1821,-346 1769.11,-305.342 1706.18,-260.277 1672.68,-236.611"/>
<polygon fill="midnightblue" stroke="midnightblue" points="1674.62,-233.699 1664.43,-230.798 1670.59,-239.42 1674.62,-233.699"/>
</g>
<!-- Node65&#45;&gt;Node41 -->
<g id="edge316" class="edge"><title>Node65&#45;&gt;Node41</title>
<path fill="none" stroke="midnightblue" d="M2033.75,-418.872C1959.64,-407.036 1845.44,-388.269 1826,-382 1823.2,-381.096 1820.33,-380.015 1817.51,-378.839"/>
<polygon fill="midnightblue" stroke="midnightblue" points="1818.71,-375.542 1808.16,-374.589 1815.81,-381.914 1818.71,-375.542"/>
</g>
<!-- Node65&#45;&gt;Node48 -->
<g id="edge310" class="edge"><title>Node65&#45;&gt;Node48</title>
<path fill="none" stroke="midnightblue" d="M2117.06,-418.412C2136.1,-407.836 2165.56,-391.465 2187.21,-379.441"/>
<polygon fill="midnightblue" stroke="midnightblue" points="2188.91,-382.5 2195.95,-374.584 2185.51,-376.38 2188.91,-382.5"/>
</g>
<!-- Node66 -->
<g id="node223" class="node"><title>Node66</title>
<polygon fill="none" stroke="#bfbfbf" points="1906,-353.5 1906,-374.5 1950,-374.5 1950,-353.5 1906,-353.5"/>
<text text-anchor="middle" x="1928" y="-361.5" font-family="Helvetica,sans-Serif" font-size="10.00">cerrno</text>
</g>
<!-- Node65&#45;&gt;Node66 -->
<g id="edge314" class="edge"><title>Node65&#45;&gt;Node66</title>
<path fill="none" stroke="midnightblue" d="M2064.24,-418.469C2036.87,-409.62 1997.49,-396.177 1964,-382 1961.77,-381.058 1959.49,-380.041 1957.21,-378.988"/>
<polygon fill="midnightblue" stroke="midnightblue" points="1958.5,-375.725 1947.97,-374.547 1955.47,-382.034 1958.5,-375.725"/>
</g>
</g>
</svg>
