<?xml version="1.0" encoding="UTF-8" standalone="no"?>
<!DOCTYPE svg PUBLIC "-//W3C//DTD SVG 1.1//EN"
 "http://www.w3.org/Graphics/SVG/1.1/DTD/svg11.dtd">
<!-- Generated by graphviz version 2.40.1 (20161225.0304)
 -->
<!-- Title: extlib/tlx/tlx/math/bswap_le.hpp Pages: 1 -->
<svg width="258pt" height="151pt"
 viewBox="0.00 0.00 258.00 151.00" xmlns="http://www.w3.org/2000/svg" xmlns:xlink="http://www.w3.org/1999/xlink">
<g id="graph0" class="graph" transform="scale(1 1) rotate(0) translate(4 147)">
<title>extlib/tlx/tlx/math/bswap_le.hpp</title>
<!-- Node0 -->
<g id="node1" class="node">
<title>Node0</title>
<polygon fill="#bfbfbf" stroke="#000000" points="74.5,-112.5 74.5,-142.5 178.5,-142.5 178.5,-112.5 74.5,-112.5"/>
<text text-anchor="start" x="82.5" y="-130.5" font-family="Helvetica,sans-Serif" font-size="10.00" fill="#000000">extlib/tlx/tlx/math</text>
<text text-anchor="middle" x="126.5" y="-119.5" font-family="Helvetica,sans-Serif" font-size="10.00" fill="#000000">/bswap_le.hpp</text>
</g>
<!-- Node1 -->
<g id="node2" class="node">
<title>Node1</title>
<g id="a_node2"><a xlink:href="endian_8hpp.html" target="_top" xlink:title="tlx/define/endian.hpp">
<polygon fill="none" stroke="#000000" points="0,-56.5 0,-75.5 119,-75.5 119,-56.5 0,-56.5"/>
<text text-anchor="middle" x="59.5" y="-63.5" font-family="Helvetica,sans-Serif" font-size="10.00" fill="#000000">tlx/define/endian.hpp</text>
</a>
</g>
</g>
<!-- Node0&#45;&gt;Node1 -->
<g id="edge1" class="edge">
<title>Node0&#45;&gt;Node1</title>
<path fill="none" stroke="#191970" d="M109.9382,-112.2977C100.1535,-103.3163 87.7526,-91.9334 77.6957,-82.702"/>
<polygon fill="#191970" stroke="#191970" points="79.9613,-80.0307 70.2275,-75.8469 75.2278,-85.1876 79.9613,-80.0307"/>
</g>
<!-- Node2 -->
<g id="node3" class="node">
<title>Node2</title>
<g id="a_node3"><a xlink:href="bswap_8hpp.html" target="_top" xlink:title="tlx/math/bswap.hpp">
<polygon fill="none" stroke="#000000" points="137,-56.5 137,-75.5 250,-75.5 250,-56.5 137,-56.5"/>
<text text-anchor="middle" x="193.5" y="-63.5" font-family="Helvetica,sans-Serif" font-size="10.00" fill="#000000">tlx/math/bswap.hpp</text>
</a>
</g>
</g>
<!-- Node0&#45;&gt;Node2 -->
<g id="edge2" class="edge">
<title>Node0&#45;&gt;Node2</title>
<path fill="none" stroke="#191970" d="M143.0618,-112.2977C152.8465,-103.3163 165.2474,-91.9334 175.3043,-82.702"/>
<polygon fill="#191970" stroke="#191970" points="177.7722,-85.1876 182.7725,-75.8469 173.0387,-80.0307 177.7722,-85.1876"/>
</g>
<!-- Node3 -->
<g id="node4" class="node">
<title>Node3</title>
<polygon fill="none" stroke="#bfbfbf" points="168.5,-.5 168.5,-19.5 218.5,-19.5 218.5,-.5 168.5,-.5"/>
<text text-anchor="middle" x="193.5" y="-7.5" font-family="Helvetica,sans-Serif" font-size="10.00" fill="#000000">cstdint</text>
</g>
<!-- Node2&#45;&gt;Node3 -->
<g id="edge3" class="edge">
<title>Node2&#45;&gt;Node3</title>
<path fill="none" stroke="#191970" d="M193.5,-56.2455C193.5,-48.9382 193.5,-38.6944 193.5,-29.7046"/>
<polygon fill="#191970" stroke="#191970" points="197.0001,-29.6426 193.5,-19.6427 190.0001,-29.6427 197.0001,-29.6426"/>
</g>
</g>
</svg>
