<?xml version="1.0" encoding="UTF-8" standalone="no"?>
<!DOCTYPE svg PUBLIC "-//W3C//DTD SVG 1.1//EN"
 "http://www.w3.org/Graphics/SVG/1.1/DTD/svg11.dtd">
<!-- Generated by graphviz version 2.26.3 (20100126.1600)
 -->
<!-- Title: thrill/net/buffer_ref.hpp Pages: 1 -->
<svg width="1704pt" height="522pt"
 viewBox="0.00 0.00 1704.00 522.00" xmlns="http://www.w3.org/2000/svg" xmlns:xlink="http://www.w3.org/1999/xlink">
<g id="graph1" class="graph" transform="scale(1 1) rotate(0) translate(4 518)">
<title>thrill/net/buffer_ref.hpp</title>
<!-- Node1 -->
<g id="node1" class="node"><title>Node1</title>
<polygon fill="#bfbfbf" stroke="black" points="1351,-492.5 1351,-513.5 1465,-513.5 1465,-492.5 1351,-492.5"/>
<text text-anchor="middle" x="1408" y="-500.5" font-family="Helvetica,sans-Serif" font-size="10.00">thrill/net/buffer_ref.hpp</text>
</g>
<!-- Node2 -->
<g id="node3" class="node"><title>Node2</title>
<a xlink:href="buffer_8hpp.html" target="_top" xlink:title="thrill/net/buffer.hpp">
<polygon fill="none" stroke="black" points="1244,-369.5 1244,-390.5 1342,-390.5 1342,-369.5 1244,-369.5"/>
<text text-anchor="middle" x="1293" y="-377.5" font-family="Helvetica,sans-Serif" font-size="10.00">thrill/net/buffer.hpp</text>
</a>
</g>
<!-- Node1&#45;&gt;Node2 -->
<g id="edge2" class="edge"><title>Node1&#45;&gt;Node2</title>
<path fill="none" stroke="midnightblue" d="M1385.13,-492.4C1369.29,-484.187 1348.52,-471.593 1334,-456 1318.83,-439.71 1307.46,-416.751 1300.59,-400.338"/>
<polygon fill="midnightblue" stroke="midnightblue" points="1303.68,-398.632 1296.73,-390.634 1297.18,-401.22 1303.68,-398.632"/>
</g>
<!-- Node15 -->
<g id="node29" class="node"><title>Node15</title>
<polygon fill="none" stroke="#bfbfbf" points="1273.5,-58.5 1273.5,-79.5 1314.5,-79.5 1314.5,-58.5 1273.5,-58.5"/>
<text text-anchor="middle" x="1294" y="-66.5" font-family="Helvetica,sans-Serif" font-size="10.00">string</text>
</g>
<!-- Node1&#45;&gt;Node15 -->
<g id="edge140" class="edge"><title>Node1&#45;&gt;Node15</title>
<path fill="none" stroke="midnightblue" d="M1457.84,-492.468C1540.27,-473.598 1696,-431.175 1696,-380 1696,-380 1696,-380 1696,-315 1696,-141.08 1418.86,-86.3794 1324.8,-72.8227"/>
<polygon fill="midnightblue" stroke="midnightblue" points="1325.15,-69.3383 1314.77,-71.4342 1324.19,-76.2722 1325.15,-69.3383"/>
</g>
<!-- Node32 -->
<g id="node89" class="node"><title>Node32</title>
<a xlink:href="buffer__builder_8hpp.html" target="_top" xlink:title="thrill/net/buffer_builder.hpp">
<polygon fill="none" stroke="black" points="1342.5,-434.5 1342.5,-455.5 1473.5,-455.5 1473.5,-434.5 1342.5,-434.5"/>
<text text-anchor="middle" x="1408" y="-442.5" font-family="Helvetica,sans-Serif" font-size="10.00">thrill/net/buffer_builder.hpp</text>
</a>
</g>
<!-- Node1&#45;&gt;Node32 -->
<g id="edge114" class="edge"><title>Node1&#45;&gt;Node32</title>
<path fill="none" stroke="midnightblue" d="M1408,-492.362C1408,-484.922 1408,-474.743 1408,-465.728"/>
<polygon fill="midnightblue" stroke="midnightblue" points="1411.5,-465.571 1408,-455.571 1404.5,-465.571 1411.5,-465.571"/>
</g>
<!-- Node3 -->
<g id="node5" class="node"><title>Node3</title>
<a xlink:href="logger_8hpp.html" target="_top" xlink:title="thrill/common/logger.hpp">
<polygon fill="none" stroke="black" points="925.5,-304.5 925.5,-325.5 1048.5,-325.5 1048.5,-304.5 925.5,-304.5"/>
<text text-anchor="middle" x="987" y="-312.5" font-family="Helvetica,sans-Serif" font-size="10.00">thrill/common/logger.hpp</text>
</a>
</g>
<!-- Node2&#45;&gt;Node3 -->
<g id="edge4" class="edge"><title>Node2&#45;&gt;Node3</title>
<path fill="none" stroke="midnightblue" d="M1243.84,-369.557C1190.13,-358.148 1104.09,-339.873 1046.59,-327.657"/>
<polygon fill="midnightblue" stroke="midnightblue" points="1047.06,-324.18 1036.55,-325.525 1045.6,-331.027 1047.06,-324.18"/>
</g>
<!-- Node11 -->
<g id="node21" class="node"><title>Node11</title>
<polygon fill="none" stroke="#bfbfbf" points="1126.5,-58.5 1126.5,-79.5 1171.5,-79.5 1171.5,-58.5 1126.5,-58.5"/>
<text text-anchor="middle" x="1149" y="-66.5" font-family="Helvetica,sans-Serif" font-size="10.00">cstdlib</text>
</g>
<!-- Node2&#45;&gt;Node11 -->
<g id="edge110" class="edge"><title>Node2&#45;&gt;Node11</title>
<path fill="none" stroke="midnightblue" d="M1288.04,-369.295C1267.1,-324.061 1185.67,-148.203 1158.15,-88.7602"/>
<polygon fill="midnightblue" stroke="midnightblue" points="1161.31,-87.2642 1153.94,-79.6603 1154.96,-90.2054 1161.31,-87.2642"/>
</g>
<!-- Node2&#45;&gt;Node15 -->
<g id="edge112" class="edge"><title>Node2&#45;&gt;Node15</title>
<path fill="none" stroke="midnightblue" d="M1293.03,-369.295C1293.18,-324.341 1293.74,-150.378 1293.93,-89.8789"/>
<polygon fill="midnightblue" stroke="midnightblue" points="1297.43,-89.6715 1293.97,-79.6603 1290.43,-89.649 1297.43,-89.6715"/>
</g>
<!-- Node19 -->
<g id="node38" class="node"><title>Node19</title>
<polygon fill="none" stroke="#bfbfbf" points="1412,-58.5 1412,-79.5 1468,-79.5 1468,-58.5 1412,-58.5"/>
<text text-anchor="middle" x="1440" y="-66.5" font-family="Helvetica,sans-Serif" font-size="10.00">algorithm</text>
</g>
<!-- Node2&#45;&gt;Node19 -->
<g id="edge106" class="edge"><title>Node2&#45;&gt;Node19</title>
<path fill="none" stroke="midnightblue" d="M1314.75,-369.49C1358.05,-347.186 1454.02,-290.487 1491,-210 1510.51,-167.525 1477.56,-115.264 1456.14,-87.843"/>
<polygon fill="midnightblue" stroke="midnightblue" points="1458.69,-85.4255 1449.68,-79.8569 1453.25,-89.8309 1458.69,-85.4255"/>
</g>
<!-- Node21 -->
<g id="node42" class="node"><title>Node21</title>
<polygon fill="none" stroke="#bfbfbf" points="127.5,-58.5 127.5,-79.5 176.5,-79.5 176.5,-58.5 127.5,-58.5"/>
<text text-anchor="middle" x="152" y="-66.5" font-family="Helvetica,sans-Serif" font-size="10.00">cassert</text>
</g>
<!-- Node2&#45;&gt;Node21 -->
<g id="edge108" class="edge"><title>Node2&#45;&gt;Node21</title>
<path fill="none" stroke="midnightblue" d="M1243.91,-377.193C1067.8,-366.713 468.641,-327.404 287,-268 237.8,-251.91 218.268,-250.476 186,-210 157.884,-174.732 152.468,-119.79 151.75,-89.9707"/>
<polygon fill="midnightblue" stroke="midnightblue" points="155.249,-89.8365 151.668,-79.8654 148.25,-89.8937 155.249,-89.8365"/>
</g>
<!-- Node4 -->
<g id="node7" class="node"><title>Node4</title>
<a xlink:href="allocator_8hpp.html" target="_top" xlink:title="thrill/mem/allocator.hpp">
<polygon fill="none" stroke="black" points="381,-246.5 381,-267.5 499,-267.5 499,-246.5 381,-246.5"/>
<text text-anchor="middle" x="440" y="-254.5" font-family="Helvetica,sans-Serif" font-size="10.00">thrill/mem/allocator.hpp</text>
</a>
</g>
<!-- Node3&#45;&gt;Node4 -->
<g id="edge6" class="edge"><title>Node3&#45;&gt;Node4</title>
<path fill="none" stroke="midnightblue" d="M925.315,-308.459C822.595,-297.568 617.166,-275.785 509.489,-264.368"/>
<polygon fill="midnightblue" stroke="midnightblue" points="509.694,-260.87 499.381,-263.296 508.956,-267.831 509.694,-260.87"/>
</g>
<!-- Node14 -->
<g id="node27" class="node"><title>Node14</title>
<polygon fill="none" stroke="#bfbfbf" points="276,-58.5 276,-79.5 328,-79.5 328,-58.5 276,-58.5"/>
<text text-anchor="middle" x="302" y="-66.5" font-family="Helvetica,sans-Serif" font-size="10.00">sstream</text>
</g>
<!-- Node3&#45;&gt;Node14 -->
<g id="edge102" class="edge"><title>Node3&#45;&gt;Node14</title>
<path fill="none" stroke="midnightblue" d="M925.361,-310.582C772.128,-299.562 385.278,-271.488 372,-268 269.102,-240.969 213.356,-235.594 171,-138 153.056,-96.6544 221.148,-79.5766 265.838,-72.9195"/>
<polygon fill="midnightblue" stroke="midnightblue" points="266.374,-76.3787 275.803,-71.547 265.419,-69.4442 266.374,-76.3787"/>
</g>
<!-- Node3&#45;&gt;Node15 -->
<g id="edge104" class="edge"><title>Node3&#45;&gt;Node15</title>
<path fill="none" stroke="midnightblue" d="M1014.29,-304.485C1055.32,-287.948 1134.36,-253.243 1193,-210 1228.92,-183.511 1237.92,-174.916 1263,-138 1273.33,-122.791 1281.64,-103.578 1287.04,-89.2904"/>
<polygon fill="midnightblue" stroke="midnightblue" points="1290.33,-90.4794 1290.45,-79.8853 1283.75,-88.0941 1290.33,-90.4794"/>
</g>
<!-- Node26 -->
<g id="node65" class="node"><title>Node26</title>
<a xlink:href="pool_8hpp.html" target="_top" xlink:title="thrill/mem/pool.hpp">
<polygon fill="none" stroke="black" points="937.5,-246.5 937.5,-267.5 1036.5,-267.5 1036.5,-246.5 937.5,-246.5"/>
<text text-anchor="middle" x="987" y="-254.5" font-family="Helvetica,sans-Serif" font-size="10.00">thrill/mem/pool.hpp</text>
</a>
</g>
<!-- Node3&#45;&gt;Node26 -->
<g id="edge78" class="edge"><title>Node3&#45;&gt;Node26</title>
<path fill="none" stroke="midnightblue" d="M987,-304.362C987,-296.922 987,-286.743 987,-277.728"/>
<polygon fill="midnightblue" stroke="midnightblue" points="990.5,-277.571 987,-267.571 983.5,-277.571 990.5,-277.571"/>
</g>
<!-- Node5 -->
<g id="node9" class="node"><title>Node5</title>
<a xlink:href="allocator__base_8hpp.html" target="_top" xlink:title="thrill/mem/allocator\l_base.hpp">
<polygon fill="none" stroke="black" points="467.5,-175 467.5,-209 566.5,-209 566.5,-175 467.5,-175"/>
<text text-anchor="start" x="475.5" y="-196" font-family="Helvetica,sans-Serif" font-size="10.00">thrill/mem/allocator</text>
<text text-anchor="middle" x="517" y="-183" font-family="Helvetica,sans-Serif" font-size="10.00">_base.hpp</text>
</a>
</g>
<!-- Node4&#45;&gt;Node5 -->
<g id="edge8" class="edge"><title>Node4&#45;&gt;Node5</title>
<path fill="none" stroke="midnightblue" d="M452.715,-246.267C462.526,-237.984 476.472,-226.212 488.868,-215.748"/>
<polygon fill="midnightblue" stroke="midnightblue" points="491.348,-218.235 496.731,-209.11 486.832,-212.886 491.348,-218.235"/>
</g>
<!-- Node8 -->
<g id="node15" class="node"><title>Node8</title>
<polygon fill="none" stroke="#bfbfbf" points="944,-0.5 944,-21.5 1006,-21.5 1006,-0.5 944,-0.5"/>
<text text-anchor="middle" x="975" y="-8.5" font-family="Helvetica,sans-Serif" font-size="10.00">type_traits</text>
</g>
<!-- Node4&#45;&gt;Node8 -->
<g id="edge74" class="edge"><title>Node4&#45;&gt;Node8</title>
<path fill="none" stroke="midnightblue" d="M380.834,-251.56C317.331,-244.729 221.579,-231.261 192,-210 131.146,-166.26 67.4807,-112.426 119,-58 147.298,-28.1061 766.091,-14.7776 933.539,-11.7103"/>
<polygon fill="midnightblue" stroke="midnightblue" points="933.745,-15.2073 943.68,-11.5271 933.618,-8.20841 933.745,-15.2073"/>
</g>
<!-- Node4&#45;&gt;Node15 -->
<g id="edge72" class="edge"><title>Node4&#45;&gt;Node15</title>
<path fill="none" stroke="midnightblue" d="M499.344,-247.483C548.804,-239.083 620.942,-225.745 683,-210 734.501,-196.934 745.057,-185.184 797,-174 929.576,-145.456 967.957,-168.915 1100,-138 1159.59,-124.049 1226.24,-97.8982 1263.86,-82.1047"/>
<polygon fill="midnightblue" stroke="midnightblue" points="1265.38,-85.2607 1273.22,-78.1349 1262.65,-78.8159 1265.38,-85.2607"/>
</g>
<!-- Node16 -->
<g id="node31" class="node"><title>Node16</title>
<polygon fill="none" stroke="#bfbfbf" points="603,-58.5 603,-79.5 647,-79.5 647,-58.5 603,-58.5"/>
<text text-anchor="middle" x="625" y="-66.5" font-family="Helvetica,sans-Serif" font-size="10.00">vector</text>
</g>
<!-- Node4&#45;&gt;Node16 -->
<g id="edge76" class="edge"><title>Node4&#45;&gt;Node16</title>
<path fill="none" stroke="midnightblue" d="M499.255,-246.81C524.91,-239.942 553.844,-228.596 575,-210 610.443,-178.846 620.762,-120.891 623.766,-89.8703"/>
<polygon fill="midnightblue" stroke="midnightblue" points="627.266,-90.0069 624.575,-79.7596 620.289,-89.4487 627.266,-90.0069"/>
</g>
<!-- Node18 -->
<g id="node36" class="node"><title>Node18</title>
<a xlink:href="mem_2manager_8hpp.html" target="_top" xlink:title="thrill/mem/manager.hpp">
<polygon fill="none" stroke="black" points="391.5,-116.5 391.5,-137.5 510.5,-137.5 510.5,-116.5 391.5,-116.5"/>
<text text-anchor="middle" x="451" y="-124.5" font-family="Helvetica,sans-Serif" font-size="10.00">thrill/mem/manager.hpp</text>
</a>
</g>
<!-- Node4&#45;&gt;Node18 -->
<g id="edge60" class="edge"><title>Node4&#45;&gt;Node18</title>
<path fill="none" stroke="midnightblue" d="M440.9,-246.362C442.713,-224.936 446.834,-176.24 449.213,-148.114"/>
<polygon fill="midnightblue" stroke="midnightblue" points="452.732,-148.045 450.087,-137.785 445.757,-147.455 452.732,-148.045"/>
</g>
<!-- Node4&#45;&gt;Node21 -->
<g id="edge62" class="edge"><title>Node4&#45;&gt;Node21</title>
<path fill="none" stroke="midnightblue" d="M380.913,-250.478C341.43,-244.261 289.35,-232.373 248,-210 206.793,-187.704 195.242,-178.093 171,-138 161.984,-123.088 157.144,-103.805 154.61,-89.4166"/>
<polygon fill="midnightblue" stroke="midnightblue" points="158.068,-88.8744 153.092,-79.521 151.149,-89.9362 158.068,-88.8744"/>
</g>
<!-- Node22 -->
<g id="node46" class="node"><title>Node22</title>
<polygon fill="none" stroke="#bfbfbf" points="231.5,-116.5 231.5,-137.5 274.5,-137.5 274.5,-116.5 231.5,-116.5"/>
<text text-anchor="middle" x="253" y="-124.5" font-family="Helvetica,sans-Serif" font-size="10.00">deque</text>
</g>
<!-- Node4&#45;&gt;Node22 -->
<g id="edge64" class="edge"><title>Node4&#45;&gt;Node22</title>
<path fill="none" stroke="midnightblue" d="M419.613,-246.41C402.708,-237.372 378.252,-223.697 358,-210 327.042,-189.061 293.537,-161.67 272.906,-144.2"/>
<polygon fill="midnightblue" stroke="midnightblue" points="275.032,-141.413 265.152,-137.587 270.49,-146.739 275.032,-141.413"/>
</g>
<!-- Node23 -->
<g id="node48" class="node"><title>Node23</title>
<polygon fill="none" stroke="#bfbfbf" points="291.5,-116.5 291.5,-137.5 336.5,-137.5 336.5,-116.5 291.5,-116.5"/>
<text text-anchor="middle" x="314" y="-124.5" font-family="Helvetica,sans-Serif" font-size="10.00">iosfwd</text>
</g>
<!-- Node4&#45;&gt;Node23 -->
<g id="edge66" class="edge"><title>Node4&#45;&gt;Node23</title>
<path fill="none" stroke="midnightblue" d="M429.689,-246.362C408.184,-224.174 358.335,-172.743 331.635,-145.194"/>
<polygon fill="midnightblue" stroke="midnightblue" points="333.927,-142.53 324.454,-137.785 328.9,-147.402 333.927,-142.53"/>
</g>
<!-- Node24 -->
<g id="node50" class="node"><title>Node24</title>
<polygon fill="none" stroke="#bfbfbf" points="179.5,-116.5 179.5,-137.5 214.5,-137.5 214.5,-116.5 179.5,-116.5"/>
<text text-anchor="middle" x="197" y="-124.5" font-family="Helvetica,sans-Serif" font-size="10.00">new</text>
</g>
<!-- Node4&#45;&gt;Node24 -->
<g id="edge70" class="edge"><title>Node4&#45;&gt;Node24</title>
<path fill="none" stroke="midnightblue" d="M399.629,-246.445C372.287,-238.441 335.845,-226.075 306,-210 271.614,-191.479 236.495,-162.57 215.731,-144.219"/>
<polygon fill="midnightblue" stroke="midnightblue" points="218.038,-141.587 208.256,-137.518 213.366,-146.799 218.038,-141.587"/>
</g>
<!-- Node25 -->
<g id="node59" class="node"><title>Node25</title>
<polygon fill="none" stroke="#bfbfbf" points="622,-181.5 622,-202.5 674,-202.5 674,-181.5 622,-181.5"/>
<text text-anchor="middle" x="648" y="-189.5" font-family="Helvetica,sans-Serif" font-size="10.00">memory</text>
</g>
<!-- Node4&#45;&gt;Node25 -->
<g id="edge68" class="edge"><title>Node4&#45;&gt;Node25</title>
<path fill="none" stroke="midnightblue" d="M484.788,-246.419C518.968,-237.878 566.999,-224.865 608,-210 610.913,-208.944 613.91,-207.769 616.892,-206.539"/>
<polygon fill="midnightblue" stroke="midnightblue" points="618.444,-209.682 626.238,-202.505 615.669,-203.255 618.444,-209.682"/>
</g>
<!-- Node6 -->
<g id="node11" class="node"><title>Node6</title>
<a xlink:href="string_8hpp.html" target="_top" xlink:title="thrill/common/string.hpp">
<polygon fill="none" stroke="black" points="717.5,-116.5 717.5,-137.5 838.5,-137.5 838.5,-116.5 717.5,-116.5"/>
<text text-anchor="middle" x="778" y="-124.5" font-family="Helvetica,sans-Serif" font-size="10.00">thrill/common/string.hpp</text>
</a>
</g>
<!-- Node5&#45;&gt;Node6 -->
<g id="edge10" class="edge"><title>Node5&#45;&gt;Node6</title>
<path fill="none" stroke="midnightblue" d="M566.706,-179.621C612.316,-168.262 679.633,-151.498 725.964,-139.959"/>
<polygon fill="midnightblue" stroke="midnightblue" points="726.949,-143.321 735.806,-137.508 725.257,-136.528 726.949,-143.321"/>
</g>
<!-- Node5&#45;&gt;Node8 -->
<g id="edge56" class="edge"><title>Node5&#45;&gt;Node8</title>
<path fill="none" stroke="midnightblue" d="M521.517,-174.564C530.147,-145.087 551.973,-85.8961 594,-58 621.903,-39.4787 840.872,-21.067 933.667,-14.0111"/>
<polygon fill="midnightblue" stroke="midnightblue" points="934.106,-17.488 943.815,-13.2465 933.58,-10.5077 934.106,-17.488"/>
</g>
<!-- Node5&#45;&gt;Node15 -->
<g id="edge54" class="edge"><title>Node5&#45;&gt;Node15</title>
<path fill="none" stroke="midnightblue" d="M566.669,-181.683C581.52,-178.87 597.876,-176.04 613,-174 804.815,-148.131 856.493,-172.191 1047,-138 1057.85,-136.054 1199.64,-95.8505 1263.36,-77.7267"/>
<polygon fill="midnightblue" stroke="midnightblue" points="1264.58,-81.0188 1273.24,-74.9155 1262.66,-74.286 1264.58,-81.0188"/>
</g>
<!-- Node5&#45;&gt;Node16 -->
<g id="edge58" class="edge"><title>Node5&#45;&gt;Node16</title>
<path fill="none" stroke="midnightblue" d="M546.219,-174.942C560.706,-165.429 577.687,-152.569 590,-138 602.279,-123.471 611.684,-103.899 617.637,-89.3116"/>
<polygon fill="midnightblue" stroke="midnightblue" points="621.006,-90.3028 621.353,-79.7136 614.478,-87.7753 621.006,-90.3028"/>
</g>
<!-- Node17 -->
<g id="node33" class="node"><title>Node17</title>
<a xlink:href="malloc__tracker_8hpp.html" target="_top" xlink:title="thrill/mem/malloc_tracker.hpp">
<polygon fill="none" stroke="black" points="893.5,-116.5 893.5,-137.5 1038.5,-137.5 1038.5,-116.5 893.5,-116.5"/>
<text text-anchor="middle" x="966" y="-124.5" font-family="Helvetica,sans-Serif" font-size="10.00">thrill/mem/malloc_tracker.hpp</text>
</a>
</g>
<!-- Node5&#45;&gt;Node17 -->
<g id="edge32" class="edge"><title>Node5&#45;&gt;Node17</title>
<path fill="none" stroke="midnightblue" d="M566.739,-182.155C581.592,-179.356 597.931,-176.414 613,-174 705.224,-159.225 811.53,-145.521 883.183,-136.769"/>
<polygon fill="midnightblue" stroke="midnightblue" points="883.993,-140.196 893.497,-135.514 883.148,-133.247 883.993,-140.196"/>
</g>
<!-- Node5&#45;&gt;Node18 -->
<g id="edge36" class="edge"><title>Node5&#45;&gt;Node18</title>
<path fill="none" stroke="midnightblue" d="M499.659,-174.922C490.35,-165.754 478.876,-154.454 469.408,-145.129"/>
<polygon fill="midnightblue" stroke="midnightblue" points="471.6,-142.375 462.019,-137.852 466.688,-147.363 471.6,-142.375"/>
</g>
<!-- Node20 -->
<g id="node40" class="node"><title>Node20</title>
<polygon fill="none" stroke="#bfbfbf" points="464,-58.5 464,-79.5 510,-79.5 510,-58.5 464,-58.5"/>
<text text-anchor="middle" x="487" y="-66.5" font-family="Helvetica,sans-Serif" font-size="10.00">atomic</text>
</g>
<!-- Node5&#45;&gt;Node20 -->
<g id="edge44" class="edge"><title>Node5&#45;&gt;Node20</title>
<path fill="none" stroke="midnightblue" d="M520.501,-174.975C523.02,-159.288 525.024,-135.551 519,-116 515.841,-105.747 509.596,-95.7278 503.455,-87.5925"/>
<polygon fill="midnightblue" stroke="midnightblue" points="505.991,-85.1612 496.984,-79.5822 500.546,-89.5603 505.991,-85.1612"/>
</g>
<!-- Node5&#45;&gt;Node21 -->
<g id="edge46" class="edge"><title>Node5&#45;&gt;Node21</title>
<path fill="none" stroke="midnightblue" d="M470.092,-174.97C444.047,-165.051 411.29,-151.803 383,-138 365.461,-129.442 363.11,-123.272 345,-116 291.68,-94.5898 226.014,-81.1403 186.658,-74.3582"/>
<polygon fill="midnightblue" stroke="midnightblue" points="187.206,-70.9013 176.765,-72.6988 186.048,-77.8048 187.206,-70.9013"/>
</g>
<!-- Node5&#45;&gt;Node22 -->
<g id="edge48" class="edge"><title>Node5&#45;&gt;Node22</title>
<path fill="none" stroke="midnightblue" d="M467.23,-182.392C421.679,-173.178 352.318,-158.095 284.133,-138.109"/>
<polygon fill="midnightblue" stroke="midnightblue" points="285.105,-134.746 274.522,-135.256 283.113,-141.457 285.105,-134.746"/>
</g>
<!-- Node5&#45;&gt;Node23 -->
<g id="edge50" class="edge"><title>Node5&#45;&gt;Node23</title>
<path fill="none" stroke="midnightblue" d="M467.341,-176.099C429.74,-164.06 379.166,-147.866 346.57,-137.429"/>
<polygon fill="midnightblue" stroke="midnightblue" points="347.249,-133.971 336.658,-134.255 345.115,-140.638 347.249,-133.971"/>
</g>
<!-- Node5&#45;&gt;Node24 -->
<g id="edge52" class="edge"><title>Node5&#45;&gt;Node24</title>
<path fill="none" stroke="midnightblue" d="M467.324,-186.246C410.31,-178.901 314.082,-164.237 224.48,-138.011"/>
<polygon fill="midnightblue" stroke="midnightblue" points="225.297,-134.603 214.714,-135.099 223.296,-141.311 225.297,-134.603"/>
</g>
<!-- Node7 -->
<g id="node13" class="node"><title>Node7</title>
<a xlink:href="defines_8hpp.html" target="_top" xlink:title="thrill/common/defines.hpp">
<polygon fill="none" stroke="black" points="911,-58.5 911,-79.5 1039,-79.5 1039,-58.5 911,-58.5"/>
<text text-anchor="middle" x="975" y="-66.5" font-family="Helvetica,sans-Serif" font-size="10.00">thrill/common/defines.hpp</text>
</a>
</g>
<!-- Node6&#45;&gt;Node7 -->
<g id="edge12" class="edge"><title>Node6&#45;&gt;Node7</title>
<path fill="none" stroke="midnightblue" d="M813.675,-116.497C846.07,-106.959 894.023,-92.8408 929.231,-82.475"/>
<polygon fill="midnightblue" stroke="midnightblue" points="930.654,-85.7049 939.258,-79.5231 928.676,-78.9899 930.654,-85.7049"/>
</g>
<!-- Node9 -->
<g id="node17" class="node"><title>Node9</title>
<polygon fill="none" stroke="#bfbfbf" points="789,-58.5 789,-79.5 827,-79.5 827,-58.5 789,-58.5"/>
<text text-anchor="middle" x="808" y="-66.5" font-family="Helvetica,sans-Serif" font-size="10.00">array</text>
</g>
<!-- Node6&#45;&gt;Node9 -->
<g id="edge16" class="edge"><title>Node6&#45;&gt;Node9</title>
<path fill="none" stroke="midnightblue" d="M783.502,-116.362C787.52,-108.595 793.081,-97.8426 797.89,-88.5458"/>
<polygon fill="midnightblue" stroke="midnightblue" points="801.047,-90.0608 802.532,-79.5707 794.829,-86.8448 801.047,-90.0608"/>
</g>
<!-- Node10 -->
<g id="node19" class="node"><title>Node10</title>
<polygon fill="none" stroke="#bfbfbf" points="844.5,-58.5 844.5,-79.5 893.5,-79.5 893.5,-58.5 844.5,-58.5"/>
<text text-anchor="middle" x="869" y="-66.5" font-family="Helvetica,sans-Serif" font-size="10.00">cstdarg</text>
</g>
<!-- Node6&#45;&gt;Node10 -->
<g id="edge18" class="edge"><title>Node6&#45;&gt;Node10</title>
<path fill="none" stroke="midnightblue" d="M794.691,-116.362C808.416,-107.614 828.084,-95.0786 843.737,-85.1015"/>
<polygon fill="midnightblue" stroke="midnightblue" points="845.863,-87.8969 852.415,-79.5707 842.101,-81.994 845.863,-87.8969"/>
</g>
<!-- Node6&#45;&gt;Node11 -->
<g id="edge20" class="edge"><title>Node6&#45;&gt;Node11</title>
<path fill="none" stroke="midnightblue" d="M838.848,-117.487C918.133,-105.092 1053.97,-83.8572 1116.16,-74.134"/>
<polygon fill="midnightblue" stroke="midnightblue" points="1116.85,-77.5687 1126.19,-72.566 1115.77,-70.6527 1116.85,-77.5687"/>
</g>
<!-- Node12 -->
<g id="node23" class="node"><title>Node12</title>
<polygon fill="none" stroke="#bfbfbf" points="665,-58.5 665,-79.5 705,-79.5 705,-58.5 665,-58.5"/>
<text text-anchor="middle" x="685" y="-66.5" font-family="Helvetica,sans-Serif" font-size="10.00">limits</text>
</g>
<!-- Node6&#45;&gt;Node12 -->
<g id="edge22" class="edge"><title>Node6&#45;&gt;Node12</title>
<path fill="none" stroke="midnightblue" d="M760.942,-116.362C746.915,-107.614 726.816,-95.0786 710.818,-85.1015"/>
<polygon fill="midnightblue" stroke="midnightblue" points="712.287,-81.8927 701.949,-79.5707 708.582,-87.8323 712.287,-81.8927"/>
</g>
<!-- Node13 -->
<g id="node25" class="node"><title>Node13</title>
<polygon fill="none" stroke="#bfbfbf" points="722.5,-58.5 722.5,-79.5 771.5,-79.5 771.5,-58.5 722.5,-58.5"/>
<text text-anchor="middle" x="747" y="-66.5" font-family="Helvetica,sans-Serif" font-size="10.00">random</text>
</g>
<!-- Node6&#45;&gt;Node13 -->
<g id="edge24" class="edge"><title>Node6&#45;&gt;Node13</title>
<path fill="none" stroke="midnightblue" d="M772.314,-116.362C768.163,-108.595 762.416,-97.8426 757.447,-88.5458"/>
<polygon fill="midnightblue" stroke="midnightblue" points="760.45,-86.7401 752.65,-79.5707 754.277,-90.0398 760.45,-86.7401"/>
</g>
<!-- Node6&#45;&gt;Node14 -->
<g id="edge26" class="edge"><title>Node6&#45;&gt;Node14</title>
<path fill="none" stroke="midnightblue" d="M717.231,-119.595C616.968,-107.378 419.895,-83.3653 338.5,-73.4475"/>
<polygon fill="midnightblue" stroke="midnightblue" points="338.605,-69.9345 328.255,-72.1992 337.758,-76.8831 338.605,-69.9345"/>
</g>
<!-- Node6&#45;&gt;Node15 -->
<g id="edge28" class="edge"><title>Node6&#45;&gt;Node15</title>
<path fill="none" stroke="midnightblue" d="M838.709,-120.176C949.347,-107.74 1180.05,-81.8084 1263.25,-72.4564"/>
<polygon fill="midnightblue" stroke="midnightblue" points="1263.77,-75.9199 1273.32,-71.3247 1262.99,-68.9637 1263.77,-75.9199"/>
</g>
<!-- Node6&#45;&gt;Node16 -->
<g id="edge30" class="edge"><title>Node6&#45;&gt;Node16</title>
<path fill="none" stroke="midnightblue" d="M750.293,-116.497C723.91,-106.495 684.238,-91.4562 656.628,-80.9896"/>
<polygon fill="midnightblue" stroke="midnightblue" points="657.64,-77.6303 647.048,-77.3582 655.158,-84.1757 657.64,-77.6303"/>
</g>
<!-- Node7&#45;&gt;Node8 -->
<g id="edge14" class="edge"><title>Node7&#45;&gt;Node8</title>
<path fill="none" stroke="midnightblue" d="M975,-58.3619C975,-50.9219 975,-40.7427 975,-31.7276"/>
<polygon fill="midnightblue" stroke="midnightblue" points="978.5,-31.5706 975,-21.5707 971.5,-31.5707 978.5,-31.5706"/>
</g>
<!-- Node17&#45;&gt;Node11 -->
<g id="edge34" class="edge"><title>Node17&#45;&gt;Node11</title>
<path fill="none" stroke="midnightblue" d="M999.14,-116.497C1032.56,-105.906 1083.8,-89.6654 1116.85,-79.1881"/>
<polygon fill="midnightblue" stroke="midnightblue" points="1118.02,-82.492 1126.49,-76.1342 1115.9,-75.8191 1118.02,-82.492"/>
</g>
<!-- Node18&#45;&gt;Node19 -->
<g id="edge38" class="edge"><title>Node18&#45;&gt;Node19</title>
<path fill="none" stroke="midnightblue" d="M510.523,-124.612C651.682,-118.769 1017.77,-102.565 1323,-80 1349.29,-78.0564 1378.85,-75.2725 1401.68,-72.9917"/>
<polygon fill="midnightblue" stroke="midnightblue" points="1402.06,-76.471 1411.66,-71.984 1401.35,-69.5065 1402.06,-76.471"/>
</g>
<!-- Node18&#45;&gt;Node20 -->
<g id="edge40" class="edge"><title>Node18&#45;&gt;Node20</title>
<path fill="none" stroke="midnightblue" d="M457.603,-116.362C462.475,-108.513 469.238,-97.6159 475.05,-88.2527"/>
<polygon fill="midnightblue" stroke="midnightblue" points="478.139,-89.9129 480.439,-79.5707 472.191,-86.2213 478.139,-89.9129"/>
</g>
<!-- Node18&#45;&gt;Node21 -->
<g id="edge42" class="edge"><title>Node18&#45;&gt;Node21</title>
<path fill="none" stroke="midnightblue" d="M396.853,-116.497C335.766,-104.647 238.224,-85.7258 186.623,-75.7162"/>
<polygon fill="midnightblue" stroke="midnightblue" points="187.123,-72.2479 176.639,-73.7795 185.79,-79.1198 187.123,-72.2479"/>
</g>
<!-- Node26&#45;&gt;Node5 -->
<g id="edge82" class="edge"><title>Node26&#45;&gt;Node5</title>
<path fill="none" stroke="midnightblue" d="M937.258,-251.716C865.471,-243.87 728.732,-228.105 613,-210 601.22,-208.157 588.669,-205.969 576.66,-203.764"/>
<polygon fill="midnightblue" stroke="midnightblue" points="577.199,-200.304 566.727,-201.915 575.918,-207.186 577.199,-200.304"/>
</g>
<!-- Node26&#45;&gt;Node8 -->
<g id="edge96" class="edge"><title>Node26&#45;&gt;Node8</title>
<path fill="none" stroke="midnightblue" d="M1035.61,-246.474C1070.26,-237.87 1112.49,-224.751 1123,-210 1132.28,-196.969 1127.53,-189.346 1123,-174 1105.62,-115.118 1091.45,-101.37 1048,-58 1035.57,-45.5966 1019.34,-34.7498 1005.34,-26.6111"/>
<polygon fill="midnightblue" stroke="midnightblue" points="1006.96,-23.5053 996.523,-21.6647 1003.53,-29.6101 1006.96,-23.5053"/>
</g>
<!-- Node26&#45;&gt;Node15 -->
<g id="edge94" class="edge"><title>Node26&#45;&gt;Node15</title>
<path fill="none" stroke="midnightblue" d="M1036.67,-250.224C1071.86,-243.798 1119.16,-231.767 1156,-210 1210.52,-177.785 1258.26,-118.564 1280.59,-88.1439"/>
<polygon fill="midnightblue" stroke="midnightblue" points="1283.67,-89.8491 1286.68,-79.6895 1277.99,-85.7573 1283.67,-89.8491"/>
</g>
<!-- Node26&#45;&gt;Node16 -->
<g id="edge100" class="edge"><title>Node26&#45;&gt;Node16</title>
<path fill="none" stroke="midnightblue" d="M937.29,-250.855C897.685,-244.538 841.667,-232.36 797,-210 732.341,-177.633 670.242,-117.17 641.556,-87.0354"/>
<polygon fill="midnightblue" stroke="midnightblue" points="644.086,-84.617 634.688,-79.7251 638.984,-89.4098 644.086,-84.617"/>
</g>
<!-- Node26&#45;&gt;Node19 -->
<g id="edge84" class="edge"><title>Node26&#45;&gt;Node19</title>
<path fill="none" stroke="midnightblue" d="M1036.91,-249.844C1079.4,-242.763 1141.56,-230.042 1193,-210 1280.62,-175.861 1374.58,-114.478 1416.95,-85.2832"/>
<polygon fill="midnightblue" stroke="midnightblue" points="1418.97,-88.1419 1425.18,-79.5632 1414.97,-82.3922 1418.97,-88.1419"/>
</g>
<!-- Node26&#45;&gt;Node25 -->
<g id="edge90" class="edge"><title>Node26&#45;&gt;Node25</title>
<path fill="none" stroke="midnightblue" d="M937.428,-253.282C877.376,-247.853 773.616,-235.491 688,-210 684.789,-209.044 681.5,-207.885 678.254,-206.62"/>
<polygon fill="midnightblue" stroke="midnightblue" points="679.345,-203.282 668.772,-202.611 676.619,-209.729 679.345,-203.282"/>
</g>
<!-- Node27 -->
<g id="node67" class="node"><title>Node27</title>
<a xlink:href="config_8hpp.html" target="_top" xlink:title="thrill/common/config.hpp">
<polygon fill="none" stroke="black" points="925.5,-181.5 925.5,-202.5 1048.5,-202.5 1048.5,-181.5 925.5,-181.5"/>
<text text-anchor="middle" x="987" y="-189.5" font-family="Helvetica,sans-Serif" font-size="10.00">thrill/common/config.hpp</text>
</a>
</g>
<!-- Node26&#45;&gt;Node27 -->
<g id="edge80" class="edge"><title>Node26&#45;&gt;Node27</title>
<path fill="none" stroke="midnightblue" d="M987,-246.267C987,-237.18 987,-223.892 987,-212.74"/>
<polygon fill="midnightblue" stroke="midnightblue" points="990.5,-212.534 987,-202.534 983.5,-212.534 990.5,-212.534"/>
</g>
<!-- Node28 -->
<g id="node71" class="node"><title>Node28</title>
<polygon fill="none" stroke="#bfbfbf" points="1065.5,-181.5 1065.5,-202.5 1114.5,-202.5 1114.5,-181.5 1065.5,-181.5"/>
<text text-anchor="middle" x="1090" y="-189.5" font-family="Helvetica,sans-Serif" font-size="10.00">cstddef</text>
</g>
<!-- Node26&#45;&gt;Node28 -->
<g id="edge86" class="edge"><title>Node26&#45;&gt;Node28</title>
<path fill="none" stroke="midnightblue" d="M1004.01,-246.267C1020.51,-235.855 1045.75,-219.927 1064.62,-208.016"/>
<polygon fill="midnightblue" stroke="midnightblue" points="1066.72,-210.83 1073.31,-202.534 1062.98,-204.911 1066.72,-210.83"/>
</g>
<!-- Node29 -->
<g id="node73" class="node"><title>Node29</title>
<polygon fill="none" stroke="#bfbfbf" points="1436,-181.5 1436,-202.5 1482,-202.5 1482,-181.5 1436,-181.5"/>
<text text-anchor="middle" x="1459" y="-189.5" font-family="Helvetica,sans-Serif" font-size="10.00">cstdint</text>
</g>
<!-- Node26&#45;&gt;Node29 -->
<g id="edge88" class="edge"><title>Node26&#45;&gt;Node29</title>
<path fill="none" stroke="midnightblue" d="M1036.71,-250.935C1106.06,-242.373 1235.74,-225.996 1346,-210 1372.82,-206.11 1403.13,-201.255 1425.61,-197.568"/>
<polygon fill="midnightblue" stroke="midnightblue" points="1426.36,-200.992 1435.66,-195.913 1425.22,-194.086 1426.36,-200.992"/>
</g>
<!-- Node30 -->
<g id="node76" class="node"><title>Node30</title>
<polygon fill="none" stroke="#bfbfbf" points="806,-181.5 806,-202.5 850,-202.5 850,-181.5 806,-181.5"/>
<text text-anchor="middle" x="828" y="-189.5" font-family="Helvetica,sans-Serif" font-size="10.00">mutex</text>
</g>
<!-- Node26&#45;&gt;Node30 -->
<g id="edge92" class="edge"><title>Node26&#45;&gt;Node30</title>
<path fill="none" stroke="midnightblue" d="M953.47,-246.472C927.264,-237.821 890.178,-224.639 859,-210 857.412,-209.254 855.798,-208.455 854.183,-207.622"/>
<polygon fill="midnightblue" stroke="midnightblue" points="855.545,-204.377 845.094,-202.637 852.178,-210.515 855.545,-204.377"/>
</g>
<!-- Node31 -->
<g id="node80" class="node"><title>Node31</title>
<polygon fill="none" stroke="#bfbfbf" points="868,-181.5 868,-202.5 908,-202.5 908,-181.5 868,-181.5"/>
<text text-anchor="middle" x="888" y="-189.5" font-family="Helvetica,sans-Serif" font-size="10.00">utility</text>
</g>
<!-- Node26&#45;&gt;Node31 -->
<g id="edge98" class="edge"><title>Node26&#45;&gt;Node31</title>
<path fill="none" stroke="midnightblue" d="M970.652,-246.267C954.938,-235.949 930.975,-220.216 912.89,-208.342"/>
<polygon fill="midnightblue" stroke="midnightblue" points="914.324,-205.096 904.044,-202.534 910.482,-210.948 914.324,-205.096"/>
</g>
<!-- Node32&#45;&gt;Node2 -->
<g id="edge126" class="edge"><title>Node32&#45;&gt;Node2</title>
<path fill="none" stroke="midnightblue" d="M1389.27,-434.412C1370.64,-423.883 1341.85,-407.611 1320.6,-395.602"/>
<polygon fill="midnightblue" stroke="midnightblue" points="1322.15,-392.457 1311.72,-390.584 1318.71,-398.551 1322.15,-392.457"/>
</g>
<!-- Node32&#45;&gt;Node7 -->
<g id="edge116" class="edge"><title>Node32&#45;&gt;Node7</title>
<path fill="none" stroke="midnightblue" d="M1342.36,-438.329C1181,-421.048 778,-372.166 778,-315 778,-315 778,-315 778,-257 778,-219.157 775.428,-205.093 797,-174 803.675,-164.378 874.908,-121.94 885,-116 904.226,-104.683 926.44,-93.0686 943.987,-84.2166"/>
<polygon fill="midnightblue" stroke="midnightblue" points="945.831,-87.2077 953.207,-79.6025 942.698,-80.9478 945.831,-87.2077"/>
</g>
<!-- Node32&#45;&gt;Node8 -->
<g id="edge138" class="edge"><title>Node32&#45;&gt;Node8</title>
<path fill="none" stroke="midnightblue" d="M1473.52,-436.84C1524.65,-429.213 1590.22,-416.249 1610,-398 1702.17,-312.975 1693.13,-201.063 1601,-116 1556.3,-74.7282 1535.71,-73.9604 1477,-58 1390.33,-34.4403 1120.06,-18.4518 1016.22,-13.0344"/>
<polygon fill="midnightblue" stroke="midnightblue" points="1016.29,-9.53346 1006.12,-12.5137 1015.93,-16.5242 1016.29,-9.53346"/>
</g>
<!-- Node32&#45;&gt;Node11 -->
<g id="edge132" class="edge"><title>Node32&#45;&gt;Node11</title>
<path fill="none" stroke="midnightblue" d="M1402.56,-434.184C1392.05,-412.279 1370,-360.852 1370,-315 1370,-315 1370,-315 1370,-257 1370,-159.182 1242.84,-101.588 1181.43,-79.4795"/>
<polygon fill="midnightblue" stroke="midnightblue" points="1182.41,-76.1157 1171.82,-76.1162 1180.1,-82.7229 1182.41,-76.1157"/>
</g>
<!-- Node32&#45;&gt;Node15 -->
<g id="edge136" class="edge"><title>Node32&#45;&gt;Node15</title>
<path fill="none" stroke="midnightblue" d="M1408,-434.214C1408,-411.939 1408,-359.236 1408,-315 1408,-315 1408,-315 1408,-192 1408,-142.366 1357.45,-104.293 1323.67,-84.3933"/>
<polygon fill="midnightblue" stroke="midnightblue" points="1325.07,-81.1622 1314.64,-79.268 1321.61,-87.2493 1325.07,-81.1622"/>
</g>
<!-- Node32&#45;&gt;Node19 -->
<g id="edge128" class="edge"><title>Node32&#45;&gt;Node19</title>
<path fill="none" stroke="midnightblue" d="M1467.18,-434.427C1510.15,-425.751 1563.66,-412.559 1581,-398 1612.22,-371.793 1620,-355.758 1620,-315 1620,-315 1620,-315 1620,-192 1620,-123.729 1530.64,-90.6014 1477.84,-76.9865"/>
<polygon fill="midnightblue" stroke="midnightblue" points="1478.67,-73.5859 1468.12,-74.593 1477,-80.3829 1478.67,-73.5859"/>
</g>
<!-- Node32&#45;&gt;Node21 -->
<g id="edge130" class="edge"><title>Node32&#45;&gt;Node21</title>
<path fill="none" stroke="midnightblue" d="M1342.45,-442.431C1064.81,-431.125 0,-383.314 0,-315 0,-315 0,-315 0,-192 0,-131.879 72.7491,-96.0741 117.589,-79.7155"/>
<polygon fill="midnightblue" stroke="midnightblue" points="118.959,-82.9441 127.24,-76.3355 116.645,-76.3376 118.959,-82.9441"/>
</g>
<!-- Node33 -->
<g id="node92" class="node"><title>Node33</title>
<a xlink:href="item__serialization__tools_8hpp.html" target="_top" xlink:title="thrill/common/item\l_serialization_tools.hpp">
<polygon fill="none" stroke="black" points="1435.5,-363 1435.5,-397 1554.5,-397 1554.5,-363 1435.5,-363"/>
<text text-anchor="start" x="1443.5" y="-384" font-family="Helvetica,sans-Serif" font-size="10.00">thrill/common/item</text>
<text text-anchor="middle" x="1495" y="-371" font-family="Helvetica,sans-Serif" font-size="10.00">_serialization_tools.hpp</text>
</a>
</g>
<!-- Node32&#45;&gt;Node33 -->
<g id="edge118" class="edge"><title>Node32&#45;&gt;Node33</title>
<path fill="none" stroke="midnightblue" d="M1422.37,-434.267C1433.66,-425.827 1449.81,-413.762 1464.01,-403.151"/>
<polygon fill="midnightblue" stroke="midnightblue" points="1466.18,-405.899 1472.1,-397.11 1461.99,-400.291 1466.18,-405.899"/>
</g>
<!-- Node34 -->
<g id="node95" class="node"><title>Node34</title>
<polygon fill="none" stroke="#bfbfbf" points="1533.5,-304.5 1533.5,-325.5 1592.5,-325.5 1592.5,-304.5 1533.5,-304.5"/>
<text text-anchor="middle" x="1563" y="-312.5" font-family="Helvetica,sans-Serif" font-size="10.00">stdexcept</text>
</g>
<!-- Node32&#45;&gt;Node34 -->
<g id="edge134" class="edge"><title>Node32&#45;&gt;Node34</title>
<path fill="none" stroke="midnightblue" d="M1467.82,-434.446C1506.34,-426.294 1551.32,-413.753 1563,-398 1576.21,-380.185 1573.54,-353.787 1569.3,-335.567"/>
<polygon fill="midnightblue" stroke="midnightblue" points="1572.62,-334.432 1566.66,-325.671 1565.86,-336.235 1572.62,-334.432"/>
</g>
<!-- Node33&#45;&gt;Node15 -->
<g id="edge124" class="edge"><title>Node33&#45;&gt;Node15</title>
<path fill="none" stroke="midnightblue" d="M1499.18,-362.911C1507.23,-326.189 1521.53,-237.91 1491,-174 1460.25,-109.625 1371.87,-83.5391 1324.63,-73.9628"/>
<polygon fill="midnightblue" stroke="midnightblue" points="1325.14,-70.4971 1314.66,-72.064 1323.83,-77.3734 1325.14,-70.4971"/>
</g>
<!-- Node33&#45;&gt;Node29 -->
<g id="edge120" class="edge"><title>Node33&#45;&gt;Node29</title>
<path fill="none" stroke="midnightblue" d="M1491.74,-362.985C1485.15,-328.581 1470.27,-250.834 1463.06,-213.2"/>
<polygon fill="midnightblue" stroke="midnightblue" points="1466.41,-212.064 1461.09,-202.901 1459.53,-213.381 1466.41,-212.064"/>
</g>
<!-- Node33&#45;&gt;Node34 -->
<g id="edge122" class="edge"><title>Node33&#45;&gt;Node34</title>
<path fill="none" stroke="midnightblue" d="M1512.87,-362.922C1522.55,-353.662 1534.52,-342.227 1544.33,-332.85"/>
<polygon fill="midnightblue" stroke="midnightblue" points="1546.84,-335.292 1551.65,-325.852 1542,-330.232 1546.84,-335.292"/>
</g>
</g>
</svg>
