<?xml version="1.0" encoding="UTF-8" standalone="no"?>
<!DOCTYPE svg PUBLIC "-//W3C//DTD SVG 1.1//EN"
 "http://www.w3.org/Graphics/SVG/1.1/DTD/svg11.dtd">
<!-- Generated by graphviz version 2.26.3 (20100126.1600)
 -->
<!-- Title: extlib/tlx/tlx/meta/call_foreach_tuple_with_index.hpp Pages: 1 -->
<svg width="354pt" height="244pt"
 viewBox="0.00 0.00 354.00 244.00" xmlns="http://www.w3.org/2000/svg" xmlns:xlink="http://www.w3.org/1999/xlink">
<g id="graph1" class="graph" transform="scale(1 1) rotate(0) translate(4 240)">
<title>extlib/tlx/tlx/meta/call_foreach_tuple_with_index.hpp</title>
<!-- Node1 -->
<g id="node1" class="node"><title>Node1</title>
<polygon fill="#bfbfbf" stroke="black" points="72,-188.5 72,-235.5 170,-235.5 170,-188.5 72,-188.5"/>
<text text-anchor="start" x="80" y="-222.5" font-family="Helvetica,sans-Serif" font-size="10.00">extlib/tlx/tlx/meta</text>
<text text-anchor="start" x="80" y="-209.5" font-family="Helvetica,sans-Serif" font-size="10.00">/call_foreach_tuple</text>
<text text-anchor="middle" x="121" y="-196.5" font-family="Helvetica,sans-Serif" font-size="10.00">_with_index.hpp</text>
</g>
<!-- Node2 -->
<g id="node3" class="node"><title>Node2</title>
<polygon fill="none" stroke="#bfbfbf" points="12,-123.5 12,-144.5 50,-144.5 50,-123.5 12,-123.5"/>
<text text-anchor="middle" x="31" y="-131.5" font-family="Helvetica,sans-Serif" font-size="10.00">tuple</text>
</g>
<!-- Node1&#45;&gt;Node2 -->
<g id="edge2" class="edge"><title>Node1&#45;&gt;Node2</title>
<path fill="none" stroke="midnightblue" d="M93.508,-188.174C79.7687,-176.266 63.4497,-162.123 50.9315,-151.274"/>
<polygon fill="midnightblue" stroke="midnightblue" points="53.1687,-148.581 43.3195,-144.677 48.5842,-153.871 53.1687,-148.581"/>
</g>
<!-- Node3 -->
<g id="node5" class="node"><title>Node3</title>
<a xlink:href="call__foreach__with__index_8hpp.html" target="_top" xlink:title="tlx/meta/call_foreach\l_with_index.hpp">
<polygon fill="none" stroke="black" points="67.5,-117 67.5,-151 174.5,-151 174.5,-117 67.5,-117"/>
<text text-anchor="start" x="75.5" y="-138" font-family="Helvetica,sans-Serif" font-size="10.00">tlx/meta/call_foreach</text>
<text text-anchor="middle" x="121" y="-125" font-family="Helvetica,sans-Serif" font-size="10.00">_with_index.hpp</text>
</a>
</g>
<!-- Node1&#45;&gt;Node3 -->
<g id="edge4" class="edge"><title>Node1&#45;&gt;Node3</title>
<path fill="none" stroke="midnightblue" d="M121,-188.174C121,-179.638 121,-169.952 121,-161.156"/>
<polygon fill="midnightblue" stroke="midnightblue" points="124.5,-161.003 121,-151.003 117.5,-161.003 124.5,-161.003"/>
</g>
<!-- Node7 -->
<g id="node13" class="node"><title>Node7</title>
<a xlink:href="index__sequence_8hpp.html" target="_top" xlink:title="tlx/meta/index_sequence.hpp">
<polygon fill="none" stroke="black" points="202,-58.5 202,-79.5 346,-79.5 346,-58.5 202,-58.5"/>
<text text-anchor="middle" x="274" y="-66.5" font-family="Helvetica,sans-Serif" font-size="10.00">tlx/meta/index_sequence.hpp</text>
</a>
</g>
<!-- Node1&#45;&gt;Node7 -->
<g id="edge12" class="edge"><title>Node1&#45;&gt;Node7</title>
<path fill="none" stroke="midnightblue" d="M146.265,-188.386C176.856,-159.795 227.676,-112.296 255.086,-86.6779"/>
<polygon fill="midnightblue" stroke="midnightblue" points="257.561,-89.1556 262.477,-79.7702 252.781,-84.0415 257.561,-89.1556"/>
</g>
<!-- Node4 -->
<g id="node7" class="node"><title>Node4</title>
<polygon fill="none" stroke="#bfbfbf" points="0,-58.5 0,-79.5 40,-79.5 40,-58.5 0,-58.5"/>
<text text-anchor="middle" x="20" y="-66.5" font-family="Helvetica,sans-Serif" font-size="10.00">utility</text>
</g>
<!-- Node3&#45;&gt;Node4 -->
<g id="edge6" class="edge"><title>Node3&#45;&gt;Node4</title>
<path fill="none" stroke="midnightblue" d="M94.4634,-116.922C79.2655,-107.141 60.2981,-94.9344 45.3101,-85.2887"/>
<polygon fill="midnightblue" stroke="midnightblue" points="46.8647,-82.127 36.5615,-79.6584 43.0764,-88.0134 46.8647,-82.127"/>
</g>
<!-- Node5 -->
<g id="node9" class="node"><title>Node5</title>
<a xlink:href="static__index_8hpp.html" target="_top" xlink:title="tlx/meta/static_index.hpp">
<polygon fill="none" stroke="black" points="58,-58.5 58,-79.5 184,-79.5 184,-58.5 58,-58.5"/>
<text text-anchor="middle" x="121" y="-66.5" font-family="Helvetica,sans-Serif" font-size="10.00">tlx/meta/static_index.hpp</text>
</a>
</g>
<!-- Node3&#45;&gt;Node5 -->
<g id="edge8" class="edge"><title>Node3&#45;&gt;Node5</title>
<path fill="none" stroke="midnightblue" d="M121,-116.922C121,-108.67 121,-98.6922 121,-89.9818"/>
<polygon fill="midnightblue" stroke="midnightblue" points="124.5,-89.8521 121,-79.8521 117.5,-89.8521 124.5,-89.8521"/>
</g>
<!-- Node6 -->
<g id="node11" class="node"><title>Node6</title>
<polygon fill="none" stroke="#bfbfbf" points="172.5,-0.5 172.5,-21.5 221.5,-21.5 221.5,-0.5 172.5,-0.5"/>
<text text-anchor="middle" x="197" y="-8.5" font-family="Helvetica,sans-Serif" font-size="10.00">cstddef</text>
</g>
<!-- Node5&#45;&gt;Node6 -->
<g id="edge10" class="edge"><title>Node5&#45;&gt;Node6</title>
<path fill="none" stroke="midnightblue" d="M134.94,-58.3619C146.188,-49.7773 162.216,-37.5459 175.165,-27.6636"/>
<polygon fill="midnightblue" stroke="midnightblue" points="177.323,-30.4198 183.149,-21.5707 173.076,-24.8551 177.323,-30.4198"/>
</g>
<!-- Node7&#45;&gt;Node6 -->
<g id="edge14" class="edge"><title>Node7&#45;&gt;Node6</title>
<path fill="none" stroke="midnightblue" d="M259.877,-58.3619C248.48,-49.7773 232.242,-37.5459 219.122,-27.6636"/>
<polygon fill="midnightblue" stroke="midnightblue" points="221.127,-24.7916 211.033,-21.5707 216.915,-30.3829 221.127,-24.7916"/>
</g>
</g>
</svg>
