<?xml version="1.0" encoding="UTF-8" standalone="no"?>
<!DOCTYPE svg PUBLIC "-//W3C//DTD SVG 1.1//EN"
 "http://www.w3.org/Graphics/SVG/1.1/DTD/svg11.dtd">
<!-- Generated by graphviz version 2.26.3 (20100126.1600)
 -->
<!-- Title: extlib/tlx/tlx/meta/call_for_range.hpp Pages: 1 -->
<svg width="983pt" height="246pt"
 viewBox="0.00 0.00 983.00 246.00" xmlns="http://www.w3.org/2000/svg" xmlns:xlink="http://www.w3.org/1999/xlink">
<g id="graph1" class="graph" transform="scale(1 1) rotate(0) translate(4 242)">
<title>extlib/tlx/tlx/meta/call_for_range.hpp</title>
<!-- Node1 -->
<g id="node1" class="node"><title>Node1</title>
<polygon fill="#bfbfbf" stroke="black" points="433.5,-203 433.5,-237 532.5,-237 532.5,-203 433.5,-203"/>
<text text-anchor="start" x="441.5" y="-224" font-family="Helvetica,sans-Serif" font-size="10.00">extlib/tlx/tlx/meta</text>
<text text-anchor="middle" x="483" y="-211" font-family="Helvetica,sans-Serif" font-size="10.00">/call_for_range.hpp</text>
</g>
<!-- Node2 -->
<g id="node3" class="node"><title>Node2</title>
<a xlink:href="zip_8hpp.html" target="_top" xlink:title="thrill/api/zip.hpp">
<polygon fill="none" stroke="black" points="440.5,-144.5 440.5,-165.5 525.5,-165.5 525.5,-144.5 440.5,-144.5"/>
<text text-anchor="middle" x="483" y="-152.5" font-family="Helvetica,sans-Serif" font-size="10.00">thrill/api/zip.hpp</text>
</a>
</g>
<!-- Node1&#45;&gt;Node2 -->
<g id="edge2" class="edge"><title>Node1&#45;&gt;Node2</title>
<path fill="none" stroke="midnightblue" d="M483,-192.688C483,-183.242 483,-173.195 483,-165.852"/>
<polygon fill="midnightblue" stroke="midnightblue" points="479.5,-192.922 483,-202.922 486.5,-192.922 479.5,-192.922"/>
</g>
<!-- Node15 -->
<g id="node34" class="node"><title>Node15</title>
<a xlink:href="zip__window_8hpp.html" target="_top" xlink:title="thrill/api/zip_window.hpp">
<polygon fill="none" stroke="black" points="54.5,-144.5 54.5,-165.5 177.5,-165.5 177.5,-144.5 54.5,-144.5"/>
<text text-anchor="middle" x="116" y="-152.5" font-family="Helvetica,sans-Serif" font-size="10.00">thrill/api/zip_window.hpp</text>
</a>
</g>
<!-- Node1&#45;&gt;Node15 -->
<g id="edge38" class="edge"><title>Node1&#45;&gt;Node15</title>
<path fill="none" stroke="midnightblue" d="M422.944,-209.363C354.59,-197.257 243.621,-177.603 175.499,-165.538"/>
<polygon fill="midnightblue" stroke="midnightblue" points="422.666,-212.868 433.123,-211.166 423.886,-205.976 422.666,-212.868"/>
</g>
<!-- Node16 -->
<g id="node39" class="node"><title>Node16</title>
<a xlink:href="meta_8hpp.html" target="_top" xlink:title="extlib/tlx/tlx/meta.hpp">
<polygon fill="none" stroke="black" points="543,-144.5 543,-165.5 653,-165.5 653,-144.5 543,-144.5"/>
<text text-anchor="middle" x="598" y="-152.5" font-family="Helvetica,sans-Serif" font-size="10.00">extlib/tlx/tlx/meta.hpp</text>
</a>
</g>
<!-- Node1&#45;&gt;Node16 -->
<g id="edge46" class="edge"><title>Node1&#45;&gt;Node16</title>
<path fill="none" stroke="midnightblue" d="M522.097,-197.902C541.363,-187.012 563.71,-174.381 579.143,-165.658"/>
<polygon fill="midnightblue" stroke="midnightblue" points="520.198,-194.954 513.215,-202.922 523.643,-201.048 520.198,-194.954"/>
</g>
<!-- Node3 -->
<g id="node5" class="node"><title>Node3</title>
<a xlink:href="thrill_8hpp.html" target="_top" xlink:title="thrill/thrill.hpp">
<polygon fill="none" stroke="black" points="111,-79.5 111,-100.5 185,-100.5 185,-79.5 111,-79.5"/>
<text text-anchor="middle" x="148" y="-87.5" font-family="Helvetica,sans-Serif" font-size="10.00">thrill/thrill.hpp</text>
</a>
</g>
<!-- Node2&#45;&gt;Node3 -->
<g id="edge4" class="edge"><title>Node2&#45;&gt;Node3</title>
<path fill="none" stroke="midnightblue" d="M430.234,-149.079C372.774,-141.981 278.449,-128.426 199,-108 191.088,-105.966 182.664,-103.236 174.989,-100.517"/>
<polygon fill="midnightblue" stroke="midnightblue" points="429.825,-152.555 440.174,-150.287 430.67,-145.606 429.825,-152.555"/>
</g>
<!-- Node4 -->
<g id="node7" class="node"><title>Node4</title>
<a xlink:href="page__rank_8hpp.html" target="_top" xlink:title="examples/page_rank\l/page_rank.hpp">
<polygon fill="none" stroke="black" points="592.5,-73 592.5,-107 699.5,-107 699.5,-73 592.5,-73"/>
<text text-anchor="start" x="600.5" y="-94" font-family="Helvetica,sans-Serif" font-size="10.00">examples/page_rank</text>
<text text-anchor="middle" x="646" y="-81" font-family="Helvetica,sans-Serif" font-size="10.00">/page_rank.hpp</text>
</a>
</g>
<!-- Node2&#45;&gt;Node4 -->
<g id="edge6" class="edge"><title>Node2&#45;&gt;Node4</title>
<path fill="none" stroke="midnightblue" d="M518.975,-140.654C543.831,-130.742 577.005,-117.513 603.218,-107.06"/>
<polygon fill="midnightblue" stroke="midnightblue" points="517.544,-137.457 509.552,-144.412 520.137,-143.959 517.544,-137.457"/>
</g>
<!-- Node6 -->
<g id="node11" class="node"><title>Node6</title>
<a xlink:href="check__sa_8hpp.html" target="_top" xlink:title="examples/suffix_sorting\l/check_sa.hpp">
<polygon fill="none" stroke="black" points="241,-73 241,-107 361,-107 361,-73 241,-73"/>
<text text-anchor="start" x="249" y="-94" font-family="Helvetica,sans-Serif" font-size="10.00">examples/suffix_sorting</text>
<text text-anchor="middle" x="301" y="-81" font-family="Helvetica,sans-Serif" font-size="10.00">/check_sa.hpp</text>
</a>
</g>
<!-- Node2&#45;&gt;Node6 -->
<g id="edge10" class="edge"><title>Node2&#45;&gt;Node6</title>
<path fill="none" stroke="midnightblue" d="M443.932,-141.047C416.063,-131.094 378.426,-117.652 348.769,-107.06"/>
<polygon fill="midnightblue" stroke="midnightblue" points="442.759,-144.345 453.353,-144.412 445.113,-137.752 442.759,-144.345"/>
</g>
<!-- Node7 -->
<g id="node13" class="node"><title>Node7</title>
<a xlink:href="dc3_8cpp.html" target="_top" xlink:title="examples/suffix_sorting\l/dc3.cpp">
<polygon fill="none" stroke="black" points="153,-1 153,-35 273,-35 273,-1 153,-1"/>
<text text-anchor="start" x="161" y="-22" font-family="Helvetica,sans-Serif" font-size="10.00">examples/suffix_sorting</text>
<text text-anchor="middle" x="213" y="-9" font-family="Helvetica,sans-Serif" font-size="10.00">/dc3.cpp</text>
</a>
</g>
<!-- Node2&#45;&gt;Node7 -->
<g id="edge30" class="edge"><title>Node2&#45;&gt;Node7</title>
<path fill="none" stroke="midnightblue" d="M430.401,-151.895C365.27,-146.943 259.538,-134.913 232,-108 212.584,-89.025 210.577,-55.5631 211.419,-35.2222"/>
<polygon fill="midnightblue" stroke="midnightblue" points="430.26,-155.394 440.488,-152.631 430.769,-148.413 430.26,-155.394"/>
</g>
<!-- Node9 -->
<g id="node17" class="node"><title>Node9</title>
<a xlink:href="prefix__doubling_8cpp.html" target="_top" xlink:title="examples/suffix_sorting\l/prefix_doubling.cpp">
<polygon fill="none" stroke="black" points="448,-1 448,-35 568,-35 568,-1 448,-1"/>
<text text-anchor="start" x="456" y="-22" font-family="Helvetica,sans-Serif" font-size="10.00">examples/suffix_sorting</text>
<text text-anchor="middle" x="508" y="-9" font-family="Helvetica,sans-Serif" font-size="10.00">/prefix_doubling.cpp</text>
</a>
</g>
<!-- Node2&#45;&gt;Node9 -->
<g id="edge32" class="edge"><title>Node2&#45;&gt;Node9</title>
<path fill="none" stroke="midnightblue" d="M512.67,-138.728C523.691,-130.993 534.97,-120.647 541,-108 552.674,-83.5137 536.104,-53.7222 522.523,-35.3084"/>
<polygon fill="midnightblue" stroke="midnightblue" points="510.473,-135.982 503.993,-144.364 514.286,-141.852 510.473,-135.982"/>
</g>
<!-- Node10 -->
<g id="node19" class="node"><title>Node10</title>
<a xlink:href="prefix__quadrupling_8cpp.html" target="_top" xlink:title="examples/suffix_sorting\l/prefix_quadrupling.cpp">
<polygon fill="none" stroke="black" points="297,-1 297,-35 417,-35 417,-1 297,-1"/>
<text text-anchor="start" x="305" y="-22" font-family="Helvetica,sans-Serif" font-size="10.00">examples/suffix_sorting</text>
<text text-anchor="middle" x="357" y="-9" font-family="Helvetica,sans-Serif" font-size="10.00">/prefix_quadrupling.cpp</text>
</a>
</g>
<!-- Node2&#45;&gt;Node10 -->
<g id="edge34" class="edge"><title>Node2&#45;&gt;Node10</title>
<path fill="none" stroke="midnightblue" d="M497.499,-135.922C509.17,-118.05 521.579,-91.2777 508,-72 496.977,-56.3517 454.234,-41.9348 417.025,-31.9409"/>
<polygon fill="midnightblue" stroke="midnightblue" points="494.457,-134.165 491.604,-144.369 500.197,-138.171 494.457,-134.165"/>
</g>
<!-- Node12 -->
<g id="node23" class="node"><title>Node12</title>
<a xlink:href="construct__bwt_8hpp.html" target="_top" xlink:title="examples/suffix_sorting\l/construct_bwt.hpp">
<polygon fill="none" stroke="black" points="855,-73 855,-107 975,-107 975,-73 855,-73"/>
<text text-anchor="start" x="863" y="-94" font-family="Helvetica,sans-Serif" font-size="10.00">examples/suffix_sorting</text>
<text text-anchor="middle" x="915" y="-81" font-family="Helvetica,sans-Serif" font-size="10.00">/construct_bwt.hpp</text>
</a>
</g>
<!-- Node2&#45;&gt;Node12 -->
<g id="edge22" class="edge"><title>Node2&#45;&gt;Node12</title>
<path fill="none" stroke="midnightblue" d="M535.62,-143.86C673.514,-121.819 712.012,-133.079 846,-108 848.92,-107.453 851.9,-106.851 854.901,-106.208"/>
<polygon fill="midnightblue" stroke="midnightblue" points="534.825,-140.443 525.517,-145.505 535.95,-147.352 534.825,-140.443"/>
</g>
<!-- Node13 -->
<g id="node26" class="node"><title>Node13</title>
<a xlink:href="construct__lcp_8hpp.html" target="_top" xlink:title="examples/suffix_sorting\l/construct_lcp.hpp">
<polygon fill="none" stroke="black" points="717,-73 717,-107 837,-107 837,-73 717,-73"/>
<text text-anchor="start" x="725" y="-94" font-family="Helvetica,sans-Serif" font-size="10.00">examples/suffix_sorting</text>
<text text-anchor="middle" x="777" y="-81" font-family="Helvetica,sans-Serif" font-size="10.00">/construct_lcp.hpp</text>
</a>
</g>
<!-- Node2&#45;&gt;Node13 -->
<g id="edge26" class="edge"><title>Node2&#45;&gt;Node13</title>
<path fill="none" stroke="midnightblue" d="M535.792,-143.642C612.988,-127.508 634.255,-125.236 708,-108 710.893,-107.324 713.85,-106.616 716.834,-105.889"/>
<polygon fill="midnightblue" stroke="midnightblue" points="534.637,-140.308 525.571,-145.79 536.077,-147.158 534.637,-140.308"/>
</g>
<!-- Node14 -->
<g id="node32" class="node"><title>Node14</title>
<a xlink:href="rl__bwt_8cpp.html" target="_top" xlink:title="examples/suffix_sorting\l/rl_bwt.cpp">
<polygon fill="none" stroke="black" points="379,-73 379,-107 499,-107 499,-73 379,-73"/>
<text text-anchor="start" x="387" y="-94" font-family="Helvetica,sans-Serif" font-size="10.00">examples/suffix_sorting</text>
<text text-anchor="middle" x="439" y="-81" font-family="Helvetica,sans-Serif" font-size="10.00">/rl_bwt.cpp</text>
</a>
</g>
<!-- Node2&#45;&gt;Node14 -->
<g id="edge36" class="edge"><title>Node2&#45;&gt;Node14</title>
<path fill="none" stroke="midnightblue" d="M470.042,-135.858C463.875,-126.748 456.561,-115.943 450.582,-107.11"/>
<polygon fill="midnightblue" stroke="midnightblue" points="467.23,-137.947 475.734,-144.267 473.027,-134.023 467.23,-137.947"/>
</g>
<!-- Node5 -->
<g id="node9" class="node"><title>Node5</title>
<a xlink:href="page__rank__run_8cpp.html" target="_top" xlink:title="examples/page_rank\l/page_rank_run.cpp">
<polygon fill="none" stroke="black" points="592.5,-1 592.5,-35 699.5,-35 699.5,-1 592.5,-1"/>
<text text-anchor="start" x="600.5" y="-22" font-family="Helvetica,sans-Serif" font-size="10.00">examples/page_rank</text>
<text text-anchor="middle" x="646" y="-9" font-family="Helvetica,sans-Serif" font-size="10.00">/page_rank_run.cpp</text>
</a>
</g>
<!-- Node4&#45;&gt;Node5 -->
<g id="edge8" class="edge"><title>Node4&#45;&gt;Node5</title>
<path fill="none" stroke="midnightblue" d="M646,-62.7193C646,-53.572 646,-43.6255 646,-35.4407"/>
<polygon fill="midnightblue" stroke="midnightblue" points="642.5,-62.937 646,-72.937 649.5,-62.937 642.5,-62.937"/>
</g>
<!-- Node6&#45;&gt;Node7 -->
<g id="edge12" class="edge"><title>Node6&#45;&gt;Node7</title>
<path fill="none" stroke="midnightblue" d="M272.269,-66.493C259.799,-56.2899 245.46,-44.5583 234.01,-35.19"/>
<polygon fill="midnightblue" stroke="midnightblue" points="270.189,-69.3134 280.145,-72.937 274.622,-63.8957 270.189,-69.3134"/>
</g>
<!-- Node8 -->
<g id="node15" class="node"><title>Node8</title>
<a xlink:href="dc7_8cpp.html" target="_top" xlink:title="examples/suffix_sorting\l/dc7.cpp">
<polygon fill="none" stroke="black" points="0,-1 0,-35 120,-35 120,-1 0,-1"/>
<text text-anchor="start" x="8" y="-22" font-family="Helvetica,sans-Serif" font-size="10.00">examples/suffix_sorting</text>
<text text-anchor="middle" x="60" y="-9" font-family="Helvetica,sans-Serif" font-size="10.00">/dc7.cpp</text>
</a>
</g>
<!-- Node6&#45;&gt;Node8 -->
<g id="edge14" class="edge"><title>Node6&#45;&gt;Node8</title>
<path fill="none" stroke="midnightblue" d="M234.239,-70.0547C197.451,-59.0643 152.26,-45.5632 117.121,-35.0651"/>
<polygon fill="midnightblue" stroke="midnightblue" points="233.303,-73.4279 243.886,-72.937 235.307,-66.7209 233.303,-73.4279"/>
</g>
<!-- Node6&#45;&gt;Node9 -->
<g id="edge16" class="edge"><title>Node6&#45;&gt;Node9</title>
<path fill="none" stroke="midnightblue" d="M359.556,-69.6326C390.93,-58.7201 429.141,-45.4292 458.938,-35.0651"/>
<polygon fill="midnightblue" stroke="midnightblue" points="358.351,-66.346 350.056,-72.937 360.651,-72.9575 358.351,-66.346"/>
</g>
<!-- Node6&#45;&gt;Node10 -->
<g id="edge18" class="edge"><title>Node6&#45;&gt;Node10</title>
<path fill="none" stroke="midnightblue" d="M320.606,-64.7923C328.148,-55.0958 336.585,-44.2482 343.435,-35.4407"/>
<polygon fill="midnightblue" stroke="midnightblue" points="317.648,-62.8947 314.271,-72.937 323.173,-67.1923 317.648,-62.8947"/>
</g>
<!-- Node11 -->
<g id="node21" class="node"><title>Node11</title>
<a xlink:href="suffix__sorting_8cpp.html" target="_top" xlink:title="examples/suffix_sorting\l/suffix_sorting.cpp">
<polygon fill="none" stroke="black" points="717,-1 717,-35 837,-35 837,-1 717,-1"/>
<text text-anchor="start" x="725" y="-22" font-family="Helvetica,sans-Serif" font-size="10.00">examples/suffix_sorting</text>
<text text-anchor="middle" x="777" y="-9" font-family="Helvetica,sans-Serif" font-size="10.00">/suffix_sorting.cpp</text>
</a>
</g>
<!-- Node6&#45;&gt;Node11 -->
<g id="edge20" class="edge"><title>Node6&#45;&gt;Node11</title>
<path fill="none" stroke="midnightblue" d="M371.086,-71.9618C520.415,-45.6224 562.579,-62.5592 708,-36 710.923,-35.4662 713.904,-34.8742 716.907,-34.2398"/>
<polygon fill="midnightblue" stroke="midnightblue" points="370.315,-68.5443 361.093,-73.7602 371.555,-75.4336 370.315,-68.5443"/>
</g>
<!-- Node12&#45;&gt;Node11 -->
<g id="edge24" class="edge"><title>Node12&#45;&gt;Node11</title>
<path fill="none" stroke="midnightblue" d="M873.267,-68.2264C852.973,-57.6383 828.929,-45.0936 809.948,-35.19"/>
<polygon fill="midnightblue" stroke="midnightblue" points="871.811,-71.4143 882.296,-72.937 875.049,-65.2082 871.811,-71.4143"/>
</g>
<!-- Node13&#45;&gt;Node11 -->
<g id="edge28" class="edge"><title>Node13&#45;&gt;Node11</title>
<path fill="none" stroke="midnightblue" d="M777,-62.7193C777,-53.572 777,-43.6255 777,-35.4407"/>
<polygon fill="midnightblue" stroke="midnightblue" points="773.5,-62.937 777,-72.937 780.5,-62.937 773.5,-62.937"/>
</g>
<!-- Node15&#45;&gt;Node3 -->
<g id="edge40" class="edge"><title>Node15&#45;&gt;Node3</title>
<path fill="none" stroke="midnightblue" d="M125.818,-135.056C131.427,-123.664 138.232,-109.84 142.814,-100.534"/>
<polygon fill="midnightblue" stroke="midnightblue" points="122.561,-133.749 121.284,-144.267 128.841,-136.841 122.561,-133.749"/>
</g>
<!-- Node15&#45;&gt;Node7 -->
<g id="edge42" class="edge"><title>Node15&#45;&gt;Node7</title>
<path fill="none" stroke="midnightblue" d="M105.501,-135.241C97.6074,-117.42 90.0237,-91.1447 102,-72 113.479,-53.6502 133.178,-41.3741 152.824,-33.2355"/>
<polygon fill="midnightblue" stroke="midnightblue" points="102.423,-136.917 109.917,-144.406 108.729,-133.878 102.423,-136.917"/>
</g>
<!-- Node15&#45;&gt;Node8 -->
<g id="edge44" class="edge"><title>Node15&#45;&gt;Node8</title>
<path fill="none" stroke="midnightblue" d="M92.8375,-137.731C83.8483,-129.729 74.4273,-119.453 69,-108 57.9046,-84.5861 57.3731,-53.9663 58.3972,-35.1561"/>
<polygon fill="midnightblue" stroke="midnightblue" points="90.5977,-140.42 100.515,-144.149 95.0876,-135.05 90.5977,-140.42"/>
</g>
</g>
</svg>
