<?xml version="1.0" encoding="UTF-8" standalone="no"?>
<!DOCTYPE svg PUBLIC "-//W3C//DTD SVG 1.1//EN"
 "http://www.w3.org/Graphics/SVG/1.1/DTD/svg11.dtd">
<!-- Generated by graphviz version 2.40.1 (20161225.0304)
 -->
<!-- Title: examples/suffix_sorting/check_sa.hpp Pages: 1 -->
<svg width="750pt" height="106pt"
 viewBox="0.00 0.00 750.00 106.00" xmlns="http://www.w3.org/2000/svg" xmlns:xlink="http://www.w3.org/1999/xlink">
<g id="graph0" class="graph" transform="scale(1 1) rotate(0) translate(4 102)">
<title>examples/suffix_sorting/check_sa.hpp</title>
<!-- Node222 -->
<g id="node1" class="node">
<title>Node222</title>
<polygon fill="#bfbfbf" stroke="#000000" points="304,-67.5 304,-97.5 438,-97.5 438,-67.5 304,-67.5"/>
<text text-anchor="start" x="312" y="-85.5" font-family="Helvetica,sans-Serif" font-size="10.00" fill="#000000">examples/suffix_sorting</text>
<text text-anchor="middle" x="371" y="-74.5" font-family="Helvetica,sans-Serif" font-size="10.00" fill="#000000">/check_sa.hpp</text>
</g>
<!-- Node223 -->
<g id="node2" class="node">
<title>Node223</title>
<g id="a_node2"><a xlink:href="dc3_8cpp.html" target="_top" xlink:title="examples/suffix_sorting\l/dc3.cpp">
<polygon fill="none" stroke="#000000" points="0,-.5 0,-30.5 134,-30.5 134,-.5 0,-.5"/>
<text text-anchor="start" x="8" y="-18.5" font-family="Helvetica,sans-Serif" font-size="10.00" fill="#000000">examples/suffix_sorting</text>
<text text-anchor="middle" x="67" y="-7.5" font-family="Helvetica,sans-Serif" font-size="10.00" fill="#000000">/dc3.cpp</text>
</a>
</g>
</g>
<!-- Node222&#45;&gt;Node223 -->
<g id="edge1" class="edge">
<title>Node222&#45;&gt;Node223</title>
<path fill="none" stroke="#191970" d="M293.9364,-65.5156C244.6699,-54.6575 181.3957,-40.7122 134.1813,-30.3064"/>
<polygon fill="#191970" stroke="#191970" points="293.3906,-68.9792 303.9096,-67.7136 294.8973,-62.1433 293.3906,-68.9792"/>
</g>
<!-- Node224 -->
<g id="node3" class="node">
<title>Node224</title>
<g id="a_node3"><a xlink:href="dc7_8cpp.html" target="_top" xlink:title="examples/suffix_sorting\l/dc7.cpp">
<polygon fill="none" stroke="#000000" points="152,-.5 152,-30.5 286,-30.5 286,-.5 152,-.5"/>
<text text-anchor="start" x="160" y="-18.5" font-family="Helvetica,sans-Serif" font-size="10.00" fill="#000000">examples/suffix_sorting</text>
<text text-anchor="middle" x="219" y="-7.5" font-family="Helvetica,sans-Serif" font-size="10.00" fill="#000000">/dc7.cpp</text>
</a>
</g>
</g>
<!-- Node222&#45;&gt;Node224 -->
<g id="edge2" class="edge">
<title>Node222&#45;&gt;Node224</title>
<path fill="none" stroke="#191970" d="M327.4718,-63.3132C303.9083,-52.9267 275.216,-40.2794 253.2605,-30.6017"/>
<polygon fill="#191970" stroke="#191970" points="326.326,-66.6331 336.8882,-67.4639 329.1495,-60.2277 326.326,-66.6331"/>
</g>
<!-- Node225 -->
<g id="node4" class="node">
<title>Node225</title>
<g id="a_node4"><a xlink:href="prefix__doubling_8cpp.html" target="_top" xlink:title="examples/suffix_sorting\l/prefix_doubling.cpp">
<polygon fill="none" stroke="#000000" points="304,-.5 304,-30.5 438,-30.5 438,-.5 304,-.5"/>
<text text-anchor="start" x="312" y="-18.5" font-family="Helvetica,sans-Serif" font-size="10.00" fill="#000000">examples/suffix_sorting</text>
<text text-anchor="middle" x="371" y="-7.5" font-family="Helvetica,sans-Serif" font-size="10.00" fill="#000000">/prefix_doubling.cpp</text>
</a>
</g>
</g>
<!-- Node222&#45;&gt;Node225 -->
<g id="edge3" class="edge">
<title>Node222&#45;&gt;Node225</title>
<path fill="none" stroke="#191970" d="M371,-57.0249C371,-48.128 371,-38.4287 371,-30.6432"/>
<polygon fill="#191970" stroke="#191970" points="367.5001,-57.2966 371,-67.2967 374.5001,-57.2967 367.5001,-57.2966"/>
</g>
<!-- Node226 -->
<g id="node5" class="node">
<title>Node226</title>
<g id="a_node5"><a xlink:href="prefix__quadrupling_8cpp.html" target="_top" xlink:title="examples/suffix_sorting\l/prefix_quadrupling.cpp">
<polygon fill="none" stroke="#000000" points="456,-.5 456,-30.5 590,-30.5 590,-.5 456,-.5"/>
<text text-anchor="start" x="464" y="-18.5" font-family="Helvetica,sans-Serif" font-size="10.00" fill="#000000">examples/suffix_sorting</text>
<text text-anchor="middle" x="523" y="-7.5" font-family="Helvetica,sans-Serif" font-size="10.00" fill="#000000">/prefix_quadrupling.cpp</text>
</a>
</g>
</g>
<!-- Node222&#45;&gt;Node226 -->
<g id="edge4" class="edge">
<title>Node222&#45;&gt;Node226</title>
<path fill="none" stroke="#191970" d="M414.5282,-63.3132C438.0917,-52.9267 466.784,-40.2794 488.7395,-30.6017"/>
<polygon fill="#191970" stroke="#191970" points="412.8505,-60.2277 405.1118,-67.4639 415.674,-66.6331 412.8505,-60.2277"/>
</g>
<!-- Node227 -->
<g id="node6" class="node">
<title>Node227</title>
<g id="a_node6"><a xlink:href="suffix__sorting_8cpp.html" target="_top" xlink:title="examples/suffix_sorting\l/suffix_sorting.cpp">
<polygon fill="none" stroke="#000000" points="608,-.5 608,-30.5 742,-30.5 742,-.5 608,-.5"/>
<text text-anchor="start" x="616" y="-18.5" font-family="Helvetica,sans-Serif" font-size="10.00" fill="#000000">examples/suffix_sorting</text>
<text text-anchor="middle" x="675" y="-7.5" font-family="Helvetica,sans-Serif" font-size="10.00" fill="#000000">/suffix_sorting.cpp</text>
</a>
</g>
</g>
<!-- Node222&#45;&gt;Node227 -->
<g id="edge5" class="edge">
<title>Node222&#45;&gt;Node227</title>
<path fill="none" stroke="#191970" d="M448.0636,-65.5156C497.3301,-54.6575 560.6043,-40.7122 607.8187,-30.3064"/>
<polygon fill="#191970" stroke="#191970" points="447.1027,-62.1433 438.0904,-67.7136 448.6094,-68.9792 447.1027,-62.1433"/>
</g>
</g>
</svg>
