<?xml version="1.0" encoding="UTF-8" standalone="no"?>
<!DOCTYPE svg PUBLIC "-//W3C//DTD SVG 1.1//EN"
 "http://www.w3.org/Graphics/SVG/1.1/DTD/svg11.dtd">
<!-- Generated by graphviz version 2.36.0 (20140111.2315)
 -->
<!-- Title: BlockReader&lt; BlockSource &gt; Pages: 1 -->
<svg width="241pt" height="246pt"
 viewBox="0.00 0.00 241.00 246.00" xmlns="http://www.w3.org/2000/svg" xmlns:xlink="http://www.w3.org/1999/xlink">
<g id="graph0" class="graph" transform="scale(1 1) rotate(0) translate(4 242)">
<title>BlockReader&lt; BlockSource &gt;</title>
<!-- Node1 -->
<g id="node1" class="node"><title>Node1</title>
<polygon fill="#bfbfbf" stroke="black" points="9,-68.5 9,-87.5 155,-87.5 155,-68.5 9,-68.5"/>
<text text-anchor="middle" x="82" y="-75.5" font-family="Helvetica,sans-Serif" font-size="10.00">BlockReader&lt; BlockSource &gt;</text>
</g>
<!-- Node4 -->
<g id="node4" class="node"><title>Node4</title>
<g id="a_node4"><a xlink:href="classthrill_1_1data_1_1BlockReader.html" target="_top" xlink:title="BlockReader\&lt; CatBlockSource \&gt;">
<polygon fill="none" stroke="black" points="1,-0.5 1,-19.5 163,-19.5 163,-0.5 1,-0.5"/>
<text text-anchor="middle" x="82" y="-7.5" font-family="Helvetica,sans-Serif" font-size="10.00">BlockReader&lt; CatBlockSource &gt;</text>
</a>
</g>
</g>
<!-- Node1&#45;&gt;Node4 -->
<g id="edge3" class="edge"><title>Node1&#45;&gt;Node4</title>
<path fill="none" stroke="orange" stroke-dasharray="5,2" d="M82,-58.0413C82,-45.4724 82,-29.5631 82,-19.8411"/>
<polygon fill="orange" stroke="orange" points="78.5001,-58.3716 82,-68.3717 85.5001,-58.3717 78.5001,-58.3716"/>
<text text-anchor="middle" x="128.5" y="-41.5" font-family="Helvetica,sans-Serif" font-size="10.00"> &lt; CatBlockSource &gt;</text>
</g>
<!-- Node2 -->
<g id="node2" class="node"><title>Node2</title>
<g id="a_node2"><a xlink:href="classthrill_1_1common_1_1ItemReaderToolsBase.html" target="_top" xlink:title="ItemReaderToolsBase\l\&lt; BlockReader\&lt; BlockSource \&gt; \&gt;">
<polygon fill="none" stroke="black" points="0,-127 0,-157 164,-157 164,-127 0,-127"/>
<text text-anchor="start" x="8" y="-145" font-family="Helvetica,sans-Serif" font-size="10.00">ItemReaderToolsBase</text>
<text text-anchor="middle" x="82" y="-134" font-family="Helvetica,sans-Serif" font-size="10.00">&lt; BlockReader&lt; BlockSource &gt; &gt;</text>
</a>
</g>
</g>
<!-- Node2&#45;&gt;Node1 -->
<g id="edge1" class="edge"><title>Node2&#45;&gt;Node1</title>
<path fill="none" stroke="midnightblue" d="M82,-116.871C82,-106.663 82,-95.4077 82,-87.8419"/>
<polygon fill="midnightblue" stroke="midnightblue" points="78.5001,-116.931 82,-126.931 85.5001,-116.931 78.5001,-116.931"/>
</g>
<!-- Node3 -->
<g id="node3" class="node"><title>Node3</title>
<g id="a_node3"><a xlink:href="classthrill_1_1common_1_1ItemReaderToolsBase.html" target="_top" xlink:title="CRTP class to enhance item/memory reader classes with Varint decoding and String decoding. ">
<polygon fill="none" stroke="black" points="25,-207 25,-237 139,-237 139,-207 25,-207"/>
<text text-anchor="start" x="33" y="-225" font-family="Helvetica,sans-Serif" font-size="10.00">ItemReaderToolsBase</text>
<text text-anchor="middle" x="82" y="-214" font-family="Helvetica,sans-Serif" font-size="10.00">&lt; Reader &gt;</text>
</a>
</g>
</g>
<!-- Node3&#45;&gt;Node2 -->
<g id="edge2" class="edge"><title>Node3&#45;&gt;Node2</title>
<path fill="none" stroke="orange" stroke-dasharray="5,2" d="M82,-196.564C82,-183.624 82,-168.186 82,-157.216"/>
<polygon fill="orange" stroke="orange" points="78.5001,-196.694 82,-206.694 85.5001,-196.694 78.5001,-196.694"/>
<text text-anchor="middle" x="157.5" y="-179.5" font-family="Helvetica,sans-Serif" font-size="10.00"> &lt; BlockReader&lt; BlockSource &gt; &gt;</text>
</g>
</g>
</svg>
