<?xml version="1.0" encoding="UTF-8" standalone="no"?>
<!DOCTYPE svg PUBLIC "-//W3C//DTD SVG 1.1//EN"
 "http://www.w3.org/Graphics/SVG/1.1/DTD/svg11.dtd">
<!-- Generated by graphviz version 2.26.3 (20100126.1600)
 -->
<!-- Title: AsyncReadBuffer Pages: 1 -->
<svg width="620pt" height="136pt"
 viewBox="0.00 0.00 620.00 136.00" xmlns="http://www.w3.org/2000/svg" xmlns:xlink="http://www.w3.org/1999/xlink">
<g id="graph1" class="graph" transform="scale(1 1) rotate(0) translate(4 132)">
<title>AsyncReadBuffer</title>
<!-- Node1 -->
<g id="node1" class="node"><title>Node1</title>
<polygon fill="#bfbfbf" stroke="black" points="518,-66.5 518,-87.5 612,-87.5 612,-66.5 518,-66.5"/>
<text text-anchor="middle" x="565" y="-74.5" font-family="Helvetica,sans-Serif" font-size="10.00">AsyncReadBuffer</text>
</g>
<!-- Node2 -->
<g id="node2" class="node"><title>Node2</title>
<a xlink:href="classthrill_1_1net_1_1Buffer.html" target="_top" xlink:title="Simple buffer of characters without initialization or growing functionality.">
<polygon fill="none" stroke="black" points="335.5,-106.5 335.5,-127.5 378.5,-127.5 378.5,-106.5 335.5,-106.5"/>
<text text-anchor="middle" x="357" y="-114.5" font-family="Helvetica,sans-Serif" font-size="10.00">Buffer</text>
</a>
</g>
<!-- Node2&#45;&gt;Node1 -->
<g id="edge2" class="edge"><title>Node2&#45;&gt;Node1</title>
<path fill="none" stroke="#9a32cd" stroke-dasharray="5,2" d="M388.924,-112.764C418.011,-108.691 462.089,-101.987 500,-94 508.903,-92.1244 518.415,-89.8136 527.338,-87.5068"/>
<polygon fill="#9a32cd" stroke="#9a32cd" points="388.353,-109.309 378.925,-114.143 389.309,-116.244 388.353,-109.309"/>
<text text-anchor="middle" x="477" y="-106" font-family="Helvetica,sans-Serif" font-size="10.00"> buffer_</text>
</g>
<!-- Node3 -->
<g id="node4" class="node"><title>Node3</title>
<a xlink:href="classthrill_1_1net_1_1Connection.html" target="_top" xlink:title="A Connection represents a link to another peer in a network group.">
<polygon fill="none" stroke="black" points="324,-66.5 324,-87.5 390,-87.5 390,-66.5 324,-66.5"/>
<text text-anchor="middle" x="357" y="-74.5" font-family="Helvetica,sans-Serif" font-size="10.00">Connection</text>
</a>
</g>
<!-- Node3&#45;&gt;Node1 -->
<g id="edge4" class="edge"><title>Node3&#45;&gt;Node1</title>
<path fill="none" stroke="#9a32cd" stroke-dasharray="5,2" d="M400.595,-77C434.865,-77 482.526,-77 517.712,-77"/>
<polygon fill="#9a32cd" stroke="#9a32cd" points="400.419,-73.5001 390.419,-77 400.419,-80.5001 400.419,-73.5001"/>
<text text-anchor="middle" x="477" y="-81" font-family="Helvetica,sans-Serif" font-size="10.00"> conn_</text>
</g>
<!-- Node4 -->
<g id="node6" class="node"><title>Node4</title>
<a xlink:href="classtlx_1_1Delegate.html" target="_top" xlink:title="Delegate\&lt; void(Connection\l &amp;c, Buffer &amp;&amp;buffer),\l mem::GPoolAllocator\&lt; char \&gt; \&gt;">
<polygon fill="none" stroke="black" points="278,-0.5 278,-47.5 436,-47.5 436,-0.5 278,-0.5"/>
<text text-anchor="start" x="286" y="-34.5" font-family="Helvetica,sans-Serif" font-size="10.00">Delegate&lt; void(Connection</text>
<text text-anchor="start" x="286" y="-21.5" font-family="Helvetica,sans-Serif" font-size="10.00"> &amp;c, Buffer &amp;&amp;buffer),</text>
<text text-anchor="middle" x="357" y="-8.5" font-family="Helvetica,sans-Serif" font-size="10.00"> mem::GPoolAllocator&lt; char &gt; &gt;</text>
</a>
</g>
<!-- Node4&#45;&gt;Node1 -->
<g id="edge6" class="edge"><title>Node4&#45;&gt;Node1</title>
<path fill="none" stroke="#9a32cd" stroke-dasharray="5,2" d="M445.936,-46.2549C463.844,-50.774 482.529,-55.5164 500,-60 508.022,-62.0587 516.594,-64.2831 524.794,-66.4229"/>
<polygon fill="#9a32cd" stroke="#9a32cd" points="446.632,-42.8209 436.08,-43.7703 444.921,-49.6086 446.632,-42.8209"/>
<text text-anchor="middle" x="477" y="-64" font-family="Helvetica,sans-Serif" font-size="10.00"> callback_</text>
</g>
<!-- Node5 -->
<g id="node8" class="node"><title>Node5</title>
<a xlink:href="classtlx_1_1Delegate.html" target="_top" xlink:title="Delegate\&lt; T, Allocator \&gt;">
<polygon fill="none" stroke="black" points="0,-13.5 0,-34.5 124,-34.5 124,-13.5 0,-13.5"/>
<text text-anchor="middle" x="62" y="-21.5" font-family="Helvetica,sans-Serif" font-size="10.00">Delegate&lt; T, Allocator &gt;</text>
</a>
</g>
<!-- Node5&#45;&gt;Node4 -->
<g id="edge8" class="edge"><title>Node5&#45;&gt;Node4</title>
<path fill="none" stroke="orange" stroke-dasharray="5,2" d="M134.408,-24C177.846,-24 233.133,-24 277.74,-24"/>
<polygon fill="orange" stroke="orange" points="134.201,-20.5001 124.201,-24 134.201,-27.5001 134.201,-20.5001"/>
<text text-anchor="start" x="142" y="-54" font-family="Helvetica,sans-Serif" font-size="10.00"> &lt; void(Connection &amp;c,</text>
<text text-anchor="start" x="142" y="-41" font-family="Helvetica,sans-Serif" font-size="10.00"> Buffer &amp;&amp;buffer), mem</text>
<text text-anchor="middle" x="201" y="-28" font-family="Helvetica,sans-Serif" font-size="10.00">::GPoolAllocator&lt; char &gt; &gt;</text>
</g>
</g>
</svg>
