<?xml version="1.0" encoding="UTF-8" standalone="no"?>
<!DOCTYPE svg PUBLIC "-//W3C//DTD SVG 1.1//EN"
 "http://www.w3.org/Graphics/SVG/1.1/DTD/svg11.dtd">
<!-- Generated by graphviz version 2.26.3 (20100126.1600)
 -->
<!-- Title: MergeNode&lt; ValueType, Comparator, kNumInputs &gt; Pages: 1 -->
<svg width="146pt" height="276pt"
 viewBox="0.00 0.00 146.00 276.00" xmlns="http://www.w3.org/2000/svg" xmlns:xlink="http://www.w3.org/1999/xlink">
<g id="graph1" class="graph" transform="scale(1 1) rotate(0) translate(4 272)">
<title>MergeNode&lt; ValueType, Comparator, kNumInputs &gt;</title>
<!-- Node1 -->
<g id="node1" class="node"><title>Node1</title>
<polygon fill="#bfbfbf" stroke="black" points="-0.5,-1 -0.5,-35 138.5,-35 138.5,-1 -0.5,-1"/>
<text text-anchor="start" x="7.5" y="-22" font-family="Helvetica,sans-Serif" font-size="10.00">MergeNode&lt; ValueType,</text>
<text text-anchor="middle" x="69" y="-9" font-family="Helvetica,sans-Serif" font-size="10.00"> Comparator, kNumInputs &gt;</text>
</g>
<!-- Node2 -->
<g id="node2" class="node"><title>Node2</title>
<a xlink:href="classthrill_1_1api_1_1DOpNode.html" target="_top" xlink:title="A DOpNode is a typed node representing and distributed operations in Thrill.">
<polygon fill="none" stroke="black" points="6.5,-72.5 6.5,-93.5 131.5,-93.5 131.5,-72.5 6.5,-72.5"/>
<text text-anchor="middle" x="69" y="-80.5" font-family="Helvetica,sans-Serif" font-size="10.00">DOpNode&lt; ValueType &gt;</text>
</a>
</g>
<!-- Node2&#45;&gt;Node1 -->
<g id="edge2" class="edge"><title>Node2&#45;&gt;Node1</title>
<path fill="none" stroke="midnightblue" d="M69,-62.1306C69,-53.4049 69,-43.3908 69,-35.1099"/>
<polygon fill="midnightblue" stroke="midnightblue" points="65.5001,-62.2665 69,-72.2666 72.5001,-62.2666 65.5001,-62.2665"/>
</g>
<!-- Node3 -->
<g id="node4" class="node"><title>Node3</title>
<a xlink:href="classthrill_1_1api_1_1DIANode.html" target="_top" xlink:title="A DIANode is a typed node representing and operation in Thrill.">
<polygon fill="none" stroke="black" points="8,-130.5 8,-151.5 130,-151.5 130,-130.5 8,-130.5"/>
<text text-anchor="middle" x="69" y="-138.5" font-family="Helvetica,sans-Serif" font-size="10.00">DIANode&lt; ValueType &gt;</text>
</a>
</g>
<!-- Node3&#45;&gt;Node2 -->
<g id="edge4" class="edge"><title>Node3&#45;&gt;Node2</title>
<path fill="none" stroke="midnightblue" d="M69,-120.191C69,-111.168 69,-100.994 69,-93.5707"/>
<polygon fill="midnightblue" stroke="midnightblue" points="65.5001,-120.362 69,-130.362 72.5001,-120.362 65.5001,-120.362"/>
</g>
<!-- Node4 -->
<g id="node6" class="node"><title>Node4</title>
<a xlink:href="classthrill_1_1api_1_1DIABase.html" target="_top" xlink:title="The DIABase is the untyped super class of DIANode.">
<polygon fill="none" stroke="black" points="41,-188.5 41,-209.5 97,-209.5 97,-188.5 41,-188.5"/>
<text text-anchor="middle" x="69" y="-196.5" font-family="Helvetica,sans-Serif" font-size="10.00">DIABase</text>
</a>
</g>
<!-- Node4&#45;&gt;Node3 -->
<g id="edge6" class="edge"><title>Node4&#45;&gt;Node3</title>
<path fill="none" stroke="midnightblue" d="M69,-178.191C69,-169.168 69,-158.994 69,-151.571"/>
<polygon fill="midnightblue" stroke="midnightblue" points="65.5001,-178.362 69,-188.362 72.5001,-178.362 65.5001,-178.362"/>
</g>
<!-- Node5 -->
<g id="node8" class="node"><title>Node5</title>
<a xlink:href="classtlx_1_1ReferenceCounter.html" target="_top" xlink:title="Provides reference counting abilities for use with CountingPtr.">
<polygon fill="none" stroke="black" points="21,-246.5 21,-267.5 117,-267.5 117,-246.5 21,-246.5"/>
<text text-anchor="middle" x="69" y="-254.5" font-family="Helvetica,sans-Serif" font-size="10.00">ReferenceCounter</text>
</a>
</g>
<!-- Node5&#45;&gt;Node4 -->
<g id="edge8" class="edge"><title>Node5&#45;&gt;Node4</title>
<path fill="none" stroke="midnightblue" d="M69,-236.191C69,-227.168 69,-216.994 69,-209.571"/>
<polygon fill="midnightblue" stroke="midnightblue" points="65.5001,-236.362 69,-246.362 72.5001,-236.362 65.5001,-236.362"/>
</g>
</g>
</svg>
