<?xml version="1.0" encoding="UTF-8" standalone="no"?>
<!DOCTYPE svg PUBLIC "-//W3C//DTD SVG 1.1//EN"
 "http://www.w3.org/Graphics/SVG/1.1/DTD/svg11.dtd">
<!-- Generated by graphviz version 2.36.0 (20140111.2315)
 -->
<!-- Title: GatherNode&lt; ValueType &gt; Pages: 1 -->
<svg width="2302pt" height="740pt"
 viewBox="0.00 0.00 2302.00 740.00" xmlns="http://www.w3.org/2000/svg" xmlns:xlink="http://www.w3.org/1999/xlink">
<g id="graph0" class="graph" transform="scale(1 1) rotate(0) translate(4 736)">
<title>GatherNode&lt; ValueType &gt;</title>
<!-- Node1 -->
<g id="node1" class="node"><title>Node1</title>
<polygon fill="#bfbfbf" stroke="black" points="2160,-258.5 2160,-277.5 2294,-277.5 2294,-258.5 2160,-258.5"/>
<text text-anchor="middle" x="2227" y="-265.5" font-family="Helvetica,sans-Serif" font-size="10.00">GatherNode&lt; ValueType &gt;</text>
</g>
<!-- Node2 -->
<g id="node2" class="node"><title>Node2</title>
<g id="a_node2"><a xlink:href="classthrill_1_1api_1_1ActionResultNode.html" target="_top" xlink:title="ActionResultNode\&lt; std\l::vector\&lt; ValueType \&gt; \&gt;">
<polygon fill="none" stroke="black" points="1955.5,-274 1955.5,-304 2078.5,-304 2078.5,-274 1955.5,-274"/>
<text text-anchor="start" x="1963.5" y="-292" font-family="Helvetica,sans-Serif" font-size="10.00">ActionResultNode&lt; std</text>
<text text-anchor="middle" x="2017" y="-281" font-family="Helvetica,sans-Serif" font-size="10.00">::vector&lt; ValueType &gt; &gt;</text>
</a>
</g>
</g>
<!-- Node2&#45;&gt;Node1 -->
<g id="edge1" class="edge"><title>Node2&#45;&gt;Node1</title>
<path fill="none" stroke="midnightblue" d="M2088.74,-281.858C2111.72,-279.538 2137.11,-276.974 2159.75,-274.689"/>
<polygon fill="midnightblue" stroke="midnightblue" points="2088.32,-278.383 2078.72,-282.869 2089.02,-285.347 2088.32,-278.383"/>
</g>
<!-- Node3 -->
<g id="node3" class="node"><title>Node3</title>
<g id="a_node3"><a xlink:href="classthrill_1_1api_1_1ActionNode.html" target="_top" xlink:title="ActionNode">
<polygon fill="none" stroke="black" points="1540,-306.5 1540,-325.5 1608,-325.5 1608,-306.5 1540,-306.5"/>
<text text-anchor="middle" x="1574" y="-313.5" font-family="Helvetica,sans-Serif" font-size="10.00">ActionNode</text>
</a>
</g>
</g>
<!-- Node3&#45;&gt;Node2 -->
<g id="edge2" class="edge"><title>Node3&#45;&gt;Node2</title>
<path fill="none" stroke="midnightblue" d="M1618.09,-318.989C1621.44,-319.054 1624.77,-319.064 1628,-319 1763.25,-316.332 1797.66,-319.915 1932,-304 1939.5,-303.111 1947.35,-301.981 1955.11,-300.741"/>
<polygon fill="midnightblue" stroke="midnightblue" points="1618.18,-315.49 1608.06,-318.651 1617.94,-322.486 1618.18,-315.49"/>
</g>
<!-- Node29 -->
<g id="node29" class="node"><title>Node29</title>
<g id="a_node29"><a xlink:href="classthrill_1_1api_1_1ActionResultNode.html" target="_top" xlink:title="ActionResultNode\&lt; Result\lType \&gt;">
<polygon fill="none" stroke="black" points="1646,-274 1646,-304 1780,-304 1780,-274 1646,-274"/>
<text text-anchor="start" x="1654" y="-292" font-family="Helvetica,sans-Serif" font-size="10.00">ActionResultNode&lt; Result</text>
<text text-anchor="middle" x="1713" y="-281" font-family="Helvetica,sans-Serif" font-size="10.00">Type &gt;</text>
</a>
</g>
</g>
<!-- Node3&#45;&gt;Node29 -->
<g id="edge41" class="edge"><title>Node3&#45;&gt;Node29</title>
<path fill="none" stroke="midnightblue" d="M1618.17,-307.492C1626.98,-305.755 1636.45,-303.889 1645.86,-302.035"/>
<polygon fill="midnightblue" stroke="midnightblue" points="1617.3,-304.096 1608.16,-309.464 1618.65,-310.964 1617.3,-304.096"/>
</g>
<!-- Node4 -->
<g id="node4" class="node"><title>Node4</title>
<g id="a_node4"><a xlink:href="classthrill_1_1api_1_1DIABase.html" target="_top" xlink:title="The DIABase is the untyped super class of DIANode. ">
<polygon fill="none" stroke="black" points="1446,-306.5 1446,-325.5 1502,-325.5 1502,-306.5 1446,-306.5"/>
<text text-anchor="middle" x="1474" y="-313.5" font-family="Helvetica,sans-Serif" font-size="10.00">DIABase</text>
</a>
</g>
</g>
<!-- Node4&#45;&gt;Node3 -->
<g id="edge3" class="edge"><title>Node4&#45;&gt;Node3</title>
<path fill="none" stroke="midnightblue" d="M1512.3,-316C1521.34,-316 1530.93,-316 1539.76,-316"/>
<polygon fill="midnightblue" stroke="midnightblue" points="1512.04,-312.5 1502.04,-316 1512.04,-319.5 1512.04,-312.5"/>
</g>
<!-- Node5 -->
<g id="node5" class="node"><title>Node5</title>
<g id="a_node5"><a xlink:href="classtlx_1_1ReferenceCounter.html" target="_top" xlink:title="Provides reference counting abilities for use with CountingPtr. ">
<polygon fill="none" stroke="black" points="1260,-389.5 1260,-408.5 1356,-408.5 1356,-389.5 1260,-389.5"/>
<text text-anchor="middle" x="1308" y="-396.5" font-family="Helvetica,sans-Serif" font-size="10.00">ReferenceCounter</text>
</a>
</g>
</g>
<!-- Node5&#45;&gt;Node4 -->
<g id="edge4" class="edge"><title>Node5&#45;&gt;Node4</title>
<path fill="none" stroke="midnightblue" d="M1366.17,-395.839C1386.87,-392.612 1409.65,-386.481 1428,-375 1447.44,-362.837 1461.6,-339.064 1468.43,-325.707"/>
<polygon fill="midnightblue" stroke="midnightblue" points="1365.64,-392.379 1356.21,-397.201 1366.59,-399.315 1365.64,-392.379"/>
</g>
<!-- Node6 -->
<g id="node6" class="node"><title>Node6</title>
<g id="a_node6"><a xlink:href="classthrill_1_1api_1_1Context.html" target="_top" xlink:title="The Context of a job is a unique instance per worker which holds references to all underlying parts o...">
<polygon fill="none" stroke="black" points="1282.5,-228.5 1282.5,-247.5 1333.5,-247.5 1333.5,-228.5 1282.5,-228.5"/>
<text text-anchor="middle" x="1308" y="-235.5" font-family="Helvetica,sans-Serif" font-size="10.00">Context</text>
</a>
</g>
</g>
<!-- Node6&#45;&gt;Node4 -->
<g id="edge5" class="edge"><title>Node6&#45;&gt;Node4</title>
<path fill="none" stroke="#9a32cd" stroke-dasharray="5,2" d="M1338.28,-251.927C1371.36,-267.659 1424.31,-292.842 1452.98,-306.48"/>
<polygon fill="#9a32cd" stroke="#9a32cd" points="1339.64,-248.699 1329.11,-247.564 1336.64,-255.02 1339.64,-248.699"/>
<text text-anchor="middle" x="1401" y="-296" font-family="Helvetica,sans-Serif" font-size="10.00"> context_</text>
</g>
<!-- Node7 -->
<g id="node7" class="node"><title>Node7</title>
<g id="a_node7"><a xlink:href="classthrill_1_1net_1_1Manager.html" target="_top" xlink:title="Initializes communication channels, manages communication channels and handles errors. ">
<polygon fill="none" stroke="black" points="480,-167.5 480,-186.5 534,-186.5 534,-167.5 480,-167.5"/>
<text text-anchor="middle" x="507" y="-174.5" font-family="Helvetica,sans-Serif" font-size="10.00">Manager</text>
</a>
</g>
</g>
<!-- Node7&#45;&gt;Node6 -->
<g id="edge6" class="edge"><title>Node7&#45;&gt;Node6</title>
<path fill="none" stroke="#9a32cd" stroke-dasharray="5,2" d="M544.095,-187.952C562.478,-193.177 585.27,-199.121 606,-203 866.808,-251.806 1191.11,-242.907 1282.2,-239.158"/>
<polygon fill="#9a32cd" stroke="#9a32cd" points="544.955,-184.558 534.377,-185.14 543.01,-191.282 544.955,-184.558"/>
<text text-anchor="middle" x="943" y="-244" font-family="Helvetica,sans-Serif" font-size="10.00"> net_manager_</text>
</g>
<!-- Node7&#45;&gt;Node6 -->
<g id="edge37" class="edge"><title>Node7&#45;&gt;Node6</title>
<path fill="none" stroke="#9a32cd" stroke-dasharray="5,2" d="M544.405,-176.659C649.705,-175.836 949.811,-174.701 992,-188 1001.17,-190.891 1000.99,-196.634 1010,-200 1059.91,-218.652 1220.34,-231.799 1282.28,-236.297"/>
<polygon fill="#9a32cd" stroke="#9a32cd" points="544.235,-173.16 534.264,-176.742 544.292,-180.16 544.235,-173.16"/>
<text text-anchor="middle" x="943" y="-191" font-family="Helvetica,sans-Serif" font-size="10.00"> mem_manager_</text>
</g>
<!-- Node22 -->
<g id="node22" class="node"><title>Node22</title>
<g id="a_node22"><a xlink:href="classthrill_1_1data_1_1Multiplexer.html" target="_top" xlink:title="Multiplexes virtual Connections on Dispatcher. ">
<polygon fill="none" stroke="black" points="1050,-95.5 1050,-114.5 1114,-114.5 1114,-95.5 1050,-95.5"/>
<text text-anchor="middle" x="1082" y="-102.5" font-family="Helvetica,sans-Serif" font-size="10.00">Multiplexer</text>
</a>
</g>
</g>
<!-- Node7&#45;&gt;Node22 -->
<g id="edge34" class="edge"><title>Node7&#45;&gt;Node22</title>
<path fill="none" stroke="#9a32cd" stroke-dasharray="5,2" d="M544.143,-173.365C624.708,-165.126 825.073,-143.881 992,-120 1011.23,-117.248 1032.72,-113.643 1049.76,-110.657"/>
<polygon fill="#9a32cd" stroke="#9a32cd" points="543.624,-169.9 534.03,-174.395 544.333,-176.863 543.624,-169.9"/>
<text text-anchor="middle" x="814" y="-154" font-family="Helvetica,sans-Serif" font-size="10.00"> mem_manager_</text>
</g>
<!-- Node26 -->
<g id="node26" class="node"><title>Node26</title>
<g id="a_node26"><a xlink:href="classthrill_1_1data_1_1BlockPool.html" target="_top" xlink:title="Pool to allocate, keep, swap out/in, and free all ByteBlocks on the host. ">
<polygon fill="none" stroke="black" points="783.5,-94.5 783.5,-113.5 844.5,-113.5 844.5,-94.5 783.5,-94.5"/>
<text text-anchor="middle" x="814" y="-101.5" font-family="Helvetica,sans-Serif" font-size="10.00">BlockPool</text>
</a>
</g>
</g>
<!-- Node7&#45;&gt;Node26 -->
<g id="edge33" class="edge"><title>Node7&#45;&gt;Node26</title>
<path fill="none" stroke="#9a32cd" stroke-dasharray="5,2" d="M538.361,-163.39C557.45,-155.297 582.778,-145.394 606,-139 622.823,-134.368 730.309,-117.081 783.404,-108.664"/>
<polygon fill="#9a32cd" stroke="#9a32cd" points="536.79,-160.256 528.992,-167.429 539.561,-166.684 536.79,-160.256"/>
<text text-anchor="middle" x="670" y="-142" font-family="Helvetica,sans-Serif" font-size="10.00"> mem_manager_</text>
</g>
<!-- Node8 -->
<g id="node8" class="node"><title>Node8</title>
<g id="a_node8"><a xlink:href="classthrill_1_1common_1_1ProfileTask.html" target="_top" xlink:title="ProfileTask">
<polygon fill="none" stroke="black" points="194,-147.5 194,-166.5 260,-166.5 260,-147.5 194,-147.5"/>
<text text-anchor="middle" x="227" y="-154.5" font-family="Helvetica,sans-Serif" font-size="10.00">ProfileTask</text>
</a>
</g>
</g>
<!-- Node8&#45;&gt;Node7 -->
<g id="edge7" class="edge"><title>Node8&#45;&gt;Node7</title>
<path fill="none" stroke="midnightblue" d="M270.14,-160.032C328.365,-164.22 431.678,-171.653 479.879,-175.121"/>
<polygon fill="midnightblue" stroke="midnightblue" points="270.387,-156.54 260.162,-159.314 269.885,-163.522 270.387,-156.54"/>
</g>
<!-- Node8&#45;&gt;Node26 -->
<g id="edge31" class="edge"><title>Node8&#45;&gt;Node26</title>
<path fill="none" stroke="midnightblue" d="M246.745,-140.642C262.856,-127.642 287.329,-110.31 312,-102 482.423,-44.5975 704.348,-81.218 783.429,-97.4328"/>
<polygon fill="midnightblue" stroke="midnightblue" points="244.154,-138.245 238.708,-147.333 248.632,-143.625 244.154,-138.245"/>
</g>
<!-- Node9 -->
<g id="node9" class="node"><title>Node9</title>
<g id="a_node9"><a xlink:href="classthrill_1_1common_1_1JsonLogger.html" target="_top" xlink:title="JsonLogger is a receiver of JSON output objects for logging. ">
<polygon fill="none" stroke="black" points="193.5,-230.5 193.5,-249.5 260.5,-249.5 260.5,-230.5 193.5,-230.5"/>
<text text-anchor="middle" x="227" y="-237.5" font-family="Helvetica,sans-Serif" font-size="10.00">JsonLogger</text>
</a>
</g>
</g>
<!-- Node9&#45;&gt;Node4 -->
<g id="edge38" class="edge"><title>Node9&#45;&gt;Node4</title>
<path fill="none" stroke="#9a32cd" stroke-dasharray="5,2" d="M248.383,-255.884C292.619,-288.713 401.847,-361 506,-361 506,-361 506,-361 1309,-361 1362.14,-361 1421.63,-338.753 1452.27,-325.543"/>
<polygon fill="#9a32cd" stroke="#9a32cd" points="250.278,-252.93 240.188,-249.697 246.06,-258.516 250.278,-252.93"/>
<text text-anchor="middle" x="943" y="-364" font-family="Helvetica,sans-Serif" font-size="10.00"> logger_</text>
</g>
<!-- Node9&#45;&gt;Node6 -->
<g id="edge24" class="edge"><title>Node9&#45;&gt;Node6</title>
<path fill="none" stroke="#9a32cd" stroke-dasharray="5,2" d="M270.739,-246.045C374.405,-260.02 647.507,-292.727 876,-284 1039.02,-277.773 1081.3,-284.124 1242,-256 1255.49,-253.638 1270.23,-249.676 1282.26,-246.068"/>
<polygon fill="#9a32cd" stroke="#9a32cd" points="271.048,-242.554 260.667,-244.673 270.103,-249.49 271.048,-242.554"/>
<text text-anchor="middle" x="814" y="-300" font-family="Helvetica,sans-Serif" font-size="10.00"> logger_</text>
<text text-anchor="middle" x="814" y="-289" font-family="Helvetica,sans-Serif" font-size="10.00">base_logger_</text>
</g>
<!-- Node9&#45;&gt;Node7 -->
<g id="edge8" class="edge"><title>Node9&#45;&gt;Node7</title>
<path fill="none" stroke="#9a32cd" stroke-dasharray="5,2" d="M270.72,-230.319C329.097,-217.09 432.009,-193.768 479.999,-182.892"/>
<polygon fill="#9a32cd" stroke="#9a32cd" points="269.687,-226.964 260.708,-232.588 271.234,-233.791 269.687,-226.964"/>
<text text-anchor="middle" x="360" y="-223" font-family="Helvetica,sans-Serif" font-size="10.00"> logger_</text>
</g>
<!-- Node9&#45;&gt;Node9 -->
<g id="edge10" class="edge"><title>Node9&#45;&gt;Node9</title>
<path fill="none" stroke="#9a32cd" stroke-dasharray="5,2" d="M207.001,-259.4C208.337,-264.315 215.003,-268 227,-268 246.195,-268 251.744,-258.565 243.646,-249.757"/>
<polygon fill="#9a32cd" stroke="#9a32cd" points="210.376,-260.352 210.354,-249.757 203.764,-258.053 210.376,-260.352"/>
<text text-anchor="middle" x="227" y="-271" font-family="Helvetica,sans-Serif" font-size="10.00"> super_</text>
</g>
<!-- Node9&#45;&gt;Node26 -->
<g id="edge32" class="edge"><title>Node9&#45;&gt;Node26</title>
<path fill="none" stroke="#9a32cd" stroke-dasharray="5,2" d="M252.986,-225.214C289.614,-204.259 360.641,-166.326 426,-147 555.005,-108.856 717.297,-104.03 783.173,-103.773"/>
<polygon fill="#9a32cd" stroke="#9a32cd" points="250.923,-222.364 244.019,-230.4 254.428,-228.424 250.923,-222.364"/>
<text text-anchor="middle" x="507" y="-150" font-family="Helvetica,sans-Serif" font-size="10.00"> logger_</text>
</g>
<!-- Node10 -->
<g id="node10" class="node"><title>Node10</title>
<g id="a_node10"><a xlink:href="classthrill_1_1common_1_1JsonVerbatim.html" target="_top" xlink:title="A special class to output verbatim text. ">
<polygon fill="none" stroke="black" points="0.5,-230.5 0.5,-249.5 77.5,-249.5 77.5,-230.5 0.5,-230.5"/>
<text text-anchor="middle" x="39" y="-237.5" font-family="Helvetica,sans-Serif" font-size="10.00">JsonVerbatim</text>
</a>
</g>
</g>
<!-- Node10&#45;&gt;Node9 -->
<g id="edge9" class="edge"><title>Node10&#45;&gt;Node9</title>
<path fill="none" stroke="#9a32cd" stroke-dasharray="5,2" d="M88.0045,-240C121.105,-240 164.226,-240 193.388,-240"/>
<polygon fill="#9a32cd" stroke="#9a32cd" points="87.6399,-236.5 77.6399,-240 87.6398,-243.5 87.6399,-236.5"/>
<text text-anchor="middle" x="119" y="-243" font-family="Helvetica,sans-Serif" font-size="10.00"> common_</text>
</g>
<!-- Node11 -->
<g id="node11" class="node"><title>Node11</title>
<g id="a_node11"><a xlink:href="classthrill_1_1net_1_1FlowControlChannel.html" target="_top" xlink:title="Provides a blocking collection for communication. ">
<polygon fill="none" stroke="black" points="1029.5,-458.5 1029.5,-477.5 1134.5,-477.5 1134.5,-458.5 1029.5,-458.5"/>
<text text-anchor="middle" x="1082" y="-465.5" font-family="Helvetica,sans-Serif" font-size="10.00">FlowControlChannel</text>
</a>
</g>
</g>
<!-- Node11&#45;&gt;Node6 -->
<g id="edge11" class="edge"><title>Node11&#45;&gt;Node6</title>
<path fill="none" stroke="#9a32cd" stroke-dasharray="5,2" d="M1100.9,-451.482C1130.85,-423.644 1192.68,-365.296 1242,-313 1263.28,-290.437 1286.77,-262.524 1298.84,-247.94"/>
<polygon fill="#9a32cd" stroke="#9a32cd" points="1098.29,-449.129 1093.34,-458.494 1103.05,-454.263 1098.29,-449.129"/>
<text text-anchor="middle" x="1207" y="-386" font-family="Helvetica,sans-Serif" font-size="10.00"> net</text>
</g>
<!-- Node12 -->
<g id="node12" class="node"><title>Node12</title>
<g id="a_node12"><a xlink:href="classthrill_1_1net_1_1FlowControlChannel_1_1LocalData.html" target="_top" xlink:title="LocalData">
<polygon fill="none" stroke="black" points="783.5,-505.5 783.5,-524.5 844.5,-524.5 844.5,-505.5 783.5,-505.5"/>
<text text-anchor="middle" x="814" y="-512.5" font-family="Helvetica,sans-Serif" font-size="10.00">LocalData</text>
</a>
</g>
</g>
<!-- Node12&#45;&gt;Node11 -->
<g id="edge12" class="edge"><title>Node12&#45;&gt;Node11</title>
<path fill="none" stroke="#9a32cd" stroke-dasharray="5,2" d="M854.736,-507.979C901.217,-499.766 978.298,-486.147 1029.37,-477.122"/>
<polygon fill="#9a32cd" stroke="#9a32cd" points="853.978,-504.559 844.739,-509.745 855.196,-511.452 853.978,-504.559"/>
<text text-anchor="middle" x="943" y="-503" font-family="Helvetica,sans-Serif" font-size="10.00"> shmem_</text>
</g>
<!-- Node13 -->
<g id="node13" class="node"><title>Node13</title>
<g id="a_node13"><a xlink:href="classthrill_1_1net_1_1Group.html" target="_top" xlink:title="A network Group is a collection of enumerated communication links, which provides point&#45;to&#45;point comm...">
<polygon fill="none" stroke="black" points="792.5,-255.5 792.5,-274.5 835.5,-274.5 835.5,-255.5 792.5,-255.5"/>
<text text-anchor="middle" x="814" y="-262.5" font-family="Helvetica,sans-Serif" font-size="10.00">Group</text>
</a>
</g>
</g>
<!-- Node13&#45;&gt;Node11 -->
<g id="edge13" class="edge"><title>Node13&#45;&gt;Node11</title>
<path fill="none" stroke="#9a32cd" stroke-dasharray="5,2" d="M845.598,-270.7C856.643,-274.225 868.278,-279.897 876,-289 900.7,-318.115 867.266,-345.741 894,-373 925.326,-404.941 951.82,-376.324 992,-396 1025.2,-412.257 1057.14,-442.899 1072.12,-458.441"/>
<polygon fill="#9a32cd" stroke="#9a32cd" points="846.318,-267.268 835.75,-268.029 844.486,-274.024 846.318,-267.268"/>
<text text-anchor="middle" x="943" y="-399" font-family="Helvetica,sans-Serif" font-size="10.00"> group_</text>
</g>
<!-- Node13&#45;&gt;Node22 -->
<g id="edge29" class="edge"><title>Node13&#45;&gt;Node22</title>
<path fill="none" stroke="#9a32cd" stroke-dasharray="5,2" d="M839.3,-250.381C854.568,-241.709 874.92,-231.065 894,-224 935.955,-208.465 960.379,-232.649 992,-201 1016.84,-176.138 985.548,-149.244 1010,-124 1020.3,-113.368 1035.84,-108.47 1049.76,-106.293"/>
<polygon fill="#9a32cd" stroke="#9a32cd" points="837.405,-247.434 830.507,-255.476 840.914,-253.491 837.405,-247.434"/>
<text text-anchor="middle" x="943" y="-227" font-family="Helvetica,sans-Serif" font-size="10.00"> group_</text>
</g>
<!-- Node14 -->
<g id="node14" class="node"><title>Node14</title>
<g id="a_node14"><a xlink:href="classthrill_1_1common_1_1AtomicMovable.html" target="_top" xlink:title="AtomicMovable\&lt; size_t \&gt;">
<polygon fill="none" stroke="black" points="606,-450.5 606,-469.5 734,-469.5 734,-450.5 606,-450.5"/>
<text text-anchor="middle" x="670" y="-457.5" font-family="Helvetica,sans-Serif" font-size="10.00">AtomicMovable&lt; size_t &gt;</text>
</a>
</g>
</g>
<!-- Node14&#45;&gt;Node11 -->
<g id="edge14" class="edge"><title>Node14&#45;&gt;Node11</title>
<path fill="none" stroke="#9a32cd" stroke-dasharray="5,2" d="M700.074,-446.376C715.197,-440.031 734.201,-433.19 752,-430 860.664,-410.523 991.395,-441.637 1049.97,-458.411"/>
<polygon fill="#9a32cd" stroke="#9a32cd" points="698.523,-443.234 690.748,-450.43 701.314,-449.654 698.523,-443.234"/>
<text text-anchor="middle" x="814" y="-488" font-family="Helvetica,sans-Serif" font-size="10.00"> count_allreduce_</text>
<text text-anchor="middle" x="814" y="-477" font-family="Helvetica,sans-Serif" font-size="10.00">count_broadcast_</text>
<text text-anchor="middle" x="814" y="-466" font-family="Helvetica,sans-Serif" font-size="10.00">count_reduce_</text>
<text text-anchor="middle" x="814" y="-455" font-family="Helvetica,sans-Serif" font-size="10.00">count_prefixsum_</text>
<text text-anchor="middle" x="814" y="-444" font-family="Helvetica,sans-Serif" font-size="10.00">count_barrier_</text>
<text text-anchor="middle" x="814" y="-433" font-family="Helvetica,sans-Serif" font-size="10.00">count_predecessor_</text>
</g>
<!-- Node15 -->
<g id="node15" class="node"><title>Node15</title>
<g id="a_node15"><a xlink:href="classthrill_1_1common_1_1AtomicMovable.html" target="_top" xlink:title="This is a derivative of std::atomic which enables easier and less error&#45;prone writing of move&#45;only cl...">
<polygon fill="none" stroke="black" points="173,-483.5 173,-502.5 281,-502.5 281,-483.5 173,-483.5"/>
<text text-anchor="middle" x="227" y="-490.5" font-family="Helvetica,sans-Serif" font-size="10.00">AtomicMovable&lt; T &gt;</text>
</a>
</g>
</g>
<!-- Node15&#45;&gt;Node14 -->
<g id="edge15" class="edge"><title>Node15&#45;&gt;Node14</title>
<path fill="none" stroke="orange" stroke-dasharray="5,2" d="M291.338,-488.26C375.103,-481.992 521.875,-471.009 605.647,-464.741"/>
<polygon fill="orange" stroke="orange" points="290.906,-484.783 281.195,-489.019 291.428,-491.763 290.906,-484.783"/>
<text text-anchor="middle" x="360" y="-490" font-family="Helvetica,sans-Serif" font-size="10.00"> &lt; size_t &gt;</text>
</g>
<!-- Node17 -->
<g id="node17" class="node"><title>Node17</title>
<g id="a_node17"><a xlink:href="classthrill_1_1common_1_1AtomicMovable.html" target="_top" xlink:title="AtomicMovable\&lt; uint64_t \&gt;">
<polygon fill="none" stroke="black" points="438.5,-517.5 438.5,-536.5 575.5,-536.5 575.5,-517.5 438.5,-517.5"/>
<text text-anchor="middle" x="507" y="-524.5" font-family="Helvetica,sans-Serif" font-size="10.00">AtomicMovable&lt; uint64_t &gt;</text>
</a>
</g>
</g>
<!-- Node15&#45;&gt;Node17 -->
<g id="edge18" class="edge"><title>Node15&#45;&gt;Node17</title>
<path fill="none" stroke="orange" stroke-dasharray="5,2" d="M291.253,-500.736C335.151,-506.105 393.559,-513.248 438.379,-518.73"/>
<polygon fill="orange" stroke="orange" points="291.623,-497.255 281.272,-499.515 290.773,-504.203 291.623,-497.255"/>
<text text-anchor="middle" x="360" y="-518" font-family="Helvetica,sans-Serif" font-size="10.00"> &lt; uint64_t &gt;</text>
</g>
<!-- Node16 -->
<g id="node16" class="node"><title>Node16</title>
<g id="a_node16"><a xlink:href="classthrill_1_1common_1_1ThreadBarrierSpinning.html" target="_top" xlink:title="Implements a cyclic barrier using atomics and a spin lock that can be used to synchronize threads...">
<polygon fill="none" stroke="black" points="757.5,-543.5 757.5,-562.5 870.5,-562.5 870.5,-543.5 757.5,-543.5"/>
<text text-anchor="middle" x="814" y="-550.5" font-family="Helvetica,sans-Serif" font-size="10.00">ThreadBarrierSpinning</text>
</a>
</g>
</g>
<!-- Node16&#45;&gt;Node11 -->
<g id="edge16" class="edge"><title>Node16&#45;&gt;Node11</title>
<path fill="none" stroke="#9a32cd" stroke-dasharray="5,2" d="M880.948,-543.28C914.772,-537.19 956.263,-527.991 992,-515 1019.26,-505.09 1048.59,-488.27 1065.84,-477.668"/>
<polygon fill="#9a32cd" stroke="#9a32cd" points="879.959,-539.9 870.711,-545.071 881.165,-546.795 879.959,-539.9"/>
<text text-anchor="middle" x="943" y="-544" font-family="Helvetica,sans-Serif" font-size="10.00"> barrier_</text>
</g>
<!-- Node17&#45;&gt;Node16 -->
<g id="edge17" class="edge"><title>Node17&#45;&gt;Node16</title>
<path fill="none" stroke="#9a32cd" stroke-dasharray="5,2" d="M585.827,-533.634C639.362,-538.198 709.197,-544.151 757.23,-548.246"/>
<polygon fill="#9a32cd" stroke="#9a32cd" points="585.951,-530.132 575.689,-532.77 585.356,-537.107 585.951,-530.132"/>
<text text-anchor="middle" x="670" y="-550" font-family="Helvetica,sans-Serif" font-size="10.00"> wait_time_</text>
</g>
<!-- Node18 -->
<g id="node18" class="node"><title>Node18</title>
<g id="a_node18"><a xlink:href="classthrill_1_1common_1_1StatsTimerBaseStopped.html" target="_top" xlink:title="StatsTimerBaseStopped\l\&lt; enable_stats \&gt;">
<polygon fill="none" stroke="black" points="752.5,-582 752.5,-612 875.5,-612 875.5,-582 752.5,-582"/>
<text text-anchor="start" x="760.5" y="-600" font-family="Helvetica,sans-Serif" font-size="10.00">StatsTimerBaseStopped</text>
<text text-anchor="middle" x="814" y="-589" font-family="Helvetica,sans-Serif" font-size="10.00">&lt; enable_stats &gt;</text>
</a>
</g>
</g>
<!-- Node18&#45;&gt;Node11 -->
<g id="edge19" class="edge"><title>Node18&#45;&gt;Node11</title>
<path fill="none" stroke="#9a32cd" stroke-dasharray="5,2" d="M885.983,-589.671C919.685,-583.969 959.579,-573.867 992,-556 1028.73,-535.759 1060.66,-496.021 1074.16,-477.688"/>
<polygon fill="#9a32cd" stroke="#9a32cd" points="885.063,-586.273 875.738,-591.302 886.164,-593.186 885.063,-586.273"/>
<text text-anchor="start" x="894.5" y="-724" font-family="Helvetica,sans-Serif" font-size="10.00"> timer_communication</text>
<text text-anchor="middle" x="943" y="-713" font-family="Helvetica,sans-Serif" font-size="10.00">_</text>
<text text-anchor="start" x="894.5" y="-702" font-family="Helvetica,sans-Serif" font-size="10.00">timer_predecessor</text>
<text text-anchor="middle" x="943" y="-691" font-family="Helvetica,sans-Serif" font-size="10.00">_</text>
<text text-anchor="start" x="894.5" y="-680" font-family="Helvetica,sans-Serif" font-size="10.00">timer_allreduce</text>
<text text-anchor="middle" x="943" y="-669" font-family="Helvetica,sans-Serif" font-size="10.00">_</text>
<text text-anchor="start" x="894.5" y="-658" font-family="Helvetica,sans-Serif" font-size="10.00">timer_barrier</text>
<text text-anchor="middle" x="943" y="-647" font-family="Helvetica,sans-Serif" font-size="10.00">_</text>
<text text-anchor="start" x="894.5" y="-636" font-family="Helvetica,sans-Serif" font-size="10.00">timer_prefixsum</text>
<text text-anchor="middle" x="943" y="-625" font-family="Helvetica,sans-Serif" font-size="10.00">_</text>
<text text-anchor="start" x="894.5" y="-614" font-family="Helvetica,sans-Serif" font-size="10.00">timer_broadcast</text>
<text text-anchor="middle" x="943" y="-603" font-family="Helvetica,sans-Serif" font-size="10.00">_</text>
<text text-anchor="middle" x="943" y="-592" font-family="Helvetica,sans-Serif" font-size="10.00">timer_reduce_</text>
</g>
<!-- Node19 -->
<g id="node19" class="node"><title>Node19</title>
<g id="a_node19"><a xlink:href="classthrill_1_1common_1_1StatsTimerBase.html" target="_top" xlink:title="This class provides a statistical stop watch timer that can easily be deactivated using a boolean tem...">
<polygon fill="none" stroke="black" points="160.5,-582.5 160.5,-601.5 293.5,-601.5 293.5,-582.5 160.5,-582.5"/>
<text text-anchor="middle" x="227" y="-589.5" font-family="Helvetica,sans-Serif" font-size="10.00">StatsTimerBase&lt; Active &gt;</text>
</a>
</g>
</g>
<!-- Node19&#45;&gt;Node18 -->
<g id="edge20" class="edge"><title>Node19&#45;&gt;Node18</title>
<path fill="none" stroke="midnightblue" d="M303.698,-592.25C376.549,-592.53 489.809,-593.073 588,-594 643.667,-594.526 707.077,-595.396 752.361,-596.064"/>
<polygon fill="midnightblue" stroke="midnightblue" points="303.706,-588.75 293.693,-592.212 303.679,-595.75 303.706,-588.75"/>
</g>
<!-- Node20 -->
<g id="node20" class="node"><title>Node20</title>
<g id="a_node20"><a xlink:href="classthrill_1_1common_1_1StatsTimerBaseStopped.html" target="_top" xlink:title="StatsTimerBaseStopped\l\&lt; Active \&gt;">
<polygon fill="none" stroke="black" points="445.5,-604 445.5,-634 568.5,-634 568.5,-604 445.5,-604"/>
<text text-anchor="start" x="453.5" y="-622" font-family="Helvetica,sans-Serif" font-size="10.00">StatsTimerBaseStopped</text>
<text text-anchor="middle" x="507" y="-611" font-family="Helvetica,sans-Serif" font-size="10.00">&lt; Active &gt;</text>
</a>
</g>
</g>
<!-- Node19&#45;&gt;Node20 -->
<g id="edge22" class="edge"><title>Node19&#45;&gt;Node20</title>
<path fill="none" stroke="midnightblue" d="M303.707,-599.353C348.161,-603.67 403.596,-609.054 445.189,-613.094"/>
<polygon fill="midnightblue" stroke="midnightblue" points="303.822,-595.848 293.53,-598.364 303.145,-602.815 303.822,-595.848"/>
</g>
<!-- Node20&#45;&gt;Node18 -->
<g id="edge21" class="edge"><title>Node20&#45;&gt;Node18</title>
<path fill="none" stroke="orange" stroke-dasharray="5,2" d="M578.891,-613.887C631.517,-610.091 702.524,-604.969 752.492,-601.365"/>
<polygon fill="orange" stroke="orange" points="578.345,-610.417 568.623,-614.627 578.849,-617.399 578.345,-610.417"/>
<text text-anchor="middle" x="670" y="-615" font-family="Helvetica,sans-Serif" font-size="10.00"> &lt; enable_stats &gt;</text>
</g>
<!-- Node21 -->
<g id="node21" class="node"><title>Node21</title>
<g id="a_node21"><a xlink:href="classthrill_1_1api_1_1MemoryConfig.html" target="_top" xlink:title="MemoryConfig">
<polygon fill="none" stroke="black" points="1042,-133.5 1042,-152.5 1122,-152.5 1122,-133.5 1042,-133.5"/>
<text text-anchor="middle" x="1082" y="-140.5" font-family="Helvetica,sans-Serif" font-size="10.00">MemoryConfig</text>
</a>
</g>
</g>
<!-- Node21&#45;&gt;Node6 -->
<g id="edge23" class="edge"><title>Node21&#45;&gt;Node6</title>
<path fill="none" stroke="#9a32cd" stroke-dasharray="5,2" d="M1132.55,-135.488C1166.99,-133.125 1211.94,-136.121 1242,-161 1262.79,-178.208 1241.73,-199.137 1260,-219 1265.84,-225.347 1274.1,-229.62 1282.06,-232.475"/>
<polygon fill="#9a32cd" stroke="#9a32cd" points="1131.89,-132.032 1122.23,-136.375 1132.49,-139.006 1131.89,-132.032"/>
<text text-anchor="middle" x="1207" y="-164" font-family="Helvetica,sans-Serif" font-size="10.00"> mem_config_</text>
</g>
<!-- Node22&#45;&gt;Node6 -->
<g id="edge25" class="edge"><title>Node22&#45;&gt;Node6</title>
<path fill="none" stroke="#9a32cd" stroke-dasharray="5,2" d="M1124.43,-97.0195C1160.19,-92.7077 1210.85,-93.161 1242,-122 1274.17,-151.789 1232.26,-185.045 1260,-219 1265.57,-225.816 1273.96,-230.206 1282.12,-233.025"/>
<polygon fill="#9a32cd" stroke="#9a32cd" points="1123.74,-93.5814 1114.32,-98.413 1124.7,-100.516 1123.74,-93.5814"/>
<text text-anchor="middle" x="1207" y="-125" font-family="Helvetica,sans-Serif" font-size="10.00"> multiplexer_</text>
</g>
<!-- Node23 -->
<g id="node23" class="node"><title>Node23</title>
<g id="a_node23"><a xlink:href="classthrill_1_1net_1_1DispatcherThread.html" target="_top" xlink:title="DispatcherThread contains a net::Dispatcher object and an associated thread that runs in the dispatch...">
<polygon fill="none" stroke="black" points="767,-39.5 767,-58.5 861,-58.5 861,-39.5 767,-39.5"/>
<text text-anchor="middle" x="814" y="-46.5" font-family="Helvetica,sans-Serif" font-size="10.00">DispatcherThread</text>
</a>
</g>
</g>
<!-- Node23&#45;&gt;Node22 -->
<g id="edge26" class="edge"><title>Node23&#45;&gt;Node22</title>
<path fill="none" stroke="#9a32cd" stroke-dasharray="5,2" d="M870.261,-60.6339C924.687,-72.092 1005.88,-89.1845 1049.9,-98.4532"/>
<polygon fill="#9a32cd" stroke="#9a32cd" points="870.931,-57.1984 860.425,-58.5631 869.489,-64.0482 870.931,-57.1984"/>
<text text-anchor="middle" x="943" y="-89" font-family="Helvetica,sans-Serif" font-size="10.00"> dispatcher_</text>
</g>
<!-- Node24 -->
<g id="node24" class="node"><title>Node24</title>
<g id="a_node24"><a xlink:href="classthrill_1_1common_1_1ConcurrentQueue.html" target="_top" xlink:title="ConcurrentQueue\&lt; tlx\l::Delegate, mem::GPoolAllocator\l\&lt; tlx::Delegate \&gt; \&gt;">
<polygon fill="none" stroke="black" points="426.5,-0.5 426.5,-41.5 587.5,-41.5 587.5,-0.5 426.5,-0.5"/>
<text text-anchor="start" x="434.5" y="-29.5" font-family="Helvetica,sans-Serif" font-size="10.00">ConcurrentQueue&lt; tlx</text>
<text text-anchor="start" x="434.5" y="-18.5" font-family="Helvetica,sans-Serif" font-size="10.00">::Delegate, mem::GPoolAllocator</text>
<text text-anchor="middle" x="507" y="-7.5" font-family="Helvetica,sans-Serif" font-size="10.00">&lt; tlx::Delegate &gt; &gt;</text>
</a>
</g>
</g>
<!-- Node24&#45;&gt;Node23 -->
<g id="edge27" class="edge"><title>Node24&#45;&gt;Node23</title>
<path fill="none" stroke="#9a32cd" stroke-dasharray="5,2" d="M597.932,-29.256C653.41,-34.3492 722.255,-40.6693 766.881,-44.7661"/>
<polygon fill="#9a32cd" stroke="#9a32cd" points="598.015,-25.749 587.737,-28.3201 597.375,-32.7197 598.015,-25.749"/>
<text text-anchor="middle" x="670" y="-45" font-family="Helvetica,sans-Serif" font-size="10.00"> jobqueue_</text>
</g>
<!-- Node25 -->
<g id="node25" class="node"><title>Node25</title>
<g id="a_node25"><a xlink:href="classthrill_1_1common_1_1ConcurrentQueue.html" target="_top" xlink:title="This is a queue, similar to std::queue and tbb::concurrent_queue, except that it uses mutexes for syn...">
<polygon fill="none" stroke="black" points="171.5,-6 171.5,-36 282.5,-36 282.5,-6 171.5,-6"/>
<text text-anchor="start" x="179.5" y="-24" font-family="Helvetica,sans-Serif" font-size="10.00">ConcurrentQueue&lt; T,</text>
<text text-anchor="middle" x="227" y="-13" font-family="Helvetica,sans-Serif" font-size="10.00"> Allocator &gt;</text>
</a>
</g>
</g>
<!-- Node25&#45;&gt;Node24 -->
<g id="edge28" class="edge"><title>Node25&#45;&gt;Node24</title>
<path fill="none" stroke="orange" stroke-dasharray="5,2" d="M292.72,-21C332.558,-21 383.921,-21 426.26,-21"/>
<polygon fill="orange" stroke="orange" points="292.592,-17.5001 282.592,-21 292.592,-24.5001 292.592,-17.5001"/>
<text text-anchor="start" x="312" y="-46" font-family="Helvetica,sans-Serif" font-size="10.00"> &lt; tlx::Delegate, mem</text>
<text text-anchor="start" x="312" y="-35" font-family="Helvetica,sans-Serif" font-size="10.00">::GPoolAllocator&lt; tlx</text>
<text text-anchor="middle" x="360" y="-24" font-family="Helvetica,sans-Serif" font-size="10.00">::Delegate &gt; &gt;</text>
</g>
<!-- Node26&#45;&gt;Node6 -->
<g id="edge35" class="edge"><title>Node26&#45;&gt;Node6</title>
<path fill="none" stroke="#9a32cd" stroke-dasharray="5,2" d="M837.46,-89.0346C852.697,-79.8103 873.692,-68.8482 894,-64 1044.93,-27.9688 1135.06,20.4296 1242,-92 1281.29,-133.307 1224.88,-174.094 1260,-219 1265.53,-226.071 1274.12,-230.524 1282.44,-233.322"/>
<polygon fill="#9a32cd" stroke="#9a32cd" points="835.385,-86.2043 828.774,-94.4833 839.105,-92.1341 835.385,-86.2043"/>
<text text-anchor="middle" x="1082" y="-37" font-family="Helvetica,sans-Serif" font-size="10.00"> block_pool_</text>
</g>
<!-- Node26&#45;&gt;Node22 -->
<g id="edge30" class="edge"><title>Node26&#45;&gt;Node22</title>
<path fill="none" stroke="#9a32cd" stroke-dasharray="5,2" d="M854.83,-104.15C908.08,-104.35 1001.37,-104.701 1049.81,-104.883"/>
<polygon fill="#9a32cd" stroke="#9a32cd" points="854.752,-100.65 844.739,-104.112 854.726,-107.649 854.752,-100.65"/>
<text text-anchor="middle" x="943" y="-108" font-family="Helvetica,sans-Serif" font-size="10.00"> block_pool_</text>
</g>
<!-- Node27 -->
<g id="node27" class="node"><title>Node27</title>
<g id="a_node27"><a xlink:href="classthrill_1_1net_1_1FlowControlChannelManager.html" target="_top" xlink:title="FlowControlChannelManager">
<polygon fill="none" stroke="black" points="1010.5,-171.5 1010.5,-190.5 1153.5,-190.5 1153.5,-171.5 1010.5,-171.5"/>
<text text-anchor="middle" x="1082" y="-178.5" font-family="Helvetica,sans-Serif" font-size="10.00">FlowControlChannelManager</text>
</a>
</g>
</g>
<!-- Node27&#45;&gt;Node6 -->
<g id="edge36" class="edge"><title>Node27&#45;&gt;Node6</title>
<path fill="none" stroke="#9a32cd" stroke-dasharray="5,2" d="M1164.02,-174.537C1190.31,-175.755 1218.69,-180.832 1242,-194 1253.92,-200.734 1249.23,-210.546 1260,-219 1266.51,-224.108 1274.57,-228.027 1282.18,-230.941"/>
<polygon fill="#9a32cd" stroke="#9a32cd" points="1163.77,-171.028 1153.67,-174.245 1163.57,-178.026 1163.77,-171.028"/>
<text text-anchor="middle" x="1207" y="-197" font-family="Helvetica,sans-Serif" font-size="10.00"> flow_manager_</text>
</g>
<!-- Node28 -->
<g id="node28" class="node"><title>Node28</title>
<g id="a_node28"><a xlink:href="classthrill_1_1api_1_1DIAMemUse.html" target="_top" xlink:title="Description of the amount of RAM the internal data structures of a DIANode require. ">
<polygon fill="none" stroke="black" points="1271,-190.5 1271,-209.5 1345,-209.5 1345,-190.5 1271,-190.5"/>
<text text-anchor="middle" x="1308" y="-197.5" font-family="Helvetica,sans-Serif" font-size="10.00">DIAMemUse</text>
</a>
</g>
</g>
<!-- Node28&#45;&gt;Node4 -->
<g id="edge39" class="edge"><title>Node28&#45;&gt;Node4</title>
<path fill="none" stroke="#9a32cd" stroke-dasharray="5,2" d="M1349.51,-213.009C1374.06,-222.284 1404.97,-236.563 1428,-256 1445.51,-270.781 1460.22,-293.597 1467.69,-306.414"/>
<polygon fill="#9a32cd" stroke="#9a32cd" points="1350.7,-209.718 1340.11,-209.58 1348.3,-216.294 1350.7,-209.718"/>
<text text-anchor="middle" x="1401" y="-259" font-family="Helvetica,sans-Serif" font-size="10.00"> mem_limit_</text>
</g>
<!-- Node29&#45;&gt;Node2 -->
<g id="edge40" class="edge"><title>Node29&#45;&gt;Node2</title>
<path fill="none" stroke="orange" stroke-dasharray="5,2" d="M1790.28,-289C1841.38,-289 1907.75,-289 1955.27,-289"/>
<polygon fill="orange" stroke="orange" points="1790.28,-285.5 1780.28,-289 1790.28,-292.5 1790.28,-285.5"/>
<text text-anchor="middle" x="1865" y="-292" font-family="Helvetica,sans-Serif" font-size="10.00"> &lt; std::vector&lt; ValueType &gt; &gt;</text>
</g>
<!-- Node30 -->
<g id="node30" class="node"><title>Node30</title>
<g id="a_node30"><a xlink:href="classtlx_1_1CountingPtr.html" target="_top" xlink:title="CountingPtr\&lt; CatStream \&gt;">
<polygon fill="none" stroke="black" points="1950,-233.5 1950,-252.5 2084,-252.5 2084,-233.5 1950,-233.5"/>
<text text-anchor="middle" x="2017" y="-240.5" font-family="Helvetica,sans-Serif" font-size="10.00">CountingPtr&lt; CatStream &gt;</text>
</a>
</g>
</g>
<!-- Node30&#45;&gt;Node1 -->
<g id="edge42" class="edge"><title>Node30&#45;&gt;Node1</title>
<path fill="none" stroke="#9a32cd" stroke-dasharray="5,2" d="M2094.16,-252.154C2115.65,-254.737 2138.86,-257.526 2159.72,-260.033"/>
<polygon fill="#9a32cd" stroke="#9a32cd" points="2094.44,-248.663 2084.1,-250.945 2093.61,-255.613 2094.44,-248.663"/>
<text text-anchor="middle" x="2122" y="-261" font-family="Helvetica,sans-Serif" font-size="10.00"> stream_</text>
</g>
<!-- Node31 -->
<g id="node31" class="node"><title>Node31</title>
<g id="a_node31"><a xlink:href="classtlx_1_1CountingPtr.html" target="_top" xlink:title="High&#45;performance smart pointer used as a wrapping reference counting pointer. ">
<polygon fill="none" stroke="black" points="1662,-225 1662,-255 1764,-255 1764,-225 1662,-225"/>
<text text-anchor="start" x="1670" y="-243" font-family="Helvetica,sans-Serif" font-size="10.00">CountingPtr&lt; Type,</text>
<text text-anchor="middle" x="1713" y="-232" font-family="Helvetica,sans-Serif" font-size="10.00"> Deleter &gt;</text>
</a>
</g>
</g>
<!-- Node31&#45;&gt;Node30 -->
<g id="edge43" class="edge"><title>Node31&#45;&gt;Node30</title>
<path fill="none" stroke="orange" stroke-dasharray="5,2" d="M1774.37,-240.6C1825.1,-241.104 1897.49,-241.823 1949.79,-242.342"/>
<polygon fill="orange" stroke="orange" points="1774.24,-237.098 1764.21,-240.499 1774.17,-244.098 1774.24,-237.098"/>
<text text-anchor="middle" x="1865" y="-246" font-family="Helvetica,sans-Serif" font-size="10.00"> &lt; CatStream &gt;</text>
</g>
</g>
</svg>
