<?xml version="1.0" encoding="UTF-8" standalone="no"?>
<!DOCTYPE svg PUBLIC "-//W3C//DTD SVG 1.1//EN"
 "http://www.w3.org/Graphics/SVG/1.1/DTD/svg11.dtd">
<!-- Generated by graphviz version 2.36.0 (20140111.2315)
 -->
<!-- Title: GroupByNode&lt; ValueType, KeyExtractor, GroupFunction, HashFunction, UseLocationDetection &gt; Pages: 1 -->
<svg width="200pt" height="274pt"
 viewBox="0.00 0.00 200.00 274.00" xmlns="http://www.w3.org/2000/svg" xmlns:xlink="http://www.w3.org/1999/xlink">
<g id="graph0" class="graph" transform="scale(1 1) rotate(0) translate(4 270)">
<title>GroupByNode&lt; ValueType, KeyExtractor, GroupFunction, HashFunction, UseLocationDetection &gt;</title>
<!-- Node1 -->
<g id="node1" class="node"><title>Node1</title>
<polygon fill="#bfbfbf" stroke="black" points="0,-0.5 0,-41.5 192,-41.5 192,-0.5 0,-0.5"/>
<text text-anchor="start" x="8" y="-29.5" font-family="Helvetica,sans-Serif" font-size="10.00">GroupByNode&lt; ValueType,</text>
<text text-anchor="start" x="8" y="-18.5" font-family="Helvetica,sans-Serif" font-size="10.00"> KeyExtractor, GroupFunction,</text>
<text text-anchor="middle" x="96" y="-7.5" font-family="Helvetica,sans-Serif" font-size="10.00"> HashFunction, UseLocationDetection &gt;</text>
</g>
<!-- Node2 -->
<g id="node2" class="node"><title>Node2</title>
<g id="a_node2"><a xlink:href="classthrill_1_1api_1_1DOpNode.html" target="_top" xlink:title="A DOpNode is a typed node representing and distributed operations in Thrill. ">
<polygon fill="none" stroke="black" points="33.5,-78.5 33.5,-97.5 158.5,-97.5 158.5,-78.5 33.5,-78.5"/>
<text text-anchor="middle" x="96" y="-85.5" font-family="Helvetica,sans-Serif" font-size="10.00">DOpNode&lt; ValueType &gt;</text>
</a>
</g>
</g>
<!-- Node2&#45;&gt;Node1 -->
<g id="edge1" class="edge"><title>Node2&#45;&gt;Node1</title>
<path fill="none" stroke="midnightblue" d="M96,-68.037C96,-59.7084 96,-49.9358 96,-41.5421"/>
<polygon fill="midnightblue" stroke="midnightblue" points="92.5001,-68.2338 96,-78.2338 99.5001,-68.2338 92.5001,-68.2338"/>
</g>
<!-- Node3 -->
<g id="node3" class="node"><title>Node3</title>
<g id="a_node3"><a xlink:href="classthrill_1_1api_1_1DIANode.html" target="_top" xlink:title="A DIANode is a typed node representing and operation in Thrill. ">
<polygon fill="none" stroke="black" points="35,-134.5 35,-153.5 157,-153.5 157,-134.5 35,-134.5"/>
<text text-anchor="middle" x="96" y="-141.5" font-family="Helvetica,sans-Serif" font-size="10.00">DIANode&lt; ValueType &gt;</text>
</a>
</g>
</g>
<!-- Node3&#45;&gt;Node2 -->
<g id="edge2" class="edge"><title>Node3&#45;&gt;Node2</title>
<path fill="none" stroke="midnightblue" d="M96,-123.805C96,-114.91 96,-104.78 96,-97.7511"/>
<polygon fill="midnightblue" stroke="midnightblue" points="92.5001,-124.083 96,-134.083 99.5001,-124.083 92.5001,-124.083"/>
</g>
<!-- Node4 -->
<g id="node4" class="node"><title>Node4</title>
<g id="a_node4"><a xlink:href="classthrill_1_1api_1_1DIABase.html" target="_top" xlink:title="The DIABase is the untyped super class of DIANode. ">
<polygon fill="none" stroke="black" points="68,-190.5 68,-209.5 124,-209.5 124,-190.5 68,-190.5"/>
<text text-anchor="middle" x="96" y="-197.5" font-family="Helvetica,sans-Serif" font-size="10.00">DIABase</text>
</a>
</g>
</g>
<!-- Node4&#45;&gt;Node3 -->
<g id="edge3" class="edge"><title>Node4&#45;&gt;Node3</title>
<path fill="none" stroke="midnightblue" d="M96,-179.805C96,-170.91 96,-160.78 96,-153.751"/>
<polygon fill="midnightblue" stroke="midnightblue" points="92.5001,-180.083 96,-190.083 99.5001,-180.083 92.5001,-180.083"/>
</g>
<!-- Node5 -->
<g id="node5" class="node"><title>Node5</title>
<g id="a_node5"><a xlink:href="classtlx_1_1ReferenceCounter.html" target="_top" xlink:title="Provides reference counting abilities for use with CountingPtr. ">
<polygon fill="none" stroke="black" points="48,-246.5 48,-265.5 144,-265.5 144,-246.5 48,-246.5"/>
<text text-anchor="middle" x="96" y="-253.5" font-family="Helvetica,sans-Serif" font-size="10.00">ReferenceCounter</text>
</a>
</g>
</g>
<!-- Node5&#45;&gt;Node4 -->
<g id="edge4" class="edge"><title>Node5&#45;&gt;Node4</title>
<path fill="none" stroke="midnightblue" d="M96,-235.805C96,-226.91 96,-216.78 96,-209.751"/>
<polygon fill="midnightblue" stroke="midnightblue" points="92.5001,-236.083 96,-246.083 99.5001,-236.083 92.5001,-236.083"/>
</g>
</g>
</svg>
