<?xml version="1.0" encoding="UTF-8" standalone="no"?>
<!DOCTYPE svg PUBLIC "-//W3C//DTD SVG 1.1//EN"
 "http://www.w3.org/Graphics/SVG/1.1/DTD/svg11.dtd">
<!-- Generated by graphviz version 2.36.0 (20140111.2315)
 -->
<!-- Title: StdStringSet Pages: 1 -->
<svg width="302pt" height="188pt"
 viewBox="0.00 0.00 302.00 188.00" xmlns="http://www.w3.org/2000/svg" xmlns:xlink="http://www.w3.org/1999/xlink">
<g id="graph0" class="graph" transform="scale(1 1) rotate(0) translate(4 184)">
<title>StdStringSet</title>
<!-- Node1 -->
<g id="node1" class="node"><title>Node1</title>
<polygon fill="#bfbfbf" stroke="black" points="51,-0.5 51,-19.5 123,-19.5 123,-0.5 51,-0.5"/>
<text text-anchor="middle" x="87" y="-7.5" font-family="Helvetica,sans-Serif" font-size="10.00">StdStringSet</text>
</g>
<!-- Node2 -->
<g id="node2" class="node"><title>Node2</title>
<g id="a_node2"><a xlink:href="classtlx_1_1sort__strings__detail_1_1StdStringSetTraits.html" target="_top" xlink:title="Class implementing StringSet concept for a std::string objects. ">
<polygon fill="none" stroke="black" points="-0.5,-64.5 -0.5,-83.5 96.5,-83.5 96.5,-64.5 -0.5,-64.5"/>
<text text-anchor="middle" x="48" y="-71.5" font-family="Helvetica,sans-Serif" font-size="10.00">StdStringSetTraits</text>
</a>
</g>
</g>
<!-- Node2&#45;&gt;Node1 -->
<g id="edge1" class="edge"><title>Node2&#45;&gt;Node1</title>
<path fill="none" stroke="midnightblue" d="M58.8112,-55.8129C66.232,-44.0158 75.7631,-28.8638 81.6233,-19.5476"/>
<polygon fill="midnightblue" stroke="midnightblue" points="55.7847,-54.0509 53.4228,-64.3792 61.71,-57.7781 55.7847,-54.0509"/>
</g>
<!-- Node3 -->
<g id="node3" class="node"><title>Node3</title>
<g id="a_node3"><a xlink:href="classtlx_1_1sort__strings__detail_1_1StringSetBase.html" target="_top" xlink:title="StringSetBase\&lt; StdString\lSet, StdStringSetTraits \&gt;">
<polygon fill="none" stroke="black" points="114.5,-59 114.5,-89 243.5,-89 243.5,-59 114.5,-59"/>
<text text-anchor="start" x="122.5" y="-77" font-family="Helvetica,sans-Serif" font-size="10.00">StringSetBase&lt; StdString</text>
<text text-anchor="middle" x="179" y="-66" font-family="Helvetica,sans-Serif" font-size="10.00">Set, StdStringSetTraits &gt;</text>
</a>
</g>
</g>
<!-- Node3&#45;&gt;Node1 -->
<g id="edge2" class="edge"><title>Node3&#45;&gt;Node1</title>
<path fill="none" stroke="midnightblue" d="M149.716,-53.2654C132.93,-41.9531 112.707,-28.3244 99.8512,-19.6606"/>
<polygon fill="midnightblue" stroke="midnightblue" points="147.875,-56.2451 158.124,-58.9312 151.787,-50.4402 147.875,-56.2451"/>
</g>
<!-- Node4 -->
<g id="node4" class="node"><title>Node4</title>
<g id="a_node4"><a xlink:href="classtlx_1_1sort__strings__detail_1_1StringSetBase.html" target="_top" xlink:title="Base class for common string set functions, included via CRTP. ">
<polygon fill="none" stroke="black" points="113,-149 113,-179 245,-179 245,-149 113,-149"/>
<text text-anchor="start" x="121" y="-167" font-family="Helvetica,sans-Serif" font-size="10.00">StringSetBase&lt; StringSet,</text>
<text text-anchor="middle" x="179" y="-156" font-family="Helvetica,sans-Serif" font-size="10.00"> Traits &gt;</text>
</a>
</g>
</g>
<!-- Node4&#45;&gt;Node3 -->
<g id="edge3" class="edge"><title>Node4&#45;&gt;Node3</title>
<path fill="none" stroke="orange" stroke-dasharray="5,2" d="M179,-138.654C179,-122.711 179,-102.434 179,-89.1036"/>
<polygon fill="orange" stroke="orange" points="175.5,-138.861 179,-148.861 182.5,-138.861 175.5,-138.861"/>
<text text-anchor="start" x="179" y="-122" font-family="Helvetica,sans-Serif" font-size="10.00"> &lt; StdStringSet, StdString</text>
<text text-anchor="middle" x="236.5" y="-111" font-family="Helvetica,sans-Serif" font-size="10.00">SetTraits &gt;</text>
</g>
</g>
</svg>
