<?xml version="1.0" encoding="UTF-8" standalone="no"?>
<!DOCTYPE svg PUBLIC "-//W3C//DTD SVG 1.1//EN"
 "http://www.w3.org/Graphics/SVG/1.1/DTD/svg11.dtd">
<!-- Generated by graphviz version 2.26.3 (20100126.1600)
 -->
<!-- Title: ProfileTaskRegistration Pages: 1 -->
<svg width="205pt" height="246pt"
 viewBox="0.00 0.00 205.00 246.00" xmlns="http://www.w3.org/2000/svg" xmlns:xlink="http://www.w3.org/1999/xlink">
<g id="graph1" class="graph" transform="scale(1 1) rotate(0) translate(4 242)">
<title>ProfileTaskRegistration</title>
<!-- Node1 -->
<g id="node1" class="node"><title>Node1</title>
<polygon fill="#bfbfbf" stroke="black" points="73.5,-0.5 73.5,-21.5 192.5,-21.5 192.5,-0.5 73.5,-0.5"/>
<text text-anchor="middle" x="133" y="-8.5" font-family="Helvetica,sans-Serif" font-size="10.00">ProfileTaskRegistration</text>
</g>
<!-- Node2 -->
<g id="node2" class="node"><title>Node2</title>
<a xlink:href="classthrill_1_1common_1_1ProfileThread.html" target="_top" xlink:title="ProfileThread">
<polygon fill="none" stroke="black" points="39,-72.5 39,-93.5 113,-93.5 113,-72.5 39,-72.5"/>
<text text-anchor="middle" x="76" y="-80.5" font-family="Helvetica,sans-Serif" font-size="10.00">ProfileThread</text>
</a>
</g>
<!-- Node2&#45;&gt;Node1 -->
<g id="edge2" class="edge"><title>Node2&#45;&gt;Node1</title>
<path fill="none" stroke="#9a32cd" stroke-dasharray="5,2" d="M86.8004,-63.6235C91.4047,-55.9803 97.0781,-47.3004 103,-40 108.294,-33.4741 114.95,-26.9079 120.646,-21.6779"/>
<polygon fill="#9a32cd" stroke="#9a32cd" points="83.7734,-61.8664 81.7695,-72.2701 89.8238,-65.3868 83.7734,-61.8664"/>
<text text-anchor="middle" x="122" y="-44.5" font-family="Helvetica,sans-Serif" font-size="10.00"> profiler_</text>
</g>
<!-- Node3 -->
<g id="node4" class="node"><title>Node3</title>
<a xlink:href="classthrill_1_1common_1_1BinaryHeap.html" target="_top" xlink:title="BinaryHeap\&lt; Timer \&gt;">
<polygon fill="none" stroke="black" points="21,-144.5 21,-165.5 131,-165.5 131,-144.5 21,-144.5"/>
<text text-anchor="middle" x="76" y="-152.5" font-family="Helvetica,sans-Serif" font-size="10.00">BinaryHeap&lt; Timer &gt;</text>
</a>
</g>
<!-- Node3&#45;&gt;Node2 -->
<g id="edge4" class="edge"><title>Node3&#45;&gt;Node2</title>
<path fill="none" stroke="#9a32cd" stroke-dasharray="5,2" d="M76,-134.235C76,-120.969 76,-104.319 76,-93.6674"/>
<polygon fill="#9a32cd" stroke="#9a32cd" points="72.5001,-134.376 76,-144.376 79.5001,-134.376 72.5001,-134.376"/>
<text text-anchor="middle" x="92.5" y="-116.5" font-family="Helvetica,sans-Serif" font-size="10.00"> tasks_</text>
</g>
<!-- Node4 -->
<g id="node6" class="node"><title>Node4</title>
<a xlink:href="classthrill_1_1common_1_1BinaryHeap.html" target="_top" xlink:title="BinaryHeap\&lt; Type, Compare \&gt;">
<polygon fill="none" stroke="black" points="-0.5,-216.5 -0.5,-237.5 152.5,-237.5 152.5,-216.5 -0.5,-216.5"/>
<text text-anchor="middle" x="76" y="-224.5" font-family="Helvetica,sans-Serif" font-size="10.00">BinaryHeap&lt; Type, Compare &gt;</text>
</a>
</g>
<!-- Node4&#45;&gt;Node3 -->
<g id="edge6" class="edge"><title>Node4&#45;&gt;Node3</title>
<path fill="none" stroke="orange" stroke-dasharray="5,2" d="M76,-206.235C76,-192.969 76,-176.319 76,-165.667"/>
<polygon fill="orange" stroke="orange" points="72.5001,-206.376 76,-216.376 79.5001,-206.376 72.5001,-206.376"/>
<text text-anchor="middle" x="99" y="-188.5" font-family="Helvetica,sans-Serif" font-size="10.00"> &lt; Timer &gt;</text>
</g>
<!-- Node5 -->
<g id="node8" class="node"><title>Node5</title>
<a xlink:href="classthrill_1_1common_1_1ProfileTask.html" target="_top" xlink:title="ProfileTask">
<polygon fill="none" stroke="black" points="131,-72.5 131,-93.5 197,-93.5 197,-72.5 131,-72.5"/>
<text text-anchor="middle" x="164" y="-80.5" font-family="Helvetica,sans-Serif" font-size="10.00">ProfileTask</text>
</a>
</g>
<!-- Node5&#45;&gt;Node1 -->
<g id="edge8" class="edge"><title>Node5&#45;&gt;Node1</title>
<path fill="none" stroke="#9a32cd" stroke-dasharray="5,2" d="M155.4,-63.0266C149.636,-49.6374 142.271,-32.5318 137.593,-21.6674"/>
<polygon fill="#9a32cd" stroke="#9a32cd" points="152.257,-64.5754 159.426,-72.3762 158.686,-61.8072 152.257,-64.5754"/>
<text text-anchor="middle" x="165" y="-44.5" font-family="Helvetica,sans-Serif" font-size="10.00"> task_</text>
</g>
</g>
</svg>
