<?xml version="1.0" encoding="UTF-8" standalone="no"?>
<!DOCTYPE svg PUBLIC "-//W3C//DTD SVG 1.1//EN"
 "http://www.w3.org/Graphics/SVG/1.1/DTD/svg11.dtd">
<!-- Generated by graphviz version 2.36.0 (20140111.2315)
 -->
<!-- Title: LinuxaioQueue Pages: 1 -->
<svg width="450pt" height="208pt"
 viewBox="0.00 0.00 450.00 208.00" xmlns="http://www.w3.org/2000/svg" xmlns:xlink="http://www.w3.org/1999/xlink">
<g id="graph0" class="graph" transform="scale(1 1) rotate(0) translate(4 204)">
<title>LinuxaioQueue</title>
<!-- Node1 -->
<g id="node1" class="node"><title>Node1</title>
<polygon fill="#bfbfbf" stroke="black" points="180.5,-0.5 180.5,-19.5 261.5,-19.5 261.5,-0.5 180.5,-0.5"/>
<text text-anchor="middle" x="221" y="-7.5" font-family="Helvetica,sans-Serif" font-size="10.00">LinuxaioQueue</text>
</g>
<!-- Node2 -->
<g id="node2" class="node"><title>Node2</title>
<g id="a_node2"><a xlink:href="classthrill_1_1io_1_1RequestQueueImplWorker.html" target="_top" xlink:title="RequestQueueImplWorker">
<polygon fill="none" stroke="black" points="0,-112.5 0,-131.5 132,-131.5 132,-112.5 0,-112.5"/>
<text text-anchor="middle" x="66" y="-119.5" font-family="Helvetica,sans-Serif" font-size="10.00">RequestQueueImplWorker</text>
</a>
</g>
</g>
<!-- Node2&#45;&gt;Node1 -->
<g id="edge1" class="edge"><title>Node2&#45;&gt;Node1</title>
<path fill="none" stroke="midnightblue" d="M86.5488,-106.417C119.332,-83.1513 182.461,-38.3501 208.894,-19.5914"/>
<polygon fill="midnightblue" stroke="midnightblue" points="84.2921,-103.727 78.1626,-112.368 88.3433,-109.435 84.2921,-103.727"/>
</g>
<!-- Node3 -->
<g id="node3" class="node"><title>Node3</title>
<g id="a_node3"><a xlink:href="classthrill_1_1io_1_1RequestQueue.html" target="_top" xlink:title="Interface of a request_queue to which requests can be added and canceled. ">
<polygon fill="none" stroke="black" points="25,-180.5 25,-199.5 107,-199.5 107,-180.5 25,-180.5"/>
<text text-anchor="middle" x="66" y="-187.5" font-family="Helvetica,sans-Serif" font-size="10.00">RequestQueue</text>
</a>
</g>
</g>
<!-- Node3&#45;&gt;Node2 -->
<g id="edge2" class="edge"><title>Node3&#45;&gt;Node2</title>
<path fill="none" stroke="midnightblue" d="M66,-170.041C66,-157.472 66,-141.563 66,-131.841"/>
<polygon fill="midnightblue" stroke="midnightblue" points="62.5001,-170.372 66,-180.372 69.5001,-170.372 62.5001,-170.372"/>
</g>
<!-- Node4 -->
<g id="node4" class="node"><title>Node4</title>
<g id="a_node4"><a xlink:href="classthrill_1_1common_1_1SharedState.html" target="_top" xlink:title="SharedState\&lt; ThreadState \&gt;">
<polygon fill="none" stroke="black" points="150,-112.5 150,-131.5 292,-131.5 292,-112.5 150,-112.5"/>
<text text-anchor="middle" x="221" y="-119.5" font-family="Helvetica,sans-Serif" font-size="10.00">SharedState&lt; ThreadState &gt;</text>
</a>
</g>
</g>
<!-- Node4&#45;&gt;Node1 -->
<g id="edge3" class="edge"><title>Node4&#45;&gt;Node1</title>
<path fill="none" stroke="#9a32cd" stroke-dasharray="5,2" d="M221,-102.348C221,-78.2538 221,-37.3079 221,-19.5914"/>
<polygon fill="#9a32cd" stroke="#9a32cd" points="217.5,-102.368 221,-112.368 224.5,-102.369 217.5,-102.368"/>
<text text-anchor="middle" x="264" y="-69" font-family="Helvetica,sans-Serif" font-size="10.00"> wait_thread_state_</text>
<text text-anchor="middle" x="264" y="-58" font-family="Helvetica,sans-Serif" font-size="10.00">post_thread_state_</text>
</g>
<!-- Node5 -->
<g id="node5" class="node"><title>Node5</title>
<g id="a_node5"><a xlink:href="classthrill_1_1common_1_1SharedState.html" target="_top" xlink:title="SharedState\&lt; ValueType \&gt;">
<polygon fill="none" stroke="black" points="153.5,-180.5 153.5,-199.5 288.5,-199.5 288.5,-180.5 153.5,-180.5"/>
<text text-anchor="middle" x="221" y="-187.5" font-family="Helvetica,sans-Serif" font-size="10.00">SharedState&lt; ValueType &gt;</text>
</a>
</g>
</g>
<!-- Node5&#45;&gt;Node4 -->
<g id="edge4" class="edge"><title>Node5&#45;&gt;Node4</title>
<path fill="none" stroke="orange" stroke-dasharray="5,2" d="M221,-170.041C221,-157.472 221,-141.563 221,-131.841"/>
<polygon fill="orange" stroke="orange" points="217.5,-170.372 221,-180.372 224.5,-170.372 217.5,-170.372"/>
<text text-anchor="middle" x="258.5" y="-153.5" font-family="Helvetica,sans-Serif" font-size="10.00"> &lt; ThreadState &gt;</text>
</g>
<!-- Node6 -->
<g id="node6" class="node"><title>Node6</title>
<g id="a_node6"><a xlink:href="classthrill_1_1common_1_1Semaphore.html" target="_top" xlink:title="Semaphore">
<polygon fill="none" stroke="black" points="310,-112.5 310,-131.5 376,-131.5 376,-112.5 310,-112.5"/>
<text text-anchor="middle" x="343" y="-119.5" font-family="Helvetica,sans-Serif" font-size="10.00">Semaphore</text>
</a>
</g>
</g>
<!-- Node6&#45;&gt;Node1 -->
<g id="edge5" class="edge"><title>Node6&#45;&gt;Node1</title>
<path fill="none" stroke="#9a32cd" stroke-dasharray="5,2" d="M340.613,-102.319C337.236,-83.5151 329.288,-54.9397 311,-38 297.596,-25.5844 278.694,-18.8645 261.67,-15.233"/>
<polygon fill="#9a32cd" stroke="#9a32cd" points="337.173,-102.98 342.146,-112.336 344.092,-101.921 337.173,-102.98"/>
<text text-anchor="start" x="339" y="-85.5" font-family="Helvetica,sans-Serif" font-size="10.00"> num_posted_requests</text>
<text text-anchor="middle" x="390.5" y="-74.5" font-family="Helvetica,sans-Serif" font-size="10.00">_</text>
<text text-anchor="start" x="339" y="-63.5" font-family="Helvetica,sans-Serif" font-size="10.00">num_free_events</text>
<text text-anchor="middle" x="390.5" y="-52.5" font-family="Helvetica,sans-Serif" font-size="10.00">_</text>
<text text-anchor="middle" x="390.5" y="-41.5" font-family="Helvetica,sans-Serif" font-size="10.00">num_waiting_requests_</text>
</g>
</g>
</svg>
