<?xml version="1.0" encoding="UTF-8" standalone="no"?>
<!DOCTYPE svg PUBLIC "-//W3C//DTD SVG 1.1//EN"
 "http://www.w3.org/Graphics/SVG/1.1/DTD/svg11.dtd">
<!-- Generated by graphviz version 2.40.1 (20161225.0304)
 -->
<!-- Title: PS5SortStep Pages: 1 -->
<svg width="269pt" height="88pt"
 viewBox="0.00 0.00 269.00 88.00" xmlns="http://www.w3.org/2000/svg" xmlns:xlink="http://www.w3.org/1999/xlink">
<g id="graph0" class="graph" transform="scale(1 1) rotate(0) translate(4 84)">
<title>PS5SortStep</title>
<!-- Node0 -->
<g id="node1" class="node">
<title>Node0</title>
<polygon fill="#bfbfbf" stroke="#000000" points="0,-30 0,-49 76,-49 76,-30 0,-30"/>
<text text-anchor="middle" x="38" y="-37" font-family="Helvetica,sans-Serif" font-size="10.00" fill="#000000">PS5SortStep</text>
</g>
<!-- Node1 -->
<g id="node2" class="node">
<title>Node1</title>
<g id="a_node2"><a xlink:href="classtlx_1_1sort__strings__detail_1_1PS5BigSortStep.html" target="_top" xlink:title="PS5BigSortStep Out&#45;of&#45;Place Parallel Sample Sort with Separate Jobs. ">
<polygon fill="none" stroke="#000000" points="114.5,-49.5 114.5,-79.5 258.5,-79.5 258.5,-49.5 114.5,-49.5"/>
<text text-anchor="start" x="122.5" y="-67.5" font-family="Helvetica,sans-Serif" font-size="10.00" fill="#000000">PS5BigSortStep&lt; Context,</text>
<text text-anchor="middle" x="186.5" y="-56.5" font-family="Helvetica,sans-Serif" font-size="10.00" fill="#000000"> StringPtr &gt;</text>
</a>
</g>
</g>
<!-- Node0&#45;&gt;Node1 -->
<g id="edge1" class="edge">
<title>Node0&#45;&gt;Node1</title>
<path fill="none" stroke="#191970" d="M86.1481,-47.6057C95.1736,-49.1252 104.7887,-50.7439 114.3571,-52.3547"/>
<polygon fill="#191970" stroke="#191970" points="86.6848,-44.1469 76.2424,-45.9381 85.5226,-51.0498 86.6848,-44.1469"/>
</g>
<!-- Node2 -->
<g id="node3" class="node">
<title>Node2</title>
<g id="a_node3"><a xlink:href="classtlx_1_1sort__strings__detail_1_1PS5SmallsortJob.html" target="_top" xlink:title="SampleSort: Non&#45;Recursive In&#45;Place Sequential Sample Sort for Small Sorts. ">
<polygon fill="none" stroke="#000000" points="112,-.5 112,-30.5 261,-30.5 261,-.5 112,-.5"/>
<text text-anchor="start" x="120" y="-18.5" font-family="Helvetica,sans-Serif" font-size="10.00" fill="#000000">PS5SmallsortJob&lt; Context,</text>
<text text-anchor="middle" x="186.5" y="-7.5" font-family="Helvetica,sans-Serif" font-size="10.00" fill="#000000"> StringPtr, BktSizeType &gt;</text>
</a>
</g>
</g>
<!-- Node0&#45;&gt;Node2 -->
<g id="edge2" class="edge">
<title>Node0&#45;&gt;Node2</title>
<path fill="none" stroke="#191970" d="M86.2894,-31.6956C94.4513,-30.3766 103.092,-28.9801 111.7419,-27.5821"/>
<polygon fill="#191970" stroke="#191970" points="85.5559,-28.2687 76.2424,-33.3194 86.6728,-35.179 85.5559,-28.2687"/>
</g>
</g>
</svg>
