<?xml version="1.0" encoding="UTF-8" standalone="no"?>
<!DOCTYPE svg PUBLIC "-//W3C//DTD SVG 1.1//EN"
 "http://www.w3.org/Graphics/SVG/1.1/DTD/svg11.dtd">
<!-- Generated by graphviz version 2.36.0 (20140111.2315)
 -->
<!-- Title: AsyncReadMemory Pages: 1 -->
<svg width="634pt" height="99pt"
 viewBox="0.00 0.00 634.00 99.00" xmlns="http://www.w3.org/2000/svg" xmlns:xlink="http://www.w3.org/1999/xlink">
<g id="graph0" class="graph" transform="scale(1 1) rotate(0) translate(4 95)">
<title>AsyncReadMemory</title>
<!-- Node1 -->
<g id="node1" class="node"><title>Node1</title>
<polygon fill="#bfbfbf" stroke="black" points="522.5,-49.5 522.5,-68.5 625.5,-68.5 625.5,-49.5 522.5,-49.5"/>
<text text-anchor="middle" x="574" y="-56.5" font-family="Helvetica,sans-Serif" font-size="10.00">AsyncReadMemory</text>
</g>
<!-- Node2 -->
<g id="node2" class="node"><title>Node2</title>
<g id="a_node2"><a xlink:href="classthrill_1_1net_1_1Connection.html" target="_top" xlink:title="A Connection represents a link to another peer in a network group. ">
<polygon fill="none" stroke="black" points="333,-71.5 333,-90.5 399,-90.5 399,-71.5 333,-71.5"/>
<text text-anchor="middle" x="366" y="-78.5" font-family="Helvetica,sans-Serif" font-size="10.00">Connection</text>
</a>
</g>
</g>
<!-- Node2&#45;&gt;Node1 -->
<g id="edge1" class="edge"><title>Node2&#45;&gt;Node1</title>
<path fill="none" stroke="#9a32cd" stroke-dasharray="5,2" d="M409.341,-76.4782C442.078,-72.982 487.517,-68.1293 522.211,-64.4241"/>
<polygon fill="#9a32cd" stroke="#9a32cd" points="408.759,-73.0203 399.188,-77.5625 409.503,-79.9807 408.759,-73.0203"/>
<text text-anchor="middle" x="481" y="-73" font-family="Helvetica,sans-Serif" font-size="10.00"> conn_</text>
</g>
<!-- Node3 -->
<g id="node3" class="node"><title>Node3</title>
<g id="a_node3"><a xlink:href="classtlx_1_1Delegate.html" target="_top" xlink:title="Delegate\&lt; void(Connection\l &amp;c, uint8_t *data, size\l_t size), mem::GPoolAllocator\l\&lt; char \&gt; \&gt;">
<polygon fill="none" stroke="black" points="292,-0 292,-52 440,-52 440,-0 292,-0"/>
<text text-anchor="start" x="300" y="-40" font-family="Helvetica,sans-Serif" font-size="10.00">Delegate&lt; void(Connection</text>
<text text-anchor="start" x="300" y="-29" font-family="Helvetica,sans-Serif" font-size="10.00"> &amp;c, uint8_t *data, size</text>
<text text-anchor="start" x="300" y="-18" font-family="Helvetica,sans-Serif" font-size="10.00">_t size), mem::GPoolAllocator</text>
<text text-anchor="middle" x="366" y="-7" font-family="Helvetica,sans-Serif" font-size="10.00">&lt; char &gt; &gt;</text>
</a>
</g>
</g>
<!-- Node3&#45;&gt;Node1 -->
<g id="edge2" class="edge"><title>Node3&#45;&gt;Node1</title>
<path fill="none" stroke="#9a32cd" stroke-dasharray="5,2" d="M450.199,-39.328C474.619,-43.24 500.583,-47.3992 522.316,-50.8807"/>
<polygon fill="#9a32cd" stroke="#9a32cd" points="450.636,-35.8534 440.208,-37.7275 449.528,-42.7653 450.636,-35.8534"/>
<text text-anchor="middle" x="481" y="-51" font-family="Helvetica,sans-Serif" font-size="10.00"> callback_</text>
</g>
<!-- Node4 -->
<g id="node4" class="node"><title>Node4</title>
<g id="a_node4"><a xlink:href="classtlx_1_1Delegate.html" target="_top" xlink:title="Delegate\&lt; T, Allocator \&gt;">
<polygon fill="none" stroke="black" points="0,-16.5 0,-35.5 124,-35.5 124,-16.5 0,-16.5"/>
<text text-anchor="middle" x="62" y="-23.5" font-family="Helvetica,sans-Serif" font-size="10.00">Delegate&lt; T, Allocator &gt;</text>
</a>
</g>
</g>
<!-- Node4&#45;&gt;Node3 -->
<g id="edge3" class="edge"><title>Node4&#45;&gt;Node3</title>
<path fill="none" stroke="orange" stroke-dasharray="5,2" d="M134.325,-26C181.849,-26 244.127,-26 291.994,-26"/>
<polygon fill="orange" stroke="orange" points="134.114,-22.5001 124.114,-26 134.114,-29.5001 134.114,-22.5001"/>
<text text-anchor="start" x="142" y="-62" font-family="Helvetica,sans-Serif" font-size="10.00"> &lt; void(Connection &amp;c,</text>
<text text-anchor="start" x="142" y="-51" font-family="Helvetica,sans-Serif" font-size="10.00"> uint8_t *data, size</text>
<text text-anchor="start" x="142" y="-40" font-family="Helvetica,sans-Serif" font-size="10.00">_t size), mem::GPoolAllocator</text>
<text text-anchor="middle" x="208" y="-29" font-family="Helvetica,sans-Serif" font-size="10.00">&lt; char &gt; &gt;</text>
</g>
</g>
</svg>
