<?xml version="1.0" encoding="UTF-8" standalone="no"?>
<!DOCTYPE svg PUBLIC "-//W3C//DTD SVG 1.1//EN"
 "http://www.w3.org/Graphics/SVG/1.1/DTD/svg11.dtd">
<!-- Generated by graphviz version 2.26.3 (20100126.1600)
 -->
<!-- Title: LoserTreeCopy&lt; true, ValueType, Comparator &gt; Pages: 1 -->
<svg width="140pt" height="190pt"
 viewBox="0.00 0.00 140.00 190.00" xmlns="http://www.w3.org/2000/svg" xmlns:xlink="http://www.w3.org/1999/xlink">
<g id="graph1" class="graph" transform="scale(1 1) rotate(0) translate(4 186)">
<title>LoserTreeCopy&lt; true, ValueType, Comparator &gt;</title>
<!-- Node1 -->
<g id="node1" class="node"><title>Node1</title>
<polygon fill="#bfbfbf" stroke="black" points="0,-1 0,-35 132,-35 132,-1 0,-1"/>
<text text-anchor="start" x="8" y="-22" font-family="Helvetica,sans-Serif" font-size="10.00">LoserTreeCopy&lt; true,</text>
<text text-anchor="middle" x="66" y="-9" font-family="Helvetica,sans-Serif" font-size="10.00"> ValueType, Comparator &gt;</text>
</g>
<!-- Node2 -->
<g id="node2" class="node"><title>Node2</title>
<a xlink:href="classthrill_1_1core_1_1LoserTreeCopyBase.html" target="_top" xlink:title="Guarded loser tree/tournament tree, either copying the whole element into the tree structure...">
<polygon fill="none" stroke="black" points="0,-75 0,-109 132,-109 132,-75 0,-75"/>
<text text-anchor="start" x="8" y="-96" font-family="Helvetica,sans-Serif" font-size="10.00">LoserTreeCopyBase&lt;</text>
<text text-anchor="middle" x="66" y="-83" font-family="Helvetica,sans-Serif" font-size="10.00"> ValueType, Comparator &gt;</text>
</a>
</g>
<!-- Node2&#45;&gt;Node1 -->
<g id="edge2" class="edge"><title>Node2&#45;&gt;Node1</title>
<path fill="none" stroke="midnightblue" d="M66,-64.6275C66,-54.7253 66,-43.8344 66,-35.07"/>
<polygon fill="midnightblue" stroke="midnightblue" points="62.5001,-64.8369 66,-74.8369 69.5001,-64.8369 62.5001,-64.8369"/>
</g>
<!-- Node3 -->
<g id="node4" class="node"><title>Node3</title>
<a xlink:href="structthrill_1_1core_1_1LoserTreeCopyBase_1_1Loser.html" target="_top" xlink:title="Internal representation of a loser tree player/node.">
<polygon fill="none" stroke="black" points="45.5,-160.5 45.5,-181.5 86.5,-181.5 86.5,-160.5 45.5,-160.5"/>
<text text-anchor="middle" x="66" y="-168.5" font-family="Helvetica,sans-Serif" font-size="10.00">Loser</text>
</a>
</g>
<!-- Node3&#45;&gt;Node2 -->
<g id="edge4" class="edge"><title>Node3&#45;&gt;Node2</title>
<path fill="none" stroke="#9a32cd" stroke-dasharray="5,2" d="M66,-150.162C66,-137.363 66,-121.171 66,-109.124"/>
<polygon fill="#9a32cd" stroke="#9a32cd" points="62.5001,-150.346 66,-160.346 69.5001,-150.346 62.5001,-150.346"/>
<text text-anchor="middle" x="83.5" y="-132.5" font-family="Helvetica,sans-Serif" font-size="10.00"> losers_</text>
</g>
</g>
</svg>
