<?xml version="1.0" encoding="UTF-8" standalone="no"?>
<!DOCTYPE svg PUBLIC "-//W3C//DTD SVG 1.1//EN"
 "http://www.w3.org/Graphics/SVG/1.1/DTD/svg11.dtd">
<!-- Generated by graphviz version 2.40.1 (20161225.0304)
 -->
<!-- Title: AsyncReadBuffer Pages: 1 -->
<svg width="678pt" height="126pt"
 viewBox="0.00 0.00 678.00 126.00" xmlns="http://www.w3.org/2000/svg" xmlns:xlink="http://www.w3.org/1999/xlink">
<g id="graph0" class="graph" transform="scale(1 1) rotate(0) translate(4 122)">
<title>AsyncReadBuffer</title>
<!-- Node1 -->
<g id="node1" class="node">
<title>Node1</title>
<polygon fill="#bfbfbf" stroke="#000000" points="571,-60.5 571,-79.5 670,-79.5 670,-60.5 571,-60.5"/>
<text text-anchor="middle" x="620.5" y="-67.5" font-family="Helvetica,sans-Serif" font-size="10.00" fill="#000000">AsyncReadBuffer</text>
</g>
<!-- Node2 -->
<g id="node2" class="node">
<title>Node2</title>
<g id="a_node2"><a xlink:href="classthrill_1_1net_1_1Buffer.html" target="_top" xlink:title="Simple buffer of characters without initialization or growing functionality. ">
<polygon fill="none" stroke="#000000" points="374,-98.5 374,-117.5 420,-117.5 420,-98.5 374,-98.5"/>
<text text-anchor="middle" x="397" y="-105.5" font-family="Helvetica,sans-Serif" font-size="10.00" fill="#000000">Buffer</text>
</a>
</g>
</g>
<!-- Node2&#45;&gt;Node1 -->
<g id="edge1" class="edge">
<title>Node2&#45;&gt;Node1</title>
<path fill="none" stroke="#9a32cd" stroke-dasharray="5,2" d="M430.1175,-103.8238C461.775,-99.6651 510.7934,-92.7905 553,-85 561.7358,-83.3875 571.0614,-81.4539 579.9058,-79.5196"/>
<polygon fill="#9a32cd" stroke="#9a32cd" points="429.5477,-100.3683 420.0819,-105.1275 430.4495,-107.31 429.5477,-100.3683"/>
<text text-anchor="middle" x="528.5" y="-95" font-family="Helvetica,sans-Serif" font-size="10.00" fill="#000000"> buffer_</text>
</g>
<!-- Node3 -->
<g id="node3" class="node">
<title>Node3</title>
<g id="a_node3"><a xlink:href="classthrill_1_1net_1_1Connection.html" target="_top" xlink:title="A Connection represents a link to another peer in a network group. ">
<polygon fill="none" stroke="#000000" points="361.5,-60.5 361.5,-79.5 432.5,-79.5 432.5,-60.5 361.5,-60.5"/>
<text text-anchor="middle" x="397" y="-67.5" font-family="Helvetica,sans-Serif" font-size="10.00" fill="#000000">Connection</text>
</a>
</g>
</g>
<!-- Node3&#45;&gt;Node1 -->
<g id="edge2" class="edge">
<title>Node3&#45;&gt;Node1</title>
<path fill="none" stroke="#9a32cd" stroke-dasharray="5,2" d="M442.9991,-70C480.2842,-70 532.7247,-70 570.9349,-70"/>
<polygon fill="#9a32cd" stroke="#9a32cd" points="442.9092,-66.5001 432.9091,-70 442.9091,-73.5001 442.9092,-66.5001"/>
<text text-anchor="middle" x="528.5" y="-73" font-family="Helvetica,sans-Serif" font-size="10.00" fill="#000000"> conn_</text>
</g>
<!-- Node4 -->
<g id="node4" class="node">
<title>Node4</title>
<g id="a_node4"><a xlink:href="classtlx_1_1Delegate.html" target="_top" xlink:title="Delegate\&lt; void(Connection\l &amp;c, Buffer &amp;&amp;buffer),\l mem::GPoolAllocator\&lt; char \&gt; \&gt;">
<polygon fill="none" stroke="#000000" points="308,-.5 308,-41.5 486,-41.5 486,-.5 308,-.5"/>
<text text-anchor="start" x="316" y="-29.5" font-family="Helvetica,sans-Serif" font-size="10.00" fill="#000000">Delegate&lt; void(Connection</text>
<text text-anchor="start" x="316" y="-18.5" font-family="Helvetica,sans-Serif" font-size="10.00" fill="#000000"> &amp;c, Buffer &amp;&amp;buffer),</text>
<text text-anchor="middle" x="397" y="-7.5" font-family="Helvetica,sans-Serif" font-size="10.00" fill="#000000"> mem::GPoolAllocator&lt; char &gt; &gt;</text>
</a>
</g>
</g>
<!-- Node4&#45;&gt;Node1 -->
<g id="edge3" class="edge">
<title>Node4&#45;&gt;Node1</title>
<path fill="none" stroke="#9a32cd" stroke-dasharray="5,2" d="M495.9392,-42.5C514.8836,-46.6348 534.5577,-50.9411 553,-55 560.9723,-56.7546 569.472,-58.6354 577.6562,-60.4516"/>
<polygon fill="#9a32cd" stroke="#9a32cd" points="496.6256,-39.0675 486.1094,-40.3557 495.1336,-45.9067 496.6256,-39.0675"/>
<text text-anchor="middle" x="528.5" y="-58" font-family="Helvetica,sans-Serif" font-size="10.00" fill="#000000"> callback_</text>
</g>
<!-- Node5 -->
<g id="node5" class="node">
<title>Node5</title>
<g id="a_node5"><a xlink:href="classtlx_1_1Delegate.html" target="_top" xlink:title="Delegate\&lt; T, Allocator \&gt;">
<polygon fill="none" stroke="#000000" points="0,-11.5 0,-30.5 139,-30.5 139,-11.5 0,-11.5"/>
<text text-anchor="middle" x="69.5" y="-18.5" font-family="Helvetica,sans-Serif" font-size="10.00" fill="#000000">Delegate&lt; T, Allocator &gt;</text>
</a>
</g>
</g>
<!-- Node5&#45;&gt;Node4 -->
<g id="edge4" class="edge">
<title>Node5&#45;&gt;Node4</title>
<path fill="none" stroke="#ffa500" stroke-dasharray="5,2" d="M149.3778,-21C197.3225,-21 258.4074,-21 307.9097,-21"/>
<polygon fill="#ffa500" stroke="#ffa500" points="149.3553,-17.5001 139.3553,-21 149.3552,-24.5001 149.3553,-17.5001"/>
<text text-anchor="start" x="157" y="-46" font-family="Helvetica,sans-Serif" font-size="10.00" fill="#000000"> &lt; void(Connection &amp;c,</text>
<text text-anchor="start" x="157" y="-35" font-family="Helvetica,sans-Serif" font-size="10.00" fill="#000000"> Buffer &amp;&amp;buffer), mem</text>
<text text-anchor="middle" x="223.5" y="-24" font-family="Helvetica,sans-Serif" font-size="10.00" fill="#000000">::GPoolAllocator&lt; char &gt; &gt;</text>
</g>
</g>
</svg>
