<?xml version="1.0" encoding="UTF-8" standalone="no"?>
<!DOCTYPE svg PUBLIC "-//W3C//DTD SVG 1.1//EN"
 "http://www.w3.org/Graphics/SVG/1.1/DTD/svg11.dtd">
<!-- Generated by graphviz version 2.26.3 (20100126.1600)
 -->
<!-- Title: DIANode&lt; ValueType &gt; Pages: 1 -->
<svg width="952pt" height="898pt"
 viewBox="0.00 0.00 952.00 898.00" xmlns="http://www.w3.org/2000/svg" xmlns:xlink="http://www.w3.org/1999/xlink">
<g id="graph1" class="graph" transform="scale(1 1) rotate(0) translate(4 894)">
<title>DIANode&lt; ValueType &gt;</title>
<!-- Node1 -->
<g id="node1" class="node"><title>Node1</title>
<polygon fill="#bfbfbf" stroke="black" points="94,-320.5 94,-341.5 216,-341.5 216,-320.5 94,-320.5"/>
<text text-anchor="middle" x="155" y="-328.5" font-family="Helvetica,sans-Serif" font-size="10.00">DIANode&lt; ValueType &gt;</text>
</g>
<!-- Node3 -->
<g id="node5" class="node"><title>Node3</title>
<a xlink:href="exceptionthrill_1_1api_1_1CacheNode.html" target="_top" xlink:title="A DOpNode which caches all items in an external file.">
<polygon fill="none" stroke="black" points="323.5,-550.5 323.5,-571.5 456.5,-571.5 456.5,-550.5 323.5,-550.5"/>
<text text-anchor="middle" x="390" y="-558.5" font-family="Helvetica,sans-Serif" font-size="10.00">CacheNode&lt; ValueType &gt;</text>
</a>
</g>
<!-- Node1&#45;&gt;Node3 -->
<g id="edge4" class="edge"><title>Node1&#45;&gt;Node3</title>
<path fill="none" stroke="midnightblue" d="M163.32,-351.313C175.826,-380.312 201.505,-434.341 234,-473 264.906,-509.769 275.301,-519.001 318,-541 325.266,-544.743 333.316,-547.855 341.324,-550.42"/>
<polygon fill="midnightblue" stroke="midnightblue" points="166.433,-349.688 159.32,-341.836 159.984,-352.41 166.433,-349.688"/>
</g>
<!-- Node4 -->
<g id="node7" class="node"><title>Node4</title>
<a xlink:href="exceptionthrill_1_1api_1_1CollapseNode.html" target="_top" xlink:title="CollapseNode\&lt; ValueType \&gt;">
<polygon fill="none" stroke="black" points="318.5,-510.5 318.5,-531.5 461.5,-531.5 461.5,-510.5 318.5,-510.5"/>
<text text-anchor="middle" x="390" y="-518.5" font-family="Helvetica,sans-Serif" font-size="10.00">CollapseNode&lt; ValueType &gt;</text>
</a>
</g>
<!-- Node1&#45;&gt;Node4 -->
<g id="edge6" class="edge"><title>Node1&#45;&gt;Node4</title>
<path fill="none" stroke="midnightblue" d="M167.854,-350.15C192.613,-385.508 250.477,-461.068 318,-501 324.477,-504.83 331.714,-507.951 339.036,-510.488"/>
<polygon fill="midnightblue" stroke="midnightblue" points="170.581,-347.938 162.027,-341.688 164.816,-351.909 170.581,-347.938"/>
</g>
<!-- Node5 -->
<g id="node9" class="node"><title>Node5</title>
<a xlink:href="classthrill_1_1api_1_1DOpNode.html" target="_top" xlink:title="A DOpNode is a typed node representing and distributed operations in Thrill.">
<polygon fill="none" stroke="black" points="327.5,-470.5 327.5,-491.5 452.5,-491.5 452.5,-470.5 327.5,-470.5"/>
<text text-anchor="middle" x="390" y="-478.5" font-family="Helvetica,sans-Serif" font-size="10.00">DOpNode&lt; ValueType &gt;</text>
</a>
</g>
<!-- Node1&#45;&gt;Node5 -->
<g id="edge8" class="edge"><title>Node1&#45;&gt;Node5</title>
<path fill="none" stroke="midnightblue" d="M180.128,-347.039C228.416,-377.862 332.977,-444.602 373.494,-470.464"/>
<polygon fill="midnightblue" stroke="midnightblue" points="181.837,-343.978 171.525,-341.548 178.071,-349.878 181.837,-343.978"/>
</g>
<!-- Node23 -->
<g id="node45" class="node"><title>Node23</title>
<a xlink:href="classthrill_1_1api_1_1SourceNode.html" target="_top" xlink:title="SourceNode\&lt; ValueType \&gt;">
<polygon fill="none" stroke="black" points="322.5,-141.5 322.5,-162.5 457.5,-162.5 457.5,-141.5 322.5,-141.5"/>
<text text-anchor="middle" x="390" y="-149.5" font-family="Helvetica,sans-Serif" font-size="10.00">SourceNode&lt; ValueType &gt;</text>
</a>
</g>
<!-- Node1&#45;&gt;Node23 -->
<g id="edge44" class="edge"><title>Node1&#45;&gt;Node23</title>
<path fill="none" stroke="midnightblue" d="M177.153,-314.126C224.995,-277.685 336.819,-192.508 376.077,-162.605"/>
<polygon fill="midnightblue" stroke="midnightblue" points="174.831,-311.495 168.997,-320.339 179.072,-317.064 174.831,-311.495"/>
</g>
<!-- Node31 -->
<g id="node61" class="node"><title>Node31</title>
<a xlink:href="exceptionthrill_1_1api_1_1UnionNode.html" target="_top" xlink:title="Implements a Union operation by hooking any number of input DIANodes and forwarding the output immedi...">
<polygon fill="none" stroke="black" points="325,-101.5 325,-122.5 455,-122.5 455,-101.5 325,-101.5"/>
<text text-anchor="middle" x="390" y="-109.5" font-family="Helvetica,sans-Serif" font-size="10.00">UnionNode&lt; ValueType &gt;</text>
</a>
</g>
<!-- Node1&#45;&gt;Node31 -->
<g id="edge60" class="edge"><title>Node1&#45;&gt;Node31</title>
<path fill="none" stroke="midnightblue" d="M165.072,-311.296C186.934,-270.668 242.872,-177.588 318,-132 324.322,-128.164 331.398,-125.044 338.579,-122.513"/>
<polygon fill="midnightblue" stroke="midnightblue" points="161.935,-309.741 160.368,-320.219 168.128,-313.005 161.935,-309.741"/>
</g>
<!-- Node32 -->
<g id="node63" class="node"><title>Node32</title>
<a xlink:href="classthrill_1_1api_1_1DIANode.html" target="_top" xlink:title="DIANode\&lt; std::string \&gt;">
<polygon fill="none" stroke="black" points="330.5,-21.5 330.5,-42.5 449.5,-42.5 449.5,-21.5 330.5,-21.5"/>
<text text-anchor="middle" x="390" y="-29.5" font-family="Helvetica,sans-Serif" font-size="10.00">DIANode&lt; std::string &gt;</text>
</a>
</g>
<!-- Node1&#45;&gt;Node32 -->
<g id="edge62" class="edge"><title>Node1&#45;&gt;Node32</title>
<path fill="none" stroke="orange" stroke-dasharray="5,2" d="M158.776,-310.135C166.719,-271.162 188.322,-186.26 234,-131 269.662,-87.8571 329.189,-57.5313 363.477,-42.595"/>
<polygon fill="orange" stroke="orange" points="155.28,-309.778 156.813,-320.261 162.152,-311.11 155.28,-309.778"/>
<text text-anchor="middle" x="267" y="-135" font-family="Helvetica,sans-Serif" font-size="10.00"> &lt; std::string &gt;</text>
</g>
<!-- Node2 -->
<g id="node2" class="node"><title>Node2</title>
<a xlink:href="classthrill_1_1api_1_1DIABase.html" target="_top" xlink:title="The DIABase is the untyped super class of DIANode.">
<polygon fill="none" stroke="black" points="0,-320.5 0,-341.5 56,-341.5 56,-320.5 0,-320.5"/>
<text text-anchor="middle" x="28" y="-328.5" font-family="Helvetica,sans-Serif" font-size="10.00">DIABase</text>
</a>
</g>
<!-- Node2&#45;&gt;Node1 -->
<g id="edge2" class="edge"><title>Node2&#45;&gt;Node1</title>
<path fill="none" stroke="midnightblue" d="M66.363,-331C75.0568,-331 84.5001,-331 93.8744,-331"/>
<polygon fill="midnightblue" stroke="midnightblue" points="66.1855,-327.5 56.1854,-331 66.1854,-334.5 66.1855,-327.5"/>
</g>
<!-- Node6 -->
<g id="node11" class="node"><title>Node6</title>
<a xlink:href="classthrill_1_1api_1_1BaseWindowNode.html" target="_top" xlink:title="BaseWindowNode\&lt; ValueType \&gt;">
<polygon fill="none" stroke="black" points="566,-813.5 566,-834.5 728,-834.5 728,-813.5 566,-813.5"/>
<text text-anchor="middle" x="647" y="-821.5" font-family="Helvetica,sans-Serif" font-size="10.00">BaseWindowNode&lt; ValueType &gt;</text>
</a>
</g>
<!-- Node5&#45;&gt;Node6 -->
<g id="edge10" class="edge"><title>Node5&#45;&gt;Node6</title>
<path fill="none" stroke="midnightblue" d="M458.885,-497.625C459.982,-498.685 461.023,-499.809 462,-501 496.472,-543.045 453.171,-697.711 480,-745 501.683,-783.218 547.986,-803.156 586.348,-813.434"/>
<polygon fill="midnightblue" stroke="midnightblue" points="460.978,-494.819 450.912,-491.515 456.721,-500.376 460.978,-494.819"/>
</g>
<!-- Node9 -->
<g id="node17" class="node"><title>Node9</title>
<a xlink:href="exceptionthrill_1_1api_1_1ConcatNode.html" target="_top" xlink:title="ConcatNode\&lt; ValueType \&gt;">
<polygon fill="none" stroke="black" points="579,-773.5 579,-794.5 715,-794.5 715,-773.5 579,-773.5"/>
<text text-anchor="middle" x="647" y="-781.5" font-family="Helvetica,sans-Serif" font-size="10.00">ConcatNode&lt; ValueType &gt;</text>
</a>
</g>
<!-- Node5&#45;&gt;Node9 -->
<g id="edge16" class="edge"><title>Node5&#45;&gt;Node9</title>
<path fill="none" stroke="midnightblue" d="M458.862,-497.644C459.966,-498.698 461.015,-499.816 462,-501 491.106,-535.985 457.259,-665.58 480,-705 502.037,-743.2 548.579,-763.156 586.944,-773.445"/>
<polygon fill="midnightblue" stroke="midnightblue" points="460.934,-494.823 450.853,-491.564 456.701,-500.398 460.934,-494.823"/>
</g>
<!-- Node10 -->
<g id="node19" class="node"><title>Node10</title>
<a xlink:href="classthrill_1_1api_1_1GroupByNode.html" target="_top" xlink:title="GroupByNode\&lt; ValueType \&gt;">
<polygon fill="none" stroke="black" points="575.5,-733.5 575.5,-754.5 718.5,-754.5 718.5,-733.5 575.5,-733.5"/>
<text text-anchor="middle" x="647" y="-741.5" font-family="Helvetica,sans-Serif" font-size="10.00">GroupByNode&lt; ValueType &gt;</text>
</a>
</g>
<!-- Node5&#45;&gt;Node10 -->
<g id="edge18" class="edge"><title>Node5&#45;&gt;Node10</title>
<path fill="none" stroke="midnightblue" d="M458.827,-497.673C459.942,-498.718 461.002,-499.826 462,-501 509.495,-556.866 442.685,-601.878 480,-665 502.524,-703.102 549.293,-723.081 587.622,-733.405"/>
<polygon fill="midnightblue" stroke="midnightblue" points="460.868,-494.828 450.765,-491.638 456.673,-500.432 460.868,-494.828"/>
</g>
<!-- Node11 -->
<g id="node21" class="node"><title>Node11</title>
<a xlink:href="classthrill_1_1api_1_1GroupToIndexNode.html" target="_top" xlink:title="GroupToIndexNode\&lt; ValueType \&gt;">
<polygon fill="none" stroke="black" points="564,-693.5 564,-714.5 730,-714.5 730,-693.5 564,-693.5"/>
<text text-anchor="middle" x="647" y="-701.5" font-family="Helvetica,sans-Serif" font-size="10.00">GroupToIndexNode&lt; ValueType &gt;</text>
</a>
</g>
<!-- Node5&#45;&gt;Node11 -->
<g id="edge20" class="edge"><title>Node5&#45;&gt;Node11</title>
<path fill="none" stroke="midnightblue" d="M458.684,-497.638C459.848,-498.693 460.956,-499.813 462,-501 499.071,-543.145 450.435,-578.289 480,-626 503.26,-663.537 549.971,-683.27 588.091,-693.487"/>
<polygon fill="midnightblue" stroke="midnightblue" points="460.445,-494.591 450.293,-491.56 456.339,-500.26 460.445,-494.591"/>
</g>
<!-- Node12 -->
<g id="node23" class="node"><title>Node12</title>
<a xlink:href="exceptionthrill_1_1api_1_1JoinNode.html" target="_top" xlink:title="Performs an inner join between two DIAs.">
<polygon fill="none" stroke="black" points="586,-653.5 586,-674.5 708,-674.5 708,-653.5 586,-653.5"/>
<text text-anchor="middle" x="647" y="-661.5" font-family="Helvetica,sans-Serif" font-size="10.00">JoinNode&lt; ValueType &gt;</text>
</a>
</g>
<!-- Node5&#45;&gt;Node12 -->
<g id="edge22" class="edge"><title>Node5&#45;&gt;Node12</title>
<path fill="none" stroke="midnightblue" d="M458.13,-497.329C459.489,-498.474 460.783,-499.696 462,-501 489.235,-530.188 457.577,-555.971 480,-589 505.065,-625.92 523.04,-626.291 564,-644 572.707,-647.765 582.248,-650.897 591.662,-653.478"/>
<polygon fill="midnightblue" stroke="midnightblue" points="459.947,-494.332 449.715,-491.584 456,-500.113 459.947,-494.332"/>
</g>
<!-- Node13 -->
<g id="node25" class="node"><title>Node13</title>
<a xlink:href="classthrill_1_1api_1_1MergeNode.html" target="_top" xlink:title="Implementation of Thrill&#39;s merge.">
<polygon fill="none" stroke="black" points="581.5,-613.5 581.5,-634.5 712.5,-634.5 712.5,-613.5 581.5,-613.5"/>
<text text-anchor="middle" x="647" y="-621.5" font-family="Helvetica,sans-Serif" font-size="10.00">MergeNode&lt; ValueType &gt;</text>
</a>
</g>
<!-- Node5&#45;&gt;Node13 -->
<g id="edge24" class="edge"><title>Node5&#45;&gt;Node13</title>
<path fill="none" stroke="midnightblue" d="M456.762,-496.667C458.604,-497.997 460.357,-499.439 462,-501 480.337,-518.428 464.049,-535.364 480,-555 507.252,-588.547 523.899,-587.878 564,-604 573.214,-607.704 583.29,-610.84 593.146,-613.45"/>
<polygon fill="midnightblue" stroke="midnightblue" points="458.565,-493.667 448.191,-491.515 454.958,-499.667 458.565,-493.667"/>
</g>
<!-- Node14 -->
<g id="node27" class="node"><title>Node14</title>
<a xlink:href="exceptionthrill_1_1api_1_1PrefixSumNode.html" target="_top" xlink:title="PrefixSumNode\&lt; ValueType \&gt;">
<polygon fill="none" stroke="black" points="572,-573.5 572,-594.5 722,-594.5 722,-573.5 572,-573.5"/>
<text text-anchor="middle" x="647" y="-581.5" font-family="Helvetica,sans-Serif" font-size="10.00">PrefixSumNode&lt; ValueType &gt;</text>
</a>
</g>
<!-- Node5&#45;&gt;Node14 -->
<g id="edge26" class="edge"><title>Node5&#45;&gt;Node14</title>
<path fill="none" stroke="midnightblue" d="M452.935,-495.604C456.101,-497.218 459.147,-499.011 462,-501 473.231,-508.831 469.404,-517.329 480,-526 511.712,-551.95 525.244,-550.697 564,-564 574.374,-567.561 585.686,-570.734 596.527,-573.447"/>
<polygon fill="midnightblue" stroke="midnightblue" points="454.311,-492.386 443.753,-491.509 451.46,-498.779 454.311,-492.386"/>
</g>
<!-- Node15 -->
<g id="node29" class="node"><title>Node15</title>
<a xlink:href="exceptionthrill_1_1api_1_1RebalanceNode.html" target="_top" xlink:title="RebalanceNode\&lt; ValueType \&gt;">
<polygon fill="none" stroke="black" points="571.5,-533.5 571.5,-554.5 722.5,-554.5 722.5,-533.5 571.5,-533.5"/>
<text text-anchor="middle" x="647" y="-541.5" font-family="Helvetica,sans-Serif" font-size="10.00">RebalanceNode&lt; ValueType &gt;</text>
</a>
</g>
<!-- Node5&#45;&gt;Node15 -->
<g id="edge28" class="edge"><title>Node5&#45;&gt;Node15</title>
<path fill="none" stroke="midnightblue" d="M438.476,-494.224C451.903,-497.806 466.498,-501.624 480,-505 520.438,-515.111 566.592,-525.827 600.116,-533.462"/>
<polygon fill="midnightblue" stroke="midnightblue" points="439.038,-490.751 428.472,-491.542 437.225,-497.512 439.038,-490.751"/>
</g>
<!-- Node16 -->
<g id="node31" class="node"><title>Node16</title>
<a xlink:href="exceptionthrill_1_1api_1_1ReduceNode.html" target="_top" xlink:title="A DIANode which performs a Reduce operation.">
<polygon fill="none" stroke="black" points="578,-493.5 578,-514.5 716,-514.5 716,-493.5 578,-493.5"/>
<text text-anchor="middle" x="647" y="-501.5" font-family="Helvetica,sans-Serif" font-size="10.00">ReduceNode&lt; ValueType &gt;</text>
</a>
</g>
<!-- Node5&#45;&gt;Node16 -->
<g id="edge30" class="edge"><title>Node5&#45;&gt;Node16</title>
<path fill="none" stroke="midnightblue" d="M462.529,-487.491C498.675,-490.726 542.166,-494.618 577.839,-497.81"/>
<polygon fill="midnightblue" stroke="midnightblue" points="462.813,-484.002 452.541,-486.597 462.189,-490.975 462.813,-484.002"/>
</g>
<!-- Node17 -->
<g id="node33" class="node"><title>Node17</title>
<a xlink:href="exceptionthrill_1_1api_1_1ReduceToIndexNode.html" target="_top" xlink:title="A DIANode which performs a ReduceToIndex operation.">
<polygon fill="none" stroke="black" points="589.5,-441 589.5,-475 704.5,-475 704.5,-441 589.5,-441"/>
<text text-anchor="start" x="597.5" y="-462" font-family="Helvetica,sans-Serif" font-size="10.00">ReduceToIndexNode&lt;</text>
<text text-anchor="middle" x="647" y="-449" font-family="Helvetica,sans-Serif" font-size="10.00"> ValueType &gt;</text>
</a>
</g>
<!-- Node5&#45;&gt;Node17 -->
<g id="edge32" class="edge"><title>Node5&#45;&gt;Node17</title>
<path fill="none" stroke="midnightblue" d="M462.547,-474.507C502.722,-470.912 551.966,-466.505 589.464,-463.149"/>
<polygon fill="midnightblue" stroke="midnightblue" points="462.189,-471.025 452.541,-475.403 462.813,-477.998 462.189,-471.025"/>
</g>
<!-- Node18 -->
<g id="node35" class="node"><title>Node18</title>
<a xlink:href="exceptionthrill_1_1api_1_1SampleNode.html" target="_top" xlink:title="SampleNode\&lt; ValueType \&gt;">
<polygon fill="none" stroke="black" points="578.5,-401.5 578.5,-422.5 715.5,-422.5 715.5,-401.5 578.5,-401.5"/>
<text text-anchor="middle" x="647" y="-409.5" font-family="Helvetica,sans-Serif" font-size="10.00">SampleNode&lt; ValueType &gt;</text>
</a>
</g>
<!-- Node5&#45;&gt;Node18 -->
<g id="edge34" class="edge"><title>Node5&#45;&gt;Node18</title>
<path fill="none" stroke="midnightblue" d="M435.807,-467.586C470.82,-457.459 520.334,-443.405 564,-432 576.19,-428.816 589.435,-425.542 601.691,-422.588"/>
<polygon fill="midnightblue" stroke="midnightblue" points="434.512,-464.318 425.882,-470.465 436.461,-471.041 434.512,-464.318"/>
</g>
<!-- Node19 -->
<g id="node37" class="node"><title>Node19</title>
<a xlink:href="exceptionthrill_1_1api_1_1SortNode.html" target="_top" xlink:title="A DIANode which performs a Sort operation.">
<polygon fill="none" stroke="black" points="586,-361.5 586,-382.5 708,-382.5 708,-361.5 586,-361.5"/>
<text text-anchor="middle" x="647" y="-369.5" font-family="Helvetica,sans-Serif" font-size="10.00">SortNode&lt; ValueType &gt;</text>
</a>
</g>
<!-- Node5&#45;&gt;Node19 -->
<g id="edge36" class="edge"><title>Node5&#45;&gt;Node19</title>
<path fill="none" stroke="midnightblue" d="M415.732,-465.182C448.889,-445.433 508.841,-411.839 564,-392 574.042,-388.388 585.001,-385.226 595.567,-382.546"/>
<polygon fill="midnightblue" stroke="midnightblue" points="413.883,-462.21 407.117,-470.362 417.49,-468.209 413.883,-462.21"/>
</g>
<!-- Node20 -->
<g id="node39" class="node"><title>Node20</title>
<a xlink:href="exceptionthrill_1_1api_1_1ZipNode.html" target="_top" xlink:title="A DIANode which performs a Zip operation.">
<polygon fill="none" stroke="black" points="588,-321.5 588,-342.5 706,-342.5 706,-321.5 588,-321.5"/>
<text text-anchor="middle" x="647" y="-329.5" font-family="Helvetica,sans-Serif" font-size="10.00">ZipNode&lt; ValueType &gt;</text>
</a>
</g>
<!-- Node5&#45;&gt;Node20 -->
<g id="edge38" class="edge"><title>Node5&#45;&gt;Node20</title>
<path fill="none" stroke="midnightblue" d="M405.942,-462.942C422.994,-444.342 451.459,-415.286 480,-395 514.186,-370.703 524.672,-366.57 564,-352 573.868,-348.344 584.647,-345.178 595.072,-342.51"/>
<polygon fill="midnightblue" stroke="midnightblue" points="403.265,-460.683 399.158,-470.45 408.459,-465.376 403.265,-460.683"/>
</g>
<!-- Node21 -->
<g id="node41" class="node"><title>Node21</title>
<a xlink:href="exceptionthrill_1_1api_1_1ZipWindowNode.html" target="_top" xlink:title="ZipWindowNode\&lt; ValueType \&gt;">
<polygon fill="none" stroke="black" points="570.5,-281.5 570.5,-302.5 723.5,-302.5 723.5,-281.5 570.5,-281.5"/>
<text text-anchor="middle" x="647" y="-289.5" font-family="Helvetica,sans-Serif" font-size="10.00">ZipWindowNode&lt; ValueType &gt;</text>
</a>
</g>
<!-- Node5&#45;&gt;Node21 -->
<g id="edge40" class="edge"><title>Node5&#45;&gt;Node21</title>
<path fill="none" stroke="midnightblue" d="M400.072,-461.395C414.663,-434.545 443.925,-386.123 480,-355 511.792,-327.572 556.715,-311.53 591.962,-302.504"/>
<polygon fill="midnightblue" stroke="midnightblue" points="396.974,-459.766 395.374,-470.239 403.156,-463.049 396.974,-459.766"/>
</g>
<!-- Node22 -->
<g id="node43" class="node"><title>Node22</title>
<a xlink:href="exceptionthrill_1_1api_1_1ZipWithIndexNode.html" target="_top" xlink:title="A DIANode which calculates the array index for each items and performs a Zip&#45;like operation without e...">
<polygon fill="none" stroke="black" points="566,-241.5 566,-262.5 728,-262.5 728,-241.5 566,-241.5"/>
<text text-anchor="middle" x="647" y="-249.5" font-family="Helvetica,sans-Serif" font-size="10.00">ZipWithIndexNode&lt; ValueType &gt;</text>
</a>
</g>
<!-- Node5&#45;&gt;Node22 -->
<g id="edge42" class="edge"><title>Node5&#45;&gt;Node22</title>
<path fill="none" stroke="midnightblue" d="M399.107,-460.785C417.044,-421.62 457.178,-337.287 480,-315 508.599,-287.071 550.78,-271.292 585.594,-262.51"/>
<polygon fill="midnightblue" stroke="midnightblue" points="395.813,-459.574 394.859,-470.126 402.185,-462.472 395.813,-459.574"/>
</g>
<!-- Node7 -->
<g id="node13" class="node"><title>Node7</title>
<a xlink:href="exceptionthrill_1_1api_1_1DisjointWindowNode.html" target="_top" xlink:title="DisjointWindowNode\l\&lt; ValueType, Input,\l WindowFunction, PartialWindow\lFunction \&gt;">
<polygon fill="none" stroke="black" points="775.5,-830 775.5,-890 936.5,-890 936.5,-830 775.5,-830"/>
<text text-anchor="start" x="783.5" y="-877" font-family="Helvetica,sans-Serif" font-size="10.00">DisjointWindowNode</text>
<text text-anchor="start" x="783.5" y="-864" font-family="Helvetica,sans-Serif" font-size="10.00">&lt; ValueType, Input,</text>
<text text-anchor="start" x="783.5" y="-851" font-family="Helvetica,sans-Serif" font-size="10.00"> WindowFunction, PartialWindow</text>
<text text-anchor="middle" x="856" y="-838" font-family="Helvetica,sans-Serif" font-size="10.00">Function &gt;</text>
</a>
</g>
<!-- Node6&#45;&gt;Node7 -->
<g id="edge12" class="edge"><title>Node6&#45;&gt;Node7</title>
<path fill="none" stroke="midnightblue" d="M718.091,-836.245C736.548,-839.425 756.56,-842.871 775.465,-846.128"/>
<polygon fill="midnightblue" stroke="midnightblue" points="718.462,-832.758 708.013,-834.509 717.274,-839.656 718.462,-832.758"/>
</g>
<!-- Node8 -->
<g id="node15" class="node"><title>Node8</title>
<a xlink:href="exceptionthrill_1_1api_1_1OverlapWindowNode.html" target="_top" xlink:title="OverlapWindowNode\&lt;\l ValueType, Input, WindowFunction,\l PartialWindowFunction \&gt;">
<polygon fill="none" stroke="black" points="768,-764.5 768,-811.5 944,-811.5 944,-764.5 768,-764.5"/>
<text text-anchor="start" x="776" y="-798.5" font-family="Helvetica,sans-Serif" font-size="10.00">OverlapWindowNode&lt;</text>
<text text-anchor="start" x="776" y="-785.5" font-family="Helvetica,sans-Serif" font-size="10.00"> ValueType, Input, WindowFunction,</text>
<text text-anchor="middle" x="856" y="-772.5" font-family="Helvetica,sans-Serif" font-size="10.00"> PartialWindowFunction &gt;</text>
</a>
</g>
<!-- Node6&#45;&gt;Node8 -->
<g id="edge14" class="edge"><title>Node6&#45;&gt;Node8</title>
<path fill="none" stroke="midnightblue" d="M718.281,-811.722C734.184,-808.983 751.233,-806.046 767.728,-803.205"/>
<polygon fill="midnightblue" stroke="midnightblue" points="717.274,-808.344 708.013,-813.491 718.462,-815.242 717.274,-808.344"/>
</g>
<!-- Node24 -->
<g id="node47" class="node"><title>Node24</title>
<a xlink:href="exceptionthrill_1_1api_1_1ConcatToDIANode.html" target="_top" xlink:title="ConcatToDIANode\&lt; ValueType \&gt;">
<polygon fill="none" stroke="black" points="565,-201.5 565,-222.5 729,-222.5 729,-201.5 565,-201.5"/>
<text text-anchor="middle" x="647" y="-209.5" font-family="Helvetica,sans-Serif" font-size="10.00">ConcatToDIANode&lt; ValueType &gt;</text>
</a>
</g>
<!-- Node23&#45;&gt;Node24 -->
<g id="edge46" class="edge"><title>Node23&#45;&gt;Node24</title>
<path fill="none" stroke="midnightblue" d="M437.668,-165.171C451.306,-168.814 466.211,-172.677 480,-176 518.349,-185.241 561.926,-194.597 594.949,-201.454"/>
<polygon fill="midnightblue" stroke="midnightblue" points="438.561,-161.787 427.995,-162.568 436.742,-168.546 438.561,-161.787"/>
</g>
<!-- Node25 -->
<g id="node49" class="node"><title>Node25</title>
<a xlink:href="exceptionthrill_1_1api_1_1DistributeNode.html" target="_top" xlink:title="DistributeNode\&lt; ValueType \&gt;">
<polygon fill="none" stroke="black" points="574,-161.5 574,-182.5 720,-182.5 720,-161.5 574,-161.5"/>
<text text-anchor="middle" x="647" y="-169.5" font-family="Helvetica,sans-Serif" font-size="10.00">DistributeNode&lt; ValueType &gt;</text>
</a>
</g>
<!-- Node23&#45;&gt;Node25 -->
<g id="edge48" class="edge"><title>Node23&#45;&gt;Node25</title>
<path fill="none" stroke="midnightblue" d="M467.765,-158.052C501.377,-160.667 540.505,-163.712 573.612,-166.289"/>
<polygon fill="midnightblue" stroke="midnightblue" points="467.765,-154.541 457.524,-157.255 467.222,-161.52 467.765,-154.541"/>
</g>
<!-- Node26 -->
<g id="node51" class="node"><title>Node26</title>
<a xlink:href="exceptionthrill_1_1api_1_1EqualToDIANode.html" target="_top" xlink:title="EqualToDIANode\&lt; ValueType \&gt;">
<polygon fill="none" stroke="black" points="568,-121.5 568,-142.5 726,-142.5 726,-121.5 568,-121.5"/>
<text text-anchor="middle" x="647" y="-129.5" font-family="Helvetica,sans-Serif" font-size="10.00">EqualToDIANode&lt; ValueType &gt;</text>
</a>
</g>
<!-- Node23&#45;&gt;Node26 -->
<g id="edge50" class="edge"><title>Node23&#45;&gt;Node26</title>
<path fill="none" stroke="midnightblue" d="M467.611,-145.96C499.249,-143.498 535.796,-140.654 567.614,-138.178"/>
<polygon fill="midnightblue" stroke="midnightblue" points="467.222,-142.48 457.524,-146.745 467.765,-149.459 467.222,-142.48"/>
</g>
<!-- Node27 -->
<g id="node53" class="node"><title>Node27</title>
<a xlink:href="exceptionthrill_1_1api_1_1GenerateNode.html" target="_top" xlink:title="A DIANode which performs a Generate operation.">
<polygon fill="none" stroke="black" points="575,-81.5 575,-102.5 719,-102.5 719,-81.5 575,-81.5"/>
<text text-anchor="middle" x="647" y="-89.5" font-family="Helvetica,sans-Serif" font-size="10.00">GenerateNode&lt; ValueType &gt;</text>
</a>
</g>
<!-- Node23&#45;&gt;Node27 -->
<g id="edge52" class="edge"><title>Node23&#45;&gt;Node27</title>
<path fill="none" stroke="midnightblue" d="M445.034,-139.151C491.861,-128.219 558.287,-112.711 601.992,-102.508"/>
<polygon fill="midnightblue" stroke="midnightblue" points="444.002,-135.798 435.06,-141.48 445.594,-142.615 444.002,-135.798"/>
</g>
<!-- Node28 -->
<g id="node55" class="node"><title>Node28</title>
<a xlink:href="exceptionthrill_1_1api_1_1ReadBinaryNode.html" target="_top" xlink:title="A DIANode which performs a line&#45;based Read operation.">
<polygon fill="none" stroke="black" points="569.5,-41.5 569.5,-62.5 724.5,-62.5 724.5,-41.5 569.5,-41.5"/>
<text text-anchor="middle" x="647" y="-49.5" font-family="Helvetica,sans-Serif" font-size="10.00">ReadBinaryNode&lt; ValueType &gt;</text>
</a>
</g>
<!-- Node23&#45;&gt;Node28 -->
<g id="edge54" class="edge"><title>Node23&#45;&gt;Node28</title>
<path fill="none" stroke="midnightblue" d="M450.713,-137.786C454.635,-136.066 458.436,-134.145 462,-132 471.967,-126.003 470.623,-119.884 480,-113 513.488,-88.4162 524.909,-86.0602 564,-72 574.042,-68.3881 585.001,-65.2259 595.567,-62.5461"/>
<polygon fill="midnightblue" stroke="midnightblue" points="449.424,-134.532 441.395,-141.444 451.982,-141.047 449.424,-134.532"/>
</g>
<!-- Node29 -->
<g id="node57" class="node"><title>Node29</title>
<a xlink:href="classthrill_1_1api_1_1SourceNode.html" target="_top" xlink:title="SourceNode\&lt; std::string \&gt;">
<polygon fill="none" stroke="black" points="581,-0.5 581,-21.5 713,-21.5 713,-0.5 581,-0.5"/>
<text text-anchor="middle" x="647" y="-8.5" font-family="Helvetica,sans-Serif" font-size="10.00">SourceNode&lt; std::string &gt;</text>
</a>
</g>
<!-- Node23&#45;&gt;Node29 -->
<g id="edge56" class="edge"><title>Node23&#45;&gt;Node29</title>
<path fill="none" stroke="orange" stroke-dasharray="5,2" d="M457.94,-135.672C459.362,-134.527 460.72,-133.305 462,-132 484.495,-109.068 458.346,-85.7278 480,-62 506.723,-32.7178 526.074,-43.5416 564,-32 576.229,-28.2784 589.609,-24.6873 601.986,-21.5591"/>
<polygon fill="orange" stroke="orange" points="455.621,-133.006 449.17,-141.41 459.454,-138.863 455.621,-133.006"/>
<text text-anchor="middle" x="513" y="-66" font-family="Helvetica,sans-Serif" font-size="10.00"> &lt; std::string &gt;</text>
</g>
<!-- Node30 -->
<g id="node59" class="node"><title>Node30</title>
<a xlink:href="exceptionthrill_1_1api_1_1ReadLinesNode.html" target="_top" xlink:title="A DIANode which performs a line&#45;based Read operation.">
<polygon fill="none" stroke="black" points="813,-0.5 813,-21.5 899,-21.5 899,-0.5 813,-0.5"/>
<text text-anchor="middle" x="856" y="-8.5" font-family="Helvetica,sans-Serif" font-size="10.00">ReadLinesNode</text>
</a>
</g>
<!-- Node29&#45;&gt;Node30 -->
<g id="edge58" class="edge"><title>Node29&#45;&gt;Node30</title>
<path fill="none" stroke="midnightblue" d="M723.202,-11C753.337,-11 786.866,-11 812.695,-11"/>
<polygon fill="midnightblue" stroke="midnightblue" points="723.129,-7.5001 713.129,-11 723.129,-14.5001 723.129,-7.5001"/>
</g>
<!-- Node32&#45;&gt;Node29 -->
<g id="edge64" class="edge"><title>Node32&#45;&gt;Node29</title>
<path fill="none" stroke="midnightblue" d="M459.579,-23.955C466.474,-23.252 473.371,-22.5863 480,-22 513.14,-19.069 550.043,-16.5593 580.713,-14.6805"/>
<polygon fill="midnightblue" stroke="midnightblue" points="459.091,-20.4868 449.509,-25.0066 459.818,-27.449 459.091,-20.4868"/>
</g>
</g>
</svg>
