<?xml version="1.0" encoding="UTF-8" standalone="no"?>
<!DOCTYPE svg PUBLIC "-//W3C//DTD SVG 1.1//EN"
 "http://www.w3.org/Graphics/SVG/1.1/DTD/svg11.dtd">
<!-- Generated by graphviz version 2.40.1 (20161225.0304)
 -->
<!-- Title: Allocator&lt; Type &gt; Pages: 1 -->
<svg width="220pt" height="152pt"
 viewBox="0.00 0.00 219.50 152.00" xmlns="http://www.w3.org/2000/svg" xmlns:xlink="http://www.w3.org/1999/xlink">
<g id="graph0" class="graph" transform="scale(1 1) rotate(0) translate(4 148)">
<title>Allocator&lt; Type &gt;</title>
<!-- Node0 -->
<g id="node1" class="node">
<title>Node0</title>
<polygon fill="#bfbfbf" stroke="#000000" points="49,-67.5 49,-86.5 154,-86.5 154,-67.5 49,-67.5"/>
<text text-anchor="middle" x="101.5" y="-74.5" font-family="Helvetica,sans-Serif" font-size="10.00" fill="#000000">Allocator&lt; Type &gt;</text>
</g>
<!-- Node2 -->
<g id="node3" class="node">
<title>Node2</title>
<g id="a_node3"><a xlink:href="classthrill_1_1mem_1_1Allocator.html" target="_top" xlink:title="Allocator\&lt; T \&gt;">
<polygon fill="none" stroke="#000000" points="0,-.5 0,-19.5 89,-19.5 89,-.5 0,-.5"/>
<text text-anchor="middle" x="44.5" y="-7.5" font-family="Helvetica,sans-Serif" font-size="10.00" fill="#000000">Allocator&lt; T &gt;</text>
</a>
</g>
</g>
<!-- Node0&#45;&gt;Node2 -->
<g id="edge2" class="edge">
<title>Node0&#45;&gt;Node2</title>
<path fill="none" stroke="#ffa500" stroke-dasharray="5,2" d="M86.7946,-59.7147C75.9274,-46.941 61.534,-30.0224 52.6516,-19.5817"/>
<polygon fill="#ffa500" stroke="#ffa500" points="84.1877,-62.0519 93.3333,-67.4005 89.5193,-57.516 84.1877,-62.0519"/>
<text text-anchor="middle" x="92.5" y="-41" font-family="Helvetica,sans-Serif" font-size="10.00" fill="#000000"> &lt; T &gt;</text>
</g>
<!-- Node3 -->
<g id="node4" class="node">
<title>Node3</title>
<g id="a_node4"><a xlink:href="classthrill_1_1mem_1_1Allocator.html" target="_top" xlink:title="Allocator\&lt; char \&gt;">
<polygon fill="none" stroke="#000000" points="107.5,-.5 107.5,-19.5 211.5,-19.5 211.5,-.5 107.5,-.5"/>
<text text-anchor="middle" x="159.5" y="-7.5" font-family="Helvetica,sans-Serif" font-size="10.00" fill="#000000">Allocator&lt; char &gt;</text>
</a>
</g>
</g>
<!-- Node0&#45;&gt;Node3 -->
<g id="edge3" class="edge">
<title>Node0&#45;&gt;Node3</title>
<path fill="none" stroke="#ffa500" stroke-dasharray="5,2" d="M116.4634,-59.7147C127.5212,-46.941 142.1672,-30.0224 151.2054,-19.5817"/>
<polygon fill="#ffa500" stroke="#ffa500" points="113.7088,-57.5491 109.81,-67.4005 119.0013,-62.1307 113.7088,-57.5491"/>
<text text-anchor="middle" x="158" y="-41" font-family="Helvetica,sans-Serif" font-size="10.00" fill="#000000"> &lt; char &gt;</text>
</g>
<!-- Node1 -->
<g id="node2" class="node">
<title>Node1</title>
<g id="a_node2"><a xlink:href="classtlx_1_1AllocatorBase.html" target="_top" xlink:title="AllocatorBase\&lt; Type \&gt;">
<polygon fill="none" stroke="#000000" points="37,-124.5 37,-143.5 166,-143.5 166,-124.5 37,-124.5"/>
<text text-anchor="middle" x="101.5" y="-131.5" font-family="Helvetica,sans-Serif" font-size="10.00" fill="#000000">AllocatorBase&lt; Type &gt;</text>
</a>
</g>
</g>
<!-- Node1&#45;&gt;Node0 -->
<g id="edge1" class="edge">
<title>Node1&#45;&gt;Node0</title>
<path fill="none" stroke="#191970" d="M101.5,-114.2342C101.5,-104.8491 101.5,-94.0651 101.5,-86.5265"/>
<polygon fill="#191970" stroke="#191970" points="98.0001,-114.3307 101.5,-124.3307 105.0001,-114.3308 98.0001,-114.3307"/>
</g>
</g>
</svg>
