<?xml version="1.0" encoding="UTF-8" standalone="no"?>
<!DOCTYPE svg PUBLIC "-//W3C//DTD SVG 1.1//EN"
 "http://www.w3.org/Graphics/SVG/1.1/DTD/svg11.dtd">
<!-- Generated by graphviz version 2.36.0 (20140111.2315)
 -->
<!-- Title: WincallFile Pages: 1 -->
<svg width="185pt" height="196pt"
 viewBox="0.00 0.00 185.00 196.00" xmlns="http://www.w3.org/2000/svg" xmlns:xlink="http://www.w3.org/1999/xlink">
<g id="graph0" class="graph" transform="scale(1 1) rotate(0) translate(4 192)">
<title>WincallFile</title>
<!-- Node1 -->
<g id="node1" class="node"><title>Node1</title>
<polygon fill="#bfbfbf" stroke="black" points="52.5,-0.5 52.5,-19.5 117.5,-19.5 117.5,-0.5 52.5,-0.5"/>
<text text-anchor="middle" x="85" y="-7.5" font-family="Helvetica,sans-Serif" font-size="10.00">WincallFile</text>
</g>
<!-- Node2 -->
<g id="node2" class="node"><title>Node2</title>
<g id="a_node2"><a xlink:href="classthrill_1_1io_1_1WfsFileBase.html" target="_top" xlink:title="Base for Windows file system implementations. ">
<polygon fill="none" stroke="black" points="-0.5,-56.5 -0.5,-75.5 72.5,-75.5 72.5,-56.5 -0.5,-56.5"/>
<text text-anchor="middle" x="36" y="-63.5" font-family="Helvetica,sans-Serif" font-size="10.00">WfsFileBase</text>
</a>
</g>
</g>
<!-- Node2&#45;&gt;Node1 -->
<g id="edge1" class="edge"><title>Node2&#45;&gt;Node1</title>
<path fill="none" stroke="midnightblue" d="M51.0345,-48.4314C59.6222,-38.9673 70.0435,-27.4827 77.0592,-19.7511"/>
<polygon fill="midnightblue" stroke="midnightblue" points="48.2193,-46.3254 44.0914,-56.083 53.4033,-51.0293 48.2193,-46.3254"/>
</g>
<!-- Node3 -->
<g id="node3" class="node"><title>Node3</title>
<g id="a_node3"><a xlink:href="classthrill_1_1io_1_1FileBase.html" target="_top" xlink:title="FileBase">
<polygon fill="none" stroke="black" points="57.5,-112.5 57.5,-131.5 112.5,-131.5 112.5,-112.5 57.5,-112.5"/>
<text text-anchor="middle" x="85" y="-119.5" font-family="Helvetica,sans-Serif" font-size="10.00">FileBase</text>
</a>
</g>
</g>
<!-- Node3&#45;&gt;Node2 -->
<g id="edge2" class="edge"><title>Node3&#45;&gt;Node2</title>
<path fill="none" stroke="midnightblue" d="M69.9655,-104.431C61.3778,-94.9673 50.9565,-83.4827 43.9408,-75.7511"/>
<polygon fill="midnightblue" stroke="midnightblue" points="67.5967,-107.029 76.9086,-112.083 72.7807,-102.325 67.5967,-107.029"/>
</g>
<!-- Node5 -->
<g id="node5" class="node"><title>Node5</title>
<g id="a_node5"><a xlink:href="classthrill_1_1io_1_1DiskQueuedFile.html" target="_top" xlink:title="Implementation of some file methods based on serving_request. ">
<polygon fill="none" stroke="black" points="91,-56.5 91,-75.5 177,-75.5 177,-56.5 91,-56.5"/>
<text text-anchor="middle" x="134" y="-63.5" font-family="Helvetica,sans-Serif" font-size="10.00">DiskQueuedFile</text>
</a>
</g>
</g>
<!-- Node3&#45;&gt;Node5 -->
<g id="edge5" class="edge"><title>Node3&#45;&gt;Node5</title>
<path fill="none" stroke="midnightblue" d="M100.034,-104.431C108.622,-94.9673 119.043,-83.4827 126.059,-75.7511"/>
<polygon fill="midnightblue" stroke="midnightblue" points="97.2193,-102.325 93.0914,-112.083 102.403,-107.029 97.2193,-102.325"/>
</g>
<!-- Node4 -->
<g id="node4" class="node"><title>Node4</title>
<g id="a_node4"><a xlink:href="classtlx_1_1ReferenceCounter.html" target="_top" xlink:title="Provides reference counting abilities for use with CountingPtr. ">
<polygon fill="none" stroke="black" points="37,-168.5 37,-187.5 133,-187.5 133,-168.5 37,-168.5"/>
<text text-anchor="middle" x="85" y="-175.5" font-family="Helvetica,sans-Serif" font-size="10.00">ReferenceCounter</text>
</a>
</g>
</g>
<!-- Node4&#45;&gt;Node3 -->
<g id="edge3" class="edge"><title>Node4&#45;&gt;Node3</title>
<path fill="none" stroke="midnightblue" d="M85,-157.805C85,-148.91 85,-138.78 85,-131.751"/>
<polygon fill="midnightblue" stroke="midnightblue" points="81.5001,-158.083 85,-168.083 88.5001,-158.083 81.5001,-158.083"/>
</g>
<!-- Node5&#45;&gt;Node1 -->
<g id="edge4" class="edge"><title>Node5&#45;&gt;Node1</title>
<path fill="none" stroke="midnightblue" d="M118.966,-48.4314C110.378,-38.9673 99.9565,-27.4827 92.9408,-19.7511"/>
<polygon fill="midnightblue" stroke="midnightblue" points="116.597,-51.0293 125.909,-56.083 121.781,-46.3254 116.597,-51.0293"/>
</g>
</g>
</svg>
