<?xml version="1.0" encoding="UTF-8" standalone="no"?>
<!DOCTYPE svg PUBLIC "-//W3C//DTD SVG 1.1//EN"
 "http://www.w3.org/Graphics/SVG/1.1/DTD/svg11.dtd">
<!-- Generated by graphviz version 2.36.0 (20140111.2315)
 -->
<!-- Title: HostContext Pages: 1 -->
<svg width="1174pt" height="397pt"
 viewBox="0.00 0.00 1174.00 396.56" xmlns="http://www.w3.org/2000/svg" xmlns:xlink="http://www.w3.org/1999/xlink">
<g id="graph0" class="graph" transform="scale(1 1) rotate(0) translate(4 392.556)">
<title>HostContext</title>
<!-- Node1 -->
<g id="node1" class="node"><title>Node1</title>
<polygon fill="#bfbfbf" stroke="black" points="1094,-151.056 1094,-170.056 1166,-170.056 1166,-151.056 1094,-151.056"/>
<text text-anchor="middle" x="1130" y="-158.056" font-family="Helvetica,sans-Serif" font-size="10.00">HostContext</text>
</g>
<!-- Node2 -->
<g id="node2" class="node"><title>Node2</title>
<g id="a_node2"><a xlink:href="classthrill_1_1net_1_1Manager.html" target="_top" xlink:title="Initializes communication channels, manages communication channels and handles errors. ">
<polygon fill="none" stroke="black" points="424,-218.056 424,-237.056 478,-237.056 478,-218.056 424,-218.056"/>
<text text-anchor="middle" x="451" y="-225.056" font-family="Helvetica,sans-Serif" font-size="10.00">Manager</text>
</a>
</g>
</g>
<!-- Node2&#45;&gt;Node1 -->
<g id="edge1" class="edge"><title>Node2&#45;&gt;Node1</title>
<path fill="none" stroke="#9a32cd" stroke-dasharray="5,2" d="M478.015,-213.209C509.555,-196.707 564.854,-170.6 616,-160.556 792.534,-125.886 1009.88,-145.93 1093.72,-155.928"/>
<polygon fill="#9a32cd" stroke="#9a32cd" points="476.205,-210.207 469.02,-217.993 479.492,-216.387 476.205,-210.207"/>
<text text-anchor="middle" x="765" y="-148.556" font-family="Helvetica,sans-Serif" font-size="10.00"> net_manager_</text>
</g>
<!-- Node2&#45;&gt;Node1 -->
<g id="edge24" class="edge"><title>Node2&#45;&gt;Node1</title>
<path fill="none" stroke="#9a32cd" stroke-dasharray="5,2" d="M465.703,-210.185C478.93,-194.671 500.382,-172.593 524,-160.556 561.121,-141.638 574.919,-149.504 616,-142.556 817.582,-108.46 875.608,-101.048 1076,-141.556 1086.44,-143.667 1097.6,-147.425 1106.97,-151.044"/>
<polygon fill="#9a32cd" stroke="#9a32cd" points="462.902,-208.081 459.24,-218.023 468.302,-212.535 462.902,-208.081"/>
<text text-anchor="middle" x="765" y="-126.556" font-family="Helvetica,sans-Serif" font-size="10.00"> mem_manager_</text>
</g>
<!-- Node7 -->
<g id="node7" class="node"><title>Node7</title>
<g id="a_node7"><a xlink:href="classthrill_1_1data_1_1Multiplexer.html" target="_top" xlink:title="Multiplexes virtual Connections on Dispatcher. ">
<polygon fill="none" stroke="black" points="860,-208.056 860,-227.056 924,-227.056 924,-208.056 860,-208.056"/>
<text text-anchor="middle" x="892" y="-215.056" font-family="Helvetica,sans-Serif" font-size="10.00">Multiplexer</text>
</a>
</g>
</g>
<!-- Node2&#45;&gt;Node7 -->
<g id="edge16" class="edge"><title>Node2&#45;&gt;Node7</title>
<path fill="none" stroke="#9a32cd" stroke-dasharray="5,2" d="M488.316,-230.917C552.034,-236.181 688.028,-244.591 802,-232.556 821.322,-230.515 842.807,-226.932 859.827,-223.78"/>
<polygon fill="#9a32cd" stroke="#9a32cd" points="488.263,-227.4 478.002,-230.04 487.669,-234.375 488.263,-227.4"/>
<text text-anchor="middle" x="663" y="-241.556" font-family="Helvetica,sans-Serif" font-size="10.00"> mem_manager_</text>
</g>
<!-- Node8 -->
<g id="node8" class="node"><title>Node8</title>
<g id="a_node8"><a xlink:href="classthrill_1_1net_1_1DispatcherThread.html" target="_top" xlink:title="DispatcherThread contains a net::Dispatcher object and an associated thread that runs in the dispatch...">
<polygon fill="none" stroke="black" points="616,-208.056 616,-227.056 710,-227.056 710,-208.056 616,-208.056"/>
<text text-anchor="middle" x="663" y="-215.056" font-family="Helvetica,sans-Serif" font-size="10.00">DispatcherThread</text>
</a>
</g>
</g>
<!-- Node2&#45;&gt;Node8 -->
<g id="edge10" class="edge"><title>Node2&#45;&gt;Node8</title>
<path fill="none" stroke="#9a32cd" stroke-dasharray="5,2" d="M488.312,-222.176C499.709,-220.714 512.355,-219.323 524,-218.556 554.601,-216.539 589.101,-216.289 615.951,-216.544"/>
<polygon fill="#9a32cd" stroke="#9a32cd" points="487.707,-218.726 478.261,-223.523 488.637,-225.664 487.707,-218.726"/>
<text text-anchor="middle" x="561" y="-221.556" font-family="Helvetica,sans-Serif" font-size="10.00"> mem_manager_</text>
</g>
<!-- Node10 -->
<g id="node10" class="node"><title>Node10</title>
<g id="a_node10"><a xlink:href="classthrill_1_1data_1_1BlockPool.html" target="_top" xlink:title="Pool to allocate, keep, swap out/in, and free all ByteBlocks on the host. ">
<polygon fill="none" stroke="black" points="632.5,-293.056 632.5,-312.056 693.5,-312.056 693.5,-293.056 632.5,-293.056"/>
<text text-anchor="middle" x="663" y="-300.056" font-family="Helvetica,sans-Serif" font-size="10.00">BlockPool</text>
</a>
</g>
</g>
<!-- Node2&#45;&gt;Node10 -->
<g id="edge15" class="edge"><title>Node2&#45;&gt;Node10</title>
<path fill="none" stroke="#9a32cd" stroke-dasharray="5,2" d="M486.122,-240.809C498.051,-245.321 511.568,-250.297 524,-254.556 556.582,-265.718 565.495,-266.172 598,-277.556 611.622,-282.327 626.665,-288.173 638.743,-293.012"/>
<polygon fill="#9a32cd" stroke="#9a32cd" points="487.124,-237.446 476.533,-237.155 484.631,-243.987 487.124,-237.446"/>
<text text-anchor="middle" x="561" y="-280.556" font-family="Helvetica,sans-Serif" font-size="10.00"> mem_manager_</text>
</g>
<!-- Node3 -->
<g id="node3" class="node"><title>Node3</title>
<g id="a_node3"><a xlink:href="classthrill_1_1common_1_1ProfileTask.html" target="_top" xlink:title="ProfileTask">
<polygon fill="none" stroke="black" points="204,-218.056 204,-237.056 270,-237.056 270,-218.056 204,-218.056"/>
<text text-anchor="middle" x="237" y="-225.056" font-family="Helvetica,sans-Serif" font-size="10.00">ProfileTask</text>
</a>
</g>
</g>
<!-- Node3&#45;&gt;Node2 -->
<g id="edge2" class="edge"><title>Node3&#45;&gt;Node2</title>
<path fill="none" stroke="midnightblue" d="M280.313,-227.556C323.14,-227.556 388.007,-227.556 423.864,-227.556"/>
<polygon fill="midnightblue" stroke="midnightblue" points="280.198,-224.056 270.198,-227.556 280.198,-231.056 280.198,-224.056"/>
</g>
<!-- Node3&#45;&gt;Node10 -->
<g id="edge13" class="edge"><title>Node3&#45;&gt;Node10</title>
<path fill="none" stroke="midnightblue" d="M280.217,-238.071C335.781,-251.561 436.648,-274.851 524,-288.556 561.113,-294.379 604.239,-298.304 632.268,-300.482"/>
<polygon fill="midnightblue" stroke="midnightblue" points="280.927,-234.641 270.383,-235.67 279.267,-241.442 280.927,-234.641"/>
</g>
<!-- Node12 -->
<g id="node12" class="node"><title>Node12</title>
<g id="a_node12"><a xlink:href="classthrill_1_1common_1_1ProfileTaskRegistration.html" target="_top" xlink:title="ProfileTaskRegistration">
<polygon fill="none" stroke="black" points="832.5,-15.0559 832.5,-34.0559 951.5,-34.0559 951.5,-15.0559 832.5,-15.0559"/>
<text text-anchor="middle" x="892" y="-22.0559" font-family="Helvetica,sans-Serif" font-size="10.00">ProfileTaskRegistration</text>
</a>
</g>
</g>
<!-- Node3&#45;&gt;Node12 -->
<g id="edge23" class="edge"><title>Node3&#45;&gt;Node12</title>
<path fill="none" stroke="#9a32cd" stroke-dasharray="5,2" d="M273.725,-214.652C327.668,-195.319 433.255,-158.063 524,-129.556 644.76,-91.6189 789.616,-51.8421 855.391,-34.0887"/>
<polygon fill="#9a32cd" stroke="#9a32cd" points="272.497,-211.374 264.268,-218.048 274.863,-217.962 272.497,-211.374"/>
<text text-anchor="middle" x="561" y="-132.556" font-family="Helvetica,sans-Serif" font-size="10.00"> task_</text>
</g>
<!-- Node4 -->
<g id="node4" class="node"><title>Node4</title>
<g id="a_node4"><a xlink:href="classthrill_1_1common_1_1JsonLogger.html" target="_top" xlink:title="JsonLogger is a receiver of JSON output objects for logging. ">
<polygon fill="none" stroke="black" points="203.5,-318.056 203.5,-337.056 270.5,-337.056 270.5,-318.056 203.5,-318.056"/>
<text text-anchor="middle" x="237" y="-325.056" font-family="Helvetica,sans-Serif" font-size="10.00">JsonLogger</text>
</a>
</g>
</g>
<!-- Node4&#45;&gt;Node1 -->
<g id="edge7" class="edge"><title>Node4&#45;&gt;Node1</title>
<path fill="none" stroke="#9a32cd" stroke-dasharray="5,2" d="M279.323,-339.762C321.751,-351.203 389.89,-366.556 450,-366.556 450,-366.556 450,-366.556 893,-366.556 986.77,-366.556 1010.95,-329.098 1076,-261.556 1102.79,-233.742 1119.52,-189.699 1125.97,-170.289"/>
<polygon fill="#9a32cd" stroke="#9a32cd" points="280.202,-336.374 269.631,-337.096 278.345,-343.124 280.202,-336.374"/>
<text text-anchor="middle" x="663" y="-380.556" font-family="Helvetica,sans-Serif" font-size="10.00"> logger_</text>
<text text-anchor="middle" x="663" y="-369.556" font-family="Helvetica,sans-Serif" font-size="10.00">base_logger_</text>
</g>
<!-- Node4&#45;&gt;Node2 -->
<g id="edge3" class="edge"><title>Node4&#45;&gt;Node2</title>
<path fill="none" stroke="#9a32cd" stroke-dasharray="5,2" d="M267.58,-313.603C311.317,-292.972 392.108,-254.863 429.734,-237.115"/>
<polygon fill="#9a32cd" stroke="#9a32cd" points="265.879,-310.536 258.327,-317.967 268.865,-316.867 265.879,-310.536"/>
<text text-anchor="middle" x="355" y="-282.556" font-family="Helvetica,sans-Serif" font-size="10.00"> logger_</text>
</g>
<!-- Node4&#45;&gt;Node4 -->
<g id="edge5" class="edge"><title>Node4&#45;&gt;Node4</title>
<path fill="none" stroke="#9a32cd" stroke-dasharray="5,2" d="M215.051,-346.585C216.248,-351.684 223.564,-355.556 237,-355.556 257.973,-355.556 264.035,-346.121 255.187,-337.313"/>
<polygon fill="#9a32cd" stroke="#9a32cd" points="218.296,-347.895 218.813,-337.313 211.81,-345.263 218.296,-347.895"/>
<text text-anchor="middle" x="237" y="-358.556" font-family="Helvetica,sans-Serif" font-size="10.00"> super_</text>
</g>
<!-- Node4&#45;&gt;Node10 -->
<g id="edge14" class="edge"><title>Node4&#45;&gt;Node10</title>
<path fill="none" stroke="#9a32cd" stroke-dasharray="5,2" d="M281.134,-327.704C348.823,-327.526 484.04,-325.513 598,-313.556 609.325,-312.368 621.675,-310.405 632.48,-308.464"/>
<polygon fill="#9a32cd" stroke="#9a32cd" points="280.859,-324.204 270.864,-327.718 280.868,-331.204 280.859,-324.204"/>
<text text-anchor="middle" x="451" y="-328.556" font-family="Helvetica,sans-Serif" font-size="10.00"> logger_</text>
</g>
<!-- Node5 -->
<g id="node5" class="node"><title>Node5</title>
<g id="a_node5"><a xlink:href="classthrill_1_1common_1_1JsonVerbatim.html" target="_top" xlink:title="A special class to output verbatim text. ">
<polygon fill="none" stroke="black" points="0.5,-318.056 0.5,-337.056 77.5,-337.056 77.5,-318.056 0.5,-318.056"/>
<text text-anchor="middle" x="39" y="-325.056" font-family="Helvetica,sans-Serif" font-size="10.00">JsonVerbatim</text>
</a>
</g>
</g>
<!-- Node5&#45;&gt;Node4 -->
<g id="edge4" class="edge"><title>Node5&#45;&gt;Node4</title>
<path fill="none" stroke="#9a32cd" stroke-dasharray="5,2" d="M88.0052,-327.556C123.789,-327.556 171.72,-327.556 203.208,-327.556"/>
<polygon fill="#9a32cd" stroke="#9a32cd" points="87.7908,-324.056 77.7908,-327.556 87.7907,-331.056 87.7908,-324.056"/>
<text text-anchor="middle" x="119" y="-330.556" font-family="Helvetica,sans-Serif" font-size="10.00"> common_</text>
</g>
<!-- Node6 -->
<g id="node6" class="node"><title>Node6</title>
<g id="a_node6"><a xlink:href="classthrill_1_1api_1_1MemoryConfig.html" target="_top" xlink:title="MemoryConfig">
<polygon fill="none" stroke="black" points="852,-170.056 852,-189.056 932,-189.056 932,-170.056 852,-170.056"/>
<text text-anchor="middle" x="892" y="-177.056" font-family="Helvetica,sans-Serif" font-size="10.00">MemoryConfig</text>
</a>
</g>
</g>
<!-- Node6&#45;&gt;Node1 -->
<g id="edge6" class="edge"><title>Node6&#45;&gt;Node1</title>
<path fill="none" stroke="#9a32cd" stroke-dasharray="5,2" d="M942.431,-175.576C987.764,-171.927 1053.77,-166.612 1093.91,-163.381"/>
<polygon fill="#9a32cd" stroke="#9a32cd" points="941.922,-172.106 932.236,-176.397 942.484,-179.083 941.922,-172.106"/>
<text text-anchor="middle" x="1029" y="-174.556" font-family="Helvetica,sans-Serif" font-size="10.00"> mem_config_</text>
</g>
<!-- Node7&#45;&gt;Node1 -->
<g id="edge8" class="edge"><title>Node7&#45;&gt;Node1</title>
<path fill="none" stroke="#9a32cd" stroke-dasharray="5,2" d="M934.162,-214.004C971.79,-209.961 1028.62,-201.833 1076,-186.556 1088.68,-182.467 1102.15,-175.826 1112.34,-170.28"/>
<polygon fill="#9a32cd" stroke="#9a32cd" points="933.673,-210.536 924.083,-215.039 934.388,-217.5 933.673,-210.536"/>
<text text-anchor="middle" x="1029" y="-210.556" font-family="Helvetica,sans-Serif" font-size="10.00"> data_multiplexer_</text>
</g>
<!-- Node8&#45;&gt;Node7 -->
<g id="edge9" class="edge"><title>Node8&#45;&gt;Node7</title>
<path fill="none" stroke="#9a32cd" stroke-dasharray="5,2" d="M720.478,-217.556C764.491,-217.556 823.958,-217.556 859.783,-217.556"/>
<polygon fill="#9a32cd" stroke="#9a32cd" points="720.21,-214.056 710.21,-217.556 720.21,-221.056 720.21,-214.056"/>
<text text-anchor="middle" x="765" y="-220.556" font-family="Helvetica,sans-Serif" font-size="10.00"> dispatcher_</text>
</g>
<!-- Node9 -->
<g id="node9" class="node"><title>Node9</title>
<g id="a_node9"><a xlink:href="classthrill_1_1net_1_1Group.html" target="_top" xlink:title="A network Group is a collection of enumerated communication links, which provides point&#45;to&#45;point comm...">
<polygon fill="none" stroke="black" points="641.5,-170.056 641.5,-189.056 684.5,-189.056 684.5,-170.056 641.5,-170.056"/>
<text text-anchor="middle" x="663" y="-177.056" font-family="Helvetica,sans-Serif" font-size="10.00">Group</text>
</a>
</g>
</g>
<!-- Node9&#45;&gt;Node7 -->
<g id="edge11" class="edge"><title>Node9&#45;&gt;Node7</title>
<path fill="none" stroke="#9a32cd" stroke-dasharray="5,2" d="M694.539,-184.629C722.505,-189.279 765.041,-196.361 802,-202.556 821.163,-205.768 842.643,-209.387 859.699,-212.266"/>
<polygon fill="#9a32cd" stroke="#9a32cd" points="695.015,-181.161 684.576,-182.973 693.867,-188.066 695.015,-181.161"/>
<text text-anchor="middle" x="765" y="-205.556" font-family="Helvetica,sans-Serif" font-size="10.00"> group_</text>
</g>
<!-- Node10&#45;&gt;Node1 -->
<g id="edge17" class="edge"><title>Node10&#45;&gt;Node1</title>
<path fill="none" stroke="#9a32cd" stroke-dasharray="5,2" d="M703.617,-308.349C731.323,-311.41 769.105,-313.597 802,-308.556 928.162,-289.222 969.506,-292.91 1076,-222.556 1097.03,-208.662 1114.44,-184.115 1123.09,-170.446"/>
<polygon fill="#9a32cd" stroke="#9a32cd" points="703.867,-304.854 693.524,-307.147 703.039,-311.805 703.867,-304.854"/>
<text text-anchor="middle" x="892" y="-307.556" font-family="Helvetica,sans-Serif" font-size="10.00"> block_pool_</text>
</g>
<!-- Node10&#45;&gt;Node7 -->
<g id="edge12" class="edge"><title>Node10&#45;&gt;Node7</title>
<path fill="none" stroke="#9a32cd" stroke-dasharray="5,2" d="M703.993,-298.406C732.168,-294.541 770.356,-287.375 802,-274.556 831.931,-262.431 862.773,-240.036 879.127,-227.224"/>
<polygon fill="#9a32cd" stroke="#9a32cd" points="703.19,-294.981 693.719,-299.731 704.085,-301.923 703.19,-294.981"/>
<text text-anchor="middle" x="765" y="-297.556" font-family="Helvetica,sans-Serif" font-size="10.00"> block_pool_</text>
</g>
<!-- Node11 -->
<g id="node11" class="node"><title>Node11</title>
<g id="a_node11"><a xlink:href="classthrill_1_1net_1_1FlowControlChannelManager.html" target="_top" xlink:title="FlowControlChannelManager">
<polygon fill="none" stroke="black" points="820.5,-56.0559 820.5,-75.0559 963.5,-75.0559 963.5,-56.0559 820.5,-56.0559"/>
<text text-anchor="middle" x="892" y="-63.0559" font-family="Helvetica,sans-Serif" font-size="10.00">FlowControlChannelManager</text>
</a>
</g>
</g>
<!-- Node11&#45;&gt;Node1 -->
<g id="edge18" class="edge"><title>Node11&#45;&gt;Node1</title>
<path fill="none" stroke="#9a32cd" stroke-dasharray="5,2" d="M974.145,-56.0193C1007.74,-55.807 1045.81,-60.7068 1076,-78.5559 1104.02,-95.1199 1119.82,-132.963 1125.97,-150.849"/>
<polygon fill="#9a32cd" stroke="#9a32cd" points="973.8,-52.5258 963.878,-56.2406 973.951,-59.5242 973.8,-52.5258"/>
<text text-anchor="middle" x="1029" y="-81.5559" font-family="Helvetica,sans-Serif" font-size="10.00"> flow_manager_</text>
</g>
<!-- Node12&#45;&gt;Node1 -->
<g id="edge19" class="edge"><title>Node12&#45;&gt;Node1</title>
<path fill="none" stroke="#9a32cd" stroke-dasharray="5,2" d="M928.835,-12.0095C968.52,-0.546304 1032.61,10.487 1076,-19.5559 1120.72,-50.5216 1127.76,-124.25 1128.83,-150.81"/>
<polygon fill="#9a32cd" stroke="#9a32cd" points="927.603,-8.72574 919.056,-14.986 929.642,-15.4224 927.603,-8.72574"/>
<text text-anchor="start" x="982" y="-44.5559" font-family="Helvetica,sans-Serif" font-size="10.00"> net_manager_profiler</text>
<text text-anchor="middle" x="1029" y="-33.5559" font-family="Helvetica,sans-Serif" font-size="10.00">_</text>
<text text-anchor="middle" x="1029" y="-22.5559" font-family="Helvetica,sans-Serif" font-size="10.00">block_pool_profiler_</text>
</g>
<!-- Node13 -->
<g id="node13" class="node"><title>Node13</title>
<g id="a_node13"><a xlink:href="classthrill_1_1common_1_1ProfileThread.html" target="_top" xlink:title="ProfileThread">
<polygon fill="none" stroke="black" points="626,-15.0559 626,-34.0559 700,-34.0559 700,-15.0559 626,-15.0559"/>
<text text-anchor="middle" x="663" y="-22.0559" font-family="Helvetica,sans-Serif" font-size="10.00">ProfileThread</text>
</a>
</g>
</g>
<!-- Node13&#45;&gt;Node12 -->
<g id="edge20" class="edge"><title>Node13&#45;&gt;Node12</title>
<path fill="none" stroke="#9a32cd" stroke-dasharray="5,2" d="M710.244,-24.5559C745.512,-24.5559 794.332,-24.5559 832.346,-24.5559"/>
<polygon fill="#9a32cd" stroke="#9a32cd" points="710.22,-21.056 700.22,-24.5559 710.22,-28.056 710.22,-21.056"/>
<text text-anchor="middle" x="765" y="-27.5559" font-family="Helvetica,sans-Serif" font-size="10.00"> profiler_</text>
</g>
<!-- Node14 -->
<g id="node14" class="node"><title>Node14</title>
<g id="a_node14"><a xlink:href="classthrill_1_1common_1_1BinaryHeap.html" target="_top" xlink:title="BinaryHeap\&lt; Timer \&gt;">
<polygon fill="none" stroke="black" points="396,-15.0559 396,-34.0559 506,-34.0559 506,-15.0559 396,-15.0559"/>
<text text-anchor="middle" x="451" y="-22.0559" font-family="Helvetica,sans-Serif" font-size="10.00">BinaryHeap&lt; Timer &gt;</text>
</a>
</g>
</g>
<!-- Node14&#45;&gt;Node13 -->
<g id="edge21" class="edge"><title>Node14&#45;&gt;Node13</title>
<path fill="none" stroke="#9a32cd" stroke-dasharray="5,2" d="M516.494,-24.5559C552.465,-24.5559 595.928,-24.5559 625.933,-24.5559"/>
<polygon fill="#9a32cd" stroke="#9a32cd" points="516.08,-21.056 506.08,-24.5559 516.08,-28.056 516.08,-21.056"/>
<text text-anchor="middle" x="561" y="-27.5559" font-family="Helvetica,sans-Serif" font-size="10.00"> tasks_</text>
</g>
<!-- Node15 -->
<g id="node15" class="node"><title>Node15</title>
<g id="a_node15"><a xlink:href="classthrill_1_1common_1_1BinaryHeap.html" target="_top" xlink:title="BinaryHeap\&lt; Type, Compare \&gt;">
<polygon fill="none" stroke="black" points="160.5,-15.0559 160.5,-34.0559 313.5,-34.0559 313.5,-15.0559 160.5,-15.0559"/>
<text text-anchor="middle" x="237" y="-22.0559" font-family="Helvetica,sans-Serif" font-size="10.00">BinaryHeap&lt; Type, Compare &gt;</text>
</a>
</g>
</g>
<!-- Node15&#45;&gt;Node14 -->
<g id="edge22" class="edge"><title>Node15&#45;&gt;Node14</title>
<path fill="none" stroke="orange" stroke-dasharray="5,2" d="M323.926,-24.5559C348.174,-24.5559 373.876,-24.5559 395.704,-24.5559"/>
<polygon fill="orange" stroke="orange" points="323.639,-21.056 313.639,-24.5559 323.639,-28.056 323.639,-21.056"/>
<text text-anchor="middle" x="355" y="-27.5559" font-family="Helvetica,sans-Serif" font-size="10.00"> &lt; Timer &gt;</text>
</g>
</g>
</svg>
