<?xml version="1.0" encoding="UTF-8" standalone="no"?>
<!DOCTYPE svg PUBLIC "-//W3C//DTD SVG 1.1//EN"
 "http://www.w3.org/Graphics/SVG/1.1/DTD/svg11.dtd">
<!-- Generated by graphviz version 2.26.3 (20100126.1600)
 -->
<!-- Title: StatsTimerBaseStopped&lt; Active &gt; Pages: 1 -->
<svg width="277pt" height="190pt"
 viewBox="0.00 0.00 277.00 190.00" xmlns="http://www.w3.org/2000/svg" xmlns:xlink="http://www.w3.org/1999/xlink">
<g id="graph1" class="graph" transform="scale(1 1) rotate(0) translate(4 186)">
<title>StatsTimerBaseStopped&lt; Active &gt;</title>
<!-- Node1 -->
<g id="node1" class="node"><title>Node1</title>
<polygon fill="#bfbfbf" stroke="black" points="69.5,-87 69.5,-121 192.5,-121 192.5,-87 69.5,-87"/>
<text text-anchor="start" x="77.5" y="-108" font-family="Helvetica,sans-Serif" font-size="10.00">StatsTimerBaseStopped</text>
<text text-anchor="middle" x="131" y="-95" font-family="Helvetica,sans-Serif" font-size="10.00">&lt; Active &gt;</text>
</g>
<!-- Node3 -->
<g id="node5" class="node"><title>Node3</title>
<a xlink:href="classthrill_1_1common_1_1StatsTimerBaseStopped.html" target="_top" xlink:title="StatsTimerBaseStopped\l\&lt; enable_stats \&gt;">
<polygon fill="none" stroke="black" points="-0.5,-1 -0.5,-35 122.5,-35 122.5,-1 -0.5,-1"/>
<text text-anchor="start" x="7.5" y="-22" font-family="Helvetica,sans-Serif" font-size="10.00">StatsTimerBaseStopped</text>
<text text-anchor="middle" x="61" y="-9" font-family="Helvetica,sans-Serif" font-size="10.00">&lt; enable_stats &gt;</text>
</a>
</g>
<!-- Node1&#45;&gt;Node3 -->
<g id="edge4" class="edge"><title>Node1&#45;&gt;Node3</title>
<path fill="none" stroke="orange" stroke-dasharray="5,2" d="M110.435,-78.7339C98.9948,-64.6794 85.0607,-47.5603 74.9056,-35.084"/>
<polygon fill="orange" stroke="orange" points="107.807,-81.0504 116.834,-86.5966 113.236,-76.6315 107.807,-81.0504"/>
<text text-anchor="middle" x="139.5" y="-58.5" font-family="Helvetica,sans-Serif" font-size="10.00"> &lt; enable_stats &gt;</text>
</g>
<!-- Node4 -->
<g id="node7" class="node"><title>Node4</title>
<a xlink:href="classthrill_1_1common_1_1StatsTimerBaseStopped.html" target="_top" xlink:title="StatsTimerBaseStopped\l\&lt; stats_enabled \&gt;">
<polygon fill="none" stroke="black" points="139.5,-1 139.5,-35 262.5,-35 262.5,-1 139.5,-1"/>
<text text-anchor="start" x="147.5" y="-22" font-family="Helvetica,sans-Serif" font-size="10.00">StatsTimerBaseStopped</text>
<text text-anchor="middle" x="201" y="-9" font-family="Helvetica,sans-Serif" font-size="10.00">&lt; stats_enabled &gt;</text>
</a>
</g>
<!-- Node1&#45;&gt;Node4 -->
<g id="edge6" class="edge"><title>Node1&#45;&gt;Node4</title>
<path fill="none" stroke="orange" stroke-dasharray="5,2" d="M166.87,-80.4384C171.288,-76.6124 175.479,-72.4364 179,-68 186.665,-58.3433 192.218,-45.6005 195.828,-35.3962"/>
<polygon fill="orange" stroke="orange" points="164.387,-77.9437 158.771,-86.9278 168.763,-83.4066 164.387,-77.9437"/>
<text text-anchor="middle" x="228" y="-58.5" font-family="Helvetica,sans-Serif" font-size="10.00"> &lt; stats_enabled &gt;</text>
</g>
<!-- Node2 -->
<g id="node2" class="node"><title>Node2</title>
<a xlink:href="classthrill_1_1common_1_1StatsTimerBase.html" target="_top" xlink:title="This class provides a statistical stop watch timer that can easily be deactivated using a boolean tem...">
<polygon fill="none" stroke="black" points="64.5,-160.5 64.5,-181.5 197.5,-181.5 197.5,-160.5 64.5,-160.5"/>
<text text-anchor="middle" x="131" y="-168.5" font-family="Helvetica,sans-Serif" font-size="10.00">StatsTimerBase&lt; Active &gt;</text>
</a>
</g>
<!-- Node2&#45;&gt;Node1 -->
<g id="edge2" class="edge"><title>Node2&#45;&gt;Node1</title>
<path fill="none" stroke="midnightblue" d="M131,-150.165C131,-140.797 131,-129.88 131,-121.014"/>
<polygon fill="midnightblue" stroke="midnightblue" points="127.5,-150.235 131,-160.235 134.5,-150.235 127.5,-150.235"/>
</g>
</g>
</svg>
