<?xml version="1.0" encoding="UTF-8" standalone="no"?>
<!DOCTYPE svg PUBLIC "-//W3C//DTD SVG 1.1//EN"
 "http://www.w3.org/Graphics/SVG/1.1/DTD/svg11.dtd">
<!-- Generated by graphviz version 2.40.1 (20161225.0304)
 -->
<!-- Title: WriteLinesNode&lt; ValueType &gt; Pages: 1 -->
<svg width="173pt" height="196pt"
 viewBox="0.00 0.00 173.00 196.00" xmlns="http://www.w3.org/2000/svg" xmlns:xlink="http://www.w3.org/1999/xlink">
<g id="graph0" class="graph" transform="scale(1 1) rotate(0) translate(4 192)">
<title>WriteLinesNode&lt; ValueType &gt;</title>
<!-- Node0 -->
<g id="node1" class="node">
<title>Node0</title>
<polygon fill="#bfbfbf" stroke="#000000" points="0,-.5 0,-19.5 165,-19.5 165,-.5 0,-.5"/>
<text text-anchor="middle" x="82.5" y="-7.5" font-family="Helvetica,sans-Serif" font-size="10.00" fill="#000000">WriteLinesNode&lt; ValueType &gt;</text>
</g>
<!-- Node1 -->
<g id="node2" class="node">
<title>Node1</title>
<g id="a_node2"><a xlink:href="classthrill_1_1api_1_1ActionNode.html" target="_top" xlink:title="ActionNode">
<polygon fill="none" stroke="#000000" points="46,-56.5 46,-75.5 119,-75.5 119,-56.5 46,-56.5"/>
<text text-anchor="middle" x="82.5" y="-63.5" font-family="Helvetica,sans-Serif" font-size="10.00" fill="#000000">ActionNode</text>
</a>
</g>
</g>
<!-- Node1&#45;&gt;Node0 -->
<g id="edge1" class="edge">
<title>Node1&#45;&gt;Node0</title>
<path fill="none" stroke="#191970" d="M82.5,-46.1575C82.5,-37.155 82.5,-26.9199 82.5,-19.6427"/>
<polygon fill="#191970" stroke="#191970" points="79.0001,-46.2455 82.5,-56.2455 86.0001,-46.2456 79.0001,-46.2455"/>
</g>
<!-- Node2 -->
<g id="node3" class="node">
<title>Node2</title>
<g id="a_node3"><a xlink:href="classthrill_1_1api_1_1DIABase.html" target="_top" xlink:title="The DIABase is the untyped super class of DIANode. ">
<polygon fill="none" stroke="#000000" points="53.5,-112.5 53.5,-131.5 111.5,-131.5 111.5,-112.5 53.5,-112.5"/>
<text text-anchor="middle" x="82.5" y="-119.5" font-family="Helvetica,sans-Serif" font-size="10.00" fill="#000000">DIABase</text>
</a>
</g>
</g>
<!-- Node2&#45;&gt;Node1 -->
<g id="edge2" class="edge">
<title>Node2&#45;&gt;Node1</title>
<path fill="none" stroke="#191970" d="M82.5,-102.1575C82.5,-93.155 82.5,-82.9199 82.5,-75.6427"/>
<polygon fill="#191970" stroke="#191970" points="79.0001,-102.2455 82.5,-112.2455 86.0001,-102.2456 79.0001,-102.2455"/>
</g>
<!-- Node3 -->
<g id="node4" class="node">
<title>Node3</title>
<g id="a_node4"><a xlink:href="classtlx_1_1ReferenceCounter.html" target="_top" xlink:title="Provides reference counting abilities for use with CountingPtr. ">
<polygon fill="none" stroke="#000000" points="30.5,-168.5 30.5,-187.5 134.5,-187.5 134.5,-168.5 30.5,-168.5"/>
<text text-anchor="middle" x="82.5" y="-175.5" font-family="Helvetica,sans-Serif" font-size="10.00" fill="#000000">ReferenceCounter</text>
</a>
</g>
</g>
<!-- Node3&#45;&gt;Node2 -->
<g id="edge3" class="edge">
<title>Node3&#45;&gt;Node2</title>
<path fill="none" stroke="#191970" d="M82.5,-158.1575C82.5,-149.155 82.5,-138.9199 82.5,-131.6427"/>
<polygon fill="#191970" stroke="#191970" points="79.0001,-158.2455 82.5,-168.2455 86.0001,-158.2456 79.0001,-158.2455"/>
</g>
</g>
</svg>
