<?xml version="1.0" encoding="UTF-8" standalone="no"?>
<!DOCTYPE svg PUBLIC "-//W3C//DTD SVG 1.1//EN"
 "http://www.w3.org/Graphics/SVG/1.1/DTD/svg11.dtd">
<!-- Generated by graphviz version 2.40.1 (20161225.0304)
 -->
<!-- Title: SizeNode&lt; ValueType &gt; Pages: 1 -->
<svg width="241pt" height="334pt"
 viewBox="0.00 0.00 241.00 334.00" xmlns="http://www.w3.org/2000/svg" xmlns:xlink="http://www.w3.org/1999/xlink">
<g id="graph0" class="graph" transform="scale(1 1) rotate(0) translate(4 330)">
<title>SizeNode&lt; ValueType &gt;</title>
<!-- Node0 -->
<g id="node1" class="node">
<title>Node0</title>
<polygon fill="#bfbfbf" stroke="#000000" points="10,-.5 10,-19.5 144,-19.5 144,-.5 10,-.5"/>
<text text-anchor="middle" x="77" y="-7.5" font-family="Helvetica,sans-Serif" font-size="10.00" fill="#000000">SizeNode&lt; ValueType &gt;</text>
</g>
<!-- Node1 -->
<g id="node2" class="node">
<title>Node1</title>
<g id="a_node2"><a xlink:href="classthrill_1_1api_1_1ActionResultNode.html" target="_top" xlink:title="ActionResultNode\&lt; size_t \&gt;">
<polygon fill="none" stroke="#000000" points="0,-57.5 0,-76.5 154,-76.5 154,-57.5 0,-57.5"/>
<text text-anchor="middle" x="77" y="-64.5" font-family="Helvetica,sans-Serif" font-size="10.00" fill="#000000">ActionResultNode&lt; size_t &gt;</text>
</a>
</g>
</g>
<!-- Node1&#45;&gt;Node0 -->
<g id="edge1" class="edge">
<title>Node1&#45;&gt;Node0</title>
<path fill="none" stroke="#191970" d="M77,-47.2342C77,-37.8491 77,-27.0651 77,-19.5265"/>
<polygon fill="#191970" stroke="#191970" points="73.5001,-47.3307 77,-57.3307 80.5001,-47.3308 73.5001,-47.3307"/>
</g>
<!-- Node2 -->
<g id="node3" class="node">
<title>Node2</title>
<g id="a_node3"><a xlink:href="classthrill_1_1api_1_1ActionNode.html" target="_top" xlink:title="ActionNode">
<polygon fill="none" stroke="#000000" points="36.5,-192.5 36.5,-211.5 109.5,-211.5 109.5,-192.5 36.5,-192.5"/>
<text text-anchor="middle" x="73" y="-199.5" font-family="Helvetica,sans-Serif" font-size="10.00" fill="#000000">ActionNode</text>
</a>
</g>
</g>
<!-- Node2&#45;&gt;Node1 -->
<g id="edge2" class="edge">
<title>Node2&#45;&gt;Node1</title>
<path fill="none" stroke="#191970" d="M73.5933,-181.9756C74.4669,-152.4905 76.0659,-98.5249 76.7149,-76.6209"/>
<polygon fill="#191970" stroke="#191970" points="70.0855,-182.1918 73.2877,-192.2911 77.0824,-182.3992 70.0855,-182.1918"/>
</g>
<!-- Node5 -->
<g id="node6" class="node">
<title>Node5</title>
<g id="a_node6"><a xlink:href="classthrill_1_1api_1_1ActionResultNode.html" target="_top" xlink:title="ActionResultNode\&lt; Result\lType \&gt;">
<polygon fill="none" stroke="#000000" points="89,-124.5 89,-154.5 233,-154.5 233,-124.5 89,-124.5"/>
<text text-anchor="start" x="97" y="-142.5" font-family="Helvetica,sans-Serif" font-size="10.00" fill="#000000">ActionResultNode&lt; Result</text>
<text text-anchor="middle" x="161" y="-131.5" font-family="Helvetica,sans-Serif" font-size="10.00" fill="#000000">Type &gt;</text>
</a>
</g>
</g>
<!-- Node2&#45;&gt;Node5 -->
<g id="edge6" class="edge">
<title>Node2&#45;&gt;Node5</title>
<path fill="none" stroke="#191970" d="M95.12,-186.2898C108.8117,-176.5656 126.295,-164.1485 139.8098,-154.5498"/>
<polygon fill="#191970" stroke="#191970" points="92.8763,-183.5903 86.75,-192.2344 96.9296,-189.2974 92.8763,-183.5903"/>
</g>
<!-- Node3 -->
<g id="node4" class="node">
<title>Node3</title>
<g id="a_node4"><a xlink:href="classthrill_1_1api_1_1DIABase.html" target="_top" xlink:title="The DIABase is the untyped super class of DIANode. ">
<polygon fill="none" stroke="#000000" points="44,-249.5 44,-268.5 102,-268.5 102,-249.5 44,-249.5"/>
<text text-anchor="middle" x="73" y="-256.5" font-family="Helvetica,sans-Serif" font-size="10.00" fill="#000000">DIABase</text>
</a>
</g>
</g>
<!-- Node3&#45;&gt;Node2 -->
<g id="edge3" class="edge">
<title>Node3&#45;&gt;Node2</title>
<path fill="none" stroke="#191970" d="M73,-239.2342C73,-229.8491 73,-219.0651 73,-211.5265"/>
<polygon fill="#191970" stroke="#191970" points="69.5001,-239.3307 73,-249.3307 76.5001,-239.3308 69.5001,-239.3307"/>
</g>
<!-- Node4 -->
<g id="node5" class="node">
<title>Node4</title>
<g id="a_node5"><a xlink:href="classtlx_1_1ReferenceCounter.html" target="_top" xlink:title="Provides reference counting abilities for use with CountingPtr. ">
<polygon fill="none" stroke="#000000" points="21,-306.5 21,-325.5 125,-325.5 125,-306.5 21,-306.5"/>
<text text-anchor="middle" x="73" y="-313.5" font-family="Helvetica,sans-Serif" font-size="10.00" fill="#000000">ReferenceCounter</text>
</a>
</g>
</g>
<!-- Node4&#45;&gt;Node3 -->
<g id="edge4" class="edge">
<title>Node4&#45;&gt;Node3</title>
<path fill="none" stroke="#191970" d="M73,-296.2342C73,-286.8491 73,-276.0651 73,-268.5265"/>
<polygon fill="#191970" stroke="#191970" points="69.5001,-296.3307 73,-306.3307 76.5001,-296.3308 69.5001,-296.3307"/>
</g>
<!-- Node5&#45;&gt;Node1 -->
<g id="edge5" class="edge">
<title>Node5&#45;&gt;Node1</title>
<path fill="none" stroke="#ffa500" stroke-dasharray="5,2" d="M135.7738,-117.7274C120.0504,-104.1566 100.574,-87.3466 88.4653,-76.8957"/>
<polygon fill="#ffa500" stroke="#ffa500" points="133.738,-120.5937 143.5951,-124.478 138.3117,-115.2945 133.738,-120.5937"/>
<text text-anchor="middle" x="148.5" y="-98" font-family="Helvetica,sans-Serif" font-size="10.00" fill="#000000"> &lt; size_t &gt;</text>
</g>
</g>
</svg>
