<?xml version="1.0" encoding="UTF-8" standalone="no"?>
<!DOCTYPE svg PUBLIC "-//W3C//DTD SVG 1.1//EN"
 "http://www.w3.org/Graphics/SVG/1.1/DTD/svg11.dtd">
<!-- Generated by graphviz version 2.40.1 (20161225.0304)
 -->
<!-- Title: SimpleVector&lt; ValueType, Mode &gt; Pages: 1 -->
<svg width="554pt" height="769pt"
 viewBox="0.00 0.00 554.00 769.16" xmlns="http://www.w3.org/2000/svg" xmlns:xlink="http://www.w3.org/1999/xlink">
<g id="graph0" class="graph" transform="scale(1 1) rotate(0) translate(4 765.1622)">
<title>SimpleVector&lt; ValueType, Mode &gt;</title>
<!-- Node0 -->
<g id="node1" class="node">
<title>Node0</title>
<polygon fill="#bfbfbf" stroke="#000000" points="0,-381.1622 0,-411.1622 145,-411.1622 145,-381.1622 0,-381.1622"/>
<text text-anchor="start" x="8" y="-399.1622" font-family="Helvetica,sans-Serif" font-size="10.00" fill="#000000">SimpleVector&lt; ValueType,</text>
<text text-anchor="middle" x="72.5" y="-388.1622" font-family="Helvetica,sans-Serif" font-size="10.00" fill="#000000"> Mode &gt;</text>
</g>
<!-- Node1 -->
<g id="node2" class="node">
<title>Node1</title>
<g id="a_node2"><a xlink:href="classtlx_1_1SimpleVector.html" target="_top" xlink:title="SimpleVector\&lt; DiffType \&gt;">
<polygon fill="none" stroke="#000000" points="386.5,-720.6622 386.5,-739.6622 529.5,-739.6622 529.5,-720.6622 386.5,-720.6622"/>
<text text-anchor="middle" x="458" y="-727.6622" font-family="Helvetica,sans-Serif" font-size="10.00" fill="#000000">SimpleVector&lt; DiffType &gt;</text>
</a>
</g>
</g>
<!-- Node0&#45;&gt;Node1 -->
<g id="edge1" class="edge">
<title>Node0&#45;&gt;Node1</title>
<path fill="none" stroke="#ffa500" stroke-dasharray="5,2" d="M76.1667,-421.416C86.4746,-488.6549 117.9258,-669.4158 163,-706.1622 236.2812,-765.9041 356.6181,-752.1654 418.511,-739.7118"/>
<polygon fill="#ffa500" stroke="#ffa500" points="79.5916,-420.6545 74.643,-411.2863 72.6695,-421.6957 79.5916,-420.6545"/>
<text text-anchor="middle" x="257.5" y="-753.1622" font-family="Helvetica,sans-Serif" font-size="10.00" fill="#000000"> &lt; DiffType &gt;</text>
</g>
<!-- Node2 -->
<g id="node3" class="node">
<title>Node2</title>
<g id="a_node3"><a xlink:href="classtlx_1_1SimpleVector.html" target="_top" xlink:title="SimpleVector\&lt; tlx::\lLoserTreePointerUnguardedBase\l::Loser \&gt;">
<polygon fill="none" stroke="#000000" points="370.5,-660.6622 370.5,-701.6622 545.5,-701.6622 545.5,-660.6622 370.5,-660.6622"/>
<text text-anchor="start" x="378.5" y="-689.6622" font-family="Helvetica,sans-Serif" font-size="10.00" fill="#000000">SimpleVector&lt; tlx::</text>
<text text-anchor="start" x="378.5" y="-678.6622" font-family="Helvetica,sans-Serif" font-size="10.00" fill="#000000">LoserTreePointerUnguardedBase</text>
<text text-anchor="middle" x="458" y="-667.6622" font-family="Helvetica,sans-Serif" font-size="10.00" fill="#000000">::Loser &gt;</text>
</a>
</g>
</g>
<!-- Node0&#45;&gt;Node2 -->
<g id="edge2" class="edge">
<title>Node0&#45;&gt;Node2</title>
<path fill="none" stroke="#ffa500" stroke-dasharray="5,2" d="M77.8648,-420.9447C90.9049,-478.7718 125.9277,-619.9324 163,-649.1622 194.2506,-673.8019 295.2289,-680.3561 370.389,-681.68"/>
<polygon fill="#ffa500" stroke="#ffa500" points="81.2769,-420.1648 75.6902,-411.1627 74.4437,-421.6839 81.2769,-420.1648"/>
<text text-anchor="start" x="173.5" y="-694.1622" font-family="Helvetica,sans-Serif" font-size="10.00" fill="#000000"> &lt; tlx::LoserTreePointerUnguarded</text>
<text text-anchor="middle" x="257.5" y="-683.1622" font-family="Helvetica,sans-Serif" font-size="10.00" fill="#000000">Base::Loser &gt;</text>
</g>
<!-- Node3 -->
<g id="node4" class="node">
<title>Node3</title>
<g id="a_node4"><a xlink:href="classtlx_1_1SimpleVector.html" target="_top" xlink:title="SimpleVector\&lt; tlx::\lLoserTreeCopyUnguardedBase\l::Loser \&gt;">
<polygon fill="none" stroke="#000000" points="375.5,-600.6622 375.5,-641.6622 540.5,-641.6622 540.5,-600.6622 375.5,-600.6622"/>
<text text-anchor="start" x="383.5" y="-629.6622" font-family="Helvetica,sans-Serif" font-size="10.00" fill="#000000">SimpleVector&lt; tlx::</text>
<text text-anchor="start" x="383.5" y="-618.6622" font-family="Helvetica,sans-Serif" font-size="10.00" fill="#000000">LoserTreeCopyUnguardedBase</text>
<text text-anchor="middle" x="458" y="-607.6622" font-family="Helvetica,sans-Serif" font-size="10.00" fill="#000000">::Loser &gt;</text>
</a>
</g>
</g>
<!-- Node0&#45;&gt;Node3 -->
<g id="edge3" class="edge">
<title>Node0&#45;&gt;Node3</title>
<path fill="none" stroke="#ffa500" stroke-dasharray="5,2" d="M75.7142,-421.2379C82.7811,-464.97 104.037,-554.4934 163,-596.1622 196.0554,-619.5223 300.0986,-623.6013 375.2694,-623.282"/>
<polygon fill="#ffa500" stroke="#ffa500" points="79.1483,-420.5362 74.2089,-411.1632 72.2251,-421.5706 79.1483,-420.5362"/>
<text text-anchor="start" x="178.5" y="-637.1622" font-family="Helvetica,sans-Serif" font-size="10.00" fill="#000000"> &lt; tlx::LoserTreeCopyUnguarded</text>
<text text-anchor="middle" x="257.5" y="-626.1622" font-family="Helvetica,sans-Serif" font-size="10.00" fill="#000000">Base::Loser &gt;</text>
</g>
<!-- Node4 -->
<g id="node5" class="node">
<title>Node4</title>
<g id="a_node5"><a xlink:href="classtlx_1_1SimpleVector.html" target="_top" xlink:title="SimpleVector\&lt; block\l_type::raw_size \&gt;">
<polygon fill="none" stroke="#000000" points="398.5,-551.1622 398.5,-581.1622 517.5,-581.1622 517.5,-551.1622 398.5,-551.1622"/>
<text text-anchor="start" x="406.5" y="-569.1622" font-family="Helvetica,sans-Serif" font-size="10.00" fill="#000000">SimpleVector&lt; block</text>
<text text-anchor="middle" x="458" y="-558.1622" font-family="Helvetica,sans-Serif" font-size="10.00" fill="#000000">_type::raw_size &gt;</text>
</a>
</g>
</g>
<!-- Node0&#45;&gt;Node4 -->
<g id="edge4" class="edge">
<title>Node0&#45;&gt;Node4</title>
<path fill="none" stroke="#ffa500" stroke-dasharray="5,2" d="M79.7396,-420.9202C91.2117,-455.2227 117.1101,-516.14 163,-544.1622 234.6647,-587.9235 335.12,-584.7604 398.3582,-576.7612"/>
<polygon fill="#ffa500" stroke="#ffa500" points="83.0107,-419.6577 76.6363,-411.1949 76.342,-421.7857 83.0107,-419.6577"/>
<text text-anchor="middle" x="257.5" y="-584.1622" font-family="Helvetica,sans-Serif" font-size="10.00" fill="#000000"> &lt; block_type::raw_size &gt;</text>
</g>
<!-- Node5 -->
<g id="node6" class="node">
<title>Node5</title>
<g id="a_node6"><a xlink:href="classtlx_1_1SimpleVector.html" target="_top" xlink:title="SimpleVector\&lt; uint8_t \&gt;">
<polygon fill="none" stroke="#000000" points="389.5,-512.6622 389.5,-531.6622 526.5,-531.6622 526.5,-512.6622 389.5,-512.6622"/>
<text text-anchor="middle" x="458" y="-519.6622" font-family="Helvetica,sans-Serif" font-size="10.00" fill="#000000">SimpleVector&lt; uint8_t &gt;</text>
</a>
</g>
</g>
<!-- Node0&#45;&gt;Node5 -->
<g id="edge5" class="edge">
<title>Node0&#45;&gt;Node5</title>
<path fill="none" stroke="#ffa500" stroke-dasharray="5,2" d="M85.8708,-420.122C101.0462,-444.7213 128.2663,-481.7862 163,-499.1622 234.096,-534.7289 327.0343,-535.7005 389.4286,-530.9054"/>
<polygon fill="#ffa500" stroke="#ffa500" points="88.781,-418.1685 80.6538,-411.3714 82.7685,-421.7531 88.781,-418.1685"/>
<text text-anchor="middle" x="257.5" y="-535.1622" font-family="Helvetica,sans-Serif" font-size="10.00" fill="#000000"> &lt; uint8_t &gt;</text>
</g>
<!-- Node6 -->
<g id="node7" class="node">
<title>Node6</title>
<g id="a_node7"><a xlink:href="classtlx_1_1SimpleVector.html" target="_top" xlink:title="SimpleVector\&lt; tlx::\lLoserTreeCopyBase::Loser \&gt;">
<polygon fill="none" stroke="#000000" points="380.5,-463.1622 380.5,-493.1622 535.5,-493.1622 535.5,-463.1622 380.5,-463.1622"/>
<text text-anchor="start" x="388.5" y="-481.1622" font-family="Helvetica,sans-Serif" font-size="10.00" fill="#000000">SimpleVector&lt; tlx::</text>
<text text-anchor="middle" x="458" y="-470.1622" font-family="Helvetica,sans-Serif" font-size="10.00" fill="#000000">LoserTreeCopyBase::Loser &gt;</text>
</a>
</g>
</g>
<!-- Node0&#45;&gt;Node6 -->
<g id="edge6" class="edge">
<title>Node0&#45;&gt;Node6</title>
<path fill="none" stroke="#ffa500" stroke-dasharray="5,2" d="M105.2905,-416.3376C121.9826,-425.6832 142.9428,-436.049 163,-442.1622 234.6863,-464.0114 319.9928,-472.6561 380.3863,-476.0466"/>
<polygon fill="#ffa500" stroke="#ffa500" points="106.904,-413.2282 96.489,-411.2841 103.4184,-419.2987 106.904,-413.2282"/>
<text text-anchor="start" x="193" y="-487.1622" font-family="Helvetica,sans-Serif" font-size="10.00" fill="#000000"> &lt; tlx::LoserTreeCopyBase</text>
<text text-anchor="middle" x="257.5" y="-476.1622" font-family="Helvetica,sans-Serif" font-size="10.00" fill="#000000">::Loser &gt;</text>
</g>
<!-- Node7 -->
<g id="node8" class="node">
<title>Node7</title>
<g id="a_node8"><a xlink:href="classtlx_1_1SimpleVector.html" target="_top" xlink:title="SimpleVector\&lt; ValueType \&gt;">
<polygon fill="none" stroke="#000000" points="381.5,-424.6622 381.5,-443.6622 534.5,-443.6622 534.5,-424.6622 381.5,-424.6622"/>
<text text-anchor="middle" x="458" y="-431.6622" font-family="Helvetica,sans-Serif" font-size="10.00" fill="#000000">SimpleVector&lt; ValueType &gt;</text>
</a>
</g>
</g>
<!-- Node0&#45;&gt;Node7 -->
<g id="edge7" class="edge">
<title>Node0&#45;&gt;Node7</title>
<path fill="none" stroke="#ffa500" stroke-dasharray="5,2" d="M154.942,-410.133C157.6578,-410.4953 160.3494,-410.8398 163,-411.1622 236.9426,-420.1555 321.7629,-426.3398 381.4164,-430.012"/>
<polygon fill="#ffa500" stroke="#ffa500" points="155.4201,-406.6659 145.0324,-408.7508 154.453,-413.5988 155.4201,-406.6659"/>
<text text-anchor="middle" x="257.5" y="-430.1622" font-family="Helvetica,sans-Serif" font-size="10.00" fill="#000000"> &lt; ValueType &gt;</text>
</g>
<!-- Node8 -->
<g id="node9" class="node">
<title>Node8</title>
<g id="a_node9"><a xlink:href="classtlx_1_1SimpleVector.html" target="_top" xlink:title="SimpleVector\&lt; ValueType *\&gt;">
<polygon fill="none" stroke="#000000" points="379,-386.6622 379,-405.6622 537,-405.6622 537,-386.6622 379,-386.6622"/>
<text text-anchor="middle" x="458" y="-393.6622" font-family="Helvetica,sans-Serif" font-size="10.00" fill="#000000">SimpleVector&lt; ValueType *&gt;</text>
</a>
</g>
</g>
<!-- Node0&#45;&gt;Node8 -->
<g id="edge8" class="edge">
<title>Node0&#45;&gt;Node8</title>
<path fill="none" stroke="#ffa500" stroke-dasharray="5,2" d="M155.3993,-396.1622C221.5726,-396.1622 313.6763,-396.1622 378.845,-396.1622"/>
<polygon fill="#ffa500" stroke="#ffa500" points="155.0096,-392.6623 145.0096,-396.1622 155.0096,-399.6623 155.0096,-392.6623"/>
<text text-anchor="middle" x="257.5" y="-399.1622" font-family="Helvetica,sans-Serif" font-size="10.00" fill="#000000"> &lt; ValueType *&gt;</text>
</g>
<!-- Node9 -->
<g id="node10" class="node">
<title>Node9</title>
<g id="a_node10"><a xlink:href="classtlx_1_1SimpleVector.html" target="_top" xlink:title="SimpleVector\&lt; tlx::\lLoserTreePointerBase\l::Loser \&gt;">
<polygon fill="none" stroke="#000000" points="397,-326.6622 397,-367.6622 519,-367.6622 519,-326.6622 397,-326.6622"/>
<text text-anchor="start" x="405" y="-355.6622" font-family="Helvetica,sans-Serif" font-size="10.00" fill="#000000">SimpleVector&lt; tlx::</text>
<text text-anchor="start" x="405" y="-344.6622" font-family="Helvetica,sans-Serif" font-size="10.00" fill="#000000">LoserTreePointerBase</text>
<text text-anchor="middle" x="458" y="-333.6622" font-family="Helvetica,sans-Serif" font-size="10.00" fill="#000000">::Loser &gt;</text>
</a>
</g>
</g>
<!-- Node0&#45;&gt;Node9 -->
<g id="edge9" class="edge">
<title>Node0&#45;&gt;Node9</title>
<path fill="none" stroke="#ffa500" stroke-dasharray="5,2" d="M128.0079,-378.3071C139.4779,-375.1581 151.5532,-372.2308 163,-370.1622 242.9984,-355.7054 336.8199,-350.3331 396.8051,-348.3381"/>
<polygon fill="#ffa500" stroke="#ffa500" points="126.7791,-375.0175 118.1149,-381.1153 128.6906,-381.7515 126.7791,-375.0175"/>
<text text-anchor="start" x="188" y="-384.1622" font-family="Helvetica,sans-Serif" font-size="10.00" fill="#000000"> &lt; tlx::LoserTreePointerBase</text>
<text text-anchor="middle" x="257.5" y="-373.1622" font-family="Helvetica,sans-Serif" font-size="10.00" fill="#000000">::Loser &gt;</text>
</g>
<!-- Node10 -->
<g id="node11" class="node">
<title>Node10</title>
<g id="a_node11"><a xlink:href="classtlx_1_1SimpleVector.html" target="_top" xlink:title="SimpleVector\&lt; tlx::\lSimpleVector\&lt; size_t \&gt; \&gt;">
<polygon fill="none" stroke="#000000" points="386.5,-277.1622 386.5,-307.1622 529.5,-307.1622 529.5,-277.1622 386.5,-277.1622"/>
<text text-anchor="start" x="394.5" y="-295.1622" font-family="Helvetica,sans-Serif" font-size="10.00" fill="#000000">SimpleVector&lt; tlx::</text>
<text text-anchor="middle" x="458" y="-284.1622" font-family="Helvetica,sans-Serif" font-size="10.00" fill="#000000">SimpleVector&lt; size_t &gt; &gt;</text>
</a>
</g>
</g>
<!-- Node0&#45;&gt;Node10 -->
<g id="edge10" class="edge">
<title>Node0&#45;&gt;Node10</title>
<path fill="none" stroke="#ffa500" stroke-dasharray="5,2" d="M93.3604,-373.7721C110.3749,-357.0656 135.9464,-335.2842 163,-324.1622 235.0653,-294.5355 324.9505,-288.7467 386.4432,-288.9698"/>
<polygon fill="#ffa500" stroke="#ffa500" points="90.7188,-371.4655 86.1704,-381.0344 95.6933,-376.3904 90.7188,-371.4655"/>
<text text-anchor="start" x="208.5" y="-338.1622" font-family="Helvetica,sans-Serif" font-size="10.00" fill="#000000"> &lt; tlx::SimpleVector</text>
<text text-anchor="middle" x="257.5" y="-327.1622" font-family="Helvetica,sans-Serif" font-size="10.00" fill="#000000">&lt; size_t &gt; &gt;</text>
</g>
<!-- Node11 -->
<g id="node12" class="node">
<title>Node11</title>
<g id="a_node12"><a xlink:href="classtlx_1_1SimpleVector.html" target="_top" xlink:title="SimpleVector\&lt; foxxll\l::disk_block_allocator *\&gt;">
<polygon fill="none" stroke="#000000" points="388.5,-228.1622 388.5,-258.1622 527.5,-258.1622 527.5,-228.1622 388.5,-228.1622"/>
<text text-anchor="start" x="396.5" y="-246.1622" font-family="Helvetica,sans-Serif" font-size="10.00" fill="#000000">SimpleVector&lt; foxxll</text>
<text text-anchor="middle" x="458" y="-235.1622" font-family="Helvetica,sans-Serif" font-size="10.00" fill="#000000">::disk_block_allocator *&gt;</text>
</a>
</g>
</g>
<!-- Node0&#45;&gt;Node11 -->
<g id="edge11" class="edge">
<title>Node0&#45;&gt;Node11</title>
<path fill="none" stroke="#ffa500" stroke-dasharray="5,2" d="M81.397,-371.4876C94.1354,-340.1797 120.8025,-287.351 163,-263.1622 231.9176,-223.6566 325.3111,-224.6045 388.4063,-231.5339"/>
<polygon fill="#ffa500" stroke="#ffa500" points="78.1251,-370.2446 77.7486,-380.8328 84.6457,-372.7904 78.1251,-370.2446"/>
<text text-anchor="start" x="207.5" y="-277.1622" font-family="Helvetica,sans-Serif" font-size="10.00" fill="#000000"> &lt; foxxll::disk_block</text>
<text text-anchor="middle" x="257.5" y="-266.1622" font-family="Helvetica,sans-Serif" font-size="10.00" fill="#000000">_allocator *&gt;</text>
</g>
<!-- Node12 -->
<g id="node13" class="node">
<title>Node12</title>
<g id="a_node13"><a xlink:href="classtlx_1_1SimpleVector.html" target="_top" xlink:title="SimpleVector\&lt; tlx::\lCountingPtr \&gt;">
<polygon fill="none" stroke="#000000" points="402.5,-179.1622 402.5,-209.1622 513.5,-209.1622 513.5,-179.1622 402.5,-179.1622"/>
<text text-anchor="start" x="410.5" y="-197.1622" font-family="Helvetica,sans-Serif" font-size="10.00" fill="#000000">SimpleVector&lt; tlx::</text>
<text text-anchor="middle" x="458" y="-186.1622" font-family="Helvetica,sans-Serif" font-size="10.00" fill="#000000">CountingPtr &gt;</text>
</a>
</g>
</g>
<!-- Node0&#45;&gt;Node12 -->
<g id="edge12" class="edge">
<title>Node0&#45;&gt;Node12</title>
<path fill="none" stroke="#ffa500" stroke-dasharray="5,2" d="M76.689,-370.8749C84.9973,-329.6613 107.7779,-248.9222 163,-212.1622 234.5434,-164.5375 338.7563,-171.5283 402.2596,-182.0534"/>
<polygon fill="#ffa500" stroke="#ffa500" points="73.2091,-370.4418 74.7955,-380.9172 80.0879,-371.7388 73.2091,-370.4418"/>
<text text-anchor="middle" x="257.5" y="-215.1622" font-family="Helvetica,sans-Serif" font-size="10.00" fill="#000000"> &lt; tlx::CountingPtr &gt;</text>
</g>
<!-- Node13 -->
<g id="node14" class="node">
<title>Node13</title>
<g id="a_node14"><a xlink:href="classtlx_1_1SimpleVector.html" target="_top" xlink:title="SimpleVector\&lt; tlx::\lSimpleVector\&lt; tlx::parallel\l_mergesort_detail::PMWMSPiece\l\&lt; DiffType \&gt; \&gt; \&gt;">
<polygon fill="none" stroke="#000000" points="370,-108.1622 370,-160.1622 546,-160.1622 546,-108.1622 370,-108.1622"/>
<text text-anchor="start" x="378" y="-148.1622" font-family="Helvetica,sans-Serif" font-size="10.00" fill="#000000">SimpleVector&lt; tlx::</text>
<text text-anchor="start" x="378" y="-137.1622" font-family="Helvetica,sans-Serif" font-size="10.00" fill="#000000">SimpleVector&lt; tlx::parallel</text>
<text text-anchor="start" x="378" y="-126.1622" font-family="Helvetica,sans-Serif" font-size="10.00" fill="#000000">_mergesort_detail::PMWMSPiece</text>
<text text-anchor="middle" x="458" y="-115.1622" font-family="Helvetica,sans-Serif" font-size="10.00" fill="#000000">&lt; DiffType &gt; &gt; &gt;</text>
</a>
</g>
</g>
<!-- Node0&#45;&gt;Node13 -->
<g id="edge13" class="edge">
<title>Node0&#45;&gt;Node13</title>
<path fill="none" stroke="#ffa500" stroke-dasharray="5,2" d="M77.5032,-370.9678C89.8717,-311.5086 123.7446,-165.3296 163,-137.1622 222.0912,-94.7617 306.3932,-98.4762 369.7566,-110.1926"/>
<polygon fill="#ffa500" stroke="#ffa500" points="74.0236,-370.5142 75.4476,-381.0129 80.8814,-371.9177 74.0236,-370.5142"/>
<text text-anchor="start" x="163" y="-162.1622" font-family="Helvetica,sans-Serif" font-size="10.00" fill="#000000"> &lt; tlx::SimpleVector</text>
<text text-anchor="start" x="163" y="-151.1622" font-family="Helvetica,sans-Serif" font-size="10.00" fill="#000000">&lt; tlx::parallel_mergesort</text>
<text text-anchor="middle" x="257.5" y="-140.1622" font-family="Helvetica,sans-Serif" font-size="10.00" fill="#000000">_detail::PMWMSPiece&lt; DiffType &gt; &gt; &gt;</text>
</g>
<!-- Node14 -->
<g id="node15" class="node">
<title>Node14</title>
<g id="a_node15"><a xlink:href="classtlx_1_1SimpleVector.html" target="_top" xlink:title="SimpleVector\&lt; tlx::\lSimpleVector\&lt; uint16_t \&gt; \&gt;">
<polygon fill="none" stroke="#000000" points="380.5,-59.1622 380.5,-89.1622 535.5,-89.1622 535.5,-59.1622 380.5,-59.1622"/>
<text text-anchor="start" x="388.5" y="-77.1622" font-family="Helvetica,sans-Serif" font-size="10.00" fill="#000000">SimpleVector&lt; tlx::</text>
<text text-anchor="middle" x="458" y="-66.1622" font-family="Helvetica,sans-Serif" font-size="10.00" fill="#000000">SimpleVector&lt; uint16_t &gt; &gt;</text>
</a>
</g>
</g>
<!-- Node0&#45;&gt;Node14 -->
<g id="edge14" class="edge">
<title>Node0&#45;&gt;Node14</title>
<path fill="none" stroke="#ffa500" stroke-dasharray="5,2" d="M75.7657,-370.8213C85.2427,-301.6977 115.1545,-112.6087 163,-76.1622 195.8484,-51.1399 304.3574,-56.8463 380.1798,-64.4981"/>
<polygon fill="#ffa500" stroke="#ffa500" points="72.282,-370.4667 74.4206,-380.8434 79.2198,-371.3979 72.282,-370.4667"/>
<text text-anchor="start" x="208.5" y="-90.1622" font-family="Helvetica,sans-Serif" font-size="10.00" fill="#000000"> &lt; tlx::SimpleVector</text>
<text text-anchor="middle" x="257.5" y="-79.1622" font-family="Helvetica,sans-Serif" font-size="10.00" fill="#000000">&lt; uint16_t &gt; &gt;</text>
</g>
<!-- Node15 -->
<g id="node16" class="node">
<title>Node15</title>
<g id="a_node16"><a xlink:href="classtlx_1_1SimpleVector.html" target="_top" xlink:title="SimpleVector\&lt; std::\lthread \&gt;">
<polygon fill="none" stroke="#000000" points="401.5,-10.1622 401.5,-40.1622 514.5,-40.1622 514.5,-10.1622 401.5,-10.1622"/>
<text text-anchor="start" x="409.5" y="-28.1622" font-family="Helvetica,sans-Serif" font-size="10.00" fill="#000000">SimpleVector&lt; std::</text>
<text text-anchor="middle" x="458" y="-17.1622" font-family="Helvetica,sans-Serif" font-size="10.00" fill="#000000">thread &gt;</text>
</a>
</g>
</g>
<!-- Node0&#45;&gt;Node15 -->
<g id="edge15" class="edge">
<title>Node0&#45;&gt;Node15</title>
<path fill="none" stroke="#ffa500" stroke-dasharray="5,2" d="M75.173,-370.8853C83.5122,-297.2774 111.6154,-85.605 163,-43.1622 229.5605,11.8156 336.0546,2.3027 401.2409,-10.6784"/>
<polygon fill="#ffa500" stroke="#ffa500" points="71.6651,-370.7639 74.0445,-381.0881 78.6227,-371.5335 71.6651,-370.7639"/>
<text text-anchor="middle" x="257.5" y="-46.1622" font-family="Helvetica,sans-Serif" font-size="10.00" fill="#000000"> &lt; std::thread &gt;</text>
</g>
</g>
</svg>
