<?xml version="1.0" encoding="UTF-8" standalone="no"?>
<!DOCTYPE svg PUBLIC "-//W3C//DTD SVG 1.1//EN"
 "http://www.w3.org/Graphics/SVG/1.1/DTD/svg11.dtd">
<!-- Generated by graphviz version 2.40.1 (20161225.0304)
 -->
<!-- Title: ReduceToIndexNode&lt; ValueType, KeyExtractor, ReduceFunction, ReduceConfig, VolatileKey, SkipPreReducePhase &gt; Pages: 1 -->
<svg width="201pt" height="285pt"
 viewBox="0.00 0.00 201.00 285.00" xmlns="http://www.w3.org/2000/svg" xmlns:xlink="http://www.w3.org/1999/xlink">
<g id="graph0" class="graph" transform="scale(1 1) rotate(0) translate(4 281)">
<title>ReduceToIndexNode&lt; ValueType, KeyExtractor, ReduceFunction, ReduceConfig, VolatileKey, SkipPreReducePhase &gt;</title>
<!-- Node0 -->
<g id="node1" class="node">
<title>Node0</title>
<polygon fill="#bfbfbf" stroke="#000000" points="0,-.5 0,-52.5 193,-52.5 193,-.5 0,-.5"/>
<text text-anchor="start" x="8" y="-40.5" font-family="Helvetica,sans-Serif" font-size="10.00" fill="#000000">ReduceToIndexNode&lt;</text>
<text text-anchor="start" x="8" y="-29.5" font-family="Helvetica,sans-Serif" font-size="10.00" fill="#000000"> ValueType, KeyExtractor,</text>
<text text-anchor="start" x="8" y="-18.5" font-family="Helvetica,sans-Serif" font-size="10.00" fill="#000000"> ReduceFunction, ReduceConfig,</text>
<text text-anchor="middle" x="96.5" y="-7.5" font-family="Helvetica,sans-Serif" font-size="10.00" fill="#000000"> VolatileKey, SkipPreReducePhase &gt;</text>
</g>
<!-- Node1 -->
<g id="node2" class="node">
<title>Node1</title>
<g id="a_node2"><a xlink:href="classthrill_1_1api_1_1DOpNode.html" target="_top" xlink:title="A DOpNode is a typed node representing and distributed operations in Thrill. ">
<polygon fill="none" stroke="#000000" points="29,-89.5 29,-108.5 164,-108.5 164,-89.5 29,-89.5"/>
<text text-anchor="middle" x="96.5" y="-96.5" font-family="Helvetica,sans-Serif" font-size="10.00" fill="#000000">DOpNode&lt; ValueType &gt;</text>
</a>
</g>
</g>
<!-- Node1&#45;&gt;Node0 -->
<g id="edge1" class="edge">
<title>Node1&#45;&gt;Node0</title>
<path fill="none" stroke="#191970" d="M96.5,-79.1515C96.5,-70.9677 96.5,-61.3707 96.5,-52.6277"/>
<polygon fill="#191970" stroke="#191970" points="93.0001,-79.2223 96.5,-89.2223 100.0001,-79.2224 93.0001,-79.2223"/>
</g>
<!-- Node2 -->
<g id="node3" class="node">
<title>Node2</title>
<g id="a_node3"><a xlink:href="classthrill_1_1api_1_1DIANode.html" target="_top" xlink:title="A DIANode is a typed node representing and operation in Thrill. ">
<polygon fill="none" stroke="#000000" points="31,-145.5 31,-164.5 162,-164.5 162,-145.5 31,-145.5"/>
<text text-anchor="middle" x="96.5" y="-152.5" font-family="Helvetica,sans-Serif" font-size="10.00" fill="#000000">DIANode&lt; ValueType &gt;</text>
</a>
</g>
</g>
<!-- Node2&#45;&gt;Node1 -->
<g id="edge2" class="edge">
<title>Node2&#45;&gt;Node1</title>
<path fill="none" stroke="#191970" d="M96.5,-135.1575C96.5,-126.155 96.5,-115.9199 96.5,-108.6427"/>
<polygon fill="#191970" stroke="#191970" points="93.0001,-135.2455 96.5,-145.2455 100.0001,-135.2456 93.0001,-135.2455"/>
</g>
<!-- Node3 -->
<g id="node4" class="node">
<title>Node3</title>
<g id="a_node4"><a xlink:href="classthrill_1_1api_1_1DIABase.html" target="_top" xlink:title="The DIABase is the untyped super class of DIANode. ">
<polygon fill="none" stroke="#000000" points="67.5,-201.5 67.5,-220.5 125.5,-220.5 125.5,-201.5 67.5,-201.5"/>
<text text-anchor="middle" x="96.5" y="-208.5" font-family="Helvetica,sans-Serif" font-size="10.00" fill="#000000">DIABase</text>
</a>
</g>
</g>
<!-- Node3&#45;&gt;Node2 -->
<g id="edge3" class="edge">
<title>Node3&#45;&gt;Node2</title>
<path fill="none" stroke="#191970" d="M96.5,-191.1575C96.5,-182.155 96.5,-171.9199 96.5,-164.6427"/>
<polygon fill="#191970" stroke="#191970" points="93.0001,-191.2455 96.5,-201.2455 100.0001,-191.2456 93.0001,-191.2455"/>
</g>
<!-- Node4 -->
<g id="node5" class="node">
<title>Node4</title>
<g id="a_node5"><a xlink:href="classtlx_1_1ReferenceCounter.html" target="_top" xlink:title="Provides reference counting abilities for use with CountingPtr. ">
<polygon fill="none" stroke="#000000" points="44.5,-257.5 44.5,-276.5 148.5,-276.5 148.5,-257.5 44.5,-257.5"/>
<text text-anchor="middle" x="96.5" y="-264.5" font-family="Helvetica,sans-Serif" font-size="10.00" fill="#000000">ReferenceCounter</text>
</a>
</g>
</g>
<!-- Node4&#45;&gt;Node3 -->
<g id="edge4" class="edge">
<title>Node4&#45;&gt;Node3</title>
<path fill="none" stroke="#191970" d="M96.5,-247.1575C96.5,-238.155 96.5,-227.9199 96.5,-220.6427"/>
<polygon fill="#191970" stroke="#191970" points="93.0001,-247.2455 96.5,-257.2455 100.0001,-247.2456 93.0001,-247.2455"/>
</g>
</g>
</svg>
