<?xml version="1.0" encoding="UTF-8" standalone="no"?>
<!DOCTYPE svg PUBLIC "-//W3C//DTD SVG 1.1//EN"
 "http://www.w3.org/Graphics/SVG/1.1/DTD/svg11.dtd">
<!-- Generated by graphviz version 2.36.0 (20140111.2315)
 -->
<!-- Title: ReadLinesNode::InputLineIterator Pages: 1 -->
<svg width="321pt" height="96pt"
 viewBox="0.00 0.00 321.00 96.00" xmlns="http://www.w3.org/2000/svg" xmlns:xlink="http://www.w3.org/1999/xlink">
<g id="graph0" class="graph" transform="scale(1 1) rotate(0) translate(4 92)">
<title>ReadLinesNode::InputLineIterator</title>
<!-- Node1 -->
<g id="node1" class="node"><title>Node1</title>
<polygon fill="#bfbfbf" stroke="black" points="88,-57 88,-87 220,-87 220,-57 88,-57"/>
<text text-anchor="start" x="96" y="-75" font-family="Helvetica,sans-Serif" font-size="10.00">ReadLinesNode::InputLine</text>
<text text-anchor="middle" x="154" y="-64" font-family="Helvetica,sans-Serif" font-size="10.00">Iterator</text>
</g>
<!-- Node2 -->
<g id="node2" class="node"><title>Node2</title>
<g id="a_node2"><a xlink:href="classthrill_1_1api_1_1ReadLinesNode_1_1InputLineIteratorCompressed.html" target="_top" xlink:title="InputLineIterator gives you access to lines of a file. ">
<polygon fill="none" stroke="black" points="-0.5,-0.5 -0.5,-19.5 142.5,-19.5 142.5,-0.5 -0.5,-0.5"/>
<text text-anchor="middle" x="71" y="-7.5" font-family="Helvetica,sans-Serif" font-size="10.00">InputLineIteratorCompressed</text>
</a>
</g>
</g>
<!-- Node1&#45;&gt;Node2 -->
<g id="edge1" class="edge"><title>Node1&#45;&gt;Node2</title>
<path fill="none" stroke="midnightblue" d="M126.077,-50.8148C111.456,-40.245 94.3071,-27.8485 83.0772,-19.7305"/>
<polygon fill="midnightblue" stroke="midnightblue" points="124.175,-53.7588 134.33,-56.7808 128.276,-48.0858 124.175,-53.7588"/>
</g>
<!-- Node3 -->
<g id="node3" class="node"><title>Node3</title>
<g id="a_node3"><a xlink:href="classthrill_1_1api_1_1ReadLinesNode_1_1InputLineIteratorUncompressed.html" target="_top" xlink:title="InputLineIterator gives you access to lines of a file. ">
<polygon fill="none" stroke="black" points="160.5,-0.5 160.5,-19.5 313.5,-19.5 313.5,-0.5 160.5,-0.5"/>
<text text-anchor="middle" x="237" y="-7.5" font-family="Helvetica,sans-Serif" font-size="10.00">InputLineIteratorUncompressed</text>
</a>
</g>
</g>
<!-- Node1&#45;&gt;Node3 -->
<g id="edge2" class="edge"><title>Node1&#45;&gt;Node3</title>
<path fill="none" stroke="midnightblue" d="M181.923,-50.8148C196.544,-40.245 213.693,-27.8485 224.923,-19.7305"/>
<polygon fill="midnightblue" stroke="midnightblue" points="179.724,-48.0858 173.67,-56.7808 183.825,-53.7588 179.724,-48.0858"/>
</g>
</g>
</svg>
