<?xml version="1.0" encoding="UTF-8" standalone="no"?>
<!DOCTYPE svg PUBLIC "-//W3C//DTD SVG 1.1//EN"
 "http://www.w3.org/Graphics/SVG/1.1/DTD/svg11.dtd">
<!-- Generated by graphviz version 2.36.0 (20140111.2315)
 -->
<!-- Title: ThreadPool Pages: 1 -->
<svg width="284pt" height="188pt"
 viewBox="0.00 0.00 284.00 188.00" xmlns="http://www.w3.org/2000/svg" xmlns:xlink="http://www.w3.org/1999/xlink">
<g id="graph0" class="graph" transform="scale(1 1) rotate(0) translate(4 184)">
<title>ThreadPool</title>
<!-- Node1 -->
<g id="node1" class="node"><title>Node1</title>
<polygon fill="#bfbfbf" stroke="black" points="110,-0.5 110,-19.5 176,-19.5 176,-0.5 110,-0.5"/>
<text text-anchor="middle" x="143" y="-7.5" font-family="Helvetica,sans-Serif" font-size="10.00">ThreadPool</text>
</g>
<!-- Node2 -->
<g id="node2" class="node"><title>Node2</title>
<g id="a_node2"><a xlink:href="classtlx_1_1Delegate.html" target="_top" xlink:title="Delegate\&lt; void(size_t)\&gt;">
<polygon fill="none" stroke="black" points="5.5,-74.5 5.5,-93.5 126.5,-93.5 126.5,-74.5 5.5,-74.5"/>
<text text-anchor="middle" x="66" y="-81.5" font-family="Helvetica,sans-Serif" font-size="10.00">Delegate&lt; void(size_t)&gt;</text>
</a>
</g>
</g>
<!-- Node2&#45;&gt;Node1 -->
<g id="edge1" class="edge"><title>Node2&#45;&gt;Node1</title>
<path fill="none" stroke="#9a32cd" stroke-dasharray="5,2" d="M80.5576,-66.7088C88.6567,-57.9206 99.0793,-47.0518 109,-38 116.127,-31.497 124.627,-24.747 131.345,-19.6227"/>
<polygon fill="#9a32cd" stroke="#9a32cd" points="77.731,-64.615 73.5967,-74.3699 82.9119,-69.3223 77.731,-64.615"/>
<text text-anchor="middle" x="136" y="-41.5" font-family="Helvetica,sans-Serif" font-size="10.00"> init_thread_</text>
</g>
<!-- Node3 -->
<g id="node3" class="node"><title>Node3</title>
<g id="a_node3"><a xlink:href="classtlx_1_1Delegate.html" target="_top" xlink:title="Delegate\&lt; T, Allocator \&gt;">
<polygon fill="none" stroke="black" points="0,-154.5 0,-173.5 124,-173.5 124,-154.5 0,-154.5"/>
<text text-anchor="middle" x="62" y="-161.5" font-family="Helvetica,sans-Serif" font-size="10.00">Delegate&lt; T, Allocator &gt;</text>
</a>
</g>
</g>
<!-- Node3&#45;&gt;Node2 -->
<g id="edge2" class="edge"><title>Node3&#45;&gt;Node2</title>
<path fill="none" stroke="orange" stroke-dasharray="5,2" d="M62.9707,-144.072C63.7874,-128.145 64.9191,-106.078 65.5424,-93.9238"/>
<polygon fill="orange" stroke="orange" points="59.4602,-144.188 62.4434,-154.355 66.451,-144.547 59.4602,-144.188"/>
<text text-anchor="middle" x="99.5" y="-121.5" font-family="Helvetica,sans-Serif" font-size="10.00"> &lt; void(size_t)&gt;</text>
</g>
<!-- Node4 -->
<g id="node4" class="node"><title>Node4</title>
<g id="a_node4"><a xlink:href="classtlx_1_1SimpleVector.html" target="_top" xlink:title="SimpleVector\&lt; std::\lthread \&gt;">
<polygon fill="none" stroke="black" points="153,-69 153,-99 257,-99 257,-69 153,-69"/>
<text text-anchor="start" x="161" y="-87" font-family="Helvetica,sans-Serif" font-size="10.00">SimpleVector&lt; std::</text>
<text text-anchor="middle" x="205" y="-76" font-family="Helvetica,sans-Serif" font-size="10.00">thread &gt;</text>
</a>
</g>
</g>
<!-- Node4&#45;&gt;Node1 -->
<g id="edge3" class="edge"><title>Node4&#45;&gt;Node1</title>
<path fill="none" stroke="#9a32cd" stroke-dasharray="5,2" d="M186.103,-61.0551C174.138,-47.1605 159.32,-29.952 150.542,-19.7589"/>
<polygon fill="#9a32cd" stroke="#9a32cd" points="183.573,-63.4812 192.751,-68.7751 188.878,-58.9136 183.573,-63.4812"/>
<text text-anchor="middle" x="196.5" y="-41.5" font-family="Helvetica,sans-Serif" font-size="10.00"> threads_</text>
</g>
<!-- Node5 -->
<g id="node5" class="node"><title>Node5</title>
<g id="a_node5"><a xlink:href="classtlx_1_1SimpleVector.html" target="_top" xlink:title="Simpler non&#45;growing vector without initialization. ">
<polygon fill="none" stroke="black" points="142,-149 142,-179 276,-179 276,-149 142,-149"/>
<text text-anchor="start" x="150" y="-167" font-family="Helvetica,sans-Serif" font-size="10.00">SimpleVector&lt; ValueType,</text>
<text text-anchor="middle" x="209" y="-156" font-family="Helvetica,sans-Serif" font-size="10.00"> Mode &gt;</text>
</a>
</g>
</g>
<!-- Node5&#45;&gt;Node4 -->
<g id="edge4" class="edge"><title>Node5&#45;&gt;Node4</title>
<path fill="none" stroke="orange" stroke-dasharray="5,2" d="M207.747,-138.564C207.083,-125.624 206.292,-110.186 205.729,-99.2157"/>
<polygon fill="orange" stroke="orange" points="204.259,-138.886 208.266,-148.694 211.25,-138.527 204.259,-138.886"/>
<text text-anchor="middle" x="242" y="-121.5" font-family="Helvetica,sans-Serif" font-size="10.00"> &lt; std::thread &gt;</text>
</g>
</g>
</svg>
