<?xml version="1.0" encoding="UTF-8" standalone="no"?>
<!DOCTYPE svg PUBLIC "-//W3C//DTD SVG 1.1//EN"
 "http://www.w3.org/Graphics/SVG/1.1/DTD/svg11.dtd">
<!-- Generated by graphviz version 2.36.0 (20140111.2315)
 -->
<!-- Title: CatStream Pages: 1 -->
<svg width="1594pt" height="234pt"
 viewBox="0.00 0.00 1594.00 234.00" xmlns="http://www.w3.org/2000/svg" xmlns:xlink="http://www.w3.org/1999/xlink">
<g id="graph0" class="graph" transform="scale(1 1) rotate(0) translate(4 230)">
<title>CatStream</title>
<!-- Node1 -->
<g id="node1" class="node"><title>Node1</title>
<polygon fill="#bfbfbf" stroke="black" points="1522,-119.5 1522,-138.5 1586,-138.5 1586,-119.5 1522,-119.5"/>
<text text-anchor="middle" x="1554" y="-126.5" font-family="Helvetica,sans-Serif" font-size="10.00">CatStream</text>
</g>
<!-- Node2 -->
<g id="node2" class="node"><title>Node2</title>
<g id="a_node2"><a xlink:href="classthrill_1_1data_1_1Stream.html" target="_top" xlink:title="Stream &#45; base class for CatStream and MixStream. ">
<polygon fill="none" stroke="black" points="1016,-138.5 1016,-157.5 1064,-157.5 1064,-138.5 1016,-138.5"/>
<text text-anchor="middle" x="1040" y="-145.5" font-family="Helvetica,sans-Serif" font-size="10.00">Stream</text>
</a>
</g>
</g>
<!-- Node2&#45;&gt;Node1 -->
<g id="edge1" class="edge"><title>Node2&#45;&gt;Node1</title>
<path fill="none" stroke="midnightblue" d="M1074.52,-146.816C1150.78,-144.113 1343.12,-137.237 1504,-131 1509.79,-130.776 1515.95,-130.529 1521.9,-130.289"/>
<polygon fill="midnightblue" stroke="midnightblue" points="1074,-143.333 1064.13,-147.184 1074.24,-150.328 1074,-143.333"/>
</g>
<!-- Node3 -->
<g id="node3" class="node"><title>Node3</title>
<g id="a_node3"><a xlink:href="classtlx_1_1ReferenceCounter.html" target="_top" xlink:title="Provides reference counting abilities for use with CountingPtr. ">
<polygon fill="none" stroke="black" points="702,-132.5 702,-151.5 798,-151.5 798,-132.5 702,-132.5"/>
<text text-anchor="middle" x="750" y="-139.5" font-family="Helvetica,sans-Serif" font-size="10.00">ReferenceCounter</text>
</a>
</g>
</g>
<!-- Node3&#45;&gt;Node2 -->
<g id="edge2" class="edge"><title>Node3&#45;&gt;Node2</title>
<path fill="none" stroke="midnightblue" d="M808.494,-143.198C872.001,-144.521 971.176,-146.587 1015.83,-147.517"/>
<polygon fill="midnightblue" stroke="midnightblue" points="808.306,-139.693 798.235,-142.984 808.16,-146.692 808.306,-139.693"/>
</g>
<!-- Node6 -->
<g id="node6" class="node"><title>Node6</title>
<g id="a_node6"><a xlink:href="classthrill_1_1data_1_1StreamData.html" target="_top" xlink:title="Base class for common structures for ConcatStream and MixedStream. ">
<polygon fill="none" stroke="black" points="928.5,-88.5 928.5,-107.5 997.5,-107.5 997.5,-88.5 928.5,-88.5"/>
<text text-anchor="middle" x="963" y="-95.5" font-family="Helvetica,sans-Serif" font-size="10.00">StreamData</text>
</a>
</g>
</g>
<!-- Node3&#45;&gt;Node6 -->
<g id="edge6" class="edge"><title>Node3&#45;&gt;Node6</title>
<path fill="none" stroke="midnightblue" d="M808.013,-130.93C838.344,-124.939 876.247,-117.29 910,-110 915.977,-108.709 922.329,-107.286 928.464,-105.885"/>
<polygon fill="midnightblue" stroke="midnightblue" points="807.169,-127.529 798.034,-132.895 808.522,-134.397 807.169,-127.529"/>
</g>
<!-- Node4 -->
<g id="node4" class="node"><title>Node4</title>
<g id="a_node4"><a xlink:href="classtlx_1_1CountingPtr.html" target="_top" xlink:title="CountingPtr\&lt; CatStreamData \&gt;">
<polygon fill="none" stroke="black" points="1310.5,-96.5 1310.5,-115.5 1465.5,-115.5 1465.5,-96.5 1310.5,-96.5"/>
<text text-anchor="middle" x="1388" y="-103.5" font-family="Helvetica,sans-Serif" font-size="10.00">CountingPtr&lt; CatStreamData &gt;</text>
</a>
</g>
</g>
<!-- Node4&#45;&gt;Node1 -->
<g id="edge3" class="edge"><title>Node4&#45;&gt;Node1</title>
<path fill="none" stroke="#9a32cd" stroke-dasharray="5,2" d="M1475.72,-115.988C1485.28,-117.258 1494.85,-118.604 1504,-120 1509.81,-120.887 1516,-121.938 1521.94,-123.003"/>
<polygon fill="#9a32cd" stroke="#9a32cd" points="1476.16,-112.516 1465.79,-114.694 1475.26,-119.457 1476.16,-112.516"/>
<text text-anchor="middle" x="1494" y="-123" font-family="Helvetica,sans-Serif" font-size="10.00"> ptr_</text>
</g>
<!-- Node5 -->
<g id="node5" class="node"><title>Node5</title>
<g id="a_node5"><a xlink:href="classthrill_1_1data_1_1CatStreamData.html" target="_top" xlink:title="A Stream is a virtual set of connections to all other worker instances, hence a &quot;Stream&quot; bundles them...">
<polygon fill="none" stroke="black" points="1090.5,-96.5 1090.5,-115.5 1175.5,-115.5 1175.5,-96.5 1090.5,-96.5"/>
<text text-anchor="middle" x="1133" y="-103.5" font-family="Helvetica,sans-Serif" font-size="10.00">CatStreamData</text>
</a>
</g>
</g>
<!-- Node5&#45;&gt;Node4 -->
<g id="edge4" class="edge"><title>Node5&#45;&gt;Node4</title>
<path fill="none" stroke="#9a32cd" stroke-dasharray="5,2" d="M1186.02,-106C1221.88,-106 1270.14,-106 1310.38,-106"/>
<polygon fill="#9a32cd" stroke="#9a32cd" points="1185.78,-102.5 1175.78,-106 1185.78,-109.5 1185.78,-102.5"/>
<text text-anchor="middle" x="1247" y="-109" font-family="Helvetica,sans-Serif" font-size="10.00"> ptr_</text>
</g>
<!-- Node6&#45;&gt;Node5 -->
<g id="edge5" class="edge"><title>Node6&#45;&gt;Node5</title>
<path fill="none" stroke="midnightblue" d="M1007.74,-100.083C1033.26,-101.298 1065.28,-102.823 1090.43,-104.02"/>
<polygon fill="midnightblue" stroke="midnightblue" points="1007.75,-96.5794 997.594,-99.5997 1007.42,-103.571 1007.75,-96.5794"/>
</g>
<!-- Node7 -->
<g id="node7" class="node"><title>Node7</title>
<g id="a_node7"><a xlink:href="classthrill_1_1data_1_1Multiplexer.html" target="_top" xlink:title="Multiplexes virtual Connections on Dispatcher. ">
<polygon fill="none" stroke="black" points="718,-88.5 718,-107.5 782,-107.5 782,-88.5 718,-88.5"/>
<text text-anchor="middle" x="750" y="-95.5" font-family="Helvetica,sans-Serif" font-size="10.00">Multiplexer</text>
</a>
</g>
</g>
<!-- Node7&#45;&gt;Node6 -->
<g id="edge7" class="edge"><title>Node7&#45;&gt;Node6</title>
<path fill="none" stroke="#9a32cd" stroke-dasharray="5,2" d="M792.283,-98C832.006,-98 891.332,-98 928.293,-98"/>
<polygon fill="#9a32cd" stroke="#9a32cd" points="792.134,-94.5001 782.134,-98 792.134,-101.5 792.134,-94.5001"/>
<text text-anchor="middle" x="863" y="-101" font-family="Helvetica,sans-Serif" font-size="10.00"> multiplexer_</text>
</g>
<!-- Node8 -->
<g id="node8" class="node"><title>Node8</title>
<g id="a_node8"><a xlink:href="classthrill_1_1net_1_1DispatcherThread.html" target="_top" xlink:title="DispatcherThread contains a net::Dispatcher object and an associated thread that runs in the dispatch...">
<polygon fill="none" stroke="black" points="516,-155.5 516,-174.5 610,-174.5 610,-155.5 516,-155.5"/>
<text text-anchor="middle" x="563" y="-162.5" font-family="Helvetica,sans-Serif" font-size="10.00">DispatcherThread</text>
</a>
</g>
</g>
<!-- Node8&#45;&gt;Node7 -->
<g id="edge8" class="edge"><title>Node8&#45;&gt;Node7</title>
<path fill="none" stroke="#9a32cd" stroke-dasharray="5,2" d="M602.886,-152.276C626.461,-144.422 657.085,-133.973 684,-124 698.018,-118.806 713.571,-112.601 725.948,-107.555"/>
<polygon fill="#9a32cd" stroke="#9a32cd" points="601.635,-149.003 593.246,-155.473 603.839,-155.647 601.635,-149.003"/>
<text text-anchor="middle" x="656" y="-146" font-family="Helvetica,sans-Serif" font-size="10.00"> dispatcher_</text>
</g>
<!-- Node9 -->
<g id="node9" class="node"><title>Node9</title>
<g id="a_node9"><a xlink:href="classthrill_1_1common_1_1ConcurrentQueue.html" target="_top" xlink:title="ConcurrentQueue\&lt; tlx\l::Delegate, mem::GPoolAllocator\l\&lt; tlx::Delegate \&gt; \&gt;">
<polygon fill="none" stroke="black" points="244.5,-172.5 244.5,-213.5 405.5,-213.5 405.5,-172.5 244.5,-172.5"/>
<text text-anchor="start" x="252.5" y="-201.5" font-family="Helvetica,sans-Serif" font-size="10.00">ConcurrentQueue&lt; tlx</text>
<text text-anchor="start" x="252.5" y="-190.5" font-family="Helvetica,sans-Serif" font-size="10.00">::Delegate, mem::GPoolAllocator</text>
<text text-anchor="middle" x="325" y="-179.5" font-family="Helvetica,sans-Serif" font-size="10.00">&lt; tlx::Delegate &gt; &gt;</text>
</a>
</g>
</g>
<!-- Node9&#45;&gt;Node8 -->
<g id="edge9" class="edge"><title>Node9&#45;&gt;Node8</title>
<path fill="none" stroke="#9a32cd" stroke-dasharray="5,2" d="M415.575,-182.372C449.734,-178.32 487.272,-173.866 515.788,-170.483"/>
<polygon fill="#9a32cd" stroke="#9a32cd" points="415.088,-178.906 405.57,-183.56 415.913,-185.857 415.088,-178.906"/>
<text text-anchor="middle" x="461" y="-183" font-family="Helvetica,sans-Serif" font-size="10.00"> jobqueue_</text>
</g>
<!-- Node10 -->
<g id="node10" class="node"><title>Node10</title>
<g id="a_node10"><a xlink:href="classthrill_1_1common_1_1ConcurrentQueue.html" target="_top" xlink:title="This is a queue, similar to std::queue and tbb::concurrent_queue, except that it uses mutexes for syn...">
<polygon fill="none" stroke="black" points="0.5,-178 0.5,-208 111.5,-208 111.5,-178 0.5,-178"/>
<text text-anchor="start" x="8.5" y="-196" font-family="Helvetica,sans-Serif" font-size="10.00">ConcurrentQueue&lt; T,</text>
<text text-anchor="middle" x="56" y="-185" font-family="Helvetica,sans-Serif" font-size="10.00"> Allocator &gt;</text>
</a>
</g>
</g>
<!-- Node10&#45;&gt;Node9 -->
<g id="edge10" class="edge"><title>Node10&#45;&gt;Node9</title>
<path fill="none" stroke="orange" stroke-dasharray="5,2" d="M121.812,-193C158.705,-193 205.217,-193 244.326,-193"/>
<polygon fill="orange" stroke="orange" points="121.676,-189.5 111.676,-193 121.676,-196.5 121.676,-189.5"/>
<text text-anchor="start" x="130" y="-218" font-family="Helvetica,sans-Serif" font-size="10.00"> &lt; tlx::Delegate, mem</text>
<text text-anchor="start" x="130" y="-207" font-family="Helvetica,sans-Serif" font-size="10.00">::GPoolAllocator&lt; tlx</text>
<text text-anchor="middle" x="178" y="-196" font-family="Helvetica,sans-Serif" font-size="10.00">::Delegate &gt; &gt;</text>
</g>
<!-- Node11 -->
<g id="node11" class="node"><title>Node11</title>
<g id="a_node11"><a xlink:href="classthrill_1_1net_1_1Group.html" target="_top" xlink:title="A network Group is a collection of enumerated communication links, which provides point&#45;to&#45;point comm...">
<polygon fill="none" stroke="black" points="541.5,-105.5 541.5,-124.5 584.5,-124.5 584.5,-105.5 541.5,-105.5"/>
<text text-anchor="middle" x="563" y="-112.5" font-family="Helvetica,sans-Serif" font-size="10.00">Group</text>
</a>
</g>
</g>
<!-- Node11&#45;&gt;Node7 -->
<g id="edge11" class="edge"><title>Node11&#45;&gt;Node7</title>
<path fill="none" stroke="#9a32cd" stroke-dasharray="5,2" d="M594.814,-112.168C628.957,-109.031 683.704,-104 717.944,-100.854"/>
<polygon fill="#9a32cd" stroke="#9a32cd" points="594.143,-108.715 584.505,-113.116 594.783,-115.686 594.143,-108.715"/>
<text text-anchor="middle" x="656" y="-112" font-family="Helvetica,sans-Serif" font-size="10.00"> group_</text>
</g>
<!-- Node12 -->
<g id="node12" class="node"><title>Node12</title>
<g id="a_node12"><a xlink:href="classthrill_1_1data_1_1BlockPool.html" target="_top" xlink:title="Pool to allocate, keep, swap out/in, and free all ByteBlocks on the host. ">
<polygon fill="none" stroke="black" points="532.5,-67.5 532.5,-86.5 593.5,-86.5 593.5,-67.5 532.5,-67.5"/>
<text text-anchor="middle" x="563" y="-74.5" font-family="Helvetica,sans-Serif" font-size="10.00">BlockPool</text>
</a>
</g>
</g>
<!-- Node12&#45;&gt;Node7 -->
<g id="edge12" class="edge"><title>Node12&#45;&gt;Node7</title>
<path fill="none" stroke="#9a32cd" stroke-dasharray="5,2" d="M603.877,-80.0397C627.26,-81.9756 657.349,-84.7316 684,-88 695.106,-89.362 707.234,-91.1467 717.975,-92.8308"/>
<polygon fill="#9a32cd" stroke="#9a32cd" points="603.893,-76.5295 593.643,-79.209 603.327,-83.5066 603.893,-76.5295"/>
<text text-anchor="middle" x="656" y="-91" font-family="Helvetica,sans-Serif" font-size="10.00"> block_pool_</text>
</g>
<!-- Node13 -->
<g id="node13" class="node"><title>Node13</title>
<g id="a_node13"><a xlink:href="classthrill_1_1common_1_1ProfileTask.html" target="_top" xlink:title="ProfileTask">
<polygon fill="none" stroke="black" points="292,-134.5 292,-153.5 358,-153.5 358,-134.5 292,-134.5"/>
<text text-anchor="middle" x="325" y="-141.5" font-family="Helvetica,sans-Serif" font-size="10.00">ProfileTask</text>
</a>
</g>
</g>
<!-- Node13&#45;&gt;Node12 -->
<g id="edge13" class="edge"><title>Node13&#45;&gt;Node12</title>
<path fill="none" stroke="midnightblue" d="M368.04,-134.56C380.318,-131.656 393.733,-128.34 406,-125 450.703,-112.828 501.937,-96.6247 533.126,-86.5043"/>
<polygon fill="midnightblue" stroke="midnightblue" points="366.985,-131.212 358.043,-136.894 368.577,-138.029 366.985,-131.212"/>
</g>
<!-- Node14 -->
<g id="node14" class="node"><title>Node14</title>
<g id="a_node14"><a xlink:href="classthrill_1_1common_1_1JsonLogger.html" target="_top" xlink:title="JsonLogger is a receiver of JSON output objects for logging. ">
<polygon fill="none" stroke="black" points="291.5,-67.5 291.5,-86.5 358.5,-86.5 358.5,-67.5 291.5,-67.5"/>
<text text-anchor="middle" x="325" y="-74.5" font-family="Helvetica,sans-Serif" font-size="10.00">JsonLogger</text>
</a>
</g>
</g>
<!-- Node14&#45;&gt;Node12 -->
<g id="edge14" class="edge"><title>Node14&#45;&gt;Node12</title>
<path fill="none" stroke="#9a32cd" stroke-dasharray="5,2" d="M369.064,-77C416.43,-77 491.277,-77 532.439,-77"/>
<polygon fill="#9a32cd" stroke="#9a32cd" points="368.815,-73.5001 358.815,-77 368.815,-80.5001 368.815,-73.5001"/>
<text text-anchor="middle" x="461" y="-80" font-family="Helvetica,sans-Serif" font-size="10.00"> logger_</text>
</g>
<!-- Node14&#45;&gt;Node14 -->
<g id="edge16" class="edge"><title>Node14&#45;&gt;Node14</title>
<path fill="none" stroke="#9a32cd" stroke-dasharray="5,2" d="M299.702,-96.0292C301.082,-101.128 309.515,-105 325,-105 349.172,-105 356.159,-95.5653 345.962,-86.7571"/>
<polygon fill="#9a32cd" stroke="#9a32cd" points="302.973,-97.2982 304.038,-86.7571 296.632,-94.3329 302.973,-97.2982"/>
<text text-anchor="middle" x="325" y="-108" font-family="Helvetica,sans-Serif" font-size="10.00"> super_</text>
</g>
<!-- Node15 -->
<g id="node15" class="node"><title>Node15</title>
<g id="a_node15"><a xlink:href="classthrill_1_1common_1_1JsonVerbatim.html" target="_top" xlink:title="A special class to output verbatim text. ">
<polygon fill="none" stroke="black" points="17.5,-67.5 17.5,-86.5 94.5,-86.5 94.5,-67.5 17.5,-67.5"/>
<text text-anchor="middle" x="56" y="-74.5" font-family="Helvetica,sans-Serif" font-size="10.00">JsonVerbatim</text>
</a>
</g>
</g>
<!-- Node15&#45;&gt;Node14 -->
<g id="edge15" class="edge"><title>Node15&#45;&gt;Node14</title>
<path fill="none" stroke="#9a32cd" stroke-dasharray="5,2" d="M104.994,-77C158.757,-77 244.466,-77 291.122,-77"/>
<polygon fill="#9a32cd" stroke="#9a32cd" points="104.688,-73.5001 94.6883,-77 104.688,-80.5001 104.688,-73.5001"/>
<text text-anchor="middle" x="178" y="-80" font-family="Helvetica,sans-Serif" font-size="10.00"> common_</text>
</g>
<!-- Node16 -->
<g id="node16" class="node"><title>Node16</title>
<g id="a_node16"><a xlink:href="classthrill_1_1mem_1_1Manager.html" target="_top" xlink:title="Object shared by allocators and other classes to track memory allocations. ">
<polygon fill="none" stroke="black" points="298,-0.5 298,-19.5 352,-19.5 352,-0.5 298,-0.5"/>
<text text-anchor="middle" x="325" y="-7.5" font-family="Helvetica,sans-Serif" font-size="10.00">Manager</text>
</a>
</g>
</g>
<!-- Node16&#45;&gt;Node7 -->
<g id="edge19" class="edge"><title>Node16&#45;&gt;Node7</title>
<path fill="none" stroke="#9a32cd" stroke-dasharray="5,2" d="M362.395,-12.1483C416.89,-15.9449 522.625,-25.562 610,-47 652.689,-57.4741 700.368,-76.7108 727.323,-88.3304"/>
<polygon fill="#9a32cd" stroke="#9a32cd" points="362.412,-8.64169 352.2,-11.4648 361.944,-15.626 362.412,-8.64169"/>
<text text-anchor="middle" x="563" y="-50" font-family="Helvetica,sans-Serif" font-size="10.00"> mem_manager_</text>
</g>
<!-- Node16&#45;&gt;Node12 -->
<g id="edge17" class="edge"><title>Node16&#45;&gt;Node12</title>
<path fill="none" stroke="#9a32cd" stroke-dasharray="5,2" d="M361.845,-20.1762C408.47,-33.4132 489.069,-56.2949 532.4,-68.5965"/>
<polygon fill="#9a32cd" stroke="#9a32cd" points="362.734,-16.7903 352.158,-17.4262 360.822,-23.5242 362.734,-16.7903"/>
<text text-anchor="middle" x="461" y="-61" font-family="Helvetica,sans-Serif" font-size="10.00"> mem_manager_</text>
</g>
<!-- Node16&#45;&gt;Node16 -->
<g id="edge18" class="edge"><title>Node16&#45;&gt;Node16</title>
<path fill="none" stroke="#9a32cd" stroke-dasharray="5,2" d="M299.702,-29.0292C301.082,-34.128 309.515,-38 325,-38 349.172,-38 356.159,-28.5653 345.962,-19.7571"/>
<polygon fill="#9a32cd" stroke="#9a32cd" points="302.973,-30.2982 304.038,-19.7571 296.632,-27.3329 302.973,-30.2982"/>
<text text-anchor="middle" x="325" y="-41" font-family="Helvetica,sans-Serif" font-size="10.00"> super_</text>
</g>
<!-- Node17 -->
<g id="node17" class="node"><title>Node17</title>
<g id="a_node17"><a xlink:href="classtlx_1_1Semaphore.html" target="_top" xlink:title="A simple semaphore implementation using C++11 synchronization methods. ">
<polygon fill="none" stroke="black" points="717,-43.5 717,-62.5 783,-62.5 783,-43.5 717,-43.5"/>
<text text-anchor="middle" x="750" y="-50.5" font-family="Helvetica,sans-Serif" font-size="10.00">Semaphore</text>
</a>
</g>
</g>
<!-- Node17&#45;&gt;Node6 -->
<g id="edge20" class="edge"><title>Node17&#45;&gt;Node6</title>
<path fill="none" stroke="#9a32cd" stroke-dasharray="5,2" d="M793.094,-54.0955C825.616,-55.8762 871.434,-60.4371 910,-72 922.762,-75.8263 936.188,-82.6193 946.201,-88.3023"/>
<polygon fill="#9a32cd" stroke="#9a32cd" points="793.186,-50.5959 783.029,-53.6097 792.848,-57.5878 793.186,-50.5959"/>
<text text-anchor="middle" x="863" y="-86" font-family="Helvetica,sans-Serif" font-size="10.00"> sem_queue_</text>
<text text-anchor="middle" x="863" y="-75" font-family="Helvetica,sans-Serif" font-size="10.00">sem_closing_blocks_</text>
</g>
<!-- Node18 -->
<g id="node18" class="node"><title>Node18</title>
<g id="a_node18"><a xlink:href="classtlx_1_1CountingPtr.html" target="_top" xlink:title="High&#45;performance smart pointer used as a wrapping reference counting pointer. ">
<polygon fill="none" stroke="black" points="1082,-47 1082,-77 1184,-77 1184,-47 1082,-47"/>
<text text-anchor="start" x="1090" y="-65" font-family="Helvetica,sans-Serif" font-size="10.00">CountingPtr&lt; Type,</text>
<text text-anchor="middle" x="1133" y="-54" font-family="Helvetica,sans-Serif" font-size="10.00"> Deleter &gt;</text>
</a>
</g>
</g>
<!-- Node18&#45;&gt;Node4 -->
<g id="edge21" class="edge"><title>Node18&#45;&gt;Node4</title>
<path fill="none" stroke="orange" stroke-dasharray="5,2" d="M1194.34,-72.4939C1236.15,-79.7651 1291.38,-89.3701 1331.98,-96.4315"/>
<polygon fill="orange" stroke="orange" points="1194.74,-69.0108 1184.29,-70.7456 1193.54,-75.9073 1194.74,-69.0108"/>
<text text-anchor="middle" x="1247" y="-92" font-family="Helvetica,sans-Serif" font-size="10.00"> &lt; CatStreamData &gt;</text>
</g>
</g>
</svg>
