<?xml version="1.0" encoding="UTF-8" standalone="no"?>
<!DOCTYPE svg PUBLIC "-//W3C//DTD SVG 1.1//EN"
 "http://www.w3.org/Graphics/SVG/1.1/DTD/svg11.dtd">
<!-- Generated by graphviz version 2.40.1 (20161225.0304)
 -->
<!-- Title: BufferReader Pages: 1 -->
<svg width="238pt" height="174pt"
 viewBox="0.00 0.00 238.00 174.00" xmlns="http://www.w3.org/2000/svg" xmlns:xlink="http://www.w3.org/1999/xlink">
<g id="graph0" class="graph" transform="scale(1 1) rotate(0) translate(4 170)">
<title>BufferReader</title>
<!-- Node4 -->
<g id="node1" class="node">
<title>Node4</title>
<polygon fill="#bfbfbf" stroke="#000000" points="24,-.5 24,-19.5 104,-19.5 104,-.5 24,-.5"/>
<text text-anchor="middle" x="64" y="-7.5" font-family="Helvetica,sans-Serif" font-size="10.00" fill="#000000">BufferReader</text>
</g>
<!-- Node5 -->
<g id="node2" class="node">
<title>Node5</title>
<g id="a_node2"><a xlink:href="classthrill_1_1net_1_1BufferRef.html" target="_top" xlink:title="BufferRef represents a reference to a memory area as pointer and valid length. ">
<polygon fill="none" stroke="#000000" points="0,-63 0,-82 62,-82 62,-63 0,-63"/>
<text text-anchor="middle" x="31" y="-70" font-family="Helvetica,sans-Serif" font-size="10.00" fill="#000000">BufferRef</text>
</a>
</g>
</g>
<!-- Node5&#45;&gt;Node4 -->
<g id="edge1" class="edge">
<title>Node5&#45;&gt;Node4</title>
<path fill="none" stroke="#191970" d="M40.8808,-53.7863C46.7585,-42.6544 53.9794,-28.9785 58.7711,-19.9033"/>
<polygon fill="#191970" stroke="#191970" points="37.7304,-52.2571 36.1563,-62.7344 43.9205,-55.5255 37.7304,-52.2571"/>
</g>
<!-- Node6 -->
<g id="node3" class="node">
<title>Node6</title>
<g id="a_node3"><a xlink:href="classthrill_1_1common_1_1ItemReaderToolsBase.html" target="_top" xlink:title="ItemReaderToolsBase\l\&lt; BufferReader \&gt;">
<polygon fill="none" stroke="#000000" points="80,-57.5 80,-87.5 202,-87.5 202,-57.5 80,-57.5"/>
<text text-anchor="start" x="88" y="-75.5" font-family="Helvetica,sans-Serif" font-size="10.00" fill="#000000">ItemReaderToolsBase</text>
<text text-anchor="middle" x="141" y="-64.5" font-family="Helvetica,sans-Serif" font-size="10.00" fill="#000000">&lt; BufferReader &gt;</text>
</a>
</g>
</g>
<!-- Node6&#45;&gt;Node4 -->
<g id="edge2" class="edge">
<title>Node6&#45;&gt;Node4</title>
<path fill="none" stroke="#191970" d="M114.5333,-51.0173C101.4336,-40.3844 86.2675,-28.0743 75.9943,-19.7356"/>
<polygon fill="#191970" stroke="#191970" points="112.3904,-53.7858 122.3604,-57.3705 116.802,-48.3508 112.3904,-53.7858"/>
</g>
<!-- Node7 -->
<g id="node4" class="node">
<title>Node7</title>
<g id="a_node4"><a xlink:href="classthrill_1_1common_1_1ItemReaderToolsBase.html" target="_top" xlink:title="CRTP class to enhance item/memory reader classes with Varint decoding and String decoding. ">
<polygon fill="none" stroke="#000000" points="80,-135.5 80,-165.5 202,-165.5 202,-135.5 80,-135.5"/>
<text text-anchor="start" x="88" y="-153.5" font-family="Helvetica,sans-Serif" font-size="10.00" fill="#000000">ItemReaderToolsBase</text>
<text text-anchor="middle" x="141" y="-142.5" font-family="Helvetica,sans-Serif" font-size="10.00" fill="#000000">&lt; Reader &gt;</text>
</a>
</g>
</g>
<!-- Node7&#45;&gt;Node6 -->
<g id="edge3" class="edge">
<title>Node7&#45;&gt;Node6</title>
<path fill="none" stroke="#ffa500" stroke-dasharray="5,2" d="M141,-125.2875C141,-112.9187 141,-98.4264 141,-87.7592"/>
<polygon fill="#ffa500" stroke="#ffa500" points="137.5001,-125.4608 141,-135.4608 144.5001,-125.4608 137.5001,-125.4608"/>
<text text-anchor="middle" x="185.5" y="-109" font-family="Helvetica,sans-Serif" font-size="10.00" fill="#000000"> &lt; BufferReader &gt;</text>
</g>
</g>
</svg>
