<?xml version="1.0" encoding="UTF-8" standalone="no"?>
<!DOCTYPE svg PUBLIC "-//W3C//DTD SVG 1.1//EN"
 "http://www.w3.org/Graphics/SVG/1.1/DTD/svg11.dtd">
<!-- Generated by graphviz version 2.40.1 (20161225.0304)
 -->
<!-- Title: Stream Pages: 1 -->
<svg width="164pt" height="140pt"
 viewBox="0.00 0.00 163.50 140.00" xmlns="http://www.w3.org/2000/svg" xmlns:xlink="http://www.w3.org/1999/xlink">
<g id="graph0" class="graph" transform="scale(1 1) rotate(0) translate(4 136)">
<title>Stream</title>
<!-- Node0 -->
<g id="node1" class="node">
<title>Node0</title>
<polygon fill="#bfbfbf" stroke="#000000" points="51,-56.5 51,-75.5 103,-75.5 103,-56.5 51,-56.5"/>
<text text-anchor="middle" x="77" y="-63.5" font-family="Helvetica,sans-Serif" font-size="10.00" fill="#000000">Stream</text>
</g>
<!-- Node2 -->
<g id="node3" class="node">
<title>Node2</title>
<g id="a_node3"><a xlink:href="classthrill_1_1data_1_1CatStream.html" target="_top" xlink:title="Ownership handle onto a CatStreamData. ">
<polygon fill="none" stroke="#000000" points="0,-.5 0,-19.5 68,-19.5 68,-.5 0,-.5"/>
<text text-anchor="middle" x="34" y="-7.5" font-family="Helvetica,sans-Serif" font-size="10.00" fill="#000000">CatStream</text>
</a>
</g>
</g>
<!-- Node0&#45;&gt;Node2 -->
<g id="edge2" class="edge">
<title>Node0&#45;&gt;Node2</title>
<path fill="none" stroke="#191970" d="M63.3408,-48.2112C56.0737,-38.7472 47.4219,-27.4797 41.4042,-19.6427"/>
<polygon fill="#191970" stroke="#191970" points="60.6436,-50.4456 69.51,-56.2455 66.1957,-46.1824 60.6436,-50.4456"/>
</g>
<!-- Node3 -->
<g id="node4" class="node">
<title>Node3</title>
<g id="a_node4"><a xlink:href="classthrill_1_1data_1_1MixStream.html" target="_top" xlink:title="Ownership handle onto a MixStream. ">
<polygon fill="none" stroke="#000000" points="86.5,-.5 86.5,-19.5 155.5,-19.5 155.5,-.5 86.5,-.5"/>
<text text-anchor="middle" x="121" y="-7.5" font-family="Helvetica,sans-Serif" font-size="10.00" fill="#000000">MixStream</text>
</a>
</g>
</g>
<!-- Node0&#45;&gt;Node3 -->
<g id="edge3" class="edge">
<title>Node0&#45;&gt;Node3</title>
<path fill="none" stroke="#191970" d="M90.9769,-48.2112C98.4129,-38.7472 107.266,-27.4797 113.4236,-19.6427"/>
<polygon fill="#191970" stroke="#191970" points="88.0903,-46.22 84.6642,-56.2455 93.5946,-50.5447 88.0903,-46.22"/>
</g>
<!-- Node1 -->
<g id="node2" class="node">
<title>Node1</title>
<g id="a_node2"><a xlink:href="classtlx_1_1ReferenceCounter.html" target="_top" xlink:title="Provides reference counting abilities for use with CountingPtr. ">
<polygon fill="none" stroke="#000000" points="25,-112.5 25,-131.5 129,-131.5 129,-112.5 25,-112.5"/>
<text text-anchor="middle" x="77" y="-119.5" font-family="Helvetica,sans-Serif" font-size="10.00" fill="#000000">ReferenceCounter</text>
</a>
</g>
</g>
<!-- Node1&#45;&gt;Node0 -->
<g id="edge1" class="edge">
<title>Node1&#45;&gt;Node0</title>
<path fill="none" stroke="#191970" d="M77,-102.1575C77,-93.155 77,-82.9199 77,-75.6427"/>
<polygon fill="#191970" stroke="#191970" points="73.5001,-102.2455 77,-112.2455 80.5001,-102.2456 73.5001,-102.2455"/>
</g>
</g>
</svg>
