<?xml version="1.0" encoding="UTF-8" standalone="no"?>
<!DOCTYPE svg PUBLIC "-//W3C//DTD SVG 1.1//EN"
 "http://www.w3.org/Graphics/SVG/1.1/DTD/svg11.dtd">
<!-- Generated by graphviz version 2.36.0 (20140111.2315)
 -->
<!-- Title: BlockQueueSink Pages: 1 -->
<svg width="1314pt" height="260pt"
 viewBox="0.00 0.00 1314.00 260.00" xmlns="http://www.w3.org/2000/svg" xmlns:xlink="http://www.w3.org/1999/xlink">
<g id="graph0" class="graph" transform="scale(1 1) rotate(0) translate(4 256)">
<title>BlockQueueSink</title>
<!-- Node1 -->
<g id="node1" class="node"><title>Node1</title>
<polygon fill="#bfbfbf" stroke="black" points="1216.5,-61.5 1216.5,-80.5 1305.5,-80.5 1305.5,-61.5 1216.5,-61.5"/>
<text text-anchor="middle" x="1261" y="-68.5" font-family="Helvetica,sans-Serif" font-size="10.00">BlockQueueSink</text>
</g>
<!-- Node2 -->
<g id="node2" class="node"><title>Node2</title>
<g id="a_node2"><a xlink:href="classthrill_1_1data_1_1BlockSink.html" target="_top" xlink:title="Pure virtual base class for all things that can receive Blocks from a BlockWriter. ">
<polygon fill="none" stroke="black" points="547.5,-67.5 547.5,-86.5 608.5,-86.5 608.5,-67.5 547.5,-67.5"/>
<text text-anchor="middle" x="578" y="-74.5" font-family="Helvetica,sans-Serif" font-size="10.00">BlockSink</text>
</a>
</g>
</g>
<!-- Node2&#45;&gt;Node1 -->
<g id="edge1" class="edge"><title>Node2&#45;&gt;Node1</title>
<path fill="none" stroke="midnightblue" d="M618.893,-76.1094C637.988,-75.7127 661.177,-75.2742 682,-75 881.678,-72.3705 1120.18,-71.412 1216.49,-71.1155"/>
<polygon fill="midnightblue" stroke="midnightblue" points="618.67,-72.6132 608.747,-76.3241 618.818,-79.6116 618.67,-72.6132"/>
</g>
<!-- Node8 -->
<g id="node8" class="node"><title>Node8</title>
<g id="a_node8"><a xlink:href="classthrill_1_1data_1_1BlockQueue.html" target="_top" xlink:title="A BlockQueue is a thread&#45;safe queue used to hand&#45;over Block objects between threads. ">
<polygon fill="none" stroke="black" points="1074,-126.5 1074,-145.5 1144,-145.5 1144,-126.5 1074,-126.5"/>
<text text-anchor="middle" x="1109" y="-133.5" font-family="Helvetica,sans-Serif" font-size="10.00">BlockQueue</text>
</a>
</g>
</g>
<!-- Node2&#45;&gt;Node8 -->
<g id="edge10" class="edge"><title>Node2&#45;&gt;Node8</title>
<path fill="none" stroke="midnightblue" d="M618.708,-77.2168C688.697,-77.9871 838.496,-81.3739 964,-96 1005.3,-100.813 1016.27,-100.729 1056,-113 1067.32,-116.496 1079.45,-121.768 1089.15,-126.383"/>
<polygon fill="midnightblue" stroke="midnightblue" points="618.608,-73.7158 608.574,-77.1177 618.539,-80.7155 618.608,-73.7158"/>
</g>
<!-- Node15 -->
<g id="node15" class="node"><title>Node15</title>
<g id="a_node15"><a xlink:href="classthrill_1_1data_1_1File.html" target="_top" xlink:title="A File is an ordered sequence of Block objects for storing items. ">
<polygon fill="none" stroke="black" points="869,-105.5 869,-124.5 901,-124.5 901,-105.5 869,-105.5"/>
<text text-anchor="middle" x="885" y="-112.5" font-family="Helvetica,sans-Serif" font-size="10.00">File</text>
</a>
</g>
</g>
<!-- Node2&#45;&gt;Node15 -->
<g id="edge18" class="edge"><title>Node2&#45;&gt;Node15</title>
<path fill="none" stroke="midnightblue" d="M618.855,-81.9656C687.023,-90.4586 823.064,-107.408 868.685,-113.092"/>
<polygon fill="midnightblue" stroke="midnightblue" points="618.878,-78.4414 608.522,-80.6781 618.012,-85.3877 618.878,-78.4414"/>
</g>
<!-- Node3 -->
<g id="node3" class="node"><title>Node3</title>
<g id="a_node3"><a xlink:href="classthrill_1_1data_1_1BlockPool.html" target="_top" xlink:title="Pool to allocate, keep, swap out/in, and free all ByteBlocks on the host. ">
<polygon fill="none" stroke="black" points="338.5,-67.5 338.5,-86.5 399.5,-86.5 399.5,-67.5 338.5,-67.5"/>
<text text-anchor="middle" x="369" y="-74.5" font-family="Helvetica,sans-Serif" font-size="10.00">BlockPool</text>
</a>
</g>
</g>
<!-- Node3&#45;&gt;Node2 -->
<g id="edge2" class="edge"><title>Node3&#45;&gt;Node2</title>
<path fill="none" stroke="#9a32cd" stroke-dasharray="5,2" d="M409.909,-77C450.14,-77 511.3,-77 547.397,-77"/>
<polygon fill="#9a32cd" stroke="#9a32cd" points="409.658,-73.5001 399.658,-77 409.658,-80.5001 409.658,-73.5001"/>
<text text-anchor="middle" x="446" y="-80" font-family="Helvetica,sans-Serif" font-size="10.00"> block_pool_</text>
</g>
<!-- Node4 -->
<g id="node4" class="node"><title>Node4</title>
<g id="a_node4"><a xlink:href="classthrill_1_1common_1_1ProfileTask.html" target="_top" xlink:title="ProfileTask">
<polygon fill="none" stroke="black" points="161,-134.5 161,-153.5 227,-153.5 227,-134.5 161,-134.5"/>
<text text-anchor="middle" x="194" y="-141.5" font-family="Helvetica,sans-Serif" font-size="10.00">ProfileTask</text>
</a>
</g>
</g>
<!-- Node4&#45;&gt;Node3 -->
<g id="edge3" class="edge"><title>Node4&#45;&gt;Node3</title>
<path fill="none" stroke="midnightblue" d="M229.216,-130.749C262.845,-117.725 313.348,-98.1659 343.259,-86.5817"/>
<polygon fill="midnightblue" stroke="midnightblue" points="227.848,-127.525 219.787,-134.401 230.376,-134.053 227.848,-127.525"/>
</g>
<!-- Node5 -->
<g id="node5" class="node"><title>Node5</title>
<g id="a_node5"><a xlink:href="classthrill_1_1common_1_1JsonLogger.html" target="_top" xlink:title="JsonLogger is a receiver of JSON output objects for logging. ">
<polygon fill="none" stroke="black" points="160.5,-67.5 160.5,-86.5 227.5,-86.5 227.5,-67.5 160.5,-67.5"/>
<text text-anchor="middle" x="194" y="-74.5" font-family="Helvetica,sans-Serif" font-size="10.00">JsonLogger</text>
</a>
</g>
</g>
<!-- Node5&#45;&gt;Node3 -->
<g id="edge4" class="edge"><title>Node5&#45;&gt;Node3</title>
<path fill="none" stroke="#9a32cd" stroke-dasharray="5,2" d="M237.731,-77C269.063,-77 310.798,-77 338.491,-77"/>
<polygon fill="#9a32cd" stroke="#9a32cd" points="237.54,-73.5001 227.54,-77 237.54,-80.5001 237.54,-73.5001"/>
<text text-anchor="middle" x="283" y="-80" font-family="Helvetica,sans-Serif" font-size="10.00"> logger_</text>
</g>
<!-- Node5&#45;&gt;Node5 -->
<g id="edge6" class="edge"><title>Node5&#45;&gt;Node5</title>
<path fill="none" stroke="#9a32cd" stroke-dasharray="5,2" d="M180.372,-96.7663C181.443,-101.497 185.985,-105 194,-105 207.152,-105 210.954,-95.5653 205.406,-86.7571"/>
<polygon fill="#9a32cd" stroke="#9a32cd" points="183.844,-97.2779 182.594,-86.7571 177.01,-95.7609 183.844,-97.2779"/>
<text text-anchor="middle" x="194" y="-108" font-family="Helvetica,sans-Serif" font-size="10.00"> super_</text>
</g>
<!-- Node6 -->
<g id="node6" class="node"><title>Node6</title>
<g id="a_node6"><a xlink:href="classthrill_1_1common_1_1JsonVerbatim.html" target="_top" xlink:title="A special class to output verbatim text. ">
<polygon fill="none" stroke="black" points="0.5,-67.5 0.5,-86.5 77.5,-86.5 77.5,-67.5 0.5,-67.5"/>
<text text-anchor="middle" x="39" y="-74.5" font-family="Helvetica,sans-Serif" font-size="10.00">JsonVerbatim</text>
</a>
</g>
</g>
<!-- Node6&#45;&gt;Node5 -->
<g id="edge5" class="edge"><title>Node6&#45;&gt;Node5</title>
<path fill="none" stroke="#9a32cd" stroke-dasharray="5,2" d="M87.9544,-77C111.484,-77 139.219,-77 160.28,-77"/>
<polygon fill="#9a32cd" stroke="#9a32cd" points="87.8203,-73.5001 77.8202,-77 87.8202,-80.5001 87.8203,-73.5001"/>
<text text-anchor="middle" x="119" y="-80" font-family="Helvetica,sans-Serif" font-size="10.00"> common_</text>
</g>
<!-- Node7 -->
<g id="node7" class="node"><title>Node7</title>
<g id="a_node7"><a xlink:href="classthrill_1_1mem_1_1Manager.html" target="_top" xlink:title="Object shared by allocators and other classes to track memory allocations. ">
<polygon fill="none" stroke="black" points="167,-0.5 167,-19.5 221,-19.5 221,-0.5 167,-0.5"/>
<text text-anchor="middle" x="194" y="-7.5" font-family="Helvetica,sans-Serif" font-size="10.00">Manager</text>
</a>
</g>
</g>
<!-- Node7&#45;&gt;Node3 -->
<g id="edge7" class="edge"><title>Node7&#45;&gt;Node3</title>
<path fill="none" stroke="#9a32cd" stroke-dasharray="5,2" d="M229.216,-23.2513C262.845,-36.2753 313.348,-55.8341 343.259,-67.4183"/>
<polygon fill="#9a32cd" stroke="#9a32cd" points="230.376,-19.9472 219.787,-19.5995 227.848,-26.4748 230.376,-19.9472"/>
<text text-anchor="middle" x="283" y="-61" font-family="Helvetica,sans-Serif" font-size="10.00"> mem_manager_</text>
</g>
<!-- Node7&#45;&gt;Node7 -->
<g id="edge8" class="edge"><title>Node7&#45;&gt;Node7</title>
<path fill="none" stroke="#9a32cd" stroke-dasharray="5,2" d="M180.372,-29.7663C181.443,-34.4965 185.985,-38 194,-38 207.152,-38 210.954,-28.5653 205.406,-19.7571"/>
<polygon fill="#9a32cd" stroke="#9a32cd" points="183.844,-30.2779 182.594,-19.7571 177.01,-28.7609 183.844,-30.2779"/>
<text text-anchor="middle" x="194" y="-41" font-family="Helvetica,sans-Serif" font-size="10.00"> super_</text>
</g>
<!-- Node8&#45;&gt;Node1 -->
<g id="edge9" class="edge"><title>Node8&#45;&gt;Node1</title>
<path fill="none" stroke="#9a32cd" stroke-dasharray="5,2" d="M1141.37,-122.408C1170.21,-109.909 1212.26,-91.6885 1237.78,-80.6303"/>
<polygon fill="#9a32cd" stroke="#9a32cd" points="1139.92,-119.221 1132.13,-126.409 1142.7,-125.644 1139.92,-119.221"/>
<text text-anchor="middle" x="1180" y="-117" font-family="Helvetica,sans-Serif" font-size="10.00"> queue_</text>
</g>
<!-- Node9 -->
<g id="node9" class="node"><title>Node9</title>
<g id="a_node9"><a xlink:href="classthrill_1_1common_1_1AtomicMovable.html" target="_top" xlink:title="AtomicMovable\&lt; bool \&gt;">
<polygon fill="none" stroke="black" points="825,-231.5 825,-250.5 945,-250.5 945,-231.5 825,-231.5"/>
<text text-anchor="middle" x="885" y="-238.5" font-family="Helvetica,sans-Serif" font-size="10.00">AtomicMovable&lt; bool &gt;</text>
</a>
</g>
</g>
<!-- Node9&#45;&gt;Node8 -->
<g id="edge11" class="edge"><title>Node9&#45;&gt;Node8</title>
<path fill="none" stroke="#9a32cd" stroke-dasharray="5,2" d="M955.056,-234.671C987.628,-229.2 1025.86,-219.004 1056,-200 1077.8,-186.256 1094.65,-160.199 1102.74,-145.939"/>
<polygon fill="#9a32cd" stroke="#9a32cd" points="954.483,-231.218 945.144,-236.221 955.565,-238.134 954.483,-231.218"/>
<text text-anchor="middle" x="1019" y="-231" font-family="Helvetica,sans-Serif" font-size="10.00"> write_closed_</text>
</g>
<!-- Node10 -->
<g id="node10" class="node"><title>Node10</title>
<g id="a_node10"><a xlink:href="classthrill_1_1common_1_1AtomicMovable.html" target="_top" xlink:title="This is a derivative of std::atomic which enables easier and less error&#45;prone writing of move&#45;only cl...">
<polygon fill="none" stroke="black" points="524,-231.5 524,-250.5 632,-250.5 632,-231.5 524,-231.5"/>
<text text-anchor="middle" x="578" y="-238.5" font-family="Helvetica,sans-Serif" font-size="10.00">AtomicMovable&lt; T &gt;</text>
</a>
</g>
</g>
<!-- Node10&#45;&gt;Node9 -->
<g id="edge12" class="edge"><title>Node10&#45;&gt;Node9</title>
<path fill="none" stroke="orange" stroke-dasharray="5,2" d="M642.217,-241C695.94,-241 772.482,-241 824.973,-241"/>
<polygon fill="orange" stroke="orange" points="642.127,-237.5 632.127,-241 642.127,-244.5 642.127,-237.5"/>
<text text-anchor="middle" x="735" y="-244" font-family="Helvetica,sans-Serif" font-size="10.00"> &lt; bool &gt;</text>
</g>
<!-- Node11 -->
<g id="node11" class="node"><title>Node11</title>
<g id="a_node11"><a xlink:href="classtlx_1_1Delegate.html" target="_top" xlink:title="Delegate\&lt; void(BlockQueue &amp;)\&gt;">
<polygon fill="none" stroke="black" points="806,-193.5 806,-212.5 964,-212.5 964,-193.5 806,-193.5"/>
<text text-anchor="middle" x="885" y="-200.5" font-family="Helvetica,sans-Serif" font-size="10.00">Delegate&lt; void(BlockQueue &amp;)&gt;</text>
</a>
</g>
</g>
<!-- Node11&#45;&gt;Node8 -->
<g id="edge13" class="edge"><title>Node11&#45;&gt;Node8</title>
<path fill="none" stroke="#9a32cd" stroke-dasharray="5,2" d="M955.318,-191.479C986.643,-185.166 1023.78,-176.119 1056,-164 1068.86,-159.163 1082.5,-151.719 1092.59,-145.721"/>
<polygon fill="#9a32cd" stroke="#9a32cd" points="954.503,-188.072 945.365,-193.433 955.852,-194.941 954.503,-188.072"/>
<text text-anchor="middle" x="1019" y="-188" font-family="Helvetica,sans-Serif" font-size="10.00"> close_callback_</text>
</g>
<!-- Node12 -->
<g id="node12" class="node"><title>Node12</title>
<g id="a_node12"><a xlink:href="classtlx_1_1Delegate.html" target="_top" xlink:title="Delegate\&lt; T, Allocator \&gt;">
<polygon fill="none" stroke="black" points="516,-193.5 516,-212.5 640,-212.5 640,-193.5 516,-193.5"/>
<text text-anchor="middle" x="578" y="-200.5" font-family="Helvetica,sans-Serif" font-size="10.00">Delegate&lt; T, Allocator &gt;</text>
</a>
</g>
</g>
<!-- Node12&#45;&gt;Node11 -->
<g id="edge14" class="edge"><title>Node12&#45;&gt;Node11</title>
<path fill="none" stroke="orange" stroke-dasharray="5,2" d="M650.381,-203C697.03,-203 757.963,-203 805.902,-203"/>
<polygon fill="orange" stroke="orange" points="650.354,-199.5 640.354,-203 650.354,-206.5 650.354,-199.5"/>
<text text-anchor="middle" x="735" y="-206" font-family="Helvetica,sans-Serif" font-size="10.00"> &lt; void(BlockQueue &amp;)&gt;</text>
</g>
<!-- Node13 -->
<g id="node13" class="node"><title>Node13</title>
<g id="a_node13"><a xlink:href="classthrill_1_1common_1_1OurConcurrentBoundedQueue.html" target="_top" xlink:title="OurConcurrentBoundedQueue\l\&lt; thrill::data::Block \&gt;">
<polygon fill="none" stroke="black" points="811.5,-144 811.5,-174 958.5,-174 958.5,-144 811.5,-144"/>
<text text-anchor="start" x="819.5" y="-162" font-family="Helvetica,sans-Serif" font-size="10.00">OurConcurrentBoundedQueue</text>
<text text-anchor="middle" x="885" y="-151" font-family="Helvetica,sans-Serif" font-size="10.00">&lt; thrill::data::Block &gt;</text>
</a>
</g>
</g>
<!-- Node13&#45;&gt;Node8 -->
<g id="edge15" class="edge"><title>Node13&#45;&gt;Node8</title>
<path fill="none" stroke="#9a32cd" stroke-dasharray="5,2" d="M968.81,-150.421C1005.14,-146.657 1045.79,-142.445 1073.73,-139.55"/>
<polygon fill="#9a32cd" stroke="#9a32cd" points="968.277,-146.957 958.691,-151.469 968.999,-153.92 968.277,-146.957"/>
<text text-anchor="middle" x="1019" y="-152" font-family="Helvetica,sans-Serif" font-size="10.00"> queue_</text>
</g>
<!-- Node14 -->
<g id="node14" class="node"><title>Node14</title>
<g id="a_node14"><a xlink:href="classthrill_1_1common_1_1OurConcurrentBoundedQueue.html" target="_top" xlink:title="This is a queue, similar to std::queue and tbb::concurrent_bounded_queue, except that it uses mutexes...">
<polygon fill="none" stroke="black" points="492.5,-155.5 492.5,-174.5 663.5,-174.5 663.5,-155.5 492.5,-155.5"/>
<text text-anchor="middle" x="578" y="-162.5" font-family="Helvetica,sans-Serif" font-size="10.00">OurConcurrentBoundedQueue&lt; T &gt;</text>
</a>
</g>
</g>
<!-- Node14&#45;&gt;Node13 -->
<g id="edge16" class="edge"><title>Node14&#45;&gt;Node13</title>
<path fill="none" stroke="orange" stroke-dasharray="5,2" d="M673.782,-163.135C718.185,-162.262 770.245,-161.238 811.448,-160.427"/>
<polygon fill="orange" stroke="orange" points="673.484,-159.641 663.554,-163.337 673.621,-166.639 673.484,-159.641"/>
<text text-anchor="middle" x="735" y="-166" font-family="Helvetica,sans-Serif" font-size="10.00"> &lt; thrill::data::Block &gt;</text>
</g>
<!-- Node15&#45;&gt;Node8 -->
<g id="edge17" class="edge"><title>Node15&#45;&gt;Node8</title>
<path fill="none" stroke="#9a32cd" stroke-dasharray="5,2" d="M911.326,-114.635C944.674,-114.509 1005.05,-115.508 1056,-123 1061.89,-123.866 1068.09,-125.112 1074.07,-126.493"/>
<polygon fill="#9a32cd" stroke="#9a32cd" points="911.078,-111.137 901.105,-114.713 911.132,-118.137 911.078,-111.137"/>
<text text-anchor="middle" x="1019" y="-126" font-family="Helvetica,sans-Serif" font-size="10.00"> file_</text>
</g>
<!-- Node16 -->
<g id="node16" class="node"><title>Node16</title>
<g id="a_node16"><a xlink:href="classtlx_1_1ReferenceCounter.html" target="_top" xlink:title="Provides reference counting abilities for use with CountingPtr. ">
<polygon fill="none" stroke="black" points="530,-117.5 530,-136.5 626,-136.5 626,-117.5 530,-117.5"/>
<text text-anchor="middle" x="578" y="-124.5" font-family="Helvetica,sans-Serif" font-size="10.00">ReferenceCounter</text>
</a>
</g>
</g>
<!-- Node16&#45;&gt;Node15 -->
<g id="edge19" class="edge"><title>Node16&#45;&gt;Node15</title>
<path fill="none" stroke="midnightblue" d="M636.572,-124.735C708.446,-121.907 827.028,-117.242 868.838,-115.597"/>
<polygon fill="midnightblue" stroke="midnightblue" points="636.176,-121.248 626.322,-125.138 636.452,-128.242 636.176,-121.248"/>
</g>
</g>
</svg>
