<?xml version="1.0" encoding="UTF-8" standalone="no"?>
<!DOCTYPE svg PUBLIC "-//W3C//DTD SVG 1.1//EN"
 "http://www.w3.org/Graphics/SVG/1.1/DTD/svg11.dtd">
<!-- Generated by graphviz version 2.36.0 (20140111.2315)
 -->
<!-- Title: Singleton&lt; Instance, destroy_on_exit &gt; Pages: 1 -->
<svg width="498pt" height="180pt"
 viewBox="0.00 0.00 498.00 180.00" xmlns="http://www.w3.org/2000/svg" xmlns:xlink="http://www.w3.org/1999/xlink">
<g id="graph0" class="graph" transform="scale(1 1) rotate(0) translate(4 176)">
<title>Singleton&lt; Instance, destroy_on_exit &gt;</title>
<!-- Node1 -->
<g id="node1" class="node"><title>Node1</title>
<polygon fill="#bfbfbf" stroke="black" points="0.5,-71 0.5,-101 107.5,-101 107.5,-71 0.5,-71"/>
<text text-anchor="start" x="8.5" y="-89" font-family="Helvetica,sans-Serif" font-size="10.00">Singleton&lt; Instance,</text>
<text text-anchor="middle" x="54" y="-78" font-family="Helvetica,sans-Serif" font-size="10.00"> destroy_on_exit &gt;</text>
</g>
<!-- Node2 -->
<g id="node2" class="node"><title>Node2</title>
<g id="a_node2"><a xlink:href="classthrill_1_1io_1_1DiskQueues.html" target="_top" xlink:title="DiskQueues\&lt; DiskQueues \&gt;">
<polygon fill="none" stroke="black" points="228.5,-152.5 228.5,-171.5 371.5,-171.5 371.5,-152.5 228.5,-152.5"/>
<text text-anchor="middle" x="300" y="-159.5" font-family="Helvetica,sans-Serif" font-size="10.00">DiskQueues&lt; DiskQueues &gt;</text>
</a>
</g>
</g>
<!-- Node1&#45;&gt;Node2 -->
<g id="edge1" class="edge"><title>Node1&#45;&gt;Node2</title>
<path fill="none" stroke="midnightblue" d="M85.5874,-106.576C97.7328,-113.955 112.102,-121.743 126,-127 158.53,-139.306 196.222,-147.58 228.103,-152.978"/>
<polygon fill="midnightblue" stroke="midnightblue" points="87.1111,-103.4 76.7779,-101.061 83.3966,-109.334 87.1111,-103.4"/>
</g>
<!-- Node3 -->
<g id="node3" class="node"><title>Node3</title>
<g id="a_node3"><a xlink:href="classthrill_1_1common_1_1Singleton.html" target="_top" xlink:title="Singleton\&lt; Config \&gt;">
<polygon fill="none" stroke="black" points="248,-114.5 248,-133.5 352,-133.5 352,-114.5 248,-114.5"/>
<text text-anchor="middle" x="300" y="-121.5" font-family="Helvetica,sans-Serif" font-size="10.00">Singleton&lt; Config &gt;</text>
</a>
</g>
</g>
<!-- Node1&#45;&gt;Node3 -->
<g id="edge2" class="edge"><title>Node1&#45;&gt;Node3</title>
<path fill="none" stroke="orange" stroke-dasharray="5,2" d="M117.78,-98.578C120.556,-99.0713 123.305,-99.5477 126,-100 166.819,-106.85 213.293,-113.219 247.787,-117.671"/>
<polygon fill="orange" stroke="orange" points="118.135,-95.085 107.669,-96.7314 116.877,-101.971 118.135,-95.085"/>
<text text-anchor="middle" x="168" y="-115" font-family="Helvetica,sans-Serif" font-size="10.00"> &lt; Config &gt;</text>
</g>
<!-- Node5 -->
<g id="node5" class="node"><title>Node5</title>
<g id="a_node5"><a xlink:href="classthrill_1_1common_1_1Singleton.html" target="_top" xlink:title="Singleton\&lt; Stats \&gt;">
<polygon fill="none" stroke="black" points="251,-76.5 251,-95.5 349,-95.5 349,-76.5 251,-76.5"/>
<text text-anchor="middle" x="300" y="-83.5" font-family="Helvetica,sans-Serif" font-size="10.00">Singleton&lt; Stats &gt;</text>
</a>
</g>
</g>
<!-- Node1&#45;&gt;Node5 -->
<g id="edge4" class="edge"><title>Node1&#45;&gt;Node5</title>
<path fill="none" stroke="orange" stroke-dasharray="5,2" d="M117.884,-86C159.237,-86 212.542,-86 250.595,-86"/>
<polygon fill="orange" stroke="orange" points="117.644,-82.5001 107.644,-86 117.644,-89.5001 117.644,-82.5001"/>
<text text-anchor="middle" x="168" y="-89" font-family="Helvetica,sans-Serif" font-size="10.00"> &lt; Stats &gt;</text>
</g>
<!-- Node7 -->
<g id="node7" class="node"><title>Node7</title>
<g id="a_node7"><a xlink:href="classthrill_1_1common_1_1Singleton.html" target="_top" xlink:title="Singleton\&lt; BlockManager \&gt;">
<polygon fill="none" stroke="black" points="231.5,-38.5 231.5,-57.5 368.5,-57.5 368.5,-38.5 231.5,-38.5"/>
<text text-anchor="middle" x="300" y="-45.5" font-family="Helvetica,sans-Serif" font-size="10.00">Singleton&lt; BlockManager &gt;</text>
</a>
</g>
</g>
<!-- Node1&#45;&gt;Node7 -->
<g id="edge6" class="edge"><title>Node1&#45;&gt;Node7</title>
<path fill="none" stroke="orange" stroke-dasharray="5,2" d="M117.478,-72.5255C120.355,-71.9917 123.206,-71.4801 126,-71 160.639,-65.0472 199.407,-59.7667 231.45,-55.7715"/>
<polygon fill="orange" stroke="orange" points="116.805,-69.0907 107.644,-74.4127 118.125,-75.9652 116.805,-69.0907"/>
<text text-anchor="middle" x="168" y="-74" font-family="Helvetica,sans-Serif" font-size="10.00"> &lt; BlockManager &gt;</text>
</g>
<!-- Node9 -->
<g id="node9" class="node"><title>Node9</title>
<g id="a_node9"><a xlink:href="classthrill_1_1common_1_1Singleton.html" target="_top" xlink:title="Singleton\&lt; DiskQueues \&gt;">
<polygon fill="none" stroke="black" points="235.5,-0.5 235.5,-19.5 364.5,-19.5 364.5,-0.5 235.5,-0.5"/>
<text text-anchor="middle" x="300" y="-7.5" font-family="Helvetica,sans-Serif" font-size="10.00">Singleton&lt; DiskQueues &gt;</text>
</a>
</g>
</g>
<!-- Node1&#45;&gt;Node9 -->
<g id="edge8" class="edge"><title>Node1&#45;&gt;Node9</title>
<path fill="none" stroke="orange" stroke-dasharray="5,2" d="M83.9663,-65.2349C96.3886,-57.2021 111.385,-48.6102 126,-43 160.968,-29.577 202.084,-21.444 235.457,-16.6118"/>
<polygon fill="orange" stroke="orange" points="81.7966,-62.4749 75.4182,-70.9346 85.6799,-68.2989 81.7966,-62.4749"/>
<text text-anchor="middle" x="168" y="-46" font-family="Helvetica,sans-Serif" font-size="10.00"> &lt; DiskQueues &gt;</text>
</g>
<!-- Node4 -->
<g id="node4" class="node"><title>Node4</title>
<g id="a_node4"><a xlink:href="classthrill_1_1io_1_1Config.html" target="_top" xlink:title="Config">
<polygon fill="none" stroke="black" points="427.5,-114.5 427.5,-133.5 472.5,-133.5 472.5,-114.5 427.5,-114.5"/>
<text text-anchor="middle" x="450" y="-121.5" font-family="Helvetica,sans-Serif" font-size="10.00">Config</text>
</a>
</g>
</g>
<!-- Node3&#45;&gt;Node4 -->
<g id="edge3" class="edge"><title>Node3&#45;&gt;Node4</title>
<path fill="none" stroke="midnightblue" d="M362.463,-124C385.565,-124 410.345,-124 427.442,-124"/>
<polygon fill="midnightblue" stroke="midnightblue" points="362.348,-120.5 352.348,-124 362.348,-127.5 362.348,-120.5"/>
</g>
<!-- Node6 -->
<g id="node6" class="node"><title>Node6</title>
<g id="a_node6"><a xlink:href="classthrill_1_1io_1_1Stats.html" target="_top" xlink:title="Collects various I/O statistics. ">
<polygon fill="none" stroke="black" points="430,-76.5 430,-95.5 470,-95.5 470,-76.5 430,-76.5"/>
<text text-anchor="middle" x="450" y="-83.5" font-family="Helvetica,sans-Serif" font-size="10.00">Stats</text>
</a>
</g>
</g>
<!-- Node5&#45;&gt;Node6 -->
<g id="edge5" class="edge"><title>Node5&#45;&gt;Node6</title>
<path fill="none" stroke="midnightblue" d="M359.256,-86C384.373,-86 412.027,-86 429.906,-86"/>
<polygon fill="midnightblue" stroke="midnightblue" points="359.051,-82.5001 349.051,-86 359.051,-89.5001 359.051,-82.5001"/>
</g>
<!-- Node8 -->
<g id="node8" class="node"><title>Node8</title>
<g id="a_node8"><a xlink:href="classthrill_1_1io_1_1BlockManager.html" target="_top" xlink:title="BlockManager">
<polygon fill="none" stroke="black" points="410.5,-38.5 410.5,-57.5 489.5,-57.5 489.5,-38.5 410.5,-38.5"/>
<text text-anchor="middle" x="450" y="-45.5" font-family="Helvetica,sans-Serif" font-size="10.00">BlockManager</text>
</a>
</g>
</g>
<!-- Node7&#45;&gt;Node8 -->
<g id="edge7" class="edge"><title>Node7&#45;&gt;Node8</title>
<path fill="none" stroke="midnightblue" d="M378.607,-48C389.607,-48 400.5,-48 410.311,-48"/>
<polygon fill="midnightblue" stroke="midnightblue" points="378.504,-44.5001 368.504,-48 378.504,-51.5001 378.504,-44.5001"/>
</g>
</g>
</svg>
