<?xml version="1.0" encoding="UTF-8" standalone="no"?>
<!DOCTYPE svg PUBLIC "-//W3C//DTD SVG 1.1//EN"
 "http://www.w3.org/Graphics/SVG/1.1/DTD/svg11.dtd">
<!-- Generated by graphviz version 2.36.0 (20140111.2315)
 -->
<!-- Title: Dispatcher::MpiAsync Pages: 1 -->
<svg width="1092pt" height="422pt"
 viewBox="0.00 0.00 1092.00 422.00" xmlns="http://www.w3.org/2000/svg" xmlns:xlink="http://www.w3.org/1999/xlink">
<g id="graph0" class="graph" transform="scale(1 1) rotate(0) translate(4 418)">
<title>Dispatcher::MpiAsync</title>
<!-- Node1 -->
<g id="node1" class="node"><title>Node1</title>
<polygon fill="#bfbfbf" stroke="black" points="970.5,-191.5 970.5,-210.5 1083.5,-210.5 1083.5,-191.5 970.5,-191.5"/>
<text text-anchor="middle" x="1027" y="-198.5" font-family="Helvetica,sans-Serif" font-size="10.00">Dispatcher::MpiAsync</text>
</g>
<!-- Node2 -->
<g id="node2" class="node"><title>Node2</title>
<g id="a_node2"><a xlink:href="classthrill_1_1net_1_1AsyncWriteBlock.html" target="_top" xlink:title="AsyncWriteBlock">
<polygon fill="none" stroke="black" points="751,-88.5 751,-107.5 843,-107.5 843,-88.5 751,-88.5"/>
<text text-anchor="middle" x="797" y="-95.5" font-family="Helvetica,sans-Serif" font-size="10.00">AsyncWriteBlock</text>
</a>
</g>
</g>
<!-- Node2&#45;&gt;Node1 -->
<g id="edge1" class="edge"><title>Node2&#45;&gt;Node1</title>
<path fill="none" stroke="#9a32cd" stroke-dasharray="5,2" d="M830.351,-111.603C861.636,-124.868 910.299,-145.796 952,-165 970.816,-173.665 992.058,-184.064 1006.94,-191.452"/>
<polygon fill="#9a32cd" stroke="#9a32cd" points="831.409,-108.25 820.835,-107.577 828.681,-114.697 831.409,-108.25"/>
<text text-anchor="middle" x="912" y="-168" font-family="Helvetica,sans-Serif" font-size="10.00"> write_block_</text>
</g>
<!-- Node3 -->
<g id="node3" class="node"><title>Node3</title>
<g id="a_node3"><a xlink:href="classthrill_1_1net_1_1Connection.html" target="_top" xlink:title="A Connection represents a link to another peer in a network group. ">
<polygon fill="none" stroke="black" points="545,-209.5 545,-228.5 611,-228.5 611,-209.5 545,-209.5"/>
<text text-anchor="middle" x="578" y="-216.5" font-family="Helvetica,sans-Serif" font-size="10.00">Connection</text>
</a>
</g>
</g>
<!-- Node3&#45;&gt;Node2 -->
<g id="edge2" class="edge"><title>Node3&#45;&gt;Node2</title>
<path fill="none" stroke="#9a32cd" stroke-dasharray="5,2" d="M620.794,-206.381C634.076,-200.688 647.917,-192.761 658,-182 673.011,-165.98 659.97,-151.001 676,-136 696.264,-117.037 725.956,-107.537 750.733,-102.777"/>
<polygon fill="#9a32cd" stroke="#9a32cd" points="619.297,-203.209 611.284,-210.14 621.87,-209.719 619.297,-203.209"/>
<text text-anchor="middle" x="699" y="-139" font-family="Helvetica,sans-Serif" font-size="10.00"> conn_</text>
</g>
<!-- Node9 -->
<g id="node9" class="node"><title>Node9</title>
<g id="a_node9"><a xlink:href="classthrill_1_1net_1_1AsyncWriteBuffer.html" target="_top" xlink:title="AsyncWriteBuffer">
<polygon fill="none" stroke="black" points="750,-158.5 750,-177.5 844,-177.5 844,-158.5 750,-158.5"/>
<text text-anchor="middle" x="797" y="-165.5" font-family="Helvetica,sans-Serif" font-size="10.00">AsyncWriteBuffer</text>
</a>
</g>
</g>
<!-- Node3&#45;&gt;Node9 -->
<g id="edge10" class="edge"><title>Node3&#45;&gt;Node9</title>
<path fill="none" stroke="#9a32cd" stroke-dasharray="5,2" d="M612.785,-205.842C631.23,-199.083 654.608,-191.199 676,-186 700.053,-180.154 727.306,-175.883 749.754,-172.972"/>
<polygon fill="#9a32cd" stroke="#9a32cd" points="611.507,-202.583 603.359,-209.355 613.952,-209.142 611.507,-202.583"/>
<text text-anchor="middle" x="699" y="-189" font-family="Helvetica,sans-Serif" font-size="10.00"> conn_</text>
</g>
<!-- Node11 -->
<g id="node11" class="node"><title>Node11</title>
<g id="a_node11"><a xlink:href="classthrill_1_1net_1_1AsyncReadByteBlock.html" target="_top" xlink:title="AsyncReadByteBlock">
<polygon fill="none" stroke="black" points="740.5,-311.5 740.5,-330.5 853.5,-330.5 853.5,-311.5 740.5,-311.5"/>
<text text-anchor="middle" x="797" y="-318.5" font-family="Helvetica,sans-Serif" font-size="10.00">AsyncReadByteBlock</text>
</a>
</g>
</g>
<!-- Node3&#45;&gt;Node11 -->
<g id="edge15" class="edge"><title>Node3&#45;&gt;Node11</title>
<path fill="none" stroke="#9a32cd" stroke-dasharray="5,2" d="M611.405,-232.502C625.757,-238.596 642.797,-245.988 658,-253 701.172,-272.911 751.025,-298.008 777.397,-311.454"/>
<polygon fill="#9a32cd" stroke="#9a32cd" points="612.528,-229.177 601.954,-228.511 609.805,-235.626 612.528,-229.177"/>
<text text-anchor="middle" x="699" y="-286" font-family="Helvetica,sans-Serif" font-size="10.00"> conn_</text>
</g>
<!-- Node15 -->
<g id="node15" class="node"><title>Node15</title>
<g id="a_node15"><a xlink:href="classthrill_1_1net_1_1AsyncReadBuffer.html" target="_top" xlink:title="AsyncReadBuffer">
<polygon fill="none" stroke="black" points="750,-226.5 750,-245.5 844,-245.5 844,-226.5 750,-226.5"/>
<text text-anchor="middle" x="797" y="-233.5" font-family="Helvetica,sans-Serif" font-size="10.00">AsyncReadBuffer</text>
</a>
</g>
</g>
<!-- Node3&#45;&gt;Node15 -->
<g id="edge20" class="edge"><title>Node3&#45;&gt;Node15</title>
<path fill="none" stroke="#9a32cd" stroke-dasharray="5,2" d="M621.418,-225.008C638.363,-227.208 658.074,-229.52 676,-231 700.313,-233.007 727.468,-234.224 749.789,-234.954"/>
<polygon fill="#9a32cd" stroke="#9a32cd" points="621.639,-221.506 611.265,-223.66 620.718,-228.445 621.639,-221.506"/>
<text text-anchor="middle" x="699" y="-237" font-family="Helvetica,sans-Serif" font-size="10.00"> conn_</text>
</g>
<!-- Node4 -->
<g id="node4" class="node"><title>Node4</title>
<g id="a_node4"><a xlink:href="classtlx_1_1Delegate.html" target="_top" xlink:title="Delegate\&lt; void(Connection\l &amp;), mem::GPoolAllocator\l\&lt; char \&gt; \&gt;">
<polygon fill="none" stroke="black" points="510.5,-62.5 510.5,-103.5 645.5,-103.5 645.5,-62.5 510.5,-62.5"/>
<text text-anchor="start" x="518.5" y="-91.5" font-family="Helvetica,sans-Serif" font-size="10.00">Delegate&lt; void(Connection</text>
<text text-anchor="start" x="518.5" y="-80.5" font-family="Helvetica,sans-Serif" font-size="10.00"> &amp;), mem::GPoolAllocator</text>
<text text-anchor="middle" x="578" y="-69.5" font-family="Helvetica,sans-Serif" font-size="10.00">&lt; char &gt; &gt;</text>
</a>
</g>
</g>
<!-- Node4&#45;&gt;Node2 -->
<g id="edge3" class="edge"><title>Node4&#45;&gt;Node2</title>
<path fill="none" stroke="#9a32cd" stroke-dasharray="5,2" d="M629.164,-58.7685C656.769,-48.5926 691.513,-40.9781 722,-50 747.256,-57.4739 771.979,-76.5727 785.484,-88.3016"/>
<polygon fill="#9a32cd" stroke="#9a32cd" points="627.761,-55.5585 619.715,-62.4515 630.304,-62.0805 627.761,-55.5585"/>
<text text-anchor="middle" x="699" y="-53" font-family="Helvetica,sans-Serif" font-size="10.00"> callback_</text>
</g>
<!-- Node4&#45;&gt;Node9 -->
<g id="edge11" class="edge"><title>Node4&#45;&gt;Node9</title>
<path fill="none" stroke="#9a32cd" stroke-dasharray="5,2" d="M656.116,-69.2591C678.686,-68.8827 702.509,-72.3372 722,-84 736.336,-92.5783 729.682,-103.861 740,-117 752.832,-133.34 771.156,-148.937 783.305,-158.484"/>
<polygon fill="#9a32cd" stroke="#9a32cd" points="655.7,-65.7733 645.854,-69.6859 655.991,-72.7673 655.7,-65.7733"/>
<text text-anchor="middle" x="699" y="-87" font-family="Helvetica,sans-Serif" font-size="10.00"> callback_</text>
</g>
<!-- Node5 -->
<g id="node5" class="node"><title>Node5</title>
<g id="a_node5"><a xlink:href="classtlx_1_1Delegate.html" target="_top" xlink:title="Delegate\&lt; T, Allocator \&gt;">
<polygon fill="none" stroke="black" points="194,-273.5 194,-292.5 318,-292.5 318,-273.5 194,-273.5"/>
<text text-anchor="middle" x="256" y="-280.5" font-family="Helvetica,sans-Serif" font-size="10.00">Delegate&lt; T, Allocator &gt;</text>
</a>
</g>
</g>
<!-- Node5&#45;&gt;Node4 -->
<g id="edge4" class="edge"><title>Node5&#45;&gt;Node4</title>
<path fill="none" stroke="orange" stroke-dasharray="5,2" d="M281.073,-267.954C337.707,-232.558 479.45,-143.969 544.023,-103.611"/>
<polygon fill="orange" stroke="orange" points="279.059,-265.086 272.434,-273.354 282.769,-271.022 279.059,-265.086"/>
<text text-anchor="start" x="358" y="-255" font-family="Helvetica,sans-Serif" font-size="10.00"> &lt; void(Connection &amp;)</text>
<text text-anchor="start" x="358" y="-244" font-family="Helvetica,sans-Serif" font-size="10.00">, mem::GPoolAllocator</text>
<text text-anchor="middle" x="408" y="-233" font-family="Helvetica,sans-Serif" font-size="10.00">&lt; char &gt; &gt;</text>
</g>
<!-- Node12 -->
<g id="node12" class="node"><title>Node12</title>
<g id="a_node12"><a xlink:href="classtlx_1_1Delegate.html" target="_top" xlink:title="Delegate\&lt; void(Connection\l &amp;c, data::PinnedByteBlockPtr\l &amp;&amp;bytes), mem::GPoolAllocator\l\&lt; char \&gt; \&gt;">
<polygon fill="none" stroke="black" points="498.5,-323 498.5,-375 657.5,-375 657.5,-323 498.5,-323"/>
<text text-anchor="start" x="506.5" y="-363" font-family="Helvetica,sans-Serif" font-size="10.00">Delegate&lt; void(Connection</text>
<text text-anchor="start" x="506.5" y="-352" font-family="Helvetica,sans-Serif" font-size="10.00"> &amp;c, data::PinnedByteBlockPtr</text>
<text text-anchor="start" x="506.5" y="-341" font-family="Helvetica,sans-Serif" font-size="10.00"> &amp;&amp;bytes), mem::GPoolAllocator</text>
<text text-anchor="middle" x="578" y="-330" font-family="Helvetica,sans-Serif" font-size="10.00">&lt; char &gt; &gt;</text>
</a>
</g>
</g>
<!-- Node5&#45;&gt;Node12 -->
<g id="edge14" class="edge"><title>Node5&#45;&gt;Node12</title>
<path fill="none" stroke="orange" stroke-dasharray="5,2" d="M282.534,-297.503C297.623,-305.418 317.368,-314.665 336,-320 388.972,-335.168 450.7,-342.407 498.423,-345.86"/>
<polygon fill="orange" stroke="orange" points="283.811,-294.216 273.348,-292.549 280.488,-300.377 283.811,-294.216"/>
<text text-anchor="start" x="336.5" y="-380" font-family="Helvetica,sans-Serif" font-size="10.00"> &lt; void(Connection &amp;c,</text>
<text text-anchor="start" x="336.5" y="-369" font-family="Helvetica,sans-Serif" font-size="10.00"> data::PinnedByteBlockPtr</text>
<text text-anchor="start" x="336.5" y="-358" font-family="Helvetica,sans-Serif" font-size="10.00"> &amp;&amp;bytes), mem::GPoolAllocator</text>
<text text-anchor="middle" x="408" y="-347" font-family="Helvetica,sans-Serif" font-size="10.00">&lt; char &gt; &gt;</text>
</g>
<!-- Node16 -->
<g id="node16" class="node"><title>Node16</title>
<g id="a_node16"><a xlink:href="classtlx_1_1Delegate.html" target="_top" xlink:title="Delegate\&lt; void(Connection\l &amp;c, Buffer &amp;&amp;buffer),\l mem::GPoolAllocator\&lt; char \&gt; \&gt;">
<polygon fill="none" stroke="black" points="499,-262.5 499,-303.5 657,-303.5 657,-262.5 499,-262.5"/>
<text text-anchor="start" x="507" y="-291.5" font-family="Helvetica,sans-Serif" font-size="10.00">Delegate&lt; void(Connection</text>
<text text-anchor="start" x="507" y="-280.5" font-family="Helvetica,sans-Serif" font-size="10.00"> &amp;c, Buffer &amp;&amp;buffer),</text>
<text text-anchor="middle" x="578" y="-269.5" font-family="Helvetica,sans-Serif" font-size="10.00"> mem::GPoolAllocator&lt; char &gt; &gt;</text>
</a>
</g>
</g>
<!-- Node5&#45;&gt;Node16 -->
<g id="edge22" class="edge"><title>Node5&#45;&gt;Node16</title>
<path fill="none" stroke="orange" stroke-dasharray="5,2" d="M328.518,-283C379.094,-283 446.875,-283 498.869,-283"/>
<polygon fill="orange" stroke="orange" points="328.321,-279.5 318.321,-283 328.321,-286.5 328.321,-279.5"/>
<text text-anchor="start" x="349" y="-308" font-family="Helvetica,sans-Serif" font-size="10.00"> &lt; void(Connection &amp;c,</text>
<text text-anchor="start" x="349" y="-297" font-family="Helvetica,sans-Serif" font-size="10.00"> Buffer &amp;&amp;buffer), mem</text>
<text text-anchor="middle" x="408" y="-286" font-family="Helvetica,sans-Serif" font-size="10.00">::GPoolAllocator&lt; char &gt; &gt;</text>
</g>
<!-- Node6 -->
<g id="node6" class="node"><title>Node6</title>
<g id="a_node6"><a xlink:href="classthrill_1_1data_1_1PinnedBlock.html" target="_top" xlink:title="A pinned / pin&#45;counted derivative of a Block. ">
<polygon fill="none" stroke="black" points="542.5,-5.5 542.5,-24.5 613.5,-24.5 613.5,-5.5 542.5,-5.5"/>
<text text-anchor="middle" x="578" y="-12.5" font-family="Helvetica,sans-Serif" font-size="10.00">PinnedBlock</text>
</a>
</g>
</g>
<!-- Node6&#45;&gt;Node2 -->
<g id="edge5" class="edge"><title>Node6&#45;&gt;Node2</title>
<path fill="none" stroke="#9a32cd" stroke-dasharray="5,2" d="M624.081,-13.0541C653.21,-13.4498 691.272,-17.1445 722,-31 751.07,-44.1079 776.58,-72.9855 788.63,-88.1923"/>
<polygon fill="#9a32cd" stroke="#9a32cd" points="623.787,-9.55393 613.784,-13.0449 623.781,-16.5539 623.787,-9.55393"/>
<text text-anchor="middle" x="699" y="-34" font-family="Helvetica,sans-Serif" font-size="10.00"> block_</text>
</g>
<!-- Node7 -->
<g id="node7" class="node"><title>Node7</title>
<g id="a_node7"><a xlink:href="classthrill_1_1data_1_1Block.html" target="_top" xlink:title="Block combines a reference to a read&#45;only ByteBlock and book&#45;keeping information. ...">
<polygon fill="none" stroke="black" points="235.5,-5.5 235.5,-24.5 276.5,-24.5 276.5,-5.5 235.5,-5.5"/>
<text text-anchor="middle" x="256" y="-12.5" font-family="Helvetica,sans-Serif" font-size="10.00">Block</text>
</a>
</g>
</g>
<!-- Node7&#45;&gt;Node6 -->
<g id="edge6" class="edge"><title>Node7&#45;&gt;Node6</title>
<path fill="none" stroke="#8b1a1a" d="M286.74,-15C346.162,-15 479.271,-15 542.449,-15"/>
<polygon fill="#8b1a1a" stroke="#8b1a1a" points="286.536,-11.5001 276.536,-15 286.536,-18.5001 286.536,-11.5001"/>
</g>
<!-- Node8 -->
<g id="node8" class="node"><title>Node8</title>
<g id="a_node8"><a xlink:href="classtlx_1_1CountingPtr.html" target="_top" xlink:title="High&#45;performance smart pointer used as a wrapping reference counting pointer. ">
<polygon fill="none" stroke="black" points="0,-0 0,-30 102,-30 102,-0 0,-0"/>
<text text-anchor="start" x="8" y="-18" font-family="Helvetica,sans-Serif" font-size="10.00">CountingPtr&lt; Type,</text>
<text text-anchor="middle" x="51" y="-7" font-family="Helvetica,sans-Serif" font-size="10.00"> Deleter &gt;</text>
</a>
</g>
</g>
<!-- Node8&#45;&gt;Node7 -->
<g id="edge7" class="edge"><title>Node8&#45;&gt;Node7</title>
<path fill="none" stroke="#9a32cd" stroke-dasharray="5,2" d="M112.269,-15C154.067,-15 207.103,-15 235.29,-15"/>
<polygon fill="#9a32cd" stroke="#9a32cd" points="112.18,-11.5001 102.18,-15 112.18,-18.5001 112.18,-11.5001"/>
<text text-anchor="middle" x="148" y="-18" font-family="Helvetica,sans-Serif" font-size="10.00"> byte_block_</text>
</g>
<!-- Node9&#45;&gt;Node1 -->
<g id="edge8" class="edge"><title>Node9&#45;&gt;Node1</title>
<path fill="none" stroke="#9a32cd" stroke-dasharray="5,2" d="M854.292,-176.148C889.634,-181.263 935.025,-187.833 970.261,-192.933"/>
<polygon fill="#9a32cd" stroke="#9a32cd" points="854.537,-172.647 844.139,-174.678 853.535,-179.574 854.537,-172.647"/>
<text text-anchor="middle" x="912" y="-193" font-family="Helvetica,sans-Serif" font-size="10.00"> write_buffer_</text>
</g>
<!-- Node10 -->
<g id="node10" class="node"><title>Node10</title>
<g id="a_node10"><a xlink:href="classthrill_1_1net_1_1Buffer.html" target="_top" xlink:title="Simple buffer of characters without initialization or growing functionality. ">
<polygon fill="none" stroke="black" points="556.5,-153.5 556.5,-172.5 599.5,-172.5 599.5,-153.5 556.5,-153.5"/>
<text text-anchor="middle" x="578" y="-160.5" font-family="Helvetica,sans-Serif" font-size="10.00">Buffer</text>
</a>
</g>
</g>
<!-- Node10&#45;&gt;Node9 -->
<g id="edge9" class="edge"><title>Node10&#45;&gt;Node9</title>
<path fill="none" stroke="#9a32cd" stroke-dasharray="5,2" d="M609.811,-157.374C638.804,-152.851 683.411,-147.876 722,-152 734.285,-153.313 747.526,-155.819 759.364,-158.465"/>
<polygon fill="#9a32cd" stroke="#9a32cd" points="609.178,-153.931 599.876,-159.002 610.31,-160.839 609.178,-153.931"/>
<text text-anchor="middle" x="699" y="-155" font-family="Helvetica,sans-Serif" font-size="10.00"> buffer_</text>
</g>
<!-- Node10&#45;&gt;Node15 -->
<g id="edge19" class="edge"><title>Node10&#45;&gt;Node15</title>
<path fill="none" stroke="#9a32cd" stroke-dasharray="5,2" d="M609.418,-173.863C628.502,-180.628 653.643,-189.45 676,-197 706.509,-207.303 741.548,-218.633 765.854,-226.413"/>
<polygon fill="#9a32cd" stroke="#9a32cd" points="610.361,-170.484 599.766,-170.434 608.018,-177.08 610.361,-170.484"/>
<text text-anchor="middle" x="699" y="-215" font-family="Helvetica,sans-Serif" font-size="10.00"> buffer_</text>
</g>
<!-- Node11&#45;&gt;Node1 -->
<g id="edge12" class="edge"><title>Node11&#45;&gt;Node1</title>
<path fill="none" stroke="#9a32cd" stroke-dasharray="5,2" d="M825.281,-306.641C872.353,-281.867 967.62,-231.726 1007.64,-210.663"/>
<polygon fill="#9a32cd" stroke="#9a32cd" points="823.492,-303.628 816.273,-311.383 826.752,-309.822 823.492,-303.628"/>
<text text-anchor="middle" x="912" y="-282" font-family="Helvetica,sans-Serif" font-size="10.00"> read_byte_block_</text>
</g>
<!-- Node12&#45;&gt;Node11 -->
<g id="edge13" class="edge"><title>Node12&#45;&gt;Node11</title>
<path fill="none" stroke="#9a32cd" stroke-dasharray="5,2" d="M667.917,-339.74C685.843,-337.679 704.539,-335.391 722,-333 727.932,-332.188 734.121,-331.28 740.283,-330.337"/>
<polygon fill="#9a32cd" stroke="#9a32cd" points="667.301,-336.287 657.76,-340.893 668.091,-343.243 667.301,-336.287"/>
<text text-anchor="middle" x="699" y="-341" font-family="Helvetica,sans-Serif" font-size="10.00"> callback_</text>
</g>
<!-- Node13 -->
<g id="node13" class="node"><title>Node13</title>
<g id="a_node13"><a xlink:href="classthrill_1_1data_1_1PinnedByteBlockPtr.html" target="_top" xlink:title="A pinned / pin&#45;counted pointer to a ByteBlock. ">
<polygon fill="none" stroke="black" points="526,-394.5 526,-413.5 630,-413.5 630,-394.5 526,-394.5"/>
<text text-anchor="middle" x="578" y="-401.5" font-family="Helvetica,sans-Serif" font-size="10.00">PinnedByteBlockPtr</text>
</a>
</g>
</g>
<!-- Node13&#45;&gt;Node11 -->
<g id="edge16" class="edge"><title>Node13&#45;&gt;Node11</title>
<path fill="none" stroke="#9a32cd" stroke-dasharray="5,2" d="M632.189,-391.936C640.894,-389.562 649.757,-386.898 658,-384 702.225,-368.45 751.667,-344.066 777.69,-330.651"/>
<polygon fill="#9a32cd" stroke="#9a32cd" points="631.252,-388.563 622.47,-394.49 633.031,-395.333 631.252,-388.563"/>
<text text-anchor="middle" x="699" y="-379" font-family="Helvetica,sans-Serif" font-size="10.00"> block_</text>
</g>
<!-- Node14 -->
<g id="node14" class="node"><title>Node14</title>
<g id="a_node14"><a xlink:href="classtlx_1_1CountingPtr.html" target="_top" xlink:title="High&#45;performance smart pointer used as a wrapping reference counting pointer. ">
<polygon fill="none" stroke="black" points="219,-394.5 219,-413.5 293,-413.5 293,-394.5 219,-394.5"/>
<text text-anchor="middle" x="256" y="-401.5" font-family="Helvetica,sans-Serif" font-size="10.00">ByteBlockPtr</text>
</a>
</g>
</g>
<!-- Node14&#45;&gt;Node13 -->
<g id="edge17" class="edge"><title>Node14&#45;&gt;Node13</title>
<path fill="none" stroke="midnightblue" d="M303.252,-404C362.364,-404 464.374,-404 525.781,-404"/>
<polygon fill="midnightblue" stroke="midnightblue" points="303.086,-400.5 293.086,-404 303.086,-407.5 303.086,-400.5"/>
</g>
<!-- Node15&#45;&gt;Node1 -->
<g id="edge18" class="edge"><title>Node15&#45;&gt;Node1</title>
<path fill="none" stroke="#9a32cd" stroke-dasharray="5,2" d="M854.292,-227.359C889.634,-221.933 935.025,-214.965 970.261,-209.556"/>
<polygon fill="#9a32cd" stroke="#9a32cd" points="853.492,-223.94 844.139,-228.917 854.555,-230.859 853.492,-223.94"/>
<text text-anchor="middle" x="912" y="-227" font-family="Helvetica,sans-Serif" font-size="10.00"> read_buffer_</text>
</g>
<!-- Node16&#45;&gt;Node15 -->
<g id="edge21" class="edge"><title>Node16&#45;&gt;Node15</title>
<path fill="none" stroke="#9a32cd" stroke-dasharray="5,2" d="M659.724,-304.828C680.479,-307.004 702.457,-306.192 722,-299 751.135,-288.278 776.617,-260.423 788.646,-245.603"/>
<polygon fill="#9a32cd" stroke="#9a32cd" points="660.014,-301.337 649.65,-303.535 659.122,-308.28 660.014,-301.337"/>
<text text-anchor="middle" x="699" y="-309" font-family="Helvetica,sans-Serif" font-size="10.00"> callback_</text>
</g>
</g>
</svg>
