<?xml version="1.0" encoding="UTF-8" standalone="no"?>
<!DOCTYPE svg PUBLIC "-//W3C//DTD SVG 1.1//EN"
 "http://www.w3.org/Graphics/SVG/1.1/DTD/svg11.dtd">
<!-- Generated by graphviz version 2.26.3 (20100126.1600)
 -->
<!-- Title: Dispatcher Pages: 1 -->
<svg width="118pt" height="102pt"
 viewBox="0.00 0.00 118.00 102.00" xmlns="http://www.w3.org/2000/svg" xmlns:xlink="http://www.w3.org/1999/xlink">
<g id="graph1" class="graph" transform="scale(1 1) rotate(0) translate(4 98)">
<title>Dispatcher</title>
<!-- Node1 -->
<g id="node1" class="node"><title>Node1</title>
<polygon fill="#bfbfbf" stroke="black" points="0,-0.5 0,-21.5 64,-21.5 64,-0.5 0,-0.5"/>
<text text-anchor="middle" x="32" y="-8.5" font-family="Helvetica,sans-Serif" font-size="10.00">Dispatcher</text>
</g>
<!-- Node2 -->
<g id="node2" class="node"><title>Node2</title>
<a xlink:href="classthrill_1_1mem_1_1Manager.html" target="_top" xlink:title="Object shared by allocators and other classes to track memory allocations.">
<polygon fill="none" stroke="black" points="5,-72.5 5,-93.5 59,-93.5 59,-72.5 5,-72.5"/>
<text text-anchor="middle" x="32" y="-80.5" font-family="Helvetica,sans-Serif" font-size="10.00">Manager</text>
</a>
</g>
<!-- Node2&#45;&gt;Node1 -->
<g id="edge2" class="edge"><title>Node2&#45;&gt;Node1</title>
<path fill="none" stroke="#9a32cd" stroke-dasharray="5,2" d="M32,-62.2348C32,-48.969 32,-32.3188 32,-21.6674"/>
<polygon fill="#9a32cd" stroke="#9a32cd" points="28.5001,-62.3761 32,-72.3762 35.5001,-62.3762 28.5001,-62.3761"/>
<text text-anchor="middle" x="68.5" y="-44.5" font-family="Helvetica,sans-Serif" font-size="10.00"> mem_manager_</text>
</g>
<!-- Node2&#45;&gt;Node2 -->
<g id="edge4" class="edge"><title>Node2&#45;&gt;Node2</title>
<path fill="none" stroke="#9a32cd" stroke-dasharray="5,2" d="M69.5105,-88.818C74.0382,-87.7672 77,-85.8279 77,-83 77,-78.3594 69.0239,-76.1116 59.2408,-76.2566"/>
<polygon fill="#9a32cd" stroke="#9a32cd" points="68.8863,-85.36 59.2408,-89.7434 69.5146,-92.3317 68.8863,-85.36"/>
<text text-anchor="middle" x="93.5" y="-80.5" font-family="Helvetica,sans-Serif" font-size="10.00"> super_</text>
</g>
</g>
</svg>
