<?xml version="1.0" encoding="UTF-8" standalone="no"?>
<!DOCTYPE svg PUBLIC "-//W3C//DTD SVG 1.1//EN"
 "http://www.w3.org/Graphics/SVG/1.1/DTD/svg11.dtd">
<!-- Generated by graphviz version 2.26.3 (20100126.1600)
 -->
<!-- Title: Connection Pages: 1 -->
<svg width="182pt" height="30pt"
 viewBox="0.00 0.00 182.00 30.00" xmlns="http://www.w3.org/2000/svg" xmlns:xlink="http://www.w3.org/1999/xlink">
<g id="graph1" class="graph" transform="scale(1 1) rotate(0) translate(4 26)">
<title>Connection</title>
<!-- Node1 -->
<g id="node1" class="node"><title>Node1</title>
<polygon fill="#bfbfbf" stroke="black" points="0,-0.5 0,-21.5 66,-21.5 66,-0.5 0,-0.5"/>
<text text-anchor="middle" x="33" y="-8.5" font-family="Helvetica,sans-Serif" font-size="10.00">Connection</text>
</g>
<!-- Node1&#45;&gt;Node1 -->
<g id="edge2" class="edge"><title>Node1&#45;&gt;Node1</title>
<path fill="none" stroke="midnightblue" d="M76.6469,-12.2364C81.1326,-11.993 84,-11.5808 84,-11 84,-10.0469 76.2782,-9.54797 66.3545,-9.5033"/>
<polygon fill="midnightblue" stroke="midnightblue" points="76.2628,-8.74492 66.3545,-12.4967 76.4398,-15.7427 76.2628,-8.74492"/>
</g>
<!-- Node1&#45;&gt;Node1 -->
<g id="edge4" class="edge"><title>Node1&#45;&gt;Node1</title>
<path fill="none" stroke="midnightblue" d="M76.2723,-14C90.5785,-13.9932 102,-12.9932 102,-11 102,-8.54688 84.6988,-7.59821 66.0121,-8.15399"/>
<polygon fill="midnightblue" stroke="midnightblue" points="76.0635,-10.4965 66.0121,-13.846 75.9584,-17.4957 76.0635,-10.4965"/>
</g>
<!-- Node1&#45;&gt;Node1 -->
<g id="edge6" class="edge"><title>Node1&#45;&gt;Node1</title>
<path fill="none" stroke="midnightblue" d="M76.2809,-15.324C99.1981,-16.0346 120,-14.5933 120,-11 120,-6.875 92.5859,-5.58594 66.0286,-7.13281"/>
<polygon fill="midnightblue" stroke="midnightblue" points="76.1745,-11.8159 66.0286,-14.8672 75.8628,-18.809 76.1745,-11.8159"/>
</g>
<!-- Node1&#45;&gt;Node1 -->
<g id="edge8" class="edge"><title>Node1&#45;&gt;Node1</title>
<path fill="none" stroke="midnightblue" d="M76.0922,-16.3512C107.098,-18.0991 138,-16.3154 138,-11 138,-5.10938 100.047,-3.55618 66.0607,-6.34042"/>
<polygon fill="midnightblue" stroke="midnightblue" points="76.2777,-12.8558 66.0607,-15.6596 75.7962,-19.8392 76.2777,-12.8558"/>
</g>
<!-- Node1&#45;&gt;Node1 -->
<g id="edge10" class="edge"><title>Node1&#45;&gt;Node1</title>
<path fill="none" stroke="midnightblue" d="M76.3087,-17.1996C114.873,-20.1485 156,-18.082 156,-11 156,-3.28516 107.195,-1.52219 66.0627,-5.71111"/>
<polygon fill="midnightblue" stroke="midnightblue" points="76.3333,-13.6881 66.0627,-16.2889 75.7135,-20.6606 76.3333,-13.6881"/>
</g>
<!-- Node1&#45;&gt;Node1 -->
<g id="edge12" class="edge"><title>Node1&#45;&gt;Node1</title>
<path fill="none" stroke="midnightblue" d="M76.2676,-17.8847C122.191,-22.2037 174,-19.9088 174,-11 174,-1.4375 114.309,0.504883 66.2765,-5.17285"/>
<polygon fill="midnightblue" stroke="midnightblue" points="76.5894,-14.3993 66.2765,-16.8271 75.8525,-21.3604 76.5894,-14.3993"/>
</g>
</g>
</svg>
