<?xml version="1.0" encoding="UTF-8" standalone="no"?>
<!DOCTYPE svg PUBLIC "-//W3C//DTD SVG 1.1//EN"
 "http://www.w3.org/Graphics/SVG/1.1/DTD/svg11.dtd">
<!-- Generated by graphviz version 2.36.0 (20140111.2315)
 -->
<!-- Title: MixStream Pages: 1 -->
<svg width="522pt" height="358pt"
 viewBox="0.00 0.00 522.05 358.00" xmlns="http://www.w3.org/2000/svg" xmlns:xlink="http://www.w3.org/1999/xlink">
<g id="graph0" class="graph" transform="scale(1 1) rotate(0) translate(4 354)">
<title>MixStream</title>
<!-- Node1 -->
<g id="node1" class="node"><title>Node1</title>
<polygon fill="#bfbfbf" stroke="black" points="281.045,-0.5 281.045,-19.5 345.045,-19.5 345.045,-0.5 281.045,-0.5"/>
<text text-anchor="middle" x="313.045" y="-7.5" font-family="Helvetica,sans-Serif" font-size="10.00">MixStream</text>
</g>
<!-- Node2 -->
<g id="node2" class="node"><title>Node2</title>
<g id="a_node2"><a xlink:href="classthrill_1_1data_1_1Stream.html" target="_top" xlink:title="Base class for common structures for ConcatStream and MixedStream. ">
<polygon fill="none" stroke="black" points="220.045,-58.5 220.045,-77.5 268.045,-77.5 268.045,-58.5 220.045,-58.5"/>
<text text-anchor="middle" x="244.045" y="-65.5" font-family="Helvetica,sans-Serif" font-size="10.00">Stream</text>
</a>
</g>
</g>
<!-- Node2&#45;&gt;Node1 -->
<g id="edge1" class="edge"><title>Node2&#45;&gt;Node1</title>
<path fill="none" stroke="midnightblue" d="M262.65,-51.9006C275.414,-41.5414 291.893,-28.1671 302.467,-19.5852"/>
<polygon fill="midnightblue" stroke="midnightblue" points="260.084,-49.4755 254.525,-58.4948 264.495,-54.9107 260.084,-49.4755"/>
</g>
<!-- Node3 -->
<g id="node3" class="node"><title>Node3</title>
<g id="a_node3"><a xlink:href="classtlx_1_1ReferenceCounter.html" target="_top" xlink:title="Provides reference counting abilities for use with CountingPtr. ">
<polygon fill="none" stroke="black" points="239.045,-126.5 239.045,-145.5 335.045,-145.5 335.045,-126.5 239.045,-126.5"/>
<text text-anchor="middle" x="287.045" y="-133.5" font-family="Helvetica,sans-Serif" font-size="10.00">ReferenceCounter</text>
</a>
</g>
</g>
<!-- Node3&#45;&gt;Node2 -->
<g id="edge2" class="edge"><title>Node3&#45;&gt;Node2</title>
<path fill="none" stroke="midnightblue" d="M282.435,-116.624C280.228,-109.808 277.151,-102.228 273.045,-96 268.426,-88.9933 261.623,-82.5328 255.767,-77.6893"/>
<polygon fill="midnightblue" stroke="midnightblue" points="279.113,-117.738 285.212,-126.402 285.847,-115.826 279.113,-117.738"/>
</g>
<!-- Node4 -->
<g id="node4" class="node"><title>Node4</title>
<g id="a_node4"><a xlink:href="classthrill_1_1common_1_1Semaphore.html" target="_top" xlink:title="Semaphore">
<polygon fill="none" stroke="black" points="63.0454,-126.5 63.0454,-145.5 129.045,-145.5 129.045,-126.5 63.0454,-126.5"/>
<text text-anchor="middle" x="96.0454" y="-133.5" font-family="Helvetica,sans-Serif" font-size="10.00">Semaphore</text>
</a>
</g>
</g>
<!-- Node4&#45;&gt;Node2 -->
<g id="edge3" class="edge"><title>Node4&#45;&gt;Node2</title>
<path fill="none" stroke="#9a32cd" stroke-dasharray="5,2" d="M95.6614,-116.143C96.5002,-108.948 98.7567,-101.227 104.045,-96 120.111,-80.1228 184.42,-73.1612 220.024,-70.4726"/>
<polygon fill="#9a32cd" stroke="#9a32cd" points="92.1589,-116.142 95.2678,-126.27 99.1536,-116.414 92.1589,-116.142"/>
<text text-anchor="middle" x="152.545" y="-99.5" font-family="Helvetica,sans-Serif" font-size="10.00"> sem_closing_blocks_</text>
</g>
<!-- Node5 -->
<g id="node5" class="node"><title>Node5</title>
<g id="a_node5"><a xlink:href="classthrill_1_1data_1_1Multiplexer.html" target="_top" xlink:title="Multiplexes virtual Connections on Dispatcher. ">
<polygon fill="none" stroke="black" points="157.045,-126.5 157.045,-145.5 221.045,-145.5 221.045,-126.5 157.045,-126.5"/>
<text text-anchor="middle" x="189.045" y="-133.5" font-family="Helvetica,sans-Serif" font-size="10.00">Multiplexer</text>
</a>
</g>
</g>
<!-- Node5&#45;&gt;Node2 -->
<g id="edge4" class="edge"><title>Node5&#45;&gt;Node2</title>
<path fill="none" stroke="#9a32cd" stroke-dasharray="5,2" d="M198.198,-117.657C202.296,-110.608 207.463,-102.589 213.045,-96 218.859,-89.1391 226.459,-82.4912 232.68,-77.5087"/>
<polygon fill="#9a32cd" stroke="#9a32cd" points="195.116,-115.999 193.334,-126.443 201.24,-119.39 195.116,-115.999"/>
<text text-anchor="middle" x="241.045" y="-99.5" font-family="Helvetica,sans-Serif" font-size="10.00"> multiplexer_</text>
</g>
<!-- Node6 -->
<g id="node6" class="node"><title>Node6</title>
<g id="a_node6"><a xlink:href="classthrill_1_1net_1_1DispatcherThread.html" target="_top" xlink:title="DispatcherThread contains a net::Dispatcher object and an associated thread that runs in the dispatch...">
<polygon fill="none" stroke="black" points="87.0454,-194.5 87.0454,-213.5 181.045,-213.5 181.045,-194.5 87.0454,-194.5"/>
<text text-anchor="middle" x="134.045" y="-201.5" font-family="Helvetica,sans-Serif" font-size="10.00">DispatcherThread</text>
</a>
</g>
</g>
<!-- Node6&#45;&gt;Node5 -->
<g id="edge5" class="edge"><title>Node6&#45;&gt;Node5</title>
<path fill="none" stroke="#9a32cd" stroke-dasharray="5,2" d="M136.36,-184.449C137.937,-177.51 140.589,-169.891 145.045,-164 150.993,-156.138 159.954,-150.047 168.239,-145.657"/>
<polygon fill="#9a32cd" stroke="#9a32cd" points="132.886,-184.002 134.661,-194.447 139.787,-185.175 132.886,-184.002"/>
<text text-anchor="middle" x="172.045" y="-167.5" font-family="Helvetica,sans-Serif" font-size="10.00"> dispatcher_</text>
</g>
<!-- Node7 -->
<g id="node7" class="node"><title>Node7</title>
<g id="a_node7"><a xlink:href="classthrill_1_1mem_1_1Manager.html" target="_top" xlink:title="Object shared by allocators and other classes to track memory allocations. ">
<polygon fill="none" stroke="black" points="49.0454,-262.5 49.0454,-281.5 103.045,-281.5 103.045,-262.5 49.0454,-262.5"/>
<text text-anchor="middle" x="76.0454" y="-269.5" font-family="Helvetica,sans-Serif" font-size="10.00">Manager</text>
</a>
</g>
</g>
<!-- Node7&#45;&gt;Node5 -->
<g id="edge15" class="edge"><title>Node7&#45;&gt;Node5</title>
<path fill="none" stroke="#9a32cd" stroke-dasharray="5,2" d="M48.124,-257.533C21.3413,-242.763 -12.6161,-217.961 5.04538,-194 14.2473,-181.516 106.724,-157.196 156.961,-144.747"/>
<polygon fill="#9a32cd" stroke="#9a32cd" points="46.7238,-260.752 57.2017,-262.321 49.9896,-254.56 46.7238,-260.752"/>
<text text-anchor="middle" x="41.5454" y="-201.5" font-family="Helvetica,sans-Serif" font-size="10.00"> mem_manager_</text>
</g>
<!-- Node7&#45;&gt;Node6 -->
<g id="edge6" class="edge"><title>Node7&#45;&gt;Node6</title>
<path fill="none" stroke="#9a32cd" stroke-dasharray="5,2" d="M81.0459,-252.464C83.5528,-245.527 87.128,-237.905 92.0454,-232 98.369,-224.406 107.389,-218.221 115.451,-213.697"/>
<polygon fill="#9a32cd" stroke="#9a32cd" points="77.5663,-251.868 77.9467,-262.456 84.2521,-253.942 77.5663,-251.868"/>
<text text-anchor="middle" x="128.545" y="-235.5" font-family="Helvetica,sans-Serif" font-size="10.00"> mem_manager_</text>
</g>
<!-- Node7&#45;&gt;Node7 -->
<g id="edge7" class="edge"><title>Node7&#45;&gt;Node7</title>
<path fill="none" stroke="#9a32cd" stroke-dasharray="5,2" d="M113.556,-277.495C118.084,-276.502 121.045,-274.671 121.045,-272 121.045,-267.617 113.069,-265.494 103.286,-265.631"/>
<polygon fill="#9a32cd" stroke="#9a32cd" points="112.953,-274.033 103.286,-278.369 113.547,-281.008 112.953,-274.033"/>
<text text-anchor="middle" x="137.545" y="-269.5" font-family="Helvetica,sans-Serif" font-size="10.00"> super_</text>
</g>
<!-- Node9 -->
<g id="node9" class="node"><title>Node9</title>
<g id="a_node9"><a xlink:href="classthrill_1_1data_1_1BlockPool.html" target="_top" xlink:title="Pool to allocate, keep, swap out/in, and free all ByteBlocks on the host. ">
<polygon fill="none" stroke="black" points="260.545,-194.5 260.545,-213.5 321.545,-213.5 321.545,-194.5 260.545,-194.5"/>
<text text-anchor="middle" x="291.045" y="-201.5" font-family="Helvetica,sans-Serif" font-size="10.00">BlockPool</text>
</a>
</g>
</g>
<!-- Node7&#45;&gt;Node9 -->
<g id="edge14" class="edge"><title>Node7&#45;&gt;Node9</title>
<path fill="none" stroke="#9a32cd" stroke-dasharray="5,2" d="M113.103,-261.593C129.317,-257.011 148.397,-250.979 165.045,-244 175.317,-239.694 176.688,-236.097 187.045,-232 200.315,-226.751 234.872,-218.132 260.53,-212.046"/>
<polygon fill="#9a32cd" stroke="#9a32cd" points="112.139,-258.228 103.425,-264.254 113.995,-264.978 112.139,-258.228"/>
<text text-anchor="middle" x="223.545" y="-235.5" font-family="Helvetica,sans-Serif" font-size="10.00"> mem_manager_</text>
</g>
<!-- Node8 -->
<g id="node8" class="node"><title>Node8</title>
<g id="a_node8"><a xlink:href="classthrill_1_1net_1_1Group.html" target="_top" xlink:title="A network Group is a collection of enumerated communication links, which provides point&#45;to&#45;point comm...">
<polygon fill="none" stroke="black" points="199.545,-194.5 199.545,-213.5 242.545,-213.5 242.545,-194.5 199.545,-194.5"/>
<text text-anchor="middle" x="221.045" y="-201.5" font-family="Helvetica,sans-Serif" font-size="10.00">Group</text>
</a>
</g>
</g>
<!-- Node8&#45;&gt;Node5 -->
<g id="edge8" class="edge"><title>Node8&#45;&gt;Node5</title>
<path fill="none" stroke="#9a32cd" stroke-dasharray="5,2" d="M212.408,-185.186C206.234,-172.452 198.19,-155.861 193.332,-145.841"/>
<polygon fill="#9a32cd" stroke="#9a32cd" points="209.35,-186.9 216.862,-194.372 215.649,-183.847 209.35,-186.9"/>
<text text-anchor="middle" x="224.545" y="-167.5" font-family="Helvetica,sans-Serif" font-size="10.00"> group_</text>
</g>
<!-- Node9&#45;&gt;Node5 -->
<g id="edge9" class="edge"><title>Node9&#45;&gt;Node5</title>
<path fill="none" stroke="#9a32cd" stroke-dasharray="5,2" d="M274.493,-187.184C266.077,-179.619 255.449,-170.76 245.045,-164 234.004,-156.825 220.768,-150.357 209.937,-145.551"/>
<polygon fill="#9a32cd" stroke="#9a32cd" points="272.361,-189.979 282.082,-194.193 277.11,-184.837 272.361,-189.979"/>
<text text-anchor="middle" x="289.545" y="-167.5" font-family="Helvetica,sans-Serif" font-size="10.00"> block_pool_</text>
</g>
<!-- Node13 -->
<g id="node13" class="node"><title>Node13</title>
<g id="a_node13"><a xlink:href="classthrill_1_1data_1_1MixBlockQueue.html" target="_top" xlink:title="Implements reading an unordered sequence of items from multiple workers, which sends Blocks...">
<polygon fill="none" stroke="black" points="353.045,-126.5 353.045,-145.5 439.045,-145.5 439.045,-126.5 353.045,-126.5"/>
<text text-anchor="middle" x="396.045" y="-133.5" font-family="Helvetica,sans-Serif" font-size="10.00">MixBlockQueue</text>
</a>
</g>
</g>
<!-- Node9&#45;&gt;Node13 -->
<g id="edge19" class="edge"><title>Node9&#45;&gt;Node13</title>
<path fill="none" stroke="#9a32cd" stroke-dasharray="5,2" d="M313.337,-188.988C334.225,-175.858 364.784,-156.65 382.315,-145.63"/>
<polygon fill="#9a32cd" stroke="#9a32cd" points="311.376,-186.087 304.772,-194.372 315.101,-192.013 311.376,-186.087"/>
<text text-anchor="middle" x="380.545" y="-167.5" font-family="Helvetica,sans-Serif" font-size="10.00"> block_pool_</text>
</g>
<!-- Node10 -->
<g id="node10" class="node"><title>Node10</title>
<g id="a_node10"><a xlink:href="classthrill_1_1common_1_1ProfileTask.html" target="_top" xlink:title="ProfileTask">
<polygon fill="none" stroke="black" points="309.045,-262.5 309.045,-281.5 375.045,-281.5 375.045,-262.5 309.045,-262.5"/>
<text text-anchor="middle" x="342.045" y="-269.5" font-family="Helvetica,sans-Serif" font-size="10.00">ProfileTask</text>
</a>
</g>
</g>
<!-- Node10&#45;&gt;Node9 -->
<g id="edge10" class="edge"><title>Node10&#45;&gt;Node9</title>
<path fill="none" stroke="midnightblue" d="M337.822,-252.353C335.661,-245.504 332.515,-237.972 328.045,-232 322.423,-224.488 314.122,-218.164 306.807,-213.53"/>
<polygon fill="midnightblue" stroke="midnightblue" points="334.497,-253.47 340.456,-262.231 341.261,-251.666 334.497,-253.47"/>
</g>
<!-- Node11 -->
<g id="node11" class="node"><title>Node11</title>
<g id="a_node11"><a xlink:href="classthrill_1_1common_1_1JsonLogger.html" target="_top" xlink:title="JsonLogger is a receiver of JSON output objects for logging. ">
<polygon fill="none" stroke="black" points="172.545,-262.5 172.545,-281.5 239.545,-281.5 239.545,-262.5 172.545,-262.5"/>
<text text-anchor="middle" x="206.045" y="-269.5" font-family="Helvetica,sans-Serif" font-size="10.00">JsonLogger</text>
</a>
</g>
</g>
<!-- Node11&#45;&gt;Node9 -->
<g id="edge11" class="edge"><title>Node11&#45;&gt;Node9</title>
<path fill="none" stroke="#9a32cd" stroke-dasharray="5,2" d="M241.027,-258.352C249.085,-254.486 257.271,-249.712 264.045,-244 274.119,-235.507 282.148,-222.396 286.752,-213.757"/>
<polygon fill="#9a32cd" stroke="#9a32cd" points="239.443,-255.225 231.717,-262.475 242.278,-261.626 239.443,-255.225"/>
<text text-anchor="middle" x="292.545" y="-235.5" font-family="Helvetica,sans-Serif" font-size="10.00"> logger_</text>
</g>
<!-- Node11&#45;&gt;Node11 -->
<g id="edge13" class="edge"><title>Node11&#45;&gt;Node11</title>
<path fill="none" stroke="#9a32cd" stroke-dasharray="5,2" d="M249.912,-277.203C254.271,-276.162 257.045,-274.428 257.045,-272 257.045,-268.016 249.575,-265.899 239.886,-265.65"/>
<polygon fill="#9a32cd" stroke="#9a32cd" points="249.424,-273.736 239.886,-278.35 250.219,-280.691 249.424,-273.736"/>
<text text-anchor="middle" x="273.545" y="-269.5" font-family="Helvetica,sans-Serif" font-size="10.00"> super_</text>
</g>
<!-- Node12 -->
<g id="node12" class="node"><title>Node12</title>
<g id="a_node12"><a xlink:href="classthrill_1_1common_1_1JsonVerbatim.html" target="_top" xlink:title="A special class to output verbatim text. ">
<polygon fill="none" stroke="black" points="167.545,-330.5 167.545,-349.5 244.545,-349.5 244.545,-330.5 167.545,-330.5"/>
<text text-anchor="middle" x="206.045" y="-337.5" font-family="Helvetica,sans-Serif" font-size="10.00">JsonVerbatim</text>
</a>
</g>
</g>
<!-- Node12&#45;&gt;Node11 -->
<g id="edge12" class="edge"><title>Node12&#45;&gt;Node11</title>
<path fill="none" stroke="#9a32cd" stroke-dasharray="5,2" d="M206.045,-320.041C206.045,-307.472 206.045,-291.563 206.045,-281.841"/>
<polygon fill="#9a32cd" stroke="#9a32cd" points="202.545,-320.372 206.045,-330.372 209.545,-320.372 202.545,-320.372"/>
<text text-anchor="middle" x="229.045" y="-303.5" font-family="Helvetica,sans-Serif" font-size="10.00"> common_</text>
</g>
<!-- Node13&#45;&gt;Node1 -->
<g id="edge16" class="edge"><title>Node13&#45;&gt;Node1</title>
<path fill="none" stroke="#9a32cd" stroke-dasharray="5,2" d="M384.736,-118.104C366.78,-91.2787 332.395,-39.9072 318.79,-19.5827"/>
<polygon fill="#9a32cd" stroke="#9a32cd" points="381.869,-120.114 390.34,-126.477 387.687,-116.22 381.869,-120.114"/>
<text text-anchor="middle" x="375.545" y="-65.5" font-family="Helvetica,sans-Serif" font-size="10.00"> queue_</text>
</g>
<!-- Node14 -->
<g id="node14" class="node"><title>Node14</title>
<g id="a_node14"><a xlink:href="classthrill_1_1common_1_1AtomicMovable.html" target="_top" xlink:title="AtomicMovable\&lt; size_t \&gt;">
<polygon fill="none" stroke="black" points="381.045,-194.5 381.045,-213.5 509.045,-213.5 509.045,-194.5 381.045,-194.5"/>
<text text-anchor="middle" x="445.045" y="-201.5" font-family="Helvetica,sans-Serif" font-size="10.00">AtomicMovable&lt; size_t &gt;</text>
</a>
</g>
</g>
<!-- Node14&#45;&gt;Node13 -->
<g id="edge17" class="edge"><title>Node14&#45;&gt;Node13</title>
<path fill="none" stroke="#9a32cd" stroke-dasharray="5,2" d="M435.67,-185.124C431.788,-178.286 427.029,-170.56 422.045,-164 417.006,-157.367 410.506,-150.617 405.266,-145.526"/>
<polygon fill="#9a32cd" stroke="#9a32cd" points="432.794,-187.162 440.654,-194.266 438.94,-183.811 432.794,-187.162"/>
<text text-anchor="middle" x="471.545" y="-167.5" font-family="Helvetica,sans-Serif" font-size="10.00"> write_open_count_</text>
</g>
<!-- Node15 -->
<g id="node15" class="node"><title>Node15</title>
<g id="a_node15"><a xlink:href="classthrill_1_1common_1_1AtomicMovable.html" target="_top" xlink:title="This is a derivative of std::atomic which enables easier and less error&#45;prone writing of move&#45;only cl...">
<polygon fill="none" stroke="black" points="393.045,-262.5 393.045,-281.5 501.045,-281.5 501.045,-262.5 393.045,-262.5"/>
<text text-anchor="middle" x="447.045" y="-269.5" font-family="Helvetica,sans-Serif" font-size="10.00">AtomicMovable&lt; T &gt;</text>
</a>
</g>
</g>
<!-- Node15&#45;&gt;Node14 -->
<g id="edge18" class="edge"><title>Node15&#45;&gt;Node14</title>
<path fill="none" stroke="orange" stroke-dasharray="5,2" d="M446.471,-252.041C446.09,-239.472 445.608,-223.563 445.313,-213.841"/>
<polygon fill="orange" stroke="orange" points="442.983,-252.482 446.784,-262.372 449.979,-252.27 442.983,-252.482"/>
<text text-anchor="middle" x="470.045" y="-235.5" font-family="Helvetica,sans-Serif" font-size="10.00"> &lt; size_t &gt;</text>
</g>
</g>
</svg>
