<?xml version="1.0" encoding="UTF-8" standalone="no"?>
<!DOCTYPE svg PUBLIC "-//W3C//DTD SVG 1.1//EN"
 "http://www.w3.org/Graphics/SVG/1.1/DTD/svg11.dtd">
<!-- Generated by graphviz version 2.40.1 (20161225.0304)
 -->
<!-- Title: block_w_bids&lt; Type, Size, RawSize, 0 &gt; Pages: 1 -->
<svg width="146pt" height="185pt"
 viewBox="0.00 0.00 145.50 185.00" xmlns="http://www.w3.org/2000/svg" xmlns:xlink="http://www.w3.org/1999/xlink">
<g id="graph0" class="graph" transform="scale(1 1) rotate(0) translate(4 181)">
<title>block_w_bids&lt; Type, Size, RawSize, 0 &gt;</title>
<!-- Node0 -->
<g id="node1" class="node">
<title>Node0</title>
<polygon fill="#bfbfbf" stroke="#000000" points="3,-.5 3,-30.5 122,-30.5 122,-.5 3,-.5"/>
<text text-anchor="start" x="11" y="-18.5" font-family="Helvetica,sans-Serif" font-size="10.00" fill="#000000">block_w_bids&lt; Type,</text>
<text text-anchor="middle" x="62.5" y="-7.5" font-family="Helvetica,sans-Serif" font-size="10.00" fill="#000000"> Size, RawSize, 0 &gt;</text>
</g>
<!-- Node1 -->
<g id="node2" class="node">
<title>Node1</title>
<g id="a_node2"><a xlink:href="classfoxxll_1_1mng__local_1_1element__block.html" target="_top" xlink:title="element_block\&lt; Type,\l Size \&gt;">
<polygon fill="none" stroke="#000000" points="0,-68.5 0,-98.5 125,-98.5 125,-68.5 0,-68.5"/>
<text text-anchor="start" x="8" y="-86.5" font-family="Helvetica,sans-Serif" font-size="10.00" fill="#000000">element_block&lt; Type,</text>
<text text-anchor="middle" x="62.5" y="-75.5" font-family="Helvetica,sans-Serif" font-size="10.00" fill="#000000"> Size &gt;</text>
</a>
</g>
</g>
<!-- Node1&#45;&gt;Node0 -->
<g id="edge1" class="edge">
<title>Node1&#45;&gt;Node0</title>
<path fill="none" stroke="#191970" d="M62.5,-58.1174C62.5,-48.8378 62.5,-38.6413 62.5,-30.5492"/>
<polygon fill="#191970" stroke="#191970" points="59.0001,-58.4086 62.5,-68.4086 66.0001,-58.4086 59.0001,-58.4086"/>
</g>
<!-- Node2 -->
<g id="node3" class="node">
<title>Node2</title>
<g id="a_node3"><a xlink:href="classfoxxll_1_1mng__local_1_1element__block.html" target="_top" xlink:title="Contains data elements for foxxll::typed_block , not intended for direct use. ">
<polygon fill="none" stroke="#000000" points="0,-146.5 0,-176.5 125,-176.5 125,-146.5 0,-146.5"/>
<text text-anchor="start" x="8" y="-164.5" font-family="Helvetica,sans-Serif" font-size="10.00" fill="#000000">element_block&lt; Type,</text>
<text text-anchor="middle" x="62.5" y="-153.5" font-family="Helvetica,sans-Serif" font-size="10.00" fill="#000000"> kSize &gt;</text>
</a>
</g>
</g>
<!-- Node2&#45;&gt;Node1 -->
<g id="edge2" class="edge">
<title>Node2&#45;&gt;Node1</title>
<path fill="none" stroke="#ffa500" stroke-dasharray="5,2" d="M62.5,-136.2875C62.5,-123.9187 62.5,-109.4264 62.5,-98.7592"/>
<polygon fill="#ffa500" stroke="#ffa500" points="59.0001,-136.4608 62.5,-146.4608 66.0001,-136.4608 59.0001,-136.4608"/>
<text text-anchor="middle" x="100" y="-120" font-family="Helvetica,sans-Serif" font-size="10.00" fill="#000000"> &lt; Type, Size &gt;</text>
</g>
</g>
</svg>
