<?xml version="1.0" encoding="UTF-8" standalone="no"?>
<!DOCTYPE svg PUBLIC "-//W3C//DTD SVG 1.1//EN"
 "http://www.w3.org/Graphics/SVG/1.1/DTD/svg11.dtd">
<!-- Generated by graphviz version 2.40.1 (20161225.0304)
 -->
<!-- Title: request_interface Pages: 1 -->
<svg width="129pt" height="252pt"
 viewBox="0.00 0.00 129.00 252.00" xmlns="http://www.w3.org/2000/svg" xmlns:xlink="http://www.w3.org/1999/xlink">
<g id="graph0" class="graph" transform="scale(1 1) rotate(0) translate(4 248)">
<title>request_interface</title>
<!-- Node0 -->
<g id="node1" class="node">
<title>Node0</title>
<polygon fill="#bfbfbf" stroke="#000000" points="9.5,-224.5 9.5,-243.5 111.5,-243.5 111.5,-224.5 9.5,-224.5"/>
<text text-anchor="middle" x="60.5" y="-231.5" font-family="Helvetica,sans-Serif" font-size="10.00" fill="#000000">request_interface</text>
</g>
<!-- Node1 -->
<g id="node2" class="node">
<title>Node1</title>
<g id="a_node2"><a xlink:href="classfoxxll_1_1request.html" target="_top" xlink:title="Request object encapsulating basic properties like file and offset. ">
<polygon fill="none" stroke="#000000" points="34,-168.5 34,-187.5 87,-187.5 87,-168.5 34,-168.5"/>
<text text-anchor="middle" x="60.5" y="-175.5" font-family="Helvetica,sans-Serif" font-size="10.00" fill="#000000">request</text>
</a>
</g>
</g>
<!-- Node0&#45;&gt;Node1 -->
<g id="edge1" class="edge">
<title>Node0&#45;&gt;Node1</title>
<path fill="none" stroke="#191970" d="M60.5,-214.1575C60.5,-205.155 60.5,-194.9199 60.5,-187.6427"/>
<polygon fill="#191970" stroke="#191970" points="57.0001,-214.2455 60.5,-224.2455 64.0001,-214.2456 57.0001,-214.2455"/>
</g>
<!-- Node2 -->
<g id="node3" class="node">
<title>Node2</title>
<g id="a_node3"><a xlink:href="classfoxxll_1_1request__with__waiters.html" target="_top" xlink:title="Request that is aware of threads waiting for it to complete. ">
<polygon fill="none" stroke="#000000" points="0,-112.5 0,-131.5 121,-131.5 121,-112.5 0,-112.5"/>
<text text-anchor="middle" x="60.5" y="-119.5" font-family="Helvetica,sans-Serif" font-size="10.00" fill="#000000">request_with_waiters</text>
</a>
</g>
</g>
<!-- Node1&#45;&gt;Node2 -->
<g id="edge2" class="edge">
<title>Node1&#45;&gt;Node2</title>
<path fill="none" stroke="#191970" d="M60.5,-158.1575C60.5,-149.155 60.5,-138.9199 60.5,-131.6427"/>
<polygon fill="#191970" stroke="#191970" points="57.0001,-158.2455 60.5,-168.2455 64.0001,-158.2456 57.0001,-158.2455"/>
</g>
<!-- Node3 -->
<g id="node4" class="node">
<title>Node3</title>
<g id="a_node4"><a xlink:href="classfoxxll_1_1request__with__state.html" target="_top" xlink:title="Request with completion shared_state. ">
<polygon fill="none" stroke="#000000" points="5.5,-56.5 5.5,-75.5 115.5,-75.5 115.5,-56.5 5.5,-56.5"/>
<text text-anchor="middle" x="60.5" y="-63.5" font-family="Helvetica,sans-Serif" font-size="10.00" fill="#000000">request_with_state</text>
</a>
</g>
</g>
<!-- Node2&#45;&gt;Node3 -->
<g id="edge3" class="edge">
<title>Node2&#45;&gt;Node3</title>
<path fill="none" stroke="#191970" d="M60.5,-102.1575C60.5,-93.155 60.5,-82.9199 60.5,-75.6427"/>
<polygon fill="#191970" stroke="#191970" points="57.0001,-102.2455 60.5,-112.2455 64.0001,-102.2456 57.0001,-102.2455"/>
</g>
<!-- Node4 -->
<g id="node5" class="node">
<title>Node4</title>
<g id="a_node5"><a xlink:href="classfoxxll_1_1serving__request.html" target="_top" xlink:title="Request which serves an I/O by calling the synchronous routine of the file. ">
<polygon fill="none" stroke="#000000" points="13,-.5 13,-19.5 108,-19.5 108,-.5 13,-.5"/>
<text text-anchor="middle" x="60.5" y="-7.5" font-family="Helvetica,sans-Serif" font-size="10.00" fill="#000000">serving_request</text>
</a>
</g>
</g>
<!-- Node3&#45;&gt;Node4 -->
<g id="edge4" class="edge">
<title>Node3&#45;&gt;Node4</title>
<path fill="none" stroke="#191970" d="M60.5,-46.1575C60.5,-37.155 60.5,-26.9199 60.5,-19.6427"/>
<polygon fill="#191970" stroke="#191970" points="57.0001,-46.2455 60.5,-56.2455 64.0001,-46.2456 57.0001,-46.2455"/>
</g>
</g>
</svg>
