<?xml version="1.0" encoding="UTF-8" standalone="no"?>
<!DOCTYPE svg PUBLIC "-//W3C//DTD SVG 1.1//EN"
 "http://www.w3.org/Graphics/SVG/1.1/DTD/svg11.dtd">
<!-- Generated by graphviz version 2.26.3 (20100126.1600)
 -->
<!-- Title: BufferBuilder Pages: 1 -->
<svg width="140pt" height="190pt"
 viewBox="0.00 0.00 140.00 190.00" xmlns="http://www.w3.org/2000/svg" xmlns:xlink="http://www.w3.org/1999/xlink">
<g id="graph1" class="graph" transform="scale(1 1) rotate(0) translate(4 186)">
<title>BufferBuilder</title>
<!-- Node1 -->
<g id="node1" class="node"><title>Node1</title>
<polygon fill="#bfbfbf" stroke="black" points="17.5,-0.5 17.5,-21.5 90.5,-21.5 90.5,-0.5 17.5,-0.5"/>
<text text-anchor="middle" x="54" y="-8.5" font-family="Helvetica,sans-Serif" font-size="10.00">BufferBuilder</text>
</g>
<!-- Node2 -->
<g id="node2" class="node"><title>Node2</title>
<a xlink:href="classthrill_1_1common_1_1ItemWriterToolsBase.html" target="_top" xlink:title="ItemWriterToolsBase\l\&lt; BufferBuilder \&gt;">
<polygon fill="none" stroke="black" points="-0.5,-61 -0.5,-95 108.5,-95 108.5,-61 -0.5,-61"/>
<text text-anchor="start" x="7.5" y="-82" font-family="Helvetica,sans-Serif" font-size="10.00">ItemWriterToolsBase</text>
<text text-anchor="middle" x="54" y="-69" font-family="Helvetica,sans-Serif" font-size="10.00">&lt; BufferBuilder &gt;</text>
</a>
</g>
<!-- Node2&#45;&gt;Node1 -->
<g id="edge2" class="edge"><title>Node2&#45;&gt;Node1</title>
<path fill="none" stroke="midnightblue" d="M54,-50.5344C54,-40.3057 54,-29.3007 54,-21.5056"/>
<polygon fill="midnightblue" stroke="midnightblue" points="50.5001,-50.7458 54,-60.7458 57.5001,-50.7459 50.5001,-50.7458"/>
</g>
<!-- Node3 -->
<g id="node4" class="node"><title>Node3</title>
<a xlink:href="classthrill_1_1common_1_1ItemWriterToolsBase.html" target="_top" xlink:title="CRTP class to enhance item/memory writer classes with Varint encoding and String encoding.">
<polygon fill="none" stroke="black" points="-0.5,-147 -0.5,-181 108.5,-181 108.5,-147 -0.5,-147"/>
<text text-anchor="start" x="7.5" y="-168" font-family="Helvetica,sans-Serif" font-size="10.00">ItemWriterToolsBase</text>
<text text-anchor="middle" x="54" y="-155" font-family="Helvetica,sans-Serif" font-size="10.00">&lt; Writer &gt;</text>
</a>
</g>
<!-- Node3&#45;&gt;Node2 -->
<g id="edge4" class="edge"><title>Node3&#45;&gt;Node2</title>
<path fill="none" stroke="orange" stroke-dasharray="5,2" d="M54,-136.342C54,-122.774 54,-106.861 54,-95.084"/>
<polygon fill="orange" stroke="orange" points="50.5001,-136.597 54,-146.597 57.5001,-136.597 50.5001,-136.597"/>
<text text-anchor="middle" x="93" y="-118.5" font-family="Helvetica,sans-Serif" font-size="10.00"> &lt; BufferBuilder &gt;</text>
</g>
</g>
</svg>
