<?xml version="1.0" encoding="UTF-8" standalone="no"?>
<!DOCTYPE svg PUBLIC "-//W3C//DTD SVG 1.1//EN"
 "http://www.w3.org/Graphics/SVG/1.1/DTD/svg11.dtd">
<!-- Generated by graphviz version 2.26.3 (20100126.1600)
 -->
<!-- Title: RequestQueueImplWorker Pages: 1 -->
<svg width="362pt" height="146pt"
 viewBox="0.00 0.00 362.00 146.00" xmlns="http://www.w3.org/2000/svg" xmlns:xlink="http://www.w3.org/1999/xlink">
<g id="graph1" class="graph" transform="scale(1 1) rotate(0) translate(4 142)">
<title>RequestQueueImplWorker</title>
<!-- Node1 -->
<g id="node1" class="node"><title>Node1</title>
<polygon fill="#bfbfbf" stroke="black" points="88,-58.5 88,-79.5 220,-79.5 220,-58.5 88,-58.5"/>
<text text-anchor="middle" x="154" y="-66.5" font-family="Helvetica,sans-Serif" font-size="10.00">RequestQueueImplWorker</text>
</g>
<!-- Node3 -->
<g id="node5" class="node"><title>Node3</title>
<a xlink:href="exceptionthrill_1_1io_1_1LinuxaioQueue.html" target="_top" xlink:title="LinuxaioQueue">
<polygon fill="none" stroke="black" points="-0.5,-0.5 -0.5,-21.5 80.5,-21.5 80.5,-0.5 -0.5,-0.5"/>
<text text-anchor="middle" x="40" y="-8.5" font-family="Helvetica,sans-Serif" font-size="10.00">LinuxaioQueue</text>
</a>
</g>
<!-- Node1&#45;&gt;Node3 -->
<g id="edge4" class="edge"><title>Node1&#45;&gt;Node3</title>
<path fill="none" stroke="midnightblue" d="M124.383,-53.9319C104.456,-43.7932 78.6711,-30.6748 60.8762,-21.6212"/>
<polygon fill="midnightblue" stroke="midnightblue" points="122.856,-57.0815 133.355,-58.4966 126.03,-50.8425 122.856,-57.0815"/>
</g>
<!-- Node4 -->
<g id="node7" class="node"><title>Node4</title>
<a xlink:href="classthrill_1_1io_1_1RequestQueueImpl1Q.html" target="_top" xlink:title="RequestQueueImpl1Q">
<polygon fill="none" stroke="black" points="97.5,-0.5 97.5,-21.5 210.5,-21.5 210.5,-0.5 97.5,-0.5"/>
<text text-anchor="middle" x="154" y="-8.5" font-family="Helvetica,sans-Serif" font-size="10.00">RequestQueueImpl1Q</text>
</a>
</g>
<!-- Node1&#45;&gt;Node4 -->
<g id="edge6" class="edge"><title>Node1&#45;&gt;Node4</title>
<path fill="none" stroke="midnightblue" d="M154,-48.1906C154,-39.1684 154,-28.9941 154,-21.5707"/>
<polygon fill="midnightblue" stroke="midnightblue" points="150.5,-48.3619 154,-58.3619 157.5,-48.3619 150.5,-48.3619"/>
</g>
<!-- Node5 -->
<g id="node9" class="node"><title>Node5</title>
<a xlink:href="classthrill_1_1io_1_1RequestQueueImplQwQr.html" target="_top" xlink:title="RequestQueueImplQwQr">
<polygon fill="none" stroke="black" points="228,-0.5 228,-21.5 354,-21.5 354,-0.5 228,-0.5"/>
<text text-anchor="middle" x="291" y="-8.5" font-family="Helvetica,sans-Serif" font-size="10.00">RequestQueueImplQwQr</text>
</a>
</g>
<!-- Node1&#45;&gt;Node5 -->
<g id="edge8" class="edge"><title>Node1&#45;&gt;Node5</title>
<path fill="none" stroke="midnightblue" d="M188.299,-54.4794C212.415,-44.2695 244.14,-30.8386 265.912,-21.6212"/>
<polygon fill="midnightblue" stroke="midnightblue" points="186.654,-51.3749 178.81,-58.4966 189.383,-57.821 186.654,-51.3749"/>
</g>
<!-- Node2 -->
<g id="node2" class="node"><title>Node2</title>
<a xlink:href="classthrill_1_1io_1_1RequestQueue.html" target="_top" xlink:title="Interface of a request_queue to which requests can be added and canceled.">
<polygon fill="none" stroke="black" points="113,-116.5 113,-137.5 195,-137.5 195,-116.5 113,-116.5"/>
<text text-anchor="middle" x="154" y="-124.5" font-family="Helvetica,sans-Serif" font-size="10.00">RequestQueue</text>
</a>
</g>
<!-- Node2&#45;&gt;Node1 -->
<g id="edge2" class="edge"><title>Node2&#45;&gt;Node1</title>
<path fill="none" stroke="midnightblue" d="M154,-106.191C154,-97.1684 154,-86.9941 154,-79.5707"/>
<polygon fill="midnightblue" stroke="midnightblue" points="150.5,-106.362 154,-116.362 157.5,-106.362 150.5,-106.362"/>
</g>
</g>
</svg>
