<?xml version="1.0" encoding="UTF-8" standalone="no"?>
<!DOCTYPE svg PUBLIC "-//W3C//DTD SVG 1.1//EN"
 "http://www.w3.org/Graphics/SVG/1.1/DTD/svg11.dtd">
<!-- Generated by graphviz version 2.26.3 (20100126.1600)
 -->
<!-- Title: ActionNode Pages: 1 -->
<svg width="880pt" height="329pt"
 viewBox="0.00 0.00 880.00 329.03" xmlns="http://www.w3.org/2000/svg" xmlns:xlink="http://www.w3.org/1999/xlink">
<g id="graph1" class="graph" transform="scale(1 1) rotate(0) translate(4 325.029)">
<title>ActionNode</title>
<!-- Node1 -->
<g id="node1" class="node"><title>Node1</title>
<polygon fill="#bfbfbf" stroke="black" points="94,-131.5 94,-152.5 162,-152.5 162,-131.5 94,-131.5"/>
<text text-anchor="middle" x="128" y="-139.5" font-family="Helvetica,sans-Serif" font-size="10.00">ActionNode</text>
</g>
<!-- Node3 -->
<g id="node5" class="node"><title>Node3</title>
<a xlink:href="classthrill_1_1api_1_1ActionResultNode.html" target="_top" xlink:title="ActionResultNode\&lt; size_t \&gt;">
<polygon fill="none" stroke="black" points="537,-287.5 537,-308.5 677,-308.5 677,-287.5 537,-287.5"/>
<text text-anchor="middle" x="607" y="-295.5" font-family="Helvetica,sans-Serif" font-size="10.00">ActionResultNode&lt; size_t &gt;</text>
</a>
</g>
<!-- Node1&#45;&gt;Node3 -->
<g id="edge4" class="edge"><title>Node1&#45;&gt;Node3</title>
<path fill="none" stroke="midnightblue" d="M134.052,-162.381C143.409,-190.108 164.154,-239.108 200,-264 308.618,-339.428 474.986,-323 557.312,-308.521"/>
<polygon fill="midnightblue" stroke="midnightblue" points="137.295,-161.031 130.92,-152.57 130.627,-163.16 137.295,-161.031"/>
</g>
<!-- Node5 -->
<g id="node9" class="node"><title>Node5</title>
<a xlink:href="classthrill_1_1api_1_1ActionResultNode.html" target="_top" xlink:title="ActionResultNode\&lt; std\l::vector\&lt; ValueType \&gt; \&gt;">
<polygon fill="none" stroke="black" points="545.5,-218 545.5,-252 668.5,-252 668.5,-218 545.5,-218"/>
<text text-anchor="start" x="553.5" y="-239" font-family="Helvetica,sans-Serif" font-size="10.00">ActionResultNode&lt; std</text>
<text text-anchor="middle" x="607" y="-226" font-family="Helvetica,sans-Serif" font-size="10.00">::vector&lt; ValueType &gt; &gt;</text>
</a>
</g>
<!-- Node1&#45;&gt;Node5 -->
<g id="edge8" class="edge"><title>Node1&#45;&gt;Node5</title>
<path fill="none" stroke="midnightblue" d="M171.295,-155.079C174.228,-155.783 177.149,-156.432 180,-157 323.877,-185.654 365.949,-157.352 508,-194 530.156,-199.716 553.876,-209.404 572.542,-217.928"/>
<polygon fill="midnightblue" stroke="midnightblue" points="171.92,-151.626 161.363,-152.521 170.174,-158.405 171.92,-151.626"/>
</g>
<!-- Node8 -->
<g id="node15" class="node"><title>Node8</title>
<a xlink:href="classthrill_1_1api_1_1ActionResultNode.html" target="_top" xlink:title="ActionResultNode\&lt; ValueType \&gt;">
<polygon fill="none" stroke="black" points="526.5,-139.5 526.5,-160.5 687.5,-160.5 687.5,-139.5 526.5,-139.5"/>
<text text-anchor="middle" x="607" y="-147.5" font-family="Helvetica,sans-Serif" font-size="10.00">ActionResultNode&lt; ValueType &gt;</text>
</a>
</g>
<!-- Node1&#45;&gt;Node8 -->
<g id="edge14" class="edge"><title>Node1&#45;&gt;Node8</title>
<path fill="none" stroke="midnightblue" d="M172.355,-142.741C252.949,-144.087 424.477,-146.952 526.299,-148.652"/>
<polygon fill="midnightblue" stroke="midnightblue" points="172.122,-139.237 162.065,-142.569 172.005,-146.236 172.122,-139.237"/>
</g>
<!-- Node10 -->
<g id="node19" class="node"><title>Node10</title>
<a xlink:href="classthrill_1_1api_1_1ActionResultNode.html" target="_top" xlink:title="ActionResultNode\&lt; Result\lType \&gt;">
<polygon fill="none" stroke="black" points="211,-221 211,-255 345,-255 345,-221 211,-221"/>
<text text-anchor="start" x="219" y="-242" font-family="Helvetica,sans-Serif" font-size="10.00">ActionResultNode&lt; Result</text>
<text text-anchor="middle" x="278" y="-229" font-family="Helvetica,sans-Serif" font-size="10.00">Type &gt;</text>
</a>
</g>
<!-- Node1&#45;&gt;Node10 -->
<g id="edge18" class="edge"><title>Node1&#45;&gt;Node10</title>
<path fill="none" stroke="midnightblue" d="M143.307,-160.372C153.001,-171.175 166.264,-184.528 180,-194 195.507,-204.693 214.032,-213.798 230.78,-220.903"/>
<polygon fill="midnightblue" stroke="midnightblue" points="145.848,-157.96 136.642,-152.715 140.568,-162.556 145.848,-157.96"/>
</g>
<!-- Node11 -->
<g id="node24" class="node"><title>Node11</title>
<a xlink:href="exceptionthrill_1_1api_1_1WriteBinaryNode.html" target="_top" xlink:title="WriteBinaryNode\&lt; ValueType \&gt;">
<polygon fill="none" stroke="black" points="200.5,-92.5 200.5,-113.5 355.5,-113.5 355.5,-92.5 200.5,-92.5"/>
<text text-anchor="middle" x="278" y="-100.5" font-family="Helvetica,sans-Serif" font-size="10.00">WriteBinaryNode&lt; ValueType &gt;</text>
</a>
</g>
<!-- Node1&#45;&gt;Node11 -->
<g id="edge26" class="edge"><title>Node1&#45;&gt;Node11</title>
<path fill="none" stroke="midnightblue" d="M171.963,-130.12C174.682,-129.399 177.377,-128.688 180,-128 198.344,-123.191 218.652,-117.99 236.002,-113.584"/>
<polygon fill="midnightblue" stroke="midnightblue" points="170.868,-126.79 162.108,-132.748 172.672,-133.553 170.868,-126.79"/>
</g>
<!-- Node12 -->
<g id="node26" class="node"><title>Node12</title>
<a xlink:href="exceptionthrill_1_1api_1_1WriteLinesNode.html" target="_top" xlink:title="WriteLinesNode\&lt; ValueType \&gt;">
<polygon fill="none" stroke="black" points="202.5,-52.5 202.5,-73.5 353.5,-73.5 353.5,-52.5 202.5,-52.5"/>
<text text-anchor="middle" x="278" y="-60.5" font-family="Helvetica,sans-Serif" font-size="10.00">WriteLinesNode&lt; ValueType &gt;</text>
</a>
</g>
<!-- Node1&#45;&gt;Node12 -->
<g id="edge28" class="edge"><title>Node1&#45;&gt;Node12</title>
<path fill="none" stroke="midnightblue" d="M145.426,-123.979C159.114,-110.814 179.27,-93.4973 200,-83 207.483,-79.2107 215.743,-76.0989 224.005,-73.5554"/>
<polygon fill="midnightblue" stroke="midnightblue" points="142.807,-121.647 138.159,-131.168 147.73,-126.624 142.807,-121.647"/>
</g>
<!-- Node13 -->
<g id="node28" class="node"><title>Node13</title>
<a xlink:href="exceptionthrill_1_1api_1_1WriteLinesOneNode.html" target="_top" xlink:title="WriteLinesOneNode\&lt;\l ValueType \&gt;">
<polygon fill="none" stroke="black" points="223,-0 223,-34 333,-34 333,-0 223,-0"/>
<text text-anchor="start" x="231" y="-21" font-family="Helvetica,sans-Serif" font-size="10.00">WriteLinesOneNode&lt;</text>
<text text-anchor="middle" x="278" y="-8" font-family="Helvetica,sans-Serif" font-size="10.00"> ValueType &gt;</text>
</a>
</g>
<!-- Node1&#45;&gt;Node13 -->
<g id="edge30" class="edge"><title>Node1&#45;&gt;Node13</title>
<path fill="none" stroke="midnightblue" d="M137.594,-122.171C149.351,-99.863 171.298,-64.0094 200,-43 206.911,-37.9413 214.867,-33.8256 222.999,-30.4889"/>
<polygon fill="midnightblue" stroke="midnightblue" points="134.332,-120.865 132.922,-131.366 140.572,-124.036 134.332,-120.865"/>
</g>
<!-- Node2 -->
<g id="node2" class="node"><title>Node2</title>
<a xlink:href="classthrill_1_1api_1_1DIABase.html" target="_top" xlink:title="The DIABase is the untyped super class of DIANode.">
<polygon fill="none" stroke="black" points="0,-131.5 0,-152.5 56,-152.5 56,-131.5 0,-131.5"/>
<text text-anchor="middle" x="28" y="-139.5" font-family="Helvetica,sans-Serif" font-size="10.00">DIABase</text>
</a>
</g>
<!-- Node2&#45;&gt;Node1 -->
<g id="edge2" class="edge"><title>Node2&#45;&gt;Node1</title>
<path fill="none" stroke="midnightblue" d="M66.3624,-142C75.3583,-142 84.8863,-142 93.6917,-142"/>
<polygon fill="midnightblue" stroke="midnightblue" points="66.1217,-138.5 56.1217,-142 66.1217,-145.5 66.1217,-138.5"/>
</g>
<!-- Node4 -->
<g id="node7" class="node"><title>Node4</title>
<a xlink:href="exceptionthrill_1_1api_1_1SizeNode.html" target="_top" xlink:title="SizeNode\&lt; ValueType \&gt;">
<polygon fill="none" stroke="black" points="737,-287.5 737,-308.5 861,-308.5 861,-287.5 737,-287.5"/>
<text text-anchor="middle" x="799" y="-295.5" font-family="Helvetica,sans-Serif" font-size="10.00">SizeNode&lt; ValueType &gt;</text>
</a>
</g>
<!-- Node3&#45;&gt;Node4 -->
<g id="edge6" class="edge"><title>Node3&#45;&gt;Node4</title>
<path fill="none" stroke="midnightblue" d="M687.359,-298C703.948,-298 721.176,-298 736.992,-298"/>
<polygon fill="midnightblue" stroke="midnightblue" points="687.131,-294.5 677.131,-298 687.131,-301.5 687.131,-294.5"/>
</g>
<!-- Node6 -->
<g id="node11" class="node"><title>Node6</title>
<a xlink:href="exceptionthrill_1_1api_1_1AllGatherNode.html" target="_top" xlink:title="AllGatherNode\&lt; ValueType \&gt;">
<polygon fill="none" stroke="black" points="726.5,-240.5 726.5,-261.5 871.5,-261.5 871.5,-240.5 726.5,-240.5"/>
<text text-anchor="middle" x="799" y="-248.5" font-family="Helvetica,sans-Serif" font-size="10.00">AllGatherNode&lt; ValueType &gt;</text>
</a>
</g>
<!-- Node5&#45;&gt;Node6 -->
<g id="edge10" class="edge"><title>Node5&#45;&gt;Node6</title>
<path fill="none" stroke="midnightblue" d="M678.646,-240.97C694.251,-242.271 710.776,-243.648 726.417,-244.951"/>
<polygon fill="midnightblue" stroke="midnightblue" points="678.798,-237.471 668.542,-240.129 678.217,-244.447 678.798,-237.471"/>
</g>
<!-- Node7 -->
<g id="node13" class="node"><title>Node7</title>
<a xlink:href="exceptionthrill_1_1api_1_1GatherNode.html" target="_top" xlink:title="GatherNode\&lt; ValueType \&gt;">
<polygon fill="none" stroke="black" points="732,-200.5 732,-221.5 866,-221.5 866,-200.5 732,-200.5"/>
<text text-anchor="middle" x="799" y="-208.5" font-family="Helvetica,sans-Serif" font-size="10.00">GatherNode&lt; ValueType &gt;</text>
</a>
</g>
<!-- Node5&#45;&gt;Node7 -->
<g id="edge12" class="edge"><title>Node5&#45;&gt;Node7</title>
<path fill="none" stroke="midnightblue" d="M678.646,-226.044C696.063,-223.867 714.625,-221.547 731.827,-219.397"/>
<polygon fill="midnightblue" stroke="midnightblue" points="678.031,-222.594 668.542,-227.307 678.899,-229.54 678.031,-222.594"/>
</g>
<!-- Node9 -->
<g id="node17" class="node"><title>Node9</title>
<a xlink:href="exceptionthrill_1_1api_1_1AllReduceNode.html" target="_top" xlink:title="AllReduceNode\&lt; ValueType,\l ReduceFunction \&gt;">
<polygon fill="none" stroke="black" points="727.5,-133 727.5,-167 870.5,-167 870.5,-133 727.5,-133"/>
<text text-anchor="start" x="735.5" y="-154" font-family="Helvetica,sans-Serif" font-size="10.00">AllReduceNode&lt; ValueType,</text>
<text text-anchor="middle" x="799" y="-141" font-family="Helvetica,sans-Serif" font-size="10.00"> ReduceFunction &gt;</text>
</a>
</g>
<!-- Node8&#45;&gt;Node9 -->
<g id="edge16" class="edge"><title>Node8&#45;&gt;Node9</title>
<path fill="none" stroke="midnightblue" d="M697.892,-150C707.819,-150 717.82,-150 727.467,-150"/>
<polygon fill="midnightblue" stroke="midnightblue" points="697.591,-146.5 687.591,-150 697.591,-153.5 697.591,-146.5"/>
</g>
<!-- Node10&#45;&gt;Node3 -->
<g id="edge22" class="edge"><title>Node10&#45;&gt;Node3</title>
<path fill="none" stroke="orange" stroke-dasharray="5,2" d="M355.458,-252.126C414.86,-262.959 495.529,-277.671 549.332,-287.483"/>
<polygon fill="orange" stroke="orange" points="355.838,-248.638 345.372,-250.287 354.582,-255.524 355.838,-248.638"/>
<text text-anchor="middle" x="441" y="-282" font-family="Helvetica,sans-Serif" font-size="10.00"> &lt; size_t &gt;</text>
</g>
<!-- Node10&#45;&gt;Node5 -->
<g id="edge20" class="edge"><title>Node10&#45;&gt;Node5</title>
<path fill="none" stroke="orange" stroke-dasharray="5,2" d="M355.576,-237.293C413.49,-236.765 491.572,-236.053 545.275,-235.563"/>
<polygon fill="orange" stroke="orange" points="355.34,-233.795 345.372,-237.386 355.403,-240.794 355.34,-233.795"/>
<text text-anchor="middle" x="441" y="-241" font-family="Helvetica,sans-Serif" font-size="10.00"> &lt; std::vector&lt; ValueType &gt; &gt;</text>
</g>
<!-- Node10&#45;&gt;Node8 -->
<g id="edge24" class="edge"><title>Node10&#45;&gt;Node8</title>
<path fill="none" stroke="orange" stroke-dasharray="5,2" d="M351.873,-218.241C418.668,-200.375 514.444,-174.757 567.617,-160.534"/>
<polygon fill="orange" stroke="orange" points="350.581,-214.963 341.825,-220.928 352.389,-221.726 350.581,-214.963"/>
<text text-anchor="middle" x="441" y="-216" font-family="Helvetica,sans-Serif" font-size="10.00"> &lt; ValueType &gt;</text>
</g>
</g>
</svg>
