<?xml version="1.0" encoding="UTF-8" standalone="no"?>
<!DOCTYPE svg PUBLIC "-//W3C//DTD SVG 1.1//EN"
 "http://www.w3.org/Graphics/SVG/1.1/DTD/svg11.dtd">
<!-- Generated by graphviz version 2.36.0 (20140111.2315)
 -->
<!-- Title: HyperLogLogNode&lt; p, ValueType &gt; Pages: 1 -->
<svg width="251pt" height="384pt"
 viewBox="0.00 0.00 251.00 384.00" xmlns="http://www.w3.org/2000/svg" xmlns:xlink="http://www.w3.org/1999/xlink">
<g id="graph0" class="graph" transform="scale(1 1) rotate(0) translate(4 380)">
<title>HyperLogLogNode&lt; p, ValueType &gt;</title>
<!-- Node1 -->
<g id="node1" class="node"><title>Node1</title>
<polygon fill="#bfbfbf" stroke="black" points="10.5,-1 10.5,-31 125.5,-31 125.5,-1 10.5,-1"/>
<text text-anchor="start" x="18.5" y="-19" font-family="Helvetica,sans-Serif" font-size="10.00">HyperLogLogNode&lt; p,</text>
<text text-anchor="middle" x="68" y="-8" font-family="Helvetica,sans-Serif" font-size="10.00"> ValueType &gt;</text>
</g>
<!-- Node2 -->
<g id="node2" class="node"><title>Node2</title>
<g id="a_node2"><a xlink:href="classthrill_1_1api_1_1ActionResultNode.html" target="_top" xlink:title="ActionResultNode\&lt; core\l::HyperLogLogRegisters\l\&lt; p \&gt; \&gt;">
<polygon fill="none" stroke="black" points="6,-70.5 6,-111.5 130,-111.5 130,-70.5 6,-70.5"/>
<text text-anchor="start" x="14" y="-99.5" font-family="Helvetica,sans-Serif" font-size="10.00">ActionResultNode&lt; core</text>
<text text-anchor="start" x="14" y="-88.5" font-family="Helvetica,sans-Serif" font-size="10.00">::HyperLogLogRegisters</text>
<text text-anchor="middle" x="68" y="-77.5" font-family="Helvetica,sans-Serif" font-size="10.00">&lt; p &gt; &gt;</text>
</a>
</g>
</g>
<!-- Node2&#45;&gt;Node1 -->
<g id="edge1" class="edge"><title>Node2&#45;&gt;Node1</title>
<path fill="none" stroke="midnightblue" d="M68,-60.3718C68,-50.335 68,-39.579 68,-31.2892"/>
<polygon fill="midnightblue" stroke="midnightblue" points="64.5001,-60.4373 68,-70.4373 71.5001,-60.4374 64.5001,-60.4373"/>
</g>
<!-- Node3 -->
<g id="node3" class="node"><title>Node3</title>
<g id="a_node3"><a xlink:href="classthrill_1_1api_1_1ActionNode.html" target="_top" xlink:title="ActionNode">
<polygon fill="none" stroke="black" points="14,-240.5 14,-259.5 82,-259.5 82,-240.5 14,-240.5"/>
<text text-anchor="middle" x="48" y="-247.5" font-family="Helvetica,sans-Serif" font-size="10.00">ActionNode</text>
</a>
</g>
</g>
<!-- Node3&#45;&gt;Node2 -->
<g id="edge2" class="edge"><title>Node3&#45;&gt;Node2</title>
<path fill="none" stroke="midnightblue" d="M49.2712,-230.016C50.443,-213.986 52.3946,-190.443 55,-170 57.534,-150.117 61.406,-127.543 64.2656,-111.815"/>
<polygon fill="midnightblue" stroke="midnightblue" points="45.7647,-229.989 48.5577,-240.209 52.7476,-230.477 45.7647,-229.989"/>
</g>
<!-- Node6 -->
<g id="node6" class="node"><title>Node6</title>
<g id="a_node6"><a xlink:href="classthrill_1_1api_1_1ActionResultNode.html" target="_top" xlink:title="ActionResultNode\&lt; Result\lType \&gt;">
<polygon fill="none" stroke="black" points="64,-171 64,-201 198,-201 198,-171 64,-171"/>
<text text-anchor="start" x="72" y="-189" font-family="Helvetica,sans-Serif" font-size="10.00">ActionResultNode&lt; Result</text>
<text text-anchor="middle" x="131" y="-178" font-family="Helvetica,sans-Serif" font-size="10.00">Type &gt;</text>
</a>
</g>
</g>
<!-- Node3&#45;&gt;Node6 -->
<g id="edge6" class="edge"><title>Node3&#45;&gt;Node6</title>
<path fill="none" stroke="midnightblue" d="M67.6903,-234.292C81.1718,-224.221 98.9429,-210.946 112.224,-201.025"/>
<polygon fill="midnightblue" stroke="midnightblue" points="65.4578,-231.591 59.5408,-240.379 69.647,-237.199 65.4578,-231.591"/>
</g>
<!-- Node4 -->
<g id="node4" class="node"><title>Node4</title>
<g id="a_node4"><a xlink:href="classthrill_1_1api_1_1DIABase.html" target="_top" xlink:title="The DIABase is the untyped super class of DIANode. ">
<polygon fill="none" stroke="black" points="20,-298.5 20,-317.5 76,-317.5 76,-298.5 20,-298.5"/>
<text text-anchor="middle" x="48" y="-305.5" font-family="Helvetica,sans-Serif" font-size="10.00">DIABase</text>
</a>
</g>
</g>
<!-- Node4&#45;&gt;Node3 -->
<g id="edge3" class="edge"><title>Node4&#45;&gt;Node3</title>
<path fill="none" stroke="midnightblue" d="M48,-287.953C48,-278.287 48,-267.031 48,-259.505"/>
<polygon fill="midnightblue" stroke="midnightblue" points="44.5001,-288.25 48,-298.25 51.5001,-288.25 44.5001,-288.25"/>
</g>
<!-- Node5 -->
<g id="node5" class="node"><title>Node5</title>
<g id="a_node5"><a xlink:href="classtlx_1_1ReferenceCounter.html" target="_top" xlink:title="Provides reference counting abilities for use with CountingPtr. ">
<polygon fill="none" stroke="black" points="0,-356.5 0,-375.5 96,-375.5 96,-356.5 0,-356.5"/>
<text text-anchor="middle" x="48" y="-363.5" font-family="Helvetica,sans-Serif" font-size="10.00">ReferenceCounter</text>
</a>
</g>
</g>
<!-- Node5&#45;&gt;Node4 -->
<g id="edge4" class="edge"><title>Node5&#45;&gt;Node4</title>
<path fill="none" stroke="midnightblue" d="M48,-345.953C48,-336.287 48,-325.031 48,-317.505"/>
<polygon fill="midnightblue" stroke="midnightblue" points="44.5001,-346.25 48,-356.25 51.5001,-346.25 44.5001,-346.25"/>
</g>
<!-- Node6&#45;&gt;Node2 -->
<g id="edge5" class="edge"><title>Node6&#45;&gt;Node2</title>
<path fill="none" stroke="orange" stroke-dasharray="5,2" d="M115.694,-162.406C105.215,-146.937 91.4522,-126.62 81.4053,-111.789"/>
<polygon fill="orange" stroke="orange" points="112.925,-164.559 121.432,-170.875 118.721,-160.633 112.925,-164.559"/>
<text text-anchor="start" x="106" y="-144" font-family="Helvetica,sans-Serif" font-size="10.00"> &lt; core::HyperLogLogRegisters</text>
<text text-anchor="middle" x="174.5" y="-133" font-family="Helvetica,sans-Serif" font-size="10.00">&lt; p &gt; &gt;</text>
</g>
</g>
</svg>
