<?xml version="1.0" encoding="UTF-8" standalone="no"?>
<!DOCTYPE svg PUBLIC "-//W3C//DTD SVG 1.1//EN"
 "http://www.w3.org/Graphics/SVG/1.1/DTD/svg11.dtd">
<!-- Generated by graphviz version 2.40.1 (20161225.0304)
 -->
<!-- Title: MultiplexerHeader Pages: 1 -->
<svg width="316pt" height="84pt"
 viewBox="0.00 0.00 315.50 84.00" xmlns="http://www.w3.org/2000/svg" xmlns:xlink="http://www.w3.org/1999/xlink">
<g id="graph0" class="graph" transform="scale(1 1) rotate(0) translate(4 80)">
<title>MultiplexerHeader</title>
<!-- Node0 -->
<g id="node1" class="node">
<title>Node0</title>
<polygon fill="#bfbfbf" stroke="#000000" points="101,-56.5 101,-75.5 208,-75.5 208,-56.5 101,-56.5"/>
<text text-anchor="middle" x="154.5" y="-63.5" font-family="Helvetica,sans-Serif" font-size="10.00" fill="#000000">MultiplexerHeader</text>
</g>
<!-- Node1 -->
<g id="node2" class="node">
<title>Node1</title>
<g id="a_node2"><a xlink:href="classthrill_1_1data_1_1PartitionMultiplexerHeader.html" target="_top" xlink:title="PartitionMultiplexerHeader">
<polygon fill="none" stroke="#000000" points="0,-.5 0,-19.5 147,-19.5 147,-.5 0,-.5"/>
<text text-anchor="middle" x="73.5" y="-7.5" font-family="Helvetica,sans-Serif" font-size="10.00" fill="#000000">PartitionMultiplexerHeader</text>
</a>
</g>
</g>
<!-- Node0&#45;&gt;Node1 -->
<g id="edge1" class="edge">
<title>Node0&#45;&gt;Node1</title>
<path fill="none" stroke="#191970" d="M132.066,-50.49C117.7746,-40.6096 99.7084,-28.1194 87.4474,-19.6427"/>
<polygon fill="#191970" stroke="#191970" points="130.1749,-53.4376 140.3909,-56.2455 134.1557,-47.6797 130.1749,-53.4376"/>
</g>
<!-- Node2 -->
<g id="node3" class="node">
<title>Node2</title>
<g id="a_node3"><a xlink:href="classthrill_1_1data_1_1StreamMultiplexerHeader.html" target="_top" xlink:title="Block header is sent before a sequence of blocks it indicates the number of elements and their bounda...">
<polygon fill="none" stroke="#000000" points="165.5,-.5 165.5,-19.5 307.5,-19.5 307.5,-.5 165.5,-.5"/>
<text text-anchor="middle" x="236.5" y="-7.5" font-family="Helvetica,sans-Serif" font-size="10.00" fill="#000000">StreamMultiplexerHeader</text>
</a>
</g>
</g>
<!-- Node0&#45;&gt;Node2 -->
<g id="edge2" class="edge">
<title>Node0&#45;&gt;Node2</title>
<path fill="none" stroke="#191970" d="M177.211,-50.49C191.6788,-40.6096 209.968,-28.1194 222.3804,-19.6427"/>
<polygon fill="#191970" stroke="#191970" points="175.0675,-47.7156 168.7833,-56.2455 179.0152,-53.4962 175.0675,-47.7156"/>
</g>
</g>
</svg>
