<?xml version="1.0" encoding="UTF-8" standalone="no"?>
<!DOCTYPE svg PUBLIC "-//W3C//DTD SVG 1.1//EN"
 "http://www.w3.org/Graphics/SVG/1.1/DTD/svg11.dtd">
<!-- Generated by graphviz version 2.26.3 (20100126.1600)
 -->
<!-- Title: TypedBlock&lt; RawSize, Type, NRef, MetaInfoType &gt; Pages: 1 -->
<svg width="1826pt" height="218pt"
 viewBox="0.00 0.00 1826.00 218.00" xmlns="http://www.w3.org/2000/svg" xmlns:xlink="http://www.w3.org/1999/xlink">
<g id="graph1" class="graph" transform="scale(1 1) rotate(0) translate(4 214)">
<title>TypedBlock&lt; RawSize, Type, NRef, MetaInfoType &gt;</title>
<!-- Node1 -->
<g id="node1" class="node"><title>Node1</title>
<polygon fill="#bfbfbf" stroke="black" points="1672,-39 1672,-73 1818,-73 1818,-39 1672,-39"/>
<text text-anchor="start" x="1680" y="-60" font-family="Helvetica,sans-Serif" font-size="10.00">TypedBlock&lt; RawSize,</text>
<text text-anchor="middle" x="1745" y="-47" font-family="Helvetica,sans-Serif" font-size="10.00"> Type, NRef, MetaInfoType &gt;</text>
</g>
<!-- Node2 -->
<g id="node2" class="node"><title>Node2</title>
<a xlink:href="classthrill_1_1io_1_1mng__local_1_1ExpandStruct.html" target="_top" xlink:title="ExpandStruct\&lt; mng_local\l::BlockWithInfo\&lt; Type,\l RawSize, NRef, MetaInfoType\l \&gt;, RawSize \&gt;">
<polygon fill="none" stroke="black" points="1478.5,-26 1478.5,-86 1633.5,-86 1633.5,-26 1478.5,-26"/>
<text text-anchor="start" x="1486.5" y="-73" font-family="Helvetica,sans-Serif" font-size="10.00">ExpandStruct&lt; mng_local</text>
<text text-anchor="start" x="1486.5" y="-60" font-family="Helvetica,sans-Serif" font-size="10.00">::BlockWithInfo&lt; Type,</text>
<text text-anchor="start" x="1486.5" y="-47" font-family="Helvetica,sans-Serif" font-size="10.00"> RawSize, NRef, MetaInfoType</text>
<text text-anchor="middle" x="1556" y="-34" font-family="Helvetica,sans-Serif" font-size="10.00"> &gt;, RawSize &gt;</text>
</a>
</g>
<!-- Node2&#45;&gt;Node1 -->
<g id="edge2" class="edge"><title>Node2&#45;&gt;Node1</title>
<path fill="none" stroke="midnightblue" d="M1643.82,-56C1653.21,-56 1662.68,-56 1671.87,-56"/>
<polygon fill="midnightblue" stroke="midnightblue" points="1643.69,-52.5001 1633.69,-56 1643.69,-59.5001 1643.69,-52.5001"/>
</g>
<!-- Node3 -->
<g id="node4" class="node"><title>Node3</title>
<a xlink:href="classthrill_1_1io_1_1mng__local_1_1AddFiller.html" target="_top" xlink:title="AddFiller\&lt; mng_local\l::BlockWithInfo\&lt; Type,\l RawSize, NRef, MetaInfoType\l \&gt;, RawSize&#45;sizeof(mng_local\l::BlockWithInfo\&lt; Type, RawSize,\l NRef, MetaInfoType \&gt;)\&gt;">
<polygon fill="none" stroke="black" points="1126,-52 1126,-138 1290,-138 1290,-52 1126,-52"/>
<text text-anchor="start" x="1134" y="-125" font-family="Helvetica,sans-Serif" font-size="10.00">AddFiller&lt; mng_local</text>
<text text-anchor="start" x="1134" y="-112" font-family="Helvetica,sans-Serif" font-size="10.00">::BlockWithInfo&lt; Type,</text>
<text text-anchor="start" x="1134" y="-99" font-family="Helvetica,sans-Serif" font-size="10.00"> RawSize, NRef, MetaInfoType</text>
<text text-anchor="start" x="1134" y="-86" font-family="Helvetica,sans-Serif" font-size="10.00"> &gt;, RawSize&#45;sizeof(mng_local</text>
<text text-anchor="start" x="1134" y="-73" font-family="Helvetica,sans-Serif" font-size="10.00">::BlockWithInfo&lt; Type, RawSize,</text>
<text text-anchor="middle" x="1208" y="-60" font-family="Helvetica,sans-Serif" font-size="10.00"> NRef, MetaInfoType &gt;)&gt;</text>
</a>
</g>
<!-- Node3&#45;&gt;Node2 -->
<g id="edge4" class="edge"><title>Node3&#45;&gt;Node2</title>
<path fill="none" stroke="midnightblue" d="M1300.23,-84.6642C1355.77,-78.4395 1425.7,-70.6022 1478.4,-64.6965"/>
<polygon fill="midnightblue" stroke="midnightblue" points="1299.58,-81.2149 1290.03,-85.8069 1300.36,-88.1714 1299.58,-81.2149"/>
</g>
<!-- Node4 -->
<g id="node6" class="node"><title>Node4</title>
<a xlink:href="classthrill_1_1io_1_1mng__local_1_1BlockWithInfo.html" target="_top" xlink:title="BlockWithInfo\&lt; Type,\l RawSize, NRef, MetaInfoType \&gt;">
<polygon fill="none" stroke="black" points="924,-153 924,-187 1088,-187 1088,-153 924,-153"/>
<text text-anchor="start" x="932" y="-174" font-family="Helvetica,sans-Serif" font-size="10.00">BlockWithInfo&lt; Type,</text>
<text text-anchor="middle" x="1006" y="-161" font-family="Helvetica,sans-Serif" font-size="10.00"> RawSize, NRef, MetaInfoType &gt;</text>
</a>
</g>
<!-- Node4&#45;&gt;Node3 -->
<g id="edge6" class="edge"><title>Node4&#45;&gt;Node3</title>
<path fill="none" stroke="midnightblue" d="M1061.35,-149.451C1081.25,-142.062 1104.14,-133.563 1125.83,-125.509"/>
<polygon fill="midnightblue" stroke="midnightblue" points="1059.99,-146.219 1051.84,-152.981 1062.43,-152.782 1059.99,-146.219"/>
</g>
<!-- Node5 -->
<g id="node8" class="node"><title>Node5</title>
<a xlink:href="classthrill_1_1io_1_1mng__local_1_1BlockWithBids.html" target="_top" xlink:title="BlockWithBids\&lt; Type,\l((RawSize&#45;sizeof(BID\l\&lt; RawSize \&gt;)*NBids&#45;sizeof\l(MetaInfoType))/sizeof(Type)\l), RawSize, NBids \&gt;">
<polygon fill="none" stroke="black" points="426.5,-136.5 426.5,-209.5 569.5,-209.5 569.5,-136.5 426.5,-136.5"/>
<text text-anchor="start" x="434.5" y="-196.5" font-family="Helvetica,sans-Serif" font-size="10.00">BlockWithBids&lt; Type,</text>
<text text-anchor="start" x="434.5" y="-183.5" font-family="Helvetica,sans-Serif" font-size="10.00">((RawSize&#45;sizeof(BID</text>
<text text-anchor="start" x="434.5" y="-170.5" font-family="Helvetica,sans-Serif" font-size="10.00">&lt; RawSize &gt;)*NBids&#45;sizeof</text>
<text text-anchor="start" x="434.5" y="-157.5" font-family="Helvetica,sans-Serif" font-size="10.00">(MetaInfoType))/sizeof(Type)</text>
<text text-anchor="middle" x="498" y="-144.5" font-family="Helvetica,sans-Serif" font-size="10.00">), RawSize, NBids &gt;</text>
</a>
</g>
<!-- Node5&#45;&gt;Node4 -->
<g id="edge8" class="edge"><title>Node5&#45;&gt;Node4</title>
<path fill="none" stroke="midnightblue" d="M579.565,-175.944C661.946,-178.412 792.848,-180.955 906,-177 911.827,-176.796 917.841,-176.526 923.894,-176.21"/>
<polygon fill="midnightblue" stroke="midnightblue" points="579.618,-172.444 569.515,-175.636 579.404,-179.441 579.618,-172.444"/>
</g>
<!-- Node8 -->
<g id="node15" class="node"><title>Node8</title>
<a xlink:href="classthrill_1_1io_1_1mng__local_1_1BlockWithInfo.html" target="_top" xlink:title="Contains per block information for TypedBlock , not intended for direct use.">
<polygon fill="none" stroke="black" points="608.5,-129 608.5,-163 775.5,-163 775.5,-129 608.5,-129"/>
<text text-anchor="start" x="616.5" y="-150" font-family="Helvetica,sans-Serif" font-size="10.00">BlockWithInfo&lt; Type,</text>
<text text-anchor="middle" x="692" y="-137" font-family="Helvetica,sans-Serif" font-size="10.00"> RawSize, NBids, MetaInfoType &gt;</text>
</a>
</g>
<!-- Node5&#45;&gt;Node8 -->
<g id="edge18" class="edge"><title>Node5&#45;&gt;Node8</title>
<path fill="none" stroke="midnightblue" d="M579.863,-161.607C589.329,-160.289 598.991,-158.945 608.479,-157.624"/>
<polygon fill="midnightblue" stroke="midnightblue" points="579.109,-158.178 569.687,-163.023 580.074,-165.111 579.109,-158.178"/>
</g>
<!-- Node6 -->
<g id="node10" class="node"><title>Node6</title>
<a xlink:href="classthrill_1_1io_1_1mng__local_1_1ElementBlock.html" target="_top" xlink:title="Contains data elements for TypedBlock , not intended for direct use.">
<polygon fill="none" stroke="black" points="0.5,-174 0.5,-208 111.5,-208 111.5,-174 0.5,-174"/>
<text text-anchor="start" x="8.5" y="-195" font-family="Helvetica,sans-Serif" font-size="10.00">ElementBlock&lt; Type,</text>
<text text-anchor="middle" x="56" y="-182" font-family="Helvetica,sans-Serif" font-size="10.00"> Size &gt;</text>
</a>
</g>
<!-- Node6&#45;&gt;Node5 -->
<g id="edge10" class="edge"><title>Node6&#45;&gt;Node5</title>
<path fill="none" stroke="midnightblue" d="M121.641,-198.839C192.624,-205.842 308.923,-213.024 408,-199 413.958,-198.157 420.074,-197.014 426.178,-195.676"/>
<polygon fill="midnightblue" stroke="midnightblue" points="121.806,-195.338 111.504,-197.81 121.099,-202.302 121.806,-195.338"/>
</g>
<!-- Node7 -->
<g id="node12" class="node"><title>Node7</title>
<a xlink:href="classthrill_1_1io_1_1mng__local_1_1BlockWithBids.html" target="_top" xlink:title="Contains BID references for TypedBlock , not intended for direct use.">
<polygon fill="none" stroke="black" points="150.5,-134 150.5,-168 277.5,-168 277.5,-134 150.5,-134"/>
<text text-anchor="start" x="158.5" y="-155" font-family="Helvetica,sans-Serif" font-size="10.00">BlockWithBids&lt; Type,</text>
<text text-anchor="middle" x="214" y="-142" font-family="Helvetica,sans-Serif" font-size="10.00"> Size, RawSize, NBids &gt;</text>
</a>
</g>
<!-- Node6&#45;&gt;Node7 -->
<g id="edge14" class="edge"><title>Node6&#45;&gt;Node7</title>
<path fill="none" stroke="midnightblue" d="M121.541,-174.407C131.097,-171.988 140.923,-169.5 150.439,-167.091"/>
<polygon fill="midnightblue" stroke="midnightblue" points="120.54,-171.05 111.705,-176.897 122.258,-177.836 120.54,-171.05"/>
</g>
<!-- Node7&#45;&gt;Node5 -->
<g id="edge12" class="edge"><title>Node7&#45;&gt;Node5</title>
<path fill="none" stroke="orange" stroke-dasharray="5,2" d="M287.946,-134.497C324.387,-128.898 368.813,-125.874 408,-134 414.086,-135.262 420.266,-136.957 426.39,-138.936"/>
<polygon fill="orange" stroke="orange" points="287.196,-131.073 277.891,-136.138 288.324,-137.982 287.196,-131.073"/>
<text text-anchor="start" x="296" y="-190" font-family="Helvetica,sans-Serif" font-size="10.00"> &lt; Type,((RawSize&#45;sizeof</text>
<text text-anchor="start" x="296" y="-177" font-family="Helvetica,sans-Serif" font-size="10.00">(BID&lt; RawSize &gt;)*NBids</text>
<text text-anchor="start" x="296" y="-164" font-family="Helvetica,sans-Serif" font-size="10.00">&#45;sizeof(MetaInfoType))</text>
<text text-anchor="start" x="296" y="-151" font-family="Helvetica,sans-Serif" font-size="10.00">/sizeof(Type)), RawSize,</text>
<text text-anchor="middle" x="352" y="-138" font-family="Helvetica,sans-Serif" font-size="10.00"> NBids &gt;</text>
</g>
<!-- Node8&#45;&gt;Node4 -->
<g id="edge16" class="edge"><title>Node8&#45;&gt;Node4</title>
<path fill="none" stroke="orange" stroke-dasharray="5,2" d="M785.934,-144.863C823.378,-145.278 866.815,-146.848 906,-151 911.799,-151.614 917.765,-152.386 923.758,-153.265"/>
<polygon fill="orange" stroke="orange" points="785.569,-141.36 775.54,-144.775 785.51,-148.359 785.569,-141.36"/>
<text text-anchor="start" x="794" y="-168" font-family="Helvetica,sans-Serif" font-size="10.00"> &lt; Type, RawSize, NRef,</text>
<text text-anchor="middle" x="850" y="-155" font-family="Helvetica,sans-Serif" font-size="10.00"> MetaInfoType &gt;</text>
</g>
<!-- Node9 -->
<g id="node18" class="node"><title>Node9</title>
<a xlink:href="classthrill_1_1io_1_1mng__local_1_1AddFiller.html" target="_top" xlink:title="Contains per block filler for TypedBlock , not intended for direct use.">
<polygon fill="none" stroke="black" points="636.5,-30 636.5,-64 747.5,-64 747.5,-30 636.5,-30"/>
<text text-anchor="start" x="644.5" y="-51" font-family="Helvetica,sans-Serif" font-size="10.00">AddFiller&lt; BaseType,</text>
<text text-anchor="middle" x="692" y="-38" font-family="Helvetica,sans-Serif" font-size="10.00"> FillSize &gt;</text>
</a>
</g>
<!-- Node9&#45;&gt;Node3 -->
<g id="edge20" class="edge"><title>Node9&#45;&gt;Node3</title>
<path fill="none" stroke="orange" stroke-dasharray="5,2" d="M757.613,-52.8862C769.711,-53.9441 782.236,-55.0208 794,-56 924.614,-66.8712 957.66,-65.2227 1088,-79 1100.23,-80.2925 1113.13,-81.8297 1125.77,-83.4324"/>
<polygon fill="orange" stroke="orange" points="757.844,-49.3931 747.576,-52.0046 757.231,-56.3663 757.844,-49.3931"/>
<text text-anchor="start" x="929" y="-135" font-family="Helvetica,sans-Serif" font-size="10.00"> &lt; mng_local::BlockWithInfo</text>
<text text-anchor="start" x="929" y="-122" font-family="Helvetica,sans-Serif" font-size="10.00">&lt; Type, RawSize, NRef, MetaInfo</text>
<text text-anchor="start" x="929" y="-109" font-family="Helvetica,sans-Serif" font-size="10.00">Type &gt;, RawSize&#45;sizeof(mng_local</text>
<text text-anchor="start" x="929" y="-96" font-family="Helvetica,sans-Serif" font-size="10.00">::BlockWithInfo&lt; Type, RawSize,</text>
<text text-anchor="middle" x="1006" y="-83" font-family="Helvetica,sans-Serif" font-size="10.00"> NRef, MetaInfoType &gt;)&gt;</text>
</g>
<!-- Node11 -->
<g id="node22" class="node"><title>Node11</title>
<a xlink:href="classthrill_1_1io_1_1mng__local_1_1AddFiller.html" target="_top" xlink:title="AddFiller\&lt; Type, RawSize\l&#45;sizeof(Type)\&gt;">
<polygon fill="none" stroke="black" points="940.5,-0 940.5,-34 1071.5,-34 1071.5,-0 940.5,-0"/>
<text text-anchor="start" x="948.5" y="-21" font-family="Helvetica,sans-Serif" font-size="10.00">AddFiller&lt; Type, RawSize</text>
<text text-anchor="middle" x="1006" y="-8" font-family="Helvetica,sans-Serif" font-size="10.00">&#45;sizeof(Type)&gt;</text>
</a>
</g>
<!-- Node9&#45;&gt;Node11 -->
<g id="edge26" class="edge"><title>Node9&#45;&gt;Node11</title>
<path fill="none" stroke="orange" stroke-dasharray="5,2" d="M757.693,-35.0202C769.739,-33.1174 782.224,-31.3387 794,-30 842.913,-24.4395 898.463,-21.1431 940.427,-19.2616"/>
<polygon fill="orange" stroke="orange" points="757.014,-31.5846 747.703,-36.6409 758.135,-38.4943 757.014,-31.5846"/>
<text text-anchor="start" x="795.5" y="-47" font-family="Helvetica,sans-Serif" font-size="10.00"> &lt; Type, RawSize&#45;sizeof</text>
<text text-anchor="middle" x="850" y="-34" font-family="Helvetica,sans-Serif" font-size="10.00">(Type)&gt;</text>
</g>
<!-- Node10 -->
<g id="node20" class="node"><title>Node10</title>
<a xlink:href="classthrill_1_1io_1_1mng__local_1_1ExpandStruct.html" target="_top" xlink:title="Helper to compute the size of the filler , not intended for direct use.">
<polygon fill="none" stroke="black" points="1153,-0 1153,-34 1263,-34 1263,-0 1153,-0"/>
<text text-anchor="start" x="1161" y="-21" font-family="Helvetica,sans-Serif" font-size="10.00">ExpandStruct&lt; Type,</text>
<text text-anchor="middle" x="1208" y="-8" font-family="Helvetica,sans-Serif" font-size="10.00"> RawSize &gt;</text>
</a>
</g>
<!-- Node10&#45;&gt;Node2 -->
<g id="edge22" class="edge"><title>Node10&#45;&gt;Node2</title>
<path fill="none" stroke="orange" stroke-dasharray="5,2" d="M1273.27,-14.0901C1324.45,-13.0037 1397.26,-14.0987 1460,-25 1466.04,-26.0494 1472.22,-27.3913 1478.4,-28.9261"/>
<polygon fill="orange" stroke="orange" points="1272.92,-10.5976 1263.01,-14.3433 1273.1,-17.5954 1272.92,-10.5976"/>
<text text-anchor="start" x="1308.5" y="-55" font-family="Helvetica,sans-Serif" font-size="10.00"> &lt; mng_local::BlockWithInfo</text>
<text text-anchor="start" x="1308.5" y="-42" font-family="Helvetica,sans-Serif" font-size="10.00">&lt; Type, RawSize, NRef, MetaInfo</text>
<text text-anchor="middle" x="1384" y="-29" font-family="Helvetica,sans-Serif" font-size="10.00">Type &gt;, RawSize &gt;</text>
</g>
<!-- Node11&#45;&gt;Node10 -->
<g id="edge24" class="edge"><title>Node11&#45;&gt;Node10</title>
<path fill="none" stroke="midnightblue" d="M1081.59,-17C1105.26,-17 1130.91,-17 1152.89,-17"/>
<polygon fill="midnightblue" stroke="midnightblue" points="1081.58,-13.5001 1071.58,-17 1081.58,-20.5001 1081.58,-13.5001"/>
</g>
</g>
</svg>
