<?xml version="1.0" encoding="UTF-8" standalone="no"?>
<!DOCTYPE svg PUBLIC "-//W3C//DTD SVG 1.1//EN"
 "http://www.w3.org/Graphics/SVG/1.1/DTD/svg11.dtd">
<!-- Generated by graphviz version 2.40.1 (20161225.0304)
 -->
<!-- Title: BlockReader&lt; BlockSource &gt; Pages: 1 -->
<svg width="327pt" height="308pt"
 viewBox="0.00 0.00 327.00 308.00" xmlns="http://www.w3.org/2000/svg" xmlns:xlink="http://www.w3.org/1999/xlink">
<g id="graph0" class="graph" transform="scale(1 1) rotate(0) translate(4 304)">
<title>BlockReader&lt; BlockSource &gt;</title>
<!-- Node4 -->
<g id="node1" class="node">
<title>Node4</title>
<polygon fill="#bfbfbf" stroke="#000000" points="84,-.5 84,-19.5 244,-19.5 244,-.5 84,-.5"/>
<text text-anchor="middle" x="164" y="-7.5" font-family="Helvetica,sans-Serif" font-size="10.00" fill="#000000">BlockReader&lt; BlockSource &gt;</text>
</g>
<!-- Node5 -->
<g id="node2" class="node">
<title>Node5</title>
<g id="a_node2"><a xlink:href="classthrill_1_1common_1_1ItemReaderToolsBase.html" target="_top" xlink:title="ItemReaderToolsBase\l\&lt; BlockReader\&lt; BlockSource \&gt; \&gt;">
<polygon fill="none" stroke="#000000" points="0,-67.5 0,-97.5 182,-97.5 182,-67.5 0,-67.5"/>
<text text-anchor="start" x="8" y="-85.5" font-family="Helvetica,sans-Serif" font-size="10.00" fill="#000000">ItemReaderToolsBase</text>
<text text-anchor="middle" x="91" y="-74.5" font-family="Helvetica,sans-Serif" font-size="10.00" fill="#000000">&lt; BlockReader&lt; BlockSource &gt; &gt;</text>
</a>
</g>
</g>
<!-- Node5&#45;&gt;Node4 -->
<g id="edge1" class="edge">
<title>Node5&#45;&gt;Node4</title>
<path fill="none" stroke="#191970" d="M113.2996,-60.3531C126.8972,-46.8487 143.6097,-30.2507 154.0361,-19.8957"/>
<polygon fill="#191970" stroke="#191970" points="110.7546,-57.9478 106.1256,-67.478 115.6874,-62.9146 110.7546,-57.9478"/>
</g>
<!-- Node6 -->
<g id="node3" class="node">
<title>Node6</title>
<g id="a_node3"><a xlink:href="classthrill_1_1common_1_1ItemReaderToolsBase.html" target="_top" xlink:title="CRTP class to enhance item/memory reader classes with Varint decoding and String decoding. ">
<polygon fill="none" stroke="#000000" points="12,-145.5 12,-175.5 134,-175.5 134,-145.5 12,-145.5"/>
<text text-anchor="start" x="20" y="-163.5" font-family="Helvetica,sans-Serif" font-size="10.00" fill="#000000">ItemReaderToolsBase</text>
<text text-anchor="middle" x="73" y="-152.5" font-family="Helvetica,sans-Serif" font-size="10.00" fill="#000000">&lt; Reader &gt;</text>
</a>
</g>
</g>
<!-- Node6&#45;&gt;Node5 -->
<g id="edge2" class="edge">
<title>Node6&#45;&gt;Node5</title>
<path fill="none" stroke="#ffa500" stroke-dasharray="5,2" d="M75.4916,-135.0808C76.3636,-128.7961 77.5104,-122.1137 79,-116 80.4917,-109.8777 82.6997,-103.3159 84.8165,-97.6368"/>
<polygon fill="#ffa500" stroke="#ffa500" points="72.0047,-134.7619 74.2714,-145.1114 78.9535,-135.6073 72.0047,-134.7619"/>
<text text-anchor="middle" x="163.5" y="-119" font-family="Helvetica,sans-Serif" font-size="10.00" fill="#000000"> &lt; BlockReader&lt; BlockSource &gt; &gt;</text>
</g>
<!-- Node7 -->
<g id="node4" class="node">
<title>Node7</title>
<g id="a_node4"><a xlink:href="classthrill_1_1data_1_1PinnedBlock.html" target="_top" xlink:title="A pinned / pin&#45;counted derivative of a Block. ">
<polygon fill="none" stroke="#000000" points="209.5,-73 209.5,-92 286.5,-92 286.5,-73 209.5,-73"/>
<text text-anchor="middle" x="248" y="-80" font-family="Helvetica,sans-Serif" font-size="10.00" fill="#000000">PinnedBlock</text>
</a>
</g>
</g>
<!-- Node7&#45;&gt;Node4 -->
<g id="edge3" class="edge">
<title>Node7&#45;&gt;Node4</title>
<path fill="none" stroke="#9a32cd" stroke-dasharray="5,2" d="M228.703,-65.8449C212.1225,-51.5343 188.7933,-31.3989 175.1491,-19.6228"/>
<polygon fill="#9a32cd" stroke="#9a32cd" points="226.8142,-68.838 236.6714,-72.7223 231.388,-63.5388 226.8142,-68.838"/>
<text text-anchor="middle" x="226.5" y="-41" font-family="Helvetica,sans-Serif" font-size="10.00" fill="#000000"> block_</text>
</g>
<!-- Node8 -->
<g id="node5" class="node">
<title>Node8</title>
<g id="a_node5"><a xlink:href="classthrill_1_1data_1_1Block.html" target="_top" xlink:title="Block combines a reference to a read&#45;only ByteBlock and book&#45;keeping information. ...">
<polygon fill="none" stroke="#000000" points="235,-151 235,-170 279,-170 279,-151 235,-151"/>
<text text-anchor="middle" x="257" y="-158" font-family="Helvetica,sans-Serif" font-size="10.00" fill="#000000">Block</text>
</a>
</g>
</g>
<!-- Node8&#45;&gt;Node7 -->
<g id="edge4" class="edge">
<title>Node8&#45;&gt;Node7</title>
<path fill="none" stroke="#8b1a1a" d="M254.7254,-140.7866C252.9315,-125.2395 250.507,-104.2276 249.1126,-92.1426"/>
<polygon fill="#8b1a1a" stroke="#8b1a1a" points="251.2732,-141.4028 255.8964,-150.9357 258.227,-140.6004 251.2732,-141.4028"/>
</g>
<!-- Node9 -->
<g id="node6" class="node">
<title>Node9</title>
<g id="a_node6"><a xlink:href="classthrill_1_1data_1_1ByteBlockPtr.html" target="_top" xlink:title="A non&#45;pinned counting pointer to a ByteBlock. ">
<polygon fill="none" stroke="#000000" points="217,-223.5 217,-242.5 297,-242.5 297,-223.5 217,-223.5"/>
<text text-anchor="middle" x="257" y="-230.5" font-family="Helvetica,sans-Serif" font-size="10.00" fill="#000000">ByteBlockPtr</text>
</a>
</g>
</g>
<!-- Node9&#45;&gt;Node8 -->
<g id="edge5" class="edge">
<title>Node9&#45;&gt;Node8</title>
<path fill="none" stroke="#9a32cd" stroke-dasharray="5,2" d="M257,-213.1054C257,-199.1237 257,-181.0346 257,-170.1228"/>
<polygon fill="#9a32cd" stroke="#9a32cd" points="253.5001,-213.2223 257,-223.2223 260.5001,-213.2224 253.5001,-213.2223"/>
<text text-anchor="middle" x="288" y="-197" font-family="Helvetica,sans-Serif" font-size="10.00" fill="#000000"> byte_block_</text>
</g>
<!-- Node10 -->
<g id="node7" class="node">
<title>Node10</title>
<g id="a_node7"><a xlink:href="classtlx_1_1CountingPtr.html" target="_top" xlink:title="High&#45;performance smart pointer used as a wrapping reference counting pointer. ">
<polygon fill="none" stroke="#000000" points="217,-280.5 217,-299.5 297,-299.5 297,-280.5 217,-280.5"/>
<text text-anchor="middle" x="257" y="-287.5" font-family="Helvetica,sans-Serif" font-size="10.00" fill="#000000">ByteBlockPtr</text>
</a>
</g>
</g>
<!-- Node10&#45;&gt;Node9 -->
<g id="edge6" class="edge">
<title>Node10&#45;&gt;Node9</title>
<path fill="none" stroke="#191970" d="M257,-270.2342C257,-260.8491 257,-250.0651 257,-242.5265"/>
<polygon fill="#191970" stroke="#191970" points="253.5001,-270.3307 257,-280.3307 260.5001,-270.3308 253.5001,-270.3307"/>
</g>
</g>
</svg>
