<?xml version="1.0" encoding="UTF-8" standalone="no"?>
<!DOCTYPE svg PUBLIC "-//W3C//DTD SVG 1.1//EN"
 "http://www.w3.org/Graphics/SVG/1.1/DTD/svg11.dtd">
<!-- Generated by graphviz version 2.36.0 (20140111.2315)
 -->
<!-- Title: MixBlockQueueReader Pages: 1 -->
<svg width="1572pt" height="412pt"
 viewBox="0.00 0.00 1572.00 412.00" xmlns="http://www.w3.org/2000/svg" xmlns:xlink="http://www.w3.org/1999/xlink">
<g id="graph0" class="graph" transform="scale(1 1) rotate(0) translate(4 408)">
<title>MixBlockQueueReader</title>
<!-- Node1 -->
<g id="node1" class="node"><title>Node1</title>
<polygon fill="#bfbfbf" stroke="black" points="1446.5,-162.5 1446.5,-181.5 1563.5,-181.5 1563.5,-162.5 1446.5,-162.5"/>
<text text-anchor="middle" x="1505" y="-169.5" font-family="Helvetica,sans-Serif" font-size="10.00">MixBlockQueueReader</text>
</g>
<!-- Node2 -->
<g id="node2" class="node"><title>Node2</title>
<g id="a_node2"><a xlink:href="classthrill_1_1data_1_1MixBlockQueue.html" target="_top" xlink:title="Implements reading an unordered sequence of items from multiple workers, which sends Blocks...">
<polygon fill="none" stroke="black" points="1230,-212.5 1230,-231.5 1316,-231.5 1316,-212.5 1230,-212.5"/>
<text text-anchor="middle" x="1273" y="-219.5" font-family="Helvetica,sans-Serif" font-size="10.00">MixBlockQueue</text>
</a>
</g>
</g>
<!-- Node2&#45;&gt;Node1 -->
<g id="edge1" class="edge"><title>Node2&#45;&gt;Node1</title>
<path fill="none" stroke="#9a32cd" stroke-dasharray="5,2" d="M1326.12,-210.669C1366.55,-201.881 1421.95,-189.838 1460.13,-181.538"/>
<polygon fill="#9a32cd" stroke="#9a32cd" points="1325.21,-207.285 1316.19,-212.829 1326.7,-214.125 1325.21,-207.285"/>
<text text-anchor="middle" x="1400" y="-203" font-family="Helvetica,sans-Serif" font-size="10.00"> mix_queue_</text>
</g>
<!-- Node3 -->
<g id="node3" class="node"><title>Node3</title>
<g id="a_node3"><a xlink:href="classthrill_1_1common_1_1AtomicMovable.html" target="_top" xlink:title="AtomicMovable\&lt; size_t \&gt;">
<polygon fill="none" stroke="black" points="917,-338.5 917,-357.5 1045,-357.5 1045,-338.5 917,-338.5"/>
<text text-anchor="middle" x="981" y="-345.5" font-family="Helvetica,sans-Serif" font-size="10.00">AtomicMovable&lt; size_t &gt;</text>
</a>
</g>
</g>
<!-- Node3&#45;&gt;Node2 -->
<g id="edge2" class="edge"><title>Node3&#45;&gt;Node2</title>
<path fill="none" stroke="#9a32cd" stroke-dasharray="5,2" d="M1013.51,-334.31C1072.7,-308.594 1199.1,-253.673 1250.05,-231.538"/>
<polygon fill="#9a32cd" stroke="#9a32cd" points="1012.05,-331.127 1004.27,-338.322 1014.84,-337.547 1012.05,-331.127"/>
<text text-anchor="middle" x="1127" y="-307" font-family="Helvetica,sans-Serif" font-size="10.00"> write_open_count_</text>
</g>
<!-- Node4 -->
<g id="node4" class="node"><title>Node4</title>
<g id="a_node4"><a xlink:href="classthrill_1_1common_1_1AtomicMovable.html" target="_top" xlink:title="This is a derivative of std::atomic which enables easier and less error&#45;prone writing of move&#45;only cl...">
<polygon fill="none" stroke="black" points="544,-384.5 544,-403.5 652,-403.5 652,-384.5 544,-384.5"/>
<text text-anchor="middle" x="598" y="-391.5" font-family="Helvetica,sans-Serif" font-size="10.00">AtomicMovable&lt; T &gt;</text>
</a>
</g>
</g>
<!-- Node4&#45;&gt;Node3 -->
<g id="edge3" class="edge"><title>Node4&#45;&gt;Node3</title>
<path fill="none" stroke="orange" stroke-dasharray="5,2" d="M662.232,-391.108C719.779,-387.89 806.947,-381.552 882,-370 902.337,-366.87 924.747,-361.951 942.998,-357.558"/>
<polygon fill="orange" stroke="orange" points="661.991,-387.615 652.196,-391.654 662.372,-394.605 661.991,-387.615"/>
<text text-anchor="middle" x="792" y="-391" font-family="Helvetica,sans-Serif" font-size="10.00"> &lt; size_t &gt;</text>
</g>
<!-- Node5 -->
<g id="node5" class="node"><title>Node5</title>
<g id="a_node5"><a xlink:href="classthrill_1_1data_1_1BlockPool.html" target="_top" xlink:title="Pool to allocate, keep, swap out/in, and free all ByteBlocks on the host. ">
<polygon fill="none" stroke="black" points="950.5,-245.5 950.5,-264.5 1011.5,-264.5 1011.5,-245.5 950.5,-245.5"/>
<text text-anchor="middle" x="981" y="-252.5" font-family="Helvetica,sans-Serif" font-size="10.00">BlockPool</text>
</a>
</g>
</g>
<!-- Node5&#45;&gt;Node2 -->
<g id="edge4" class="edge"><title>Node5&#45;&gt;Node2</title>
<path fill="none" stroke="#9a32cd" stroke-dasharray="5,2" d="M1021.64,-250.489C1076.1,-244.292 1173.64,-233.193 1229.54,-226.832"/>
<polygon fill="#9a32cd" stroke="#9a32cd" points="1021.21,-247.015 1011.67,-251.624 1022,-253.97 1021.21,-247.015"/>
<text text-anchor="middle" x="1127" y="-247" font-family="Helvetica,sans-Serif" font-size="10.00"> block_pool_</text>
</g>
<!-- Node6 -->
<g id="node6" class="node"><title>Node6</title>
<g id="a_node6"><a xlink:href="classthrill_1_1common_1_1ProfileTask.html" target="_top" xlink:title="ProfileTask">
<polygon fill="none" stroke="black" points="565,-346.5 565,-365.5 631,-365.5 631,-346.5 565,-346.5"/>
<text text-anchor="middle" x="598" y="-353.5" font-family="Helvetica,sans-Serif" font-size="10.00">ProfileTask</text>
</a>
</g>
</g>
<!-- Node6&#45;&gt;Node5 -->
<g id="edge5" class="edge"><title>Node6&#45;&gt;Node5</title>
<path fill="none" stroke="midnightblue" d="M641.143,-348.987C696.923,-339.202 798.016,-319.723 882,-294 909.139,-285.688 939.34,-273.144 958.947,-264.54"/>
<polygon fill="midnightblue" stroke="midnightblue" points="640.524,-345.542 631.27,-350.7 641.721,-352.439 640.524,-345.542"/>
</g>
<!-- Node7 -->
<g id="node7" class="node"><title>Node7</title>
<g id="a_node7"><a xlink:href="classthrill_1_1common_1_1JsonLogger.html" target="_top" xlink:title="JsonLogger is a receiver of JSON output objects for logging. ">
<polygon fill="none" stroke="black" points="564.5,-279.5 564.5,-298.5 631.5,-298.5 631.5,-279.5 564.5,-279.5"/>
<text text-anchor="middle" x="598" y="-286.5" font-family="Helvetica,sans-Serif" font-size="10.00">JsonLogger</text>
</a>
</g>
</g>
<!-- Node7&#45;&gt;Node5 -->
<g id="edge6" class="edge"><title>Node7&#45;&gt;Node5</title>
<path fill="none" stroke="#9a32cd" stroke-dasharray="5,2" d="M641.787,-285.182C719.788,-278.221 883.242,-263.635 950.314,-257.649"/>
<polygon fill="#9a32cd" stroke="#9a32cd" points="641.463,-281.697 631.814,-286.072 642.085,-288.669 641.463,-281.697"/>
<text text-anchor="middle" x="792" y="-282" font-family="Helvetica,sans-Serif" font-size="10.00"> logger_</text>
</g>
<!-- Node7&#45;&gt;Node7 -->
<g id="edge8" class="edge"><title>Node7&#45;&gt;Node7</title>
<path fill="none" stroke="#9a32cd" stroke-dasharray="5,2" d="M562.768,-306.891C563.284,-312.541 575.028,-317 598,-317 631.414,-317 641.073,-307.565 626.976,-298.757"/>
<polygon fill="#9a32cd" stroke="#9a32cd" points="565.702,-308.818 569.024,-298.757 560.153,-304.55 565.702,-308.818"/>
<text text-anchor="middle" x="598" y="-320" font-family="Helvetica,sans-Serif" font-size="10.00"> super_</text>
</g>
<!-- Node8 -->
<g id="node8" class="node"><title>Node8</title>
<g id="a_node8"><a xlink:href="classthrill_1_1common_1_1JsonVerbatim.html" target="_top" xlink:title="A special class to output verbatim text. ">
<polygon fill="none" stroke="black" points="212.5,-279.5 212.5,-298.5 289.5,-298.5 289.5,-279.5 212.5,-279.5"/>
<text text-anchor="middle" x="251" y="-286.5" font-family="Helvetica,sans-Serif" font-size="10.00">JsonVerbatim</text>
</a>
</g>
</g>
<!-- Node8&#45;&gt;Node7 -->
<g id="edge7" class="edge"><title>Node8&#45;&gt;Node7</title>
<path fill="none" stroke="#9a32cd" stroke-dasharray="5,2" d="M299.605,-289C370.67,-289 502.694,-289 564.06,-289"/>
<polygon fill="#9a32cd" stroke="#9a32cd" points="299.578,-285.5 289.578,-289 299.578,-292.5 299.578,-285.5"/>
<text text-anchor="middle" x="410" y="-292" font-family="Helvetica,sans-Serif" font-size="10.00"> common_</text>
</g>
<!-- Node9 -->
<g id="node9" class="node"><title>Node9</title>
<g id="a_node9"><a xlink:href="classthrill_1_1mem_1_1Manager.html" target="_top" xlink:title="Object shared by allocators and other classes to track memory allocations. ">
<polygon fill="none" stroke="black" points="571,-212.5 571,-231.5 625,-231.5 625,-212.5 571,-212.5"/>
<text text-anchor="middle" x="598" y="-219.5" font-family="Helvetica,sans-Serif" font-size="10.00">Manager</text>
</a>
</g>
</g>
<!-- Node9&#45;&gt;Node5 -->
<g id="edge9" class="edge"><title>Node9&#45;&gt;Node5</title>
<path fill="none" stroke="#9a32cd" stroke-dasharray="5,2" d="M635.22,-224.99C689.053,-229.453 793.359,-238.171 882,-246 904.976,-248.029 930.972,-250.421 950.414,-252.229"/>
<polygon fill="#9a32cd" stroke="#9a32cd" points="635.401,-221.493 625.146,-224.156 634.823,-228.47 635.401,-221.493"/>
<text text-anchor="middle" x="792" y="-249" font-family="Helvetica,sans-Serif" font-size="10.00"> mem_manager_</text>
</g>
<!-- Node9&#45;&gt;Node9 -->
<g id="edge10" class="edge"><title>Node9&#45;&gt;Node9</title>
<path fill="none" stroke="#9a32cd" stroke-dasharray="5,2" d="M563.157,-237.584C560.361,-244.277 571.976,-250 598,-250 632.699,-250 641.781,-239.826 625.244,-230.744"/>
<polygon fill="#9a32cd" stroke="#9a32cd" points="565.665,-240.036 570.756,-230.744 560.982,-234.833 565.665,-240.036"/>
<text text-anchor="middle" x="598" y="-253" font-family="Helvetica,sans-Serif" font-size="10.00"> super_</text>
</g>
<!-- Node10 -->
<g id="node10" class="node"><title>Node10</title>
<g id="a_node10"><a xlink:href="classthrill_1_1common_1_1OurConcurrentBoundedQueue.html" target="_top" xlink:title="OurConcurrentBoundedQueue\l\&lt; thrill::data::MixBlockQueue\l::SrcBlockPair \&gt;">
<polygon fill="none" stroke="black" points="907.5,-169.5 907.5,-210.5 1054.5,-210.5 1054.5,-169.5 907.5,-169.5"/>
<text text-anchor="start" x="915.5" y="-198.5" font-family="Helvetica,sans-Serif" font-size="10.00">OurConcurrentBoundedQueue</text>
<text text-anchor="start" x="915.5" y="-187.5" font-family="Helvetica,sans-Serif" font-size="10.00">&lt; thrill::data::MixBlockQueue</text>
<text text-anchor="middle" x="981" y="-176.5" font-family="Helvetica,sans-Serif" font-size="10.00">::SrcBlockPair &gt;</text>
</a>
</g>
</g>
<!-- Node10&#45;&gt;Node2 -->
<g id="edge11" class="edge"><title>Node10&#45;&gt;Node2</title>
<path fill="none" stroke="#9a32cd" stroke-dasharray="5,2" d="M1065.03,-199.162C1118.86,-205.101 1186.72,-212.59 1229.75,-217.338"/>
<polygon fill="#9a32cd" stroke="#9a32cd" points="1065.13,-195.652 1054.8,-198.034 1064.36,-202.609 1065.13,-195.652"/>
<text text-anchor="middle" x="1127" y="-214" font-family="Helvetica,sans-Serif" font-size="10.00"> mix_queue_</text>
</g>
<!-- Node11 -->
<g id="node11" class="node"><title>Node11</title>
<g id="a_node11"><a xlink:href="classthrill_1_1common_1_1OurConcurrentBoundedQueue.html" target="_top" xlink:title="This is a queue, similar to std::queue and tbb::concurrent_bounded_queue, except that it uses mutexes...">
<polygon fill="none" stroke="black" points="512.5,-174.5 512.5,-193.5 683.5,-193.5 683.5,-174.5 512.5,-174.5"/>
<text text-anchor="middle" x="598" y="-181.5" font-family="Helvetica,sans-Serif" font-size="10.00">OurConcurrentBoundedQueue&lt; T &gt;</text>
</a>
</g>
</g>
<!-- Node11&#45;&gt;Node10 -->
<g id="edge12" class="edge"><title>Node11&#45;&gt;Node10</title>
<path fill="none" stroke="orange" stroke-dasharray="5,2" d="M693.561,-185.489C759.633,-186.53 846.541,-187.898 907.229,-188.854"/>
<polygon fill="orange" stroke="orange" points="693.61,-181.99 683.556,-185.332 693.5,-188.989 693.61,-181.99"/>
<text text-anchor="start" x="741" y="-203" font-family="Helvetica,sans-Serif" font-size="10.00"> &lt; thrill::data::MixBlock</text>
<text text-anchor="middle" x="792" y="-192" font-family="Helvetica,sans-Serif" font-size="10.00">Queue::SrcBlockPair &gt;</text>
</g>
<!-- Node12 -->
<g id="node12" class="node"><title>Node12</title>
<g id="a_node12"><a xlink:href="classthrill_1_1data_1_1BlockReader.html" target="_top" xlink:title="BlockReader\&lt; CatBlockSource \&gt;">
<polygon fill="none" stroke="black" points="1192,-91.5 1192,-110.5 1354,-110.5 1354,-91.5 1192,-91.5"/>
<text text-anchor="middle" x="1273" y="-98.5" font-family="Helvetica,sans-Serif" font-size="10.00">BlockReader&lt; CatBlockSource &gt;</text>
</a>
</g>
</g>
<!-- Node12&#45;&gt;Node1 -->
<g id="edge13" class="edge"><title>Node12&#45;&gt;Node1</title>
<path fill="none" stroke="#9a32cd" stroke-dasharray="5,2" d="M1314.81,-113.599C1360.13,-127.587 1432.25,-149.85 1473.11,-162.463"/>
<polygon fill="#9a32cd" stroke="#9a32cd" points="1315.61,-110.181 1305.02,-110.575 1313.54,-116.869 1315.61,-110.181"/>
<text text-anchor="middle" x="1400" y="-151" font-family="Helvetica,sans-Serif" font-size="10.00"> cat_reader_</text>
</g>
<!-- Node13 -->
<g id="node13" class="node"><title>Node13</title>
<g id="a_node13"><a xlink:href="classthrill_1_1common_1_1ItemReaderToolsBase.html" target="_top" xlink:title="ItemReaderToolsBase\l\&lt; BlockReader\&lt; CatBlockSource \&gt; \&gt;">
<polygon fill="none" stroke="black" points="702,-131 702,-161 882,-161 882,-131 702,-131"/>
<text text-anchor="start" x="710" y="-149" font-family="Helvetica,sans-Serif" font-size="10.00">ItemReaderToolsBase</text>
<text text-anchor="middle" x="792" y="-138" font-family="Helvetica,sans-Serif" font-size="10.00">&lt; BlockReader&lt; CatBlockSource &gt; &gt;</text>
</a>
</g>
</g>
<!-- Node13&#45;&gt;Node12 -->
<g id="edge14" class="edge"><title>Node13&#45;&gt;Node12</title>
<path fill="none" stroke="midnightblue" d="M892.266,-140.184C969.268,-135.189 1078.59,-127.043 1174,-116 1187.17,-114.476 1201.28,-112.512 1214.57,-110.51"/>
<polygon fill="midnightblue" stroke="midnightblue" points="891.849,-136.703 882.094,-140.838 892.298,-143.689 891.849,-136.703"/>
</g>
<!-- Node14 -->
<g id="node14" class="node"><title>Node14</title>
<g id="a_node14"><a xlink:href="classthrill_1_1common_1_1ItemReaderToolsBase.html" target="_top" xlink:title="CRTP class to enhance item/memory reader classes with Varint decoding and String decoding. ">
<polygon fill="none" stroke="black" points="194,-112 194,-142 308,-142 308,-112 194,-112"/>
<text text-anchor="start" x="202" y="-130" font-family="Helvetica,sans-Serif" font-size="10.00">ItemReaderToolsBase</text>
<text text-anchor="middle" x="251" y="-119" font-family="Helvetica,sans-Serif" font-size="10.00">&lt; Reader &gt;</text>
</a>
</g>
</g>
<!-- Node14&#45;&gt;Node13 -->
<g id="edge15" class="edge"><title>Node14&#45;&gt;Node13</title>
<path fill="none" stroke="orange" stroke-dasharray="5,2" d="M318.354,-129.339C414.717,-132.736 593.631,-139.043 701.55,-142.847"/>
<polygon fill="orange" stroke="orange" points="318.274,-125.834 308.157,-128.98 318.028,-132.83 318.274,-125.834"/>
<text text-anchor="middle" x="410" y="-139" font-family="Helvetica,sans-Serif" font-size="10.00"> &lt; BlockReader&lt; CatBlockSource &gt; &gt;</text>
</g>
<!-- Node20 -->
<g id="node20" class="node"><title>Node20</title>
<g id="a_node20"><a xlink:href="classthrill_1_1common_1_1ItemReaderToolsBase.html" target="_top" xlink:title="ItemReaderToolsBase\l\&lt; BlockReader\&lt; BlockSource \&gt; \&gt;">
<polygon fill="none" stroke="black" points="516,-87 516,-117 680,-117 680,-87 516,-87"/>
<text text-anchor="start" x="524" y="-105" font-family="Helvetica,sans-Serif" font-size="10.00">ItemReaderToolsBase</text>
<text text-anchor="middle" x="598" y="-94" font-family="Helvetica,sans-Serif" font-size="10.00">&lt; BlockReader&lt; BlockSource &gt; &gt;</text>
</a>
</g>
</g>
<!-- Node14&#45;&gt;Node20 -->
<g id="edge22" class="edge"><title>Node14&#45;&gt;Node20</title>
<path fill="none" stroke="orange" stroke-dasharray="5,2" d="M317.935,-114.021C320.655,-113.646 323.351,-113.303 326,-113 389.508,-105.743 461.865,-103.089 515.829,-102.198"/>
<polygon fill="orange" stroke="orange" points="317.401,-110.562 308.031,-115.507 318.439,-117.485 317.401,-110.562"/>
<text text-anchor="middle" x="410" y="-116" font-family="Helvetica,sans-Serif" font-size="10.00"> &lt; BlockReader&lt; BlockSource &gt; &gt;</text>
</g>
<!-- Node15 -->
<g id="node15" class="node"><title>Node15</title>
<g id="a_node15"><a xlink:href="classthrill_1_1data_1_1PinnedBlock.html" target="_top" xlink:title="A pinned / pin&#45;counted derivative of a Block. ">
<polygon fill="none" stroke="black" points="562.5,-47.5 562.5,-66.5 633.5,-66.5 633.5,-47.5 562.5,-47.5"/>
<text text-anchor="middle" x="598" y="-54.5" font-family="Helvetica,sans-Serif" font-size="10.00">PinnedBlock</text>
</a>
</g>
</g>
<!-- Node15&#45;&gt;Node12 -->
<g id="edge16" class="edge"><title>Node15&#45;&gt;Node12</title>
<path fill="none" stroke="#9a32cd" stroke-dasharray="5,2" d="M643.691,-56.6961C726.409,-56.5012 908.907,-57.7917 1062,-71 1115.02,-75.5744 1175.09,-84.5429 1217.36,-91.4876"/>
<polygon fill="#9a32cd" stroke="#9a32cd" points="643.624,-53.1962 633.635,-56.7284 643.646,-60.1961 643.624,-53.1962"/>
<text text-anchor="middle" x="981" y="-74" font-family="Helvetica,sans-Serif" font-size="10.00"> block_</text>
</g>
<!-- Node19 -->
<g id="node19" class="node"><title>Node19</title>
<g id="a_node19"><a xlink:href="classthrill_1_1data_1_1BlockReader.html" target="_top" xlink:title="BlockReader takes Block objects from BlockSource and allows reading of a) serializable Items or b) ar...">
<polygon fill="none" stroke="black" points="908,-91.5 908,-110.5 1054,-110.5 1054,-91.5 908,-91.5"/>
<text text-anchor="middle" x="981" y="-98.5" font-family="Helvetica,sans-Serif" font-size="10.00">BlockReader&lt; BlockSource &gt;</text>
</a>
</g>
</g>
<!-- Node15&#45;&gt;Node19 -->
<g id="edge23" class="edge"><title>Node15&#45;&gt;Node19</title>
<path fill="none" stroke="#9a32cd" stroke-dasharray="5,2" d="M644.148,-61.6252C700.034,-67.4243 798.104,-77.8418 882,-88 890.945,-89.0831 900.343,-90.2687 909.632,-91.4692"/>
<polygon fill="#9a32cd" stroke="#9a32cd" points="644.191,-58.111 633.884,-60.5628 643.47,-65.0738 644.191,-58.111"/>
<text text-anchor="middle" x="792" y="-91" font-family="Helvetica,sans-Serif" font-size="10.00"> block_</text>
</g>
<!-- Node16 -->
<g id="node16" class="node"><title>Node16</title>
<g id="a_node16"><a xlink:href="classthrill_1_1data_1_1Block.html" target="_top" xlink:title="Block combines a reference to a read&#45;only ByteBlock and book&#45;keeping information. ...">
<polygon fill="none" stroke="black" points="230.5,-47.5 230.5,-66.5 271.5,-66.5 271.5,-47.5 230.5,-47.5"/>
<text text-anchor="middle" x="251" y="-54.5" font-family="Helvetica,sans-Serif" font-size="10.00">Block</text>
</a>
</g>
</g>
<!-- Node16&#45;&gt;Node15 -->
<g id="edge17" class="edge"><title>Node16&#45;&gt;Node15</title>
<path fill="none" stroke="#8b1a1a" d="M281.687,-57C345.305,-57 494.493,-57 562.329,-57"/>
<polygon fill="#8b1a1a" stroke="#8b1a1a" points="281.537,-53.5001 271.537,-57 281.537,-60.5001 281.537,-53.5001"/>
</g>
<!-- Node17 -->
<g id="node17" class="node"><title>Node17</title>
<g id="a_node17"><a xlink:href="classtlx_1_1CountingPtr.html" target="_top" xlink:title="High&#45;performance smart pointer used as a wrapping reference counting pointer. ">
<polygon fill="none" stroke="black" points="0,-42 0,-72 102,-72 102,-42 0,-42"/>
<text text-anchor="start" x="8" y="-60" font-family="Helvetica,sans-Serif" font-size="10.00">CountingPtr&lt; Type,</text>
<text text-anchor="middle" x="51" y="-49" font-family="Helvetica,sans-Serif" font-size="10.00"> Deleter &gt;</text>
</a>
</g>
</g>
<!-- Node17&#45;&gt;Node16 -->
<g id="edge18" class="edge"><title>Node17&#45;&gt;Node16</title>
<path fill="none" stroke="#9a32cd" stroke-dasharray="5,2" d="M112.454,-57C152.602,-57 202.771,-57 230.059,-57"/>
<polygon fill="#9a32cd" stroke="#9a32cd" points="112.22,-53.5001 102.22,-57 112.22,-60.5001 112.22,-53.5001"/>
<text text-anchor="middle" x="148" y="-60" font-family="Helvetica,sans-Serif" font-size="10.00"> byte_block_</text>
</g>
<!-- Node18 -->
<g id="node18" class="node"><title>Node18</title>
<g id="a_node18"><a xlink:href="classthrill_1_1data_1_1CatBlockSource.html" target="_top" xlink:title="CatBlockSource is a BlockSource which concatenates all Blocks available from a vector of BlockSources...">
<polygon fill="none" stroke="black" points="900.5,-0.5 900.5,-19.5 1061.5,-19.5 1061.5,-0.5 900.5,-0.5"/>
<text text-anchor="middle" x="981" y="-7.5" font-family="Helvetica,sans-Serif" font-size="10.00">CatBlockSource&lt; BlockSource &gt;</text>
</a>
</g>
</g>
<!-- Node18&#45;&gt;Node12 -->
<g id="edge19" class="edge"><title>Node18&#45;&gt;Node12</title>
<path fill="none" stroke="#9a32cd" stroke-dasharray="5,2" d="M1071.76,-10.3845C1104.78,-12.947 1141.92,-18.7557 1174,-31 1210.33,-44.867 1245.6,-75.536 1262.18,-91.2713"/>
<polygon fill="#9a32cd" stroke="#9a32cd" points="1071.88,-6.88406 1061.66,-9.6899 1071.4,-13.8676 1071.88,-6.88406"/>
<text text-anchor="middle" x="1127" y="-34" font-family="Helvetica,sans-Serif" font-size="10.00"> source_</text>
</g>
<!-- Node19&#45;&gt;Node12 -->
<g id="edge20" class="edge"><title>Node19&#45;&gt;Node12</title>
<path fill="none" stroke="orange" stroke-dasharray="5,2" d="M1064.06,-101C1104.1,-101 1152.1,-101 1191.88,-101"/>
<polygon fill="orange" stroke="orange" points="1064.06,-97.5001 1054.06,-101 1064.06,-104.5 1064.06,-97.5001"/>
<text text-anchor="middle" x="1127" y="-104" font-family="Helvetica,sans-Serif" font-size="10.00"> &lt; CatBlockSource &gt;</text>
</g>
<!-- Node20&#45;&gt;Node19 -->
<g id="edge21" class="edge"><title>Node20&#45;&gt;Node19</title>
<path fill="none" stroke="midnightblue" d="M690.35,-101.76C757.021,-101.585 846.156,-101.351 907.856,-101.189"/>
<polygon fill="midnightblue" stroke="midnightblue" points="690.257,-98.2604 680.267,-101.787 690.276,-105.26 690.257,-98.2604"/>
</g>
</g>
</svg>
