<?xml version="1.0" encoding="UTF-8" standalone="no"?>
<!DOCTYPE svg PUBLIC "-//W3C//DTD SVG 1.1//EN"
 "http://www.w3.org/Graphics/SVG/1.1/DTD/svg11.dtd">
<!-- Generated by graphviz version 2.26.3 (20100126.1600)
 -->
<!-- Title: LoserTreePointerUnguardedBase&lt; ValueType, Comparator &gt; Pages: 1 -->
<svg width="239pt" height="240pt"
 viewBox="0.00 0.00 239.00 240.00" xmlns="http://www.w3.org/2000/svg" xmlns:xlink="http://www.w3.org/1999/xlink">
<g id="graph1" class="graph" transform="scale(1 1) rotate(0) translate(4 236)">
<title>LoserTreePointerUnguardedBase&lt; ValueType, Comparator &gt;</title>
<!-- Node1 -->
<g id="node1" class="node"><title>Node1</title>
<polygon fill="#bfbfbf" stroke="black" points="-0.5,-1 -0.5,-35 160.5,-35 160.5,-1 -0.5,-1"/>
<text text-anchor="start" x="7.5" y="-22" font-family="Helvetica,sans-Serif" font-size="10.00">LoserTreePointerUnguarded</text>
<text text-anchor="middle" x="80" y="-9" font-family="Helvetica,sans-Serif" font-size="10.00">Base&lt; ValueType, Comparator &gt;</text>
</g>
<!-- Node2 -->
<g id="node2" class="node"><title>Node2</title>
<a xlink:href="classtlx_1_1SimpleVector.html" target="_top" xlink:title="SimpleVector\&lt; tlx::\lLoserTreePointerUnguardedBase\l::Loser \&gt;">
<polygon fill="none" stroke="black" points="-0.5,-86.5 -0.5,-133.5 160.5,-133.5 160.5,-86.5 -0.5,-86.5"/>
<text text-anchor="start" x="7.5" y="-120.5" font-family="Helvetica,sans-Serif" font-size="10.00">SimpleVector&lt; tlx::</text>
<text text-anchor="start" x="7.5" y="-107.5" font-family="Helvetica,sans-Serif" font-size="10.00">LoserTreePointerUnguardedBase</text>
<text text-anchor="middle" x="80" y="-94.5" font-family="Helvetica,sans-Serif" font-size="10.00">::Loser &gt;</text>
</a>
</g>
<!-- Node2&#45;&gt;Node1 -->
<g id="edge2" class="edge"><title>Node2&#45;&gt;Node1</title>
<path fill="none" stroke="#9a32cd" stroke-dasharray="5,2" d="M80,-76.0812C80,-62.1835 80,-46.7024 80,-35.2202"/>
<polygon fill="#9a32cd" stroke="#9a32cd" points="76.5001,-76.3077 80,-86.3077 83.5001,-76.3077 76.5001,-76.3077"/>
<text text-anchor="middle" x="97.5" y="-58.5" font-family="Helvetica,sans-Serif" font-size="10.00"> losers_</text>
</g>
<!-- Node3 -->
<g id="node4" class="node"><title>Node3</title>
<a xlink:href="classtlx_1_1SimpleVector.html" target="_top" xlink:title="Simpler non&#45;growing vector without initialization.">
<polygon fill="none" stroke="black" points="13,-197 13,-231 147,-231 147,-197 13,-197"/>
<text text-anchor="start" x="21" y="-218" font-family="Helvetica,sans-Serif" font-size="10.00">SimpleVector&lt; ValueType,</text>
<text text-anchor="middle" x="80" y="-205" font-family="Helvetica,sans-Serif" font-size="10.00"> Mode &gt;</text>
</a>
</g>
<!-- Node3&#45;&gt;Node2 -->
<g id="edge4" class="edge"><title>Node3&#45;&gt;Node2</title>
<path fill="none" stroke="orange" stroke-dasharray="5,2" d="M80,-186.745C80,-170.315 80,-149.586 80,-133.815"/>
<polygon fill="orange" stroke="orange" points="76.5001,-186.826 80,-196.827 83.5001,-186.827 76.5001,-186.826"/>
<text text-anchor="start" x="80" y="-169" font-family="Helvetica,sans-Serif" font-size="10.00"> &lt; tlx::LoserTreePointerUnguarded</text>
<text text-anchor="middle" x="155.5" y="-156" font-family="Helvetica,sans-Serif" font-size="10.00">Base::Loser &gt;</text>
</g>
</g>
</svg>
