<?xml version="1.0" encoding="UTF-8" standalone="no"?>
<!DOCTYPE svg PUBLIC "-//W3C//DTD SVG 1.1//EN"
 "http://www.w3.org/Graphics/SVG/1.1/DTD/svg11.dtd">
<!-- Generated by graphviz version 2.26.3 (20100126.1600)
 -->
<!-- Title: Request Pages: 1 -->
<svg width="142pt" height="174pt"
 viewBox="0.00 0.00 142.00 174.00" xmlns="http://www.w3.org/2000/svg" xmlns:xlink="http://www.w3.org/1999/xlink">
<g id="graph1" class="graph" transform="scale(1 1) rotate(0) translate(4 170)">
<title>Request</title>
<!-- Node1 -->
<g id="node1" class="node"><title>Node1</title>
<polygon fill="#bfbfbf" stroke="black" points="40.5,-0.5 40.5,-21.5 93.5,-21.5 93.5,-0.5 40.5,-0.5"/>
<text text-anchor="middle" x="67" y="-8.5" font-family="Helvetica,sans-Serif" font-size="10.00">Request</text>
</g>
<!-- Node2 -->
<g id="node2" class="node"><title>Node2</title>
<a xlink:href="classthrill_1_1common_1_1SharedState.html" target="_top" xlink:title="SharedState\&lt; State \&gt;">
<polygon fill="none" stroke="black" points="11,-72.5 11,-93.5 123,-93.5 123,-72.5 11,-72.5"/>
<text text-anchor="middle" x="67" y="-80.5" font-family="Helvetica,sans-Serif" font-size="10.00">SharedState&lt; State &gt;</text>
</a>
</g>
<!-- Node2&#45;&gt;Node1 -->
<g id="edge2" class="edge"><title>Node2&#45;&gt;Node1</title>
<path fill="none" stroke="#9a32cd" stroke-dasharray="5,2" d="M67,-62.2348C67,-48.969 67,-32.3188 67,-21.6674"/>
<polygon fill="#9a32cd" stroke="#9a32cd" points="63.5001,-62.3761 67,-72.3762 70.5001,-62.3762 63.5001,-62.3761"/>
<text text-anchor="middle" x="82.5" y="-44.5" font-family="Helvetica,sans-Serif" font-size="10.00"> state_</text>
</g>
<!-- Node3 -->
<g id="node4" class="node"><title>Node3</title>
<a xlink:href="classthrill_1_1common_1_1SharedState.html" target="_top" xlink:title="SharedState\&lt; ValueType \&gt;">
<polygon fill="none" stroke="black" points="-0.5,-144.5 -0.5,-165.5 134.5,-165.5 134.5,-144.5 -0.5,-144.5"/>
<text text-anchor="middle" x="67" y="-152.5" font-family="Helvetica,sans-Serif" font-size="10.00">SharedState&lt; ValueType &gt;</text>
</a>
</g>
<!-- Node3&#45;&gt;Node2 -->
<g id="edge4" class="edge"><title>Node3&#45;&gt;Node2</title>
<path fill="none" stroke="orange" stroke-dasharray="5,2" d="M67,-134.235C67,-120.969 67,-104.319 67,-93.6674"/>
<polygon fill="orange" stroke="orange" points="63.5001,-134.376 67,-144.376 70.5001,-134.376 63.5001,-134.376"/>
<text text-anchor="middle" x="89.5" y="-116.5" font-family="Helvetica,sans-Serif" font-size="10.00"> &lt; State &gt;</text>
</g>
</g>
</svg>
