<?xml version="1.0" encoding="UTF-8" standalone="no"?>
<!DOCTYPE svg PUBLIC "-//W3C//DTD SVG 1.1//EN"
 "http://www.w3.org/Graphics/SVG/1.1/DTD/svg11.dtd">
<!-- Generated by graphviz version 2.26.3 (20100126.1600)
 -->
<!-- Title: DefaultReduceConfig Pages: 1 -->
<svg width="310pt" height="103pt"
 viewBox="0.00 0.00 310.00 103.46" xmlns="http://www.w3.org/2000/svg" xmlns:xlink="http://www.w3.org/1999/xlink">
<g id="graph1" class="graph" transform="scale(1 1) rotate(0) translate(4 99.4637)">
<title>DefaultReduceConfig</title>
<!-- Node1 -->
<g id="node1" class="node"><title>Node1</title>
<polygon fill="#bfbfbf" stroke="black" points="98,-72.5 98,-93.5 208,-93.5 208,-72.5 98,-72.5"/>
<text text-anchor="middle" x="153" y="-80.5" font-family="Helvetica,sans-Serif" font-size="10.00">DefaultReduceConfig</text>
</g>
<!-- Node1&#45;&gt;Node1 -->
<g id="edge2" class="edge"><title>Node1&#45;&gt;Node1</title>
<path fill="none" stroke="midnightblue" d="M218.001,-87.5029C222.952,-86.5029 226,-85.002 226,-83 226,-79.875 218.574,-77.9707 208.073,-77.2871"/>
<polygon fill="midnightblue" stroke="midnightblue" points="217.576,-84.0287 208.073,-88.7129 218.423,-90.9773 217.576,-84.0287"/>
</g>
<!-- Node1&#45;&gt;Node1 -->
<g id="edge4" class="edge"><title>Node1&#45;&gt;Node1</title>
<path fill="none" stroke="midnightblue" d="M199.179,-94.5998C222.788,-96.3275 244,-92.4609 244,-83 244,-72.1875 216.295,-68.6819 188.968,-72.4832"/>
<polygon fill="midnightblue" stroke="midnightblue" points="199.282,-91.0912 188.968,-93.5168 198.543,-98.0522 199.282,-91.0912"/>
</g>
<!-- Node2 -->
<g id="node5" class="node"><title>Node2</title>
<a xlink:href="classthrill_1_1api_1_1DefaultReduceToIndexConfig.html" target="_top" xlink:title="DefaultReduceToIndexConfig">
<polygon fill="none" stroke="black" points="0,-7.5 0,-28.5 146,-28.5 146,-7.5 0,-7.5"/>
<text text-anchor="middle" x="73" y="-15.5" font-family="Helvetica,sans-Serif" font-size="10.00">DefaultReduceToIndexConfig</text>
</a>
</g>
<!-- Node1&#45;&gt;Node2 -->
<g id="edge6" class="edge"><title>Node1&#45;&gt;Node2</title>
<path fill="none" stroke="midnightblue" d="M131.79,-65.7667C117.219,-53.9281 98.3444,-38.5923 85.9646,-28.5337"/>
<polygon fill="midnightblue" stroke="midnightblue" points="129.821,-68.677 139.79,-72.2666 134.236,-63.2442 129.821,-68.677"/>
</g>
<!-- Node3 -->
<g id="node7" class="node"><title>Node3</title>
<a xlink:href="classthrill_1_1core_1_1DefaultReduceConfigSelect.html" target="_top" xlink:title="DefaultReduceConfig with implementation type selection.">
<polygon fill="none" stroke="black" points="164,-1 164,-35 302,-35 302,-1 164,-1"/>
<text text-anchor="start" x="172" y="-22" font-family="Helvetica,sans-Serif" font-size="10.00">DefaultReduceConfigSelect</text>
<text text-anchor="middle" x="233" y="-9" font-family="Helvetica,sans-Serif" font-size="10.00">&lt; table_impl &gt;</text>
</a>
</g>
<!-- Node1&#45;&gt;Node3 -->
<g id="edge8" class="edge"><title>Node1&#45;&gt;Node3</title>
<path fill="none" stroke="midnightblue" d="M174.142,-65.8219C185.82,-56.334 200.278,-44.5869 211.942,-35.1099"/>
<polygon fill="midnightblue" stroke="midnightblue" points="171.764,-63.2442 166.21,-72.2666 176.179,-68.677 171.764,-63.2442"/>
</g>
</g>
</svg>
