<?xml version="1.0" encoding="UTF-8" standalone="no"?>
<!DOCTYPE svg PUBLIC "-//W3C//DTD SVG 1.1//EN"
 "http://www.w3.org/Graphics/SVG/1.1/DTD/svg11.dtd">
<!-- Generated by graphviz version 2.36.0 (20140111.2315)
 -->
<!-- Title: JoinNode&lt; ValueType, FirstDIA, SecondDIA, KeyExtractor1, KeyExtractor2, JoinFunction, HashFunction, UseLocationDetection &gt; Pages: 1 -->
<svg width="160pt" height="296pt"
 viewBox="0.00 0.00 160.00 296.00" xmlns="http://www.w3.org/2000/svg" xmlns:xlink="http://www.w3.org/1999/xlink">
<g id="graph0" class="graph" transform="scale(1 1) rotate(0) translate(4 292)">
<title>JoinNode&lt; ValueType, FirstDIA, SecondDIA, KeyExtractor1, KeyExtractor2, JoinFunction, HashFunction, UseLocationDetection &gt;</title>
<!-- Node1 -->
<g id="node1" class="node"><title>Node1</title>
<polygon fill="#bfbfbf" stroke="black" points="-0.5,-0.5 -0.5,-63.5 152.5,-63.5 152.5,-0.5 -0.5,-0.5"/>
<text text-anchor="start" x="7.5" y="-51.5" font-family="Helvetica,sans-Serif" font-size="10.00">JoinNode&lt; ValueType,</text>
<text text-anchor="start" x="7.5" y="-40.5" font-family="Helvetica,sans-Serif" font-size="10.00"> FirstDIA, SecondDIA,</text>
<text text-anchor="start" x="7.5" y="-29.5" font-family="Helvetica,sans-Serif" font-size="10.00"> KeyExtractor1, KeyExtractor2,</text>
<text text-anchor="start" x="7.5" y="-18.5" font-family="Helvetica,sans-Serif" font-size="10.00"> JoinFunction, HashFunction,</text>
<text text-anchor="middle" x="76" y="-7.5" font-family="Helvetica,sans-Serif" font-size="10.00"> UseLocationDetection &gt;</text>
</g>
<!-- Node2 -->
<g id="node2" class="node"><title>Node2</title>
<g id="a_node2"><a xlink:href="classthrill_1_1api_1_1DOpNode.html" target="_top" xlink:title="A DOpNode is a typed node representing and distributed operations in Thrill. ">
<polygon fill="none" stroke="black" points="13.5,-100.5 13.5,-119.5 138.5,-119.5 138.5,-100.5 13.5,-100.5"/>
<text text-anchor="middle" x="76" y="-107.5" font-family="Helvetica,sans-Serif" font-size="10.00">DOpNode&lt; ValueType &gt;</text>
</a>
</g>
</g>
<!-- Node2&#45;&gt;Node1 -->
<g id="edge1" class="edge"><title>Node2&#45;&gt;Node1</title>
<path fill="none" stroke="midnightblue" d="M76,-90.1878C76,-82.1609 76,-72.5855 76,-63.587"/>
<polygon fill="midnightblue" stroke="midnightblue" points="72.5001,-90.2818 76,-100.282 79.5001,-90.2819 72.5001,-90.2818"/>
</g>
<!-- Node3 -->
<g id="node3" class="node"><title>Node3</title>
<g id="a_node3"><a xlink:href="classthrill_1_1api_1_1DIANode.html" target="_top" xlink:title="A DIANode is a typed node representing and operation in Thrill. ">
<polygon fill="none" stroke="black" points="15,-156.5 15,-175.5 137,-175.5 137,-156.5 15,-156.5"/>
<text text-anchor="middle" x="76" y="-163.5" font-family="Helvetica,sans-Serif" font-size="10.00">DIANode&lt; ValueType &gt;</text>
</a>
</g>
</g>
<!-- Node3&#45;&gt;Node2 -->
<g id="edge2" class="edge"><title>Node3&#45;&gt;Node2</title>
<path fill="none" stroke="midnightblue" d="M76,-145.805C76,-136.91 76,-126.78 76,-119.751"/>
<polygon fill="midnightblue" stroke="midnightblue" points="72.5001,-146.083 76,-156.083 79.5001,-146.083 72.5001,-146.083"/>
</g>
<!-- Node4 -->
<g id="node4" class="node"><title>Node4</title>
<g id="a_node4"><a xlink:href="classthrill_1_1api_1_1DIABase.html" target="_top" xlink:title="The DIABase is the untyped super class of DIANode. ">
<polygon fill="none" stroke="black" points="48,-212.5 48,-231.5 104,-231.5 104,-212.5 48,-212.5"/>
<text text-anchor="middle" x="76" y="-219.5" font-family="Helvetica,sans-Serif" font-size="10.00">DIABase</text>
</a>
</g>
</g>
<!-- Node4&#45;&gt;Node3 -->
<g id="edge3" class="edge"><title>Node4&#45;&gt;Node3</title>
<path fill="none" stroke="midnightblue" d="M76,-201.805C76,-192.91 76,-182.78 76,-175.751"/>
<polygon fill="midnightblue" stroke="midnightblue" points="72.5001,-202.083 76,-212.083 79.5001,-202.083 72.5001,-202.083"/>
</g>
<!-- Node5 -->
<g id="node5" class="node"><title>Node5</title>
<g id="a_node5"><a xlink:href="classtlx_1_1ReferenceCounter.html" target="_top" xlink:title="Provides reference counting abilities for use with CountingPtr. ">
<polygon fill="none" stroke="black" points="28,-268.5 28,-287.5 124,-287.5 124,-268.5 28,-268.5"/>
<text text-anchor="middle" x="76" y="-275.5" font-family="Helvetica,sans-Serif" font-size="10.00">ReferenceCounter</text>
</a>
</g>
</g>
<!-- Node5&#45;&gt;Node4 -->
<g id="edge4" class="edge"><title>Node5&#45;&gt;Node4</title>
<path fill="none" stroke="midnightblue" d="M76,-257.805C76,-248.91 76,-238.78 76,-231.751"/>
<polygon fill="midnightblue" stroke="midnightblue" points="72.5001,-258.083 76,-268.083 79.5001,-258.083 72.5001,-258.083"/>
</g>
</g>
</svg>
