<?xml version="1.0" encoding="UTF-8" standalone="no"?>
<!DOCTYPE svg PUBLIC "-//W3C//DTD SVG 1.1//EN"
 "http://www.w3.org/Graphics/SVG/1.1/DTD/svg11.dtd">
<!-- Generated by graphviz version 2.36.0 (20140111.2315)
 -->
<!-- Title: disk_queued_file Pages: 1 -->
<svg width="271pt" height="208pt"
 viewBox="0.00 0.00 271.00 208.00" xmlns="http://www.w3.org/2000/svg" xmlns:xlink="http://www.w3.org/1999/xlink">
<g id="graph0" class="graph" transform="scale(1 1) rotate(0) translate(4 204)">
<title>disk_queued_file</title>
<!-- Node1 -->
<g id="node1" class="node"><title>Node1</title>
<polygon fill="#bfbfbf" stroke="black" points="100.5,-68.5 100.5,-87.5 189.5,-87.5 189.5,-68.5 100.5,-68.5"/>
<text text-anchor="middle" x="145" y="-75.5" font-family="Helvetica,sans-Serif" font-size="10.00">disk_queued_file</text>
</g>
<!-- Node4 -->
<g id="node4" class="node"><title>Node4</title>
<g id="a_node4"><a xlink:href="classfoxxll_1_1fileperblock__file.html" target="_top" xlink:title="fileperblock_file\&lt;\l base_file_type \&gt;">
<polygon fill="none" stroke="black" points="0,-1 0,-31 92,-31 92,-1 0,-1"/>
<text text-anchor="start" x="8" y="-19" font-family="Helvetica,sans-Serif" font-size="10.00">fileperblock_file&lt;</text>
<text text-anchor="middle" x="46" y="-8" font-family="Helvetica,sans-Serif" font-size="10.00"> base_file_type &gt;</text>
</a>
</g>
</g>
<!-- Node1&#45;&gt;Node4 -->
<g id="edge3" class="edge"><title>Node1&#45;&gt;Node4</title>
<path fill="none" stroke="midnightblue" d="M122.165,-63.1608C106.322,-53.5587 85.2832,-40.808 69.3323,-31.1408"/>
<polygon fill="midnightblue" stroke="midnightblue" points="120.45,-66.2136 130.816,-68.4035 124.078,-60.2272 120.45,-66.2136"/>
</g>
<!-- Node5 -->
<g id="node5" class="node"><title>Node5</title>
<g id="a_node5"><a xlink:href="classfoxxll_1_1memory__file.html" target="_top" xlink:title="Implementation of file based on new[] and memcpy. ">
<polygon fill="none" stroke="black" points="110,-6.5 110,-25.5 180,-25.5 180,-6.5 110,-6.5"/>
<text text-anchor="middle" x="145" y="-13.5" font-family="Helvetica,sans-Serif" font-size="10.00">memory_file</text>
</a>
</g>
</g>
<!-- Node1&#45;&gt;Node5 -->
<g id="edge4" class="edge"><title>Node1&#45;&gt;Node5</title>
<path fill="none" stroke="midnightblue" d="M145,-58.1595C145,-47.2482 145,-34.04 145,-25.5806"/>
<polygon fill="midnightblue" stroke="midnightblue" points="141.5,-58.4034 145,-68.4035 148.5,-58.4035 141.5,-58.4034"/>
</g>
<!-- Node6 -->
<g id="node6" class="node"><title>Node6</title>
<g id="a_node6"><a xlink:href="classfoxxll_1_1syscall__file.html" target="_top" xlink:title="Implementation of file based on UNIX syscalls. ">
<polygon fill="none" stroke="black" points="198.5,-6.5 198.5,-25.5 263.5,-25.5 263.5,-6.5 198.5,-6.5"/>
<text text-anchor="middle" x="231" y="-13.5" font-family="Helvetica,sans-Serif" font-size="10.00">syscall_file</text>
</a>
</g>
</g>
<!-- Node1&#45;&gt;Node6 -->
<g id="edge5" class="edge"><title>Node1&#45;&gt;Node6</title>
<path fill="none" stroke="midnightblue" d="M165.795,-62.4918C182.335,-50.952 204.917,-35.1976 218.701,-25.5806"/>
<polygon fill="midnightblue" stroke="midnightblue" points="163.52,-59.8112 157.322,-68.4035 167.526,-65.5521 163.52,-59.8112"/>
</g>
<!-- Node2 -->
<g id="node2" class="node"><title>Node2</title>
<g id="a_node2"><a xlink:href="classfoxxll_1_1file.html" target="_top" xlink:title="file">
<polygon fill="none" stroke="black" points="130.5,-124.5 130.5,-143.5 159.5,-143.5 159.5,-124.5 130.5,-124.5"/>
<text text-anchor="middle" x="145" y="-131.5" font-family="Helvetica,sans-Serif" font-size="10.00">file</text>
</a>
</g>
</g>
<!-- Node2&#45;&gt;Node1 -->
<g id="edge1" class="edge"><title>Node2&#45;&gt;Node1</title>
<path fill="none" stroke="midnightblue" d="M145,-113.805C145,-104.91 145,-94.7798 145,-87.7511"/>
<polygon fill="midnightblue" stroke="midnightblue" points="141.5,-114.083 145,-124.083 148.5,-114.083 141.5,-114.083"/>
</g>
<!-- Node3 -->
<g id="node3" class="node"><title>Node3</title>
<g id="a_node3"><a xlink:href="classtlx_1_1ReferenceCounter.html" target="_top" xlink:title="Provides reference counting abilities for use with CountingPtr. ">
<polygon fill="none" stroke="black" points="97.5,-180.5 97.5,-199.5 192.5,-199.5 192.5,-180.5 97.5,-180.5"/>
<text text-anchor="middle" x="145" y="-187.5" font-family="Helvetica,sans-Serif" font-size="10.00">reference_counter</text>
</a>
</g>
</g>
<!-- Node3&#45;&gt;Node2 -->
<g id="edge2" class="edge"><title>Node3&#45;&gt;Node2</title>
<path fill="none" stroke="midnightblue" d="M145,-169.805C145,-160.91 145,-150.78 145,-143.751"/>
<polygon fill="midnightblue" stroke="midnightblue" points="141.5,-170.083 145,-180.083 148.5,-170.083 141.5,-170.083"/>
</g>
</g>
</svg>
