<?xml version="1.0" encoding="UTF-8" standalone="no"?>
<!DOCTYPE svg PUBLIC "-//W3C//DTD SVG 1.1//EN"
 "http://www.w3.org/Graphics/SVG/1.1/DTD/svg11.dtd">
<!-- Generated by graphviz version 2.26.3 (20100126.1600)
 -->
<!-- Title: WfsFileBase Pages: 1 -->
<svg width="104pt" height="204pt"
 viewBox="0.00 0.00 104.00 204.00" xmlns="http://www.w3.org/2000/svg" xmlns:xlink="http://www.w3.org/1999/xlink">
<g id="graph1" class="graph" transform="scale(1 1) rotate(0) translate(4 200)">
<title>WfsFileBase</title>
<!-- Node1 -->
<g id="node1" class="node"><title>Node1</title>
<polygon fill="#bfbfbf" stroke="black" points="11.5,-58.5 11.5,-79.5 84.5,-79.5 84.5,-58.5 11.5,-58.5"/>
<text text-anchor="middle" x="48" y="-66.5" font-family="Helvetica,sans-Serif" font-size="10.00">WfsFileBase</text>
</g>
<!-- Node4 -->
<g id="node7" class="node"><title>Node4</title>
<a xlink:href="exceptionthrill_1_1io_1_1WincallFile.html" target="_top" xlink:title="Implementation of file based on Windows native I/O calls.">
<polygon fill="none" stroke="black" points="15.5,-0.5 15.5,-21.5 80.5,-21.5 80.5,-0.5 15.5,-0.5"/>
<text text-anchor="middle" x="48" y="-8.5" font-family="Helvetica,sans-Serif" font-size="10.00">WincallFile</text>
</a>
</g>
<!-- Node1&#45;&gt;Node4 -->
<g id="edge6" class="edge"><title>Node1&#45;&gt;Node4</title>
<path fill="none" stroke="midnightblue" d="M48,-48.1906C48,-39.1684 48,-28.9941 48,-21.5707"/>
<polygon fill="midnightblue" stroke="midnightblue" points="44.5001,-48.3619 48,-58.3619 51.5001,-48.3619 44.5001,-48.3619"/>
</g>
<!-- Node2 -->
<g id="node2" class="node"><title>Node2</title>
<a xlink:href="classthrill_1_1io_1_1FileBase.html" target="_top" xlink:title="FileBase">
<polygon fill="none" stroke="black" points="20.5,-116.5 20.5,-137.5 75.5,-137.5 75.5,-116.5 20.5,-116.5"/>
<text text-anchor="middle" x="48" y="-124.5" font-family="Helvetica,sans-Serif" font-size="10.00">FileBase</text>
</a>
</g>
<!-- Node2&#45;&gt;Node1 -->
<g id="edge2" class="edge"><title>Node2&#45;&gt;Node1</title>
<path fill="none" stroke="midnightblue" d="M48,-106.191C48,-97.1684 48,-86.9941 48,-79.5707"/>
<polygon fill="midnightblue" stroke="midnightblue" points="44.5001,-106.362 48,-116.362 51.5001,-106.362 44.5001,-106.362"/>
</g>
<!-- Node3 -->
<g id="node4" class="node"><title>Node3</title>
<a xlink:href="classtlx_1_1ReferenceCounter.html" target="_top" xlink:title="Provides reference counting abilities for use with CountingPtr.">
<polygon fill="none" stroke="black" points="0,-174.5 0,-195.5 96,-195.5 96,-174.5 0,-174.5"/>
<text text-anchor="middle" x="48" y="-182.5" font-family="Helvetica,sans-Serif" font-size="10.00">ReferenceCounter</text>
</a>
</g>
<!-- Node3&#45;&gt;Node2 -->
<g id="edge4" class="edge"><title>Node3&#45;&gt;Node2</title>
<path fill="none" stroke="midnightblue" d="M48,-164.191C48,-155.168 48,-144.994 48,-137.571"/>
<polygon fill="midnightblue" stroke="midnightblue" points="44.5001,-164.362 48,-174.362 51.5001,-164.362 44.5001,-164.362"/>
</g>
</g>
</svg>
