<?xml version="1.0" encoding="UTF-8" standalone="no"?>
<!DOCTYPE svg PUBLIC "-//W3C//DTD SVG 1.1//EN"
 "http://www.w3.org/Graphics/SVG/1.1/DTD/svg11.dtd">
<!-- Generated by graphviz version 2.36.0 (20140111.2315)
 -->
<!-- Title: BlockQueue Pages: 1 -->
<svg width="1136pt" height="226pt"
 viewBox="0.00 0.00 1136.00 226.00" xmlns="http://www.w3.org/2000/svg" xmlns:xlink="http://www.w3.org/1999/xlink">
<g id="graph0" class="graph" transform="scale(1 1) rotate(0) translate(4 222)">
<title>BlockQueue</title>
<!-- Node1 -->
<g id="node1" class="node"><title>Node1</title>
<polygon fill="#bfbfbf" stroke="black" points="1058,-87.5 1058,-106.5 1128,-106.5 1128,-87.5 1058,-87.5"/>
<text text-anchor="middle" x="1093" y="-94.5" font-family="Helvetica,sans-Serif" font-size="10.00">BlockQueue</text>
</g>
<!-- Node2 -->
<g id="node2" class="node"><title>Node2</title>
<g id="a_node2"><a xlink:href="classthrill_1_1data_1_1BlockSink.html" target="_top" xlink:title="Pure virtual base class for all things that can receive Blocks from a BlockWriter. ">
<polygon fill="none" stroke="black" points="539.5,-131.5 539.5,-150.5 600.5,-150.5 600.5,-131.5 539.5,-131.5"/>
<text text-anchor="middle" x="570" y="-138.5" font-family="Helvetica,sans-Serif" font-size="10.00">BlockSink</text>
</a>
</g>
</g>
<!-- Node2&#45;&gt;Node1 -->
<g id="edge1" class="edge"><title>Node2&#45;&gt;Node1</title>
<path fill="none" stroke="midnightblue" d="M610.903,-141.462C692.254,-141.762 882.868,-139.183 1040,-112 1047.59,-110.687 1055.66,-108.676 1063.11,-106.549"/>
<polygon fill="midnightblue" stroke="midnightblue" points="610.638,-137.96 600.619,-141.406 610.6,-144.96 610.638,-137.96"/>
</g>
<!-- Node12 -->
<g id="node12" class="node"><title>Node12</title>
<g id="a_node12"><a xlink:href="classthrill_1_1data_1_1File.html" target="_top" xlink:title="A File is an ordered sequence of Block objects for storing items. ">
<polygon fill="none" stroke="black" points="853,-163.5 853,-182.5 885,-182.5 885,-163.5 853,-163.5"/>
<text text-anchor="middle" x="869" y="-170.5" font-family="Helvetica,sans-Serif" font-size="10.00">File</text>
</a>
</g>
</g>
<!-- Node2&#45;&gt;Node12 -->
<g id="edge14" class="edge"><title>Node2&#45;&gt;Node12</title>
<path fill="none" stroke="midnightblue" d="M610.665,-145.274C677.207,-152.443 808.405,-166.579 852.86,-171.369"/>
<polygon fill="midnightblue" stroke="midnightblue" points="610.881,-141.777 600.563,-144.185 610.131,-148.736 610.881,-141.777"/>
</g>
<!-- Node3 -->
<g id="node3" class="node"><title>Node3</title>
<g id="a_node3"><a xlink:href="classthrill_1_1data_1_1BlockPool.html" target="_top" xlink:title="Pool to allocate, keep, swap out/in, and free all ByteBlocks on the host. ">
<polygon fill="none" stroke="black" points="338.5,-131.5 338.5,-150.5 399.5,-150.5 399.5,-131.5 338.5,-131.5"/>
<text text-anchor="middle" x="369" y="-138.5" font-family="Helvetica,sans-Serif" font-size="10.00">BlockPool</text>
</a>
</g>
</g>
<!-- Node3&#45;&gt;Node2 -->
<g id="edge2" class="edge"><title>Node3&#45;&gt;Node2</title>
<path fill="none" stroke="#9a32cd" stroke-dasharray="5,2" d="M410.05,-141C448.278,-141 504.992,-141 539.329,-141"/>
<polygon fill="#9a32cd" stroke="#9a32cd" points="409.792,-137.5 399.792,-141 409.792,-144.5 409.792,-137.5"/>
<text text-anchor="middle" x="446" y="-144" font-family="Helvetica,sans-Serif" font-size="10.00"> block_pool_</text>
</g>
<!-- Node4 -->
<g id="node4" class="node"><title>Node4</title>
<g id="a_node4"><a xlink:href="classthrill_1_1common_1_1ProfileTask.html" target="_top" xlink:title="ProfileTask">
<polygon fill="none" stroke="black" points="161,-198.5 161,-217.5 227,-217.5 227,-198.5 161,-198.5"/>
<text text-anchor="middle" x="194" y="-205.5" font-family="Helvetica,sans-Serif" font-size="10.00">ProfileTask</text>
</a>
</g>
</g>
<!-- Node4&#45;&gt;Node3 -->
<g id="edge3" class="edge"><title>Node4&#45;&gt;Node3</title>
<path fill="none" stroke="midnightblue" d="M229.216,-194.749C262.845,-181.725 313.348,-162.166 343.259,-150.582"/>
<polygon fill="midnightblue" stroke="midnightblue" points="227.848,-191.525 219.787,-198.401 230.376,-198.053 227.848,-191.525"/>
</g>
<!-- Node5 -->
<g id="node5" class="node"><title>Node5</title>
<g id="a_node5"><a xlink:href="classthrill_1_1common_1_1JsonLogger.html" target="_top" xlink:title="JsonLogger is a receiver of JSON output objects for logging. ">
<polygon fill="none" stroke="black" points="160.5,-131.5 160.5,-150.5 227.5,-150.5 227.5,-131.5 160.5,-131.5"/>
<text text-anchor="middle" x="194" y="-138.5" font-family="Helvetica,sans-Serif" font-size="10.00">JsonLogger</text>
</a>
</g>
</g>
<!-- Node5&#45;&gt;Node3 -->
<g id="edge4" class="edge"><title>Node5&#45;&gt;Node3</title>
<path fill="none" stroke="#9a32cd" stroke-dasharray="5,2" d="M237.731,-141C269.063,-141 310.798,-141 338.491,-141"/>
<polygon fill="#9a32cd" stroke="#9a32cd" points="237.54,-137.5 227.54,-141 237.54,-144.5 237.54,-137.5"/>
<text text-anchor="middle" x="283" y="-144" font-family="Helvetica,sans-Serif" font-size="10.00"> logger_</text>
</g>
<!-- Node5&#45;&gt;Node5 -->
<g id="edge6" class="edge"><title>Node5&#45;&gt;Node5</title>
<path fill="none" stroke="#9a32cd" stroke-dasharray="5,2" d="M180.372,-160.766C181.443,-165.497 185.985,-169 194,-169 207.152,-169 210.954,-159.565 205.406,-150.757"/>
<polygon fill="#9a32cd" stroke="#9a32cd" points="183.844,-161.278 182.594,-150.757 177.01,-159.761 183.844,-161.278"/>
<text text-anchor="middle" x="194" y="-172" font-family="Helvetica,sans-Serif" font-size="10.00"> super_</text>
</g>
<!-- Node6 -->
<g id="node6" class="node"><title>Node6</title>
<g id="a_node6"><a xlink:href="classthrill_1_1common_1_1JsonVerbatim.html" target="_top" xlink:title="A special class to output verbatim text. ">
<polygon fill="none" stroke="black" points="0.5,-131.5 0.5,-150.5 77.5,-150.5 77.5,-131.5 0.5,-131.5"/>
<text text-anchor="middle" x="39" y="-138.5" font-family="Helvetica,sans-Serif" font-size="10.00">JsonVerbatim</text>
</a>
</g>
</g>
<!-- Node6&#45;&gt;Node5 -->
<g id="edge5" class="edge"><title>Node6&#45;&gt;Node5</title>
<path fill="none" stroke="#9a32cd" stroke-dasharray="5,2" d="M87.9544,-141C111.484,-141 139.219,-141 160.28,-141"/>
<polygon fill="#9a32cd" stroke="#9a32cd" points="87.8203,-137.5 77.8202,-141 87.8202,-144.5 87.8203,-137.5"/>
<text text-anchor="middle" x="119" y="-144" font-family="Helvetica,sans-Serif" font-size="10.00"> common_</text>
</g>
<!-- Node7 -->
<g id="node7" class="node"><title>Node7</title>
<g id="a_node7"><a xlink:href="classthrill_1_1mem_1_1Manager.html" target="_top" xlink:title="Object shared by allocators and other classes to track memory allocations. ">
<polygon fill="none" stroke="black" points="167,-64.5 167,-83.5 221,-83.5 221,-64.5 167,-64.5"/>
<text text-anchor="middle" x="194" y="-71.5" font-family="Helvetica,sans-Serif" font-size="10.00">Manager</text>
</a>
</g>
</g>
<!-- Node7&#45;&gt;Node3 -->
<g id="edge7" class="edge"><title>Node7&#45;&gt;Node3</title>
<path fill="none" stroke="#9a32cd" stroke-dasharray="5,2" d="M229.216,-87.2513C262.845,-100.275 313.348,-119.834 343.259,-131.418"/>
<polygon fill="#9a32cd" stroke="#9a32cd" points="230.376,-83.9472 219.787,-83.5995 227.848,-90.4748 230.376,-83.9472"/>
<text text-anchor="middle" x="283" y="-125" font-family="Helvetica,sans-Serif" font-size="10.00"> mem_manager_</text>
</g>
<!-- Node7&#45;&gt;Node7 -->
<g id="edge8" class="edge"><title>Node7&#45;&gt;Node7</title>
<path fill="none" stroke="#9a32cd" stroke-dasharray="5,2" d="M180.372,-93.7663C181.443,-98.4965 185.985,-102 194,-102 207.152,-102 210.954,-92.5653 205.406,-83.7571"/>
<polygon fill="#9a32cd" stroke="#9a32cd" points="183.844,-94.2779 182.594,-83.7571 177.01,-92.7609 183.844,-94.2779"/>
<text text-anchor="middle" x="194" y="-105" font-family="Helvetica,sans-Serif" font-size="10.00"> super_</text>
</g>
<!-- Node8 -->
<g id="node8" class="node"><title>Node8</title>
<g id="a_node8"><a xlink:href="classthrill_1_1common_1_1AtomicMovable.html" target="_top" xlink:title="AtomicMovable\&lt; bool \&gt;">
<polygon fill="none" stroke="black" points="809,-87.5 809,-106.5 929,-106.5 929,-87.5 809,-87.5"/>
<text text-anchor="middle" x="869" y="-94.5" font-family="Helvetica,sans-Serif" font-size="10.00">AtomicMovable&lt; bool &gt;</text>
</a>
</g>
</g>
<!-- Node8&#45;&gt;Node1 -->
<g id="edge9" class="edge"><title>Node8&#45;&gt;Node1</title>
<path fill="none" stroke="#9a32cd" stroke-dasharray="5,2" d="M939.293,-97C978.72,-97 1026.36,-97 1057.83,-97"/>
<polygon fill="#9a32cd" stroke="#9a32cd" points="939.2,-93.5001 929.2,-97 939.2,-100.5 939.2,-93.5001"/>
<text text-anchor="middle" x="1003" y="-100" font-family="Helvetica,sans-Serif" font-size="10.00"> write_closed_</text>
</g>
<!-- Node9 -->
<g id="node9" class="node"><title>Node9</title>
<g id="a_node9"><a xlink:href="classthrill_1_1common_1_1AtomicMovable.html" target="_top" xlink:title="This is a derivative of std::atomic which enables easier and less error&#45;prone writing of move&#45;only cl...">
<polygon fill="none" stroke="black" points="516,-87.5 516,-106.5 624,-106.5 624,-87.5 516,-87.5"/>
<text text-anchor="middle" x="570" y="-94.5" font-family="Helvetica,sans-Serif" font-size="10.00">AtomicMovable&lt; T &gt;</text>
</a>
</g>
</g>
<!-- Node9&#45;&gt;Node8 -->
<g id="edge10" class="edge"><title>Node9&#45;&gt;Node8</title>
<path fill="none" stroke="orange" stroke-dasharray="5,2" d="M634.147,-97C685.85,-97 758.454,-97 808.996,-97"/>
<polygon fill="orange" stroke="orange" points="634.098,-93.5001 624.098,-97 634.098,-100.5 634.098,-93.5001"/>
<text text-anchor="middle" x="719" y="-100" font-family="Helvetica,sans-Serif" font-size="10.00"> &lt; bool &gt;</text>
</g>
<!-- Node10 -->
<g id="node10" class="node"><title>Node10</title>
<g id="a_node10"><a xlink:href="classtlx_1_1Delegate.html" target="_top" xlink:title="Delegate\&lt; void(BlockQueue &amp;)\&gt;">
<polygon fill="none" stroke="black" points="790,-49.5 790,-68.5 948,-68.5 948,-49.5 790,-49.5"/>
<text text-anchor="middle" x="869" y="-56.5" font-family="Helvetica,sans-Serif" font-size="10.00">Delegate&lt; void(BlockQueue &amp;)&gt;</text>
</a>
</g>
</g>
<!-- Node10&#45;&gt;Node1 -->
<g id="edge11" class="edge"><title>Node10&#45;&gt;Node1</title>
<path fill="none" stroke="#9a32cd" stroke-dasharray="5,2" d="M958.264,-68.448C984.688,-71.9461 1013.64,-76.4464 1040,-82 1047.08,-83.4916 1054.6,-85.4429 1061.67,-87.4425"/>
<polygon fill="#9a32cd" stroke="#9a32cd" points="958.637,-64.9672 948.271,-67.1563 957.74,-71.9095 958.637,-64.9672"/>
<text text-anchor="middle" x="1003" y="-85" font-family="Helvetica,sans-Serif" font-size="10.00"> close_callback_</text>
</g>
<!-- Node11 -->
<g id="node11" class="node"><title>Node11</title>
<g id="a_node11"><a xlink:href="classtlx_1_1Delegate.html" target="_top" xlink:title="Delegate\&lt; T, Allocator \&gt;">
<polygon fill="none" stroke="black" points="508,-49.5 508,-68.5 632,-68.5 632,-49.5 508,-49.5"/>
<text text-anchor="middle" x="570" y="-56.5" font-family="Helvetica,sans-Serif" font-size="10.00">Delegate&lt; T, Allocator &gt;</text>
</a>
</g>
</g>
<!-- Node11&#45;&gt;Node10 -->
<g id="edge12" class="edge"><title>Node11&#45;&gt;Node10</title>
<path fill="none" stroke="orange" stroke-dasharray="5,2" d="M642.338,-59C686.86,-59 744.195,-59 789.931,-59"/>
<polygon fill="orange" stroke="orange" points="642.179,-55.5001 632.178,-59 642.178,-62.5001 642.179,-55.5001"/>
<text text-anchor="middle" x="719" y="-62" font-family="Helvetica,sans-Serif" font-size="10.00"> &lt; void(BlockQueue &amp;)&gt;</text>
</g>
<!-- Node12&#45;&gt;Node1 -->
<g id="edge13" class="edge"><title>Node12&#45;&gt;Node1</title>
<path fill="none" stroke="#9a32cd" stroke-dasharray="5,2" d="M895.147,-174.036C929.645,-174.439 992.745,-171.463 1040,-148 1059.48,-138.328 1076.26,-118.63 1085.17,-106.745"/>
<polygon fill="#9a32cd" stroke="#9a32cd" points="895.084,-170.534 885.008,-173.809 894.926,-177.533 895.084,-170.534"/>
<text text-anchor="middle" x="1003" y="-173" font-family="Helvetica,sans-Serif" font-size="10.00"> file_</text>
</g>
<!-- Node13 -->
<g id="node13" class="node"><title>Node13</title>
<g id="a_node13"><a xlink:href="classtlx_1_1ReferenceCounter.html" target="_top" xlink:title="Provides reference counting abilities for use with CountingPtr. ">
<polygon fill="none" stroke="black" points="522,-175.5 522,-194.5 618,-194.5 618,-175.5 522,-175.5"/>
<text text-anchor="middle" x="570" y="-182.5" font-family="Helvetica,sans-Serif" font-size="10.00">ReferenceCounter</text>
</a>
</g>
</g>
<!-- Node13&#45;&gt;Node12 -->
<g id="edge15" class="edge"><title>Node13&#45;&gt;Node12</title>
<path fill="none" stroke="midnightblue" d="M628.453,-182.679C698.283,-179.857 811.853,-175.269 852.733,-173.617"/>
<polygon fill="midnightblue" stroke="midnightblue" points="627.911,-179.198 618.061,-183.099 628.194,-186.192 627.911,-179.198"/>
</g>
<!-- Node14 -->
<g id="node14" class="node"><title>Node14</title>
<g id="a_node14"><a xlink:href="classthrill_1_1common_1_1ConcurrentBoundedQueue.html" target="_top" xlink:title="ConcurrentBoundedQueue\l\&lt; thrill::data::Block \&gt;">
<polygon fill="none" stroke="black" points="803.5,-0 803.5,-30 934.5,-30 934.5,-0 803.5,-0"/>
<text text-anchor="start" x="811.5" y="-18" font-family="Helvetica,sans-Serif" font-size="10.00">ConcurrentBoundedQueue</text>
<text text-anchor="middle" x="869" y="-7" font-family="Helvetica,sans-Serif" font-size="10.00">&lt; thrill::data::Block &gt;</text>
</a>
</g>
</g>
<!-- Node14&#45;&gt;Node1 -->
<g id="edge16" class="edge"><title>Node14&#45;&gt;Node1</title>
<path fill="none" stroke="#9a32cd" stroke-dasharray="5,2" d="M944.965,-25.856C975.472,-32.0925 1010.43,-41.6395 1040,-56 1056.55,-64.0366 1072.72,-78.0431 1082.53,-87.4178"/>
<polygon fill="#9a32cd" stroke="#9a32cd" points="945.291,-22.3533 934.805,-23.8658 943.945,-29.2228 945.291,-22.3533"/>
<text text-anchor="middle" x="1003" y="-59" font-family="Helvetica,sans-Serif" font-size="10.00"> queue_</text>
</g>
<!-- Node15 -->
<g id="node15" class="node"><title>Node15</title>
<g id="a_node15"><a xlink:href="classthrill_1_1common_1_1ConcurrentBoundedQueue.html" target="_top" xlink:title="This is a queue, similar to std::queue and tbb::concurrent_bounded_queue, except that it uses mutexes...">
<polygon fill="none" stroke="black" points="492.5,-5.5 492.5,-24.5 647.5,-24.5 647.5,-5.5 492.5,-5.5"/>
<text text-anchor="middle" x="570" y="-12.5" font-family="Helvetica,sans-Serif" font-size="10.00">ConcurrentBoundedQueue&lt; T &gt;</text>
</a>
</g>
</g>
<!-- Node15&#45;&gt;Node14 -->
<g id="edge17" class="edge"><title>Node15&#45;&gt;Node14</title>
<path fill="none" stroke="orange" stroke-dasharray="5,2" d="M657.916,-15C704.307,-15 760.442,-15 803.011,-15"/>
<polygon fill="orange" stroke="orange" points="657.871,-11.5001 647.871,-15 657.871,-18.5001 657.871,-11.5001"/>
<text text-anchor="middle" x="719" y="-18" font-family="Helvetica,sans-Serif" font-size="10.00"> &lt; thrill::data::Block &gt;</text>
</g>
</g>
</svg>
