<?xml version="1.0" encoding="UTF-8" standalone="no"?>
<!DOCTYPE svg PUBLIC "-//W3C//DTD SVG 1.1//EN"
 "http://www.w3.org/Graphics/SVG/1.1/DTD/svg11.dtd">
<!-- Generated by graphviz version 2.36.0 (20140111.2315)
 -->
<!-- Title: StatsTimerBaseStopped&lt; Active &gt; Pages: 1 -->
<svg width="277pt" height="178pt"
 viewBox="0.00 0.00 277.00 178.00" xmlns="http://www.w3.org/2000/svg" xmlns:xlink="http://www.w3.org/1999/xlink">
<g id="graph0" class="graph" transform="scale(1 1) rotate(0) translate(4 174)">
<title>StatsTimerBaseStopped&lt; Active &gt;</title>
<!-- Node1 -->
<g id="node1" class="node"><title>Node1</title>
<polygon fill="#bfbfbf" stroke="black" points="69.5,-81 69.5,-111 192.5,-111 192.5,-81 69.5,-81"/>
<text text-anchor="start" x="77.5" y="-99" font-family="Helvetica,sans-Serif" font-size="10.00">StatsTimerBaseStopped</text>
<text text-anchor="middle" x="131" y="-88" font-family="Helvetica,sans-Serif" font-size="10.00">&lt; Active &gt;</text>
</g>
<!-- Node3 -->
<g id="node3" class="node"><title>Node3</title>
<g id="a_node3"><a xlink:href="classthrill_1_1common_1_1StatsTimerBaseStopped.html" target="_top" xlink:title="StatsTimerBaseStopped\l\&lt; enable_stats \&gt;">
<polygon fill="none" stroke="black" points="-0.5,-1 -0.5,-31 122.5,-31 122.5,-1 -0.5,-1"/>
<text text-anchor="start" x="7.5" y="-19" font-family="Helvetica,sans-Serif" font-size="10.00">StatsTimerBaseStopped</text>
<text text-anchor="middle" x="61" y="-8" font-family="Helvetica,sans-Serif" font-size="10.00">&lt; enable_stats &gt;</text>
</a>
</g>
</g>
<!-- Node1&#45;&gt;Node3 -->
<g id="edge2" class="edge"><title>Node1&#45;&gt;Node3</title>
<path fill="none" stroke="orange" stroke-dasharray="5,2" d="M111.474,-73.2427C99.417,-59.8075 84.2922,-42.9542 73.7577,-31.2157"/>
<polygon fill="orange" stroke="orange" points="108.877,-75.5888 118.161,-80.6936 114.087,-70.9135 108.877,-75.5888"/>
<text text-anchor="middle" x="139.5" y="-53.5" font-family="Helvetica,sans-Serif" font-size="10.00"> &lt; enable_stats &gt;</text>
</g>
<!-- Node4 -->
<g id="node4" class="node"><title>Node4</title>
<g id="a_node4"><a xlink:href="classthrill_1_1common_1_1StatsTimerBaseStopped.html" target="_top" xlink:title="StatsTimerBaseStopped\l\&lt; stats_enabled \&gt;">
<polygon fill="none" stroke="black" points="140.5,-1 140.5,-31 263.5,-31 263.5,-1 140.5,-1"/>
<text text-anchor="start" x="148.5" y="-19" font-family="Helvetica,sans-Serif" font-size="10.00">StatsTimerBaseStopped</text>
<text text-anchor="middle" x="202" y="-8" font-family="Helvetica,sans-Serif" font-size="10.00">&lt; stats_enabled &gt;</text>
</a>
</g>
</g>
<!-- Node1&#45;&gt;Node4 -->
<g id="edge3" class="edge"><title>Node1&#45;&gt;Node4</title>
<path fill="none" stroke="orange" stroke-dasharray="5,2" d="M165.489,-75.1967C170.741,-71.2529 175.801,-66.8223 180,-62 187.881,-52.9494 193.658,-40.58 197.309,-31.0999"/>
<polygon fill="orange" stroke="orange" points="163.385,-72.397 157.173,-80.9797 167.381,-78.144 163.385,-72.397"/>
<text text-anchor="middle" x="228" y="-53.5" font-family="Helvetica,sans-Serif" font-size="10.00"> &lt; stats_enabled &gt;</text>
</g>
<!-- Node2 -->
<g id="node2" class="node"><title>Node2</title>
<g id="a_node2"><a xlink:href="classthrill_1_1common_1_1StatsTimerBase.html" target="_top" xlink:title="This class provides a statistical stop watch timer that can easily be deactivated using a boolean tem...">
<polygon fill="none" stroke="black" points="64.5,-150.5 64.5,-169.5 197.5,-169.5 197.5,-150.5 64.5,-150.5"/>
<text text-anchor="middle" x="131" y="-157.5" font-family="Helvetica,sans-Serif" font-size="10.00">StatsTimerBase&lt; Active &gt;</text>
</a>
</g>
</g>
<!-- Node2&#45;&gt;Node1 -->
<g id="edge1" class="edge"><title>Node2&#45;&gt;Node1</title>
<path fill="none" stroke="midnightblue" d="M131,-140.183C131,-130.886 131,-119.851 131,-111.263"/>
<polygon fill="midnightblue" stroke="midnightblue" points="127.5,-140.379 131,-150.379 134.5,-140.379 127.5,-140.379"/>
</g>
</g>
</svg>
