<?xml version="1.0" encoding="UTF-8" standalone="no"?>
<!DOCTYPE svg PUBLIC "-//W3C//DTD SVG 1.1//EN"
 "http://www.w3.org/Graphics/SVG/1.1/DTD/svg11.dtd">
<!-- Generated by graphviz version 2.40.1 (20161225.0304)
 -->
<!-- Title: LoserTreePointer&lt; Stable, ValueType, Comparator &gt; Pages: 1 -->
<svg width="223pt" height="285pt"
 viewBox="0.00 0.00 223.00 285.00" xmlns="http://www.w3.org/2000/svg" xmlns:xlink="http://www.w3.org/1999/xlink">
<g id="graph0" class="graph" transform="scale(1 1) rotate(0) translate(4 281)">
<title>LoserTreePointer&lt; Stable, ValueType, Comparator &gt;</title>
<!-- Node2 -->
<g id="node1" class="node">
<title>Node2</title>
<polygon fill="#bfbfbf" stroke="#000000" points="4,-.5 4,-30.5 148,-30.5 148,-.5 4,-.5"/>
<text text-anchor="start" x="12" y="-18.5" font-family="Helvetica,sans-Serif" font-size="10.00" fill="#000000">LoserTreePointer&lt; Stable,</text>
<text text-anchor="middle" x="76" y="-7.5" font-family="Helvetica,sans-Serif" font-size="10.00" fill="#000000"> ValueType, Comparator &gt;</text>
</g>
<!-- Node3 -->
<g id="node2" class="node">
<title>Node3</title>
<g id="a_node2"><a xlink:href="classtlx_1_1LoserTreePointerBase.html" target="_top" xlink:title="Guarded loser tree, using pointers to the elements instead of copying them into the tree nodes...">
<polygon fill="none" stroke="#000000" points="0,-68.5 0,-98.5 152,-98.5 152,-68.5 0,-68.5"/>
<text text-anchor="start" x="8" y="-86.5" font-family="Helvetica,sans-Serif" font-size="10.00" fill="#000000">LoserTreePointerBase</text>
<text text-anchor="middle" x="76" y="-75.5" font-family="Helvetica,sans-Serif" font-size="10.00" fill="#000000">&lt; ValueType, Comparator &gt;</text>
</a>
</g>
</g>
<!-- Node3&#45;&gt;Node2 -->
<g id="edge1" class="edge">
<title>Node3&#45;&gt;Node2</title>
<path fill="none" stroke="#191970" d="M76,-58.1174C76,-48.8378 76,-38.6413 76,-30.5492"/>
<polygon fill="#191970" stroke="#191970" points="72.5001,-58.4086 76,-68.4086 79.5001,-58.4086 72.5001,-58.4086"/>
</g>
<!-- Node4 -->
<g id="node3" class="node">
<title>Node4</title>
<g id="a_node3"><a xlink:href="classtlx_1_1SimpleVector.html" target="_top" xlink:title="SimpleVector\&lt; tlx::\lLoserTreePointerBase\l::Loser \&gt;">
<polygon fill="none" stroke="#000000" points="15,-146.5 15,-187.5 137,-187.5 137,-146.5 15,-146.5"/>
<text text-anchor="start" x="23" y="-175.5" font-family="Helvetica,sans-Serif" font-size="10.00" fill="#000000">SimpleVector&lt; tlx::</text>
<text text-anchor="start" x="23" y="-164.5" font-family="Helvetica,sans-Serif" font-size="10.00" fill="#000000">LoserTreePointerBase</text>
<text text-anchor="middle" x="76" y="-153.5" font-family="Helvetica,sans-Serif" font-size="10.00" fill="#000000">::Loser &gt;</text>
</a>
</g>
</g>
<!-- Node4&#45;&gt;Node3 -->
<g id="edge2" class="edge">
<title>Node4&#45;&gt;Node3</title>
<path fill="none" stroke="#9a32cd" stroke-dasharray="5,2" d="M76,-136.0892C76,-123.3184 76,-109.0939 76,-98.6621"/>
<polygon fill="#9a32cd" stroke="#9a32cd" points="72.5001,-136.3595 76,-146.3595 79.5001,-136.3596 72.5001,-136.3595"/>
<text text-anchor="middle" x="95" y="-120" font-family="Helvetica,sans-Serif" font-size="10.00" fill="#000000"> losers_</text>
</g>
<!-- Node5 -->
<g id="node4" class="node">
<title>Node5</title>
<g id="a_node4"><a xlink:href="classtlx_1_1SimpleVector.html" target="_top" xlink:title="Simpler non&#45;growing vector without initialization. ">
<polygon fill="none" stroke="#000000" points="3.5,-246.5 3.5,-276.5 148.5,-276.5 148.5,-246.5 3.5,-246.5"/>
<text text-anchor="start" x="11.5" y="-264.5" font-family="Helvetica,sans-Serif" font-size="10.00" fill="#000000">SimpleVector&lt; ValueType,</text>
<text text-anchor="middle" x="76" y="-253.5" font-family="Helvetica,sans-Serif" font-size="10.00" fill="#000000"> Mode &gt;</text>
</a>
</g>
</g>
<!-- Node5&#45;&gt;Node4 -->
<g id="edge3" class="edge">
<title>Node5&#45;&gt;Node4</title>
<path fill="none" stroke="#ffa500" stroke-dasharray="5,2" d="M76,-236.1013C76,-220.9736 76,-202.0135 76,-187.7823"/>
<polygon fill="#ffa500" stroke="#ffa500" points="72.5001,-236.3169 76,-246.3169 79.5001,-236.317 72.5001,-236.3169"/>
<text text-anchor="start" x="76" y="-220" font-family="Helvetica,sans-Serif" font-size="10.00" fill="#000000"> &lt; tlx::LoserTreePointerBase</text>
<text text-anchor="middle" x="145.5" y="-209" font-family="Helvetica,sans-Serif" font-size="10.00" fill="#000000">::Loser &gt;</text>
</g>
</g>
</svg>
