<?xml version="1.0" encoding="UTF-8" standalone="no"?>
<!DOCTYPE svg PUBLIC "-//W3C//DTD SVG 1.1//EN"
 "http://www.w3.org/Graphics/SVG/1.1/DTD/svg11.dtd">
<!-- Generated by graphviz version 2.36.0 (20140111.2315)
 -->
<!-- Title: Context Pages: 1 -->
<svg width="1334pt" height="768pt"
 viewBox="0.00 0.00 1334.00 767.80" xmlns="http://www.w3.org/2000/svg" xmlns:xlink="http://www.w3.org/1999/xlink">
<g id="graph0" class="graph" transform="scale(1 1) rotate(0) translate(4 763.796)">
<title>Context</title>
<!-- Node1 -->
<g id="node1" class="node"><title>Node1</title>
<polygon fill="#bfbfbf" stroke="black" points="1274.5,-174.296 1274.5,-193.296 1325.5,-193.296 1325.5,-174.296 1274.5,-174.296"/>
<text text-anchor="middle" x="1300" y="-181.296" font-family="Helvetica,sans-Serif" font-size="10.00">Context</text>
</g>
<!-- Node2 -->
<g id="node2" class="node"><title>Node2</title>
<g id="a_node2"><a xlink:href="classthrill_1_1net_1_1Manager.html" target="_top" xlink:title="Initializes communication channels, manages communication channels and handles errors. ">
<polygon fill="none" stroke="black" points="503,-207.296 503,-226.296 557,-226.296 557,-207.296 503,-207.296"/>
<text text-anchor="middle" x="530" y="-214.296" font-family="Helvetica,sans-Serif" font-size="10.00">Manager</text>
</a>
</g>
</g>
<!-- Node2&#45;&gt;Node1 -->
<g id="edge1" class="edge"><title>Node2&#45;&gt;Node1</title>
<path fill="none" stroke="#9a32cd" stroke-dasharray="5,2" d="M567.115,-222.283C583.254,-224.47 602.536,-226.721 620,-227.796 676.781,-231.292 691.114,-228.356 748,-227.796 860.905,-226.685 1149.72,-255.914 1256,-217.796 1269.8,-212.848 1282.55,-201.55 1290.53,-193.331"/>
<polygon fill="#9a32cd" stroke="#9a32cd" points="567.403,-218.789 557.014,-220.867 566.432,-225.721 567.403,-218.789"/>
<text text-anchor="middle" x="957" y="-239.796" font-family="Helvetica,sans-Serif" font-size="10.00"> net_manager_</text>
</g>
<!-- Node2&#45;&gt;Node1 -->
<g id="edge33" class="edge"><title>Node2&#45;&gt;Node1</title>
<path fill="none" stroke="#9a32cd" stroke-dasharray="5,2" d="M567.236,-216.744C673.337,-216.314 992.47,-213.029 1256,-189.796 1262.01,-189.267 1268.46,-188.482 1274.49,-187.654"/>
<polygon fill="#9a32cd" stroke="#9a32cd" points="567.057,-213.245 557.069,-216.779 567.081,-220.245 567.057,-213.245"/>
<text text-anchor="middle" x="957" y="-213.796" font-family="Helvetica,sans-Serif" font-size="10.00"> mem_manager_</text>
</g>
<!-- Node17 -->
<g id="node17" class="node"><title>Node17</title>
<g id="a_node17"><a xlink:href="classthrill_1_1data_1_1Multiplexer.html" target="_top" xlink:title="Multiplexes virtual Connections on Dispatcher. ">
<polygon fill="none" stroke="black" points="1064,-292.296 1064,-311.296 1128,-311.296 1128,-292.296 1064,-292.296"/>
<text text-anchor="middle" x="1096" y="-299.296" font-family="Helvetica,sans-Serif" font-size="10.00">Multiplexer</text>
</a>
</g>
</g>
<!-- Node2&#45;&gt;Node17 -->
<g id="edge30" class="edge"><title>Node2&#45;&gt;Node17</title>
<path fill="none" stroke="#9a32cd" stroke-dasharray="5,2" d="M557.436,-230.909C574.749,-239.509 598.139,-249.938 620,-255.796 782.856,-299.438 986.949,-302.764 1063.81,-302.292"/>
<polygon fill="#9a32cd" stroke="#9a32cd" points="558.991,-227.774 548.491,-226.36 555.818,-234.013 558.991,-227.774"/>
<text text-anchor="middle" x="828" y="-299.796" font-family="Helvetica,sans-Serif" font-size="10.00"> mem_manager_</text>
</g>
<!-- Node18 -->
<g id="node18" class="node"><title>Node18</title>
<g id="a_node18"><a xlink:href="classthrill_1_1net_1_1DispatcherThread.html" target="_top" xlink:title="DispatcherThread contains a net::Dispatcher object and an associated thread that runs in the dispatch...">
<polygon fill="none" stroke="black" points="781,-331.296 781,-350.296 875,-350.296 875,-331.296 781,-331.296"/>
<text text-anchor="middle" x="828" y="-338.296" font-family="Helvetica,sans-Serif" font-size="10.00">DispatcherThread</text>
</a>
</g>
</g>
<!-- Node2&#45;&gt;Node18 -->
<g id="edge24" class="edge"><title>Node2&#45;&gt;Node18</title>
<path fill="none" stroke="#9a32cd" stroke-dasharray="5,2" d="M542.156,-235.057C556.933,-257.479 585.23,-294.746 620,-312.796 633.961,-320.044 724.078,-330.328 780.712,-336.205"/>
<polygon fill="#9a32cd" stroke="#9a32cd" points="544.999,-233.006 536.671,-226.456 539.097,-236.769 544.999,-233.006"/>
<text text-anchor="middle" x="684" y="-335.796" font-family="Helvetica,sans-Serif" font-size="10.00"> mem_manager_</text>
</g>
<!-- Node21 -->
<g id="node21" class="node"><title>Node21</title>
<g id="a_node21"><a xlink:href="classthrill_1_1data_1_1BlockPool.html" target="_top" xlink:title="Pool to allocate, keep, swap out/in, and free all ByteBlocks on the host. ">
<polygon fill="none" stroke="black" points="797.5,-155.296 797.5,-174.296 858.5,-174.296 858.5,-155.296 797.5,-155.296"/>
<text text-anchor="middle" x="828" y="-162.296" font-family="Helvetica,sans-Serif" font-size="10.00">BlockPool</text>
</a>
</g>
</g>
<!-- Node2&#45;&gt;Node21 -->
<g id="edge29" class="edge"><title>Node2&#45;&gt;Node21</title>
<path fill="none" stroke="#9a32cd" stroke-dasharray="5,2" d="M566.815,-205.464C582.938,-200.692 602.291,-195.419 620,-191.796 682.492,-179.013 756.897,-171.045 797.298,-167.313"/>
<polygon fill="#9a32cd" stroke="#9a32cd" points="565.802,-202.113 557.237,-208.35 567.822,-208.816 565.802,-202.113"/>
<text text-anchor="middle" x="684" y="-194.796" font-family="Helvetica,sans-Serif" font-size="10.00"> mem_manager_</text>
</g>
<!-- Node3 -->
<g id="node3" class="node"><title>Node3</title>
<g id="a_node3"><a xlink:href="classthrill_1_1common_1_1ProfileTask.html" target="_top" xlink:title="ProfileTask">
<polygon fill="none" stroke="black" points="194,-198.296 194,-217.296 260,-217.296 260,-198.296 194,-198.296"/>
<text text-anchor="middle" x="227" y="-205.296" font-family="Helvetica,sans-Serif" font-size="10.00">ProfileTask</text>
</a>
</g>
</g>
<!-- Node3&#45;&gt;Node2 -->
<g id="edge2" class="edge"><title>Node3&#45;&gt;Node2</title>
<path fill="none" stroke="midnightblue" d="M270.233,-209.059C333.359,-210.946 450.477,-214.448 502.692,-216.01"/>
<polygon fill="midnightblue" stroke="midnightblue" points="270.312,-205.56 260.212,-208.759 270.103,-212.557 270.312,-205.56"/>
</g>
<!-- Node3&#45;&gt;Node21 -->
<g id="edge27" class="edge"><title>Node3&#45;&gt;Node21</title>
<path fill="none" stroke="midnightblue" d="M270.225,-203.111C341.997,-195.33 492.417,-179.805 620,-171.796 683.162,-167.831 757.316,-166.01 797.494,-165.258"/>
<polygon fill="midnightblue" stroke="midnightblue" points="269.781,-199.639 260.219,-204.202 270.539,-206.598 269.781,-199.639"/>
</g>
<!-- Node4 -->
<g id="node4" class="node"><title>Node4</title>
<g id="a_node4"><a xlink:href="classthrill_1_1common_1_1JsonLogger.html" target="_top" xlink:title="JsonLogger is a receiver of JSON output objects for logging. ">
<polygon fill="none" stroke="black" points="193.5,-123.296 193.5,-142.296 260.5,-142.296 260.5,-123.296 193.5,-123.296"/>
<text text-anchor="middle" x="227" y="-130.296" font-family="Helvetica,sans-Serif" font-size="10.00">JsonLogger</text>
</a>
</g>
</g>
<!-- Node4&#45;&gt;Node1 -->
<g id="edge19" class="edge"><title>Node4&#45;&gt;Node1</title>
<path fill="none" stroke="#9a32cd" stroke-dasharray="5,2" d="M270.617,-122.113C328.658,-108.523 435.994,-86.7962 529,-86.7962 529,-86.7962 529,-86.7962 1097,-86.7962 1177.14,-86.7962 1259.1,-149.606 1288.06,-174.141"/>
<polygon fill="#9a32cd" stroke="#9a32cd" points="269.63,-118.75 260.709,-124.466 271.247,-125.56 269.63,-118.75"/>
<text text-anchor="middle" x="828" y="-100.796" font-family="Helvetica,sans-Serif" font-size="10.00"> logger_</text>
<text text-anchor="middle" x="828" y="-89.7962" font-family="Helvetica,sans-Serif" font-size="10.00">base_logger_</text>
</g>
<!-- Node4&#45;&gt;Node2 -->
<g id="edge3" class="edge"><title>Node4&#45;&gt;Node2</title>
<path fill="none" stroke="#9a32cd" stroke-dasharray="5,2" d="M270.453,-144.643C333.679,-162.288 450.717,-194.95 502.812,-209.488"/>
<polygon fill="#9a32cd" stroke="#9a32cd" points="271.358,-141.262 260.785,-141.946 269.476,-148.005 271.358,-141.262"/>
<text text-anchor="middle" x="376" y="-192.796" font-family="Helvetica,sans-Serif" font-size="10.00"> logger_</text>
</g>
<!-- Node4&#45;&gt;Node4 -->
<g id="edge5" class="edge"><title>Node4&#45;&gt;Node4</title>
<path fill="none" stroke="#9a32cd" stroke-dasharray="5,2" d="M207.001,-152.196C208.337,-157.111 215.003,-160.796 227,-160.796 246.195,-160.796 251.744,-151.361 243.646,-142.553"/>
<polygon fill="#9a32cd" stroke="#9a32cd" points="210.376,-153.148 210.354,-142.553 203.764,-150.849 210.376,-153.148"/>
<text text-anchor="middle" x="227" y="-163.796" font-family="Helvetica,sans-Serif" font-size="10.00"> super_</text>
</g>
<!-- Node4&#45;&gt;Node21 -->
<g id="edge28" class="edge"><title>Node4&#45;&gt;Node21</title>
<path fill="none" stroke="#9a32cd" stroke-dasharray="5,2" d="M270.72,-131.113C359.848,-128.224 571.961,-124.592 748,-146.796 764.468,-148.873 782.54,-152.86 797.237,-156.554"/>
<polygon fill="#9a32cd" stroke="#9a32cd" points="270.597,-127.615 260.721,-131.451 270.834,-134.611 270.597,-127.615"/>
<text text-anchor="middle" x="530" y="-136.796" font-family="Helvetica,sans-Serif" font-size="10.00"> logger_</text>
</g>
<!-- Node5 -->
<g id="node5" class="node"><title>Node5</title>
<g id="a_node5"><a xlink:href="classthrill_1_1common_1_1JsonVerbatim.html" target="_top" xlink:title="A special class to output verbatim text. ">
<polygon fill="none" stroke="black" points="0.5,-123.296 0.5,-142.296 77.5,-142.296 77.5,-123.296 0.5,-123.296"/>
<text text-anchor="middle" x="39" y="-130.296" font-family="Helvetica,sans-Serif" font-size="10.00">JsonVerbatim</text>
</a>
</g>
</g>
<!-- Node5&#45;&gt;Node4 -->
<g id="edge4" class="edge"><title>Node5&#45;&gt;Node4</title>
<path fill="none" stroke="#9a32cd" stroke-dasharray="5,2" d="M88.0045,-132.796C121.105,-132.796 164.226,-132.796 193.388,-132.796"/>
<polygon fill="#9a32cd" stroke="#9a32cd" points="87.6399,-129.296 77.6399,-132.796 87.6398,-136.296 87.6399,-129.296"/>
<text text-anchor="middle" x="119" y="-135.796" font-family="Helvetica,sans-Serif" font-size="10.00"> common_</text>
</g>
<!-- Node6 -->
<g id="node6" class="node"><title>Node6</title>
<g id="a_node6"><a xlink:href="classthrill_1_1net_1_1FlowControlChannel.html" target="_top" xlink:title="Provides a blocking collection for communication. ">
<polygon fill="none" stroke="black" points="1043.5,-444.296 1043.5,-463.296 1148.5,-463.296 1148.5,-444.296 1043.5,-444.296"/>
<text text-anchor="middle" x="1096" y="-451.296" font-family="Helvetica,sans-Serif" font-size="10.00">FlowControlChannel</text>
</a>
</g>
</g>
<!-- Node6&#45;&gt;Node1 -->
<g id="edge6" class="edge"><title>Node6&#45;&gt;Node1</title>
<path fill="none" stroke="#9a32cd" stroke-dasharray="5,2" d="M1119.32,-438.206C1153.3,-413.408 1218.05,-361.81 1256,-303.796 1280.11,-266.942 1292.72,-214.873 1297.14,-193.513"/>
<polygon fill="#9a32cd" stroke="#9a32cd" points="1117.06,-435.518 1110.99,-444.198 1121.15,-441.201 1117.06,-435.518"/>
<text text-anchor="middle" x="1221" y="-383.796" font-family="Helvetica,sans-Serif" font-size="10.00"> net</text>
</g>
<!-- Node7 -->
<g id="node7" class="node"><title>Node7</title>
<g id="a_node7"><a xlink:href="classthrill_1_1net_1_1FlowControlChannel_1_1LocalData.html" target="_top" xlink:title="LocalData">
<polygon fill="none" stroke="black" points="797.5,-427.296 797.5,-446.296 858.5,-446.296 858.5,-427.296 797.5,-427.296"/>
<text text-anchor="middle" x="828" y="-434.296" font-family="Helvetica,sans-Serif" font-size="10.00">LocalData</text>
</a>
</g>
</g>
<!-- Node7&#45;&gt;Node6 -->
<g id="edge7" class="edge"><title>Node7&#45;&gt;Node6</title>
<path fill="none" stroke="#9a32cd" stroke-dasharray="5,2" d="M868.591,-435.077C904.525,-433.977 958.932,-433.465 1006,-437.796 1020.54,-439.134 1036.26,-441.611 1050.39,-444.224"/>
<polygon fill="#9a32cd" stroke="#9a32cd" points="868.391,-431.581 858.515,-435.415 868.627,-438.577 868.391,-431.581"/>
<text text-anchor="middle" x="957" y="-440.796" font-family="Helvetica,sans-Serif" font-size="10.00"> shmem_</text>
</g>
<!-- Node8 -->
<g id="node8" class="node"><title>Node8</title>
<g id="a_node8"><a xlink:href="classthrill_1_1net_1_1Group.html" target="_top" xlink:title="A network Group is a collection of enumerated communication links, which provides point&#45;to&#45;point comm...">
<polygon fill="none" stroke="black" points="806.5,-379.296 806.5,-398.296 849.5,-398.296 849.5,-379.296 806.5,-379.296"/>
<text text-anchor="middle" x="828" y="-386.296" font-family="Helvetica,sans-Serif" font-size="10.00">Group</text>
</a>
</g>
</g>
<!-- Node8&#45;&gt;Node6 -->
<g id="edge8" class="edge"><title>Node8&#45;&gt;Node6</title>
<path fill="none" stroke="#9a32cd" stroke-dasharray="5,2" d="M859.964,-392.392C895.61,-396.95 955.716,-405.926 1006,-419.796 1029.6,-426.306 1055.66,-436.652 1073.44,-444.224"/>
<polygon fill="#9a32cd" stroke="#9a32cd" points="860.08,-388.879 849.724,-391.118 859.216,-395.826 860.08,-388.879"/>
<text text-anchor="middle" x="957" y="-422.796" font-family="Helvetica,sans-Serif" font-size="10.00"> group_</text>
</g>
<!-- Node8&#45;&gt;Node17 -->
<g id="edge25" class="edge"><title>Node8&#45;&gt;Node17</title>
<path fill="none" stroke="#9a32cd" stroke-dasharray="5,2" d="M859.815,-382.84C895.556,-375.503 955.973,-361.771 1006,-343.796 1031.57,-334.61 1059.71,-320.633 1077.36,-311.36"/>
<polygon fill="#9a32cd" stroke="#9a32cd" points="858.665,-379.501 849.554,-384.909 860.049,-386.363 858.665,-379.501"/>
<text text-anchor="middle" x="957" y="-374.796" font-family="Helvetica,sans-Serif" font-size="10.00"> group_</text>
</g>
<!-- Node9 -->
<g id="node9" class="node"><title>Node9</title>
<g id="a_node9"><a xlink:href="classthrill_1_1common_1_1AtomicMovable.html" target="_top" xlink:title="AtomicMovable\&lt; size_t \&gt;">
<polygon fill="none" stroke="black" points="620,-662.296 620,-681.296 748,-681.296 748,-662.296 620,-662.296"/>
<text text-anchor="middle" x="684" y="-669.296" font-family="Helvetica,sans-Serif" font-size="10.00">AtomicMovable&lt; size_t &gt;</text>
</a>
</g>
</g>
<!-- Node9&#45;&gt;Node6 -->
<g id="edge9" class="edge"><title>Node9&#45;&gt;Node6</title>
<path fill="none" stroke="#9a32cd" stroke-dasharray="5,2" d="M734.442,-683.29C802.172,-696.044 924.656,-708.081 1006,-651.796 1072.94,-605.476 1090.28,-496.362 1094.06,-463.395"/>
<polygon fill="#9a32cd" stroke="#9a32cd" points="734.944,-679.822 724.457,-681.33 733.596,-686.691 734.944,-679.822"/>
<text text-anchor="middle" x="828" y="-751.796" font-family="Helvetica,sans-Serif" font-size="10.00"> count_allreduce_</text>
<text text-anchor="middle" x="828" y="-740.796" font-family="Helvetica,sans-Serif" font-size="10.00">count_broadcast_</text>
<text text-anchor="middle" x="828" y="-729.796" font-family="Helvetica,sans-Serif" font-size="10.00">count_reduce_</text>
<text text-anchor="middle" x="828" y="-718.796" font-family="Helvetica,sans-Serif" font-size="10.00">count_prefixsum_</text>
<text text-anchor="middle" x="828" y="-707.796" font-family="Helvetica,sans-Serif" font-size="10.00">count_barrier_</text>
<text text-anchor="middle" x="828" y="-696.796" font-family="Helvetica,sans-Serif" font-size="10.00">count_predecessor_</text>
</g>
<!-- Node10 -->
<g id="node10" class="node"><title>Node10</title>
<g id="a_node10"><a xlink:href="classthrill_1_1common_1_1AtomicMovable.html" target="_top" xlink:title="This is a derivative of std::atomic which enables easier and less error&#45;prone writing of move&#45;only cl...">
<polygon fill="none" stroke="black" points="173,-639.296 173,-658.296 281,-658.296 281,-639.296 173,-639.296"/>
<text text-anchor="middle" x="227" y="-646.296" font-family="Helvetica,sans-Serif" font-size="10.00">AtomicMovable&lt; T &gt;</text>
</a>
</g>
</g>
<!-- Node10&#45;&gt;Node9 -->
<g id="edge10" class="edge"><title>Node10&#45;&gt;Node9</title>
<path fill="none" stroke="orange" stroke-dasharray="5,2" d="M291.317,-651.997C378.065,-656.382 532.963,-664.212 619.701,-668.596"/>
<polygon fill="orange" stroke="orange" points="291.249,-648.489 281.085,-651.48 290.895,-655.48 291.249,-648.489"/>
<text text-anchor="middle" x="376" y="-661.796" font-family="Helvetica,sans-Serif" font-size="10.00"> &lt; size_t &gt;</text>
</g>
<!-- Node12 -->
<g id="node12" class="node"><title>Node12</title>
<g id="a_node12"><a xlink:href="classthrill_1_1common_1_1AtomicMovable.html" target="_top" xlink:title="AtomicMovable\&lt; uint64_t \&gt;">
<polygon fill="none" stroke="black" points="461.5,-619.296 461.5,-638.296 598.5,-638.296 598.5,-619.296 461.5,-619.296"/>
<text text-anchor="middle" x="530" y="-626.296" font-family="Helvetica,sans-Serif" font-size="10.00">AtomicMovable&lt; uint64_t &gt;</text>
</a>
</g>
</g>
<!-- Node10&#45;&gt;Node12 -->
<g id="edge13" class="edge"><title>Node10&#45;&gt;Node12</title>
<path fill="none" stroke="orange" stroke-dasharray="5,2" d="M288.419,-637.706C296.329,-636.554 304.343,-635.537 312,-634.796 361.892,-629.972 418.514,-628.541 461.407,-628.279"/>
<polygon fill="orange" stroke="orange" points="287.845,-634.253 278.489,-639.226 288.904,-641.173 287.845,-634.253"/>
<text text-anchor="middle" x="376" y="-637.796" font-family="Helvetica,sans-Serif" font-size="10.00"> &lt; uint64_t &gt;</text>
</g>
<!-- Node11 -->
<g id="node11" class="node"><title>Node11</title>
<g id="a_node11"><a xlink:href="classthrill_1_1common_1_1ThreadBarrierSpinning.html" target="_top" xlink:title="Implements a cyclic barrier using atomics and a spin lock that can be used to synchronize threads...">
<polygon fill="none" stroke="black" points="771.5,-617.296 771.5,-636.296 884.5,-636.296 884.5,-617.296 771.5,-617.296"/>
<text text-anchor="middle" x="828" y="-624.296" font-family="Helvetica,sans-Serif" font-size="10.00">ThreadBarrierSpinning</text>
</a>
</g>
</g>
<!-- Node11&#45;&gt;Node6 -->
<g id="edge11" class="edge"><title>Node11&#45;&gt;Node6</title>
<path fill="none" stroke="#9a32cd" stroke-dasharray="5,2" d="M894.971,-636.816C930.458,-638.82 973.482,-635.491 1006,-614.796 1062.85,-578.615 1086.45,-492.703 1092.99,-463.618"/>
<polygon fill="#9a32cd" stroke="#9a32cd" points="894.924,-633.304 884.699,-636.078 894.423,-640.286 894.924,-633.304"/>
<text text-anchor="middle" x="957" y="-639.796" font-family="Helvetica,sans-Serif" font-size="10.00"> barrier_</text>
</g>
<!-- Node12&#45;&gt;Node11 -->
<g id="edge12" class="edge"><title>Node12&#45;&gt;Node11</title>
<path fill="none" stroke="#9a32cd" stroke-dasharray="5,2" d="M608.542,-628.272C659.588,-627.927 725.22,-627.484 771.166,-627.173"/>
<polygon fill="#9a32cd" stroke="#9a32cd" points="608.513,-624.772 598.537,-628.34 608.561,-631.772 608.513,-624.772"/>
<text text-anchor="middle" x="684" y="-630.796" font-family="Helvetica,sans-Serif" font-size="10.00"> wait_time_</text>
</g>
<!-- Node13 -->
<g id="node13" class="node"><title>Node13</title>
<g id="a_node13"><a xlink:href="classthrill_1_1common_1_1StatsTimerBaseStopped.html" target="_top" xlink:title="StatsTimerBaseStopped\l\&lt; enable_stats \&gt;">
<polygon fill="none" stroke="black" points="766.5,-465.796 766.5,-495.796 889.5,-495.796 889.5,-465.796 766.5,-465.796"/>
<text text-anchor="start" x="774.5" y="-483.796" font-family="Helvetica,sans-Serif" font-size="10.00">StatsTimerBaseStopped</text>
<text text-anchor="middle" x="828" y="-472.796" font-family="Helvetica,sans-Serif" font-size="10.00">&lt; enable_stats &gt;</text>
</a>
</g>
</g>
<!-- Node13&#45;&gt;Node6 -->
<g id="edge14" class="edge"><title>Node13&#45;&gt;Node6</title>
<path fill="none" stroke="#9a32cd" stroke-dasharray="5,2" d="M899.847,-472.664C902.6,-472.368 905.325,-472.077 908,-471.796 953.736,-466.99 1005.82,-462.018 1043.38,-458.52"/>
<polygon fill="#9a32cd" stroke="#9a32cd" points="899.363,-469.196 889.802,-473.761 900.123,-476.155 899.363,-469.196"/>
<text text-anchor="start" x="908.5" y="-606.796" font-family="Helvetica,sans-Serif" font-size="10.00"> timer_communication</text>
<text text-anchor="middle" x="957" y="-595.796" font-family="Helvetica,sans-Serif" font-size="10.00">_</text>
<text text-anchor="start" x="908.5" y="-584.796" font-family="Helvetica,sans-Serif" font-size="10.00">timer_predecessor</text>
<text text-anchor="middle" x="957" y="-573.796" font-family="Helvetica,sans-Serif" font-size="10.00">_</text>
<text text-anchor="start" x="908.5" y="-562.796" font-family="Helvetica,sans-Serif" font-size="10.00">timer_allreduce</text>
<text text-anchor="middle" x="957" y="-551.796" font-family="Helvetica,sans-Serif" font-size="10.00">_</text>
<text text-anchor="start" x="908.5" y="-540.796" font-family="Helvetica,sans-Serif" font-size="10.00">timer_barrier</text>
<text text-anchor="middle" x="957" y="-529.796" font-family="Helvetica,sans-Serif" font-size="10.00">_</text>
<text text-anchor="start" x="908.5" y="-518.796" font-family="Helvetica,sans-Serif" font-size="10.00">timer_prefixsum</text>
<text text-anchor="middle" x="957" y="-507.796" font-family="Helvetica,sans-Serif" font-size="10.00">_</text>
<text text-anchor="start" x="908.5" y="-496.796" font-family="Helvetica,sans-Serif" font-size="10.00">timer_broadcast</text>
<text text-anchor="middle" x="957" y="-485.796" font-family="Helvetica,sans-Serif" font-size="10.00">_</text>
<text text-anchor="middle" x="957" y="-474.796" font-family="Helvetica,sans-Serif" font-size="10.00">timer_reduce_</text>
</g>
<!-- Node14 -->
<g id="node14" class="node"><title>Node14</title>
<g id="a_node14"><a xlink:href="classthrill_1_1common_1_1StatsTimerBase.html" target="_top" xlink:title="This class provides a statistical stop watch timer that can easily be deactivated using a boolean tem...">
<polygon fill="none" stroke="black" points="160.5,-466.296 160.5,-485.296 293.5,-485.296 293.5,-466.296 160.5,-466.296"/>
<text text-anchor="middle" x="227" y="-473.296" font-family="Helvetica,sans-Serif" font-size="10.00">StatsTimerBase&lt; Active &gt;</text>
</a>
</g>
</g>
<!-- Node14&#45;&gt;Node13 -->
<g id="edge15" class="edge"><title>Node14&#45;&gt;Node13</title>
<path fill="none" stroke="midnightblue" d="M303.9,-476.025C379.462,-476.294 498.75,-476.832 602,-477.796 657.667,-478.316 721.077,-479.187 766.361,-479.857"/>
<polygon fill="midnightblue" stroke="midnightblue" points="303.547,-472.523 293.535,-475.988 303.522,-479.523 303.547,-472.523"/>
</g>
<!-- Node15 -->
<g id="node15" class="node"><title>Node15</title>
<g id="a_node15"><a xlink:href="classthrill_1_1common_1_1StatsTimerBaseStopped.html" target="_top" xlink:title="StatsTimerBaseStopped\l\&lt; Active \&gt;">
<polygon fill="none" stroke="black" points="468.5,-487.796 468.5,-517.796 591.5,-517.796 591.5,-487.796 468.5,-487.796"/>
<text text-anchor="start" x="476.5" y="-505.796" font-family="Helvetica,sans-Serif" font-size="10.00">StatsTimerBaseStopped</text>
<text text-anchor="middle" x="530" y="-494.796" font-family="Helvetica,sans-Serif" font-size="10.00">&lt; Active &gt;</text>
</a>
</g>
</g>
<!-- Node14&#45;&gt;Node15 -->
<g id="edge17" class="edge"><title>Node14&#45;&gt;Node15</title>
<path fill="none" stroke="midnightblue" d="M303.655,-482.582C354.584,-487.151 420.852,-493.095 468.321,-497.353"/>
<polygon fill="midnightblue" stroke="midnightblue" points="303.957,-479.096 293.684,-481.688 303.331,-486.068 303.957,-479.096"/>
</g>
<!-- Node15&#45;&gt;Node13 -->
<g id="edge16" class="edge"><title>Node15&#45;&gt;Node13</title>
<path fill="none" stroke="orange" stroke-dasharray="5,2" d="M601.749,-497.538C651.978,-493.805 718.701,-488.845 766.467,-485.295"/>
<polygon fill="orange" stroke="orange" points="601.327,-494.059 591.614,-498.291 601.846,-501.04 601.327,-494.059"/>
<text text-anchor="middle" x="684" y="-498.796" font-family="Helvetica,sans-Serif" font-size="10.00"> &lt; enable_stats &gt;</text>
</g>
<!-- Node16 -->
<g id="node16" class="node"><title>Node16</title>
<g id="a_node16"><a xlink:href="classthrill_1_1api_1_1MemoryConfig.html" target="_top" xlink:title="MemoryConfig">
<polygon fill="none" stroke="black" points="1056,-39.2962 1056,-58.2962 1136,-58.2962 1136,-39.2962 1056,-39.2962"/>
<text text-anchor="middle" x="1096" y="-46.2962" font-family="Helvetica,sans-Serif" font-size="10.00">MemoryConfig</text>
</a>
</g>
</g>
<!-- Node16&#45;&gt;Node1 -->
<g id="edge18" class="edge"><title>Node16&#45;&gt;Node1</title>
<path fill="none" stroke="#9a32cd" stroke-dasharray="5,2" d="M1146.43,-39.8035C1180.61,-36.4533 1225.29,-38.1195 1256,-61.7962 1292.28,-89.7677 1298.05,-150.631 1298.89,-174.202"/>
<polygon fill="#9a32cd" stroke="#9a32cd" points="1145.71,-36.3623 1136.18,-40.9855 1146.52,-43.3161 1145.71,-36.3623"/>
<text text-anchor="middle" x="1221" y="-64.7962" font-family="Helvetica,sans-Serif" font-size="10.00"> mem_config_</text>
</g>
<!-- Node17&#45;&gt;Node1 -->
<g id="edge20" class="edge"><title>Node17&#45;&gt;Node1</title>
<path fill="none" stroke="#9a32cd" stroke-dasharray="5,2" d="M1138.35,-298.25C1172.86,-293.456 1221.77,-282.199 1256,-255.796 1277.21,-239.434 1290.15,-209.397 1295.74,-193.796"/>
<polygon fill="#9a32cd" stroke="#9a32cd" points="1137.62,-294.815 1128.13,-299.54 1138.49,-301.76 1137.62,-294.815"/>
<text text-anchor="middle" x="1221" y="-291.796" font-family="Helvetica,sans-Serif" font-size="10.00"> multiplexer_</text>
</g>
<!-- Node18&#45;&gt;Node17 -->
<g id="edge21" class="edge"><title>Node18&#45;&gt;Node17</title>
<path fill="none" stroke="#9a32cd" stroke-dasharray="5,2" d="M885.192,-332.558C939.513,-324.593 1019.84,-312.816 1063.67,-306.39"/>
<polygon fill="#9a32cd" stroke="#9a32cd" points="884.416,-329.134 875.03,-334.047 885.432,-336.06 884.416,-329.134"/>
<text text-anchor="middle" x="957" y="-331.796" font-family="Helvetica,sans-Serif" font-size="10.00"> dispatcher_</text>
</g>
<!-- Node19 -->
<g id="node19" class="node"><title>Node19</title>
<g id="a_node19"><a xlink:href="classthrill_1_1common_1_1OurConcurrentQueue.html" target="_top" xlink:title="OurConcurrentQueue\l\&lt; tlx::Delegate, mem\l::Allocator\&lt; tlx::Delegate \&gt; \&gt;">
<polygon fill="none" stroke="black" points="458.5,-348.296 458.5,-389.296 601.5,-389.296 601.5,-348.296 458.5,-348.296"/>
<text text-anchor="start" x="466.5" y="-377.296" font-family="Helvetica,sans-Serif" font-size="10.00">OurConcurrentQueue</text>
<text text-anchor="start" x="466.5" y="-366.296" font-family="Helvetica,sans-Serif" font-size="10.00">&lt; tlx::Delegate, mem</text>
<text text-anchor="middle" x="530" y="-355.296" font-family="Helvetica,sans-Serif" font-size="10.00">::Allocator&lt; tlx::Delegate &gt; &gt;</text>
</a>
</g>
</g>
<!-- Node19&#45;&gt;Node18 -->
<g id="edge22" class="edge"><title>Node19&#45;&gt;Node18</title>
<path fill="none" stroke="#9a32cd" stroke-dasharray="5,2" d="M611.492,-361.182C665.893,-356.036 735.782,-349.425 780.978,-345.15"/>
<polygon fill="#9a32cd" stroke="#9a32cd" points="611.149,-357.699 601.523,-362.125 611.809,-364.668 611.149,-357.699"/>
<text text-anchor="middle" x="684" y="-362.796" font-family="Helvetica,sans-Serif" font-size="10.00"> jobqueue_</text>
</g>
<!-- Node20 -->
<g id="node20" class="node"><title>Node20</title>
<g id="a_node20"><a xlink:href="classthrill_1_1common_1_1OurConcurrentQueue.html" target="_top" xlink:title="This is a queue, similar to std::queue and tbb::concurrent_queue, except that it uses mutexes for syn...">
<polygon fill="none" stroke="black" points="172.5,-353.796 172.5,-383.796 281.5,-383.796 281.5,-353.796 172.5,-353.796"/>
<text text-anchor="start" x="180.5" y="-371.796" font-family="Helvetica,sans-Serif" font-size="10.00">OurConcurrentQueue</text>
<text text-anchor="middle" x="227" y="-360.796" font-family="Helvetica,sans-Serif" font-size="10.00">&lt; T, Allocator &gt;</text>
</a>
</g>
</g>
<!-- Node20&#45;&gt;Node19 -->
<g id="edge23" class="edge"><title>Node20&#45;&gt;Node19</title>
<path fill="none" stroke="orange" stroke-dasharray="5,2" d="M291.937,-368.796C340.753,-368.796 407.978,-368.796 458.377,-368.796"/>
<polygon fill="orange" stroke="orange" points="291.813,-365.296 281.813,-368.796 291.813,-372.296 291.813,-365.296"/>
<text text-anchor="start" x="312.5" y="-382.796" font-family="Helvetica,sans-Serif" font-size="10.00"> &lt; tlx::Delegate, mem</text>
<text text-anchor="middle" x="376" y="-371.796" font-family="Helvetica,sans-Serif" font-size="10.00">::Allocator&lt; tlx::Delegate &gt; &gt;</text>
</g>
<!-- Node21&#45;&gt;Node1 -->
<g id="edge31" class="edge"><title>Node21&#45;&gt;Node1</title>
<path fill="none" stroke="#9a32cd" stroke-dasharray="5,2" d="M869.029,-166.414C963.414,-170.23 1197.69,-179.701 1274.31,-182.798"/>
<polygon fill="#9a32cd" stroke="#9a32cd" points="868.89,-162.906 858.757,-165.999 868.608,-169.9 868.89,-162.906"/>
<text text-anchor="middle" x="1096" y="-181.796" font-family="Helvetica,sans-Serif" font-size="10.00"> block_pool_</text>
</g>
<!-- Node21&#45;&gt;Node17 -->
<g id="edge26" class="edge"><title>Node21&#45;&gt;Node17</title>
<path fill="none" stroke="#9a32cd" stroke-dasharray="5,2" d="M840.145,-183.006C853.636,-203.45 878.281,-236.075 908,-253.796 946.426,-276.709 962.676,-265.633 1006,-276.796 1025.27,-281.762 1046.76,-287.783 1063.79,-292.671"/>
<polygon fill="#9a32cd" stroke="#9a32cd" points="842.93,-180.863 834.599,-174.316 837.029,-184.629 842.93,-180.863"/>
<text text-anchor="middle" x="957" y="-279.796" font-family="Helvetica,sans-Serif" font-size="10.00"> block_pool_</text>
</g>
<!-- Node22 -->
<g id="node22" class="node"><title>Node22</title>
<g id="a_node22"><a xlink:href="classthrill_1_1net_1_1FlowControlChannelManager.html" target="_top" xlink:title="FlowControlChannelManager">
<polygon fill="none" stroke="black" points="1024.5,-1.29617 1024.5,-20.2962 1167.5,-20.2962 1167.5,-1.29617 1024.5,-1.29617"/>
<text text-anchor="middle" x="1096" y="-8.29617" font-family="Helvetica,sans-Serif" font-size="10.00">FlowControlChannelManager</text>
</a>
</g>
</g>
<!-- Node22&#45;&gt;Node1 -->
<g id="edge32" class="edge"><title>Node22&#45;&gt;Node1</title>
<path fill="none" stroke="#9a32cd" stroke-dasharray="5,2" d="M1159.16,-0.528906C1191.49,1.24658 1229.64,-2.71935 1256,-24.7962 1279.46,-44.4432 1293.74,-142.351 1297.8,-173.948"/>
<polygon fill="#9a32cd" stroke="#9a32cd" points="1158.6,2.93957 1148.89,-1.29143 1159.12,-4.04121 1158.6,2.93957"/>
<text text-anchor="middle" x="1221" y="-27.7962" font-family="Helvetica,sans-Serif" font-size="10.00"> flow_manager_</text>
</g>
</g>
</svg>
