<?xml version="1.0" encoding="UTF-8" standalone="no"?>
<!DOCTYPE svg PUBLIC "-//W3C//DTD SVG 1.1//EN"
 "http://www.w3.org/Graphics/SVG/1.1/DTD/svg11.dtd">
<!-- Generated by graphviz version 2.36.0 (20140111.2315)
 -->
<!-- Title: BTree&lt; Key_, Value_, KeyOfValue_, Compare_, Traits_, Duplicates_, Alloc_ &gt;::reverse_iterator Pages: 1 -->
<svg width="166pt" height="190pt"
 viewBox="0.00 0.00 166.00 190.00" xmlns="http://www.w3.org/2000/svg" xmlns:xlink="http://www.w3.org/1999/xlink">
<g id="graph0" class="graph" transform="scale(1 1) rotate(0) translate(4 186)">
<title>BTree&lt; Key_, Value_, KeyOfValue_, Compare_, Traits_, Duplicates_, Alloc_ &gt;::reverse_iterator</title>
<!-- Node1 -->
<g id="node1" class="node"><title>Node1</title>
<polygon fill="#bfbfbf" stroke="black" points="-0.5,-1 -0.5,-53 136.5,-53 136.5,-1 -0.5,-1"/>
<text text-anchor="start" x="7.5" y="-41" font-family="Helvetica,sans-Serif" font-size="10.00">BTree&lt; Key_, Value</text>
<text text-anchor="start" x="7.5" y="-30" font-family="Helvetica,sans-Serif" font-size="10.00">_, KeyOfValue_, Compare</text>
<text text-anchor="start" x="7.5" y="-19" font-family="Helvetica,sans-Serif" font-size="10.00">_, Traits_, Duplicates</text>
<text text-anchor="middle" x="68" y="-8" font-family="Helvetica,sans-Serif" font-size="10.00">_, Alloc_ &gt;::reverse_iterator</text>
</g>
<!-- Node2 -->
<g id="node2" class="node"><title>Node2</title>
<g id="a_node2"><a xlink:href="structtlx_1_1BTree_1_1LeafNode.html" target="_top" xlink:title="LeafNode">
<polygon fill="none" stroke="black" points="38.5,-103.5 38.5,-122.5 97.5,-122.5 97.5,-103.5 38.5,-103.5"/>
<text text-anchor="middle" x="68" y="-110.5" font-family="Helvetica,sans-Serif" font-size="10.00">LeafNode</text>
</a>
</g>
</g>
<!-- Node2&#45;&gt;Node1 -->
<g id="edge1" class="edge"><title>Node2&#45;&gt;Node1</title>
<path fill="none" stroke="#9a32cd" stroke-dasharray="5,2" d="M68,-93.2945C68,-81.47 68,-66.0427 68,-53.153"/>
<polygon fill="#9a32cd" stroke="#9a32cd" points="64.5001,-93.3269 68,-103.327 71.5001,-93.3269 64.5001,-93.3269"/>
<text text-anchor="middle" x="88.5" y="-75.5" font-family="Helvetica,sans-Serif" font-size="10.00"> curr_leaf</text>
</g>
<!-- Node2&#45;&gt;Node2 -->
<g id="edge3" class="edge"><title>Node2&#45;&gt;Node2</title>
<path fill="none" stroke="#9a32cd" stroke-dasharray="5,2" d="M107.812,-117.724C112.181,-116.824 115,-115.249 115,-113 115,-109.309 107.41,-107.434 97.8325,-107.376"/>
<polygon fill="#9a32cd" stroke="#9a32cd" points="107.478,-114.24 97.8325,-118.624 108.106,-121.212 107.478,-114.24"/>
<text text-anchor="middle" x="136.5" y="-116" font-family="Helvetica,sans-Serif" font-size="10.00"> prev_leaf</text>
<text text-anchor="middle" x="136.5" y="-105" font-family="Helvetica,sans-Serif" font-size="10.00">next_leaf</text>
</g>
<!-- Node3 -->
<g id="node3" class="node"><title>Node3</title>
<g id="a_node3"><a xlink:href="structtlx_1_1BTree_1_1node.html" target="_top" xlink:title="node">
<polygon fill="none" stroke="black" points="49,-162.5 49,-181.5 87,-181.5 87,-162.5 49,-162.5"/>
<text text-anchor="middle" x="68" y="-169.5" font-family="Helvetica,sans-Serif" font-size="10.00">node</text>
</a>
</g>
</g>
<!-- Node3&#45;&gt;Node2 -->
<g id="edge2" class="edge"><title>Node3&#45;&gt;Node2</title>
<path fill="none" stroke="midnightblue" d="M68,-151.933C68,-142.024 68,-130.401 68,-122.657"/>
<polygon fill="midnightblue" stroke="midnightblue" points="64.5001,-152.094 68,-162.094 71.5001,-152.094 64.5001,-152.094"/>
</g>
</g>
</svg>
