<?xml version="1.0" encoding="UTF-8" standalone="no"?>
<!DOCTYPE svg PUBLIC "-//W3C//DTD SVG 1.1//EN"
 "http://www.w3.org/Graphics/SVG/1.1/DTD/svg11.dtd">
<!-- Generated by graphviz version 2.36.0 (20140111.2315)
 -->
<!-- Title: Singleton&lt; Instance, destroy_on_exit &gt; Pages: 1 -->
<svg width="506pt" height="180pt"
 viewBox="0.00 0.00 506.00 180.00" xmlns="http://www.w3.org/2000/svg" xmlns:xlink="http://www.w3.org/1999/xlink">
<g id="graph0" class="graph" transform="scale(1 1) rotate(0) translate(4 176)">
<title>Singleton&lt; Instance, destroy_on_exit &gt;</title>
<!-- Node1 -->
<g id="node1" class="node"><title>Node1</title>
<polygon fill="#bfbfbf" stroke="black" points="0.5,-71 0.5,-101 107.5,-101 107.5,-71 0.5,-71"/>
<text text-anchor="start" x="8.5" y="-89" font-family="Helvetica,sans-Serif" font-size="10.00">Singleton&lt; Instance,</text>
<text text-anchor="middle" x="54" y="-78" font-family="Helvetica,sans-Serif" font-size="10.00"> destroy_on_exit &gt;</text>
</g>
<!-- Node2 -->
<g id="node2" class="node"><title>Node2</title>
<g id="a_node2"><a xlink:href="classthrill_1_1io_1_1BlockManager.html" target="_top" xlink:title="BlockManager\&lt; BlockManager \&gt;">
<polygon fill="none" stroke="black" points="228.5,-152.5 228.5,-171.5 387.5,-171.5 387.5,-152.5 228.5,-152.5"/>
<text text-anchor="middle" x="308" y="-159.5" font-family="Helvetica,sans-Serif" font-size="10.00">BlockManager&lt; BlockManager &gt;</text>
</a>
</g>
</g>
<!-- Node1&#45;&gt;Node2 -->
<g id="edge1" class="edge"><title>Node1&#45;&gt;Node2</title>
<path fill="none" stroke="midnightblue" d="M86.196,-106.404C98.228,-113.505 112.362,-120.949 126,-126 159.65,-138.463 198.501,-146.911 231.561,-152.472"/>
<polygon fill="midnightblue" stroke="midnightblue" points="87.8108,-103.289 77.4477,-101.086 84.1747,-109.271 87.8108,-103.289"/>
</g>
<!-- Node3 -->
<g id="node3" class="node"><title>Node3</title>
<g id="a_node3"><a xlink:href="classthrill_1_1common_1_1Singleton.html" target="_top" xlink:title="Singleton\&lt; Config \&gt;">
<polygon fill="none" stroke="black" points="256,-114.5 256,-133.5 360,-133.5 360,-114.5 256,-114.5"/>
<text text-anchor="middle" x="308" y="-121.5" font-family="Helvetica,sans-Serif" font-size="10.00">Singleton&lt; Config &gt;</text>
</a>
</g>
</g>
<!-- Node1&#45;&gt;Node3 -->
<g id="edge2" class="edge"><title>Node1&#45;&gt;Node3</title>
<path fill="none" stroke="orange" stroke-dasharray="5,2" d="M117.777,-98.5984C120.553,-99.0861 123.304,-99.5559 126,-100 169.632,-107.187 219.458,-113.668 255.771,-118.078"/>
<polygon fill="orange" stroke="orange" points="118.127,-95.1049 107.663,-96.7668 116.879,-101.993 118.127,-95.1049"/>
<text text-anchor="middle" x="168" y="-114" font-family="Helvetica,sans-Serif" font-size="10.00"> &lt; Config &gt;</text>
</g>
<!-- Node5 -->
<g id="node5" class="node"><title>Node5</title>
<g id="a_node5"><a xlink:href="classthrill_1_1common_1_1Singleton.html" target="_top" xlink:title="Singleton\&lt; Stats \&gt;">
<polygon fill="none" stroke="black" points="259,-76.5 259,-95.5 357,-95.5 357,-76.5 259,-76.5"/>
<text text-anchor="middle" x="308" y="-83.5" font-family="Helvetica,sans-Serif" font-size="10.00">Singleton&lt; Stats &gt;</text>
</a>
</g>
</g>
<!-- Node1&#45;&gt;Node5 -->
<g id="edge4" class="edge"><title>Node1&#45;&gt;Node5</title>
<path fill="none" stroke="orange" stroke-dasharray="5,2" d="M117.741,-86C161.397,-86 218.734,-86 258.812,-86"/>
<polygon fill="orange" stroke="orange" points="117.521,-82.5001 107.521,-86 117.521,-89.5001 117.521,-82.5001"/>
<text text-anchor="middle" x="168" y="-89" font-family="Helvetica,sans-Serif" font-size="10.00"> &lt; Stats &gt;</text>
</g>
<!-- Node7 -->
<g id="node7" class="node"><title>Node7</title>
<g id="a_node7"><a xlink:href="classthrill_1_1common_1_1Singleton.html" target="_top" xlink:title="Singleton\&lt; BlockManager \&gt;">
<polygon fill="none" stroke="black" points="239.5,-38.5 239.5,-57.5 376.5,-57.5 376.5,-38.5 239.5,-38.5"/>
<text text-anchor="middle" x="308" y="-45.5" font-family="Helvetica,sans-Serif" font-size="10.00">Singleton&lt; BlockManager &gt;</text>
</a>
</g>
</g>
<!-- Node1&#45;&gt;Node7 -->
<g id="edge6" class="edge"><title>Node1&#45;&gt;Node7</title>
<path fill="none" stroke="orange" stroke-dasharray="5,2" d="M117.475,-72.5054C120.353,-71.977 123.205,-71.472 126,-71 163.325,-64.6967 205.243,-59.2664 239.333,-55.2676"/>
<polygon fill="orange" stroke="orange" points="116.807,-69.0695 107.639,-74.3786 118.117,-75.946 116.807,-69.0695"/>
<text text-anchor="middle" x="168" y="-74" font-family="Helvetica,sans-Serif" font-size="10.00"> &lt; BlockManager &gt;</text>
</g>
<!-- Node8 -->
<g id="node8" class="node"><title>Node8</title>
<g id="a_node8"><a xlink:href="classthrill_1_1common_1_1Singleton.html" target="_top" xlink:title="Singleton\&lt; DiskQueues \&gt;">
<polygon fill="none" stroke="black" points="243.5,-0.5 243.5,-19.5 372.5,-19.5 372.5,-0.5 243.5,-0.5"/>
<text text-anchor="middle" x="308" y="-7.5" font-family="Helvetica,sans-Serif" font-size="10.00">Singleton&lt; DiskQueues &gt;</text>
</a>
</g>
</g>
<!-- Node1&#45;&gt;Node8 -->
<g id="edge7" class="edge"><title>Node1&#45;&gt;Node8</title>
<path fill="none" stroke="orange" stroke-dasharray="5,2" d="M84.5742,-65.3687C96.8948,-57.6237 111.655,-49.3985 126,-44 163.555,-29.8671 207.788,-21.4198 243.126,-16.4802"/>
<polygon fill="orange" stroke="orange" points="82.5637,-62.5008 76.0748,-70.876 86.3703,-68.3754 82.5637,-62.5008"/>
<text text-anchor="middle" x="168" y="-47" font-family="Helvetica,sans-Serif" font-size="10.00"> &lt; DiskQueues &gt;</text>
</g>
<!-- Node4 -->
<g id="node4" class="node"><title>Node4</title>
<g id="a_node4"><a xlink:href="classthrill_1_1io_1_1Config.html" target="_top" xlink:title="Config">
<polygon fill="none" stroke="black" points="439.5,-114.5 439.5,-133.5 484.5,-133.5 484.5,-114.5 439.5,-114.5"/>
<text text-anchor="middle" x="462" y="-121.5" font-family="Helvetica,sans-Serif" font-size="10.00">Config</text>
</a>
</g>
</g>
<!-- Node3&#45;&gt;Node4 -->
<g id="edge3" class="edge"><title>Node3&#45;&gt;Node4</title>
<path fill="none" stroke="midnightblue" d="M370.317,-124C394.674,-124 421.124,-124 439.136,-124"/>
<polygon fill="midnightblue" stroke="midnightblue" points="370.037,-120.5 360.037,-124 370.037,-127.5 370.037,-120.5"/>
</g>
<!-- Node6 -->
<g id="node6" class="node"><title>Node6</title>
<g id="a_node6"><a xlink:href="classthrill_1_1io_1_1Stats.html" target="_top" xlink:title="Collects various I/O statistics. ">
<polygon fill="none" stroke="black" points="442,-76.5 442,-95.5 482,-95.5 482,-76.5 442,-76.5"/>
<text text-anchor="middle" x="462" y="-83.5" font-family="Helvetica,sans-Serif" font-size="10.00">Stats</text>
</a>
</g>
</g>
<!-- Node5&#45;&gt;Node6 -->
<g id="edge5" class="edge"><title>Node5&#45;&gt;Node6</title>
<path fill="none" stroke="midnightblue" d="M367.406,-86C393.78,-86 423.144,-86 441.826,-86"/>
<polygon fill="midnightblue" stroke="midnightblue" points="367.094,-82.5001 357.094,-86 367.094,-89.5001 367.094,-82.5001"/>
</g>
<!-- Node9 -->
<g id="node9" class="node"><title>Node9</title>
<g id="a_node9"><a xlink:href="classthrill_1_1io_1_1DiskQueues.html" target="_top" xlink:title="DiskQueues">
<polygon fill="none" stroke="black" points="426.5,-0.5 426.5,-19.5 497.5,-19.5 497.5,-0.5 426.5,-0.5"/>
<text text-anchor="middle" x="462" y="-7.5" font-family="Helvetica,sans-Serif" font-size="10.00">DiskQueues</text>
</a>
</g>
</g>
<!-- Node8&#45;&gt;Node9 -->
<g id="edge8" class="edge"><title>Node8&#45;&gt;Node9</title>
<path fill="none" stroke="midnightblue" d="M382.998,-10C398.113,-10 413.333,-10 426.265,-10"/>
<polygon fill="midnightblue" stroke="midnightblue" points="382.581,-6.5001 372.581,-10 382.581,-13.5001 382.581,-6.5001"/>
</g>
</g>
</svg>
