<?xml version="1.0" encoding="UTF-8" standalone="no"?>
<!DOCTYPE svg PUBLIC "-//W3C//DTD SVG 1.1//EN"
 "http://www.w3.org/Graphics/SVG/1.1/DTD/svg11.dtd">
<!-- Generated by graphviz version 2.40.1 (20161225.0304)
 -->
<!-- Title: SourceNode&lt; ValueType &gt; Pages: 1 -->
<svg width="975pt" height="218pt"
 viewBox="0.00 0.00 975.00 218.00" xmlns="http://www.w3.org/2000/svg" xmlns:xlink="http://www.w3.org/1999/xlink">
<g id="graph0" class="graph" transform="scale(1 1) rotate(0) translate(4 214)">
<title>SourceNode&lt; ValueType &gt;</title>
<!-- Node0 -->
<g id="node1" class="node">
<title>Node0</title>
<polygon fill="#bfbfbf" stroke="#000000" points="404,-95.5 404,-114.5 551,-114.5 551,-95.5 404,-95.5"/>
<text text-anchor="middle" x="477.5" y="-102.5" font-family="Helvetica,sans-Serif" font-size="10.00" fill="#000000">SourceNode&lt; ValueType &gt;</text>
</g>
<!-- Node4 -->
<g id="node5" class="node">
<title>Node4</title>
<g id="a_node5"><a xlink:href="classthrill_1_1api_1_1ConcatToDIANode.html" target="_top" xlink:title="ConcatToDIANode\&lt; ValueType \&gt;">
<polygon fill="none" stroke="#000000" points="662,-190.5 662,-209.5 838,-209.5 838,-190.5 662,-190.5"/>
<text text-anchor="middle" x="750" y="-197.5" font-family="Helvetica,sans-Serif" font-size="10.00" fill="#000000">ConcatToDIANode&lt; ValueType &gt;</text>
</a>
</g>
</g>
<!-- Node0&#45;&gt;Node4 -->
<g id="edge4" class="edge">
<title>Node0&#45;&gt;Node4</title>
<path fill="none" stroke="#191970" d="M505.8337,-119.1973C523.7468,-127.9521 547.4962,-139.157 569,-148 609.5625,-164.6804 619.8113,-169.0139 662,-181 674.3286,-184.5026 687.7879,-187.7108 700.3888,-190.4537"/>
<polygon fill="#191970" stroke="#191970" points="507.0511,-115.8954 496.5338,-114.6162 503.9578,-122.1749 507.0511,-115.8954"/>
</g>
<!-- Node5 -->
<g id="node6" class="node">
<title>Node5</title>
<g id="a_node6"><a xlink:href="classthrill_1_1api_1_1DistributeNode.html" target="_top" xlink:title="DistributeNode\&lt; ValueType \&gt;">
<polygon fill="none" stroke="#000000" points="669,-152.5 669,-171.5 831,-171.5 831,-152.5 669,-152.5"/>
<text text-anchor="middle" x="750" y="-159.5" font-family="Helvetica,sans-Serif" font-size="10.00" fill="#000000">DistributeNode&lt; ValueType &gt;</text>
</a>
</g>
</g>
<!-- Node0&#45;&gt;Node5 -->
<g id="edge5" class="edge">
<title>Node0&#45;&gt;Node5</title>
<path fill="none" stroke="#191970" d="M525.599,-116.994C539.5676,-120.3607 554.8665,-123.936 569,-127 612.0088,-136.3238 661.0328,-145.7289 697.2029,-152.4381"/>
<polygon fill="#191970" stroke="#191970" points="526.242,-113.5484 515.6984,-114.5896 524.59,-120.3507 526.242,-113.5484"/>
</g>
<!-- Node6 -->
<g id="node7" class="node">
<title>Node6</title>
<g id="a_node7"><a xlink:href="classthrill_1_1api_1_1EqualToDIANode.html" target="_top" xlink:title="EqualToDIANode\&lt; ValueType \&gt;">
<polygon fill="none" stroke="#000000" points="665.5,-114.5 665.5,-133.5 834.5,-133.5 834.5,-114.5 665.5,-114.5"/>
<text text-anchor="middle" x="750" y="-121.5" font-family="Helvetica,sans-Serif" font-size="10.00" fill="#000000">EqualToDIANode&lt; ValueType &gt;</text>
</a>
</g>
</g>
<!-- Node0&#45;&gt;Node6 -->
<g id="edge6" class="edge">
<title>Node0&#45;&gt;Node6</title>
<path fill="none" stroke="#191970" d="M561.3045,-110.8432C594.2605,-113.1411 632.0476,-115.7758 665.1085,-118.081"/>
<polygon fill="#191970" stroke="#191970" points="561.4617,-107.3458 551.2424,-110.1417 560.9747,-114.3288 561.4617,-107.3458"/>
</g>
<!-- Node7 -->
<g id="node8" class="node">
<title>Node7</title>
<g id="a_node8"><a xlink:href="classthrill_1_1api_1_1GenerateNode.html" target="_top" xlink:title="A DIANode which performs a Generate operation. ">
<polygon fill="none" stroke="#000000" points="670.5,-76.5 670.5,-95.5 829.5,-95.5 829.5,-76.5 670.5,-76.5"/>
<text text-anchor="middle" x="750" y="-83.5" font-family="Helvetica,sans-Serif" font-size="10.00" fill="#000000">GenerateNode&lt; ValueType &gt;</text>
</a>
</g>
</g>
<!-- Node0&#45;&gt;Node7 -->
<g id="edge7" class="edge">
<title>Node0&#45;&gt;Node7</title>
<path fill="none" stroke="#191970" d="M561.3618,-99.1528C596.0985,-96.7307 636.1942,-93.9351 670.4635,-91.5457"/>
<polygon fill="#191970" stroke="#191970" points="560.9747,-95.6712 551.2424,-99.8583 561.4617,-102.6542 560.9747,-95.6712"/>
</g>
<!-- Node8 -->
<g id="node9" class="node">
<title>Node8</title>
<g id="a_node9"><a xlink:href="classthrill_1_1api_1_1ReadBinaryNode.html" target="_top" xlink:title="A DIANode which performs a line&#45;based Read operation. ">
<polygon fill="none" stroke="#000000" points="665,-38.5 665,-57.5 835,-57.5 835,-38.5 665,-38.5"/>
<text text-anchor="middle" x="750" y="-45.5" font-family="Helvetica,sans-Serif" font-size="10.00" fill="#000000">ReadBinaryNode&lt; ValueType &gt;</text>
</a>
</g>
</g>
<!-- Node0&#45;&gt;Node8 -->
<g id="edge8" class="edge">
<title>Node0&#45;&gt;Node8</title>
<path fill="none" stroke="#191970" d="M533.1965,-93.3497C583.66,-82.7941 657.1254,-67.427 704.2408,-57.5716"/>
<polygon fill="#191970" stroke="#191970" points="532.1819,-89.9861 523.1104,-95.4595 533.6152,-96.8378 532.1819,-89.9861"/>
</g>
<!-- Node9 -->
<g id="node10" class="node">
<title>Node9</title>
<g id="a_node10"><a xlink:href="classthrill_1_1api_1_1SourceNode.html" target="_top" xlink:title="SourceNode\&lt; std::string \&gt;">
<polygon fill="none" stroke="#000000" points="677,-.5 677,-19.5 823,-19.5 823,-.5 677,-.5"/>
<text text-anchor="middle" x="750" y="-7.5" font-family="Helvetica,sans-Serif" font-size="10.00" fill="#000000">SourceNode&lt; std::string &gt;</text>
</a>
</g>
</g>
<!-- Node0&#45;&gt;Node9 -->
<g id="edge9" class="edge">
<title>Node0&#45;&gt;Node9</title>
<path fill="none" stroke="#ffa500" stroke-dasharray="5,2" d="M502.3184,-90.3261C520.3826,-80.0594 545.6665,-66.531 569,-57 608.9609,-40.6773 620.2032,-39.7858 662,-29 675.0153,-25.6414 689.2171,-22.3951 702.3394,-19.5647"/>
<polygon fill="#ffa500" stroke="#ffa500" points="500.4977,-87.3356 493.5786,-95.3591 503.9911,-93.4017 500.4977,-87.3356"/>
<text text-anchor="middle" x="606.5" y="-60" font-family="Helvetica,sans-Serif" font-size="10.00" fill="#000000"> &lt; std::string &gt;</text>
</g>
<!-- Node1 -->
<g id="node2" class="node">
<title>Node1</title>
<g id="a_node2"><a xlink:href="classthrill_1_1api_1_1DIANode.html" target="_top" xlink:title="A DIANode is a typed node representing and operation in Thrill. ">
<polygon fill="none" stroke="#000000" points="236,-95.5 236,-114.5 367,-114.5 367,-95.5 236,-95.5"/>
<text text-anchor="middle" x="301.5" y="-102.5" font-family="Helvetica,sans-Serif" font-size="10.00" fill="#000000">DIANode&lt; ValueType &gt;</text>
</a>
</g>
</g>
<!-- Node1&#45;&gt;Node0 -->
<g id="edge1" class="edge">
<title>Node1&#45;&gt;Node0</title>
<path fill="none" stroke="#191970" d="M377.2991,-105C386.1259,-105 395.1196,-105 403.9157,-105"/>
<polygon fill="#191970" stroke="#191970" points="377.0359,-101.5001 367.0359,-105 377.0359,-108.5001 377.0359,-101.5001"/>
</g>
<!-- Node2 -->
<g id="node3" class="node">
<title>Node2</title>
<g id="a_node3"><a xlink:href="classthrill_1_1api_1_1DIABase.html" target="_top" xlink:title="The DIABase is the untyped super class of DIANode. ">
<polygon fill="none" stroke="#000000" points="141,-95.5 141,-114.5 199,-114.5 199,-95.5 141,-95.5"/>
<text text-anchor="middle" x="170" y="-102.5" font-family="Helvetica,sans-Serif" font-size="10.00" fill="#000000">DIABase</text>
</a>
</g>
</g>
<!-- Node2&#45;&gt;Node1 -->
<g id="edge2" class="edge">
<title>Node2&#45;&gt;Node1</title>
<path fill="none" stroke="#191970" d="M209.3562,-105C217.7156,-105 226.7575,-105 235.7982,-105"/>
<polygon fill="#191970" stroke="#191970" points="209.1841,-101.5001 199.1841,-105 209.1841,-108.5001 209.1841,-101.5001"/>
</g>
<!-- Node3 -->
<g id="node4" class="node">
<title>Node3</title>
<g id="a_node4"><a xlink:href="classtlx_1_1ReferenceCounter.html" target="_top" xlink:title="Provides reference counting abilities for use with CountingPtr. ">
<polygon fill="none" stroke="#000000" points="0,-95.5 0,-114.5 104,-114.5 104,-95.5 0,-95.5"/>
<text text-anchor="middle" x="52" y="-102.5" font-family="Helvetica,sans-Serif" font-size="10.00" fill="#000000">ReferenceCounter</text>
</a>
</g>
</g>
<!-- Node3&#45;&gt;Node2 -->
<g id="edge3" class="edge">
<title>Node3&#45;&gt;Node2</title>
<path fill="none" stroke="#191970" d="M114.1827,-105C123.4768,-105 132.6653,-105 140.822,-105"/>
<polygon fill="#191970" stroke="#191970" points="114.1,-101.5001 104.1,-105 114.1,-108.5001 114.1,-101.5001"/>
</g>
<!-- Node10 -->
<g id="node11" class="node">
<title>Node10</title>
<g id="a_node11"><a xlink:href="classthrill_1_1api_1_1ReadLinesNode.html" target="_top" xlink:title="A DIANode which performs a line&#45;based Read operation. ">
<polygon fill="none" stroke="#000000" points="875,-.5 875,-19.5 967,-19.5 967,-.5 875,-.5"/>
<text text-anchor="middle" x="921" y="-7.5" font-family="Helvetica,sans-Serif" font-size="10.00" fill="#000000">ReadLinesNode</text>
</a>
</g>
</g>
<!-- Node9&#45;&gt;Node10 -->
<g id="edge10" class="edge">
<title>Node9&#45;&gt;Node10</title>
<path fill="none" stroke="#191970" d="M833.3938,-10C847.6974,-10 862.0796,-10 874.9379,-10"/>
<polygon fill="#191970" stroke="#191970" points="833.0154,-6.5001 823.0154,-10 833.0154,-13.5001 833.0154,-6.5001"/>
</g>
</g>
</svg>
