<?xml version="1.0" encoding="UTF-8" standalone="no"?>
<!DOCTYPE svg PUBLIC "-//W3C//DTD SVG 1.1//EN"
 "http://www.w3.org/Graphics/SVG/1.1/DTD/svg11.dtd">
<!-- Generated by graphviz version 2.36.0 (20140111.2315)
 -->
<!-- Title: PS5SmallsortJob&lt; Context, StringPtr, BktSizeType &gt; Pages: 1 -->
<svg width="439pt" height="188pt"
 viewBox="0.00 0.00 439.00 188.00" xmlns="http://www.w3.org/2000/svg" xmlns:xlink="http://www.w3.org/1999/xlink">
<g id="graph0" class="graph" transform="scale(1 1) rotate(0) translate(4 184)">
<title>PS5SmallsortJob&lt; Context, StringPtr, BktSizeType &gt;</title>
<!-- Node1 -->
<g id="node1" class="node"><title>Node1</title>
<polygon fill="#bfbfbf" stroke="black" points="83.5,-1 83.5,-31 222.5,-31 222.5,-1 83.5,-1"/>
<text text-anchor="start" x="91.5" y="-19" font-family="Helvetica,sans-Serif" font-size="10.00">PS5SmallsortJob&lt; Context,</text>
<text text-anchor="middle" x="153" y="-8" font-family="Helvetica,sans-Serif" font-size="10.00"> StringPtr, BktSizeType &gt;</text>
</g>
<!-- Node2 -->
<g id="node2" class="node"><title>Node2</title>
<g id="a_node2"><a xlink:href="classtlx_1_1sort__strings__detail_1_1PS5SortStep.html" target="_top" xlink:title="PS5SortStep Top&#45;Level Class to Keep Track of Substeps. ">
<polygon fill="none" stroke="black" points="0,-80.5 0,-99.5 74,-99.5 74,-80.5 0,-80.5"/>
<text text-anchor="middle" x="37" y="-87.5" font-family="Helvetica,sans-Serif" font-size="10.00">PS5SortStep</text>
</a>
</g>
</g>
<!-- Node2&#45;&gt;Node1 -->
<g id="edge1" class="edge"><title>Node2&#45;&gt;Node1</title>
<path fill="none" stroke="midnightblue" d="M45.2223,-71.0772C49.3625,-63.7008 55.0031,-55.5927 62,-50 71.9766,-42.0255 84.0499,-35.8775 96.0957,-31.1742"/>
<polygon fill="midnightblue" stroke="midnightblue" points="41.9088,-69.8737 40.5202,-80.3772 48.1558,-73.0322 41.9088,-69.8737"/>
</g>
<!-- Node2&#45;&gt;Node1 -->
<g id="edge4" class="edge"><title>Node2&#45;&gt;Node1</title>
<path fill="none" stroke="#9a32cd" stroke-dasharray="5,2" d="M59.3645,-75.1186C79.6959,-62.4991 109.566,-43.9591 130.071,-31.2316"/>
<polygon fill="#9a32cd" stroke="#9a32cd" points="57.4129,-72.2105 50.7622,-80.4579 61.1045,-78.158 57.4129,-72.2105"/>
<text text-anchor="middle" x="115.5" y="-53.5" font-family="Helvetica,sans-Serif" font-size="10.00"> pstep_</text>
</g>
<!-- Node3 -->
<g id="node3" class="node"><title>Node3</title>
<g id="a_node3"><a xlink:href="classtlx_1_1SimpleVector.html" target="_top" xlink:title="SimpleVector\&lt; uint8_t \&gt;">
<polygon fill="none" stroke="black" points="92,-80.5 92,-99.5 214,-99.5 214,-80.5 92,-80.5"/>
<text text-anchor="middle" x="153" y="-87.5" font-family="Helvetica,sans-Serif" font-size="10.00">SimpleVector&lt; uint8_t &gt;</text>
</a>
</g>
</g>
<!-- Node3&#45;&gt;Node1 -->
<g id="edge2" class="edge"><title>Node3&#45;&gt;Node1</title>
<path fill="none" stroke="#9a32cd" stroke-dasharray="5,2" d="M153,-70.0846C153,-57.9148 153,-42.3538 153,-31.2316"/>
<polygon fill="#9a32cd" stroke="#9a32cd" points="149.5,-70.4579 153,-80.4579 156.5,-70.4579 149.5,-70.4579"/>
<text text-anchor="middle" x="177.5" y="-53.5" font-family="Helvetica,sans-Serif" font-size="10.00"> bktcache_</text>
</g>
<!-- Node4 -->
<g id="node4" class="node"><title>Node4</title>
<g id="a_node4"><a xlink:href="classtlx_1_1SimpleVector.html" target="_top" xlink:title="Simpler non&#45;growing vector without initialization. ">
<polygon fill="none" stroke="black" points="86,-149 86,-179 220,-179 220,-149 86,-149"/>
<text text-anchor="start" x="94" y="-167" font-family="Helvetica,sans-Serif" font-size="10.00">SimpleVector&lt; ValueType,</text>
<text text-anchor="middle" x="153" y="-156" font-family="Helvetica,sans-Serif" font-size="10.00"> Mode &gt;</text>
</a>
</g>
</g>
<!-- Node4&#45;&gt;Node3 -->
<g id="edge3" class="edge"><title>Node4&#45;&gt;Node3</title>
<path fill="none" stroke="orange" stroke-dasharray="5,2" d="M153,-138.688C153,-125.253 153,-109.38 153,-99.7589"/>
<polygon fill="orange" stroke="orange" points="149.5,-138.775 153,-148.775 156.5,-138.775 149.5,-138.775"/>
<text text-anchor="middle" x="178.5" y="-121.5" font-family="Helvetica,sans-Serif" font-size="10.00"> &lt; uint8_t &gt;</text>
</g>
<!-- Node5 -->
<g id="node5" class="node"><title>Node5</title>
<g id="a_node5"><a xlink:href="classtlx_1_1MultiTimer.html" target="_top" xlink:title="MultiTimer can be used to measure time usage of different phases in a program or algorithm. ">
<polygon fill="none" stroke="black" points="232,-80.5 232,-99.5 294,-99.5 294,-80.5 232,-80.5"/>
<text text-anchor="middle" x="263" y="-87.5" font-family="Helvetica,sans-Serif" font-size="10.00">MultiTimer</text>
</a>
</g>
</g>
<!-- Node5&#45;&gt;Node1 -->
<g id="edge5" class="edge"><title>Node5&#45;&gt;Node1</title>
<path fill="none" stroke="#9a32cd" stroke-dasharray="5,2" d="M242.532,-74.681C231.74,-67.2114 218.236,-57.9899 206,-50 196.289,-43.6588 185.437,-36.8534 176.094,-31.0797"/>
<polygon fill="#9a32cd" stroke="#9a32cd" points="240.663,-77.6443 250.872,-80.4779 244.658,-71.8964 240.663,-77.6443"/>
<text text-anchor="middle" x="243.5" y="-53.5" font-family="Helvetica,sans-Serif" font-size="10.00"> mtimer_</text>
</g>
<!-- Node6 -->
<g id="node6" class="node"><title>Node6</title>
<g id="a_node6"><a xlink:href="classtlx_1_1sort__strings__detail_1_1StringPtr.html" target="_top" xlink:title="Objectified string array pointer array. ">
<polygon fill="none" stroke="black" points="312.5,-80.5 312.5,-99.5 431.5,-99.5 431.5,-80.5 312.5,-80.5"/>
<text text-anchor="middle" x="372" y="-87.5" font-family="Helvetica,sans-Serif" font-size="10.00">StringPtr&lt; StringSet_ &gt;</text>
</a>
</g>
</g>
<!-- Node6&#45;&gt;Node1 -->
<g id="edge6" class="edge"><title>Node6&#45;&gt;Node1</title>
<path fill="none" stroke="#9a32cd" stroke-dasharray="5,2" d="M340.87,-76.7495C320.089,-68.7418 292.074,-58.2733 267,-50 246.749,-43.318 224.238,-36.645 204.606,-31.0659"/>
<polygon fill="#9a32cd" stroke="#9a32cd" points="339.858,-80.1106 350.447,-80.4624 342.388,-73.584 339.858,-80.1106"/>
<text text-anchor="middle" x="314.5" y="-53.5" font-family="Helvetica,sans-Serif" font-size="10.00"> strptr_</text>
</g>
</g>
</svg>
