<?xml version="1.0" encoding="UTF-8" standalone="no"?>
<!DOCTYPE svg PUBLIC "-//W3C//DTD SVG 1.1//EN"
 "http://www.w3.org/Graphics/SVG/1.1/DTD/svg11.dtd">
<!-- Generated by graphviz version 2.40.1 (20161225.0304)
 -->
<!-- Title: request_with_state Pages: 1 -->
<svg width="421pt" height="329pt"
 viewBox="0.00 0.00 421.00 329.00" xmlns="http://www.w3.org/2000/svg" xmlns:xlink="http://www.w3.org/1999/xlink">
<g id="graph0" class="graph" transform="scale(1 1) rotate(0) translate(4 325)">
<title>request_with_state</title>
<!-- Node6 -->
<g id="node1" class="node">
<title>Node6</title>
<polygon fill="#bfbfbf" stroke="#000000" points="165,-.5 165,-19.5 275,-19.5 275,-.5 165,-.5"/>
<text text-anchor="middle" x="220" y="-7.5" font-family="Helvetica,sans-Serif" font-size="10.00" fill="#000000">request_with_state</text>
</g>
<!-- Node7 -->
<g id="node2" class="node">
<title>Node7</title>
<g id="a_node2"><a xlink:href="classfoxxll_1_1request__with__waiters.html" target="_top" xlink:title="Request that is aware of threads waiting for it to complete. ">
<polygon fill="none" stroke="#000000" points="88.5,-73 88.5,-92 209.5,-92 209.5,-73 88.5,-73"/>
<text text-anchor="middle" x="149" y="-80" font-family="Helvetica,sans-Serif" font-size="10.00" fill="#000000">request_with_waiters</text>
</a>
</g>
</g>
<!-- Node7&#45;&gt;Node6 -->
<g id="edge1" class="edge">
<title>Node7&#45;&gt;Node6</title>
<path fill="none" stroke="#191970" d="M165.6977,-65.4495C179.6862,-51.1655 199.1496,-31.2909 210.5763,-19.6228"/>
<polygon fill="#191970" stroke="#191970" points="163.0716,-63.1288 158.5754,-72.7223 168.0728,-68.0266 163.0716,-63.1288"/>
</g>
<!-- Node8 -->
<g id="node3" class="node">
<title>Node8</title>
<g id="a_node3"><a xlink:href="classfoxxll_1_1request.html" target="_top" xlink:title="Request object encapsulating basic properties like file and offset. ">
<polygon fill="none" stroke="#000000" points="122.5,-145.5 122.5,-164.5 175.5,-164.5 175.5,-145.5 122.5,-145.5"/>
<text text-anchor="middle" x="149" y="-152.5" font-family="Helvetica,sans-Serif" font-size="10.00" fill="#000000">request</text>
</a>
</g>
</g>
<!-- Node8&#45;&gt;Node7 -->
<g id="edge2" class="edge">
<title>Node8&#45;&gt;Node7</title>
<path fill="none" stroke="#191970" d="M149,-135.1054C149,-121.1237 149,-103.0346 149,-92.1228"/>
<polygon fill="#191970" stroke="#191970" points="145.5001,-135.2223 149,-145.2223 152.5001,-135.2224 145.5001,-135.2223"/>
</g>
<!-- Node9 -->
<g id="node4" class="node">
<title>Node9</title>
<g id="a_node4"><a xlink:href="classfoxxll_1_1request__interface.html" target="_top" xlink:title="request_interface">
<polygon fill="none" stroke="#000000" points="0,-218 0,-237 102,-237 102,-218 0,-218"/>
<text text-anchor="middle" x="51" y="-225" font-family="Helvetica,sans-Serif" font-size="10.00" fill="#000000">request_interface</text>
</a>
</g>
</g>
<!-- Node9&#45;&gt;Node8 -->
<g id="edge3" class="edge">
<title>Node9&#45;&gt;Node8</title>
<path fill="none" stroke="#191970" d="M72.4564,-211.6266C91.8545,-197.276 119.7824,-176.615 135.9927,-164.6228"/>
<polygon fill="#191970" stroke="#191970" points="70.1743,-208.9612 64.2167,-217.7223 74.3375,-214.5886 70.1743,-208.9612"/>
</g>
<!-- Node10 -->
<g id="node5" class="node">
<title>Node10</title>
<g id="a_node5"><a xlink:href="classtlx_1_1ReferenceCounter.html" target="_top" xlink:title="Provides reference counting abilities for use with CountingPtr. ">
<polygon fill="none" stroke="#000000" points="60.5,-301.5 60.5,-320.5 165.5,-320.5 165.5,-301.5 60.5,-301.5"/>
<text text-anchor="middle" x="113" y="-308.5" font-family="Helvetica,sans-Serif" font-size="10.00" fill="#000000">reference_counter</text>
</a>
</g>
</g>
<!-- Node10&#45;&gt;Node8 -->
<g id="edge4" class="edge">
<title>Node10&#45;&gt;Node8</title>
<path fill="none" stroke="#191970" d="M117.571,-291.1925C125.3638,-257.4235 140.9413,-189.9208 146.7489,-164.7548"/>
<polygon fill="#191970" stroke="#191970" points="114.0903,-290.7106 115.252,-301.2415 120.911,-292.2846 114.0903,-290.7106"/>
</g>
<!-- Node11 -->
<g id="node6" class="node">
<title>Node11</title>
<g id="a_node6"><a xlink:href="classfoxxll_1_1file.html" target="_top" xlink:title="file">
<polygon fill="none" stroke="#000000" points="158,-218 158,-237 190,-237 190,-218 158,-218"/>
<text text-anchor="middle" x="174" y="-225" font-family="Helvetica,sans-Serif" font-size="10.00" fill="#000000">file</text>
</a>
</g>
</g>
<!-- Node10&#45;&gt;Node11 -->
<g id="edge6" class="edge">
<title>Node10&#45;&gt;Node11</title>
<path fill="none" stroke="#191970" d="M133.1452,-294.6484C136.9914,-291.0339 140.8079,-287.0634 144,-283 155.5025,-268.3576 164.9576,-248.6878 170.0122,-237.1246"/>
<polygon fill="#191970" stroke="#191970" points="130.5817,-292.2427 125.3994,-301.4836 135.2133,-297.4913 130.5817,-292.2427"/>
</g>
<!-- Node11&#45;&gt;Node8 -->
<g id="edge5" class="edge">
<title>Node11&#45;&gt;Node8</title>
<path fill="none" stroke="#9a32cd" stroke-dasharray="5,2" d="M167.2826,-208.0195C162.4423,-193.9826 156.1182,-175.6427 152.3182,-164.6228"/>
<polygon fill="#9a32cd" stroke="#9a32cd" points="164.0596,-209.4096 170.6284,-217.7223 170.6772,-207.1276 164.0596,-209.4096"/>
<text text-anchor="middle" x="175" y="-186" font-family="Helvetica,sans-Serif" font-size="10.00" fill="#000000"> file_</text>
</g>
<!-- Node12 -->
<g id="node7" class="node">
<title>Node12</title>
<g id="a_node7"><a xlink:href="classfoxxll_1_1file__stats.html" target="_top" xlink:title="file_stats">
<polygon fill="none" stroke="#000000" points="183.5,-301.5 183.5,-320.5 244.5,-320.5 244.5,-301.5 183.5,-301.5"/>
<text text-anchor="middle" x="214" y="-308.5" font-family="Helvetica,sans-Serif" font-size="10.00" fill="#000000">file_stats</text>
</a>
</g>
</g>
<!-- Node12&#45;&gt;Node11 -->
<g id="edge7" class="edge">
<title>Node12&#45;&gt;Node11</title>
<path fill="none" stroke="#9a32cd" stroke-dasharray="5,2" d="M205.0813,-292.3823C196.9031,-275.3101 185.1125,-250.6974 178.6582,-237.224"/>
<polygon fill="#9a32cd" stroke="#9a32cd" points="201.9346,-293.915 209.4115,-301.4215 208.2477,-290.8908 201.9346,-293.915"/>
<text text-anchor="middle" x="226.5" y="-269.5" font-family="Helvetica,sans-Serif" font-size="10.00" fill="#000000"> file_stats_</text>
</g>
<!-- Node13 -->
<g id="node8" class="node">
<title>Node13</title>
<g id="a_node8"><a xlink:href="classtlx_1_1Delegate.html" target="_top" xlink:title="Delegate\&lt; void(request\l *r, bool success)\&gt;">
<polygon fill="none" stroke="#000000" points="237,-212.5 237,-242.5 371,-242.5 371,-212.5 237,-212.5"/>
<text text-anchor="start" x="245" y="-230.5" font-family="Helvetica,sans-Serif" font-size="10.00" fill="#000000">Delegate&lt; void(request</text>
<text text-anchor="middle" x="304" y="-219.5" font-family="Helvetica,sans-Serif" font-size="10.00" fill="#000000"> *r, bool success)&gt;</text>
</a>
</g>
</g>
<!-- Node13&#45;&gt;Node8 -->
<g id="edge8" class="edge">
<title>Node13&#45;&gt;Node8</title>
<path fill="none" stroke="#9a32cd" stroke-dasharray="5,2" d="M262.5077,-208.0923C232.5319,-194.0714 193.315,-175.728 169.7005,-164.6825"/>
<polygon fill="#9a32cd" stroke="#9a32cd" points="261.3429,-211.4114 271.8839,-212.478 264.3087,-205.0707 261.3429,-211.4114"/>
<text text-anchor="middle" x="268" y="-186" font-family="Helvetica,sans-Serif" font-size="10.00" fill="#000000"> on_complete_</text>
</g>
<!-- Node14 -->
<g id="node9" class="node">
<title>Node14</title>
<g id="a_node9"><a xlink:href="classtlx_1_1Delegate.html" target="_top" xlink:title="Delegate\&lt; T, Allocator \&gt;">
<polygon fill="none" stroke="#000000" points="262.5,-301.5 262.5,-320.5 401.5,-320.5 401.5,-301.5 262.5,-301.5"/>
<text text-anchor="middle" x="332" y="-308.5" font-family="Helvetica,sans-Serif" font-size="10.00" fill="#000000">Delegate&lt; T, Allocator &gt;</text>
</a>
</g>
</g>
<!-- Node14&#45;&gt;Node13 -->
<g id="edge9" class="edge">
<title>Node14&#45;&gt;Node13</title>
<path fill="none" stroke="#ffa500" stroke-dasharray="5,2" d="M325.5212,-291.6793C320.5117,-276.7402 313.675,-256.3521 309.0625,-242.597"/>
<polygon fill="#ffa500" stroke="#ffa500" points="322.2903,-293.0531 328.788,-301.4215 328.9271,-290.8276 322.2903,-293.0531"/>
<text text-anchor="start" x="322" y="-275" font-family="Helvetica,sans-Serif" font-size="10.00" fill="#000000"> &lt; void(request *r,</text>
<text text-anchor="middle" x="367.5" y="-264" font-family="Helvetica,sans-Serif" font-size="10.00" fill="#000000"> bool success)&gt;</text>
</g>
<!-- Node15 -->
<g id="node10" class="node">
<title>Node15</title>
<g id="a_node10"><a xlink:href="classfoxxll_1_1shared__state.html" target="_top" xlink:title="shared_state\&lt; request\l_state \&gt;">
<polygon fill="none" stroke="#000000" points="228,-67.5 228,-97.5 356,-97.5 356,-67.5 228,-67.5"/>
<text text-anchor="start" x="236" y="-85.5" font-family="Helvetica,sans-Serif" font-size="10.00" fill="#000000">shared_state&lt; request</text>
<text text-anchor="middle" x="292" y="-74.5" font-family="Helvetica,sans-Serif" font-size="10.00" fill="#000000">_state &gt;</text>
</a>
</g>
</g>
<!-- Node15&#45;&gt;Node6 -->
<g id="edge10" class="edge">
<title>Node15&#45;&gt;Node6</title>
<path fill="none" stroke="#9a32cd" stroke-dasharray="5,2" d="M270.0058,-60.3531C256.5946,-46.8487 240.111,-30.2507 229.8274,-19.8957"/>
<polygon fill="#9a32cd" stroke="#9a32cd" points="267.5515,-62.8487 277.0816,-67.478 272.5184,-57.9161 267.5515,-62.8487"/>
<text text-anchor="middle" x="276" y="-41" font-family="Helvetica,sans-Serif" font-size="10.00" fill="#000000"> state_</text>
</g>
<!-- Node16 -->
<g id="node11" class="node">
<title>Node16</title>
<g id="a_node11"><a xlink:href="classfoxxll_1_1shared__state.html" target="_top" xlink:title="shared_state\&lt; ValueType \&gt;">
<polygon fill="none" stroke="#000000" points="216,-145.5 216,-164.5 368,-164.5 368,-145.5 216,-145.5"/>
<text text-anchor="middle" x="292" y="-152.5" font-family="Helvetica,sans-Serif" font-size="10.00" fill="#000000">shared_state&lt; ValueType &gt;</text>
</a>
</g>
</g>
<!-- Node16&#45;&gt;Node15 -->
<g id="edge11" class="edge">
<title>Node16&#45;&gt;Node15</title>
<path fill="none" stroke="#ffa500" stroke-dasharray="5,2" d="M292,-135.0177C292,-123.2164 292,-108.513 292,-97.668"/>
<polygon fill="#ffa500" stroke="#ffa500" points="288.5001,-135.2223 292,-145.2223 295.5001,-135.2224 288.5001,-135.2223"/>
<text text-anchor="middle" x="338.5" y="-119" font-family="Helvetica,sans-Serif" font-size="10.00" fill="#000000"> &lt; request_state &gt;</text>
</g>
</g>
</svg>
