<?xml version="1.0" encoding="UTF-8" standalone="no"?>
<!DOCTYPE svg PUBLIC "-//W3C//DTD SVG 1.1//EN"
 "http://www.w3.org/Graphics/SVG/1.1/DTD/svg11.dtd">
<!-- Generated by graphviz version 2.36.0 (20140111.2315)
 -->
<!-- Title: BlockPool Pages: 1 -->
<svg width="334pt" height="164pt"
 viewBox="0.00 0.00 334.00 164.00" xmlns="http://www.w3.org/2000/svg" xmlns:xlink="http://www.w3.org/1999/xlink">
<g id="graph0" class="graph" transform="scale(1 1) rotate(0) translate(4 160)">
<title>BlockPool</title>
<!-- Node1 -->
<g id="node1" class="node"><title>Node1</title>
<polygon fill="#bfbfbf" stroke="black" points="87.5,-0.5 87.5,-19.5 148.5,-19.5 148.5,-0.5 87.5,-0.5"/>
<text text-anchor="middle" x="118" y="-7.5" font-family="Helvetica,sans-Serif" font-size="10.00">BlockPool</text>
</g>
<!-- Node2 -->
<g id="node2" class="node"><title>Node2</title>
<g id="a_node2"><a xlink:href="classthrill_1_1common_1_1ProfileTask.html" target="_top" xlink:title="ProfileTask">
<polygon fill="none" stroke="black" points="0,-68.5 0,-87.5 66,-87.5 66,-68.5 0,-68.5"/>
<text text-anchor="middle" x="33" y="-75.5" font-family="Helvetica,sans-Serif" font-size="10.00">ProfileTask</text>
</a>
</g>
</g>
<!-- Node2&#45;&gt;Node1 -->
<g id="edge1" class="edge"><title>Node2&#45;&gt;Node1</title>
<path fill="none" stroke="midnightblue" d="M52.1944,-62.0961C69.0591,-49.0012 93.0116,-30.4028 106.885,-19.6305"/>
<polygon fill="midnightblue" stroke="midnightblue" points="49.8643,-59.4742 44.1123,-68.3717 54.1574,-65.0031 49.8643,-59.4742"/>
</g>
<!-- Node3 -->
<g id="node3" class="node"><title>Node3</title>
<g id="a_node3"><a xlink:href="classthrill_1_1common_1_1JsonLogger.html" target="_top" xlink:title="JsonLogger is a receiver of JSON output objects for logging. ">
<polygon fill="none" stroke="black" points="84.5,-68.5 84.5,-87.5 151.5,-87.5 151.5,-68.5 84.5,-68.5"/>
<text text-anchor="middle" x="118" y="-75.5" font-family="Helvetica,sans-Serif" font-size="10.00">JsonLogger</text>
</a>
</g>
</g>
<!-- Node3&#45;&gt;Node1 -->
<g id="edge2" class="edge"><title>Node3&#45;&gt;Node1</title>
<path fill="none" stroke="#9a32cd" stroke-dasharray="5,2" d="M118,-58.0413C118,-45.4724 118,-29.5631 118,-19.8411"/>
<polygon fill="#9a32cd" stroke="#9a32cd" points="114.5,-58.3716 118,-68.3717 121.5,-58.3717 114.5,-58.3716"/>
<text text-anchor="middle" x="135.5" y="-41.5" font-family="Helvetica,sans-Serif" font-size="10.00"> logger_</text>
</g>
<!-- Node3&#45;&gt;Node3 -->
<g id="edge4" class="edge"><title>Node3&#45;&gt;Node3</title>
<path fill="none" stroke="#9a32cd" stroke-dasharray="5,2" d="M161.866,-83.2033C166.226,-82.1624 169,-80.428 169,-78 169,-74.0156 161.529,-71.8989 151.841,-71.6499"/>
<polygon fill="#9a32cd" stroke="#9a32cd" points="161.378,-79.7362 151.841,-84.3501 162.174,-86.6909 161.378,-79.7362"/>
<text text-anchor="middle" x="185.5" y="-75.5" font-family="Helvetica,sans-Serif" font-size="10.00"> super_</text>
</g>
<!-- Node4 -->
<g id="node4" class="node"><title>Node4</title>
<g id="a_node4"><a xlink:href="classthrill_1_1common_1_1JsonVerbatim.html" target="_top" xlink:title="A special class to output verbatim text. ">
<polygon fill="none" stroke="black" points="79.5,-136.5 79.5,-155.5 156.5,-155.5 156.5,-136.5 79.5,-136.5"/>
<text text-anchor="middle" x="118" y="-143.5" font-family="Helvetica,sans-Serif" font-size="10.00">JsonVerbatim</text>
</a>
</g>
</g>
<!-- Node4&#45;&gt;Node3 -->
<g id="edge3" class="edge"><title>Node4&#45;&gt;Node3</title>
<path fill="none" stroke="#9a32cd" stroke-dasharray="5,2" d="M118,-126.041C118,-113.472 118,-97.5631 118,-87.8411"/>
<polygon fill="#9a32cd" stroke="#9a32cd" points="114.5,-126.372 118,-136.372 121.5,-126.372 114.5,-126.372"/>
<text text-anchor="middle" x="141" y="-109.5" font-family="Helvetica,sans-Serif" font-size="10.00"> common_</text>
</g>
<!-- Node5 -->
<g id="node5" class="node"><title>Node5</title>
<g id="a_node5"><a xlink:href="classthrill_1_1mem_1_1Manager.html" target="_top" xlink:title="Object shared by allocators and other classes to track memory allocations. ">
<polygon fill="none" stroke="black" points="221,-68.5 221,-87.5 275,-87.5 275,-68.5 221,-68.5"/>
<text text-anchor="middle" x="248" y="-75.5" font-family="Helvetica,sans-Serif" font-size="10.00">Manager</text>
</a>
</g>
</g>
<!-- Node5&#45;&gt;Node1 -->
<g id="edge5" class="edge"><title>Node5&#45;&gt;Node1</title>
<path fill="none" stroke="#9a32cd" stroke-dasharray="5,2" d="M221.781,-63.6889C195.902,-50.5502 157.094,-30.8475 134.999,-19.6305"/>
<polygon fill="#9a32cd" stroke="#9a32cd" points="220.504,-66.9655 231.005,-68.3717 223.673,-60.7238 220.504,-66.9655"/>
<text text-anchor="middle" x="231.5" y="-41.5" font-family="Helvetica,sans-Serif" font-size="10.00"> mem_manager_</text>
</g>
<!-- Node5&#45;&gt;Node5 -->
<g id="edge6" class="edge"><title>Node5&#45;&gt;Node5</title>
<path fill="none" stroke="#9a32cd" stroke-dasharray="5,2" d="M285.51,-83.4948C290.038,-82.5024 293,-80.6708 293,-78 293,-73.6172 285.024,-71.4943 275.241,-71.6312"/>
<polygon fill="#9a32cd" stroke="#9a32cd" points="284.908,-80.0333 275.241,-84.3688 285.502,-87.0081 284.908,-80.0333"/>
<text text-anchor="middle" x="309.5" y="-75.5" font-family="Helvetica,sans-Serif" font-size="10.00"> super_</text>
</g>
</g>
</svg>
