<?xml version="1.0" encoding="UTF-8" standalone="no"?>
<!DOCTYPE svg PUBLIC "-//W3C//DTD SVG 1.1//EN"
 "http://www.w3.org/Graphics/SVG/1.1/DTD/svg11.dtd">
<!-- Generated by graphviz version 2.36.0 (20140111.2315)
 -->
<!-- Title: add_filler&lt; BaseType, FillSize &gt; Pages: 1 -->
<svg width="122pt" height="176pt"
 viewBox="0.00 0.00 122.00 176.00" xmlns="http://www.w3.org/2000/svg" xmlns:xlink="http://www.w3.org/1999/xlink">
<g id="graph0" class="graph" transform="scale(1 1) rotate(0) translate(4 172)">
<title>add_filler&lt; BaseType, FillSize &gt;</title>
<!-- Node1 -->
<g id="node1" class="node"><title>Node1</title>
<polygon fill="#bfbfbf" stroke="black" points="1,-1 1,-31 113,-31 113,-1 1,-1"/>
<text text-anchor="start" x="9" y="-19" font-family="Helvetica,sans-Serif" font-size="10.00">add_filler&lt; BaseType,</text>
<text text-anchor="middle" x="57" y="-8" font-family="Helvetica,sans-Serif" font-size="10.00"> FillSize &gt;</text>
</g>
<!-- Node2 -->
<g id="node2" class="node"><title>Node2</title>
<g id="a_node2"><a xlink:href="classfoxxll_1_1mng__local_1_1filler__struct.html" target="_top" xlink:title="filler_struct\&lt; FillSize \&gt;">
<polygon fill="none" stroke="black" points="-0.5,-80.5 -0.5,-99.5 114.5,-99.5 114.5,-80.5 -0.5,-80.5"/>
<text text-anchor="middle" x="57" y="-87.5" font-family="Helvetica,sans-Serif" font-size="10.00">filler_struct&lt; FillSize &gt;</text>
</a>
</g>
</g>
<!-- Node2&#45;&gt;Node1 -->
<g id="edge1" class="edge"><title>Node2&#45;&gt;Node1</title>
<path fill="none" stroke="#9a32cd" stroke-dasharray="5,2" d="M57,-70.0846C57,-57.9148 57,-42.3538 57,-31.2316"/>
<polygon fill="#9a32cd" stroke="#9a32cd" points="53.5001,-70.4579 57,-80.4579 60.5001,-70.4579 53.5001,-70.4579"/>
<text text-anchor="middle" x="68" y="-53.5" font-family="Helvetica,sans-Serif" font-size="10.00"> filler</text>
</g>
<!-- Node3 -->
<g id="node3" class="node"><title>Node3</title>
<g id="a_node3"><a xlink:href="classfoxxll_1_1mng__local_1_1filler__struct.html" target="_top" xlink:title="filler_struct\&lt; Bytes \&gt;">
<polygon fill="none" stroke="black" points="3,-148.5 3,-167.5 111,-167.5 111,-148.5 3,-148.5"/>
<text text-anchor="middle" x="57" y="-155.5" font-family="Helvetica,sans-Serif" font-size="10.00">filler_struct&lt; Bytes &gt;</text>
</a>
</g>
</g>
<!-- Node3&#45;&gt;Node2 -->
<g id="edge2" class="edge"><title>Node3&#45;&gt;Node2</title>
<path fill="none" stroke="orange" stroke-dasharray="5,2" d="M57,-138.041C57,-125.472 57,-109.563 57,-99.8411"/>
<polygon fill="orange" stroke="orange" points="53.5001,-138.372 57,-148.372 60.5001,-138.372 53.5001,-138.372"/>
<text text-anchor="middle" x="84" y="-121.5" font-family="Helvetica,sans-Serif" font-size="10.00"> &lt; FillSize &gt;</text>
</g>
</g>
</svg>
