<?xml version="1.0" encoding="UTF-8" standalone="no"?>
<!DOCTYPE svg PUBLIC "-//W3C//DTD SVG 1.1//EN"
 "http://www.w3.org/Graphics/SVG/1.1/DTD/svg11.dtd">
<!-- Generated by graphviz version 2.36.0 (20140111.2315)
 -->
<!-- Title: DisjointWindowNode&lt; ValueType, Input, WindowFunction, PartialWindowFunction &gt; Pages: 1 -->
<svg width="168pt" height="364pt"
 viewBox="0.00 0.00 168.00 364.00" xmlns="http://www.w3.org/2000/svg" xmlns:xlink="http://www.w3.org/1999/xlink">
<g id="graph0" class="graph" transform="scale(1 1) rotate(0) translate(4 360)">
<title>DisjointWindowNode&lt; ValueType, Input, WindowFunction, PartialWindowFunction &gt;</title>
<!-- Node1 -->
<g id="node1" class="node"><title>Node1</title>
<polygon fill="#bfbfbf" stroke="black" points="-0.5,-1 -0.5,-53 160.5,-53 160.5,-1 -0.5,-1"/>
<text text-anchor="start" x="7.5" y="-41" font-family="Helvetica,sans-Serif" font-size="10.00">DisjointWindowNode</text>
<text text-anchor="start" x="7.5" y="-30" font-family="Helvetica,sans-Serif" font-size="10.00">&lt; ValueType, Input,</text>
<text text-anchor="start" x="7.5" y="-19" font-family="Helvetica,sans-Serif" font-size="10.00"> WindowFunction, PartialWindow</text>
<text text-anchor="middle" x="80" y="-8" font-family="Helvetica,sans-Serif" font-size="10.00">Function &gt;</text>
</g>
<!-- Node2 -->
<g id="node2" class="node"><title>Node2</title>
<g id="a_node2"><a xlink:href="classthrill_1_1api_1_1BaseWindowNode.html" target="_top" xlink:title="BaseWindowNode\&lt; ValueType,\l Input, WindowFunction,\l PartialWindowFunction \&gt;">
<polygon fill="none" stroke="black" points="2,-90.5 2,-131.5 158,-131.5 158,-90.5 2,-90.5"/>
<text text-anchor="start" x="10" y="-119.5" font-family="Helvetica,sans-Serif" font-size="10.00">BaseWindowNode&lt; ValueType,</text>
<text text-anchor="start" x="10" y="-108.5" font-family="Helvetica,sans-Serif" font-size="10.00"> Input, WindowFunction,</text>
<text text-anchor="middle" x="80" y="-97.5" font-family="Helvetica,sans-Serif" font-size="10.00"> PartialWindowFunction &gt;</text>
</a>
</g>
</g>
<!-- Node2&#45;&gt;Node1 -->
<g id="edge1" class="edge"><title>Node2&#45;&gt;Node1</title>
<path fill="none" stroke="midnightblue" d="M80,-79.9378C80,-71.1758 80,-61.6949 80,-53.2613"/>
<polygon fill="midnightblue" stroke="midnightblue" points="76.5001,-80.1501 80,-90.1501 83.5001,-80.1501 76.5001,-80.1501"/>
</g>
<!-- Node3 -->
<g id="node3" class="node"><title>Node3</title>
<g id="a_node3"><a xlink:href="classthrill_1_1api_1_1DOpNode.html" target="_top" xlink:title="A DOpNode is a typed node representing and distributed operations in Thrill. ">
<polygon fill="none" stroke="black" points="17.5,-168.5 17.5,-187.5 142.5,-187.5 142.5,-168.5 17.5,-168.5"/>
<text text-anchor="middle" x="80" y="-175.5" font-family="Helvetica,sans-Serif" font-size="10.00">DOpNode&lt; ValueType &gt;</text>
</a>
</g>
</g>
<!-- Node3&#45;&gt;Node2 -->
<g id="edge2" class="edge"><title>Node3&#45;&gt;Node2</title>
<path fill="none" stroke="midnightblue" d="M80,-158.037C80,-149.708 80,-139.936 80,-131.542"/>
<polygon fill="midnightblue" stroke="midnightblue" points="76.5001,-158.234 80,-168.234 83.5001,-158.234 76.5001,-158.234"/>
</g>
<!-- Node4 -->
<g id="node4" class="node"><title>Node4</title>
<g id="a_node4"><a xlink:href="classthrill_1_1api_1_1DIANode.html" target="_top" xlink:title="A DIANode is a typed node representing and operation in Thrill. ">
<polygon fill="none" stroke="black" points="19,-224.5 19,-243.5 141,-243.5 141,-224.5 19,-224.5"/>
<text text-anchor="middle" x="80" y="-231.5" font-family="Helvetica,sans-Serif" font-size="10.00">DIANode&lt; ValueType &gt;</text>
</a>
</g>
</g>
<!-- Node4&#45;&gt;Node3 -->
<g id="edge3" class="edge"><title>Node4&#45;&gt;Node3</title>
<path fill="none" stroke="midnightblue" d="M80,-213.805C80,-204.91 80,-194.78 80,-187.751"/>
<polygon fill="midnightblue" stroke="midnightblue" points="76.5001,-214.083 80,-224.083 83.5001,-214.083 76.5001,-214.083"/>
</g>
<!-- Node5 -->
<g id="node5" class="node"><title>Node5</title>
<g id="a_node5"><a xlink:href="classthrill_1_1api_1_1DIABase.html" target="_top" xlink:title="The DIABase is the untyped super class of DIANode. ">
<polygon fill="none" stroke="black" points="52,-280.5 52,-299.5 108,-299.5 108,-280.5 52,-280.5"/>
<text text-anchor="middle" x="80" y="-287.5" font-family="Helvetica,sans-Serif" font-size="10.00">DIABase</text>
</a>
</g>
</g>
<!-- Node5&#45;&gt;Node4 -->
<g id="edge4" class="edge"><title>Node5&#45;&gt;Node4</title>
<path fill="none" stroke="midnightblue" d="M80,-269.805C80,-260.91 80,-250.78 80,-243.751"/>
<polygon fill="midnightblue" stroke="midnightblue" points="76.5001,-270.083 80,-280.083 83.5001,-270.083 76.5001,-270.083"/>
</g>
<!-- Node6 -->
<g id="node6" class="node"><title>Node6</title>
<g id="a_node6"><a xlink:href="classtlx_1_1ReferenceCounter.html" target="_top" xlink:title="Provides reference counting abilities for use with CountingPtr. ">
<polygon fill="none" stroke="black" points="32,-336.5 32,-355.5 128,-355.5 128,-336.5 32,-336.5"/>
<text text-anchor="middle" x="80" y="-343.5" font-family="Helvetica,sans-Serif" font-size="10.00">ReferenceCounter</text>
</a>
</g>
</g>
<!-- Node6&#45;&gt;Node5 -->
<g id="edge5" class="edge"><title>Node6&#45;&gt;Node5</title>
<path fill="none" stroke="midnightblue" d="M80,-325.805C80,-316.91 80,-306.78 80,-299.751"/>
<polygon fill="midnightblue" stroke="midnightblue" points="76.5001,-326.083 80,-336.083 83.5001,-326.083 76.5001,-326.083"/>
</g>
</g>
</svg>
