<?xml version="1.0" encoding="UTF-8" standalone="no"?>
<!DOCTYPE svg PUBLIC "-//W3C//DTD SVG 1.1//EN"
 "http://www.w3.org/Graphics/SVG/1.1/DTD/svg11.dtd">
<!-- Generated by graphviz version 2.36.0 (20140111.2315)
 -->
<!-- Title: ReadBinaryNode&lt; ValueType &gt;::FileBlockSource Pages: 1 -->
<svg width="1654pt" height="789pt"
 viewBox="0.00 0.00 1654.00 789.00" xmlns="http://www.w3.org/2000/svg" xmlns:xlink="http://www.w3.org/1999/xlink">
<g id="graph0" class="graph" transform="scale(1 1) rotate(0) translate(4 785)">
<title>ReadBinaryNode&lt; ValueType &gt;::FileBlockSource</title>
<!-- Node1 -->
<g id="node1" class="node"><title>Node1</title>
<polygon fill="#bfbfbf" stroke="black" points="1500,-149 1500,-179 1646,-179 1646,-149 1500,-149"/>
<text text-anchor="start" x="1508" y="-167" font-family="Helvetica,sans-Serif" font-size="10.00">ReadBinaryNode&lt; ValueType</text>
<text text-anchor="middle" x="1573" y="-156" font-family="Helvetica,sans-Serif" font-size="10.00"> &gt;::FileBlockSource</text>
</g>
<!-- Node2 -->
<g id="node2" class="node"><title>Node2</title>
<g id="a_node2"><a xlink:href="classthrill_1_1api_1_1Context.html" target="_top" xlink:title="The Context of a job is a unique instance per worker which holds references to all underlying parts o...">
<polygon fill="none" stroke="black" points="1325.5,-204.5 1325.5,-223.5 1376.5,-223.5 1376.5,-204.5 1325.5,-204.5"/>
<text text-anchor="middle" x="1351" y="-211.5" font-family="Helvetica,sans-Serif" font-size="10.00">Context</text>
</a>
</g>
</g>
<!-- Node2&#45;&gt;Node1 -->
<g id="edge1" class="edge"><title>Node2&#45;&gt;Node1</title>
<path fill="none" stroke="#9a32cd" stroke-dasharray="5,2" d="M1386.94,-206.058C1418.74,-198.831 1466.54,-187.969 1505.59,-179.094"/>
<polygon fill="#9a32cd" stroke="#9a32cd" points="1385.78,-202.732 1376.81,-208.362 1387.34,-209.558 1385.78,-202.732"/>
<text text-anchor="middle" x="1461" y="-197" font-family="Helvetica,sans-Serif" font-size="10.00"> context_</text>
</g>
<!-- Node3 -->
<g id="node3" class="node"><title>Node3</title>
<g id="a_node3"><a xlink:href="classthrill_1_1net_1_1Manager.html" target="_top" xlink:title="Initializes communication channels, manages communication channels and handles errors. ">
<polygon fill="none" stroke="black" points="503,-217.5 503,-236.5 557,-236.5 557,-217.5 503,-217.5"/>
<text text-anchor="middle" x="530" y="-224.5" font-family="Helvetica,sans-Serif" font-size="10.00">Manager</text>
</a>
</g>
</g>
<!-- Node3&#45;&gt;Node2 -->
<g id="edge2" class="edge"><title>Node3&#45;&gt;Node2</title>
<path fill="none" stroke="#9a32cd" stroke-dasharray="5,2" d="M567.115,-232.486C583.254,-234.674 602.536,-236.925 620,-238 676.781,-241.496 691.114,-238.553 748,-238 976.477,-235.778 1034.41,-248.22 1262,-228 1283.57,-226.083 1307.87,-222.076 1325.46,-218.838"/>
<polygon fill="#9a32cd" stroke="#9a32cd" points="567.403,-228.993 557.014,-231.071 566.432,-235.925 567.403,-228.993"/>
<text text-anchor="middle" x="957" y="-243" font-family="Helvetica,sans-Serif" font-size="10.00"> net_manager_</text>
</g>
<!-- Node3&#45;&gt;Node2 -->
<g id="edge34" class="edge"><title>Node3&#45;&gt;Node2</title>
<path fill="none" stroke="#9a32cd" stroke-dasharray="5,2" d="M567.52,-226.42C707.567,-224.197 1208.32,-216.249 1325.39,-214.391"/>
<polygon fill="#9a32cd" stroke="#9a32cd" points="567.265,-222.924 557.322,-226.582 567.376,-229.923 567.265,-222.924"/>
<text text-anchor="middle" x="957" y="-224" font-family="Helvetica,sans-Serif" font-size="10.00"> mem_manager_</text>
</g>
<!-- Node18 -->
<g id="node18" class="node"><title>Node18</title>
<g id="a_node18"><a xlink:href="classthrill_1_1data_1_1Multiplexer.html" target="_top" xlink:title="Multiplexes virtual Connections on Dispatcher. ">
<polygon fill="none" stroke="black" points="1064,-302.5 1064,-321.5 1128,-321.5 1128,-302.5 1064,-302.5"/>
<text text-anchor="middle" x="1096" y="-309.5" font-family="Helvetica,sans-Serif" font-size="10.00">Multiplexer</text>
</a>
</g>
</g>
<!-- Node3&#45;&gt;Node18 -->
<g id="edge31" class="edge"><title>Node3&#45;&gt;Node18</title>
<path fill="none" stroke="#9a32cd" stroke-dasharray="5,2" d="M557.436,-241.113C574.749,-249.713 598.139,-260.142 620,-266 782.856,-309.642 986.949,-312.968 1063.81,-312.496"/>
<polygon fill="#9a32cd" stroke="#9a32cd" points="558.991,-237.977 548.491,-236.564 555.818,-244.217 558.991,-237.977"/>
<text text-anchor="middle" x="828" y="-310" font-family="Helvetica,sans-Serif" font-size="10.00"> mem_manager_</text>
</g>
<!-- Node19 -->
<g id="node19" class="node"><title>Node19</title>
<g id="a_node19"><a xlink:href="classthrill_1_1net_1_1DispatcherThread.html" target="_top" xlink:title="DispatcherThread contains a net::Dispatcher object and an associated thread that runs in the dispatch...">
<polygon fill="none" stroke="black" points="781,-341.5 781,-360.5 875,-360.5 875,-341.5 781,-341.5"/>
<text text-anchor="middle" x="828" y="-348.5" font-family="Helvetica,sans-Serif" font-size="10.00">DispatcherThread</text>
</a>
</g>
</g>
<!-- Node3&#45;&gt;Node19 -->
<g id="edge25" class="edge"><title>Node3&#45;&gt;Node19</title>
<path fill="none" stroke="#9a32cd" stroke-dasharray="5,2" d="M542.156,-245.261C556.933,-267.682 585.23,-304.95 620,-323 633.961,-330.247 724.078,-340.532 780.712,-346.408"/>
<polygon fill="#9a32cd" stroke="#9a32cd" points="544.999,-243.21 536.671,-236.66 539.097,-246.973 544.999,-243.21"/>
<text text-anchor="middle" x="684" y="-346" font-family="Helvetica,sans-Serif" font-size="10.00"> mem_manager_</text>
</g>
<!-- Node22 -->
<g id="node22" class="node"><title>Node22</title>
<g id="a_node22"><a xlink:href="classthrill_1_1data_1_1BlockPool.html" target="_top" xlink:title="Pool to allocate, keep, swap out/in, and free all ByteBlocks on the host. ">
<polygon fill="none" stroke="black" points="797.5,-165.5 797.5,-184.5 858.5,-184.5 858.5,-165.5 797.5,-165.5"/>
<text text-anchor="middle" x="828" y="-172.5" font-family="Helvetica,sans-Serif" font-size="10.00">BlockPool</text>
</a>
</g>
</g>
<!-- Node3&#45;&gt;Node22 -->
<g id="edge30" class="edge"><title>Node3&#45;&gt;Node22</title>
<path fill="none" stroke="#9a32cd" stroke-dasharray="5,2" d="M566.815,-215.667C582.938,-210.896 602.291,-205.622 620,-202 682.492,-189.217 756.897,-181.249 797.298,-177.517"/>
<polygon fill="#9a32cd" stroke="#9a32cd" points="565.802,-212.317 557.237,-218.554 567.822,-219.019 565.802,-212.317"/>
<text text-anchor="middle" x="684" y="-205" font-family="Helvetica,sans-Serif" font-size="10.00"> mem_manager_</text>
</g>
<!-- Node4 -->
<g id="node4" class="node"><title>Node4</title>
<g id="a_node4"><a xlink:href="classthrill_1_1common_1_1ProfileTask.html" target="_top" xlink:title="ProfileTask">
<polygon fill="none" stroke="black" points="194,-209.5 194,-228.5 260,-228.5 260,-209.5 194,-209.5"/>
<text text-anchor="middle" x="227" y="-216.5" font-family="Helvetica,sans-Serif" font-size="10.00">ProfileTask</text>
</a>
</g>
</g>
<!-- Node4&#45;&gt;Node3 -->
<g id="edge3" class="edge"><title>Node4&#45;&gt;Node3</title>
<path fill="none" stroke="midnightblue" d="M270.233,-220.122C333.359,-221.8 450.477,-224.913 502.692,-226.301"/>
<polygon fill="midnightblue" stroke="midnightblue" points="270.302,-216.623 260.212,-219.856 270.116,-223.621 270.302,-216.623"/>
</g>
<!-- Node4&#45;&gt;Node22 -->
<g id="edge28" class="edge"><title>Node4&#45;&gt;Node22</title>
<path fill="none" stroke="midnightblue" d="M270.221,-214.172C341.986,-206.155 492.397,-190.172 620,-182 683.157,-177.955 757.313,-176.163 797.493,-175.439"/>
<polygon fill="midnightblue" stroke="midnightblue" points="269.762,-210.702 260.215,-215.295 270.543,-217.658 269.762,-210.702"/>
</g>
<!-- Node5 -->
<g id="node5" class="node"><title>Node5</title>
<g id="a_node5"><a xlink:href="classthrill_1_1common_1_1JsonLogger.html" target="_top" xlink:title="JsonLogger is a receiver of JSON output objects for logging. ">
<polygon fill="none" stroke="black" points="193.5,-133.5 193.5,-152.5 260.5,-152.5 260.5,-133.5 193.5,-133.5"/>
<text text-anchor="middle" x="227" y="-140.5" font-family="Helvetica,sans-Serif" font-size="10.00">JsonLogger</text>
</a>
</g>
</g>
<!-- Node5&#45;&gt;Node2 -->
<g id="edge20" class="edge"><title>Node5&#45;&gt;Node2</title>
<path fill="none" stroke="#9a32cd" stroke-dasharray="5,2" d="M270.617,-132.316C328.658,-118.727 435.994,-97 529,-97 529,-97 529,-97 1097,-97 1199.11,-97 1304.77,-176.482 1338.76,-204.425"/>
<polygon fill="#9a32cd" stroke="#9a32cd" points="269.63,-128.953 260.709,-134.67 271.247,-135.764 269.63,-128.953"/>
<text text-anchor="middle" x="828" y="-111" font-family="Helvetica,sans-Serif" font-size="10.00"> logger_</text>
<text text-anchor="middle" x="828" y="-100" font-family="Helvetica,sans-Serif" font-size="10.00">base_logger_</text>
</g>
<!-- Node5&#45;&gt;Node3 -->
<g id="edge4" class="edge"><title>Node5&#45;&gt;Node3</title>
<path fill="none" stroke="#9a32cd" stroke-dasharray="5,2" d="M270.453,-154.847C333.679,-172.492 450.717,-205.154 502.812,-219.692"/>
<polygon fill="#9a32cd" stroke="#9a32cd" points="271.358,-151.466 260.785,-152.149 269.476,-158.209 271.358,-151.466"/>
<text text-anchor="middle" x="376" y="-203" font-family="Helvetica,sans-Serif" font-size="10.00"> logger_</text>
</g>
<!-- Node5&#45;&gt;Node5 -->
<g id="edge6" class="edge"><title>Node5&#45;&gt;Node5</title>
<path fill="none" stroke="#9a32cd" stroke-dasharray="5,2" d="M207.001,-162.4C208.337,-167.315 215.003,-171 227,-171 246.195,-171 251.744,-161.565 243.646,-152.757"/>
<polygon fill="#9a32cd" stroke="#9a32cd" points="210.376,-163.352 210.354,-152.757 203.764,-161.053 210.376,-163.352"/>
<text text-anchor="middle" x="227" y="-174" font-family="Helvetica,sans-Serif" font-size="10.00"> super_</text>
</g>
<!-- Node5&#45;&gt;Node22 -->
<g id="edge29" class="edge"><title>Node5&#45;&gt;Node22</title>
<path fill="none" stroke="#9a32cd" stroke-dasharray="5,2" d="M270.72,-141.317C359.848,-138.427 571.961,-134.796 748,-157 764.468,-159.077 782.54,-163.064 797.237,-166.758"/>
<polygon fill="#9a32cd" stroke="#9a32cd" points="270.597,-137.819 260.721,-141.655 270.834,-144.815 270.597,-137.819"/>
<text text-anchor="middle" x="530" y="-147" font-family="Helvetica,sans-Serif" font-size="10.00"> logger_</text>
</g>
<!-- Node6 -->
<g id="node6" class="node"><title>Node6</title>
<g id="a_node6"><a xlink:href="classthrill_1_1common_1_1JsonVerbatim.html" target="_top" xlink:title="A special class to output verbatim text. ">
<polygon fill="none" stroke="black" points="0.5,-133.5 0.5,-152.5 77.5,-152.5 77.5,-133.5 0.5,-133.5"/>
<text text-anchor="middle" x="39" y="-140.5" font-family="Helvetica,sans-Serif" font-size="10.00">JsonVerbatim</text>
</a>
</g>
</g>
<!-- Node6&#45;&gt;Node5 -->
<g id="edge5" class="edge"><title>Node6&#45;&gt;Node5</title>
<path fill="none" stroke="#9a32cd" stroke-dasharray="5,2" d="M88.0045,-143C121.105,-143 164.226,-143 193.388,-143"/>
<polygon fill="#9a32cd" stroke="#9a32cd" points="87.6399,-139.5 77.6399,-143 87.6398,-146.5 87.6399,-139.5"/>
<text text-anchor="middle" x="119" y="-146" font-family="Helvetica,sans-Serif" font-size="10.00"> common_</text>
</g>
<!-- Node7 -->
<g id="node7" class="node"><title>Node7</title>
<g id="a_node7"><a xlink:href="classthrill_1_1net_1_1FlowControlChannel.html" target="_top" xlink:title="Provides a blocking collection for communication. ">
<polygon fill="none" stroke="black" points="1043.5,-437.5 1043.5,-456.5 1148.5,-456.5 1148.5,-437.5 1043.5,-437.5"/>
<text text-anchor="middle" x="1096" y="-444.5" font-family="Helvetica,sans-Serif" font-size="10.00">FlowControlChannel</text>
</a>
</g>
</g>
<!-- Node7&#45;&gt;Node2 -->
<g id="edge7" class="edge"><title>Node7&#45;&gt;Node2</title>
<path fill="none" stroke="#9a32cd" stroke-dasharray="5,2" d="M1117.52,-430.796C1149.35,-405.399 1212.14,-354.23 1262,-307 1292.66,-277.956 1326.28,-240.796 1341.58,-223.566"/>
<polygon fill="#9a32cd" stroke="#9a32cd" points="1115.05,-428.288 1109.4,-437.251 1119.41,-433.767 1115.05,-428.288"/>
<text text-anchor="middle" x="1224" y="-377" font-family="Helvetica,sans-Serif" font-size="10.00"> net</text>
</g>
<!-- Node8 -->
<g id="node8" class="node"><title>Node8</title>
<g id="a_node8"><a xlink:href="classthrill_1_1net_1_1FlowControlChannel_1_1LocalData.html" target="_top" xlink:title="LocalData">
<polygon fill="none" stroke="black" points="797.5,-437.5 797.5,-456.5 858.5,-456.5 858.5,-437.5 797.5,-437.5"/>
<text text-anchor="middle" x="828" y="-444.5" font-family="Helvetica,sans-Serif" font-size="10.00">LocalData</text>
</a>
</g>
</g>
<!-- Node8&#45;&gt;Node7 -->
<g id="edge8" class="edge"><title>Node8&#45;&gt;Node7</title>
<path fill="none" stroke="#9a32cd" stroke-dasharray="5,2" d="M869.029,-447C915.541,-447 992.405,-447 1043.37,-447"/>
<polygon fill="#9a32cd" stroke="#9a32cd" points="868.739,-443.5 858.739,-447 868.739,-450.5 868.739,-443.5"/>
<text text-anchor="middle" x="957" y="-450" font-family="Helvetica,sans-Serif" font-size="10.00"> shmem_</text>
</g>
<!-- Node9 -->
<g id="node9" class="node"><title>Node9</title>
<g id="a_node9"><a xlink:href="classthrill_1_1net_1_1Group.html" target="_top" xlink:title="A network Group is a collection of enumerated communication links, which provides point&#45;to&#45;point comm...">
<polygon fill="none" stroke="black" points="806.5,-389.5 806.5,-408.5 849.5,-408.5 849.5,-389.5 806.5,-389.5"/>
<text text-anchor="middle" x="828" y="-396.5" font-family="Helvetica,sans-Serif" font-size="10.00">Group</text>
</a>
</g>
</g>
<!-- Node9&#45;&gt;Node7 -->
<g id="edge9" class="edge"><title>Node9&#45;&gt;Node7</title>
<path fill="none" stroke="#9a32cd" stroke-dasharray="5,2" d="M859.9,-404.576C904.875,-412.692 988.927,-427.859 1043.39,-437.687"/>
<polygon fill="#9a32cd" stroke="#9a32cd" points="860.335,-401.098 849.873,-402.766 859.092,-407.987 860.335,-401.098"/>
<text text-anchor="middle" x="957" y="-434" font-family="Helvetica,sans-Serif" font-size="10.00"> group_</text>
</g>
<!-- Node9&#45;&gt;Node18 -->
<g id="edge26" class="edge"><title>Node9&#45;&gt;Node18</title>
<path fill="none" stroke="#9a32cd" stroke-dasharray="5,2" d="M859.815,-393.044C895.556,-385.707 955.973,-371.975 1006,-354 1031.57,-344.814 1059.71,-330.837 1077.36,-321.564"/>
<polygon fill="#9a32cd" stroke="#9a32cd" points="858.665,-389.705 849.554,-395.113 860.049,-396.567 858.665,-389.705"/>
<text text-anchor="middle" x="957" y="-385" font-family="Helvetica,sans-Serif" font-size="10.00"> group_</text>
</g>
<!-- Node10 -->
<g id="node10" class="node"><title>Node10</title>
<g id="a_node10"><a xlink:href="classthrill_1_1common_1_1AtomicMovable.html" target="_top" xlink:title="AtomicMovable\&lt; size_t \&gt;">
<polygon fill="none" stroke="black" points="620,-672.5 620,-691.5 748,-691.5 748,-672.5 620,-672.5"/>
<text text-anchor="middle" x="684" y="-679.5" font-family="Helvetica,sans-Serif" font-size="10.00">AtomicMovable&lt; size_t &gt;</text>
</a>
</g>
</g>
<!-- Node10&#45;&gt;Node7 -->
<g id="edge10" class="edge"><title>Node10&#45;&gt;Node7</title>
<path fill="none" stroke="#9a32cd" stroke-dasharray="5,2" d="M723.507,-694.362C790.77,-713.283 929.755,-740.063 1006,-667 1038.38,-635.972 995.133,-500.319 1024,-466 1029.09,-459.946 1035.88,-455.709 1043.25,-452.766"/>
<polygon fill="#9a32cd" stroke="#9a32cd" points="724.312,-690.951 713.733,-691.525 722.361,-697.674 724.312,-690.951"/>
<text text-anchor="middle" x="828" y="-773" font-family="Helvetica,sans-Serif" font-size="10.00"> count_allreduce_</text>
<text text-anchor="middle" x="828" y="-762" font-family="Helvetica,sans-Serif" font-size="10.00">count_broadcast_</text>
<text text-anchor="middle" x="828" y="-751" font-family="Helvetica,sans-Serif" font-size="10.00">count_reduce_</text>
<text text-anchor="middle" x="828" y="-740" font-family="Helvetica,sans-Serif" font-size="10.00">count_prefixsum_</text>
<text text-anchor="middle" x="828" y="-729" font-family="Helvetica,sans-Serif" font-size="10.00">count_barrier_</text>
<text text-anchor="middle" x="828" y="-718" font-family="Helvetica,sans-Serif" font-size="10.00">count_predecessor_</text>
</g>
<!-- Node11 -->
<g id="node11" class="node"><title>Node11</title>
<g id="a_node11"><a xlink:href="classthrill_1_1common_1_1AtomicMovable.html" target="_top" xlink:title="This is a derivative of std::atomic which enables easier and less error&#45;prone writing of move&#45;only cl...">
<polygon fill="none" stroke="black" points="173,-649.5 173,-668.5 281,-668.5 281,-649.5 173,-649.5"/>
<text text-anchor="middle" x="227" y="-656.5" font-family="Helvetica,sans-Serif" font-size="10.00">AtomicMovable&lt; T &gt;</text>
</a>
</g>
</g>
<!-- Node11&#45;&gt;Node10 -->
<g id="edge11" class="edge"><title>Node11&#45;&gt;Node10</title>
<path fill="none" stroke="orange" stroke-dasharray="5,2" d="M291.317,-662.201C378.065,-666.586 532.963,-674.416 619.701,-678.8"/>
<polygon fill="orange" stroke="orange" points="291.249,-658.693 281.085,-661.683 290.895,-665.684 291.249,-658.693"/>
<text text-anchor="middle" x="376" y="-672" font-family="Helvetica,sans-Serif" font-size="10.00"> &lt; size_t &gt;</text>
</g>
<!-- Node13 -->
<g id="node13" class="node"><title>Node13</title>
<g id="a_node13"><a xlink:href="classthrill_1_1common_1_1AtomicMovable.html" target="_top" xlink:title="AtomicMovable\&lt; uint64_t \&gt;">
<polygon fill="none" stroke="black" points="461.5,-629.5 461.5,-648.5 598.5,-648.5 598.5,-629.5 461.5,-629.5"/>
<text text-anchor="middle" x="530" y="-636.5" font-family="Helvetica,sans-Serif" font-size="10.00">AtomicMovable&lt; uint64_t &gt;</text>
</a>
</g>
</g>
<!-- Node11&#45;&gt;Node13 -->
<g id="edge14" class="edge"><title>Node11&#45;&gt;Node13</title>
<path fill="none" stroke="orange" stroke-dasharray="5,2" d="M288.419,-647.91C296.329,-646.758 304.343,-645.74 312,-645 361.892,-640.176 418.514,-638.745 461.407,-638.483"/>
<polygon fill="orange" stroke="orange" points="287.845,-644.457 278.489,-649.43 288.904,-651.376 287.845,-644.457"/>
<text text-anchor="middle" x="376" y="-648" font-family="Helvetica,sans-Serif" font-size="10.00"> &lt; uint64_t &gt;</text>
</g>
<!-- Node12 -->
<g id="node12" class="node"><title>Node12</title>
<g id="a_node12"><a xlink:href="classthrill_1_1common_1_1ThreadBarrierSpinning.html" target="_top" xlink:title="Implements a cyclic barrier using atomics and a spin lock that can be used to synchronize threads...">
<polygon fill="none" stroke="black" points="771.5,-627.5 771.5,-646.5 884.5,-646.5 884.5,-627.5 771.5,-627.5"/>
<text text-anchor="middle" x="828" y="-634.5" font-family="Helvetica,sans-Serif" font-size="10.00">ThreadBarrierSpinning</text>
</a>
</g>
</g>
<!-- Node12&#45;&gt;Node7 -->
<g id="edge12" class="edge"><title>Node12&#45;&gt;Node7</title>
<path fill="none" stroke="#9a32cd" stroke-dasharray="5,2" d="M875.984,-648.339C915.977,-654.94 972.171,-656.499 1006,-624 1056.97,-575.037 977.857,-519.535 1024,-466 1029.17,-460.007 1035.99,-455.803 1043.37,-452.872"/>
<polygon fill="#9a32cd" stroke="#9a32cd" points="876.397,-644.857 865.934,-646.52 875.15,-651.745 876.397,-644.857"/>
<text text-anchor="middle" x="957" y="-655" font-family="Helvetica,sans-Serif" font-size="10.00"> barrier_</text>
</g>
<!-- Node13&#45;&gt;Node12 -->
<g id="edge13" class="edge"><title>Node13&#45;&gt;Node12</title>
<path fill="none" stroke="#9a32cd" stroke-dasharray="5,2" d="M608.542,-638.476C659.588,-638.131 725.22,-637.688 771.166,-637.377"/>
<polygon fill="#9a32cd" stroke="#9a32cd" points="608.513,-634.976 598.537,-638.544 608.561,-641.976 608.513,-634.976"/>
<text text-anchor="middle" x="684" y="-641" font-family="Helvetica,sans-Serif" font-size="10.00"> wait_time_</text>
</g>
<!-- Node14 -->
<g id="node14" class="node"><title>Node14</title>
<g id="a_node14"><a xlink:href="classthrill_1_1common_1_1StatsTimerBaseStopped.html" target="_top" xlink:title="StatsTimerBaseStopped\l\&lt; enable_stats \&gt;">
<polygon fill="none" stroke="black" points="766.5,-476 766.5,-506 889.5,-506 889.5,-476 766.5,-476"/>
<text text-anchor="start" x="774.5" y="-494" font-family="Helvetica,sans-Serif" font-size="10.00">StatsTimerBaseStopped</text>
<text text-anchor="middle" x="828" y="-483" font-family="Helvetica,sans-Serif" font-size="10.00">&lt; enable_stats &gt;</text>
</a>
</g>
</g>
<!-- Node14&#45;&gt;Node7 -->
<g id="edge15" class="edge"><title>Node14&#45;&gt;Node7</title>
<path fill="none" stroke="#9a32cd" stroke-dasharray="5,2" d="M899.697,-479.306C944.779,-471.849 1002.2,-462.35 1043.09,-455.587"/>
<polygon fill="#9a32cd" stroke="#9a32cd" points="898.987,-475.876 889.692,-480.961 900.13,-482.782 898.987,-475.876"/>
<text text-anchor="start" x="908.5" y="-612" font-family="Helvetica,sans-Serif" font-size="10.00"> timer_communication</text>
<text text-anchor="middle" x="957" y="-601" font-family="Helvetica,sans-Serif" font-size="10.00">_</text>
<text text-anchor="start" x="908.5" y="-590" font-family="Helvetica,sans-Serif" font-size="10.00">timer_predecessor</text>
<text text-anchor="middle" x="957" y="-579" font-family="Helvetica,sans-Serif" font-size="10.00">_</text>
<text text-anchor="start" x="908.5" y="-568" font-family="Helvetica,sans-Serif" font-size="10.00">timer_allreduce</text>
<text text-anchor="middle" x="957" y="-557" font-family="Helvetica,sans-Serif" font-size="10.00">_</text>
<text text-anchor="start" x="908.5" y="-546" font-family="Helvetica,sans-Serif" font-size="10.00">timer_barrier</text>
<text text-anchor="middle" x="957" y="-535" font-family="Helvetica,sans-Serif" font-size="10.00">_</text>
<text text-anchor="start" x="908.5" y="-524" font-family="Helvetica,sans-Serif" font-size="10.00">timer_prefixsum</text>
<text text-anchor="middle" x="957" y="-513" font-family="Helvetica,sans-Serif" font-size="10.00">_</text>
<text text-anchor="start" x="908.5" y="-502" font-family="Helvetica,sans-Serif" font-size="10.00">timer_broadcast</text>
<text text-anchor="middle" x="957" y="-491" font-family="Helvetica,sans-Serif" font-size="10.00">_</text>
<text text-anchor="middle" x="957" y="-480" font-family="Helvetica,sans-Serif" font-size="10.00">timer_reduce_</text>
</g>
<!-- Node15 -->
<g id="node15" class="node"><title>Node15</title>
<g id="a_node15"><a xlink:href="classthrill_1_1common_1_1StatsTimerBase.html" target="_top" xlink:title="This class provides a statistical stop watch timer that can easily be deactivated using a boolean tem...">
<polygon fill="none" stroke="black" points="160.5,-476.5 160.5,-495.5 293.5,-495.5 293.5,-476.5 160.5,-476.5"/>
<text text-anchor="middle" x="227" y="-483.5" font-family="Helvetica,sans-Serif" font-size="10.00">StatsTimerBase&lt; Active &gt;</text>
</a>
</g>
</g>
<!-- Node15&#45;&gt;Node14 -->
<g id="edge16" class="edge"><title>Node15&#45;&gt;Node14</title>
<path fill="none" stroke="midnightblue" d="M303.9,-486.228C379.462,-486.498 498.75,-487.036 602,-488 657.667,-488.52 721.077,-489.391 766.361,-490.06"/>
<polygon fill="midnightblue" stroke="midnightblue" points="303.547,-482.727 293.535,-486.192 303.522,-489.727 303.547,-482.727"/>
</g>
<!-- Node16 -->
<g id="node16" class="node"><title>Node16</title>
<g id="a_node16"><a xlink:href="classthrill_1_1common_1_1StatsTimerBaseStopped.html" target="_top" xlink:title="StatsTimerBaseStopped\l\&lt; Active \&gt;">
<polygon fill="none" stroke="black" points="468.5,-498 468.5,-528 591.5,-528 591.5,-498 468.5,-498"/>
<text text-anchor="start" x="476.5" y="-516" font-family="Helvetica,sans-Serif" font-size="10.00">StatsTimerBaseStopped</text>
<text text-anchor="middle" x="530" y="-505" font-family="Helvetica,sans-Serif" font-size="10.00">&lt; Active &gt;</text>
</a>
</g>
</g>
<!-- Node15&#45;&gt;Node16 -->
<g id="edge18" class="edge"><title>Node15&#45;&gt;Node16</title>
<path fill="none" stroke="midnightblue" d="M303.655,-492.786C354.584,-497.355 420.852,-503.299 468.321,-507.557"/>
<polygon fill="midnightblue" stroke="midnightblue" points="303.957,-489.299 293.684,-491.892 303.331,-496.271 303.957,-489.299"/>
</g>
<!-- Node16&#45;&gt;Node14 -->
<g id="edge17" class="edge"><title>Node16&#45;&gt;Node14</title>
<path fill="none" stroke="orange" stroke-dasharray="5,2" d="M601.749,-507.742C651.978,-504.008 718.701,-499.049 766.467,-495.499"/>
<polygon fill="orange" stroke="orange" points="601.327,-504.263 591.614,-508.495 601.846,-511.244 601.327,-504.263"/>
<text text-anchor="middle" x="684" y="-509" font-family="Helvetica,sans-Serif" font-size="10.00"> &lt; enable_stats &gt;</text>
</g>
<!-- Node17 -->
<g id="node17" class="node"><title>Node17</title>
<g id="a_node17"><a xlink:href="classthrill_1_1api_1_1MemoryConfig.html" target="_top" xlink:title="MemoryConfig">
<polygon fill="none" stroke="black" points="1056,-49.5 1056,-68.5 1136,-68.5 1136,-49.5 1056,-49.5"/>
<text text-anchor="middle" x="1096" y="-56.5" font-family="Helvetica,sans-Serif" font-size="10.00">MemoryConfig</text>
</a>
</g>
</g>
<!-- Node17&#45;&gt;Node2 -->
<g id="edge19" class="edge"><title>Node17&#45;&gt;Node2</title>
<path fill="none" stroke="#9a32cd" stroke-dasharray="5,2" d="M1146.31,-50.2878C1181.71,-46.8186 1228.85,-48.2194 1262,-72 1278.5,-83.8375 1270.12,-96.254 1280,-114 1299.48,-148.999 1328.35,-186.825 1342.13,-204.228"/>
<polygon fill="#9a32cd" stroke="#9a32cd" points="1145.73,-46.8311 1136.19,-51.4407 1146.52,-53.7861 1145.73,-46.8311"/>
<text text-anchor="middle" x="1224" y="-75" font-family="Helvetica,sans-Serif" font-size="10.00"> mem_config_</text>
</g>
<!-- Node18&#45;&gt;Node2 -->
<g id="edge21" class="edge"><title>Node18&#45;&gt;Node2</title>
<path fill="none" stroke="#9a32cd" stroke-dasharray="5,2" d="M1138.27,-303.655C1172.28,-296.038 1221.34,-283.325 1262,-266 1289.75,-254.174 1319.45,-235.124 1336.28,-223.659"/>
<polygon fill="#9a32cd" stroke="#9a32cd" points="1137.25,-300.296 1128.23,-305.854 1138.75,-307.134 1137.25,-300.296"/>
<text text-anchor="middle" x="1224" y="-295" font-family="Helvetica,sans-Serif" font-size="10.00"> multiplexer_</text>
</g>
<!-- Node19&#45;&gt;Node18 -->
<g id="edge22" class="edge"><title>Node19&#45;&gt;Node18</title>
<path fill="none" stroke="#9a32cd" stroke-dasharray="5,2" d="M885.192,-342.761C939.513,-334.797 1019.84,-323.02 1063.67,-316.594"/>
<polygon fill="#9a32cd" stroke="#9a32cd" points="884.416,-339.338 875.03,-344.251 885.432,-346.263 884.416,-339.338"/>
<text text-anchor="middle" x="957" y="-342" font-family="Helvetica,sans-Serif" font-size="10.00"> dispatcher_</text>
</g>
<!-- Node20 -->
<g id="node20" class="node"><title>Node20</title>
<g id="a_node20"><a xlink:href="classthrill_1_1common_1_1OurConcurrentQueue.html" target="_top" xlink:title="OurConcurrentQueue\l\&lt; tlx::Delegate, mem\l::Allocator\&lt; tlx::Delegate \&gt; \&gt;">
<polygon fill="none" stroke="black" points="458.5,-358.5 458.5,-399.5 601.5,-399.5 601.5,-358.5 458.5,-358.5"/>
<text text-anchor="start" x="466.5" y="-387.5" font-family="Helvetica,sans-Serif" font-size="10.00">OurConcurrentQueue</text>
<text text-anchor="start" x="466.5" y="-376.5" font-family="Helvetica,sans-Serif" font-size="10.00">&lt; tlx::Delegate, mem</text>
<text text-anchor="middle" x="530" y="-365.5" font-family="Helvetica,sans-Serif" font-size="10.00">::Allocator&lt; tlx::Delegate &gt; &gt;</text>
</a>
</g>
</g>
<!-- Node20&#45;&gt;Node19 -->
<g id="edge23" class="edge"><title>Node20&#45;&gt;Node19</title>
<path fill="none" stroke="#9a32cd" stroke-dasharray="5,2" d="M611.492,-371.386C665.893,-366.24 735.782,-359.629 780.978,-355.353"/>
<polygon fill="#9a32cd" stroke="#9a32cd" points="611.149,-367.903 601.523,-372.329 611.809,-374.871 611.149,-367.903"/>
<text text-anchor="middle" x="684" y="-373" font-family="Helvetica,sans-Serif" font-size="10.00"> jobqueue_</text>
</g>
<!-- Node21 -->
<g id="node21" class="node"><title>Node21</title>
<g id="a_node21"><a xlink:href="classthrill_1_1common_1_1OurConcurrentQueue.html" target="_top" xlink:title="This is a queue, similar to std::queue and tbb::concurrent_queue, except that it uses mutexes for syn...">
<polygon fill="none" stroke="black" points="172.5,-364 172.5,-394 281.5,-394 281.5,-364 172.5,-364"/>
<text text-anchor="start" x="180.5" y="-382" font-family="Helvetica,sans-Serif" font-size="10.00">OurConcurrentQueue</text>
<text text-anchor="middle" x="227" y="-371" font-family="Helvetica,sans-Serif" font-size="10.00">&lt; T, Allocator &gt;</text>
</a>
</g>
</g>
<!-- Node21&#45;&gt;Node20 -->
<g id="edge24" class="edge"><title>Node21&#45;&gt;Node20</title>
<path fill="none" stroke="orange" stroke-dasharray="5,2" d="M291.937,-379C340.753,-379 407.978,-379 458.377,-379"/>
<polygon fill="orange" stroke="orange" points="291.813,-375.5 281.813,-379 291.813,-382.5 291.813,-375.5"/>
<text text-anchor="start" x="312.5" y="-393" font-family="Helvetica,sans-Serif" font-size="10.00"> &lt; tlx::Delegate, mem</text>
<text text-anchor="middle" x="376" y="-382" font-family="Helvetica,sans-Serif" font-size="10.00">::Allocator&lt; tlx::Delegate &gt; &gt;</text>
</g>
<!-- Node22&#45;&gt;Node2 -->
<g id="edge32" class="edge"><title>Node22&#45;&gt;Node2</title>
<path fill="none" stroke="#9a32cd" stroke-dasharray="5,2" d="M868.864,-175.675C932.286,-176.969 1060.03,-180.466 1168,-189 1209.93,-192.315 1220.33,-194.25 1262,-200 1283.45,-202.961 1307.76,-206.87 1325.38,-209.805"/>
<polygon fill="#9a32cd" stroke="#9a32cd" points="868.586,-172.169 858.519,-175.473 868.448,-179.168 868.586,-172.169"/>
<text text-anchor="middle" x="1096" y="-192" font-family="Helvetica,sans-Serif" font-size="10.00"> block_pool_</text>
</g>
<!-- Node22&#45;&gt;Node18 -->
<g id="edge27" class="edge"><title>Node22&#45;&gt;Node18</title>
<path fill="none" stroke="#9a32cd" stroke-dasharray="5,2" d="M840.145,-193.209C853.636,-213.654 878.281,-246.279 908,-264 946.426,-286.913 962.676,-275.837 1006,-287 1025.27,-291.966 1046.76,-297.986 1063.79,-302.875"/>
<polygon fill="#9a32cd" stroke="#9a32cd" points="842.93,-191.066 834.599,-184.52 837.029,-194.833 842.93,-191.066"/>
<text text-anchor="middle" x="957" y="-290" font-family="Helvetica,sans-Serif" font-size="10.00"> block_pool_</text>
</g>
<!-- Node23 -->
<g id="node23" class="node"><title>Node23</title>
<g id="a_node23"><a xlink:href="classthrill_1_1net_1_1FlowControlChannelManager.html" target="_top" xlink:title="FlowControlChannelManager">
<polygon fill="none" stroke="black" points="1024.5,-475.5 1024.5,-494.5 1167.5,-494.5 1167.5,-475.5 1024.5,-475.5"/>
<text text-anchor="middle" x="1096" y="-482.5" font-family="Helvetica,sans-Serif" font-size="10.00">FlowControlChannelManager</text>
</a>
</g>
</g>
<!-- Node23&#45;&gt;Node2 -->
<g id="edge33" class="edge"><title>Node23&#45;&gt;Node2</title>
<path fill="none" stroke="#9a32cd" stroke-dasharray="5,2" d="M1153.56,-472.251C1158.55,-470.417 1163.43,-468.342 1168,-466 1216.05,-441.355 1228.24,-431.155 1262,-389 1306.64,-333.255 1337.26,-251.207 1346.82,-223.521"/>
<polygon fill="#9a32cd" stroke="#9a32cd" points="1152.26,-468.994 1143.89,-475.489 1154.49,-475.632 1152.26,-468.994"/>
<text text-anchor="middle" x="1224" y="-460" font-family="Helvetica,sans-Serif" font-size="10.00"> flow_manager_</text>
</g>
<!-- Node24 -->
<g id="node24" class="node"><title>Node24</title>
<g id="a_node24"><a xlink:href="classtlx_1_1CountingPtr.html" target="_top" xlink:title="CountingPtr\&lt; ReadStream \&gt;">
<polygon fill="none" stroke="black" points="1280.5,-85.5 1280.5,-104.5 1421.5,-104.5 1421.5,-85.5 1280.5,-85.5"/>
<text text-anchor="middle" x="1351" y="-92.5" font-family="Helvetica,sans-Serif" font-size="10.00">CountingPtr&lt; ReadStream &gt;</text>
</a>
</g>
</g>
<!-- Node24&#45;&gt;Node1 -->
<g id="edge35" class="edge"><title>Node24&#45;&gt;Node1</title>
<path fill="none" stroke="#9a32cd" stroke-dasharray="5,2" d="M1392.55,-107.719C1429.66,-119.357 1484.6,-136.589 1523.91,-148.916"/>
<polygon fill="#9a32cd" stroke="#9a32cd" points="1393.18,-104.247 1382.59,-104.594 1391.08,-110.926 1393.18,-104.247"/>
<text text-anchor="middle" x="1461" y="-139" font-family="Helvetica,sans-Serif" font-size="10.00"> stream_</text>
</g>
<!-- Node25 -->
<g id="node25" class="node"><title>Node25</title>
<g id="a_node25"><a xlink:href="classtlx_1_1CountingPtr.html" target="_top" xlink:title="High&#45;performance smart pointer used as a wrapping reference counting pointer. ">
<polygon fill="none" stroke="black" points="1045,-0 1045,-30 1147,-30 1147,-0 1045,-0"/>
<text text-anchor="start" x="1053" y="-18" font-family="Helvetica,sans-Serif" font-size="10.00">CountingPtr&lt; Type,</text>
<text text-anchor="middle" x="1096" y="-7" font-family="Helvetica,sans-Serif" font-size="10.00"> Deleter &gt;</text>
</a>
</g>
</g>
<!-- Node25&#45;&gt;Node24 -->
<g id="edge36" class="edge"><title>Node25&#45;&gt;Node24</title>
<path fill="none" stroke="orange" stroke-dasharray="5,2" d="M1157.14,-10.5992C1189.25,-10.3068 1228.86,-13.3061 1262,-26 1295.9,-38.9849 1327.23,-69.817 1341.66,-85.4941"/>
<polygon fill="orange" stroke="orange" points="1156.93,-7.10266 1147,-10.8017 1157.07,-14.1013 1156.93,-7.10266"/>
<text text-anchor="middle" x="1224" y="-29" font-family="Helvetica,sans-Serif" font-size="10.00"> &lt; ReadStream &gt;</text>
</g>
</g>
</svg>
