<?xml version="1.0" encoding="UTF-8" standalone="no"?>
<!DOCTYPE svg PUBLIC "-//W3C//DTD SVG 1.1//EN"
 "http://www.w3.org/Graphics/SVG/1.1/DTD/svg11.dtd">
<!-- Generated by graphviz version 2.40.1 (20161225.0304)
 -->
<!-- Title: Connection Pages: 1 -->
<svg width="115pt" height="28pt"
 viewBox="0.00 0.00 115.00 28.00" xmlns="http://www.w3.org/2000/svg" xmlns:xlink="http://www.w3.org/1999/xlink">
<g id="graph0" class="graph" transform="scale(1 1) rotate(0) translate(4 24)">
<title>Connection</title>
<!-- Node0 -->
<g id="node1" class="node">
<title>Node0</title>
<polygon fill="#bfbfbf" stroke="#000000" points="0,-.5 0,-19.5 71,-19.5 71,-.5 0,-.5"/>
<text text-anchor="middle" x="35.5" y="-7.5" font-family="Helvetica,sans-Serif" font-size="10.00" fill="#000000">Connection</text>
</g>
<!-- Node0&#45;&gt;Node0 -->
<g id="edge1" class="edge">
<title>Node0&#45;&gt;Node0</title>
<path fill="none" stroke="#191970" d="M81.2805,-11.5459C85.9895,-11.2416 89,-10.7263 89,-10 89,-8.8379 81.2932,-8.216 71.2532,-8.1343"/>
<polygon fill="#191970" stroke="#191970" points="81.1365,-8.0486 71.2532,-11.8657 81.3597,-15.0451 81.1365,-8.0486"/>
</g>
<!-- Node0&#45;&gt;Node0 -->
<g id="edge2" class="edge">
<title>Node0&#45;&gt;Node0</title>
<path fill="none" stroke="#191970" d="M81.4673,-13.7469C95.76,-13.6769 107,-12.428 107,-10 107,-7.0117 89.9738,-5.8094 71.1851,-6.3931"/>
<polygon fill="#191970" stroke="#191970" points="81.2319,-10.2435 71.1851,-13.6069 81.1365,-17.2428 81.2319,-10.2435"/>
</g>
</g>
</svg>
