<?xml version="1.0" encoding="UTF-8" standalone="no"?>
<!DOCTYPE svg PUBLIC "-//W3C//DTD SVG 1.1//EN"
 "http://www.w3.org/Graphics/SVG/1.1/DTD/svg11.dtd">
<!-- Generated by graphviz version 2.40.1 (20161225.0304)
 -->
<!-- Title: LoserTreeCopyUnguardedBase&lt; ValueType, Comparator &gt; Pages: 1 -->
<svg width="249pt" height="217pt"
 viewBox="0.00 0.00 248.50 217.00" xmlns="http://www.w3.org/2000/svg" xmlns:xlink="http://www.w3.org/1999/xlink">
<g id="graph0" class="graph" transform="scale(1 1) rotate(0) translate(4 213)">
<title>LoserTreeCopyUnguardedBase&lt; ValueType, Comparator &gt;</title>
<!-- Node3 -->
<g id="node1" class="node">
<title>Node3</title>
<polygon fill="#bfbfbf" stroke="#000000" points="0,-.5 0,-30.5 165,-30.5 165,-.5 0,-.5"/>
<text text-anchor="start" x="8" y="-18.5" font-family="Helvetica,sans-Serif" font-size="10.00" fill="#000000">LoserTreeCopyUnguardedBase</text>
<text text-anchor="middle" x="82.5" y="-7.5" font-family="Helvetica,sans-Serif" font-size="10.00" fill="#000000">&lt; ValueType, Comparator &gt;</text>
</g>
<!-- Node4 -->
<g id="node2" class="node">
<title>Node4</title>
<g id="a_node2"><a xlink:href="classtlx_1_1SimpleVector.html" target="_top" xlink:title="SimpleVector\&lt; tlx::\lLoserTreeCopyUnguardedBase\l::Loser \&gt;">
<polygon fill="none" stroke="#000000" points="0,-78.5 0,-119.5 165,-119.5 165,-78.5 0,-78.5"/>
<text text-anchor="start" x="8" y="-107.5" font-family="Helvetica,sans-Serif" font-size="10.00" fill="#000000">SimpleVector&lt; tlx::</text>
<text text-anchor="start" x="8" y="-96.5" font-family="Helvetica,sans-Serif" font-size="10.00" fill="#000000">LoserTreeCopyUnguardedBase</text>
<text text-anchor="middle" x="82.5" y="-85.5" font-family="Helvetica,sans-Serif" font-size="10.00" fill="#000000">::Loser &gt;</text>
</a>
</g>
</g>
<!-- Node4&#45;&gt;Node3 -->
<g id="edge1" class="edge">
<title>Node4&#45;&gt;Node3</title>
<path fill="none" stroke="#9a32cd" stroke-dasharray="5,2" d="M82.5,-68.0892C82.5,-55.3184 82.5,-41.0939 82.5,-30.6621"/>
<polygon fill="#9a32cd" stroke="#9a32cd" points="79.0001,-68.3595 82.5,-78.3595 86.0001,-68.3596 79.0001,-68.3595"/>
<text text-anchor="middle" x="101.5" y="-52" font-family="Helvetica,sans-Serif" font-size="10.00" fill="#000000"> losers_</text>
</g>
<!-- Node5 -->
<g id="node3" class="node">
<title>Node5</title>
<g id="a_node3"><a xlink:href="classtlx_1_1SimpleVector.html" target="_top" xlink:title="Simpler non&#45;growing vector without initialization. ">
<polygon fill="none" stroke="#000000" points="10,-178.5 10,-208.5 155,-208.5 155,-178.5 10,-178.5"/>
<text text-anchor="start" x="18" y="-196.5" font-family="Helvetica,sans-Serif" font-size="10.00" fill="#000000">SimpleVector&lt; ValueType,</text>
<text text-anchor="middle" x="82.5" y="-185.5" font-family="Helvetica,sans-Serif" font-size="10.00" fill="#000000"> Mode &gt;</text>
</a>
</g>
</g>
<!-- Node5&#45;&gt;Node4 -->
<g id="edge2" class="edge">
<title>Node5&#45;&gt;Node4</title>
<path fill="none" stroke="#ffa500" stroke-dasharray="5,2" d="M82.5,-168.1013C82.5,-152.9736 82.5,-134.0135 82.5,-119.7823"/>
<polygon fill="#ffa500" stroke="#ffa500" points="79.0001,-168.3169 82.5,-178.3169 86.0001,-168.317 79.0001,-168.3169"/>
<text text-anchor="start" x="82.5" y="-152" font-family="Helvetica,sans-Serif" font-size="10.00" fill="#000000"> &lt; tlx::LoserTreeCopyUnguarded</text>
<text text-anchor="middle" x="161.5" y="-141" font-family="Helvetica,sans-Serif" font-size="10.00" fill="#000000">Base::Loser &gt;</text>
</g>
</g>
</svg>
