<?xml version="1.0" encoding="UTF-8" standalone="no"?>
<!DOCTYPE svg PUBLIC "-//W3C//DTD SVG 1.1//EN"
 "http://www.w3.org/Graphics/SVG/1.1/DTD/svg11.dtd">
<!-- Generated by graphviz version 2.40.1 (20161225.0304)
 -->
<!-- Title: BlockSink Pages: 1 -->
<svg width="657pt" height="140pt"
 viewBox="0.00 0.00 657.00 140.00" xmlns="http://www.w3.org/2000/svg" xmlns:xlink="http://www.w3.org/1999/xlink">
<g id="graph0" class="graph" transform="scale(1 1) rotate(0) translate(4 136)">
<title>BlockSink</title>
<!-- Node0 -->
<g id="node1" class="node">
<title>Node0</title>
<polygon fill="#bfbfbf" stroke="#000000" points="338,-112.5 338,-131.5 403,-131.5 403,-112.5 338,-112.5"/>
<text text-anchor="middle" x="370.5" y="-119.5" font-family="Helvetica,sans-Serif" font-size="10.00" fill="#000000">BlockSink</text>
</g>
<!-- Node1 -->
<g id="node2" class="node">
<title>Node1</title>
<g id="a_node2"><a xlink:href="classthrill_1_1data_1_1BlockQueue.html" target="_top" xlink:title="A BlockQueue is a thread&#45;safe queue used to hand&#45;over Block objects between threads. ">
<polygon fill="none" stroke="#000000" points="0,-56.5 0,-75.5 75,-75.5 75,-56.5 0,-56.5"/>
<text text-anchor="middle" x="37.5" y="-63.5" font-family="Helvetica,sans-Serif" font-size="10.00" fill="#000000">BlockQueue</text>
</a>
</g>
</g>
<!-- Node0&#45;&gt;Node1 -->
<g id="edge1" class="edge">
<title>Node0&#45;&gt;Node1</title>
<path fill="none" stroke="#191970" d="M327.899,-115.8303C271.9179,-107.5667 170.5993,-92.0731 84.5,-76 81.4657,-75.4336 78.3268,-74.822 75.1768,-74.1901"/>
<polygon fill="#191970" stroke="#191970" points="327.4075,-119.2956 337.8104,-117.2876 328.4259,-112.37 327.4075,-119.2956"/>
</g>
<!-- Node2 -->
<g id="node3" class="node">
<title>Node2</title>
<g id="a_node3"><a xlink:href="classthrill_1_1data_1_1BlockQueueSink.html" target="_top" xlink:title="BlockSink which interfaces to a File. ">
<polygon fill="none" stroke="#000000" points="93.5,-56.5 93.5,-75.5 189.5,-75.5 189.5,-56.5 93.5,-56.5"/>
<text text-anchor="middle" x="141.5" y="-63.5" font-family="Helvetica,sans-Serif" font-size="10.00" fill="#000000">BlockQueueSink</text>
</a>
</g>
</g>
<!-- Node0&#45;&gt;Node2 -->
<g id="edge2" class="edge">
<title>Node0&#45;&gt;Node2</title>
<path fill="none" stroke="#191970" d="M327.966,-111.5987C285.6717,-101.256 221.3453,-85.5255 180.3791,-75.5076"/>
<polygon fill="#191970" stroke="#191970" points="327.1447,-115.0009 337.6899,-113.9766 328.8075,-108.2012 327.1447,-115.0009"/>
</g>
<!-- Node3 -->
<g id="node4" class="node">
<title>Node3</title>
<g id="a_node4"><a xlink:href="classthrill_1_1data_1_1BoundedBlockSink.html" target="_top" xlink:title="Derivative BlockSink which counts and limits how many bytes it has delivered as ByteBlocks for writin...">
<polygon fill="none" stroke="#000000" points="208,-56.5 208,-75.5 315,-75.5 315,-56.5 208,-56.5"/>
<text text-anchor="middle" x="261.5" y="-63.5" font-family="Helvetica,sans-Serif" font-size="10.00" fill="#000000">BoundedBlockSink</text>
</a>
</g>
</g>
<!-- Node0&#45;&gt;Node3 -->
<g id="edge3" class="edge">
<title>Node0&#45;&gt;Node3</title>
<path fill="none" stroke="#191970" d="M342.4658,-107.5971C322.9254,-97.558 297.3908,-84.4393 280.2688,-75.6427"/>
<polygon fill="#191970" stroke="#191970" points="341.0194,-110.7889 351.5136,-112.2455 344.2183,-104.5625 341.0194,-110.7889"/>
</g>
<!-- Node5 -->
<g id="node6" class="node">
<title>Node5</title>
<g id="a_node6"><a xlink:href="classthrill_1_1data_1_1DiscardSink.html" target="_top" xlink:title="DiscardSink is an BlockSink that discards all Blocks delivered to it. ">
<polygon fill="none" stroke="#000000" points="333.5,-56.5 333.5,-75.5 407.5,-75.5 407.5,-56.5 333.5,-56.5"/>
<text text-anchor="middle" x="370.5" y="-63.5" font-family="Helvetica,sans-Serif" font-size="10.00" fill="#000000">DiscardSink</text>
</a>
</g>
</g>
<!-- Node0&#45;&gt;Node5 -->
<g id="edge5" class="edge">
<title>Node0&#45;&gt;Node5</title>
<path fill="none" stroke="#191970" d="M370.5,-102.1575C370.5,-93.155 370.5,-82.9199 370.5,-75.6427"/>
<polygon fill="#191970" stroke="#191970" points="367.0001,-102.2455 370.5,-112.2455 374.0001,-102.2456 367.0001,-102.2455"/>
</g>
<!-- Node6 -->
<g id="node7" class="node">
<title>Node6</title>
<g id="a_node7"><a xlink:href="classthrill_1_1data_1_1File.html" target="_top" xlink:title="A File is an ordered sequence of Block objects for storing items. ">
<polygon fill="none" stroke="#000000" points="426,-56.5 426,-75.5 459,-75.5 459,-56.5 426,-56.5"/>
<text text-anchor="middle" x="442.5" y="-63.5" font-family="Helvetica,sans-Serif" font-size="10.00" fill="#000000">File</text>
</a>
</g>
</g>
<!-- Node0&#45;&gt;Node6 -->
<g id="edge6" class="edge">
<title>Node0&#45;&gt;Node6</title>
<path fill="none" stroke="#191970" d="M391.164,-105.928C403.7489,-96.1397 419.4092,-83.9595 430.1023,-75.6427"/>
<polygon fill="#191970" stroke="#191970" points="388.7862,-103.3434 383.0414,-112.2455 393.0838,-108.8688 388.7862,-103.3434"/>
</g>
<!-- Node7 -->
<g id="node8" class="node">
<title>Node7</title>
<g id="a_node8"><a xlink:href="classthrill_1_1data_1_1FileBlockSink.html" target="_top" xlink:title="BlockSink which interfaces to a File. ">
<polygon fill="none" stroke="#000000" points="477,-56.5 477,-75.5 558,-75.5 558,-56.5 477,-56.5"/>
<text text-anchor="middle" x="517.5" y="-63.5" font-family="Helvetica,sans-Serif" font-size="10.00" fill="#000000">FileBlockSink</text>
</a>
</g>
</g>
<!-- Node0&#45;&gt;Node7 -->
<g id="edge7" class="edge">
<title>Node0&#45;&gt;Node7</title>
<path fill="none" stroke="#191970" d="M405.1794,-108.7888C432.0198,-98.5639 468.547,-84.6488 492.5596,-75.5011"/>
<polygon fill="#191970" stroke="#191970" points="403.8691,-105.5425 395.7702,-112.3733 406.3611,-112.0839 403.8691,-105.5425"/>
</g>
<!-- Node8 -->
<g id="node9" class="node">
<title>Node8</title>
<g id="a_node9"><a xlink:href="classthrill_1_1data_1_1StreamSink.html" target="_top" xlink:title="StreamSink is an BlockSink that sends data via a network socket to the StreamData object on a differe...">
<polygon fill="none" stroke="#000000" points="576,-56.5 576,-75.5 649,-75.5 649,-56.5 576,-56.5"/>
<text text-anchor="middle" x="612.5" y="-63.5" font-family="Helvetica,sans-Serif" font-size="10.00" fill="#000000">StreamSink</text>
</a>
</g>
</g>
<!-- Node0&#45;&gt;Node8 -->
<g id="edge8" class="edge">
<title>Node0&#45;&gt;Node8</title>
<path fill="none" stroke="#191970" d="M413.1129,-112.1392C459.2008,-101.4742 531.9259,-84.6453 575.6385,-74.5299"/>
<polygon fill="#191970" stroke="#191970" points="412.0907,-108.7831 403.1372,-114.4476 413.6688,-115.6029 412.0907,-108.7831"/>
</g>
<!-- Node4 -->
<g id="node5" class="node">
<title>Node4</title>
<g id="a_node5"><a xlink:href="classthrill_1_1api_1_1WriteBinaryNode_1_1SysFileSink.html" target="_top" xlink:title="Implements BlockSink class writing to files with size limit. ">
<polygon fill="none" stroke="#000000" points="226,-.5 226,-19.5 297,-19.5 297,-.5 226,-.5"/>
<text text-anchor="middle" x="261.5" y="-7.5" font-family="Helvetica,sans-Serif" font-size="10.00" fill="#000000">SysFileSink</text>
</a>
</g>
</g>
<!-- Node3&#45;&gt;Node4 -->
<g id="edge4" class="edge">
<title>Node3&#45;&gt;Node4</title>
<path fill="none" stroke="#191970" d="M261.5,-46.1575C261.5,-37.155 261.5,-26.9199 261.5,-19.6427"/>
<polygon fill="#191970" stroke="#191970" points="258.0001,-46.2455 261.5,-56.2455 265.0001,-46.2456 258.0001,-46.2455"/>
</g>
</g>
</svg>
