<?xml version="1.0" encoding="UTF-8" standalone="no"?>
<!DOCTYPE svg PUBLIC "-//W3C//DTD SVG 1.1//EN"
 "http://www.w3.org/Graphics/SVG/1.1/DTD/svg11.dtd">
<!-- Generated by graphviz version 2.36.0 (20140111.2315)
 -->
<!-- Title: GenericCharStringSet&lt; CharType &gt; Pages: 1 -->
<svg width="618pt" height="109pt"
 viewBox="0.00 0.00 618.00 109.00" xmlns="http://www.w3.org/2000/svg" xmlns:xlink="http://www.w3.org/1999/xlink">
<g id="graph0" class="graph" transform="scale(1 1) rotate(0) translate(4 105)">
<title>GenericCharStringSet&lt; CharType &gt;</title>
<!-- Node1 -->
<g id="node1" class="node"><title>Node1</title>
<polygon fill="#bfbfbf" stroke="black" points="498,-50 498,-80 610,-80 610,-50 498,-50"/>
<text text-anchor="start" x="506" y="-68" font-family="Helvetica,sans-Serif" font-size="10.00">GenericCharStringSet</text>
<text text-anchor="middle" x="554" y="-57" font-family="Helvetica,sans-Serif" font-size="10.00">&lt; CharType &gt;</text>
</g>
<!-- Node2 -->
<g id="node2" class="node"><title>Node2</title>
<g id="a_node2"><a xlink:href="classtlx_1_1sort__strings__detail_1_1GenericCharStringSetTraits.html" target="_top" xlink:title="Traits class implementing StringSet concept for char* and unsigned char* strings. ...">
<polygon fill="none" stroke="black" points="319.5,-71 319.5,-101 456.5,-101 456.5,-71 319.5,-71"/>
<text text-anchor="start" x="327.5" y="-89" font-family="Helvetica,sans-Serif" font-size="10.00">GenericCharStringSetTraits</text>
<text text-anchor="middle" x="388" y="-78" font-family="Helvetica,sans-Serif" font-size="10.00">&lt; CharType &gt;</text>
</a>
</g>
</g>
<!-- Node2&#45;&gt;Node1 -->
<g id="edge1" class="edge"><title>Node2&#45;&gt;Node1</title>
<path fill="none" stroke="midnightblue" d="M466.728,-76.0471C477.291,-74.6944 487.949,-73.3297 497.998,-72.0429"/>
<polygon fill="midnightblue" stroke="midnightblue" points="466.126,-72.5954 456.652,-77.3373 467.016,-79.5387 466.126,-72.5954"/>
</g>
<!-- Node3 -->
<g id="node3" class="node"><title>Node3</title>
<g id="a_node3"><a xlink:href="classtlx_1_1sort__strings__detail_1_1StringSetBase.html" target="_top" xlink:title="StringSetBase\&lt; GenericChar\lStringSet\&lt; CharType \&gt;,\l GenericCharStringSetTraits\l\&lt; CharType \&gt; \&gt;">
<polygon fill="none" stroke="black" points="316.5,-0 316.5,-52 459.5,-52 459.5,-0 316.5,-0"/>
<text text-anchor="start" x="324.5" y="-40" font-family="Helvetica,sans-Serif" font-size="10.00">StringSetBase&lt; GenericChar</text>
<text text-anchor="start" x="324.5" y="-29" font-family="Helvetica,sans-Serif" font-size="10.00">StringSet&lt; CharType &gt;,</text>
<text text-anchor="start" x="324.5" y="-18" font-family="Helvetica,sans-Serif" font-size="10.00"> GenericCharStringSetTraits</text>
<text text-anchor="middle" x="388" y="-7" font-family="Helvetica,sans-Serif" font-size="10.00">&lt; CharType &gt; &gt;</text>
</a>
</g>
</g>
<!-- Node3&#45;&gt;Node1 -->
<g id="edge2" class="edge"><title>Node3&#45;&gt;Node1</title>
<path fill="none" stroke="midnightblue" d="M469.495,-45.142C479.114,-47.4295 488.761,-49.7236 497.906,-51.8983"/>
<polygon fill="midnightblue" stroke="midnightblue" points="470.041,-41.6744 459.503,-42.7658 468.421,-48.4845 470.041,-41.6744"/>
</g>
<!-- Node4 -->
<g id="node4" class="node"><title>Node4</title>
<g id="a_node4"><a xlink:href="classtlx_1_1sort__strings__detail_1_1StringSetBase.html" target="_top" xlink:title="Base class for common string set functions, included via CRTP. ">
<polygon fill="none" stroke="black" points="0,-11 0,-41 132,-41 132,-11 0,-11"/>
<text text-anchor="start" x="8" y="-29" font-family="Helvetica,sans-Serif" font-size="10.00">StringSetBase&lt; StringSet,</text>
<text text-anchor="middle" x="66" y="-18" font-family="Helvetica,sans-Serif" font-size="10.00"> Traits &gt;</text>
</a>
</g>
</g>
<!-- Node4&#45;&gt;Node3 -->
<g id="edge3" class="edge"><title>Node4&#45;&gt;Node3</title>
<path fill="none" stroke="orange" stroke-dasharray="5,2" d="M142.431,-26C195.07,-26 264.846,-26 316.393,-26"/>
<polygon fill="orange" stroke="orange" points="142.143,-22.5001 132.142,-26 142.142,-29.5001 142.143,-22.5001"/>
<text text-anchor="start" x="150" y="-51" font-family="Helvetica,sans-Serif" font-size="10.00"> &lt; GenericCharStringSet</text>
<text text-anchor="start" x="150" y="-40" font-family="Helvetica,sans-Serif" font-size="10.00">&lt; CharType &gt;, GenericCharString</text>
<text text-anchor="middle" x="224" y="-29" font-family="Helvetica,sans-Serif" font-size="10.00">SetTraits&lt; CharType &gt; &gt;</text>
</g>
</g>
</svg>
