<?xml version="1.0" encoding="UTF-8" standalone="no"?>
<!DOCTYPE svg PUBLIC "-//W3C//DTD SVG 1.1//EN"
 "http://www.w3.org/Graphics/SVG/1.1/DTD/svg11.dtd">
<!-- Generated by graphviz version 2.40.1 (20161225.0304)
 -->
<!-- Title: ReadBinaryNode&lt; ValueType &gt;::VfsFileBlockSource Pages: 1 -->
<svg width="1711pt" height="735pt"
 viewBox="0.00 0.00 1711.00 734.50" xmlns="http://www.w3.org/2000/svg" xmlns:xlink="http://www.w3.org/1999/xlink">
<g id="graph0" class="graph" transform="scale(1 1) rotate(0) translate(4 730.5)">
<title>ReadBinaryNode&lt; ValueType &gt;::VfsFileBlockSource</title>
<!-- Node1 -->
<g id="node1" class="node">
<title>Node1</title>
<polygon fill="#bfbfbf" stroke="#000000" points="1545,-113.5 1545,-143.5 1703,-143.5 1703,-113.5 1545,-113.5"/>
<text text-anchor="start" x="1553" y="-131.5" font-family="Helvetica,sans-Serif" font-size="10.00" fill="#000000">ReadBinaryNode&lt; ValueType</text>
<text text-anchor="middle" x="1624" y="-120.5" font-family="Helvetica,sans-Serif" font-size="10.00" fill="#000000"> &gt;::VfsFileBlockSource</text>
</g>
<!-- Node2 -->
<g id="node2" class="node">
<title>Node2</title>
<g id="a_node2"><a xlink:href="classthrill_1_1api_1_1Context.html" target="_top" xlink:title="The Context of a job is a unique instance per worker which holds references to all underlying parts o...">
<polygon fill="none" stroke="#000000" points="1358,-227 1358,-246 1413,-246 1413,-227 1358,-227"/>
<text text-anchor="middle" x="1385.5" y="-234" font-family="Helvetica,sans-Serif" font-size="10.00" fill="#000000">Context</text>
</a>
</g>
</g>
<!-- Node2&#45;&gt;Node1 -->
<g id="edge1" class="edge">
<title>Node2&#45;&gt;Node1</title>
<path fill="none" stroke="#9a32cd" stroke-dasharray="5,2" d="M1415.8855,-222.7405C1460.7547,-202.4224 1544.4173,-164.5374 1590.8317,-143.5196"/>
<polygon fill="#9a32cd" stroke="#9a32cd" points="1414.331,-219.6022 1406.6653,-226.9157 1417.2186,-225.9789 1414.331,-219.6022"/>
<text text-anchor="middle" x="1504" y="-195.5" font-family="Helvetica,sans-Serif" font-size="10.00" fill="#000000"> context_</text>
</g>
<!-- Node3 -->
<g id="node3" class="node">
<title>Node3</title>
<g id="a_node3"><a xlink:href="classthrill_1_1net_1_1Manager.html" target="_top" xlink:title="Initializes communication channels, manages communication channels and handles errors. ">
<polygon fill="none" stroke="#000000" points="519,-227 519,-246 578,-246 578,-227 519,-227"/>
<text text-anchor="middle" x="548.5" y="-234" font-family="Helvetica,sans-Serif" font-size="10.00" fill="#000000">Manager</text>
</a>
</g>
</g>
<!-- Node3&#45;&gt;Node2 -->
<g id="edge2" class="edge">
<title>Node3&#45;&gt;Node2</title>
<path fill="none" stroke="#9a32cd" stroke-dasharray="5,2" d="M588.5884,-236.3497C654.1371,-236.1122 788.3455,-235.6608 902,-235.5 1075.5482,-235.2545 1284.1361,-236.0578 1357.9703,-236.376"/>
<polygon fill="#9a32cd" stroke="#9a32cd" points="588.282,-232.8507 578.2949,-236.3873 588.3076,-239.8507 588.282,-232.8507"/>
<text text-anchor="middle" x="957.5" y="-238.5" font-family="Helvetica,sans-Serif" font-size="10.00" fill="#000000"> net_manager_</text>
</g>
<!-- Node3&#45;&gt;Node2 -->
<g id="edge32" class="edge">
<title>Node3&#45;&gt;Node2</title>
<path fill="none" stroke="#9a32cd" stroke-dasharray="5,2" d="M583.5017,-223.3687C646.2279,-200.6386 782.4213,-154.9146 902,-139.5 1082.0113,-116.2951 1295.4588,-198.0451 1363.5137,-226.8321"/>
<polygon fill="#9a32cd" stroke="#9a32cd" points="581.9154,-220.222 573.7243,-226.9419 584.3182,-226.7967 581.9154,-220.222"/>
<text text-anchor="middle" x="957.5" y="-142.5" font-family="Helvetica,sans-Serif" font-size="10.00" fill="#000000"> mem_manager_</text>
</g>
<!-- Node17 -->
<g id="node17" class="node">
<title>Node17</title>
<g id="a_node17"><a xlink:href="classthrill_1_1data_1_1Multiplexer.html" target="_top" xlink:title="Multiplexes virtual Connections on Dispatcher. ">
<polygon fill="none" stroke="#000000" points="1073.5,-189 1073.5,-208 1144.5,-208 1144.5,-189 1073.5,-189"/>
<text text-anchor="middle" x="1109" y="-196" font-family="Helvetica,sans-Serif" font-size="10.00" fill="#000000">Multiplexer</text>
</a>
</g>
</g>
<!-- Node3&#45;&gt;Node17 -->
<g id="edge28" class="edge">
<title>Node3&#45;&gt;Node17</title>
<path fill="none" stroke="#9a32cd" stroke-dasharray="5,2" d="M588.311,-229.5689C602.9626,-227.1469 619.7097,-224.529 635,-222.5 797.7495,-200.9029 994.2974,-198.3859 1073.441,-198.3313"/>
<polygon fill="#9a32cd" stroke="#9a32cd" points="587.3474,-226.1815 578.0636,-231.2867 588.5047,-233.0852 587.3474,-226.1815"/>
<text text-anchor="middle" x="812.5" y="-214.5" font-family="Helvetica,sans-Serif" font-size="10.00" fill="#000000"> mem_manager_</text>
</g>
<!-- Node21 -->
<g id="node21" class="node">
<title>Node21</title>
<g id="a_node21"><a xlink:href="classthrill_1_1data_1_1BlockPool.html" target="_top" xlink:title="Pool to allocate, keep, swap out/in, and free all ByteBlocks on the host. ">
<polygon fill="none" stroke="#000000" points="780,-286 780,-305 845,-305 845,-286 780,-286"/>
<text text-anchor="middle" x="812.5" y="-293" font-family="Helvetica,sans-Serif" font-size="10.00" fill="#000000">BlockPool</text>
</a>
</g>
</g>
<!-- Node3&#45;&gt;Node21 -->
<g id="edge27" class="edge">
<title>Node3&#45;&gt;Node21</title>
<path fill="none" stroke="#9a32cd" stroke-dasharray="5,2" d="M588.2618,-243.3123C623.7569,-249.6155 677.0746,-259.6301 723,-270.5 742.3101,-275.0704 763.7255,-281.0202 780.7654,-285.9688"/>
<polygon fill="#9a32cd" stroke="#9a32cd" points="588.7512,-239.8447 578.2956,-241.557 587.5369,-246.7386 588.7512,-239.8447"/>
<text text-anchor="middle" x="679" y="-273.5" font-family="Helvetica,sans-Serif" font-size="10.00" fill="#000000"> mem_manager_</text>
</g>
<!-- Node4 -->
<g id="node4" class="node">
<title>Node4</title>
<g id="a_node4"><a xlink:href="classthrill_1_1common_1_1ProfileTask.html" target="_top" xlink:title="ProfileTask">
<polygon fill="none" stroke="#000000" points="208,-310 208,-329 277,-329 277,-310 208,-310"/>
<text text-anchor="middle" x="242.5" y="-317" font-family="Helvetica,sans-Serif" font-size="10.00" fill="#000000">ProfileTask</text>
</a>
</g>
</g>
<!-- Node4&#45;&gt;Node3 -->
<g id="edge3" class="edge">
<title>Node4&#45;&gt;Node3</title>
<path fill="none" stroke="#191970" d="M286.6978,-307.5117C349.9328,-290.3597 464.5485,-259.2712 518.6711,-244.5909"/>
<polygon fill="#191970" stroke="#191970" points="285.7423,-304.1443 277.0073,-310.1402 287.5748,-310.9002 285.7423,-304.1443"/>
</g>
<!-- Node4&#45;&gt;Node21 -->
<g id="edge25" class="edge">
<title>Node4&#45;&gt;Node21</title>
<path fill="none" stroke="#191970" d="M287.3477,-320.5713C372.4672,-322.1604 563.2254,-323.5946 723,-309.5 741.9562,-307.8278 762.9876,-304.6087 779.8975,-301.6785"/>
<polygon fill="#191970" stroke="#191970" points="287.3251,-317.0703 277.2582,-320.3728 287.1873,-324.0689 287.3251,-317.0703"/>
</g>
<!-- Node5 -->
<g id="node5" class="node">
<title>Node5</title>
<g id="a_node5"><a xlink:href="classthrill_1_1common_1_1JsonLogger.html" target="_top" xlink:title="JsonLogger is a receiver of JSON output objects for logging. ">
<polygon fill="none" stroke="#000000" points="207.5,-227 207.5,-246 277.5,-246 277.5,-227 207.5,-227"/>
<text text-anchor="middle" x="242.5" y="-234" font-family="Helvetica,sans-Serif" font-size="10.00" fill="#000000">JsonLogger</text>
</a>
</g>
</g>
<!-- Node5&#45;&gt;Node2 -->
<g id="edge18" class="edge">
<title>Node5&#45;&gt;Node2</title>
<path fill="none" stroke="#9a32cd" stroke-dasharray="5,2" d="M258.1774,-219.6846C300.4967,-176.217 422.3937,-63.5 548.5,-63.5 548.5,-63.5 548.5,-63.5 1109,-63.5 1233.2924,-63.5 1347.7179,-190.6848 1377.8204,-226.9523"/>
<polygon fill="#9a32cd" stroke="#9a32cd" points="255.6064,-217.3089 251.2184,-226.9523 260.6624,-222.1501 255.6064,-217.3089"/>
<text text-anchor="middle" x="812.5" y="-77.5" font-family="Helvetica,sans-Serif" font-size="10.00" fill="#000000"> logger_</text>
<text text-anchor="middle" x="812.5" y="-66.5" font-family="Helvetica,sans-Serif" font-size="10.00" fill="#000000">base_logger_</text>
</g>
<!-- Node5&#45;&gt;Node3 -->
<g id="edge4" class="edge">
<title>Node5&#45;&gt;Node3</title>
<path fill="none" stroke="#9a32cd" stroke-dasharray="5,2" d="M287.7194,-236.5C351.2138,-236.5 465.0308,-236.5 518.8074,-236.5"/>
<polygon fill="#9a32cd" stroke="#9a32cd" points="287.6021,-233.0001 277.6021,-236.5 287.6021,-240.0001 287.6021,-233.0001"/>
<text text-anchor="middle" x="398" y="-239.5" font-family="Helvetica,sans-Serif" font-size="10.00" fill="#000000"> logger_</text>
</g>
<!-- Node5&#45;&gt;Node5 -->
<g id="edge6" class="edge">
<title>Node5&#45;&gt;Node5</title>
<path fill="none" stroke="#9a32cd" stroke-dasharray="5,2" d="M221.0196,-255.9C222.4541,-260.8146 229.6143,-264.5 242.5,-264.5 263.1172,-264.5 269.0768,-255.0653 260.379,-246.2571"/>
<polygon fill="#9a32cd" stroke="#9a32cd" points="224.401,-256.8496 224.621,-246.2571 217.8434,-254.4004 224.401,-256.8496"/>
<text text-anchor="middle" x="242.5" y="-267.5" font-family="Helvetica,sans-Serif" font-size="10.00" fill="#000000"> super_</text>
</g>
<!-- Node5&#45;&gt;Node21 -->
<g id="edge26" class="edge">
<title>Node5&#45;&gt;Node21</title>
<path fill="none" stroke="#9a32cd" stroke-dasharray="5,2" d="M287.5308,-244.4625C302.3072,-246.92 318.8283,-249.5024 334,-251.5 501.0733,-273.4981 702.4075,-288.1757 779.9116,-293.389"/>
<polygon fill="#9a32cd" stroke="#9a32cd" points="288.0608,-241.0026 277.6178,-242.7899 286.8961,-247.905 288.0608,-241.0026"/>
<text text-anchor="middle" x="548.5" y="-283.5" font-family="Helvetica,sans-Serif" font-size="10.00" fill="#000000"> logger_</text>
</g>
<!-- Node6 -->
<g id="node6" class="node">
<title>Node6</title>
<g id="a_node6"><a xlink:href="classthrill_1_1common_1_1JsonVerbatim.html" target="_top" xlink:title="A special class to output verbatim text. ">
<polygon fill="none" stroke="#000000" points="0,-227 0,-246 81,-246 81,-227 0,-227"/>
<text text-anchor="middle" x="40.5" y="-234" font-family="Helvetica,sans-Serif" font-size="10.00" fill="#000000">JsonVerbatim</text>
</a>
</g>
</g>
<!-- Node6&#45;&gt;Node5 -->
<g id="edge5" class="edge">
<title>Node6&#45;&gt;Node5</title>
<path fill="none" stroke="#9a32cd" stroke-dasharray="5,2" d="M91.736,-236.5C127.9232,-236.5 175.4727,-236.5 207.4116,-236.5"/>
<polygon fill="#9a32cd" stroke="#9a32cd" points="91.3777,-233.0001 81.3777,-236.5 91.3777,-240.0001 91.3777,-233.0001"/>
<text text-anchor="middle" x="125" y="-239.5" font-family="Helvetica,sans-Serif" font-size="10.00" fill="#000000"> common_</text>
</g>
<!-- Node7 -->
<g id="node7" class="node">
<title>Node7</title>
<g id="a_node7"><a xlink:href="classthrill_1_1net_1_1FlowControlChannel.html" target="_top" xlink:title="Provides a blocking collection for communication. ">
<polygon fill="none" stroke="#000000" points="1052,-388 1052,-407 1166,-407 1166,-388 1052,-388"/>
<text text-anchor="middle" x="1109" y="-395" font-family="Helvetica,sans-Serif" font-size="10.00" fill="#000000">FlowControlChannel</text>
</a>
</g>
</g>
<!-- Node7&#45;&gt;Node2 -->
<g id="edge7" class="edge">
<title>Node7&#45;&gt;Node2</title>
<path fill="none" stroke="#9a32cd" stroke-dasharray="5,2" d="M1176.1331,-387.1774C1211.9693,-379.4471 1255.6395,-366.3209 1290,-344.5 1332.0458,-317.7984 1366.4307,-267.349 1379.6582,-246.207"/>
<polygon fill="#9a32cd" stroke="#9a32cd" points="1175.3338,-383.7685 1166.2475,-389.2174 1176.7485,-390.6241 1175.3338,-383.7685"/>
<text text-anchor="middle" x="1247.5" y="-382.5" font-family="Helvetica,sans-Serif" font-size="10.00" fill="#000000"> net</text>
</g>
<!-- Node8 -->
<g id="node8" class="node">
<title>Node8</title>
<g id="a_node8"><a xlink:href="classtlx_1_1ThreadBarrierSpin.html" target="_top" xlink:title="Implements a thread barrier using atomics and a spin lock that can be used to synchronize threads...">
<polygon fill="none" stroke="#000000" points="760.5,-694 760.5,-713 864.5,-713 864.5,-694 760.5,-694"/>
<text text-anchor="middle" x="812.5" y="-701" font-family="Helvetica,sans-Serif" font-size="10.00" fill="#000000">ThreadBarrierSpin</text>
</a>
</g>
</g>
<!-- Node8&#45;&gt;Node7 -->
<g id="edge8" class="edge">
<title>Node8&#45;&gt;Node7</title>
<path fill="none" stroke="#9a32cd" stroke-dasharray="5,2" d="M869.2286,-691.9887C880.1021,-689.8112 891.4001,-687.5685 902,-685.5 926.6394,-680.6917 996.2937,-683.2382 1013,-664.5 1049.7718,-623.2559 995.312,-458.6853 1031,-416.5 1036.4911,-410.0092 1043.7941,-405.5329 1051.7336,-402.4795"/>
<polygon fill="#9a32cd" stroke="#9a32cd" points="868.5096,-688.5631 859.3943,-693.9632 869.8876,-695.4261 868.5096,-688.5631"/>
<text text-anchor="middle" x="957.5" y="-688.5" font-family="Helvetica,sans-Serif" font-size="10.00" fill="#000000"> barrier_</text>
</g>
<!-- Node22 -->
<g id="node22" class="node">
<title>Node22</title>
<g id="a_node22"><a xlink:href="classthrill_1_1net_1_1FlowControlChannelManager.html" target="_top" xlink:title="FlowControlChannelManager">
<polygon fill="none" stroke="#000000" points="1031,-587 1031,-606 1187,-606 1187,-587 1031,-587"/>
<text text-anchor="middle" x="1109" y="-594" font-family="Helvetica,sans-Serif" font-size="10.00" fill="#000000">FlowControlChannelManager</text>
</a>
</g>
</g>
<!-- Node8&#45;&gt;Node22 -->
<g id="edge31" class="edge">
<title>Node8&#45;&gt;Node22</title>
<path fill="none" stroke="#9a32cd" stroke-dasharray="5,2" d="M874.8865,-713.9735C915.9009,-718.0264 969.7742,-717.8197 1013,-698.5 1057.4027,-678.6543 1091.0199,-627.5617 1103.6027,-606.1583"/>
<polygon fill="#9a32cd" stroke="#9a32cd" points="875.0728,-710.473 864.7505,-712.8604 874.3086,-717.4312 875.0728,-710.473"/>
<text text-anchor="middle" x="957.5" y="-718.5" font-family="Helvetica,sans-Serif" font-size="10.00" fill="#000000"> barrier_</text>
</g>
<!-- Node9 -->
<g id="node9" class="node">
<title>Node9</title>
<g id="a_node9"><a xlink:href="classthrill_1_1net_1_1FlowControlChannel_1_1LocalData.html" target="_top" xlink:title="LocalData">
<polygon fill="none" stroke="#000000" points="780,-388 780,-407 845,-407 845,-388 780,-388"/>
<text text-anchor="middle" x="812.5" y="-395" font-family="Helvetica,sans-Serif" font-size="10.00" fill="#000000">LocalData</text>
</a>
</g>
</g>
<!-- Node9&#45;&gt;Node7 -->
<g id="edge9" class="edge">
<title>Node9&#45;&gt;Node7</title>
<path fill="none" stroke="#9a32cd" stroke-dasharray="5,2" d="M855.2416,-397.5C906.9669,-397.5 994.2608,-397.5 1051.7608,-397.5"/>
<polygon fill="#9a32cd" stroke="#9a32cd" points="855.0789,-394.0001 845.0788,-397.5 855.0788,-401.0001 855.0789,-394.0001"/>
<text text-anchor="middle" x="957.5" y="-400.5" font-family="Helvetica,sans-Serif" font-size="10.00" fill="#000000"> shmem_</text>
</g>
<!-- Node10 -->
<g id="node10" class="node">
<title>Node10</title>
<g id="a_node10"><a xlink:href="classthrill_1_1net_1_1Group.html" target="_top" xlink:title="A network Group is a collection of enumerated communication links, which provides point&#45;to&#45;point comm...">
<polygon fill="none" stroke="#000000" points="789.5,-337 789.5,-356 835.5,-356 835.5,-337 789.5,-337"/>
<text text-anchor="middle" x="812.5" y="-344" font-family="Helvetica,sans-Serif" font-size="10.00" fill="#000000">Group</text>
</a>
</g>
</g>
<!-- Node10&#45;&gt;Node7 -->
<g id="edge10" class="edge">
<title>Node10&#45;&gt;Node7</title>
<path fill="none" stroke="#9a32cd" stroke-dasharray="5,2" d="M845.7939,-352.2268C896.1847,-360.8943 992.4075,-377.4453 1053.5024,-387.954"/>
<polygon fill="#9a32cd" stroke="#9a32cd" points="846.2145,-348.7478 835.7659,-350.5019 845.0278,-355.6465 846.2145,-348.7478"/>
<text text-anchor="middle" x="957.5" y="-382.5" font-family="Helvetica,sans-Serif" font-size="10.00" fill="#000000"> group_</text>
</g>
<!-- Node10&#45;&gt;Node17 -->
<g id="edge23" class="edge">
<title>Node10&#45;&gt;Node17</title>
<path fill="none" stroke="#9a32cd" stroke-dasharray="5,2" d="M845.7296,-340.2632C886.9368,-331.5729 958.4085,-313.3167 1013,-282.5 1049.6426,-261.8154 1084.7747,-225.5638 1100.4541,-208.2463"/>
<polygon fill="#9a32cd" stroke="#9a32cd" points="844.7833,-336.8842 835.6875,-342.3171 846.186,-343.7422 844.7833,-336.8842"/>
<text text-anchor="middle" x="957.5" y="-328.5" font-family="Helvetica,sans-Serif" font-size="10.00" fill="#000000"> group_</text>
</g>
<!-- Node11 -->
<g id="node11" class="node">
<title>Node11</title>
<g id="a_node11"><a xlink:href="classthrill_1_1common_1_1AtomicMovable.html" target="_top" xlink:title="AtomicMovable\&lt; size_t \&gt;">
<polygon fill="none" stroke="#000000" points="741,-588 741,-607 884,-607 884,-588 741,-588"/>
<text text-anchor="middle" x="812.5" y="-595" font-family="Helvetica,sans-Serif" font-size="10.00" fill="#000000">AtomicMovable&lt; size_t &gt;</text>
</a>
</g>
</g>
<!-- Node11&#45;&gt;Node7 -->
<g id="edge11" class="edge">
<title>Node11&#45;&gt;Node7</title>
<path fill="none" stroke="#9a32cd" stroke-dasharray="5,2" d="M894.1997,-597.6955C942.1097,-595.9631 996.4073,-590.1756 1013,-573.5 1062.5397,-523.7129 984.5297,-469.1636 1031,-416.5 1036.6252,-410.1251 1043.9984,-405.7094 1051.9671,-402.6812"/>
<polygon fill="#9a32cd" stroke="#9a32cd" points="893.9768,-594.2006 884.089,-598.006 894.1918,-601.1973 893.9768,-594.2006"/>
<text text-anchor="middle" x="957.5" y="-654.5" font-family="Helvetica,sans-Serif" font-size="10.00" fill="#000000"> count_allreduce_</text>
<text text-anchor="middle" x="957.5" y="-643.5" font-family="Helvetica,sans-Serif" font-size="10.00" fill="#000000">count_broadcast_</text>
<text text-anchor="middle" x="957.5" y="-632.5" font-family="Helvetica,sans-Serif" font-size="10.00" fill="#000000">count_reduce_</text>
<text text-anchor="middle" x="957.5" y="-621.5" font-family="Helvetica,sans-Serif" font-size="10.00" fill="#000000">count_prefixsum_</text>
<text text-anchor="middle" x="957.5" y="-610.5" font-family="Helvetica,sans-Serif" font-size="10.00" fill="#000000">count_barrier_</text>
<text text-anchor="middle" x="957.5" y="-599.5" font-family="Helvetica,sans-Serif" font-size="10.00" fill="#000000">count_predecessor_</text>
</g>
<!-- Node12 -->
<g id="node12" class="node">
<title>Node12</title>
<g id="a_node12"><a xlink:href="classthrill_1_1common_1_1AtomicMovable.html" target="_top" xlink:title="This is a derivative of std::atomic which enables easier and less error&#45;prone writing of move&#45;only cl...">
<polygon fill="none" stroke="#000000" points="488,-588 488,-607 609,-607 609,-588 488,-588"/>
<text text-anchor="middle" x="548.5" y="-595" font-family="Helvetica,sans-Serif" font-size="10.00" fill="#000000">AtomicMovable&lt; T &gt;</text>
</a>
</g>
</g>
<!-- Node12&#45;&gt;Node11 -->
<g id="edge12" class="edge">
<title>Node12&#45;&gt;Node11</title>
<path fill="none" stroke="#ffa500" stroke-dasharray="5,2" d="M619.4461,-597.5C657.0936,-597.5 703.2392,-597.5 740.9735,-597.5"/>
<polygon fill="#ffa500" stroke="#ffa500" points="619.067,-594.0001 609.0669,-597.5 619.0669,-601.0001 619.067,-594.0001"/>
<text text-anchor="middle" x="679" y="-600.5" font-family="Helvetica,sans-Serif" font-size="10.00" fill="#000000"> &lt; size_t &gt;</text>
</g>
<!-- Node13 -->
<g id="node13" class="node">
<title>Node13</title>
<g id="a_node13"><a xlink:href="classthrill_1_1common_1_1StatsTimerBaseStopped.html" target="_top" xlink:title="StatsTimerBaseStopped\l\&lt; enable_stats \&gt;">
<polygon fill="none" stroke="#000000" points="745.5,-426.5 745.5,-456.5 879.5,-456.5 879.5,-426.5 745.5,-426.5"/>
<text text-anchor="start" x="753.5" y="-444.5" font-family="Helvetica,sans-Serif" font-size="10.00" fill="#000000">StatsTimerBaseStopped</text>
<text text-anchor="middle" x="812.5" y="-433.5" font-family="Helvetica,sans-Serif" font-size="10.00" fill="#000000">&lt; enable_stats &gt;</text>
</a>
</g>
</g>
<!-- Node13&#45;&gt;Node7 -->
<g id="edge13" class="edge">
<title>Node13&#45;&gt;Node7</title>
<path fill="none" stroke="#9a32cd" stroke-dasharray="5,2" d="M889.7336,-430.0387C940.5198,-422.5021 1005.8648,-412.8051 1051.9635,-405.9641"/>
<polygon fill="#9a32cd" stroke="#9a32cd" points="889.1583,-426.5856 879.7804,-431.5157 890.1859,-433.5098 889.1583,-426.5856"/>
<text text-anchor="start" x="902" y="-561.5" font-family="Helvetica,sans-Serif" font-size="10.00" fill="#000000"> timer_communication</text>
<text text-anchor="middle" x="957.5" y="-550.5" font-family="Helvetica,sans-Serif" font-size="10.00" fill="#000000">_</text>
<text text-anchor="start" x="902" y="-539.5" font-family="Helvetica,sans-Serif" font-size="10.00" fill="#000000">timer_predecessor</text>
<text text-anchor="middle" x="957.5" y="-528.5" font-family="Helvetica,sans-Serif" font-size="10.00" fill="#000000">_</text>
<text text-anchor="start" x="902" y="-517.5" font-family="Helvetica,sans-Serif" font-size="10.00" fill="#000000">timer_allreduce</text>
<text text-anchor="middle" x="957.5" y="-506.5" font-family="Helvetica,sans-Serif" font-size="10.00" fill="#000000">_</text>
<text text-anchor="start" x="902" y="-495.5" font-family="Helvetica,sans-Serif" font-size="10.00" fill="#000000">timer_barrier</text>
<text text-anchor="middle" x="957.5" y="-484.5" font-family="Helvetica,sans-Serif" font-size="10.00" fill="#000000">_</text>
<text text-anchor="start" x="902" y="-473.5" font-family="Helvetica,sans-Serif" font-size="10.00" fill="#000000">timer_prefixsum</text>
<text text-anchor="middle" x="957.5" y="-462.5" font-family="Helvetica,sans-Serif" font-size="10.00" fill="#000000">_</text>
<text text-anchor="start" x="902" y="-451.5" font-family="Helvetica,sans-Serif" font-size="10.00" fill="#000000">timer_broadcast</text>
<text text-anchor="middle" x="957.5" y="-440.5" font-family="Helvetica,sans-Serif" font-size="10.00" fill="#000000">_</text>
<text text-anchor="middle" x="957.5" y="-429.5" font-family="Helvetica,sans-Serif" font-size="10.00" fill="#000000">timer_reduce_</text>
</g>
<!-- Node14 -->
<g id="node14" class="node">
<title>Node14</title>
<g id="a_node14"><a xlink:href="classthrill_1_1common_1_1StatsTimerBase.html" target="_top" xlink:title="This class provides a statistical stop watch timer that can easily be deactivated using a boolean tem...">
<polygon fill="none" stroke="#000000" points="169,-432 169,-451 316,-451 316,-432 169,-432"/>
<text text-anchor="middle" x="242.5" y="-439" font-family="Helvetica,sans-Serif" font-size="10.00" fill="#000000">StatsTimerBase&lt; Active &gt;</text>
</a>
</g>
</g>
<!-- Node14&#45;&gt;Node13 -->
<g id="edge14" class="edge">
<title>Node14&#45;&gt;Node13</title>
<path fill="none" stroke="#191970" d="M326.1905,-441.5C439.8644,-441.5 640.8405,-441.5 745.2706,-441.5"/>
<polygon fill="#191970" stroke="#191970" points="326.1417,-438.0001 316.1417,-441.5 326.1417,-445.0001 326.1417,-438.0001"/>
</g>
<!-- Node15 -->
<g id="node15" class="node">
<title>Node15</title>
<g id="a_node15"><a xlink:href="classthrill_1_1common_1_1StatsTimerBaseStopped.html" target="_top" xlink:title="StatsTimerBaseStopped\l\&lt; Active \&gt;">
<polygon fill="none" stroke="#000000" points="481.5,-395.5 481.5,-425.5 615.5,-425.5 615.5,-395.5 481.5,-395.5"/>
<text text-anchor="start" x="489.5" y="-413.5" font-family="Helvetica,sans-Serif" font-size="10.00" fill="#000000">StatsTimerBaseStopped</text>
<text text-anchor="middle" x="548.5" y="-402.5" font-family="Helvetica,sans-Serif" font-size="10.00" fill="#000000">&lt; Active &gt;</text>
</a>
</g>
</g>
<!-- Node14&#45;&gt;Node15 -->
<g id="edge16" class="edge">
<title>Node14&#45;&gt;Node15</title>
<path fill="none" stroke="#191970" d="M326.4068,-432.9996C375.2032,-428.0562 435.8688,-421.9104 481.4597,-417.2917"/>
<polygon fill="#191970" stroke="#191970" points="325.7803,-429.5451 316.184,-434.0353 326.4859,-436.5095 325.7803,-429.5451"/>
</g>
<!-- Node15&#45;&gt;Node13 -->
<g id="edge15" class="edge">
<title>Node15&#45;&gt;Node13</title>
<path fill="none" stroke="#ffa500" stroke-dasharray="5,2" d="M625.758,-418.4952C656.0938,-421.7436 691.2001,-425.6375 723,-429.5 730.1589,-430.3695 737.6348,-431.314 745.0827,-432.2785"/>
<polygon fill="#ffa500" stroke="#ffa500" points="625.9794,-414.999 615.6647,-417.4193 625.2374,-421.9596 625.9794,-414.999"/>
<text text-anchor="middle" x="679" y="-432.5" font-family="Helvetica,sans-Serif" font-size="10.00" fill="#000000"> &lt; enable_stats &gt;</text>
</g>
<!-- Node16 -->
<g id="node16" class="node">
<title>Node16</title>
<g id="a_node16"><a xlink:href="classthrill_1_1api_1_1MemoryConfig.html" target="_top" xlink:title="MemoryConfig">
<polygon fill="none" stroke="#000000" points="1065.5,-426 1065.5,-445 1152.5,-445 1152.5,-426 1065.5,-426"/>
<text text-anchor="middle" x="1109" y="-433" font-family="Helvetica,sans-Serif" font-size="10.00" fill="#000000">MemoryConfig</text>
</a>
</g>
</g>
<!-- Node16&#45;&gt;Node2 -->
<g id="edge17" class="edge">
<title>Node16&#45;&gt;Node2</title>
<path fill="none" stroke="#9a32cd" stroke-dasharray="5,2" d="M1162.7795,-434.2617C1201.3902,-430.9306 1252.9407,-421.2345 1290,-394.5 1344.5874,-355.1208 1373.8805,-274.0279 1382.6452,-246.1566"/>
<polygon fill="#9a32cd" stroke="#9a32cd" points="1162.4698,-430.775 1152.7581,-435.0099 1162.991,-437.7556 1162.4698,-430.775"/>
<text text-anchor="middle" x="1247.5" y="-430.5" font-family="Helvetica,sans-Serif" font-size="10.00" fill="#000000"> mem_config_</text>
</g>
<!-- Node17&#45;&gt;Node2 -->
<g id="edge19" class="edge">
<title>Node17&#45;&gt;Node2</title>
<path fill="none" stroke="#9a32cd" stroke-dasharray="5,2" d="M1154.9968,-199.467C1191.7449,-200.8 1244.4532,-203.9688 1290,-211.5 1313.1653,-215.3304 1338.8869,-222.2209 1357.7945,-227.7992"/>
<polygon fill="#9a32cd" stroke="#9a32cd" points="1154.7133,-195.9558 1144.6031,-199.1235 1154.482,-202.952 1154.7133,-195.9558"/>
<text text-anchor="middle" x="1247.5" y="-214.5" font-family="Helvetica,sans-Serif" font-size="10.00" fill="#000000"> multiplexer_</text>
</g>
<!-- Node18 -->
<g id="node18" class="node">
<title>Node18</title>
<g id="a_node18"><a xlink:href="classthrill_1_1net_1_1DispatcherThread.html" target="_top" xlink:title="DispatcherThread contains a net::Dispatcher object and an associated thread that runs in the dispatch...">
<polygon fill="none" stroke="#000000" points="761,-104 761,-123 864,-123 864,-104 761,-104"/>
<text text-anchor="middle" x="812.5" y="-111" font-family="Helvetica,sans-Serif" font-size="10.00" fill="#000000">DispatcherThread</text>
</a>
</g>
</g>
<!-- Node18&#45;&gt;Node17 -->
<g id="edge20" class="edge">
<title>Node18&#45;&gt;Node17</title>
<path fill="none" stroke="#9a32cd" stroke-dasharray="5,2" d="M840.2933,-127.3882C857.6797,-135.6259 880.7378,-145.7447 902,-152.5 950.0161,-167.7555 963.8301,-164.5184 1013,-175.5 1033.0715,-179.9828 1055.4197,-185.3166 1073.5,-189.7187"/>
<polygon fill="#9a32cd" stroke="#9a32cd" points="841.7932,-124.2259 831.2651,-123.0386 838.7549,-130.5322 841.7932,-124.2259"/>
<text text-anchor="middle" x="957.5" y="-178.5" font-family="Helvetica,sans-Serif" font-size="10.00" fill="#000000"> dispatcher_</text>
</g>
<!-- Node19 -->
<g id="node19" class="node">
<title>Node19</title>
<g id="a_node19"><a xlink:href="classthrill_1_1common_1_1ConcurrentQueue.html" target="_top" xlink:title="ConcurrentQueue\&lt; tlx\l::Delegate, thrill::mem\l::FixedPoolAllocator\&lt; tlx\l::Delegate \&gt; \&gt;">
<polygon fill="none" stroke="#000000" points="480,-92.5 480,-144.5 617,-144.5 617,-92.5 480,-92.5"/>
<text text-anchor="start" x="488" y="-132.5" font-family="Helvetica,sans-Serif" font-size="10.00" fill="#000000">ConcurrentQueue&lt; tlx</text>
<text text-anchor="start" x="488" y="-121.5" font-family="Helvetica,sans-Serif" font-size="10.00" fill="#000000">::Delegate, thrill::mem</text>
<text text-anchor="start" x="488" y="-110.5" font-family="Helvetica,sans-Serif" font-size="10.00" fill="#000000">::FixedPoolAllocator&lt; tlx</text>
<text text-anchor="middle" x="548.5" y="-99.5" font-family="Helvetica,sans-Serif" font-size="10.00" fill="#000000">::Delegate &gt; &gt;</text>
</a>
</g>
</g>
<!-- Node19&#45;&gt;Node18 -->
<g id="edge21" class="edge">
<title>Node19&#45;&gt;Node18</title>
<path fill="none" stroke="#9a32cd" stroke-dasharray="5,2" d="M627.3745,-117.0062C670.5685,-116.1881 722.8721,-115.1975 760.8512,-114.4782"/>
<polygon fill="#9a32cd" stroke="#9a32cd" points="627.1056,-113.5105 617.1737,-117.1994 627.2382,-120.5093 627.1056,-113.5105"/>
<text text-anchor="middle" x="679" y="-120.5" font-family="Helvetica,sans-Serif" font-size="10.00" fill="#000000"> jobqueue_</text>
</g>
<!-- Node20 -->
<g id="node20" class="node">
<title>Node20</title>
<g id="a_node20"><a xlink:href="classthrill_1_1common_1_1ConcurrentQueue.html" target="_top" xlink:title="This is a queue, similar to std::queue and tbb::concurrent_queue, except that it uses mutexes for syn...">
<polygon fill="none" stroke="#000000" points="181.5,-.5 181.5,-30.5 303.5,-30.5 303.5,-.5 181.5,-.5"/>
<text text-anchor="start" x="189.5" y="-18.5" font-family="Helvetica,sans-Serif" font-size="10.00" fill="#000000">ConcurrentQueue&lt; T,</text>
<text text-anchor="middle" x="242.5" y="-7.5" font-family="Helvetica,sans-Serif" font-size="10.00" fill="#000000"> Allocator &gt;</text>
</a>
</g>
</g>
<!-- Node20&#45;&gt;Node19 -->
<g id="edge22" class="edge">
<title>Node20&#45;&gt;Node19</title>
<path fill="none" stroke="#ffa500" stroke-dasharray="5,2" d="M296.8628,-33.7986C347.9153,-50.9829 424.5069,-76.7638 479.7748,-95.367"/>
<polygon fill="#ffa500" stroke="#ffa500" points="297.9168,-30.4605 287.3227,-30.5874 295.6837,-37.0947 297.9168,-30.4605"/>
<text text-anchor="start" x="334" y="-113.5" font-family="Helvetica,sans-Serif" font-size="10.00" fill="#000000"> &lt; tlx::Delegate, thrill</text>
<text text-anchor="start" x="334" y="-102.5" font-family="Helvetica,sans-Serif" font-size="10.00" fill="#000000">::mem::FixedPoolAllocator</text>
<text text-anchor="middle" x="398" y="-91.5" font-family="Helvetica,sans-Serif" font-size="10.00" fill="#000000">&lt; tlx::Delegate &gt; &gt;</text>
</g>
<!-- Node21&#45;&gt;Node2 -->
<g id="edge29" class="edge">
<title>Node21&#45;&gt;Node2</title>
<path fill="none" stroke="#9a32cd" stroke-dasharray="5,2" d="M854.7978,-307.5339C869.5985,-311.1803 886.4132,-314.6959 902,-316.5 1077.7974,-336.848 1287.1096,-271.318 1359.4213,-246.0289"/>
<polygon fill="#9a32cd" stroke="#9a32cd" points="855.468,-304.0928 844.9127,-305.008 853.7349,-310.8749 855.468,-304.0928"/>
<text text-anchor="middle" x="1109" y="-320.5" font-family="Helvetica,sans-Serif" font-size="10.00" fill="#000000"> block_pool_</text>
</g>
<!-- Node21&#45;&gt;Node17 -->
<g id="edge24" class="edge">
<title>Node21&#45;&gt;Node17</title>
<path fill="none" stroke="#9a32cd" stroke-dasharray="5,2" d="M855.0243,-283.5594C869.8437,-279.5413 886.6122,-275.1542 902,-271.5 951.0181,-259.8595 965.5407,-265.4081 1013,-248.5 1043.0932,-237.7788 1075.5529,-219.2478 1093.9656,-208.0071"/>
<polygon fill="#9a32cd" stroke="#9a32cd" points="853.8397,-280.2548 845.1171,-286.2687 855.6862,-287.0069 853.8397,-280.2548"/>
<text text-anchor="middle" x="957.5" y="-274.5" font-family="Helvetica,sans-Serif" font-size="10.00" fill="#000000"> block_pool_</text>
</g>
<!-- Node22&#45;&gt;Node2 -->
<g id="edge30" class="edge">
<title>Node22&#45;&gt;Node2</title>
<path fill="none" stroke="#9a32cd" stroke-dasharray="5,2" d="M1133.0495,-581.1141C1170.722,-556.0028 1244.0807,-502.9088 1290,-442.5 1340.8118,-375.6549 1373.1819,-277.4354 1382.6227,-246.3257"/>
<polygon fill="#9a32cd" stroke="#9a32cd" points="1130.7104,-578.4633 1124.279,-586.8828 1134.5571,-584.3116 1130.7104,-578.4633"/>
<text text-anchor="middle" x="1247.5" y="-527.5" font-family="Helvetica,sans-Serif" font-size="10.00" fill="#000000"> flow_manager_</text>
</g>
<!-- Node23 -->
<g id="node23" class="node">
<title>Node23</title>
<g id="a_node23"><a xlink:href="classtlx_1_1CountingPtr.html" target="_top" xlink:title="CountingPtr\&lt; ReadStream \&gt;">
<polygon fill="none" stroke="#000000" points="1308,-100 1308,-119 1463,-119 1463,-100 1308,-100"/>
<text text-anchor="middle" x="1385.5" y="-107" font-family="Helvetica,sans-Serif" font-size="10.00" fill="#000000">CountingPtr&lt; ReadStream &gt;</text>
</a>
</g>
</g>
<!-- Node23&#45;&gt;Node1 -->
<g id="edge33" class="edge">
<title>Node23&#45;&gt;Node1</title>
<path fill="none" stroke="#9a32cd" stroke-dasharray="5,2" d="M1473.4346,-110.2775C1491.1914,-110.9149 1509.7121,-111.9252 1527,-113.5 1532.8547,-114.0333 1538.8931,-114.6953 1544.9593,-115.4416"/>
<polygon fill="#9a32cd" stroke="#9a32cd" points="1473.1906,-106.7679 1463.083,-109.9438 1472.965,-113.7643 1473.1906,-106.7679"/>
<text text-anchor="middle" x="1504" y="-116.5" font-family="Helvetica,sans-Serif" font-size="10.00" fill="#000000"> stream_</text>
</g>
<!-- Node24 -->
<g id="node24" class="node">
<title>Node24</title>
<g id="a_node24"><a xlink:href="classtlx_1_1CountingPtr.html" target="_top" xlink:title="High&#45;performance smart pointer used as a wrapping reference counting pointer. ">
<polygon fill="none" stroke="#000000" points="1054,-4.5 1054,-34.5 1164,-34.5 1164,-4.5 1054,-4.5"/>
<text text-anchor="start" x="1062" y="-22.5" font-family="Helvetica,sans-Serif" font-size="10.00" fill="#000000">CountingPtr&lt; Type,</text>
<text text-anchor="middle" x="1109" y="-11.5" font-family="Helvetica,sans-Serif" font-size="10.00" fill="#000000"> Deleter &gt;</text>
</a>
</g>
</g>
<!-- Node24&#45;&gt;Node23 -->
<g id="edge34" class="edge">
<title>Node24&#45;&gt;Node23</title>
<path fill="none" stroke="#ffa500" stroke-dasharray="5,2" d="M1174.4263,-18.0809C1209.7267,-19.3398 1253.4301,-24.234 1290,-38.5 1325.9923,-52.5407 1360.3594,-83.9533 1376.2707,-99.8667"/>
<polygon fill="#ffa500" stroke="#ffa500" points="1174.323,-14.577 1164.2331,-17.8089 1174.1361,-21.5745 1174.323,-14.577"/>
<text text-anchor="middle" x="1247.5" y="-41.5" font-family="Helvetica,sans-Serif" font-size="10.00" fill="#000000"> &lt; ReadStream &gt;</text>
</g>
</g>
</svg>
