<?xml version="1.0" encoding="UTF-8" standalone="no"?>
<!DOCTYPE svg PUBLIC "-//W3C//DTD SVG 1.1//EN"
 "http://www.w3.org/Graphics/SVG/1.1/DTD/svg11.dtd">
<!-- Generated by graphviz version 2.36.0 (20140111.2315)
 -->
<!-- Title: ReadLinesNode Pages: 1 -->
<svg width="2280pt" height="682pt"
 viewBox="0.00 0.00 2280.00 682.00" xmlns="http://www.w3.org/2000/svg" xmlns:xlink="http://www.w3.org/1999/xlink">
<g id="graph0" class="graph" transform="scale(1 1) rotate(0) translate(4 678)">
<title>ReadLinesNode</title>
<!-- Node1 -->
<g id="node1" class="node"><title>Node1</title>
<polygon fill="#bfbfbf" stroke="black" points="2186,-70.5 2186,-89.5 2272,-89.5 2272,-70.5 2186,-70.5"/>
<text text-anchor="middle" x="2229" y="-77.5" font-family="Helvetica,sans-Serif" font-size="10.00">ReadLinesNode</text>
</g>
<!-- Node2 -->
<g id="node2" class="node"><title>Node2</title>
<g id="a_node2"><a xlink:href="classthrill_1_1api_1_1SourceNode.html" target="_top" xlink:title="SourceNode\&lt; std::string \&gt;">
<polygon fill="none" stroke="black" points="2016,-70.5 2016,-89.5 2148,-89.5 2148,-70.5 2016,-70.5"/>
<text text-anchor="middle" x="2082" y="-77.5" font-family="Helvetica,sans-Serif" font-size="10.00">SourceNode&lt; std::string &gt;</text>
</a>
</g>
</g>
<!-- Node2&#45;&gt;Node1 -->
<g id="edge1" class="edge"><title>Node2&#45;&gt;Node1</title>
<path fill="none" stroke="midnightblue" d="M2158.51,-80C2167.92,-80 2177.28,-80 2185.92,-80"/>
<polygon fill="midnightblue" stroke="midnightblue" points="2158.29,-76.5001 2148.29,-80 2158.29,-83.5001 2158.29,-76.5001"/>
</g>
<!-- Node3 -->
<g id="node3" class="node"><title>Node3</title>
<g id="a_node3"><a xlink:href="classthrill_1_1api_1_1DIANode.html" target="_top" xlink:title="DIANode\&lt; std::string \&gt;">
<polygon fill="none" stroke="black" points="1786.5,-88.5 1786.5,-107.5 1905.5,-107.5 1905.5,-88.5 1786.5,-88.5"/>
<text text-anchor="middle" x="1846" y="-95.5" font-family="Helvetica,sans-Serif" font-size="10.00">DIANode&lt; std::string &gt;</text>
</a>
</g>
</g>
<!-- Node3&#45;&gt;Node2 -->
<g id="edge2" class="edge"><title>Node3&#45;&gt;Node2</title>
<path fill="none" stroke="midnightblue" d="M1915.77,-92.7099C1947.31,-90.2839 1984.52,-87.4219 2015.63,-85.0286"/>
<polygon fill="midnightblue" stroke="midnightblue" points="1915.45,-89.2243 1905.75,-93.4811 1915.99,-96.2037 1915.45,-89.2243"/>
</g>
<!-- Node4 -->
<g id="node4" class="node"><title>Node4</title>
<g id="a_node4"><a xlink:href="classthrill_1_1api_1_1DIABase.html" target="_top" xlink:title="The DIABase is the untyped super class of DIANode. ">
<polygon fill="none" stroke="black" points="1460,-88.5 1460,-107.5 1516,-107.5 1516,-88.5 1460,-88.5"/>
<text text-anchor="middle" x="1488" y="-95.5" font-family="Helvetica,sans-Serif" font-size="10.00">DIABase</text>
</a>
</g>
</g>
<!-- Node4&#45;&gt;Node3 -->
<g id="edge3" class="edge"><title>Node4&#45;&gt;Node3</title>
<path fill="none" stroke="midnightblue" d="M1524.12,-110.511C1533.68,-113.297 1544.13,-115.785 1554,-117 1644.89,-128.189 1668.99,-123.155 1760,-113 1772.06,-111.654 1785,-109.658 1797.05,-107.558"/>
<polygon fill="midnightblue" stroke="midnightblue" points="1525.12,-107.158 1514.53,-107.541 1523.05,-113.844 1525.12,-107.158"/>
</g>
<!-- Node29 -->
<g id="node29" class="node"><title>Node29</title>
<g id="a_node29"><a xlink:href="classthrill_1_1api_1_1DIANode.html" target="_top" xlink:title="A DIANode is a typed node representing and operation in Thrill. ">
<polygon fill="none" stroke="black" points="1554,-88.5 1554,-107.5 1676,-107.5 1676,-88.5 1554,-88.5"/>
<text text-anchor="middle" x="1615" y="-95.5" font-family="Helvetica,sans-Serif" font-size="10.00">DIANode&lt; ValueType &gt;</text>
</a>
</g>
</g>
<!-- Node4&#45;&gt;Node29 -->
<g id="edge42" class="edge"><title>Node4&#45;&gt;Node29</title>
<path fill="none" stroke="midnightblue" d="M1526.28,-98C1534.97,-98 1544.44,-98 1553.84,-98"/>
<polygon fill="midnightblue" stroke="midnightblue" points="1526.12,-94.5001 1516.12,-98 1526.12,-101.5 1526.12,-94.5001"/>
</g>
<!-- Node31 -->
<g id="node31" class="node"><title>Node31</title>
<g id="a_node31"><a xlink:href="classthrill_1_1api_1_1DIANode.html" target="_top" xlink:title="A DIANode is a typed node representing and operation in Thrill. ">
<polygon fill="none" stroke="black" points="1554,-50.5 1554,-69.5 1676,-69.5 1676,-50.5 1554,-50.5"/>
<text text-anchor="middle" x="1615" y="-57.5" font-family="Helvetica,sans-Serif" font-size="10.00">DIANode&lt; ValueType &gt;</text>
</a>
</g>
</g>
<!-- Node4&#45;&gt;Node31 -->
<g id="edge45" class="edge"><title>Node4&#45;&gt;Node31</title>
<path fill="none" stroke="midnightblue" d="M1525.73,-86.8333C1543.76,-81.3531 1565.25,-74.8189 1582.52,-69.5706"/>
<polygon fill="midnightblue" stroke="midnightblue" points="1524.67,-83.4972 1516.12,-89.7546 1526.71,-90.1946 1524.67,-83.4972"/>
</g>
<!-- Node5 -->
<g id="node5" class="node"><title>Node5</title>
<g id="a_node5"><a xlink:href="classtlx_1_1ReferenceCounter.html" target="_top" xlink:title="Provides reference counting abilities for use with CountingPtr. ">
<polygon fill="none" stroke="black" points="1274,-245.5 1274,-264.5 1370,-264.5 1370,-245.5 1274,-245.5"/>
<text text-anchor="middle" x="1322" y="-252.5" font-family="Helvetica,sans-Serif" font-size="10.00">ReferenceCounter</text>
</a>
</g>
</g>
<!-- Node5&#45;&gt;Node4 -->
<g id="edge4" class="edge"><title>Node5&#45;&gt;Node4</title>
<path fill="none" stroke="midnightblue" d="M1359.13,-241.441C1362.86,-239.732 1366.55,-237.909 1370,-236 1404.55,-216.909 1416.16,-213.84 1442,-184 1462.85,-159.924 1477.44,-124.523 1483.65,-107.641"/>
<polygon fill="midnightblue" stroke="midnightblue" points="1357.66,-238.261 1349.87,-245.437 1360.44,-244.688 1357.66,-238.261"/>
</g>
<!-- Node6 -->
<g id="node6" class="node"><title>Node6</title>
<g id="a_node6"><a xlink:href="classthrill_1_1api_1_1Context.html" target="_top" xlink:title="The Context of a job is a unique instance per worker which holds references to all underlying parts o...">
<polygon fill="none" stroke="black" points="1296.5,-207.5 1296.5,-226.5 1347.5,-226.5 1347.5,-207.5 1296.5,-207.5"/>
<text text-anchor="middle" x="1322" y="-214.5" font-family="Helvetica,sans-Serif" font-size="10.00">Context</text>
</a>
</g>
</g>
<!-- Node6&#45;&gt;Node4 -->
<g id="edge5" class="edge"><title>Node6&#45;&gt;Node4</title>
<path fill="none" stroke="#9a32cd" stroke-dasharray="5,2" d="M1344.57,-201.35C1379.04,-176.335 1445.55,-128.078 1473.79,-107.583"/>
<polygon fill="#9a32cd" stroke="#9a32cd" points="1342.18,-198.757 1336.14,-207.463 1346.29,-204.423 1342.18,-198.757"/>
<text text-anchor="middle" x="1415" y="-172" font-family="Helvetica,sans-Serif" font-size="10.00"> context_</text>
</g>
<!-- Node7 -->
<g id="node7" class="node"><title>Node7</title>
<g id="a_node7"><a xlink:href="classthrill_1_1net_1_1Manager.html" target="_top" xlink:title="Initializes communication channels, manages communication channels and handles errors. ">
<polygon fill="none" stroke="black" points="503,-197.5 503,-216.5 557,-216.5 557,-197.5 503,-197.5"/>
<text text-anchor="middle" x="530" y="-204.5" font-family="Helvetica,sans-Serif" font-size="10.00">Manager</text>
</a>
</g>
</g>
<!-- Node7&#45;&gt;Node6 -->
<g id="edge6" class="edge"><title>Node7&#45;&gt;Node6</title>
<path fill="none" stroke="#9a32cd" stroke-dasharray="5,2" d="M557.025,-192.718C574.335,-183.951 597.876,-173.401 620,-168 786.863,-127.265 834.36,-142.487 1006,-149 1117.35,-153.225 1151.75,-128.651 1256,-168 1278.74,-176.583 1300.27,-195.752 1311.94,-207.408"/>
<polygon fill="#9a32cd" stroke="#9a32cd" points="555.355,-189.641 548.098,-197.361 558.585,-195.852 555.355,-189.641"/>
<text text-anchor="middle" x="957" y="-152" font-family="Helvetica,sans-Serif" font-size="10.00"> net_manager_</text>
</g>
<!-- Node7&#45;&gt;Node6 -->
<g id="edge38" class="edge"><title>Node7&#45;&gt;Node6</title>
<path fill="none" stroke="#9a32cd" stroke-dasharray="5,2" d="M567.208,-206.501C583.364,-206.302 602.634,-206.098 620,-206 676.888,-205.68 691.114,-205.454 748,-206 960.417,-208.039 1217.07,-214.328 1296.43,-216.36"/>
<polygon fill="#9a32cd" stroke="#9a32cd" points="567.046,-203.003 557.092,-206.63 567.135,-210.002 567.046,-203.003"/>
<text text-anchor="middle" x="957" y="-213" font-family="Helvetica,sans-Serif" font-size="10.00"> mem_manager_</text>
</g>
<!-- Node22 -->
<g id="node22" class="node"><title>Node22</title>
<g id="a_node22"><a xlink:href="classthrill_1_1data_1_1Multiplexer.html" target="_top" xlink:title="Multiplexes virtual Connections on Dispatcher. ">
<polygon fill="none" stroke="black" points="1064,-282.5 1064,-301.5 1128,-301.5 1128,-282.5 1064,-282.5"/>
<text text-anchor="middle" x="1096" y="-289.5" font-family="Helvetica,sans-Serif" font-size="10.00">Multiplexer</text>
</a>
</g>
</g>
<!-- Node7&#45;&gt;Node22 -->
<g id="edge35" class="edge"><title>Node7&#45;&gt;Node22</title>
<path fill="none" stroke="#9a32cd" stroke-dasharray="5,2" d="M567.563,-207.558C632.857,-209.107 773.578,-214.952 890,-237 953.178,-248.965 1025.48,-270.173 1065.11,-282.464"/>
<polygon fill="#9a32cd" stroke="#9a32cd" points="567.451,-204.055 557.377,-207.337 567.299,-211.053 567.451,-204.055"/>
<text text-anchor="middle" x="828" y="-240" font-family="Helvetica,sans-Serif" font-size="10.00"> mem_manager_</text>
</g>
<!-- Node23 -->
<g id="node23" class="node"><title>Node23</title>
<g id="a_node23"><a xlink:href="classthrill_1_1net_1_1DispatcherThread.html" target="_top" xlink:title="DispatcherThread contains a net::Dispatcher object and an associated thread that runs in the dispatch...">
<polygon fill="none" stroke="black" points="781,-310.5 781,-329.5 875,-329.5 875,-310.5 781,-310.5"/>
<text text-anchor="middle" x="828" y="-317.5" font-family="Helvetica,sans-Serif" font-size="10.00">DispatcherThread</text>
</a>
</g>
</g>
<!-- Node7&#45;&gt;Node23 -->
<g id="edge29" class="edge"><title>Node7&#45;&gt;Node23</title>
<path fill="none" stroke="#9a32cd" stroke-dasharray="5,2" d="M559.898,-221.17C572.938,-227.79 588.427,-235.97 602,-244 610.275,-248.895 611.317,-251.871 620,-256 674.012,-281.688 740.783,-300.155 783.628,-310.462"/>
<polygon fill="#9a32cd" stroke="#9a32cd" points="561.406,-218.011 550.899,-216.65 558.264,-224.266 561.406,-218.011"/>
<text text-anchor="middle" x="684" y="-304" font-family="Helvetica,sans-Serif" font-size="10.00"> mem_manager_</text>
</g>
<!-- Node26 -->
<g id="node26" class="node"><title>Node26</title>
<g id="a_node26"><a xlink:href="classthrill_1_1data_1_1BlockPool.html" target="_top" xlink:title="Pool to allocate, keep, swap out/in, and free all ByteBlocks on the host. ">
<polygon fill="none" stroke="black" points="797.5,-257.5 797.5,-276.5 858.5,-276.5 858.5,-257.5 797.5,-257.5"/>
<text text-anchor="middle" x="828" y="-264.5" font-family="Helvetica,sans-Serif" font-size="10.00">BlockPool</text>
</a>
</g>
</g>
<!-- Node7&#45;&gt;Node26 -->
<g id="edge34" class="edge"><title>Node7&#45;&gt;Node26</title>
<path fill="none" stroke="#9a32cd" stroke-dasharray="5,2" d="M567.299,-211.958C619.836,-219.258 714.446,-232.907 748,-241 766.107,-245.367 786.025,-251.935 801.332,-257.377"/>
<polygon fill="#9a32cd" stroke="#9a32cd" points="567.459,-208.447 557.074,-210.543 566.5,-215.381 567.459,-208.447"/>
<text text-anchor="middle" x="684" y="-244" font-family="Helvetica,sans-Serif" font-size="10.00"> mem_manager_</text>
</g>
<!-- Node8 -->
<g id="node8" class="node"><title>Node8</title>
<g id="a_node8"><a xlink:href="classthrill_1_1common_1_1ProfileTask.html" target="_top" xlink:title="ProfileTask">
<polygon fill="none" stroke="black" points="194,-300.5 194,-319.5 260,-319.5 260,-300.5 194,-300.5"/>
<text text-anchor="middle" x="227" y="-307.5" font-family="Helvetica,sans-Serif" font-size="10.00">ProfileTask</text>
</a>
</g>
</g>
<!-- Node8&#45;&gt;Node7 -->
<g id="edge7" class="edge"><title>Node8&#45;&gt;Node7</title>
<path fill="none" stroke="midnightblue" d="M265.519,-297.161C327.314,-276.015 448.986,-234.38 502.585,-216.039"/>
<polygon fill="midnightblue" stroke="midnightblue" points="264.106,-293.945 255.778,-300.495 266.372,-300.568 264.106,-293.945"/>
</g>
<!-- Node8&#45;&gt;Node26 -->
<g id="edge32" class="edge"><title>Node8&#45;&gt;Node26</title>
<path fill="none" stroke="midnightblue" d="M270.108,-317.168C359.777,-330.905 575.484,-355.802 748,-311 748.212,-310.945 786.751,-289.455 809.916,-276.532"/>
<polygon fill="midnightblue" stroke="midnightblue" points="270.482,-313.684 260.06,-315.594 269.398,-320.599 270.482,-313.684"/>
</g>
<!-- Node9 -->
<g id="node9" class="node"><title>Node9</title>
<g id="a_node9"><a xlink:href="classthrill_1_1common_1_1JsonLogger.html" target="_top" xlink:title="JsonLogger is a receiver of JSON output objects for logging. ">
<polygon fill="none" stroke="black" points="193.5,-120.5 193.5,-139.5 260.5,-139.5 260.5,-120.5 193.5,-120.5"/>
<text text-anchor="middle" x="227" y="-127.5" font-family="Helvetica,sans-Serif" font-size="10.00">JsonLogger</text>
</a>
</g>
</g>
<!-- Node9&#45;&gt;Node4 -->
<g id="edge39" class="edge"><title>Node9&#45;&gt;Node4</title>
<path fill="none" stroke="#9a32cd" stroke-dasharray="5,2" d="M257.441,-116.346C310.51,-93.0234 426.259,-48 529,-48 529,-48 529,-48 1323,-48 1377.77,-48 1438.53,-73.8301 1468.38,-88.3595"/>
<polygon fill="#9a32cd" stroke="#9a32cd" points="255.986,-113.163 248.279,-120.433 258.837,-119.556 255.986,-113.163"/>
<text text-anchor="middle" x="957" y="-51" font-family="Helvetica,sans-Serif" font-size="10.00"> logger_</text>
</g>
<!-- Node9&#45;&gt;Node6 -->
<g id="edge24" class="edge"><title>Node9&#45;&gt;Node6</title>
<path fill="none" stroke="#9a32cd" stroke-dasharray="5,2" d="M270.738,-121.639C328.916,-111.003 436.406,-94 529,-94 529,-94 529,-94 1097,-94 1171.21,-94 1193.66,-104.739 1256,-145 1282.03,-161.81 1304.22,-191.651 1314.64,-207.107"/>
<polygon fill="#9a32cd" stroke="#9a32cd" points="270,-118.216 260.806,-123.481 271.276,-125.099 270,-118.216"/>
<text text-anchor="middle" x="828" y="-108" font-family="Helvetica,sans-Serif" font-size="10.00"> logger_</text>
<text text-anchor="middle" x="828" y="-97" font-family="Helvetica,sans-Serif" font-size="10.00">base_logger_</text>
</g>
<!-- Node9&#45;&gt;Node7 -->
<g id="edge8" class="edge"><title>Node9&#45;&gt;Node7</title>
<path fill="none" stroke="#9a32cd" stroke-dasharray="5,2" d="M270.844,-140.96C334.161,-157.157 450.824,-187.002 502.812,-200.301"/>
<polygon fill="#9a32cd" stroke="#9a32cd" points="271.341,-137.475 260.785,-138.387 269.606,-144.256 271.341,-137.475"/>
<text text-anchor="middle" x="376" y="-186" font-family="Helvetica,sans-Serif" font-size="10.00"> logger_</text>
</g>
<!-- Node9&#45;&gt;Node9 -->
<g id="edge10" class="edge"><title>Node9&#45;&gt;Node9</title>
<path fill="none" stroke="#9a32cd" stroke-dasharray="5,2" d="M207.001,-149.4C208.337,-154.315 215.003,-158 227,-158 246.195,-158 251.744,-148.565 243.646,-139.757"/>
<polygon fill="#9a32cd" stroke="#9a32cd" points="210.376,-150.352 210.354,-139.757 203.764,-148.053 210.376,-150.352"/>
<text text-anchor="middle" x="227" y="-161" font-family="Helvetica,sans-Serif" font-size="10.00"> super_</text>
</g>
<!-- Node9&#45;&gt;Node26 -->
<g id="edge33" class="edge"><title>Node9&#45;&gt;Node26</title>
<path fill="none" stroke="#9a32cd" stroke-dasharray="5,2" d="M244.08,-147.168C259.846,-162.914 285.339,-185.611 312,-198 482.16,-277.071 715.79,-273.202 797.42,-268.972"/>
<polygon fill="#9a32cd" stroke="#9a32cd" points="246.251,-144.381 236.766,-139.659 241.236,-149.265 246.251,-144.381"/>
<text text-anchor="middle" x="530" y="-269" font-family="Helvetica,sans-Serif" font-size="10.00"> logger_</text>
</g>
<!-- Node10 -->
<g id="node10" class="node"><title>Node10</title>
<g id="a_node10"><a xlink:href="classthrill_1_1common_1_1JsonVerbatim.html" target="_top" xlink:title="A special class to output verbatim text. ">
<polygon fill="none" stroke="black" points="0.5,-120.5 0.5,-139.5 77.5,-139.5 77.5,-120.5 0.5,-120.5"/>
<text text-anchor="middle" x="39" y="-127.5" font-family="Helvetica,sans-Serif" font-size="10.00">JsonVerbatim</text>
</a>
</g>
</g>
<!-- Node10&#45;&gt;Node9 -->
<g id="edge9" class="edge"><title>Node10&#45;&gt;Node9</title>
<path fill="none" stroke="#9a32cd" stroke-dasharray="5,2" d="M88.0045,-130C121.105,-130 164.226,-130 193.388,-130"/>
<polygon fill="#9a32cd" stroke="#9a32cd" points="87.6399,-126.5 77.6399,-130 87.6398,-133.5 87.6399,-126.5"/>
<text text-anchor="middle" x="119" y="-133" font-family="Helvetica,sans-Serif" font-size="10.00"> common_</text>
</g>
<!-- Node11 -->
<g id="node11" class="node"><title>Node11</title>
<g id="a_node11"><a xlink:href="classthrill_1_1net_1_1FlowControlChannel.html" target="_top" xlink:title="Provides a blocking collection for communication. ">
<polygon fill="none" stroke="black" points="1043.5,-412.5 1043.5,-431.5 1148.5,-431.5 1148.5,-412.5 1043.5,-412.5"/>
<text text-anchor="middle" x="1096" y="-419.5" font-family="Helvetica,sans-Serif" font-size="10.00">FlowControlChannel</text>
</a>
</g>
</g>
<!-- Node11&#45;&gt;Node6 -->
<g id="edge11" class="edge"><title>Node11&#45;&gt;Node6</title>
<path fill="none" stroke="#9a32cd" stroke-dasharray="5,2" d="M1157.17,-409.651C1191.4,-399.454 1232.1,-381.371 1256,-350 1287.09,-309.199 1242.08,-276.154 1274,-236 1279.48,-229.11 1287.85,-224.704 1296.01,-221.892"/>
<polygon fill="#9a32cd" stroke="#9a32cd" points="1155.92,-406.367 1147.24,-412.446 1157.81,-413.105 1155.92,-406.367"/>
<text text-anchor="middle" x="1221" y="-402" font-family="Helvetica,sans-Serif" font-size="10.00"> net</text>
</g>
<!-- Node12 -->
<g id="node12" class="node"><title>Node12</title>
<g id="a_node12"><a xlink:href="classthrill_1_1net_1_1FlowControlChannel_1_1LocalData.html" target="_top" xlink:title="LocalData">
<polygon fill="none" stroke="black" points="797.5,-643.5 797.5,-662.5 858.5,-662.5 858.5,-643.5 797.5,-643.5"/>
<text text-anchor="middle" x="828" y="-650.5" font-family="Helvetica,sans-Serif" font-size="10.00">LocalData</text>
</a>
</g>
</g>
<!-- Node12&#45;&gt;Node11 -->
<g id="edge12" class="edge"><title>Node12&#45;&gt;Node11</title>
<path fill="none" stroke="#9a32cd" stroke-dasharray="5,2" d="M868.657,-660.799C909.175,-666.233 970.971,-667.067 1006,-631 1035.55,-600.576 996.617,-473.386 1024,-441 1029.11,-434.959 1035.91,-430.729 1043.28,-427.788"/>
<polygon fill="#9a32cd" stroke="#9a32cd" points="868.998,-657.311 858.591,-659.296 867.964,-664.234 868.998,-657.311"/>
<text text-anchor="middle" x="957" y="-666" font-family="Helvetica,sans-Serif" font-size="10.00"> shmem_</text>
</g>
<!-- Node13 -->
<g id="node13" class="node"><title>Node13</title>
<g id="a_node13"><a xlink:href="classthrill_1_1net_1_1Group.html" target="_top" xlink:title="A network Group is a collection of enumerated communication links, which provides point&#45;to&#45;point comm...">
<polygon fill="none" stroke="black" points="806.5,-354.5 806.5,-373.5 849.5,-373.5 849.5,-354.5 806.5,-354.5"/>
<text text-anchor="middle" x="828" y="-361.5" font-family="Helvetica,sans-Serif" font-size="10.00">Group</text>
</a>
</g>
</g>
<!-- Node13&#45;&gt;Node11 -->
<g id="edge13" class="edge"><title>Node13&#45;&gt;Node11</title>
<path fill="none" stroke="#9a32cd" stroke-dasharray="5,2" d="M859.712,-369.192C895.126,-375.342 955.018,-386.246 1006,-398 1024.56,-402.278 1045.09,-407.765 1061.76,-412.412"/>
<polygon fill="#9a32cd" stroke="#9a32cd" points="859.993,-365.689 849.544,-367.44 858.804,-372.587 859.993,-365.689"/>
<text text-anchor="middle" x="957" y="-401" font-family="Helvetica,sans-Serif" font-size="10.00"> group_</text>
</g>
<!-- Node13&#45;&gt;Node22 -->
<g id="edge30" class="edge"><title>Node13&#45;&gt;Node22</title>
<path fill="none" stroke="#9a32cd" stroke-dasharray="5,2" d="M859.699,-361.891C896.192,-358.396 958.163,-349.292 1006,-326 1015.36,-321.441 1014.75,-315.791 1024,-311 1036.35,-304.601 1051.05,-300.206 1063.87,-297.27"/>
<polygon fill="#9a32cd" stroke="#9a32cd" points="859.331,-358.41 849.675,-362.77 859.943,-365.383 859.331,-358.41"/>
<text text-anchor="middle" x="957" y="-358" font-family="Helvetica,sans-Serif" font-size="10.00"> group_</text>
</g>
<!-- Node14 -->
<g id="node14" class="node"><title>Node14</title>
<g id="a_node14"><a xlink:href="classthrill_1_1common_1_1AtomicMovable.html" target="_top" xlink:title="AtomicMovable\&lt; size_t \&gt;">
<polygon fill="none" stroke="black" points="620,-446.5 620,-465.5 748,-465.5 748,-446.5 620,-446.5"/>
<text text-anchor="middle" x="684" y="-453.5" font-family="Helvetica,sans-Serif" font-size="10.00">AtomicMovable&lt; size_t &gt;</text>
</a>
</g>
</g>
<!-- Node14&#45;&gt;Node11 -->
<g id="edge14" class="edge"><title>Node14&#45;&gt;Node11</title>
<path fill="none" stroke="#9a32cd" stroke-dasharray="5,2" d="M758.286,-451.825C823.407,-447.859 921.149,-441.278 1006,-433 1018.09,-431.821 1031.07,-430.339 1043.28,-428.849"/>
<polygon fill="#9a32cd" stroke="#9a32cd" points="757.892,-448.342 748.122,-452.439 758.314,-455.33 757.892,-448.342"/>
<text text-anchor="middle" x="828" y="-510" font-family="Helvetica,sans-Serif" font-size="10.00"> count_allreduce_</text>
<text text-anchor="middle" x="828" y="-499" font-family="Helvetica,sans-Serif" font-size="10.00">count_broadcast_</text>
<text text-anchor="middle" x="828" y="-488" font-family="Helvetica,sans-Serif" font-size="10.00">count_reduce_</text>
<text text-anchor="middle" x="828" y="-477" font-family="Helvetica,sans-Serif" font-size="10.00">count_prefixsum_</text>
<text text-anchor="middle" x="828" y="-466" font-family="Helvetica,sans-Serif" font-size="10.00">count_barrier_</text>
<text text-anchor="middle" x="828" y="-455" font-family="Helvetica,sans-Serif" font-size="10.00">count_predecessor_</text>
</g>
<!-- Node15 -->
<g id="node15" class="node"><title>Node15</title>
<g id="a_node15"><a xlink:href="classthrill_1_1common_1_1AtomicMovable.html" target="_top" xlink:title="This is a derivative of std::atomic which enables easier and less error&#45;prone writing of move&#45;only cl...">
<polygon fill="none" stroke="black" points="173,-430.5 173,-449.5 281,-449.5 281,-430.5 173,-430.5"/>
<text text-anchor="middle" x="227" y="-437.5" font-family="Helvetica,sans-Serif" font-size="10.00">AtomicMovable&lt; T &gt;</text>
</a>
</g>
</g>
<!-- Node15&#45;&gt;Node14 -->
<g id="edge15" class="edge"><title>Node15&#45;&gt;Node14</title>
<path fill="none" stroke="orange" stroke-dasharray="5,2" d="M291.317,-442.227C378.065,-445.277 532.963,-450.724 619.701,-453.774"/>
<polygon fill="orange" stroke="orange" points="291.202,-438.72 281.085,-441.867 290.956,-445.716 291.202,-438.72"/>
<text text-anchor="middle" x="376" y="-451" font-family="Helvetica,sans-Serif" font-size="10.00"> &lt; size_t &gt;</text>
</g>
<!-- Node17 -->
<g id="node17" class="node"><title>Node17</title>
<g id="a_node17"><a xlink:href="classthrill_1_1common_1_1AtomicMovable.html" target="_top" xlink:title="AtomicMovable\&lt; uint64_t \&gt;">
<polygon fill="none" stroke="black" points="461.5,-410.5 461.5,-429.5 598.5,-429.5 598.5,-410.5 461.5,-410.5"/>
<text text-anchor="middle" x="530" y="-417.5" font-family="Helvetica,sans-Serif" font-size="10.00">AtomicMovable&lt; uint64_t &gt;</text>
</a>
</g>
</g>
<!-- Node15&#45;&gt;Node17 -->
<g id="edge18" class="edge"><title>Node15&#45;&gt;Node17</title>
<path fill="none" stroke="orange" stroke-dasharray="5,2" d="M284.002,-428.768C293.319,-427.254 302.907,-425.911 312,-425 361.869,-420.003 418.492,-418.848 461.391,-418.893"/>
<polygon fill="orange" stroke="orange" points="283.306,-425.336 274.035,-430.465 284.481,-432.237 283.306,-425.336"/>
<text text-anchor="middle" x="376" y="-428" font-family="Helvetica,sans-Serif" font-size="10.00"> &lt; uint64_t &gt;</text>
</g>
<!-- Node16 -->
<g id="node16" class="node"><title>Node16</title>
<g id="a_node16"><a xlink:href="classthrill_1_1common_1_1ThreadBarrierSpinning.html" target="_top" xlink:title="Implements a cyclic barrier using atomics and a spin lock that can be used to synchronize threads...">
<polygon fill="none" stroke="black" points="771.5,-398.5 771.5,-417.5 884.5,-417.5 884.5,-398.5 771.5,-398.5"/>
<text text-anchor="middle" x="828" y="-405.5" font-family="Helvetica,sans-Serif" font-size="10.00">ThreadBarrierSpinning</text>
</a>
</g>
</g>
<!-- Node16&#45;&gt;Node11 -->
<g id="edge16" class="edge"><title>Node16&#45;&gt;Node11</title>
<path fill="none" stroke="#9a32cd" stroke-dasharray="5,2" d="M894.903,-411.469C940.749,-413.882 1001.01,-417.053 1043.37,-419.283"/>
<polygon fill="#9a32cd" stroke="#9a32cd" points="894.932,-407.965 884.762,-410.935 894.565,-414.956 894.932,-407.965"/>
<text text-anchor="middle" x="957" y="-421" font-family="Helvetica,sans-Serif" font-size="10.00"> barrier_</text>
</g>
<!-- Node17&#45;&gt;Node16 -->
<g id="edge17" class="edge"><title>Node17&#45;&gt;Node16</title>
<path fill="none" stroke="#9a32cd" stroke-dasharray="5,2" d="M608.542,-416.856C659.588,-414.787 725.22,-412.126 771.166,-410.264"/>
<polygon fill="#9a32cd" stroke="#9a32cd" points="608.387,-413.36 598.537,-417.262 608.671,-420.354 608.387,-413.36"/>
<text text-anchor="middle" x="684" y="-420" font-family="Helvetica,sans-Serif" font-size="10.00"> wait_time_</text>
</g>
<!-- Node18 -->
<g id="node18" class="node"><title>Node18</title>
<g id="a_node18"><a xlink:href="classthrill_1_1common_1_1StatsTimerBaseStopped.html" target="_top" xlink:title="StatsTimerBaseStopped\l\&lt; enable_stats \&gt;">
<polygon fill="none" stroke="black" points="766.5,-539 766.5,-569 889.5,-569 889.5,-539 766.5,-539"/>
<text text-anchor="start" x="774.5" y="-557" font-family="Helvetica,sans-Serif" font-size="10.00">StatsTimerBaseStopped</text>
<text text-anchor="middle" x="828" y="-546" font-family="Helvetica,sans-Serif" font-size="10.00">&lt; enable_stats &gt;</text>
</a>
</g>
</g>
<!-- Node18&#45;&gt;Node11 -->
<g id="edge19" class="edge"><title>Node18&#45;&gt;Node11</title>
<path fill="none" stroke="#9a32cd" stroke-dasharray="5,2" d="M877.858,-533.736C882.237,-530.838 886.378,-527.599 890,-524 902.691,-511.393 893.966,-499.092 908,-488 943.1,-460.259 968.551,-489.477 1006,-465 1017.16,-457.705 1012.95,-448.467 1024,-441 1029.81,-437.07 1036.41,-433.951 1043.18,-431.477"/>
<polygon fill="#9a32cd" stroke="#9a32cd" points="876.007,-530.765 869.213,-538.895 879.594,-536.776 876.007,-530.765"/>
<text text-anchor="start" x="908.5" y="-623" font-family="Helvetica,sans-Serif" font-size="10.00"> timer_communication</text>
<text text-anchor="middle" x="957" y="-612" font-family="Helvetica,sans-Serif" font-size="10.00">_</text>
<text text-anchor="start" x="908.5" y="-601" font-family="Helvetica,sans-Serif" font-size="10.00">timer_predecessor</text>
<text text-anchor="middle" x="957" y="-590" font-family="Helvetica,sans-Serif" font-size="10.00">_</text>
<text text-anchor="start" x="908.5" y="-579" font-family="Helvetica,sans-Serif" font-size="10.00">timer_allreduce</text>
<text text-anchor="middle" x="957" y="-568" font-family="Helvetica,sans-Serif" font-size="10.00">_</text>
<text text-anchor="start" x="908.5" y="-557" font-family="Helvetica,sans-Serif" font-size="10.00">timer_barrier</text>
<text text-anchor="middle" x="957" y="-546" font-family="Helvetica,sans-Serif" font-size="10.00">_</text>
<text text-anchor="start" x="908.5" y="-535" font-family="Helvetica,sans-Serif" font-size="10.00">timer_prefixsum</text>
<text text-anchor="middle" x="957" y="-524" font-family="Helvetica,sans-Serif" font-size="10.00">_</text>
<text text-anchor="start" x="908.5" y="-513" font-family="Helvetica,sans-Serif" font-size="10.00">timer_broadcast</text>
<text text-anchor="middle" x="957" y="-502" font-family="Helvetica,sans-Serif" font-size="10.00">_</text>
<text text-anchor="middle" x="957" y="-491" font-family="Helvetica,sans-Serif" font-size="10.00">timer_reduce_</text>
</g>
<!-- Node19 -->
<g id="node19" class="node"><title>Node19</title>
<g id="a_node19"><a xlink:href="classthrill_1_1common_1_1StatsTimerBase.html" target="_top" xlink:title="This class provides a statistical stop watch timer that can easily be deactivated using a boolean tem...">
<polygon fill="none" stroke="black" points="160.5,-541.5 160.5,-560.5 293.5,-560.5 293.5,-541.5 160.5,-541.5"/>
<text text-anchor="middle" x="227" y="-548.5" font-family="Helvetica,sans-Serif" font-size="10.00">StatsTimerBase&lt; Active &gt;</text>
</a>
</g>
</g>
<!-- Node19&#45;&gt;Node18 -->
<g id="edge20" class="edge"><title>Node19&#45;&gt;Node18</title>
<path fill="none" stroke="midnightblue" d="M303.757,-551.379C424.049,-551.982 656.359,-553.145 766.387,-553.696"/>
<polygon fill="midnightblue" stroke="midnightblue" points="303.548,-547.878 293.53,-551.328 303.512,-554.878 303.548,-547.878"/>
</g>
<!-- Node20 -->
<g id="node20" class="node"><title>Node20</title>
<g id="a_node20"><a xlink:href="classthrill_1_1common_1_1StatsTimerBaseStopped.html" target="_top" xlink:title="StatsTimerBaseStopped\l\&lt; Active \&gt;">
<polygon fill="none" stroke="black" points="468.5,-563 468.5,-593 591.5,-593 591.5,-563 468.5,-563"/>
<text text-anchor="start" x="476.5" y="-581" font-family="Helvetica,sans-Serif" font-size="10.00">StatsTimerBaseStopped</text>
<text text-anchor="middle" x="530" y="-570" font-family="Helvetica,sans-Serif" font-size="10.00">&lt; Active &gt;</text>
</a>
</g>
</g>
<!-- Node19&#45;&gt;Node20 -->
<g id="edge22" class="edge"><title>Node19&#45;&gt;Node20</title>
<path fill="none" stroke="midnightblue" d="M303.655,-557.786C354.584,-562.355 420.852,-568.299 468.321,-572.557"/>
<polygon fill="midnightblue" stroke="midnightblue" points="303.957,-554.299 293.684,-556.892 303.331,-561.271 303.957,-554.299"/>
</g>
<!-- Node20&#45;&gt;Node18 -->
<g id="edge21" class="edge"><title>Node20&#45;&gt;Node18</title>
<path fill="none" stroke="orange" stroke-dasharray="5,2" d="M601.749,-572.264C651.978,-568.191 718.701,-562.781 766.467,-558.908"/>
<polygon fill="orange" stroke="orange" points="601.299,-568.789 591.614,-573.085 601.864,-575.766 601.299,-568.789"/>
<text text-anchor="middle" x="684" y="-573" font-family="Helvetica,sans-Serif" font-size="10.00"> &lt; enable_stats &gt;</text>
</g>
<!-- Node21 -->
<g id="node21" class="node"><title>Node21</title>
<g id="a_node21"><a xlink:href="classthrill_1_1api_1_1MemoryConfig.html" target="_top" xlink:title="MemoryConfig">
<polygon fill="none" stroke="black" points="1056,-450.5 1056,-469.5 1136,-469.5 1136,-450.5 1056,-450.5"/>
<text text-anchor="middle" x="1096" y="-457.5" font-family="Helvetica,sans-Serif" font-size="10.00">MemoryConfig</text>
</a>
</g>
</g>
<!-- Node21&#45;&gt;Node6 -->
<g id="edge23" class="edge"><title>Node21&#45;&gt;Node6</title>
<path fill="none" stroke="#9a32cd" stroke-dasharray="5,2" d="M1146.41,-459.679C1182.56,-456.588 1229.71,-446.052 1256,-414 1306.43,-352.52 1226.28,-299.602 1274,-236 1279.39,-228.819 1287.94,-224.344 1296.29,-221.559"/>
<polygon fill="#9a32cd" stroke="#9a32cd" points="1145.79,-456.213 1136.05,-460.39 1146.27,-463.196 1145.79,-456.213"/>
<text text-anchor="middle" x="1221" y="-456" font-family="Helvetica,sans-Serif" font-size="10.00"> mem_config_</text>
</g>
<!-- Node22&#45;&gt;Node6 -->
<g id="edge25" class="edge"><title>Node22&#45;&gt;Node6</title>
<path fill="none" stroke="#9a32cd" stroke-dasharray="5,2" d="M1138.43,-294.87C1172.78,-295.191 1221.42,-290.676 1256,-267 1269.15,-258 1261.96,-246.439 1274,-236 1280.38,-230.464 1288.59,-226.408 1296.35,-223.501"/>
<polygon fill="#9a32cd" stroke="#9a32cd" points="1138.34,-291.367 1128.26,-294.631 1138.17,-298.365 1138.34,-291.367"/>
<text text-anchor="middle" x="1221" y="-295" font-family="Helvetica,sans-Serif" font-size="10.00"> multiplexer_</text>
</g>
<!-- Node23&#45;&gt;Node22 -->
<g id="edge26" class="edge"><title>Node23&#45;&gt;Node22</title>
<path fill="none" stroke="#9a32cd" stroke-dasharray="5,2" d="M885.192,-314.085C939.513,-308.367 1019.84,-299.911 1063.67,-295.298"/>
<polygon fill="#9a32cd" stroke="#9a32cd" points="884.609,-310.627 875.03,-315.155 885.341,-317.589 884.609,-310.627"/>
<text text-anchor="middle" x="957" y="-314" font-family="Helvetica,sans-Serif" font-size="10.00"> dispatcher_</text>
</g>
<!-- Node24 -->
<g id="node24" class="node"><title>Node24</title>
<g id="a_node24"><a xlink:href="classthrill_1_1common_1_1OurConcurrentQueue.html" target="_top" xlink:title="OurConcurrentQueue\l\&lt; tlx::Delegate, mem\l::Allocator\&lt; tlx::Delegate \&gt; \&gt;">
<polygon fill="none" stroke="black" points="458.5,-350.5 458.5,-391.5 601.5,-391.5 601.5,-350.5 458.5,-350.5"/>
<text text-anchor="start" x="466.5" y="-379.5" font-family="Helvetica,sans-Serif" font-size="10.00">OurConcurrentQueue</text>
<text text-anchor="start" x="466.5" y="-368.5" font-family="Helvetica,sans-Serif" font-size="10.00">&lt; tlx::Delegate, mem</text>
<text text-anchor="middle" x="530" y="-357.5" font-family="Helvetica,sans-Serif" font-size="10.00">::Allocator&lt; tlx::Delegate &gt; &gt;</text>
</a>
</g>
</g>
<!-- Node24&#45;&gt;Node23 -->
<g id="edge27" class="edge"><title>Node24&#45;&gt;Node23</title>
<path fill="none" stroke="#9a32cd" stroke-dasharray="5,2" d="M611.573,-360.869C652.569,-355.271 703.099,-347.692 748,-339 761.849,-336.319 776.933,-332.833 790.174,-329.581"/>
<polygon fill="#9a32cd" stroke="#9a32cd" points="611.076,-357.404 601.635,-362.213 612.014,-364.341 611.076,-357.404"/>
<text text-anchor="middle" x="684" y="-363" font-family="Helvetica,sans-Serif" font-size="10.00"> jobqueue_</text>
</g>
<!-- Node25 -->
<g id="node25" class="node"><title>Node25</title>
<g id="a_node25"><a xlink:href="classthrill_1_1common_1_1OurConcurrentQueue.html" target="_top" xlink:title="This is a queue, similar to std::queue and tbb::concurrent_queue, except that it uses mutexes for syn...">
<polygon fill="none" stroke="black" points="172.5,-356 172.5,-386 281.5,-386 281.5,-356 172.5,-356"/>
<text text-anchor="start" x="180.5" y="-374" font-family="Helvetica,sans-Serif" font-size="10.00">OurConcurrentQueue</text>
<text text-anchor="middle" x="227" y="-363" font-family="Helvetica,sans-Serif" font-size="10.00">&lt; T, Allocator &gt;</text>
</a>
</g>
</g>
<!-- Node25&#45;&gt;Node24 -->
<g id="edge28" class="edge"><title>Node25&#45;&gt;Node24</title>
<path fill="none" stroke="orange" stroke-dasharray="5,2" d="M291.937,-371C340.753,-371 407.978,-371 458.377,-371"/>
<polygon fill="orange" stroke="orange" points="291.813,-367.5 281.813,-371 291.813,-374.5 291.813,-367.5"/>
<text text-anchor="start" x="312.5" y="-385" font-family="Helvetica,sans-Serif" font-size="10.00"> &lt; tlx::Delegate, mem</text>
<text text-anchor="middle" x="376" y="-374" font-family="Helvetica,sans-Serif" font-size="10.00">::Allocator&lt; tlx::Delegate &gt; &gt;</text>
</g>
<!-- Node26&#45;&gt;Node6 -->
<g id="edge36" class="edge"><title>Node26&#45;&gt;Node6</title>
<path fill="none" stroke="#9a32cd" stroke-dasharray="5,2" d="M868.74,-262.961C966.576,-253.019 1216.9,-227.58 1296.38,-219.502"/>
<polygon fill="#9a32cd" stroke="#9a32cd" points="868.264,-259.492 858.669,-263.985 868.971,-266.456 868.264,-259.492"/>
<text text-anchor="middle" x="1096" y="-250" font-family="Helvetica,sans-Serif" font-size="10.00"> block_pool_</text>
</g>
<!-- Node26&#45;&gt;Node22 -->
<g id="edge31" class="edge"><title>Node26&#45;&gt;Node22</title>
<path fill="none" stroke="#9a32cd" stroke-dasharray="5,2" d="M868.83,-270.743C922.08,-275.748 1015.37,-284.516 1063.81,-289.069"/>
<polygon fill="#9a32cd" stroke="#9a32cd" points="869.023,-267.246 858.739,-269.795 868.368,-274.216 869.023,-267.246"/>
<text text-anchor="middle" x="957" y="-287" font-family="Helvetica,sans-Serif" font-size="10.00"> block_pool_</text>
</g>
<!-- Node27 -->
<g id="node27" class="node"><title>Node27</title>
<g id="a_node27"><a xlink:href="classthrill_1_1net_1_1FlowControlChannelManager.html" target="_top" xlink:title="FlowControlChannelManager">
<polygon fill="none" stroke="black" points="1024.5,-320.5 1024.5,-339.5 1167.5,-339.5 1167.5,-320.5 1024.5,-320.5"/>
<text text-anchor="middle" x="1096" y="-327.5" font-family="Helvetica,sans-Serif" font-size="10.00">FlowControlChannelManager</text>
</a>
</g>
</g>
<!-- Node27&#45;&gt;Node6 -->
<g id="edge37" class="edge"><title>Node27&#45;&gt;Node6</title>
<path fill="none" stroke="#9a32cd" stroke-dasharray="5,2" d="M1177.82,-335.682C1205.59,-333.486 1234.96,-325.95 1256,-307 1280.19,-285.216 1252.6,-260.529 1274,-236 1279.79,-229.368 1288.22,-225.019 1296.36,-222.18"/>
<polygon fill="#9a32cd" stroke="#9a32cd" points="1177.47,-332.196 1167.68,-336.26 1177.86,-339.185 1177.47,-332.196"/>
<text text-anchor="middle" x="1221" y="-338" font-family="Helvetica,sans-Serif" font-size="10.00"> flow_manager_</text>
</g>
<!-- Node28 -->
<g id="node28" class="node"><title>Node28</title>
<g id="a_node28"><a xlink:href="classthrill_1_1api_1_1DIAMemUse.html" target="_top" xlink:title="Description of the amount of RAM the internal data structures of a DIANode require. ">
<polygon fill="none" stroke="black" points="1285,-0.5 1285,-19.5 1359,-19.5 1359,-0.5 1285,-0.5"/>
<text text-anchor="middle" x="1322" y="-7.5" font-family="Helvetica,sans-Serif" font-size="10.00">DIAMemUse</text>
</a>
</g>
</g>
<!-- Node28&#45;&gt;Node4 -->
<g id="edge40" class="edge"><title>Node28&#45;&gt;Node4</title>
<path fill="none" stroke="#9a32cd" stroke-dasharray="5,2" d="M1369.16,-5.71755C1392.64,-5.73574 1420.66,-9.33164 1442,-23 1466.17,-38.4772 1479.18,-71.9808 1484.33,-88.4577"/>
<polygon fill="#9a32cd" stroke="#9a32cd" points="1368.99,-2.22011 1359.06,-5.92346 1369.13,-9.21865 1368.99,-2.22011"/>
<text text-anchor="middle" x="1415" y="-26" font-family="Helvetica,sans-Serif" font-size="10.00"> mem_limit_</text>
</g>
<!-- Node29&#45;&gt;Node3 -->
<g id="edge41" class="edge"><title>Node29&#45;&gt;Node3</title>
<path fill="none" stroke="orange" stroke-dasharray="5,2" d="M1686.37,-98C1718.42,-98 1755.93,-98 1786.42,-98"/>
<polygon fill="orange" stroke="orange" points="1686.17,-94.5001 1676.17,-98 1686.17,-101.5 1686.17,-94.5001"/>
<text text-anchor="middle" x="1727" y="-101" font-family="Helvetica,sans-Serif" font-size="10.00"> &lt; std::string &gt;</text>
</g>
<!-- Node30 -->
<g id="node30" class="node"><title>Node30</title>
<g id="a_node30"><a xlink:href="classthrill_1_1api_1_1SourceNode.html" target="_top" xlink:title="SourceNode\&lt; ValueType \&gt;">
<polygon fill="none" stroke="black" points="1778.5,-50.5 1778.5,-69.5 1913.5,-69.5 1913.5,-50.5 1778.5,-50.5"/>
<text text-anchor="middle" x="1846" y="-57.5" font-family="Helvetica,sans-Serif" font-size="10.00">SourceNode&lt; ValueType &gt;</text>
</a>
</g>
</g>
<!-- Node30&#45;&gt;Node2 -->
<g id="edge43" class="edge"><title>Node30&#45;&gt;Node2</title>
<path fill="none" stroke="orange" stroke-dasharray="5,2" d="M1923.6,-65.8364C1947.44,-67.7206 1973.82,-69.8738 1998,-72 2003.77,-72.5072 2009.76,-73.0511 2015.77,-73.6081"/>
<polygon fill="orange" stroke="orange" points="1923.79,-62.3409 1913.55,-65.0463 1923.24,-69.3194 1923.79,-62.3409"/>
<text text-anchor="middle" x="1965" y="-75" font-family="Helvetica,sans-Serif" font-size="10.00"> &lt; std::string &gt;</text>
</g>
<!-- Node31&#45;&gt;Node30 -->
<g id="edge44" class="edge"><title>Node31&#45;&gt;Node30</title>
<path fill="none" stroke="midnightblue" d="M1686.33,-60C1715.63,-60 1749.49,-60 1778.38,-60"/>
<polygon fill="midnightblue" stroke="midnightblue" points="1686.17,-56.5001 1676.17,-60 1686.17,-63.5001 1686.17,-56.5001"/>
</g>
</g>
</svg>
