<?xml version="1.0" encoding="UTF-8" standalone="no"?>
<!DOCTYPE svg PUBLIC "-//W3C//DTD SVG 1.1//EN"
 "http://www.w3.org/Graphics/SVG/1.1/DTD/svg11.dtd">
<!-- Generated by graphviz version 2.26.3 (20100126.1600)
 -->
<!-- Title: BlockReader&lt; BlockSource &gt; Pages: 1 -->
<svg width="241pt" height="262pt"
 viewBox="0.00 0.00 241.00 262.00" xmlns="http://www.w3.org/2000/svg" xmlns:xlink="http://www.w3.org/1999/xlink">
<g id="graph1" class="graph" transform="scale(1 1) rotate(0) translate(4 258)">
<title>BlockReader&lt; BlockSource &gt;</title>
<!-- Node1 -->
<g id="node1" class="node"><title>Node1</title>
<polygon fill="#bfbfbf" stroke="black" points="9,-72.5 9,-93.5 155,-93.5 155,-72.5 9,-72.5"/>
<text text-anchor="middle" x="82" y="-80.5" font-family="Helvetica,sans-Serif" font-size="10.00">BlockReader&lt; BlockSource &gt;</text>
</g>
<!-- Node4 -->
<g id="node7" class="node"><title>Node4</title>
<a xlink:href="classthrill_1_1data_1_1BlockReader.html" target="_top" xlink:title="BlockReader\&lt; CatBlockSource \&gt;">
<polygon fill="none" stroke="black" points="1,-0.5 1,-21.5 163,-21.5 163,-0.5 1,-0.5"/>
<text text-anchor="middle" x="82" y="-8.5" font-family="Helvetica,sans-Serif" font-size="10.00">BlockReader&lt; CatBlockSource &gt;</text>
</a>
</g>
<!-- Node1&#45;&gt;Node4 -->
<g id="edge6" class="edge"><title>Node1&#45;&gt;Node4</title>
<path fill="none" stroke="orange" stroke-dasharray="5,2" d="M82,-62.2348C82,-48.969 82,-32.3188 82,-21.6674"/>
<polygon fill="orange" stroke="orange" points="78.5001,-62.3761 82,-72.3762 85.5001,-62.3762 78.5001,-62.3761"/>
<text text-anchor="middle" x="128.5" y="-44.5" font-family="Helvetica,sans-Serif" font-size="10.00"> &lt; CatBlockSource &gt;</text>
</g>
<!-- Node2 -->
<g id="node2" class="node"><title>Node2</title>
<a xlink:href="classthrill_1_1common_1_1ItemReaderToolsBase.html" target="_top" xlink:title="ItemReaderToolsBase\l\&lt; BlockReader\&lt; BlockSource \&gt; \&gt;">
<polygon fill="none" stroke="black" points="0,-133 0,-167 164,-167 164,-133 0,-133"/>
<text text-anchor="start" x="8" y="-154" font-family="Helvetica,sans-Serif" font-size="10.00">ItemReaderToolsBase</text>
<text text-anchor="middle" x="82" y="-141" font-family="Helvetica,sans-Serif" font-size="10.00">&lt; BlockReader&lt; BlockSource &gt; &gt;</text>
</a>
</g>
<!-- Node2&#45;&gt;Node1 -->
<g id="edge2" class="edge"><title>Node2&#45;&gt;Node1</title>
<path fill="none" stroke="midnightblue" d="M82,-122.534C82,-112.306 82,-101.301 82,-93.5056"/>
<polygon fill="midnightblue" stroke="midnightblue" points="78.5001,-122.746 82,-132.746 85.5001,-122.746 78.5001,-122.746"/>
</g>
<!-- Node3 -->
<g id="node4" class="node"><title>Node3</title>
<a xlink:href="classthrill_1_1common_1_1ItemReaderToolsBase.html" target="_top" xlink:title="CRTP class to enhance item/memory reader classes with Varint decoding and String decoding.">
<polygon fill="none" stroke="black" points="25,-219 25,-253 139,-253 139,-219 25,-219"/>
<text text-anchor="start" x="33" y="-240" font-family="Helvetica,sans-Serif" font-size="10.00">ItemReaderToolsBase</text>
<text text-anchor="middle" x="82" y="-227" font-family="Helvetica,sans-Serif" font-size="10.00">&lt; Reader &gt;</text>
</a>
</g>
<!-- Node3&#45;&gt;Node2 -->
<g id="edge4" class="edge"><title>Node3&#45;&gt;Node2</title>
<path fill="none" stroke="orange" stroke-dasharray="5,2" d="M82,-208.342C82,-194.774 82,-178.861 82,-167.084"/>
<polygon fill="orange" stroke="orange" points="78.5001,-208.597 82,-218.597 85.5001,-208.597 78.5001,-208.597"/>
<text text-anchor="middle" x="157.5" y="-190.5" font-family="Helvetica,sans-Serif" font-size="10.00"> &lt; BlockReader&lt; BlockSource &gt; &gt;</text>
</g>
</g>
</svg>
