<?xml version="1.0" encoding="UTF-8" standalone="no"?>
<!DOCTYPE svg PUBLIC "-//W3C//DTD SVG 1.1//EN"
 "http://www.w3.org/Graphics/SVG/1.1/DTD/svg11.dtd">
<!-- Generated by graphviz version 2.36.0 (20140111.2315)
 -->
<!-- Title: ByteBlock Pages: 1 -->
<svg width="361pt" height="232pt"
 viewBox="0.00 0.00 361.00 232.00" xmlns="http://www.w3.org/2000/svg" xmlns:xlink="http://www.w3.org/1999/xlink">
<g id="graph0" class="graph" transform="scale(1 1) rotate(0) translate(4 228)">
<title>ByteBlock</title>
<!-- Node1 -->
<g id="node1" class="node"><title>Node1</title>
<polygon fill="#bfbfbf" stroke="black" points="49,-0.5 49,-19.5 111,-19.5 111,-0.5 49,-0.5"/>
<text text-anchor="middle" x="80" y="-7.5" font-family="Helvetica,sans-Serif" font-size="10.00">ByteBlock</text>
</g>
<!-- Node2 -->
<g id="node2" class="node"><title>Node2</title>
<g id="a_node2"><a xlink:href="classtlx_1_1ReferenceCounter.html" target="_top" xlink:title="Provides reference counting abilities for use with CountingPtr. ">
<polygon fill="none" stroke="black" points="0,-68.5 0,-87.5 96,-87.5 96,-68.5 0,-68.5"/>
<text text-anchor="middle" x="48" y="-75.5" font-family="Helvetica,sans-Serif" font-size="10.00">ReferenceCounter</text>
</a>
</g>
</g>
<!-- Node2&#45;&gt;Node1 -->
<g id="edge1" class="edge"><title>Node2&#45;&gt;Node1</title>
<path fill="none" stroke="midnightblue" d="M56.6371,-59.1859C62.811,-46.4523 70.8554,-29.8607 75.7134,-19.8411"/>
<polygon fill="midnightblue" stroke="midnightblue" points="53.3969,-57.8465 52.1834,-68.3717 59.6956,-60.9005 53.3969,-57.8465"/>
</g>
<!-- Node3 -->
<g id="node3" class="node"><title>Node3</title>
<g id="a_node3"><a xlink:href="classthrill_1_1data_1_1BlockPool.html" target="_top" xlink:title="Pool to allocate, keep, swap out/in, and free all ByteBlocks on the host. ">
<polygon fill="none" stroke="black" points="114.5,-68.5 114.5,-87.5 175.5,-87.5 175.5,-68.5 114.5,-68.5"/>
<text text-anchor="middle" x="145" y="-75.5" font-family="Helvetica,sans-Serif" font-size="10.00">BlockPool</text>
</a>
</g>
</g>
<!-- Node3&#45;&gt;Node1 -->
<g id="edge2" class="edge"><title>Node3&#45;&gt;Node1</title>
<path fill="none" stroke="#9a32cd" stroke-dasharray="5,2" d="M129.289,-61.0474C116.549,-48.1111 99.0635,-30.3567 88.7072,-19.8411"/>
<polygon fill="#9a32cd" stroke="#9a32cd" points="126.992,-63.7027 136.502,-68.3717 131.979,-58.7909 126.992,-63.7027"/>
<text text-anchor="middle" x="146.5" y="-41.5" font-family="Helvetica,sans-Serif" font-size="10.00"> block_pool_</text>
</g>
<!-- Node4 -->
<g id="node4" class="node"><title>Node4</title>
<g id="a_node4"><a xlink:href="classthrill_1_1common_1_1ProfileTask.html" target="_top" xlink:title="ProfileTask">
<polygon fill="none" stroke="black" points="27,-136.5 27,-155.5 93,-155.5 93,-136.5 27,-136.5"/>
<text text-anchor="middle" x="60" y="-143.5" font-family="Helvetica,sans-Serif" font-size="10.00">ProfileTask</text>
</a>
</g>
</g>
<!-- Node4&#45;&gt;Node3 -->
<g id="edge3" class="edge"><title>Node4&#45;&gt;Node3</title>
<path fill="none" stroke="midnightblue" d="M79.1944,-130.096C96.0591,-117.001 120.012,-98.4028 133.885,-87.6305"/>
<polygon fill="midnightblue" stroke="midnightblue" points="76.8643,-127.474 71.1123,-136.372 81.1574,-133.003 76.8643,-127.474"/>
</g>
<!-- Node5 -->
<g id="node5" class="node"><title>Node5</title>
<g id="a_node5"><a xlink:href="classthrill_1_1common_1_1JsonLogger.html" target="_top" xlink:title="JsonLogger is a receiver of JSON output objects for logging. ">
<polygon fill="none" stroke="black" points="111.5,-136.5 111.5,-155.5 178.5,-155.5 178.5,-136.5 111.5,-136.5"/>
<text text-anchor="middle" x="145" y="-143.5" font-family="Helvetica,sans-Serif" font-size="10.00">JsonLogger</text>
</a>
</g>
</g>
<!-- Node5&#45;&gt;Node3 -->
<g id="edge4" class="edge"><title>Node5&#45;&gt;Node3</title>
<path fill="none" stroke="#9a32cd" stroke-dasharray="5,2" d="M145,-126.041C145,-113.472 145,-97.5631 145,-87.8411"/>
<polygon fill="#9a32cd" stroke="#9a32cd" points="141.5,-126.372 145,-136.372 148.5,-126.372 141.5,-126.372"/>
<text text-anchor="middle" x="162.5" y="-109.5" font-family="Helvetica,sans-Serif" font-size="10.00"> logger_</text>
</g>
<!-- Node5&#45;&gt;Node5 -->
<g id="edge6" class="edge"><title>Node5&#45;&gt;Node5</title>
<path fill="none" stroke="#9a32cd" stroke-dasharray="5,2" d="M188.866,-151.203C193.226,-150.162 196,-148.428 196,-146 196,-142.016 188.529,-139.899 178.841,-139.65"/>
<polygon fill="#9a32cd" stroke="#9a32cd" points="188.378,-147.736 178.841,-152.35 189.174,-154.691 188.378,-147.736"/>
<text text-anchor="middle" x="212.5" y="-143.5" font-family="Helvetica,sans-Serif" font-size="10.00"> super_</text>
</g>
<!-- Node6 -->
<g id="node6" class="node"><title>Node6</title>
<g id="a_node6"><a xlink:href="classthrill_1_1common_1_1JsonVerbatim.html" target="_top" xlink:title="A special class to output verbatim text. ">
<polygon fill="none" stroke="black" points="106.5,-204.5 106.5,-223.5 183.5,-223.5 183.5,-204.5 106.5,-204.5"/>
<text text-anchor="middle" x="145" y="-211.5" font-family="Helvetica,sans-Serif" font-size="10.00">JsonVerbatim</text>
</a>
</g>
</g>
<!-- Node6&#45;&gt;Node5 -->
<g id="edge5" class="edge"><title>Node6&#45;&gt;Node5</title>
<path fill="none" stroke="#9a32cd" stroke-dasharray="5,2" d="M145,-194.041C145,-181.472 145,-165.563 145,-155.841"/>
<polygon fill="#9a32cd" stroke="#9a32cd" points="141.5,-194.372 145,-204.372 148.5,-194.372 141.5,-194.372"/>
<text text-anchor="middle" x="168" y="-177.5" font-family="Helvetica,sans-Serif" font-size="10.00"> common_</text>
</g>
<!-- Node7 -->
<g id="node7" class="node"><title>Node7</title>
<g id="a_node7"><a xlink:href="classthrill_1_1mem_1_1Manager.html" target="_top" xlink:title="Object shared by allocators and other classes to track memory allocations. ">
<polygon fill="none" stroke="black" points="248,-136.5 248,-155.5 302,-155.5 302,-136.5 248,-136.5"/>
<text text-anchor="middle" x="275" y="-143.5" font-family="Helvetica,sans-Serif" font-size="10.00">Manager</text>
</a>
</g>
</g>
<!-- Node7&#45;&gt;Node3 -->
<g id="edge7" class="edge"><title>Node7&#45;&gt;Node3</title>
<path fill="none" stroke="#9a32cd" stroke-dasharray="5,2" d="M248.781,-131.689C222.902,-118.55 184.094,-98.8475 161.999,-87.6305"/>
<polygon fill="#9a32cd" stroke="#9a32cd" points="247.504,-134.966 258.005,-136.372 250.673,-128.724 247.504,-134.966"/>
<text text-anchor="middle" x="257.5" y="-109.5" font-family="Helvetica,sans-Serif" font-size="10.00"> mem_manager_</text>
</g>
<!-- Node7&#45;&gt;Node7 -->
<g id="edge8" class="edge"><title>Node7&#45;&gt;Node7</title>
<path fill="none" stroke="#9a32cd" stroke-dasharray="5,2" d="M312.51,-151.495C317.038,-150.502 320,-148.671 320,-146 320,-141.617 312.024,-139.494 302.241,-139.631"/>
<polygon fill="#9a32cd" stroke="#9a32cd" points="311.908,-148.033 302.241,-152.369 312.502,-155.008 311.908,-148.033"/>
<text text-anchor="middle" x="336.5" y="-143.5" font-family="Helvetica,sans-Serif" font-size="10.00"> super_</text>
</g>
</g>
</svg>
