<?xml version="1.0" encoding="UTF-8" standalone="no"?>
<!DOCTYPE svg PUBLIC "-//W3C//DTD SVG 1.1//EN"
 "http://www.w3.org/Graphics/SVG/1.1/DTD/svg11.dtd">
<!-- Generated by graphviz version 2.40.1 (20161225.0304)
 -->
<!-- Title: read_write_pool&lt; BlockType &gt; Pages: 1 -->
<svg width="322pt" height="95pt"
 viewBox="0.00 0.00 321.50 95.00" xmlns="http://www.w3.org/2000/svg" xmlns:xlink="http://www.w3.org/1999/xlink">
<g id="graph0" class="graph" transform="scale(1 1) rotate(0) translate(4 91)">
<title>read_write_pool&lt; BlockType &gt;</title>
<!-- Node1 -->
<g id="node1" class="node">
<title>Node1</title>
<polygon fill="#bfbfbf" stroke="#000000" points="69.5,-.5 69.5,-19.5 236.5,-19.5 236.5,-.5 69.5,-.5"/>
<text text-anchor="middle" x="153" y="-7.5" font-family="Helvetica,sans-Serif" font-size="10.00" fill="#000000">read_write_pool&lt; BlockType &gt;</text>
</g>
<!-- Node2 -->
<g id="node2" class="node">
<title>Node2</title>
<g id="a_node2"><a xlink:href="classfoxxll_1_1write__pool.html" target="_top" xlink:title="Implements dynamically resizable buffered writing pool. ">
<polygon fill="none" stroke="#000000" points="0,-67.5 0,-86.5 140,-86.5 140,-67.5 0,-67.5"/>
<text text-anchor="middle" x="70" y="-74.5" font-family="Helvetica,sans-Serif" font-size="10.00" fill="#000000">write_pool&lt; BlockType &gt;</text>
</a>
</g>
</g>
<!-- Node2&#45;&gt;Node1 -->
<g id="edge1" class="edge">
<title>Node2&#45;&gt;Node1</title>
<path fill="none" stroke="#9a32cd" stroke-dasharray="5,2" d="M90.0697,-60.7992C106.033,-47.9131 127.8266,-30.3207 141.1302,-19.5817"/>
<polygon fill="#9a32cd" stroke="#9a32cd" points="87.4746,-58.3959 81.8919,-67.4005 91.8715,-63.8427 87.4746,-58.3959"/>
<text text-anchor="middle" x="136" y="-41" font-family="Helvetica,sans-Serif" font-size="10.00" fill="#000000"> w_pool</text>
</g>
<!-- Node3 -->
<g id="node3" class="node">
<title>Node3</title>
<g id="a_node3"><a xlink:href="classfoxxll_1_1prefetch__pool.html" target="_top" xlink:title="Implements dynamically resizable prefetching pool. ">
<polygon fill="none" stroke="#000000" points="158.5,-67.5 158.5,-86.5 313.5,-86.5 313.5,-67.5 158.5,-67.5"/>
<text text-anchor="middle" x="236" y="-74.5" font-family="Helvetica,sans-Serif" font-size="10.00" fill="#000000">prefetch_pool&lt; BlockType &gt;</text>
</a>
</g>
</g>
<!-- Node3&#45;&gt;Node1 -->
<g id="edge2" class="edge">
<title>Node3&#45;&gt;Node1</title>
<path fill="none" stroke="#9a32cd" stroke-dasharray="5,2" d="M215.9303,-60.7992C199.967,-47.9131 178.1734,-30.3207 164.8698,-19.5817"/>
<polygon fill="#9a32cd" stroke="#9a32cd" points="214.1285,-63.8427 224.1081,-67.4005 218.5254,-58.3959 214.1285,-63.8427"/>
<text text-anchor="middle" x="217" y="-41" font-family="Helvetica,sans-Serif" font-size="10.00" fill="#000000"> p_pool</text>
</g>
</g>
</svg>
