<?xml version="1.0" encoding="UTF-8" standalone="no"?>
<!DOCTYPE svg PUBLIC "-//W3C//DTD SVG 1.1//EN"
 "http://www.w3.org/Graphics/SVG/1.1/DTD/svg11.dtd">
<!-- Generated by graphviz version 2.36.0 (20140111.2315)
 -->
<!-- Title: LocationDetection&lt; HashCount &gt; Pages: 1 -->
<svg width="388pt" height="110pt"
 viewBox="0.00 0.00 388.00 110.00" xmlns="http://www.w3.org/2000/svg" xmlns:xlink="http://www.w3.org/1999/xlink">
<g id="graph0" class="graph" transform="scale(1 1) rotate(0) translate(4 106)">
<title>LocationDetection&lt; HashCount &gt;</title>
<!-- Node1 -->
<g id="node1" class="node"><title>Node1</title>
<polygon fill="#bfbfbf" stroke="black" points="0.5,-36 0.5,-66 101.5,-66 101.5,-36 0.5,-36"/>
<text text-anchor="start" x="8.5" y="-54" font-family="Helvetica,sans-Serif" font-size="10.00">LocationDetection&lt;</text>
<text text-anchor="middle" x="51" y="-43" font-family="Helvetica,sans-Serif" font-size="10.00"> HashCount &gt;</text>
</g>
<!-- Node2 -->
<g id="node2" class="node"><title>Node2</title>
<g id="a_node2"><a xlink:href="classthrill_1_1core_1_1LocationDetection.html" target="_top" xlink:title="LocationDetection\&lt;\l thrill::api::GroupByNode\l::HashCount \&gt;">
<polygon fill="none" stroke="black" points="256,-60.5 256,-101.5 380,-101.5 380,-60.5 256,-60.5"/>
<text text-anchor="start" x="264" y="-89.5" font-family="Helvetica,sans-Serif" font-size="10.00">LocationDetection&lt;</text>
<text text-anchor="start" x="264" y="-78.5" font-family="Helvetica,sans-Serif" font-size="10.00"> thrill::api::GroupByNode</text>
<text text-anchor="middle" x="318" y="-67.5" font-family="Helvetica,sans-Serif" font-size="10.00">::HashCount &gt;</text>
</a>
</g>
</g>
<!-- Node1&#45;&gt;Node2 -->
<g id="edge1" class="edge"><title>Node1&#45;&gt;Node2</title>
<path fill="none" stroke="orange" stroke-dasharray="5,2" d="M111.556,-57.7422C154.481,-62.6017 212.245,-69.1409 255.589,-74.0478"/>
<polygon fill="orange" stroke="orange" points="111.864,-54.2548 101.534,-56.6076 111.076,-61.2103 111.864,-54.2548"/>
<text text-anchor="start" x="120.5" y="-85" font-family="Helvetica,sans-Serif" font-size="10.00"> &lt; thrill::api::GroupByNode</text>
<text text-anchor="middle" x="179" y="-74" font-family="Helvetica,sans-Serif" font-size="10.00">::HashCount &gt;</text>
</g>
<!-- Node3 -->
<g id="node3" class="node"><title>Node3</title>
<g id="a_node3"><a xlink:href="classthrill_1_1core_1_1LocationDetection.html" target="_top" xlink:title="LocationDetection\&lt;\l thrill::api::JoinNode\l::HashCount \&gt;">
<polygon fill="none" stroke="black" points="266,-0.5 266,-41.5 370,-41.5 370,-0.5 266,-0.5"/>
<text text-anchor="start" x="274" y="-29.5" font-family="Helvetica,sans-Serif" font-size="10.00">LocationDetection&lt;</text>
<text text-anchor="start" x="274" y="-18.5" font-family="Helvetica,sans-Serif" font-size="10.00"> thrill::api::JoinNode</text>
<text text-anchor="middle" x="318" y="-7.5" font-family="Helvetica,sans-Serif" font-size="10.00">::HashCount &gt;</text>
</a>
</g>
</g>
<!-- Node1&#45;&gt;Node3 -->
<g id="edge2" class="edge"><title>Node1&#45;&gt;Node3</title>
<path fill="none" stroke="orange" stroke-dasharray="5,2" d="M111.418,-35.4946C114.311,-34.9447 117.182,-34.4415 120,-34 169.101,-26.3059 225.78,-23.1572 265.701,-21.8731"/>
<polygon fill="orange" stroke="orange" points="110.645,-32.0803 101.554,-37.522 112.054,-38.9369 110.645,-32.0803"/>
<text text-anchor="start" x="130.5" y="-48" font-family="Helvetica,sans-Serif" font-size="10.00"> &lt; thrill::api::JoinNode</text>
<text text-anchor="middle" x="179" y="-37" font-family="Helvetica,sans-Serif" font-size="10.00">::HashCount &gt;</text>
</g>
</g>
</svg>
