<?xml version="1.0" encoding="UTF-8" standalone="no"?>
<!DOCTYPE svg PUBLIC "-//W3C//DTD SVG 1.1//EN"
 "http://www.w3.org/Graphics/SVG/1.1/DTD/svg11.dtd">
<!-- Generated by graphviz version 2.36.0 (20140111.2315)
 -->
<!-- Title: StreamSink Pages: 1 -->
<svg width="1958pt" height="461pt"
 viewBox="0.00 0.00 1958.00 461.00" xmlns="http://www.w3.org/2000/svg" xmlns:xlink="http://www.w3.org/1999/xlink">
<g id="graph0" class="graph" transform="scale(1 1) rotate(0) translate(4 457)">
<title>StreamSink</title>
<!-- Node1 -->
<g id="node1" class="node"><title>Node1</title>
<polygon fill="#bfbfbf" stroke="black" points="1882,-244.5 1882,-263.5 1950,-263.5 1950,-244.5 1882,-244.5"/>
<text text-anchor="middle" x="1916" y="-251.5" font-family="Helvetica,sans-Serif" font-size="10.00">StreamSink</text>
</g>
<!-- Node2 -->
<g id="node2" class="node"><title>Node2</title>
<g id="a_node2"><a xlink:href="classthrill_1_1data_1_1BlockSink.html" target="_top" xlink:title="Pure virtual base class for all things that can receive Blocks from a BlockWriter. ">
<polygon fill="none" stroke="black" points="815.5,-264.5 815.5,-283.5 876.5,-283.5 876.5,-264.5 815.5,-264.5"/>
<text text-anchor="middle" x="846" y="-271.5" font-family="Helvetica,sans-Serif" font-size="10.00">BlockSink</text>
</a>
</g>
</g>
<!-- Node2&#45;&gt;Node1 -->
<g id="edge1" class="edge"><title>Node2&#45;&gt;Node1</title>
<path fill="none" stroke="midnightblue" d="M886.801,-265.971C902.669,-263.041 921.14,-259.966 938,-258 1105.15,-238.508 1147.72,-236 1316,-236 1316,-236 1316,-236 1679,-236 1751.53,-236 1836.23,-244.556 1881.84,-249.87"/>
<polygon fill="midnightblue" stroke="midnightblue" points="885.967,-262.567 876.792,-267.863 887.268,-269.445 885.967,-262.567"/>
</g>
<!-- Node8 -->
<g id="node8" class="node"><title>Node8</title>
<g id="a_node8"><a xlink:href="classthrill_1_1data_1_1BlockQueue.html" target="_top" xlink:title="A BlockQueue is a thread&#45;safe queue used to hand&#45;over Block objects between threads. ">
<polygon fill="none" stroke="black" points="1388,-187.5 1388,-206.5 1458,-206.5 1458,-187.5 1388,-187.5"/>
<text text-anchor="middle" x="1423" y="-194.5" font-family="Helvetica,sans-Serif" font-size="10.00">BlockQueue</text>
</a>
</g>
</g>
<!-- Node2&#45;&gt;Node8 -->
<g id="edge10" class="edge"><title>Node2&#45;&gt;Node8</title>
<path fill="none" stroke="midnightblue" d="M886.707,-272.683C934.232,-270.798 1016.16,-266.566 1086,-258 1206.11,-243.27 1235.02,-232.028 1354,-210 1364.99,-207.965 1376.97,-205.693 1387.77,-203.625"/>
<polygon fill="midnightblue" stroke="midnightblue" points="886.393,-269.193 876.534,-273.072 886.66,-276.188 886.393,-269.193"/>
</g>
<!-- Node15 -->
<g id="node15" class="node"><title>Node15</title>
<g id="a_node15"><a xlink:href="classthrill_1_1data_1_1File.html" target="_top" xlink:title="A File is an ordered sequence of Block objects for storing items. ">
<polygon fill="none" stroke="black" points="1167,-302.5 1167,-321.5 1199,-321.5 1199,-302.5 1167,-302.5"/>
<text text-anchor="middle" x="1183" y="-309.5" font-family="Helvetica,sans-Serif" font-size="10.00">File</text>
</a>
</g>
</g>
<!-- Node2&#45;&gt;Node15 -->
<g id="edge18" class="edge"><title>Node2&#45;&gt;Node15</title>
<path fill="none" stroke="midnightblue" d="M886.937,-278.916C902.824,-280.848 921.272,-283.063 938,-285 1024.58,-295.023 1128.54,-306.262 1166.86,-310.378"/>
<polygon fill="midnightblue" stroke="midnightblue" points="887.261,-275.43 876.911,-277.693 886.413,-282.378 887.261,-275.43"/>
</g>
<!-- Node3 -->
<g id="node3" class="node"><title>Node3</title>
<g id="a_node3"><a xlink:href="classthrill_1_1data_1_1BlockPool.html" target="_top" xlink:title="Pool to allocate, keep, swap out/in, and free all ByteBlocks on the host. ">
<polygon fill="none" stroke="black" points="517.5,-275.5 517.5,-294.5 578.5,-294.5 578.5,-275.5 517.5,-275.5"/>
<text text-anchor="middle" x="548" y="-282.5" font-family="Helvetica,sans-Serif" font-size="10.00">BlockPool</text>
</a>
</g>
</g>
<!-- Node3&#45;&gt;Node2 -->
<g id="edge2" class="edge"><title>Node3&#45;&gt;Node2</title>
<path fill="none" stroke="#9a32cd" stroke-dasharray="5,2" d="M588.831,-280.275C607.913,-278.231 631.108,-276.066 652,-275 709.725,-272.054 777.287,-272.624 815.22,-273.31"/>
<polygon fill="#9a32cd" stroke="#9a32cd" points="588.252,-276.817 578.695,-281.39 589.018,-283.775 588.252,-276.817"/>
<text text-anchor="middle" x="703" y="-278" font-family="Helvetica,sans-Serif" font-size="10.00"> block_pool_</text>
</g>
<!-- Node21 -->
<g id="node21" class="node"><title>Node21</title>
<g id="a_node21"><a xlink:href="classthrill_1_1data_1_1Multiplexer.html" target="_top" xlink:title="Multiplexes virtual Connections on Dispatcher. ">
<polygon fill="none" stroke="black" points="814,-370.5 814,-389.5 878,-389.5 878,-370.5 814,-370.5"/>
<text text-anchor="middle" x="846" y="-377.5" font-family="Helvetica,sans-Serif" font-size="10.00">Multiplexer</text>
</a>
</g>
</g>
<!-- Node3&#45;&gt;Node21 -->
<g id="edge31" class="edge"><title>Node3&#45;&gt;Node21</title>
<path fill="none" stroke="#9a32cd" stroke-dasharray="5,2" d="M588.928,-284.791C632.75,-286.361 703.566,-294.357 754,-327 765.494,-334.439 761.155,-343.643 772,-352 784.258,-361.445 800.074,-368.03 813.85,-372.43"/>
<polygon fill="#9a32cd" stroke="#9a32cd" points="588.753,-281.285 578.665,-284.523 588.57,-288.283 588.753,-281.285"/>
<text text-anchor="middle" x="703" y="-330" font-family="Helvetica,sans-Serif" font-size="10.00"> block_pool_</text>
</g>
<!-- Node29 -->
<g id="node29" class="node"><title>Node29</title>
<g id="a_node29"><a xlink:href="classthrill_1_1data_1_1MixBlockQueue.html" target="_top" xlink:title="Implements reading an unordered sequence of items from multiple workers, which sends Blocks...">
<polygon fill="none" stroke="black" points="1140,-141.5 1140,-160.5 1226,-160.5 1226,-141.5 1140,-141.5"/>
<text text-anchor="middle" x="1183" y="-148.5" font-family="Helvetica,sans-Serif" font-size="10.00">MixBlockQueue</text>
</a>
</g>
</g>
<!-- Node3&#45;&gt;Node29 -->
<g id="edge40" class="edge"><title>Node3&#45;&gt;Node29</title>
<path fill="none" stroke="#9a32cd" stroke-dasharray="5,2" d="M588.681,-276.982C633.183,-268.159 707.571,-253.915 772,-244 841.496,-233.305 1021.94,-233.999 1086,-205 1095.75,-200.586 1095.11,-194.955 1104,-189 1121.15,-177.519 1142.28,-167.443 1158.22,-160.557"/>
<polygon fill="#9a32cd" stroke="#9a32cd" points="587.968,-273.555 578.844,-278.941 589.335,-280.421 587.968,-273.555"/>
<text text-anchor="middle" x="846" y="-247" font-family="Helvetica,sans-Serif" font-size="10.00"> block_pool_</text>
</g>
<!-- Node4 -->
<g id="node4" class="node"><title>Node4</title>
<g id="a_node4"><a xlink:href="classthrill_1_1common_1_1ProfileTask.html" target="_top" xlink:title="ProfileTask">
<polygon fill="none" stroke="black" points="264,-278.5 264,-297.5 330,-297.5 330,-278.5 264,-278.5"/>
<text text-anchor="middle" x="297" y="-285.5" font-family="Helvetica,sans-Serif" font-size="10.00">ProfileTask</text>
</a>
</g>
</g>
<!-- Node4&#45;&gt;Node3 -->
<g id="edge3" class="edge"><title>Node4&#45;&gt;Node3</title>
<path fill="none" stroke="midnightblue" d="M340.269,-287.491C390.619,-286.884 473.43,-285.886 517.407,-285.357"/>
<polygon fill="midnightblue" stroke="midnightblue" points="340,-283.994 330.043,-287.614 340.084,-290.993 340,-283.994"/>
</g>
<!-- Node5 -->
<g id="node5" class="node"><title>Node5</title>
<g id="a_node5"><a xlink:href="classthrill_1_1common_1_1JsonLogger.html" target="_top" xlink:title="JsonLogger is a receiver of JSON output objects for logging. ">
<polygon fill="none" stroke="black" points="263.5,-211.5 263.5,-230.5 330.5,-230.5 330.5,-211.5 263.5,-211.5"/>
<text text-anchor="middle" x="297" y="-218.5" font-family="Helvetica,sans-Serif" font-size="10.00">JsonLogger</text>
</a>
</g>
</g>
<!-- Node5&#45;&gt;Node3 -->
<g id="edge4" class="edge"><title>Node5&#45;&gt;Node3</title>
<path fill="none" stroke="#9a32cd" stroke-dasharray="5,2" d="M340.462,-231.914C390.738,-244.836 473.18,-266.026 517.162,-277.331"/>
<polygon fill="#9a32cd" stroke="#9a32cd" points="341.109,-228.467 330.552,-229.367 339.366,-235.246 341.109,-228.467"/>
<text text-anchor="middle" x="407" y="-260" font-family="Helvetica,sans-Serif" font-size="10.00"> logger_</text>
</g>
<!-- Node5&#45;&gt;Node5 -->
<g id="edge6" class="edge"><title>Node5&#45;&gt;Node5</title>
<path fill="none" stroke="#9a32cd" stroke-dasharray="5,2" d="M276.631,-240.4C277.991,-245.315 284.781,-249 297,-249 316.551,-249 322.202,-239.565 313.954,-230.757"/>
<polygon fill="#9a32cd" stroke="#9a32cd" points="280.007,-241.352 280.046,-230.757 273.408,-239.015 280.007,-241.352"/>
<text text-anchor="middle" x="297" y="-252" font-family="Helvetica,sans-Serif" font-size="10.00"> super_</text>
</g>
<!-- Node6 -->
<g id="node6" class="node"><title>Node6</title>
<g id="a_node6"><a xlink:href="classthrill_1_1common_1_1JsonVerbatim.html" target="_top" xlink:title="A special class to output verbatim text. ">
<polygon fill="none" stroke="black" points="16.5,-211.5 16.5,-230.5 93.5,-230.5 93.5,-211.5 16.5,-211.5"/>
<text text-anchor="middle" x="55" y="-218.5" font-family="Helvetica,sans-Serif" font-size="10.00">JsonVerbatim</text>
</a>
</g>
</g>
<!-- Node6&#45;&gt;Node5 -->
<g id="edge5" class="edge"><title>Node6&#45;&gt;Node5</title>
<path fill="none" stroke="#9a32cd" stroke-dasharray="5,2" d="M103.776,-221C151.104,-221 222.303,-221 263.46,-221"/>
<polygon fill="#9a32cd" stroke="#9a32cd" points="103.764,-217.5 93.764,-221 103.764,-224.5 103.764,-217.5"/>
<text text-anchor="middle" x="176" y="-224" font-family="Helvetica,sans-Serif" font-size="10.00"> common_</text>
</g>
<!-- Node7 -->
<g id="node7" class="node"><title>Node7</title>
<g id="a_node7"><a xlink:href="classthrill_1_1mem_1_1Manager.html" target="_top" xlink:title="Object shared by allocators and other classes to track memory allocations. ">
<polygon fill="none" stroke="black" points="270,-322.5 270,-341.5 324,-341.5 324,-322.5 270,-322.5"/>
<text text-anchor="middle" x="297" y="-329.5" font-family="Helvetica,sans-Serif" font-size="10.00">Manager</text>
</a>
</g>
</g>
<!-- Node7&#45;&gt;Node3 -->
<g id="edge7" class="edge"><title>Node7&#45;&gt;Node3</title>
<path fill="none" stroke="#9a32cd" stroke-dasharray="5,2" d="M334.121,-325.182C383.595,-315.844 471.506,-299.25 517.341,-290.598"/>
<polygon fill="#9a32cd" stroke="#9a32cd" points="333.354,-321.765 324.177,-327.059 334.652,-328.643 333.354,-321.765"/>
<text text-anchor="middle" x="407" y="-322" font-family="Helvetica,sans-Serif" font-size="10.00"> mem_manager_</text>
</g>
<!-- Node7&#45;&gt;Node7 -->
<g id="edge8" class="edge"><title>Node7&#45;&gt;Node7</title>
<path fill="none" stroke="#9a32cd" stroke-dasharray="5,2" d="M276.631,-351.4C277.991,-356.315 284.781,-360 297,-360 316.551,-360 322.202,-350.565 313.954,-341.757"/>
<polygon fill="#9a32cd" stroke="#9a32cd" points="280.007,-352.352 280.046,-341.757 273.408,-350.015 280.007,-352.352"/>
<text text-anchor="middle" x="297" y="-363" font-family="Helvetica,sans-Serif" font-size="10.00"> super_</text>
</g>
<!-- Node7&#45;&gt;Node21 -->
<g id="edge32" class="edge"><title>Node7&#45;&gt;Node21</title>
<path fill="none" stroke="#9a32cd" stroke-dasharray="5,2" d="M334.215,-337.239C367.401,-341.897 417.925,-348.628 462,-353 592.343,-365.929 748.244,-374.918 813.672,-378.398"/>
<polygon fill="#9a32cd" stroke="#9a32cd" points="334.471,-333.741 324.079,-335.806 333.49,-340.672 334.471,-333.741"/>
<text text-anchor="middle" x="548" y="-371" font-family="Helvetica,sans-Serif" font-size="10.00"> mem_manager_</text>
</g>
<!-- Node8&#45;&gt;Node1 -->
<g id="edge9" class="edge"><title>Node8&#45;&gt;Node1</title>
<path fill="none" stroke="#9a32cd" stroke-dasharray="5,2" d="M1468.36,-191.795C1549.46,-183.94 1726.02,-174.594 1864,-222 1878.63,-227.027 1893.39,-236.937 1903.24,-244.403"/>
<polygon fill="#9a32cd" stroke="#9a32cd" points="1467.62,-188.351 1458.03,-192.838 1468.33,-195.316 1467.62,-188.351"/>
<text text-anchor="middle" x="1678" y="-199" font-family="Helvetica,sans-Serif" font-size="10.00"> block_queue_</text>
</g>
<!-- Node9 -->
<g id="node9" class="node"><title>Node9</title>
<g id="a_node9"><a xlink:href="classthrill_1_1common_1_1AtomicMovable.html" target="_top" xlink:title="AtomicMovable\&lt; bool \&gt;">
<polygon fill="none" stroke="black" points="952,-181.5 952,-200.5 1072,-200.5 1072,-181.5 952,-181.5"/>
<text text-anchor="middle" x="1012" y="-188.5" font-family="Helvetica,sans-Serif" font-size="10.00">AtomicMovable&lt; bool &gt;</text>
</a>
</g>
</g>
<!-- Node9&#45;&gt;Node8 -->
<g id="edge11" class="edge"><title>Node9&#45;&gt;Node8</title>
<path fill="none" stroke="#9a32cd" stroke-dasharray="5,2" d="M1082.26,-192.016C1170.87,-193.316 1320.89,-195.517 1387.9,-196.5"/>
<polygon fill="#9a32cd" stroke="#9a32cd" points="1082.09,-188.513 1072.04,-191.866 1081.98,-195.512 1082.09,-188.513"/>
<text text-anchor="middle" x="1183" y="-198" font-family="Helvetica,sans-Serif" font-size="10.00"> write_closed_</text>
</g>
<!-- Node10 -->
<g id="node10" class="node"><title>Node10</title>
<g id="a_node10"><a xlink:href="classthrill_1_1common_1_1AtomicMovable.html" target="_top" xlink:title="This is a derivative of std::atomic which enables easier and less error&#45;prone writing of move&#45;only cl...">
<polygon fill="none" stroke="black" points="494,-161.5 494,-180.5 602,-180.5 602,-161.5 494,-161.5"/>
<text text-anchor="middle" x="548" y="-168.5" font-family="Helvetica,sans-Serif" font-size="10.00">AtomicMovable&lt; T &gt;</text>
</a>
</g>
</g>
<!-- Node10&#45;&gt;Node9 -->
<g id="edge12" class="edge"><title>Node10&#45;&gt;Node9</title>
<path fill="none" stroke="orange" stroke-dasharray="5,2" d="M612.482,-173.748C702.138,-177.629 864.629,-184.664 951.862,-188.44"/>
<polygon fill="orange" stroke="orange" points="612.591,-170.25 602.449,-173.314 612.288,-177.243 612.591,-170.25"/>
<text text-anchor="middle" x="703" y="-183" font-family="Helvetica,sans-Serif" font-size="10.00"> &lt; bool &gt;</text>
</g>
<!-- Node30 -->
<g id="node30" class="node"><title>Node30</title>
<g id="a_node30"><a xlink:href="classthrill_1_1common_1_1AtomicMovable.html" target="_top" xlink:title="AtomicMovable\&lt; size_t \&gt;">
<polygon fill="none" stroke="black" points="782,-141.5 782,-160.5 910,-160.5 910,-141.5 782,-141.5"/>
<text text-anchor="middle" x="846" y="-148.5" font-family="Helvetica,sans-Serif" font-size="10.00">AtomicMovable&lt; size_t &gt;</text>
</a>
</g>
</g>
<!-- Node10&#45;&gt;Node30 -->
<g id="edge39" class="edge"><title>Node10&#45;&gt;Node30</title>
<path fill="none" stroke="orange" stroke-dasharray="5,2" d="M611.985,-160.618C625.172,-158.785 639.015,-157.11 652,-156 695.248,-152.304 744.129,-151.068 781.877,-150.748"/>
<polygon fill="orange" stroke="orange" points="611.455,-157.158 602.054,-162.044 612.45,-164.087 611.455,-157.158"/>
<text text-anchor="middle" x="703" y="-159" font-family="Helvetica,sans-Serif" font-size="10.00"> &lt; size_t &gt;</text>
</g>
<!-- Node11 -->
<g id="node11" class="node"><title>Node11</title>
<g id="a_node11"><a xlink:href="classtlx_1_1Delegate.html" target="_top" xlink:title="Delegate\&lt; void(BlockQueue &amp;)\&gt;">
<polygon fill="none" stroke="black" points="1104,-88.5 1104,-107.5 1262,-107.5 1262,-88.5 1104,-88.5"/>
<text text-anchor="middle" x="1183" y="-95.5" font-family="Helvetica,sans-Serif" font-size="10.00">Delegate&lt; void(BlockQueue &amp;)&gt;</text>
</a>
</g>
</g>
<!-- Node11&#45;&gt;Node8 -->
<g id="edge13" class="edge"><title>Node11&#45;&gt;Node8</title>
<path fill="none" stroke="#9a32cd" stroke-dasharray="5,2" d="M1272.14,-103.102C1299.54,-107.38 1329.07,-114.904 1354,-128 1381.4,-142.392 1404.54,-171.741 1415.39,-187.111"/>
<polygon fill="#9a32cd" stroke="#9a32cd" points="1272.55,-99.6255 1262.16,-101.669 1271.56,-106.554 1272.55,-99.6255"/>
<text text-anchor="middle" x="1317" y="-131" font-family="Helvetica,sans-Serif" font-size="10.00"> close_callback_</text>
</g>
<!-- Node12 -->
<g id="node12" class="node"><title>Node12</title>
<g id="a_node12"><a xlink:href="classtlx_1_1Delegate.html" target="_top" xlink:title="Delegate\&lt; T, Allocator \&gt;">
<polygon fill="none" stroke="black" points="784,-43.5 784,-62.5 908,-62.5 908,-43.5 784,-43.5"/>
<text text-anchor="middle" x="846" y="-50.5" font-family="Helvetica,sans-Serif" font-size="10.00">Delegate&lt; T, Allocator &gt;</text>
</a>
</g>
</g>
<!-- Node12&#45;&gt;Node11 -->
<g id="edge14" class="edge"><title>Node12&#45;&gt;Node11</title>
<path fill="none" stroke="orange" stroke-dasharray="5,2" d="M918.402,-57.4456C966.065,-61.0077 1030.03,-66.9327 1086,-76 1105.75,-79.1992 1127.5,-84.0695 1145.29,-88.4151"/>
<polygon fill="orange" stroke="orange" points="918.412,-53.9371 908.183,-56.6994 917.902,-60.9185 918.412,-53.9371"/>
<text text-anchor="middle" x="1012" y="-79" font-family="Helvetica,sans-Serif" font-size="10.00"> &lt; void(BlockQueue &amp;)&gt;</text>
</g>
<!-- Node13 -->
<g id="node13" class="node"><title>Node13</title>
<g id="a_node13"><a xlink:href="classthrill_1_1common_1_1OurConcurrentBoundedQueue.html" target="_top" xlink:title="OurConcurrentBoundedQueue\l\&lt; thrill::data::Block \&gt;">
<polygon fill="none" stroke="black" points="938.5,-0 938.5,-30 1085.5,-30 1085.5,-0 938.5,-0"/>
<text text-anchor="start" x="946.5" y="-18" font-family="Helvetica,sans-Serif" font-size="10.00">OurConcurrentBoundedQueue</text>
<text text-anchor="middle" x="1012" y="-7" font-family="Helvetica,sans-Serif" font-size="10.00">&lt; thrill::data::Block &gt;</text>
</a>
</g>
</g>
<!-- Node13&#45;&gt;Node8 -->
<g id="edge15" class="edge"><title>Node13&#45;&gt;Node8</title>
<path fill="none" stroke="#9a32cd" stroke-dasharray="5,2" d="M1095.9,-17.9364C1170.25,-24.4445 1278.88,-43.96 1354,-101 1385.72,-125.085 1408.57,-168.179 1417.66,-187.348"/>
<polygon fill="#9a32cd" stroke="#9a32cd" points="1095.9,-14.4246 1085.65,-17.1019 1095.33,-21.4015 1095.9,-14.4246"/>
<text text-anchor="middle" x="1183" y="-55" font-family="Helvetica,sans-Serif" font-size="10.00"> queue_</text>
</g>
<!-- Node14 -->
<g id="node14" class="node"><title>Node14</title>
<g id="a_node14"><a xlink:href="classthrill_1_1common_1_1OurConcurrentBoundedQueue.html" target="_top" xlink:title="This is a queue, similar to std::queue and tbb::concurrent_bounded_queue, except that it uses mutexes...">
<polygon fill="none" stroke="black" points="462.5,-36.5 462.5,-55.5 633.5,-55.5 633.5,-36.5 462.5,-36.5"/>
<text text-anchor="middle" x="548" y="-43.5" font-family="Helvetica,sans-Serif" font-size="10.00">OurConcurrentBoundedQueue&lt; T &gt;</text>
</a>
</g>
</g>
<!-- Node14&#45;&gt;Node13 -->
<g id="edge16" class="edge"><title>Node14&#45;&gt;Node13</title>
<path fill="none" stroke="orange" stroke-dasharray="5,2" d="M643.909,-39.6316C731.181,-33.7758 858.729,-25.2173 938.201,-19.8848"/>
<polygon fill="orange" stroke="orange" points="643.481,-36.1524 633.738,-40.3141 643.95,-43.1367 643.481,-36.1524"/>
<text text-anchor="middle" x="703" y="-42" font-family="Helvetica,sans-Serif" font-size="10.00"> &lt; thrill::data::Block &gt;</text>
</g>
<!-- Node31 -->
<g id="node31" class="node"><title>Node31</title>
<g id="a_node31"><a xlink:href="classthrill_1_1common_1_1OurConcurrentBoundedQueue.html" target="_top" xlink:title="OurConcurrentBoundedQueue\l\&lt; thrill::data::MixBlockQueue\l::SrcBlockPair \&gt;">
<polygon fill="none" stroke="black" points="772.5,-81.5 772.5,-122.5 919.5,-122.5 919.5,-81.5 772.5,-81.5"/>
<text text-anchor="start" x="780.5" y="-110.5" font-family="Helvetica,sans-Serif" font-size="10.00">OurConcurrentBoundedQueue</text>
<text text-anchor="start" x="780.5" y="-99.5" font-family="Helvetica,sans-Serif" font-size="10.00">&lt; thrill::data::MixBlockQueue</text>
<text text-anchor="middle" x="846" y="-88.5" font-family="Helvetica,sans-Serif" font-size="10.00">::SrcBlockPair &gt;</text>
</a>
</g>
</g>
<!-- Node14&#45;&gt;Node31 -->
<g id="edge42" class="edge"><title>Node14&#45;&gt;Node31</title>
<path fill="none" stroke="orange" stroke-dasharray="5,2" d="M609.626,-57.4697C656.823,-66.399 722.488,-78.8221 772.472,-88.2785"/>
<polygon fill="orange" stroke="orange" points="610.024,-53.9831 599.548,-55.5631 608.723,-60.8611 610.024,-53.9831"/>
<text text-anchor="start" x="652" y="-98" font-family="Helvetica,sans-Serif" font-size="10.00"> &lt; thrill::data::MixBlock</text>
<text text-anchor="middle" x="703" y="-87" font-family="Helvetica,sans-Serif" font-size="10.00">Queue::SrcBlockPair &gt;</text>
</g>
<!-- Node15&#45;&gt;Node8 -->
<g id="edge17" class="edge"><title>Node15&#45;&gt;Node8</title>
<path fill="none" stroke="#9a32cd" stroke-dasharray="5,2" d="M1209.22,-311.176C1250.71,-309.377 1331.06,-303.893 1354,-288 1367.73,-278.486 1362.49,-268.737 1372,-255 1384.56,-236.853 1401.85,-217.853 1412.46,-206.737"/>
<polygon fill="#9a32cd" stroke="#9a32cd" points="1208.95,-307.684 1199.1,-311.575 1209.23,-314.678 1208.95,-307.684"/>
<text text-anchor="middle" x="1317" y="-309" font-family="Helvetica,sans-Serif" font-size="10.00"> file_</text>
</g>
<!-- Node16 -->
<g id="node16" class="node"><title>Node16</title>
<g id="a_node16"><a xlink:href="classtlx_1_1ReferenceCounter.html" target="_top" xlink:title="Provides reference counting abilities for use with CountingPtr. ">
<polygon fill="none" stroke="black" points="798,-323.5 798,-342.5 894,-342.5 894,-323.5 798,-323.5"/>
<text text-anchor="middle" x="846" y="-330.5" font-family="Helvetica,sans-Serif" font-size="10.00">ReferenceCounter</text>
</a>
</g>
</g>
<!-- Node16&#45;&gt;Node15 -->
<g id="edge19" class="edge"><title>Node16&#45;&gt;Node15</title>
<path fill="none" stroke="midnightblue" d="M904.572,-329.391C983.665,-324.433 1121.32,-315.804 1166.88,-312.948"/>
<polygon fill="midnightblue" stroke="midnightblue" points="904.048,-325.917 894.287,-330.036 904.486,-332.903 904.048,-325.917"/>
</g>
<!-- Node20 -->
<g id="node20" class="node"><title>Node20</title>
<g id="a_node20"><a xlink:href="classthrill_1_1data_1_1StreamData.html" target="_top" xlink:title="Base class for common structures for ConcatStream and MixedStream. ">
<polygon fill="none" stroke="black" points="1148.5,-360.5 1148.5,-379.5 1217.5,-379.5 1217.5,-360.5 1148.5,-360.5"/>
<text text-anchor="middle" x="1183" y="-367.5" font-family="Helvetica,sans-Serif" font-size="10.00">StreamData</text>
</a>
</g>
</g>
<!-- Node16&#45;&gt;Node20 -->
<g id="edge24" class="edge"><title>Node16&#45;&gt;Node20</title>
<path fill="none" stroke="midnightblue" d="M904.286,-339.327C974.425,-347.074 1090.92,-359.941 1148.16,-366.262"/>
<polygon fill="midnightblue" stroke="midnightblue" points="904.611,-335.842 894.287,-338.223 903.842,-342.799 904.611,-335.842"/>
</g>
<!-- Node17 -->
<g id="node17" class="node"><title>Node17</title>
<g id="a_node17"><a xlink:href="classthrill_1_1net_1_1Connection.html" target="_top" xlink:title="A Connection represents a link to another peer in a network group. ">
<polygon fill="none" stroke="black" points="1645,-141.5 1645,-160.5 1711,-160.5 1711,-141.5 1645,-141.5"/>
<text text-anchor="middle" x="1678" y="-148.5" font-family="Helvetica,sans-Serif" font-size="10.00">Connection</text>
</a>
</g>
</g>
<!-- Node17&#45;&gt;Node1 -->
<g id="edge20" class="edge"><title>Node17&#45;&gt;Node1</title>
<path fill="none" stroke="#9a32cd" stroke-dasharray="5,2" d="M1721.38,-145.825C1761.26,-143.129 1821.11,-144.888 1864,-172 1891.21,-189.199 1906.29,-226.725 1912.13,-244.412"/>
<polygon fill="#9a32cd" stroke="#9a32cd" points="1720.88,-142.354 1711.19,-146.64 1721.44,-149.332 1720.88,-142.354"/>
<text text-anchor="middle" x="1819" y="-175" font-family="Helvetica,sans-Serif" font-size="10.00"> connection_</text>
</g>
<!-- Node18 -->
<g id="node18" class="node"><title>Node18</title>
<g id="a_node18"><a xlink:href="classthrill_1_1common_1_1Semaphore.html" target="_top" xlink:title="Semaphore">
<polygon fill="none" stroke="black" points="813,-420.5 813,-439.5 879,-439.5 879,-420.5 813,-420.5"/>
<text text-anchor="middle" x="846" y="-427.5" font-family="Helvetica,sans-Serif" font-size="10.00">Semaphore</text>
</a>
</g>
</g>
<!-- Node18&#45;&gt;Node1 -->
<g id="edge21" class="edge"><title>Node18&#45;&gt;Node1</title>
<path fill="none" stroke="#9a32cd" stroke-dasharray="5,2" d="M889.365,-432.491C952.914,-436.006 1076.71,-442 1182,-442 1182,-442 1182,-442 1679,-442 1775.12,-442 1794.47,-396.361 1864,-330 1885.15,-309.814 1902.24,-279.384 1910.19,-263.863"/>
<polygon fill="#9a32cd" stroke="#9a32cd" points="889.506,-428.993 879.325,-431.928 889.114,-435.982 889.506,-428.993"/>
<text text-anchor="middle" x="1423" y="-445" font-family="Helvetica,sans-Serif" font-size="10.00"> sem_</text>
</g>
<!-- Node18&#45;&gt;Node20 -->
<g id="edge25" class="edge"><title>Node18&#45;&gt;Node20</title>
<path fill="none" stroke="#9a32cd" stroke-dasharray="5,2" d="M889.08,-423.908C947.237,-415.416 1049.18,-400.249 1086,-393 1106.85,-388.895 1130.03,-383.371 1148.38,-378.765"/>
<polygon fill="#9a32cd" stroke="#9a32cd" points="888.492,-420.457 879.101,-425.363 889.502,-427.384 888.492,-420.457"/>
<text text-anchor="middle" x="1012" y="-420" font-family="Helvetica,sans-Serif" font-size="10.00"> sem_closing_blocks_</text>
</g>
<!-- Node19 -->
<g id="node19" class="node"><title>Node19</title>
<g id="a_node19"><a xlink:href="classtlx_1_1CountingPtr.html" target="_top" xlink:title="CountingPtr\&lt; StreamData \&gt;">
<polygon fill="none" stroke="black" points="1608.5,-332.5 1608.5,-351.5 1747.5,-351.5 1747.5,-332.5 1608.5,-332.5"/>
<text text-anchor="middle" x="1678" y="-339.5" font-family="Helvetica,sans-Serif" font-size="10.00">CountingPtr&lt; StreamData &gt;</text>
</a>
</g>
</g>
<!-- Node19&#45;&gt;Node1 -->
<g id="edge22" class="edge"><title>Node19&#45;&gt;Node1</title>
<path fill="none" stroke="#9a32cd" stroke-dasharray="5,2" d="M1723.47,-329.633C1761.43,-318.534 1817.16,-300.953 1864,-281 1875.8,-275.974 1888.55,-269.224 1898.35,-263.731"/>
<polygon fill="#9a32cd" stroke="#9a32cd" points="1722.37,-326.307 1713.74,-332.45 1724.31,-333.031 1722.37,-326.307"/>
<text text-anchor="middle" x="1819" y="-318" font-family="Helvetica,sans-Serif" font-size="10.00"> stream_</text>
</g>
<!-- Node20&#45;&gt;Node19 -->
<g id="edge23" class="edge"><title>Node20&#45;&gt;Node19</title>
<path fill="none" stroke="#9a32cd" stroke-dasharray="5,2" d="M1227.78,-367.693C1301.08,-363.804 1453.28,-355.623 1582,-348 1590.5,-347.497 1599.42,-346.953 1608.25,-346.406"/>
<polygon fill="#9a32cd" stroke="#9a32cd" points="1227.35,-364.21 1217.55,-368.235 1227.72,-371.201 1227.35,-364.21"/>
<text text-anchor="middle" x="1423" y="-363" font-family="Helvetica,sans-Serif" font-size="10.00"> ptr_</text>
</g>
<!-- Node28 -->
<g id="node28" class="node"><title>Node28</title>
<g id="a_node28"><a xlink:href="classthrill_1_1data_1_1MixStreamData.html" target="_top" xlink:title="A Stream is a virtual set of connections to all other worker instances, hence a &quot;Stream&quot; bundles them...">
<polygon fill="none" stroke="black" points="1380.5,-264.5 1380.5,-283.5 1465.5,-283.5 1465.5,-264.5 1380.5,-264.5"/>
<text text-anchor="middle" x="1423" y="-271.5" font-family="Helvetica,sans-Serif" font-size="10.00">MixStreamData</text>
</a>
</g>
</g>
<!-- Node20&#45;&gt;Node28 -->
<g id="edge36" class="edge"><title>Node20&#45;&gt;Node28</title>
<path fill="none" stroke="midnightblue" d="M1227.64,-362.448C1271.19,-354.217 1334.39,-340.179 1354,-325 1366.91,-315.013 1359.63,-303.646 1372,-293 1376.43,-289.183 1381.71,-286.094 1387.15,-283.606"/>
<polygon fill="midnightblue" stroke="midnightblue" points="1226.77,-359.049 1217.57,-364.313 1228.04,-365.932 1226.77,-359.049"/>
</g>
<!-- Node21&#45;&gt;Node20 -->
<g id="edge26" class="edge"><title>Node21&#45;&gt;Node20</title>
<path fill="none" stroke="#9a32cd" stroke-dasharray="5,2" d="M888.407,-378.764C955.457,-376.762 1086.5,-372.851 1148.27,-371.007"/>
<polygon fill="#9a32cd" stroke="#9a32cd" points="888.106,-375.271 878.215,-379.068 888.315,-382.268 888.106,-375.271"/>
<text text-anchor="middle" x="1012" y="-381" font-family="Helvetica,sans-Serif" font-size="10.00"> multiplexer_</text>
</g>
<!-- Node22 -->
<g id="node22" class="node"><title>Node22</title>
<g id="a_node22"><a xlink:href="classthrill_1_1net_1_1DispatcherThread.html" target="_top" xlink:title="DispatcherThread contains a net::Dispatcher object and an associated thread that runs in the dispatch...">
<polygon fill="none" stroke="black" points="501,-409.5 501,-428.5 595,-428.5 595,-409.5 501,-409.5"/>
<text text-anchor="middle" x="548" y="-416.5" font-family="Helvetica,sans-Serif" font-size="10.00">DispatcherThread</text>
</a>
</g>
</g>
<!-- Node22&#45;&gt;Node21 -->
<g id="edge27" class="edge"><title>Node22&#45;&gt;Node21</title>
<path fill="none" stroke="#9a32cd" stroke-dasharray="5,2" d="M605.176,-412.629C646.406,-407.837 703.739,-400.929 754,-394 773.952,-391.249 796.308,-387.815 813.869,-385.036"/>
<polygon fill="#9a32cd" stroke="#9a32cd" points="604.586,-409.174 595.055,-413.801 605.391,-416.128 604.586,-409.174"/>
<text text-anchor="middle" x="703" y="-410" font-family="Helvetica,sans-Serif" font-size="10.00"> dispatcher_</text>
</g>
<!-- Node23 -->
<g id="node23" class="node"><title>Node23</title>
<g id="a_node23"><a xlink:href="classthrill_1_1common_1_1OurConcurrentQueue.html" target="_top" xlink:title="OurConcurrentQueue\l\&lt; tlx::Delegate, mem\l::GPoolAllocator\&lt; tlx\l::Delegate \&gt; \&gt;">
<polygon fill="none" stroke="black" points="242.5,-393 242.5,-445 351.5,-445 351.5,-393 242.5,-393"/>
<text text-anchor="start" x="250.5" y="-433" font-family="Helvetica,sans-Serif" font-size="10.00">OurConcurrentQueue</text>
<text text-anchor="start" x="250.5" y="-422" font-family="Helvetica,sans-Serif" font-size="10.00">&lt; tlx::Delegate, mem</text>
<text text-anchor="start" x="250.5" y="-411" font-family="Helvetica,sans-Serif" font-size="10.00">::GPoolAllocator&lt; tlx</text>
<text text-anchor="middle" x="297" y="-400" font-family="Helvetica,sans-Serif" font-size="10.00">::Delegate &gt; &gt;</text>
</a>
</g>
</g>
<!-- Node23&#45;&gt;Node22 -->
<g id="edge28" class="edge"><title>Node23&#45;&gt;Node22</title>
<path fill="none" stroke="#9a32cd" stroke-dasharray="5,2" d="M361.905,-419C405.351,-419 461.816,-419 500.9,-419"/>
<polygon fill="#9a32cd" stroke="#9a32cd" points="361.723,-415.5 351.723,-419 361.723,-422.5 361.723,-415.5"/>
<text text-anchor="middle" x="407" y="-422" font-family="Helvetica,sans-Serif" font-size="10.00"> jobqueue_</text>
</g>
<!-- Node24 -->
<g id="node24" class="node"><title>Node24</title>
<g id="a_node24"><a xlink:href="classthrill_1_1common_1_1OurConcurrentQueue.html" target="_top" xlink:title="This is a queue, similar to std::queue and tbb::concurrent_queue, except that it uses mutexes for syn...">
<polygon fill="none" stroke="black" points="0.5,-404 0.5,-434 109.5,-434 109.5,-404 0.5,-404"/>
<text text-anchor="start" x="8.5" y="-422" font-family="Helvetica,sans-Serif" font-size="10.00">OurConcurrentQueue</text>
<text text-anchor="middle" x="55" y="-411" font-family="Helvetica,sans-Serif" font-size="10.00">&lt; T, Allocator &gt;</text>
</a>
</g>
</g>
<!-- Node24&#45;&gt;Node23 -->
<g id="edge29" class="edge"><title>Node24&#45;&gt;Node23</title>
<path fill="none" stroke="orange" stroke-dasharray="5,2" d="M120.042,-419C158.173,-419 206.017,-419 242.187,-419"/>
<polygon fill="orange" stroke="orange" points="119.562,-415.5 109.562,-419 119.562,-422.5 119.562,-415.5"/>
<text text-anchor="start" x="128" y="-444" font-family="Helvetica,sans-Serif" font-size="10.00"> &lt; tlx::Delegate, mem</text>
<text text-anchor="start" x="128" y="-433" font-family="Helvetica,sans-Serif" font-size="10.00">::GPoolAllocator&lt; tlx</text>
<text text-anchor="middle" x="176" y="-422" font-family="Helvetica,sans-Serif" font-size="10.00">::Delegate &gt; &gt;</text>
</g>
<!-- Node25 -->
<g id="node25" class="node"><title>Node25</title>
<g id="a_node25"><a xlink:href="classthrill_1_1net_1_1Group.html" target="_top" xlink:title="A network Group is a collection of enumerated communication links, which provides point&#45;to&#45;point comm...">
<polygon fill="none" stroke="black" points="526.5,-324.5 526.5,-343.5 569.5,-343.5 569.5,-324.5 526.5,-324.5"/>
<text text-anchor="middle" x="548" y="-331.5" font-family="Helvetica,sans-Serif" font-size="10.00">Group</text>
</a>
</g>
</g>
<!-- Node25&#45;&gt;Node21 -->
<g id="edge30" class="edge"><title>Node25&#45;&gt;Node21</title>
<path fill="none" stroke="#9a32cd" stroke-dasharray="5,2" d="M579.761,-335.555C620.061,-337.956 692.797,-343.54 754,-355 774.613,-358.86 797.363,-365.11 814.96,-370.395"/>
<polygon fill="#9a32cd" stroke="#9a32cd" points="579.711,-332.047 569.529,-334.973 579.314,-339.036 579.711,-332.047"/>
<text text-anchor="middle" x="703" y="-358" font-family="Helvetica,sans-Serif" font-size="10.00"> group_</text>
</g>
<!-- Node26 -->
<g id="node26" class="node"><title>Node26</title>
<g id="a_node26"><a xlink:href="classtlx_1_1CountingPtr.html" target="_top" xlink:title="High&#45;performance smart pointer used as a wrapping reference counting pointer. ">
<polygon fill="none" stroke="black" points="1372,-303 1372,-333 1474,-333 1474,-303 1372,-303"/>
<text text-anchor="start" x="1380" y="-321" font-family="Helvetica,sans-Serif" font-size="10.00">CountingPtr&lt; Type,</text>
<text text-anchor="middle" x="1423" y="-310" font-family="Helvetica,sans-Serif" font-size="10.00"> Deleter &gt;</text>
</a>
</g>
</g>
<!-- Node26&#45;&gt;Node19 -->
<g id="edge33" class="edge"><title>Node26&#45;&gt;Node19</title>
<path fill="none" stroke="orange" stroke-dasharray="5,2" d="M1484.48,-323.738C1521.69,-327.267 1569.47,-331.8 1608.13,-335.467"/>
<polygon fill="orange" stroke="orange" points="1484.57,-320.23 1474.29,-322.77 1483.91,-327.199 1484.57,-320.23"/>
<text text-anchor="middle" x="1537" y="-336" font-family="Helvetica,sans-Serif" font-size="10.00"> &lt; StreamData &gt;</text>
</g>
<!-- Node27 -->
<g id="node27" class="node"><title>Node27</title>
<g id="a_node27"><a xlink:href="classtlx_1_1CountingPtr.html" target="_top" xlink:title="CountingPtr\&lt; MixStreamData \&gt;">
<polygon fill="none" stroke="black" points="1600.5,-264.5 1600.5,-283.5 1755.5,-283.5 1755.5,-264.5 1600.5,-264.5"/>
<text text-anchor="middle" x="1678" y="-271.5" font-family="Helvetica,sans-Serif" font-size="10.00">CountingPtr&lt; MixStreamData &gt;</text>
</a>
</g>
</g>
<!-- Node26&#45;&gt;Node27 -->
<g id="edge43" class="edge"><title>Node26&#45;&gt;Node27</title>
<path fill="none" stroke="orange" stroke-dasharray="5,2" d="M1484.34,-307.506C1526.15,-300.235 1581.38,-290.63 1621.98,-283.569"/>
<polygon fill="orange" stroke="orange" points="1483.54,-304.093 1474.29,-309.254 1484.74,-310.989 1483.54,-304.093"/>
<text text-anchor="middle" x="1537" y="-308" font-family="Helvetica,sans-Serif" font-size="10.00"> &lt; MixStreamData &gt;</text>
</g>
<!-- Node27&#45;&gt;Node1 -->
<g id="edge34" class="edge"><title>Node27&#45;&gt;Node1</title>
<path fill="none" stroke="#9a32cd" stroke-dasharray="5,2" d="M1765.76,-266.647C1806.13,-263.226 1851.76,-259.359 1881.82,-256.812"/>
<polygon fill="#9a32cd" stroke="#9a32cd" points="1765.29,-263.175 1755.62,-267.507 1765.88,-270.15 1765.29,-263.175"/>
<text text-anchor="middle" x="1819" y="-269" font-family="Helvetica,sans-Serif" font-size="10.00"> target_mix_stream_</text>
</g>
<!-- Node28&#45;&gt;Node27 -->
<g id="edge35" class="edge"><title>Node28&#45;&gt;Node27</title>
<path fill="none" stroke="#9a32cd" stroke-dasharray="5,2" d="M1476.02,-274C1511.88,-274 1560.14,-274 1600.38,-274"/>
<polygon fill="#9a32cd" stroke="#9a32cd" points="1475.78,-270.5 1465.78,-274 1475.78,-277.5 1475.78,-270.5"/>
<text text-anchor="middle" x="1537" y="-277" font-family="Helvetica,sans-Serif" font-size="10.00"> ptr_</text>
</g>
<!-- Node29&#45;&gt;Node28 -->
<g id="edge37" class="edge"><title>Node29&#45;&gt;Node28</title>
<path fill="none" stroke="#9a32cd" stroke-dasharray="5,2" d="M1231.63,-163.534C1241.83,-166.803 1252.42,-170.649 1262,-175 1320,-201.339 1382.47,-244.993 1408.95,-264.302"/>
<polygon fill="#9a32cd" stroke="#9a32cd" points="1232.6,-160.171 1222.01,-160.58 1230.54,-166.862 1232.6,-160.171"/>
<text text-anchor="middle" x="1317" y="-228" font-family="Helvetica,sans-Serif" font-size="10.00"> queue_</text>
</g>
<!-- Node30&#45;&gt;Node29 -->
<g id="edge38" class="edge"><title>Node30&#45;&gt;Node29</title>
<path fill="none" stroke="#9a32cd" stroke-dasharray="5,2" d="M920.125,-151C987.412,-151 1084.86,-151 1139.94,-151"/>
<polygon fill="#9a32cd" stroke="#9a32cd" points="920.011,-147.5 910.011,-151 920.011,-154.5 920.011,-147.5"/>
<text text-anchor="middle" x="1012" y="-154" font-family="Helvetica,sans-Serif" font-size="10.00"> write_open_count_</text>
</g>
<!-- Node31&#45;&gt;Node29 -->
<g id="edge41" class="edge"><title>Node31&#45;&gt;Node29</title>
<path fill="none" stroke="#9a32cd" stroke-dasharray="5,2" d="M929.659,-113.475C975.704,-119.939 1034.06,-128.248 1086,-136 1103.69,-138.639 1123.18,-141.665 1139.96,-144.304"/>
<polygon fill="#9a32cd" stroke="#9a32cd" points="930.119,-110.006 919.73,-112.083 929.147,-116.938 930.119,-110.006"/>
<text text-anchor="middle" x="1012" y="-139" font-family="Helvetica,sans-Serif" font-size="10.00"> mix_queue_</text>
</g>
</g>
</svg>
