<?xml version="1.0" encoding="UTF-8" standalone="no"?>
<!DOCTYPE svg PUBLIC "-//W3C//DTD SVG 1.1//EN"
 "http://www.w3.org/Graphics/SVG/1.1/DTD/svg11.dtd">
<!-- Generated by graphviz version 2.26.3 (20100126.1600)
 -->
<!-- Title: LoserTreeCopyBase&lt; ValueType, Comparator &gt; Pages: 1 -->
<svg width="318pt" height="94pt"
 viewBox="0.00 0.00 318.00 94.00" xmlns="http://www.w3.org/2000/svg" xmlns:xlink="http://www.w3.org/1999/xlink">
<g id="graph1" class="graph" transform="scale(1 1) rotate(0) translate(4 90)">
<title>LoserTreeCopyBase&lt; ValueType, Comparator &gt;</title>
<!-- Node1 -->
<g id="node1" class="node"><title>Node1</title>
<polygon fill="#bfbfbf" stroke="black" points="0,-26 0,-60 132,-60 132,-26 0,-26"/>
<text text-anchor="start" x="8" y="-47" font-family="Helvetica,sans-Serif" font-size="10.00">LoserTreeCopyBase&lt;</text>
<text text-anchor="middle" x="66" y="-34" font-family="Helvetica,sans-Serif" font-size="10.00"> ValueType, Comparator &gt;</text>
</g>
<!-- Node2 -->
<g id="node3" class="node"><title>Node2</title>
<a xlink:href="classtlx_1_1LoserTreeCopy.html" target="_top" xlink:title="Guarded loser tree/tournament tree, either copying the whole element into the tree structure...">
<polygon fill="none" stroke="black" points="168,-52 168,-86 310,-86 310,-52 168,-52"/>
<text text-anchor="start" x="176" y="-73" font-family="Helvetica,sans-Serif" font-size="10.00">LoserTreeCopy&lt; ValueType,</text>
<text text-anchor="middle" x="239" y="-60" font-family="Helvetica,sans-Serif" font-size="10.00"> Comparator &gt;</text>
</a>
</g>
<!-- Node1&#45;&gt;Node2 -->
<g id="edge2" class="edge"><title>Node1&#45;&gt;Node2</title>
<path fill="none" stroke="midnightblue" d="M142.302,-54.4673C150.813,-55.7465 159.458,-57.0457 167.901,-58.3146"/>
<polygon fill="midnightblue" stroke="midnightblue" points="142.801,-51.0031 132.392,-52.9779 141.76,-57.9253 142.801,-51.0031"/>
</g>
<!-- Node3 -->
<g id="node5" class="node"><title>Node3</title>
<a xlink:href="classtlx_1_1LoserTreeCopy_3_01true_00_01ValueType_00_01Comparator_01_4.html" target="_top" xlink:title="Guarded loser tree/tournament tree, either copying the whole element into the tree structure...">
<polygon fill="none" stroke="black" points="173,-0 173,-34 305,-34 305,-0 173,-0"/>
<text text-anchor="start" x="181" y="-21" font-family="Helvetica,sans-Serif" font-size="10.00">LoserTreeCopy&lt; true,</text>
<text text-anchor="middle" x="239" y="-8" font-family="Helvetica,sans-Serif" font-size="10.00"> ValueType, Comparator &gt;</text>
</a>
</g>
<!-- Node1&#45;&gt;Node3 -->
<g id="edge4" class="edge"><title>Node1&#45;&gt;Node3</title>
<path fill="none" stroke="midnightblue" d="M142.429,-31.5135C152.55,-29.9925 162.857,-28.4435 172.786,-26.9512"/>
<polygon fill="midnightblue" stroke="midnightblue" points="141.76,-28.0747 132.392,-33.0221 142.801,-34.9969 141.76,-28.0747"/>
</g>
</g>
</svg>
