<?xml version="1.0" encoding="UTF-8" standalone="no"?>
<!DOCTYPE svg PUBLIC "-//W3C//DTD SVG 1.1//EN"
 "http://www.w3.org/Graphics/SVG/1.1/DTD/svg11.dtd">
<!-- Generated by graphviz version 2.36.0 (20140111.2315)
 -->
<!-- Title: DOpNode&lt; ValueType &gt; Pages: 1 -->
<svg width="930pt" height="622pt"
 viewBox="0.00 0.00 930.00 622.00" xmlns="http://www.w3.org/2000/svg" xmlns:xlink="http://www.w3.org/1999/xlink">
<g id="graph0" class="graph" transform="scale(1 1) rotate(0) translate(4 618)">
<title>DOpNode&lt; ValueType &gt;</title>
<!-- Node1 -->
<g id="node1" class="node"><title>Node1</title>
<polygon fill="#bfbfbf" stroke="black" points="382.5,-278.5 382.5,-297.5 507.5,-297.5 507.5,-278.5 382.5,-278.5"/>
<text text-anchor="middle" x="445" y="-285.5" font-family="Helvetica,sans-Serif" font-size="10.00">DOpNode&lt; ValueType &gt;</text>
</g>
<!-- Node5 -->
<g id="node5" class="node"><title>Node5</title>
<g id="a_node5"><a xlink:href="classthrill_1_1api_1_1BaseWindowNode.html" target="_top" xlink:title="BaseWindowNode\&lt; ValueType \&gt;">
<polygon fill="none" stroke="black" points="546,-544.5 546,-563.5 708,-563.5 708,-544.5 546,-544.5"/>
<text text-anchor="middle" x="627" y="-551.5" font-family="Helvetica,sans-Serif" font-size="10.00">BaseWindowNode&lt; ValueType &gt;</text>
</a>
</g>
</g>
<!-- Node1&#45;&gt;Node5 -->
<g id="edge4" class="edge"><title>Node1&#45;&gt;Node5</title>
<path fill="none" stroke="midnightblue" d="M447.75,-307.676C453.023,-354.657 473.079,-473.993 544,-535 548.431,-538.812 553.48,-541.896 558.845,-544.388"/>
<polygon fill="midnightblue" stroke="midnightblue" points="451.22,-307.199 446.727,-297.604 444.255,-307.907 451.22,-307.199"/>
</g>
<!-- Node8 -->
<g id="node8" class="node"><title>Node8</title>
<g id="a_node8"><a xlink:href="classthrill_1_1api_1_1ConcatNode.html" target="_top" xlink:title="ConcatNode\&lt; ValueType \&gt;">
<polygon fill="none" stroke="black" points="559,-506.5 559,-525.5 695,-525.5 695,-506.5 559,-506.5"/>
<text text-anchor="middle" x="627" y="-513.5" font-family="Helvetica,sans-Serif" font-size="10.00">ConcatNode&lt; ValueType &gt;</text>
</a>
</g>
</g>
<!-- Node1&#45;&gt;Node8 -->
<g id="edge7" class="edge"><title>Node1&#45;&gt;Node8</title>
<path fill="none" stroke="midnightblue" d="M449.328,-307.729C457.454,-349.505 482.344,-447.14 544,-497 548.772,-500.859 554.186,-503.964 559.902,-506.457"/>
<polygon fill="midnightblue" stroke="midnightblue" points="452.741,-306.934 447.5,-297.726 445.855,-308.193 452.741,-306.934"/>
</g>
<!-- Node9 -->
<g id="node9" class="node"><title>Node9</title>
<g id="a_node9"><a xlink:href="classthrill_1_1api_1_1GroupByNode.html" target="_top" xlink:title="GroupByNode\&lt; ValueType \&gt;">
<polygon fill="none" stroke="black" points="555.5,-468.5 555.5,-487.5 698.5,-487.5 698.5,-468.5 555.5,-468.5"/>
<text text-anchor="middle" x="627" y="-475.5" font-family="Helvetica,sans-Serif" font-size="10.00">GroupByNode&lt; ValueType &gt;</text>
</a>
</g>
</g>
<!-- Node1&#45;&gt;Node9 -->
<g id="edge8" class="edge"><title>Node1&#45;&gt;Node9</title>
<path fill="none" stroke="midnightblue" d="M451.403,-307.302C462.471,-343.121 491.233,-419.791 544,-459 549.161,-462.835 554.97,-465.913 561.053,-468.381"/>
<polygon fill="midnightblue" stroke="midnightblue" points="454.722,-306.181 448.53,-297.584 448.009,-308.166 454.722,-306.181"/>
</g>
<!-- Node10 -->
<g id="node10" class="node"><title>Node10</title>
<g id="a_node10"><a xlink:href="classthrill_1_1api_1_1GroupToIndexNode.html" target="_top" xlink:title="GroupToIndexNode\&lt; ValueType \&gt;">
<polygon fill="none" stroke="black" points="544,-430.5 544,-449.5 710,-449.5 710,-430.5 544,-430.5"/>
<text text-anchor="middle" x="627" y="-437.5" font-family="Helvetica,sans-Serif" font-size="10.00">GroupToIndexNode&lt; ValueType &gt;</text>
</a>
</g>
</g>
<!-- Node1&#45;&gt;Node10 -->
<g id="edge9" class="edge"><title>Node1&#45;&gt;Node10</title>
<path fill="none" stroke="midnightblue" d="M454.369,-306.632C468.477,-335.814 499.841,-391.959 544,-421 549.861,-424.854 556.406,-427.931 563.174,-430.387"/>
<polygon fill="midnightblue" stroke="midnightblue" points="457.515,-305.097 450.105,-297.523 451.175,-308.064 457.515,-305.097"/>
</g>
<!-- Node11 -->
<g id="node11" class="node"><title>Node11</title>
<g id="a_node11"><a xlink:href="classthrill_1_1api_1_1JoinNode.html" target="_top" xlink:title="Performs an inner join between two DIAs. ">
<polygon fill="none" stroke="black" points="566,-392.5 566,-411.5 688,-411.5 688,-392.5 566,-392.5"/>
<text text-anchor="middle" x="627" y="-399.5" font-family="Helvetica,sans-Serif" font-size="10.00">JoinNode&lt; ValueType &gt;</text>
</a>
</g>
</g>
<!-- Node1&#45;&gt;Node11 -->
<g id="edge10" class="edge"><title>Node1&#45;&gt;Node11</title>
<path fill="none" stroke="midnightblue" d="M459.09,-305.575C476.174,-327.209 508.153,-363.474 544,-383 551.186,-386.915 559.153,-390.026 567.214,-392.497"/>
<polygon fill="midnightblue" stroke="midnightblue" points="461.781,-303.334 452.905,-297.548 456.236,-307.606 461.781,-303.334"/>
</g>
<!-- Node12 -->
<g id="node12" class="node"><title>Node12</title>
<g id="a_node12"><a xlink:href="classthrill_1_1api_1_1MergeNode.html" target="_top" xlink:title="Implementation of Thrill&#39;s merge. ">
<polygon fill="none" stroke="black" points="561.5,-354.5 561.5,-373.5 692.5,-373.5 692.5,-354.5 561.5,-354.5"/>
<text text-anchor="middle" x="627" y="-361.5" font-family="Helvetica,sans-Serif" font-size="10.00">MergeNode&lt; ValueType &gt;</text>
</a>
</g>
</g>
<!-- Node1&#45;&gt;Node12 -->
<g id="edge11" class="edge"><title>Node1&#45;&gt;Node12</title>
<path fill="none" stroke="midnightblue" d="M467.962,-303.357C487.21,-316.171 516.356,-334.047 544,-345 553.51,-348.768 563.95,-351.896 574.101,-354.452"/>
<polygon fill="midnightblue" stroke="midnightblue" points="469.849,-300.408 459.607,-297.698 465.924,-306.204 469.849,-300.408"/>
</g>
<!-- Node13 -->
<g id="node13" class="node"><title>Node13</title>
<g id="a_node13"><a xlink:href="classthrill_1_1api_1_1PrefixSumNode.html" target="_top" xlink:title="PrefixSumNode\&lt; ValueType \&gt;">
<polygon fill="none" stroke="black" points="552,-316.5 552,-335.5 702,-335.5 702,-316.5 552,-316.5"/>
<text text-anchor="middle" x="627" y="-323.5" font-family="Helvetica,sans-Serif" font-size="10.00">PrefixSumNode&lt; ValueType &gt;</text>
</a>
</g>
</g>
<!-- Node1&#45;&gt;Node13 -->
<g id="edge12" class="edge"><title>Node1&#45;&gt;Node13</title>
<path fill="none" stroke="midnightblue" d="M501.331,-299.681C526.857,-305.07 556.776,-311.386 580.905,-316.48"/>
<polygon fill="midnightblue" stroke="midnightblue" points="501.929,-296.23 491.422,-297.589 500.483,-303.079 501.929,-296.23"/>
</g>
<!-- Node14 -->
<g id="node14" class="node"><title>Node14</title>
<g id="a_node14"><a xlink:href="classthrill_1_1api_1_1RebalanceNode.html" target="_top" xlink:title="RebalanceNode\&lt; ValueType \&gt;">
<polygon fill="none" stroke="black" points="551.5,-278.5 551.5,-297.5 702.5,-297.5 702.5,-278.5 551.5,-278.5"/>
<text text-anchor="middle" x="627" y="-285.5" font-family="Helvetica,sans-Serif" font-size="10.00">RebalanceNode&lt; ValueType &gt;</text>
</a>
</g>
</g>
<!-- Node1&#45;&gt;Node14 -->
<g id="edge13" class="edge"><title>Node1&#45;&gt;Node14</title>
<path fill="none" stroke="midnightblue" d="M517.717,-288C528.771,-288 540.209,-288 551.326,-288"/>
<polygon fill="midnightblue" stroke="midnightblue" points="517.694,-284.5 507.694,-288 517.694,-291.5 517.694,-284.5"/>
</g>
<!-- Node15 -->
<g id="node15" class="node"><title>Node15</title>
<g id="a_node15"><a xlink:href="classthrill_1_1api_1_1ReduceNode.html" target="_top" xlink:title="A DIANode which performs a Reduce operation. ">
<polygon fill="none" stroke="black" points="558,-240.5 558,-259.5 696,-259.5 696,-240.5 558,-240.5"/>
<text text-anchor="middle" x="627" y="-247.5" font-family="Helvetica,sans-Serif" font-size="10.00">ReduceNode&lt; ValueType &gt;</text>
</a>
</g>
</g>
<!-- Node1&#45;&gt;Node15 -->
<g id="edge14" class="edge"><title>Node1&#45;&gt;Node15</title>
<path fill="none" stroke="midnightblue" d="M501.331,-276.319C526.857,-270.93 556.776,-264.614 580.905,-259.52"/>
<polygon fill="midnightblue" stroke="midnightblue" points="500.483,-272.921 491.422,-278.411 501.929,-279.77 500.483,-272.921"/>
</g>
<!-- Node16 -->
<g id="node16" class="node"><title>Node16</title>
<g id="a_node16"><a xlink:href="classthrill_1_1api_1_1ReduceToIndexNode.html" target="_top" xlink:title="A DIANode which performs a ReduceToIndex operation. ">
<polygon fill="none" stroke="black" points="569.5,-191 569.5,-221 684.5,-221 684.5,-191 569.5,-191"/>
<text text-anchor="start" x="577.5" y="-209" font-family="Helvetica,sans-Serif" font-size="10.00">ReduceToIndexNode&lt;</text>
<text text-anchor="middle" x="627" y="-198" font-family="Helvetica,sans-Serif" font-size="10.00"> ValueType &gt;</text>
</a>
</g>
</g>
<!-- Node1&#45;&gt;Node16 -->
<g id="edge15" class="edge"><title>Node1&#45;&gt;Node16</title>
<path fill="none" stroke="midnightblue" d="M468.491,-272.9C487.863,-260.395 516.901,-242.822 544,-231 552.321,-227.37 561.333,-224.05 570.233,-221.099"/>
<polygon fill="midnightblue" stroke="midnightblue" points="466.512,-270.012 460.061,-278.417 470.345,-275.87 466.512,-270.012"/>
</g>
<!-- Node17 -->
<g id="node17" class="node"><title>Node17</title>
<g id="a_node17"><a xlink:href="classthrill_1_1api_1_1SampleNode.html" target="_top" xlink:title="SampleNode\&lt; ValueType \&gt;">
<polygon fill="none" stroke="black" points="558.5,-152.5 558.5,-171.5 695.5,-171.5 695.5,-152.5 558.5,-152.5"/>
<text text-anchor="middle" x="627" y="-159.5" font-family="Helvetica,sans-Serif" font-size="10.00">SampleNode&lt; ValueType &gt;</text>
</a>
</g>
</g>
<!-- Node1&#45;&gt;Node17 -->
<g id="edge16" class="edge"><title>Node1&#45;&gt;Node17</title>
<path fill="none" stroke="midnightblue" d="M457.602,-269.6C473.867,-245.392 505.783,-203.314 544,-181 550.688,-177.095 558.122,-173.992 565.706,-171.527"/>
<polygon fill="midnightblue" stroke="midnightblue" points="454.517,-267.923 451.973,-278.208 460.375,-271.753 454.517,-267.923"/>
</g>
<!-- Node18 -->
<g id="node18" class="node"><title>Node18</title>
<g id="a_node18"><a xlink:href="classthrill_1_1api_1_1SortNode.html" target="_top" xlink:title="A DIANode which performs a Sort operation. ">
<polygon fill="none" stroke="black" points="566,-114.5 566,-133.5 688,-133.5 688,-114.5 566,-114.5"/>
<text text-anchor="middle" x="627" y="-121.5" font-family="Helvetica,sans-Serif" font-size="10.00">SortNode&lt; ValueType &gt;</text>
</a>
</g>
</g>
<!-- Node1&#45;&gt;Node18 -->
<g id="edge17" class="edge"><title>Node1&#45;&gt;Node18</title>
<path fill="none" stroke="midnightblue" d="M453.341,-269.027C466.507,-237.633 497.204,-175.157 544,-143 550.624,-138.448 558.187,-134.975 565.979,-132.327"/>
<polygon fill="midnightblue" stroke="midnightblue" points="450.058,-267.811 449.551,-278.394 456.546,-270.437 450.058,-267.811"/>
</g>
<!-- Node19 -->
<g id="node19" class="node"><title>Node19</title>
<g id="a_node19"><a xlink:href="classthrill_1_1api_1_1ZipNode.html" target="_top" xlink:title="A DIANode which performs a Zip operation. ">
<polygon fill="none" stroke="black" points="568,-76.5 568,-95.5 686,-95.5 686,-76.5 568,-76.5"/>
<text text-anchor="middle" x="627" y="-83.5" font-family="Helvetica,sans-Serif" font-size="10.00">ZipNode&lt; ValueType &gt;</text>
</a>
</g>
</g>
<!-- Node1&#45;&gt;Node19 -->
<g id="edge18" class="edge"><title>Node1&#45;&gt;Node19</title>
<path fill="none" stroke="midnightblue" d="M450.713,-268.397C460.87,-230.563 488.524,-147.473 544,-105 550.962,-99.6699 559.165,-95.7947 567.645,-92.985"/>
<polygon fill="midnightblue" stroke="midnightblue" points="447.294,-267.64 448.207,-278.195 454.076,-269.374 447.294,-267.64"/>
</g>
<!-- Node20 -->
<g id="node20" class="node"><title>Node20</title>
<g id="a_node20"><a xlink:href="classthrill_1_1api_1_1ZipWindowNode.html" target="_top" xlink:title="ZipWindowNode\&lt; ValueType \&gt;">
<polygon fill="none" stroke="black" points="550.5,-38.5 550.5,-57.5 703.5,-57.5 703.5,-38.5 550.5,-38.5"/>
<text text-anchor="middle" x="627" y="-45.5" font-family="Helvetica,sans-Serif" font-size="10.00">ZipWindowNode&lt; ValueType &gt;</text>
</a>
</g>
</g>
<!-- Node1&#45;&gt;Node20 -->
<g id="edge19" class="edge"><title>Node1&#45;&gt;Node20</title>
<path fill="none" stroke="midnightblue" d="M448.768,-268.331C455.963,-224.885 479.411,-120.367 544,-67 548.619,-63.1837 553.861,-60.1024 559.41,-57.6187"/>
<polygon fill="midnightblue" stroke="midnightblue" points="445.309,-267.798 447.242,-278.215 452.227,-268.866 445.309,-267.798"/>
</g>
<!-- Node21 -->
<g id="node21" class="node"><title>Node21</title>
<g id="a_node21"><a xlink:href="classthrill_1_1api_1_1ZipWithIndexNode.html" target="_top" xlink:title="A DIANode which calculates the array index for each items and performs a Zip&#45;like operation without e...">
<polygon fill="none" stroke="black" points="546,-0.5 546,-19.5 708,-19.5 708,-0.5 546,-0.5"/>
<text text-anchor="middle" x="627" y="-7.5" font-family="Helvetica,sans-Serif" font-size="10.00">ZipWithIndexNode&lt; ValueType &gt;</text>
</a>
</g>
</g>
<!-- Node1&#45;&gt;Node21 -->
<g id="edge20" class="edge"><title>Node1&#45;&gt;Node21</title>
<path fill="none" stroke="midnightblue" d="M447.339,-268.369C451.748,-219.858 470.112,-93.5928 544,-29 548.401,-25.1528 553.428,-22.044 558.779,-19.5368"/>
<polygon fill="midnightblue" stroke="midnightblue" points="443.84,-268.216 446.527,-278.465 450.818,-268.778 443.84,-268.216"/>
</g>
<!-- Node2 -->
<g id="node2" class="node"><title>Node2</title>
<g id="a_node2"><a xlink:href="classthrill_1_1api_1_1DIANode.html" target="_top" xlink:title="A DIANode is a typed node representing and operation in Thrill. ">
<polygon fill="none" stroke="black" points="224,-278.5 224,-297.5 346,-297.5 346,-278.5 224,-278.5"/>
<text text-anchor="middle" x="285" y="-285.5" font-family="Helvetica,sans-Serif" font-size="10.00">DIANode&lt; ValueType &gt;</text>
</a>
</g>
</g>
<!-- Node2&#45;&gt;Node1 -->
<g id="edge1" class="edge"><title>Node2&#45;&gt;Node1</title>
<path fill="none" stroke="midnightblue" d="M356.308,-288C365.01,-288 373.854,-288 382.411,-288"/>
<polygon fill="midnightblue" stroke="midnightblue" points="356.184,-284.5 346.184,-288 356.184,-291.5 356.184,-284.5"/>
</g>
<!-- Node3 -->
<g id="node3" class="node"><title>Node3</title>
<g id="a_node3"><a xlink:href="classthrill_1_1api_1_1DIABase.html" target="_top" xlink:title="The DIABase is the untyped super class of DIANode. ">
<polygon fill="none" stroke="black" points="132,-278.5 132,-297.5 188,-297.5 188,-278.5 132,-278.5"/>
<text text-anchor="middle" x="160" y="-285.5" font-family="Helvetica,sans-Serif" font-size="10.00">DIABase</text>
</a>
</g>
</g>
<!-- Node3&#45;&gt;Node2 -->
<g id="edge2" class="edge"><title>Node3&#45;&gt;Node2</title>
<path fill="none" stroke="midnightblue" d="M198.427,-288C206.462,-288 215.147,-288 223.798,-288"/>
<polygon fill="midnightblue" stroke="midnightblue" points="198.298,-284.5 188.298,-288 198.298,-291.5 198.298,-284.5"/>
</g>
<!-- Node4 -->
<g id="node4" class="node"><title>Node4</title>
<g id="a_node4"><a xlink:href="classtlx_1_1ReferenceCounter.html" target="_top" xlink:title="Provides reference counting abilities for use with CountingPtr. ">
<polygon fill="none" stroke="black" points="0,-278.5 0,-297.5 96,-297.5 96,-278.5 0,-278.5"/>
<text text-anchor="middle" x="48" y="-285.5" font-family="Helvetica,sans-Serif" font-size="10.00">ReferenceCounter</text>
</a>
</g>
</g>
<!-- Node4&#45;&gt;Node3 -->
<g id="edge3" class="edge"><title>Node4&#45;&gt;Node3</title>
<path fill="none" stroke="midnightblue" d="M106.289,-288C115.16,-288 123.952,-288 131.738,-288"/>
<polygon fill="midnightblue" stroke="midnightblue" points="106.288,-284.5 96.2883,-288 106.288,-291.5 106.288,-284.5"/>
</g>
<!-- Node6 -->
<g id="node6" class="node"><title>Node6</title>
<g id="a_node6"><a xlink:href="classthrill_1_1api_1_1DisjointWindowNode.html" target="_top" xlink:title="DisjointWindowNode\l\&lt; ValueType, Input,\l WindowFunction, PartialWindow\lFunction \&gt;">
<polygon fill="none" stroke="black" points="753.5,-561 753.5,-613 914.5,-613 914.5,-561 753.5,-561"/>
<text text-anchor="start" x="761.5" y="-601" font-family="Helvetica,sans-Serif" font-size="10.00">DisjointWindowNode</text>
<text text-anchor="start" x="761.5" y="-590" font-family="Helvetica,sans-Serif" font-size="10.00">&lt; ValueType, Input,</text>
<text text-anchor="start" x="761.5" y="-579" font-family="Helvetica,sans-Serif" font-size="10.00"> WindowFunction, PartialWindow</text>
<text text-anchor="middle" x="834" y="-568" font-family="Helvetica,sans-Serif" font-size="10.00">Function &gt;</text>
</a>
</g>
</g>
<!-- Node5&#45;&gt;Node6 -->
<g id="edge5" class="edge"><title>Node5&#45;&gt;Node6</title>
<path fill="none" stroke="midnightblue" d="M696.918,-565.094C715.059,-568.014 734.777,-571.188 753.427,-574.191"/>
<polygon fill="midnightblue" stroke="midnightblue" points="697.449,-561.635 687.019,-563.501 696.336,-568.546 697.449,-561.635"/>
</g>
<!-- Node7 -->
<g id="node7" class="node"><title>Node7</title>
<g id="a_node7"><a xlink:href="classthrill_1_1api_1_1OverlapWindowNode.html" target="_top" xlink:title="OverlapWindowNode\&lt;\l ValueType, Input, WindowFunction,\l PartialWindowFunction \&gt;">
<polygon fill="none" stroke="black" points="746,-500.5 746,-541.5 922,-541.5 922,-500.5 746,-500.5"/>
<text text-anchor="start" x="754" y="-529.5" font-family="Helvetica,sans-Serif" font-size="10.00">OverlapWindowNode&lt;</text>
<text text-anchor="start" x="754" y="-518.5" font-family="Helvetica,sans-Serif" font-size="10.00"> ValueType, Input, WindowFunction,</text>
<text text-anchor="middle" x="834" y="-507.5" font-family="Helvetica,sans-Serif" font-size="10.00"> PartialWindowFunction &gt;</text>
</a>
</g>
</g>
<!-- Node5&#45;&gt;Node7 -->
<g id="edge6" class="edge"><title>Node5&#45;&gt;Node7</title>
<path fill="none" stroke="midnightblue" d="M697.106,-542.876C712.736,-540.36 729.529,-537.656 745.796,-535.038"/>
<polygon fill="midnightblue" stroke="midnightblue" points="696.336,-539.454 687.019,-544.499 697.449,-546.365 696.336,-539.454"/>
</g>
</g>
</svg>
