<?xml version="1.0" encoding="UTF-8" standalone="no"?>
<!DOCTYPE svg PUBLIC "-//W3C//DTD SVG 1.1//EN"
 "http://www.w3.org/Graphics/SVG/1.1/DTD/svg11.dtd">
<!-- Generated by graphviz version 2.26.3 (20100126.1600)
 -->
<!-- Title: MergeNode&lt; ValueType, Comparator, kNumInputs &gt; Pages: 1 -->
<svg width="2154pt" height="835pt"
 viewBox="0.00 0.00 2154.00 835.00" xmlns="http://www.w3.org/2000/svg" xmlns:xlink="http://www.w3.org/1999/xlink">
<g id="graph1" class="graph" transform="scale(1 1) rotate(0) translate(4 831)">
<title>MergeNode&lt; ValueType, Comparator, kNumInputs &gt;</title>
<!-- Node1 -->
<g id="node1" class="node"><title>Node1</title>
<polygon fill="#bfbfbf" stroke="black" points="2006.5,-393 2006.5,-427 2145.5,-427 2145.5,-393 2006.5,-393"/>
<text text-anchor="start" x="2014.5" y="-414" font-family="Helvetica,sans-Serif" font-size="10.00">MergeNode&lt; ValueType,</text>
<text text-anchor="middle" x="2076" y="-401" font-family="Helvetica,sans-Serif" font-size="10.00"> Comparator, kNumInputs &gt;</text>
</g>
<!-- Node2 -->
<g id="node2" class="node"><title>Node2</title>
<a xlink:href="classthrill_1_1api_1_1DOpNode.html" target="_top" xlink:title="A DOpNode is a typed node representing and distributed operations in Thrill.">
<polygon fill="none" stroke="black" points="1796.5,-421.5 1796.5,-442.5 1921.5,-442.5 1921.5,-421.5 1796.5,-421.5"/>
<text text-anchor="middle" x="1859" y="-429.5" font-family="Helvetica,sans-Serif" font-size="10.00">DOpNode&lt; ValueType &gt;</text>
</a>
</g>
<!-- Node2&#45;&gt;Node1 -->
<g id="edge2" class="edge"><title>Node2&#45;&gt;Node1</title>
<path fill="none" stroke="midnightblue" d="M1931.86,-424.613C1955.83,-422.183 1982.4,-419.489 2006.14,-417.082"/>
<polygon fill="midnightblue" stroke="midnightblue" points="1931.36,-421.146 1921.77,-425.637 1932.07,-428.11 1931.36,-421.146"/>
</g>
<!-- Node3 -->
<g id="node4" class="node"><title>Node3</title>
<a xlink:href="classthrill_1_1api_1_1DIANode.html" target="_top" xlink:title="A DIANode is a typed node representing and operation in Thrill.">
<polygon fill="none" stroke="black" points="1564,-408.5 1564,-429.5 1686,-429.5 1686,-408.5 1564,-408.5"/>
<text text-anchor="middle" x="1625" y="-416.5" font-family="Helvetica,sans-Serif" font-size="10.00">DIANode&lt; ValueType &gt;</text>
</a>
</g>
<!-- Node3&#45;&gt;Node2 -->
<g id="edge4" class="edge"><title>Node3&#45;&gt;Node2</title>
<path fill="none" stroke="midnightblue" d="M1696.31,-422.962C1728.16,-424.731 1765.36,-426.798 1796.14,-428.508"/>
<polygon fill="midnightblue" stroke="midnightblue" points="1696.35,-419.459 1686.18,-422.399 1695.97,-426.448 1696.35,-419.459"/>
</g>
<!-- Node4 -->
<g id="node6" class="node"><title>Node4</title>
<a xlink:href="classthrill_1_1api_1_1DIABase.html" target="_top" xlink:title="The DIABase is the untyped super class of DIANode.">
<polygon fill="none" stroke="black" points="1440,-334.5 1440,-355.5 1496,-355.5 1496,-334.5 1440,-334.5"/>
<text text-anchor="middle" x="1468" y="-342.5" font-family="Helvetica,sans-Serif" font-size="10.00">DIABase</text>
</a>
</g>
<!-- Node4&#45;&gt;Node3 -->
<g id="edge6" class="edge"><title>Node4&#45;&gt;Node3</title>
<path fill="none" stroke="midnightblue" d="M1497.42,-360.29C1516.3,-369.96 1541.43,-382.559 1564,-393 1575.49,-398.317 1588.37,-403.865 1599.32,-408.464"/>
<polygon fill="midnightblue" stroke="midnightblue" points="1498.92,-357.125 1488.42,-355.664 1495.72,-363.35 1498.92,-357.125"/>
</g>
<!-- Node5 -->
<g id="node8" class="node"><title>Node5</title>
<a xlink:href="classthrill_1_1common_1_1ReferenceCount.html" target="_top" xlink:title="Provides reference counting abilities for use with CountingPtr.">
<polygon fill="none" stroke="black" points="1262,-374.5 1262,-395.5 1350,-395.5 1350,-374.5 1262,-374.5"/>
<text text-anchor="middle" x="1306" y="-382.5" font-family="Helvetica,sans-Serif" font-size="10.00">ReferenceCount</text>
</a>
</g>
<!-- Node5&#45;&gt;Node4 -->
<g id="edge8" class="edge"><title>Node5&#45;&gt;Node4</title>
<path fill="none" stroke="midnightblue" d="M1360.18,-376.095C1379.82,-372.387 1402.06,-367.623 1422,-362 1428.39,-360.198 1435.16,-357.915 1441.48,-355.613"/>
<polygon fill="midnightblue" stroke="midnightblue" points="1359.38,-372.684 1350.18,-377.937 1360.65,-379.568 1359.38,-372.684"/>
</g>
<!-- Node6 -->
<g id="node10" class="node"><title>Node6</title>
<a xlink:href="classthrill_1_1api_1_1Context.html" target="_top" xlink:title="The Context of a job is a unique instance per worker which holds references to all underlying parts o...">
<polygon fill="none" stroke="black" points="1280.5,-294.5 1280.5,-315.5 1331.5,-315.5 1331.5,-294.5 1280.5,-294.5"/>
<text text-anchor="middle" x="1306" y="-302.5" font-family="Helvetica,sans-Serif" font-size="10.00">Context</text>
</a>
</g>
<!-- Node6&#45;&gt;Node4 -->
<g id="edge10" class="edge"><title>Node6&#45;&gt;Node4</title>
<path fill="none" stroke="#9a32cd" stroke-dasharray="5,2" d="M1341.67,-310.568C1364.79,-314.544 1395.44,-320.51 1422,-328 1428.39,-329.802 1435.16,-332.085 1441.48,-334.387"/>
<polygon fill="#9a32cd" stroke="#9a32cd" points="1342.06,-307.084 1331.62,-308.882 1340.9,-313.988 1342.06,-307.084"/>
<text text-anchor="middle" x="1395" y="-332" font-family="Helvetica,sans-Serif" font-size="10.00"> context_</text>
</g>
<!-- Node7 -->
<g id="node12" class="node"><title>Node7</title>
<a xlink:href="exceptionthrill_1_1net_1_1Manager.html" target="_top" xlink:title="Initializes communication channels, manages communication channels and handles errors.">
<polygon fill="none" stroke="black" points="494,-239.5 494,-260.5 548,-260.5 548,-239.5 494,-239.5"/>
<text text-anchor="middle" x="521" y="-247.5" font-family="Helvetica,sans-Serif" font-size="10.00">Manager</text>
</a>
</g>
<!-- Node7&#45;&gt;Node6 -->
<g id="edge76" class="edge"><title>Node7&#45;&gt;Node6</title>
<path fill="none" stroke="#9a32cd" stroke-dasharray="5,2" d="M550.223,-265.173C593.396,-286.648 677.395,-324.867 754,-339 857.038,-358.009 1185.59,-319.894 1280.25,-308.24"/>
<polygon fill="#9a32cd" stroke="#9a32cd" points="551.654,-261.976 541.148,-260.606 548.507,-268.228 551.654,-261.976"/>
<text text-anchor="middle" x="945" y="-347" font-family="Helvetica,sans-Serif" font-size="10.00"> mem_manager_</text>
</g>
<!-- Node7&#45;&gt;Node6 -->
<g id="edge12" class="edge"><title>Node7&#45;&gt;Node6</title>
<path fill="none" stroke="#9a32cd" stroke-dasharray="5,2" d="M558.486,-255.991C573.8,-258.225 591.711,-260.564 608,-262 779.021,-277.081 822.668,-265.99 994,-277 1100.37,-283.836 1226.75,-296.617 1280.15,-302.233"/>
<polygon fill="#9a32cd" stroke="#9a32cd" points="558.758,-252.493 548.35,-254.474 557.722,-259.416 558.758,-252.493"/>
<text text-anchor="middle" x="945" y="-281" font-family="Helvetica,sans-Serif" font-size="10.00"> net_manager_</text>
</g>
<!-- Node22 -->
<g id="node46" class="node"><title>Node22</title>
<a xlink:href="classthrill_1_1data_1_1Multiplexer.html" target="_top" xlink:title="Multiplexes virtual Connections on Dispatcher.">
<polygon fill="none" stroke="black" points="1052,-228.5 1052,-249.5 1116,-249.5 1116,-228.5 1052,-228.5"/>
<text text-anchor="middle" x="1084" y="-236.5" font-family="Helvetica,sans-Serif" font-size="10.00">Multiplexer</text>
</a>
</g>
<!-- Node7&#45;&gt;Node22 -->
<g id="edge70" class="edge"><title>Node7&#45;&gt;Node22</title>
<path fill="none" stroke="#9a32cd" stroke-dasharray="5,2" d="M558.184,-249.273C662.154,-247.242 954.612,-241.528 1052,-239.625"/>
<polygon fill="#9a32cd" stroke="#9a32cd" points="558.084,-245.775 548.155,-249.469 558.221,-252.773 558.084,-245.775"/>
<text text-anchor="middle" x="816" y="-250" font-family="Helvetica,sans-Serif" font-size="10.00"> mem_manager_</text>
</g>
<!-- Node23 -->
<g id="node48" class="node"><title>Node23</title>
<a xlink:href="classthrill_1_1net_1_1DispatcherThread.html" target="_top" xlink:title="DispatcherThread contains a net::Dispatcher object and an associated thread that runs in the dispatch...">
<polygon fill="none" stroke="black" points="769,-181.5 769,-202.5 863,-202.5 863,-181.5 769,-181.5"/>
<text text-anchor="middle" x="816" y="-189.5" font-family="Helvetica,sans-Serif" font-size="10.00">DispatcherThread</text>
</a>
</g>
<!-- Node7&#45;&gt;Node23 -->
<g id="edge58" class="edge"><title>Node7&#45;&gt;Node23</title>
<path fill="none" stroke="#9a32cd" stroke-dasharray="5,2" d="M557.99,-239.983C573.392,-235.985 591.499,-231.509 608,-228 637.932,-221.635 717.327,-208.254 768.914,-199.72"/>
<polygon fill="#9a32cd" stroke="#9a32cd" points="557.087,-236.602 548.303,-242.526 558.864,-243.372 557.087,-236.602"/>
<text text-anchor="middle" x="672" y="-232" font-family="Helvetica,sans-Serif" font-size="10.00"> mem_manager_</text>
</g>
<!-- Node26 -->
<g id="node56" class="node"><title>Node26</title>
<a xlink:href="classthrill_1_1data_1_1BlockPool.html" target="_top" xlink:title="Pool to allocate, keep, swap out/in, and free all ByteBlocks on the host.">
<polygon fill="none" stroke="black" points="785.5,-131.5 785.5,-152.5 846.5,-152.5 846.5,-131.5 785.5,-131.5"/>
<text text-anchor="middle" x="816" y="-139.5" font-family="Helvetica,sans-Serif" font-size="10.00">BlockPool</text>
</a>
</g>
<!-- Node7&#45;&gt;Node26 -->
<g id="edge68" class="edge"><title>Node7&#45;&gt;Node26</title>
<path fill="none" stroke="#9a32cd" stroke-dasharray="5,2" d="M558.112,-246.07C569.558,-243.204 581.399,-238.312 590,-230 608.495,-212.126 588.427,-191.686 608,-175 658.084,-132.305 740.57,-133.335 785.131,-137.71"/>
<polygon fill="#9a32cd" stroke="#9a32cd" points="557.334,-242.657 548.246,-248.104 558.747,-249.513 557.334,-242.657"/>
<text text-anchor="middle" x="672" y="-179" font-family="Helvetica,sans-Serif" font-size="10.00"> mem_manager_</text>
</g>
<!-- Node8 -->
<g id="node14" class="node"><title>Node8</title>
<a xlink:href="classthrill_1_1common_1_1ProfileTask.html" target="_top" xlink:title="ProfileTask">
<polygon fill="none" stroke="black" points="194,-131.5 194,-152.5 260,-152.5 260,-131.5 194,-131.5"/>
<text text-anchor="middle" x="227" y="-139.5" font-family="Helvetica,sans-Serif" font-size="10.00">ProfileTask</text>
</a>
</g>
<!-- Node8&#45;&gt;Node7 -->
<g id="edge14" class="edge"><title>Node8&#45;&gt;Node7</title>
<path fill="none" stroke="midnightblue" d="M269.98,-149.81C278.91,-153.195 287.552,-158.046 294,-165 315.549,-188.24 287.679,-213.68 312,-234 363.804,-277.282 450.27,-266.24 493.965,-256.875"/>
<polygon fill="midnightblue" stroke="midnightblue" points="270.86,-146.416 260.268,-146.683 268.714,-153.079 270.86,-146.416"/>
</g>
<!-- Node8&#45;&gt;Node26 -->
<g id="edge64" class="edge"><title>Node8&#45;&gt;Node26</title>
<path fill="none" stroke="midnightblue" d="M270.175,-140.059C357.948,-136.43 563.517,-129.541 736,-136 752.284,-136.61 770.394,-137.915 785.259,-139.154"/>
<polygon fill="midnightblue" stroke="midnightblue" points="269.909,-136.567 260.065,-140.485 270.203,-143.561 269.909,-136.567"/>
</g>
<!-- Node9 -->
<g id="node16" class="node"><title>Node9</title>
<a xlink:href="classthrill_1_1common_1_1JsonLogger.html" target="_top" xlink:title="JsonLogger is a receiver of JSON output objects for logging.">
<polygon fill="none" stroke="black" points="193.5,-47.5 193.5,-68.5 260.5,-68.5 260.5,-47.5 193.5,-47.5"/>
<text text-anchor="middle" x="227" y="-55.5" font-family="Helvetica,sans-Serif" font-size="10.00">JsonLogger</text>
</a>
</g>
<!-- Node9&#45;&gt;Node4 -->
<g id="edge78" class="edge"><title>Node9&#45;&gt;Node4</title>
<path fill="none" stroke="#9a32cd" stroke-dasharray="5,2" d="M268.424,-44.5293C324.887,-27.3943 429.468,-0 521,-0 521,-0 521,-0 1306,-0 1381.77,-0 1451.61,-276.064 1465.5,-334.297"/>
<polygon fill="#9a32cd" stroke="#9a32cd" points="267.314,-41.2087 258.787,-47.4966 269.375,-47.8987 267.314,-41.2087"/>
<text text-anchor="middle" x="945" y="-4" font-family="Helvetica,sans-Serif" font-size="10.00"> logger_</text>
</g>
<!-- Node9&#45;&gt;Node6 -->
<g id="edge48" class="edge"><title>Node9&#45;&gt;Node6</title>
<path fill="none" stroke="#9a32cd" stroke-dasharray="5,2" d="M271.118,-55.0761C328.607,-51.5239 432.272,-46 521,-46 521,-46 521,-46 1084,-46 1216.96,-46 1287.45,-245.183 1302.78,-294.201"/>
<polygon fill="#9a32cd" stroke="#9a32cd" points="270.696,-51.5956 260.935,-55.7146 271.134,-58.5819 270.696,-51.5956"/>
<text text-anchor="middle" x="816" y="-63" font-family="Helvetica,sans-Serif" font-size="10.00"> logger_</text>
<text text-anchor="middle" x="816" y="-50" font-family="Helvetica,sans-Serif" font-size="10.00">base_logger_</text>
</g>
<!-- Node9&#45;&gt;Node7 -->
<g id="edge16" class="edge"><title>Node9&#45;&gt;Node7</title>
<path fill="none" stroke="#9a32cd" stroke-dasharray="5,2" d="M259.983,-72.8341C312.035,-96.8245 409.817,-144.429 434,-174 450.55,-194.237 433.249,-211.783 452,-230 463.093,-240.777 479.628,-245.806 493.731,-248.127"/>
<polygon fill="#9a32cd" stroke="#9a32cd" points="261.373,-69.6211 250.824,-68.639 258.458,-75.9853 261.373,-69.6211"/>
<text text-anchor="middle" x="373" y="-178" font-family="Helvetica,sans-Serif" font-size="10.00"> logger_</text>
</g>
<!-- Node9&#45;&gt;Node9 -->
<g id="edge20" class="edge"><title>Node9&#45;&gt;Node9</title>
<path fill="none" stroke="#9a32cd" stroke-dasharray="5,2" d="M207.097,-78.4266C208.632,-83.3489 215.267,-87 227,-87 245.773,-87 251.493,-77.6531 244.16,-68.7079"/>
<polygon fill="#9a32cd" stroke="#9a32cd" points="210.492,-79.2826 209.84,-68.7079 203.755,-77.3811 210.492,-79.2826"/>
<text text-anchor="middle" x="227" y="-91" font-family="Helvetica,sans-Serif" font-size="10.00"> super_</text>
</g>
<!-- Node9&#45;&gt;Node26 -->
<g id="edge66" class="edge"><title>Node9&#45;&gt;Node26</title>
<path fill="none" stroke="#9a32cd" stroke-dasharray="5,2" d="M270.824,-64.0732C358.957,-76.3147 563.936,-104.926 736,-130 752.26,-132.369 770.368,-135.08 785.238,-137.324"/>
<polygon fill="#9a32cd" stroke="#9a32cd" points="271.051,-60.5713 260.665,-62.6628 270.089,-67.5048 271.051,-60.5713"/>
<text text-anchor="middle" x="521" y="-113" font-family="Helvetica,sans-Serif" font-size="10.00"> logger_</text>
</g>
<!-- Node10 -->
<g id="node18" class="node"><title>Node10</title>
<a xlink:href="classthrill_1_1common_1_1JsonVerbatim.html" target="_top" xlink:title="A special class to output verbatim text.">
<polygon fill="none" stroke="black" points="0.5,-47.5 0.5,-68.5 77.5,-68.5 77.5,-47.5 0.5,-47.5"/>
<text text-anchor="middle" x="39" y="-55.5" font-family="Helvetica,sans-Serif" font-size="10.00">JsonVerbatim</text>
</a>
</g>
<!-- Node10&#45;&gt;Node9 -->
<g id="edge18" class="edge"><title>Node10&#45;&gt;Node9</title>
<path fill="none" stroke="#9a32cd" stroke-dasharray="5,2" d="M88.3395,-58C121.461,-58 164.221,-58 193.445,-58"/>
<polygon fill="#9a32cd" stroke="#9a32cd" points="87.9538,-54.5001 77.9537,-58 87.9537,-61.5001 87.9538,-54.5001"/>
<text text-anchor="middle" x="119" y="-62" font-family="Helvetica,sans-Serif" font-size="10.00"> common_</text>
</g>
<!-- Node11 -->
<g id="node21" class="node"><title>Node11</title>
<a xlink:href="classthrill_1_1net_1_1FlowControlChannel.html" target="_top" xlink:title="Provides a blocking collection for communication.">
<polygon fill="none" stroke="black" points="1031.5,-420.5 1031.5,-441.5 1136.5,-441.5 1136.5,-420.5 1031.5,-420.5"/>
<text text-anchor="middle" x="1084" y="-428.5" font-family="Helvetica,sans-Serif" font-size="10.00">FlowControlChannel</text>
</a>
</g>
<!-- Node11&#45;&gt;Node6 -->
<g id="edge22" class="edge"><title>Node11&#45;&gt;Node6</title>
<path fill="none" stroke="#9a32cd" stroke-dasharray="5,2" d="M1146.62,-437.416C1179.57,-437.269 1218.34,-430.991 1244,-407 1271.26,-381.517 1238.53,-354.01 1262,-325 1266.75,-319.128 1273.6,-314.913 1280.48,-311.916"/>
<polygon fill="#9a32cd" stroke="#9a32cd" points="1146.64,-433.916 1136.6,-437.277 1146.55,-440.915 1146.64,-433.916"/>
<text text-anchor="middle" x="1209" y="-439" font-family="Helvetica,sans-Serif" font-size="10.00"> net</text>
</g>
<!-- Node12 -->
<g id="node23" class="node"><title>Node12</title>
<a xlink:href="classthrill_1_1net_1_1FlowControlChannel_1_1LocalData.html" target="_top" xlink:title="LocalData">
<polygon fill="none" stroke="black" points="785.5,-663.5 785.5,-684.5 846.5,-684.5 846.5,-663.5 785.5,-663.5"/>
<text text-anchor="middle" x="816" y="-671.5" font-family="Helvetica,sans-Serif" font-size="10.00">LocalData</text>
</a>
</g>
<!-- Node12&#45;&gt;Node11 -->
<g id="edge24" class="edge"><title>Node12&#45;&gt;Node11</title>
<path fill="none" stroke="#9a32cd" stroke-dasharray="5,2" d="M856.775,-675.394C903.354,-676.035 975.529,-673.813 994,-655 1025.88,-622.526 982.894,-485.985 1012,-451 1017.14,-444.817 1024.02,-440.455 1031.49,-437.396"/>
<polygon fill="#9a32cd" stroke="#9a32cd" points="856.744,-671.892 846.68,-675.205 856.613,-678.891 856.744,-671.892"/>
<text text-anchor="middle" x="945" y="-678" font-family="Helvetica,sans-Serif" font-size="10.00"> shmem_</text>
</g>
<!-- Node13 -->
<g id="node25" class="node"><title>Node13</title>
<a xlink:href="classthrill_1_1net_1_1Group.html" target="_top" xlink:title="A network Group is a collection of enumerated communication links, which provides point&#45;to&#45;point comm...">
<polygon fill="none" stroke="black" points="794.5,-308.5 794.5,-329.5 837.5,-329.5 837.5,-308.5 794.5,-308.5"/>
<text text-anchor="middle" x="816" y="-316.5" font-family="Helvetica,sans-Serif" font-size="10.00">Group</text>
</a>
</g>
<!-- Node13&#45;&gt;Node11 -->
<g id="edge26" class="edge"><title>Node13&#45;&gt;Node11</title>
<path fill="none" stroke="#9a32cd" stroke-dasharray="5,2" d="M840.104,-335.173C855.587,-345.046 876.399,-357.385 896,-366 937.7,-384.329 953.936,-374.326 994,-396 1003.16,-400.955 1002.78,-406.165 1012,-411 1019.12,-414.735 1027.02,-417.833 1034.9,-420.385"/>
<polygon fill="#9a32cd" stroke="#9a32cd" points="841.948,-332.197 831.654,-329.691 838.139,-338.069 841.948,-332.197"/>
<text text-anchor="middle" x="945" y="-400" font-family="Helvetica,sans-Serif" font-size="10.00"> group_</text>
</g>
<!-- Node13&#45;&gt;Node22 -->
<g id="edge60" class="edge"><title>Node13&#45;&gt;Node22</title>
<path fill="none" stroke="#9a32cd" stroke-dasharray="5,2" d="M847.785,-318.41C884.13,-316.862 944.936,-311.579 994,-294 1023.48,-283.438 1053.73,-262.446 1070.57,-249.671"/>
<polygon fill="#9a32cd" stroke="#9a32cd" points="847.641,-314.913 837.772,-318.768 847.891,-321.909 847.641,-314.913"/>
<text text-anchor="middle" x="945" y="-319" font-family="Helvetica,sans-Serif" font-size="10.00"> group_</text>
</g>
<!-- Node14 -->
<g id="node27" class="node"><title>Node14</title>
<a xlink:href="classthrill_1_1common_1_1AtomicMovable.html" target="_top" xlink:title="AtomicMovable\&lt; size_t \&gt;">
<polygon fill="none" stroke="black" points="608,-437.5 608,-458.5 736,-458.5 736,-437.5 608,-437.5"/>
<text text-anchor="middle" x="672" y="-445.5" font-family="Helvetica,sans-Serif" font-size="10.00">AtomicMovable&lt; size_t &gt;</text>
</a>
</g>
<!-- Node14&#45;&gt;Node11 -->
<g id="edge28" class="edge"><title>Node14&#45;&gt;Node11</title>
<path fill="none" stroke="#9a32cd" stroke-dasharray="5,2" d="M746.381,-446.672C811.672,-445.272 909.182,-442.613 994,-438 1006.05,-437.345 1018.99,-436.45 1031.2,-435.52"/>
<polygon fill="#9a32cd" stroke="#9a32cd" points="746.11,-443.177 736.186,-446.886 746.257,-450.175 746.11,-443.177"/>
<text text-anchor="middle" x="816" y="-515" font-family="Helvetica,sans-Serif" font-size="10.00"> count_allreduce_</text>
<text text-anchor="middle" x="816" y="-502" font-family="Helvetica,sans-Serif" font-size="10.00">count_broadcast_</text>
<text text-anchor="middle" x="816" y="-489" font-family="Helvetica,sans-Serif" font-size="10.00">count_reduce_</text>
<text text-anchor="middle" x="816" y="-476" font-family="Helvetica,sans-Serif" font-size="10.00">count_prefixsum_</text>
<text text-anchor="middle" x="816" y="-463" font-family="Helvetica,sans-Serif" font-size="10.00">count_barrier_</text>
<text text-anchor="middle" x="816" y="-450" font-family="Helvetica,sans-Serif" font-size="10.00">count_predecessor_</text>
</g>
<!-- Node15 -->
<g id="node29" class="node"><title>Node15</title>
<a xlink:href="classthrill_1_1common_1_1AtomicMovable.html" target="_top" xlink:title="This is a derivative of std::atomic which enables easier and less error&#45;prone writing of move&#45;only cl...">
<polygon fill="none" stroke="black" points="173,-416.5 173,-437.5 281,-437.5 281,-416.5 173,-416.5"/>
<text text-anchor="middle" x="227" y="-424.5" font-family="Helvetica,sans-Serif" font-size="10.00">AtomicMovable&lt; T &gt;</text>
</a>
</g>
<!-- Node15&#45;&gt;Node14 -->
<g id="edge30" class="edge"><title>Node15&#45;&gt;Node14</title>
<path fill="none" stroke="orange" stroke-dasharray="5,2" d="M291.359,-430.037C375.882,-434.026 523.425,-440.989 607.846,-444.972"/>
<polygon fill="orange" stroke="orange" points="291.275,-426.529 281.121,-429.554 290.945,-433.522 291.275,-426.529"/>
<text text-anchor="middle" x="373" y="-440" font-family="Helvetica,sans-Serif" font-size="10.00"> &lt; size_t &gt;</text>
</g>
<!-- Node17 -->
<g id="node33" class="node"><title>Node17</title>
<a xlink:href="classthrill_1_1common_1_1AtomicMovable.html" target="_top" xlink:title="AtomicMovable\&lt; uint64_t \&gt;">
<polygon fill="none" stroke="black" points="452.5,-395.5 452.5,-416.5 589.5,-416.5 589.5,-395.5 452.5,-395.5"/>
<text text-anchor="middle" x="521" y="-403.5" font-family="Helvetica,sans-Serif" font-size="10.00">AtomicMovable&lt; uint64_t &gt;</text>
</a>
</g>
<!-- Node15&#45;&gt;Node17 -->
<g id="edge36" class="edge"><title>Node15&#45;&gt;Node17</title>
<path fill="none" stroke="orange" stroke-dasharray="5,2" d="M285.286,-414.739C294.2,-413.239 303.32,-411.915 312,-411 358.563,-406.093 411.269,-404.862 452.103,-404.848"/>
<polygon fill="orange" stroke="orange" points="284.584,-411.309 275.346,-416.496 285.802,-418.202 284.584,-411.309"/>
<text text-anchor="middle" x="373" y="-415" font-family="Helvetica,sans-Serif" font-size="10.00"> &lt; uint64_t &gt;</text>
</g>
<!-- Node16 -->
<g id="node31" class="node"><title>Node16</title>
<a xlink:href="classthrill_1_1common_1_1ThreadBarrierSpinning.html" target="_top" xlink:title="Implements a cyclic barrier using atomics and a spin lock that can be used to synchronize threads...">
<polygon fill="none" stroke="black" points="759.5,-394.5 759.5,-415.5 872.5,-415.5 872.5,-394.5 759.5,-394.5"/>
<text text-anchor="middle" x="816" y="-402.5" font-family="Helvetica,sans-Serif" font-size="10.00">ThreadBarrierSpinning</text>
</a>
</g>
<!-- Node16&#45;&gt;Node11 -->
<g id="edge32" class="edge"><title>Node16&#45;&gt;Node11</title>
<path fill="none" stroke="#9a32cd" stroke-dasharray="5,2" d="M882.66,-411.467C928.54,-415.918 988.651,-421.75 1031.21,-425.879"/>
<polygon fill="#9a32cd" stroke="#9a32cd" points="882.8,-407.964 872.508,-410.482 882.124,-414.932 882.8,-407.964"/>
<text text-anchor="middle" x="945" y="-425" font-family="Helvetica,sans-Serif" font-size="10.00"> barrier_</text>
</g>
<!-- Node17&#45;&gt;Node16 -->
<g id="edge34" class="edge"><title>Node17&#45;&gt;Node16</title>
<path fill="none" stroke="#9a32cd" stroke-dasharray="5,2" d="M599.983,-405.732C650.282,-405.562 714.248,-405.345 759.482,-405.192"/>
<polygon fill="#9a32cd" stroke="#9a32cd" points="599.78,-402.233 589.792,-405.767 599.804,-409.233 599.78,-402.233"/>
<text text-anchor="middle" x="672" y="-409" font-family="Helvetica,sans-Serif" font-size="10.00"> wait_time_</text>
</g>
<!-- Node18 -->
<g id="node36" class="node"><title>Node18</title>
<a xlink:href="classthrill_1_1common_1_1StatsTimerBaseStopped.html" target="_top" xlink:title="StatsTimerBaseStopped\l\&lt; enable_stats \&gt;">
<polygon fill="none" stroke="black" points="754.5,-606 754.5,-640 877.5,-640 877.5,-606 754.5,-606"/>
<text text-anchor="start" x="762.5" y="-627" font-family="Helvetica,sans-Serif" font-size="10.00">StatsTimerBaseStopped</text>
<text text-anchor="middle" x="816" y="-614" font-family="Helvetica,sans-Serif" font-size="10.00">&lt; enable_stats &gt;</text>
</a>
</g>
<!-- Node18&#45;&gt;Node11 -->
<g id="edge38" class="edge"><title>Node18&#45;&gt;Node11</title>
<path fill="none" stroke="#9a32cd" stroke-dasharray="5,2" d="M836.422,-597.383C849.486,-580.165 866.144,-556.573 878,-534 888.594,-513.829 878.89,-501.045 896,-486 929.597,-456.457 952.956,-480.803 994,-463 1002.82,-459.174 1003.26,-455.004 1012,-451 1020.02,-447.327 1028.86,-444.194 1037.52,-441.573"/>
<polygon fill="#9a32cd" stroke="#9a32cd" points="833.293,-595.709 829.962,-605.767 838.838,-599.982 833.293,-595.709"/>
<text text-anchor="start" x="896.5" y="-646" font-family="Helvetica,sans-Serif" font-size="10.00"> timer_communication</text>
<text text-anchor="middle" x="945" y="-633" font-family="Helvetica,sans-Serif" font-size="10.00">_</text>
<text text-anchor="start" x="896.5" y="-620" font-family="Helvetica,sans-Serif" font-size="10.00">timer_predecessor</text>
<text text-anchor="middle" x="945" y="-607" font-family="Helvetica,sans-Serif" font-size="10.00">_</text>
<text text-anchor="start" x="896.5" y="-594" font-family="Helvetica,sans-Serif" font-size="10.00">timer_allreduce</text>
<text text-anchor="middle" x="945" y="-581" font-family="Helvetica,sans-Serif" font-size="10.00">_</text>
<text text-anchor="start" x="896.5" y="-568" font-family="Helvetica,sans-Serif" font-size="10.00">timer_barrier</text>
<text text-anchor="middle" x="945" y="-555" font-family="Helvetica,sans-Serif" font-size="10.00">_</text>
<text text-anchor="start" x="896.5" y="-542" font-family="Helvetica,sans-Serif" font-size="10.00">timer_prefixsum</text>
<text text-anchor="middle" x="945" y="-529" font-family="Helvetica,sans-Serif" font-size="10.00">_</text>
<text text-anchor="start" x="896.5" y="-516" font-family="Helvetica,sans-Serif" font-size="10.00">timer_broadcast</text>
<text text-anchor="middle" x="945" y="-503" font-family="Helvetica,sans-Serif" font-size="10.00">_</text>
<text text-anchor="middle" x="945" y="-490" font-family="Helvetica,sans-Serif" font-size="10.00">timer_reduce_</text>
</g>
<!-- Node19 -->
<g id="node38" class="node"><title>Node19</title>
<a xlink:href="classthrill_1_1common_1_1StatsTimerBase.html" target="_top" xlink:title="This class provides a statistical stop watch timer that can easily be deactivated using a boolean tem...">
<polygon fill="none" stroke="black" points="160.5,-660.5 160.5,-681.5 293.5,-681.5 293.5,-660.5 160.5,-660.5"/>
<text text-anchor="middle" x="227" y="-668.5" font-family="Helvetica,sans-Serif" font-size="10.00">StatsTimerBase&lt; Active &gt;</text>
</a>
</g>
<!-- Node19&#45;&gt;Node18 -->
<g id="edge40" class="edge"><title>Node19&#45;&gt;Node18</title>
<path fill="none" stroke="midnightblue" d="M303.776,-661.075C347.216,-655.724 402.577,-649.346 452,-645 558.109,-635.67 681.971,-629.101 754.418,-625.694"/>
<polygon fill="midnightblue" stroke="midnightblue" points="303.344,-657.601 293.85,-662.305 304.205,-664.548 303.344,-657.601"/>
</g>
<!-- Node20 -->
<g id="node40" class="node"><title>Node20</title>
<a xlink:href="classthrill_1_1common_1_1StatsTimerBaseStopped.html" target="_top" xlink:title="StatsTimerBaseStopped\l\&lt; Active \&gt;">
<polygon fill="none" stroke="black" points="459.5,-654 459.5,-688 582.5,-688 582.5,-654 459.5,-654"/>
<text text-anchor="start" x="467.5" y="-675" font-family="Helvetica,sans-Serif" font-size="10.00">StatsTimerBaseStopped</text>
<text text-anchor="middle" x="521" y="-662" font-family="Helvetica,sans-Serif" font-size="10.00">&lt; Active &gt;</text>
</a>
</g>
<!-- Node19&#45;&gt;Node20 -->
<g id="edge44" class="edge"><title>Node19&#45;&gt;Node20</title>
<path fill="none" stroke="midnightblue" d="M303.825,-671C352.203,-671 413.83,-671 459.068,-671"/>
<polygon fill="midnightblue" stroke="midnightblue" points="303.713,-667.5 293.713,-671 303.713,-674.5 303.713,-667.5"/>
</g>
<!-- Node33 -->
<g id="node78" class="node"><title>Node33</title>
<a xlink:href="classthrill_1_1common_1_1StatsTimerBaseStopped.html" target="_top" xlink:title="StatsTimerBaseStopped\l\&lt; stats_enabled \&gt;">
<polygon fill="none" stroke="black" points="754.5,-703 754.5,-737 877.5,-737 877.5,-703 754.5,-703"/>
<text text-anchor="start" x="762.5" y="-724" font-family="Helvetica,sans-Serif" font-size="10.00">StatsTimerBaseStopped</text>
<text text-anchor="middle" x="816" y="-711" font-family="Helvetica,sans-Serif" font-size="10.00">&lt; stats_enabled &gt;</text>
</a>
</g>
<!-- Node19&#45;&gt;Node33 -->
<g id="edge94" class="edge"><title>Node19&#45;&gt;Node33</title>
<path fill="none" stroke="midnightblue" d="M297.411,-683.031C302.342,-683.74 307.242,-684.405 312,-685 470.836,-704.857 659.346,-714.19 754.499,-717.912"/>
<polygon fill="midnightblue" stroke="midnightblue" points="297.687,-679.533 287.281,-681.523 296.657,-686.457 297.687,-679.533"/>
</g>
<!-- Node20&#45;&gt;Node18 -->
<g id="edge42" class="edge"><title>Node20&#45;&gt;Node18</title>
<path fill="none" stroke="orange" stroke-dasharray="5,2" d="M592.837,-659.311C642.325,-651.259 707.396,-640.671 754.493,-633.008"/>
<polygon fill="orange" stroke="orange" points="592.15,-655.877 582.842,-660.938 593.274,-662.786 592.15,-655.877"/>
<text text-anchor="middle" x="672" y="-660" font-family="Helvetica,sans-Serif" font-size="10.00"> &lt; enable_stats &gt;</text>
</g>
<!-- Node20&#45;&gt;Node33 -->
<g id="edge96" class="edge"><title>Node20&#45;&gt;Node33</title>
<path fill="none" stroke="orange" stroke-dasharray="5,2" d="M592.894,-674.331C634.969,-677.278 688.914,-682.78 736,-693 747.603,-695.518 759.873,-699.146 771.226,-702.929"/>
<polygon fill="orange" stroke="orange" points="592.949,-670.827 582.739,-673.653 592.483,-677.812 592.949,-670.827"/>
<text text-anchor="middle" x="672" y="-697" font-family="Helvetica,sans-Serif" font-size="10.00"> &lt; stats_enabled &gt;</text>
</g>
<!-- Node21 -->
<g id="node43" class="node"><title>Node21</title>
<a xlink:href="classthrill_1_1api_1_1MemoryConfig.html" target="_top" xlink:title="MemoryConfig">
<polygon fill="none" stroke="black" points="1044,-460.5 1044,-481.5 1124,-481.5 1124,-460.5 1044,-460.5"/>
<text text-anchor="middle" x="1084" y="-468.5" font-family="Helvetica,sans-Serif" font-size="10.00">MemoryConfig</text>
</a>
</g>
<!-- Node21&#45;&gt;Node6 -->
<g id="edge46" class="edge"><title>Node21&#45;&gt;Node6</title>
<path fill="none" stroke="#9a32cd" stroke-dasharray="5,2" d="M1134.47,-478.506C1169.91,-480.724 1215.83,-476.955 1244,-449 1283.53,-409.77 1228.56,-369.529 1262,-325 1266.54,-318.961 1273.32,-314.697 1280.21,-311.705"/>
<polygon fill="#9a32cd" stroke="#9a32cd" points="1134.56,-475.002 1124.31,-477.691 1134,-481.979 1134.56,-475.002"/>
<text text-anchor="middle" x="1209" y="-481" font-family="Helvetica,sans-Serif" font-size="10.00"> mem_config_</text>
</g>
<!-- Node22&#45;&gt;Node6 -->
<g id="edge50" class="edge"><title>Node22&#45;&gt;Node6</title>
<path fill="none" stroke="#9a32cd" stroke-dasharray="5,2" d="M1126.59,-235.902C1159.81,-235.07 1206.46,-237.454 1244,-253 1266.07,-262.137 1286.17,-282.07 1297.18,-294.431"/>
<polygon fill="#9a32cd" stroke="#9a32cd" points="1126.17,-232.414 1116.3,-236.272 1126.42,-239.41 1126.17,-232.414"/>
<text text-anchor="middle" x="1209" y="-257" font-family="Helvetica,sans-Serif" font-size="10.00"> multiplexer_</text>
</g>
<!-- Node23&#45;&gt;Node22 -->
<g id="edge52" class="edge"><title>Node23&#45;&gt;Node22</title>
<path fill="none" stroke="#9a32cd" stroke-dasharray="5,2" d="M873.274,-195.808C908.37,-198.789 954.069,-203.836 994,-212 1014.14,-216.117 1036.25,-222.722 1053.52,-228.369"/>
<polygon fill="#9a32cd" stroke="#9a32cd" points="873.459,-192.311 863.207,-194.984 872.888,-199.288 873.459,-192.311"/>
<text text-anchor="middle" x="945" y="-216" font-family="Helvetica,sans-Serif" font-size="10.00"> dispatcher_</text>
</g>
<!-- Node24 -->
<g id="node50" class="node"><title>Node24</title>
<a xlink:href="classthrill_1_1common_1_1OurConcurrentQueue.html" target="_top" xlink:title="OurConcurrentQueue\l\&lt; thrill::common::Delegate,\l mem::Allocator\&lt; thrill\l::common::Delegate \&gt; \&gt;">
<polygon fill="none" stroke="black" points="453.5,-161 453.5,-221 588.5,-221 588.5,-161 453.5,-161"/>
<text text-anchor="start" x="461.5" y="-208" font-family="Helvetica,sans-Serif" font-size="10.00">OurConcurrentQueue</text>
<text text-anchor="start" x="461.5" y="-195" font-family="Helvetica,sans-Serif" font-size="10.00">&lt; thrill::common::Delegate,</text>
<text text-anchor="start" x="461.5" y="-182" font-family="Helvetica,sans-Serif" font-size="10.00"> mem::Allocator&lt; thrill</text>
<text text-anchor="middle" x="521" y="-169" font-family="Helvetica,sans-Serif" font-size="10.00">::common::Delegate &gt; &gt;</text>
</a>
</g>
<!-- Node24&#45;&gt;Node23 -->
<g id="edge54" class="edge"><title>Node24&#45;&gt;Node23</title>
<path fill="none" stroke="#9a32cd" stroke-dasharray="5,2" d="M598.913,-191.264C652.942,-191.447 723.131,-191.685 768.854,-191.84"/>
<polygon fill="#9a32cd" stroke="#9a32cd" points="598.691,-187.763 588.679,-191.229 598.667,-194.763 598.691,-187.763"/>
<text text-anchor="middle" x="672" y="-196" font-family="Helvetica,sans-Serif" font-size="10.00"> jobqueue_</text>
</g>
<!-- Node25 -->
<g id="node52" class="node"><title>Node25</title>
<a xlink:href="classthrill_1_1common_1_1OurConcurrentQueue.html" target="_top" xlink:title="This is a queue, similar to std::queue and tbb::concurrent_queue, except that it uses mutexes for syn...">
<polygon fill="none" stroke="black" points="172.5,-174 172.5,-208 281.5,-208 281.5,-174 172.5,-174"/>
<text text-anchor="start" x="180.5" y="-195" font-family="Helvetica,sans-Serif" font-size="10.00">OurConcurrentQueue</text>
<text text-anchor="middle" x="227" y="-182" font-family="Helvetica,sans-Serif" font-size="10.00">&lt; T, Allocator &gt;</text>
</a>
</g>
<!-- Node25&#45;&gt;Node24 -->
<g id="edge56" class="edge"><title>Node25&#45;&gt;Node24</title>
<path fill="none" stroke="orange" stroke-dasharray="5,2" d="M291.857,-191C339.724,-191 404.705,-191 453.245,-191"/>
<polygon fill="orange" stroke="orange" points="291.61,-187.5 281.61,-191 291.61,-194.5 291.61,-187.5"/>
<text text-anchor="start" x="312" y="-221" font-family="Helvetica,sans-Serif" font-size="10.00"> &lt; thrill::common::Delegate,</text>
<text text-anchor="start" x="312" y="-208" font-family="Helvetica,sans-Serif" font-size="10.00"> mem::Allocator&lt; thrill</text>
<text text-anchor="middle" x="373" y="-195" font-family="Helvetica,sans-Serif" font-size="10.00">::common::Delegate &gt; &gt;</text>
</g>
<!-- Node26&#45;&gt;Node6 -->
<g id="edge72" class="edge"><title>Node26&#45;&gt;Node6</title>
<path fill="none" stroke="#9a32cd" stroke-dasharray="5,2" d="M856.813,-141.34C937.518,-141.938 1120.38,-152.918 1244,-234 1268.77,-250.245 1289.51,-279.011 1299.53,-294.472"/>
<polygon fill="#9a32cd" stroke="#9a32cd" points="856.583,-137.84 846.575,-141.317 856.567,-144.84 856.583,-137.84"/>
<text text-anchor="middle" x="1084" y="-195" font-family="Helvetica,sans-Serif" font-size="10.00"> block_pool_</text>
</g>
<!-- Node26&#45;&gt;Node22 -->
<g id="edge62" class="edge"><title>Node26&#45;&gt;Node22</title>
<path fill="none" stroke="#9a32cd" stroke-dasharray="5,2" d="M856.927,-147.118C893.809,-152.672 948.992,-163.351 994,-182 1023.22,-194.106 1053.56,-215.472 1070.49,-228.325"/>
<polygon fill="#9a32cd" stroke="#9a32cd" points="856.965,-143.587 846.567,-145.62 855.963,-150.515 856.965,-143.587"/>
<text text-anchor="middle" x="945" y="-186" font-family="Helvetica,sans-Serif" font-size="10.00"> block_pool_</text>
</g>
<!-- Node27 -->
<g id="node63" class="node"><title>Node27</title>
<a xlink:href="classthrill_1_1net_1_1FlowControlChannelManager.html" target="_top" xlink:title="FlowControlChannelManager">
<polygon fill="none" stroke="black" points="1012.5,-380.5 1012.5,-401.5 1155.5,-401.5 1155.5,-380.5 1012.5,-380.5"/>
<text text-anchor="middle" x="1084" y="-388.5" font-family="Helvetica,sans-Serif" font-size="10.00">FlowControlChannelManager</text>
</a>
</g>
<!-- Node27&#45;&gt;Node6 -->
<g id="edge74" class="edge"><title>Node27&#45;&gt;Node6</title>
<path fill="none" stroke="#9a32cd" stroke-dasharray="5,2" d="M1165.94,-393.47C1193.1,-390.544 1221.97,-382.956 1244,-366 1259.77,-353.861 1248.02,-339.163 1262,-325 1267.07,-319.864 1273.7,-315.922 1280.27,-312.951"/>
<polygon fill="#9a32cd" stroke="#9a32cd" points="1165.3,-390.014 1155.64,-394.374 1165.91,-396.987 1165.3,-390.014"/>
<text text-anchor="middle" x="1209" y="-397" font-family="Helvetica,sans-Serif" font-size="10.00"> flow_manager_</text>
</g>
<!-- Node28 -->
<g id="node67" class="node"><title>Node28</title>
<a xlink:href="classthrill_1_1api_1_1DIAMemUse.html" target="_top" xlink:title="Description of the amount of RAM the internal data structures of a DIANode require.">
<polygon fill="none" stroke="black" points="1269,-334.5 1269,-355.5 1343,-355.5 1343,-334.5 1269,-334.5"/>
<text text-anchor="middle" x="1306" y="-342.5" font-family="Helvetica,sans-Serif" font-size="10.00">DIAMemUse</text>
</a>
</g>
<!-- Node28&#45;&gt;Node4 -->
<g id="edge80" class="edge"><title>Node28&#45;&gt;Node4</title>
<path fill="none" stroke="#9a32cd" stroke-dasharray="5,2" d="M1353.19,-345C1381.28,-345 1415.99,-345 1439.85,-345"/>
<polygon fill="#9a32cd" stroke="#9a32cd" points="1353.17,-341.5 1343.17,-345 1353.17,-348.5 1353.17,-341.5"/>
<text text-anchor="middle" x="1395" y="-349" font-family="Helvetica,sans-Serif" font-size="10.00"> mem_limit_</text>
</g>
<!-- Node29 -->
<g id="node69" class="node"><title>Node29</title>
<a xlink:href="classthrill_1_1common_1_1CountingPtr.html" target="_top" xlink:title="CountingPtr\&lt; File \&gt;">
<polygon fill="none" stroke="black" points="1808,-381.5 1808,-402.5 1910,-402.5 1910,-381.5 1808,-381.5"/>
<text text-anchor="middle" x="1859" y="-389.5" font-family="Helvetica,sans-Serif" font-size="10.00">CountingPtr&lt; File &gt;</text>
</a>
</g>
<!-- Node29&#45;&gt;Node1 -->
<g id="edge82" class="edge"><title>Node29&#45;&gt;Node1</title>
<path fill="none" stroke="#9a32cd" stroke-dasharray="5,2" d="M1920.48,-394.455C1941.88,-395.543 1966.02,-397.032 1988,-399 1993.98,-399.535 2000.18,-400.163 2006.4,-400.842"/>
<polygon fill="#9a32cd" stroke="#9a32cd" points="1920.38,-390.946 1910.22,-393.953 1920.04,-397.938 1920.38,-390.946"/>
<text text-anchor="middle" x="1966" y="-403" font-family="Helvetica,sans-Serif" font-size="10.00"> files_</text>
</g>
<!-- Node30 -->
<g id="node71" class="node"><title>Node30</title>
<a xlink:href="classthrill_1_1common_1_1CountingPtr.html" target="_top" xlink:title="High&#45;performance smart pointer used as a wrapping reference counting pointer.">
<polygon fill="none" stroke="black" points="1574,-350 1574,-384 1676,-384 1676,-350 1574,-350"/>
<text text-anchor="start" x="1582" y="-371" font-family="Helvetica,sans-Serif" font-size="10.00">CountingPtr&lt; Type,</text>
<text text-anchor="middle" x="1625" y="-358" font-family="Helvetica,sans-Serif" font-size="10.00"> Deleter &gt;</text>
</a>
</g>
<!-- Node30&#45;&gt;Node29 -->
<g id="edge84" class="edge"><title>Node30&#45;&gt;Node29</title>
<path fill="none" stroke="orange" stroke-dasharray="5,2" d="M1686.42,-373.562C1724.15,-377.593 1771.93,-382.698 1807.64,-386.513"/>
<polygon fill="orange" stroke="orange" points="1686.38,-370.038 1676.06,-372.455 1685.63,-376.998 1686.38,-370.038"/>
<text text-anchor="middle" x="1739" y="-387" font-family="Helvetica,sans-Serif" font-size="10.00"> &lt; File &gt;</text>
</g>
<!-- Node31 -->
<g id="node73" class="node"><title>Node31</title>
<a xlink:href="classthrill_1_1common_1_1CountingPtr.html" target="_top" xlink:title="CountingPtr\&lt; CatStream \&gt;">
<polygon fill="none" stroke="black" points="1792,-341.5 1792,-362.5 1926,-362.5 1926,-341.5 1792,-341.5"/>
<text text-anchor="middle" x="1859" y="-349.5" font-family="Helvetica,sans-Serif" font-size="10.00">CountingPtr&lt; CatStream &gt;</text>
</a>
</g>
<!-- Node30&#45;&gt;Node31 -->
<g id="edge88" class="edge"><title>Node30&#45;&gt;Node31</title>
<path fill="none" stroke="orange" stroke-dasharray="5,2" d="M1686.32,-357.773C1692.29,-357.083 1698.25,-356.473 1704,-356 1732.71,-353.639 1764.49,-352.552 1791.77,-352.088"/>
<polygon fill="orange" stroke="orange" points="1685.83,-354.307 1676.33,-359 1686.68,-361.255 1685.83,-354.307"/>
<text text-anchor="middle" x="1739" y="-360" font-family="Helvetica,sans-Serif" font-size="10.00"> &lt; CatStream &gt;</text>
</g>
<!-- Node31&#45;&gt;Node1 -->
<g id="edge86" class="edge"><title>Node31&#45;&gt;Node1</title>
<path fill="none" stroke="#9a32cd" stroke-dasharray="5,2" d="M1927.33,-364.545C1947.04,-368.637 1968.49,-373.547 1988,-379 2002.2,-382.967 2017.42,-388.031 2031.15,-392.911"/>
<polygon fill="#9a32cd" stroke="#9a32cd" points="1928.01,-361.111 1917.51,-362.543 1926.61,-367.97 1928.01,-361.111"/>
<text text-anchor="middle" x="1966" y="-383" font-family="Helvetica,sans-Serif" font-size="10.00"> streams_</text>
</g>
<!-- Node32 -->
<g id="node76" class="node"><title>Node32</title>
<a xlink:href="classthrill_1_1api_1_1MergeNode_1_1Stats.html" target="_top" xlink:title="Stats holds timers for measuring merge performance, that supports accumulating the output and printin...">
<polygon fill="none" stroke="black" points="1189,-595.5 1189,-616.5 1229,-616.5 1229,-595.5 1189,-595.5"/>
<text text-anchor="middle" x="1209" y="-603.5" font-family="Helvetica,sans-Serif" font-size="10.00">Stats</text>
</a>
</g>
<!-- Node32&#45;&gt;Node1 -->
<g id="edge90" class="edge"><title>Node32&#45;&gt;Node1</title>
<path fill="none" stroke="#9a32cd" stroke-dasharray="5,2" d="M1222.7,-586.815C1250.62,-550.208 1317.98,-474 1395,-474 1395,-474 1395,-474 1859,-474 1925.38,-474 1998.69,-446.108 2040.85,-427.151"/>
<polygon fill="#9a32cd" stroke="#9a32cd" points="1219.63,-585.084 1216.48,-595.198 1225.25,-589.258 1219.63,-585.084"/>
<text text-anchor="middle" x="1530" y="-478" font-family="Helvetica,sans-Serif" font-size="10.00"> stats_</text>
</g>
<!-- Node33&#45;&gt;Node32 -->
<g id="edge92" class="edge"><title>Node33&#45;&gt;Node32</title>
<path fill="none" stroke="#9a32cd" stroke-dasharray="5,2" d="M887.62,-711.909C920.4,-707.297 959.533,-700.502 994,-691 1067.91,-670.626 1151.21,-633.338 1188.75,-615.716"/>
<polygon fill="#9a32cd" stroke="#9a32cd" points="887.097,-708.448 877.663,-713.271 888.045,-715.384 887.097,-708.448"/>
<text text-anchor="middle" x="945" y="-818" font-family="Helvetica,sans-Serif" font-size="10.00"> search_step_timer_</text>
<text text-anchor="middle" x="945" y="-805" font-family="Helvetica,sans-Serif" font-size="10.00">scatter_timer_</text>
<text text-anchor="middle" x="945" y="-792" font-family="Helvetica,sans-Serif" font-size="10.00">merge_timer_</text>
<text text-anchor="middle" x="945" y="-779" font-family="Helvetica,sans-Serif" font-size="10.00">file_op_timer_</text>
<text text-anchor="middle" x="945" y="-766" font-family="Helvetica,sans-Serif" font-size="10.00">comm_timer_</text>
<text text-anchor="start" x="900.5" y="-753" font-family="Helvetica,sans-Serif" font-size="10.00">balancing_timer</text>
<text text-anchor="middle" x="945" y="-740" font-family="Helvetica,sans-Serif" font-size="10.00">_</text>
<text text-anchor="start" x="900.5" y="-727" font-family="Helvetica,sans-Serif" font-size="10.00">pivot_selection</text>
<text text-anchor="middle" x="945" y="-714" font-family="Helvetica,sans-Serif" font-size="10.00">_timer_</text>
</g>
</g>
</svg>
