<?xml version="1.0" encoding="UTF-8" standalone="no"?>
<!DOCTYPE svg PUBLIC "-//W3C//DTD SVG 1.1//EN"
 "http://www.w3.org/Graphics/SVG/1.1/DTD/svg11.dtd">
<!-- Generated by graphviz version 2.36.0 (20140111.2315)
 -->
<!-- Title: DispatcherThread Pages: 1 -->
<svg width="184pt" height="220pt"
 viewBox="0.00 0.00 184.00 220.00" xmlns="http://www.w3.org/2000/svg" xmlns:xlink="http://www.w3.org/1999/xlink">
<g id="graph0" class="graph" transform="scale(1 1) rotate(0) translate(4 216)">
<title>DispatcherThread</title>
<!-- Node1 -->
<g id="node1" class="node"><title>Node1</title>
<polygon fill="#bfbfbf" stroke="black" points="33,-0.5 33,-19.5 127,-19.5 127,-0.5 33,-0.5"/>
<text text-anchor="middle" x="80" y="-7.5" font-family="Helvetica,sans-Serif" font-size="10.00">DispatcherThread</text>
</g>
<!-- Node2 -->
<g id="node2" class="node"><title>Node2</title>
<g id="a_node2"><a xlink:href="classthrill_1_1common_1_1ConcurrentQueue.html" target="_top" xlink:title="ConcurrentQueue\&lt; tlx\l::Delegate, mem::GPoolAllocator\l\&lt; tlx::Delegate \&gt; \&gt;">
<polygon fill="none" stroke="black" points="-0.5,-68.5 -0.5,-109.5 160.5,-109.5 160.5,-68.5 -0.5,-68.5"/>
<text text-anchor="start" x="7.5" y="-97.5" font-family="Helvetica,sans-Serif" font-size="10.00">ConcurrentQueue&lt; tlx</text>
<text text-anchor="start" x="7.5" y="-86.5" font-family="Helvetica,sans-Serif" font-size="10.00">::Delegate, mem::GPoolAllocator</text>
<text text-anchor="middle" x="80" y="-75.5" font-family="Helvetica,sans-Serif" font-size="10.00">&lt; tlx::Delegate &gt; &gt;</text>
</a>
</g>
</g>
<!-- Node2&#45;&gt;Node1 -->
<g id="edge1" class="edge"><title>Node2&#45;&gt;Node1</title>
<path fill="none" stroke="#9a32cd" stroke-dasharray="5,2" d="M80,-58.0623C80,-44.2877 80,-28.9727 80,-19.6646"/>
<polygon fill="#9a32cd" stroke="#9a32cd" points="76.5001,-58.1706 80,-68.1706 83.5001,-58.1706 76.5001,-58.1706"/>
<text text-anchor="middle" x="104" y="-41.5" font-family="Helvetica,sans-Serif" font-size="10.00"> jobqueue_</text>
</g>
<!-- Node3 -->
<g id="node3" class="node"><title>Node3</title>
<g id="a_node3"><a xlink:href="classthrill_1_1common_1_1ConcurrentQueue.html" target="_top" xlink:title="This is a queue, similar to std::queue and tbb::concurrent_queue, except that it uses mutexes for syn...">
<polygon fill="none" stroke="black" points="24.5,-181 24.5,-211 135.5,-211 135.5,-181 24.5,-181"/>
<text text-anchor="start" x="32.5" y="-199" font-family="Helvetica,sans-Serif" font-size="10.00">ConcurrentQueue&lt; T,</text>
<text text-anchor="middle" x="80" y="-188" font-family="Helvetica,sans-Serif" font-size="10.00"> Allocator &gt;</text>
</a>
</g>
</g>
<!-- Node3&#45;&gt;Node2 -->
<g id="edge2" class="edge"><title>Node3&#45;&gt;Node2</title>
<path fill="none" stroke="orange" stroke-dasharray="5,2" d="M80,-170.803C80,-152.247 80,-126.964 80,-109.65"/>
<polygon fill="orange" stroke="orange" points="76.5001,-170.839 80,-180.839 83.5001,-170.839 76.5001,-170.839"/>
<text text-anchor="start" x="80" y="-153.5" font-family="Helvetica,sans-Serif" font-size="10.00"> &lt; tlx::Delegate, mem</text>
<text text-anchor="start" x="80" y="-142.5" font-family="Helvetica,sans-Serif" font-size="10.00">::GPoolAllocator&lt; tlx</text>
<text text-anchor="middle" x="128" y="-131.5" font-family="Helvetica,sans-Serif" font-size="10.00">::Delegate &gt; &gt;</text>
</g>
</g>
</svg>
