<?xml version="1.0" encoding="UTF-8" standalone="no"?>
<!DOCTYPE svg PUBLIC "-//W3C//DTD SVG 1.1//EN"
 "http://www.w3.org/Graphics/SVG/1.1/DTD/svg11.dtd">
<!-- Generated by graphviz version 2.26.3 (20100126.1600)
 -->
<!-- Title: JsonLine Pages: 1 -->
<svg width="130pt" height="174pt"
 viewBox="0.00 0.00 130.00 174.00" xmlns="http://www.w3.org/2000/svg" xmlns:xlink="http://www.w3.org/1999/xlink">
<g id="graph1" class="graph" transform="scale(1 1) rotate(0) translate(4 170)">
<title>JsonLine</title>
<!-- Node1 -->
<g id="node1" class="node"><title>Node1</title>
<polygon fill="#bfbfbf" stroke="black" points="10,-0.5 10,-21.5 66,-21.5 66,-0.5 10,-0.5"/>
<text text-anchor="middle" x="38" y="-8.5" font-family="Helvetica,sans-Serif" font-size="10.00">JsonLine</text>
</g>
<!-- Node2 -->
<g id="node2" class="node"><title>Node2</title>
<a xlink:href="classthrill_1_1common_1_1JsonLogger.html" target="_top" xlink:title="JsonLogger is a receiver of JSON output objects for logging.">
<polygon fill="none" stroke="black" points="4.5,-72.5 4.5,-93.5 71.5,-93.5 71.5,-72.5 4.5,-72.5"/>
<text text-anchor="middle" x="38" y="-80.5" font-family="Helvetica,sans-Serif" font-size="10.00">JsonLogger</text>
</a>
</g>
<!-- Node2&#45;&gt;Node1 -->
<g id="edge2" class="edge"><title>Node2&#45;&gt;Node1</title>
<path fill="none" stroke="#9a32cd" stroke-dasharray="5,2" d="M38,-62.2348C38,-48.969 38,-32.3188 38,-21.6674"/>
<polygon fill="#9a32cd" stroke="#9a32cd" points="34.5001,-62.3761 38,-72.3762 41.5001,-62.3762 34.5001,-62.3761"/>
<text text-anchor="middle" x="55.5" y="-44.5" font-family="Helvetica,sans-Serif" font-size="10.00"> logger_</text>
</g>
<!-- Node2&#45;&gt;Node2 -->
<g id="edge6" class="edge"><title>Node2&#45;&gt;Node2</title>
<path fill="none" stroke="#9a32cd" stroke-dasharray="5,2" d="M81.8662,-88.5094C86.2258,-87.4073 89,-85.5708 89,-83 89,-78.7812 81.5293,-76.54 71.8407,-76.2764"/>
<polygon fill="#9a32cd" stroke="#9a32cd" points="81.3473,-85.0466 71.8407,-89.7236 82.189,-91.9958 81.3473,-85.0466"/>
<text text-anchor="middle" x="105.5" y="-80.5" font-family="Helvetica,sans-Serif" font-size="10.00"> super_</text>
</g>
<!-- Node3 -->
<g id="node4" class="node"><title>Node3</title>
<a xlink:href="classthrill_1_1common_1_1JsonVerbatim.html" target="_top" xlink:title="A special class to output verbatim text.">
<polygon fill="none" stroke="black" points="-0.5,-144.5 -0.5,-165.5 76.5,-165.5 76.5,-144.5 -0.5,-144.5"/>
<text text-anchor="middle" x="38" y="-152.5" font-family="Helvetica,sans-Serif" font-size="10.00">JsonVerbatim</text>
</a>
</g>
<!-- Node3&#45;&gt;Node2 -->
<g id="edge4" class="edge"><title>Node3&#45;&gt;Node2</title>
<path fill="none" stroke="#9a32cd" stroke-dasharray="5,2" d="M38,-134.235C38,-120.969 38,-104.319 38,-93.6674"/>
<polygon fill="#9a32cd" stroke="#9a32cd" points="34.5001,-134.376 38,-144.376 41.5001,-134.376 34.5001,-134.376"/>
<text text-anchor="middle" x="61" y="-116.5" font-family="Helvetica,sans-Serif" font-size="10.00"> common_</text>
</g>
</g>
</svg>
