<?xml version="1.0" encoding="UTF-8" standalone="no"?>
<!DOCTYPE svg PUBLIC "-//W3C//DTD SVG 1.1//EN"
 "http://www.w3.org/Graphics/SVG/1.1/DTD/svg11.dtd">
<!-- Generated by graphviz version 2.26.3 (20100126.1600)
 -->
<!-- Title: Delegate&lt; T, Allocator &gt; Pages: 1 -->
<svg width="472pt" height="503pt"
 viewBox="0.00 0.00 472.00 503.00" xmlns="http://www.w3.org/2000/svg" xmlns:xlink="http://www.w3.org/1999/xlink">
<g id="graph1" class="graph" transform="scale(1 1) rotate(0) translate(4 499)">
<title>Delegate&lt; T, Allocator &gt;</title>
<!-- Node1 -->
<g id="node1" class="node"><title>Node1</title>
<polygon fill="#bfbfbf" stroke="black" points="0,-220.5 0,-241.5 124,-241.5 124,-220.5 0,-220.5"/>
<text text-anchor="middle" x="62" y="-228.5" font-family="Helvetica,sans-Serif" font-size="10.00">Delegate&lt; T, Allocator &gt;</text>
</g>
<!-- Node2 -->
<g id="node3" class="node"><title>Node2</title>
<a xlink:href="classtlx_1_1Delegate.html" target="_top" xlink:title="Delegate\&lt; void(Connection\l &amp;), mem::GPoolAllocator\l\&lt; char \&gt; \&gt;">
<polygon fill="none" stroke="black" points="316.5,-422.5 316.5,-469.5 451.5,-469.5 451.5,-422.5 316.5,-422.5"/>
<text text-anchor="start" x="324.5" y="-456.5" font-family="Helvetica,sans-Serif" font-size="10.00">Delegate&lt; void(Connection</text>
<text text-anchor="start" x="324.5" y="-443.5" font-family="Helvetica,sans-Serif" font-size="10.00"> &amp;), mem::GPoolAllocator</text>
<text text-anchor="middle" x="384" y="-430.5" font-family="Helvetica,sans-Serif" font-size="10.00">&lt; char &gt; &gt;</text>
</a>
</g>
<!-- Node1&#45;&gt;Node2 -->
<g id="edge2" class="edge"><title>Node1&#45;&gt;Node2</title>
<path fill="none" stroke="orange" stroke-dasharray="5,2" d="M64.1419,-251.9C69.4327,-291.701 86.9762,-378.05 142,-419 191.683,-455.975 263.755,-459.473 316.319,-455.701"/>
<polygon fill="orange" stroke="orange" points="67.5936,-251.287 62.9312,-241.773 60.6431,-252.118 67.5936,-251.287"/>
<text text-anchor="start" x="164" y="-486" font-family="Helvetica,sans-Serif" font-size="10.00"> &lt; void(Connection &amp;)</text>
<text text-anchor="start" x="164" y="-473" font-family="Helvetica,sans-Serif" font-size="10.00">, mem::GPoolAllocator</text>
<text text-anchor="middle" x="214" y="-460" font-family="Helvetica,sans-Serif" font-size="10.00">&lt; char &gt; &gt;</text>
</g>
<!-- Node3 -->
<g id="node5" class="node"><title>Node3</title>
<a xlink:href="classtlx_1_1Delegate.html" target="_top" xlink:title="Delegate\&lt; void(Connection\l &amp;c, uint8_t *data, size\l_t size), mem::GPoolAllocator\l\&lt; char \&gt; \&gt;">
<polygon fill="none" stroke="black" points="310,-343 310,-403 458,-403 458,-343 310,-343"/>
<text text-anchor="start" x="318" y="-390" font-family="Helvetica,sans-Serif" font-size="10.00">Delegate&lt; void(Connection</text>
<text text-anchor="start" x="318" y="-377" font-family="Helvetica,sans-Serif" font-size="10.00"> &amp;c, uint8_t *data, size</text>
<text text-anchor="start" x="318" y="-364" font-family="Helvetica,sans-Serif" font-size="10.00">_t size), mem::GPoolAllocator</text>
<text text-anchor="middle" x="384" y="-351" font-family="Helvetica,sans-Serif" font-size="10.00">&lt; char &gt; &gt;</text>
</a>
</g>
<!-- Node1&#45;&gt;Node3 -->
<g id="edge4" class="edge"><title>Node1&#45;&gt;Node3</title>
<path fill="none" stroke="orange" stroke-dasharray="5,2" d="M71.4764,-250.786C84.045,-274.702 108.597,-314.199 142,-334 169.73,-350.438 249.393,-361.079 309.81,-367.027"/>
<polygon fill="orange" stroke="orange" points="74.4654,-248.94 66.8326,-241.592 68.2173,-252.096 74.4654,-248.94"/>
<text text-anchor="start" x="148" y="-406" font-family="Helvetica,sans-Serif" font-size="10.00"> &lt; void(Connection &amp;c,</text>
<text text-anchor="start" x="148" y="-393" font-family="Helvetica,sans-Serif" font-size="10.00"> uint8_t *data, size</text>
<text text-anchor="start" x="148" y="-380" font-family="Helvetica,sans-Serif" font-size="10.00">_t size), mem::GPoolAllocator</text>
<text text-anchor="middle" x="214" y="-367" font-family="Helvetica,sans-Serif" font-size="10.00">&lt; char &gt; &gt;</text>
</g>
<!-- Node4 -->
<g id="node7" class="node"><title>Node4</title>
<a xlink:href="classtlx_1_1Delegate.html" target="_top" xlink:title="Delegate\&lt; void(BlockQueue &amp;)\&gt;">
<polygon fill="none" stroke="black" points="305,-303.5 305,-324.5 463,-324.5 463,-303.5 305,-303.5"/>
<text text-anchor="middle" x="384" y="-311.5" font-family="Helvetica,sans-Serif" font-size="10.00">Delegate&lt; void(BlockQueue &amp;)&gt;</text>
</a>
</g>
<!-- Node1&#45;&gt;Node4 -->
<g id="edge6" class="edge"><title>Node1&#45;&gt;Node4</title>
<path fill="none" stroke="orange" stroke-dasharray="5,2" d="M78.6921,-248.688C93.7183,-263.347 117.196,-283.296 142,-293 193.742,-313.244 256.323,-318.213 304.882,-318.268"/>
<polygon fill="orange" stroke="orange" points="81.1715,-246.217 71.6425,-241.586 76.2036,-251.149 81.1715,-246.217"/>
<text text-anchor="middle" x="214" y="-321" font-family="Helvetica,sans-Serif" font-size="10.00"> &lt; void(BlockQueue &amp;)&gt;</text>
</g>
<!-- Node5 -->
<g id="node9" class="node"><title>Node5</title>
<a xlink:href="classtlx_1_1Delegate.html" target="_top" xlink:title="Delegate\&lt; void(Connection\l &amp;c, Buffer &amp;&amp;buffer),\l mem::GPoolAllocator\&lt; char \&gt; \&gt;">
<polygon fill="none" stroke="black" points="305,-236.5 305,-283.5 463,-283.5 463,-236.5 305,-236.5"/>
<text text-anchor="start" x="313" y="-270.5" font-family="Helvetica,sans-Serif" font-size="10.00">Delegate&lt; void(Connection</text>
<text text-anchor="start" x="313" y="-257.5" font-family="Helvetica,sans-Serif" font-size="10.00"> &amp;c, Buffer &amp;&amp;buffer),</text>
<text text-anchor="middle" x="384" y="-244.5" font-family="Helvetica,sans-Serif" font-size="10.00"> mem::GPoolAllocator&lt; char &gt; &gt;</text>
</a>
</g>
<!-- Node1&#45;&gt;Node5 -->
<g id="edge8" class="edge"><title>Node1&#45;&gt;Node5</title>
<path fill="none" stroke="orange" stroke-dasharray="5,2" d="M134.314,-237.513C185.036,-242.081 252.827,-248.186 304.972,-252.883"/>
<polygon fill="orange" stroke="orange" points="134.359,-234.003 124.085,-236.591 133.731,-240.974 134.359,-234.003"/>
<text text-anchor="start" x="155" y="-280" font-family="Helvetica,sans-Serif" font-size="10.00"> &lt; void(Connection &amp;c,</text>
<text text-anchor="start" x="155" y="-267" font-family="Helvetica,sans-Serif" font-size="10.00"> Buffer &amp;&amp;buffer), mem</text>
<text text-anchor="middle" x="214" y="-254" font-family="Helvetica,sans-Serif" font-size="10.00">::GPoolAllocator&lt; char &gt; &gt;</text>
</g>
<!-- Node6 -->
<g id="node11" class="node"><title>Node6</title>
<a xlink:href="classtlx_1_1Delegate.html" target="_top" xlink:title="Delegate\&lt; bool(), mem\l::GPoolAllocator\&lt; char \&gt; \&gt;">
<polygon fill="none" stroke="black" points="317,-184 317,-218 451,-218 451,-184 317,-184"/>
<text text-anchor="start" x="325" y="-205" font-family="Helvetica,sans-Serif" font-size="10.00">Delegate&lt; bool(), mem</text>
<text text-anchor="middle" x="384" y="-192" font-family="Helvetica,sans-Serif" font-size="10.00">::GPoolAllocator&lt; char &gt; &gt;</text>
</a>
</g>
<!-- Node1&#45;&gt;Node6 -->
<g id="edge10" class="edge"><title>Node1&#45;&gt;Node6</title>
<path fill="none" stroke="orange" stroke-dasharray="5,2" d="M101.801,-217.428C114.498,-213.676 128.704,-210.07 142,-208 200.559,-198.884 268.025,-197.686 316.821,-198.45"/>
<polygon fill="orange" stroke="orange" points="100.521,-214.16 91.9889,-220.442 102.576,-220.852 100.521,-214.16"/>
<text text-anchor="start" x="146" y="-225" font-family="Helvetica,sans-Serif" font-size="10.00"> &lt; bool(), mem::GPoolAllocator</text>
<text text-anchor="middle" x="214" y="-212" font-family="Helvetica,sans-Serif" font-size="10.00">&lt; char &gt; &gt;</text>
</g>
<!-- Node7 -->
<g id="node13" class="node"><title>Node7</title>
<a xlink:href="classtlx_1_1Delegate.html" target="_top" xlink:title="Delegate\&lt; void(Connection\l &amp;c, data::PinnedByteBlockPtr\l &amp;&amp;bytes), mem::GPoolAllocator\l\&lt; char \&gt; \&gt;">
<polygon fill="none" stroke="black" points="304.5,-104 304.5,-164 463.5,-164 463.5,-104 304.5,-104"/>
<text text-anchor="start" x="312.5" y="-151" font-family="Helvetica,sans-Serif" font-size="10.00">Delegate&lt; void(Connection</text>
<text text-anchor="start" x="312.5" y="-138" font-family="Helvetica,sans-Serif" font-size="10.00"> &amp;c, data::PinnedByteBlockPtr</text>
<text text-anchor="start" x="312.5" y="-125" font-family="Helvetica,sans-Serif" font-size="10.00"> &amp;&amp;bytes), mem::GPoolAllocator</text>
<text text-anchor="middle" x="384" y="-112" font-family="Helvetica,sans-Serif" font-size="10.00">&lt; char &gt; &gt;</text>
</a>
</g>
<!-- Node1&#45;&gt;Node7 -->
<g id="edge12" class="edge"><title>Node1&#45;&gt;Node7</title>
<path fill="none" stroke="orange" stroke-dasharray="5,2" d="M72.8206,-211.616C86.0131,-190.159 110.5,-156.669 142,-142 192.397,-118.531 255.308,-117.175 304.354,-121.348"/>
<polygon fill="orange" stroke="orange" points="69.7922,-209.861 67.7198,-220.251 75.8192,-213.421 69.7922,-209.861"/>
<text text-anchor="start" x="142.5" y="-185" font-family="Helvetica,sans-Serif" font-size="10.00"> &lt; void(Connection &amp;c,</text>
<text text-anchor="start" x="142.5" y="-172" font-family="Helvetica,sans-Serif" font-size="10.00"> data::PinnedByteBlockPtr</text>
<text text-anchor="start" x="142.5" y="-159" font-family="Helvetica,sans-Serif" font-size="10.00"> &amp;&amp;bytes), mem::GPoolAllocator</text>
<text text-anchor="middle" x="214" y="-146" font-family="Helvetica,sans-Serif" font-size="10.00">&lt; char &gt; &gt;</text>
</g>
<!-- Node8 -->
<g id="node15" class="node"><title>Node8</title>
<a xlink:href="classtlx_1_1Delegate.html" target="_top" xlink:title="Delegate\&lt; void(Request\l *, bool)\&gt;">
<polygon fill="none" stroke="black" points="323,-52 323,-86 445,-86 445,-52 323,-52"/>
<text text-anchor="start" x="331" y="-73" font-family="Helvetica,sans-Serif" font-size="10.00">Delegate&lt; void(Request</text>
<text text-anchor="middle" x="384" y="-60" font-family="Helvetica,sans-Serif" font-size="10.00"> *, bool)&gt;</text>
</a>
</g>
<!-- Node1&#45;&gt;Node8 -->
<g id="edge14" class="edge"><title>Node1&#45;&gt;Node8</title>
<path fill="none" stroke="orange" stroke-dasharray="5,2" d="M68.3078,-210.858C78.6162,-181.579 102.032,-127.935 142,-102 195.889,-67.0312 270.749,-61.8939 322.886,-63.5266"/>
<polygon fill="orange" stroke="orange" points="64.9536,-209.852 65.0966,-220.446 71.5913,-212.076 64.9536,-209.852"/>
<text text-anchor="middle" x="214" y="-106" font-family="Helvetica,sans-Serif" font-size="10.00"> &lt; void(Request *, bool)&gt;</text>
</g>
<!-- Node9 -->
<g id="node17" class="node"><title>Node9</title>
<a xlink:href="classtlx_1_1Delegate.html" target="_top" xlink:title="Delegate\&lt; void(const\l ValueType &amp;)\&gt;">
<polygon fill="none" stroke="black" points="329,-0 329,-34 439,-34 439,-0 329,-0"/>
<text text-anchor="start" x="337" y="-21" font-family="Helvetica,sans-Serif" font-size="10.00">Delegate&lt; void(const</text>
<text text-anchor="middle" x="384" y="-8" font-family="Helvetica,sans-Serif" font-size="10.00"> ValueType &amp;)&gt;</text>
</a>
</g>
<!-- Node1&#45;&gt;Node9 -->
<g id="edge16" class="edge"><title>Node1&#45;&gt;Node9</title>
<path fill="none" stroke="orange" stroke-dasharray="5,2" d="M64.2837,-210.463C69.819,-171.348 87.7658,-86.4605 142,-46 195.757,-5.89558 275.715,-4.335 328.823,-8.96357"/>
<polygon fill="orange" stroke="orange" points="60.808,-210.051 63.0079,-220.415 67.7512,-210.941 60.808,-210.051"/>
<text text-anchor="middle" x="214" y="-50" font-family="Helvetica,sans-Serif" font-size="10.00"> &lt; void(const ValueType &amp;)&gt;</text>
</g>
</g>
</svg>
