<?xml version="1.0" encoding="UTF-8" standalone="no"?>
<!DOCTYPE svg PUBLIC "-//W3C//DTD SVG 1.1//EN"
 "http://www.w3.org/Graphics/SVG/1.1/DTD/svg11.dtd">
<!-- Generated by graphviz version 2.36.0 (20140111.2315)
 -->
<!-- Title: ReduceByIndexPostPhase&lt; TableItem, Key, Value, KeyExtractor, ReduceFunction, Emitter, VolatileKey, ReduceConfig_ &gt; Pages: 1 -->
<svg width="216pt" height="220pt"
 viewBox="0.00 0.00 216.00 220.00" xmlns="http://www.w3.org/2000/svg" xmlns:xlink="http://www.w3.org/1999/xlink">
<g id="graph0" class="graph" transform="scale(1 1) rotate(0) translate(4 216)">
<title>ReduceByIndexPostPhase&lt; TableItem, Key, Value, KeyExtractor, ReduceFunction, Emitter, VolatileKey, ReduceConfig_ &gt;</title>
<!-- Node1 -->
<g id="node1" class="node"><title>Node1</title>
<polygon fill="#bfbfbf" stroke="black" points="19.5,-1 19.5,-53 208.5,-53 208.5,-1 19.5,-1"/>
<text text-anchor="start" x="27.5" y="-41" font-family="Helvetica,sans-Serif" font-size="10.00">ReduceByIndexPostPhase</text>
<text text-anchor="start" x="27.5" y="-30" font-family="Helvetica,sans-Serif" font-size="10.00">&lt; TableItem, Key, Value,</text>
<text text-anchor="start" x="27.5" y="-19" font-family="Helvetica,sans-Serif" font-size="10.00"> KeyExtractor, ReduceFunction,</text>
<text text-anchor="middle" x="114" y="-8" font-family="Helvetica,sans-Serif" font-size="10.00"> Emitter, VolatileKey, ReduceConfig_ &gt;</text>
</g>
<!-- Node2 -->
<g id="node2" class="node"><title>Node2</title>
<g id="a_node2"><a xlink:href="classtlx_1_1CountingPtr.html" target="_top" xlink:title="CountingPtr\&lt; File \&gt;">
<polygon fill="none" stroke="black" points="0,-112.5 0,-131.5 102,-131.5 102,-112.5 0,-112.5"/>
<text text-anchor="middle" x="51" y="-119.5" font-family="Helvetica,sans-Serif" font-size="10.00">CountingPtr&lt; File &gt;</text>
</a>
</g>
</g>
<!-- Node2&#45;&gt;Node1 -->
<g id="edge1" class="edge"><title>Node2&#45;&gt;Node1</title>
<path fill="none" stroke="#9a32cd" stroke-dasharray="5,2" d="M62.4402,-104.112C72.0519,-89.9234 85.9307,-69.4356 96.8682,-53.2898"/>
<polygon fill="#9a32cd" stroke="#9a32cd" points="59.5248,-102.175 56.814,-112.417 65.3202,-106.101 59.5248,-102.175"/>
<text text-anchor="middle" x="100.5" y="-80.5" font-family="Helvetica,sans-Serif" font-size="10.00"> cache_</text>
</g>
<!-- Node3 -->
<g id="node3" class="node"><title>Node3</title>
<g id="a_node3"><a xlink:href="classtlx_1_1CountingPtr.html" target="_top" xlink:title="High&#45;performance smart pointer used as a wrapping reference counting pointer. ">
<polygon fill="none" stroke="black" points="0,-181 0,-211 102,-211 102,-181 0,-181"/>
<text text-anchor="start" x="8" y="-199" font-family="Helvetica,sans-Serif" font-size="10.00">CountingPtr&lt; Type,</text>
<text text-anchor="middle" x="51" y="-188" font-family="Helvetica,sans-Serif" font-size="10.00"> Deleter &gt;</text>
</a>
</g>
</g>
<!-- Node3&#45;&gt;Node2 -->
<g id="edge2" class="edge"><title>Node3&#45;&gt;Node2</title>
<path fill="none" stroke="orange" stroke-dasharray="5,2" d="M51,-170.688C51,-157.253 51,-141.38 51,-131.759"/>
<polygon fill="orange" stroke="orange" points="47.5001,-170.775 51,-180.775 54.5001,-170.775 47.5001,-170.775"/>
<text text-anchor="middle" x="69.5" y="-153.5" font-family="Helvetica,sans-Serif" font-size="10.00"> &lt; File &gt;</text>
</g>
<!-- Node4 -->
<g id="node4" class="node"><title>Node4</title>
<g id="a_node4"><a xlink:href="classthrill_1_1common_1_1Range.html" target="_top" xlink:title="represents a 1 dimensional range (interval) [begin,end) ">
<polygon fill="none" stroke="black" points="120.5,-112.5 120.5,-131.5 165.5,-131.5 165.5,-112.5 120.5,-112.5"/>
<text text-anchor="middle" x="143" y="-119.5" font-family="Helvetica,sans-Serif" font-size="10.00">Range</text>
</a>
</g>
</g>
<!-- Node4&#45;&gt;Node1 -->
<g id="edge3" class="edge"><title>Node4&#45;&gt;Node1</title>
<path fill="none" stroke="#9a32cd" stroke-dasharray="5,2" d="M137.22,-102.464C132.825,-88.3687 126.729,-68.8205 121.886,-53.2898"/>
<polygon fill="#9a32cd" stroke="#9a32cd" points="134.005,-103.913 140.324,-112.417 140.688,-101.829 134.005,-103.913"/>
<text text-anchor="middle" x="159" y="-86" font-family="Helvetica,sans-Serif" font-size="10.00"> range_</text>
<text text-anchor="middle" x="159" y="-75" font-family="Helvetica,sans-Serif" font-size="10.00">full_range_</text>
</g>
</g>
</svg>
