<?xml version="1.0" encoding="UTF-8" standalone="no"?>
<!DOCTYPE svg PUBLIC "-//W3C//DTD SVG 1.1//EN"
 "http://www.w3.org/Graphics/SVG/1.1/DTD/svg11.dtd">
<!-- Generated by graphviz version 2.36.0 (20140111.2315)
 -->
<!-- Title: MixBlockQueueReader Pages: 1 -->
<svg width="1564pt" height="422pt"
 viewBox="0.00 0.00 1564.00 422.00" xmlns="http://www.w3.org/2000/svg" xmlns:xlink="http://www.w3.org/1999/xlink">
<g id="graph0" class="graph" transform="scale(1 1) rotate(0) translate(4 418)">
<title>MixBlockQueueReader</title>
<!-- Node1 -->
<g id="node1" class="node"><title>Node1</title>
<polygon fill="#bfbfbf" stroke="black" points="1438.5,-206.5 1438.5,-225.5 1555.5,-225.5 1555.5,-206.5 1438.5,-206.5"/>
<text text-anchor="middle" x="1497" y="-213.5" font-family="Helvetica,sans-Serif" font-size="10.00">MixBlockQueueReader</text>
</g>
<!-- Node2 -->
<g id="node2" class="node"><title>Node2</title>
<g id="a_node2"><a xlink:href="classthrill_1_1data_1_1MixBlockQueue.html" target="_top" xlink:title="Implements reading an unordered sequence of items from multiple workers, which sends Blocks...">
<polygon fill="none" stroke="black" points="1222,-284.5 1222,-303.5 1308,-303.5 1308,-284.5 1222,-284.5"/>
<text text-anchor="middle" x="1265" y="-291.5" font-family="Helvetica,sans-Serif" font-size="10.00">MixBlockQueue</text>
</a>
</g>
</g>
<!-- Node2&#45;&gt;Node1 -->
<g id="edge1" class="edge"><title>Node2&#45;&gt;Node1</title>
<path fill="none" stroke="#9a32cd" stroke-dasharray="5,2" d="M1303.83,-281.171C1349.93,-265.536 1426.76,-239.48 1467.93,-225.52"/>
<polygon fill="#9a32cd" stroke="#9a32cd" points="1302.55,-277.909 1294.2,-284.436 1304.8,-284.539 1302.55,-277.909"/>
<text text-anchor="middle" x="1392" y="-263" font-family="Helvetica,sans-Serif" font-size="10.00"> mix_queue_</text>
</g>
<!-- Node3 -->
<g id="node3" class="node"><title>Node3</title>
<g id="a_node3"><a xlink:href="classthrill_1_1common_1_1ConcurrentBoundedQueue.html" target="_top" xlink:title="ConcurrentBoundedQueue\l\&lt; thrill::data::MixBlockQueue\l::SrcBlockPair \&gt;">
<polygon fill="none" stroke="black" points="901.5,-369.5 901.5,-410.5 1044.5,-410.5 1044.5,-369.5 901.5,-369.5"/>
<text text-anchor="start" x="909.5" y="-398.5" font-family="Helvetica,sans-Serif" font-size="10.00">ConcurrentBoundedQueue</text>
<text text-anchor="start" x="909.5" y="-387.5" font-family="Helvetica,sans-Serif" font-size="10.00">&lt; thrill::data::MixBlockQueue</text>
<text text-anchor="middle" x="973" y="-376.5" font-family="Helvetica,sans-Serif" font-size="10.00">::SrcBlockPair &gt;</text>
</a>
</g>
</g>
<!-- Node3&#45;&gt;Node2 -->
<g id="edge2" class="edge"><title>Node3&#45;&gt;Node2</title>
<path fill="none" stroke="#9a32cd" stroke-dasharray="5,2" d="M1052.35,-366.469C1087.27,-355.738 1128.82,-342.629 1166,-330 1191.06,-321.488 1219.41,-310.976 1239.15,-303.514"/>
<polygon fill="#9a32cd" stroke="#9a32cd" points="1051.22,-363.154 1042.69,-369.431 1053.27,-369.847 1051.22,-363.154"/>
<text text-anchor="middle" x="1119" y="-361" font-family="Helvetica,sans-Serif" font-size="10.00"> mix_queue_</text>
</g>
<!-- Node4 -->
<g id="node4" class="node"><title>Node4</title>
<g id="a_node4"><a xlink:href="classthrill_1_1common_1_1ConcurrentBoundedQueue.html" target="_top" xlink:title="This is a queue, similar to std::queue and tbb::concurrent_bounded_queue, except that it uses mutexes...">
<polygon fill="none" stroke="black" points="516.5,-384.5 516.5,-403.5 671.5,-403.5 671.5,-384.5 516.5,-384.5"/>
<text text-anchor="middle" x="594" y="-391.5" font-family="Helvetica,sans-Serif" font-size="10.00">ConcurrentBoundedQueue&lt; T &gt;</text>
</a>
</g>
</g>
<!-- Node4&#45;&gt;Node3 -->
<g id="edge3" class="edge"><title>Node4&#45;&gt;Node3</title>
<path fill="none" stroke="orange" stroke-dasharray="5,2" d="M681.807,-393.079C748.422,-392.372 839.222,-391.409 901.41,-390.749"/>
<polygon fill="orange" stroke="orange" points="681.708,-389.58 671.746,-393.186 681.783,-396.579 681.708,-389.58"/>
<text text-anchor="start" x="733" y="-406" font-family="Helvetica,sans-Serif" font-size="10.00"> &lt; thrill::data::MixBlock</text>
<text text-anchor="middle" x="784" y="-395" font-family="Helvetica,sans-Serif" font-size="10.00">Queue::SrcBlockPair &gt;</text>
</g>
<!-- Node5 -->
<g id="node5" class="node"><title>Node5</title>
<g id="a_node5"><a xlink:href="classthrill_1_1common_1_1AtomicMovable.html" target="_top" xlink:title="AtomicMovable\&lt; size_t \&gt;">
<polygon fill="none" stroke="black" points="909,-317.5 909,-336.5 1037,-336.5 1037,-317.5 909,-317.5"/>
<text text-anchor="middle" x="973" y="-324.5" font-family="Helvetica,sans-Serif" font-size="10.00">AtomicMovable&lt; size_t &gt;</text>
</a>
</g>
</g>
<!-- Node5&#45;&gt;Node2 -->
<g id="edge4" class="edge"><title>Node5&#45;&gt;Node2</title>
<path fill="none" stroke="#9a32cd" stroke-dasharray="5,2" d="M1047.36,-318.652C1102.56,-312.37 1176.26,-303.984 1221.9,-298.791"/>
<polygon fill="#9a32cd" stroke="#9a32cd" points="1046.82,-315.191 1037.28,-319.799 1047.62,-322.146 1046.82,-315.191"/>
<text text-anchor="middle" x="1119" y="-318" font-family="Helvetica,sans-Serif" font-size="10.00"> write_open_count_</text>
</g>
<!-- Node6 -->
<g id="node6" class="node"><title>Node6</title>
<g id="a_node6"><a xlink:href="classthrill_1_1common_1_1AtomicMovable.html" target="_top" xlink:title="This is a derivative of std::atomic which enables easier and less error&#45;prone writing of move&#45;only cl...">
<polygon fill="none" stroke="black" points="540,-346.5 540,-365.5 648,-365.5 648,-346.5 540,-346.5"/>
<text text-anchor="middle" x="594" y="-353.5" font-family="Helvetica,sans-Serif" font-size="10.00">AtomicMovable&lt; T &gt;</text>
</a>
</g>
</g>
<!-- Node6&#45;&gt;Node5 -->
<g id="edge5" class="edge"><title>Node6&#45;&gt;Node5</title>
<path fill="none" stroke="orange" stroke-dasharray="5,2" d="M658.599,-351.108C728.218,-345.752 839.168,-337.218 908.677,-331.871"/>
<polygon fill="orange" stroke="orange" points="657.917,-347.65 648.215,-351.907 658.454,-354.629 657.917,-347.65"/>
<text text-anchor="middle" x="784" y="-351" font-family="Helvetica,sans-Serif" font-size="10.00"> &lt; size_t &gt;</text>
</g>
<!-- Node7 -->
<g id="node7" class="node"><title>Node7</title>
<g id="a_node7"><a xlink:href="classthrill_1_1data_1_1BlockPool.html" target="_top" xlink:title="Pool to allocate, keep, swap out/in, and free all ByteBlocks on the host. ">
<polygon fill="none" stroke="black" points="942.5,-251.5 942.5,-270.5 1003.5,-270.5 1003.5,-251.5 942.5,-251.5"/>
<text text-anchor="middle" x="973" y="-258.5" font-family="Helvetica,sans-Serif" font-size="10.00">BlockPool</text>
</a>
</g>
</g>
<!-- Node7&#45;&gt;Node2 -->
<g id="edge6" class="edge"><title>Node7&#45;&gt;Node2</title>
<path fill="none" stroke="#9a32cd" stroke-dasharray="5,2" d="M1013.64,-265.511C1068.1,-271.708 1165.64,-282.807 1221.54,-289.168"/>
<polygon fill="#9a32cd" stroke="#9a32cd" points="1014,-262.03 1003.67,-264.376 1013.21,-268.985 1014,-262.03"/>
<text text-anchor="middle" x="1119" y="-286" font-family="Helvetica,sans-Serif" font-size="10.00"> block_pool_</text>
</g>
<!-- Node8 -->
<g id="node8" class="node"><title>Node8</title>
<g id="a_node8"><a xlink:href="classthrill_1_1common_1_1ProfileTask.html" target="_top" xlink:title="ProfileTask">
<polygon fill="none" stroke="black" points="561,-308.5 561,-327.5 627,-327.5 627,-308.5 561,-308.5"/>
<text text-anchor="middle" x="594" y="-315.5" font-family="Helvetica,sans-Serif" font-size="10.00">ProfileTask</text>
</a>
</g>
</g>
<!-- Node8&#45;&gt;Node7 -->
<g id="edge7" class="edge"><title>Node8&#45;&gt;Node7</title>
<path fill="none" stroke="midnightblue" d="M637.445,-311.583C714.545,-299.926 875.765,-275.55 942.302,-265.49"/>
<polygon fill="midnightblue" stroke="midnightblue" points="636.507,-308.185 627.143,-313.14 637.554,-315.106 636.507,-308.185"/>
</g>
<!-- Node9 -->
<g id="node9" class="node"><title>Node9</title>
<g id="a_node9"><a xlink:href="classthrill_1_1common_1_1JsonLogger.html" target="_top" xlink:title="JsonLogger is a receiver of JSON output objects for logging. ">
<polygon fill="none" stroke="black" points="560.5,-241.5 560.5,-260.5 627.5,-260.5 627.5,-241.5 560.5,-241.5"/>
<text text-anchor="middle" x="594" y="-248.5" font-family="Helvetica,sans-Serif" font-size="10.00">JsonLogger</text>
</a>
</g>
</g>
<!-- Node9&#45;&gt;Node7 -->
<g id="edge8" class="edge"><title>Node9&#45;&gt;Node7</title>
<path fill="none" stroke="#9a32cd" stroke-dasharray="5,2" d="M638.151,-252.145C715.577,-254.198 876.181,-258.458 942.434,-260.216"/>
<polygon fill="#9a32cd" stroke="#9a32cd" points="637.886,-248.636 627.797,-251.87 637.7,-255.634 637.886,-248.636"/>
<text text-anchor="middle" x="784" y="-262" font-family="Helvetica,sans-Serif" font-size="10.00"> logger_</text>
</g>
<!-- Node9&#45;&gt;Node9 -->
<g id="edge10" class="edge"><title>Node9&#45;&gt;Node9</title>
<path fill="none" stroke="#9a32cd" stroke-dasharray="5,2" d="M559.517,-268.891C560.022,-274.541 571.517,-279 594,-279 626.703,-279 636.156,-269.565 622.36,-260.757"/>
<polygon fill="#9a32cd" stroke="#9a32cd" points="562.423,-270.851 565.64,-260.757 556.83,-266.642 562.423,-270.851"/>
<text text-anchor="middle" x="594" y="-282" font-family="Helvetica,sans-Serif" font-size="10.00"> super_</text>
</g>
<!-- Node10 -->
<g id="node10" class="node"><title>Node10</title>
<g id="a_node10"><a xlink:href="classthrill_1_1common_1_1JsonVerbatim.html" target="_top" xlink:title="A special class to output verbatim text. ">
<polygon fill="none" stroke="black" points="212.5,-241.5 212.5,-260.5 289.5,-260.5 289.5,-241.5 212.5,-241.5"/>
<text text-anchor="middle" x="251" y="-248.5" font-family="Helvetica,sans-Serif" font-size="10.00">JsonVerbatim</text>
</a>
</g>
</g>
<!-- Node10&#45;&gt;Node9 -->
<g id="edge9" class="edge"><title>Node10&#45;&gt;Node9</title>
<path fill="none" stroke="#9a32cd" stroke-dasharray="5,2" d="M300.15,-251C370.513,-251 499.614,-251 560.1,-251"/>
<polygon fill="#9a32cd" stroke="#9a32cd" points="299.796,-247.5 289.796,-251 299.796,-254.5 299.796,-247.5"/>
<text text-anchor="middle" x="410" y="-254" font-family="Helvetica,sans-Serif" font-size="10.00"> common_</text>
</g>
<!-- Node11 -->
<g id="node11" class="node"><title>Node11</title>
<g id="a_node11"><a xlink:href="classthrill_1_1mem_1_1Manager.html" target="_top" xlink:title="Object shared by allocators and other classes to track memory allocations. ">
<polygon fill="none" stroke="black" points="567,-174.5 567,-193.5 621,-193.5 621,-174.5 567,-174.5"/>
<text text-anchor="middle" x="594" y="-181.5" font-family="Helvetica,sans-Serif" font-size="10.00">Manager</text>
</a>
</g>
</g>
<!-- Node11&#45;&gt;Node7 -->
<g id="edge11" class="edge"><title>Node11&#45;&gt;Node7</title>
<path fill="none" stroke="#9a32cd" stroke-dasharray="5,2" d="M631.177,-190.818C684.437,-200.927 787.045,-220.672 874,-239 897.034,-243.855 923.028,-249.708 942.453,-254.155"/>
<polygon fill="#9a32cd" stroke="#9a32cd" points="631.68,-187.351 621.203,-188.928 630.376,-194.229 631.68,-187.351"/>
<text text-anchor="middle" x="784" y="-242" font-family="Helvetica,sans-Serif" font-size="10.00"> mem_manager_</text>
</g>
<!-- Node11&#45;&gt;Node11 -->
<g id="edge12" class="edge"><title>Node11&#45;&gt;Node11</title>
<path fill="none" stroke="#9a32cd" stroke-dasharray="5,2" d="M559.568,-200.716C558.501,-206.909 569.978,-212 594,-212 627.422,-212 636.561,-202.146 621.416,-193.177"/>
<polygon fill="#9a32cd" stroke="#9a32cd" points="562.333,-202.882 566.584,-193.177 557.209,-198.113 562.333,-202.882"/>
<text text-anchor="middle" x="594" y="-215" font-family="Helvetica,sans-Serif" font-size="10.00"> super_</text>
</g>
<!-- Node12 -->
<g id="node12" class="node"><title>Node12</title>
<g id="a_node12"><a xlink:href="classthrill_1_1data_1_1BlockReader.html" target="_top" xlink:title="BlockReader\&lt; CatBlockSource \&gt;">
<polygon fill="none" stroke="black" points="1184,-89.5 1184,-108.5 1346,-108.5 1346,-89.5 1184,-89.5"/>
<text text-anchor="middle" x="1265" y="-96.5" font-family="Helvetica,sans-Serif" font-size="10.00">BlockReader&lt; CatBlockSource &gt;</text>
</a>
</g>
</g>
<!-- Node12&#45;&gt;Node1 -->
<g id="edge13" class="edge"><title>Node12&#45;&gt;Node1</title>
<path fill="none" stroke="#9a32cd" stroke-dasharray="5,2" d="M1293.93,-113.208C1341.46,-137.387 1436.85,-185.909 1477.24,-206.457"/>
<polygon fill="#9a32cd" stroke="#9a32cd" points="1295.32,-109.989 1284.82,-108.575 1292.15,-116.228 1295.32,-109.989"/>
<text text-anchor="middle" x="1392" y="-178" font-family="Helvetica,sans-Serif" font-size="10.00"> cat_reader_</text>
</g>
<!-- Node13 -->
<g id="node13" class="node"><title>Node13</title>
<g id="a_node13"><a xlink:href="classthrill_1_1common_1_1ItemReaderToolsBase.html" target="_top" xlink:title="ItemReaderToolsBase\l\&lt; BlockReader\&lt; CatBlockSource \&gt; \&gt;">
<polygon fill="none" stroke="black" points="694,-131 694,-161 874,-161 874,-131 694,-131"/>
<text text-anchor="start" x="702" y="-149" font-family="Helvetica,sans-Serif" font-size="10.00">ItemReaderToolsBase</text>
<text text-anchor="middle" x="784" y="-138" font-family="Helvetica,sans-Serif" font-size="10.00">&lt; BlockReader&lt; CatBlockSource &gt; &gt;</text>
</a>
</g>
</g>
<!-- Node13&#45;&gt;Node12 -->
<g id="edge14" class="edge"><title>Node13&#45;&gt;Node12</title>
<path fill="none" stroke="midnightblue" d="M884.26,-139.523C961.258,-134.049 1070.58,-125.296 1166,-114 1178.99,-112.462 1192.9,-110.515 1206.05,-108.538"/>
<polygon fill="midnightblue" stroke="midnightblue" points="883.817,-136.045 874.089,-140.24 884.31,-143.028 883.817,-136.045"/>
</g>
<!-- Node14 -->
<g id="node14" class="node"><title>Node14</title>
<g id="a_node14"><a xlink:href="classthrill_1_1common_1_1ItemReaderToolsBase.html" target="_top" xlink:title="CRTP class to enhance item/memory reader classes with Varint decoding and String decoding. ">
<polygon fill="none" stroke="black" points="194,-112 194,-142 308,-142 308,-112 194,-112"/>
<text text-anchor="start" x="202" y="-130" font-family="Helvetica,sans-Serif" font-size="10.00">ItemReaderToolsBase</text>
<text text-anchor="middle" x="251" y="-119" font-family="Helvetica,sans-Serif" font-size="10.00">&lt; Reader &gt;</text>
</a>
</g>
</g>
<!-- Node14&#45;&gt;Node13 -->
<g id="edge15" class="edge"><title>Node14&#45;&gt;Node13</title>
<path fill="none" stroke="orange" stroke-dasharray="5,2" d="M318.106,-129.365C412.871,-132.756 587.578,-139.008 693.736,-142.806"/>
<polygon fill="orange" stroke="orange" points="318.192,-125.866 308.073,-129.006 317.941,-132.862 318.192,-125.866"/>
<text text-anchor="middle" x="410" y="-139" font-family="Helvetica,sans-Serif" font-size="10.00"> &lt; BlockReader&lt; CatBlockSource &gt; &gt;</text>
</g>
<!-- Node20 -->
<g id="node20" class="node"><title>Node20</title>
<g id="a_node20"><a xlink:href="classthrill_1_1common_1_1ItemReaderToolsBase.html" target="_top" xlink:title="ItemReaderToolsBase\l\&lt; BlockReader\&lt; BlockSource \&gt; \&gt;">
<polygon fill="none" stroke="black" points="512,-87 512,-117 676,-117 676,-87 512,-87"/>
<text text-anchor="start" x="520" y="-105" font-family="Helvetica,sans-Serif" font-size="10.00">ItemReaderToolsBase</text>
<text text-anchor="middle" x="594" y="-94" font-family="Helvetica,sans-Serif" font-size="10.00">&lt; BlockReader&lt; BlockSource &gt; &gt;</text>
</a>
</g>
</g>
<!-- Node14&#45;&gt;Node20 -->
<g id="edge22" class="edge"><title>Node14&#45;&gt;Node20</title>
<path fill="none" stroke="orange" stroke-dasharray="5,2" d="M317.936,-114.023C320.655,-113.647 323.351,-113.303 326,-113 388.109,-105.884 458.809,-103.211 511.849,-102.276"/>
<polygon fill="orange" stroke="orange" points="317.4,-110.565 308.031,-115.511 318.44,-117.487 317.4,-110.565"/>
<text text-anchor="middle" x="410" y="-116" font-family="Helvetica,sans-Serif" font-size="10.00"> &lt; BlockReader&lt; BlockSource &gt; &gt;</text>
</g>
<!-- Node15 -->
<g id="node15" class="node"><title>Node15</title>
<g id="a_node15"><a xlink:href="classthrill_1_1data_1_1PinnedBlock.html" target="_top" xlink:title="A pinned / pin&#45;counted derivative of a Block. ">
<polygon fill="none" stroke="black" points="558.5,-47.5 558.5,-66.5 629.5,-66.5 629.5,-47.5 558.5,-47.5"/>
<text text-anchor="middle" x="594" y="-54.5" font-family="Helvetica,sans-Serif" font-size="10.00">PinnedBlock</text>
</a>
</g>
</g>
<!-- Node15&#45;&gt;Node12 -->
<g id="edge16" class="edge"><title>Node15&#45;&gt;Node12</title>
<path fill="none" stroke="#9a32cd" stroke-dasharray="5,2" d="M639.864,-56.4534C722.125,-55.8333 902.565,-56.2468 1054,-69 1107.21,-73.4814 1167.52,-82.5107 1209.81,-89.4982"/>
<polygon fill="#9a32cd" stroke="#9a32cd" points="639.593,-52.9554 629.623,-56.5399 639.652,-59.9552 639.593,-52.9554"/>
<text text-anchor="middle" x="973" y="-72" font-family="Helvetica,sans-Serif" font-size="10.00"> block_</text>
</g>
<!-- Node19 -->
<g id="node19" class="node"><title>Node19</title>
<g id="a_node19"><a xlink:href="classthrill_1_1data_1_1BlockReader.html" target="_top" xlink:title="BlockReader takes Block objects from BlockSource and allows reading of a) serializable Items or b) ar...">
<polygon fill="none" stroke="black" points="900,-89.5 900,-108.5 1046,-108.5 1046,-89.5 900,-89.5"/>
<text text-anchor="middle" x="973" y="-96.5" font-family="Helvetica,sans-Serif" font-size="10.00">BlockReader&lt; BlockSource &gt;</text>
</a>
</g>
</g>
<!-- Node15&#45;&gt;Node19 -->
<g id="edge23" class="edge"><title>Node15&#45;&gt;Node19</title>
<path fill="none" stroke="#9a32cd" stroke-dasharray="5,2" d="M639.931,-61.9766C695.069,-68.0875 791.414,-78.777 874,-88 882.337,-88.9311 891.073,-89.9088 899.75,-90.881"/>
<polygon fill="#9a32cd" stroke="#9a32cd" points="640.123,-58.4766 629.798,-60.8538 639.352,-65.434 640.123,-58.4766"/>
<text text-anchor="middle" x="784" y="-91" font-family="Helvetica,sans-Serif" font-size="10.00"> block_</text>
</g>
<!-- Node16 -->
<g id="node16" class="node"><title>Node16</title>
<g id="a_node16"><a xlink:href="classthrill_1_1data_1_1Block.html" target="_top" xlink:title="Block combines a reference to a read&#45;only ByteBlock and book&#45;keeping information. ...">
<polygon fill="none" stroke="black" points="230.5,-47.5 230.5,-66.5 271.5,-66.5 271.5,-47.5 230.5,-47.5"/>
<text text-anchor="middle" x="251" y="-54.5" font-family="Helvetica,sans-Serif" font-size="10.00">Block</text>
</a>
</g>
</g>
<!-- Node16&#45;&gt;Node15 -->
<g id="edge17" class="edge"><title>Node16&#45;&gt;Node15</title>
<path fill="none" stroke="#8b1a1a" d="M281.883,-57C344.941,-57 491.298,-57 558.337,-57"/>
<polygon fill="#8b1a1a" stroke="#8b1a1a" points="281.808,-53.5001 271.808,-57 281.807,-60.5001 281.808,-53.5001"/>
</g>
<!-- Node17 -->
<g id="node17" class="node"><title>Node17</title>
<g id="a_node17"><a xlink:href="classtlx_1_1CountingPtr.html" target="_top" xlink:title="High&#45;performance smart pointer used as a wrapping reference counting pointer. ">
<polygon fill="none" stroke="black" points="0,-42 0,-72 102,-72 102,-42 0,-42"/>
<text text-anchor="start" x="8" y="-60" font-family="Helvetica,sans-Serif" font-size="10.00">CountingPtr&lt; Type,</text>
<text text-anchor="middle" x="51" y="-49" font-family="Helvetica,sans-Serif" font-size="10.00"> Deleter &gt;</text>
</a>
</g>
</g>
<!-- Node17&#45;&gt;Node16 -->
<g id="edge18" class="edge"><title>Node17&#45;&gt;Node16</title>
<path fill="none" stroke="#9a32cd" stroke-dasharray="5,2" d="M112.454,-57C152.602,-57 202.771,-57 230.059,-57"/>
<polygon fill="#9a32cd" stroke="#9a32cd" points="112.22,-53.5001 102.22,-57 112.22,-60.5001 112.22,-53.5001"/>
<text text-anchor="middle" x="148" y="-60" font-family="Helvetica,sans-Serif" font-size="10.00"> byte_block_</text>
</g>
<!-- Node18 -->
<g id="node18" class="node"><title>Node18</title>
<g id="a_node18"><a xlink:href="classthrill_1_1data_1_1CatBlockSource.html" target="_top" xlink:title="CatBlockSource is a BlockSource which concatenates all Blocks available from a vector of BlockSources...">
<polygon fill="none" stroke="black" points="892.5,-0.5 892.5,-19.5 1053.5,-19.5 1053.5,-0.5 892.5,-0.5"/>
<text text-anchor="middle" x="973" y="-7.5" font-family="Helvetica,sans-Serif" font-size="10.00">CatBlockSource&lt; BlockSource &gt;</text>
</a>
</g>
</g>
<!-- Node18&#45;&gt;Node12 -->
<g id="edge19" class="edge"><title>Node18&#45;&gt;Node12</title>
<path fill="none" stroke="#9a32cd" stroke-dasharray="5,2" d="M1063.67,-10.6211C1096.68,-13.21 1133.84,-18.9748 1166,-31 1201.88,-44.416 1237.08,-73.9535 1253.85,-89.3056"/>
<polygon fill="#9a32cd" stroke="#9a32cd" points="1063.79,-7.12107 1053.57,-9.91627 1063.31,-14.1041 1063.79,-7.12107"/>
<text text-anchor="middle" x="1119" y="-34" font-family="Helvetica,sans-Serif" font-size="10.00"> source_</text>
</g>
<!-- Node19&#45;&gt;Node12 -->
<g id="edge20" class="edge"><title>Node19&#45;&gt;Node12</title>
<path fill="none" stroke="orange" stroke-dasharray="5,2" d="M1056.06,-99C1096.1,-99 1144.1,-99 1183.88,-99"/>
<polygon fill="orange" stroke="orange" points="1056.06,-95.5001 1046.06,-99 1056.06,-102.5 1056.06,-95.5001"/>
<text text-anchor="middle" x="1119" y="-102" font-family="Helvetica,sans-Serif" font-size="10.00"> &lt; CatBlockSource &gt;</text>
</g>
<!-- Node20&#45;&gt;Node19 -->
<g id="edge21" class="edge"><title>Node20&#45;&gt;Node19</title>
<path fill="none" stroke="midnightblue" d="M686.513,-102.059C740.973,-101.998 811.435,-101.75 874,-101 882.338,-100.9 891.074,-100.765 899.751,-100.612"/>
<polygon fill="midnightblue" stroke="midnightblue" points="686.186,-98.5597 676.189,-102.069 686.193,-105.56 686.186,-98.5597"/>
</g>
</g>
</svg>
