<?xml version="1.0" encoding="UTF-8" standalone="no"?>
<!DOCTYPE svg PUBLIC "-//W3C//DTD SVG 1.1//EN"
 "http://www.w3.org/Graphics/SVG/1.1/DTD/svg11.dtd">
<!-- Generated by graphviz version 2.26.3 (20100126.1600)
 -->
<!-- Title: GroupToIndexNode&lt; ValueType, KeyExtractor, GroupFunction &gt; Pages: 1 -->
<svg width="2154pt" height="720pt"
 viewBox="0.00 0.00 2154.00 720.00" xmlns="http://www.w3.org/2000/svg" xmlns:xlink="http://www.w3.org/1999/xlink">
<g id="graph1" class="graph" transform="scale(1 1) rotate(0) translate(4 716)">
<title>GroupToIndexNode&lt; ValueType, KeyExtractor, GroupFunction &gt;</title>
<!-- Node1 -->
<g id="node1" class="node"><title>Node1</title>
<polygon fill="#bfbfbf" stroke="black" points="1986,-57 1986,-91 2146,-91 2146,-57 1986,-57"/>
<text text-anchor="start" x="1994" y="-78" font-family="Helvetica,sans-Serif" font-size="10.00">GroupToIndexNode&lt; ValueType,</text>
<text text-anchor="middle" x="2066" y="-65" font-family="Helvetica,sans-Serif" font-size="10.00"> KeyExtractor, GroupFunction &gt;</text>
</g>
<!-- Node2 -->
<g id="node2" class="node"><title>Node2</title>
<a xlink:href="classthrill_1_1api_1_1DOpNode.html" target="_top" xlink:title="A DOpNode is a typed node representing and distributed operations in Thrill.">
<polygon fill="none" stroke="black" points="1766.5,-106.5 1766.5,-127.5 1891.5,-127.5 1891.5,-106.5 1766.5,-106.5"/>
<text text-anchor="middle" x="1829" y="-114.5" font-family="Helvetica,sans-Serif" font-size="10.00">DOpNode&lt; ValueType &gt;</text>
</a>
</g>
<!-- Node2&#45;&gt;Node1 -->
<g id="edge2" class="edge"><title>Node2&#45;&gt;Node1</title>
<path fill="none" stroke="midnightblue" d="M1896.97,-104.668C1924.69,-99.6388 1956.95,-93.7861 1985.81,-88.5496"/>
<polygon fill="midnightblue" stroke="midnightblue" points="1896.19,-101.252 1886.98,-106.481 1897.44,-108.14 1896.19,-101.252"/>
</g>
<!-- Node3 -->
<g id="node4" class="node"><title>Node3</title>
<a xlink:href="classthrill_1_1api_1_1DIANode.html" target="_top" xlink:title="A DIANode is a typed node representing and operation in Thrill.">
<polygon fill="none" stroke="black" points="1534,-108.5 1534,-129.5 1656,-129.5 1656,-108.5 1534,-108.5"/>
<text text-anchor="middle" x="1595" y="-116.5" font-family="Helvetica,sans-Serif" font-size="10.00">DIANode&lt; ValueType &gt;</text>
</a>
</g>
<!-- Node3&#45;&gt;Node2 -->
<g id="edge4" class="edge"><title>Node3&#45;&gt;Node2</title>
<path fill="none" stroke="midnightblue" d="M1666.31,-118.391C1698.16,-118.118 1735.36,-117.8 1766.14,-117.537"/>
<polygon fill="midnightblue" stroke="midnightblue" points="1666.14,-114.892 1656.18,-118.477 1666.2,-121.891 1666.14,-114.892"/>
</g>
<!-- Node4 -->
<g id="node6" class="node"><title>Node4</title>
<a xlink:href="classthrill_1_1api_1_1DIABase.html" target="_top" xlink:title="The DIABase is the untyped super class of DIANode.">
<polygon fill="none" stroke="black" points="1440,-108.5 1440,-129.5 1496,-129.5 1496,-108.5 1440,-108.5"/>
<text text-anchor="middle" x="1468" y="-116.5" font-family="Helvetica,sans-Serif" font-size="10.00">DIABase</text>
</a>
</g>
<!-- Node4&#45;&gt;Node3 -->
<g id="edge6" class="edge"><title>Node4&#45;&gt;Node3</title>
<path fill="none" stroke="midnightblue" d="M1506.36,-119C1515.06,-119 1524.5,-119 1533.87,-119"/>
<polygon fill="midnightblue" stroke="midnightblue" points="1506.19,-115.5 1496.19,-119 1506.19,-122.5 1506.19,-115.5"/>
</g>
<!-- Node5 -->
<g id="node8" class="node"><title>Node5</title>
<a xlink:href="classthrill_1_1common_1_1ReferenceCount.html" target="_top" xlink:title="Provides reference counting abilities for use with CountingPtr.">
<polygon fill="none" stroke="black" points="1262,-252.5 1262,-273.5 1350,-273.5 1350,-252.5 1262,-252.5"/>
<text text-anchor="middle" x="1306" y="-260.5" font-family="Helvetica,sans-Serif" font-size="10.00">ReferenceCount</text>
</a>
</g>
<!-- Node5&#45;&gt;Node4 -->
<g id="edge8" class="edge"><title>Node5&#45;&gt;Node4</title>
<path fill="none" stroke="midnightblue" d="M1343.69,-248.242C1368.36,-237.097 1399.98,-219.816 1422,-197 1441.87,-176.41 1456.74,-145.673 1463.67,-129.623"/>
<polygon fill="midnightblue" stroke="midnightblue" points="1342.04,-245.145 1334.28,-252.355 1344.84,-251.56 1342.04,-245.145"/>
</g>
<!-- Node6 -->
<g id="node10" class="node"><title>Node6</title>
<a xlink:href="classthrill_1_1api_1_1Context.html" target="_top" xlink:title="The Context of a job is a unique instance per worker which holds references to all underlying parts o...">
<polygon fill="none" stroke="black" points="1280.5,-212.5 1280.5,-233.5 1331.5,-233.5 1331.5,-212.5 1280.5,-212.5"/>
<text text-anchor="middle" x="1306" y="-220.5" font-family="Helvetica,sans-Serif" font-size="10.00">Context</text>
</a>
</g>
<!-- Node6&#45;&gt;Node4 -->
<g id="edge10" class="edge"><title>Node6&#45;&gt;Node4</title>
<path fill="none" stroke="#9a32cd" stroke-dasharray="5,2" d="M1331.18,-206.835C1364.72,-185.303 1423.12,-147.812 1451.53,-129.572"/>
<polygon fill="#9a32cd" stroke="#9a32cd" points="1328.95,-204.108 1322.42,-212.456 1332.73,-209.999 1328.95,-204.108"/>
<text text-anchor="middle" x="1395" y="-184" font-family="Helvetica,sans-Serif" font-size="10.00"> context_</text>
</g>
<!-- Node7 -->
<g id="node12" class="node"><title>Node7</title>
<a xlink:href="exceptionthrill_1_1net_1_1Manager.html" target="_top" xlink:title="Initializes communication channels, manages communication channels and handles errors.">
<polygon fill="none" stroke="black" points="494,-202.5 494,-223.5 548,-223.5 548,-202.5 494,-202.5"/>
<text text-anchor="middle" x="521" y="-210.5" font-family="Helvetica,sans-Serif" font-size="10.00">Manager</text>
</a>
</g>
<!-- Node7&#45;&gt;Node6 -->
<g id="edge76" class="edge"><title>Node7&#45;&gt;Node6</title>
<path fill="none" stroke="#9a32cd" stroke-dasharray="5,2" d="M558.204,-209.632C573.604,-208.335 591.652,-206.941 608,-206 890.228,-189.755 962.777,-186.19 1244,-215 1255.98,-216.228 1269.23,-217.895 1280.39,-219.389"/>
<polygon fill="#9a32cd" stroke="#9a32cd" points="557.682,-206.163 548.018,-210.507 558.281,-213.138 557.682,-206.163"/>
<text text-anchor="middle" x="945" y="-199" font-family="Helvetica,sans-Serif" font-size="10.00"> mem_manager_</text>
</g>
<!-- Node7&#45;&gt;Node6 -->
<g id="edge12" class="edge"><title>Node7&#45;&gt;Node6</title>
<path fill="none" stroke="#9a32cd" stroke-dasharray="5,2" d="M558.226,-211.956C573.63,-211.573 591.675,-211.188 608,-211 664.885,-210.346 679.114,-210.401 736,-211 946.321,-213.214 1200.22,-220.021 1280.44,-222.27"/>
<polygon fill="#9a32cd" stroke="#9a32cd" points="557.944,-208.462 548.037,-212.218 558.124,-215.46 557.944,-208.462"/>
<text text-anchor="middle" x="945" y="-219" font-family="Helvetica,sans-Serif" font-size="10.00"> net_manager_</text>
</g>
<!-- Node22 -->
<g id="node46" class="node"><title>Node22</title>
<a xlink:href="classthrill_1_1data_1_1Multiplexer.html" target="_top" xlink:title="Multiplexes virtual Connections on Dispatcher.">
<polygon fill="none" stroke="black" points="1052,-290.5 1052,-311.5 1116,-311.5 1116,-290.5 1052,-290.5"/>
<text text-anchor="middle" x="1084" y="-298.5" font-family="Helvetica,sans-Serif" font-size="10.00">Multiplexer</text>
</a>
</g>
<!-- Node7&#45;&gt;Node22 -->
<g id="edge70" class="edge"><title>Node7&#45;&gt;Node22</title>
<path fill="none" stroke="#9a32cd" stroke-dasharray="5,2" d="M558.367,-213.459C623.758,-214.856 762.938,-220.474 878,-243 940.897,-255.313 1012.56,-277.367 1052.62,-290.444"/>
<polygon fill="#9a32cd" stroke="#9a32cd" points="558.214,-209.956 548.149,-213.263 558.08,-216.954 558.214,-209.956"/>
<text text-anchor="middle" x="816" y="-247" font-family="Helvetica,sans-Serif" font-size="10.00"> mem_manager_</text>
</g>
<!-- Node23 -->
<g id="node48" class="node"><title>Node23</title>
<a xlink:href="classthrill_1_1net_1_1DispatcherThread.html" target="_top" xlink:title="DispatcherThread contains a net::Dispatcher object and an associated thread that runs in the dispatch...">
<polygon fill="none" stroke="black" points="769,-317.5 769,-338.5 863,-338.5 863,-317.5 769,-317.5"/>
<text text-anchor="middle" x="816" y="-325.5" font-family="Helvetica,sans-Serif" font-size="10.00">DispatcherThread</text>
</a>
</g>
<!-- Node7&#45;&gt;Node23 -->
<g id="edge58" class="edge"><title>Node7&#45;&gt;Node23</title>
<path fill="none" stroke="#9a32cd" stroke-dasharray="5,2" d="M549.62,-228.557C562.139,-235.521 576.923,-243.96 590,-252 598.191,-257.036 599.314,-259.876 608,-264 660.732,-289.035 725.575,-307.163 768.704,-317.602"/>
<polygon fill="#9a32cd" stroke="#9a32cd" points="551,-225.321 540.554,-223.551 547.616,-231.449 551,-225.321"/>
<text text-anchor="middle" x="672" y="-312" font-family="Helvetica,sans-Serif" font-size="10.00"> mem_manager_</text>
</g>
<!-- Node26 -->
<g id="node56" class="node"><title>Node26</title>
<a xlink:href="classthrill_1_1data_1_1BlockPool.html" target="_top" xlink:title="Pool to allocate, keep, swap out/in, and free all ByteBlocks on the host.">
<polygon fill="none" stroke="black" points="785.5,-265.5 785.5,-286.5 846.5,-286.5 846.5,-265.5 785.5,-265.5"/>
<text text-anchor="middle" x="816" y="-273.5" font-family="Helvetica,sans-Serif" font-size="10.00">BlockPool</text>
</a>
</g>
<!-- Node7&#45;&gt;Node26 -->
<g id="edge68" class="edge"><title>Node7&#45;&gt;Node26</title>
<path fill="none" stroke="#9a32cd" stroke-dasharray="5,2" d="M558.215,-218.011C610.539,-225.205 703.134,-238.527 736,-247 754.74,-251.831 775.25,-259.312 790.81,-265.465"/>
<polygon fill="#9a32cd" stroke="#9a32cd" points="558.389,-214.502 548.007,-216.614 557.44,-221.437 558.389,-214.502"/>
<text text-anchor="middle" x="672" y="-251" font-family="Helvetica,sans-Serif" font-size="10.00"> mem_manager_</text>
</g>
<!-- Node8 -->
<g id="node14" class="node"><title>Node8</title>
<a xlink:href="classthrill_1_1common_1_1ProfileTask.html" target="_top" xlink:title="ProfileTask">
<polygon fill="none" stroke="black" points="194,-307.5 194,-328.5 260,-328.5 260,-307.5 194,-307.5"/>
<text text-anchor="middle" x="227" y="-315.5" font-family="Helvetica,sans-Serif" font-size="10.00">ProfileTask</text>
</a>
</g>
<!-- Node8&#45;&gt;Node7 -->
<g id="edge14" class="edge"><title>Node8&#45;&gt;Node7</title>
<path fill="none" stroke="midnightblue" d="M266.11,-304.032C326.576,-282.437 441.234,-241.488 493.634,-222.774"/>
<polygon fill="midnightblue" stroke="midnightblue" points="264.776,-300.792 256.536,-307.451 267.131,-307.384 264.776,-300.792"/>
</g>
<!-- Node8&#45;&gt;Node26 -->
<g id="edge64" class="edge"><title>Node8&#45;&gt;Node26</title>
<path fill="none" stroke="midnightblue" d="M270.162,-321.698C376.757,-330.281 650.049,-348.792 736,-321 745.39,-317.964 745.592,-313.166 754,-308 766.694,-300.2 781.503,-292.508 793.463,-286.621"/>
<polygon fill="midnightblue" stroke="midnightblue" points="270.332,-318.2 260.081,-320.876 269.763,-325.177 270.332,-318.2"/>
</g>
<!-- Node9 -->
<g id="node16" class="node"><title>Node9</title>
<a xlink:href="classthrill_1_1common_1_1JsonLogger.html" target="_top" xlink:title="JsonLogger is a receiver of JSON output objects for logging.">
<polygon fill="none" stroke="black" points="193.5,-115.5 193.5,-136.5 260.5,-136.5 260.5,-115.5 193.5,-115.5"/>
<text text-anchor="middle" x="227" y="-123.5" font-family="Helvetica,sans-Serif" font-size="10.00">JsonLogger</text>
</a>
</g>
<!-- Node9&#45;&gt;Node4 -->
<g id="edge78" class="edge"><title>Node9&#45;&gt;Node4</title>
<path fill="none" stroke="#9a32cd" stroke-dasharray="5,2" d="M260.215,-111.532C313.941,-89.4821 423.724,-50 521,-50 521,-50 521,-50 1306,-50 1364.69,-50 1426.47,-88.8125 1453.69,-108.219"/>
<polygon fill="#9a32cd" stroke="#9a32cd" points="258.736,-108.356 250.851,-115.433 261.428,-114.818 258.736,-108.356"/>
<text text-anchor="middle" x="945" y="-54" font-family="Helvetica,sans-Serif" font-size="10.00"> logger_</text>
</g>
<!-- Node9&#45;&gt;Node6 -->
<g id="edge48" class="edge"><title>Node9&#45;&gt;Node6</title>
<path fill="none" stroke="#9a32cd" stroke-dasharray="5,2" d="M270.998,-118.69C328.359,-109.81 431.886,-96 521,-96 521,-96 521,-96 1084,-96 1177.25,-96 1266.9,-181.46 1296.1,-212.172"/>
<polygon fill="#9a32cd" stroke="#9a32cd" points="270.174,-115.277 260.839,-120.287 271.261,-122.192 270.174,-115.277"/>
<text text-anchor="middle" x="816" y="-113" font-family="Helvetica,sans-Serif" font-size="10.00"> logger_</text>
<text text-anchor="middle" x="816" y="-100" font-family="Helvetica,sans-Serif" font-size="10.00">base_logger_</text>
</g>
<!-- Node9&#45;&gt;Node7 -->
<g id="edge16" class="edge"><title>Node9&#45;&gt;Node7</title>
<path fill="none" stroke="#9a32cd" stroke-dasharray="5,2" d="M270.525,-138.88C332.044,-157.085 442.619,-189.806 493.729,-204.93"/>
<polygon fill="#9a32cd" stroke="#9a32cd" points="271.308,-135.461 260.726,-135.98 269.321,-142.174 271.308,-135.461"/>
<text text-anchor="middle" x="373" y="-188" font-family="Helvetica,sans-Serif" font-size="10.00"> logger_</text>
</g>
<!-- Node9&#45;&gt;Node9 -->
<g id="edge20" class="edge"><title>Node9&#45;&gt;Node9</title>
<path fill="none" stroke="#9a32cd" stroke-dasharray="5,2" d="M207.097,-146.427C208.632,-151.349 215.267,-155 227,-155 245.773,-155 251.493,-145.653 244.16,-136.708"/>
<polygon fill="#9a32cd" stroke="#9a32cd" points="210.492,-147.283 209.84,-136.708 203.755,-145.381 210.492,-147.283"/>
<text text-anchor="middle" x="227" y="-159" font-family="Helvetica,sans-Serif" font-size="10.00"> super_</text>
</g>
<!-- Node9&#45;&gt;Node26 -->
<g id="edge66" class="edge"><title>Node9&#45;&gt;Node26</title>
<path fill="none" stroke="#9a32cd" stroke-dasharray="5,2" d="M242.631,-144.279C258.397,-161.528 284.309,-186.8 312,-201 474.747,-284.459 703.351,-282.03 785.287,-278.007"/>
<polygon fill="#9a32cd" stroke="#9a32cd" points="245.005,-141.683 235.742,-136.54 239.776,-146.336 245.005,-141.683"/>
<text text-anchor="middle" x="521" y="-276" font-family="Helvetica,sans-Serif" font-size="10.00"> logger_</text>
</g>
<!-- Node10 -->
<g id="node18" class="node"><title>Node10</title>
<a xlink:href="classthrill_1_1common_1_1JsonVerbatim.html" target="_top" xlink:title="A special class to output verbatim text.">
<polygon fill="none" stroke="black" points="0.5,-115.5 0.5,-136.5 77.5,-136.5 77.5,-115.5 0.5,-115.5"/>
<text text-anchor="middle" x="39" y="-123.5" font-family="Helvetica,sans-Serif" font-size="10.00">JsonVerbatim</text>
</a>
</g>
<!-- Node10&#45;&gt;Node9 -->
<g id="edge18" class="edge"><title>Node10&#45;&gt;Node9</title>
<path fill="none" stroke="#9a32cd" stroke-dasharray="5,2" d="M88.3395,-126C121.461,-126 164.221,-126 193.445,-126"/>
<polygon fill="#9a32cd" stroke="#9a32cd" points="87.9538,-122.5 77.9537,-126 87.9537,-129.5 87.9538,-122.5"/>
<text text-anchor="middle" x="119" y="-130" font-family="Helvetica,sans-Serif" font-size="10.00"> common_</text>
</g>
<!-- Node11 -->
<g id="node21" class="node"><title>Node11</title>
<a xlink:href="classthrill_1_1net_1_1FlowControlChannel.html" target="_top" xlink:title="Provides a blocking collection for communication.">
<polygon fill="none" stroke="black" points="1031.5,-425.5 1031.5,-446.5 1136.5,-446.5 1136.5,-425.5 1031.5,-425.5"/>
<text text-anchor="middle" x="1084" y="-433.5" font-family="Helvetica,sans-Serif" font-size="10.00">FlowControlChannel</text>
</a>
</g>
<!-- Node11&#45;&gt;Node6 -->
<g id="edge22" class="edge"><title>Node11&#45;&gt;Node6</title>
<path fill="none" stroke="#9a32cd" stroke-dasharray="5,2" d="M1143.49,-422.604C1178.21,-411.639 1219.83,-392.467 1244,-360 1275.42,-317.8 1230.23,-284.934 1262,-243 1266.56,-236.981 1273.35,-232.722 1280.24,-229.73"/>
<polygon fill="#9a32cd" stroke="#9a32cd" points="1142.46,-419.256 1133.89,-425.484 1144.48,-425.961 1142.46,-419.256"/>
<text text-anchor="middle" x="1209" y="-414" font-family="Helvetica,sans-Serif" font-size="10.00"> net</text>
</g>
<!-- Node12 -->
<g id="node23" class="node"><title>Node12</title>
<a xlink:href="classthrill_1_1net_1_1FlowControlChannel_1_1LocalData.html" target="_top" xlink:title="LocalData">
<polygon fill="none" stroke="black" points="785.5,-678.5 785.5,-699.5 846.5,-699.5 846.5,-678.5 785.5,-678.5"/>
<text text-anchor="middle" x="816" y="-686.5" font-family="Helvetica,sans-Serif" font-size="10.00">LocalData</text>
</a>
</g>
<!-- Node12&#45;&gt;Node11 -->
<g id="edge24" class="edge"><title>Node12&#45;&gt;Node11</title>
<path fill="none" stroke="#9a32cd" stroke-dasharray="5,2" d="M856.73,-697.046C897.54,-702.502 959.158,-703.187 994,-667 1026.64,-633.1 981.955,-492.22 1012,-456 1017.14,-449.809 1024.01,-445.444 1031.47,-442.383"/>
<polygon fill="#9a32cd" stroke="#9a32cd" points="857.238,-693.583 846.832,-695.576 856.209,-700.507 857.238,-693.583"/>
<text text-anchor="middle" x="945" y="-703" font-family="Helvetica,sans-Serif" font-size="10.00"> shmem_</text>
</g>
<!-- Node13 -->
<g id="node25" class="node"><title>Node13</title>
<a xlink:href="classthrill_1_1net_1_1Group.html" target="_top" xlink:title="A network Group is a collection of enumerated communication links, which provides point&#45;to&#45;point comm...">
<polygon fill="none" stroke="black" points="794.5,-362.5 794.5,-383.5 837.5,-383.5 837.5,-362.5 794.5,-362.5"/>
<text text-anchor="middle" x="816" y="-370.5" font-family="Helvetica,sans-Serif" font-size="10.00">Group</text>
</a>
</g>
<!-- Node13&#45;&gt;Node11 -->
<g id="edge26" class="edge"><title>Node13&#45;&gt;Node11</title>
<path fill="none" stroke="#9a32cd" stroke-dasharray="5,2" d="M847.901,-377.55C883.748,-382.978 943.53,-392.977 994,-406 1014.89,-411.391 1037.97,-419.12 1055.52,-425.383"/>
<polygon fill="#9a32cd" stroke="#9a32cd" points="847.988,-374.024 837.582,-376.014 846.957,-380.948 847.988,-374.024"/>
<text text-anchor="middle" x="945" y="-410" font-family="Helvetica,sans-Serif" font-size="10.00"> group_</text>
</g>
<!-- Node13&#45;&gt;Node22 -->
<g id="edge60" class="edge"><title>Node13&#45;&gt;Node22</title>
<path fill="none" stroke="#9a32cd" stroke-dasharray="5,2" d="M847.762,-371.059C884.569,-367.778 946.271,-359.047 994,-336 1003.38,-331.472 1002.78,-325.835 1012,-321 1024.29,-314.555 1038.89,-310.004 1051.71,-306.889"/>
<polygon fill="#9a32cd" stroke="#9a32cd" points="847.312,-367.584 837.627,-371.879 847.877,-374.561 847.312,-367.584"/>
<text text-anchor="middle" x="945" y="-368" font-family="Helvetica,sans-Serif" font-size="10.00"> group_</text>
</g>
<!-- Node14 -->
<g id="node27" class="node"><title>Node14</title>
<a xlink:href="classthrill_1_1common_1_1AtomicMovable.html" target="_top" xlink:title="AtomicMovable\&lt; size_t \&gt;">
<polygon fill="none" stroke="black" points="608,-469.5 608,-490.5 736,-490.5 736,-469.5 608,-469.5"/>
<text text-anchor="middle" x="672" y="-477.5" font-family="Helvetica,sans-Serif" font-size="10.00">AtomicMovable&lt; size_t &gt;</text>
</a>
</g>
<!-- Node14&#45;&gt;Node11 -->
<g id="edge28" class="edge"><title>Node14&#45;&gt;Node11</title>
<path fill="none" stroke="#9a32cd" stroke-dasharray="5,2" d="M746.352,-472.265C811.623,-465.448 909.122,-455.196 994,-446 1006.03,-444.696 1018.97,-443.272 1031.18,-441.918"/>
<polygon fill="#9a32cd" stroke="#9a32cd" points="745.742,-468.81 736.159,-473.33 746.469,-475.772 745.742,-468.81"/>
<text text-anchor="middle" x="816" y="-539" font-family="Helvetica,sans-Serif" font-size="10.00"> count_allreduce_</text>
<text text-anchor="middle" x="816" y="-526" font-family="Helvetica,sans-Serif" font-size="10.00">count_broadcast_</text>
<text text-anchor="middle" x="816" y="-513" font-family="Helvetica,sans-Serif" font-size="10.00">count_reduce_</text>
<text text-anchor="middle" x="816" y="-500" font-family="Helvetica,sans-Serif" font-size="10.00">count_prefixsum_</text>
<text text-anchor="middle" x="816" y="-487" font-family="Helvetica,sans-Serif" font-size="10.00">count_barrier_</text>
<text text-anchor="middle" x="816" y="-474" font-family="Helvetica,sans-Serif" font-size="10.00">count_predecessor_</text>
</g>
<!-- Node15 -->
<g id="node29" class="node"><title>Node15</title>
<a xlink:href="classthrill_1_1common_1_1AtomicMovable.html" target="_top" xlink:title="This is a derivative of std::atomic which enables easier and less error&#45;prone writing of move&#45;only cl...">
<polygon fill="none" stroke="black" points="173,-459.5 173,-480.5 281,-480.5 281,-459.5 173,-459.5"/>
<text text-anchor="middle" x="227" y="-467.5" font-family="Helvetica,sans-Serif" font-size="10.00">AtomicMovable&lt; T &gt;</text>
</a>
</g>
<!-- Node15&#45;&gt;Node14 -->
<g id="edge30" class="edge"><title>Node15&#45;&gt;Node14</title>
<path fill="none" stroke="orange" stroke-dasharray="5,2" d="M291.359,-471.446C375.882,-473.346 523.425,-476.661 607.846,-478.558"/>
<polygon fill="orange" stroke="orange" points="291.197,-467.942 281.121,-471.216 291.04,-474.94 291.197,-467.942"/>
<text text-anchor="middle" x="373" y="-478" font-family="Helvetica,sans-Serif" font-size="10.00"> &lt; size_t &gt;</text>
</g>
<!-- Node17 -->
<g id="node33" class="node"><title>Node17</title>
<a xlink:href="classthrill_1_1common_1_1AtomicMovable.html" target="_top" xlink:title="AtomicMovable\&lt; uint64_t \&gt;">
<polygon fill="none" stroke="black" points="452.5,-438.5 452.5,-459.5 589.5,-459.5 589.5,-438.5 452.5,-438.5"/>
<text text-anchor="middle" x="521" y="-446.5" font-family="Helvetica,sans-Serif" font-size="10.00">AtomicMovable&lt; uint64_t &gt;</text>
</a>
</g>
<!-- Node15&#45;&gt;Node17 -->
<g id="edge36" class="edge"><title>Node15&#45;&gt;Node17</title>
<path fill="none" stroke="orange" stroke-dasharray="5,2" d="M281.646,-457.581C291.693,-455.723 302.126,-454.073 312,-453 358.542,-447.941 411.248,-446.965 452.088,-447.242"/>
<polygon fill="orange" stroke="orange" points="280.916,-454.157 271.763,-459.494 282.246,-461.03 280.916,-454.157"/>
<text text-anchor="middle" x="373" y="-457" font-family="Helvetica,sans-Serif" font-size="10.00"> &lt; uint64_t &gt;</text>
</g>
<!-- Node16 -->
<g id="node31" class="node"><title>Node16</title>
<a xlink:href="classthrill_1_1common_1_1ThreadBarrierSpinning.html" target="_top" xlink:title="Implements a cyclic barrier using atomics and a spin lock that can be used to synchronize threads...">
<polygon fill="none" stroke="black" points="759.5,-406.5 759.5,-427.5 872.5,-427.5 872.5,-406.5 759.5,-406.5"/>
<text text-anchor="middle" x="816" y="-414.5" font-family="Helvetica,sans-Serif" font-size="10.00">ThreadBarrierSpinning</text>
</a>
</g>
<!-- Node16&#45;&gt;Node11 -->
<g id="edge32" class="edge"><title>Node16&#45;&gt;Node11</title>
<path fill="none" stroke="#9a32cd" stroke-dasharray="5,2" d="M882.66,-421.726C928.54,-424.979 988.651,-429.24 1031.21,-432.258"/>
<polygon fill="#9a32cd" stroke="#9a32cd" points="882.731,-418.222 872.508,-421.006 882.236,-425.205 882.731,-418.222"/>
<text text-anchor="middle" x="945" y="-433" font-family="Helvetica,sans-Serif" font-size="10.00"> barrier_</text>
</g>
<!-- Node17&#45;&gt;Node16 -->
<g id="edge34" class="edge"><title>Node17&#45;&gt;Node16</title>
<path fill="none" stroke="#9a32cd" stroke-dasharray="5,2" d="M599.983,-440.432C650.282,-434.976 714.248,-428.038 759.482,-423.131"/>
<polygon fill="#9a32cd" stroke="#9a32cd" points="599.356,-436.98 589.792,-441.538 600.111,-443.939 599.356,-436.98"/>
<text text-anchor="middle" x="672" y="-443" font-family="Helvetica,sans-Serif" font-size="10.00"> wait_time_</text>
</g>
<!-- Node18 -->
<g id="node36" class="node"><title>Node18</title>
<a xlink:href="classthrill_1_1common_1_1StatsTimerBaseStopped.html" target="_top" xlink:title="StatsTimerBaseStopped\l\&lt; enable_stats \&gt;">
<polygon fill="none" stroke="black" points="754.5,-560 754.5,-594 877.5,-594 877.5,-560 754.5,-560"/>
<text text-anchor="start" x="762.5" y="-581" font-family="Helvetica,sans-Serif" font-size="10.00">StatsTimerBaseStopped</text>
<text text-anchor="middle" x="816" y="-568" font-family="Helvetica,sans-Serif" font-size="10.00">&lt; enable_stats &gt;</text>
</a>
</g>
<!-- Node18&#45;&gt;Node11 -->
<g id="edge38" class="edge"><title>Node18&#45;&gt;Node11</title>
<path fill="none" stroke="#9a32cd" stroke-dasharray="5,2" d="M869.021,-554.212C872.275,-551.716 875.314,-548.984 878,-546 893.244,-529.067 878.89,-513.045 896,-498 929.597,-468.457 955.207,-497.287 994,-475 1004.09,-469.205 1002.03,-461.997 1012,-456 1018.34,-452.187 1025.42,-449.081 1032.6,-446.556"/>
<polygon fill="#9a32cd" stroke="#9a32cd" points="866.884,-551.432 860.567,-559.938 870.81,-557.228 866.884,-551.432"/>
<text text-anchor="start" x="896.5" y="-658" font-family="Helvetica,sans-Serif" font-size="10.00"> timer_communication</text>
<text text-anchor="middle" x="945" y="-645" font-family="Helvetica,sans-Serif" font-size="10.00">_</text>
<text text-anchor="start" x="896.5" y="-632" font-family="Helvetica,sans-Serif" font-size="10.00">timer_predecessor</text>
<text text-anchor="middle" x="945" y="-619" font-family="Helvetica,sans-Serif" font-size="10.00">_</text>
<text text-anchor="start" x="896.5" y="-606" font-family="Helvetica,sans-Serif" font-size="10.00">timer_allreduce</text>
<text text-anchor="middle" x="945" y="-593" font-family="Helvetica,sans-Serif" font-size="10.00">_</text>
<text text-anchor="start" x="896.5" y="-580" font-family="Helvetica,sans-Serif" font-size="10.00">timer_barrier</text>
<text text-anchor="middle" x="945" y="-567" font-family="Helvetica,sans-Serif" font-size="10.00">_</text>
<text text-anchor="start" x="896.5" y="-554" font-family="Helvetica,sans-Serif" font-size="10.00">timer_prefixsum</text>
<text text-anchor="middle" x="945" y="-541" font-family="Helvetica,sans-Serif" font-size="10.00">_</text>
<text text-anchor="start" x="896.5" y="-528" font-family="Helvetica,sans-Serif" font-size="10.00">timer_broadcast</text>
<text text-anchor="middle" x="945" y="-515" font-family="Helvetica,sans-Serif" font-size="10.00">_</text>
<text text-anchor="middle" x="945" y="-502" font-family="Helvetica,sans-Serif" font-size="10.00">timer_reduce_</text>
</g>
<!-- Node19 -->
<g id="node38" class="node"><title>Node19</title>
<a xlink:href="classthrill_1_1common_1_1StatsTimerBase.html" target="_top" xlink:title="This class provides a statistical stop watch timer that can easily be deactivated using a boolean tem...">
<polygon fill="none" stroke="black" points="160.5,-563.5 160.5,-584.5 293.5,-584.5 293.5,-563.5 160.5,-563.5"/>
<text text-anchor="middle" x="227" y="-571.5" font-family="Helvetica,sans-Serif" font-size="10.00">StatsTimerBase&lt; Active &gt;</text>
</a>
</g>
<!-- Node19&#45;&gt;Node18 -->
<g id="edge40" class="edge"><title>Node19&#45;&gt;Node18</title>
<path fill="none" stroke="midnightblue" d="M303.762,-574.391C421.922,-574.993 646.027,-576.134 754.336,-576.686"/>
<polygon fill="midnightblue" stroke="midnightblue" points="303.724,-570.891 293.706,-574.34 303.688,-577.891 303.724,-570.891"/>
</g>
<!-- Node20 -->
<g id="node40" class="node"><title>Node20</title>
<a xlink:href="classthrill_1_1common_1_1StatsTimerBaseStopped.html" target="_top" xlink:title="StatsTimerBaseStopped\l\&lt; Active \&gt;">
<polygon fill="none" stroke="black" points="459.5,-585 459.5,-619 582.5,-619 582.5,-585 459.5,-585"/>
<text text-anchor="start" x="467.5" y="-606" font-family="Helvetica,sans-Serif" font-size="10.00">StatsTimerBaseStopped</text>
<text text-anchor="middle" x="521" y="-593" font-family="Helvetica,sans-Serif" font-size="10.00">&lt; Active &gt;</text>
</a>
</g>
<!-- Node19&#45;&gt;Node20 -->
<g id="edge44" class="edge"><title>Node19&#45;&gt;Node20</title>
<path fill="none" stroke="midnightblue" d="M303.825,-581.317C352.203,-585.924 413.83,-591.793 459.068,-596.102"/>
<polygon fill="midnightblue" stroke="midnightblue" points="304,-577.818 293.713,-580.354 303.336,-584.786 304,-577.818"/>
</g>
<!-- Node20&#45;&gt;Node18 -->
<g id="edge42" class="edge"><title>Node20&#45;&gt;Node18</title>
<path fill="none" stroke="orange" stroke-dasharray="5,2" d="M592.837,-595.912C642.325,-591.718 707.396,-586.204 754.493,-582.212"/>
<polygon fill="orange" stroke="orange" points="592.51,-592.427 582.842,-596.759 593.102,-599.402 592.51,-592.427"/>
<text text-anchor="middle" x="672" y="-598" font-family="Helvetica,sans-Serif" font-size="10.00"> &lt; enable_stats &gt;</text>
</g>
<!-- Node21 -->
<g id="node43" class="node"><title>Node21</title>
<a xlink:href="classthrill_1_1api_1_1MemoryConfig.html" target="_top" xlink:title="MemoryConfig">
<polygon fill="none" stroke="black" points="1044,-465.5 1044,-486.5 1124,-486.5 1124,-465.5 1044,-465.5"/>
<text text-anchor="middle" x="1084" y="-473.5" font-family="Helvetica,sans-Serif" font-size="10.00">MemoryConfig</text>
</a>
</g>
<!-- Node21&#45;&gt;Node6 -->
<g id="edge46" class="edge"><title>Node21&#45;&gt;Node6</title>
<path fill="none" stroke="#9a32cd" stroke-dasharray="5,2" d="M1134.56,-474.773C1170.93,-470.978 1217.98,-459.513 1244,-427 1295.35,-362.85 1214.2,-309.835 1262,-243 1266.49,-236.721 1273.44,-232.372 1280.49,-229.377"/>
<polygon fill="#9a32cd" stroke="#9a32cd" points="1133.79,-471.327 1124.13,-475.685 1134.4,-478.3 1133.79,-471.327"/>
<text text-anchor="middle" x="1209" y="-471" font-family="Helvetica,sans-Serif" font-size="10.00"> mem_config_</text>
</g>
<!-- Node22&#45;&gt;Node6 -->
<g id="edge50" class="edge"><title>Node22&#45;&gt;Node6</title>
<path fill="none" stroke="#9a32cd" stroke-dasharray="5,2" d="M1126.28,-302.882C1160.79,-302.376 1209.35,-296.8 1244,-273 1256.82,-264.197 1250.4,-253.352 1262,-243 1267.26,-238.307 1273.8,-234.541 1280.23,-231.598"/>
<polygon fill="#9a32cd" stroke="#9a32cd" points="1126.05,-299.382 1116.05,-302.891 1126.06,-306.382 1126.05,-299.382"/>
<text text-anchor="middle" x="1209" y="-302" font-family="Helvetica,sans-Serif" font-size="10.00"> multiplexer_</text>
</g>
<!-- Node23&#45;&gt;Node22 -->
<g id="edge52" class="edge"><title>Node23&#45;&gt;Node22</title>
<path fill="none" stroke="#9a32cd" stroke-dasharray="5,2" d="M873.499,-322.207C927.986,-316.718 1007.85,-308.672 1051.89,-304.235"/>
<polygon fill="#9a32cd" stroke="#9a32cd" points="872.895,-318.75 863.296,-323.235 873.597,-325.715 872.895,-318.75"/>
<text text-anchor="middle" x="945" y="-323" font-family="Helvetica,sans-Serif" font-size="10.00"> dispatcher_</text>
</g>
<!-- Node24 -->
<g id="node50" class="node"><title>Node24</title>
<a xlink:href="classthrill_1_1common_1_1OurConcurrentQueue.html" target="_top" xlink:title="OurConcurrentQueue\l\&lt; thrill::common::Delegate,\l mem::Allocator\&lt; thrill\l::common::Delegate \&gt; \&gt;">
<polygon fill="none" stroke="black" points="453.5,-360 453.5,-420 588.5,-420 588.5,-360 453.5,-360"/>
<text text-anchor="start" x="461.5" y="-407" font-family="Helvetica,sans-Serif" font-size="10.00">OurConcurrentQueue</text>
<text text-anchor="start" x="461.5" y="-394" font-family="Helvetica,sans-Serif" font-size="10.00">&lt; thrill::common::Delegate,</text>
<text text-anchor="start" x="461.5" y="-381" font-family="Helvetica,sans-Serif" font-size="10.00"> mem::Allocator&lt; thrill</text>
<text text-anchor="middle" x="521" y="-368" font-family="Helvetica,sans-Serif" font-size="10.00">::common::Delegate &gt; &gt;</text>
</a>
</g>
<!-- Node24&#45;&gt;Node23 -->
<g id="edge54" class="edge"><title>Node24&#45;&gt;Node23</title>
<path fill="none" stroke="#9a32cd" stroke-dasharray="5,2" d="M598.478,-376.545C639.496,-369.09 690.634,-359.267 736,-349 749.725,-345.894 764.666,-342.088 777.88,-338.574"/>
<polygon fill="#9a32cd" stroke="#9a32cd" points="597.765,-373.117 588.547,-378.34 599.011,-380.006 597.765,-373.117"/>
<text text-anchor="middle" x="672" y="-378" font-family="Helvetica,sans-Serif" font-size="10.00"> jobqueue_</text>
</g>
<!-- Node25 -->
<g id="node52" class="node"><title>Node25</title>
<a xlink:href="classthrill_1_1common_1_1OurConcurrentQueue.html" target="_top" xlink:title="This is a queue, similar to std::queue and tbb::concurrent_queue, except that it uses mutexes for syn...">
<polygon fill="none" stroke="black" points="172.5,-373 172.5,-407 281.5,-407 281.5,-373 172.5,-373"/>
<text text-anchor="start" x="180.5" y="-394" font-family="Helvetica,sans-Serif" font-size="10.00">OurConcurrentQueue</text>
<text text-anchor="middle" x="227" y="-381" font-family="Helvetica,sans-Serif" font-size="10.00">&lt; T, Allocator &gt;</text>
</a>
</g>
<!-- Node25&#45;&gt;Node24 -->
<g id="edge56" class="edge"><title>Node25&#45;&gt;Node24</title>
<path fill="none" stroke="orange" stroke-dasharray="5,2" d="M291.857,-390C339.724,-390 404.705,-390 453.245,-390"/>
<polygon fill="orange" stroke="orange" points="291.61,-386.5 281.61,-390 291.61,-393.5 291.61,-386.5"/>
<text text-anchor="start" x="312" y="-420" font-family="Helvetica,sans-Serif" font-size="10.00"> &lt; thrill::common::Delegate,</text>
<text text-anchor="start" x="312" y="-407" font-family="Helvetica,sans-Serif" font-size="10.00"> mem::Allocator&lt; thrill</text>
<text text-anchor="middle" x="373" y="-394" font-family="Helvetica,sans-Serif" font-size="10.00">::common::Delegate &gt; &gt;</text>
</g>
<!-- Node26&#45;&gt;Node6 -->
<g id="edge72" class="edge"><title>Node26&#45;&gt;Node6</title>
<path fill="none" stroke="#9a32cd" stroke-dasharray="5,2" d="M856.741,-271.593C954.578,-261.011 1200.59,-234.402 1280.5,-225.759"/>
<polygon fill="#9a32cd" stroke="#9a32cd" points="856.217,-268.129 846.652,-272.685 856.97,-275.089 856.217,-268.129"/>
<text text-anchor="middle" x="1084" y="-258" font-family="Helvetica,sans-Serif" font-size="10.00"> block_pool_</text>
</g>
<!-- Node26&#45;&gt;Node22 -->
<g id="edge62" class="edge"><title>Node26&#45;&gt;Node22</title>
<path fill="none" stroke="#9a32cd" stroke-dasharray="5,2" d="M856.905,-279.816C910.453,-284.811 1003.21,-293.464 1051.96,-298.011"/>
<polygon fill="#9a32cd" stroke="#9a32cd" points="857.025,-276.312 846.743,-278.868 856.375,-283.282 857.025,-276.312"/>
<text text-anchor="middle" x="945" y="-296" font-family="Helvetica,sans-Serif" font-size="10.00"> block_pool_</text>
</g>
<!-- Node27 -->
<g id="node63" class="node"><title>Node27</title>
<a xlink:href="classthrill_1_1net_1_1FlowControlChannelManager.html" target="_top" xlink:title="FlowControlChannelManager">
<polygon fill="none" stroke="black" points="1012.5,-330.5 1012.5,-351.5 1155.5,-351.5 1155.5,-330.5 1012.5,-330.5"/>
<text text-anchor="middle" x="1084" y="-338.5" font-family="Helvetica,sans-Serif" font-size="10.00">FlowControlChannelManager</text>
</a>
</g>
<!-- Node27&#45;&gt;Node6 -->
<g id="edge74" class="edge"><title>Node27&#45;&gt;Node6</title>
<path fill="none" stroke="#9a32cd" stroke-dasharray="5,2" d="M1165.85,-345.112C1193.71,-342.357 1223.06,-334.254 1244,-315 1268.28,-292.675 1240.89,-268.343 1262,-243 1266.73,-237.327 1273.4,-233.19 1280.13,-230.205"/>
<polygon fill="#9a32cd" stroke="#9a32cd" points="1165.38,-341.638 1155.68,-345.896 1165.92,-348.618 1165.38,-341.638"/>
<text text-anchor="middle" x="1209" y="-347" font-family="Helvetica,sans-Serif" font-size="10.00"> flow_manager_</text>
</g>
<!-- Node28 -->
<g id="node67" class="node"><title>Node28</title>
<a xlink:href="classthrill_1_1api_1_1DIAMemUse.html" target="_top" xlink:title="Description of the amount of RAM the internal data structures of a DIANode require.">
<polygon fill="none" stroke="black" points="1269,-0.5 1269,-21.5 1343,-21.5 1343,-0.5 1269,-0.5"/>
<text text-anchor="middle" x="1306" y="-8.5" font-family="Helvetica,sans-Serif" font-size="10.00">DIAMemUse</text>
</a>
</g>
<!-- Node28&#45;&gt;Node4 -->
<g id="edge80" class="edge"><title>Node28&#45;&gt;Node4</title>
<path fill="none" stroke="#9a32cd" stroke-dasharray="5,2" d="M1353.29,-5.71291C1375.94,-5.57186 1402.33,-9.15119 1422,-23 1451.31,-43.6426 1462.62,-88.1296 1466.37,-108.467"/>
<polygon fill="#9a32cd" stroke="#9a32cd" points="1353.08,-2.21759 1343.19,-6.01598 1353.29,-9.21444 1353.08,-2.21759"/>
<text text-anchor="middle" x="1395" y="-27" font-family="Helvetica,sans-Serif" font-size="10.00"> mem_limit_</text>
</g>
<!-- Node29 -->
<g id="node69" class="node"><title>Node29</title>
<a xlink:href="classthrill_1_1common_1_1CountingPtr.html" target="_top" xlink:title="CountingPtr\&lt; CatStream \&gt;">
<polygon fill="none" stroke="black" points="1762,-63.5 1762,-84.5 1896,-84.5 1896,-63.5 1762,-63.5"/>
<text text-anchor="middle" x="1829" y="-71.5" font-family="Helvetica,sans-Serif" font-size="10.00">CountingPtr&lt; CatStream &gt;</text>
</a>
</g>
<!-- Node29&#45;&gt;Node1 -->
<g id="edge82" class="edge"><title>Node29&#45;&gt;Node1</title>
<path fill="none" stroke="#9a32cd" stroke-dasharray="5,2" d="M1906.61,-74C1932.05,-74 1960.34,-74 1985.95,-74"/>
<polygon fill="#9a32cd" stroke="#9a32cd" points="1906.28,-70.5001 1896.28,-74 1906.28,-77.5001 1906.28,-70.5001"/>
<text text-anchor="middle" x="1941" y="-78" font-family="Helvetica,sans-Serif" font-size="10.00"> stream_</text>
</g>
<!-- Node30 -->
<g id="node71" class="node"><title>Node30</title>
<a xlink:href="classthrill_1_1common_1_1CountingPtr.html" target="_top" xlink:title="High&#45;performance smart pointer used as a wrapping reference counting pointer.">
<polygon fill="none" stroke="black" points="1544,-56 1544,-90 1646,-90 1646,-56 1544,-56"/>
<text text-anchor="start" x="1552" y="-77" font-family="Helvetica,sans-Serif" font-size="10.00">CountingPtr&lt; Type,</text>
<text text-anchor="middle" x="1595" y="-64" font-family="Helvetica,sans-Serif" font-size="10.00"> Deleter &gt;</text>
</a>
</g>
<!-- Node30&#45;&gt;Node29 -->
<g id="edge84" class="edge"><title>Node30&#45;&gt;Node29</title>
<path fill="none" stroke="orange" stroke-dasharray="5,2" d="M1656.29,-73.2619C1688.63,-73.4001 1728.39,-73.57 1761.6,-73.712"/>
<polygon fill="orange" stroke="orange" points="1656.08,-69.7611 1646.06,-73.2182 1656.05,-76.761 1656.08,-69.7611"/>
<text text-anchor="middle" x="1709" y="-78" font-family="Helvetica,sans-Serif" font-size="10.00"> &lt; CatStream &gt;</text>
</g>
<!-- Node31 -->
<g id="node73" class="node"><title>Node31</title>
<a xlink:href="classthrill_1_1common_1_1Range.html" target="_top" xlink:title="represents a 1 dimensional range (interval) [begin,end)">
<polygon fill="none" stroke="black" points="1806.5,-23.5 1806.5,-44.5 1851.5,-44.5 1851.5,-23.5 1806.5,-23.5"/>
<text text-anchor="middle" x="1829" y="-31.5" font-family="Helvetica,sans-Serif" font-size="10.00">Range</text>
</a>
</g>
<!-- Node31&#45;&gt;Node1 -->
<g id="edge86" class="edge"><title>Node31&#45;&gt;Node1</title>
<path fill="none" stroke="#9a32cd" stroke-dasharray="5,2" d="M1861.74,-39.3429C1889.91,-43.9592 1931.65,-50.8394 1968,-57 1973.79,-57.981 1979.77,-59.0012 1985.79,-60.033"/>
<polygon fill="#9a32cd" stroke="#9a32cd" points="1862.07,-35.8519 1851.64,-37.6908 1860.94,-42.76 1862.07,-35.8519"/>
<text text-anchor="middle" x="1941" y="-61" font-family="Helvetica,sans-Serif" font-size="10.00"> key_range_</text>
</g>
</g>
</svg>
