<?xml version="1.0" encoding="UTF-8" standalone="no"?>
<!DOCTYPE svg PUBLIC "-//W3C//DTD SVG 1.1//EN"
 "http://www.w3.org/Graphics/SVG/1.1/DTD/svg11.dtd">
<!-- Generated by graphviz version 2.26.3 (20100126.1600)
 -->
<!-- Title: BlockWithBids&lt; Type, Size, RawSize, NBids &gt; Pages: 1 -->
<svg width="1680pt" height="184pt"
 viewBox="0.00 0.00 1680.00 184.00" xmlns="http://www.w3.org/2000/svg" xmlns:xlink="http://www.w3.org/1999/xlink">
<g id="graph1" class="graph" transform="scale(1 1) rotate(0) translate(4 180)">
<title>BlockWithBids&lt; Type, Size, RawSize, NBids &gt;</title>
<!-- Node1 -->
<g id="node1" class="node"><title>Node1</title>
<polygon fill="#bfbfbf" stroke="black" points="150.5,-70 150.5,-104 277.5,-104 277.5,-70 150.5,-70"/>
<text text-anchor="start" x="158.5" y="-91" font-family="Helvetica,sans-Serif" font-size="10.00">BlockWithBids&lt; Type,</text>
<text text-anchor="middle" x="214" y="-78" font-family="Helvetica,sans-Serif" font-size="10.00"> Size, RawSize, NBids &gt;</text>
</g>
<!-- Node3 -->
<g id="node5" class="node"><title>Node3</title>
<a xlink:href="classthrill_1_1io_1_1mng__local_1_1BlockWithBids.html" target="_top" xlink:title="BlockWithBids\&lt; Type,\l((RawSize&#45;sizeof(BID\l\&lt; RawSize \&gt;)*NBids)/sizeof\l(Type)), RawSize, NBids \&gt;">
<polygon fill="none" stroke="black" points="432,-101 432,-161 572,-161 572,-101 432,-101"/>
<text text-anchor="start" x="440" y="-148" font-family="Helvetica,sans-Serif" font-size="10.00">BlockWithBids&lt; Type,</text>
<text text-anchor="start" x="440" y="-135" font-family="Helvetica,sans-Serif" font-size="10.00">((RawSize&#45;sizeof(BID</text>
<text text-anchor="start" x="440" y="-122" font-family="Helvetica,sans-Serif" font-size="10.00">&lt; RawSize &gt;)*NBids)/sizeof</text>
<text text-anchor="middle" x="502" y="-109" font-family="Helvetica,sans-Serif" font-size="10.00">(Type)), RawSize, NBids &gt;</text>
</a>
</g>
<!-- Node1&#45;&gt;Node3 -->
<g id="edge4" class="edge"><title>Node1&#45;&gt;Node3</title>
<path fill="none" stroke="orange" stroke-dasharray="5,2" d="M283.309,-106.401C287.588,-107.348 291.843,-108.225 296,-109 340.728,-117.336 391.553,-122.806 431.527,-126.206"/>
<polygon fill="orange" stroke="orange" points="283.85,-102.933 273.317,-104.079 282.265,-109.751 283.85,-102.933"/>
<text text-anchor="start" x="296.5" y="-167" font-family="Helvetica,sans-Serif" font-size="10.00"> &lt; Type,((RawSize&#45;sizeof</text>
<text text-anchor="start" x="296.5" y="-154" font-family="Helvetica,sans-Serif" font-size="10.00">(BID&lt; RawSize &gt;)*NBids)</text>
<text text-anchor="start" x="296.5" y="-141" font-family="Helvetica,sans-Serif" font-size="10.00">/sizeof(Type)), RawSize,</text>
<text text-anchor="middle" x="354" y="-128" font-family="Helvetica,sans-Serif" font-size="10.00"> NBids &gt;</text>
</g>
<!-- Node5 -->
<g id="node9" class="node"><title>Node5</title>
<a xlink:href="classthrill_1_1io_1_1mng__local_1_1BlockWithBids.html" target="_top" xlink:title="BlockWithBids\&lt; Type,\l((RawSize&#45;sizeof(BID\l\&lt; RawSize \&gt;)*NBids&#45;sizeof\l(MetaInfoType))/sizeof(Type)\l), RawSize, NBids \&gt;">
<polygon fill="none" stroke="black" points="430.5,-6.5 430.5,-79.5 573.5,-79.5 573.5,-6.5 430.5,-6.5"/>
<text text-anchor="start" x="438.5" y="-66.5" font-family="Helvetica,sans-Serif" font-size="10.00">BlockWithBids&lt; Type,</text>
<text text-anchor="start" x="438.5" y="-53.5" font-family="Helvetica,sans-Serif" font-size="10.00">((RawSize&#45;sizeof(BID</text>
<text text-anchor="start" x="438.5" y="-40.5" font-family="Helvetica,sans-Serif" font-size="10.00">&lt; RawSize &gt;)*NBids&#45;sizeof</text>
<text text-anchor="start" x="438.5" y="-27.5" font-family="Helvetica,sans-Serif" font-size="10.00">(MetaInfoType))/sizeof(Type)</text>
<text text-anchor="middle" x="502" y="-14.5" font-family="Helvetica,sans-Serif" font-size="10.00">), RawSize, NBids &gt;</text>
</a>
</g>
<!-- Node1&#45;&gt;Node5 -->
<g id="edge8" class="edge"><title>Node1&#45;&gt;Node5</title>
<path fill="none" stroke="orange" stroke-dasharray="5,2" d="M244.906,-64.1724C259.596,-54.7084 277.879,-44.825 296,-40 339.55,-28.4041 390.134,-28.9497 430.277,-32.494"/>
<polygon fill="orange" stroke="orange" points="242.621,-61.4905 236.258,-69.962 246.515,-67.3075 242.621,-61.4905"/>
<text text-anchor="start" x="298" y="-96" font-family="Helvetica,sans-Serif" font-size="10.00"> &lt; Type,((RawSize&#45;sizeof</text>
<text text-anchor="start" x="298" y="-83" font-family="Helvetica,sans-Serif" font-size="10.00">(BID&lt; RawSize &gt;)*NBids</text>
<text text-anchor="start" x="298" y="-70" font-family="Helvetica,sans-Serif" font-size="10.00">&#45;sizeof(MetaInfoType))</text>
<text text-anchor="start" x="298" y="-57" font-family="Helvetica,sans-Serif" font-size="10.00">/sizeof(Type)), RawSize,</text>
<text text-anchor="middle" x="354" y="-44" font-family="Helvetica,sans-Serif" font-size="10.00"> NBids &gt;</text>
</g>
<!-- Node2 -->
<g id="node2" class="node"><title>Node2</title>
<a xlink:href="classthrill_1_1io_1_1mng__local_1_1ElementBlock.html" target="_top" xlink:title="Contains data elements for TypedBlock , not intended for direct use.">
<polygon fill="none" stroke="black" points="0.5,-70 0.5,-104 111.5,-104 111.5,-70 0.5,-70"/>
<text text-anchor="start" x="8.5" y="-91" font-family="Helvetica,sans-Serif" font-size="10.00">ElementBlock&lt; Type,</text>
<text text-anchor="middle" x="56" y="-78" font-family="Helvetica,sans-Serif" font-size="10.00"> Size &gt;</text>
</a>
</g>
<!-- Node2&#45;&gt;Node1 -->
<g id="edge2" class="edge"><title>Node2&#45;&gt;Node1</title>
<path fill="none" stroke="midnightblue" d="M121.843,-87C131.303,-87 141.023,-87 150.439,-87"/>
<polygon fill="midnightblue" stroke="midnightblue" points="121.705,-83.5001 111.705,-87 121.705,-90.5001 121.705,-83.5001"/>
</g>
<!-- Node4 -->
<g id="node7" class="node"><title>Node4</title>
<a xlink:href="classthrill_1_1io_1_1mng__local_1_1BlockWithInfo_3_01Type_00_01RawSize_00_01NBids_00_01void_01_4.html" target="_top" xlink:title="BlockWithInfo\&lt; Type,\l RawSize, NBids, void \&gt;">
<polygon fill="none" stroke="black" points="633.5,-114 633.5,-148 758.5,-148 758.5,-114 633.5,-114"/>
<text text-anchor="start" x="641.5" y="-135" font-family="Helvetica,sans-Serif" font-size="10.00">BlockWithInfo&lt; Type,</text>
<text text-anchor="middle" x="696" y="-122" font-family="Helvetica,sans-Serif" font-size="10.00"> RawSize, NBids, void &gt;</text>
</a>
</g>
<!-- Node3&#45;&gt;Node4 -->
<g id="edge6" class="edge"><title>Node3&#45;&gt;Node4</title>
<path fill="none" stroke="midnightblue" d="M582.039,-131C599.197,-131 617.085,-131 633.466,-131"/>
<polygon fill="midnightblue" stroke="midnightblue" points="582.038,-127.5 572.038,-131 582.038,-134.5 582.038,-127.5"/>
</g>
<!-- Node6 -->
<g id="node11" class="node"><title>Node6</title>
<a xlink:href="classthrill_1_1io_1_1mng__local_1_1BlockWithInfo.html" target="_top" xlink:title="BlockWithInfo\&lt; Type,\l RawSize, NRef, MetaInfoType \&gt;">
<polygon fill="none" stroke="black" points="928,-26 928,-60 1092,-60 1092,-26 928,-26"/>
<text text-anchor="start" x="936" y="-47" font-family="Helvetica,sans-Serif" font-size="10.00">BlockWithInfo&lt; Type,</text>
<text text-anchor="middle" x="1010" y="-34" font-family="Helvetica,sans-Serif" font-size="10.00"> RawSize, NRef, MetaInfoType &gt;</text>
</a>
</g>
<!-- Node5&#45;&gt;Node6 -->
<g id="edge10" class="edge"><title>Node5&#45;&gt;Node6</title>
<path fill="none" stroke="midnightblue" d="M583.567,-47.4515C665.949,-51.2764 796.853,-55.5187 910,-51 915.83,-50.7672 921.846,-50.4583 927.901,-50.0972"/>
<polygon fill="midnightblue" stroke="midnightblue" points="583.672,-43.9526 573.517,-46.9757 583.341,-50.9448 583.672,-43.9526"/>
</g>
<!-- Node10 -->
<g id="node19" class="node"><title>Node10</title>
<a xlink:href="classthrill_1_1io_1_1mng__local_1_1BlockWithInfo.html" target="_top" xlink:title="Contains per block information for TypedBlock , not intended for direct use.">
<polygon fill="none" stroke="black" points="612.5,-3 612.5,-37 779.5,-37 779.5,-3 612.5,-3"/>
<text text-anchor="start" x="620.5" y="-24" font-family="Helvetica,sans-Serif" font-size="10.00">BlockWithInfo&lt; Type,</text>
<text text-anchor="middle" x="696" y="-11" font-family="Helvetica,sans-Serif" font-size="10.00"> RawSize, NBids, MetaInfoType &gt;</text>
</a>
</g>
<!-- Node5&#45;&gt;Node10 -->
<g id="edge18" class="edge"><title>Node5&#45;&gt;Node10</title>
<path fill="none" stroke="midnightblue" d="M583.863,-33.2946C593.329,-32.1724 602.991,-31.0268 612.479,-29.902"/>
<polygon fill="midnightblue" stroke="midnightblue" points="583.206,-29.8479 573.687,-34.501 584.03,-36.7992 583.206,-29.8479"/>
</g>
<!-- Node7 -->
<g id="node13" class="node"><title>Node7</title>
<a xlink:href="classthrill_1_1io_1_1mng__local_1_1AddFiller.html" target="_top" xlink:title="AddFiller\&lt; mng_local\l::BlockWithInfo\&lt; Type,\l RawSize, NRef, MetaInfoType\l \&gt;, RawSize&#45;sizeof(mng_local\l::BlockWithInfo\&lt; Type, RawSize,\l NRef, MetaInfoType \&gt;)\&gt;">
<polygon fill="none" stroke="black" points="1130,-0 1130,-86 1294,-86 1294,-0 1130,-0"/>
<text text-anchor="start" x="1138" y="-73" font-family="Helvetica,sans-Serif" font-size="10.00">AddFiller&lt; mng_local</text>
<text text-anchor="start" x="1138" y="-60" font-family="Helvetica,sans-Serif" font-size="10.00">::BlockWithInfo&lt; Type,</text>
<text text-anchor="start" x="1138" y="-47" font-family="Helvetica,sans-Serif" font-size="10.00"> RawSize, NRef, MetaInfoType</text>
<text text-anchor="start" x="1138" y="-34" font-family="Helvetica,sans-Serif" font-size="10.00"> &gt;, RawSize&#45;sizeof(mng_local</text>
<text text-anchor="start" x="1138" y="-21" font-family="Helvetica,sans-Serif" font-size="10.00">::BlockWithInfo&lt; Type, RawSize,</text>
<text text-anchor="middle" x="1212" y="-8" font-family="Helvetica,sans-Serif" font-size="10.00"> NRef, MetaInfoType &gt;)&gt;</text>
</a>
</g>
<!-- Node6&#45;&gt;Node7 -->
<g id="edge12" class="edge"><title>Node6&#45;&gt;Node7</title>
<path fill="none" stroke="midnightblue" d="M1102.45,-43C1111.61,-43 1120.87,-43 1129.91,-43"/>
<polygon fill="midnightblue" stroke="midnightblue" points="1102.16,-39.5001 1092.16,-43 1102.16,-46.5001 1102.16,-39.5001"/>
</g>
<!-- Node8 -->
<g id="node15" class="node"><title>Node8</title>
<a xlink:href="classthrill_1_1io_1_1mng__local_1_1ExpandStruct.html" target="_top" xlink:title="ExpandStruct\&lt; mng_local\l::BlockWithInfo\&lt; Type,\l RawSize, NRef, MetaInfoType\l \&gt;, RawSize \&gt;">
<polygon fill="none" stroke="black" points="1332.5,-13 1332.5,-73 1487.5,-73 1487.5,-13 1332.5,-13"/>
<text text-anchor="start" x="1340.5" y="-60" font-family="Helvetica,sans-Serif" font-size="10.00">ExpandStruct&lt; mng_local</text>
<text text-anchor="start" x="1340.5" y="-47" font-family="Helvetica,sans-Serif" font-size="10.00">::BlockWithInfo&lt; Type,</text>
<text text-anchor="start" x="1340.5" y="-34" font-family="Helvetica,sans-Serif" font-size="10.00"> RawSize, NRef, MetaInfoType</text>
<text text-anchor="middle" x="1410" y="-21" font-family="Helvetica,sans-Serif" font-size="10.00"> &gt;, RawSize &gt;</text>
</a>
</g>
<!-- Node7&#45;&gt;Node8 -->
<g id="edge14" class="edge"><title>Node7&#45;&gt;Node8</title>
<path fill="none" stroke="midnightblue" d="M1304.39,-43C1313.78,-43 1323.24,-43 1332.45,-43"/>
<polygon fill="midnightblue" stroke="midnightblue" points="1304.25,-39.5001 1294.25,-43 1304.25,-46.5001 1304.25,-39.5001"/>
</g>
<!-- Node9 -->
<g id="node17" class="node"><title>Node9</title>
<a xlink:href="classthrill_1_1io_1_1TypedBlock.html" target="_top" xlink:title="TypedBlock\&lt; RawSize,\l Type, NRef, MetaInfoType \&gt;">
<polygon fill="none" stroke="black" points="1526,-26 1526,-60 1672,-60 1672,-26 1526,-26"/>
<text text-anchor="start" x="1534" y="-47" font-family="Helvetica,sans-Serif" font-size="10.00">TypedBlock&lt; RawSize,</text>
<text text-anchor="middle" x="1599" y="-34" font-family="Helvetica,sans-Serif" font-size="10.00"> Type, NRef, MetaInfoType &gt;</text>
</a>
</g>
<!-- Node8&#45;&gt;Node9 -->
<g id="edge16" class="edge"><title>Node8&#45;&gt;Node9</title>
<path fill="none" stroke="midnightblue" d="M1497.82,-43C1507.21,-43 1516.68,-43 1525.87,-43"/>
<polygon fill="midnightblue" stroke="midnightblue" points="1497.69,-39.5001 1487.69,-43 1497.69,-46.5001 1497.69,-39.5001"/>
</g>
<!-- Node10&#45;&gt;Node6 -->
<g id="edge20" class="edge"><title>Node10&#45;&gt;Node6</title>
<path fill="none" stroke="orange" stroke-dasharray="5,2" d="M789.914,-19.0579C827.355,-19.4998 870.795,-21.0376 910,-25 915.792,-25.5854 921.752,-26.3189 927.741,-27.1527"/>
<polygon fill="orange" stroke="orange" points="789.553,-15.5545 779.521,-18.9612 789.488,-22.5542 789.553,-15.5545"/>
<text text-anchor="start" x="798" y="-42" font-family="Helvetica,sans-Serif" font-size="10.00"> &lt; Type, RawSize, NRef,</text>
<text text-anchor="middle" x="854" y="-29" font-family="Helvetica,sans-Serif" font-size="10.00"> MetaInfoType &gt;</text>
</g>
</g>
</svg>
