<?xml version="1.0" encoding="UTF-8" standalone="no"?>
<!DOCTYPE svg PUBLIC "-//W3C//DTD SVG 1.1//EN"
 "http://www.w3.org/Graphics/SVG/1.1/DTD/svg11.dtd">
<!-- Generated by graphviz version 2.26.3 (20100126.1600)
 -->
<!-- Title: FileBase Pages: 1 -->
<svg width="402pt" height="146pt"
 viewBox="0.00 0.00 402.00 146.00" xmlns="http://www.w3.org/2000/svg" xmlns:xlink="http://www.w3.org/1999/xlink">
<g id="graph1" class="graph" transform="scale(1 1) rotate(0) translate(4 142)">
<title>FileBase</title>
<!-- Node1 -->
<g id="node1" class="node"><title>Node1</title>
<polygon fill="#bfbfbf" stroke="black" points="183.5,-116.5 183.5,-137.5 238.5,-137.5 238.5,-116.5 183.5,-116.5"/>
<text text-anchor="middle" x="211" y="-124.5" font-family="Helvetica,sans-Serif" font-size="10.00">FileBase</text>
</g>
<!-- Node2 -->
<g id="node3" class="node"><title>Node2</title>
<a xlink:href="classthrill_1_1io_1_1DiskQueuedFile.html" target="_top" xlink:title="Implementation of some file methods based on serving_request.">
<polygon fill="none" stroke="black" points="168,-58.5 168,-79.5 254,-79.5 254,-58.5 168,-58.5"/>
<text text-anchor="middle" x="211" y="-66.5" font-family="Helvetica,sans-Serif" font-size="10.00">DiskQueuedFile</text>
</a>
</g>
<!-- Node1&#45;&gt;Node2 -->
<g id="edge2" class="edge"><title>Node1&#45;&gt;Node2</title>
<path fill="none" stroke="midnightblue" d="M211,-106.191C211,-97.1684 211,-86.9941 211,-79.5707"/>
<polygon fill="midnightblue" stroke="midnightblue" points="207.5,-106.362 211,-116.362 214.5,-106.362 207.5,-106.362"/>
</g>
<!-- Node8 -->
<g id="node15" class="node"><title>Node8</title>
<a xlink:href="classthrill_1_1io_1_1UfsFileBase.html" target="_top" xlink:title="Base for UNIX file system implementations.">
<polygon fill="none" stroke="black" points="79.5,-58.5 79.5,-79.5 150.5,-79.5 150.5,-58.5 79.5,-58.5"/>
<text text-anchor="middle" x="115" y="-66.5" font-family="Helvetica,sans-Serif" font-size="10.00">UfsFileBase</text>
</a>
</g>
<!-- Node1&#45;&gt;Node8 -->
<g id="edge14" class="edge"><title>Node1&#45;&gt;Node8</title>
<path fill="none" stroke="midnightblue" d="M184.684,-111.101C168.074,-101.066 147.079,-88.3808 132.496,-79.5707"/>
<polygon fill="midnightblue" stroke="midnightblue" points="183.023,-114.186 193.392,-116.362 186.643,-108.195 183.023,-114.186"/>
</g>
<!-- Node9 -->
<g id="node20" class="node"><title>Node9</title>
<a xlink:href="classthrill_1_1io_1_1WfsFileBase.html" target="_top" xlink:title="Base for Windows file system implementations.">
<polygon fill="none" stroke="black" points="298.5,-58.5 298.5,-79.5 371.5,-79.5 371.5,-58.5 298.5,-58.5"/>
<text text-anchor="middle" x="335" y="-66.5" font-family="Helvetica,sans-Serif" font-size="10.00">WfsFileBase</text>
</a>
</g>
<!-- Node1&#45;&gt;Node9 -->
<g id="edge22" class="edge"><title>Node1&#45;&gt;Node9</title>
<path fill="none" stroke="midnightblue" d="M242.628,-112.206C264.382,-102.031 292.762,-88.7567 312.293,-79.6212"/>
<polygon fill="midnightblue" stroke="midnightblue" points="241.031,-109.089 233.455,-116.497 243.996,-115.43 241.031,-109.089"/>
</g>
<!-- Node3 -->
<g id="node5" class="node"><title>Node3</title>
<a xlink:href="exceptionthrill_1_1io_1_1LinuxaioFile.html" target="_top" xlink:title="LinuxaioFile">
<polygon fill="none" stroke="black" points="0,-0.5 0,-21.5 68,-21.5 68,-0.5 0,-0.5"/>
<text text-anchor="middle" x="34" y="-8.5" font-family="Helvetica,sans-Serif" font-size="10.00">LinuxaioFile</text>
</a>
</g>
<!-- Node2&#45;&gt;Node3 -->
<g id="edge4" class="edge"><title>Node2&#45;&gt;Node3</title>
<path fill="none" stroke="midnightblue" d="M169.126,-55.2787C137.587,-44.9437 94.9883,-30.9849 66.1135,-21.5231"/>
<polygon fill="midnightblue" stroke="midnightblue" points="168.354,-58.7086 178.947,-58.4966 170.534,-52.0567 168.354,-58.7086"/>
</g>
<!-- Node4 -->
<g id="node7" class="node"><title>Node4</title>
<a xlink:href="exceptionthrill_1_1io_1_1MemoryFile.html" target="_top" xlink:title="Implementation of file based on new[] and memcpy.">
<polygon fill="none" stroke="black" points="244,-0.5 244,-21.5 312,-21.5 312,-0.5 244,-0.5"/>
<text text-anchor="middle" x="278" y="-8.5" font-family="Helvetica,sans-Serif" font-size="10.00">MemoryFile</text>
</a>
</g>
<!-- Node2&#45;&gt;Node4 -->
<g id="edge6" class="edge"><title>Node2&#45;&gt;Node4</title>
<path fill="none" stroke="midnightblue" d="M230.995,-51.6908C242.306,-41.8996 256.083,-29.973 265.789,-21.5707"/>
<polygon fill="midnightblue" stroke="midnightblue" points="228.559,-49.1706 223.289,-58.3619 233.14,-54.4631 228.559,-49.1706"/>
</g>
<!-- Node5 -->
<g id="node9" class="node"><title>Node5</title>
<a xlink:href="exceptionthrill_1_1io_1_1MmapFile.html" target="_top" xlink:title="Implementation of memory mapped access file.">
<polygon fill="none" stroke="black" points="85.5,-0.5 85.5,-21.5 144.5,-21.5 144.5,-0.5 85.5,-0.5"/>
<text text-anchor="middle" x="115" y="-8.5" font-family="Helvetica,sans-Serif" font-size="10.00">MmapFile</text>
</a>
</g>
<!-- Node2&#45;&gt;Node5 -->
<g id="edge8" class="edge"><title>Node2&#45;&gt;Node5</title>
<path fill="none" stroke="midnightblue" d="M184.684,-53.1009C168.074,-43.0658 147.079,-30.3808 132.496,-21.5707"/>
<polygon fill="midnightblue" stroke="midnightblue" points="183.023,-56.1864 193.392,-58.3619 186.643,-50.195 183.023,-56.1864"/>
</g>
<!-- Node6 -->
<g id="node11" class="node"><title>Node6</title>
<a xlink:href="exceptionthrill_1_1io_1_1SyscallFile.html" target="_top" xlink:title="Implementation of file based on UNIX syscalls.">
<polygon fill="none" stroke="black" points="161.5,-0.5 161.5,-21.5 226.5,-21.5 226.5,-0.5 161.5,-0.5"/>
<text text-anchor="middle" x="194" y="-8.5" font-family="Helvetica,sans-Serif" font-size="10.00">SyscallFile</text>
</a>
</g>
<!-- Node2&#45;&gt;Node6 -->
<g id="edge10" class="edge"><title>Node2&#45;&gt;Node6</title>
<path fill="none" stroke="midnightblue" d="M204.988,-48.4876C202.322,-39.3924 199.298,-29.0756 197.098,-21.5707"/>
<polygon fill="midnightblue" stroke="midnightblue" points="201.71,-49.7501 207.882,-58.3619 208.428,-47.7811 201.71,-49.7501"/>
</g>
<!-- Node7 -->
<g id="node13" class="node"><title>Node7</title>
<a xlink:href="exceptionthrill_1_1io_1_1WincallFile.html" target="_top" xlink:title="Implementation of file based on Windows native I/O calls.">
<polygon fill="none" stroke="black" points="329.5,-0.5 329.5,-21.5 394.5,-21.5 394.5,-0.5 329.5,-0.5"/>
<text text-anchor="middle" x="362" y="-8.5" font-family="Helvetica,sans-Serif" font-size="10.00">WincallFile</text>
</a>
</g>
<!-- Node2&#45;&gt;Node7 -->
<g id="edge12" class="edge"><title>Node2&#45;&gt;Node7</title>
<path fill="none" stroke="midnightblue" d="M247.776,-54.8742C274.571,-44.5819 310.29,-30.862 334.604,-21.5231"/>
<polygon fill="midnightblue" stroke="midnightblue" points="246.425,-51.6437 238.345,-58.4966 248.935,-58.1782 246.425,-51.6437"/>
</g>
<!-- Node8&#45;&gt;Node3 -->
<g id="edge16" class="edge"><title>Node8&#45;&gt;Node3</title>
<path fill="none" stroke="midnightblue" d="M91.6199,-52.2587C77.8016,-42.3641 60.7246,-30.1361 48.7625,-21.5707"/>
<polygon fill="midnightblue" stroke="midnightblue" points="89.9751,-55.3857 100.143,-58.3619 94.0505,-49.6943 89.9751,-55.3857"/>
</g>
<!-- Node8&#45;&gt;Node5 -->
<g id="edge18" class="edge"><title>Node8&#45;&gt;Node5</title>
<path fill="none" stroke="midnightblue" d="M115,-48.1906C115,-39.1684 115,-28.9941 115,-21.5707"/>
<polygon fill="midnightblue" stroke="midnightblue" points="111.5,-48.3619 115,-58.3619 118.5,-48.3619 111.5,-48.3619"/>
</g>
<!-- Node8&#45;&gt;Node6 -->
<g id="edge20" class="edge"><title>Node8&#45;&gt;Node6</title>
<path fill="none" stroke="midnightblue" d="M137.803,-52.2587C151.28,-42.3641 167.935,-30.1361 179.602,-21.5707"/>
<polygon fill="midnightblue" stroke="midnightblue" points="135.479,-49.6225 129.49,-58.3619 139.622,-55.2651 135.479,-49.6225"/>
</g>
<!-- Node9&#45;&gt;Node7 -->
<g id="edge24" class="edge"><title>Node9&#45;&gt;Node7</title>
<path fill="none" stroke="midnightblue" d="M344.274,-49.079C348.573,-39.8422 353.51,-29.2388 357.079,-21.5707"/>
<polygon fill="midnightblue" stroke="midnightblue" points="341,-47.819 339.952,-58.3619 347.346,-50.7732 341,-47.819"/>
</g>
</g>
</svg>
