<?xml version="1.0" encoding="UTF-8" standalone="no"?>
<!DOCTYPE svg PUBLIC "-//W3C//DTD SVG 1.1//EN"
 "http://www.w3.org/Graphics/SVG/1.1/DTD/svg11.dtd">
<!-- Generated by graphviz version 2.36.0 (20140111.2315)
 -->
<!-- Title: Connection Pages: 1 -->
<svg width="92pt" height="96pt"
 viewBox="0.00 0.00 92.00 96.00" xmlns="http://www.w3.org/2000/svg" xmlns:xlink="http://www.w3.org/1999/xlink">
<g id="graph0" class="graph" transform="scale(1 1) rotate(0) translate(4 92)">
<title>Connection</title>
<!-- Node1 -->
<g id="node1" class="node"><title>Node1</title>
<polygon fill="#bfbfbf" stroke="black" points="0,-0.5 0,-19.5 66,-19.5 66,-0.5 0,-0.5"/>
<text text-anchor="middle" x="33" y="-7.5" font-family="Helvetica,sans-Serif" font-size="10.00">Connection</text>
</g>
<!-- Node1&#45;&gt;Node1 -->
<g id="edge1" class="edge"><title>Node1&#45;&gt;Node1</title>
<path fill="none" stroke="midnightblue" d="M76.6469,-15.2548C81.1326,-14.22 84,-12.4684 84,-10 84,-5.94922 76.2782,-3.82889 66.3545,-3.63901"/>
<polygon fill="midnightblue" stroke="midnightblue" points="75.9232,-11.8123 66.3545,-16.361 76.6713,-18.7722 75.9232,-11.8123"/>
</g>
<!-- Node2 -->
<g id="node2" class="node"><title>Node2</title>
<g id="a_node2"><a xlink:href="classthrill_1_1net_1_1tcp_1_1Socket.html" target="_top" xlink:title="Socket is a light&#45;weight wrapper around the BSD socket API. ">
<polygon fill="none" stroke="black" points="9.5,-68.5 9.5,-87.5 56.5,-87.5 56.5,-68.5 9.5,-68.5"/>
<text text-anchor="middle" x="33" y="-75.5" font-family="Helvetica,sans-Serif" font-size="10.00">Socket</text>
</a>
</g>
</g>
<!-- Node2&#45;&gt;Node1 -->
<g id="edge2" class="edge"><title>Node2&#45;&gt;Node1</title>
<path fill="none" stroke="#9a32cd" stroke-dasharray="5,2" d="M33,-58.0413C33,-45.4724 33,-29.5631 33,-19.8411"/>
<polygon fill="#9a32cd" stroke="#9a32cd" points="29.5001,-58.3716 33,-68.3717 36.5001,-58.3717 29.5001,-58.3716"/>
<text text-anchor="middle" x="52" y="-41.5" font-family="Helvetica,sans-Serif" font-size="10.00"> socket_</text>
</g>
</g>
</svg>
