<?xml version="1.0" encoding="UTF-8" standalone="no"?>
<!DOCTYPE svg PUBLIC "-//W3C//DTD SVG 1.1//EN"
 "http://www.w3.org/Graphics/SVG/1.1/DTD/svg11.dtd">
<!-- Generated by graphviz version 2.40.1 (20161225.0304)
 -->
<!-- Title: LocationDetection&lt; HashCount &gt; Pages: 1 -->
<svg width="426pt" height="110pt"
 viewBox="0.00 0.00 426.00 110.00" xmlns="http://www.w3.org/2000/svg" xmlns:xlink="http://www.w3.org/1999/xlink">
<g id="graph0" class="graph" transform="scale(1 1) rotate(0) translate(4 106)">
<title>LocationDetection&lt; HashCount &gt;</title>
<!-- Node0 -->
<g id="node1" class="node">
<title>Node0</title>
<polygon fill="#bfbfbf" stroke="#000000" points="0,-36 0,-66 113,-66 113,-36 0,-36"/>
<text text-anchor="start" x="8" y="-54" font-family="Helvetica,sans-Serif" font-size="10.00" fill="#000000">LocationDetection&lt;</text>
<text text-anchor="middle" x="56.5" y="-43" font-family="Helvetica,sans-Serif" font-size="10.00" fill="#000000"> HashCount &gt;</text>
</g>
<!-- Node1 -->
<g id="node2" class="node">
<title>Node1</title>
<g id="a_node2"><a xlink:href="classthrill_1_1core_1_1LocationDetection.html" target="_top" xlink:title="LocationDetection\&lt;\l thrill::api::GroupByNode\l::HashCount \&gt;">
<polygon fill="none" stroke="#000000" points="281,-60.5 281,-101.5 418,-101.5 418,-60.5 281,-60.5"/>
<text text-anchor="start" x="289" y="-89.5" font-family="Helvetica,sans-Serif" font-size="10.00" fill="#000000">LocationDetection&lt;</text>
<text text-anchor="start" x="289" y="-78.5" font-family="Helvetica,sans-Serif" font-size="10.00" fill="#000000"> thrill::api::GroupByNode</text>
<text text-anchor="middle" x="349.5" y="-67.5" font-family="Helvetica,sans-Serif" font-size="10.00" fill="#000000">::HashCount &gt;</text>
</a>
</g>
</g>
<!-- Node0&#45;&gt;Node1 -->
<g id="edge1" class="edge">
<title>Node0&#45;&gt;Node1</title>
<path fill="none" stroke="#ffa500" stroke-dasharray="5,2" d="M123.4491,-57.8549C170.583,-62.6809 233.4844,-69.1213 280.9664,-73.9829"/>
<polygon fill="#ffa500" stroke="#ffa500" points="123.6453,-54.3567 113.3408,-56.8199 122.9322,-61.3203 123.6453,-54.3567"/>
<text text-anchor="start" x="131" y="-86" font-family="Helvetica,sans-Serif" font-size="10.00" fill="#000000"> &lt; thrill::api::GroupByNode</text>
<text text-anchor="middle" x="197" y="-75" font-family="Helvetica,sans-Serif" font-size="10.00" fill="#000000">::HashCount &gt;</text>
</g>
<!-- Node2 -->
<g id="node3" class="node">
<title>Node2</title>
<g id="a_node3"><a xlink:href="classthrill_1_1core_1_1LocationDetection.html" target="_top" xlink:title="LocationDetection\&lt;\l thrill::api::JoinNode\l::HashCount \&gt;">
<polygon fill="none" stroke="#000000" points="293,-.5 293,-41.5 406,-41.5 406,-.5 293,-.5"/>
<text text-anchor="start" x="301" y="-29.5" font-family="Helvetica,sans-Serif" font-size="10.00" fill="#000000">LocationDetection&lt;</text>
<text text-anchor="start" x="301" y="-18.5" font-family="Helvetica,sans-Serif" font-size="10.00" fill="#000000"> thrill::api::JoinNode</text>
<text text-anchor="middle" x="349.5" y="-7.5" font-family="Helvetica,sans-Serif" font-size="10.00" fill="#000000">::HashCount &gt;</text>
</a>
</g>
</g>
<!-- Node0&#45;&gt;Node2 -->
<g id="edge2" class="edge">
<title>Node0&#45;&gt;Node2</title>
<path fill="none" stroke="#ffa500" stroke-dasharray="5,2" d="M123.2974,-34.2459C125.8915,-33.7909 128.4658,-33.3726 131,-33 185.5014,-24.9877 248.3613,-22.202 292.6261,-21.2927"/>
<polygon fill="#ffa500" stroke="#ffa500" points="122.4042,-30.8531 113.2369,-36.1644 123.7155,-37.7292 122.4042,-30.8531"/>
<text text-anchor="start" x="143" y="-47" font-family="Helvetica,sans-Serif" font-size="10.00" fill="#000000"> &lt; thrill::api::JoinNode</text>
<text text-anchor="middle" x="197" y="-36" font-family="Helvetica,sans-Serif" font-size="10.00" fill="#000000">::HashCount &gt;</text>
</g>
</g>
</svg>
