<?xml version="1.0" encoding="UTF-8" standalone="no"?>
<!DOCTYPE svg PUBLIC "-//W3C//DTD SVG 1.1//EN"
 "http://www.w3.org/Graphics/SVG/1.1/DTD/svg11.dtd">
<!-- Generated by graphviz version 2.36.0 (20140111.2315)
 -->
<!-- Title: FileBase Pages: 1 -->
<svg width="407pt" height="196pt"
 viewBox="0.00 0.00 407.00 196.00" xmlns="http://www.w3.org/2000/svg" xmlns:xlink="http://www.w3.org/1999/xlink">
<g id="graph0" class="graph" transform="scale(1 1) rotate(0) translate(4 192)">
<title>FileBase</title>
<!-- Node1 -->
<g id="node1" class="node"><title>Node1</title>
<polygon fill="#bfbfbf" stroke="black" points="185.5,-112.5 185.5,-131.5 240.5,-131.5 240.5,-112.5 185.5,-112.5"/>
<text text-anchor="middle" x="213" y="-119.5" font-family="Helvetica,sans-Serif" font-size="10.00">FileBase</text>
</g>
<!-- Node3 -->
<g id="node3" class="node"><title>Node3</title>
<g id="a_node3"><a xlink:href="classthrill_1_1io_1_1DiskQueuedFile.html" target="_top" xlink:title="Implementation of some file methods based on serving_request. ">
<polygon fill="none" stroke="black" points="170,-56.5 170,-75.5 256,-75.5 256,-56.5 170,-56.5"/>
<text text-anchor="middle" x="213" y="-63.5" font-family="Helvetica,sans-Serif" font-size="10.00">DiskQueuedFile</text>
</a>
</g>
</g>
<!-- Node1&#45;&gt;Node3 -->
<g id="edge2" class="edge"><title>Node1&#45;&gt;Node3</title>
<path fill="none" stroke="midnightblue" d="M213,-101.805C213,-92.9102 213,-82.7798 213,-75.7511"/>
<polygon fill="midnightblue" stroke="midnightblue" points="209.5,-102.083 213,-112.083 216.5,-102.083 209.5,-102.083"/>
</g>
<!-- Node9 -->
<g id="node9" class="node"><title>Node9</title>
<g id="a_node9"><a xlink:href="classthrill_1_1io_1_1UfsFileBase.html" target="_top" xlink:title="Base for UNIX file system implementations. ">
<polygon fill="none" stroke="black" points="80.5,-56.5 80.5,-75.5 151.5,-75.5 151.5,-56.5 80.5,-56.5"/>
<text text-anchor="middle" x="116" y="-63.5" font-family="Helvetica,sans-Serif" font-size="10.00">UfsFileBase</text>
</a>
</g>
</g>
<!-- Node1&#45;&gt;Node9 -->
<g id="edge8" class="edge"><title>Node1&#45;&gt;Node9</title>
<path fill="none" stroke="midnightblue" d="M188.665,-107.453C170.757,-97.4835 146.946,-84.2279 131.546,-75.6545"/>
<polygon fill="midnightblue" stroke="midnightblue" points="186.975,-110.518 197.415,-112.324 190.38,-104.402 186.975,-110.518"/>
</g>
<!-- Node10 -->
<g id="node10" class="node"><title>Node10</title>
<g id="a_node10"><a xlink:href="classthrill_1_1io_1_1WfsFileBase.html" target="_top" xlink:title="Base for Windows file system implementations. ">
<polygon fill="none" stroke="black" points="301.5,-56.5 301.5,-75.5 374.5,-75.5 374.5,-56.5 301.5,-56.5"/>
<text text-anchor="middle" x="338" y="-63.5" font-family="Helvetica,sans-Serif" font-size="10.00">WfsFileBase</text>
</a>
</g>
</g>
<!-- Node1&#45;&gt;Node10 -->
<g id="edge12" class="edge"><title>Node1&#45;&gt;Node10</title>
<path fill="none" stroke="midnightblue" d="M242.241,-108.368C265.65,-98.2553 297.841,-84.3486 318.286,-75.5164"/>
<polygon fill="midnightblue" stroke="midnightblue" points="240.599,-105.265 232.807,-112.444 243.375,-111.691 240.599,-105.265"/>
</g>
<!-- Node2 -->
<g id="node2" class="node"><title>Node2</title>
<g id="a_node2"><a xlink:href="classtlx_1_1ReferenceCounter.html" target="_top" xlink:title="Provides reference counting abilities for use with CountingPtr. ">
<polygon fill="none" stroke="black" points="165,-168.5 165,-187.5 261,-187.5 261,-168.5 165,-168.5"/>
<text text-anchor="middle" x="213" y="-175.5" font-family="Helvetica,sans-Serif" font-size="10.00">ReferenceCounter</text>
</a>
</g>
</g>
<!-- Node2&#45;&gt;Node1 -->
<g id="edge1" class="edge"><title>Node2&#45;&gt;Node1</title>
<path fill="none" stroke="midnightblue" d="M213,-157.805C213,-148.91 213,-138.78 213,-131.751"/>
<polygon fill="midnightblue" stroke="midnightblue" points="209.5,-158.083 213,-168.083 216.5,-158.083 209.5,-158.083"/>
</g>
<!-- Node4 -->
<g id="node4" class="node"><title>Node4</title>
<g id="a_node4"><a xlink:href="classthrill_1_1io_1_1LinuxaioFile.html" target="_top" xlink:title="LinuxaioFile">
<polygon fill="none" stroke="black" points="0,-0.5 0,-19.5 68,-19.5 68,-0.5 0,-0.5"/>
<text text-anchor="middle" x="34" y="-7.5" font-family="Helvetica,sans-Serif" font-size="10.00">LinuxaioFile</text>
</a>
</g>
</g>
<!-- Node3&#45;&gt;Node4 -->
<g id="edge3" class="edge"><title>Node3&#45;&gt;Node4</title>
<path fill="none" stroke="midnightblue" d="M174.669,-53.4363C140.92,-43.2551 92.5529,-28.664 62.2304,-19.5164"/>
<polygon fill="midnightblue" stroke="midnightblue" points="174.052,-56.9061 184.637,-56.4435 176.074,-50.2044 174.052,-56.9061"/>
</g>
<!-- Node5 -->
<g id="node5" class="node"><title>Node5</title>
<g id="a_node5"><a xlink:href="classthrill_1_1io_1_1MemoryFile.html" target="_top" xlink:title="Implementation of file based on new[] and memcpy. ">
<polygon fill="none" stroke="black" points="247,-0.5 247,-19.5 315,-19.5 315,-0.5 247,-0.5"/>
<text text-anchor="middle" x="281" y="-7.5" font-family="Helvetica,sans-Serif" font-size="10.00">MemoryFile</text>
</a>
</g>
</g>
<!-- Node3&#45;&gt;Node5 -->
<g id="edge4" class="edge"><title>Node3&#45;&gt;Node5</title>
<path fill="none" stroke="midnightblue" d="M231.762,-50.1008C244,-40.3824 259.559,-28.0269 269.876,-19.8339"/>
<polygon fill="midnightblue" stroke="midnightblue" points="229.58,-47.3642 223.925,-56.324 233.933,-52.846 229.58,-47.3642"/>
</g>
<!-- Node6 -->
<g id="node6" class="node"><title>Node6</title>
<g id="a_node6"><a xlink:href="classthrill_1_1io_1_1MmapFile.html" target="_top" xlink:title="Implementation of memory mapped access file. ">
<polygon fill="none" stroke="black" points="86.5,-0.5 86.5,-19.5 145.5,-19.5 145.5,-0.5 86.5,-0.5"/>
<text text-anchor="middle" x="116" y="-7.5" font-family="Helvetica,sans-Serif" font-size="10.00">MmapFile</text>
</a>
</g>
</g>
<!-- Node3&#45;&gt;Node6 -->
<g id="edge5" class="edge"><title>Node3&#45;&gt;Node6</title>
<path fill="none" stroke="midnightblue" d="M188.665,-51.4526C170.757,-41.4835 146.946,-28.2279 131.546,-19.6545"/>
<polygon fill="midnightblue" stroke="midnightblue" points="186.975,-54.5179 197.415,-56.324 190.38,-48.4018 186.975,-54.5179"/>
</g>
<!-- Node7 -->
<g id="node7" class="node"><title>Node7</title>
<g id="a_node7"><a xlink:href="classthrill_1_1io_1_1SyscallFile.html" target="_top" xlink:title="Implementation of file based on UNIX syscalls. ">
<polygon fill="none" stroke="black" points="163.5,-0.5 163.5,-19.5 228.5,-19.5 228.5,-0.5 163.5,-0.5"/>
<text text-anchor="middle" x="196" y="-7.5" font-family="Helvetica,sans-Serif" font-size="10.00">SyscallFile</text>
</a>
</g>
</g>
<!-- Node3&#45;&gt;Node7 -->
<g id="edge6" class="edge"><title>Node3&#45;&gt;Node7</title>
<path fill="none" stroke="midnightblue" d="M207.143,-46.3956C204.299,-37.362 201.017,-26.936 198.755,-19.7511"/>
<polygon fill="midnightblue" stroke="midnightblue" points="203.851,-47.5955 210.193,-56.083 210.528,-45.4935 203.851,-47.5955"/>
</g>
<!-- Node8 -->
<g id="node8" class="node"><title>Node8</title>
<g id="a_node8"><a xlink:href="classthrill_1_1io_1_1WincallFile.html" target="_top" xlink:title="Implementation of file based on Windows native I/O calls. ">
<polygon fill="none" stroke="black" points="333.5,-0.5 333.5,-19.5 398.5,-19.5 398.5,-0.5 333.5,-0.5"/>
<text text-anchor="middle" x="366" y="-7.5" font-family="Helvetica,sans-Serif" font-size="10.00">WincallFile</text>
</a>
</g>
</g>
<!-- Node3&#45;&gt;Node8 -->
<g id="edge7" class="edge"><title>Node3&#45;&gt;Node8</title>
<path fill="none" stroke="midnightblue" d="M246.889,-53.0392C275.677,-42.8786 316.287,-28.5457 341.87,-19.5164"/>
<polygon fill="midnightblue" stroke="midnightblue" points="245.508,-49.8148 237.243,-56.4435 247.838,-56.4157 245.508,-49.8148"/>
</g>
<!-- Node9&#45;&gt;Node4 -->
<g id="edge9" class="edge"><title>Node9&#45;&gt;Node4</title>
<path fill="none" stroke="midnightblue" d="M94.1669,-50.6221C79.1871,-40.7574 59.8025,-27.9919 47.142,-19.6545"/>
<polygon fill="midnightblue" stroke="midnightblue" points="92.5486,-53.7471 102.825,-56.324 96.3985,-47.9009 92.5486,-53.7471"/>
</g>
<!-- Node9&#45;&gt;Node6 -->
<g id="edge10" class="edge"><title>Node9&#45;&gt;Node6</title>
<path fill="none" stroke="midnightblue" d="M116,-45.8045C116,-36.9102 116,-26.7798 116,-19.7511"/>
<polygon fill="midnightblue" stroke="midnightblue" points="112.5,-46.083 116,-56.083 119.5,-46.083 112.5,-46.083"/>
</g>
<!-- Node9&#45;&gt;Node7 -->
<g id="edge11" class="edge"><title>Node9&#45;&gt;Node7</title>
<path fill="none" stroke="midnightblue" d="M137.301,-50.6221C151.915,-40.7574 170.827,-27.9919 183.179,-19.6545"/>
<polygon fill="midnightblue" stroke="midnightblue" points="135.184,-47.8282 128.853,-56.324 139.1,-53.6302 135.184,-47.8282"/>
</g>
<!-- Node10&#45;&gt;Node8 -->
<g id="edge13" class="edge"><title>Node10&#45;&gt;Node8</title>
<path fill="none" stroke="midnightblue" d="M347.342,-46.9827C352.095,-37.8168 357.656,-27.0922 361.462,-19.7511"/>
<polygon fill="midnightblue" stroke="midnightblue" points="344.12,-45.5943 342.624,-56.083 350.334,-48.8166 344.12,-45.5943"/>
</g>
</g>
</svg>
