<?xml version="1.0" encoding="UTF-8" standalone="no"?>
<!DOCTYPE svg PUBLIC "-//W3C//DTD SVG 1.1//EN"
 "http://www.w3.org/Graphics/SVG/1.1/DTD/svg11.dtd">
<!-- Generated by graphviz version 2.36.0 (20140111.2315)
 -->
<!-- Title: SharedState&lt; ValueType &gt; Pages: 1 -->
<svg width="280pt" height="96pt"
 viewBox="0.00 0.00 280.00 96.00" xmlns="http://www.w3.org/2000/svg" xmlns:xlink="http://www.w3.org/1999/xlink">
<g id="graph0" class="graph" transform="scale(1 1) rotate(0) translate(4 92)">
<title>SharedState&lt; ValueType &gt;</title>
<!-- Node1 -->
<g id="node1" class="node"><title>Node1</title>
<polygon fill="#bfbfbf" stroke="black" points="75.5,-68.5 75.5,-87.5 210.5,-87.5 210.5,-68.5 75.5,-68.5"/>
<text text-anchor="middle" x="143" y="-75.5" font-family="Helvetica,sans-Serif" font-size="10.00">SharedState&lt; ValueType &gt;</text>
</g>
<!-- Node2 -->
<g id="node2" class="node"><title>Node2</title>
<g id="a_node2"><a xlink:href="classthrill_1_1common_1_1SharedState.html" target="_top" xlink:title="SharedState\&lt; ThreadState \&gt;">
<polygon fill="none" stroke="black" points="0,-0.5 0,-19.5 142,-19.5 142,-0.5 0,-0.5"/>
<text text-anchor="middle" x="71" y="-7.5" font-family="Helvetica,sans-Serif" font-size="10.00">SharedState&lt; ThreadState &gt;</text>
</a>
</g>
</g>
<!-- Node1&#45;&gt;Node2 -->
<g id="edge1" class="edge"><title>Node1&#45;&gt;Node2</title>
<path fill="none" stroke="orange" stroke-dasharray="5,2" d="M125.995,-61.4122C111.851,-48.4468 92.2247,-30.4559 80.6449,-19.8411"/>
<polygon fill="orange" stroke="orange" points="123.851,-64.1944 133.587,-68.3717 128.581,-59.0343 123.851,-64.1944"/>
<text text-anchor="middle" x="151.5" y="-41.5" font-family="Helvetica,sans-Serif" font-size="10.00"> &lt; ThreadState &gt;</text>
</g>
<!-- Node3 -->
<g id="node3" class="node"><title>Node3</title>
<g id="a_node3"><a xlink:href="classthrill_1_1common_1_1SharedState.html" target="_top" xlink:title="SharedState\&lt; State \&gt;">
<polygon fill="none" stroke="black" points="160,-0.5 160,-19.5 272,-19.5 272,-0.5 160,-0.5"/>
<text text-anchor="middle" x="216" y="-7.5" font-family="Helvetica,sans-Serif" font-size="10.00">SharedState&lt; State &gt;</text>
</a>
</g>
</g>
<!-- Node1&#45;&gt;Node3 -->
<g id="edge2" class="edge"><title>Node1&#45;&gt;Node3</title>
<path fill="none" stroke="orange" stroke-dasharray="5,2" d="M173.766,-63.7885C180.585,-59.9733 187.431,-55.3633 193,-50 202.059,-41.276 208.779,-28.2226 212.545,-19.6594"/>
<polygon fill="orange" stroke="orange" points="171.903,-60.8112 164.608,-68.4947 175.102,-67.0373 171.903,-60.8112"/>
<text text-anchor="middle" x="224.5" y="-41.5" font-family="Helvetica,sans-Serif" font-size="10.00"> &lt; State &gt;</text>
</g>
</g>
</svg>
