<?xml version="1.0" encoding="UTF-8" standalone="no"?>
<!DOCTYPE svg PUBLIC "-//W3C//DTD SVG 1.1//EN"
 "http://www.w3.org/Graphics/SVG/1.1/DTD/svg11.dtd">
<!-- Generated by graphviz version 2.36.0 (20140111.2315)
 -->
<!-- Title: BufferBuilder Pages: 1 -->
<svg width="140pt" height="178pt"
 viewBox="0.00 0.00 140.00 178.00" xmlns="http://www.w3.org/2000/svg" xmlns:xlink="http://www.w3.org/1999/xlink">
<g id="graph0" class="graph" transform="scale(1 1) rotate(0) translate(4 174)">
<title>BufferBuilder</title>
<!-- Node1 -->
<g id="node1" class="node"><title>Node1</title>
<polygon fill="#bfbfbf" stroke="black" points="17.5,-0.5 17.5,-19.5 90.5,-19.5 90.5,-0.5 17.5,-0.5"/>
<text text-anchor="middle" x="54" y="-7.5" font-family="Helvetica,sans-Serif" font-size="10.00">BufferBuilder</text>
</g>
<!-- Node2 -->
<g id="node2" class="node"><title>Node2</title>
<g id="a_node2"><a xlink:href="classthrill_1_1common_1_1ItemWriterToolsBase.html" target="_top" xlink:title="ItemWriterToolsBase\l\&lt; BufferBuilder \&gt;">
<polygon fill="none" stroke="black" points="-0.5,-59 -0.5,-89 108.5,-89 108.5,-59 -0.5,-59"/>
<text text-anchor="start" x="7.5" y="-77" font-family="Helvetica,sans-Serif" font-size="10.00">ItemWriterToolsBase</text>
<text text-anchor="middle" x="54" y="-66" font-family="Helvetica,sans-Serif" font-size="10.00">&lt; BufferBuilder &gt;</text>
</a>
</g>
</g>
<!-- Node2&#45;&gt;Node1 -->
<g id="edge1" class="edge"><title>Node2&#45;&gt;Node1</title>
<path fill="none" stroke="midnightblue" d="M54,-48.8706C54,-38.6625 54,-27.4077 54,-19.8419"/>
<polygon fill="midnightblue" stroke="midnightblue" points="50.5001,-48.9312 54,-58.9312 57.5001,-48.9313 50.5001,-48.9312"/>
</g>
<!-- Node3 -->
<g id="node3" class="node"><title>Node3</title>
<g id="a_node3"><a xlink:href="classthrill_1_1common_1_1ItemWriterToolsBase.html" target="_top" xlink:title="CRTP class to enhance item/memory writer classes with Varint encoding and String encoding. ">
<polygon fill="none" stroke="black" points="-0.5,-139 -0.5,-169 108.5,-169 108.5,-139 -0.5,-139"/>
<text text-anchor="start" x="7.5" y="-157" font-family="Helvetica,sans-Serif" font-size="10.00">ItemWriterToolsBase</text>
<text text-anchor="middle" x="54" y="-146" font-family="Helvetica,sans-Serif" font-size="10.00">&lt; Writer &gt;</text>
</a>
</g>
</g>
<!-- Node3&#45;&gt;Node2 -->
<g id="edge2" class="edge"><title>Node3&#45;&gt;Node2</title>
<path fill="none" stroke="orange" stroke-dasharray="5,2" d="M54,-128.564C54,-115.624 54,-100.186 54,-89.2157"/>
<polygon fill="orange" stroke="orange" points="50.5001,-128.694 54,-138.694 57.5001,-128.694 50.5001,-128.694"/>
<text text-anchor="middle" x="93" y="-111.5" font-family="Helvetica,sans-Serif" font-size="10.00"> &lt; BufferBuilder &gt;</text>
</g>
</g>
</svg>
