<?xml version="1.0" encoding="UTF-8" standalone="no"?>
<!DOCTYPE svg PUBLIC "-//W3C//DTD SVG 1.1//EN"
 "http://www.w3.org/Graphics/SVG/1.1/DTD/svg11.dtd">
<!-- Generated by graphviz version 2.26.3 (20100126.1600)
 -->
<!-- Title: ActionNode Pages: 1 -->
<svg width="1014pt" height="329pt"
 viewBox="0.00 0.00 1014.00 329.03" xmlns="http://www.w3.org/2000/svg" xmlns:xlink="http://www.w3.org/1999/xlink">
<g id="graph1" class="graph" transform="scale(1 1) rotate(0) translate(4 325.029)">
<title>ActionNode</title>
<!-- Node1 -->
<g id="node1" class="node"><title>Node1</title>
<polygon fill="#bfbfbf" stroke="black" points="228,-131.5 228,-152.5 296,-152.5 296,-131.5 228,-131.5"/>
<text text-anchor="middle" x="262" y="-139.5" font-family="Helvetica,sans-Serif" font-size="10.00">ActionNode</text>
</g>
<!-- Node4 -->
<g id="node7" class="node"><title>Node4</title>
<a xlink:href="classthrill_1_1api_1_1ActionResultNode.html" target="_top" xlink:title="ActionResultNode\&lt; size_t \&gt;">
<polygon fill="none" stroke="black" points="671,-287.5 671,-308.5 811,-308.5 811,-287.5 671,-287.5"/>
<text text-anchor="middle" x="741" y="-295.5" font-family="Helvetica,sans-Serif" font-size="10.00">ActionResultNode&lt; size_t &gt;</text>
</a>
</g>
<!-- Node1&#45;&gt;Node4 -->
<g id="edge6" class="edge"><title>Node1&#45;&gt;Node4</title>
<path fill="none" stroke="midnightblue" d="M268.052,-162.381C277.409,-190.108 298.154,-239.108 334,-264 442.618,-339.428 608.986,-323 691.312,-308.521"/>
<polygon fill="midnightblue" stroke="midnightblue" points="271.295,-161.031 264.92,-152.57 264.627,-163.16 271.295,-161.031"/>
</g>
<!-- Node6 -->
<g id="node11" class="node"><title>Node6</title>
<a xlink:href="classthrill_1_1api_1_1ActionResultNode.html" target="_top" xlink:title="ActionResultNode\&lt; std\l::vector\&lt; ValueType \&gt; \&gt;">
<polygon fill="none" stroke="black" points="679.5,-218 679.5,-252 802.5,-252 802.5,-218 679.5,-218"/>
<text text-anchor="start" x="687.5" y="-239" font-family="Helvetica,sans-Serif" font-size="10.00">ActionResultNode&lt; std</text>
<text text-anchor="middle" x="741" y="-226" font-family="Helvetica,sans-Serif" font-size="10.00">::vector&lt; ValueType &gt; &gt;</text>
</a>
</g>
<!-- Node1&#45;&gt;Node6 -->
<g id="edge10" class="edge"><title>Node1&#45;&gt;Node6</title>
<path fill="none" stroke="midnightblue" d="M305.295,-155.079C308.228,-155.783 311.149,-156.432 314,-157 457.877,-185.654 499.949,-157.352 642,-194 664.156,-199.716 687.876,-209.404 706.542,-217.928"/>
<polygon fill="midnightblue" stroke="midnightblue" points="305.92,-151.626 295.363,-152.521 304.174,-158.405 305.92,-151.626"/>
</g>
<!-- Node9 -->
<g id="node17" class="node"><title>Node9</title>
<a xlink:href="classthrill_1_1api_1_1ActionResultNode.html" target="_top" xlink:title="ActionResultNode\&lt; ValueType \&gt;">
<polygon fill="none" stroke="black" points="660.5,-139.5 660.5,-160.5 821.5,-160.5 821.5,-139.5 660.5,-139.5"/>
<text text-anchor="middle" x="741" y="-147.5" font-family="Helvetica,sans-Serif" font-size="10.00">ActionResultNode&lt; ValueType &gt;</text>
</a>
</g>
<!-- Node1&#45;&gt;Node9 -->
<g id="edge16" class="edge"><title>Node1&#45;&gt;Node9</title>
<path fill="none" stroke="midnightblue" d="M306.355,-142.741C386.949,-144.087 558.477,-146.952 660.299,-148.652"/>
<polygon fill="midnightblue" stroke="midnightblue" points="306.122,-139.237 296.065,-142.569 306.005,-146.236 306.122,-139.237"/>
</g>
<!-- Node11 -->
<g id="node21" class="node"><title>Node11</title>
<a xlink:href="classthrill_1_1api_1_1ActionResultNode.html" target="_top" xlink:title="ActionResultNode\&lt; Result\lType \&gt;">
<polygon fill="none" stroke="black" points="345,-221 345,-255 479,-255 479,-221 345,-221"/>
<text text-anchor="start" x="353" y="-242" font-family="Helvetica,sans-Serif" font-size="10.00">ActionResultNode&lt; Result</text>
<text text-anchor="middle" x="412" y="-229" font-family="Helvetica,sans-Serif" font-size="10.00">Type &gt;</text>
</a>
</g>
<!-- Node1&#45;&gt;Node11 -->
<g id="edge20" class="edge"><title>Node1&#45;&gt;Node11</title>
<path fill="none" stroke="midnightblue" d="M277.307,-160.372C287.001,-171.175 300.264,-184.528 314,-194 329.507,-204.693 348.032,-213.798 364.78,-220.903"/>
<polygon fill="midnightblue" stroke="midnightblue" points="279.848,-157.96 270.642,-152.715 274.568,-162.556 279.848,-157.96"/>
</g>
<!-- Node12 -->
<g id="node26" class="node"><title>Node12</title>
<a xlink:href="exceptionthrill_1_1api_1_1WriteBinaryNode.html" target="_top" xlink:title="WriteBinaryNode\&lt; ValueType \&gt;">
<polygon fill="none" stroke="black" points="334.5,-92.5 334.5,-113.5 489.5,-113.5 489.5,-92.5 334.5,-92.5"/>
<text text-anchor="middle" x="412" y="-100.5" font-family="Helvetica,sans-Serif" font-size="10.00">WriteBinaryNode&lt; ValueType &gt;</text>
</a>
</g>
<!-- Node1&#45;&gt;Node12 -->
<g id="edge28" class="edge"><title>Node1&#45;&gt;Node12</title>
<path fill="none" stroke="midnightblue" d="M305.963,-130.12C308.682,-129.399 311.377,-128.688 314,-128 332.344,-123.191 352.652,-117.99 370.002,-113.584"/>
<polygon fill="midnightblue" stroke="midnightblue" points="304.868,-126.79 296.108,-132.748 306.672,-133.553 304.868,-126.79"/>
</g>
<!-- Node13 -->
<g id="node28" class="node"><title>Node13</title>
<a xlink:href="exceptionthrill_1_1api_1_1WriteLinesNode.html" target="_top" xlink:title="WriteLinesNode\&lt; ValueType \&gt;">
<polygon fill="none" stroke="black" points="336.5,-52.5 336.5,-73.5 487.5,-73.5 487.5,-52.5 336.5,-52.5"/>
<text text-anchor="middle" x="412" y="-60.5" font-family="Helvetica,sans-Serif" font-size="10.00">WriteLinesNode&lt; ValueType &gt;</text>
</a>
</g>
<!-- Node1&#45;&gt;Node13 -->
<g id="edge30" class="edge"><title>Node1&#45;&gt;Node13</title>
<path fill="none" stroke="midnightblue" d="M279.426,-123.979C293.114,-110.814 313.27,-93.4973 334,-83 341.483,-79.2107 349.743,-76.0989 358.005,-73.5554"/>
<polygon fill="midnightblue" stroke="midnightblue" points="276.807,-121.647 272.159,-131.168 281.73,-126.624 276.807,-121.647"/>
</g>
<!-- Node14 -->
<g id="node30" class="node"><title>Node14</title>
<a xlink:href="exceptionthrill_1_1api_1_1WriteLinesOneNode.html" target="_top" xlink:title="WriteLinesOneNode\&lt;\l ValueType \&gt;">
<polygon fill="none" stroke="black" points="357,-0 357,-34 467,-34 467,-0 357,-0"/>
<text text-anchor="start" x="365" y="-21" font-family="Helvetica,sans-Serif" font-size="10.00">WriteLinesOneNode&lt;</text>
<text text-anchor="middle" x="412" y="-8" font-family="Helvetica,sans-Serif" font-size="10.00"> ValueType &gt;</text>
</a>
</g>
<!-- Node1&#45;&gt;Node14 -->
<g id="edge32" class="edge"><title>Node1&#45;&gt;Node14</title>
<path fill="none" stroke="midnightblue" d="M271.594,-122.171C283.351,-99.863 305.298,-64.0094 334,-43 340.911,-37.9413 348.867,-33.8256 356.999,-30.4889"/>
<polygon fill="midnightblue" stroke="midnightblue" points="268.332,-120.865 266.922,-131.366 274.572,-124.036 268.332,-120.865"/>
</g>
<!-- Node2 -->
<g id="node2" class="node"><title>Node2</title>
<a xlink:href="classthrill_1_1api_1_1DIABase.html" target="_top" xlink:title="The DIABase is the untyped super class of DIANode.">
<polygon fill="none" stroke="black" points="134,-131.5 134,-152.5 190,-152.5 190,-131.5 134,-131.5"/>
<text text-anchor="middle" x="162" y="-139.5" font-family="Helvetica,sans-Serif" font-size="10.00">DIABase</text>
</a>
</g>
<!-- Node2&#45;&gt;Node1 -->
<g id="edge2" class="edge"><title>Node2&#45;&gt;Node1</title>
<path fill="none" stroke="midnightblue" d="M200.362,-142C209.358,-142 218.886,-142 227.692,-142"/>
<polygon fill="midnightblue" stroke="midnightblue" points="200.122,-138.5 190.122,-142 200.122,-145.5 200.122,-138.5"/>
</g>
<!-- Node3 -->
<g id="node4" class="node"><title>Node3</title>
<a xlink:href="classtlx_1_1ReferenceCounter.html" target="_top" xlink:title="Provides reference counting abilities for use with CountingPtr.">
<polygon fill="none" stroke="black" points="0,-131.5 0,-152.5 96,-152.5 96,-131.5 0,-131.5"/>
<text text-anchor="middle" x="48" y="-139.5" font-family="Helvetica,sans-Serif" font-size="10.00">ReferenceCounter</text>
</a>
</g>
<!-- Node3&#45;&gt;Node2 -->
<g id="edge4" class="edge"><title>Node3&#45;&gt;Node2</title>
<path fill="none" stroke="midnightblue" d="M106.072,-142C115.753,-142 125.392,-142 133.873,-142"/>
<polygon fill="midnightblue" stroke="midnightblue" points="106.016,-138.5 96.0159,-142 106.016,-145.5 106.016,-138.5"/>
</g>
<!-- Node5 -->
<g id="node9" class="node"><title>Node5</title>
<a xlink:href="exceptionthrill_1_1api_1_1SizeNode.html" target="_top" xlink:title="SizeNode\&lt; ValueType \&gt;">
<polygon fill="none" stroke="black" points="871,-287.5 871,-308.5 995,-308.5 995,-287.5 871,-287.5"/>
<text text-anchor="middle" x="933" y="-295.5" font-family="Helvetica,sans-Serif" font-size="10.00">SizeNode&lt; ValueType &gt;</text>
</a>
</g>
<!-- Node4&#45;&gt;Node5 -->
<g id="edge8" class="edge"><title>Node4&#45;&gt;Node5</title>
<path fill="none" stroke="midnightblue" d="M821.359,-298C837.948,-298 855.176,-298 870.992,-298"/>
<polygon fill="midnightblue" stroke="midnightblue" points="821.131,-294.5 811.131,-298 821.131,-301.5 821.131,-294.5"/>
</g>
<!-- Node7 -->
<g id="node13" class="node"><title>Node7</title>
<a xlink:href="exceptionthrill_1_1api_1_1AllGatherNode.html" target="_top" xlink:title="AllGatherNode\&lt; ValueType \&gt;">
<polygon fill="none" stroke="black" points="860.5,-240.5 860.5,-261.5 1005.5,-261.5 1005.5,-240.5 860.5,-240.5"/>
<text text-anchor="middle" x="933" y="-248.5" font-family="Helvetica,sans-Serif" font-size="10.00">AllGatherNode&lt; ValueType &gt;</text>
</a>
</g>
<!-- Node6&#45;&gt;Node7 -->
<g id="edge12" class="edge"><title>Node6&#45;&gt;Node7</title>
<path fill="none" stroke="midnightblue" d="M812.646,-240.97C828.251,-242.271 844.776,-243.648 860.417,-244.951"/>
<polygon fill="midnightblue" stroke="midnightblue" points="812.798,-237.471 802.542,-240.129 812.217,-244.447 812.798,-237.471"/>
</g>
<!-- Node8 -->
<g id="node15" class="node"><title>Node8</title>
<a xlink:href="exceptionthrill_1_1api_1_1GatherNode.html" target="_top" xlink:title="GatherNode\&lt; ValueType \&gt;">
<polygon fill="none" stroke="black" points="866,-200.5 866,-221.5 1000,-221.5 1000,-200.5 866,-200.5"/>
<text text-anchor="middle" x="933" y="-208.5" font-family="Helvetica,sans-Serif" font-size="10.00">GatherNode&lt; ValueType &gt;</text>
</a>
</g>
<!-- Node6&#45;&gt;Node8 -->
<g id="edge14" class="edge"><title>Node6&#45;&gt;Node8</title>
<path fill="none" stroke="midnightblue" d="M812.646,-226.044C830.063,-223.867 848.625,-221.547 865.827,-219.397"/>
<polygon fill="midnightblue" stroke="midnightblue" points="812.031,-222.594 802.542,-227.307 812.899,-229.54 812.031,-222.594"/>
</g>
<!-- Node10 -->
<g id="node19" class="node"><title>Node10</title>
<a xlink:href="exceptionthrill_1_1api_1_1AllReduceNode.html" target="_top" xlink:title="AllReduceNode\&lt; ValueType,\l ReduceFunction \&gt;">
<polygon fill="none" stroke="black" points="861.5,-133 861.5,-167 1004.5,-167 1004.5,-133 861.5,-133"/>
<text text-anchor="start" x="869.5" y="-154" font-family="Helvetica,sans-Serif" font-size="10.00">AllReduceNode&lt; ValueType,</text>
<text text-anchor="middle" x="933" y="-141" font-family="Helvetica,sans-Serif" font-size="10.00"> ReduceFunction &gt;</text>
</a>
</g>
<!-- Node9&#45;&gt;Node10 -->
<g id="edge18" class="edge"><title>Node9&#45;&gt;Node10</title>
<path fill="none" stroke="midnightblue" d="M831.892,-150C841.819,-150 851.82,-150 861.467,-150"/>
<polygon fill="midnightblue" stroke="midnightblue" points="831.591,-146.5 821.591,-150 831.591,-153.5 831.591,-146.5"/>
</g>
<!-- Node11&#45;&gt;Node4 -->
<g id="edge24" class="edge"><title>Node11&#45;&gt;Node4</title>
<path fill="none" stroke="orange" stroke-dasharray="5,2" d="M489.458,-252.126C548.86,-262.959 629.529,-277.671 683.332,-287.483"/>
<polygon fill="orange" stroke="orange" points="489.838,-248.638 479.372,-250.287 488.582,-255.524 489.838,-248.638"/>
<text text-anchor="middle" x="575" y="-282" font-family="Helvetica,sans-Serif" font-size="10.00"> &lt; size_t &gt;</text>
</g>
<!-- Node11&#45;&gt;Node6 -->
<g id="edge22" class="edge"><title>Node11&#45;&gt;Node6</title>
<path fill="none" stroke="orange" stroke-dasharray="5,2" d="M489.576,-237.293C547.49,-236.765 625.572,-236.053 679.275,-235.563"/>
<polygon fill="orange" stroke="orange" points="489.34,-233.795 479.372,-237.386 489.403,-240.794 489.34,-233.795"/>
<text text-anchor="middle" x="575" y="-241" font-family="Helvetica,sans-Serif" font-size="10.00"> &lt; std::vector&lt; ValueType &gt; &gt;</text>
</g>
<!-- Node11&#45;&gt;Node9 -->
<g id="edge26" class="edge"><title>Node11&#45;&gt;Node9</title>
<path fill="none" stroke="orange" stroke-dasharray="5,2" d="M485.873,-218.241C552.668,-200.375 648.444,-174.757 701.617,-160.534"/>
<polygon fill="orange" stroke="orange" points="484.581,-214.963 475.825,-220.928 486.389,-221.726 484.581,-214.963"/>
<text text-anchor="middle" x="575" y="-216" font-family="Helvetica,sans-Serif" font-size="10.00"> &lt; ValueType &gt;</text>
</g>
</g>
</svg>
