<?xml version="1.0" encoding="UTF-8" standalone="no"?>
<!DOCTYPE svg PUBLIC "-//W3C//DTD SVG 1.1//EN"
 "http://www.w3.org/Graphics/SVG/1.1/DTD/svg11.dtd">
<!-- Generated by graphviz version 2.26.3 (20100126.1600)
 -->
<!-- Title: Singleton&lt; Instance, destroy_on_exit &gt; Pages: 1 -->
<svg width="498pt" height="190pt"
 viewBox="0.00 0.00 498.00 190.00" xmlns="http://www.w3.org/2000/svg" xmlns:xlink="http://www.w3.org/1999/xlink">
<g id="graph1" class="graph" transform="scale(1 1) rotate(0) translate(4 186)">
<title>Singleton&lt; Instance, destroy_on_exit &gt;</title>
<!-- Node1 -->
<g id="node1" class="node"><title>Node1</title>
<polygon fill="#bfbfbf" stroke="black" points="0.5,-74 0.5,-108 107.5,-108 107.5,-74 0.5,-74"/>
<text text-anchor="start" x="8.5" y="-95" font-family="Helvetica,sans-Serif" font-size="10.00">Singleton&lt; Instance,</text>
<text text-anchor="middle" x="54" y="-82" font-family="Helvetica,sans-Serif" font-size="10.00"> destroy_on_exit &gt;</text>
</g>
<!-- Node2 -->
<g id="node3" class="node"><title>Node2</title>
<a xlink:href="classthrill_1_1io_1_1DiskQueues.html" target="_top" xlink:title="DiskQueues\&lt; DiskQueues \&gt;">
<polygon fill="none" stroke="black" points="228.5,-160.5 228.5,-181.5 371.5,-181.5 371.5,-160.5 228.5,-160.5"/>
<text text-anchor="middle" x="300" y="-168.5" font-family="Helvetica,sans-Serif" font-size="10.00">DiskQueues&lt; DiskQueues &gt;</text>
</a>
</g>
<!-- Node1&#45;&gt;Node2 -->
<g id="edge2" class="edge"><title>Node1&#45;&gt;Node2</title>
<path fill="none" stroke="midnightblue" d="M85.0098,-113.807C97.2561,-121.877 111.782,-130.345 126,-136 158.497,-148.925 196.381,-157.269 228.488,-162.554"/>
<polygon fill="midnightblue" stroke="midnightblue" points="86.771,-110.773 76.5326,-108.048 82.837,-116.563 86.771,-110.773"/>
</g>
<!-- Node3 -->
<g id="node5" class="node"><title>Node3</title>
<a xlink:href="classthrill_1_1common_1_1Singleton.html" target="_top" xlink:title="Singleton\&lt; Config \&gt;">
<polygon fill="none" stroke="black" points="248,-120.5 248,-141.5 352,-141.5 352,-120.5 248,-120.5"/>
<text text-anchor="middle" x="300" y="-128.5" font-family="Helvetica,sans-Serif" font-size="10.00">Singleton&lt; Config &gt;</text>
</a>
</g>
<!-- Node1&#45;&gt;Node3 -->
<g id="edge4" class="edge"><title>Node1&#45;&gt;Node3</title>
<path fill="none" stroke="orange" stroke-dasharray="5,2" d="M117.82,-105.47C120.58,-106.005 123.316,-106.518 126,-107 166.668,-114.311 213.032,-120.606 247.669,-124.913"/>
<polygon fill="orange" stroke="orange" points="118.26,-101.988 107.766,-103.451 116.882,-108.851 118.26,-101.988"/>
<text text-anchor="middle" x="168" y="-123" font-family="Helvetica,sans-Serif" font-size="10.00"> &lt; Config &gt;</text>
</g>
<!-- Node5 -->
<g id="node9" class="node"><title>Node5</title>
<a xlink:href="classthrill_1_1common_1_1Singleton.html" target="_top" xlink:title="Singleton\&lt; Stats \&gt;">
<polygon fill="none" stroke="black" points="251,-80.5 251,-101.5 349,-101.5 349,-80.5 251,-80.5"/>
<text text-anchor="middle" x="300" y="-88.5" font-family="Helvetica,sans-Serif" font-size="10.00">Singleton&lt; Stats &gt;</text>
</a>
</g>
<!-- Node1&#45;&gt;Node5 -->
<g id="edge8" class="edge"><title>Node1&#45;&gt;Node5</title>
<path fill="none" stroke="orange" stroke-dasharray="5,2" d="M117.94,-91C159.344,-91 212.457,-91 250.615,-91"/>
<polygon fill="orange" stroke="orange" points="117.682,-87.5001 107.682,-91 117.682,-94.5001 117.682,-87.5001"/>
<text text-anchor="middle" x="168" y="-95" font-family="Helvetica,sans-Serif" font-size="10.00"> &lt; Stats &gt;</text>
</g>
<!-- Node7 -->
<g id="node13" class="node"><title>Node7</title>
<a xlink:href="classthrill_1_1common_1_1Singleton.html" target="_top" xlink:title="Singleton\&lt; BlockManager \&gt;">
<polygon fill="none" stroke="black" points="231.5,-40.5 231.5,-61.5 368.5,-61.5 368.5,-40.5 231.5,-40.5"/>
<text text-anchor="middle" x="300" y="-48.5" font-family="Helvetica,sans-Serif" font-size="10.00">Singleton&lt; BlockManager &gt;</text>
</a>
</g>
<!-- Node1&#45;&gt;Node7 -->
<g id="edge12" class="edge"><title>Node1&#45;&gt;Node7</title>
<path fill="none" stroke="orange" stroke-dasharray="5,2" d="M117.804,-75.5794C120.569,-75.0237 123.31,-74.4941 126,-74 160.465,-67.6698 199.078,-62.3856 231.158,-58.485"/>
<polygon fill="orange" stroke="orange" points="116.808,-72.212 107.739,-77.6891 118.244,-79.0632 116.808,-72.212"/>
<text text-anchor="middle" x="168" y="-78" font-family="Helvetica,sans-Serif" font-size="10.00"> &lt; BlockManager &gt;</text>
</g>
<!-- Node9 -->
<g id="node17" class="node"><title>Node9</title>
<a xlink:href="classthrill_1_1common_1_1Singleton.html" target="_top" xlink:title="Singleton\&lt; DiskQueues \&gt;">
<polygon fill="none" stroke="black" points="235.5,-0.5 235.5,-21.5 364.5,-21.5 364.5,-0.5 235.5,-0.5"/>
<text text-anchor="middle" x="300" y="-8.5" font-family="Helvetica,sans-Serif" font-size="10.00">Singleton&lt; DiskQueues &gt;</text>
</a>
</g>
<!-- Node1&#45;&gt;Node9 -->
<g id="edge16" class="edge"><title>Node1&#45;&gt;Node9</title>
<path fill="none" stroke="orange" stroke-dasharray="5,2" d="M83.6355,-67.8938C96.1049,-59.1999 111.149,-49.9811 126,-44 160.795,-29.9862 201.944,-21.8346 235.487,-17.1405"/>
<polygon fill="orange" stroke="orange" points="81.5227,-65.1021 75.4482,-73.7826 85.6101,-70.7848 81.5227,-65.1021"/>
<text text-anchor="middle" x="168" y="-48" font-family="Helvetica,sans-Serif" font-size="10.00"> &lt; DiskQueues &gt;</text>
</g>
<!-- Node4 -->
<g id="node7" class="node"><title>Node4</title>
<a xlink:href="classthrill_1_1io_1_1Config.html" target="_top" xlink:title="Config">
<polygon fill="none" stroke="black" points="427.5,-120.5 427.5,-141.5 472.5,-141.5 472.5,-120.5 427.5,-120.5"/>
<text text-anchor="middle" x="450" y="-128.5" font-family="Helvetica,sans-Serif" font-size="10.00">Config</text>
</a>
</g>
<!-- Node3&#45;&gt;Node4 -->
<g id="edge6" class="edge"><title>Node3&#45;&gt;Node4</title>
<path fill="none" stroke="midnightblue" d="M362.159,-131C385.262,-131 410.041,-131 427.371,-131"/>
<polygon fill="midnightblue" stroke="midnightblue" points="362.042,-127.5 352.042,-131 362.042,-134.5 362.042,-127.5"/>
</g>
<!-- Node6 -->
<g id="node11" class="node"><title>Node6</title>
<a xlink:href="classthrill_1_1io_1_1Stats.html" target="_top" xlink:title="Collects various I/O statistics.">
<polygon fill="none" stroke="black" points="430,-80.5 430,-101.5 470,-101.5 470,-80.5 430,-80.5"/>
<text text-anchor="middle" x="450" y="-88.5" font-family="Helvetica,sans-Serif" font-size="10.00">Stats</text>
</a>
</g>
<!-- Node5&#45;&gt;Node6 -->
<g id="edge10" class="edge"><title>Node5&#45;&gt;Node6</title>
<path fill="none" stroke="midnightblue" d="M359.312,-91C384.394,-91 411.927,-91 429.999,-91"/>
<polygon fill="midnightblue" stroke="midnightblue" points="359.116,-87.5001 349.116,-91 359.116,-94.5001 359.116,-87.5001"/>
</g>
<!-- Node8 -->
<g id="node15" class="node"><title>Node8</title>
<a xlink:href="classthrill_1_1io_1_1BlockManager.html" target="_top" xlink:title="BlockManager">
<polygon fill="none" stroke="black" points="410.5,-40.5 410.5,-61.5 489.5,-61.5 489.5,-40.5 410.5,-40.5"/>
<text text-anchor="middle" x="450" y="-48.5" font-family="Helvetica,sans-Serif" font-size="10.00">BlockManager</text>
</a>
</g>
<!-- Node7&#45;&gt;Node8 -->
<g id="edge14" class="edge"><title>Node7&#45;&gt;Node8</title>
<path fill="none" stroke="midnightblue" d="M379.173,-51C389.929,-51 400.571,-51 410.209,-51"/>
<polygon fill="midnightblue" stroke="midnightblue" points="378.854,-47.5001 368.854,-51 378.854,-54.5001 378.854,-47.5001"/>
</g>
</g>
</svg>
