<?xml version="1.0" encoding="UTF-8" standalone="no"?>
<!DOCTYPE svg PUBLIC "-//W3C//DTD SVG 1.1//EN"
 "http://www.w3.org/Graphics/SVG/1.1/DTD/svg11.dtd">
<!-- Generated by graphviz version 2.36.0 (20140111.2315)
 -->
<!-- Title: MergeNode&lt; ValueType, Comparator, kNumInputs &gt; Pages: 1 -->
<svg width="2118pt" height="828pt"
 viewBox="0.00 0.00 2118.00 828.00" xmlns="http://www.w3.org/2000/svg" xmlns:xlink="http://www.w3.org/1999/xlink">
<g id="graph0" class="graph" transform="scale(1 1) rotate(0) translate(4 824)">
<title>MergeNode&lt; ValueType, Comparator, kNumInputs &gt;</title>
<!-- Node1 -->
<g id="node1" class="node"><title>Node1</title>
<polygon fill="#bfbfbf" stroke="black" points="1970.5,-339 1970.5,-369 2109.5,-369 2109.5,-339 1970.5,-339"/>
<text text-anchor="start" x="1978.5" y="-357" font-family="Helvetica,sans-Serif" font-size="10.00">MergeNode&lt; ValueType,</text>
<text text-anchor="middle" x="2040" y="-346" font-family="Helvetica,sans-Serif" font-size="10.00"> Comparator, kNumInputs &gt;</text>
</g>
<!-- Node2 -->
<g id="node2" class="node"><title>Node2</title>
<g id="a_node2"><a xlink:href="classthrill_1_1api_1_1DOpNode.html" target="_top" xlink:title="A DOpNode is a typed node representing and distributed operations in Thrill. ">
<polygon fill="none" stroke="black" points="1760.5,-405.5 1760.5,-424.5 1885.5,-424.5 1885.5,-405.5 1760.5,-405.5"/>
<text text-anchor="middle" x="1823" y="-412.5" font-family="Helvetica,sans-Serif" font-size="10.00">DOpNode&lt; ValueType &gt;</text>
</a>
</g>
</g>
<!-- Node2&#45;&gt;Node1 -->
<g id="edge1" class="edge"><title>Node2&#45;&gt;Node1</title>
<path fill="none" stroke="midnightblue" d="M1871.62,-402.851C1895.77,-396.563 1925.51,-388.624 1952,-381 1964.92,-377.282 1978.85,-373.056 1991.7,-369.069"/>
<polygon fill="midnightblue" stroke="midnightblue" points="1870.44,-399.541 1861.64,-405.438 1872.2,-406.316 1870.44,-399.541"/>
</g>
<!-- Node3 -->
<g id="node3" class="node"><title>Node3</title>
<g id="a_node3"><a xlink:href="classthrill_1_1api_1_1DIANode.html" target="_top" xlink:title="A DIANode is a typed node representing and operation in Thrill. ">
<polygon fill="none" stroke="black" points="1528,-415.5 1528,-434.5 1650,-434.5 1650,-415.5 1528,-415.5"/>
<text text-anchor="middle" x="1589" y="-422.5" font-family="Helvetica,sans-Serif" font-size="10.00">DIANode&lt; ValueType &gt;</text>
</a>
</g>
</g>
<!-- Node3&#45;&gt;Node2 -->
<g id="edge2" class="edge"><title>Node3&#45;&gt;Node2</title>
<path fill="none" stroke="midnightblue" d="M1660.18,-421.975C1692.04,-420.602 1729.4,-418.992 1760.18,-417.665"/>
<polygon fill="midnightblue" stroke="midnightblue" points="1659.89,-418.484 1650.05,-422.412 1660.19,-425.478 1659.89,-418.484"/>
</g>
<!-- Node4 -->
<g id="node4" class="node"><title>Node4</title>
<g id="a_node4"><a xlink:href="classthrill_1_1api_1_1DIABase.html" target="_top" xlink:title="The DIABase is the untyped super class of DIANode. ">
<polygon fill="none" stroke="black" points="1404,-482.5 1404,-501.5 1460,-501.5 1460,-482.5 1404,-482.5"/>
<text text-anchor="middle" x="1432" y="-489.5" font-family="Helvetica,sans-Serif" font-size="10.00">DIABase</text>
</a>
</g>
</g>
<!-- Node4&#45;&gt;Node3 -->
<g id="edge3" class="edge"><title>Node4&#45;&gt;Node3</title>
<path fill="none" stroke="midnightblue" d="M1464.44,-478.412C1494.56,-465.39 1539.26,-446.066 1565.83,-434.582"/>
<polygon fill="midnightblue" stroke="midnightblue" points="1463,-475.22 1455.21,-482.401 1465.78,-481.645 1463,-475.22"/>
</g>
<!-- Node5 -->
<g id="node5" class="node"><title>Node5</title>
<g id="a_node5"><a xlink:href="classtlx_1_1ReferenceCounter.html" target="_top" xlink:title="Provides reference counting abilities for use with CountingPtr. ">
<polygon fill="none" stroke="black" points="1218,-520.5 1218,-539.5 1314,-539.5 1314,-520.5 1218,-520.5"/>
<text text-anchor="middle" x="1266" y="-527.5" font-family="Helvetica,sans-Serif" font-size="10.00">ReferenceCounter</text>
</a>
</g>
</g>
<!-- Node5&#45;&gt;Node4 -->
<g id="edge4" class="edge"><title>Node5&#45;&gt;Node4</title>
<path fill="none" stroke="midnightblue" d="M1324.28,-520.498C1343.97,-516.818 1366.07,-512.225 1386,-507 1391.89,-505.455 1398.14,-503.55 1404.04,-501.622"/>
<polygon fill="midnightblue" stroke="midnightblue" points="1323.44,-517.094 1314.23,-522.338 1324.7,-523.98 1323.44,-517.094"/>
</g>
<!-- Node6 -->
<g id="node6" class="node"><title>Node6</title>
<g id="a_node6"><a xlink:href="classthrill_1_1api_1_1Context.html" target="_top" xlink:title="The Context of a job is a unique instance per worker which holds references to all underlying parts o...">
<polygon fill="none" stroke="black" points="1240.5,-482.5 1240.5,-501.5 1291.5,-501.5 1291.5,-482.5 1240.5,-482.5"/>
<text text-anchor="middle" x="1266" y="-489.5" font-family="Helvetica,sans-Serif" font-size="10.00">Context</text>
</a>
</g>
</g>
<!-- Node6&#45;&gt;Node4 -->
<g id="edge5" class="edge"><title>Node6&#45;&gt;Node4</title>
<path fill="none" stroke="#9a32cd" stroke-dasharray="5,2" d="M1301.73,-492C1332.18,-492 1375.85,-492 1403.82,-492"/>
<polygon fill="#9a32cd" stroke="#9a32cd" points="1301.55,-488.5 1291.55,-492 1301.55,-495.5 1301.55,-488.5"/>
<text text-anchor="middle" x="1359" y="-495" font-family="Helvetica,sans-Serif" font-size="10.00"> context_</text>
</g>
<!-- Node7 -->
<g id="node7" class="node"><title>Node7</title>
<g id="a_node7"><a xlink:href="classthrill_1_1net_1_1Manager.html" target="_top" xlink:title="Initializes communication channels, manages communication channels and handles errors. ">
<polygon fill="none" stroke="black" points="480,-641.5 480,-660.5 534,-660.5 534,-641.5 480,-641.5"/>
<text text-anchor="middle" x="507" y="-648.5" font-family="Helvetica,sans-Serif" font-size="10.00">Manager</text>
</a>
</g>
</g>
<!-- Node7&#45;&gt;Node6 -->
<g id="edge6" class="edge"><title>Node7&#45;&gt;Node6</title>
<path fill="none" stroke="#9a32cd" stroke-dasharray="5,2" d="M544.035,-642.198C583.544,-632.862 648.923,-618.336 706,-610 815.249,-594.045 1112.95,-624.916 1200,-557 1217.31,-543.495 1202.56,-526.61 1218,-511 1224.06,-504.867 1232.37,-500.645 1240.32,-497.77"/>
<polygon fill="#9a32cd" stroke="#9a32cd" points="543.004,-638.846 534.088,-644.568 544.627,-645.655 543.004,-638.846"/>
<text text-anchor="middle" x="901" y="-608" font-family="Helvetica,sans-Serif" font-size="10.00"> net_manager_</text>
</g>
<!-- Node7&#45;&gt;Node6 -->
<g id="edge36" class="edge"><title>Node7&#45;&gt;Node6</title>
<path fill="none" stroke="#9a32cd" stroke-dasharray="5,2" d="M537.099,-637.266C556.378,-628.482 582.375,-617.235 606,-609 713.002,-571.702 740.241,-560.719 852,-542 1004.87,-516.395 1049.52,-556.163 1200,-519 1208.5,-516.901 1209.94,-514.419 1218,-511 1225.45,-507.838 1233.62,-504.495 1241.02,-501.509"/>
<polygon fill="#9a32cd" stroke="#9a32cd" points="535.567,-634.118 527.947,-641.48 538.495,-640.476 535.567,-634.118"/>
<text text-anchor="middle" x="901" y="-545" font-family="Helvetica,sans-Serif" font-size="10.00"> mem_manager_</text>
</g>
<!-- Node21 -->
<g id="node21" class="node"><title>Node21</title>
<g id="a_node21"><a xlink:href="classthrill_1_1data_1_1Multiplexer.html" target="_top" xlink:title="Multiplexes virtual Connections on Dispatcher. ">
<polygon fill="none" stroke="black" points="1008,-727.5 1008,-746.5 1072,-746.5 1072,-727.5 1008,-727.5"/>
<text text-anchor="middle" x="1040" y="-734.5" font-family="Helvetica,sans-Serif" font-size="10.00">Multiplexer</text>
</a>
</g>
</g>
<!-- Node7&#45;&gt;Node21 -->
<g id="edge32" class="edge"><title>Node7&#45;&gt;Node21</title>
<path fill="none" stroke="#9a32cd" stroke-dasharray="5,2" d="M544.381,-653.941C580.759,-656.951 638.291,-661.898 688,-667 752.986,-673.67 769.781,-672.018 834,-684 896.336,-695.631 967.744,-715.651 1007.69,-727.475"/>
<polygon fill="#9a32cd" stroke="#9a32cd" points="544.507,-650.44 534.254,-653.108 543.934,-657.416 544.507,-650.44"/>
<text text-anchor="middle" x="770" y="-687" font-family="Helvetica,sans-Serif" font-size="10.00"> mem_manager_</text>
</g>
<!-- Node25 -->
<g id="node25" class="node"><title>Node25</title>
<g id="a_node25"><a xlink:href="classthrill_1_1data_1_1BlockPool.html" target="_top" xlink:title="Pool to allocate, keep, swap out/in, and free all ByteBlocks on the host. ">
<polygon fill="none" stroke="black" points="739.5,-704.5 739.5,-723.5 800.5,-723.5 800.5,-704.5 739.5,-704.5"/>
<text text-anchor="middle" x="770" y="-711.5" font-family="Helvetica,sans-Serif" font-size="10.00">BlockPool</text>
</a>
</g>
</g>
<!-- Node7&#45;&gt;Node25 -->
<g id="edge31" class="edge"><title>Node7&#45;&gt;Node25</title>
<path fill="none" stroke="#9a32cd" stroke-dasharray="5,2" d="M544.346,-656.901C580.92,-663.158 638.8,-673.934 688,-687 706.625,-691.946 727.221,-698.831 742.984,-704.411"/>
<polygon fill="#9a32cd" stroke="#9a32cd" points="544.61,-653.396 534.167,-655.182 543.444,-660.298 544.61,-653.396"/>
<text text-anchor="middle" x="647" y="-690" font-family="Helvetica,sans-Serif" font-size="10.00"> mem_manager_</text>
</g>
<!-- Node8 -->
<g id="node8" class="node"><title>Node8</title>
<g id="a_node8"><a xlink:href="classthrill_1_1common_1_1ProfileTask.html" target="_top" xlink:title="ProfileTask">
<polygon fill="none" stroke="black" points="194,-690.5 194,-709.5 260,-709.5 260,-690.5 194,-690.5"/>
<text text-anchor="middle" x="227" y="-697.5" font-family="Helvetica,sans-Serif" font-size="10.00">ProfileTask</text>
</a>
</g>
</g>
<!-- Node8&#45;&gt;Node7 -->
<g id="edge7" class="edge"><title>Node8&#45;&gt;Node7</title>
<path fill="none" stroke="midnightblue" d="M270.14,-692.572C328.365,-682.31 431.678,-664.1 479.879,-655.604"/>
<polygon fill="midnightblue" stroke="midnightblue" points="269.402,-689.148 260.162,-694.331 270.617,-696.042 269.402,-689.148"/>
</g>
<!-- Node8&#45;&gt;Node25 -->
<g id="edge29" class="edge"><title>Node8&#45;&gt;Node25</title>
<path fill="none" stroke="midnightblue" d="M270.081,-707.492C283.443,-709.608 298.304,-711.688 312,-713 478.421,-728.937 521.133,-734.262 688,-724 705.112,-722.948 724.144,-720.656 739.458,-718.532"/>
<polygon fill="midnightblue" stroke="midnightblue" points="270.633,-704.036 260.2,-705.88 269.506,-710.945 270.633,-704.036"/>
</g>
<!-- Node9 -->
<g id="node9" class="node"><title>Node9</title>
<g id="a_node9"><a xlink:href="classthrill_1_1common_1_1JsonLogger.html" target="_top" xlink:title="JsonLogger is a receiver of JSON output objects for logging. ">
<polygon fill="none" stroke="black" points="193.5,-532.5 193.5,-551.5 260.5,-551.5 260.5,-532.5 193.5,-532.5"/>
<text text-anchor="middle" x="227" y="-539.5" font-family="Helvetica,sans-Serif" font-size="10.00">JsonLogger</text>
</a>
</g>
</g>
<!-- Node9&#45;&gt;Node4 -->
<g id="edge37" class="edge"><title>Node9&#45;&gt;Node4</title>
<path fill="none" stroke="#9a32cd" stroke-dasharray="5,2" d="M237.026,-523.074C266.581,-464.167 366.62,-288 506,-288 506,-288 506,-288 1267,-288 1368.11,-288 1417.35,-442.103 1428.5,-482.434"/>
<polygon fill="#9a32cd" stroke="#9a32cd" points="233.736,-521.834 232.471,-532.353 240.02,-524.918 233.736,-521.834"/>
<text text-anchor="middle" x="901" y="-291" font-family="Helvetica,sans-Serif" font-size="10.00"> logger_</text>
</g>
<!-- Node9&#45;&gt;Node6 -->
<g id="edge22" class="edge"><title>Node9&#45;&gt;Node6</title>
<path fill="none" stroke="#9a32cd" stroke-dasharray="5,2" d="M270.872,-539.933C446.076,-531.485 1104.82,-499.723 1240.48,-493.182"/>
<polygon fill="#9a32cd" stroke="#9a32cd" points="270.568,-536.443 260.748,-540.421 270.905,-543.435 270.568,-536.443"/>
<text text-anchor="middle" x="770" y="-533" font-family="Helvetica,sans-Serif" font-size="10.00"> logger_</text>
<text text-anchor="middle" x="770" y="-522" font-family="Helvetica,sans-Serif" font-size="10.00">base_logger_</text>
</g>
<!-- Node9&#45;&gt;Node7 -->
<g id="edge8" class="edge"><title>Node9&#45;&gt;Node7</title>
<path fill="none" stroke="#9a32cd" stroke-dasharray="5,2" d="M262.288,-555.444C319.162,-577.743 431.664,-621.854 481.385,-641.349"/>
<polygon fill="#9a32cd" stroke="#9a32cd" points="263.258,-552.065 252.671,-551.673 260.703,-558.582 263.258,-552.065"/>
<text text-anchor="middle" x="360" y="-613" font-family="Helvetica,sans-Serif" font-size="10.00"> logger_</text>
</g>
<!-- Node9&#45;&gt;Node9 -->
<g id="edge10" class="edge"><title>Node9&#45;&gt;Node9</title>
<path fill="none" stroke="#9a32cd" stroke-dasharray="5,2" d="M207.001,-561.4C208.337,-566.315 215.003,-570 227,-570 246.195,-570 251.744,-560.565 243.646,-551.757"/>
<polygon fill="#9a32cd" stroke="#9a32cd" points="210.376,-562.352 210.354,-551.757 203.764,-560.053 210.376,-562.352"/>
<text text-anchor="middle" x="227" y="-573" font-family="Helvetica,sans-Serif" font-size="10.00"> super_</text>
</g>
<!-- Node9&#45;&gt;Node25 -->
<g id="edge30" class="edge"><title>Node9&#45;&gt;Node25</title>
<path fill="none" stroke="#9a32cd" stroke-dasharray="5,2" d="M242.284,-559.874C257.793,-578.295 284.104,-606.816 312,-625 424.787,-698.522 472.434,-681.07 606,-698 652.545,-703.9 706.804,-708.841 739.498,-711.609"/>
<polygon fill="#9a32cd" stroke="#9a32cd" points="244.638,-557.226 235.579,-551.732 239.234,-561.676 244.638,-557.226"/>
<text text-anchor="middle" x="507" y="-699" font-family="Helvetica,sans-Serif" font-size="10.00"> logger_</text>
</g>
<!-- Node10 -->
<g id="node10" class="node"><title>Node10</title>
<g id="a_node10"><a xlink:href="classthrill_1_1common_1_1JsonVerbatim.html" target="_top" xlink:title="A special class to output verbatim text. ">
<polygon fill="none" stroke="black" points="0.5,-532.5 0.5,-551.5 77.5,-551.5 77.5,-532.5 0.5,-532.5"/>
<text text-anchor="middle" x="39" y="-539.5" font-family="Helvetica,sans-Serif" font-size="10.00">JsonVerbatim</text>
</a>
</g>
</g>
<!-- Node10&#45;&gt;Node9 -->
<g id="edge9" class="edge"><title>Node10&#45;&gt;Node9</title>
<path fill="none" stroke="#9a32cd" stroke-dasharray="5,2" d="M88.0045,-542C121.105,-542 164.226,-542 193.388,-542"/>
<polygon fill="#9a32cd" stroke="#9a32cd" points="87.6399,-538.5 77.6399,-542 87.6398,-545.5 87.6399,-538.5"/>
<text text-anchor="middle" x="119" y="-545" font-family="Helvetica,sans-Serif" font-size="10.00"> common_</text>
</g>
<!-- Node11 -->
<g id="node11" class="node"><title>Node11</title>
<g id="a_node11"><a xlink:href="classthrill_1_1net_1_1FlowControlChannel.html" target="_top" xlink:title="Provides a blocking collection for communication. ">
<polygon fill="none" stroke="black" points="987.5,-356.5 987.5,-375.5 1092.5,-375.5 1092.5,-356.5 987.5,-356.5"/>
<text text-anchor="middle" x="1040" y="-363.5" font-family="Helvetica,sans-Serif" font-size="10.00">FlowControlChannel</text>
</a>
</g>
</g>
<!-- Node11&#45;&gt;Node6 -->
<g id="edge11" class="edge"><title>Node11&#45;&gt;Node6</title>
<path fill="none" stroke="#9a32cd" stroke-dasharray="5,2" d="M1089.63,-378.389C1122.49,-388.148 1165.94,-403.832 1200,-426 1224.26,-441.79 1246.54,-468.005 1257.63,-482.178"/>
<polygon fill="#9a32cd" stroke="#9a32cd" points="1090.37,-374.96 1079.79,-375.55 1088.43,-381.686 1090.37,-374.96"/>
<text text-anchor="middle" x="1165" y="-429" font-family="Helvetica,sans-Serif" font-size="10.00"> net</text>
</g>
<!-- Node12 -->
<g id="node12" class="node"><title>Node12</title>
<g id="a_node12"><a xlink:href="classtlx_1_1ThreadBarrierSpin.html" target="_top" xlink:title="Implements a thread barrier using atomics and a spin lock that can be used to synchronize threads...">
<polygon fill="none" stroke="black" points="722.5,-441.5 722.5,-460.5 817.5,-460.5 817.5,-441.5 722.5,-441.5"/>
<text text-anchor="middle" x="770" y="-448.5" font-family="Helvetica,sans-Serif" font-size="10.00">ThreadBarrierSpin</text>
</a>
</g>
</g>
<!-- Node12&#45;&gt;Node11 -->
<g id="edge12" class="edge"><title>Node12&#45;&gt;Node11</title>
<path fill="none" stroke="#9a32cd" stroke-dasharray="5,2" d="M827.813,-445.029C871.677,-439.878 928.411,-431.883 950,-423 959.126,-419.245 959.801,-415.491 968,-410 986.435,-397.653 1008.19,-384.348 1022.72,-375.641"/>
<polygon fill="#9a32cd" stroke="#9a32cd" points="827.353,-441.559 817.819,-446.18 828.154,-448.513 827.353,-441.559"/>
<text text-anchor="middle" x="901" y="-445" font-family="Helvetica,sans-Serif" font-size="10.00"> barrier_</text>
</g>
<!-- Node26 -->
<g id="node26" class="node"><title>Node26</title>
<g id="a_node26"><a xlink:href="classthrill_1_1net_1_1FlowControlChannelManager.html" target="_top" xlink:title="FlowControlChannelManager">
<polygon fill="none" stroke="black" points="968.5,-457.5 968.5,-476.5 1111.5,-476.5 1111.5,-457.5 968.5,-457.5"/>
<text text-anchor="middle" x="1040" y="-464.5" font-family="Helvetica,sans-Serif" font-size="10.00">FlowControlChannelManager</text>
</a>
</g>
</g>
<!-- Node12&#45;&gt;Node26 -->
<g id="edge35" class="edge"><title>Node12&#45;&gt;Node26</title>
<path fill="none" stroke="#9a32cd" stroke-dasharray="5,2" d="M827.836,-455.358C835.945,-455.937 844.183,-456.502 852,-457 890.448,-459.452 933.37,-461.776 968.385,-463.566"/>
<polygon fill="#9a32cd" stroke="#9a32cd" points="827.903,-451.854 817.676,-454.622 827.397,-458.836 827.903,-451.854"/>
<text text-anchor="middle" x="901" y="-466" font-family="Helvetica,sans-Serif" font-size="10.00"> barrier_</text>
</g>
<!-- Node13 -->
<g id="node13" class="node"><title>Node13</title>
<g id="a_node13"><a xlink:href="classthrill_1_1net_1_1FlowControlChannel_1_1LocalData.html" target="_top" xlink:title="LocalData">
<polygon fill="none" stroke="black" points="739.5,-316.5 739.5,-335.5 800.5,-335.5 800.5,-316.5 739.5,-316.5"/>
<text text-anchor="middle" x="770" y="-323.5" font-family="Helvetica,sans-Serif" font-size="10.00">LocalData</text>
</a>
</g>
</g>
<!-- Node13&#45;&gt;Node11 -->
<g id="edge13" class="edge"><title>Node13&#45;&gt;Node11</title>
<path fill="none" stroke="#9a32cd" stroke-dasharray="5,2" d="M810.905,-327.172C847.369,-328.755 902.656,-332.447 950,-341 970.532,-344.709 993.162,-351.098 1010.46,-356.489"/>
<polygon fill="#9a32cd" stroke="#9a32cd" points="810.815,-323.665 800.682,-326.762 810.534,-330.66 810.815,-323.665"/>
<text text-anchor="middle" x="901" y="-344" font-family="Helvetica,sans-Serif" font-size="10.00"> shmem_</text>
</g>
<!-- Node14 -->
<g id="node14" class="node"><title>Node14</title>
<g id="a_node14"><a xlink:href="classthrill_1_1net_1_1Group.html" target="_top" xlink:title="A network Group is a collection of enumerated communication links, which provides point&#45;to&#45;point comm...">
<polygon fill="none" stroke="black" points="748.5,-619.5 748.5,-638.5 791.5,-638.5 791.5,-619.5 748.5,-619.5"/>
<text text-anchor="middle" x="770" y="-626.5" font-family="Helvetica,sans-Serif" font-size="10.00">Group</text>
</a>
</g>
</g>
<!-- Node14&#45;&gt;Node11 -->
<g id="edge14" class="edge"><title>Node14&#45;&gt;Node11</title>
<path fill="none" stroke="#9a32cd" stroke-dasharray="5,2" d="M791.618,-613.31C807.39,-601.998 830.086,-587.168 852,-578 893.273,-560.734 920.102,-588.282 950,-555 993.397,-506.691 932.97,-464.681 968,-410 978.326,-393.882 996.88,-382.687 1012.43,-375.624"/>
<polygon fill="#9a32cd" stroke="#9a32cd" points="789.182,-610.756 783.189,-619.493 793.322,-616.4 789.182,-610.756"/>
<text text-anchor="middle" x="901" y="-581" font-family="Helvetica,sans-Serif" font-size="10.00"> group_</text>
</g>
<!-- Node14&#45;&gt;Node21 -->
<g id="edge27" class="edge"><title>Node14&#45;&gt;Node21</title>
<path fill="none" stroke="#9a32cd" stroke-dasharray="5,2" d="M801.848,-628.626C847.062,-628.726 928.318,-631.565 950,-650 972.185,-668.863 947.905,-691.924 968,-713 978.415,-723.924 993.97,-729.876 1007.87,-733.119"/>
<polygon fill="#9a32cd" stroke="#9a32cd" points="801.711,-625.127 791.718,-628.649 801.726,-632.127 801.711,-625.127"/>
<text text-anchor="middle" x="901" y="-653" font-family="Helvetica,sans-Serif" font-size="10.00"> group_</text>
</g>
<!-- Node15 -->
<g id="node15" class="node"><title>Node15</title>
<g id="a_node15"><a xlink:href="classthrill_1_1common_1_1AtomicMovable.html" target="_top" xlink:title="AtomicMovable\&lt; size_t \&gt;">
<polygon fill="none" stroke="black" points="706,-354.5 706,-373.5 834,-373.5 834,-354.5 706,-354.5"/>
<text text-anchor="middle" x="770" y="-361.5" font-family="Helvetica,sans-Serif" font-size="10.00">AtomicMovable&lt; size_t &gt;</text>
</a>
</g>
</g>
<!-- Node15&#45;&gt;Node11 -->
<g id="edge15" class="edge"><title>Node15&#45;&gt;Node11</title>
<path fill="none" stroke="#9a32cd" stroke-dasharray="5,2" d="M844.3,-357.381C846.898,-357.237 849.47,-357.109 852,-357 895.515,-355.123 906.5,-354.806 950,-357 962.098,-357.61 975.086,-358.684 987.299,-359.882"/>
<polygon fill="#9a32cd" stroke="#9a32cd" points="843.962,-353.895 834.198,-358.009 844.396,-360.882 843.962,-353.895"/>
<text text-anchor="middle" x="901" y="-415" font-family="Helvetica,sans-Serif" font-size="10.00"> count_allreduce_</text>
<text text-anchor="middle" x="901" y="-404" font-family="Helvetica,sans-Serif" font-size="10.00">count_broadcast_</text>
<text text-anchor="middle" x="901" y="-393" font-family="Helvetica,sans-Serif" font-size="10.00">count_reduce_</text>
<text text-anchor="middle" x="901" y="-382" font-family="Helvetica,sans-Serif" font-size="10.00">count_prefixsum_</text>
<text text-anchor="middle" x="901" y="-371" font-family="Helvetica,sans-Serif" font-size="10.00">count_barrier_</text>
<text text-anchor="middle" x="901" y="-360" font-family="Helvetica,sans-Serif" font-size="10.00">count_predecessor_</text>
</g>
<!-- Node16 -->
<g id="node16" class="node"><title>Node16</title>
<g id="a_node16"><a xlink:href="classthrill_1_1common_1_1AtomicMovable.html" target="_top" xlink:title="This is a derivative of std::atomic which enables easier and less error&#45;prone writing of move&#45;only cl...">
<polygon fill="none" stroke="black" points="453,-354.5 453,-373.5 561,-373.5 561,-354.5 453,-354.5"/>
<text text-anchor="middle" x="507" y="-361.5" font-family="Helvetica,sans-Serif" font-size="10.00">AtomicMovable&lt; T &gt;</text>
</a>
</g>
</g>
<!-- Node16&#45;&gt;Node15 -->
<g id="edge16" class="edge"><title>Node16&#45;&gt;Node15</title>
<path fill="none" stroke="orange" stroke-dasharray="5,2" d="M571.238,-364C612.072,-364 664.996,-364 705.819,-364"/>
<polygon fill="orange" stroke="orange" points="571.132,-360.5 561.132,-364 571.132,-367.5 571.132,-360.5"/>
<text text-anchor="middle" x="647" y="-367" font-family="Helvetica,sans-Serif" font-size="10.00"> &lt; size_t &gt;</text>
</g>
<!-- Node17 -->
<g id="node17" class="node"><title>Node17</title>
<g id="a_node17"><a xlink:href="classthrill_1_1common_1_1StatsTimerBaseStopped.html" target="_top" xlink:title="StatsTimerBaseStopped\l\&lt; enable_stats \&gt;">
<polygon fill="none" stroke="black" points="708.5,-93 708.5,-123 831.5,-123 831.5,-93 708.5,-93"/>
<text text-anchor="start" x="716.5" y="-111" font-family="Helvetica,sans-Serif" font-size="10.00">StatsTimerBaseStopped</text>
<text text-anchor="middle" x="770" y="-100" font-family="Helvetica,sans-Serif" font-size="10.00">&lt; enable_stats &gt;</text>
</a>
</g>
</g>
<!-- Node17&#45;&gt;Node11 -->
<g id="edge17" class="edge"><title>Node17&#45;&gt;Node11</title>
<path fill="none" stroke="#9a32cd" stroke-dasharray="5,2" d="M841.794,-106.327C884.282,-106.751 933.243,-110.217 950,-123 1028.59,-182.948 1037.83,-319.322 1038.88,-356.492"/>
<polygon fill="#9a32cd" stroke="#9a32cd" points="841.736,-102.827 831.72,-106.281 841.704,-109.827 841.736,-102.827"/>
<text text-anchor="start" x="852.5" y="-258" font-family="Helvetica,sans-Serif" font-size="10.00"> timer_communication</text>
<text text-anchor="middle" x="901" y="-247" font-family="Helvetica,sans-Serif" font-size="10.00">_</text>
<text text-anchor="start" x="852.5" y="-236" font-family="Helvetica,sans-Serif" font-size="10.00">timer_predecessor</text>
<text text-anchor="middle" x="901" y="-225" font-family="Helvetica,sans-Serif" font-size="10.00">_</text>
<text text-anchor="start" x="852.5" y="-214" font-family="Helvetica,sans-Serif" font-size="10.00">timer_allreduce</text>
<text text-anchor="middle" x="901" y="-203" font-family="Helvetica,sans-Serif" font-size="10.00">_</text>
<text text-anchor="start" x="852.5" y="-192" font-family="Helvetica,sans-Serif" font-size="10.00">timer_barrier</text>
<text text-anchor="middle" x="901" y="-181" font-family="Helvetica,sans-Serif" font-size="10.00">_</text>
<text text-anchor="start" x="852.5" y="-170" font-family="Helvetica,sans-Serif" font-size="10.00">timer_prefixsum</text>
<text text-anchor="middle" x="901" y="-159" font-family="Helvetica,sans-Serif" font-size="10.00">_</text>
<text text-anchor="start" x="852.5" y="-148" font-family="Helvetica,sans-Serif" font-size="10.00">timer_broadcast</text>
<text text-anchor="middle" x="901" y="-137" font-family="Helvetica,sans-Serif" font-size="10.00">_</text>
<text text-anchor="middle" x="901" y="-126" font-family="Helvetica,sans-Serif" font-size="10.00">timer_reduce_</text>
</g>
<!-- Node18 -->
<g id="node18" class="node"><title>Node18</title>
<g id="a_node18"><a xlink:href="classthrill_1_1common_1_1StatsTimerBase.html" target="_top" xlink:title="This class provides a statistical stop watch timer that can easily be deactivated using a boolean tem...">
<polygon fill="none" stroke="black" points="160.5,-51.5 160.5,-70.5 293.5,-70.5 293.5,-51.5 160.5,-51.5"/>
<text text-anchor="middle" x="227" y="-58.5" font-family="Helvetica,sans-Serif" font-size="10.00">StatsTimerBase&lt; Active &gt;</text>
</a>
</g>
</g>
<!-- Node18&#45;&gt;Node17 -->
<g id="edge18" class="edge"><title>Node18&#45;&gt;Node17</title>
<path fill="none" stroke="midnightblue" d="M291.361,-72.0984C298.315,-73.1559 305.299,-74.149 312,-75 453.254,-92.9391 620.404,-101.925 708.175,-105.708"/>
<polygon fill="midnightblue" stroke="midnightblue" points="291.653,-68.6016 281.232,-70.5121 290.57,-75.5173 291.653,-68.6016"/>
</g>
<!-- Node19 -->
<g id="node19" class="node"><title>Node19</title>
<g id="a_node19"><a xlink:href="classthrill_1_1common_1_1StatsTimerBaseStopped.html" target="_top" xlink:title="StatsTimerBaseStopped\l\&lt; Active \&gt;">
<polygon fill="none" stroke="black" points="445.5,-46 445.5,-76 568.5,-76 568.5,-46 445.5,-46"/>
<text text-anchor="start" x="453.5" y="-64" font-family="Helvetica,sans-Serif" font-size="10.00">StatsTimerBaseStopped</text>
<text text-anchor="middle" x="507" y="-53" font-family="Helvetica,sans-Serif" font-size="10.00">&lt; Active &gt;</text>
</a>
</g>
</g>
<!-- Node18&#45;&gt;Node19 -->
<g id="edge20" class="edge"><title>Node18&#45;&gt;Node19</title>
<path fill="none" stroke="midnightblue" d="M303.707,-61C348.161,-61 403.596,-61 445.189,-61"/>
<polygon fill="midnightblue" stroke="midnightblue" points="303.53,-57.5001 293.53,-61 303.53,-64.5001 303.53,-57.5001"/>
</g>
<!-- Node32 -->
<g id="node32" class="node"><title>Node32</title>
<g id="a_node32"><a xlink:href="classthrill_1_1common_1_1StatsTimerBaseStopped.html" target="_top" xlink:title="StatsTimerBaseStopped\l\&lt; stats_enabled \&gt;">
<polygon fill="none" stroke="black" points="708.5,-0 708.5,-30 831.5,-30 831.5,-0 708.5,-0"/>
<text text-anchor="start" x="716.5" y="-18" font-family="Helvetica,sans-Serif" font-size="10.00">StatsTimerBaseStopped</text>
<text text-anchor="middle" x="770" y="-7" font-family="Helvetica,sans-Serif" font-size="10.00">&lt; stats_enabled &gt;</text>
</a>
</g>
</g>
<!-- Node18&#45;&gt;Node32 -->
<g id="edge45" class="edge"><title>Node18&#45;&gt;Node32</title>
<path fill="none" stroke="midnightblue" d="M304.033,-50.2355C340.812,-45.3264 385.639,-39.7797 426,-36 524.753,-26.7522 639.899,-20.6592 708.499,-17.5236"/>
<polygon fill="midnightblue" stroke="midnightblue" points="303.327,-46.7989 293.883,-51.6013 304.26,-53.7364 303.327,-46.7989"/>
</g>
<!-- Node19&#45;&gt;Node17 -->
<g id="edge19" class="edge"><title>Node19&#45;&gt;Node17</title>
<path fill="none" stroke="orange" stroke-dasharray="5,2" d="M578.968,-66.7365C612.295,-70.178 652.426,-75.3993 688,-83 700.233,-85.6138 713.273,-89.2479 725.234,-92.9368"/>
<polygon fill="orange" stroke="orange" points="579.155,-63.2379 568.856,-65.725 578.458,-70.2031 579.155,-63.2379"/>
<text text-anchor="middle" x="647" y="-86" font-family="Helvetica,sans-Serif" font-size="10.00"> &lt; enable_stats &gt;</text>
</g>
<!-- Node19&#45;&gt;Node32 -->
<g id="edge46" class="edge"><title>Node19&#45;&gt;Node32</title>
<path fill="none" stroke="orange" stroke-dasharray="5,2" d="M578.62,-48.5535C619.177,-41.4056 669.585,-32.5214 708.342,-25.6907"/>
<polygon fill="orange" stroke="orange" points="577.775,-45.1484 568.535,-50.3311 578.99,-52.0421 577.775,-45.1484"/>
<text text-anchor="middle" x="647" y="-47" font-family="Helvetica,sans-Serif" font-size="10.00"> &lt; stats_enabled &gt;</text>
</g>
<!-- Node20 -->
<g id="node20" class="node"><title>Node20</title>
<g id="a_node20"><a xlink:href="classthrill_1_1api_1_1MemoryConfig.html" target="_top" xlink:title="MemoryConfig">
<polygon fill="none" stroke="black" points="1000,-419.5 1000,-438.5 1080,-438.5 1080,-419.5 1000,-419.5"/>
<text text-anchor="middle" x="1040" y="-426.5" font-family="Helvetica,sans-Serif" font-size="10.00">MemoryConfig</text>
</a>
</g>
</g>
<!-- Node20&#45;&gt;Node6 -->
<g id="edge21" class="edge"><title>Node20&#45;&gt;Node6</title>
<path fill="none" stroke="#9a32cd" stroke-dasharray="5,2" d="M1090.05,-434.066C1121.98,-438.303 1164.2,-445.692 1200,-458 1217.94,-464.17 1237.02,-474.676 1249.83,-482.38"/>
<polygon fill="#9a32cd" stroke="#9a32cd" points="1090.42,-430.586 1080.06,-432.799 1089.54,-437.53 1090.42,-430.586"/>
<text text-anchor="middle" x="1165" y="-461" font-family="Helvetica,sans-Serif" font-size="10.00"> mem_config_</text>
</g>
<!-- Node21&#45;&gt;Node6 -->
<g id="edge23" class="edge"><title>Node21&#45;&gt;Node6</title>
<path fill="none" stroke="#9a32cd" stroke-dasharray="5,2" d="M1082.42,-743.208C1118.85,-746.098 1170.55,-743.481 1200,-712 1230.64,-679.251 1191.29,-547.025 1218,-511 1223.35,-503.789 1231.89,-499.307 1240.24,-496.526"/>
<polygon fill="#9a32cd" stroke="#9a32cd" points="1082.4,-739.69 1072.11,-742.213 1081.73,-746.657 1082.4,-739.69"/>
<text text-anchor="middle" x="1165" y="-746" font-family="Helvetica,sans-Serif" font-size="10.00"> multiplexer_</text>
</g>
<!-- Node22 -->
<g id="node22" class="node"><title>Node22</title>
<g id="a_node22"><a xlink:href="classthrill_1_1net_1_1DispatcherThread.html" target="_top" xlink:title="DispatcherThread contains a net::Dispatcher object and an associated thread that runs in the dispatch...">
<polygon fill="none" stroke="black" points="723,-773.5 723,-792.5 817,-792.5 817,-773.5 723,-773.5"/>
<text text-anchor="middle" x="770" y="-780.5" font-family="Helvetica,sans-Serif" font-size="10.00">DispatcherThread</text>
</a>
</g>
</g>
<!-- Node22&#45;&gt;Node21 -->
<g id="edge24" class="edge"><title>Node22&#45;&gt;Node21</title>
<path fill="none" stroke="#9a32cd" stroke-dasharray="5,2" d="M826.989,-773.39C881.853,-763.973 963.489,-749.961 1007.74,-742.365"/>
<polygon fill="#9a32cd" stroke="#9a32cd" points="826.335,-769.951 817.071,-775.092 827.519,-776.85 826.335,-769.951"/>
<text text-anchor="middle" x="901" y="-772" font-family="Helvetica,sans-Serif" font-size="10.00"> dispatcher_</text>
</g>
<!-- Node23 -->
<g id="node23" class="node"><title>Node23</title>
<g id="a_node23"><a xlink:href="classthrill_1_1common_1_1ConcurrentQueue.html" target="_top" xlink:title="ConcurrentQueue\&lt; tlx\l::Delegate, mem::GPoolAllocator\l\&lt; tlx::Delegate \&gt; \&gt;">
<polygon fill="none" stroke="black" points="426.5,-766.5 426.5,-807.5 587.5,-807.5 587.5,-766.5 426.5,-766.5"/>
<text text-anchor="start" x="434.5" y="-795.5" font-family="Helvetica,sans-Serif" font-size="10.00">ConcurrentQueue&lt; tlx</text>
<text text-anchor="start" x="434.5" y="-784.5" font-family="Helvetica,sans-Serif" font-size="10.00">::Delegate, mem::GPoolAllocator</text>
<text text-anchor="middle" x="507" y="-773.5" font-family="Helvetica,sans-Serif" font-size="10.00">&lt; tlx::Delegate &gt; &gt;</text>
</a>
</g>
</g>
<!-- Node23&#45;&gt;Node22 -->
<g id="edge25" class="edge"><title>Node23&#45;&gt;Node22</title>
<path fill="none" stroke="#9a32cd" stroke-dasharray="5,2" d="M597.982,-785.621C639.999,-784.977 688.237,-784.238 722.747,-783.709"/>
<polygon fill="#9a32cd" stroke="#9a32cd" points="597.672,-782.125 587.727,-785.778 597.779,-789.124 597.672,-782.125"/>
<text text-anchor="middle" x="647" y="-789" font-family="Helvetica,sans-Serif" font-size="10.00"> jobqueue_</text>
</g>
<!-- Node24 -->
<g id="node24" class="node"><title>Node24</title>
<g id="a_node24"><a xlink:href="classthrill_1_1common_1_1ConcurrentQueue.html" target="_top" xlink:title="This is a queue, similar to std::queue and tbb::concurrent_queue, except that it uses mutexes for syn...">
<polygon fill="none" stroke="black" points="171.5,-772 171.5,-802 282.5,-802 282.5,-772 171.5,-772"/>
<text text-anchor="start" x="179.5" y="-790" font-family="Helvetica,sans-Serif" font-size="10.00">ConcurrentQueue&lt; T,</text>
<text text-anchor="middle" x="227" y="-779" font-family="Helvetica,sans-Serif" font-size="10.00"> Allocator &gt;</text>
</a>
</g>
</g>
<!-- Node24&#45;&gt;Node23 -->
<g id="edge26" class="edge"><title>Node24&#45;&gt;Node23</title>
<path fill="none" stroke="orange" stroke-dasharray="5,2" d="M292.72,-787C332.558,-787 383.921,-787 426.26,-787"/>
<polygon fill="orange" stroke="orange" points="292.592,-783.5 282.592,-787 292.592,-790.5 292.592,-783.5"/>
<text text-anchor="start" x="312" y="-812" font-family="Helvetica,sans-Serif" font-size="10.00"> &lt; tlx::Delegate, mem</text>
<text text-anchor="start" x="312" y="-801" font-family="Helvetica,sans-Serif" font-size="10.00">::GPoolAllocator&lt; tlx</text>
<text text-anchor="middle" x="360" y="-790" font-family="Helvetica,sans-Serif" font-size="10.00">::Delegate &gt; &gt;</text>
</g>
<!-- Node25&#45;&gt;Node6 -->
<g id="edge33" class="edge"><title>Node25&#45;&gt;Node6</title>
<path fill="none" stroke="#9a32cd" stroke-dasharray="5,2" d="M810.824,-711.387C906.737,-704.244 1146.57,-681.056 1200,-625 1235.39,-587.87 1186.08,-551.154 1218,-511 1223.48,-504.11 1231.85,-499.704 1240.01,-496.892"/>
<polygon fill="#9a32cd" stroke="#9a32cd" points="810.383,-707.91 800.662,-712.123 810.889,-714.891 810.383,-707.91"/>
<text text-anchor="middle" x="1040" y="-698" font-family="Helvetica,sans-Serif" font-size="10.00"> block_pool_</text>
</g>
<!-- Node25&#45;&gt;Node21 -->
<g id="edge28" class="edge"><title>Node25&#45;&gt;Node21</title>
<path fill="none" stroke="#9a32cd" stroke-dasharray="5,2" d="M810.882,-717.423C864.617,-722.034 959.138,-730.146 1007.92,-734.333"/>
<polygon fill="#9a32cd" stroke="#9a32cd" points="810.967,-713.917 800.705,-716.549 810.369,-720.892 810.967,-713.917"/>
<text text-anchor="middle" x="901" y="-732" font-family="Helvetica,sans-Serif" font-size="10.00"> block_pool_</text>
</g>
<!-- Node26&#45;&gt;Node6 -->
<g id="edge34" class="edge"><title>Node26&#45;&gt;Node6</title>
<path fill="none" stroke="#9a32cd" stroke-dasharray="5,2" d="M1121.82,-472.02C1146.93,-474.006 1174.66,-476.634 1200,-480 1213.42,-481.783 1228.28,-484.472 1240.4,-486.853"/>
<polygon fill="#9a32cd" stroke="#9a32cd" points="1121.85,-468.512 1111.61,-471.236 1121.31,-475.491 1121.85,-468.512"/>
<text text-anchor="middle" x="1165" y="-483" font-family="Helvetica,sans-Serif" font-size="10.00"> flow_manager_</text>
</g>
<!-- Node27 -->
<g id="node27" class="node"><title>Node27</title>
<g id="a_node27"><a xlink:href="classthrill_1_1api_1_1DIAMemUse.html" target="_top" xlink:title="Description of the amount of RAM the internal data structures of a DIANode require. ">
<polygon fill="none" stroke="black" points="1229,-558.5 1229,-577.5 1303,-577.5 1303,-558.5 1229,-558.5"/>
<text text-anchor="middle" x="1266" y="-565.5" font-family="Helvetica,sans-Serif" font-size="10.00">DIAMemUse</text>
</a>
</g>
</g>
<!-- Node27&#45;&gt;Node4 -->
<g id="edge38" class="edge"><title>Node27&#45;&gt;Node4</title>
<path fill="none" stroke="#9a32cd" stroke-dasharray="5,2" d="M1312.93,-556.041C1335.66,-549.171 1363.07,-539.42 1386,-527 1398.88,-520.023 1411.91,-509.415 1420.61,-501.707"/>
<polygon fill="#9a32cd" stroke="#9a32cd" points="1311.78,-552.729 1303.17,-558.901 1313.75,-559.446 1311.78,-552.729"/>
<text text-anchor="middle" x="1359" y="-553" font-family="Helvetica,sans-Serif" font-size="10.00"> mem_limit_</text>
</g>
<!-- Node28 -->
<g id="node28" class="node"><title>Node28</title>
<g id="a_node28"><a xlink:href="classtlx_1_1CountingPtr.html" target="_top" xlink:title="CountingPtr\&lt; File \&gt;">
<polygon fill="none" stroke="black" points="1772,-364.5 1772,-383.5 1874,-383.5 1874,-364.5 1772,-364.5"/>
<text text-anchor="middle" x="1823" y="-371.5" font-family="Helvetica,sans-Serif" font-size="10.00">CountingPtr&lt; File &gt;</text>
</a>
</g>
</g>
<!-- Node28&#45;&gt;Node1 -->
<g id="edge39" class="edge"><title>Node28&#45;&gt;Node1</title>
<path fill="none" stroke="#9a32cd" stroke-dasharray="5,2" d="M1884.16,-368.404C1910.97,-365.91 1942.7,-362.958 1970.43,-360.378"/>
<polygon fill="#9a32cd" stroke="#9a32cd" points="1883.77,-364.925 1874.14,-369.336 1884.42,-371.895 1883.77,-364.925"/>
<text text-anchor="middle" x="1930" y="-369" font-family="Helvetica,sans-Serif" font-size="10.00"> files_</text>
</g>
<!-- Node29 -->
<g id="node29" class="node"><title>Node29</title>
<g id="a_node29"><a xlink:href="classtlx_1_1CountingPtr.html" target="_top" xlink:title="High&#45;performance smart pointer used as a wrapping reference counting pointer. ">
<polygon fill="none" stroke="black" points="1538,-349 1538,-379 1640,-379 1640,-349 1538,-349"/>
<text text-anchor="start" x="1546" y="-367" font-family="Helvetica,sans-Serif" font-size="10.00">CountingPtr&lt; Type,</text>
<text text-anchor="middle" x="1589" y="-356" font-family="Helvetica,sans-Serif" font-size="10.00"> Deleter &gt;</text>
</a>
</g>
</g>
<!-- Node29&#45;&gt;Node28 -->
<g id="edge40" class="edge"><title>Node29&#45;&gt;Node28</title>
<path fill="none" stroke="orange" stroke-dasharray="5,2" d="M1650.39,-366.603C1688.07,-368.227 1736.01,-370.294 1771.63,-371.829"/>
<polygon fill="orange" stroke="orange" points="1650.2,-363.092 1640.05,-366.158 1649.89,-370.085 1650.2,-363.092"/>
<text text-anchor="middle" x="1703" y="-374" font-family="Helvetica,sans-Serif" font-size="10.00"> &lt; File &gt;</text>
</g>
<!-- Node30 -->
<g id="node30" class="node"><title>Node30</title>
<g id="a_node30"><a xlink:href="classtlx_1_1CountingPtr.html" target="_top" xlink:title="CountingPtr\&lt; CatStream \&gt;">
<polygon fill="none" stroke="black" points="1756,-326.5 1756,-345.5 1890,-345.5 1890,-326.5 1756,-326.5"/>
<text text-anchor="middle" x="1823" y="-333.5" font-family="Helvetica,sans-Serif" font-size="10.00">CountingPtr&lt; CatStream &gt;</text>
</a>
</g>
</g>
<!-- Node29&#45;&gt;Node30 -->
<g id="edge42" class="edge"><title>Node29&#45;&gt;Node30</title>
<path fill="none" stroke="orange" stroke-dasharray="5,2" d="M1650.32,-355.309C1656.29,-354.504 1662.26,-353.721 1668,-353 1696.69,-349.394 1728.44,-345.819 1755.62,-342.885"/>
<polygon fill="orange" stroke="orange" points="1649.75,-351.854 1640.32,-356.676 1650.7,-358.789 1649.75,-351.854"/>
<text text-anchor="middle" x="1703" y="-356" font-family="Helvetica,sans-Serif" font-size="10.00"> &lt; CatStream &gt;</text>
</g>
<!-- Node30&#45;&gt;Node1 -->
<g id="edge41" class="edge"><title>Node30&#45;&gt;Node1</title>
<path fill="none" stroke="#9a32cd" stroke-dasharray="5,2" d="M1900.62,-336.791C1917.57,-337.412 1935.41,-338.413 1952,-340 1957.94,-340.568 1964.09,-341.288 1970.24,-342.101"/>
<polygon fill="#9a32cd" stroke="#9a32cd" points="1900.32,-333.279 1890.21,-336.451 1900.09,-340.275 1900.32,-333.279"/>
<text text-anchor="middle" x="1930" y="-343" font-family="Helvetica,sans-Serif" font-size="10.00"> streams_</text>
</g>
<!-- Node31 -->
<g id="node31" class="node"><title>Node31</title>
<g id="a_node31"><a xlink:href="classthrill_1_1api_1_1MergeNode_1_1Stats.html" target="_top" xlink:title="Stats holds timers for measuring merge performance, that supports accumulating the output and printin...">
<polygon fill="none" stroke="black" points="1145,-53.5 1145,-72.5 1185,-72.5 1185,-53.5 1145,-53.5"/>
<text text-anchor="middle" x="1165" y="-60.5" font-family="Helvetica,sans-Serif" font-size="10.00">Stats</text>
</a>
</g>
</g>
<!-- Node31&#45;&gt;Node1 -->
<g id="edge43" class="edge"><title>Node31&#45;&gt;Node1</title>
<path fill="none" stroke="#9a32cd" stroke-dasharray="5,2" d="M1192.03,-77.1591C1228.17,-95.4587 1296.1,-125 1358,-125 1358,-125 1358,-125 1824,-125 1941.79,-125 2013.87,-288.028 2033.52,-338.975"/>
<polygon fill="#9a32cd" stroke="#9a32cd" points="1193.62,-74.0407 1183.13,-72.5516 1190.4,-80.2572 1193.62,-74.0407"/>
<text text-anchor="middle" x="1494" y="-128" font-family="Helvetica,sans-Serif" font-size="10.00"> stats_</text>
</g>
<!-- Node32&#45;&gt;Node31 -->
<g id="edge44" class="edge"><title>Node32&#45;&gt;Node31</title>
<path fill="none" stroke="#9a32cd" stroke-dasharray="5,2" d="M841.522,-4.84736C845.061,-4.51853 848.569,-4.23193 852,-4 895.456,-1.06274 906.838,1.84096 950,-4 1023.71,-13.9746 1107.91,-42.4435 1144.89,-55.8514"/>
<polygon fill="#9a32cd" stroke="#9a32cd" points="841.095,-1.37271 831.505,-5.87559 841.81,-8.33612 841.095,-1.37271"/>
<text text-anchor="middle" x="901" y="-95" font-family="Helvetica,sans-Serif" font-size="10.00"> search_step_timer_</text>
<text text-anchor="middle" x="901" y="-84" font-family="Helvetica,sans-Serif" font-size="10.00">scatter_timer_</text>
<text text-anchor="middle" x="901" y="-73" font-family="Helvetica,sans-Serif" font-size="10.00">merge_timer_</text>
<text text-anchor="middle" x="901" y="-62" font-family="Helvetica,sans-Serif" font-size="10.00">file_op_timer_</text>
<text text-anchor="middle" x="901" y="-51" font-family="Helvetica,sans-Serif" font-size="10.00">comm_timer_</text>
<text text-anchor="start" x="856.5" y="-40" font-family="Helvetica,sans-Serif" font-size="10.00">balancing_timer</text>
<text text-anchor="middle" x="901" y="-29" font-family="Helvetica,sans-Serif" font-size="10.00">_</text>
<text text-anchor="start" x="856.5" y="-18" font-family="Helvetica,sans-Serif" font-size="10.00">pivot_selection</text>
<text text-anchor="middle" x="901" y="-7" font-family="Helvetica,sans-Serif" font-size="10.00">_timer_</text>
</g>
</g>
</svg>
