<?xml version="1.0" encoding="UTF-8" standalone="no"?>
<!DOCTYPE svg PUBLIC "-//W3C//DTD SVG 1.1//EN"
 "http://www.w3.org/Graphics/SVG/1.1/DTD/svg11.dtd">
<!-- Generated by graphviz version 2.40.1 (20161225.0304)
 -->
<!-- Title: LoserTreeCopy&lt; Stable, ValueType, Comparator &gt; Pages: 1 -->
<svg width="215pt" height="274pt"
 viewBox="0.00 0.00 214.50 274.00" xmlns="http://www.w3.org/2000/svg" xmlns:xlink="http://www.w3.org/1999/xlink">
<g id="graph0" class="graph" transform="scale(1 1) rotate(0) translate(4 270)">
<title>LoserTreeCopy&lt; Stable, ValueType, Comparator &gt;</title>
<!-- Node2 -->
<g id="node1" class="node">
<title>Node2</title>
<polygon fill="#bfbfbf" stroke="#000000" points="5.5,-.5 5.5,-30.5 149.5,-30.5 149.5,-.5 5.5,-.5"/>
<text text-anchor="start" x="13.5" y="-18.5" font-family="Helvetica,sans-Serif" font-size="10.00" fill="#000000">LoserTreeCopy&lt; Stable,</text>
<text text-anchor="middle" x="77.5" y="-7.5" font-family="Helvetica,sans-Serif" font-size="10.00" fill="#000000"> ValueType, Comparator &gt;</text>
</g>
<!-- Node3 -->
<g id="node2" class="node">
<title>Node3</title>
<g id="a_node2"><a xlink:href="classtlx_1_1LoserTreeCopyBase.html" target="_top" xlink:title="Guarded loser tree/tournament tree, either copying the whole element into the tree structure...">
<polygon fill="none" stroke="#000000" points="5.5,-68.5 5.5,-98.5 149.5,-98.5 149.5,-68.5 5.5,-68.5"/>
<text text-anchor="start" x="13.5" y="-86.5" font-family="Helvetica,sans-Serif" font-size="10.00" fill="#000000">LoserTreeCopyBase&lt;</text>
<text text-anchor="middle" x="77.5" y="-75.5" font-family="Helvetica,sans-Serif" font-size="10.00" fill="#000000"> ValueType, Comparator &gt;</text>
</a>
</g>
</g>
<!-- Node3&#45;&gt;Node2 -->
<g id="edge1" class="edge">
<title>Node3&#45;&gt;Node2</title>
<path fill="none" stroke="#191970" d="M77.5,-58.1174C77.5,-48.8378 77.5,-38.6413 77.5,-30.5492"/>
<polygon fill="#191970" stroke="#191970" points="74.0001,-58.4086 77.5,-68.4086 81.0001,-58.4086 74.0001,-58.4086"/>
</g>
<!-- Node4 -->
<g id="node3" class="node">
<title>Node4</title>
<g id="a_node3"><a xlink:href="classtlx_1_1SimpleVector.html" target="_top" xlink:title="SimpleVector\&lt; tlx::\lLoserTreeCopyBase::Loser \&gt;">
<polygon fill="none" stroke="#000000" points="0,-146.5 0,-176.5 155,-176.5 155,-146.5 0,-146.5"/>
<text text-anchor="start" x="8" y="-164.5" font-family="Helvetica,sans-Serif" font-size="10.00" fill="#000000">SimpleVector&lt; tlx::</text>
<text text-anchor="middle" x="77.5" y="-153.5" font-family="Helvetica,sans-Serif" font-size="10.00" fill="#000000">LoserTreeCopyBase::Loser &gt;</text>
</a>
</g>
</g>
<!-- Node4&#45;&gt;Node3 -->
<g id="edge2" class="edge">
<title>Node4&#45;&gt;Node3</title>
<path fill="none" stroke="#9a32cd" stroke-dasharray="5,2" d="M77.5,-136.2875C77.5,-123.9187 77.5,-109.4264 77.5,-98.7592"/>
<polygon fill="#9a32cd" stroke="#9a32cd" points="74.0001,-136.4608 77.5,-146.4608 81.0001,-136.4608 74.0001,-136.4608"/>
<text text-anchor="middle" x="96.5" y="-120" font-family="Helvetica,sans-Serif" font-size="10.00" fill="#000000"> losers_</text>
</g>
<!-- Node5 -->
<g id="node4" class="node">
<title>Node5</title>
<g id="a_node4"><a xlink:href="classtlx_1_1SimpleVector.html" target="_top" xlink:title="Simpler non&#45;growing vector without initialization. ">
<polygon fill="none" stroke="#000000" points="5,-235.5 5,-265.5 150,-265.5 150,-235.5 5,-235.5"/>
<text text-anchor="start" x="13" y="-253.5" font-family="Helvetica,sans-Serif" font-size="10.00" fill="#000000">SimpleVector&lt; ValueType,</text>
<text text-anchor="middle" x="77.5" y="-242.5" font-family="Helvetica,sans-Serif" font-size="10.00" fill="#000000"> Mode &gt;</text>
</a>
</g>
</g>
<!-- Node5&#45;&gt;Node4 -->
<g id="edge3" class="edge">
<title>Node5&#45;&gt;Node4</title>
<path fill="none" stroke="#ffa500" stroke-dasharray="5,2" d="M77.5,-225.31C77.5,-209.6343 77.5,-189.9926 77.5,-176.6717"/>
<polygon fill="#ffa500" stroke="#ffa500" points="74.0001,-225.4023 77.5,-235.4024 81.0001,-225.4024 74.0001,-225.4023"/>
<text text-anchor="start" x="77.5" y="-209" font-family="Helvetica,sans-Serif" font-size="10.00" fill="#000000"> &lt; tlx::LoserTreeCopyBase</text>
<text text-anchor="middle" x="142" y="-198" font-family="Helvetica,sans-Serif" font-size="10.00" fill="#000000">::Loser &gt;</text>
</g>
</g>
</svg>
