<?xml version="1.0" encoding="UTF-8" standalone="no"?>
<!DOCTYPE svg PUBLIC "-//W3C//DTD SVG 1.1//EN"
 "http://www.w3.org/Graphics/SVG/1.1/DTD/svg11.dtd">
<!-- Generated by graphviz version 2.36.0 (20140111.2315)
 -->
<!-- Title: AlignedAllocator&lt; Type, BaseAllocator, Alignment &gt; Pages: 1 -->
<svg width="182pt" height="188pt"
 viewBox="0.00 0.00 182.00 188.00" xmlns="http://www.w3.org/2000/svg" xmlns:xlink="http://www.w3.org/1999/xlink">
<g id="graph0" class="graph" transform="scale(1 1) rotate(0) translate(4 184)">
<title>AlignedAllocator&lt; Type, BaseAllocator, Alignment &gt;</title>
<!-- Node1 -->
<g id="node1" class="node"><title>Node1</title>
<polygon fill="#bfbfbf" stroke="black" points="-0.5,-91 -0.5,-121 138.5,-121 138.5,-91 -0.5,-91"/>
<text text-anchor="start" x="7.5" y="-109" font-family="Helvetica,sans-Serif" font-size="10.00">AlignedAllocator&lt; Type,</text>
<text text-anchor="middle" x="69" y="-98" font-family="Helvetica,sans-Serif" font-size="10.00"> BaseAllocator, Alignment &gt;</text>
</g>
<!-- Node3 -->
<g id="node3" class="node"><title>Node3</title>
<g id="a_node3"><a xlink:href="classthrill_1_1mem_1_1AlignedAllocator.html" target="_top" xlink:title="AlignedAllocator\&lt; Byte,\l mem::Allocator\&lt; char \&gt; \&gt;">
<polygon fill="none" stroke="black" points="3.5,-1 3.5,-31 134.5,-31 134.5,-1 3.5,-1"/>
<text text-anchor="start" x="11.5" y="-19" font-family="Helvetica,sans-Serif" font-size="10.00">AlignedAllocator&lt; Byte,</text>
<text text-anchor="middle" x="69" y="-8" font-family="Helvetica,sans-Serif" font-size="10.00"> mem::Allocator&lt; char &gt; &gt;</text>
</a>
</g>
</g>
<!-- Node1&#45;&gt;Node3 -->
<g id="edge2" class="edge"><title>Node1&#45;&gt;Node3</title>
<path fill="none" stroke="orange" stroke-dasharray="5,2" d="M69,-80.6545C69,-64.711 69,-44.4341 69,-31.1036"/>
<polygon fill="orange" stroke="orange" points="65.5001,-80.8612 69,-90.8613 72.5001,-80.8613 65.5001,-80.8612"/>
<text text-anchor="start" x="69" y="-64" font-family="Helvetica,sans-Serif" font-size="10.00"> &lt; Byte, mem::Allocator</text>
<text text-anchor="middle" x="121.5" y="-53" font-family="Helvetica,sans-Serif" font-size="10.00">&lt; char &gt; &gt;</text>
</g>
<!-- Node2 -->
<g id="node2" class="node"><title>Node2</title>
<g id="a_node2"><a xlink:href="classtlx_1_1AllocatorBase.html" target="_top" xlink:title="AllocatorBase\&lt; Type \&gt;">
<polygon fill="none" stroke="black" points="10.5,-160.5 10.5,-179.5 127.5,-179.5 127.5,-160.5 10.5,-160.5"/>
<text text-anchor="middle" x="69" y="-167.5" font-family="Helvetica,sans-Serif" font-size="10.00">AllocatorBase&lt; Type &gt;</text>
</a>
</g>
</g>
<!-- Node2&#45;&gt;Node1 -->
<g id="edge1" class="edge"><title>Node2&#45;&gt;Node1</title>
<path fill="none" stroke="midnightblue" d="M69,-150.183C69,-140.886 69,-129.851 69,-121.263"/>
<polygon fill="midnightblue" stroke="midnightblue" points="65.5001,-150.379 69,-160.379 72.5001,-150.379 65.5001,-150.379"/>
</g>
</g>
</svg>
