<?xml version="1.0" encoding="UTF-8" standalone="no"?>
<!DOCTYPE svg PUBLIC "-//W3C//DTD SVG 1.1//EN"
 "http://www.w3.org/Graphics/SVG/1.1/DTD/svg11.dtd">
<!-- Generated by graphviz version 2.36.0 (20140111.2315)
 -->
<!-- Title: typed_block&lt; RawSize, Type, NRef, MetaInfoType &gt; Pages: 1 -->
<svg width="2636pt" height="301pt"
 viewBox="0.00 0.00 2636.00 301.09" xmlns="http://www.w3.org/2000/svg" xmlns:xlink="http://www.w3.org/1999/xlink">
<g id="graph0" class="graph" transform="scale(1 1) rotate(0) translate(4 297.086)">
<title>typed_block&lt; RawSize, Type, NRef, MetaInfoType &gt;</title>
<!-- Node1 -->
<g id="node1" class="node"><title>Node1</title>
<polygon fill="#bfbfbf" stroke="black" points="2482,-64.0862 2482,-94.0862 2628,-94.0862 2628,-64.0862 2482,-64.0862"/>
<text text-anchor="start" x="2490" y="-82.0862" font-family="Helvetica,sans-Serif" font-size="10.00">typed_block&lt; RawSize,</text>
<text text-anchor="middle" x="2555" y="-71.0862" font-family="Helvetica,sans-Serif" font-size="10.00"> Type, NRef, MetaInfoType &gt;</text>
</g>
<!-- Node2 -->
<g id="node2" class="node"><title>Node2</title>
<g id="a_node2"><a xlink:href="classfoxxll_1_1mng__local_1_1expand__struct.html" target="_top" xlink:title="expand_struct\&lt; mng\l_local::block_w_info\l\&lt; Type, RawSize, NRef,\l MetaInfoType \&gt;, RawSize \&gt;">
<polygon fill="none" stroke="black" points="2300.5,-53.0862 2300.5,-105.086 2443.5,-105.086 2443.5,-53.0862 2300.5,-53.0862"/>
<text text-anchor="start" x="2308.5" y="-93.0862" font-family="Helvetica,sans-Serif" font-size="10.00">expand_struct&lt; mng</text>
<text text-anchor="start" x="2308.5" y="-82.0862" font-family="Helvetica,sans-Serif" font-size="10.00">_local::block_w_info</text>
<text text-anchor="start" x="2308.5" y="-71.0862" font-family="Helvetica,sans-Serif" font-size="10.00">&lt; Type, RawSize, NRef,</text>
<text text-anchor="middle" x="2372" y="-60.0862" font-family="Helvetica,sans-Serif" font-size="10.00"> MetaInfoType &gt;, RawSize &gt;</text>
</a>
</g>
</g>
<!-- Node2&#45;&gt;Node1 -->
<g id="edge1" class="edge"><title>Node2&#45;&gt;Node1</title>
<path fill="none" stroke="midnightblue" d="M2453.8,-79.0862C2463.13,-79.0862 2472.6,-79.0862 2481.8,-79.0862"/>
<polygon fill="midnightblue" stroke="midnightblue" points="2453.76,-75.5863 2443.76,-79.0862 2453.76,-82.5863 2453.76,-75.5863"/>
</g>
<!-- Node3 -->
<g id="node3" class="node"><title>Node3</title>
<g id="a_node3"><a xlink:href="classfoxxll_1_1mng__local_1_1add__filler.html" target="_top" xlink:title="add_filler\&lt; mng_local\l::block_w_info\&lt; Type,\l RawSize, NRef, MetaInfoType\l \&gt;, RawSize&#45;sizeof(mng_local\l::block_w_info\&lt; Type, RawSize,\l NRef, MetaInfoType \&gt;)\&gt;">
<polygon fill="none" stroke="black" points="1840.5,-76.0862 1840.5,-150.086 1999.5,-150.086 1999.5,-76.0862 1840.5,-76.0862"/>
<text text-anchor="start" x="1848.5" y="-138.086" font-family="Helvetica,sans-Serif" font-size="10.00">add_filler&lt; mng_local</text>
<text text-anchor="start" x="1848.5" y="-127.086" font-family="Helvetica,sans-Serif" font-size="10.00">::block_w_info&lt; Type,</text>
<text text-anchor="start" x="1848.5" y="-116.086" font-family="Helvetica,sans-Serif" font-size="10.00"> RawSize, NRef, MetaInfoType</text>
<text text-anchor="start" x="1848.5" y="-105.086" font-family="Helvetica,sans-Serif" font-size="10.00"> &gt;, RawSize&#45;sizeof(mng_local</text>
<text text-anchor="start" x="1848.5" y="-94.0862" font-family="Helvetica,sans-Serif" font-size="10.00">::block_w_info&lt; Type, RawSize,</text>
<text text-anchor="middle" x="1920" y="-83.0862" font-family="Helvetica,sans-Serif" font-size="10.00"> NRef, MetaInfoType &gt;)&gt;</text>
</a>
</g>
</g>
<!-- Node3&#45;&gt;Node2 -->
<g id="edge2" class="edge"><title>Node3&#45;&gt;Node2</title>
<path fill="none" stroke="midnightblue" d="M2009.89,-112.402C2083.14,-110.999 2189.61,-107.029 2282,-96.0862 2287.94,-95.3831 2294.07,-94.5141 2300.21,-93.544"/>
<polygon fill="midnightblue" stroke="midnightblue" points="2009.72,-108.904 1999.78,-112.583 2009.84,-115.903 2009.72,-108.904"/>
</g>
<!-- Node4 -->
<g id="node4" class="node"><title>Node4</title>
<g id="a_node4"><a xlink:href="classfoxxll_1_1mng__local_1_1block__w__info.html" target="_top" xlink:title="block_w_info\&lt; Type,\l RawSize, NRef, MetaInfoType \&gt;">
<polygon fill="none" stroke="black" points="1496,-171.086 1496,-201.086 1660,-201.086 1660,-171.086 1496,-171.086"/>
<text text-anchor="start" x="1504" y="-189.086" font-family="Helvetica,sans-Serif" font-size="10.00">block_w_info&lt; Type,</text>
<text text-anchor="middle" x="1578" y="-178.086" font-family="Helvetica,sans-Serif" font-size="10.00"> RawSize, NRef, MetaInfoType &gt;</text>
</a>
</g>
</g>
<!-- Node4&#45;&gt;Node3 -->
<g id="edge3" class="edge"><title>Node4&#45;&gt;Node3</title>
<path fill="none" stroke="midnightblue" d="M1670,-180.587C1716.14,-176.267 1772.71,-168.609 1822,-155.086 1828.02,-153.435 1834.15,-151.482 1840.25,-149.336"/>
<polygon fill="midnightblue" stroke="midnightblue" points="1669.66,-177.103 1660.01,-181.484 1670.29,-184.074 1669.66,-177.103"/>
</g>
<!-- Node5 -->
<g id="node5" class="node"><title>Node5</title>
<g id="a_node5"><a xlink:href="classfoxxll_1_1mng__local_1_1block__w__bids.html" target="_top" xlink:title="block_w_bids\&lt; Type,\l((RawSize&#45;sizeof(BID\l\&lt; RawSize \&gt;)*NBids&#45;sizeof\l(MetaInfoType))/sizeof(Type)\l), RawSize, NBids \&gt;">
<polygon fill="none" stroke="black" points="946.5,-166.586 946.5,-229.586 1089.5,-229.586 1089.5,-166.586 946.5,-166.586"/>
<text text-anchor="start" x="954.5" y="-217.586" font-family="Helvetica,sans-Serif" font-size="10.00">block_w_bids&lt; Type,</text>
<text text-anchor="start" x="954.5" y="-206.586" font-family="Helvetica,sans-Serif" font-size="10.00">((RawSize&#45;sizeof(BID</text>
<text text-anchor="start" x="954.5" y="-195.586" font-family="Helvetica,sans-Serif" font-size="10.00">&lt; RawSize &gt;)*NBids&#45;sizeof</text>
<text text-anchor="start" x="954.5" y="-184.586" font-family="Helvetica,sans-Serif" font-size="10.00">(MetaInfoType))/sizeof(Type)</text>
<text text-anchor="middle" x="1018" y="-173.586" font-family="Helvetica,sans-Serif" font-size="10.00">), RawSize, NBids &gt;</text>
</a>
</g>
</g>
<!-- Node5&#45;&gt;Node4 -->
<g id="edge4" class="edge"><title>Node5&#45;&gt;Node4</title>
<path fill="none" stroke="midnightblue" d="M1099.65,-205.177C1191.5,-211.934 1345.95,-219.291 1478,-206.086 1489.08,-204.978 1500.75,-203.189 1512.05,-201.126"/>
<polygon fill="midnightblue" stroke="midnightblue" points="1099.82,-201.68 1089.59,-204.42 1099.3,-208.66 1099.82,-201.68"/>
</g>
<!-- Node14 -->
<g id="node14" class="node"><title>Node14</title>
<g id="a_node14"><a xlink:href="classfoxxll_1_1mng__local_1_1block__w__info.html" target="_top" xlink:title="Contains per block information for foxxll::typed_block , not intended for direct use. ">
<polygon fill="none" stroke="black" points="1180.5,-161.086 1180.5,-191.086 1347.5,-191.086 1347.5,-161.086 1180.5,-161.086"/>
<text text-anchor="start" x="1188.5" y="-179.086" font-family="Helvetica,sans-Serif" font-size="10.00">block_w_info&lt; Type,</text>
<text text-anchor="middle" x="1264" y="-168.086" font-family="Helvetica,sans-Serif" font-size="10.00"> RawSize, NBids, MetaInfoType &gt;</text>
</a>
</g>
</g>
<!-- Node5&#45;&gt;Node14 -->
<g id="edge17" class="edge"><title>Node5&#45;&gt;Node14</title>
<path fill="none" stroke="midnightblue" d="M1099.69,-190.81C1125.51,-188.483 1154.12,-185.903 1180.09,-183.562"/>
<polygon fill="midnightblue" stroke="midnightblue" points="1099.22,-187.339 1089.57,-191.723 1099.85,-194.311 1099.22,-187.339"/>
</g>
<!-- Node6 -->
<g id="node6" class="node"><title>Node6</title>
<g id="a_node6"><a xlink:href="classfoxxll_1_1mng__local_1_1element__block.html" target="_top" xlink:title="element_block\&lt; Type,\l Size \&gt;">
<polygon fill="none" stroke="black" points="504.5,-174.086 504.5,-204.086 617.5,-204.086 617.5,-174.086 504.5,-174.086"/>
<text text-anchor="start" x="512.5" y="-192.086" font-family="Helvetica,sans-Serif" font-size="10.00">element_block&lt; Type,</text>
<text text-anchor="middle" x="561" y="-181.086" font-family="Helvetica,sans-Serif" font-size="10.00"> Size &gt;</text>
</a>
</g>
</g>
<!-- Node6&#45;&gt;Node5 -->
<g id="edge5" class="edge"><title>Node6&#45;&gt;Node5</title>
<path fill="none" stroke="midnightblue" d="M627.77,-186.262C641.71,-185.772 656.338,-185.339 670,-185.086 726.879,-184.033 741.136,-183.4 798,-185.086 847.492,-186.554 903.193,-189.883 946.035,-192.805"/>
<polygon fill="midnightblue" stroke="midnightblue" points="627.63,-182.764 617.765,-186.626 627.886,-189.76 627.63,-182.764"/>
</g>
<!-- Node13 -->
<g id="node13" class="node"><title>Node13</title>
<g id="a_node13"><a xlink:href="classfoxxll_1_1mng__local_1_1block__w__bids.html" target="_top" xlink:title="Contains BID references for foxxll::typed_block , not intended for direct use. ">
<polygon fill="none" stroke="black" points="670.5,-194.086 670.5,-224.086 797.5,-224.086 797.5,-194.086 670.5,-194.086"/>
<text text-anchor="start" x="678.5" y="-212.086" font-family="Helvetica,sans-Serif" font-size="10.00">block_w_bids&lt; Type,</text>
<text text-anchor="middle" x="734" y="-201.086" font-family="Helvetica,sans-Serif" font-size="10.00"> Size, RawSize, NBids &gt;</text>
</a>
</g>
</g>
<!-- Node6&#45;&gt;Node13 -->
<g id="edge14" class="edge"><title>Node6&#45;&gt;Node13</title>
<path fill="none" stroke="midnightblue" d="M627.585,-196.757C641.625,-198.399 656.425,-200.13 670.351,-201.759"/>
<polygon fill="midnightblue" stroke="midnightblue" points="627.858,-193.265 617.519,-195.58 627.044,-200.218 627.858,-193.265"/>
</g>
<!-- Node7 -->
<g id="node7" class="node"><title>Node7</title>
<g id="a_node7"><a xlink:href="classfoxxll_1_1mng__local_1_1element__block.html" target="_top" xlink:title="Contains data elements for foxxll::typed_block , not intended for direct use. ">
<polygon fill="none" stroke="black" points="284.5,-174.086 284.5,-204.086 397.5,-204.086 397.5,-174.086 284.5,-174.086"/>
<text text-anchor="start" x="292.5" y="-192.086" font-family="Helvetica,sans-Serif" font-size="10.00">element_block&lt; Type,</text>
<text text-anchor="middle" x="341" y="-181.086" font-family="Helvetica,sans-Serif" font-size="10.00"> kSize &gt;</text>
</a>
</g>
</g>
<!-- Node7&#45;&gt;Node6 -->
<g id="edge6" class="edge"><title>Node7&#45;&gt;Node6</title>
<path fill="none" stroke="orange" stroke-dasharray="5,2" d="M407.775,-189.086C438.525,-189.086 474.751,-189.086 504.148,-189.086"/>
<polygon fill="orange" stroke="orange" points="407.575,-185.586 397.575,-189.086 407.575,-192.586 407.575,-185.586"/>
<text text-anchor="middle" x="451" y="-192.086" font-family="Helvetica,sans-Serif" font-size="10.00"> &lt; Type, Size &gt;</text>
</g>
<!-- Node8 -->
<g id="node8" class="node"><title>Node8</title>
<g id="a_node8"><a xlink:href="classfoxxll_1_1BID.html" target="_top" xlink:title="BID\&lt; raw_size \&gt;">
<polygon fill="none" stroke="black" points="515.5,-237.586 515.5,-256.586 606.5,-256.586 606.5,-237.586 515.5,-237.586"/>
<text text-anchor="middle" x="561" y="-244.586" font-family="Helvetica,sans-Serif" font-size="10.00">BID&lt; raw_size &gt;</text>
</a>
</g>
</g>
<!-- Node8&#45;&gt;Node5 -->
<g id="edge7" class="edge"><title>Node8&#45;&gt;Node5</title>
<path fill="none" stroke="#9a32cd" stroke-dasharray="5,2" d="M616.62,-257.998C689.317,-270.317 821.127,-284.912 928,-254.086 945.365,-249.077 962.61,-239.568 977.23,-229.787"/>
<polygon fill="#9a32cd" stroke="#9a32cd" points="617.215,-254.55 606.763,-256.28 616.013,-261.446 617.215,-254.55"/>
<text text-anchor="middle" x="734" y="-275.086" font-family="Helvetica,sans-Serif" font-size="10.00"> ref</text>
</g>
<!-- Node8&#45;&gt;Node13 -->
<g id="edge15" class="edge"><title>Node8&#45;&gt;Node13</title>
<path fill="none" stroke="#9a32cd" stroke-dasharray="5,2" d="M615.19,-235.266C632.703,-231.374 652.336,-227.011 670.479,-222.98"/>
<polygon fill="#9a32cd" stroke="#9a32cd" points="614.153,-231.911 605.151,-237.497 615.672,-238.744 614.153,-231.911"/>
<text text-anchor="middle" x="644" y="-233.086" font-family="Helvetica,sans-Serif" font-size="10.00"> ref</text>
</g>
<!-- Node9 -->
<g id="node9" class="node"><title>Node9</title>
<g id="a_node9"><a xlink:href="classfoxxll_1_1file.html" target="_top" xlink:title="file">
<polygon fill="none" stroke="black" points="182.5,-254.586 182.5,-273.586 211.5,-273.586 211.5,-254.586 182.5,-254.586"/>
<text text-anchor="middle" x="197" y="-261.586" font-family="Helvetica,sans-Serif" font-size="10.00">file</text>
</a>
</g>
</g>
<!-- Node9&#45;&gt;Node8 -->
<g id="edge8" class="edge"><title>Node9&#45;&gt;Node8</title>
<path fill="none" stroke="#9a32cd" stroke-dasharray="5,2" d="M221.865,-267.4C224.604,-267.682 227.36,-267.922 230,-268.086 245.969,-269.08 250.004,-268.45 266,-268.086 363.853,-265.863 388.577,-267.516 486,-258.086 495.567,-257.16 505.786,-255.85 515.481,-254.456"/>
<polygon fill="#9a32cd" stroke="#9a32cd" points="222.014,-263.893 211.668,-266.174 221.179,-270.843 222.014,-263.893"/>
<text text-anchor="middle" x="341" y="-270.086" font-family="Helvetica,sans-Serif" font-size="10.00"> storage</text>
</g>
<!-- Node12 -->
<g id="node12" class="node"><title>Node12</title>
<g id="a_node12"><a xlink:href="classfoxxll_1_1BID.html" target="_top" xlink:title="BID\&lt; Size \&gt;">
<polygon fill="none" stroke="black" points="305.5,-226.586 305.5,-245.586 376.5,-245.586 376.5,-226.586 305.5,-226.586"/>
<text text-anchor="middle" x="341" y="-233.586" font-family="Helvetica,sans-Serif" font-size="10.00">BID&lt; Size &gt;</text>
</a>
</g>
</g>
<!-- Node9&#45;&gt;Node12 -->
<g id="edge12" class="edge"><title>Node9&#45;&gt;Node12</title>
<path fill="none" stroke="#9a32cd" stroke-dasharray="5,2" d="M221.588,-258.852C224.42,-258.245 227.274,-257.645 230,-257.086 255.142,-251.937 283.602,-246.515 305.274,-242.47"/>
<polygon fill="#9a32cd" stroke="#9a32cd" points="220.712,-255.46 211.686,-261.008 222.202,-262.3 220.712,-255.46"/>
<text text-anchor="middle" x="248" y="-260.086" font-family="Helvetica,sans-Serif" font-size="10.00"> storage</text>
</g>
<!-- Node10 -->
<g id="node10" class="node"><title>Node10</title>
<g id="a_node10"><a xlink:href="classtlx_1_1ReferenceCounter.html" target="_top" xlink:title="Provides reference counting abilities for use with CountingPtr. ">
<polygon fill="none" stroke="black" points="0.5,-273.586 0.5,-292.586 95.5,-292.586 95.5,-273.586 0.5,-273.586"/>
<text text-anchor="middle" x="48" y="-280.586" font-family="Helvetica,sans-Serif" font-size="10.00">reference_counter</text>
</a>
</g>
</g>
<!-- Node10&#45;&gt;Node9 -->
<g id="edge9" class="edge"><title>Node10&#45;&gt;Node9</title>
<path fill="none" stroke="midnightblue" d="M105.612,-275.769C133.537,-272.16 164.901,-268.106 182.368,-265.848"/>
<polygon fill="midnightblue" stroke="midnightblue" points="104.981,-272.321 95.5117,-277.074 105.878,-279.264 104.981,-272.321"/>
</g>
<!-- Node11 -->
<g id="node11" class="node"><title>Node11</title>
<g id="a_node11"><a xlink:href="classfoxxll_1_1file__stats.html" target="_top" xlink:title="file_stats">
<polygon fill="none" stroke="black" points="20,-235.586 20,-254.586 76,-254.586 76,-235.586 20,-235.586"/>
<text text-anchor="middle" x="48" y="-242.586" font-family="Helvetica,sans-Serif" font-size="10.00">file_stats</text>
</a>
</g>
</g>
<!-- Node11&#45;&gt;Node9 -->
<g id="edge10" class="edge"><title>Node11&#45;&gt;Node9</title>
<path fill="none" stroke="#9a32cd" stroke-dasharray="5,2" d="M86.4368,-245.225C109.085,-245.917 138.433,-247.896 164,-253.086 170.103,-254.325 176.638,-256.424 182.201,-258.458"/>
<polygon fill="#9a32cd" stroke="#9a32cd" points="86.3012,-241.721 76.2218,-244.985 86.1369,-248.719 86.3012,-241.721"/>
<text text-anchor="middle" x="139" y="-256.086" font-family="Helvetica,sans-Serif" font-size="10.00"> file_stats_</text>
</g>
<!-- Node12&#45;&gt;Node8 -->
<g id="edge11" class="edge"><title>Node12&#45;&gt;Node8</title>
<path fill="none" stroke="orange" stroke-dasharray="5,2" d="M386.706,-238.342C424.326,-240.24 477.849,-242.941 515.431,-244.837"/>
<polygon fill="orange" stroke="orange" points="386.706,-234.838 376.543,-237.829 386.354,-241.829 386.706,-234.838"/>
<text text-anchor="middle" x="451" y="-246.086" font-family="Helvetica,sans-Serif" font-size="10.00"> &lt; raw_size &gt;</text>
</g>
<!-- Node13&#45;&gt;Node5 -->
<g id="edge13" class="edge"><title>Node13&#45;&gt;Node5</title>
<path fill="none" stroke="orange" stroke-dasharray="5,2" d="M807.806,-199.686C810.57,-199.46 813.309,-199.258 816,-199.086 859.183,-196.323 907.691,-196.002 946.234,-196.406"/>
<polygon fill="orange" stroke="orange" points="807.367,-196.212 797.724,-200.602 808,-203.183 807.367,-196.212"/>
<text text-anchor="start" x="816" y="-246.086" font-family="Helvetica,sans-Serif" font-size="10.00"> &lt; Type,((RawSize&#45;sizeof</text>
<text text-anchor="start" x="816" y="-235.086" font-family="Helvetica,sans-Serif" font-size="10.00">(BID&lt; RawSize &gt;)*NBids</text>
<text text-anchor="start" x="816" y="-224.086" font-family="Helvetica,sans-Serif" font-size="10.00">&#45;sizeof(MetaInfoType))</text>
<text text-anchor="start" x="816" y="-213.086" font-family="Helvetica,sans-Serif" font-size="10.00">/sizeof(Type)), RawSize,</text>
<text text-anchor="middle" x="872" y="-202.086" font-family="Helvetica,sans-Serif" font-size="10.00"> NBids &gt;</text>
</g>
<!-- Node14&#45;&gt;Node4 -->
<g id="edge16" class="edge"><title>Node14&#45;&gt;Node4</title>
<path fill="none" stroke="orange" stroke-dasharray="5,2" d="M1357.89,-179.064C1401.79,-180.471 1453.71,-182.134 1495.98,-183.489"/>
<polygon fill="orange" stroke="orange" points="1357.9,-175.562 1347.79,-178.74 1357.67,-182.558 1357.9,-175.562"/>
<text text-anchor="start" x="1366" y="-197.086" font-family="Helvetica,sans-Serif" font-size="10.00"> &lt; Type, RawSize, NRef,</text>
<text text-anchor="middle" x="1422" y="-186.086" font-family="Helvetica,sans-Serif" font-size="10.00"> MetaInfoType &gt;</text>
</g>
<!-- Node15 -->
<g id="node15" class="node"><title>Node15</title>
<g id="a_node15"><a xlink:href="classfoxxll_1_1mng__local_1_1filler__struct.html" target="_top" xlink:title="filler_struct\&lt; FillSize \&gt;">
<polygon fill="none" stroke="black" points="1206.5,-34.5862 1206.5,-53.5862 1321.5,-53.5862 1321.5,-34.5862 1206.5,-34.5862"/>
<text text-anchor="middle" x="1264" y="-41.5862" font-family="Helvetica,sans-Serif" font-size="10.00">filler_struct&lt; FillSize &gt;</text>
</a>
</g>
</g>
<!-- Node15&#45;&gt;Node3 -->
<g id="edge18" class="edge"><title>Node15&#45;&gt;Node3</title>
<path fill="none" stroke="#9a32cd" stroke-dasharray="5,2" d="M1310.39,-56.2884C1385.95,-75.9056 1542.64,-113.619 1678,-127.086 1741.69,-133.422 1758.16,-131.669 1822,-127.086 1828.02,-126.654 1834.24,-126.072 1840.49,-125.391"/>
<polygon fill="#9a32cd" stroke="#9a32cd" points="1310.83,-52.7876 1300.27,-53.6449 1309.06,-59.5601 1310.83,-52.7876"/>
<text text-anchor="middle" x="1578" y="-128.086" font-family="Helvetica,sans-Serif" font-size="10.00"> filler</text>
</g>
<!-- Node17 -->
<g id="node17" class="node"><title>Node17</title>
<g id="a_node17"><a xlink:href="classfoxxll_1_1mng__local_1_1add__filler.html" target="_top" xlink:title="Contains per block filler for foxxll::typed_block , not intended for direct use. ">
<polygon fill="none" stroke="black" points="1522,-29.0862 1522,-59.0862 1634,-59.0862 1634,-29.0862 1522,-29.0862"/>
<text text-anchor="start" x="1530" y="-47.0862" font-family="Helvetica,sans-Serif" font-size="10.00">add_filler&lt; BaseType,</text>
<text text-anchor="middle" x="1578" y="-36.0862" font-family="Helvetica,sans-Serif" font-size="10.00"> FillSize &gt;</text>
</a>
</g>
</g>
<!-- Node15&#45;&gt;Node17 -->
<g id="edge21" class="edge"><title>Node15&#45;&gt;Node17</title>
<path fill="none" stroke="#9a32cd" stroke-dasharray="5,2" d="M1331.8,-44.0862C1388.51,-44.0862 1468.9,-44.0862 1521.97,-44.0862"/>
<polygon fill="#9a32cd" stroke="#9a32cd" points="1331.5,-40.5863 1321.5,-44.0862 1331.5,-47.5863 1331.5,-40.5863"/>
<text text-anchor="middle" x="1422" y="-47.0862" font-family="Helvetica,sans-Serif" font-size="10.00"> filler</text>
</g>
<!-- Node19 -->
<g id="node19" class="node"><title>Node19</title>
<g id="a_node19"><a xlink:href="classfoxxll_1_1mng__local_1_1add__filler.html" target="_top" xlink:title="add_filler\&lt; Type, RawSize\l&#45;sizeof(Type)\&gt;">
<polygon fill="none" stroke="black" points="1854,-0.0861709 1854,-30.0862 1986,-30.0862 1986,-0.0861709 1854,-0.0861709"/>
<text text-anchor="start" x="1862" y="-18.0862" font-family="Helvetica,sans-Serif" font-size="10.00">add_filler&lt; Type, RawSize</text>
<text text-anchor="middle" x="1920" y="-7.08617" font-family="Helvetica,sans-Serif" font-size="10.00">&#45;sizeof(Type)&gt;</text>
</a>
</g>
</g>
<!-- Node15&#45;&gt;Node19 -->
<g id="edge24" class="edge"><title>Node15&#45;&gt;Node19</title>
<path fill="none" stroke="#9a32cd" stroke-dasharray="5,2" d="M1322.89,-32.7014C1369.44,-24.1178 1436.65,-13.0115 1496,-8.08617 1640.4,3.89637 1677.26,0.614025 1822,-6.08617 1832.31,-6.56324 1843.21,-7.32396 1853.84,-8.20607"/>
<polygon fill="#9a32cd" stroke="#9a32cd" points="1322.17,-29.2741 1312.98,-34.5467 1323.46,-36.1556 1322.17,-29.2741"/>
<text text-anchor="middle" x="1578" y="-11.0862" font-family="Helvetica,sans-Serif" font-size="10.00"> filler</text>
</g>
<!-- Node16 -->
<g id="node16" class="node"><title>Node16</title>
<g id="a_node16"><a xlink:href="classfoxxll_1_1mng__local_1_1filler__struct.html" target="_top" xlink:title="filler_struct\&lt; Bytes \&gt;">
<polygon fill="none" stroke="black" points="964,-34.5862 964,-53.5862 1072,-53.5862 1072,-34.5862 964,-34.5862"/>
<text text-anchor="middle" x="1018" y="-41.5862" font-family="Helvetica,sans-Serif" font-size="10.00">filler_struct&lt; Bytes &gt;</text>
</a>
</g>
</g>
<!-- Node16&#45;&gt;Node15 -->
<g id="edge19" class="edge"><title>Node16&#45;&gt;Node15</title>
<path fill="none" stroke="orange" stroke-dasharray="5,2" d="M1082.29,-44.0862C1120.71,-44.0862 1169.34,-44.0862 1206.47,-44.0862"/>
<polygon fill="orange" stroke="orange" points="1082.25,-40.5863 1072.25,-44.0862 1082.25,-47.5863 1082.25,-40.5863"/>
<text text-anchor="middle" x="1135" y="-47.0862" font-family="Helvetica,sans-Serif" font-size="10.00"> &lt; FillSize &gt;</text>
</g>
<!-- Node17&#45;&gt;Node3 -->
<g id="edge20" class="edge"><title>Node17&#45;&gt;Node3</title>
<path fill="none" stroke="orange" stroke-dasharray="5,2" d="M1644.47,-41.3025C1694.14,-40.942 1763.58,-44.2263 1822,-61.0862 1834.48,-64.689 1847.18,-70.0468 1859.09,-75.973"/>
<polygon fill="orange" stroke="orange" points="1644.14,-37.8063 1634.19,-41.4312 1644.23,-44.8057 1644.14,-37.8063"/>
<text text-anchor="start" x="1678.5" y="-119.086" font-family="Helvetica,sans-Serif" font-size="10.00"> &lt; mng_local::block</text>
<text text-anchor="start" x="1678.5" y="-108.086" font-family="Helvetica,sans-Serif" font-size="10.00">_w_info&lt; Type, RawSize,</text>
<text text-anchor="start" x="1678.5" y="-97.0862" font-family="Helvetica,sans-Serif" font-size="10.00"> NRef, MetaInfoType &gt;,</text>
<text text-anchor="start" x="1678.5" y="-86.0862" font-family="Helvetica,sans-Serif" font-size="10.00"> RawSize&#45;sizeof(mng_local</text>
<text text-anchor="start" x="1678.5" y="-75.0862" font-family="Helvetica,sans-Serif" font-size="10.00">::block_w_info&lt; Type, RawSize,</text>
<text text-anchor="middle" x="1750" y="-64.0862" font-family="Helvetica,sans-Serif" font-size="10.00"> NRef, MetaInfoType &gt;)&gt;</text>
</g>
<!-- Node17&#45;&gt;Node19 -->
<g id="edge25" class="edge"><title>Node17&#45;&gt;Node19</title>
<path fill="none" stroke="orange" stroke-dasharray="5,2" d="M1632.22,-26.1761C1646.88,-22.0291 1662.91,-18.2109 1678,-16.0862 1737.14,-7.75815 1805.26,-8.40689 1853.96,-10.6107"/>
<polygon fill="orange" stroke="orange" points="1630.92,-22.9087 1622.31,-29.0828 1632.9,-29.6255 1630.92,-22.9087"/>
<text text-anchor="start" x="1695.5" y="-30.0862" font-family="Helvetica,sans-Serif" font-size="10.00"> &lt; Type, RawSize&#45;sizeof</text>
<text text-anchor="middle" x="1750" y="-19.0862" font-family="Helvetica,sans-Serif" font-size="10.00">(Type)&gt;</text>
</g>
<!-- Node18 -->
<g id="node18" class="node"><title>Node18</title>
<g id="a_node18"><a xlink:href="classfoxxll_1_1mng__local_1_1expand__struct.html" target="_top" xlink:title="Helper to compute the size of the filler , not intended for direct use. ">
<polygon fill="none" stroke="black" points="2038,-29.0862 2038,-59.0862 2150,-59.0862 2150,-29.0862 2038,-29.0862"/>
<text text-anchor="start" x="2046" y="-47.0862" font-family="Helvetica,sans-Serif" font-size="10.00">expand_struct&lt; Type,</text>
<text text-anchor="middle" x="2094" y="-36.0862" font-family="Helvetica,sans-Serif" font-size="10.00"> RawSize &gt;</text>
</a>
</g>
</g>
<!-- Node18&#45;&gt;Node2 -->
<g id="edge22" class="edge"><title>Node18&#45;&gt;Node2</title>
<path fill="none" stroke="orange" stroke-dasharray="5,2" d="M2160.6,-42.8733C2196.66,-43.2113 2242.06,-45.2851 2282,-52.0862 2288.05,-53.1161 2294.26,-54.4351 2300.46,-55.9348"/>
<polygon fill="orange" stroke="orange" points="2160.22,-39.3715 2150.21,-42.821 2160.19,-46.3714 2160.22,-39.3715"/>
<text text-anchor="start" x="2168" y="-88.0862" font-family="Helvetica,sans-Serif" font-size="10.00"> &lt; mng_local::block</text>
<text text-anchor="start" x="2168" y="-77.0862" font-family="Helvetica,sans-Serif" font-size="10.00">_w_info&lt; Type, RawSize,</text>
<text text-anchor="start" x="2168" y="-66.0862" font-family="Helvetica,sans-Serif" font-size="10.00"> NRef, MetaInfoType &gt;,</text>
<text text-anchor="middle" x="2225" y="-55.0862" font-family="Helvetica,sans-Serif" font-size="10.00"> RawSize &gt;</text>
</g>
<!-- Node19&#45;&gt;Node18 -->
<g id="edge23" class="edge"><title>Node19&#45;&gt;Node18</title>
<path fill="none" stroke="midnightblue" d="M1996.17,-27.7606C2010.23,-30.1312 2024.69,-32.568 2037.99,-34.8119"/>
<polygon fill="midnightblue" stroke="midnightblue" points="1996.47,-24.2612 1986.03,-26.0498 1995.3,-31.1638 1996.47,-24.2612"/>
</g>
</g>
</svg>
