<?xml version="1.0" encoding="UTF-8" standalone="no"?>
<!DOCTYPE svg PUBLIC "-//W3C//DTD SVG 1.1//EN"
 "http://www.w3.org/Graphics/SVG/1.1/DTD/svg11.dtd">
<!-- Generated by graphviz version 2.36.0 (20140111.2315)
 -->
<!-- Title: StreamSink Pages: 1 -->
<svg width="455pt" height="376pt"
 viewBox="0.00 0.00 454.81 376.00" xmlns="http://www.w3.org/2000/svg" xmlns:xlink="http://www.w3.org/1999/xlink">
<g id="graph0" class="graph" transform="scale(1 1) rotate(0) translate(4 372)">
<title>StreamSink</title>
<!-- Node1 -->
<g id="node1" class="node"><title>Node1</title>
<polygon fill="#bfbfbf" stroke="black" points="198.811,-0.5 198.811,-19.5 266.811,-19.5 266.811,-0.5 198.811,-0.5"/>
<text text-anchor="middle" x="232.811" y="-7.5" font-family="Helvetica,sans-Serif" font-size="10.00">StreamSink</text>
</g>
<!-- Node2 -->
<g id="node2" class="node"><title>Node2</title>
<g id="a_node2"><a xlink:href="classthrill_1_1data_1_1BlockSink.html" target="_top" xlink:title="Pure virtual base class for all things that can receive Blocks from a BlockWriter. ">
<polygon fill="none" stroke="black" points="307.311,-106.5 307.311,-125.5 368.311,-125.5 368.311,-106.5 307.311,-106.5"/>
<text text-anchor="middle" x="337.811" y="-113.5" font-family="Helvetica,sans-Serif" font-size="10.00">BlockSink</text>
</a>
</g>
</g>
<!-- Node2&#45;&gt;Node1 -->
<g id="edge1" class="edge"><title>Node2&#45;&gt;Node1</title>
<path fill="none" stroke="midnightblue" d="M301.058,-102.336C293.162,-98.5267 285.263,-93.782 278.811,-88 267.389,-77.763 246.306,-37.6836 237.195,-19.7533"/>
<polygon fill="midnightblue" stroke="midnightblue" points="299.676,-105.551 310.239,-106.383 302.5,-99.1462 299.676,-105.551"/>
</g>
<!-- Node3 -->
<g id="node3" class="node"><title>Node3</title>
<g id="a_node3"><a xlink:href="classthrill_1_1data_1_1BlockPool.html" target="_top" xlink:title="Pool to allocate, keep, swap out/in, and free all ByteBlocks on the host. ">
<polygon fill="none" stroke="black" points="278.311,-212.5 278.311,-231.5 339.311,-231.5 339.311,-212.5 278.311,-212.5"/>
<text text-anchor="middle" x="308.811" y="-219.5" font-family="Helvetica,sans-Serif" font-size="10.00">BlockPool</text>
</a>
</g>
</g>
<!-- Node3&#45;&gt;Node2 -->
<g id="edge2" class="edge"><title>Node3&#45;&gt;Node2</title>
<path fill="none" stroke="#9a32cd" stroke-dasharray="5,2" d="M317.792,-202.778C319.172,-199.858 320.554,-196.857 321.811,-194 327.596,-180.856 330.5,-177.973 333.811,-164 336.908,-150.932 337.679,-135.318 337.833,-125.784"/>
<polygon fill="#9a32cd" stroke="#9a32cd" points="314.501,-201.545 313.299,-212.071 320.803,-204.592 314.501,-201.545"/>
<text text-anchor="middle" x="355.311" y="-185.5" font-family="Helvetica,sans-Serif" font-size="10.00"> block_pool_</text>
</g>
<!-- Node12 -->
<g id="node12" class="node"><title>Node12</title>
<g id="a_node12"><a xlink:href="classthrill_1_1data_1_1Multiplexer.html" target="_top" xlink:title="Multiplexes virtual Connections on Dispatcher. ">
<polygon fill="none" stroke="black" points="146.811,-144.5 146.811,-163.5 210.811,-163.5 210.811,-144.5 146.811,-144.5"/>
<text text-anchor="middle" x="178.811" y="-151.5" font-family="Helvetica,sans-Serif" font-size="10.00">Multiplexer</text>
</a>
</g>
</g>
<!-- Node3&#45;&gt;Node12 -->
<g id="edge18" class="edge"><title>Node3&#45;&gt;Node12</title>
<path fill="none" stroke="#9a32cd" stroke-dasharray="5,2" d="M286.594,-207.148C273.727,-199.36 257.098,-189.689 241.811,-182 228.416,-175.263 212.946,-168.617 200.687,-163.604"/>
<polygon fill="#9a32cd" stroke="#9a32cd" points="284.869,-210.196 295.225,-212.431 288.523,-204.225 284.869,-210.196"/>
<text text-anchor="middle" x="290.311" y="-185.5" font-family="Helvetica,sans-Serif" font-size="10.00"> block_pool_</text>
</g>
<!-- Node4 -->
<g id="node4" class="node"><title>Node4</title>
<g id="a_node4"><a xlink:href="classthrill_1_1common_1_1ProfileTask.html" target="_top" xlink:title="ProfileTask">
<polygon fill="none" stroke="black" points="380.811,-280.5 380.811,-299.5 446.811,-299.5 446.811,-280.5 380.811,-280.5"/>
<text text-anchor="middle" x="413.811" y="-287.5" font-family="Helvetica,sans-Serif" font-size="10.00">ProfileTask</text>
</a>
</g>
</g>
<!-- Node4&#45;&gt;Node3 -->
<g id="edge3" class="edge"><title>Node4&#45;&gt;Node3</title>
<path fill="none" stroke="midnightblue" d="M391.52,-274.988C370.631,-261.858 340.072,-242.65 322.541,-231.63"/>
<polygon fill="midnightblue" stroke="midnightblue" points="389.755,-278.013 400.084,-280.372 393.48,-272.087 389.755,-278.013"/>
</g>
<!-- Node5 -->
<g id="node5" class="node"><title>Node5</title>
<g id="a_node5"><a xlink:href="classthrill_1_1common_1_1JsonLogger.html" target="_top" xlink:title="JsonLogger is a receiver of JSON output objects for logging. ">
<polygon fill="none" stroke="black" points="244.311,-280.5 244.311,-299.5 311.311,-299.5 311.311,-280.5 244.311,-280.5"/>
<text text-anchor="middle" x="277.811" y="-287.5" font-family="Helvetica,sans-Serif" font-size="10.00">JsonLogger</text>
</a>
</g>
</g>
<!-- Node5&#45;&gt;Node3 -->
<g id="edge4" class="edge"><title>Node5&#45;&gt;Node3</title>
<path fill="none" stroke="#9a32cd" stroke-dasharray="5,2" d="M286.178,-271.186C292.159,-258.452 299.952,-241.861 304.659,-231.841"/>
<polygon fill="#9a32cd" stroke="#9a32cd" points="282.947,-269.832 281.864,-280.372 289.283,-272.808 282.947,-269.832"/>
<text text-anchor="middle" x="314.311" y="-253.5" font-family="Helvetica,sans-Serif" font-size="10.00"> logger_</text>
</g>
<!-- Node5&#45;&gt;Node5 -->
<g id="edge6" class="edge"><title>Node5&#45;&gt;Node5</title>
<path fill="none" stroke="#9a32cd" stroke-dasharray="5,2" d="M321.677,-295.203C326.037,-294.162 328.811,-292.428 328.811,-290 328.811,-286.016 321.34,-283.899 311.652,-283.65"/>
<polygon fill="#9a32cd" stroke="#9a32cd" points="321.189,-291.736 311.652,-296.35 321.985,-298.691 321.189,-291.736"/>
<text text-anchor="middle" x="345.311" y="-287.5" font-family="Helvetica,sans-Serif" font-size="10.00"> super_</text>
</g>
<!-- Node6 -->
<g id="node6" class="node"><title>Node6</title>
<g id="a_node6"><a xlink:href="classthrill_1_1common_1_1JsonVerbatim.html" target="_top" xlink:title="A special class to output verbatim text. ">
<polygon fill="none" stroke="black" points="239.311,-348.5 239.311,-367.5 316.311,-367.5 316.311,-348.5 239.311,-348.5"/>
<text text-anchor="middle" x="277.811" y="-355.5" font-family="Helvetica,sans-Serif" font-size="10.00">JsonVerbatim</text>
</a>
</g>
</g>
<!-- Node6&#45;&gt;Node5 -->
<g id="edge5" class="edge"><title>Node6&#45;&gt;Node5</title>
<path fill="none" stroke="#9a32cd" stroke-dasharray="5,2" d="M277.811,-338.041C277.811,-325.472 277.811,-309.563 277.811,-299.841"/>
<polygon fill="#9a32cd" stroke="#9a32cd" points="274.311,-338.372 277.811,-348.372 281.311,-338.372 274.311,-338.372"/>
<text text-anchor="middle" x="300.811" y="-321.5" font-family="Helvetica,sans-Serif" font-size="10.00"> common_</text>
</g>
<!-- Node7 -->
<g id="node7" class="node"><title>Node7</title>
<g id="a_node7"><a xlink:href="classthrill_1_1mem_1_1Manager.html" target="_top" xlink:title="Object shared by allocators and other classes to track memory allocations. ">
<polygon fill="none" stroke="black" points="89.8112,-280.5 89.8112,-299.5 143.811,-299.5 143.811,-280.5 89.8112,-280.5"/>
<text text-anchor="middle" x="116.811" y="-287.5" font-family="Helvetica,sans-Serif" font-size="10.00">Manager</text>
</a>
</g>
</g>
<!-- Node7&#45;&gt;Node3 -->
<g id="edge7" class="edge"><title>Node7&#45;&gt;Node3</title>
<path fill="none" stroke="#9a32cd" stroke-dasharray="5,2" d="M152.33,-277.106C164.653,-272.7 178.469,-267.443 190.811,-262 201.361,-257.347 203.099,-254.265 213.811,-250 234.68,-241.692 259.067,-234.816 277.907,-230.083"/>
<polygon fill="#9a32cd" stroke="#9a32cd" points="151.1,-273.828 142.825,-280.444 153.419,-280.433 151.1,-273.828"/>
<text text-anchor="middle" x="250.311" y="-253.5" font-family="Helvetica,sans-Serif" font-size="10.00"> mem_manager_</text>
</g>
<!-- Node7&#45;&gt;Node7 -->
<g id="edge8" class="edge"><title>Node7&#45;&gt;Node7</title>
<path fill="none" stroke="#9a32cd" stroke-dasharray="5,2" d="M154.322,-295.495C158.849,-294.502 161.811,-292.671 161.811,-290 161.811,-285.617 153.835,-283.494 144.052,-283.631"/>
<polygon fill="#9a32cd" stroke="#9a32cd" points="153.719,-292.033 144.052,-296.369 154.313,-299.008 153.719,-292.033"/>
<text text-anchor="middle" x="178.311" y="-287.5" font-family="Helvetica,sans-Serif" font-size="10.00"> super_</text>
</g>
<!-- Node7&#45;&gt;Node12 -->
<g id="edge19" class="edge"><title>Node7&#45;&gt;Node12</title>
<path fill="none" stroke="#9a32cd" stroke-dasharray="5,2" d="M80.0553,-279.801C39.3565,-267.783 -17.6193,-244.389 5.81117,-212 22.4925,-188.94 101.244,-170.128 146.533,-160.991"/>
<polygon fill="#9a32cd" stroke="#9a32cd" points="79.1611,-283.185 89.7363,-282.54 81.0672,-276.45 79.1611,-283.185"/>
<text text-anchor="middle" x="42.3112" y="-219.5" font-family="Helvetica,sans-Serif" font-size="10.00"> mem_manager_</text>
</g>
<!-- Node13 -->
<g id="node13" class="node"><title>Node13</title>
<g id="a_node13"><a xlink:href="classthrill_1_1net_1_1DispatcherThread.html" target="_top" xlink:title="DispatcherThread contains a net::Dispatcher object and an associated thread that runs in the dispatch...">
<polygon fill="none" stroke="black" points="87.8112,-212.5 87.8112,-231.5 181.811,-231.5 181.811,-212.5 87.8112,-212.5"/>
<text text-anchor="middle" x="134.811" y="-219.5" font-family="Helvetica,sans-Serif" font-size="10.00">DispatcherThread</text>
</a>
</g>
</g>
<!-- Node7&#45;&gt;Node13 -->
<g id="edge16" class="edge"><title>Node7&#45;&gt;Node13</title>
<path fill="none" stroke="#9a32cd" stroke-dasharray="5,2" d="M115.288,-270.413C115.269,-263.843 115.851,-256.479 117.811,-250 119.8,-243.426 123.851,-236.885 127.499,-231.889"/>
<polygon fill="#9a32cd" stroke="#9a32cd" points="111.792,-270.598 115.749,-280.426 118.785,-270.275 111.792,-270.598"/>
<text text-anchor="middle" x="154.311" y="-253.5" font-family="Helvetica,sans-Serif" font-size="10.00"> mem_manager_</text>
</g>
<!-- Node8 -->
<g id="node8" class="node"><title>Node8</title>
<g id="a_node8"><a xlink:href="classthrill_1_1net_1_1Connection.html" target="_top" xlink:title="A Connection represents a link to another peer in a network group. ">
<polygon fill="none" stroke="black" points="287.811,-68.5 287.811,-87.5 353.811,-87.5 353.811,-68.5 287.811,-68.5"/>
<text text-anchor="middle" x="320.811" y="-75.5" font-family="Helvetica,sans-Serif" font-size="10.00">Connection</text>
</a>
</g>
</g>
<!-- Node8&#45;&gt;Node1 -->
<g id="edge9" class="edge"><title>Node8&#45;&gt;Node1</title>
<path fill="none" stroke="#9a32cd" stroke-dasharray="5,2" d="M303.376,-61.7524C294.677,-54.3475 283.884,-45.4606 273.811,-38 265.045,-31.5069 254.795,-24.7569 246.736,-19.6302"/>
<polygon fill="#9a32cd" stroke="#9a32cd" points="301.122,-64.4303 310.984,-68.303 305.69,-59.1257 301.122,-64.4303"/>
<text text-anchor="middle" x="316.811" y="-41.5" font-family="Helvetica,sans-Serif" font-size="10.00"> connection_</text>
</g>
<!-- Node9 -->
<g id="node9" class="node"><title>Node9</title>
<g id="a_node9"><a xlink:href="classthrill_1_1common_1_1Semaphore.html" target="_top" xlink:title="Semaphore">
<polygon fill="none" stroke="black" points="36.8112,-144.5 36.8112,-163.5 102.811,-163.5 102.811,-144.5 36.8112,-144.5"/>
<text text-anchor="middle" x="69.8112" y="-151.5" font-family="Helvetica,sans-Serif" font-size="10.00">Semaphore</text>
</a>
</g>
</g>
<!-- Node9&#45;&gt;Node1 -->
<g id="edge10" class="edge"><title>Node9&#45;&gt;Node1</title>
<path fill="none" stroke="#9a32cd" stroke-dasharray="5,2" d="M67.1084,-134.256C66.718,-125.116 67.7121,-114.329 72.8112,-106 101.908,-58.4733 164.44,-31.862 202.136,-19.5586"/>
<polygon fill="#9a32cd" stroke="#9a32cd" points="63.6347,-134.697 68.0884,-144.31 70.6017,-134.018 63.6347,-134.697"/>
<text text-anchor="middle" x="120.811" y="-75.5" font-family="Helvetica,sans-Serif" font-size="10.00"> sem_</text>
</g>
<!-- Node10 -->
<g id="node10" class="node"><title>Node10</title>
<g id="a_node10"><a xlink:href="classthrill_1_1data_1_1Stream.html" target="_top" xlink:title="Base class for common structures for ConcatStream and MixedStream. ">
<polygon fill="none" stroke="black" points="181.811,-68.5 181.811,-87.5 229.811,-87.5 229.811,-68.5 181.811,-68.5"/>
<text text-anchor="middle" x="205.811" y="-75.5" font-family="Helvetica,sans-Serif" font-size="10.00">Stream</text>
</a>
</g>
</g>
<!-- Node9&#45;&gt;Node10 -->
<g id="edge13" class="edge"><title>Node9&#45;&gt;Node10</title>
<path fill="none" stroke="#9a32cd" stroke-dasharray="5,2" d="M73.0745,-134.279C75.7208,-124.511 80.4466,-113.142 88.8112,-106 114.811,-83.8004 155.516,-78.9633 181.414,-78.3536"/>
<polygon fill="#9a32cd" stroke="#9a32cd" points="69.5969,-133.799 70.8871,-144.315 76.4364,-135.29 69.5969,-133.799"/>
<text text-anchor="middle" x="137.311" y="-113.5" font-family="Helvetica,sans-Serif" font-size="10.00"> sem_closing_blocks_</text>
</g>
<!-- Node10&#45;&gt;Node1 -->
<g id="edge11" class="edge"><title>Node10&#45;&gt;Node1</title>
<path fill="none" stroke="#9a32cd" stroke-dasharray="5,2" d="M203.561,-58.1524C203.475,-51.5574 204.2,-44.2448 206.811,-38 209.824,-30.7956 215.725,-24.4127 221.145,-19.6641"/>
<polygon fill="#9a32cd" stroke="#9a32cd" points="200.08,-58.5336 204.284,-68.2586 207.062,-58.0345 200.08,-58.5336"/>
<text text-anchor="middle" x="226.311" y="-41.5" font-family="Helvetica,sans-Serif" font-size="10.00"> stream_</text>
</g>
<!-- Node11 -->
<g id="node11" class="node"><title>Node11</title>
<g id="a_node11"><a xlink:href="classtlx_1_1ReferenceCounter.html" target="_top" xlink:title="Provides reference counting abilities for use with CountingPtr. ">
<polygon fill="none" stroke="black" points="228.811,-144.5 228.811,-163.5 324.811,-163.5 324.811,-144.5 228.811,-144.5"/>
<text text-anchor="middle" x="276.811" y="-151.5" font-family="Helvetica,sans-Serif" font-size="10.00">ReferenceCounter</text>
</a>
</g>
</g>
<!-- Node11&#45;&gt;Node10 -->
<g id="edge12" class="edge"><title>Node11&#45;&gt;Node10</title>
<path fill="none" stroke="midnightblue" d="M271.792,-134.768C268.471,-125.317 263.319,-114.093 255.811,-106 248.431,-98.0445 238.161,-91.9407 228.848,-87.5662"/>
<polygon fill="midnightblue" stroke="midnightblue" points="268.482,-135.911 274.792,-144.422 275.167,-133.834 268.482,-135.911"/>
</g>
<!-- Node12&#45;&gt;Node10 -->
<g id="edge14" class="edge"><title>Node12&#45;&gt;Node10</title>
<path fill="none" stroke="#9a32cd" stroke-dasharray="5,2" d="M185.558,-134.509C191.007,-119.575 198.433,-99.2223 202.612,-87.7679"/>
<polygon fill="#9a32cd" stroke="#9a32cd" points="182.154,-133.627 182.014,-144.221 188.73,-136.026 182.154,-133.627"/>
<text text-anchor="middle" x="223.811" y="-113.5" font-family="Helvetica,sans-Serif" font-size="10.00"> multiplexer_</text>
</g>
<!-- Node13&#45;&gt;Node12 -->
<g id="edge15" class="edge"><title>Node13&#45;&gt;Node12</title>
<path fill="none" stroke="#9a32cd" stroke-dasharray="5,2" d="M133.548,-201.951C133.905,-195.244 135.271,-187.91 138.811,-182 143.547,-174.093 151.598,-167.996 159.241,-163.614"/>
<polygon fill="#9a32cd" stroke="#9a32cd" points="130.053,-202.336 133.692,-212.286 137.052,-202.238 130.053,-202.336"/>
<text text-anchor="middle" x="165.811" y="-185.5" font-family="Helvetica,sans-Serif" font-size="10.00"> dispatcher_</text>
</g>
<!-- Node14 -->
<g id="node14" class="node"><title>Node14</title>
<g id="a_node14"><a xlink:href="classthrill_1_1net_1_1Group.html" target="_top" xlink:title="A network Group is a collection of enumerated communication links, which provides point&#45;to&#45;point comm...">
<polygon fill="none" stroke="black" points="200.311,-212.5 200.311,-231.5 243.311,-231.5 243.311,-212.5 200.311,-212.5"/>
<text text-anchor="middle" x="221.811" y="-219.5" font-family="Helvetica,sans-Serif" font-size="10.00">Group</text>
</a>
</g>
</g>
<!-- Node14&#45;&gt;Node12 -->
<g id="edge17" class="edge"><title>Node14&#45;&gt;Node12</title>
<path fill="none" stroke="#9a32cd" stroke-dasharray="5,2" d="M210.695,-203.938C202.339,-191.112 191.228,-174.059 184.571,-163.841"/>
<polygon fill="#9a32cd" stroke="#9a32cd" points="207.798,-205.904 216.19,-212.372 213.663,-202.082 207.798,-205.904"/>
<text text-anchor="middle" x="221.311" y="-185.5" font-family="Helvetica,sans-Serif" font-size="10.00"> group_</text>
</g>
</g>
</svg>
