<?xml version="1.0" encoding="UTF-8" standalone="no"?>
<!DOCTYPE svg PUBLIC "-//W3C//DTD SVG 1.1//EN"
 "http://www.w3.org/Graphics/SVG/1.1/DTD/svg11.dtd">
<!-- Generated by graphviz version 2.26.3 (20100126.1600)
 -->
<!-- Title: LoserTreePointerUnguarded&lt; Stable, ValueType, Comparator &gt; Pages: 1 -->
<svg width="245pt" height="314pt"
 viewBox="0.00 0.00 245.00 314.00" xmlns="http://www.w3.org/2000/svg" xmlns:xlink="http://www.w3.org/1999/xlink">
<g id="graph1" class="graph" transform="scale(1 1) rotate(0) translate(4 310)">
<title>LoserTreePointerUnguarded&lt; Stable, ValueType, Comparator &gt;</title>
<!-- Node1 -->
<g id="node1" class="node"><title>Node1</title>
<polygon fill="#bfbfbf" stroke="black" points="0,-1 0,-35 172,-35 172,-1 0,-1"/>
<text text-anchor="start" x="8" y="-22" font-family="Helvetica,sans-Serif" font-size="10.00">LoserTreePointerUnguarded</text>
<text text-anchor="middle" x="86" y="-9" font-family="Helvetica,sans-Serif" font-size="10.00">&lt; Stable, ValueType, Comparator &gt;</text>
</g>
<!-- Node2 -->
<g id="node2" class="node"><title>Node2</title>
<a xlink:href="classtlx_1_1LoserTreePointerUnguardedBase.html" target="_top" xlink:title="Unguarded loser tree, keeping only pointers to the elements in the tree structure.">
<polygon fill="none" stroke="black" points="5.5,-75 5.5,-109 166.5,-109 166.5,-75 5.5,-75"/>
<text text-anchor="start" x="13.5" y="-96" font-family="Helvetica,sans-Serif" font-size="10.00">LoserTreePointerUnguarded</text>
<text text-anchor="middle" x="86" y="-83" font-family="Helvetica,sans-Serif" font-size="10.00">Base&lt; ValueType, Comparator &gt;</text>
</a>
</g>
<!-- Node2&#45;&gt;Node1 -->
<g id="edge2" class="edge"><title>Node2&#45;&gt;Node1</title>
<path fill="none" stroke="midnightblue" d="M86,-64.6275C86,-54.7253 86,-43.8344 86,-35.07"/>
<polygon fill="midnightblue" stroke="midnightblue" points="82.5001,-64.8369 86,-74.8369 89.5001,-64.8369 82.5001,-64.8369"/>
</g>
<!-- Node3 -->
<g id="node4" class="node"><title>Node3</title>
<a xlink:href="classtlx_1_1SimpleVector.html" target="_top" xlink:title="SimpleVector\&lt; tlx::\lLoserTreePointerUnguardedBase\l::Loser \&gt;">
<polygon fill="none" stroke="black" points="5.5,-160.5 5.5,-207.5 166.5,-207.5 166.5,-160.5 5.5,-160.5"/>
<text text-anchor="start" x="13.5" y="-194.5" font-family="Helvetica,sans-Serif" font-size="10.00">SimpleVector&lt; tlx::</text>
<text text-anchor="start" x="13.5" y="-181.5" font-family="Helvetica,sans-Serif" font-size="10.00">LoserTreePointerUnguardedBase</text>
<text text-anchor="middle" x="86" y="-168.5" font-family="Helvetica,sans-Serif" font-size="10.00">::Loser &gt;</text>
</a>
</g>
<!-- Node3&#45;&gt;Node2 -->
<g id="edge4" class="edge"><title>Node3&#45;&gt;Node2</title>
<path fill="none" stroke="#9a32cd" stroke-dasharray="5,2" d="M86,-150.081C86,-136.184 86,-120.702 86,-109.22"/>
<polygon fill="#9a32cd" stroke="#9a32cd" points="82.5001,-150.308 86,-160.308 89.5001,-150.308 82.5001,-150.308"/>
<text text-anchor="middle" x="103.5" y="-132.5" font-family="Helvetica,sans-Serif" font-size="10.00"> losers_</text>
</g>
<!-- Node4 -->
<g id="node6" class="node"><title>Node4</title>
<a xlink:href="classtlx_1_1SimpleVector.html" target="_top" xlink:title="Simpler non&#45;growing vector without initialization.">
<polygon fill="none" stroke="black" points="19,-271 19,-305 153,-305 153,-271 19,-271"/>
<text text-anchor="start" x="27" y="-292" font-family="Helvetica,sans-Serif" font-size="10.00">SimpleVector&lt; ValueType,</text>
<text text-anchor="middle" x="86" y="-279" font-family="Helvetica,sans-Serif" font-size="10.00"> Mode &gt;</text>
</a>
</g>
<!-- Node4&#45;&gt;Node3 -->
<g id="edge6" class="edge"><title>Node4&#45;&gt;Node3</title>
<path fill="none" stroke="orange" stroke-dasharray="5,2" d="M86,-260.745C86,-244.315 86,-223.586 86,-207.815"/>
<polygon fill="orange" stroke="orange" points="82.5001,-260.826 86,-270.827 89.5001,-260.827 82.5001,-260.826"/>
<text text-anchor="start" x="86" y="-243" font-family="Helvetica,sans-Serif" font-size="10.00"> &lt; tlx::LoserTreePointerUnguarded</text>
<text text-anchor="middle" x="161.5" y="-230" font-family="Helvetica,sans-Serif" font-size="10.00">Base::Loser &gt;</text>
</g>
</g>
</svg>
