<?xml version="1.0" encoding="UTF-8" standalone="no"?>
<!DOCTYPE svg PUBLIC "-//W3C//DTD SVG 1.1//EN"
 "http://www.w3.org/Graphics/SVG/1.1/DTD/svg11.dtd">
<!-- Generated by graphviz version 2.40.1 (20161225.0304)
 -->
<!-- Title: PoolAllocator&lt; Type &gt; Pages: 1 -->
<svg width="194pt" height="95pt"
 viewBox="0.00 0.00 193.50 95.00" xmlns="http://www.w3.org/2000/svg" xmlns:xlink="http://www.w3.org/1999/xlink">
<g id="graph0" class="graph" transform="scale(1 1) rotate(0) translate(4 91)">
<title>PoolAllocator&lt; Type &gt;</title>
<!-- Node2 -->
<g id="node1" class="node">
<title>Node2</title>
<polygon fill="#bfbfbf" stroke="#000000" points="52.5,-.5 52.5,-19.5 178.5,-19.5 178.5,-.5 52.5,-.5"/>
<text text-anchor="middle" x="115.5" y="-7.5" font-family="Helvetica,sans-Serif" font-size="10.00" fill="#000000">PoolAllocator&lt; Type &gt;</text>
</g>
<!-- Node3 -->
<g id="node2" class="node">
<title>Node3</title>
<g id="a_node2"><a xlink:href="classtlx_1_1AllocatorBase.html" target="_top" xlink:title="AllocatorBase\&lt; Type \&gt;">
<polygon fill="none" stroke="#000000" points="0,-67.5 0,-86.5 129,-86.5 129,-67.5 0,-67.5"/>
<text text-anchor="middle" x="64.5" y="-74.5" font-family="Helvetica,sans-Serif" font-size="10.00" fill="#000000">AllocatorBase&lt; Type &gt;</text>
</a>
</g>
</g>
<!-- Node3&#45;&gt;Node2 -->
<g id="edge1" class="edge">
<title>Node3&#45;&gt;Node2</title>
<path fill="none" stroke="#191970" d="M77.9361,-59.3486C87.6256,-46.6194 100.3348,-29.9229 108.2065,-19.5817"/>
<polygon fill="#191970" stroke="#191970" points="75.079,-57.3236 71.8071,-67.4005 80.6489,-61.5634 75.079,-57.3236"/>
</g>
<!-- Node4 -->
<g id="node3" class="node">
<title>Node4</title>
<g id="a_node3"><a xlink:href="classthrill_1_1mem_1_1Pool.html" target="_top" xlink:title="A simple memory allocation manager. ">
<polygon fill="none" stroke="#000000" points="147.5,-67.5 147.5,-86.5 185.5,-86.5 185.5,-67.5 147.5,-67.5"/>
<text text-anchor="middle" x="166.5" y="-74.5" font-family="Helvetica,sans-Serif" font-size="10.00" fill="#000000">Pool</text>
</a>
</g>
</g>
<!-- Node4&#45;&gt;Node2 -->
<g id="edge2" class="edge">
<title>Node4&#45;&gt;Node2</title>
<path fill="none" stroke="#9a32cd" stroke-dasharray="5,2" d="M153.0639,-59.3486C143.3744,-46.6194 130.6652,-29.9229 122.7935,-19.5817"/>
<polygon fill="#9a32cd" stroke="#9a32cd" points="150.3511,-61.5634 159.1929,-67.4005 155.921,-57.3236 150.3511,-61.5634"/>
<text text-anchor="middle" x="158.5" y="-41" font-family="Helvetica,sans-Serif" font-size="10.00" fill="#000000"> pool_</text>
</g>
</g>
</svg>
