<?xml version="1.0" encoding="UTF-8" standalone="no"?>
<!DOCTYPE svg PUBLIC "-//W3C//DTD SVG 1.1//EN"
 "http://www.w3.org/Graphics/SVG/1.1/DTD/svg11.dtd">
<!-- Generated by graphviz version 2.40.1 (20161225.0304)
 -->
<!-- Title: AsyncReadByteBlock Pages: 1 -->
<svg width="838pt" height="155pt"
 viewBox="0.00 0.00 838.00 155.00" xmlns="http://www.w3.org/2000/svg" xmlns:xlink="http://www.w3.org/1999/xlink">
<g id="graph0" class="graph" transform="scale(1 1) rotate(0) translate(4 151)">
<title>AsyncReadByteBlock</title>
<!-- Node1 -->
<g id="node1" class="node">
<title>Node1</title>
<polygon fill="#bfbfbf" stroke="#000000" points="711,-38.5 711,-57.5 830,-57.5 830,-38.5 711,-38.5"/>
<text text-anchor="middle" x="770.5" y="-45.5" font-family="Helvetica,sans-Serif" font-size="10.00" fill="#000000">AsyncReadByteBlock</text>
</g>
<!-- Node2 -->
<g id="node2" class="node">
<title>Node2</title>
<g id="a_node2"><a xlink:href="classtlx_1_1Delegate.html" target="_top" xlink:title="Delegate\&lt; void(Connection\l &amp;c, data::PinnedByteBlockPtr\l &amp;&amp;bytes), mem::GPoolAllocator\l\&lt; char \&gt; \&gt;">
<polygon fill="none" stroke="#000000" points="451,-77 451,-129 626,-129 626,-77 451,-77"/>
<text text-anchor="start" x="459" y="-117" font-family="Helvetica,sans-Serif" font-size="10.00" fill="#000000">Delegate&lt; void(Connection</text>
<text text-anchor="start" x="459" y="-106" font-family="Helvetica,sans-Serif" font-size="10.00" fill="#000000"> &amp;c, data::PinnedByteBlockPtr</text>
<text text-anchor="start" x="459" y="-95" font-family="Helvetica,sans-Serif" font-size="10.00" fill="#000000"> &amp;&amp;bytes), mem::GPoolAllocator</text>
<text text-anchor="middle" x="538.5" y="-84" font-family="Helvetica,sans-Serif" font-size="10.00" fill="#000000">&lt; char &gt; &gt;</text>
</a>
</g>
</g>
<!-- Node2&#45;&gt;Node1 -->
<g id="edge1" class="edge">
<title>Node2&#45;&gt;Node1</title>
<path fill="none" stroke="#9a32cd" stroke-dasharray="5,2" d="M635.9406,-79.8999C669.042,-72.0525 704.2134,-63.7145 730.2936,-57.5317"/>
<polygon fill="#9a32cd" stroke="#9a32cd" points="635.1322,-76.4944 626.2093,-82.2069 636.747,-83.3056 635.1322,-76.4944"/>
<text text-anchor="middle" x="668.5" y="-80" font-family="Helvetica,sans-Serif" font-size="10.00" fill="#000000"> callback_</text>
</g>
<!-- Node3 -->
<g id="node3" class="node">
<title>Node3</title>
<g id="a_node3"><a xlink:href="classtlx_1_1Delegate.html" target="_top" xlink:title="Delegate\&lt; T, Allocator \&gt;">
<polygon fill="none" stroke="#000000" points="117,-93.5 117,-112.5 256,-112.5 256,-93.5 117,-93.5"/>
<text text-anchor="middle" x="186.5" y="-100.5" font-family="Helvetica,sans-Serif" font-size="10.00" fill="#000000">Delegate&lt; T, Allocator &gt;</text>
</a>
</g>
</g>
<!-- Node3&#45;&gt;Node2 -->
<g id="edge2" class="edge">
<title>Node3&#45;&gt;Node2</title>
<path fill="none" stroke="#ffa500" stroke-dasharray="5,2" d="M266.0981,-103C321.1201,-103 394.3208,-103 450.9834,-103"/>
<polygon fill="#ffa500" stroke="#ffa500" points="266.0439,-99.5001 256.0439,-103 266.0438,-106.5001 266.0439,-99.5001"/>
<text text-anchor="start" x="274" y="-139" font-family="Helvetica,sans-Serif" font-size="10.00" fill="#000000"> &lt; void(Connection &amp;c,</text>
<text text-anchor="start" x="274" y="-128" font-family="Helvetica,sans-Serif" font-size="10.00" fill="#000000"> data::PinnedByteBlockPtr</text>
<text text-anchor="start" x="274" y="-117" font-family="Helvetica,sans-Serif" font-size="10.00" fill="#000000"> &amp;&amp;bytes), mem::GPoolAllocator</text>
<text text-anchor="middle" x="353.5" y="-106" font-family="Helvetica,sans-Serif" font-size="10.00" fill="#000000">&lt; char &gt; &gt;</text>
</g>
<!-- Node4 -->
<g id="node4" class="node">
<title>Node4</title>
<g id="a_node4"><a xlink:href="classthrill_1_1net_1_1Connection.html" target="_top" xlink:title="A Connection represents a link to another peer in a network group. ">
<polygon fill="none" stroke="#000000" points="503,-38.5 503,-57.5 574,-57.5 574,-38.5 503,-38.5"/>
<text text-anchor="middle" x="538.5" y="-45.5" font-family="Helvetica,sans-Serif" font-size="10.00" fill="#000000">Connection</text>
</a>
</g>
</g>
<!-- Node4&#45;&gt;Node1 -->
<g id="edge3" class="edge">
<title>Node4&#45;&gt;Node1</title>
<path fill="none" stroke="#9a32cd" stroke-dasharray="5,2" d="M584.5141,-48C620.7208,-48 671.4544,-48 710.7896,-48"/>
<polygon fill="#9a32cd" stroke="#9a32cd" points="584.2416,-44.5001 574.2416,-48 584.2415,-51.5001 584.2416,-44.5001"/>
<text text-anchor="middle" x="668.5" y="-51" font-family="Helvetica,sans-Serif" font-size="10.00" fill="#000000"> conn_</text>
</g>
<!-- Node5 -->
<g id="node5" class="node">
<title>Node5</title>
<g id="a_node5"><a xlink:href="classthrill_1_1data_1_1PinnedByteBlockPtr.html" target="_top" xlink:title="A pinned / pin&#45;counted pointer to a ByteBlock. ">
<polygon fill="none" stroke="#000000" points="482,-.5 482,-19.5 595,-19.5 595,-.5 482,-.5"/>
<text text-anchor="middle" x="538.5" y="-7.5" font-family="Helvetica,sans-Serif" font-size="10.00" fill="#000000">PinnedByteBlockPtr</text>
</a>
</g>
</g>
<!-- Node5&#45;&gt;Node1 -->
<g id="edge4" class="edge">
<title>Node5&#45;&gt;Node1</title>
<path fill="none" stroke="#9a32cd" stroke-dasharray="5,2" d="M605.3002,-19.2982C632.5422,-23.2582 664.3206,-28.0922 693,-33 702.7259,-34.6643 713.1114,-36.579 723.016,-38.4716"/>
<polygon fill="#9a32cd" stroke="#9a32cd" points="605.495,-15.7901 595.0975,-17.8249 604.4946,-22.7182 605.495,-15.7901"/>
<text text-anchor="middle" x="668.5" y="-36" font-family="Helvetica,sans-Serif" font-size="10.00" fill="#000000"> block_</text>
</g>
<!-- Node6 -->
<g id="node6" class="node">
<title>Node6</title>
<g id="a_node6"><a xlink:href="classthrill_1_1data_1_1ByteBlockPtr.html" target="_top" xlink:title="A non&#45;pinned counting pointer to a ByteBlock. ">
<polygon fill="none" stroke="#000000" points="146.5,-.5 146.5,-19.5 226.5,-19.5 226.5,-.5 146.5,-.5"/>
<text text-anchor="middle" x="186.5" y="-7.5" font-family="Helvetica,sans-Serif" font-size="10.00" fill="#000000">ByteBlockPtr</text>
</a>
</g>
</g>
<!-- Node6&#45;&gt;Node5 -->
<g id="edge5" class="edge">
<title>Node6&#45;&gt;Node5</title>
<path fill="none" stroke="#191970" d="M236.9163,-10C301.8107,-10 414.2486,-10 481.9753,-10"/>
<polygon fill="#191970" stroke="#191970" points="236.5362,-6.5001 226.5362,-10 236.5361,-13.5001 236.5362,-6.5001"/>
</g>
<!-- Node7 -->
<g id="node7" class="node">
<title>Node7</title>
<g id="a_node7"><a xlink:href="classtlx_1_1CountingPtr.html" target="_top" xlink:title="High&#45;performance smart pointer used as a wrapping reference counting pointer. ">
<polygon fill="none" stroke="#000000" points="0,-.5 0,-19.5 80,-19.5 80,-.5 0,-.5"/>
<text text-anchor="middle" x="40" y="-7.5" font-family="Helvetica,sans-Serif" font-size="10.00" fill="#000000">ByteBlockPtr</text>
</a>
</g>
</g>
<!-- Node7&#45;&gt;Node6 -->
<g id="edge6" class="edge">
<title>Node7&#45;&gt;Node6</title>
<path fill="none" stroke="#191970" d="M90.2284,-10C108.522,-10 128.948,-10 146.2623,-10"/>
<polygon fill="#191970" stroke="#191970" points="90.0318,-6.5001 80.0318,-10 90.0317,-13.5001 90.0318,-6.5001"/>
</g>
</g>
</svg>
