<?xml version="1.0" encoding="UTF-8" standalone="no"?>
<!DOCTYPE svg PUBLIC "-//W3C//DTD SVG 1.1//EN"
 "http://www.w3.org/Graphics/SVG/1.1/DTD/svg11.dtd">
<!-- Generated by graphviz version 2.36.0 (20140111.2315)
 -->
<!-- Title: file Pages: 1 -->
<svg width="179pt" height="96pt"
 viewBox="0.00 0.00 179.00 96.00" xmlns="http://www.w3.org/2000/svg" xmlns:xlink="http://www.w3.org/1999/xlink">
<g id="graph0" class="graph" transform="scale(1 1) rotate(0) translate(4 92)">
<title>file</title>
<!-- Node1 -->
<g id="node1" class="node"><title>Node1</title>
<polygon fill="#bfbfbf" stroke="black" points="79.5,-0.5 79.5,-19.5 108.5,-19.5 108.5,-0.5 79.5,-0.5"/>
<text text-anchor="middle" x="94" y="-7.5" font-family="Helvetica,sans-Serif" font-size="10.00">file</text>
</g>
<!-- Node2 -->
<g id="node2" class="node"><title>Node2</title>
<g id="a_node2"><a xlink:href="classtlx_1_1ReferenceCounter.html" target="_top" xlink:title="Provides reference counting abilities for use with CountingPtr. ">
<polygon fill="none" stroke="black" points="-0.5,-68.5 -0.5,-87.5 94.5,-87.5 94.5,-68.5 -0.5,-68.5"/>
<text text-anchor="middle" x="47" y="-75.5" font-family="Helvetica,sans-Serif" font-size="10.00">reference_counter</text>
</a>
</g>
</g>
<!-- Node2&#45;&gt;Node1 -->
<g id="edge1" class="edge"><title>Node2&#45;&gt;Node1</title>
<path fill="none" stroke="midnightblue" d="M59.1504,-59.9377C68.2839,-47.112 80.4276,-30.0591 87.7041,-19.8411"/>
<polygon fill="midnightblue" stroke="midnightblue" points="56.0942,-58.1957 53.1444,-68.3717 61.7962,-62.2562 56.0942,-58.1957"/>
</g>
<!-- Node3 -->
<g id="node3" class="node"><title>Node3</title>
<g id="a_node3"><a xlink:href="classfoxxll_1_1file__stats.html" target="_top" xlink:title="file_stats">
<polygon fill="none" stroke="black" points="113,-68.5 113,-87.5 169,-87.5 169,-68.5 113,-68.5"/>
<text text-anchor="middle" x="141" y="-75.5" font-family="Helvetica,sans-Serif" font-size="10.00">file_stats</text>
</a>
</g>
</g>
<!-- Node3&#45;&gt;Node1 -->
<g id="edge2" class="edge"><title>Node3&#45;&gt;Node1</title>
<path fill="none" stroke="#9a32cd" stroke-dasharray="5,2" d="M128.85,-59.9377C119.716,-47.112 107.572,-30.0591 100.296,-19.8411"/>
<polygon fill="#9a32cd" stroke="#9a32cd" points="126.204,-62.2562 134.856,-68.3717 131.906,-58.1957 126.204,-62.2562"/>
<text text-anchor="middle" x="146.5" y="-41.5" font-family="Helvetica,sans-Serif" font-size="10.00"> file_stats_</text>
</g>
</g>
</svg>
