<?xml version="1.0" encoding="UTF-8" standalone="no"?>
<!DOCTYPE svg PUBLIC "-//W3C//DTD SVG 1.1//EN"
 "http://www.w3.org/Graphics/SVG/1.1/DTD/svg11.dtd">
<!-- Generated by graphviz version 2.36.0 (20140111.2315)
 -->
<!-- Title: SourceNode&lt; ValueType &gt; Pages: 1 -->
<svg width="922pt" height="218pt"
 viewBox="0.00 0.00 922.00 218.00" xmlns="http://www.w3.org/2000/svg" xmlns:xlink="http://www.w3.org/1999/xlink">
<g id="graph0" class="graph" transform="scale(1 1) rotate(0) translate(4 214)">
<title>SourceNode&lt; ValueType &gt;</title>
<!-- Node1 -->
<g id="node1" class="node"><title>Node1</title>
<polygon fill="#bfbfbf" stroke="black" points="388.5,-95.5 388.5,-114.5 523.5,-114.5 523.5,-95.5 388.5,-95.5"/>
<text text-anchor="middle" x="456" y="-102.5" font-family="Helvetica,sans-Serif" font-size="10.00">SourceNode&lt; ValueType &gt;</text>
</g>
<!-- Node5 -->
<g id="node5" class="node"><title>Node5</title>
<g id="a_node5"><a xlink:href="classthrill_1_1api_1_1ConcatToDIANode.html" target="_top" xlink:title="ConcatToDIANode\&lt; ValueType \&gt;">
<polygon fill="none" stroke="black" points="626,-190.5 626,-209.5 790,-209.5 790,-190.5 626,-190.5"/>
<text text-anchor="middle" x="708" y="-197.5" font-family="Helvetica,sans-Serif" font-size="10.00">ConcatToDIANode&lt; ValueType &gt;</text>
</a>
</g>
</g>
<!-- Node1&#45;&gt;Node5 -->
<g id="edge4" class="edge"><title>Node1&#45;&gt;Node5</title>
<path fill="none" stroke="midnightblue" d="M483.612,-119.394C516.262,-136.478 573.73,-164.695 626,-181 637.307,-184.527 649.681,-187.744 661.278,-190.488"/>
<polygon fill="midnightblue" stroke="midnightblue" points="485.174,-116.261 474.697,-114.683 481.903,-122.45 485.174,-116.261"/>
</g>
<!-- Node6 -->
<g id="node6" class="node"><title>Node6</title>
<g id="a_node6"><a xlink:href="classthrill_1_1api_1_1DistributeNode.html" target="_top" xlink:title="DistributeNode\&lt; ValueType \&gt;">
<polygon fill="none" stroke="black" points="635,-152.5 635,-171.5 781,-171.5 781,-152.5 635,-152.5"/>
<text text-anchor="middle" x="708" y="-159.5" font-family="Helvetica,sans-Serif" font-size="10.00">DistributeNode&lt; ValueType &gt;</text>
</a>
</g>
</g>
<!-- Node1&#45;&gt;Node6 -->
<g id="edge5" class="edge"><title>Node1&#45;&gt;Node6</title>
<path fill="none" stroke="midnightblue" d="M502.434,-117.156C515.204,-120.464 529.121,-123.969 542,-127 581.336,-136.258 626.21,-145.705 659.221,-152.447"/>
<polygon fill="midnightblue" stroke="midnightblue" points="503.039,-113.696 492.48,-114.557 501.271,-120.469 503.039,-113.696"/>
</g>
<!-- Node7 -->
<g id="node7" class="node"><title>Node7</title>
<g id="a_node7"><a xlink:href="classthrill_1_1api_1_1EqualToDIANode.html" target="_top" xlink:title="EqualToDIANode\&lt; ValueType \&gt;">
<polygon fill="none" stroke="black" points="629,-114.5 629,-133.5 787,-133.5 787,-114.5 629,-114.5"/>
<text text-anchor="middle" x="708" y="-121.5" font-family="Helvetica,sans-Serif" font-size="10.00">EqualToDIANode&lt; ValueType &gt;</text>
</a>
</g>
</g>
<!-- Node1&#45;&gt;Node7 -->
<g id="edge6" class="edge"><title>Node1&#45;&gt;Node7</title>
<path fill="none" stroke="midnightblue" d="M533.735,-110.832C563.963,-113.129 598.64,-115.765 628.991,-118.071"/>
<polygon fill="midnightblue" stroke="midnightblue" points="533.904,-107.335 523.667,-110.067 533.373,-114.315 533.904,-107.335"/>
</g>
<!-- Node8 -->
<g id="node8" class="node"><title>Node8</title>
<g id="a_node8"><a xlink:href="classthrill_1_1api_1_1GenerateNode.html" target="_top" xlink:title="A DIANode which performs a Generate operation. ">
<polygon fill="none" stroke="black" points="636,-76.5 636,-95.5 780,-95.5 780,-76.5 636,-76.5"/>
<text text-anchor="middle" x="708" y="-83.5" font-family="Helvetica,sans-Serif" font-size="10.00">GenerateNode&lt; ValueType &gt;</text>
</a>
</g>
</g>
<!-- Node1&#45;&gt;Node8 -->
<g id="edge7" class="edge"><title>Node1&#45;&gt;Node8</title>
<path fill="none" stroke="midnightblue" d="M534.001,-99.1479C566.421,-96.684 603.921,-93.834 635.702,-91.4187"/>
<polygon fill="midnightblue" stroke="midnightblue" points="533.373,-95.6855 523.667,-99.9333 533.904,-102.665 533.373,-95.6855"/>
</g>
<!-- Node9 -->
<g id="node9" class="node"><title>Node9</title>
<g id="a_node9"><a xlink:href="classthrill_1_1api_1_1ReadBinaryNode.html" target="_top" xlink:title="A DIANode which performs a line&#45;based Read operation. ">
<polygon fill="none" stroke="black" points="630.5,-38.5 630.5,-57.5 785.5,-57.5 785.5,-38.5 630.5,-38.5"/>
<text text-anchor="middle" x="708" y="-45.5" font-family="Helvetica,sans-Serif" font-size="10.00">ReadBinaryNode&lt; ValueType &gt;</text>
</a>
</g>
</g>
<!-- Node1&#45;&gt;Node9 -->
<g id="edge8" class="edge"><title>Node1&#45;&gt;Node9</title>
<path fill="none" stroke="midnightblue" d="M508.679,-93.2172C554.957,-82.6658 621.974,-67.3858 665.019,-57.5716"/>
<polygon fill="midnightblue" stroke="midnightblue" points="507.816,-89.824 498.844,-95.4595 509.372,-96.6489 507.816,-89.824"/>
</g>
<!-- Node10 -->
<g id="node10" class="node"><title>Node10</title>
<g id="a_node10"><a xlink:href="classthrill_1_1api_1_1SourceNode.html" target="_top" xlink:title="SourceNode\&lt; std::string \&gt;">
<polygon fill="none" stroke="black" points="642,-0.5 642,-19.5 774,-19.5 774,-0.5 642,-0.5"/>
<text text-anchor="middle" x="708" y="-7.5" font-family="Helvetica,sans-Serif" font-size="10.00">SourceNode&lt; std::string &gt;</text>
</a>
</g>
</g>
<!-- Node1&#45;&gt;Node10 -->
<g id="edge9" class="edge"><title>Node1&#45;&gt;Node10</title>
<path fill="none" stroke="orange" stroke-dasharray="5,2" d="M480.465,-90.1251C497.188,-79.932 520.437,-66.5755 542,-57 577.966,-41.0287 588.137,-39.7269 626,-29 637.952,-25.614 651.014,-22.3587 663.093,-19.5285"/>
<polygon fill="orange" stroke="orange" points="478.565,-87.1847 471.898,-95.4184 482.245,-93.1397 478.565,-87.1847"/>
<text text-anchor="middle" x="575" y="-60" font-family="Helvetica,sans-Serif" font-size="10.00"> &lt; std::string &gt;</text>
</g>
<!-- Node2 -->
<g id="node2" class="node"><title>Node2</title>
<g id="a_node2"><a xlink:href="classthrill_1_1api_1_1DIANode.html" target="_top" xlink:title="A DIANode is a typed node representing and operation in Thrill. ">
<polygon fill="none" stroke="black" points="228,-95.5 228,-114.5 350,-114.5 350,-95.5 228,-95.5"/>
<text text-anchor="middle" x="289" y="-102.5" font-family="Helvetica,sans-Serif" font-size="10.00">DIANode&lt; ValueType &gt;</text>
</a>
</g>
</g>
<!-- Node2&#45;&gt;Node1 -->
<g id="edge1" class="edge"><title>Node2&#45;&gt;Node1</title>
<path fill="none" stroke="midnightblue" d="M360.081,-105C369.439,-105 379.015,-105 388.313,-105"/>
<polygon fill="midnightblue" stroke="midnightblue" points="360.036,-101.5 350.036,-105 360.036,-108.5 360.036,-101.5"/>
</g>
<!-- Node3 -->
<g id="node3" class="node"><title>Node3</title>
<g id="a_node3"><a xlink:href="classthrill_1_1api_1_1DIABase.html" target="_top" xlink:title="The DIABase is the untyped super class of DIANode. ">
<polygon fill="none" stroke="black" points="134,-95.5 134,-114.5 190,-114.5 190,-95.5 134,-95.5"/>
<text text-anchor="middle" x="162" y="-102.5" font-family="Helvetica,sans-Serif" font-size="10.00">DIABase</text>
</a>
</g>
</g>
<!-- Node3&#45;&gt;Node2 -->
<g id="edge2" class="edge"><title>Node3&#45;&gt;Node2</title>
<path fill="none" stroke="midnightblue" d="M200.277,-105C208.965,-105 218.436,-105 227.836,-105"/>
<polygon fill="midnightblue" stroke="midnightblue" points="200.123,-101.5 190.123,-105 200.123,-108.5 200.123,-101.5"/>
</g>
<!-- Node4 -->
<g id="node4" class="node"><title>Node4</title>
<g id="a_node4"><a xlink:href="classtlx_1_1ReferenceCounter.html" target="_top" xlink:title="Provides reference counting abilities for use with CountingPtr. ">
<polygon fill="none" stroke="black" points="0,-95.5 0,-114.5 96,-114.5 96,-95.5 0,-95.5"/>
<text text-anchor="middle" x="48" y="-102.5" font-family="Helvetica,sans-Serif" font-size="10.00">ReferenceCounter</text>
</a>
</g>
</g>
<!-- Node4&#45;&gt;Node3 -->
<g id="edge3" class="edge"><title>Node4&#45;&gt;Node3</title>
<path fill="none" stroke="midnightblue" d="M106.24,-105C115.93,-105 125.57,-105 133.999,-105"/>
<polygon fill="midnightblue" stroke="midnightblue" points="106.174,-101.5 96.1735,-105 106.173,-108.5 106.174,-101.5"/>
</g>
<!-- Node11 -->
<g id="node11" class="node"><title>Node11</title>
<g id="a_node11"><a xlink:href="classthrill_1_1api_1_1ReadLinesNode.html" target="_top" xlink:title="A DIANode which performs a line&#45;based Read operation. ">
<polygon fill="none" stroke="black" points="828,-0.5 828,-19.5 914,-19.5 914,-0.5 828,-0.5"/>
<text text-anchor="middle" x="871" y="-7.5" font-family="Helvetica,sans-Serif" font-size="10.00">ReadLinesNode</text>
</a>
</g>
</g>
<!-- Node10&#45;&gt;Node11 -->
<g id="edge10" class="edge"><title>Node10&#45;&gt;Node11</title>
<path fill="none" stroke="midnightblue" d="M784.321,-10C799.292,-10 814.502,-10 827.87,-10"/>
<polygon fill="midnightblue" stroke="midnightblue" points="784.021,-6.5001 774.021,-10 784.021,-13.5001 784.021,-6.5001"/>
</g>
</g>
</svg>
