<?xml version="1.0" encoding="UTF-8" standalone="no"?>
<!DOCTYPE svg PUBLIC "-//W3C//DTD SVG 1.1//EN"
 "http://www.w3.org/Graphics/SVG/1.1/DTD/svg11.dtd">
<!-- Generated by graphviz version 2.36.0 (20140111.2315)
 -->
<!-- Title: extlib/tlx/tlx/cmdline_parser.hpp Pages: 1 -->
<svg width="3249pt" height="118pt"
 viewBox="0.00 0.00 3249.00 118.00" xmlns="http://www.w3.org/2000/svg" xmlns:xlink="http://www.w3.org/1999/xlink">
<g id="graph0" class="graph" transform="scale(1 1) rotate(0) translate(4 114)">
<title>extlib/tlx/tlx/cmdline_parser.hpp</title>
<!-- Node1 -->
<g id="node1" class="node"><title>Node1</title>
<polygon fill="#bfbfbf" stroke="black" points="1590,-79 1590,-109 1694,-109 1694,-79 1590,-79"/>
<text text-anchor="start" x="1598" y="-97" font-family="Helvetica,sans-Serif" font-size="10.00">extlib/tlx/tlx/cmdline</text>
<text text-anchor="middle" x="1642" y="-86" font-family="Helvetica,sans-Serif" font-size="10.00">_parser.hpp</text>
</g>
<!-- Node2 -->
<g id="node2" class="node"><title>Node2</title>
<g id="a_node2"><a xlink:href="bfs_8cpp.html" target="_top" xlink:title="examples/bfs/bfs.cpp">
<polygon fill="none" stroke="black" points="0,-11.5 0,-30.5 110,-30.5 110,-11.5 0,-11.5"/>
<text text-anchor="middle" x="55" y="-18.5" font-family="Helvetica,sans-Serif" font-size="10.00">examples/bfs/bfs.cpp</text>
</a>
</g>
</g>
<!-- Node1&#45;&gt;Node2 -->
<g id="edge1" class="edge"><title>Node1&#45;&gt;Node2</title>
<path fill="none" stroke="midnightblue" d="M1579.55,-93.1457C1330.36,-93.3816 406.827,-90.8682 119,-42 104.769,-39.5838 89.3085,-34.8159 77.1486,-30.5414"/>
<polygon fill="midnightblue" stroke="midnightblue" points="1579.87,-96.6455 1589.86,-93.134 1579.86,-89.6455 1579.87,-96.6455"/>
</g>
<!-- Node3 -->
<g id="node3" class="node"><title>Node3</title>
<g id="a_node3"><a xlink:href="k-means__run_8cpp.html" target="_top" xlink:title="examples/k&#45;means/k\l&#45;means_run.cpp">
<polygon fill="none" stroke="black" points="128.5,-6 128.5,-36 235.5,-36 235.5,-6 128.5,-6"/>
<text text-anchor="start" x="136.5" y="-24" font-family="Helvetica,sans-Serif" font-size="10.00">examples/k&#45;means/k</text>
<text text-anchor="middle" x="182" y="-13" font-family="Helvetica,sans-Serif" font-size="10.00">&#45;means_run.cpp</text>
</a>
</g>
</g>
<!-- Node1&#45;&gt;Node3 -->
<g id="edge2" class="edge"><title>Node1&#45;&gt;Node3</title>
<path fill="none" stroke="midnightblue" d="M1579.63,-93.0019C1343.7,-92.6559 506.056,-88.1319 244,-42 236.091,-40.6078 227.801,-38.4494 219.948,-36.057"/>
<polygon fill="midnightblue" stroke="midnightblue" points="1579.74,-96.5019 1589.74,-93.0147 1579.75,-89.5019 1579.74,-96.5019"/>
</g>
<!-- Node4 -->
<g id="node4" class="node"><title>Node4</title>
<g id="a_node4"><a xlink:href="logistic__regression_8cpp.html" target="_top" xlink:title="examples/logistic_regression\l/logistic_regression.cpp">
<polygon fill="none" stroke="black" points="253.5,-6 253.5,-36 396.5,-36 396.5,-6 253.5,-6"/>
<text text-anchor="start" x="261.5" y="-24" font-family="Helvetica,sans-Serif" font-size="10.00">examples/logistic_regression</text>
<text text-anchor="middle" x="325" y="-13" font-family="Helvetica,sans-Serif" font-size="10.00">/logistic_regression.cpp</text>
</a>
</g>
</g>
<!-- Node1&#45;&gt;Node4 -->
<g id="edge3" class="edge"><title>Node1&#45;&gt;Node4</title>
<path fill="none" stroke="midnightblue" d="M1579.42,-92.1056C1361.31,-88.7248 635.377,-75.192 405,-42 395.081,-40.5709 384.605,-38.428 374.618,-36.0685"/>
<polygon fill="midnightblue" stroke="midnightblue" points="1579.67,-95.6098 1589.73,-92.2636 1579.78,-88.6106 1579.67,-95.6098"/>
</g>
<!-- Node5 -->
<g id="node5" class="node"><title>Node5</title>
<g id="a_node5"><a xlink:href="page__rank__run_8cpp.html" target="_top" xlink:title="examples/page_rank\l/page_rank_run.cpp">
<polygon fill="none" stroke="black" points="414.5,-6 414.5,-36 521.5,-36 521.5,-6 414.5,-6"/>
<text text-anchor="start" x="422.5" y="-24" font-family="Helvetica,sans-Serif" font-size="10.00">examples/page_rank</text>
<text text-anchor="middle" x="468" y="-13" font-family="Helvetica,sans-Serif" font-size="10.00">/page_rank_run.cpp</text>
</a>
</g>
</g>
<!-- Node1&#45;&gt;Node5 -->
<g id="edge4" class="edge"><title>Node1&#45;&gt;Node5</title>
<path fill="none" stroke="midnightblue" d="M1579.59,-92.3185C1376.2,-89.7553 733.863,-78.8729 530,-42 522.209,-40.5909 514.044,-38.457 506.29,-36.1001"/>
<polygon fill="midnightblue" stroke="midnightblue" points="1579.76,-95.8207 1589.8,-92.4447 1579.84,-88.8212 1579.76,-95.8207"/>
</g>
<!-- Node6 -->
<g id="node6" class="node"><title>Node6</title>
<g id="a_node6"><a xlink:href="zipf__graph__gen_8cpp.html" target="_top" xlink:title="examples/page_rank\l/zipf_graph_gen.cpp">
<polygon fill="none" stroke="black" points="539.5,-6 539.5,-36 646.5,-36 646.5,-6 539.5,-6"/>
<text text-anchor="start" x="547.5" y="-24" font-family="Helvetica,sans-Serif" font-size="10.00">examples/page_rank</text>
<text text-anchor="middle" x="593" y="-13" font-family="Helvetica,sans-Serif" font-size="10.00">/zipf_graph_gen.cpp</text>
</a>
</g>
</g>
<!-- Node1&#45;&gt;Node6 -->
<g id="edge5" class="edge"><title>Node1&#45;&gt;Node6</title>
<path fill="none" stroke="midnightblue" d="M1579.73,-91.8998C1392.03,-88.2491 833.666,-74.8503 655,-42 647.213,-40.5683 639.05,-38.4242 631.297,-36.0644"/>
<polygon fill="midnightblue" stroke="midnightblue" points="1579.91,-95.4038 1589.98,-92.0965 1580.05,-88.4051 1579.91,-95.4038"/>
</g>
<!-- Node7 -->
<g id="node7" class="node"><title>Node7</title>
<g id="a_node7"><a xlink:href="percentiles_8cpp.html" target="_top" xlink:title="examples/percentiles\l/percentiles.cpp">
<polygon fill="none" stroke="black" points="664.5,-6 664.5,-36 773.5,-36 773.5,-6 664.5,-6"/>
<text text-anchor="start" x="672.5" y="-24" font-family="Helvetica,sans-Serif" font-size="10.00">examples/percentiles</text>
<text text-anchor="middle" x="719" y="-13" font-family="Helvetica,sans-Serif" font-size="10.00">/percentiles.cpp</text>
</a>
</g>
</g>
<!-- Node1&#45;&gt;Node7 -->
<g id="edge6" class="edge"><title>Node1&#45;&gt;Node7</title>
<path fill="none" stroke="midnightblue" d="M1579.67,-91.3104C1408.76,-86.3577 935.215,-70.4056 782,-42 774.102,-40.5357 765.813,-38.3768 757.937,-36.0127"/>
<polygon fill="midnightblue" stroke="midnightblue" points="1579.67,-94.8116 1589.77,-91.6002 1579.87,-87.8145 1579.67,-94.8116"/>
</g>
<!-- Node8 -->
<g id="node8" class="node"><title>Node8</title>
<g id="a_node8"><a xlink:href="select__run_8cpp.html" target="_top" xlink:title="examples/select/select\l_run.cpp">
<polygon fill="none" stroke="black" points="791.5,-6 791.5,-36 908.5,-36 908.5,-6 791.5,-6"/>
<text text-anchor="start" x="799.5" y="-24" font-family="Helvetica,sans-Serif" font-size="10.00">examples/select/select</text>
<text text-anchor="middle" x="850" y="-13" font-family="Helvetica,sans-Serif" font-size="10.00">_run.cpp</text>
</a>
</g>
</g>
<!-- Node1&#45;&gt;Node8 -->
<g id="edge7" class="edge"><title>Node1&#45;&gt;Node8</title>
<path fill="none" stroke="midnightblue" d="M1579.49,-93.1115C1453.37,-92.3473 1159.84,-85.5556 918,-42 909.644,-40.495 900.852,-38.3484 892.466,-36.0153"/>
<polygon fill="midnightblue" stroke="midnightblue" points="1579.71,-96.6125 1589.73,-93.1623 1579.75,-89.6126 1579.71,-96.6125"/>
</g>
<!-- Node9 -->
<g id="node9" class="node"><title>Node9</title>
<g id="a_node9"><a xlink:href="sleep_8cpp.html" target="_top" xlink:title="examples/sleep/sleep.cpp">
<polygon fill="none" stroke="black" points="927,-11.5 927,-30.5 1057,-30.5 1057,-11.5 927,-11.5"/>
<text text-anchor="middle" x="992" y="-18.5" font-family="Helvetica,sans-Serif" font-size="10.00">examples/sleep/sleep.cpp</text>
</a>
</g>
</g>
<!-- Node1&#45;&gt;Node9 -->
<g id="edge8" class="edge"><title>Node1&#45;&gt;Node9</title>
<path fill="none" stroke="midnightblue" d="M1579.75,-91.0689C1473.61,-86.9797 1251.09,-74.9423 1066,-42 1050.28,-39.2016 1033.03,-34.6322 1019.15,-30.567"/>
<polygon fill="midnightblue" stroke="midnightblue" points="1579.84,-94.5746 1589.97,-91.4515 1580.1,-87.5795 1579.84,-94.5746"/>
</g>
<!-- Node10 -->
<g id="node10" class="node"><title>Node10</title>
<g id="a_node10"><a xlink:href="stochastic__gradient__descent__run_8cpp.html" target="_top" xlink:title="examples/stochastic\l_gradient_descent/stochastic\l_gradient_descent_run.cpp">
<polygon fill="none" stroke="black" points="1075,-0.5 1075,-41.5 1219,-41.5 1219,-0.5 1075,-0.5"/>
<text text-anchor="start" x="1083" y="-29.5" font-family="Helvetica,sans-Serif" font-size="10.00">examples/stochastic</text>
<text text-anchor="start" x="1083" y="-18.5" font-family="Helvetica,sans-Serif" font-size="10.00">_gradient_descent/stochastic</text>
<text text-anchor="middle" x="1147" y="-7.5" font-family="Helvetica,sans-Serif" font-size="10.00">_gradient_descent_run.cpp</text>
</a>
</g>
</g>
<!-- Node1&#45;&gt;Node10 -->
<g id="edge9" class="edge"><title>Node1&#45;&gt;Node10</title>
<path fill="none" stroke="midnightblue" d="M1579.67,-87.6628C1498.33,-80.1645 1351.79,-64.8227 1228,-42 1225.15,-41.4747 1222.25,-40.9095 1219.33,-40.3137"/>
<polygon fill="midnightblue" stroke="midnightblue" points="1579.46,-91.1585 1589.74,-88.5818 1580.1,-84.1874 1579.46,-91.1585"/>
</g>
<!-- Node11 -->
<g id="node11" class="node"><title>Node11</title>
<g id="a_node11"><a xlink:href="dc7_8cpp.html" target="_top" xlink:title="examples/suffix_sorting\l/dc7.cpp">
<polygon fill="none" stroke="black" points="1237,-6 1237,-36 1357,-36 1357,-6 1237,-6"/>
<text text-anchor="start" x="1245" y="-24" font-family="Helvetica,sans-Serif" font-size="10.00">examples/suffix_sorting</text>
<text text-anchor="middle" x="1297" y="-13" font-family="Helvetica,sans-Serif" font-size="10.00">/dc7.cpp</text>
</a>
</g>
</g>
<!-- Node1&#45;&gt;Node11 -->
<g id="edge10" class="edge"><title>Node1&#45;&gt;Node11</title>
<path fill="none" stroke="midnightblue" d="M1579.64,-83.296C1523.46,-74.1225 1438.76,-59.2228 1366,-42 1358.6,-40.2476 1350.8,-38.1948 1343.23,-36.0842"/>
<polygon fill="midnightblue" stroke="midnightblue" points="1579.36,-86.7959 1589.79,-84.9416 1580.48,-79.8862 1579.36,-86.7959"/>
</g>
<!-- Node12 -->
<g id="node12" class="node"><title>Node12</title>
<g id="a_node12"><a xlink:href="just__sort_8cpp.html" target="_top" xlink:title="examples/suffix_sorting\l/just_sort.cpp">
<polygon fill="none" stroke="black" points="1375,-6 1375,-36 1495,-36 1495,-6 1375,-6"/>
<text text-anchor="start" x="1383" y="-24" font-family="Helvetica,sans-Serif" font-size="10.00">examples/suffix_sorting</text>
<text text-anchor="middle" x="1435" y="-13" font-family="Helvetica,sans-Serif" font-size="10.00">/just_sort.cpp</text>
</a>
</g>
</g>
<!-- Node1&#45;&gt;Node12 -->
<g id="edge11" class="edge"><title>Node1&#45;&gt;Node12</title>
<path fill="none" stroke="midnightblue" d="M1591.44,-75.657C1556.03,-63.5112 1509.3,-47.4854 1476.17,-36.1195"/>
<polygon fill="midnightblue" stroke="midnightblue" points="1590.51,-79.0389 1601.1,-78.9727 1592.78,-72.4175 1590.51,-79.0389"/>
</g>
<!-- Node13 -->
<g id="node13" class="node"><title>Node13</title>
<g id="a_node13"><a xlink:href="rl__bwt_8cpp.html" target="_top" xlink:title="examples/suffix_sorting\l/rl_bwt.cpp">
<polygon fill="none" stroke="black" points="1513,-6 1513,-36 1633,-36 1633,-6 1513,-6"/>
<text text-anchor="start" x="1521" y="-24" font-family="Helvetica,sans-Serif" font-size="10.00">examples/suffix_sorting</text>
<text text-anchor="middle" x="1573" y="-13" font-family="Helvetica,sans-Serif" font-size="10.00">/rl_bwt.cpp</text>
</a>
</g>
</g>
<!-- Node1&#45;&gt;Node13 -->
<g id="edge12" class="edge"><title>Node1&#45;&gt;Node13</title>
<path fill="none" stroke="midnightblue" d="M1621.16,-71.5539C1610.13,-60.2075 1596.88,-46.5768 1587.08,-36.4856"/>
<polygon fill="midnightblue" stroke="midnightblue" points="1618.89,-74.2406 1628.37,-78.9727 1623.91,-69.362 1618.89,-74.2406"/>
</g>
<!-- Node14 -->
<g id="node14" class="node"><title>Node14</title>
<g id="a_node14"><a xlink:href="suffix__sorting_8cpp.html" target="_top" xlink:title="examples/suffix_sorting\l/suffix_sorting.cpp">
<polygon fill="none" stroke="black" points="1651,-6 1651,-36 1771,-36 1771,-6 1651,-6"/>
<text text-anchor="start" x="1659" y="-24" font-family="Helvetica,sans-Serif" font-size="10.00">examples/suffix_sorting</text>
<text text-anchor="middle" x="1711" y="-13" font-family="Helvetica,sans-Serif" font-size="10.00">/suffix_sorting.cpp</text>
</a>
</g>
</g>
<!-- Node1&#45;&gt;Node14 -->
<g id="edge13" class="edge"><title>Node1&#45;&gt;Node14</title>
<path fill="none" stroke="midnightblue" d="M1662.84,-71.5539C1673.87,-60.2075 1687.12,-46.5768 1696.92,-36.4856"/>
<polygon fill="midnightblue" stroke="midnightblue" points="1660.09,-69.362 1655.63,-78.9727 1665.11,-74.2406 1660.09,-69.362"/>
</g>
<!-- Node15 -->
<g id="node15" class="node"><title>Node15</title>
<g id="a_node15"><a xlink:href="wavelet__tree_8cpp.html" target="_top" xlink:title="examples/suffix_sorting\l/wavelet_tree.cpp">
<polygon fill="none" stroke="black" points="1789,-6 1789,-36 1909,-36 1909,-6 1789,-6"/>
<text text-anchor="start" x="1797" y="-24" font-family="Helvetica,sans-Serif" font-size="10.00">examples/suffix_sorting</text>
<text text-anchor="middle" x="1849" y="-13" font-family="Helvetica,sans-Serif" font-size="10.00">/wavelet_tree.cpp</text>
</a>
</g>
</g>
<!-- Node1&#45;&gt;Node15 -->
<g id="edge14" class="edge"><title>Node1&#45;&gt;Node15</title>
<path fill="none" stroke="midnightblue" d="M1692.56,-75.657C1727.97,-63.5112 1774.7,-47.4854 1807.83,-36.1195"/>
<polygon fill="midnightblue" stroke="midnightblue" points="1691.22,-72.4175 1682.9,-78.9727 1693.49,-79.0389 1691.22,-72.4175"/>
</g>
<!-- Node16 -->
<g id="node16" class="node"><title>Node16</title>
<g id="a_node16"><a xlink:href="wavelet__tree2_8cpp.html" target="_top" xlink:title="examples/suffix_sorting\l/wavelet_tree2.cpp">
<polygon fill="none" stroke="black" points="1927,-6 1927,-36 2047,-36 2047,-6 1927,-6"/>
<text text-anchor="start" x="1935" y="-24" font-family="Helvetica,sans-Serif" font-size="10.00">examples/suffix_sorting</text>
<text text-anchor="middle" x="1987" y="-13" font-family="Helvetica,sans-Serif" font-size="10.00">/wavelet_tree2.cpp</text>
</a>
</g>
</g>
<!-- Node1&#45;&gt;Node16 -->
<g id="edge15" class="edge"><title>Node1&#45;&gt;Node16</title>
<path fill="none" stroke="midnightblue" d="M1704.11,-83.2116C1760.08,-73.9819 1844.47,-59.0473 1917,-42 1924.51,-40.2361 1932.41,-38.1772 1940.09,-36.0641"/>
<polygon fill="midnightblue" stroke="midnightblue" points="1703.31,-79.7971 1694,-84.8678 1704.44,-86.7051 1703.31,-79.7971"/>
</g>
<!-- Node17 -->
<g id="node17" class="node"><title>Node17</title>
<g id="a_node17"><a xlink:href="wavelet__tree3_8cpp.html" target="_top" xlink:title="examples/suffix_sorting\l/wavelet_tree3.cpp">
<polygon fill="none" stroke="black" points="2065,-6 2065,-36 2185,-36 2185,-6 2065,-6"/>
<text text-anchor="start" x="2073" y="-24" font-family="Helvetica,sans-Serif" font-size="10.00">examples/suffix_sorting</text>
<text text-anchor="middle" x="2125" y="-13" font-family="Helvetica,sans-Serif" font-size="10.00">/wavelet_tree3.cpp</text>
</a>
</g>
</g>
<!-- Node1&#45;&gt;Node17 -->
<g id="edge16" class="edge"><title>Node1&#45;&gt;Node17</title>
<path fill="none" stroke="midnightblue" d="M1704.32,-88.342C1785.6,-81.575 1931.94,-67.0196 2055,-42 2063.05,-40.3632 2071.53,-38.2682 2079.69,-36.0532"/>
<polygon fill="midnightblue" stroke="midnightblue" points="1703.93,-84.8617 1694.25,-89.1678 1704.5,-91.8383 1703.93,-84.8617"/>
</g>
<!-- Node18 -->
<g id="node18" class="node"><title>Node18</title>
<g id="a_node18"><a xlink:href="terasort_8cpp.html" target="_top" xlink:title="examples/terasort/terasort.cpp">
<polygon fill="none" stroke="black" points="2202.5,-11.5 2202.5,-30.5 2351.5,-30.5 2351.5,-11.5 2202.5,-11.5"/>
<text text-anchor="middle" x="2277" y="-18.5" font-family="Helvetica,sans-Serif" font-size="10.00">examples/terasort/terasort.cpp</text>
</a>
</g>
</g>
<!-- Node1&#45;&gt;Node18 -->
<g id="edge17" class="edge"><title>Node1&#45;&gt;Node18</title>
<path fill="none" stroke="midnightblue" d="M1704.53,-90.0971C1807.11,-84.6908 2017.27,-70.9046 2193,-42 2210.6,-39.1047 2229.99,-34.5795 2245.7,-30.5654"/>
<polygon fill="midnightblue" stroke="midnightblue" points="1704.16,-86.6118 1694.35,-90.6248 1704.52,-93.6024 1704.16,-86.6118"/>
</g>
<!-- Node19 -->
<g id="node19" class="node"><title>Node19</title>
<g id="a_node19"><a xlink:href="tpch__run_8cpp.html" target="_top" xlink:title="examples/tpch/tpch\l_run.cpp">
<polygon fill="none" stroke="black" points="2369,-6 2369,-36 2471,-36 2471,-6 2369,-6"/>
<text text-anchor="start" x="2377" y="-24" font-family="Helvetica,sans-Serif" font-size="10.00">examples/tpch/tpch</text>
<text text-anchor="middle" x="2420" y="-13" font-family="Helvetica,sans-Serif" font-size="10.00">_run.cpp</text>
</a>
</g>
</g>
<!-- Node1&#45;&gt;Node19 -->
<g id="edge18" class="edge"><title>Node1&#45;&gt;Node19</title>
<path fill="none" stroke="midnightblue" d="M1704.6,-93.7915C1830.18,-94.234 2121.27,-89.4812 2360,-42 2367.43,-40.5221 2375.21,-38.3879 2382.62,-36.0586"/>
<polygon fill="midnightblue" stroke="midnightblue" points="1704.42,-90.2907 1694.4,-93.7427 1704.39,-97.2907 1704.42,-90.2907"/>
</g>
<!-- Node20 -->
<g id="node20" class="node"><title>Node20</title>
<g id="a_node20"><a xlink:href="triangles__run_8cpp.html" target="_top" xlink:title="examples/triangles\l/triangles_run.cpp">
<polygon fill="none" stroke="black" points="2489,-6 2489,-36 2587,-36 2587,-6 2489,-6"/>
<text text-anchor="start" x="2497" y="-24" font-family="Helvetica,sans-Serif" font-size="10.00">examples/triangles</text>
<text text-anchor="middle" x="2538" y="-13" font-family="Helvetica,sans-Serif" font-size="10.00">/triangles_run.cpp</text>
</a>
</g>
</g>
<!-- Node1&#45;&gt;Node20 -->
<g id="edge19" class="edge"><title>Node1&#45;&gt;Node20</title>
<path fill="none" stroke="midnightblue" d="M1704.41,-91.3455C1872.27,-86.5533 2330.68,-71.1165 2479,-42 2486.43,-40.5416 2494.21,-38.3854 2501.59,-36.0221"/>
<polygon fill="midnightblue" stroke="midnightblue" points="1704.16,-87.8513 1694.26,-91.6325 1704.35,-94.8485 1704.16,-87.8513"/>
</g>
<!-- Node21 -->
<g id="node21" class="node"><title>Node21</title>
<g id="a_node21"><a xlink:href="vfs__tool_8cpp.html" target="_top" xlink:title="examples/vfs_tool/vfs\l_tool.cpp">
<polygon fill="none" stroke="black" points="2605.5,-6 2605.5,-36 2718.5,-36 2718.5,-6 2605.5,-6"/>
<text text-anchor="start" x="2613.5" y="-24" font-family="Helvetica,sans-Serif" font-size="10.00">examples/vfs_tool/vfs</text>
<text text-anchor="middle" x="2662" y="-13" font-family="Helvetica,sans-Serif" font-size="10.00">_tool.cpp</text>
</a>
</g>
</g>
<!-- Node1&#45;&gt;Node21 -->
<g id="edge20" class="edge"><title>Node1&#45;&gt;Node21</title>
<path fill="none" stroke="midnightblue" d="M1704.31,-91.5891C1887.61,-87.1343 2422.86,-71.8632 2595,-42 2603.37,-40.5475 2612.18,-38.394 2620.55,-36.0314"/>
<polygon fill="midnightblue" stroke="midnightblue" points="1704.21,-88.0904 1694.3,-91.8302 1704.38,-95.0884 1704.21,-88.0904"/>
</g>
<!-- Node22 -->
<g id="node22" class="node"><title>Node22</title>
<g id="a_node22"><a xlink:href="line__count_8cpp.html" target="_top" xlink:title="examples/word_count\l/line_count.cpp">
<polygon fill="none" stroke="black" points="2737,-6 2737,-36 2849,-36 2849,-6 2737,-6"/>
<text text-anchor="start" x="2745" y="-24" font-family="Helvetica,sans-Serif" font-size="10.00">examples/word_count</text>
<text text-anchor="middle" x="2793" y="-13" font-family="Helvetica,sans-Serif" font-size="10.00">/line_count.cpp</text>
</a>
</g>
</g>
<!-- Node1&#45;&gt;Node22 -->
<g id="edge21" class="edge"><title>Node1&#45;&gt;Node22</title>
<path fill="none" stroke="midnightblue" d="M1704.24,-92.0942C1904.11,-88.8678 2528.24,-76.2417 2727,-42 2735.26,-40.5771 2743.94,-38.437 2752.19,-36.0783"/>
<polygon fill="midnightblue" stroke="midnightblue" points="1704.14,-88.5951 1694.2,-92.254 1704.26,-95.5942 1704.14,-88.5951"/>
</g>
<!-- Node23 -->
<g id="node23" class="node"><title>Node23</title>
<g id="a_node23"><a xlink:href="random__text__writer_8cpp.html" target="_top" xlink:title="examples/word_count\l/random_text_writer.cpp">
<polygon fill="none" stroke="black" points="2867,-6 2867,-36 2989,-36 2989,-6 2867,-6"/>
<text text-anchor="start" x="2875" y="-24" font-family="Helvetica,sans-Serif" font-size="10.00">examples/word_count</text>
<text text-anchor="middle" x="2928" y="-13" font-family="Helvetica,sans-Serif" font-size="10.00">/random_text_writer.cpp</text>
</a>
</g>
</g>
<!-- Node1&#45;&gt;Node23 -->
<g id="edge22" class="edge"><title>Node1&#45;&gt;Node23</title>
<path fill="none" stroke="midnightblue" d="M1704.23,-92.2984C1919.48,-89.5731 2631.49,-77.9908 2857,-42 2865.85,-40.5872 2875.17,-38.4517 2884.04,-36.0943"/>
<polygon fill="midnightblue" stroke="midnightblue" points="1704.02,-88.8007 1694.06,-92.4252 1704.11,-95.8001 1704.02,-88.8007"/>
</g>
<!-- Node24 -->
<g id="node24" class="node"><title>Node24</title>
<g id="a_node24"><a xlink:href="word__count__run_8cpp.html" target="_top" xlink:title="examples/word_count\l/word_count_run.cpp">
<polygon fill="none" stroke="black" points="3007,-6 3007,-36 3119,-36 3119,-6 3007,-6"/>
<text text-anchor="start" x="3015" y="-24" font-family="Helvetica,sans-Serif" font-size="10.00">examples/word_count</text>
<text text-anchor="middle" x="3063" y="-13" font-family="Helvetica,sans-Serif" font-size="10.00">/word_count_run.cpp</text>
</a>
</g>
</g>
<!-- Node1&#45;&gt;Node24 -->
<g id="edge23" class="edge"><title>Node1&#45;&gt;Node24</title>
<path fill="none" stroke="midnightblue" d="M1704.38,-92.8089C1935.71,-91.7655 2744.23,-85.0507 2998,-42 3006.26,-40.5979 3014.94,-38.4352 3023.17,-36.0415"/>
<polygon fill="midnightblue" stroke="midnightblue" points="1704.11,-89.3099 1694.13,-92.8531 1704.14,-96.3099 1704.11,-89.3099"/>
</g>
<!-- Node25 -->
<g id="node25" class="node"><title>Node25</title>
<g id="a_node25"><a xlink:href="cmdline__parser_8cpp.html" target="_top" xlink:title="extlib/tlx/tlx/cmdline\l_parser.cpp">
<polygon fill="none" stroke="black" points="3137,-6 3137,-36 3241,-36 3241,-6 3137,-6"/>
<text text-anchor="start" x="3145" y="-24" font-family="Helvetica,sans-Serif" font-size="10.00">extlib/tlx/tlx/cmdline</text>
<text text-anchor="middle" x="3189" y="-13" font-family="Helvetica,sans-Serif" font-size="10.00">_parser.cpp</text>
</a>
</g>
</g>
<!-- Node1&#45;&gt;Node25 -->
<g id="edge24" class="edge"><title>Node1&#45;&gt;Node25</title>
<path fill="none" stroke="midnightblue" d="M1704.55,-93.1582C1949.95,-93.4222 2847.21,-90.9453 3127,-42 3134.91,-40.6162 3143.2,-38.4616 3151.05,-36.0702"/>
<polygon fill="midnightblue" stroke="midnightblue" points="1704.38,-89.6581 1694.38,-93.1453 1704.38,-96.6581 1704.38,-89.6581"/>
</g>
</g>
</svg>
