<?xml version="1.0" encoding="UTF-8" standalone="no"?>
<!DOCTYPE svg PUBLIC "-//W3C//DTD SVG 1.1//EN"
 "http://www.w3.org/Graphics/SVG/1.1/DTD/svg11.dtd">
<!-- Generated by graphviz version 2.36.0 (20140111.2315)
 -->
<!-- Title: extlib/tlx/tlx/cmdline_parser.cpp Pages: 1 -->
<svg width="810pt" height="164pt"
 viewBox="0.00 0.00 810.00 164.00" xmlns="http://www.w3.org/2000/svg" xmlns:xlink="http://www.w3.org/1999/xlink">
<g id="graph0" class="graph" transform="scale(1 1) rotate(0) translate(4 160)">
<title>extlib/tlx/tlx/cmdline_parser.cpp</title>
<!-- Node1 -->
<g id="node1" class="node"><title>Node1</title>
<polygon fill="#bfbfbf" stroke="black" points="393,-125 393,-155 497,-155 497,-125 393,-125"/>
<text text-anchor="start" x="401" y="-143" font-family="Helvetica,sans-Serif" font-size="10.00">extlib/tlx/tlx/cmdline</text>
<text text-anchor="middle" x="445" y="-132" font-family="Helvetica,sans-Serif" font-size="10.00">_parser.cpp</text>
</g>
<!-- Node2 -->
<g id="node2" class="node"><title>Node2</title>
<g id="a_node2"><a xlink:href="cmdline__parser_8hpp.html" target="_top" xlink:title="tlx/cmdline_parser.hpp">
<polygon fill="none" stroke="black" points="38.5,-62.5 38.5,-81.5 153.5,-81.5 153.5,-62.5 38.5,-62.5"/>
<text text-anchor="middle" x="96" y="-69.5" font-family="Helvetica,sans-Serif" font-size="10.00">tlx/cmdline_parser.hpp</text>
</a>
</g>
</g>
<!-- Node1&#45;&gt;Node2 -->
<g id="edge1" class="edge"><title>Node1&#45;&gt;Node2</title>
<path fill="none" stroke="midnightblue" d="M392.902,-130.242C336.215,-120.558 242.974,-104.177 163,-88 156.406,-86.6662 149.463,-85.1915 142.646,-83.7028"/>
<polygon fill="midnightblue" stroke="midnightblue" points="143.322,-80.2679 132.803,-81.5265 141.811,-87.1029 143.322,-80.2679"/>
</g>
<!-- Node4 -->
<g id="node4" class="node"><title>Node4</title>
<polygon fill="none" stroke="#bfbfbf" points="198.5,-0.5 198.5,-19.5 239.5,-19.5 239.5,-0.5 198.5,-0.5"/>
<text text-anchor="middle" x="219" y="-7.5" font-family="Helvetica,sans-Serif" font-size="10.00">string</text>
</g>
<!-- Node1&#45;&gt;Node4 -->
<g id="edge11" class="edge"><title>Node1&#45;&gt;Node4</title>
<path fill="none" stroke="midnightblue" d="M497.07,-137.021C580.221,-132.089 728.448,-114.982 675,-56 646.457,-24.5011 347.708,-14.2313 249.846,-11.6989"/>
<polygon fill="midnightblue" stroke="midnightblue" points="249.797,-8.19671 239.712,-11.4461 249.622,-15.1945 249.797,-8.19671"/>
</g>
<!-- Node5 -->
<g id="node5" class="node"><title>Node5</title>
<polygon fill="none" stroke="#bfbfbf" points="0,-0.5 0,-19.5 44,-19.5 44,-0.5 0,-0.5"/>
<text text-anchor="middle" x="22" y="-7.5" font-family="Helvetica,sans-Serif" font-size="10.00">vector</text>
</g>
<!-- Node1&#45;&gt;Node5 -->
<g id="edge12" class="edge"><title>Node1&#45;&gt;Node5</title>
<path fill="none" stroke="midnightblue" d="M392.87,-136.222C286.842,-130.063 53.9397,-113.733 29,-88 14.2867,-72.8184 15.028,-47.1717 17.7768,-29.6834"/>
<polygon fill="midnightblue" stroke="midnightblue" points="21.2718,-30.0433 19.7307,-19.5612 14.3987,-28.7165 21.2718,-30.0433"/>
</g>
<!-- Node6 -->
<g id="node6" class="node"><title>Node6</title>
<polygon fill="none" stroke="#bfbfbf" points="284,-62.5 284,-81.5 340,-81.5 340,-62.5 284,-62.5"/>
<text text-anchor="middle" x="312" y="-69.5" font-family="Helvetica,sans-Serif" font-size="10.00">algorithm</text>
</g>
<!-- Node1&#45;&gt;Node6 -->
<g id="edge5" class="edge"><title>Node1&#45;&gt;Node6</title>
<path fill="none" stroke="midnightblue" d="M416.468,-124.841C393.36,-113.374 361.053,-97.3421 338.506,-86.1532"/>
<polygon fill="midnightblue" stroke="midnightblue" points="340.009,-82.9919 329.495,-81.6819 336.897,-89.2623 340.009,-82.9919"/>
</g>
<!-- Node7 -->
<g id="node7" class="node"><title>Node7</title>
<polygon fill="none" stroke="#bfbfbf" points="358.5,-62.5 358.5,-81.5 403.5,-81.5 403.5,-62.5 358.5,-62.5"/>
<text text-anchor="middle" x="381" y="-69.5" font-family="Helvetica,sans-Serif" font-size="10.00">cstdlib</text>
</g>
<!-- Node1&#45;&gt;Node7 -->
<g id="edge6" class="edge"><title>Node1&#45;&gt;Node7</title>
<path fill="none" stroke="midnightblue" d="M431.113,-124.679C420.936,-114.184 407.116,-99.9317 396.566,-89.0522"/>
<polygon fill="midnightblue" stroke="midnightblue" points="399.035,-86.5708 389.561,-81.8283 394.01,-91.4438 399.035,-86.5708"/>
</g>
<!-- Node8 -->
<g id="node8" class="node"><title>Node8</title>
<polygon fill="none" stroke="#bfbfbf" points="422,-62.5 422,-81.5 468,-81.5 468,-62.5 422,-62.5"/>
<text text-anchor="middle" x="445" y="-69.5" font-family="Helvetica,sans-Serif" font-size="10.00">cstring</text>
</g>
<!-- Node1&#45;&gt;Node8 -->
<g id="edge7" class="edge"><title>Node1&#45;&gt;Node8</title>
<path fill="none" stroke="midnightblue" d="M445,-124.679C445,-115.101 445,-102.394 445,-91.9766"/>
<polygon fill="midnightblue" stroke="midnightblue" points="448.5,-91.8283 445,-81.8283 441.5,-91.8283 448.5,-91.8283"/>
</g>
<!-- Node9 -->
<g id="node9" class="node"><title>Node9</title>
<polygon fill="none" stroke="#bfbfbf" points="486,-62.5 486,-81.5 536,-81.5 536,-62.5 486,-62.5"/>
<text text-anchor="middle" x="511" y="-69.5" font-family="Helvetica,sans-Serif" font-size="10.00">iomanip</text>
</g>
<!-- Node1&#45;&gt;Node9 -->
<g id="edge8" class="edge"><title>Node1&#45;&gt;Node9</title>
<path fill="none" stroke="midnightblue" d="M459.321,-124.679C469.816,-114.184 484.068,-99.9317 494.948,-89.0522"/>
<polygon fill="midnightblue" stroke="midnightblue" points="497.575,-91.3743 502.172,-81.8283 492.626,-86.4245 497.575,-91.3743"/>
</g>
<!-- Node10 -->
<g id="node10" class="node"><title>Node10</title>
<polygon fill="none" stroke="#bfbfbf" points="554,-62.5 554,-81.5 608,-81.5 608,-62.5 554,-62.5"/>
<text text-anchor="middle" x="581" y="-69.5" font-family="Helvetica,sans-Serif" font-size="10.00">iostream</text>
</g>
<!-- Node1&#45;&gt;Node10 -->
<g id="edge9" class="edge"><title>Node1&#45;&gt;Node10</title>
<path fill="none" stroke="midnightblue" d="M474.175,-124.841C497.805,-113.374 530.84,-97.3421 553.896,-86.1532"/>
<polygon fill="midnightblue" stroke="midnightblue" points="555.642,-89.1967 563.11,-81.6819 552.585,-82.8991 555.642,-89.1967"/>
</g>
<!-- Node11 -->
<g id="node11" class="node"><title>Node11</title>
<polygon fill="none" stroke="#bfbfbf" points="626,-62.5 626,-81.5 666,-81.5 666,-62.5 626,-62.5"/>
<text text-anchor="middle" x="646" y="-69.5" font-family="Helvetica,sans-Serif" font-size="10.00">limits</text>
</g>
<!-- Node1&#45;&gt;Node11 -->
<g id="edge10" class="edge"><title>Node1&#45;&gt;Node11</title>
<path fill="none" stroke="midnightblue" d="M497.047,-126.317C531.62,-117.226 577.707,-103.822 617,-88 618.413,-87.431 619.849,-86.8161 621.288,-86.1713"/>
<polygon fill="midnightblue" stroke="midnightblue" points="623.134,-89.1657 630.602,-81.6501 620.077,-82.8684 623.134,-89.1657"/>
</g>
<!-- Node12 -->
<g id="node12" class="node"><title>Node12</title>
<g id="a_node12"><a xlink:href="parse__si__iec__units_8hpp.html" target="_top" xlink:title="tlx/string/parse_si\l_iec_units.hpp">
<polygon fill="none" stroke="black" points="172,-57 172,-87 266,-87 266,-57 172,-57"/>
<text text-anchor="start" x="180" y="-75" font-family="Helvetica,sans-Serif" font-size="10.00">tlx/string/parse_si</text>
<text text-anchor="middle" x="219" y="-64" font-family="Helvetica,sans-Serif" font-size="10.00">_iec_units.hpp</text>
</a>
</g>
</g>
<!-- Node1&#45;&gt;Node12 -->
<g id="edge13" class="edge"><title>Node1&#45;&gt;Node12</title>
<path fill="none" stroke="midnightblue" d="M396.795,-124.922C361.451,-114.601 313.334,-100.549 276.069,-89.6663"/>
<polygon fill="midnightblue" stroke="midnightblue" points="276.936,-86.2733 266.356,-86.8296 274.974,-92.9926 276.936,-86.2733"/>
</g>
<!-- Node13 -->
<g id="node13" class="node"><title>Node13</title>
<g id="a_node13"><a xlink:href="unused_8hpp.html" target="_top" xlink:title="tlx/unused.hpp">
<polygon fill="none" stroke="black" points="722,-62.5 722,-81.5 802,-81.5 802,-62.5 722,-62.5"/>
<text text-anchor="middle" x="762" y="-69.5" font-family="Helvetica,sans-Serif" font-size="10.00">tlx/unused.hpp</text>
</a>
</g>
</g>
<!-- Node1&#45;&gt;Node13 -->
<g id="edge15" class="edge"><title>Node1&#45;&gt;Node13</title>
<path fill="none" stroke="midnightblue" d="M497.157,-130.146C550.41,-120.811 635.338,-105.109 708,-88 712.963,-86.8313 718.158,-85.5126 723.28,-84.1541"/>
<polygon fill="midnightblue" stroke="midnightblue" points="724.232,-87.5226 732.963,-81.5218 722.395,-80.7677 724.232,-87.5226"/>
</g>
<!-- Node3 -->
<g id="node3" class="node"><title>Node3</title>
<polygon fill="none" stroke="#bfbfbf" points="73.5,-0.5 73.5,-19.5 118.5,-19.5 118.5,-0.5 73.5,-0.5"/>
<text text-anchor="middle" x="96" y="-7.5" font-family="Helvetica,sans-Serif" font-size="10.00">iosfwd</text>
</g>
<!-- Node2&#45;&gt;Node3 -->
<g id="edge2" class="edge"><title>Node2&#45;&gt;Node3</title>
<path fill="none" stroke="midnightblue" d="M96,-62.4035C96,-53.9381 96,-40.7283 96,-29.8199"/>
<polygon fill="midnightblue" stroke="midnightblue" points="99.5001,-29.5806 96,-19.5806 92.5001,-29.5806 99.5001,-29.5806"/>
</g>
<!-- Node2&#45;&gt;Node4 -->
<g id="edge3" class="edge"><title>Node2&#45;&gt;Node4</title>
<path fill="none" stroke="midnightblue" d="M113.623,-62.4035C134.174,-52.3787 168.364,-35.7006 192.207,-24.0699"/>
<polygon fill="midnightblue" stroke="midnightblue" points="193.957,-27.1106 201.41,-19.5806 190.888,-20.8192 193.957,-27.1106"/>
</g>
<!-- Node2&#45;&gt;Node5 -->
<g id="edge4" class="edge"><title>Node2&#45;&gt;Node5</title>
<path fill="none" stroke="midnightblue" d="M85.3976,-62.4035C73.748,-52.9579 54.8136,-37.6056 40.6655,-26.1342"/>
<polygon fill="midnightblue" stroke="midnightblue" points="42.5546,-23.16 32.5827,-19.5806 38.146,-28.5973 42.5546,-23.16"/>
</g>
<!-- Node12&#45;&gt;Node4 -->
<g id="edge14" class="edge"><title>Node12&#45;&gt;Node4</title>
<path fill="none" stroke="midnightblue" d="M219,-56.7808C219,-48.7812 219,-38.6887 219,-30.0168"/>
<polygon fill="midnightblue" stroke="midnightblue" points="222.5,-29.7305 219,-19.7305 215.5,-29.7306 222.5,-29.7305"/>
</g>
</g>
</svg>
