<?xml version="1.0" encoding="UTF-8" standalone="no"?>
<!DOCTYPE svg PUBLIC "-//W3C//DTD SVG 1.1//EN"
 "http://www.w3.org/Graphics/SVG/1.1/DTD/svg11.dtd">
<!-- Generated by graphviz version 2.26.3 (20100126.1600)
 -->
<!-- Title: extlib/tlx/tlx/cmdline_parser.hpp Pages: 1 -->
<svg width="172pt" height="102pt"
 viewBox="0.00 0.00 172.00 102.00" xmlns="http://www.w3.org/2000/svg" xmlns:xlink="http://www.w3.org/1999/xlink">
<g id="graph1" class="graph" transform="scale(1 1) rotate(0) translate(4 98)">
<title>extlib/tlx/tlx/cmdline_parser.hpp</title>
<!-- Node1 -->
<g id="node1" class="node"><title>Node1</title>
<polygon fill="#bfbfbf" stroke="black" points="30,-59 30,-93 134,-93 134,-59 30,-59"/>
<text text-anchor="start" x="38" y="-80" font-family="Helvetica,sans-Serif" font-size="10.00">extlib/tlx/tlx/cmdline</text>
<text text-anchor="middle" x="82" y="-67" font-family="Helvetica,sans-Serif" font-size="10.00">_parser.hpp</text>
</g>
<!-- Node2 -->
<g id="node3" class="node"><title>Node2</title>
<polygon fill="none" stroke="#bfbfbf" points="-0.5,-0.5 -0.5,-21.5 44.5,-21.5 44.5,-0.5 -0.5,-0.5"/>
<text text-anchor="middle" x="22" y="-8.5" font-family="Helvetica,sans-Serif" font-size="10.00">iosfwd</text>
</g>
<!-- Node1&#45;&gt;Node2 -->
<g id="edge2" class="edge"><title>Node1&#45;&gt;Node2</title>
<path fill="none" stroke="midnightblue" d="M66.2357,-58.922C57.8572,-49.8453 47.5501,-38.6793 38.9936,-29.4097"/>
<polygon fill="midnightblue" stroke="midnightblue" points="41.372,-26.8262 32.0173,-21.8521 36.2283,-31.5741 41.372,-26.8262"/>
</g>
<!-- Node3 -->
<g id="node5" class="node"><title>Node3</title>
<polygon fill="none" stroke="#bfbfbf" points="61.5,-0.5 61.5,-21.5 102.5,-21.5 102.5,-0.5 61.5,-0.5"/>
<text text-anchor="middle" x="82" y="-8.5" font-family="Helvetica,sans-Serif" font-size="10.00">string</text>
</g>
<!-- Node1&#45;&gt;Node3 -->
<g id="edge4" class="edge"><title>Node1&#45;&gt;Node3</title>
<path fill="none" stroke="midnightblue" d="M82,-58.922C82,-50.6704 82,-40.6922 82,-31.9818"/>
<polygon fill="midnightblue" stroke="midnightblue" points="85.5001,-31.8521 82,-21.8521 78.5001,-31.8521 85.5001,-31.8521"/>
</g>
<!-- Node4 -->
<g id="node7" class="node"><title>Node4</title>
<polygon fill="none" stroke="#bfbfbf" points="120,-0.5 120,-21.5 164,-21.5 164,-0.5 120,-0.5"/>
<text text-anchor="middle" x="142" y="-8.5" font-family="Helvetica,sans-Serif" font-size="10.00">vector</text>
</g>
<!-- Node1&#45;&gt;Node4 -->
<g id="edge6" class="edge"><title>Node1&#45;&gt;Node4</title>
<path fill="none" stroke="midnightblue" d="M97.7643,-58.922C106.143,-49.8453 116.45,-38.6793 125.006,-29.4097"/>
<polygon fill="midnightblue" stroke="midnightblue" points="127.772,-31.5741 131.983,-21.8521 122.628,-26.8262 127.772,-31.5741"/>
</g>
</g>
</svg>
