<?xml version="1.0" encoding="UTF-8" standalone="no"?>
<!DOCTYPE svg PUBLIC "-//W3C//DTD SVG 1.1//EN"
 "http://www.w3.org/Graphics/SVG/1.1/DTD/svg11.dtd">
<!-- Generated by graphviz version 2.26.3 (20100126.1600)
 -->
<!-- Title: extlib/tlx/tlx/cmdline_parser.hpp Pages: 1 -->
<svg width="3112pt" height="128pt"
 viewBox="0.00 0.00 3112.00 128.00" xmlns="http://www.w3.org/2000/svg" xmlns:xlink="http://www.w3.org/1999/xlink">
<g id="graph1" class="graph" transform="scale(1 1) rotate(0) translate(4 124)">
<title>extlib/tlx/tlx/cmdline_parser.hpp</title>
<!-- Node1 -->
<g id="node1" class="node"><title>Node1</title>
<polygon fill="#bfbfbf" stroke="black" points="1524,-85 1524,-119 1628,-119 1628,-85 1524,-85"/>
<text text-anchor="start" x="1532" y="-106" font-family="Helvetica,sans-Serif" font-size="10.00">extlib/tlx/tlx/cmdline</text>
<text text-anchor="middle" x="1576" y="-93" font-family="Helvetica,sans-Serif" font-size="10.00">_parser.hpp</text>
</g>
<!-- Node2 -->
<g id="node3" class="node"><title>Node2</title>
<a xlink:href="k-means__run_8cpp.html" target="_top" xlink:title="examples/k&#45;means/k\l&#45;means_run.cpp">
<polygon fill="none" stroke="black" points="-0.5,-7 -0.5,-41 106.5,-41 106.5,-7 -0.5,-7"/>
<text text-anchor="start" x="7.5" y="-28" font-family="Helvetica,sans-Serif" font-size="10.00">examples/k&#45;means/k</text>
<text text-anchor="middle" x="53" y="-15" font-family="Helvetica,sans-Serif" font-size="10.00">&#45;means_run.cpp</text>
</a>
</g>
<!-- Node1&#45;&gt;Node2 -->
<g id="edge2" class="edge"><title>Node1&#45;&gt;Node2</title>
<path fill="none" stroke="midnightblue" d="M1513.83,-100.917C1252.86,-96.2076 253.147,-76.4556 115,-48 107.087,-46.37 98.8652,-43.837 91.0959,-41.0166"/>
<polygon fill="midnightblue" stroke="midnightblue" points="1513.82,-104.418 1523.89,-101.098 1513.95,-97.4188 1513.82,-104.418"/>
</g>
<!-- Node3 -->
<g id="node5" class="node"><title>Node3</title>
<a xlink:href="logistic__regression_8cpp.html" target="_top" xlink:title="examples/logistic_regression\l/logistic_regression.cpp">
<polygon fill="none" stroke="black" points="123.5,-7 123.5,-41 266.5,-41 266.5,-7 123.5,-7"/>
<text text-anchor="start" x="131.5" y="-28" font-family="Helvetica,sans-Serif" font-size="10.00">examples/logistic_regression</text>
<text text-anchor="middle" x="195" y="-15" font-family="Helvetica,sans-Serif" font-size="10.00">/logistic_regression.cpp</text>
</a>
</g>
<!-- Node1&#45;&gt;Node3 -->
<g id="edge4" class="edge"><title>Node1&#45;&gt;Node3</title>
<path fill="none" stroke="midnightblue" d="M1513.55,-101.473C1288.23,-99.2484 517.634,-88.7685 275,-48 265.133,-46.3421 254.773,-43.8344 244.903,-41.0554"/>
<polygon fill="midnightblue" stroke="midnightblue" points="1513.83,-104.975 1523.87,-101.572 1513.9,-97.9757 1513.83,-104.975"/>
</g>
<!-- Node4 -->
<g id="node7" class="node"><title>Node4</title>
<a xlink:href="page__rank__run_8cpp.html" target="_top" xlink:title="examples/page_rank\l/page_rank_run.cpp">
<polygon fill="none" stroke="black" points="283.5,-7 283.5,-41 390.5,-41 390.5,-7 283.5,-7"/>
<text text-anchor="start" x="291.5" y="-28" font-family="Helvetica,sans-Serif" font-size="10.00">examples/page_rank</text>
<text text-anchor="middle" x="337" y="-15" font-family="Helvetica,sans-Serif" font-size="10.00">/page_rank_run.cpp</text>
</a>
</g>
<!-- Node1&#45;&gt;Node4 -->
<g id="edge6" class="edge"><title>Node1&#45;&gt;Node4</title>
<path fill="none" stroke="midnightblue" d="M1513.46,-101.786C1301.99,-100.646 614.786,-93.4499 399,-48 391.207,-46.3586 383.111,-43.8584 375.441,-41.0818"/>
<polygon fill="midnightblue" stroke="midnightblue" points="1513.75,-105.287 1523.76,-101.838 1513.78,-98.2871 1513.75,-105.287"/>
</g>
<!-- Node5 -->
<g id="node9" class="node"><title>Node5</title>
<a xlink:href="zipf__graph__gen_8cpp.html" target="_top" xlink:title="examples/page_rank\l/zipf_graph_gen.cpp">
<polygon fill="none" stroke="black" points="407.5,-7 407.5,-41 514.5,-41 514.5,-7 407.5,-7"/>
<text text-anchor="start" x="415.5" y="-28" font-family="Helvetica,sans-Serif" font-size="10.00">examples/page_rank</text>
<text text-anchor="middle" x="461" y="-15" font-family="Helvetica,sans-Serif" font-size="10.00">/zipf_graph_gen.cpp</text>
</a>
</g>
<!-- Node1&#45;&gt;Node5 -->
<g id="edge8" class="edge"><title>Node1&#45;&gt;Node5</title>
<path fill="none" stroke="midnightblue" d="M1513.84,-101.396C1317.76,-99.0834 713.933,-88.7528 523,-48 515.211,-46.3376 507.117,-43.8278 499.448,-41.0482"/>
<polygon fill="midnightblue" stroke="midnightblue" points="1513.93,-104.897 1523.97,-101.512 1514.01,-97.8973 1513.93,-104.897"/>
</g>
<!-- Node6 -->
<g id="node11" class="node"><title>Node6</title>
<a xlink:href="percentiles_8cpp.html" target="_top" xlink:title="examples/percentiles\l/percentiles.cpp">
<polygon fill="none" stroke="black" points="531.5,-7 531.5,-41 640.5,-41 640.5,-7 531.5,-7"/>
<text text-anchor="start" x="539.5" y="-28" font-family="Helvetica,sans-Serif" font-size="10.00">examples/percentiles</text>
<text text-anchor="middle" x="586" y="-15" font-family="Helvetica,sans-Serif" font-size="10.00">/percentiles.cpp</text>
</a>
</g>
<!-- Node1&#45;&gt;Node6 -->
<g id="edge10" class="edge"><title>Node1&#45;&gt;Node6</title>
<path fill="none" stroke="midnightblue" d="M1513.75,-100.847C1333.72,-97.1206 814.744,-83.5149 649,-48 641.103,-46.3079 632.887,-43.7845 625.096,-41.0007"/>
<polygon fill="midnightblue" stroke="midnightblue" points="1513.78,-104.348 1523.85,-101.053 1513.92,-97.3495 1513.78,-104.348"/>
</g>
<!-- Node7 -->
<g id="node13" class="node"><title>Node7</title>
<a xlink:href="select__run_8cpp.html" target="_top" xlink:title="examples/select/select\l_run.cpp">
<polygon fill="none" stroke="black" points="657.5,-7 657.5,-41 774.5,-41 774.5,-7 657.5,-7"/>
<text text-anchor="start" x="665.5" y="-28" font-family="Helvetica,sans-Serif" font-size="10.00">examples/select/select</text>
<text text-anchor="middle" x="716" y="-15" font-family="Helvetica,sans-Serif" font-size="10.00">_run.cpp</text>
</a>
</g>
<!-- Node1&#45;&gt;Node7 -->
<g id="edge12" class="edge"><title>Node1&#45;&gt;Node7</title>
<path fill="none" stroke="midnightblue" d="M1513.51,-99.9698C1351.76,-94.3588 922.278,-77.1012 783,-48 774.776,-46.2816 766.193,-43.7827 758.023,-41.0393"/>
<polygon fill="midnightblue" stroke="midnightblue" points="1513.66,-103.477 1523.77,-100.323 1513.9,-96.481 1513.66,-103.477"/>
</g>
<!-- Node8 -->
<g id="node15" class="node"><title>Node8</title>
<a xlink:href="sleep_8cpp.html" target="_top" xlink:title="examples/sleep/sleep.cpp">
<polygon fill="none" stroke="black" points="792,-13.5 792,-34.5 922,-34.5 922,-13.5 792,-13.5"/>
<text text-anchor="middle" x="857" y="-21.5" font-family="Helvetica,sans-Serif" font-size="10.00">examples/sleep/sleep.cpp</text>
</a>
</g>
<!-- Node1&#45;&gt;Node8 -->
<g id="edge14" class="edge"><title>Node1&#45;&gt;Node8</title>
<path fill="none" stroke="midnightblue" d="M1513.73,-98.6178C1374.48,-90.7562 1041.43,-70.221 931,-48 915.244,-44.8294 898.146,-39.4206 884.358,-34.5395"/>
<polygon fill="midnightblue" stroke="midnightblue" points="1513.64,-102.118 1523.82,-99.184 1514.03,-95.1288 1513.64,-102.118"/>
</g>
<!-- Node9 -->
<g id="node17" class="node"><title>Node9</title>
<a xlink:href="stochastic__gradient__descent__run_8cpp.html" target="_top" xlink:title="examples/stochastic\l_gradient_descent/stochastic\l_gradient_descent_run.cpp">
<polygon fill="none" stroke="black" points="940,-0.5 940,-47.5 1084,-47.5 1084,-0.5 940,-0.5"/>
<text text-anchor="start" x="948" y="-34.5" font-family="Helvetica,sans-Serif" font-size="10.00">examples/stochastic</text>
<text text-anchor="start" x="948" y="-21.5" font-family="Helvetica,sans-Serif" font-size="10.00">_gradient_descent/stochastic</text>
<text text-anchor="middle" x="1012" y="-8.5" font-family="Helvetica,sans-Serif" font-size="10.00">_gradient_descent_run.cpp</text>
</a>
</g>
<!-- Node1&#45;&gt;Node9 -->
<g id="edge16" class="edge"><title>Node1&#45;&gt;Node9</title>
<path fill="none" stroke="midnightblue" d="M1513.67,-98.5617C1421.13,-92.6632 1242.26,-78.2094 1093,-48 1090.12,-47.4181 1087.2,-46.7806 1084.26,-46.0999"/>
<polygon fill="midnightblue" stroke="midnightblue" points="1513.51,-102.058 1523.71,-99.1894 1513.95,-95.072 1513.51,-102.058"/>
</g>
<!-- Node10 -->
<g id="node19" class="node"><title>Node10</title>
<a xlink:href="dc7_8cpp.html" target="_top" xlink:title="examples/suffix_sorting\l/dc7.cpp">
<polygon fill="none" stroke="black" points="1102,-7 1102,-41 1222,-41 1222,-7 1102,-7"/>
<text text-anchor="start" x="1110" y="-28" font-family="Helvetica,sans-Serif" font-size="10.00">examples/suffix_sorting</text>
<text text-anchor="middle" x="1162" y="-15" font-family="Helvetica,sans-Serif" font-size="10.00">/dc7.cpp</text>
</a>
</g>
<!-- Node1&#45;&gt;Node10 -->
<g id="edge18" class="edge"><title>Node1&#45;&gt;Node10</title>
<path fill="none" stroke="midnightblue" d="M1513.64,-95.6506C1444.02,-87.7764 1328.34,-72.3373 1231,-48 1223.25,-46.0619 1215.13,-43.6242 1207.3,-41.0502"/>
<polygon fill="midnightblue" stroke="midnightblue" points="1513.66,-99.1748 1523.98,-96.8037 1514.43,-92.2178 1513.66,-99.1748"/>
</g>
<!-- Node11 -->
<g id="node21" class="node"><title>Node11</title>
<a xlink:href="just__sort_8cpp.html" target="_top" xlink:title="examples/suffix_sorting\l/just_sort.cpp">
<polygon fill="none" stroke="black" points="1240,-7 1240,-41 1360,-41 1360,-7 1240,-7"/>
<text text-anchor="start" x="1248" y="-28" font-family="Helvetica,sans-Serif" font-size="10.00">examples/suffix_sorting</text>
<text text-anchor="middle" x="1300" y="-15" font-family="Helvetica,sans-Serif" font-size="10.00">/just_sort.cpp</text>
</a>
</g>
<!-- Node1&#45;&gt;Node11 -->
<g id="edge20" class="edge"><title>Node1&#45;&gt;Node11</title>
<path fill="none" stroke="midnightblue" d="M1513.87,-87.1626C1472.57,-76.9645 1417.26,-62.6622 1369,-48 1361.96,-45.8615 1354.57,-43.4601 1347.35,-41.0247"/>
<polygon fill="midnightblue" stroke="midnightblue" points="1513.24,-90.6123 1523.79,-89.5994 1514.91,-83.8145 1513.24,-90.6123"/>
</g>
<!-- Node12 -->
<g id="node23" class="node"><title>Node12</title>
<a xlink:href="rl__bwt_8cpp.html" target="_top" xlink:title="examples/suffix_sorting\l/rl_bwt.cpp">
<polygon fill="none" stroke="black" points="1378,-7 1378,-41 1498,-41 1498,-7 1378,-7"/>
<text text-anchor="start" x="1386" y="-28" font-family="Helvetica,sans-Serif" font-size="10.00">examples/suffix_sorting</text>
<text text-anchor="middle" x="1438" y="-15" font-family="Helvetica,sans-Serif" font-size="10.00">/rl_bwt.cpp</text>
</a>
</g>
<!-- Node1&#45;&gt;Node12 -->
<g id="edge22" class="edge"><title>Node1&#45;&gt;Node12</title>
<path fill="none" stroke="midnightblue" d="M1536.72,-79.7995C1514.96,-67.5015 1488.33,-52.4483 1468.21,-41.0775"/>
<polygon fill="midnightblue" stroke="midnightblue" points="1535.29,-83.0089 1545.72,-84.8826 1538.73,-76.915 1535.29,-83.0089"/>
</g>
<!-- Node13 -->
<g id="node25" class="node"><title>Node13</title>
<a xlink:href="suffix__sorting_8cpp.html" target="_top" xlink:title="examples/suffix_sorting\l/suffix_sorting.cpp">
<polygon fill="none" stroke="black" points="1516,-7 1516,-41 1636,-41 1636,-7 1516,-7"/>
<text text-anchor="start" x="1524" y="-28" font-family="Helvetica,sans-Serif" font-size="10.00">examples/suffix_sorting</text>
<text text-anchor="middle" x="1576" y="-15" font-family="Helvetica,sans-Serif" font-size="10.00">/suffix_sorting.cpp</text>
</a>
</g>
<!-- Node1&#45;&gt;Node13 -->
<g id="edge24" class="edge"><title>Node1&#45;&gt;Node13</title>
<path fill="none" stroke="midnightblue" d="M1576,-74.6102C1576,-63.5188 1576,-51.0489 1576,-41.2623"/>
<polygon fill="midnightblue" stroke="midnightblue" points="1572.5,-74.6892 1576,-84.6893 1579.5,-74.6893 1572.5,-74.6892"/>
</g>
<!-- Node14 -->
<g id="node27" class="node"><title>Node14</title>
<a xlink:href="wavelet__tree_8cpp.html" target="_top" xlink:title="examples/suffix_sorting\l/wavelet_tree.cpp">
<polygon fill="none" stroke="black" points="1654,-7 1654,-41 1774,-41 1774,-7 1654,-7"/>
<text text-anchor="start" x="1662" y="-28" font-family="Helvetica,sans-Serif" font-size="10.00">examples/suffix_sorting</text>
<text text-anchor="middle" x="1714" y="-15" font-family="Helvetica,sans-Serif" font-size="10.00">/wavelet_tree.cpp</text>
</a>
</g>
<!-- Node1&#45;&gt;Node14 -->
<g id="edge26" class="edge"><title>Node1&#45;&gt;Node14</title>
<path fill="none" stroke="midnightblue" d="M1615.28,-79.7995C1637.04,-67.5015 1663.67,-52.4483 1683.79,-41.0775"/>
<polygon fill="midnightblue" stroke="midnightblue" points="1613.27,-76.915 1606.28,-84.8826 1616.71,-83.0089 1613.27,-76.915"/>
</g>
<!-- Node15 -->
<g id="node29" class="node"><title>Node15</title>
<a xlink:href="wavelet__tree2_8cpp.html" target="_top" xlink:title="examples/suffix_sorting\l/wavelet_tree2.cpp">
<polygon fill="none" stroke="black" points="1792,-7 1792,-41 1912,-41 1912,-7 1792,-7"/>
<text text-anchor="start" x="1800" y="-28" font-family="Helvetica,sans-Serif" font-size="10.00">examples/suffix_sorting</text>
<text text-anchor="middle" x="1852" y="-15" font-family="Helvetica,sans-Serif" font-size="10.00">/wavelet_tree2.cpp</text>
</a>
</g>
<!-- Node1&#45;&gt;Node15 -->
<g id="edge28" class="edge"><title>Node1&#45;&gt;Node15</title>
<path fill="none" stroke="midnightblue" d="M1638.13,-87.1626C1679.43,-76.9645 1734.74,-62.6622 1783,-48 1790.04,-45.8615 1797.43,-43.4601 1804.65,-41.0247"/>
<polygon fill="midnightblue" stroke="midnightblue" points="1637.09,-83.8145 1628.21,-89.5994 1638.76,-90.6123 1637.09,-83.8145"/>
</g>
<!-- Node16 -->
<g id="node31" class="node"><title>Node16</title>
<a xlink:href="wavelet__tree3_8cpp.html" target="_top" xlink:title="examples/suffix_sorting\l/wavelet_tree3.cpp">
<polygon fill="none" stroke="black" points="1930,-7 1930,-41 2050,-41 2050,-7 1930,-7"/>
<text text-anchor="start" x="1938" y="-28" font-family="Helvetica,sans-Serif" font-size="10.00">examples/suffix_sorting</text>
<text text-anchor="middle" x="1990" y="-15" font-family="Helvetica,sans-Serif" font-size="10.00">/wavelet_tree3.cpp</text>
</a>
</g>
<!-- Node1&#45;&gt;Node16 -->
<g id="edge30" class="edge"><title>Node1&#45;&gt;Node16</title>
<path fill="none" stroke="midnightblue" d="M1638.36,-95.6506C1707.98,-87.7764 1823.66,-72.3373 1921,-48 1928.75,-46.0619 1936.87,-43.6242 1944.7,-41.0502"/>
<polygon fill="midnightblue" stroke="midnightblue" points="1637.57,-92.2178 1628.02,-96.8037 1638.34,-99.1748 1637.57,-92.2178"/>
</g>
<!-- Node17 -->
<g id="node33" class="node"><title>Node17</title>
<a xlink:href="terasort_8cpp.html" target="_top" xlink:title="examples/terasort/terasort.cpp">
<polygon fill="none" stroke="black" points="2067.5,-13.5 2067.5,-34.5 2216.5,-34.5 2216.5,-13.5 2067.5,-13.5"/>
<text text-anchor="middle" x="2142" y="-21.5" font-family="Helvetica,sans-Serif" font-size="10.00">examples/terasort/terasort.cpp</text>
</a>
</g>
<!-- Node1&#45;&gt;Node17 -->
<g id="edge32" class="edge"><title>Node1&#45;&gt;Node17</title>
<path fill="none" stroke="midnightblue" d="M1638.3,-98.4336C1730.81,-92.3735 1909.64,-77.7185 2059,-48 2076.21,-44.5751 2095.03,-39.2677 2110.39,-34.514"/>
<polygon fill="midnightblue" stroke="midnightblue" points="1638.02,-94.9442 1628.27,-99.0792 1638.47,-101.93 1638.02,-94.9442"/>
</g>
<!-- Node18 -->
<g id="node35" class="node"><title>Node18</title>
<a xlink:href="tpch__run_8cpp.html" target="_top" xlink:title="examples/tpch/tpch\l_run.cpp">
<polygon fill="none" stroke="black" points="2234,-7 2234,-41 2336,-41 2336,-7 2234,-7"/>
<text text-anchor="start" x="2242" y="-28" font-family="Helvetica,sans-Serif" font-size="10.00">examples/tpch/tpch</text>
<text text-anchor="middle" x="2285" y="-15" font-family="Helvetica,sans-Serif" font-size="10.00">_run.cpp</text>
</a>
</g>
<!-- Node1&#45;&gt;Node18 -->
<g id="edge34" class="edge"><title>Node1&#45;&gt;Node18</title>
<path fill="none" stroke="midnightblue" d="M1638.25,-99.1801C1778.31,-92.4539 2114.56,-74.0639 2225,-48 2232.32,-46.2735 2239.91,-43.8067 2247.14,-41.1055"/>
<polygon fill="midnightblue" stroke="midnightblue" points="1637.94,-95.6912 1628.12,-99.6631 1638.27,-102.683 1637.94,-95.6912"/>
</g>
<!-- Node19 -->
<g id="node37" class="node"><title>Node19</title>
<a xlink:href="triangles__run_8cpp.html" target="_top" xlink:title="examples/triangles\l/triangles_run.cpp">
<polygon fill="none" stroke="black" points="2354,-7 2354,-41 2452,-41 2452,-7 2354,-7"/>
<text text-anchor="start" x="2362" y="-28" font-family="Helvetica,sans-Serif" font-size="10.00">examples/triangles</text>
<text text-anchor="middle" x="2403" y="-15" font-family="Helvetica,sans-Serif" font-size="10.00">/triangles_run.cpp</text>
</a>
</g>
<!-- Node1&#45;&gt;Node19 -->
<g id="edge36" class="edge"><title>Node1&#45;&gt;Node19</title>
<path fill="none" stroke="midnightblue" d="M1638.09,-100.212C1796.21,-95.247 2211.07,-79.5313 2345,-48 2352.21,-46.3018 2359.69,-43.8124 2366.77,-41.072"/>
<polygon fill="midnightblue" stroke="midnightblue" points="1637.93,-96.715 1628.05,-100.524 1638.15,-103.712 1637.93,-96.715"/>
</g>
<!-- Node20 -->
<g id="node39" class="node"><title>Node20</title>
<a xlink:href="vfs__tool_8cpp.html" target="_top" xlink:title="examples/vfs_tool/vfs\l_tool.cpp">
<polygon fill="none" stroke="black" points="2469.5,-7 2469.5,-41 2582.5,-41 2582.5,-7 2469.5,-7"/>
<text text-anchor="start" x="2477.5" y="-28" font-family="Helvetica,sans-Serif" font-size="10.00">examples/vfs_tool/vfs</text>
<text text-anchor="middle" x="2526" y="-15" font-family="Helvetica,sans-Serif" font-size="10.00">_tool.cpp</text>
</a>
</g>
<!-- Node1&#45;&gt;Node20 -->
<g id="edge38" class="edge"><title>Node1&#45;&gt;Node20</title>
<path fill="none" stroke="midnightblue" d="M1638.1,-100.569C1812.36,-96.1799 2303.43,-81.144 2461,-48 2469,-46.3162 2477.34,-43.8336 2485.27,-41.0953"/>
<polygon fill="midnightblue" stroke="midnightblue" points="1637.98,-97.071 1628.07,-100.819 1638.15,-104.069 1637.98,-97.071"/>
</g>
<!-- Node21 -->
<g id="node41" class="node"><title>Node21</title>
<a xlink:href="line__count_8cpp.html" target="_top" xlink:title="examples/word_count\l/line_count.cpp">
<polygon fill="none" stroke="black" points="2600,-7 2600,-41 2712,-41 2712,-7 2600,-7"/>
<text text-anchor="start" x="2608" y="-28" font-family="Helvetica,sans-Serif" font-size="10.00">examples/word_count</text>
<text text-anchor="middle" x="2656" y="-15" font-family="Helvetica,sans-Serif" font-size="10.00">/line_count.cpp</text>
</a>
</g>
<!-- Node1&#45;&gt;Node21 -->
<g id="edge40" class="edge"><title>Node1&#45;&gt;Node21</title>
<path fill="none" stroke="midnightblue" d="M1638.48,-101.127C1830.08,-98.0625 2407.51,-85.8509 2591,-48 2599.13,-46.3231 2607.6,-43.8066 2615.63,-41.025"/>
<polygon fill="midnightblue" stroke="midnightblue" points="1638.24,-97.6298 1628.3,-101.287 1638.35,-104.629 1638.24,-97.6298"/>
</g>
<!-- Node22 -->
<g id="node43" class="node"><title>Node22</title>
<a xlink:href="random__text__writer_8cpp.html" target="_top" xlink:title="examples/word_count\l/random_text_writer.cpp">
<polygon fill="none" stroke="black" points="2730,-7 2730,-41 2852,-41 2852,-7 2730,-7"/>
<text text-anchor="start" x="2738" y="-28" font-family="Helvetica,sans-Serif" font-size="10.00">examples/word_count</text>
<text text-anchor="middle" x="2791" y="-15" font-family="Helvetica,sans-Serif" font-size="10.00">/random_text_writer.cpp</text>
</a>
</g>
<!-- Node1&#45;&gt;Node22 -->
<g id="edge42" class="edge"><title>Node1&#45;&gt;Node22</title>
<path fill="none" stroke="midnightblue" d="M1638.19,-101.381C1845.35,-98.955 2510.75,-88.1543 2721,-48 2729.71,-46.3371 2738.81,-43.827 2747.45,-41.0473"/>
<polygon fill="midnightblue" stroke="midnightblue" points="1638.05,-97.8818 1628.09,-101.496 1638.13,-104.881 1638.05,-97.8818"/>
</g>
<!-- Node23 -->
<g id="node45" class="node"><title>Node23</title>
<a xlink:href="word__count__run_8cpp.html" target="_top" xlink:title="examples/word_count\l/word_count_run.cpp">
<polygon fill="none" stroke="black" points="2870,-7 2870,-41 2982,-41 2982,-7 2870,-7"/>
<text text-anchor="start" x="2878" y="-28" font-family="Helvetica,sans-Serif" font-size="10.00">examples/word_count</text>
<text text-anchor="middle" x="2926" y="-15" font-family="Helvetica,sans-Serif" font-size="10.00">/word_count_run.cpp</text>
</a>
</g>
<!-- Node1&#45;&gt;Node23 -->
<g id="edge44" class="edge"><title>Node1&#45;&gt;Node23</title>
<path fill="none" stroke="midnightblue" d="M1638.41,-100.517C1879.25,-94.6402 2740.67,-72.1237 2861,-48 2869.14,-46.3685 2877.61,-43.8729 2885.65,-41.0976"/>
<polygon fill="midnightblue" stroke="midnightblue" points="1638,-97.0263 1628.09,-100.768 1638.17,-104.024 1638,-97.0263"/>
</g>
<!-- Node24 -->
<g id="node47" class="node"><title>Node24</title>
<a xlink:href="cmdline__parser_8cpp.html" target="_top" xlink:title="extlib/tlx/tlx/cmdline\l_parser.cpp">
<polygon fill="none" stroke="black" points="3000,-7 3000,-41 3104,-41 3104,-7 3000,-7"/>
<text text-anchor="start" x="3008" y="-28" font-family="Helvetica,sans-Serif" font-size="10.00">extlib/tlx/tlx/cmdline</text>
<text text-anchor="middle" x="3052" y="-15" font-family="Helvetica,sans-Serif" font-size="10.00">_parser.cpp</text>
</a>
</g>
<!-- Node1&#45;&gt;Node24 -->
<g id="edge46" class="edge"><title>Node1&#45;&gt;Node24</title>
<path fill="none" stroke="midnightblue" d="M1638.3,-100.855C1894.24,-95.981 2857.65,-75.9334 2991,-48 2998.8,-46.3667 3006.89,-43.8321 3014.54,-41.0114"/>
<polygon fill="midnightblue" stroke="midnightblue" points="1638,-97.3595 1628.06,-101.048 1638.13,-104.358 1638,-97.3595"/>
</g>
</g>
</svg>
