<?xml version="1.0" encoding="UTF-8" standalone="no"?>
<!DOCTYPE svg PUBLIC "-//W3C//DTD SVG 1.1//EN"
 "http://www.w3.org/Graphics/SVG/1.1/DTD/svg11.dtd">
<!-- Generated by graphviz version 2.26.3 (20100126.1600)
 -->
<!-- Title: examples/suffix_sorting/construct_wt.hpp Pages: 1 -->
<svg width="266pt" height="116pt"
 viewBox="0.00 0.00 266.00 116.00" xmlns="http://www.w3.org/2000/svg" xmlns:xlink="http://www.w3.org/1999/xlink">
<g id="graph1" class="graph" transform="scale(1 1) rotate(0) translate(4 112)">
<title>examples/suffix_sorting/construct_wt.hpp</title>
<!-- Node1 -->
<g id="node1" class="node"><title>Node1</title>
<polygon fill="#bfbfbf" stroke="black" points="69,-73 69,-107 189,-107 189,-73 69,-73"/>
<text text-anchor="start" x="77" y="-94" font-family="Helvetica,sans-Serif" font-size="10.00">examples/suffix_sorting</text>
<text text-anchor="middle" x="129" y="-81" font-family="Helvetica,sans-Serif" font-size="10.00">/construct_wt.hpp</text>
</g>
<!-- Node2 -->
<g id="node3" class="node"><title>Node2</title>
<a xlink:href="suffix__sorting_8cpp.html" target="_top" xlink:title="examples/suffix_sorting\l/suffix_sorting.cpp">
<polygon fill="none" stroke="black" points="0,-1 0,-35 120,-35 120,-1 0,-1"/>
<text text-anchor="start" x="8" y="-22" font-family="Helvetica,sans-Serif" font-size="10.00">examples/suffix_sorting</text>
<text text-anchor="middle" x="60" y="-9" font-family="Helvetica,sans-Serif" font-size="10.00">/suffix_sorting.cpp</text>
</a>
</g>
<!-- Node1&#45;&gt;Node2 -->
<g id="edge2" class="edge"><title>Node1&#45;&gt;Node2</title>
<path fill="none" stroke="midnightblue" d="M105.684,-65.6706C96.182,-55.7551 85.4103,-44.5151 76.714,-35.4407"/>
<polygon fill="midnightblue" stroke="midnightblue" points="103.202,-68.1388 112.648,-72.937 108.256,-63.2954 103.202,-68.1388"/>
</g>
<!-- Node3 -->
<g id="node5" class="node"><title>Node3</title>
<a xlink:href="wavelet__tree3_8cpp.html" target="_top" xlink:title="examples/suffix_sorting\l/wavelet_tree3.cpp">
<polygon fill="none" stroke="black" points="138,-1 138,-35 258,-35 258,-1 138,-1"/>
<text text-anchor="start" x="146" y="-22" font-family="Helvetica,sans-Serif" font-size="10.00">examples/suffix_sorting</text>
<text text-anchor="middle" x="198" y="-9" font-family="Helvetica,sans-Serif" font-size="10.00">/wavelet_tree3.cpp</text>
</a>
</g>
<!-- Node1&#45;&gt;Node3 -->
<g id="edge4" class="edge"><title>Node1&#45;&gt;Node3</title>
<path fill="none" stroke="midnightblue" d="M152.316,-65.6706C161.818,-55.7551 172.59,-44.5151 181.286,-35.4407"/>
<polygon fill="midnightblue" stroke="midnightblue" points="149.744,-63.2954 145.352,-72.937 154.798,-68.1388 149.744,-63.2954"/>
</g>
</g>
</svg>
