<?xml version="1.0" encoding="UTF-8" standalone="no"?>
<!DOCTYPE svg PUBLIC "-//W3C//DTD SVG 1.1//EN"
 "http://www.w3.org/Graphics/SVG/1.1/DTD/svg11.dtd">
<!-- Generated by graphviz version 2.26.3 (20100126.1600)
 -->
<!-- Title: thrill/net/tcp/construct.hpp Pages: 1 -->
<svg width="268pt" height="88pt"
 viewBox="0.00 0.00 268.00 88.00" xmlns="http://www.w3.org/2000/svg" xmlns:xlink="http://www.w3.org/1999/xlink">
<g id="graph1" class="graph" transform="scale(1 1) rotate(0) translate(4 84)">
<title>thrill/net/tcp/construct.hpp</title>
<!-- Node1 -->
<g id="node1" class="node"><title>Node1</title>
<polygon fill="#bfbfbf" stroke="black" points="69,-58.5 69,-79.5 199,-79.5 199,-58.5 69,-58.5"/>
<text text-anchor="middle" x="134" y="-66.5" font-family="Helvetica,sans-Serif" font-size="10.00">thrill/net/tcp/construct.hpp</text>
</g>
<!-- Node2 -->
<g id="node3" class="node"><title>Node2</title>
<a xlink:href="construct_8cpp.html" target="_top" xlink:title="thrill/net/tcp/construct.cpp">
<polygon fill="none" stroke="black" points="0,-0.5 0,-21.5 130,-21.5 130,-0.5 0,-0.5"/>
<text text-anchor="middle" x="65" y="-8.5" font-family="Helvetica,sans-Serif" font-size="10.00">thrill/net/tcp/construct.cpp</text>
</a>
</g>
<!-- Node1&#45;&gt;Node2 -->
<g id="edge2" class="edge"><title>Node1&#45;&gt;Node2</title>
<path fill="none" stroke="midnightblue" d="M113.408,-51.6908C101.76,-41.8996 87.5713,-29.973 77.5754,-21.5707"/>
<polygon fill="midnightblue" stroke="midnightblue" points="111.437,-54.6066 121.344,-58.3619 115.942,-49.2481 111.437,-54.6066"/>
</g>
<!-- Node3 -->
<g id="node5" class="node"><title>Node3</title>
<a xlink:href="tcp_2group_8cpp.html" target="_top" xlink:title="thrill/net/tcp/group.cpp">
<polygon fill="none" stroke="black" points="147.5,-0.5 147.5,-21.5 260.5,-21.5 260.5,-0.5 147.5,-0.5"/>
<text text-anchor="middle" x="204" y="-8.5" font-family="Helvetica,sans-Serif" font-size="10.00">thrill/net/tcp/group.cpp</text>
</a>
</g>
<!-- Node1&#45;&gt;Node3 -->
<g id="edge4" class="edge"><title>Node1&#45;&gt;Node3</title>
<path fill="none" stroke="midnightblue" d="M154.547,-51.9753C166.427,-42.1315 181.003,-30.0545 191.242,-21.5707"/>
<polygon fill="midnightblue" stroke="midnightblue" points="152.306,-49.2866 146.839,-58.3619 156.772,-54.6768 152.306,-49.2866"/>
</g>
</g>
</svg>
