<?xml version="1.0" encoding="UTF-8" standalone="no"?>
<!DOCTYPE svg PUBLIC "-//W3C//DTD SVG 1.1//EN"
 "http://www.w3.org/Graphics/SVG/1.1/DTD/svg11.dtd">
<!-- Generated by graphviz version 2.36.0 (20140111.2315)
 -->
<!-- Title: extlib/tlx/tlx/string/contains_word.cpp Pages: 1 -->
<svg width="108pt" height="164pt"
 viewBox="0.00 0.00 108.00 164.00" xmlns="http://www.w3.org/2000/svg" xmlns:xlink="http://www.w3.org/1999/xlink">
<g id="graph0" class="graph" transform="scale(1 1) rotate(0) translate(4 160)">
<title>extlib/tlx/tlx/string/contains_word.cpp</title>
<!-- Node1 -->
<g id="node1" class="node"><title>Node1</title>
<polygon fill="#bfbfbf" stroke="black" points="-0.5,-125 -0.5,-155 100.5,-155 100.5,-125 -0.5,-125"/>
<text text-anchor="start" x="7.5" y="-143" font-family="Helvetica,sans-Serif" font-size="10.00">extlib/tlx/tlx/string</text>
<text text-anchor="middle" x="50" y="-132" font-family="Helvetica,sans-Serif" font-size="10.00">/contains_word.cpp</text>
</g>
<!-- Node2 -->
<g id="node2" class="node"><title>Node2</title>
<g id="a_node2"><a xlink:href="contains__word_8hpp.html" target="_top" xlink:title="tlx/string/contains\l_word.hpp">
<polygon fill="none" stroke="black" points="3,-57 3,-87 97,-87 97,-57 3,-57"/>
<text text-anchor="start" x="11" y="-75" font-family="Helvetica,sans-Serif" font-size="10.00">tlx/string/contains</text>
<text text-anchor="middle" x="50" y="-64" font-family="Helvetica,sans-Serif" font-size="10.00">_word.hpp</text>
</a>
</g>
</g>
<!-- Node1&#45;&gt;Node2 -->
<g id="edge1" class="edge"><title>Node1&#45;&gt;Node2</title>
<path fill="none" stroke="midnightblue" d="M50,-124.679C50,-116.722 50,-106.605 50,-97.4356"/>
<polygon fill="midnightblue" stroke="midnightblue" points="53.5001,-97.293 50,-87.2931 46.5001,-97.2931 53.5001,-97.293"/>
</g>
<!-- Node3 -->
<g id="node3" class="node"><title>Node3</title>
<polygon fill="none" stroke="#bfbfbf" points="29.5,-0.5 29.5,-19.5 70.5,-19.5 70.5,-0.5 29.5,-0.5"/>
<text text-anchor="middle" x="50" y="-7.5" font-family="Helvetica,sans-Serif" font-size="10.00">string</text>
</g>
<!-- Node2&#45;&gt;Node3 -->
<g id="edge2" class="edge"><title>Node2&#45;&gt;Node3</title>
<path fill="none" stroke="midnightblue" d="M50,-56.7808C50,-48.7812 50,-38.6887 50,-30.0168"/>
<polygon fill="midnightblue" stroke="midnightblue" points="53.5001,-29.7305 50,-19.7305 46.5001,-29.7306 53.5001,-29.7305"/>
</g>
</g>
</svg>
