<?xml version="1.0" encoding="UTF-8" standalone="no"?>
<!DOCTYPE svg PUBLIC "-//W3C//DTD SVG 1.1//EN"
 "http://www.w3.org/Graphics/SVG/1.1/DTD/svg11.dtd">
<!-- Generated by graphviz version 2.36.0 (20140111.2315)
 -->
<!-- Title: thrill/core/hyperloglog.hpp Pages: 1 -->
<svg width="528pt" height="164pt"
 viewBox="0.00 0.00 528.00 164.00" xmlns="http://www.w3.org/2000/svg" xmlns:xlink="http://www.w3.org/1999/xlink">
<g id="graph0" class="graph" transform="scale(1 1) rotate(0) translate(4 160)">
<title>thrill/core/hyperloglog.hpp</title>
<!-- Node1 -->
<g id="node1" class="node"><title>Node1</title>
<polygon fill="#bfbfbf" stroke="black" points="238,-136.5 238,-155.5 366,-155.5 366,-136.5 238,-136.5"/>
<text text-anchor="middle" x="302" y="-143.5" font-family="Helvetica,sans-Serif" font-size="10.00">thrill/core/hyperloglog.hpp</text>
</g>
<!-- Node2 -->
<g id="node2" class="node"><title>Node2</title>
<g id="a_node2"><a xlink:href="serialization__fwd_8hpp.html" target="_top" xlink:title="thrill/data/serialization\l_fwd.hpp">
<polygon fill="none" stroke="black" points="-0.5,-69 -0.5,-99 110.5,-99 110.5,-69 -0.5,-69"/>
<text text-anchor="start" x="7.5" y="-87" font-family="Helvetica,sans-Serif" font-size="10.00">thrill/data/serialization</text>
<text text-anchor="middle" x="55" y="-76" font-family="Helvetica,sans-Serif" font-size="10.00">_fwd.hpp</text>
</a>
</g>
</g>
<!-- Node1&#45;&gt;Node2 -->
<g id="edge1" class="edge"><title>Node1&#45;&gt;Node2</title>
<path fill="none" stroke="midnightblue" d="M266.873,-136.467C228.824,-127.224 167.273,-112.273 120.293,-100.861"/>
<polygon fill="midnightblue" stroke="midnightblue" points="121.046,-97.4419 110.503,-98.4824 119.394,-104.244 121.046,-97.4419"/>
</g>
<!-- Node3 -->
<g id="node3" class="node"><title>Node3</title>
<g id="a_node3"><a xlink:href="die_8hpp.html" target="_top" xlink:title="tlx/die.hpp">
<polygon fill="none" stroke="black" points="128,-74.5 128,-93.5 190,-93.5 190,-74.5 128,-74.5"/>
<text text-anchor="middle" x="159" y="-81.5" font-family="Helvetica,sans-Serif" font-size="10.00">tlx/die.hpp</text>
</a>
</g>
</g>
<!-- Node1&#45;&gt;Node3 -->
<g id="edge2" class="edge"><title>Node1&#45;&gt;Node3</title>
<path fill="none" stroke="midnightblue" d="M281.512,-136.403C257.194,-126.2 216.451,-109.105 188.683,-97.4544"/>
<polygon fill="midnightblue" stroke="midnightblue" points="190.026,-94.2223 179.45,-93.5806 187.317,-100.677 190.026,-94.2223"/>
</g>
<!-- Node7 -->
<g id="node7" class="node"><title>Node7</title>
<g id="a_node7"><a xlink:href="clz_8hpp.html" target="_top" xlink:title="tlx/math/clz.hpp">
<polygon fill="none" stroke="black" points="208,-74.5 208,-93.5 294,-93.5 294,-74.5 208,-74.5"/>
<text text-anchor="middle" x="251" y="-81.5" font-family="Helvetica,sans-Serif" font-size="10.00">tlx/math/clz.hpp</text>
</a>
</g>
</g>
<!-- Node1&#45;&gt;Node7 -->
<g id="edge6" class="edge"><title>Node1&#45;&gt;Node7</title>
<path fill="none" stroke="midnightblue" d="M294.693,-136.403C286.967,-127.314 274.592,-112.756 264.982,-101.449"/>
<polygon fill="midnightblue" stroke="midnightblue" points="267.437,-98.9332 258.294,-93.5806 262.103,-103.467 267.437,-98.9332"/>
</g>
<!-- Node8 -->
<g id="node8" class="node"><title>Node8</title>
<g id="a_node8"><a xlink:href="siphash_8hpp.html" target="_top" xlink:title="tlx/siphash.hpp">
<polygon fill="none" stroke="black" points="312.5,-74.5 312.5,-93.5 395.5,-93.5 395.5,-74.5 312.5,-74.5"/>
<text text-anchor="middle" x="354" y="-81.5" font-family="Helvetica,sans-Serif" font-size="10.00">tlx/siphash.hpp</text>
</a>
</g>
</g>
<!-- Node1&#45;&gt;Node8 -->
<g id="edge7" class="edge"><title>Node1&#45;&gt;Node8</title>
<path fill="none" stroke="midnightblue" d="M309.45,-136.403C317.328,-127.314 329.945,-112.756 339.744,-101.449"/>
<polygon fill="midnightblue" stroke="midnightblue" points="342.659,-103.43 346.563,-93.5806 337.369,-98.8452 342.659,-103.43"/>
</g>
<!-- Node12 -->
<g id="node12" class="node"><title>Node12</title>
<polygon fill="none" stroke="#bfbfbf" points="414,-74.5 414,-93.5 458,-93.5 458,-74.5 414,-74.5"/>
<text text-anchor="middle" x="436" y="-81.5" font-family="Helvetica,sans-Serif" font-size="10.00">cmath</text>
</g>
<!-- Node1&#45;&gt;Node12 -->
<g id="edge11" class="edge"><title>Node1&#45;&gt;Node12</title>
<path fill="none" stroke="midnightblue" d="M321.996,-136.339C342.605,-127.375 375.635,-112.903 404,-100 405.396,-99.3649 406.825,-98.7107 408.266,-98.0474"/>
<polygon fill="midnightblue" stroke="midnightblue" points="410.162,-101.026 417.757,-93.6391 407.213,-94.6774 410.162,-101.026"/>
</g>
<!-- Node13 -->
<g id="node13" class="node"><title>Node13</title>
<polygon fill="none" stroke="#bfbfbf" points="476,-74.5 476,-93.5 520,-93.5 520,-74.5 476,-74.5"/>
<text text-anchor="middle" x="498" y="-81.5" font-family="Helvetica,sans-Serif" font-size="10.00">vector</text>
</g>
<!-- Node1&#45;&gt;Node13 -->
<g id="edge12" class="edge"><title>Node1&#45;&gt;Node13</title>
<path fill="none" stroke="midnightblue" d="M340.359,-136.437C373.97,-128.472 423.891,-115.518 466,-100 467.857,-99.3158 469.753,-98.5659 471.651,-97.7778"/>
<polygon fill="midnightblue" stroke="midnightblue" points="473.239,-100.902 480.958,-93.6452 470.398,-94.5046 473.239,-100.902"/>
</g>
<!-- Node4 -->
<g id="node4" class="node"><title>Node4</title>
<polygon fill="none" stroke="#bfbfbf" points="46,-6.5 46,-25.5 92,-25.5 92,-6.5 46,-6.5"/>
<text text-anchor="middle" x="69" y="-13.5" font-family="Helvetica,sans-Serif" font-size="10.00">cstring</text>
</g>
<!-- Node3&#45;&gt;Node4 -->
<g id="edge3" class="edge"><title>Node3&#45;&gt;Node4</title>
<path fill="none" stroke="midnightblue" d="M147.234,-74.3717C132.411,-63.5015 106.718,-44.6602 88.8374,-31.5474"/>
<polygon fill="midnightblue" stroke="midnightblue" points="90.9027,-28.7217 80.7688,-25.6305 86.7631,-34.3666 90.9027,-28.7217"/>
</g>
<!-- Node5 -->
<g id="node5" class="node"><title>Node5</title>
<polygon fill="none" stroke="#bfbfbf" points="110,-6.5 110,-25.5 162,-25.5 162,-6.5 110,-6.5"/>
<text text-anchor="middle" x="136" y="-13.5" font-family="Helvetica,sans-Serif" font-size="10.00">sstream</text>
</g>
<!-- Node3&#45;&gt;Node5 -->
<g id="edge4" class="edge"><title>Node3&#45;&gt;Node5</title>
<path fill="none" stroke="midnightblue" d="M155.993,-74.3717C152.568,-64.5443 146.873,-48.2018 142.436,-35.4673"/>
<polygon fill="midnightblue" stroke="midnightblue" points="145.677,-34.1324 139.081,-25.8411 139.067,-36.4359 145.677,-34.1324"/>
</g>
<!-- Node6 -->
<g id="node6" class="node"><title>Node6</title>
<polygon fill="none" stroke="#bfbfbf" points="180.5,-6.5 180.5,-25.5 221.5,-25.5 221.5,-6.5 180.5,-6.5"/>
<text text-anchor="middle" x="201" y="-13.5" font-family="Helvetica,sans-Serif" font-size="10.00">string</text>
</g>
<!-- Node3&#45;&gt;Node6 -->
<g id="edge5" class="edge"><title>Node3&#45;&gt;Node6</title>
<path fill="none" stroke="midnightblue" d="M164.491,-74.3717C170.932,-64.2495 181.772,-47.2154 189.971,-34.3312"/>
<polygon fill="midnightblue" stroke="midnightblue" points="192.958,-36.1568 195.374,-25.8411 187.052,-32.3987 192.958,-36.1568"/>
</g>
<!-- Node9 -->
<g id="node9" class="node"><title>Node9</title>
<g id="a_node9"><a xlink:href="attribute__fallthrough_8hpp.html" target="_top" xlink:title="tlx/define/attribute\l_fallthrough.hpp">
<polygon fill="none" stroke="black" points="239.5,-1 239.5,-31 334.5,-31 334.5,-1 239.5,-1"/>
<text text-anchor="start" x="247.5" y="-19" font-family="Helvetica,sans-Serif" font-size="10.00">tlx/define/attribute</text>
<text text-anchor="middle" x="287" y="-8" font-family="Helvetica,sans-Serif" font-size="10.00">_fallthrough.hpp</text>
</a>
</g>
</g>
<!-- Node8&#45;&gt;Node9 -->
<g id="edge8" class="edge"><title>Node8&#45;&gt;Node9</title>
<path fill="none" stroke="midnightblue" d="M345.241,-74.3717C336.017,-65.2858 321.14,-50.6306 308.731,-38.4068"/>
<polygon fill="midnightblue" stroke="midnightblue" points="310.977,-35.7058 301.396,-31.1815 306.064,-40.6926 310.977,-35.7058"/>
</g>
<!-- Node10 -->
<g id="node10" class="node"><title>Node10</title>
<polygon fill="none" stroke="#bfbfbf" points="353,-6.5 353,-25.5 399,-25.5 399,-6.5 353,-6.5"/>
<text text-anchor="middle" x="376" y="-13.5" font-family="Helvetica,sans-Serif" font-size="10.00">cstdint</text>
</g>
<!-- Node8&#45;&gt;Node10 -->
<g id="edge9" class="edge"><title>Node8&#45;&gt;Node10</title>
<path fill="none" stroke="midnightblue" d="M356.876,-74.3717C360.152,-64.5443 365.599,-48.2018 369.844,-35.4673"/>
<polygon fill="midnightblue" stroke="midnightblue" points="373.211,-36.4348 373.053,-25.8411 366.57,-34.2211 373.211,-36.4348"/>
</g>
<!-- Node11 -->
<g id="node11" class="node"><title>Node11</title>
<polygon fill="none" stroke="#bfbfbf" points="417.5,-6.5 417.5,-25.5 462.5,-25.5 462.5,-6.5 417.5,-6.5"/>
<text text-anchor="middle" x="440" y="-13.5" font-family="Helvetica,sans-Serif" font-size="10.00">cstdlib</text>
</g>
<!-- Node8&#45;&gt;Node11 -->
<g id="edge10" class="edge"><title>Node8&#45;&gt;Node11</title>
<path fill="none" stroke="midnightblue" d="M365.243,-74.3717C379.278,-63.6004 403.512,-45.0021 420.576,-31.9065"/>
<polygon fill="midnightblue" stroke="midnightblue" points="422.952,-34.4953 428.754,-25.6305 418.69,-28.9421 422.952,-34.4953"/>
</g>
</g>
</svg>
