<?xml version="1.0" encoding="UTF-8" standalone="no"?>
<!DOCTYPE svg PUBLIC "-//W3C//DTD SVG 1.1//EN"
 "http://www.w3.org/Graphics/SVG/1.1/DTD/svg11.dtd">
<!-- Generated by graphviz version 2.36.0 (20140111.2315)
 -->
<!-- Title: thrill/core/hyperloglog.hpp Pages: 1 -->
<svg width="528pt" height="152pt"
 viewBox="0.00 0.00 528.00 152.00" xmlns="http://www.w3.org/2000/svg" xmlns:xlink="http://www.w3.org/1999/xlink">
<g id="graph0" class="graph" transform="scale(1 1) rotate(0) translate(4 148)">
<title>thrill/core/hyperloglog.hpp</title>
<!-- Node1 -->
<g id="node1" class="node"><title>Node1</title>
<polygon fill="#bfbfbf" stroke="black" points="238,-124.5 238,-143.5 366,-143.5 366,-124.5 238,-124.5"/>
<text text-anchor="middle" x="302" y="-131.5" font-family="Helvetica,sans-Serif" font-size="10.00">thrill/core/hyperloglog.hpp</text>
</g>
<!-- Node2 -->
<g id="node2" class="node"><title>Node2</title>
<g id="a_node2"><a xlink:href="serialization__fwd_8hpp.html" target="_top" xlink:title="thrill/data/serialization\l_fwd.hpp">
<polygon fill="none" stroke="black" points="-0.5,-57 -0.5,-87 110.5,-87 110.5,-57 -0.5,-57"/>
<text text-anchor="start" x="7.5" y="-75" font-family="Helvetica,sans-Serif" font-size="10.00">thrill/data/serialization</text>
<text text-anchor="middle" x="55" y="-64" font-family="Helvetica,sans-Serif" font-size="10.00">_fwd.hpp</text>
</a>
</g>
</g>
<!-- Node1&#45;&gt;Node2 -->
<g id="edge1" class="edge"><title>Node1&#45;&gt;Node2</title>
<path fill="none" stroke="midnightblue" d="M266.873,-124.467C228.824,-115.224 167.273,-100.273 120.293,-88.8606"/>
<polygon fill="midnightblue" stroke="midnightblue" points="121.046,-85.4419 110.503,-86.4824 119.394,-92.2441 121.046,-85.4419"/>
</g>
<!-- Node3 -->
<g id="node3" class="node"><title>Node3</title>
<g id="a_node3"><a xlink:href="die_8hpp.html" target="_top" xlink:title="tlx/die.hpp">
<polygon fill="none" stroke="black" points="128,-62.5 128,-81.5 190,-81.5 190,-62.5 128,-62.5"/>
<text text-anchor="middle" x="159" y="-69.5" font-family="Helvetica,sans-Serif" font-size="10.00">tlx/die.hpp</text>
</a>
</g>
</g>
<!-- Node1&#45;&gt;Node3 -->
<g id="edge2" class="edge"><title>Node1&#45;&gt;Node3</title>
<path fill="none" stroke="midnightblue" d="M281.512,-124.403C257.194,-114.2 216.451,-97.1055 188.683,-85.4544"/>
<polygon fill="midnightblue" stroke="midnightblue" points="190.026,-82.2223 179.45,-81.5806 187.317,-88.6771 190.026,-82.2223"/>
</g>
<!-- Node7 -->
<g id="node7" class="node"><title>Node7</title>
<g id="a_node7"><a xlink:href="clz_8hpp.html" target="_top" xlink:title="tlx/math/clz.hpp">
<polygon fill="none" stroke="black" points="208,-62.5 208,-81.5 294,-81.5 294,-62.5 208,-62.5"/>
<text text-anchor="middle" x="251" y="-69.5" font-family="Helvetica,sans-Serif" font-size="10.00">tlx/math/clz.hpp</text>
</a>
</g>
</g>
<!-- Node1&#45;&gt;Node7 -->
<g id="edge6" class="edge"><title>Node1&#45;&gt;Node7</title>
<path fill="none" stroke="midnightblue" d="M294.693,-124.403C286.967,-115.314 274.592,-100.756 264.982,-89.4489"/>
<polygon fill="midnightblue" stroke="midnightblue" points="267.437,-86.9332 258.294,-81.5806 262.103,-91.4668 267.437,-86.9332"/>
</g>
<!-- Node8 -->
<g id="node8" class="node"><title>Node8</title>
<g id="a_node8"><a xlink:href="siphash_8hpp.html" target="_top" xlink:title="tlx/siphash.hpp">
<polygon fill="none" stroke="black" points="312.5,-62.5 312.5,-81.5 395.5,-81.5 395.5,-62.5 312.5,-62.5"/>
<text text-anchor="middle" x="354" y="-69.5" font-family="Helvetica,sans-Serif" font-size="10.00">tlx/siphash.hpp</text>
</a>
</g>
</g>
<!-- Node1&#45;&gt;Node8 -->
<g id="edge7" class="edge"><title>Node1&#45;&gt;Node8</title>
<path fill="none" stroke="midnightblue" d="M309.45,-124.403C317.328,-115.314 329.945,-100.756 339.744,-89.4489"/>
<polygon fill="midnightblue" stroke="midnightblue" points="342.659,-91.4298 346.563,-81.5806 337.369,-86.8452 342.659,-91.4298"/>
</g>
<!-- Node11 -->
<g id="node11" class="node"><title>Node11</title>
<polygon fill="none" stroke="#bfbfbf" points="414,-62.5 414,-81.5 458,-81.5 458,-62.5 414,-62.5"/>
<text text-anchor="middle" x="436" y="-69.5" font-family="Helvetica,sans-Serif" font-size="10.00">cmath</text>
</g>
<!-- Node1&#45;&gt;Node11 -->
<g id="edge10" class="edge"><title>Node1&#45;&gt;Node11</title>
<path fill="none" stroke="midnightblue" d="M321.996,-124.339C342.605,-115.375 375.635,-100.903 404,-88 405.396,-87.3649 406.825,-86.7107 408.266,-86.0474"/>
<polygon fill="midnightblue" stroke="midnightblue" points="410.162,-89.026 417.757,-81.6391 407.213,-82.6774 410.162,-89.026"/>
</g>
<!-- Node12 -->
<g id="node12" class="node"><title>Node12</title>
<polygon fill="none" stroke="#bfbfbf" points="476,-62.5 476,-81.5 520,-81.5 520,-62.5 476,-62.5"/>
<text text-anchor="middle" x="498" y="-69.5" font-family="Helvetica,sans-Serif" font-size="10.00">vector</text>
</g>
<!-- Node1&#45;&gt;Node12 -->
<g id="edge11" class="edge"><title>Node1&#45;&gt;Node12</title>
<path fill="none" stroke="midnightblue" d="M340.359,-124.437C373.97,-116.472 423.891,-103.518 466,-88 467.857,-87.3158 469.753,-86.5659 471.651,-85.7778"/>
<polygon fill="midnightblue" stroke="midnightblue" points="473.239,-88.9023 480.958,-81.6452 470.398,-82.5046 473.239,-88.9023"/>
</g>
<!-- Node4 -->
<g id="node4" class="node"><title>Node4</title>
<polygon fill="none" stroke="#bfbfbf" points="69,-0.5 69,-19.5 115,-19.5 115,-0.5 69,-0.5"/>
<text text-anchor="middle" x="92" y="-7.5" font-family="Helvetica,sans-Serif" font-size="10.00">cstring</text>
</g>
<!-- Node3&#45;&gt;Node4 -->
<g id="edge3" class="edge"><title>Node3&#45;&gt;Node4</title>
<path fill="none" stroke="midnightblue" d="M149.401,-62.4035C138.952,-53.047 122.032,-37.8948 109.264,-26.4599"/>
<polygon fill="midnightblue" stroke="midnightblue" points="111.366,-23.6445 101.582,-19.5806 106.696,-28.8592 111.366,-23.6445"/>
</g>
<!-- Node5 -->
<g id="node5" class="node"><title>Node5</title>
<polygon fill="none" stroke="#bfbfbf" points="133,-0.5 133,-19.5 185,-19.5 185,-0.5 133,-0.5"/>
<text text-anchor="middle" x="159" y="-7.5" font-family="Helvetica,sans-Serif" font-size="10.00">sstream</text>
</g>
<!-- Node3&#45;&gt;Node5 -->
<g id="edge4" class="edge"><title>Node3&#45;&gt;Node5</title>
<path fill="none" stroke="midnightblue" d="M159,-62.4035C159,-53.9381 159,-40.7283 159,-29.8199"/>
<polygon fill="midnightblue" stroke="midnightblue" points="162.5,-29.5806 159,-19.5806 155.5,-29.5806 162.5,-29.5806"/>
</g>
<!-- Node6 -->
<g id="node6" class="node"><title>Node6</title>
<polygon fill="none" stroke="#bfbfbf" points="203.5,-0.5 203.5,-19.5 244.5,-19.5 244.5,-0.5 203.5,-0.5"/>
<text text-anchor="middle" x="224" y="-7.5" font-family="Helvetica,sans-Serif" font-size="10.00">string</text>
</g>
<!-- Node3&#45;&gt;Node6 -->
<g id="edge5" class="edge"><title>Node3&#45;&gt;Node6</title>
<path fill="none" stroke="midnightblue" d="M168.313,-62.4035C178.449,-53.047 194.864,-37.8948 207.252,-26.4599"/>
<polygon fill="midnightblue" stroke="midnightblue" points="209.73,-28.9352 214.704,-19.5806 204.982,-23.7916 209.73,-28.9352"/>
</g>
<!-- Node9 -->
<g id="node9" class="node"><title>Node9</title>
<polygon fill="none" stroke="#bfbfbf" points="299,-0.5 299,-19.5 345,-19.5 345,-0.5 299,-0.5"/>
<text text-anchor="middle" x="322" y="-7.5" font-family="Helvetica,sans-Serif" font-size="10.00">cstdint</text>
</g>
<!-- Node8&#45;&gt;Node9 -->
<g id="edge8" class="edge"><title>Node8&#45;&gt;Node9</title>
<path fill="none" stroke="midnightblue" d="M349.415,-62.4035C344.71,-53.5816 337.257,-39.6075 331.309,-28.4548"/>
<polygon fill="midnightblue" stroke="midnightblue" points="334.37,-26.7571 326.576,-19.5806 328.194,-30.0512 334.37,-26.7571"/>
</g>
<!-- Node10 -->
<g id="node10" class="node"><title>Node10</title>
<polygon fill="none" stroke="#bfbfbf" points="363.5,-0.5 363.5,-19.5 408.5,-19.5 408.5,-0.5 363.5,-0.5"/>
<text text-anchor="middle" x="386" y="-7.5" font-family="Helvetica,sans-Serif" font-size="10.00">cstdlib</text>
</g>
<!-- Node8&#45;&gt;Node10 -->
<g id="edge9" class="edge"><title>Node8&#45;&gt;Node10</title>
<path fill="none" stroke="midnightblue" d="M358.585,-62.4035C363.29,-53.5816 370.743,-39.6075 376.691,-28.4548"/>
<polygon fill="midnightblue" stroke="midnightblue" points="379.806,-30.0512 381.424,-19.5806 373.63,-26.7571 379.806,-30.0512"/>
</g>
</g>
</svg>
