<?xml version="1.0" encoding="UTF-8" standalone="no"?>
<!DOCTYPE svg PUBLIC "-//W3C//DTD SVG 1.1//EN"
 "http://www.w3.org/Graphics/SVG/1.1/DTD/svg11.dtd">
<!-- Generated by graphviz version 2.36.0 (20140111.2315)
 -->
<!-- Title: extlib/tlx/tlx/define.hpp Pages: 1 -->
<svg width="980pt" height="96pt"
 viewBox="0.00 0.00 980.00 96.00" xmlns="http://www.w3.org/2000/svg" xmlns:xlink="http://www.w3.org/1999/xlink">
<g id="graph0" class="graph" transform="scale(1 1) rotate(0) translate(4 92)">
<title>extlib/tlx/tlx/define.hpp</title>
<!-- Node1 -->
<g id="node1" class="node"><title>Node1</title>
<polygon fill="#bfbfbf" stroke="black" points="397.5,-68.5 397.5,-87.5 512.5,-87.5 512.5,-68.5 397.5,-68.5"/>
<text text-anchor="middle" x="455" y="-75.5" font-family="Helvetica,sans-Serif" font-size="10.00">extlib/tlx/tlx/define.hpp</text>
</g>
<!-- Node2 -->
<g id="node2" class="node"><title>Node2</title>
<g id="a_node2"><a xlink:href="attribute__always__inline_8hpp.html" target="_top" xlink:title="tlx/define/attribute\l_always_inline.hpp">
<polygon fill="none" stroke="black" points="-0.5,-1 -0.5,-31 98.5,-31 98.5,-1 -0.5,-1"/>
<text text-anchor="start" x="7.5" y="-19" font-family="Helvetica,sans-Serif" font-size="10.00">tlx/define/attribute</text>
<text text-anchor="middle" x="49" y="-8" font-family="Helvetica,sans-Serif" font-size="10.00">_always_inline.hpp</text>
</a>
</g>
</g>
<!-- Node1&#45;&gt;Node2 -->
<g id="edge1" class="edge"><title>Node1&#45;&gt;Node2</title>
<path fill="none" stroke="midnightblue" d="M397.381,-71.7674C330.171,-65.1694 215.585,-52.3901 108.58,-32.1713"/>
<polygon fill="midnightblue" stroke="midnightblue" points="109.062,-28.7001 98.5817,-30.256 107.745,-35.5751 109.062,-28.7001"/>
</g>
<!-- Node3 -->
<g id="node3" class="node"><title>Node3</title>
<g id="a_node3"><a xlink:href="attribute__fallthrough_8hpp.html" target="_top" xlink:title="tlx/define/attribute\l_fallthrough.hpp">
<polygon fill="none" stroke="black" points="116.5,-1 116.5,-31 211.5,-31 211.5,-1 116.5,-1"/>
<text text-anchor="start" x="124.5" y="-19" font-family="Helvetica,sans-Serif" font-size="10.00">tlx/define/attribute</text>
<text text-anchor="middle" x="164" y="-8" font-family="Helvetica,sans-Serif" font-size="10.00">_fallthrough.hpp</text>
</a>
</g>
</g>
<!-- Node1&#45;&gt;Node3 -->
<g id="edge2" class="edge"><title>Node1&#45;&gt;Node3</title>
<path fill="none" stroke="midnightblue" d="M404.811,-68.4768C359.318,-60.5066 290.218,-47.7948 221.702,-32.3068"/>
<polygon fill="midnightblue" stroke="midnightblue" points="222.128,-28.8141 211.6,-30.0017 220.571,-35.6387 222.128,-28.8141"/>
</g>
<!-- Node4 -->
<g id="node4" class="node"><title>Node4</title>
<g id="a_node4"><a xlink:href="attribute__format__printf_8hpp.html" target="_top" xlink:title="tlx/define/attribute\l_format_printf.hpp">
<polygon fill="none" stroke="black" points="229.5,-1 229.5,-31 324.5,-31 324.5,-1 229.5,-1"/>
<text text-anchor="start" x="237.5" y="-19" font-family="Helvetica,sans-Serif" font-size="10.00">tlx/define/attribute</text>
<text text-anchor="middle" x="277" y="-8" font-family="Helvetica,sans-Serif" font-size="10.00">_format_printf.hpp</text>
</a>
</g>
</g>
<!-- Node1&#45;&gt;Node4 -->
<g id="edge3" class="edge"><title>Node1&#45;&gt;Node4</title>
<path fill="none" stroke="midnightblue" d="M429.497,-68.4035C403.161,-59.5263 361.348,-45.4321 328.161,-34.2453"/>
<polygon fill="midnightblue" stroke="midnightblue" points="329.203,-30.9029 318.608,-31.0253 326.967,-37.5362 329.203,-30.9029"/>
</g>
<!-- Node5 -->
<g id="node5" class="node"><title>Node5</title>
<g id="a_node5"><a xlink:href="attribute__packed_8hpp.html" target="_top" xlink:title="tlx/define/attribute\l_packed.hpp">
<polygon fill="none" stroke="black" points="342.5,-1 342.5,-31 437.5,-31 437.5,-1 342.5,-1"/>
<text text-anchor="start" x="350.5" y="-19" font-family="Helvetica,sans-Serif" font-size="10.00">tlx/define/attribute</text>
<text text-anchor="middle" x="390" y="-8" font-family="Helvetica,sans-Serif" font-size="10.00">_packed.hpp</text>
</a>
</g>
</g>
<!-- Node1&#45;&gt;Node5 -->
<g id="edge4" class="edge"><title>Node1&#45;&gt;Node5</title>
<path fill="none" stroke="midnightblue" d="M445.687,-68.4035C437.131,-60.5051 424.1,-48.4768 412.794,-38.0409"/>
<polygon fill="midnightblue" stroke="midnightblue" points="415.041,-35.3518 405.319,-31.1408 410.293,-40.4955 415.041,-35.3518"/>
</g>
<!-- Node6 -->
<g id="node6" class="node"><title>Node6</title>
<g id="a_node6"><a xlink:href="attribute__warn__unused__result_8hpp.html" target="_top" xlink:title="tlx/define/attribute\l_warn_unused_result.hpp">
<polygon fill="none" stroke="black" points="456,-1 456,-31 584,-31 584,-1 456,-1"/>
<text text-anchor="start" x="464" y="-19" font-family="Helvetica,sans-Serif" font-size="10.00">tlx/define/attribute</text>
<text text-anchor="middle" x="520" y="-8" font-family="Helvetica,sans-Serif" font-size="10.00">_warn_unused_result.hpp</text>
</a>
</g>
</g>
<!-- Node1&#45;&gt;Node6 -->
<g id="edge5" class="edge"><title>Node1&#45;&gt;Node6</title>
<path fill="none" stroke="midnightblue" d="M464.313,-68.4035C472.869,-60.5051 485.9,-48.4768 497.206,-38.0409"/>
<polygon fill="midnightblue" stroke="midnightblue" points="499.707,-40.4955 504.681,-31.1408 494.959,-35.3518 499.707,-40.4955"/>
</g>
<!-- Node7 -->
<g id="node7" class="node"><title>Node7</title>
<g id="a_node7"><a xlink:href="deprecated_8hpp.html" target="_top" xlink:title="tlx/define/deprecated.hpp">
<polygon fill="none" stroke="black" points="602,-6.5 602,-25.5 728,-25.5 728,-6.5 602,-6.5"/>
<text text-anchor="middle" x="665" y="-13.5" font-family="Helvetica,sans-Serif" font-size="10.00">tlx/define/deprecated.hpp</text>
</a>
</g>
</g>
<!-- Node1&#45;&gt;Node7 -->
<g id="edge6" class="edge"><title>Node1&#45;&gt;Node7</title>
<path fill="none" stroke="midnightblue" d="M485.088,-68.4035C521.89,-57.8886 584.311,-40.0539 625.094,-28.4016"/>
<polygon fill="midnightblue" stroke="midnightblue" points="626.314,-31.6932 634.968,-25.5806 624.391,-24.9625 626.314,-31.6932"/>
</g>
<!-- Node8 -->
<g id="node8" class="node"><title>Node8</title>
<g id="a_node8"><a xlink:href="endian_8hpp.html" target="_top" xlink:title="tlx/define/endian.hpp">
<polygon fill="none" stroke="black" points="746.5,-6.5 746.5,-25.5 853.5,-25.5 853.5,-6.5 746.5,-6.5"/>
<text text-anchor="middle" x="800" y="-13.5" font-family="Helvetica,sans-Serif" font-size="10.00">tlx/define/endian.hpp</text>
</a>
</g>
</g>
<!-- Node1&#45;&gt;Node8 -->
<g id="edge7" class="edge"><title>Node1&#45;&gt;Node8</title>
<path fill="none" stroke="midnightblue" d="M512.746,-69.0875C569.906,-60.9494 659.802,-47.3269 737,-32 743.224,-30.7643 749.766,-29.3444 756.182,-27.8816"/>
<polygon fill="midnightblue" stroke="midnightblue" points="757.156,-31.2485 766.099,-25.5679 755.566,-24.4315 757.156,-31.2485"/>
</g>
<!-- Node9 -->
<g id="node9" class="node"><title>Node9</title>
<g id="a_node9"><a xlink:href="likely_8hpp.html" target="_top" xlink:title="tlx/define/likely.hpp">
<polygon fill="none" stroke="black" points="871.5,-6.5 871.5,-25.5 972.5,-25.5 972.5,-6.5 871.5,-6.5"/>
<text text-anchor="middle" x="922" y="-13.5" font-family="Helvetica,sans-Serif" font-size="10.00">tlx/define/likely.hpp</text>
</a>
</g>
</g>
<!-- Node1&#45;&gt;Node9 -->
<g id="edge8" class="edge"><title>Node1&#45;&gt;Node9</title>
<path fill="none" stroke="midnightblue" d="M512.643,-73.0876C591.828,-67.1545 738.498,-54.1609 862,-32 868.311,-30.8675 874.943,-29.4471 881.403,-27.9348"/>
<polygon fill="midnightblue" stroke="midnightblue" points="882.454,-31.2809 891.34,-25.5107 880.796,-24.4803 882.454,-31.2809"/>
</g>
</g>
</svg>
