<?xml version="1.0" encoding="UTF-8" standalone="no"?>
<!DOCTYPE svg PUBLIC "-//W3C//DTD SVG 1.1//EN"
 "http://www.w3.org/Graphics/SVG/1.1/DTD/svg11.dtd">
<!-- Generated by graphviz version 2.40.1 (20161225.0304)
 -->
<!-- Title: extlib/tlx/tlx/delegate.hpp Pages: 1 -->
<svg width="441pt" height="84pt"
 viewBox="0.00 0.00 440.50 84.00" xmlns="http://www.w3.org/2000/svg" xmlns:xlink="http://www.w3.org/1999/xlink">
<g id="graph0" class="graph" transform="scale(1 1) rotate(0) translate(4 80)">
<title>extlib/tlx/tlx/delegate.hpp</title>
<!-- Node0 -->
<g id="node1" class="node">
<title>Node0</title>
<polygon fill="#bfbfbf" stroke="#000000" points="144.5,-56.5 144.5,-75.5 287.5,-75.5 287.5,-56.5 144.5,-56.5"/>
<text text-anchor="middle" x="216" y="-63.5" font-family="Helvetica,sans-Serif" font-size="10.00" fill="#000000">extlib/tlx/tlx/delegate.hpp</text>
</g>
<!-- Node1 -->
<g id="node2" class="node">
<title>Node1</title>
<polygon fill="none" stroke="#bfbfbf" points="0,-.5 0,-19.5 64,-19.5 64,-.5 0,-.5"/>
<text text-anchor="middle" x="32" y="-7.5" font-family="Helvetica,sans-Serif" font-size="10.00" fill="#000000">algorithm</text>
</g>
<!-- Node0&#45;&gt;Node1 -->
<g id="edge1" class="edge">
<title>Node0&#45;&gt;Node1</title>
<path fill="none" stroke="#191970" d="M184.3693,-56.3733C153.6404,-47.021 106.824,-32.7725 73.1978,-22.5385"/>
<polygon fill="#191970" stroke="#191970" points="73.8038,-19.0644 63.218,-19.5011 71.7656,-25.7612 73.8038,-19.0644"/>
</g>
<!-- Node2 -->
<g id="node3" class="node">
<title>Node2</title>
<polygon fill="none" stroke="#bfbfbf" points="82,-.5 82,-19.5 134,-19.5 134,-.5 82,-.5"/>
<text text-anchor="middle" x="108" y="-7.5" font-family="Helvetica,sans-Serif" font-size="10.00" fill="#000000">cassert</text>
</g>
<!-- Node0&#45;&gt;Node2 -->
<g id="edge2" class="edge">
<title>Node0&#45;&gt;Node2</title>
<path fill="none" stroke="#191970" d="M197.1878,-56.2455C180.1527,-47.4125 154.8425,-34.2887 135.5319,-24.2758"/>
<polygon fill="#191970" stroke="#191970" points="137.0853,-21.1388 126.5966,-19.6427 133.863,-27.353 137.0853,-21.1388"/>
</g>
<!-- Node3 -->
<g id="node4" class="node">
<title>Node3</title>
<polygon fill="none" stroke="#bfbfbf" points="152.5,-.5 152.5,-19.5 205.5,-19.5 205.5,-.5 152.5,-.5"/>
<text text-anchor="middle" x="179" y="-7.5" font-family="Helvetica,sans-Serif" font-size="10.00" fill="#000000">cstddef</text>
</g>
<!-- Node0&#45;&gt;Node3 -->
<g id="edge3" class="edge">
<title>Node0&#45;&gt;Node3</title>
<path fill="none" stroke="#191970" d="M209.5551,-56.2455C204.4618,-48.5367 197.2092,-37.5598 191.048,-28.2348"/>
<polygon fill="#191970" stroke="#191970" points="193.8038,-26.0566 185.3711,-19.6427 187.9635,-29.9155 193.8038,-26.0566"/>
</g>
<!-- Node4 -->
<g id="node5" class="node">
<title>Node4</title>
<polygon fill="none" stroke="#bfbfbf" points="224,-.5 224,-19.5 282,-19.5 282,-.5 224,-.5"/>
<text text-anchor="middle" x="253" y="-7.5" font-family="Helvetica,sans-Serif" font-size="10.00" fill="#000000">memory</text>
</g>
<!-- Node0&#45;&gt;Node4 -->
<g id="edge4" class="edge">
<title>Node0&#45;&gt;Node4</title>
<path fill="none" stroke="#191970" d="M222.4449,-56.2455C227.5382,-48.5367 234.7908,-37.5598 240.952,-28.2348"/>
<polygon fill="#191970" stroke="#191970" points="244.0365,-29.9155 246.6289,-19.6427 238.1962,-26.0566 244.0365,-29.9155"/>
</g>
<!-- Node5 -->
<g id="node6" class="node">
<title>Node5</title>
<polygon fill="none" stroke="#bfbfbf" points="300.5,-.5 300.5,-19.5 369.5,-19.5 369.5,-.5 300.5,-.5"/>
<text text-anchor="middle" x="335" y="-7.5" font-family="Helvetica,sans-Serif" font-size="10.00" fill="#000000">type_traits</text>
</g>
<!-- Node0&#45;&gt;Node5 -->
<g id="edge5" class="edge">
<title>Node0&#45;&gt;Node5</title>
<path fill="none" stroke="#191970" d="M236.4568,-56.3733C255.4738,-47.4241 284.0175,-33.9917 305.4976,-23.8835"/>
<polygon fill="#191970" stroke="#191970" points="307.2522,-26.926 314.8101,-19.5011 304.2716,-20.5923 307.2522,-26.926"/>
</g>
<!-- Node6 -->
<g id="node7" class="node">
<title>Node6</title>
<polygon fill="none" stroke="#bfbfbf" points="387.5,-.5 387.5,-19.5 432.5,-19.5 432.5,-.5 387.5,-.5"/>
<text text-anchor="middle" x="410" y="-7.5" font-family="Helvetica,sans-Serif" font-size="10.00" fill="#000000">utility</text>
</g>
<!-- Node0&#45;&gt;Node6 -->
<g id="edge6" class="edge">
<title>Node0&#45;&gt;Node6</title>
<path fill="none" stroke="#191970" d="M251.4036,-56.415C282.427,-47.9258 328.9596,-34.9764 377.5927,-20.36"/>
<polygon fill="#191970" stroke="#191970" points="378.7823,-23.6569 387.3434,-17.4153 376.7585,-16.9559 378.7823,-23.6569"/>
</g>
</g>
</svg>
