<?xml version="1.0" encoding="UTF-8" standalone="no"?>
<!DOCTYPE svg PUBLIC "-//W3C//DTD SVG 1.1//EN"
 "http://www.w3.org/Graphics/SVG/1.1/DTD/svg11.dtd">
<!-- Generated by graphviz version 2.26.3 (20100126.1600)
 -->
<!-- Title: extlib/tlx/tlx/die.cpp Pages: 1 -->
<svg width="236pt" height="146pt"
 viewBox="0.00 0.00 236.00 146.00" xmlns="http://www.w3.org/2000/svg" xmlns:xlink="http://www.w3.org/1999/xlink">
<g id="graph1" class="graph" transform="scale(1 1) rotate(0) translate(4 142)">
<title>extlib/tlx/tlx/die.cpp</title>
<!-- Node1 -->
<g id="node1" class="node"><title>Node1</title>
<polygon fill="#bfbfbf" stroke="black" points="95.5,-116.5 95.5,-137.5 196.5,-137.5 196.5,-116.5 95.5,-116.5"/>
<text text-anchor="middle" x="146" y="-124.5" font-family="Helvetica,sans-Serif" font-size="10.00">extlib/tlx/tlx/die.cpp</text>
</g>
<!-- Node2 -->
<g id="node3" class="node"><title>Node2</title>
<a xlink:href="die_8hpp.html" target="_top" xlink:title="tlx/die.hpp">
<polygon fill="none" stroke="black" points="54,-58.5 54,-79.5 116,-79.5 116,-58.5 54,-58.5"/>
<text text-anchor="middle" x="85" y="-66.5" font-family="Helvetica,sans-Serif" font-size="10.00">tlx/die.hpp</text>
</a>
</g>
<!-- Node1&#45;&gt;Node2 -->
<g id="edge2" class="edge"><title>Node1&#45;&gt;Node2</title>
<path fill="none" stroke="midnightblue" d="M134.812,-116.362C126.041,-108.023 113.651,-96.2418 103.422,-86.5162"/>
<polygon fill="midnightblue" stroke="midnightblue" points="105.776,-83.9248 96.1174,-79.5707 100.953,-88.9978 105.776,-83.9248"/>
</g>
<!-- Node4 -->
<g id="node7" class="node"><title>Node4</title>
<polygon fill="none" stroke="#bfbfbf" points="122,-0.5 122,-21.5 174,-21.5 174,-0.5 122,-0.5"/>
<text text-anchor="middle" x="148" y="-8.5" font-family="Helvetica,sans-Serif" font-size="10.00">sstream</text>
</g>
<!-- Node1&#45;&gt;Node4 -->
<g id="edge12" class="edge"><title>Node1&#45;&gt;Node4</title>
<path fill="none" stroke="midnightblue" d="M146.185,-116.295C146.515,-97.1314 147.213,-56.654 147.641,-31.8434"/>
<polygon fill="midnightblue" stroke="midnightblue" points="151.143,-31.7381 147.816,-21.6792 144.144,-31.6173 151.143,-31.7381"/>
</g>
<!-- Node6 -->
<g id="node11" class="node"><title>Node6</title>
<polygon fill="none" stroke="#bfbfbf" points="174,-58.5 174,-79.5 228,-79.5 228,-58.5 174,-58.5"/>
<text text-anchor="middle" x="201" y="-66.5" font-family="Helvetica,sans-Serif" font-size="10.00">iostream</text>
</g>
<!-- Node1&#45;&gt;Node6 -->
<g id="edge10" class="edge"><title>Node1&#45;&gt;Node6</title>
<path fill="none" stroke="midnightblue" d="M156.088,-116.362C163.841,-108.186 174.73,-96.7025 183.845,-87.0907"/>
<polygon fill="midnightblue" stroke="midnightblue" points="186.635,-89.2352 190.976,-79.5707 181.555,-84.4186 186.635,-89.2352"/>
</g>
<!-- Node3 -->
<g id="node5" class="node"><title>Node3</title>
<polygon fill="none" stroke="#bfbfbf" points="0,-0.5 0,-21.5 46,-21.5 46,-0.5 0,-0.5"/>
<text text-anchor="middle" x="23" y="-8.5" font-family="Helvetica,sans-Serif" font-size="10.00">cstring</text>
</g>
<!-- Node2&#45;&gt;Node3 -->
<g id="edge4" class="edge"><title>Node2&#45;&gt;Node3</title>
<path fill="none" stroke="midnightblue" d="M73.6282,-58.3619C64.7138,-50.0226 52.1206,-38.2418 41.7243,-28.5162"/>
<polygon fill="midnightblue" stroke="midnightblue" points="43.9935,-25.8463 34.2997,-21.5707 39.2113,-30.9582 43.9935,-25.8463"/>
</g>
<!-- Node2&#45;&gt;Node4 -->
<g id="edge6" class="edge"><title>Node2&#45;&gt;Node4</title>
<path fill="none" stroke="midnightblue" d="M96.5552,-58.3619C105.613,-50.0226 118.41,-38.2418 128.974,-28.5162"/>
<polygon fill="midnightblue" stroke="midnightblue" points="131.532,-30.9187 136.518,-21.5707 126.79,-25.7688 131.532,-30.9187"/>
</g>
<!-- Node5 -->
<g id="node9" class="node"><title>Node5</title>
<polygon fill="none" stroke="#bfbfbf" points="63.5,-0.5 63.5,-21.5 104.5,-21.5 104.5,-0.5 63.5,-0.5"/>
<text text-anchor="middle" x="84" y="-8.5" font-family="Helvetica,sans-Serif" font-size="10.00">string</text>
</g>
<!-- Node2&#45;&gt;Node5 -->
<g id="edge8" class="edge"><title>Node2&#45;&gt;Node5</title>
<path fill="none" stroke="midnightblue" d="M84.8166,-58.3619C84.6883,-50.9219 84.5128,-40.7427 84.3574,-31.7276"/>
<polygon fill="midnightblue" stroke="midnightblue" points="87.8542,-31.5088 84.1823,-21.5707 80.8553,-31.6295 87.8542,-31.5088"/>
</g>
</g>
</svg>
