<?xml version="1.0" encoding="UTF-8" standalone="no"?>
<!DOCTYPE svg PUBLIC "-//W3C//DTD SVG 1.1//EN"
 "http://www.w3.org/Graphics/SVG/1.1/DTD/svg11.dtd">
<!-- Generated by graphviz version 2.36.0 (20140111.2315)
 -->
<!-- Title: extlib/foxxll/foxxll/common/die_with_message.hpp Pages: 1 -->
<svg width="260pt" height="152pt"
 viewBox="0.00 0.00 260.00 152.00" xmlns="http://www.w3.org/2000/svg" xmlns:xlink="http://www.w3.org/1999/xlink">
<g id="graph0" class="graph" transform="scale(1 1) rotate(0) translate(4 148)">
<title>extlib/foxxll/foxxll/common/die_with_message.hpp</title>
<!-- Node1 -->
<g id="node1" class="node"><title>Node1</title>
<polygon fill="#bfbfbf" stroke="black" points="47,-113 47,-143 207,-143 207,-113 47,-113"/>
<text text-anchor="start" x="55" y="-131" font-family="Helvetica,sans-Serif" font-size="10.00">extlib/foxxll/foxxll</text>
<text text-anchor="middle" x="127" y="-120" font-family="Helvetica,sans-Serif" font-size="10.00">/common/die_with_message.hpp</text>
</g>
<!-- Node2 -->
<g id="node2" class="node"><title>Node2</title>
<g id="a_node2"><a xlink:href="die_2core_8hpp.html" target="_top" xlink:title="tlx/die/core.hpp">
<polygon fill="none" stroke="black" points="85.5,-56.5 85.5,-75.5 168.5,-75.5 168.5,-56.5 85.5,-56.5"/>
<text text-anchor="middle" x="127" y="-63.5" font-family="Helvetica,sans-Serif" font-size="10.00">tlx/die/core.hpp</text>
</a>
</g>
</g>
<!-- Node1&#45;&gt;Node2 -->
<g id="edge1" class="edge"><title>Node1&#45;&gt;Node2</title>
<path fill="none" stroke="midnightblue" d="M127,-112.781C127,-104.781 127,-94.6887 127,-86.0168"/>
<polygon fill="midnightblue" stroke="midnightblue" points="130.5,-85.7305 127,-75.7305 123.5,-85.7306 130.5,-85.7305"/>
</g>
<!-- Node3 -->
<g id="node3" class="node"><title>Node3</title>
<polygon fill="none" stroke="#bfbfbf" points="0,-0.5 0,-19.5 46,-19.5 46,-0.5 0,-0.5"/>
<text text-anchor="middle" x="23" y="-7.5" font-family="Helvetica,sans-Serif" font-size="10.00">cstring</text>
</g>
<!-- Node2&#45;&gt;Node3 -->
<g id="edge2" class="edge"><title>Node2&#45;&gt;Node3</title>
<path fill="none" stroke="midnightblue" d="M110.291,-56.324C93.6881,-47.7034 67.9979,-34.3643 48.7795,-24.3855"/>
<polygon fill="midnightblue" stroke="midnightblue" points="50.1558,-21.1565 39.6679,-19.6545 46.93,-27.3689 50.1558,-21.1565"/>
</g>
<!-- Node4 -->
<g id="node4" class="node"><title>Node4</title>
<polygon fill="none" stroke="#bfbfbf" points="64,-0.5 64,-19.5 116,-19.5 116,-0.5 64,-0.5"/>
<text text-anchor="middle" x="90" y="-7.5" font-family="Helvetica,sans-Serif" font-size="10.00">sstream</text>
</g>
<!-- Node2&#45;&gt;Node4 -->
<g id="edge3" class="edge"><title>Node2&#45;&gt;Node4</title>
<path fill="none" stroke="midnightblue" d="M120.89,-56.083C115.718,-48.5341 108.154,-37.4948 101.806,-28.2298"/>
<polygon fill="midnightblue" stroke="midnightblue" points="104.536,-26.0221 95.9961,-19.7511 98.7612,-29.9787 104.536,-26.0221"/>
</g>
<!-- Node5 -->
<g id="node5" class="node"><title>Node5</title>
<polygon fill="none" stroke="#bfbfbf" points="134.5,-0.5 134.5,-19.5 193.5,-19.5 193.5,-0.5 134.5,-0.5"/>
<text text-anchor="middle" x="164" y="-7.5" font-family="Helvetica,sans-Serif" font-size="10.00">stdexcept</text>
</g>
<!-- Node2&#45;&gt;Node5 -->
<g id="edge4" class="edge"><title>Node2&#45;&gt;Node5</title>
<path fill="none" stroke="midnightblue" d="M133.11,-56.083C138.282,-48.5341 145.846,-37.4948 152.194,-28.2298"/>
<polygon fill="midnightblue" stroke="midnightblue" points="155.239,-29.9787 158.004,-19.7511 149.464,-26.0221 155.239,-29.9787"/>
</g>
<!-- Node6 -->
<g id="node6" class="node"><title>Node6</title>
<polygon fill="none" stroke="#bfbfbf" points="211.5,-0.5 211.5,-19.5 252.5,-19.5 252.5,-0.5 211.5,-0.5"/>
<text text-anchor="middle" x="232" y="-7.5" font-family="Helvetica,sans-Serif" font-size="10.00">string</text>
</g>
<!-- Node2&#45;&gt;Node6 -->
<g id="edge5" class="edge"><title>Node2&#45;&gt;Node6</title>
<path fill="none" stroke="midnightblue" d="M143.87,-56.324C160.709,-47.6641 186.807,-34.2424 206.238,-24.249"/>
<polygon fill="midnightblue" stroke="midnightblue" points="207.88,-27.3405 215.172,-19.6545 204.678,-21.1155 207.88,-27.3405"/>
</g>
</g>
</svg>
