<?xml version="1.0" encoding="UTF-8" standalone="no"?>
<!DOCTYPE svg PUBLIC "-//W3C//DTD SVG 1.1//EN"
 "http://www.w3.org/Graphics/SVG/1.1/DTD/svg11.dtd">
<!-- Generated by graphviz version 2.40.1 (20161225.0304)
 -->
<!-- Title: extlib/tlx/tlx/digest.hpp Pages: 1 -->
<svg width="524pt" height="140pt"
 viewBox="0.00 0.00 524.00 140.00" xmlns="http://www.w3.org/2000/svg" xmlns:xlink="http://www.w3.org/1999/xlink">
<g id="graph0" class="graph" transform="scale(1 1) rotate(0) translate(4 136)">
<title>extlib/tlx/tlx/digest.hpp</title>
<!-- Node0 -->
<g id="node1" class="node">
<title>Node0</title>
<polygon fill="#bfbfbf" stroke="#000000" points="202,-112.5 202,-131.5 332,-131.5 332,-112.5 202,-112.5"/>
<text text-anchor="middle" x="267" y="-119.5" font-family="Helvetica,sans-Serif" font-size="10.00" fill="#000000">extlib/tlx/tlx/digest.hpp</text>
</g>
<!-- Node1 -->
<g id="node2" class="node">
<title>Node1</title>
<g id="a_node2"><a xlink:href="md5_8hpp.html" target="_top" xlink:title="tlx/digest/md5.hpp">
<polygon fill="none" stroke="#000000" points="280,-56.5 280,-75.5 388,-75.5 388,-56.5 280,-56.5"/>
<text text-anchor="middle" x="334" y="-63.5" font-family="Helvetica,sans-Serif" font-size="10.00" fill="#000000">tlx/digest/md5.hpp</text>
</a>
</g>
</g>
<!-- Node0&#45;&gt;Node1 -->
<g id="edge1" class="edge">
<title>Node0&#45;&gt;Node1</title>
<path fill="none" stroke="#191970" d="M278.6705,-112.2455C288.5661,-103.9746 302.9627,-91.9416 314.5901,-82.2232"/>
<polygon fill="#191970" stroke="#191970" points="317.035,-84.7413 322.4632,-75.6427 312.5458,-79.3703 317.035,-84.7413"/>
</g>
<!-- Node4 -->
<g id="node5" class="node">
<title>Node4</title>
<g id="a_node5"><a xlink:href="sha1_8hpp.html" target="_top" xlink:title="tlx/digest/sha1.hpp">
<polygon fill="none" stroke="#000000" points="406,-56.5 406,-75.5 516,-75.5 516,-56.5 406,-56.5"/>
<text text-anchor="middle" x="461" y="-63.5" font-family="Helvetica,sans-Serif" font-size="10.00" fill="#000000">tlx/digest/sha1.hpp</text>
</a>
</g>
</g>
<!-- Node0&#45;&gt;Node4 -->
<g id="edge4" class="edge">
<title>Node0&#45;&gt;Node4</title>
<path fill="none" stroke="#191970" d="M300.3498,-112.3733C333.028,-102.9404 382.9618,-88.5265 418.477,-78.2747"/>
<polygon fill="#191970" stroke="#191970" points="419.4484,-81.6373 428.0854,-75.5011 417.507,-74.9119 419.4484,-81.6373"/>
</g>
<!-- Node5 -->
<g id="node6" class="node">
<title>Node5</title>
<g id="a_node6"><a xlink:href="sha256_8hpp.html" target="_top" xlink:title="tlx/digest/sha256.hpp">
<polygon fill="none" stroke="#000000" points="0,-56.5 0,-75.5 122,-75.5 122,-56.5 0,-56.5"/>
<text text-anchor="middle" x="61" y="-63.5" font-family="Helvetica,sans-Serif" font-size="10.00" fill="#000000">tlx/digest/sha256.hpp</text>
</a>
</g>
</g>
<!-- Node0&#45;&gt;Node5 -->
<g id="edge7" class="edge">
<title>Node0&#45;&gt;Node5</title>
<path fill="none" stroke="#191970" d="M231.5873,-112.3733C196.7395,-102.9001 143.4118,-88.4032 105.6707,-78.1435"/>
<polygon fill="#191970" stroke="#191970" points="106.5185,-74.747 95.9506,-75.5011 104.6822,-81.5019 106.5185,-74.747"/>
</g>
<!-- Node6 -->
<g id="node7" class="node">
<title>Node6</title>
<g id="a_node7"><a xlink:href="sha512_8hpp.html" target="_top" xlink:title="tlx/digest/sha512.hpp">
<polygon fill="none" stroke="#000000" points="140,-56.5 140,-75.5 262,-75.5 262,-56.5 140,-56.5"/>
<text text-anchor="middle" x="201" y="-63.5" font-family="Helvetica,sans-Serif" font-size="10.00" fill="#000000">tlx/digest/sha512.hpp</text>
</a>
</g>
</g>
<!-- Node0&#45;&gt;Node6 -->
<g id="edge10" class="edge">
<title>Node0&#45;&gt;Node6</title>
<path fill="none" stroke="#191970" d="M255.5037,-112.2455C245.7558,-103.9746 231.5741,-91.9416 220.1202,-82.2232"/>
<polygon fill="#191970" stroke="#191970" points="222.2541,-79.4437 212.3646,-75.6427 217.7253,-84.7813 222.2541,-79.4437"/>
</g>
<!-- Node2 -->
<g id="node3" class="node">
<title>Node2</title>
<polygon fill="none" stroke="#bfbfbf" points="193,-.5 193,-19.5 243,-19.5 243,-.5 193,-.5"/>
<text text-anchor="middle" x="218" y="-7.5" font-family="Helvetica,sans-Serif" font-size="10.00" fill="#000000">cstdint</text>
</g>
<!-- Node1&#45;&gt;Node2 -->
<g id="edge2" class="edge">
<title>Node1&#45;&gt;Node2</title>
<path fill="none" stroke="#191970" d="M314.0589,-56.3733C295.5214,-47.4241 267.6972,-33.9917 246.7587,-23.8835"/>
<polygon fill="#191970" stroke="#191970" points="248.2081,-20.6967 237.6809,-19.5011 245.1648,-27.0006 248.2081,-20.6967"/>
</g>
<!-- Node3 -->
<g id="node4" class="node">
<title>Node3</title>
<polygon fill="none" stroke="#bfbfbf" points="295,-.5 295,-19.5 339,-19.5 339,-.5 295,-.5"/>
<text text-anchor="middle" x="317" y="-7.5" font-family="Helvetica,sans-Serif" font-size="10.00" fill="#000000">string</text>
</g>
<!-- Node1&#45;&gt;Node3 -->
<g id="edge3" class="edge">
<title>Node1&#45;&gt;Node3</title>
<path fill="none" stroke="#191970" d="M331.0388,-56.2455C328.7962,-48.8579 325.6423,-38.4689 322.8919,-29.4087"/>
<polygon fill="#191970" stroke="#191970" points="326.1812,-28.1948 319.9272,-19.6427 319.483,-30.2282 326.1812,-28.1948"/>
</g>
<!-- Node4&#45;&gt;Node2 -->
<g id="edge5" class="edge">
<title>Node4&#45;&gt;Node2</title>
<path fill="none" stroke="#191970" d="M419.5029,-56.4369C372.6939,-45.6496 297.366,-28.2901 253.2806,-18.1305"/>
<polygon fill="#191970" stroke="#191970" points="253.8415,-14.6681 243.3109,-15.833 252.2695,-21.4893 253.8415,-14.6681"/>
</g>
<!-- Node4&#45;&gt;Node3 -->
<g id="edge6" class="edge">
<title>Node4&#45;&gt;Node3</title>
<path fill="none" stroke="#191970" d="M436.2455,-56.3733C412.0021,-46.9453 374.9637,-32.5414 348.6045,-22.2906"/>
<polygon fill="#191970" stroke="#191970" points="349.6625,-18.9468 339.0739,-18.5843 347.1253,-25.4708 349.6625,-18.9468"/>
</g>
<!-- Node5&#45;&gt;Node2 -->
<g id="edge8" class="edge">
<title>Node5&#45;&gt;Node2</title>
<path fill="none" stroke="#191970" d="M87.9893,-56.3733C114.3405,-46.9741 154.5567,-32.6295 183.2784,-22.3848"/>
<polygon fill="#191970" stroke="#191970" points="184.6738,-25.6031 192.9167,-18.9469 182.322,-19.01 184.6738,-25.6031"/>
</g>
<!-- Node5&#45;&gt;Node3 -->
<g id="edge9" class="edge">
<title>Node5&#45;&gt;Node3</title>
<path fill="none" stroke="#191970" d="M104.7171,-56.4369C155.8567,-45.2501 239.3074,-26.9953 284.8536,-17.032"/>
<polygon fill="#191970" stroke="#191970" points="285.7529,-20.4182 294.7739,-14.862 284.2569,-13.5799 285.7529,-20.4182"/>
</g>
<!-- Node6&#45;&gt;Node2 -->
<g id="edge11" class="edge">
<title>Node6&#45;&gt;Node2</title>
<path fill="none" stroke="#191970" d="M203.9612,-56.2455C206.2038,-48.8579 209.3577,-38.4689 212.1081,-29.4087"/>
<polygon fill="#191970" stroke="#191970" points="215.517,-30.2282 215.0728,-19.6427 208.8188,-28.1948 215.517,-30.2282"/>
</g>
<!-- Node6&#45;&gt;Node3 -->
<g id="edge12" class="edge">
<title>Node6&#45;&gt;Node3</title>
<path fill="none" stroke="#191970" d="M220.9411,-56.3733C239.4786,-47.4241 267.3028,-33.9917 288.2413,-23.8835"/>
<polygon fill="#191970" stroke="#191970" points="289.8352,-27.0006 297.3191,-19.5011 286.7919,-20.6967 289.8352,-27.0006"/>
</g>
</g>
</svg>
