<?xml version="1.0" encoding="UTF-8" standalone="no"?>
<!DOCTYPE svg PUBLIC "-//W3C//DTD SVG 1.1//EN"
 "http://www.w3.org/Graphics/SVG/1.1/DTD/svg11.dtd">
<!-- Generated by graphviz version 2.26.3 (20100126.1600)
 -->
<!-- Title: thrill/io/disk_queued_file.hpp Pages: 1 -->
<svg width="1488pt" height="260pt"
 viewBox="0.00 0.00 1488.00 260.00" xmlns="http://www.w3.org/2000/svg" xmlns:xlink="http://www.w3.org/1999/xlink">
<g id="graph1" class="graph" transform="scale(1 1) rotate(0) translate(4 256)">
<title>thrill/io/disk_queued_file.hpp</title>
<!-- Node1 -->
<g id="node1" class="node"><title>Node1</title>
<polygon fill="#bfbfbf" stroke="black" points="1037.5,-217 1037.5,-251 1140.5,-251 1140.5,-217 1037.5,-217"/>
<text text-anchor="start" x="1045.5" y="-238" font-family="Helvetica,sans-Serif" font-size="10.00">thrill/io/disk_queued</text>
<text text-anchor="middle" x="1089" y="-225" font-family="Helvetica,sans-Serif" font-size="10.00">_file.hpp</text>
</g>
<!-- Node2 -->
<g id="node3" class="node"><title>Node2</title>
<a xlink:href="syscall__file_8hpp.html" target="_top" xlink:title="thrill/io/syscall_file.hpp">
<polygon fill="none" stroke="black" points="828,-151.5 828,-172.5 944,-172.5 944,-151.5 828,-151.5"/>
<text text-anchor="middle" x="886" y="-159.5" font-family="Helvetica,sans-Serif" font-size="10.00">thrill/io/syscall_file.hpp</text>
</a>
</g>
<!-- Node1&#45;&gt;Node2 -->
<g id="edge2" class="edge"><title>Node1&#45;&gt;Node2</title>
<path fill="none" stroke="midnightblue" d="M1031.07,-213.452C993.466,-200.116 946.02,-183.288 915.836,-172.582"/>
<polygon fill="midnightblue" stroke="midnightblue" points="1030.3,-216.893 1040.89,-216.937 1032.64,-210.296 1030.3,-216.893"/>
</g>
<!-- Node13 -->
<g id="node25" class="node"><title>Node13</title>
<a xlink:href="linuxaio__file_8hpp.html" target="_top" xlink:title="thrill/io/linuxaio\l_file.hpp">
<polygon fill="none" stroke="black" points="246.5,-145 246.5,-179 327.5,-179 327.5,-145 246.5,-145"/>
<text text-anchor="start" x="254.5" y="-166" font-family="Helvetica,sans-Serif" font-size="10.00">thrill/io/linuxaio</text>
<text text-anchor="middle" x="287" y="-153" font-family="Helvetica,sans-Serif" font-size="10.00">_file.hpp</text>
</a>
</g>
<!-- Node1&#45;&gt;Node13 -->
<g id="edge24" class="edge"><title>Node1&#45;&gt;Node13</title>
<path fill="none" stroke="midnightblue" d="M1027.33,-228.464C870.3,-214.366 458.494,-177.396 327.575,-165.643"/>
<polygon fill="midnightblue" stroke="midnightblue" points="1027.03,-231.951 1037.3,-229.359 1027.66,-224.979 1027.03,-231.951"/>
</g>
<!-- Node20 -->
<g id="node42" class="node"><title>Node20</title>
<a xlink:href="memory__file_8hpp.html" target="_top" xlink:title="thrill/io/memory_file.hpp">
<polygon fill="none" stroke="black" points="962,-151.5 962,-172.5 1082,-172.5 1082,-151.5 962,-151.5"/>
<text text-anchor="middle" x="1022" y="-159.5" font-family="Helvetica,sans-Serif" font-size="10.00">thrill/io/memory_file.hpp</text>
</a>
</g>
<!-- Node1&#45;&gt;Node20 -->
<g id="edge44" class="edge"><title>Node1&#45;&gt;Node20</title>
<path fill="none" stroke="midnightblue" d="M1066.22,-209.516C1054.64,-197.073 1041.15,-182.579 1032.14,-172.901"/>
<polygon fill="midnightblue" stroke="midnightblue" points="1063.75,-212.001 1073.12,-216.937 1068.87,-207.232 1063.75,-212.001"/>
</g>
<!-- Node22 -->
<g id="node47" class="node"><title>Node22</title>
<a xlink:href="mmap__file_8hpp.html" target="_top" xlink:title="thrill/io/mmap_file.hpp">
<polygon fill="none" stroke="black" points="1100,-151.5 1100,-172.5 1212,-172.5 1212,-151.5 1100,-151.5"/>
<text text-anchor="middle" x="1156" y="-159.5" font-family="Helvetica,sans-Serif" font-size="10.00">thrill/io/mmap_file.hpp</text>
</a>
</g>
<!-- Node1&#45;&gt;Node22 -->
<g id="edge50" class="edge"><title>Node1&#45;&gt;Node22</title>
<path fill="none" stroke="midnightblue" d="M1111.78,-209.516C1123.36,-197.073 1136.85,-182.579 1145.86,-172.901"/>
<polygon fill="midnightblue" stroke="midnightblue" points="1109.13,-207.232 1104.88,-216.937 1114.25,-212.001 1109.13,-207.232"/>
</g>
<!-- Node24 -->
<g id="node52" class="node"><title>Node24</title>
<a xlink:href="disk__queued__file_8cpp.html" target="_top" xlink:title="thrill/io/disk_queued\l_file.cpp">
<polygon fill="none" stroke="black" points="1229.5,-145 1229.5,-179 1332.5,-179 1332.5,-145 1229.5,-145"/>
<text text-anchor="start" x="1237.5" y="-166" font-family="Helvetica,sans-Serif" font-size="10.00">thrill/io/disk_queued</text>
<text text-anchor="middle" x="1281" y="-153" font-family="Helvetica,sans-Serif" font-size="10.00">_file.cpp</text>
</a>
</g>
<!-- Node1&#45;&gt;Node24 -->
<g id="edge56" class="edge"><title>Node1&#45;&gt;Node24</title>
<path fill="none" stroke="midnightblue" d="M1144.07,-213.35C1173.02,-202.491 1208.09,-189.34 1235.49,-179.065"/>
<polygon fill="midnightblue" stroke="midnightblue" points="1142.64,-210.149 1134.5,-216.937 1145.09,-216.703 1142.64,-210.149"/>
</g>
<!-- Node25 -->
<g id="node54" class="node"><title>Node25</title>
<a xlink:href="wincall__file_8hpp.html" target="_top" xlink:title="thrill/io/wincall_file.hpp">
<polygon fill="none" stroke="black" points="1355.5,-151.5 1355.5,-172.5 1470.5,-172.5 1470.5,-151.5 1355.5,-151.5"/>
<text text-anchor="middle" x="1413" y="-159.5" font-family="Helvetica,sans-Serif" font-size="10.00">thrill/io/wincall_file.hpp</text>
</a>
</g>
<!-- Node1&#45;&gt;Node25 -->
<g id="edge58" class="edge"><title>Node1&#45;&gt;Node25</title>
<path fill="none" stroke="midnightblue" d="M1150.65,-221.397C1201.75,-210.805 1276.24,-195.03 1341,-180 1351.04,-177.67 1361.84,-175.038 1371.94,-172.521"/>
<polygon fill="midnightblue" stroke="midnightblue" points="1149.84,-217.991 1140.76,-223.444 1151.26,-224.846 1149.84,-217.991"/>
</g>
<!-- Node3 -->
<g id="node5" class="node"><title>Node3</title>
<a xlink:href="read__binary_8hpp.html" target="_top" xlink:title="thrill/api/read_binary.hpp">
<polygon fill="none" stroke="black" points="825,-79.5 825,-100.5 947,-100.5 947,-79.5 825,-79.5"/>
<text text-anchor="middle" x="886" y="-87.5" font-family="Helvetica,sans-Serif" font-size="10.00">thrill/api/read_binary.hpp</text>
</a>
</g>
<!-- Node2&#45;&gt;Node3 -->
<g id="edge4" class="edge"><title>Node2&#45;&gt;Node3</title>
<path fill="none" stroke="midnightblue" d="M886,-141.235C886,-127.969 886,-111.319 886,-100.667"/>
<polygon fill="midnightblue" stroke="midnightblue" points="882.5,-141.376 886,-151.376 889.5,-141.376 882.5,-141.376"/>
</g>
<!-- Node11 -->
<g id="node21" class="node"><title>Node11</title>
<a xlink:href="create__file_8cpp.html" target="_top" xlink:title="thrill/io/create_file.cpp">
<polygon fill="none" stroke="black" points="965,-79.5 965,-100.5 1077,-100.5 1077,-79.5 965,-79.5"/>
<text text-anchor="middle" x="1021" y="-87.5" font-family="Helvetica,sans-Serif" font-size="10.00">thrill/io/create_file.cpp</text>
</a>
</g>
<!-- Node2&#45;&gt;Node11 -->
<g id="edge20" class="edge"><title>Node2&#45;&gt;Node11</title>
<path fill="none" stroke="midnightblue" d="M914.909,-146.582C940.846,-132.749 978.231,-112.81 1001,-100.667"/>
<polygon fill="midnightblue" stroke="midnightblue" points="913.096,-143.582 905.92,-151.376 916.39,-149.758 913.096,-143.582"/>
</g>
<!-- Node12 -->
<g id="node23" class="node"><title>Node12</title>
<a xlink:href="syscall__file_8cpp.html" target="_top" xlink:title="thrill/io/syscall_file.cpp">
<polygon fill="none" stroke="black" points="691,-79.5 691,-100.5 807,-100.5 807,-79.5 691,-79.5"/>
<text text-anchor="middle" x="749" y="-87.5" font-family="Helvetica,sans-Serif" font-size="10.00">thrill/io/syscall_file.cpp</text>
</a>
</g>
<!-- Node2&#45;&gt;Node12 -->
<g id="edge22" class="edge"><title>Node2&#45;&gt;Node12</title>
<path fill="none" stroke="midnightblue" d="M856.662,-146.582C830.341,-132.749 792.402,-112.81 769.298,-100.667"/>
<polygon fill="midnightblue" stroke="midnightblue" points="855.305,-149.822 865.785,-151.376 858.561,-143.626 855.305,-149.822"/>
</g>
<!-- Node4 -->
<g id="node7" class="node"><title>Node4</title>
<a xlink:href="thrill_8hpp.html" target="_top" xlink:title="thrill/thrill.hpp">
<polygon fill="none" stroke="black" points="1406,-7.5 1406,-28.5 1480,-28.5 1480,-7.5 1406,-7.5"/>
<text text-anchor="middle" x="1443" y="-15.5" font-family="Helvetica,sans-Serif" font-size="10.00">thrill/thrill.hpp</text>
</a>
</g>
<!-- Node3&#45;&gt;Node4 -->
<g id="edge6" class="edge"><title>Node3&#45;&gt;Node4</title>
<path fill="none" stroke="midnightblue" d="M931.969,-76.9942C939.933,-75.0821 948.169,-73.3166 956,-72 1149.93,-39.3947 1205.4,-80.2997 1397,-36 1404.69,-34.2227 1412.79,-31.3981 1420.02,-28.5085"/>
<polygon fill="midnightblue" stroke="midnightblue" points="930.929,-73.6465 922.08,-79.4719 932.63,-80.4367 930.929,-73.6465"/>
</g>
<!-- Node5 -->
<g id="node9" class="node"><title>Node5</title>
<a xlink:href="rl__bwt_8cpp.html" target="_top" xlink:title="examples/suffix_sorting\l/rl_bwt.cpp">
<polygon fill="none" stroke="black" points="550,-1 550,-35 670,-35 670,-1 550,-1"/>
<text text-anchor="start" x="558" y="-22" font-family="Helvetica,sans-Serif" font-size="10.00">examples/suffix_sorting</text>
<text text-anchor="middle" x="610" y="-9" font-family="Helvetica,sans-Serif" font-size="10.00">/rl_bwt.cpp</text>
</a>
</g>
<!-- Node3&#45;&gt;Node5 -->
<g id="edge8" class="edge"><title>Node3&#45;&gt;Node5</title>
<path fill="none" stroke="midnightblue" d="M835.697,-76.8775C789.089,-64.7189 719.694,-46.6158 670.169,-33.6964"/>
<polygon fill="midnightblue" stroke="midnightblue" points="835.012,-80.3158 845.572,-79.4535 836.779,-73.5425 835.012,-80.3158"/>
</g>
<!-- Node6 -->
<g id="node11" class="node"><title>Node6</title>
<a xlink:href="suffix__sorting_8cpp.html" target="_top" xlink:title="examples/suffix_sorting\l/suffix_sorting.cpp">
<polygon fill="none" stroke="black" points="688,-1 688,-35 808,-35 808,-1 688,-1"/>
<text text-anchor="start" x="696" y="-22" font-family="Helvetica,sans-Serif" font-size="10.00">examples/suffix_sorting</text>
<text text-anchor="middle" x="748" y="-9" font-family="Helvetica,sans-Serif" font-size="10.00">/suffix_sorting.cpp</text>
</a>
</g>
<!-- Node3&#45;&gt;Node6 -->
<g id="edge10" class="edge"><title>Node3&#45;&gt;Node6</title>
<path fill="none" stroke="midnightblue" d="M856.657,-74.6904C834.403,-63.0796 803.817,-47.1217 780.764,-35.0944"/>
<polygon fill="midnightblue" stroke="midnightblue" points="855.153,-77.8535 865.638,-79.3762 858.391,-71.6474 855.153,-77.8535"/>
</g>
<!-- Node7 -->
<g id="node13" class="node"><title>Node7</title>
<a xlink:href="wavelet__tree_8cpp.html" target="_top" xlink:title="examples/suffix_sorting\l/wavelet_tree.cpp">
<polygon fill="none" stroke="black" points="826,-1 826,-35 946,-35 946,-1 826,-1"/>
<text text-anchor="start" x="834" y="-22" font-family="Helvetica,sans-Serif" font-size="10.00">examples/suffix_sorting</text>
<text text-anchor="middle" x="886" y="-9" font-family="Helvetica,sans-Serif" font-size="10.00">/wavelet_tree.cpp</text>
</a>
</g>
<!-- Node3&#45;&gt;Node7 -->
<g id="edge12" class="edge"><title>Node3&#45;&gt;Node7</title>
<path fill="none" stroke="midnightblue" d="M886,-69.1318C886,-58.3258 886,-45.2961 886,-35.0944"/>
<polygon fill="midnightblue" stroke="midnightblue" points="882.5,-69.3761 886,-79.3762 889.5,-69.3762 882.5,-69.3761"/>
</g>
<!-- Node8 -->
<g id="node15" class="node"><title>Node8</title>
<a xlink:href="wavelet__tree2_8cpp.html" target="_top" xlink:title="examples/suffix_sorting\l/wavelet_tree2.cpp">
<polygon fill="none" stroke="black" points="964,-1 964,-35 1084,-35 1084,-1 964,-1"/>
<text text-anchor="start" x="972" y="-22" font-family="Helvetica,sans-Serif" font-size="10.00">examples/suffix_sorting</text>
<text text-anchor="middle" x="1024" y="-9" font-family="Helvetica,sans-Serif" font-size="10.00">/wavelet_tree2.cpp</text>
</a>
</g>
<!-- Node3&#45;&gt;Node8 -->
<g id="edge14" class="edge"><title>Node3&#45;&gt;Node8</title>
<path fill="none" stroke="midnightblue" d="M915.343,-74.6904C937.597,-63.0796 968.183,-47.1217 991.236,-35.0944"/>
<polygon fill="midnightblue" stroke="midnightblue" points="913.609,-71.6474 906.362,-79.3762 916.847,-77.8535 913.609,-71.6474"/>
</g>
<!-- Node9 -->
<g id="node17" class="node"><title>Node9</title>
<a xlink:href="wavelet__tree3_8cpp.html" target="_top" xlink:title="examples/suffix_sorting\l/wavelet_tree3.cpp">
<polygon fill="none" stroke="black" points="1102,-1 1102,-35 1222,-35 1222,-1 1102,-1"/>
<text text-anchor="start" x="1110" y="-22" font-family="Helvetica,sans-Serif" font-size="10.00">examples/suffix_sorting</text>
<text text-anchor="middle" x="1162" y="-9" font-family="Helvetica,sans-Serif" font-size="10.00">/wavelet_tree3.cpp</text>
</a>
</g>
<!-- Node3&#45;&gt;Node9 -->
<g id="edge16" class="edge"><title>Node3&#45;&gt;Node9</title>
<path fill="none" stroke="midnightblue" d="M936.303,-76.8775C982.911,-64.7189 1052.31,-46.6158 1101.83,-33.6964"/>
<polygon fill="midnightblue" stroke="midnightblue" points="935.221,-73.5425 926.428,-79.4535 936.988,-80.3158 935.221,-73.5425"/>
</g>
<!-- Node10 -->
<g id="node19" class="node"><title>Node10</title>
<a xlink:href="terasort_8cpp.html" target="_top" xlink:title="examples/terasort/terasort.cpp">
<polygon fill="none" stroke="black" points="1239.5,-7.5 1239.5,-28.5 1388.5,-28.5 1388.5,-7.5 1239.5,-7.5"/>
<text text-anchor="middle" x="1314" y="-15.5" font-family="Helvetica,sans-Serif" font-size="10.00">examples/terasort/terasort.cpp</text>
</a>
</g>
<!-- Node3&#45;&gt;Node10 -->
<g id="edge18" class="edge"><title>Node3&#45;&gt;Node10</title>
<path fill="none" stroke="midnightblue" d="M933.344,-76.9967C940.888,-75.1647 948.633,-73.4239 956,-72 1077.03,-48.6078 1109.55,-57.0808 1231,-36 1243.2,-33.8818 1256.33,-31.2157 1268.47,-28.5893"/>
<polygon fill="midnightblue" stroke="midnightblue" points="932.442,-73.6145 923.591,-79.4385 934.142,-80.4049 932.442,-73.6145"/>
</g>
<!-- Node13&#45;&gt;Node11 -->
<g id="edge26" class="edge"><title>Node13&#45;&gt;Node11</title>
<path fill="none" stroke="midnightblue" d="M337.709,-161.179C449.97,-158.648 727.632,-148.459 956,-108 966.377,-106.162 977.491,-103.391 987.542,-100.571"/>
<polygon fill="midnightblue" stroke="midnightblue" points="337.608,-157.68 327.686,-161.394 337.759,-164.678 337.608,-157.68"/>
</g>
<!-- Node14 -->
<g id="node28" class="node"><title>Node14</title>
<a xlink:href="disk__queues_8cpp.html" target="_top" xlink:title="thrill/io/disk_queues.cpp">
<polygon fill="none" stroke="black" points="98,-7.5 98,-28.5 220,-28.5 220,-7.5 98,-7.5"/>
<text text-anchor="middle" x="159" y="-15.5" font-family="Helvetica,sans-Serif" font-size="10.00">thrill/io/disk_queues.cpp</text>
</a>
</g>
<!-- Node13&#45;&gt;Node14 -->
<g id="edge28" class="edge"><title>Node13&#45;&gt;Node14</title>
<path fill="none" stroke="midnightblue" d="M264.114,-136.952C255.852,-127.863 246.475,-117.496 238,-108 212.528,-79.4591 182.86,-45.4516 168.187,-28.58"/>
<polygon fill="midnightblue" stroke="midnightblue" points="261.717,-139.518 271.038,-144.556 266.893,-134.805 261.717,-139.518"/>
</g>
<!-- Node15 -->
<g id="node30" class="node"><title>Node15</title>
<a xlink:href="linuxaio__request_8hpp.html" target="_top" xlink:title="thrill/io/linuxaio\l_request.hpp">
<polygon fill="none" stroke="black" points="246.5,-73 246.5,-107 327.5,-107 327.5,-73 246.5,-73"/>
<text text-anchor="start" x="254.5" y="-94" font-family="Helvetica,sans-Serif" font-size="10.00">thrill/io/linuxaio</text>
<text text-anchor="middle" x="287" y="-81" font-family="Helvetica,sans-Serif" font-size="10.00">_request.hpp</text>
</a>
</g>
<!-- Node13&#45;&gt;Node15 -->
<g id="edge30" class="edge"><title>Node13&#45;&gt;Node15</title>
<path fill="none" stroke="midnightblue" d="M287,-134.719C287,-125.572 287,-115.625 287,-107.441"/>
<polygon fill="midnightblue" stroke="midnightblue" points="283.5,-134.937 287,-144.937 290.5,-134.937 283.5,-134.937"/>
</g>
<!-- Node16 -->
<g id="node33" class="node"><title>Node16</title>
<a xlink:href="linuxaio__file_8cpp.html" target="_top" xlink:title="thrill/io/linuxaio\l_file.cpp">
<polygon fill="none" stroke="black" points="-0.5,-1 -0.5,-35 80.5,-35 80.5,-1 -0.5,-1"/>
<text text-anchor="start" x="7.5" y="-22" font-family="Helvetica,sans-Serif" font-size="10.00">thrill/io/linuxaio</text>
<text text-anchor="middle" x="40" y="-9" font-family="Helvetica,sans-Serif" font-size="10.00">_file.cpp</text>
</a>
</g>
<!-- Node13&#45;&gt;Node16 -->
<g id="edge42" class="edge"><title>Node13&#45;&gt;Node16</title>
<path fill="none" stroke="midnightblue" d="M248.886,-139.78C199.373,-110.914 113.995,-61.1387 69.266,-35.0619"/>
<polygon fill="midnightblue" stroke="midnightblue" points="247.294,-142.903 257.696,-144.916 250.82,-136.856 247.294,-142.903"/>
</g>
<!-- Node15&#45;&gt;Node14 -->
<g id="edge32" class="edge"><title>Node15&#45;&gt;Node14</title>
<path fill="none" stroke="midnightblue" d="M247.748,-67.9209C224.588,-54.8935 196.318,-38.9912 178.001,-28.688"/>
<polygon fill="midnightblue" stroke="midnightblue" points="246.234,-71.0849 256.666,-72.937 249.666,-64.9838 246.234,-71.0849"/>
</g>
<!-- Node15&#45;&gt;Node16 -->
<g id="edge34" class="edge"><title>Node15&#45;&gt;Node16</title>
<path fill="none" stroke="midnightblue" d="M236.29,-77.449C196.079,-67.1899 138.594,-51.8398 89,-36 86.2374,-35.1177 83.3998,-34.1746 80.5492,-33.1999"/>
<polygon fill="midnightblue" stroke="midnightblue" points="235.572,-80.8777 246.125,-79.9448 237.294,-74.0927 235.572,-80.8777"/>
</g>
<!-- Node17 -->
<g id="node35" class="node"><title>Node17</title>
<a xlink:href="linuxaio__queue_8cpp.html" target="_top" xlink:title="thrill/io/linuxaio\l_queue.cpp">
<polygon fill="none" stroke="black" points="353.5,-1 353.5,-35 434.5,-35 434.5,-1 353.5,-1"/>
<text text-anchor="start" x="361.5" y="-22" font-family="Helvetica,sans-Serif" font-size="10.00">thrill/io/linuxaio</text>
<text text-anchor="middle" x="394" y="-9" font-family="Helvetica,sans-Serif" font-size="10.00">_queue.cpp</text>
</a>
</g>
<!-- Node15&#45;&gt;Node17 -->
<g id="edge36" class="edge"><title>Node15&#45;&gt;Node17</title>
<path fill="none" stroke="midnightblue" d="M321.07,-67.0743C336.432,-56.7376 354.266,-44.7368 368.454,-35.19"/>
<polygon fill="midnightblue" stroke="midnightblue" points="318.7,-64.4504 312.358,-72.937 322.608,-70.258 318.7,-64.4504"/>
</g>
<!-- Node18 -->
<g id="node37" class="node"><title>Node18</title>
<a xlink:href="linuxaio__request_8cpp.html" target="_top" xlink:title="thrill/io/linuxaio\l_request.cpp">
<polygon fill="none" stroke="black" points="451.5,-1 451.5,-35 532.5,-35 532.5,-1 451.5,-1"/>
<text text-anchor="start" x="459.5" y="-22" font-family="Helvetica,sans-Serif" font-size="10.00">thrill/io/linuxaio</text>
<text text-anchor="middle" x="492" y="-9" font-family="Helvetica,sans-Serif" font-size="10.00">_request.cpp</text>
</a>
</g>
<!-- Node15&#45;&gt;Node18 -->
<g id="edge38" class="edge"><title>Node15&#45;&gt;Node18</title>
<path fill="none" stroke="midnightblue" d="M337.395,-72.824C367.991,-62.3296 407.803,-48.5553 443,-36 445.732,-35.0256 448.546,-34.0136 451.379,-32.9886"/>
<polygon fill="midnightblue" stroke="midnightblue" points="336.129,-69.5581 327.803,-76.1104 338.397,-76.1803 336.129,-69.5581"/>
</g>
<!-- Node19 -->
<g id="node39" class="node"><title>Node19</title>
<a xlink:href="request_8cpp.html" target="_top" xlink:title="thrill/io/request.cpp">
<polygon fill="none" stroke="black" points="237.5,-7.5 237.5,-28.5 336.5,-28.5 336.5,-7.5 237.5,-7.5"/>
<text text-anchor="middle" x="287" y="-15.5" font-family="Helvetica,sans-Serif" font-size="10.00">thrill/io/request.cpp</text>
</a>
</g>
<!-- Node15&#45;&gt;Node19 -->
<g id="edge40" class="edge"><title>Node15&#45;&gt;Node19</title>
<path fill="none" stroke="midnightblue" d="M287,-62.6667C287,-50.9127 287,-37.8483 287,-28.901"/>
<polygon fill="midnightblue" stroke="midnightblue" points="283.5,-62.937 287,-72.937 290.5,-62.937 283.5,-62.937"/>
</g>
<!-- Node20&#45;&gt;Node11 -->
<g id="edge46" class="edge"><title>Node20&#45;&gt;Node11</title>
<path fill="none" stroke="midnightblue" d="M1021.71,-141.235C1021.53,-127.969 1021.3,-111.319 1021.15,-100.667"/>
<polygon fill="midnightblue" stroke="midnightblue" points="1018.21,-141.426 1021.85,-151.376 1025.21,-141.328 1018.21,-141.426"/>
</g>
<!-- Node21 -->
<g id="node45" class="node"><title>Node21</title>
<a xlink:href="memory__file_8cpp.html" target="_top" xlink:title="thrill/io/memory_file.cpp">
<polygon fill="none" stroke="black" points="1095,-79.5 1095,-100.5 1215,-100.5 1215,-79.5 1095,-79.5"/>
<text text-anchor="middle" x="1155" y="-87.5" font-family="Helvetica,sans-Serif" font-size="10.00">thrill/io/memory_file.cpp</text>
</a>
</g>
<!-- Node20&#45;&gt;Node21 -->
<g id="edge48" class="edge"><title>Node20&#45;&gt;Node21</title>
<path fill="none" stroke="midnightblue" d="M1050.48,-146.582C1076.03,-132.749 1112.86,-112.81 1135.29,-100.667"/>
<polygon fill="midnightblue" stroke="midnightblue" points="1048.75,-143.537 1041.62,-151.376 1052.08,-149.693 1048.75,-143.537"/>
</g>
<!-- Node22&#45;&gt;Node11 -->
<g id="edge52" class="edge"><title>Node22&#45;&gt;Node11</title>
<path fill="none" stroke="midnightblue" d="M1127.09,-146.582C1101.15,-132.749 1063.77,-112.81 1041,-100.667"/>
<polygon fill="midnightblue" stroke="midnightblue" points="1125.61,-149.758 1136.08,-151.376 1128.9,-143.582 1125.61,-149.758"/>
</g>
<!-- Node23 -->
<g id="node50" class="node"><title>Node23</title>
<a xlink:href="mmap__file_8cpp.html" target="_top" xlink:title="thrill/io/mmap_file.cpp">
<polygon fill="none" stroke="black" points="1233,-79.5 1233,-100.5 1345,-100.5 1345,-79.5 1233,-79.5"/>
<text text-anchor="middle" x="1289" y="-87.5" font-family="Helvetica,sans-Serif" font-size="10.00">thrill/io/mmap_file.cpp</text>
</a>
</g>
<!-- Node22&#45;&gt;Node23 -->
<g id="edge54" class="edge"><title>Node22&#45;&gt;Node23</title>
<path fill="none" stroke="midnightblue" d="M1184.48,-146.582C1210.03,-132.749 1246.86,-112.81 1269.29,-100.667"/>
<polygon fill="midnightblue" stroke="midnightblue" points="1182.75,-143.537 1175.62,-151.376 1186.08,-149.693 1182.75,-143.537"/>
</g>
<!-- Node26 -->
<g id="node56" class="node"><title>Node26</title>
<a xlink:href="wincall__file_8cpp.html" target="_top" xlink:title="thrill/io/wincall_file.cpp">
<polygon fill="none" stroke="black" points="1362.5,-79.5 1362.5,-100.5 1477.5,-100.5 1477.5,-79.5 1362.5,-79.5"/>
<text text-anchor="middle" x="1420" y="-87.5" font-family="Helvetica,sans-Serif" font-size="10.00">thrill/io/wincall_file.cpp</text>
</a>
</g>
<!-- Node25&#45;&gt;Node26 -->
<g id="edge60" class="edge"><title>Node25&#45;&gt;Node26</title>
<path fill="none" stroke="midnightblue" d="M1415.02,-141.235C1416.31,-127.969 1417.93,-111.319 1418.96,-100.667"/>
<polygon fill="midnightblue" stroke="midnightblue" points="1411.52,-141.084 1414.03,-151.376 1418.48,-141.762 1411.52,-141.084"/>
</g>
</g>
</svg>
