<?xml version="1.0" encoding="UTF-8" standalone="no"?>
<!DOCTYPE svg PUBLIC "-//W3C//DTD SVG 1.1//EN"
 "http://www.w3.org/Graphics/SVG/1.1/DTD/svg11.dtd">
<!-- Generated by graphviz version 2.26.3 (20100126.1600)
 -->
<!-- Title: thrill/net/dispatcher.hpp Pages: 1 -->
<svg width="952pt" height="232pt"
 viewBox="0.00 0.00 952.00 232.00" xmlns="http://www.w3.org/2000/svg" xmlns:xlink="http://www.w3.org/1999/xlink">
<g id="graph1" class="graph" transform="scale(1 1) rotate(0) translate(4 228)">
<title>thrill/net/dispatcher.hpp</title>
<!-- Node1 -->
<g id="node1" class="node"><title>Node1</title>
<polygon fill="#bfbfbf" stroke="black" points="387,-202.5 387,-223.5 505,-223.5 505,-202.5 387,-202.5"/>
<text text-anchor="middle" x="446" y="-210.5" font-family="Helvetica,sans-Serif" font-size="10.00">thrill/net/dispatcher.hpp</text>
</g>
<!-- Node2 -->
<g id="node3" class="node"><title>Node2</title>
<a xlink:href="mock_2group_8hpp.html" target="_top" xlink:title="thrill/net/mock/group.hpp">
<polygon fill="none" stroke="black" points="143,-137.5 143,-158.5 267,-158.5 267,-137.5 143,-137.5"/>
<text text-anchor="middle" x="205" y="-145.5" font-family="Helvetica,sans-Serif" font-size="10.00">thrill/net/mock/group.hpp</text>
</a>
</g>
<!-- Node1&#45;&gt;Node2 -->
<g id="edge2" class="edge"><title>Node1&#45;&gt;Node2</title>
<path fill="none" stroke="midnightblue" d="M397.14,-199.822C351.947,-187.633 285.649,-169.752 243.933,-158.501"/>
<polygon fill="midnightblue" stroke="midnightblue" points="396.445,-203.26 407.011,-202.484 398.268,-196.501 396.445,-203.26"/>
</g>
<!-- Node6 -->
<g id="node11" class="node"><title>Node6</title>
<a xlink:href="dispatcher__thread_8cpp.html" target="_top" xlink:title="thrill/net/dispatcher\l_thread.cpp">
<polygon fill="none" stroke="black" points="319.5,-131 319.5,-165 418.5,-165 418.5,-131 319.5,-131"/>
<text text-anchor="start" x="327.5" y="-152" font-family="Helvetica,sans-Serif" font-size="10.00">thrill/net/dispatcher</text>
<text text-anchor="middle" x="369" y="-139" font-family="Helvetica,sans-Serif" font-size="10.00">_thread.cpp</text>
</a>
</g>
<!-- Node1&#45;&gt;Node6 -->
<g id="edge10" class="edge"><title>Node1&#45;&gt;Node6</title>
<path fill="none" stroke="midnightblue" d="M425.323,-195.545C414.141,-186.106 400.386,-174.495 389.269,-165.11"/>
<polygon fill="midnightblue" stroke="midnightblue" points="423.386,-198.491 433.285,-202.267 427.901,-193.142 423.386,-198.491"/>
</g>
<!-- Node7 -->
<g id="node13" class="node"><title>Node7</title>
<a xlink:href="mpi_2dispatcher_8hpp.html" target="_top" xlink:title="thrill/net/mpi/dispatcher.hpp">
<polygon fill="none" stroke="black" points="377.5,-65.5 377.5,-86.5 514.5,-86.5 514.5,-65.5 377.5,-65.5"/>
<text text-anchor="middle" x="446" y="-73.5" font-family="Helvetica,sans-Serif" font-size="10.00">thrill/net/mpi/dispatcher.hpp</text>
</a>
</g>
<!-- Node1&#45;&gt;Node7 -->
<g id="edge12" class="edge"><title>Node1&#45;&gt;Node7</title>
<path fill="none" stroke="midnightblue" d="M446,-192.167C446,-162.552 446,-109.364 446,-86.7002"/>
<polygon fill="midnightblue" stroke="midnightblue" points="442.5,-192.25 446,-202.25 449.5,-192.25 442.5,-192.25"/>
</g>
<!-- Node10 -->
<g id="node19" class="node"><title>Node10</title>
<a xlink:href="mpi_2group_8hpp.html" target="_top" xlink:title="thrill/net/mpi/group.hpp">
<polygon fill="none" stroke="black" points="474,-137.5 474,-158.5 590,-158.5 590,-137.5 474,-137.5"/>
<text text-anchor="middle" x="532" y="-145.5" font-family="Helvetica,sans-Serif" font-size="10.00">thrill/net/mpi/group.hpp</text>
</a>
</g>
<!-- Node1&#45;&gt;Node10 -->
<g id="edge18" class="edge"><title>Node1&#45;&gt;Node10</title>
<path fill="none" stroke="midnightblue" d="M468.363,-196.098C484.085,-184.215 504.63,-168.686 518.063,-158.534"/>
<polygon fill="midnightblue" stroke="midnightblue" points="466.068,-193.445 460.201,-202.267 470.289,-199.029 466.068,-193.445"/>
</g>
<!-- Node11 -->
<g id="node23" class="node"><title>Node11</title>
<a xlink:href="select__dispatcher_8hpp.html" target="_top" xlink:title="thrill/net/tcp/select\l_dispatcher.hpp">
<polygon fill="none" stroke="black" points="666.5,-131 666.5,-165 763.5,-165 763.5,-131 666.5,-131"/>
<text text-anchor="start" x="674.5" y="-152" font-family="Helvetica,sans-Serif" font-size="10.00">thrill/net/tcp/select</text>
<text text-anchor="middle" x="715" y="-139" font-family="Helvetica,sans-Serif" font-size="10.00">_dispatcher.hpp</text>
</a>
</g>
<!-- Node1&#45;&gt;Node11 -->
<g id="edge24" class="edge"><title>Node1&#45;&gt;Node11</title>
<path fill="none" stroke="midnightblue" d="M499.52,-200.068C548.06,-188.339 619.019,-171.192 666.076,-159.822"/>
<polygon fill="midnightblue" stroke="midnightblue" points="498.417,-196.733 489.518,-202.484 500.061,-203.538 498.417,-196.733"/>
</g>
<!-- Node3 -->
<g id="node5" class="node"><title>Node3</title>
<a xlink:href="context_8cpp.html" target="_top" xlink:title="thrill/api/context.cpp">
<polygon fill="none" stroke="black" points="0,-65.5 0,-86.5 104,-86.5 104,-65.5 0,-65.5"/>
<text text-anchor="middle" x="52" y="-73.5" font-family="Helvetica,sans-Serif" font-size="10.00">thrill/api/context.cpp</text>
</a>
</g>
<!-- Node2&#45;&gt;Node3 -->
<g id="edge4" class="edge"><title>Node2&#45;&gt;Node3</title>
<path fill="none" stroke="midnightblue" d="M173.007,-132.944C143.585,-119.099 100.698,-98.9165 74.6683,-86.6674"/>
<polygon fill="midnightblue" stroke="midnightblue" points="171.886,-136.285 182.424,-137.376 174.866,-129.951 171.886,-136.285"/>
</g>
<!-- Node4 -->
<g id="node7" class="node"><title>Node4</title>
<a xlink:href="group_8cpp.html" target="_top" xlink:title="thrill/net/group.cpp">
<polygon fill="none" stroke="black" points="121.5,-65.5 121.5,-86.5 218.5,-86.5 218.5,-65.5 121.5,-65.5"/>
<text text-anchor="middle" x="170" y="-73.5" font-family="Helvetica,sans-Serif" font-size="10.00">thrill/net/group.cpp</text>
</a>
</g>
<!-- Node2&#45;&gt;Node4 -->
<g id="edge6" class="edge"><title>Node2&#45;&gt;Node4</title>
<path fill="none" stroke="midnightblue" d="M195.291,-128.027C188.782,-114.637 180.467,-97.5318 175.186,-86.6674"/>
<polygon fill="midnightblue" stroke="midnightblue" points="192.316,-129.913 199.836,-137.376 198.611,-126.852 192.316,-129.913"/>
</g>
<!-- Node5 -->
<g id="node9" class="node"><title>Node5</title>
<a xlink:href="mock_2group_8cpp.html" target="_top" xlink:title="thrill/net/mock/group.cpp">
<polygon fill="none" stroke="black" points="236,-65.5 236,-86.5 360,-86.5 360,-65.5 236,-65.5"/>
<text text-anchor="middle" x="298" y="-73.5" font-family="Helvetica,sans-Serif" font-size="10.00">thrill/net/mock/group.cpp</text>
</a>
</g>
<!-- Node2&#45;&gt;Node5 -->
<g id="edge8" class="edge"><title>Node2&#45;&gt;Node5</title>
<path fill="none" stroke="midnightblue" d="M226.824,-131.104C244.578,-117.359 269.087,-98.384 284.221,-86.6674"/>
<polygon fill="midnightblue" stroke="midnightblue" points="224.487,-128.487 218.722,-137.376 228.772,-134.022 224.487,-128.487"/>
</g>
<!-- Node8 -->
<g id="node15" class="node"><title>Node8</title>
<a xlink:href="dispatcher_8cpp.html" target="_top" xlink:title="thrill/net/mpi/dispatcher.cpp">
<polygon fill="none" stroke="black" points="329.5,-0.5 329.5,-21.5 466.5,-21.5 466.5,-0.5 329.5,-0.5"/>
<text text-anchor="middle" x="398" y="-8.5" font-family="Helvetica,sans-Serif" font-size="10.00">thrill/net/mpi/dispatcher.cpp</text>
</a>
</g>
<!-- Node7&#45;&gt;Node8 -->
<g id="edge14" class="edge"><title>Node7&#45;&gt;Node8</title>
<path fill="none" stroke="midnightblue" d="M432.032,-57.085C423.482,-45.5064 412.86,-31.1223 405.779,-21.5337"/>
<polygon fill="midnightblue" stroke="midnightblue" points="429.318,-59.3014 438.074,-65.2666 434.949,-55.1431 429.318,-59.3014"/>
</g>
<!-- Node9 -->
<g id="node17" class="node"><title>Node9</title>
<a xlink:href="mpi_2group_8cpp.html" target="_top" xlink:title="thrill/net/mpi/group.cpp">
<polygon fill="none" stroke="black" points="484,-0.5 484,-21.5 600,-21.5 600,-0.5 484,-0.5"/>
<text text-anchor="middle" x="542" y="-8.5" font-family="Helvetica,sans-Serif" font-size="10.00">thrill/net/mpi/group.cpp</text>
</a>
</g>
<!-- Node7&#45;&gt;Node9 -->
<g id="edge16" class="edge"><title>Node7&#45;&gt;Node9</title>
<path fill="none" stroke="midnightblue" d="M470.477,-59.4268C488.088,-47.5032 511.309,-31.7803 526.443,-21.5337"/>
<polygon fill="midnightblue" stroke="midnightblue" points="468.171,-56.7618 461.852,-65.2666 472.095,-62.5581 468.171,-56.7618"/>
</g>
<!-- Node10&#45;&gt;Node7 -->
<g id="edge20" class="edge"><title>Node10&#45;&gt;Node7</title>
<path fill="none" stroke="midnightblue" d="M511.369,-130.728C494.99,-117.015 472.609,-98.2774 458.742,-86.6674"/>
<polygon fill="midnightblue" stroke="midnightblue" points="509.396,-133.64 519.31,-137.376 513.89,-128.273 509.396,-133.64"/>
</g>
<!-- Node10&#45;&gt;Node9 -->
<g id="edge22" class="edge"><title>Node10&#45;&gt;Node9</title>
<path fill="none" stroke="midnightblue" d="M533.521,-127.167C535.682,-97.5518 539.565,-44.3644 541.219,-21.7002"/>
<polygon fill="midnightblue" stroke="midnightblue" points="530.022,-127.022 532.785,-137.25 537.003,-127.531 530.022,-127.022"/>
</g>
<!-- Node12 -->
<g id="node25" class="node"><title>Node12</title>
<a xlink:href="construct_8cpp.html" target="_top" xlink:title="thrill/net/tcp/construct.cpp">
<polygon fill="none" stroke="black" points="570,-65.5 570,-86.5 700,-86.5 700,-65.5 570,-65.5"/>
<text text-anchor="middle" x="635" y="-73.5" font-family="Helvetica,sans-Serif" font-size="10.00">thrill/net/tcp/construct.cpp</text>
</a>
</g>
<!-- Node11&#45;&gt;Node12 -->
<g id="edge26" class="edge"><title>Node11&#45;&gt;Node12</title>
<path fill="none" stroke="midnightblue" d="M688.576,-124.218C674.58,-111.622 658.068,-96.7613 647.112,-86.901"/>
<polygon fill="midnightblue" stroke="midnightblue" points="686.267,-126.849 696.041,-130.937 690.95,-121.646 686.267,-126.849"/>
</g>
<!-- Node13 -->
<g id="node27" class="node"><title>Node13</title>
<a xlink:href="tcp_2group_8cpp.html" target="_top" xlink:title="thrill/net/tcp/group.cpp">
<polygon fill="none" stroke="black" points="717.5,-65.5 717.5,-86.5 830.5,-86.5 830.5,-65.5 717.5,-65.5"/>
<text text-anchor="middle" x="774" y="-73.5" font-family="Helvetica,sans-Serif" font-size="10.00">thrill/net/tcp/group.cpp</text>
</a>
</g>
<!-- Node11&#45;&gt;Node13 -->
<g id="edge28" class="edge"><title>Node11&#45;&gt;Node13</title>
<path fill="none" stroke="midnightblue" d="M735.352,-123.163C745.483,-110.8 757.212,-96.4874 765.067,-86.901"/>
<polygon fill="midnightblue" stroke="midnightblue" points="732.613,-120.984 728.982,-130.937 738.028,-125.421 732.613,-120.984"/>
</g>
<!-- Node14 -->
<g id="node29" class="node"><title>Node14</title>
<a xlink:href="select__dispatcher_8cpp.html" target="_top" xlink:title="thrill/net/tcp/select\l_dispatcher.cpp">
<polygon fill="none" stroke="black" points="847.5,-59 847.5,-93 944.5,-93 944.5,-59 847.5,-59"/>
<text text-anchor="start" x="855.5" y="-80" font-family="Helvetica,sans-Serif" font-size="10.00">thrill/net/tcp/select</text>
<text text-anchor="middle" x="896" y="-67" font-family="Helvetica,sans-Serif" font-size="10.00">_dispatcher.cpp</text>
</a>
</g>
<!-- Node11&#45;&gt;Node14 -->
<g id="edge30" class="edge"><title>Node11&#45;&gt;Node14</title>
<path fill="none" stroke="midnightblue" d="M767.269,-127.208C794.497,-116.377 827.383,-103.295 853.1,-93.0651"/>
<polygon fill="midnightblue" stroke="midnightblue" points="765.893,-123.989 757.894,-130.937 768.48,-130.493 765.893,-123.989"/>
</g>
</g>
</svg>
