<?xml version="1.0" encoding="UTF-8" standalone="no"?>
<!DOCTYPE svg PUBLIC "-//W3C//DTD SVG 1.1//EN"
 "http://www.w3.org/Graphics/SVG/1.1/DTD/svg11.dtd">
<!-- Generated by graphviz version 2.40.1 (20161225.0304)
 -->
<!-- Title: thrill/core/duplicate_detection.hpp Pages: 1 -->
<svg width="1475pt" height="307pt"
 viewBox="0.00 0.00 1475.00 307.00" xmlns="http://www.w3.org/2000/svg" xmlns:xlink="http://www.w3.org/1999/xlink">
<g id="graph0" class="graph" transform="scale(1 1) rotate(0) translate(4 303)">
<title>thrill/core/duplicate_detection.hpp</title>
<!-- Node200 -->
<g id="node1" class="node">
<title>Node200</title>
<polygon fill="#bfbfbf" stroke="#000000" points="490.5,-268.5 490.5,-298.5 601.5,-298.5 601.5,-268.5 490.5,-268.5"/>
<text text-anchor="start" x="498.5" y="-286.5" font-family="Helvetica,sans-Serif" font-size="10.00" fill="#000000">thrill/core/duplicate</text>
<text text-anchor="middle" x="546" y="-275.5" font-family="Helvetica,sans-Serif" font-size="10.00" fill="#000000">_detection.hpp</text>
</g>
<!-- Node201 -->
<g id="node2" class="node">
<title>Node201</title>
<g id="a_node2"><a xlink:href="reduce__pre__phase_8hpp.html" target="_top" xlink:title="thrill/core/reduce\l_pre_phase.hpp">
<polygon fill="none" stroke="#000000" points="496.5,-201.5 496.5,-231.5 595.5,-231.5 595.5,-201.5 496.5,-201.5"/>
<text text-anchor="start" x="504.5" y="-219.5" font-family="Helvetica,sans-Serif" font-size="10.00" fill="#000000">thrill/core/reduce</text>
<text text-anchor="middle" x="546" y="-208.5" font-family="Helvetica,sans-Serif" font-size="10.00" fill="#000000">_pre_phase.hpp</text>
</a>
</g>
</g>
<!-- Node200&#45;&gt;Node201 -->
<g id="edge1" class="edge">
<title>Node200&#45;&gt;Node201</title>
<path fill="none" stroke="#191970" d="M546,-258.0249C546,-249.128 546,-239.4287 546,-231.6432"/>
<polygon fill="#191970" stroke="#191970" points="542.5001,-258.2966 546,-268.2967 549.5001,-258.2967 542.5001,-258.2966"/>
</g>
<!-- Node202 -->
<g id="node3" class="node">
<title>Node202</title>
<g id="a_node3"><a xlink:href="reduce__by__key_8hpp.html" target="_top" xlink:title="thrill/api/reduce_by\l_key.hpp">
<polygon fill="none" stroke="#000000" points="759,-134.5 759,-164.5 869,-164.5 869,-134.5 759,-134.5"/>
<text text-anchor="start" x="767" y="-152.5" font-family="Helvetica,sans-Serif" font-size="10.00" fill="#000000">thrill/api/reduce_by</text>
<text text-anchor="middle" x="814" y="-141.5" font-family="Helvetica,sans-Serif" font-size="10.00" fill="#000000">_key.hpp</text>
</a>
</g>
</g>
<!-- Node201&#45;&gt;Node202 -->
<g id="edge2" class="edge">
<title>Node201&#45;&gt;Node202</title>
<path fill="none" stroke="#191970" d="M605.5826,-201.6043C651.4231,-190.1442 714.278,-174.4305 758.9447,-163.2638"/>
<polygon fill="#191970" stroke="#191970" points="604.6332,-198.2339 595.7807,-204.0548 606.331,-205.0249 604.6332,-198.2339"/>
</g>
<!-- Node215 -->
<g id="node16" class="node">
<title>Node215</title>
<g id="a_node16"><a xlink:href="reduce__to__index_8hpp.html" target="_top" xlink:title="thrill/api/reduce_to\l_index.hpp">
<polygon fill="none" stroke="#000000" points="297,-134.5 297,-164.5 405,-164.5 405,-134.5 297,-134.5"/>
<text text-anchor="start" x="305" y="-152.5" font-family="Helvetica,sans-Serif" font-size="10.00" fill="#000000">thrill/api/reduce_to</text>
<text text-anchor="middle" x="351" y="-141.5" font-family="Helvetica,sans-Serif" font-size="10.00" fill="#000000">_index.hpp</text>
</a>
</g>
</g>
<!-- Node201&#45;&gt;Node215 -->
<g id="edge15" class="edge">
<title>Node201&#45;&gt;Node215</title>
<path fill="none" stroke="#191970" d="M492.5619,-198.1392C461.8978,-187.6033 423.8703,-174.5375 394.9527,-164.6017"/>
<polygon fill="#191970" stroke="#191970" points="491.6435,-201.5245 502.2382,-201.4639 493.9182,-194.9043 491.6435,-201.5245"/>
</g>
<!-- Node203 -->
<g id="node4" class="node">
<title>Node203</title>
<g id="a_node4"><a xlink:href="thrill_8hpp.html" target="_top" xlink:title="thrill/thrill.hpp">
<polygon fill="none" stroke="#000000" points="429,-73 429,-92 515,-92 515,-73 429,-73"/>
<text text-anchor="middle" x="472" y="-80" font-family="Helvetica,sans-Serif" font-size="10.00" fill="#000000">thrill/thrill.hpp</text>
</a>
</g>
</g>
<!-- Node202&#45;&gt;Node203 -->
<g id="edge3" class="edge">
<title>Node202&#45;&gt;Node203</title>
<path fill="none" stroke="#191970" d="M748.8922,-140.1108C689.8304,-131.0799 600.5501,-116.1437 524,-98 516.7586,-96.2837 509.0345,-94.1506 501.8153,-92.0214"/>
<polygon fill="#191970" stroke="#191970" points="748.419,-143.579 758.8308,-141.6184 749.4688,-136.6582 748.419,-143.579"/>
</g>
<!-- Node204 -->
<g id="node5" class="node">
<title>Node204</title>
<g id="a_node5"><a xlink:href="k-means_8hpp.html" target="_top" xlink:title="examples/k&#45;means/k\l&#45;means.hpp">
<polygon fill="none" stroke="#000000" points="827.5,-67.5 827.5,-97.5 946.5,-97.5 946.5,-67.5 827.5,-67.5"/>
<text text-anchor="start" x="835.5" y="-85.5" font-family="Helvetica,sans-Serif" font-size="10.00" fill="#000000">examples/k&#45;means/k</text>
<text text-anchor="middle" x="887" y="-74.5" font-family="Helvetica,sans-Serif" font-size="10.00" fill="#000000">&#45;means.hpp</text>
</a>
</g>
</g>
<!-- Node202&#45;&gt;Node204 -->
<g id="edge4" class="edge">
<title>Node202&#45;&gt;Node204</title>
<path fill="none" stroke="#191970" d="M837.974,-127.4965C848.6267,-117.7193 860.8993,-106.4554 870.5007,-97.6432"/>
<polygon fill="#191970" stroke="#191970" points="835.5656,-124.9562 830.5648,-134.2967 840.2989,-130.1134 835.5656,-124.9562"/>
</g>
<!-- Node206 -->
<g id="node7" class="node">
<title>Node206</title>
<g id="a_node7"><a xlink:href="page__rank_8hpp.html" target="_top" xlink:title="examples/page_rank\l/page_rank.hpp">
<polygon fill="none" stroke="#000000" points="291.5,-67.5 291.5,-97.5 410.5,-97.5 410.5,-67.5 291.5,-67.5"/>
<text text-anchor="start" x="299.5" y="-85.5" font-family="Helvetica,sans-Serif" font-size="10.00" fill="#000000">examples/page_rank</text>
<text text-anchor="middle" x="351" y="-74.5" font-family="Helvetica,sans-Serif" font-size="10.00" fill="#000000">/page_rank.hpp</text>
</a>
</g>
</g>
<!-- Node202&#45;&gt;Node206 -->
<g id="edge6" class="edge">
<title>Node202&#45;&gt;Node206</title>
<path fill="none" stroke="#191970" d="M748.7377,-142.8099C670.3617,-134.3516 535.0618,-118.3999 420,-98 416.9777,-97.4642 413.8877,-96.8852 410.772,-96.2765"/>
<polygon fill="#191970" stroke="#191970" points="748.6272,-146.318 758.9432,-143.9036 749.3731,-139.3579 748.6272,-146.318"/>
</g>
<!-- Node208 -->
<g id="node9" class="node">
<title>Node208</title>
<g id="a_node9"><a xlink:href="k-means__step3_8cpp.html" target="_top" xlink:title="examples/tutorial/k\l&#45;means_step3.cpp">
<polygon fill="none" stroke="#000000" points="965,-67.5 965,-97.5 1077,-97.5 1077,-67.5 965,-67.5"/>
<text text-anchor="start" x="973" y="-85.5" font-family="Helvetica,sans-Serif" font-size="10.00" fill="#000000">examples/tutorial/k</text>
<text text-anchor="middle" x="1021" y="-74.5" font-family="Helvetica,sans-Serif" font-size="10.00" fill="#000000">&#45;means_step3.cpp</text>
</a>
</g>
</g>
<!-- Node202&#45;&gt;Node208 -->
<g id="edge8" class="edge">
<title>Node202&#45;&gt;Node208</title>
<path fill="none" stroke="#191970" d="M870.3043,-131.2759C902.9281,-120.7165 943.5125,-107.5805 974.3425,-97.6017"/>
<polygon fill="#191970" stroke="#191970" points="868.8911,-128.0545 860.4548,-134.4639 871.0467,-134.7143 868.8911,-128.0545"/>
</g>
<!-- Node209 -->
<g id="node10" class="node">
<title>Node209</title>
<g id="a_node10"><a xlink:href="k-means__step4_8cpp.html" target="_top" xlink:title="examples/tutorial/k\l&#45;means_step4.cpp">
<polygon fill="none" stroke="#000000" points="1095,-67.5 1095,-97.5 1207,-97.5 1207,-67.5 1095,-67.5"/>
<text text-anchor="start" x="1103" y="-85.5" font-family="Helvetica,sans-Serif" font-size="10.00" fill="#000000">examples/tutorial/k</text>
<text text-anchor="middle" x="1151" y="-74.5" font-family="Helvetica,sans-Serif" font-size="10.00" fill="#000000">&#45;means_step4.cpp</text>
</a>
</g>
</g>
<!-- Node202&#45;&gt;Node209 -->
<g id="edge9" class="edge">
<title>Node202&#45;&gt;Node209</title>
<path fill="none" stroke="#191970" d="M879.1117,-138.0589C934.3221,-128.1455 1015.5392,-113.0629 1086,-98 1088.8362,-97.3937 1091.7383,-96.758 1094.6665,-96.1044"/>
<polygon fill="#191970" stroke="#191970" points="878.3405,-134.6412 869.1138,-139.8486 879.574,-141.5317 878.3405,-134.6412"/>
</g>
<!-- Node210 -->
<g id="node11" class="node">
<title>Node210</title>
<g id="a_node11"><a xlink:href="k-means__step5_8cpp.html" target="_top" xlink:title="examples/tutorial/k\l&#45;means_step5.cpp">
<polygon fill="none" stroke="#000000" points="1225,-67.5 1225,-97.5 1337,-97.5 1337,-67.5 1225,-67.5"/>
<text text-anchor="start" x="1233" y="-85.5" font-family="Helvetica,sans-Serif" font-size="10.00" fill="#000000">examples/tutorial/k</text>
<text text-anchor="middle" x="1281" y="-74.5" font-family="Helvetica,sans-Serif" font-size="10.00" fill="#000000">&#45;means_step5.cpp</text>
</a>
</g>
</g>
<!-- Node202&#45;&gt;Node210 -->
<g id="edge10" class="edge">
<title>Node202&#45;&gt;Node210</title>
<path fill="none" stroke="#191970" d="M879.625,-143.2652C959.4859,-135.1786 1098.2555,-119.5175 1216,-98 1218.853,-97.4786 1221.7687,-96.9112 1224.7076,-96.3118"/>
<polygon fill="#191970" stroke="#191970" points="878.8321,-139.8271 869.2317,-144.3084 879.5313,-146.7921 878.8321,-139.8271"/>
</g>
<!-- Node211 -->
<g id="node12" class="node">
<title>Node211</title>
<g id="a_node12"><a xlink:href="k-means__step6_8cpp.html" target="_top" xlink:title="examples/tutorial/k\l&#45;means_step6.cpp">
<polygon fill="none" stroke="#000000" points="1355,-67.5 1355,-97.5 1467,-97.5 1467,-67.5 1355,-67.5"/>
<text text-anchor="start" x="1363" y="-85.5" font-family="Helvetica,sans-Serif" font-size="10.00" fill="#000000">examples/tutorial/k</text>
<text text-anchor="middle" x="1411" y="-74.5" font-family="Helvetica,sans-Serif" font-size="10.00" fill="#000000">&#45;means_step6.cpp</text>
</a>
</g>
</g>
<!-- Node202&#45;&gt;Node211 -->
<g id="edge11" class="edge">
<title>Node202&#45;&gt;Node211</title>
<path fill="none" stroke="#191970" d="M879.0999,-146.0913C979.7512,-140.171 1178.9769,-125.8626 1346,-98 1348.8608,-97.5228 1351.7827,-96.9909 1354.7265,-96.4197"/>
<polygon fill="#191970" stroke="#191970" points="878.8646,-142.5989 869.0839,-146.6718 879.2696,-149.5872 878.8646,-142.5989"/>
</g>
<!-- Node212 -->
<g id="node13" class="node">
<title>Node212</title>
<g id="a_node13"><a xlink:href="word__count_8hpp.html" target="_top" xlink:title="examples/word_count\l/word_count.hpp">
<polygon fill="none" stroke="#000000" points="533,-67.5 533,-97.5 657,-97.5 657,-67.5 533,-67.5"/>
<text text-anchor="start" x="541" y="-85.5" font-family="Helvetica,sans-Serif" font-size="10.00" fill="#000000">examples/word_count</text>
<text text-anchor="middle" x="595" y="-74.5" font-family="Helvetica,sans-Serif" font-size="10.00" fill="#000000">/word_count.hpp</text>
</a>
</g>
</g>
<!-- Node202&#45;&gt;Node212 -->
<g id="edge12" class="edge">
<title>Node202&#45;&gt;Node212</title>
<path fill="none" stroke="#191970" d="M754.8776,-131.4123C720.287,-120.8298 677.1201,-107.6235 644.3622,-97.6017"/>
<polygon fill="#191970" stroke="#191970" points="754.2657,-134.8852 764.8521,-134.4639 756.3136,-128.1914 754.2657,-134.8852"/>
</g>
<!-- Node214 -->
<g id="node15" class="node">
<title>Node214</title>
<g id="a_node15"><a xlink:href="word__count__simple_8cpp.html" target="_top" xlink:title="examples/word_count\l/word_count_simple.cpp">
<polygon fill="none" stroke="#000000" points="675,-67.5 675,-97.5 809,-97.5 809,-67.5 675,-67.5"/>
<text text-anchor="start" x="683" y="-85.5" font-family="Helvetica,sans-Serif" font-size="10.00" fill="#000000">examples/word_count</text>
<text text-anchor="middle" x="742" y="-74.5" font-family="Helvetica,sans-Serif" font-size="10.00" fill="#000000">/word_count_simple.cpp</text>
</a>
</g>
</g>
<!-- Node202&#45;&gt;Node214 -->
<g id="edge14" class="edge">
<title>Node202&#45;&gt;Node214</title>
<path fill="none" stroke="#191970" d="M790.048,-127.2113C779.6129,-117.5009 767.6512,-106.3698 758.2733,-97.6432"/>
<polygon fill="#191970" stroke="#191970" points="787.9571,-130.0466 797.6621,-134.2967 792.7257,-124.9221 787.9571,-130.0466"/>
</g>
<!-- Node205 -->
<g id="node6" class="node">
<title>Node205</title>
<g id="a_node6"><a xlink:href="k-means__run_8cpp.html" target="_top" xlink:title="examples/k&#45;means/k\l&#45;means_run.cpp">
<polygon fill="none" stroke="#000000" points="827.5,-.5 827.5,-30.5 946.5,-30.5 946.5,-.5 827.5,-.5"/>
<text text-anchor="start" x="835.5" y="-18.5" font-family="Helvetica,sans-Serif" font-size="10.00" fill="#000000">examples/k&#45;means/k</text>
<text text-anchor="middle" x="887" y="-7.5" font-family="Helvetica,sans-Serif" font-size="10.00" fill="#000000">&#45;means_run.cpp</text>
</a>
</g>
</g>
<!-- Node204&#45;&gt;Node205 -->
<g id="edge5" class="edge">
<title>Node204&#45;&gt;Node205</title>
<path fill="none" stroke="#191970" d="M887,-57.0249C887,-48.128 887,-38.4287 887,-30.6432"/>
<polygon fill="#191970" stroke="#191970" points="883.5001,-57.2966 887,-67.2967 890.5001,-57.2967 883.5001,-57.2966"/>
</g>
<!-- Node207 -->
<g id="node8" class="node">
<title>Node207</title>
<g id="a_node8"><a xlink:href="page__rank__run_8cpp.html" target="_top" xlink:title="examples/page_rank\l/page_rank_run.cpp">
<polygon fill="none" stroke="#000000" points="291.5,-.5 291.5,-30.5 410.5,-30.5 410.5,-.5 291.5,-.5"/>
<text text-anchor="start" x="299.5" y="-18.5" font-family="Helvetica,sans-Serif" font-size="10.00" fill="#000000">examples/page_rank</text>
<text text-anchor="middle" x="351" y="-7.5" font-family="Helvetica,sans-Serif" font-size="10.00" fill="#000000">/page_rank_run.cpp</text>
</a>
</g>
</g>
<!-- Node206&#45;&gt;Node207 -->
<g id="edge7" class="edge">
<title>Node206&#45;&gt;Node207</title>
<path fill="none" stroke="#191970" d="M351,-57.0249C351,-48.128 351,-38.4287 351,-30.6432"/>
<polygon fill="#191970" stroke="#191970" points="347.5001,-57.2966 351,-67.2967 354.5001,-57.2967 347.5001,-57.2966"/>
</g>
<!-- Node213 -->
<g id="node14" class="node">
<title>Node213</title>
<g id="a_node14"><a xlink:href="word__count__run_8cpp.html" target="_top" xlink:title="examples/word_count\l/word_count_run.cpp">
<polygon fill="none" stroke="#000000" points="533,-.5 533,-30.5 657,-30.5 657,-.5 533,-.5"/>
<text text-anchor="start" x="541" y="-18.5" font-family="Helvetica,sans-Serif" font-size="10.00" fill="#000000">examples/word_count</text>
<text text-anchor="middle" x="595" y="-7.5" font-family="Helvetica,sans-Serif" font-size="10.00" fill="#000000">/word_count_run.cpp</text>
</a>
</g>
</g>
<!-- Node212&#45;&gt;Node213 -->
<g id="edge13" class="edge">
<title>Node212&#45;&gt;Node213</title>
<path fill="none" stroke="#191970" d="M595,-57.0249C595,-48.128 595,-38.4287 595,-30.6432"/>
<polygon fill="#191970" stroke="#191970" points="591.5001,-57.2966 595,-67.2967 598.5001,-57.2967 591.5001,-57.2966"/>
</g>
<!-- Node215&#45;&gt;Node203 -->
<g id="edge16" class="edge">
<title>Node215&#45;&gt;Node203</title>
<path fill="none" stroke="#191970" d="M387.0455,-129.5409C409.3904,-117.1681 437.0866,-101.8322 454.6556,-92.1039"/>
<polygon fill="#191970" stroke="#191970" points="385.2077,-126.5578 378.1548,-134.4639 388.5986,-132.6816 385.2077,-126.5578"/>
</g>
<!-- Node215&#45;&gt;Node206 -->
<g id="edge18" class="edge">
<title>Node215&#45;&gt;Node206</title>
<path fill="none" stroke="#191970" d="M351,-124.0249C351,-115.128 351,-105.4287 351,-97.6432"/>
<polygon fill="#191970" stroke="#191970" points="347.5001,-124.2966 351,-134.2967 354.5001,-124.2967 347.5001,-124.2966"/>
</g>
<!-- Node216 -->
<g id="node17" class="node">
<title>Node216</title>
<g id="a_node17"><a xlink:href="bfs_8cpp.html" target="_top" xlink:title="examples/bfs/bfs.cpp">
<polygon fill="none" stroke="#000000" points="152.5,-73 152.5,-92 273.5,-92 273.5,-73 152.5,-73"/>
<text text-anchor="middle" x="213" y="-80" font-family="Helvetica,sans-Serif" font-size="10.00" fill="#000000">examples/bfs/bfs.cpp</text>
</a>
</g>
</g>
<!-- Node215&#45;&gt;Node216 -->
<g id="edge17" class="edge">
<title>Node215&#45;&gt;Node216</title>
<path fill="none" stroke="#191970" d="M310.9064,-130.0343C285.2503,-117.5781 253.0857,-101.9619 232.7812,-92.1039"/>
<polygon fill="#191970" stroke="#191970" points="309.5056,-133.2448 320.0301,-134.4639 312.5629,-126.9478 309.5056,-133.2448"/>
</g>
<!-- Node217 -->
<g id="node18" class="node">
<title>Node217</title>
<g id="a_node18"><a xlink:href="prefix__doubling_8cpp.html" target="_top" xlink:title="examples/suffix_sorting\l/prefix_doubling.cpp">
<polygon fill="none" stroke="#000000" points="0,-67.5 0,-97.5 134,-97.5 134,-67.5 0,-67.5"/>
<text text-anchor="start" x="8" y="-85.5" font-family="Helvetica,sans-Serif" font-size="10.00" fill="#000000">examples/suffix_sorting</text>
<text text-anchor="middle" x="67" y="-74.5" font-family="Helvetica,sans-Serif" font-size="10.00" fill="#000000">/prefix_doubling.cpp</text>
</a>
</g>
</g>
<!-- Node215&#45;&gt;Node217 -->
<g id="edge19" class="edge">
<title>Node215&#45;&gt;Node217</title>
<path fill="none" stroke="#191970" d="M286.9218,-134.383C240.2812,-123.3797 177.3946,-108.5438 130.8153,-97.555"/>
<polygon fill="#191970" stroke="#191970" points="286.3768,-137.8504 296.9133,-136.7401 287.9841,-131.0374 286.3768,-137.8504"/>
</g>
</g>
</svg>
