<?xml version="1.0" encoding="UTF-8" standalone="no"?>
<!DOCTYPE svg PUBLIC "-//W3C//DTD SVG 1.1//EN"
 "http://www.w3.org/Graphics/SVG/1.1/DTD/svg11.dtd">
<!-- Generated by graphviz version 2.26.3 (20100126.1600)
 -->
<!-- Title: thrill/core/duplicate_detection.hpp Pages: 1 -->
<svg width="1192pt" height="332pt"
 viewBox="0.00 0.00 1192.00 332.00" xmlns="http://www.w3.org/2000/svg" xmlns:xlink="http://www.w3.org/1999/xlink">
<g id="graph1" class="graph" transform="scale(1 1) rotate(0) translate(4 328)">
<title>thrill/core/duplicate_detection.hpp</title>
<!-- Node1 -->
<g id="node1" class="node"><title>Node1</title>
<polygon fill="#bfbfbf" stroke="black" points="371,-289 371,-323 469,-323 469,-289 371,-289"/>
<text text-anchor="start" x="379" y="-310" font-family="Helvetica,sans-Serif" font-size="10.00">thrill/core/duplicate</text>
<text text-anchor="middle" x="420" y="-297" font-family="Helvetica,sans-Serif" font-size="10.00">_detection.hpp</text>
</g>
<!-- Node2 -->
<g id="node3" class="node"><title>Node2</title>
<a xlink:href="reduce__pre__phase_8hpp.html" target="_top" xlink:title="thrill/core/reduce\l_pre_phase.hpp">
<polygon fill="none" stroke="black" points="375.5,-217 375.5,-251 464.5,-251 464.5,-217 375.5,-217"/>
<text text-anchor="start" x="383.5" y="-238" font-family="Helvetica,sans-Serif" font-size="10.00">thrill/core/reduce</text>
<text text-anchor="middle" x="420" y="-225" font-family="Helvetica,sans-Serif" font-size="10.00">_pre_phase.hpp</text>
</a>
</g>
<!-- Node1&#45;&gt;Node2 -->
<g id="edge2" class="edge"><title>Node1&#45;&gt;Node2</title>
<path fill="none" stroke="midnightblue" d="M420,-278.719C420,-269.572 420,-259.625 420,-251.441"/>
<polygon fill="midnightblue" stroke="midnightblue" points="416.5,-278.937 420,-288.937 423.5,-278.937 416.5,-278.937"/>
</g>
<!-- Node3 -->
<g id="node5" class="node"><title>Node3</title>
<a xlink:href="reduce__by__key_8hpp.html" target="_top" xlink:title="thrill/api/reduce_by\l_key.hpp">
<polygon fill="none" stroke="black" points="518,-145 518,-179 616,-179 616,-145 518,-145"/>
<text text-anchor="start" x="526" y="-166" font-family="Helvetica,sans-Serif" font-size="10.00">thrill/api/reduce_by</text>
<text text-anchor="middle" x="567" y="-153" font-family="Helvetica,sans-Serif" font-size="10.00">_key.hpp</text>
</a>
</g>
<!-- Node2&#45;&gt;Node3 -->
<g id="edge4" class="edge"><title>Node2&#45;&gt;Node3</title>
<path fill="none" stroke="midnightblue" d="M463.905,-212.495C485.728,-201.807 511.728,-189.072 532.159,-179.065"/>
<polygon fill="midnightblue" stroke="midnightblue" points="462.278,-209.395 454.837,-216.937 465.357,-215.681 462.278,-209.395"/>
</g>
<!-- Node16 -->
<g id="node31" class="node"><title>Node16</title>
<a xlink:href="reduce__to__index_8hpp.html" target="_top" xlink:title="thrill/api/reduce_to\l_index.hpp">
<polygon fill="none" stroke="black" points="171,-145 171,-179 267,-179 267,-145 171,-145"/>
<text text-anchor="start" x="179" y="-166" font-family="Helvetica,sans-Serif" font-size="10.00">thrill/api/reduce_to</text>
<text text-anchor="middle" x="219" y="-153" font-family="Helvetica,sans-Serif" font-size="10.00">_index.hpp</text>
</a>
</g>
<!-- Node2&#45;&gt;Node16 -->
<g id="edge30" class="edge"><title>Node2&#45;&gt;Node16</title>
<path fill="none" stroke="midnightblue" d="M365.636,-214.526C334.721,-203.452 296.366,-189.713 266.638,-179.064"/>
<polygon fill="midnightblue" stroke="midnightblue" points="364.797,-217.944 375.392,-218.021 367.158,-211.354 364.797,-217.944"/>
</g>
<!-- Node4 -->
<g id="node7" class="node"><title>Node4</title>
<a xlink:href="thrill_8hpp.html" target="_top" xlink:title="thrill/thrill.hpp">
<polygon fill="none" stroke="black" points="128,-79.5 128,-100.5 202,-100.5 202,-79.5 128,-79.5"/>
<text text-anchor="middle" x="165" y="-87.5" font-family="Helvetica,sans-Serif" font-size="10.00">thrill/thrill.hpp</text>
</a>
</g>
<!-- Node3&#45;&gt;Node4 -->
<g id="edge6" class="edge"><title>Node3&#45;&gt;Node4</title>
<path fill="none" stroke="midnightblue" d="M507.786,-157.081C436.459,-150.23 313.444,-135.446 211,-108 203.71,-106.047 195.997,-103.31 189.012,-100.558"/>
<polygon fill="midnightblue" stroke="midnightblue" points="507.642,-160.583 517.926,-158.035 508.298,-153.614 507.642,-160.583"/>
</g>
<!-- Node5 -->
<g id="node9" class="node"><title>Node5</title>
<a xlink:href="k-means_8hpp.html" target="_top" xlink:title="examples/k&#45;means/k\l&#45;means.hpp">
<polygon fill="none" stroke="black" points="961.5,-73 961.5,-107 1068.5,-107 1068.5,-73 961.5,-73"/>
<text text-anchor="start" x="969.5" y="-94" font-family="Helvetica,sans-Serif" font-size="10.00">examples/k&#45;means/k</text>
<text text-anchor="middle" x="1015" y="-81" font-family="Helvetica,sans-Serif" font-size="10.00">&#45;means.hpp</text>
</a>
</g>
<!-- Node3&#45;&gt;Node5 -->
<g id="edge8" class="edge"><title>Node3&#45;&gt;Node5</title>
<path fill="none" stroke="midnightblue" d="M626.489,-156.357C702.699,-148.518 838.614,-132.473 953,-108 955.74,-107.414 958.536,-106.77 961.351,-106.087"/>
<polygon fill="midnightblue" stroke="midnightblue" points="625.736,-152.916 616.141,-157.409 626.443,-159.88 625.736,-152.916"/>
</g>
<!-- Node7 -->
<g id="node13" class="node"><title>Node7</title>
<a xlink:href="page__rank_8hpp.html" target="_top" xlink:title="examples/page_rank\l/page_rank.hpp">
<polygon fill="none" stroke="black" points="219.5,-73 219.5,-107 326.5,-107 326.5,-73 219.5,-73"/>
<text text-anchor="start" x="227.5" y="-94" font-family="Helvetica,sans-Serif" font-size="10.00">examples/page_rank</text>
<text text-anchor="middle" x="273" y="-81" font-family="Helvetica,sans-Serif" font-size="10.00">/page_rank.hpp</text>
</a>
</g>
<!-- Node3&#45;&gt;Node7 -->
<g id="edge12" class="edge"><title>Node3&#45;&gt;Node7</title>
<path fill="none" stroke="midnightblue" d="M507.922,-149.171C460.907,-138.74 393.523,-123.294 335,-108 332.289,-107.292 329.516,-106.55 326.719,-105.788"/>
<polygon fill="midnightblue" stroke="midnightblue" points="507.411,-152.642 517.93,-151.384 508.922,-145.807 507.411,-152.642"/>
</g>
<!-- Node9 -->
<g id="node17" class="node"><title>Node9</title>
<a xlink:href="k-means__step3_8cpp.html" target="_top" xlink:title="examples/tutorial/k\l&#45;means_step3.cpp">
<polygon fill="none" stroke="black" points="1085.5,-73 1085.5,-107 1184.5,-107 1184.5,-73 1085.5,-73"/>
<text text-anchor="start" x="1093.5" y="-94" font-family="Helvetica,sans-Serif" font-size="10.00">examples/tutorial/k</text>
<text text-anchor="middle" x="1135" y="-81" font-family="Helvetica,sans-Serif" font-size="10.00">&#45;means_step3.cpp</text>
</a>
</g>
<!-- Node3&#45;&gt;Node9 -->
<g id="edge16" class="edge"><title>Node3&#45;&gt;Node9</title>
<path fill="none" stroke="midnightblue" d="M626.059,-159.495C721.663,-154.606 915.874,-141.2 1077,-108 1079.79,-107.426 1082.63,-106.772 1085.49,-106.062"/>
<polygon fill="midnightblue" stroke="midnightblue" points="625.821,-156.003 616.008,-159.997 626.17,-162.994 625.821,-156.003"/>
</g>
<!-- Node10 -->
<g id="node19" class="node"><title>Node10</title>
<a xlink:href="k-means__step4_8cpp.html" target="_top" xlink:title="examples/tutorial/k\l&#45;means_step4.cpp">
<polygon fill="none" stroke="black" points="343.5,-73 343.5,-107 442.5,-107 442.5,-73 343.5,-73"/>
<text text-anchor="start" x="351.5" y="-94" font-family="Helvetica,sans-Serif" font-size="10.00">examples/tutorial/k</text>
<text text-anchor="middle" x="393" y="-81" font-family="Helvetica,sans-Serif" font-size="10.00">&#45;means_step4.cpp</text>
</a>
</g>
<!-- Node3&#45;&gt;Node10 -->
<g id="edge18" class="edge"><title>Node3&#45;&gt;Node10</title>
<path fill="none" stroke="midnightblue" d="M516.41,-141.066C490.301,-130.263 458.855,-117.251 434.241,-107.065"/>
<polygon fill="midnightblue" stroke="midnightblue" points="515.186,-144.347 525.764,-144.937 517.863,-137.879 515.186,-144.347"/>
</g>
<!-- Node11 -->
<g id="node21" class="node"><title>Node11</title>
<a xlink:href="k-means__step5_8cpp.html" target="_top" xlink:title="examples/tutorial/k\l&#45;means_step5.cpp">
<polygon fill="none" stroke="black" points="459.5,-73 459.5,-107 558.5,-107 558.5,-73 459.5,-73"/>
<text text-anchor="start" x="467.5" y="-94" font-family="Helvetica,sans-Serif" font-size="10.00">examples/tutorial/k</text>
<text text-anchor="middle" x="509" y="-81" font-family="Helvetica,sans-Serif" font-size="10.00">&#45;means_step5.cpp</text>
</a>
</g>
<!-- Node3&#45;&gt;Node11 -->
<g id="edge20" class="edge"><title>Node3&#45;&gt;Node11</title>
<path fill="none" stroke="midnightblue" d="M546.93,-137.086C539.059,-127.315 530.216,-116.337 523.049,-107.441"/>
<polygon fill="midnightblue" stroke="midnightblue" points="544.256,-139.345 553.255,-144.937 549.707,-134.954 544.256,-139.345"/>
</g>
<!-- Node12 -->
<g id="node23" class="node"><title>Node12</title>
<a xlink:href="k-means__step6_8cpp.html" target="_top" xlink:title="examples/tutorial/k\l&#45;means_step6.cpp">
<polygon fill="none" stroke="black" points="575.5,-73 575.5,-107 674.5,-107 674.5,-73 575.5,-73"/>
<text text-anchor="start" x="583.5" y="-94" font-family="Helvetica,sans-Serif" font-size="10.00">examples/tutorial/k</text>
<text text-anchor="middle" x="625" y="-81" font-family="Helvetica,sans-Serif" font-size="10.00">&#45;means_step6.cpp</text>
</a>
</g>
<!-- Node3&#45;&gt;Node12 -->
<g id="edge22" class="edge"><title>Node3&#45;&gt;Node12</title>
<path fill="none" stroke="midnightblue" d="M587.07,-137.086C594.941,-127.315 603.784,-116.337 610.951,-107.441"/>
<polygon fill="midnightblue" stroke="midnightblue" points="584.293,-134.954 580.745,-144.937 589.744,-139.345 584.293,-134.954"/>
</g>
<!-- Node13 -->
<g id="node25" class="node"><title>Node13</title>
<a xlink:href="word__count_8hpp.html" target="_top" xlink:title="examples/word_count\l/word_count.hpp">
<polygon fill="none" stroke="black" points="692,-73 692,-107 804,-107 804,-73 692,-73"/>
<text text-anchor="start" x="700" y="-94" font-family="Helvetica,sans-Serif" font-size="10.00">examples/word_count</text>
<text text-anchor="middle" x="748" y="-81" font-family="Helvetica,sans-Serif" font-size="10.00">/word_count.hpp</text>
</a>
</g>
<!-- Node3&#45;&gt;Node13 -->
<g id="edge24" class="edge"><title>Node3&#45;&gt;Node13</title>
<path fill="none" stroke="midnightblue" d="M619.269,-141.208C646.497,-130.377 679.383,-117.295 705.1,-107.065"/>
<polygon fill="midnightblue" stroke="midnightblue" points="617.893,-137.989 609.894,-144.937 620.48,-144.493 617.893,-137.989"/>
</g>
<!-- Node15 -->
<g id="node29" class="node"><title>Node15</title>
<a xlink:href="word__count__simple_8cpp.html" target="_top" xlink:title="examples/word_count\l/word_count_simple.cpp">
<polygon fill="none" stroke="black" points="822,-73 822,-107 944,-107 944,-73 822,-73"/>
<text text-anchor="start" x="830" y="-94" font-family="Helvetica,sans-Serif" font-size="10.00">examples/word_count</text>
<text text-anchor="middle" x="883" y="-81" font-family="Helvetica,sans-Serif" font-size="10.00">/word_count_simple.cpp</text>
</a>
</g>
<!-- Node3&#45;&gt;Node15 -->
<g id="edge28" class="edge"><title>Node3&#45;&gt;Node15</title>
<path fill="none" stroke="midnightblue" d="M626.097,-149.645C676.013,-139.061 749.331,-123.169 813,-108 815.93,-107.302 818.925,-106.577 821.948,-105.835"/>
<polygon fill="midnightblue" stroke="midnightblue" points="625.184,-146.26 616.125,-151.754 626.633,-153.109 625.184,-146.26"/>
</g>
<!-- Node6 -->
<g id="node11" class="node"><title>Node6</title>
<a xlink:href="k-means__run_8cpp.html" target="_top" xlink:title="examples/k&#45;means/k\l&#45;means_run.cpp">
<polygon fill="none" stroke="black" points="961.5,-1 961.5,-35 1068.5,-35 1068.5,-1 961.5,-1"/>
<text text-anchor="start" x="969.5" y="-22" font-family="Helvetica,sans-Serif" font-size="10.00">examples/k&#45;means/k</text>
<text text-anchor="middle" x="1015" y="-9" font-family="Helvetica,sans-Serif" font-size="10.00">&#45;means_run.cpp</text>
</a>
</g>
<!-- Node5&#45;&gt;Node6 -->
<g id="edge10" class="edge"><title>Node5&#45;&gt;Node6</title>
<path fill="none" stroke="midnightblue" d="M1015,-62.7193C1015,-53.572 1015,-43.6255 1015,-35.4407"/>
<polygon fill="midnightblue" stroke="midnightblue" points="1011.5,-62.937 1015,-72.937 1018.5,-62.937 1011.5,-62.937"/>
</g>
<!-- Node8 -->
<g id="node15" class="node"><title>Node8</title>
<a xlink:href="page__rank__run_8cpp.html" target="_top" xlink:title="examples/page_rank\l/page_rank_run.cpp">
<polygon fill="none" stroke="black" points="219.5,-1 219.5,-35 326.5,-35 326.5,-1 219.5,-1"/>
<text text-anchor="start" x="227.5" y="-22" font-family="Helvetica,sans-Serif" font-size="10.00">examples/page_rank</text>
<text text-anchor="middle" x="273" y="-9" font-family="Helvetica,sans-Serif" font-size="10.00">/page_rank_run.cpp</text>
</a>
</g>
<!-- Node7&#45;&gt;Node8 -->
<g id="edge14" class="edge"><title>Node7&#45;&gt;Node8</title>
<path fill="none" stroke="midnightblue" d="M273,-62.7193C273,-53.572 273,-43.6255 273,-35.4407"/>
<polygon fill="midnightblue" stroke="midnightblue" points="269.5,-62.937 273,-72.937 276.5,-62.937 269.5,-62.937"/>
</g>
<!-- Node14 -->
<g id="node27" class="node"><title>Node14</title>
<a xlink:href="word__count__run_8cpp.html" target="_top" xlink:title="examples/word_count\l/word_count_run.cpp">
<polygon fill="none" stroke="black" points="692,-1 692,-35 804,-35 804,-1 692,-1"/>
<text text-anchor="start" x="700" y="-22" font-family="Helvetica,sans-Serif" font-size="10.00">examples/word_count</text>
<text text-anchor="middle" x="748" y="-9" font-family="Helvetica,sans-Serif" font-size="10.00">/word_count_run.cpp</text>
</a>
</g>
<!-- Node13&#45;&gt;Node14 -->
<g id="edge26" class="edge"><title>Node13&#45;&gt;Node14</title>
<path fill="none" stroke="midnightblue" d="M748,-62.7193C748,-53.572 748,-43.6255 748,-35.4407"/>
<polygon fill="midnightblue" stroke="midnightblue" points="744.5,-62.937 748,-72.937 751.5,-62.937 744.5,-62.937"/>
</g>
<!-- Node16&#45;&gt;Node4 -->
<g id="edge32" class="edge"><title>Node16&#45;&gt;Node4</title>
<path fill="none" stroke="midnightblue" d="M200.107,-136.81C190.896,-124.528 180.297,-110.396 173.176,-100.901"/>
<polygon fill="midnightblue" stroke="midnightblue" points="197.403,-139.037 206.203,-144.937 203.003,-134.837 197.403,-139.037"/>
</g>
<!-- Node16&#45;&gt;Node7 -->
<g id="edge36" class="edge"><title>Node16&#45;&gt;Node7</title>
<path fill="none" stroke="midnightblue" d="M237.906,-136.792C245.178,-127.096 253.314,-116.248 259.919,-107.441"/>
<polygon fill="midnightblue" stroke="midnightblue" points="234.997,-134.837 231.797,-144.937 240.597,-139.037 234.997,-134.837"/>
</g>
<!-- Node17 -->
<g id="node34" class="node"><title>Node17</title>
<a xlink:href="bfs_8cpp.html" target="_top" xlink:title="examples/bfs/bfs.cpp">
<polygon fill="none" stroke="black" points="0,-79.5 0,-100.5 110,-100.5 110,-79.5 0,-79.5"/>
<text text-anchor="middle" x="55" y="-87.5" font-family="Helvetica,sans-Serif" font-size="10.00">examples/bfs/bfs.cpp</text>
</a>
</g>
<!-- Node16&#45;&gt;Node17 -->
<g id="edge34" class="edge"><title>Node16&#45;&gt;Node17</title>
<path fill="none" stroke="midnightblue" d="M170.668,-140.781C140.644,-127.6 103.333,-111.219 79.345,-100.688"/>
<polygon fill="midnightblue" stroke="midnightblue" points="169.571,-144.122 180.134,-144.937 172.385,-137.712 169.571,-144.122"/>
</g>
</g>
</svg>
