<?xml version="1.0" encoding="UTF-8" standalone="no"?>
<!DOCTYPE svg PUBLIC "-//W3C//DTD SVG 1.1//EN"
 "http://www.w3.org/Graphics/SVG/1.1/DTD/svg11.dtd">
<!-- Generated by graphviz version 2.36.0 (20140111.2315)
 -->
<!-- Title: extlib/tlx/tlx/string/escape_html.cpp Pages: 1 -->
<svg width="138pt" height="152pt"
 viewBox="0.00 0.00 138.00 152.00" xmlns="http://www.w3.org/2000/svg" xmlns:xlink="http://www.w3.org/1999/xlink">
<g id="graph0" class="graph" transform="scale(1 1) rotate(0) translate(4 148)">
<title>extlib/tlx/tlx/string/escape_html.cpp</title>
<!-- Node1 -->
<g id="node1" class="node"><title>Node1</title>
<polygon fill="#bfbfbf" stroke="black" points="18,-113 18,-143 112,-143 112,-113 18,-113"/>
<text text-anchor="start" x="26" y="-131" font-family="Helvetica,sans-Serif" font-size="10.00">extlib/tlx/tlx/string</text>
<text text-anchor="middle" x="65" y="-120" font-family="Helvetica,sans-Serif" font-size="10.00">/escape_html.cpp</text>
</g>
<!-- Node2 -->
<g id="node2" class="node"><title>Node2</title>
<g id="a_node2"><a xlink:href="escape__html_8hpp.html" target="_top" xlink:title="tlx/string/escape_html.hpp">
<polygon fill="none" stroke="black" points="-0.5,-56.5 -0.5,-75.5 130.5,-75.5 130.5,-56.5 -0.5,-56.5"/>
<text text-anchor="middle" x="65" y="-63.5" font-family="Helvetica,sans-Serif" font-size="10.00">tlx/string/escape_html.hpp</text>
</a>
</g>
</g>
<!-- Node1&#45;&gt;Node2 -->
<g id="edge1" class="edge"><title>Node1&#45;&gt;Node2</title>
<path fill="none" stroke="midnightblue" d="M65,-112.781C65,-104.781 65,-94.6887 65,-86.0168"/>
<polygon fill="midnightblue" stroke="midnightblue" points="68.5001,-85.7305 65,-75.7305 61.5001,-85.7306 68.5001,-85.7305"/>
</g>
<!-- Node3 -->
<g id="node3" class="node"><title>Node3</title>
<polygon fill="none" stroke="#bfbfbf" points="44.5,-0.5 44.5,-19.5 85.5,-19.5 85.5,-0.5 44.5,-0.5"/>
<text text-anchor="middle" x="65" y="-7.5" font-family="Helvetica,sans-Serif" font-size="10.00">string</text>
</g>
<!-- Node2&#45;&gt;Node3 -->
<g id="edge2" class="edge"><title>Node2&#45;&gt;Node3</title>
<path fill="none" stroke="midnightblue" d="M65,-56.083C65,-49.0059 65,-38.8611 65,-29.9865"/>
<polygon fill="midnightblue" stroke="midnightblue" points="68.5001,-29.751 65,-19.7511 61.5001,-29.7511 68.5001,-29.751"/>
</g>
</g>
</svg>
