<?xml version="1.0" encoding="UTF-8" standalone="no"?>
<!DOCTYPE svg PUBLIC "-//W3C//DTD SVG 1.1//EN"
 "http://www.w3.org/Graphics/SVG/1.1/DTD/svg11.dtd">
<!-- Generated by graphviz version 2.26.3 (20100126.1600)
 -->
<!-- Title: OverlapWindowNode&lt; ValueType, Input, WindowFunction, PartialWindowFunction &gt; Pages: 1 -->
<svg width="184pt" height="372pt"
 viewBox="0.00 0.00 184.00 372.00" xmlns="http://www.w3.org/2000/svg" xmlns:xlink="http://www.w3.org/1999/xlink">
<g id="graph1" class="graph" transform="scale(1 1) rotate(0) translate(4 368)">
<title>OverlapWindowNode&lt; ValueType, Input, WindowFunction, PartialWindowFunction &gt;</title>
<!-- Node1 -->
<g id="node1" class="node"><title>Node1</title>
<polygon fill="#bfbfbf" stroke="black" points="0,-0.5 0,-47.5 176,-47.5 176,-0.5 0,-0.5"/>
<text text-anchor="start" x="8" y="-34.5" font-family="Helvetica,sans-Serif" font-size="10.00">OverlapWindowNode&lt;</text>
<text text-anchor="start" x="8" y="-21.5" font-family="Helvetica,sans-Serif" font-size="10.00"> ValueType, Input, WindowFunction,</text>
<text text-anchor="middle" x="88" y="-8.5" font-family="Helvetica,sans-Serif" font-size="10.00"> PartialWindowFunction &gt;</text>
</g>
<!-- Node2 -->
<g id="node2" class="node"><title>Node2</title>
<a xlink:href="classthrill_1_1api_1_1BaseWindowNode.html" target="_top" xlink:title="BaseWindowNode\&lt; ValueType,\l Input, WindowFunction,\l PartialWindowFunction \&gt;">
<polygon fill="none" stroke="black" points="10,-84.5 10,-131.5 166,-131.5 166,-84.5 10,-84.5"/>
<text text-anchor="start" x="18" y="-118.5" font-family="Helvetica,sans-Serif" font-size="10.00">BaseWindowNode&lt; ValueType,</text>
<text text-anchor="start" x="18" y="-105.5" font-family="Helvetica,sans-Serif" font-size="10.00"> Input, WindowFunction,</text>
<text text-anchor="middle" x="88" y="-92.5" font-family="Helvetica,sans-Serif" font-size="10.00"> PartialWindowFunction &gt;</text>
</a>
</g>
<!-- Node2&#45;&gt;Node1 -->
<g id="edge2" class="edge"><title>Node2&#45;&gt;Node1</title>
<path fill="none" stroke="midnightblue" d="M88,-74.0664C88,-65.1933 88,-55.821 88,-47.6152"/>
<polygon fill="midnightblue" stroke="midnightblue" points="84.5001,-74.1536 88,-84.1537 91.5001,-74.1537 84.5001,-74.1536"/>
</g>
<!-- Node3 -->
<g id="node4" class="node"><title>Node3</title>
<a xlink:href="classthrill_1_1api_1_1DOpNode.html" target="_top" xlink:title="A DOpNode is a typed node representing and distributed operations in Thrill.">
<polygon fill="none" stroke="black" points="25.5,-168.5 25.5,-189.5 150.5,-189.5 150.5,-168.5 25.5,-168.5"/>
<text text-anchor="middle" x="88" y="-176.5" font-family="Helvetica,sans-Serif" font-size="10.00">DOpNode&lt; ValueType &gt;</text>
</a>
</g>
<!-- Node3&#45;&gt;Node2 -->
<g id="edge4" class="edge"><title>Node3&#45;&gt;Node2</title>
<path fill="none" stroke="midnightblue" d="M88,-158.191C88,-149.835 88,-140.16 88,-131.548"/>
<polygon fill="midnightblue" stroke="midnightblue" points="84.5001,-158.217 88,-168.217 91.5001,-158.217 84.5001,-158.217"/>
</g>
<!-- Node4 -->
<g id="node6" class="node"><title>Node4</title>
<a xlink:href="classthrill_1_1api_1_1DIANode.html" target="_top" xlink:title="A DIANode is a typed node representing and operation in Thrill.">
<polygon fill="none" stroke="black" points="27,-226.5 27,-247.5 149,-247.5 149,-226.5 27,-226.5"/>
<text text-anchor="middle" x="88" y="-234.5" font-family="Helvetica,sans-Serif" font-size="10.00">DIANode&lt; ValueType &gt;</text>
</a>
</g>
<!-- Node4&#45;&gt;Node3 -->
<g id="edge6" class="edge"><title>Node4&#45;&gt;Node3</title>
<path fill="none" stroke="midnightblue" d="M88,-216.191C88,-207.168 88,-196.994 88,-189.571"/>
<polygon fill="midnightblue" stroke="midnightblue" points="84.5001,-216.362 88,-226.362 91.5001,-216.362 84.5001,-216.362"/>
</g>
<!-- Node5 -->
<g id="node8" class="node"><title>Node5</title>
<a xlink:href="classthrill_1_1api_1_1DIABase.html" target="_top" xlink:title="The DIABase is the untyped super class of DIANode.">
<polygon fill="none" stroke="black" points="60,-284.5 60,-305.5 116,-305.5 116,-284.5 60,-284.5"/>
<text text-anchor="middle" x="88" y="-292.5" font-family="Helvetica,sans-Serif" font-size="10.00">DIABase</text>
</a>
</g>
<!-- Node5&#45;&gt;Node4 -->
<g id="edge8" class="edge"><title>Node5&#45;&gt;Node4</title>
<path fill="none" stroke="midnightblue" d="M88,-274.191C88,-265.168 88,-254.994 88,-247.571"/>
<polygon fill="midnightblue" stroke="midnightblue" points="84.5001,-274.362 88,-284.362 91.5001,-274.362 84.5001,-274.362"/>
</g>
<!-- Node6 -->
<g id="node10" class="node"><title>Node6</title>
<a xlink:href="classtlx_1_1ReferenceCounter.html" target="_top" xlink:title="Provides reference counting abilities for use with CountingPtr.">
<polygon fill="none" stroke="black" points="40,-342.5 40,-363.5 136,-363.5 136,-342.5 40,-342.5"/>
<text text-anchor="middle" x="88" y="-350.5" font-family="Helvetica,sans-Serif" font-size="10.00">ReferenceCounter</text>
</a>
</g>
<!-- Node6&#45;&gt;Node5 -->
<g id="edge10" class="edge"><title>Node6&#45;&gt;Node5</title>
<path fill="none" stroke="midnightblue" d="M88,-332.191C88,-323.168 88,-312.994 88,-305.571"/>
<polygon fill="midnightblue" stroke="midnightblue" points="84.5001,-332.362 88,-342.362 91.5001,-332.362 84.5001,-332.362"/>
</g>
</g>
</svg>
