<?xml version="1.0" encoding="UTF-8" standalone="no"?>
<!DOCTYPE svg PUBLIC "-//W3C//DTD SVG 1.1//EN"
 "http://www.w3.org/Graphics/SVG/1.1/DTD/svg11.dtd">
<!-- Generated by graphviz version 2.26.3 (20100126.1600)
 -->
<!-- Title: WriteLinesOneNode&lt; ValueType &gt; Pages: 1 -->
<svg width="118pt" height="218pt"
 viewBox="0.00 0.00 118.00 218.00" xmlns="http://www.w3.org/2000/svg" xmlns:xlink="http://www.w3.org/1999/xlink">
<g id="graph1" class="graph" transform="scale(1 1) rotate(0) translate(4 214)">
<title>WriteLinesOneNode&lt; ValueType &gt;</title>
<!-- Node1 -->
<g id="node1" class="node"><title>Node1</title>
<polygon fill="#bfbfbf" stroke="black" points="0,-1 0,-35 110,-35 110,-1 0,-1"/>
<text text-anchor="start" x="8" y="-22" font-family="Helvetica,sans-Serif" font-size="10.00">WriteLinesOneNode&lt;</text>
<text text-anchor="middle" x="55" y="-9" font-family="Helvetica,sans-Serif" font-size="10.00"> ValueType &gt;</text>
</g>
<!-- Node2 -->
<g id="node2" class="node"><title>Node2</title>
<a xlink:href="classthrill_1_1api_1_1ActionNode.html" target="_top" xlink:title="ActionNode">
<polygon fill="none" stroke="black" points="21,-72.5 21,-93.5 89,-93.5 89,-72.5 21,-72.5"/>
<text text-anchor="middle" x="55" y="-80.5" font-family="Helvetica,sans-Serif" font-size="10.00">ActionNode</text>
</a>
</g>
<!-- Node2&#45;&gt;Node1 -->
<g id="edge2" class="edge"><title>Node2&#45;&gt;Node1</title>
<path fill="none" stroke="midnightblue" d="M55,-62.1306C55,-53.4049 55,-43.3908 55,-35.1099"/>
<polygon fill="midnightblue" stroke="midnightblue" points="51.5001,-62.2665 55,-72.2666 58.5001,-62.2666 51.5001,-62.2665"/>
</g>
<!-- Node3 -->
<g id="node4" class="node"><title>Node3</title>
<a xlink:href="classthrill_1_1api_1_1DIABase.html" target="_top" xlink:title="The DIABase is the untyped super class of DIANode.">
<polygon fill="none" stroke="black" points="27,-130.5 27,-151.5 83,-151.5 83,-130.5 27,-130.5"/>
<text text-anchor="middle" x="55" y="-138.5" font-family="Helvetica,sans-Serif" font-size="10.00">DIABase</text>
</a>
</g>
<!-- Node3&#45;&gt;Node2 -->
<g id="edge4" class="edge"><title>Node3&#45;&gt;Node2</title>
<path fill="none" stroke="midnightblue" d="M55,-120.191C55,-111.168 55,-100.994 55,-93.5707"/>
<polygon fill="midnightblue" stroke="midnightblue" points="51.5001,-120.362 55,-130.362 58.5001,-120.362 51.5001,-120.362"/>
</g>
<!-- Node4 -->
<g id="node6" class="node"><title>Node4</title>
<a xlink:href="classtlx_1_1ReferenceCounter.html" target="_top" xlink:title="Provides reference counting abilities for use with CountingPtr.">
<polygon fill="none" stroke="black" points="7,-188.5 7,-209.5 103,-209.5 103,-188.5 7,-188.5"/>
<text text-anchor="middle" x="55" y="-196.5" font-family="Helvetica,sans-Serif" font-size="10.00">ReferenceCounter</text>
</a>
</g>
<!-- Node4&#45;&gt;Node3 -->
<g id="edge6" class="edge"><title>Node4&#45;&gt;Node3</title>
<path fill="none" stroke="midnightblue" d="M55,-178.191C55,-169.168 55,-158.994 55,-151.571"/>
<polygon fill="midnightblue" stroke="midnightblue" points="51.5001,-178.362 55,-188.362 58.5001,-178.362 51.5001,-178.362"/>
</g>
</g>
</svg>
