<?xml version="1.0" encoding="UTF-8" standalone="no"?>
<!DOCTYPE svg PUBLIC "-//W3C//DTD SVG 1.1//EN"
 "http://www.w3.org/Graphics/SVG/1.1/DTD/svg11.dtd">
<!-- Generated by graphviz version 2.26.3 (20100126.1600)
 -->
<!-- Title: GatherNode&lt; ValueType &gt; Pages: 1 -->
<svg width="243pt" height="370pt"
 viewBox="0.00 0.00 243.00 370.00" xmlns="http://www.w3.org/2000/svg" xmlns:xlink="http://www.w3.org/1999/xlink">
<g id="graph1" class="graph" transform="scale(1 1) rotate(0) translate(4 366)">
<title>GatherNode&lt; ValueType &gt;</title>
<!-- Node1 -->
<g id="node1" class="node"><title>Node1</title>
<polygon fill="#bfbfbf" stroke="black" points="0,-0.5 0,-21.5 134,-21.5 134,-0.5 0,-0.5"/>
<text text-anchor="middle" x="67" y="-8.5" font-family="Helvetica,sans-Serif" font-size="10.00">GatherNode&lt; ValueType &gt;</text>
</g>
<!-- Node2 -->
<g id="node2" class="node"><title>Node2</title>
<a xlink:href="classthrill_1_1api_1_1ActionResultNode.html" target="_top" xlink:title="ActionResultNode\&lt; std\l::vector\&lt; ValueType \&gt; \&gt;">
<polygon fill="none" stroke="black" points="5.5,-61 5.5,-95 128.5,-95 128.5,-61 5.5,-61"/>
<text text-anchor="start" x="13.5" y="-82" font-family="Helvetica,sans-Serif" font-size="10.00">ActionResultNode&lt; std</text>
<text text-anchor="middle" x="67" y="-69" font-family="Helvetica,sans-Serif" font-size="10.00">::vector&lt; ValueType &gt; &gt;</text>
</a>
</g>
<!-- Node2&#45;&gt;Node1 -->
<g id="edge2" class="edge"><title>Node2&#45;&gt;Node1</title>
<path fill="none" stroke="midnightblue" d="M67,-50.5344C67,-40.3057 67,-29.3007 67,-21.5056"/>
<polygon fill="midnightblue" stroke="midnightblue" points="63.5001,-50.7458 67,-60.7458 70.5001,-50.7459 63.5001,-50.7458"/>
</g>
<!-- Node3 -->
<g id="node4" class="node"><title>Node3</title>
<a xlink:href="classthrill_1_1api_1_1ActionNode.html" target="_top" xlink:title="ActionNode">
<polygon fill="none" stroke="black" points="13,-220.5 13,-241.5 81,-241.5 81,-220.5 13,-220.5"/>
<text text-anchor="middle" x="47" y="-228.5" font-family="Helvetica,sans-Serif" font-size="10.00">ActionNode</text>
</a>
</g>
<!-- Node3&#45;&gt;Node2 -->
<g id="edge4" class="edge"><title>Node3&#45;&gt;Node2</title>
<path fill="none" stroke="midnightblue" d="M48.0778,-210.425C49.1292,-193.169 51.0131,-167.904 54,-146 56.3711,-128.613 60.266,-108.94 63.1754,-95.2447"/>
<polygon fill="midnightblue" stroke="midnightblue" points="44.5788,-210.309 47.5038,-220.492 51.5674,-210.708 44.5788,-210.309"/>
</g>
<!-- Node6 -->
<g id="node10" class="node"><title>Node6</title>
<a xlink:href="classthrill_1_1api_1_1ActionResultNode.html" target="_top" xlink:title="ActionResultNode\&lt; Result\lType \&gt;">
<polygon fill="none" stroke="black" points="63,-147 63,-181 197,-181 197,-147 63,-147"/>
<text text-anchor="start" x="71" y="-168" font-family="Helvetica,sans-Serif" font-size="10.00">ActionResultNode&lt; Result</text>
<text text-anchor="middle" x="130" y="-155" font-family="Helvetica,sans-Serif" font-size="10.00">Type &gt;</text>
</a>
</g>
<!-- Node3&#45;&gt;Node6 -->
<g id="edge12" class="edge"><title>Node3&#45;&gt;Node6</title>
<path fill="none" stroke="midnightblue" d="M68.3766,-213.744C80.8437,-203.68 96.5077,-191.036 108.923,-181.014"/>
<polygon fill="midnightblue" stroke="midnightblue" points="65.9182,-211.231 60.3354,-220.235 70.315,-216.677 65.9182,-211.231"/>
</g>
<!-- Node4 -->
<g id="node6" class="node"><title>Node4</title>
<a xlink:href="classthrill_1_1api_1_1DIABase.html" target="_top" xlink:title="The DIABase is the untyped super class of DIANode.">
<polygon fill="none" stroke="black" points="19,-280.5 19,-301.5 75,-301.5 75,-280.5 19,-280.5"/>
<text text-anchor="middle" x="47" y="-288.5" font-family="Helvetica,sans-Serif" font-size="10.00">DIABase</text>
</a>
</g>
<!-- Node4&#45;&gt;Node3 -->
<g id="edge6" class="edge"><title>Node4&#45;&gt;Node3</title>
<path fill="none" stroke="midnightblue" d="M47,-270.231C47,-260.592 47,-249.544 47,-241.634"/>
<polygon fill="midnightblue" stroke="midnightblue" points="43.5001,-270.273 47,-280.273 50.5001,-270.273 43.5001,-270.273"/>
</g>
<!-- Node5 -->
<g id="node8" class="node"><title>Node5</title>
<a xlink:href="classthrill_1_1common_1_1ReferenceCount.html" target="_top" xlink:title="Provides reference counting abilities for use with CountingPtr.">
<polygon fill="none" stroke="black" points="3,-340.5 3,-361.5 91,-361.5 91,-340.5 3,-340.5"/>
<text text-anchor="middle" x="47" y="-348.5" font-family="Helvetica,sans-Serif" font-size="10.00">ReferenceCount</text>
</a>
</g>
<!-- Node5&#45;&gt;Node4 -->
<g id="edge8" class="edge"><title>Node5&#45;&gt;Node4</title>
<path fill="none" stroke="midnightblue" d="M47,-330.231C47,-320.592 47,-309.544 47,-301.634"/>
<polygon fill="midnightblue" stroke="midnightblue" points="43.5001,-330.273 47,-340.273 50.5001,-330.273 43.5001,-330.273"/>
</g>
<!-- Node6&#45;&gt;Node2 -->
<g id="edge10" class="edge"><title>Node6&#45;&gt;Node2</title>
<path fill="none" stroke="orange" stroke-dasharray="5,2" d="M111.202,-138.339C100.961,-124.36 88.5693,-107.444 79.515,-95.084"/>
<polygon fill="orange" stroke="orange" points="108.518,-140.598 117.251,-146.597 114.165,-136.461 108.518,-140.598"/>
<text text-anchor="middle" x="168.5" y="-118.5" font-family="Helvetica,sans-Serif" font-size="10.00"> &lt; std::vector&lt; ValueType &gt; &gt;</text>
</g>
</g>
</svg>
