<?xml version="1.0" encoding="UTF-8" standalone="no"?>
<!DOCTYPE svg PUBLIC "-//W3C//DTD SVG 1.1//EN"
 "http://www.w3.org/Graphics/SVG/1.1/DTD/svg11.dtd">
<!-- Generated by graphviz version 2.26.3 (20100126.1600)
 -->
<!-- Title: MixStream Pages: 1 -->
<svg width="104pt" height="146pt"
 viewBox="0.00 0.00 104.00 146.00" xmlns="http://www.w3.org/2000/svg" xmlns:xlink="http://www.w3.org/1999/xlink">
<g id="graph1" class="graph" transform="scale(1 1) rotate(0) translate(4 142)">
<title>MixStream</title>
<!-- Node1 -->
<g id="node1" class="node"><title>Node1</title>
<polygon fill="#bfbfbf" stroke="black" points="16,-0.5 16,-21.5 80,-21.5 80,-0.5 16,-0.5"/>
<text text-anchor="middle" x="48" y="-8.5" font-family="Helvetica,sans-Serif" font-size="10.00">MixStream</text>
</g>
<!-- Node2 -->
<g id="node2" class="node"><title>Node2</title>
<a xlink:href="classthrill_1_1data_1_1Stream.html" target="_top" xlink:title="Base class for common structures for ConcatStream and MixedStream.">
<polygon fill="none" stroke="black" points="24,-58.5 24,-79.5 72,-79.5 72,-58.5 24,-58.5"/>
<text text-anchor="middle" x="48" y="-66.5" font-family="Helvetica,sans-Serif" font-size="10.00">Stream</text>
</a>
</g>
<!-- Node2&#45;&gt;Node1 -->
<g id="edge2" class="edge"><title>Node2&#45;&gt;Node1</title>
<path fill="none" stroke="midnightblue" d="M48,-48.1906C48,-39.1684 48,-28.9941 48,-21.5707"/>
<polygon fill="midnightblue" stroke="midnightblue" points="44.5001,-48.3619 48,-58.3619 51.5001,-48.3619 44.5001,-48.3619"/>
</g>
<!-- Node3 -->
<g id="node4" class="node"><title>Node3</title>
<a xlink:href="classtlx_1_1ReferenceCounter.html" target="_top" xlink:title="Provides reference counting abilities for use with CountingPtr.">
<polygon fill="none" stroke="black" points="0,-116.5 0,-137.5 96,-137.5 96,-116.5 0,-116.5"/>
<text text-anchor="middle" x="48" y="-124.5" font-family="Helvetica,sans-Serif" font-size="10.00">ReferenceCounter</text>
</a>
</g>
<!-- Node3&#45;&gt;Node2 -->
<g id="edge4" class="edge"><title>Node3&#45;&gt;Node2</title>
<path fill="none" stroke="midnightblue" d="M48,-106.191C48,-97.1684 48,-86.9941 48,-79.5707"/>
<polygon fill="midnightblue" stroke="midnightblue" points="44.5001,-106.362 48,-116.362 51.5001,-106.362 44.5001,-106.362"/>
</g>
</g>
</svg>
