<?xml version="1.0" encoding="UTF-8" standalone="no"?>
<!DOCTYPE svg PUBLIC "-//W3C//DTD SVG 1.1//EN"
 "http://www.w3.org/Graphics/SVG/1.1/DTD/svg11.dtd">
<!-- Generated by graphviz version 2.26.3 (20100126.1600)
 -->
<!-- Title: SortNode&lt; ValueType, CompareFunction, SortAlgorithm &gt; Pages: 1 -->
<svg width="2132pt" height="767pt"
 viewBox="0.00 0.00 2132.00 767.00" xmlns="http://www.w3.org/2000/svg" xmlns:xlink="http://www.w3.org/1999/xlink">
<g id="graph1" class="graph" transform="scale(1 1) rotate(0) translate(4 763)">
<title>SortNode&lt; ValueType, CompareFunction, SortAlgorithm &gt;</title>
<!-- Node1 -->
<g id="node1" class="node"><title>Node1</title>
<polygon fill="#bfbfbf" stroke="black" points="1952.5,-279 1952.5,-313 2123.5,-313 2123.5,-279 1952.5,-279"/>
<text text-anchor="start" x="1960.5" y="-300" font-family="Helvetica,sans-Serif" font-size="10.00">SortNode&lt; ValueType,</text>
<text text-anchor="middle" x="2038" y="-287" font-family="Helvetica,sans-Serif" font-size="10.00"> CompareFunction, SortAlgorithm &gt;</text>
</g>
<!-- Node2 -->
<g id="node2" class="node"><title>Node2</title>
<a xlink:href="classthrill_1_1api_1_1DOpNode.html" target="_top" xlink:title="A DOpNode is a typed node representing and distributed operations in Thrill.">
<polygon fill="none" stroke="black" points="1788.5,-243.5 1788.5,-264.5 1913.5,-264.5 1913.5,-243.5 1788.5,-243.5"/>
<text text-anchor="middle" x="1851" y="-251.5" font-family="Helvetica,sans-Serif" font-size="10.00">DOpNode&lt; ValueType &gt;</text>
</a>
</g>
<!-- Node2&#45;&gt;Node1 -->
<g id="edge2" class="edge"><title>Node2&#45;&gt;Node1</title>
<path fill="none" stroke="midnightblue" d="M1907.99,-266.799C1925.04,-270.629 1944.02,-274.891 1962.08,-278.949"/>
<polygon fill="midnightblue" stroke="midnightblue" points="1908.71,-263.375 1898.19,-264.598 1907.18,-270.205 1908.71,-263.375"/>
</g>
<!-- Node3 -->
<g id="node4" class="node"><title>Node3</title>
<a xlink:href="classthrill_1_1api_1_1DIANode.html" target="_top" xlink:title="A DIANode is a typed node representing and operation in Thrill.">
<polygon fill="none" stroke="black" points="1566,-235.5 1566,-256.5 1688,-256.5 1688,-235.5 1566,-235.5"/>
<text text-anchor="middle" x="1627" y="-243.5" font-family="Helvetica,sans-Serif" font-size="10.00">DIANode&lt; ValueType &gt;</text>
</a>
</g>
<!-- Node3&#45;&gt;Node2 -->
<g id="edge4" class="edge"><title>Node3&#45;&gt;Node2</title>
<path fill="none" stroke="midnightblue" d="M1698.25,-248.545C1727.18,-249.578 1760.31,-250.761 1788.31,-251.761"/>
<polygon fill="midnightblue" stroke="midnightblue" points="1698.33,-245.045 1688.21,-248.186 1698.08,-252.041 1698.33,-245.045"/>
</g>
<!-- Node4 -->
<g id="node6" class="node"><title>Node4</title>
<a xlink:href="classthrill_1_1api_1_1DIABase.html" target="_top" xlink:title="The DIABase is the untyped super class of DIANode.">
<polygon fill="none" stroke="black" points="1466,-202.5 1466,-223.5 1522,-223.5 1522,-202.5 1466,-202.5"/>
<text text-anchor="middle" x="1494" y="-210.5" font-family="Helvetica,sans-Serif" font-size="10.00">DIABase</text>
</a>
</g>
<!-- Node4&#45;&gt;Node3 -->
<g id="edge6" class="edge"><title>Node4&#45;&gt;Node3</title>
<path fill="none" stroke="midnightblue" d="M1532.03,-222.435C1548.47,-226.516 1567.78,-231.306 1584.68,-235.499"/>
<polygon fill="midnightblue" stroke="midnightblue" points="1532.75,-219.01 1522.21,-219.998 1531.07,-225.804 1532.75,-219.01"/>
</g>
<!-- Node5 -->
<g id="node8" class="node"><title>Node5</title>
<a xlink:href="classtlx_1_1ReferenceCounter.html" target="_top" xlink:title="Provides reference counting abilities for use with CountingPtr.">
<polygon fill="none" stroke="black" points="1274,-248.5 1274,-269.5 1370,-269.5 1370,-248.5 1274,-248.5"/>
<text text-anchor="middle" x="1322" y="-256.5" font-family="Helvetica,sans-Serif" font-size="10.00">ReferenceCounter</text>
</a>
</g>
<!-- Node5&#45;&gt;Node4 -->
<g id="edge8" class="edge"><title>Node5&#45;&gt;Node4</title>
<path fill="none" stroke="midnightblue" d="M1371.67,-245.782C1393.28,-240.025 1418.9,-233.191 1442,-227 1449.77,-224.919 1458.18,-222.656 1465.94,-220.569"/>
<polygon fill="midnightblue" stroke="midnightblue" points="1370.5,-242.474 1361.73,-248.43 1372.3,-249.238 1370.5,-242.474"/>
</g>
<!-- Node30 -->
<g id="node73" class="node"><title>Node30</title>
<a xlink:href="classthrill_1_1data_1_1File.html" target="_top" xlink:title="A File is an ordered sequence of Block objects for storing items.">
<polygon fill="none" stroke="black" points="1478,-285.5 1478,-306.5 1510,-306.5 1510,-285.5 1478,-285.5"/>
<text text-anchor="middle" x="1494" y="-293.5" font-family="Helvetica,sans-Serif" font-size="10.00">File</text>
</a>
</g>
<!-- Node5&#45;&gt;Node30 -->
<g id="edge94" class="edge"><title>Node5&#45;&gt;Node30</title>
<path fill="none" stroke="midnightblue" d="M1380.3,-271.542C1414.59,-278.917 1455.44,-287.705 1477.65,-292.482"/>
<polygon fill="midnightblue" stroke="midnightblue" points="1380.88,-268.086 1370.37,-269.405 1379.41,-274.93 1380.88,-268.086"/>
</g>
<!-- Node6 -->
<g id="node10" class="node"><title>Node6</title>
<a xlink:href="classthrill_1_1api_1_1Context.html" target="_top" xlink:title="The Context of a job is a unique instance per worker which holds references to all underlying parts o...">
<polygon fill="none" stroke="black" points="1296.5,-202.5 1296.5,-223.5 1347.5,-223.5 1347.5,-202.5 1296.5,-202.5"/>
<text text-anchor="middle" x="1322" y="-210.5" font-family="Helvetica,sans-Serif" font-size="10.00">Context</text>
</a>
</g>
<!-- Node6&#45;&gt;Node4 -->
<g id="edge10" class="edge"><title>Node6&#45;&gt;Node4</title>
<path fill="none" stroke="#9a32cd" stroke-dasharray="5,2" d="M1358.03,-213C1390.1,-213 1436.34,-213 1465.78,-213"/>
<polygon fill="#9a32cd" stroke="#9a32cd" points="1357.75,-209.5 1347.75,-213 1357.75,-216.5 1357.75,-209.5"/>
<text text-anchor="middle" x="1415" y="-217" font-family="Helvetica,sans-Serif" font-size="10.00"> context_</text>
</g>
<!-- Node7 -->
<g id="node12" class="node"><title>Node7</title>
<a xlink:href="exceptionthrill_1_1net_1_1Manager.html" target="_top" xlink:title="Initializes communication channels, manages communication channels and handles errors.">
<polygon fill="none" stroke="black" points="503,-176.5 503,-197.5 557,-197.5 557,-176.5 503,-176.5"/>
<text text-anchor="middle" x="530" y="-184.5" font-family="Helvetica,sans-Serif" font-size="10.00">Manager</text>
</a>
</g>
<!-- Node7&#45;&gt;Node6 -->
<g id="edge76" class="edge"><title>Node7&#45;&gt;Node6</title>
<path fill="none" stroke="#9a32cd" stroke-dasharray="5,2" d="M567.326,-185.477C583.514,-184.889 602.689,-184.288 620,-184 676.881,-183.052 691.126,-182.678 748,-184 973.969,-189.252 1030.4,-194.043 1256,-208 1269.3,-208.823 1284.1,-209.927 1296.31,-210.888"/>
<polygon fill="#9a32cd" stroke="#9a32cd" points="567.031,-181.986 557.169,-185.859 567.293,-188.981 567.031,-181.986"/>
<text text-anchor="middle" x="957" y="-196" font-family="Helvetica,sans-Serif" font-size="10.00"> mem_manager_</text>
</g>
<!-- Node7&#45;&gt;Node6 -->
<g id="edge12" class="edge"><title>Node7&#45;&gt;Node6</title>
<path fill="none" stroke="#9a32cd" stroke-dasharray="5,2" d="M558.346,-171.782C575.651,-163.245 598.512,-153.278 620,-148 786.85,-107.019 834.342,-119.803 1006,-127 1117.4,-131.671 1166.37,-81.6757 1256,-148 1273.32,-160.813 1258.88,-177.66 1274,-193 1280.08,-199.172 1288.36,-203.527 1296.32,-206.561"/>
<polygon fill="#9a32cd" stroke="#9a32cd" points="556.689,-168.698 549.348,-176.339 559.851,-174.943 556.689,-168.698"/>
<text text-anchor="middle" x="957" y="-131" font-family="Helvetica,sans-Serif" font-size="10.00"> net_manager_</text>
</g>
<!-- Node22 -->
<g id="node46" class="node"><title>Node22</title>
<a xlink:href="classthrill_1_1data_1_1Multiplexer.html" target="_top" xlink:title="Multiplexes virtual Connections on Dispatcher.">
<polygon fill="none" stroke="black" points="1064,-284.5 1064,-305.5 1128,-305.5 1128,-284.5 1064,-284.5"/>
<text text-anchor="middle" x="1096" y="-292.5" font-family="Helvetica,sans-Serif" font-size="10.00">Multiplexer</text>
</a>
</g>
<!-- Node7&#45;&gt;Node22 -->
<g id="edge70" class="edge"><title>Node7&#45;&gt;Node22</title>
<path fill="none" stroke="#9a32cd" stroke-dasharray="5,2" d="M567.349,-187.07C666.978,-187.952 936.218,-195.106 1006,-246 1018.26,-254.939 1011.86,-265.903 1024,-275 1035.52,-283.636 1050.59,-288.543 1063.96,-291.331"/>
<polygon fill="#9a32cd" stroke="#9a32cd" points="567.177,-183.568 557.152,-186.996 567.127,-190.568 567.177,-183.568"/>
<text text-anchor="middle" x="828" y="-212" font-family="Helvetica,sans-Serif" font-size="10.00"> mem_manager_</text>
</g>
<!-- Node23 -->
<g id="node48" class="node"><title>Node23</title>
<a xlink:href="classthrill_1_1net_1_1DispatcherThread.html" target="_top" xlink:title="DispatcherThread contains a net::Dispatcher object and an associated thread that runs in the dispatch...">
<polygon fill="none" stroke="black" points="781,-297.5 781,-318.5 875,-318.5 875,-297.5 781,-297.5"/>
<text text-anchor="middle" x="828" y="-305.5" font-family="Helvetica,sans-Serif" font-size="10.00">DispatcherThread</text>
</a>
</g>
<!-- Node7&#45;&gt;Node23 -->
<g id="edge58" class="edge"><title>Node7&#45;&gt;Node23</title>
<path fill="none" stroke="#9a32cd" stroke-dasharray="5,2" d="M567.121,-194.877C579.086,-198.669 591.862,-204.156 602,-212 613.407,-220.825 608.532,-230.254 620,-239 667.799,-275.454 735.827,-293.193 780.907,-301.433"/>
<polygon fill="#9a32cd" stroke="#9a32cd" points="567.913,-191.464 557.336,-192.077 565.987,-198.194 567.913,-191.464"/>
<text text-anchor="middle" x="684" y="-298" font-family="Helvetica,sans-Serif" font-size="10.00"> mem_manager_</text>
</g>
<!-- Node26 -->
<g id="node56" class="node"><title>Node26</title>
<a xlink:href="classthrill_1_1data_1_1BlockPool.html" target="_top" xlink:title="Pool to allocate, keep, swap out/in, and free all ByteBlocks on the host.">
<polygon fill="none" stroke="black" points="797.5,-239.5 797.5,-260.5 858.5,-260.5 858.5,-239.5 797.5,-239.5"/>
<text text-anchor="middle" x="828" y="-247.5" font-family="Helvetica,sans-Serif" font-size="10.00">BlockPool</text>
</a>
</g>
<!-- Node7&#45;&gt;Node26 -->
<g id="edge68" class="edge"><title>Node7&#45;&gt;Node26</title>
<path fill="none" stroke="#9a32cd" stroke-dasharray="5,2" d="M567.39,-192.184C620.367,-199.67 714.556,-213.534 748,-222 766.259,-226.622 786.259,-233.622 801.694,-239.467"/>
<polygon fill="#9a32cd" stroke="#9a32cd" points="567.764,-188.702 557.374,-190.776 566.789,-195.634 567.764,-188.702"/>
<text text-anchor="middle" x="684" y="-226" font-family="Helvetica,sans-Serif" font-size="10.00"> mem_manager_</text>
</g>
<!-- Node8 -->
<g id="node14" class="node"><title>Node8</title>
<a xlink:href="classthrill_1_1common_1_1ProfileTask.html" target="_top" xlink:title="ProfileTask">
<polygon fill="none" stroke="black" points="194,-251.5 194,-272.5 260,-272.5 260,-251.5 194,-251.5"/>
<text text-anchor="middle" x="227" y="-259.5" font-family="Helvetica,sans-Serif" font-size="10.00">ProfileTask</text>
</a>
</g>
<!-- Node8&#45;&gt;Node7 -->
<g id="edge14" class="edge"><title>Node8&#45;&gt;Node7</title>
<path fill="none" stroke="midnightblue" d="M270.074,-251.338C333.459,-235.649 450.036,-206.793 502.793,-193.734"/>
<polygon fill="midnightblue" stroke="midnightblue" points="268.869,-248.031 260.003,-253.831 270.551,-254.826 268.869,-248.031"/>
</g>
<!-- Node8&#45;&gt;Node26 -->
<g id="edge64" class="edge"><title>Node8&#45;&gt;Node26</title>
<path fill="none" stroke="midnightblue" d="M270.311,-263.884C359.718,-267.34 571.149,-273.272 748,-261 764.364,-259.864 782.48,-257.469 797.329,-255.203"/>
<polygon fill="midnightblue" stroke="midnightblue" points="270.405,-260.385 260.275,-263.486 270.128,-267.38 270.405,-260.385"/>
</g>
<!-- Node9 -->
<g id="node16" class="node"><title>Node9</title>
<a xlink:href="classthrill_1_1common_1_1JsonLogger.html" target="_top" xlink:title="JsonLogger is a receiver of JSON output objects for logging.">
<polygon fill="none" stroke="black" points="193.5,-126.5 193.5,-147.5 260.5,-147.5 260.5,-126.5 193.5,-126.5"/>
<text text-anchor="middle" x="227" y="-134.5" font-family="Helvetica,sans-Serif" font-size="10.00">JsonLogger</text>
</a>
</g>
<!-- Node9&#45;&gt;Node4 -->
<g id="edge78" class="edge"><title>Node9&#45;&gt;Node4</title>
<path fill="none" stroke="#9a32cd" stroke-dasharray="5,2" d="M247.544,-120.228C294.49,-83.659 414.509,-0 530,-0 530,-0 530,-0 1322,-0 1427.28,-0 1479.14,-159.458 1491.21,-202.437"/>
<polygon fill="#9a32cd" stroke="#9a32cd" points="245.316,-117.527 239.646,-126.477 249.66,-123.017 245.316,-117.527"/>
<text text-anchor="middle" x="957" y="-4" font-family="Helvetica,sans-Serif" font-size="10.00"> logger_</text>
</g>
<!-- Node9&#45;&gt;Node6 -->
<g id="edge48" class="edge"><title>Node9&#45;&gt;Node6</title>
<path fill="none" stroke="#9a32cd" stroke-dasharray="5,2" d="M270.772,-130.834C376.849,-116.559 656.148,-82.978 890,-90 1052.89,-94.8911 1132,-6.26198 1256,-112 1284.06,-135.929 1250.32,-164.731 1274,-193 1279.68,-199.782 1288.05,-204.302 1296.21,-207.299"/>
<polygon fill="#9a32cd" stroke="#9a32cd" points="270.198,-127.379 260.76,-132.193 271.14,-134.316 270.198,-127.379"/>
<text text-anchor="middle" x="828" y="-107" font-family="Helvetica,sans-Serif" font-size="10.00"> logger_</text>
<text text-anchor="middle" x="828" y="-94" font-family="Helvetica,sans-Serif" font-size="10.00">base_logger_</text>
</g>
<!-- Node9&#45;&gt;Node7 -->
<g id="edge16" class="edge"><title>Node9&#45;&gt;Node7</title>
<path fill="none" stroke="#9a32cd" stroke-dasharray="5,2" d="M270.693,-144.21C334.265,-154.7 450.39,-173.863 502.917,-182.531"/>
<polygon fill="#9a32cd" stroke="#9a32cd" points="271.02,-140.717 260.584,-142.542 269.881,-147.623 271.02,-140.717"/>
<text text-anchor="middle" x="376" y="-174" font-family="Helvetica,sans-Serif" font-size="10.00"> logger_</text>
</g>
<!-- Node9&#45;&gt;Node9 -->
<g id="edge20" class="edge"><title>Node9&#45;&gt;Node9</title>
<path fill="none" stroke="#9a32cd" stroke-dasharray="5,2" d="M207.097,-157.427C208.632,-162.349 215.267,-166 227,-166 245.773,-166 251.493,-156.653 244.16,-147.708"/>
<polygon fill="#9a32cd" stroke="#9a32cd" points="210.492,-158.283 209.84,-147.708 203.755,-156.381 210.492,-158.283"/>
<text text-anchor="middle" x="227" y="-170" font-family="Helvetica,sans-Serif" font-size="10.00"> super_</text>
</g>
<!-- Node9&#45;&gt;Node26 -->
<g id="edge66" class="edge"><title>Node9&#45;&gt;Node26</title>
<path fill="none" stroke="#9a32cd" stroke-dasharray="5,2" d="M249.616,-153.512C266.103,-164.725 289.418,-178.932 312,-187 487.497,-249.705 715.613,-252.241 797.269,-250.878"/>
<polygon fill="#9a32cd" stroke="#9a32cd" points="251.411,-150.497 241.207,-147.649 247.408,-156.239 251.411,-150.497"/>
<text text-anchor="middle" x="530" y="-247" font-family="Helvetica,sans-Serif" font-size="10.00"> logger_</text>
</g>
<!-- Node10 -->
<g id="node18" class="node"><title>Node10</title>
<a xlink:href="classthrill_1_1common_1_1JsonVerbatim.html" target="_top" xlink:title="A special class to output verbatim text.">
<polygon fill="none" stroke="black" points="0.5,-126.5 0.5,-147.5 77.5,-147.5 77.5,-126.5 0.5,-126.5"/>
<text text-anchor="middle" x="39" y="-134.5" font-family="Helvetica,sans-Serif" font-size="10.00">JsonVerbatim</text>
</a>
</g>
<!-- Node10&#45;&gt;Node9 -->
<g id="edge18" class="edge"><title>Node10&#45;&gt;Node9</title>
<path fill="none" stroke="#9a32cd" stroke-dasharray="5,2" d="M88.3395,-137C121.461,-137 164.221,-137 193.445,-137"/>
<polygon fill="#9a32cd" stroke="#9a32cd" points="87.9538,-133.5 77.9537,-137 87.9537,-140.5 87.9538,-133.5"/>
<text text-anchor="middle" x="119" y="-141" font-family="Helvetica,sans-Serif" font-size="10.00"> common_</text>
</g>
<!-- Node11 -->
<g id="node21" class="node"><title>Node11</title>
<a xlink:href="classthrill_1_1net_1_1FlowControlChannel.html" target="_top" xlink:title="Provides a blocking collection for communication.">
<polygon fill="none" stroke="black" points="1043.5,-437.5 1043.5,-458.5 1148.5,-458.5 1148.5,-437.5 1043.5,-437.5"/>
<text text-anchor="middle" x="1096" y="-445.5" font-family="Helvetica,sans-Serif" font-size="10.00">FlowControlChannel</text>
</a>
</g>
<!-- Node11&#45;&gt;Node6 -->
<g id="edge22" class="edge"><title>Node11&#45;&gt;Node6</title>
<path fill="none" stroke="#9a32cd" stroke-dasharray="5,2" d="M1148.58,-434.186C1184.68,-421.867 1230.51,-400.066 1256,-364 1288.39,-318.162 1241.91,-285.048 1274,-239 1279.42,-231.225 1287.93,-225.557 1296.29,-221.536"/>
<polygon fill="#9a32cd" stroke="#9a32cd" points="1147.1,-430.985 1138.68,-437.413 1149.27,-437.641 1147.1,-430.985"/>
<text text-anchor="middle" x="1221" y="-421" font-family="Helvetica,sans-Serif" font-size="10.00"> net</text>
</g>
<!-- Node12 -->
<g id="node23" class="node"><title>Node12</title>
<a xlink:href="classthrill_1_1net_1_1FlowControlChannel_1_1LocalData.html" target="_top" xlink:title="LocalData">
<polygon fill="none" stroke="black" points="797.5,-445.5 797.5,-466.5 858.5,-466.5 858.5,-445.5 797.5,-445.5"/>
<text text-anchor="middle" x="828" y="-453.5" font-family="Helvetica,sans-Serif" font-size="10.00">LocalData</text>
</a>
</g>
<!-- Node12&#45;&gt;Node11 -->
<g id="edge24" class="edge"><title>Node12&#45;&gt;Node11</title>
<path fill="none" stroke="#9a32cd" stroke-dasharray="5,2" d="M868.803,-454.782C915.508,-453.388 992.139,-451.1 1043.32,-449.573"/>
<polygon fill="#9a32cd" stroke="#9a32cd" points="868.634,-451.285 858.743,-455.082 868.843,-458.282 868.634,-451.285"/>
<text text-anchor="middle" x="957" y="-457" font-family="Helvetica,sans-Serif" font-size="10.00"> shmem_</text>
</g>
<!-- Node13 -->
<g id="node25" class="node"><title>Node13</title>
<a xlink:href="classthrill_1_1net_1_1Group.html" target="_top" xlink:title="A network Group is a collection of enumerated communication links, which provides point&#45;to&#45;point comm...">
<polygon fill="none" stroke="black" points="806.5,-352.5 806.5,-373.5 849.5,-373.5 849.5,-352.5 806.5,-352.5"/>
<text text-anchor="middle" x="828" y="-360.5" font-family="Helvetica,sans-Serif" font-size="10.00">Group</text>
</a>
</g>
<!-- Node13&#45;&gt;Node11 -->
<g id="edge26" class="edge"><title>Node13&#45;&gt;Node11</title>
<path fill="none" stroke="#9a32cd" stroke-dasharray="5,2" d="M859.44,-368.309C895.468,-374.874 955.984,-387.38 1006,-405 1031.32,-413.919 1058.97,-427.801 1076.85,-437.367"/>
<polygon fill="#9a32cd" stroke="#9a32cd" points="859.98,-364.85 849.52,-366.54 858.75,-371.742 859.98,-364.85"/>
<text text-anchor="middle" x="957" y="-409" font-family="Helvetica,sans-Serif" font-size="10.00"> group_</text>
</g>
<!-- Node13&#45;&gt;Node22 -->
<g id="edge60" class="edge"><title>Node13&#45;&gt;Node22</title>
<path fill="none" stroke="#9a32cd" stroke-dasharray="5,2" d="M853.952,-347.394C869.192,-338.91 889.115,-328.961 908,-323 961.024,-306.263 1025.69,-299.428 1063.71,-296.711"/>
<polygon fill="#9a32cd" stroke="#9a32cd" points="852.067,-344.439 845.119,-352.438 855.539,-350.518 852.067,-344.439"/>
<text text-anchor="middle" x="957" y="-327" font-family="Helvetica,sans-Serif" font-size="10.00"> group_</text>
</g>
<!-- Node14 -->
<g id="node27" class="node"><title>Node14</title>
<a xlink:href="classthrill_1_1common_1_1AtomicMovable.html" target="_top" xlink:title="AtomicMovable\&lt; size_t \&gt;">
<polygon fill="none" stroke="black" points="620,-480.5 620,-501.5 748,-501.5 748,-480.5 620,-480.5"/>
<text text-anchor="middle" x="684" y="-488.5" font-family="Helvetica,sans-Serif" font-size="10.00">AtomicMovable&lt; size_t &gt;</text>
</a>
</g>
<!-- Node14&#45;&gt;Node11 -->
<g id="edge28" class="edge"><title>Node14&#45;&gt;Node11</title>
<path fill="none" stroke="#9a32cd" stroke-dasharray="5,2" d="M758.433,-489.825C823.954,-487.916 921.772,-482.94 1006,-470 1023.65,-467.289 1042.91,-462.793 1059.07,-458.569"/>
<polygon fill="#9a32cd" stroke="#9a32cd" points="758.101,-486.332 748.201,-490.105 758.293,-493.33 758.101,-486.332"/>
<text text-anchor="middle" x="828" y="-558" font-family="Helvetica,sans-Serif" font-size="10.00"> count_allreduce_</text>
<text text-anchor="middle" x="828" y="-545" font-family="Helvetica,sans-Serif" font-size="10.00">count_broadcast_</text>
<text text-anchor="middle" x="828" y="-532" font-family="Helvetica,sans-Serif" font-size="10.00">count_reduce_</text>
<text text-anchor="middle" x="828" y="-519" font-family="Helvetica,sans-Serif" font-size="10.00">count_prefixsum_</text>
<text text-anchor="middle" x="828" y="-506" font-family="Helvetica,sans-Serif" font-size="10.00">count_barrier_</text>
<text text-anchor="middle" x="828" y="-493" font-family="Helvetica,sans-Serif" font-size="10.00">count_predecessor_</text>
</g>
<!-- Node15 -->
<g id="node29" class="node"><title>Node15</title>
<a xlink:href="classthrill_1_1common_1_1AtomicMovable.html" target="_top" xlink:title="This is a derivative of std::atomic which enables easier and less error&#45;prone writing of move&#45;only cl...">
<polygon fill="none" stroke="black" points="173,-436.5 173,-457.5 281,-457.5 281,-436.5 173,-436.5"/>
<text text-anchor="middle" x="227" y="-444.5" font-family="Helvetica,sans-Serif" font-size="10.00">AtomicMovable&lt; T &gt;</text>
</a>
</g>
<!-- Node15&#45;&gt;Node14 -->
<g id="edge30" class="edge"><title>Node15&#45;&gt;Node14</title>
<path fill="none" stroke="orange" stroke-dasharray="5,2" d="M291.238,-453.185C378.331,-461.57 532.96,-476.458 619.954,-484.834"/>
<polygon fill="orange" stroke="orange" points="291.508,-449.695 281.219,-452.22 290.837,-456.663 291.508,-449.695"/>
<text text-anchor="middle" x="376" y="-471" font-family="Helvetica,sans-Serif" font-size="10.00"> &lt; size_t &gt;</text>
</g>
<!-- Node17 -->
<g id="node33" class="node"><title>Node17</title>
<a xlink:href="classthrill_1_1common_1_1AtomicMovable.html" target="_top" xlink:title="AtomicMovable\&lt; uint64_t \&gt;">
<polygon fill="none" stroke="black" points="461.5,-411.5 461.5,-432.5 598.5,-432.5 598.5,-411.5 461.5,-411.5"/>
<text text-anchor="middle" x="530" y="-419.5" font-family="Helvetica,sans-Serif" font-size="10.00">AtomicMovable&lt; uint64_t &gt;</text>
</a>
</g>
<!-- Node15&#45;&gt;Node17 -->
<g id="edge36" class="edge"><title>Node15&#45;&gt;Node17</title>
<path fill="none" stroke="orange" stroke-dasharray="5,2" d="M291.067,-434.788C298.112,-433.715 305.195,-432.753 312,-432 361.707,-426.497 418.113,-424.01 461.094,-422.892"/>
<polygon fill="orange" stroke="orange" points="290.131,-431.393 280.808,-436.427 291.235,-438.305 290.131,-431.393"/>
<text text-anchor="middle" x="376" y="-436" font-family="Helvetica,sans-Serif" font-size="10.00"> &lt; uint64_t &gt;</text>
</g>
<!-- Node16 -->
<g id="node31" class="node"><title>Node16</title>
<a xlink:href="classthrill_1_1common_1_1ThreadBarrierSpinning.html" target="_top" xlink:title="Implements a cyclic barrier using atomics and a spin lock that can be used to synchronize threads...">
<polygon fill="none" stroke="black" points="771.5,-405.5 771.5,-426.5 884.5,-426.5 884.5,-405.5 771.5,-405.5"/>
<text text-anchor="middle" x="828" y="-413.5" font-family="Helvetica,sans-Serif" font-size="10.00">ThreadBarrierSpinning</text>
</a>
</g>
<!-- Node16&#45;&gt;Node11 -->
<g id="edge32" class="edge"><title>Node16&#45;&gt;Node11</title>
<path fill="none" stroke="#9a32cd" stroke-dasharray="5,2" d="M894.756,-421.262C928.215,-424.182 969.318,-428.197 1006,-433 1018.09,-434.583 1031.05,-436.571 1043.27,-438.577"/>
<polygon fill="#9a32cd" stroke="#9a32cd" points="894.894,-417.761 884.631,-420.391 894.294,-424.735 894.894,-417.761"/>
<text text-anchor="middle" x="957" y="-437" font-family="Helvetica,sans-Serif" font-size="10.00"> barrier_</text>
</g>
<!-- Node17&#45;&gt;Node16 -->
<g id="edge34" class="edge"><title>Node17&#45;&gt;Node16</title>
<path fill="none" stroke="#9a32cd" stroke-dasharray="5,2" d="M608.749,-420.414C659.788,-419.387 725.088,-418.072 771.104,-417.146"/>
<polygon fill="#9a32cd" stroke="#9a32cd" points="608.669,-416.915 598.741,-420.616 608.81,-423.914 608.669,-416.915"/>
<text text-anchor="middle" x="684" y="-424" font-family="Helvetica,sans-Serif" font-size="10.00"> wait_time_</text>
</g>
<!-- Node18 -->
<g id="node36" class="node"><title>Node18</title>
<a xlink:href="classthrill_1_1common_1_1StatsTimerBaseStopped.html" target="_top" xlink:title="StatsTimerBaseStopped\l\&lt; enable_stats \&gt;">
<polygon fill="none" stroke="black" points="766.5,-602 766.5,-636 889.5,-636 889.5,-602 766.5,-602"/>
<text text-anchor="start" x="774.5" y="-623" font-family="Helvetica,sans-Serif" font-size="10.00">StatsTimerBaseStopped</text>
<text text-anchor="middle" x="828" y="-610" font-family="Helvetica,sans-Serif" font-size="10.00">&lt; enable_stats &gt;</text>
</a>
</g>
<!-- Node18&#45;&gt;Node11 -->
<g id="edge38" class="edge"><title>Node18&#45;&gt;Node11</title>
<path fill="none" stroke="#9a32cd" stroke-dasharray="5,2" d="M877.554,-596.291C882.121,-592.933 886.382,-589.175 890,-585 904.92,-567.781 890.89,-552.045 908,-537 941.597,-507.457 965.364,-532.717 1006,-514 1037.33,-499.571 1068.6,-473.299 1084.75,-458.629"/>
<polygon fill="#9a32cd" stroke="#9a32cd" points="875.479,-593.467 869.075,-601.908 879.345,-599.303 875.479,-593.467"/>
<text text-anchor="start" x="908.5" y="-697" font-family="Helvetica,sans-Serif" font-size="10.00"> timer_communication</text>
<text text-anchor="middle" x="957" y="-684" font-family="Helvetica,sans-Serif" font-size="10.00">_</text>
<text text-anchor="start" x="908.5" y="-671" font-family="Helvetica,sans-Serif" font-size="10.00">timer_predecessor</text>
<text text-anchor="middle" x="957" y="-658" font-family="Helvetica,sans-Serif" font-size="10.00">_</text>
<text text-anchor="start" x="908.5" y="-645" font-family="Helvetica,sans-Serif" font-size="10.00">timer_allreduce</text>
<text text-anchor="middle" x="957" y="-632" font-family="Helvetica,sans-Serif" font-size="10.00">_</text>
<text text-anchor="start" x="908.5" y="-619" font-family="Helvetica,sans-Serif" font-size="10.00">timer_barrier</text>
<text text-anchor="middle" x="957" y="-606" font-family="Helvetica,sans-Serif" font-size="10.00">_</text>
<text text-anchor="start" x="908.5" y="-593" font-family="Helvetica,sans-Serif" font-size="10.00">timer_prefixsum</text>
<text text-anchor="middle" x="957" y="-580" font-family="Helvetica,sans-Serif" font-size="10.00">_</text>
<text text-anchor="start" x="908.5" y="-567" font-family="Helvetica,sans-Serif" font-size="10.00">timer_broadcast</text>
<text text-anchor="middle" x="957" y="-554" font-family="Helvetica,sans-Serif" font-size="10.00">_</text>
<text text-anchor="middle" x="957" y="-541" font-family="Helvetica,sans-Serif" font-size="10.00">timer_reduce_</text>
</g>
<!-- Node19 -->
<g id="node38" class="node"><title>Node19</title>
<a xlink:href="classthrill_1_1common_1_1StatsTimerBase.html" target="_top" xlink:title="This class provides a statistical stop watch timer that can easily be deactivated using a boolean tem...">
<polygon fill="none" stroke="black" points="160.5,-656.5 160.5,-677.5 293.5,-677.5 293.5,-656.5 160.5,-656.5"/>
<text text-anchor="middle" x="227" y="-664.5" font-family="Helvetica,sans-Serif" font-size="10.00">StatsTimerBase&lt; Active &gt;</text>
</a>
</g>
<!-- Node19&#45;&gt;Node18 -->
<g id="edge40" class="edge"><title>Node19&#45;&gt;Node18</title>
<path fill="none" stroke="midnightblue" d="M303.587,-657.355C348.514,-651.954 406.413,-645.434 458,-641 566.351,-631.688 692.893,-625.083 766.388,-621.669"/>
<polygon fill="midnightblue" stroke="midnightblue" points="303.132,-653.885 293.624,-658.56 303.972,-660.834 303.132,-653.885"/>
</g>
<!-- Node20 -->
<g id="node40" class="node"><title>Node20</title>
<a xlink:href="classthrill_1_1common_1_1StatsTimerBaseStopped.html" target="_top" xlink:title="StatsTimerBaseStopped\l\&lt; Active \&gt;">
<polygon fill="none" stroke="black" points="468.5,-650 468.5,-684 591.5,-684 591.5,-650 468.5,-650"/>
<text text-anchor="start" x="476.5" y="-671" font-family="Helvetica,sans-Serif" font-size="10.00">StatsTimerBaseStopped</text>
<text text-anchor="middle" x="530" y="-658" font-family="Helvetica,sans-Serif" font-size="10.00">&lt; Active &gt;</text>
</a>
</g>
<!-- Node19&#45;&gt;Node20 -->
<g id="edge44" class="edge"><title>Node19&#45;&gt;Node20</title>
<path fill="none" stroke="midnightblue" d="M304.18,-667C355.144,-667 421.023,-667 468.457,-667"/>
<polygon fill="midnightblue" stroke="midnightblue" points="303.87,-663.5 293.87,-667 303.87,-670.5 303.87,-663.5"/>
</g>
<!-- Node29 -->
<g id="node69" class="node"><title>Node29</title>
<a xlink:href="classthrill_1_1common_1_1StatsTimerBaseStopped.html" target="_top" xlink:title="StatsTimerBaseStopped\l\&lt; stats_enabled \&gt;">
<polygon fill="none" stroke="black" points="766.5,-699 766.5,-733 889.5,-733 889.5,-699 766.5,-699"/>
<text text-anchor="start" x="774.5" y="-720" font-family="Helvetica,sans-Serif" font-size="10.00">StatsTimerBaseStopped</text>
<text text-anchor="middle" x="828" y="-707" font-family="Helvetica,sans-Serif" font-size="10.00">&lt; stats_enabled &gt;</text>
</a>
</g>
<!-- Node19&#45;&gt;Node29 -->
<g id="edge84" class="edge"><title>Node19&#45;&gt;Node29</title>
<path fill="none" stroke="midnightblue" d="M297.409,-679.05C302.34,-679.754 307.241,-680.413 312,-681 475.303,-701.126 669.213,-710.373 766.235,-714.003"/>
<polygon fill="midnightblue" stroke="midnightblue" points="297.683,-675.552 287.278,-677.549 296.657,-682.477 297.683,-675.552"/>
</g>
<!-- Node20&#45;&gt;Node18 -->
<g id="edge42" class="edge"><title>Node20&#45;&gt;Node18</title>
<path fill="none" stroke="orange" stroke-dasharray="5,2" d="M601.888,-655.421C652.125,-647.329 718.506,-636.637 766.333,-628.933"/>
<polygon fill="orange" stroke="orange" points="601.062,-652.009 591.746,-657.054 602.175,-658.92 601.062,-652.009"/>
<text text-anchor="middle" x="684" y="-655" font-family="Helvetica,sans-Serif" font-size="10.00"> &lt; enable_stats &gt;</text>
</g>
<!-- Node20&#45;&gt;Node29 -->
<g id="edge86" class="edge"><title>Node20&#45;&gt;Node29</title>
<path fill="none" stroke="orange" stroke-dasharray="5,2" d="M601.706,-670.17C644.539,-673.068 699.812,-678.576 748,-689 759.605,-691.51 771.875,-695.135 783.228,-698.918"/>
<polygon fill="orange" stroke="orange" points="601.859,-666.673 591.655,-669.522 601.409,-673.658 601.859,-666.673"/>
<text text-anchor="middle" x="684" y="-693" font-family="Helvetica,sans-Serif" font-size="10.00"> &lt; stats_enabled &gt;</text>
</g>
<!-- Node21 -->
<g id="node43" class="node"><title>Node21</title>
<a xlink:href="classthrill_1_1api_1_1MemoryConfig.html" target="_top" xlink:title="MemoryConfig">
<polygon fill="none" stroke="black" points="1056,-244.5 1056,-265.5 1136,-265.5 1136,-244.5 1056,-244.5"/>
<text text-anchor="middle" x="1096" y="-252.5" font-family="Helvetica,sans-Serif" font-size="10.00">MemoryConfig</text>
</a>
</g>
<!-- Node21&#45;&gt;Node6 -->
<g id="edge46" class="edge"><title>Node21&#45;&gt;Node6</title>
<path fill="none" stroke="#9a32cd" stroke-dasharray="5,2" d="M1146.07,-246.711C1177.65,-241.365 1219.28,-234.106 1256,-227 1269.34,-224.419 1284.14,-221.302 1296.34,-218.666"/>
<polygon fill="#9a32cd" stroke="#9a32cd" points="1145.46,-243.264 1136.18,-248.377 1146.63,-250.166 1145.46,-243.264"/>
<text text-anchor="middle" x="1221" y="-243" font-family="Helvetica,sans-Serif" font-size="10.00"> mem_config_</text>
</g>
<!-- Node22&#45;&gt;Node6 -->
<g id="edge50" class="edge"><title>Node22&#45;&gt;Node6</title>
<path fill="none" stroke="#9a32cd" stroke-dasharray="5,2" d="M1138.05,-290.754C1171.63,-285.99 1219.01,-276.111 1256,-256 1265.67,-250.744 1265.09,-245.453 1274,-239 1281.98,-233.22 1291.4,-227.845 1299.77,-223.5"/>
<polygon fill="#9a32cd" stroke="#9a32cd" points="1137.56,-287.289 1128.1,-292.074 1138.48,-294.228 1137.56,-287.289"/>
<text text-anchor="middle" x="1221" y="-284" font-family="Helvetica,sans-Serif" font-size="10.00"> multiplexer_</text>
</g>
<!-- Node23&#45;&gt;Node22 -->
<g id="edge52" class="edge"><title>Node23&#45;&gt;Node22</title>
<path fill="none" stroke="#9a32cd" stroke-dasharray="5,2" d="M870.155,-294.773C882.25,-291.57 895.539,-288.608 908,-287 962.431,-279.975 1026.39,-285.616 1063.92,-290.324"/>
<polygon fill="#9a32cd" stroke="#9a32cd" points="869.024,-291.454 860.321,-297.496 870.892,-298.201 869.024,-291.454"/>
<text text-anchor="middle" x="957" y="-291" font-family="Helvetica,sans-Serif" font-size="10.00"> dispatcher_</text>
</g>
<!-- Node24 -->
<g id="node50" class="node"><title>Node24</title>
<a xlink:href="classthrill_1_1common_1_1OurConcurrentQueue.html" target="_top" xlink:title="OurConcurrentQueue\l\&lt; tlx::Delegate, mem\l::Allocator\&lt; tlx::Delegate \&gt; \&gt;">
<polygon fill="none" stroke="black" points="458.5,-320.5 458.5,-367.5 601.5,-367.5 601.5,-320.5 458.5,-320.5"/>
<text text-anchor="start" x="466.5" y="-354.5" font-family="Helvetica,sans-Serif" font-size="10.00">OurConcurrentQueue</text>
<text text-anchor="start" x="466.5" y="-341.5" font-family="Helvetica,sans-Serif" font-size="10.00">&lt; tlx::Delegate, mem</text>
<text text-anchor="middle" x="530" y="-328.5" font-family="Helvetica,sans-Serif" font-size="10.00">::Allocator&lt; tlx::Delegate &gt; &gt;</text>
</a>
</g>
<!-- Node24&#45;&gt;Node23 -->
<g id="edge54" class="edge"><title>Node24&#45;&gt;Node23</title>
<path fill="none" stroke="#9a32cd" stroke-dasharray="5,2" d="M612.029,-337.142C652.964,-333.36 703.186,-328.174 748,-322 758.616,-320.537 769.979,-318.709 780.711,-316.862"/>
<polygon fill="#9a32cd" stroke="#9a32cd" points="611.472,-333.679 601.831,-338.074 612.108,-340.65 611.472,-333.679"/>
<text text-anchor="middle" x="684" y="-340" font-family="Helvetica,sans-Serif" font-size="10.00"> jobqueue_</text>
</g>
<!-- Node25 -->
<g id="node52" class="node"><title>Node25</title>
<a xlink:href="classthrill_1_1common_1_1OurConcurrentQueue.html" target="_top" xlink:title="This is a queue, similar to std::queue and tbb::concurrent_queue, except that it uses mutexes for syn...">
<polygon fill="none" stroke="black" points="172.5,-327 172.5,-361 281.5,-361 281.5,-327 172.5,-327"/>
<text text-anchor="start" x="180.5" y="-348" font-family="Helvetica,sans-Serif" font-size="10.00">OurConcurrentQueue</text>
<text text-anchor="middle" x="227" y="-335" font-family="Helvetica,sans-Serif" font-size="10.00">&lt; T, Allocator &gt;</text>
</a>
</g>
<!-- Node25&#45;&gt;Node24 -->
<g id="edge56" class="edge"><title>Node25&#45;&gt;Node24</title>
<path fill="none" stroke="orange" stroke-dasharray="5,2" d="M291.665,-344C340.563,-344 407.681,-344 458.234,-344"/>
<polygon fill="orange" stroke="orange" points="291.52,-340.5 281.52,-344 291.52,-347.5 291.52,-340.5"/>
<text text-anchor="start" x="312.5" y="-361" font-family="Helvetica,sans-Serif" font-size="10.00"> &lt; tlx::Delegate, mem</text>
<text text-anchor="middle" x="376" y="-348" font-family="Helvetica,sans-Serif" font-size="10.00">::Allocator&lt; tlx::Delegate &gt; &gt;</text>
</g>
<!-- Node26&#45;&gt;Node6 -->
<g id="edge72" class="edge"><title>Node26&#45;&gt;Node6</title>
<path fill="none" stroke="#9a32cd" stroke-dasharray="5,2" d="M868.817,-242.812C908.358,-236.17 970.086,-226.651 1024,-222 1124.56,-213.326 1244.83,-212.644 1296.43,-212.812"/>
<polygon fill="#9a32cd" stroke="#9a32cd" points="868.042,-239.393 858.769,-244.518 869.214,-246.294 868.042,-239.393"/>
<text text-anchor="middle" x="1096" y="-226" font-family="Helvetica,sans-Serif" font-size="10.00"> block_pool_</text>
</g>
<!-- Node26&#45;&gt;Node22 -->
<g id="edge62" class="edge"><title>Node26&#45;&gt;Node22</title>
<path fill="none" stroke="#9a32cd" stroke-dasharray="5,2" d="M868.821,-249.386C905.414,-249.836 960.225,-253.003 1006,-266 1014.6,-268.443 1015.65,-271.788 1024,-275 1036.71,-279.892 1051.11,-284.135 1063.67,-287.439"/>
<polygon fill="#9a32cd" stroke="#9a32cd" points="868.563,-245.884 858.543,-249.325 868.522,-252.884 868.563,-245.884"/>
<text text-anchor="middle" x="957" y="-270" font-family="Helvetica,sans-Serif" font-size="10.00"> block_pool_</text>
</g>
<!-- Node31 -->
<g id="node75" class="node"><title>Node31</title>
<a xlink:href="classthrill_1_1data_1_1BlockSink.html" target="_top" xlink:title="Pure virtual base class for all things that can receive Blocks from a BlockWriter.">
<polygon fill="none" stroke="black" points="1190.5,-333.5 1190.5,-354.5 1251.5,-354.5 1251.5,-333.5 1190.5,-333.5"/>
<text text-anchor="middle" x="1221" y="-341.5" font-family="Helvetica,sans-Serif" font-size="10.00">BlockSink</text>
</a>
</g>
<!-- Node26&#45;&gt;Node31 -->
<g id="edge92" class="edge"><title>Node26&#45;&gt;Node31</title>
<path fill="none" stroke="#9a32cd" stroke-dasharray="5,2" d="M862.179,-265.507C872.213,-271.387 882.495,-278.904 890,-288 904.5,-305.574 889.441,-322.784 908,-336 952.556,-367.727 1120.49,-354.515 1190.29,-347.412"/>
<polygon fill="#9a32cd" stroke="#9a32cd" points="863.576,-262.283 853.121,-260.57 860.226,-268.429 863.576,-262.283"/>
<text text-anchor="middle" x="957" y="-359" font-family="Helvetica,sans-Serif" font-size="10.00"> block_pool_</text>
</g>
<!-- Node27 -->
<g id="node63" class="node"><title>Node27</title>
<a xlink:href="classthrill_1_1net_1_1FlowControlChannelManager.html" target="_top" xlink:title="FlowControlChannelManager">
<polygon fill="none" stroke="black" points="1024.5,-28.5 1024.5,-49.5 1167.5,-49.5 1167.5,-28.5 1024.5,-28.5"/>
<text text-anchor="middle" x="1096" y="-36.5" font-family="Helvetica,sans-Serif" font-size="10.00">FlowControlChannelManager</text>
</a>
</g>
<!-- Node27&#45;&gt;Node6 -->
<g id="edge74" class="edge"><title>Node27&#45;&gt;Node6</title>
<path fill="none" stroke="#9a32cd" stroke-dasharray="5,2" d="M1151.05,-27.163C1185.63,-23.1737 1228.7,-25.0684 1256,-51 1302.12,-94.8166 1235.45,-142.397 1274,-193 1279.47,-200.181 1287.99,-204.804 1296.35,-207.771"/>
<polygon fill="#9a32cd" stroke="#9a32cd" points="1150.53,-23.7017 1141.08,-28.4989 1151.46,-30.6397 1150.53,-23.7017"/>
<text text-anchor="middle" x="1221" y="-55" font-family="Helvetica,sans-Serif" font-size="10.00"> flow_manager_</text>
</g>
<!-- Node28 -->
<g id="node67" class="node"><title>Node28</title>
<a xlink:href="classthrill_1_1api_1_1DIAMemUse.html" target="_top" xlink:title="Description of the amount of RAM the internal data structures of a DIANode require.">
<polygon fill="none" stroke="black" points="1285,-162.5 1285,-183.5 1359,-183.5 1359,-162.5 1285,-162.5"/>
<text text-anchor="middle" x="1322" y="-170.5" font-family="Helvetica,sans-Serif" font-size="10.00">DIAMemUse</text>
</a>
</g>
<!-- Node28&#45;&gt;Node4 -->
<g id="edge80" class="edge"><title>Node28&#45;&gt;Node4</title>
<path fill="none" stroke="#9a32cd" stroke-dasharray="5,2" d="M1368.92,-180.573C1391.21,-184.531 1418.13,-189.838 1442,-196 1449.82,-198.018 1458.18,-200.57 1465.85,-203.079"/>
<polygon fill="#9a32cd" stroke="#9a32cd" points="1369.48,-177.118 1359.03,-178.85 1368.28,-184.015 1369.48,-177.118"/>
<text text-anchor="middle" x="1415" y="-200" font-family="Helvetica,sans-Serif" font-size="10.00"> mem_limit_</text>
</g>
<!-- Node29&#45;&gt;Node1 -->
<g id="edge82" class="edge"><title>Node29&#45;&gt;Node1</title>
<path fill="none" stroke="#9a32cd" stroke-dasharray="5,2" d="M899.888,-717.655C953.848,-718.755 1029.55,-720 1096,-720 1096,-720 1096,-720 1851,-720 1941.51,-720 2017.37,-392.47 2034.42,-313.146"/>
<polygon fill="#9a32cd" stroke="#9a32cd" points="899.805,-714.152 889.734,-717.444 899.66,-721.151 899.805,-714.152"/>
<text text-anchor="middle" x="1494" y="-750" font-family="Helvetica,sans-Serif" font-size="10.00"> timer_preop_</text>
<text text-anchor="middle" x="1494" y="-737" font-family="Helvetica,sans-Serif" font-size="10.00">timer_execute_</text>
<text text-anchor="middle" x="1494" y="-724" font-family="Helvetica,sans-Serif" font-size="10.00">timer_sort_</text>
</g>
<!-- Node30&#45;&gt;Node1 -->
<g id="edge88" class="edge"><title>Node30&#45;&gt;Node1</title>
<path fill="none" stroke="#9a32cd" stroke-dasharray="5,2" d="M1520.6,-296C1598.19,-296 1826.68,-296 1952.5,-296"/>
<polygon fill="#9a32cd" stroke="#9a32cd" points="1520.28,-292.5 1510.28,-296 1520.28,-299.5 1520.28,-292.5"/>
<text text-anchor="middle" x="1738" y="-300" font-family="Helvetica,sans-Serif" font-size="10.00"> unsorted_file_</text>
</g>
<!-- Node31&#45;&gt;Node30 -->
<g id="edge90" class="edge"><title>Node31&#45;&gt;Node30</title>
<path fill="none" stroke="midnightblue" d="M1261.59,-336.864C1322.72,-326.116 1435.73,-306.245 1477.73,-298.861"/>
<polygon fill="midnightblue" stroke="midnightblue" points="1260.76,-333.455 1251.52,-338.634 1261.98,-340.349 1260.76,-333.455"/>
</g>
</g>
</svg>
