<?xml version="1.0" encoding="UTF-8" standalone="no"?>
<!DOCTYPE svg PUBLIC "-//W3C//DTD SVG 1.1//EN"
 "http://www.w3.org/Graphics/SVG/1.1/DTD/svg11.dtd">
<!-- Generated by graphviz version 2.26.3 (20100126.1600)
 -->
<!-- Title: WriteLinesNode&lt; ValueType &gt; Pages: 1 -->
<svg width="1942pt" height="798pt"
 viewBox="0.00 0.00 1942.00 798.00" xmlns="http://www.w3.org/2000/svg" xmlns:xlink="http://www.w3.org/1999/xlink">
<g id="graph1" class="graph" transform="scale(1 1) rotate(0) translate(4 794)">
<title>WriteLinesNode&lt; ValueType &gt;</title>
<!-- Node1 -->
<g id="node1" class="node"><title>Node1</title>
<polygon fill="#bfbfbf" stroke="black" points="1782.5,-55.5 1782.5,-76.5 1933.5,-76.5 1933.5,-55.5 1782.5,-55.5"/>
<text text-anchor="middle" x="1858" y="-63.5" font-family="Helvetica,sans-Serif" font-size="10.00">WriteLinesNode&lt; ValueType &gt;</text>
</g>
<!-- Node2 -->
<g id="node2" class="node"><title>Node2</title>
<a xlink:href="classthrill_1_1api_1_1ActionNode.html" target="_top" xlink:title="ActionNode">
<polygon fill="none" stroke="black" points="1615,-75.5 1615,-96.5 1683,-96.5 1683,-75.5 1615,-75.5"/>
<text text-anchor="middle" x="1649" y="-83.5" font-family="Helvetica,sans-Serif" font-size="10.00">ActionNode</text>
</a>
</g>
<!-- Node2&#45;&gt;Node1 -->
<g id="edge2" class="edge"><title>Node2&#45;&gt;Node1</title>
<path fill="none" stroke="midnightblue" d="M1693.28,-81.7631C1719.12,-79.2895 1752.44,-76.1017 1782.33,-73.2408"/>
<polygon fill="midnightblue" stroke="midnightblue" points="1692.67,-78.3054 1683.04,-82.7421 1693.33,-85.2736 1692.67,-78.3054"/>
</g>
<!-- Node3 -->
<g id="node4" class="node"><title>Node3</title>
<a xlink:href="classthrill_1_1api_1_1DIABase.html" target="_top" xlink:title="The DIABase is the untyped super class of DIANode.">
<polygon fill="none" stroke="black" points="1491,-80.5 1491,-101.5 1547,-101.5 1547,-80.5 1491,-80.5"/>
<text text-anchor="middle" x="1519" y="-88.5" font-family="Helvetica,sans-Serif" font-size="10.00">DIABase</text>
</a>
</g>
<!-- Node3&#45;&gt;Node2 -->
<g id="edge4" class="edge"><title>Node3&#45;&gt;Node2</title>
<path fill="none" stroke="midnightblue" d="M1557.23,-89.5297C1575.48,-88.8277 1597.15,-87.9944 1614.84,-87.3138"/>
<polygon fill="midnightblue" stroke="midnightblue" points="1557.07,-86.0332 1547.21,-89.9151 1557.34,-93.0281 1557.07,-86.0332"/>
</g>
<!-- Node4 -->
<g id="node6" class="node"><title>Node4</title>
<a xlink:href="classthrill_1_1api_1_1Context.html" target="_top" xlink:title="The Context of a job is a unique instance per worker which holds references to all underlying parts o...">
<polygon fill="none" stroke="black" points="1269.5,-167.5 1269.5,-188.5 1320.5,-188.5 1320.5,-167.5 1269.5,-167.5"/>
<text text-anchor="middle" x="1295" y="-175.5" font-family="Helvetica,sans-Serif" font-size="10.00">Context</text>
</a>
</g>
<!-- Node4&#45;&gt;Node3 -->
<g id="edge6" class="edge"><title>Node4&#45;&gt;Node3</title>
<path fill="none" stroke="#9a32cd" stroke-dasharray="5,2" d="M1330.29,-164.295C1375.07,-146.9 1451.36,-117.27 1491.87,-101.539"/>
<polygon fill="#9a32cd" stroke="#9a32cd" points="1328.75,-161.137 1320.7,-168.02 1331.28,-167.662 1328.75,-161.137"/>
<text text-anchor="middle" x="1407" y="-151" font-family="Helvetica,sans-Serif" font-size="10.00"> context_</text>
</g>
<!-- Node5 -->
<g id="node8" class="node"><title>Node5</title>
<a xlink:href="exceptionthrill_1_1net_1_1Manager.html" target="_top" xlink:title="Initializes communication channels, manages communication channels and handles errors.">
<polygon fill="none" stroke="black" points="472,-230.5 472,-251.5 526,-251.5 526,-230.5 472,-230.5"/>
<text text-anchor="middle" x="499" y="-238.5" font-family="Helvetica,sans-Serif" font-size="10.00">Manager</text>
</a>
</g>
<!-- Node5&#45;&gt;Node4 -->
<g id="edge8" class="edge"><title>Node5&#45;&gt;Node4</title>
<path fill="none" stroke="#9a32cd" stroke-dasharray="5,2" d="M536.313,-240.074C643.41,-237.073 960.841,-225.765 1222,-192 1237.87,-189.948 1255.49,-186.599 1269.45,-183.692"/>
<polygon fill="#9a32cd" stroke="#9a32cd" points="535.934,-236.583 526.034,-240.355 536.125,-243.581 535.934,-236.583"/>
<text text-anchor="middle" x="923" y="-227" font-family="Helvetica,sans-Serif" font-size="10.00"> net_manager_</text>
</g>
<!-- Node5&#45;&gt;Node4 -->
<g id="edge72" class="edge"><title>Node5&#45;&gt;Node4</title>
<path fill="none" stroke="#9a32cd" stroke-dasharray="5,2" d="M536.191,-235.564C551.589,-233.394 569.639,-230.951 586,-229 713.742,-213.764 745.727,-209.804 874,-200 1023.6,-188.566 1203.57,-181.337 1269.34,-178.91"/>
<polygon fill="#9a32cd" stroke="#9a32cd" points="535.414,-232.14 526.007,-237.015 536.401,-239.07 535.414,-232.14"/>
<text text-anchor="middle" x="923" y="-204" font-family="Helvetica,sans-Serif" font-size="10.00"> mem_manager_</text>
</g>
<!-- Node20 -->
<g id="node42" class="node"><title>Node20</title>
<a xlink:href="classthrill_1_1data_1_1Multiplexer.html" target="_top" xlink:title="Multiplexes virtual Connections on Dispatcher.">
<polygon fill="none" stroke="black" points="1030,-318.5 1030,-339.5 1094,-339.5 1094,-318.5 1030,-318.5"/>
<text text-anchor="middle" x="1062" y="-326.5" font-family="Helvetica,sans-Serif" font-size="10.00">Multiplexer</text>
</a>
</g>
<!-- Node5&#45;&gt;Node20 -->
<g id="edge66" class="edge"><title>Node5&#45;&gt;Node20</title>
<path fill="none" stroke="#9a32cd" stroke-dasharray="5,2" d="M536.288,-241.795C579.295,-243.09 652.042,-246.441 714,-255 831.478,-271.229 968.489,-304.739 1029.65,-320.48"/>
<polygon fill="#9a32cd" stroke="#9a32cd" points="536.373,-238.296 526.279,-241.515 536.177,-245.294 536.373,-238.296"/>
<text text-anchor="middle" x="794" y="-283" font-family="Helvetica,sans-Serif" font-size="10.00"> mem_manager_</text>
</g>
<!-- Node21 -->
<g id="node44" class="node"><title>Node21</title>
<a xlink:href="classthrill_1_1net_1_1DispatcherThread.html" target="_top" xlink:title="DispatcherThread contains a net::Dispatcher object and an associated thread that runs in the dispatch...">
<polygon fill="none" stroke="black" points="747,-412.5 747,-433.5 841,-433.5 841,-412.5 747,-412.5"/>
<text text-anchor="middle" x="794" y="-420.5" font-family="Helvetica,sans-Serif" font-size="10.00">DispatcherThread</text>
</a>
</g>
<!-- Node5&#45;&gt;Node21 -->
<g id="edge54" class="edge"><title>Node5&#45;&gt;Node21</title>
<path fill="none" stroke="#9a32cd" stroke-dasharray="5,2" d="M522.498,-257.48C563.925,-286.249 653.051,-346.867 732,-392 744.746,-399.287 759.425,-406.669 771.299,-412.4"/>
<polygon fill="#9a32cd" stroke="#9a32cd" points="524.378,-254.525 514.172,-251.681 520.377,-260.268 524.378,-254.525"/>
<text text-anchor="middle" x="650" y="-384" font-family="Helvetica,sans-Serif" font-size="10.00"> mem_manager_</text>
</g>
<!-- Node24 -->
<g id="node52" class="node"><title>Node24</title>
<a xlink:href="classthrill_1_1data_1_1BlockPool.html" target="_top" xlink:title="Pool to allocate, keep, swap out/in, and free all ByteBlocks on the host.">
<polygon fill="none" stroke="black" points="763.5,-309.5 763.5,-330.5 824.5,-330.5 824.5,-309.5 763.5,-309.5"/>
<text text-anchor="middle" x="794" y="-317.5" font-family="Helvetica,sans-Serif" font-size="10.00">BlockPool</text>
</a>
</g>
<!-- Node5&#45;&gt;Node24 -->
<g id="edge64" class="edge"><title>Node5&#45;&gt;Node24</title>
<path fill="none" stroke="#9a32cd" stroke-dasharray="5,2" d="M536.079,-246.134C593.112,-254.14 697.535,-269.275 714,-275 738.233,-283.426 763.627,-299.052 779.137,-309.489"/>
<polygon fill="#9a32cd" stroke="#9a32cd" points="536.401,-242.645 526.013,-244.725 535.431,-249.577 536.401,-242.645"/>
<text text-anchor="middle" x="650" y="-279" font-family="Helvetica,sans-Serif" font-size="10.00"> mem_manager_</text>
</g>
<!-- Node6 -->
<g id="node10" class="node"><title>Node6</title>
<a xlink:href="classthrill_1_1common_1_1ProfileTask.html" target="_top" xlink:title="ProfileTask">
<polygon fill="none" stroke="black" points="194,-353.5 194,-374.5 260,-374.5 260,-353.5 194,-353.5"/>
<text text-anchor="middle" x="227" y="-361.5" font-family="Helvetica,sans-Serif" font-size="10.00">ProfileTask</text>
</a>
</g>
<!-- Node6&#45;&gt;Node5 -->
<g id="edge10" class="edge"><title>Node6&#45;&gt;Node5</title>
<path fill="none" stroke="midnightblue" d="M260.078,-349.042C315.828,-323.832 427.15,-273.491 475.586,-251.588"/>
<polygon fill="midnightblue" stroke="midnightblue" points="258.332,-345.99 250.662,-353.3 261.216,-352.368 258.332,-345.99"/>
</g>
<!-- Node6&#45;&gt;Node24 -->
<g id="edge60" class="edge"><title>Node6&#45;&gt;Node24</title>
<path fill="none" stroke="midnightblue" d="M270.376,-368.022C356.169,-374.865 553.155,-385.036 714,-352 735.1,-347.666 757.775,-338.083 773.577,-330.527"/>
<polygon fill="midnightblue" stroke="midnightblue" points="270.485,-364.519 260.232,-367.186 269.911,-371.495 270.485,-364.519"/>
</g>
<!-- Node7 -->
<g id="node12" class="node"><title>Node7</title>
<a xlink:href="classthrill_1_1common_1_1JsonLogger.html" target="_top" xlink:title="JsonLogger is a receiver of JSON output objects for logging.">
<polygon fill="none" stroke="black" points="193.5,-150.5 193.5,-171.5 260.5,-171.5 260.5,-150.5 193.5,-150.5"/>
<text text-anchor="middle" x="227" y="-158.5" font-family="Helvetica,sans-Serif" font-size="10.00">JsonLogger</text>
</a>
</g>
<!-- Node7&#45;&gt;Node3 -->
<g id="edge74" class="edge"><title>Node7&#45;&gt;Node3</title>
<path fill="none" stroke="#9a32cd" stroke-dasharray="5,2" d="M252.247,-145.029C299.01,-117.023 403.092,-62 499,-62 499,-62 499,-62 1295,-62 1365.98,-62 1448.56,-76.4969 1490.86,-84.9912"/>
<polygon fill="#9a32cd" stroke="#9a32cd" points="250.139,-142.214 243.419,-150.405 253.781,-148.193 250.139,-142.214"/>
<text text-anchor="middle" x="923" y="-66" font-family="Helvetica,sans-Serif" font-size="10.00"> logger_</text>
</g>
<!-- Node7&#45;&gt;Node4 -->
<g id="edge44" class="edge"><title>Node7&#45;&gt;Node4</title>
<path fill="none" stroke="#9a32cd" stroke-dasharray="5,2" d="M270.741,-161.467C409.793,-162.994 854.181,-168.189 1222,-176 1237.72,-176.334 1255.34,-176.813 1269.33,-177.219"/>
<polygon fill="#9a32cd" stroke="#9a32cd" points="270.539,-157.965 260.502,-161.355 270.463,-164.964 270.539,-157.965"/>
<text text-anchor="middle" x="794" y="-186" font-family="Helvetica,sans-Serif" font-size="10.00"> logger_</text>
<text text-anchor="middle" x="794" y="-173" font-family="Helvetica,sans-Serif" font-size="10.00">base_logger_</text>
</g>
<!-- Node7&#45;&gt;Node5 -->
<g id="edge12" class="edge"><title>Node7&#45;&gt;Node5</title>
<path fill="none" stroke="#9a32cd" stroke-dasharray="5,2" d="M270.382,-173.76C327.121,-190.447 424.833,-219.186 471.988,-233.055"/>
<polygon fill="#9a32cd" stroke="#9a32cd" points="271.207,-170.354 260.625,-170.89 269.231,-177.069 271.207,-170.354"/>
<text text-anchor="middle" x="362" y="-219" font-family="Helvetica,sans-Serif" font-size="10.00"> logger_</text>
</g>
<!-- Node7&#45;&gt;Node7 -->
<g id="edge16" class="edge"><title>Node7&#45;&gt;Node7</title>
<path fill="none" stroke="#9a32cd" stroke-dasharray="5,2" d="M207.097,-181.427C208.632,-186.349 215.267,-190 227,-190 245.773,-190 251.493,-180.653 244.16,-171.708"/>
<polygon fill="#9a32cd" stroke="#9a32cd" points="210.492,-182.283 209.84,-171.708 203.755,-180.381 210.492,-182.283"/>
<text text-anchor="middle" x="227" y="-194" font-family="Helvetica,sans-Serif" font-size="10.00"> super_</text>
</g>
<!-- Node7&#45;&gt;Node24 -->
<g id="edge62" class="edge"><title>Node7&#45;&gt;Node24</title>
<path fill="none" stroke="#9a32cd" stroke-dasharray="5,2" d="M244.204,-178.737C260.418,-194.586 286.041,-217.482 312,-232 424.117,-294.701 459.222,-303.284 586,-324 648.379,-334.193 722.673,-328.581 763.442,-324.009"/>
<polygon fill="#9a32cd" stroke="#9a32cd" points="246.591,-176.175 237.039,-171.591 241.648,-181.131 246.591,-176.175"/>
<text text-anchor="middle" x="499" y="-324" font-family="Helvetica,sans-Serif" font-size="10.00"> logger_</text>
</g>
<!-- Node8 -->
<g id="node14" class="node"><title>Node8</title>
<a xlink:href="classthrill_1_1common_1_1JsonVerbatim.html" target="_top" xlink:title="A special class to output verbatim text.">
<polygon fill="none" stroke="black" points="0.5,-150.5 0.5,-171.5 77.5,-171.5 77.5,-150.5 0.5,-150.5"/>
<text text-anchor="middle" x="39" y="-158.5" font-family="Helvetica,sans-Serif" font-size="10.00">JsonVerbatim</text>
</a>
</g>
<!-- Node8&#45;&gt;Node7 -->
<g id="edge14" class="edge"><title>Node8&#45;&gt;Node7</title>
<path fill="none" stroke="#9a32cd" stroke-dasharray="5,2" d="M88.3395,-161C121.461,-161 164.221,-161 193.445,-161"/>
<polygon fill="#9a32cd" stroke="#9a32cd" points="87.9538,-157.5 77.9537,-161 87.9537,-164.5 87.9538,-157.5"/>
<text text-anchor="middle" x="119" y="-165" font-family="Helvetica,sans-Serif" font-size="10.00"> common_</text>
</g>
<!-- Node9 -->
<g id="node17" class="node"><title>Node9</title>
<a xlink:href="classthrill_1_1net_1_1FlowControlChannel.html" target="_top" xlink:title="Provides a blocking collection for communication.">
<polygon fill="none" stroke="black" points="1009.5,-471.5 1009.5,-492.5 1114.5,-492.5 1114.5,-471.5 1009.5,-471.5"/>
<text text-anchor="middle" x="1062" y="-479.5" font-family="Helvetica,sans-Serif" font-size="10.00">FlowControlChannel</text>
</a>
</g>
<!-- Node9&#45;&gt;Node4 -->
<g id="edge18" class="edge"><title>Node9&#45;&gt;Node4</title>
<path fill="none" stroke="#9a32cd" stroke-dasharray="5,2" d="M1087.16,-465.494C1121.52,-441.873 1183.28,-395.444 1222,-343 1260.14,-291.342 1284.01,-216.611 1292,-188.886"/>
<polygon fill="#9a32cd" stroke="#9a32cd" points="1084.95,-462.761 1078.64,-471.269 1088.88,-468.556 1084.95,-462.761"/>
<text text-anchor="middle" x="1187" y="-417" font-family="Helvetica,sans-Serif" font-size="10.00"> net</text>
</g>
<!-- Node10 -->
<g id="node19" class="node"><title>Node10</title>
<a xlink:href="classthrill_1_1net_1_1FlowControlChannel_1_1LocalData.html" target="_top" xlink:title="LocalData">
<polygon fill="none" stroke="black" points="763.5,-452.5 763.5,-473.5 824.5,-473.5 824.5,-452.5 763.5,-452.5"/>
<text text-anchor="middle" x="794" y="-460.5" font-family="Helvetica,sans-Serif" font-size="10.00">LocalData</text>
</a>
</g>
<!-- Node10&#45;&gt;Node9 -->
<g id="edge20" class="edge"><title>Node10&#45;&gt;Node9</title>
<path fill="none" stroke="#9a32cd" stroke-dasharray="5,2" d="M834.78,-462.267C870.921,-462.011 925.084,-462.586 972,-467 984.144,-468.143 997.124,-469.955 1009.34,-471.931"/>
<polygon fill="#9a32cd" stroke="#9a32cd" points="834.595,-458.769 824.629,-462.365 834.662,-465.769 834.595,-458.769"/>
<text text-anchor="middle" x="923" y="-471" font-family="Helvetica,sans-Serif" font-size="10.00"> shmem_</text>
</g>
<!-- Node11 -->
<g id="node21" class="node"><title>Node11</title>
<a xlink:href="classthrill_1_1net_1_1Group.html" target="_top" xlink:title="A network Group is a collection of enumerated communication links, which provides point&#45;to&#45;point comm...">
<polygon fill="none" stroke="black" points="772.5,-361.5 772.5,-382.5 815.5,-382.5 815.5,-361.5 772.5,-361.5"/>
<text text-anchor="middle" x="794" y="-369.5" font-family="Helvetica,sans-Serif" font-size="10.00">Group</text>
</a>
</g>
<!-- Node11&#45;&gt;Node9 -->
<g id="edge22" class="edge"><title>Node11&#45;&gt;Node9</title>
<path fill="none" stroke="#9a32cd" stroke-dasharray="5,2" d="M826.005,-372.423C870.12,-373.451 946.998,-376.969 972,-389 1011.08,-407.803 1042.39,-451.114 1055.43,-471.292"/>
<polygon fill="#9a32cd" stroke="#9a32cd" points="825.878,-368.92 815.809,-372.216 825.736,-375.918 825.878,-368.92"/>
<text text-anchor="middle" x="923" y="-393" font-family="Helvetica,sans-Serif" font-size="10.00"> group_</text>
</g>
<!-- Node11&#45;&gt;Node20 -->
<g id="edge56" class="edge"><title>Node11&#45;&gt;Node20</title>
<path fill="none" stroke="#9a32cd" stroke-dasharray="5,2" d="M825.771,-365.76C840.43,-362.953 858.077,-359.678 874,-357 928.508,-347.834 992.171,-338.676 1029.67,-333.439"/>
<polygon fill="#9a32cd" stroke="#9a32cd" points="824.847,-362.373 815.692,-367.705 826.174,-369.247 824.847,-362.373"/>
<text text-anchor="middle" x="923" y="-361" font-family="Helvetica,sans-Serif" font-size="10.00"> group_</text>
</g>
<!-- Node12 -->
<g id="node23" class="node"><title>Node12</title>
<a xlink:href="classthrill_1_1common_1_1AtomicMovable.html" target="_top" xlink:title="AtomicMovable\&lt; size_t \&gt;">
<polygon fill="none" stroke="black" points="586,-535.5 586,-556.5 714,-556.5 714,-535.5 586,-535.5"/>
<text text-anchor="middle" x="650" y="-543.5" font-family="Helvetica,sans-Serif" font-size="10.00">AtomicMovable&lt; size_t &gt;</text>
</a>
</g>
<!-- Node12&#45;&gt;Node9 -->
<g id="edge24" class="edge"><title>Node12&#45;&gt;Node9</title>
<path fill="none" stroke="#9a32cd" stroke-dasharray="5,2" d="M724.496,-543.213C790.257,-539.608 888.393,-531.426 972,-513 994.271,-508.092 1018.68,-499.467 1036.46,-492.559"/>
<polygon fill="#9a32cd" stroke="#9a32cd" points="724.029,-539.733 714.227,-543.753 724.397,-546.723 724.029,-539.733"/>
<text text-anchor="middle" x="794" y="-611" font-family="Helvetica,sans-Serif" font-size="10.00"> count_allreduce_</text>
<text text-anchor="middle" x="794" y="-598" font-family="Helvetica,sans-Serif" font-size="10.00">count_broadcast_</text>
<text text-anchor="middle" x="794" y="-585" font-family="Helvetica,sans-Serif" font-size="10.00">count_reduce_</text>
<text text-anchor="middle" x="794" y="-572" font-family="Helvetica,sans-Serif" font-size="10.00">count_prefixsum_</text>
<text text-anchor="middle" x="794" y="-559" font-family="Helvetica,sans-Serif" font-size="10.00">count_barrier_</text>
<text text-anchor="middle" x="794" y="-546" font-family="Helvetica,sans-Serif" font-size="10.00">count_predecessor_</text>
</g>
<!-- Node13 -->
<g id="node25" class="node"><title>Node13</title>
<a xlink:href="classthrill_1_1common_1_1AtomicMovable.html" target="_top" xlink:title="This is a derivative of std::atomic which enables easier and less error&#45;prone writing of move&#45;only cl...">
<polygon fill="none" stroke="black" points="173,-514.5 173,-535.5 281,-535.5 281,-514.5 173,-514.5"/>
<text text-anchor="middle" x="227" y="-522.5" font-family="Helvetica,sans-Serif" font-size="10.00">AtomicMovable&lt; T &gt;</text>
</a>
</g>
<!-- Node13&#45;&gt;Node12 -->
<g id="edge26" class="edge"><title>Node13&#45;&gt;Node12</title>
<path fill="none" stroke="orange" stroke-dasharray="5,2" d="M291.406,-528.197C371.204,-532.159 506.341,-538.868 585.965,-542.821"/>
<polygon fill="orange" stroke="orange" points="291.164,-524.681 281.003,-527.681 290.817,-531.673 291.164,-524.681"/>
<text text-anchor="middle" x="362" y="-538" font-family="Helvetica,sans-Serif" font-size="10.00"> &lt; size_t &gt;</text>
</g>
<!-- Node15 -->
<g id="node29" class="node"><title>Node15</title>
<a xlink:href="classthrill_1_1common_1_1AtomicMovable.html" target="_top" xlink:title="AtomicMovable\&lt; uint64_t \&gt;">
<polygon fill="none" stroke="black" points="430.5,-493.5 430.5,-514.5 567.5,-514.5 567.5,-493.5 430.5,-493.5"/>
<text text-anchor="middle" x="499" y="-501.5" font-family="Helvetica,sans-Serif" font-size="10.00">AtomicMovable&lt; uint64_t &gt;</text>
</a>
</g>
<!-- Node13&#45;&gt;Node15 -->
<g id="edge32" class="edge"><title>Node13&#45;&gt;Node15</title>
<path fill="none" stroke="orange" stroke-dasharray="5,2" d="M285.907,-512.657C294.623,-511.196 303.522,-509.905 312,-509 351.075,-504.827 394.988,-503.482 430.437,-503.223"/>
<polygon fill="orange" stroke="orange" points="285.037,-509.256 275.796,-514.437 286.251,-516.15 285.037,-509.256"/>
<text text-anchor="middle" x="362" y="-513" font-family="Helvetica,sans-Serif" font-size="10.00"> &lt; uint64_t &gt;</text>
</g>
<!-- Node14 -->
<g id="node27" class="node"><title>Node14</title>
<a xlink:href="classthrill_1_1common_1_1ThreadBarrierSpinning.html" target="_top" xlink:title="Implements a cyclic barrier using atomics and a spin lock that can be used to synchronize threads...">
<polygon fill="none" stroke="black" points="737.5,-492.5 737.5,-513.5 850.5,-513.5 850.5,-492.5 737.5,-492.5"/>
<text text-anchor="middle" x="794" y="-500.5" font-family="Helvetica,sans-Serif" font-size="10.00">ThreadBarrierSpinning</text>
</a>
</g>
<!-- Node14&#45;&gt;Node9 -->
<g id="edge28" class="edge"><title>Node14&#45;&gt;Node9</title>
<path fill="none" stroke="#9a32cd" stroke-dasharray="5,2" d="M860.66,-497.777C906.54,-494.182 966.651,-489.471 1009.21,-486.136"/>
<polygon fill="#9a32cd" stroke="#9a32cd" points="860.204,-494.302 850.508,-498.572 860.751,-501.28 860.204,-494.302"/>
<text text-anchor="middle" x="923" y="-500" font-family="Helvetica,sans-Serif" font-size="10.00"> barrier_</text>
</g>
<!-- Node15&#45;&gt;Node14 -->
<g id="edge30" class="edge"><title>Node15&#45;&gt;Node14</title>
<path fill="none" stroke="#9a32cd" stroke-dasharray="5,2" d="M577.983,-503.732C628.282,-503.562 692.248,-503.345 737.482,-503.192"/>
<polygon fill="#9a32cd" stroke="#9a32cd" points="577.78,-500.233 567.792,-503.767 577.804,-507.233 577.78,-500.233"/>
<text text-anchor="middle" x="650" y="-507" font-family="Helvetica,sans-Serif" font-size="10.00"> wait_time_</text>
</g>
<!-- Node16 -->
<g id="node32" class="node"><title>Node16</title>
<a xlink:href="classthrill_1_1common_1_1StatsTimerBaseStopped.html" target="_top" xlink:title="StatsTimerBaseStopped\l\&lt; enable_stats \&gt;">
<polygon fill="none" stroke="black" points="732.5,-646 732.5,-680 855.5,-680 855.5,-646 732.5,-646"/>
<text text-anchor="start" x="740.5" y="-667" font-family="Helvetica,sans-Serif" font-size="10.00">StatsTimerBaseStopped</text>
<text text-anchor="middle" x="794" y="-654" font-family="Helvetica,sans-Serif" font-size="10.00">&lt; enable_stats &gt;</text>
</a>
</g>
<!-- Node16&#45;&gt;Node9 -->
<g id="edge34" class="edge"><title>Node16&#45;&gt;Node9</title>
<path fill="none" stroke="#9a32cd" stroke-dasharray="5,2" d="M838.499,-641.199C844.416,-638.169 850.377,-635.05 856,-632 908.533,-603.51 923.873,-599.428 972,-564 1003.15,-541.068 1035.76,-509.019 1051.82,-492.606"/>
<polygon fill="#9a32cd" stroke="#9a32cd" points="836.633,-638.22 829.294,-645.861 839.797,-644.465 836.633,-638.22"/>
<text text-anchor="start" x="874.5" y="-781" font-family="Helvetica,sans-Serif" font-size="10.00"> timer_communication</text>
<text text-anchor="middle" x="923" y="-768" font-family="Helvetica,sans-Serif" font-size="10.00">_</text>
<text text-anchor="start" x="874.5" y="-755" font-family="Helvetica,sans-Serif" font-size="10.00">timer_predecessor</text>
<text text-anchor="middle" x="923" y="-742" font-family="Helvetica,sans-Serif" font-size="10.00">_</text>
<text text-anchor="start" x="874.5" y="-729" font-family="Helvetica,sans-Serif" font-size="10.00">timer_allreduce</text>
<text text-anchor="middle" x="923" y="-716" font-family="Helvetica,sans-Serif" font-size="10.00">_</text>
<text text-anchor="start" x="874.5" y="-703" font-family="Helvetica,sans-Serif" font-size="10.00">timer_barrier</text>
<text text-anchor="middle" x="923" y="-690" font-family="Helvetica,sans-Serif" font-size="10.00">_</text>
<text text-anchor="start" x="874.5" y="-677" font-family="Helvetica,sans-Serif" font-size="10.00">timer_prefixsum</text>
<text text-anchor="middle" x="923" y="-664" font-family="Helvetica,sans-Serif" font-size="10.00">_</text>
<text text-anchor="start" x="874.5" y="-651" font-family="Helvetica,sans-Serif" font-size="10.00">timer_broadcast</text>
<text text-anchor="middle" x="923" y="-638" font-family="Helvetica,sans-Serif" font-size="10.00">_</text>
<text text-anchor="middle" x="923" y="-625" font-family="Helvetica,sans-Serif" font-size="10.00">timer_reduce_</text>
</g>
<!-- Node17 -->
<g id="node34" class="node"><title>Node17</title>
<a xlink:href="classthrill_1_1common_1_1StatsTimerBase.html" target="_top" xlink:title="This class provides a statistical stop watch timer that can easily be deactivated using a boolean tem...">
<polygon fill="none" stroke="black" points="160.5,-649.5 160.5,-670.5 293.5,-670.5 293.5,-649.5 160.5,-649.5"/>
<text text-anchor="middle" x="227" y="-657.5" font-family="Helvetica,sans-Serif" font-size="10.00">StatsTimerBase&lt; Active &gt;</text>
</a>
</g>
<!-- Node17&#45;&gt;Node16 -->
<g id="edge36" class="edge"><title>Node17&#45;&gt;Node16</title>
<path fill="none" stroke="midnightblue" d="M303.724,-660.406C417.327,-661.007 628.047,-662.122 732.297,-662.674"/>
<polygon fill="midnightblue" stroke="midnightblue" points="303.728,-656.906 293.709,-660.353 303.691,-663.906 303.728,-656.906"/>
</g>
<!-- Node18 -->
<g id="node36" class="node"><title>Node18</title>
<a xlink:href="classthrill_1_1common_1_1StatsTimerBaseStopped.html" target="_top" xlink:title="StatsTimerBaseStopped\l\&lt; Active \&gt;">
<polygon fill="none" stroke="black" points="437.5,-671 437.5,-705 560.5,-705 560.5,-671 437.5,-671"/>
<text text-anchor="start" x="445.5" y="-692" font-family="Helvetica,sans-Serif" font-size="10.00">StatsTimerBaseStopped</text>
<text text-anchor="middle" x="499" y="-679" font-family="Helvetica,sans-Serif" font-size="10.00">&lt; Active &gt;</text>
</a>
</g>
<!-- Node17&#45;&gt;Node18 -->
<g id="edge40" class="edge"><title>Node17&#45;&gt;Node18</title>
<path fill="none" stroke="midnightblue" d="M303.516,-667.877C345.811,-672.231 397.666,-677.569 437.339,-681.653"/>
<polygon fill="midnightblue" stroke="midnightblue" points="303.845,-664.392 293.539,-666.85 303.128,-671.355 303.845,-664.392"/>
</g>
<!-- Node18&#45;&gt;Node16 -->
<g id="edge38" class="edge"><title>Node18&#45;&gt;Node16</title>
<path fill="none" stroke="orange" stroke-dasharray="5,2" d="M570.837,-681.912C620.325,-677.718 685.396,-672.204 732.493,-668.212"/>
<polygon fill="orange" stroke="orange" points="570.51,-678.427 560.842,-682.759 571.102,-685.402 570.51,-678.427"/>
<text text-anchor="middle" x="650" y="-684" font-family="Helvetica,sans-Serif" font-size="10.00"> &lt; enable_stats &gt;</text>
</g>
<!-- Node19 -->
<g id="node39" class="node"><title>Node19</title>
<a xlink:href="classthrill_1_1api_1_1MemoryConfig.html" target="_top" xlink:title="MemoryConfig">
<polygon fill="none" stroke="black" points="1022,-90.5 1022,-111.5 1102,-111.5 1102,-90.5 1022,-90.5"/>
<text text-anchor="middle" x="1062" y="-98.5" font-family="Helvetica,sans-Serif" font-size="10.00">MemoryConfig</text>
</a>
</g>
<!-- Node19&#45;&gt;Node4 -->
<g id="edge42" class="edge"><title>Node19&#45;&gt;Node4</title>
<path fill="none" stroke="#9a32cd" stroke-dasharray="5,2" d="M1112.31,-96.6643C1144.84,-95.7848 1187.41,-98.3259 1222,-113 1250.12,-124.928 1274.79,-152.217 1286.95,-167.369"/>
<polygon fill="#9a32cd" stroke="#9a32cd" points="1111.98,-93.1744 1102.13,-97.0591 1112.26,-100.169 1111.98,-93.1744"/>
<text text-anchor="middle" x="1187" y="-117" font-family="Helvetica,sans-Serif" font-size="10.00"> mem_config_</text>
</g>
<!-- Node20&#45;&gt;Node4 -->
<g id="edge46" class="edge"><title>Node20&#45;&gt;Node4</title>
<path fill="none" stroke="#9a32cd" stroke-dasharray="5,2" d="M1104.31,-330.926C1138.84,-330.446 1187.4,-324.883 1222,-301 1263.08,-272.644 1284.65,-212.99 1292.03,-188.666"/>
<polygon fill="#9a32cd" stroke="#9a32cd" points="1104.08,-327.426 1094.08,-330.926 1104.08,-334.426 1104.08,-327.426"/>
<text text-anchor="middle" x="1187" y="-330" font-family="Helvetica,sans-Serif" font-size="10.00"> multiplexer_</text>
</g>
<!-- Node21&#45;&gt;Node20 -->
<g id="edge48" class="edge"><title>Node21&#45;&gt;Node20</title>
<path fill="none" stroke="#9a32cd" stroke-dasharray="5,2" d="M851.563,-426.171C887.517,-426.085 934.029,-422.12 972,-406 1007.21,-391.054 1038.76,-357.179 1053.39,-339.771"/>
<polygon fill="#9a32cd" stroke="#9a32cd" points="851.269,-422.669 841.242,-426.091 851.215,-429.669 851.269,-422.669"/>
<text text-anchor="middle" x="923" y="-429" font-family="Helvetica,sans-Serif" font-size="10.00"> dispatcher_</text>
</g>
<!-- Node22 -->
<g id="node46" class="node"><title>Node22</title>
<a xlink:href="classthrill_1_1common_1_1OurConcurrentQueue.html" target="_top" xlink:title="OurConcurrentQueue\l\&lt; Job, mem::Allocator\l\&lt; Job \&gt; \&gt;">
<polygon fill="none" stroke="black" points="442.5,-405.5 442.5,-452.5 555.5,-452.5 555.5,-405.5 442.5,-405.5"/>
<text text-anchor="start" x="450.5" y="-439.5" font-family="Helvetica,sans-Serif" font-size="10.00">OurConcurrentQueue</text>
<text text-anchor="start" x="450.5" y="-426.5" font-family="Helvetica,sans-Serif" font-size="10.00">&lt; Job, mem::Allocator</text>
<text text-anchor="middle" x="499" y="-413.5" font-family="Helvetica,sans-Serif" font-size="10.00">&lt; Job &gt; &gt;</text>
</a>
</g>
<!-- Node22&#45;&gt;Node21 -->
<g id="edge50" class="edge"><title>Node22&#45;&gt;Node21</title>
<path fill="none" stroke="#9a32cd" stroke-dasharray="5,2" d="M565.572,-427.646C620.783,-426.523 697.903,-424.955 746.897,-423.958"/>
<polygon fill="#9a32cd" stroke="#9a32cd" points="565.457,-424.148 555.53,-427.85 565.599,-431.146 565.457,-424.148"/>
<text text-anchor="middle" x="650" y="-431" font-family="Helvetica,sans-Serif" font-size="10.00"> jobqueue_</text>
</g>
<!-- Node23 -->
<g id="node48" class="node"><title>Node23</title>
<a xlink:href="classthrill_1_1common_1_1OurConcurrentQueue.html" target="_top" xlink:title="This is a queue, similar to std::queue and tbb::concurrent_queue, except that it uses mutexes for syn...">
<polygon fill="none" stroke="black" points="172.5,-412 172.5,-446 281.5,-446 281.5,-412 172.5,-412"/>
<text text-anchor="start" x="180.5" y="-433" font-family="Helvetica,sans-Serif" font-size="10.00">OurConcurrentQueue</text>
<text text-anchor="middle" x="227" y="-420" font-family="Helvetica,sans-Serif" font-size="10.00">&lt; T, Allocator &gt;</text>
</a>
</g>
<!-- Node23&#45;&gt;Node22 -->
<g id="edge52" class="edge"><title>Node23&#45;&gt;Node22</title>
<path fill="none" stroke="orange" stroke-dasharray="5,2" d="M291.817,-429C337.526,-429 398.172,-429 442.029,-429"/>
<polygon fill="orange" stroke="orange" points="291.716,-425.5 281.716,-429 291.716,-432.5 291.716,-425.5"/>
<text text-anchor="start" x="312" y="-446" font-family="Helvetica,sans-Serif" font-size="10.00"> &lt; Job, mem::Allocator</text>
<text text-anchor="middle" x="362" y="-433" font-family="Helvetica,sans-Serif" font-size="10.00">&lt; Job &gt; &gt;</text>
</g>
<!-- Node24&#45;&gt;Node4 -->
<g id="edge68" class="edge"><title>Node24&#45;&gt;Node4</title>
<path fill="none" stroke="#9a32cd" stroke-dasharray="5,2" d="M834.762,-313.619C927.575,-298.738 1152.02,-260.672 1222,-230 1245.8,-219.568 1269.61,-200.618 1283.3,-188.702"/>
<polygon fill="#9a32cd" stroke="#9a32cd" points="833.957,-310.203 824.633,-315.234 835.06,-317.115 833.957,-310.203"/>
<text text-anchor="middle" x="1062" y="-290" font-family="Helvetica,sans-Serif" font-size="10.00"> block_pool_</text>
</g>
<!-- Node24&#45;&gt;Node20 -->
<g id="edge58" class="edge"><title>Node24&#45;&gt;Node20</title>
<path fill="none" stroke="#9a32cd" stroke-dasharray="5,2" d="M834.71,-319.269C870.805,-318.85 924.94,-318.78 972,-321 991.273,-321.909 1012.8,-323.791 1029.97,-325.502"/>
<polygon fill="#9a32cd" stroke="#9a32cd" points="834.526,-315.771 824.572,-319.401 834.617,-322.77 834.526,-315.771"/>
<text text-anchor="middle" x="923" y="-325" font-family="Helvetica,sans-Serif" font-size="10.00"> block_pool_</text>
</g>
<!-- Node25 -->
<g id="node59" class="node"><title>Node25</title>
<a xlink:href="classthrill_1_1net_1_1FlowControlChannelManager.html" target="_top" xlink:title="FlowControlChannelManager">
<polygon fill="none" stroke="black" points="990.5,-12.5 990.5,-33.5 1133.5,-33.5 1133.5,-12.5 990.5,-12.5"/>
<text text-anchor="middle" x="1062" y="-20.5" font-family="Helvetica,sans-Serif" font-size="10.00">FlowControlChannelManager</text>
</a>
</g>
<!-- Node25&#45;&gt;Node4 -->
<g id="edge70" class="edge"><title>Node25&#45;&gt;Node4</title>
<path fill="none" stroke="#9a32cd" stroke-dasharray="5,2" d="M1136.65,-36.2015C1166.15,-44.5863 1198.54,-58.1568 1222,-80 1236.57,-93.5605 1228.92,-104.47 1240,-121 1252.1,-139.047 1270.21,-156.529 1282.31,-167.27"/>
<polygon fill="#9a32cd" stroke="#9a32cd" points="1137.33,-32.7624 1126.77,-33.5523 1135.52,-39.5234 1137.33,-32.7624"/>
<text text-anchor="middle" x="1187" y="-84" font-family="Helvetica,sans-Serif" font-size="10.00"> flow_manager_</text>
</g>
<!-- Node26 -->
<g id="node63" class="node"><title>Node26</title>
<a xlink:href="classthrill_1_1api_1_1DIAMemUse.html" target="_top" xlink:title="Description of the amount of RAM the internal data structures of a DIANode require.">
<polygon fill="none" stroke="black" points="1258,-90.5 1258,-111.5 1332,-111.5 1332,-90.5 1258,-90.5"/>
<text text-anchor="middle" x="1295" y="-98.5" font-family="Helvetica,sans-Serif" font-size="10.00">DIAMemUse</text>
</a>
</g>
<!-- Node26&#45;&gt;Node3 -->
<g id="edge76" class="edge"><title>Node26&#45;&gt;Node3</title>
<path fill="none" stroke="#9a32cd" stroke-dasharray="5,2" d="M1342.36,-98.8859C1387.4,-96.875 1453.65,-93.9173 1490.9,-92.2545"/>
<polygon fill="#9a32cd" stroke="#9a32cd" points="1342.07,-95.3949 1332.24,-99.3375 1342.39,-102.388 1342.07,-95.3949"/>
<text text-anchor="middle" x="1407" y="-101" font-family="Helvetica,sans-Serif" font-size="10.00"> mem_limit_</text>
</g>
<!-- Node27 -->
<g id="node65" class="node"><title>Node27</title>
<a xlink:href="classthrill_1_1net_1_1BufferBuilder.html" target="_top" xlink:title="BufferBuilder represents a dynamically growable area of memory, which can be modified by appending in...">
<polygon fill="none" stroke="black" points="1612.5,-34.5 1612.5,-55.5 1685.5,-55.5 1685.5,-34.5 1612.5,-34.5"/>
<text text-anchor="middle" x="1649" y="-42.5" font-family="Helvetica,sans-Serif" font-size="10.00">BufferBuilder</text>
</a>
</g>
<!-- Node27&#45;&gt;Node1 -->
<g id="edge78" class="edge"><title>Node27&#45;&gt;Node1</title>
<path fill="none" stroke="#9a32cd" stroke-dasharray="5,2" d="M1695.97,-49.7198C1721.35,-52.2695 1753.3,-55.4799 1782.11,-58.3746"/>
<polygon fill="#9a32cd" stroke="#9a32cd" points="1696.18,-46.2234 1685.88,-48.706 1695.48,-53.1883 1696.18,-46.2234"/>
<text text-anchor="middle" x="1734" y="-60" font-family="Helvetica,sans-Serif" font-size="10.00"> write_buffer_</text>
</g>
<!-- Node28 -->
<g id="node67" class="node"><title>Node28</title>
<a xlink:href="classthrill_1_1common_1_1ItemWriterToolsBase.html" target="_top" xlink:title="ItemWriterToolsBase\l\&lt; BufferBuilder \&gt;">
<polygon fill="none" stroke="black" points="1464.5,-19 1464.5,-53 1573.5,-53 1573.5,-19 1464.5,-19"/>
<text text-anchor="start" x="1472.5" y="-40" font-family="Helvetica,sans-Serif" font-size="10.00">ItemWriterToolsBase</text>
<text text-anchor="middle" x="1519" y="-27" font-family="Helvetica,sans-Serif" font-size="10.00">&lt; BufferBuilder &gt;</text>
</a>
</g>
<!-- Node28&#45;&gt;Node27 -->
<g id="edge80" class="edge"><title>Node28&#45;&gt;Node27</title>
<path fill="none" stroke="midnightblue" d="M1583.92,-40.4945C1593.71,-41.1723 1603.5,-41.8503 1612.41,-42.467"/>
<polygon fill="midnightblue" stroke="midnightblue" points="1583.97,-36.9898 1573.75,-39.7907 1583.49,-43.9731 1583.97,-36.9898"/>
</g>
<!-- Node29 -->
<g id="node69" class="node"><title>Node29</title>
<a xlink:href="classthrill_1_1common_1_1ItemWriterToolsBase.html" target="_top" xlink:title="CRTP class to enhance item/memory writer classes with Varint encoding and String encoding.">
<polygon fill="none" stroke="black" points="1240.5,-0 1240.5,-34 1349.5,-34 1349.5,-0 1240.5,-0"/>
<text text-anchor="start" x="1248.5" y="-21" font-family="Helvetica,sans-Serif" font-size="10.00">ItemWriterToolsBase</text>
<text text-anchor="middle" x="1295" y="-8" font-family="Helvetica,sans-Serif" font-size="10.00">&lt; Writer &gt;</text>
</a>
</g>
<!-- Node29&#45;&gt;Node28 -->
<g id="edge82" class="edge"><title>Node29&#45;&gt;Node28</title>
<path fill="none" stroke="orange" stroke-dasharray="5,2" d="M1359.56,-22.476C1392.7,-25.2868 1432.63,-28.6742 1464.25,-31.3556"/>
<polygon fill="orange" stroke="orange" points="1359.77,-18.9814 1349.51,-21.6236 1359.18,-25.9564 1359.77,-18.9814"/>
<text text-anchor="middle" x="1407" y="-33" font-family="Helvetica,sans-Serif" font-size="10.00"> &lt; BufferBuilder &gt;</text>
</g>
</g>
</svg>
