<?xml version="1.0" encoding="UTF-8" standalone="no"?>
<!DOCTYPE svg PUBLIC "-//W3C//DTD SVG 1.1//EN"
 "http://www.w3.org/Graphics/SVG/1.1/DTD/svg11.dtd">
<!-- Generated by graphviz version 2.26.3 (20100126.1600)
 -->
<!-- Title: WriteLinesNode&lt; ValueType &gt; Pages: 1 -->
<svg width="2106pt" height="832pt"
 viewBox="0.00 0.00 2106.00 832.00" xmlns="http://www.w3.org/2000/svg" xmlns:xlink="http://www.w3.org/1999/xlink">
<g id="graph1" class="graph" transform="scale(1 1) rotate(0) translate(4 828)">
<title>WriteLinesNode&lt; ValueType &gt;</title>
<!-- Node1 -->
<g id="node1" class="node"><title>Node1</title>
<polygon fill="#bfbfbf" stroke="black" points="1946.5,-58.5 1946.5,-79.5 2097.5,-79.5 2097.5,-58.5 1946.5,-58.5"/>
<text text-anchor="middle" x="2022" y="-66.5" font-family="Helvetica,sans-Serif" font-size="10.00">WriteLinesNode&lt; ValueType &gt;</text>
</g>
<!-- Node2 -->
<g id="node2" class="node"><title>Node2</title>
<a xlink:href="classthrill_1_1api_1_1ActionNode.html" target="_top" xlink:title="ActionNode">
<polygon fill="none" stroke="black" points="1745,-104.5 1745,-125.5 1813,-125.5 1813,-104.5 1745,-104.5"/>
<text text-anchor="middle" x="1779" y="-112.5" font-family="Helvetica,sans-Serif" font-size="10.00">ActionNode</text>
</a>
</g>
<!-- Node2&#45;&gt;Node1 -->
<g id="edge2" class="edge"><title>Node2&#45;&gt;Node1</title>
<path fill="none" stroke="midnightblue" d="M1823.07,-106.658C1863.24,-99.0541 1922.76,-87.787 1966.22,-79.5587"/>
<polygon fill="midnightblue" stroke="midnightblue" points="1822.22,-103.256 1813.04,-108.555 1823.52,-110.134 1822.22,-103.256"/>
</g>
<!-- Node3 -->
<g id="node4" class="node"><title>Node3</title>
<a xlink:href="classthrill_1_1api_1_1DIABase.html" target="_top" xlink:title="The DIABase is the untyped super class of DIANode.">
<polygon fill="none" stroke="black" points="1513,-123.5 1513,-144.5 1569,-144.5 1569,-123.5 1513,-123.5"/>
<text text-anchor="middle" x="1541" y="-131.5" font-family="Helvetica,sans-Serif" font-size="10.00">DIABase</text>
</a>
</g>
<!-- Node3&#45;&gt;Node2 -->
<g id="edge4" class="edge"><title>Node3&#45;&gt;Node2</title>
<path fill="none" stroke="midnightblue" d="M1579.34,-130.939C1625.06,-127.289 1700.78,-121.245 1744.65,-117.742"/>
<polygon fill="midnightblue" stroke="midnightblue" points="1578.93,-127.461 1569.24,-131.746 1579.48,-134.439 1578.93,-127.461"/>
</g>
<!-- Node4 -->
<g id="node6" class="node"><title>Node4</title>
<a xlink:href="classthrill_1_1common_1_1ReferenceCount.html" target="_top" xlink:title="Provides reference counting abilities for use with CountingPtr.">
<polygon fill="none" stroke="black" points="1273,-123.5 1273,-144.5 1361,-144.5 1361,-123.5 1273,-123.5"/>
<text text-anchor="middle" x="1317" y="-131.5" font-family="Helvetica,sans-Serif" font-size="10.00">ReferenceCount</text>
</a>
</g>
<!-- Node4&#45;&gt;Node3 -->
<g id="edge6" class="edge"><title>Node4&#45;&gt;Node3</title>
<path fill="none" stroke="midnightblue" d="M1371.36,-134C1415.99,-134 1477.41,-134 1512.78,-134"/>
<polygon fill="midnightblue" stroke="midnightblue" points="1371.26,-130.5 1361.26,-134 1371.26,-137.5 1371.26,-130.5"/>
</g>
<!-- Node5 -->
<g id="node8" class="node"><title>Node5</title>
<a xlink:href="classthrill_1_1api_1_1Context.html" target="_top" xlink:title="The Context of a job is a unique instance per worker which holds references to all underlying parts o...">
<polygon fill="none" stroke="black" points="1291.5,-203.5 1291.5,-224.5 1342.5,-224.5 1342.5,-203.5 1291.5,-203.5"/>
<text text-anchor="middle" x="1317" y="-211.5" font-family="Helvetica,sans-Serif" font-size="10.00">Context</text>
</a>
</g>
<!-- Node5&#45;&gt;Node3 -->
<g id="edge8" class="edge"><title>Node5&#45;&gt;Node3</title>
<path fill="none" stroke="#9a32cd" stroke-dasharray="5,2" d="M1352.57,-208.711C1383.79,-203.328 1430.01,-193.536 1468,-178 1489.64,-169.149 1512.38,-154.463 1526.61,-144.516"/>
<polygon fill="#9a32cd" stroke="#9a32cd" points="1351.88,-205.278 1342.59,-210.37 1353.03,-212.183 1351.88,-205.278"/>
<text text-anchor="middle" x="1429" y="-205" font-family="Helvetica,sans-Serif" font-size="10.00"> context_</text>
</g>
<!-- Node6 -->
<g id="node10" class="node"><title>Node6</title>
<a xlink:href="exceptionthrill_1_1net_1_1Manager.html" target="_top" xlink:title="Initializes communication channels, manages communication channels and handles errors.">
<polygon fill="none" stroke="black" points="494,-264.5 494,-285.5 548,-285.5 548,-264.5 494,-264.5"/>
<text text-anchor="middle" x="521" y="-272.5" font-family="Helvetica,sans-Serif" font-size="10.00">Manager</text>
</a>
</g>
<!-- Node6&#45;&gt;Node5 -->
<g id="edge74" class="edge"><title>Node6&#45;&gt;Node5</title>
<path fill="none" stroke="#9a32cd" stroke-dasharray="5,2" d="M558.488,-272.127C696.59,-261.544 1174.95,-224.886 1291.33,-215.967"/>
<polygon fill="#9a32cd" stroke="#9a32cd" points="558.103,-268.646 548.4,-272.9 558.638,-275.626 558.103,-268.646"/>
<text text-anchor="middle" x="945" y="-249" font-family="Helvetica,sans-Serif" font-size="10.00"> mem_manager_</text>
</g>
<!-- Node6&#45;&gt;Node5 -->
<g id="edge10" class="edge"><title>Node6&#45;&gt;Node5</title>
<path fill="none" stroke="#9a32cd" stroke-dasharray="5,2" d="M548.807,-259.532C565.457,-251.044 587.339,-241.212 608,-236 867.714,-170.485 1197.9,-200.414 1291.34,-210.898"/>
<polygon fill="#9a32cd" stroke="#9a32cd" points="546.889,-256.586 539.657,-264.329 550.139,-262.786 546.889,-256.586"/>
<text text-anchor="middle" x="945" y="-200" font-family="Helvetica,sans-Serif" font-size="10.00"> net_manager_</text>
</g>
<!-- Node21 -->
<g id="node44" class="node"><title>Node21</title>
<a xlink:href="classthrill_1_1data_1_1Multiplexer.html" target="_top" xlink:title="Multiplexes virtual Connections on Dispatcher.">
<polygon fill="none" stroke="black" points="1052,-352.5 1052,-373.5 1116,-373.5 1116,-352.5 1052,-352.5"/>
<text text-anchor="middle" x="1084" y="-360.5" font-family="Helvetica,sans-Serif" font-size="10.00">Multiplexer</text>
</a>
</g>
<!-- Node6&#45;&gt;Node21 -->
<g id="edge68" class="edge"><title>Node6&#45;&gt;Node21</title>
<path fill="none" stroke="#9a32cd" stroke-dasharray="5,2" d="M558.288,-275.795C601.295,-277.09 674.042,-280.441 736,-289 853.478,-305.229 990.489,-338.739 1051.65,-354.48"/>
<polygon fill="#9a32cd" stroke="#9a32cd" points="558.373,-272.296 548.279,-275.515 558.177,-279.294 558.373,-272.296"/>
<text text-anchor="middle" x="816" y="-317" font-family="Helvetica,sans-Serif" font-size="10.00"> mem_manager_</text>
</g>
<!-- Node22 -->
<g id="node46" class="node"><title>Node22</title>
<a xlink:href="classthrill_1_1net_1_1DispatcherThread.html" target="_top" xlink:title="DispatcherThread contains a net::Dispatcher object and an associated thread that runs in the dispatch...">
<polygon fill="none" stroke="black" points="769,-446.5 769,-467.5 863,-467.5 863,-446.5 769,-446.5"/>
<text text-anchor="middle" x="816" y="-454.5" font-family="Helvetica,sans-Serif" font-size="10.00">DispatcherThread</text>
</a>
</g>
<!-- Node6&#45;&gt;Node22 -->
<g id="edge56" class="edge"><title>Node6&#45;&gt;Node22</title>
<path fill="none" stroke="#9a32cd" stroke-dasharray="5,2" d="M544.576,-291.247C586.123,-319.636 675.427,-379.57 754,-425 767.108,-432.579 782.197,-440.386 794.208,-446.391"/>
<polygon fill="#9a32cd" stroke="#9a32cd" points="546.453,-288.291 536.225,-285.526 542.496,-294.065 546.453,-288.291"/>
<text text-anchor="middle" x="672" y="-417" font-family="Helvetica,sans-Serif" font-size="10.00"> mem_manager_</text>
</g>
<!-- Node25 -->
<g id="node54" class="node"><title>Node25</title>
<a xlink:href="classthrill_1_1data_1_1BlockPool.html" target="_top" xlink:title="Pool to allocate, keep, swap out/in, and free all ByteBlocks on the host.">
<polygon fill="none" stroke="black" points="785.5,-343.5 785.5,-364.5 846.5,-364.5 846.5,-343.5 785.5,-343.5"/>
<text text-anchor="middle" x="816" y="-351.5" font-family="Helvetica,sans-Serif" font-size="10.00">BlockPool</text>
</a>
</g>
<!-- Node6&#45;&gt;Node25 -->
<g id="edge66" class="edge"><title>Node6&#45;&gt;Node25</title>
<path fill="none" stroke="#9a32cd" stroke-dasharray="5,2" d="M558.079,-280.134C615.112,-288.14 719.535,-303.275 736,-309 760.233,-317.426 785.627,-333.052 801.137,-343.489"/>
<polygon fill="#9a32cd" stroke="#9a32cd" points="558.401,-276.645 548.013,-278.725 557.431,-283.577 558.401,-276.645"/>
<text text-anchor="middle" x="672" y="-313" font-family="Helvetica,sans-Serif" font-size="10.00"> mem_manager_</text>
</g>
<!-- Node7 -->
<g id="node12" class="node"><title>Node7</title>
<a xlink:href="classthrill_1_1common_1_1ProfileTask.html" target="_top" xlink:title="ProfileTask">
<polygon fill="none" stroke="black" points="194,-398.5 194,-419.5 260,-419.5 260,-398.5 194,-398.5"/>
<text text-anchor="middle" x="227" y="-406.5" font-family="Helvetica,sans-Serif" font-size="10.00">ProfileTask</text>
</a>
</g>
<!-- Node7&#45;&gt;Node6 -->
<g id="edge12" class="edge"><title>Node7&#45;&gt;Node6</title>
<path fill="none" stroke="midnightblue" d="M259.409,-394.228C319.178,-366.987 445.414,-309.451 497.631,-285.651"/>
<polygon fill="midnightblue" stroke="midnightblue" points="257.718,-391.153 250.07,-398.485 260.621,-397.523 257.718,-391.153"/>
</g>
<!-- Node7&#45;&gt;Node25 -->
<g id="edge62" class="edge"><title>Node7&#45;&gt;Node25</title>
<path fill="none" stroke="midnightblue" d="M270.456,-411.87C359.151,-416.676 566.922,-422.538 736,-386 756.908,-381.482 779.42,-372.026 795.22,-364.559"/>
<polygon fill="midnightblue" stroke="midnightblue" points="270.423,-408.363 260.241,-411.292 270.027,-415.352 270.423,-408.363"/>
</g>
<!-- Node8 -->
<g id="node14" class="node"><title>Node8</title>
<a xlink:href="classthrill_1_1common_1_1JsonLogger.html" target="_top" xlink:title="JsonLogger is a receiver of JSON output objects for logging.">
<polygon fill="none" stroke="black" points="193.5,-184.5 193.5,-205.5 260.5,-205.5 260.5,-184.5 193.5,-184.5"/>
<text text-anchor="middle" x="227" y="-192.5" font-family="Helvetica,sans-Serif" font-size="10.00">JsonLogger</text>
</a>
</g>
<!-- Node8&#45;&gt;Node3 -->
<g id="edge76" class="edge"><title>Node8&#45;&gt;Node3</title>
<path fill="none" stroke="#9a32cd" stroke-dasharray="5,2" d="M253.436,-179.427C303.728,-151.319 417.422,-95 521,-95 521,-95 521,-95 1317,-95 1388.45,-95 1470.84,-114.496 1512.98,-125.919"/>
<polygon fill="#9a32cd" stroke="#9a32cd" points="251.49,-176.507 244.522,-184.487 254.946,-182.594 251.49,-176.507"/>
<text text-anchor="middle" x="945" y="-99" font-family="Helvetica,sans-Serif" font-size="10.00"> logger_</text>
</g>
<!-- Node8&#45;&gt;Node5 -->
<g id="edge46" class="edge"><title>Node8&#45;&gt;Node5</title>
<path fill="none" stroke="#9a32cd" stroke-dasharray="5,2" d="M270.728,-190.782C375.529,-181.197 649.326,-159.266 878,-168 1041.02,-174.227 1082.92,-170.161 1244,-196 1259.85,-198.543 1277.32,-202.798 1291.2,-206.532"/>
<polygon fill="#9a32cd" stroke="#9a32cd" points="270.173,-187.318 260.538,-191.724 270.817,-194.288 270.173,-187.318"/>
<text text-anchor="middle" x="816" y="-185" font-family="Helvetica,sans-Serif" font-size="10.00"> logger_</text>
<text text-anchor="middle" x="816" y="-172" font-family="Helvetica,sans-Serif" font-size="10.00">base_logger_</text>
</g>
<!-- Node8&#45;&gt;Node6 -->
<g id="edge14" class="edge"><title>Node8&#45;&gt;Node6</title>
<path fill="none" stroke="#9a32cd" stroke-dasharray="5,2" d="M270.525,-206.844C332.044,-223.584 442.619,-253.672 493.729,-267.579"/>
<polygon fill="#9a32cd" stroke="#9a32cd" points="271.294,-203.426 260.726,-204.177 269.456,-210.18 271.294,-203.426"/>
<text text-anchor="middle" x="373" y="-253" font-family="Helvetica,sans-Serif" font-size="10.00"> logger_</text>
</g>
<!-- Node8&#45;&gt;Node8 -->
<g id="edge18" class="edge"><title>Node8&#45;&gt;Node8</title>
<path fill="none" stroke="#9a32cd" stroke-dasharray="5,2" d="M207.097,-215.427C208.632,-220.349 215.267,-224 227,-224 245.773,-224 251.493,-214.653 244.16,-205.708"/>
<polygon fill="#9a32cd" stroke="#9a32cd" points="210.492,-216.283 209.84,-205.708 203.755,-214.381 210.492,-216.283"/>
<text text-anchor="middle" x="227" y="-228" font-family="Helvetica,sans-Serif" font-size="10.00"> super_</text>
</g>
<!-- Node8&#45;&gt;Node25 -->
<g id="edge64" class="edge"><title>Node8&#45;&gt;Node25</title>
<path fill="none" stroke="#9a32cd" stroke-dasharray="5,2" d="M244.128,-212.875C260.29,-228.819 285.878,-251.777 312,-266 432.99,-331.88 471.797,-337.321 608,-358 670.49,-367.487 744.743,-362.135 785.475,-357.797"/>
<polygon fill="#9a32cd" stroke="#9a32cd" points="246.517,-210.315 236.989,-205.681 241.548,-215.245 246.517,-210.315"/>
<text text-anchor="middle" x="521" y="-358" font-family="Helvetica,sans-Serif" font-size="10.00"> logger_</text>
</g>
<!-- Node9 -->
<g id="node16" class="node"><title>Node9</title>
<a xlink:href="classthrill_1_1common_1_1JsonVerbatim.html" target="_top" xlink:title="A special class to output verbatim text.">
<polygon fill="none" stroke="black" points="0.5,-184.5 0.5,-205.5 77.5,-205.5 77.5,-184.5 0.5,-184.5"/>
<text text-anchor="middle" x="39" y="-192.5" font-family="Helvetica,sans-Serif" font-size="10.00">JsonVerbatim</text>
</a>
</g>
<!-- Node9&#45;&gt;Node8 -->
<g id="edge16" class="edge"><title>Node9&#45;&gt;Node8</title>
<path fill="none" stroke="#9a32cd" stroke-dasharray="5,2" d="M88.3395,-195C121.461,-195 164.221,-195 193.445,-195"/>
<polygon fill="#9a32cd" stroke="#9a32cd" points="87.9538,-191.5 77.9537,-195 87.9537,-198.5 87.9538,-191.5"/>
<text text-anchor="middle" x="119" y="-199" font-family="Helvetica,sans-Serif" font-size="10.00"> common_</text>
</g>
<!-- Node10 -->
<g id="node19" class="node"><title>Node10</title>
<a xlink:href="classthrill_1_1net_1_1FlowControlChannel.html" target="_top" xlink:title="Provides a blocking collection for communication.">
<polygon fill="none" stroke="black" points="1031.5,-505.5 1031.5,-526.5 1136.5,-526.5 1136.5,-505.5 1031.5,-505.5"/>
<text text-anchor="middle" x="1084" y="-513.5" font-family="Helvetica,sans-Serif" font-size="10.00">FlowControlChannel</text>
</a>
</g>
<!-- Node10&#45;&gt;Node5 -->
<g id="edge20" class="edge"><title>Node10&#45;&gt;Node5</title>
<path fill="none" stroke="#9a32cd" stroke-dasharray="5,2" d="M1109.12,-499.469C1143.45,-475.819 1205.16,-429.356 1244,-377 1281.87,-325.951 1305.9,-252.136 1313.97,-224.752"/>
<polygon fill="#9a32cd" stroke="#9a32cd" points="1106.92,-496.736 1100.61,-505.251 1110.85,-502.526 1106.92,-496.736"/>
<text text-anchor="middle" x="1209" y="-451" font-family="Helvetica,sans-Serif" font-size="10.00"> net</text>
</g>
<!-- Node11 -->
<g id="node21" class="node"><title>Node11</title>
<a xlink:href="classthrill_1_1net_1_1FlowControlChannel_1_1LocalData.html" target="_top" xlink:title="LocalData">
<polygon fill="none" stroke="black" points="785.5,-486.5 785.5,-507.5 846.5,-507.5 846.5,-486.5 785.5,-486.5"/>
<text text-anchor="middle" x="816" y="-494.5" font-family="Helvetica,sans-Serif" font-size="10.00">LocalData</text>
</a>
</g>
<!-- Node11&#45;&gt;Node10 -->
<g id="edge22" class="edge"><title>Node11&#45;&gt;Node10</title>
<path fill="none" stroke="#9a32cd" stroke-dasharray="5,2" d="M856.78,-496.267C892.921,-496.011 947.084,-496.586 994,-501 1006.14,-502.143 1019.12,-503.955 1031.34,-505.931"/>
<polygon fill="#9a32cd" stroke="#9a32cd" points="856.595,-492.769 846.629,-496.365 856.662,-499.769 856.595,-492.769"/>
<text text-anchor="middle" x="945" y="-505" font-family="Helvetica,sans-Serif" font-size="10.00"> shmem_</text>
</g>
<!-- Node12 -->
<g id="node23" class="node"><title>Node12</title>
<a xlink:href="classthrill_1_1net_1_1Group.html" target="_top" xlink:title="A network Group is a collection of enumerated communication links, which provides point&#45;to&#45;point comm...">
<polygon fill="none" stroke="black" points="794.5,-394.5 794.5,-415.5 837.5,-415.5 837.5,-394.5 794.5,-394.5"/>
<text text-anchor="middle" x="816" y="-402.5" font-family="Helvetica,sans-Serif" font-size="10.00">Group</text>
</a>
</g>
<!-- Node12&#45;&gt;Node10 -->
<g id="edge24" class="edge"><title>Node12&#45;&gt;Node10</title>
<path fill="none" stroke="#9a32cd" stroke-dasharray="5,2" d="M848.011,-405.62C892.132,-406.917 969.017,-410.892 994,-423 1033.02,-441.912 1064.36,-485.167 1077.42,-505.311"/>
<polygon fill="#9a32cd" stroke="#9a32cd" points="847.902,-402.116 837.813,-405.351 847.717,-409.114 847.902,-402.116"/>
<text text-anchor="middle" x="945" y="-427" font-family="Helvetica,sans-Serif" font-size="10.00"> group_</text>
</g>
<!-- Node12&#45;&gt;Node21 -->
<g id="edge58" class="edge"><title>Node12&#45;&gt;Node21</title>
<path fill="none" stroke="#9a32cd" stroke-dasharray="5,2" d="M847.788,-399.246C862.451,-396.641 880.096,-393.576 896,-391 950.562,-382.164 1014.21,-372.904 1051.69,-367.557"/>
<polygon fill="#9a32cd" stroke="#9a32cd" points="846.934,-395.843 837.706,-401.048 848.165,-402.734 846.934,-395.843"/>
<text text-anchor="middle" x="945" y="-395" font-family="Helvetica,sans-Serif" font-size="10.00"> group_</text>
</g>
<!-- Node13 -->
<g id="node25" class="node"><title>Node13</title>
<a xlink:href="classthrill_1_1common_1_1AtomicMovable.html" target="_top" xlink:title="AtomicMovable\&lt; size_t \&gt;">
<polygon fill="none" stroke="black" points="608,-571.5 608,-592.5 736,-592.5 736,-571.5 608,-571.5"/>
<text text-anchor="middle" x="672" y="-579.5" font-family="Helvetica,sans-Serif" font-size="10.00">AtomicMovable&lt; size_t &gt;</text>
</a>
</g>
<!-- Node13&#45;&gt;Node10 -->
<g id="edge26" class="edge"><title>Node13&#45;&gt;Node10</title>
<path fill="none" stroke="#9a32cd" stroke-dasharray="5,2" d="M746.497,-578.627C812.259,-574.534 910.395,-565.695 994,-547 1016.26,-542.023 1040.67,-533.404 1058.45,-526.515"/>
<polygon fill="#9a32cd" stroke="#9a32cd" points="746,-575.151 736.228,-579.244 746.42,-582.138 746,-575.151"/>
<text text-anchor="middle" x="816" y="-647" font-family="Helvetica,sans-Serif" font-size="10.00"> count_allreduce_</text>
<text text-anchor="middle" x="816" y="-634" font-family="Helvetica,sans-Serif" font-size="10.00">count_broadcast_</text>
<text text-anchor="middle" x="816" y="-621" font-family="Helvetica,sans-Serif" font-size="10.00">count_reduce_</text>
<text text-anchor="middle" x="816" y="-608" font-family="Helvetica,sans-Serif" font-size="10.00">count_prefixsum_</text>
<text text-anchor="middle" x="816" y="-595" font-family="Helvetica,sans-Serif" font-size="10.00">count_barrier_</text>
<text text-anchor="middle" x="816" y="-582" font-family="Helvetica,sans-Serif" font-size="10.00">count_predecessor_</text>
</g>
<!-- Node14 -->
<g id="node27" class="node"><title>Node14</title>
<a xlink:href="classthrill_1_1common_1_1AtomicMovable.html" target="_top" xlink:title="This is a derivative of std::atomic which enables easier and less error&#45;prone writing of move&#45;only cl...">
<polygon fill="none" stroke="black" points="173,-550.5 173,-571.5 281,-571.5 281,-550.5 173,-550.5"/>
<text text-anchor="middle" x="227" y="-558.5" font-family="Helvetica,sans-Serif" font-size="10.00">AtomicMovable&lt; T &gt;</text>
</a>
</g>
<!-- Node14&#45;&gt;Node13 -->
<g id="edge28" class="edge"><title>Node14&#45;&gt;Node13</title>
<path fill="none" stroke="orange" stroke-dasharray="5,2" d="M291.359,-564.037C375.882,-568.026 523.425,-574.989 607.846,-578.972"/>
<polygon fill="orange" stroke="orange" points="291.275,-560.529 281.121,-563.554 290.945,-567.522 291.275,-560.529"/>
<text text-anchor="middle" x="373" y="-574" font-family="Helvetica,sans-Serif" font-size="10.00"> &lt; size_t &gt;</text>
</g>
<!-- Node16 -->
<g id="node31" class="node"><title>Node16</title>
<a xlink:href="classthrill_1_1common_1_1AtomicMovable.html" target="_top" xlink:title="AtomicMovable\&lt; uint64_t \&gt;">
<polygon fill="none" stroke="black" points="452.5,-530.5 452.5,-551.5 589.5,-551.5 589.5,-530.5 452.5,-530.5"/>
<text text-anchor="middle" x="521" y="-538.5" font-family="Helvetica,sans-Serif" font-size="10.00">AtomicMovable&lt; uint64_t &gt;</text>
</a>
</g>
<!-- Node14&#45;&gt;Node16 -->
<g id="edge34" class="edge"><title>Node14&#45;&gt;Node16</title>
<path fill="none" stroke="orange" stroke-dasharray="5,2" d="M285.282,-548.702C294.196,-547.207 303.318,-545.894 312,-545 358.57,-540.205 411.275,-539.227 452.108,-539.436"/>
<polygon fill="orange" stroke="orange" points="284.581,-545.272 275.341,-550.456 285.797,-552.165 284.581,-545.272"/>
<text text-anchor="middle" x="373" y="-549" font-family="Helvetica,sans-Serif" font-size="10.00"> &lt; uint64_t &gt;</text>
</g>
<!-- Node15 -->
<g id="node29" class="node"><title>Node15</title>
<a xlink:href="classthrill_1_1common_1_1ThreadBarrierSpinning.html" target="_top" xlink:title="Implements a cyclic barrier using atomics and a spin lock that can be used to synchronize threads...">
<polygon fill="none" stroke="black" points="759.5,-526.5 759.5,-547.5 872.5,-547.5 872.5,-526.5 759.5,-526.5"/>
<text text-anchor="middle" x="816" y="-534.5" font-family="Helvetica,sans-Serif" font-size="10.00">ThreadBarrierSpinning</text>
</a>
</g>
<!-- Node15&#45;&gt;Node10 -->
<g id="edge30" class="edge"><title>Node15&#45;&gt;Node10</title>
<path fill="none" stroke="#9a32cd" stroke-dasharray="5,2" d="M882.66,-531.777C928.54,-528.182 988.651,-523.471 1031.21,-520.136"/>
<polygon fill="#9a32cd" stroke="#9a32cd" points="882.204,-528.302 872.508,-532.572 882.751,-535.28 882.204,-528.302"/>
<text text-anchor="middle" x="945" y="-534" font-family="Helvetica,sans-Serif" font-size="10.00"> barrier_</text>
</g>
<!-- Node16&#45;&gt;Node15 -->
<g id="edge32" class="edge"><title>Node16&#45;&gt;Node15</title>
<path fill="none" stroke="#9a32cd" stroke-dasharray="5,2" d="M599.983,-539.929C650.282,-539.247 714.248,-538.38 759.482,-537.766"/>
<polygon fill="#9a32cd" stroke="#9a32cd" points="599.744,-536.432 589.792,-540.067 599.839,-543.431 599.744,-536.432"/>
<text text-anchor="middle" x="672" y="-543" font-family="Helvetica,sans-Serif" font-size="10.00"> wait_time_</text>
</g>
<!-- Node17 -->
<g id="node34" class="node"><title>Node17</title>
<a xlink:href="classthrill_1_1common_1_1StatsTimerBaseStopped.html" target="_top" xlink:title="StatsTimerBaseStopped\l\&lt; enable_stats \&gt;">
<polygon fill="none" stroke="black" points="754.5,-680 754.5,-714 877.5,-714 877.5,-680 754.5,-680"/>
<text text-anchor="start" x="762.5" y="-701" font-family="Helvetica,sans-Serif" font-size="10.00">StatsTimerBaseStopped</text>
<text text-anchor="middle" x="816" y="-688" font-family="Helvetica,sans-Serif" font-size="10.00">&lt; enable_stats &gt;</text>
</a>
</g>
<!-- Node17&#45;&gt;Node10 -->
<g id="edge36" class="edge"><title>Node17&#45;&gt;Node10</title>
<path fill="none" stroke="#9a32cd" stroke-dasharray="5,2" d="M860.499,-675.199C866.416,-672.169 872.377,-669.05 878,-666 930.533,-637.51 945.873,-633.428 994,-598 1025.15,-575.068 1057.76,-543.019 1073.82,-526.606"/>
<polygon fill="#9a32cd" stroke="#9a32cd" points="858.633,-672.22 851.294,-679.861 861.797,-678.465 858.633,-672.22"/>
<text text-anchor="start" x="896.5" y="-815" font-family="Helvetica,sans-Serif" font-size="10.00"> timer_communication</text>
<text text-anchor="middle" x="945" y="-802" font-family="Helvetica,sans-Serif" font-size="10.00">_</text>
<text text-anchor="start" x="896.5" y="-789" font-family="Helvetica,sans-Serif" font-size="10.00">timer_predecessor</text>
<text text-anchor="middle" x="945" y="-776" font-family="Helvetica,sans-Serif" font-size="10.00">_</text>
<text text-anchor="start" x="896.5" y="-763" font-family="Helvetica,sans-Serif" font-size="10.00">timer_allreduce</text>
<text text-anchor="middle" x="945" y="-750" font-family="Helvetica,sans-Serif" font-size="10.00">_</text>
<text text-anchor="start" x="896.5" y="-737" font-family="Helvetica,sans-Serif" font-size="10.00">timer_barrier</text>
<text text-anchor="middle" x="945" y="-724" font-family="Helvetica,sans-Serif" font-size="10.00">_</text>
<text text-anchor="start" x="896.5" y="-711" font-family="Helvetica,sans-Serif" font-size="10.00">timer_prefixsum</text>
<text text-anchor="middle" x="945" y="-698" font-family="Helvetica,sans-Serif" font-size="10.00">_</text>
<text text-anchor="start" x="896.5" y="-685" font-family="Helvetica,sans-Serif" font-size="10.00">timer_broadcast</text>
<text text-anchor="middle" x="945" y="-672" font-family="Helvetica,sans-Serif" font-size="10.00">_</text>
<text text-anchor="middle" x="945" y="-659" font-family="Helvetica,sans-Serif" font-size="10.00">timer_reduce_</text>
</g>
<!-- Node18 -->
<g id="node36" class="node"><title>Node18</title>
<a xlink:href="classthrill_1_1common_1_1StatsTimerBase.html" target="_top" xlink:title="This class provides a statistical stop watch timer that can easily be deactivated using a boolean tem...">
<polygon fill="none" stroke="black" points="160.5,-683.5 160.5,-704.5 293.5,-704.5 293.5,-683.5 160.5,-683.5"/>
<text text-anchor="middle" x="227" y="-691.5" font-family="Helvetica,sans-Serif" font-size="10.00">StatsTimerBase&lt; Active &gt;</text>
</a>
</g>
<!-- Node18&#45;&gt;Node17 -->
<g id="edge38" class="edge"><title>Node18&#45;&gt;Node17</title>
<path fill="none" stroke="midnightblue" d="M303.762,-694.391C421.922,-694.993 646.027,-696.134 754.336,-696.686"/>
<polygon fill="midnightblue" stroke="midnightblue" points="303.724,-690.891 293.706,-694.34 303.688,-697.891 303.724,-690.891"/>
</g>
<!-- Node19 -->
<g id="node38" class="node"><title>Node19</title>
<a xlink:href="classthrill_1_1common_1_1StatsTimerBaseStopped.html" target="_top" xlink:title="StatsTimerBaseStopped\l\&lt; Active \&gt;">
<polygon fill="none" stroke="black" points="459.5,-705 459.5,-739 582.5,-739 582.5,-705 459.5,-705"/>
<text text-anchor="start" x="467.5" y="-726" font-family="Helvetica,sans-Serif" font-size="10.00">StatsTimerBaseStopped</text>
<text text-anchor="middle" x="521" y="-713" font-family="Helvetica,sans-Serif" font-size="10.00">&lt; Active &gt;</text>
</a>
</g>
<!-- Node18&#45;&gt;Node19 -->
<g id="edge42" class="edge"><title>Node18&#45;&gt;Node19</title>
<path fill="none" stroke="midnightblue" d="M303.825,-701.317C352.203,-705.924 413.83,-711.793 459.068,-716.102"/>
<polygon fill="midnightblue" stroke="midnightblue" points="304,-697.818 293.713,-700.354 303.336,-704.786 304,-697.818"/>
</g>
<!-- Node19&#45;&gt;Node17 -->
<g id="edge40" class="edge"><title>Node19&#45;&gt;Node17</title>
<path fill="none" stroke="orange" stroke-dasharray="5,2" d="M592.837,-715.912C642.325,-711.718 707.396,-706.204 754.493,-702.212"/>
<polygon fill="orange" stroke="orange" points="592.51,-712.427 582.842,-716.759 593.102,-719.402 592.51,-712.427"/>
<text text-anchor="middle" x="672" y="-718" font-family="Helvetica,sans-Serif" font-size="10.00"> &lt; enable_stats &gt;</text>
</g>
<!-- Node20 -->
<g id="node41" class="node"><title>Node20</title>
<a xlink:href="classthrill_1_1api_1_1MemoryConfig.html" target="_top" xlink:title="MemoryConfig">
<polygon fill="none" stroke="black" points="1044,-123.5 1044,-144.5 1124,-144.5 1124,-123.5 1044,-123.5"/>
<text text-anchor="middle" x="1084" y="-131.5" font-family="Helvetica,sans-Serif" font-size="10.00">MemoryConfig</text>
</a>
</g>
<!-- Node20&#45;&gt;Node5 -->
<g id="edge44" class="edge"><title>Node20&#45;&gt;Node5</title>
<path fill="none" stroke="#9a32cd" stroke-dasharray="5,2" d="M1134.56,-124.646C1168.73,-121.236 1213.1,-122.828 1244,-146 1262.23,-159.669 1245.81,-177.97 1262,-194 1269.94,-201.863 1281.21,-206.662 1291.49,-209.577"/>
<polygon fill="#9a32cd" stroke="#9a32cd" points="1133.83,-121.208 1124.3,-125.847 1134.64,-128.16 1133.83,-121.208"/>
<text text-anchor="middle" x="1209" y="-150" font-family="Helvetica,sans-Serif" font-size="10.00"> mem_config_</text>
</g>
<!-- Node21&#45;&gt;Node5 -->
<g id="edge48" class="edge"><title>Node21&#45;&gt;Node5</title>
<path fill="none" stroke="#9a32cd" stroke-dasharray="5,2" d="M1126.27,-364.86C1160.77,-364.341 1209.32,-358.758 1244,-335 1284.48,-307.27 1306.27,-249.016 1313.86,-224.856"/>
<polygon fill="#9a32cd" stroke="#9a32cd" points="1126.04,-361.36 1116.04,-364.873 1126.05,-368.36 1126.04,-361.36"/>
<text text-anchor="middle" x="1209" y="-364" font-family="Helvetica,sans-Serif" font-size="10.00"> multiplexer_</text>
</g>
<!-- Node22&#45;&gt;Node21 -->
<g id="edge50" class="edge"><title>Node22&#45;&gt;Node21</title>
<path fill="none" stroke="#9a32cd" stroke-dasharray="5,2" d="M873.563,-460.171C909.517,-460.085 956.029,-456.12 994,-440 1029.21,-425.054 1060.76,-391.179 1075.39,-373.771"/>
<polygon fill="#9a32cd" stroke="#9a32cd" points="873.269,-456.669 863.242,-460.091 873.215,-463.669 873.269,-456.669"/>
<text text-anchor="middle" x="945" y="-463" font-family="Helvetica,sans-Serif" font-size="10.00"> dispatcher_</text>
</g>
<!-- Node23 -->
<g id="node48" class="node"><title>Node23</title>
<a xlink:href="classthrill_1_1common_1_1OurConcurrentQueue.html" target="_top" xlink:title="OurConcurrentQueue\l\&lt; thrill::common::Delegate,\l mem::Allocator\&lt; thrill\l::common::Delegate \&gt; \&gt;">
<polygon fill="none" stroke="black" points="453.5,-449 453.5,-509 588.5,-509 588.5,-449 453.5,-449"/>
<text text-anchor="start" x="461.5" y="-496" font-family="Helvetica,sans-Serif" font-size="10.00">OurConcurrentQueue</text>
<text text-anchor="start" x="461.5" y="-483" font-family="Helvetica,sans-Serif" font-size="10.00">&lt; thrill::common::Delegate,</text>
<text text-anchor="start" x="461.5" y="-470" font-family="Helvetica,sans-Serif" font-size="10.00"> mem::Allocator&lt; thrill</text>
<text text-anchor="middle" x="521" y="-457" font-family="Helvetica,sans-Serif" font-size="10.00">::common::Delegate &gt; &gt;</text>
</a>
</g>
<!-- Node23&#45;&gt;Node22 -->
<g id="edge52" class="edge"><title>Node23&#45;&gt;Node22</title>
<path fill="none" stroke="#9a32cd" stroke-dasharray="5,2" d="M598.913,-473.19C652.942,-469.16 723.131,-463.926 768.854,-460.516"/>
<polygon fill="#9a32cd" stroke="#9a32cd" points="598.391,-469.719 588.679,-473.953 598.912,-476.699 598.391,-469.719"/>
<text text-anchor="middle" x="672" y="-476" font-family="Helvetica,sans-Serif" font-size="10.00"> jobqueue_</text>
</g>
<!-- Node24 -->
<g id="node50" class="node"><title>Node24</title>
<a xlink:href="classthrill_1_1common_1_1OurConcurrentQueue.html" target="_top" xlink:title="This is a queue, similar to std::queue and tbb::concurrent_queue, except that it uses mutexes for syn...">
<polygon fill="none" stroke="black" points="172.5,-462 172.5,-496 281.5,-496 281.5,-462 172.5,-462"/>
<text text-anchor="start" x="180.5" y="-483" font-family="Helvetica,sans-Serif" font-size="10.00">OurConcurrentQueue</text>
<text text-anchor="middle" x="227" y="-470" font-family="Helvetica,sans-Serif" font-size="10.00">&lt; T, Allocator &gt;</text>
</a>
</g>
<!-- Node24&#45;&gt;Node23 -->
<g id="edge54" class="edge"><title>Node24&#45;&gt;Node23</title>
<path fill="none" stroke="orange" stroke-dasharray="5,2" d="M291.857,-479C339.724,-479 404.705,-479 453.245,-479"/>
<polygon fill="orange" stroke="orange" points="291.61,-475.5 281.61,-479 291.61,-482.5 291.61,-475.5"/>
<text text-anchor="start" x="312" y="-509" font-family="Helvetica,sans-Serif" font-size="10.00"> &lt; thrill::common::Delegate,</text>
<text text-anchor="start" x="312" y="-496" font-family="Helvetica,sans-Serif" font-size="10.00"> mem::Allocator&lt; thrill</text>
<text text-anchor="middle" x="373" y="-483" font-family="Helvetica,sans-Serif" font-size="10.00">::common::Delegate &gt; &gt;</text>
</g>
<!-- Node25&#45;&gt;Node5 -->
<g id="edge70" class="edge"><title>Node25&#45;&gt;Node5</title>
<path fill="none" stroke="#9a32cd" stroke-dasharray="5,2" d="M856.901,-350.759C934.978,-343.43 1109.46,-321.5 1244,-264 1267.31,-254.039 1290.9,-236.147 1304.72,-224.686"/>
<polygon fill="#9a32cd" stroke="#9a32cd" points="856.181,-347.31 846.538,-351.699 856.813,-354.282 856.181,-347.31"/>
<text text-anchor="middle" x="1084" y="-332" font-family="Helvetica,sans-Serif" font-size="10.00"> block_pool_</text>
</g>
<!-- Node25&#45;&gt;Node21 -->
<g id="edge60" class="edge"><title>Node25&#45;&gt;Node21</title>
<path fill="none" stroke="#9a32cd" stroke-dasharray="5,2" d="M856.71,-353.269C892.805,-352.85 946.94,-352.78 994,-355 1013.27,-355.909 1034.8,-357.791 1051.97,-359.502"/>
<polygon fill="#9a32cd" stroke="#9a32cd" points="856.526,-349.771 846.572,-353.401 856.617,-356.77 856.526,-349.771"/>
<text text-anchor="middle" x="945" y="-359" font-family="Helvetica,sans-Serif" font-size="10.00"> block_pool_</text>
</g>
<!-- Node26 -->
<g id="node61" class="node"><title>Node26</title>
<a xlink:href="classthrill_1_1net_1_1FlowControlChannelManager.html" target="_top" xlink:title="FlowControlChannelManager">
<polygon fill="none" stroke="black" points="1012.5,-45.5 1012.5,-66.5 1155.5,-66.5 1155.5,-45.5 1012.5,-45.5"/>
<text text-anchor="middle" x="1084" y="-53.5" font-family="Helvetica,sans-Serif" font-size="10.00">FlowControlChannelManager</text>
</a>
</g>
<!-- Node26&#45;&gt;Node5 -->
<g id="edge72" class="edge"><title>Node26&#45;&gt;Node5</title>
<path fill="none" stroke="#9a32cd" stroke-dasharray="5,2" d="M1165.71,-64.4251C1194.15,-71.3533 1223.93,-83.7877 1244,-106 1270.77,-135.619 1235.92,-163.775 1262,-194 1269.43,-202.616 1280.89,-207.521 1291.43,-210.313"/>
<polygon fill="#9a32cd" stroke="#9a32cd" points="1166.25,-60.9587 1155.72,-62.1971 1164.72,-67.7908 1166.25,-60.9587"/>
<text text-anchor="middle" x="1209" y="-110" font-family="Helvetica,sans-Serif" font-size="10.00"> flow_manager_</text>
</g>
<!-- Node27 -->
<g id="node65" class="node"><title>Node27</title>
<a xlink:href="classthrill_1_1api_1_1DIAMemUse.html" target="_top" xlink:title="Description of the amount of RAM the internal data structures of a DIANode require.">
<polygon fill="none" stroke="black" points="1280,-163.5 1280,-184.5 1354,-184.5 1354,-163.5 1280,-163.5"/>
<text text-anchor="middle" x="1317" y="-171.5" font-family="Helvetica,sans-Serif" font-size="10.00">DIAMemUse</text>
</a>
</g>
<!-- Node27&#45;&gt;Node3 -->
<g id="edge78" class="edge"><title>Node27&#45;&gt;Node3</title>
<path fill="none" stroke="#9a32cd" stroke-dasharray="5,2" d="M1364.38,-166.078C1394.16,-161.042 1433.35,-154.305 1468,-148 1482.85,-145.297 1499.38,-142.14 1512.94,-139.509"/>
<polygon fill="#9a32cd" stroke="#9a32cd" points="1363.55,-162.67 1354.27,-167.785 1364.71,-169.573 1363.55,-162.67"/>
<text text-anchor="middle" x="1429" y="-165" font-family="Helvetica,sans-Serif" font-size="10.00"> mem_limit_</text>
</g>
<!-- Node28 -->
<g id="node67" class="node"><title>Node28</title>
<a xlink:href="classthrill_1_1net_1_1BufferBuilder.html" target="_top" xlink:title="BufferBuilder represents a dynamically growable area of memory, which can be modified by appending in...">
<polygon fill="none" stroke="black" points="1742.5,-58.5 1742.5,-79.5 1815.5,-79.5 1815.5,-58.5 1742.5,-58.5"/>
<text text-anchor="middle" x="1779" y="-66.5" font-family="Helvetica,sans-Serif" font-size="10.00">BufferBuilder</text>
</a>
</g>
<!-- Node28&#45;&gt;Node1 -->
<g id="edge80" class="edge"><title>Node28&#45;&gt;Node1</title>
<path fill="none" stroke="#9a32cd" stroke-dasharray="5,2" d="M1825.8,-69C1859.91,-69 1906.87,-69 1946.29,-69"/>
<polygon fill="#9a32cd" stroke="#9a32cd" points="1825.64,-65.5001 1815.64,-69 1825.64,-72.5001 1825.64,-65.5001"/>
<text text-anchor="middle" x="1898" y="-73" font-family="Helvetica,sans-Serif" font-size="10.00"> write_buffer_</text>
</g>
<!-- Node29 -->
<g id="node69" class="node"><title>Node29</title>
<a xlink:href="classthrill_1_1common_1_1ItemWriterToolsBase.html" target="_top" xlink:title="ItemWriterToolsBase\l\&lt; BufferBuilder \&gt;">
<polygon fill="none" stroke="black" points="1486.5,-52 1486.5,-86 1595.5,-86 1595.5,-52 1486.5,-52"/>
<text text-anchor="start" x="1494.5" y="-73" font-family="Helvetica,sans-Serif" font-size="10.00">ItemWriterToolsBase</text>
<text text-anchor="middle" x="1541" y="-60" font-family="Helvetica,sans-Serif" font-size="10.00">&lt; BufferBuilder &gt;</text>
</a>
</g>
<!-- Node29&#45;&gt;Node28 -->
<g id="edge82" class="edge"><title>Node29&#45;&gt;Node28</title>
<path fill="none" stroke="midnightblue" d="M1605.62,-69C1649.54,-69 1706.05,-69 1742.41,-69"/>
<polygon fill="midnightblue" stroke="midnightblue" points="1605.6,-65.5001 1595.6,-69 1605.6,-72.5001 1605.6,-65.5001"/>
</g>
<!-- Node30 -->
<g id="node71" class="node"><title>Node30</title>
<a xlink:href="classthrill_1_1common_1_1ItemWriterToolsBase.html" target="_top" xlink:title="CRTP class to enhance item/memory writer classes with Varint encoding and String encoding.">
<polygon fill="none" stroke="black" points="1262.5,-33 1262.5,-67 1371.5,-67 1371.5,-33 1262.5,-33"/>
<text text-anchor="start" x="1270.5" y="-54" font-family="Helvetica,sans-Serif" font-size="10.00">ItemWriterToolsBase</text>
<text text-anchor="middle" x="1317" y="-41" font-family="Helvetica,sans-Serif" font-size="10.00">&lt; Writer &gt;</text>
</a>
</g>
<!-- Node30&#45;&gt;Node29 -->
<g id="edge84" class="edge"><title>Node30&#45;&gt;Node29</title>
<path fill="none" stroke="orange" stroke-dasharray="5,2" d="M1381.56,-55.476C1414.7,-58.2868 1454.63,-61.6742 1486.25,-64.3556"/>
<polygon fill="orange" stroke="orange" points="1381.77,-51.9814 1371.51,-54.6236 1381.18,-58.9564 1381.77,-51.9814"/>
<text text-anchor="middle" x="1429" y="-66" font-family="Helvetica,sans-Serif" font-size="10.00"> &lt; BufferBuilder &gt;</text>
</g>
<!-- Node31 -->
<g id="node73" class="node"><title>Node31</title>
<a xlink:href="classthrill_1_1common_1_1CountingPtr.html" target="_top" xlink:title="CountingPtr\&lt; WriteStream \&gt;">
<polygon fill="none" stroke="black" points="1708.5,-12.5 1708.5,-33.5 1849.5,-33.5 1849.5,-12.5 1708.5,-12.5"/>
<text text-anchor="middle" x="1779" y="-20.5" font-family="Helvetica,sans-Serif" font-size="10.00">CountingPtr&lt; WriteStream &gt;</text>
</a>
</g>
<!-- Node31&#45;&gt;Node1 -->
<g id="edge86" class="edge"><title>Node31&#45;&gt;Node1</title>
<path fill="none" stroke="#9a32cd" stroke-dasharray="5,2" d="M1844.73,-35.4421C1882.83,-42.6559 1930.29,-51.6395 1966.51,-58.4958"/>
<polygon fill="#9a32cd" stroke="#9a32cd" points="1845.23,-31.9745 1834.75,-33.5533 1843.92,-38.8523 1845.23,-31.9745"/>
<text text-anchor="middle" x="1898" y="-54" font-family="Helvetica,sans-Serif" font-size="10.00"> stream_</text>
</g>
<!-- Node32 -->
<g id="node75" class="node"><title>Node32</title>
<a xlink:href="classthrill_1_1common_1_1CountingPtr.html" target="_top" xlink:title="High&#45;performance smart pointer used as a wrapping reference counting pointer.">
<polygon fill="none" stroke="black" points="1490,-0 1490,-34 1592,-34 1592,-0 1490,-0"/>
<text text-anchor="start" x="1498" y="-21" font-family="Helvetica,sans-Serif" font-size="10.00">CountingPtr&lt; Type,</text>
<text text-anchor="middle" x="1541" y="-8" font-family="Helvetica,sans-Serif" font-size="10.00"> Deleter &gt;</text>
</a>
</g>
<!-- Node32&#45;&gt;Node31 -->
<g id="edge88" class="edge"><title>Node32&#45;&gt;Node31</title>
<path fill="none" stroke="orange" stroke-dasharray="5,2" d="M1602.28,-18.5449C1634.63,-19.3604 1674.49,-20.3654 1708.17,-21.2143"/>
<polygon fill="orange" stroke="orange" points="1602.14,-15.0404 1592.06,-18.2872 1601.97,-22.0382 1602.14,-15.0404"/>
<text text-anchor="middle" x="1652" y="-25" font-family="Helvetica,sans-Serif" font-size="10.00"> &lt; WriteStream &gt;</text>
</g>
</g>
</svg>
