<?xml version="1.0" encoding="UTF-8" standalone="no"?>
<!DOCTYPE svg PUBLIC "-//W3C//DTD SVG 1.1//EN"
 "http://www.w3.org/Graphics/SVG/1.1/DTD/svg11.dtd">
<!-- Generated by graphviz version 2.26.3 (20100126.1600)
 -->
<!-- Title: MixStream Pages: 1 -->
<svg width="1242pt" height="320pt"
 viewBox="0.00 0.00 1242.00 320.00" xmlns="http://www.w3.org/2000/svg" xmlns:xlink="http://www.w3.org/1999/xlink">
<g id="graph1" class="graph" transform="scale(1 1) rotate(0) translate(4 316)">
<title>MixStream</title>
<!-- Node1 -->
<g id="node1" class="node"><title>Node1</title>
<polygon fill="#bfbfbf" stroke="black" points="1170,-93.5 1170,-114.5 1234,-114.5 1234,-93.5 1170,-93.5"/>
<text text-anchor="middle" x="1202" y="-101.5" font-family="Helvetica,sans-Serif" font-size="10.00">MixStream</text>
</g>
<!-- Node2 -->
<g id="node2" class="node"><title>Node2</title>
<a xlink:href="classthrill_1_1data_1_1Stream.html" target="_top" xlink:title="Base class for common structures for ConcatStream and MixedStream.">
<polygon fill="none" stroke="black" points="1084,-131.5 1084,-152.5 1132,-152.5 1132,-131.5 1084,-131.5"/>
<text text-anchor="middle" x="1108" y="-139.5" font-family="Helvetica,sans-Serif" font-size="10.00">Stream</text>
</a>
</g>
<!-- Node2&#45;&gt;Node1 -->
<g id="edge2" class="edge"><title>Node2&#45;&gt;Node1</title>
<path fill="none" stroke="midnightblue" d="M1141.73,-128.364C1152.97,-123.819 1165.32,-118.828 1175.9,-114.553"/>
<polygon fill="midnightblue" stroke="midnightblue" points="1140.17,-125.221 1132.21,-132.214 1142.79,-131.711 1140.17,-125.221"/>
</g>
<!-- Node3 -->
<g id="node4" class="node"><title>Node3</title>
<a xlink:href="classtlx_1_1ReferenceCounter.html" target="_top" xlink:title="Provides reference counting abilities for use with CountingPtr.">
<polygon fill="none" stroke="black" points="854,-149.5 854,-170.5 950,-170.5 950,-149.5 854,-149.5"/>
<text text-anchor="middle" x="902" y="-157.5" font-family="Helvetica,sans-Serif" font-size="10.00">ReferenceCounter</text>
</a>
</g>
<!-- Node3&#45;&gt;Node2 -->
<g id="edge4" class="edge"><title>Node3&#45;&gt;Node2</title>
<path fill="none" stroke="midnightblue" d="M960.169,-154.917C1001.09,-151.341 1053.75,-146.741 1083.9,-144.106"/>
<polygon fill="midnightblue" stroke="midnightblue" points="959.695,-151.445 950.038,-155.803 960.305,-158.419 959.695,-151.445"/>
</g>
<!-- Node4 -->
<g id="node6" class="node"><title>Node4</title>
<a xlink:href="classthrill_1_1common_1_1Semaphore.html" target="_top" xlink:title="Semaphore">
<polygon fill="none" stroke="black" points="869,-109.5 869,-130.5 935,-130.5 935,-109.5 869,-109.5"/>
<text text-anchor="middle" x="902" y="-117.5" font-family="Helvetica,sans-Serif" font-size="10.00">Semaphore</text>
</a>
</g>
<!-- Node4&#45;&gt;Node2 -->
<g id="edge6" class="edge"><title>Node4&#45;&gt;Node2</title>
<path fill="none" stroke="#9a32cd" stroke-dasharray="5,2" d="M945.55,-119.498C978.794,-119.811 1025.6,-121.754 1066,-129 1071.86,-130.051 1078.05,-131.669 1083.82,-133.41"/>
<polygon fill="#9a32cd" stroke="#9a32cd" points="945.275,-115.997 935.258,-119.449 945.241,-122.997 945.275,-115.997"/>
<text text-anchor="middle" x="1017" y="-133" font-family="Helvetica,sans-Serif" font-size="10.00"> sem_closing_blocks_</text>
</g>
<!-- Node5 -->
<g id="node8" class="node"><title>Node5</title>
<a xlink:href="classthrill_1_1data_1_1Multiplexer.html" target="_top" xlink:title="Multiplexes virtual Connections on Dispatcher.">
<polygon fill="none" stroke="black" points="870,-191.5 870,-212.5 934,-212.5 934,-191.5 870,-191.5"/>
<text text-anchor="middle" x="902" y="-199.5" font-family="Helvetica,sans-Serif" font-size="10.00">Multiplexer</text>
</a>
</g>
<!-- Node5&#45;&gt;Node2 -->
<g id="edge8" class="edge"><title>Node5&#45;&gt;Node2</title>
<path fill="none" stroke="#9a32cd" stroke-dasharray="5,2" d="M944.178,-195.819C977.871,-190.095 1025.92,-180.154 1066,-165 1074.71,-161.707 1083.84,-156.893 1091.35,-152.52"/>
<polygon fill="#9a32cd" stroke="#9a32cd" points="943.505,-192.383 934.207,-197.461 944.643,-199.29 943.505,-192.383"/>
<text text-anchor="middle" x="1017" y="-195" font-family="Helvetica,sans-Serif" font-size="10.00"> multiplexer_</text>
</g>
<!-- Node6 -->
<g id="node10" class="node"><title>Node6</title>
<a xlink:href="classthrill_1_1net_1_1DispatcherThread.html" target="_top" xlink:title="DispatcherThread contains a net::Dispatcher object and an associated thread that runs in the dispatch...">
<polygon fill="none" stroke="black" points="611,-273.5 611,-294.5 705,-294.5 705,-273.5 611,-273.5"/>
<text text-anchor="middle" x="658" y="-281.5" font-family="Helvetica,sans-Serif" font-size="10.00">DispatcherThread</text>
</a>
</g>
<!-- Node6&#45;&gt;Node5 -->
<g id="edge10" class="edge"><title>Node6&#45;&gt;Node5</title>
<path fill="none" stroke="#9a32cd" stroke-dasharray="5,2" d="M715.433,-277.354C751.145,-271.869 797.444,-262.263 836,-246 856.048,-237.544 876.49,-222.765 889.203,-212.69"/>
<polygon fill="#9a32cd" stroke="#9a32cd" points="714.569,-273.943 705.184,-278.86 715.586,-280.869 714.569,-273.943"/>
<text text-anchor="middle" x="793" y="-275" font-family="Helvetica,sans-Serif" font-size="10.00"> dispatcher_</text>
</g>
<!-- Node7 -->
<g id="node12" class="node"><title>Node7</title>
<a xlink:href="classthrill_1_1common_1_1OurConcurrentQueue.html" target="_top" xlink:title="OurConcurrentQueue\l\&lt; tlx::Delegate, mem\l::Allocator\&lt; tlx::Delegate \&gt; \&gt;">
<polygon fill="none" stroke="black" points="288.5,-262.5 288.5,-309.5 431.5,-309.5 431.5,-262.5 288.5,-262.5"/>
<text text-anchor="start" x="296.5" y="-296.5" font-family="Helvetica,sans-Serif" font-size="10.00">OurConcurrentQueue</text>
<text text-anchor="start" x="296.5" y="-283.5" font-family="Helvetica,sans-Serif" font-size="10.00">&lt; tlx::Delegate, mem</text>
<text text-anchor="middle" x="360" y="-270.5" font-family="Helvetica,sans-Serif" font-size="10.00">::Allocator&lt; tlx::Delegate &gt; &gt;</text>
</a>
</g>
<!-- Node7&#45;&gt;Node6 -->
<g id="edge12" class="edge"><title>Node7&#45;&gt;Node6</title>
<path fill="none" stroke="#9a32cd" stroke-dasharray="5,2" d="M442.037,-285.449C496.219,-285.086 565.316,-284.622 610.566,-284.318"/>
<polygon fill="#9a32cd" stroke="#9a32cd" points="441.734,-281.951 431.758,-285.518 441.781,-288.951 441.734,-281.951"/>
<text text-anchor="middle" x="515" y="-289" font-family="Helvetica,sans-Serif" font-size="10.00"> jobqueue_</text>
</g>
<!-- Node8 -->
<g id="node14" class="node"><title>Node8</title>
<a xlink:href="classthrill_1_1common_1_1OurConcurrentQueue.html" target="_top" xlink:title="This is a queue, similar to std::queue and tbb::concurrent_queue, except that it uses mutexes for syn...">
<polygon fill="none" stroke="black" points="0.5,-269 0.5,-303 109.5,-303 109.5,-269 0.5,-269"/>
<text text-anchor="start" x="8.5" y="-290" font-family="Helvetica,sans-Serif" font-size="10.00">OurConcurrentQueue</text>
<text text-anchor="middle" x="55" y="-277" font-family="Helvetica,sans-Serif" font-size="10.00">&lt; T, Allocator &gt;</text>
</a>
</g>
<!-- Node8&#45;&gt;Node7 -->
<g id="edge14" class="edge"><title>Node8&#45;&gt;Node7</title>
<path fill="none" stroke="orange" stroke-dasharray="5,2" d="M119.787,-286C169.252,-286 237.37,-286 288.438,-286"/>
<polygon fill="orange" stroke="orange" points="119.528,-282.5 109.528,-286 119.528,-289.5 119.528,-282.5"/>
<text text-anchor="start" x="128.5" y="-303" font-family="Helvetica,sans-Serif" font-size="10.00"> &lt; tlx::Delegate, mem</text>
<text text-anchor="middle" x="192" y="-290" font-family="Helvetica,sans-Serif" font-size="10.00">::Allocator&lt; tlx::Delegate &gt; &gt;</text>
</g>
<!-- Node9 -->
<g id="node16" class="node"><title>Node9</title>
<a xlink:href="classthrill_1_1mem_1_1Manager.html" target="_top" xlink:title="Object shared by allocators and other classes to track memory allocations.">
<polygon fill="none" stroke="black" points="333,-191.5 333,-212.5 387,-212.5 387,-191.5 333,-191.5"/>
<text text-anchor="middle" x="360" y="-199.5" font-family="Helvetica,sans-Serif" font-size="10.00">Manager</text>
</a>
</g>
<!-- Node9&#45;&gt;Node5 -->
<g id="edge34" class="edge"><title>Node9&#45;&gt;Node5</title>
<path fill="none" stroke="#9a32cd" stroke-dasharray="5,2" d="M397.275,-202C498.088,-202 774.902,-202 869.675,-202"/>
<polygon fill="#9a32cd" stroke="#9a32cd" points="397.249,-198.5 387.249,-202 397.249,-205.5 397.249,-198.5"/>
<text text-anchor="middle" x="658" y="-206" font-family="Helvetica,sans-Serif" font-size="10.00"> mem_manager_</text>
</g>
<!-- Node9&#45;&gt;Node6 -->
<g id="edge16" class="edge"><title>Node9&#45;&gt;Node6</title>
<path fill="none" stroke="#9a32cd" stroke-dasharray="5,2" d="M396.992,-212.313C441.389,-224.673 518.102,-245.975 584,-264 595.296,-267.09 607.57,-270.419 618.815,-273.457"/>
<polygon fill="#9a32cd" stroke="#9a32cd" points="397.798,-208.904 387.226,-209.593 395.92,-215.648 397.798,-208.904"/>
<text text-anchor="middle" x="515" y="-263" font-family="Helvetica,sans-Serif" font-size="10.00"> mem_manager_</text>
</g>
<!-- Node9&#45;&gt;Node9 -->
<g id="edge18" class="edge"><title>Node9&#45;&gt;Node9</title>
<path fill="none" stroke="#9a32cd" stroke-dasharray="5,2" d="M331.469,-222.055C333.34,-227.164 342.851,-231 360,-231 386.77,-231 394.926,-221.653 384.469,-212.708"/>
<polygon fill="#9a32cd" stroke="#9a32cd" points="334.755,-223.274 335.531,-212.708 328.335,-220.484 334.755,-223.274"/>
<text text-anchor="middle" x="360" y="-235" font-family="Helvetica,sans-Serif" font-size="10.00"> super_</text>
</g>
<!-- Node11 -->
<g id="node21" class="node"><title>Node11</title>
<a xlink:href="classthrill_1_1data_1_1BlockPool.html" target="_top" xlink:title="Pool to allocate, keep, swap out/in, and free all ByteBlocks on the host.">
<polygon fill="none" stroke="black" points="627.5,-130.5 627.5,-151.5 688.5,-151.5 688.5,-130.5 627.5,-130.5"/>
<text text-anchor="middle" x="658" y="-138.5" font-family="Helvetica,sans-Serif" font-size="10.00">BlockPool</text>
</a>
</g>
<!-- Node9&#45;&gt;Node11 -->
<g id="edge32" class="edge"><title>Node9&#45;&gt;Node11</title>
<path fill="none" stroke="#9a32cd" stroke-dasharray="5,2" d="M397.455,-194.506C412.652,-191.151 430.292,-186.854 446,-182 454.201,-179.466 455.732,-177.308 464,-175 520.648,-159.188 588.75,-149.275 627.343,-144.472"/>
<polygon fill="#9a32cd" stroke="#9a32cd" points="396.418,-191.149 387.378,-196.673 397.89,-197.992 396.418,-191.149"/>
<text text-anchor="middle" x="515" y="-179" font-family="Helvetica,sans-Serif" font-size="10.00"> mem_manager_</text>
</g>
<!-- Node10 -->
<g id="node19" class="node"><title>Node10</title>
<a xlink:href="classthrill_1_1net_1_1Group.html" target="_top" xlink:title="A network Group is a collection of enumerated communication links, which provides point&#45;to&#45;point comm...">
<polygon fill="none" stroke="black" points="636.5,-233.5 636.5,-254.5 679.5,-254.5 679.5,-233.5 636.5,-233.5"/>
<text text-anchor="middle" x="658" y="-241.5" font-family="Helvetica,sans-Serif" font-size="10.00">Group</text>
</a>
</g>
<!-- Node10&#45;&gt;Node5 -->
<g id="edge20" class="edge"><title>Node10&#45;&gt;Node5</title>
<path fill="none" stroke="#9a32cd" stroke-dasharray="5,2" d="M689.99,-239.489C725.688,-234.335 785.121,-225.391 836,-216 847.058,-213.959 859.104,-211.48 869.841,-209.178"/>
<polygon fill="#9a32cd" stroke="#9a32cd" points="689.111,-236.08 679.709,-240.964 690.105,-243.009 689.111,-236.08"/>
<text text-anchor="middle" x="793" y="-233" font-family="Helvetica,sans-Serif" font-size="10.00"> group_</text>
</g>
<!-- Node11&#45;&gt;Node5 -->
<g id="edge22" class="edge"><title>Node11&#45;&gt;Node5</title>
<path fill="none" stroke="#9a32cd" stroke-dasharray="5,2" d="M698.914,-146.441C735.353,-151.845 789.882,-161.312 836,-175 850.835,-179.403 866.919,-185.944 879.494,-191.485"/>
<polygon fill="#9a32cd" stroke="#9a32cd" points="699.075,-142.928 688.677,-144.959 698.072,-149.856 699.075,-142.928"/>
<text text-anchor="middle" x="793" y="-179" font-family="Helvetica,sans-Serif" font-size="10.00"> block_pool_</text>
</g>
<!-- Node15 -->
<g id="node32" class="node"><title>Node15</title>
<a xlink:href="classthrill_1_1data_1_1MixBlockQueue.html" target="_top" xlink:title="Implements reading an unordered sequence of items from multiple workers, which sends Blocks...">
<polygon fill="none" stroke="black" points="859,-65.5 859,-86.5 945,-86.5 945,-65.5 859,-65.5"/>
<text text-anchor="middle" x="902" y="-73.5" font-family="Helvetica,sans-Serif" font-size="10.00">MixBlockQueue</text>
</a>
</g>
<!-- Node11&#45;&gt;Node15 -->
<g id="edge42" class="edge"><title>Node11&#45;&gt;Node15</title>
<path fill="none" stroke="#9a32cd" stroke-dasharray="5,2" d="M698.731,-130.149C744.25,-118.024 817.453,-98.5229 862.475,-86.5292"/>
<polygon fill="#9a32cd" stroke="#9a32cd" points="697.665,-126.811 688.903,-132.768 699.467,-133.576 697.665,-126.811"/>
<text text-anchor="middle" x="793" y="-121" font-family="Helvetica,sans-Serif" font-size="10.00"> block_pool_</text>
</g>
<!-- Node12 -->
<g id="node23" class="node"><title>Node12</title>
<a xlink:href="classthrill_1_1common_1_1ProfileTask.html" target="_top" xlink:title="ProfileTask">
<polygon fill="none" stroke="black" points="327,-151.5 327,-172.5 393,-172.5 393,-151.5 327,-151.5"/>
<text text-anchor="middle" x="360" y="-159.5" font-family="Helvetica,sans-Serif" font-size="10.00">ProfileTask</text>
</a>
</g>
<!-- Node12&#45;&gt;Node11 -->
<g id="edge24" class="edge"><title>Node12&#45;&gt;Node11</title>
<path fill="none" stroke="midnightblue" d="M403.083,-158.964C463.949,-154.675 573.638,-146.945 627.068,-143.18"/>
<polygon fill="midnightblue" stroke="midnightblue" points="402.759,-155.478 393.03,-159.672 403.251,-162.461 402.759,-155.478"/>
</g>
<!-- Node13 -->
<g id="node25" class="node"><title>Node13</title>
<a xlink:href="classthrill_1_1common_1_1JsonLogger.html" target="_top" xlink:title="JsonLogger is a receiver of JSON output objects for logging.">
<polygon fill="none" stroke="black" points="326.5,-80.5 326.5,-101.5 393.5,-101.5 393.5,-80.5 326.5,-80.5"/>
<text text-anchor="middle" x="360" y="-88.5" font-family="Helvetica,sans-Serif" font-size="10.00">JsonLogger</text>
</a>
</g>
<!-- Node13&#45;&gt;Node11 -->
<g id="edge26" class="edge"><title>Node13&#45;&gt;Node11</title>
<path fill="none" stroke="#9a32cd" stroke-dasharray="5,2" d="M403.694,-98.3313C464.735,-108.573 574.008,-126.907 627.208,-135.834"/>
<polygon fill="#9a32cd" stroke="#9a32cd" points="404.046,-94.8415 393.605,-96.6384 402.888,-101.745 404.046,-94.8415"/>
<text text-anchor="middle" x="515" y="-129" font-family="Helvetica,sans-Serif" font-size="10.00"> logger_</text>
</g>
<!-- Node13&#45;&gt;Node13 -->
<g id="edge30" class="edge"><title>Node13&#45;&gt;Node13</title>
<path fill="none" stroke="#9a32cd" stroke-dasharray="5,2" d="M331.469,-111.055C333.34,-116.164 342.851,-120 360,-120 386.77,-120 394.926,-110.653 384.469,-101.708"/>
<polygon fill="#9a32cd" stroke="#9a32cd" points="334.755,-112.274 335.531,-101.708 328.335,-109.484 334.755,-112.274"/>
<text text-anchor="middle" x="360" y="-124" font-family="Helvetica,sans-Serif" font-size="10.00"> super_</text>
</g>
<!-- Node14 -->
<g id="node27" class="node"><title>Node14</title>
<a xlink:href="classthrill_1_1common_1_1JsonVerbatim.html" target="_top" xlink:title="A special class to output verbatim text.">
<polygon fill="none" stroke="black" points="16.5,-80.5 16.5,-101.5 93.5,-101.5 93.5,-80.5 16.5,-80.5"/>
<text text-anchor="middle" x="55" y="-88.5" font-family="Helvetica,sans-Serif" font-size="10.00">JsonVerbatim</text>
</a>
</g>
<!-- Node14&#45;&gt;Node13 -->
<g id="edge28" class="edge"><title>Node14&#45;&gt;Node13</title>
<path fill="none" stroke="#9a32cd" stroke-dasharray="5,2" d="M103.993,-91C166.347,-91 272.424,-91 326.359,-91"/>
<polygon fill="#9a32cd" stroke="#9a32cd" points="103.628,-87.5001 93.6285,-91 103.628,-94.5001 103.628,-87.5001"/>
<text text-anchor="middle" x="192" y="-95" font-family="Helvetica,sans-Serif" font-size="10.00"> common_</text>
</g>
<!-- Node15&#45;&gt;Node1 -->
<g id="edge36" class="edge"><title>Node15&#45;&gt;Node1</title>
<path fill="none" stroke="#9a32cd" stroke-dasharray="5,2" d="M955.319,-80.9764C1017.54,-86.7835 1118.43,-96.1999 1169.77,-100.992"/>
<polygon fill="#9a32cd" stroke="#9a32cd" points="955.584,-77.4861 945.302,-80.0415 954.934,-84.4558 955.584,-77.4861"/>
<text text-anchor="middle" x="1108" y="-102" font-family="Helvetica,sans-Serif" font-size="10.00"> queue_</text>
</g>
<!-- Node16 -->
<g id="node34" class="node"><title>Node16</title>
<a xlink:href="classthrill_1_1common_1_1AtomicMovable.html" target="_top" xlink:title="AtomicMovable\&lt; size_t \&gt;">
<polygon fill="none" stroke="black" points="594,-1.5 594,-22.5 722,-22.5 722,-1.5 594,-1.5"/>
<text text-anchor="middle" x="658" y="-9.5" font-family="Helvetica,sans-Serif" font-size="10.00">AtomicMovable&lt; size_t &gt;</text>
</a>
</g>
<!-- Node16&#45;&gt;Node15 -->
<g id="edge38" class="edge"><title>Node16&#45;&gt;Node15</title>
<path fill="none" stroke="#9a32cd" stroke-dasharray="5,2" d="M720.463,-24.644C754.796,-32.0295 798.007,-42.0398 836,-53 848.591,-56.6324 862.305,-61.2935 873.954,-65.4688"/>
<polygon fill="#9a32cd" stroke="#9a32cd" points="721.079,-21.1968 710.569,-22.5353 719.62,-28.043 721.079,-21.1968"/>
<text text-anchor="middle" x="793" y="-57" font-family="Helvetica,sans-Serif" font-size="10.00"> write_open_count_</text>
</g>
<!-- Node17 -->
<g id="node36" class="node"><title>Node17</title>
<a xlink:href="classthrill_1_1common_1_1AtomicMovable.html" target="_top" xlink:title="This is a derivative of std::atomic which enables easier and less error&#45;prone writing of move&#45;only cl...">
<polygon fill="none" stroke="black" points="306,-0.5 306,-21.5 414,-21.5 414,-0.5 306,-0.5"/>
<text text-anchor="middle" x="360" y="-8.5" font-family="Helvetica,sans-Serif" font-size="10.00">AtomicMovable&lt; T &gt;</text>
</a>
</g>
<!-- Node17&#45;&gt;Node16 -->
<g id="edge40" class="edge"><title>Node17&#45;&gt;Node16</title>
<path fill="none" stroke="orange" stroke-dasharray="5,2" d="M424.396,-11.2161C474.568,-11.3845 543.883,-11.6171 593.964,-11.7851"/>
<polygon fill="orange" stroke="orange" points="424.323,-7.71593 414.311,-11.1823 424.299,-14.7159 424.323,-7.71593"/>
<text text-anchor="middle" x="515" y="-16" font-family="Helvetica,sans-Serif" font-size="10.00"> &lt; size_t &gt;</text>
</g>
<!-- Node18 -->
<g id="node39" class="node"><title>Node18</title>
<a xlink:href="classthrill_1_1common_1_1OurConcurrentBoundedQueue.html" target="_top" xlink:title="OurConcurrentBoundedQueue\l\&lt; thrill::data::MixBlockQueue\l::SrcBlockPair \&gt;">
<polygon fill="none" stroke="black" points="584.5,-42.5 584.5,-89.5 731.5,-89.5 731.5,-42.5 584.5,-42.5"/>
<text text-anchor="start" x="592.5" y="-76.5" font-family="Helvetica,sans-Serif" font-size="10.00">OurConcurrentBoundedQueue</text>
<text text-anchor="start" x="592.5" y="-63.5" font-family="Helvetica,sans-Serif" font-size="10.00">&lt; thrill::data::MixBlockQueue</text>
<text text-anchor="middle" x="658" y="-50.5" font-family="Helvetica,sans-Serif" font-size="10.00">::SrcBlockPair &gt;</text>
</a>
</g>
<!-- Node18&#45;&gt;Node15 -->
<g id="edge44" class="edge"><title>Node18&#45;&gt;Node15</title>
<path fill="none" stroke="#9a32cd" stroke-dasharray="5,2" d="M741.677,-69.4294C781.061,-71.0435 826.376,-72.9007 858.76,-74.2279"/>
<polygon fill="#9a32cd" stroke="#9a32cd" points="741.674,-65.9264 731.539,-69.0139 741.387,-72.9205 741.674,-65.9264"/>
<text text-anchor="middle" x="793" y="-78" font-family="Helvetica,sans-Serif" font-size="10.00"> mix_queue_</text>
</g>
<!-- Node19 -->
<g id="node41" class="node"><title>Node19</title>
<a xlink:href="classthrill_1_1common_1_1OurConcurrentBoundedQueue.html" target="_top" xlink:title="This is a queue, similar to std::queue and tbb::concurrent_bounded_queue, except that it uses mutexes...">
<polygon fill="none" stroke="black" points="274.5,-40.5 274.5,-61.5 445.5,-61.5 445.5,-40.5 274.5,-40.5"/>
<text text-anchor="middle" x="360" y="-48.5" font-family="Helvetica,sans-Serif" font-size="10.00">OurConcurrentBoundedQueue&lt; T &gt;</text>
</a>
</g>
<!-- Node19&#45;&gt;Node18 -->
<g id="edge46" class="edge"><title>Node19&#45;&gt;Node18</title>
<path fill="none" stroke="orange" stroke-dasharray="5,2" d="M455.859,-53.9833C490.569,-55.2587 530.064,-56.9358 566,-59 571.917,-59.3399 578.046,-59.7277 584.201,-60.1426"/>
<polygon fill="orange" stroke="orange" points="455.848,-50.4807 445.728,-53.6173 455.595,-57.4761 455.848,-50.4807"/>
<text text-anchor="start" x="464" y="-76" font-family="Helvetica,sans-Serif" font-size="10.00"> &lt; thrill::data::MixBlock</text>
<text text-anchor="middle" x="515" y="-63" font-family="Helvetica,sans-Serif" font-size="10.00">Queue::SrcBlockPair &gt;</text>
</g>
</g>
</svg>
