<?xml version="1.0" encoding="UTF-8" standalone="no"?>
<!DOCTYPE svg PUBLIC "-//W3C//DTD SVG 1.1//EN"
 "http://www.w3.org/Graphics/SVG/1.1/DTD/svg11.dtd">
<!-- Generated by graphviz version 2.26.3 (20100126.1600)
 -->
<!-- Title: BlockQueue Pages: 1 -->
<svg width="1152pt" height="238pt"
 viewBox="0.00 0.00 1152.00 238.00" xmlns="http://www.w3.org/2000/svg" xmlns:xlink="http://www.w3.org/1999/xlink">
<g id="graph1" class="graph" transform="scale(1 1) rotate(0) translate(4 234)">
<title>BlockQueue</title>
<!-- Node1 -->
<g id="node1" class="node"><title>Node1</title>
<polygon fill="#bfbfbf" stroke="black" points="1074,-92.5 1074,-113.5 1144,-113.5 1144,-92.5 1074,-92.5"/>
<text text-anchor="middle" x="1109" y="-100.5" font-family="Helvetica,sans-Serif" font-size="10.00">BlockQueue</text>
</g>
<!-- Node2 -->
<g id="node2" class="node"><title>Node2</title>
<a xlink:href="classthrill_1_1data_1_1BlockSink.html" target="_top" xlink:title="Pure virtual base class for all things that can receive Blocks from a BlockWriter.">
<polygon fill="none" stroke="black" points="547.5,-137.5 547.5,-158.5 608.5,-158.5 608.5,-137.5 547.5,-137.5"/>
<text text-anchor="middle" x="578" y="-145.5" font-family="Helvetica,sans-Serif" font-size="10.00">BlockSink</text>
</a>
</g>
<!-- Node2&#45;&gt;Node1 -->
<g id="edge2" class="edge"><title>Node2&#45;&gt;Node1</title>
<path fill="none" stroke="midnightblue" d="M618.535,-149.039C701.457,-150.418 896.132,-149.826 1056,-120 1064.17,-118.476 1072.83,-116.057 1080.73,-113.517"/>
<polygon fill="midnightblue" stroke="midnightblue" points="618.583,-145.539 608.52,-148.853 618.453,-152.538 618.583,-145.539"/>
</g>
<!-- Node14 -->
<g id="node28" class="node"><title>Node14</title>
<a xlink:href="classthrill_1_1data_1_1File.html" target="_top" xlink:title="A File is an ordered sequence of Block objects for storing items.">
<polygon fill="none" stroke="black" points="869,-170.5 869,-191.5 901,-191.5 901,-170.5 869,-170.5"/>
<text text-anchor="middle" x="885" y="-178.5" font-family="Helvetica,sans-Serif" font-size="10.00">File</text>
</a>
</g>
<!-- Node2&#45;&gt;Node14 -->
<g id="edge32" class="edge"><title>Node2&#45;&gt;Node14</title>
<path fill="none" stroke="midnightblue" d="M618.527,-152.356C686.819,-159.697 821.948,-174.222 868.66,-179.244"/>
<polygon fill="midnightblue" stroke="midnightblue" points="618.876,-148.874 608.559,-151.285 618.127,-155.834 618.876,-148.874"/>
</g>
<!-- Node3 -->
<g id="node4" class="node"><title>Node3</title>
<a xlink:href="classthrill_1_1data_1_1BlockPool.html" target="_top" xlink:title="Pool to allocate, keep, swap out/in, and free all ByteBlocks on the host.">
<polygon fill="none" stroke="black" points="338.5,-137.5 338.5,-158.5 399.5,-158.5 399.5,-137.5 338.5,-137.5"/>
<text text-anchor="middle" x="369" y="-145.5" font-family="Helvetica,sans-Serif" font-size="10.00">BlockPool</text>
</a>
</g>
<!-- Node3&#45;&gt;Node2 -->
<g id="edge4" class="edge"><title>Node3&#45;&gt;Node2</title>
<path fill="none" stroke="#9a32cd" stroke-dasharray="5,2" d="M409.882,-148C450.234,-148 511.016,-148 547.375,-148"/>
<polygon fill="#9a32cd" stroke="#9a32cd" points="409.839,-144.5 399.839,-148 409.839,-151.5 409.839,-144.5"/>
<text text-anchor="middle" x="446" y="-152" font-family="Helvetica,sans-Serif" font-size="10.00"> block_pool_</text>
</g>
<!-- Node4 -->
<g id="node6" class="node"><title>Node4</title>
<a xlink:href="classthrill_1_1common_1_1ProfileTask.html" target="_top" xlink:title="ProfileTask">
<polygon fill="none" stroke="black" points="161,-208.5 161,-229.5 227,-229.5 227,-208.5 161,-208.5"/>
<text text-anchor="middle" x="194" y="-216.5" font-family="Helvetica,sans-Serif" font-size="10.00">ProfileTask</text>
</a>
</g>
<!-- Node4&#45;&gt;Node3 -->
<g id="edge6" class="edge"><title>Node4&#45;&gt;Node3</title>
<path fill="none" stroke="midnightblue" d="M229.652,-204.535C263.263,-190.899 312.84,-170.785 342.908,-158.586"/>
<polygon fill="midnightblue" stroke="midnightblue" points="228.15,-201.368 220.199,-208.371 230.782,-207.854 228.15,-201.368"/>
</g>
<!-- Node5 -->
<g id="node8" class="node"><title>Node5</title>
<a xlink:href="classthrill_1_1common_1_1JsonLogger.html" target="_top" xlink:title="JsonLogger is a receiver of JSON output objects for logging.">
<polygon fill="none" stroke="black" points="160.5,-137.5 160.5,-158.5 227.5,-158.5 227.5,-137.5 160.5,-137.5"/>
<text text-anchor="middle" x="194" y="-145.5" font-family="Helvetica,sans-Serif" font-size="10.00">JsonLogger</text>
</a>
</g>
<!-- Node5&#45;&gt;Node3 -->
<g id="edge8" class="edge"><title>Node5&#45;&gt;Node3</title>
<path fill="none" stroke="#9a32cd" stroke-dasharray="5,2" d="M237.936,-148C269.225,-148 310.492,-148 338.292,-148"/>
<polygon fill="#9a32cd" stroke="#9a32cd" points="237.742,-144.5 227.742,-148 237.742,-151.5 237.742,-144.5"/>
<text text-anchor="middle" x="283" y="-152" font-family="Helvetica,sans-Serif" font-size="10.00"> logger_</text>
</g>
<!-- Node5&#45;&gt;Node5 -->
<g id="edge12" class="edge"><title>Node5&#45;&gt;Node5</title>
<path fill="none" stroke="#9a32cd" stroke-dasharray="5,2" d="M180.448,-168.793C181.644,-173.529 186.161,-177 194,-177 206.863,-177 210.783,-167.653 205.758,-158.708"/>
<polygon fill="#9a32cd" stroke="#9a32cd" points="183.937,-169.166 182.242,-158.708 177.045,-167.94 183.937,-169.166"/>
<text text-anchor="middle" x="194" y="-181" font-family="Helvetica,sans-Serif" font-size="10.00"> super_</text>
</g>
<!-- Node6 -->
<g id="node10" class="node"><title>Node6</title>
<a xlink:href="classthrill_1_1common_1_1JsonVerbatim.html" target="_top" xlink:title="A special class to output verbatim text.">
<polygon fill="none" stroke="black" points="0.5,-137.5 0.5,-158.5 77.5,-158.5 77.5,-137.5 0.5,-137.5"/>
<text text-anchor="middle" x="39" y="-145.5" font-family="Helvetica,sans-Serif" font-size="10.00">JsonVerbatim</text>
</a>
</g>
<!-- Node6&#45;&gt;Node5 -->
<g id="edge10" class="edge"><title>Node6&#45;&gt;Node5</title>
<path fill="none" stroke="#9a32cd" stroke-dasharray="5,2" d="M87.8649,-148C111.417,-148 139.074,-148 160.25,-148"/>
<polygon fill="#9a32cd" stroke="#9a32cd" points="87.7132,-144.5 77.7132,-148 87.7132,-151.5 87.7132,-144.5"/>
<text text-anchor="middle" x="119" y="-152" font-family="Helvetica,sans-Serif" font-size="10.00"> common_</text>
</g>
<!-- Node7 -->
<g id="node13" class="node"><title>Node7</title>
<a xlink:href="classthrill_1_1mem_1_1Manager.html" target="_top" xlink:title="Object shared by allocators and other classes to track memory allocations.">
<polygon fill="none" stroke="black" points="167,-66.5 167,-87.5 221,-87.5 221,-66.5 167,-66.5"/>
<text text-anchor="middle" x="194" y="-74.5" font-family="Helvetica,sans-Serif" font-size="10.00">Manager</text>
</a>
</g>
<!-- Node7&#45;&gt;Node3 -->
<g id="edge14" class="edge"><title>Node7&#45;&gt;Node3</title>
<path fill="none" stroke="#9a32cd" stroke-dasharray="5,2" d="M229.652,-91.4645C263.263,-105.101 312.84,-125.215 342.908,-137.414"/>
<polygon fill="#9a32cd" stroke="#9a32cd" points="230.782,-88.1457 220.199,-87.6294 228.15,-94.6322 230.782,-88.1457"/>
<text text-anchor="middle" x="283" y="-132" font-family="Helvetica,sans-Serif" font-size="10.00"> mem_manager_</text>
</g>
<!-- Node7&#45;&gt;Node7 -->
<g id="edge16" class="edge"><title>Node7&#45;&gt;Node7</title>
<path fill="none" stroke="#9a32cd" stroke-dasharray="5,2" d="M180.448,-97.7934C181.644,-102.529 186.161,-106 194,-106 206.863,-106 210.783,-96.6531 205.758,-87.7079"/>
<polygon fill="#9a32cd" stroke="#9a32cd" points="183.937,-98.1663 182.242,-87.7079 177.045,-96.9403 183.937,-98.1663"/>
<text text-anchor="middle" x="194" y="-110" font-family="Helvetica,sans-Serif" font-size="10.00"> super_</text>
</g>
<!-- Node8 -->
<g id="node16" class="node"><title>Node8</title>
<a xlink:href="classthrill_1_1common_1_1AtomicMovable.html" target="_top" xlink:title="AtomicMovable\&lt; bool \&gt;">
<polygon fill="none" stroke="black" points="825,-92.5 825,-113.5 945,-113.5 945,-92.5 825,-92.5"/>
<text text-anchor="middle" x="885" y="-100.5" font-family="Helvetica,sans-Serif" font-size="10.00">AtomicMovable&lt; bool &gt;</text>
</a>
</g>
<!-- Node8&#45;&gt;Node1 -->
<g id="edge18" class="edge"><title>Node8&#45;&gt;Node1</title>
<path fill="none" stroke="#9a32cd" stroke-dasharray="5,2" d="M955.144,-103C994.65,-103 1042.27,-103 1073.97,-103"/>
<polygon fill="#9a32cd" stroke="#9a32cd" points="955.028,-99.5001 945.028,-103 955.028,-106.5 955.028,-99.5001"/>
<text text-anchor="middle" x="1019" y="-107" font-family="Helvetica,sans-Serif" font-size="10.00"> write_closed_</text>
</g>
<!-- Node9 -->
<g id="node18" class="node"><title>Node9</title>
<a xlink:href="classthrill_1_1common_1_1AtomicMovable.html" target="_top" xlink:title="This is a derivative of std::atomic which enables easier and less error&#45;prone writing of move&#45;only cl...">
<polygon fill="none" stroke="black" points="524,-92.5 524,-113.5 632,-113.5 632,-92.5 524,-92.5"/>
<text text-anchor="middle" x="578" y="-100.5" font-family="Helvetica,sans-Serif" font-size="10.00">AtomicMovable&lt; T &gt;</text>
</a>
</g>
<!-- Node9&#45;&gt;Node8 -->
<g id="edge20" class="edge"><title>Node9&#45;&gt;Node8</title>
<path fill="none" stroke="orange" stroke-dasharray="5,2" d="M642.284,-103C696.056,-103 772.199,-103 824.797,-103"/>
<polygon fill="orange" stroke="orange" points="642.179,-99.5001 632.179,-103 642.179,-106.5 642.179,-99.5001"/>
<text text-anchor="middle" x="735" y="-107" font-family="Helvetica,sans-Serif" font-size="10.00"> &lt; bool &gt;</text>
</g>
<!-- Node10 -->
<g id="node20" class="node"><title>Node10</title>
<a xlink:href="classtlx_1_1Delegate.html" target="_top" xlink:title="Delegate\&lt; void(BlockQueue &amp;)\&gt;">
<polygon fill="none" stroke="black" points="806,-52.5 806,-73.5 964,-73.5 964,-52.5 806,-52.5"/>
<text text-anchor="middle" x="885" y="-60.5" font-family="Helvetica,sans-Serif" font-size="10.00">Delegate&lt; void(BlockQueue &amp;)&gt;</text>
</a>
</g>
<!-- Node10&#45;&gt;Node1 -->
<g id="edge22" class="edge"><title>Node10&#45;&gt;Node1</title>
<path fill="none" stroke="#9a32cd" stroke-dasharray="5,2" d="M974.282,-71.9813C1000.76,-75.4574 1029.7,-80.0628 1056,-86 1063.63,-87.7237 1071.74,-90.0586 1079.26,-92.4453"/>
<polygon fill="#9a32cd" stroke="#9a32cd" points="974.628,-68.4972 964.266,-70.7039 973.742,-75.4409 974.628,-68.4972"/>
<text text-anchor="middle" x="1019" y="-90" font-family="Helvetica,sans-Serif" font-size="10.00"> close_callback_</text>
</g>
<!-- Node11 -->
<g id="node22" class="node"><title>Node11</title>
<a xlink:href="classtlx_1_1Delegate.html" target="_top" xlink:title="Delegate\&lt; T, Allocator \&gt;">
<polygon fill="none" stroke="black" points="516,-52.5 516,-73.5 640,-73.5 640,-52.5 516,-52.5"/>
<text text-anchor="middle" x="578" y="-60.5" font-family="Helvetica,sans-Serif" font-size="10.00">Delegate&lt; T, Allocator &gt;</text>
</a>
</g>
<!-- Node11&#45;&gt;Node10 -->
<g id="edge24" class="edge"><title>Node11&#45;&gt;Node10</title>
<path fill="none" stroke="orange" stroke-dasharray="5,2" d="M650.167,-63C696.864,-63 757.682,-63 805.725,-63"/>
<polygon fill="orange" stroke="orange" points="650.126,-59.5001 640.126,-63 650.126,-66.5001 650.126,-59.5001"/>
<text text-anchor="middle" x="735" y="-67" font-family="Helvetica,sans-Serif" font-size="10.00"> &lt; void(BlockQueue &amp;)&gt;</text>
</g>
<!-- Node12 -->
<g id="node24" class="node"><title>Node12</title>
<a xlink:href="classthrill_1_1common_1_1OurConcurrentBoundedQueue.html" target="_top" xlink:title="OurConcurrentBoundedQueue\l\&lt; thrill::data::Block \&gt;">
<polygon fill="none" stroke="black" points="811.5,-0 811.5,-34 958.5,-34 958.5,-0 811.5,-0"/>
<text text-anchor="start" x="819.5" y="-21" font-family="Helvetica,sans-Serif" font-size="10.00">OurConcurrentBoundedQueue</text>
<text text-anchor="middle" x="885" y="-8" font-family="Helvetica,sans-Serif" font-size="10.00">&lt; thrill::data::Block &gt;</text>
</a>
</g>
<!-- Node12&#45;&gt;Node1 -->
<g id="edge26" class="edge"><title>Node12&#45;&gt;Node1</title>
<path fill="none" stroke="#9a32cd" stroke-dasharray="5,2" d="M968.864,-28.2145C997.556,-34.2035 1029.16,-43.2897 1056,-57 1073.36,-65.8685 1089.72,-81.6201 1099.55,-92.1867"/>
<polygon fill="#9a32cd" stroke="#9a32cd" points="969.341,-24.7408 958.85,-26.2228 967.975,-31.6063 969.341,-24.7408"/>
<text text-anchor="middle" x="1019" y="-61" font-family="Helvetica,sans-Serif" font-size="10.00"> queue_</text>
</g>
<!-- Node13 -->
<g id="node26" class="node"><title>Node13</title>
<a xlink:href="classthrill_1_1common_1_1OurConcurrentBoundedQueue.html" target="_top" xlink:title="This is a queue, similar to std::queue and tbb::concurrent_bounded_queue, except that it uses mutexes...">
<polygon fill="none" stroke="black" points="492.5,-6.5 492.5,-27.5 663.5,-27.5 663.5,-6.5 492.5,-6.5"/>
<text text-anchor="middle" x="578" y="-14.5" font-family="Helvetica,sans-Serif" font-size="10.00">OurConcurrentBoundedQueue&lt; T &gt;</text>
</a>
</g>
<!-- Node13&#45;&gt;Node12 -->
<g id="edge28" class="edge"><title>Node13&#45;&gt;Node12</title>
<path fill="none" stroke="orange" stroke-dasharray="5,2" d="M673.749,-17C718.161,-17 770.123,-17 811.399,-17"/>
<polygon fill="orange" stroke="orange" points="673.517,-13.5001 663.517,-17 673.517,-20.5001 673.517,-13.5001"/>
<text text-anchor="middle" x="735" y="-21" font-family="Helvetica,sans-Serif" font-size="10.00"> &lt; thrill::data::Block &gt;</text>
</g>
<!-- Node14&#45;&gt;Node1 -->
<g id="edge30" class="edge"><title>Node14&#45;&gt;Node1</title>
<path fill="none" stroke="#9a32cd" stroke-dasharray="5,2" d="M911.399,-182.15C946.359,-182.592 1009.06,-179.565 1056,-156 1075.77,-146.075 1092.65,-125.959 1101.77,-113.565"/>
<polygon fill="#9a32cd" stroke="#9a32cd" points="911.158,-178.644 901.078,-181.907 910.993,-185.642 911.158,-178.644"/>
<text text-anchor="middle" x="1019" y="-182" font-family="Helvetica,sans-Serif" font-size="10.00"> file_</text>
</g>
<!-- Node15 -->
<g id="node31" class="node"><title>Node15</title>
<a xlink:href="classtlx_1_1ReferenceCounter.html" target="_top" xlink:title="Provides reference counting abilities for use with CountingPtr.">
<polygon fill="none" stroke="black" points="530,-181.5 530,-202.5 626,-202.5 626,-181.5 530,-181.5"/>
<text text-anchor="middle" x="578" y="-189.5" font-family="Helvetica,sans-Serif" font-size="10.00">ReferenceCounter</text>
</a>
</g>
<!-- Node15&#45;&gt;Node14 -->
<g id="edge34" class="edge"><title>Node15&#45;&gt;Node14</title>
<path fill="none" stroke="midnightblue" d="M636.569,-189.901C708.475,-187.325 826.138,-183.109 868.859,-181.578"/>
<polygon fill="midnightblue" stroke="midnightblue" points="636.175,-186.413 626.306,-190.269 636.425,-193.409 636.175,-186.413"/>
</g>
</g>
</svg>
