<?xml version="1.0" encoding="UTF-8" standalone="no"?>
<!DOCTYPE svg PUBLIC "-//W3C//DTD SVG 1.1//EN"
 "http://www.w3.org/Graphics/SVG/1.1/DTD/svg11.dtd">
<!-- Generated by graphviz version 2.40.1 (20161225.0304)
 -->
<!-- Title: extlib/foxxll/foxxll/common/exithandler.cpp Pages: 1 -->
<svg width="244pt" height="95pt"
 viewBox="0.00 0.00 244.00 95.00" xmlns="http://www.w3.org/2000/svg" xmlns:xlink="http://www.w3.org/1999/xlink">
<g id="graph0" class="graph" transform="scale(1 1) rotate(0) translate(4 91)">
<title>extlib/foxxll/foxxll/common/exithandler.cpp</title>
<!-- Node0 -->
<g id="node1" class="node">
<title>Node0</title>
<polygon fill="#bfbfbf" stroke="#000000" points="17.5,-56.5 17.5,-86.5 157.5,-86.5 157.5,-56.5 17.5,-56.5"/>
<text text-anchor="start" x="25.5" y="-74.5" font-family="Helvetica,sans-Serif" font-size="10.00" fill="#000000">extlib/foxxll/foxxll</text>
<text text-anchor="middle" x="87.5" y="-63.5" font-family="Helvetica,sans-Serif" font-size="10.00" fill="#000000">/common/exithandler.cpp</text>
</g>
<!-- Node1 -->
<g id="node2" class="node">
<title>Node1</title>
<polygon fill="none" stroke="#bfbfbf" points="0,-.5 0,-19.5 49,-19.5 49,-.5 0,-.5"/>
<text text-anchor="middle" x="24.5" y="-7.5" font-family="Helvetica,sans-Serif" font-size="10.00" fill="#000000">cstdlib</text>
</g>
<!-- Node0&#45;&gt;Node1 -->
<g id="edge1" class="edge">
<title>Node0&#45;&gt;Node1</title>
<path fill="none" stroke="#191970" d="M71.927,-56.2977C62.8175,-47.4052 51.2966,-36.1586 41.8909,-26.9769"/>
<polygon fill="#191970" stroke="#191970" points="44.1878,-24.3278 34.5871,-19.8469 39.298,-29.3368 44.1878,-24.3278"/>
</g>
<!-- Node2 -->
<g id="node3" class="node">
<title>Node2</title>
<g id="a_node3"><a xlink:href="exithandler_8hpp.html" target="_top" xlink:title="foxxll/common/exithandler.hpp">
<polygon fill="none" stroke="#000000" points="67,-.5 67,-19.5 236,-19.5 236,-.5 67,-.5"/>
<text text-anchor="middle" x="151.5" y="-7.5" font-family="Helvetica,sans-Serif" font-size="10.00" fill="#000000">foxxll/common/exithandler.hpp</text>
</a>
</g>
</g>
<!-- Node0&#45;&gt;Node2 -->
<g id="edge2" class="edge">
<title>Node0&#45;&gt;Node2</title>
<path fill="none" stroke="#191970" d="M103.3202,-56.2977C112.5742,-47.4052 124.2781,-36.1586 133.833,-26.9769"/>
<polygon fill="#191970" stroke="#191970" points="136.4674,-29.2995 141.2528,-19.8469 131.6172,-24.2521 136.4674,-29.2995"/>
</g>
</g>
</svg>
