<?xml version="1.0" encoding="UTF-8" standalone="no"?>
<!DOCTYPE svg PUBLIC "-//W3C//DTD SVG 1.1//EN"
 "http://www.w3.org/Graphics/SVG/1.1/DTD/svg11.dtd">
<!-- Generated by graphviz version 2.40.1 (20161225.0304)
 -->
<!-- Title: extlib/tlx/tlx/string/expand_environment_variables.cpp Pages: 1 -->
<svg width="378pt" height="162pt"
 viewBox="0.00 0.00 377.50 162.00" xmlns="http://www.w3.org/2000/svg" xmlns:xlink="http://www.w3.org/1999/xlink">
<g id="graph0" class="graph" transform="scale(1 1) rotate(0) translate(4 158)">
<title>extlib/tlx/tlx/string/expand_environment_variables.cpp</title>
<!-- Node0 -->
<g id="node1" class="node">
<title>Node0</title>
<polygon fill="#bfbfbf" stroke="#000000" points="145.5,-123.5 145.5,-153.5 339.5,-153.5 339.5,-123.5 145.5,-123.5"/>
<text text-anchor="start" x="153.5" y="-141.5" font-family="Helvetica,sans-Serif" font-size="10.00" fill="#000000">extlib/tlx/tlx/string</text>
<text text-anchor="middle" x="242.5" y="-130.5" font-family="Helvetica,sans-Serif" font-size="10.00" fill="#000000">/expand_environment_variables.cpp</text>
</g>
<!-- Node1 -->
<g id="node2" class="node">
<title>Node1</title>
<g id="a_node2"><a xlink:href="expand__environment__variables_8hpp.html" target="_top" xlink:title="tlx/string/expand_environment\l_variables.hpp">
<polygon fill="none" stroke="#000000" points="0,-56.5 0,-86.5 167,-86.5 167,-56.5 0,-56.5"/>
<text text-anchor="start" x="8" y="-74.5" font-family="Helvetica,sans-Serif" font-size="10.00" fill="#000000">tlx/string/expand_environment</text>
<text text-anchor="middle" x="83.5" y="-63.5" font-family="Helvetica,sans-Serif" font-size="10.00" fill="#000000">_variables.hpp</text>
</a>
</g>
</g>
<!-- Node0&#45;&gt;Node1 -->
<g id="edge1" class="edge">
<title>Node0&#45;&gt;Node1</title>
<path fill="none" stroke="#191970" d="M206.8173,-123.4639C183.7808,-113.7567 153.6059,-101.0415 128.8714,-90.6188"/>
<polygon fill="#191970" stroke="#191970" points="129.9127,-87.2596 119.3383,-86.6017 127.1945,-93.7103 129.9127,-87.2596"/>
</g>
<!-- Node3 -->
<g id="node4" class="node">
<title>Node3</title>
<polygon fill="none" stroke="#bfbfbf" points="185,-62 185,-81 234,-81 234,-62 185,-62"/>
<text text-anchor="middle" x="209.5" y="-69" font-family="Helvetica,sans-Serif" font-size="10.00" fill="#000000">cctype</text>
</g>
<!-- Node0&#45;&gt;Node3 -->
<g id="edge3" class="edge">
<title>Node0&#45;&gt;Node3</title>
<path fill="none" stroke="#191970" d="M235.0118,-123.2967C230.1697,-113.4658 223.8341,-100.6026 218.688,-90.1545"/>
<polygon fill="#191970" stroke="#191970" points="221.7645,-88.4794 214.2062,-81.055 215.4849,-91.5724 221.7645,-88.4794"/>
</g>
<!-- Node4 -->
<g id="node5" class="node">
<title>Node4</title>
<polygon fill="none" stroke="#bfbfbf" points="252,-62 252,-81 301,-81 301,-62 252,-62"/>
<text text-anchor="middle" x="276.5" y="-69" font-family="Helvetica,sans-Serif" font-size="10.00" fill="#000000">cstdlib</text>
</g>
<!-- Node0&#45;&gt;Node4 -->
<g id="edge4" class="edge">
<title>Node0&#45;&gt;Node4</title>
<path fill="none" stroke="#191970" d="M250.2151,-123.2967C255.2039,-113.4658 261.7315,-100.6026 267.0336,-90.1545"/>
<polygon fill="#191970" stroke="#191970" points="270.247,-91.5563 271.6512,-81.055 264.0047,-88.3886 270.247,-91.5563"/>
</g>
<!-- Node5 -->
<g id="node6" class="node">
<title>Node5</title>
<polygon fill="none" stroke="#bfbfbf" points="319.5,-62 319.5,-81 369.5,-81 369.5,-62 319.5,-62"/>
<text text-anchor="middle" x="344.5" y="-69" font-family="Helvetica,sans-Serif" font-size="10.00" fill="#000000">cstring</text>
</g>
<!-- Node0&#45;&gt;Node5 -->
<g id="edge5" class="edge">
<title>Node0&#45;&gt;Node5</title>
<path fill="none" stroke="#191970" d="M265.3908,-123.4639C282.0425,-112.526 304.5083,-97.769 321.2442,-86.7759"/>
<polygon fill="#191970" stroke="#191970" points="323.4425,-89.5195 329.8791,-81.1039 319.5994,-83.6688 323.4425,-89.5195"/>
</g>
<!-- Node2 -->
<g id="node3" class="node">
<title>Node2</title>
<polygon fill="none" stroke="#bfbfbf" points="61.5,-.5 61.5,-19.5 105.5,-19.5 105.5,-.5 61.5,-.5"/>
<text text-anchor="middle" x="83.5" y="-7.5" font-family="Helvetica,sans-Serif" font-size="10.00" fill="#000000">string</text>
</g>
<!-- Node1&#45;&gt;Node2 -->
<g id="edge2" class="edge">
<title>Node1&#45;&gt;Node2</title>
<path fill="none" stroke="#191970" d="M83.5,-56.2977C83.5,-48.3834 83.5,-38.6043 83.5,-30.0759"/>
<polygon fill="#191970" stroke="#191970" points="87.0001,-29.8469 83.5,-19.8469 80.0001,-29.847 87.0001,-29.8469"/>
</g>
</g>
</svg>
