<?xml version="1.0" encoding="UTF-8" standalone="no"?>
<!DOCTYPE svg PUBLIC "-//W3C//DTD SVG 1.1//EN"
 "http://www.w3.org/Graphics/SVG/1.1/DTD/svg11.dtd">
<!-- Generated by graphviz version 2.40.1 (20161225.0304)
 -->
<!-- Title: extlib/tlx/tlx/algorithm/multiway_merge.hpp Pages: 1 -->
<svg width="1096pt" height="229pt"
 viewBox="0.00 0.00 1095.50 229.00" xmlns="http://www.w3.org/2000/svg" xmlns:xlink="http://www.w3.org/1999/xlink">
<g id="graph0" class="graph" transform="scale(1 1) rotate(0) translate(4 225)">
<title>extlib/tlx/tlx/algorithm/multiway_merge.hpp</title>
<!-- Node0 -->
<g id="node1" class="node">
<title>Node0</title>
<polygon fill="#bfbfbf" stroke="#000000" points="644,-190.5 644,-220.5 770,-220.5 770,-190.5 644,-190.5"/>
<text text-anchor="start" x="652" y="-208.5" font-family="Helvetica,sans-Serif" font-size="10.00" fill="#000000">extlib/tlx/tlx/algorithm</text>
<text text-anchor="middle" x="707" y="-197.5" font-family="Helvetica,sans-Serif" font-size="10.00" fill="#000000">/multiway_merge.hpp</text>
</g>
<!-- Node1 -->
<g id="node2" class="node">
<title>Node1</title>
<polygon fill="none" stroke="#bfbfbf" points="271,-.5 271,-19.5 335,-19.5 335,-.5 271,-.5"/>
<text text-anchor="middle" x="303" y="-7.5" font-family="Helvetica,sans-Serif" font-size="10.00" fill="#000000">algorithm</text>
</g>
<!-- Node0&#45;&gt;Node1 -->
<g id="edge1" class="edge">
<title>Node0&#45;&gt;Node1</title>
<path fill="none" stroke="#191970" d="M643.8128,-201.9392C512.4449,-193.022 217.3615,-164.5988 161,-87 132.1076,-47.2208 209.3809,-25.8136 260.962,-16.2708"/>
<polygon fill="#191970" stroke="#191970" points="261.6566,-19.7024 270.8966,-14.5186 260.4406,-12.8089 261.6566,-19.7024"/>
</g>
<!-- Node2 -->
<g id="node3" class="node">
<title>Node2</title>
<polygon fill="none" stroke="#bfbfbf" points="170.5,-62 170.5,-81 235.5,-81 235.5,-62 170.5,-62"/>
<text text-anchor="middle" x="203" y="-69" font-family="Helvetica,sans-Serif" font-size="10.00" fill="#000000">functional</text>
</g>
<!-- Node0&#45;&gt;Node2 -->
<g id="edge2" class="edge">
<title>Node0&#45;&gt;Node2</title>
<path fill="none" stroke="#191970" d="M643.996,-191.6224C554.4969,-171.3943 385.7766,-131.3569 245,-87 242.4471,-86.1956 239.821,-85.3272 237.1876,-84.4264"/>
<polygon fill="#191970" stroke="#191970" points="238.3316,-81.1186 227.7369,-81.08 235.9951,-87.7172 238.3316,-81.1186"/>
</g>
<!-- Node3 -->
<g id="node4" class="node">
<title>Node3</title>
<polygon fill="none" stroke="#bfbfbf" points="966,-129 966,-148 1022,-148 1022,-129 966,-129"/>
<text text-anchor="middle" x="994" y="-136" font-family="Helvetica,sans-Serif" font-size="10.00" fill="#000000">numeric</text>
</g>
<!-- Node0&#45;&gt;Node3 -->
<g id="edge3" class="edge">
<title>Node0&#45;&gt;Node3</title>
<path fill="none" stroke="#191970" d="M770.054,-194.8718C819.9074,-185.8406 891.0199,-171.5592 952,-154 954.6398,-153.2399 957.3512,-152.3942 960.0642,-151.5011"/>
<polygon fill="#191970" stroke="#191970" points="961.4743,-154.7164 969.7707,-148.127 959.1759,-148.1045 961.4743,-154.7164"/>
</g>
<!-- Node4 -->
<g id="node5" class="node">
<title>Node4</title>
<polygon fill="none" stroke="#bfbfbf" points="769.5,-.5 769.5,-19.5 814.5,-19.5 814.5,-.5 769.5,-.5"/>
<text text-anchor="middle" x="792" y="-7.5" font-family="Helvetica,sans-Serif" font-size="10.00" fill="#000000">utility</text>
</g>
<!-- Node0&#45;&gt;Node4 -->
<g id="edge4" class="edge">
<title>Node0&#45;&gt;Node4</title>
<path fill="none" stroke="#191970" d="M766.5288,-190.4352C817.0762,-174.1439 886.4422,-142.6944 919,-87 925.9533,-75.1055 926.9114,-67.2799 919,-56 907.8951,-40.1669 858.3813,-25.6411 824.5609,-17.3104"/>
<polygon fill="#191970" stroke="#191970" points="825.1691,-13.8571 814.6287,-14.9293 823.5372,-20.6642 825.1691,-13.8571"/>
</g>
<!-- Node5 -->
<g id="node6" class="node">
<title>Node5</title>
<polygon fill="none" stroke="#bfbfbf" points="1040.5,-129 1040.5,-148 1087.5,-148 1087.5,-129 1040.5,-129"/>
<text text-anchor="middle" x="1064" y="-136" font-family="Helvetica,sans-Serif" font-size="10.00" fill="#000000">vector</text>
</g>
<!-- Node0&#45;&gt;Node5 -->
<g id="edge5" class="edge">
<title>Node0&#45;&gt;Node5</title>
<path fill="none" stroke="#191970" d="M770.2992,-200.7395C836.4875,-194.5423 942.8078,-181.1238 1031,-154 1032.8604,-153.4278 1034.75,-152.7695 1036.6349,-152.0539"/>
<polygon fill="#191970" stroke="#191970" points="1038.0285,-155.2647 1045.864,-148.1333 1035.2915,-148.8219 1038.0285,-155.2647"/>
</g>
<!-- Node6 -->
<g id="node7" class="node">
<title>Node6</title>
<g id="a_node7"><a xlink:href="merge__advance_8hpp.html" target="_top" xlink:title="tlx/algorithm/merge\l_advance.hpp">
<polygon fill="none" stroke="#000000" points="0,-123.5 0,-153.5 114,-153.5 114,-123.5 0,-123.5"/>
<text text-anchor="start" x="8" y="-141.5" font-family="Helvetica,sans-Serif" font-size="10.00" fill="#000000">tlx/algorithm/merge</text>
<text text-anchor="middle" x="57" y="-130.5" font-family="Helvetica,sans-Serif" font-size="10.00" fill="#000000">_advance.hpp</text>
</a>
</g>
</g>
<!-- Node0&#45;&gt;Node6 -->
<g id="edge6" class="edge">
<title>Node0&#45;&gt;Node6</title>
<path fill="none" stroke="#191970" d="M643.714,-202.4906C536.9089,-196.8272 314.2958,-182.5038 128,-154 126.7373,-153.8068 125.4633,-153.6046 124.1811,-153.3945"/>
<polygon fill="#191970" stroke="#191970" points="124.6905,-149.9305 114.2353,-151.6447 123.4776,-156.8246 124.6905,-149.9305"/>
</g>
<!-- Node7 -->
<g id="node8" class="node">
<title>Node7</title>
<g id="a_node8"><a xlink:href="loser__tree_8hpp.html" target="_top" xlink:title="tlx/container/loser\l_tree.hpp">
<polygon fill="none" stroke="#000000" points="509.5,-123.5 509.5,-153.5 614.5,-153.5 614.5,-123.5 509.5,-123.5"/>
<text text-anchor="start" x="517.5" y="-141.5" font-family="Helvetica,sans-Serif" font-size="10.00" fill="#000000">tlx/container/loser</text>
<text text-anchor="middle" x="562" y="-130.5" font-family="Helvetica,sans-Serif" font-size="10.00" fill="#000000">_tree.hpp</text>
</a>
</g>
</g>
<!-- Node0&#45;&gt;Node7 -->
<g id="edge8" class="edge">
<title>Node0&#45;&gt;Node7</title>
<path fill="none" stroke="#191970" d="M674.4592,-190.4639C653.6369,-180.8426 626.4196,-168.2663 603.9764,-157.896"/>
<polygon fill="#191970" stroke="#191970" points="605.2286,-154.6191 594.6828,-153.6017 602.2924,-160.9735 605.2286,-154.6191"/>
</g>
<!-- Node9 -->
<g id="node10" class="node">
<title>Node9</title>
<g id="a_node10"><a xlink:href="container_2simple__vector_8hpp.html" target="_top" xlink:title="tlx/container/simple\l_vector.hpp">
<polygon fill="none" stroke="#000000" points="650,-56.5 650,-86.5 764,-86.5 764,-56.5 650,-56.5"/>
<text text-anchor="start" x="658" y="-74.5" font-family="Helvetica,sans-Serif" font-size="10.00" fill="#000000">tlx/container/simple</text>
<text text-anchor="middle" x="707" y="-63.5" font-family="Helvetica,sans-Serif" font-size="10.00" fill="#000000">_vector.hpp</text>
</a>
</g>
</g>
<!-- Node0&#45;&gt;Node9 -->
<g id="edge21" class="edge">
<title>Node0&#45;&gt;Node9</title>
<path fill="none" stroke="#191970" d="M707,-190.389C707,-167.6691 707,-124.438 707,-96.8405"/>
<polygon fill="#191970" stroke="#191970" points="710.5001,-96.7614 707,-86.7614 703.5001,-96.7614 710.5001,-96.7614"/>
</g>
<!-- Node14 -->
<g id="node15" class="node">
<title>Node14</title>
<g id="a_node15"><a xlink:href="unused_8hpp.html" target="_top" xlink:title="tlx/unused.hpp">
<polygon fill="none" stroke="#000000" points="820.5,-62 820.5,-81 909.5,-81 909.5,-62 820.5,-62"/>
<text text-anchor="middle" x="865" y="-69" font-family="Helvetica,sans-Serif" font-size="10.00" fill="#000000">tlx/unused.hpp</text>
</a>
</g>
</g>
<!-- Node0&#45;&gt;Node14 -->
<g id="edge22" class="edge">
<title>Node0&#45;&gt;Node14</title>
<path fill="none" stroke="#191970" d="M724.8175,-190.389C754.7679,-164.988 814.9483,-113.9489 845.8009,-87.7828"/>
<polygon fill="#191970" stroke="#191970" points="848.313,-90.2416 853.6757,-81.1042 843.7853,-84.903 848.313,-90.2416"/>
</g>
<!-- Node6&#45;&gt;Node1 -->
<g id="edge7" class="edge">
<title>Node6&#45;&gt;Node1</title>
<path fill="none" stroke="#191970" d="M66.0139,-123.2459C77.8621,-104.5467 100.4382,-73.2265 128,-56 168.7856,-30.5084 223.381,-19.0547 260.6794,-13.9656"/>
<polygon fill="#191970" stroke="#191970" points="261.2349,-17.4233 270.715,-12.6927 260.354,-10.479 261.2349,-17.4233"/>
</g>
<!-- Node7&#45;&gt;Node1 -->
<g id="edge9" class="edge">
<title>Node7&#45;&gt;Node1</title>
<path fill="none" stroke="#191970" d="M537.3446,-123.3777C521.5288,-113.4465 500.7142,-99.9429 483,-87 465.4012,-74.1414 464.1404,-66.4263 445,-56 413.3454,-38.7569 374.1666,-26.6712 344.9859,-19.2291"/>
<polygon fill="#191970" stroke="#191970" points="345.6576,-15.7899 335.11,-16.7896 343.9788,-22.5856 345.6576,-15.7899"/>
</g>
<!-- Node7&#45;&gt;Node2 -->
<g id="edge11" class="edge">
<title>Node7&#45;&gt;Node2</title>
<path fill="none" stroke="#191970" d="M509.4665,-133.1032C446.0554,-125.8725 336.5306,-111.0845 245,-87 242.0145,-86.2144 238.9444,-85.2995 235.8879,-84.3143"/>
<polygon fill="#191970" stroke="#191970" points="236.8855,-80.9561 226.2908,-81.0002 234.6006,-87.5727 236.8855,-80.9561"/>
</g>
<!-- Node7&#45;&gt;Node4 -->
<g id="edge12" class="edge">
<title>Node7&#45;&gt;Node4</title>
<path fill="none" stroke="#191970" d="M614.6809,-131.932C669.688,-124.0129 750.9752,-108.9693 773,-87 788.0339,-72.004 791.8497,-47.1319 792.5074,-29.7249"/>
<polygon fill="#191970" stroke="#191970" points="796.0084,-29.5641 792.5697,-19.5429 789.0085,-29.5212 796.0084,-29.5641"/>
</g>
<!-- Node8 -->
<g id="node9" class="node">
<title>Node8</title>
<polygon fill="none" stroke="#bfbfbf" points="254,-62 254,-81 306,-81 306,-62 254,-62"/>
<text text-anchor="middle" x="280" y="-69" font-family="Helvetica,sans-Serif" font-size="10.00" fill="#000000">cassert</text>
</g>
<!-- Node7&#45;&gt;Node8 -->
<g id="edge10" class="edge">
<title>Node7&#45;&gt;Node8</title>
<path fill="none" stroke="#191970" d="M509.1253,-130.7999C458.536,-122.6585 380.4685,-108.06 315,-87 313.1021,-86.3895 311.1684,-85.7092 309.2333,-84.9839"/>
<polygon fill="#191970" stroke="#191970" points="310.2871,-81.6338 299.7059,-81.0965 307.6426,-88.115 310.2871,-81.6338"/>
</g>
<!-- Node7&#45;&gt;Node9 -->
<g id="edge13" class="edge">
<title>Node7&#45;&gt;Node9</title>
<path fill="none" stroke="#191970" d="M594.5408,-123.4639C615.3631,-113.8426 642.5804,-101.2663 665.0236,-90.896"/>
<polygon fill="#191970" stroke="#191970" points="666.7076,-93.9735 674.3172,-86.6017 663.7714,-87.6191 666.7076,-93.9735"/>
</g>
<!-- Node11 -->
<g id="node12" class="node">
<title>Node11</title>
<g id="a_node12"><a xlink:href="likely_8hpp.html" target="_top" xlink:title="tlx/define/likely.hpp">
<polygon fill="none" stroke="#000000" points="324,-62 324,-81 436,-81 436,-62 324,-62"/>
<text text-anchor="middle" x="380" y="-69" font-family="Helvetica,sans-Serif" font-size="10.00" fill="#000000">tlx/define/likely.hpp</text>
</a>
</g>
</g>
<!-- Node7&#45;&gt;Node11 -->
<g id="edge17" class="edge">
<title>Node7&#45;&gt;Node11</title>
<path fill="none" stroke="#191970" d="M521.1556,-123.4639C489.4238,-111.7824 445.8593,-95.7449 415.5534,-84.5884"/>
<polygon fill="#191970" stroke="#191970" points="416.4138,-81.1755 405.8203,-81.0053 413.9955,-87.7445 416.4138,-81.1755"/>
</g>
<!-- Node12 -->
<g id="node13" class="node">
<title>Node12</title>
<g id="a_node13"><a xlink:href="round__to__power__of__two_8hpp.html" target="_top" xlink:title="tlx/math/round_to_power\l_of_two.hpp">
<polygon fill="none" stroke="#000000" points="492.5,-56.5 492.5,-86.5 631.5,-86.5 631.5,-56.5 492.5,-56.5"/>
<text text-anchor="start" x="500.5" y="-74.5" font-family="Helvetica,sans-Serif" font-size="10.00" fill="#000000">tlx/math/round_to_power</text>
<text text-anchor="middle" x="562" y="-63.5" font-family="Helvetica,sans-Serif" font-size="10.00" fill="#000000">_of_two.hpp</text>
</a>
</g>
</g>
<!-- Node7&#45;&gt;Node12 -->
<g id="edge18" class="edge">
<title>Node7&#45;&gt;Node12</title>
<path fill="none" stroke="#191970" d="M562,-123.2967C562,-115.5013 562,-105.7991 562,-96.9064"/>
<polygon fill="#191970" stroke="#191970" points="565.5001,-96.6431 562,-86.6432 558.5001,-96.6432 565.5001,-96.6431"/>
</g>
<!-- Node7&#45;&gt;Node14 -->
<g id="edge20" class="edge">
<title>Node7&#45;&gt;Node14</title>
<path fill="none" stroke="#191970" d="M614.5218,-128.1869C664.0477,-118.2795 740.2774,-102.5591 806,-87 810.5893,-85.9135 815.3672,-84.736 820.1293,-83.5321"/>
<polygon fill="#191970" stroke="#191970" points="821.0013,-86.9218 829.8164,-81.0442 819.26,-80.1418 821.0013,-86.9218"/>
</g>
<!-- Node9&#45;&gt;Node1 -->
<g id="edge14" class="edge">
<title>Node9&#45;&gt;Node1</title>
<path fill="none" stroke="#191970" d="M649.833,-57.7224C646.8511,-57.114 643.8934,-56.5354 641,-56 535.3646,-36.4537 409.7214,-21.5112 345.4663,-14.4624"/>
<polygon fill="#191970" stroke="#191970" points="345.6396,-10.9607 335.3198,-13.3592 344.8829,-17.9197 345.6396,-10.9607"/>
</g>
<!-- Node9&#45;&gt;Node4 -->
<g id="edge16" class="edge">
<title>Node9&#45;&gt;Node4</title>
<path fill="none" stroke="#191970" d="M728.0112,-56.2977C740.7934,-47.0495 757.0946,-35.2551 770.0448,-25.8853"/>
<polygon fill="#191970" stroke="#191970" points="772.3403,-28.5445 778.3904,-19.8469 768.237,-22.8732 772.3403,-28.5445"/>
</g>
<!-- Node10 -->
<g id="node11" class="node">
<title>Node10</title>
<polygon fill="none" stroke="#bfbfbf" points="682.5,-.5 682.5,-19.5 731.5,-19.5 731.5,-.5 682.5,-.5"/>
<text text-anchor="middle" x="707" y="-7.5" font-family="Helvetica,sans-Serif" font-size="10.00" fill="#000000">cstdlib</text>
</g>
<!-- Node9&#45;&gt;Node10 -->
<g id="edge15" class="edge">
<title>Node9&#45;&gt;Node10</title>
<path fill="none" stroke="#191970" d="M707,-56.2977C707,-48.3834 707,-38.6043 707,-30.0759"/>
<polygon fill="#191970" stroke="#191970" points="710.5001,-29.8469 707,-19.8469 703.5001,-29.847 710.5001,-29.8469"/>
</g>
<!-- Node13 -->
<g id="node14" class="node">
<title>Node13</title>
<polygon fill="none" stroke="#bfbfbf" points="535.5,-.5 535.5,-19.5 588.5,-19.5 588.5,-.5 535.5,-.5"/>
<text text-anchor="middle" x="562" y="-7.5" font-family="Helvetica,sans-Serif" font-size="10.00" fill="#000000">cstddef</text>
</g>
<!-- Node12&#45;&gt;Node13 -->
<g id="edge19" class="edge">
<title>Node12&#45;&gt;Node13</title>
<path fill="none" stroke="#191970" d="M562,-56.2977C562,-48.3834 562,-38.6043 562,-30.0759"/>
<polygon fill="#191970" stroke="#191970" points="565.5001,-29.8469 562,-19.8469 558.5001,-29.847 565.5001,-29.8469"/>
</g>
</g>
</svg>
