<?xml version="1.0" encoding="UTF-8" standalone="no"?>
<!DOCTYPE svg PUBLIC "-//W3C//DTD SVG 1.1//EN"
 "http://www.w3.org/Graphics/SVG/1.1/DTD/svg11.dtd">
<!-- Generated by graphviz version 2.40.1 (20161225.0304)
 -->
<!-- Title: extlib/foxxll/foxxll/singleton.hpp Pages: 1 -->
<svg width="589pt" height="151pt"
 viewBox="0.00 0.00 588.50 151.00" xmlns="http://www.w3.org/2000/svg" xmlns:xlink="http://www.w3.org/1999/xlink">
<g id="graph0" class="graph" transform="scale(1 1) rotate(0) translate(4 147)">
<title>extlib/foxxll/foxxll/singleton.hpp</title>
<!-- Node0 -->
<g id="node1" class="node">
<title>Node0</title>
<polygon fill="#bfbfbf" stroke="#000000" points="101.5,-112.5 101.5,-142.5 207.5,-142.5 207.5,-112.5 101.5,-112.5"/>
<text text-anchor="start" x="109.5" y="-130.5" font-family="Helvetica,sans-Serif" font-size="10.00" fill="#000000">extlib/foxxll/foxxll</text>
<text text-anchor="middle" x="154.5" y="-119.5" font-family="Helvetica,sans-Serif" font-size="10.00" fill="#000000">/singleton.hpp</text>
</g>
<!-- Node1 -->
<g id="node2" class="node">
<title>Node1</title>
<polygon fill="none" stroke="#bfbfbf" points="0,-56.5 0,-75.5 49,-75.5 49,-56.5 0,-56.5"/>
<text text-anchor="middle" x="24.5" y="-63.5" font-family="Helvetica,sans-Serif" font-size="10.00" fill="#000000">cstdlib</text>
</g>
<!-- Node0&#45;&gt;Node1 -->
<g id="edge1" class="edge">
<title>Node0&#45;&gt;Node1</title>
<path fill="none" stroke="#191970" d="M122.6984,-112.4554C101.6735,-102.509 74.3141,-89.5659 53.8157,-79.8686"/>
<polygon fill="#191970" stroke="#191970" points="55.1816,-76.6429 44.6454,-75.5303 52.1881,-82.9706 55.1816,-76.6429"/>
</g>
<!-- Node2 -->
<g id="node3" class="node">
<title>Node2</title>
<polygon fill="none" stroke="#bfbfbf" points="67.5,-56.5 67.5,-75.5 115.5,-75.5 115.5,-56.5 67.5,-56.5"/>
<text text-anchor="middle" x="91.5" y="-63.5" font-family="Helvetica,sans-Serif" font-size="10.00" fill="#000000">mutex</text>
</g>
<!-- Node0&#45;&gt;Node2 -->
<g id="edge2" class="edge">
<title>Node0&#45;&gt;Node2</title>
<path fill="none" stroke="#191970" d="M138.927,-112.2977C129.8175,-103.4052 118.2966,-92.1586 108.8909,-82.9769"/>
<polygon fill="#191970" stroke="#191970" points="111.1878,-80.3278 101.5871,-75.8469 106.298,-85.3368 111.1878,-80.3278"/>
</g>
<!-- Node3 -->
<g id="node4" class="node">
<title>Node3</title>
<g id="a_node4"><a xlink:href="exithandler_8hpp.html" target="_top" xlink:title="foxxll/common/exithandler.hpp">
<polygon fill="none" stroke="#000000" points="133,-56.5 133,-75.5 302,-75.5 302,-56.5 133,-56.5"/>
<text text-anchor="middle" x="217.5" y="-63.5" font-family="Helvetica,sans-Serif" font-size="10.00" fill="#000000">foxxll/common/exithandler.hpp</text>
</a>
</g>
</g>
<!-- Node0&#45;&gt;Node3 -->
<g id="edge3" class="edge">
<title>Node0&#45;&gt;Node3</title>
<path fill="none" stroke="#191970" d="M170.073,-112.2977C179.1825,-103.4052 190.7034,-92.1586 200.1091,-82.9769"/>
<polygon fill="#191970" stroke="#191970" points="202.702,-85.3368 207.4129,-75.8469 197.8122,-80.3278 202.702,-85.3368"/>
</g>
<!-- Node4 -->
<g id="node5" class="node">
<title>Node4</title>
<g id="a_node5"><a xlink:href="types_8hpp.html" target="_top" xlink:title="foxxll/common/types.hpp">
<polygon fill="none" stroke="#000000" points="320,-56.5 320,-75.5 461,-75.5 461,-56.5 320,-56.5"/>
<text text-anchor="middle" x="390.5" y="-63.5" font-family="Helvetica,sans-Serif" font-size="10.00" fill="#000000">foxxll/common/types.hpp</text>
</a>
</g>
</g>
<!-- Node0&#45;&gt;Node4 -->
<g id="edge4" class="edge">
<title>Node0&#45;&gt;Node4</title>
<path fill="none" stroke="#191970" d="M207.7573,-113.6215C248.7777,-102.9319 304.9166,-88.3024 344.1081,-78.0894"/>
<polygon fill="#191970" stroke="#191970" points="345.1423,-81.4369 353.9365,-75.5282 343.377,-74.6631 345.1423,-81.4369"/>
</g>
<!-- Node5 -->
<g id="node6" class="node">
<title>Node5</title>
<polygon fill="none" stroke="#bfbfbf" points="255,-.5 255,-19.5 308,-19.5 308,-.5 255,-.5"/>
<text text-anchor="middle" x="281.5" y="-7.5" font-family="Helvetica,sans-Serif" font-size="10.00" fill="#000000">cstddef</text>
</g>
<!-- Node4&#45;&gt;Node5 -->
<g id="edge5" class="edge">
<title>Node4&#45;&gt;Node5</title>
<path fill="none" stroke="#191970" d="M371.5136,-56.2455C354.3208,-47.4125 328.7762,-34.2887 309.2868,-24.2758"/>
<polygon fill="#191970" stroke="#191970" points="310.763,-21.0993 300.2688,-19.6427 307.5641,-27.3257 310.763,-21.0993"/>
</g>
<!-- Node6 -->
<g id="node7" class="node">
<title>Node6</title>
<polygon fill="none" stroke="#bfbfbf" points="326.5,-.5 326.5,-19.5 376.5,-19.5 376.5,-.5 326.5,-.5"/>
<text text-anchor="middle" x="351.5" y="-7.5" font-family="Helvetica,sans-Serif" font-size="10.00" fill="#000000">cstdint</text>
</g>
<!-- Node4&#45;&gt;Node6 -->
<g id="edge6" class="edge">
<title>Node4&#45;&gt;Node6</title>
<path fill="none" stroke="#191970" d="M383.7067,-56.2455C378.2822,-48.4564 370.5339,-37.3308 363.9967,-27.9439"/>
<polygon fill="#191970" stroke="#191970" points="366.8025,-25.8485 358.2154,-19.6427 361.0583,-29.849 366.8025,-25.8485"/>
</g>
<!-- Node7 -->
<g id="node8" class="node">
<title>Node7</title>
<polygon fill="none" stroke="#bfbfbf" points="395,-.5 395,-19.5 464,-19.5 464,-.5 395,-.5"/>
<text text-anchor="middle" x="429.5" y="-7.5" font-family="Helvetica,sans-Serif" font-size="10.00" fill="#000000">type_traits</text>
</g>
<!-- Node4&#45;&gt;Node7 -->
<g id="edge7" class="edge">
<title>Node4&#45;&gt;Node7</title>
<path fill="none" stroke="#191970" d="M397.2933,-56.2455C402.7178,-48.4564 410.4661,-37.3308 417.0033,-27.9439"/>
<polygon fill="#191970" stroke="#191970" points="419.9417,-29.849 422.7846,-19.6427 414.1975,-25.8485 419.9417,-29.849"/>
</g>
<!-- Node8 -->
<g id="node9" class="node">
<title>Node8</title>
<polygon fill="none" stroke="#bfbfbf" points="482.5,-.5 482.5,-19.5 580.5,-19.5 580.5,-.5 482.5,-.5"/>
<text text-anchor="middle" x="531.5" y="-7.5" font-family="Helvetica,sans-Serif" font-size="10.00" fill="#000000">foxxll/config.hpp</text>
</g>
<!-- Node4&#45;&gt;Node8 -->
<g id="edge8" class="edge">
<title>Node4&#45;&gt;Node8</title>
<path fill="none" stroke="#191970" d="M414.7388,-56.3733C437.7789,-47.2226 472.6214,-33.3844 498.2501,-23.2057"/>
<polygon fill="#191970" stroke="#191970" points="499.5756,-26.4452 507.5775,-19.5011 496.9918,-19.9395 499.5756,-26.4452"/>
</g>
</g>
</svg>
