<?xml version="1.0" encoding="UTF-8" standalone="no"?>
<!DOCTYPE svg PUBLIC "-//W3C//DTD SVG 1.1//EN"
 "http://www.w3.org/Graphics/SVG/1.1/DTD/svg11.dtd">
<!-- Generated by graphviz version 2.40.1 (20161225.0304)
 -->
<!-- Title: extlib/tlx/tlx/sort.hpp Pages: 1 -->
<svg width="3625pt" height="542pt"
 viewBox="0.00 0.00 3624.51 542.00" xmlns="http://www.w3.org/2000/svg" xmlns:xlink="http://www.w3.org/1999/xlink">
<g id="graph0" class="graph" transform="scale(1 1) rotate(0) translate(4 538)">
<title>extlib/tlx/tlx/sort.hpp</title>
<!-- Node0 -->
<g id="node1" class="node">
<title>Node0</title>
<polygon fill="#bfbfbf" stroke="#000000" points="1968.0116,-514.5 1968.0116,-533.5 2087.0116,-533.5 2087.0116,-514.5 1968.0116,-514.5"/>
<text text-anchor="middle" x="2027.5116" y="-521.5" font-family="Helvetica,sans-Serif" font-size="10.00" fill="#000000">extlib/tlx/tlx/sort.hpp</text>
</g>
<!-- Node1 -->
<g id="node2" class="node">
<title>Node1</title>
<g id="a_node2"><a xlink:href="parallel__mergesort_8hpp.html" target="_top" xlink:title="tlx/sort/parallel_mergesort.hpp">
<polygon fill="none" stroke="#000000" points="723.0116,-330 723.0116,-349 890.0116,-349 890.0116,-330 723.0116,-330"/>
<text text-anchor="middle" x="806.5116" y="-337" font-family="Helvetica,sans-Serif" font-size="10.00" fill="#000000">tlx/sort/parallel_mergesort.hpp</text>
</a>
</g>
</g>
<!-- Node0&#45;&gt;Node1 -->
<g id="edge1" class="edge">
<title>Node0&#45;&gt;Node1</title>
<path fill="none" stroke="#191970" d="M1967.7937,-514.9763C1764.6773,-484.2843 1100.8943,-383.9829 879.2838,-350.4963"/>
<polygon fill="#191970" stroke="#191970" points="879.7931,-347.0336 869.3824,-349.0001 878.7472,-353.955 879.7931,-347.0336"/>
</g>
<!-- Node28 -->
<g id="node29" class="node">
<title>Node28</title>
<g id="a_node29"><a xlink:href="strings_8hpp.html" target="_top" xlink:title="tlx/sort/strings.hpp">
<polygon fill="none" stroke="#000000" points="1973.5116,-458.5 1973.5116,-477.5 2081.5116,-477.5 2081.5116,-458.5 1973.5116,-458.5"/>
<text text-anchor="middle" x="2027.5116" y="-465.5" font-family="Helvetica,sans-Serif" font-size="10.00" fill="#000000">tlx/sort/strings.hpp</text>
</a>
</g>
</g>
<!-- Node0&#45;&gt;Node28 -->
<g id="edge61" class="edge">
<title>Node0&#45;&gt;Node28</title>
<path fill="none" stroke="#191970" d="M2027.5116,-514.2455C2027.5116,-506.9382 2027.5116,-496.6944 2027.5116,-487.7046"/>
<polygon fill="#191970" stroke="#191970" points="2031.0117,-487.6426 2027.5116,-477.6427 2024.0117,-487.6427 2031.0117,-487.6426"/>
</g>
<!-- Node43 -->
<g id="node44" class="node">
<title>Node43</title>
<g id="a_node44"><a xlink:href="strings__parallel_8hpp.html" target="_top" xlink:title="tlx/sort/strings_parallel.hpp">
<polygon fill="none" stroke="#000000" points="3222.5116,-397 3222.5116,-416 3372.5116,-416 3372.5116,-397 3222.5116,-397"/>
<text text-anchor="middle" x="3297.5116" y="-404" font-family="Helvetica,sans-Serif" font-size="10.00" fill="#000000">tlx/sort/strings_parallel.hpp</text>
</a>
</g>
</g>
<!-- Node0&#45;&gt;Node43 -->
<g id="edge100" class="edge">
<title>Node0&#45;&gt;Node43</title>
<path fill="none" stroke="#191970" d="M2087.0463,-519.5429C2294.8714,-503.8768 2987.4671,-450.7393 3208.5116,-422 3217.8617,-420.7843 3227.7284,-419.2849 3237.3534,-417.7019"/>
<polygon fill="#191970" stroke="#191970" points="3237.9858,-421.1448 3247.2645,-416.0305 3236.8217,-414.2422 3237.9858,-421.1448"/>
</g>
<!-- Node2 -->
<g id="node3" class="node">
<title>Node2</title>
<polygon fill="none" stroke="#bfbfbf" points="687.5116,-.5 687.5116,-19.5 751.5116,-19.5 751.5116,-.5 687.5116,-.5"/>
<text text-anchor="middle" x="719.5116" y="-7.5" font-family="Helvetica,sans-Serif" font-size="10.00" fill="#000000">algorithm</text>
</g>
<!-- Node1&#45;&gt;Node2 -->
<g id="edge2" class="edge">
<title>Node1&#45;&gt;Node2</title>
<path fill="none" stroke="#191970" d="M722.7651,-337.6044C540.445,-332.9199 119.324,-318.8686 62.5116,-288 22.2097,-266.1022 .5116,-251.3667 .5116,-205.5 .5116,-205.5 .5116,-205.5 .5116,-138.5 .5116,-100.3133 -5.2557,-79.9192 24.5116,-56 50.0308,-35.4943 529.8121,-16.7607 676.9643,-11.4776"/>
<polygon fill="#191970" stroke="#191970" points="677.5056,-14.9606 687.3745,-11.1064 677.2561,-7.965 677.5056,-14.9606"/>
</g>
<!-- Node3 -->
<g id="node4" class="node">
<title>Node3</title>
<polygon fill="none" stroke="#bfbfbf" points="165.0116,-62 165.0116,-81 230.0116,-81 230.0116,-62 165.0116,-62"/>
<text text-anchor="middle" x="197.5116" y="-69" font-family="Helvetica,sans-Serif" font-size="10.00" fill="#000000">functional</text>
</g>
<!-- Node1&#45;&gt;Node3 -->
<g id="edge3" class="edge">
<title>Node1&#45;&gt;Node3</title>
<path fill="none" stroke="#191970" d="M722.5772,-333.3268C614.5645,-322.6273 423.4635,-294.2275 277.5116,-221 236.6644,-200.506 219.0876,-195.2949 199.5116,-154 190.1476,-134.2471 191.2352,-108.7338 193.6423,-91.3434"/>
<polygon fill="#191970" stroke="#191970" points="197.1361,-91.6682 195.318,-81.2306 190.2302,-90.5239 197.1361,-91.6682"/>
</g>
<!-- Node4 -->
<g id="node5" class="node">
<title>Node4</title>
<polygon fill="none" stroke="#bfbfbf" points="691.5116,-196 691.5116,-215 739.5116,-215 739.5116,-196 691.5116,-196"/>
<text text-anchor="middle" x="715.5116" y="-203" font-family="Helvetica,sans-Serif" font-size="10.00" fill="#000000">thread</text>
</g>
<!-- Node1&#45;&gt;Node4 -->
<g id="edge4" class="edge">
<title>Node1&#45;&gt;Node4</title>
<path fill="none" stroke="#191970" d="M785.6183,-329.8401C769.2235,-321.1797 747.1308,-306.9238 734.5116,-288 721.8761,-269.0518 717.5758,-242.8161 716.1495,-225.0571"/>
<polygon fill="#191970" stroke="#191970" points="719.64,-224.7887 715.5762,-215.0043 712.6514,-225.1873 719.64,-224.7887"/>
</g>
<!-- Node5 -->
<g id="node6" class="node">
<title>Node5</title>
<polygon fill="none" stroke="#bfbfbf" points="1489.0116,-.5 1489.0116,-19.5 1534.0116,-19.5 1534.0116,-.5 1489.0116,-.5"/>
<text text-anchor="middle" x="1511.5116" y="-7.5" font-family="Helvetica,sans-Serif" font-size="10.00" fill="#000000">utility</text>
</g>
<!-- Node1&#45;&gt;Node5 -->
<g id="edge5" class="edge">
<title>Node1&#45;&gt;Node5</title>
<path fill="none" stroke="#191970" d="M722.7713,-332.8144C531.0239,-316.3829 76.5116,-270.5711 76.5116,-205.5 76.5116,-205.5 76.5116,-205.5 76.5116,-138.5 76.5116,-87.7335 109.1674,-76.7232 155.5116,-56 217.7673,-28.1618 1277.3338,-13.0427 1478.6362,-10.4149"/>
<polygon fill="#191970" stroke="#191970" points="1478.9104,-13.9117 1488.8642,-10.2825 1478.8197,-6.9123 1478.9104,-13.9117"/>
</g>
<!-- Node6 -->
<g id="node7" class="node">
<title>Node6</title>
<g id="a_node7"><a xlink:href="multisequence__selection_8hpp.html" target="_top" xlink:title="tlx/algorithm/multisequence\l_selection.hpp">
<polygon fill="none" stroke="#000000" points="1395.0116,-123.5 1395.0116,-153.5 1550.0116,-153.5 1550.0116,-123.5 1395.0116,-123.5"/>
<text text-anchor="start" x="1403.0116" y="-141.5" font-family="Helvetica,sans-Serif" font-size="10.00" fill="#000000">tlx/algorithm/multisequence</text>
<text text-anchor="middle" x="1472.5116" y="-130.5" font-family="Helvetica,sans-Serif" font-size="10.00" fill="#000000">_selection.hpp</text>
</a>
</g>
</g>
<!-- Node1&#45;&gt;Node6 -->
<g id="edge6" class="edge">
<title>Node1&#45;&gt;Node6</title>
<path fill="none" stroke="#191970" d="M838.1861,-329.9406C942.3428,-298.5059 1275.3967,-197.9896 1412.585,-156.586"/>
<polygon fill="#191970" stroke="#191970" points="1413.9476,-159.8307 1422.5098,-153.5906 1411.925,-153.1293 1413.9476,-159.8307"/>
</g>
<!-- Node14 -->
<g id="node15" class="node">
<title>Node14</title>
<g id="a_node15"><a xlink:href="parallel__multiway__merge_8hpp.html" target="_top" xlink:title="tlx/algorithm/parallel\l_multiway_merge.hpp">
<polygon fill="none" stroke="#000000" points="744.0116,-257.5 744.0116,-287.5 869.0116,-287.5 869.0116,-257.5 744.0116,-257.5"/>
<text text-anchor="start" x="752.0116" y="-275.5" font-family="Helvetica,sans-Serif" font-size="10.00" fill="#000000">tlx/algorithm/parallel</text>
<text text-anchor="middle" x="806.5116" y="-264.5" font-family="Helvetica,sans-Serif" font-size="10.00" fill="#000000">_multiway_merge.hpp</text>
</a>
</g>
</g>
<!-- Node1&#45;&gt;Node14 -->
<g id="edge18" class="edge">
<title>Node1&#45;&gt;Node14</title>
<path fill="none" stroke="#191970" d="M806.5116,-329.9005C806.5116,-321.5099 806.5116,-308.9451 806.5116,-297.7085"/>
<polygon fill="#191970" stroke="#191970" points="810.0117,-297.5217 806.5116,-287.5218 803.0117,-297.5218 810.0117,-297.5217"/>
</g>
<!-- Node23 -->
<g id="node24" class="node">
<title>Node23</title>
<g id="a_node24"><a xlink:href="simple__vector_8hpp.html" target="_top" xlink:title="tlx/simple_vector.hpp">
<polygon fill="none" stroke="#000000" points="1178.5116,-129 1178.5116,-148 1300.5116,-148 1300.5116,-129 1178.5116,-129"/>
<text text-anchor="middle" x="1239.5116" y="-136" font-family="Helvetica,sans-Serif" font-size="10.00" fill="#000000">tlx/simple_vector.hpp</text>
</a>
</g>
</g>
<!-- Node1&#45;&gt;Node23 -->
<g id="edge56" class="edge">
<title>Node1&#45;&gt;Node23</title>
<path fill="none" stroke="#191970" d="M827.1048,-329.9406C897.2778,-297.366 1127.2568,-190.6091 1209.7376,-152.3212"/>
<polygon fill="#191970" stroke="#191970" points="1211.4477,-155.3861 1219.0444,-148.0009 1208.5003,-149.0368 1211.4477,-155.3861"/>
</g>
<!-- Node24 -->
<g id="node25" class="node">
<title>Node24</title>
<g id="a_node25"><a xlink:href="thread__barrier__mutex_8hpp.html" target="_top" xlink:title="tlx/thread_barrier\l_mutex.hpp">
<polygon fill="none" stroke="#000000" points="1913.0116,-257.5 1913.0116,-287.5 2014.0116,-287.5 2014.0116,-257.5 1913.0116,-257.5"/>
<text text-anchor="start" x="1921.0116" y="-275.5" font-family="Helvetica,sans-Serif" font-size="10.00" fill="#000000">tlx/thread_barrier</text>
<text text-anchor="middle" x="1963.5116" y="-264.5" font-family="Helvetica,sans-Serif" font-size="10.00" fill="#000000">_mutex.hpp</text>
</a>
</g>
</g>
<!-- Node1&#45;&gt;Node24 -->
<g id="edge57" class="edge">
<title>Node1&#45;&gt;Node24</title>
<path fill="none" stroke="#191970" d="M890.0321,-335.3118C1053.5379,-327.0215 1427.3427,-307.6188 1741.5116,-288 1796.0666,-284.5932 1858.1263,-280.2179 1902.733,-276.985"/>
<polygon fill="#191970" stroke="#191970" points="1903.1075,-280.4671 1912.8274,-276.2514 1902.6,-273.4856 1903.1075,-280.4671"/>
</g>
<!-- Node6&#45;&gt;Node2 -->
<g id="edge7" class="edge">
<title>Node6&#45;&gt;Node2</title>
<path fill="none" stroke="#191970" d="M1473.9297,-123.294C1474.7618,-104.3422 1472.9018,-72.4489 1453.5116,-56 1427.007,-33.5158 914.4354,-15.9972 761.9495,-11.2667"/>
<polygon fill="#191970" stroke="#191970" points="761.7074,-7.7577 751.6044,-10.9483 761.492,-14.7544 761.7074,-7.7577"/>
</g>
<!-- Node6&#45;&gt;Node5 -->
<g id="edge10" class="edge">
<title>Node6&#45;&gt;Node5</title>
<path fill="none" stroke="#191970" d="M1477.1386,-123.2548C1484.2359,-99.87 1497.8049,-55.1619 1505.6035,-29.4665"/>
<polygon fill="#191970" stroke="#191970" points="1509.0016,-30.3213 1508.5568,-19.7358 1502.3033,-28.2883 1509.0016,-30.3213"/>
</g>
<!-- Node7 -->
<g id="node8" class="node">
<title>Node7</title>
<polygon fill="none" stroke="#bfbfbf" points="1830.5116,-62 1830.5116,-81 1882.5116,-81 1882.5116,-62 1830.5116,-62"/>
<text text-anchor="middle" x="1856.5116" y="-69" font-family="Helvetica,sans-Serif" font-size="10.00" fill="#000000">cassert</text>
</g>
<!-- Node6&#45;&gt;Node7 -->
<g id="edge8" class="edge">
<title>Node6&#45;&gt;Node7</title>
<path fill="none" stroke="#191970" d="M1550.1554,-131.3742C1620.0673,-123.8833 1725.2431,-109.9369 1814.5116,-87 1817.5016,-86.2318 1820.5748,-85.3288 1823.6334,-84.3514"/>
<polygon fill="#191970" stroke="#191970" points="1824.9156,-87.6117 1833.2337,-81.0497 1822.639,-80.9922 1824.9156,-87.6117"/>
</g>
<!-- Node8 -->
<g id="node9" class="node">
<title>Node8</title>
<polygon fill="none" stroke="#bfbfbf" points="1398.0116,-62 1398.0116,-81 1445.0116,-81 1445.0116,-62 1398.0116,-62"/>
<text text-anchor="middle" x="1421.5116" y="-69" font-family="Helvetica,sans-Serif" font-size="10.00" fill="#000000">queue</text>
</g>
<!-- Node6&#45;&gt;Node8 -->
<g id="edge9" class="edge">
<title>Node6&#45;&gt;Node8</title>
<path fill="none" stroke="#191970" d="M1460.9389,-123.2967C1453.2243,-113.1618 1443.0565,-99.804 1434.9787,-89.1921"/>
<polygon fill="#191970" stroke="#191970" points="1437.6267,-86.8921 1428.7848,-81.055 1432.0567,-91.1319 1437.6267,-86.8921"/>
</g>
<!-- Node9 -->
<g id="node10" class="node">
<title>Node9</title>
<polygon fill="none" stroke="#bfbfbf" points="2133.0116,-.5 2133.0116,-19.5 2180.0116,-19.5 2180.0116,-.5 2133.0116,-.5"/>
<text text-anchor="middle" x="2156.5116" y="-7.5" font-family="Helvetica,sans-Serif" font-size="10.00" fill="#000000">vector</text>
</g>
<!-- Node6&#45;&gt;Node9 -->
<g id="edge11" class="edge">
<title>Node6&#45;&gt;Node9</title>
<path fill="none" stroke="#191970" d="M1497.8476,-123.4304C1531.6142,-104.1561 1593.8285,-71.4288 1651.5116,-56 1740.9656,-32.0732 2024.4047,-16.408 2122.6169,-11.5832"/>
<polygon fill="#191970" stroke="#191970" points="2123.0424,-15.0668 2132.8611,-11.0864 2122.7033,-8.075 2123.0424,-15.0668"/>
</g>
<!-- Node10 -->
<g id="node11" class="node">
<title>Node10</title>
<g id="a_node11"><a xlink:href="container_2simple__vector_8hpp.html" target="_top" xlink:title="tlx/container/simple\l_vector.hpp">
<polygon fill="none" stroke="#000000" points="1070.5116,-56.5 1070.5116,-86.5 1184.5116,-86.5 1184.5116,-56.5 1070.5116,-56.5"/>
<text text-anchor="start" x="1078.5116" y="-74.5" font-family="Helvetica,sans-Serif" font-size="10.00" fill="#000000">tlx/container/simple</text>
<text text-anchor="middle" x="1127.5116" y="-63.5" font-family="Helvetica,sans-Serif" font-size="10.00" fill="#000000">_vector.hpp</text>
</a>
</g>
</g>
<!-- Node6&#45;&gt;Node10 -->
<g id="edge12" class="edge">
<title>Node6&#45;&gt;Node10</title>
<path fill="none" stroke="#191970" d="M1395.0869,-123.4639C1334.8332,-111.7624 1252.073,-95.6902 1194.613,-84.5313"/>
<polygon fill="#191970" stroke="#191970" points="1195.0309,-81.0471 1184.5471,-82.5765 1193.6964,-87.9188 1195.0309,-81.0471"/>
</g>
<!-- Node12 -->
<g id="node13" class="node">
<title>Node12</title>
<g id="a_node13"><a xlink:href="round__to__power__of__two_8hpp.html" target="_top" xlink:title="tlx/math/round_to_power\l_of_two.hpp">
<polygon fill="none" stroke="#000000" points="1241.0116,-56.5 1241.0116,-86.5 1380.0116,-86.5 1380.0116,-56.5 1241.0116,-56.5"/>
<text text-anchor="start" x="1249.0116" y="-74.5" font-family="Helvetica,sans-Serif" font-size="10.00" fill="#000000">tlx/math/round_to_power</text>
<text text-anchor="middle" x="1310.5116" y="-63.5" font-family="Helvetica,sans-Serif" font-size="10.00" fill="#000000">_of_two.hpp</text>
</a>
</g>
</g>
<!-- Node6&#45;&gt;Node12 -->
<g id="edge16" class="edge">
<title>Node6&#45;&gt;Node12</title>
<path fill="none" stroke="#191970" d="M1436.1556,-123.4639C1412.5806,-113.7137 1381.6681,-100.9289 1356.4048,-90.4805"/>
<polygon fill="#191970" stroke="#191970" points="1357.6047,-87.1893 1347.0261,-86.6017 1354.9293,-93.6579 1357.6047,-87.1893"/>
</g>
<!-- Node10&#45;&gt;Node2 -->
<g id="edge13" class="edge">
<title>Node10&#45;&gt;Node2</title>
<path fill="none" stroke="#191970" d="M1070.3513,-62.8839C987.4705,-50.3909 835.7991,-27.5286 762.042,-16.4108"/>
<polygon fill="#191970" stroke="#191970" points="762.1526,-12.888 751.7426,-14.8584 761.1092,-19.8099 762.1526,-12.888"/>
</g>
<!-- Node10&#45;&gt;Node5 -->
<g id="edge15" class="edge">
<title>Node10&#45;&gt;Node5</title>
<path fill="none" stroke="#191970" d="M1184.7945,-58.6392C1189.4277,-57.7074 1194.0433,-56.8151 1198.5116,-56 1300.0334,-37.4811 1421.1384,-21.3668 1478.3929,-14.1031"/>
<polygon fill="#191970" stroke="#191970" points="1479.1612,-17.534 1488.6449,-12.8107 1478.2856,-10.589 1479.1612,-17.534"/>
</g>
<!-- Node11 -->
<g id="node12" class="node">
<title>Node11</title>
<polygon fill="none" stroke="#bfbfbf" points="1809.0116,-.5 1809.0116,-19.5 1858.0116,-19.5 1858.0116,-.5 1809.0116,-.5"/>
<text text-anchor="middle" x="1833.5116" y="-7.5" font-family="Helvetica,sans-Serif" font-size="10.00" fill="#000000">cstdlib</text>
</g>
<!-- Node10&#45;&gt;Node11 -->
<g id="edge14" class="edge">
<title>Node10&#45;&gt;Node11</title>
<path fill="none" stroke="#191970" d="M1184.7348,-58.2737C1189.3813,-57.4239 1194.0164,-56.6501 1198.5116,-56 1426.0009,-23.1001 1702.9164,-13.2969 1798.8456,-10.7761"/>
<polygon fill="#191970" stroke="#191970" points="1798.9507,-14.2747 1808.8589,-10.5225 1798.7734,-7.2769 1798.9507,-14.2747"/>
</g>
<!-- Node13 -->
<g id="node14" class="node">
<title>Node13</title>
<polygon fill="none" stroke="#bfbfbf" points="2407.0116,-.5 2407.0116,-19.5 2460.0116,-19.5 2460.0116,-.5 2407.0116,-.5"/>
<text text-anchor="middle" x="2433.5116" y="-7.5" font-family="Helvetica,sans-Serif" font-size="10.00" fill="#000000">cstddef</text>
</g>
<!-- Node12&#45;&gt;Node13 -->
<g id="edge17" class="edge">
<title>Node12&#45;&gt;Node13</title>
<path fill="none" stroke="#191970" d="M1380.1684,-57.1124C1382.9811,-56.7045 1385.7702,-56.3308 1388.5116,-56 1414.0604,-52.9174 2214.0767,-19.2116 2396.6627,-11.5453"/>
<polygon fill="#191970" stroke="#191970" points="2396.9838,-15.035 2406.8282,-11.1186 2396.6902,-8.0411 2396.9838,-15.035"/>
</g>
<!-- Node14&#45;&gt;Node2 -->
<g id="edge19" class="edge">
<title>Node14&#45;&gt;Node2</title>
<path fill="none" stroke="#191970" d="M743.8804,-271.1099C622.5291,-267.6516 360.0467,-256.2231 277.5116,-221 203.434,-189.3863 178.5843,-164.1658 155.5116,-87 151.5647,-73.7997 146.1736,-66.1306 155.5116,-56 173.1596,-36.854 548.5014,-17.8664 676.8902,-11.9098"/>
<polygon fill="#191970" stroke="#191970" points="677.2909,-15.3951 687.1192,-11.4386 676.9687,-8.4025 677.2909,-15.3951"/>
</g>
<!-- Node14&#45;&gt;Node3 -->
<g id="edge20" class="edge">
<title>Node14&#45;&gt;Node3</title>
<path fill="none" stroke="#191970" d="M743.9902,-268.5269C608.1254,-258.5746 292.2939,-227.8756 219.5116,-154 203.0654,-137.3068 198.5417,-109.7703 197.4871,-91.1482"/>
<polygon fill="#191970" stroke="#191970" points="200.9849,-91.0194 197.203,-81.1226 193.9877,-91.2177 200.9849,-91.0194"/>
</g>
<!-- Node14&#45;&gt;Node4 -->
<g id="edge21" class="edge">
<title>Node14&#45;&gt;Node4</title>
<path fill="none" stroke="#191970" d="M785.8623,-257.2967C771.1335,-246.4524 751.393,-231.9182 736.572,-221.006"/>
<polygon fill="#191970" stroke="#191970" points="738.6172,-218.1655 728.4892,-215.055 734.4669,-223.8025 738.6172,-218.1655"/>
</g>
<!-- Node14&#45;&gt;Node9 -->
<g id="edge22" class="edge">
<title>Node14&#45;&gt;Node9</title>
<path fill="none" stroke="#191970" d="M869.0673,-266.7023C1026.2625,-251.491 1434.121,-207.8673 1558.5116,-154 1623.6136,-125.8076 1618.6045,-82.2552 1684.5116,-56 1764.4203,-24.1671 2028.3243,-13.6538 2122.6358,-10.8645"/>
<polygon fill="#191970" stroke="#191970" points="2122.8679,-14.3594 2132.764,-10.5757 2122.6683,-7.3623 2122.8679,-14.3594"/>
</g>
<!-- Node15 -->
<g id="node16" class="node">
<title>Node15</title>
<g id="a_node16"><a xlink:href="extlib_2tlx_2tlx_2algorithm_2multiway__merge_8hpp.html" target="_top" xlink:title="tlx/algorithm/multiway\l_merge.hpp">
<polygon fill="none" stroke="#000000" points="465.5116,-190.5 465.5116,-220.5 593.5116,-220.5 593.5116,-190.5 465.5116,-190.5"/>
<text text-anchor="start" x="473.5116" y="-208.5" font-family="Helvetica,sans-Serif" font-size="10.00" fill="#000000">tlx/algorithm/multiway</text>
<text text-anchor="middle" x="529.5116" y="-197.5" font-family="Helvetica,sans-Serif" font-size="10.00" fill="#000000">_merge.hpp</text>
</a>
</g>
</g>
<!-- Node14&#45;&gt;Node15 -->
<g id="edge23" class="edge">
<title>Node14&#45;&gt;Node15</title>
<path fill="none" stroke="#191970" d="M744.3474,-257.4639C702.0836,-247.2412 646.0282,-233.6827 601.7742,-222.9787"/>
<polygon fill="#191970" stroke="#191970" points="602.4895,-219.5508 591.9469,-220.6017 600.8438,-226.3546 602.4895,-219.5508"/>
</g>
<!-- Node21 -->
<g id="node22" class="node">
<title>Node21</title>
<g id="a_node22"><a xlink:href="multiway__merge__splitting_8hpp.html" target="_top" xlink:title="tlx/algorithm/multiway\l_merge_splitting.hpp">
<polygon fill="none" stroke="#000000" points="833.5116,-190.5 833.5116,-220.5 961.5116,-220.5 961.5116,-190.5 833.5116,-190.5"/>
<text text-anchor="start" x="841.5116" y="-208.5" font-family="Helvetica,sans-Serif" font-size="10.00" fill="#000000">tlx/algorithm/multiway</text>
<text text-anchor="middle" x="897.5116" y="-197.5" font-family="Helvetica,sans-Serif" font-size="10.00" fill="#000000">_merge_splitting.hpp</text>
</a>
</g>
</g>
<!-- Node14&#45;&gt;Node21 -->
<g id="edge42" class="edge">
<title>Node14&#45;&gt;Node21</title>
<path fill="none" stroke="#191970" d="M827.1609,-257.2967C839.4939,-248.2163 855.3408,-236.5488 868.871,-226.587"/>
<polygon fill="#191970" stroke="#191970" points="870.9664,-229.3907 876.944,-220.6432 866.8161,-223.7537 870.9664,-229.3907"/>
</g>
<!-- Node14&#45;&gt;Node23 -->
<g id="edge55" class="edge">
<title>Node14&#45;&gt;Node23</title>
<path fill="none" stroke="#191970" d="M869.0801,-257.9209C900.4573,-249.3598 938.4936,-237.0413 970.5116,-221 991.5756,-210.4468 992.0414,-199.7001 1013.5116,-190 1017.5176,-188.1901 1121.3955,-164.8466 1186.9078,-150.2163"/>
<polygon fill="#191970" stroke="#191970" points="1187.6776,-153.6306 1196.675,-148.0361 1186.1526,-146.7988 1187.6776,-153.6306"/>
</g>
<!-- Node15&#45;&gt;Node2 -->
<g id="edge24" class="edge">
<title>Node15&#45;&gt;Node2</title>
<path fill="none" stroke="#191970" d="M465.3996,-200.9268C400.8647,-194.8316 307.7708,-181.4477 285.5116,-154 276.8333,-143.2988 277.7699,-134.3971 285.5116,-123 329.9307,-57.6076 576.9521,-24.8571 677.2121,-14.1087"/>
<polygon fill="#191970" stroke="#191970" points="677.7101,-17.5757 687.2896,-13.0498 676.9785,-10.6141 677.7101,-17.5757"/>
</g>
<!-- Node15&#45;&gt;Node3 -->
<g id="edge25" class="edge">
<title>Node15&#45;&gt;Node3</title>
<path fill="none" stroke="#191970" d="M465.3458,-199.3808C394.737,-191.6479 286.7035,-176.5635 252.5116,-154 229.2501,-138.6496 213.4129,-109.7179 204.9132,-90.5231"/>
<polygon fill="#191970" stroke="#191970" points="208.1248,-89.131 201.0409,-81.2526 201.6657,-91.829 208.1248,-89.131"/>
</g>
<!-- Node15&#45;&gt;Node5 -->
<g id="edge27" class="edge">
<title>Node15&#45;&gt;Node5</title>
<path fill="none" stroke="#191970" d="M533.1453,-190.4649C538.49,-171.6936 550.3286,-139.9909 572.5116,-123 627.43,-80.9358 808.0569,-65.9696 876.5116,-56 1105.5807,-22.639 1384.8335,-13.0762 1478.8554,-10.701"/>
<polygon fill="#191970" stroke="#191970" points="1478.9751,-14.1992 1488.8872,-10.4574 1478.8052,-7.2012 1478.9751,-14.1992"/>
</g>
<!-- Node15&#45;&gt;Node9 -->
<g id="edge28" class="edge">
<title>Node15&#45;&gt;Node9</title>
<path fill="none" stroke="#191970" d="M577.5096,-190.4149C630.7335,-173.7337 719.167,-146.1547 795.5116,-123 895.7674,-92.5932 918.158,-73.1414 1021.5116,-56 1049.3794,-51.3781 1937.0257,-18.1638 2122.6778,-11.2563"/>
<polygon fill="#191970" stroke="#191970" points="2123.0616,-14.7445 2132.9245,-10.8752 2122.8014,-7.7494 2123.0616,-14.7445"/>
</g>
<!-- Node15&#45;&gt;Node10 -->
<g id="edge40" class="edge">
<title>Node15&#45;&gt;Node10</title>
<path fill="none" stroke="#191970" d="M593.5908,-198.9901C687.7081,-189.0926 858.6401,-169.7468 918.5116,-154 954.1898,-144.6163 961.2158,-136.5935 995.5116,-123 1023.0687,-112.0774 1053.9306,-100.0266 1078.88,-90.3299"/>
<polygon fill="#191970" stroke="#191970" points="1080.4269,-93.4839 1088.4814,-86.601 1077.8926,-86.9587 1080.4269,-93.4839"/>
</g>
<!-- Node16 -->
<g id="node17" class="node">
<title>Node16</title>
<polygon fill="none" stroke="#bfbfbf" points="426.5116,-129 426.5116,-148 482.5116,-148 482.5116,-129 426.5116,-129"/>
<text text-anchor="middle" x="454.5116" y="-136" font-family="Helvetica,sans-Serif" font-size="10.00" fill="#000000">numeric</text>
</g>
<!-- Node15&#45;&gt;Node16 -->
<g id="edge26" class="edge">
<title>Node15&#45;&gt;Node16</title>
<path fill="none" stroke="#191970" d="M512.4929,-190.2967C500.6941,-179.7564 484.9932,-165.7303 472.9059,-154.9323"/>
<polygon fill="#191970" stroke="#191970" points="474.9969,-152.107 465.2075,-148.055 470.3333,-157.3273 474.9969,-152.107"/>
</g>
<!-- Node17 -->
<g id="node18" class="node">
<title>Node17</title>
<g id="a_node18"><a xlink:href="merge__advance_8hpp.html" target="_top" xlink:title="tlx/algorithm/merge\l_advance.hpp">
<polygon fill="none" stroke="#000000" points="294.5116,-123.5 294.5116,-153.5 408.5116,-153.5 408.5116,-123.5 294.5116,-123.5"/>
<text text-anchor="start" x="302.5116" y="-141.5" font-family="Helvetica,sans-Serif" font-size="10.00" fill="#000000">tlx/algorithm/merge</text>
<text text-anchor="middle" x="351.5116" y="-130.5" font-family="Helvetica,sans-Serif" font-size="10.00" fill="#000000">_advance.hpp</text>
</a>
</g>
</g>
<!-- Node15&#45;&gt;Node17 -->
<g id="edge29" class="edge">
<title>Node15&#45;&gt;Node17</title>
<path fill="none" stroke="#191970" d="M489.5649,-190.4639C463.4333,-180.6278 429.0967,-167.7034 401.2053,-157.2049"/>
<polygon fill="#191970" stroke="#191970" points="402.2245,-153.8489 391.6325,-153.6017 399.7585,-160.4001 402.2245,-153.8489"/>
</g>
<!-- Node18 -->
<g id="node19" class="node">
<title>Node18</title>
<g id="a_node19"><a xlink:href="loser__tree_8hpp.html" target="_top" xlink:title="tlx/container/loser\l_tree.hpp">
<polygon fill="none" stroke="#000000" points="805.0116,-123.5 805.0116,-153.5 910.0116,-153.5 910.0116,-123.5 805.0116,-123.5"/>
<text text-anchor="start" x="813.0116" y="-141.5" font-family="Helvetica,sans-Serif" font-size="10.00" fill="#000000">tlx/container/loser</text>
<text text-anchor="middle" x="857.5116" y="-130.5" font-family="Helvetica,sans-Serif" font-size="10.00" fill="#000000">_tree.hpp</text>
</a>
</g>
</g>
<!-- Node15&#45;&gt;Node18 -->
<g id="edge31" class="edge">
<title>Node15&#45;&gt;Node18</title>
<path fill="none" stroke="#191970" d="M593.5319,-192.4227C651.7462,-180.5313 737.1386,-163.0884 794.9069,-151.2882"/>
<polygon fill="#191970" stroke="#191970" points="795.9046,-154.6567 805.0017,-149.2261 794.5036,-147.7983 795.9046,-154.6567"/>
</g>
<!-- Node20 -->
<g id="node21" class="node">
<title>Node20</title>
<g id="a_node21"><a xlink:href="unused_8hpp.html" target="_top" xlink:title="tlx/unused.hpp">
<polygon fill="none" stroke="#000000" points="545.0116,-62 545.0116,-81 634.0116,-81 634.0116,-62 545.0116,-62"/>
<text text-anchor="middle" x="589.5116" y="-69" font-family="Helvetica,sans-Serif" font-size="10.00" fill="#000000">tlx/unused.hpp</text>
</a>
</g>
</g>
<!-- Node15&#45;&gt;Node20 -->
<g id="edge41" class="edge">
<title>Node15&#45;&gt;Node20</title>
<path fill="none" stroke="#191970" d="M527.2082,-190.3827C525.2961,-173.1873 524.3179,-144.6869 534.5116,-123 541.3626,-108.4246 554.3449,-95.9572 565.9765,-86.9413"/>
<polygon fill="#191970" stroke="#191970" points="568.0909,-89.7311 574.1005,-81.0055 563.9612,-84.0791 568.0909,-89.7311"/>
</g>
<!-- Node17&#45;&gt;Node2 -->
<g id="edge30" class="edge">
<title>Node17&#45;&gt;Node2</title>
<path fill="none" stroke="#191970" d="M380.8146,-123.415C416.5849,-105.4605 479.2712,-75.4674 535.5116,-56 583.1522,-39.5094 639.6223,-26.2902 677.3202,-18.3279"/>
<polygon fill="#191970" stroke="#191970" points="678.3553,-21.6876 687.4323,-16.2232 676.9288,-14.8344 678.3553,-21.6876"/>
</g>
<!-- Node18&#45;&gt;Node2 -->
<g id="edge32" class="edge">
<title>Node18&#45;&gt;Node2</title>
<path fill="none" stroke="#191970" d="M855.8787,-123.1894C853.1801,-105.0126 846.1936,-74.8009 828.5116,-56 810.7378,-37.1015 783.9683,-25.6537 761.4068,-18.9049"/>
<polygon fill="#191970" stroke="#191970" points="762.2821,-15.5156 751.7099,-16.2086 760.4068,-22.2597 762.2821,-15.5156"/>
</g>
<!-- Node18&#45;&gt;Node3 -->
<g id="edge34" class="edge">
<title>Node18&#45;&gt;Node3</title>
<path fill="none" stroke="#191970" d="M804.8941,-133.1585C677.9956,-120.2764 357.0154,-87.6921 240.5611,-75.8702"/>
<polygon fill="#191970" stroke="#191970" points="240.5671,-72.3529 230.2647,-74.8249 239.86,-79.3171 240.5671,-72.3529"/>
</g>
<!-- Node18&#45;&gt;Node5 -->
<g id="edge35" class="edge">
<title>Node18&#45;&gt;Node5</title>
<path fill="none" stroke="#191970" d="M885.3303,-123.3896C922.0113,-104.2293 989.1042,-71.7914 1050.5116,-56 1131.9053,-35.069 1387.608,-17.6577 1478.8008,-11.9674"/>
<polygon fill="#191970" stroke="#191970" points="1479.073,-15.4573 1488.8381,-11.3471 1478.6412,-8.4707 1479.073,-15.4573"/>
</g>
<!-- Node18&#45;&gt;Node7 -->
<g id="edge33" class="edge">
<title>Node18&#45;&gt;Node7</title>
<path fill="none" stroke="#191970" d="M910.1835,-131.734C935.8807,-128.6504 967.2694,-125.2042 995.5116,-123 1358.7584,-94.6497 1457.3316,-158.9336 1814.5116,-87 1817.9689,-86.3037 1821.5201,-85.3673 1825.0233,-84.2978"/>
<polygon fill="#191970" stroke="#191970" points="1826.3128,-87.5561 1834.6512,-81.0199 1824.0567,-80.9296 1826.3128,-87.5561"/>
</g>
<!-- Node18&#45;&gt;Node10 -->
<g id="edge36" class="edge">
<title>Node18&#45;&gt;Node10</title>
<path fill="none" stroke="#191970" d="M910.2113,-125.4227C953.104,-114.7789 1013.9209,-99.6873 1060.3114,-88.1756"/>
<polygon fill="#191970" stroke="#191970" points="1061.4147,-91.5081 1070.2773,-85.7026 1059.7287,-84.7141 1061.4147,-91.5081"/>
</g>
<!-- Node18&#45;&gt;Node12 -->
<g id="edge38" class="edge">
<title>Node18&#45;&gt;Node12</title>
<path fill="none" stroke="#191970" d="M910.363,-130.6831C989.3234,-119.0047 1138.6484,-96.9191 1230.8715,-83.279"/>
<polygon fill="#191970" stroke="#191970" points="1231.6153,-86.7071 1240.9956,-81.7816 1230.5911,-79.7825 1231.6153,-86.7071"/>
</g>
<!-- Node19 -->
<g id="node20" class="node">
<title>Node19</title>
<g id="a_node20"><a xlink:href="likely_8hpp.html" target="_top" xlink:title="tlx/define/likely.hpp">
<polygon fill="none" stroke="#000000" points="1693.5116,-62 1693.5116,-81 1805.5116,-81 1805.5116,-62 1693.5116,-62"/>
<text text-anchor="middle" x="1749.5116" y="-69" font-family="Helvetica,sans-Serif" font-size="10.00" fill="#000000">tlx/define/likely.hpp</text>
</a>
</g>
</g>
<!-- Node18&#45;&gt;Node19 -->
<g id="edge37" class="edge">
<title>Node18&#45;&gt;Node19</title>
<path fill="none" stroke="#191970" d="M910.2088,-132.0348C935.9119,-129.021 967.2983,-125.5467 995.5116,-123 1249.0191,-100.1166 1551.3022,-82.3409 1682.858,-75.0727"/>
<polygon fill="#191970" stroke="#191970" points="1683.3735,-78.5497 1693.1661,-74.5054 1682.9888,-71.5603 1683.3735,-78.5497"/>
</g>
<!-- Node18&#45;&gt;Node20 -->
<g id="edge39" class="edge">
<title>Node18&#45;&gt;Node20</title>
<path fill="none" stroke="#191970" d="M804.8832,-125.3429C756.3129,-113.2003 684.7878,-95.3191 637.6874,-83.5439"/>
<polygon fill="#191970" stroke="#191970" points="638.2829,-80.0852 627.7326,-81.0552 636.5851,-86.8762 638.2829,-80.0852"/>
</g>
<!-- Node21&#45;&gt;Node2 -->
<g id="edge43" class="edge">
<title>Node21&#45;&gt;Node2</title>
<path fill="none" stroke="#191970" d="M833.9607,-190.3967C787.5524,-178.7399 731.5551,-163.1114 724.5116,-154 696.4422,-117.6896 706.0379,-59.463 713.7286,-29.3837"/>
<polygon fill="#191970" stroke="#191970" points="717.1235,-30.2383 716.4025,-19.668 710.3744,-28.3808 717.1235,-30.2383"/>
</g>
<!-- Node21&#45;&gt;Node9 -->
<g id="edge44" class="edge">
<title>Node21&#45;&gt;Node9</title>
<path fill="none" stroke="#191970" d="M912.8135,-190.4268C949.9889,-153.973 1043.3427,-63.4808 1061.5116,-56 1074.0991,-50.8173 1939.9133,-18.1152 2122.8149,-11.2596"/>
<polygon fill="#191970" stroke="#191970" points="2123.0582,-14.753 2132.9201,-10.8811 2122.7961,-7.7579 2123.0582,-14.753"/>
</g>
<!-- Node22 -->
<g id="node23" class="node">
<title>Node22</title>
<g id="a_node23"><a xlink:href="multisequence__partition_8hpp.html" target="_top" xlink:title="tlx/algorithm/multisequence\l_partition.hpp">
<polygon fill="none" stroke="#000000" points="1005.0116,-123.5 1005.0116,-153.5 1160.0116,-153.5 1160.0116,-123.5 1005.0116,-123.5"/>
<text text-anchor="start" x="1013.0116" y="-141.5" font-family="Helvetica,sans-Serif" font-size="10.00" fill="#000000">tlx/algorithm/multisequence</text>
<text text-anchor="middle" x="1082.5116" y="-130.5" font-family="Helvetica,sans-Serif" font-size="10.00" fill="#000000">_partition.hpp</text>
</a>
</g>
</g>
<!-- Node21&#45;&gt;Node22 -->
<g id="edge45" class="edge">
<title>Node21&#45;&gt;Node22</title>
<path fill="none" stroke="#191970" d="M939.0292,-190.4639C966.3071,-180.5849 1002.1872,-167.5905 1031.2431,-157.0675"/>
<polygon fill="#191970" stroke="#191970" points="1032.6024,-160.2978 1040.8129,-153.6017 1030.2187,-153.7161 1032.6024,-160.2978"/>
</g>
<!-- Node21&#45;&gt;Node23 -->
<g id="edge53" class="edge">
<title>Node21&#45;&gt;Node23</title>
<path fill="none" stroke="#191970" d="M961.773,-192.668C966.4211,-191.7589 971.0377,-190.8617 975.5116,-190 1061.1939,-173.4962 1082.988,-171.3074 1168.5116,-154 1174.3739,-152.8137 1180.4997,-151.5352 1186.5905,-150.2393"/>
<polygon fill="#191970" stroke="#191970" points="1187.7133,-153.578 1196.7549,-148.0554 1186.2428,-146.7342 1187.7133,-153.578"/>
</g>
<!-- Node22&#45;&gt;Node2 -->
<g id="edge46" class="edge">
<title>Node22&#45;&gt;Node2</title>
<path fill="none" stroke="#191970" d="M1041.0122,-123.4535C994.9939,-106.806 918.5308,-79.2564 852.5116,-56 820.3283,-44.6629 783.6769,-32.0052 757.0107,-22.8419"/>
<polygon fill="#191970" stroke="#191970" points="757.9043,-19.4482 747.3096,-19.5111 755.6311,-26.0689 757.9043,-19.4482"/>
</g>
<!-- Node22&#45;&gt;Node5 -->
<g id="edge49" class="edge">
<title>Node22&#45;&gt;Node5</title>
<path fill="none" stroke="#191970" d="M1071.5017,-123.458C1059.6336,-105.2662 1044.5738,-74.7575 1061.5116,-56 1089.4095,-25.105 1379.7732,-13.8321 1478.7071,-10.8708"/>
<polygon fill="#191970" stroke="#191970" points="1478.8432,-14.3684 1488.7374,-10.5797 1478.64,-7.3714 1478.8432,-14.3684"/>
</g>
<!-- Node22&#45;&gt;Node7 -->
<g id="edge47" class="edge">
<title>Node22&#45;&gt;Node7</title>
<path fill="none" stroke="#191970" d="M1160.2311,-124.1747C1163.3613,-123.7496 1166.4638,-123.3552 1169.5116,-123 1454.6938,-89.76 1533.3901,-145.3481 1814.5116,-87 1817.784,-86.3208 1821.142,-85.4325 1824.4646,-84.4244"/>
<polygon fill="#191970" stroke="#191970" points="1825.8532,-87.6496 1834.2049,-81.1305 1823.6107,-81.0185 1825.8532,-87.6496"/>
</g>
<!-- Node22&#45;&gt;Node8 -->
<g id="edge48" class="edge">
<title>Node22&#45;&gt;Node8</title>
<path fill="none" stroke="#191970" d="M1160.2907,-124.5896C1163.4044,-124.0496 1166.4872,-123.518 1169.5116,-123 1266.7357,-106.349 1294.3073,-116.2461 1388.5116,-87 1390.3705,-86.4229 1392.2589,-85.7608 1394.1429,-85.0425"/>
<polygon fill="#191970" stroke="#191970" points="1395.5395,-88.252 1403.3699,-81.1151 1392.798,-81.8111 1395.5395,-88.252"/>
</g>
<!-- Node22&#45;&gt;Node9 -->
<g id="edge50" class="edge">
<title>Node22&#45;&gt;Node9</title>
<path fill="none" stroke="#191970" d="M1120.9834,-123.4631C1142.9302,-114.2036 1170.5535,-101.3728 1193.5116,-87 1211.9858,-75.4343 1211.1671,-63.8206 1231.5116,-56 1273.8744,-39.7155 1961.2069,-16.3686 2122.7234,-11.0888"/>
<polygon fill="#191970" stroke="#191970" points="2123.1292,-14.5775 2133.0099,-10.7538 2122.9013,-7.5812 2123.1292,-14.5775"/>
</g>
<!-- Node22&#45;&gt;Node10 -->
<g id="edge51" class="edge">
<title>Node22&#45;&gt;Node10</title>
<path fill="none" stroke="#191970" d="M1092.7228,-123.2967C1098.3037,-114.9873 1105.3397,-104.5115 1111.6214,-95.1587"/>
<polygon fill="#191970" stroke="#191970" points="1114.6707,-96.896 1117.3408,-86.6432 1108.8597,-92.9931 1114.6707,-96.896"/>
</g>
<!-- Node22&#45;&gt;Node12 -->
<g id="edge52" class="edge">
<title>Node22&#45;&gt;Node12</title>
<path fill="none" stroke="#191970" d="M1133.6793,-123.4639C1167.8821,-113.4131 1213.0585,-100.1375 1249.1872,-89.5208"/>
<polygon fill="#191970" stroke="#191970" points="1250.5133,-92.7792 1259.1208,-86.6017 1248.5396,-86.0631 1250.5133,-92.7792"/>
</g>
<!-- Node23&#45;&gt;Node10 -->
<g id="edge54" class="edge">
<title>Node23&#45;&gt;Node10</title>
<path fill="none" stroke="#191970" d="M1223.4647,-128.9005C1207.3418,-119.2556 1181.9995,-104.0954 1161.4072,-91.7768"/>
<polygon fill="#191970" stroke="#191970" points="1163.0011,-88.6519 1152.6226,-86.5218 1159.4075,-94.6591 1163.0011,-88.6519"/>
</g>
<!-- Node25 -->
<g id="node26" class="node">
<title>Node25</title>
<g id="a_node26"><a xlink:href="no__operation_8hpp.html" target="_top" xlink:title="tlx/meta/no_operation.hpp">
<polygon fill="none" stroke="#000000" points="1773.5116,-196 1773.5116,-215 1919.5116,-215 1919.5116,-196 1773.5116,-196"/>
<text text-anchor="middle" x="1846.5116" y="-203" font-family="Helvetica,sans-Serif" font-size="10.00" fill="#000000">tlx/meta/no_operation.hpp</text>
</a>
</g>
</g>
<!-- Node24&#45;&gt;Node25 -->
<g id="edge58" class="edge">
<title>Node24&#45;&gt;Node25</title>
<path fill="none" stroke="#191970" d="M1937.2545,-257.4639C1917.8003,-246.3234 1891.4277,-231.2212 1872.1277,-220.1691"/>
<polygon fill="#191970" stroke="#191970" points="1873.6998,-217.0361 1863.2826,-215.1039 1870.2212,-223.1106 1873.6998,-217.0361"/>
</g>
<!-- Node26 -->
<g id="node27" class="node">
<title>Node26</title>
<polygon fill="none" stroke="#bfbfbf" points="1938.0116,-196 1938.0116,-215 2045.0116,-215 2045.0116,-196 1938.0116,-196"/>
<text text-anchor="middle" x="1991.5116" y="-203" font-family="Helvetica,sans-Serif" font-size="10.00" fill="#000000">condition_variable</text>
</g>
<!-- Node24&#45;&gt;Node26 -->
<g id="edge59" class="edge">
<title>Node24&#45;&gt;Node26</title>
<path fill="none" stroke="#191970" d="M1969.8652,-257.2967C1973.9313,-247.5672 1979.2386,-234.8675 1983.5803,-224.4784"/>
<polygon fill="#191970" stroke="#191970" points="1986.8918,-225.6313 1987.5185,-215.055 1980.4331,-222.9321 1986.8918,-225.6313"/>
</g>
<!-- Node27 -->
<g id="node28" class="node">
<title>Node27</title>
<polygon fill="none" stroke="#bfbfbf" points="2063.5116,-196 2063.5116,-215 2111.5116,-215 2111.5116,-196 2063.5116,-196"/>
<text text-anchor="middle" x="2087.5116" y="-203" font-family="Helvetica,sans-Serif" font-size="10.00" fill="#000000">mutex</text>
</g>
<!-- Node24&#45;&gt;Node27 -->
<g id="edge60" class="edge">
<title>Node24&#45;&gt;Node27</title>
<path fill="none" stroke="#191970" d="M1991.3396,-257.4639C2012.1452,-246.2222 2040.417,-230.9463 2060.9189,-219.8686"/>
<polygon fill="#191970" stroke="#191970" points="2062.6031,-222.9369 2069.7372,-215.1039 2059.2755,-216.7784 2062.6031,-222.9369"/>
</g>
<!-- Node28&#45;&gt;Node9 -->
<g id="edge99" class="edge">
<title>Node28&#45;&gt;Node9</title>
<path fill="none" stroke="#191970" d="M2054.6084,-458.3889C2122.6998,-432.5697 2300.3822,-354.4734 2368.5116,-221 2374.7754,-208.7284 2376.4864,-201.2352 2368.5116,-190 2340.4428,-150.4557 2307.9573,-177.4515 2265.5116,-154 2223.7126,-130.9058 2208.701,-126.2585 2181.5116,-87 2169.5481,-69.7261 2163.0317,-46.3676 2159.6803,-29.9223"/>
<polygon fill="#191970" stroke="#191970" points="2163.0723,-29.0126 2157.8377,-19.8012 2156.1855,-30.2664 2163.0723,-29.0126"/>
</g>
<!-- Node29 -->
<g id="node30" class="node">
<title>Node29</title>
<g id="a_node30"><a xlink:href="insertion__sort_8hpp.html" target="_top" xlink:title="tlx/sort/strings/insertion\l_sort.hpp">
<polygon fill="none" stroke="#000000" points="1600.0116,-257.5 1600.0116,-287.5 1733.0116,-287.5 1733.0116,-257.5 1600.0116,-257.5"/>
<text text-anchor="start" x="1608.0116" y="-275.5" font-family="Helvetica,sans-Serif" font-size="10.00" fill="#000000">tlx/sort/strings/insertion</text>
<text text-anchor="middle" x="1666.5116" y="-264.5" font-family="Helvetica,sans-Serif" font-size="10.00" fill="#000000">_sort.hpp</text>
</a>
</g>
</g>
<!-- Node28&#45;&gt;Node29 -->
<g id="edge62" class="edge">
<title>Node28&#45;&gt;Node29</title>
<path fill="none" stroke="#191970" d="M2009.6096,-458.3051C1953.3523,-427.8389 1779.3435,-333.6042 1703.0218,-292.2721"/>
<polygon fill="#191970" stroke="#191970" points="1704.6731,-289.1862 1694.213,-287.5017 1701.3396,-295.3415 1704.6731,-289.1862"/>
</g>
<!-- Node33 -->
<g id="node34" class="node">
<title>Node33</title>
<polygon fill="none" stroke="#bfbfbf" points="3044.5116,-.5 3044.5116,-19.5 3094.5116,-19.5 3094.5116,-.5 3044.5116,-.5"/>
<text text-anchor="middle" x="3069.5116" y="-7.5" font-family="Helvetica,sans-Serif" font-size="10.00" fill="#000000">cstdint</text>
</g>
<!-- Node28&#45;&gt;Node33 -->
<g id="edge97" class="edge">
<title>Node28&#45;&gt;Node33</title>
<path fill="none" stroke="#191970" d="M2081.7025,-465.8114C2283.0221,-456.7274 2985.3508,-416.2544 3161.5116,-288 3222.5998,-243.5246 3229.201,-193.693 3202.5116,-123 3195.5044,-104.4398 3158.6534,-68.8182 3143.5116,-56 3129.3051,-43.9736 3111.6594,-32.881 3097.1628,-24.6029"/>
<polygon fill="#191970" stroke="#191970" points="3098.5983,-21.3963 3088.1589,-19.588 3095.1921,-27.5117 3098.5983,-21.3963"/>
</g>
<!-- Node35 -->
<g id="node36" class="node">
<title>Node35</title>
<polygon fill="none" stroke="#bfbfbf" points="3384.5116,-.5 3384.5116,-19.5 3428.5116,-19.5 3428.5116,-.5 3384.5116,-.5"/>
<text text-anchor="middle" x="3406.5116" y="-7.5" font-family="Helvetica,sans-Serif" font-size="10.00" fill="#000000">string</text>
</g>
<!-- Node28&#45;&gt;Node35 -->
<g id="edge98" class="edge">
<title>Node28&#45;&gt;Node35</title>
<path fill="none" stroke="#191970" d="M2081.5891,-467.1313C2317.7302,-463.2067 3252.4247,-446.263 3381.5116,-422 3490.3003,-401.5522 3616.5116,-450.1937 3616.5116,-339.5 3616.5116,-339.5 3616.5116,-339.5 3616.5116,-138.5 3616.5116,-98.6701 3611.6311,-82.0622 3581.5116,-56 3560.2341,-37.5887 3483.0436,-22.4198 3438.6103,-14.9709"/>
<polygon fill="#191970" stroke="#191970" points="3439.0356,-11.494 3428.6011,-13.3305 3437.9034,-18.4018 3439.0356,-11.494"/>
</g>
<!-- Node40 -->
<g id="node41" class="node">
<title>Node40</title>
<g id="a_node41"><a xlink:href="multikey__quicksort_8hpp.html" target="_top" xlink:title="tlx/sort/strings/multikey\l_quicksort.hpp">
<polygon fill="none" stroke="#000000" points="1295.5116,-324.5 1295.5116,-354.5 1429.5116,-354.5 1429.5116,-324.5 1295.5116,-324.5"/>
<text text-anchor="start" x="1303.5116" y="-342.5" font-family="Helvetica,sans-Serif" font-size="10.00" fill="#000000">tlx/sort/strings/multikey</text>
<text text-anchor="middle" x="1362.5116" y="-331.5" font-family="Helvetica,sans-Serif" font-size="10.00" fill="#000000">_quicksort.hpp</text>
</a>
</g>
</g>
<!-- Node28&#45;&gt;Node40 -->
<g id="edge84" class="edge">
<title>Node28&#45;&gt;Node40</title>
<path fill="none" stroke="#191970" d="M1973.4493,-467.27C1852.5865,-465.0345 1564.028,-456.1743 1473.5116,-422 1438.6545,-408.8398 1405.2709,-381.3213 1384.3819,-361.6867"/>
<polygon fill="#191970" stroke="#191970" points="1386.6433,-359.0055 1377.0107,-354.5939 1381.7897,-364.0496 1386.6433,-359.0055"/>
</g>
<!-- Node41 -->
<g id="node42" class="node">
<title>Node41</title>
<g id="a_node42"><a xlink:href="extlib_2tlx_2tlx_2sort_2strings_2radix__sort_8hpp.html" target="_top" xlink:title="tlx/sort/strings/radix\l_sort.hpp">
<polygon fill="none" stroke="#000000" points="1483.0116,-391.5 1483.0116,-421.5 1598.0116,-421.5 1598.0116,-391.5 1483.0116,-391.5"/>
<text text-anchor="start" x="1491.0116" y="-409.5" font-family="Helvetica,sans-Serif" font-size="10.00" fill="#000000">tlx/sort/strings/radix</text>
<text text-anchor="middle" x="1540.5116" y="-398.5" font-family="Helvetica,sans-Serif" font-size="10.00" fill="#000000">_sort.hpp</text>
</a>
</g>
</g>
<!-- Node28&#45;&gt;Node41 -->
<g id="edge89" class="edge">
<title>Node28&#45;&gt;Node41</title>
<path fill="none" stroke="#191970" d="M1973.0641,-461.1242C1883.648,-449.8324 1705.9153,-427.3877 1608.4154,-415.0751"/>
<polygon fill="#191970" stroke="#191970" points="1608.7328,-411.5875 1598.373,-413.8069 1607.8557,-418.5323 1608.7328,-411.5875"/>
</g>
<!-- Node29&#45;&gt;Node19 -->
<g id="edge63" class="edge">
<title>Node29&#45;&gt;Node19</title>
<path fill="none" stroke="#191970" d="M1614.7177,-257.4033C1574.5398,-243.0337 1529.2829,-219.285 1552.5116,-190 1596.1923,-134.9306 1650.9825,-197.0949 1706.5116,-154 1726.9797,-138.1152 1738.6802,-109.7453 1744.5643,-90.7735"/>
<polygon fill="#191970" stroke="#191970" points="1747.9472,-91.673 1747.3164,-81.097 1741.2142,-89.758 1747.9472,-91.673"/>
</g>
<!-- Node30 -->
<g id="node31" class="node">
<title>Node30</title>
<g id="a_node31"><a xlink:href="enable__if_8hpp.html" target="_top" xlink:title="tlx/meta/enable_if.hpp">
<polygon fill="none" stroke="#000000" points="2336.5116,-62 2336.5116,-81 2462.5116,-81 2462.5116,-62 2336.5116,-62"/>
<text text-anchor="middle" x="2399.5116" y="-69" font-family="Helvetica,sans-Serif" font-size="10.00" fill="#000000">tlx/meta/enable_if.hpp</text>
</a>
</g>
</g>
<!-- Node29&#45;&gt;Node30 -->
<g id="edge64" class="edge">
<title>Node29&#45;&gt;Node30</title>
<path fill="none" stroke="#191970" d="M1679.2888,-257.2263C1696.4565,-237.8893 1728.9501,-205.2606 1764.5116,-190 1897.25,-133.0375 1945.5253,-180.5348 2087.5116,-154 2186.6915,-135.465 2300.7248,-102.1828 2359.6366,-84.0729"/>
<polygon fill="#191970" stroke="#191970" points="2360.7735,-87.3849 2369.294,-81.0879 2358.7064,-80.6971 2360.7735,-87.3849"/>
</g>
<!-- Node31 -->
<g id="node32" class="node">
<title>Node31</title>
<g id="a_node32"><a xlink:href="string__ptr_8hpp.html" target="_top" xlink:title="tlx/sort/strings/string\l_ptr.hpp">
<polygon fill="none" stroke="#000000" points="1561.5116,-190.5 1561.5116,-220.5 1679.5116,-220.5 1679.5116,-190.5 1561.5116,-190.5"/>
<text text-anchor="start" x="1569.5116" y="-208.5" font-family="Helvetica,sans-Serif" font-size="10.00" fill="#000000">tlx/sort/strings/string</text>
<text text-anchor="middle" x="1620.5116" y="-197.5" font-family="Helvetica,sans-Serif" font-size="10.00" fill="#000000">_ptr.hpp</text>
</a>
</g>
</g>
<!-- Node29&#45;&gt;Node31 -->
<g id="edge65" class="edge">
<title>Node29&#45;&gt;Node31</title>
<path fill="none" stroke="#191970" d="M1656.0735,-257.2967C1650.3685,-248.9873 1643.1762,-238.5115 1636.7549,-229.1587"/>
<polygon fill="#191970" stroke="#191970" points="1639.4539,-226.9062 1630.9084,-220.6432 1633.6831,-230.8682 1639.4539,-226.9062"/>
</g>
<!-- Node31&#45;&gt;Node2 -->
<g id="edge81" class="edge">
<title>Node31&#45;&gt;Node2</title>
<path fill="none" stroke="#191970" d="M1561.3323,-203.7986C1372.339,-198.1244 793.7932,-178.7974 762.5116,-154 742.9554,-138.4975 728.6154,-65.7558 722.6159,-29.9756"/>
<polygon fill="#191970" stroke="#191970" points="726.018,-29.0891 720.965,-19.7769 719.108,-30.2077 726.018,-29.0891"/>
</g>
<!-- Node31&#45;&gt;Node7 -->
<g id="edge82" class="edge">
<title>Node31&#45;&gt;Node7</title>
<path fill="none" stroke="#191970" d="M1679.6732,-191.6922C1736.9589,-178.1159 1815.9805,-158.756 1821.5116,-154 1840.3472,-137.8038 1849.3023,-109.719 1853.3747,-90.8752"/>
<polygon fill="#191970" stroke="#191970" points="1856.8214,-91.4849 1855.2461,-81.0079 1849.944,-90.1805 1856.8214,-91.4849"/>
</g>
<!-- Node32 -->
<g id="node33" class="node">
<title>Node32</title>
<g id="a_node33"><a xlink:href="string__set_8hpp.html" target="_top" xlink:title="tlx/sort/strings/string\l_set.hpp">
<polygon fill="none" stroke="#000000" points="2552.5116,-123.5 2552.5116,-153.5 2670.5116,-153.5 2670.5116,-123.5 2552.5116,-123.5"/>
<text text-anchor="start" x="2560.5116" y="-141.5" font-family="Helvetica,sans-Serif" font-size="10.00" fill="#000000">tlx/sort/strings/string</text>
<text text-anchor="middle" x="2611.5116" y="-130.5" font-family="Helvetica,sans-Serif" font-size="10.00" fill="#000000">_set.hpp</text>
</a>
</g>
</g>
<!-- Node31&#45;&gt;Node32 -->
<g id="edge66" class="edge">
<title>Node31&#45;&gt;Node32</title>
<path fill="none" stroke="#191970" d="M1679.6534,-198.5075C1705.6561,-195.5951 1736.5744,-192.3516 1764.5116,-190 2053.0244,-165.7144 2397.751,-148.3645 2542.3375,-141.6144"/>
<polygon fill="#191970" stroke="#191970" points="2542.5717,-145.1074 2552.3984,-141.1468 2542.2466,-138.1149 2542.5717,-145.1074"/>
</g>
<!-- Node39 -->
<g id="node40" class="node">
<title>Node39</title>
<polygon fill="none" stroke="#bfbfbf" points="1759.0116,-129 1759.0116,-148 1812.0116,-148 1812.0116,-129 1759.0116,-129"/>
<text text-anchor="middle" x="1785.5116" y="-136" font-family="Helvetica,sans-Serif" font-size="10.00" fill="#000000">stdint.h</text>
</g>
<!-- Node31&#45;&gt;Node39 -->
<g id="edge83" class="edge">
<title>Node31&#45;&gt;Node39</title>
<path fill="none" stroke="#191970" d="M1657.5408,-190.4639C1685.9739,-178.9183 1724.8862,-163.1176 1752.315,-151.9798"/>
<polygon fill="#191970" stroke="#191970" points="1753.9117,-155.1091 1761.8602,-148.1039 1751.2781,-148.6234 1753.9117,-155.1091"/>
</g>
<!-- Node32&#45;&gt;Node5 -->
<g id="edge71" class="edge">
<title>Node32&#45;&gt;Node5</title>
<path fill="none" stroke="#191970" d="M2592.5415,-123.1915C2566.8698,-103.4919 2518.818,-70.1267 2471.5116,-56 2426.1874,-42.4652 1707.751,-16.81 1544.3864,-11.1314"/>
<polygon fill="#191970" stroke="#191970" points="1544.1348,-7.6207 1534.0195,-10.772 1543.8922,-14.6165 1544.1348,-7.6207"/>
</g>
<!-- Node32&#45;&gt;Node7 -->
<g id="edge67" class="edge">
<title>Node32&#45;&gt;Node7</title>
<path fill="none" stroke="#191970" d="M2552.268,-133.2426C2402.7816,-119.9769 2013.6061,-85.4408 1892.8132,-74.7215"/>
<polygon fill="#191970" stroke="#191970" points="1892.8939,-71.215 1882.6236,-73.8172 1892.2751,-78.1876 1892.8939,-71.215"/>
</g>
<!-- Node32&#45;&gt;Node9 -->
<g id="edge72" class="edge">
<title>Node32&#45;&gt;Node9</title>
<path fill="none" stroke="#191970" d="M2610.4446,-123.2228C2608.2313,-104.196 2601.4275,-72.2234 2580.5116,-56 2549.8793,-32.2401 2285.6017,-16.5695 2190.4612,-11.6542"/>
<polygon fill="#191970" stroke="#191970" points="2190.4029,-8.1468 2180.2379,-11.134 2190.0471,-15.1377 2190.4029,-8.1468"/>
</g>
<!-- Node32&#45;&gt;Node30 -->
<g id="edge80" class="edge">
<title>Node32&#45;&gt;Node30</title>
<path fill="none" stroke="#191970" d="M2563.9347,-123.4639C2526.4901,-111.63 2474.9007,-95.3258 2439.5521,-84.1543"/>
<polygon fill="#191970" stroke="#191970" points="2440.1779,-80.6815 2429.588,-81.0053 2438.0684,-87.3561 2440.1779,-80.6815"/>
</g>
<!-- Node32&#45;&gt;Node33 -->
<g id="edge68" class="edge">
<title>Node32&#45;&gt;Node33</title>
<path fill="none" stroke="#191970" d="M2670.6315,-123.5608C2706.4884,-114.0586 2752.9917,-100.9482 2793.5116,-87 2828.0048,-75.1264 2834.7341,-67.0131 2869.5116,-56 2926.2238,-38.0408 2994.0351,-23.9406 3034.3435,-16.305"/>
<polygon fill="#191970" stroke="#191970" points="3035.0322,-19.737 3044.2192,-14.4597 3033.7464,-12.8561 3035.0322,-19.737"/>
</g>
<!-- Node34 -->
<g id="node35" class="node">
<title>Node34</title>
<polygon fill="none" stroke="#bfbfbf" points="2222.5116,-62 2222.5116,-81 2280.5116,-81 2280.5116,-62 2222.5116,-62"/>
<text text-anchor="middle" x="2251.5116" y="-69" font-family="Helvetica,sans-Serif" font-size="10.00" fill="#000000">memory</text>
</g>
<!-- Node32&#45;&gt;Node34 -->
<g id="edge69" class="edge">
<title>Node32&#45;&gt;Node34</title>
<path fill="none" stroke="#191970" d="M2552.4254,-128.1724C2494.9312,-118.0317 2405.1328,-101.9513 2327.5116,-87 2315.5458,-84.6952 2302.5432,-82.083 2290.7318,-79.6688"/>
<polygon fill="#191970" stroke="#191970" points="2291.2146,-76.195 2280.7148,-77.6109 2289.8059,-83.0518 2291.2146,-76.195"/>
</g>
<!-- Node32&#45;&gt;Node35 -->
<g id="edge70" class="edge">
<title>Node32&#45;&gt;Node35</title>
<path fill="none" stroke="#191970" d="M2670.577,-129.3037C2686.1435,-127.0555 2702.9405,-124.7857 2718.5116,-123 2906.8425,-101.4021 2957.1691,-121.8065 3143.5116,-87 3166.5403,-82.6985 3309.8173,-39.4355 3374.6759,-19.7101"/>
<polygon fill="#191970" stroke="#191970" points="3375.834,-23.0163 3384.3815,-16.756 3373.7957,-16.3196 3375.834,-23.0163"/>
</g>
<!-- Node36 -->
<g id="node37" class="node">
<title>Node36</title>
<g id="a_node37"><a xlink:href="logger_2core_8hpp.html" target="_top" xlink:title="tlx/logger/core.hpp">
<polygon fill="none" stroke="#000000" points="2878.5116,-62 2878.5116,-81 2986.5116,-81 2986.5116,-62 2878.5116,-62"/>
<text text-anchor="middle" x="2932.5116" y="-69" font-family="Helvetica,sans-Serif" font-size="10.00" fill="#000000">tlx/logger/core.hpp</text>
</a>
</g>
</g>
<!-- Node32&#45;&gt;Node36 -->
<g id="edge73" class="edge">
<title>Node32&#45;&gt;Node36</title>
<path fill="none" stroke="#191970" d="M2670.762,-126.1331C2729.5495,-113.8628 2818.9676,-95.1992 2876.5712,-83.176"/>
<polygon fill="#191970" stroke="#191970" points="2877.5156,-86.5544 2886.5895,-81.085 2876.0853,-79.7021 2877.5156,-86.5544"/>
</g>
<!-- Node38 -->
<g id="node39" class="node">
<title>Node38</title>
<g id="a_node39"><a xlink:href="bswap_8hpp.html" target="_top" xlink:title="tlx/math/bswap.hpp">
<polygon fill="none" stroke="#000000" points="2671.0116,-62 2671.0116,-81 2784.0116,-81 2784.0116,-62 2671.0116,-62"/>
<text text-anchor="middle" x="2727.5116" y="-69" font-family="Helvetica,sans-Serif" font-size="10.00" fill="#000000">tlx/math/bswap.hpp</text>
</a>
</g>
</g>
<!-- Node32&#45;&gt;Node38 -->
<g id="edge78" class="edge">
<title>Node32&#45;&gt;Node38</title>
<path fill="none" stroke="#191970" d="M2637.5443,-123.4639C2656.8322,-112.3234 2682.9794,-97.2212 2702.1144,-86.1691"/>
<polygon fill="#191970" stroke="#191970" points="2703.9751,-89.1363 2710.8839,-81.1039 2700.474,-83.0747 2703.9751,-89.1363"/>
</g>
<!-- Node36&#45;&gt;Node5 -->
<g id="edge76" class="edge">
<title>Node36&#45;&gt;Node5</title>
<path fill="none" stroke="#191970" d="M2878.4702,-64.5181C2852.7755,-61.4435 2821.6022,-58.0672 2793.5116,-56 2761.4101,-53.6376 1741.2492,-18.0092 1544.2547,-11.1409"/>
<polygon fill="#191970" stroke="#191970" points="1544.3445,-7.642 1534.2286,-10.7914 1544.1005,-14.6378 1544.3445,-7.642"/>
</g>
<!-- Node36&#45;&gt;Node9 -->
<g id="edge77" class="edge">
<title>Node36&#45;&gt;Node9</title>
<path fill="none" stroke="#191970" d="M2878.4324,-64.9742C2852.7295,-61.9996 2821.5602,-58.5756 2793.5116,-56 2563.3367,-34.8637 2285.6285,-17.6475 2190.4344,-11.9827"/>
<polygon fill="#191970" stroke="#191970" points="2190.4441,-8.4773 2180.2546,-11.3797 2190.0301,-15.465 2190.4441,-8.4773"/>
</g>
<!-- Node36&#45;&gt;Node35 -->
<g id="edge75" class="edge">
<title>Node36&#45;&gt;Node35</title>
<path fill="none" stroke="#191970" d="M2967.6589,-61.9978C2976.687,-59.793 2986.4186,-57.6204 2995.5116,-56 3032.4882,-49.4107 3283.5982,-22.8615 3374.0902,-13.3834"/>
<polygon fill="#191970" stroke="#191970" points="3374.723,-16.8364 3384.3044,-12.3147 3373.9944,-9.8744 3374.723,-16.8364"/>
</g>
<!-- Node37 -->
<g id="node38" class="node">
<title>Node37</title>
<polygon fill="none" stroke="#bfbfbf" points="3244.5116,-.5 3244.5116,-19.5 3300.5116,-19.5 3300.5116,-.5 3244.5116,-.5"/>
<text text-anchor="middle" x="3272.5116" y="-7.5" font-family="Helvetica,sans-Serif" font-size="10.00" fill="#000000">sstream</text>
</g>
<!-- Node36&#45;&gt;Node37 -->
<g id="edge74" class="edge">
<title>Node36&#45;&gt;Node37</title>
<path fill="none" stroke="#191970" d="M2969.3816,-61.9267C2977.9322,-59.8464 2987.0165,-57.7477 2995.5116,-56 3080.3404,-38.5479 3180.8335,-23.165 3234.3968,-15.3841"/>
<polygon fill="#191970" stroke="#191970" points="3235.0677,-18.8236 3244.4651,-13.9309 3234.0677,-11.8954 3235.0677,-18.8236"/>
</g>
<!-- Node38&#45;&gt;Node33 -->
<g id="edge79" class="edge">
<title>Node38&#45;&gt;Node33</title>
<path fill="none" stroke="#191970" d="M2769.4929,-61.9945C2779.0165,-59.933 2789.0983,-57.8254 2798.5116,-56 2882.883,-39.6391 2982.6624,-23.5324 3034.4162,-15.4192"/>
<polygon fill="#191970" stroke="#191970" points="3035.068,-18.8599 3044.4081,-13.8587 3033.9878,-11.9438 3035.068,-18.8599"/>
</g>
<!-- Node40&#45;&gt;Node2 -->
<g id="edge86" class="edge">
<title>Node40&#45;&gt;Node2</title>
<path fill="none" stroke="#191970" d="M1295.3921,-335.7238C1064.2727,-322.2894 310.4235,-274.734 216.5116,-221 183.7945,-202.2801 181.2875,-187.7551 164.5116,-154 144.8028,-114.3434 116.477,-88.5424 146.5116,-56 164.4929,-36.5173 547.5272,-17.6798 677.1045,-11.8437"/>
<polygon fill="#191970" stroke="#191970" points="677.5844,-15.3258 687.418,-11.3826 677.2717,-8.3328 677.5844,-15.3258"/>
</g>
<!-- Node40&#45;&gt;Node5 -->
<g id="edge88" class="edge">
<title>Node40&#45;&gt;Node5</title>
<path fill="none" stroke="#191970" d="M1366.5475,-324.3126C1375.3364,-294.1791 1399.073,-226.5889 1443.5116,-190 1484.8573,-155.9577 1526.7986,-197.1582 1558.5116,-154 1587.4414,-114.6295 1549.6294,-56.5641 1526.7097,-27.6724"/>
<polygon fill="#191970" stroke="#191970" points="1529.214,-25.2066 1520.1652,-19.6956 1523.8023,-29.6466 1529.214,-25.2066"/>
</g>
<!-- Node40&#45;&gt;Node13 -->
<g id="edge87" class="edge">
<title>Node40&#45;&gt;Node13</title>
<path fill="none" stroke="#191970" d="M1429.8381,-334.6973C1475.2259,-331.5151 1536.4581,-327.3295 1590.5116,-324 1880.1818,-306.1575 1956.7934,-338.9142 2242.5116,-288 2292.511,-279.0902 2649.3192,-194.838 2679.5116,-154 2718.619,-101.1036 2621.1067,-64.9789 2604.5116,-56 2561.5679,-32.7649 2506.0915,-20.6547 2470.1619,-14.8087"/>
<polygon fill="#191970" stroke="#191970" points="2470.5416,-11.3259 2460.124,-13.256 2469.4714,-18.2436 2470.5416,-11.3259"/>
</g>
<!-- Node40&#45;&gt;Node29 -->
<g id="edge85" class="edge">
<title>Node40&#45;&gt;Node29</title>
<path fill="none" stroke="#191970" d="M1429.602,-324.7136C1476.9594,-314.2763 1540.5075,-300.2706 1589.8651,-289.3925"/>
<polygon fill="#191970" stroke="#191970" points="1590.8421,-292.7612 1599.8544,-287.1909 1589.3354,-285.9253 1590.8421,-292.7612"/>
</g>
<!-- Node41&#45;&gt;Node5 -->
<g id="edge95" class="edge">
<title>Node41&#45;&gt;Node5</title>
<path fill="none" stroke="#191970" d="M1531.1202,-391.3548C1525.4813,-381.4146 1518.7851,-367.9094 1515.5116,-355 1504.8009,-312.7609 1509.2864,-300.4564 1512.5116,-257 1514.7399,-226.9749 1506.1681,-215.2856 1522.5116,-190 1538.5731,-165.1507 1564.3333,-179.9699 1578.5116,-154 1585.1137,-141.9071 1579.4308,-136.7471 1578.5116,-123 1576.5071,-93.0217 1584.3596,-82.12 1569.5116,-56 1562.2741,-43.2682 1549.9877,-32.7565 1538.5813,-25.0112"/>
<polygon fill="#191970" stroke="#191970" points="1540.4451,-22.0487 1530.1285,-19.6366 1536.6892,-27.9557 1540.4451,-22.0487"/>
</g>
<!-- Node41&#45;&gt;Node9 -->
<g id="edge96" class="edge">
<title>Node41&#45;&gt;Node9</title>
<path fill="none" stroke="#191970" d="M1577.9773,-391.4055C1599.9652,-381.9906 1627.9666,-369.0232 1651.5116,-355 1694.3553,-329.4827 1714.1545,-329.693 1741.5116,-288 1766.0555,-250.5944 1735.9802,-224.4607 1764.5116,-190 1789.6352,-159.6553 1810.1036,-171.2706 1845.5116,-154 1928.7872,-113.3814 1944.8521,-93.6493 2029.5116,-56 2060.534,-42.2039 2097.0876,-29.2996 2122.9936,-20.691"/>
<polygon fill="#191970" stroke="#191970" points="2124.3022,-23.9452 2132.7095,-17.4979 2122.1166,-17.2951 2124.3022,-23.9452"/>
</g>
<!-- Node41&#45;&gt;Node10 -->
<g id="edge90" class="edge">
<title>Node41&#45;&gt;Node10</title>
<path fill="none" stroke="#191970" d="M1482.8591,-403.0643C1415.7047,-397.7182 1310.8263,-384.7394 1286.5116,-355 1220.926,-274.782 1372.0141,-205.6428 1309.5116,-123 1295.3943,-104.3336 1240.5731,-90.4877 1194.7527,-81.8813"/>
<polygon fill="#191970" stroke="#191970" points="1195.2972,-78.423 1184.8314,-80.0716 1194.041,-85.3094 1195.2972,-78.423"/>
</g>
<!-- Node41&#45;&gt;Node19 -->
<g id="edge91" class="edge">
<title>Node41&#45;&gt;Node19</title>
<path fill="none" stroke="#191970" d="M1535.1594,-391.4451C1522.6274,-353.2561 1495.825,-251.3028 1542.5116,-190 1577.7984,-143.666 1618.4515,-183.7655 1668.5116,-154 1683.5142,-145.0795 1715.5158,-110.204 1734.4957,-88.7556"/>
<polygon fill="#191970" stroke="#191970" points="1737.3246,-90.8387 1741.2956,-81.0162 1732.0659,-86.2185 1737.3246,-90.8387"/>
</g>
<!-- Node41&#45;&gt;Node31 -->
<g id="edge93" class="edge">
<title>Node41&#45;&gt;Node31</title>
<path fill="none" stroke="#191970" d="M1544.4918,-391.259C1551.9116,-363.7765 1569.0659,-304.3709 1590.5116,-257 1594.7111,-247.7239 1600.1149,-237.9694 1605.1766,-229.4751"/>
<polygon fill="#191970" stroke="#191970" points="1608.2294,-231.1916 1610.4617,-220.8346 1602.2579,-227.539 1608.2294,-231.1916"/>
</g>
<!-- Node41&#45;&gt;Node40 -->
<g id="edge92" class="edge">
<title>Node41&#45;&gt;Node40</title>
<path fill="none" stroke="#191970" d="M1500.5649,-391.4639C1474.4333,-381.6278 1440.0967,-368.7034 1412.2053,-358.2049"/>
<polygon fill="#191970" stroke="#191970" points="1413.2245,-354.8489 1402.6325,-354.6017 1410.7585,-361.4001 1413.2245,-354.8489"/>
</g>
<!-- Node42 -->
<g id="node43" class="node">
<title>Node42</title>
<polygon fill="none" stroke="#bfbfbf" points="1600.0116,-330 1600.0116,-349 1643.0116,-349 1643.0116,-330 1600.0116,-330"/>
<text text-anchor="middle" x="1621.5116" y="-337" font-family="Helvetica,sans-Serif" font-size="10.00" fill="#000000">stack</text>
</g>
<!-- Node41&#45;&gt;Node42 -->
<g id="edge94" class="edge">
<title>Node41&#45;&gt;Node42</title>
<path fill="none" stroke="#191970" d="M1558.8918,-391.2967C1571.757,-380.6551 1588.9179,-366.4602 1602.0212,-355.6217"/>
<polygon fill="#191970" stroke="#191970" points="1604.4853,-358.1257 1609.9601,-349.055 1600.0237,-352.7318 1604.4853,-358.1257"/>
</g>
<!-- Node43&#45;&gt;Node9 -->
<g id="edge157" class="edge">
<title>Node43&#45;&gt;Node9</title>
<path fill="none" stroke="#191970" d="M3222.4392,-405.2931C3038.1518,-401.8056 2574.0298,-389.6521 2513.5116,-355 2436.5961,-310.9589 2467.0931,-249.6211 2401.5116,-190 2331.0154,-125.9108 2285.3033,-149.6346 2213.5116,-87 2194.0249,-69.9989 2177.1826,-45.2451 2166.9608,-28.4274"/>
<polygon fill="#191970" stroke="#191970" points="2169.829,-26.4006 2161.7375,-19.5611 2163.7978,-29.9537 2169.829,-26.4006"/>
</g>
<!-- Node43&#45;&gt;Node33 -->
<g id="edge155" class="edge">
<title>Node43&#45;&gt;Node33</title>
<path fill="none" stroke="#191970" d="M3295.4271,-396.8018C3290.8876,-374.8062 3280.5116,-319.4007 3280.5116,-272.5 3280.5116,-272.5 3280.5116,-272.5 3280.5116,-205.5 3280.5116,-124.5595 3245.4473,-98.4173 3176.5116,-56 3153.6624,-41.9405 3125.7561,-30.0983 3104.1722,-21.9516"/>
<polygon fill="#191970" stroke="#191970" points="3105.3345,-18.6498 3094.7411,-18.4738 3102.9126,-25.2175 3105.3345,-18.6498"/>
</g>
<!-- Node43&#45;&gt;Node35 -->
<g id="edge156" class="edge">
<title>Node43&#45;&gt;Node35</title>
<path fill="none" stroke="#191970" d="M3335.1169,-396.9893C3411.6869,-376.5194 3578.5116,-325.8046 3578.5116,-272.5 3578.5116,-272.5 3578.5116,-272.5 3578.5116,-138.5 3578.5116,-100.8735 3585.2293,-83.4654 3559.5116,-56 3543.0656,-38.4364 3478.6378,-23.5512 3438.8182,-15.7811"/>
<polygon fill="#191970" stroke="#191970" points="3439.2625,-12.3029 3428.7845,-13.8716 3437.9538,-19.1795 3439.2625,-12.3029"/>
</g>
<!-- Node44 -->
<g id="node45" class="node">
<title>Node44</title>
<g id="a_node45"><a xlink:href="parallel__sample__sort_8hpp.html" target="_top" xlink:title="tlx/sort/strings/parallel\l_sample_sort.hpp">
<polygon fill="none" stroke="#000000" points="2522.0116,-324.5 2522.0116,-354.5 2649.0116,-354.5 2649.0116,-324.5 2522.0116,-324.5"/>
<text text-anchor="start" x="2530.0116" y="-342.5" font-family="Helvetica,sans-Serif" font-size="10.00" fill="#000000">tlx/sort/strings/parallel</text>
<text text-anchor="middle" x="2585.5116" y="-331.5" font-family="Helvetica,sans-Serif" font-size="10.00" fill="#000000">_sample_sort.hpp</text>
</a>
</g>
</g>
<!-- Node43&#45;&gt;Node44 -->
<g id="edge101" class="edge">
<title>Node43&#45;&gt;Node44</title>
<path fill="none" stroke="#191970" d="M3222.3253,-399.4249C3085.1466,-386.5162 2795.8573,-359.2938 2659.5398,-346.4661"/>
<polygon fill="#191970" stroke="#191970" points="2659.4865,-342.9457 2649.2025,-345.4934 2658.8306,-349.915 2659.4865,-342.9457"/>
</g>
<!-- Node44&#45;&gt;Node2 -->
<g id="edge102" class="edge">
<title>Node44&#45;&gt;Node2</title>
<path fill="none" stroke="#191970" d="M2522.0058,-337.7178C2353.354,-332.7258 1880.2747,-317.0353 1487.5116,-288 1450.5914,-285.2706 858.8915,-234.7322 824.5116,-221 803.6245,-212.6571 803.7348,-201.6766 784.5116,-190 751.8791,-170.1783 728.0389,-185.5334 706.5116,-154 680.5581,-115.9831 698.4574,-58.5418 710.7011,-29.0116"/>
<polygon fill="#191970" stroke="#191970" points="713.9255,-30.3734 714.7149,-19.808 707.5091,-27.5751 713.9255,-30.3734"/>
</g>
<!-- Node44&#45;&gt;Node9 -->
<g id="edge108" class="edge">
<title>Node44&#45;&gt;Node9</title>
<path fill="none" stroke="#191970" d="M2566.1616,-324.4471C2553.8248,-314.5436 2537.7313,-301.0447 2524.5116,-288 2483.4717,-247.5034 2479.9812,-231.0665 2439.5116,-190 2423.8249,-174.0819 2308.7822,-67.3182 2289.5116,-56 2258.1278,-37.5673 2218.2328,-25.0105 2190.3592,-17.7327"/>
<polygon fill="#191970" stroke="#191970" points="2190.8599,-14.2495 2180.3078,-15.2007 2189.1499,-21.0375 2190.8599,-14.2495"/>
</g>
<!-- Node44&#45;&gt;Node11 -->
<g id="edge105" class="edge">
<title>Node44&#45;&gt;Node11</title>
<path fill="none" stroke="#191970" d="M2580.3968,-324.1318C2561.4181,-267.5298 2494.9229,-73.0774 2471.5116,-56 2446.9684,-38.0968 1998.1317,-17.1863 1868.3726,-11.4941"/>
<polygon fill="#191970" stroke="#191970" points="1868.3451,-7.9897 1858.2021,-11.0505 1868.0401,-14.983 1868.3451,-7.9897"/>
</g>
<!-- Node44&#45;&gt;Node20 -->
<g id="edge154" class="edge">
<title>Node44&#45;&gt;Node20</title>
<path fill="none" stroke="#191970" d="M2521.7594,-339.0691C2333.337,-337.3428 1762.7309,-328.8588 1291.5116,-288 1068.1413,-268.6319 999.8157,-303.9388 791.5116,-221 769.6231,-212.2848 769.3533,-200.9857 748.5116,-190 706.7246,-167.9739 686.1798,-182.5029 648.5116,-154 625.8967,-136.8876 608.385,-108.6539 598.5063,-90.0651"/>
<polygon fill="#191970" stroke="#191970" points="601.5947,-88.4169 593.9343,-81.0977 595.3584,-91.5964 601.5947,-88.4169"/>
</g>
<!-- Node44&#45;&gt;Node23 -->
<g id="edge138" class="edge">
<title>Node44&#45;&gt;Node23</title>
<path fill="none" stroke="#191970" d="M2521.9239,-339.1073C2331.6181,-337.4753 1768.7317,-329.2 1590.5116,-288 1462.099,-258.3143 1321.2447,-184.4511 1264.8763,-153.0245"/>
<polygon fill="#191970" stroke="#191970" points="1266.3928,-149.8619 1255.9604,-148.0131 1262.9629,-155.964 1266.3928,-149.8619"/>
</g>
<!-- Node44&#45;&gt;Node29 -->
<g id="edge109" class="edge">
<title>Node44&#45;&gt;Node29</title>
<path fill="none" stroke="#191970" d="M2521.985,-336.0684C2390.0577,-328.763 2076.8235,-310.4886 1814.5116,-288 1791.3044,-286.0104 1766.0868,-283.4997 1743.1533,-281.0817"/>
<polygon fill="#191970" stroke="#191970" points="1743.4502,-277.5937 1733.1361,-280.0164 1742.7098,-284.5544 1743.4502,-277.5937"/>
</g>
<!-- Node44&#45;&gt;Node30 -->
<g id="edge133" class="edge">
<title>Node44&#45;&gt;Node30</title>
<path fill="none" stroke="#191970" d="M2574.9785,-324.3233C2542.9231,-278.1359 2446.639,-139.4041 2412.0536,-89.5712"/>
<polygon fill="#191970" stroke="#191970" points="2414.7462,-87.3123 2406.1691,-81.0926 2408.9955,-91.3035 2414.7462,-87.3123"/>
</g>
<!-- Node44&#45;&gt;Node31 -->
<g id="edge129" class="edge">
<title>Node44&#45;&gt;Node31</title>
<path fill="none" stroke="#191970" d="M2521.7706,-336.3711C2376.0281,-328.9425 2021.984,-309.2667 1904.5116,-288 1821.5816,-272.9867 1728.2401,-243.3084 1671.9331,-223.9435"/>
<polygon fill="#191970" stroke="#191970" points="1672.7964,-220.5386 1662.2016,-220.5724 1670.505,-227.153 1672.7964,-220.5386"/>
</g>
<!-- Node44&#45;&gt;Node36 -->
<g id="edge130" class="edge">
<title>Node44&#45;&gt;Node36</title>
<path fill="none" stroke="#191970" d="M2649.1502,-337.3371C2785.9204,-332.152 3098.6077,-317.2182 3136.5116,-288 3166.8052,-264.6482 3209.9109,-152.4565 3185.5116,-123 3158.0988,-89.9054 3037.5025,-96.1367 2995.5116,-87 2990.4144,-85.8909 2985.0996,-84.6758 2979.8127,-83.4294"/>
<polygon fill="#191970" stroke="#191970" points="2980.2855,-79.9436 2969.7448,-81.0134 2978.6521,-86.7503 2980.2855,-79.9436"/>
</g>
<!-- Node45 -->
<g id="node46" class="node">
<title>Node45</title>
<polygon fill="none" stroke="#bfbfbf" points="2309.5116,-196 2309.5116,-215 2359.5116,-215 2359.5116,-196 2309.5116,-196"/>
<text text-anchor="middle" x="2334.5116" y="-203" font-family="Helvetica,sans-Serif" font-size="10.00" fill="#000000">atomic</text>
</g>
<!-- Node44&#45;&gt;Node45 -->
<g id="edge103" class="edge">
<title>Node44&#45;&gt;Node45</title>
<path fill="none" stroke="#191970" d="M2557.2066,-324.389C2508.4072,-298.3367 2409.0899,-245.3147 2361.3348,-219.8199"/>
<polygon fill="#191970" stroke="#191970" points="2362.9714,-216.7262 2352.5015,-215.1042 2359.6747,-222.9013 2362.9714,-216.7262"/>
</g>
<!-- Node46 -->
<g id="node47" class="node">
<title>Node46</title>
<polygon fill="none" stroke="#bfbfbf" points="3008.0116,-263 3008.0116,-282 3055.0116,-282 3055.0116,-263 3008.0116,-263"/>
<text text-anchor="middle" x="3031.5116" y="-270" font-family="Helvetica,sans-Serif" font-size="10.00" fill="#000000">cmath</text>
</g>
<!-- Node44&#45;&gt;Node46 -->
<g id="edge104" class="edge">
<title>Node44&#45;&gt;Node46</title>
<path fill="none" stroke="#191970" d="M2649.0402,-336.6276C2730.1308,-331.7961 2874.2089,-319.2812 2993.5116,-288 2996.1349,-287.3122 2998.8181,-286.4863 3001.4855,-285.5785"/>
<polygon fill="#191970" stroke="#191970" points="3002.8062,-288.8213 3010.9407,-282.033 3000.3484,-282.2669 3002.8062,-288.8213"/>
</g>
<!-- Node47 -->
<g id="node48" class="node">
<title>Node47</title>
<polygon fill="none" stroke="#bfbfbf" points="3500.5116,-62 3500.5116,-81 3550.5116,-81 3550.5116,-62 3500.5116,-62"/>
<text text-anchor="middle" x="3525.5116" y="-69" font-family="Helvetica,sans-Serif" font-size="10.00" fill="#000000">cstring</text>
</g>
<!-- Node44&#45;&gt;Node47 -->
<g id="edge106" class="edge">
<title>Node44&#45;&gt;Node47</title>
<path fill="none" stroke="#191970" d="M2649.0863,-337.0532C2778.2377,-331.5544 3067.0531,-316.4221 3161.5116,-288 3306.9425,-244.2405 3454.6548,-130.1556 3506.2931,-87.7148"/>
<polygon fill="#191970" stroke="#191970" points="3508.8099,-90.1745 3514.2715,-81.0959 3504.3405,-84.7871 3508.8099,-90.1745"/>
</g>
<!-- Node48 -->
<g id="node49" class="node">
<title>Node48</title>
<polygon fill="none" stroke="#bfbfbf" points="3073.5116,-263 3073.5116,-282 3127.5116,-282 3127.5116,-263 3073.5116,-263"/>
<text text-anchor="middle" x="3100.5116" y="-270" font-family="Helvetica,sans-Serif" font-size="10.00" fill="#000000">random</text>
</g>
<!-- Node44&#45;&gt;Node48 -->
<g id="edge107" class="edge">
<title>Node44&#45;&gt;Node48</title>
<path fill="none" stroke="#191970" d="M2649.2845,-335.0205C2761.032,-326.7756 2987.6609,-308.1838 3064.5116,-288 3066.8439,-287.3875 3069.2204,-286.6475 3071.584,-285.8271"/>
<polygon fill="#191970" stroke="#191970" points="3073.0381,-289.0168 3081.0828,-282.1224 3070.4945,-282.4953 3073.0381,-289.0168"/>
</g>
<!-- Node49 -->
<g id="node50" class="node">
<title>Node49</title>
<g id="a_node50"><a xlink:href="sample__sort__tools_8hpp.html" target="_top" xlink:title="tlx/sort/strings/sample\l_sort_tools.hpp">
<polygon fill="none" stroke="#000000" points="2825.5116,-190.5 2825.5116,-220.5 2951.5116,-220.5 2951.5116,-190.5 2825.5116,-190.5"/>
<text text-anchor="start" x="2833.5116" y="-208.5" font-family="Helvetica,sans-Serif" font-size="10.00" fill="#000000">tlx/sort/strings/sample</text>
<text text-anchor="middle" x="2888.5116" y="-197.5" font-family="Helvetica,sans-Serif" font-size="10.00" fill="#000000">_sort_tools.hpp</text>
</a>
</g>
</g>
<!-- Node44&#45;&gt;Node49 -->
<g id="edge110" class="edge">
<title>Node44&#45;&gt;Node49</title>
<path fill="none" stroke="#191970" d="M2649.0852,-335.085C2696.5034,-329.487 2761.4538,-316.7915 2811.5116,-288 2836.8758,-273.4114 2858.852,-247.7662 2872.7607,-228.9301"/>
<polygon fill="#191970" stroke="#191970" points="2875.7734,-230.7342 2878.7433,-220.5641 2870.0795,-226.6624 2875.7734,-230.7342"/>
</g>
<!-- Node54 -->
<g id="node55" class="node">
<title>Node54</title>
<g id="a_node55"><a xlink:href="clz_8hpp.html" target="_top" xlink:title="tlx/math/clz.hpp">
<polygon fill="none" stroke="#000000" points="2727.0116,-129 2727.0116,-148 2822.0116,-148 2822.0116,-129 2727.0116,-129"/>
<text text-anchor="middle" x="2774.5116" y="-136" font-family="Helvetica,sans-Serif" font-size="10.00" fill="#000000">tlx/math/clz.hpp</text>
</a>
</g>
</g>
<!-- Node44&#45;&gt;Node54 -->
<g id="edge131" class="edge">
<title>Node44&#45;&gt;Node54</title>
<path fill="none" stroke="#191970" d="M2649.1543,-326.6247C2676.7568,-318.7772 2708.2423,-306.5671 2732.5116,-288 2761.1995,-266.0525 2767.8087,-255.4984 2778.5116,-221 2784.9249,-200.3279 2782.3852,-175.3531 2779.2203,-158.3354"/>
<polygon fill="#191970" stroke="#191970" points="2782.6199,-157.4932 2777.1381,-148.4267 2775.7695,-158.9328 2782.6199,-157.4932"/>
</g>
<!-- Node55 -->
<g id="node56" class="node">
<title>Node55</title>
<g id="a_node56"><a xlink:href="ctz_8hpp.html" target="_top" xlink:title="tlx/math/ctz.hpp">
<polygon fill="none" stroke="#000000" points="3080.5116,-129 3080.5116,-148 3176.5116,-148 3176.5116,-129 3080.5116,-129"/>
<text text-anchor="middle" x="3128.5116" y="-136" font-family="Helvetica,sans-Serif" font-size="10.00" fill="#000000">tlx/math/ctz.hpp</text>
</a>
</g>
</g>
<!-- Node44&#45;&gt;Node55 -->
<g id="edge132" class="edge">
<title>Node44&#45;&gt;Node55</title>
<path fill="none" stroke="#191970" d="M2649.1682,-331.871C2702.0107,-324.3326 2778.584,-310.5932 2842.5116,-288 2945.7684,-251.5072 3058.0822,-183.5828 3105.4224,-153.5016"/>
<polygon fill="#191970" stroke="#191970" points="3107.4663,-156.349 3114.0022,-148.0104 3103.6928,-150.4531 3107.4663,-156.349"/>
</g>
<!-- Node57 -->
<g id="node58" class="node">
<title>Node57</title>
<g id="a_node58"><a xlink:href="multi__timer_8hpp.html" target="_top" xlink:title="tlx/multi_timer.hpp">
<polygon fill="none" stroke="#000000" points="2613.5116,-263 2613.5116,-282 2723.5116,-282 2723.5116,-263 2613.5116,-263"/>
<text text-anchor="middle" x="2668.5116" y="-270" font-family="Helvetica,sans-Serif" font-size="10.00" fill="#000000">tlx/multi_timer.hpp</text>
</a>
</g>
</g>
<!-- Node44&#45;&gt;Node57 -->
<g id="edge134" class="edge">
<title>Node44&#45;&gt;Node57</title>
<path fill="none" stroke="#191970" d="M2604.3456,-324.2967C2617.5285,-313.6551 2635.1131,-299.4602 2648.54,-288.6217"/>
<polygon fill="#191970" stroke="#191970" points="2651.0921,-291.0596 2656.6748,-282.055 2646.6952,-285.6128 2651.0921,-291.0596"/>
</g>
<!-- Node60 -->
<g id="node61" class="node">
<title>Node60</title>
<g id="a_node61"><a xlink:href="thread__pool_8hpp.html" target="_top" xlink:title="tlx/thread_pool.hpp">
<polygon fill="none" stroke="#000000" points="2122.0116,-263 2122.0116,-282 2233.0116,-282 2233.0116,-263 2122.0116,-263"/>
<text text-anchor="middle" x="2177.5116" y="-270" font-family="Helvetica,sans-Serif" font-size="10.00" fill="#000000">tlx/thread_pool.hpp</text>
</a>
</g>
</g>
<!-- Node44&#45;&gt;Node60 -->
<g id="edge139" class="edge">
<title>Node44&#45;&gt;Node60</title>
<path fill="none" stroke="#191970" d="M2521.7616,-329.0313C2445.9391,-316.58 2320.0158,-295.9014 2243.3059,-283.3045"/>
<polygon fill="#191970" stroke="#191970" points="2243.7152,-279.8249 2233.2802,-281.6581 2242.5808,-286.7324 2243.7152,-279.8249"/>
</g>
<!-- Node49&#45;&gt;Node2 -->
<g id="edge126" class="edge">
<title>Node49&#45;&gt;Node2</title>
<path fill="none" stroke="#191970" d="M2825.2542,-195.2431C2809.9894,-193.1402 2793.6998,-191.2034 2778.5116,-190 2723.5913,-185.6484 842.2303,-183.1983 795.5116,-154 754.0467,-128.0852 768.658,-99.0715 745.5116,-56 740.6426,-46.9396 735.0511,-36.9916 730.3039,-28.6715"/>
<polygon fill="#191970" stroke="#191970" points="733.227,-26.7332 725.213,-19.8031 727.1561,-30.2182 733.227,-26.7332"/>
</g>
<!-- Node49&#45;&gt;Node7 -->
<g id="edge127" class="edge">
<title>Node49&#45;&gt;Node7</title>
<path fill="none" stroke="#191970" d="M2825.2294,-195.5319C2809.9655,-193.4187 2793.6825,-191.4049 2778.5116,-190 2600.2068,-173.4885 2142.9505,-211.9282 1973.5116,-154 1933.2637,-140.2399 1894.5406,-108.0082 1873.2903,-88.1509"/>
<polygon fill="#191970" stroke="#191970" points="1875.6804,-85.5937 1866.0347,-81.2106 1870.8417,-90.6521 1875.6804,-85.5937"/>
</g>
<!-- Node49&#45;&gt;Node13 -->
<g id="edge128" class="edge">
<title>Node49&#45;&gt;Node13</title>
<path fill="none" stroke="#191970" d="M2883.6866,-190.0384C2873.0476,-158.7829 2844.3888,-88.3174 2793.5116,-56 2740.3845,-22.2535 2550.9333,-13.1635 2470.2853,-10.7985"/>
<polygon fill="#191970" stroke="#191970" points="2470.195,-7.2948 2460.1027,-10.519 2470.0029,-14.2922 2470.195,-7.2948"/>
</g>
<!-- Node49&#45;&gt;Node32 -->
<g id="edge111" class="edge">
<title>Node49&#45;&gt;Node32</title>
<path fill="none" stroke="#191970" d="M2826.3474,-190.4639C2783.0456,-179.9902 2725.2663,-166.0147 2680.5351,-155.1952"/>
<polygon fill="#191970" stroke="#191970" points="2681.1644,-151.7466 2670.6218,-152.7974 2679.5187,-158.5504 2681.1644,-151.7466"/>
</g>
<!-- Node49&#45;&gt;Node36 -->
<g id="edge119" class="edge">
<title>Node49&#45;&gt;Node36</title>
<path fill="none" stroke="#191970" d="M2891.2487,-190.3373C2894.4873,-173.5881 2900.4717,-145.9498 2908.5116,-123 2912.4329,-111.8068 2917.9648,-99.7676 2922.7295,-90.1461"/>
<polygon fill="#191970" stroke="#191970" points="2925.9009,-91.6312 2927.3174,-81.1314 2919.6623,-88.4561 2925.9009,-91.6312"/>
</g>
<!-- Node50 -->
<g id="node51" class="node">
<title>Node50</title>
<g id="a_node51"><a xlink:href="attribute__fallthrough_8hpp.html" target="_top" xlink:title="tlx/define/attribute\l_fallthrough.hpp">
<polygon fill="none" stroke="#000000" points="2917.0116,-123.5 2917.0116,-153.5 3024.0116,-153.5 3024.0116,-123.5 2917.0116,-123.5"/>
<text text-anchor="start" x="2925.0116" y="-141.5" font-family="Helvetica,sans-Serif" font-size="10.00" fill="#000000">tlx/define/attribute</text>
<text text-anchor="middle" x="2970.5116" y="-130.5" font-family="Helvetica,sans-Serif" font-size="10.00" fill="#000000">_fallthrough.hpp</text>
</a>
</g>
</g>
<!-- Node49&#45;&gt;Node50 -->
<g id="edge112" class="edge">
<title>Node49&#45;&gt;Node50</title>
<path fill="none" stroke="#191970" d="M2907.1187,-190.2967C2918.0223,-181.3876 2931.9738,-169.9882 2944.0113,-160.1527"/>
<polygon fill="#191970" stroke="#191970" points="2946.4489,-162.6808 2951.9782,-153.6432 2942.0198,-157.2601 2946.4489,-162.6808"/>
</g>
<!-- Node51 -->
<g id="node52" class="node">
<title>Node51</title>
<g id="a_node52"><a xlink:href="die_2core_8hpp.html" target="_top" xlink:title="tlx/die/core.hpp">
<polygon fill="none" stroke="#000000" points="3308.5116,-129 3308.5116,-148 3400.5116,-148 3400.5116,-129 3308.5116,-129"/>
<text text-anchor="middle" x="3354.5116" y="-136" font-family="Helvetica,sans-Serif" font-size="10.00" fill="#000000">tlx/die/core.hpp</text>
</a>
</g>
</g>
<!-- Node49&#45;&gt;Node51 -->
<g id="edge113" class="edge">
<title>Node49&#45;&gt;Node51</title>
<path fill="none" stroke="#191970" d="M2951.8434,-196.3944C3043.2849,-183.2472 3210.8743,-159.1517 3298.2142,-146.5943"/>
<polygon fill="#191970" stroke="#191970" points="3298.8014,-150.0459 3308.2015,-145.1583 3297.8051,-143.1172 3298.8014,-150.0459"/>
</g>
<!-- Node49&#45;&gt;Node54 -->
<g id="edge120" class="edge">
<title>Node49&#45;&gt;Node54</title>
<path fill="none" stroke="#191970" d="M2862.9278,-190.4639C2844.0585,-179.3741 2818.5095,-164.3584 2799.7277,-153.32"/>
<polygon fill="#191970" stroke="#191970" points="2801.2473,-150.1534 2790.8526,-148.1039 2797.7005,-156.1883 2801.2473,-150.1534"/>
</g>
<!-- Node49&#45;&gt;Node55 -->
<g id="edge121" class="edge">
<title>Node49&#45;&gt;Node55</title>
<path fill="none" stroke="#191970" d="M2942.3723,-190.4639C2985.3081,-178.4776 3044.672,-161.9052 3084.7193,-150.7254"/>
<polygon fill="#191970" stroke="#191970" points="3085.7722,-154.0653 3094.4628,-148.0053 3083.89,-147.3231 3085.7722,-154.0653"/>
</g>
<!-- Node56 -->
<g id="node57" class="node">
<title>Node56</title>
<g id="a_node57"><a xlink:href="hexdump_8hpp.html" target="_top" xlink:title="tlx/string/hexdump.hpp">
<polygon fill="none" stroke="#000000" points="3004.5116,-62 3004.5116,-81 3134.5116,-81 3134.5116,-62 3004.5116,-62"/>
<text text-anchor="middle" x="3069.5116" y="-69" font-family="Helvetica,sans-Serif" font-size="10.00" fill="#000000">tlx/string/hexdump.hpp</text>
</a>
</g>
</g>
<!-- Node49&#45;&gt;Node56 -->
<g id="edge122" class="edge">
<title>Node49&#45;&gt;Node56</title>
<path fill="none" stroke="#191970" d="M2945.0824,-190.438C2979.8363,-180.2482 3020.1749,-166.4321 3033.5116,-154 3051.5823,-137.155 3061.0629,-109.6542 3065.6716,-91.0816"/>
<polygon fill="#191970" stroke="#191970" points="3069.1401,-91.6079 3067.8977,-81.0862 3062.3075,-90.0862 3069.1401,-91.6079"/>
</g>
<!-- Node51&#45;&gt;Node35 -->
<g id="edge118" class="edge">
<title>Node51&#45;&gt;Node35</title>
<path fill="none" stroke="#191970" d="M3390.4978,-128.8314C3411.3923,-121.1651 3435.9928,-108.1332 3448.5116,-87 3455.5336,-75.146 3453.4937,-68.8455 3448.5116,-56 3444.1258,-44.692 3435.5214,-34.463 3427.2367,-26.5381"/>
<polygon fill="#191970" stroke="#191970" points="3429.336,-23.721 3419.5396,-19.6859 3424.6815,-28.9494 3429.336,-23.721"/>
</g>
<!-- Node51&#45;&gt;Node37 -->
<g id="edge116" class="edge">
<title>Node51&#45;&gt;Node37</title>
<path fill="none" stroke="#191970" d="M3370.8539,-128.8789C3394.8574,-113.519 3434.8156,-82.4879 3415.5116,-56 3403.0511,-38.9025 3348.9462,-25.0001 3310.9881,-17.1104"/>
<polygon fill="#191970" stroke="#191970" points="3311.2529,-13.5934 3300.7582,-15.0469 3309.8687,-20.4552 3311.2529,-13.5934"/>
</g>
<!-- Node51&#45;&gt;Node47 -->
<g id="edge114" class="edge">
<title>Node51&#45;&gt;Node47</title>
<path fill="none" stroke="#191970" d="M3379.345,-128.865C3405.8908,-118.5529 3449.2036,-101.6915 3486.5116,-87 3488.342,-86.2792 3490.2201,-85.538 3492.1156,-84.7888"/>
<polygon fill="#191970" stroke="#191970" points="3493.5883,-87.9701 3501.5959,-81.0325 3491.0098,-81.4623 3493.5883,-87.9701"/>
</g>
<!-- Node52 -->
<g id="node53" class="node">
<title>Node52</title>
<polygon fill="none" stroke="#bfbfbf" points="3350.5116,-62 3350.5116,-81 3406.5116,-81 3406.5116,-62 3350.5116,-62"/>
<text text-anchor="middle" x="3378.5116" y="-69" font-family="Helvetica,sans-Serif" font-size="10.00" fill="#000000">iomanip</text>
</g>
<!-- Node51&#45;&gt;Node52 -->
<g id="edge115" class="edge">
<title>Node51&#45;&gt;Node52</title>
<path fill="none" stroke="#191970" d="M3357.9502,-128.9005C3361.5146,-118.95 3367.1817,-103.1292 3371.6645,-90.6147"/>
<polygon fill="#191970" stroke="#191970" points="3375.002,-91.6762 3375.0794,-81.0817 3368.4121,-89.3156 3375.002,-91.6762"/>
</g>
<!-- Node53 -->
<g id="node54" class="node">
<title>Node53</title>
<polygon fill="none" stroke="#bfbfbf" points="3267.0116,-62 3267.0116,-81 3332.0116,-81 3332.0116,-62 3267.0116,-62"/>
<text text-anchor="middle" x="3299.5116" y="-69" font-family="Helvetica,sans-Serif" font-size="10.00" fill="#000000">stdexcept</text>
</g>
<!-- Node51&#45;&gt;Node53 -->
<g id="edge117" class="edge">
<title>Node51&#45;&gt;Node53</title>
<path fill="none" stroke="#191970" d="M3346.6314,-128.9005C3338.1364,-118.552 3324.4292,-101.8542 3313.9836,-89.1295"/>
<polygon fill="#191970" stroke="#191970" points="3316.4274,-86.5902 3307.3771,-81.0817 3311.0169,-91.0317 3316.4274,-86.5902"/>
</g>
<!-- Node56&#45;&gt;Node9 -->
<g id="edge125" class="edge">
<title>Node56&#45;&gt;Node9</title>
<path fill="none" stroke="#191970" d="M3029.3755,-61.9369C3018.4479,-59.6502 3006.5737,-57.4532 2995.5116,-56 2914.8174,-45.3991 2337.2309,-18.3239 2190.3952,-11.5529"/>
<polygon fill="#191970" stroke="#191970" points="2190.3458,-8.047 2180.1953,-11.0833 2190.0237,-15.0396 2190.3458,-8.047"/>
</g>
<!-- Node56&#45;&gt;Node33 -->
<g id="edge123" class="edge">
<title>Node56&#45;&gt;Node33</title>
<path fill="none" stroke="#191970" d="M3069.5116,-61.8906C3069.5116,-53.3657 3069.5116,-40.6392 3069.5116,-29.9235"/>
<polygon fill="#191970" stroke="#191970" points="3073.0117,-29.7448 3069.5116,-19.7449 3066.0117,-29.7449 3073.0117,-29.7448"/>
</g>
<!-- Node56&#45;&gt;Node35 -->
<g id="edge124" class="edge">
<title>Node56&#45;&gt;Node35</title>
<path fill="none" stroke="#191970" d="M3121.7981,-61.9581C3192.2861,-49.0946 3315.6758,-26.5769 3374.0913,-15.9165"/>
<polygon fill="#191970" stroke="#191970" points="3375.006,-19.3074 3384.2152,-14.0689 3373.7493,-12.4211 3375.006,-19.3074"/>
</g>
<!-- Node57&#45;&gt;Node9 -->
<g id="edge137" class="edge">
<title>Node57&#45;&gt;Node9</title>
<path fill="none" stroke="#191970" d="M2660.4704,-262.8294C2646.9874,-246.8661 2618.6258,-214.3473 2591.5116,-190 2571.6703,-172.1834 2559.714,-175.1801 2543.5116,-154 2515.0292,-116.7672 2541.4948,-84.8058 2504.5116,-56 2479.9559,-36.8738 2272.9691,-18.979 2190.3598,-12.5308"/>
<polygon fill="#191970" stroke="#191970" points="2190.4792,-9.0297 2180.2395,-11.7497 2189.9405,-16.0089 2190.4792,-9.0297"/>
</g>
<!-- Node58 -->
<g id="node59" class="node">
<title>Node58</title>
<polygon fill="none" stroke="#bfbfbf" points="2643.5116,-196 2643.5116,-215 2693.5116,-215 2693.5116,-196 2643.5116,-196"/>
<text text-anchor="middle" x="2668.5116" y="-203" font-family="Helvetica,sans-Serif" font-size="10.00" fill="#000000">chrono</text>
</g>
<!-- Node57&#45;&gt;Node58 -->
<g id="edge135" class="edge">
<title>Node57&#45;&gt;Node58</title>
<path fill="none" stroke="#191970" d="M2668.5116,-262.9005C2668.5116,-253.149 2668.5116,-237.7597 2668.5116,-225.3695"/>
<polygon fill="#191970" stroke="#191970" points="2672.0117,-225.0816 2668.5116,-215.0817 2665.0117,-225.0817 2672.0117,-225.0816"/>
</g>
<!-- Node59 -->
<g id="node60" class="node">
<title>Node59</title>
<polygon fill="none" stroke="#bfbfbf" points="2712.0116,-196 2712.0116,-215 2769.0116,-215 2769.0116,-196 2712.0116,-196"/>
<text text-anchor="middle" x="2740.5116" y="-203" font-family="Helvetica,sans-Serif" font-size="10.00" fill="#000000">ostream</text>
</g>
<!-- Node57&#45;&gt;Node59 -->
<g id="edge136" class="edge">
<title>Node57&#45;&gt;Node59</title>
<path fill="none" stroke="#191970" d="M2678.8274,-262.9005C2690.2691,-252.2535 2708.9331,-234.8856 2722.7389,-222.0385"/>
<polygon fill="#191970" stroke="#191970" points="2725.2785,-224.4562 2730.2149,-215.0817 2720.5099,-219.3317 2725.2785,-224.4562"/>
</g>
<!-- Node60&#45;&gt;Node4 -->
<g id="edge145" class="edge">
<title>Node60&#45;&gt;Node4</title>
<path fill="none" stroke="#191970" d="M2121.9905,-265.9602C2092.7335,-262.755 2056.2249,-259.1347 2023.5116,-257 1491.5141,-222.2839 1355.687,-266.5989 824.5116,-221 799.3081,-218.8364 771.0326,-214.7674 749.597,-211.3412"/>
<polygon fill="#191970" stroke="#191970" points="750.0999,-207.8771 739.667,-209.7221 748.9734,-214.7858 750.0999,-207.8771"/>
</g>
<!-- Node60&#45;&gt;Node7 -->
<g id="edge141" class="edge">
<title>Node60&#45;&gt;Node7</title>
<path fill="none" stroke="#191970" d="M2177.8044,-262.8713C2177.7647,-245.4455 2174.9632,-208.7499 2153.5116,-190 2072.3007,-119.0171 2005.037,-211.0691 1913.5116,-154 1889.4693,-139.0088 1872.9588,-109.7348 1864.1207,-90.3973"/>
<polygon fill="#191970" stroke="#191970" points="1867.274,-88.8708 1860.0997,-81.0746 1860.8464,-91.6431 1867.274,-88.8708"/>
</g>
<!-- Node60&#45;&gt;Node10 -->
<g id="edge146" class="edge">
<title>Node60&#45;&gt;Node10</title>
<path fill="none" stroke="#191970" d="M2174.1895,-262.9372C2167.3613,-244.9289 2149.8751,-206.3311 2120.5116,-190 1977.5988,-110.516 1539.8538,-208.0394 1385.5116,-154 1363.2754,-146.2145 1363.9279,-132.8186 1342.5116,-123 1295.4149,-101.4078 1238.2084,-88.2676 1194.648,-80.6694"/>
<polygon fill="#191970" stroke="#191970" points="1195.1716,-77.2083 1184.7282,-78.9933 1194.0053,-84.1105 1195.1716,-77.2083"/>
</g>
<!-- Node60&#45;&gt;Node26 -->
<g id="edge142" class="edge">
<title>Node60&#45;&gt;Node26</title>
<path fill="none" stroke="#191970" d="M2150.8623,-262.9005C2118.5424,-251.2584 2063.9142,-231.5805 2027.7791,-218.5641"/>
<polygon fill="#191970" stroke="#191970" points="2028.7058,-215.1778 2018.1114,-215.0817 2026.3335,-221.7636 2028.7058,-215.1778"/>
</g>
<!-- Node60&#45;&gt;Node27 -->
<g id="edge144" class="edge">
<title>Node60&#45;&gt;Node27</title>
<path fill="none" stroke="#191970" d="M2164.6168,-262.9005C2150.0474,-252.0544 2126.1094,-234.2339 2108.7662,-221.3229"/>
<polygon fill="#191970" stroke="#191970" points="2110.4939,-218.2457 2100.3825,-215.0817 2106.3138,-223.8606 2110.4939,-218.2457"/>
</g>
<!-- Node60&#45;&gt;Node45 -->
<g id="edge140" class="edge">
<title>Node60&#45;&gt;Node45</title>
<path fill="none" stroke="#191970" d="M2201.1847,-262.8448C2226.0204,-252.6554 2266.1481,-236.0225 2300.5116,-221 2301.7153,-220.4738 2302.9413,-219.9339 2304.1785,-219.3856"/>
<polygon fill="#191970" stroke="#191970" points="2306.01,-222.4 2313.6999,-215.1119 2303.1435,-216.0138 2306.01,-222.4"/>
</g>
<!-- Node61 -->
<g id="node62" class="node">
<title>Node61</title>
<polygon fill="none" stroke="#bfbfbf" points="2244.0116,-196 2244.0116,-215 2291.0116,-215 2291.0116,-196 2244.0116,-196"/>
<text text-anchor="middle" x="2267.5116" y="-203" font-family="Helvetica,sans-Serif" font-size="10.00" fill="#000000">deque</text>
</g>
<!-- Node60&#45;&gt;Node61 -->
<g id="edge143" class="edge">
<title>Node60&#45;&gt;Node61</title>
<path fill="none" stroke="#191970" d="M2190.4064,-262.9005C2204.9758,-252.0544 2228.9138,-234.2339 2246.257,-221.3229"/>
<polygon fill="#191970" stroke="#191970" points="2248.7094,-223.8606 2254.6407,-215.0817 2244.5293,-218.2457 2248.7094,-223.8606"/>
</g>
<!-- Node62 -->
<g id="node63" class="node">
<title>Node62</title>
<g id="a_node63"><a xlink:href="delegate_8hpp.html" target="_top" xlink:title="tlx/delegate.hpp">
<polygon fill="none" stroke="#000000" points="1982.5116,-129 1982.5116,-148 2078.5116,-148 2078.5116,-129 1982.5116,-129"/>
<text text-anchor="middle" x="2030.5116" y="-136" font-family="Helvetica,sans-Serif" font-size="10.00" fill="#000000">tlx/delegate.hpp</text>
</a>
</g>
</g>
<!-- Node60&#45;&gt;Node62 -->
<g id="edge147" class="edge">
<title>Node60&#45;&gt;Node62</title>
<path fill="none" stroke="#191970" d="M2183.359,-262.7989C2192.5166,-246.2117 2207.6157,-212.0592 2191.5116,-190 2179.0428,-172.9204 2129.5885,-158.7495 2088.7428,-149.6253"/>
<polygon fill="#191970" stroke="#191970" points="2089.3558,-146.1769 2078.8405,-147.4725 2087.8686,-153.0171 2089.3558,-146.1769"/>
</g>
<!-- Node62&#45;&gt;Node2 -->
<g id="edge148" class="edge">
<title>Node62&#45;&gt;Node2</title>
<path fill="none" stroke="#191970" d="M2007.8093,-128.8572C1986.5783,-119.4235 1954.3551,-104.0235 1928.5116,-87 1910.5958,-75.1986 1911.5262,-63.7241 1891.5116,-56 1837.8544,-35.2926 965.8575,-15.3029 761.9295,-10.8963"/>
<polygon fill="#191970" stroke="#191970" points="761.7062,-7.3908 751.6332,-10.6748 761.5556,-14.3892 761.7062,-7.3908"/>
</g>
<!-- Node62&#45;&gt;Node5 -->
<g id="edge153" class="edge">
<title>Node62&#45;&gt;Node5</title>
<path fill="none" stroke="#191970" d="M2022.142,-128.7644C2006.0677,-110.8196 1968.8739,-72.8267 1928.5116,-56 1859.0456,-27.0402 1629.9826,-14.8597 1544.2683,-11.2402"/>
<polygon fill="#191970" stroke="#191970" points="1544.2159,-7.7352 1534.0807,-10.8222 1543.9288,-14.7294 1544.2159,-7.7352"/>
</g>
<!-- Node62&#45;&gt;Node7 -->
<g id="edge149" class="edge">
<title>Node62&#45;&gt;Node7</title>
<path fill="none" stroke="#191970" d="M2005.5816,-128.9005C1975.4761,-117.3082 1924.6795,-97.7486 1890.8736,-84.7313"/>
<polygon fill="#191970" stroke="#191970" points="1891.9851,-81.4089 1881.3953,-81.0817 1889.4697,-87.9413 1891.9851,-81.4089"/>
</g>
<!-- Node62&#45;&gt;Node13 -->
<g id="edge150" class="edge">
<title>Node62&#45;&gt;Node13</title>
<path fill="none" stroke="#191970" d="M2029.6545,-128.8603C2028.6909,-111.4166 2029.4652,-74.693 2050.5116,-56 2076.1596,-33.22 2306.0832,-17.4384 2396.8727,-12.0446"/>
<polygon fill="#191970" stroke="#191970" points="2397.2028,-15.5314 2406.9812,-11.453 2396.7937,-8.5434 2397.2028,-15.5314"/>
</g>
<!-- Node62&#45;&gt;Node34 -->
<g id="edge151" class="edge">
<title>Node62&#45;&gt;Node34</title>
<path fill="none" stroke="#191970" d="M2062.1755,-128.9005C2101.843,-116.8747 2169.7925,-96.2746 2212.5918,-83.2992"/>
<polygon fill="#191970" stroke="#191970" points="2213.8185,-86.5847 2222.3729,-80.3339 2211.7875,-79.8858 2213.8185,-86.5847"/>
</g>
<!-- Node63 -->
<g id="node64" class="node">
<title>Node63</title>
<polygon fill="none" stroke="#bfbfbf" points="2059.0116,-62 2059.0116,-81 2128.0116,-81 2128.0116,-62 2059.0116,-62"/>
<text text-anchor="middle" x="2093.5116" y="-69" font-family="Helvetica,sans-Serif" font-size="10.00" fill="#000000">type_traits</text>
</g>
<!-- Node62&#45;&gt;Node63 -->
<g id="edge152" class="edge">
<title>Node62&#45;&gt;Node63</title>
<path fill="none" stroke="#191970" d="M2039.538,-128.9005C2049.4558,-118.353 2065.5757,-101.2096 2077.6207,-88.3998"/>
<polygon fill="#191970" stroke="#191970" points="2080.2015,-90.7645 2084.502,-81.0817 2075.1019,-85.9693 2080.2015,-90.7645"/>
</g>
</g>
</svg>
