<?xml version="1.0" encoding="UTF-8" standalone="no"?>
<!DOCTYPE svg PUBLIC "-//W3C//DTD SVG 1.1//EN"
 "http://www.w3.org/Graphics/SVG/1.1/DTD/svg11.dtd">
<!-- Generated by graphviz version 2.36.0 (20140111.2315)
 -->
<!-- Title: extlib/tlx/tlx/math/aggregate.hpp Pages: 1 -->
<svg width="303pt" height="96pt"
 viewBox="0.00 0.00 303.00 96.00" xmlns="http://www.w3.org/2000/svg" xmlns:xlink="http://www.w3.org/1999/xlink">
<g id="graph0" class="graph" transform="scale(1 1) rotate(0) translate(4 92)">
<title>extlib/tlx/tlx/math/aggregate.hpp</title>
<!-- Node1 -->
<g id="node1" class="node"><title>Node1</title>
<polygon fill="#bfbfbf" stroke="black" points="135,-57 135,-87 227,-87 227,-57 135,-57"/>
<text text-anchor="start" x="143" y="-75" font-family="Helvetica,sans-Serif" font-size="10.00">extlib/tlx/tlx/math</text>
<text text-anchor="middle" x="181" y="-64" font-family="Helvetica,sans-Serif" font-size="10.00">/aggregate.hpp</text>
</g>
<!-- Node2 -->
<g id="node2" class="node"><title>Node2</title>
<g id="a_node2"><a xlink:href="likely_8hpp.html" target="_top" xlink:title="tlx/define/likely.hpp">
<polygon fill="none" stroke="black" points="-0.5,-0.5 -0.5,-19.5 100.5,-19.5 100.5,-0.5 -0.5,-0.5"/>
<text text-anchor="middle" x="50" y="-7.5" font-family="Helvetica,sans-Serif" font-size="10.00">tlx/define/likely.hpp</text>
</a>
</g>
</g>
<!-- Node1&#45;&gt;Node2 -->
<g id="edge1" class="edge"><title>Node1&#45;&gt;Node2</title>
<path fill="none" stroke="midnightblue" d="M150.286,-56.9327C128.382,-46.9004 99.167,-33.5193 77.9221,-23.7888"/>
<polygon fill="midnightblue" stroke="midnightblue" points="79.326,-20.5821 68.7767,-19.6 76.411,-26.9464 79.326,-20.5821"/>
</g>
<!-- Node3 -->
<g id="node3" class="node"><title>Node3</title>
<polygon fill="none" stroke="#bfbfbf" points="119,-0.5 119,-19.5 175,-19.5 175,-0.5 119,-0.5"/>
<text text-anchor="middle" x="147" y="-7.5" font-family="Helvetica,sans-Serif" font-size="10.00">algorithm</text>
</g>
<!-- Node1&#45;&gt;Node3 -->
<g id="edge2" class="edge"><title>Node1&#45;&gt;Node3</title>
<path fill="none" stroke="midnightblue" d="M172.942,-56.7808C168.155,-48.3318 162.044,-37.5481 156.956,-28.5693"/>
<polygon fill="midnightblue" stroke="midnightblue" points="159.923,-26.7052 151.947,-19.7305 153.832,-30.1563 159.923,-26.7052"/>
</g>
<!-- Node4 -->
<g id="node4" class="node"><title>Node4</title>
<polygon fill="none" stroke="#bfbfbf" points="193,-0.5 193,-19.5 237,-19.5 237,-0.5 193,-0.5"/>
<text text-anchor="middle" x="215" y="-7.5" font-family="Helvetica,sans-Serif" font-size="10.00">cmath</text>
</g>
<!-- Node1&#45;&gt;Node4 -->
<g id="edge3" class="edge"><title>Node1&#45;&gt;Node4</title>
<path fill="none" stroke="midnightblue" d="M189.058,-56.7808C193.845,-48.3318 199.956,-37.5481 205.044,-28.5693"/>
<polygon fill="midnightblue" stroke="midnightblue" points="208.168,-30.1563 210.053,-19.7305 202.077,-26.7052 208.168,-30.1563"/>
</g>
<!-- Node5 -->
<g id="node5" class="node"><title>Node5</title>
<polygon fill="none" stroke="#bfbfbf" points="255,-0.5 255,-19.5 295,-19.5 295,-0.5 255,-0.5"/>
<text text-anchor="middle" x="275" y="-7.5" font-family="Helvetica,sans-Serif" font-size="10.00">limits</text>
</g>
<!-- Node1&#45;&gt;Node5 -->
<g id="edge4" class="edge"><title>Node1&#45;&gt;Node5</title>
<path fill="none" stroke="midnightblue" d="M203.277,-56.7808C218.293,-47.1958 238.017,-34.6062 252.98,-25.0555"/>
<polygon fill="midnightblue" stroke="midnightblue" points="255.05,-27.8863 261.596,-19.5557 251.284,-21.9859 255.05,-27.8863"/>
</g>
</g>
</svg>
