<?xml version="1.0" encoding="UTF-8" standalone="no"?>
<!DOCTYPE svg PUBLIC "-//W3C//DTD SVG 1.1//EN"
 "http://www.w3.org/Graphics/SVG/1.1/DTD/svg11.dtd">
<!-- Generated by graphviz version 2.26.3 (20100126.1600)
 -->
<!-- Title: extlib/tlx/tlx/string.hpp Pages: 1 -->
<svg width="3450pt" height="160pt"
 viewBox="0.00 0.00 3450.00 160.00" xmlns="http://www.w3.org/2000/svg" xmlns:xlink="http://www.w3.org/1999/xlink">
<g id="graph1" class="graph" transform="scale(1 1) rotate(0) translate(4 156)">
<title>extlib/tlx/tlx/string.hpp</title>
<!-- Node1 -->
<g id="node1" class="node"><title>Node1</title>
<polygon fill="#bfbfbf" stroke="black" points="1642.5,-130.5 1642.5,-151.5 1755.5,-151.5 1755.5,-130.5 1642.5,-130.5"/>
<text text-anchor="middle" x="1699" y="-138.5" font-family="Helvetica,sans-Serif" font-size="10.00">extlib/tlx/tlx/string.hpp</text>
</g>
<!-- Node2 -->
<g id="node3" class="node"><title>Node2</title>
<a xlink:href="base64_8hpp.html" target="_top" xlink:title="tlx/string/base64.hpp">
<polygon fill="none" stroke="black" points="-0.5,-65.5 -0.5,-86.5 106.5,-86.5 106.5,-65.5 -0.5,-65.5"/>
<text text-anchor="middle" x="53" y="-73.5" font-family="Helvetica,sans-Serif" font-size="10.00">tlx/string/base64.hpp</text>
</a>
</g>
<!-- Node1&#45;&gt;Node2 -->
<g id="edge2" class="edge"><title>Node1&#45;&gt;Node2</title>
<path fill="none" stroke="midnightblue" d="M1642.11,-140.164C1376.86,-136.154 267.959,-118.074 115,-94 108.007,-92.8994 100.691,-91.2463 93.6373,-89.3804"/>
<polygon fill="midnightblue" stroke="midnightblue" points="94.1326,-85.8834 83.5577,-86.5337 92.23,-92.6199 94.1326,-85.8834"/>
</g>
<!-- Node4 -->
<g id="node7" class="node"><title>Node4</title>
<a xlink:href="compare__icase_8hpp.html" target="_top" xlink:title="tlx/string/compare\l_icase.hpp">
<polygon fill="none" stroke="black" points="123.5,-59 123.5,-93 218.5,-93 218.5,-59 123.5,-59"/>
<text text-anchor="start" x="131.5" y="-80" font-family="Helvetica,sans-Serif" font-size="10.00">tlx/string/compare</text>
<text text-anchor="middle" x="171" y="-67" font-family="Helvetica,sans-Serif" font-size="10.00">_icase.hpp</text>
</a>
</g>
<!-- Node1&#45;&gt;Node4 -->
<g id="edge6" class="edge"><title>Node1&#45;&gt;Node4</title>
<path fill="none" stroke="midnightblue" d="M1642.36,-140.126C1394.34,-136.173 408.664,-119.132 228.745,-93.8706"/>
<polygon fill="midnightblue" stroke="midnightblue" points="229.16,-90.3931 218.741,-92.3122 228.083,-97.3097 229.16,-90.3931"/>
</g>
<!-- Node5 -->
<g id="node10" class="node"><title>Node5</title>
<a xlink:href="contains_8hpp.html" target="_top" xlink:title="tlx/string/contains.hpp">
<polygon fill="none" stroke="black" points="235.5,-65.5 235.5,-86.5 348.5,-86.5 348.5,-65.5 235.5,-65.5"/>
<text text-anchor="middle" x="292" y="-73.5" font-family="Helvetica,sans-Serif" font-size="10.00">tlx/string/contains.hpp</text>
</a>
</g>
<!-- Node1&#45;&gt;Node5 -->
<g id="edge10" class="edge"><title>Node1&#45;&gt;Node5</title>
<path fill="none" stroke="midnightblue" d="M1642.26,-140.787C1420.31,-139.68 610.607,-132.999 357,-94 349.516,-92.8492 341.666,-91.1313 334.112,-89.2062"/>
<polygon fill="midnightblue" stroke="midnightblue" points="334.974,-85.8137 324.407,-86.5864 333.149,-92.5718 334.974,-85.8137"/>
</g>
<!-- Node6 -->
<g id="node13" class="node"><title>Node6</title>
<a xlink:href="contains__word_8hpp.html" target="_top" xlink:title="tlx/string/contains\l_word.hpp">
<polygon fill="none" stroke="black" points="366,-59 366,-93 460,-93 460,-59 366,-59"/>
<text text-anchor="start" x="374" y="-80" font-family="Helvetica,sans-Serif" font-size="10.00">tlx/string/contains</text>
<text text-anchor="middle" x="413" y="-67" font-family="Helvetica,sans-Serif" font-size="10.00">_word.hpp</text>
</a>
</g>
<!-- Node1&#45;&gt;Node6 -->
<g id="edge14" class="edge"><title>Node1&#45;&gt;Node6</title>
<path fill="none" stroke="midnightblue" d="M1642.45,-139.746C1421.81,-134.733 623.842,-115.433 470.069,-93.7137"/>
<polygon fill="midnightblue" stroke="midnightblue" points="470.551,-90.2464 460.127,-92.1459 469.46,-97.161 470.551,-90.2464"/>
</g>
<!-- Node7 -->
<g id="node16" class="node"><title>Node7</title>
<a xlink:href="ends__with_8hpp.html" target="_top" xlink:title="tlx/string/ends_with.hpp">
<polygon fill="none" stroke="black" points="478,-65.5 478,-86.5 598,-86.5 598,-65.5 478,-65.5"/>
<text text-anchor="middle" x="538" y="-73.5" font-family="Helvetica,sans-Serif" font-size="10.00">tlx/string/ends_with.hpp</text>
</a>
</g>
<!-- Node1&#45;&gt;Node7 -->
<g id="edge18" class="edge"><title>Node1&#45;&gt;Node7</title>
<path fill="none" stroke="midnightblue" d="M1642.19,-140.146C1447.74,-136.973 809.666,-124.443 607,-94 598.905,-92.7841 590.39,-90.9956 582.21,-89.0114"/>
<polygon fill="midnightblue" stroke="midnightblue" points="583.005,-85.6022 572.45,-86.5193 581.273,-92.3846 583.005,-85.6022"/>
</g>
<!-- Node8 -->
<g id="node19" class="node"><title>Node8</title>
<a xlink:href="equal__icase_8hpp.html" target="_top" xlink:title="tlx/string/equal_icase.hpp">
<polygon fill="none" stroke="black" points="616,-65.5 616,-86.5 744,-86.5 744,-65.5 616,-65.5"/>
<text text-anchor="middle" x="680" y="-73.5" font-family="Helvetica,sans-Serif" font-size="10.00">tlx/string/equal_icase.hpp</text>
</a>
</g>
<!-- Node1&#45;&gt;Node8 -->
<g id="edge22" class="edge"><title>Node1&#45;&gt;Node8</title>
<path fill="none" stroke="midnightblue" d="M1642.25,-139.611C1465.47,-135.06 926.17,-119.41 753,-94 744.46,-92.7469 735.461,-90.9402 726.811,-88.9495"/>
<polygon fill="midnightblue" stroke="midnightblue" points="727.406,-85.4927 716.864,-86.5502 725.764,-92.2975 727.406,-85.4927"/>
</g>
<!-- Node9 -->
<g id="node22" class="node"><title>Node9</title>
<a xlink:href="erase__all_8hpp.html" target="_top" xlink:title="tlx/string/erase_all.hpp">
<polygon fill="none" stroke="black" points="761.5,-65.5 761.5,-86.5 876.5,-86.5 876.5,-65.5 761.5,-65.5"/>
<text text-anchor="middle" x="819" y="-73.5" font-family="Helvetica,sans-Serif" font-size="10.00">tlx/string/erase_all.hpp</text>
</a>
</g>
<!-- Node1&#45;&gt;Node9 -->
<g id="edge26" class="edge"><title>Node1&#45;&gt;Node9</title>
<path fill="none" stroke="midnightblue" d="M1642.39,-139.269C1482.77,-134.143 1031.25,-117.897 885,-94 877.502,-92.7749 869.63,-91.0381 862.04,-89.1219"/>
<polygon fill="midnightblue" stroke="midnightblue" points="862.841,-85.7136 852.278,-86.5274 861.043,-92.4787 862.841,-85.7136"/>
</g>
<!-- Node10 -->
<g id="node25" class="node"><title>Node10</title>
<a xlink:href="escape__html_8hpp.html" target="_top" xlink:title="tlx/string/escape_html.hpp">
<polygon fill="none" stroke="black" points="893.5,-65.5 893.5,-86.5 1024.5,-86.5 1024.5,-65.5 893.5,-65.5"/>
<text text-anchor="middle" x="959" y="-73.5" font-family="Helvetica,sans-Serif" font-size="10.00">tlx/string/escape_html.hpp</text>
</a>
</g>
<!-- Node1&#45;&gt;Node10 -->
<g id="edge30" class="edge"><title>Node1&#45;&gt;Node10</title>
<path fill="none" stroke="midnightblue" d="M1642.06,-140.201C1526.55,-137.873 1256.62,-128.834 1033,-94 1024.55,-92.6836 1015.64,-90.8831 1007.05,-88.9273"/>
<polygon fill="midnightblue" stroke="midnightblue" points="1007.7,-85.4832 997.161,-86.5797 1006.08,-92.2941 1007.7,-85.4832"/>
</g>
<!-- Node11 -->
<g id="node28" class="node"><title>Node11</title>
<a xlink:href="escape__uri_8hpp.html" target="_top" xlink:title="tlx/string/escape_uri.hpp">
<polygon fill="none" stroke="black" points="1041.5,-65.5 1041.5,-86.5 1164.5,-86.5 1164.5,-65.5 1041.5,-65.5"/>
<text text-anchor="middle" x="1103" y="-73.5" font-family="Helvetica,sans-Serif" font-size="10.00">tlx/string/escape_uri.hpp</text>
</a>
</g>
<!-- Node1&#45;&gt;Node11 -->
<g id="edge34" class="edge"><title>Node1&#45;&gt;Node11</title>
<path fill="none" stroke="midnightblue" d="M1642.17,-138.951C1545.29,-134.782 1342.19,-123.113 1173,-94 1165.26,-92.6684 1157.12,-90.9122 1149.24,-89.0186"/>
<polygon fill="midnightblue" stroke="midnightblue" points="1150,-85.6002 1139.45,-86.5682 1148.3,-92.3909 1150,-85.6002"/>
</g>
<!-- Node12 -->
<g id="node31" class="node"><title>Node12</title>
<a xlink:href="extract__between_8hpp.html" target="_top" xlink:title="tlx/string/extract\l_between.hpp">
<polygon fill="none" stroke="black" points="1181.5,-59 1181.5,-93 1268.5,-93 1268.5,-59 1181.5,-59"/>
<text text-anchor="start" x="1189.5" y="-80" font-family="Helvetica,sans-Serif" font-size="10.00">tlx/string/extract</text>
<text text-anchor="middle" x="1225" y="-67" font-family="Helvetica,sans-Serif" font-size="10.00">_between.hpp</text>
</a>
</g>
<!-- Node1&#45;&gt;Node12 -->
<g id="edge38" class="edge"><title>Node1&#45;&gt;Node12</title>
<path fill="none" stroke="midnightblue" d="M1642.37,-138.69C1562.74,-134.566 1413.24,-123.616 1278.84,-94.1659"/>
<polygon fill="midnightblue" stroke="midnightblue" points="1279.3,-90.6829 1268.77,-91.92 1277.77,-97.5147 1279.3,-90.6829"/>
</g>
<!-- Node13 -->
<g id="node34" class="node"><title>Node13</title>
<a xlink:href="format__si__iec__units_8hpp.html" target="_top" xlink:title="tlx/string/format_si\l_iec_units.hpp">
<polygon fill="none" stroke="black" points="1286,-59 1286,-93 1384,-93 1384,-59 1286,-59"/>
<text text-anchor="start" x="1294" y="-80" font-family="Helvetica,sans-Serif" font-size="10.00">tlx/string/format_si</text>
<text text-anchor="middle" x="1335" y="-67" font-family="Helvetica,sans-Serif" font-size="10.00">_iec_units.hpp</text>
</a>
</g>
<!-- Node1&#45;&gt;Node13 -->
<g id="edge42" class="edge"><title>Node1&#45;&gt;Node13</title>
<path fill="none" stroke="midnightblue" d="M1642.41,-134.861C1582.8,-127.825 1486.12,-114.796 1394.25,-94.1138"/>
<polygon fill="midnightblue" stroke="midnightblue" points="1394.75,-90.6395 1384.22,-91.8224 1393.19,-97.4634 1394.75,-90.6395"/>
</g>
<!-- Node14 -->
<g id="node37" class="node"><title>Node14</title>
<a xlink:href="hexdump_8hpp.html" target="_top" xlink:title="tlx/string/hexdump.hpp">
<polygon fill="none" stroke="black" points="3180,-65.5 3180,-86.5 3296,-86.5 3296,-65.5 3180,-65.5"/>
<text text-anchor="middle" x="3238" y="-73.5" font-family="Helvetica,sans-Serif" font-size="10.00">tlx/string/hexdump.hpp</text>
</a>
</g>
<!-- Node1&#45;&gt;Node14 -->
<g id="edge46" class="edge"><title>Node1&#45;&gt;Node14</title>
<path fill="none" stroke="midnightblue" d="M1755.61,-139.965C2008.59,-135.234 3029.36,-114.999 3171,-94 3178.87,-92.8325 3187.15,-91.0681 3195.09,-89.0927"/>
<polygon fill="midnightblue" stroke="midnightblue" points="3196.14,-92.4361 3204.92,-86.5068 3194.36,-85.6664 3196.14,-92.4361"/>
</g>
<!-- Node17 -->
<g id="node44" class="node"><title>Node17</title>
<a xlink:href="index__of_8hpp.html" target="_top" xlink:title="tlx/string/index_of.hpp">
<polygon fill="none" stroke="black" points="2829.5,-65.5 2829.5,-86.5 2942.5,-86.5 2942.5,-65.5 2829.5,-65.5"/>
<text text-anchor="middle" x="2886" y="-73.5" font-family="Helvetica,sans-Serif" font-size="10.00">tlx/string/index_of.hpp</text>
</a>
</g>
<!-- Node1&#45;&gt;Node17 -->
<g id="edge54" class="edge"><title>Node1&#45;&gt;Node17</title>
<path fill="none" stroke="midnightblue" d="M1755.66,-140.335C1953.43,-137.747 2612.4,-126.811 2821,-94 2828.48,-92.8235 2836.33,-91.0929 2843.88,-89.1632"/>
<polygon fill="midnightblue" stroke="midnightblue" points="2844.84,-92.5286 2853.59,-86.5415 2843.02,-85.7708 2844.84,-92.5286"/>
</g>
<!-- Node18 -->
<g id="node48" class="node"><title>Node18</title>
<a xlink:href="join_8hpp.html" target="_top" xlink:title="tlx/string/join.hpp">
<polygon fill="none" stroke="black" points="2959.5,-65.5 2959.5,-86.5 3050.5,-86.5 3050.5,-65.5 2959.5,-65.5"/>
<text text-anchor="middle" x="3005" y="-73.5" font-family="Helvetica,sans-Serif" font-size="10.00">tlx/string/join.hpp</text>
</a>
</g>
<!-- Node1&#45;&gt;Node18 -->
<g id="edge60" class="edge"><title>Node1&#45;&gt;Node18</title>
<path fill="none" stroke="midnightblue" d="M1755.79,-139.817C1984.65,-134.92 2832.69,-115.484 2951,-94 2956.86,-92.9367 2962.94,-91.3777 2968.83,-89.615"/>
<polygon fill="midnightblue" stroke="midnightblue" points="2970.03,-92.906 2978.48,-86.5077 2967.88,-86.2433 2970.03,-92.906"/>
</g>
<!-- Node19 -->
<g id="node52" class="node"><title>Node19</title>
<a xlink:href="join__generic_8hpp.html" target="_top" xlink:title="tlx/string/join_generic.hpp">
<polygon fill="none" stroke="black" points="3314,-65.5 3314,-86.5 3442,-86.5 3442,-65.5 3314,-65.5"/>
<text text-anchor="middle" x="3378" y="-73.5" font-family="Helvetica,sans-Serif" font-size="10.00">tlx/string/join_generic.hpp</text>
</a>
</g>
<!-- Node1&#45;&gt;Node19 -->
<g id="edge66" class="edge"><title>Node1&#45;&gt;Node19</title>
<path fill="none" stroke="midnightblue" d="M1755.77,-140.055C2023.01,-135.507 3149.28,-115.231 3305,-94 3313.83,-92.7957 3323.15,-90.9528 3332.06,-88.8978"/>
<polygon fill="midnightblue" stroke="midnightblue" points="3333.01,-92.2689 3341.9,-86.5103 3331.36,-85.4662 3333.01,-92.2689"/>
</g>
<!-- Node21 -->
<g id="node57" class="node"><title>Node21</title>
<a xlink:href="less__icase_8hpp.html" target="_top" xlink:title="tlx/string/less_icase.hpp">
<polygon fill="none" stroke="black" points="1402,-65.5 1402,-86.5 1524,-86.5 1524,-65.5 1402,-65.5"/>
<text text-anchor="middle" x="1463" y="-73.5" font-family="Helvetica,sans-Serif" font-size="10.00">tlx/string/less_icase.hpp</text>
</a>
</g>
<!-- Node1&#45;&gt;Node21 -->
<g id="edge72" class="edge"><title>Node1&#45;&gt;Node21</title>
<path fill="none" stroke="midnightblue" d="M1660.82,-130.484C1619.95,-119.227 1555.02,-101.345 1510.79,-89.1617"/>
<polygon fill="midnightblue" stroke="midnightblue" points="1511.7,-85.7816 1501.12,-86.5005 1509.84,-92.5303 1511.7,-85.7816"/>
</g>
<!-- Node22 -->
<g id="node60" class="node"><title>Node22</title>
<a xlink:href="pad_8hpp.html" target="_top" xlink:title="tlx/string/pad.hpp">
<polygon fill="none" stroke="black" points="1542,-65.5 1542,-86.5 1634,-86.5 1634,-65.5 1542,-65.5"/>
<text text-anchor="middle" x="1588" y="-73.5" font-family="Helvetica,sans-Serif" font-size="10.00">tlx/string/pad.hpp</text>
</a>
</g>
<!-- Node1&#45;&gt;Node22 -->
<g id="edge76" class="edge"><title>Node1&#45;&gt;Node22</title>
<path fill="none" stroke="midnightblue" d="M1680.67,-130.267C1662.73,-119.76 1635.2,-103.637 1614.8,-91.6924"/>
<polygon fill="midnightblue" stroke="midnightblue" points="1616.39,-88.5667 1605.99,-86.5337 1612.85,-94.6072 1616.39,-88.5667"/>
</g>
<!-- Node23 -->
<g id="node63" class="node"><title>Node23</title>
<a xlink:href="parse__si__iec__units_8hpp.html" target="_top" xlink:title="tlx/string/parse_si\l_iec_units.hpp">
<polygon fill="none" stroke="black" points="1652,-59 1652,-93 1746,-93 1746,-59 1652,-59"/>
<text text-anchor="start" x="1660" y="-80" font-family="Helvetica,sans-Serif" font-size="10.00">tlx/string/parse_si</text>
<text text-anchor="middle" x="1699" y="-67" font-family="Helvetica,sans-Serif" font-size="10.00">_iec_units.hpp</text>
</a>
</g>
<!-- Node1&#45;&gt;Node23 -->
<g id="edge80" class="edge"><title>Node1&#45;&gt;Node23</title>
<path fill="none" stroke="midnightblue" d="M1699,-130.267C1699,-122.931 1699,-112.857 1699,-103.38"/>
<polygon fill="midnightblue" stroke="midnightblue" points="1702.5,-103.11 1699,-93.1099 1695.5,-103.11 1702.5,-103.11"/>
</g>
<!-- Node24 -->
<g id="node66" class="node"><title>Node24</title>
<a xlink:href="replace_8hpp.html" target="_top" xlink:title="tlx/string/replace.hpp">
<polygon fill="none" stroke="black" points="1763.5,-65.5 1763.5,-86.5 1870.5,-86.5 1870.5,-65.5 1763.5,-65.5"/>
<text text-anchor="middle" x="1817" y="-73.5" font-family="Helvetica,sans-Serif" font-size="10.00">tlx/string/replace.hpp</text>
</a>
</g>
<!-- Node1&#45;&gt;Node24 -->
<g id="edge84" class="edge"><title>Node1&#45;&gt;Node24</title>
<path fill="none" stroke="midnightblue" d="M1718.22,-130.412C1737.42,-119.836 1767.14,-103.465 1788.97,-91.4408"/>
<polygon fill="midnightblue" stroke="midnightblue" points="1790.72,-94.4741 1797.79,-86.5835 1787.34,-88.3428 1790.72,-94.4741"/>
</g>
<!-- Node25 -->
<g id="node69" class="node"><title>Node25</title>
<a xlink:href="split_8hpp.html" target="_top" xlink:title="tlx/string/split.hpp">
<polygon fill="none" stroke="black" points="3068,-65.5 3068,-86.5 3162,-86.5 3162,-65.5 3068,-65.5"/>
<text text-anchor="middle" x="3115" y="-73.5" font-family="Helvetica,sans-Serif" font-size="10.00">tlx/string/split.hpp</text>
</a>
</g>
<!-- Node1&#45;&gt;Node25 -->
<g id="edge88" class="edge"><title>Node1&#45;&gt;Node25</title>
<path fill="none" stroke="midnightblue" d="M1755.71,-139.964C1996.72,-135.438 2929.47,-116.605 3059,-94 3065.21,-92.917 3071.67,-91.3108 3077.91,-89.4964"/>
<polygon fill="midnightblue" stroke="midnightblue" points="3078.96,-92.8361 3087.47,-86.519 3076.88,-86.1532 3078.96,-92.8361"/>
</g>
<!-- Node26 -->
<g id="node73" class="node"><title>Node26</title>
<a xlink:href="split__words_8hpp.html" target="_top" xlink:title="tlx/string/split_words.hpp">
<polygon fill="none" stroke="black" points="2687.5,-65.5 2687.5,-86.5 2812.5,-86.5 2812.5,-65.5 2687.5,-65.5"/>
<text text-anchor="middle" x="2750" y="-73.5" font-family="Helvetica,sans-Serif" font-size="10.00">tlx/string/split_words.hpp</text>
</a>
</g>
<!-- Node1&#45;&gt;Node26 -->
<g id="edge94" class="edge"><title>Node1&#45;&gt;Node26</title>
<path fill="none" stroke="midnightblue" d="M1755.56,-139.777C1936.35,-135.634 2498.95,-120.864 2679,-94 2687.23,-92.7727 2695.88,-90.9975 2704.21,-89.0345"/>
<polygon fill="midnightblue" stroke="midnightblue" points="2705.3,-92.372 2714.16,-86.5713 2703.62,-85.5771 2705.3,-92.372"/>
</g>
<!-- Node27 -->
<g id="node77" class="node"><title>Node27</title>
<a xlink:href="starts__with_8hpp.html" target="_top" xlink:title="tlx/string/starts_with.hpp">
<polygon fill="none" stroke="black" points="1888,-65.5 1888,-86.5 2012,-86.5 2012,-65.5 1888,-65.5"/>
<text text-anchor="middle" x="1950" y="-73.5" font-family="Helvetica,sans-Serif" font-size="10.00">tlx/string/starts_with.hpp</text>
</a>
</g>
<!-- Node1&#45;&gt;Node27 -->
<g id="edge100" class="edge"><title>Node1&#45;&gt;Node27</title>
<path fill="none" stroke="midnightblue" d="M1739.61,-130.484C1783.26,-119.18 1852.71,-101.195 1899.77,-89.0085"/>
<polygon fill="midnightblue" stroke="midnightblue" points="1900.65,-92.3958 1909.45,-86.5005 1898.89,-85.6193 1900.65,-92.3958"/>
</g>
<!-- Node28 -->
<g id="node80" class="node"><title>Node28</title>
<a xlink:href="to__lower_8hpp.html" target="_top" xlink:title="tlx/string/to_lower.hpp">
<polygon fill="none" stroke="black" points="2029.5,-65.5 2029.5,-86.5 2142.5,-86.5 2142.5,-65.5 2029.5,-65.5"/>
<text text-anchor="middle" x="2086" y="-73.5" font-family="Helvetica,sans-Serif" font-size="10.00">tlx/string/to_lower.hpp</text>
</a>
</g>
<!-- Node1&#45;&gt;Node28 -->
<g id="edge104" class="edge"><title>Node1&#45;&gt;Node28</title>
<path fill="none" stroke="midnightblue" d="M1755.51,-134.924C1820.11,-127.476 1928.82,-113.412 2021,-94 2027.62,-92.6058 2034.56,-90.924 2041.35,-89.1554"/>
<polygon fill="midnightblue" stroke="midnightblue" points="2042.37,-92.5053 2051.11,-86.5256 2040.55,-85.746 2042.37,-92.5053"/>
</g>
<!-- Node29 -->
<g id="node83" class="node"><title>Node29</title>
<a xlink:href="to__upper_8hpp.html" target="_top" xlink:title="tlx/string/to_upper.hpp">
<polygon fill="none" stroke="black" points="2159.5,-65.5 2159.5,-86.5 2272.5,-86.5 2272.5,-65.5 2159.5,-65.5"/>
<text text-anchor="middle" x="2216" y="-73.5" font-family="Helvetica,sans-Serif" font-size="10.00">tlx/string/to_upper.hpp</text>
</a>
</g>
<!-- Node1&#45;&gt;Node29 -->
<g id="edge108" class="edge"><title>Node1&#45;&gt;Node29</title>
<path fill="none" stroke="midnightblue" d="M1755.81,-138.135C1841.91,-133.11 2010.3,-120.605 2151,-94 2157.88,-92.6991 2165.09,-91.0238 2172.11,-89.2201"/>
<polygon fill="midnightblue" stroke="midnightblue" points="2173.43,-92.4888 2182.18,-86.5141 2171.61,-85.7285 2173.43,-92.4888"/>
</g>
<!-- Node30 -->
<g id="node86" class="node"><title>Node30</title>
<a xlink:href="trim_8hpp.html" target="_top" xlink:title="tlx/string/trim.hpp">
<polygon fill="none" stroke="black" points="2290,-65.5 2290,-86.5 2382,-86.5 2382,-65.5 2290,-65.5"/>
<text text-anchor="middle" x="2336" y="-73.5" font-family="Helvetica,sans-Serif" font-size="10.00">tlx/string/trim.hpp</text>
</a>
</g>
<!-- Node1&#45;&gt;Node30 -->
<g id="edge112" class="edge"><title>Node1&#45;&gt;Node30</title>
<path fill="none" stroke="midnightblue" d="M1755.63,-138.131C1881.55,-131.473 2181.49,-114.009 2281,-94 2286.74,-92.8454 2292.72,-91.2832 2298.53,-89.5589"/>
<polygon fill="midnightblue" stroke="midnightblue" points="2299.59,-92.8935 2308.08,-86.5475 2297.49,-86.2178 2299.59,-92.8935"/>
</g>
<!-- Node31 -->
<g id="node89" class="node"><title>Node31</title>
<a xlink:href="union__words_8hpp.html" target="_top" xlink:title="tlx/string/union_words.hpp">
<polygon fill="none" stroke="black" points="2399.5,-65.5 2399.5,-86.5 2530.5,-86.5 2530.5,-65.5 2399.5,-65.5"/>
<text text-anchor="middle" x="2465" y="-73.5" font-family="Helvetica,sans-Serif" font-size="10.00">tlx/string/union_words.hpp</text>
</a>
</g>
<!-- Node1&#45;&gt;Node31 -->
<g id="edge116" class="edge"><title>Node1&#45;&gt;Node31</title>
<path fill="none" stroke="midnightblue" d="M1755.67,-138.402C1898.2,-131.667 2268.95,-112.848 2391,-94 2399.55,-92.6802 2408.56,-90.8598 2417.24,-88.8808"/>
<polygon fill="midnightblue" stroke="midnightblue" points="2418.3,-92.2242 2427.22,-86.5052 2416.68,-85.4142 2418.3,-92.2242"/>
</g>
<!-- Node32 -->
<g id="node92" class="node"><title>Node32</title>
<a xlink:href="word__wrap_8hpp.html" target="_top" xlink:title="tlx/string/word_wrap.hpp">
<polygon fill="none" stroke="black" points="2547.5,-65.5 2547.5,-86.5 2670.5,-86.5 2670.5,-65.5 2547.5,-65.5"/>
<text text-anchor="middle" x="2609" y="-73.5" font-family="Helvetica,sans-Serif" font-size="10.00">tlx/string/word_wrap.hpp</text>
</a>
</g>
<!-- Node1&#45;&gt;Node32 -->
<g id="edge120" class="edge"><title>Node1&#45;&gt;Node32</title>
<path fill="none" stroke="midnightblue" d="M1755.65,-139.278C1918.73,-134.09 2387.36,-117.507 2539,-94 2547.11,-92.7428 2555.65,-90.953 2563.86,-88.9848"/>
<polygon fill="midnightblue" stroke="midnightblue" points="2564.82,-92.3514 2573.67,-86.5195 2563.12,-85.5625 2564.82,-92.3514"/>
</g>
<!-- Node3 -->
<g id="node5" class="node"><title>Node3</title>
<polygon fill="none" stroke="#bfbfbf" points="1678.5,-0.5 1678.5,-21.5 1719.5,-21.5 1719.5,-0.5 1678.5,-0.5"/>
<text text-anchor="middle" x="1699" y="-8.5" font-family="Helvetica,sans-Serif" font-size="10.00">string</text>
</g>
<!-- Node2&#45;&gt;Node3 -->
<g id="edge4" class="edge"><title>Node2&#45;&gt;Node3</title>
<path fill="none" stroke="midnightblue" d="M83.5577,-65.4663C93.4685,-62.5001 104.592,-59.6381 115,-58 273.697,-33.0227 1461.41,-14.4982 1668.31,-11.4439"/>
<polygon fill="midnightblue" stroke="midnightblue" points="1668.51,-14.9414 1678.46,-11.2949 1668.41,-7.94215 1668.51,-14.9414"/>
</g>
<!-- Node4&#45;&gt;Node3 -->
<g id="edge8" class="edge"><title>Node4&#45;&gt;Node3</title>
<path fill="none" stroke="midnightblue" d="M218.741,-59.6878C221.516,-59.0419 224.283,-58.4704 227,-58 373.576,-32.6192 1470.1,-14.5435 1668.33,-11.4657"/>
<polygon fill="midnightblue" stroke="midnightblue" points="1668.4,-14.9651 1678.35,-11.3111 1668.29,-7.96594 1668.4,-14.9651"/>
</g>
<!-- Node5&#45;&gt;Node3 -->
<g id="edge12" class="edge"><title>Node5&#45;&gt;Node3</title>
<path fill="none" stroke="midnightblue" d="M324.407,-65.4136C334.715,-62.4832 346.237,-59.6551 357,-58 621.91,-17.2633 1493.59,-11.7882 1668.34,-11.0956"/>
<polygon fill="midnightblue" stroke="midnightblue" points="1668.4,-14.5955 1678.39,-11.0581 1668.37,-7.59551 1668.4,-14.5955"/>
</g>
<!-- Node6&#45;&gt;Node3 -->
<g id="edge16" class="edge"><title>Node6&#45;&gt;Node3</title>
<path fill="none" stroke="midnightblue" d="M460.127,-59.8541C463.109,-59.1433 466.084,-58.5144 469,-58 590.163,-36.6278 1488.73,-15.6727 1667.95,-11.68"/>
<polygon fill="midnightblue" stroke="midnightblue" points="1668.1,-15.1776 1678.02,-11.4567 1667.95,-8.17931 1668.1,-15.1776"/>
</g>
<!-- Node7&#45;&gt;Node3 -->
<g id="edge20" class="edge"><title>Node7&#45;&gt;Node3</title>
<path fill="none" stroke="midnightblue" d="M572.45,-65.4807C583.395,-62.5535 595.614,-59.7103 607,-58 819.805,-26.0339 1512.68,-13.8176 1667.94,-11.4471"/>
<polygon fill="midnightblue" stroke="midnightblue" points="1668.23,-14.9433 1678.17,-11.2933 1668.12,-7.94405 1668.23,-14.9433"/>
</g>
<!-- Node8&#45;&gt;Node3 -->
<g id="edge24" class="edge"><title>Node8&#45;&gt;Node3</title>
<path fill="none" stroke="midnightblue" d="M716.864,-65.4498C728.349,-62.5586 741.118,-59.7435 753,-58 935.747,-31.1843 1526.24,-15.239 1668.13,-11.7356"/>
<polygon fill="midnightblue" stroke="midnightblue" points="1668.38,-15.2306 1678.29,-11.4871 1668.21,-8.23269 1668.38,-15.2306"/>
</g>
<!-- Node9&#45;&gt;Node3 -->
<g id="edge28" class="edge"><title>Node9&#45;&gt;Node3</title>
<path fill="none" stroke="midnightblue" d="M852.278,-65.4726C862.659,-62.5823 874.216,-59.762 885,-58 1040.09,-32.6591 1538.46,-15.9207 1668,-11.9246"/>
<polygon fill="midnightblue" stroke="midnightblue" points="1668.48,-15.4116 1678.36,-11.6077 1668.26,-8.41487 1668.48,-15.4116"/>
</g>
<!-- Node10&#45;&gt;Node3 -->
<g id="edge32" class="edge"><title>Node10&#45;&gt;Node3</title>
<path fill="none" stroke="midnightblue" d="M997.161,-65.4203C1008.61,-62.6 1021.24,-59.8316 1033,-58 1275.89,-20.1635 1573.42,-12.7609 1668.36,-11.3345"/>
<polygon fill="midnightblue" stroke="midnightblue" points="1668.47,-14.8334 1678.42,-11.1948 1668.37,-7.83408 1668.47,-14.8334"/>
</g>
<!-- Node11&#45;&gt;Node3 -->
<g id="edge36" class="edge"><title>Node11&#45;&gt;Node3</title>
<path fill="none" stroke="midnightblue" d="M1139.45,-65.4318C1150.18,-62.6464 1161.99,-59.8938 1173,-58 1359.35,-25.9345 1586.83,-15.03 1668.23,-12.0024"/>
<polygon fill="midnightblue" stroke="midnightblue" points="1668.42,-15.4978 1678.29,-11.6411 1668.17,-8.50229 1668.42,-15.4978"/>
</g>
<!-- Node12&#45;&gt;Node3 -->
<g id="edge40" class="edge"><title>Node12&#45;&gt;Node3</title>
<path fill="none" stroke="midnightblue" d="M1268.77,-60.08C1271.54,-59.3132 1274.3,-58.6102 1277,-58 1420.68,-25.557 1597.15,-15.126 1667.7,-12.1099"/>
<polygon fill="midnightblue" stroke="midnightblue" points="1668.24,-15.5909 1678.09,-11.6873 1667.96,-8.59664 1668.24,-15.5909"/>
</g>
<!-- Node13&#45;&gt;Node3 -->
<g id="edge44" class="edge"><title>Node13&#45;&gt;Node3</title>
<path fill="none" stroke="midnightblue" d="M1384.22,-60.1776C1387.18,-59.397 1390.12,-58.6634 1393,-58 1492.43,-35.0696 1612.67,-20.3015 1668.18,-14.2"/>
<polygon fill="midnightblue" stroke="midnightblue" points="1668.82,-17.6505 1678.39,-13.0954 1668.07,-10.6911 1668.82,-17.6505"/>
</g>
<!-- Node14&#45;&gt;Node3 -->
<g id="edge50" class="edge"><title>Node14&#45;&gt;Node3</title>
<path fill="none" stroke="midnightblue" d="M3204.92,-65.4932C3194.21,-62.5284 3182.2,-59.6604 3171,-58 3023.85,-36.1836 1927.8,-15.1919 1729.66,-11.5542"/>
<polygon fill="midnightblue" stroke="midnightblue" points="1729.71,-8.05457 1719.65,-11.3711 1729.58,-15.0534 1729.71,-8.05457"/>
</g>
<!-- Node15 -->
<g id="node39" class="node"><title>Node15</title>
<polygon fill="none" stroke="#bfbfbf" points="3215,-0.5 3215,-21.5 3261,-21.5 3261,-0.5 3215,-0.5"/>
<text text-anchor="middle" x="3238" y="-8.5" font-family="Helvetica,sans-Serif" font-size="10.00">cstdint</text>
</g>
<!-- Node14&#45;&gt;Node15 -->
<g id="edge48" class="edge"><title>Node14&#45;&gt;Node15</title>
<path fill="none" stroke="midnightblue" d="M3238,-65.2666C3238,-56.1799 3238,-42.8919 3238,-31.7395"/>
<polygon fill="midnightblue" stroke="midnightblue" points="3241.5,-31.5337 3238,-21.5337 3234.5,-31.5337 3241.5,-31.5337"/>
</g>
<!-- Node16 -->
<g id="node42" class="node"><title>Node16</title>
<polygon fill="none" stroke="#bfbfbf" points="2983,-0.5 2983,-21.5 3027,-21.5 3027,-0.5 2983,-0.5"/>
<text text-anchor="middle" x="3005" y="-8.5" font-family="Helvetica,sans-Serif" font-size="10.00">vector</text>
</g>
<!-- Node14&#45;&gt;Node16 -->
<g id="edge52" class="edge"><title>Node14&#45;&gt;Node16</title>
<path fill="none" stroke="midnightblue" d="M3200.31,-65.4844C3154.97,-52.8376 3079.67,-31.8299 3037.02,-19.9336"/>
<polygon fill="midnightblue" stroke="midnightblue" points="3037.75,-16.5025 3027.18,-17.1866 3035.87,-23.2451 3037.75,-16.5025"/>
</g>
<!-- Node17&#45;&gt;Node3 -->
<g id="edge56" class="edge"><title>Node17&#45;&gt;Node3</title>
<path fill="none" stroke="midnightblue" d="M2853.59,-65.4585C2843.28,-62.5302 2831.76,-59.692 2821,-58 2602.12,-23.5731 1887.43,-13.2287 1729.9,-11.3417"/>
<polygon fill="midnightblue" stroke="midnightblue" points="1729.58,-7.83778 1719.54,-11.2203 1729.49,-14.8373 1729.58,-7.83778"/>
</g>
<!-- Node17&#45;&gt;Node16 -->
<g id="edge58" class="edge"><title>Node17&#45;&gt;Node16</title>
<path fill="none" stroke="midnightblue" d="M2905.38,-65.412C2924.75,-54.8357 2954.72,-38.4645 2976.73,-26.4408"/>
<polygon fill="midnightblue" stroke="midnightblue" points="2978.53,-29.4489 2985.62,-21.5835 2975.17,-23.3056 2978.53,-29.4489"/>
</g>
<!-- Node18&#45;&gt;Node3 -->
<g id="edge62" class="edge"><title>Node18&#45;&gt;Node3</title>
<path fill="none" stroke="midnightblue" d="M2978.48,-65.4923C2969.85,-62.5275 2960.14,-59.6597 2951,-58 2827.65,-35.6009 1911.11,-15.4283 1730.03,-11.6375"/>
<polygon fill="midnightblue" stroke="midnightblue" points="1729.93,-8.13489 1719.86,-11.4258 1729.79,-15.1334 1729.93,-8.13489"/>
</g>
<!-- Node18&#45;&gt;Node16 -->
<g id="edge64" class="edge"><title>Node18&#45;&gt;Node16</title>
<path fill="none" stroke="midnightblue" d="M3005,-65.2666C3005,-56.1799 3005,-42.8919 3005,-31.7395"/>
<polygon fill="midnightblue" stroke="midnightblue" points="3008.5,-31.5337 3005,-21.5337 3001.5,-31.5337 3008.5,-31.5337"/>
</g>
<!-- Node19&#45;&gt;Node3 -->
<g id="edge70" class="edge"><title>Node19&#45;&gt;Node3</title>
<path fill="none" stroke="midnightblue" d="M3341.9,-65.4897C3330.23,-62.5247 3317.16,-59.6576 3305,-58 3143.53,-35.9849 1938.54,-14.9972 1729.78,-11.5069"/>
<polygon fill="midnightblue" stroke="midnightblue" points="1729.6,-8.0035 1719.54,-11.3364 1729.48,-15.0025 1729.6,-8.0035"/>
</g>
<!-- Node20 -->
<g id="node54" class="node"><title>Node20</title>
<polygon fill="none" stroke="#bfbfbf" points="3352,-0.5 3352,-21.5 3404,-21.5 3404,-0.5 3352,-0.5"/>
<text text-anchor="middle" x="3378" y="-8.5" font-family="Helvetica,sans-Serif" font-size="10.00">sstream</text>
</g>
<!-- Node19&#45;&gt;Node20 -->
<g id="edge68" class="edge"><title>Node19&#45;&gt;Node20</title>
<path fill="none" stroke="midnightblue" d="M3378,-65.2666C3378,-56.1799 3378,-42.8919 3378,-31.7395"/>
<polygon fill="midnightblue" stroke="midnightblue" points="3381.5,-31.5337 3378,-21.5337 3374.5,-31.5337 3381.5,-31.5337"/>
</g>
<!-- Node21&#45;&gt;Node3 -->
<g id="edge74" class="edge"><title>Node21&#45;&gt;Node3</title>
<path fill="none" stroke="midnightblue" d="M1501.18,-65.4844C1547.82,-52.6385 1625.78,-31.1661 1668.58,-19.3784"/>
<polygon fill="midnightblue" stroke="midnightblue" points="1669.7,-22.7002 1678.41,-16.6704 1667.84,-15.9515 1669.7,-22.7002"/>
</g>
<!-- Node22&#45;&gt;Node3 -->
<g id="edge78" class="edge"><title>Node22&#45;&gt;Node3</title>
<path fill="none" stroke="midnightblue" d="M1606.33,-65.2666C1624.27,-54.7601 1651.8,-38.6369 1672.2,-26.6924"/>
<polygon fill="midnightblue" stroke="midnightblue" points="1674.15,-29.6072 1681.01,-21.5337 1670.61,-23.5667 1674.15,-29.6072"/>
</g>
<!-- Node23&#45;&gt;Node3 -->
<g id="edge82" class="edge"><title>Node23&#45;&gt;Node3</title>
<path fill="none" stroke="midnightblue" d="M1699,-58.922C1699,-50.6704 1699,-40.6922 1699,-31.9818"/>
<polygon fill="midnightblue" stroke="midnightblue" points="1702.5,-31.8521 1699,-21.8521 1695.5,-31.8521 1702.5,-31.8521"/>
</g>
<!-- Node24&#45;&gt;Node3 -->
<g id="edge86" class="edge"><title>Node24&#45;&gt;Node3</title>
<path fill="none" stroke="midnightblue" d="M1797.78,-65.412C1778.58,-54.8357 1748.86,-38.4645 1727.03,-26.4408"/>
<polygon fill="midnightblue" stroke="midnightblue" points="1728.66,-23.3428 1718.21,-21.5835 1725.28,-29.4741 1728.66,-23.3428"/>
</g>
<!-- Node25&#45;&gt;Node3 -->
<g id="edge90" class="edge"><title>Node25&#45;&gt;Node3</title>
<path fill="none" stroke="midnightblue" d="M3087.47,-65.481C3078.52,-62.5155 3068.46,-59.6503 3059,-58 2924.16,-34.4686 1918.9,-15.0243 1729.67,-11.5518"/>
<polygon fill="midnightblue" stroke="midnightblue" points="1729.64,-8.0509 1719.58,-11.3677 1729.51,-15.0497 1729.64,-8.0509"/>
</g>
<!-- Node25&#45;&gt;Node16 -->
<g id="edge92" class="edge"><title>Node25&#45;&gt;Node16</title>
<path fill="none" stroke="midnightblue" d="M3096.84,-65.2666C3079.06,-54.7601 3051.77,-38.6369 3031.56,-26.6924"/>
<polygon fill="midnightblue" stroke="midnightblue" points="3033.22,-23.6078 3022.83,-21.5337 3029.65,-29.6343 3033.22,-23.6078"/>
</g>
<!-- Node26&#45;&gt;Node3 -->
<g id="edge96" class="edge"><title>Node26&#45;&gt;Node3</title>
<path fill="none" stroke="midnightblue" d="M2714.16,-65.4287C2702.99,-62.5366 2690.57,-59.7264 2679,-58 2489.36,-29.7057 1875.34,-14.8274 1730.03,-11.651"/>
<polygon fill="midnightblue" stroke="midnightblue" points="1729.72,-8.14351 1719.65,-11.4265 1729.57,-15.1419 1729.72,-8.14351"/>
</g>
<!-- Node26&#45;&gt;Node16 -->
<g id="edge98" class="edge"><title>Node26&#45;&gt;Node16</title>
<path fill="none" stroke="midnightblue" d="M2791.25,-65.4844C2841.97,-52.557 2926.96,-30.8934 2973.01,-19.1553"/>
<polygon fill="midnightblue" stroke="midnightblue" points="2973.93,-22.5321 2982.75,-16.6704 2972.2,-15.749 2973.93,-22.5321"/>
</g>
<!-- Node27&#45;&gt;Node3 -->
<g id="edge102" class="edge"><title>Node27&#45;&gt;Node3</title>
<path fill="none" stroke="midnightblue" d="M1909.39,-65.4844C1859.06,-52.4508 1774.44,-30.5369 1729.38,-18.8681"/>
<polygon fill="midnightblue" stroke="midnightblue" points="1730.17,-15.4556 1719.61,-16.3368 1728.41,-22.2321 1730.17,-15.4556"/>
</g>
<!-- Node28&#45;&gt;Node3 -->
<g id="edge106" class="edge"><title>Node28&#45;&gt;Node3</title>
<path fill="none" stroke="midnightblue" d="M2051.11,-65.4744C2041.42,-62.7873 2030.85,-60.075 2021,-58 1915.05,-35.6895 1787.27,-20.4427 1729.73,-14.1872"/>
<polygon fill="midnightblue" stroke="midnightblue" points="1729.82,-10.6768 1719.5,-13.0903 1729.07,-17.6369 1729.82,-10.6768"/>
</g>
<!-- Node29&#45;&gt;Node3 -->
<g id="edge110" class="edge"><title>Node29&#45;&gt;Node3</title>
<path fill="none" stroke="midnightblue" d="M2182.18,-65.4859C2172.22,-62.7018 2161.24,-59.9362 2151,-58 1994.68,-28.4415 1804.18,-16.2875 1730.33,-12.459"/>
<polygon fill="midnightblue" stroke="midnightblue" points="1730.07,-8.94124 1719.9,-11.934 1729.71,-15.9324 1730.07,-8.94124"/>
</g>
<!-- Node30&#45;&gt;Node3 -->
<g id="edge114" class="edge"><title>Node30&#45;&gt;Node3</title>
<path fill="none" stroke="midnightblue" d="M2308.08,-65.4525C2299.5,-62.5978 2289.96,-59.8023 2281,-58 2173.86,-36.4558 1834.32,-17.8612 1729.88,-12.5312"/>
<polygon fill="midnightblue" stroke="midnightblue" points="1729.86,-9.02573 1719.69,-12.0156 1729.5,-16.0168 1729.86,-9.02573"/>
</g>
<!-- Node31&#45;&gt;Node3 -->
<g id="edge118" class="edge"><title>Node31&#45;&gt;Node3</title>
<path fill="none" stroke="midnightblue" d="M2427.22,-65.4948C2415.68,-62.6415 2402.89,-59.8362 2391,-58 2260.6,-37.8626 1846.31,-17.7584 1729.77,-12.3889"/>
<polygon fill="midnightblue" stroke="midnightblue" points="1729.89,-8.89095 1719.74,-11.9295 1729.57,-15.8836 1729.89,-8.89095"/>
</g>
<!-- Node32&#45;&gt;Node3 -->
<g id="edge122" class="edge"><title>Node32&#45;&gt;Node3</title>
<path fill="none" stroke="midnightblue" d="M2573.67,-65.4805C2562.66,-62.5905 2550.41,-59.7684 2539,-58 2378.25,-33.0816 1861.33,-15.9446 1729.72,-11.9121"/>
<polygon fill="midnightblue" stroke="midnightblue" points="1729.65,-8.40854 1719.55,-11.6032 1729.43,-15.4053 1729.65,-8.40854"/>
</g>
</g>
</svg>
