<?xml version="1.0" encoding="UTF-8" standalone="no"?>
<!DOCTYPE svg PUBLIC "-//W3C//DTD SVG 1.1//EN"
 "http://www.w3.org/Graphics/SVG/1.1/DTD/svg11.dtd">
<!-- Generated by graphviz version 2.36.0 (20140111.2315)
 -->
<!-- Title: extlib/tlx/tlx/sort/strings/radix_sort.hpp Pages: 1 -->
<svg width="785pt" height="356pt"
 viewBox="0.00 0.00 785.00 356.00" xmlns="http://www.w3.org/2000/svg" xmlns:xlink="http://www.w3.org/1999/xlink">
<g id="graph0" class="graph" transform="scale(1 1) rotate(0) translate(4 352)">
<title>extlib/tlx/tlx/sort/strings/radix_sort.hpp</title>
<!-- Node1 -->
<g id="node1" class="node"><title>Node1</title>
<polygon fill="#bfbfbf" stroke="black" points="400.5,-317 400.5,-347 513.5,-347 513.5,-317 400.5,-317"/>
<text text-anchor="start" x="408.5" y="-335" font-family="Helvetica,sans-Serif" font-size="10.00">extlib/tlx/tlx/sort</text>
<text text-anchor="middle" x="457" y="-324" font-family="Helvetica,sans-Serif" font-size="10.00">/strings/radix_sort.hpp</text>
</g>
<!-- Node2 -->
<g id="node2" class="node"><title>Node2</title>
<g id="a_node2"><a xlink:href="container_2simple__vector_8hpp.html" target="_top" xlink:title="tlx/container/simple\l_vector.hpp">
<polygon fill="none" stroke="black" points="69.5,-249 69.5,-279 170.5,-279 170.5,-249 69.5,-249"/>
<text text-anchor="start" x="77.5" y="-267" font-family="Helvetica,sans-Serif" font-size="10.00">tlx/container/simple</text>
<text text-anchor="middle" x="120" y="-256" font-family="Helvetica,sans-Serif" font-size="10.00">_vector.hpp</text>
</a>
</g>
</g>
<!-- Node1&#45;&gt;Node2 -->
<g id="edge1" class="edge"><title>Node1&#45;&gt;Node2</title>
<path fill="none" stroke="midnightblue" d="M400.214,-319.879C339.355,-307.96 243.109,-289.11 180.76,-276.9"/>
<polygon fill="midnightblue" stroke="midnightblue" points="181.16,-273.412 170.674,-274.924 179.815,-280.281 181.16,-273.412"/>
</g>
<!-- Node5 -->
<g id="node5" class="node"><title>Node5</title>
<polygon fill="none" stroke="#bfbfbf" points="125,-0.5 125,-19.5 165,-19.5 165,-0.5 125,-0.5"/>
<text text-anchor="middle" x="145" y="-7.5" font-family="Helvetica,sans-Serif" font-size="10.00">utility</text>
</g>
<!-- Node1&#45;&gt;Node5 -->
<g id="edge28" class="edge"><title>Node1&#45;&gt;Node5</title>
<path fill="none" stroke="midnightblue" d="M400.495,-329.213C304.934,-325.299 116.299,-313.466 60,-280 20.8728,-256.741 0,-242.518 0,-197 0,-197 0,-197 0,-127 0,-68.5032 72.8479,-34.6533 115.274,-19.8995"/>
<polygon fill="midnightblue" stroke="midnightblue" points="116.455,-23.1953 124.838,-16.7165 114.245,-16.5535 116.455,-23.1953"/>
</g>
<!-- Node6 -->
<g id="node6" class="node"><title>Node6</title>
<g id="a_node6"><a xlink:href="likely_8hpp.html" target="_top" xlink:title="tlx/define/likely.hpp">
<polygon fill="none" stroke="black" points="442.5,-118.5 442.5,-137.5 543.5,-137.5 543.5,-118.5 442.5,-118.5"/>
<text text-anchor="middle" x="493" y="-125.5" font-family="Helvetica,sans-Serif" font-size="10.00">tlx/define/likely.hpp</text>
</a>
</g>
</g>
<!-- Node1&#45;&gt;Node6 -->
<g id="edge5" class="edge"><title>Node1&#45;&gt;Node6</title>
<path fill="none" stroke="midnightblue" d="M461.397,-316.825C464.427,-306.655 468.367,-292.582 471,-280 480.873,-232.824 487.824,-176.437 491.02,-147.759"/>
<polygon fill="midnightblue" stroke="midnightblue" points="494.525,-147.898 492.125,-137.579 487.566,-147.143 494.525,-147.898"/>
</g>
<!-- Node7 -->
<g id="node7" class="node"><title>Node7</title>
<g id="a_node7"><a xlink:href="multikey__quicksort_8hpp.html" target="_top" xlink:title="tlx/sort/strings/multikey\l_quicksort.hpp">
<polygon fill="none" stroke="black" points="207.5,-249 207.5,-279 326.5,-279 326.5,-249 207.5,-249"/>
<text text-anchor="start" x="215.5" y="-267" font-family="Helvetica,sans-Serif" font-size="10.00">tlx/sort/strings/multikey</text>
<text text-anchor="middle" x="267" y="-256" font-family="Helvetica,sans-Serif" font-size="10.00">_quicksort.hpp</text>
</a>
</g>
</g>
<!-- Node1&#45;&gt;Node7 -->
<g id="edge6" class="edge"><title>Node1&#45;&gt;Node7</title>
<path fill="none" stroke="midnightblue" d="M416.24,-316.841C387.215,-306.759 348.031,-293.147 317.096,-282.402"/>
<polygon fill="midnightblue" stroke="midnightblue" points="317.961,-278.997 307.366,-279.022 315.664,-285.609 317.961,-278.997"/>
</g>
<!-- Node9 -->
<g id="node9" class="node"><title>Node9</title>
<g id="a_node9"><a xlink:href="string__set_8hpp.html" target="_top" xlink:title="tlx/sort/strings/string\l_set.hpp">
<polygon fill="none" stroke="black" points="317,-113 317,-143 423,-143 423,-113 317,-113"/>
<text text-anchor="start" x="325" y="-131" font-family="Helvetica,sans-Serif" font-size="10.00">tlx/sort/strings/string</text>
<text text-anchor="middle" x="370" y="-120" font-family="Helvetica,sans-Serif" font-size="10.00">_set.hpp</text>
</a>
</g>
</g>
<!-- Node1&#45;&gt;Node9 -->
<g id="edge26" class="edge"><title>Node1&#45;&gt;Node9</title>
<path fill="none" stroke="midnightblue" d="M458.544,-316.962C460.941,-288.866 462.887,-224.598 437,-180 429.677,-167.385 417.884,-156.856 406.218,-148.703"/>
<polygon fill="midnightblue" stroke="midnightblue" points="408.093,-145.747 397.812,-143.191 404.255,-151.601 408.093,-145.747"/>
</g>
<!-- Node14 -->
<g id="node14" class="node"><title>Node14</title>
<polygon fill="none" stroke="#bfbfbf" points="420,-0.5 420,-19.5 464,-19.5 464,-0.5 420,-0.5"/>
<text text-anchor="middle" x="442" y="-7.5" font-family="Helvetica,sans-Serif" font-size="10.00">vector</text>
</g>
<!-- Node1&#45;&gt;Node14 -->
<g id="edge29" class="edge"><title>Node1&#45;&gt;Node14</title>
<path fill="none" stroke="midnightblue" d="M513.642,-325.617C587.672,-315.107 708,-284.557 708,-197 708,-197 708,-197 708,-127 708,-94.2164 712.241,-78.071 688,-56 657.173,-27.9325 534.155,-16.6517 474.615,-12.767"/>
<polygon fill="midnightblue" stroke="midnightblue" points="474.471,-9.25143 464.273,-12.1254 474.037,-16.238 474.471,-9.25143"/>
</g>
<!-- Node19 -->
<g id="node19" class="node"><title>Node19</title>
<polygon fill="none" stroke="#bfbfbf" points="736.5,-254.5 736.5,-273.5 777.5,-273.5 777.5,-254.5 736.5,-254.5"/>
<text text-anchor="middle" x="757" y="-261.5" font-family="Helvetica,sans-Serif" font-size="10.00">stack</text>
</g>
<!-- Node1&#45;&gt;Node19 -->
<g id="edge27" class="edge"><title>Node1&#45;&gt;Node19</title>
<path fill="none" stroke="midnightblue" d="M513.69,-323.692C567.938,-315.859 651.675,-301.562 722,-280 724.489,-279.237 727.04,-278.354 729.575,-277.405"/>
<polygon fill="midnightblue" stroke="midnightblue" points="731.158,-280.541 739.111,-273.542 728.529,-274.053 731.158,-280.541"/>
</g>
<!-- Node3 -->
<g id="node3" class="node"><title>Node3</title>
<polygon fill="none" stroke="#bfbfbf" points="130,-186.5 130,-205.5 186,-205.5 186,-186.5 130,-186.5"/>
<text text-anchor="middle" x="158" y="-193.5" font-family="Helvetica,sans-Serif" font-size="10.00">algorithm</text>
</g>
<!-- Node2&#45;&gt;Node3 -->
<g id="edge2" class="edge"><title>Node2&#45;&gt;Node3</title>
<path fill="none" stroke="midnightblue" d="M128.245,-248.679C133.994,-238.694 141.702,-225.307 147.832,-214.66"/>
<polygon fill="midnightblue" stroke="midnightblue" points="150.961,-216.241 152.917,-205.828 144.894,-212.748 150.961,-216.241"/>
</g>
<!-- Node4 -->
<g id="node4" class="node"><title>Node4</title>
<polygon fill="none" stroke="#bfbfbf" points="28.5,-186.5 28.5,-205.5 73.5,-205.5 73.5,-186.5 28.5,-186.5"/>
<text text-anchor="middle" x="51" y="-193.5" font-family="Helvetica,sans-Serif" font-size="10.00">cstdlib</text>
</g>
<!-- Node2&#45;&gt;Node4 -->
<g id="edge3" class="edge"><title>Node2&#45;&gt;Node4</title>
<path fill="none" stroke="midnightblue" d="M105.028,-248.679C94.0564,-238.184 79.1559,-223.932 67.7818,-213.052"/>
<polygon fill="midnightblue" stroke="midnightblue" points="69.8753,-210.211 60.2296,-205.828 65.0367,-215.27 69.8753,-210.211"/>
</g>
<!-- Node2&#45;&gt;Node5 -->
<g id="edge4" class="edge"><title>Node2&#45;&gt;Node5</title>
<path fill="none" stroke="midnightblue" d="M119.419,-248.782C118.328,-214.993 117.196,-127.374 131,-56 132.728,-47.0633 135.598,-37.3955 138.292,-29.3198"/>
<polygon fill="midnightblue" stroke="midnightblue" points="141.618,-30.4108 141.619,-19.816 135.011,-28.0977 141.618,-30.4108"/>
</g>
<!-- Node7&#45;&gt;Node3 -->
<g id="edge23" class="edge"><title>Node7&#45;&gt;Node3</title>
<path fill="none" stroke="midnightblue" d="M243.617,-248.841C225.101,-237.63 199.38,-222.056 180.972,-210.91"/>
<polygon fill="midnightblue" stroke="midnightblue" points="182.705,-207.868 172.338,-205.682 179.08,-213.855 182.705,-207.868"/>
</g>
<!-- Node7&#45;&gt;Node5 -->
<g id="edge25" class="edge"><title>Node7&#45;&gt;Node5</title>
<path fill="none" stroke="midnightblue" d="M256.478,-248.695C249.374,-238.698 240.045,-224.885 233,-212 197.559,-147.178 165.312,-65.2143 151.759,-29.2829"/>
<polygon fill="midnightblue" stroke="midnightblue" points="154.95,-27.8218 148.171,-19.6796 148.393,-30.2721 154.95,-27.8218"/>
</g>
<!-- Node8 -->
<g id="node8" class="node"><title>Node8</title>
<g id="a_node8"><a xlink:href="insertion__sort_8hpp.html" target="_top" xlink:title="tlx/sort/strings/insertion\l_sort.hpp">
<polygon fill="none" stroke="black" points="309.5,-181 309.5,-211 428.5,-211 428.5,-181 309.5,-181"/>
<text text-anchor="start" x="317.5" y="-199" font-family="Helvetica,sans-Serif" font-size="10.00">tlx/sort/strings/insertion</text>
<text text-anchor="middle" x="369" y="-188" font-family="Helvetica,sans-Serif" font-size="10.00">_sort.hpp</text>
</a>
</g>
</g>
<!-- Node7&#45;&gt;Node8 -->
<g id="edge7" class="edge"><title>Node7&#45;&gt;Node8</title>
<path fill="none" stroke="midnightblue" d="M288.882,-248.841C303.402,-239.446 322.659,-226.985 338.655,-216.635"/>
<polygon fill="midnightblue" stroke="midnightblue" points="340.66,-219.506 347.155,-211.135 336.858,-213.629 340.66,-219.506"/>
</g>
<!-- Node18 -->
<g id="node18" class="node"><title>Node18</title>
<polygon fill="none" stroke="#bfbfbf" points="242.5,-186.5 242.5,-205.5 291.5,-205.5 291.5,-186.5 242.5,-186.5"/>
<text text-anchor="middle" x="267" y="-193.5" font-family="Helvetica,sans-Serif" font-size="10.00">cstddef</text>
</g>
<!-- Node7&#45;&gt;Node18 -->
<g id="edge24" class="edge"><title>Node7&#45;&gt;Node18</title>
<path fill="none" stroke="midnightblue" d="M267,-248.679C267,-239.101 267,-226.394 267,-215.977"/>
<polygon fill="midnightblue" stroke="midnightblue" points="270.5,-215.828 267,-205.828 263.5,-215.828 270.5,-215.828"/>
</g>
<!-- Node8&#45;&gt;Node6 -->
<g id="edge8" class="edge"><title>Node8&#45;&gt;Node6</title>
<path fill="none" stroke="midnightblue" d="M395.601,-180.841C416.953,-169.476 446.729,-153.628 467.723,-142.454"/>
<polygon fill="midnightblue" stroke="midnightblue" points="469.506,-145.47 476.689,-137.682 466.217,-139.291 469.506,-145.47"/>
</g>
<!-- Node8&#45;&gt;Node9 -->
<g id="edge9" class="edge"><title>Node8&#45;&gt;Node9</title>
<path fill="none" stroke="midnightblue" d="M369.217,-180.679C369.338,-172.722 369.491,-162.605 369.63,-153.436"/>
<polygon fill="midnightblue" stroke="midnightblue" points="373.131,-153.345 369.783,-143.293 366.132,-153.239 373.131,-153.345"/>
</g>
<!-- Node9&#45;&gt;Node5 -->
<g id="edge14" class="edge"><title>Node9&#45;&gt;Node5</title>
<path fill="none" stroke="midnightblue" d="M321.581,-112.896C294.418,-104.063 260.389,-91.429 232,-76 206.044,-61.8931 179.269,-40.7045 162.402,-26.3879"/>
<polygon fill="midnightblue" stroke="midnightblue" points="164.398,-23.4871 154.541,-19.6015 159.823,-28.7857 164.398,-23.4871"/>
</g>
<!-- Node10 -->
<g id="node10" class="node"><title>Node10</title>
<polygon fill="none" stroke="#bfbfbf" points="249.5,-56.5 249.5,-75.5 298.5,-75.5 298.5,-56.5 249.5,-56.5"/>
<text text-anchor="middle" x="274" y="-63.5" font-family="Helvetica,sans-Serif" font-size="10.00">cassert</text>
</g>
<!-- Node9&#45;&gt;Node10 -->
<g id="edge10" class="edge"><title>Node9&#45;&gt;Node10</title>
<path fill="none" stroke="midnightblue" d="M347.249,-112.781C331.913,-103.196 311.77,-90.6062 296.489,-81.0555"/>
<polygon fill="midnightblue" stroke="midnightblue" points="298.024,-77.8877 287.689,-75.5557 294.314,-83.8237 298.024,-77.8877"/>
</g>
<!-- Node11 -->
<g id="node11" class="node"><title>Node11</title>
<polygon fill="none" stroke="#bfbfbf" points="566,-0.5 566,-19.5 612,-19.5 612,-0.5 566,-0.5"/>
<text text-anchor="middle" x="589" y="-7.5" font-family="Helvetica,sans-Serif" font-size="10.00">cstdint</text>
</g>
<!-- Node9&#45;&gt;Node11 -->
<g id="edge11" class="edge"><title>Node9&#45;&gt;Node11</title>
<path fill="none" stroke="midnightblue" d="M423.274,-113.396C462.851,-102.686 512.971,-87.6711 531,-76 550.163,-63.5948 566.892,-43.222 577.395,-28.5894"/>
<polygon fill="midnightblue" stroke="midnightblue" points="580.562,-30.1624 583.361,-19.944 574.8,-26.1866 580.562,-30.1624"/>
</g>
<!-- Node12 -->
<g id="node12" class="node"><title>Node12</title>
<polygon fill="none" stroke="#bfbfbf" points="470,-56.5 470,-75.5 522,-75.5 522,-56.5 470,-56.5"/>
<text text-anchor="middle" x="496" y="-63.5" font-family="Helvetica,sans-Serif" font-size="10.00">memory</text>
</g>
<!-- Node9&#45;&gt;Node12 -->
<g id="edge12" class="edge"><title>Node9&#45;&gt;Node12</title>
<path fill="none" stroke="midnightblue" d="M399.541,-112.933C420.514,-102.946 448.457,-89.6397 468.867,-79.9205"/>
<polygon fill="midnightblue" stroke="midnightblue" points="470.416,-83.0594 477.94,-75.6 467.407,-76.7394 470.416,-83.0594"/>
</g>
<!-- Node13 -->
<g id="node13" class="node"><title>Node13</title>
<polygon fill="none" stroke="#bfbfbf" points="239.5,-0.5 239.5,-19.5 280.5,-19.5 280.5,-0.5 239.5,-0.5"/>
<text text-anchor="middle" x="260" y="-7.5" font-family="Helvetica,sans-Serif" font-size="10.00">string</text>
</g>
<!-- Node9&#45;&gt;Node13 -->
<g id="edge13" class="edge"><title>Node9&#45;&gt;Node13</title>
<path fill="none" stroke="midnightblue" d="M316.791,-120.427C288.971,-113.987 257.21,-101.238 240,-76 230.164,-61.5751 238.364,-42.1267 247.046,-28.2714"/>
<polygon fill="midnightblue" stroke="midnightblue" points="250.152,-29.9308 252.918,-19.7034 244.378,-25.9737 250.152,-29.9308"/>
</g>
<!-- Node9&#45;&gt;Node14 -->
<g id="edge15" class="edge"><title>Node9&#45;&gt;Node14</title>
<path fill="none" stroke="midnightblue" d="M388.421,-112.942C399.562,-103.57 413.255,-90.3657 422,-76 430.729,-61.66 435.931,-43.1975 438.832,-29.6157"/>
<polygon fill="midnightblue" stroke="midnightblue" points="442.315,-30.0316 440.753,-19.5526 435.44,-28.7185 442.315,-30.0316"/>
</g>
<!-- Node15 -->
<g id="node15" class="node"><title>Node15</title>
<g id="a_node15"><a xlink:href="logger_2core_8hpp.html" target="_top" xlink:title="tlx/logger/core.hpp">
<polygon fill="none" stroke="black" points="316.5,-56.5 316.5,-75.5 413.5,-75.5 413.5,-56.5 316.5,-56.5"/>
<text text-anchor="middle" x="365" y="-63.5" font-family="Helvetica,sans-Serif" font-size="10.00">tlx/logger/core.hpp</text>
</a>
</g>
</g>
<!-- Node9&#45;&gt;Node15 -->
<g id="edge16" class="edge"><title>Node9&#45;&gt;Node15</title>
<path fill="none" stroke="midnightblue" d="M368.815,-112.781C368.141,-104.691 367.288,-94.4617 366.56,-85.725"/>
<polygon fill="midnightblue" stroke="midnightblue" points="370.046,-85.4053 365.728,-75.7305 363.07,-85.9867 370.046,-85.4053"/>
</g>
<!-- Node17 -->
<g id="node17" class="node"><title>Node17</title>
<g id="a_node17"><a xlink:href="bswap_8hpp.html" target="_top" xlink:title="tlx/math/bswap.hpp">
<polygon fill="none" stroke="black" points="578,-56.5 578,-75.5 680,-75.5 680,-56.5 578,-56.5"/>
<text text-anchor="middle" x="629" y="-63.5" font-family="Helvetica,sans-Serif" font-size="10.00">tlx/math/bswap.hpp</text>
</a>
</g>
</g>
<!-- Node9&#45;&gt;Node17 -->
<g id="edge21" class="edge"><title>Node9&#45;&gt;Node17</title>
<path fill="none" stroke="midnightblue" d="M423.269,-114.285C426.561,-113.509 429.825,-112.742 433,-112 483.663,-100.153 541.762,-86.8493 581.47,-77.7997"/>
<polygon fill="midnightblue" stroke="midnightblue" points="582.432,-81.1704 591.405,-75.537 580.877,-74.3452 582.432,-81.1704"/>
</g>
<!-- Node15&#45;&gt;Node5 -->
<g id="edge19" class="edge"><title>Node15&#45;&gt;Node5</title>
<path fill="none" stroke="midnightblue" d="M330.14,-56.4435C287.34,-45.9381 215.469,-28.297 175.015,-18.3673"/>
<polygon fill="midnightblue" stroke="midnightblue" points="175.751,-14.9441 165.205,-15.9593 174.082,-21.7423 175.751,-14.9441"/>
</g>
<!-- Node15&#45;&gt;Node13 -->
<g id="edge18" class="edge"><title>Node15&#45;&gt;Node13</title>
<path fill="none" stroke="midnightblue" d="M348.13,-56.324C331.291,-47.6641 305.193,-34.2424 285.762,-24.249"/>
<polygon fill="midnightblue" stroke="midnightblue" points="287.322,-21.1155 276.828,-19.6545 284.12,-27.3405 287.322,-21.1155"/>
</g>
<!-- Node15&#45;&gt;Node14 -->
<g id="edge20" class="edge"><title>Node15&#45;&gt;Node14</title>
<path fill="none" stroke="midnightblue" d="M377.371,-56.324C389.158,-48.0577 407.132,-35.4527 421.136,-25.6322"/>
<polygon fill="midnightblue" stroke="midnightblue" points="423.482,-28.2619 429.659,-19.6545 419.462,-22.5307 423.482,-28.2619"/>
</g>
<!-- Node16 -->
<g id="node16" class="node"><title>Node16</title>
<polygon fill="none" stroke="#bfbfbf" points="339,-0.5 339,-19.5 391,-19.5 391,-0.5 339,-0.5"/>
<text text-anchor="middle" x="365" y="-7.5" font-family="Helvetica,sans-Serif" font-size="10.00">sstream</text>
</g>
<!-- Node15&#45;&gt;Node16 -->
<g id="edge17" class="edge"><title>Node15&#45;&gt;Node16</title>
<path fill="none" stroke="midnightblue" d="M365,-56.083C365,-49.0059 365,-38.8611 365,-29.9865"/>
<polygon fill="midnightblue" stroke="midnightblue" points="368.5,-29.751 365,-19.7511 361.5,-29.7511 368.5,-29.751"/>
</g>
<!-- Node17&#45;&gt;Node11 -->
<g id="edge22" class="edge"><title>Node17&#45;&gt;Node11</title>
<path fill="none" stroke="midnightblue" d="M622.395,-56.083C616.745,-48.4554 608.455,-37.2645 601.549,-27.9408"/>
<polygon fill="midnightblue" stroke="midnightblue" points="604.247,-25.7034 595.482,-19.7511 598.622,-29.87 604.247,-25.7034"/>
</g>
</g>
</svg>
