<?xml version="1.0" encoding="UTF-8" standalone="no"?>
<!DOCTYPE svg PUBLIC "-//W3C//DTD SVG 1.1//EN"
 "http://www.w3.org/Graphics/SVG/1.1/DTD/svg11.dtd">
<!-- Generated by graphviz version 2.36.0 (20140111.2315)
 -->
<!-- Title: extlib/foxxll/foxxll/common/shared_state.hpp Pages: 1 -->
<svg width="928pt" height="410pt"
 viewBox="0.00 0.00 928.00 410.00" xmlns="http://www.w3.org/2000/svg" xmlns:xlink="http://www.w3.org/1999/xlink">
<g id="graph0" class="graph" transform="scale(1 1) rotate(0) translate(4 406)">
<title>extlib/foxxll/foxxll/common/shared_state.hpp</title>
<!-- Node1 -->
<g id="node1" class="node"><title>Node1</title>
<polygon fill="#bfbfbf" stroke="black" points="606.5,-371 606.5,-401 741.5,-401 741.5,-371 606.5,-371"/>
<text text-anchor="start" x="614.5" y="-389" font-family="Helvetica,sans-Serif" font-size="10.00">extlib/foxxll/foxxll</text>
<text text-anchor="middle" x="674" y="-378" font-family="Helvetica,sans-Serif" font-size="10.00">/common/shared_state.hpp</text>
</g>
<!-- Node2 -->
<g id="node2" class="node"><title>Node2</title>
<g id="a_node2"><a xlink:href="request__queue__impl__worker_8cpp.html" target="_top" xlink:title="extlib/foxxll/foxxll\l/io/request_queue_impl\l_worker.cpp">
<polygon fill="none" stroke="black" points="-0.5,-214.5 -0.5,-255.5 116.5,-255.5 116.5,-214.5 -0.5,-214.5"/>
<text text-anchor="start" x="7.5" y="-243.5" font-family="Helvetica,sans-Serif" font-size="10.00">extlib/foxxll/foxxll</text>
<text text-anchor="start" x="7.5" y="-232.5" font-family="Helvetica,sans-Serif" font-size="10.00">/io/request_queue_impl</text>
<text text-anchor="middle" x="58" y="-221.5" font-family="Helvetica,sans-Serif" font-size="10.00">_worker.cpp</text>
</a>
</g>
</g>
<!-- Node1&#45;&gt;Node2 -->
<g id="edge1" class="edge"><title>Node1&#45;&gt;Node2</title>
<path fill="none" stroke="midnightblue" d="M596.095,-380.583C483.856,-373.504 282.604,-357.933 214,-334 162.661,-316.09 110.714,-278.751 81.6059,-255.685"/>
<polygon fill="midnightblue" stroke="midnightblue" points="596.142,-384.093 606.34,-381.221 596.577,-377.106 596.142,-384.093"/>
</g>
<!-- Node3 -->
<g id="node3" class="node"><title>Node3</title>
<g id="a_node3"><a xlink:href="request__queue__impl__worker_8hpp.html" target="_top" xlink:title="extlib/foxxll/foxxll\l/io/request_queue_impl\l_worker.hpp">
<polygon fill="none" stroke="black" points="223.5,-292.5 223.5,-333.5 340.5,-333.5 340.5,-292.5 223.5,-292.5"/>
<text text-anchor="start" x="231.5" y="-321.5" font-family="Helvetica,sans-Serif" font-size="10.00">extlib/foxxll/foxxll</text>
<text text-anchor="start" x="231.5" y="-310.5" font-family="Helvetica,sans-Serif" font-size="10.00">/io/request_queue_impl</text>
<text text-anchor="middle" x="282" y="-299.5" font-family="Helvetica,sans-Serif" font-size="10.00">_worker.hpp</text>
</a>
</g>
</g>
<!-- Node1&#45;&gt;Node3 -->
<g id="edge2" class="edge"><title>Node1&#45;&gt;Node3</title>
<path fill="none" stroke="midnightblue" d="M596.266,-370.921C521.046,-357.297 408.708,-336.95 340.695,-324.631"/>
<polygon fill="midnightblue" stroke="midnightblue" points="595.703,-374.375 606.166,-372.714 596.95,-367.488 595.703,-374.375"/>
</g>
<!-- Node10 -->
<g id="node10" class="node"><title>Node10</title>
<g id="a_node10"><a xlink:href="request__with__state_8cpp.html" target="_top" xlink:title="extlib/foxxll/foxxll\l/io/request_with_state.cpp">
<polygon fill="none" stroke="black" points="789.5,-69 789.5,-99 920.5,-99 920.5,-69 789.5,-69"/>
<text text-anchor="start" x="797.5" y="-87" font-family="Helvetica,sans-Serif" font-size="10.00">extlib/foxxll/foxxll</text>
<text text-anchor="middle" x="855" y="-76" font-family="Helvetica,sans-Serif" font-size="10.00">/io/request_with_state.cpp</text>
</a>
</g>
</g>
<!-- Node1&#45;&gt;Node10 -->
<g id="edge18" class="edge"><title>Node1&#45;&gt;Node10</title>
<path fill="none" stroke="midnightblue" d="M751.798,-380.238C784.624,-374.037 820.212,-360.965 842,-334 899.268,-263.124 871.147,-140.452 859.341,-99.0845"/>
<polygon fill="midnightblue" stroke="midnightblue" points="750.991,-376.824 741.718,-381.949 752.163,-383.726 750.991,-376.824"/>
</g>
<!-- Node17 -->
<g id="node17" class="node"><title>Node17</title>
<g id="a_node17"><a xlink:href="request__with__state_8hpp.html" target="_top" xlink:title="extlib/foxxll/foxxll\l/io/request_with_state.hpp">
<polygon fill="none" stroke="black" points="702.5,-298 702.5,-328 833.5,-328 833.5,-298 702.5,-298"/>
<text text-anchor="start" x="710.5" y="-316" font-family="Helvetica,sans-Serif" font-size="10.00">extlib/foxxll/foxxll</text>
<text text-anchor="middle" x="768" y="-305" font-family="Helvetica,sans-Serif" font-size="10.00">/io/request_with_state.hpp</text>
</a>
</g>
</g>
<!-- Node1&#45;&gt;Node17 -->
<g id="edge19" class="edge"><title>Node1&#45;&gt;Node17</title>
<path fill="none" stroke="midnightblue" d="M700.73,-364.81C716.186,-353.136 735.26,-338.729 749.145,-328.241"/>
<polygon fill="midnightblue" stroke="midnightblue" points="698.441,-362.153 692.571,-370.973 702.66,-367.738 698.441,-362.153"/>
</g>
<!-- Node18 -->
<g id="node18" class="node"><title>Node18</title>
<g id="a_node18"><a xlink:href="serving__request_8cpp.html" target="_top" xlink:title="extlib/foxxll/foxxll\l/io/serving_request.cpp">
<polygon fill="none" stroke="black" points="709,-142 709,-172 827,-172 827,-142 709,-142"/>
<text text-anchor="start" x="717" y="-160" font-family="Helvetica,sans-Serif" font-size="10.00">extlib/foxxll/foxxll</text>
<text text-anchor="middle" x="768" y="-149" font-family="Helvetica,sans-Serif" font-size="10.00">/io/serving_request.cpp</text>
</a>
</g>
</g>
<!-- Node1&#45;&gt;Node18 -->
<g id="edge30" class="edge"><title>Node1&#45;&gt;Node18</title>
<path fill="none" stroke="midnightblue" d="M676.858,-360.788C679.607,-341.679 684.609,-314.573 693,-292 710.278,-245.52 742.041,-195.844 758.119,-172.152"/>
<polygon fill="midnightblue" stroke="midnightblue" points="673.381,-360.384 675.524,-370.76 680.319,-361.313 673.381,-360.384"/>
</g>
<!-- Node3&#45;&gt;Node2 -->
<g id="edge17" class="edge"><title>Node3&#45;&gt;Node2</title>
<path fill="none" stroke="midnightblue" d="M214.698,-289.165C183.076,-278.437 145.769,-265.779 115.49,-255.506"/>
<polygon fill="midnightblue" stroke="midnightblue" points="213.72,-292.53 224.314,-292.428 215.969,-285.901 213.72,-292.53"/>
</g>
<!-- Node4 -->
<g id="node4" class="node"><title>Node4</title>
<g id="a_node4"><a xlink:href="request__queue__impl__1q_8hpp.html" target="_top" xlink:title="extlib/foxxll/foxxll\l/io/request_queue_impl\l_1q.hpp">
<polygon fill="none" stroke="black" points="134.5,-214.5 134.5,-255.5 251.5,-255.5 251.5,-214.5 134.5,-214.5"/>
<text text-anchor="start" x="142.5" y="-243.5" font-family="Helvetica,sans-Serif" font-size="10.00">extlib/foxxll/foxxll</text>
<text text-anchor="start" x="142.5" y="-232.5" font-family="Helvetica,sans-Serif" font-size="10.00">/io/request_queue_impl</text>
<text text-anchor="middle" x="193" y="-221.5" font-family="Helvetica,sans-Serif" font-size="10.00">_1q.hpp</text>
</a>
</g>
</g>
<!-- Node3&#45;&gt;Node4 -->
<g id="edge3" class="edge"><title>Node3&#45;&gt;Node4</title>
<path fill="none" stroke="midnightblue" d="M251.293,-285.779C239.659,-275.843 226.628,-264.716 215.842,-255.506"/>
<polygon fill="midnightblue" stroke="midnightblue" points="249.203,-288.596 259.08,-292.428 253.749,-283.273 249.203,-288.596"/>
</g>
<!-- Node6 -->
<g id="node6" class="node"><title>Node6</title>
<g id="a_node6"><a xlink:href="request__queue__impl__qwqr_8hpp.html" target="_top" xlink:title="extlib/foxxll/foxxll\l/io/request_queue_impl\l_qwqr.hpp">
<polygon fill="none" stroke="black" points="269.5,-214.5 269.5,-255.5 386.5,-255.5 386.5,-214.5 269.5,-214.5"/>
<text text-anchor="start" x="277.5" y="-243.5" font-family="Helvetica,sans-Serif" font-size="10.00">extlib/foxxll/foxxll</text>
<text text-anchor="start" x="277.5" y="-232.5" font-family="Helvetica,sans-Serif" font-size="10.00">/io/request_queue_impl</text>
<text text-anchor="middle" x="328" y="-221.5" font-family="Helvetica,sans-Serif" font-size="10.00">_qwqr.hpp</text>
</a>
</g>
</g>
<!-- Node3&#45;&gt;Node6 -->
<g id="edge5" class="edge"><title>Node3&#45;&gt;Node6</title>
<path fill="none" stroke="midnightblue" d="M299.094,-283.757C304.786,-274.354 310.995,-264.096 316.194,-255.506"/>
<polygon fill="midnightblue" stroke="midnightblue" points="296.03,-282.061 293.846,-292.428 302.018,-285.685 296.03,-282.061"/>
</g>
<!-- Node5 -->
<g id="node5" class="node"><title>Node5</title>
<g id="a_node5"><a xlink:href="request__queue__impl__1q_8cpp.html" target="_top" xlink:title="extlib/foxxll/foxxll\l/io/request_queue_impl\l_1q.cpp">
<polygon fill="none" stroke="black" points="67.5,-136.5 67.5,-177.5 184.5,-177.5 184.5,-136.5 67.5,-136.5"/>
<text text-anchor="start" x="75.5" y="-165.5" font-family="Helvetica,sans-Serif" font-size="10.00">extlib/foxxll/foxxll</text>
<text text-anchor="start" x="75.5" y="-154.5" font-family="Helvetica,sans-Serif" font-size="10.00">/io/request_queue_impl</text>
<text text-anchor="middle" x="126" y="-143.5" font-family="Helvetica,sans-Serif" font-size="10.00">_1q.cpp</text>
</a>
</g>
</g>
<!-- Node4&#45;&gt;Node5 -->
<g id="edge4" class="edge"><title>Node4&#45;&gt;Node5</title>
<path fill="none" stroke="midnightblue" d="M169.123,-206.916C160.56,-197.203 151.081,-186.45 143.196,-177.506"/>
<polygon fill="midnightblue" stroke="midnightblue" points="166.507,-209.241 175.746,-214.428 171.758,-204.612 166.507,-209.241"/>
</g>
<!-- Node7 -->
<g id="node7" class="node"><title>Node7</title>
<g id="a_node7"><a xlink:href="disk__queues_8cpp.html" target="_top" xlink:title="extlib/foxxll/foxxll\l/io/disk_queues.cpp">
<polygon fill="none" stroke="black" points="150,-69 150,-99 254,-99 254,-69 150,-69"/>
<text text-anchor="start" x="158" y="-87" font-family="Helvetica,sans-Serif" font-size="10.00">extlib/foxxll/foxxll</text>
<text text-anchor="middle" x="202" y="-76" font-family="Helvetica,sans-Serif" font-size="10.00">/io/disk_queues.cpp</text>
</a>
</g>
</g>
<!-- Node6&#45;&gt;Node7 -->
<g id="edge6" class="edge"><title>Node6&#45;&gt;Node7</title>
<path fill="none" stroke="midnightblue" d="M270.63,-209.614C256.414,-201.32 242.315,-190.824 232,-178 213.073,-154.469 205.963,-118.699 203.387,-99.0863"/>
<polygon fill="midnightblue" stroke="midnightblue" points="269.019,-212.723 279.464,-214.496 272.404,-206.596 269.019,-212.723"/>
</g>
<!-- Node8 -->
<g id="node8" class="node"><title>Node8</title>
<g id="a_node8"><a xlink:href="disk__queues_8hpp.html" target="_top" xlink:title="extlib/foxxll/foxxll\l/io/disk_queues.hpp">
<polygon fill="none" stroke="black" points="415,-142 415,-172 519,-172 519,-142 415,-142"/>
<text text-anchor="start" x="423" y="-160" font-family="Helvetica,sans-Serif" font-size="10.00">extlib/foxxll/foxxll</text>
<text text-anchor="middle" x="467" y="-149" font-family="Helvetica,sans-Serif" font-size="10.00">/io/disk_queues.hpp</text>
</a>
</g>
</g>
<!-- Node6&#45;&gt;Node8 -->
<g id="edge7" class="edge"><title>Node6&#45;&gt;Node8</title>
<path fill="none" stroke="midnightblue" d="M372.848,-209.479C395.365,-197.167 421.849,-182.687 440.983,-172.225"/>
<polygon fill="midnightblue" stroke="midnightblue" points="370.891,-206.56 363.796,-214.428 374.249,-212.702 370.891,-206.56"/>
</g>
<!-- Node16 -->
<g id="node16" class="node"><title>Node16</title>
<g id="a_node16"><a xlink:href="request__queue__impl__qwqr_8cpp.html" target="_top" xlink:title="extlib/foxxll/foxxll\l/io/request_queue_impl\l_qwqr.cpp">
<polygon fill="none" stroke="black" points="241.5,-136.5 241.5,-177.5 358.5,-177.5 358.5,-136.5 241.5,-136.5"/>
<text text-anchor="start" x="249.5" y="-165.5" font-family="Helvetica,sans-Serif" font-size="10.00">extlib/foxxll/foxxll</text>
<text text-anchor="start" x="249.5" y="-154.5" font-family="Helvetica,sans-Serif" font-size="10.00">/io/request_queue_impl</text>
<text text-anchor="middle" x="300" y="-143.5" font-family="Helvetica,sans-Serif" font-size="10.00">_qwqr.cpp</text>
</a>
</g>
</g>
<!-- Node6&#45;&gt;Node16 -->
<g id="edge16" class="edge"><title>Node6&#45;&gt;Node16</title>
<path fill="none" stroke="midnightblue" d="M317.272,-204.882C313.897,-195.721 310.253,-185.83 307.186,-177.506"/>
<polygon fill="midnightblue" stroke="midnightblue" points="314.048,-206.255 320.789,-214.428 320.616,-203.835 314.048,-206.255"/>
</g>
<!-- Node8&#45;&gt;Node7 -->
<g id="edge9" class="edge"><title>Node8&#45;&gt;Node7</title>
<path fill="none" stroke="midnightblue" d="M411.886,-139.105C408.207,-138.037 404.553,-136.993 401,-136 373.693,-128.367 303.541,-110.542 254.299,-98.13"/>
<polygon fill="midnightblue" stroke="midnightblue" points="411.049,-142.507 421.631,-141.969 413.024,-135.791 411.049,-142.507"/>
</g>
<!-- Node9 -->
<g id="node9" class="node"><title>Node9</title>
<g id="a_node9"><a xlink:href="disk__queued__file_8cpp.html" target="_top" xlink:title="extlib/foxxll/foxxll\l/io/disk_queued_file.cpp">
<polygon fill="none" stroke="black" points="648,-69 648,-99 770,-99 770,-69 648,-69"/>
<text text-anchor="start" x="656" y="-87" font-family="Helvetica,sans-Serif" font-size="10.00">extlib/foxxll/foxxll</text>
<text text-anchor="middle" x="709" y="-76" font-family="Helvetica,sans-Serif" font-size="10.00">/io/disk_queued_file.cpp</text>
</a>
</g>
</g>
<!-- Node8&#45;&gt;Node9 -->
<g id="edge8" class="edge"><title>Node8&#45;&gt;Node9</title>
<path fill="none" stroke="midnightblue" d="M522.843,-139.026C526.279,-137.998 529.685,-136.982 533,-136 575.854,-123.299 624.682,-109.177 660.019,-99.0201"/>
<polygon fill="midnightblue" stroke="midnightblue" points="521.707,-135.713 513.136,-141.941 523.721,-142.417 521.707,-135.713"/>
</g>
<!-- Node8&#45;&gt;Node10 -->
<g id="edge10" class="edge"><title>Node8&#45;&gt;Node10</title>
<path fill="none" stroke="midnightblue" d="M529.184,-143.122C541.377,-140.686 554.08,-138.211 566,-136 660.399,-118.492 684.562,-117.297 779,-100 782.307,-99.3943 785.693,-98.7638 789.111,-98.1192"/>
<polygon fill="midnightblue" stroke="midnightblue" points="528.203,-139.749 519.09,-145.152 529.584,-146.612 528.203,-139.749"/>
</g>
<!-- Node11 -->
<g id="node11" class="node"><title>Node11</title>
<g id="a_node11"><a xlink:href="io_8hpp.html" target="_top" xlink:title="extlib/foxxll/foxxll\l/io.hpp">
<polygon fill="none" stroke="black" points="538,-69 538,-99 630,-99 630,-69 538,-69"/>
<text text-anchor="start" x="546" y="-87" font-family="Helvetica,sans-Serif" font-size="10.00">extlib/foxxll/foxxll</text>
<text text-anchor="middle" x="584" y="-76" font-family="Helvetica,sans-Serif" font-size="10.00">/io.hpp</text>
</a>
</g>
</g>
<!-- Node8&#45;&gt;Node11 -->
<g id="edge11" class="edge"><title>Node8&#45;&gt;Node11</title>
<path fill="none" stroke="midnightblue" d="M498.678,-136.777C518.184,-124.939 542.769,-110.02 560.532,-99.2412"/>
<polygon fill="midnightblue" stroke="midnightblue" points="496.849,-133.793 490.115,-141.973 500.48,-139.777 496.849,-133.793"/>
</g>
<!-- Node13 -->
<g id="node13" class="node"><title>Node13</title>
<g id="a_node13"><a xlink:href="block__manager_8cpp.html" target="_top" xlink:title="extlib/foxxll/foxxll\l/mng/block_manager.cpp">
<polygon fill="none" stroke="black" points="272,-69 272,-99 398,-99 398,-69 272,-69"/>
<text text-anchor="start" x="280" y="-87" font-family="Helvetica,sans-Serif" font-size="10.00">extlib/foxxll/foxxll</text>
<text text-anchor="middle" x="335" y="-76" font-family="Helvetica,sans-Serif" font-size="10.00">/mng/block_manager.cpp</text>
</a>
</g>
</g>
<!-- Node8&#45;&gt;Node13 -->
<g id="edge13" class="edge"><title>Node8&#45;&gt;Node13</title>
<path fill="none" stroke="midnightblue" d="M431.854,-137.096C409.754,-125.209 381.697,-110.118 361.477,-99.2412"/>
<polygon fill="midnightblue" stroke="midnightblue" points="430.456,-140.318 440.921,-141.973 433.772,-134.153 430.456,-140.318"/>
</g>
<!-- Node14 -->
<g id="node14" class="node"><title>Node14</title>
<g id="a_node14"><a xlink:href="buf__writer_8hpp.html" target="_top" xlink:title="extlib/foxxll/foxxll\l/mng/buf_writer.hpp">
<polygon fill="none" stroke="black" points="416.5,-69 416.5,-99 519.5,-99 519.5,-69 416.5,-69"/>
<text text-anchor="start" x="424.5" y="-87" font-family="Helvetica,sans-Serif" font-size="10.00">extlib/foxxll/foxxll</text>
<text text-anchor="middle" x="468" y="-76" font-family="Helvetica,sans-Serif" font-size="10.00">/mng/buf_writer.hpp</text>
</a>
</g>
</g>
<!-- Node8&#45;&gt;Node14 -->
<g id="edge14" class="edge"><title>Node8&#45;&gt;Node14</title>
<path fill="none" stroke="midnightblue" d="M467.339,-131.898C467.491,-121.131 467.665,-108.801 467.796,-99.4856"/>
<polygon fill="midnightblue" stroke="midnightblue" points="463.839,-131.924 467.198,-141.973 470.838,-132.023 463.839,-131.924"/>
</g>
<!-- Node12 -->
<g id="node12" class="node"><title>Node12</title>
<g id="a_node12"><a xlink:href="create__file_8cpp.html" target="_top" xlink:title="extlib/foxxll/foxxll\l/io/create_file.cpp">
<polygon fill="none" stroke="black" points="540,-1 540,-31 634,-31 634,-1 540,-1"/>
<text text-anchor="start" x="548" y="-19" font-family="Helvetica,sans-Serif" font-size="10.00">extlib/foxxll/foxxll</text>
<text text-anchor="middle" x="587" y="-8" font-family="Helvetica,sans-Serif" font-size="10.00">/io/create_file.cpp</text>
</a>
</g>
</g>
<!-- Node11&#45;&gt;Node12 -->
<g id="edge12" class="edge"><title>Node11&#45;&gt;Node12</title>
<path fill="none" stroke="midnightblue" d="M585.112,-58.5322C585.529,-49.3606 585.989,-39.2449 586.35,-31.2931"/>
<polygon fill="midnightblue" stroke="midnightblue" points="581.609,-58.5303 584.651,-68.679 588.602,-58.8483 581.609,-58.5303"/>
</g>
<!-- Node15 -->
<g id="node15" class="node"><title>Node15</title>
<g id="a_node15"><a xlink:href="buf__ostream_8hpp.html" target="_top" xlink:title="extlib/foxxll/foxxll\l/mng/buf_ostream.hpp">
<polygon fill="none" stroke="black" points="408,-1 408,-31 522,-31 522,-1 408,-1"/>
<text text-anchor="start" x="416" y="-19" font-family="Helvetica,sans-Serif" font-size="10.00">extlib/foxxll/foxxll</text>
<text text-anchor="middle" x="465" y="-8" font-family="Helvetica,sans-Serif" font-size="10.00">/mng/buf_ostream.hpp</text>
</a>
</g>
</g>
<!-- Node14&#45;&gt;Node15 -->
<g id="edge15" class="edge"><title>Node14&#45;&gt;Node15</title>
<path fill="none" stroke="midnightblue" d="M466.888,-58.5322C466.471,-49.3606 466.011,-39.2449 465.65,-31.2931"/>
<polygon fill="midnightblue" stroke="midnightblue" points="463.398,-58.8483 467.349,-68.679 470.391,-58.5303 463.398,-58.8483"/>
</g>
<!-- Node17&#45;&gt;Node10 -->
<g id="edge20" class="edge"><title>Node17&#45;&gt;Node10</title>
<path fill="none" stroke="midnightblue" d="M782.112,-288.959C797.482,-262.911 821.769,-218.806 836,-178 845.442,-150.925 850.827,-117.692 853.307,-99.1791"/>
<polygon fill="midnightblue" stroke="midnightblue" points="779.014,-287.32 776.888,-297.699 785.023,-290.911 779.014,-287.32"/>
</g>
<!-- Node17&#45;&gt;Node18 -->
<g id="edge21" class="edge"><title>Node17&#45;&gt;Node18</title>
<path fill="none" stroke="midnightblue" d="M768,-287.764C768,-255.237 768,-198.509 768,-172.178"/>
<polygon fill="midnightblue" stroke="midnightblue" points="764.5,-287.788 768,-297.788 771.5,-287.788 764.5,-287.788"/>
</g>
<!-- Node19 -->
<g id="node19" class="node"><title>Node19</title>
<g id="a_node19"><a xlink:href="serving__request_8hpp.html" target="_top" xlink:title="extlib/foxxll/foxxll\l/io/serving_request.hpp">
<polygon fill="none" stroke="black" points="460,-220 460,-250 578,-250 578,-220 460,-220"/>
<text text-anchor="start" x="468" y="-238" font-family="Helvetica,sans-Serif" font-size="10.00">extlib/foxxll/foxxll</text>
<text text-anchor="middle" x="519" y="-227" font-family="Helvetica,sans-Serif" font-size="10.00">/io/serving_request.hpp</text>
</a>
</g>
</g>
<!-- Node17&#45;&gt;Node19 -->
<g id="edge22" class="edge"><title>Node17&#45;&gt;Node19</title>
<path fill="none" stroke="midnightblue" d="M712.291,-294.996C667.974,-281.47 606.706,-262.77 565.114,-250.075"/>
<polygon fill="midnightblue" stroke="midnightblue" points="711.453,-298.4 722.039,-297.972 713.497,-291.705 711.453,-298.4"/>
</g>
<!-- Node19&#45;&gt;Node5 -->
<g id="edge27" class="edge"><title>Node19&#45;&gt;Node5</title>
<path fill="none" stroke="midnightblue" d="M449.879,-220.633C374.657,-206.086 255.669,-183.076 184.779,-169.367"/>
<polygon fill="midnightblue" stroke="midnightblue" points="449.256,-224.077 459.738,-222.54 450.585,-217.205 449.256,-224.077"/>
</g>
<!-- Node19&#45;&gt;Node7 -->
<g id="edge24" class="edge"><title>Node19&#45;&gt;Node7</title>
<path fill="none" stroke="midnightblue" d="M473.24,-215.886C451.777,-206.278 426.48,-193.288 406,-178 385.587,-162.762 388.568,-149.555 367,-136 348.024,-124.074 294.94,-108.684 254.057,-97.9436"/>
<polygon fill="midnightblue" stroke="midnightblue" points="471.924,-219.13 482.488,-219.925 474.726,-212.715 471.924,-219.13"/>
</g>
<!-- Node19&#45;&gt;Node8 -->
<g id="edge25" class="edge"><title>Node19&#45;&gt;Node8</title>
<path fill="none" stroke="midnightblue" d="M503.565,-211.441C494.871,-198.735 484.279,-183.254 476.737,-172.231"/>
<polygon fill="midnightblue" stroke="midnightblue" points="500.684,-213.428 509.219,-219.705 506.461,-209.475 500.684,-213.428"/>
</g>
<!-- Node19&#45;&gt;Node9 -->
<g id="edge23" class="edge"><title>Node19&#45;&gt;Node9</title>
<path fill="none" stroke="midnightblue" d="M524.848,-210.011C531.392,-187.947 544.069,-155.749 566,-136 579.809,-123.565 621.787,-109.357 656.715,-99.1006"/>
<polygon fill="midnightblue" stroke="midnightblue" points="521.397,-209.358 522.114,-219.929 528.145,-211.218 521.397,-209.358"/>
</g>
<!-- Node19&#45;&gt;Node16 -->
<g id="edge28" class="edge"><title>Node19&#45;&gt;Node16</title>
<path fill="none" stroke="midnightblue" d="M468.964,-216.636C435.381,-204.982 391.088,-189.61 356.277,-177.53"/>
<polygon fill="midnightblue" stroke="midnightblue" points="467.982,-220 478.577,-219.972 470.277,-213.387 467.982,-220"/>
</g>
<!-- Node19&#45;&gt;Node18 -->
<g id="edge29" class="edge"><title>Node19&#45;&gt;Node18</title>
<path fill="none" stroke="midnightblue" d="M574.709,-216.996C619.026,-203.47 680.294,-184.77 721.886,-172.075"/>
<polygon fill="midnightblue" stroke="midnightblue" points="573.503,-213.705 564.961,-219.972 575.547,-220.4 573.503,-213.705"/>
</g>
<!-- Node20 -->
<g id="node20" class="node"><title>Node20</title>
<g id="a_node20"><a xlink:href="fileperblock__file_8cpp.html" target="_top" xlink:title="extlib/foxxll/foxxll\l/io/fileperblock_file.cpp">
<polygon fill="none" stroke="black" points="575,-142 575,-172 691,-172 691,-142 575,-142"/>
<text text-anchor="start" x="583" y="-160" font-family="Helvetica,sans-Serif" font-size="10.00">extlib/foxxll/foxxll</text>
<text text-anchor="middle" x="633" y="-149" font-family="Helvetica,sans-Serif" font-size="10.00">/io/fileperblock_file.cpp</text>
</a>
</g>
</g>
<!-- Node19&#45;&gt;Node20 -->
<g id="edge26" class="edge"><title>Node19&#45;&gt;Node20</title>
<path fill="none" stroke="midnightblue" d="M548.566,-214.289C568.432,-201.046 594.135,-183.91 611.938,-172.041"/>
<polygon fill="midnightblue" stroke="midnightblue" points="546.554,-211.424 540.175,-219.883 550.437,-217.248 546.554,-211.424"/>
</g>
</g>
</svg>
