<?xml version="1.0" encoding="UTF-8" standalone="no"?>
<!DOCTYPE svg PUBLIC "-//W3C//DTD SVG 1.1//EN"
 "http://www.w3.org/Graphics/SVG/1.1/DTD/svg11.dtd">
<!-- Generated by graphviz version 2.36.0 (20140111.2315)
 -->
<!-- Title: extlib/tlx/tlx/sort/strings/radix_sort.hpp Pages: 1 -->
<svg width="302pt" height="108pt"
 viewBox="0.00 0.00 302.00 108.00" xmlns="http://www.w3.org/2000/svg" xmlns:xlink="http://www.w3.org/1999/xlink">
<g id="graph0" class="graph" transform="scale(1 1) rotate(0) translate(4 104)">
<title>extlib/tlx/tlx/sort/strings/radix_sort.hpp</title>
<!-- Node1 -->
<g id="node1" class="node"><title>Node1</title>
<polygon fill="#bfbfbf" stroke="black" points="90.5,-69 90.5,-99 203.5,-99 203.5,-69 90.5,-69"/>
<text text-anchor="start" x="98.5" y="-87" font-family="Helvetica,sans-Serif" font-size="10.00">extlib/tlx/tlx/sort</text>
<text text-anchor="middle" x="147" y="-76" font-family="Helvetica,sans-Serif" font-size="10.00">/strings/radix_sort.hpp</text>
</g>
<!-- Node2 -->
<g id="node2" class="node"><title>Node2</title>
<g id="a_node2"><a xlink:href="strings1_8cpp.html" target="_top" xlink:title="extlib/tlx/tlx/sort\l/strings1.cpp">
<polygon fill="none" stroke="black" points="0,-1 0,-31 86,-31 86,-1 0,-1"/>
<text text-anchor="start" x="8" y="-19" font-family="Helvetica,sans-Serif" font-size="10.00">extlib/tlx/tlx/sort</text>
<text text-anchor="middle" x="43" y="-8" font-family="Helvetica,sans-Serif" font-size="10.00">/strings1.cpp</text>
</a>
</g>
</g>
<!-- Node1&#45;&gt;Node2 -->
<g id="edge1" class="edge"><title>Node1&#45;&gt;Node2</title>
<path fill="none" stroke="midnightblue" d="M116.019,-63.339C99.7046,-52.9856 80.0712,-40.526 65.2737,-31.1352"/>
<polygon fill="midnightblue" stroke="midnightblue" points="114.371,-66.4382 124.689,-68.8413 118.121,-60.5279 114.371,-66.4382"/>
</g>
<!-- Node3 -->
<g id="node3" class="node"><title>Node3</title>
<g id="a_node3"><a xlink:href="strings2_8cpp.html" target="_top" xlink:title="extlib/tlx/tlx/sort\l/strings2.cpp">
<polygon fill="none" stroke="black" points="104,-1 104,-31 190,-31 190,-1 104,-1"/>
<text text-anchor="start" x="112" y="-19" font-family="Helvetica,sans-Serif" font-size="10.00">extlib/tlx/tlx/sort</text>
<text text-anchor="middle" x="147" y="-8" font-family="Helvetica,sans-Serif" font-size="10.00">/strings2.cpp</text>
</a>
</g>
</g>
<!-- Node1&#45;&gt;Node3 -->
<g id="edge2" class="edge"><title>Node1&#45;&gt;Node3</title>
<path fill="none" stroke="midnightblue" d="M147,-58.5322C147,-49.3606 147,-39.2449 147,-31.2931"/>
<polygon fill="midnightblue" stroke="midnightblue" points="143.5,-58.6789 147,-68.679 150.5,-58.679 143.5,-58.6789"/>
</g>
<!-- Node4 -->
<g id="node4" class="node"><title>Node4</title>
<g id="a_node4"><a xlink:href="strings3_8cpp.html" target="_top" xlink:title="extlib/tlx/tlx/sort\l/strings3.cpp">
<polygon fill="none" stroke="black" points="208,-1 208,-31 294,-31 294,-1 208,-1"/>
<text text-anchor="start" x="216" y="-19" font-family="Helvetica,sans-Serif" font-size="10.00">extlib/tlx/tlx/sort</text>
<text text-anchor="middle" x="251" y="-8" font-family="Helvetica,sans-Serif" font-size="10.00">/strings3.cpp</text>
</a>
</g>
</g>
<!-- Node1&#45;&gt;Node4 -->
<g id="edge3" class="edge"><title>Node1&#45;&gt;Node4</title>
<path fill="none" stroke="midnightblue" d="M177.981,-63.339C194.295,-52.9856 213.929,-40.526 228.726,-31.1352"/>
<polygon fill="midnightblue" stroke="midnightblue" points="175.879,-60.5279 169.311,-68.8413 179.629,-66.4382 175.879,-60.5279"/>
</g>
</g>
</svg>
