<?xml version="1.0" encoding="UTF-8" standalone="no"?>
<!DOCTYPE svg PUBLIC "-//W3C//DTD SVG 1.1//EN"
 "http://www.w3.org/Graphics/SVG/1.1/DTD/svg11.dtd">
<!-- Generated by graphviz version 2.26.3 (20100126.1600)
 -->
<!-- Title: extlib/tlx/tlx/logger.cpp Pages: 1 -->
<svg width="254pt" height="146pt"
 viewBox="0.00 0.00 254.00 146.00" xmlns="http://www.w3.org/2000/svg" xmlns:xlink="http://www.w3.org/1999/xlink">
<g id="graph1" class="graph" transform="scale(1 1) rotate(0) translate(4 142)">
<title>extlib/tlx/tlx/logger.cpp</title>
<!-- Node1 -->
<g id="node1" class="node"><title>Node1</title>
<polygon fill="#bfbfbf" stroke="black" points="71.5,-116.5 71.5,-137.5 186.5,-137.5 186.5,-116.5 71.5,-116.5"/>
<text text-anchor="middle" x="129" y="-124.5" font-family="Helvetica,sans-Serif" font-size="10.00">extlib/tlx/tlx/logger.cpp</text>
</g>
<!-- Node2 -->
<g id="node3" class="node"><title>Node2</title>
<a xlink:href="extlib_2tlx_2tlx_2logger_8hpp.html" target="_top" xlink:title="tlx/logger.hpp">
<polygon fill="none" stroke="black" points="-0.5,-58.5 -0.5,-79.5 74.5,-79.5 74.5,-58.5 -0.5,-58.5"/>
<text text-anchor="middle" x="37" y="-66.5" font-family="Helvetica,sans-Serif" font-size="10.00">tlx/logger.hpp</text>
</a>
</g>
<!-- Node1&#45;&gt;Node2 -->
<g id="edge2" class="edge"><title>Node1&#45;&gt;Node2</title>
<path fill="none" stroke="midnightblue" d="M112.126,-116.362C98.2494,-107.614 78.366,-95.0786 62.5403,-85.1015"/>
<polygon fill="midnightblue" stroke="midnightblue" points="64.0931,-81.943 53.7672,-79.5707 60.3599,-87.8645 64.0931,-81.943"/>
</g>
<!-- Node4 -->
<g id="node7" class="node"><title>Node4</title>
<polygon fill="none" stroke="#bfbfbf" points="80.5,-0.5 80.5,-21.5 121.5,-21.5 121.5,-0.5 80.5,-0.5"/>
<text text-anchor="middle" x="101" y="-8.5" font-family="Helvetica,sans-Serif" font-size="10.00">string</text>
</g>
<!-- Node1&#45;&gt;Node4 -->
<g id="edge12" class="edge"><title>Node1&#45;&gt;Node4</title>
<path fill="none" stroke="midnightblue" d="M126.416,-116.295C121.77,-97.0451 111.932,-56.2889 105.95,-31.5091"/>
<polygon fill="midnightblue" stroke="midnightblue" points="109.327,-30.5788 103.578,-21.6792 102.522,-32.2213 109.327,-30.5788"/>
</g>
<!-- Node5 -->
<g id="node9" class="node"><title>Node5</title>
<polygon fill="none" stroke="#bfbfbf" points="130,-58.5 130,-79.5 184,-79.5 184,-58.5 130,-58.5"/>
<text text-anchor="middle" x="157" y="-66.5" font-family="Helvetica,sans-Serif" font-size="10.00">iostream</text>
</g>
<!-- Node1&#45;&gt;Node5 -->
<g id="edge8" class="edge"><title>Node1&#45;&gt;Node5</title>
<path fill="none" stroke="midnightblue" d="M134.136,-116.362C137.846,-108.677 142.967,-98.0686 147.422,-88.8399"/>
<polygon fill="midnightblue" stroke="midnightblue" points="150.701,-90.0978 151.897,-79.5707 144.397,-87.0545 150.701,-90.0978"/>
</g>
<!-- Node6 -->
<g id="node11" class="node"><title>Node6</title>
<polygon fill="none" stroke="#bfbfbf" points="202,-58.5 202,-79.5 246,-79.5 246,-58.5 202,-58.5"/>
<text text-anchor="middle" x="224" y="-66.5" font-family="Helvetica,sans-Serif" font-size="10.00">mutex</text>
</g>
<!-- Node1&#45;&gt;Node6 -->
<g id="edge10" class="edge"><title>Node1&#45;&gt;Node6</title>
<path fill="none" stroke="midnightblue" d="M146.424,-116.362C160.887,-107.532 181.669,-94.844 198.084,-84.8224"/>
<polygon fill="midnightblue" stroke="midnightblue" points="199.975,-87.7688 206.686,-79.5707 196.327,-81.7943 199.975,-87.7688"/>
</g>
<!-- Node3 -->
<g id="node5" class="node"><title>Node3</title>
<polygon fill="none" stroke="#bfbfbf" points="11,-0.5 11,-21.5 63,-21.5 63,-0.5 11,-0.5"/>
<text text-anchor="middle" x="37" y="-8.5" font-family="Helvetica,sans-Serif" font-size="10.00">sstream</text>
</g>
<!-- Node2&#45;&gt;Node3 -->
<g id="edge4" class="edge"><title>Node2&#45;&gt;Node3</title>
<path fill="none" stroke="midnightblue" d="M37,-58.3619C37,-50.9219 37,-40.7427 37,-31.7276"/>
<polygon fill="midnightblue" stroke="midnightblue" points="40.5001,-31.5706 37,-21.5707 33.5001,-31.5707 40.5001,-31.5706"/>
</g>
<!-- Node2&#45;&gt;Node4 -->
<g id="edge6" class="edge"><title>Node2&#45;&gt;Node4</title>
<path fill="none" stroke="midnightblue" d="M48.7386,-58.3619C57.9406,-50.0226 70.9401,-38.2418 81.6717,-28.5162"/>
<polygon fill="midnightblue" stroke="midnightblue" points="84.2763,-30.8793 89.3358,-21.5707 79.5756,-25.6924 84.2763,-30.8793"/>
</g>
</g>
</svg>
