<?xml version="1.0" encoding="UTF-8" standalone="no"?>
<!DOCTYPE svg PUBLIC "-//W3C//DTD SVG 1.1//EN"
 "http://www.w3.org/Graphics/SVG/1.1/DTD/svg11.dtd">
<!-- Generated by graphviz version 2.36.0 (20140111.2315)
 -->
<!-- Title: extlib/foxxll/foxxll/io/fileperblock_file.hpp Pages: 1 -->
<svg width="234pt" height="176pt"
 viewBox="0.00 0.00 234.00 176.00" xmlns="http://www.w3.org/2000/svg" xmlns:xlink="http://www.w3.org/1999/xlink">
<g id="graph0" class="graph" transform="scale(1 1) rotate(0) translate(4 172)">
<title>extlib/foxxll/foxxll/io/fileperblock_file.hpp</title>
<!-- Node1 -->
<g id="node1" class="node"><title>Node1</title>
<polygon fill="#bfbfbf" stroke="black" points="60,-137 60,-167 176,-167 176,-137 60,-137"/>
<text text-anchor="start" x="68" y="-155" font-family="Helvetica,sans-Serif" font-size="10.00">extlib/foxxll/foxxll</text>
<text text-anchor="middle" x="118" y="-144" font-family="Helvetica,sans-Serif" font-size="10.00">/io/fileperblock_file.hpp</text>
</g>
<!-- Node2 -->
<g id="node2" class="node"><title>Node2</title>
<g id="a_node2"><a xlink:href="fileperblock__file_8cpp.html" target="_top" xlink:title="extlib/foxxll/foxxll\l/io/fileperblock_file.cpp">
<polygon fill="none" stroke="black" points="-1,-69 -1,-99 115,-99 115,-69 -1,-69"/>
<text text-anchor="start" x="7" y="-87" font-family="Helvetica,sans-Serif" font-size="10.00">extlib/foxxll/foxxll</text>
<text text-anchor="middle" x="57" y="-76" font-family="Helvetica,sans-Serif" font-size="10.00">/io/fileperblock_file.cpp</text>
</a>
</g>
</g>
<!-- Node1&#45;&gt;Node2 -->
<g id="edge1" class="edge"><title>Node1&#45;&gt;Node2</title>
<path fill="none" stroke="midnightblue" d="M97.8458,-129.194C88.7574,-119.36 78.2786,-108.023 70.2103,-99.2931"/>
<polygon fill="midnightblue" stroke="midnightblue" points="95.4061,-131.711 104.764,-136.679 100.547,-126.96 95.4061,-131.711"/>
</g>
<!-- Node3 -->
<g id="node3" class="node"><title>Node3</title>
<g id="a_node3"><a xlink:href="io_8hpp.html" target="_top" xlink:title="extlib/foxxll/foxxll\l/io.hpp">
<polygon fill="none" stroke="black" points="133,-69 133,-99 225,-99 225,-69 133,-69"/>
<text text-anchor="start" x="141" y="-87" font-family="Helvetica,sans-Serif" font-size="10.00">extlib/foxxll/foxxll</text>
<text text-anchor="middle" x="179" y="-76" font-family="Helvetica,sans-Serif" font-size="10.00">/io.hpp</text>
</a>
</g>
</g>
<!-- Node1&#45;&gt;Node3 -->
<g id="edge2" class="edge"><title>Node1&#45;&gt;Node3</title>
<path fill="none" stroke="midnightblue" d="M138.154,-129.194C147.243,-119.36 157.721,-108.023 165.79,-99.2931"/>
<polygon fill="midnightblue" stroke="midnightblue" points="135.453,-126.96 131.236,-136.679 140.594,-131.711 135.453,-126.96"/>
</g>
<!-- Node4 -->
<g id="node4" class="node"><title>Node4</title>
<g id="a_node4"><a xlink:href="create__file_8cpp.html" target="_top" xlink:title="extlib/foxxll/foxxll\l/io/create_file.cpp">
<polygon fill="none" stroke="black" points="132,-1 132,-31 226,-31 226,-1 132,-1"/>
<text text-anchor="start" x="140" y="-19" font-family="Helvetica,sans-Serif" font-size="10.00">extlib/foxxll/foxxll</text>
<text text-anchor="middle" x="179" y="-8" font-family="Helvetica,sans-Serif" font-size="10.00">/io/create_file.cpp</text>
</a>
</g>
</g>
<!-- Node3&#45;&gt;Node4 -->
<g id="edge3" class="edge"><title>Node3&#45;&gt;Node4</title>
<path fill="none" stroke="midnightblue" d="M179,-58.5322C179,-49.3606 179,-39.2449 179,-31.2931"/>
<polygon fill="midnightblue" stroke="midnightblue" points="175.5,-58.6789 179,-68.679 182.5,-58.679 175.5,-58.6789"/>
</g>
</g>
</svg>
