<?xml version="1.0" encoding="UTF-8" standalone="no"?>
<!DOCTYPE svg PUBLIC "-//W3C//DTD SVG 1.1//EN"
 "http://www.w3.org/Graphics/SVG/1.1/DTD/svg11.dtd">
<!-- Generated by graphviz version 2.26.3 (20100126.1600)
 -->
<!-- Title: thrill/net/flow_control_channel.cpp Pages: 1 -->
<svg width="3226pt" height="838pt"
 viewBox="0.00 0.00 3226.00 838.00" xmlns="http://www.w3.org/2000/svg" xmlns:xlink="http://www.w3.org/1999/xlink">
<g id="graph1" class="graph" transform="scale(1 1) rotate(0) translate(4 834)">
<title>thrill/net/flow_control_channel.cpp</title>
<!-- Node1 -->
<g id="node1" class="node"><title>Node1</title>
<polygon fill="#bfbfbf" stroke="black" points="345.5,-795 345.5,-829 452.5,-829 452.5,-795 345.5,-795"/>
<text text-anchor="start" x="353.5" y="-816" font-family="Helvetica,sans-Serif" font-size="10.00">thrill/net/flow_control</text>
<text text-anchor="middle" x="399" y="-803" font-family="Helvetica,sans-Serif" font-size="10.00">_channel.cpp</text>
</g>
<!-- Node2 -->
<g id="node3" class="node"><title>Node2</title>
<a xlink:href="flow__control__channel_8hpp.html" target="_top" xlink:title="thrill/net/flow_control\l_channel.hpp">
<polygon fill="none" stroke="black" points="669.5,-723 669.5,-757 776.5,-757 776.5,-723 669.5,-723"/>
<text text-anchor="start" x="677.5" y="-744" font-family="Helvetica,sans-Serif" font-size="10.00">thrill/net/flow_control</text>
<text text-anchor="middle" x="723" y="-731" font-family="Helvetica,sans-Serif" font-size="10.00">_channel.hpp</text>
</a>
</g>
<!-- Node1&#45;&gt;Node2 -->
<g id="edge2" class="edge"><title>Node1&#45;&gt;Node2</title>
<path fill="none" stroke="midnightblue" d="M452.502,-800.111C509.368,-787.474 599.245,-767.501 659.62,-754.084"/>
<polygon fill="midnightblue" stroke="midnightblue" points="660.416,-757.493 669.419,-751.907 658.897,-750.66 660.416,-757.493"/>
</g>
<!-- Node9 -->
<g id="node17" class="node"><title>Node9</title>
<polygon fill="none" stroke="#bfbfbf" points="338.5,-137.5 338.5,-158.5 397.5,-158.5 397.5,-137.5 338.5,-137.5"/>
<text text-anchor="middle" x="368" y="-145.5" font-family="Helvetica,sans-Serif" font-size="10.00">functional</text>
</g>
<!-- Node1&#45;&gt;Node9 -->
<g id="edge364" class="edge"><title>Node1&#45;&gt;Node9</title>
<path fill="none" stroke="midnightblue" d="M345.301,-800.834C253.454,-780.178 76,-732.79 76,-675 76,-675 76,-675 76,-364 76,-239.733 249.041,-178.787 328.706,-157.313"/>
<polygon fill="midnightblue" stroke="midnightblue" points="329.609,-160.694 338.395,-154.772 327.834,-153.923 329.609,-160.694"/>
</g>
<!-- Node3 -->
<g id="node5" class="node"><title>Node3</title>
<a xlink:href="defines_8hpp.html" target="_top" xlink:title="thrill/common/defines.hpp">
<polygon fill="none" stroke="black" points="1972,-281.5 1972,-302.5 2100,-302.5 2100,-281.5 1972,-281.5"/>
<text text-anchor="middle" x="2036" y="-289.5" font-family="Helvetica,sans-Serif" font-size="10.00">thrill/common/defines.hpp</text>
</a>
</g>
<!-- Node2&#45;&gt;Node3 -->
<g id="edge4" class="edge"><title>Node2&#45;&gt;Node3</title>
<path fill="none" stroke="midnightblue" d="M776.565,-738.944C971.764,-734.435 1643.7,-712.943 1838,-628 1878.57,-610.264 1890.44,-603.839 1919,-570 1987.46,-488.878 2020.86,-361.919 2031.8,-312.578"/>
<polygon fill="midnightblue" stroke="midnightblue" points="2035.28,-313.03 2033.95,-302.519 2028.44,-311.565 2035.28,-313.03"/>
</g>
<!-- Node5 -->
<g id="node9" class="node"><title>Node5</title>
<a xlink:href="functional_8hpp.html" target="_top" xlink:title="thrill/common/functional.hpp">
<polygon fill="none" stroke="black" points="785.5,-209.5 785.5,-230.5 924.5,-230.5 924.5,-209.5 785.5,-209.5"/>
<text text-anchor="middle" x="855" y="-217.5" font-family="Helvetica,sans-Serif" font-size="10.00">thrill/common/functional.hpp</text>
</a>
</g>
<!-- Node2&#45;&gt;Node5 -->
<g id="edge8" class="edge"><title>Node2&#45;&gt;Node5</title>
<path fill="none" stroke="midnightblue" d="M776.803,-736.086C875.275,-728.373 1076.33,-709.867 1097,-686 1115.38,-664.779 1404.23,-664.384 1083,-274 1038.34,-219.723 997.372,-254.307 929,-238 922.26,-236.393 915.178,-234.689 908.177,-232.996"/>
<polygon fill="midnightblue" stroke="midnightblue" points="908.57,-229.49 898.027,-230.535 906.921,-236.293 908.57,-229.49"/>
</g>
<!-- Node6 -->
<g id="node11" class="node"><title>Node6</title>
<polygon fill="none" stroke="#bfbfbf" points="2981,-0.5 2981,-21.5 3037,-21.5 3037,-0.5 2981,-0.5"/>
<text text-anchor="middle" x="3009" y="-8.5" font-family="Helvetica,sans-Serif" font-size="10.00">algorithm</text>
</g>
<!-- Node2&#45;&gt;Node6 -->
<g id="edge348" class="edge"><title>Node2&#45;&gt;Node6</title>
<path fill="none" stroke="midnightblue" d="M776.767,-738.997C1043.6,-733.935 2227.4,-710.475 2595,-686 2733.98,-676.746 3218,-756.291 3218,-617 3218,-617 3218,-617 3218,-148 3218,-67.2048 3107.4,-31.4605 3047.11,-17.978"/>
<polygon fill="midnightblue" stroke="midnightblue" points="3047.7,-14.5237 3037.19,-15.8571 3046.23,-21.3693 3047.7,-14.5237"/>
</g>
<!-- Node7 -->
<g id="node13" class="node"><title>Node7</title>
<polygon fill="none" stroke="#bfbfbf" points="837,-0.5 837,-21.5 875,-21.5 875,-0.5 837,-0.5"/>
<text text-anchor="middle" x="856" y="-8.5" font-family="Helvetica,sans-Serif" font-size="10.00">array</text>
</g>
<!-- Node2&#45;&gt;Node7 -->
<g id="edge350" class="edge"><title>Node2&#45;&gt;Node7</title>
<path fill="none" stroke="midnightblue" d="M669.215,-735.953C598.187,-727.343 482,-700.497 482,-617 482,-617 482,-617 482,-552 482,-398.654 573.787,-382.542 625,-238 641.56,-191.26 625.189,-171.054 653,-130 695.194,-67.7149 781.73,-33.4608 826.978,-19.1401"/>
<polygon fill="midnightblue" stroke="midnightblue" points="828.219,-22.4209 836.76,-16.1525 826.174,-15.7262 828.219,-22.4209"/>
</g>
<!-- Node2&#45;&gt;Node9 -->
<g id="edge354" class="edge"><title>Node2&#45;&gt;Node9</title>
<path fill="none" stroke="midnightblue" d="M669.391,-734.4C591.998,-725.713 453.28,-707.706 408,-686 366.264,-665.993 330,-663.284 330,-617 330,-617 330,-617 330,-292 330,-246.376 348.054,-195.231 359.274,-167.853"/>
<polygon fill="midnightblue" stroke="midnightblue" points="362.522,-169.159 363.187,-158.585 356.073,-166.436 362.522,-169.159"/>
</g>
<!-- Node11 -->
<g id="node22" class="node"><title>Node11</title>
<polygon fill="none" stroke="#bfbfbf" points="662,-137.5 662,-158.5 702,-158.5 702,-137.5 662,-137.5"/>
<text text-anchor="middle" x="682" y="-145.5" font-family="Helvetica,sans-Serif" font-size="10.00">utility</text>
</g>
<!-- Node2&#45;&gt;Node11 -->
<g id="edge360" class="edge"><title>Node2&#45;&gt;Node11</title>
<path fill="none" stroke="midnightblue" d="M669.469,-732.813C570.296,-717.988 368,-680.025 368,-617 368,-617 368,-617 368,-487 368,-327.96 524.64,-361.376 625,-238 643.486,-215.275 660.917,-186.218 671.522,-167.363"/>
<polygon fill="midnightblue" stroke="midnightblue" points="674.635,-168.966 676.415,-158.521 668.51,-165.577 674.635,-168.966"/>
</g>
<!-- Node12 -->
<g id="node24" class="node"><title>Node12</title>
<polygon fill="none" stroke="#bfbfbf" points="644,-0.5 644,-21.5 688,-21.5 688,-0.5 644,-0.5"/>
<text text-anchor="middle" x="666" y="-8.5" font-family="Helvetica,sans-Serif" font-size="10.00">vector</text>
</g>
<!-- Node2&#45;&gt;Node12 -->
<g id="edge362" class="edge"><title>Node2&#45;&gt;Node12</title>
<path fill="none" stroke="midnightblue" d="M669.185,-736.544C580.562,-730.123 408.392,-714.36 355,-686 318.326,-666.52 292,-658.526 292,-617 292,-617 292,-617 292,-292 292,-218.046 280.66,-185.089 330,-130 411.321,-39.2053 566.404,-17.6803 633.608,-12.5811"/>
<polygon fill="midnightblue" stroke="midnightblue" points="633.877,-16.071 643.615,-11.8957 633.399,-9.08734 633.877,-16.071"/>
</g>
<!-- Node13 -->
<g id="node26" class="node"><title>Node13</title>
<a xlink:href="stats__timer_8hpp.html" target="_top" xlink:title="thrill/common/stats\l_timer.hpp">
<polygon fill="none" stroke="black" points="164,-275 164,-309 264,-309 264,-275 164,-275"/>
<text text-anchor="start" x="172" y="-296" font-family="Helvetica,sans-Serif" font-size="10.00">thrill/common/stats</text>
<text text-anchor="middle" x="214" y="-283" font-family="Helvetica,sans-Serif" font-size="10.00">_timer.hpp</text>
</a>
</g>
<!-- Node2&#45;&gt;Node13 -->
<g id="edge26" class="edge"><title>Node2&#45;&gt;Node13</title>
<path fill="none" stroke="midnightblue" d="M669.382,-739.13C565.645,-736.547 342.045,-726.327 278,-686 247.222,-666.62 234,-653.371 234,-617 234,-617 234,-617 234,-429 234,-390.592 226.208,-346.756 220.351,-319.232"/>
<polygon fill="midnightblue" stroke="midnightblue" points="223.708,-318.2 218.144,-309.184 216.871,-319.702 223.708,-318.2"/>
</g>
<!-- Node20 -->
<g id="node43" class="node"><title>Node20</title>
<polygon fill="none" stroke="#bfbfbf" points="16,-0.5 16,-21.5 60,-21.5 60,-0.5 16,-0.5"/>
<text text-anchor="middle" x="38" y="-8.5" font-family="Helvetica,sans-Serif" font-size="10.00">mutex</text>
</g>
<!-- Node2&#45;&gt;Node20 -->
<g id="edge356" class="edge"><title>Node2&#45;&gt;Node20</title>
<path fill="none" stroke="midnightblue" d="M669.305,-738.388C560.984,-734.414 320.371,-721.732 247,-686 36.2573,-583.366 0,-454.406 0,-220 0,-220 0,-220 0,-148 0,-105.073 17.5377,-57.2432 28.7846,-30.9834"/>
<polygon fill="midnightblue" stroke="midnightblue" points="32.0339,-32.2896 32.8752,-21.7282 25.6313,-29.4598 32.0339,-32.2896"/>
</g>
<!-- Node22 -->
<g id="node47" class="node"><title>Node22</title>
<polygon fill="none" stroke="#bfbfbf" points="2589.5,-0.5 2589.5,-21.5 2630.5,-21.5 2630.5,-0.5 2589.5,-0.5"/>
<text text-anchor="middle" x="2610" y="-8.5" font-family="Helvetica,sans-Serif" font-size="10.00">string</text>
</g>
<!-- Node2&#45;&gt;Node22 -->
<g id="edge358" class="edge"><title>Node2&#45;&gt;Node22</title>
<path fill="none" stroke="midnightblue" d="M776.629,-738.718C1132.76,-730.033 3142,-678.319 3142,-617 3142,-617 3142,-617 3142,-552 3142,-356.887 3160.39,-266.53 3021,-130 2978.46,-88.3295 2963.69,-79.0821 2908,-58 2859.4,-39.6015 2707.07,-21.484 2641.04,-14.2682"/>
<polygon fill="midnightblue" stroke="midnightblue" points="2641.16,-10.7615 2630.85,-13.1663 2640.41,-17.7209 2641.16,-10.7615"/>
</g>
<!-- Node25 -->
<g id="node55" class="node"><title>Node25</title>
<a xlink:href="thread__barrier_8hpp.html" target="_top" xlink:title="thrill/common/thread\l_barrier.hpp">
<polygon fill="none" stroke="black" points="862.5,-347 862.5,-381 967.5,-381 967.5,-347 862.5,-347"/>
<text text-anchor="start" x="870.5" y="-368" font-family="Helvetica,sans-Serif" font-size="10.00">thrill/common/thread</text>
<text text-anchor="middle" x="915" y="-355" font-family="Helvetica,sans-Serif" font-size="10.00">_barrier.hpp</text>
</a>
</g>
<!-- Node2&#45;&gt;Node25 -->
<g id="edge60" class="edge"><title>Node2&#45;&gt;Node25</title>
<path fill="none" stroke="midnightblue" d="M776.785,-735.953C847.813,-727.343 964,-700.497 964,-617 964,-617 964,-617 964,-487 964,-451.331 945.996,-413.711 931.815,-389.61"/>
<polygon fill="midnightblue" stroke="midnightblue" points="934.803,-387.788 926.612,-381.068 928.825,-391.429 934.803,-387.788"/>
</g>
<!-- Node47 -->
<g id="node135" class="node"><title>Node47</title>
<polygon fill="none" stroke="#bfbfbf" points="879.5,-281.5 879.5,-302.5 974.5,-302.5 974.5,-281.5 879.5,-281.5"/>
<text text-anchor="middle" x="927" y="-289.5" font-family="Helvetica,sans-Serif" font-size="10.00">condition_variable</text>
</g>
<!-- Node2&#45;&gt;Node47 -->
<g id="edge352" class="edge"><title>Node2&#45;&gt;Node47</title>
<path fill="none" stroke="midnightblue" d="M776.621,-736.877C997.711,-723.653 1827,-670.486 1827,-617 1827,-617 1827,-617 1827,-552 1827,-507.764 1176.8,-350.891 981.697,-304.814"/>
<polygon fill="midnightblue" stroke="midnightblue" points="982.476,-301.402 971.939,-302.512 980.868,-308.215 982.476,-301.402"/>
</g>
<!-- Node49 -->
<g id="node140" class="node"><title>Node49</title>
<a xlink:href="group_8hpp.html" target="_top" xlink:title="thrill/net/group.hpp">
<polygon fill="none" stroke="black" points="991.5,-664.5 991.5,-685.5 1088.5,-685.5 1088.5,-664.5 991.5,-664.5"/>
<text text-anchor="middle" x="1040" y="-672.5" font-family="Helvetica,sans-Serif" font-size="10.00">thrill/net/group.hpp</text>
</a>
</g>
<!-- Node2&#45;&gt;Node49 -->
<g id="edge182" class="edge"><title>Node2&#45;&gt;Node49</title>
<path fill="none" stroke="midnightblue" d="M776.775,-728.974C833.633,-717.315 923.034,-698.984 981.589,-686.977"/>
<polygon fill="midnightblue" stroke="midnightblue" points="982.337,-690.397 991.43,-684.959 980.931,-683.539 982.337,-690.397"/>
</g>
<!-- Node4 -->
<g id="node7" class="node"><title>Node4</title>
<polygon fill="none" stroke="#bfbfbf" points="1726,-65.5 1726,-86.5 1788,-86.5 1788,-65.5 1726,-65.5"/>
<text text-anchor="middle" x="1757" y="-73.5" font-family="Helvetica,sans-Serif" font-size="10.00">type_traits</text>
</g>
<!-- Node3&#45;&gt;Node4 -->
<g id="edge6" class="edge"><title>Node3&#45;&gt;Node4</title>
<path fill="none" stroke="midnightblue" d="M2036.86,-281.405C2038.57,-252.431 2039,-171.295 1995,-130 1931.37,-70.2887 1885.8,-118.32 1802,-94 1798.2,-92.897 1794.28,-91.5918 1790.4,-90.1958"/>
<polygon fill="midnightblue" stroke="midnightblue" points="1791.57,-86.8959 1780.98,-86.6025 1789.08,-93.4364 1791.57,-86.8959"/>
</g>
<!-- Node5&#45;&gt;Node4 -->
<g id="edge20" class="edge"><title>Node5&#45;&gt;Node4</title>
<path fill="none" stroke="midnightblue" d="M924.697,-211.228C951.08,-208.072 981.401,-204.642 1009,-202 1115.92,-191.763 1394.36,-212.884 1491,-166 1510.53,-156.526 1505.02,-140.532 1524,-130 1600.3,-87.6599 1633.73,-120.089 1717,-94 1720.12,-93.021 1723.33,-91.863 1726.5,-90.6138"/>
<polygon fill="midnightblue" stroke="midnightblue" points="1727.94,-93.805 1735.78,-86.6803 1725.2,-87.36 1727.94,-93.805"/>
</g>
<!-- Node5&#45;&gt;Node6 -->
<g id="edge10" class="edge"><title>Node5&#45;&gt;Node6</title>
<path fill="none" stroke="midnightblue" d="M924.648,-210.665C951.026,-207.444 981.355,-204.117 1009,-202 1446.23,-168.519 1558.43,-207.199 1995,-166 2378.23,-129.835 2837.18,-44.2436 2970.79,-18.4705"/>
<polygon fill="midnightblue" stroke="midnightblue" points="2971.77,-21.8463 2980.92,-16.5104 2970.44,-14.9737 2971.77,-21.8463"/>
</g>
<!-- Node5&#45;&gt;Node7 -->
<g id="edge12" class="edge"><title>Node5&#45;&gt;Node7</title>
<path fill="none" stroke="midnightblue" d="M838.416,-209.426C824.319,-199.677 804.442,-184.018 792,-166 763.946,-125.374 740.415,-100.225 766,-58 779.188,-36.2344 806.126,-24.0702 827.11,-17.6004"/>
<polygon fill="midnightblue" stroke="midnightblue" points="828.167,-20.9392 836.847,-14.8646 826.273,-14.2002 828.167,-20.9392"/>
</g>
<!-- Node8 -->
<g id="node15" class="node"><title>Node8</title>
<polygon fill="none" stroke="#bfbfbf" points="1456.5,-0.5 1456.5,-21.5 1505.5,-21.5 1505.5,-0.5 1456.5,-0.5"/>
<text text-anchor="middle" x="1481" y="-8.5" font-family="Helvetica,sans-Serif" font-size="10.00">cassert</text>
</g>
<!-- Node5&#45;&gt;Node8 -->
<g id="edge14" class="edge"><title>Node5&#45;&gt;Node8</title>
<path fill="none" stroke="midnightblue" d="M845.63,-209.295C831.097,-191.343 806.615,-154.71 825,-130 900.193,-28.9384 1321.73,-13.704 1446.32,-11.4076"/>
<polygon fill="midnightblue" stroke="midnightblue" points="1446.5,-14.9051 1456.44,-11.2379 1446.38,-7.90611 1446.5,-14.9051"/>
</g>
<!-- Node5&#45;&gt;Node9 -->
<g id="edge16" class="edge"><title>Node5&#45;&gt;Node9</title>
<path fill="none" stroke="midnightblue" d="M785.484,-209.722C681.901,-194.408 490.392,-166.095 407.714,-153.872"/>
<polygon fill="midnightblue" stroke="midnightblue" points="408.123,-150.394 397.718,-152.394 407.099,-157.319 408.123,-150.394"/>
</g>
<!-- Node10 -->
<g id="node19" class="node"><title>Node10</title>
<polygon fill="none" stroke="#bfbfbf" points="834,-137.5 834,-158.5 872,-158.5 872,-137.5 834,-137.5"/>
<text text-anchor="middle" x="853" y="-145.5" font-family="Helvetica,sans-Serif" font-size="10.00">tuple</text>
</g>
<!-- Node5&#45;&gt;Node10 -->
<g id="edge18" class="edge"><title>Node5&#45;&gt;Node10</title>
<path fill="none" stroke="midnightblue" d="M854.705,-209.376C854.409,-198.741 853.947,-182.095 853.578,-168.82"/>
<polygon fill="midnightblue" stroke="midnightblue" points="857.073,-168.566 853.296,-158.667 850.075,-168.761 857.073,-168.566"/>
</g>
<!-- Node5&#45;&gt;Node11 -->
<g id="edge22" class="edge"><title>Node5&#45;&gt;Node11</title>
<path fill="none" stroke="midnightblue" d="M824.755,-209.404C796.313,-199.169 752.732,-182.789 716,-166 714.178,-165.167 712.315,-164.282 710.448,-163.369"/>
<polygon fill="midnightblue" stroke="midnightblue" points="711.723,-160.091 701.224,-158.676 708.549,-166.33 711.723,-160.091"/>
</g>
<!-- Node5&#45;&gt;Node12 -->
<g id="edge24" class="edge"><title>Node5&#45;&gt;Node12</title>
<path fill="none" stroke="midnightblue" d="M830.486,-209.396C810.864,-200.039 783.495,-184.952 764,-166 721.773,-124.949 689.403,-62.2943 674.692,-30.6904"/>
<polygon fill="midnightblue" stroke="midnightblue" points="677.877,-29.2373 670.547,-21.5872 671.506,-32.1385 677.877,-29.2373"/>
</g>
<!-- Node13&#45;&gt;Node8 -->
<g id="edge54" class="edge"><title>Node13&#45;&gt;Node8</title>
<path fill="none" stroke="midnightblue" d="M258.708,-274.991C337.906,-244.975 508.163,-180.963 653,-130 748.059,-96.5526 769.234,-78.0038 868,-58 979.984,-35.3191 1333.4,-17.7025 1446.1,-12.5427"/>
<polygon fill="midnightblue" stroke="midnightblue" points="1446.41,-16.0324 1456.24,-12.0825 1446.09,-9.03958 1446.41,-16.0324"/>
</g>
<!-- Node14 -->
<g id="node28" class="node"><title>Node14</title>
<a xlink:href="atomic__movable_8hpp.html" target="_top" xlink:title="thrill/common/atomic\l_movable.hpp">
<polygon fill="none" stroke="black" points="509.5,-203 509.5,-237 616.5,-237 616.5,-203 509.5,-203"/>
<text text-anchor="start" x="517.5" y="-224" font-family="Helvetica,sans-Serif" font-size="10.00">thrill/common/atomic</text>
<text text-anchor="middle" x="563" y="-211" font-family="Helvetica,sans-Serif" font-size="10.00">_movable.hpp</text>
</a>
</g>
<!-- Node13&#45;&gt;Node14 -->
<g id="edge28" class="edge"><title>Node13&#45;&gt;Node14</title>
<path fill="none" stroke="midnightblue" d="M264.003,-281.684C325.943,-268.906 431.55,-247.119 499.251,-233.152"/>
<polygon fill="midnightblue" stroke="midnightblue" points="500.28,-236.513 509.366,-231.065 498.865,-229.658 500.28,-236.513"/>
</g>
<!-- Node16 -->
<g id="node33" class="node"><title>Node16</title>
<a xlink:href="json__logger_8hpp.html" target="_top" xlink:title="thrill/common/json\l_logger.hpp">
<polygon fill="none" stroke="black" points="251,-59 251,-93 347,-93 347,-59 251,-59"/>
<text text-anchor="start" x="259" y="-80" font-family="Helvetica,sans-Serif" font-size="10.00">thrill/common/json</text>
<text text-anchor="middle" x="299" y="-67" font-family="Helvetica,sans-Serif" font-size="10.00">_logger.hpp</text>
</a>
</g>
<!-- Node13&#45;&gt;Node16 -->
<g id="edge34" class="edge"><title>Node13&#45;&gt;Node16</title>
<path fill="none" stroke="midnightblue" d="M209.492,-274.953C205.423,-256.502 201.168,-226.44 209,-202 221.751,-162.21 252.195,-124.29 274.147,-100.636"/>
<polygon fill="midnightblue" stroke="midnightblue" points="276.88,-102.841 281.229,-93.1798 271.804,-98.0209 276.88,-102.841"/>
</g>
<!-- Node23 -->
<g id="node51" class="node"><title>Node23</title>
<polygon fill="none" stroke="#bfbfbf" points="218,-209.5 218,-230.5 264,-230.5 264,-209.5 218,-209.5"/>
<text text-anchor="middle" x="241" y="-217.5" font-family="Helvetica,sans-Serif" font-size="10.00">chrono</text>
</g>
<!-- Node13&#45;&gt;Node23 -->
<g id="edge56" class="edge"><title>Node13&#45;&gt;Node23</title>
<path fill="none" stroke="midnightblue" d="M220.399,-274.937C224.275,-264.601 229.243,-251.352 233.329,-240.456"/>
<polygon fill="midnightblue" stroke="midnightblue" points="236.678,-241.493 236.912,-230.901 230.124,-239.035 236.678,-241.493"/>
</g>
<!-- Node24 -->
<g id="node53" class="node"><title>Node24</title>
<polygon fill="none" stroke="#bfbfbf" points="168,-0.5 168,-21.5 220,-21.5 220,-0.5 168,-0.5"/>
<text text-anchor="middle" x="194" y="-8.5" font-family="Helvetica,sans-Serif" font-size="10.00">ostream</text>
</g>
<!-- Node13&#45;&gt;Node24 -->
<g id="edge58" class="edge"><title>Node13&#45;&gt;Node24</title>
<path fill="none" stroke="midnightblue" d="M208.865,-274.662C205.995,-264.155 202.669,-250.424 201,-238 190.897,-162.793 192.028,-72.3706 193.212,-32.1145"/>
<polygon fill="midnightblue" stroke="midnightblue" points="196.716,-32.0425 193.546,-21.9332 189.72,-31.8131 196.716,-32.0425"/>
</g>
<!-- Node14&#45;&gt;Node11 -->
<g id="edge32" class="edge"><title>Node14&#45;&gt;Node11</title>
<path fill="none" stroke="midnightblue" d="M591.201,-202.937C610.693,-191.144 636.449,-175.56 655.55,-164.004"/>
<polygon fill="midnightblue" stroke="midnightblue" points="657.591,-166.859 664.335,-158.688 653.967,-160.87 657.591,-166.859"/>
</g>
<!-- Node15 -->
<g id="node30" class="node"><title>Node15</title>
<polygon fill="none" stroke="#bfbfbf" points="434,-0.5 434,-21.5 480,-21.5 480,-0.5 434,-0.5"/>
<text text-anchor="middle" x="457" y="-8.5" font-family="Helvetica,sans-Serif" font-size="10.00">atomic</text>
</g>
<!-- Node14&#45;&gt;Node15 -->
<g id="edge30" class="edge"><title>Node14&#45;&gt;Node15</title>
<path fill="none" stroke="midnightblue" d="M554.326,-202.897C534.866,-164.529 487.819,-71.7662 467.092,-30.899"/>
<polygon fill="midnightblue" stroke="midnightblue" points="470.177,-29.2436 462.532,-21.9082 463.934,-32.4099 470.177,-29.2436"/>
</g>
<!-- Node16&#45;&gt;Node7 -->
<g id="edge38" class="edge"><title>Node16&#45;&gt;Node7</title>
<path fill="none" stroke="midnightblue" d="M347.456,-70.3454C460,-57.2118 736.365,-24.961 826.821,-14.4051"/>
<polygon fill="midnightblue" stroke="midnightblue" points="827.38,-17.8637 836.907,-13.2281 826.569,-10.9109 827.38,-17.8637"/>
</g>
<!-- Node16&#45;&gt;Node8 -->
<g id="edge40" class="edge"><title>Node16&#45;&gt;Node8</title>
<path fill="none" stroke="midnightblue" d="M347.408,-71.4362C390.758,-67.4667 456.081,-61.7744 513,-58 877.596,-33.8229 1320.22,-16.8422 1446.11,-12.2472"/>
<polygon fill="midnightblue" stroke="midnightblue" points="1446.43,-15.7378 1456.3,-11.8771 1446.18,-8.74244 1446.43,-15.7378"/>
</g>
<!-- Node16&#45;&gt;Node12 -->
<g id="edge52" class="edge"><title>Node16&#45;&gt;Node12</title>
<path fill="none" stroke="midnightblue" d="M347.06,-67.3105C363.527,-64.3435 382.067,-61.0143 399,-58 483.792,-42.9058 583.782,-25.3768 633.923,-16.6055"/>
<polygon fill="midnightblue" stroke="midnightblue" points="634.594,-20.0412 643.842,-14.8708 633.389,-13.1459 634.594,-20.0412"/>
</g>
<!-- Node17 -->
<g id="node35" class="node"><title>Node17</title>
<polygon fill="none" stroke="#bfbfbf" points="238,-0.5 238,-21.5 348,-21.5 348,-0.5 238,-0.5"/>
<text text-anchor="middle" x="293" y="-8.5" font-family="Helvetica,sans-Serif" font-size="10.00">tlx/meta/vexpand.hpp</text>
</g>
<!-- Node16&#45;&gt;Node17 -->
<g id="edge36" class="edge"><title>Node16&#45;&gt;Node17</title>
<path fill="none" stroke="midnightblue" d="M297.424,-58.922C296.662,-50.6704 295.741,-40.6922 294.937,-31.9818"/>
<polygon fill="midnightblue" stroke="midnightblue" points="298.406,-31.488 294.002,-21.8521 291.436,-32.1315 298.406,-31.488"/>
</g>
<!-- Node18 -->
<g id="node39" class="node"><title>Node18</title>
<polygon fill="none" stroke="#bfbfbf" points="366,-0.5 366,-21.5 416,-21.5 416,-0.5 366,-0.5"/>
<text text-anchor="middle" x="391" y="-8.5" font-family="Helvetica,sans-Serif" font-size="10.00">fstream</text>
</g>
<!-- Node16&#45;&gt;Node18 -->
<g id="edge42" class="edge"><title>Node16&#45;&gt;Node18</title>
<path fill="none" stroke="midnightblue" d="M323.172,-58.922C336.885,-49.2335 353.967,-37.1645 367.558,-27.5623"/>
<polygon fill="midnightblue" stroke="midnightblue" points="369.767,-30.2873 375.914,-21.6584 365.727,-24.5702 369.767,-30.2873"/>
</g>
<!-- Node19 -->
<g id="node41" class="node"><title>Node19</title>
<polygon fill="none" stroke="#bfbfbf" points="77.5,-0.5 77.5,-21.5 150.5,-21.5 150.5,-0.5 77.5,-0.5"/>
<text text-anchor="middle" x="114" y="-8.5" font-family="Helvetica,sans-Serif" font-size="10.00">initializer_list</text>
</g>
<!-- Node16&#45;&gt;Node19 -->
<g id="edge44" class="edge"><title>Node16&#45;&gt;Node19</title>
<path fill="none" stroke="midnightblue" d="M250.876,-59.0917C220.614,-48.4588 182.046,-34.9079 153.567,-24.902"/>
<polygon fill="midnightblue" stroke="midnightblue" points="154.54,-21.5341 143.945,-21.5213 152.22,-28.1383 154.54,-21.5341"/>
</g>
<!-- Node16&#45;&gt;Node20 -->
<g id="edge46" class="edge"><title>Node16&#45;&gt;Node20</title>
<path fill="none" stroke="midnightblue" d="M250.58,-66.2573C205.949,-56.914 137.746,-41.7207 70.2112,-22.1474"/>
<polygon fill="midnightblue" stroke="midnightblue" points="70.8356,-18.6832 60.2548,-19.228 68.8659,-25.4004 70.8356,-18.6832"/>
</g>
<!-- Node21 -->
<g id="node45" class="node"><title>Node21</title>
<polygon fill="none" stroke="#bfbfbf" points="982,-0.5 982,-21.5 1034,-21.5 1034,-0.5 982,-0.5"/>
<text text-anchor="middle" x="1008" y="-8.5" font-family="Helvetica,sans-Serif" font-size="10.00">sstream</text>
</g>
<!-- Node16&#45;&gt;Node21 -->
<g id="edge48" class="edge"><title>Node16&#45;&gt;Node21</title>
<path fill="none" stroke="midnightblue" d="M347.175,-71.5834C480.748,-59.3377 853.708,-25.1452 971.715,-14.3265"/>
<polygon fill="midnightblue" stroke="midnightblue" points="972.051,-17.8105 981.69,-13.4121 971.412,-10.8398 972.051,-17.8105"/>
</g>
<!-- Node16&#45;&gt;Node22 -->
<g id="edge50" class="edge"><title>Node16&#45;&gt;Node22</title>
<path fill="none" stroke="midnightblue" d="M347.394,-74.8781C619.495,-68.5494 1961.33,-37.0601 2375,-22 2448.15,-19.3368 2534.06,-15.0112 2579.01,-12.6561"/>
<polygon fill="midnightblue" stroke="midnightblue" points="2579.46,-16.1373 2589.26,-12.1158 2579.09,-9.14703 2579.46,-16.1373"/>
</g>
<!-- Node25&#45;&gt;Node3 -->
<g id="edge64" class="edge"><title>Node25&#45;&gt;Node3</title>
<path fill="none" stroke="midnightblue" d="M967.662,-361.364C1107.52,-354.258 1499.88,-333.638 1826,-310 1871.08,-306.732 1921.56,-302.427 1961.72,-298.846"/>
<polygon fill="midnightblue" stroke="midnightblue" points="1962.05,-302.331 1971.7,-297.952 1961.43,-295.358 1962.05,-302.331"/>
</g>
<!-- Node25&#45;&gt;Node5 -->
<g id="edge66" class="edge"><title>Node25&#45;&gt;Node5</title>
<path fill="none" stroke="midnightblue" d="M896.953,-346.607C887.767,-336.727 877.249,-323.631 871,-310 860.821,-287.794 857.098,-259.754 855.748,-240.924"/>
<polygon fill="midnightblue" stroke="midnightblue" points="859.233,-240.561 855.186,-230.77 852.244,-240.948 859.233,-240.561"/>
</g>
<!-- Node25&#45;&gt;Node13 -->
<g id="edge172" class="edge"><title>Node25&#45;&gt;Node13</title>
<path fill="none" stroke="midnightblue" d="M862.311,-358.588C734.768,-345.488 409.977,-312.129 274.639,-298.228"/>
<polygon fill="midnightblue" stroke="midnightblue" points="274.759,-294.722 264.454,-297.182 274.044,-301.686 274.759,-294.722"/>
</g>
<!-- Node25&#45;&gt;Node14 -->
<g id="edge62" class="edge"><title>Node25&#45;&gt;Node14</title>
<path fill="none" stroke="midnightblue" d="M873.239,-346.916C808.536,-320.447 684.242,-269.599 614.216,-240.952"/>
<polygon fill="midnightblue" stroke="midnightblue" points="615.288,-237.609 604.707,-237.062 612.637,-244.088 615.288,-237.609"/>
</g>
<!-- Node25&#45;&gt;Node15 -->
<g id="edge174" class="edge"><title>Node25&#45;&gt;Node15</title>
<path fill="none" stroke="midnightblue" d="M862.29,-362.207C693.995,-356.23 179.117,-335.892 155,-310 91.7217,-242.066 -45.3319,-295.662 242,-58 303.379,-7.23148 341.86,-40.6662 423.519,-21.971"/>
<polygon fill="midnightblue" stroke="midnightblue" points="424.845,-25.2471 433.695,-19.4235 423.145,-18.4566 424.845,-25.2471"/>
</g>
<!-- Node25&#45;&gt;Node20 -->
<g id="edge178" class="edge"><title>Node25&#45;&gt;Node20</title>
<path fill="none" stroke="midnightblue" d="M862.227,-363.278C691.397,-360.566 160.739,-349.049 95,-310 54.2925,-285.82 38,-267.347 38,-220 38,-220 38,-220 38,-148 38,-106.793 38,-58.6141 38,-31.7728"/>
<polygon fill="midnightblue" stroke="midnightblue" points="41.5001,-31.6583 38,-21.6583 34.5001,-31.6583 41.5001,-31.6583"/>
</g>
<!-- Node26 -->
<g id="node60" class="node"><title>Node26</title>
<a xlink:href="logger_8hpp.html" target="_top" xlink:title="thrill/common/logger.hpp">
<polygon fill="none" stroke="black" points="1694.5,-281.5 1694.5,-302.5 1817.5,-302.5 1817.5,-281.5 1694.5,-281.5"/>
<text text-anchor="middle" x="1756" y="-289.5" font-family="Helvetica,sans-Serif" font-size="10.00">thrill/common/logger.hpp</text>
</a>
</g>
<!-- Node25&#45;&gt;Node26 -->
<g id="edge68" class="edge"><title>Node25&#45;&gt;Node26</title>
<path fill="none" stroke="midnightblue" d="M967.661,-362.534C1090.62,-358.606 1406,-345.616 1667,-310 1677.53,-308.562 1688.7,-306.633 1699.42,-304.571"/>
<polygon fill="midnightblue" stroke="midnightblue" points="1700.41,-307.943 1709.54,-302.564 1699.05,-301.077 1700.41,-307.943"/>
</g>
<!-- Node25&#45;&gt;Node47 -->
<g id="edge176" class="edge"><title>Node25&#45;&gt;Node47</title>
<path fill="none" stroke="midnightblue" d="M917.844,-346.937C919.549,-336.707 921.729,-323.625 923.534,-312.794"/>
<polygon fill="midnightblue" stroke="midnightblue" points="926.991,-313.34 925.183,-302.901 920.087,-312.19 926.991,-313.34"/>
</g>
<!-- Node48 -->
<g id="node138" class="node"><title>Node48</title>
<polygon fill="none" stroke="#bfbfbf" points="1030,-281.5 1030,-302.5 1074,-302.5 1074,-281.5 1030,-281.5"/>
<text text-anchor="middle" x="1052" y="-289.5" font-family="Helvetica,sans-Serif" font-size="10.00">thread</text>
</g>
<!-- Node25&#45;&gt;Node48 -->
<g id="edge180" class="edge"><title>Node25&#45;&gt;Node48</title>
<path fill="none" stroke="midnightblue" d="M947.467,-346.937C970.315,-334.929 1000.64,-318.992 1022.74,-307.377"/>
<polygon fill="midnightblue" stroke="midnightblue" points="1024.44,-310.438 1031.66,-302.688 1021.18,-304.242 1024.44,-310.438"/>
</g>
<!-- Node26&#45;&gt;Node21 -->
<g id="edge168" class="edge"><title>Node26&#45;&gt;Node21</title>
<path fill="none" stroke="midnightblue" d="M1708.12,-281.408C1694.85,-278.72 1680.41,-276.024 1667,-274 1508.88,-250.12 1460.96,-287.801 1309,-238 1189.34,-198.785 1157.04,-179.933 1065,-94 1045.06,-75.3791 1028.24,-48.608 1018.15,-30.5486"/>
<polygon fill="midnightblue" stroke="midnightblue" points="1021.11,-28.6467 1013.27,-21.519 1014.95,-31.9793 1021.11,-28.6467"/>
</g>
<!-- Node26&#45;&gt;Node22 -->
<g id="edge170" class="edge"><title>Node26&#45;&gt;Node22</title>
<path fill="none" stroke="midnightblue" d="M1811.93,-281.49C1859.72,-271.942 1930.05,-256.537 1990,-238 2115.84,-199.086 2138.69,-163.83 2266,-130 2371.94,-101.847 2409.89,-138.661 2510,-94 2519.15,-89.9181 2563.74,-51.5424 2590.19,-28.4274"/>
<polygon fill="midnightblue" stroke="midnightblue" points="2592.54,-31.0209 2597.76,-21.7985 2587.93,-25.7558 2592.54,-31.0209"/>
</g>
<!-- Node27 -->
<g id="node62" class="node"><title>Node27</title>
<a xlink:href="allocator_8hpp.html" target="_top" xlink:title="thrill/mem/allocator.hpp">
<polygon fill="none" stroke="black" points="1318,-209.5 1318,-230.5 1436,-230.5 1436,-209.5 1318,-209.5"/>
<text text-anchor="middle" x="1377" y="-217.5" font-family="Helvetica,sans-Serif" font-size="10.00">thrill/mem/allocator.hpp</text>
</a>
</g>
<!-- Node26&#45;&gt;Node27 -->
<g id="edge70" class="edge"><title>Node26&#45;&gt;Node27</title>
<path fill="none" stroke="midnightblue" d="M1704.73,-281.49C1692.38,-278.997 1679.23,-276.374 1667,-274 1591.08,-259.255 1503.82,-243.115 1445.01,-232.357"/>
<polygon fill="midnightblue" stroke="midnightblue" points="1445.56,-228.901 1435.1,-230.546 1444.31,-235.787 1445.56,-228.901"/>
</g>
<!-- Node43 -->
<g id="node115" class="node"><title>Node43</title>
<a xlink:href="pool_8hpp.html" target="_top" xlink:title="thrill/mem/pool.hpp">
<polygon fill="none" stroke="black" points="1721.5,-209.5 1721.5,-230.5 1820.5,-230.5 1820.5,-209.5 1721.5,-209.5"/>
<text text-anchor="middle" x="1771" y="-217.5" font-family="Helvetica,sans-Serif" font-size="10.00">thrill/mem/pool.hpp</text>
</a>
</g>
<!-- Node26&#45;&gt;Node43 -->
<g id="edge144" class="edge"><title>Node26&#45;&gt;Node43</title>
<path fill="none" stroke="midnightblue" d="M1758.21,-281.376C1760.43,-270.741 1763.9,-254.095 1766.66,-240.82"/>
<polygon fill="midnightblue" stroke="midnightblue" points="1770.16,-241.171 1768.78,-230.667 1763.31,-239.743 1770.16,-241.171"/>
</g>
<!-- Node27&#45;&gt;Node4 -->
<g id="edge140" class="edge"><title>Node27&#45;&gt;Node4</title>
<path fill="none" stroke="midnightblue" d="M1414.85,-209.441C1445.33,-200.157 1488.76,-185.148 1524,-166 1547.43,-153.267 1547.91,-141.441 1572,-130 1631.98,-101.511 1654.25,-115.712 1717,-94 1719.93,-92.9869 1722.94,-91.8411 1725.92,-90.6305"/>
<polygon fill="midnightblue" stroke="midnightblue" points="1727.46,-93.7783 1735.28,-86.6253 1724.71,-87.3431 1727.46,-93.7783"/>
</g>
<!-- Node27&#45;&gt;Node8 -->
<g id="edge128" class="edge"><title>Node27&#45;&gt;Node8</title>
<path fill="none" stroke="midnightblue" d="M1355.57,-209.485C1306.02,-183.827 1191.29,-115.869 1239,-58 1264.88,-26.6142 1385.75,-15.9248 1446.28,-12.5009"/>
<polygon fill="midnightblue" stroke="midnightblue" points="1446.69,-15.9839 1456.5,-11.9598 1446.32,-8.99367 1446.69,-15.9839"/>
</g>
<!-- Node27&#45;&gt;Node12 -->
<g id="edge142" class="edge"><title>Node27&#45;&gt;Node12</title>
<path fill="none" stroke="midnightblue" d="M1327.06,-209.454C1236.84,-189.938 1041.11,-145.455 880,-94 813.931,-72.899 738.783,-42.1253 697.44,-24.5847"/>
<polygon fill="midnightblue" stroke="midnightblue" points="698.742,-21.335 688.17,-20.633 695.996,-27.7743 698.742,-21.335"/>
</g>
<!-- Node27&#45;&gt;Node22 -->
<g id="edge138" class="edge"><title>Node27&#45;&gt;Node22</title>
<path fill="none" stroke="midnightblue" d="M1435.22,-209.473C1472.89,-201.131 1522.16,-187.278 1562,-166 1583.99,-154.259 1581.81,-139.129 1605,-130 1745.6,-74.6566 2145.98,-155.5 2284,-94 2304.67,-84.7903 2299.86,-68.3088 2320,-58 2365.05,-34.9428 2514.53,-19.3895 2579.45,-13.5619"/>
<polygon fill="midnightblue" stroke="midnightblue" points="2579.82,-17.043 2589.48,-12.6795 2579.21,-10.0699 2579.82,-17.043"/>
</g>
<!-- Node28 -->
<g id="node64" class="node"><title>Node28</title>
<a xlink:href="allocator__base_8hpp.html" target="_top" xlink:title="thrill/mem/allocator\l_base.hpp">
<polygon fill="none" stroke="black" points="1383.5,-131 1383.5,-165 1482.5,-165 1482.5,-131 1383.5,-131"/>
<text text-anchor="start" x="1391.5" y="-152" font-family="Helvetica,sans-Serif" font-size="10.00">thrill/mem/allocator</text>
<text text-anchor="middle" x="1433" y="-139" font-family="Helvetica,sans-Serif" font-size="10.00">_base.hpp</text>
</a>
</g>
<!-- Node27&#45;&gt;Node28 -->
<g id="edge72" class="edge"><title>Node27&#45;&gt;Node28</title>
<path fill="none" stroke="midnightblue" d="M1385.26,-209.376C1392.63,-199.905 1403.7,-185.666 1413.33,-173.286"/>
<polygon fill="midnightblue" stroke="midnightblue" points="1416.33,-175.137 1419.7,-165.094 1410.8,-170.839 1416.33,-175.137"/>
</g>
<!-- Node37 -->
<g id="node87" class="node"><title>Node37</title>
<a xlink:href="mem_2manager_8hpp.html" target="_top" xlink:title="thrill/mem/manager.hpp">
<polygon fill="none" stroke="black" points="1421.5,-65.5 1421.5,-86.5 1540.5,-86.5 1540.5,-65.5 1421.5,-65.5"/>
<text text-anchor="middle" x="1481" y="-73.5" font-family="Helvetica,sans-Serif" font-size="10.00">thrill/mem/manager.hpp</text>
</a>
</g>
<!-- Node27&#45;&gt;Node37 -->
<g id="edge126" class="edge"><title>Node27&#45;&gt;Node37</title>
<path fill="none" stroke="midnightblue" d="M1373.31,-209.341C1367.83,-191.455 1359.73,-154.919 1375,-130 1386.69,-110.922 1407.47,-98.3199 1427.56,-90.1298"/>
<polygon fill="midnightblue" stroke="midnightblue" points="1428.89,-93.3687 1437.01,-86.5624 1426.41,-86.8198 1428.89,-93.3687"/>
</g>
<!-- Node39 -->
<g id="node96" class="node"><title>Node39</title>
<polygon fill="none" stroke="#bfbfbf" points="1299.5,-65.5 1299.5,-86.5 1342.5,-86.5 1342.5,-65.5 1299.5,-65.5"/>
<text text-anchor="middle" x="1321" y="-73.5" font-family="Helvetica,sans-Serif" font-size="10.00">deque</text>
</g>
<!-- Node27&#45;&gt;Node39 -->
<g id="edge130" class="edge"><title>Node27&#45;&gt;Node39</title>
<path fill="none" stroke="midnightblue" d="M1365.45,-209.182C1355.4,-199.041 1341.32,-182.941 1334,-166 1324.36,-143.694 1321.61,-115.674 1320.95,-96.8762"/>
<polygon fill="midnightblue" stroke="midnightblue" points="1324.45,-96.6771 1320.77,-86.7418 1317.45,-96.8033 1324.45,-96.6771"/>
</g>
<!-- Node40 -->
<g id="node98" class="node"><title>Node40</title>
<polygon fill="none" stroke="#bfbfbf" points="1359.5,-65.5 1359.5,-86.5 1404.5,-86.5 1404.5,-65.5 1359.5,-65.5"/>
<text text-anchor="middle" x="1382" y="-73.5" font-family="Helvetica,sans-Serif" font-size="10.00">iosfwd</text>
</g>
<!-- Node27&#45;&gt;Node40 -->
<g id="edge132" class="edge"><title>Node27&#45;&gt;Node40</title>
<path fill="none" stroke="midnightblue" d="M1367.41,-209.369C1358.86,-199.109 1346.94,-182.713 1342,-166 1337.46,-150.657 1336.99,-145.194 1342,-130 1346.4,-116.67 1355.5,-103.943 1363.91,-94.1954"/>
<polygon fill="midnightblue" stroke="midnightblue" points="1366.54,-96.507 1370.69,-86.7608 1361.37,-91.7887 1366.54,-96.507"/>
</g>
<!-- Node41 -->
<g id="node100" class="node"><title>Node41</title>
<polygon fill="none" stroke="#bfbfbf" points="1247.5,-65.5 1247.5,-86.5 1282.5,-86.5 1282.5,-65.5 1247.5,-65.5"/>
<text text-anchor="middle" x="1265" y="-73.5" font-family="Helvetica,sans-Serif" font-size="10.00">new</text>
</g>
<!-- Node27&#45;&gt;Node41 -->
<g id="edge136" class="edge"><title>Node27&#45;&gt;Node41</title>
<path fill="none" stroke="midnightblue" d="M1363.83,-209.284C1351.62,-198.965 1333.38,-182.529 1320,-166 1301.75,-143.456 1285.03,-114.356 1274.93,-95.4426"/>
<polygon fill="midnightblue" stroke="midnightblue" points="1278.02,-93.802 1270.28,-86.5693 1271.82,-97.0513 1278.02,-93.802"/>
</g>
<!-- Node42 -->
<g id="node109" class="node"><title>Node42</title>
<polygon fill="none" stroke="#bfbfbf" points="1614,-137.5 1614,-158.5 1666,-158.5 1666,-137.5 1614,-137.5"/>
<text text-anchor="middle" x="1640" y="-145.5" font-family="Helvetica,sans-Serif" font-size="10.00">memory</text>
</g>
<!-- Node27&#45;&gt;Node42 -->
<g id="edge134" class="edge"><title>Node27&#45;&gt;Node42</title>
<path fill="none" stroke="midnightblue" d="M1432.8,-209.483C1478.41,-200.177 1544.23,-185.116 1600,-166 1602.93,-164.995 1605.94,-163.855 1608.93,-162.648"/>
<polygon fill="midnightblue" stroke="midnightblue" points="1610.47,-165.797 1618.29,-158.649 1607.72,-159.36 1610.47,-165.797"/>
</g>
<!-- Node28&#45;&gt;Node4 -->
<g id="edge122" class="edge"><title>Node28&#45;&gt;Node4</title>
<path fill="none" stroke="midnightblue" d="M1482.73,-133.212C1487.2,-132.058 1491.67,-130.968 1496,-130 1593.12,-108.293 1621.7,-122.664 1717,-94 1720.21,-93.0349 1723.5,-91.8698 1726.74,-90.602"/>
<polygon fill="midnightblue" stroke="midnightblue" points="1728.38,-93.7097 1736.22,-86.5877 1725.65,-87.2637 1728.38,-93.7097"/>
</g>
<!-- Node28&#45;&gt;Node8 -->
<g id="edge112" class="edge"><title>Node28&#45;&gt;Node8</title>
<path fill="none" stroke="midnightblue" d="M1482.73,-130.967C1510.52,-120.333 1541.12,-106.363 1549,-94 1557.6,-80.5085 1556.43,-72.1696 1549,-58 1541.58,-43.853 1527.76,-33.1226 1514.5,-25.5124"/>
<polygon fill="midnightblue" stroke="midnightblue" points="1515.97,-22.3322 1505.5,-20.7386 1512.7,-28.5162 1515.97,-22.3322"/>
</g>
<!-- Node28&#45;&gt;Node12 -->
<g id="edge124" class="edge"><title>Node28&#45;&gt;Node12</title>
<path fill="none" stroke="midnightblue" d="M1383.5,-138.746C1367.13,-135.802 1348.81,-132.629 1332,-130 1213.7,-111.491 1182.81,-115.403 1065,-94 994.564,-81.2037 978.037,-72.8264 908,-58 833.029,-42.129 744.546,-25.467 698.128,-16.8845"/>
<polygon fill="midnightblue" stroke="midnightblue" points="698.541,-13.4018 688.072,-15.0301 697.272,-20.2857 698.541,-13.4018"/>
</g>
<!-- Node28&#45;&gt;Node15 -->
<g id="edge110" class="edge"><title>Node28&#45;&gt;Node15</title>
<path fill="none" stroke="midnightblue" d="M1383.19,-141.1C1356.73,-137.547 1323.63,-133.285 1294,-130 1120.99,-110.819 1076.42,-117.914 904,-94 748.259,-72.3989 564.236,-34.1588 490.247,-18.2539"/>
<polygon fill="midnightblue" stroke="midnightblue" points="490.658,-14.7622 480.145,-16.074 489.182,-21.6047 490.658,-14.7622"/>
</g>
<!-- Node28&#45;&gt;Node22 -->
<g id="edge120" class="edge"><title>Node28&#45;&gt;Node22</title>
<path fill="none" stroke="midnightblue" d="M1482.76,-140.629C1509.21,-136.945 1542.31,-132.707 1572,-130 1722.03,-116.316 2108.82,-149.192 2249,-94 2272.19,-84.8691 2269.26,-68.206 2292,-58 2343.11,-35.0612 2509.63,-19.1955 2579.11,-13.4166"/>
<polygon fill="midnightblue" stroke="midnightblue" points="2579.71,-16.8789 2589.4,-12.5761 2579.14,-9.9022 2579.71,-16.8789"/>
</g>
<!-- Node29 -->
<g id="node66" class="node"><title>Node29</title>
<a xlink:href="string_8hpp.html" target="_top" xlink:title="thrill/common/string.hpp">
<polygon fill="none" stroke="black" points="1957.5,-65.5 1957.5,-86.5 2078.5,-86.5 2078.5,-65.5 1957.5,-65.5"/>
<text text-anchor="middle" x="2018" y="-73.5" font-family="Helvetica,sans-Serif" font-size="10.00">thrill/common/string.hpp</text>
</a>
</g>
<!-- Node28&#45;&gt;Node29 -->
<g id="edge74" class="edge"><title>Node28&#45;&gt;Node29</title>
<path fill="none" stroke="midnightblue" d="M1482.52,-141.486C1509.05,-138.021 1542.3,-133.721 1572,-130 1704.51,-113.399 1859.28,-94.8482 1947.25,-84.3823"/>
<polygon fill="midnightblue" stroke="midnightblue" points="1947.87,-87.8341 1957.38,-83.1778 1947.04,-80.883 1947.87,-87.8341"/>
</g>
<!-- Node36 -->
<g id="node84" class="node"><title>Node36</title>
<a xlink:href="malloc__tracker_8hpp.html" target="_top" xlink:title="thrill/mem/malloc_tracker.hpp">
<polygon fill="none" stroke="black" points="2095.5,-65.5 2095.5,-86.5 2240.5,-86.5 2240.5,-65.5 2095.5,-65.5"/>
<text text-anchor="middle" x="2168" y="-73.5" font-family="Helvetica,sans-Serif" font-size="10.00">thrill/mem/malloc_tracker.hpp</text>
</a>
</g>
<!-- Node28&#45;&gt;Node36 -->
<g id="edge96" class="edge"><title>Node28&#45;&gt;Node36</title>
<path fill="none" stroke="midnightblue" d="M1482.78,-140.831C1509.24,-137.203 1542.34,-132.955 1572,-130 1800.32,-107.257 1859.93,-126.978 2087,-94 2096.52,-92.617 2106.59,-90.7302 2116.27,-88.6967"/>
<polygon fill="midnightblue" stroke="midnightblue" points="2117.15,-92.0868 2126.18,-86.5395 2115.66,-85.247 2117.15,-92.0868"/>
</g>
<!-- Node28&#45;&gt;Node37 -->
<g id="edge100" class="edge"><title>Node28&#45;&gt;Node37</title>
<path fill="none" stroke="midnightblue" d="M1444.38,-130.937C1451.48,-120.281 1460.65,-106.53 1468.03,-95.4518"/>
<polygon fill="midnightblue" stroke="midnightblue" points="1471.1,-97.163 1473.73,-86.901 1465.27,-93.2801 1471.1,-97.163"/>
</g>
<!-- Node38 -->
<g id="node92" class="node"><title>Node38</title>
<polygon fill="none" stroke="#bfbfbf" points="1596,-65.5 1596,-86.5 1708,-86.5 1708,-65.5 1596,-65.5"/>
<text text-anchor="middle" x="1652" y="-73.5" font-family="Helvetica,sans-Serif" font-size="10.00">tlx/allocator_base.hpp</text>
</g>
<!-- Node28&#45;&gt;Node38 -->
<g id="edge108" class="edge"><title>Node28&#45;&gt;Node38</title>
<path fill="none" stroke="midnightblue" d="M1482.69,-131.662C1521.11,-119.033 1573.68,-101.747 1610.01,-89.8053"/>
<polygon fill="midnightblue" stroke="midnightblue" points="1611.39,-93.0352 1619.8,-86.587 1609.21,-86.3853 1611.39,-93.0352"/>
</g>
<!-- Node28&#45;&gt;Node39 -->
<g id="edge114" class="edge"><title>Node28&#45;&gt;Node39</title>
<path fill="none" stroke="midnightblue" d="M1406.46,-130.937C1388.28,-119.251 1364.31,-103.843 1346.39,-92.3198"/>
<polygon fill="midnightblue" stroke="midnightblue" points="1347.93,-89.1515 1337.63,-86.688 1344.14,-95.0398 1347.93,-89.1515"/>
</g>
<!-- Node28&#45;&gt;Node40 -->
<g id="edge116" class="edge"><title>Node28&#45;&gt;Node40</title>
<path fill="none" stroke="midnightblue" d="M1420.91,-130.937C1413.29,-120.174 1403.43,-106.255 1395.54,-95.1203"/>
<polygon fill="midnightblue" stroke="midnightblue" points="1398.36,-93.0382 1389.72,-86.901 1392.65,-97.0844 1398.36,-93.0382"/>
</g>
<!-- Node28&#45;&gt;Node41 -->
<g id="edge118" class="edge"><title>Node28&#45;&gt;Node41</title>
<path fill="none" stroke="midnightblue" d="M1383.42,-132.455C1355.54,-122.907 1320.53,-109.539 1291,-94 1289.85,-93.3959 1288.69,-92.75 1287.54,-92.0752"/>
<polygon fill="midnightblue" stroke="midnightblue" points="1289.22,-88.9958 1278.91,-86.5492 1285.45,-94.8903 1289.22,-88.9958"/>
</g>
<!-- Node29&#45;&gt;Node7 -->
<g id="edge80" class="edge"><title>Node29&#45;&gt;Node7</title>
<path fill="none" stroke="midnightblue" d="M1957.07,-70.4176C1912.71,-66.5046 1851.17,-61.3883 1797,-58 1431.14,-35.117 1338.71,-47.1642 973,-22 942.994,-19.9353 908.747,-16.6007 885.094,-14.1435"/>
<polygon fill="midnightblue" stroke="midnightblue" points="885.337,-10.6498 875.026,-13.084 884.604,-17.6114 885.337,-10.6498"/>
</g>
<!-- Node29&#45;&gt;Node12 -->
<g id="edge94" class="edge"><title>Node29&#45;&gt;Node12</title>
<path fill="none" stroke="midnightblue" d="M1957.08,-70.3106C1912.72,-66.3458 1851.18,-61.2115 1797,-58 1366.79,-32.5012 1258.37,-44.6005 828,-22 783.107,-19.6425 731.28,-15.9535 698.58,-13.5068"/>
<polygon fill="midnightblue" stroke="midnightblue" points="698.496,-9.99064 688.261,-12.7284 697.969,-16.9708 698.496,-9.99064"/>
</g>
<!-- Node29&#45;&gt;Node21 -->
<g id="edge90" class="edge"><title>Node29&#45;&gt;Node21</title>
<path fill="none" stroke="midnightblue" d="M1957.06,-70.5503C1912.7,-66.7015 1851.16,-61.6074 1797,-58 1488.38,-37.4433 1410.21,-47.9885 1102,-22 1083.02,-20.3994 1061.95,-17.9925 1044.58,-15.8378"/>
<polygon fill="midnightblue" stroke="midnightblue" points="1044.65,-12.3193 1034.29,-14.5383 1043.77,-19.2641 1044.65,-12.3193"/>
</g>
<!-- Node29&#45;&gt;Node22 -->
<g id="edge92" class="edge"><title>Node29&#45;&gt;Node22</title>
<path fill="none" stroke="midnightblue" d="M2053.92,-65.4271C2064.5,-62.6417 2076.15,-59.8902 2087,-58 2272.23,-25.7453 2498.45,-14.9565 2579.4,-11.981"/>
<polygon fill="midnightblue" stroke="midnightblue" points="2579.54,-15.4784 2589.4,-11.6262 2579.29,-8.48279 2579.54,-15.4784"/>
</g>
<!-- Node30 -->
<g id="node68" class="node"><title>Node30</title>
<polygon fill="none" stroke="#bfbfbf" points="2092.5,-0.5 2092.5,-21.5 2167.5,-21.5 2167.5,-0.5 2092.5,-0.5"/>
<text text-anchor="middle" x="2130" y="-8.5" font-family="Helvetica,sans-Serif" font-size="10.00">tlx/define.hpp</text>
</g>
<!-- Node29&#45;&gt;Node30 -->
<g id="edge76" class="edge"><title>Node29&#45;&gt;Node30</title>
<path fill="none" stroke="midnightblue" d="M2036.49,-65.2666C2054.6,-54.7601 2082.38,-38.6369 2102.96,-26.6924"/>
<polygon fill="midnightblue" stroke="midnightblue" points="2104.96,-29.5804 2111.85,-21.5337 2101.44,-23.5261 2104.96,-29.5804"/>
</g>
<!-- Node31 -->
<g id="node70" class="node"><title>Node31</title>
<polygon fill="none" stroke="#bfbfbf" points="1863,-0.5 1863,-21.5 1943,-21.5 1943,-0.5 1863,-0.5"/>
<text text-anchor="middle" x="1903" y="-8.5" font-family="Helvetica,sans-Serif" font-size="10.00">tlx/unused.hpp</text>
</g>
<!-- Node29&#45;&gt;Node31 -->
<g id="edge78" class="edge"><title>Node29&#45;&gt;Node31</title>
<path fill="none" stroke="midnightblue" d="M1999.27,-65.412C1980.64,-54.8829 1951.85,-38.6106 1930.6,-26.6021"/>
<polygon fill="midnightblue" stroke="midnightblue" points="1932.15,-23.4572 1921.72,-21.5835 1928.71,-29.5511 1932.15,-23.4572"/>
</g>
<!-- Node32 -->
<g id="node73" class="node"><title>Node32</title>
<polygon fill="none" stroke="#bfbfbf" points="1960.5,-0.5 1960.5,-21.5 2009.5,-21.5 2009.5,-0.5 1960.5,-0.5"/>
<text text-anchor="middle" x="1985" y="-8.5" font-family="Helvetica,sans-Serif" font-size="10.00">cstdarg</text>
</g>
<!-- Node29&#45;&gt;Node32 -->
<g id="edge82" class="edge"><title>Node29&#45;&gt;Node32</title>
<path fill="none" stroke="midnightblue" d="M2012.55,-65.2666C2007.79,-55.8959 2000.77,-42.0573 1995,-30.7004"/>
<polygon fill="midnightblue" stroke="midnightblue" points="1998,-28.8659 1990.35,-21.5337 1991.75,-32.0348 1998,-28.8659"/>
</g>
<!-- Node33 -->
<g id="node75" class="node"><title>Node33</title>
<polygon fill="none" stroke="#bfbfbf" points="2321.5,-0.5 2321.5,-21.5 2366.5,-21.5 2366.5,-0.5 2321.5,-0.5"/>
<text text-anchor="middle" x="2344" y="-8.5" font-family="Helvetica,sans-Serif" font-size="10.00">cstdlib</text>
</g>
<!-- Node29&#45;&gt;Node33 -->
<g id="edge84" class="edge"><title>Node29&#45;&gt;Node33</title>
<path fill="none" stroke="midnightblue" d="M2056.2,-65.4946C2066.19,-62.8962 2076.97,-60.2227 2087,-58 2167.04,-40.2672 2262.16,-24.1463 2311.18,-16.2002"/>
<polygon fill="midnightblue" stroke="midnightblue" points="2311.88,-19.632 2321.2,-14.5857 2310.77,-12.7211 2311.88,-19.632"/>
</g>
<!-- Node34 -->
<g id="node77" class="node"><title>Node34</title>
<polygon fill="none" stroke="#bfbfbf" points="1681,-0.5 1681,-21.5 1721,-21.5 1721,-0.5 1681,-0.5"/>
<text text-anchor="middle" x="1701" y="-8.5" font-family="Helvetica,sans-Serif" font-size="10.00">limits</text>
</g>
<!-- Node29&#45;&gt;Node34 -->
<g id="edge86" class="edge"><title>Node29&#45;&gt;Node34</title>
<path fill="none" stroke="midnightblue" d="M1976.21,-65.4665C1965.71,-62.9235 1954.46,-60.2831 1944,-58 1867.66,-41.3431 1777.17,-24.6364 1731.15,-16.3544"/>
<polygon fill="midnightblue" stroke="midnightblue" points="1731.69,-12.8959 1721.23,-14.5764 1730.45,-19.7861 1731.69,-12.8959"/>
</g>
<!-- Node35 -->
<g id="node79" class="node"><title>Node35</title>
<polygon fill="none" stroke="#bfbfbf" points="2026.5,-0.5 2026.5,-21.5 2075.5,-21.5 2075.5,-0.5 2026.5,-0.5"/>
<text text-anchor="middle" x="2051" y="-8.5" font-family="Helvetica,sans-Serif" font-size="10.00">random</text>
</g>
<!-- Node29&#45;&gt;Node35 -->
<g id="edge88" class="edge"><title>Node29&#45;&gt;Node35</title>
<path fill="none" stroke="midnightblue" d="M2023.45,-65.2666C2028.21,-55.8959 2035.23,-42.0573 2041,-30.7004"/>
<polygon fill="midnightblue" stroke="midnightblue" points="2044.25,-32.0348 2045.65,-21.5337 2038,-28.8659 2044.25,-32.0348"/>
</g>
<!-- Node36&#45;&gt;Node33 -->
<g id="edge98" class="edge"><title>Node36&#45;&gt;Node33</title>
<path fill="none" stroke="midnightblue" d="M2196.67,-65.412C2228.27,-53.7408 2278.98,-35.0126 2311.89,-22.8574"/>
<polygon fill="midnightblue" stroke="midnightblue" points="2313.33,-26.059 2321.5,-19.3112 2310.9,-19.4925 2313.33,-26.059"/>
</g>
<!-- Node37&#45;&gt;Node6 -->
<g id="edge102" class="edge"><title>Node37&#45;&gt;Node6</title>
<path fill="none" stroke="midnightblue" d="M1534.46,-65.4743C1551.22,-62.5655 1569.82,-59.7345 1587,-58 1622.4,-54.4258 2746.63,-19.1923 2970.47,-12.2019"/>
<polygon fill="midnightblue" stroke="midnightblue" points="2970.84,-15.6919 2980.73,-11.8815 2970.63,-8.69534 2970.84,-15.6919"/>
</g>
<!-- Node37&#45;&gt;Node8 -->
<g id="edge106" class="edge"><title>Node37&#45;&gt;Node8</title>
<path fill="none" stroke="midnightblue" d="M1481,-65.2666C1481,-56.1799 1481,-42.8919 1481,-31.7395"/>
<polygon fill="midnightblue" stroke="midnightblue" points="1484.5,-31.5337 1481,-21.5337 1477.5,-31.5337 1484.5,-31.5337"/>
</g>
<!-- Node37&#45;&gt;Node15 -->
<g id="edge104" class="edge"><title>Node37&#45;&gt;Node15</title>
<path fill="none" stroke="midnightblue" d="M1447.06,-65.499C1436.27,-62.5726 1424.23,-59.7253 1413,-58 1070.87,-5.41506 980.644,-40.6758 635,-22 584.567,-19.275 526.133,-15.5564 490.372,-13.2169"/>
<polygon fill="midnightblue" stroke="midnightblue" points="490.243,-9.70104 480.035,-12.5378 489.784,-16.686 490.243,-9.70104"/>
</g>
<!-- Node43&#45;&gt;Node4 -->
<g id="edge162" class="edge"><title>Node43&#45;&gt;Node4</title>
<path fill="none" stroke="midnightblue" d="M1765.68,-209.154C1760.75,-198.474 1753.79,-181.548 1751,-166 1746.77,-142.402 1749.75,-114.842 1752.82,-96.4972"/>
<polygon fill="midnightblue" stroke="midnightblue" points="1756.27,-97.0907 1754.64,-86.6225 1749.39,-95.8244 1756.27,-97.0907"/>
</g>
<!-- Node43&#45;&gt;Node6 -->
<g id="edge150" class="edge"><title>Node43&#45;&gt;Node6</title>
<path fill="none" stroke="midnightblue" d="M1820.52,-218.969C1939.84,-215.892 2240.17,-204.448 2332,-166 2354.99,-156.375 2351.91,-139.388 2375,-130 2571.95,-49.9235 2647.73,-152.922 2852,-94 2902.74,-79.3644 2955.86,-47.1581 2985.47,-27.4448"/>
<polygon fill="midnightblue" stroke="midnightblue" points="2987.55,-30.2627 2993.87,-21.7612 2983.63,-24.4643 2987.55,-30.2627"/>
</g>
<!-- Node43&#45;&gt;Node11 -->
<g id="edge164" class="edge"><title>Node43&#45;&gt;Node11</title>
<path fill="none" stroke="midnightblue" d="M1721.21,-217.252C1532.53,-206.829 869.923,-170.105 825,-166 786.112,-162.447 741.494,-156.536 712.584,-152.463"/>
<polygon fill="midnightblue" stroke="midnightblue" points="712.712,-148.946 702.318,-151.001 711.724,-155.876 712.712,-148.946"/>
</g>
<!-- Node43&#45;&gt;Node12 -->
<g id="edge166" class="edge"><title>Node43&#45;&gt;Node12</title>
<path fill="none" stroke="midnightblue" d="M1721.31,-217.725C1645.38,-213.25 1496.47,-200.52 1375,-166 1337.1,-155.231 1332.12,-139.961 1294,-130 1127.3,-86.4364 1072.29,-145.916 908,-94 877.25,-84.2829 874.852,-70.1998 845,-58 795.462,-37.7553 734.613,-23.9584 698.141,-16.7889"/>
<polygon fill="midnightblue" stroke="midnightblue" points="698.568,-13.307 688.087,-14.8596 697.249,-20.1816 698.568,-13.307"/>
</g>
<!-- Node43&#45;&gt;Node20 -->
<g id="edge158" class="edge"><title>Node43&#45;&gt;Node20</title>
<path fill="none" stroke="midnightblue" d="M1721.38,-214.199C1586.52,-198.603 1201.87,-155.25 881,-130 597.426,-107.685 519.511,-156.448 242,-94 176.661,-79.2968 105.233,-45.8584 66.6356,-26.2052"/>
<polygon fill="midnightblue" stroke="midnightblue" points="68.0462,-22.9948 57.5537,-21.5255 64.8398,-29.2173 68.0462,-22.9948"/>
</g>
<!-- Node43&#45;&gt;Node22 -->
<g id="edge160" class="edge"><title>Node43&#45;&gt;Node22</title>
<path fill="none" stroke="midnightblue" d="M1780.21,-209.287C1799.98,-186.437 1845.42,-134.611 1855,-130 1948.39,-85.0529 2218,-112.352 2320,-94 2416.64,-76.6131 2527.29,-40.1706 2579.58,-21.9131"/>
<polygon fill="midnightblue" stroke="midnightblue" points="2580.97,-25.1353 2589.24,-18.5151 2578.64,-18.532 2580.97,-25.1353"/>
</g>
<!-- Node43&#45;&gt;Node28 -->
<g id="edge148" class="edge"><title>Node43&#45;&gt;Node28</title>
<path fill="none" stroke="midnightblue" d="M1721.49,-209.453C1660.75,-196.514 1557.83,-174.592 1492.75,-160.728"/>
<polygon fill="midnightblue" stroke="midnightblue" points="1493.15,-157.235 1482.64,-158.575 1491.69,-164.081 1493.15,-157.235"/>
</g>
<!-- Node43&#45;&gt;Node42 -->
<g id="edge156" class="edge"><title>Node43&#45;&gt;Node42</title>
<path fill="none" stroke="midnightblue" d="M1751.67,-209.376C1729.71,-197.305 1693.66,-177.49 1668.48,-163.651"/>
<polygon fill="midnightblue" stroke="midnightblue" points="1669.86,-160.417 1659.41,-158.667 1666.49,-166.551 1669.86,-160.417"/>
</g>
<!-- Node44 -->
<g id="node117" class="node"><title>Node44</title>
<a xlink:href="config_8hpp.html" target="_top" xlink:title="thrill/common/config.hpp">
<polygon fill="none" stroke="black" points="1863.5,-137.5 1863.5,-158.5 1986.5,-158.5 1986.5,-137.5 1863.5,-137.5"/>
<text text-anchor="middle" x="1925" y="-145.5" font-family="Helvetica,sans-Serif" font-size="10.00">thrill/common/config.hpp</text>
</a>
</g>
<!-- Node43&#45;&gt;Node44 -->
<g id="edge146" class="edge"><title>Node43&#45;&gt;Node44</title>
<path fill="none" stroke="midnightblue" d="M1793.72,-209.376C1820.07,-197.057 1863.67,-176.673 1893.33,-162.805"/>
<polygon fill="midnightblue" stroke="midnightblue" points="1894.86,-165.956 1902.43,-158.55 1891.89,-159.615 1894.86,-165.956"/>
</g>
<!-- Node45 -->
<g id="node121" class="node"><title>Node45</title>
<polygon fill="none" stroke="#bfbfbf" points="1759.5,-137.5 1759.5,-158.5 1808.5,-158.5 1808.5,-137.5 1759.5,-137.5"/>
<text text-anchor="middle" x="1784" y="-145.5" font-family="Helvetica,sans-Serif" font-size="10.00">cstddef</text>
</g>
<!-- Node43&#45;&gt;Node45 -->
<g id="edge152" class="edge"><title>Node43&#45;&gt;Node45</title>
<path fill="none" stroke="midnightblue" d="M1772.92,-209.376C1774.84,-198.741 1777.84,-182.095 1780.24,-168.82"/>
<polygon fill="midnightblue" stroke="midnightblue" points="1783.74,-169.13 1782.07,-158.667 1776.85,-167.886 1783.74,-169.13"/>
</g>
<!-- Node46 -->
<g id="node123" class="node"><title>Node46</title>
<polygon fill="none" stroke="#bfbfbf" points="2384,-137.5 2384,-158.5 2430,-158.5 2430,-137.5 2384,-137.5"/>
<text text-anchor="middle" x="2407" y="-145.5" font-family="Helvetica,sans-Serif" font-size="10.00">cstdint</text>
</g>
<!-- Node43&#45;&gt;Node46 -->
<g id="edge154" class="edge"><title>Node43&#45;&gt;Node46</title>
<path fill="none" stroke="midnightblue" d="M1820.57,-217.84C1944.81,-212.057 2266.89,-194.685 2370,-166 2373.17,-165.119 2376.39,-163.974 2379.55,-162.687"/>
<polygon fill="midnightblue" stroke="midnightblue" points="2381.04,-165.852 2388.7,-158.528 2378.14,-159.48 2381.04,-165.852"/>
</g>
<!-- Node49&#45;&gt;Node5 -->
<g id="edge184" class="edge"><title>Node49&#45;&gt;Node5</title>
<path fill="none" stroke="midnightblue" d="M1034.39,-664.481C1023.82,-643.638 1002,-595.359 1002,-552 1002,-552 1002,-552 1002,-364 1002,-323.118 1009.02,-305.535 983,-274 971.768,-260.385 931.541,-244.688 899.144,-233.739"/>
<polygon fill="midnightblue" stroke="midnightblue" points="899.975,-230.327 889.382,-230.501 897.772,-236.971 899.975,-230.327"/>
</g>
<!-- Node49&#45;&gt;Node6 -->
<g id="edge324" class="edge"><title>Node49&#45;&gt;Node6</title>
<path fill="none" stroke="midnightblue" d="M1088.89,-674.801C1376.86,-673.313 2845.41,-661.27 3022,-570 3133.46,-512.392 3180,-266.601 3180,-220 3180,-220 3180,-220 3180,-148 3180,-80.2408 3097.21,-40.4484 3046.84,-22.509"/>
<polygon fill="midnightblue" stroke="midnightblue" points="3047.83,-19.1476 3037.24,-19.2107 3045.56,-25.7683 3047.83,-19.1476"/>
</g>
<!-- Node49&#45;&gt;Node9 -->
<g id="edge328" class="edge"><title>Node49&#45;&gt;Node9</title>
<path fill="none" stroke="midnightblue" d="M991.246,-674.335C854.354,-672.041 473.573,-662.586 430,-628 402.255,-605.978 406,-587.422 406,-552 406,-552 406,-552 406,-487 406,-365.892 381.752,-221.954 371.996,-168.938"/>
<polygon fill="midnightblue" stroke="midnightblue" points="375.375,-167.968 370.097,-158.781 368.494,-169.254 375.375,-167.968"/>
</g>
<!-- Node49&#45;&gt;Node12 -->
<g id="edge332" class="edge"><title>Node49&#45;&gt;Node12</title>
<path fill="none" stroke="midnightblue" d="M991.357,-668.578C881.35,-653.455 616.959,-613.58 539,-570 499.772,-548.071 485.053,-539.581 468,-498 464.29,-488.953 467.392,-485.759 468,-476 471.117,-425.932 482,-414.165 482,-364 482,-364 482,-364 482,-220 482,-127.423 584.964,-56.3977 636.846,-26.4854"/>
<polygon fill="midnightblue" stroke="midnightblue" points="638.614,-29.5067 645.606,-21.5463 635.176,-23.4092 638.614,-29.5067"/>
</g>
<!-- Node49&#45;&gt;Node48 -->
<g id="edge330" class="edge"><title>Node49&#45;&gt;Node48</title>
<path fill="none" stroke="midnightblue" d="M1040,-664.47C1040,-643.211 1040,-593.641 1040,-552 1040,-552 1040,-552 1040,-429 1040,-387.635 1045.5,-339.512 1049.05,-312.723"/>
<polygon fill="midnightblue" stroke="midnightblue" points="1052.54,-313.013 1050.43,-302.631 1045.61,-312.063 1052.54,-313.013"/>
</g>
<!-- Node50 -->
<g id="node143" class="node"><title>Node50</title>
<a xlink:href="math_8hpp.html" target="_top" xlink:title="thrill/common/math.hpp">
<polygon fill="none" stroke="black" points="1073.5,-65.5 1073.5,-86.5 1192.5,-86.5 1192.5,-65.5 1073.5,-65.5"/>
<text text-anchor="middle" x="1133" y="-73.5" font-family="Helvetica,sans-Serif" font-size="10.00">thrill/common/math.hpp</text>
</a>
</g>
<!-- Node49&#45;&gt;Node50 -->
<g id="edge186" class="edge"><title>Node49&#45;&gt;Node50</title>
<path fill="none" stroke="midnightblue" d="M1049.87,-664.48C1087.7,-623.335 1223.6,-467.8 1269,-310 1294.69,-220.702 1199.54,-129.732 1154.91,-92.9597"/>
<polygon fill="midnightblue" stroke="midnightblue" points="1156.93,-90.0973 1146.95,-86.5402 1152.54,-95.5444 1156.93,-90.0973"/>
</g>
<!-- Node52 -->
<g id="node151" class="node"><title>Node52</title>
<a xlink:href="connection_8hpp.html" target="_top" xlink:title="thrill/net/connection.hpp">
<polygon fill="none" stroke="black" points="1679,-606.5 1679,-627.5 1799,-627.5 1799,-606.5 1679,-606.5"/>
<text text-anchor="middle" x="1739" y="-614.5" font-family="Helvetica,sans-Serif" font-size="10.00">thrill/net/connection.hpp</text>
</a>
</g>
<!-- Node49&#45;&gt;Node52 -->
<g id="edge198" class="edge"><title>Node49&#45;&gt;Node52</title>
<path fill="none" stroke="midnightblue" d="M1088.6,-670.968C1209.94,-660.899 1526.65,-634.62 1668.5,-622.85"/>
<polygon fill="midnightblue" stroke="midnightblue" points="1669.14,-626.309 1678.82,-621.994 1668.56,-619.333 1669.14,-626.309"/>
</g>
<!-- Node64 -->
<g id="node208" class="node"><title>Node64</title>
<polygon fill="none" stroke="#bfbfbf" points="1278,-476.5 1278,-497.5 1324,-497.5 1324,-476.5 1278,-476.5"/>
<text text-anchor="middle" x="1301" y="-484.5" font-family="Helvetica,sans-Serif" font-size="10.00">cstring</text>
</g>
<!-- Node49&#45;&gt;Node64 -->
<g id="edge326" class="edge"><title>Node49&#45;&gt;Node64</title>
<path fill="none" stroke="midnightblue" d="M1054.78,-664.354C1098.21,-633.073 1225.64,-541.283 1278.07,-503.519"/>
<polygon fill="midnightblue" stroke="midnightblue" points="1280.31,-506.214 1286.38,-497.53 1276.22,-500.534 1280.31,-506.214"/>
</g>
<!-- Node68 -->
<g id="node235" class="node"><title>Node68</title>
<a xlink:href="collective_8hpp.html" target="_top" xlink:title="thrill/net/collective.hpp">
<polygon fill="none" stroke="black" points="799,-606.5 799,-627.5 913,-627.5 913,-606.5 799,-606.5"/>
<text text-anchor="middle" x="856" y="-614.5" font-family="Helvetica,sans-Serif" font-size="10.00">thrill/net/collective.hpp</text>
</a>
</g>
<!-- Node49&#45;&gt;Node68 -->
<g id="edge334" class="edge"><title>Node49&#45;&gt;Node68</title>
<path fill="none" stroke="midnightblue" d="M1001.34,-664.497C969.647,-655.041 925.199,-641.083 893.758,-630.743"/>
<polygon fill="midnightblue" stroke="midnightblue" points="894.633,-627.346 884.04,-627.523 892.432,-633.99 894.633,-627.346"/>
</g>
<!-- Node50&#45;&gt;Node6 -->
<g id="edge188" class="edge"><title>Node50&#45;&gt;Node6</title>
<path fill="none" stroke="midnightblue" d="M1185.91,-65.4917C1202.81,-62.5461 1221.63,-59.6895 1239,-58 1858.5,2.25466 2016.81,-39.2483 2639,-22 2760.04,-18.6445 2903.34,-14.2695 2970.57,-12.1935"/>
<polygon fill="midnightblue" stroke="midnightblue" points="2970.8,-15.688 2980.69,-11.8805 2970.58,-8.69136 2970.8,-15.688"/>
</g>
<!-- Node50&#45;&gt;Node8 -->
<g id="edge190" class="edge"><title>Node50&#45;&gt;Node8</title>
<path fill="none" stroke="midnightblue" d="M1173.42,-65.4785C1183.99,-62.8803 1195.39,-60.2109 1206,-58 1291.84,-40.1068 1393.79,-24.0174 1446.14,-16.1281"/>
<polygon fill="midnightblue" stroke="midnightblue" points="1446.86,-19.5592 1456.24,-14.6164 1445.83,-12.6364 1446.86,-19.5592"/>
</g>
<!-- Node50&#45;&gt;Node24 -->
<g id="edge196" class="edge"><title>Node50&#45;&gt;Node24</title>
<path fill="none" stroke="midnightblue" d="M1073.21,-74.3378C901.903,-69.2783 410.533,-52.6172 230.095,-21.7566"/>
<polygon fill="midnightblue" stroke="midnightblue" points="230.658,-18.3019 220.199,-19.9911 229.429,-25.1931 230.658,-18.3019"/>
</g>
<!-- Node50&#45;&gt;Node34 -->
<g id="edge194" class="edge"><title>Node50&#45;&gt;Node34</title>
<path fill="none" stroke="midnightblue" d="M1190.66,-65.4895C1206.31,-62.8329 1223.28,-60.1322 1239,-58 1401.19,-36.0041 1596.69,-19.3369 1670.66,-13.3799"/>
<polygon fill="midnightblue" stroke="midnightblue" points="1670.99,-16.8652 1680.68,-12.5793 1670.43,-9.88741 1670.99,-16.8652"/>
</g>
<!-- Node51 -->
<g id="node147" class="node"><title>Node51</title>
<polygon fill="none" stroke="#bfbfbf" points="1111,-0.5 1111,-21.5 1155,-21.5 1155,-0.5 1111,-0.5"/>
<text text-anchor="middle" x="1133" y="-8.5" font-family="Helvetica,sans-Serif" font-size="10.00">cmath</text>
</g>
<!-- Node50&#45;&gt;Node51 -->
<g id="edge192" class="edge"><title>Node50&#45;&gt;Node51</title>
<path fill="none" stroke="midnightblue" d="M1133,-65.2666C1133,-56.1799 1133,-42.8919 1133,-31.7395"/>
<polygon fill="midnightblue" stroke="midnightblue" points="1136.5,-31.5337 1133,-21.5337 1129.5,-31.5337 1136.5,-31.5337"/>
</g>
<!-- Node52&#45;&gt;Node7 -->
<g id="edge310" class="edge"><title>Node52&#45;&gt;Node7</title>
<path fill="none" stroke="midnightblue" d="M1689.15,-606.432C1660.11,-598.943 1623.52,-587.142 1594,-570 1425.05,-471.891 1423.94,-393.019 1269,-274 1222.07,-237.951 1208.29,-231.517 1157,-202 1065.69,-149.453 1032.41,-154.266 946,-94 918.182,-74.5983 890.077,-47.1376 872.85,-29.2015"/>
<polygon fill="midnightblue" stroke="midnightblue" points="875.158,-26.5483 865.741,-21.694 870.075,-31.3615 875.158,-26.5483"/>
</g>
<!-- Node52&#45;&gt;Node8 -->
<g id="edge312" class="edge"><title>Node52&#45;&gt;Node8</title>
<path fill="none" stroke="midnightblue" d="M1697.69,-606.374C1679.1,-599.306 1658.91,-587.92 1648,-570 1639.68,-556.335 1639.5,-547.556 1648,-534 1704.92,-443.228 1865,-536.142 1865,-429 1865,-429 1865,-429 1865,-364 1865,-245.028 2069.62,-222.659 1995,-130 1947.92,-71.5418 1895.07,-131.414 1830,-94 1811.18,-83.1807 1816.17,-68.1815 1797,-58 1748.78,-32.3868 1587.81,-18.3704 1516.05,-13.2634"/>
<polygon fill="midnightblue" stroke="midnightblue" points="1515.95,-9.74804 1505.73,-12.5469 1515.46,-16.7312 1515.95,-9.74804"/>
</g>
<!-- Node52&#45;&gt;Node22 -->
<g id="edge322" class="edge"><title>Node52&#45;&gt;Node22</title>
<path fill="none" stroke="midnightblue" d="M1799.16,-614.72C2046.12,-605.356 2969.14,-570.34 2970,-570 3022.47,-549.313 3066,-543.402 3066,-487 3066,-487 3066,-487 3066,-292 3066,-153.442 2982.54,-122.672 2860,-58 2822.22,-38.0609 2698.77,-21.4169 2640.71,-14.4746"/>
<polygon fill="midnightblue" stroke="midnightblue" points="2641,-10.9853 2630.66,-13.2927 2640.18,-17.9374 2641,-10.9853"/>
</g>
<!-- Node52&#45;&gt;Node26 -->
<g id="edge202" class="edge"><title>Node52&#45;&gt;Node26</title>
<path fill="none" stroke="midnightblue" d="M1747.58,-606.433C1754.58,-597.301 1764.24,-583.481 1770,-570 1784.88,-535.204 1789,-524.843 1789,-487 1789,-487 1789,-487 1789,-429 1789,-386.64 1773.9,-338.91 1764.13,-312.452"/>
<polygon fill="midnightblue" stroke="midnightblue" points="1767.28,-310.893 1760.45,-302.797 1760.74,-313.387 1767.28,-310.893"/>
</g>
<!-- Node52&#45;&gt;Node44 -->
<g id="edge200" class="edge"><title>Node52&#45;&gt;Node44</title>
<path fill="none" stroke="midnightblue" d="M1793.66,-606.449C1853.49,-591.357 1941,-557.272 1941,-487 1941,-487 1941,-487 1941,-364 1941,-292.129 1932.08,-207.173 1927.56,-168.733"/>
<polygon fill="midnightblue" stroke="midnightblue" points="1931.03,-168.278 1926.36,-158.767 1924.08,-169.113 1931.03,-168.278"/>
</g>
<!-- Node53 -->
<g id="node155" class="node"><title>Node53</title>
<a xlink:href="porting_8hpp.html" target="_top" xlink:title="thrill/common/porting.hpp">
<polygon fill="none" stroke="black" points="1558,-353.5 1558,-374.5 1684,-374.5 1684,-353.5 1558,-353.5"/>
<text text-anchor="middle" x="1621" y="-361.5" font-family="Helvetica,sans-Serif" font-size="10.00">thrill/common/porting.hpp</text>
</a>
</g>
<!-- Node52&#45;&gt;Node53 -->
<g id="edge204" class="edge"><title>Node52&#45;&gt;Node53</title>
<path fill="none" stroke="midnightblue" d="M1696.58,-606.449C1664.61,-597.538 1624.68,-584.02 1615,-570 1575.52,-512.822 1599.39,-423.852 1613.22,-384.225"/>
<polygon fill="midnightblue" stroke="midnightblue" points="1616.58,-385.227 1616.71,-374.633 1610,-382.832 1616.58,-385.227"/>
</g>
<!-- Node55 -->
<g id="node162" class="node"><title>Node55</title>
<a xlink:href="serialization_8hpp.html" target="_top" xlink:title="thrill/data/serialization.hpp">
<polygon fill="none" stroke="black" points="1130,-281.5 1130,-302.5 1260,-302.5 1260,-281.5 1130,-281.5"/>
<text text-anchor="middle" x="1195" y="-289.5" font-family="Helvetica,sans-Serif" font-size="10.00">thrill/data/serialization.hpp</text>
</a>
</g>
<!-- Node52&#45;&gt;Node55 -->
<g id="edge214" class="edge"><title>Node52&#45;&gt;Node55</title>
<path fill="none" stroke="midnightblue" d="M1678.79,-613.196C1567.76,-605.778 1339.21,-588.484 1308,-570 1269.28,-547.065 1250,-532.003 1250,-487 1250,-487 1250,-487 1250,-429 1250,-384.26 1224.43,-336.835 1208.16,-311.189"/>
<polygon fill="midnightblue" stroke="midnightblue" points="1211.05,-309.222 1202.65,-302.771 1205.19,-313.055 1211.05,-309.222"/>
</g>
<!-- Node57 -->
<g id="node173" class="node"><title>Node57</title>
<a xlink:href="buffer__builder_8hpp.html" target="_top" xlink:title="thrill/net/buffer_builder.hpp">
<polygon fill="none" stroke="black" points="2255.5,-418.5 2255.5,-439.5 2386.5,-439.5 2386.5,-418.5 2255.5,-418.5"/>
<text text-anchor="middle" x="2321" y="-426.5" font-family="Helvetica,sans-Serif" font-size="10.00">thrill/net/buffer_builder.hpp</text>
</a>
</g>
<!-- Node52&#45;&gt;Node57 -->
<g id="edge232" class="edge"><title>Node52&#45;&gt;Node57</title>
<path fill="none" stroke="midnightblue" d="M1799.22,-606.466C1842.9,-598.206 1903.16,-585.525 1955,-570 2080.7,-532.356 2224.53,-471.496 2287.98,-443.698"/>
<polygon fill="midnightblue" stroke="midnightblue" points="2289.72,-446.759 2297.46,-439.529 2286.9,-440.351 2289.72,-446.759"/>
</g>
<!-- Node59 -->
<g id="node179" class="node"><title>Node59</title>
<polygon fill="none" stroke="#bfbfbf" points="2827.5,-137.5 2827.5,-158.5 2886.5,-158.5 2886.5,-137.5 2827.5,-137.5"/>
<text text-anchor="middle" x="2857" y="-145.5" font-family="Helvetica,sans-Serif" font-size="10.00">stdexcept</text>
</g>
<!-- Node52&#45;&gt;Node59 -->
<g id="edge320" class="edge"><title>Node52&#45;&gt;Node59</title>
<path fill="none" stroke="midnightblue" d="M1799.21,-614.68C2036.89,-605.506 2897.37,-572.163 2904,-570 2967.05,-549.448 3028,-553.318 3028,-487 3028,-487 3028,-487 3028,-429 3028,-314.219 2922.59,-206.46 2877.29,-165.449"/>
<polygon fill="midnightblue" stroke="midnightblue" points="2879.37,-162.613 2869.57,-158.581 2874.72,-167.843 2879.37,-162.613"/>
</g>
<!-- Node61 -->
<g id="node195" class="node"><title>Node61</title>
<a xlink:href="buffer__reader_8hpp.html" target="_top" xlink:title="thrill/net/buffer_reader.hpp">
<polygon fill="none" stroke="black" points="2436,-541.5 2436,-562.5 2566,-562.5 2566,-541.5 2436,-541.5"/>
<text text-anchor="middle" x="2501" y="-549.5" font-family="Helvetica,sans-Serif" font-size="10.00">thrill/net/buffer_reader.hpp</text>
</a>
</g>
<!-- Node52&#45;&gt;Node61 -->
<g id="edge268" class="edge"><title>Node52&#45;&gt;Node61</title>
<path fill="none" stroke="midnightblue" d="M1799.11,-611.872C1936.78,-600.129 2274.69,-571.305 2425.82,-558.413"/>
<polygon fill="midnightblue" stroke="midnightblue" points="2426.27,-561.888 2435.93,-557.55 2425.67,-554.913 2426.27,-561.888"/>
</g>
<!-- Node63 -->
<g id="node206" class="node"><title>Node63</title>
<a xlink:href="exception_8hpp.html" target="_top" xlink:title="thrill/net/exception.hpp">
<polygon fill="none" stroke="black" points="2780.5,-541.5 2780.5,-562.5 2895.5,-562.5 2895.5,-541.5 2780.5,-541.5"/>
<text text-anchor="middle" x="2838" y="-549.5" font-family="Helvetica,sans-Serif" font-size="10.00">thrill/net/exception.hpp</text>
</a>
</g>
<!-- Node52&#45;&gt;Node63 -->
<g id="edge286" class="edge"><title>Node52&#45;&gt;Node63</title>
<path fill="none" stroke="midnightblue" d="M1799.23,-614.584C2012.13,-606 2719.01,-577.106 2767,-570 2775.23,-568.782 2783.89,-567.011 2792.22,-565.05"/>
<polygon fill="midnightblue" stroke="midnightblue" points="2793.3,-568.387 2802.17,-562.587 2791.62,-561.592 2793.3,-568.387"/>
</g>
<!-- Node52&#45;&gt;Node64 -->
<g id="edge318" class="edge"><title>Node52&#45;&gt;Node64</title>
<path fill="none" stroke="midnightblue" d="M1678.96,-613.228C1573.81,-606.146 1364.89,-589.777 1338,-570 1317.93,-555.243 1308.54,-527.116 1304.3,-507.725"/>
<polygon fill="midnightblue" stroke="midnightblue" points="1307.7,-506.904 1302.39,-497.738 1300.83,-508.217 1307.7,-506.904"/>
</g>
<!-- Node65 -->
<g id="node212" class="node"><title>Node65</title>
<a xlink:href="fixed__buffer__builder_8hpp.html" target="_top" xlink:title="thrill/net/fixed_buffer\l_builder.hpp">
<polygon fill="none" stroke="black" points="2603.5,-275 2603.5,-309 2708.5,-309 2708.5,-275 2603.5,-275"/>
<text text-anchor="start" x="2611.5" y="-296" font-family="Helvetica,sans-Serif" font-size="10.00">thrill/net/fixed_buffer</text>
<text text-anchor="middle" x="2656" y="-283" font-family="Helvetica,sans-Serif" font-size="10.00">_builder.hpp</text>
</a>
</g>
<!-- Node52&#45;&gt;Node65 -->
<g id="edge294" class="edge"><title>Node52&#45;&gt;Node65</title>
<path fill="none" stroke="midnightblue" d="M1799.31,-614.236C1984.95,-605.645 2537.51,-579.423 2575,-570 2659.66,-548.723 2753,-574.289 2753,-487 2753,-487 2753,-487 2753,-429 2753,-382.383 2715.13,-340.533 2686.71,-315.694"/>
<polygon fill="midnightblue" stroke="midnightblue" points="2688.88,-312.944 2678.99,-309.15 2684.35,-318.285 2688.88,-312.944"/>
</g>
<!-- Node66 -->
<g id="node223" class="node"><title>Node66</title>
<polygon fill="none" stroke="#bfbfbf" points="1657,-541.5 1657,-562.5 1701,-562.5 1701,-541.5 1657,-541.5"/>
<text text-anchor="middle" x="1679" y="-549.5" font-family="Helvetica,sans-Serif" font-size="10.00">cerrno</text>
</g>
<!-- Node52&#45;&gt;Node66 -->
<g id="edge314" class="edge"><title>Node52&#45;&gt;Node66</title>
<path fill="none" stroke="midnightblue" d="M1729.09,-606.267C1720.01,-596.423 1706.37,-581.648 1695.62,-570"/>
<polygon fill="midnightblue" stroke="midnightblue" points="1698.08,-567.508 1688.72,-562.534 1692.93,-572.256 1698.08,-567.508"/>
</g>
<!-- Node67 -->
<g id="node225" class="node"><title>Node67</title>
<polygon fill="none" stroke="#bfbfbf" points="1718.5,-541.5 1718.5,-562.5 1761.5,-562.5 1761.5,-541.5 1718.5,-541.5"/>
<text text-anchor="middle" x="1740" y="-549.5" font-family="Helvetica,sans-Serif" font-size="10.00">cstdio</text>
</g>
<!-- Node52&#45;&gt;Node67 -->
<g id="edge316" class="edge"><title>Node52&#45;&gt;Node67</title>
<path fill="none" stroke="midnightblue" d="M1739.17,-606.267C1739.3,-597.18 1739.51,-583.892 1739.68,-572.74"/>
<polygon fill="midnightblue" stroke="midnightblue" points="1743.18,-572.586 1739.84,-562.534 1736.18,-572.479 1743.18,-572.586"/>
</g>
<!-- Node53&#45;&gt;Node22 -->
<g id="edge208" class="edge"><title>Node53&#45;&gt;Node22</title>
<path fill="none" stroke="midnightblue" d="M1663.59,-353.489C1705.18,-343.057 1770.18,-326.309 1826,-310 1926.37,-280.671 1950.6,-270.489 2050,-238 2194.68,-190.71 2228.07,-169.742 2375,-130 2449.97,-109.721 2480.23,-135.302 2546,-94 2570.67,-78.5085 2589.51,-49.9328 2600.17,-30.6962"/>
<polygon fill="midnightblue" stroke="midnightblue" points="2603.4,-32.0821 2604.98,-21.6068 2597.21,-28.8059 2603.4,-32.0821"/>
</g>
<!-- Node53&#45;&gt;Node26 -->
<g id="edge206" class="edge"><title>Node53&#45;&gt;Node26</title>
<path fill="none" stroke="midnightblue" d="M1640.92,-353.376C1663.65,-341.252 1701.03,-321.316 1727,-307.468"/>
<polygon fill="midnightblue" stroke="midnightblue" points="1728.82,-310.462 1736,-302.667 1725.53,-304.285 1728.82,-310.462"/>
</g>
<!-- Node53&#45;&gt;Node48 -->
<g id="edge212" class="edge"><title>Node53&#45;&gt;Node48</title>
<path fill="none" stroke="midnightblue" d="M1557.82,-360.178C1462.54,-353.74 1276.65,-338.547 1121,-310 1108.76,-307.755 1095.49,-304.496 1083.88,-301.367"/>
<polygon fill="midnightblue" stroke="midnightblue" points="1084.76,-297.977 1074.19,-298.679 1082.89,-304.723 1084.76,-297.977"/>
</g>
<!-- Node54 -->
<g id="node159" class="node"><title>Node54</title>
<polygon fill="none" stroke="#bfbfbf" points="1584,-281.5 1584,-302.5 1658,-302.5 1658,-281.5 1584,-281.5"/>
<text text-anchor="middle" x="1621" y="-289.5" font-family="Helvetica,sans-Serif" font-size="10.00">system_error</text>
</g>
<!-- Node53&#45;&gt;Node54 -->
<g id="edge210" class="edge"><title>Node53&#45;&gt;Node54</title>
<path fill="none" stroke="midnightblue" d="M1621,-353.376C1621,-342.741 1621,-326.095 1621,-312.82"/>
<polygon fill="midnightblue" stroke="midnightblue" points="1624.5,-312.667 1621,-302.667 1617.5,-312.667 1624.5,-312.667"/>
</g>
<!-- Node55&#45;&gt;Node4 -->
<g id="edge226" class="edge"><title>Node55&#45;&gt;Node4</title>
<path fill="none" stroke="midnightblue" d="M1260.2,-287.52C1357.49,-278.19 1543.33,-249.956 1675,-166 1704.37,-147.275 1729.9,-115.372 1744.37,-95.0104"/>
<polygon fill="midnightblue" stroke="midnightblue" points="1747.41,-96.7724 1750.21,-86.5561 1741.65,-92.7923 1747.41,-96.7724"/>
</g>
<!-- Node55&#45;&gt;Node5 -->
<g id="edge216" class="edge"><title>Node55&#45;&gt;Node5</title>
<path fill="none" stroke="midnightblue" d="M1149.51,-281.435C1138.55,-278.944 1126.86,-276.336 1116,-274 1037.09,-257.033 1017,-254.554 938,-238 929.997,-236.323 921.567,-234.528 913.27,-232.745"/>
<polygon fill="midnightblue" stroke="midnightblue" points="913.767,-229.271 903.254,-230.584 912.291,-236.114 913.767,-229.271"/>
</g>
<!-- Node55&#45;&gt;Node7 -->
<g id="edge220" class="edge"><title>Node55&#45;&gt;Node7</title>
<path fill="none" stroke="midnightblue" d="M1153.17,-281.468C1102.03,-268.343 1020.78,-246.594 1009,-238 932.394,-182.128 882.266,-75.4745 863.872,-31.1226"/>
<polygon fill="midnightblue" stroke="midnightblue" points="867.061,-29.6705 860.063,-21.7152 860.572,-32.2978 867.061,-29.6705"/>
</g>
<!-- Node55&#45;&gt;Node10 -->
<g id="edge224" class="edge"><title>Node55&#45;&gt;Node10</title>
<path fill="none" stroke="midnightblue" d="M1150.12,-281.48C1088.35,-266.924 983.836,-241.974 976,-238 953.771,-226.726 952.911,-216.992 933,-202 915.319,-188.687 894.588,-174.738 878.66,-164.352"/>
<polygon fill="midnightblue" stroke="midnightblue" points="880.193,-161.175 869.896,-158.68 876.39,-167.052 880.193,-161.175"/>
</g>
<!-- Node55&#45;&gt;Node11 -->
<g id="edge228" class="edge"><title>Node55&#45;&gt;Node11</title>
<path fill="none" stroke="midnightblue" d="M1132.57,-281.488C1116.44,-278.904 1099.09,-276.239 1083,-274 947.368,-255.131 901.026,-296.048 777,-238 767.723,-233.658 724.37,-190.769 699.557,-165.798"/>
<polygon fill="midnightblue" stroke="midnightblue" points="702.034,-163.326 692.509,-158.686 697.062,-168.253 702.034,-163.326"/>
</g>
<!-- Node55&#45;&gt;Node12 -->
<g id="edge230" class="edge"><title>Node55&#45;&gt;Node12</title>
<path fill="none" stroke="midnightblue" d="M1133.47,-281.467C1117.1,-278.84 1099.4,-276.16 1083,-274 927.962,-253.585 875.934,-301.429 733,-238 689.277,-218.597 672.461,-209.697 653,-166 633.05,-121.205 647.943,-61.97 658.287,-31.3196"/>
<polygon fill="midnightblue" stroke="midnightblue" points="661.64,-32.3355 661.691,-21.7408 655.045,-29.9913 661.64,-32.3355"/>
</g>
<!-- Node55&#45;&gt;Node22 -->
<g id="edge222" class="edge"><title>Node55&#45;&gt;Node22</title>
<path fill="none" stroke="midnightblue" d="M1260.06,-288.373C1399.15,-280.307 1721.49,-259.863 1829,-238 1980.23,-207.246 2008.77,-165.302 2159,-130 2266.57,-104.723 2298.36,-122.941 2405,-94 2469.39,-76.5241 2540.82,-44.5294 2580.07,-25.7792"/>
<polygon fill="midnightblue" stroke="midnightblue" points="2581.84,-28.8103 2589.33,-21.3144 2578.8,-22.505 2581.84,-28.8103"/>
</g>
<!-- Node56 -->
<g id="node165" class="node"><title>Node56</title>
<polygon fill="none" stroke="#bfbfbf" points="1018,-209.5 1018,-230.5 1148,-230.5 1148,-209.5 1018,-209.5"/>
<text text-anchor="middle" x="1083" y="-217.5" font-family="Helvetica,sans-Serif" font-size="10.00">tlx/meta/has_member.hpp</text>
</g>
<!-- Node55&#45;&gt;Node56 -->
<g id="edge218" class="edge"><title>Node55&#45;&gt;Node56</title>
<path fill="none" stroke="midnightblue" d="M1178.47,-281.376C1159.95,-269.465 1129.69,-250.013 1108.2,-236.202"/>
<polygon fill="midnightblue" stroke="midnightblue" points="1109.9,-233.131 1099.59,-230.667 1106.11,-239.019 1109.9,-233.131"/>
</g>
<!-- Node57&#45;&gt;Node3 -->
<g id="edge234" class="edge"><title>Node57&#45;&gt;Node3</title>
<path fill="none" stroke="midnightblue" d="M2255.34,-418.674C2204.03,-409.767 2137.59,-396.139 2114,-382 2084.63,-364.393 2060.61,-331.894 2047.32,-311.144"/>
<polygon fill="midnightblue" stroke="midnightblue" points="2050.22,-309.191 2041.98,-302.533 2044.27,-312.877 2050.22,-309.191"/>
</g>
<!-- Node57&#45;&gt;Node4 -->
<g id="edge266" class="edge"><title>Node57&#45;&gt;Node4</title>
<path fill="none" stroke="midnightblue" d="M2262.5,-418.473C2220.47,-409.869 2168.43,-396.75 2152,-382 2113.55,-347.486 2132.23,-320.15 2109,-274 2075.18,-206.794 2081.78,-172.934 2020,-130 1953,-83.4437 1919.87,-110.646 1840,-94 1826.31,-91.1472 1811.38,-87.938 1797.99,-85.0279"/>
<polygon fill="midnightblue" stroke="midnightblue" points="1798.63,-81.5838 1788.11,-82.8718 1797.14,-88.4229 1798.63,-81.5838"/>
</g>
<!-- Node57&#45;&gt;Node6 -->
<g id="edge256" class="edge"><title>Node57&#45;&gt;Node6</title>
<path fill="none" stroke="midnightblue" d="M2386.74,-422.881C2446.95,-416.249 2538.12,-403.603 2615,-382 2777.33,-336.388 2859.41,-368.651 2966,-238 3015.92,-176.817 3014.49,-75.4951 3011.17,-31.9487"/>
<polygon fill="midnightblue" stroke="midnightblue" points="3014.65,-31.6099 3010.29,-21.9547 3007.68,-32.2227 3014.65,-31.6099"/>
</g>
<!-- Node57&#45;&gt;Node8 -->
<g id="edge258" class="edge"><title>Node57&#45;&gt;Node8</title>
<path fill="none" stroke="midnightblue" d="M2291.48,-418.416C2246.51,-400.173 2166,-358.262 2166,-292 2166,-292 2166,-292 2166,-220 2166,-171.427 2145.17,-155.779 2104,-130 2014.07,-73.6875 1963.31,-140.616 1868,-94 1847.1,-83.7787 1850.99,-68.0379 1830,-58 1774.82,-31.6094 1592.7,-17.7604 1515.77,-12.9699"/>
<polygon fill="midnightblue" stroke="midnightblue" points="1515.84,-9.46734 1505.64,-12.3537 1515.41,-16.4544 1515.84,-9.46734"/>
</g>
<!-- Node57&#45;&gt;Node22 -->
<g id="edge264" class="edge"><title>Node57&#45;&gt;Node22</title>
<path fill="none" stroke="midnightblue" d="M2339.7,-418.428C2352.65,-410.15 2369.26,-397.462 2379,-382 2422.84,-312.406 2366.03,-262.27 2422,-202 2457.87,-163.377 2489.88,-193.256 2535,-166 2574,-142.436 2589.91,-135.826 2608,-94 2616.54,-74.2485 2615.8,-49.3056 2613.7,-31.9441"/>
<polygon fill="midnightblue" stroke="midnightblue" points="2617.12,-31.1468 2612.21,-21.7606 2610.19,-32.1628 2617.12,-31.1468"/>
</g>
<!-- Node57&#45;&gt;Node33 -->
<g id="edge260" class="edge"><title>Node57&#45;&gt;Node33</title>
<path fill="none" stroke="midnightblue" d="M2300.01,-418.364C2286.71,-410.361 2270.64,-398.028 2263,-382 2234.22,-321.64 2280.21,-239.391 2321,-202 2361.42,-164.947 2406.37,-210.067 2439,-166 2448.52,-153.141 2444.29,-145.101 2439,-130 2431.04,-107.276 2386.31,-56.6407 2361.17,-29.3197"/>
<polygon fill="midnightblue" stroke="midnightblue" points="2363.42,-26.6013 2354.05,-21.646 2358.29,-31.3596 2363.42,-26.6013"/>
</g>
<!-- Node58 -->
<g id="node176" class="node"><title>Node58</title>
<a xlink:href="item__serialization__tools_8hpp.html" target="_top" xlink:title="thrill/common/item\l_serialization_tools.hpp">
<polygon fill="none" stroke="black" points="2463.5,-203 2463.5,-237 2582.5,-237 2582.5,-203 2463.5,-203"/>
<text text-anchor="start" x="2471.5" y="-224" font-family="Helvetica,sans-Serif" font-size="10.00">thrill/common/item</text>
<text text-anchor="middle" x="2523" y="-211" font-family="Helvetica,sans-Serif" font-size="10.00">_serialization_tools.hpp</text>
</a>
</g>
<!-- Node57&#45;&gt;Node58 -->
<g id="edge236" class="edge"><title>Node57&#45;&gt;Node58</title>
<path fill="none" stroke="midnightblue" d="M2349.87,-418.428C2368.96,-410.452 2393.74,-398.125 2412,-382 2456.85,-342.393 2492.37,-280.955 2510.28,-246.233"/>
<polygon fill="midnightblue" stroke="midnightblue" points="2513.46,-247.691 2514.86,-237.188 2507.22,-244.531 2513.46,-247.691"/>
</g>
<!-- Node57&#45;&gt;Node59 -->
<g id="edge262" class="edge"><title>Node57&#45;&gt;Node59</title>
<path fill="none" stroke="midnightblue" d="M2386.74,-420.773C2469.41,-407.964 2613.08,-377.346 2717,-310 2776.05,-271.728 2824.33,-201.469 2845.47,-167.461"/>
<polygon fill="midnightblue" stroke="midnightblue" points="2848.71,-168.876 2850.92,-158.515 2842.73,-165.233 2848.71,-168.876"/>
</g>
<!-- Node60 -->
<g id="node182" class="node"><title>Node60</title>
<a xlink:href="buffer_8hpp.html" target="_top" xlink:title="thrill/net/buffer.hpp">
<polygon fill="none" stroke="black" points="2272,-353.5 2272,-374.5 2370,-374.5 2370,-353.5 2272,-353.5"/>
<text text-anchor="middle" x="2321" y="-361.5" font-family="Helvetica,sans-Serif" font-size="10.00">thrill/net/buffer.hpp</text>
</a>
</g>
<!-- Node57&#45;&gt;Node60 -->
<g id="edge244" class="edge"><title>Node57&#45;&gt;Node60</title>
<path fill="none" stroke="midnightblue" d="M2321,-418.267C2321,-409.18 2321,-395.892 2321,-384.74"/>
<polygon fill="midnightblue" stroke="midnightblue" points="2324.5,-384.534 2321,-374.534 2317.5,-384.534 2324.5,-384.534"/>
</g>
<!-- Node58&#45;&gt;Node22 -->
<g id="edge242" class="edge"><title>Node58&#45;&gt;Node22</title>
<path fill="none" stroke="midnightblue" d="M2582.91,-209.573C2628.52,-200.272 2685.81,-185.172 2700,-166 2728.56,-127.423 2724.87,-99.052 2700,-58 2687.13,-36.7526 2661.15,-24.6549 2640.4,-18.0723"/>
<polygon fill="midnightblue" stroke="midnightblue" points="2641.29,-14.687 2630.71,-15.2679 2639.34,-21.4109 2641.29,-14.687"/>
</g>
<!-- Node58&#45;&gt;Node46 -->
<g id="edge238" class="edge"><title>Node58&#45;&gt;Node46</title>
<path fill="none" stroke="midnightblue" d="M2495.51,-202.937C2476.51,-191.144 2451.4,-175.56 2432.78,-164.004"/>
<polygon fill="midnightblue" stroke="midnightblue" points="2434.56,-160.988 2424.22,-158.688 2430.87,-166.935 2434.56,-160.988"/>
</g>
<!-- Node58&#45;&gt;Node59 -->
<g id="edge240" class="edge"><title>Node58&#45;&gt;Node59</title>
<path fill="none" stroke="midnightblue" d="M2582.71,-207.128C2650.51,-192.513 2759.21,-169.081 2817.32,-156.553"/>
<polygon fill="midnightblue" stroke="midnightblue" points="2818.19,-159.947 2827.22,-154.419 2816.71,-153.105 2818.19,-159.947"/>
</g>
<!-- Node60&#45;&gt;Node6 -->
<g id="edge248" class="edge"><title>Node60&#45;&gt;Node6</title>
<path fill="none" stroke="midnightblue" d="M2370.33,-360.597C2462.17,-353.719 2655.61,-336.524 2717,-310 2857.09,-249.467 2964.09,-86.5654 2997.81,-30.3715"/>
<polygon fill="midnightblue" stroke="midnightblue" points="3000.84,-32.1201 3002.92,-21.7307 2994.82,-28.5578 3000.84,-32.1201"/>
</g>
<!-- Node60&#45;&gt;Node8 -->
<g id="edge250" class="edge"><title>Node60&#45;&gt;Node8</title>
<path fill="none" stroke="midnightblue" d="M2318.18,-353.287C2307.55,-315.308 2266.12,-186.367 2180,-130 2077.23,-62.7339 2016.89,-146.816 1906,-94 1885,-83.996 1889.05,-67.9012 1868,-58 1805.81,-28.7493 1598.72,-16.3287 1515.78,-12.4444"/>
<polygon fill="midnightblue" stroke="midnightblue" points="1515.76,-8.93999 1505.61,-11.9821 1515.44,-15.9328 1515.76,-8.93999"/>
</g>
<!-- Node60&#45;&gt;Node22 -->
<g id="edge254" class="edge"><title>Node60&#45;&gt;Node22</title>
<path fill="none" stroke="midnightblue" d="M2323.9,-353.249C2332.85,-320.702 2360.89,-224.121 2384,-202 2419.94,-167.592 2445.99,-189.216 2490,-166 2537.17,-141.114 2555.69,-137.885 2586,-94 2598.99,-75.1927 2605.02,-49.3688 2607.77,-31.5442"/>
<polygon fill="midnightblue" stroke="midnightblue" points="2611.24,-31.9887 2609.09,-21.6139 2604.3,-31.0637 2611.24,-31.9887"/>
</g>
<!-- Node60&#45;&gt;Node26 -->
<g id="edge246" class="edge"><title>Node60&#45;&gt;Node26</title>
<path fill="none" stroke="midnightblue" d="M2271.85,-357.736C2171.9,-345 1944.59,-316.033 1827.96,-301.171"/>
<polygon fill="midnightblue" stroke="midnightblue" points="1828.07,-297.657 1817.71,-299.864 1827.19,-304.6 1828.07,-297.657"/>
</g>
<!-- Node60&#45;&gt;Node33 -->
<g id="edge252" class="edge"><title>Node60&#45;&gt;Node33</title>
<path fill="none" stroke="midnightblue" d="M2319.11,-353.322C2314.74,-324.831 2307.03,-246.178 2346,-202 2384.53,-158.322 2436.93,-212.497 2472,-166 2511.68,-113.389 2423.18,-54.059 2374.01,-26.547"/>
<polygon fill="midnightblue" stroke="midnightblue" points="2375.49,-23.3667 2365.04,-21.6344 2372.13,-29.5067 2375.49,-23.3667"/>
</g>
<!-- Node61&#45;&gt;Node3 -->
<g id="edge270" class="edge"><title>Node61&#45;&gt;Node3</title>
<path fill="none" stroke="midnightblue" d="M2435.69,-543.079C2342.47,-527.037 2171.35,-484.832 2070,-382 2051.3,-363.03 2042.71,-332.77 2038.88,-312.648"/>
<polygon fill="midnightblue" stroke="midnightblue" points="2042.31,-311.935 2037.21,-302.647 2035.41,-313.087 2042.31,-311.935"/>
</g>
<!-- Node61&#45;&gt;Node6 -->
<g id="edge282" class="edge"><title>Node61&#45;&gt;Node6</title>
<path fill="none" stroke="midnightblue" d="M2535.43,-541.493C2627.45,-511.421 2879.57,-415.555 2990,-238 3033.09,-168.723 3040.09,-138.359 3026,-58 3024.4,-48.8656 3021.17,-39.1665 3017.96,-30.9662"/>
<polygon fill="midnightblue" stroke="midnightblue" points="3021.1,-29.4103 3014.01,-21.536 3014.64,-32.112 3021.1,-29.4103"/>
</g>
<!-- Node61&#45;&gt;Node22 -->
<g id="edge284" class="edge"><title>Node61&#45;&gt;Node22</title>
<path fill="none" stroke="midnightblue" d="M2520.13,-541.23C2587.78,-501.885 2815.81,-358.118 2895,-166 2927.27,-87.6973 2816.3,-90.2732 2738,-58 2704.96,-44.3821 2666.38,-30.4813 2640.28,-21.3667"/>
<polygon fill="midnightblue" stroke="midnightblue" points="2641.18,-17.9754 2630.58,-18.0019 2638.88,-24.5882 2641.18,-17.9754"/>
</g>
<!-- Node61&#45;&gt;Node58 -->
<g id="edge272" class="edge"><title>Node61&#45;&gt;Node58</title>
<path fill="none" stroke="midnightblue" d="M2508.44,-541.379C2522.15,-520.745 2550,-473.363 2550,-429 2550,-429 2550,-429 2550,-364 2550,-322.544 2539.06,-275.506 2531.1,-246.798"/>
<polygon fill="midnightblue" stroke="midnightblue" points="2534.44,-245.751 2528.33,-237.095 2527.71,-247.672 2534.44,-245.751"/>
</g>
<!-- Node62 -->
<g id="node199" class="node"><title>Node62</title>
<a xlink:href="buffer__ref_8hpp.html" target="_top" xlink:title="thrill/net/buffer_ref.hpp">
<polygon fill="none" stroke="black" points="2395,-476.5 2395,-497.5 2509,-497.5 2509,-476.5 2395,-476.5"/>
<text text-anchor="middle" x="2452" y="-484.5" font-family="Helvetica,sans-Serif" font-size="10.00">thrill/net/buffer_ref.hpp</text>
</a>
</g>
<!-- Node61&#45;&gt;Node62 -->
<g id="edge274" class="edge"><title>Node61&#45;&gt;Node62</title>
<path fill="none" stroke="midnightblue" d="M2492.91,-541.267C2485.63,-531.612 2474.78,-517.215 2466.08,-505.675"/>
<polygon fill="midnightblue" stroke="midnightblue" points="2468.76,-503.412 2459.94,-497.534 2463.17,-507.626 2468.76,-503.412"/>
</g>
<!-- Node62&#45;&gt;Node22 -->
<g id="edge280" class="edge"><title>Node62&#45;&gt;Node22</title>
<path fill="none" stroke="midnightblue" d="M2448.09,-476.292C2434,-435.625 2389.96,-288.674 2455,-202 2488.17,-157.804 2529.16,-198.291 2574,-166 2605.82,-143.083 2613.11,-131.367 2625,-94 2631.66,-73.0851 2625.38,-48.2078 2619.03,-31.1781"/>
<polygon fill="midnightblue" stroke="midnightblue" points="2622.18,-29.6449 2615.18,-21.6945 2615.69,-32.2768 2622.18,-29.6449"/>
</g>
<!-- Node62&#45;&gt;Node57 -->
<g id="edge278" class="edge"><title>Node62&#45;&gt;Node57</title>
<path fill="none" stroke="midnightblue" d="M2428.28,-476.497C2407.63,-467.356 2377.48,-454.008 2354.4,-443.788"/>
<polygon fill="midnightblue" stroke="midnightblue" points="2355.55,-440.469 2344.99,-439.621 2352.72,-446.87 2355.55,-440.469"/>
</g>
<!-- Node62&#45;&gt;Node60 -->
<g id="edge276" class="edge"><title>Node62&#45;&gt;Node60</title>
<path fill="none" stroke="midnightblue" d="M2444.61,-476.489C2434.38,-462.331 2414.91,-436.748 2395,-418 2380.14,-404.005 2361.58,-390.468 2346.76,-380.449"/>
<polygon fill="midnightblue" stroke="midnightblue" points="2348.35,-377.305 2338.09,-374.692 2344.48,-383.138 2348.35,-377.305"/>
</g>
<!-- Node63&#45;&gt;Node22 -->
<g id="edge292" class="edge"><title>Node63&#45;&gt;Node22</title>
<path fill="none" stroke="midnightblue" d="M2850.55,-541.199C2872.14,-521.345 2914,-476.693 2914,-429 2914,-429 2914,-429 2914,-364 2914,-259.991 2959.23,-222.151 2911,-130 2885.44,-81.1573 2860.22,-80.7332 2810,-58 2753.33,-32.3459 2681.04,-19.8321 2640.72,-14.4614"/>
<polygon fill="midnightblue" stroke="midnightblue" points="2641.08,-10.9782 2630.72,-13.1885 2640.19,-17.9223 2641.08,-10.9782"/>
</g>
<!-- Node63&#45;&gt;Node59 -->
<g id="edge290" class="edge"><title>Node63&#45;&gt;Node59</title>
<path fill="none" stroke="midnightblue" d="M2838,-541.47C2838,-520.211 2838,-470.641 2838,-429 2838,-429 2838,-429 2838,-292 2838,-247.895 2846.87,-196.84 2852.49,-168.919"/>
<polygon fill="midnightblue" stroke="midnightblue" points="2855.99,-169.277 2854.59,-158.774 2849.13,-167.854 2855.99,-169.277"/>
</g>
<!-- Node63&#45;&gt;Node64 -->
<g id="edge288" class="edge"><title>Node63&#45;&gt;Node64</title>
<path fill="none" stroke="midnightblue" d="M2780.31,-547.528C2727.05,-543.523 2645.73,-537.724 2575,-534 2081.75,-508.029 1480.32,-491.621 1334.16,-487.839"/>
<polygon fill="midnightblue" stroke="midnightblue" points="1334.13,-484.338 1324.05,-487.579 1333.95,-491.336 1334.13,-484.338"/>
</g>
<!-- Node65&#45;&gt;Node6 -->
<g id="edge298" class="edge"><title>Node65&#45;&gt;Node6</title>
<path fill="none" stroke="midnightblue" d="M2674.58,-274.542C2685.27,-264.222 2698.77,-250.722 2710,-238 2723.41,-222.804 2724.14,-216.795 2738,-202 2770.92,-166.843 2778.13,-155.482 2819,-130 2854.86,-107.644 2870.66,-115.569 2907,-94 2938.92,-75.052 2971.44,-46.6903 2990.92,-28.517"/>
<polygon fill="midnightblue" stroke="midnightblue" points="2993.34,-31.0514 2998.2,-21.6368 2988.53,-25.9659 2993.34,-31.0514"/>
</g>
<!-- Node65&#45;&gt;Node7 -->
<g id="edge300" class="edge"><title>Node65&#45;&gt;Node7</title>
<path fill="none" stroke="midnightblue" d="M2603.34,-290.192C2358.37,-281.743 1340.89,-246.22 1309,-238 1286.02,-232.075 979.777,-74.7798 884.254,-25.5709"/>
<polygon fill="midnightblue" stroke="midnightblue" points="885.67,-22.3633 875.177,-20.8938 882.463,-28.5858 885.67,-22.3633"/>
</g>
<!-- Node65&#45;&gt;Node8 -->
<g id="edge302" class="edge"><title>Node65&#45;&gt;Node8</title>
<path fill="none" stroke="midnightblue" d="M2647.06,-274.748C2636.11,-254.996 2615.89,-222.707 2591,-202 2533.53,-154.197 2511.28,-149.062 2439,-130 2227.85,-74.3153 2151.37,-176.045 1949,-94 1925.9,-84.6352 1928.92,-67.7882 1906,-58 1870.42,-42.8065 1610.96,-21.1913 1515.84,-13.688"/>
<polygon fill="midnightblue" stroke="midnightblue" points="1515.84,-10.1773 1505.59,-12.8846 1515.29,-17.1559 1515.84,-10.1773"/>
</g>
<!-- Node65&#45;&gt;Node22 -->
<g id="edge308" class="edge"><title>Node65&#45;&gt;Node22</title>
<path fill="none" stroke="midnightblue" d="M2666.48,-274.836C2683.87,-245.957 2717.37,-188.597 2723,-166 2727.58,-147.627 2729.61,-69.2727 2722,-58 2703.88,-31.1508 2667.18,-19.6006 2640.72,-14.6563"/>
<polygon fill="midnightblue" stroke="midnightblue" points="2641.23,-11.193 2630.79,-13.0162 2640.09,-18.0994 2641.23,-11.193"/>
</g>
<!-- Node65&#45;&gt;Node33 -->
<g id="edge304" class="edge"><title>Node65&#45;&gt;Node33</title>
<path fill="none" stroke="midnightblue" d="M2653.07,-274.883C2646.66,-242.36 2628.41,-171.21 2586,-130 2524.43,-70.1693 2426.9,-34.996 2376.52,-19.8533"/>
<polygon fill="midnightblue" stroke="midnightblue" points="2377.38,-16.4598 2366.8,-17.0074 2375.42,-23.1775 2377.38,-16.4598"/>
</g>
<!-- Node65&#45;&gt;Node58 -->
<g id="edge296" class="edge"><title>Node65&#45;&gt;Node58</title>
<path fill="none" stroke="midnightblue" d="M2624.48,-274.937C2606.31,-265.101 2583.27,-252.627 2563.74,-242.053"/>
<polygon fill="midnightblue" stroke="midnightblue" points="2565.21,-238.873 2554.75,-237.19 2561.88,-245.029 2565.21,-238.873"/>
</g>
<!-- Node65&#45;&gt;Node59 -->
<g id="edge306" class="edge"><title>Node65&#45;&gt;Node59</title>
<path fill="none" stroke="midnightblue" d="M2682.88,-274.923C2699.04,-264.509 2719.9,-250.784 2738,-238 2747.57,-231.239 2803.09,-189.055 2834.8,-164.913"/>
<polygon fill="midnightblue" stroke="midnightblue" points="2837.22,-167.47 2843.06,-158.627 2832.98,-161.901 2837.22,-167.47"/>
</g>
<!-- Node68&#45;&gt;Node5 -->
<g id="edge336" class="edge"><title>Node68&#45;&gt;Node5</title>
<path fill="none" stroke="midnightblue" d="M873.503,-606.481C885.405,-598.228 900.185,-585.549 907,-570 913.423,-555.346 909.671,-549.775 907,-534 895.055,-463.46 865.945,-452.54 854,-382 851.329,-366.225 853.937,-362 854,-346 854.147,-309.008 854.536,-265.909 854.783,-240.911"/>
<polygon fill="midnightblue" stroke="midnightblue" points="858.284,-240.822 854.886,-230.787 851.285,-240.751 858.284,-240.822"/>
</g>
<!-- Node68&#45;&gt;Node9 -->
<g id="edge346" class="edge"><title>Node68&#45;&gt;Node9</title>
<path fill="none" stroke="midnightblue" d="M798.702,-614.938C718.735,-611 578.964,-599.938 539,-570 458.309,-509.552 444,-464.822 444,-364 444,-364 444,-364 444,-292 444,-241.75 407.355,-191.853 384.957,-166.048"/>
<polygon fill="midnightblue" stroke="midnightblue" points="387.524,-163.669 378.25,-158.547 382.306,-168.334 387.524,-163.669"/>
</g>
<!-- Node68&#45;&gt;Node49 -->
<g id="edge338" class="edge"><title>Node68&#45;&gt;Node49</title>
<path fill="none" stroke="midnightblue" d="M894.727,-627.523C926.437,-636.985 970.885,-650.944 1002.31,-661.279"/>
<polygon fill="midnightblue" stroke="midnightblue" points="1001.43,-664.674 1012.02,-664.497 1003.63,-658.029 1001.43,-664.674"/>
</g>
<!-- Node69 -->
<g id="node239" class="node"><title>Node69</title>
<polygon fill="none" stroke="#bfbfbf" points="813.5,-541.5 813.5,-562.5 898.5,-562.5 898.5,-541.5 813.5,-541.5"/>
<text text-anchor="middle" x="856" y="-549.5" font-family="Helvetica,sans-Serif" font-size="10.00">tlx/math/ffs.hpp</text>
</g>
<!-- Node68&#45;&gt;Node69 -->
<g id="edge340" class="edge"><title>Node68&#45;&gt;Node69</title>
<path fill="none" stroke="midnightblue" d="M856,-606.267C856,-597.18 856,-583.892 856,-572.74"/>
<polygon fill="midnightblue" stroke="midnightblue" points="859.5,-572.534 856,-562.534 852.5,-572.534 859.5,-572.534"/>
</g>
<!-- Node70 -->
<g id="node241" class="node"><title>Node70</title>
<polygon fill="none" stroke="#bfbfbf" points="547.5,-535 547.5,-569 654.5,-569 654.5,-535 547.5,-535"/>
<text text-anchor="start" x="555.5" y="-556" font-family="Helvetica,sans-Serif" font-size="10.00">tlx/math/is_power_of</text>
<text text-anchor="middle" x="601" y="-543" font-family="Helvetica,sans-Serif" font-size="10.00">_two.hpp</text>
</g>
<!-- Node68&#45;&gt;Node70 -->
<g id="edge342" class="edge"><title>Node68&#45;&gt;Node70</title>
<path fill="none" stroke="midnightblue" d="M810.233,-606.449C773.257,-597.791 719.645,-584.937 664.647,-570.392"/>
<polygon fill="midnightblue" stroke="midnightblue" points="665.292,-566.942 654.728,-567.754 663.493,-573.707 665.292,-566.942"/>
</g>
<!-- Node71 -->
<g id="node243" class="node"><title>Node71</title>
<polygon fill="none" stroke="#bfbfbf" points="672,-535 672,-569 796,-569 796,-535 672,-535"/>
<text text-anchor="start" x="680" y="-556" font-family="Helvetica,sans-Serif" font-size="10.00">tlx/math/round_to_power</text>
<text text-anchor="middle" x="734" y="-543" font-family="Helvetica,sans-Serif" font-size="10.00">_of_two.hpp</text>
</g>
<!-- Node68&#45;&gt;Node71 -->
<g id="edge344" class="edge"><title>Node68&#45;&gt;Node71</title>
<path fill="none" stroke="midnightblue" d="M836.127,-606.412C819.659,-597.638 795.704,-584.875 775.133,-573.915"/>
<polygon fill="midnightblue" stroke="midnightblue" points="776.73,-570.8 766.259,-569.187 773.438,-576.978 776.73,-570.8"/>
</g>
</g>
</svg>
