<?xml version="1.0" encoding="UTF-8" standalone="no"?>
<!DOCTYPE svg PUBLIC "-//W3C//DTD SVG 1.1//EN"
 "http://www.w3.org/Graphics/SVG/1.1/DTD/svg11.dtd">
<!-- Generated by graphviz version 2.36.0 (20140111.2315)
 -->
<!-- Title: extlib/tlx/tlx/string/format_si_iec_units.hpp Pages: 1 -->
<svg width="227pt" height="164pt"
 viewBox="0.00 0.00 227.00 164.00" xmlns="http://www.w3.org/2000/svg" xmlns:xlink="http://www.w3.org/1999/xlink">
<g id="graph0" class="graph" transform="scale(1 1) rotate(0) translate(4 160)">
<title>extlib/tlx/tlx/string/format_si_iec_units.hpp</title>
<!-- Node1 -->
<g id="node1" class="node"><title>Node1</title>
<polygon fill="#bfbfbf" stroke="black" points="48.5,-125 48.5,-155 171.5,-155 171.5,-125 48.5,-125"/>
<text text-anchor="start" x="56.5" y="-143" font-family="Helvetica,sans-Serif" font-size="10.00">extlib/tlx/tlx/string</text>
<text text-anchor="middle" x="110" y="-132" font-family="Helvetica,sans-Serif" font-size="10.00">/format_si_iec_units.hpp</text>
</g>
<!-- Node2 -->
<g id="node2" class="node"><title>Node2</title>
<g id="a_node2"><a xlink:href="format__iec__units_8hpp.html" target="_top" xlink:title="tlx/string/format_iec\l_units.hpp">
<polygon fill="none" stroke="black" points="-0.5,-57 -0.5,-87 102.5,-87 102.5,-57 -0.5,-57"/>
<text text-anchor="start" x="7.5" y="-75" font-family="Helvetica,sans-Serif" font-size="10.00">tlx/string/format_iec</text>
<text text-anchor="middle" x="51" y="-64" font-family="Helvetica,sans-Serif" font-size="10.00">_units.hpp</text>
</a>
</g>
</g>
<!-- Node1&#45;&gt;Node2 -->
<g id="edge1" class="edge"><title>Node1&#45;&gt;Node2</title>
<path fill="none" stroke="midnightblue" d="M97.1979,-124.679C89.3891,-115.944 79.2528,-104.605 70.4652,-94.7747"/>
<polygon fill="midnightblue" stroke="midnightblue" points="73.0512,-92.4158 63.7771,-87.2931 67.8324,-97.0811 73.0512,-92.4158"/>
</g>
<!-- Node4 -->
<g id="node4" class="node"><title>Node4</title>
<g id="a_node4"><a xlink:href="format__si__units_8hpp.html" target="_top" xlink:title="tlx/string/format_si\l_units.hpp">
<polygon fill="none" stroke="black" points="121,-57 121,-87 219,-87 219,-57 121,-57"/>
<text text-anchor="start" x="129" y="-75" font-family="Helvetica,sans-Serif" font-size="10.00">tlx/string/format_si</text>
<text text-anchor="middle" x="170" y="-64" font-family="Helvetica,sans-Serif" font-size="10.00">_units.hpp</text>
</a>
</g>
</g>
<!-- Node1&#45;&gt;Node4 -->
<g id="edge3" class="edge"><title>Node1&#45;&gt;Node4</title>
<path fill="none" stroke="midnightblue" d="M123.019,-124.679C130.96,-115.944 141.268,-104.605 150.205,-94.7747"/>
<polygon fill="midnightblue" stroke="midnightblue" points="152.869,-97.0469 157.006,-87.2931 147.69,-92.3381 152.869,-97.0469"/>
</g>
<!-- Node3 -->
<g id="node3" class="node"><title>Node3</title>
<polygon fill="none" stroke="#bfbfbf" points="89.5,-0.5 89.5,-19.5 130.5,-19.5 130.5,-0.5 89.5,-0.5"/>
<text text-anchor="middle" x="110" y="-7.5" font-family="Helvetica,sans-Serif" font-size="10.00">string</text>
</g>
<!-- Node2&#45;&gt;Node3 -->
<g id="edge2" class="edge"><title>Node2&#45;&gt;Node3</title>
<path fill="none" stroke="midnightblue" d="M64.9822,-56.7808C73.8207,-47.7925 85.2574,-36.162 94.3915,-26.8731"/>
<polygon fill="midnightblue" stroke="midnightblue" points="96.8991,-29.3148 101.415,-19.7305 91.908,-24.4068 96.8991,-29.3148"/>
</g>
<!-- Node4&#45;&gt;Node3 -->
<g id="edge4" class="edge"><title>Node4&#45;&gt;Node3</title>
<path fill="none" stroke="midnightblue" d="M155.781,-56.7808C146.792,-47.7925 135.162,-36.162 125.873,-26.8731"/>
<polygon fill="midnightblue" stroke="midnightblue" points="128.277,-24.3267 118.731,-19.7305 123.327,-29.2765 128.277,-24.3267"/>
</g>
</g>
</svg>
