<?xml version="1.0" encoding="UTF-8" standalone="no"?>
<!DOCTYPE svg PUBLIC "-//W3C//DTD SVG 1.1//EN"
 "http://www.w3.org/Graphics/SVG/1.1/DTD/svg11.dtd">
<!-- Generated by graphviz version 2.36.0 (20140111.2315)
 -->
<!-- Title: extlib/tlx/tlx/string/format_si_iec_units.hpp Pages: 1 -->
<svg width="636pt" height="108pt"
 viewBox="0.00 0.00 636.00 108.00" xmlns="http://www.w3.org/2000/svg" xmlns:xlink="http://www.w3.org/1999/xlink">
<g id="graph0" class="graph" transform="scale(1 1) rotate(0) translate(4 104)">
<title>extlib/tlx/tlx/string/format_si_iec_units.hpp</title>
<!-- Node1 -->
<g id="node1" class="node"><title>Node1</title>
<polygon fill="#bfbfbf" stroke="black" points="234.5,-69 234.5,-99 357.5,-99 357.5,-69 234.5,-69"/>
<text text-anchor="start" x="242.5" y="-87" font-family="Helvetica,sans-Serif" font-size="10.00">extlib/tlx/tlx/string</text>
<text text-anchor="middle" x="296" y="-76" font-family="Helvetica,sans-Serif" font-size="10.00">/format_si_iec_units.hpp</text>
</g>
<!-- Node2 -->
<g id="node2" class="node"><title>Node2</title>
<g id="a_node2"><a xlink:href="context_8cpp.html" target="_top" xlink:title="thrill/api/context.cpp">
<polygon fill="none" stroke="black" points="0,-6.5 0,-25.5 104,-25.5 104,-6.5 0,-6.5"/>
<text text-anchor="middle" x="52" y="-13.5" font-family="Helvetica,sans-Serif" font-size="10.00">thrill/api/context.cpp</text>
</a>
</g>
</g>
<!-- Node1&#45;&gt;Node2 -->
<g id="edge1" class="edge"><title>Node1&#45;&gt;Node2</title>
<path fill="none" stroke="midnightblue" d="M234.271,-66.3029C186.201,-53.3002 121.457,-35.7876 83.4751,-25.5138"/>
<polygon fill="midnightblue" stroke="midnightblue" points="233.388,-69.6897 243.955,-68.9223 235.216,-62.9326 233.388,-69.6897"/>
</g>
<!-- Node3 -->
<g id="node3" class="node"><title>Node3</title>
<g id="a_node3"><a xlink:href="iostats_8cpp.html" target="_top" xlink:title="thrill/io/iostats.cpp">
<polygon fill="none" stroke="black" points="122,-6.5 122,-25.5 218,-25.5 218,-6.5 122,-6.5"/>
<text text-anchor="middle" x="170" y="-13.5" font-family="Helvetica,sans-Serif" font-size="10.00">thrill/io/iostats.cpp</text>
</a>
</g>
</g>
<!-- Node1&#45;&gt;Node3 -->
<g id="edge2" class="edge"><title>Node1&#45;&gt;Node3</title>
<path fill="none" stroke="midnightblue" d="M260.068,-64.1784C235.901,-51.5196 205.173,-35.4238 186.575,-25.6819"/>
<polygon fill="midnightblue" stroke="midnightblue" points="258.487,-67.3016 268.97,-68.8413 261.736,-61.1008 258.487,-67.3016"/>
</g>
<!-- Node4 -->
<g id="node4" class="node"><title>Node4</title>
<g id="a_node4"><a xlink:href="just__sort_8cpp.html" target="_top" xlink:title="examples/suffix_sorting\l/just_sort.cpp">
<polygon fill="none" stroke="black" points="236,-1 236,-31 356,-31 356,-1 236,-1"/>
<text text-anchor="start" x="244" y="-19" font-family="Helvetica,sans-Serif" font-size="10.00">examples/suffix_sorting</text>
<text text-anchor="middle" x="296" y="-8" font-family="Helvetica,sans-Serif" font-size="10.00">/just_sort.cpp</text>
</a>
</g>
</g>
<!-- Node1&#45;&gt;Node4 -->
<g id="edge3" class="edge"><title>Node1&#45;&gt;Node4</title>
<path fill="none" stroke="midnightblue" d="M296,-58.5322C296,-49.3606 296,-39.2449 296,-31.2931"/>
<polygon fill="midnightblue" stroke="midnightblue" points="292.5,-58.6789 296,-68.679 299.5,-58.679 292.5,-58.6789"/>
</g>
<!-- Node5 -->
<g id="node5" class="node"><title>Node5</title>
<g id="a_node5"><a xlink:href="format__si__iec__units_8cpp.html" target="_top" xlink:title="extlib/tlx/tlx/string\l/format_si_iec_units.cpp">
<polygon fill="none" stroke="black" points="374.5,-1 374.5,-31 497.5,-31 497.5,-1 374.5,-1"/>
<text text-anchor="start" x="382.5" y="-19" font-family="Helvetica,sans-Serif" font-size="10.00">extlib/tlx/tlx/string</text>
<text text-anchor="middle" x="436" y="-8" font-family="Helvetica,sans-Serif" font-size="10.00">/format_si_iec_units.cpp</text>
</a>
</g>
</g>
<!-- Node1&#45;&gt;Node5 -->
<g id="edge4" class="edge"><title>Node1&#45;&gt;Node5</title>
<path fill="none" stroke="midnightblue" d="M335.284,-64.4805C357.7,-53.9128 385.359,-40.8738 406.016,-31.1352"/>
<polygon fill="midnightblue" stroke="midnightblue" points="333.586,-61.4113 326.034,-68.8413 336.571,-67.7429 333.586,-61.4113"/>
</g>
<!-- Node6 -->
<g id="node6" class="node"><title>Node6</title>
<g id="a_node6"><a xlink:href="extlib_2tlx_2tlx_2string_8hpp.html" target="_top" xlink:title="extlib/tlx/tlx/string.hpp">
<polygon fill="none" stroke="black" points="515.5,-6.5 515.5,-25.5 628.5,-25.5 628.5,-6.5 515.5,-6.5"/>
<text text-anchor="middle" x="572" y="-13.5" font-family="Helvetica,sans-Serif" font-size="10.00">extlib/tlx/tlx/string.hpp</text>
</a>
</g>
</g>
<!-- Node1&#45;&gt;Node6 -->
<g id="edge5" class="edge"><title>Node1&#45;&gt;Node6</title>
<path fill="none" stroke="midnightblue" d="M364.805,-66.5467C419.281,-53.5199 493.164,-35.852 536.397,-25.5138"/>
<polygon fill="midnightblue" stroke="midnightblue" points="363.782,-63.1925 354.87,-68.9223 365.41,-70.0005 363.782,-63.1925"/>
</g>
</g>
</svg>
