<?xml version="1.0" encoding="UTF-8" standalone="no"?>
<!DOCTYPE svg PUBLIC "-//W3C//DTD SVG 1.1//EN"
 "http://www.w3.org/Graphics/SVG/1.1/DTD/svg11.dtd">
<!-- Generated by graphviz version 2.40.1 (20161225.0304)
 -->
<!-- Title: thrill/common/function_traits.hpp Pages: 1 -->
<svg width="207pt" height="95pt"
 viewBox="0.00 0.00 207.00 95.00" xmlns="http://www.w3.org/2000/svg" xmlns:xlink="http://www.w3.org/1999/xlink">
<g id="graph0" class="graph" transform="scale(1 1) rotate(0) translate(4 91)">
<title>thrill/common/function_traits.hpp</title>
<!-- Node0 -->
<g id="node1" class="node">
<title>Node0</title>
<polygon fill="#bfbfbf" stroke="#000000" points="27.5,-56.5 27.5,-86.5 155.5,-86.5 155.5,-56.5 27.5,-56.5"/>
<text text-anchor="start" x="35.5" y="-74.5" font-family="Helvetica,sans-Serif" font-size="10.00" fill="#000000">thrill/common/function</text>
<text text-anchor="middle" x="91.5" y="-63.5" font-family="Helvetica,sans-Serif" font-size="10.00" fill="#000000">_traits.hpp</text>
</g>
<!-- Node1 -->
<g id="node2" class="node">
<title>Node1</title>
<polygon fill="none" stroke="#bfbfbf" points="0,-.5 0,-19.5 53,-19.5 53,-.5 0,-.5"/>
<text text-anchor="middle" x="26.5" y="-7.5" font-family="Helvetica,sans-Serif" font-size="10.00" fill="#000000">cstddef</text>
</g>
<!-- Node0&#45;&gt;Node1 -->
<g id="edge1" class="edge">
<title>Node0&#45;&gt;Node1</title>
<path fill="none" stroke="#191970" d="M75.4326,-56.2977C66.034,-47.4052 54.1473,-36.1586 44.443,-26.9769"/>
<polygon fill="#191970" stroke="#191970" points="46.5768,-24.1774 36.9073,-19.8469 41.7658,-29.2621 46.5768,-24.1774"/>
</g>
<!-- Node2 -->
<g id="node3" class="node">
<title>Node2</title>
<polygon fill="none" stroke="#bfbfbf" points="71,-.5 71,-19.5 112,-19.5 112,-.5 71,-.5"/>
<text text-anchor="middle" x="91.5" y="-7.5" font-family="Helvetica,sans-Serif" font-size="10.00" fill="#000000">tuple</text>
</g>
<!-- Node0&#45;&gt;Node2 -->
<g id="edge2" class="edge">
<title>Node0&#45;&gt;Node2</title>
<path fill="none" stroke="#191970" d="M91.5,-56.2977C91.5,-48.3834 91.5,-38.6043 91.5,-30.0759"/>
<polygon fill="#191970" stroke="#191970" points="95.0001,-29.8469 91.5,-19.8469 88.0001,-29.847 95.0001,-29.8469"/>
</g>
<!-- Node3 -->
<g id="node4" class="node">
<title>Node3</title>
<polygon fill="none" stroke="#bfbfbf" points="130,-.5 130,-19.5 199,-19.5 199,-.5 130,-.5"/>
<text text-anchor="middle" x="164.5" y="-7.5" font-family="Helvetica,sans-Serif" font-size="10.00" fill="#000000">type_traits</text>
</g>
<!-- Node0&#45;&gt;Node3 -->
<g id="edge3" class="edge">
<title>Node0&#45;&gt;Node3</title>
<path fill="none" stroke="#191970" d="M109.5449,-56.2977C120.3114,-47.2274 133.9851,-35.7077 144.9995,-26.4285"/>
<polygon fill="#191970" stroke="#191970" points="147.4191,-28.9667 152.8118,-19.8469 142.9089,-23.6132 147.4191,-28.9667"/>
</g>
</g>
</svg>
