<?xml version="1.0" encoding="UTF-8" standalone="no"?>
<!DOCTYPE svg PUBLIC "-//W3C//DTD SVG 1.1//EN"
 "http://www.w3.org/Graphics/SVG/1.1/DTD/svg11.dtd">
<!-- Generated by graphviz version 2.36.0 (20140111.2315)
 -->
<!-- Title: thrill/api/gather.hpp Pages: 1 -->
<svg width="2615pt" height="242pt"
 viewBox="0.00 0.00 2615.00 242.00" xmlns="http://www.w3.org/2000/svg" xmlns:xlink="http://www.w3.org/1999/xlink">
<g id="graph0" class="graph" transform="scale(1 1) rotate(0) translate(4 238)">
<title>thrill/api/gather.hpp</title>
<!-- Node1 -->
<g id="node1" class="node"><title>Node1</title>
<polygon fill="#bfbfbf" stroke="black" points="1031.5,-214.5 1031.5,-233.5 1130.5,-233.5 1130.5,-214.5 1031.5,-214.5"/>
<text text-anchor="middle" x="1081" y="-221.5" font-family="Helvetica,sans-Serif" font-size="10.00">thrill/api/gather.hpp</text>
</g>
<!-- Node2 -->
<g id="node2" class="node"><title>Node2</title>
<g id="a_node2"><a xlink:href="print_8hpp.html" target="_top" xlink:title="thrill/api/print.hpp">
<polygon fill="none" stroke="black" points="1035.5,-147.5 1035.5,-166.5 1126.5,-166.5 1126.5,-147.5 1035.5,-147.5"/>
<text text-anchor="middle" x="1081" y="-154.5" font-family="Helvetica,sans-Serif" font-size="10.00">thrill/api/print.hpp</text>
</a>
</g>
</g>
<!-- Node1&#45;&gt;Node2 -->
<g id="edge1" class="edge"><title>Node1&#45;&gt;Node2</title>
<path fill="none" stroke="midnightblue" d="M1081,-204.037C1081,-191.67 1081,-176.12 1081,-166.627"/>
<polygon fill="midnightblue" stroke="midnightblue" points="1077.5,-204.234 1081,-214.234 1084.5,-204.234 1077.5,-204.234"/>
</g>
<!-- Node3 -->
<g id="node3" class="node"><title>Node3</title>
<g id="a_node3"><a xlink:href="thrill_8hpp.html" target="_top" xlink:title="thrill/thrill.hpp">
<polygon fill="none" stroke="black" points="0,-74.5 0,-93.5 74,-93.5 74,-74.5 0,-74.5"/>
<text text-anchor="middle" x="37" y="-81.5" font-family="Helvetica,sans-Serif" font-size="10.00">thrill/thrill.hpp</text>
</a>
</g>
</g>
<!-- Node1&#45;&gt;Node3 -->
<g id="edge26" class="edge"><title>Node1&#45;&gt;Node3</title>
<path fill="none" stroke="midnightblue" d="M1021.28,-223.771C896.03,-224.417 597.086,-220.849 351,-178 238.976,-158.494 110.339,-112.704 59.421,-93.6035"/>
<polygon fill="midnightblue" stroke="midnightblue" points="1021.45,-227.271 1031.43,-223.708 1021.41,-220.271 1021.45,-227.271"/>
</g>
<!-- Node12 -->
<g id="node12" class="node"><title>Node12</title>
<g id="a_node12"><a xlink:href="dc3_8cpp.html" target="_top" xlink:title="examples/suffix_sorting\l/dc3.cpp">
<polygon fill="none" stroke="black" points="92,-69 92,-99 212,-99 212,-69 92,-69"/>
<text text-anchor="start" x="100" y="-87" font-family="Helvetica,sans-Serif" font-size="10.00">examples/suffix_sorting</text>
<text text-anchor="middle" x="152" y="-76" font-family="Helvetica,sans-Serif" font-size="10.00">/dc3.cpp</text>
</a>
</g>
</g>
<!-- Node1&#45;&gt;Node12 -->
<g id="edge31" class="edge"><title>Node1&#45;&gt;Node12</title>
<path fill="none" stroke="midnightblue" d="M1021.18,-220.687C922.942,-216.266 721.517,-204.583 553,-178 425.227,-157.844 277.676,-119.7 202.187,-99.0797"/>
<polygon fill="midnightblue" stroke="midnightblue" points="1021.07,-224.186 1031.22,-221.129 1021.38,-217.192 1021.07,-224.186"/>
</g>
<!-- Node13 -->
<g id="node13" class="node"><title>Node13</title>
<g id="a_node13"><a xlink:href="dc7_8cpp.html" target="_top" xlink:title="examples/suffix_sorting\l/dc7.cpp">
<polygon fill="none" stroke="black" points="230,-69 230,-99 350,-99 350,-69 230,-69"/>
<text text-anchor="start" x="238" y="-87" font-family="Helvetica,sans-Serif" font-size="10.00">examples/suffix_sorting</text>
<text text-anchor="middle" x="290" y="-76" font-family="Helvetica,sans-Serif" font-size="10.00">/dc7.cpp</text>
</a>
</g>
</g>
<!-- Node1&#45;&gt;Node13 -->
<g id="edge32" class="edge"><title>Node1&#45;&gt;Node13</title>
<path fill="none" stroke="midnightblue" d="M1021.37,-213.779C897.61,-194.436 603.96,-147.467 359,-100 356.112,-99.4403 353.158,-98.8537 350.178,-98.2502"/>
<polygon fill="midnightblue" stroke="midnightblue" points="1020.98,-217.261 1031.4,-215.345 1022.06,-210.345 1020.98,-217.261"/>
</g>
<!-- Node25 -->
<g id="node25" class="node"><title>Node25</title>
<g id="a_node25"><a xlink:href="k-means__run_8cpp.html" target="_top" xlink:title="examples/k&#45;means/k\l&#45;means_run.cpp">
<polygon fill="none" stroke="black" points="1144.5,-142 1144.5,-172 1251.5,-172 1251.5,-142 1144.5,-142"/>
<text text-anchor="start" x="1152.5" y="-160" font-family="Helvetica,sans-Serif" font-size="10.00">examples/k&#45;means/k</text>
<text text-anchor="middle" x="1198" y="-149" font-family="Helvetica,sans-Serif" font-size="10.00">&#45;means_run.cpp</text>
</a>
</g>
</g>
<!-- Node1&#45;&gt;Node25 -->
<g id="edge27" class="edge"><title>Node1&#45;&gt;Node25</title>
<path fill="none" stroke="midnightblue" d="M1105.74,-209.253C1125.41,-198.327 1152.81,-183.103 1172.64,-172.089"/>
<polygon fill="midnightblue" stroke="midnightblue" points="1103.82,-206.318 1096.78,-214.234 1107.22,-212.437 1103.82,-206.318"/>
</g>
<!-- Node26 -->
<g id="node26" class="node"><title>Node26</title>
<g id="a_node26"><a xlink:href="examples_2select_2select_8hpp.html" target="_top" xlink:title="examples/select/select.hpp">
<polygon fill="none" stroke="black" points="1270,-147.5 1270,-166.5 1406,-166.5 1406,-147.5 1270,-147.5"/>
<text text-anchor="middle" x="1338" y="-154.5" font-family="Helvetica,sans-Serif" font-size="10.00">examples/select/select.hpp</text>
</a>
</g>
</g>
<!-- Node1&#45;&gt;Node26 -->
<g id="edge28" class="edge"><title>Node1&#45;&gt;Node26</title>
<path fill="none" stroke="midnightblue" d="M1125.09,-211.976C1161.33,-202.901 1214.01,-189.677 1260,-178 1274.77,-174.25 1291.1,-170.068 1304.99,-166.501"/>
<polygon fill="midnightblue" stroke="midnightblue" points="1124.18,-208.597 1115.33,-214.421 1125.88,-215.388 1124.18,-208.597"/>
</g>
<!-- Node28 -->
<g id="node28" class="node"><title>Node28</title>
<g id="a_node28"><a xlink:href="stochastic__gradient__descent__run_8cpp.html" target="_top" xlink:title="examples/stochastic\l_gradient_descent/stochastic\l_gradient_descent_run.cpp">
<polygon fill="none" stroke="black" points="1424,-136.5 1424,-177.5 1568,-177.5 1568,-136.5 1424,-136.5"/>
<text text-anchor="start" x="1432" y="-165.5" font-family="Helvetica,sans-Serif" font-size="10.00">examples/stochastic</text>
<text text-anchor="start" x="1432" y="-154.5" font-family="Helvetica,sans-Serif" font-size="10.00">_gradient_descent/stochastic</text>
<text text-anchor="middle" x="1496" y="-143.5" font-family="Helvetica,sans-Serif" font-size="10.00">_gradient_descent_run.cpp</text>
</a>
</g>
</g>
<!-- Node1&#45;&gt;Node28 -->
<g id="edge30" class="edge"><title>Node1&#45;&gt;Node28</title>
<path fill="none" stroke="midnightblue" d="M1140.46,-216.953C1207.5,-209.681 1319.6,-196.15 1415,-178 1417.85,-177.459 1420.74,-176.88 1423.66,-176.272"/>
<polygon fill="midnightblue" stroke="midnightblue" points="1140.07,-213.475 1130.5,-218.023 1140.82,-220.435 1140.07,-213.475"/>
</g>
<!-- Node2&#45;&gt;Node3 -->
<g id="edge2" class="edge"><title>Node2&#45;&gt;Node3</title>
<path fill="none" stroke="midnightblue" d="M1025.15,-154.768C842.757,-150.447 265.888,-134.346 83,-100 75.0746,-98.5116 66.6245,-96.0302 59.1577,-93.5097"/>
<polygon fill="midnightblue" stroke="midnightblue" points="1025.24,-158.271 1035.32,-155.006 1025.4,-151.273 1025.24,-158.271"/>
</g>
<!-- Node4 -->
<g id="node4" class="node"><title>Node4</title>
<g id="a_node4"><a xlink:href="bfs_8cpp.html" target="_top" xlink:title="examples/bfs/bfs.cpp">
<polygon fill="none" stroke="black" points="954,-74.5 954,-93.5 1064,-93.5 1064,-74.5 954,-74.5"/>
<text text-anchor="middle" x="1009" y="-81.5" font-family="Helvetica,sans-Serif" font-size="10.00">examples/bfs/bfs.cpp</text>
</a>
</g>
</g>
<!-- Node2&#45;&gt;Node4 -->
<g id="edge3" class="edge"><title>Node2&#45;&gt;Node4</title>
<path fill="none" stroke="midnightblue" d="M1064.86,-140.08C1050.35,-125.78 1029.6,-105.312 1017.9,-93.7772"/>
<polygon fill="midnightblue" stroke="midnightblue" points="1062.59,-142.765 1072.17,-147.294 1067.51,-137.78 1062.59,-142.765"/>
</g>
<!-- Node5 -->
<g id="node5" class="node"><title>Node5</title>
<g id="a_node5"><a xlink:href="logistic__regression_8cpp.html" target="_top" xlink:title="examples/logistic_regression\l/logistic_regression.cpp">
<polygon fill="none" stroke="black" points="1082.5,-69 1082.5,-99 1225.5,-99 1225.5,-69 1082.5,-69"/>
<text text-anchor="start" x="1090.5" y="-87" font-family="Helvetica,sans-Serif" font-size="10.00">examples/logistic_regression</text>
<text text-anchor="middle" x="1154" y="-76" font-family="Helvetica,sans-Serif" font-size="10.00">/logistic_regression.cpp</text>
</a>
</g>
</g>
<!-- Node2&#45;&gt;Node5 -->
<g id="edge4" class="edge"><title>Node2&#45;&gt;Node5</title>
<path fill="none" stroke="midnightblue" d="M1097.47,-139.981C1110.08,-127.716 1127.31,-110.957 1139.42,-99.176"/>
<polygon fill="midnightblue" stroke="midnightblue" points="1094.68,-137.813 1089.95,-147.294 1099.56,-142.831 1094.68,-137.813"/>
</g>
<!-- Node6 -->
<g id="node6" class="node"><title>Node6</title>
<g id="a_node6"><a xlink:href="page__rank_8hpp.html" target="_top" xlink:title="examples/page_rank\l/page_rank.hpp">
<polygon fill="none" stroke="black" points="1243.5,-69 1243.5,-99 1350.5,-99 1350.5,-69 1243.5,-69"/>
<text text-anchor="start" x="1251.5" y="-87" font-family="Helvetica,sans-Serif" font-size="10.00">examples/page_rank</text>
<text text-anchor="middle" x="1297" y="-76" font-family="Helvetica,sans-Serif" font-size="10.00">/page_rank.hpp</text>
</a>
</g>
</g>
<!-- Node2&#45;&gt;Node6 -->
<g id="edge5" class="edge"><title>Node2&#45;&gt;Node6</title>
<path fill="none" stroke="midnightblue" d="M1112.8,-143.924C1120.07,-141.246 1127.78,-138.471 1135,-136 1173.64,-122.773 1217.88,-108.93 1250.36,-99.0096"/>
<polygon fill="midnightblue" stroke="midnightblue" points="1111.39,-140.712 1103.24,-147.479 1113.84,-147.272 1111.39,-140.712"/>
</g>
<!-- Node8 -->
<g id="node8" class="node"><title>Node8</title>
<g id="a_node8"><a xlink:href="construct__lcp_8hpp.html" target="_top" xlink:title="examples/suffix_sorting\l/construct_lcp.hpp">
<polygon fill="none" stroke="black" points="1507,-69 1507,-99 1627,-99 1627,-69 1507,-69"/>
<text text-anchor="start" x="1515" y="-87" font-family="Helvetica,sans-Serif" font-size="10.00">examples/suffix_sorting</text>
<text text-anchor="middle" x="1567" y="-76" font-family="Helvetica,sans-Serif" font-size="10.00">/construct_lcp.hpp</text>
</a>
</g>
</g>
<!-- Node2&#45;&gt;Node8 -->
<g id="edge7" class="edge"><title>Node2&#45;&gt;Node8</title>
<path fill="none" stroke="midnightblue" d="M1110.19,-143.644C1118.11,-140.717 1126.78,-137.898 1135,-136 1292.54,-99.6261 1337.26,-124.978 1497,-100 1500.19,-99.5008 1503.46,-98.9482 1506.75,-98.3584"/>
<polygon fill="midnightblue" stroke="midnightblue" points="1108.69,-140.471 1100.63,-147.349 1111.22,-146.998 1108.69,-140.471"/>
</g>
<!-- Node9 -->
<g id="node9" class="node"><title>Node9</title>
<g id="a_node9"><a xlink:href="suffix__sorting_8cpp.html" target="_top" xlink:title="examples/suffix_sorting\l/suffix_sorting.cpp">
<polygon fill="none" stroke="black" points="1507,-1 1507,-31 1627,-31 1627,-1 1507,-1"/>
<text text-anchor="start" x="1515" y="-19" font-family="Helvetica,sans-Serif" font-size="10.00">examples/suffix_sorting</text>
<text text-anchor="middle" x="1567" y="-8" font-family="Helvetica,sans-Serif" font-size="10.00">/suffix_sorting.cpp</text>
</a>
</g>
</g>
<!-- Node2&#45;&gt;Node9 -->
<g id="edge17" class="edge"><title>Node2&#45;&gt;Node9</title>
<path fill="none" stroke="midnightblue" d="M1109.49,-143.739C1117.59,-140.723 1126.53,-137.835 1135,-136 1189.44,-124.21 1597.06,-140.775 1635,-100 1656.45,-76.9536 1619.94,-48.1637 1592.65,-31.2573"/>
<polygon fill="midnightblue" stroke="midnightblue" points="1108.13,-140.512 1100.1,-147.42 1110.69,-147.029 1108.13,-140.512"/>
</g>
<!-- Node10 -->
<g id="node10" class="node"><title>Node10</title>
<g id="a_node10"><a xlink:href="construct__wt_8hpp.html" target="_top" xlink:title="examples/suffix_sorting\l/construct_wt.hpp">
<polygon fill="none" stroke="black" points="1369,-69 1369,-99 1489,-99 1489,-69 1369,-69"/>
<text text-anchor="start" x="1377" y="-87" font-family="Helvetica,sans-Serif" font-size="10.00">examples/suffix_sorting</text>
<text text-anchor="middle" x="1429" y="-76" font-family="Helvetica,sans-Serif" font-size="10.00">/construct_wt.hpp</text>
</a>
</g>
</g>
<!-- Node2&#45;&gt;Node10 -->
<g id="edge9" class="edge"><title>Node2&#45;&gt;Node10</title>
<path fill="none" stroke="midnightblue" d="M1110.67,-143.83C1118.48,-140.951 1126.98,-138.109 1135,-136 1232.52,-110.367 1259.89,-118.57 1359,-100 1362.18,-99.4049 1365.43,-98.7759 1368.71,-98.1261"/>
<polygon fill="midnightblue" stroke="midnightblue" points="1109.3,-140.605 1101.21,-147.445 1111.8,-147.143 1109.3,-140.605"/>
</g>
<!-- Node2&#45;&gt;Node12 -->
<g id="edge12" class="edge"><title>Node2&#45;&gt;Node12</title>
<path fill="none" stroke="midnightblue" d="M1024.77,-155.233C887.049,-152.727 522.085,-142.289 221,-100 218.086,-99.5908 215.113,-99.1264 212.116,-98.6209"/>
<polygon fill="midnightblue" stroke="midnightblue" points="1025.01,-158.738 1035.07,-155.413 1025.13,-151.739 1025.01,-158.738"/>
</g>
<!-- Node2&#45;&gt;Node13 -->
<g id="edge13" class="edge"><title>Node2&#45;&gt;Node13</title>
<path fill="none" stroke="midnightblue" d="M1024.95,-152.648C878.614,-143.738 487.46,-118.855 359,-100 356.089,-99.5727 353.117,-99.0938 350.122,-98.5765"/>
<polygon fill="midnightblue" stroke="midnightblue" points="1024.87,-156.15 1035.06,-153.262 1025.29,-149.162 1024.87,-156.15"/>
</g>
<!-- Node14 -->
<g id="node14" class="node"><title>Node14</title>
<g id="a_node14"><a xlink:href="prefix__doubling_8cpp.html" target="_top" xlink:title="examples/suffix_sorting\l/prefix_doubling.cpp">
<polygon fill="none" stroke="black" points="1683,-69 1683,-99 1803,-99 1803,-69 1683,-69"/>
<text text-anchor="start" x="1691" y="-87" font-family="Helvetica,sans-Serif" font-size="10.00">examples/suffix_sorting</text>
<text text-anchor="middle" x="1743" y="-76" font-family="Helvetica,sans-Serif" font-size="10.00">/prefix_doubling.cpp</text>
</a>
</g>
</g>
<!-- Node2&#45;&gt;Node14 -->
<g id="edge14" class="edge"><title>Node2&#45;&gt;Node14</title>
<path fill="none" stroke="midnightblue" d="M1109.48,-143.714C1117.59,-140.697 1126.52,-137.816 1135,-136 1367.6,-86.1783 1433.25,-131.698 1669,-100 1673.55,-99.3886 1678.23,-98.664 1682.94,-97.8686"/>
<polygon fill="midnightblue" stroke="midnightblue" points="1108.13,-140.487 1100.09,-147.397 1110.68,-147.003 1108.13,-140.487"/>
</g>
<!-- Node15 -->
<g id="node15" class="node"><title>Node15</title>
<g id="a_node15"><a xlink:href="prefix__quadrupling_8cpp.html" target="_top" xlink:title="examples/suffix_sorting\l/prefix_quadrupling.cpp">
<polygon fill="none" stroke="black" points="1821,-69 1821,-99 1941,-99 1941,-69 1821,-69"/>
<text text-anchor="start" x="1829" y="-87" font-family="Helvetica,sans-Serif" font-size="10.00">examples/suffix_sorting</text>
<text text-anchor="middle" x="1881" y="-76" font-family="Helvetica,sans-Serif" font-size="10.00">/prefix_quadrupling.cpp</text>
</a>
</g>
</g>
<!-- Node2&#45;&gt;Node15 -->
<g id="edge15" class="edge"><title>Node2&#45;&gt;Node15</title>
<path fill="none" stroke="midnightblue" d="M1109.47,-143.635C1117.57,-140.618 1126.51,-137.756 1135,-136 1429.63,-75.0606 1512.75,-139.644 1811,-100 1814.2,-99.5742 1817.48,-99.0802 1820.78,-98.5362"/>
<polygon fill="midnightblue" stroke="midnightblue" points="1108.1,-140.41 1100.08,-147.328 1110.67,-146.924 1108.1,-140.41"/>
</g>
<!-- Node16 -->
<g id="node16" class="node"><title>Node16</title>
<g id="a_node16"><a xlink:href="rl__bwt_8cpp.html" target="_top" xlink:title="examples/suffix_sorting\l/rl_bwt.cpp">
<polygon fill="none" stroke="black" points="1959,-69 1959,-99 2079,-99 2079,-69 1959,-69"/>
<text text-anchor="start" x="1967" y="-87" font-family="Helvetica,sans-Serif" font-size="10.00">examples/suffix_sorting</text>
<text text-anchor="middle" x="2019" y="-76" font-family="Helvetica,sans-Serif" font-size="10.00">/rl_bwt.cpp</text>
</a>
</g>
</g>
<!-- Node2&#45;&gt;Node16 -->
<g id="edge16" class="edge"><title>Node2&#45;&gt;Node16</title>
<path fill="none" stroke="midnightblue" d="M1109.06,-143.733C1117.27,-140.661 1126.36,-137.746 1135,-136 1489.95,-64.2503 1589.81,-146.099 1949,-100 1952.21,-99.5886 1955.48,-99.1061 1958.78,-98.5711"/>
<polygon fill="midnightblue" stroke="midnightblue" points="1107.58,-140.554 1099.57,-147.49 1110.16,-147.062 1107.58,-140.554"/>
</g>
<!-- Node17 -->
<g id="node17" class="node"><title>Node17</title>
<g id="a_node17"><a xlink:href="wavelet__tree_8cpp.html" target="_top" xlink:title="examples/suffix_sorting\l/wavelet_tree.cpp">
<polygon fill="none" stroke="black" points="2097,-69 2097,-99 2217,-99 2217,-69 2097,-69"/>
<text text-anchor="start" x="2105" y="-87" font-family="Helvetica,sans-Serif" font-size="10.00">examples/suffix_sorting</text>
<text text-anchor="middle" x="2157" y="-76" font-family="Helvetica,sans-Serif" font-size="10.00">/wavelet_tree.cpp</text>
</a>
</g>
</g>
<!-- Node2&#45;&gt;Node17 -->
<g id="edge18" class="edge"><title>Node2&#45;&gt;Node17</title>
<path fill="none" stroke="midnightblue" d="M1109.05,-143.698C1117.26,-140.625 1126.36,-137.719 1135,-136 1550.29,-53.4369 1666.86,-152.556 2087,-100 2090.21,-99.5989 2093.48,-99.1245 2096.78,-98.596"/>
<polygon fill="midnightblue" stroke="midnightblue" points="1107.57,-140.519 1099.57,-147.459 1110.15,-147.026 1107.57,-140.519"/>
</g>
<!-- Node18 -->
<g id="node18" class="node"><title>Node18</title>
<g id="a_node18"><a xlink:href="wavelet__tree2_8cpp.html" target="_top" xlink:title="examples/suffix_sorting\l/wavelet_tree2.cpp">
<polygon fill="none" stroke="black" points="2235,-69 2235,-99 2355,-99 2355,-69 2235,-69"/>
<text text-anchor="start" x="2243" y="-87" font-family="Helvetica,sans-Serif" font-size="10.00">examples/suffix_sorting</text>
<text text-anchor="middle" x="2295" y="-76" font-family="Helvetica,sans-Serif" font-size="10.00">/wavelet_tree2.cpp</text>
</a>
</g>
</g>
<!-- Node2&#45;&gt;Node18 -->
<g id="edge19" class="edge"><title>Node2&#45;&gt;Node18</title>
<path fill="none" stroke="midnightblue" d="M1109.05,-143.671C1117.26,-140.598 1126.35,-137.698 1135,-136 1372.81,-89.3108 1984.45,-129.507 2225,-100 2228.21,-99.6066 2231.49,-99.1383 2234.79,-98.6145"/>
<polygon fill="midnightblue" stroke="midnightblue" points="1107.57,-140.493 1099.56,-147.436 1110.15,-147 1107.57,-140.493"/>
</g>
<!-- Node19 -->
<g id="node19" class="node"><title>Node19</title>
<g id="a_node19"><a xlink:href="k-means__step1_8cpp.html" target="_top" xlink:title="examples/tutorial/k\l&#45;means_step1.cpp">
<polygon fill="none" stroke="black" points="2373.5,-69 2373.5,-99 2472.5,-99 2472.5,-69 2373.5,-69"/>
<text text-anchor="start" x="2381.5" y="-87" font-family="Helvetica,sans-Serif" font-size="10.00">examples/tutorial/k</text>
<text text-anchor="middle" x="2423" y="-76" font-family="Helvetica,sans-Serif" font-size="10.00">&#45;means_step1.cpp</text>
</a>
</g>
</g>
<!-- Node2&#45;&gt;Node19 -->
<g id="edge20" class="edge"><title>Node2&#45;&gt;Node19</title>
<path fill="none" stroke="midnightblue" d="M1109.04,-143.65C1117.25,-140.577 1126.35,-137.682 1135,-136 1402.99,-83.9025 2092.56,-137.324 2363,-100 2366.4,-99.5303 2369.89,-98.9436 2373.4,-98.2765"/>
<polygon fill="midnightblue" stroke="midnightblue" points="1107.56,-140.473 1099.56,-147.418 1110.14,-146.979 1107.56,-140.473"/>
</g>
<!-- Node20 -->
<g id="node20" class="node"><title>Node20</title>
<g id="a_node20"><a xlink:href="k-means__step2_8cpp.html" target="_top" xlink:title="examples/tutorial/k\l&#45;means_step2.cpp">
<polygon fill="none" stroke="black" points="368.5,-69 368.5,-99 467.5,-99 467.5,-69 368.5,-69"/>
<text text-anchor="start" x="376.5" y="-87" font-family="Helvetica,sans-Serif" font-size="10.00">examples/tutorial/k</text>
<text text-anchor="middle" x="418" y="-76" font-family="Helvetica,sans-Serif" font-size="10.00">&#45;means_step2.cpp</text>
</a>
</g>
</g>
<!-- Node2&#45;&gt;Node20 -->
<g id="edge21" class="edge"><title>Node2&#45;&gt;Node20</title>
<path fill="none" stroke="midnightblue" d="M1024.86,-153.82C917.542,-148.986 676.126,-134.907 476,-100 473.234,-99.5175 470.406,-98.9699 467.56,-98.3763"/>
<polygon fill="midnightblue" stroke="midnightblue" points="1024.99,-157.328 1035.13,-154.272 1025.3,-150.335 1024.99,-157.328"/>
</g>
<!-- Node21 -->
<g id="node21" class="node"><title>Node21</title>
<g id="a_node21"><a xlink:href="k-means__step3_8cpp.html" target="_top" xlink:title="examples/tutorial/k\l&#45;means_step3.cpp">
<polygon fill="none" stroke="black" points="485.5,-69 485.5,-99 584.5,-99 584.5,-69 485.5,-69"/>
<text text-anchor="start" x="493.5" y="-87" font-family="Helvetica,sans-Serif" font-size="10.00">examples/tutorial/k</text>
<text text-anchor="middle" x="535" y="-76" font-family="Helvetica,sans-Serif" font-size="10.00">&#45;means_step3.cpp</text>
</a>
</g>
</g>
<!-- Node2&#45;&gt;Node21 -->
<g id="edge22" class="edge"><title>Node2&#45;&gt;Node21</title>
<path fill="none" stroke="midnightblue" d="M1025.18,-152.129C934.12,-145.248 748.208,-128.831 593,-100 590.239,-99.4871 587.415,-98.9156 584.573,-98.3034"/>
<polygon fill="midnightblue" stroke="midnightblue" points="1025.04,-155.628 1035.27,-152.882 1025.56,-148.648 1025.04,-155.628"/>
</g>
<!-- Node22 -->
<g id="node22" class="node"><title>Node22</title>
<g id="a_node22"><a xlink:href="k-means__step4_8cpp.html" target="_top" xlink:title="examples/tutorial/k\l&#45;means_step4.cpp">
<polygon fill="none" stroke="black" points="602.5,-69 602.5,-99 701.5,-99 701.5,-69 602.5,-69"/>
<text text-anchor="start" x="610.5" y="-87" font-family="Helvetica,sans-Serif" font-size="10.00">examples/tutorial/k</text>
<text text-anchor="middle" x="652" y="-76" font-family="Helvetica,sans-Serif" font-size="10.00">&#45;means_step4.cpp</text>
</a>
</g>
</g>
<!-- Node2&#45;&gt;Node22 -->
<g id="edge23" class="edge"><title>Node2&#45;&gt;Node22</title>
<path fill="none" stroke="midnightblue" d="M1025,-149.379C952.092,-140.339 820.864,-122.64 710,-100 707.249,-99.4381 704.432,-98.8279 701.596,-98.1858"/>
<polygon fill="midnightblue" stroke="midnightblue" points="1024.98,-152.902 1035.33,-150.649 1025.83,-145.954 1024.98,-152.902"/>
</g>
<!-- Node23 -->
<g id="node23" class="node"><title>Node23</title>
<g id="a_node23"><a xlink:href="k-means__step5_8cpp.html" target="_top" xlink:title="examples/tutorial/k\l&#45;means_step5.cpp">
<polygon fill="none" stroke="black" points="719.5,-69 719.5,-99 818.5,-99 818.5,-69 719.5,-69"/>
<text text-anchor="start" x="727.5" y="-87" font-family="Helvetica,sans-Serif" font-size="10.00">examples/tutorial/k</text>
<text text-anchor="middle" x="769" y="-76" font-family="Helvetica,sans-Serif" font-size="10.00">&#45;means_step5.cpp</text>
</a>
</g>
</g>
<!-- Node2&#45;&gt;Node23 -->
<g id="edge24" class="edge"><title>Node2&#45;&gt;Node23</title>
<path fill="none" stroke="midnightblue" d="M1030.12,-145.348C978.757,-134.46 897.195,-116.809 827,-100 824.269,-99.346 821.469,-98.6631 818.645,-97.9647"/>
<polygon fill="midnightblue" stroke="midnightblue" points="1029.48,-148.788 1039.98,-147.433 1030.92,-141.939 1029.48,-148.788"/>
</g>
<!-- Node24 -->
<g id="node24" class="node"><title>Node24</title>
<g id="a_node24"><a xlink:href="k-means__step6_8cpp.html" target="_top" xlink:title="examples/tutorial/k\l&#45;means_step6.cpp">
<polygon fill="none" stroke="black" points="836.5,-69 836.5,-99 935.5,-99 935.5,-69 836.5,-69"/>
<text text-anchor="start" x="844.5" y="-87" font-family="Helvetica,sans-Serif" font-size="10.00">examples/tutorial/k</text>
<text text-anchor="middle" x="886" y="-76" font-family="Helvetica,sans-Serif" font-size="10.00">&#45;means_step6.cpp</text>
</a>
</g>
</g>
<!-- Node2&#45;&gt;Node24 -->
<g id="edge25" class="edge"><title>Node2&#45;&gt;Node24</title>
<path fill="none" stroke="midnightblue" d="M1047.98,-143.977C1013.9,-131.57 960.779,-112.227 924.74,-99.1052"/>
<polygon fill="midnightblue" stroke="midnightblue" points="1046.88,-147.303 1057.48,-147.436 1049.28,-140.726 1046.88,-147.303"/>
</g>
<!-- Node7 -->
<g id="node7" class="node"><title>Node7</title>
<g id="a_node7"><a xlink:href="page__rank__run_8cpp.html" target="_top" xlink:title="examples/page_rank\l/page_rank_run.cpp">
<polygon fill="none" stroke="black" points="1243.5,-1 1243.5,-31 1350.5,-31 1350.5,-1 1243.5,-1"/>
<text text-anchor="start" x="1251.5" y="-19" font-family="Helvetica,sans-Serif" font-size="10.00">examples/page_rank</text>
<text text-anchor="middle" x="1297" y="-8" font-family="Helvetica,sans-Serif" font-size="10.00">/page_rank_run.cpp</text>
</a>
</g>
</g>
<!-- Node6&#45;&gt;Node7 -->
<g id="edge6" class="edge"><title>Node6&#45;&gt;Node7</title>
<path fill="none" stroke="midnightblue" d="M1297,-58.5322C1297,-49.3606 1297,-39.2449 1297,-31.2931"/>
<polygon fill="midnightblue" stroke="midnightblue" points="1293.5,-58.6789 1297,-68.679 1300.5,-58.679 1293.5,-58.6789"/>
</g>
<!-- Node8&#45;&gt;Node9 -->
<g id="edge8" class="edge"><title>Node8&#45;&gt;Node9</title>
<path fill="none" stroke="midnightblue" d="M1567,-58.5322C1567,-49.3606 1567,-39.2449 1567,-31.2931"/>
<polygon fill="midnightblue" stroke="midnightblue" points="1563.5,-58.6789 1567,-68.679 1570.5,-58.679 1563.5,-58.6789"/>
</g>
<!-- Node10&#45;&gt;Node9 -->
<g id="edge10" class="edge"><title>Node10&#45;&gt;Node9</title>
<path fill="none" stroke="midnightblue" d="M1467.72,-64.4805C1489.82,-53.9128 1517.08,-40.8738 1537.44,-31.1352"/>
<polygon fill="midnightblue" stroke="midnightblue" points="1466.12,-61.3693 1458.6,-68.8413 1469.14,-67.6842 1466.12,-61.3693"/>
</g>
<!-- Node11 -->
<g id="node11" class="node"><title>Node11</title>
<g id="a_node11"><a xlink:href="wavelet__tree3_8cpp.html" target="_top" xlink:title="examples/suffix_sorting\l/wavelet_tree3.cpp">
<polygon fill="none" stroke="black" points="1369,-1 1369,-31 1489,-31 1489,-1 1369,-1"/>
<text text-anchor="start" x="1377" y="-19" font-family="Helvetica,sans-Serif" font-size="10.00">examples/suffix_sorting</text>
<text text-anchor="middle" x="1429" y="-8" font-family="Helvetica,sans-Serif" font-size="10.00">/wavelet_tree3.cpp</text>
</a>
</g>
</g>
<!-- Node10&#45;&gt;Node11 -->
<g id="edge11" class="edge"><title>Node10&#45;&gt;Node11</title>
<path fill="none" stroke="midnightblue" d="M1429,-58.5322C1429,-49.3606 1429,-39.2449 1429,-31.2931"/>
<polygon fill="midnightblue" stroke="midnightblue" points="1425.5,-58.6789 1429,-68.679 1432.5,-58.679 1425.5,-58.6789"/>
</g>
<!-- Node27 -->
<g id="node27" class="node"><title>Node27</title>
<g id="a_node27"><a xlink:href="select__run_8cpp.html" target="_top" xlink:title="examples/select/select\l_run.cpp">
<polygon fill="none" stroke="black" points="2490.5,-69 2490.5,-99 2607.5,-99 2607.5,-69 2490.5,-69"/>
<text text-anchor="start" x="2498.5" y="-87" font-family="Helvetica,sans-Serif" font-size="10.00">examples/select/select</text>
<text text-anchor="middle" x="2549" y="-76" font-family="Helvetica,sans-Serif" font-size="10.00">_run.cpp</text>
</a>
</g>
</g>
<!-- Node26&#45;&gt;Node27 -->
<g id="edge29" class="edge"><title>Node26&#45;&gt;Node27</title>
<path fill="none" stroke="midnightblue" d="M1374.54,-144.751C1387.23,-141.317 1401.63,-137.938 1415,-136 1884.15,-68.0002 2010.68,-159.306 2481,-100 2484,-99.6219 2487.06,-99.1746 2490.14,-98.6752"/>
<polygon fill="midnightblue" stroke="midnightblue" points="1373.47,-141.417 1364.79,-147.491 1375.36,-148.156 1373.47,-141.417"/>
</g>
</g>
</svg>
