<?xml version="1.0" encoding="UTF-8" standalone="no"?>
<!DOCTYPE svg PUBLIC "-//W3C//DTD SVG 1.1//EN"
 "http://www.w3.org/Graphics/SVG/1.1/DTD/svg11.dtd">
<!-- Generated by graphviz version 2.26.3 (20100126.1600)
 -->
<!-- Title: thrill/api/gather.hpp Pages: 1 -->
<svg width="2476pt" height="246pt"
 viewBox="0.00 0.00 2476.00 246.00" xmlns="http://www.w3.org/2000/svg" xmlns:xlink="http://www.w3.org/1999/xlink">
<g id="graph1" class="graph" transform="scale(1 1) rotate(0) translate(4 242)">
<title>thrill/api/gather.hpp</title>
<!-- Node1 -->
<g id="node1" class="node"><title>Node1</title>
<polygon fill="#bfbfbf" stroke="black" points="803.5,-216.5 803.5,-237.5 902.5,-237.5 902.5,-216.5 803.5,-216.5"/>
<text text-anchor="middle" x="853" y="-224.5" font-family="Helvetica,sans-Serif" font-size="10.00">thrill/api/gather.hpp</text>
</g>
<!-- Node2 -->
<g id="node3" class="node"><title>Node2</title>
<a xlink:href="print_8hpp.html" target="_top" xlink:title="thrill/api/print.hpp">
<polygon fill="none" stroke="black" points="995.5,-151.5 995.5,-172.5 1086.5,-172.5 1086.5,-151.5 995.5,-151.5"/>
<text text-anchor="middle" x="1041" y="-159.5" font-family="Helvetica,sans-Serif" font-size="10.00">thrill/api/print.hpp</text>
</a>
</g>
<!-- Node1&#45;&gt;Node2 -->
<g id="edge2" class="edge"><title>Node1&#45;&gt;Node2</title>
<path fill="none" stroke="midnightblue" d="M893.094,-213.138C928.193,-201.002 978.439,-183.63 1010.39,-172.584"/>
<polygon fill="midnightblue" stroke="midnightblue" points="891.931,-209.836 883.624,-216.412 894.219,-216.452 891.931,-209.836"/>
</g>
<!-- Node3 -->
<g id="node5" class="node"><title>Node3</title>
<a xlink:href="thrill_8hpp.html" target="_top" xlink:title="thrill/thrill.hpp">
<polygon fill="none" stroke="black" points="0,-79.5 0,-100.5 74,-100.5 74,-79.5 0,-79.5"/>
<text text-anchor="middle" x="37" y="-87.5" font-family="Helvetica,sans-Serif" font-size="10.00">thrill/thrill.hpp</text>
</a>
</g>
<!-- Node1&#45;&gt;Node3 -->
<g id="edge50" class="edge"><title>Node1&#45;&gt;Node3</title>
<path fill="none" stroke="midnightblue" d="M792.992,-224.73C698.08,-220.396 507.793,-208.676 349,-180 228.473,-158.234 199.31,-146.372 83,-108 76.3219,-105.797 69.2024,-103.158 62.6094,-100.589"/>
<polygon fill="midnightblue" stroke="midnightblue" points="793.111,-228.239 803.257,-225.187 793.422,-221.246 793.111,-228.239"/>
</g>
<!-- Node11 -->
<g id="node22" class="node"><title>Node11</title>
<a xlink:href="dc3_8cpp.html" target="_top" xlink:title="examples/suffix_sorting\l/dc3.cpp">
<polygon fill="none" stroke="black" points="92,-73 92,-107 212,-107 212,-73 92,-73"/>
<text text-anchor="start" x="100" y="-94" font-family="Helvetica,sans-Serif" font-size="10.00">examples/suffix_sorting</text>
<text text-anchor="middle" x="152" y="-81" font-family="Helvetica,sans-Serif" font-size="10.00">/dc3.cpp</text>
</a>
</g>
<!-- Node1&#45;&gt;Node11 -->
<g id="edge58" class="edge"><title>Node1&#45;&gt;Node11</title>
<path fill="none" stroke="midnightblue" d="M793.11,-221.012C723.5,-213.567 605.341,-199.429 505,-180 377.159,-155.246 347.111,-140.435 221,-108 218.122,-107.26 215.178,-106.5 212.204,-105.732"/>
<polygon fill="midnightblue" stroke="midnightblue" points="793.125,-224.533 803.438,-222.105 793.862,-217.572 793.125,-224.533"/>
</g>
<!-- Node12 -->
<g id="node24" class="node"><title>Node12</title>
<a xlink:href="dc7_8cpp.html" target="_top" xlink:title="examples/suffix_sorting\l/dc7.cpp">
<polygon fill="none" stroke="black" points="230,-73 230,-107 350,-107 350,-73 230,-73"/>
<text text-anchor="start" x="238" y="-94" font-family="Helvetica,sans-Serif" font-size="10.00">examples/suffix_sorting</text>
<text text-anchor="middle" x="290" y="-81" font-family="Helvetica,sans-Serif" font-size="10.00">/dc7.cpp</text>
</a>
</g>
<!-- Node1&#45;&gt;Node12 -->
<g id="edge60" class="edge"><title>Node1&#45;&gt;Node12</title>
<path fill="none" stroke="midnightblue" d="M798.13,-214.138C706.869,-192.666 518.175,-147.93 359,-108 356.118,-107.277 353.17,-106.531 350.194,-105.774"/>
<polygon fill="midnightblue" stroke="midnightblue" points="797.44,-217.571 807.976,-216.453 799.043,-210.757 797.44,-217.571"/>
</g>
<!-- Node24 -->
<g id="node50" class="node"><title>Node24</title>
<a xlink:href="k-means__run_8cpp.html" target="_top" xlink:title="examples/k&#45;means/k\l&#45;means_run.cpp">
<polygon fill="none" stroke="black" points="1103.5,-145 1103.5,-179 1210.5,-179 1210.5,-145 1103.5,-145"/>
<text text-anchor="start" x="1111.5" y="-166" font-family="Helvetica,sans-Serif" font-size="10.00">examples/k&#45;means/k</text>
<text text-anchor="middle" x="1157" y="-153" font-family="Helvetica,sans-Serif" font-size="10.00">&#45;means_run.cpp</text>
</a>
</g>
<!-- Node1&#45;&gt;Node24 -->
<g id="edge52" class="edge"><title>Node1&#45;&gt;Node24</title>
<path fill="none" stroke="midnightblue" d="M913.023,-216.906C962.192,-208.262 1033.44,-194.881 1095,-180 1097.72,-179.342 1100.51,-178.64 1103.31,-177.91"/>
<polygon fill="midnightblue" stroke="midnightblue" points="912.126,-213.509 902.877,-218.677 913.33,-220.405 912.126,-213.509"/>
</g>
<!-- Node25 -->
<g id="node52" class="node"><title>Node25</title>
<a xlink:href="examples_2select_2select_8hpp.html" target="_top" xlink:title="examples/select/select.hpp">
<polygon fill="none" stroke="black" points="1785,-151.5 1785,-172.5 1921,-172.5 1921,-151.5 1785,-151.5"/>
<text text-anchor="middle" x="1853" y="-159.5" font-family="Helvetica,sans-Serif" font-size="10.00">examples/select/select.hpp</text>
</a>
</g>
<!-- Node1&#45;&gt;Node25 -->
<g id="edge54" class="edge"><title>Node1&#45;&gt;Node25</title>
<path fill="none" stroke="midnightblue" d="M912.648,-223.123C1087.75,-211.741 1599.6,-178.471 1784.98,-166.422"/>
<polygon fill="midnightblue" stroke="midnightblue" points="912.342,-219.635 902.59,-223.777 912.796,-226.621 912.342,-219.635"/>
</g>
<!-- Node2&#45;&gt;Node3 -->
<g id="edge4" class="edge"><title>Node2&#45;&gt;Node3</title>
<path fill="none" stroke="midnightblue" d="M985.221,-161.166C807.624,-158.149 256.844,-145.899 83,-108 75.2914,-106.319 67.1824,-103.522 59.9564,-100.628"/>
<polygon fill="midnightblue" stroke="midnightblue" points="985.327,-164.668 995.384,-161.336 985.444,-157.669 985.327,-164.668"/>
</g>
<!-- Node4 -->
<g id="node7" class="node"><title>Node4</title>
<a xlink:href="logistic__regression_8cpp.html" target="_top" xlink:title="examples/logistic_regression\l/logistic_regression.cpp">
<polygon fill="none" stroke="black" points="1339.5,-73 1339.5,-107 1482.5,-107 1482.5,-73 1339.5,-73"/>
<text text-anchor="start" x="1347.5" y="-94" font-family="Helvetica,sans-Serif" font-size="10.00">examples/logistic_regression</text>
<text text-anchor="middle" x="1411" y="-81" font-family="Helvetica,sans-Serif" font-size="10.00">/logistic_regression.cpp</text>
</a>
</g>
<!-- Node2&#45;&gt;Node4 -->
<g id="edge6" class="edge"><title>Node2&#45;&gt;Node4</title>
<path fill="none" stroke="midnightblue" d="M1079.41,-148.312C1084.61,-146.719 1089.91,-145.228 1095,-144 1198.15,-119.134 1226.73,-127.657 1331,-108 1333.66,-107.499 1336.36,-106.973 1339.09,-106.429"/>
<polygon fill="midnightblue" stroke="midnightblue" points="1078.05,-145.07 1069.6,-151.458 1080.19,-151.735 1078.05,-145.07"/>
</g>
<!-- Node5 -->
<g id="node9" class="node"><title>Node5</title>
<a xlink:href="page__rank_8hpp.html" target="_top" xlink:title="examples/page_rank\l/page_rank.hpp">
<polygon fill="none" stroke="black" points="1499.5,-73 1499.5,-107 1606.5,-107 1606.5,-73 1499.5,-73"/>
<text text-anchor="start" x="1507.5" y="-94" font-family="Helvetica,sans-Serif" font-size="10.00">examples/page_rank</text>
<text text-anchor="middle" x="1553" y="-81" font-family="Helvetica,sans-Serif" font-size="10.00">/page_rank.hpp</text>
</a>
</g>
<!-- Node2&#45;&gt;Node5 -->
<g id="edge8" class="edge"><title>Node2&#45;&gt;Node5</title>
<path fill="none" stroke="midnightblue" d="M1078.39,-148.304C1083.9,-146.645 1089.56,-145.138 1095,-144 1267.98,-107.816 1317.34,-140.787 1491,-108 1493.75,-107.48 1496.56,-106.89 1499.38,-106.249"/>
<polygon fill="midnightblue" stroke="midnightblue" points="1077.15,-145.026 1068.69,-151.407 1079.28,-151.693 1077.15,-145.026"/>
</g>
<!-- Node7 -->
<g id="node13" class="node"><title>Node7</title>
<a xlink:href="construct__lcp_8hpp.html" target="_top" xlink:title="examples/suffix_sorting\l/construct_lcp.hpp">
<polygon fill="none" stroke="black" points="1662,-73 1662,-107 1782,-107 1782,-73 1662,-73"/>
<text text-anchor="start" x="1670" y="-94" font-family="Helvetica,sans-Serif" font-size="10.00">examples/suffix_sorting</text>
<text text-anchor="middle" x="1722" y="-81" font-family="Helvetica,sans-Serif" font-size="10.00">/construct_lcp.hpp</text>
</a>
</g>
<!-- Node2&#45;&gt;Node7 -->
<g id="edge12" class="edge"><title>Node2&#45;&gt;Node7</title>
<path fill="none" stroke="midnightblue" d="M1077.99,-148.286C1083.63,-146.602 1089.42,-145.092 1095,-144 1336.71,-96.6674 1404.53,-145.247 1648,-108 1652.57,-107.3 1657.28,-106.455 1662,-105.518"/>
<polygon fill="midnightblue" stroke="midnightblue" points="1076.56,-145.07 1068.11,-151.454 1078.7,-151.736 1076.56,-145.07"/>
</g>
<!-- Node8 -->
<g id="node15" class="node"><title>Node8</title>
<a xlink:href="suffix__sorting_8cpp.html" target="_top" xlink:title="examples/suffix_sorting\l/suffix_sorting.cpp">
<polygon fill="none" stroke="black" points="1662,-1 1662,-35 1782,-35 1782,-1 1662,-1"/>
<text text-anchor="start" x="1670" y="-22" font-family="Helvetica,sans-Serif" font-size="10.00">examples/suffix_sorting</text>
<text text-anchor="middle" x="1722" y="-9" font-family="Helvetica,sans-Serif" font-size="10.00">/suffix_sorting.cpp</text>
</a>
</g>
<!-- Node2&#45;&gt;Node8 -->
<g id="edge32" class="edge"><title>Node2&#45;&gt;Node8</title>
<path fill="none" stroke="midnightblue" d="M1078,-148.307C1083.63,-146.619 1089.43,-145.103 1095,-144 1208.63,-121.506 1508.94,-154.57 1615,-108 1636.3,-98.6466 1635.38,-87.1859 1653,-72 1667.87,-59.1911 1685.27,-45.5794 1698.88,-35.2265"/>
<polygon fill="midnightblue" stroke="midnightblue" points="1076.56,-145.091 1068.11,-151.477 1078.7,-151.756 1076.56,-145.091"/>
</g>
<!-- Node9 -->
<g id="node17" class="node"><title>Node9</title>
<a xlink:href="construct__wt_8hpp.html" target="_top" xlink:title="examples/suffix_sorting\l/construct_wt.hpp">
<polygon fill="none" stroke="black" points="1800,-73 1800,-107 1920,-107 1920,-73 1800,-73"/>
<text text-anchor="start" x="1808" y="-94" font-family="Helvetica,sans-Serif" font-size="10.00">examples/suffix_sorting</text>
<text text-anchor="middle" x="1860" y="-81" font-family="Helvetica,sans-Serif" font-size="10.00">/construct_wt.hpp</text>
</a>
</g>
<!-- Node2&#45;&gt;Node9 -->
<g id="edge16" class="edge"><title>Node2&#45;&gt;Node9</title>
<path fill="none" stroke="midnightblue" d="M1077.37,-148.401C1083.2,-146.652 1089.21,-145.093 1095,-144 1399.36,-86.5013 1484.89,-155.338 1791,-108 1793.94,-107.546 1796.93,-107.019 1799.94,-106.436"/>
<polygon fill="midnightblue" stroke="midnightblue" points="1076.26,-145.081 1067.81,-151.476 1078.41,-151.744 1076.26,-145.081"/>
</g>
<!-- Node2&#45;&gt;Node11 -->
<g id="edge22" class="edge"><title>Node2&#45;&gt;Node11</title>
<path fill="none" stroke="midnightblue" d="M985.164,-159.704C825.46,-152.918 368.802,-131.924 221,-108 218.067,-107.525 215.077,-106.981 212.068,-106.385"/>
<polygon fill="midnightblue" stroke="midnightblue" points="985.109,-163.205 995.247,-160.13 985.404,-156.211 985.109,-163.205"/>
</g>
<!-- Node2&#45;&gt;Node12 -->
<g id="edge24" class="edge"><title>Node2&#45;&gt;Node12</title>
<path fill="none" stroke="midnightblue" d="M985.017,-160.899C867.988,-157.867 589.218,-146.831 359,-108 356.07,-107.506 353.083,-106.946 350.076,-106.337"/>
<polygon fill="midnightblue" stroke="midnightblue" points="985.082,-164.401 995.166,-161.152 985.256,-157.403 985.082,-164.401"/>
</g>
<!-- Node13 -->
<g id="node26" class="node"><title>Node13</title>
<a xlink:href="prefix__doubling_8cpp.html" target="_top" xlink:title="examples/suffix_sorting\l/prefix_doubling.cpp">
<polygon fill="none" stroke="black" points="1938,-73 1938,-107 2058,-107 2058,-73 1938,-73"/>
<text text-anchor="start" x="1946" y="-94" font-family="Helvetica,sans-Serif" font-size="10.00">examples/suffix_sorting</text>
<text text-anchor="middle" x="1998" y="-81" font-family="Helvetica,sans-Serif" font-size="10.00">/prefix_doubling.cpp</text>
</a>
</g>
<!-- Node2&#45;&gt;Node13 -->
<g id="edge26" class="edge"><title>Node2&#45;&gt;Node13</title>
<path fill="none" stroke="midnightblue" d="M1077.36,-148.358C1083.19,-146.614 1089.21,-145.068 1095,-144 1459.85,-76.6858 1562.11,-163.135 1929,-108 1931.94,-107.558 1934.93,-107.041 1937.95,-106.467"/>
<polygon fill="midnightblue" stroke="midnightblue" points="1076.26,-145.037 1067.81,-151.429 1078.4,-151.701 1076.26,-145.037"/>
</g>
<!-- Node14 -->
<g id="node28" class="node"><title>Node14</title>
<a xlink:href="prefix__quadrupling_8cpp.html" target="_top" xlink:title="examples/suffix_sorting\l/prefix_quadrupling.cpp">
<polygon fill="none" stroke="black" points="2076,-73 2076,-107 2196,-107 2196,-73 2076,-73"/>
<text text-anchor="start" x="2084" y="-94" font-family="Helvetica,sans-Serif" font-size="10.00">examples/suffix_sorting</text>
<text text-anchor="middle" x="2136" y="-81" font-family="Helvetica,sans-Serif" font-size="10.00">/prefix_quadrupling.cpp</text>
</a>
</g>
<!-- Node2&#45;&gt;Node14 -->
<g id="edge28" class="edge"><title>Node2&#45;&gt;Node14</title>
<path fill="none" stroke="midnightblue" d="M1077.17,-148.382C1083.06,-146.62 1089.14,-145.062 1095,-144 1520.36,-66.8676 1639.31,-170.935 2067,-108 2069.94,-107.567 2072.93,-107.058 2075.95,-106.489"/>
<polygon fill="midnightblue" stroke="midnightblue" points="1075.97,-145.091 1067.52,-151.49 1078.12,-151.754 1075.97,-145.091"/>
</g>
<!-- Node15 -->
<g id="node30" class="node"><title>Node15</title>
<a xlink:href="rl__bwt_8cpp.html" target="_top" xlink:title="examples/suffix_sorting\l/rl_bwt.cpp">
<polygon fill="none" stroke="black" points="2214,-73 2214,-107 2334,-107 2334,-73 2214,-73"/>
<text text-anchor="start" x="2222" y="-94" font-family="Helvetica,sans-Serif" font-size="10.00">examples/suffix_sorting</text>
<text text-anchor="middle" x="2274" y="-81" font-family="Helvetica,sans-Serif" font-size="10.00">/rl_bwt.cpp</text>
</a>
</g>
<!-- Node2&#45;&gt;Node15 -->
<g id="edge30" class="edge"><title>Node2&#45;&gt;Node15</title>
<path fill="none" stroke="midnightblue" d="M1077.16,-148.359C1083.05,-146.599 1089.14,-145.048 1095,-144 1580.87,-57.0479 1716.5,-178.735 2205,-108 2207.94,-107.574 2210.94,-107.07 2213.95,-106.506"/>
<polygon fill="midnightblue" stroke="midnightblue" points="1075.97,-145.068 1067.52,-151.464 1078.11,-151.731 1075.97,-145.068"/>
</g>
<!-- Node16 -->
<g id="node33" class="node"><title>Node16</title>
<a xlink:href="wavelet__tree_8cpp.html" target="_top" xlink:title="examples/suffix_sorting\l/wavelet_tree.cpp">
<polygon fill="none" stroke="black" points="368,-73 368,-107 488,-107 488,-73 368,-73"/>
<text text-anchor="start" x="376" y="-94" font-family="Helvetica,sans-Serif" font-size="10.00">examples/suffix_sorting</text>
<text text-anchor="middle" x="428" y="-81" font-family="Helvetica,sans-Serif" font-size="10.00">/wavelet_tree.cpp</text>
</a>
</g>
<!-- Node2&#45;&gt;Node16 -->
<g id="edge34" class="edge"><title>Node2&#45;&gt;Node16</title>
<path fill="none" stroke="midnightblue" d="M985.095,-159.337C886.07,-153.98 673.628,-139.605 497,-108 494.075,-107.477 491.092,-106.893 488.088,-106.266"/>
<polygon fill="midnightblue" stroke="midnightblue" points="985.004,-162.837 995.176,-159.872 985.375,-155.847 985.004,-162.837"/>
</g>
<!-- Node17 -->
<g id="node35" class="node"><title>Node17</title>
<a xlink:href="wavelet__tree2_8cpp.html" target="_top" xlink:title="examples/suffix_sorting\l/wavelet_tree2.cpp">
<polygon fill="none" stroke="black" points="506,-73 506,-107 626,-107 626,-73 506,-73"/>
<text text-anchor="start" x="514" y="-94" font-family="Helvetica,sans-Serif" font-size="10.00">examples/suffix_sorting</text>
<text text-anchor="middle" x="566" y="-81" font-family="Helvetica,sans-Serif" font-size="10.00">/wavelet_tree2.cpp</text>
</a>
</g>
<!-- Node2&#45;&gt;Node17 -->
<g id="edge36" class="edge"><title>Node2&#45;&gt;Node17</title>
<path fill="none" stroke="midnightblue" d="M985.18,-156.771C906.587,-148.911 759.042,-132.333 635,-108 632.084,-107.428 629.109,-106.805 626.111,-106.146"/>
<polygon fill="midnightblue" stroke="midnightblue" points="985.044,-160.274 995.34,-157.776 985.734,-153.308 985.044,-160.274"/>
</g>
<!-- Node18 -->
<g id="node37" class="node"><title>Node18</title>
<a xlink:href="k-means__step1_8cpp.html" target="_top" xlink:title="examples/tutorial/k\l&#45;means_step1.cpp">
<polygon fill="none" stroke="black" points="643.5,-73 643.5,-107 742.5,-107 742.5,-73 643.5,-73"/>
<text text-anchor="start" x="651.5" y="-94" font-family="Helvetica,sans-Serif" font-size="10.00">examples/tutorial/k</text>
<text text-anchor="middle" x="693" y="-81" font-family="Helvetica,sans-Serif" font-size="10.00">&#45;means_step1.cpp</text>
</a>
</g>
<!-- Node2&#45;&gt;Node18 -->
<g id="edge38" class="edge"><title>Node2&#45;&gt;Node18</title>
<path fill="none" stroke="midnightblue" d="M985.27,-153.608C926.577,-144.307 831.665,-127.955 751,-108 748.237,-107.316 745.411,-106.577 742.567,-105.801"/>
<polygon fill="midnightblue" stroke="midnightblue" points="985.018,-157.111 995.44,-155.206 986.104,-150.196 985.018,-157.111"/>
</g>
<!-- Node19 -->
<g id="node39" class="node"><title>Node19</title>
<a xlink:href="k-means__step2_8cpp.html" target="_top" xlink:title="examples/tutorial/k\l&#45;means_step2.cpp">
<polygon fill="none" stroke="black" points="759.5,-73 759.5,-107 858.5,-107 858.5,-73 759.5,-73"/>
<text text-anchor="start" x="767.5" y="-94" font-family="Helvetica,sans-Serif" font-size="10.00">examples/tutorial/k</text>
<text text-anchor="middle" x="809" y="-81" font-family="Helvetica,sans-Serif" font-size="10.00">&#45;means_step2.cpp</text>
</a>
</g>
<!-- Node2&#45;&gt;Node19 -->
<g id="edge40" class="edge"><title>Node2&#45;&gt;Node19</title>
<path fill="none" stroke="midnightblue" d="M997.17,-148.398C957.773,-136.171 899.95,-118.226 858.814,-105.46"/>
<polygon fill="midnightblue" stroke="midnightblue" points="996.18,-151.755 1006.77,-151.376 998.254,-145.069 996.18,-151.755"/>
</g>
<!-- Node20 -->
<g id="node41" class="node"><title>Node20</title>
<a xlink:href="k-means__step3_8cpp.html" target="_top" xlink:title="examples/tutorial/k\l&#45;means_step3.cpp">
<polygon fill="none" stroke="black" points="875.5,-73 875.5,-107 974.5,-107 974.5,-73 875.5,-73"/>
<text text-anchor="start" x="883.5" y="-94" font-family="Helvetica,sans-Serif" font-size="10.00">examples/tutorial/k</text>
<text text-anchor="middle" x="925" y="-81" font-family="Helvetica,sans-Serif" font-size="10.00">&#45;means_step3.cpp</text>
</a>
</g>
<!-- Node2&#45;&gt;Node20 -->
<g id="edge42" class="edge"><title>Node2&#45;&gt;Node20</title>
<path fill="none" stroke="midnightblue" d="M1015.33,-146.064C996.712,-134.511 971.572,-118.907 952.541,-107.094"/>
<polygon fill="midnightblue" stroke="midnightblue" points="1013.54,-149.076 1023.88,-151.376 1017.23,-143.129 1013.54,-149.076"/>
</g>
<!-- Node21 -->
<g id="node43" class="node"><title>Node21</title>
<a xlink:href="k-means__step4_8cpp.html" target="_top" xlink:title="examples/tutorial/k\l&#45;means_step4.cpp">
<polygon fill="none" stroke="black" points="991.5,-73 991.5,-107 1090.5,-107 1090.5,-73 991.5,-73"/>
<text text-anchor="start" x="999.5" y="-94" font-family="Helvetica,sans-Serif" font-size="10.00">examples/tutorial/k</text>
<text text-anchor="middle" x="1041" y="-81" font-family="Helvetica,sans-Serif" font-size="10.00">&#45;means_step4.cpp</text>
</a>
</g>
<!-- Node2&#45;&gt;Node21 -->
<g id="edge44" class="edge"><title>Node2&#45;&gt;Node21</title>
<path fill="none" stroke="midnightblue" d="M1041,-141.132C1041,-130.326 1041,-117.296 1041,-107.094"/>
<polygon fill="midnightblue" stroke="midnightblue" points="1037.5,-141.376 1041,-151.376 1044.5,-141.376 1037.5,-141.376"/>
</g>
<!-- Node22 -->
<g id="node45" class="node"><title>Node22</title>
<a xlink:href="k-means__step5_8cpp.html" target="_top" xlink:title="examples/tutorial/k\l&#45;means_step5.cpp">
<polygon fill="none" stroke="black" points="1107.5,-73 1107.5,-107 1206.5,-107 1206.5,-73 1107.5,-73"/>
<text text-anchor="start" x="1115.5" y="-94" font-family="Helvetica,sans-Serif" font-size="10.00">examples/tutorial/k</text>
<text text-anchor="middle" x="1157" y="-81" font-family="Helvetica,sans-Serif" font-size="10.00">&#45;means_step5.cpp</text>
</a>
</g>
<!-- Node2&#45;&gt;Node22 -->
<g id="edge46" class="edge"><title>Node2&#45;&gt;Node22</title>
<path fill="none" stroke="midnightblue" d="M1066.67,-146.064C1085.29,-134.511 1110.43,-118.907 1129.46,-107.094"/>
<polygon fill="midnightblue" stroke="midnightblue" points="1064.77,-143.129 1058.12,-151.376 1068.46,-149.076 1064.77,-143.129"/>
</g>
<!-- Node23 -->
<g id="node47" class="node"><title>Node23</title>
<a xlink:href="k-means__step6_8cpp.html" target="_top" xlink:title="examples/tutorial/k\l&#45;means_step6.cpp">
<polygon fill="none" stroke="black" points="1223.5,-73 1223.5,-107 1322.5,-107 1322.5,-73 1223.5,-73"/>
<text text-anchor="start" x="1231.5" y="-94" font-family="Helvetica,sans-Serif" font-size="10.00">examples/tutorial/k</text>
<text text-anchor="middle" x="1273" y="-81" font-family="Helvetica,sans-Serif" font-size="10.00">&#45;means_step6.cpp</text>
</a>
</g>
<!-- Node2&#45;&gt;Node23 -->
<g id="edge48" class="edge"><title>Node2&#45;&gt;Node23</title>
<path fill="none" stroke="midnightblue" d="M1081.74,-148.273C1086.21,-146.811 1090.7,-145.362 1095,-144 1148.08,-127.194 1161.74,-124.252 1215,-108 1217.72,-107.169 1220.52,-106.313 1223.34,-105.447"/>
<polygon fill="midnightblue" stroke="midnightblue" points="1080.47,-145.007 1072.07,-151.464 1082.67,-151.654 1080.47,-145.007"/>
</g>
<!-- Node6 -->
<g id="node11" class="node"><title>Node6</title>
<a xlink:href="page__rank__run_8cpp.html" target="_top" xlink:title="examples/page_rank\l/page_rank_run.cpp">
<polygon fill="none" stroke="black" points="1499.5,-1 1499.5,-35 1606.5,-35 1606.5,-1 1499.5,-1"/>
<text text-anchor="start" x="1507.5" y="-22" font-family="Helvetica,sans-Serif" font-size="10.00">examples/page_rank</text>
<text text-anchor="middle" x="1553" y="-9" font-family="Helvetica,sans-Serif" font-size="10.00">/page_rank_run.cpp</text>
</a>
</g>
<!-- Node5&#45;&gt;Node6 -->
<g id="edge10" class="edge"><title>Node5&#45;&gt;Node6</title>
<path fill="none" stroke="midnightblue" d="M1553,-62.7193C1553,-53.572 1553,-43.6255 1553,-35.4407"/>
<polygon fill="midnightblue" stroke="midnightblue" points="1549.5,-62.937 1553,-72.937 1556.5,-62.937 1549.5,-62.937"/>
</g>
<!-- Node7&#45;&gt;Node8 -->
<g id="edge14" class="edge"><title>Node7&#45;&gt;Node8</title>
<path fill="none" stroke="midnightblue" d="M1722,-62.7193C1722,-53.572 1722,-43.6255 1722,-35.4407"/>
<polygon fill="midnightblue" stroke="midnightblue" points="1718.5,-62.937 1722,-72.937 1725.5,-62.937 1718.5,-62.937"/>
</g>
<!-- Node9&#45;&gt;Node8 -->
<g id="edge18" class="edge"><title>Node9&#45;&gt;Node8</title>
<path fill="none" stroke="midnightblue" d="M1818.27,-68.2264C1797.97,-57.6383 1773.93,-45.0936 1754.95,-35.19"/>
<polygon fill="midnightblue" stroke="midnightblue" points="1816.81,-71.4143 1827.3,-72.937 1820.05,-65.2082 1816.81,-71.4143"/>
</g>
<!-- Node10 -->
<g id="node20" class="node"><title>Node10</title>
<a xlink:href="wavelet__tree3_8cpp.html" target="_top" xlink:title="examples/suffix_sorting\l/wavelet_tree3.cpp">
<polygon fill="none" stroke="black" points="1800,-1 1800,-35 1920,-35 1920,-1 1800,-1"/>
<text text-anchor="start" x="1808" y="-22" font-family="Helvetica,sans-Serif" font-size="10.00">examples/suffix_sorting</text>
<text text-anchor="middle" x="1860" y="-9" font-family="Helvetica,sans-Serif" font-size="10.00">/wavelet_tree3.cpp</text>
</a>
</g>
<!-- Node9&#45;&gt;Node10 -->
<g id="edge20" class="edge"><title>Node9&#45;&gt;Node10</title>
<path fill="none" stroke="midnightblue" d="M1860,-62.7193C1860,-53.572 1860,-43.6255 1860,-35.4407"/>
<polygon fill="midnightblue" stroke="midnightblue" points="1856.5,-62.937 1860,-72.937 1863.5,-62.937 1856.5,-62.937"/>
</g>
<!-- Node26 -->
<g id="node54" class="node"><title>Node26</title>
<a xlink:href="select__run_8cpp.html" target="_top" xlink:title="examples/select/select\l_run.cpp">
<polygon fill="none" stroke="black" points="2351.5,-73 2351.5,-107 2468.5,-107 2468.5,-73 2351.5,-73"/>
<text text-anchor="start" x="2359.5" y="-94" font-family="Helvetica,sans-Serif" font-size="10.00">examples/select/select</text>
<text text-anchor="middle" x="2410" y="-81" font-family="Helvetica,sans-Serif" font-size="10.00">_run.cpp</text>
</a>
</g>
<!-- Node25&#45;&gt;Node26 -->
<g id="edge56" class="edge"><title>Node25&#45;&gt;Node26</title>
<path fill="none" stroke="midnightblue" d="M1931.29,-157.073C2028.48,-150.11 2199.02,-135.111 2343,-108 2345.72,-107.487 2348.5,-106.922 2351.29,-106.316"/>
<polygon fill="midnightblue" stroke="midnightblue" points="1930.98,-153.586 1921.26,-157.783 1931.48,-160.569 1930.98,-153.586"/>
</g>
</g>
</svg>
