<?xml version="1.0" encoding="UTF-8" standalone="no"?>
<!DOCTYPE svg PUBLIC "-//W3C//DTD SVG 1.1//EN"
 "http://www.w3.org/Graphics/SVG/1.1/DTD/svg11.dtd">
<!-- Generated by graphviz version 2.36.0 (20140111.2315)
 -->
<!-- Title: I/O Primitives Layer Pages: 1 -->
<svg width="438pt" height="66pt"
 viewBox="0.00 0.00 438.00 66.00" xmlns="http://www.w3.org/2000/svg" xmlns:xlink="http://www.w3.org/1999/xlink">
<g id="graph0" class="graph" transform="scale(1 1) rotate(0) translate(4 62)">
<title>I/O Primitives Layer</title>
<!-- Node3 -->
<g id="node1" class="node"><title>Node3</title>
<g id="a_node1"><a xlink:href="group__foxxll__reqlayer.html" target="_top" xlink:title="I/O Requests and Queues">
<polygon fill="none" stroke="black" points="298.5,-38.5 298.5,-57.5 429.5,-57.5 429.5,-38.5 298.5,-38.5"/>
<text text-anchor="middle" x="364" y="-45.5" font-family="Helvetica,sans-Serif" font-size="10.00">I/O Requests and Queues</text>
</a>
</g>
</g>
<!-- Node1 -->
<g id="node2" class="node"><title>Node1</title>
<g id="a_node2"><a xlink:href="group__foxxll.html" target="_top" xlink:title="foxxll &#45; A C++ Library\l for Asynchronous I/O\l and Block Management">
<polygon fill="none" stroke="black" points="0,-8.5 0,-49.5 122,-49.5 122,-8.5 0,-8.5"/>
<text text-anchor="start" x="8" y="-37.5" font-family="Helvetica,sans-Serif" font-size="10.00">foxxll &#45; A C++ Library</text>
<text text-anchor="start" x="8" y="-26.5" font-family="Helvetica,sans-Serif" font-size="10.00"> for Asynchronous I/O</text>
<text text-anchor="middle" x="61" y="-15.5" font-family="Helvetica,sans-Serif" font-size="10.00"> and Block Management</text>
</a>
</g>
</g>
<!-- Node0 -->
<g id="node4" class="node"><title>Node0</title>
<polygon fill="#bfbfbf" stroke="black" points="158,-19.5 158,-38.5 262,-38.5 262,-19.5 158,-19.5"/>
<text text-anchor="middle" x="210" y="-26.5" font-family="Helvetica,sans-Serif" font-size="10.00">I/O Primitives Layer</text>
</g>
<!-- Node1&#45;&gt;Node0 -->
<g id="edge1" class="edge"><title>Node1&#45;&gt;Node0</title>
<path fill="none" stroke="midnightblue" d="M132.478,-29C140.938,-29 149.452,-29 157.57,-29"/>
<polygon fill="midnightblue" stroke="midnightblue" points="132.215,-25.5001 122.215,-29 132.215,-32.5001 132.215,-25.5001"/>
</g>
<!-- Node2 -->
<g id="node3" class="node"><title>Node2</title>
<g id="a_node3"><a xlink:href="group__foxxll__fileimpl.html" target="_top" xlink:title="File I/O Implementations">
<polygon fill="none" stroke="black" points="302,-0.5 302,-19.5 426,-19.5 426,-0.5 302,-0.5"/>
<text text-anchor="middle" x="364" y="-7.5" font-family="Helvetica,sans-Serif" font-size="10.00">File I/O Implementations</text>
</a>
</g>
</g>
<!-- Node0&#45;&gt;Node3 -->
<g id="edge3" class="edge"><title>Node0&#45;&gt;Node3</title>
<path fill="none" stroke="midnightblue" d="M272.041,-36.6301C280.692,-37.7116 289.613,-38.8267 298.331,-39.9164"/>
<polygon fill="midnightblue" stroke="midnightblue" points="272.394,-33.147 262.037,-35.3796 271.525,-40.093 272.394,-33.147"/>
</g>
<!-- Node0&#45;&gt;Node2 -->
<g id="edge2" class="edge"><title>Node0&#45;&gt;Node2</title>
<path fill="none" stroke="midnightblue" d="M272.091,-21.3636C281.886,-20.1392 292.025,-18.8718 301.823,-17.6472"/>
<polygon fill="midnightblue" stroke="midnightblue" points="271.525,-17.907 262.037,-22.6204 272.394,-24.853 271.525,-17.907"/>
</g>
</g>
</svg>
