<?xml version="1.0" encoding="UTF-8" standalone="no"?>
<!DOCTYPE svg PUBLIC "-//W3C//DTD SVG 1.1//EN"
 "http://www.w3.org/Graphics/SVG/1.1/DTD/svg11.dtd">
<!-- Generated by graphviz version 2.36.0 (20140111.2315)
 -->
<!-- Title: Data Structures Pages: 1 -->
<svg width="342pt" height="38pt"
 viewBox="0.00 0.00 342.00 38.00" xmlns="http://www.w3.org/2000/svg" xmlns:xlink="http://www.w3.org/1999/xlink">
<g id="graph0" class="graph" transform="scale(1 1) rotate(0) translate(4 34)">
<title>Data Structures</title>
<!-- Node1 -->
<g id="node1" class="node"><title>Node1</title>
<g id="a_node1"><a xlink:href="group__tlx.html" target="_top" xlink:title="tlx &#45; C++ Extensions\l and Utilities">
<polygon fill="none" stroke="black" points="0.5,-0 0.5,-30 107.5,-30 107.5,-0 0.5,-0"/>
<text text-anchor="start" x="8.5" y="-18" font-family="Helvetica,sans-Serif" font-size="10.00">tlx &#45; C++ Extensions</text>
<text text-anchor="middle" x="54" y="-7" font-family="Helvetica,sans-Serif" font-size="10.00"> and Utilities</text>
</a>
</g>
</g>
<!-- Node0 -->
<g id="node2" class="node"><title>Node0</title>
<polygon fill="#bfbfbf" stroke="black" points="144,-5.5 144,-24.5 230,-24.5 230,-5.5 144,-5.5"/>
<text text-anchor="middle" x="187" y="-12.5" font-family="Helvetica,sans-Serif" font-size="10.00">Data Structures</text>
</g>
<!-- Node1&#45;&gt;Node0 -->
<g id="edge1" class="edge"><title>Node1&#45;&gt;Node0</title>
<path fill="none" stroke="midnightblue" d="M117.557,-15C126.499,-15 135.514,-15 143.934,-15"/>
<polygon fill="midnightblue" stroke="midnightblue" points="117.528,-11.5001 107.528,-15 117.528,-18.5001 117.528,-11.5001"/>
</g>
<!-- Node2 -->
<g id="node3" class="node"><title>Node2</title>
<g id="a_node3"><a xlink:href="group__tlx__data__structures__loser__tree.html" target="_top" xlink:title="Loser Trees">
<polygon fill="none" stroke="black" points="266,-5.5 266,-24.5 334,-24.5 334,-5.5 266,-5.5"/>
<text text-anchor="middle" x="300" y="-12.5" font-family="Helvetica,sans-Serif" font-size="10.00">Loser Trees</text>
</a>
</g>
</g>
<!-- Node0&#45;&gt;Node2 -->
<g id="edge2" class="edge"><title>Node0&#45;&gt;Node2</title>
<path fill="none" stroke="midnightblue" d="M240.355,-15C249.02,-15 257.788,-15 265.809,-15"/>
<polygon fill="midnightblue" stroke="midnightblue" points="240.281,-11.5001 230.281,-15 240.281,-18.5001 240.281,-11.5001"/>
</g>
</g>
</svg>
