<?xml version="1.0" encoding="UTF-8" standalone="no"?>
<!DOCTYPE svg PUBLIC "-//W3C//DTD SVG 1.1//EN"
 "http://www.w3.org/Graphics/SVG/1.1/DTD/svg11.dtd">
<!-- Generated by graphviz version 2.36.0 (20140111.2315)
 -->
<!-- Title: thrill/common/hash.hpp Pages: 1 -->
<svg width="1697pt" height="504pt"
 viewBox="0.00 0.00 1697.00 504.00" xmlns="http://www.w3.org/2000/svg" xmlns:xlink="http://www.w3.org/1999/xlink">
<g id="graph0" class="graph" transform="scale(1 1) rotate(0) translate(4 500)">
<title>thrill/common/hash.hpp</title>
<!-- Node1 -->
<g id="node1" class="node"><title>Node1</title>
<polygon fill="#bfbfbf" stroke="black" points="804,-476.5 804,-495.5 922,-495.5 922,-476.5 804,-476.5"/>
<text text-anchor="middle" x="863" y="-483.5" font-family="Helvetica,sans-Serif" font-size="10.00">thrill/common/hash.hpp</text>
</g>
<!-- Node2 -->
<g id="node2" class="node"><title>Node2</title>
<g id="a_node2"><a xlink:href="reduce__functional_8hpp.html" target="_top" xlink:title="thrill/core/reduce\l_functional.hpp">
<polygon fill="none" stroke="black" points="757.5,-409 757.5,-439 846.5,-439 846.5,-409 757.5,-409"/>
<text text-anchor="start" x="765.5" y="-427" font-family="Helvetica,sans-Serif" font-size="10.00">thrill/core/reduce</text>
<text text-anchor="middle" x="802" y="-416" font-family="Helvetica,sans-Serif" font-size="10.00">_functional.hpp</text>
</a>
</g>
</g>
<!-- Node1&#45;&gt;Node2 -->
<g id="edge1" class="edge"><title>Node1&#45;&gt;Node2</title>
<path fill="none" stroke="midnightblue" d="M846.975,-469.238C837.485,-459.904 825.562,-448.176 816.376,-439.141"/>
<polygon fill="midnightblue" stroke="midnightblue" points="844.677,-471.886 854.26,-476.403 849.585,-466.896 844.677,-471.886"/>
</g>
<!-- Node33 -->
<g id="node33" class="node"><title>Node33</title>
<g id="a_node33"><a xlink:href="hash_8cpp.html" target="_top" xlink:title="thrill/common/hash.cpp">
<polygon fill="none" stroke="black" points="865,-414.5 865,-433.5 983,-433.5 983,-414.5 865,-414.5"/>
<text text-anchor="middle" x="924" y="-421.5" font-family="Helvetica,sans-Serif" font-size="10.00">thrill/common/hash.cpp</text>
</a>
</g>
</g>
<!-- Node1&#45;&gt;Node33 -->
<g id="edge58" class="edge"><title>Node1&#45;&gt;Node33</title>
<path fill="none" stroke="midnightblue" d="M879.071,-469.193C890.66,-457.793 905.861,-442.841 915.276,-433.581"/>
<polygon fill="midnightblue" stroke="midnightblue" points="876.415,-466.896 871.74,-476.403 881.323,-471.886 876.415,-466.896"/>
</g>
<!-- Node3 -->
<g id="node3" class="node"><title>Node3</title>
<g id="a_node3"><a xlink:href="reduce__bucket__hash__table_8hpp.html" target="_top" xlink:title="thrill/core/reduce\l_bucket_hash_table.hpp">
<polygon fill="none" stroke="black" points="686,-273 686,-303 808,-303 808,-273 686,-273"/>
<text text-anchor="start" x="694" y="-291" font-family="Helvetica,sans-Serif" font-size="10.00">thrill/core/reduce</text>
<text text-anchor="middle" x="747" y="-280" font-family="Helvetica,sans-Serif" font-size="10.00">_bucket_hash_table.hpp</text>
</a>
</g>
</g>
<!-- Node2&#45;&gt;Node3 -->
<g id="edge2" class="edge"><title>Node2&#45;&gt;Node3</title>
<path fill="none" stroke="midnightblue" d="M798.567,-398.796C795.591,-381.822 790.409,-358.882 782,-340 776.059,-326.659 766.552,-313.099 758.945,-303.318"/>
<polygon fill="midnightblue" stroke="midnightblue" points="795.163,-399.673 800.216,-408.986 802.073,-398.555 795.163,-399.673"/>
</g>
<!-- Node4 -->
<g id="node4" class="node"><title>Node4</title>
<g id="a_node4"><a xlink:href="location__detection_8hpp.html" target="_top" xlink:title="thrill/core/location\l_detection.hpp">
<polygon fill="none" stroke="black" points="580.5,-205 580.5,-235 673.5,-235 673.5,-205 580.5,-205"/>
<text text-anchor="start" x="588.5" y="-223" font-family="Helvetica,sans-Serif" font-size="10.00">thrill/core/location</text>
<text text-anchor="middle" x="627" y="-212" font-family="Helvetica,sans-Serif" font-size="10.00">_detection.hpp</text>
</a>
</g>
</g>
<!-- Node2&#45;&gt;Node4 -->
<g id="edge51" class="edge"><title>Node2&#45;&gt;Node4</title>
<path fill="none" stroke="midnightblue" d="M747.448,-418.529C679.927,-409.636 568.319,-383.098 523,-304 515.93,-291.66 515.476,-284.069 523,-272 530.58,-259.841 561.945,-245.416 588.268,-235.015"/>
<polygon fill="midnightblue" stroke="midnightblue" points="747.131,-422.016 757.483,-419.764 747.986,-415.069 747.131,-422.016"/>
</g>
<!-- Node5 -->
<g id="node5" class="node"><title>Node5</title>
<g id="a_node5"><a xlink:href="group__by__key_8hpp.html" target="_top" xlink:title="thrill/api/group_by\l_key.hpp">
<polygon fill="none" stroke="black" points="610.5,-137 610.5,-167 703.5,-167 703.5,-137 610.5,-137"/>
<text text-anchor="start" x="618.5" y="-155" font-family="Helvetica,sans-Serif" font-size="10.00">thrill/api/group_by</text>
<text text-anchor="middle" x="657" y="-144" font-family="Helvetica,sans-Serif" font-size="10.00">_key.hpp</text>
</a>
</g>
</g>
<!-- Node2&#45;&gt;Node5 -->
<g id="edge54" class="edge"><title>Node2&#45;&gt;Node5</title>
<path fill="none" stroke="midnightblue" d="M856.76,-408.002C917.095,-393.86 944.555,-410.515 987,-372 1021.01,-341.141 1025.07,-316.309 1013,-272 1003.79,-238.169 1001.95,-223.785 973,-204 929.988,-174.603 780.466,-160.909 703.528,-155.686"/>
<polygon fill="midnightblue" stroke="midnightblue" points="855.609,-404.683 846.786,-410.549 857.342,-411.465 855.609,-404.683"/>
</g>
<!-- Node15 -->
<g id="node15" class="node"><title>Node15</title>
<g id="a_node15"><a xlink:href="reduce__by__hash__post__phase_8hpp.html" target="_top" xlink:title="thrill/core/reduce\l_by_hash_post_phase.hpp">
<polygon fill="none" stroke="black" points="831.5,-205 831.5,-235 964.5,-235 964.5,-205 831.5,-205"/>
<text text-anchor="start" x="839.5" y="-223" font-family="Helvetica,sans-Serif" font-size="10.00">thrill/core/reduce</text>
<text text-anchor="middle" x="898" y="-212" font-family="Helvetica,sans-Serif" font-size="10.00">_by_hash_post_phase.hpp</text>
</a>
</g>
</g>
<!-- Node2&#45;&gt;Node15 -->
<g id="edge55" class="edge"><title>Node2&#45;&gt;Node15</title>
<path fill="none" stroke="midnightblue" d="M856.275,-407.785C898.972,-395.454 952.623,-379.015 961,-372 987.218,-350.045 988.757,-337.188 997,-304 1000.43,-290.197 1004.4,-284.143 997,-272 986.381,-254.585 967.701,-242.862 949.407,-235.097"/>
<polygon fill="midnightblue" stroke="midnightblue" points="855.169,-404.462 846.523,-410.586 857.101,-411.19 855.169,-404.462"/>
</g>
<!-- Node26 -->
<g id="node26" class="node"><title>Node26</title>
<g id="a_node26"><a xlink:href="reduce__pre__phase_8hpp.html" target="_top" xlink:title="thrill/core/reduce\l_pre_phase.hpp">
<polygon fill="none" stroke="black" points="713.5,-205 713.5,-235 802.5,-235 802.5,-205 713.5,-205"/>
<text text-anchor="start" x="721.5" y="-223" font-family="Helvetica,sans-Serif" font-size="10.00">thrill/core/reduce</text>
<text text-anchor="middle" x="758" y="-212" font-family="Helvetica,sans-Serif" font-size="10.00">_pre_phase.hpp</text>
</a>
</g>
</g>
<!-- Node2&#45;&gt;Node26 -->
<g id="edge56" class="edge"><title>Node2&#45;&gt;Node26</title>
<path fill="none" stroke="midnightblue" d="M852.955,-405.313C919.552,-379.449 1022.73,-328.231 978,-272 933.702,-216.315 891.306,-252.119 822,-236 815.775,-234.552 809.211,-233.02 802.755,-231.51"/>
<polygon fill="midnightblue" stroke="midnightblue" points="851.518,-402.115 843.417,-408.943 854.008,-408.658 851.518,-402.115"/>
</g>
<!-- Node29 -->
<g id="node29" class="node"><title>Node29</title>
<g id="a_node29"><a xlink:href="reduce__by__index__post__phase_8hpp.html" target="_top" xlink:title="thrill/core/reduce\l_by_index_post_phase.hpp">
<polygon fill="none" stroke="black" points="427.5,-205 427.5,-235 562.5,-235 562.5,-205 427.5,-205"/>
<text text-anchor="start" x="435.5" y="-223" font-family="Helvetica,sans-Serif" font-size="10.00">thrill/core/reduce</text>
<text text-anchor="middle" x="495" y="-212" font-family="Helvetica,sans-Serif" font-size="10.00">_by_index_post_phase.hpp</text>
</a>
</g>
</g>
<!-- Node2&#45;&gt;Node29 -->
<g id="edge57" class="edge"><title>Node2&#45;&gt;Node29</title>
<path fill="none" stroke="midnightblue" d="M747.179,-417.192C683.267,-409.51 582.488,-394.286 552,-372 506.983,-339.093 497.511,-266.103 495.524,-235.23"/>
<polygon fill="midnightblue" stroke="midnightblue" points="747.151,-420.713 757.491,-418.405 747.969,-413.761 747.151,-420.713"/>
</g>
<!-- Node30 -->
<g id="node30" class="node"><title>Node30</title>
<g id="a_node30"><a xlink:href="reduce__table_8hpp.html" target="_top" xlink:title="thrill/core/reduce\l_table.hpp">
<polygon fill="none" stroke="black" points="684.5,-341 684.5,-371 773.5,-371 773.5,-341 684.5,-341"/>
<text text-anchor="start" x="692.5" y="-359" font-family="Helvetica,sans-Serif" font-size="10.00">thrill/core/reduce</text>
<text text-anchor="middle" x="729" y="-348" font-family="Helvetica,sans-Serif" font-size="10.00">_table.hpp</text>
</a>
</g>
</g>
<!-- Node2&#45;&gt;Node30 -->
<g id="edge39" class="edge"><title>Node2&#45;&gt;Node30</title>
<path fill="none" stroke="midnightblue" d="M778.47,-401.727C767.366,-391.687 754.421,-379.983 744.558,-371.066"/>
<polygon fill="midnightblue" stroke="midnightblue" points="776.395,-404.569 786.16,-408.679 781.09,-399.376 776.395,-404.569"/>
</g>
<!-- Node31 -->
<g id="node31" class="node"><title>Node31</title>
<g id="a_node31"><a xlink:href="reduce__old__probing__hash__table_8hpp.html" target="_top" xlink:title="thrill/core/reduce\l_old_probing_hash_table.hpp">
<polygon fill="none" stroke="black" points="826.5,-273 826.5,-303 969.5,-303 969.5,-273 826.5,-273"/>
<text text-anchor="start" x="834.5" y="-291" font-family="Helvetica,sans-Serif" font-size="10.00">thrill/core/reduce</text>
<text text-anchor="middle" x="898" y="-280" font-family="Helvetica,sans-Serif" font-size="10.00">_old_probing_hash_table.hpp</text>
</a>
</g>
</g>
<!-- Node2&#45;&gt;Node31 -->
<g id="edge52" class="edge"><title>Node2&#45;&gt;Node31</title>
<path fill="none" stroke="midnightblue" d="M818.226,-400.351C838.102,-372.607 871.176,-326.442 887.8,-303.237"/>
<polygon fill="midnightblue" stroke="midnightblue" points="815.252,-398.492 812.274,-408.66 820.943,-402.569 815.252,-398.492"/>
</g>
<!-- Node32 -->
<g id="node32" class="node"><title>Node32</title>
<g id="a_node32"><a xlink:href="reduce__probing__hash__table_8hpp.html" target="_top" xlink:title="thrill/core/reduce\l_probing_hash_table.hpp">
<polygon fill="none" stroke="black" points="542.5,-273 542.5,-303 667.5,-303 667.5,-273 542.5,-273"/>
<text text-anchor="start" x="550.5" y="-291" font-family="Helvetica,sans-Serif" font-size="10.00">thrill/core/reduce</text>
<text text-anchor="middle" x="605" y="-280" font-family="Helvetica,sans-Serif" font-size="10.00">_probing_hash_table.hpp</text>
</a>
</g>
</g>
<!-- Node2&#45;&gt;Node32 -->
<g id="edge53" class="edge"><title>Node2&#45;&gt;Node32</title>
<path fill="none" stroke="midnightblue" d="M747.718,-407.751C724.023,-399.499 696.746,-387.723 675,-372 648.42,-352.782 625.634,-321.345 613.764,-303.177"/>
<polygon fill="midnightblue" stroke="midnightblue" points="746.69,-411.097 757.284,-410.962 748.917,-404.461 746.69,-411.097"/>
</g>
<!-- Node3&#45;&gt;Node4 -->
<g id="edge3" class="edge"><title>Node3&#45;&gt;Node4</title>
<path fill="none" stroke="midnightblue" d="M712.295,-267.912C693.269,-257.448 670.091,-244.7 652.7,-235.135"/>
<polygon fill="midnightblue" stroke="midnightblue" points="710.808,-271.089 721.257,-272.841 714.182,-264.955 710.808,-271.089"/>
</g>
<!-- Node3&#45;&gt;Node15 -->
<g id="edge17" class="edge"><title>Node3&#45;&gt;Node15</title>
<path fill="none" stroke="midnightblue" d="M788.757,-268.749C813.136,-258.093 843.423,-244.855 865.92,-235.022"/>
<polygon fill="midnightblue" stroke="midnightblue" points="787.154,-265.629 779.393,-272.841 789.958,-272.043 787.154,-265.629"/>
</g>
<!-- Node3&#45;&gt;Node26 -->
<g id="edge30" class="edge"><title>Node3&#45;&gt;Node26</title>
<path fill="none" stroke="midnightblue" d="M751.078,-262.532C752.607,-253.361 754.293,-243.245 755.618,-235.293"/>
<polygon fill="midnightblue" stroke="midnightblue" points="747.579,-262.24 749.387,-272.679 754.483,-263.39 747.579,-262.24"/>
</g>
<!-- Node3&#45;&gt;Node29 -->
<g id="edge37" class="edge"><title>Node3&#45;&gt;Node29</title>
<path fill="none" stroke="midnightblue" d="M683.492,-270.367C641.894,-259.472 588.126,-245.39 548.669,-235.056"/>
<polygon fill="midnightblue" stroke="midnightblue" points="682.688,-273.774 693.249,-272.922 684.462,-267.003 682.688,-273.774"/>
</g>
<!-- Node4&#45;&gt;Node5 -->
<g id="edge4" class="edge"><title>Node4&#45;&gt;Node5</title>
<path fill="none" stroke="midnightblue" d="M637.715,-195.426C641.99,-186.023 646.771,-175.504 650.503,-167.293"/>
<polygon fill="midnightblue" stroke="midnightblue" points="634.461,-194.127 633.51,-204.679 640.834,-197.024 634.461,-194.127"/>
</g>
<!-- Node10 -->
<g id="node10" class="node"><title>Node10</title>
<g id="a_node10"><a xlink:href="inner__join_8hpp.html" target="_top" xlink:title="thrill/api/inner_join.hpp">
<polygon fill="none" stroke="black" points="191.5,-142.5 191.5,-161.5 304.5,-161.5 304.5,-142.5 191.5,-142.5"/>
<text text-anchor="middle" x="248" y="-149.5" font-family="Helvetica,sans-Serif" font-size="10.00">thrill/api/inner_join.hpp</text>
</a>
</g>
</g>
<!-- Node4&#45;&gt;Node10 -->
<g id="edge9" class="edge"><title>Node4&#45;&gt;Node10</title>
<path fill="none" stroke="midnightblue" d="M570.462,-204.023C471.417,-183.34 367.302,-168.381 304.637,-160.107"/>
<polygon fill="midnightblue" stroke="midnightblue" points="569.83,-207.467 580.338,-206.108 571.277,-200.618 569.83,-207.467"/>
</g>
<!-- Node6 -->
<g id="node6" class="node"><title>Node6</title>
<g id="a_node6"><a xlink:href="thrill_8hpp.html" target="_top" xlink:title="thrill/thrill.hpp">
<polygon fill="none" stroke="black" points="458,-74.5 458,-93.5 532,-93.5 532,-74.5 458,-74.5"/>
<text text-anchor="middle" x="495" y="-81.5" font-family="Helvetica,sans-Serif" font-size="10.00">thrill/thrill.hpp</text>
</a>
</g>
</g>
<!-- Node5&#45;&gt;Node6 -->
<g id="edge5" class="edge"><title>Node5&#45;&gt;Node6</title>
<path fill="none" stroke="midnightblue" d="M612.842,-133.01C581.478,-120.232 540.749,-103.638 516.31,-93.6819"/>
<polygon fill="midnightblue" stroke="midnightblue" points="611.665,-136.31 622.247,-136.841 614.307,-129.827 611.665,-136.31"/>
</g>
<!-- Node7 -->
<g id="node7" class="node"><title>Node7</title>
<g id="a_node7"><a xlink:href="bfs_8cpp.html" target="_top" xlink:title="examples/bfs/bfs.cpp">
<polygon fill="none" stroke="black" points="550,-74.5 550,-93.5 660,-93.5 660,-74.5 550,-74.5"/>
<text text-anchor="middle" x="605" y="-81.5" font-family="Helvetica,sans-Serif" font-size="10.00">examples/bfs/bfs.cpp</text>
</a>
</g>
</g>
<!-- Node5&#45;&gt;Node7 -->
<g id="edge6" class="edge"><title>Node5&#45;&gt;Node7</title>
<path fill="none" stroke="midnightblue" d="M639.526,-128.821C630.092,-116.847 618.974,-102.736 611.956,-93.8283"/>
<polygon fill="midnightblue" stroke="midnightblue" points="636.779,-130.99 645.717,-136.679 642.277,-126.658 636.779,-130.99"/>
</g>
<!-- Node8 -->
<g id="node8" class="node"><title>Node8</title>
<g id="a_node8"><a xlink:href="page__rank__run_8cpp.html" target="_top" xlink:title="examples/page_rank\l/page_rank_run.cpp">
<polygon fill="none" stroke="black" points="435.5,-1 435.5,-31 542.5,-31 542.5,-1 435.5,-1"/>
<text text-anchor="start" x="443.5" y="-19" font-family="Helvetica,sans-Serif" font-size="10.00">examples/page_rank</text>
<text text-anchor="middle" x="489" y="-8" font-family="Helvetica,sans-Serif" font-size="10.00">/page_rank_run.cpp</text>
</a>
</g>
</g>
<!-- Node5&#45;&gt;Node8 -->
<g id="edge7" class="edge"><title>Node5&#45;&gt;Node8</title>
<path fill="none" stroke="midnightblue" d="M668.848,-127.577C676.116,-109.558 681.817,-84.9527 669,-68 653.721,-47.7911 590.223,-33.2735 542.946,-25.0154"/>
<polygon fill="midnightblue" stroke="midnightblue" points="665.604,-126.258 664.757,-136.819 672.005,-129.092 665.604,-126.258"/>
</g>
<!-- Node9 -->
<g id="node9" class="node"><title>Node9</title>
<g id="a_node9"><a xlink:href="percentiles_8cpp.html" target="_top" xlink:title="examples/percentiles\l/percentiles.cpp">
<polygon fill="none" stroke="black" points="716.5,-69 716.5,-99 825.5,-99 825.5,-69 716.5,-69"/>
<text text-anchor="start" x="724.5" y="-87" font-family="Helvetica,sans-Serif" font-size="10.00">examples/percentiles</text>
<text text-anchor="middle" x="771" y="-76" font-family="Helvetica,sans-Serif" font-size="10.00">/percentiles.cpp</text>
</a>
</g>
</g>
<!-- Node5&#45;&gt;Node9 -->
<g id="edge8" class="edge"><title>Node5&#45;&gt;Node9</title>
<path fill="none" stroke="midnightblue" d="M690.464,-131.626C708.444,-121.217 730.214,-108.613 746.585,-99.1352"/>
<polygon fill="midnightblue" stroke="midnightblue" points="688.356,-128.802 681.456,-136.841 691.864,-134.86 688.356,-128.802"/>
</g>
<!-- Node10&#45;&gt;Node6 -->
<g id="edge10" class="edge"><title>Node10&#45;&gt;Node6</title>
<path fill="none" stroke="midnightblue" d="M294.194,-140.044C334.866,-130.202 395.606,-115.027 448,-100 454.916,-98.0165 462.354,-95.7197 469.226,-93.5287"/>
<polygon fill="midnightblue" stroke="midnightblue" points="293.205,-136.682 284.304,-142.428 294.846,-143.487 293.205,-136.682"/>
</g>
<!-- Node11 -->
<g id="node11" class="node"><title>Node11</title>
<g id="a_node11"><a xlink:href="page__rank_8hpp.html" target="_top" xlink:title="examples/page_rank\l/page_rank.hpp">
<polygon fill="none" stroke="black" points="194.5,-69 194.5,-99 301.5,-99 301.5,-69 194.5,-69"/>
<text text-anchor="start" x="202.5" y="-87" font-family="Helvetica,sans-Serif" font-size="10.00">examples/page_rank</text>
<text text-anchor="middle" x="248" y="-76" font-family="Helvetica,sans-Serif" font-size="10.00">/page_rank.hpp</text>
</a>
</g>
</g>
<!-- Node10&#45;&gt;Node11 -->
<g id="edge11" class="edge"><title>Node10&#45;&gt;Node11</title>
<path fill="none" stroke="midnightblue" d="M248,-132.174C248,-121.678 248,-108.821 248,-99.1815"/>
<polygon fill="midnightblue" stroke="midnightblue" points="244.5,-132.372 248,-142.372 251.5,-132.372 244.5,-132.372"/>
</g>
<!-- Node12 -->
<g id="node12" class="node"><title>Node12</title>
<g id="a_node12"><a xlink:href="triangles_8hpp.html" target="_top" xlink:title="examples/triangles\l/triangles.hpp">
<polygon fill="none" stroke="black" points="79,-69 79,-99 177,-99 177,-69 79,-69"/>
<text text-anchor="start" x="87" y="-87" font-family="Helvetica,sans-Serif" font-size="10.00">examples/triangles</text>
<text text-anchor="middle" x="128" y="-76" font-family="Helvetica,sans-Serif" font-size="10.00">/triangles.hpp</text>
</a>
</g>
</g>
<!-- Node10&#45;&gt;Node12 -->
<g id="edge13" class="edge"><title>Node10&#45;&gt;Node12</title>
<path fill="none" stroke="midnightblue" d="M223.368,-137.452C203.074,-126.291 174.387,-110.513 153.784,-99.1815"/>
<polygon fill="midnightblue" stroke="midnightblue" points="221.863,-140.619 232.312,-142.372 225.237,-134.486 221.863,-140.619"/>
</g>
<!-- Node13 -->
<g id="node13" class="node"><title>Node13</title>
<g id="a_node13"><a xlink:href="tpch__run_8cpp.html" target="_top" xlink:title="examples/tpch/tpch\l_run.cpp">
<polygon fill="none" stroke="black" points="0,-1 0,-31 102,-31 102,-1 0,-1"/>
<text text-anchor="start" x="8" y="-19" font-family="Helvetica,sans-Serif" font-size="10.00">examples/tpch/tpch</text>
<text text-anchor="middle" x="51" y="-8" font-family="Helvetica,sans-Serif" font-size="10.00">_run.cpp</text>
</a>
</g>
</g>
<!-- Node10&#45;&gt;Node13 -->
<g id="edge16" class="edge"><title>Node10&#45;&gt;Node13</title>
<path fill="none" stroke="midnightblue" d="M180.998,-148.011C143.414,-142.795 98.4945,-130.076 70,-100 52.2082,-81.2205 49.8624,-49.3301 50.1592,-31.0296"/>
<polygon fill="midnightblue" stroke="midnightblue" points="181.031,-151.541 191.384,-149.291 181.887,-144.594 181.031,-151.541"/>
</g>
<!-- Node11&#45;&gt;Node8 -->
<g id="edge12" class="edge"><title>Node11&#45;&gt;Node8</title>
<path fill="none" stroke="midnightblue" d="M309.24,-66.2289C348.952,-55.3534 400.098,-41.3466 437.674,-31.0561"/>
<polygon fill="midnightblue" stroke="midnightblue" points="308.125,-62.9052 299.405,-68.9223 309.974,-69.6566 308.125,-62.9052"/>
</g>
<!-- Node12&#45;&gt;Node13 -->
<g id="edge14" class="edge"><title>Node12&#45;&gt;Node13</title>
<path fill="none" stroke="midnightblue" d="M103.522,-62.0184C91.7336,-51.9145 77.9146,-40.0696 67.4107,-31.0663"/>
<polygon fill="midnightblue" stroke="midnightblue" points="101.422,-64.8284 111.292,-68.679 105.977,-59.5136 101.422,-64.8284"/>
</g>
<!-- Node14 -->
<g id="node14" class="node"><title>Node14</title>
<g id="a_node14"><a xlink:href="triangles__run_8cpp.html" target="_top" xlink:title="examples/triangles\l/triangles_run.cpp">
<polygon fill="none" stroke="black" points="120,-1 120,-31 218,-31 218,-1 120,-1"/>
<text text-anchor="start" x="128" y="-19" font-family="Helvetica,sans-Serif" font-size="10.00">examples/triangles</text>
<text text-anchor="middle" x="169" y="-8" font-family="Helvetica,sans-Serif" font-size="10.00">/triangles_run.cpp</text>
</a>
</g>
</g>
<!-- Node12&#45;&gt;Node14 -->
<g id="edge15" class="edge"><title>Node12&#45;&gt;Node14</title>
<path fill="none" stroke="midnightblue" d="M142.276,-60.0187C148.21,-50.4665 154.913,-39.677 160.121,-31.2931"/>
<polygon fill="midnightblue" stroke="midnightblue" points="139.2,-58.3376 136.896,-68.679 145.146,-62.0315 139.2,-58.3376"/>
</g>
<!-- Node16 -->
<g id="node16" class="node"><title>Node16</title>
<g id="a_node16"><a xlink:href="reduce__by__key_8hpp.html" target="_top" xlink:title="thrill/api/reduce_by\l_key.hpp">
<polygon fill="none" stroke="black" points="961,-137 961,-167 1059,-167 1059,-137 961,-137"/>
<text text-anchor="start" x="969" y="-155" font-family="Helvetica,sans-Serif" font-size="10.00">thrill/api/reduce_by</text>
<text text-anchor="middle" x="1010" y="-144" font-family="Helvetica,sans-Serif" font-size="10.00">_key.hpp</text>
</a>
</g>
</g>
<!-- Node15&#45;&gt;Node16 -->
<g id="edge18" class="edge"><title>Node15&#45;&gt;Node16</title>
<path fill="none" stroke="midnightblue" d="M930.877,-199.626C948.542,-189.217 969.93,-176.613 986.013,-167.135"/>
<polygon fill="midnightblue" stroke="midnightblue" points="928.865,-196.749 922.027,-204.841 932.419,-202.78 928.865,-196.749"/>
</g>
<!-- Node16&#45;&gt;Node6 -->
<g id="edge19" class="edge"><title>Node16&#45;&gt;Node6</title>
<path fill="none" stroke="midnightblue" d="M950.619,-148.481C860.991,-143.796 686.191,-131.214 541,-100 533.445,-98.3757 525.379,-95.9816 518.145,-93.5808"/>
<polygon fill="midnightblue" stroke="midnightblue" points="950.693,-151.989 960.857,-149.001 951.048,-144.998 950.693,-151.989"/>
</g>
<!-- Node16&#45;&gt;Node11 -->
<g id="edge22" class="edge"><title>Node16&#45;&gt;Node11</title>
<path fill="none" stroke="midnightblue" d="M950.594,-147.899C805.07,-140.105 433.716,-118.96 311,-100 307.889,-99.5193 304.705,-98.9643 301.5,-98.3571"/>
<polygon fill="midnightblue" stroke="midnightblue" points="950.503,-151.399 960.675,-148.437 950.876,-144.409 950.503,-151.399"/>
</g>
<!-- Node17 -->
<g id="node17" class="node"><title>Node17</title>
<g id="a_node17"><a xlink:href="k-means_8hpp.html" target="_top" xlink:title="examples/k&#45;means/k\l&#45;means.hpp">
<polygon fill="none" stroke="black" points="1465.5,-69 1465.5,-99 1572.5,-99 1572.5,-69 1465.5,-69"/>
<text text-anchor="start" x="1473.5" y="-87" font-family="Helvetica,sans-Serif" font-size="10.00">examples/k&#45;means/k</text>
<text text-anchor="middle" x="1519" y="-76" font-family="Helvetica,sans-Serif" font-size="10.00">&#45;means.hpp</text>
</a>
</g>
</g>
<!-- Node16&#45;&gt;Node17 -->
<g id="edge20" class="edge"><title>Node16&#45;&gt;Node17</title>
<path fill="none" stroke="midnightblue" d="M1069.17,-146.506C1154.9,-139.483 1318.43,-124.153 1456,-100 1459.1,-99.4556 1462.28,-98.8509 1465.47,-98.2055"/>
<polygon fill="midnightblue" stroke="midnightblue" points="1068.8,-143.025 1059.11,-147.322 1069.36,-150.003 1068.8,-143.025"/>
</g>
<!-- Node19 -->
<g id="node19" class="node"><title>Node19</title>
<g id="a_node19"><a xlink:href="k-means__step3_8cpp.html" target="_top" xlink:title="examples/tutorial/k\l&#45;means_step3.cpp">
<polygon fill="none" stroke="black" points="1590.5,-69 1590.5,-99 1689.5,-99 1689.5,-69 1590.5,-69"/>
<text text-anchor="start" x="1598.5" y="-87" font-family="Helvetica,sans-Serif" font-size="10.00">examples/tutorial/k</text>
<text text-anchor="middle" x="1640" y="-76" font-family="Helvetica,sans-Serif" font-size="10.00">&#45;means_step3.cpp</text>
</a>
</g>
</g>
<!-- Node16&#45;&gt;Node19 -->
<g id="edge23" class="edge"><title>Node16&#45;&gt;Node19</title>
<path fill="none" stroke="midnightblue" d="M1069.23,-148.83C1173.38,-144.323 1395.85,-131.595 1581,-100 1584.02,-99.4844 1587.12,-98.8932 1590.23,-98.25"/>
<polygon fill="midnightblue" stroke="midnightblue" points="1069.07,-145.334 1059.22,-149.254 1069.36,-152.328 1069.07,-145.334"/>
</g>
<!-- Node20 -->
<g id="node20" class="node"><title>Node20</title>
<g id="a_node20"><a xlink:href="k-means__step4_8cpp.html" target="_top" xlink:title="examples/tutorial/k\l&#45;means_step4.cpp">
<polygon fill="none" stroke="black" points="843.5,-69 843.5,-99 942.5,-99 942.5,-69 843.5,-69"/>
<text text-anchor="start" x="851.5" y="-87" font-family="Helvetica,sans-Serif" font-size="10.00">examples/tutorial/k</text>
<text text-anchor="middle" x="893" y="-76" font-family="Helvetica,sans-Serif" font-size="10.00">&#45;means_step4.cpp</text>
</a>
</g>
</g>
<!-- Node16&#45;&gt;Node20 -->
<g id="edge24" class="edge"><title>Node16&#45;&gt;Node20</title>
<path fill="none" stroke="midnightblue" d="M976.162,-131.912C957.613,-121.448 935.013,-108.7 918.058,-99.1352"/>
<polygon fill="midnightblue" stroke="midnightblue" points="974.471,-134.977 984.901,-136.841 977.91,-128.88 974.471,-134.977"/>
</g>
<!-- Node21 -->
<g id="node21" class="node"><title>Node21</title>
<g id="a_node21"><a xlink:href="k-means__step5_8cpp.html" target="_top" xlink:title="examples/tutorial/k\l&#45;means_step5.cpp">
<polygon fill="none" stroke="black" points="960.5,-69 960.5,-99 1059.5,-99 1059.5,-69 960.5,-69"/>
<text text-anchor="start" x="968.5" y="-87" font-family="Helvetica,sans-Serif" font-size="10.00">examples/tutorial/k</text>
<text text-anchor="middle" x="1010" y="-76" font-family="Helvetica,sans-Serif" font-size="10.00">&#45;means_step5.cpp</text>
</a>
</g>
</g>
<!-- Node16&#45;&gt;Node21 -->
<g id="edge25" class="edge"><title>Node16&#45;&gt;Node21</title>
<path fill="none" stroke="midnightblue" d="M1010,-126.532C1010,-117.361 1010,-107.245 1010,-99.2931"/>
<polygon fill="midnightblue" stroke="midnightblue" points="1006.5,-126.679 1010,-136.679 1013.5,-126.679 1006.5,-126.679"/>
</g>
<!-- Node22 -->
<g id="node22" class="node"><title>Node22</title>
<g id="a_node22"><a xlink:href="k-means__step6_8cpp.html" target="_top" xlink:title="examples/tutorial/k\l&#45;means_step6.cpp">
<polygon fill="none" stroke="black" points="1077.5,-69 1077.5,-99 1176.5,-99 1176.5,-69 1077.5,-69"/>
<text text-anchor="start" x="1085.5" y="-87" font-family="Helvetica,sans-Serif" font-size="10.00">examples/tutorial/k</text>
<text text-anchor="middle" x="1127" y="-76" font-family="Helvetica,sans-Serif" font-size="10.00">&#45;means_step6.cpp</text>
</a>
</g>
</g>
<!-- Node16&#45;&gt;Node22 -->
<g id="edge26" class="edge"><title>Node16&#45;&gt;Node22</title>
<path fill="none" stroke="midnightblue" d="M1043.84,-131.912C1062.39,-121.448 1084.99,-108.7 1101.94,-99.1352"/>
<polygon fill="midnightblue" stroke="midnightblue" points="1042.09,-128.88 1035.1,-136.841 1045.53,-134.977 1042.09,-128.88"/>
</g>
<!-- Node23 -->
<g id="node23" class="node"><title>Node23</title>
<g id="a_node23"><a xlink:href="word__count_8hpp.html" target="_top" xlink:title="examples/word_count\l/word_count.hpp">
<polygon fill="none" stroke="black" points="1195,-69 1195,-99 1307,-99 1307,-69 1195,-69"/>
<text text-anchor="start" x="1203" y="-87" font-family="Helvetica,sans-Serif" font-size="10.00">examples/word_count</text>
<text text-anchor="middle" x="1251" y="-76" font-family="Helvetica,sans-Serif" font-size="10.00">/word_count.hpp</text>
</a>
</g>
</g>
<!-- Node16&#45;&gt;Node23 -->
<g id="edge27" class="edge"><title>Node16&#45;&gt;Node23</title>
<path fill="none" stroke="midnightblue" d="M1068.94,-134.859C1108.9,-123.914 1161.22,-109.587 1199.51,-99.1006"/>
<polygon fill="midnightblue" stroke="midnightblue" points="1067.78,-131.547 1059.06,-137.564 1069.63,-138.299 1067.78,-131.547"/>
</g>
<!-- Node25 -->
<g id="node25" class="node"><title>Node25</title>
<g id="a_node25"><a xlink:href="word__count__simple_8cpp.html" target="_top" xlink:title="examples/word_count\l/word_count_simple.cpp">
<polygon fill="none" stroke="black" points="1325,-69 1325,-99 1447,-99 1447,-69 1325,-69"/>
<text text-anchor="start" x="1333" y="-87" font-family="Helvetica,sans-Serif" font-size="10.00">examples/word_count</text>
<text text-anchor="middle" x="1386" y="-76" font-family="Helvetica,sans-Serif" font-size="10.00">/word_count_simple.cpp</text>
</a>
</g>
</g>
<!-- Node16&#45;&gt;Node25 -->
<g id="edge29" class="edge"><title>Node16&#45;&gt;Node25</title>
<path fill="none" stroke="midnightblue" d="M1069.16,-141.871C1130.71,-132.196 1229.8,-116.115 1315,-100 1318.22,-99.3912 1321.52,-98.7514 1324.84,-98.093"/>
<polygon fill="midnightblue" stroke="midnightblue" points="1068.58,-138.42 1059.24,-143.426 1069.66,-145.335 1068.58,-138.42"/>
</g>
<!-- Node18 -->
<g id="node18" class="node"><title>Node18</title>
<g id="a_node18"><a xlink:href="k-means__run_8cpp.html" target="_top" xlink:title="examples/k&#45;means/k\l&#45;means_run.cpp">
<polygon fill="none" stroke="black" points="1465.5,-1 1465.5,-31 1572.5,-31 1572.5,-1 1465.5,-1"/>
<text text-anchor="start" x="1473.5" y="-19" font-family="Helvetica,sans-Serif" font-size="10.00">examples/k&#45;means/k</text>
<text text-anchor="middle" x="1519" y="-8" font-family="Helvetica,sans-Serif" font-size="10.00">&#45;means_run.cpp</text>
</a>
</g>
</g>
<!-- Node17&#45;&gt;Node18 -->
<g id="edge21" class="edge"><title>Node17&#45;&gt;Node18</title>
<path fill="none" stroke="midnightblue" d="M1519,-58.5322C1519,-49.3606 1519,-39.2449 1519,-31.2931"/>
<polygon fill="midnightblue" stroke="midnightblue" points="1515.5,-58.6789 1519,-68.679 1522.5,-58.679 1515.5,-58.6789"/>
</g>
<!-- Node24 -->
<g id="node24" class="node"><title>Node24</title>
<g id="a_node24"><a xlink:href="word__count__run_8cpp.html" target="_top" xlink:title="examples/word_count\l/word_count_run.cpp">
<polygon fill="none" stroke="black" points="1195,-1 1195,-31 1307,-31 1307,-1 1195,-1"/>
<text text-anchor="start" x="1203" y="-19" font-family="Helvetica,sans-Serif" font-size="10.00">examples/word_count</text>
<text text-anchor="middle" x="1251" y="-8" font-family="Helvetica,sans-Serif" font-size="10.00">/word_count_run.cpp</text>
</a>
</g>
</g>
<!-- Node23&#45;&gt;Node24 -->
<g id="edge28" class="edge"><title>Node23&#45;&gt;Node24</title>
<path fill="none" stroke="midnightblue" d="M1251,-58.5322C1251,-49.3606 1251,-39.2449 1251,-31.2931"/>
<polygon fill="midnightblue" stroke="midnightblue" points="1247.5,-58.6789 1251,-68.679 1254.5,-58.679 1247.5,-58.6789"/>
</g>
<!-- Node26&#45;&gt;Node16 -->
<g id="edge31" class="edge"><title>Node26&#45;&gt;Node16</title>
<path fill="none" stroke="midnightblue" d="M812.462,-204.736C856.61,-193.174 918.281,-177.022 960.918,-165.855"/>
<polygon fill="midnightblue" stroke="midnightblue" points="811.549,-201.357 802.762,-207.277 813.323,-208.129 811.549,-201.357"/>
</g>
<!-- Node27 -->
<g id="node27" class="node"><title>Node27</title>
<g id="a_node27"><a xlink:href="reduce__to__index_8hpp.html" target="_top" xlink:title="thrill/api/reduce_to\l_index.hpp">
<polygon fill="none" stroke="black" points="447,-137 447,-167 543,-167 543,-137 447,-137"/>
<text text-anchor="start" x="455" y="-155" font-family="Helvetica,sans-Serif" font-size="10.00">thrill/api/reduce_to</text>
<text text-anchor="middle" x="495" y="-144" font-family="Helvetica,sans-Serif" font-size="10.00">_index.hpp</text>
</a>
</g>
</g>
<!-- Node26&#45;&gt;Node27 -->
<g id="edge32" class="edge"><title>Node26&#45;&gt;Node27</title>
<path fill="none" stroke="midnightblue" d="M703.642,-205.359C656.453,-193.517 588.759,-176.529 543.406,-165.147"/>
<polygon fill="midnightblue" stroke="midnightblue" points="702.834,-208.765 713.386,-207.804 704.538,-201.975 702.834,-208.765"/>
</g>
<!-- Node27&#45;&gt;Node6 -->
<g id="edge33" class="edge"><title>Node27&#45;&gt;Node6</title>
<path fill="none" stroke="midnightblue" d="M495,-126.376C495,-114.971 495,-102.136 495,-93.8283"/>
<polygon fill="midnightblue" stroke="midnightblue" points="491.5,-126.679 495,-136.679 498.5,-126.679 491.5,-126.679"/>
</g>
<!-- Node27&#45;&gt;Node7 -->
<g id="edge34" class="edge"><title>Node27&#45;&gt;Node7</title>
<path fill="none" stroke="midnightblue" d="M527.209,-131.675C548.174,-119.095 574.508,-103.295 590.53,-93.6819"/>
<polygon fill="midnightblue" stroke="midnightblue" points="525.372,-128.695 518.598,-136.841 528.973,-134.698 525.372,-128.695"/>
</g>
<!-- Node27&#45;&gt;Node11 -->
<g id="edge35" class="edge"><title>Node27&#45;&gt;Node11</title>
<path fill="none" stroke="midnightblue" d="M436.886,-135.472C395.659,-124.456 340.772,-109.789 300.792,-99.1065"/>
<polygon fill="midnightblue" stroke="midnightblue" points="436.225,-138.918 446.79,-138.118 438.032,-132.155 436.225,-138.918"/>
</g>
<!-- Node28 -->
<g id="node28" class="node"><title>Node28</title>
<g id="a_node28"><a xlink:href="prefix__doubling_8cpp.html" target="_top" xlink:title="examples/suffix_sorting\l/prefix_doubling.cpp">
<polygon fill="none" stroke="black" points="320,-69 320,-99 440,-99 440,-69 320,-69"/>
<text text-anchor="start" x="328" y="-87" font-family="Helvetica,sans-Serif" font-size="10.00">examples/suffix_sorting</text>
<text text-anchor="middle" x="380" y="-76" font-family="Helvetica,sans-Serif" font-size="10.00">/prefix_doubling.cpp</text>
</a>
</g>
</g>
<!-- Node27&#45;&gt;Node28 -->
<g id="edge36" class="edge"><title>Node27&#45;&gt;Node28</title>
<path fill="none" stroke="midnightblue" d="M461.242,-131.626C443.105,-121.217 421.144,-108.613 404.63,-99.1352"/>
<polygon fill="midnightblue" stroke="midnightblue" points="459.914,-134.899 470.33,-136.841 463.399,-128.828 459.914,-134.899"/>
</g>
<!-- Node29&#45;&gt;Node27 -->
<g id="edge38" class="edge"><title>Node29&#45;&gt;Node27</title>
<path fill="none" stroke="midnightblue" d="M495,-194.532C495,-185.361 495,-175.245 495,-167.293"/>
<polygon fill="midnightblue" stroke="midnightblue" points="491.5,-194.679 495,-204.679 498.5,-194.679 491.5,-194.679"/>
</g>
<!-- Node30&#45;&gt;Node3 -->
<g id="edge40" class="edge"><title>Node30&#45;&gt;Node3</title>
<path fill="none" stroke="midnightblue" d="M735.592,-330.831C738.114,-321.581 740.91,-311.331 743.102,-303.293"/>
<polygon fill="midnightblue" stroke="midnightblue" points="732.16,-330.11 732.906,-340.679 738.914,-331.952 732.16,-330.11"/>
</g>
<!-- Node30&#45;&gt;Node4 -->
<g id="edge50" class="edge"><title>Node30&#45;&gt;Node4</title>
<path fill="none" stroke="midnightblue" d="M674.091,-348.229C622.325,-340.584 550.188,-326.232 533,-304 524.301,-292.748 525.726,-284.222 533,-272 543.445,-254.45 562.269,-242.565 580.343,-234.718"/>
<polygon fill="midnightblue" stroke="midnightblue" points="673.755,-351.717 684.15,-349.669 674.747,-344.787 673.755,-351.717"/>
</g>
<!-- Node30&#45;&gt;Node31 -->
<g id="edge41" class="edge"><title>Node30&#45;&gt;Node31</title>
<path fill="none" stroke="midnightblue" d="M774.652,-337.171C802.118,-326.445 836.583,-312.985 862.096,-303.022"/>
<polygon fill="midnightblue" stroke="midnightblue" points="773.296,-333.943 765.255,-340.841 775.843,-340.464 773.296,-333.943"/>
</g>
<!-- Node30&#45;&gt;Node32 -->
<g id="edge45" class="edge"><title>Node30&#45;&gt;Node32</title>
<path fill="none" stroke="midnightblue" d="M693.406,-336.055C673.696,-325.564 649.609,-312.743 631.557,-303.135"/>
<polygon fill="midnightblue" stroke="midnightblue" points="691.927,-339.232 702.399,-340.841 695.216,-333.053 691.927,-339.232"/>
</g>
<!-- Node31&#45;&gt;Node4 -->
<g id="edge42" class="edge"><title>Node31&#45;&gt;Node4</title>
<path fill="none" stroke="midnightblue" d="M830.359,-270.526C781.614,-258.655 717.077,-242.938 673.904,-232.423"/>
<polygon fill="midnightblue" stroke="midnightblue" points="829.652,-273.957 840.196,-272.922 831.308,-267.155 829.652,-273.957"/>
</g>
<!-- Node31&#45;&gt;Node15 -->
<g id="edge43" class="edge"><title>Node31&#45;&gt;Node15</title>
<path fill="none" stroke="midnightblue" d="M898,-262.532C898,-253.361 898,-243.245 898,-235.293"/>
<polygon fill="midnightblue" stroke="midnightblue" points="894.5,-262.679 898,-272.679 901.5,-262.679 894.5,-262.679"/>
</g>
<!-- Node31&#45;&gt;Node26 -->
<g id="edge44" class="edge"><title>Node31&#45;&gt;Node26</title>
<path fill="none" stroke="midnightblue" d="M858.716,-268.48C836.3,-257.913 808.641,-244.874 787.984,-235.135"/>
<polygon fill="midnightblue" stroke="midnightblue" points="857.429,-271.743 867.966,-272.841 860.414,-265.411 857.429,-271.743"/>
</g>
<!-- Node32&#45;&gt;Node4 -->
<g id="edge46" class="edge"><title>Node32&#45;&gt;Node4</title>
<path fill="none" stroke="midnightblue" d="M612.957,-263.129C616.066,-253.801 619.527,-243.418 622.236,-235.293"/>
<polygon fill="midnightblue" stroke="midnightblue" points="609.616,-262.085 609.774,-272.679 616.256,-264.299 609.616,-262.085"/>
</g>
<!-- Node32&#45;&gt;Node15 -->
<g id="edge47" class="edge"><title>Node32&#45;&gt;Node15</title>
<path fill="none" stroke="midnightblue" d="M677.314,-270.711C725.886,-259.77 789.239,-245.499 835.6,-235.056"/>
<polygon fill="midnightblue" stroke="midnightblue" points="676.483,-267.31 667.496,-272.922 678.021,-274.139 676.483,-267.31"/>
</g>
<!-- Node32&#45;&gt;Node26 -->
<g id="edge48" class="edge"><title>Node32&#45;&gt;Node26</title>
<path fill="none" stroke="midnightblue" d="M647.31,-268.749C672.012,-258.093 702.701,-244.855 725.495,-235.022"/>
<polygon fill="midnightblue" stroke="midnightblue" points="645.618,-265.667 637.822,-272.841 648.391,-272.094 645.618,-265.667"/>
</g>
<!-- Node32&#45;&gt;Node29 -->
<g id="edge49" class="edge"><title>Node32&#45;&gt;Node29</title>
<path fill="none" stroke="midnightblue" d="M572.71,-267.626C555.361,-257.217 534.355,-244.613 518.559,-235.135"/>
<polygon fill="midnightblue" stroke="midnightblue" points="571.027,-270.698 581.402,-272.841 574.628,-264.695 571.027,-270.698"/>
</g>
</g>
</svg>
