<?xml version="1.0" encoding="UTF-8" standalone="no"?>
<!DOCTYPE svg PUBLIC "-//W3C//DTD SVG 1.1//EN"
 "http://www.w3.org/Graphics/SVG/1.1/DTD/svg11.dtd">
<!-- Generated by graphviz version 2.26.3 (20100126.1600)
 -->
<!-- Title: thrill/vfs/hdfs3_file.hpp Pages: 1 -->
<svg width="2127pt" height="464pt"
 viewBox="0.00 0.00 2127.00 464.00" xmlns="http://www.w3.org/2000/svg" xmlns:xlink="http://www.w3.org/1999/xlink">
<g id="graph1" class="graph" transform="scale(1 1) rotate(0) translate(4 460)">
<title>thrill/vfs/hdfs3_file.hpp</title>
<!-- Node1 -->
<g id="node1" class="node"><title>Node1</title>
<polygon fill="#bfbfbf" stroke="black" points="62.5,-434.5 62.5,-455.5 177.5,-455.5 177.5,-434.5 62.5,-434.5"/>
<text text-anchor="middle" x="120" y="-442.5" font-family="Helvetica,sans-Serif" font-size="10.00">thrill/vfs/hdfs3_file.hpp</text>
</g>
<!-- Node2 -->
<g id="node3" class="node"><title>Node2</title>
<a xlink:href="file__io_8hpp.html" target="_top" xlink:title="thrill/vfs/file_io.hpp">
<polygon fill="none" stroke="black" points="192,-376.5 192,-397.5 290,-397.5 290,-376.5 192,-376.5"/>
<text text-anchor="middle" x="241" y="-384.5" font-family="Helvetica,sans-Serif" font-size="10.00">thrill/vfs/file_io.hpp</text>
</a>
</g>
<!-- Node1&#45;&gt;Node2 -->
<g id="edge2" class="edge"><title>Node1&#45;&gt;Node2</title>
<path fill="none" stroke="midnightblue" d="M141.912,-434.497C160.811,-425.438 188.331,-412.246 209.576,-402.063"/>
<polygon fill="midnightblue" stroke="midnightblue" points="211.337,-405.1 218.842,-397.621 208.311,-398.788 211.337,-405.1"/>
</g>
<!-- Node21 -->
<g id="node42" class="node"><title>Node21</title>
<polygon fill="none" stroke="#bfbfbf" points="333.5,-0.5 333.5,-21.5 374.5,-21.5 374.5,-0.5 333.5,-0.5"/>
<text text-anchor="middle" x="354" y="-8.5" font-family="Helvetica,sans-Serif" font-size="10.00">string</text>
</g>
<!-- Node1&#45;&gt;Node21 -->
<g id="edge144" class="edge"><title>Node1&#45;&gt;Node21</title>
<path fill="none" stroke="midnightblue" d="M97.1465,-434.456C62.3296,-416.634 0,-377.043 0,-322 0,-322 0,-322 0,-134 0,-79.9292 45.7869,-80.3993 95,-58 135.415,-39.6051 263.719,-22.0541 323.189,-14.6657"/>
<polygon fill="midnightblue" stroke="midnightblue" points="323.623,-18.1388 333.122,-13.4468 322.77,-11.1909 323.623,-18.1388"/>
</g>
<!-- Node3 -->
<g id="node5" class="node"><title>Node3</title>
<a xlink:href="math_8hpp.html" target="_top" xlink:title="thrill/common/math.hpp">
<polygon fill="none" stroke="black" points="1979.5,-58.5 1979.5,-79.5 2098.5,-79.5 2098.5,-58.5 1979.5,-58.5"/>
<text text-anchor="middle" x="2039" y="-66.5" font-family="Helvetica,sans-Serif" font-size="10.00">thrill/common/math.hpp</text>
</a>
</g>
<!-- Node2&#45;&gt;Node3 -->
<g id="edge4" class="edge"><title>Node2&#45;&gt;Node3</title>
<path fill="none" stroke="midnightblue" d="M290.205,-385.996C574.568,-379.881 1995,-344.931 1995,-257 1995,-257 1995,-257 1995,-199 1995,-158.163 2014.72,-113.739 2027.76,-88.8338"/>
<polygon fill="midnightblue" stroke="midnightblue" points="2031.01,-90.1719 2032.7,-79.7116 2024.86,-86.8392 2031.01,-90.1719"/>
</g>
<!-- Node9 -->
<g id="node17" class="node"><title>Node9</title>
<a xlink:href="porting_8hpp.html" target="_top" xlink:title="thrill/common/porting.hpp">
<polygon fill="none" stroke="black" points="318,-311.5 318,-332.5 444,-332.5 444,-311.5 318,-311.5"/>
<text text-anchor="middle" x="381" y="-319.5" font-family="Helvetica,sans-Serif" font-size="10.00">thrill/common/porting.hpp</text>
</a>
</g>
<!-- Node2&#45;&gt;Node9 -->
<g id="edge16" class="edge"><title>Node2&#45;&gt;Node9</title>
<path fill="none" stroke="midnightblue" d="M263.805,-376.412C286.991,-365.647 323.109,-348.878 349.121,-336.801"/>
<polygon fill="midnightblue" stroke="midnightblue" points="350.609,-339.969 358.205,-332.584 347.661,-333.62 350.609,-339.969"/>
</g>
<!-- Node2&#45;&gt;Node21 -->
<g id="edge140" class="edge"><title>Node2&#45;&gt;Node21</title>
<path fill="none" stroke="midnightblue" d="M191.891,-380.307C143.952,-372.777 75.5883,-359.06 57,-340 30.5781,-312.908 38,-294.843 38,-257 38,-257 38,-257 38,-134 38,-73.1518 244.047,-30.3709 323.377,-16.1548"/>
<polygon fill="midnightblue" stroke="midnightblue" points="324.025,-19.5947 333.266,-14.4136 322.811,-12.7008 324.025,-19.5947"/>
</g>
<!-- Node22 -->
<g id="node44" class="node"><title>Node22</title>
<polygon fill="none" stroke="#bfbfbf" points="1116,-0.5 1116,-21.5 1160,-21.5 1160,-0.5 1116,-0.5"/>
<text text-anchor="middle" x="1138" y="-8.5" font-family="Helvetica,sans-Serif" font-size="10.00">vector</text>
</g>
<!-- Node2&#45;&gt;Node22 -->
<g id="edge142" class="edge"><title>Node2&#45;&gt;Node22</title>
<path fill="none" stroke="midnightblue" d="M290.201,-384.243C464.474,-373.834 1042,-333.561 1042,-257 1042,-257 1042,-257 1042,-134 1042,-87.8482 1084.52,-48.647 1112.97,-27.5866"/>
<polygon fill="midnightblue" stroke="midnightblue" points="1115.18,-30.3076 1121.28,-21.6454 1111.11,-24.6125 1115.18,-30.3076"/>
</g>
<!-- Node40 -->
<g id="node104" class="node"><title>Node40</title>
<a xlink:href="system__exception_8hpp.html" target="_top" xlink:title="thrill/common/system\l_exception.hpp">
<polygon fill="none" stroke="black" points="186,-305 186,-339 296,-339 296,-305 186,-305"/>
<text text-anchor="start" x="194" y="-326" font-family="Helvetica,sans-Serif" font-size="10.00">thrill/common/system</text>
<text text-anchor="middle" x="241" y="-313" font-family="Helvetica,sans-Serif" font-size="10.00">_exception.hpp</text>
</a>
</g>
<!-- Node2&#45;&gt;Node40 -->
<g id="edge128" class="edge"><title>Node2&#45;&gt;Node40</title>
<path fill="none" stroke="midnightblue" d="M241,-376.267C241,-368.931 241,-358.857 241,-349.38"/>
<polygon fill="midnightblue" stroke="midnightblue" points="244.5,-349.11 241,-339.11 237.5,-349.11 244.5,-349.11"/>
</g>
<!-- Node44 -->
<g id="node113" class="node"><title>Node44</title>
<polygon fill="none" stroke="#bfbfbf" points="66,-311.5 66,-332.5 168,-332.5 168,-311.5 66,-311.5"/>
<text text-anchor="middle" x="117" y="-319.5" font-family="Helvetica,sans-Serif" font-size="10.00">tlx/counting_ptr.hpp</text>
</g>
<!-- Node2&#45;&gt;Node44 -->
<g id="edge138" class="edge"><title>Node2&#45;&gt;Node44</title>
<path fill="none" stroke="midnightblue" d="M220.801,-376.412C200.535,-365.788 169.115,-349.318 146.15,-337.28"/>
<polygon fill="midnightblue" stroke="midnightblue" points="147.672,-334.126 137.19,-332.584 144.422,-340.326 147.672,-334.126"/>
</g>
<!-- Node4 -->
<g id="node7" class="node"><title>Node4</title>
<polygon fill="none" stroke="#bfbfbf" points="1924,-0.5 1924,-21.5 1980,-21.5 1980,-0.5 1924,-0.5"/>
<text text-anchor="middle" x="1952" y="-8.5" font-family="Helvetica,sans-Serif" font-size="10.00">algorithm</text>
</g>
<!-- Node3&#45;&gt;Node4 -->
<g id="edge6" class="edge"><title>Node3&#45;&gt;Node4</title>
<path fill="none" stroke="midnightblue" d="M2023.04,-58.3619C2010.04,-49.6955 1991.47,-37.3126 1976.57,-27.3819"/>
<polygon fill="midnightblue" stroke="midnightblue" points="1978.12,-24.2055 1967.86,-21.5707 1974.24,-30.0299 1978.12,-24.2055"/>
</g>
<!-- Node5 -->
<g id="node9" class="node"><title>Node5</title>
<polygon fill="none" stroke="#bfbfbf" points="1829.5,-0.5 1829.5,-21.5 1878.5,-21.5 1878.5,-0.5 1829.5,-0.5"/>
<text text-anchor="middle" x="1854" y="-8.5" font-family="Helvetica,sans-Serif" font-size="10.00">cassert</text>
</g>
<!-- Node3&#45;&gt;Node5 -->
<g id="edge8" class="edge"><title>Node3&#45;&gt;Node5</title>
<path fill="none" stroke="midnightblue" d="M2005.5,-58.4966C1972.38,-48.1126 1921.93,-32.2983 1888.48,-21.8092"/>
<polygon fill="midnightblue" stroke="midnightblue" points="1889.27,-18.3888 1878.68,-18.7369 1887.17,-25.0682 1889.27,-18.3888"/>
</g>
<!-- Node6 -->
<g id="node11" class="node"><title>Node6</title>
<polygon fill="none" stroke="#bfbfbf" points="2075,-0.5 2075,-21.5 2119,-21.5 2119,-0.5 2075,-0.5"/>
<text text-anchor="middle" x="2097" y="-8.5" font-family="Helvetica,sans-Serif" font-size="10.00">cmath</text>
</g>
<!-- Node3&#45;&gt;Node6 -->
<g id="edge10" class="edge"><title>Node3&#45;&gt;Node6</title>
<path fill="none" stroke="midnightblue" d="M2049.64,-58.3619C2057.9,-50.1043 2069.53,-38.4725 2079.2,-28.8029"/>
<polygon fill="midnightblue" stroke="midnightblue" points="2081.83,-31.1166 2086.43,-21.5707 2076.88,-26.1669 2081.83,-31.1166"/>
</g>
<!-- Node7 -->
<g id="node13" class="node"><title>Node7</title>
<polygon fill="none" stroke="#bfbfbf" points="1684,-0.5 1684,-21.5 1724,-21.5 1724,-0.5 1684,-0.5"/>
<text text-anchor="middle" x="1704" y="-8.5" font-family="Helvetica,sans-Serif" font-size="10.00">limits</text>
</g>
<!-- Node3&#45;&gt;Node7 -->
<g id="edge12" class="edge"><title>Node3&#45;&gt;Node7</title>
<path fill="none" stroke="midnightblue" d="M1979.49,-58.6976C1907.6,-46.2509 1789.45,-25.7935 1734.22,-16.2316"/>
<polygon fill="midnightblue" stroke="midnightblue" points="1734.8,-12.781 1724.35,-14.5237 1733.61,-19.6784 1734.8,-12.781"/>
</g>
<!-- Node8 -->
<g id="node15" class="node"><title>Node8</title>
<polygon fill="none" stroke="#bfbfbf" points="2005,-0.5 2005,-21.5 2057,-21.5 2057,-0.5 2005,-0.5"/>
<text text-anchor="middle" x="2031" y="-8.5" font-family="Helvetica,sans-Serif" font-size="10.00">ostream</text>
</g>
<!-- Node3&#45;&gt;Node8 -->
<g id="edge14" class="edge"><title>Node3&#45;&gt;Node8</title>
<path fill="none" stroke="midnightblue" d="M2037.53,-58.3619C2036.51,-50.9219 2035.1,-40.7427 2033.86,-31.7276"/>
<polygon fill="midnightblue" stroke="midnightblue" points="2037.29,-30.9986 2032.46,-21.5707 2030.36,-31.9551 2037.29,-30.9986"/>
</g>
<!-- Node10 -->
<g id="node19" class="node"><title>Node10</title>
<a xlink:href="logger_8hpp.html" target="_top" xlink:title="thrill/common/logger.hpp">
<polygon fill="none" stroke="black" points="710.5,-246.5 710.5,-267.5 833.5,-267.5 833.5,-246.5 710.5,-246.5"/>
<text text-anchor="middle" x="772" y="-254.5" font-family="Helvetica,sans-Serif" font-size="10.00">thrill/common/logger.hpp</text>
</a>
</g>
<!-- Node9&#45;&gt;Node10 -->
<g id="edge18" class="edge"><title>Node9&#45;&gt;Node10</title>
<path fill="none" stroke="midnightblue" d="M444.255,-311.484C514.337,-299.834 627.101,-281.088 700.379,-268.906"/>
<polygon fill="midnightblue" stroke="midnightblue" points="701.157,-272.325 710.448,-267.232 700.009,-265.42 701.157,-272.325"/>
</g>
<!-- Node9&#45;&gt;Node21 -->
<g id="edge122" class="edge"><title>Node9&#45;&gt;Node21</title>
<path fill="none" stroke="midnightblue" d="M369.543,-311.49C359.107,-301.316 343.993,-284.977 335,-268 320.111,-239.892 316,-230.808 316,-199 316,-199 316,-199 316,-134 316,-96.0608 332.708,-54.3545 343.966,-30.5581"/>
<polygon fill="midnightblue" stroke="midnightblue" points="347.138,-32.0397 348.393,-21.5194 340.851,-28.9608 347.138,-32.0397"/>
</g>
<!-- Node38 -->
<g id="node100" class="node"><title>Node38</title>
<polygon fill="none" stroke="#bfbfbf" points="344,-246.5 344,-267.5 418,-267.5 418,-246.5 344,-246.5"/>
<text text-anchor="middle" x="381" y="-254.5" font-family="Helvetica,sans-Serif" font-size="10.00">system_error</text>
</g>
<!-- Node9&#45;&gt;Node38 -->
<g id="edge124" class="edge"><title>Node9&#45;&gt;Node38</title>
<path fill="none" stroke="midnightblue" d="M381,-311.267C381,-302.18 381,-288.892 381,-277.74"/>
<polygon fill="midnightblue" stroke="midnightblue" points="384.5,-277.534 381,-267.534 377.5,-277.534 384.5,-277.534"/>
</g>
<!-- Node39 -->
<g id="node102" class="node"><title>Node39</title>
<polygon fill="none" stroke="#bfbfbf" points="436,-246.5 436,-267.5 480,-267.5 480,-246.5 436,-246.5"/>
<text text-anchor="middle" x="458" y="-254.5" font-family="Helvetica,sans-Serif" font-size="10.00">thread</text>
</g>
<!-- Node9&#45;&gt;Node39 -->
<g id="edge126" class="edge"><title>Node9&#45;&gt;Node39</title>
<path fill="none" stroke="midnightblue" d="M393.715,-311.267C405.713,-301.139 423.893,-285.792 437.862,-274"/>
<polygon fill="midnightblue" stroke="midnightblue" points="440.138,-276.659 445.522,-267.534 435.623,-271.31 440.138,-276.659"/>
</g>
<!-- Node11 -->
<g id="node21" class="node"><title>Node11</title>
<a xlink:href="allocator_8hpp.html" target="_top" xlink:title="thrill/mem/allocator.hpp">
<polygon fill="none" stroke="black" points="1431,-188.5 1431,-209.5 1549,-209.5 1549,-188.5 1431,-188.5"/>
<text text-anchor="middle" x="1490" y="-196.5" font-family="Helvetica,sans-Serif" font-size="10.00">thrill/mem/allocator.hpp</text>
</a>
</g>
<!-- Node10&#45;&gt;Node11 -->
<g id="edge20" class="edge"><title>Node10&#45;&gt;Node11</title>
<path fill="none" stroke="midnightblue" d="M833.527,-252.03C966.647,-241.276 1280.66,-215.911 1420.6,-204.606"/>
<polygon fill="midnightblue" stroke="midnightblue" points="1421.09,-208.078 1430.77,-203.784 1420.52,-201.101 1421.09,-208.078"/>
</g>
<!-- Node20 -->
<g id="node40" class="node"><title>Node20</title>
<polygon fill="none" stroke="#bfbfbf" points="606,-0.5 606,-21.5 658,-21.5 658,-0.5 606,-0.5"/>
<text text-anchor="middle" x="632" y="-8.5" font-family="Helvetica,sans-Serif" font-size="10.00">sstream</text>
</g>
<!-- Node10&#45;&gt;Node20 -->
<g id="edge118" class="edge"><title>Node10&#45;&gt;Node20</title>
<path fill="none" stroke="midnightblue" d="M792.993,-246.364C806.285,-238.361 822.359,-226.028 830,-210 844.7,-179.167 810.545,-127.358 801,-116 764.586,-72.6693 705.55,-41.7907 667.769,-25.1758"/>
<polygon fill="midnightblue" stroke="midnightblue" points="668.751,-21.7888 658.181,-21.0646 665.993,-28.2223 668.751,-21.7888"/>
</g>
<!-- Node10&#45;&gt;Node21 -->
<g id="edge120" class="edge"><title>Node10&#45;&gt;Node21</title>
<path fill="none" stroke="midnightblue" d="M710.332,-249.166C609.806,-235.08 417.348,-202.187 373,-152 343.429,-118.536 346.15,-62.012 350.3,-31.6909"/>
<polygon fill="midnightblue" stroke="midnightblue" points="353.76,-32.2154 351.837,-21.7967 346.843,-31.1411 353.76,-32.2154"/>
</g>
<!-- Node32 -->
<g id="node79" class="node"><title>Node32</title>
<a xlink:href="pool_8hpp.html" target="_top" xlink:title="thrill/mem/pool.hpp">
<polygon fill="none" stroke="black" points="722.5,-188.5 722.5,-209.5 821.5,-209.5 821.5,-188.5 722.5,-188.5"/>
<text text-anchor="middle" x="772" y="-196.5" font-family="Helvetica,sans-Serif" font-size="10.00">thrill/mem/pool.hpp</text>
</a>
</g>
<!-- Node10&#45;&gt;Node32 -->
<g id="edge94" class="edge"><title>Node10&#45;&gt;Node32</title>
<path fill="none" stroke="midnightblue" d="M772,-246.362C772,-238.922 772,-228.743 772,-219.728"/>
<polygon fill="midnightblue" stroke="midnightblue" points="775.5,-219.571 772,-209.571 768.5,-219.571 775.5,-219.571"/>
</g>
<!-- Node11&#45;&gt;Node5 -->
<g id="edge78" class="edge"><title>Node11&#45;&gt;Node5</title>
<path fill="none" stroke="midnightblue" d="M1549.03,-190.802C1651.62,-175.163 1855.65,-137.432 1895,-80 1906.67,-62.968 1891.1,-42.5367 1875.91,-28.347"/>
<polygon fill="midnightblue" stroke="midnightblue" points="1877.97,-25.5037 1868.14,-21.5467 1873.36,-30.7689 1877.97,-25.5037"/>
</g>
<!-- Node12 -->
<g id="node23" class="node"><title>Node12</title>
<a xlink:href="allocator__base_8hpp.html" target="_top" xlink:title="thrill/mem/allocator\l_base.hpp">
<polygon fill="none" stroke="black" points="1440.5,-117 1440.5,-151 1539.5,-151 1539.5,-117 1440.5,-117"/>
<text text-anchor="start" x="1448.5" y="-138" font-family="Helvetica,sans-Serif" font-size="10.00">thrill/mem/allocator</text>
<text text-anchor="middle" x="1490" y="-125" font-family="Helvetica,sans-Serif" font-size="10.00">_base.hpp</text>
</a>
</g>
<!-- Node11&#45;&gt;Node12 -->
<g id="edge22" class="edge"><title>Node11&#45;&gt;Node12</title>
<path fill="none" stroke="midnightblue" d="M1490,-188.267C1490,-180.931 1490,-170.857 1490,-161.38"/>
<polygon fill="midnightblue" stroke="midnightblue" points="1493.5,-161.11 1490,-151.11 1486.5,-161.11 1493.5,-161.11"/>
</g>
<!-- Node11&#45;&gt;Node21 -->
<g id="edge88" class="edge"><title>Node11&#45;&gt;Node21</title>
<path fill="none" stroke="midnightblue" d="M1430.81,-192.615C1361.53,-184.765 1243.49,-170.217 1143,-152 1072.13,-139.154 1055.68,-129.848 985,-116 888.201,-97.0345 863.309,-96.1464 766,-80 623.384,-56.3358 453.068,-27.6891 384.658,-16.1669"/>
<polygon fill="midnightblue" stroke="midnightblue" points="385.016,-12.678 374.574,-14.4681 383.853,-19.5807 385.016,-12.678"/>
</g>
<!-- Node11&#45;&gt;Node22 -->
<g id="edge92" class="edge"><title>Node11&#45;&gt;Node22</title>
<path fill="none" stroke="midnightblue" d="M1430.87,-190.244C1330.95,-174.042 1135.92,-135.866 1099,-80 1087.76,-62.9906 1102.59,-42.5558 1117.09,-28.3591"/>
<polygon fill="midnightblue" stroke="midnightblue" points="1119.5,-30.8972 1124.5,-21.5549 1114.76,-25.7419 1119.5,-30.8972"/>
</g>
<!-- Node24 -->
<g id="node49" class="node"><title>Node24</title>
<a xlink:href="mem_2manager_8hpp.html" target="_top" xlink:title="thrill/mem/manager.hpp">
<polygon fill="none" stroke="black" points="1767.5,-58.5 1767.5,-79.5 1886.5,-79.5 1886.5,-58.5 1767.5,-58.5"/>
<text text-anchor="middle" x="1827" y="-66.5" font-family="Helvetica,sans-Serif" font-size="10.00">thrill/mem/manager.hpp</text>
</a>
</g>
<!-- Node11&#45;&gt;Node24 -->
<g id="edge76" class="edge"><title>Node11&#45;&gt;Node24</title>
<path fill="none" stroke="midnightblue" d="M1534.8,-188.465C1568.37,-180.036 1615.19,-167.146 1655,-152 1707.18,-132.148 1765.13,-102.504 1798.68,-84.5371"/>
<polygon fill="midnightblue" stroke="midnightblue" points="1800.74,-87.4057 1807.88,-79.5784 1797.41,-81.2445 1800.74,-87.4057"/>
</g>
<!-- Node27 -->
<g id="node59" class="node"><title>Node27</title>
<polygon fill="none" stroke="#bfbfbf" points="1593.5,-58.5 1593.5,-79.5 1636.5,-79.5 1636.5,-58.5 1593.5,-58.5"/>
<text text-anchor="middle" x="1615" y="-66.5" font-family="Helvetica,sans-Serif" font-size="10.00">deque</text>
</g>
<!-- Node11&#45;&gt;Node27 -->
<g id="edge80" class="edge"><title>Node11&#45;&gt;Node27</title>
<path fill="none" stroke="midnightblue" d="M1505.02,-188.212C1517.18,-179.164 1534.45,-165.576 1548,-152 1568.39,-131.575 1588.78,-105.26 1601.62,-87.7953"/>
<polygon fill="midnightblue" stroke="midnightblue" points="1604.56,-89.6964 1607.6,-79.547 1598.9,-85.5856 1604.56,-89.6964"/>
</g>
<!-- Node28 -->
<g id="node61" class="node"><title>Node28</title>
<polygon fill="none" stroke="#bfbfbf" points="1653.5,-58.5 1653.5,-79.5 1698.5,-79.5 1698.5,-58.5 1653.5,-58.5"/>
<text text-anchor="middle" x="1676" y="-66.5" font-family="Helvetica,sans-Serif" font-size="10.00">iosfwd</text>
</g>
<!-- Node11&#45;&gt;Node28 -->
<g id="edge82" class="edge"><title>Node11&#45;&gt;Node28</title>
<path fill="none" stroke="midnightblue" d="M1512.53,-188.404C1530.54,-179.569 1556.12,-166.177 1577,-152 1606.87,-131.715 1638.33,-104.116 1657.56,-86.4262"/>
<polygon fill="midnightblue" stroke="midnightblue" points="1660.07,-88.8723 1665.01,-79.5017 1655.31,-83.7439 1660.07,-88.8723"/>
</g>
<!-- Node29 -->
<g id="node63" class="node"><title>Node29</title>
<polygon fill="none" stroke="#bfbfbf" points="1715.5,-58.5 1715.5,-79.5 1750.5,-79.5 1750.5,-58.5 1715.5,-58.5"/>
<text text-anchor="middle" x="1733" y="-66.5" font-family="Helvetica,sans-Serif" font-size="10.00">new</text>
</g>
<!-- Node11&#45;&gt;Node29 -->
<g id="edge86" class="edge"><title>Node11&#45;&gt;Node29</title>
<path fill="none" stroke="midnightblue" d="M1524.1,-188.433C1549.34,-180.031 1584.18,-167.188 1613,-152 1649.76,-132.625 1688.68,-104 1711.9,-85.9348"/>
<polygon fill="midnightblue" stroke="midnightblue" points="1714.3,-88.5028 1720,-79.5696 1709.97,-83.0007 1714.3,-88.5028"/>
</g>
<!-- Node30 -->
<g id="node66" class="node"><title>Node30</title>
<polygon fill="none" stroke="#bfbfbf" points="1108,-58.5 1108,-79.5 1170,-79.5 1170,-58.5 1108,-58.5"/>
<text text-anchor="middle" x="1139" y="-66.5" font-family="Helvetica,sans-Serif" font-size="10.00">type_traits</text>
</g>
<!-- Node11&#45;&gt;Node30 -->
<g id="edge90" class="edge"><title>Node11&#45;&gt;Node30</title>
<path fill="none" stroke="midnightblue" d="M1461.57,-188.472C1398.76,-165.206 1248.09,-109.403 1177.15,-83.1313"/>
<polygon fill="midnightblue" stroke="midnightblue" points="1178.28,-79.8177 1167.69,-79.6266 1175.85,-86.3819 1178.28,-79.8177"/>
</g>
<!-- Node31 -->
<g id="node73" class="node"><title>Node31</title>
<polygon fill="none" stroke="#bfbfbf" points="924,-123.5 924,-144.5 976,-144.5 976,-123.5 924,-123.5"/>
<text text-anchor="middle" x="950" y="-131.5" font-family="Helvetica,sans-Serif" font-size="10.00">memory</text>
</g>
<!-- Node11&#45;&gt;Node31 -->
<g id="edge84" class="edge"><title>Node11&#45;&gt;Node31</title>
<path fill="none" stroke="midnightblue" d="M1430.61,-195.866C1316.75,-189.455 1071.77,-173.602 990,-152 986.583,-151.097 983.091,-149.93 979.663,-148.625"/>
<polygon fill="midnightblue" stroke="midnightblue" points="980.861,-145.332 970.286,-144.682 978.147,-151.785 980.861,-145.332"/>
</g>
<!-- Node12&#45;&gt;Node5 -->
<g id="edge62" class="edge"><title>Node12&#45;&gt;Node5</title>
<path fill="none" stroke="midnightblue" d="M1509.02,-116.885C1531.68,-96.842 1568.54,-65.4272 1585,-58 1626.36,-39.3376 1756.27,-22.3055 1819.18,-14.9004"/>
<polygon fill="midnightblue" stroke="midnightblue" points="1819.87,-18.3444 1829.4,-13.7135 1819.06,-11.3912 1819.87,-18.3444"/>
</g>
<!-- Node13 -->
<g id="node25" class="node"><title>Node13</title>
<a xlink:href="string_8hpp.html" target="_top" xlink:title="thrill/common/string.hpp">
<polygon fill="none" stroke="black" points="855.5,-58.5 855.5,-79.5 976.5,-79.5 976.5,-58.5 855.5,-58.5"/>
<text text-anchor="middle" x="916" y="-66.5" font-family="Helvetica,sans-Serif" font-size="10.00">thrill/common/string.hpp</text>
</a>
</g>
<!-- Node12&#45;&gt;Node13 -->
<g id="edge24" class="edge"><title>Node12&#45;&gt;Node13</title>
<path fill="none" stroke="midnightblue" d="M1440.07,-128.345C1337.9,-116.776 1104.72,-90.3704 986.91,-77.0298"/>
<polygon fill="midnightblue" stroke="midnightblue" points="987.239,-73.5449 976.909,-75.8974 986.452,-80.5004 987.239,-73.5449"/>
</g>
<!-- Node12&#45;&gt;Node21 -->
<g id="edge70" class="edge"><title>Node12&#45;&gt;Node21</title>
<path fill="none" stroke="midnightblue" d="M1440.4,-132.894C1331.97,-129.809 1065.99,-118.606 847,-80 810.262,-73.5235 802.637,-65.0231 766,-58 625.061,-30.9827 453.81,-17.5434 384.905,-12.9177"/>
<polygon fill="midnightblue" stroke="midnightblue" points="384.953,-9.41339 374.745,-12.2502 384.494,-16.3983 384.953,-9.41339"/>
</g>
<!-- Node12&#45;&gt;Node22 -->
<g id="edge74" class="edge"><title>Node12&#45;&gt;Node22</title>
<path fill="none" stroke="midnightblue" d="M1490.82,-116.748C1490.63,-99.2608 1487.37,-72.7425 1471,-58 1448.83,-38.0383 1249.8,-19.9921 1170.45,-13.5268"/>
<polygon fill="midnightblue" stroke="midnightblue" points="1170.32,-10.0057 1160.07,-12.6924 1169.76,-16.9831 1170.32,-10.0057"/>
</g>
<!-- Node23 -->
<g id="node46" class="node"><title>Node23</title>
<a xlink:href="malloc__tracker_8hpp.html" target="_top" xlink:title="thrill/mem/malloc_tracker.hpp">
<polygon fill="none" stroke="black" points="1187.5,-58.5 1187.5,-79.5 1332.5,-79.5 1332.5,-58.5 1187.5,-58.5"/>
<text text-anchor="middle" x="1260" y="-66.5" font-family="Helvetica,sans-Serif" font-size="10.00">thrill/mem/malloc_tracker.hpp</text>
</a>
</g>
<!-- Node12&#45;&gt;Node23 -->
<g id="edge46" class="edge"><title>Node12&#45;&gt;Node23</title>
<path fill="none" stroke="midnightblue" d="M1440.38,-119.976C1400.98,-108.842 1346.25,-93.3752 1307.44,-82.4056"/>
<polygon fill="midnightblue" stroke="midnightblue" points="1308.01,-78.9304 1297.43,-79.5788 1306.1,-85.6666 1308.01,-78.9304"/>
</g>
<!-- Node12&#45;&gt;Node24 -->
<g id="edge50" class="edge"><title>Node12&#45;&gt;Node24</title>
<path fill="none" stroke="midnightblue" d="M1539.73,-124.409C1598.73,-113.029 1697.26,-94.0233 1762.19,-81.5"/>
<polygon fill="midnightblue" stroke="midnightblue" points="1763.16,-84.8785 1772.31,-79.5478 1761.83,-78.0051 1763.16,-84.8785"/>
</g>
<!-- Node25 -->
<g id="node52" class="node"><title>Node25</title>
<polygon fill="none" stroke="#bfbfbf" points="1562,-0.5 1562,-21.5 1608,-21.5 1608,-0.5 1562,-0.5"/>
<text text-anchor="middle" x="1585" y="-8.5" font-family="Helvetica,sans-Serif" font-size="10.00">atomic</text>
</g>
<!-- Node12&#45;&gt;Node25 -->
<g id="edge60" class="edge"><title>Node12&#45;&gt;Node25</title>
<path fill="none" stroke="midnightblue" d="M1503.21,-116.897C1520.84,-94.0698 1551.97,-53.7681 1570.32,-30.0114"/>
<polygon fill="midnightblue" stroke="midnightblue" points="1573.33,-31.8412 1576.67,-21.7875 1567.79,-27.5623 1573.33,-31.8412"/>
</g>
<!-- Node26 -->
<g id="node55" class="node"><title>Node26</title>
<polygon fill="none" stroke="#bfbfbf" points="1350,-58.5 1350,-79.5 1462,-79.5 1462,-58.5 1350,-58.5"/>
<text text-anchor="middle" x="1406" y="-66.5" font-family="Helvetica,sans-Serif" font-size="10.00">tlx/allocator_base.hpp</text>
</g>
<!-- Node12&#45;&gt;Node26 -->
<g id="edge58" class="edge"><title>Node12&#45;&gt;Node26</title>
<path fill="none" stroke="midnightblue" d="M1467.93,-116.922C1455.61,-107.387 1440.31,-95.5461 1428,-86.0203"/>
<polygon fill="midnightblue" stroke="midnightblue" points="1430.07,-83.2039 1420.02,-79.8521 1425.79,-88.74 1430.07,-83.2039"/>
</g>
<!-- Node12&#45;&gt;Node27 -->
<g id="edge64" class="edge"><title>Node12&#45;&gt;Node27</title>
<path fill="none" stroke="midnightblue" d="M1522.84,-116.922C1542.27,-106.818 1566.68,-94.1257 1585.5,-84.3418"/>
<polygon fill="midnightblue" stroke="midnightblue" points="1587.25,-87.3772 1594.5,-79.6584 1584.02,-81.1667 1587.25,-87.3772"/>
</g>
<!-- Node12&#45;&gt;Node28 -->
<g id="edge66" class="edge"><title>Node12&#45;&gt;Node28</title>
<path fill="none" stroke="midnightblue" d="M1539.24,-116.927C1567.46,-107.124 1603.77,-94.4759 1643.66,-80.4614"/>
<polygon fill="midnightblue" stroke="midnightblue" points="1645.05,-83.6841 1653.32,-77.0652 1642.72,-77.0804 1645.05,-83.6841"/>
</g>
<!-- Node12&#45;&gt;Node29 -->
<g id="edge68" class="edge"><title>Node12&#45;&gt;Node29</title>
<path fill="none" stroke="midnightblue" d="M1539.75,-123.94C1581.89,-114.901 1643.96,-100.372 1705.39,-80.2282"/>
<polygon fill="midnightblue" stroke="midnightblue" points="1706.86,-83.428 1715.24,-76.9471 1704.64,-76.7868 1706.86,-83.428"/>
</g>
<!-- Node12&#45;&gt;Node30 -->
<g id="edge72" class="edge"><title>Node12&#45;&gt;Node30</title>
<path fill="none" stroke="midnightblue" d="M1440.42,-126.902C1380.85,-118.037 1277.72,-101.629 1180.38,-80.164"/>
<polygon fill="midnightblue" stroke="midnightblue" points="1180.89,-76.6931 1170.37,-77.9347 1179.37,-83.5256 1180.89,-76.6931"/>
</g>
<!-- Node13&#45;&gt;Node7 -->
<g id="edge36" class="edge"><title>Node13&#45;&gt;Node7</title>
<path fill="none" stroke="midnightblue" d="M976.767,-65.3872C1123.37,-56.5968 1493.47,-33.9404 1617,-22 1635.89,-20.1737 1657.02,-17.5169 1673.73,-15.2719"/>
<polygon fill="midnightblue" stroke="midnightblue" points="1674.56,-18.6904 1684,-13.8689 1673.61,-11.7548 1674.56,-18.6904"/>
</g>
<!-- Node14 -->
<g id="node27" class="node"><title>Node14</title>
<polygon fill="none" stroke="#bfbfbf" points="675.5,-0.5 675.5,-21.5 750.5,-21.5 750.5,-0.5 675.5,-0.5"/>
<text text-anchor="middle" x="713" y="-8.5" font-family="Helvetica,sans-Serif" font-size="10.00">tlx/define.hpp</text>
</g>
<!-- Node13&#45;&gt;Node14 -->
<g id="edge26" class="edge"><title>Node13&#45;&gt;Node14</title>
<path fill="none" stroke="midnightblue" d="M879.238,-58.4966C845.714,-48.9183 796.018,-34.7196 759.696,-24.3418"/>
<polygon fill="midnightblue" stroke="midnightblue" points="760.408,-20.905 749.831,-21.5231 758.484,-27.6357 760.408,-20.905"/>
</g>
<!-- Node15 -->
<g id="node29" class="node"><title>Node15</title>
<polygon fill="none" stroke="#bfbfbf" points="768,-0.5 768,-21.5 848,-21.5 848,-0.5 768,-0.5"/>
<text text-anchor="middle" x="808" y="-8.5" font-family="Helvetica,sans-Serif" font-size="10.00">tlx/unused.hpp</text>
</g>
<!-- Node13&#45;&gt;Node15 -->
<g id="edge28" class="edge"><title>Node13&#45;&gt;Node15</title>
<path fill="none" stroke="midnightblue" d="M896.442,-58.4966C879.802,-49.5602 855.673,-36.602 836.82,-26.4772"/>
<polygon fill="midnightblue" stroke="midnightblue" points="838.243,-23.2691 827.777,-21.6212 834.931,-29.436 838.243,-23.2691"/>
</g>
<!-- Node16 -->
<g id="node31" class="node"><title>Node16</title>
<polygon fill="none" stroke="#bfbfbf" points="866,-0.5 866,-21.5 904,-21.5 904,-0.5 866,-0.5"/>
<text text-anchor="middle" x="885" y="-8.5" font-family="Helvetica,sans-Serif" font-size="10.00">array</text>
</g>
<!-- Node13&#45;&gt;Node16 -->
<g id="edge30" class="edge"><title>Node13&#45;&gt;Node16</title>
<path fill="none" stroke="midnightblue" d="M910.314,-58.3619C906.163,-50.5949 900.416,-39.8426 895.447,-30.5458"/>
<polygon fill="midnightblue" stroke="midnightblue" points="898.45,-28.7401 890.65,-21.5707 892.277,-32.0398 898.45,-28.7401"/>
</g>
<!-- Node17 -->
<g id="node33" class="node"><title>Node17</title>
<polygon fill="none" stroke="#bfbfbf" points="921.5,-0.5 921.5,-21.5 970.5,-21.5 970.5,-0.5 921.5,-0.5"/>
<text text-anchor="middle" x="946" y="-8.5" font-family="Helvetica,sans-Serif" font-size="10.00">cstdarg</text>
</g>
<!-- Node13&#45;&gt;Node17 -->
<g id="edge32" class="edge"><title>Node13&#45;&gt;Node17</title>
<path fill="none" stroke="midnightblue" d="M921.502,-58.3619C925.52,-50.5949 931.081,-39.8426 935.89,-30.5458"/>
<polygon fill="midnightblue" stroke="midnightblue" points="939.047,-32.0608 940.532,-21.5707 932.829,-28.8448 939.047,-32.0608"/>
</g>
<!-- Node18 -->
<g id="node35" class="node"><title>Node18</title>
<polygon fill="none" stroke="#bfbfbf" points="1053.5,-0.5 1053.5,-21.5 1098.5,-21.5 1098.5,-0.5 1053.5,-0.5"/>
<text text-anchor="middle" x="1076" y="-8.5" font-family="Helvetica,sans-Serif" font-size="10.00">cstdlib</text>
</g>
<!-- Node13&#45;&gt;Node18 -->
<g id="edge34" class="edge"><title>Node13&#45;&gt;Node18</title>
<path fill="none" stroke="midnightblue" d="M944.975,-58.4966C972.847,-48.3929 1014.9,-33.1481 1043.81,-22.67"/>
<polygon fill="midnightblue" stroke="midnightblue" points="1045.23,-25.8774 1053.44,-19.1788 1042.84,-19.2964 1045.23,-25.8774"/>
</g>
<!-- Node19 -->
<g id="node38" class="node"><title>Node19</title>
<polygon fill="none" stroke="#bfbfbf" points="987.5,-0.5 987.5,-21.5 1036.5,-21.5 1036.5,-0.5 987.5,-0.5"/>
<text text-anchor="middle" x="1012" y="-8.5" font-family="Helvetica,sans-Serif" font-size="10.00">random</text>
</g>
<!-- Node13&#45;&gt;Node19 -->
<g id="edge38" class="edge"><title>Node13&#45;&gt;Node19</title>
<path fill="none" stroke="midnightblue" d="M933.608,-58.3619C948.223,-49.532 969.224,-36.844 985.811,-26.8224"/>
<polygon fill="midnightblue" stroke="midnightblue" points="987.754,-29.7376 994.504,-21.5707 984.135,-23.7461 987.754,-29.7376"/>
</g>
<!-- Node13&#45;&gt;Node20 -->
<g id="edge40" class="edge"><title>Node13&#45;&gt;Node20</title>
<path fill="none" stroke="midnightblue" d="M855.442,-59.6238C807.028,-51.6602 737.296,-39.1472 668.045,-22.0651"/>
<polygon fill="midnightblue" stroke="midnightblue" points="668.829,-18.6535 658.279,-19.6244 667.132,-25.4446 668.829,-18.6535"/>
</g>
<!-- Node13&#45;&gt;Node21 -->
<g id="edge42" class="edge"><title>Node13&#45;&gt;Node21</title>
<path fill="none" stroke="midnightblue" d="M855.458,-59.7409C850.908,-59.1245 846.383,-58.5365 842,-58 669.73,-36.9146 462.284,-19.6002 384.995,-13.427"/>
<polygon fill="midnightblue" stroke="midnightblue" points="385.216,-9.93358 374.97,-12.6306 384.661,-16.9116 385.216,-9.93358"/>
</g>
<!-- Node13&#45;&gt;Node22 -->
<g id="edge44" class="edge"><title>Node13&#45;&gt;Node22</title>
<path fill="none" stroke="midnightblue" d="M964.637,-58.4409C1001.25,-50.1727 1052.83,-37.8537 1106.12,-22.0779"/>
<polygon fill="midnightblue" stroke="midnightblue" points="1107.16,-25.4204 1115.74,-19.199 1105.15,-18.7145 1107.16,-25.4204"/>
</g>
<!-- Node23&#45;&gt;Node18 -->
<g id="edge48" class="edge"><title>Node23&#45;&gt;Node18</title>
<path fill="none" stroke="midnightblue" d="M1224,-58.4173C1194.97,-49.7778 1152.89,-37.0158 1108.22,-22.326"/>
<polygon fill="midnightblue" stroke="midnightblue" points="1109.24,-18.9786 1098.65,-19.1628 1107.04,-25.6248 1109.24,-18.9786"/>
</g>
<!-- Node24&#45;&gt;Node4 -->
<g id="edge52" class="edge"><title>Node24&#45;&gt;Node4</title>
<path fill="none" stroke="midnightblue" d="M1849.64,-58.4966C1869.25,-49.397 1897.85,-36.1273 1919.83,-25.9253"/>
<polygon fill="midnightblue" stroke="midnightblue" points="1921.51,-29.0051 1929.11,-21.6212 1918.57,-22.6554 1921.51,-29.0051"/>
</g>
<!-- Node24&#45;&gt;Node5 -->
<g id="edge56" class="edge"><title>Node24&#45;&gt;Node5</title>
<path fill="none" stroke="midnightblue" d="M1831.95,-58.3619C1835.53,-50.6766 1840.47,-40.0686 1844.76,-30.8399"/>
<polygon fill="midnightblue" stroke="midnightblue" points="1848.03,-32.1136 1849.08,-21.5707 1841.69,-29.1594 1848.03,-32.1136"/>
</g>
<!-- Node24&#45;&gt;Node25 -->
<g id="edge54" class="edge"><title>Node24&#45;&gt;Node25</title>
<path fill="none" stroke="midnightblue" d="M1783.18,-58.4966C1735.61,-47.0969 1660.74,-29.1527 1617.94,-18.8943"/>
<polygon fill="midnightblue" stroke="midnightblue" points="1618.58,-15.4486 1608.04,-16.5215 1616.95,-22.2559 1618.58,-15.4486"/>
</g>
<!-- Node32&#45;&gt;Node4 -->
<g id="edge100" class="edge"><title>Node32&#45;&gt;Node4</title>
<path fill="none" stroke="midnightblue" d="M821.717,-198.467C945.168,-196.607 1275.41,-188.342 1548,-152 1704.13,-131.185 1760.11,-161.313 1895,-80 1914.95,-67.9765 1931.08,-46.378 1941.02,-30.539"/>
<polygon fill="midnightblue" stroke="midnightblue" points="1944.26,-31.937 1946.39,-21.5583 1938.25,-28.344 1944.26,-31.937"/>
</g>
<!-- Node32&#45;&gt;Node12 -->
<g id="edge98" class="edge"><title>Node32&#45;&gt;Node12</title>
<path fill="none" stroke="midnightblue" d="M821.634,-194.507C949.84,-182.9 1291.69,-151.953 1430.34,-139.401"/>
<polygon fill="midnightblue" stroke="midnightblue" points="1430.71,-142.882 1440.36,-138.494 1430.08,-135.91 1430.71,-142.882"/>
</g>
<!-- Node32&#45;&gt;Node21 -->
<g id="edge110" class="edge"><title>Node32&#45;&gt;Node21</title>
<path fill="none" stroke="midnightblue" d="M766.288,-188.368C756.25,-170.692 733.753,-135.3 705,-116 601.16,-46.2976 449.768,-21.7251 385.128,-14.0763"/>
<polygon fill="midnightblue" stroke="midnightblue" points="385.136,-10.555 374.807,-12.9132 384.352,-17.511 385.136,-10.555"/>
</g>
<!-- Node32&#45;&gt;Node22 -->
<g id="edge116" class="edge"><title>Node32&#45;&gt;Node22</title>
<path fill="none" stroke="midnightblue" d="M777.999,-188.232C788.533,-170.355 812.104,-134.676 842,-116 897.584,-81.2761 923.657,-103.073 985,-80 1005.09,-72.4424 1008.56,-67.1117 1028,-58 1054.21,-45.7146 1084.48,-32.8752 1106.63,-23.7265"/>
<polygon fill="midnightblue" stroke="midnightblue" points="1107.97,-26.9601 1115.89,-19.9212 1105.31,-20.4857 1107.97,-26.9601"/>
</g>
<!-- Node32&#45;&gt;Node30 -->
<g id="edge112" class="edge"><title>Node32&#45;&gt;Node30</title>
<path fill="none" stroke="midnightblue" d="M786.643,-188.352C811.681,-170.653 864.883,-135.229 915,-116 976.264,-92.4943 1051.7,-79.7569 1097.53,-73.6762"/>
<polygon fill="midnightblue" stroke="midnightblue" points="1098.2,-77.1182 1107.68,-72.3745 1097.31,-70.175 1098.2,-77.1182"/>
</g>
<!-- Node32&#45;&gt;Node31 -->
<g id="edge106" class="edge"><title>Node32&#45;&gt;Node31</title>
<path fill="none" stroke="midnightblue" d="M805.785,-188.481C833.924,-179.485 874.917,-165.832 910,-152 912.657,-150.953 915.393,-149.826 918.13,-148.665"/>
<polygon fill="midnightblue" stroke="midnightblue" points="919.549,-151.865 927.314,-144.657 916.749,-145.449 919.549,-151.865"/>
</g>
<!-- Node33 -->
<g id="node81" class="node"><title>Node33</title>
<a xlink:href="config_8hpp.html" target="_top" xlink:title="thrill/common/config.hpp">
<polygon fill="none" stroke="black" points="381.5,-123.5 381.5,-144.5 504.5,-144.5 504.5,-123.5 381.5,-123.5"/>
<text text-anchor="middle" x="443" y="-131.5" font-family="Helvetica,sans-Serif" font-size="10.00">thrill/common/config.hpp</text>
</a>
</g>
<!-- Node32&#45;&gt;Node33 -->
<g id="edge96" class="edge"><title>Node32&#45;&gt;Node33</title>
<path fill="none" stroke="midnightblue" d="M722.136,-191.049C669.827,-182.453 585.319,-167.838 513,-152 506.247,-150.521 499.158,-148.845 492.191,-147.125"/>
<polygon fill="midnightblue" stroke="midnightblue" points="492.676,-143.638 482.125,-144.592 490.968,-150.426 492.676,-143.638"/>
</g>
<!-- Node34 -->
<g id="node85" class="node"><title>Node34</title>
<polygon fill="none" stroke="#bfbfbf" points="521.5,-123.5 521.5,-144.5 570.5,-144.5 570.5,-123.5 521.5,-123.5"/>
<text text-anchor="middle" x="546" y="-131.5" font-family="Helvetica,sans-Serif" font-size="10.00">cstddef</text>
</g>
<!-- Node32&#45;&gt;Node34 -->
<g id="edge102" class="edge"><title>Node32&#45;&gt;Node34</title>
<path fill="none" stroke="midnightblue" d="M722.138,-190.564C682.514,-182.985 626.12,-170.228 579,-152 576.874,-151.177 574.713,-150.244 572.567,-149.246"/>
<polygon fill="midnightblue" stroke="midnightblue" points="573.906,-146 563.405,-144.592 570.736,-152.241 573.906,-146"/>
</g>
<!-- Node35 -->
<g id="node87" class="node"><title>Node35</title>
<polygon fill="none" stroke="#bfbfbf" points="588,-123.5 588,-144.5 634,-144.5 634,-123.5 588,-123.5"/>
<text text-anchor="middle" x="611" y="-131.5" font-family="Helvetica,sans-Serif" font-size="10.00">cstdint</text>
</g>
<!-- Node32&#45;&gt;Node35 -->
<g id="edge104" class="edge"><title>Node32&#45;&gt;Node35</title>
<path fill="none" stroke="midnightblue" d="M738.53,-188.475C712.131,-179.779 674.62,-166.536 643,-152 641.219,-151.181 639.404,-150.3 637.59,-149.382"/>
<polygon fill="midnightblue" stroke="midnightblue" points="639.141,-146.243 628.672,-144.617 635.842,-152.417 639.141,-146.243"/>
</g>
<!-- Node36 -->
<g id="node90" class="node"><title>Node36</title>
<polygon fill="none" stroke="#bfbfbf" points="652,-123.5 652,-144.5 696,-144.5 696,-123.5 652,-123.5"/>
<text text-anchor="middle" x="674" y="-131.5" font-family="Helvetica,sans-Serif" font-size="10.00">mutex</text>
</g>
<!-- Node32&#45;&gt;Node36 -->
<g id="edge108" class="edge"><title>Node32&#45;&gt;Node36</title>
<path fill="none" stroke="midnightblue" d="M755.817,-188.267C740.262,-177.949 716.541,-162.216 698.639,-150.342"/>
<polygon fill="midnightblue" stroke="midnightblue" points="700.15,-147.144 689.882,-144.534 696.281,-152.978 700.15,-147.144"/>
</g>
<!-- Node37 -->
<g id="node94" class="node"><title>Node37</title>
<polygon fill="none" stroke="#bfbfbf" points="752,-123.5 752,-144.5 792,-144.5 792,-123.5 752,-123.5"/>
<text text-anchor="middle" x="772" y="-131.5" font-family="Helvetica,sans-Serif" font-size="10.00">utility</text>
</g>
<!-- Node32&#45;&gt;Node37 -->
<g id="edge114" class="edge"><title>Node32&#45;&gt;Node37</title>
<path fill="none" stroke="midnightblue" d="M772,-188.267C772,-179.18 772,-165.892 772,-154.74"/>
<polygon fill="midnightblue" stroke="midnightblue" points="775.5,-154.534 772,-144.534 768.5,-154.534 775.5,-154.534"/>
</g>
<!-- Node40&#45;&gt;Node21 -->
<g id="edge136" class="edge"><title>Node40&#45;&gt;Node21</title>
<path fill="none" stroke="midnightblue" d="M249.582,-304.97C260.512,-281.666 278,-238.247 278,-199 278,-199 278,-199 278,-134 278,-91.337 311.499,-51.1073 334.016,-28.8847"/>
<polygon fill="midnightblue" stroke="midnightblue" points="336.625,-31.2333 341.45,-21.8008 331.796,-26.1657 336.625,-31.2333"/>
</g>
<!-- Node41 -->
<g id="node106" class="node"><title>Node41</title>
<polygon fill="none" stroke="#bfbfbf" points="206,-246.5 206,-267.5 250,-267.5 250,-246.5 206,-246.5"/>
<text text-anchor="middle" x="228" y="-254.5" font-family="Helvetica,sans-Serif" font-size="10.00">cerrno</text>
</g>
<!-- Node40&#45;&gt;Node41 -->
<g id="edge130" class="edge"><title>Node40&#45;&gt;Node41</title>
<path fill="none" stroke="midnightblue" d="M237.584,-304.922C235.916,-296.579 233.894,-286.47 232.138,-277.692"/>
<polygon fill="midnightblue" stroke="midnightblue" points="235.564,-276.971 230.17,-267.852 228.7,-278.344 235.564,-276.971"/>
</g>
<!-- Node42 -->
<g id="node108" class="node"><title>Node42</title>
<polygon fill="none" stroke="#bfbfbf" points="66,-246.5 66,-267.5 112,-267.5 112,-246.5 66,-246.5"/>
<text text-anchor="middle" x="89" y="-254.5" font-family="Helvetica,sans-Serif" font-size="10.00">cstring</text>
</g>
<!-- Node40&#45;&gt;Node42 -->
<g id="edge132" class="edge"><title>Node40&#45;&gt;Node42</title>
<path fill="none" stroke="midnightblue" d="M201.064,-304.922C176.281,-294.324 144.839,-280.878 121.571,-270.928"/>
<polygon fill="midnightblue" stroke="midnightblue" points="122.713,-267.61 112.142,-266.896 119.961,-274.046 122.713,-267.61"/>
</g>
<!-- Node43 -->
<g id="node110" class="node"><title>Node43</title>
<polygon fill="none" stroke="#bfbfbf" points="129.5,-246.5 129.5,-267.5 188.5,-267.5 188.5,-246.5 129.5,-246.5"/>
<text text-anchor="middle" x="159" y="-254.5" font-family="Helvetica,sans-Serif" font-size="10.00">stdexcept</text>
</g>
<!-- Node40&#45;&gt;Node43 -->
<g id="edge134" class="edge"><title>Node40&#45;&gt;Node43</title>
<path fill="none" stroke="midnightblue" d="M219.455,-304.922C207.542,-295.479 192.776,-283.774 180.819,-274.296"/>
<polygon fill="midnightblue" stroke="midnightblue" points="182.701,-271.321 172.69,-267.852 178.353,-276.807 182.701,-271.321"/>
</g>
</g>
</svg>
