<?xml version="1.0" encoding="UTF-8" standalone="no"?>
<!DOCTYPE svg PUBLIC "-//W3C//DTD SVG 1.1//EN"
 "http://www.w3.org/Graphics/SVG/1.1/DTD/svg11.dtd">
<!-- Generated by graphviz version 2.40.1 (20161225.0304)
 -->
<!-- Title: extlib/tlx/tlx/string/index_of.cpp Pages: 1 -->
<svg width="377pt" height="151pt"
 viewBox="0.00 0.00 376.50 151.00" xmlns="http://www.w3.org/2000/svg" xmlns:xlink="http://www.w3.org/1999/xlink">
<g id="graph0" class="graph" transform="scale(1 1) rotate(0) translate(4 147)">
<title>extlib/tlx/tlx/string/index_of.cpp</title>
<!-- Node0 -->
<g id="node1" class="node">
<title>Node0</title>
<polygon fill="#bfbfbf" stroke="#000000" points="169.5,-112.5 169.5,-142.5 276.5,-142.5 276.5,-112.5 169.5,-112.5"/>
<text text-anchor="start" x="177.5" y="-130.5" font-family="Helvetica,sans-Serif" font-size="10.00" fill="#000000">extlib/tlx/tlx/string</text>
<text text-anchor="middle" x="223" y="-119.5" font-family="Helvetica,sans-Serif" font-size="10.00" fill="#000000">/index_of.cpp</text>
</g>
<!-- Node1 -->
<g id="node2" class="node">
<title>Node1</title>
<g id="a_node2"><a xlink:href="index__of_8hpp.html" target="_top" xlink:title="tlx/string/index_of.hpp">
<polygon fill="none" stroke="#000000" points="160.5,-56.5 160.5,-75.5 285.5,-75.5 285.5,-56.5 160.5,-56.5"/>
<text text-anchor="middle" x="223" y="-63.5" font-family="Helvetica,sans-Serif" font-size="10.00" fill="#000000">tlx/string/index_of.hpp</text>
</a>
</g>
</g>
<!-- Node0&#45;&gt;Node1 -->
<g id="edge1" class="edge">
<title>Node0&#45;&gt;Node1</title>
<path fill="none" stroke="#191970" d="M223,-112.2977C223,-104.3834 223,-94.6043 223,-86.0759"/>
<polygon fill="#191970" stroke="#191970" points="226.5001,-85.8469 223,-75.8469 219.5001,-85.847 226.5001,-85.8469"/>
</g>
<!-- Node4 -->
<g id="node5" class="node">
<title>Node4</title>
<g id="a_node5"><a xlink:href="equal__icase_8hpp.html" target="_top" xlink:title="tlx/string/equal_icase.hpp">
<polygon fill="none" stroke="#000000" points="0,-56.5 0,-75.5 142,-75.5 142,-56.5 0,-56.5"/>
<text text-anchor="middle" x="71" y="-63.5" font-family="Helvetica,sans-Serif" font-size="10.00" fill="#000000">tlx/string/equal_icase.hpp</text>
</a>
</g>
</g>
<!-- Node0&#45;&gt;Node4 -->
<g id="edge4" class="edge">
<title>Node0&#45;&gt;Node4</title>
<path fill="none" stroke="#191970" d="M185.8166,-112.4554C160.7887,-102.329 128.0837,-89.0964 103.9834,-79.3453"/>
<polygon fill="#191970" stroke="#191970" points="105.1373,-76.0366 94.5546,-75.5303 102.5118,-82.5256 105.1373,-76.0366"/>
</g>
<!-- Node5 -->
<g id="node6" class="node">
<title>Node5</title>
<polygon fill="none" stroke="#bfbfbf" points="303.5,-56.5 303.5,-75.5 368.5,-75.5 368.5,-56.5 303.5,-56.5"/>
<text text-anchor="middle" x="336" y="-63.5" font-family="Helvetica,sans-Serif" font-size="10.00" fill="#000000">stdexcept</text>
</g>
<!-- Node0&#45;&gt;Node5 -->
<g id="edge6" class="edge">
<title>Node0&#45;&gt;Node5</title>
<path fill="none" stroke="#191970" d="M250.6429,-112.4554C268.5049,-102.734 291.6268,-90.15 309.2995,-80.5317"/>
<polygon fill="#191970" stroke="#191970" points="311.3787,-83.3849 318.489,-75.5303 308.0325,-77.2365 311.3787,-83.3849"/>
</g>
<!-- Node2 -->
<g id="node3" class="node">
<title>Node2</title>
<polygon fill="none" stroke="#bfbfbf" points="93,-.5 93,-19.5 137,-19.5 137,-.5 93,-.5"/>
<text text-anchor="middle" x="115" y="-7.5" font-family="Helvetica,sans-Serif" font-size="10.00" fill="#000000">string</text>
</g>
<!-- Node1&#45;&gt;Node2 -->
<g id="edge2" class="edge">
<title>Node1&#45;&gt;Node2</title>
<path fill="none" stroke="#191970" d="M204.1878,-56.2455C187.1527,-47.4125 161.8425,-34.2887 142.5319,-24.2758"/>
<polygon fill="#191970" stroke="#191970" points="144.0853,-21.1388 133.5966,-19.6427 140.863,-27.353 144.0853,-21.1388"/>
</g>
<!-- Node3 -->
<g id="node4" class="node">
<title>Node3</title>
<polygon fill="none" stroke="#bfbfbf" points="199.5,-.5 199.5,-19.5 246.5,-19.5 246.5,-.5 199.5,-.5"/>
<text text-anchor="middle" x="223" y="-7.5" font-family="Helvetica,sans-Serif" font-size="10.00" fill="#000000">vector</text>
</g>
<!-- Node1&#45;&gt;Node3 -->
<g id="edge3" class="edge">
<title>Node1&#45;&gt;Node3</title>
<path fill="none" stroke="#191970" d="M223,-56.2455C223,-48.9382 223,-38.6944 223,-29.7046"/>
<polygon fill="#191970" stroke="#191970" points="226.5001,-29.6426 223,-19.6427 219.5001,-29.6427 226.5001,-29.6426"/>
</g>
<!-- Node4&#45;&gt;Node2 -->
<g id="edge5" class="edge">
<title>Node4&#45;&gt;Node2</title>
<path fill="none" stroke="#191970" d="M78.6642,-56.2455C84.8473,-48.3761 93.7063,-37.101 101.1289,-27.6542"/>
<polygon fill="#191970" stroke="#191970" points="103.9975,-29.6683 107.4236,-19.6427 98.4932,-25.3435 103.9975,-29.6683"/>
</g>
</g>
</svg>
