<?xml version="1.0" encoding="UTF-8" standalone="no"?>
<!DOCTYPE svg PUBLIC "-//W3C//DTD SVG 1.1//EN"
 "http://www.w3.org/Graphics/SVG/1.1/DTD/svg11.dtd">
<!-- Generated by graphviz version 2.36.0 (20140111.2315)
 -->
<!-- Title: extlib/tlx/tlx/sort/strings/insertion_sort.hpp Pages: 1 -->
<svg width="525pt" height="220pt"
 viewBox="0.00 0.00 525.00 220.00" xmlns="http://www.w3.org/2000/svg" xmlns:xlink="http://www.w3.org/1999/xlink">
<g id="graph0" class="graph" transform="scale(1 1) rotate(0) translate(4 216)">
<title>extlib/tlx/tlx/sort/strings/insertion_sort.hpp</title>
<!-- Node1 -->
<g id="node1" class="node"><title>Node1</title>
<polygon fill="#bfbfbf" stroke="black" points="53.5,-181 53.5,-211 182.5,-211 182.5,-181 53.5,-181"/>
<text text-anchor="start" x="61.5" y="-199" font-family="Helvetica,sans-Serif" font-size="10.00">extlib/tlx/tlx/sort</text>
<text text-anchor="middle" x="118" y="-188" font-family="Helvetica,sans-Serif" font-size="10.00">/strings/insertion_sort.hpp</text>
</g>
<!-- Node2 -->
<g id="node2" class="node"><title>Node2</title>
<g id="a_node2"><a xlink:href="likely_8hpp.html" target="_top" xlink:title="tlx/define/likely.hpp">
<polygon fill="none" stroke="black" points="6.5,-118.5 6.5,-137.5 107.5,-137.5 107.5,-118.5 6.5,-118.5"/>
<text text-anchor="middle" x="57" y="-125.5" font-family="Helvetica,sans-Serif" font-size="10.00">tlx/define/likely.hpp</text>
</a>
</g>
</g>
<!-- Node1&#45;&gt;Node2 -->
<g id="edge1" class="edge"><title>Node1&#45;&gt;Node2</title>
<path fill="none" stroke="midnightblue" d="M104.764,-180.679C95.1585,-170.286 82.1469,-156.208 72.1298,-145.37"/>
<polygon fill="midnightblue" stroke="midnightblue" points="74.5173,-142.796 65.1595,-137.828 69.3766,-147.548 74.5173,-142.796"/>
</g>
<!-- Node3 -->
<g id="node3" class="node"><title>Node3</title>
<g id="a_node3"><a xlink:href="string__set_8hpp.html" target="_top" xlink:title="tlx/sort/strings/string\l_set.hpp">
<polygon fill="none" stroke="black" points="126,-113 126,-143 232,-143 232,-113 126,-113"/>
<text text-anchor="start" x="134" y="-131" font-family="Helvetica,sans-Serif" font-size="10.00">tlx/sort/strings/string</text>
<text text-anchor="middle" x="179" y="-120" font-family="Helvetica,sans-Serif" font-size="10.00">_set.hpp</text>
</a>
</g>
</g>
<!-- Node1&#45;&gt;Node3 -->
<g id="edge2" class="edge"><title>Node1&#45;&gt;Node3</title>
<path fill="none" stroke="midnightblue" d="M131.236,-180.679C139.31,-171.944 149.789,-160.605 158.875,-150.775"/>
<polygon fill="midnightblue" stroke="midnightblue" points="161.573,-153.012 165.79,-143.293 156.432,-148.261 161.573,-153.012"/>
</g>
<!-- Node4 -->
<g id="node4" class="node"><title>Node4</title>
<polygon fill="none" stroke="#bfbfbf" points="-0.5,-56.5 -0.5,-75.5 48.5,-75.5 48.5,-56.5 -0.5,-56.5"/>
<text text-anchor="middle" x="24" y="-63.5" font-family="Helvetica,sans-Serif" font-size="10.00">cassert</text>
</g>
<!-- Node3&#45;&gt;Node4 -->
<g id="edge3" class="edge"><title>Node3&#45;&gt;Node4</title>
<path fill="none" stroke="midnightblue" d="M142.659,-112.933C116.276,-102.72 80.9262,-89.036 55.6882,-79.2664"/>
<polygon fill="midnightblue" stroke="midnightblue" points="56.8059,-75.946 46.2167,-75.6 54.2789,-82.474 56.8059,-75.946"/>
</g>
<!-- Node5 -->
<g id="node5" class="node"><title>Node5</title>
<polygon fill="none" stroke="#bfbfbf" points="128,-0.5 128,-19.5 174,-19.5 174,-0.5 128,-0.5"/>
<text text-anchor="middle" x="151" y="-7.5" font-family="Helvetica,sans-Serif" font-size="10.00">cstdint</text>
</g>
<!-- Node3&#45;&gt;Node5 -->
<g id="edge4" class="edge"><title>Node3&#45;&gt;Node5</title>
<path fill="none" stroke="midnightblue" d="M139.405,-112.866C122.899,-104.782 105.411,-92.8277 96,-76 85.0503,-56.4202 106.411,-37.2123 125.622,-24.816"/>
<polygon fill="midnightblue" stroke="midnightblue" points="127.443,-27.8051 134.173,-19.6229 123.809,-21.8219 127.443,-27.8051"/>
</g>
<!-- Node6 -->
<g id="node6" class="node"><title>Node6</title>
<polygon fill="none" stroke="#bfbfbf" points="105,-56.5 105,-75.5 157,-75.5 157,-56.5 105,-56.5"/>
<text text-anchor="middle" x="131" y="-63.5" font-family="Helvetica,sans-Serif" font-size="10.00">memory</text>
</g>
<!-- Node3&#45;&gt;Node6 -->
<g id="edge5" class="edge"><title>Node3&#45;&gt;Node6</title>
<path fill="none" stroke="midnightblue" d="M167.625,-112.781C160.65,-104.062 151.686,-92.8574 144.372,-83.7153"/>
<polygon fill="midnightblue" stroke="midnightblue" points="146.964,-81.3528 137.984,-75.7305 141.498,-85.7257 146.964,-81.3528"/>
</g>
<!-- Node7 -->
<g id="node7" class="node"><title>Node7</title>
<polygon fill="none" stroke="#bfbfbf" points="285,-0.5 285,-19.5 325,-19.5 325,-0.5 285,-0.5"/>
<text text-anchor="middle" x="305" y="-7.5" font-family="Helvetica,sans-Serif" font-size="10.00">utility</text>
</g>
<!-- Node3&#45;&gt;Node7 -->
<g id="edge6" class="edge"><title>Node3&#45;&gt;Node7</title>
<path fill="none" stroke="midnightblue" d="M228.268,-112.989C248.325,-105.055 270.217,-93.1846 285,-76 296.179,-63.0049 301.111,-43.8428 303.286,-29.6887"/>
<polygon fill="midnightblue" stroke="midnightblue" points="306.777,-29.973 304.506,-19.6245 299.828,-29.1306 306.777,-29.973"/>
</g>
<!-- Node8 -->
<g id="node8" class="node"><title>Node8</title>
<g id="a_node8"><a xlink:href="extlib_2tlx_2tlx_2logger_8hpp.html" target="_top" xlink:title="tlx/logger.hpp">
<polygon fill="none" stroke="black" points="333.5,-56.5 333.5,-75.5 408.5,-75.5 408.5,-56.5 333.5,-56.5"/>
<text text-anchor="middle" x="371" y="-63.5" font-family="Helvetica,sans-Serif" font-size="10.00">tlx/logger.hpp</text>
</a>
</g>
</g>
<!-- Node3&#45;&gt;Node8 -->
<g id="edge7" class="edge"><title>Node3&#45;&gt;Node8</title>
<path fill="none" stroke="midnightblue" d="M224.015,-112.933C257.52,-102.462 302.697,-88.3445 334.085,-78.5358"/>
<polygon fill="midnightblue" stroke="midnightblue" points="335.259,-81.8362 343.759,-75.5127 333.171,-75.1548 335.259,-81.8362"/>
</g>
<!-- Node12 -->
<g id="node12" class="node"><title>Node12</title>
<g id="a_node12"><a xlink:href="bswap_8hpp.html" target="_top" xlink:title="tlx/math/bswap.hpp">
<polygon fill="none" stroke="black" points="175,-56.5 175,-75.5 277,-75.5 277,-56.5 175,-56.5"/>
<text text-anchor="middle" x="226" y="-63.5" font-family="Helvetica,sans-Serif" font-size="10.00">tlx/math/bswap.hpp</text>
</a>
</g>
</g>
<!-- Node3&#45;&gt;Node12 -->
<g id="edge12" class="edge"><title>Node3&#45;&gt;Node12</title>
<path fill="none" stroke="midnightblue" d="M190.138,-112.781C196.968,-104.062 205.745,-92.8574 212.906,-83.7153"/>
<polygon fill="midnightblue" stroke="midnightblue" points="215.75,-85.7612 219.161,-75.7305 210.239,-81.4445 215.75,-85.7612"/>
</g>
<!-- Node8&#45;&gt;Node7 -->
<g id="edge10" class="edge"><title>Node8&#45;&gt;Node7</title>
<path fill="none" stroke="midnightblue" d="M360.396,-56.324C350.544,-48.2631 335.649,-36.0765 323.785,-26.3695"/>
<polygon fill="midnightblue" stroke="midnightblue" points="325.753,-23.4575 315.797,-19.8339 321.32,-28.8752 325.753,-23.4575"/>
</g>
<!-- Node9 -->
<g id="node9" class="node"><title>Node9</title>
<polygon fill="none" stroke="#bfbfbf" points="343,-0.5 343,-19.5 395,-19.5 395,-0.5 343,-0.5"/>
<text text-anchor="middle" x="369" y="-7.5" font-family="Helvetica,sans-Serif" font-size="10.00">sstream</text>
</g>
<!-- Node8&#45;&gt;Node9 -->
<g id="edge8" class="edge"><title>Node8&#45;&gt;Node9</title>
<path fill="none" stroke="midnightblue" d="M370.67,-56.083C370.408,-49.0059 370.032,-38.8611 369.703,-29.9865"/>
<polygon fill="midnightblue" stroke="midnightblue" points="373.192,-29.6147 369.324,-19.7511 366.197,-29.8738 373.192,-29.6147"/>
</g>
<!-- Node10 -->
<g id="node10" class="node"><title>Node10</title>
<polygon fill="none" stroke="#bfbfbf" points="413.5,-0.5 413.5,-19.5 454.5,-19.5 454.5,-0.5 413.5,-0.5"/>
<text text-anchor="middle" x="434" y="-7.5" font-family="Helvetica,sans-Serif" font-size="10.00">string</text>
</g>
<!-- Node8&#45;&gt;Node10 -->
<g id="edge9" class="edge"><title>Node8&#45;&gt;Node10</title>
<path fill="none" stroke="midnightblue" d="M381.122,-56.324C390.526,-48.2631 404.744,-36.0765 416.069,-26.3695"/>
<polygon fill="midnightblue" stroke="midnightblue" points="418.379,-28.9993 423.694,-19.8339 413.823,-23.6844 418.379,-28.9993"/>
</g>
<!-- Node11 -->
<g id="node11" class="node"><title>Node11</title>
<polygon fill="none" stroke="#bfbfbf" points="473,-0.5 473,-19.5 517,-19.5 517,-0.5 473,-0.5"/>
<text text-anchor="middle" x="495" y="-7.5" font-family="Helvetica,sans-Serif" font-size="10.00">vector</text>
</g>
<!-- Node8&#45;&gt;Node11 -->
<g id="edge11" class="edge"><title>Node8&#45;&gt;Node11</title>
<path fill="none" stroke="midnightblue" d="M390.648,-56.4435C410.965,-47.5961 442.903,-33.6875 466.098,-23.5865"/>
<polygon fill="midnightblue" stroke="midnightblue" points="467.673,-26.7181 475.444,-19.5164 464.878,-20.3002 467.673,-26.7181"/>
</g>
<!-- Node12&#45;&gt;Node5 -->
<g id="edge13" class="edge"><title>Node12&#45;&gt;Node5</title>
<path fill="none" stroke="midnightblue" d="M213.95,-56.324C202.537,-48.1066 185.169,-35.6017 171.565,-25.8069"/>
<polygon fill="midnightblue" stroke="midnightblue" points="173.43,-22.8366 163.269,-19.8339 169.34,-28.5174 173.43,-22.8366"/>
</g>
</g>
</svg>
