<?xml version="1.0" encoding="UTF-8" standalone="no"?>
<!DOCTYPE svg PUBLIC "-//W3C//DTD SVG 1.1//EN"
 "http://www.w3.org/Graphics/SVG/1.1/DTD/svg11.dtd">
<!-- Generated by graphviz version 2.36.0 (20140111.2315)
 -->
<!-- Title: extlib/tlx/tlx/math/integer_log2.hpp Pages: 1 -->
<svg width="2800pt" height="448pt"
 viewBox="0.00 0.00 2800.00 448.00" xmlns="http://www.w3.org/2000/svg" xmlns:xlink="http://www.w3.org/1999/xlink">
<g id="graph0" class="graph" transform="scale(1 1) rotate(0) translate(4 444)">
<title>extlib/tlx/tlx/math/integer_log2.hpp</title>
<!-- Node1 -->
<g id="node1" class="node"><title>Node1</title>
<polygon fill="#bfbfbf" stroke="black" points="2251,-409 2251,-439 2343,-439 2343,-409 2251,-409"/>
<text text-anchor="start" x="2259" y="-427" font-family="Helvetica,sans-Serif" font-size="10.00">extlib/tlx/tlx/math</text>
<text text-anchor="middle" x="2297" y="-416" font-family="Helvetica,sans-Serif" font-size="10.00">/integer_log2.hpp</text>
</g>
<!-- Node2 -->
<g id="node2" class="node"><title>Node2</title>
<g id="a_node2"><a xlink:href="golomb__bit__stream_8hpp.html" target="_top" xlink:title="thrill/core/golomb\l_bit_stream.hpp">
<polygon fill="none" stroke="black" points="1448.5,-341 1448.5,-371 1539.5,-371 1539.5,-341 1448.5,-341"/>
<text text-anchor="start" x="1456.5" y="-359" font-family="Helvetica,sans-Serif" font-size="10.00">thrill/core/golomb</text>
<text text-anchor="middle" x="1494" y="-348" font-family="Helvetica,sans-Serif" font-size="10.00">_bit_stream.hpp</text>
</a>
</g>
</g>
<!-- Node1&#45;&gt;Node2 -->
<g id="edge1" class="edge"><title>Node1&#45;&gt;Node2</title>
<path fill="none" stroke="midnightblue" d="M2240.97,-418.395C2090.22,-406.005 1678.08,-372.13 1539.87,-360.77"/>
<polygon fill="midnightblue" stroke="midnightblue" points="2240.69,-421.883 2250.94,-419.215 2241.26,-414.907 2240.69,-421.883"/>
</g>
<!-- Node3 -->
<g id="node3" class="node"><title>Node3</title>
<g id="a_node3"><a xlink:href="location__detection_8hpp.html" target="_top" xlink:title="thrill/core/location\l_detection.hpp">
<polygon fill="none" stroke="black" points="1334.5,-273 1334.5,-303 1427.5,-303 1427.5,-273 1334.5,-273"/>
<text text-anchor="start" x="1342.5" y="-291" font-family="Helvetica,sans-Serif" font-size="10.00">thrill/core/location</text>
<text text-anchor="middle" x="1381" y="-280" font-family="Helvetica,sans-Serif" font-size="10.00">_detection.hpp</text>
</a>
</g>
</g>
<!-- Node1&#45;&gt;Node3 -->
<g id="edge35" class="edge"><title>Node1&#45;&gt;Node3</title>
<path fill="none" stroke="midnightblue" d="M2240.85,-422.479C2061.27,-420.427 1508.66,-410.976 1439,-372 1411.69,-356.721 1394.32,-322.562 1386.27,-303.165"/>
<polygon fill="midnightblue" stroke="midnightblue" points="2240.84,-425.979 2250.88,-422.59 2240.92,-418.98 2240.84,-425.979"/>
</g>
<!-- Node28 -->
<g id="node28" class="node"><title>Node28</title>
<g id="a_node28"><a xlink:href="sort_8hpp.html" target="_top" xlink:title="thrill/api/sort.hpp">
<polygon fill="none" stroke="black" points="1869.5,-210.5 1869.5,-229.5 1958.5,-229.5 1958.5,-210.5 1869.5,-210.5"/>
<text text-anchor="middle" x="1914" y="-217.5" font-family="Helvetica,sans-Serif" font-size="10.00">thrill/api/sort.hpp</text>
</a>
</g>
</g>
<!-- Node1&#45;&gt;Node28 -->
<g id="edge36" class="edge"><title>Node1&#45;&gt;Node28</title>
<path fill="none" stroke="midnightblue" d="M2261.12,-404.074C2180.51,-361.559 1987.66,-259.848 1930.34,-229.616"/>
<polygon fill="midnightblue" stroke="midnightblue" points="2259.89,-407.387 2270.37,-408.956 2263.16,-401.195 2259.89,-407.387"/>
</g>
<!-- Node36 -->
<g id="node36" class="node"><title>Node36</title>
<g id="a_node36"><a xlink:href="construct__wt_8hpp.html" target="_top" xlink:title="examples/suffix_sorting\l/construct_wt.hpp">
<polygon fill="none" stroke="black" points="2396,-137 2396,-167 2516,-167 2516,-137 2396,-137"/>
<text text-anchor="start" x="2404" y="-155" font-family="Helvetica,sans-Serif" font-size="10.00">examples/suffix_sorting</text>
<text text-anchor="middle" x="2456" y="-144" font-family="Helvetica,sans-Serif" font-size="10.00">/construct_wt.hpp</text>
</a>
</g>
</g>
<!-- Node1&#45;&gt;Node36 -->
<g id="edge62" class="edge"><title>Node1&#45;&gt;Node36</title>
<path fill="none" stroke="midnightblue" d="M2286.5,-399.519C2268.86,-356.124 2239.28,-262.472 2283,-204 2290.06,-194.565 2348.61,-178.597 2395.67,-167.038"/>
<polygon fill="midnightblue" stroke="midnightblue" points="2283.36,-401.085 2290.47,-408.943 2289.81,-398.369 2283.36,-401.085"/>
</g>
<!-- Node39 -->
<g id="node39" class="node"><title>Node39</title>
<g id="a_node39"><a xlink:href="wavelet__tree_8cpp.html" target="_top" xlink:title="examples/suffix_sorting\l/wavelet_tree.cpp">
<polygon fill="none" stroke="black" points="2534,-137 2534,-167 2654,-167 2654,-137 2534,-137"/>
<text text-anchor="start" x="2542" y="-155" font-family="Helvetica,sans-Serif" font-size="10.00">examples/suffix_sorting</text>
<text text-anchor="middle" x="2594" y="-144" font-family="Helvetica,sans-Serif" font-size="10.00">/wavelet_tree.cpp</text>
</a>
</g>
</g>
<!-- Node1&#45;&gt;Node39 -->
<g id="edge63" class="edge"><title>Node1&#45;&gt;Node39</title>
<path fill="none" stroke="midnightblue" d="M2291.36,-398.945C2282.43,-354.155 2270.78,-257.666 2321,-204 2352.3,-170.547 2479.04,-176.801 2524,-168 2527.17,-167.379 2530.42,-166.73 2533.7,-166.064"/>
<polygon fill="midnightblue" stroke="midnightblue" points="2287.98,-399.862 2293.48,-408.916 2294.83,-398.407 2287.98,-399.862"/>
</g>
<!-- Node40 -->
<g id="node40" class="node"><title>Node40</title>
<g id="a_node40"><a xlink:href="wavelet__tree2_8cpp.html" target="_top" xlink:title="examples/suffix_sorting\l/wavelet_tree2.cpp">
<polygon fill="none" stroke="black" points="2672,-137 2672,-167 2792,-167 2792,-137 2672,-137"/>
<text text-anchor="start" x="2680" y="-155" font-family="Helvetica,sans-Serif" font-size="10.00">examples/suffix_sorting</text>
<text text-anchor="middle" x="2732" y="-144" font-family="Helvetica,sans-Serif" font-size="10.00">/wavelet_tree2.cpp</text>
</a>
</g>
</g>
<!-- Node1&#45;&gt;Node40 -->
<g id="edge64" class="edge"><title>Node1&#45;&gt;Node40</title>
<path fill="none" stroke="midnightblue" d="M2308.85,-399.444C2318.89,-381.352 2334.72,-356.714 2354,-340 2457.18,-250.558 2610.64,-192.188 2686.36,-167.088"/>
<polygon fill="midnightblue" stroke="midnightblue" points="2305.52,-398.262 2303.88,-408.73 2311.69,-401.564 2305.52,-398.262"/>
</g>
<!-- Node42 -->
<g id="node42" class="node"><title>Node42</title>
<g id="a_node42"><a xlink:href="pool_8cpp.html" target="_top" xlink:title="thrill/mem/pool.cpp">
<polygon fill="none" stroke="black" points="2363.5,-346.5 2363.5,-365.5 2462.5,-365.5 2462.5,-346.5 2363.5,-346.5"/>
<text text-anchor="middle" x="2413" y="-353.5" font-family="Helvetica,sans-Serif" font-size="10.00">thrill/mem/pool.cpp</text>
</a>
</g>
</g>
<!-- Node1&#45;&gt;Node42 -->
<g id="edge61" class="edge"><title>Node1&#45;&gt;Node42</title>
<path fill="none" stroke="midnightblue" d="M2330.67,-403.843C2352.83,-391.237 2380.77,-375.338 2397.74,-365.682"/>
<polygon fill="midnightblue" stroke="midnightblue" points="2328.85,-400.854 2321.88,-408.841 2332.31,-406.938 2328.85,-400.854"/>
</g>
<!-- Node43 -->
<g id="node43" class="node"><title>Node43</title>
<g id="a_node43"><a xlink:href="integer__log2_8cpp.html" target="_top" xlink:title="extlib/tlx/tlx/math\l/integer_log2.cpp">
<polygon fill="none" stroke="black" points="2481,-341 2481,-371 2573,-371 2573,-341 2481,-341"/>
<text text-anchor="start" x="2489" y="-359" font-family="Helvetica,sans-Serif" font-size="10.00">extlib/tlx/tlx/math</text>
<text text-anchor="middle" x="2527" y="-348" font-family="Helvetica,sans-Serif" font-size="10.00">/integer_log2.cpp</text>
</a>
</g>
</g>
<!-- Node1&#45;&gt;Node43 -->
<g id="edge65" class="edge"><title>Node1&#45;&gt;Node43</title>
<path fill="none" stroke="midnightblue" d="M2352.95,-406.945C2392.16,-395.693 2443.94,-380.834 2480.81,-370.255"/>
<polygon fill="midnightblue" stroke="midnightblue" points="2351.91,-403.601 2343.27,-409.723 2353.84,-410.329 2351.91,-403.601"/>
</g>
<!-- Node44 -->
<g id="node44" class="node"><title>Node44</title>
<g id="a_node44"><a xlink:href="extlib_2tlx_2tlx_2math_8hpp.html" target="_top" xlink:title="extlib/tlx/tlx/math.hpp">
<polygon fill="none" stroke="black" points="2591,-346.5 2591,-365.5 2701,-365.5 2701,-346.5 2591,-346.5"/>
<text text-anchor="middle" x="2646" y="-353.5" font-family="Helvetica,sans-Serif" font-size="10.00">extlib/tlx/tlx/math.hpp</text>
</a>
</g>
</g>
<!-- Node1&#45;&gt;Node44 -->
<g id="edge66" class="edge"><title>Node1&#45;&gt;Node44</title>
<path fill="none" stroke="midnightblue" d="M2353.04,-413.876C2410.63,-404.288 2502.82,-388.351 2582,-372 2591.5,-370.038 2601.75,-367.725 2611.2,-365.511"/>
<polygon fill="midnightblue" stroke="midnightblue" points="2352.34,-410.444 2343.05,-415.534 2353.49,-417.35 2352.34,-410.444"/>
</g>
<!-- Node2&#45;&gt;Node3 -->
<g id="edge2" class="edge"><title>Node2&#45;&gt;Node3</title>
<path fill="none" stroke="midnightblue" d="M1460.83,-335.626C1443.01,-325.217 1421.43,-312.613 1405.2,-303.135"/>
<polygon fill="midnightblue" stroke="midnightblue" points="1459.36,-338.82 1469.76,-340.841 1462.89,-332.776 1459.36,-338.82"/>
</g>
<!-- Node14 -->
<g id="node14" class="node"><title>Node14</title>
<g id="a_node14"><a xlink:href="duplicate__detection_8hpp.html" target="_top" xlink:title="thrill/core/duplicate\l_detection.hpp">
<polygon fill="none" stroke="black" points="1445,-273 1445,-303 1543,-303 1543,-273 1445,-273"/>
<text text-anchor="start" x="1453" y="-291" font-family="Helvetica,sans-Serif" font-size="10.00">thrill/core/duplicate</text>
<text text-anchor="middle" x="1494" y="-280" font-family="Helvetica,sans-Serif" font-size="10.00">_detection.hpp</text>
</a>
</g>
</g>
<!-- Node2&#45;&gt;Node14 -->
<g id="edge16" class="edge"><title>Node2&#45;&gt;Node14</title>
<path fill="none" stroke="midnightblue" d="M1494,-330.532C1494,-321.361 1494,-311.245 1494,-303.293"/>
<polygon fill="midnightblue" stroke="midnightblue" points="1490.5,-330.679 1494,-340.679 1497.5,-330.679 1490.5,-330.679"/>
</g>
<!-- Node4 -->
<g id="node4" class="node"><title>Node4</title>
<g id="a_node4"><a xlink:href="group__by__key_8hpp.html" target="_top" xlink:title="thrill/api/group_by\l_key.hpp">
<polygon fill="none" stroke="black" points="1334.5,-137 1334.5,-167 1427.5,-167 1427.5,-137 1334.5,-137"/>
<text text-anchor="start" x="1342.5" y="-155" font-family="Helvetica,sans-Serif" font-size="10.00">thrill/api/group_by</text>
<text text-anchor="middle" x="1381" y="-144" font-family="Helvetica,sans-Serif" font-size="10.00">_key.hpp</text>
</a>
</g>
</g>
<!-- Node3&#45;&gt;Node4 -->
<g id="edge3" class="edge"><title>Node3&#45;&gt;Node4</title>
<path fill="none" stroke="midnightblue" d="M1381,-262.524C1381,-234.619 1381,-189.94 1381,-167.237"/>
<polygon fill="midnightblue" stroke="midnightblue" points="1377.5,-262.66 1381,-272.66 1384.5,-262.66 1377.5,-262.66"/>
</g>
<!-- Node9 -->
<g id="node9" class="node"><title>Node9</title>
<g id="a_node9"><a xlink:href="inner__join_8hpp.html" target="_top" xlink:title="thrill/api/inner_join.hpp">
<polygon fill="none" stroke="black" points="702.5,-142.5 702.5,-161.5 815.5,-161.5 815.5,-142.5 702.5,-142.5"/>
<text text-anchor="middle" x="759" y="-149.5" font-family="Helvetica,sans-Serif" font-size="10.00">thrill/api/inner_join.hpp</text>
</a>
</g>
</g>
<!-- Node3&#45;&gt;Node9 -->
<g id="edge8" class="edge"><title>Node3&#45;&gt;Node9</title>
<path fill="none" stroke="midnightblue" d="M1324.52,-275.158C1223.99,-254.024 1007.43,-208.251 825,-168 815.706,-165.949 805.685,-163.695 796.329,-161.57"/>
<polygon fill="midnightblue" stroke="midnightblue" points="1323.95,-278.615 1334.46,-277.247 1325.39,-271.765 1323.95,-278.615"/>
</g>
<!-- Node5 -->
<g id="node5" class="node"><title>Node5</title>
<g id="a_node5"><a xlink:href="thrill_8hpp.html" target="_top" xlink:title="thrill/thrill.hpp">
<polygon fill="none" stroke="black" points="1185,-74.5 1185,-93.5 1259,-93.5 1259,-74.5 1185,-74.5"/>
<text text-anchor="middle" x="1222" y="-81.5" font-family="Helvetica,sans-Serif" font-size="10.00">thrill/thrill.hpp</text>
</a>
</g>
</g>
<!-- Node4&#45;&gt;Node5 -->
<g id="edge4" class="edge"><title>Node4&#45;&gt;Node5</title>
<path fill="none" stroke="midnightblue" d="M1337.26,-132.844C1306.53,-120.089 1266.8,-103.595 1242.92,-93.6819"/>
<polygon fill="midnightblue" stroke="midnightblue" points="1336.31,-136.24 1346.89,-136.841 1339,-129.775 1336.31,-136.24"/>
</g>
<!-- Node6 -->
<g id="node6" class="node"><title>Node6</title>
<g id="a_node6"><a xlink:href="bfs_8cpp.html" target="_top" xlink:title="examples/bfs/bfs.cpp">
<polygon fill="none" stroke="black" points="1277,-74.5 1277,-93.5 1387,-93.5 1387,-74.5 1277,-74.5"/>
<text text-anchor="middle" x="1332" y="-81.5" font-family="Helvetica,sans-Serif" font-size="10.00">examples/bfs/bfs.cpp</text>
</a>
</g>
</g>
<!-- Node4&#45;&gt;Node6 -->
<g id="edge5" class="edge"><title>Node4&#45;&gt;Node6</title>
<path fill="none" stroke="midnightblue" d="M1364.28,-128.475C1355.44,-116.576 1345.1,-102.65 1338.55,-93.8283"/>
<polygon fill="midnightblue" stroke="midnightblue" points="1361.6,-130.736 1370.37,-136.679 1367.22,-126.563 1361.6,-130.736"/>
</g>
<!-- Node7 -->
<g id="node7" class="node"><title>Node7</title>
<g id="a_node7"><a xlink:href="page__rank__run_8cpp.html" target="_top" xlink:title="examples/page_rank\l/page_rank_run.cpp">
<polygon fill="none" stroke="black" points="1034.5,-1 1034.5,-31 1141.5,-31 1141.5,-1 1034.5,-1"/>
<text text-anchor="start" x="1042.5" y="-19" font-family="Helvetica,sans-Serif" font-size="10.00">examples/page_rank</text>
<text text-anchor="middle" x="1088" y="-8" font-family="Helvetica,sans-Serif" font-size="10.00">/page_rank_run.cpp</text>
</a>
</g>
</g>
<!-- Node4&#45;&gt;Node7 -->
<g id="edge6" class="edge"><title>Node4&#45;&gt;Node7</title>
<path fill="none" stroke="midnightblue" d="M1394.33,-127.784C1402.86,-109.514 1409.97,-84.472 1396,-68 1364.01,-30.2796 1221.1,-20.4213 1141.68,-17.8699"/>
<polygon fill="midnightblue" stroke="midnightblue" points="1391.11,-126.389 1389.7,-136.889 1397.35,-129.559 1391.11,-126.389"/>
</g>
<!-- Node8 -->
<g id="node8" class="node"><title>Node8</title>
<g id="a_node8"><a xlink:href="percentiles_8cpp.html" target="_top" xlink:title="examples/percentiles\l/percentiles.cpp">
<polygon fill="none" stroke="black" points="1443.5,-69 1443.5,-99 1552.5,-99 1552.5,-69 1443.5,-69"/>
<text text-anchor="start" x="1451.5" y="-87" font-family="Helvetica,sans-Serif" font-size="10.00">examples/percentiles</text>
<text text-anchor="middle" x="1498" y="-76" font-family="Helvetica,sans-Serif" font-size="10.00">/percentiles.cpp</text>
</a>
</g>
</g>
<!-- Node4&#45;&gt;Node8 -->
<g id="edge7" class="edge"><title>Node4&#45;&gt;Node8</title>
<path fill="none" stroke="midnightblue" d="M1414.84,-131.912C1433.39,-121.448 1455.99,-108.7 1472.94,-99.1352"/>
<polygon fill="midnightblue" stroke="midnightblue" points="1413.09,-128.88 1406.1,-136.841 1416.53,-134.977 1413.09,-128.88"/>
</g>
<!-- Node9&#45;&gt;Node5 -->
<g id="edge9" class="edge"><title>Node9&#45;&gt;Node5</title>
<path fill="none" stroke="midnightblue" d="M802.921,-140.24C810.264,-138.666 817.826,-137.18 825,-136 979.304,-110.625 1021.92,-131.942 1175,-100 1182.71,-98.3904 1190.95,-96.0004 1198.34,-93.5989"/>
<polygon fill="midnightblue" stroke="midnightblue" points="802.103,-136.837 793.1,-142.423 803.622,-143.67 802.103,-136.837"/>
</g>
<!-- Node10 -->
<g id="node10" class="node"><title>Node10</title>
<g id="a_node10"><a xlink:href="page__rank_8hpp.html" target="_top" xlink:title="examples/page_rank\l/page_rank.hpp">
<polygon fill="none" stroke="black" points="708.5,-69 708.5,-99 815.5,-99 815.5,-69 708.5,-69"/>
<text text-anchor="start" x="716.5" y="-87" font-family="Helvetica,sans-Serif" font-size="10.00">examples/page_rank</text>
<text text-anchor="middle" x="762" y="-76" font-family="Helvetica,sans-Serif" font-size="10.00">/page_rank.hpp</text>
</a>
</g>
</g>
<!-- Node9&#45;&gt;Node10 -->
<g id="edge10" class="edge"><title>Node9&#45;&gt;Node10</title>
<path fill="none" stroke="midnightblue" d="M759.856,-132.174C760.333,-121.678 760.917,-108.821 761.355,-99.1815"/>
<polygon fill="midnightblue" stroke="midnightblue" points="756.35,-132.223 759.392,-142.372 763.343,-132.541 756.35,-132.223"/>
</g>
<!-- Node11 -->
<g id="node11" class="node"><title>Node11</title>
<g id="a_node11"><a xlink:href="triangles_8hpp.html" target="_top" xlink:title="examples/triangles\l/triangles.hpp">
<polygon fill="none" stroke="black" points="41,-69 41,-99 139,-99 139,-69 41,-69"/>
<text text-anchor="start" x="49" y="-87" font-family="Helvetica,sans-Serif" font-size="10.00">examples/triangles</text>
<text text-anchor="middle" x="90" y="-76" font-family="Helvetica,sans-Serif" font-size="10.00">/triangles.hpp</text>
</a>
</g>
</g>
<!-- Node9&#45;&gt;Node11 -->
<g id="edge12" class="edge"><title>Node9&#45;&gt;Node11</title>
<path fill="none" stroke="midnightblue" d="M692.122,-148.646C580.019,-143.97 347.355,-131.136 153,-100 148.448,-99.2708 143.739,-98.3904 139.038,-97.426"/>
<polygon fill="midnightblue" stroke="midnightblue" points="692.129,-152.149 702.264,-149.061 692.415,-145.155 692.129,-152.149"/>
</g>
<!-- Node12 -->
<g id="node12" class="node"><title>Node12</title>
<g id="a_node12"><a xlink:href="tpch__run_8cpp.html" target="_top" xlink:title="examples/tpch/tpch\l_run.cpp">
<polygon fill="none" stroke="black" points="116,-1 116,-31 218,-31 218,-1 116,-1"/>
<text text-anchor="start" x="124" y="-19" font-family="Helvetica,sans-Serif" font-size="10.00">examples/tpch/tpch</text>
<text text-anchor="middle" x="167" y="-8" font-family="Helvetica,sans-Serif" font-size="10.00">_run.cpp</text>
</a>
</g>
</g>
<!-- Node9&#45;&gt;Node12 -->
<g id="edge15" class="edge"><title>Node9&#45;&gt;Node12</title>
<path fill="none" stroke="midnightblue" d="M692.04,-149.399C548.981,-145.364 223.448,-132.663 186,-100 166.393,-82.8983 164.765,-50.081 165.663,-31.2402"/>
<polygon fill="midnightblue" stroke="midnightblue" points="692.337,-152.909 702.43,-149.686 692.531,-145.912 692.337,-152.909"/>
</g>
<!-- Node10&#45;&gt;Node7 -->
<g id="edge11" class="edge"><title>Node10&#45;&gt;Node7</title>
<path fill="none" stroke="midnightblue" d="M825.69,-67.6806C903.389,-50.9396 982.995,-35.9757 1034.25,-26.6251"/>
<polygon fill="midnightblue" stroke="midnightblue" points="824.765,-64.2997 815.733,-69.8381 826.248,-71.1409 824.765,-64.2997"/>
</g>
<!-- Node11&#45;&gt;Node12 -->
<g id="edge13" class="edge"><title>Node11&#45;&gt;Node12</title>
<path fill="none" stroke="midnightblue" d="M114.478,-62.0184C126.266,-51.9145 140.085,-40.0696 150.589,-31.0663"/>
<polygon fill="midnightblue" stroke="midnightblue" points="112.023,-59.5136 106.708,-68.679 116.578,-64.8284 112.023,-59.5136"/>
</g>
<!-- Node13 -->
<g id="node13" class="node"><title>Node13</title>
<g id="a_node13"><a xlink:href="triangles__run_8cpp.html" target="_top" xlink:title="examples/triangles\l/triangles_run.cpp">
<polygon fill="none" stroke="black" points="0,-1 0,-31 98,-31 98,-1 0,-1"/>
<text text-anchor="start" x="8" y="-19" font-family="Helvetica,sans-Serif" font-size="10.00">examples/triangles</text>
<text text-anchor="middle" x="49" y="-8" font-family="Helvetica,sans-Serif" font-size="10.00">/triangles_run.cpp</text>
</a>
</g>
</g>
<!-- Node11&#45;&gt;Node13 -->
<g id="edge14" class="edge"><title>Node11&#45;&gt;Node13</title>
<path fill="none" stroke="midnightblue" d="M75.7237,-60.0187C69.7898,-50.4665 63.0872,-39.677 57.879,-31.2931"/>
<polygon fill="midnightblue" stroke="midnightblue" points="72.8537,-62.0315 81.1036,-68.679 78.7998,-58.3376 72.8537,-62.0315"/>
</g>
<!-- Node15 -->
<g id="node15" class="node"><title>Node15</title>
<g id="a_node15"><a xlink:href="reduce__pre__phase_8hpp.html" target="_top" xlink:title="thrill/core/reduce\l_pre_phase.hpp">
<polygon fill="none" stroke="black" points="1178.5,-205 1178.5,-235 1267.5,-235 1267.5,-205 1178.5,-205"/>
<text text-anchor="start" x="1186.5" y="-223" font-family="Helvetica,sans-Serif" font-size="10.00">thrill/core/reduce</text>
<text text-anchor="middle" x="1223" y="-212" font-family="Helvetica,sans-Serif" font-size="10.00">_pre_phase.hpp</text>
</a>
</g>
</g>
<!-- Node14&#45;&gt;Node15 -->
<g id="edge17" class="edge"><title>Node14&#45;&gt;Node15</title>
<path fill="none" stroke="midnightblue" d="M1435.14,-271.809C1371.38,-255.984 1308.55,-241.065 1267.52,-231.414"/>
<polygon fill="midnightblue" stroke="midnightblue" points="1434.42,-275.236 1444.97,-274.253 1436.11,-268.443 1434.42,-275.236"/>
</g>
<!-- Node16 -->
<g id="node16" class="node"><title>Node16</title>
<g id="a_node16"><a xlink:href="reduce__by__key_8hpp.html" target="_top" xlink:title="thrill/api/reduce_by\l_key.hpp">
<polygon fill="none" stroke="black" points="834,-137 834,-167 932,-167 932,-137 834,-137"/>
<text text-anchor="start" x="842" y="-155" font-family="Helvetica,sans-Serif" font-size="10.00">thrill/api/reduce_by</text>
<text text-anchor="middle" x="883" y="-144" font-family="Helvetica,sans-Serif" font-size="10.00">_key.hpp</text>
</a>
</g>
</g>
<!-- Node15&#45;&gt;Node16 -->
<g id="edge18" class="edge"><title>Node15&#45;&gt;Node16</title>
<path fill="none" stroke="midnightblue" d="M1168.1,-208.342C1102.76,-195.66 994.664,-174.676 932.029,-162.517"/>
<polygon fill="midnightblue" stroke="midnightblue" points="1167.72,-211.834 1178.2,-210.304 1169.05,-204.962 1167.72,-211.834"/>
</g>
<!-- Node26 -->
<g id="node26" class="node"><title>Node26</title>
<g id="a_node26"><a xlink:href="reduce__to__index_8hpp.html" target="_top" xlink:title="thrill/api/reduce_to\l_index.hpp">
<polygon fill="none" stroke="black" points="1175,-137 1175,-167 1271,-167 1271,-137 1175,-137"/>
<text text-anchor="start" x="1183" y="-155" font-family="Helvetica,sans-Serif" font-size="10.00">thrill/api/reduce_to</text>
<text text-anchor="middle" x="1223" y="-144" font-family="Helvetica,sans-Serif" font-size="10.00">_index.hpp</text>
</a>
</g>
</g>
<!-- Node15&#45;&gt;Node26 -->
<g id="edge30" class="edge"><title>Node15&#45;&gt;Node26</title>
<path fill="none" stroke="midnightblue" d="M1223,-194.532C1223,-185.361 1223,-175.245 1223,-167.293"/>
<polygon fill="midnightblue" stroke="midnightblue" points="1219.5,-194.679 1223,-204.679 1226.5,-194.679 1219.5,-194.679"/>
</g>
<!-- Node16&#45;&gt;Node5 -->
<g id="edge19" class="edge"><title>Node16&#45;&gt;Node5</title>
<path fill="none" stroke="midnightblue" d="M942.19,-143.075C1001.53,-134.566 1095.28,-119.587 1175,-100 1182.32,-98.2016 1190.16,-95.8671 1197.3,-93.5777"/>
<polygon fill="midnightblue" stroke="midnightblue" points="941.655,-139.616 932.247,-144.486 942.639,-146.546 941.655,-139.616"/>
</g>
<!-- Node16&#45;&gt;Node10 -->
<g id="edge22" class="edge"><title>Node16&#45;&gt;Node10</title>
<path fill="none" stroke="midnightblue" d="M848.005,-131.912C828.822,-121.448 805.45,-108.7 787.915,-99.1352"/>
<polygon fill="midnightblue" stroke="midnightblue" points="846.587,-135.125 857.042,-136.841 849.939,-128.98 846.587,-135.125"/>
</g>
<!-- Node17 -->
<g id="node17" class="node"><title>Node17</title>
<g id="a_node17"><a xlink:href="k-means_8hpp.html" target="_top" xlink:title="examples/k&#45;means/k\l&#45;means.hpp">
<polygon fill="none" stroke="black" points="583.5,-69 583.5,-99 690.5,-99 690.5,-69 583.5,-69"/>
<text text-anchor="start" x="591.5" y="-87" font-family="Helvetica,sans-Serif" font-size="10.00">examples/k&#45;means/k</text>
<text text-anchor="middle" x="637" y="-76" font-family="Helvetica,sans-Serif" font-size="10.00">&#45;means.hpp</text>
</a>
</g>
</g>
<!-- Node16&#45;&gt;Node17 -->
<g id="edge20" class="edge"><title>Node16&#45;&gt;Node17</title>
<path fill="none" stroke="midnightblue" d="M823.963,-135.161C783.013,-124.174 728.957,-109.671 689.507,-99.0872"/>
<polygon fill="midnightblue" stroke="midnightblue" points="823.244,-138.592 833.809,-137.803 825.058,-131.831 823.244,-138.592"/>
</g>
<!-- Node19 -->
<g id="node19" class="node"><title>Node19</title>
<g id="a_node19"><a xlink:href="k-means__step3_8cpp.html" target="_top" xlink:title="examples/tutorial/k\l&#45;means_step3.cpp">
<polygon fill="none" stroke="black" points="833.5,-69 833.5,-99 932.5,-99 932.5,-69 833.5,-69"/>
<text text-anchor="start" x="841.5" y="-87" font-family="Helvetica,sans-Serif" font-size="10.00">examples/tutorial/k</text>
<text text-anchor="middle" x="883" y="-76" font-family="Helvetica,sans-Serif" font-size="10.00">&#45;means_step3.cpp</text>
</a>
</g>
</g>
<!-- Node16&#45;&gt;Node19 -->
<g id="edge23" class="edge"><title>Node16&#45;&gt;Node19</title>
<path fill="none" stroke="midnightblue" d="M883,-126.532C883,-117.361 883,-107.245 883,-99.2931"/>
<polygon fill="midnightblue" stroke="midnightblue" points="879.5,-126.679 883,-136.679 886.5,-126.679 879.5,-126.679"/>
</g>
<!-- Node20 -->
<g id="node20" class="node"><title>Node20</title>
<g id="a_node20"><a xlink:href="k-means__step4_8cpp.html" target="_top" xlink:title="examples/tutorial/k\l&#45;means_step4.cpp">
<polygon fill="none" stroke="black" points="950.5,-69 950.5,-99 1049.5,-99 1049.5,-69 950.5,-69"/>
<text text-anchor="start" x="958.5" y="-87" font-family="Helvetica,sans-Serif" font-size="10.00">examples/tutorial/k</text>
<text text-anchor="middle" x="1000" y="-76" font-family="Helvetica,sans-Serif" font-size="10.00">&#45;means_step4.cpp</text>
</a>
</g>
</g>
<!-- Node16&#45;&gt;Node20 -->
<g id="edge24" class="edge"><title>Node16&#45;&gt;Node20</title>
<path fill="none" stroke="midnightblue" d="M916.838,-131.912C935.387,-121.448 957.987,-108.7 974.942,-99.1352"/>
<polygon fill="midnightblue" stroke="midnightblue" points="915.09,-128.88 908.099,-136.841 918.529,-134.977 915.09,-128.88"/>
</g>
<!-- Node21 -->
<g id="node21" class="node"><title>Node21</title>
<g id="a_node21"><a xlink:href="k-means__step5_8cpp.html" target="_top" xlink:title="examples/tutorial/k\l&#45;means_step5.cpp">
<polygon fill="none" stroke="black" points="1067.5,-69 1067.5,-99 1166.5,-99 1166.5,-69 1067.5,-69"/>
<text text-anchor="start" x="1075.5" y="-87" font-family="Helvetica,sans-Serif" font-size="10.00">examples/tutorial/k</text>
<text text-anchor="middle" x="1117" y="-76" font-family="Helvetica,sans-Serif" font-size="10.00">&#45;means_step5.cpp</text>
</a>
</g>
</g>
<!-- Node16&#45;&gt;Node21 -->
<g id="edge25" class="edge"><title>Node16&#45;&gt;Node21</title>
<path fill="none" stroke="midnightblue" d="M942.121,-134.325C980.741,-123.432 1030.61,-109.367 1067.2,-99.0449"/>
<polygon fill="midnightblue" stroke="midnightblue" points="940.728,-131.081 932.054,-137.164 942.629,-137.818 940.728,-131.081"/>
</g>
<!-- Node22 -->
<g id="node22" class="node"><title>Node22</title>
<g id="a_node22"><a xlink:href="k-means__step6_8cpp.html" target="_top" xlink:title="examples/tutorial/k\l&#45;means_step6.cpp">
<polygon fill="none" stroke="black" points="195.5,-69 195.5,-99 294.5,-99 294.5,-69 195.5,-69"/>
<text text-anchor="start" x="203.5" y="-87" font-family="Helvetica,sans-Serif" font-size="10.00">examples/tutorial/k</text>
<text text-anchor="middle" x="245" y="-76" font-family="Helvetica,sans-Serif" font-size="10.00">&#45;means_step6.cpp</text>
</a>
</g>
</g>
<!-- Node16&#45;&gt;Node22 -->
<g id="edge26" class="edge"><title>Node16&#45;&gt;Node22</title>
<path fill="none" stroke="midnightblue" d="M824.304,-136.049C824.202,-136.033 824.101,-136.016 824,-136 595.259,-99.3109 532.741,-136.689 304,-100 300.974,-99.5146 297.876,-98.9467 294.762,-98.3212"/>
<polygon fill="midnightblue" stroke="midnightblue" points="823.415,-139.444 833.883,-137.809 824.68,-132.559 823.415,-139.444"/>
</g>
<!-- Node23 -->
<g id="node23" class="node"><title>Node23</title>
<g id="a_node23"><a xlink:href="word__count_8hpp.html" target="_top" xlink:title="examples/word_count\l/word_count.hpp">
<polygon fill="none" stroke="black" points="313,-69 313,-99 425,-99 425,-69 313,-69"/>
<text text-anchor="start" x="321" y="-87" font-family="Helvetica,sans-Serif" font-size="10.00">examples/word_count</text>
<text text-anchor="middle" x="369" y="-76" font-family="Helvetica,sans-Serif" font-size="10.00">/word_count.hpp</text>
</a>
</g>
</g>
<!-- Node16&#45;&gt;Node23 -->
<g id="edge27" class="edge"><title>Node16&#45;&gt;Node23</title>
<path fill="none" stroke="midnightblue" d="M824.303,-136.052C824.202,-136.035 824.101,-136.017 824,-136 652.454,-106.464 605.863,-127.633 434,-100 431.141,-99.5404 428.221,-99.0275 425.279,-98.4761"/>
<polygon fill="midnightblue" stroke="midnightblue" points="823.387,-139.44 833.869,-137.895 824.711,-132.567 823.387,-139.44"/>
</g>
<!-- Node25 -->
<g id="node25" class="node"><title>Node25</title>
<g id="a_node25"><a xlink:href="word__count__simple_8cpp.html" target="_top" xlink:title="examples/word_count\l/word_count_simple.cpp">
<polygon fill="none" stroke="black" points="443,-69 443,-99 565,-99 565,-69 443,-69"/>
<text text-anchor="start" x="451" y="-87" font-family="Helvetica,sans-Serif" font-size="10.00">examples/word_count</text>
<text text-anchor="middle" x="504" y="-76" font-family="Helvetica,sans-Serif" font-size="10.00">/word_count_simple.cpp</text>
</a>
</g>
</g>
<!-- Node16&#45;&gt;Node25 -->
<g id="edge29" class="edge"><title>Node16&#45;&gt;Node25</title>
<path fill="none" stroke="midnightblue" d="M824.302,-136.06C824.201,-136.04 824.1,-136.02 824,-136 713.892,-114.139 684.502,-119.772 574,-100 571.064,-99.4746 568.063,-98.9159 565.035,-98.3347"/>
<polygon fill="midnightblue" stroke="midnightblue" points="823.324,-139.43 833.833,-138.085 824.779,-132.583 823.324,-139.43"/>
</g>
<!-- Node18 -->
<g id="node18" class="node"><title>Node18</title>
<g id="a_node18"><a xlink:href="k-means__run_8cpp.html" target="_top" xlink:title="examples/k&#45;means/k\l&#45;means_run.cpp">
<polygon fill="none" stroke="black" points="583.5,-1 583.5,-31 690.5,-31 690.5,-1 583.5,-1"/>
<text text-anchor="start" x="591.5" y="-19" font-family="Helvetica,sans-Serif" font-size="10.00">examples/k&#45;means/k</text>
<text text-anchor="middle" x="637" y="-8" font-family="Helvetica,sans-Serif" font-size="10.00">&#45;means_run.cpp</text>
</a>
</g>
</g>
<!-- Node17&#45;&gt;Node18 -->
<g id="edge21" class="edge"><title>Node17&#45;&gt;Node18</title>
<path fill="none" stroke="midnightblue" d="M637,-58.5322C637,-49.3606 637,-39.2449 637,-31.2931"/>
<polygon fill="midnightblue" stroke="midnightblue" points="633.5,-58.6789 637,-68.679 640.5,-58.679 633.5,-58.6789"/>
</g>
<!-- Node24 -->
<g id="node24" class="node"><title>Node24</title>
<g id="a_node24"><a xlink:href="word__count__run_8cpp.html" target="_top" xlink:title="examples/word_count\l/word_count_run.cpp">
<polygon fill="none" stroke="black" points="313,-1 313,-31 425,-31 425,-1 313,-1"/>
<text text-anchor="start" x="321" y="-19" font-family="Helvetica,sans-Serif" font-size="10.00">examples/word_count</text>
<text text-anchor="middle" x="369" y="-8" font-family="Helvetica,sans-Serif" font-size="10.00">/word_count_run.cpp</text>
</a>
</g>
</g>
<!-- Node23&#45;&gt;Node24 -->
<g id="edge28" class="edge"><title>Node23&#45;&gt;Node24</title>
<path fill="none" stroke="midnightblue" d="M369,-58.5322C369,-49.3606 369,-39.2449 369,-31.2931"/>
<polygon fill="midnightblue" stroke="midnightblue" points="365.5,-58.6789 369,-68.679 372.5,-58.679 365.5,-58.6789"/>
</g>
<!-- Node26&#45;&gt;Node5 -->
<g id="edge31" class="edge"><title>Node26&#45;&gt;Node5</title>
<path fill="none" stroke="midnightblue" d="M1222.63,-126.376C1222.45,-114.971 1222.26,-102.136 1222.13,-93.8283"/>
<polygon fill="midnightblue" stroke="midnightblue" points="1219.13,-126.733 1222.78,-136.679 1226.13,-126.627 1219.13,-126.733"/>
</g>
<!-- Node26&#45;&gt;Node6 -->
<g id="edge32" class="edge"><title>Node26&#45;&gt;Node6</title>
<path fill="none" stroke="midnightblue" d="M1255.19,-131.506C1275.92,-118.954 1301.86,-103.252 1317.66,-93.6819"/>
<polygon fill="midnightblue" stroke="midnightblue" points="1253.12,-128.668 1246.38,-136.841 1256.75,-134.656 1253.12,-128.668"/>
</g>
<!-- Node26&#45;&gt;Node10 -->
<g id="edge33" class="edge"><title>Node26&#45;&gt;Node10</title>
<path fill="none" stroke="midnightblue" d="M1164.72,-145.584C1086.73,-137.874 944.28,-122.167 824,-100 821.277,-99.4982 818.495,-98.9514 815.691,-98.3731"/>
<polygon fill="midnightblue" stroke="midnightblue" points="1164.54,-149.083 1174.83,-146.574 1165.22,-142.116 1164.54,-149.083"/>
</g>
<!-- Node27 -->
<g id="node27" class="node"><title>Node27</title>
<g id="a_node27"><a xlink:href="prefix__doubling_8cpp.html" target="_top" xlink:title="examples/suffix_sorting\l/prefix_doubling.cpp">
<polygon fill="none" stroke="black" points="1571,-69 1571,-99 1691,-99 1691,-69 1571,-69"/>
<text text-anchor="start" x="1579" y="-87" font-family="Helvetica,sans-Serif" font-size="10.00">examples/suffix_sorting</text>
<text text-anchor="middle" x="1631" y="-76" font-family="Helvetica,sans-Serif" font-size="10.00">/prefix_doubling.cpp</text>
</a>
</g>
</g>
<!-- Node26&#45;&gt;Node27 -->
<g id="edge34" class="edge"><title>Node26&#45;&gt;Node27</title>
<path fill="none" stroke="midnightblue" d="M1281.22,-142.414C1370.59,-129.206 1534.09,-104.909 1561,-100 1564.18,-99.4201 1567.43,-98.8033 1570.72,-98.163"/>
<polygon fill="midnightblue" stroke="midnightblue" points="1280.62,-138.966 1271.23,-143.89 1281.64,-145.891 1280.62,-138.966"/>
</g>
<!-- Node28&#45;&gt;Node5 -->
<g id="edge37" class="edge"><title>Node28&#45;&gt;Node5</title>
<path fill="none" stroke="midnightblue" d="M1858.94,-218.306C1731.76,-216.054 1421.1,-206.643 1325,-168 1314.19,-163.652 1255.76,-114.009 1232.03,-93.6405"/>
<polygon fill="midnightblue" stroke="midnightblue" points="1859.17,-221.811 1869.23,-218.48 1859.29,-214.812 1859.17,-221.811"/>
</g>
<!-- Node28&#45;&gt;Node6 -->
<g id="edge38" class="edge"><title>Node28&#45;&gt;Node6</title>
<path fill="none" stroke="midnightblue" d="M1859.29,-216.18C1784.33,-211.307 1646,-198.698 1532,-168 1461.03,-148.889 1381.82,-110.562 1348.34,-93.5138"/>
<polygon fill="midnightblue" stroke="midnightblue" points="1859.24,-219.683 1869.44,-216.817 1859.68,-212.697 1859.24,-219.683"/>
</g>
<!-- Node28&#45;&gt;Node8 -->
<g id="edge39" class="edge"><title>Node28&#45;&gt;Node8</title>
<path fill="none" stroke="midnightblue" d="M1859.21,-215.3C1775.78,-208.92 1621.43,-193.968 1573,-168 1542.71,-151.755 1518.45,-118.296 1506.36,-99.1928"/>
<polygon fill="midnightblue" stroke="midnightblue" points="1859.04,-218.797 1869.27,-216.054 1859.56,-211.816 1859.04,-218.797"/>
</g>
<!-- Node28&#45;&gt;Node27 -->
<g id="edge55" class="edge"><title>Node28&#45;&gt;Node27</title>
<path fill="none" stroke="midnightblue" d="M1859.21,-218.816C1774.52,-217.237 1617.93,-208.724 1583,-168 1564.47,-146.394 1592.11,-116.619 1612.51,-99.2288"/>
<polygon fill="midnightblue" stroke="midnightblue" points="1859.36,-222.319 1869.41,-218.979 1859.47,-215.32 1859.36,-222.319"/>
</g>
<!-- Node29 -->
<g id="node29" class="node"><title>Node29</title>
<g id="a_node29"><a xlink:href="check__sa_8hpp.html" target="_top" xlink:title="examples/suffix_sorting\l/check_sa.hpp">
<polygon fill="none" stroke="black" points="1602,-137 1602,-167 1722,-167 1722,-137 1602,-137"/>
<text text-anchor="start" x="1610" y="-155" font-family="Helvetica,sans-Serif" font-size="10.00">examples/suffix_sorting</text>
<text text-anchor="middle" x="1662" y="-144" font-family="Helvetica,sans-Serif" font-size="10.00">/check_sa.hpp</text>
</a>
</g>
</g>
<!-- Node28&#45;&gt;Node29 -->
<g id="edge40" class="edge"><title>Node28&#45;&gt;Node29</title>
<path fill="none" stroke="midnightblue" d="M1871.48,-207.863C1828.6,-196.634 1762.29,-179.267 1715.79,-167.087"/>
<polygon fill="midnightblue" stroke="midnightblue" points="1870.75,-211.291 1881.31,-210.439 1872.53,-204.52 1870.75,-211.291"/>
</g>
<!-- Node30 -->
<g id="node30" class="node"><title>Node30</title>
<g id="a_node30"><a xlink:href="dc3_8cpp.html" target="_top" xlink:title="examples/suffix_sorting\l/dc3.cpp">
<polygon fill="none" stroke="black" points="1847,-69 1847,-99 1967,-99 1967,-69 1847,-69"/>
<text text-anchor="start" x="1855" y="-87" font-family="Helvetica,sans-Serif" font-size="10.00">examples/suffix_sorting</text>
<text text-anchor="middle" x="1907" y="-76" font-family="Helvetica,sans-Serif" font-size="10.00">/dc3.cpp</text>
</a>
</g>
</g>
<!-- Node28&#45;&gt;Node30 -->
<g id="edge53" class="edge"><title>Node28&#45;&gt;Node30</title>
<path fill="none" stroke="midnightblue" d="M1859.04,-214.894C1827.13,-209.356 1789.32,-196.688 1769,-168 1744.11,-132.866 1799.11,-109.967 1846.88,-97.2965"/>
<polygon fill="midnightblue" stroke="midnightblue" points="1858.75,-218.391 1869.17,-216.453 1859.81,-211.472 1858.75,-218.391"/>
</g>
<!-- Node31 -->
<g id="node31" class="node"><title>Node31</title>
<g id="a_node31"><a xlink:href="dc7_8cpp.html" target="_top" xlink:title="examples/suffix_sorting\l/dc7.cpp">
<polygon fill="none" stroke="black" points="2008,-69 2008,-99 2128,-99 2128,-69 2008,-69"/>
<text text-anchor="start" x="2016" y="-87" font-family="Helvetica,sans-Serif" font-size="10.00">examples/suffix_sorting</text>
<text text-anchor="middle" x="2068" y="-76" font-family="Helvetica,sans-Serif" font-size="10.00">/dc7.cpp</text>
</a>
</g>
</g>
<!-- Node28&#45;&gt;Node31 -->
<g id="edge54" class="edge"><title>Node28&#45;&gt;Node31</title>
<path fill="none" stroke="midnightblue" d="M1968.91,-217.116C2004.84,-212.677 2049.37,-200.401 2073,-168 2087.72,-147.823 2080.26,-117.012 2073.88,-99.1541"/>
<polygon fill="midnightblue" stroke="midnightblue" points="1968.12,-213.68 1958.55,-218.214 1968.86,-220.641 1968.12,-213.68"/>
</g>
<!-- Node32 -->
<g id="node32" class="node"><title>Node32</title>
<g id="a_node32"><a xlink:href="prefix__quadrupling_8cpp.html" target="_top" xlink:title="examples/suffix_sorting\l/prefix_quadrupling.cpp">
<polygon fill="none" stroke="black" points="1709,-69 1709,-99 1829,-99 1829,-69 1709,-69"/>
<text text-anchor="start" x="1717" y="-87" font-family="Helvetica,sans-Serif" font-size="10.00">examples/suffix_sorting</text>
<text text-anchor="middle" x="1769" y="-76" font-family="Helvetica,sans-Serif" font-size="10.00">/prefix_quadrupling.cpp</text>
</a>
</g>
</g>
<!-- Node28&#45;&gt;Node32 -->
<g id="edge56" class="edge"><title>Node28&#45;&gt;Node32</title>
<path fill="none" stroke="midnightblue" d="M1858.98,-218.509C1776.42,-216.473 1626.55,-207.305 1593,-168 1583.77,-157.183 1584.46,-147.37 1593,-136 1600.24,-126.367 1660.55,-110.274 1708.58,-98.7411"/>
<polygon fill="midnightblue" stroke="midnightblue" points="1859.12,-222.013 1869.19,-218.733 1859.27,-215.014 1859.12,-222.013"/>
</g>
<!-- Node34 -->
<g id="node34" class="node"><title>Node34</title>
<g id="a_node34"><a xlink:href="construct__bwt_8hpp.html" target="_top" xlink:title="examples/suffix_sorting\l/construct_bwt.hpp">
<polygon fill="none" stroke="black" points="2258,-137 2258,-167 2378,-167 2378,-137 2258,-137"/>
<text text-anchor="start" x="2266" y="-155" font-family="Helvetica,sans-Serif" font-size="10.00">examples/suffix_sorting</text>
<text text-anchor="middle" x="2318" y="-144" font-family="Helvetica,sans-Serif" font-size="10.00">/construct_bwt.hpp</text>
</a>
</g>
</g>
<!-- Node28&#45;&gt;Node34 -->
<g id="edge46" class="edge"><title>Node28&#45;&gt;Node34</title>
<path fill="none" stroke="midnightblue" d="M1968.93,-211.635C2035.26,-202.507 2150.1,-185.946 2248,-168 2251.18,-167.417 2254.43,-166.798 2257.72,-166.156"/>
<polygon fill="midnightblue" stroke="midnightblue" points="1968.14,-208.21 1958.71,-213.036 1969.09,-215.145 1968.14,-208.21"/>
</g>
<!-- Node35 -->
<g id="node35" class="node"><title>Node35</title>
<g id="a_node35"><a xlink:href="construct__lcp_8hpp.html" target="_top" xlink:title="examples/suffix_sorting\l/construct_lcp.hpp">
<polygon fill="none" stroke="black" points="2120,-137 2120,-167 2240,-167 2240,-137 2120,-137"/>
<text text-anchor="start" x="2128" y="-155" font-family="Helvetica,sans-Serif" font-size="10.00">examples/suffix_sorting</text>
<text text-anchor="middle" x="2180" y="-144" font-family="Helvetica,sans-Serif" font-size="10.00">/construct_lcp.hpp</text>
</a>
</g>
</g>
<!-- Node28&#45;&gt;Node35 -->
<g id="edge48" class="edge"><title>Node28&#45;&gt;Node35</title>
<path fill="none" stroke="midnightblue" d="M1958.33,-208.001C2003.64,-196.758 2074.18,-179.257 2123.48,-167.025"/>
<polygon fill="midnightblue" stroke="midnightblue" points="1957.36,-204.634 1948.5,-210.439 1959.05,-211.428 1957.36,-204.634"/>
</g>
<!-- Node28&#45;&gt;Node36 -->
<g id="edge50" class="edge"><title>Node28&#45;&gt;Node36</title>
<path fill="none" stroke="midnightblue" d="M1968.83,-214.929C2057.07,-207.961 2235.9,-192.125 2386,-168 2389.19,-167.487 2392.45,-166.924 2395.75,-166.325"/>
<polygon fill="midnightblue" stroke="midnightblue" points="1968.48,-211.445 1958.78,-215.714 1969.03,-218.424 1968.48,-211.445"/>
</g>
<!-- Node38 -->
<g id="node38" class="node"><title>Node38</title>
<g id="a_node38"><a xlink:href="rl__bwt_8cpp.html" target="_top" xlink:title="examples/suffix_sorting\l/rl_bwt.cpp">
<polygon fill="none" stroke="black" points="1778,-137 1778,-167 1898,-167 1898,-137 1778,-137"/>
<text text-anchor="start" x="1786" y="-155" font-family="Helvetica,sans-Serif" font-size="10.00">examples/suffix_sorting</text>
<text text-anchor="middle" x="1838" y="-144" font-family="Helvetica,sans-Serif" font-size="10.00">/rl_bwt.cpp</text>
</a>
</g>
</g>
<!-- Node28&#45;&gt;Node38 -->
<g id="edge57" class="edge"><title>Node28&#45;&gt;Node38</title>
<path fill="none" stroke="midnightblue" d="M1896.44,-203.752C1883.75,-192.731 1866.73,-177.949 1854.33,-167.181"/>
<polygon fill="midnightblue" stroke="midnightblue" points="1894.22,-206.457 1904.06,-210.372 1898.81,-201.172 1894.22,-206.457"/>
</g>
<!-- Node28&#45;&gt;Node39 -->
<g id="edge58" class="edge"><title>Node28&#45;&gt;Node39</title>
<path fill="none" stroke="midnightblue" d="M1968.86,-216.764C2076.03,-211.877 2320.53,-198.18 2524,-168 2527.2,-167.526 2530.47,-166.993 2533.76,-166.419"/>
<polygon fill="midnightblue" stroke="midnightblue" points="1968.45,-213.279 1958.62,-217.223 1968.76,-220.272 1968.45,-213.279"/>
</g>
<!-- Node28&#45;&gt;Node40 -->
<g id="edge59" class="edge"><title>Node28&#45;&gt;Node40</title>
<path fill="none" stroke="midnightblue" d="M1968.93,-217.941C2093.04,-214.961 2404.36,-204.198 2662,-168 2665.2,-167.55 2668.47,-167.037 2671.77,-166.479"/>
<polygon fill="midnightblue" stroke="midnightblue" points="1968.83,-214.442 1958.92,-218.174 1968.99,-221.44 1968.83,-214.442"/>
</g>
<!-- Node41 -->
<g id="node41" class="node"><title>Node41</title>
<g id="a_node41"><a xlink:href="terasort_8cpp.html" target="_top" xlink:title="examples/terasort/terasort.cpp">
<polygon fill="none" stroke="black" points="1915.5,-142.5 1915.5,-161.5 2064.5,-161.5 2064.5,-142.5 1915.5,-142.5"/>
<text text-anchor="middle" x="1990" y="-149.5" font-family="Helvetica,sans-Serif" font-size="10.00">examples/terasort/terasort.cpp</text>
</a>
</g>
</g>
<!-- Node28&#45;&gt;Node41 -->
<g id="edge60" class="edge"><title>Node28&#45;&gt;Node41</title>
<path fill="none" stroke="midnightblue" d="M1931.53,-203.774C1946.49,-190.784 1967.48,-172.555 1979.82,-161.841"/>
<polygon fill="midnightblue" stroke="midnightblue" points="1929.19,-201.172 1923.94,-210.372 1933.78,-206.457 1929.19,-201.172"/>
</g>
<!-- Node29&#45;&gt;Node27 -->
<g id="edge43" class="edge"><title>Node29&#45;&gt;Node27</title>
<path fill="none" stroke="midnightblue" d="M1650.93,-127.426C1646.51,-118.023 1641.57,-107.504 1637.71,-99.2931"/>
<polygon fill="midnightblue" stroke="midnightblue" points="1647.85,-129.116 1655.27,-136.679 1654.19,-126.14 1647.85,-129.116"/>
</g>
<!-- Node29&#45;&gt;Node30 -->
<g id="edge41" class="edge"><title>Node29&#45;&gt;Node30</title>
<path fill="none" stroke="midnightblue" d="M1724,-134.298C1764.41,-123.413 1816.54,-109.368 1854.82,-99.0561"/>
<polygon fill="midnightblue" stroke="midnightblue" points="1723,-130.942 1714.26,-136.922 1724.82,-137.701 1723,-130.942"/>
</g>
<!-- Node29&#45;&gt;Node31 -->
<g id="edge42" class="edge"><title>Node29&#45;&gt;Node31</title>
<path fill="none" stroke="midnightblue" d="M1732.55,-139.531C1810.46,-126.866 1934.57,-106.69 2007.99,-94.7557"/>
<polygon fill="midnightblue" stroke="midnightblue" points="1731.65,-136.131 1722.34,-141.19 1732.78,-143.04 1731.65,-136.131"/>
</g>
<!-- Node29&#45;&gt;Node32 -->
<g id="edge44" class="edge"><title>Node29&#45;&gt;Node32</title>
<path fill="none" stroke="midnightblue" d="M1693.87,-131.339C1710.66,-120.986 1730.86,-108.526 1746.08,-99.1352"/>
<polygon fill="midnightblue" stroke="midnightblue" points="1691.63,-128.613 1684.95,-136.841 1695.3,-134.57 1691.63,-128.613"/>
</g>
<!-- Node33 -->
<g id="node33" class="node"><title>Node33</title>
<g id="a_node33"><a xlink:href="suffix__sorting_8cpp.html" target="_top" xlink:title="examples/suffix_sorting\l/suffix_sorting.cpp">
<polygon fill="none" stroke="black" points="2202,-69 2202,-99 2322,-99 2322,-69 2202,-69"/>
<text text-anchor="start" x="2210" y="-87" font-family="Helvetica,sans-Serif" font-size="10.00">examples/suffix_sorting</text>
<text text-anchor="middle" x="2262" y="-76" font-family="Helvetica,sans-Serif" font-size="10.00">/suffix_sorting.cpp</text>
</a>
</g>
</g>
<!-- Node29&#45;&gt;Node33 -->
<g id="edge45" class="edge"><title>Node29&#45;&gt;Node33</title>
<path fill="none" stroke="midnightblue" d="M1732.35,-140.714C1744.56,-139.05 1757.14,-137.412 1769,-136 1931.74,-116.619 1973.06,-117.688 2136,-100 2157.46,-97.67 2180.96,-94.9258 2201.78,-92.4258"/>
<polygon fill="midnightblue" stroke="midnightblue" points="1731.64,-137.279 1722.21,-142.113 1732.6,-144.213 1731.64,-137.279"/>
</g>
<!-- Node34&#45;&gt;Node33 -->
<g id="edge47" class="edge"><title>Node34&#45;&gt;Node33</title>
<path fill="none" stroke="midnightblue" d="M2299.25,-128.901C2290.96,-119.136 2281.46,-107.936 2274.13,-99.2931"/>
<polygon fill="midnightblue" stroke="midnightblue" points="2296.71,-131.318 2305.85,-136.679 2302.05,-126.789 2296.71,-131.318"/>
</g>
<!-- Node35&#45;&gt;Node33 -->
<g id="edge49" class="edge"><title>Node35&#45;&gt;Node33</title>
<path fill="none" stroke="midnightblue" d="M2205.71,-130.309C2218.34,-120.143 2233.23,-108.156 2244.52,-99.0663"/>
<polygon fill="midnightblue" stroke="midnightblue" points="2203.39,-127.682 2197.79,-136.679 2207.78,-133.135 2203.39,-127.682"/>
</g>
<!-- Node36&#45;&gt;Node33 -->
<g id="edge51" class="edge"><title>Node36&#45;&gt;Node33</title>
<path fill="none" stroke="midnightblue" d="M2404.83,-133.592C2373.1,-122.798 2332.89,-109.116 2303.22,-99.0218"/>
<polygon fill="midnightblue" stroke="midnightblue" points="2403.79,-136.934 2414.38,-136.841 2406.04,-130.307 2403.79,-136.934"/>
</g>
<!-- Node37 -->
<g id="node37" class="node"><title>Node37</title>
<g id="a_node37"><a xlink:href="wavelet__tree3_8cpp.html" target="_top" xlink:title="examples/suffix_sorting\l/wavelet_tree3.cpp">
<polygon fill="none" stroke="black" points="2396,-69 2396,-99 2516,-99 2516,-69 2396,-69"/>
<text text-anchor="start" x="2404" y="-87" font-family="Helvetica,sans-Serif" font-size="10.00">examples/suffix_sorting</text>
<text text-anchor="middle" x="2456" y="-76" font-family="Helvetica,sans-Serif" font-size="10.00">/wavelet_tree3.cpp</text>
</a>
</g>
</g>
<!-- Node36&#45;&gt;Node37 -->
<g id="edge52" class="edge"><title>Node36&#45;&gt;Node37</title>
<path fill="none" stroke="midnightblue" d="M2456,-126.532C2456,-117.361 2456,-107.245 2456,-99.2931"/>
<polygon fill="midnightblue" stroke="midnightblue" points="2452.5,-126.679 2456,-136.679 2459.5,-126.679 2452.5,-126.679"/>
</g>
</g>
</svg>
