<?xml version="1.0" encoding="UTF-8" standalone="no"?>
<!DOCTYPE svg PUBLIC "-//W3C//DTD SVG 1.1//EN"
 "http://www.w3.org/Graphics/SVG/1.1/DTD/svg11.dtd">
<!-- Generated by graphviz version 2.26.3 (20100126.1600)
 -->
<!-- Title: thrill/io/iostats.hpp Pages: 1 -->
<svg width="1422pt" height="102pt"
 viewBox="0.00 0.00 1422.00 102.00" xmlns="http://www.w3.org/2000/svg" xmlns:xlink="http://www.w3.org/1999/xlink">
<g id="graph1" class="graph" transform="scale(1 1) rotate(0) translate(4 98)">
<title>thrill/io/iostats.hpp</title>
<!-- Node1 -->
<g id="node1" class="node"><title>Node1</title>
<polygon fill="#bfbfbf" stroke="black" points="628,-72.5 628,-93.5 724,-93.5 724,-72.5 628,-72.5"/>
<text text-anchor="middle" x="676" y="-80.5" font-family="Helvetica,sans-Serif" font-size="10.00">thrill/io/iostats.hpp</text>
</g>
<!-- Node2 -->
<g id="node3" class="node"><title>Node2</title>
<a xlink:href="context_8cpp.html" target="_top" xlink:title="thrill/api/context.cpp">
<polygon fill="none" stroke="black" points="0,-7.5 0,-28.5 104,-28.5 104,-7.5 0,-7.5"/>
<text text-anchor="middle" x="52" y="-15.5" font-family="Helvetica,sans-Serif" font-size="10.00">thrill/api/context.cpp</text>
</a>
</g>
<!-- Node1&#45;&gt;Node2 -->
<g id="edge2" class="edge"><title>Node1&#45;&gt;Node2</title>
<path fill="none" stroke="midnightblue" d="M617.557,-82.0289C514.702,-79.4544 294.985,-70.0781 113,-36 103.232,-34.1709 92.7931,-31.4032 83.3618,-28.5828"/>
<polygon fill="midnightblue" stroke="midnightblue" points="617.654,-85.5321 627.734,-82.2709 617.82,-78.5341 617.654,-85.5321"/>
</g>
<!-- Node3 -->
<g id="node5" class="node"><title>Node3</title>
<a xlink:href="block__pool_8cpp.html" target="_top" xlink:title="thrill/data/block_pool.cpp">
<polygon fill="none" stroke="black" points="121.5,-7.5 121.5,-28.5 246.5,-28.5 246.5,-7.5 121.5,-7.5"/>
<text text-anchor="middle" x="184" y="-15.5" font-family="Helvetica,sans-Serif" font-size="10.00">thrill/data/block_pool.cpp</text>
</a>
</g>
<!-- Node1&#45;&gt;Node3 -->
<g id="edge4" class="edge"><title>Node1&#45;&gt;Node3</title>
<path fill="none" stroke="midnightblue" d="M617.629,-79.0261C536.012,-72.8936 383.375,-59.325 255,-36 244.115,-34.0222 232.428,-31.3099 221.742,-28.5906"/>
<polygon fill="midnightblue" stroke="midnightblue" points="617.472,-82.524 627.704,-79.7723 617.99,-75.5431 617.472,-82.524"/>
</g>
<!-- Node4 -->
<g id="node7" class="node"><title>Node4</title>
<a xlink:href="disk__queues_8cpp.html" target="_top" xlink:title="thrill/io/disk_queues.cpp">
<polygon fill="none" stroke="black" points="264,-7.5 264,-28.5 386,-28.5 386,-7.5 264,-7.5"/>
<text text-anchor="middle" x="325" y="-15.5" font-family="Helvetica,sans-Serif" font-size="10.00">thrill/io/disk_queues.cpp</text>
</a>
</g>
<!-- Node1&#45;&gt;Node4 -->
<g id="edge6" class="edge"><title>Node1&#45;&gt;Node4</title>
<path fill="none" stroke="midnightblue" d="M617.871,-74.769C560.855,-66.345 471.575,-52.218 395,-36 384.688,-33.8161 373.607,-31.1273 363.371,-28.5003"/>
<polygon fill="midnightblue" stroke="midnightblue" points="617.38,-78.2343 627.783,-76.2239 618.397,-71.3086 617.38,-78.2343"/>
</g>
<!-- Node5 -->
<g id="node9" class="node"><title>Node5</title>
<a xlink:href="iostats_8cpp.html" target="_top" xlink:title="thrill/io/iostats.cpp">
<polygon fill="none" stroke="black" points="404,-7.5 404,-28.5 500,-28.5 500,-7.5 404,-7.5"/>
<text text-anchor="middle" x="452" y="-15.5" font-family="Helvetica,sans-Serif" font-size="10.00">thrill/io/iostats.cpp</text>
</a>
</g>
<!-- Node1&#45;&gt;Node5 -->
<g id="edge8" class="edge"><title>Node1&#45;&gt;Node5</title>
<path fill="none" stroke="midnightblue" d="M627.14,-69.6858C593.782,-60.489 548.625,-47.8293 509,-36 501.144,-33.6548 492.709,-31.0429 484.8,-28.5522"/>
<polygon fill="midnightblue" stroke="midnightblue" points="626.524,-73.1463 637.094,-72.4241 628.38,-66.397 626.524,-73.1463"/>
</g>
<!-- Node6 -->
<g id="node11" class="node"><title>Node6</title>
<a xlink:href="linuxaio__request_8cpp.html" target="_top" xlink:title="thrill/io/linuxaio\l_request.cpp">
<polygon fill="none" stroke="black" points="517.5,-1 517.5,-35 598.5,-35 598.5,-1 517.5,-1"/>
<text text-anchor="start" x="525.5" y="-22" font-family="Helvetica,sans-Serif" font-size="10.00">thrill/io/linuxaio</text>
<text text-anchor="middle" x="558" y="-9" font-family="Helvetica,sans-Serif" font-size="10.00">_request.cpp</text>
</a>
</g>
<!-- Node1&#45;&gt;Node6 -->
<g id="edge10" class="edge"><title>Node1&#45;&gt;Node6</title>
<path fill="none" stroke="midnightblue" d="M647.569,-67.3389C629.952,-57.6347 607.311,-45.1631 589.201,-35.1869"/>
<polygon fill="midnightblue" stroke="midnightblue" points="646.331,-70.6527 656.779,-72.412 649.708,-64.5214 646.331,-70.6527"/>
</g>
<!-- Node7 -->
<g id="node13" class="node"><title>Node7</title>
<a xlink:href="memory__file_8cpp.html" target="_top" xlink:title="thrill/io/memory_file.cpp">
<polygon fill="none" stroke="black" points="616,-7.5 616,-28.5 736,-28.5 736,-7.5 616,-7.5"/>
<text text-anchor="middle" x="676" y="-15.5" font-family="Helvetica,sans-Serif" font-size="10.00">thrill/io/memory_file.cpp</text>
</a>
</g>
<!-- Node1&#45;&gt;Node7 -->
<g id="edge12" class="edge"><title>Node1&#45;&gt;Node7</title>
<path fill="none" stroke="midnightblue" d="M676,-62.0142C676,-50.8307 676,-37.5583 676,-28.5337"/>
<polygon fill="midnightblue" stroke="midnightblue" points="672.5,-62.2665 676,-72.2666 679.5,-62.2666 672.5,-62.2665"/>
</g>
<!-- Node8 -->
<g id="node15" class="node"><title>Node8</title>
<a xlink:href="mmap__file_8cpp.html" target="_top" xlink:title="thrill/io/mmap_file.cpp">
<polygon fill="none" stroke="black" points="754,-7.5 754,-28.5 866,-28.5 866,-7.5 754,-7.5"/>
<text text-anchor="middle" x="810" y="-15.5" font-family="Helvetica,sans-Serif" font-size="10.00">thrill/io/mmap_file.cpp</text>
</a>
</g>
<!-- Node1&#45;&gt;Node8 -->
<g id="edge14" class="edge"><title>Node1&#45;&gt;Node8</title>
<path fill="none" stroke="midnightblue" d="M706.851,-68.0348C731.726,-55.9686 766.09,-39.2997 788.182,-28.5835"/>
<polygon fill="midnightblue" stroke="midnightblue" points="705.297,-64.8985 697.828,-72.412 708.353,-71.1966 705.297,-64.8985"/>
</g>
<!-- Node9 -->
<g id="node17" class="node"><title>Node9</title>
<a xlink:href="request_8cpp.html" target="_top" xlink:title="thrill/io/request.cpp">
<polygon fill="none" stroke="black" points="883.5,-7.5 883.5,-28.5 982.5,-28.5 982.5,-7.5 883.5,-7.5"/>
<text text-anchor="middle" x="933" y="-15.5" font-family="Helvetica,sans-Serif" font-size="10.00">thrill/io/request.cpp</text>
</a>
</g>
<!-- Node1&#45;&gt;Node9 -->
<g id="edge16" class="edge"><title>Node1&#45;&gt;Node9</title>
<path fill="none" stroke="midnightblue" d="M733.896,-70.4345C773.746,-61.5151 827.801,-48.8812 875,-36 883.239,-33.7515 892.07,-31.1239 900.295,-28.5821"/>
<polygon fill="midnightblue" stroke="midnightblue" points="733.084,-67.0296 724.084,-72.62 734.605,-73.8622 733.084,-67.0296"/>
</g>
<!-- Node10 -->
<g id="node19" class="node"><title>Node10</title>
<a xlink:href="request__operations_8hpp.html" target="_top" xlink:title="thrill/io/request_operations.hpp">
<polygon fill="none" stroke="black" points="999.5,-7.5 999.5,-28.5 1148.5,-28.5 1148.5,-7.5 999.5,-7.5"/>
<text text-anchor="middle" x="1074" y="-15.5" font-family="Helvetica,sans-Serif" font-size="10.00">thrill/io/request_operations.hpp</text>
</a>
</g>
<!-- Node1&#45;&gt;Node10 -->
<g id="edge18" class="edge"><title>Node1&#45;&gt;Node10</title>
<path fill="none" stroke="midnightblue" d="M734.388,-75.4526C797.767,-66.9889 901.865,-52.2969 991,-36 1003.04,-33.7989 1016,-31.133 1028.01,-28.535"/>
<polygon fill="midnightblue" stroke="midnightblue" points="733.643,-72.0207 724.191,-76.8074 734.565,-78.9597 733.643,-72.0207"/>
</g>
<!-- Node11 -->
<g id="node21" class="node"><title>Node11</title>
<a xlink:href="syscall__file_8cpp.html" target="_top" xlink:title="thrill/io/syscall_file.cpp">
<polygon fill="none" stroke="black" points="1166,-7.5 1166,-28.5 1282,-28.5 1282,-7.5 1166,-7.5"/>
<text text-anchor="middle" x="1224" y="-15.5" font-family="Helvetica,sans-Serif" font-size="10.00">thrill/io/syscall_file.cpp</text>
</a>
</g>
<!-- Node1&#45;&gt;Node11 -->
<g id="edge20" class="edge"><title>Node1&#45;&gt;Node11</title>
<path fill="none" stroke="midnightblue" d="M734.254,-80.4136C825.153,-75.6818 1005.98,-63.4712 1157,-36 1167.55,-34.0816 1178.86,-31.3215 1189.13,-28.5369"/>
<polygon fill="midnightblue" stroke="midnightblue" points="733.961,-76.9239 724.152,-80.9278 734.317,-83.9149 733.961,-76.9239"/>
</g>
<!-- Node12 -->
<g id="node23" class="node"><title>Node12</title>
<a xlink:href="wincall__file_8cpp.html" target="_top" xlink:title="thrill/io/wincall_file.cpp">
<polygon fill="none" stroke="black" points="1299.5,-7.5 1299.5,-28.5 1414.5,-28.5 1414.5,-7.5 1299.5,-7.5"/>
<text text-anchor="middle" x="1357" y="-15.5" font-family="Helvetica,sans-Serif" font-size="10.00">thrill/io/wincall_file.cpp</text>
</a>
</g>
<!-- Node1&#45;&gt;Node12 -->
<g id="edge22" class="edge"><title>Node1&#45;&gt;Node12</title>
<path fill="none" stroke="midnightblue" d="M734.43,-82.2195C844.245,-79.9398 1088.61,-71.0053 1291,-36 1301.53,-34.1783 1312.82,-31.4127 1323.02,-28.5921"/>
<polygon fill="midnightblue" stroke="midnightblue" points="734.158,-78.7241 724.228,-82.42 734.295,-85.7227 734.158,-78.7241"/>
</g>
</g>
</svg>
