<?xml version="1.0" encoding="UTF-8" standalone="no"?>
<!DOCTYPE svg PUBLIC "-//W3C//DTD SVG 1.1//EN"
 "http://www.w3.org/Graphics/SVG/1.1/DTD/svg11.dtd">
<!-- Generated by graphviz version 2.26.3 (20100126.1600)
 -->
<!-- Title: thrill/io/iostats.cpp Pages: 1 -->
<svg width="1055pt" height="204pt"
 viewBox="0.00 0.00 1054.77 204.00" xmlns="http://www.w3.org/2000/svg" xmlns:xlink="http://www.w3.org/1999/xlink">
<g id="graph1" class="graph" transform="scale(1 1) rotate(0) translate(4 200)">
<title>thrill/io/iostats.cpp</title>
<!-- Node1 -->
<g id="node1" class="node"><title>Node1</title>
<polygon fill="#bfbfbf" stroke="black" points="694.77,-174.5 694.77,-195.5 790.77,-195.5 790.77,-174.5 694.77,-174.5"/>
<text text-anchor="middle" x="742.77" y="-182.5" font-family="Helvetica,sans-Serif" font-size="10.00">thrill/io/iostats.cpp</text>
</g>
<!-- Node2 -->
<g id="node3" class="node"><title>Node2</title>
<a xlink:href="iostats_8hpp.html" target="_top" xlink:title="thrill/io/iostats.hpp">
<polygon fill="none" stroke="black" points="319.77,-116.5 319.77,-137.5 415.77,-137.5 415.77,-116.5 319.77,-116.5"/>
<text text-anchor="middle" x="367.77" y="-124.5" font-family="Helvetica,sans-Serif" font-size="10.00">thrill/io/iostats.hpp</text>
</a>
</g>
<!-- Node1&#45;&gt;Node2 -->
<g id="edge2" class="edge"><title>Node1&#45;&gt;Node2</title>
<path fill="none" stroke="midnightblue" d="M694.513,-177.536C625.743,-166.9 499.721,-147.408 425.901,-135.991"/>
<polygon fill="midnightblue" stroke="midnightblue" points="426.26,-132.505 415.842,-134.435 425.19,-139.423 426.26,-132.505"/>
</g>
<!-- Node11 -->
<g id="node22" class="node"><title>Node11</title>
<polygon fill="none" stroke="#bfbfbf" points="444.27,-58.5 444.27,-79.5 485.27,-79.5 485.27,-58.5 444.27,-58.5"/>
<text text-anchor="middle" x="464.77" y="-66.5" font-family="Helvetica,sans-Serif" font-size="10.00">string</text>
</g>
<!-- Node1&#45;&gt;Node11 -->
<g id="edge48" class="edge"><title>Node1&#45;&gt;Node11</title>
<path fill="none" stroke="midnightblue" d="M717.115,-174.295C665.613,-152.805 549.876,-104.512 494.885,-81.5659"/>
<polygon fill="midnightblue" stroke="midnightblue" points="495.93,-78.2095 485.353,-77.5887 493.234,-84.6697 495.93,-78.2095"/>
</g>
<!-- Node12 -->
<g id="node24" class="node"><title>Node12</title>
<a xlink:href="string_8hpp.html" target="_top" xlink:title="thrill/common/string.hpp">
<polygon fill="none" stroke="black" points="682.27,-116.5 682.27,-137.5 803.27,-137.5 803.27,-116.5 682.27,-116.5"/>
<text text-anchor="middle" x="742.77" y="-124.5" font-family="Helvetica,sans-Serif" font-size="10.00">thrill/common/string.hpp</text>
</a>
</g>
<!-- Node1&#45;&gt;Node12 -->
<g id="edge24" class="edge"><title>Node1&#45;&gt;Node12</title>
<path fill="none" stroke="midnightblue" d="M742.77,-174.362C742.77,-166.922 742.77,-156.743 742.77,-147.728"/>
<polygon fill="midnightblue" stroke="midnightblue" points="746.27,-147.571 742.77,-137.571 739.27,-147.571 746.27,-147.571"/>
</g>
<!-- Node17 -->
<g id="node36" class="node"><title>Node17</title>
<polygon fill="none" stroke="#bfbfbf" points="994.77,-58.5 994.77,-79.5 1046.77,-79.5 1046.77,-58.5 994.77,-58.5"/>
<text text-anchor="middle" x="1020.77" y="-66.5" font-family="Helvetica,sans-Serif" font-size="10.00">sstream</text>
</g>
<!-- Node1&#45;&gt;Node17 -->
<g id="edge46" class="edge"><title>Node1&#45;&gt;Node17</title>
<path fill="none" stroke="midnightblue" d="M757.779,-174.483C782.485,-157.317 830.864,-124.347 849.77,-116 904.177,-91.9795 923.786,-96.8065 984.716,-80.1587"/>
<polygon fill="midnightblue" stroke="midnightblue" points="985.761,-83.5005 994.436,-77.4182 983.862,-76.7631 985.761,-83.5005"/>
</g>
<!-- Node19 -->
<g id="node41" class="node"><title>Node19</title>
<polygon fill="none" stroke="#bfbfbf" points="858.77,-116.5 858.77,-137.5 908.77,-137.5 908.77,-116.5 858.77,-116.5"/>
<text text-anchor="middle" x="883.77" y="-124.5" font-family="Helvetica,sans-Serif" font-size="10.00">iomanip</text>
</g>
<!-- Node1&#45;&gt;Node19 -->
<g id="edge44" class="edge"><title>Node1&#45;&gt;Node19</title>
<path fill="none" stroke="midnightblue" d="M768.304,-174.497C790.864,-165.217 823.966,-151.6 848.95,-141.323"/>
<polygon fill="midnightblue" stroke="midnightblue" points="850.51,-144.466 858.426,-137.425 847.847,-137.993 850.51,-144.466"/>
</g>
<!-- Node3 -->
<g id="node5" class="node"><title>Node3</title>
<a xlink:href="config_8hpp.html" target="_top" xlink:title="thrill/common/config.hpp">
<polygon fill="none" stroke="black" points="16.2703,-58.5 16.2703,-79.5 139.27,-79.5 139.27,-58.5 16.2703,-58.5"/>
<text text-anchor="middle" x="77.7703" y="-66.5" font-family="Helvetica,sans-Serif" font-size="10.00">thrill/common/config.hpp</text>
</a>
</g>
<!-- Node2&#45;&gt;Node3 -->
<g id="edge4" class="edge"><title>Node2&#45;&gt;Node3</title>
<path fill="none" stroke="midnightblue" d="M319.557,-117.357C270.533,-107.553 194.344,-92.3148 140.616,-81.5691"/>
<polygon fill="midnightblue" stroke="midnightblue" points="141.013,-78.0793 130.521,-79.5501 139.64,-84.9434 141.013,-78.0793"/>
</g>
<!-- Node4 -->
<g id="node7" class="node"><title>Node4</title>
<a xlink:href="defines_8hpp.html" target="_top" xlink:title="thrill/common/defines.hpp">
<polygon fill="none" stroke="black" points="502.77,-58.5 502.77,-79.5 630.77,-79.5 630.77,-58.5 502.77,-58.5"/>
<text text-anchor="middle" x="566.77" y="-66.5" font-family="Helvetica,sans-Serif" font-size="10.00">thrill/common/defines.hpp</text>
</a>
</g>
<!-- Node2&#45;&gt;Node4 -->
<g id="edge6" class="edge"><title>Node2&#45;&gt;Node4</title>
<path fill="none" stroke="midnightblue" d="M403.808,-116.497C436.671,-106.918 485.388,-92.7196 520.994,-82.3418"/>
<polygon fill="midnightblue" stroke="midnightblue" points="522.044,-85.6815 530.665,-79.5231 520.085,-78.9611 522.044,-85.6815"/>
</g>
<!-- Node6 -->
<g id="node11" class="node"><title>Node6</title>
<a xlink:href="singleton_8hpp.html" target="_top" xlink:title="thrill/common/singleton.hpp">
<polygon fill="none" stroke="black" points="156.77,-58.5 156.77,-79.5 292.77,-79.5 292.77,-58.5 156.77,-58.5"/>
<text text-anchor="middle" x="224.77" y="-66.5" font-family="Helvetica,sans-Serif" font-size="10.00">thrill/common/singleton.hpp</text>
</a>
</g>
<!-- Node2&#45;&gt;Node6 -->
<g id="edge10" class="edge"><title>Node2&#45;&gt;Node6</title>
<path fill="none" stroke="midnightblue" d="M341.874,-116.497C319.137,-107.275 285.84,-93.7695 260.558,-83.5153"/>
<polygon fill="midnightblue" stroke="midnightblue" points="261.539,-80.1365 250.957,-79.6212 258.908,-86.6232 261.539,-80.1365"/>
</g>
<!-- Node8 -->
<g id="node15" class="node"><title>Node8</title>
<polygon fill="none" stroke="#bfbfbf" points="127.77,-0.5 127.77,-21.5 171.77,-21.5 171.77,-0.5 127.77,-0.5"/>
<text text-anchor="middle" x="149.77" y="-8.5" font-family="Helvetica,sans-Serif" font-size="10.00">mutex</text>
</g>
<!-- Node2&#45;&gt;Node8 -->
<g id="edge18" class="edge"><title>Node2&#45;&gt;Node8</title>
<path fill="none" stroke="midnightblue" d="M319.644,-124.199C226.309,-118.274 28.0427,-103.091 7.77032,-80 -26.1496,-41.3638 65.8757,-22.3019 117.491,-14.8724"/>
<polygon fill="midnightblue" stroke="midnightblue" points="118.096,-18.3224 127.529,-13.4999 117.148,-11.3869 118.096,-18.3224"/>
</g>
<!-- Node9 -->
<g id="node17" class="node"><title>Node9</title>
<polygon fill="none" stroke="#bfbfbf" points="310.77,-58.5 310.77,-79.5 356.77,-79.5 356.77,-58.5 310.77,-58.5"/>
<text text-anchor="middle" x="333.77" y="-66.5" font-family="Helvetica,sans-Serif" font-size="10.00">chrono</text>
</g>
<!-- Node2&#45;&gt;Node9 -->
<g id="edge16" class="edge"><title>Node2&#45;&gt;Node9</title>
<path fill="none" stroke="midnightblue" d="M361.534,-116.362C356.933,-108.513 350.545,-97.6159 345.056,-88.2527"/>
<polygon fill="midnightblue" stroke="midnightblue" points="348.044,-86.4276 339.967,-79.5707 342.005,-89.9677 348.044,-86.4276"/>
</g>
<!-- Node10 -->
<g id="node20" class="node"><title>Node10</title>
<polygon fill="none" stroke="#bfbfbf" points="374.77,-58.5 374.77,-79.5 426.77,-79.5 426.77,-58.5 374.77,-58.5"/>
<text text-anchor="middle" x="400.77" y="-66.5" font-family="Helvetica,sans-Serif" font-size="10.00">ostream</text>
</g>
<!-- Node2&#45;&gt;Node10 -->
<g id="edge20" class="edge"><title>Node2&#45;&gt;Node10</title>
<path fill="none" stroke="midnightblue" d="M373.823,-116.362C378.242,-108.595 384.36,-97.8426 389.649,-88.5458"/>
<polygon fill="midnightblue" stroke="midnightblue" points="392.853,-89.9932 394.756,-79.5707 386.769,-86.5315 392.853,-89.9932"/>
</g>
<!-- Node2&#45;&gt;Node11 -->
<g id="edge22" class="edge"><title>Node2&#45;&gt;Node11</title>
<path fill="none" stroke="midnightblue" d="M385.562,-116.362C400.329,-107.532 421.549,-94.844 438.309,-84.8224"/>
<polygon fill="midnightblue" stroke="midnightblue" points="440.305,-87.7066 447.092,-79.5707 436.713,-81.6987 440.305,-87.7066"/>
</g>
<!-- Node5 -->
<g id="node9" class="node"><title>Node5</title>
<polygon fill="none" stroke="#bfbfbf" points="535.77,-0.5 535.77,-21.5 597.77,-21.5 597.77,-0.5 535.77,-0.5"/>
<text text-anchor="middle" x="566.77" y="-8.5" font-family="Helvetica,sans-Serif" font-size="10.00">type_traits</text>
</g>
<!-- Node4&#45;&gt;Node5 -->
<g id="edge8" class="edge"><title>Node4&#45;&gt;Node5</title>
<path fill="none" stroke="midnightblue" d="M566.77,-58.3619C566.77,-50.9219 566.77,-40.7427 566.77,-31.7276"/>
<polygon fill="midnightblue" stroke="midnightblue" points="570.27,-31.5706 566.77,-21.5707 563.27,-31.5707 570.27,-31.5706"/>
</g>
<!-- Node7 -->
<g id="node13" class="node"><title>Node7</title>
<polygon fill="none" stroke="#bfbfbf" points="276.27,-0.5 276.27,-21.5 321.27,-21.5 321.27,-0.5 276.27,-0.5"/>
<text text-anchor="middle" x="298.77" y="-8.5" font-family="Helvetica,sans-Serif" font-size="10.00">cstdlib</text>
</g>
<!-- Node6&#45;&gt;Node7 -->
<g id="edge12" class="edge"><title>Node6&#45;&gt;Node7</title>
<path fill="none" stroke="midnightblue" d="M238.343,-58.3619C249.192,-49.859 264.605,-37.7785 277.149,-27.9466"/>
<polygon fill="midnightblue" stroke="midnightblue" points="279.572,-30.4942 285.284,-21.5707 275.254,-24.9848 279.572,-30.4942"/>
</g>
<!-- Node6&#45;&gt;Node8 -->
<g id="edge14" class="edge"><title>Node6&#45;&gt;Node8</title>
<path fill="none" stroke="midnightblue" d="M211.014,-58.3619C200.019,-49.859 184.398,-37.7785 171.684,-27.9466"/>
<polygon fill="midnightblue" stroke="midnightblue" points="173.491,-24.9195 163.439,-21.5707 169.209,-30.4569 173.491,-24.9195"/>
</g>
<!-- Node12&#45;&gt;Node4 -->
<g id="edge26" class="edge"><title>Node12&#45;&gt;Node4</title>
<path fill="none" stroke="midnightblue" d="M710.898,-116.497C682.205,-107.041 639.849,-93.0829 608.473,-82.7428"/>
<polygon fill="midnightblue" stroke="midnightblue" points="609.295,-79.3289 598.702,-79.5231 607.104,-85.9772 609.295,-79.3289"/>
</g>
<!-- Node12&#45;&gt;Node7 -->
<g id="edge32" class="edge"><title>Node12&#45;&gt;Node7</title>
<path fill="none" stroke="midnightblue" d="M728.455,-116.224C704.869,-98.6755 658.579,-65.1572 639.77,-58 583.74,-36.6791 406.085,-19.9092 331.86,-13.6525"/>
<polygon fill="midnightblue" stroke="midnightblue" points="331.942,-10.1473 321.686,-12.8064 331.362,-17.1233 331.942,-10.1473"/>
</g>
<!-- Node12&#45;&gt;Node11 -->
<g id="edge40" class="edge"><title>Node12&#45;&gt;Node11</title>
<path fill="none" stroke="midnightblue" d="M682.212,-118.623C633.645,-111.213 563.703,-98.9913 495.188,-80.0884"/>
<polygon fill="midnightblue" stroke="midnightblue" points="496.106,-76.7109 485.532,-77.3766 494.214,-83.4502 496.106,-76.7109"/>
</g>
<!-- Node13 -->
<g id="node27" class="node"><title>Node13</title>
<polygon fill="none" stroke="#bfbfbf" points="814.77,-58.5 814.77,-79.5 852.77,-79.5 852.77,-58.5 814.77,-58.5"/>
<text text-anchor="middle" x="833.77" y="-66.5" font-family="Helvetica,sans-Serif" font-size="10.00">array</text>
</g>
<!-- Node12&#45;&gt;Node13 -->
<g id="edge28" class="edge"><title>Node12&#45;&gt;Node13</title>
<path fill="none" stroke="midnightblue" d="M759.461,-116.362C773.187,-107.614 792.854,-95.0786 808.508,-85.1015"/>
<polygon fill="midnightblue" stroke="midnightblue" points="810.634,-87.8969 817.185,-79.5707 806.871,-81.994 810.634,-87.8969"/>
</g>
<!-- Node14 -->
<g id="node29" class="node"><title>Node14</title>
<polygon fill="none" stroke="#bfbfbf" points="870.27,-58.5 870.27,-79.5 919.27,-79.5 919.27,-58.5 870.27,-58.5"/>
<text text-anchor="middle" x="894.77" y="-66.5" font-family="Helvetica,sans-Serif" font-size="10.00">cstdarg</text>
</g>
<!-- Node12&#45;&gt;Node14 -->
<g id="edge30" class="edge"><title>Node12&#45;&gt;Node14</title>
<path fill="none" stroke="midnightblue" d="M770.296,-116.497C795.593,-106.844 833.186,-92.4993 860.436,-82.1013"/>
<polygon fill="midnightblue" stroke="midnightblue" points="861.87,-85.3001 869.966,-78.465 859.375,-78.7601 861.87,-85.3001"/>
</g>
<!-- Node15 -->
<g id="node32" class="node"><title>Node15</title>
<polygon fill="none" stroke="#bfbfbf" points="936.77,-58.5 936.77,-79.5 976.77,-79.5 976.77,-58.5 936.77,-58.5"/>
<text text-anchor="middle" x="956.77" y="-66.5" font-family="Helvetica,sans-Serif" font-size="10.00">limits</text>
</g>
<!-- Node12&#45;&gt;Node15 -->
<g id="edge34" class="edge"><title>Node12&#45;&gt;Node15</title>
<path fill="none" stroke="midnightblue" d="M790.331,-116.489C825.743,-108.308 875.395,-96.0955 926.947,-80.0334"/>
<polygon fill="midnightblue" stroke="midnightblue" points="928.109,-83.337 936.592,-76.9896 926.002,-76.6615 928.109,-83.337"/>
</g>
<!-- Node16 -->
<g id="node34" class="node"><title>Node16</title>
<polygon fill="none" stroke="#bfbfbf" points="686.27,-58.5 686.27,-79.5 735.27,-79.5 735.27,-58.5 686.27,-58.5"/>
<text text-anchor="middle" x="710.77" y="-66.5" font-family="Helvetica,sans-Serif" font-size="10.00">random</text>
</g>
<!-- Node12&#45;&gt;Node16 -->
<g id="edge36" class="edge"><title>Node12&#45;&gt;Node16</title>
<path fill="none" stroke="midnightblue" d="M736.901,-116.362C732.616,-108.595 726.683,-97.8426 721.554,-88.5458"/>
<polygon fill="midnightblue" stroke="midnightblue" points="724.498,-86.6357 716.602,-79.5707 718.369,-90.0172 724.498,-86.6357"/>
</g>
<!-- Node12&#45;&gt;Node17 -->
<g id="edge38" class="edge"><title>Node12&#45;&gt;Node17</title>
<path fill="none" stroke="midnightblue" d="M803.358,-117.248C850.459,-109.219 917.572,-96.8025 984.602,-80.106"/>
<polygon fill="midnightblue" stroke="midnightblue" points="985.649,-83.4516 994.489,-77.6115 983.936,-76.6643 985.649,-83.4516"/>
</g>
<!-- Node18 -->
<g id="node39" class="node"><title>Node18</title>
<polygon fill="none" stroke="#bfbfbf" points="752.77,-58.5 752.77,-79.5 796.77,-79.5 796.77,-58.5 752.77,-58.5"/>
<text text-anchor="middle" x="774.77" y="-66.5" font-family="Helvetica,sans-Serif" font-size="10.00">vector</text>
</g>
<!-- Node12&#45;&gt;Node18 -->
<g id="edge42" class="edge"><title>Node12&#45;&gt;Node18</title>
<path fill="none" stroke="midnightblue" d="M748.64,-116.362C752.925,-108.595 758.857,-97.8426 763.986,-88.5458"/>
<polygon fill="midnightblue" stroke="midnightblue" points="767.172,-90.0172 768.938,-79.5707 761.043,-86.6357 767.172,-90.0172"/>
</g>
</g>
</svg>
