<?xml version="1.0" encoding="UTF-8" standalone="no"?>
<!DOCTYPE svg PUBLIC "-//W3C//DTD SVG 1.1//EN"
 "http://www.w3.org/Graphics/SVG/1.1/DTD/svg11.dtd">
<!-- Generated by graphviz version 2.36.0 (20140111.2315)
 -->
<!-- Title: extlib/tlx/tlx/meta/is_std_pair.hpp Pages: 1 -->
<svg width="1519pt" height="264pt"
 viewBox="0.00 0.00 1519.00 264.00" xmlns="http://www.w3.org/2000/svg" xmlns:xlink="http://www.w3.org/1999/xlink">
<g id="graph0" class="graph" transform="scale(1 1) rotate(0) translate(4 260)">
<title>extlib/tlx/tlx/meta/is_std_pair.hpp</title>
<!-- Node1 -->
<g id="node1" class="node"><title>Node1</title>
<polygon fill="#bfbfbf" stroke="black" points="1105,-225 1105,-255 1197,-255 1197,-225 1105,-225"/>
<text text-anchor="start" x="1113" y="-243" font-family="Helvetica,sans-Serif" font-size="10.00">extlib/tlx/tlx/meta</text>
<text text-anchor="middle" x="1151" y="-232" font-family="Helvetica,sans-Serif" font-size="10.00">/is_std_pair.hpp</text>
</g>
<!-- Node2 -->
<g id="node2" class="node"><title>Node2</title>
<g id="a_node2"><a xlink:href="reduce__by__key_8hpp.html" target="_top" xlink:title="thrill/api/reduce_by\l_key.hpp">
<polygon fill="none" stroke="black" points="551,-157 551,-187 649,-187 649,-157 551,-157"/>
<text text-anchor="start" x="559" y="-175" font-family="Helvetica,sans-Serif" font-size="10.00">thrill/api/reduce_by</text>
<text text-anchor="middle" x="600" y="-164" font-family="Helvetica,sans-Serif" font-size="10.00">_key.hpp</text>
</a>
</g>
</g>
<!-- Node1&#45;&gt;Node2 -->
<g id="edge1" class="edge"><title>Node1&#45;&gt;Node2</title>
<path fill="none" stroke="midnightblue" d="M1094.92,-232.282C986.825,-219.335 751.318,-191.125 649.042,-178.874"/>
<polygon fill="midnightblue" stroke="midnightblue" points="1094.62,-235.772 1104.97,-233.486 1095.46,-228.822 1094.62,-235.772"/>
</g>
<!-- Node15 -->
<g id="node15" class="node"><title>Node15</title>
<g id="a_node15"><a xlink:href="serialization__cereal_8hpp.html" target="_top" xlink:title="thrill/data/serialization\l_cereal.hpp">
<polygon fill="none" stroke="black" points="1095.5,-157 1095.5,-187 1206.5,-187 1206.5,-157 1095.5,-157"/>
<text text-anchor="start" x="1103.5" y="-175" font-family="Helvetica,sans-Serif" font-size="10.00">thrill/data/serialization</text>
<text text-anchor="middle" x="1151" y="-164" font-family="Helvetica,sans-Serif" font-size="10.00">_cereal.hpp</text>
</a>
</g>
</g>
<!-- Node1&#45;&gt;Node15 -->
<g id="edge14" class="edge"><title>Node1&#45;&gt;Node15</title>
<path fill="none" stroke="midnightblue" d="M1151,-214.532C1151,-205.361 1151,-195.245 1151,-187.293"/>
<polygon fill="midnightblue" stroke="midnightblue" points="1147.5,-214.679 1151,-224.679 1154.5,-214.679 1147.5,-214.679"/>
</g>
<!-- Node21 -->
<g id="node21" class="node"><title>Node21</title>
<g id="a_node21"><a xlink:href="meta_8hpp.html" target="_top" xlink:title="extlib/tlx/tlx/meta.hpp">
<polygon fill="none" stroke="black" points="1225,-162.5 1225,-181.5 1335,-181.5 1335,-162.5 1225,-162.5"/>
<text text-anchor="middle" x="1280" y="-169.5" font-family="Helvetica,sans-Serif" font-size="10.00">extlib/tlx/tlx/meta.hpp</text>
</a>
</g>
</g>
<!-- Node1&#45;&gt;Node21 -->
<g id="edge21" class="edge"><title>Node1&#45;&gt;Node21</title>
<path fill="none" stroke="midnightblue" d="M1187.79,-220.178C1212.53,-207.52 1243.99,-191.424 1263.03,-181.682"/>
<polygon fill="midnightblue" stroke="midnightblue" points="1185.98,-217.171 1178.67,-224.841 1189.17,-223.402 1185.98,-217.171"/>
</g>
<!-- Node3 -->
<g id="node3" class="node"><title>Node3</title>
<g id="a_node3"><a xlink:href="thrill_8hpp.html" target="_top" xlink:title="thrill/thrill.hpp">
<polygon fill="none" stroke="black" points="621,-89.5 621,-108.5 695,-108.5 695,-89.5 621,-89.5"/>
<text text-anchor="middle" x="658" y="-96.5" font-family="Helvetica,sans-Serif" font-size="10.00">thrill/thrill.hpp</text>
</a>
</g>
</g>
<!-- Node2&#45;&gt;Node3 -->
<g id="edge2" class="edge"><title>Node2&#45;&gt;Node3</title>
<path fill="none" stroke="midnightblue" d="M617.992,-148.975C629.129,-135.342 642.81,-118.595 650.944,-108.637"/>
<polygon fill="midnightblue" stroke="midnightblue" points="615.075,-147.014 611.459,-156.973 620.496,-151.442 615.075,-147.014"/>
</g>
<!-- Node4 -->
<g id="node4" class="node"><title>Node4</title>
<g id="a_node4"><a xlink:href="k-means_8hpp.html" target="_top" xlink:title="examples/k&#45;means/k\l&#45;means.hpp">
<polygon fill="none" stroke="black" points="955.5,-84 955.5,-114 1062.5,-114 1062.5,-84 955.5,-84"/>
<text text-anchor="start" x="963.5" y="-102" font-family="Helvetica,sans-Serif" font-size="10.00">examples/k&#45;means/k</text>
<text text-anchor="middle" x="1009" y="-91" font-family="Helvetica,sans-Serif" font-size="10.00">&#45;means.hpp</text>
</a>
</g>
</g>
<!-- Node2&#45;&gt;Node4 -->
<g id="edge3" class="edge"><title>Node2&#45;&gt;Node4</title>
<path fill="none" stroke="midnightblue" d="M659.458,-165.182C728.823,-157.717 846.677,-142.928 946,-120 953.156,-118.348 960.672,-116.272 967.92,-114.087"/>
<polygon fill="midnightblue" stroke="midnightblue" points="658.743,-161.738 649.168,-166.274 659.482,-168.699 658.743,-161.738"/>
</g>
<!-- Node6 -->
<g id="node6" class="node"><title>Node6</title>
<g id="a_node6"><a xlink:href="page__rank_8hpp.html" target="_top" xlink:title="examples/page_rank\l/page_rank.hpp">
<polygon fill="none" stroke="black" points="713.5,-84 713.5,-114 820.5,-114 820.5,-84 713.5,-84"/>
<text text-anchor="start" x="721.5" y="-102" font-family="Helvetica,sans-Serif" font-size="10.00">examples/page_rank</text>
<text text-anchor="middle" x="767" y="-91" font-family="Helvetica,sans-Serif" font-size="10.00">/page_rank.hpp</text>
</a>
</g>
</g>
<!-- Node2&#45;&gt;Node6 -->
<g id="edge5" class="edge"><title>Node2&#45;&gt;Node6</title>
<path fill="none" stroke="midnightblue" d="M642.266,-153.031C670.646,-140.965 707.512,-125.291 733.789,-114.12"/>
<polygon fill="midnightblue" stroke="midnightblue" points="640.827,-149.839 632.994,-156.973 643.566,-156.281 640.827,-149.839"/>
</g>
<!-- Node8 -->
<g id="node8" class="node"><title>Node8</title>
<g id="a_node8"><a xlink:href="k-means__step3_8cpp.html" target="_top" xlink:title="examples/tutorial/k\l&#45;means_step3.cpp">
<polygon fill="none" stroke="black" points="838.5,-84 838.5,-114 937.5,-114 937.5,-84 838.5,-84"/>
<text text-anchor="start" x="846.5" y="-102" font-family="Helvetica,sans-Serif" font-size="10.00">examples/tutorial/k</text>
<text text-anchor="middle" x="888" y="-91" font-family="Helvetica,sans-Serif" font-size="10.00">&#45;means_step3.cpp</text>
</a>
</g>
</g>
<!-- Node2&#45;&gt;Node8 -->
<g id="edge7" class="edge"><title>Node2&#45;&gt;Node8</title>
<path fill="none" stroke="midnightblue" d="M658.978,-159.686C705.484,-150.327 771.813,-136.011 829,-120 835.353,-118.221 842.029,-116.155 848.512,-114.038"/>
<polygon fill="midnightblue" stroke="midnightblue" points="658.192,-156.273 649.072,-161.664 659.564,-163.138 658.192,-156.273"/>
</g>
<!-- Node9 -->
<g id="node9" class="node"><title>Node9</title>
<g id="a_node9"><a xlink:href="k-means__step4_8cpp.html" target="_top" xlink:title="examples/tutorial/k\l&#45;means_step4.cpp">
<polygon fill="none" stroke="black" points="-0.5,-84 -0.5,-114 98.5,-114 98.5,-84 -0.5,-84"/>
<text text-anchor="start" x="7.5" y="-102" font-family="Helvetica,sans-Serif" font-size="10.00">examples/tutorial/k</text>
<text text-anchor="middle" x="49" y="-91" font-family="Helvetica,sans-Serif" font-size="10.00">&#45;means_step4.cpp</text>
</a>
</g>
</g>
<!-- Node2&#45;&gt;Node9 -->
<g id="edge8" class="edge"><title>Node2&#45;&gt;Node9</title>
<path fill="none" stroke="midnightblue" d="M540.681,-169.239C447.375,-165.493 261.069,-154.06 107,-120 100.032,-118.46 92.7383,-116.356 85.767,-114.088"/>
<polygon fill="midnightblue" stroke="midnightblue" points="540.648,-172.74 550.776,-169.628 540.918,-165.745 540.648,-172.74"/>
</g>
<!-- Node10 -->
<g id="node10" class="node"><title>Node10</title>
<g id="a_node10"><a xlink:href="k-means__step5_8cpp.html" target="_top" xlink:title="examples/tutorial/k\l&#45;means_step5.cpp">
<polygon fill="none" stroke="black" points="116.5,-84 116.5,-114 215.5,-114 215.5,-84 116.5,-84"/>
<text text-anchor="start" x="124.5" y="-102" font-family="Helvetica,sans-Serif" font-size="10.00">examples/tutorial/k</text>
<text text-anchor="middle" x="166" y="-91" font-family="Helvetica,sans-Serif" font-size="10.00">&#45;means_step5.cpp</text>
</a>
</g>
</g>
<!-- Node2&#45;&gt;Node10 -->
<g id="edge9" class="edge"><title>Node2&#45;&gt;Node10</title>
<path fill="none" stroke="midnightblue" d="M540.793,-166.478C466.343,-159.988 334.953,-145.861 225,-120 218.157,-118.39 210.985,-116.309 204.092,-114.099"/>
<polygon fill="midnightblue" stroke="midnightblue" points="540.65,-169.978 550.912,-167.343 541.246,-163.004 540.65,-169.978"/>
</g>
<!-- Node11 -->
<g id="node11" class="node"><title>Node11</title>
<g id="a_node11"><a xlink:href="k-means__step6_8cpp.html" target="_top" xlink:title="examples/tutorial/k\l&#45;means_step6.cpp">
<polygon fill="none" stroke="black" points="233.5,-84 233.5,-114 332.5,-114 332.5,-84 233.5,-84"/>
<text text-anchor="start" x="241.5" y="-102" font-family="Helvetica,sans-Serif" font-size="10.00">examples/tutorial/k</text>
<text text-anchor="middle" x="283" y="-91" font-family="Helvetica,sans-Serif" font-size="10.00">&#45;means_step6.cpp</text>
</a>
</g>
</g>
<!-- Node2&#45;&gt;Node11 -->
<g id="edge10" class="edge"><title>Node2&#45;&gt;Node11</title>
<path fill="none" stroke="midnightblue" d="M540.411,-161.515C487.788,-152.596 409.202,-137.949 342,-120 335.521,-118.27 328.72,-116.204 322.133,-114.068"/>
<polygon fill="midnightblue" stroke="midnightblue" points="540.136,-165.018 550.578,-163.222 541.295,-158.114 540.136,-165.018"/>
</g>
<!-- Node12 -->
<g id="node12" class="node"><title>Node12</title>
<g id="a_node12"><a xlink:href="word__count_8hpp.html" target="_top" xlink:title="examples/word_count\l/word_count.hpp">
<polygon fill="none" stroke="black" points="351,-84 351,-114 463,-114 463,-84 351,-84"/>
<text text-anchor="start" x="359" y="-102" font-family="Helvetica,sans-Serif" font-size="10.00">examples/word_count</text>
<text text-anchor="middle" x="407" y="-91" font-family="Helvetica,sans-Serif" font-size="10.00">/word_count.hpp</text>
</a>
</g>
</g>
<!-- Node2&#45;&gt;Node12 -->
<g id="edge11" class="edge"><title>Node2&#45;&gt;Node12</title>
<path fill="none" stroke="midnightblue" d="M552.432,-153.501C519.468,-141.374 476.145,-125.437 445.381,-114.12"/>
<polygon fill="midnightblue" stroke="midnightblue" points="551.276,-156.805 561.869,-156.973 553.693,-150.235 551.276,-156.805"/>
</g>
<!-- Node14 -->
<g id="node14" class="node"><title>Node14</title>
<g id="a_node14"><a xlink:href="word__count__simple_8cpp.html" target="_top" xlink:title="examples/word_count\l/word_count_simple.cpp">
<polygon fill="none" stroke="black" points="481,-84 481,-114 603,-114 603,-84 481,-84"/>
<text text-anchor="start" x="489" y="-102" font-family="Helvetica,sans-Serif" font-size="10.00">examples/word_count</text>
<text text-anchor="middle" x="542" y="-91" font-family="Helvetica,sans-Serif" font-size="10.00">/word_count_simple.cpp</text>
</a>
</g>
</g>
<!-- Node2&#45;&gt;Node14 -->
<g id="edge13" class="edge"><title>Node2&#45;&gt;Node14</title>
<path fill="none" stroke="midnightblue" d="M582.213,-149.226C572.998,-137.946 561.998,-124.48 553.833,-114.486"/>
<polygon fill="midnightblue" stroke="midnightblue" points="579.504,-151.442 588.541,-156.973 584.925,-147.014 579.504,-151.442"/>
</g>
<!-- Node5 -->
<g id="node5" class="node"><title>Node5</title>
<g id="a_node5"><a xlink:href="k-means__run_8cpp.html" target="_top" xlink:title="examples/k&#45;means/k\l&#45;means_run.cpp">
<polygon fill="none" stroke="black" points="955.5,-6 955.5,-36 1062.5,-36 1062.5,-6 955.5,-6"/>
<text text-anchor="start" x="963.5" y="-24" font-family="Helvetica,sans-Serif" font-size="10.00">examples/k&#45;means/k</text>
<text text-anchor="middle" x="1009" y="-13" font-family="Helvetica,sans-Serif" font-size="10.00">&#45;means_run.cpp</text>
</a>
</g>
</g>
<!-- Node4&#45;&gt;Node5 -->
<g id="edge4" class="edge"><title>Node4&#45;&gt;Node5</title>
<path fill="none" stroke="midnightblue" d="M1009,-73.5898C1009,-61.2565 1009,-46.7237 1009,-36.2309"/>
<polygon fill="midnightblue" stroke="midnightblue" points="1005.5,-73.7049 1009,-83.705 1012.5,-73.705 1005.5,-73.7049"/>
</g>
<!-- Node7 -->
<g id="node7" class="node"><title>Node7</title>
<g id="a_node7"><a xlink:href="page__rank__run_8cpp.html" target="_top" xlink:title="examples/page_rank\l/page_rank_run.cpp">
<polygon fill="none" stroke="black" points="713.5,-6 713.5,-36 820.5,-36 820.5,-6 713.5,-6"/>
<text text-anchor="start" x="721.5" y="-24" font-family="Helvetica,sans-Serif" font-size="10.00">examples/page_rank</text>
<text text-anchor="middle" x="767" y="-13" font-family="Helvetica,sans-Serif" font-size="10.00">/page_rank_run.cpp</text>
</a>
</g>
</g>
<!-- Node6&#45;&gt;Node7 -->
<g id="edge6" class="edge"><title>Node6&#45;&gt;Node7</title>
<path fill="none" stroke="midnightblue" d="M767,-73.5898C767,-61.2565 767,-46.7237 767,-36.2309"/>
<polygon fill="midnightblue" stroke="midnightblue" points="763.5,-73.7049 767,-83.705 770.5,-73.705 763.5,-73.7049"/>
</g>
<!-- Node13 -->
<g id="node13" class="node"><title>Node13</title>
<g id="a_node13"><a xlink:href="word__count__run_8cpp.html" target="_top" xlink:title="examples/word_count\l/word_count_run.cpp">
<polygon fill="none" stroke="black" points="351,-6 351,-36 463,-36 463,-6 351,-6"/>
<text text-anchor="start" x="359" y="-24" font-family="Helvetica,sans-Serif" font-size="10.00">examples/word_count</text>
<text text-anchor="middle" x="407" y="-13" font-family="Helvetica,sans-Serif" font-size="10.00">/word_count_run.cpp</text>
</a>
</g>
</g>
<!-- Node12&#45;&gt;Node13 -->
<g id="edge12" class="edge"><title>Node12&#45;&gt;Node13</title>
<path fill="none" stroke="midnightblue" d="M407,-73.5898C407,-61.2565 407,-46.7237 407,-36.2309"/>
<polygon fill="midnightblue" stroke="midnightblue" points="403.5,-73.7049 407,-83.705 410.5,-73.705 403.5,-73.7049"/>
</g>
<!-- Node15&#45;&gt;Node4 -->
<g id="edge18" class="edge"><title>Node15&#45;&gt;Node4</title>
<path fill="none" stroke="midnightblue" d="M1113.83,-152.414C1089.96,-140.478 1059.43,-125.215 1037.48,-114.241"/>
<polygon fill="midnightblue" stroke="midnightblue" points="1112.44,-155.631 1122.95,-156.973 1115.57,-149.37 1112.44,-155.631"/>
</g>
<!-- Node16 -->
<g id="node16" class="node"><title>Node16</title>
<g id="a_node16"><a xlink:href="thrill_2common_2aggregate_8hpp.html" target="_top" xlink:title="thrill/common/aggregate.hpp">
<polygon fill="none" stroke="black" points="1081,-89.5 1081,-108.5 1221,-108.5 1221,-89.5 1081,-89.5"/>
<text text-anchor="middle" x="1151" y="-96.5" font-family="Helvetica,sans-Serif" font-size="10.00">thrill/common/aggregate.hpp</text>
</a>
</g>
</g>
<!-- Node15&#45;&gt;Node16 -->
<g id="edge15" class="edge"><title>Node15&#45;&gt;Node16</title>
<path fill="none" stroke="midnightblue" d="M1151,-146.632C1151,-133.468 1151,-118.031 1151,-108.637"/>
<polygon fill="midnightblue" stroke="midnightblue" points="1147.5,-146.973 1151,-156.973 1154.5,-146.973 1147.5,-146.973"/>
</g>
<!-- Node17 -->
<g id="node17" class="node"><title>Node17</title>
<g id="a_node17"><a xlink:href="bfs_8hpp.html" target="_top" xlink:title="examples/bfs/bfs.hpp">
<polygon fill="none" stroke="black" points="1239,-89.5 1239,-108.5 1349,-108.5 1349,-89.5 1239,-89.5"/>
<text text-anchor="middle" x="1294" y="-96.5" font-family="Helvetica,sans-Serif" font-size="10.00">examples/bfs/bfs.hpp</text>
</a>
</g>
</g>
<!-- Node15&#45;&gt;Node17 -->
<g id="edge16" class="edge"><title>Node15&#45;&gt;Node17</title>
<path fill="none" stroke="midnightblue" d="M1188.51,-152.374C1216.99,-138.234 1254.85,-119.44 1276.6,-108.637"/>
<polygon fill="midnightblue" stroke="midnightblue" points="1186.65,-149.391 1179.25,-156.973 1189.77,-155.66 1186.65,-149.391"/>
</g>
<!-- Node19 -->
<g id="node19" class="node"><title>Node19</title>
<g id="a_node19"><a xlink:href="stochastic__gradient__descent_8hpp.html" target="_top" xlink:title="examples/stochastic\l_gradient_descent/stochastic\l_gradient_descent.hpp">
<polygon fill="none" stroke="black" points="1367,-78.5 1367,-119.5 1511,-119.5 1511,-78.5 1367,-78.5"/>
<text text-anchor="start" x="1375" y="-107.5" font-family="Helvetica,sans-Serif" font-size="10.00">examples/stochastic</text>
<text text-anchor="start" x="1375" y="-96.5" font-family="Helvetica,sans-Serif" font-size="10.00">_gradient_descent/stochastic</text>
<text text-anchor="middle" x="1439" y="-85.5" font-family="Helvetica,sans-Serif" font-size="10.00">_gradient_descent.hpp</text>
</a>
</g>
</g>
<!-- Node15&#45;&gt;Node19 -->
<g id="edge19" class="edge"><title>Node15&#45;&gt;Node19</title>
<path fill="none" stroke="midnightblue" d="M1216.59,-154.849C1257.3,-144.822 1310.69,-131.668 1358,-120 1360.81,-119.306 1363.68,-118.599 1366.58,-117.884"/>
<polygon fill="midnightblue" stroke="midnightblue" points="1215.66,-151.473 1206.79,-157.263 1217.34,-158.269 1215.66,-151.473"/>
</g>
<!-- Node18 -->
<g id="node18" class="node"><title>Node18</title>
<g id="a_node18"><a xlink:href="bfs_8cpp.html" target="_top" xlink:title="examples/bfs/bfs.cpp">
<polygon fill="none" stroke="black" points="1239,-11.5 1239,-30.5 1349,-30.5 1349,-11.5 1239,-11.5"/>
<text text-anchor="middle" x="1294" y="-18.5" font-family="Helvetica,sans-Serif" font-size="10.00">examples/bfs/bfs.cpp</text>
</a>
</g>
</g>
<!-- Node17&#45;&gt;Node18 -->
<g id="edge17" class="edge"><title>Node17&#45;&gt;Node18</title>
<path fill="none" stroke="midnightblue" d="M1294,-79.2239C1294,-63.6974 1294,-42.3582 1294,-30.6165"/>
<polygon fill="midnightblue" stroke="midnightblue" points="1290.5,-79.2818 1294,-89.2818 1297.5,-79.2819 1290.5,-79.2818"/>
</g>
<!-- Node20 -->
<g id="node20" class="node"><title>Node20</title>
<g id="a_node20"><a xlink:href="stochastic__gradient__descent__run_8cpp.html" target="_top" xlink:title="examples/stochastic\l_gradient_descent/stochastic\l_gradient_descent_run.cpp">
<polygon fill="none" stroke="black" points="1367,-0.5 1367,-41.5 1511,-41.5 1511,-0.5 1367,-0.5"/>
<text text-anchor="start" x="1375" y="-29.5" font-family="Helvetica,sans-Serif" font-size="10.00">examples/stochastic</text>
<text text-anchor="start" x="1375" y="-18.5" font-family="Helvetica,sans-Serif" font-size="10.00">_gradient_descent/stochastic</text>
<text text-anchor="middle" x="1439" y="-7.5" font-family="Helvetica,sans-Serif" font-size="10.00">_gradient_descent_run.cpp</text>
</a>
</g>
</g>
<!-- Node19&#45;&gt;Node20 -->
<g id="edge20" class="edge"><title>Node19&#45;&gt;Node20</title>
<path fill="none" stroke="midnightblue" d="M1439,-68.2965C1439,-59.3009 1439,-49.6532 1439,-41.5056"/>
<polygon fill="midnightblue" stroke="midnightblue" points="1435.5,-68.4281 1439,-78.4281 1442.5,-68.4281 1435.5,-68.4281"/>
</g>
</g>
</svg>
