<?xml version="1.0" encoding="UTF-8" standalone="no"?>
<!DOCTYPE svg PUBLIC "-//W3C//DTD SVG 1.1//EN"
 "http://www.w3.org/Graphics/SVG/1.1/DTD/svg11.dtd">
<!-- Generated by graphviz version 2.36.0 (20140111.2315)
 -->
<!-- Title: extlib/tlx/tlx/string/join_generic.hpp Pages: 1 -->
<svg width="644pt" height="176pt"
 viewBox="0.00 0.00 644.00 176.00" xmlns="http://www.w3.org/2000/svg" xmlns:xlink="http://www.w3.org/1999/xlink">
<g id="graph0" class="graph" transform="scale(1 1) rotate(0) translate(4 172)">
<title>extlib/tlx/tlx/string/join_generic.hpp</title>
<!-- Node1 -->
<g id="node1" class="node"><title>Node1</title>
<polygon fill="#bfbfbf" stroke="black" points="292,-137 292,-167 386,-167 386,-137 292,-137"/>
<text text-anchor="start" x="300" y="-155" font-family="Helvetica,sans-Serif" font-size="10.00">extlib/tlx/tlx/string</text>
<text text-anchor="middle" x="339" y="-144" font-family="Helvetica,sans-Serif" font-size="10.00">/join_generic.hpp</text>
</g>
<!-- Node2 -->
<g id="node2" class="node"><title>Node2</title>
<g id="a_node2"><a xlink:href="block__pool_8cpp.html" target="_top" xlink:title="thrill/data/block_pool.cpp">
<polygon fill="none" stroke="black" points="-0.5,-74.5 -0.5,-93.5 124.5,-93.5 124.5,-74.5 -0.5,-74.5"/>
<text text-anchor="middle" x="62" y="-81.5" font-family="Helvetica,sans-Serif" font-size="10.00">thrill/data/block_pool.cpp</text>
</a>
</g>
</g>
<!-- Node1&#45;&gt;Node2 -->
<g id="edge1" class="edge"><title>Node1&#45;&gt;Node2</title>
<path fill="none" stroke="midnightblue" d="M281.715,-137.351C226.524,-124.201 144.726,-104.711 98.0747,-93.5954"/>
<polygon fill="midnightblue" stroke="midnightblue" points="281.158,-140.816 291.697,-139.729 282.78,-134.007 281.158,-140.816"/>
</g>
<!-- Node3 -->
<g id="node3" class="node"><title>Node3</title>
<g id="a_node3"><a xlink:href="byte__block_8cpp.html" target="_top" xlink:title="thrill/data/byte_block.cpp">
<polygon fill="none" stroke="black" points="142.5,-74.5 142.5,-93.5 267.5,-93.5 267.5,-74.5 142.5,-74.5"/>
<text text-anchor="middle" x="205" y="-81.5" font-family="Helvetica,sans-Serif" font-size="10.00">thrill/data/byte_block.cpp</text>
</a>
</g>
</g>
<!-- Node1&#45;&gt;Node3 -->
<g id="edge2" class="edge"><title>Node1&#45;&gt;Node3</title>
<path fill="none" stroke="midnightblue" d="M301.126,-132.346C275.374,-119.662 242.493,-103.467 222.627,-93.6819"/>
<polygon fill="midnightblue" stroke="midnightblue" points="299.736,-135.563 310.254,-136.841 302.829,-129.283 299.736,-135.563"/>
</g>
<!-- Node4 -->
<g id="node4" class="node"><title>Node4</title>
<g id="a_node4"><a xlink:href="page__rank_8hpp.html" target="_top" xlink:title="examples/page_rank\l/page_rank.hpp">
<polygon fill="none" stroke="black" points="285.5,-69 285.5,-99 392.5,-99 392.5,-69 285.5,-69"/>
<text text-anchor="start" x="293.5" y="-87" font-family="Helvetica,sans-Serif" font-size="10.00">examples/page_rank</text>
<text text-anchor="middle" x="339" y="-76" font-family="Helvetica,sans-Serif" font-size="10.00">/page_rank.hpp</text>
</a>
</g>
</g>
<!-- Node1&#45;&gt;Node4 -->
<g id="edge3" class="edge"><title>Node1&#45;&gt;Node4</title>
<path fill="none" stroke="midnightblue" d="M339,-126.532C339,-117.361 339,-107.245 339,-99.2931"/>
<polygon fill="midnightblue" stroke="midnightblue" points="335.5,-126.679 339,-136.679 342.5,-126.679 335.5,-126.679"/>
</g>
<!-- Node6 -->
<g id="node6" class="node"><title>Node6</title>
<g id="a_node6"><a xlink:href="join_8cpp.html" target="_top" xlink:title="extlib/tlx/tlx/string\l/join.cpp">
<polygon fill="none" stroke="black" points="411,-69 411,-99 505,-99 505,-69 411,-69"/>
<text text-anchor="start" x="419" y="-87" font-family="Helvetica,sans-Serif" font-size="10.00">extlib/tlx/tlx/string</text>
<text text-anchor="middle" x="458" y="-76" font-family="Helvetica,sans-Serif" font-size="10.00">/join.cpp</text>
</a>
</g>
</g>
<!-- Node1&#45;&gt;Node6 -->
<g id="edge5" class="edge"><title>Node1&#45;&gt;Node6</title>
<path fill="none" stroke="midnightblue" d="M373.416,-131.912C392.283,-121.448 415.268,-108.7 432.514,-99.1352"/>
<polygon fill="midnightblue" stroke="midnightblue" points="371.576,-128.93 364.528,-136.841 374.971,-135.052 371.576,-128.93"/>
</g>
<!-- Node7 -->
<g id="node7" class="node"><title>Node7</title>
<g id="a_node7"><a xlink:href="extlib_2tlx_2tlx_2string_8hpp.html" target="_top" xlink:title="extlib/tlx/tlx/string.hpp">
<polygon fill="none" stroke="black" points="523.5,-74.5 523.5,-93.5 636.5,-93.5 636.5,-74.5 523.5,-74.5"/>
<text text-anchor="middle" x="580" y="-81.5" font-family="Helvetica,sans-Serif" font-size="10.00">extlib/tlx/tlx/string.hpp</text>
</a>
</g>
</g>
<!-- Node1&#45;&gt;Node7 -->
<g id="edge6" class="edge"><title>Node1&#45;&gt;Node7</title>
<path fill="none" stroke="midnightblue" d="M395.935,-135.408C443.717,-122.322 510.181,-104.121 548.788,-93.5478"/>
<polygon fill="midnightblue" stroke="midnightblue" points="394.76,-132.101 386.039,-138.118 396.609,-138.852 394.76,-132.101"/>
</g>
<!-- Node5 -->
<g id="node5" class="node"><title>Node5</title>
<g id="a_node5"><a xlink:href="page__rank__run_8cpp.html" target="_top" xlink:title="examples/page_rank\l/page_rank_run.cpp">
<polygon fill="none" stroke="black" points="285.5,-1 285.5,-31 392.5,-31 392.5,-1 285.5,-1"/>
<text text-anchor="start" x="293.5" y="-19" font-family="Helvetica,sans-Serif" font-size="10.00">examples/page_rank</text>
<text text-anchor="middle" x="339" y="-8" font-family="Helvetica,sans-Serif" font-size="10.00">/page_rank_run.cpp</text>
</a>
</g>
</g>
<!-- Node4&#45;&gt;Node5 -->
<g id="edge4" class="edge"><title>Node4&#45;&gt;Node5</title>
<path fill="none" stroke="midnightblue" d="M339,-58.5322C339,-49.3606 339,-39.2449 339,-31.2931"/>
<polygon fill="midnightblue" stroke="midnightblue" points="335.5,-58.6789 339,-68.679 342.5,-58.679 335.5,-58.6789"/>
</g>
</g>
</svg>
