<?xml version="1.0" encoding="UTF-8" standalone="no"?>
<!DOCTYPE svg PUBLIC "-//W3C//DTD SVG 1.1//EN"
 "http://www.w3.org/Graphics/SVG/1.1/DTD/svg11.dtd">
<!-- Generated by graphviz version 2.26.3 (20100126.1600)
 -->
<!-- Title: thrill/common/json_logger.cpp Pages: 1 -->
<svg width="1808pt" height="362pt"
 viewBox="0.00 0.00 1808.00 362.00" xmlns="http://www.w3.org/2000/svg" xmlns:xlink="http://www.w3.org/1999/xlink">
<g id="graph1" class="graph" transform="scale(1 1) rotate(0) translate(4 358)">
<title>thrill/common/json_logger.cpp</title>
<!-- Node1 -->
<g id="node1" class="node"><title>Node1</title>
<polygon fill="#bfbfbf" stroke="black" points="1472,-319 1472,-353 1568,-353 1568,-319 1472,-319"/>
<text text-anchor="start" x="1480" y="-340" font-family="Helvetica,sans-Serif" font-size="10.00">thrill/common/json</text>
<text text-anchor="middle" x="1520" y="-327" font-family="Helvetica,sans-Serif" font-size="10.00">_logger.cpp</text>
</g>
<!-- Node2 -->
<g id="node3" class="node"><title>Node2</title>
<a xlink:href="json__logger_8hpp.html" target="_top" xlink:title="thrill/common/json\l_logger.hpp">
<polygon fill="none" stroke="black" points="146,-59 146,-93 242,-93 242,-59 146,-59"/>
<text text-anchor="start" x="154" y="-80" font-family="Helvetica,sans-Serif" font-size="10.00">thrill/common/json</text>
<text text-anchor="middle" x="194" y="-67" font-family="Helvetica,sans-Serif" font-size="10.00">_logger.hpp</text>
</a>
</g>
<!-- Node1&#45;&gt;Node2 -->
<g id="edge2" class="edge"><title>Node1&#45;&gt;Node2</title>
<path fill="none" stroke="midnightblue" d="M1471.78,-334.694C1306.74,-329.988 765.217,-312.543 594,-282 506.662,-266.42 482.671,-263.027 403,-224 332.471,-189.452 259.767,-132.117 221.468,-99.8897"/>
<polygon fill="midnightblue" stroke="midnightblue" points="223.274,-96.8315 213.385,-93.0292 218.744,-102.169 223.274,-96.8315"/>
</g>
<!-- Node10 -->
<g id="node19" class="node"><title>Node10</title>
<polygon fill="none" stroke="#bfbfbf" points="437.5,-0.5 437.5,-21.5 478.5,-21.5 478.5,-0.5 437.5,-0.5"/>
<text text-anchor="middle" x="458" y="-8.5" font-family="Helvetica,sans-Serif" font-size="10.00">string</text>
</g>
<!-- Node1&#45;&gt;Node10 -->
<g id="edge136" class="edge"><title>Node1&#45;&gt;Node10</title>
<path fill="none" stroke="midnightblue" d="M1471.81,-329.637C1381.05,-316.698 1179.48,-283.395 1019,-224 967.536,-204.953 953.388,-199.599 910,-166 892.839,-152.711 896.456,-139.622 877,-130 797.001,-90.4341 544.229,-152.698 477,-94 459.5,-78.7207 456.326,-50.9214 456.484,-31.7322"/>
<polygon fill="midnightblue" stroke="midnightblue" points="459.987,-31.7172 456.878,-21.5886 452.992,-31.4449 459.987,-31.7172"/>
</g>
<!-- Node11 -->
<g id="node21" class="node"><title>Node11</title>
<polygon fill="none" stroke="#bfbfbf" points="1079,-0.5 1079,-21.5 1123,-21.5 1123,-0.5 1079,-0.5"/>
<text text-anchor="middle" x="1101" y="-8.5" font-family="Helvetica,sans-Serif" font-size="10.00">vector</text>
</g>
<!-- Node1&#45;&gt;Node11 -->
<g id="edge138" class="edge"><title>Node1&#45;&gt;Node11</title>
<path fill="none" stroke="midnightblue" d="M1511.19,-318.996C1499.96,-295.722 1482,-252.336 1482,-213 1482,-213 1482,-213 1482,-148 1482,-104.581 1478.47,-84.4055 1444,-58 1431.69,-48.567 1216.16,-23.7816 1133.19,-14.5405"/>
<polygon fill="midnightblue" stroke="midnightblue" points="1133.4,-11.042 1123.07,-13.4175 1132.63,-17.9993 1133.4,-11.042"/>
</g>
<!-- Node12 -->
<g id="node23" class="node"><title>Node12</title>
<a xlink:href="logger_8hpp.html" target="_top" xlink:title="thrill/common/logger.hpp">
<polygon fill="none" stroke="black" points="602.5,-260.5 602.5,-281.5 725.5,-281.5 725.5,-260.5 602.5,-260.5"/>
<text text-anchor="middle" x="664" y="-268.5" font-family="Helvetica,sans-Serif" font-size="10.00">thrill/common/logger.hpp</text>
</a>
</g>
<!-- Node1&#45;&gt;Node12 -->
<g id="edge22" class="edge"><title>Node1&#45;&gt;Node12</title>
<path fill="none" stroke="midnightblue" d="M1471.83,-332.343C1328.75,-321.478 905.659,-289.35 735.785,-276.451"/>
<polygon fill="midnightblue" stroke="midnightblue" points="735.932,-272.952 725.696,-275.685 735.402,-279.932 735.932,-272.952"/>
</g>
<!-- Node15 -->
<g id="node29" class="node"><title>Node15</title>
<a xlink:href="string_8hpp.html" target="_top" xlink:title="thrill/common/string.hpp">
<polygon fill="none" stroke="black" points="1509.5,-65.5 1509.5,-86.5 1630.5,-86.5 1630.5,-65.5 1509.5,-65.5"/>
<text text-anchor="middle" x="1570" y="-73.5" font-family="Helvetica,sans-Serif" font-size="10.00">thrill/common/string.hpp</text>
</a>
</g>
<!-- Node1&#45;&gt;Node15 -->
<g id="edge126" class="edge"><title>Node1&#45;&gt;Node15</title>
<path fill="none" stroke="midnightblue" d="M1523.28,-318.941C1532.13,-272.937 1556.45,-146.441 1566.04,-96.5853"/>
<polygon fill="midnightblue" stroke="midnightblue" points="1569.5,-97.1377 1567.95,-86.6566 1562.63,-95.8157 1569.5,-97.1377"/>
</g>
<!-- Node37 -->
<g id="node101" class="node"><title>Node37</title>
<polygon fill="none" stroke="#bfbfbf" points="1548,-260.5 1548,-281.5 1610,-281.5 1610,-260.5 1548,-260.5"/>
<text text-anchor="middle" x="1579" y="-268.5" font-family="Helvetica,sans-Serif" font-size="10.00">tlx/die.hpp</text>
</g>
<!-- Node1&#45;&gt;Node37 -->
<g id="edge128" class="edge"><title>Node1&#45;&gt;Node37</title>
<path fill="none" stroke="midnightblue" d="M1535.5,-318.922C1543.74,-309.845 1553.88,-298.679 1562.29,-289.41"/>
<polygon fill="midnightblue" stroke="midnightblue" points="1565.02,-291.609 1569.15,-281.852 1559.84,-286.904 1565.02,-291.609"/>
</g>
<!-- Node38 -->
<g id="node103" class="node"><title>Node38</title>
<polygon fill="none" stroke="#bfbfbf" points="1628,-260.5 1628,-281.5 1672,-281.5 1672,-260.5 1628,-260.5"/>
<text text-anchor="middle" x="1650" y="-268.5" font-family="Helvetica,sans-Serif" font-size="10.00">cerrno</text>
</g>
<!-- Node1&#45;&gt;Node38 -->
<g id="edge130" class="edge"><title>Node1&#45;&gt;Node38</title>
<path fill="none" stroke="midnightblue" d="M1554.16,-318.922C1574.46,-308.772 1599.98,-296.01 1619.58,-286.208"/>
<polygon fill="midnightblue" stroke="midnightblue" points="1621.3,-289.261 1628.68,-281.658 1618.17,-283 1621.3,-289.261"/>
</g>
<!-- Node39 -->
<g id="node105" class="node"><title>Node39</title>
<polygon fill="none" stroke="#bfbfbf" points="1690,-260.5 1690,-281.5 1736,-281.5 1736,-260.5 1690,-260.5"/>
<text text-anchor="middle" x="1713" y="-268.5" font-family="Helvetica,sans-Serif" font-size="10.00">chrono</text>
</g>
<!-- Node1&#45;&gt;Node39 -->
<g id="edge132" class="edge"><title>Node1&#45;&gt;Node39</title>
<path fill="none" stroke="midnightblue" d="M1568.29,-319.908C1598.1,-309.951 1637.36,-296.793 1680.4,-282.189"/>
<polygon fill="midnightblue" stroke="midnightblue" points="1681.59,-285.481 1689.94,-278.952 1679.34,-278.853 1681.59,-285.481"/>
</g>
<!-- Node40 -->
<g id="node107" class="node"><title>Node40</title>
<polygon fill="none" stroke="#bfbfbf" points="1754,-260.5 1754,-281.5 1800,-281.5 1800,-260.5 1754,-260.5"/>
<text text-anchor="middle" x="1777" y="-268.5" font-family="Helvetica,sans-Serif" font-size="10.00">cstring</text>
</g>
<!-- Node1&#45;&gt;Node40 -->
<g id="edge134" class="edge"><title>Node1&#45;&gt;Node40</title>
<path fill="none" stroke="midnightblue" d="M1568.19,-325.833C1611.84,-316.311 1678.07,-301.086 1743.95,-282.133"/>
<polygon fill="midnightblue" stroke="midnightblue" points="1745.04,-285.462 1753.66,-279.31 1743.08,-278.74 1745.04,-285.462"/>
</g>
<!-- Node3 -->
<g id="node5" class="node"><title>Node3</title>
<polygon fill="none" stroke="#bfbfbf" points="160,-0.5 160,-21.5 270,-21.5 270,-0.5 160,-0.5"/>
<text text-anchor="middle" x="215" y="-8.5" font-family="Helvetica,sans-Serif" font-size="10.00">tlx/meta/vexpand.hpp</text>
</g>
<!-- Node2&#45;&gt;Node3 -->
<g id="edge4" class="edge"><title>Node2&#45;&gt;Node3</title>
<path fill="none" stroke="midnightblue" d="M199.518,-58.922C202.243,-50.4871 205.551,-40.2479 208.408,-31.403"/>
<polygon fill="midnightblue" stroke="midnightblue" points="211.75,-32.4438 211.494,-21.8521 205.089,-30.2918 211.75,-32.4438"/>
</g>
<!-- Node4 -->
<g id="node7" class="node"><title>Node4</title>
<polygon fill="none" stroke="#bfbfbf" points="970,-0.5 970,-21.5 1008,-21.5 1008,-0.5 970,-0.5"/>
<text text-anchor="middle" x="989" y="-8.5" font-family="Helvetica,sans-Serif" font-size="10.00">array</text>
</g>
<!-- Node2&#45;&gt;Node4 -->
<g id="edge6" class="edge"><title>Node2&#45;&gt;Node4</title>
<path fill="none" stroke="midnightblue" d="M242.218,-73.0488C383.014,-64.3343 791.98,-38.3061 925,-22 936.448,-20.5966 948.967,-18.5582 959.873,-16.6164"/>
<polygon fill="midnightblue" stroke="midnightblue" points="960.541,-20.0523 969.747,-14.8081 959.28,-13.1668 960.541,-20.0523"/>
</g>
<!-- Node5 -->
<g id="node9" class="node"><title>Node5</title>
<polygon fill="none" stroke="#bfbfbf" points="867.5,-0.5 867.5,-21.5 916.5,-21.5 916.5,-0.5 867.5,-0.5"/>
<text text-anchor="middle" x="892" y="-8.5" font-family="Helvetica,sans-Serif" font-size="10.00">cassert</text>
</g>
<!-- Node2&#45;&gt;Node5 -->
<g id="edge8" class="edge"><title>Node2&#45;&gt;Node5</title>
<path fill="none" stroke="midnightblue" d="M242.364,-71.7937C343.384,-62.9625 584.16,-41.6776 786,-22 809.678,-19.6916 836.313,-16.9269 856.96,-14.7467"/>
<polygon fill="midnightblue" stroke="midnightblue" points="857.589,-18.1998 867.164,-13.6654 856.851,-11.2388 857.589,-18.1998"/>
</g>
<!-- Node6 -->
<g id="node11" class="node"><title>Node6</title>
<polygon fill="none" stroke="#bfbfbf" points="288,-0.5 288,-21.5 338,-21.5 338,-0.5 288,-0.5"/>
<text text-anchor="middle" x="313" y="-8.5" font-family="Helvetica,sans-Serif" font-size="10.00">fstream</text>
</g>
<!-- Node2&#45;&gt;Node6 -->
<g id="edge10" class="edge"><title>Node2&#45;&gt;Node6</title>
<path fill="none" stroke="midnightblue" d="M225.266,-58.922C243.679,-48.8644 266.789,-36.2415 284.667,-26.476"/>
<polygon fill="midnightblue" stroke="midnightblue" points="286.389,-29.5238 293.487,-21.6584 283.033,-23.3805 286.389,-29.5238"/>
</g>
<!-- Node7 -->
<g id="node13" class="node"><title>Node7</title>
<polygon fill="none" stroke="#bfbfbf" points="69.5,-0.5 69.5,-21.5 142.5,-21.5 142.5,-0.5 69.5,-0.5"/>
<text text-anchor="middle" x="106" y="-8.5" font-family="Helvetica,sans-Serif" font-size="10.00">initializer_list</text>
</g>
<!-- Node2&#45;&gt;Node7 -->
<g id="edge12" class="edge"><title>Node2&#45;&gt;Node7</title>
<path fill="none" stroke="midnightblue" d="M170.879,-58.922C157.887,-49.3257 141.734,-37.3942 128.795,-27.8374"/>
<polygon fill="midnightblue" stroke="midnightblue" points="130.553,-24.7845 120.43,-21.6584 126.394,-30.415 130.553,-24.7845"/>
</g>
<!-- Node8 -->
<g id="node15" class="node"><title>Node8</title>
<polygon fill="none" stroke="#bfbfbf" points="356,-0.5 356,-21.5 400,-21.5 400,-0.5 356,-0.5"/>
<text text-anchor="middle" x="378" y="-8.5" font-family="Helvetica,sans-Serif" font-size="10.00">mutex</text>
</g>
<!-- Node2&#45;&gt;Node8 -->
<g id="edge14" class="edge"><title>Node2&#45;&gt;Node8</title>
<path fill="none" stroke="midnightblue" d="M242.244,-58.9963C270.189,-49.1415 306.276,-36.4061 346.511,-22.1699"/>
<polygon fill="midnightblue" stroke="midnightblue" points="347.727,-25.4523 355.986,-18.8165 345.391,-18.8533 347.727,-25.4523"/>
</g>
<!-- Node9 -->
<g id="node17" class="node"><title>Node9</title>
<polygon fill="none" stroke="#bfbfbf" points="0,-0.5 0,-21.5 52,-21.5 52,-0.5 0,-0.5"/>
<text text-anchor="middle" x="26" y="-8.5" font-family="Helvetica,sans-Serif" font-size="10.00">sstream</text>
</g>
<!-- Node2&#45;&gt;Node9 -->
<g id="edge16" class="edge"><title>Node2&#45;&gt;Node9</title>
<path fill="none" stroke="midnightblue" d="M149.86,-58.922C122.274,-48.249 87.2227,-34.6874 61.4528,-24.7169"/>
<polygon fill="midnightblue" stroke="midnightblue" points="62.6549,-21.4292 52.0657,-21.0849 60.129,-27.9576 62.6549,-21.4292"/>
</g>
<!-- Node2&#45;&gt;Node10 -->
<g id="edge18" class="edge"><title>Node2&#45;&gt;Node10</title>
<path fill="none" stroke="midnightblue" d="M242.33,-61.6955C246.942,-60.4131 251.554,-59.1618 256,-58 288.212,-49.5832 379.297,-28.8003 427.387,-17.9096"/>
<polygon fill="midnightblue" stroke="midnightblue" points="428.257,-21.3013 437.238,-15.6809 426.713,-14.4738 428.257,-21.3013"/>
</g>
<!-- Node2&#45;&gt;Node11 -->
<g id="edge20" class="edge"><title>Node2&#45;&gt;Node11</title>
<path fill="none" stroke="midnightblue" d="M242.207,-73.2488C394.62,-64.4853 864.966,-36.9266 1017,-22 1034.13,-20.3186 1053.14,-17.8765 1068.75,-15.7201"/>
<polygon fill="midnightblue" stroke="midnightblue" points="1069.52,-19.1454 1078.94,-14.2858 1068.55,-12.2137 1069.52,-19.1454"/>
</g>
<!-- Node12&#45;&gt;Node9 -->
<g id="edge122" class="edge"><title>Node12&#45;&gt;Node9</title>
<path fill="none" stroke="midnightblue" d="M602.438,-264.78C548.79,-258.219 469.4,-245.738 403,-224 277.945,-183.061 249.295,-162.59 137,-94 103.643,-73.6259 67.9273,-45.6902 46.2758,-27.9918"/>
<polygon fill="midnightblue" stroke="midnightblue" points="48.3775,-25.1883 38.4355,-21.5266 43.924,-30.589 48.3775,-25.1883"/>
</g>
<!-- Node12&#45;&gt;Node10 -->
<g id="edge124" class="edge"><title>Node12&#45;&gt;Node10</title>
<path fill="none" stroke="midnightblue" d="M608.456,-260.461C526.777,-243.708 380.607,-208.507 350,-166 334.82,-144.918 357.252,-68.1056 365,-58 380.419,-37.8899 406.809,-25.7154 427.547,-18.8132"/>
<polygon fill="midnightblue" stroke="midnightblue" points="428.676,-22.1278 437.201,-15.8367 426.613,-15.4386 428.676,-22.1278"/>
</g>
<!-- Node13 -->
<g id="node25" class="node"><title>Node13</title>
<a xlink:href="allocator_8hpp.html" target="_top" xlink:title="thrill/mem/allocator.hpp">
<polygon fill="none" stroke="black" points="1028,-202.5 1028,-223.5 1146,-223.5 1146,-202.5 1028,-202.5"/>
<text text-anchor="middle" x="1087" y="-210.5" font-family="Helvetica,sans-Serif" font-size="10.00">thrill/mem/allocator.hpp</text>
</a>
</g>
<!-- Node12&#45;&gt;Node13 -->
<g id="edge24" class="edge"><title>Node12&#45;&gt;Node13</title>
<path fill="none" stroke="midnightblue" d="M725.508,-262.566C803.185,-251.915 936.476,-233.639 1017.68,-222.505"/>
<polygon fill="midnightblue" stroke="midnightblue" points="1018.38,-225.942 1027.81,-221.116 1017.42,-219.007 1018.38,-225.942"/>
</g>
<!-- Node32 -->
<g id="node81" class="node"><title>Node32</title>
<a xlink:href="pool_8hpp.html" target="_top" xlink:title="thrill/mem/pool.hpp">
<polygon fill="none" stroke="black" points="614.5,-202.5 614.5,-223.5 713.5,-223.5 713.5,-202.5 614.5,-202.5"/>
<text text-anchor="middle" x="664" y="-210.5" font-family="Helvetica,sans-Serif" font-size="10.00">thrill/mem/pool.hpp</text>
</a>
</g>
<!-- Node12&#45;&gt;Node32 -->
<g id="edge98" class="edge"><title>Node12&#45;&gt;Node32</title>
<path fill="none" stroke="midnightblue" d="M664,-260.362C664,-252.922 664,-242.743 664,-233.728"/>
<polygon fill="midnightblue" stroke="midnightblue" points="667.5,-233.571 664,-223.571 660.5,-233.571 667.5,-233.571"/>
</g>
<!-- Node13&#45;&gt;Node5 -->
<g id="edge82" class="edge"><title>Node13&#45;&gt;Node5</title>
<path fill="none" stroke="midnightblue" d="M1146.06,-204.662C1253.63,-187.219 1463.66,-141.414 1387,-58 1354.86,-23.0253 1008.15,-27.7431 961,-22 949.776,-20.633 937.578,-18.8031 926.603,-17.0287"/>
<polygon fill="midnightblue" stroke="midnightblue" points="926.965,-13.541 916.527,-15.3614 925.822,-20.4471 926.965,-13.541"/>
</g>
<!-- Node13&#45;&gt;Node10 -->
<g id="edge92" class="edge"><title>Node13&#45;&gt;Node10</title>
<path fill="none" stroke="midnightblue" d="M1039.74,-202.47C1011.77,-194.942 976.366,-183.089 948,-166 928.072,-153.995 931.198,-139.585 910,-130 749.373,-57.3737 667.102,-183.11 515,-94 490.725,-79.7784 474.444,-50.6327 465.699,-30.9494"/>
<polygon fill="midnightblue" stroke="midnightblue" points="468.897,-29.5246 461.812,-21.648 462.439,-32.2243 468.897,-29.5246"/>
</g>
<!-- Node13&#45;&gt;Node11 -->
<g id="edge96" class="edge"><title>Node13&#45;&gt;Node11</title>
<path fill="none" stroke="midnightblue" d="M1146.29,-208.807C1237.17,-201.768 1402.34,-186.33 1420,-166 1451.48,-129.765 1451.37,-94.3307 1420,-58 1410.65,-47.175 1212.89,-23.6763 1133.53,-14.641"/>
<polygon fill="midnightblue" stroke="midnightblue" points="1133.48,-11.113 1123.15,-13.4649 1132.69,-18.0685 1133.48,-11.113"/>
</g>
<!-- Node14 -->
<g id="node27" class="node"><title>Node14</title>
<a xlink:href="allocator__base_8hpp.html" target="_top" xlink:title="thrill/mem/allocator\l_base.hpp">
<polygon fill="none" stroke="black" points="1037.5,-131 1037.5,-165 1136.5,-165 1136.5,-131 1037.5,-131"/>
<text text-anchor="start" x="1045.5" y="-152" font-family="Helvetica,sans-Serif" font-size="10.00">thrill/mem/allocator</text>
<text text-anchor="middle" x="1087" y="-139" font-family="Helvetica,sans-Serif" font-size="10.00">_base.hpp</text>
</a>
</g>
<!-- Node13&#45;&gt;Node14 -->
<g id="edge26" class="edge"><title>Node13&#45;&gt;Node14</title>
<path fill="none" stroke="midnightblue" d="M1087,-202.267C1087,-194.931 1087,-184.857 1087,-175.38"/>
<polygon fill="midnightblue" stroke="midnightblue" points="1090.5,-175.11 1087,-165.11 1083.5,-175.11 1090.5,-175.11"/>
</g>
<!-- Node23 -->
<g id="node50" class="node"><title>Node23</title>
<a xlink:href="mem_2manager_8hpp.html" target="_top" xlink:title="thrill/mem/manager.hpp">
<polygon fill="none" stroke="black" points="641.5,-65.5 641.5,-86.5 760.5,-86.5 760.5,-65.5 641.5,-65.5"/>
<text text-anchor="middle" x="701" y="-73.5" font-family="Helvetica,sans-Serif" font-size="10.00">thrill/mem/manager.hpp</text>
</a>
</g>
<!-- Node13&#45;&gt;Node23 -->
<g id="edge80" class="edge"><title>Node13&#45;&gt;Node23</title>
<path fill="none" stroke="midnightblue" d="M1073.59,-202.233C1061.8,-192.746 1044.21,-178.525 1029,-166 1009.76,-150.153 1008.53,-140.665 986,-130 976.261,-125.389 852.118,-102.8 770.922,-88.3377"/>
<polygon fill="midnightblue" stroke="midnightblue" points="771.211,-84.8341 760.752,-86.5287 769.985,-91.726 771.211,-84.8341"/>
</g>
<!-- Node27 -->
<g id="node61" class="node"><title>Node27</title>
<polygon fill="none" stroke="#bfbfbf" points="1221.5,-65.5 1221.5,-86.5 1264.5,-86.5 1264.5,-65.5 1221.5,-65.5"/>
<text text-anchor="middle" x="1243" y="-73.5" font-family="Helvetica,sans-Serif" font-size="10.00">deque</text>
</g>
<!-- Node13&#45;&gt;Node27 -->
<g id="edge84" class="edge"><title>Node13&#45;&gt;Node27</title>
<path fill="none" stroke="midnightblue" d="M1100.55,-202.404C1112.43,-193.026 1130.09,-178.87 1145,-166 1173.28,-141.594 1204.94,-112.108 1224.42,-93.6992"/>
<polygon fill="midnightblue" stroke="midnightblue" points="1226.89,-96.1826 1231.74,-86.7634 1222.08,-91.1017 1226.89,-96.1826"/>
</g>
<!-- Node28 -->
<g id="node63" class="node"><title>Node28</title>
<polygon fill="none" stroke="#bfbfbf" points="1281.5,-65.5 1281.5,-86.5 1326.5,-86.5 1326.5,-65.5 1281.5,-65.5"/>
<text text-anchor="middle" x="1304" y="-73.5" font-family="Helvetica,sans-Serif" font-size="10.00">iosfwd</text>
</g>
<!-- Node13&#45;&gt;Node28 -->
<g id="edge86" class="edge"><title>Node13&#45;&gt;Node28</title>
<path fill="none" stroke="midnightblue" d="M1110.21,-202.349C1129.14,-193.38 1156.34,-179.833 1179,-166 1216.81,-142.915 1258.03,-112.021 1282.41,-93.09"/>
<polygon fill="midnightblue" stroke="midnightblue" points="1284.87,-95.6091 1290.6,-86.6935 1280.56,-90.0937 1284.87,-95.6091"/>
</g>
<!-- Node29 -->
<g id="node65" class="node"><title>Node29</title>
<polygon fill="none" stroke="#bfbfbf" points="1343.5,-65.5 1343.5,-86.5 1378.5,-86.5 1378.5,-65.5 1343.5,-65.5"/>
<text text-anchor="middle" x="1361" y="-73.5" font-family="Helvetica,sans-Serif" font-size="10.00">new</text>
</g>
<!-- Node13&#45;&gt;Node29 -->
<g id="edge90" class="edge"><title>Node13&#45;&gt;Node29</title>
<path fill="none" stroke="midnightblue" d="M1123.71,-202.419C1150.92,-194.01 1188.57,-181.165 1220,-166 1274.31,-139.796 1284.64,-127.171 1335,-94 1335.78,-93.4847 1336.58,-92.9582 1337.38,-92.4241"/>
<polygon fill="midnightblue" stroke="midnightblue" points="1339.66,-95.1061 1345.96,-86.5887 1335.72,-89.3176 1339.66,-95.1061"/>
</g>
<!-- Node30 -->
<g id="node68" class="node"><title>Node30</title>
<polygon fill="none" stroke="#bfbfbf" points="524,-65.5 524,-86.5 586,-86.5 586,-65.5 524,-65.5"/>
<text text-anchor="middle" x="555" y="-73.5" font-family="Helvetica,sans-Serif" font-size="10.00">type_traits</text>
</g>
<!-- Node13&#45;&gt;Node30 -->
<g id="edge94" class="edge"><title>Node13&#45;&gt;Node30</title>
<path fill="none" stroke="midnightblue" d="M1057.82,-202.348C1036.9,-194.03 1008.55,-181.329 986,-166 966.759,-152.922 969.14,-139.714 948,-130 806.71,-65.0768 750.969,-131.232 600,-94 595.864,-92.98 591.604,-91.6595 587.431,-90.1973"/>
<polygon fill="midnightblue" stroke="midnightblue" points="588.542,-86.8753 577.951,-86.6028 586.06,-93.4207 588.542,-86.8753"/>
</g>
<!-- Node31 -->
<g id="node75" class="node"><title>Node31</title>
<polygon fill="none" stroke="#bfbfbf" points="816,-137.5 816,-158.5 868,-158.5 868,-137.5 816,-137.5"/>
<text text-anchor="middle" x="842" y="-145.5" font-family="Helvetica,sans-Serif" font-size="10.00">memory</text>
</g>
<!-- Node13&#45;&gt;Node31 -->
<g id="edge88" class="edge"><title>Node13&#45;&gt;Node31</title>
<path fill="none" stroke="midnightblue" d="M1047.36,-202.484C1000.5,-190.051 923.173,-169.536 877.969,-157.543"/>
<polygon fill="midnightblue" stroke="midnightblue" points="878.584,-154.085 868.02,-154.903 876.788,-160.851 878.584,-154.085"/>
</g>
<!-- Node14&#45;&gt;Node5 -->
<g id="edge66" class="edge"><title>Node14&#45;&gt;Node5</title>
<path fill="none" stroke="midnightblue" d="M1065.98,-130.665C1042.97,-111.968 1004.71,-81.6961 970,-58 953.78,-46.9272 934.936,-35.534 919.833,-26.7385"/>
<polygon fill="midnightblue" stroke="midnightblue" points="921.381,-23.5906 910.97,-21.6238 917.882,-29.6535 921.381,-23.5906"/>
</g>
<!-- Node14&#45;&gt;Node10 -->
<g id="edge74" class="edge"><title>Node14&#45;&gt;Node10</title>
<path fill="none" stroke="midnightblue" d="M1037.49,-138.906C1019.71,-135.823 999.495,-132.524 981,-130 826.936,-108.973 774.29,-158.923 633,-94 611.86,-84.2863 614.901,-70.0494 595,-58 561.283,-37.5855 517.493,-24.5497 488.606,-17.5103"/>
<polygon fill="midnightblue" stroke="midnightblue" points="489.219,-14.0592 478.684,-15.1856 487.622,-20.8746 489.219,-14.0592"/>
</g>
<!-- Node14&#45;&gt;Node11 -->
<g id="edge78" class="edge"><title>Node14&#45;&gt;Node11</title>
<path fill="none" stroke="midnightblue" d="M1071.89,-130.965C1057.68,-112.78 1040.11,-83.1773 1051,-58 1056.12,-46.1595 1065.85,-35.9269 1075.38,-28.0602"/>
<polygon fill="midnightblue" stroke="midnightblue" points="1077.78,-30.6365 1083.58,-21.7752 1073.52,-25.0807 1077.78,-30.6365"/>
</g>
<!-- Node14&#45;&gt;Node15 -->
<g id="edge28" class="edge"><title>Node14&#45;&gt;Node15</title>
<path fill="none" stroke="midnightblue" d="M1136.87,-140.566C1223.09,-127.713 1400.26,-101.304 1499.2,-86.554"/>
<polygon fill="midnightblue" stroke="midnightblue" points="1499.74,-90.0129 1509.11,-85.0767 1498.7,-83.0894 1499.74,-90.0129"/>
</g>
<!-- Node22 -->
<g id="node47" class="node"><title>Node22</title>
<a xlink:href="malloc__tracker_8hpp.html" target="_top" xlink:title="thrill/mem/malloc_tracker.hpp">
<polygon fill="none" stroke="black" points="1059.5,-65.5 1059.5,-86.5 1204.5,-86.5 1204.5,-65.5 1059.5,-65.5"/>
<text text-anchor="middle" x="1132" y="-73.5" font-family="Helvetica,sans-Serif" font-size="10.00">thrill/mem/malloc_tracker.hpp</text>
</a>
</g>
<!-- Node14&#45;&gt;Node22 -->
<g id="edge50" class="edge"><title>Node14&#45;&gt;Node22</title>
<path fill="none" stroke="midnightblue" d="M1097.66,-130.937C1104.32,-120.281 1112.92,-106.53 1119.84,-95.4518"/>
<polygon fill="midnightblue" stroke="midnightblue" points="1122.85,-97.236 1125.19,-86.901 1116.92,-93.526 1122.85,-97.236"/>
</g>
<!-- Node14&#45;&gt;Node23 -->
<g id="edge54" class="edge"><title>Node14&#45;&gt;Node23</title>
<path fill="none" stroke="midnightblue" d="M1037.27,-133.225C1032.8,-132.069 1028.33,-130.974 1024,-130 928.623,-108.536 903.414,-110.183 807,-94 795.279,-92.0326 782.831,-89.9303 770.743,-87.882"/>
<polygon fill="midnightblue" stroke="midnightblue" points="771.142,-84.3998 760.698,-86.1782 769.971,-91.3012 771.142,-84.3998"/>
</g>
<!-- Node25 -->
<g id="node54" class="node"><title>Node25</title>
<polygon fill="none" stroke="#bfbfbf" points="731,-0.5 731,-21.5 777,-21.5 777,-0.5 731,-0.5"/>
<text text-anchor="middle" x="754" y="-8.5" font-family="Helvetica,sans-Serif" font-size="10.00">atomic</text>
</g>
<!-- Node14&#45;&gt;Node25 -->
<g id="edge64" class="edge"><title>Node14&#45;&gt;Node25</title>
<path fill="none" stroke="midnightblue" d="M1039.1,-130.944C1016.95,-121.824 990.96,-109.302 970,-94 952.47,-81.2015 955.615,-69.1617 937,-58 889.685,-29.6299 825.553,-18.2507 787.123,-13.7822"/>
<polygon fill="midnightblue" stroke="midnightblue" points="787.317,-10.283 777,-12.6968 786.57,-17.2431 787.317,-10.283"/>
</g>
<!-- Node26 -->
<g id="node57" class="node"><title>Node26</title>
<polygon fill="none" stroke="#bfbfbf" points="816,-65.5 816,-86.5 928,-86.5 928,-65.5 816,-65.5"/>
<text text-anchor="middle" x="872" y="-73.5" font-family="Helvetica,sans-Serif" font-size="10.00">tlx/allocator_base.hpp</text>
</g>
<!-- Node14&#45;&gt;Node26 -->
<g id="edge62" class="edge"><title>Node14&#45;&gt;Node26</title>
<path fill="none" stroke="midnightblue" d="M1037.4,-131.391C999.657,-118.75 948.333,-101.563 912.915,-89.7019"/>
<polygon fill="midnightblue" stroke="midnightblue" points="913.966,-86.3627 903.372,-86.506 911.743,-93.0004 913.966,-86.3627"/>
</g>
<!-- Node14&#45;&gt;Node27 -->
<g id="edge68" class="edge"><title>Node14&#45;&gt;Node27</title>
<path fill="none" stroke="midnightblue" d="M1130.82,-130.928C1155.36,-120.946 1186.3,-107.652 1213,-94 1214.52,-93.2206 1216.08,-92.3946 1217.63,-91.5417"/>
<polygon fill="midnightblue" stroke="midnightblue" points="1219.48,-94.5165 1226.41,-86.5002 1215.99,-88.4468 1219.48,-94.5165"/>
</g>
<!-- Node14&#45;&gt;Node28 -->
<g id="edge70" class="edge"><title>Node14&#45;&gt;Node28</title>
<path fill="none" stroke="midnightblue" d="M1136.69,-137.07C1174.83,-127.855 1228.33,-113.114 1273,-94 1274.8,-93.2288 1276.63,-92.3749 1278.45,-91.4703"/>
<polygon fill="midnightblue" stroke="midnightblue" points="1280.2,-94.5052 1287.33,-86.6728 1276.87,-88.3464 1280.2,-94.5052"/>
</g>
<!-- Node14&#45;&gt;Node29 -->
<g id="edge72" class="edge"><title>Node14&#45;&gt;Node29</title>
<path fill="none" stroke="midnightblue" d="M1136.75,-142.953C1188.11,-136.432 1269.73,-122.365 1335,-94 1336.38,-93.3982 1337.77,-92.718 1339.15,-91.9832"/>
<polygon fill="midnightblue" stroke="midnightblue" points="1341.18,-94.8406 1347.83,-86.5935 1337.49,-88.893 1341.18,-94.8406"/>
</g>
<!-- Node14&#45;&gt;Node30 -->
<g id="edge76" class="edge"><title>Node14&#45;&gt;Node30</title>
<path fill="none" stroke="midnightblue" d="M1037.3,-138.293C1021,-135.337 1002.77,-132.272 986,-130 815.26,-106.865 767.494,-134.412 600,-94 595.859,-93.0009 591.596,-91.693 587.421,-90.2376"/>
<polygon fill="midnightblue" stroke="midnightblue" points="588.531,-86.9152 577.939,-86.6496 586.053,-93.4622 588.531,-86.9152"/>
</g>
<!-- Node15&#45;&gt;Node4 -->
<g id="edge34" class="edge"><title>Node15&#45;&gt;Node4</title>
<path fill="none" stroke="midnightblue" d="M1509.45,-68.4974C1482.13,-65.1737 1449.46,-61.282 1420,-58 1264.59,-40.6836 1225.28,-40.524 1070,-22 1052.83,-19.9512 1033.65,-17.36 1018.26,-15.2073"/>
<polygon fill="midnightblue" stroke="midnightblue" points="1018.68,-11.7318 1008.29,-13.799 1017.7,-18.663 1018.68,-11.7318"/>
</g>
<!-- Node15&#45;&gt;Node9 -->
<g id="edge44" class="edge"><title>Node15&#45;&gt;Node9</title>
<path fill="none" stroke="midnightblue" d="M1509.09,-68.9171C1473.53,-65.0561 1427.78,-60.5561 1387,-58 1096.11,-39.768 368.32,-69.9657 62.4403,-21.7589"/>
<polygon fill="midnightblue" stroke="midnightblue" points="62.6153,-18.2413 52.1823,-20.0858 61.4884,-25.15 62.6153,-18.2413"/>
</g>
<!-- Node15&#45;&gt;Node10 -->
<g id="edge46" class="edge"><title>Node15&#45;&gt;Node10</title>
<path fill="none" stroke="midnightblue" d="M1509.48,-69.2398C1473.87,-65.4628 1427.92,-60.939 1387,-58 1035.1,-32.7234 946.107,-44.225 594,-22 557.894,-19.721 516.464,-16.2461 488.913,-13.8134"/>
<polygon fill="midnightblue" stroke="midnightblue" points="488.992,-10.3066 478.72,-12.905 488.37,-17.279 488.992,-10.3066"/>
</g>
<!-- Node15&#45;&gt;Node11 -->
<g id="edge48" class="edge"><title>Node15&#45;&gt;Node11</title>
<path fill="none" stroke="midnightblue" d="M1530.63,-65.4942C1519.49,-62.7758 1507.32,-60.0426 1496,-58 1460.61,-51.6136 1221.27,-24.5003 1133.33,-14.6204"/>
<polygon fill="midnightblue" stroke="midnightblue" points="1133.47,-11.1142 1123.14,-13.4769 1132.69,-18.0706 1133.47,-11.1142"/>
</g>
<!-- Node16 -->
<g id="node31" class="node"><title>Node16</title>
<polygon fill="none" stroke="#bfbfbf" points="1437.5,-0.5 1437.5,-21.5 1512.5,-21.5 1512.5,-0.5 1437.5,-0.5"/>
<text text-anchor="middle" x="1475" y="-8.5" font-family="Helvetica,sans-Serif" font-size="10.00">tlx/define.hpp</text>
</g>
<!-- Node15&#45;&gt;Node16 -->
<g id="edge30" class="edge"><title>Node15&#45;&gt;Node16</title>
<path fill="none" stroke="midnightblue" d="M1554.31,-65.2666C1539.23,-54.9494 1516.24,-39.216 1498.88,-27.3421"/>
<polygon fill="midnightblue" stroke="midnightblue" points="1500.62,-24.292 1490.4,-21.5337 1496.67,-30.0692 1500.62,-24.292"/>
</g>
<!-- Node17 -->
<g id="node33" class="node"><title>Node17</title>
<polygon fill="none" stroke="#bfbfbf" points="1530,-0.5 1530,-21.5 1610,-21.5 1610,-0.5 1530,-0.5"/>
<text text-anchor="middle" x="1570" y="-8.5" font-family="Helvetica,sans-Serif" font-size="10.00">tlx/unused.hpp</text>
</g>
<!-- Node15&#45;&gt;Node17 -->
<g id="edge32" class="edge"><title>Node15&#45;&gt;Node17</title>
<path fill="none" stroke="midnightblue" d="M1570,-65.2666C1570,-56.1799 1570,-42.8919 1570,-31.7395"/>
<polygon fill="midnightblue" stroke="midnightblue" points="1573.5,-31.5337 1570,-21.5337 1566.5,-31.5337 1573.5,-31.5337"/>
</g>
<!-- Node18 -->
<g id="node36" class="node"><title>Node18</title>
<polygon fill="none" stroke="#bfbfbf" points="1627.5,-0.5 1627.5,-21.5 1676.5,-21.5 1676.5,-0.5 1627.5,-0.5"/>
<text text-anchor="middle" x="1652" y="-8.5" font-family="Helvetica,sans-Serif" font-size="10.00">cstdarg</text>
</g>
<!-- Node15&#45;&gt;Node18 -->
<g id="edge36" class="edge"><title>Node15&#45;&gt;Node18</title>
<path fill="none" stroke="midnightblue" d="M1583.54,-65.2666C1596.32,-55.1387 1615.68,-39.7916 1630.55,-27.9995"/>
<polygon fill="midnightblue" stroke="midnightblue" points="1633.05,-30.4885 1638.71,-21.5337 1628.7,-25.0029 1633.05,-30.4885"/>
</g>
<!-- Node19 -->
<g id="node38" class="node"><title>Node19</title>
<polygon fill="none" stroke="#bfbfbf" points="1209.5,-0.5 1209.5,-21.5 1254.5,-21.5 1254.5,-0.5 1209.5,-0.5"/>
<text text-anchor="middle" x="1232" y="-8.5" font-family="Helvetica,sans-Serif" font-size="10.00">cstdlib</text>
</g>
<!-- Node15&#45;&gt;Node19 -->
<g id="edge38" class="edge"><title>Node15&#45;&gt;Node19</title>
<path fill="none" stroke="midnightblue" d="M1528.62,-65.4514C1518.01,-62.8816 1506.61,-60.2325 1496,-58 1413.06,-40.5485 1314.58,-24.1492 1264.6,-16.1311"/>
<polygon fill="midnightblue" stroke="midnightblue" points="1265.12,-12.67 1254.69,-14.5499 1264.02,-19.5825 1265.12,-12.67"/>
</g>
<!-- Node20 -->
<g id="node40" class="node"><title>Node20</title>
<polygon fill="none" stroke="#bfbfbf" points="1694,-0.5 1694,-21.5 1734,-21.5 1734,-0.5 1694,-0.5"/>
<text text-anchor="middle" x="1714" y="-8.5" font-family="Helvetica,sans-Serif" font-size="10.00">limits</text>
</g>
<!-- Node15&#45;&gt;Node20 -->
<g id="edge40" class="edge"><title>Node15&#45;&gt;Node20</title>
<path fill="none" stroke="midnightblue" d="M1593.46,-65.412C1618.3,-54.1983 1657.57,-36.4702 1684.5,-24.3165"/>
<polygon fill="midnightblue" stroke="midnightblue" points="1686.14,-27.4177 1693.81,-20.1134 1683.26,-21.0375 1686.14,-27.4177"/>
</g>
<!-- Node21 -->
<g id="node42" class="node"><title>Node21</title>
<polygon fill="none" stroke="#bfbfbf" points="1371.5,-0.5 1371.5,-21.5 1420.5,-21.5 1420.5,-0.5 1371.5,-0.5"/>
<text text-anchor="middle" x="1396" y="-8.5" font-family="Helvetica,sans-Serif" font-size="10.00">random</text>
</g>
<!-- Node15&#45;&gt;Node21 -->
<g id="edge42" class="edge"><title>Node15&#45;&gt;Node21</title>
<path fill="none" stroke="midnightblue" d="M1541.66,-65.412C1511.2,-54.0342 1462.79,-35.9498 1430.23,-23.7864"/>
<polygon fill="midnightblue" stroke="midnightblue" points="1431.26,-20.4364 1420.67,-20.2156 1428.81,-26.9938 1431.26,-20.4364"/>
</g>
<!-- Node22&#45;&gt;Node19 -->
<g id="edge52" class="edge"><title>Node22&#45;&gt;Node19</title>
<path fill="none" stroke="midnightblue" d="M1148.51,-65.2666C1164.53,-54.8548 1189.04,-38.9269 1207.36,-27.0163"/>
<polygon fill="midnightblue" stroke="midnightblue" points="1209.32,-29.9182 1215.79,-21.5337 1205.5,-24.0491 1209.32,-29.9182"/>
</g>
<!-- Node23&#45;&gt;Node5 -->
<g id="edge60" class="edge"><title>Node23&#45;&gt;Node5</title>
<path fill="none" stroke="midnightblue" d="M732.113,-65.412C766.607,-53.673 822.079,-34.795 857.777,-22.6465"/>
<polygon fill="midnightblue" stroke="midnightblue" points="858.949,-25.9451 867.288,-19.4099 856.693,-19.3183 858.949,-25.9451"/>
</g>
<!-- Node24 -->
<g id="node52" class="node"><title>Node24</title>
<polygon fill="none" stroke="#bfbfbf" points="603,-0.5 603,-21.5 659,-21.5 659,-0.5 603,-0.5"/>
<text text-anchor="middle" x="631" y="-8.5" font-family="Helvetica,sans-Serif" font-size="10.00">algorithm</text>
</g>
<!-- Node23&#45;&gt;Node24 -->
<g id="edge56" class="edge"><title>Node23&#45;&gt;Node24</title>
<path fill="none" stroke="midnightblue" d="M689.441,-65.2666C678.738,-55.328 662.622,-40.3635 650.023,-28.6645"/>
<polygon fill="midnightblue" stroke="midnightblue" points="652.054,-25.7735 642.344,-21.5337 647.29,-30.903 652.054,-25.7735"/>
</g>
<!-- Node23&#45;&gt;Node25 -->
<g id="edge58" class="edge"><title>Node23&#45;&gt;Node25</title>
<path fill="none" stroke="midnightblue" d="M709.752,-65.2666C717.701,-55.5173 729.594,-40.9317 739.049,-29.3365"/>
<polygon fill="midnightblue" stroke="midnightblue" points="741.804,-31.4957 745.411,-21.5337 736.379,-27.0721 741.804,-31.4957"/>
</g>
<!-- Node32&#45;&gt;Node8 -->
<g id="edge112" class="edge"><title>Node32&#45;&gt;Node8</title>
<path fill="none" stroke="midnightblue" d="M614.227,-209.082C530.046,-201.947 366.999,-185.733 350,-166 316.681,-127.322 346.848,-62.6265 365.626,-30.4288"/>
<polygon fill="midnightblue" stroke="midnightblue" points="368.82,-31.9115 371.005,-21.5445 362.832,-28.2859 368.82,-31.9115"/>
</g>
<!-- Node32&#45;&gt;Node10 -->
<g id="edge114" class="edge"><title>Node32&#45;&gt;Node10</title>
<path fill="none" stroke="midnightblue" d="M614.348,-208.697C533.555,-201.187 380.986,-184.696 365,-166 326.32,-120.765 395.995,-57.4823 434.706,-27.7203"/>
<polygon fill="midnightblue" stroke="midnightblue" points="437.005,-30.3704 442.897,-21.5651 432.8,-24.7742 437.005,-30.3704"/>
</g>
<!-- Node32&#45;&gt;Node11 -->
<g id="edge120" class="edge"><title>Node32&#45;&gt;Node11</title>
<path fill="none" stroke="midnightblue" d="M688.951,-202.458C705.965,-194.351 728.192,-181.857 744,-166 783.233,-126.645 761.156,-89.4056 807,-58 817.771,-50.6215 994.702,-25.6096 1068.78,-15.3974"/>
<polygon fill="midnightblue" stroke="midnightblue" points="1069.5,-18.8313 1078.93,-14.0019 1068.55,-11.8965 1069.5,-18.8313"/>
</g>
<!-- Node32&#45;&gt;Node14 -->
<g id="edge102" class="edge"><title>Node32&#45;&gt;Node14</title>
<path fill="none" stroke="midnightblue" d="M713.767,-205.353C792.045,-193.324 943.639,-170.029 1027.54,-157.138"/>
<polygon fill="midnightblue" stroke="midnightblue" points="1028.07,-160.597 1037.42,-155.618 1027.01,-153.678 1028.07,-160.597"/>
</g>
<!-- Node32&#45;&gt;Node24 -->
<g id="edge104" class="edge"><title>Node32&#45;&gt;Node24</title>
<path fill="none" stroke="midnightblue" d="M673.58,-202.432C687.773,-185.469 710.879,-151.857 693,-130 641.896,-67.5261 566.104,-156.474 515,-94 504.87,-81.6156 506.059,-71.269 515,-58 532.204,-32.4668 565.9,-20.7999 592.561,-15.4716"/>
<polygon fill="midnightblue" stroke="midnightblue" points="593.515,-18.8573 602.751,-13.6672 592.294,-11.9645 593.515,-18.8573"/>
</g>
<!-- Node32&#45;&gt;Node30 -->
<g id="edge116" class="edge"><title>Node32&#45;&gt;Node30</title>
<path fill="none" stroke="midnightblue" d="M687.022,-202.371C701.089,-194.508 717.887,-182.33 726,-166 733.119,-151.671 735.635,-142.774 726,-130 690.928,-83.5035 655.11,-112.84 600,-94 596.634,-92.8492 593.152,-91.5875 589.684,-90.2829"/>
<polygon fill="midnightblue" stroke="midnightblue" points="590.647,-86.9025 580.058,-86.5494 588.116,-93.4288 590.647,-86.9025"/>
</g>
<!-- Node32&#45;&gt;Node31 -->
<g id="edge110" class="edge"><title>Node32&#45;&gt;Node31</title>
<path fill="none" stroke="midnightblue" d="M697.785,-202.481C725.924,-193.485 766.917,-179.832 802,-166 804.657,-164.953 807.393,-163.826 810.13,-162.665"/>
<polygon fill="midnightblue" stroke="midnightblue" points="811.549,-165.865 819.314,-158.657 808.749,-159.449 811.549,-165.865"/>
</g>
<!-- Node33 -->
<g id="node83" class="node"><title>Node33</title>
<a xlink:href="config_8hpp.html" target="_top" xlink:title="thrill/common/config.hpp">
<polygon fill="none" stroke="black" points="373.5,-137.5 373.5,-158.5 496.5,-158.5 496.5,-137.5 373.5,-137.5"/>
<text text-anchor="middle" x="435" y="-145.5" font-family="Helvetica,sans-Serif" font-size="10.00">thrill/common/config.hpp</text>
</a>
</g>
<!-- Node32&#45;&gt;Node33 -->
<g id="edge100" class="edge"><title>Node32&#45;&gt;Node33</title>
<path fill="none" stroke="midnightblue" d="M626.953,-202.484C587.376,-191.251 524.558,-173.421 481.641,-161.239"/>
<polygon fill="midnightblue" stroke="midnightblue" points="482.57,-157.864 471.994,-158.501 480.658,-164.598 482.57,-157.864"/>
</g>
<!-- Node34 -->
<g id="node87" class="node"><title>Node34</title>
<polygon fill="none" stroke="#bfbfbf" points="513.5,-137.5 513.5,-158.5 562.5,-158.5 562.5,-137.5 513.5,-137.5"/>
<text text-anchor="middle" x="538" y="-145.5" font-family="Helvetica,sans-Serif" font-size="10.00">cstddef</text>
</g>
<!-- Node32&#45;&gt;Node34 -->
<g id="edge106" class="edge"><title>Node32&#45;&gt;Node34</title>
<path fill="none" stroke="midnightblue" d="M642.478,-202.363C623.566,-192.958 595.344,-178.787 571,-166 569.451,-165.186 567.864,-164.346 566.265,-163.493"/>
<polygon fill="midnightblue" stroke="midnightblue" points="567.603,-160.238 557.14,-158.572 564.281,-166.399 567.603,-160.238"/>
</g>
<!-- Node35 -->
<g id="node89" class="node"><title>Node35</title>
<polygon fill="none" stroke="#bfbfbf" points="580,-137.5 580,-158.5 626,-158.5 626,-137.5 580,-137.5"/>
<text text-anchor="middle" x="603" y="-145.5" font-family="Helvetica,sans-Serif" font-size="10.00">cstdint</text>
</g>
<!-- Node32&#45;&gt;Node35 -->
<g id="edge108" class="edge"><title>Node32&#45;&gt;Node35</title>
<path fill="none" stroke="midnightblue" d="M653.927,-202.267C644.689,-192.423 630.824,-177.648 619.892,-166"/>
<polygon fill="midnightblue" stroke="midnightblue" points="622.281,-163.43 612.885,-158.534 617.176,-168.221 622.281,-163.43"/>
</g>
<!-- Node36 -->
<g id="node95" class="node"><title>Node36</title>
<polygon fill="none" stroke="#bfbfbf" points="644,-137.5 644,-158.5 684,-158.5 684,-137.5 644,-137.5"/>
<text text-anchor="middle" x="664" y="-145.5" font-family="Helvetica,sans-Serif" font-size="10.00">utility</text>
</g>
<!-- Node32&#45;&gt;Node36 -->
<g id="edge118" class="edge"><title>Node32&#45;&gt;Node36</title>
<path fill="none" stroke="midnightblue" d="M664,-202.267C664,-193.18 664,-179.892 664,-168.74"/>
<polygon fill="midnightblue" stroke="midnightblue" points="667.5,-168.534 664,-158.534 660.5,-168.534 667.5,-168.534"/>
</g>
</g>
</svg>
