<?xml version="1.0" encoding="UTF-8" standalone="no"?>
<!DOCTYPE svg PUBLIC "-//W3C//DTD SVG 1.1//EN"
 "http://www.w3.org/Graphics/SVG/1.1/DTD/svg11.dtd">
<!-- Generated by graphviz version 2.26.3 (20100126.1600)
 -->
<!-- Title: thrill/io/linuxaio_request.hpp Pages: 1 -->
<svg width="540pt" height="116pt"
 viewBox="0.00 0.00 540.00 116.00" xmlns="http://www.w3.org/2000/svg" xmlns:xlink="http://www.w3.org/1999/xlink">
<g id="graph1" class="graph" transform="scale(1 1) rotate(0) translate(4 112)">
<title>thrill/io/linuxaio_request.hpp</title>
<!-- Node1 -->
<g id="node1" class="node"><title>Node1</title>
<polygon fill="#bfbfbf" stroke="black" points="237.5,-73 237.5,-107 318.5,-107 318.5,-73 237.5,-73"/>
<text text-anchor="start" x="245.5" y="-94" font-family="Helvetica,sans-Serif" font-size="10.00">thrill/io/linuxaio</text>
<text text-anchor="middle" x="278" y="-81" font-family="Helvetica,sans-Serif" font-size="10.00">_request.hpp</text>
</g>
<!-- Node2 -->
<g id="node3" class="node"><title>Node2</title>
<a xlink:href="disk__queues_8cpp.html" target="_top" xlink:title="thrill/io/disk_queues.cpp">
<polygon fill="none" stroke="black" points="0,-7.5 0,-28.5 122,-28.5 122,-7.5 0,-7.5"/>
<text text-anchor="middle" x="61" y="-15.5" font-family="Helvetica,sans-Serif" font-size="10.00">thrill/io/disk_queues.cpp</text>
</a>
</g>
<!-- Node1&#45;&gt;Node2 -->
<g id="edge2" class="edge"><title>Node1&#45;&gt;Node2</title>
<path fill="none" stroke="midnightblue" d="M227.772,-73.3345C186.195,-59.5395 128.388,-40.359 92.8984,-28.5838"/>
<polygon fill="midnightblue" stroke="midnightblue" points="226.845,-76.7145 237.439,-76.5418 229.05,-70.0707 226.845,-76.7145"/>
</g>
<!-- Node3 -->
<g id="node5" class="node"><title>Node3</title>
<a xlink:href="linuxaio__file_8cpp.html" target="_top" xlink:title="thrill/io/linuxaio\l_file.cpp">
<polygon fill="none" stroke="black" points="139.5,-1 139.5,-35 220.5,-35 220.5,-1 139.5,-1"/>
<text text-anchor="start" x="147.5" y="-22" font-family="Helvetica,sans-Serif" font-size="10.00">thrill/io/linuxaio</text>
<text text-anchor="middle" x="180" y="-9" font-family="Helvetica,sans-Serif" font-size="10.00">_file.cpp</text>
</a>
</g>
<!-- Node1&#45;&gt;Node3 -->
<g id="edge4" class="edge"><title>Node1&#45;&gt;Node3</title>
<path fill="none" stroke="midnightblue" d="M246.401,-66.7841C232.421,-56.5135 216.27,-44.6475 203.398,-35.19"/>
<polygon fill="midnightblue" stroke="midnightblue" points="244.644,-69.8368 254.775,-72.937 248.789,-64.1956 244.644,-69.8368"/>
</g>
<!-- Node4 -->
<g id="node7" class="node"><title>Node4</title>
<a xlink:href="linuxaio__queue_8cpp.html" target="_top" xlink:title="thrill/io/linuxaio\l_queue.cpp">
<polygon fill="none" stroke="black" points="237.5,-1 237.5,-35 318.5,-35 318.5,-1 237.5,-1"/>
<text text-anchor="start" x="245.5" y="-22" font-family="Helvetica,sans-Serif" font-size="10.00">thrill/io/linuxaio</text>
<text text-anchor="middle" x="278" y="-9" font-family="Helvetica,sans-Serif" font-size="10.00">_queue.cpp</text>
</a>
</g>
<!-- Node1&#45;&gt;Node4 -->
<g id="edge6" class="edge"><title>Node1&#45;&gt;Node4</title>
<path fill="none" stroke="midnightblue" d="M278,-62.7193C278,-53.572 278,-43.6255 278,-35.4407"/>
<polygon fill="midnightblue" stroke="midnightblue" points="274.5,-62.937 278,-72.937 281.5,-62.937 274.5,-62.937"/>
</g>
<!-- Node5 -->
<g id="node9" class="node"><title>Node5</title>
<a xlink:href="linuxaio__request_8cpp.html" target="_top" xlink:title="thrill/io/linuxaio\l_request.cpp">
<polygon fill="none" stroke="black" points="335.5,-1 335.5,-35 416.5,-35 416.5,-1 335.5,-1"/>
<text text-anchor="start" x="343.5" y="-22" font-family="Helvetica,sans-Serif" font-size="10.00">thrill/io/linuxaio</text>
<text text-anchor="middle" x="376" y="-9" font-family="Helvetica,sans-Serif" font-size="10.00">_request.cpp</text>
</a>
</g>
<!-- Node1&#45;&gt;Node5 -->
<g id="edge8" class="edge"><title>Node1&#45;&gt;Node5</title>
<path fill="none" stroke="midnightblue" d="M309.599,-66.7841C323.579,-56.5135 339.73,-44.6475 352.602,-35.19"/>
<polygon fill="midnightblue" stroke="midnightblue" points="307.211,-64.1956 301.225,-72.937 311.356,-69.8368 307.211,-64.1956"/>
</g>
<!-- Node6 -->
<g id="node11" class="node"><title>Node6</title>
<a xlink:href="request_8cpp.html" target="_top" xlink:title="thrill/io/request.cpp">
<polygon fill="none" stroke="black" points="433.5,-7.5 433.5,-28.5 532.5,-28.5 532.5,-7.5 433.5,-7.5"/>
<text text-anchor="middle" x="483" y="-15.5" font-family="Helvetica,sans-Serif" font-size="10.00">thrill/io/request.cpp</text>
</a>
</g>
<!-- Node1&#45;&gt;Node6 -->
<g id="edge10" class="edge"><title>Node1&#45;&gt;Node6</title>
<path fill="none" stroke="midnightblue" d="M328.113,-72.3993C367.177,-58.6793 420.125,-40.083 452.898,-28.5725"/>
<polygon fill="midnightblue" stroke="midnightblue" points="326.777,-69.1591 318.501,-75.7751 329.096,-75.7635 326.777,-69.1591"/>
</g>
</g>
</svg>
