<?xml version="1.0" encoding="UTF-8" standalone="no"?>
<!DOCTYPE svg PUBLIC "-//W3C//DTD SVG 1.1//EN"
 "http://www.w3.org/Graphics/SVG/1.1/DTD/svg11.dtd">
<!-- Generated by graphviz version 2.26.3 (20100126.1600)
 -->
<!-- Title: extlib/tlx/tlx/loser_tree.hpp Pages: 1 -->
<svg width="705pt" height="174pt"
 viewBox="0.00 0.00 705.00 174.00" xmlns="http://www.w3.org/2000/svg" xmlns:xlink="http://www.w3.org/1999/xlink">
<g id="graph1" class="graph" transform="scale(1 1) rotate(0) translate(4 170)">
<title>extlib/tlx/tlx/loser_tree.hpp</title>
<!-- Node1 -->
<g id="node1" class="node"><title>Node1</title>
<polygon fill="#bfbfbf" stroke="black" points="228.5,-131 228.5,-165 319.5,-165 319.5,-131 228.5,-131"/>
<text text-anchor="start" x="236.5" y="-152" font-family="Helvetica,sans-Serif" font-size="10.00">extlib/tlx/tlx/loser</text>
<text text-anchor="middle" x="274" y="-139" font-family="Helvetica,sans-Serif" font-size="10.00">_tree.hpp</text>
</g>
<!-- Node2 -->
<g id="node3" class="node"><title>Node2</title>
<polygon fill="none" stroke="#bfbfbf" points="0,-0.5 0,-21.5 56,-21.5 56,-0.5 0,-0.5"/>
<text text-anchor="middle" x="28" y="-8.5" font-family="Helvetica,sans-Serif" font-size="10.00">algorithm</text>
</g>
<!-- Node1&#45;&gt;Node2 -->
<g id="edge2" class="edge"><title>Node1&#45;&gt;Node2</title>
<path fill="none" stroke="midnightblue" d="M228.296,-143.533C167.57,-136.617 65.0183,-121.192 40,-94 24.744,-77.4185 23.5478,-50.5526 24.9878,-31.8963"/>
<polygon fill="midnightblue" stroke="midnightblue" points="28.4891,-32.0725 26.0882,-21.7533 21.5299,-31.3175 28.4891,-32.0725"/>
</g>
<!-- Node3 -->
<g id="node5" class="node"><title>Node3</title>
<polygon fill="none" stroke="#bfbfbf" points="214.5,-65.5 214.5,-86.5 263.5,-86.5 263.5,-65.5 214.5,-65.5"/>
<text text-anchor="middle" x="239" y="-73.5" font-family="Helvetica,sans-Serif" font-size="10.00">cassert</text>
</g>
<!-- Node1&#45;&gt;Node3 -->
<g id="edge4" class="edge"><title>Node1&#45;&gt;Node3</title>
<path fill="none" stroke="midnightblue" d="M265.705,-130.937C260.629,-120.494 254.108,-107.079 248.78,-96.1197"/>
<polygon fill="midnightblue" stroke="midnightblue" points="251.819,-94.3645 244.299,-86.901 245.523,-97.4249 251.819,-94.3645"/>
</g>
<!-- Node4 -->
<g id="node7" class="node"><title>Node4</title>
<polygon fill="none" stroke="#bfbfbf" points="280.5,-65.5 280.5,-86.5 339.5,-86.5 339.5,-65.5 280.5,-65.5"/>
<text text-anchor="middle" x="310" y="-73.5" font-family="Helvetica,sans-Serif" font-size="10.00">functional</text>
</g>
<!-- Node1&#45;&gt;Node4 -->
<g id="edge6" class="edge"><title>Node1&#45;&gt;Node4</title>
<path fill="none" stroke="midnightblue" d="M282.531,-130.937C287.753,-120.494 294.46,-107.079 299.94,-96.1197"/>
<polygon fill="midnightblue" stroke="midnightblue" points="303.208,-97.4106 304.549,-86.901 296.947,-94.28 303.208,-97.4106"/>
</g>
<!-- Node5 -->
<g id="node9" class="node"><title>Node5</title>
<polygon fill="none" stroke="#bfbfbf" points="155,-0.5 155,-21.5 195,-21.5 195,-0.5 155,-0.5"/>
<text text-anchor="middle" x="175" y="-8.5" font-family="Helvetica,sans-Serif" font-size="10.00">utility</text>
</g>
<!-- Node1&#45;&gt;Node5 -->
<g id="edge8" class="edge"><title>Node1&#45;&gt;Node5</title>
<path fill="none" stroke="midnightblue" d="M245.822,-130.861C232.243,-121.413 216.637,-108.633 206,-94 192.219,-75.0412 183.861,-49.2462 179.352,-31.4698"/>
<polygon fill="midnightblue" stroke="midnightblue" points="182.721,-30.5059 177.028,-21.5705 175.906,-32.1057 182.721,-30.5059"/>
</g>
<!-- Node6 -->
<g id="node11" class="node"><title>Node6</title>
<a xlink:href="likely_8hpp.html" target="_top" xlink:title="tlx/define/likely.hpp">
<polygon fill="none" stroke="black" points="356.5,-65.5 356.5,-86.5 457.5,-86.5 457.5,-65.5 356.5,-65.5"/>
<text text-anchor="middle" x="407" y="-73.5" font-family="Helvetica,sans-Serif" font-size="10.00">tlx/define/likely.hpp</text>
</a>
</g>
<!-- Node1&#45;&gt;Node6 -->
<g id="edge10" class="edge"><title>Node1&#45;&gt;Node6</title>
<path fill="none" stroke="midnightblue" d="M305.519,-130.937C327.601,-118.983 356.876,-103.135 378.307,-91.5331"/>
<polygon fill="midnightblue" stroke="midnightblue" points="380.129,-94.5267 387.257,-86.688 376.796,-88.3709 380.129,-94.5267"/>
</g>
<!-- Node7 -->
<g id="node13" class="node"><title>Node7</title>
<a xlink:href="round__to__power__of__two_8hpp.html" target="_top" xlink:title="tlx/math/round_to_power\l_of_two.hpp">
<polygon fill="none" stroke="black" points="475,-59 475,-93 599,-93 599,-59 475,-59"/>
<text text-anchor="start" x="483" y="-80" font-family="Helvetica,sans-Serif" font-size="10.00">tlx/math/round_to_power</text>
<text text-anchor="middle" x="537" y="-67" font-family="Helvetica,sans-Serif" font-size="10.00">_of_two.hpp</text>
</a>
</g>
<!-- Node1&#45;&gt;Node7 -->
<g id="edge12" class="edge"><title>Node1&#45;&gt;Node7</title>
<path fill="none" stroke="midnightblue" d="M319.511,-135.541C359.59,-124.569 418.646,-108.401 465.109,-95.6812"/>
<polygon fill="midnightblue" stroke="midnightblue" points="466.1,-99.0387 474.821,-93.0224 464.252,-92.2871 466.1,-99.0387"/>
</g>
<!-- Node8 -->
<g id="node15" class="node"><title>Node8</title>
<a xlink:href="simple__vector_8hpp.html" target="_top" xlink:title="tlx/simple_vector.hpp">
<polygon fill="none" stroke="black" points="49,-65.5 49,-86.5 159,-86.5 159,-65.5 49,-65.5"/>
<text text-anchor="middle" x="104" y="-73.5" font-family="Helvetica,sans-Serif" font-size="10.00">tlx/simple_vector.hpp</text>
</a>
</g>
<!-- Node1&#45;&gt;Node8 -->
<g id="edge14" class="edge"><title>Node1&#45;&gt;Node8</title>
<path fill="none" stroke="midnightblue" d="M233.712,-130.937C204.728,-118.661 166.048,-102.279 138.487,-90.6061"/>
<polygon fill="midnightblue" stroke="midnightblue" points="139.809,-87.3652 129.236,-86.688 137.079,-93.8109 139.809,-87.3652"/>
</g>
<!-- Node10 -->
<g id="node21" class="node"><title>Node10</title>
<a xlink:href="unused_8hpp.html" target="_top" xlink:title="tlx/unused.hpp">
<polygon fill="none" stroke="black" points="617,-65.5 617,-86.5 697,-86.5 697,-65.5 617,-65.5"/>
<text text-anchor="middle" x="657" y="-73.5" font-family="Helvetica,sans-Serif" font-size="10.00">tlx/unused.hpp</text>
</a>
</g>
<!-- Node1&#45;&gt;Node10 -->
<g id="edge22" class="edge"><title>Node1&#45;&gt;Node10</title>
<path fill="none" stroke="midnightblue" d="M319.683,-143.424C384.547,-136.294 506.714,-120.529 608,-94 612.41,-92.845 616.978,-91.4491 621.472,-89.9514"/>
<polygon fill="midnightblue" stroke="midnightblue" points="622.831,-93.1839 631.103,-86.5644 620.508,-86.5804 622.831,-93.1839"/>
</g>
<!-- Node8&#45;&gt;Node2 -->
<g id="edge16" class="edge"><title>Node8&#45;&gt;Node2</title>
<path fill="none" stroke="midnightblue" d="M91.4501,-65.2666C79.719,-55.2334 61.9989,-40.078 48.264,-28.3311"/>
<polygon fill="midnightblue" stroke="midnightblue" points="50.1909,-25.3735 40.3163,-21.5337 45.6411,-30.6933 50.1909,-25.3735"/>
</g>
<!-- Node8&#45;&gt;Node5 -->
<g id="edge20" class="edge"><title>Node8&#45;&gt;Node5</title>
<path fill="none" stroke="midnightblue" d="M115.724,-65.2666C126.684,-55.2334 143.238,-40.078 156.069,-28.3311"/>
<polygon fill="midnightblue" stroke="midnightblue" points="158.481,-30.8678 163.494,-21.5337 153.755,-25.7047 158.481,-30.8678"/>
</g>
<!-- Node9 -->
<g id="node18" class="node"><title>Node9</title>
<polygon fill="none" stroke="#bfbfbf" points="81.5,-0.5 81.5,-21.5 126.5,-21.5 126.5,-0.5 81.5,-0.5"/>
<text text-anchor="middle" x="104" y="-8.5" font-family="Helvetica,sans-Serif" font-size="10.00">cstdlib</text>
</g>
<!-- Node8&#45;&gt;Node9 -->
<g id="edge18" class="edge"><title>Node8&#45;&gt;Node9</title>
<path fill="none" stroke="midnightblue" d="M104,-65.2666C104,-56.1799 104,-42.8919 104,-31.7395"/>
<polygon fill="midnightblue" stroke="midnightblue" points="107.5,-31.5337 104,-21.5337 100.5,-31.5337 107.5,-31.5337"/>
</g>
</g>
</svg>
