<?xml version="1.0" encoding="UTF-8" standalone="no"?>
<!DOCTYPE svg PUBLIC "-//W3C//DTD SVG 1.1//EN"
 "http://www.w3.org/Graphics/SVG/1.1/DTD/svg11.dtd">
<!-- Generated by graphviz version 2.36.0 (20140111.2315)
 -->
<!-- Title: extlib/tlx/tlx/container/lru_cache.hpp Pages: 1 -->
<svg width="555pt" height="96pt"
 viewBox="0.00 0.00 555.00 96.00" xmlns="http://www.w3.org/2000/svg" xmlns:xlink="http://www.w3.org/1999/xlink">
<g id="graph0" class="graph" transform="scale(1 1) rotate(0) translate(4 92)">
<title>extlib/tlx/tlx/container/lru_cache.hpp</title>
<!-- Node1 -->
<g id="node1" class="node"><title>Node1</title>
<polygon fill="#bfbfbf" stroke="black" points="199,-57 199,-87 309,-87 309,-57 199,-57"/>
<text text-anchor="start" x="207" y="-75" font-family="Helvetica,sans-Serif" font-size="10.00">extlib/tlx/tlx/container</text>
<text text-anchor="middle" x="254" y="-64" font-family="Helvetica,sans-Serif" font-size="10.00">/lru_cache.hpp</text>
</g>
<!-- Node2 -->
<g id="node2" class="node"><title>Node2</title>
<polygon fill="none" stroke="#bfbfbf" points="-0.5,-0.5 -0.5,-19.5 48.5,-19.5 48.5,-0.5 -0.5,-0.5"/>
<text text-anchor="middle" x="24" y="-7.5" font-family="Helvetica,sans-Serif" font-size="10.00">cassert</text>
</g>
<!-- Node1&#45;&gt;Node2 -->
<g id="edge1" class="edge"><title>Node1&#45;&gt;Node2</title>
<path fill="none" stroke="midnightblue" d="M198.755,-56.9014C161.552,-47.3605 111.129,-34.3395 58.6726,-20.4242"/>
<polygon fill="midnightblue" stroke="midnightblue" points="59.4204,-17.0015 48.857,-17.8161 57.6228,-23.7668 59.4204,-17.0015"/>
</g>
<!-- Node3 -->
<g id="node3" class="node"><title>Node3</title>
<polygon fill="none" stroke="#bfbfbf" points="66.5,-0.5 66.5,-19.5 115.5,-19.5 115.5,-0.5 66.5,-0.5"/>
<text text-anchor="middle" x="91" y="-7.5" font-family="Helvetica,sans-Serif" font-size="10.00">cstddef</text>
</g>
<!-- Node1&#45;&gt;Node3 -->
<g id="edge2" class="edge"><title>Node1&#45;&gt;Node3</title>
<path fill="none" stroke="midnightblue" d="M215.784,-56.9327C187.915,-46.6744 150.535,-32.9148 123.972,-23.1369"/>
<polygon fill="midnightblue" stroke="midnightblue" points="124.957,-19.7699 114.363,-19.6 122.539,-26.339 124.957,-19.7699"/>
</g>
<!-- Node4 -->
<g id="node4" class="node"><title>Node4</title>
<polygon fill="none" stroke="#bfbfbf" points="133.5,-0.5 133.5,-19.5 192.5,-19.5 192.5,-0.5 133.5,-0.5"/>
<text text-anchor="middle" x="163" y="-7.5" font-family="Helvetica,sans-Serif" font-size="10.00">functional</text>
</g>
<!-- Node1&#45;&gt;Node4 -->
<g id="edge3" class="edge"><title>Node1&#45;&gt;Node4</title>
<path fill="none" stroke="midnightblue" d="M232.434,-56.7808C218.034,-47.2862 199.163,-34.8434 184.729,-25.3267"/>
<polygon fill="midnightblue" stroke="midnightblue" points="186.251,-22.1383 175.976,-19.5557 182.398,-27.9823 186.251,-22.1383"/>
</g>
<!-- Node5 -->
<g id="node5" class="node"><title>Node5</title>
<polygon fill="none" stroke="#bfbfbf" points="210.5,-0.5 210.5,-19.5 239.5,-19.5 239.5,-0.5 210.5,-0.5"/>
<text text-anchor="middle" x="225" y="-7.5" font-family="Helvetica,sans-Serif" font-size="10.00">list</text>
</g>
<!-- Node1&#45;&gt;Node5 -->
<g id="edge4" class="edge"><title>Node1&#45;&gt;Node5</title>
<path fill="none" stroke="midnightblue" d="M247.127,-56.7808C243.087,-48.4217 237.942,-37.7773 233.631,-28.8565"/>
<polygon fill="midnightblue" stroke="midnightblue" points="236.723,-27.2109 229.22,-19.7305 230.42,-30.2571 236.723,-27.2109"/>
</g>
<!-- Node6 -->
<g id="node6" class="node"><title>Node6</title>
<polygon fill="none" stroke="#bfbfbf" points="258,-0.5 258,-19.5 310,-19.5 310,-0.5 258,-0.5"/>
<text text-anchor="middle" x="284" y="-7.5" font-family="Helvetica,sans-Serif" font-size="10.00">memory</text>
</g>
<!-- Node1&#45;&gt;Node6 -->
<g id="edge5" class="edge"><title>Node1&#45;&gt;Node6</title>
<path fill="none" stroke="midnightblue" d="M261.11,-56.7808C265.289,-48.4217 270.611,-37.7773 275.072,-28.8565"/>
<polygon fill="midnightblue" stroke="midnightblue" points="278.293,-30.2401 279.635,-19.7305 272.032,-27.1095 278.293,-30.2401"/>
</g>
<!-- Node7 -->
<g id="node7" class="node"><title>Node7</title>
<polygon fill="none" stroke="#bfbfbf" points="328.5,-0.5 328.5,-19.5 387.5,-19.5 387.5,-0.5 328.5,-0.5"/>
<text text-anchor="middle" x="358" y="-7.5" font-family="Helvetica,sans-Serif" font-size="10.00">stdexcept</text>
</g>
<!-- Node1&#45;&gt;Node7 -->
<g id="edge6" class="edge"><title>Node1&#45;&gt;Node7</title>
<path fill="none" stroke="midnightblue" d="M278.383,-56.9327C295.146,-47.2619 317.303,-34.4793 333.985,-24.8546"/>
<polygon fill="midnightblue" stroke="midnightblue" points="336.18,-27.629 343.093,-19.6 332.682,-21.5656 336.18,-27.629"/>
</g>
<!-- Node8 -->
<g id="node8" class="node"><title>Node8</title>
<polygon fill="none" stroke="#bfbfbf" points="405.5,-0.5 405.5,-19.5 488.5,-19.5 488.5,-0.5 405.5,-0.5"/>
<text text-anchor="middle" x="447" y="-7.5" font-family="Helvetica,sans-Serif" font-size="10.00">unordered_map</text>
</g>
<!-- Node1&#45;&gt;Node8 -->
<g id="edge7" class="edge"><title>Node1&#45;&gt;Node8</title>
<path fill="none" stroke="midnightblue" d="M299.25,-56.9327C332.929,-46.4624 378.342,-32.3445 409.893,-22.5358"/>
<polygon fill="midnightblue" stroke="midnightblue" points="411.107,-25.8236 419.618,-19.5127 409.029,-19.1392 411.107,-25.8236"/>
</g>
<!-- Node9 -->
<g id="node9" class="node"><title>Node9</title>
<polygon fill="none" stroke="#bfbfbf" points="507,-0.5 507,-19.5 547,-19.5 547,-0.5 507,-0.5"/>
<text text-anchor="middle" x="527" y="-7.5" font-family="Helvetica,sans-Serif" font-size="10.00">utility</text>
</g>
<!-- Node1&#45;&gt;Node9 -->
<g id="edge8" class="edge"><title>Node1&#45;&gt;Node9</title>
<path fill="none" stroke="midnightblue" d="M309.316,-60.774C358.769,-51.3041 433.084,-36.2637 497,-20 497.099,-19.9749 497.198,-19.9496 497.297,-19.9242"/>
<polygon fill="midnightblue" stroke="midnightblue" points="498.015,-23.3566 506.732,-17.3338 496.162,-16.6064 498.015,-23.3566"/>
</g>
</g>
</svg>
