<?xml version="1.0" encoding="UTF-8" standalone="no"?>
<!DOCTYPE svg PUBLIC "-//W3C//DTD SVG 1.1//EN"
 "http://www.w3.org/Graphics/SVG/1.1/DTD/svg11.dtd">
<!-- Generated by graphviz version 2.26.3 (20100126.1600)
 -->
<!-- Title: thrill/mem/manager.cpp Pages: 1 -->
<svg width="1441pt" height="392pt"
 viewBox="0.00 0.00 1441.00 392.00" xmlns="http://www.w3.org/2000/svg" xmlns:xlink="http://www.w3.org/1999/xlink">
<g id="graph1" class="graph" transform="scale(1 1) rotate(0) translate(4 388)">
<title>thrill/mem/manager.cpp</title>
<!-- Node1 -->
<g id="node1" class="node"><title>Node1</title>
<polygon fill="#bfbfbf" stroke="black" points="1303.5,-362.5 1303.5,-383.5 1422.5,-383.5 1422.5,-362.5 1303.5,-362.5"/>
<text text-anchor="middle" x="1363" y="-370.5" font-family="Helvetica,sans-Serif" font-size="10.00">thrill/mem/manager.cpp</text>
</g>
<!-- Node2 -->
<g id="node3" class="node"><title>Node2</title>
<a xlink:href="logger_8hpp.html" target="_top" xlink:title="thrill/common/logger.hpp">
<polygon fill="none" stroke="black" points="630.5,-304.5 630.5,-325.5 753.5,-325.5 753.5,-304.5 630.5,-304.5"/>
<text text-anchor="middle" x="692" y="-312.5" font-family="Helvetica,sans-Serif" font-size="10.00">thrill/common/logger.hpp</text>
</a>
</g>
<!-- Node1&#45;&gt;Node2 -->
<g id="edge2" class="edge"><title>Node1&#45;&gt;Node2</title>
<path fill="none" stroke="midnightblue" d="M1303.45,-367.853C1180.13,-357.193 897.218,-332.739 763.943,-321.219"/>
<polygon fill="midnightblue" stroke="midnightblue" points="764.101,-317.719 753.837,-320.345 763.498,-324.693 764.101,-317.719"/>
</g>
<!-- Node17 -->
<g id="node34" class="node"><title>Node17</title>
<a xlink:href="mem_2manager_8hpp.html" target="_top" xlink:title="thrill/mem/manager.hpp">
<polygon fill="none" stroke="black" points="1178.5,-116.5 1178.5,-137.5 1297.5,-137.5 1297.5,-116.5 1178.5,-116.5"/>
<text text-anchor="middle" x="1238" y="-124.5" font-family="Helvetica,sans-Serif" font-size="10.00">thrill/mem/manager.hpp</text>
</a>
</g>
<!-- Node1&#45;&gt;Node17 -->
<g id="edge104" class="edge"><title>Node1&#45;&gt;Node17</title>
<path fill="none" stroke="midnightblue" d="M1357.63,-362.43C1338.44,-324.659 1273.06,-195.995 1247.94,-146.564"/>
<polygon fill="midnightblue" stroke="midnightblue" points="1251,-144.861 1243.35,-137.531 1244.76,-148.032 1251,-144.861"/>
</g>
<!-- Node31 -->
<g id="node84" class="node"><title>Node31</title>
<polygon fill="none" stroke="#bfbfbf" points="1390.5,-304.5 1390.5,-325.5 1433.5,-325.5 1433.5,-304.5 1390.5,-304.5"/>
<text text-anchor="middle" x="1412" y="-312.5" font-family="Helvetica,sans-Serif" font-size="10.00">cstdio</text>
</g>
<!-- Node1&#45;&gt;Node31 -->
<g id="edge106" class="edge"><title>Node1&#45;&gt;Node31</title>
<path fill="none" stroke="midnightblue" d="M1371.99,-362.362C1378.83,-354.268 1388.4,-342.932 1396.47,-333.38"/>
<polygon fill="midnightblue" stroke="midnightblue" points="1399.29,-335.468 1403.07,-325.571 1393.94,-330.951 1399.29,-335.468"/>
</g>
<!-- Node3 -->
<g id="node5" class="node"><title>Node3</title>
<a xlink:href="allocator_8hpp.html" target="_top" xlink:title="thrill/mem/allocator.hpp">
<polygon fill="none" stroke="black" points="862,-246.5 862,-267.5 980,-267.5 980,-246.5 862,-246.5"/>
<text text-anchor="middle" x="921" y="-254.5" font-family="Helvetica,sans-Serif" font-size="10.00">thrill/mem/allocator.hpp</text>
</a>
</g>
<!-- Node2&#45;&gt;Node3 -->
<g id="edge4" class="edge"><title>Node2&#45;&gt;Node3</title>
<path fill="none" stroke="midnightblue" d="M733.47,-304.497C771.692,-294.816 828.549,-280.416 869.631,-270.01"/>
<polygon fill="midnightblue" stroke="midnightblue" points="870.617,-273.371 879.452,-267.523 868.899,-266.585 870.617,-273.371"/>
</g>
<!-- Node13 -->
<g id="node25" class="node"><title>Node13</title>
<polygon fill="none" stroke="#bfbfbf" points="0,-58.5 0,-79.5 52,-79.5 52,-58.5 0,-58.5"/>
<text text-anchor="middle" x="26" y="-66.5" font-family="Helvetica,sans-Serif" font-size="10.00">sstream</text>
</g>
<!-- Node2&#45;&gt;Node13 -->
<g id="edge100" class="edge"><title>Node2&#45;&gt;Node13</title>
<path fill="none" stroke="midnightblue" d="M630.353,-311.512C494.127,-302.68 172.901,-275.318 89,-210 50.3734,-179.929 34.7986,-121.031 29.0421,-89.7211"/>
<polygon fill="midnightblue" stroke="midnightblue" points="32.441,-88.8249 27.341,-79.5383 25.5366,-89.9783 32.441,-88.8249"/>
</g>
<!-- Node14 -->
<g id="node27" class="node"><title>Node14</title>
<polygon fill="none" stroke="#bfbfbf" points="240.5,-58.5 240.5,-79.5 281.5,-79.5 281.5,-58.5 240.5,-58.5"/>
<text text-anchor="middle" x="261" y="-66.5" font-family="Helvetica,sans-Serif" font-size="10.00">string</text>
</g>
<!-- Node2&#45;&gt;Node14 -->
<g id="edge102" class="edge"><title>Node2&#45;&gt;Node14</title>
<path fill="none" stroke="midnightblue" d="M694.453,-304.243C699.79,-277.757 709.245,-209.005 673,-174 614.85,-117.841 381.098,-178.268 311,-138 291.666,-126.894 277.767,-104.948 269.604,-88.776"/>
<polygon fill="midnightblue" stroke="midnightblue" points="272.705,-87.1455 265.266,-79.6013 266.377,-90.1378 272.705,-87.1455"/>
</g>
<!-- Node25 -->
<g id="node63" class="node"><title>Node25</title>
<a xlink:href="pool_8hpp.html" target="_top" xlink:title="thrill/mem/pool.hpp">
<polygon fill="none" stroke="black" points="434.5,-246.5 434.5,-267.5 533.5,-267.5 533.5,-246.5 434.5,-246.5"/>
<text text-anchor="middle" x="484" y="-254.5" font-family="Helvetica,sans-Serif" font-size="10.00">thrill/mem/pool.hpp</text>
</a>
</g>
<!-- Node2&#45;&gt;Node25 -->
<g id="edge76" class="edge"><title>Node2&#45;&gt;Node25</title>
<path fill="none" stroke="midnightblue" d="M654.333,-304.497C619.983,-294.918 569.063,-280.72 531.846,-270.342"/>
<polygon fill="midnightblue" stroke="midnightblue" points="532.311,-266.838 521.738,-267.523 530.43,-273.581 532.311,-266.838"/>
</g>
<!-- Node4 -->
<g id="node7" class="node"><title>Node4</title>
<a xlink:href="allocator__base_8hpp.html" target="_top" xlink:title="thrill/mem/allocator\l_base.hpp">
<polygon fill="none" stroke="black" points="871.5,-175 871.5,-209 970.5,-209 970.5,-175 871.5,-175"/>
<text text-anchor="start" x="879.5" y="-196" font-family="Helvetica,sans-Serif" font-size="10.00">thrill/mem/allocator</text>
<text text-anchor="middle" x="921" y="-183" font-family="Helvetica,sans-Serif" font-size="10.00">_base.hpp</text>
</a>
</g>
<!-- Node3&#45;&gt;Node4 -->
<g id="edge6" class="edge"><title>Node3&#45;&gt;Node4</title>
<path fill="none" stroke="midnightblue" d="M921,-246.267C921,-238.931 921,-228.857 921,-219.38"/>
<polygon fill="midnightblue" stroke="midnightblue" points="924.5,-219.11 921,-209.11 917.5,-219.11 924.5,-219.11"/>
</g>
<!-- Node7 -->
<g id="node13" class="node"><title>Node7</title>
<polygon fill="none" stroke="#bfbfbf" points="686,-0.5 686,-21.5 748,-21.5 748,-0.5 686,-0.5"/>
<text text-anchor="middle" x="717" y="-8.5" font-family="Helvetica,sans-Serif" font-size="10.00">type_traits</text>
</g>
<!-- Node3&#45;&gt;Node7 -->
<g id="edge72" class="edge"><title>Node3&#45;&gt;Node7</title>
<path fill="none" stroke="midnightblue" d="M903.406,-246.402C890.661,-237.941 873.833,-225.038 863,-210 820.828,-151.459 853.674,-112.154 806,-58 793.163,-43.4183 774.69,-32.6374 757.897,-25.1062"/>
<polygon fill="midnightblue" stroke="midnightblue" points="758.833,-21.7027 748.259,-21.0432 756.114,-28.153 758.833,-21.7027"/>
</g>
<!-- Node3&#45;&gt;Node14 -->
<g id="edge70" class="edge"><title>Node3&#45;&gt;Node14</title>
<path fill="none" stroke="midnightblue" d="M888.509,-246.424C861.203,-237.34 821.258,-223.595 787,-210 750.383,-195.469 744.078,-184.104 706,-174 551.862,-133.101 496.933,-197.556 349,-138 320.832,-126.66 294.235,-103.421 277.804,-87.055"/>
<polygon fill="midnightblue" stroke="midnightblue" points="280.078,-84.3738 270.592,-79.6554 275.065,-89.2596 280.078,-84.3738"/>
</g>
<!-- Node15 -->
<g id="node29" class="node"><title>Node15</title>
<polygon fill="none" stroke="#bfbfbf" points="753,-58.5 753,-79.5 797,-79.5 797,-58.5 753,-58.5"/>
<text text-anchor="middle" x="775" y="-66.5" font-family="Helvetica,sans-Serif" font-size="10.00">vector</text>
</g>
<!-- Node3&#45;&gt;Node15 -->
<g id="edge74" class="edge"><title>Node3&#45;&gt;Node15</title>
<path fill="none" stroke="midnightblue" d="M871.793,-246.437C850.316,-239.461 826.54,-228.135 811,-210 781.409,-175.467 775.632,-119.786 774.811,-89.7701"/>
<polygon fill="midnightblue" stroke="midnightblue" points="778.309,-89.5814 774.699,-79.6205 771.309,-89.6584 778.309,-89.5814"/>
</g>
<!-- Node3&#45;&gt;Node17 -->
<g id="edge58" class="edge"><title>Node3&#45;&gt;Node17</title>
<path fill="none" stroke="midnightblue" d="M963.146,-246.416C994.721,-237.962 1038.72,-225.062 1076,-210 1125.12,-190.154 1179.39,-160.704 1210.99,-142.741"/>
<polygon fill="midnightblue" stroke="midnightblue" points="1213.1,-145.565 1220.04,-137.558 1209.62,-139.491 1213.1,-145.565"/>
</g>
<!-- Node20 -->
<g id="node40" class="node"><title>Node20</title>
<polygon fill="none" stroke="#bfbfbf" points="1213.5,-58.5 1213.5,-79.5 1262.5,-79.5 1262.5,-58.5 1213.5,-58.5"/>
<text text-anchor="middle" x="1238" y="-66.5" font-family="Helvetica,sans-Serif" font-size="10.00">cassert</text>
</g>
<!-- Node3&#45;&gt;Node20 -->
<g id="edge60" class="edge"><title>Node3&#45;&gt;Node20</title>
<path fill="none" stroke="midnightblue" d="M980.28,-247.814C1078.84,-231.145 1269.24,-192.527 1306,-138 1320.01,-117.226 1294.69,-97.2644 1271.06,-84.2043"/>
<polygon fill="midnightblue" stroke="midnightblue" points="1272.66,-81.0903 1262.18,-79.5495 1269.41,-87.2908 1272.66,-81.0903"/>
</g>
<!-- Node21 -->
<g id="node44" class="node"><title>Node21</title>
<polygon fill="none" stroke="#bfbfbf" points="1004.5,-116.5 1004.5,-137.5 1047.5,-137.5 1047.5,-116.5 1004.5,-116.5"/>
<text text-anchor="middle" x="1026" y="-124.5" font-family="Helvetica,sans-Serif" font-size="10.00">deque</text>
</g>
<!-- Node3&#45;&gt;Node21 -->
<g id="edge62" class="edge"><title>Node3&#45;&gt;Node21</title>
<path fill="none" stroke="midnightblue" d="M937.151,-246.424C949.628,-237.698 966.774,-224.442 979,-210 995.368,-190.666 1008.96,-164.801 1017.24,-147.114"/>
<polygon fill="midnightblue" stroke="midnightblue" points="1020.54,-148.309 1021.49,-137.756 1014.17,-145.415 1020.54,-148.309"/>
</g>
<!-- Node22 -->
<g id="node46" class="node"><title>Node22</title>
<polygon fill="none" stroke="#bfbfbf" points="1064.5,-116.5 1064.5,-137.5 1109.5,-137.5 1109.5,-116.5 1064.5,-116.5"/>
<text text-anchor="middle" x="1087" y="-124.5" font-family="Helvetica,sans-Serif" font-size="10.00">iosfwd</text>
</g>
<!-- Node3&#45;&gt;Node22 -->
<g id="edge64" class="edge"><title>Node3&#45;&gt;Node22</title>
<path fill="none" stroke="midnightblue" d="M943.503,-246.353C960.8,-237.685 984.89,-224.538 1004,-210 1029.65,-190.491 1055.28,-163.416 1071.13,-145.565"/>
<polygon fill="midnightblue" stroke="midnightblue" points="1074.13,-147.447 1078.08,-137.616 1068.86,-142.839 1074.13,-147.447"/>
</g>
<!-- Node23 -->
<g id="node48" class="node"><title>Node23</title>
<polygon fill="none" stroke="#bfbfbf" points="1126.5,-116.5 1126.5,-137.5 1161.5,-137.5 1161.5,-116.5 1126.5,-116.5"/>
<text text-anchor="middle" x="1144" y="-124.5" font-family="Helvetica,sans-Serif" font-size="10.00">new</text>
</g>
<!-- Node3&#45;&gt;Node23 -->
<g id="edge68" class="edge"><title>Node3&#45;&gt;Node23</title>
<path fill="none" stroke="midnightblue" d="M953.614,-246.498C977.493,-238.171 1010.26,-225.394 1037,-210 1070.13,-190.928 1104.34,-162.6 1124.89,-144.467"/>
<polygon fill="midnightblue" stroke="midnightblue" points="1127.45,-146.878 1132.57,-137.604 1122.78,-141.658 1127.45,-146.878"/>
</g>
<!-- Node24 -->
<g id="node57" class="node"><title>Node24</title>
<polygon fill="none" stroke="#bfbfbf" points="612,-181.5 612,-202.5 664,-202.5 664,-181.5 612,-181.5"/>
<text text-anchor="middle" x="638" y="-189.5" font-family="Helvetica,sans-Serif" font-size="10.00">memory</text>
</g>
<!-- Node3&#45;&gt;Node24 -->
<g id="edge66" class="edge"><title>Node3&#45;&gt;Node24</title>
<path fill="none" stroke="midnightblue" d="M874.995,-246.472C833.444,-236.959 770.622,-222.564 716,-210 702.428,-206.878 687.529,-203.442 674.422,-200.416"/>
<polygon fill="midnightblue" stroke="midnightblue" points="674.885,-196.931 664.354,-198.092 673.31,-203.752 674.885,-196.931"/>
</g>
<!-- Node5 -->
<g id="node9" class="node"><title>Node5</title>
<a xlink:href="string_8hpp.html" target="_top" xlink:title="thrill/common/string.hpp">
<polygon fill="none" stroke="black" points="400.5,-116.5 400.5,-137.5 521.5,-137.5 521.5,-116.5 400.5,-116.5"/>
<text text-anchor="middle" x="461" y="-124.5" font-family="Helvetica,sans-Serif" font-size="10.00">thrill/common/string.hpp</text>
</a>
</g>
<!-- Node4&#45;&gt;Node5 -->
<g id="edge8" class="edge"><title>Node4&#45;&gt;Node5</title>
<path fill="none" stroke="midnightblue" d="M871.266,-185.469C798.83,-175.883 659.802,-157.203 531.57,-138.214"/>
<polygon fill="midnightblue" stroke="midnightblue" points="531.977,-134.736 521.571,-136.729 530.949,-141.66 531.977,-134.736"/>
</g>
<!-- Node4&#45;&gt;Node7 -->
<g id="edge54" class="edge"><title>Node4&#45;&gt;Node7</title>
<path fill="none" stroke="midnightblue" d="M914.702,-174.706C903.601,-146.497 877.973,-90.4743 839,-58 815.678,-38.5668 783.425,-26.6106 757.939,-19.623"/>
<polygon fill="midnightblue" stroke="midnightblue" points="758.742,-16.2156 748.184,-17.0971 756.987,-22.9921 758.742,-16.2156"/>
</g>
<!-- Node4&#45;&gt;Node14 -->
<g id="edge52" class="edge"><title>Node4&#45;&gt;Node14</title>
<path fill="none" stroke="midnightblue" d="M871.31,-186.943C739.817,-173.559 392.716,-138.216 392,-138 389.278,-137.178 327.696,-104.508 289.948,-84.4223"/>
<polygon fill="midnightblue" stroke="midnightblue" points="291.387,-81.2233 280.915,-79.6141 288.098,-87.4024 291.387,-81.2233"/>
</g>
<!-- Node4&#45;&gt;Node15 -->
<g id="edge56" class="edge"><title>Node4&#45;&gt;Node15</title>
<path fill="none" stroke="midnightblue" d="M900.699,-174.897C873.006,-151.567 823.648,-109.984 795.732,-86.466"/>
<polygon fill="midnightblue" stroke="midnightblue" points="797.707,-83.5537 787.805,-79.7875 793.197,-88.9072 797.707,-83.5537"/>
</g>
<!-- Node16 -->
<g id="node31" class="node"><title>Node16</title>
<a xlink:href="malloc__tracker_8hpp.html" target="_top" xlink:title="thrill/mem/malloc_tracker.hpp">
<polygon fill="none" stroke="black" points="538.5,-116.5 538.5,-137.5 683.5,-137.5 683.5,-116.5 538.5,-116.5"/>
<text text-anchor="middle" x="611" y="-124.5" font-family="Helvetica,sans-Serif" font-size="10.00">thrill/mem/malloc_tracker.hpp</text>
</a>
</g>
<!-- Node4&#45;&gt;Node16 -->
<g id="edge30" class="edge"><title>Node4&#45;&gt;Node16</title>
<path fill="none" stroke="midnightblue" d="M871.193,-181.557C816.669,-170.124 729.264,-151.797 671.004,-139.581"/>
<polygon fill="midnightblue" stroke="midnightblue" points="671.703,-136.152 661.197,-137.525 670.266,-143.003 671.703,-136.152"/>
</g>
<!-- Node4&#45;&gt;Node17 -->
<g id="edge34" class="edge"><title>Node4&#45;&gt;Node17</title>
<path fill="none" stroke="midnightblue" d="M970.531,-181.844C1026.17,-170.435 1116.53,-151.907 1176.61,-139.589"/>
<polygon fill="midnightblue" stroke="midnightblue" points="1177.62,-142.953 1186.72,-137.516 1176.22,-136.096 1177.62,-142.953"/>
</g>
<!-- Node19 -->
<g id="node38" class="node"><title>Node19</title>
<polygon fill="none" stroke="#bfbfbf" points="1113,-58.5 1113,-79.5 1159,-79.5 1159,-58.5 1113,-58.5"/>
<text text-anchor="middle" x="1136" y="-66.5" font-family="Helvetica,sans-Serif" font-size="10.00">atomic</text>
</g>
<!-- Node4&#45;&gt;Node19 -->
<g id="edge42" class="edge"><title>Node4&#45;&gt;Node19</title>
<path fill="none" stroke="midnightblue" d="M926.06,-174.885C932.075,-157.51 943.791,-131.081 963,-116 984.643,-99.0074 1058.92,-83.0656 1102.8,-74.8301"/>
<polygon fill="midnightblue" stroke="midnightblue" points="1103.53,-78.2558 1112.73,-73.0014 1102.26,-71.3717 1103.53,-78.2558"/>
</g>
<!-- Node4&#45;&gt;Node20 -->
<g id="edge44" class="edge"><title>Node4&#45;&gt;Node20</title>
<path fill="none" stroke="midnightblue" d="M932.958,-174.848C946.244,-157.18 969.367,-130.272 996,-116 1014.05,-106.326 1140.42,-84.8399 1203.02,-74.6161"/>
<polygon fill="midnightblue" stroke="midnightblue" points="1203.9,-78.0187 1213.21,-72.9593 1202.78,-71.1094 1203.9,-78.0187"/>
</g>
<!-- Node4&#45;&gt;Node21 -->
<g id="edge46" class="edge"><title>Node4&#45;&gt;Node21</title>
<path fill="none" stroke="midnightblue" d="M948.588,-174.922C964.536,-165.049 984.478,-152.704 1000.13,-143.016"/>
<polygon fill="midnightblue" stroke="midnightblue" points="1002.12,-145.898 1008.78,-137.658 998.438,-139.946 1002.12,-145.898"/>
</g>
<!-- Node4&#45;&gt;Node22 -->
<g id="edge48" class="edge"><title>Node4&#45;&gt;Node22</title>
<path fill="none" stroke="midnightblue" d="M964.615,-174.922C992.769,-163.898 1028.8,-149.791 1054.45,-139.744"/>
<polygon fill="midnightblue" stroke="midnightblue" points="1056.05,-142.879 1064.08,-135.974 1053.49,-136.361 1056.05,-142.879"/>
</g>
<!-- Node4&#45;&gt;Node23 -->
<g id="edge50" class="edge"><title>Node4&#45;&gt;Node23</title>
<path fill="none" stroke="midnightblue" d="M970.534,-180.36C1008.51,-170.999 1062.3,-156.801 1116.76,-138.168"/>
<polygon fill="midnightblue" stroke="midnightblue" points="1117.92,-141.473 1126.22,-134.89 1115.62,-134.859 1117.92,-141.473"/>
</g>
<!-- Node6 -->
<g id="node11" class="node"><title>Node6</title>
<a xlink:href="defines_8hpp.html" target="_top" xlink:title="thrill/common/defines.hpp">
<polygon fill="none" stroke="black" points="545,-58.5 545,-79.5 673,-79.5 673,-58.5 545,-58.5"/>
<text text-anchor="middle" x="609" y="-66.5" font-family="Helvetica,sans-Serif" font-size="10.00">thrill/common/defines.hpp</text>
</a>
</g>
<!-- Node5&#45;&gt;Node6 -->
<g id="edge10" class="edge"><title>Node5&#45;&gt;Node6</title>
<path fill="none" stroke="midnightblue" d="M487.802,-116.497C511.438,-107.234 546.1,-93.6499 572.308,-83.3793"/>
<polygon fill="midnightblue" stroke="midnightblue" points="573.864,-86.5287 581.898,-79.6212 571.31,-80.0113 573.864,-86.5287"/>
</g>
<!-- Node8 -->
<g id="node15" class="node"><title>Node8</title>
<polygon fill="none" stroke="#bfbfbf" points="423,-58.5 423,-79.5 461,-79.5 461,-58.5 423,-58.5"/>
<text text-anchor="middle" x="442" y="-66.5" font-family="Helvetica,sans-Serif" font-size="10.00">array</text>
</g>
<!-- Node5&#45;&gt;Node8 -->
<g id="edge14" class="edge"><title>Node5&#45;&gt;Node8</title>
<path fill="none" stroke="midnightblue" d="M457.515,-116.362C455.024,-108.758 451.596,-98.294 448.596,-89.1349"/>
<polygon fill="midnightblue" stroke="midnightblue" points="451.902,-87.9841 445.463,-79.5707 445.25,-90.1634 451.902,-87.9841"/>
</g>
<!-- Node9 -->
<g id="node17" class="node"><title>Node9</title>
<polygon fill="none" stroke="#bfbfbf" points="478.5,-58.5 478.5,-79.5 527.5,-79.5 527.5,-58.5 478.5,-58.5"/>
<text text-anchor="middle" x="503" y="-66.5" font-family="Helvetica,sans-Serif" font-size="10.00">cstdarg</text>
</g>
<!-- Node5&#45;&gt;Node9 -->
<g id="edge16" class="edge"><title>Node5&#45;&gt;Node9</title>
<path fill="none" stroke="midnightblue" d="M468.703,-116.362C474.446,-108.431 482.443,-97.3885 489.27,-87.9606"/>
<polygon fill="midnightblue" stroke="midnightblue" points="492.315,-89.7229 495.345,-79.5707 486.645,-85.6173 492.315,-89.7229"/>
</g>
<!-- Node10 -->
<g id="node19" class="node"><title>Node10</title>
<polygon fill="none" stroke="#bfbfbf" points="690.5,-58.5 690.5,-79.5 735.5,-79.5 735.5,-58.5 690.5,-58.5"/>
<text text-anchor="middle" x="713" y="-66.5" font-family="Helvetica,sans-Serif" font-size="10.00">cstdlib</text>
</g>
<!-- Node5&#45;&gt;Node10 -->
<g id="edge18" class="edge"><title>Node5&#45;&gt;Node10</title>
<path fill="none" stroke="midnightblue" d="M521.082,-116.435C563.465,-108.478 621.677,-96.5349 680.582,-80.1715"/>
<polygon fill="midnightblue" stroke="midnightblue" points="681.748,-83.4792 690.424,-77.3975 679.849,-76.7418 681.748,-83.4792"/>
</g>
<!-- Node11 -->
<g id="node21" class="node"><title>Node11</title>
<polygon fill="none" stroke="#bfbfbf" points="299,-58.5 299,-79.5 339,-79.5 339,-58.5 299,-58.5"/>
<text text-anchor="middle" x="319" y="-66.5" font-family="Helvetica,sans-Serif" font-size="10.00">limits</text>
</g>
<!-- Node5&#45;&gt;Node11 -->
<g id="edge20" class="edge"><title>Node5&#45;&gt;Node11</title>
<path fill="none" stroke="midnightblue" d="M435.285,-116.497C410.872,-106.525 374.2,-91.5466 348.586,-81.0842"/>
<polygon fill="midnightblue" stroke="midnightblue" points="349.605,-77.72 339.024,-77.1788 346.958,-84.2003 349.605,-77.72"/>
</g>
<!-- Node12 -->
<g id="node23" class="node"><title>Node12</title>
<polygon fill="none" stroke="#bfbfbf" points="356.5,-58.5 356.5,-79.5 405.5,-79.5 405.5,-58.5 356.5,-58.5"/>
<text text-anchor="middle" x="381" y="-66.5" font-family="Helvetica,sans-Serif" font-size="10.00">random</text>
</g>
<!-- Node5&#45;&gt;Node12 -->
<g id="edge22" class="edge"><title>Node5&#45;&gt;Node12</title>
<path fill="none" stroke="midnightblue" d="M446.327,-116.362C434.486,-107.777 417.615,-95.5459 403.984,-85.6636"/>
<polygon fill="midnightblue" stroke="midnightblue" points="405.731,-82.6067 395.58,-79.5707 401.622,-88.274 405.731,-82.6067"/>
</g>
<!-- Node5&#45;&gt;Node13 -->
<g id="edge24" class="edge"><title>Node5&#45;&gt;Node13</title>
<path fill="none" stroke="midnightblue" d="M400.057,-118.874C308.237,-106.632 137.228,-83.8304 62.5128,-73.8684"/>
<polygon fill="midnightblue" stroke="midnightblue" points="62.5837,-70.3469 52.2088,-72.4945 61.6585,-77.2855 62.5837,-70.3469"/>
</g>
<!-- Node5&#45;&gt;Node14 -->
<g id="edge26" class="edge"><title>Node5&#45;&gt;Node14</title>
<path fill="none" stroke="midnightblue" d="M418.152,-116.42C385.538,-108.098 339.387,-95.7506 291.176,-80.205"/>
<polygon fill="midnightblue" stroke="midnightblue" points="292.102,-76.8257 281.51,-77.0535 289.932,-83.4809 292.102,-76.8257"/>
</g>
<!-- Node5&#45;&gt;Node15 -->
<g id="edge28" class="edge"><title>Node5&#45;&gt;Node15</title>
<path fill="none" stroke="midnightblue" d="M521.83,-117.177C593.016,-105.646 705.155,-87.3543 742.595,-79.7103"/>
<polygon fill="midnightblue" stroke="midnightblue" points="743.811,-83.024 752.795,-77.408 742.27,-76.1957 743.811,-83.024"/>
</g>
<!-- Node6&#45;&gt;Node7 -->
<g id="edge12" class="edge"><title>Node6&#45;&gt;Node7</title>
<path fill="none" stroke="midnightblue" d="M628.558,-58.4966C645.198,-49.5602 669.327,-36.602 688.18,-26.4772"/>
<polygon fill="midnightblue" stroke="midnightblue" points="690.069,-29.436 697.223,-21.6212 686.757,-23.2691 690.069,-29.436"/>
</g>
<!-- Node16&#45;&gt;Node10 -->
<g id="edge32" class="edge"><title>Node16&#45;&gt;Node10</title>
<path fill="none" stroke="midnightblue" d="M629.708,-116.362C645.381,-107.45 667.964,-94.6087 685.663,-84.5447"/>
<polygon fill="midnightblue" stroke="midnightblue" points="687.447,-87.5562 694.41,-79.5707 683.987,-81.4712 687.447,-87.5562"/>
</g>
<!-- Node18 -->
<g id="node36" class="node"><title>Node18</title>
<polygon fill="none" stroke="#bfbfbf" points="966,-58.5 966,-79.5 1022,-79.5 1022,-58.5 966,-58.5"/>
<text text-anchor="middle" x="994" y="-66.5" font-family="Helvetica,sans-Serif" font-size="10.00">algorithm</text>
</g>
<!-- Node17&#45;&gt;Node18 -->
<g id="edge36" class="edge"><title>Node17&#45;&gt;Node18</title>
<path fill="none" stroke="midnightblue" d="M1193.81,-116.497C1147.66,-105.526 1076.01,-88.4947 1032.22,-78.0849"/>
<polygon fill="midnightblue" stroke="midnightblue" points="1032.79,-74.6231 1022.25,-75.7155 1031.17,-81.4333 1032.79,-74.6231"/>
</g>
<!-- Node17&#45;&gt;Node19 -->
<g id="edge38" class="edge"><title>Node17&#45;&gt;Node19</title>
<path fill="none" stroke="midnightblue" d="M1219.29,-116.362C1203.62,-107.45 1181.04,-94.6087 1163.34,-84.5447"/>
<polygon fill="midnightblue" stroke="midnightblue" points="1165.01,-81.4712 1154.59,-79.5707 1161.55,-87.5562 1165.01,-81.4712"/>
</g>
<!-- Node17&#45;&gt;Node20 -->
<g id="edge40" class="edge"><title>Node17&#45;&gt;Node20</title>
<path fill="none" stroke="midnightblue" d="M1238,-116.362C1238,-108.922 1238,-98.7427 1238,-89.7276"/>
<polygon fill="midnightblue" stroke="midnightblue" points="1241.5,-89.5706 1238,-79.5707 1234.5,-89.5707 1241.5,-89.5706"/>
</g>
<!-- Node25&#45;&gt;Node4 -->
<g id="edge80" class="edge"><title>Node25&#45;&gt;Node4</title>
<path fill="none" stroke="midnightblue" d="M533.704,-249.607C614.614,-237.572 774.477,-213.794 861.373,-200.869"/>
<polygon fill="midnightblue" stroke="midnightblue" points="861.966,-204.319 871.342,-199.386 860.936,-197.396 861.966,-204.319"/>
</g>
<!-- Node25&#45;&gt;Node7 -->
<g id="edge94" class="edge"><title>Node25&#45;&gt;Node7</title>
<path fill="none" stroke="midnightblue" d="M434.451,-254.557C335.479,-249.167 120.9,-234.736 99,-210 88.3939,-198.02 92.3769,-188.565 99,-174 131.468,-102.6 159.969,-89.0432 232,-58 311.441,-23.7632 573.484,-14.2328 675.676,-11.7841"/>
<polygon fill="midnightblue" stroke="midnightblue" points="675.993,-15.2779 685.91,-11.5499 675.833,-8.27969 675.993,-15.2779"/>
</g>
<!-- Node25&#45;&gt;Node14 -->
<g id="edge92" class="edge"><title>Node25&#45;&gt;Node14</title>
<path fill="none" stroke="midnightblue" d="M488.792,-246.387C495.808,-229.057 506.275,-194.556 489,-174 429.203,-102.847 353.023,-199.116 283,-138 269.279,-126.025 264.042,-105.512 262.081,-89.9562"/>
<polygon fill="midnightblue" stroke="midnightblue" points="265.54,-89.3441 261.157,-79.6983 258.568,-89.9719 265.54,-89.3441"/>
</g>
<!-- Node25&#45;&gt;Node15 -->
<g id="edge98" class="edge"><title>Node25&#45;&gt;Node15</title>
<path fill="none" stroke="midnightblue" d="M492.067,-246.417C506.036,-228.813 536.468,-193.525 570,-174 618.855,-145.552 642.125,-164.618 692,-138 717.199,-124.551 741.816,-102.655 757.61,-87.1392"/>
<polygon fill="midnightblue" stroke="midnightblue" points="760.453,-89.2446 765.022,-79.6856 755.489,-84.3089 760.453,-89.2446"/>
</g>
<!-- Node25&#45;&gt;Node18 -->
<g id="edge82" class="edge"><title>Node25&#45;&gt;Node18</title>
<path fill="none" stroke="midnightblue" d="M503.849,-246.338C519.994,-237.363 543.113,-223.812 562,-210 581.574,-195.685 581.62,-185.444 603,-174 618.9,-165.489 860.693,-103.118 955.897,-78.7328"/>
<polygon fill="midnightblue" stroke="midnightblue" points="956.882,-82.0935 965.702,-76.2229 955.146,-75.3121 956.882,-82.0935"/>
</g>
<!-- Node25&#45;&gt;Node24 -->
<g id="edge88" class="edge"><title>Node25&#45;&gt;Node24</title>
<path fill="none" stroke="midnightblue" d="M510.361,-246.409C533.531,-237.034 568.118,-222.88 598,-210 600.472,-208.935 603.023,-207.82 605.586,-206.691"/>
<polygon fill="midnightblue" stroke="midnightblue" points="607.076,-209.859 614.789,-202.595 604.23,-203.464 607.076,-209.859"/>
</g>
<!-- Node26 -->
<g id="node65" class="node"><title>Node26</title>
<a xlink:href="config_8hpp.html" target="_top" xlink:title="thrill/common/config.hpp">
<polygon fill="none" stroke="black" points="107.5,-181.5 107.5,-202.5 230.5,-202.5 230.5,-181.5 107.5,-181.5"/>
<text text-anchor="middle" x="169" y="-189.5" font-family="Helvetica,sans-Serif" font-size="10.00">thrill/common/config.hpp</text>
</a>
</g>
<!-- Node25&#45;&gt;Node26 -->
<g id="edge78" class="edge"><title>Node25&#45;&gt;Node26</title>
<path fill="none" stroke="midnightblue" d="M434.073,-248.361C384.431,-239.55 306.194,-225.069 239,-210 232.254,-208.487 225.17,-206.792 218.205,-205.063"/>
<polygon fill="midnightblue" stroke="midnightblue" points="218.693,-201.576 208.14,-202.522 216.979,-208.363 218.693,-201.576"/>
</g>
<!-- Node27 -->
<g id="node69" class="node"><title>Node27</title>
<polygon fill="none" stroke="#bfbfbf" points="247.5,-181.5 247.5,-202.5 296.5,-202.5 296.5,-181.5 247.5,-181.5"/>
<text text-anchor="middle" x="272" y="-189.5" font-family="Helvetica,sans-Serif" font-size="10.00">cstddef</text>
</g>
<!-- Node25&#45;&gt;Node27 -->
<g id="edge84" class="edge"><title>Node25&#45;&gt;Node27</title>
<path fill="none" stroke="midnightblue" d="M434.351,-247.359C397.839,-239.46 347.402,-226.841 305,-210 302.881,-209.158 300.726,-208.211 298.584,-207.203"/>
<polygon fill="midnightblue" stroke="midnightblue" points="299.927,-203.959 289.429,-202.53 296.745,-210.194 299.927,-203.959"/>
</g>
<!-- Node28 -->
<g id="node71" class="node"><title>Node28</title>
<polygon fill="none" stroke="#bfbfbf" points="314,-181.5 314,-202.5 360,-202.5 360,-181.5 314,-181.5"/>
<text text-anchor="middle" x="337" y="-189.5" font-family="Helvetica,sans-Serif" font-size="10.00">cstdint</text>
</g>
<!-- Node25&#45;&gt;Node28 -->
<g id="edge86" class="edge"><title>Node25&#45;&gt;Node28</title>
<path fill="none" stroke="midnightblue" d="M455.213,-246.379C431.686,-237.428 397.741,-223.89 369,-210 367.422,-209.237 365.813,-208.431 364.199,-207.598"/>
<polygon fill="midnightblue" stroke="midnightblue" points="365.532,-204.341 355.068,-202.679 362.211,-210.503 365.532,-204.341"/>
</g>
<!-- Node29 -->
<g id="node74" class="node"><title>Node29</title>
<polygon fill="none" stroke="#bfbfbf" points="378,-181.5 378,-202.5 422,-202.5 422,-181.5 378,-181.5"/>
<text text-anchor="middle" x="400" y="-189.5" font-family="Helvetica,sans-Serif" font-size="10.00">mutex</text>
</g>
<!-- Node25&#45;&gt;Node29 -->
<g id="edge90" class="edge"><title>Node25&#45;&gt;Node29</title>
<path fill="none" stroke="midnightblue" d="M470.129,-246.267C456.918,-236.044 436.836,-220.504 421.543,-208.67"/>
<polygon fill="midnightblue" stroke="midnightblue" points="423.663,-205.886 413.613,-202.534 419.38,-211.422 423.663,-205.886"/>
</g>
<!-- Node30 -->
<g id="node78" class="node"><title>Node30</title>
<polygon fill="none" stroke="#bfbfbf" points="440,-181.5 440,-202.5 480,-202.5 480,-181.5 440,-181.5"/>
<text text-anchor="middle" x="460" y="-189.5" font-family="Helvetica,sans-Serif" font-size="10.00">utility</text>
</g>
<!-- Node25&#45;&gt;Node30 -->
<g id="edge96" class="edge"><title>Node25&#45;&gt;Node30</title>
<path fill="none" stroke="midnightblue" d="M480.037,-246.267C476.612,-236.991 471.57,-223.336 467.401,-212.045"/>
<polygon fill="midnightblue" stroke="midnightblue" points="470.637,-210.702 463.889,-202.534 464.07,-213.127 470.637,-210.702"/>
</g>
</g>
</svg>
