<?xml version="1.0" encoding="UTF-8" standalone="no"?>
<!DOCTYPE svg PUBLIC "-//W3C//DTD SVG 1.1//EN"
 "http://www.w3.org/Graphics/SVG/1.1/DTD/svg11.dtd">
<!-- Generated by graphviz version 2.26.3 (20100126.1600)
 -->
<!-- Title: thrill/mem/manager.cpp Pages: 1 -->
<svg width="1512pt" height="334pt"
 viewBox="0.00 0.00 1512.00 334.00" xmlns="http://www.w3.org/2000/svg" xmlns:xlink="http://www.w3.org/1999/xlink">
<g id="graph1" class="graph" transform="scale(1 1) rotate(0) translate(4 330)">
<title>thrill/mem/manager.cpp</title>
<!-- Node1 -->
<g id="node1" class="node"><title>Node1</title>
<polygon fill="#bfbfbf" stroke="black" points="1374.5,-304.5 1374.5,-325.5 1493.5,-325.5 1493.5,-304.5 1374.5,-304.5"/>
<text text-anchor="middle" x="1434" y="-312.5" font-family="Helvetica,sans-Serif" font-size="10.00">thrill/mem/manager.cpp</text>
</g>
<!-- Node2 -->
<g id="node3" class="node"><title>Node2</title>
<a xlink:href="logger_8hpp.html" target="_top" xlink:title="thrill/common/logger.hpp">
<polygon fill="none" stroke="black" points="414.5,-246.5 414.5,-267.5 537.5,-267.5 537.5,-246.5 414.5,-246.5"/>
<text text-anchor="middle" x="476" y="-254.5" font-family="Helvetica,sans-Serif" font-size="10.00">thrill/common/logger.hpp</text>
</a>
</g>
<!-- Node1&#45;&gt;Node2 -->
<g id="edge2" class="edge"><title>Node1&#45;&gt;Node2</title>
<path fill="none" stroke="midnightblue" d="M1374.43,-311.394C1206.43,-301.222 729.26,-272.333 547.503,-261.329"/>
<polygon fill="midnightblue" stroke="midnightblue" points="547.709,-257.835 537.516,-260.724 547.286,-264.822 547.709,-257.835"/>
</g>
<!-- Node17 -->
<g id="node34" class="node"><title>Node17</title>
<a xlink:href="mem_2manager_8hpp.html" target="_top" xlink:title="thrill/mem/manager.hpp">
<polygon fill="none" stroke="black" points="1249.5,-58.5 1249.5,-79.5 1368.5,-79.5 1368.5,-58.5 1249.5,-58.5"/>
<text text-anchor="middle" x="1309" y="-66.5" font-family="Helvetica,sans-Serif" font-size="10.00">thrill/mem/manager.hpp</text>
</a>
</g>
<!-- Node1&#45;&gt;Node17 -->
<g id="edge106" class="edge"><title>Node1&#45;&gt;Node17</title>
<path fill="none" stroke="midnightblue" d="M1428.63,-304.43C1409.44,-266.659 1344.06,-137.995 1318.94,-88.5637"/>
<polygon fill="midnightblue" stroke="midnightblue" points="1322,-86.8605 1314.35,-79.5309 1315.76,-90.0316 1322,-86.8605"/>
</g>
<!-- Node33 -->
<g id="node87" class="node"><title>Node33</title>
<polygon fill="none" stroke="#bfbfbf" points="1461.5,-246.5 1461.5,-267.5 1504.5,-267.5 1504.5,-246.5 1461.5,-246.5"/>
<text text-anchor="middle" x="1483" y="-254.5" font-family="Helvetica,sans-Serif" font-size="10.00">cstdio</text>
</g>
<!-- Node1&#45;&gt;Node33 -->
<g id="edge108" class="edge"><title>Node1&#45;&gt;Node33</title>
<path fill="none" stroke="midnightblue" d="M1442.99,-304.362C1449.83,-296.268 1459.4,-284.932 1467.47,-275.38"/>
<polygon fill="midnightblue" stroke="midnightblue" points="1470.29,-277.468 1474.07,-267.571 1464.94,-272.951 1470.29,-277.468"/>
</g>
<!-- Node3 -->
<g id="node5" class="node"><title>Node3</title>
<a xlink:href="allocator_8hpp.html" target="_top" xlink:title="thrill/mem/allocator.hpp">
<polygon fill="none" stroke="black" points="913,-188.5 913,-209.5 1031,-209.5 1031,-188.5 913,-188.5"/>
<text text-anchor="middle" x="972" y="-196.5" font-family="Helvetica,sans-Serif" font-size="10.00">thrill/mem/allocator.hpp</text>
</a>
</g>
<!-- Node2&#45;&gt;Node3 -->
<g id="edge4" class="edge"><title>Node2&#45;&gt;Node3</title>
<path fill="none" stroke="midnightblue" d="M537.816,-249.772C630.743,-238.905 805.858,-218.428 902.888,-207.082"/>
<polygon fill="midnightblue" stroke="midnightblue" points="903.363,-210.55 912.889,-205.912 902.55,-203.597 903.363,-210.55"/>
</g>
<!-- Node13 -->
<g id="node25" class="node"><title>Node13</title>
<polygon fill="none" stroke="#bfbfbf" points="0,-0.5 0,-21.5 52,-21.5 52,-0.5 0,-0.5"/>
<text text-anchor="middle" x="26" y="-8.5" font-family="Helvetica,sans-Serif" font-size="10.00">sstream</text>
</g>
<!-- Node2&#45;&gt;Node13 -->
<g id="edge102" class="edge"><title>Node2&#45;&gt;Node13</title>
<path fill="none" stroke="midnightblue" d="M414.156,-251.809C333.074,-244.372 195.668,-229.411 149,-210 109.441,-193.546 96.9042,-186.863 72,-152 45.3095,-114.636 33.4827,-60.908 28.7631,-31.7445"/>
<polygon fill="midnightblue" stroke="midnightblue" points="32.176,-30.9003 27.2411,-21.525 25.2524,-31.9315 32.176,-30.9003"/>
</g>
<!-- Node14 -->
<g id="node27" class="node"><title>Node14</title>
<polygon fill="none" stroke="#bfbfbf" points="75.5,-0.5 75.5,-21.5 116.5,-21.5 116.5,-0.5 75.5,-0.5"/>
<text text-anchor="middle" x="96" y="-8.5" font-family="Helvetica,sans-Serif" font-size="10.00">string</text>
</g>
<!-- Node2&#45;&gt;Node14 -->
<g id="edge104" class="edge"><title>Node2&#45;&gt;Node14</title>
<path fill="none" stroke="midnightblue" d="M414.232,-248.794C316.276,-234.429 132.149,-201.468 91,-152 62.5555,-117.804 76.9801,-61.176 87.7688,-31.1453"/>
<polygon fill="midnightblue" stroke="midnightblue" points="91.0728,-32.3037 91.357,-21.7127 84.5301,-29.8148 91.0728,-32.3037"/>
</g>
<!-- Node27 -->
<g id="node66" class="node"><title>Node27</title>
<a xlink:href="pool_8hpp.html" target="_top" xlink:title="thrill/mem/pool.hpp">
<polygon fill="none" stroke="black" points="426.5,-188.5 426.5,-209.5 525.5,-209.5 525.5,-188.5 426.5,-188.5"/>
<text text-anchor="middle" x="476" y="-196.5" font-family="Helvetica,sans-Serif" font-size="10.00">thrill/mem/pool.hpp</text>
</a>
</g>
<!-- Node2&#45;&gt;Node27 -->
<g id="edge78" class="edge"><title>Node2&#45;&gt;Node27</title>
<path fill="none" stroke="midnightblue" d="M476,-246.362C476,-238.922 476,-228.743 476,-219.728"/>
<polygon fill="midnightblue" stroke="midnightblue" points="479.5,-219.571 476,-209.571 472.5,-219.571 479.5,-219.571"/>
</g>
<!-- Node4 -->
<g id="node7" class="node"><title>Node4</title>
<a xlink:href="allocator__base_8hpp.html" target="_top" xlink:title="thrill/mem/allocator\l_base.hpp">
<polygon fill="none" stroke="black" points="922.5,-117 922.5,-151 1021.5,-151 1021.5,-117 922.5,-117"/>
<text text-anchor="start" x="930.5" y="-138" font-family="Helvetica,sans-Serif" font-size="10.00">thrill/mem/allocator</text>
<text text-anchor="middle" x="972" y="-125" font-family="Helvetica,sans-Serif" font-size="10.00">_base.hpp</text>
</a>
</g>
<!-- Node3&#45;&gt;Node4 -->
<g id="edge6" class="edge"><title>Node3&#45;&gt;Node4</title>
<path fill="none" stroke="midnightblue" d="M972,-188.267C972,-180.931 972,-170.857 972,-161.38"/>
<polygon fill="midnightblue" stroke="midnightblue" points="975.5,-161.11 972,-151.11 968.5,-161.11 975.5,-161.11"/>
</g>
<!-- Node3&#45;&gt;Node14 -->
<g id="edge72" class="edge"><title>Node3&#45;&gt;Node14</title>
<path fill="none" stroke="midnightblue" d="M912.908,-192.261C849.645,-184.284 754.038,-169.809 722,-152 703.029,-141.454 708.459,-125.616 689,-116 608.393,-76.1666 373.795,-99.3963 286,-80 227.491,-67.0737 162.509,-40.6963 125.716,-24.5606"/>
<polygon fill="midnightblue" stroke="midnightblue" points="127.113,-21.3513 116.552,-20.4971 124.275,-27.7504 127.113,-21.3513"/>
</g>
<!-- Node15 -->
<g id="node29" class="node"><title>Node15</title>
<polygon fill="none" stroke="#bfbfbf" points="632,-0.5 632,-21.5 676,-21.5 676,-0.5 632,-0.5"/>
<text text-anchor="middle" x="654" y="-8.5" font-family="Helvetica,sans-Serif" font-size="10.00">vector</text>
</g>
<!-- Node3&#45;&gt;Node15 -->
<g id="edge76" class="edge"><title>Node3&#45;&gt;Node15</title>
<path fill="none" stroke="midnightblue" d="M912.84,-194.45C868.604,-189.073 807.777,-177.378 760,-152 739.454,-141.087 742.37,-127.239 722,-116 665.371,-84.7553 620.675,-131.078 581,-80 564.158,-58.3172 595.641,-37.2071 622.38,-24.166"/>
<polygon fill="midnightblue" stroke="midnightblue" points="623.96,-27.2912 631.553,-19.902 621.009,-20.9434 623.96,-27.2912"/>
</g>
<!-- Node3&#45;&gt;Node17 -->
<g id="edge60" class="edge"><title>Node3&#45;&gt;Node17</title>
<path fill="none" stroke="midnightblue" d="M1016.8,-188.465C1050.37,-180.036 1097.19,-167.146 1137,-152 1189.18,-132.148 1247.13,-102.504 1280.68,-84.5371"/>
<polygon fill="midnightblue" stroke="midnightblue" points="1282.74,-87.4057 1289.88,-79.5784 1279.41,-81.2445 1282.74,-87.4057"/>
</g>
<!-- Node20 -->
<g id="node40" class="node"><title>Node20</title>
<polygon fill="none" stroke="#bfbfbf" points="1284.5,-0.5 1284.5,-21.5 1333.5,-21.5 1333.5,-0.5 1284.5,-0.5"/>
<text text-anchor="middle" x="1309" y="-8.5" font-family="Helvetica,sans-Serif" font-size="10.00">cassert</text>
</g>
<!-- Node3&#45;&gt;Node20 -->
<g id="edge62" class="edge"><title>Node3&#45;&gt;Node20</title>
<path fill="none" stroke="midnightblue" d="M1031.03,-190.802C1133.62,-175.163 1337.65,-137.432 1377,-80 1391.16,-59.3318 1365.82,-39.353 1342.15,-26.2598"/>
<polygon fill="midnightblue" stroke="midnightblue" points="1343.72,-23.1354 1333.24,-21.5918 1340.47,-29.3351 1343.72,-23.1354"/>
</g>
<!-- Node22 -->
<g id="node46" class="node"><title>Node22</title>
<polygon fill="none" stroke="#bfbfbf" points="1075.5,-58.5 1075.5,-79.5 1118.5,-79.5 1118.5,-58.5 1075.5,-58.5"/>
<text text-anchor="middle" x="1097" y="-66.5" font-family="Helvetica,sans-Serif" font-size="10.00">deque</text>
</g>
<!-- Node3&#45;&gt;Node22 -->
<g id="edge64" class="edge"><title>Node3&#45;&gt;Node22</title>
<path fill="none" stroke="midnightblue" d="M987.023,-188.212C999.181,-179.164 1016.45,-165.576 1030,-152 1050.39,-131.575 1070.78,-105.26 1083.62,-87.7953"/>
<polygon fill="midnightblue" stroke="midnightblue" points="1086.56,-89.6964 1089.6,-79.547 1080.9,-85.5856 1086.56,-89.6964"/>
</g>
<!-- Node23 -->
<g id="node48" class="node"><title>Node23</title>
<polygon fill="none" stroke="#bfbfbf" points="1135.5,-58.5 1135.5,-79.5 1180.5,-79.5 1180.5,-58.5 1135.5,-58.5"/>
<text text-anchor="middle" x="1158" y="-66.5" font-family="Helvetica,sans-Serif" font-size="10.00">iosfwd</text>
</g>
<!-- Node3&#45;&gt;Node23 -->
<g id="edge66" class="edge"><title>Node3&#45;&gt;Node23</title>
<path fill="none" stroke="midnightblue" d="M994.531,-188.404C1012.54,-179.569 1038.12,-166.177 1059,-152 1088.87,-131.715 1120.33,-104.116 1139.56,-86.4262"/>
<polygon fill="midnightblue" stroke="midnightblue" points="1142.07,-88.8723 1147.01,-79.5017 1137.31,-83.7439 1142.07,-88.8723"/>
</g>
<!-- Node24 -->
<g id="node50" class="node"><title>Node24</title>
<polygon fill="none" stroke="#bfbfbf" points="1197.5,-58.5 1197.5,-79.5 1232.5,-79.5 1232.5,-58.5 1197.5,-58.5"/>
<text text-anchor="middle" x="1215" y="-66.5" font-family="Helvetica,sans-Serif" font-size="10.00">new</text>
</g>
<!-- Node3&#45;&gt;Node24 -->
<g id="edge70" class="edge"><title>Node3&#45;&gt;Node24</title>
<path fill="none" stroke="midnightblue" d="M1006.1,-188.433C1031.34,-180.031 1066.18,-167.188 1095,-152 1131.76,-132.625 1170.68,-104 1193.9,-85.9348"/>
<polygon fill="midnightblue" stroke="midnightblue" points="1196.3,-88.5028 1202,-79.5696 1191.97,-83.0007 1196.3,-88.5028"/>
</g>
<!-- Node25 -->
<g id="node53" class="node"><title>Node25</title>
<polygon fill="none" stroke="#bfbfbf" points="590,-58.5 590,-79.5 652,-79.5 652,-58.5 590,-58.5"/>
<text text-anchor="middle" x="621" y="-66.5" font-family="Helvetica,sans-Serif" font-size="10.00">type_traits</text>
</g>
<!-- Node3&#45;&gt;Node25 -->
<g id="edge74" class="edge"><title>Node3&#45;&gt;Node25</title>
<path fill="none" stroke="midnightblue" d="M946.04,-188.38C906.224,-172.196 827.585,-140.641 760,-116 727.174,-104.032 689.623,-91.397 661.832,-82.245"/>
<polygon fill="midnightblue" stroke="midnightblue" points="662.655,-78.8314 652.062,-79.0385 660.472,-85.4823 662.655,-78.8314"/>
</g>
<!-- Node26 -->
<g id="node60" class="node"><title>Node26</title>
<polygon fill="none" stroke="#bfbfbf" points="628,-123.5 628,-144.5 680,-144.5 680,-123.5 628,-123.5"/>
<text text-anchor="middle" x="654" y="-131.5" font-family="Helvetica,sans-Serif" font-size="10.00">memory</text>
</g>
<!-- Node3&#45;&gt;Node26 -->
<g id="edge68" class="edge"><title>Node3&#45;&gt;Node26</title>
<path fill="none" stroke="midnightblue" d="M912.961,-193.441C855.988,-187.048 767.76,-174.427 694,-152 690.794,-151.025 687.509,-149.854 684.266,-148.582"/>
<polygon fill="midnightblue" stroke="midnightblue" points="685.359,-145.244 674.786,-144.563 682.626,-151.689 685.359,-145.244"/>
</g>
<!-- Node5 -->
<g id="node9" class="node"><title>Node5</title>
<a xlink:href="string_8hpp.html" target="_top" xlink:title="thrill/common/string.hpp">
<polygon fill="none" stroke="black" points="337.5,-58.5 337.5,-79.5 458.5,-79.5 458.5,-58.5 337.5,-58.5"/>
<text text-anchor="middle" x="398" y="-66.5" font-family="Helvetica,sans-Serif" font-size="10.00">thrill/common/string.hpp</text>
</a>
</g>
<!-- Node4&#45;&gt;Node5 -->
<g id="edge8" class="edge"><title>Node4&#45;&gt;Node5</title>
<path fill="none" stroke="midnightblue" d="M922.065,-128.345C819.896,-116.776 586.717,-90.3704 468.91,-77.0298"/>
<polygon fill="midnightblue" stroke="midnightblue" points="469.239,-73.5449 458.909,-75.8974 468.452,-80.5004 469.239,-73.5449"/>
</g>
<!-- Node4&#45;&gt;Node14 -->
<g id="edge54" class="edge"><title>Node4&#45;&gt;Node14</title>
<path fill="none" stroke="midnightblue" d="M922.274,-130.353C776.297,-119.576 357.426,-88.1232 329,-80 308.359,-74.1016 306.192,-65.2893 286,-58 219.997,-34.1727 197.195,-42.2646 126.594,-22.1731"/>
<polygon fill="midnightblue" stroke="midnightblue" points="127.368,-18.7527 116.787,-19.291 125.394,-25.4687 127.368,-18.7527"/>
</g>
<!-- Node4&#45;&gt;Node15 -->
<g id="edge58" class="edge"><title>Node4&#45;&gt;Node15</title>
<path fill="none" stroke="midnightblue" d="M972.772,-116.799C972.548,-99.3549 969.258,-72.8706 953,-58 914.539,-22.8206 756.126,-13.94 686.771,-11.7246"/>
<polygon fill="midnightblue" stroke="midnightblue" points="686.535,-8.21633 676.437,-11.4233 686.331,-15.2134 686.535,-8.21633"/>
</g>
<!-- Node16 -->
<g id="node31" class="node"><title>Node16</title>
<a xlink:href="malloc__tracker_8hpp.html" target="_top" xlink:title="thrill/mem/malloc_tracker.hpp">
<polygon fill="none" stroke="black" points="669.5,-58.5 669.5,-79.5 814.5,-79.5 814.5,-58.5 669.5,-58.5"/>
<text text-anchor="middle" x="742" y="-66.5" font-family="Helvetica,sans-Serif" font-size="10.00">thrill/mem/malloc_tracker.hpp</text>
</a>
</g>
<!-- Node4&#45;&gt;Node16 -->
<g id="edge30" class="edge"><title>Node4&#45;&gt;Node16</title>
<path fill="none" stroke="midnightblue" d="M922.377,-119.976C882.978,-108.842 828.251,-93.3752 789.435,-82.4056"/>
<polygon fill="midnightblue" stroke="midnightblue" points="790.008,-78.9304 779.433,-79.5788 788.104,-85.6666 790.008,-78.9304"/>
</g>
<!-- Node4&#45;&gt;Node17 -->
<g id="edge34" class="edge"><title>Node4&#45;&gt;Node17</title>
<path fill="none" stroke="midnightblue" d="M1021.73,-124.409C1080.73,-113.029 1179.26,-94.0233 1244.19,-81.5"/>
<polygon fill="midnightblue" stroke="midnightblue" points="1245.16,-84.8785 1254.31,-79.5478 1243.83,-78.0051 1245.16,-84.8785"/>
</g>
<!-- Node19 -->
<g id="node38" class="node"><title>Node19</title>
<polygon fill="none" stroke="#bfbfbf" points="1104,-0.5 1104,-21.5 1150,-21.5 1150,-0.5 1104,-0.5"/>
<text text-anchor="middle" x="1127" y="-8.5" font-family="Helvetica,sans-Serif" font-size="10.00">atomic</text>
</g>
<!-- Node4&#45;&gt;Node19 -->
<g id="edge44" class="edge"><title>Node4&#45;&gt;Node19</title>
<path fill="none" stroke="midnightblue" d="M982.871,-116.842C994.093,-100.174 1012.9,-74.9657 1034,-58 1052.13,-43.4234 1075.51,-31.6323 1094.29,-23.506"/>
<polygon fill="midnightblue" stroke="midnightblue" points="1095.77,-26.6827 1103.64,-19.5953 1093.07,-20.2248 1095.77,-26.6827"/>
</g>
<!-- Node4&#45;&gt;Node20 -->
<g id="edge46" class="edge"><title>Node4&#45;&gt;Node20</title>
<path fill="none" stroke="midnightblue" d="M991.044,-116.936C1013.73,-96.9448 1050.61,-65.5821 1067,-58 1135.98,-26.0919 1225.7,-15.8359 1274.2,-12.5466"/>
<polygon fill="midnightblue" stroke="midnightblue" points="1274.7,-16.0222 1284.47,-11.9134 1274.27,-9.03545 1274.7,-16.0222"/>
</g>
<!-- Node21 -->
<g id="node42" class="node"><title>Node21</title>
<polygon fill="none" stroke="#bfbfbf" points="832,-58.5 832,-79.5 944,-79.5 944,-58.5 832,-58.5"/>
<text text-anchor="middle" x="888" y="-66.5" font-family="Helvetica,sans-Serif" font-size="10.00">tlx/allocator_base.hpp</text>
</g>
<!-- Node4&#45;&gt;Node21 -->
<g id="edge42" class="edge"><title>Node4&#45;&gt;Node21</title>
<path fill="none" stroke="midnightblue" d="M949.93,-116.922C937.608,-107.387 922.306,-95.5461 909.995,-86.0203"/>
<polygon fill="midnightblue" stroke="midnightblue" points="912.075,-83.2039 902.024,-79.8521 907.791,-88.74 912.075,-83.2039"/>
</g>
<!-- Node4&#45;&gt;Node22 -->
<g id="edge48" class="edge"><title>Node4&#45;&gt;Node22</title>
<path fill="none" stroke="midnightblue" d="M1004.84,-116.922C1024.27,-106.818 1048.68,-94.1257 1067.5,-84.3418"/>
<polygon fill="midnightblue" stroke="midnightblue" points="1069.25,-87.3772 1076.5,-79.6584 1066.02,-81.1667 1069.25,-87.3772"/>
</g>
<!-- Node4&#45;&gt;Node23 -->
<g id="edge50" class="edge"><title>Node4&#45;&gt;Node23</title>
<path fill="none" stroke="midnightblue" d="M1021.24,-116.927C1049.46,-107.124 1085.77,-94.4759 1125.66,-80.4614"/>
<polygon fill="midnightblue" stroke="midnightblue" points="1127.05,-83.6841 1135.32,-77.0652 1124.72,-77.0804 1127.05,-83.6841"/>
</g>
<!-- Node4&#45;&gt;Node24 -->
<g id="edge52" class="edge"><title>Node4&#45;&gt;Node24</title>
<path fill="none" stroke="midnightblue" d="M1021.75,-123.94C1063.89,-114.901 1125.96,-100.372 1187.39,-80.2282"/>
<polygon fill="midnightblue" stroke="midnightblue" points="1188.86,-83.428 1197.24,-76.9471 1186.64,-76.7868 1188.86,-83.428"/>
</g>
<!-- Node4&#45;&gt;Node25 -->
<g id="edge56" class="edge"><title>Node4&#45;&gt;Node25</title>
<path fill="none" stroke="midnightblue" d="M922.493,-126.002C851.912,-114.504 724.826,-93.4211 662.512,-80.1552"/>
<polygon fill="midnightblue" stroke="midnightblue" points="662.888,-76.6547 652.371,-77.9347 661.391,-83.4927 662.888,-76.6547"/>
</g>
<!-- Node6 -->
<g id="node11" class="node"><title>Node6</title>
<polygon fill="none" stroke="#bfbfbf" points="133.5,-0.5 133.5,-21.5 208.5,-21.5 208.5,-0.5 133.5,-0.5"/>
<text text-anchor="middle" x="171" y="-8.5" font-family="Helvetica,sans-Serif" font-size="10.00">tlx/define.hpp</text>
</g>
<!-- Node5&#45;&gt;Node6 -->
<g id="edge10" class="edge"><title>Node5&#45;&gt;Node6</title>
<path fill="none" stroke="midnightblue" d="M356.892,-58.4966C317.941,-48.5445 259.469,-33.6044 218.533,-23.1449"/>
<polygon fill="midnightblue" stroke="midnightblue" points="219.34,-19.7389 208.785,-20.6543 217.607,-26.521 219.34,-19.7389"/>
</g>
<!-- Node7 -->
<g id="node13" class="node"><title>Node7</title>
<polygon fill="none" stroke="#bfbfbf" points="226,-0.5 226,-21.5 306,-21.5 306,-0.5 226,-0.5"/>
<text text-anchor="middle" x="266" y="-8.5" font-family="Helvetica,sans-Serif" font-size="10.00">tlx/unused.hpp</text>
</g>
<!-- Node5&#45;&gt;Node7 -->
<g id="edge12" class="edge"><title>Node5&#45;&gt;Node7</title>
<path fill="none" stroke="midnightblue" d="M374.096,-58.4966C353.2,-49.3154 322.644,-35.8889 299.345,-25.6516"/>
<polygon fill="midnightblue" stroke="midnightblue" points="300.736,-22.4397 290.172,-21.6212 297.92,-28.8483 300.736,-22.4397"/>
</g>
<!-- Node8 -->
<g id="node15" class="node"><title>Node8</title>
<polygon fill="none" stroke="#bfbfbf" points="324,-0.5 324,-21.5 362,-21.5 362,-0.5 324,-0.5"/>
<text text-anchor="middle" x="343" y="-8.5" font-family="Helvetica,sans-Serif" font-size="10.00">array</text>
</g>
<!-- Node5&#45;&gt;Node8 -->
<g id="edge14" class="edge"><title>Node5&#45;&gt;Node8</title>
<path fill="none" stroke="midnightblue" d="M387.912,-58.3619C380.159,-50.1861 369.27,-38.7025 360.155,-29.0907"/>
<polygon fill="midnightblue" stroke="midnightblue" points="362.445,-26.4186 353.024,-21.5707 357.365,-31.2352 362.445,-26.4186"/>
</g>
<!-- Node9 -->
<g id="node17" class="node"><title>Node9</title>
<polygon fill="none" stroke="#bfbfbf" points="379.5,-0.5 379.5,-21.5 428.5,-21.5 428.5,-0.5 379.5,-0.5"/>
<text text-anchor="middle" x="404" y="-8.5" font-family="Helvetica,sans-Serif" font-size="10.00">cstdarg</text>
</g>
<!-- Node5&#45;&gt;Node9 -->
<g id="edge16" class="edge"><title>Node5&#45;&gt;Node9</title>
<path fill="none" stroke="midnightblue" d="M399.1,-58.3619C399.87,-50.9219 400.923,-40.7427 401.856,-31.7276"/>
<polygon fill="midnightblue" stroke="midnightblue" points="405.359,-31.8777 402.906,-21.5707 398.396,-31.1574 405.359,-31.8777"/>
</g>
<!-- Node10 -->
<g id="node19" class="node"><title>Node10</title>
<polygon fill="none" stroke="#bfbfbf" points="569.5,-0.5 569.5,-21.5 614.5,-21.5 614.5,-0.5 569.5,-0.5"/>
<text text-anchor="middle" x="592" y="-8.5" font-family="Helvetica,sans-Serif" font-size="10.00">cstdlib</text>
</g>
<!-- Node5&#45;&gt;Node10 -->
<g id="edge18" class="edge"><title>Node5&#45;&gt;Node10</title>
<path fill="none" stroke="midnightblue" d="M437.062,-58.449C468.071,-49.9143 512.723,-37.2738 559.641,-22.3294"/>
<polygon fill="midnightblue" stroke="midnightblue" points="560.914,-25.5967 569.367,-19.2085 558.775,-18.9314 560.914,-25.5967"/>
</g>
<!-- Node11 -->
<g id="node21" class="node"><title>Node11</title>
<polygon fill="none" stroke="#bfbfbf" points="446,-0.5 446,-21.5 486,-21.5 486,-0.5 446,-0.5"/>
<text text-anchor="middle" x="466" y="-8.5" font-family="Helvetica,sans-Serif" font-size="10.00">limits</text>
</g>
<!-- Node5&#45;&gt;Node11 -->
<g id="edge20" class="edge"><title>Node5&#45;&gt;Node11</title>
<path fill="none" stroke="midnightblue" d="M410.472,-58.3619C420.345,-49.9408 434.333,-38.0105 445.798,-28.2308"/>
<polygon fill="midnightblue" stroke="midnightblue" points="448.27,-30.7231 453.607,-21.5707 443.727,-25.3972 448.27,-30.7231"/>
</g>
<!-- Node12 -->
<g id="node23" class="node"><title>Node12</title>
<polygon fill="none" stroke="#bfbfbf" points="503.5,-0.5 503.5,-21.5 552.5,-21.5 552.5,-0.5 503.5,-0.5"/>
<text text-anchor="middle" x="528" y="-8.5" font-family="Helvetica,sans-Serif" font-size="10.00">random</text>
</g>
<!-- Node5&#45;&gt;Node12 -->
<g id="edge22" class="edge"><title>Node5&#45;&gt;Node12</title>
<path fill="none" stroke="midnightblue" d="M421.542,-58.4966C442.029,-49.3562 471.947,-36.0082 494.854,-25.7883"/>
<polygon fill="midnightblue" stroke="midnightblue" points="496.488,-28.892 504.194,-21.6212 493.635,-22.4994 496.488,-28.892"/>
</g>
<!-- Node5&#45;&gt;Node13 -->
<g id="edge24" class="edge"><title>Node5&#45;&gt;Node13</title>
<path fill="none" stroke="midnightblue" d="M337.223,-62.6059C270.542,-55.0723 160.545,-41.117 67,-22 65.5108,-21.6957 63.9954,-21.369 62.4677,-21.0255"/>
<polygon fill="midnightblue" stroke="midnightblue" points="62.8976,-17.5284 52.3545,-18.5742 61.2486,-24.3314 62.8976,-17.5284"/>
</g>
<!-- Node5&#45;&gt;Node14 -->
<g id="edge26" class="edge"><title>Node5&#45;&gt;Node14</title>
<path fill="none" stroke="midnightblue" d="M337.217,-59.9288C273.738,-50.2246 177.402,-34.7932 126.581,-22.0178"/>
<polygon fill="midnightblue" stroke="midnightblue" points="127.313,-18.5913 116.751,-19.4179 125.523,-25.3586 127.313,-18.5913"/>
</g>
<!-- Node5&#45;&gt;Node15 -->
<g id="edge28" class="edge"><title>Node5&#45;&gt;Node15</title>
<path fill="none" stroke="midnightblue" d="M458.699,-58.6199C501.973,-50.6942 561.626,-38.7053 622.061,-22.0143"/>
<polygon fill="midnightblue" stroke="midnightblue" points="623.08,-25.3636 631.764,-19.2951 621.191,-18.6233 623.08,-25.3636"/>
</g>
<!-- Node16&#45;&gt;Node10 -->
<g id="edge32" class="edge"><title>Node16&#45;&gt;Node10</title>
<path fill="none" stroke="midnightblue" d="M714.836,-58.4966C689.271,-48.6115 650.979,-33.8052 623.957,-23.3566"/>
<polygon fill="midnightblue" stroke="midnightblue" points="625.145,-20.0635 614.555,-19.7214 622.62,-26.5924 625.145,-20.0635"/>
</g>
<!-- Node18 -->
<g id="node36" class="node"><title>Node18</title>
<polygon fill="none" stroke="#bfbfbf" points="921,-0.5 921,-21.5 977,-21.5 977,-0.5 921,-0.5"/>
<text text-anchor="middle" x="949" y="-8.5" font-family="Helvetica,sans-Serif" font-size="10.00">algorithm</text>
</g>
<!-- Node17&#45;&gt;Node18 -->
<g id="edge36" class="edge"><title>Node17&#45;&gt;Node18</title>
<path fill="none" stroke="midnightblue" d="M1249.3,-59.3393C1246.49,-58.8864 1243.72,-58.4382 1241,-58 1150.04,-43.3228 1043.14,-26.1301 987.325,-17.159"/>
<polygon fill="midnightblue" stroke="midnightblue" points="987.618,-13.6612 977.189,-15.5298 986.507,-20.5725 987.618,-13.6612"/>
</g>
<!-- Node17&#45;&gt;Node19 -->
<g id="edge38" class="edge"><title>Node17&#45;&gt;Node19</title>
<path fill="none" stroke="midnightblue" d="M1276.04,-58.4966C1243.09,-47.9943 1192.7,-31.9372 1159.8,-21.4527"/>
<polygon fill="midnightblue" stroke="midnightblue" points="1160.78,-18.0918 1150.19,-18.3901 1158.65,-24.7613 1160.78,-18.0918"/>
</g>
<!-- Node17&#45;&gt;Node20 -->
<g id="edge40" class="edge"><title>Node17&#45;&gt;Node20</title>
<path fill="none" stroke="midnightblue" d="M1309,-58.3619C1309,-50.9219 1309,-40.7427 1309,-31.7276"/>
<polygon fill="midnightblue" stroke="midnightblue" points="1312.5,-31.5706 1309,-21.5707 1305.5,-31.5707 1312.5,-31.5706"/>
</g>
<!-- Node27&#45;&gt;Node4 -->
<g id="edge82" class="edge"><title>Node27&#45;&gt;Node4</title>
<path fill="none" stroke="midnightblue" d="M525.829,-192.47C617.651,-180.437 813.189,-154.812 912.077,-141.853"/>
<polygon fill="midnightblue" stroke="midnightblue" points="912.743,-145.296 922.204,-140.526 911.834,-138.355 912.743,-145.296"/>
</g>
<!-- Node27&#45;&gt;Node14 -->
<g id="edge94" class="edge"><title>Node27&#45;&gt;Node14</title>
<path fill="none" stroke="midnightblue" d="M426.193,-195.846C332.332,-189.426 136.696,-173.599 115,-152 83.1958,-120.338 86.9653,-62.5967 91.8337,-31.742"/>
<polygon fill="midnightblue" stroke="midnightblue" points="95.3165,-32.1461 93.6132,-21.6891 88.4236,-30.9259 95.3165,-32.1461"/>
</g>
<!-- Node27&#45;&gt;Node15 -->
<g id="edge100" class="edge"><title>Node27&#45;&gt;Node15</title>
<path fill="none" stroke="midnightblue" d="M484.869,-188.195C491.735,-179.136 500.766,-165.544 505,-152 517.483,-112.069 484.423,-91.1082 510,-58 540.398,-18.6504 569.549,-36.4696 621.978,-21.9941"/>
<polygon fill="midnightblue" stroke="midnightblue" points="623.145,-25.2971 631.679,-19.0181 621.092,-18.6049 623.145,-25.2971"/>
</g>
<!-- Node27&#45;&gt;Node18 -->
<g id="edge84" class="edge"><title>Node27&#45;&gt;Node18</title>
<path fill="none" stroke="midnightblue" d="M487.069,-188.29C496.337,-179.07 509.667,-165.203 520,-152 550.694,-112.779 538.833,-84.5013 581,-58 635.322,-23.8596 827.974,-14.3921 910.748,-11.8721"/>
<polygon fill="midnightblue" stroke="midnightblue" points="910.851,-15.3707 920.747,-11.5855 910.65,-8.37355 910.851,-15.3707"/>
</g>
<!-- Node27&#45;&gt;Node25 -->
<g id="edge96" class="edge"><title>Node27&#45;&gt;Node25</title>
<path fill="none" stroke="midnightblue" d="M511.65,-188.493C532.363,-180.973 557.867,-169.12 576,-152 594.618,-134.422 607.27,-107.392 614.305,-88.9897"/>
<polygon fill="midnightblue" stroke="midnightblue" points="617.617,-90.1231 617.719,-79.5288 611.032,-87.747 617.617,-90.1231"/>
</g>
<!-- Node27&#45;&gt;Node26 -->
<g id="edge90" class="edge"><title>Node27&#45;&gt;Node26</title>
<path fill="none" stroke="midnightblue" d="M509.785,-188.481C537.924,-179.485 578.917,-165.832 614,-152 616.657,-150.953 619.393,-149.826 622.13,-148.665"/>
<polygon fill="midnightblue" stroke="midnightblue" points="623.549,-151.865 631.314,-144.657 620.749,-145.449 623.549,-151.865"/>
</g>
<!-- Node28 -->
<g id="node68" class="node"><title>Node28</title>
<a xlink:href="config_8hpp.html" target="_top" xlink:title="thrill/common/config.hpp">
<polygon fill="none" stroke="black" points="123.5,-123.5 123.5,-144.5 246.5,-144.5 246.5,-123.5 123.5,-123.5"/>
<text text-anchor="middle" x="185" y="-131.5" font-family="Helvetica,sans-Serif" font-size="10.00">thrill/common/config.hpp</text>
</a>
</g>
<!-- Node27&#45;&gt;Node28 -->
<g id="edge80" class="edge"><title>Node27&#45;&gt;Node28</title>
<path fill="none" stroke="midnightblue" d="M426.275,-189.049C381.397,-179.919 313.618,-165.763 255,-152 248.434,-150.458 241.539,-148.771 234.743,-147.066"/>
<polygon fill="midnightblue" stroke="midnightblue" points="235.461,-143.637 224.907,-144.572 233.74,-150.422 235.461,-143.637"/>
</g>
<!-- Node29 -->
<g id="node72" class="node"><title>Node29</title>
<polygon fill="none" stroke="#bfbfbf" points="263.5,-123.5 263.5,-144.5 312.5,-144.5 312.5,-123.5 263.5,-123.5"/>
<text text-anchor="middle" x="288" y="-131.5" font-family="Helvetica,sans-Serif" font-size="10.00">cstddef</text>
</g>
<!-- Node27&#45;&gt;Node29 -->
<g id="edge86" class="edge"><title>Node27&#45;&gt;Node29</title>
<path fill="none" stroke="midnightblue" d="M432.738,-188.434C401.181,-180.117 357.697,-167.38 321,-152 318.946,-151.139 316.853,-150.188 314.769,-149.186"/>
<polygon fill="midnightblue" stroke="midnightblue" points="316.32,-146.048 305.826,-144.588 313.119,-152.273 316.32,-146.048"/>
</g>
<!-- Node30 -->
<g id="node74" class="node"><title>Node30</title>
<polygon fill="none" stroke="#bfbfbf" points="330,-123.5 330,-144.5 376,-144.5 376,-123.5 330,-123.5"/>
<text text-anchor="middle" x="353" y="-131.5" font-family="Helvetica,sans-Serif" font-size="10.00">cstdint</text>
</g>
<!-- Node27&#45;&gt;Node30 -->
<g id="edge88" class="edge"><title>Node27&#45;&gt;Node30</title>
<path fill="none" stroke="midnightblue" d="M454.925,-188.384C436.41,-178.993 408.789,-164.829 385,-152 383.496,-151.189 381.956,-150.35 380.403,-149.498"/>
<polygon fill="midnightblue" stroke="midnightblue" points="381.993,-146.378 371.551,-144.582 378.594,-152.497 381.993,-146.378"/>
</g>
<!-- Node31 -->
<g id="node77" class="node"><title>Node31</title>
<polygon fill="none" stroke="#bfbfbf" points="394,-123.5 394,-144.5 438,-144.5 438,-123.5 394,-123.5"/>
<text text-anchor="middle" x="416" y="-131.5" font-family="Helvetica,sans-Serif" font-size="10.00">mutex</text>
</g>
<!-- Node27&#45;&gt;Node31 -->
<g id="edge92" class="edge"><title>Node27&#45;&gt;Node31</title>
<path fill="none" stroke="midnightblue" d="M466.092,-188.267C457.006,-178.423 443.367,-163.648 432.615,-152"/>
<polygon fill="midnightblue" stroke="midnightblue" points="435.078,-149.508 425.723,-144.534 429.934,-154.256 435.078,-149.508"/>
</g>
<!-- Node32 -->
<g id="node81" class="node"><title>Node32</title>
<polygon fill="none" stroke="#bfbfbf" points="456,-123.5 456,-144.5 496,-144.5 496,-123.5 456,-123.5"/>
<text text-anchor="middle" x="476" y="-131.5" font-family="Helvetica,sans-Serif" font-size="10.00">utility</text>
</g>
<!-- Node27&#45;&gt;Node32 -->
<g id="edge98" class="edge"><title>Node27&#45;&gt;Node32</title>
<path fill="none" stroke="midnightblue" d="M476,-188.267C476,-179.18 476,-165.892 476,-154.74"/>
<polygon fill="midnightblue" stroke="midnightblue" points="479.5,-154.534 476,-144.534 472.5,-154.534 479.5,-154.534"/>
</g>
</g>
</svg>
