<?xml version="1.0" encoding="UTF-8" standalone="no"?>
<!DOCTYPE svg PUBLIC "-//W3C//DTD SVG 1.1//EN"
 "http://www.w3.org/Graphics/SVG/1.1/DTD/svg11.dtd">
<!-- Generated by graphviz version 2.26.3 (20100126.1600)
 -->
<!-- Title: thrill/mem/manager.cpp Pages: 1 -->
<svg width="1366pt" height="406pt"
 viewBox="0.00 0.00 1365.56 406.00" xmlns="http://www.w3.org/2000/svg" xmlns:xlink="http://www.w3.org/1999/xlink">
<g id="graph1" class="graph" transform="scale(1 1) rotate(0) translate(4 402)">
<title>thrill/mem/manager.cpp</title>
<!-- Node1 -->
<g id="node1" class="node"><title>Node1</title>
<polygon fill="#bfbfbf" stroke="black" points="1223.5,-376.5 1223.5,-397.5 1342.5,-397.5 1342.5,-376.5 1223.5,-376.5"/>
<text text-anchor="middle" x="1283" y="-384.5" font-family="Helvetica,sans-Serif" font-size="10.00">thrill/mem/manager.cpp</text>
</g>
<!-- Node2 -->
<g id="node3" class="node"><title>Node2</title>
<a xlink:href="thrill_2common_2logger_8hpp.html" target="_top" xlink:title="thrill/common/logger.hpp">
<polygon fill="none" stroke="black" points="363.5,-318.5 363.5,-339.5 486.5,-339.5 486.5,-318.5 363.5,-318.5"/>
<text text-anchor="middle" x="425" y="-326.5" font-family="Helvetica,sans-Serif" font-size="10.00">thrill/common/logger.hpp</text>
</a>
</g>
<!-- Node1&#45;&gt;Node2 -->
<g id="edge2" class="edge"><title>Node1&#45;&gt;Node2</title>
<path fill="none" stroke="midnightblue" d="M1223.35,-382.968C1069.99,-372.601 662.417,-345.049 496.639,-333.843"/>
<polygon fill="midnightblue" stroke="midnightblue" points="496.762,-330.343 486.549,-333.161 496.29,-337.327 496.762,-330.343"/>
</g>
<!-- Node22 -->
<g id="node44" class="node"><title>Node22</title>
<a xlink:href="mem_2manager_8hpp.html" target="_top" xlink:title="thrill/mem/manager.hpp">
<polygon fill="none" stroke="black" points="1226.5,-130.5 1226.5,-151.5 1345.5,-151.5 1345.5,-130.5 1226.5,-130.5"/>
<text text-anchor="middle" x="1286" y="-138.5" font-family="Helvetica,sans-Serif" font-size="10.00">thrill/mem/manager.hpp</text>
</a>
</g>
<!-- Node1&#45;&gt;Node22 -->
<g id="edge122" class="edge"><title>Node1&#45;&gt;Node22</title>
<path fill="none" stroke="midnightblue" d="M1283.13,-376.43C1283.59,-338.975 1285.13,-212.138 1285.75,-161.819"/>
<polygon fill="midnightblue" stroke="midnightblue" points="1289.25,-161.573 1285.87,-151.531 1282.25,-161.487 1289.25,-161.573"/>
</g>
<!-- Node38 -->
<g id="node100" class="node"><title>Node38</title>
<polygon fill="none" stroke="#bfbfbf" points="1310.5,-318.5 1310.5,-339.5 1353.5,-339.5 1353.5,-318.5 1310.5,-318.5"/>
<text text-anchor="middle" x="1332" y="-326.5" font-family="Helvetica,sans-Serif" font-size="10.00">cstdio</text>
</g>
<!-- Node1&#45;&gt;Node38 -->
<g id="edge124" class="edge"><title>Node1&#45;&gt;Node38</title>
<path fill="none" stroke="midnightblue" d="M1291.99,-376.362C1298.83,-368.268 1308.4,-356.932 1316.47,-347.38"/>
<polygon fill="midnightblue" stroke="midnightblue" points="1319.29,-349.468 1323.07,-339.571 1313.94,-344.951 1319.29,-349.468"/>
</g>
<!-- Node3 -->
<g id="node5" class="node"><title>Node3</title>
<a xlink:href="allocator_8hpp.html" target="_top" xlink:title="thrill/mem/allocator.hpp">
<polygon fill="none" stroke="black" points="977,-260.5 977,-281.5 1095,-281.5 1095,-260.5 977,-260.5"/>
<text text-anchor="middle" x="1036" y="-268.5" font-family="Helvetica,sans-Serif" font-size="10.00">thrill/mem/allocator.hpp</text>
</a>
</g>
<!-- Node2&#45;&gt;Node3 -->
<g id="edge4" class="edge"><title>Node2&#45;&gt;Node3</title>
<path fill="none" stroke="midnightblue" d="M486.665,-323.146C601.343,-312.26 846.645,-288.975 966.796,-277.569"/>
<polygon fill="midnightblue" stroke="midnightblue" points="967.352,-281.032 976.977,-276.603 966.691,-274.064 967.352,-281.032"/>
</g>
<!-- Node18 -->
<g id="node35" class="node"><title>Node18</title>
<polygon fill="none" stroke="#bfbfbf" points="0,-72.5 0,-93.5 52,-93.5 52,-72.5 0,-72.5"/>
<text text-anchor="middle" x="26" y="-80.5" font-family="Helvetica,sans-Serif" font-size="10.00">sstream</text>
</g>
<!-- Node2&#45;&gt;Node18 -->
<g id="edge118" class="edge"><title>Node2&#45;&gt;Node18</title>
<path fill="none" stroke="midnightblue" d="M363.49,-323.988C286.838,-316.982 160.831,-302.747 119,-282 85.7732,-265.52 77.304,-256.258 59,-224 36.9839,-185.2 29.6336,-132.445 27.1958,-103.721"/>
<polygon fill="midnightblue" stroke="midnightblue" points="30.6789,-103.362 26.4618,-93.6423 23.6974,-103.87 30.6789,-103.362"/>
</g>
<!-- Node19 -->
<g id="node37" class="node"><title>Node19</title>
<polygon fill="none" stroke="#bfbfbf" points="102.5,-72.5 102.5,-93.5 143.5,-93.5 143.5,-72.5 102.5,-72.5"/>
<text text-anchor="middle" x="123" y="-80.5" font-family="Helvetica,sans-Serif" font-size="10.00">string</text>
</g>
<!-- Node2&#45;&gt;Node19 -->
<g id="edge120" class="edge"><title>Node2&#45;&gt;Node19</title>
<path fill="none" stroke="midnightblue" d="M363.146,-319.916C270.231,-304.863 101.682,-271.613 66,-224 55.5715,-210.084 72.4508,-134.958 75,-130 80.9399,-118.448 90.7967,-108.052 100.038,-99.9919"/>
<polygon fill="midnightblue" stroke="midnightblue" points="102.384,-102.594 107.886,-93.5402 97.9389,-97.1865 102.384,-102.594"/>
</g>
<!-- Node33 -->
<g id="node80" class="node"><title>Node33</title>
<a xlink:href="pool_8hpp.html" target="_top" xlink:title="thrill/mem/pool.hpp">
<polygon fill="none" stroke="black" points="375.5,-260.5 375.5,-281.5 474.5,-281.5 474.5,-260.5 375.5,-260.5"/>
<text text-anchor="middle" x="425" y="-268.5" font-family="Helvetica,sans-Serif" font-size="10.00">thrill/mem/pool.hpp</text>
</a>
</g>
<!-- Node2&#45;&gt;Node33 -->
<g id="edge94" class="edge"><title>Node2&#45;&gt;Node33</title>
<path fill="none" stroke="midnightblue" d="M425,-318.362C425,-310.922 425,-300.743 425,-291.728"/>
<polygon fill="midnightblue" stroke="midnightblue" points="428.5,-291.571 425,-281.571 421.5,-291.571 428.5,-291.571"/>
</g>
<!-- Node4 -->
<g id="node7" class="node"><title>Node4</title>
<a xlink:href="thrill_2mem_2allocator__base_8hpp.html" target="_top" xlink:title="thrill/mem/allocator\l_base.hpp">
<polygon fill="none" stroke="black" points="900.5,-189 900.5,-223 999.5,-223 999.5,-189 900.5,-189"/>
<text text-anchor="start" x="908.5" y="-210" font-family="Helvetica,sans-Serif" font-size="10.00">thrill/mem/allocator</text>
<text text-anchor="middle" x="950" y="-197" font-family="Helvetica,sans-Serif" font-size="10.00">_base.hpp</text>
</a>
</g>
<!-- Node3&#45;&gt;Node4 -->
<g id="edge6" class="edge"><title>Node3&#45;&gt;Node4</title>
<path fill="none" stroke="midnightblue" d="M1021.8,-260.267C1010.63,-251.827 994.67,-239.762 980.631,-229.151"/>
<polygon fill="midnightblue" stroke="midnightblue" points="982.726,-226.347 972.638,-223.11 978.505,-231.932 982.726,-226.347"/>
</g>
<!-- Node3&#45;&gt;Node19 -->
<g id="edge88" class="edge"><title>Node3&#45;&gt;Node19</title>
<path fill="none" stroke="midnightblue" d="M976.734,-268.891C852.71,-264.011 569.636,-250.295 477,-224 442.964,-214.339 439.548,-199.238 406,-188 319.945,-159.172 287.173,-190.522 205,-152 179.034,-139.827 154.61,-117.3 139.284,-101.299"/>
<polygon fill="midnightblue" stroke="midnightblue" points="141.512,-98.5554 132.139,-93.6162 136.386,-103.322 141.512,-98.5554"/>
</g>
<!-- Node20 -->
<g id="node39" class="node"><title>Node20</title>
<polygon fill="none" stroke="#bfbfbf" points="161,-72.5 161,-93.5 205,-93.5 205,-72.5 161,-72.5"/>
<text text-anchor="middle" x="183" y="-80.5" font-family="Helvetica,sans-Serif" font-size="10.00">vector</text>
</g>
<!-- Node3&#45;&gt;Node20 -->
<g id="edge92" class="edge"><title>Node3&#45;&gt;Node20</title>
<path fill="none" stroke="midnightblue" d="M976.848,-262.176C874.84,-246.967 659.237,-214.864 477,-188 367.683,-171.886 324.962,-210.146 231,-152 212.576,-140.599 199.377,-119.212 191.539,-103.258"/>
<polygon fill="midnightblue" stroke="midnightblue" points="194.514,-101.347 187.162,-93.718 188.151,-104.267 194.514,-101.347"/>
</g>
<!-- Node3&#45;&gt;Node22 -->
<g id="edge76" class="edge"><title>Node3&#45;&gt;Node22</title>
<path fill="none" stroke="midnightblue" d="M1095.24,-264.154C1131.38,-257.902 1177.32,-246.096 1213,-224 1239.22,-207.763 1261.29,-179.204 1274.08,-160.192"/>
<polygon fill="midnightblue" stroke="midnightblue" points="1277.08,-162.011 1279.6,-151.721 1271.21,-158.192 1277.08,-162.011"/>
</g>
<!-- Node25 -->
<g id="node50" class="node"><title>Node25</title>
<polygon fill="none" stroke="#bfbfbf" points="1261.5,-72.5 1261.5,-93.5 1310.5,-93.5 1310.5,-72.5 1261.5,-72.5"/>
<text text-anchor="middle" x="1286" y="-80.5" font-family="Helvetica,sans-Serif" font-size="10.00">cassert</text>
</g>
<!-- Node3&#45;&gt;Node25 -->
<g id="edge78" class="edge"><title>Node3&#45;&gt;Node25</title>
<path fill="none" stroke="midnightblue" d="M1095.13,-263.854C1138.47,-257.194 1198.03,-245.034 1247,-224 1299.67,-201.376 1327.06,-202.595 1354,-152 1365.46,-130.471 1342.12,-111.191 1319.72,-98.5212"/>
<polygon fill="midnightblue" stroke="midnightblue" points="1321.08,-95.2816 1310.61,-93.6721 1317.79,-101.461 1321.08,-95.2816"/>
</g>
<!-- Node28 -->
<g id="node56" class="node"><title>Node28</title>
<polygon fill="none" stroke="#bfbfbf" points="787,-72.5 787,-93.5 839,-93.5 839,-72.5 787,-72.5"/>
<text text-anchor="middle" x="813" y="-80.5" font-family="Helvetica,sans-Serif" font-size="10.00">memory</text>
</g>
<!-- Node3&#45;&gt;Node28 -->
<g id="edge84" class="edge"><title>Node3&#45;&gt;Node28</title>
<path fill="none" stroke="midnightblue" d="M981.356,-260.464C891.935,-241.985 720.78,-201 686,-152 680.34,-144.027 680.413,-138.025 686,-130 688.763,-126.032 740.433,-107.75 777.004,-95.193"/>
<polygon fill="midnightblue" stroke="midnightblue" points="778.537,-98.368 786.866,-91.8196 776.271,-91.7448 778.537,-98.368"/>
</g>
<!-- Node29 -->
<g id="node58" class="node"><title>Node29</title>
<polygon fill="none" stroke="#bfbfbf" points="866,-72.5 866,-93.5 928,-93.5 928,-72.5 866,-72.5"/>
<text text-anchor="middle" x="897" y="-80.5" font-family="Helvetica,sans-Serif" font-size="10.00">type_traits</text>
</g>
<!-- Node3&#45;&gt;Node29 -->
<g id="edge90" class="edge"><title>Node3&#45;&gt;Node29</title>
<path fill="none" stroke="midnightblue" d="M1062.52,-260.363C1115.27,-237.734 1224.57,-182.581 1180,-130 1172.22,-120.826 1015.06,-98.7375 938.374,-88.4467"/>
<polygon fill="midnightblue" stroke="midnightblue" points="938.487,-84.9307 928.111,-87.0755 937.56,-91.8691 938.487,-84.9307"/>
</g>
<!-- Node30 -->
<g id="node62" class="node"><title>Node30</title>
<polygon fill="none" stroke="#bfbfbf" points="1014.5,-130.5 1014.5,-151.5 1057.5,-151.5 1057.5,-130.5 1014.5,-130.5"/>
<text text-anchor="middle" x="1036" y="-138.5" font-family="Helvetica,sans-Serif" font-size="10.00">deque</text>
</g>
<!-- Node3&#45;&gt;Node30 -->
<g id="edge80" class="edge"><title>Node3&#45;&gt;Node30</title>
<path fill="none" stroke="midnightblue" d="M1036,-260.362C1036,-238.936 1036,-190.24 1036,-162.114"/>
<polygon fill="midnightblue" stroke="midnightblue" points="1039.5,-161.785 1036,-151.785 1032.5,-161.785 1039.5,-161.785"/>
</g>
<!-- Node31 -->
<g id="node64" class="node"><title>Node31</title>
<polygon fill="none" stroke="#bfbfbf" points="1074.5,-130.5 1074.5,-151.5 1119.5,-151.5 1119.5,-130.5 1074.5,-130.5"/>
<text text-anchor="middle" x="1097" y="-138.5" font-family="Helvetica,sans-Serif" font-size="10.00">iosfwd</text>
</g>
<!-- Node3&#45;&gt;Node31 -->
<g id="edge82" class="edge"><title>Node3&#45;&gt;Node31</title>
<path fill="none" stroke="midnightblue" d="M1040.99,-260.362C1051.18,-238.65 1074.51,-188.937 1087.62,-161"/>
<polygon fill="midnightblue" stroke="midnightblue" points="1090.86,-162.325 1091.94,-151.785 1084.52,-159.352 1090.86,-162.325"/>
</g>
<!-- Node32 -->
<g id="node66" class="node"><title>Node32</title>
<polygon fill="none" stroke="#bfbfbf" points="1136.5,-130.5 1136.5,-151.5 1171.5,-151.5 1171.5,-130.5 1136.5,-130.5"/>
<text text-anchor="middle" x="1154" y="-138.5" font-family="Helvetica,sans-Serif" font-size="10.00">new</text>
</g>
<!-- Node3&#45;&gt;Node32 -->
<g id="edge86" class="edge"><title>Node3&#45;&gt;Node32</title>
<path fill="none" stroke="midnightblue" d="M1046.21,-260.242C1055.18,-250.761 1068.54,-236.543 1080,-224 1100.25,-201.831 1123.22,-175.959 1138.12,-159.07"/>
<polygon fill="midnightblue" stroke="midnightblue" points="1140.75,-161.372 1144.74,-151.555 1135.5,-156.745 1140.75,-161.372"/>
</g>
<!-- Node5 -->
<g id="node9" class="node"><title>Node5</title>
<a xlink:href="thrill_2common_2string_8hpp.html" target="_top" xlink:title="thrill/common/string.hpp">
<polygon fill="none" stroke="black" points="442.5,-130.5 442.5,-151.5 563.5,-151.5 563.5,-130.5 442.5,-130.5"/>
<text text-anchor="middle" x="503" y="-138.5" font-family="Helvetica,sans-Serif" font-size="10.00">thrill/common/string.hpp</text>
</a>
</g>
<!-- Node4&#45;&gt;Node5 -->
<g id="edge8" class="edge"><title>Node4&#45;&gt;Node5</title>
<path fill="none" stroke="midnightblue" d="M900.455,-198.796C821.033,-187.246 664.914,-164.545 573.765,-151.29"/>
<polygon fill="midnightblue" stroke="midnightblue" points="574.195,-147.816 563.795,-149.84 573.187,-154.743 574.195,-147.816"/>
</g>
<!-- Node4&#45;&gt;Node19 -->
<g id="edge70" class="edge"><title>Node4&#45;&gt;Node19</title>
<path fill="none" stroke="midnightblue" d="M900.271,-205.414C758.674,-203.251 355.544,-193.514 231,-152 197.385,-140.795 163.799,-116.83 143.214,-100.316"/>
<polygon fill="midnightblue" stroke="midnightblue" points="145.174,-97.3965 135.225,-93.7532 140.731,-102.805 145.174,-97.3965"/>
</g>
<!-- Node4&#45;&gt;Node20 -->
<g id="edge74" class="edge"><title>Node4&#45;&gt;Node20</title>
<path fill="none" stroke="midnightblue" d="M900.281,-202.422C746.288,-191.29 286.659,-157.677 272,-152 243.484,-140.957 216.591,-117.652 199.982,-101.19"/>
<polygon fill="midnightblue" stroke="midnightblue" points="202.189,-98.4405 192.693,-93.742 197.186,-103.337 202.189,-98.4405"/>
</g>
<!-- Node21 -->
<g id="node41" class="node"><title>Node21</title>
<a xlink:href="malloc__tracker_8hpp.html" target="_top" xlink:title="thrill/mem/malloc_tracker.hpp">
<polygon fill="none" stroke="black" points="280.5,-130.5 280.5,-151.5 425.5,-151.5 425.5,-130.5 280.5,-130.5"/>
<text text-anchor="middle" x="353" y="-138.5" font-family="Helvetica,sans-Serif" font-size="10.00">thrill/mem/malloc_tracker.hpp</text>
</a>
</g>
<!-- Node4&#45;&gt;Node21 -->
<g id="edge40" class="edge"><title>Node4&#45;&gt;Node21</title>
<path fill="none" stroke="midnightblue" d="M900.492,-201.329C810.212,-192.701 612.545,-173.295 435.843,-152.198"/>
<polygon fill="midnightblue" stroke="midnightblue" points="436.19,-148.715 425.844,-151 435.357,-155.665 436.19,-148.715"/>
</g>
<!-- Node4&#45;&gt;Node22 -->
<g id="edge44" class="edge"><title>Node4&#45;&gt;Node22</title>
<path fill="none" stroke="midnightblue" d="M999.578,-196.409C1058.41,-185.029 1156.65,-166.023 1221.38,-153.5"/>
<polygon fill="midnightblue" stroke="midnightblue" points="1222.32,-156.884 1231.48,-151.548 1220.99,-150.011 1222.32,-156.884"/>
</g>
<!-- Node24 -->
<g id="node48" class="node"><title>Node24</title>
<polygon fill="none" stroke="#bfbfbf" points="1154,-72.5 1154,-93.5 1200,-93.5 1200,-72.5 1154,-72.5"/>
<text text-anchor="middle" x="1177" y="-80.5" font-family="Helvetica,sans-Serif" font-size="10.00">atomic</text>
</g>
<!-- Node4&#45;&gt;Node24 -->
<g id="edge60" class="edge"><title>Node4&#45;&gt;Node24</title>
<path fill="none" stroke="midnightblue" d="M950.427,-188.953C951.809,-171.634 956.685,-145.25 973,-130 997.467,-107.129 1092.44,-92.8291 1143.72,-86.613"/>
<polygon fill="midnightblue" stroke="midnightblue" points="1144.13,-90.0882 1153.66,-85.4432 1143.31,-83.1362 1144.13,-90.0882"/>
</g>
<!-- Node4&#45;&gt;Node25 -->
<g id="edge62" class="edge"><title>Node4&#45;&gt;Node25</title>
<path fill="none" stroke="midnightblue" d="M957.79,-188.735C966.76,-170.974 983.239,-143.987 1006,-130 1016.41,-123.605 1178.62,-98.9279 1251.27,-88.1199"/>
<polygon fill="midnightblue" stroke="midnightblue" points="1251.93,-91.5599 1261.31,-86.6297 1250.91,-84.6357 1251.93,-91.5599"/>
</g>
<!-- Node26 -->
<g id="node52" class="node"><title>Node26</title>
<a xlink:href="extlib_2tlx_2tlx_2allocator__base_8hpp.html" target="_top" xlink:title="tlx/allocator_base.hpp">
<polygon fill="none" stroke="black" points="695,-130.5 695,-151.5 807,-151.5 807,-130.5 695,-130.5"/>
<text text-anchor="middle" x="751" y="-138.5" font-family="Helvetica,sans-Serif" font-size="10.00">tlx/allocator_base.hpp</text>
</a>
</g>
<!-- Node4&#45;&gt;Node26 -->
<g id="edge52" class="edge"><title>Node4&#45;&gt;Node26</title>
<path fill="none" stroke="midnightblue" d="M900.297,-189.765C867.264,-178.976 824.363,-164.963 793.032,-154.729"/>
<polygon fill="midnightblue" stroke="midnightblue" points="793.885,-151.326 783.293,-151.548 791.712,-157.98 793.885,-151.326"/>
</g>
<!-- Node4&#45;&gt;Node29 -->
<g id="edge72" class="edge"><title>Node4&#45;&gt;Node29</title>
<path fill="none" stroke="midnightblue" d="M942.631,-188.897C932.968,-166.472 916.038,-127.183 905.74,-103.283"/>
<polygon fill="midnightblue" stroke="midnightblue" points="908.82,-101.586 901.648,-93.7875 902.391,-104.356 908.82,-101.586"/>
</g>
<!-- Node4&#45;&gt;Node30 -->
<g id="edge64" class="edge"><title>Node4&#45;&gt;Node30</title>
<path fill="none" stroke="midnightblue" d="M972.595,-188.922C985.292,-179.326 1001.08,-167.394 1013.72,-157.837"/>
<polygon fill="midnightblue" stroke="midnightblue" points="1016.03,-160.48 1021.9,-151.658 1011.81,-154.896 1016.03,-160.48"/>
</g>
<!-- Node4&#45;&gt;Node31 -->
<g id="edge66" class="edge"><title>Node4&#45;&gt;Node31</title>
<path fill="none" stroke="midnightblue" d="M988.623,-188.922C1012.33,-178.437 1042.35,-165.164 1064.78,-155.247"/>
<polygon fill="midnightblue" stroke="midnightblue" points="1066.46,-158.33 1074.19,-151.085 1063.63,-151.928 1066.46,-158.33"/>
</g>
<!-- Node4&#45;&gt;Node32 -->
<g id="edge68" class="edge"><title>Node4&#45;&gt;Node32</title>
<path fill="none" stroke="midnightblue" d="M999.569,-192.484C1033.29,-182.945 1079.03,-169.335 1126.88,-152.187"/>
<polygon fill="midnightblue" stroke="midnightblue" points="1128.27,-155.407 1136.48,-148.71 1125.88,-148.826 1128.27,-155.407"/>
</g>
<!-- Node6 -->
<g id="node11" class="node"><title>Node6</title>
<a xlink:href="define_8hpp.html" target="_top" xlink:title="tlx/define.hpp">
<polygon fill="none" stroke="black" points="408.5,-72.5 408.5,-93.5 483.5,-93.5 483.5,-72.5 408.5,-72.5"/>
<text text-anchor="middle" x="446" y="-80.5" font-family="Helvetica,sans-Serif" font-size="10.00">tlx/define.hpp</text>
</a>
</g>
<!-- Node5&#45;&gt;Node6 -->
<g id="edge10" class="edge"><title>Node5&#45;&gt;Node6</title>
<path fill="none" stroke="midnightblue" d="M492.545,-130.362C484.43,-122.104 472.999,-110.472 463.496,-100.803"/>
<polygon fill="midnightblue" stroke="midnightblue" points="465.894,-98.2497 456.388,-93.5707 460.901,-103.156 465.894,-98.2497"/>
</g>
<!-- Node12 -->
<g id="node23" class="node"><title>Node12</title>
<a xlink:href="unused_8hpp.html" target="_top" xlink:title="tlx/unused.hpp">
<polygon fill="none" stroke="black" points="501,-72.5 501,-93.5 581,-93.5 581,-72.5 501,-72.5"/>
<text text-anchor="middle" x="541" y="-80.5" font-family="Helvetica,sans-Serif" font-size="10.00">tlx/unused.hpp</text>
</a>
</g>
<!-- Node5&#45;&gt;Node12 -->
<g id="edge22" class="edge"><title>Node5&#45;&gt;Node12</title>
<path fill="none" stroke="midnightblue" d="M509.97,-130.362C515.166,-122.431 522.401,-111.389 528.578,-101.961"/>
<polygon fill="midnightblue" stroke="midnightblue" points="531.522,-103.853 534.074,-93.5707 525.666,-100.017 531.522,-103.853"/>
</g>
<!-- Node13 -->
<g id="node25" class="node"><title>Node13</title>
<polygon fill="none" stroke="#bfbfbf" points="599,-72.5 599,-93.5 637,-93.5 637,-72.5 599,-72.5"/>
<text text-anchor="middle" x="618" y="-80.5" font-family="Helvetica,sans-Serif" font-size="10.00">array</text>
</g>
<!-- Node5&#45;&gt;Node13 -->
<g id="edge24" class="edge"><title>Node5&#45;&gt;Node13</title>
<path fill="none" stroke="midnightblue" d="M523.826,-130.497C542.265,-121.197 569.34,-107.541 589.733,-97.2565"/>
<polygon fill="midnightblue" stroke="midnightblue" points="591.505,-100.283 598.858,-92.6543 588.353,-94.0325 591.505,-100.283"/>
</g>
<!-- Node14 -->
<g id="node27" class="node"><title>Node14</title>
<polygon fill="none" stroke="#bfbfbf" points="654.5,-72.5 654.5,-93.5 703.5,-93.5 703.5,-72.5 654.5,-72.5"/>
<text text-anchor="middle" x="679" y="-80.5" font-family="Helvetica,sans-Serif" font-size="10.00">cstdarg</text>
</g>
<!-- Node5&#45;&gt;Node14 -->
<g id="edge26" class="edge"><title>Node5&#45;&gt;Node14</title>
<path fill="none" stroke="midnightblue" d="M535.101,-130.492C562.11,-121.641 601.995,-108.549 644.986,-94.3283"/>
<polygon fill="midnightblue" stroke="midnightblue" points="646.102,-97.6458 654.496,-91.1809 643.902,-91.0003 646.102,-97.6458"/>
</g>
<!-- Node15 -->
<g id="node29" class="node"><title>Node15</title>
<polygon fill="none" stroke="#bfbfbf" points="222.5,-72.5 222.5,-93.5 267.5,-93.5 267.5,-72.5 222.5,-72.5"/>
<text text-anchor="middle" x="245" y="-80.5" font-family="Helvetica,sans-Serif" font-size="10.00">cstdlib</text>
</g>
<!-- Node5&#45;&gt;Node15 -->
<g id="edge28" class="edge"><title>Node5&#45;&gt;Node15</title>
<path fill="none" stroke="midnightblue" d="M442.239,-130.755C398.549,-122.855 338.132,-110.844 277.331,-94.1342"/>
<polygon fill="midnightblue" stroke="midnightblue" points="278.145,-90.7276 267.572,-91.4118 276.264,-97.4702 278.145,-90.7276"/>
</g>
<!-- Node16 -->
<g id="node31" class="node"><title>Node16</title>
<polygon fill="none" stroke="#bfbfbf" points="285,-72.5 285,-93.5 325,-93.5 325,-72.5 285,-72.5"/>
<text text-anchor="middle" x="305" y="-80.5" font-family="Helvetica,sans-Serif" font-size="10.00">limits</text>
</g>
<!-- Node5&#45;&gt;Node16 -->
<g id="edge30" class="edge"><title>Node5&#45;&gt;Node16</title>
<path fill="none" stroke="midnightblue" d="M461.011,-130.462C428.77,-122.116 382.991,-109.716 334.853,-94.0971"/>
<polygon fill="midnightblue" stroke="midnightblue" points="335.79,-90.7211 325.197,-90.9306 333.609,-97.3725 335.79,-90.7211"/>
</g>
<!-- Node17 -->
<g id="node33" class="node"><title>Node17</title>
<polygon fill="none" stroke="#bfbfbf" points="342.5,-72.5 342.5,-93.5 391.5,-93.5 391.5,-72.5 342.5,-72.5"/>
<text text-anchor="middle" x="367" y="-80.5" font-family="Helvetica,sans-Serif" font-size="10.00">random</text>
</g>
<!-- Node5&#45;&gt;Node17 -->
<g id="edge32" class="edge"><title>Node5&#45;&gt;Node17</title>
<path fill="none" stroke="midnightblue" d="M478.371,-130.497C456.843,-121.315 425.36,-107.889 401.355,-97.6516"/>
<polygon fill="midnightblue" stroke="midnightblue" points="402.476,-94.3247 391.905,-93.6212 399.73,-100.764 402.476,-94.3247"/>
</g>
<!-- Node5&#45;&gt;Node18 -->
<g id="edge34" class="edge"><title>Node5&#45;&gt;Node18</title>
<path fill="none" stroke="midnightblue" d="M442.444,-131.162C439.592,-130.756 436.766,-130.367 434,-130 283.362,-110.032 244.615,-114.14 94,-94 83.5985,-92.6091 72.3382,-90.8793 62.0299,-89.2064"/>
<polygon fill="midnightblue" stroke="midnightblue" points="62.5428,-85.7437 52.106,-87.567 61.4018,-92.6501 62.5428,-85.7437"/>
</g>
<!-- Node5&#45;&gt;Node19 -->
<g id="edge36" class="edge"><title>Node5&#45;&gt;Node19</title>
<path fill="none" stroke="midnightblue" d="M442.434,-131.235C439.584,-130.81 436.762,-130.396 434,-130 312.106,-112.508 276.387,-123.999 153.506,-93.9635"/>
<polygon fill="midnightblue" stroke="midnightblue" points="154.27,-90.5471 143.721,-91.5302 152.581,-97.3402 154.27,-90.5471"/>
</g>
<!-- Node5&#45;&gt;Node20 -->
<g id="edge38" class="edge"><title>Node5&#45;&gt;Node20</title>
<path fill="none" stroke="midnightblue" d="M442.482,-131.297C369.124,-119.518 251.525,-100.573 215.116,-93.5424"/>
<polygon fill="midnightblue" stroke="midnightblue" points="215.714,-90.0912 205.203,-91.4172 214.247,-96.9357 215.714,-90.0912"/>
</g>
<!-- Node7 -->
<g id="node13" class="node"><title>Node7</title>
<a xlink:href="attribute__always__inline_8hpp.html" target="_top" xlink:title="tlx/define/attribute\l_always_inline.hpp">
<polygon fill="none" stroke="black" points="170.5,-1 170.5,-35 269.5,-35 269.5,-1 170.5,-1"/>
<text text-anchor="start" x="178.5" y="-22" font-family="Helvetica,sans-Serif" font-size="10.00">tlx/define/attribute</text>
<text text-anchor="middle" x="220" y="-9" font-family="Helvetica,sans-Serif" font-size="10.00">_always_inline.hpp</text>
</a>
</g>
<!-- Node6&#45;&gt;Node7 -->
<g id="edge12" class="edge"><title>Node6&#45;&gt;Node7</title>
<path fill="none" stroke="midnightblue" d="M408.215,-72.7557C376.173,-63.9958 328.765,-50.8644 279.244,-36.3341"/>
<polygon fill="midnightblue" stroke="midnightblue" points="280.228,-32.9753 269.646,-33.5081 278.25,-39.6903 280.228,-32.9753"/>
</g>
<!-- Node8 -->
<g id="node15" class="node"><title>Node8</title>
<a xlink:href="attribute__format__printf_8hpp.html" target="_top" xlink:title="tlx/define/attribute\l_format_printf.hpp">
<polygon fill="none" stroke="black" points="286.5,-1 286.5,-35 381.5,-35 381.5,-1 286.5,-1"/>
<text text-anchor="start" x="294.5" y="-22" font-family="Helvetica,sans-Serif" font-size="10.00">tlx/define/attribute</text>
<text text-anchor="middle" x="334" y="-9" font-family="Helvetica,sans-Serif" font-size="10.00">_format_printf.hpp</text>
</a>
</g>
<!-- Node6&#45;&gt;Node8 -->
<g id="edge14" class="edge"><title>Node6&#45;&gt;Node8</title>
<path fill="none" stroke="midnightblue" d="M427.505,-72.2666C412.555,-63.5901 391.004,-51.083 372.36,-40.2622"/>
<polygon fill="midnightblue" stroke="midnightblue" points="373.887,-37.1023 363.482,-35.1099 370.374,-43.1565 373.887,-37.1023"/>
</g>
<!-- Node9 -->
<g id="node17" class="node"><title>Node9</title>
<a xlink:href="attribute__packed_8hpp.html" target="_top" xlink:title="tlx/define/attribute\l_packed.hpp">
<polygon fill="none" stroke="black" points="398.5,-1 398.5,-35 493.5,-35 493.5,-1 398.5,-1"/>
<text text-anchor="start" x="406.5" y="-22" font-family="Helvetica,sans-Serif" font-size="10.00">tlx/define/attribute</text>
<text text-anchor="middle" x="446" y="-9" font-family="Helvetica,sans-Serif" font-size="10.00">_packed.hpp</text>
</a>
</g>
<!-- Node6&#45;&gt;Node9 -->
<g id="edge16" class="edge"><title>Node6&#45;&gt;Node9</title>
<path fill="none" stroke="midnightblue" d="M446,-72.2666C446,-64.931 446,-54.8573 446,-45.3796"/>
<polygon fill="midnightblue" stroke="midnightblue" points="449.5,-45.1098 446,-35.1099 442.5,-45.1099 449.5,-45.1098"/>
</g>
<!-- Node10 -->
<g id="node19" class="node"><title>Node10</title>
<a xlink:href="attribute__warn__unused__result_8hpp.html" target="_top" xlink:title="tlx/define/attribute\l_warn_unused_result.hpp">
<polygon fill="none" stroke="black" points="511,-1 511,-35 639,-35 639,-1 511,-1"/>
<text text-anchor="start" x="519" y="-22" font-family="Helvetica,sans-Serif" font-size="10.00">tlx/define/attribute</text>
<text text-anchor="middle" x="575" y="-9" font-family="Helvetica,sans-Serif" font-size="10.00">_warn_unused_result.hpp</text>
</a>
</g>
<!-- Node6&#45;&gt;Node10 -->
<g id="edge18" class="edge"><title>Node6&#45;&gt;Node10</title>
<path fill="none" stroke="midnightblue" d="M467.013,-72.412C484.505,-63.5984 509.983,-50.7606 531.799,-39.768"/>
<polygon fill="midnightblue" stroke="midnightblue" points="533.535,-42.8124 540.891,-35.1869 530.385,-36.5612 533.535,-42.8124"/>
</g>
<!-- Node11 -->
<g id="node21" class="node"><title>Node11</title>
<a xlink:href="likely_8hpp.html" target="_top" xlink:title="tlx/define/likely.hpp">
<polygon fill="none" stroke="black" points="656.5,-7.5 656.5,-28.5 757.5,-28.5 757.5,-7.5 656.5,-7.5"/>
<text text-anchor="middle" x="707" y="-15.5" font-family="Helvetica,sans-Serif" font-size="10.00">tlx/define/likely.hpp</text>
</a>
</g>
<!-- Node6&#45;&gt;Node11 -->
<g id="edge20" class="edge"><title>Node6&#45;&gt;Node11</title>
<path fill="none" stroke="midnightblue" d="M483.65,-73.9711C486.475,-73.3015 489.282,-72.6385 492,-72 561.269,-55.7254 579.263,-54.3929 648,-36 653.237,-34.5986 658.71,-33.0476 664.121,-31.4608"/>
<polygon fill="midnightblue" stroke="midnightblue" points="665.15,-34.8066 673.73,-28.5909 663.146,-28.0994 665.15,-34.8066"/>
</g>
<!-- Node21&#45;&gt;Node15 -->
<g id="edge42" class="edge"><title>Node21&#45;&gt;Node15</title>
<path fill="none" stroke="midnightblue" d="M333.442,-130.497C316.802,-121.56 292.673,-108.602 273.82,-98.4772"/>
<polygon fill="midnightblue" stroke="midnightblue" points="275.243,-95.2691 264.777,-93.6212 271.931,-101.436 275.243,-95.2691"/>
</g>
<!-- Node23 -->
<g id="node46" class="node"><title>Node23</title>
<polygon fill="none" stroke="#bfbfbf" points="991,-72.5 991,-93.5 1047,-93.5 1047,-72.5 991,-72.5"/>
<text text-anchor="middle" x="1019" y="-80.5" font-family="Helvetica,sans-Serif" font-size="10.00">algorithm</text>
</g>
<!-- Node22&#45;&gt;Node23 -->
<g id="edge46" class="edge"><title>Node22&#45;&gt;Node23</title>
<path fill="none" stroke="midnightblue" d="M1237.65,-130.497C1185.85,-119.244 1104.69,-101.614 1057.18,-91.2946"/>
<polygon fill="midnightblue" stroke="midnightblue" points="1057.81,-87.8492 1047.3,-89.1465 1056.32,-94.6896 1057.81,-87.8492"/>
</g>
<!-- Node22&#45;&gt;Node24 -->
<g id="edge48" class="edge"><title>Node22&#45;&gt;Node24</title>
<path fill="none" stroke="midnightblue" d="M1266.26,-130.497C1249.39,-121.519 1224.89,-108.484 1205.83,-98.3387"/>
<polygon fill="midnightblue" stroke="midnightblue" points="1207.43,-95.2289 1196.96,-93.6212 1204.14,-101.409 1207.43,-95.2289"/>
</g>
<!-- Node22&#45;&gt;Node25 -->
<g id="edge50" class="edge"><title>Node22&#45;&gt;Node25</title>
<path fill="none" stroke="midnightblue" d="M1286,-130.362C1286,-122.922 1286,-112.743 1286,-103.728"/>
<polygon fill="midnightblue" stroke="midnightblue" points="1289.5,-103.571 1286,-93.5707 1282.5,-103.571 1289.5,-103.571"/>
</g>
<!-- Node27 -->
<g id="node54" class="node"><title>Node27</title>
<polygon fill="none" stroke="#bfbfbf" points="720.5,-72.5 720.5,-93.5 769.5,-93.5 769.5,-72.5 720.5,-72.5"/>
<text text-anchor="middle" x="745" y="-80.5" font-family="Helvetica,sans-Serif" font-size="10.00">cstddef</text>
</g>
<!-- Node26&#45;&gt;Node27 -->
<g id="edge54" class="edge"><title>Node26&#45;&gt;Node27</title>
<path fill="none" stroke="midnightblue" d="M749.9,-130.362C749.13,-122.922 748.077,-112.743 747.144,-103.728"/>
<polygon fill="midnightblue" stroke="midnightblue" points="750.604,-103.157 746.094,-93.5707 743.641,-103.878 750.604,-103.157"/>
</g>
<!-- Node26&#45;&gt;Node28 -->
<g id="edge56" class="edge"><title>Node26&#45;&gt;Node28</title>
<path fill="none" stroke="midnightblue" d="M762.372,-130.362C771.286,-122.023 783.879,-110.242 794.276,-100.516"/>
<polygon fill="midnightblue" stroke="midnightblue" points="796.789,-102.958 801.7,-93.5707 792.007,-97.8463 796.789,-102.958"/>
</g>
<!-- Node26&#45;&gt;Node29 -->
<g id="edge58" class="edge"><title>Node26&#45;&gt;Node29</title>
<path fill="none" stroke="midnightblue" d="M777.439,-130.497C800.756,-121.234 834.95,-107.65 860.804,-97.3793"/>
<polygon fill="midnightblue" stroke="midnightblue" points="862.263,-100.566 870.264,-93.6212 859.678,-94.0605 862.263,-100.566"/>
</g>
<!-- Node33&#45;&gt;Node4 -->
<g id="edge98" class="edge"><title>Node33&#45;&gt;Node4</title>
<path fill="none" stroke="midnightblue" d="M474.646,-268.833C559.719,-264.478 738.549,-252.526 887,-224 888.089,-223.791 889.187,-223.571 890.291,-223.343"/>
<polygon fill="midnightblue" stroke="midnightblue" points="891.352,-226.691 900.332,-221.069 889.806,-219.864 891.352,-226.691"/>
</g>
<!-- Node33&#45;&gt;Node19 -->
<g id="edge110" class="edge"><title>Node33&#45;&gt;Node19</title>
<path fill="none" stroke="midnightblue" d="M375.315,-267.758C284.898,-261.349 100.99,-245.769 82,-224 51.1703,-188.658 85.8243,-131.295 107.766,-101.813"/>
<polygon fill="midnightblue" stroke="midnightblue" points="110.752,-103.672 114.081,-93.6136 105.207,-99.4006 110.752,-103.672"/>
</g>
<!-- Node33&#45;&gt;Node20 -->
<g id="edge116" class="edge"><title>Node33&#45;&gt;Node20</title>
<path fill="none" stroke="midnightblue" d="M426.026,-260.252C427.078,-242.406 426.294,-206.77 406,-188 325.849,-113.866 234.32,-234.665 163,-152 150.99,-138.08 159.442,-117.313 168.774,-102.2"/>
<polygon fill="midnightblue" stroke="midnightblue" points="171.857,-103.886 174.522,-93.6319 166.044,-99.9858 171.857,-103.886"/>
</g>
<!-- Node33&#45;&gt;Node23 -->
<g id="edge100" class="edge"><title>Node33&#45;&gt;Node23</title>
<path fill="none" stroke="midnightblue" d="M474.71,-266.299C530.635,-260.149 623.752,-247.305 701,-224 812.268,-190.431 935.953,-127.652 990.507,-98.5491"/>
<polygon fill="midnightblue" stroke="midnightblue" points="992.413,-101.498 999.568,-93.6849 989.102,-95.3309 992.413,-101.498"/>
</g>
<!-- Node33&#45;&gt;Node27 -->
<g id="edge102" class="edge"><title>Node33&#45;&gt;Node27</title>
<path fill="none" stroke="midnightblue" d="M436.612,-260.443C465.107,-234.991 541.531,-169.44 615,-130 623.722,-125.318 675.198,-107.149 710.697,-94.822"/>
<polygon fill="midnightblue" stroke="midnightblue" points="711.935,-98.0975 720.238,-91.5162 709.643,-91.4834 711.935,-98.0975"/>
</g>
<!-- Node33&#45;&gt;Node28 -->
<g id="edge106" class="edge"><title>Node33&#45;&gt;Node28</title>
<path fill="none" stroke="midnightblue" d="M446.126,-260.478C464.675,-251.148 492.315,-237.019 516,-224 588.612,-184.086 601.705,-164.587 677,-130 695.079,-121.696 743.307,-105.531 777.17,-94.5016"/>
<polygon fill="midnightblue" stroke="midnightblue" points="778.304,-97.8134 786.736,-91.398 776.144,-91.1552 778.304,-97.8134"/>
</g>
<!-- Node33&#45;&gt;Node29 -->
<g id="edge112" class="edge"><title>Node33&#45;&gt;Node29</title>
<path fill="none" stroke="midnightblue" d="M474.774,-262.631C551.639,-248.253 702.233,-214.226 816,-152 840.705,-138.488 864.707,-116.604 880.085,-101.108"/>
<polygon fill="midnightblue" stroke="midnightblue" points="882.852,-103.282 887.298,-93.6653 877.825,-98.4103 882.852,-103.282"/>
</g>
<!-- Node34 -->
<g id="node82" class="node"><title>Node34</title>
<a xlink:href="config_8hpp.html" target="_top" xlink:title="thrill/common/config.hpp">
<polygon fill="none" stroke="black" points="90.5,-195.5 90.5,-216.5 213.5,-216.5 213.5,-195.5 90.5,-195.5"/>
<text text-anchor="middle" x="152" y="-203.5" font-family="Helvetica,sans-Serif" font-size="10.00">thrill/common/config.hpp</text>
</a>
</g>
<!-- Node33&#45;&gt;Node34 -->
<g id="edge96" class="edge"><title>Node33&#45;&gt;Node34</title>
<path fill="none" stroke="midnightblue" d="M378.159,-260.493C336.966,-251.172 275.416,-237.049 222,-224 215.53,-222.419 208.734,-220.72 202.025,-219.02"/>
<polygon fill="midnightblue" stroke="midnightblue" points="202.86,-215.621 192.306,-216.542 201.131,-222.404 202.86,-215.621"/>
</g>
<!-- Node35 -->
<g id="node87" class="node"><title>Node35</title>
<polygon fill="none" stroke="#bfbfbf" points="231,-195.5 231,-216.5 277,-216.5 277,-195.5 231,-195.5"/>
<text text-anchor="middle" x="254" y="-203.5" font-family="Helvetica,sans-Serif" font-size="10.00">cstdint</text>
</g>
<!-- Node33&#45;&gt;Node35 -->
<g id="edge104" class="edge"><title>Node33&#45;&gt;Node35</title>
<path fill="none" stroke="midnightblue" d="M387.703,-260.457C359.298,-251.936 319.506,-238.932 286,-224 284.166,-223.183 282.299,-222.294 280.434,-221.364"/>
<polygon fill="midnightblue" stroke="midnightblue" points="281.774,-218.112 271.302,-216.506 278.487,-224.292 281.774,-218.112"/>
</g>
<!-- Node36 -->
<g id="node90" class="node"><title>Node36</title>
<polygon fill="none" stroke="#bfbfbf" points="295,-195.5 295,-216.5 339,-216.5 339,-195.5 295,-195.5"/>
<text text-anchor="middle" x="317" y="-203.5" font-family="Helvetica,sans-Serif" font-size="10.00">mutex</text>
</g>
<!-- Node33&#45;&gt;Node36 -->
<g id="edge108" class="edge"><title>Node33&#45;&gt;Node36</title>
<path fill="none" stroke="midnightblue" d="M407.166,-260.267C389.709,-249.76 362.92,-233.637 343.074,-221.692"/>
<polygon fill="midnightblue" stroke="midnightblue" points="344.875,-218.692 334.502,-216.534 341.265,-224.689 344.875,-218.692"/>
</g>
<!-- Node37 -->
<g id="node94" class="node"><title>Node37</title>
<polygon fill="none" stroke="#bfbfbf" points="357,-195.5 357,-216.5 397,-216.5 397,-195.5 357,-195.5"/>
<text text-anchor="middle" x="377" y="-203.5" font-family="Helvetica,sans-Serif" font-size="10.00">utility</text>
</g>
<!-- Node33&#45;&gt;Node37 -->
<g id="edge114" class="edge"><title>Node33&#45;&gt;Node37</title>
<path fill="none" stroke="midnightblue" d="M417.074,-260.267C409.944,-250.612 399.312,-236.215 390.791,-224.675"/>
<polygon fill="midnightblue" stroke="midnightblue" points="393.535,-222.499 384.779,-216.534 387.904,-226.657 393.535,-222.499"/>
</g>
</g>
</svg>
