<?xml version="1.0" encoding="UTF-8" standalone="no"?>
<!DOCTYPE svg PUBLIC "-//W3C//DTD SVG 1.1//EN"
 "http://www.w3.org/Graphics/SVG/1.1/DTD/svg11.dtd">
<!-- Generated by graphviz version 2.36.0 (20140111.2315)
 -->
<!-- Title: thrill/mem/manager.cpp Pages: 1 -->
<svg width="1376pt" height="388pt"
 viewBox="0.00 0.00 1376.17 388.00" xmlns="http://www.w3.org/2000/svg" xmlns:xlink="http://www.w3.org/1999/xlink">
<g id="graph0" class="graph" transform="scale(1 1) rotate(0) translate(4 384)">
<title>thrill/mem/manager.cpp</title>
<!-- Node1 -->
<g id="node1" class="node"><title>Node1</title>
<polygon fill="#bfbfbf" stroke="black" points="1234.5,-360.5 1234.5,-379.5 1353.5,-379.5 1353.5,-360.5 1234.5,-360.5"/>
<text text-anchor="middle" x="1294" y="-367.5" font-family="Helvetica,sans-Serif" font-size="10.00">thrill/mem/manager.cpp</text>
</g>
<!-- Node2 -->
<g id="node2" class="node"><title>Node2</title>
<g id="a_node2"><a xlink:href="thrill_2common_2logger_8hpp.html" target="_top" xlink:title="thrill/common/logger.hpp">
<polygon fill="none" stroke="black" points="368.5,-304.5 368.5,-323.5 491.5,-323.5 491.5,-304.5 368.5,-304.5"/>
<text text-anchor="middle" x="430" y="-311.5" font-family="Helvetica,sans-Serif" font-size="10.00">thrill/common/logger.hpp</text>
</a>
</g>
</g>
<!-- Node1&#45;&gt;Node2 -->
<g id="edge1" class="edge"><title>Node1&#45;&gt;Node2</title>
<path fill="none" stroke="midnightblue" d="M1234.27,-365.267C1080.03,-355.627 668.831,-329.927 501.915,-319.495"/>
<polygon fill="midnightblue" stroke="midnightblue" points="501.955,-315.99 491.756,-318.86 501.519,-322.977 501.955,-315.99"/>
</g>
<!-- Node22 -->
<g id="node22" class="node"><title>Node22</title>
<g id="a_node22"><a xlink:href="mem_2manager_8hpp.html" target="_top" xlink:title="thrill/mem/manager.hpp">
<polygon fill="none" stroke="black" points="1237.5,-124.5 1237.5,-143.5 1356.5,-143.5 1356.5,-124.5 1237.5,-124.5"/>
<text text-anchor="middle" x="1297" y="-131.5" font-family="Helvetica,sans-Serif" font-size="10.00">thrill/mem/manager.hpp</text>
</a>
</g>
</g>
<!-- Node1&#45;&gt;Node22 -->
<g id="edge61" class="edge"><title>Node1&#45;&gt;Node22</title>
<path fill="none" stroke="midnightblue" d="M1294.11,-360.394C1294.54,-326.573 1296.14,-202.281 1296.75,-154.184"/>
<polygon fill="midnightblue" stroke="midnightblue" points="1300.26,-153.978 1296.89,-143.934 1293.26,-153.888 1300.26,-153.978"/>
</g>
<!-- Node38 -->
<g id="node38" class="node"><title>Node38</title>
<polygon fill="none" stroke="#bfbfbf" points="1322.5,-304.5 1322.5,-323.5 1365.5,-323.5 1365.5,-304.5 1322.5,-304.5"/>
<text text-anchor="middle" x="1344" y="-311.5" font-family="Helvetica,sans-Serif" font-size="10.00">cstdio</text>
</g>
<!-- Node1&#45;&gt;Node38 -->
<g id="edge62" class="edge"><title>Node1&#45;&gt;Node38</title>
<path fill="none" stroke="midnightblue" d="M1302.26,-360.083C1309.46,-352.298 1320.11,-340.801 1328.85,-331.367"/>
<polygon fill="midnightblue" stroke="midnightblue" points="1331.67,-333.467 1335.9,-323.751 1326.53,-328.711 1331.67,-333.467"/>
</g>
<!-- Node3 -->
<g id="node3" class="node"><title>Node3</title>
<g id="a_node3"><a xlink:href="allocator_8hpp.html" target="_top" xlink:title="thrill/mem/allocator.hpp">
<polygon fill="none" stroke="black" points="984,-248.5 984,-267.5 1102,-267.5 1102,-248.5 984,-248.5"/>
<text text-anchor="middle" x="1043" y="-255.5" font-family="Helvetica,sans-Serif" font-size="10.00">thrill/mem/allocator.hpp</text>
</a>
</g>
</g>
<!-- Node2&#45;&gt;Node3 -->
<g id="edge2" class="edge"><title>Node2&#45;&gt;Node3</title>
<path fill="none" stroke="midnightblue" d="M491.583,-307.575C606.491,-297.453 852.821,-275.753 973.492,-265.123"/>
<polygon fill="midnightblue" stroke="midnightblue" points="974.062,-268.586 983.717,-264.222 973.448,-261.613 974.062,-268.586"/>
</g>
<!-- Node18 -->
<g id="node18" class="node"><title>Node18</title>
<polygon fill="none" stroke="#bfbfbf" points="0,-68.5 0,-87.5 52,-87.5 52,-68.5 0,-68.5"/>
<text text-anchor="middle" x="26" y="-75.5" font-family="Helvetica,sans-Serif" font-size="10.00">sstream</text>
</g>
<!-- Node2&#45;&gt;Node18 -->
<g id="edge59" class="edge"><title>Node2&#45;&gt;Node18</title>
<path fill="none" stroke="midnightblue" d="M368.45,-313.699C305.345,-312.204 205.713,-303.597 128,-268 93.3322,-252.12 83.432,-244.196 63,-212 39.9642,-175.701 31.0446,-124.973 27.7688,-97.8575"/>
<polygon fill="midnightblue" stroke="midnightblue" points="31.2357,-97.3612 26.6857,-87.7931 24.2759,-98.1102 31.2357,-97.3612"/>
</g>
<!-- Node19 -->
<g id="node19" class="node"><title>Node19</title>
<polygon fill="none" stroke="#bfbfbf" points="102.5,-68.5 102.5,-87.5 143.5,-87.5 143.5,-68.5 102.5,-68.5"/>
<text text-anchor="middle" x="123" y="-75.5" font-family="Helvetica,sans-Serif" font-size="10.00">string</text>
</g>
<!-- Node2&#45;&gt;Node19 -->
<g id="edge60" class="edge"><title>Node2&#45;&gt;Node19</title>
<path fill="none" stroke="midnightblue" d="M368.391,-304.706C275.346,-290.776 105.979,-259.462 70,-212 60.3742,-199.302 73.6619,-132.676 78,-124 83.7502,-112.5 93.5717,-102.156 102.575,-94.2937"/>
<polygon fill="midnightblue" stroke="midnightblue" points="104.965,-96.8598 110.473,-87.809 100.523,-91.4498 104.965,-96.8598"/>
</g>
<!-- Node33 -->
<g id="node33" class="node"><title>Node33</title>
<g id="a_node33"><a xlink:href="pool_8hpp.html" target="_top" xlink:title="thrill/mem/pool.hpp">
<polygon fill="none" stroke="black" points="380.5,-248.5 380.5,-267.5 479.5,-267.5 479.5,-248.5 380.5,-248.5"/>
<text text-anchor="middle" x="430" y="-255.5" font-family="Helvetica,sans-Serif" font-size="10.00">thrill/mem/pool.hpp</text>
</a>
</g>
</g>
<!-- Node2&#45;&gt;Node33 -->
<g id="edge47" class="edge"><title>Node2&#45;&gt;Node33</title>
<path fill="none" stroke="midnightblue" d="M430,-304.083C430,-297.006 430,-286.861 430,-277.986"/>
<polygon fill="midnightblue" stroke="midnightblue" points="433.5,-277.751 430,-267.751 426.5,-277.751 433.5,-277.751"/>
</g>
<!-- Node4 -->
<g id="node4" class="node"><title>Node4</title>
<g id="a_node4"><a xlink:href="thrill_2mem_2allocator__base_8hpp.html" target="_top" xlink:title="thrill/mem/allocator\l_base.hpp">
<polygon fill="none" stroke="black" points="907.5,-181 907.5,-211 1006.5,-211 1006.5,-181 907.5,-181"/>
<text text-anchor="start" x="915.5" y="-199" font-family="Helvetica,sans-Serif" font-size="10.00">thrill/mem/allocator</text>
<text text-anchor="middle" x="957" y="-188" font-family="Helvetica,sans-Serif" font-size="10.00">_base.hpp</text>
</a>
</g>
</g>
<!-- Node3&#45;&gt;Node4 -->
<g id="edge3" class="edge"><title>Node3&#45;&gt;Node4</title>
<path fill="none" stroke="midnightblue" d="M1030.68,-248.403C1019.03,-240.277 1001.12,-227.779 985.87,-217.142"/>
<polygon fill="midnightblue" stroke="midnightblue" points="987.472,-213.992 977.268,-211.141 983.467,-219.733 987.472,-213.992"/>
</g>
<!-- Node3&#45;&gt;Node19 -->
<g id="edge44" class="edge"><title>Node3&#45;&gt;Node19</title>
<path fill="none" stroke="midnightblue" d="M983.96,-254.681C860.389,-249.429 578.242,-235.244 485,-212 450.232,-203.333 445.317,-190.309 411,-180 323.244,-153.637 291.882,-180.876 208,-144 181.063,-132.158 154.92,-110.087 138.9,-94.9784"/>
<polygon fill="midnightblue" stroke="midnightblue" points="141.112,-92.2481 131.495,-87.8029 136.241,-97.2753 141.112,-92.2481"/>
</g>
<!-- Node20 -->
<g id="node20" class="node"><title>Node20</title>
<polygon fill="none" stroke="#bfbfbf" points="162,-68.5 162,-87.5 206,-87.5 206,-68.5 162,-68.5"/>
<text text-anchor="middle" x="184" y="-75.5" font-family="Helvetica,sans-Serif" font-size="10.00">vector</text>
</g>
<!-- Node3&#45;&gt;Node20 -->
<g id="edge46" class="edge"><title>Node3&#45;&gt;Node20</title>
<path fill="none" stroke="midnightblue" d="M983.85,-248.888C798.041,-223.385 238.089,-146.379 234,-144 215.224,-133.076 201.068,-112.084 192.695,-96.9054"/>
<polygon fill="midnightblue" stroke="midnightblue" points="195.751,-95.1969 188.037,-87.9349 189.539,-98.4227 195.751,-95.1969"/>
</g>
<!-- Node3&#45;&gt;Node22 -->
<g id="edge38" class="edge"><title>Node3&#45;&gt;Node22</title>
<path fill="none" stroke="midnightblue" d="M1102.06,-250.692C1138.79,-244.784 1185.93,-233.477 1223,-212 1249.23,-196.803 1272.14,-169.609 1285.27,-151.942"/>
<polygon fill="midnightblue" stroke="midnightblue" points="1288.21,-153.846 1291.21,-143.685 1282.53,-149.758 1288.21,-153.846"/>
</g>
<!-- Node25 -->
<g id="node25" class="node"><title>Node25</title>
<polygon fill="none" stroke="#bfbfbf" points="1272.5,-68.5 1272.5,-87.5 1321.5,-87.5 1321.5,-68.5 1272.5,-68.5"/>
<text text-anchor="middle" x="1297" y="-75.5" font-family="Helvetica,sans-Serif" font-size="10.00">cassert</text>
</g>
<!-- Node3&#45;&gt;Node25 -->
<g id="edge39" class="edge"><title>Node3&#45;&gt;Node25</title>
<path fill="none" stroke="midnightblue" d="M1102.32,-250.276C1146.22,-243.941 1206.85,-232.297 1257,-212 1309.58,-190.719 1337.59,-193.657 1365,-144 1376.86,-122.512 1351.36,-103.851 1328.28,-92.1042"/>
<polygon fill="midnightblue" stroke="midnightblue" points="1329.51,-88.8134 1318.98,-87.6532 1326.48,-95.1275 1329.51,-88.8134"/>
</g>
<!-- Node28 -->
<g id="node28" class="node"><title>Node28</title>
<polygon fill="none" stroke="#bfbfbf" points="796,-68.5 796,-87.5 848,-87.5 848,-68.5 796,-68.5"/>
<text text-anchor="middle" x="822" y="-75.5" font-family="Helvetica,sans-Serif" font-size="10.00">memory</text>
</g>
<!-- Node3&#45;&gt;Node28 -->
<g id="edge42" class="edge"><title>Node3&#45;&gt;Node28</title>
<path fill="none" stroke="midnightblue" d="M993.878,-248.491C906.041,-232.162 727.866,-193.609 692,-144 686.792,-136.797 686.844,-131.241 692,-124 697.682,-116.02 749.481,-99.7841 785.949,-89.1531"/>
<polygon fill="midnightblue" stroke="midnightblue" points="787.141,-92.452 795.777,-86.3148 785.199,-85.7268 787.141,-92.452"/>
</g>
<!-- Node29 -->
<g id="node29" class="node"><title>Node29</title>
<polygon fill="none" stroke="#bfbfbf" points="874,-68.5 874,-87.5 936,-87.5 936,-68.5 874,-68.5"/>
<text text-anchor="middle" x="905" y="-75.5" font-family="Helvetica,sans-Serif" font-size="10.00">type_traits</text>
</g>
<!-- Node3&#45;&gt;Node29 -->
<g id="edge45" class="edge"><title>Node3&#45;&gt;Node29</title>
<path fill="none" stroke="midnightblue" d="M1066.52,-248.478C1118.23,-228.509 1233.76,-176.407 1189,-124 1181.17,-114.834 1023.46,-93.8799 946.516,-84.1457"/>
<polygon fill="midnightblue" stroke="midnightblue" points="946.577,-80.6259 936.218,-82.849 945.702,-87.571 946.577,-80.6259"/>
</g>
<!-- Node30 -->
<g id="node30" class="node"><title>Node30</title>
<polygon fill="none" stroke="#bfbfbf" points="1021.5,-124.5 1021.5,-143.5 1064.5,-143.5 1064.5,-124.5 1021.5,-124.5"/>
<text text-anchor="middle" x="1043" y="-131.5" font-family="Helvetica,sans-Serif" font-size="10.00">deque</text>
</g>
<!-- Node3&#45;&gt;Node30 -->
<g id="edge40" class="edge"><title>Node3&#45;&gt;Node30</title>
<path fill="none" stroke="midnightblue" d="M1043,-248.226C1043,-228.53 1043,-180.437 1043,-153.7"/>
<polygon fill="midnightblue" stroke="midnightblue" points="1046.5,-153.694 1043,-143.694 1039.5,-153.694 1046.5,-153.694"/>
</g>
<!-- Node31 -->
<g id="node31" class="node"><title>Node31</title>
<polygon fill="none" stroke="#bfbfbf" points="1082.5,-124.5 1082.5,-143.5 1127.5,-143.5 1127.5,-124.5 1082.5,-124.5"/>
<text text-anchor="middle" x="1105" y="-131.5" font-family="Helvetica,sans-Serif" font-size="10.00">iosfwd</text>
</g>
<!-- Node3&#45;&gt;Node31 -->
<g id="edge41" class="edge"><title>Node3&#45;&gt;Node31</title>
<path fill="none" stroke="midnightblue" d="M1047.46,-248.226C1057.6,-228.266 1082.57,-179.144 1096.04,-152.638"/>
<polygon fill="midnightblue" stroke="midnightblue" points="1099.17,-154.195 1100.58,-143.694 1092.93,-151.024 1099.17,-154.195"/>
</g>
<!-- Node32 -->
<g id="node32" class="node"><title>Node32</title>
<polygon fill="none" stroke="#bfbfbf" points="1145.5,-124.5 1145.5,-143.5 1180.5,-143.5 1180.5,-124.5 1145.5,-124.5"/>
<text text-anchor="middle" x="1163" y="-131.5" font-family="Helvetica,sans-Serif" font-size="10.00">new</text>
</g>
<!-- Node3&#45;&gt;Node32 -->
<g id="edge43" class="edge"><title>Node3&#45;&gt;Node32</title>
<path fill="none" stroke="midnightblue" d="M1051.66,-248.407C1060.75,-239.376 1075.43,-224.739 1088,-212 1108.76,-190.962 1132.54,-166.481 1147.66,-150.871"/>
<polygon fill="midnightblue" stroke="midnightblue" points="1150.27,-153.202 1154.71,-143.582 1145.24,-148.334 1150.27,-153.202"/>
</g>
<!-- Node5 -->
<g id="node5" class="node"><title>Node5</title>
<g id="a_node5"><a xlink:href="thrill_2common_2string_8hpp.html" target="_top" xlink:title="thrill/common/string.hpp">
<polygon fill="none" stroke="black" points="447.5,-124.5 447.5,-143.5 568.5,-143.5 568.5,-124.5 447.5,-124.5"/>
<text text-anchor="middle" x="508" y="-131.5" font-family="Helvetica,sans-Serif" font-size="10.00">thrill/common/string.hpp</text>
</a>
</g>
</g>
<!-- Node4&#45;&gt;Node5 -->
<g id="edge4" class="edge"><title>Node4&#45;&gt;Node5</title>
<path fill="none" stroke="midnightblue" d="M907.234,-188.35C827.346,-177.674 670.205,-156.676 578.703,-144.448"/>
<polygon fill="midnightblue" stroke="midnightblue" points="579.072,-140.966 568.696,-143.111 578.145,-147.905 579.072,-140.966"/>
</g>
<!-- Node4&#45;&gt;Node19 -->
<g id="edge35" class="edge"><title>Node4&#45;&gt;Node19</title>
<path fill="none" stroke="midnightblue" d="M907.33,-194.431C765.393,-192.343 360.145,-183.033 234,-144 198.906,-133.141 163.081,-109.398 141.954,-93.8136"/>
<polygon fill="midnightblue" stroke="midnightblue" points="143.936,-90.9243 133.845,-87.6952 139.72,-96.5122 143.936,-90.9243"/>
</g>
<!-- Node4&#45;&gt;Node20 -->
<g id="edge37" class="edge"><title>Node4&#45;&gt;Node20</title>
<path fill="none" stroke="midnightblue" d="M907.454,-192.029C755.526,-182.823 304.671,-154.745 275,-144 245.507,-133.32 216.996,-110.231 199.974,-94.65"/>
<polygon fill="midnightblue" stroke="midnightblue" points="202.266,-92.0005 192.587,-87.6915 197.466,-97.0959 202.266,-92.0005"/>
</g>
<!-- Node21 -->
<g id="node21" class="node"><title>Node21</title>
<g id="a_node21"><a xlink:href="malloc__tracker_8hpp.html" target="_top" xlink:title="thrill/mem/malloc_tracker.hpp">
<polygon fill="none" stroke="black" points="284.5,-124.5 284.5,-143.5 429.5,-143.5 429.5,-124.5 284.5,-124.5"/>
<text text-anchor="middle" x="357" y="-131.5" font-family="Helvetica,sans-Serif" font-size="10.00">thrill/mem/malloc_tracker.hpp</text>
</a>
</g>
</g>
<!-- Node4&#45;&gt;Node21 -->
<g id="edge20" class="edge"><title>Node4&#45;&gt;Node21</title>
<path fill="none" stroke="midnightblue" d="M907.24,-190.322C816.492,-181.746 617.766,-162.75 439.917,-144.191"/>
<polygon fill="midnightblue" stroke="midnightblue" points="440.163,-140.698 429.853,-143.139 439.435,-147.66 440.163,-140.698"/>
</g>
<!-- Node4&#45;&gt;Node22 -->
<g id="edge22" class="edge"><title>Node4&#45;&gt;Node22</title>
<path fill="none" stroke="midnightblue" d="M1006.8,-186.211C1068.43,-175.335 1173.21,-156.845 1238.58,-145.31"/>
<polygon fill="midnightblue" stroke="midnightblue" points="1239.48,-148.706 1248.71,-143.521 1238.26,-141.812 1239.48,-148.706"/>
</g>
<!-- Node24 -->
<g id="node24" class="node"><title>Node24</title>
<polygon fill="none" stroke="#bfbfbf" points="1163,-68.5 1163,-87.5 1209,-87.5 1209,-68.5 1163,-68.5"/>
<text text-anchor="middle" x="1186" y="-75.5" font-family="Helvetica,sans-Serif" font-size="10.00">atomic</text>
</g>
<!-- Node4&#45;&gt;Node24 -->
<g id="edge30" class="edge"><title>Node4&#45;&gt;Node24</title>
<path fill="none" stroke="midnightblue" d="M957.348,-180.793C958.541,-164.651 963.022,-138.653 979,-124 1004.04,-101.035 1100.77,-87.7784 1152.66,-82.1791"/>
<polygon fill="midnightblue" stroke="midnightblue" points="1153.12,-85.6496 1162.71,-81.1302 1152.4,-78.6875 1153.12,-85.6496"/>
</g>
<!-- Node4&#45;&gt;Node25 -->
<g id="edge31" class="edge"><title>Node4&#45;&gt;Node25</title>
<path fill="none" stroke="midnightblue" d="M963.727,-180.914C972.418,-164.376 989.186,-137.495 1012,-124 1033.22,-111.447 1190.39,-91.5843 1261.83,-83.0814"/>
<polygon fill="midnightblue" stroke="midnightblue" points="1262.61,-86.5142 1272.13,-81.8643 1261.78,-79.5626 1262.61,-86.5142"/>
</g>
<!-- Node26 -->
<g id="node26" class="node"><title>Node26</title>
<g id="a_node26"><a xlink:href="extlib_2tlx_2tlx_2allocator__base_8hpp.html" target="_top" xlink:title="tlx/allocator_base.hpp">
<polygon fill="none" stroke="black" points="701,-124.5 701,-143.5 813,-143.5 813,-124.5 701,-124.5"/>
<text text-anchor="middle" x="757" y="-131.5" font-family="Helvetica,sans-Serif" font-size="10.00">tlx/allocator_base.hpp</text>
</a>
</g>
</g>
<!-- Node4&#45;&gt;Node26 -->
<g id="edge26" class="edge"><title>Node4&#45;&gt;Node26</title>
<path fill="none" stroke="midnightblue" d="M910.109,-180.933C875.057,-170.417 827.741,-156.222 795.029,-146.409"/>
<polygon fill="midnightblue" stroke="midnightblue" points="795.96,-143.034 785.376,-143.513 793.948,-149.739 795.96,-143.034"/>
</g>
<!-- Node4&#45;&gt;Node29 -->
<g id="edge36" class="edge"><title>Node4&#45;&gt;Node29</title>
<path fill="none" stroke="midnightblue" d="M950.624,-180.776C941.169,-159.686 923.439,-120.132 913.085,-97.0356"/>
<polygon fill="midnightblue" stroke="midnightblue" points="916.188,-95.4004 908.903,-87.707 909.8,-98.2638 916.188,-95.4004"/>
</g>
<!-- Node4&#45;&gt;Node30 -->
<g id="edge32" class="edge"><title>Node4&#45;&gt;Node30</title>
<path fill="none" stroke="midnightblue" d="M977.381,-180.781C990.99,-171.286 1008.82,-158.843 1022.47,-149.327"/>
<polygon fill="midnightblue" stroke="midnightblue" points="1024.54,-152.148 1030.74,-143.556 1020.53,-146.407 1024.54,-152.148"/>
</g>
<!-- Node4&#45;&gt;Node31 -->
<g id="edge33" class="edge"><title>Node4&#45;&gt;Node31</title>
<path fill="none" stroke="midnightblue" d="M991.699,-180.933C1016.78,-170.765 1050.35,-157.157 1074.42,-147.396"/>
<polygon fill="midnightblue" stroke="midnightblue" points="1075.83,-150.601 1083.79,-143.6 1073.2,-144.114 1075.83,-150.601"/>
</g>
<!-- Node4&#45;&gt;Node32 -->
<g id="edge34" class="edge"><title>Node4&#45;&gt;Node32</title>
<path fill="none" stroke="midnightblue" d="M1006.56,-181.514C1040.41,-172.158 1086.48,-159.142 1135.75,-143.977"/>
<polygon fill="midnightblue" stroke="midnightblue" points="1136.8,-147.317 1145.32,-141.019 1134.73,-140.63 1136.8,-147.317"/>
</g>
<!-- Node6 -->
<g id="node6" class="node"><title>Node6</title>
<g id="a_node6"><a xlink:href="define_8hpp.html" target="_top" xlink:title="tlx/define.hpp">
<polygon fill="none" stroke="black" points="413.5,-68.5 413.5,-87.5 488.5,-87.5 488.5,-68.5 413.5,-68.5"/>
<text text-anchor="middle" x="451" y="-75.5" font-family="Helvetica,sans-Serif" font-size="10.00">tlx/define.hpp</text>
</a>
</g>
</g>
<!-- Node5&#45;&gt;Node6 -->
<g id="edge5" class="edge"><title>Node5&#45;&gt;Node6</title>
<path fill="none" stroke="midnightblue" d="M498.842,-124.324C490.499,-116.42 477.968,-104.548 467.823,-94.9377"/>
<polygon fill="midnightblue" stroke="midnightblue" points="469.991,-92.1705 460.325,-87.8339 465.177,-97.2522 469.991,-92.1705"/>
</g>
<!-- Node12 -->
<g id="node12" class="node"><title>Node12</title>
<g id="a_node12"><a xlink:href="unused_8hpp.html" target="_top" xlink:title="tlx/unused.hpp">
<polygon fill="none" stroke="black" points="507,-68.5 507,-87.5 587,-87.5 587,-68.5 507,-68.5"/>
<text text-anchor="middle" x="547" y="-75.5" font-family="Helvetica,sans-Serif" font-size="10.00">tlx/unused.hpp</text>
</a>
</g>
</g>
<!-- Node5&#45;&gt;Node12 -->
<g id="edge11" class="edge"><title>Node5&#45;&gt;Node12</title>
<path fill="none" stroke="midnightblue" d="M514.44,-124.083C519.949,-116.455 528.031,-105.264 534.765,-95.9408"/>
<polygon fill="midnightblue" stroke="midnightblue" points="537.662,-97.9071 540.68,-87.7511 531.987,-93.8087 537.662,-97.9071"/>
</g>
<!-- Node13 -->
<g id="node13" class="node"><title>Node13</title>
<polygon fill="none" stroke="#bfbfbf" points="605,-68.5 605,-87.5 643,-87.5 643,-68.5 605,-68.5"/>
<text text-anchor="middle" x="624" y="-75.5" font-family="Helvetica,sans-Serif" font-size="10.00">array</text>
</g>
<!-- Node5&#45;&gt;Node13 -->
<g id="edge12" class="edge"><title>Node5&#45;&gt;Node13</title>
<path fill="none" stroke="midnightblue" d="M526.381,-124.444C545.216,-115.675 574.731,-101.935 596.379,-91.8579"/>
<polygon fill="midnightblue" stroke="midnightblue" points="598.117,-94.9098 605.705,-87.5164 595.162,-88.5637 598.117,-94.9098"/>
</g>
<!-- Node14 -->
<g id="node14" class="node"><title>Node14</title>
<polygon fill="none" stroke="#bfbfbf" points="661.5,-68.5 661.5,-87.5 710.5,-87.5 710.5,-68.5 661.5,-68.5"/>
<text text-anchor="middle" x="686" y="-75.5" font-family="Helvetica,sans-Serif" font-size="10.00">cstdarg</text>
</g>
<!-- Node5&#45;&gt;Node14 -->
<g id="edge13" class="edge"><title>Node5&#45;&gt;Node14</title>
<path fill="none" stroke="midnightblue" d="M536.205,-124.444C567.476,-114.957 617.929,-99.6507 651.522,-89.4595"/>
<polygon fill="midnightblue" stroke="midnightblue" points="652.813,-92.7254 661.367,-86.473 650.781,-86.0269 652.813,-92.7254"/>
</g>
<!-- Node15 -->
<g id="node15" class="node"><title>Node15</title>
<polygon fill="none" stroke="#bfbfbf" points="224.5,-68.5 224.5,-87.5 269.5,-87.5 269.5,-68.5 224.5,-68.5"/>
<text text-anchor="middle" x="247" y="-75.5" font-family="Helvetica,sans-Serif" font-size="10.00">cstdlib</text>
</g>
<!-- Node5&#45;&gt;Node15 -->
<g id="edge14" class="edge"><title>Node5&#45;&gt;Node15</title>
<path fill="none" stroke="midnightblue" d="M458.616,-124.477C414.252,-116.555 347.139,-103.917 279.628,-87.9907"/>
<polygon fill="midnightblue" stroke="midnightblue" points="280.206,-84.5305 269.667,-85.6173 278.583,-91.3399 280.206,-84.5305"/>
</g>
<!-- Node16 -->
<g id="node16" class="node"><title>Node16</title>
<polygon fill="none" stroke="#bfbfbf" points="288,-68.5 288,-87.5 328,-87.5 328,-68.5 288,-68.5"/>
<text text-anchor="middle" x="308" y="-75.5" font-family="Helvetica,sans-Serif" font-size="10.00">limits</text>
</g>
<!-- Node5&#45;&gt;Node16 -->
<g id="edge15" class="edge"><title>Node5&#45;&gt;Node16</title>
<path fill="none" stroke="midnightblue" d="M473.814,-124.471C441.237,-116.24 390.591,-103.177 338.072,-88.2211"/>
<polygon fill="midnightblue" stroke="midnightblue" points="338.825,-84.7961 328.248,-85.4072 336.897,-91.5255 338.825,-84.7961"/>
</g>
<!-- Node17 -->
<g id="node17" class="node"><title>Node17</title>
<polygon fill="none" stroke="#bfbfbf" points="346.5,-68.5 346.5,-87.5 395.5,-87.5 395.5,-68.5 346.5,-68.5"/>
<text text-anchor="middle" x="371" y="-75.5" font-family="Helvetica,sans-Serif" font-size="10.00">random</text>
</g>
<!-- Node5&#45;&gt;Node17 -->
<g id="edge16" class="edge"><title>Node5&#45;&gt;Node17</title>
<path fill="none" stroke="midnightblue" d="M486.292,-124.444C463.645,-115.517 427.928,-101.439 402.248,-91.3168"/>
<polygon fill="midnightblue" stroke="midnightblue" points="403.193,-87.9273 392.606,-87.5164 400.626,-94.4397 403.193,-87.9273"/>
</g>
<!-- Node5&#45;&gt;Node18 -->
<g id="edge17" class="edge"><title>Node5&#45;&gt;Node18</title>
<path fill="none" stroke="midnightblue" d="M447.305,-125.106C444.159,-124.725 441.043,-124.354 438,-124 284.869,-106.169 246.08,-106.264 93,-88 82.9668,-86.8029 72.1043,-85.3931 62.1051,-84.049"/>
<polygon fill="midnightblue" stroke="midnightblue" points="62.4487,-80.5636 52.0682,-82.6838 61.5052,-87.4998 62.4487,-80.5636"/>
</g>
<!-- Node5&#45;&gt;Node19 -->
<g id="edge18" class="edge"><title>Node5&#45;&gt;Node19</title>
<path fill="none" stroke="midnightblue" d="M447.295,-125.187C444.151,-124.785 441.039,-124.387 438,-124 314.567,-108.269 279.665,-114.115 153.584,-87.7765"/>
<polygon fill="midnightblue" stroke="midnightblue" points="154.049,-84.2975 143.541,-85.6515 152.6,-91.1459 154.049,-84.2975"/>
</g>
<!-- Node5&#45;&gt;Node20 -->
<g id="edge19" class="edge"><title>Node5&#45;&gt;Node20</title>
<path fill="none" stroke="midnightblue" d="M447.39,-124.64C379.33,-115.097 272.079,-99.5506 216.367,-88.0164"/>
<polygon fill="midnightblue" stroke="midnightblue" points="216.775,-84.524 206.262,-85.839 215.3,-91.367 216.775,-84.524"/>
</g>
<!-- Node7 -->
<g id="node7" class="node"><title>Node7</title>
<g id="a_node7"><a xlink:href="attribute__always__inline_8hpp.html" target="_top" xlink:title="tlx/define/attribute\l_always_inline.hpp">
<polygon fill="none" stroke="black" points="173.5,-1 173.5,-31 272.5,-31 272.5,-1 173.5,-1"/>
<text text-anchor="start" x="181.5" y="-19" font-family="Helvetica,sans-Serif" font-size="10.00">tlx/define/attribute</text>
<text text-anchor="middle" x="223" y="-8" font-family="Helvetica,sans-Serif" font-size="10.00">_always_inline.hpp</text>
</a>
</g>
</g>
<!-- Node6&#45;&gt;Node7 -->
<g id="edge6" class="edge"><title>Node6&#45;&gt;Node7</title>
<path fill="none" stroke="midnightblue" d="M418.333,-68.4035C383.035,-59.1144 326.028,-44.1128 282.689,-32.7076"/>
<polygon fill="midnightblue" stroke="midnightblue" points="283.388,-29.2725 272.826,-30.1122 281.606,-36.042 283.388,-29.2725"/>
</g>
<!-- Node8 -->
<g id="node8" class="node"><title>Node8</title>
<g id="a_node8"><a xlink:href="attribute__format__printf_8hpp.html" target="_top" xlink:title="tlx/define/attribute\l_format_printf.hpp">
<polygon fill="none" stroke="black" points="290.5,-1 290.5,-31 385.5,-31 385.5,-1 290.5,-1"/>
<text text-anchor="start" x="298.5" y="-19" font-family="Helvetica,sans-Serif" font-size="10.00">tlx/define/attribute</text>
<text text-anchor="middle" x="338" y="-8" font-family="Helvetica,sans-Serif" font-size="10.00">_format_printf.hpp</text>
</a>
</g>
</g>
<!-- Node6&#45;&gt;Node8 -->
<g id="edge7" class="edge"><title>Node6&#45;&gt;Node8</title>
<path fill="none" stroke="midnightblue" d="M434.81,-68.4035C418.933,-59.9735 394.197,-46.8389 373.702,-35.957"/>
<polygon fill="midnightblue" stroke="midnightblue" points="375.105,-32.7392 364.632,-31.1408 371.823,-38.9218 375.105,-32.7392"/>
</g>
<!-- Node9 -->
<g id="node9" class="node"><title>Node9</title>
<g id="a_node9"><a xlink:href="attribute__packed_8hpp.html" target="_top" xlink:title="tlx/define/attribute\l_packed.hpp">
<polygon fill="none" stroke="black" points="403.5,-1 403.5,-31 498.5,-31 498.5,-1 403.5,-1"/>
<text text-anchor="start" x="411.5" y="-19" font-family="Helvetica,sans-Serif" font-size="10.00">tlx/define/attribute</text>
<text text-anchor="middle" x="451" y="-8" font-family="Helvetica,sans-Serif" font-size="10.00">_packed.hpp</text>
</a>
</g>
</g>
<!-- Node6&#45;&gt;Node9 -->
<g id="edge8" class="edge"><title>Node6&#45;&gt;Node9</title>
<path fill="none" stroke="midnightblue" d="M451,-68.4035C451,-61.3405 451,-50.975 451,-41.399"/>
<polygon fill="midnightblue" stroke="midnightblue" points="454.5,-41.1408 451,-31.1408 447.5,-41.1408 454.5,-41.1408"/>
</g>
<!-- Node10 -->
<g id="node10" class="node"><title>Node10</title>
<g id="a_node10"><a xlink:href="attribute__warn__unused__result_8hpp.html" target="_top" xlink:title="tlx/define/attribute\l_warn_unused_result.hpp">
<polygon fill="none" stroke="black" points="517,-1 517,-31 645,-31 645,-1 517,-1"/>
<text text-anchor="start" x="525" y="-19" font-family="Helvetica,sans-Serif" font-size="10.00">tlx/define/attribute</text>
<text text-anchor="middle" x="581" y="-8" font-family="Helvetica,sans-Serif" font-size="10.00">_warn_unused_result.hpp</text>
</a>
</g>
</g>
<!-- Node6&#45;&gt;Node10 -->
<g id="edge9" class="edge"><title>Node6&#45;&gt;Node10</title>
<path fill="none" stroke="midnightblue" d="M469.626,-68.4035C488.22,-59.8216 517.378,-46.364 541.196,-35.3711"/>
<polygon fill="midnightblue" stroke="midnightblue" points="542.749,-38.5093 550.362,-31.1408 539.815,-32.1536 542.749,-38.5093"/>
</g>
<!-- Node11 -->
<g id="node11" class="node"><title>Node11</title>
<g id="a_node11"><a xlink:href="likely_8hpp.html" target="_top" xlink:title="tlx/define/likely.hpp">
<polygon fill="none" stroke="black" points="663.5,-6.5 663.5,-25.5 764.5,-25.5 764.5,-6.5 663.5,-6.5"/>
<text text-anchor="middle" x="714" y="-13.5" font-family="Helvetica,sans-Serif" font-size="10.00">tlx/define/likely.hpp</text>
</a>
</g>
</g>
<!-- Node6&#45;&gt;Node11 -->
<g id="edge10" class="edge"><title>Node6&#45;&gt;Node11</title>
<path fill="none" stroke="midnightblue" d="M488.857,-68.9257C529.682,-60.1442 596.554,-45.5453 654,-32 659.356,-30.7371 664.972,-29.3787 670.53,-28.0136"/>
<polygon fill="midnightblue" stroke="midnightblue" points="671.536,-31.3702 680.401,-25.5685 669.853,-24.5755 671.536,-31.3702"/>
</g>
<!-- Node21&#45;&gt;Node15 -->
<g id="edge21" class="edge"><title>Node21&#45;&gt;Node15</title>
<path fill="none" stroke="midnightblue" d="M339.327,-124.324C321.606,-115.625 294.097,-102.12 273.712,-92.113"/>
<polygon fill="midnightblue" stroke="midnightblue" points="275.149,-88.9195 264.63,-87.6545 272.064,-95.2031 275.149,-88.9195"/>
</g>
<!-- Node23 -->
<g id="node23" class="node"><title>Node23</title>
<polygon fill="none" stroke="#bfbfbf" points="999,-68.5 999,-87.5 1055,-87.5 1055,-68.5 999,-68.5"/>
<text text-anchor="middle" x="1027" y="-75.5" font-family="Helvetica,sans-Serif" font-size="10.00">algorithm</text>
</g>
<!-- Node22&#45;&gt;Node23 -->
<g id="edge23" class="edge"><title>Node22&#45;&gt;Node23</title>
<path fill="none" stroke="midnightblue" d="M1254.22,-124.444C1202.16,-114.032 1115.06,-96.6112 1065.17,-86.635"/>
<polygon fill="midnightblue" stroke="midnightblue" points="1065.61,-83.1536 1055.12,-84.6243 1064.24,-90.0176 1065.61,-83.1536"/>
</g>
<!-- Node22&#45;&gt;Node24 -->
<g id="edge24" class="edge"><title>Node22&#45;&gt;Node24</title>
<path fill="none" stroke="midnightblue" d="M1279.17,-124.324C1261.28,-115.625 1233.52,-102.12 1212.95,-92.113"/>
<polygon fill="midnightblue" stroke="midnightblue" points="1214.31,-88.8819 1203.79,-87.6545 1211.25,-95.1765 1214.31,-88.8819"/>
</g>
<!-- Node22&#45;&gt;Node25 -->
<g id="edge25" class="edge"><title>Node22&#45;&gt;Node25</title>
<path fill="none" stroke="midnightblue" d="M1297,-124.083C1297,-117.006 1297,-106.861 1297,-97.9865"/>
<polygon fill="midnightblue" stroke="midnightblue" points="1300.5,-97.751 1297,-87.7511 1293.5,-97.7511 1300.5,-97.751"/>
</g>
<!-- Node27 -->
<g id="node27" class="node"><title>Node27</title>
<polygon fill="none" stroke="#bfbfbf" points="728.5,-68.5 728.5,-87.5 777.5,-87.5 777.5,-68.5 728.5,-68.5"/>
<text text-anchor="middle" x="753" y="-75.5" font-family="Helvetica,sans-Serif" font-size="10.00">cstddef</text>
</g>
<!-- Node26&#45;&gt;Node27 -->
<g id="edge27" class="edge"><title>Node26&#45;&gt;Node27</title>
<path fill="none" stroke="midnightblue" d="M756.339,-124.083C755.815,-117.006 755.064,-106.861 754.406,-97.9865"/>
<polygon fill="midnightblue" stroke="midnightblue" points="757.877,-97.4652 753.648,-87.7511 750.897,-97.9823 757.877,-97.4652"/>
</g>
<!-- Node26&#45;&gt;Node28 -->
<g id="edge28" class="edge"><title>Node26&#45;&gt;Node28</title>
<path fill="none" stroke="midnightblue" d="M767.443,-124.324C777.146,-116.263 791.815,-104.077 803.5,-94.3695"/>
<polygon fill="midnightblue" stroke="midnightblue" points="805.911,-96.9163 811.367,-87.8339 801.438,-91.532 805.911,-96.9163"/>
</g>
<!-- Node26&#45;&gt;Node29 -->
<g id="edge29" class="edge"><title>Node26&#45;&gt;Node29</title>
<path fill="none" stroke="midnightblue" d="M780.451,-124.444C805.133,-115.438 844.185,-101.189 871.977,-91.049"/>
<polygon fill="midnightblue" stroke="midnightblue" points="873.464,-94.2321 881.659,-87.5164 871.065,-87.6561 873.464,-94.2321"/>
</g>
<!-- Node33&#45;&gt;Node4 -->
<g id="edge49" class="edge"><title>Node33&#45;&gt;Node4</title>
<path fill="none" stroke="midnightblue" d="M479.618,-254.354C564.672,-249.335 743.594,-236.656 893,-212 894.298,-211.786 895.61,-211.56 896.93,-211.325"/>
<polygon fill="midnightblue" stroke="midnightblue" points="898.008,-214.682 907.168,-209.357 896.687,-207.808 898.008,-214.682"/>
</g>
<!-- Node33&#45;&gt;Node19 -->
<g id="edge55" class="edge"><title>Node33&#45;&gt;Node19</title>
<path fill="none" stroke="midnightblue" d="M380.39,-254.099C289.589,-248.281 104.18,-233.844 85,-212 55.5329,-178.44 88.9347,-123.449 109.412,-95.876"/>
<polygon fill="midnightblue" stroke="midnightblue" points="112.421,-97.7049 115.752,-87.6471 106.876,-93.4328 112.421,-97.7049"/>
</g>
<!-- Node33&#45;&gt;Node20 -->
<g id="edge58" class="edge"><title>Node33&#45;&gt;Node20</title>
<path fill="none" stroke="midnightblue" d="M430.7,-248.302C431.472,-232.2 430.569,-197.775 411,-180 329.532,-106.002 237.944,-227.288 166,-144 154.447,-130.625 162.774,-110.426 171.556,-96.0994"/>
<polygon fill="midnightblue" stroke="midnightblue" points="174.546,-97.9238 177.187,-87.6635 168.724,-94.0372 174.546,-97.9238"/>
</g>
<!-- Node33&#45;&gt;Node23 -->
<g id="edge50" class="edge"><title>Node33&#45;&gt;Node23</title>
<path fill="none" stroke="midnightblue" d="M479.557,-252.24C534.828,-246.149 626.52,-233.698 703,-212 817.543,-179.503 946.419,-118.907 1000.69,-92.2093"/>
<polygon fill="midnightblue" stroke="midnightblue" points="1002.52,-95.2063 1009.93,-87.6332 999.417,-88.9328 1002.52,-95.2063"/>
</g>
<!-- Node33&#45;&gt;Node27 -->
<g id="edge51" class="edge"><title>Node33&#45;&gt;Node27</title>
<path fill="none" stroke="midnightblue" d="M440.111,-248.398C467.549,-225.414 546.367,-161.762 621,-124 638.278,-115.258 685.497,-99.8724 718.497,-89.5582"/>
<polygon fill="midnightblue" stroke="midnightblue" points="719.721,-92.8428 728.233,-86.533 717.644,-86.158 719.721,-92.8428"/>
</g>
<!-- Node33&#45;&gt;Node28 -->
<g id="edge53" class="edge"><title>Node33&#45;&gt;Node28</title>
<path fill="none" stroke="midnightblue" d="M448.088,-248.417C466.717,-239.515 496.542,-225.091 522,-212 595.214,-174.35 609.371,-156.53 685,-124 718.489,-109.596 758.206,-97.0184 786.231,-88.8501"/>
<polygon fill="midnightblue" stroke="midnightblue" points="787.349,-92.1705 795.994,-86.045 785.416,-85.4427 787.349,-92.1705"/>
</g>
<!-- Node33&#45;&gt;Node29 -->
<g id="edge56" class="edge"><title>Node33&#45;&gt;Node29</title>
<path fill="none" stroke="midnightblue" d="M479.752,-248.845C556.268,-234.96 706.026,-202.396 821,-144 846.76,-130.916 872.455,-109.498 888.514,-94.8498"/>
<polygon fill="midnightblue" stroke="midnightblue" points="891.055,-97.2658 895.983,-87.8866 886.282,-92.1458 891.055,-97.2658"/>
</g>
<!-- Node34 -->
<g id="node34" class="node"><title>Node34</title>
<g id="a_node34"><a xlink:href="config_8hpp.html" target="_top" xlink:title="thrill/common/config.hpp">
<polygon fill="none" stroke="black" points="94.5,-186.5 94.5,-205.5 217.5,-205.5 217.5,-186.5 94.5,-186.5"/>
<text text-anchor="middle" x="156" y="-193.5" font-family="Helvetica,sans-Serif" font-size="10.00">thrill/common/config.hpp</text>
</a>
</g>
</g>
<!-- Node33&#45;&gt;Node34 -->
<g id="edge48" class="edge"><title>Node33&#45;&gt;Node34</title>
<path fill="none" stroke="midnightblue" d="M391.033,-248.467C342.037,-237.738 257.908,-219.316 204.714,-207.667"/>
<polygon fill="midnightblue" stroke="midnightblue" points="205.349,-204.224 194.832,-205.503 203.852,-211.062 205.349,-204.224"/>
</g>
<!-- Node35 -->
<g id="node35" class="node"><title>Node35</title>
<polygon fill="none" stroke="#bfbfbf" points="236,-186.5 236,-205.5 282,-205.5 282,-186.5 236,-186.5"/>
<text text-anchor="middle" x="259" y="-193.5" font-family="Helvetica,sans-Serif" font-size="10.00">cstdint</text>
</g>
<!-- Node33&#45;&gt;Node35 -->
<g id="edge52" class="edge"><title>Node33&#45;&gt;Node35</title>
<path fill="none" stroke="midnightblue" d="M400.064,-248.492C371.653,-240.14 327.927,-226.566 291,-212 289.352,-211.35 287.669,-210.656 285.979,-209.935"/>
<polygon fill="midnightblue" stroke="midnightblue" points="286.989,-206.553 276.432,-205.654 284.124,-212.94 286.989,-206.553"/>
</g>
<!-- Node36 -->
<g id="node36" class="node"><title>Node36</title>
<polygon fill="none" stroke="#bfbfbf" points="300,-186.5 300,-205.5 344,-205.5 344,-186.5 300,-186.5"/>
<text text-anchor="middle" x="322" y="-193.5" font-family="Helvetica,sans-Serif" font-size="10.00">mutex</text>
</g>
<!-- Node33&#45;&gt;Node36 -->
<g id="edge54" class="edge"><title>Node33&#45;&gt;Node36</title>
<path fill="none" stroke="midnightblue" d="M414.526,-248.403C396.722,-238.512 367.259,-222.144 346.368,-210.538"/>
<polygon fill="midnightblue" stroke="midnightblue" points="347.886,-207.378 337.445,-205.581 344.487,-213.497 347.886,-207.378"/>
</g>
<!-- Node37 -->
<g id="node37" class="node"><title>Node37</title>
<polygon fill="none" stroke="#bfbfbf" points="362,-186.5 362,-205.5 402,-205.5 402,-186.5 362,-186.5"/>
<text text-anchor="middle" x="382" y="-193.5" font-family="Helvetica,sans-Serif" font-size="10.00">utility</text>
</g>
<!-- Node33&#45;&gt;Node37 -->
<g id="edge57" class="edge"><title>Node33&#45;&gt;Node37</title>
<path fill="none" stroke="midnightblue" d="M423.123,-248.403C415.851,-239.314 404.205,-224.756 395.159,-213.449"/>
<polygon fill="midnightblue" stroke="midnightblue" points="397.845,-211.203 388.864,-205.581 392.378,-215.576 397.845,-211.203"/>
</g>
</g>
</svg>
