<?xml version="1.0" encoding="UTF-8" standalone="no"?>
<!DOCTYPE svg PUBLIC "-//W3C//DTD SVG 1.1//EN"
 "http://www.w3.org/Graphics/SVG/1.1/DTD/svg11.dtd">
<!-- Generated by graphviz version 2.40.1 (20161225.0304)
 -->
<!-- Title: thrill/api/max.hpp Pages: 1 -->
<svg width="1258pt" height="162pt"
 viewBox="0.00 0.00 1258.00 162.00" xmlns="http://www.w3.org/2000/svg" xmlns:xlink="http://www.w3.org/1999/xlink">
<g id="graph0" class="graph" transform="scale(1 1) rotate(0) translate(4 158)">
<title>thrill/api/max.hpp</title>
<!-- Node201 -->
<g id="node1" class="node">
<title>Node201</title>
<polygon fill="#bfbfbf" stroke="#000000" points="428.5,-134.5 428.5,-153.5 531.5,-153.5 531.5,-134.5 428.5,-134.5"/>
<text text-anchor="middle" x="480" y="-141.5" font-family="Helvetica,sans-Serif" font-size="10.00" fill="#000000">thrill/api/max.hpp</text>
</g>
<!-- Node202 -->
<g id="node2" class="node">
<title>Node202</title>
<g id="a_node2"><a xlink:href="thrill_8hpp.html" target="_top" xlink:title="thrill/thrill.hpp">
<polygon fill="none" stroke="#000000" points="0,-73 0,-92 86,-92 86,-73 0,-73"/>
<text text-anchor="middle" x="43" y="-80" font-family="Helvetica,sans-Serif" font-size="10.00" fill="#000000">thrill/thrill.hpp</text>
</a>
</g>
</g>
<!-- Node201&#45;&gt;Node202 -->
<g id="edge1" class="edge">
<title>Node201&#45;&gt;Node202</title>
<path fill="none" stroke="#191970" d="M418.0769,-139.8737C341.5663,-134.0269 207.6888,-121.3486 95,-98 87.436,-96.4328 79.3825,-94.2793 71.9291,-92.0758"/>
<polygon fill="#191970" stroke="#191970" points="418.2503,-143.3964 428.4839,-140.6537 418.7735,-136.416 418.2503,-143.3964"/>
</g>
<!-- Node203 -->
<g id="node3" class="node">
<title>Node203</title>
<g id="a_node3"><a xlink:href="page__rank__run_8cpp.html" target="_top" xlink:title="examples/page_rank\l/page_rank_run.cpp">
<polygon fill="none" stroke="#000000" points="104.5,-67.5 104.5,-97.5 223.5,-97.5 223.5,-67.5 104.5,-67.5"/>
<text text-anchor="start" x="112.5" y="-85.5" font-family="Helvetica,sans-Serif" font-size="10.00" fill="#000000">examples/page_rank</text>
<text text-anchor="middle" x="164" y="-74.5" font-family="Helvetica,sans-Serif" font-size="10.00" fill="#000000">/page_rank_run.cpp</text>
</a>
</g>
</g>
<!-- Node201&#45;&gt;Node203 -->
<g id="edge2" class="edge">
<title>Node201&#45;&gt;Node203</title>
<path fill="none" stroke="#191970" d="M418.3776,-132.6142C369.4339,-123.492 299.274,-110.2397 238,-98 233.3662,-97.0744 228.5722,-96.1026 223.7548,-95.1159"/>
<polygon fill="#191970" stroke="#191970" points="418.0171,-136.1072 428.4887,-134.4962 419.2981,-129.2254 418.0171,-136.1072"/>
</g>
<!-- Node204 -->
<g id="node4" class="node">
<title>Node204</title>
<g id="a_node4"><a xlink:href="check__sa_8hpp.html" target="_top" xlink:title="examples/suffix_sorting\l/check_sa.hpp">
<polygon fill="none" stroke="#000000" points="318,-67.5 318,-97.5 452,-97.5 452,-67.5 318,-67.5"/>
<text text-anchor="start" x="326" y="-85.5" font-family="Helvetica,sans-Serif" font-size="10.00" fill="#000000">examples/suffix_sorting</text>
<text text-anchor="middle" x="385" y="-74.5" font-family="Helvetica,sans-Serif" font-size="10.00" fill="#000000">/check_sa.hpp</text>
</a>
</g>
</g>
<!-- Node201&#45;&gt;Node204 -->
<g id="edge3" class="edge">
<title>Node201&#45;&gt;Node204</title>
<path fill="none" stroke="#191970" d="M456.6045,-128.8545C441.8753,-119.3193 422.9389,-107.0605 408.2396,-97.5446"/>
<polygon fill="#191970" stroke="#191970" points="454.8597,-131.8943 465.1563,-134.3906 458.6638,-126.0181 454.8597,-131.8943"/>
</g>
<!-- Node205 -->
<g id="node5" class="node">
<title>Node205</title>
<g id="a_node5"><a xlink:href="dc3_8cpp.html" target="_top" xlink:title="examples/suffix_sorting\l/dc3.cpp">
<polygon fill="none" stroke="#000000" points="52,-.5 52,-30.5 186,-30.5 186,-.5 52,-.5"/>
<text text-anchor="start" x="60" y="-18.5" font-family="Helvetica,sans-Serif" font-size="10.00" fill="#000000">examples/suffix_sorting</text>
<text text-anchor="middle" x="119" y="-7.5" font-family="Helvetica,sans-Serif" font-size="10.00" fill="#000000">/dc3.cpp</text>
</a>
</g>
</g>
<!-- Node201&#45;&gt;Node205 -->
<g id="edge16" class="edge">
<title>Node201&#45;&gt;Node205</title>
<path fill="none" stroke="#191970" d="M418.3386,-134.548C378.9735,-127.3029 327.3752,-115.5289 284,-98 259.0537,-87.9187 255.8333,-79.487 232,-67 206.6009,-53.6927 177.0929,-40.312 154.601,-30.526"/>
<polygon fill="#191970" stroke="#191970" points="417.8665,-138.0191 428.3271,-136.3379 419.1012,-131.1288 417.8665,-138.0191"/>
</g>
<!-- Node206 -->
<g id="node6" class="node">
<title>Node206</title>
<g id="a_node6"><a xlink:href="dc7_8cpp.html" target="_top" xlink:title="examples/suffix_sorting\l/dc7.cpp">
<polygon fill="none" stroke="#000000" points="204,-.5 204,-30.5 338,-30.5 338,-.5 204,-.5"/>
<text text-anchor="start" x="212" y="-18.5" font-family="Helvetica,sans-Serif" font-size="10.00" fill="#000000">examples/suffix_sorting</text>
<text text-anchor="middle" x="271" y="-7.5" font-family="Helvetica,sans-Serif" font-size="10.00" fill="#000000">/dc7.cpp</text>
</a>
</g>
</g>
<!-- Node201&#45;&gt;Node206 -->
<g id="edge17" class="edge">
<title>Node201&#45;&gt;Node206</title>
<path fill="none" stroke="#191970" d="M418.4902,-133.1526C376.5463,-124.7104 325.6935,-112.0885 309,-98 288.2721,-80.5067 278.2435,-49.2782 273.8939,-30.6679"/>
<polygon fill="#191970" stroke="#191970" points="417.8961,-136.6027 428.384,-135.101 419.2487,-129.7347 417.8961,-136.6027"/>
</g>
<!-- Node208 -->
<g id="node8" class="node">
<title>Node208</title>
<g id="a_node8"><a xlink:href="prefix__quadrupling_8cpp.html" target="_top" xlink:title="examples/suffix_sorting\l/prefix_quadrupling.cpp">
<polygon fill="none" stroke="#000000" points="508,-.5 508,-30.5 642,-30.5 642,-.5 508,-.5"/>
<text text-anchor="start" x="516" y="-18.5" font-family="Helvetica,sans-Serif" font-size="10.00" fill="#000000">examples/suffix_sorting</text>
<text text-anchor="middle" x="575" y="-7.5" font-family="Helvetica,sans-Serif" font-size="10.00" fill="#000000">/prefix_quadrupling.cpp</text>
</a>
</g>
</g>
<!-- Node201&#45;&gt;Node208 -->
<g id="edge18" class="edge">
<title>Node201&#45;&gt;Node208</title>
<path fill="none" stroke="#191970" d="M481.0188,-123.8778C482.7287,-107.312 487.2317,-83.8889 499,-67 509.8434,-51.4385 527.0278,-39.2163 542.3152,-30.5913"/>
<polygon fill="#191970" stroke="#191970" points="477.5108,-123.8454 480.2262,-134.0863 484.4898,-124.3873 477.5108,-123.8454"/>
</g>
<!-- Node210 -->
<g id="node10" class="node">
<title>Node210</title>
<g id="a_node10"><a xlink:href="construct__bwt_8hpp.html" target="_top" xlink:title="examples/suffix_sorting\l/construct_bwt.hpp">
<polygon fill="none" stroke="#000000" points="660,-67.5 660,-97.5 794,-97.5 794,-67.5 660,-67.5"/>
<text text-anchor="start" x="668" y="-85.5" font-family="Helvetica,sans-Serif" font-size="10.00" fill="#000000">examples/suffix_sorting</text>
<text text-anchor="middle" x="727" y="-74.5" font-family="Helvetica,sans-Serif" font-size="10.00" fill="#000000">/construct_bwt.hpp</text>
</a>
</g>
</g>
<!-- Node201&#45;&gt;Node210 -->
<g id="edge9" class="edge">
<title>Node201&#45;&gt;Node210</title>
<path fill="none" stroke="#191970" d="M528.2457,-131.9874C567.7659,-122.1473 623.9022,-108.1701 666.4411,-97.5784"/>
<polygon fill="#191970" stroke="#191970" points="527.1808,-128.6456 518.3227,-134.4581 528.8721,-135.4382 527.1808,-128.6456"/>
</g>
<!-- Node211 -->
<g id="node11" class="node">
<title>Node211</title>
<g id="a_node11"><a xlink:href="construct__lcp_8hpp.html" target="_top" xlink:title="examples/suffix_sorting\l/construct_lcp.hpp">
<polygon fill="none" stroke="#000000" points="508,-67.5 508,-97.5 642,-97.5 642,-67.5 508,-67.5"/>
<text text-anchor="start" x="516" y="-85.5" font-family="Helvetica,sans-Serif" font-size="10.00" fill="#000000">examples/suffix_sorting</text>
<text text-anchor="middle" x="575" y="-74.5" font-family="Helvetica,sans-Serif" font-size="10.00" fill="#000000">/construct_lcp.hpp</text>
</a>
</g>
</g>
<!-- Node201&#45;&gt;Node211 -->
<g id="edge11" class="edge">
<title>Node201&#45;&gt;Node211</title>
<path fill="none" stroke="#191970" d="M503.3955,-128.8545C518.1247,-119.3193 537.0611,-107.0605 551.7604,-97.5446"/>
<polygon fill="#191970" stroke="#191970" points="501.3362,-126.0181 494.8438,-134.3906 505.1403,-131.8943 501.3362,-126.0181"/>
</g>
<!-- Node212 -->
<g id="node12" class="node">
<title>Node212</title>
<g id="a_node12"><a xlink:href="construct__wt_8hpp.html" target="_top" xlink:title="examples/suffix_sorting\l/construct_wt.hpp">
<polygon fill="none" stroke="#000000" points="812,-67.5 812,-97.5 946,-97.5 946,-67.5 812,-67.5"/>
<text text-anchor="start" x="820" y="-85.5" font-family="Helvetica,sans-Serif" font-size="10.00" fill="#000000">examples/suffix_sorting</text>
<text text-anchor="middle" x="879" y="-74.5" font-family="Helvetica,sans-Serif" font-size="10.00" fill="#000000">/construct_wt.hpp</text>
</a>
</g>
</g>
<!-- Node201&#45;&gt;Node212 -->
<g id="edge13" class="edge">
<title>Node201&#45;&gt;Node212</title>
<path fill="none" stroke="#191970" d="M541.7125,-136.3252C606.8427,-127.9652 712.4064,-113.6747 803,-98 805.9192,-97.4949 808.8979,-96.9622 811.9043,-96.4103"/>
<polygon fill="#191970" stroke="#191970" points="541.091,-132.8761 531.6152,-137.6154 541.9782,-139.8197 541.091,-132.8761"/>
</g>
<!-- Node214 -->
<g id="node14" class="node">
<title>Node214</title>
<g id="a_node14"><a xlink:href="wavelet__tree_8cpp.html" target="_top" xlink:title="examples/suffix_sorting\l/wavelet_tree.cpp">
<polygon fill="none" stroke="#000000" points="964,-67.5 964,-97.5 1098,-97.5 1098,-67.5 964,-67.5"/>
<text text-anchor="start" x="972" y="-85.5" font-family="Helvetica,sans-Serif" font-size="10.00" fill="#000000">examples/suffix_sorting</text>
<text text-anchor="middle" x="1031" y="-74.5" font-family="Helvetica,sans-Serif" font-size="10.00" fill="#000000">/wavelet_tree.cpp</text>
</a>
</g>
</g>
<!-- Node201&#45;&gt;Node214 -->
<g id="edge19" class="edge">
<title>Node201&#45;&gt;Node214</title>
<path fill="none" stroke="#191970" d="M541.6486,-140.0991C632.4818,-133.8839 807.4678,-120.126 955,-98 957.9298,-97.5606 960.9173,-97.0823 963.9309,-96.5749"/>
<polygon fill="#191970" stroke="#191970" points="541.2687,-136.6167 531.528,-140.7841 541.7415,-143.6007 541.2687,-136.6167"/>
</g>
<!-- Node215 -->
<g id="node15" class="node">
<title>Node215</title>
<g id="a_node15"><a xlink:href="wavelet__tree2_8cpp.html" target="_top" xlink:title="examples/suffix_sorting\l/wavelet_tree2.cpp">
<polygon fill="none" stroke="#000000" points="1116,-67.5 1116,-97.5 1250,-97.5 1250,-67.5 1116,-67.5"/>
<text text-anchor="start" x="1124" y="-85.5" font-family="Helvetica,sans-Serif" font-size="10.00" fill="#000000">examples/suffix_sorting</text>
<text text-anchor="middle" x="1183" y="-74.5" font-family="Helvetica,sans-Serif" font-size="10.00" fill="#000000">/wavelet_tree2.cpp</text>
</a>
</g>
</g>
<!-- Node201&#45;&gt;Node215 -->
<g id="edge20" class="edge">
<title>Node201&#45;&gt;Node215</title>
<path fill="none" stroke="#191970" d="M542.0227,-142.0801C654.8978,-138.0024 901.2364,-126.4116 1107,-98 1109.9347,-97.5948 1112.9263,-97.1447 1115.9433,-96.6606"/>
<polygon fill="#191970" stroke="#191970" points="541.7167,-138.5886 531.8468,-142.4403 541.9644,-145.5842 541.7167,-138.5886"/>
</g>
<!-- Node204&#45;&gt;Node205 -->
<g id="edge4" class="edge">
<title>Node204&#45;&gt;Node205</title>
<path fill="none" stroke="#191970" d="M315.3437,-64.955C272.979,-54.2842 219.4271,-40.7955 178.956,-30.6017"/>
<polygon fill="#191970" stroke="#191970" points="314.7524,-68.4153 325.3044,-67.4639 316.4622,-61.6273 314.7524,-68.4153"/>
</g>
<!-- Node204&#45;&gt;Node206 -->
<g id="edge5" class="edge">
<title>Node204&#45;&gt;Node206</title>
<path fill="none" stroke="#191970" d="M350.7253,-62.3561C333.4439,-52.1995 312.83,-40.0843 296.8929,-30.7177"/>
<polygon fill="#191970" stroke="#191970" points="349.0214,-65.4144 359.4162,-67.4639 352.5683,-59.3795 349.0214,-65.4144"/>
</g>
<!-- Node207 -->
<g id="node7" class="node">
<title>Node207</title>
<g id="a_node7"><a xlink:href="prefix__doubling_8cpp.html" target="_top" xlink:title="examples/suffix_sorting\l/prefix_doubling.cpp">
<polygon fill="none" stroke="#000000" points="356,-.5 356,-30.5 490,-30.5 490,-.5 356,-.5"/>
<text text-anchor="start" x="364" y="-18.5" font-family="Helvetica,sans-Serif" font-size="10.00" fill="#000000">examples/suffix_sorting</text>
<text text-anchor="middle" x="423" y="-7.5" font-family="Helvetica,sans-Serif" font-size="10.00" fill="#000000">/prefix_doubling.cpp</text>
</a>
</g>
</g>
<!-- Node204&#45;&gt;Node207 -->
<g id="edge6" class="edge">
<title>Node204&#45;&gt;Node207</title>
<path fill="none" stroke="#191970" d="M398.6212,-58.4837C403.8868,-49.1996 409.753,-38.8565 414.4113,-30.6432"/>
<polygon fill="#191970" stroke="#191970" points="395.5118,-56.8716 393.6228,-67.2967 401.6007,-60.325 395.5118,-56.8716"/>
</g>
<!-- Node204&#45;&gt;Node208 -->
<g id="edge7" class="edge">
<title>Node204&#45;&gt;Node208</title>
<path fill="none" stroke="#191970" d="M437.4563,-64.0023C467.2664,-53.4903 504.1202,-40.4945 532.1743,-30.6017"/>
<polygon fill="#191970" stroke="#191970" points="435.9065,-60.8374 427.6397,-67.4639 438.2345,-67.439 435.9065,-60.8374"/>
</g>
<!-- Node209 -->
<g id="node9" class="node">
<title>Node209</title>
<g id="a_node9"><a xlink:href="suffix__sorting_8cpp.html" target="_top" xlink:title="examples/suffix_sorting\l/suffix_sorting.cpp">
<polygon fill="none" stroke="#000000" points="660,-.5 660,-30.5 794,-30.5 794,-.5 660,-.5"/>
<text text-anchor="start" x="668" y="-18.5" font-family="Helvetica,sans-Serif" font-size="10.00" fill="#000000">examples/suffix_sorting</text>
<text text-anchor="middle" x="727" y="-7.5" font-family="Helvetica,sans-Serif" font-size="10.00" fill="#000000">/suffix_sorting.cpp</text>
</a>
</g>
</g>
<!-- Node204&#45;&gt;Node209 -->
<g id="edge8" class="edge">
<title>Node204&#45;&gt;Node209</title>
<path fill="none" stroke="#191970" d="M462.2931,-67.7457C515.3983,-57.5569 587.5037,-43.6213 651,-31 653.9057,-30.4224 656.8732,-29.8297 659.8706,-29.2286"/>
<polygon fill="#191970" stroke="#191970" points="461.4314,-64.347 452.2695,-69.6676 462.7497,-71.2218 461.4314,-64.347"/>
</g>
<!-- Node210&#45;&gt;Node209 -->
<g id="edge10" class="edge">
<title>Node210&#45;&gt;Node209</title>
<path fill="none" stroke="#191970" d="M727,-57.0249C727,-48.128 727,-38.4287 727,-30.6432"/>
<polygon fill="#191970" stroke="#191970" points="723.5001,-57.2966 727,-67.2967 730.5001,-57.2967 723.5001,-57.2966"/>
</g>
<!-- Node211&#45;&gt;Node209 -->
<g id="edge12" class="edge">
<title>Node211&#45;&gt;Node209</title>
<path fill="none" stroke="#191970" d="M618.5282,-63.3132C642.0917,-52.9267 670.784,-40.2794 692.7395,-30.6017"/>
<polygon fill="#191970" stroke="#191970" points="616.8505,-60.2277 609.1118,-67.4639 619.674,-66.6331 616.8505,-60.2277"/>
</g>
<!-- Node212&#45;&gt;Node209 -->
<g id="edge14" class="edge">
<title>Node212&#45;&gt;Node209</title>
<path fill="none" stroke="#191970" d="M835.4718,-63.3132C811.9083,-52.9267 783.216,-40.2794 761.2605,-30.6017"/>
<polygon fill="#191970" stroke="#191970" points="834.326,-66.6331 844.8882,-67.4639 837.1495,-60.2277 834.326,-66.6331"/>
</g>
<!-- Node213 -->
<g id="node13" class="node">
<title>Node213</title>
<g id="a_node13"><a xlink:href="wavelet__tree3_8cpp.html" target="_top" xlink:title="examples/suffix_sorting\l/wavelet_tree3.cpp">
<polygon fill="none" stroke="#000000" points="812,-.5 812,-30.5 946,-30.5 946,-.5 812,-.5"/>
<text text-anchor="start" x="820" y="-18.5" font-family="Helvetica,sans-Serif" font-size="10.00" fill="#000000">examples/suffix_sorting</text>
<text text-anchor="middle" x="879" y="-7.5" font-family="Helvetica,sans-Serif" font-size="10.00" fill="#000000">/wavelet_tree3.cpp</text>
</a>
</g>
</g>
<!-- Node212&#45;&gt;Node213 -->
<g id="edge15" class="edge">
<title>Node212&#45;&gt;Node213</title>
<path fill="none" stroke="#191970" d="M879,-57.0249C879,-48.128 879,-38.4287 879,-30.6432"/>
<polygon fill="#191970" stroke="#191970" points="875.5001,-57.2966 879,-67.2967 882.5001,-57.2967 875.5001,-57.2966"/>
</g>
</g>
</svg>
