<?xml version="1.0" encoding="UTF-8" standalone="no"?>
<!DOCTYPE svg PUBLIC "-//W3C//DTD SVG 1.1//EN"
 "http://www.w3.org/Graphics/SVG/1.1/DTD/svg11.dtd">
<!-- Generated by graphviz version 2.36.0 (20140111.2315)
 -->
<!-- Title: thrill/io/memory_file.hpp Pages: 1 -->
<svg width="258pt" height="84pt"
 viewBox="0.00 0.00 258.00 84.00" xmlns="http://www.w3.org/2000/svg" xmlns:xlink="http://www.w3.org/1999/xlink">
<g id="graph0" class="graph" transform="scale(1 1) rotate(0) translate(4 80)">
<title>thrill/io/memory_file.hpp</title>
<!-- Node1 -->
<g id="node1" class="node"><title>Node1</title>
<polygon fill="#bfbfbf" stroke="black" points="63,-56.5 63,-75.5 183,-75.5 183,-56.5 63,-56.5"/>
<text text-anchor="middle" x="123" y="-63.5" font-family="Helvetica,sans-Serif" font-size="10.00">thrill/io/memory_file.hpp</text>
</g>
<!-- Node2 -->
<g id="node2" class="node"><title>Node2</title>
<g id="a_node2"><a xlink:href="create__file_8cpp.html" target="_top" xlink:title="thrill/io/create_file.cpp">
<polygon fill="none" stroke="black" points="0,-0.5 0,-19.5 112,-19.5 112,-0.5 0,-0.5"/>
<text text-anchor="middle" x="56" y="-7.5" font-family="Helvetica,sans-Serif" font-size="10.00">thrill/io/create_file.cpp</text>
</a>
</g>
</g>
<!-- Node1&#45;&gt;Node2 -->
<g id="edge1" class="edge"><title>Node1&#45;&gt;Node2</title>
<path fill="none" stroke="midnightblue" d="M104.165,-49.8197C92.1616,-40.1452 77.0283,-27.9481 66.9606,-19.8339"/>
<polygon fill="midnightblue" stroke="midnightblue" points="102.253,-52.7738 112.235,-56.324 106.646,-47.3236 102.253,-52.7738"/>
</g>
<!-- Node3 -->
<g id="node3" class="node"><title>Node3</title>
<g id="a_node3"><a xlink:href="memory__file_8cpp.html" target="_top" xlink:title="thrill/io/memory_file.cpp">
<polygon fill="none" stroke="black" points="130,-0.5 130,-19.5 250,-19.5 250,-0.5 130,-0.5"/>
<text text-anchor="middle" x="190" y="-7.5" font-family="Helvetica,sans-Serif" font-size="10.00">thrill/io/memory_file.cpp</text>
</a>
</g>
</g>
<!-- Node1&#45;&gt;Node3 -->
<g id="edge2" class="edge"><title>Node1&#45;&gt;Node3</title>
<path fill="none" stroke="midnightblue" d="M141.835,-49.8197C153.838,-40.1452 168.972,-27.9481 179.039,-19.8339"/>
<polygon fill="midnightblue" stroke="midnightblue" points="139.354,-47.3236 133.765,-56.324 143.747,-52.7738 139.354,-47.3236"/>
</g>
</g>
</svg>
