<?xml version="1.0" encoding="UTF-8" standalone="no"?>
<!DOCTYPE svg PUBLIC "-//W3C//DTD SVG 1.1//EN"
 "http://www.w3.org/Graphics/SVG/1.1/DTD/svg11.dtd">
<!-- Generated by graphviz version 2.36.0 (20140111.2315)
 -->
<!-- Title: extlib/tlx/tlx/algorithm/merge_advance.hpp Pages: 1 -->
<svg width="436pt" height="300pt"
 viewBox="0.00 0.00 436.00 300.00" xmlns="http://www.w3.org/2000/svg" xmlns:xlink="http://www.w3.org/1999/xlink">
<g id="graph0" class="graph" transform="scale(1 1) rotate(0) translate(4 296)">
<title>extlib/tlx/tlx/algorithm/merge_advance.hpp</title>
<!-- Node1 -->
<g id="node1" class="node"><title>Node1</title>
<polygon fill="#bfbfbf" stroke="black" points="267,-261 267,-291 377,-291 377,-261 267,-261"/>
<text text-anchor="start" x="275" y="-279" font-family="Helvetica,sans-Serif" font-size="10.00">extlib/tlx/tlx/algorithm</text>
<text text-anchor="middle" x="322" y="-268" font-family="Helvetica,sans-Serif" font-size="10.00">/merge_advance.hpp</text>
</g>
<!-- Node2 -->
<g id="node2" class="node"><title>Node2</title>
<g id="a_node2"><a xlink:href="extlib_2tlx_2tlx_2algorithm_2multiway__merge_8hpp.html" target="_top" xlink:title="extlib/tlx/tlx/algorithm\l/multiway_merge.hpp">
<polygon fill="none" stroke="black" points="226,-193 226,-223 336,-223 336,-193 226,-193"/>
<text text-anchor="start" x="234" y="-211" font-family="Helvetica,sans-Serif" font-size="10.00">extlib/tlx/tlx/algorithm</text>
<text text-anchor="middle" x="281" y="-200" font-family="Helvetica,sans-Serif" font-size="10.00">/multiway_merge.hpp</text>
</a>
</g>
</g>
<!-- Node1&#45;&gt;Node2 -->
<g id="edge1" class="edge"><title>Node1&#45;&gt;Node2</title>
<path fill="none" stroke="midnightblue" d="M307.724,-252.019C301.79,-242.467 295.087,-231.677 289.879,-223.293"/>
<polygon fill="midnightblue" stroke="midnightblue" points="304.854,-254.031 313.104,-260.679 310.8,-250.338 304.854,-254.031"/>
</g>
<!-- Node5 -->
<g id="node5" class="node"><title>Node5</title>
<g id="a_node5"><a xlink:href="algorithm_8hpp.html" target="_top" xlink:title="extlib/tlx/tlx/algorithm.hpp">
<polygon fill="none" stroke="black" points="300,-62.5 300,-81.5 428,-81.5 428,-62.5 300,-62.5"/>
<text text-anchor="middle" x="364" y="-69.5" font-family="Helvetica,sans-Serif" font-size="10.00">extlib/tlx/tlx/algorithm.hpp</text>
</a>
</g>
</g>
<!-- Node1&#45;&gt;Node5 -->
<g id="edge8" class="edge"><title>Node1&#45;&gt;Node5</title>
<path fill="none" stroke="midnightblue" d="M334.379,-251.474C338.349,-243.017 342.389,-233.274 345,-224 359.821,-171.353 363.096,-105.119 363.807,-81.6921"/>
<polygon fill="midnightblue" stroke="midnightblue" points="331.111,-250.188 329.84,-260.706 337.393,-253.276 331.111,-250.188"/>
</g>
<!-- Node3 -->
<g id="node3" class="node"><title>Node3</title>
<g id="a_node3"><a xlink:href="parallel__multiway__merge_8hpp.html" target="_top" xlink:title="extlib/tlx/tlx/algorithm\l/parallel_multiway_merge.hpp">
<polygon fill="none" stroke="black" points="150,-125 150,-155 296,-155 296,-125 150,-125"/>
<text text-anchor="start" x="158" y="-143" font-family="Helvetica,sans-Serif" font-size="10.00">extlib/tlx/tlx/algorithm</text>
<text text-anchor="middle" x="223" y="-132" font-family="Helvetica,sans-Serif" font-size="10.00">/parallel_multiway_merge.hpp</text>
</a>
</g>
</g>
<!-- Node2&#45;&gt;Node3 -->
<g id="edge2" class="edge"><title>Node2&#45;&gt;Node3</title>
<path fill="none" stroke="midnightblue" d="M261.58,-184.901C252.998,-175.136 243.156,-163.936 235.561,-155.293"/>
<polygon fill="midnightblue" stroke="midnightblue" points="259.185,-187.478 268.415,-192.679 264.443,-182.857 259.185,-187.478"/>
</g>
<!-- Node2&#45;&gt;Node5 -->
<g id="edge7" class="edge"><title>Node2&#45;&gt;Node5</title>
<path fill="none" stroke="midnightblue" d="M295.227,-184.032C313.936,-153.827 345.917,-102.194 358.594,-81.7275"/>
<polygon fill="midnightblue" stroke="midnightblue" points="292.173,-182.315 289.882,-192.66 298.124,-186.001 292.173,-182.315"/>
</g>
<!-- Node4 -->
<g id="node4" class="node"><title>Node4</title>
<g id="a_node4"><a xlink:href="parallel__multiway__merge_8cpp.html" target="_top" xlink:title="extlib/tlx/tlx/algorithm\l/parallel_multiway_merge.cpp">
<polygon fill="none" stroke="black" points="0,-57 0,-87 146,-87 146,-57 0,-57"/>
<text text-anchor="start" x="8" y="-75" font-family="Helvetica,sans-Serif" font-size="10.00">extlib/tlx/tlx/algorithm</text>
<text text-anchor="middle" x="73" y="-64" font-family="Helvetica,sans-Serif" font-size="10.00">/parallel_multiway_merge.cpp</text>
</a>
</g>
</g>
<!-- Node3&#45;&gt;Node4 -->
<g id="edge3" class="edge"><title>Node3&#45;&gt;Node4</title>
<path fill="none" stroke="midnightblue" d="M181.519,-120.749C157.302,-110.093 127.215,-96.8547 104.868,-87.0218"/>
<polygon fill="midnightblue" stroke="midnightblue" points="180.258,-124.018 190.821,-124.841 183.078,-117.61 180.258,-124.018"/>
</g>
<!-- Node3&#45;&gt;Node5 -->
<g id="edge4" class="edge"><title>Node3&#45;&gt;Node5</title>
<path fill="none" stroke="midnightblue" d="M262.497,-120.512C289.646,-107.804 324.457,-91.5097 345.452,-81.6819"/>
<polygon fill="midnightblue" stroke="midnightblue" points="260.821,-117.432 253.248,-124.841 263.789,-123.772 260.821,-117.432"/>
</g>
<!-- Node6 -->
<g id="node6" class="node"><title>Node6</title>
<g id="a_node6"><a xlink:href="parallel__mergesort_8hpp.html" target="_top" xlink:title="extlib/tlx/tlx/sort\l/parallel_mergesort.hpp">
<polygon fill="none" stroke="black" points="164,-57 164,-87 282,-87 282,-57 164,-57"/>
<text text-anchor="start" x="172" y="-75" font-family="Helvetica,sans-Serif" font-size="10.00">extlib/tlx/tlx/sort</text>
<text text-anchor="middle" x="223" y="-64" font-family="Helvetica,sans-Serif" font-size="10.00">/parallel_mergesort.hpp</text>
</a>
</g>
</g>
<!-- Node3&#45;&gt;Node6 -->
<g id="edge5" class="edge"><title>Node3&#45;&gt;Node6</title>
<path fill="none" stroke="midnightblue" d="M223,-114.532C223,-105.361 223,-95.2449 223,-87.2931"/>
<polygon fill="midnightblue" stroke="midnightblue" points="219.5,-114.679 223,-124.679 226.5,-114.679 219.5,-114.679"/>
</g>
<!-- Node7 -->
<g id="node7" class="node"><title>Node7</title>
<g id="a_node7"><a xlink:href="extlib_2tlx_2tlx_2sort_8hpp.html" target="_top" xlink:title="extlib/tlx/tlx/sort.hpp">
<polygon fill="none" stroke="black" points="170.5,-0.5 170.5,-19.5 275.5,-19.5 275.5,-0.5 170.5,-0.5"/>
<text text-anchor="middle" x="223" y="-7.5" font-family="Helvetica,sans-Serif" font-size="10.00">extlib/tlx/tlx/sort.hpp</text>
</a>
</g>
</g>
<!-- Node6&#45;&gt;Node7 -->
<g id="edge6" class="edge"><title>Node6&#45;&gt;Node7</title>
<path fill="none" stroke="midnightblue" d="M223,-46.5858C223,-37.0743 223,-26.7864 223,-19.7305"/>
<polygon fill="midnightblue" stroke="midnightblue" points="219.5,-46.7808 223,-56.7808 226.5,-46.7809 219.5,-46.7808"/>
</g>
</g>
</svg>
