<?xml version="1.0" encoding="UTF-8" standalone="no"?>
<!DOCTYPE svg PUBLIC "-//W3C//DTD SVG 1.1//EN"
 "http://www.w3.org/Graphics/SVG/1.1/DTD/svg11.dtd">
<!-- Generated by graphviz version 2.26.3 (20100126.1600)
 -->
<!-- Title: thrill/net/mock/group.hpp Pages: 1 -->
<svg width="368pt" height="88pt"
 viewBox="0.00 0.00 368.00 88.00" xmlns="http://www.w3.org/2000/svg" xmlns:xlink="http://www.w3.org/1999/xlink">
<g id="graph1" class="graph" transform="scale(1 1) rotate(0) translate(4 84)">
<title>thrill/net/mock/group.hpp</title>
<!-- Node1 -->
<g id="node1" class="node"><title>Node1</title>
<polygon fill="#bfbfbf" stroke="black" points="108,-58.5 108,-79.5 232,-79.5 232,-58.5 108,-58.5"/>
<text text-anchor="middle" x="170" y="-66.5" font-family="Helvetica,sans-Serif" font-size="10.00">thrill/net/mock/group.hpp</text>
</g>
<!-- Node2 -->
<g id="node3" class="node"><title>Node2</title>
<a xlink:href="context_8cpp.html" target="_top" xlink:title="thrill/api/context.cpp">
<polygon fill="none" stroke="black" points="0,-0.5 0,-21.5 104,-21.5 104,-0.5 0,-0.5"/>
<text text-anchor="middle" x="52" y="-8.5" font-family="Helvetica,sans-Serif" font-size="10.00">thrill/api/context.cpp</text>
</a>
</g>
<!-- Node1&#45;&gt;Node2 -->
<g id="edge2" class="edge"><title>Node1&#45;&gt;Node2</title>
<path fill="none" stroke="midnightblue" d="M139.624,-54.0693C118.959,-43.9121 92.1113,-30.7157 73.6087,-21.6212"/>
<polygon fill="midnightblue" stroke="midnightblue" points="138.113,-57.2265 148.631,-58.4966 141.201,-50.9443 138.113,-57.2265"/>
</g>
<!-- Node3 -->
<g id="node5" class="node"><title>Node3</title>
<a xlink:href="group_8cpp.html" target="_top" xlink:title="thrill/net/group.cpp">
<polygon fill="none" stroke="black" points="121.5,-0.5 121.5,-21.5 218.5,-21.5 218.5,-0.5 121.5,-0.5"/>
<text text-anchor="middle" x="170" y="-8.5" font-family="Helvetica,sans-Serif" font-size="10.00">thrill/net/group.cpp</text>
</a>
</g>
<!-- Node1&#45;&gt;Node3 -->
<g id="edge4" class="edge"><title>Node1&#45;&gt;Node3</title>
<path fill="none" stroke="midnightblue" d="M170,-48.1906C170,-39.1684 170,-28.9941 170,-21.5707"/>
<polygon fill="midnightblue" stroke="midnightblue" points="166.5,-48.3619 170,-58.3619 173.5,-48.3619 166.5,-48.3619"/>
</g>
<!-- Node4 -->
<g id="node7" class="node"><title>Node4</title>
<a xlink:href="mock_2group_8cpp.html" target="_top" xlink:title="thrill/net/mock/group.cpp">
<polygon fill="none" stroke="black" points="236,-0.5 236,-21.5 360,-21.5 360,-0.5 236,-0.5"/>
<text text-anchor="middle" x="298" y="-8.5" font-family="Helvetica,sans-Serif" font-size="10.00">thrill/net/mock/group.cpp</text>
</a>
</g>
<!-- Node1&#45;&gt;Node4 -->
<g id="edge6" class="edge"><title>Node1&#45;&gt;Node4</title>
<path fill="none" stroke="midnightblue" d="M202.346,-54.3431C224.841,-44.1502 254.309,-30.7977 274.56,-21.6212"/>
<polygon fill="midnightblue" stroke="midnightblue" points="200.844,-51.1813 193.18,-58.4966 203.733,-57.5573 200.844,-51.1813"/>
</g>
</g>
</svg>
