<?xml version="1.0" encoding="UTF-8" standalone="no"?>
<!DOCTYPE svg PUBLIC "-//W3C//DTD SVG 1.1//EN"
 "http://www.w3.org/Graphics/SVG/1.1/DTD/svg11.dtd">
<!-- Generated by graphviz version 2.40.1 (20161225.0304)
 -->
<!-- Title: extlib/tlx/tlx/algorithm/multisequence_selection.hpp Pages: 1 -->
<svg width="306pt" height="162pt"
 viewBox="0.00 0.00 306.00 162.00" xmlns="http://www.w3.org/2000/svg" xmlns:xlink="http://www.w3.org/1999/xlink">
<g id="graph0" class="graph" transform="scale(1 1) rotate(0) translate(4 158)">
<title>extlib/tlx/tlx/algorithm/multisequence_selection.hpp</title>
<!-- Node10 -->
<g id="node1" class="node">
<title>Node10</title>
<polygon fill="#bfbfbf" stroke="#000000" points="71.5,-123.5 71.5,-153.5 233.5,-153.5 233.5,-123.5 71.5,-123.5"/>
<text text-anchor="start" x="79.5" y="-141.5" font-family="Helvetica,sans-Serif" font-size="10.00" fill="#000000">extlib/tlx/tlx/algorithm</text>
<text text-anchor="middle" x="152.5" y="-130.5" font-family="Helvetica,sans-Serif" font-size="10.00" fill="#000000">/multisequence_selection.hpp</text>
</g>
<!-- Node11 -->
<g id="node2" class="node">
<title>Node11</title>
<g id="a_node2"><a xlink:href="algorithm_8hpp.html" target="_top" xlink:title="extlib/tlx/tlx/algorithm.hpp">
<polygon fill="none" stroke="#000000" points="0,-62 0,-81 147,-81 147,-62 0,-62"/>
<text text-anchor="middle" x="73.5" y="-69" font-family="Helvetica,sans-Serif" font-size="10.00" fill="#000000">extlib/tlx/tlx/algorithm.hpp</text>
</a>
</g>
</g>
<!-- Node10&#45;&gt;Node11 -->
<g id="edge1" class="edge">
<title>Node10&#45;&gt;Node11</title>
<path fill="none" stroke="#191970" d="M126.6076,-116.5406C112.4453,-104.5296 95.6244,-90.2637 84.7663,-81.055"/>
<polygon fill="#191970" stroke="#191970" points="124.6833,-119.4979 134.5737,-123.2967 129.211,-114.1593 124.6833,-119.4979"/>
</g>
<!-- Node12 -->
<g id="node3" class="node">
<title>Node12</title>
<g id="a_node3"><a xlink:href="parallel__mergesort_8hpp.html" target="_top" xlink:title="extlib/tlx/tlx/sort\l/parallel_mergesort.hpp">
<polygon fill="none" stroke="#000000" points="165,-56.5 165,-86.5 298,-86.5 298,-56.5 165,-56.5"/>
<text text-anchor="start" x="173" y="-74.5" font-family="Helvetica,sans-Serif" font-size="10.00" fill="#000000">extlib/tlx/tlx/sort</text>
<text text-anchor="middle" x="231.5" y="-63.5" font-family="Helvetica,sans-Serif" font-size="10.00" fill="#000000">/parallel_mergesort.hpp</text>
</a>
</g>
</g>
<!-- Node10&#45;&gt;Node12 -->
<g id="edge2" class="edge">
<title>Node10&#45;&gt;Node12</title>
<path fill="none" stroke="#191970" d="M178.1092,-116.7808C189.7146,-106.9383 203.1532,-95.541 213.6446,-86.6432"/>
<polygon fill="#191970" stroke="#191970" points="175.789,-114.1593 170.4263,-123.2967 180.3167,-119.4978 175.789,-114.1593"/>
</g>
<!-- Node13 -->
<g id="node4" class="node">
<title>Node13</title>
<g id="a_node4"><a xlink:href="extlib_2tlx_2tlx_2sort_8hpp.html" target="_top" xlink:title="extlib/tlx/tlx/sort.hpp">
<polygon fill="none" stroke="#000000" points="172,-.5 172,-19.5 291,-19.5 291,-.5 172,-.5"/>
<text text-anchor="middle" x="231.5" y="-7.5" font-family="Helvetica,sans-Serif" font-size="10.00" fill="#000000">extlib/tlx/tlx/sort.hpp</text>
</a>
</g>
</g>
<!-- Node12&#45;&gt;Node13 -->
<g id="edge3" class="edge">
<title>Node12&#45;&gt;Node13</title>
<path fill="none" stroke="#191970" d="M231.5,-46.2849C231.5,-36.9858 231.5,-26.9883 231.5,-19.8469"/>
<polygon fill="#191970" stroke="#191970" points="228.0001,-46.2977 231.5,-56.2977 235.0001,-46.2978 228.0001,-46.2977"/>
</g>
</g>
</svg>
