<?xml version="1.0" encoding="UTF-8" standalone="no"?>
<!DOCTYPE svg PUBLIC "-//W3C//DTD SVG 1.1//EN"
 "http://www.w3.org/Graphics/SVG/1.1/DTD/svg11.dtd">
<!-- Generated by graphviz version 2.36.0 (20140111.2315)
 -->
<!-- Title: extlib/tlx/tlx/algorithm/multisequence_selection.hpp Pages: 1 -->
<svg width="545pt" height="164pt"
 viewBox="0.00 0.00 545.41 164.00" xmlns="http://www.w3.org/2000/svg" xmlns:xlink="http://www.w3.org/1999/xlink">
<g id="graph0" class="graph" transform="scale(1 1) rotate(0) translate(4 160)">
<title>extlib/tlx/tlx/algorithm/multisequence_selection.hpp</title>
<!-- Node1 -->
<g id="node1" class="node"><title>Node1</title>
<polygon fill="#bfbfbf" stroke="black" points="110.412,-125 110.412,-155 256.412,-155 256.412,-125 110.412,-125"/>
<text text-anchor="start" x="118.412" y="-143" font-family="Helvetica,sans-Serif" font-size="10.00">extlib/tlx/tlx/algorithm</text>
<text text-anchor="middle" x="183.412" y="-132" font-family="Helvetica,sans-Serif" font-size="10.00">/multisequence_selection.hpp</text>
</g>
<!-- Node2 -->
<g id="node2" class="node"><title>Node2</title>
<polygon fill="none" stroke="#bfbfbf" points="157.412,-0.5 157.412,-19.5 213.412,-19.5 213.412,-0.5 157.412,-0.5"/>
<text text-anchor="middle" x="185.412" y="-7.5" font-family="Helvetica,sans-Serif" font-size="10.00">algorithm</text>
</g>
<!-- Node1&#45;&gt;Node2 -->
<g id="edge1" class="edge"><title>Node1&#45;&gt;Node2</title>
<path fill="none" stroke="midnightblue" d="M110.307,-130.01C48.935,-119.382 -23.9426,-97.6098 8.41209,-56 25.2851,-34.3004 100.496,-21.3522 147.282,-15.2549"/>
<polygon fill="midnightblue" stroke="midnightblue" points="147.886,-18.7067 157.372,-13.9883 147.014,-11.7612 147.886,-18.7067"/>
</g>
<!-- Node3 -->
<g id="node3" class="node"><title>Node3</title>
<polygon fill="none" stroke="#bfbfbf" points="17.9121,-62.5 17.9121,-81.5 66.9121,-81.5 66.9121,-62.5 17.9121,-62.5"/>
<text text-anchor="middle" x="42.4121" y="-69.5" font-family="Helvetica,sans-Serif" font-size="10.00">cassert</text>
</g>
<!-- Node1&#45;&gt;Node3 -->
<g id="edge2" class="edge"><title>Node1&#45;&gt;Node3</title>
<path fill="none" stroke="midnightblue" d="M153.164,-124.841C128.557,-113.323 94.1097,-97.1989 70.1926,-86.0036"/>
<polygon fill="midnightblue" stroke="midnightblue" points="71.5005,-82.7514 60.9597,-81.6819 68.5328,-89.0913 71.5005,-82.7514"/>
</g>
<!-- Node4 -->
<g id="node4" class="node"><title>Node4</title>
<polygon fill="none" stroke="#bfbfbf" points="84.9121,-62.5 84.9121,-81.5 143.912,-81.5 143.912,-62.5 84.9121,-62.5"/>
<text text-anchor="middle" x="114.412" y="-69.5" font-family="Helvetica,sans-Serif" font-size="10.00">functional</text>
</g>
<!-- Node1&#45;&gt;Node4 -->
<g id="edge3" class="edge"><title>Node1&#45;&gt;Node4</title>
<path fill="none" stroke="midnightblue" d="M168.44,-124.679C157.468,-114.184 142.568,-99.9317 131.194,-89.0522"/>
<polygon fill="midnightblue" stroke="midnightblue" points="133.287,-86.2113 123.642,-81.8283 128.449,-91.2698 133.287,-86.2113"/>
</g>
<!-- Node5 -->
<g id="node5" class="node"><title>Node5</title>
<polygon fill="none" stroke="#bfbfbf" points="161.912,-62.5 161.912,-81.5 204.912,-81.5 204.912,-62.5 161.912,-62.5"/>
<text text-anchor="middle" x="183.412" y="-69.5" font-family="Helvetica,sans-Serif" font-size="10.00">queue</text>
</g>
<!-- Node1&#45;&gt;Node5 -->
<g id="edge4" class="edge"><title>Node1&#45;&gt;Node5</title>
<path fill="none" stroke="midnightblue" d="M183.412,-124.679C183.412,-115.101 183.412,-102.394 183.412,-91.9766"/>
<polygon fill="midnightblue" stroke="midnightblue" points="186.912,-91.8283 183.412,-81.8283 179.912,-91.8283 186.912,-91.8283"/>
</g>
<!-- Node6 -->
<g id="node6" class="node"><title>Node6</title>
<polygon fill="none" stroke="#bfbfbf" points="223.412,-62.5 223.412,-81.5 267.412,-81.5 267.412,-62.5 223.412,-62.5"/>
<text text-anchor="middle" x="245.412" y="-69.5" font-family="Helvetica,sans-Serif" font-size="10.00">vector</text>
</g>
<!-- Node1&#45;&gt;Node6 -->
<g id="edge5" class="edge"><title>Node1&#45;&gt;Node6</title>
<path fill="none" stroke="midnightblue" d="M196.865,-124.679C206.628,-114.286 219.853,-100.208 230.034,-89.37"/>
<polygon fill="midnightblue" stroke="midnightblue" points="232.823,-91.5132 237.119,-81.8283 227.721,-86.7204 232.823,-91.5132"/>
</g>
<!-- Node7 -->
<g id="node7" class="node"><title>Node7</title>
<g id="a_node7"><a xlink:href="round__to__power__of__two_8hpp.html" target="_top" xlink:title="tlx/math/round_to_power\l_of_two.hpp">
<polygon fill="none" stroke="black" points="285.412,-57 285.412,-87 409.412,-87 409.412,-57 285.412,-57"/>
<text text-anchor="start" x="293.412" y="-75" font-family="Helvetica,sans-Serif" font-size="10.00">tlx/math/round_to_power</text>
<text text-anchor="middle" x="347.412" y="-64" font-family="Helvetica,sans-Serif" font-size="10.00">_of_two.hpp</text>
</a>
</g>
</g>
<!-- Node1&#45;&gt;Node7 -->
<g id="edge6" class="edge"><title>Node1&#45;&gt;Node7</title>
<path fill="none" stroke="midnightblue" d="M218.594,-124.841C243.322,-114.89 276.593,-101.5 303.127,-90.8219"/>
<polygon fill="midnightblue" stroke="midnightblue" points="304.6,-94.0022 312.57,-87.0218 301.986,-87.5084 304.6,-94.0022"/>
</g>
<!-- Node8 -->
<g id="node8" class="node"><title>Node8</title>
<g id="a_node8"><a xlink:href="simple__vector_8hpp.html" target="_top" xlink:title="tlx/simple_vector.hpp">
<polygon fill="none" stroke="black" points="427.412,-62.5 427.412,-81.5 537.412,-81.5 537.412,-62.5 427.412,-62.5"/>
<text text-anchor="middle" x="482.412" y="-69.5" font-family="Helvetica,sans-Serif" font-size="10.00">tlx/simple_vector.hpp</text>
</a>
</g>
</g>
<!-- Node1&#45;&gt;Node8 -->
<g id="edge7" class="edge"><title>Node1&#45;&gt;Node8</title>
<path fill="none" stroke="midnightblue" d="M248.77,-124.979C295.725,-114.851 360.512,-100.765 417.412,-88 423.276,-86.6844 429.433,-85.2859 435.524,-83.8921"/>
<polygon fill="midnightblue" stroke="midnightblue" points="436.686,-87.2165 445.648,-81.5663 435.118,-80.3942 436.686,-87.2165"/>
</g>
<!-- Node8&#45;&gt;Node2 -->
<g id="edge8" class="edge"><title>Node8&#45;&gt;Node2</title>
<path fill="none" stroke="midnightblue" d="M446.362,-62.4428C436.953,-60.2748 426.815,-57.9962 417.412,-56 349.318,-41.5436 269.577,-26.483 223.538,-17.9692"/>
<polygon fill="midnightblue" stroke="midnightblue" points="224.159,-14.5248 213.69,-16.1529 222.889,-21.4087 224.159,-14.5248"/>
</g>
<!-- Node9 -->
<g id="node9" class="node"><title>Node9</title>
<polygon fill="none" stroke="#bfbfbf" points="428.912,-0.5 428.912,-19.5 473.912,-19.5 473.912,-0.5 428.912,-0.5"/>
<text text-anchor="middle" x="451.412" y="-7.5" font-family="Helvetica,sans-Serif" font-size="10.00">cstdlib</text>
</g>
<!-- Node8&#45;&gt;Node9 -->
<g id="edge9" class="edge"><title>Node8&#45;&gt;Node9</title>
<path fill="none" stroke="midnightblue" d="M477.971,-62.4035C473.459,-53.6707 466.338,-39.8893 460.605,-28.7936"/>
<polygon fill="midnightblue" stroke="midnightblue" points="463.545,-26.8583 455.845,-19.5806 457.326,-30.0714 463.545,-26.8583"/>
</g>
<!-- Node10 -->
<g id="node10" class="node"><title>Node10</title>
<polygon fill="none" stroke="#bfbfbf" points="492.412,-0.5 492.412,-19.5 532.412,-19.5 532.412,-0.5 492.412,-0.5"/>
<text text-anchor="middle" x="512.412" y="-7.5" font-family="Helvetica,sans-Serif" font-size="10.00">utility</text>
</g>
<!-- Node8&#45;&gt;Node10 -->
<g id="edge10" class="edge"><title>Node8&#45;&gt;Node10</title>
<path fill="none" stroke="midnightblue" d="M486.71,-62.4035C491.077,-53.6707 497.967,-39.8893 503.515,-28.7936"/>
<polygon fill="midnightblue" stroke="midnightblue" points="506.78,-30.0901 508.122,-19.5806 500.519,-26.9596 506.78,-30.0901"/>
</g>
</g>
</svg>
