<?xml version="1.0" encoding="UTF-8" standalone="no"?>
<!DOCTYPE svg PUBLIC "-//W3C//DTD SVG 1.1//EN"
 "http://www.w3.org/Graphics/SVG/1.1/DTD/svg11.dtd">
<!-- Generated by graphviz version 2.36.0 (20140111.2315)
 -->
<!-- Title: thrill/data/multiplexer_header.hpp Pages: 1 -->
<svg width="531pt" height="108pt"
 viewBox="0.00 0.00 531.00 108.00" xmlns="http://www.w3.org/2000/svg" xmlns:xlink="http://www.w3.org/1999/xlink">
<g id="graph0" class="graph" transform="scale(1 1) rotate(0) translate(4 104)">
<title>thrill/data/multiplexer_header.hpp</title>
<!-- Node1 -->
<g id="node1" class="node"><title>Node1</title>
<polygon fill="#bfbfbf" stroke="black" points="227.5,-69 227.5,-99 334.5,-99 334.5,-69 227.5,-69"/>
<text text-anchor="start" x="235.5" y="-87" font-family="Helvetica,sans-Serif" font-size="10.00">thrill/data/multiplexer</text>
<text text-anchor="middle" x="281" y="-76" font-family="Helvetica,sans-Serif" font-size="10.00">_header.hpp</text>
</g>
<!-- Node2 -->
<g id="node2" class="node"><title>Node2</title>
<g id="a_node2"><a xlink:href="cat__stream_8cpp.html" target="_top" xlink:title="thrill/data/cat_stream.cpp">
<polygon fill="none" stroke="black" points="-0.5,-6.5 -0.5,-25.5 126.5,-25.5 126.5,-6.5 -0.5,-6.5"/>
<text text-anchor="middle" x="63" y="-13.5" font-family="Helvetica,sans-Serif" font-size="10.00">thrill/data/cat_stream.cpp</text>
</a>
</g>
</g>
<!-- Node1&#45;&gt;Node2 -->
<g id="edge1" class="edge"><title>Node1&#45;&gt;Node2</title>
<path fill="none" stroke="midnightblue" d="M224.77,-65.9763C181.936,-53.0082 124.773,-35.7018 91.1212,-25.5138"/>
<polygon fill="midnightblue" stroke="midnightblue" points="223.916,-69.3744 234.501,-68.9223 225.944,-62.6747 223.916,-69.3744"/>
</g>
<!-- Node3 -->
<g id="node3" class="node"><title>Node3</title>
<g id="a_node3"><a xlink:href="mix__stream_8cpp.html" target="_top" xlink:title="thrill/data/mix_stream.cpp">
<polygon fill="none" stroke="black" points="144.5,-6.5 144.5,-25.5 273.5,-25.5 273.5,-6.5 144.5,-6.5"/>
<text text-anchor="middle" x="209" y="-13.5" font-family="Helvetica,sans-Serif" font-size="10.00">thrill/data/mix_stream.cpp</text>
</a>
</g>
</g>
<!-- Node1&#45;&gt;Node3 -->
<g id="edge2" class="edge"><title>Node1&#45;&gt;Node3</title>
<path fill="none" stroke="midnightblue" d="M257.929,-61.8517C244.635,-49.6656 228.629,-34.9929 218.631,-25.8283"/>
<polygon fill="midnightblue" stroke="midnightblue" points="255.64,-64.5018 265.377,-68.679 260.371,-59.3417 255.64,-64.5018"/>
</g>
<!-- Node4 -->
<g id="node4" class="node"><title>Node4</title>
<g id="a_node4"><a xlink:href="multiplexer_8cpp.html" target="_top" xlink:title="thrill/data/multiplexer.cpp">
<polygon fill="none" stroke="black" points="291.5,-6.5 291.5,-25.5 416.5,-25.5 416.5,-6.5 291.5,-6.5"/>
<text text-anchor="middle" x="354" y="-13.5" font-family="Helvetica,sans-Serif" font-size="10.00">thrill/data/multiplexer.cpp</text>
</a>
</g>
</g>
<!-- Node1&#45;&gt;Node4 -->
<g id="edge3" class="edge"><title>Node1&#45;&gt;Node4</title>
<path fill="none" stroke="midnightblue" d="M304.391,-61.8517C317.87,-49.6656 334.099,-34.9929 344.235,-25.8283"/>
<polygon fill="midnightblue" stroke="midnightblue" points="301.91,-59.3763 296.84,-68.679 306.605,-64.5687 301.91,-59.3763"/>
</g>
<!-- Node5 -->
<g id="node5" class="node"><title>Node5</title>
<g id="a_node5"><a xlink:href="stream__sink_8cpp.html" target="_top" xlink:title="thrill/data/stream\l_sink.cpp">
<polygon fill="none" stroke="black" points="434.5,-1 434.5,-31 523.5,-31 523.5,-1 434.5,-1"/>
<text text-anchor="start" x="442.5" y="-19" font-family="Helvetica,sans-Serif" font-size="10.00">thrill/data/stream</text>
<text text-anchor="middle" x="479" y="-8" font-family="Helvetica,sans-Serif" font-size="10.00">_sink.cpp</text>
</a>
</g>
</g>
<!-- Node1&#45;&gt;Node5 -->
<g id="edge4" class="edge"><title>Node1&#45;&gt;Node5</title>
<path fill="none" stroke="midnightblue" d="M333.225,-65.5916C365.605,-54.7984 406.653,-41.1157 436.935,-31.0218"/>
<polygon fill="midnightblue" stroke="midnightblue" points="331.856,-62.3586 323.476,-68.8413 334.07,-68.9994 331.856,-62.3586"/>
</g>
</g>
</svg>
