<?xml version="1.0" encoding="UTF-8" standalone="no"?>
<!DOCTYPE svg PUBLIC "-//W3C//DTD SVG 1.1//EN"
 "http://www.w3.org/Graphics/SVG/1.1/DTD/svg11.dtd">
<!-- Generated by graphviz version 2.26.3 (20100126.1600)
 -->
<!-- Title: thrill/core/multiway_merge.hpp Pages: 1 -->
<svg width="2910pt" height="404pt"
 viewBox="0.00 0.00 2910.00 404.00" xmlns="http://www.w3.org/2000/svg" xmlns:xlink="http://www.w3.org/1999/xlink">
<g id="graph1" class="graph" transform="scale(1 1) rotate(0) translate(4 400)">
<title>thrill/core/multiway_merge.hpp</title>
<!-- Node1 -->
<g id="node1" class="node"><title>Node1</title>
<polygon fill="#bfbfbf" stroke="black" points="1238,-361 1238,-395 1336,-395 1336,-361 1238,-361"/>
<text text-anchor="start" x="1246" y="-382" font-family="Helvetica,sans-Serif" font-size="10.00">thrill/core/multiway</text>
<text text-anchor="middle" x="1287" y="-369" font-family="Helvetica,sans-Serif" font-size="10.00">_merge.hpp</text>
</g>
<!-- Node2 -->
<g id="node3" class="node"><title>Node2</title>
<a xlink:href="group__by__iterator_8hpp.html" target="_top" xlink:title="thrill/api/group_by\l_iterator.hpp">
<polygon fill="none" stroke="black" points="1091.5,-217 1091.5,-251 1184.5,-251 1184.5,-217 1091.5,-217"/>
<text text-anchor="start" x="1099.5" y="-238" font-family="Helvetica,sans-Serif" font-size="10.00">thrill/api/group_by</text>
<text text-anchor="middle" x="1138" y="-225" font-family="Helvetica,sans-Serif" font-size="10.00">_iterator.hpp</text>
</a>
</g>
<!-- Node1&#45;&gt;Node2 -->
<g id="edge2" class="edge"><title>Node1&#45;&gt;Node2</title>
<path fill="none" stroke="midnightblue" d="M1262.12,-353.956C1232.01,-324.859 1182.08,-276.598 1155.65,-251.062"/>
<polygon fill="midnightblue" stroke="midnightblue" points="1259.7,-356.483 1269.32,-360.916 1264.56,-351.45 1259.7,-356.483"/>
</g>
<!-- Node10 -->
<g id="node24" class="node"><title>Node10</title>
<a xlink:href="location__detection_8hpp.html" target="_top" xlink:title="thrill/core/location\l_detection.hpp">
<polygon fill="none" stroke="black" points="1240.5,-217 1240.5,-251 1333.5,-251 1333.5,-217 1240.5,-217"/>
<text text-anchor="start" x="1248.5" y="-238" font-family="Helvetica,sans-Serif" font-size="10.00">thrill/core/location</text>
<text text-anchor="middle" x="1287" y="-225" font-family="Helvetica,sans-Serif" font-size="10.00">_detection.hpp</text>
</a>
</g>
<!-- Node1&#45;&gt;Node10 -->
<g id="edge28" class="edge"><title>Node1&#45;&gt;Node10</title>
<path fill="none" stroke="midnightblue" d="M1287,-350.546C1287,-321.211 1287,-275.624 1287,-251.062"/>
<polygon fill="midnightblue" stroke="midnightblue" points="1283.5,-350.916 1287,-360.916 1290.5,-350.916 1283.5,-350.916"/>
</g>
<!-- Node16 -->
<g id="node40" class="node"><title>Node16</title>
<a xlink:href="merge_8hpp.html" target="_top" xlink:title="thrill/api/merge.hpp">
<polygon fill="none" stroke="black" points="1557.5,-151.5 1557.5,-172.5 1656.5,-172.5 1656.5,-151.5 1557.5,-151.5"/>
<text text-anchor="middle" x="1607" y="-159.5" font-family="Helvetica,sans-Serif" font-size="10.00">thrill/api/merge.hpp</text>
</a>
</g>
<!-- Node1&#45;&gt;Node16 -->
<g id="edge48" class="edge"><title>Node1&#45;&gt;Node16</title>
<path fill="none" stroke="midnightblue" d="M1320.67,-355.27C1389.06,-309.111 1541.89,-205.947 1591.28,-172.609"/>
<polygon fill="midnightblue" stroke="midnightblue" points="1318.71,-352.375 1312.38,-360.87 1322.62,-358.176 1318.71,-352.375"/>
</g>
<!-- Node21 -->
<g id="node51" class="node"><title>Node21</title>
<a xlink:href="duplicate__detection_8hpp.html" target="_top" xlink:title="thrill/core/duplicate\l_detection.hpp">
<polygon fill="none" stroke="black" points="938,-289 938,-323 1036,-323 1036,-289 938,-289"/>
<text text-anchor="start" x="946" y="-310" font-family="Helvetica,sans-Serif" font-size="10.00">thrill/core/duplicate</text>
<text text-anchor="middle" x="987" y="-297" font-family="Helvetica,sans-Serif" font-size="10.00">_detection.hpp</text>
</a>
</g>
<!-- Node1&#45;&gt;Node21 -->
<g id="edge60" class="edge"><title>Node1&#45;&gt;Node21</title>
<path fill="none" stroke="midnightblue" d="M1228.02,-363.844C1172,-350.401 1088.77,-330.425 1036.23,-317.815"/>
<polygon fill="midnightblue" stroke="midnightblue" points="1227.26,-367.261 1237.8,-366.191 1228.89,-360.454 1227.26,-367.261"/>
</g>
<!-- Node34 -->
<g id="node82" class="node"><title>Node34</title>
<a xlink:href="sort_8hpp.html" target="_top" xlink:title="thrill/api/sort.hpp">
<polygon fill="none" stroke="black" points="1909.5,-223.5 1909.5,-244.5 1998.5,-244.5 1998.5,-223.5 1909.5,-223.5"/>
<text text-anchor="middle" x="1954" y="-231.5" font-family="Helvetica,sans-Serif" font-size="10.00">thrill/api/sort.hpp</text>
</a>
</g>
<!-- Node1&#45;&gt;Node34 -->
<g id="edge96" class="edge"><title>Node1&#45;&gt;Node34</title>
<path fill="none" stroke="midnightblue" d="M1345.94,-365.275C1477.44,-336.885 1792.39,-268.891 1909.31,-243.649"/>
<polygon fill="midnightblue" stroke="midnightblue" points="1345.08,-361.88 1336.05,-367.411 1346.56,-368.722 1345.08,-361.88"/>
</g>
<!-- Node3 -->
<g id="node5" class="node"><title>Node3</title>
<a xlink:href="group__by__key_8hpp.html" target="_top" xlink:title="thrill/api/group_by\l_key.hpp">
<polygon fill="none" stroke="black" points="1203.5,-145 1203.5,-179 1296.5,-179 1296.5,-145 1203.5,-145"/>
<text text-anchor="start" x="1211.5" y="-166" font-family="Helvetica,sans-Serif" font-size="10.00">thrill/api/group_by</text>
<text text-anchor="middle" x="1250" y="-153" font-family="Helvetica,sans-Serif" font-size="10.00">_key.hpp</text>
</a>
</g>
<!-- Node2&#45;&gt;Node3 -->
<g id="edge4" class="edge"><title>Node2&#45;&gt;Node3</title>
<path fill="none" stroke="midnightblue" d="M1173.21,-211.364C1189.39,-200.962 1208.27,-188.826 1223.26,-179.19"/>
<polygon fill="midnightblue" stroke="midnightblue" points="1171.06,-208.585 1164.54,-216.937 1174.85,-214.474 1171.06,-208.585"/>
</g>
<!-- Node4 -->
<g id="node7" class="node"><title>Node4</title>
<a xlink:href="thrill_8hpp.html" target="_top" xlink:title="thrill/thrill.hpp">
<polygon fill="none" stroke="black" points="1148,-79.5 1148,-100.5 1222,-100.5 1222,-79.5 1148,-79.5"/>
<text text-anchor="middle" x="1185" y="-87.5" font-family="Helvetica,sans-Serif" font-size="10.00">thrill/thrill.hpp</text>
</a>
</g>
<!-- Node2&#45;&gt;Node4 -->
<g id="edge24" class="edge"><title>Node2&#45;&gt;Node4</title>
<path fill="none" stroke="midnightblue" d="M1146.73,-207.26C1157.21,-175.135 1174.3,-122.79 1181.56,-100.541"/>
<polygon fill="midnightblue" stroke="midnightblue" points="1143.35,-206.323 1143.58,-216.916 1150.01,-208.495 1143.35,-206.323"/>
</g>
<!-- Node5 -->
<g id="node9" class="node"><title>Node5</title>
<a xlink:href="bfs_8cpp.html" target="_top" xlink:title="examples/bfs/bfs.cpp">
<polygon fill="none" stroke="black" points="1020,-79.5 1020,-100.5 1130,-100.5 1130,-79.5 1020,-79.5"/>
<text text-anchor="middle" x="1075" y="-87.5" font-family="Helvetica,sans-Serif" font-size="10.00">examples/bfs/bfs.cpp</text>
</a>
</g>
<!-- Node2&#45;&gt;Node5 -->
<g id="edge26" class="edge"><title>Node2&#45;&gt;Node5</title>
<path fill="none" stroke="midnightblue" d="M1081.26,-226.39C1052.71,-219.376 1020.53,-205.897 1003,-180 994.03,-166.751 995.845,-158.311 1003,-144 1012.99,-124.015 1034.29,-109.508 1051.14,-100.594"/>
<polygon fill="midnightblue" stroke="midnightblue" points="1080.65,-229.841 1091.17,-228.612 1082.18,-223.01 1080.65,-229.841"/>
</g>
<!-- Node8 -->
<g id="node15" class="node"><title>Node8</title>
<a xlink:href="group__to__index_8hpp.html" target="_top" xlink:title="thrill/api/group_to\l_index.hpp">
<polygon fill="none" stroke="black" points="865.5,-145 865.5,-179 956.5,-179 956.5,-145 865.5,-145"/>
<text text-anchor="start" x="873.5" y="-166" font-family="Helvetica,sans-Serif" font-size="10.00">thrill/api/group_to</text>
<text text-anchor="middle" x="911" y="-153" font-family="Helvetica,sans-Serif" font-size="10.00">_index.hpp</text>
</a>
</g>
<!-- Node2&#45;&gt;Node8 -->
<g id="edge14" class="edge"><title>Node2&#45;&gt;Node8</title>
<path fill="none" stroke="midnightblue" d="M1081.7,-216.144C1043.12,-203.905 992.586,-187.878 956.536,-176.443"/>
<polygon fill="midnightblue" stroke="midnightblue" points="1080.65,-219.482 1091.24,-219.169 1082.77,-212.809 1080.65,-219.482"/>
</g>
<!-- Node9 -->
<g id="node20" class="node"><title>Node9</title>
<a xlink:href="multiway__merge__attic_8hpp.html" target="_top" xlink:title="thrill/core/multiway\l_merge_attic.hpp">
<polygon fill="none" stroke="black" points="1012,-145 1012,-179 1110,-179 1110,-145 1012,-145"/>
<text text-anchor="start" x="1020" y="-166" font-family="Helvetica,sans-Serif" font-size="10.00">thrill/core/multiway</text>
<text text-anchor="middle" x="1061" y="-153" font-family="Helvetica,sans-Serif" font-size="10.00">_merge_attic.hpp</text>
</a>
</g>
<!-- Node2&#45;&gt;Node9 -->
<g id="edge22" class="edge"><title>Node2&#45;&gt;Node9</title>
<path fill="none" stroke="midnightblue" d="M1112.24,-209.908C1101.47,-199.844 1089.21,-188.38 1079.38,-179.19"/>
<polygon fill="midnightblue" stroke="midnightblue" points="1110.06,-212.664 1119.75,-216.937 1114.84,-207.551 1110.06,-212.664"/>
</g>
<!-- Node3&#45;&gt;Node4 -->
<g id="edge6" class="edge"><title>Node3&#45;&gt;Node4</title>
<path fill="none" stroke="midnightblue" d="M1227.58,-137.163C1216.42,-124.8 1203.5,-110.487 1194.84,-100.901"/>
<polygon fill="midnightblue" stroke="midnightblue" points="1225.3,-139.86 1234.6,-144.937 1230.49,-135.169 1225.3,-139.86"/>
</g>
<!-- Node3&#45;&gt;Node5 -->
<g id="edge8" class="edge"><title>Node3&#45;&gt;Node5</title>
<path fill="none" stroke="midnightblue" d="M1199.23,-141.111C1166.95,-127.83 1126.52,-111.197 1100.72,-100.582"/>
<polygon fill="midnightblue" stroke="midnightblue" points="1197.95,-144.369 1208.53,-144.937 1200.61,-137.895 1197.95,-144.369"/>
</g>
<!-- Node6 -->
<g id="node11" class="node"><title>Node6</title>
<a xlink:href="page__rank__run_8cpp.html" target="_top" xlink:title="examples/page_rank\l/page_rank_run.cpp">
<polygon fill="none" stroke="black" points="938.5,-1 938.5,-35 1045.5,-35 1045.5,-1 938.5,-1"/>
<text text-anchor="start" x="946.5" y="-22" font-family="Helvetica,sans-Serif" font-size="10.00">examples/page_rank</text>
<text text-anchor="middle" x="992" y="-9" font-family="Helvetica,sans-Serif" font-size="10.00">/page_rank_run.cpp</text>
</a>
</g>
<!-- Node3&#45;&gt;Node6 -->
<g id="edge10" class="edge"><title>Node3&#45;&gt;Node6</title>
<path fill="none" stroke="midnightblue" d="M1251.54,-134.839C1251.14,-114.842 1247.16,-88.3868 1231,-72 1205.54,-46.1763 1107.98,-30.7974 1045.65,-23.4053"/>
<polygon fill="midnightblue" stroke="midnightblue" points="1248.04,-134.87 1251.46,-144.899 1255.04,-134.928 1248.04,-134.87"/>
</g>
<!-- Node7 -->
<g id="node13" class="node"><title>Node7</title>
<a xlink:href="percentiles_8cpp.html" target="_top" xlink:title="examples/percentiles\l/percentiles.cpp">
<polygon fill="none" stroke="black" points="1435.5,-73 1435.5,-107 1544.5,-107 1544.5,-73 1435.5,-73"/>
<text text-anchor="start" x="1443.5" y="-94" font-family="Helvetica,sans-Serif" font-size="10.00">examples/percentiles</text>
<text text-anchor="middle" x="1490" y="-81" font-family="Helvetica,sans-Serif" font-size="10.00">/percentiles.cpp</text>
</a>
</g>
<!-- Node3&#45;&gt;Node7 -->
<g id="edge12" class="edge"><title>Node3&#45;&gt;Node7</title>
<path fill="none" stroke="midnightblue" d="M1306.16,-145.152C1345.05,-133.485 1396.56,-118.031 1435.16,-106.451"/>
<polygon fill="midnightblue" stroke="midnightblue" points="1305.13,-141.806 1296.56,-148.032 1307.14,-148.511 1305.13,-141.806"/>
</g>
<!-- Node8&#45;&gt;Node4 -->
<g id="edge16" class="edge"><title>Node8&#45;&gt;Node4</title>
<path fill="none" stroke="midnightblue" d="M966.818,-151.069C1013.34,-141.413 1081.12,-126.08 1139,-108 1145.88,-105.852 1153.19,-103.176 1159.92,-100.549"/>
<polygon fill="midnightblue" stroke="midnightblue" points="966.022,-147.659 956.932,-153.101 967.432,-154.515 966.022,-147.659"/>
</g>
<!-- Node8&#45;&gt;Node5 -->
<g id="edge18" class="edge"><title>Node8&#45;&gt;Node5</title>
<path fill="none" stroke="midnightblue" d="M959.332,-140.781C989.356,-127.6 1026.67,-111.219 1050.66,-100.688"/>
<polygon fill="midnightblue" stroke="midnightblue" points="957.615,-137.712 949.866,-144.937 960.429,-144.122 957.615,-137.712"/>
</g>
<!-- Node8&#45;&gt;Node6 -->
<g id="edge20" class="edge"><title>Node8&#45;&gt;Node6</title>
<path fill="none" stroke="midnightblue" d="M945.674,-138.579C955.89,-130.074 966.154,-119.654 973,-108 986.428,-85.1432 990.43,-54.0864 991.585,-35.0746"/>
<polygon fill="midnightblue" stroke="midnightblue" points="943.244,-136.038 937.556,-144.977 947.577,-141.536 943.244,-136.038"/>
</g>
<!-- Node10&#45;&gt;Node3 -->
<g id="edge30" class="edge"><title>Node10&#45;&gt;Node3</title>
<path fill="none" stroke="midnightblue" d="M1273.59,-207.908C1268.73,-198.44 1263.35,-187.981 1258.96,-179.441"/>
<polygon fill="midnightblue" stroke="midnightblue" points="1270.55,-209.642 1278.23,-216.937 1276.77,-206.443 1270.55,-209.642"/>
</g>
<!-- Node11 -->
<g id="node27" class="node"><title>Node11</title>
<a xlink:href="inner__join_8hpp.html" target="_top" xlink:title="thrill/api/inner_join.hpp">
<polygon fill="none" stroke="black" points="1351.5,-151.5 1351.5,-172.5 1464.5,-172.5 1464.5,-151.5 1351.5,-151.5"/>
<text text-anchor="middle" x="1408" y="-159.5" font-family="Helvetica,sans-Serif" font-size="10.00">thrill/api/inner_join.hpp</text>
</a>
</g>
<!-- Node10&#45;&gt;Node11 -->
<g id="edge32" class="edge"><title>Node10&#45;&gt;Node11</title>
<path fill="none" stroke="midnightblue" d="M1324.4,-211.748C1346.23,-198.753 1372.8,-182.946 1390.04,-172.688"/>
<polygon fill="midnightblue" stroke="midnightblue" points="1322.48,-208.816 1315.68,-216.937 1326.06,-214.831 1322.48,-208.816"/>
</g>
<!-- Node11&#45;&gt;Node4 -->
<g id="edge34" class="edge"><title>Node11&#45;&gt;Node4</title>
<path fill="none" stroke="midnightblue" d="M1365.47,-148.269C1322.43,-134.371 1256.8,-113.182 1217.68,-100.55"/>
<polygon fill="midnightblue" stroke="midnightblue" points="1364.5,-151.634 1375.1,-151.376 1366.65,-144.973 1364.5,-151.634"/>
</g>
<!-- Node12 -->
<g id="node30" class="node"><title>Node12</title>
<a xlink:href="page__rank_8hpp.html" target="_top" xlink:title="examples/page_rank\l/page_rank.hpp">
<polygon fill="none" stroke="black" points="857.5,-73 857.5,-107 964.5,-107 964.5,-73 857.5,-73"/>
<text text-anchor="start" x="865.5" y="-94" font-family="Helvetica,sans-Serif" font-size="10.00">examples/page_rank</text>
<text text-anchor="middle" x="911" y="-81" font-family="Helvetica,sans-Serif" font-size="10.00">/page_rank.hpp</text>
</a>
</g>
<!-- Node11&#45;&gt;Node12 -->
<g id="edge36" class="edge"><title>Node11&#45;&gt;Node12</title>
<path fill="none" stroke="midnightblue" d="M1341.39,-149.845C1329.29,-147.786 1316.78,-145.75 1305,-144 1174.79,-124.663 1141.17,-127.668 1011,-108 995.913,-105.72 979.604,-102.926 964.622,-100.225"/>
<polygon fill="midnightblue" stroke="midnightblue" points="1340.97,-153.325 1351.42,-151.576 1342.16,-146.427 1340.97,-153.325"/>
</g>
<!-- Node13 -->
<g id="node33" class="node"><title>Node13</title>
<a xlink:href="triangles_8hpp.html" target="_top" xlink:title="examples/triangles\l/triangles.hpp">
<polygon fill="none" stroke="black" points="1282,-73 1282,-107 1380,-107 1380,-73 1282,-73"/>
<text text-anchor="start" x="1290" y="-94" font-family="Helvetica,sans-Serif" font-size="10.00">examples/triangles</text>
<text text-anchor="middle" x="1331" y="-81" font-family="Helvetica,sans-Serif" font-size="10.00">/triangles.hpp</text>
</a>
</g>
<!-- Node11&#45;&gt;Node13 -->
<g id="edge40" class="edge"><title>Node11&#45;&gt;Node13</title>
<path fill="none" stroke="midnightblue" d="M1389.25,-144.464C1377.09,-133.1 1361.34,-118.37 1349.28,-107.094"/>
<polygon fill="midnightblue" stroke="midnightblue" points="1386.94,-147.103 1396.64,-151.376 1391.72,-141.99 1386.94,-147.103"/>
</g>
<!-- Node14 -->
<g id="node35" class="node"><title>Node14</title>
<a xlink:href="tpch__run_8cpp.html" target="_top" xlink:title="examples/tpch/tpch\l_run.cpp">
<polygon fill="none" stroke="black" points="1357,-1 1357,-35 1459,-35 1459,-1 1357,-1"/>
<text text-anchor="start" x="1365" y="-22" font-family="Helvetica,sans-Serif" font-size="10.00">examples/tpch/tpch</text>
<text text-anchor="middle" x="1408" y="-9" font-family="Helvetica,sans-Serif" font-size="10.00">_run.cpp</text>
</a>
</g>
<!-- Node11&#45;&gt;Node14 -->
<g id="edge46" class="edge"><title>Node11&#45;&gt;Node14</title>
<path fill="none" stroke="midnightblue" d="M1408,-141.045C1408,-112.38 1408,-61.4898 1408,-35.0353"/>
<polygon fill="midnightblue" stroke="midnightblue" points="1404.5,-141.177 1408,-151.177 1411.5,-141.177 1404.5,-141.177"/>
</g>
<!-- Node12&#45;&gt;Node6 -->
<g id="edge38" class="edge"><title>Node12&#45;&gt;Node6</title>
<path fill="none" stroke="midnightblue" d="M937.774,-66.2011C949.175,-56.0666 962.222,-44.4691 972.661,-35.19"/>
<polygon fill="midnightblue" stroke="midnightblue" points="935.345,-63.6774 930.196,-72.937 939.995,-68.9093 935.345,-63.6774"/>
</g>
<!-- Node13&#45;&gt;Node14 -->
<g id="edge42" class="edge"><title>Node13&#45;&gt;Node14</title>
<path fill="none" stroke="midnightblue" d="M1356.76,-65.9083C1367.53,-55.8438 1379.79,-44.3799 1389.62,-35.19"/>
<polygon fill="midnightblue" stroke="midnightblue" points="1354.16,-63.5505 1349.25,-72.937 1358.94,-68.6635 1354.16,-63.5505"/>
</g>
<!-- Node15 -->
<g id="node37" class="node"><title>Node15</title>
<a xlink:href="triangles__run_8cpp.html" target="_top" xlink:title="examples/triangles\l/triangles_run.cpp">
<polygon fill="none" stroke="black" points="1241,-1 1241,-35 1339,-35 1339,-1 1241,-1"/>
<text text-anchor="start" x="1249" y="-22" font-family="Helvetica,sans-Serif" font-size="10.00">examples/triangles</text>
<text text-anchor="middle" x="1290" y="-9" font-family="Helvetica,sans-Serif" font-size="10.00">/triangles_run.cpp</text>
</a>
</g>
<!-- Node13&#45;&gt;Node15 -->
<g id="edge44" class="edge"><title>Node13&#45;&gt;Node15</title>
<path fill="none" stroke="midnightblue" d="M1316.31,-64.2033C1310.87,-54.6583 1304.85,-44.0703 1299.93,-35.4407"/>
<polygon fill="midnightblue" stroke="midnightblue" points="1313.29,-65.9791 1321.28,-72.937 1319.38,-62.5152 1313.29,-65.9791"/>
</g>
<!-- Node16&#45;&gt;Node4 -->
<g id="edge50" class="edge"><title>Node16&#45;&gt;Node4</title>
<path fill="none" stroke="midnightblue" d="M1547.43,-153.132C1480.53,-142.994 1368.76,-125.528 1273,-108 1256.28,-104.94 1237.84,-101.222 1222.19,-97.9621"/>
<polygon fill="midnightblue" stroke="midnightblue" points="1546.96,-156.601 1557.37,-154.634 1548.01,-149.679 1546.96,-156.601"/>
</g>
<!-- Node17 -->
<g id="node43" class="node"><title>Node17</title>
<a xlink:href="dc3_8cpp.html" target="_top" xlink:title="examples/suffix_sorting\l/dc3.cpp">
<polygon fill="none" stroke="black" points="1562,-73 1562,-107 1682,-107 1682,-73 1562,-73"/>
<text text-anchor="start" x="1570" y="-94" font-family="Helvetica,sans-Serif" font-size="10.00">examples/suffix_sorting</text>
<text text-anchor="middle" x="1622" y="-81" font-family="Helvetica,sans-Serif" font-size="10.00">/dc3.cpp</text>
</a>
</g>
<!-- Node16&#45;&gt;Node17 -->
<g id="edge52" class="edge"><title>Node16&#45;&gt;Node17</title>
<path fill="none" stroke="midnightblue" d="M1611.28,-141.472C1613.54,-130.6 1616.29,-117.404 1618.44,-107.094"/>
<polygon fill="midnightblue" stroke="midnightblue" points="1607.83,-140.872 1609.21,-151.376 1614.68,-142.3 1607.83,-140.872"/>
</g>
<!-- Node18 -->
<g id="node45" class="node"><title>Node18</title>
<a xlink:href="dc7_8cpp.html" target="_top" xlink:title="examples/suffix_sorting\l/dc7.cpp">
<polygon fill="none" stroke="black" points="1712,-73 1712,-107 1832,-107 1832,-73 1712,-73"/>
<text text-anchor="start" x="1720" y="-94" font-family="Helvetica,sans-Serif" font-size="10.00">examples/suffix_sorting</text>
<text text-anchor="middle" x="1772" y="-81" font-family="Helvetica,sans-Serif" font-size="10.00">/dc7.cpp</text>
</a>
</g>
<!-- Node16&#45;&gt;Node18 -->
<g id="edge54" class="edge"><title>Node16&#45;&gt;Node18</title>
<path fill="none" stroke="midnightblue" d="M1640.67,-147.308C1667.38,-135.651 1704.77,-119.336 1732.83,-107.094"/>
<polygon fill="midnightblue" stroke="midnightblue" points="1639.11,-144.169 1631.35,-151.376 1641.91,-150.585 1639.11,-144.169"/>
</g>
<!-- Node19 -->
<g id="node47" class="node"><title>Node19</title>
<a xlink:href="prefix__doubling_8cpp.html" target="_top" xlink:title="examples/suffix_sorting\l/prefix_doubling.cpp">
<polygon fill="none" stroke="black" points="1850,-73 1850,-107 1970,-107 1970,-73 1850,-73"/>
<text text-anchor="start" x="1858" y="-94" font-family="Helvetica,sans-Serif" font-size="10.00">examples/suffix_sorting</text>
<text text-anchor="middle" x="1910" y="-81" font-family="Helvetica,sans-Serif" font-size="10.00">/prefix_doubling.cpp</text>
</a>
</g>
<!-- Node16&#45;&gt;Node19 -->
<g id="edge56" class="edge"><title>Node16&#45;&gt;Node19</title>
<path fill="none" stroke="midnightblue" d="M1648.72,-148.512C1654.17,-146.908 1659.7,-145.36 1665,-144 1742.33,-124.143 1763.23,-126.083 1841,-108 1843.89,-107.327 1846.85,-106.622 1849.84,-105.897"/>
<polygon fill="midnightblue" stroke="midnightblue" points="1647.61,-145.19 1639.05,-151.431 1649.64,-151.891 1647.61,-145.19"/>
</g>
<!-- Node20 -->
<g id="node49" class="node"><title>Node20</title>
<a xlink:href="prefix__quadrupling_8cpp.html" target="_top" xlink:title="examples/suffix_sorting\l/prefix_quadrupling.cpp">
<polygon fill="none" stroke="black" points="1988,-73 1988,-107 2108,-107 2108,-73 1988,-73"/>
<text text-anchor="start" x="1996" y="-94" font-family="Helvetica,sans-Serif" font-size="10.00">examples/suffix_sorting</text>
<text text-anchor="middle" x="2048" y="-81" font-family="Helvetica,sans-Serif" font-size="10.00">/prefix_quadrupling.cpp</text>
</a>
</g>
<!-- Node16&#45;&gt;Node20 -->
<g id="edge58" class="edge"><title>Node16&#45;&gt;Node20</title>
<path fill="none" stroke="midnightblue" d="M1646.99,-148.526C1652.98,-146.818 1659.12,-145.239 1665,-144 1802.46,-115.056 1840.92,-133.793 1979,-108 1981.92,-107.454 1984.9,-106.853 1987.9,-106.211"/>
<polygon fill="midnightblue" stroke="midnightblue" points="1645.7,-145.259 1637.12,-151.482 1647.71,-151.965 1645.7,-145.259"/>
</g>
<!-- Node22 -->
<g id="node53" class="node"><title>Node22</title>
<a xlink:href="reduce__pre__phase_8hpp.html" target="_top" xlink:title="thrill/core/reduce\l_pre_phase.hpp">
<polygon fill="none" stroke="black" points="755.5,-217 755.5,-251 844.5,-251 844.5,-217 755.5,-217"/>
<text text-anchor="start" x="763.5" y="-238" font-family="Helvetica,sans-Serif" font-size="10.00">thrill/core/reduce</text>
<text text-anchor="middle" x="800" y="-225" font-family="Helvetica,sans-Serif" font-size="10.00">_pre_phase.hpp</text>
</a>
</g>
<!-- Node21&#45;&gt;Node22 -->
<g id="edge62" class="edge"><title>Node21&#45;&gt;Node22</title>
<path fill="none" stroke="midnightblue" d="M932.999,-285.208C904.868,-274.377 870.892,-261.295 844.322,-251.065"/>
<polygon fill="midnightblue" stroke="midnightblue" points="932.094,-288.61 942.684,-288.937 934.609,-282.078 932.094,-288.61"/>
</g>
<!-- Node23 -->
<g id="node55" class="node"><title>Node23</title>
<a xlink:href="reduce__by__key_8hpp.html" target="_top" xlink:title="thrill/api/reduce_by\l_key.hpp">
<polygon fill="none" stroke="black" points="550,-145 550,-179 648,-179 648,-145 550,-145"/>
<text text-anchor="start" x="558" y="-166" font-family="Helvetica,sans-Serif" font-size="10.00">thrill/api/reduce_by</text>
<text text-anchor="middle" x="599" y="-153" font-family="Helvetica,sans-Serif" font-size="10.00">_key.hpp</text>
</a>
</g>
<!-- Node22&#45;&gt;Node23 -->
<g id="edge64" class="edge"><title>Node22&#45;&gt;Node23</title>
<path fill="none" stroke="midnightblue" d="M745.636,-214.526C714.721,-203.452 676.366,-189.713 646.638,-179.064"/>
<polygon fill="midnightblue" stroke="midnightblue" points="744.797,-217.944 755.392,-218.021 747.158,-211.354 744.797,-217.944"/>
</g>
<!-- Node33 -->
<g id="node77" class="node"><title>Node33</title>
<a xlink:href="reduce__to__index_8hpp.html" target="_top" xlink:title="thrill/api/reduce_to\l_index.hpp">
<polygon fill="none" stroke="black" points="752,-145 752,-179 848,-179 848,-145 752,-145"/>
<text text-anchor="start" x="760" y="-166" font-family="Helvetica,sans-Serif" font-size="10.00">thrill/api/reduce_to</text>
<text text-anchor="middle" x="800" y="-153" font-family="Helvetica,sans-Serif" font-size="10.00">_index.hpp</text>
</a>
</g>
<!-- Node22&#45;&gt;Node33 -->
<g id="edge88" class="edge"><title>Node22&#45;&gt;Node33</title>
<path fill="none" stroke="midnightblue" d="M800,-206.719C800,-197.572 800,-187.625 800,-179.441"/>
<polygon fill="midnightblue" stroke="midnightblue" points="796.5,-206.937 800,-216.937 803.5,-206.937 796.5,-206.937"/>
</g>
<!-- Node23&#45;&gt;Node4 -->
<g id="edge66" class="edge"><title>Node23&#45;&gt;Node4</title>
<path fill="none" stroke="midnightblue" d="M658.335,-154.127C684.3,-150.799 715.137,-147.007 743,-144 918.705,-125.037 967.002,-148.603 1139,-108 1146.51,-106.227 1154.43,-103.476 1161.53,-100.653"/>
<polygon fill="midnightblue" stroke="midnightblue" points="657.741,-150.674 648.27,-155.424 658.636,-157.617 657.741,-150.674"/>
</g>
<!-- Node23&#45;&gt;Node12 -->
<g id="edge72" class="edge"><title>Node23&#45;&gt;Node12</title>
<path fill="none" stroke="midnightblue" d="M657.928,-150.481C708.76,-140.256 784.023,-124.428 849,-108 851.717,-107.313 854.494,-106.589 857.294,-105.841"/>
<polygon fill="midnightblue" stroke="midnightblue" points="657.215,-147.054 648.097,-152.45 658.59,-153.918 657.215,-147.054"/>
</g>
<!-- Node24 -->
<g id="node58" class="node"><title>Node24</title>
<a xlink:href="k-means_8hpp.html" target="_top" xlink:title="examples/k&#45;means/k\l&#45;means.hpp">
<polygon fill="none" stroke="black" points="733.5,-73 733.5,-107 840.5,-107 840.5,-73 733.5,-73"/>
<text text-anchor="start" x="741.5" y="-94" font-family="Helvetica,sans-Serif" font-size="10.00">examples/k&#45;means/k</text>
<text text-anchor="middle" x="787" y="-81" font-family="Helvetica,sans-Serif" font-size="10.00">&#45;means.hpp</text>
</a>
</g>
<!-- Node23&#45;&gt;Node24 -->
<g id="edge68" class="edge"><title>Node23&#45;&gt;Node24</title>
<path fill="none" stroke="midnightblue" d="M652.92,-141.35C681.273,-130.491 715.613,-117.34 742.441,-107.065"/>
<polygon fill="midnightblue" stroke="midnightblue" points="651.64,-138.092 643.553,-144.937 654.144,-144.629 651.64,-138.092"/>
</g>
<!-- Node26 -->
<g id="node63" class="node"><title>Node26</title>
<a xlink:href="k-means__step3_8cpp.html" target="_top" xlink:title="examples/tutorial/k\l&#45;means_step3.cpp">
<polygon fill="none" stroke="black" points="-0.5,-73 -0.5,-107 98.5,-107 98.5,-73 -0.5,-73"/>
<text text-anchor="start" x="7.5" y="-94" font-family="Helvetica,sans-Serif" font-size="10.00">examples/tutorial/k</text>
<text text-anchor="middle" x="49" y="-81" font-family="Helvetica,sans-Serif" font-size="10.00">&#45;means_step3.cpp</text>
</a>
</g>
<!-- Node23&#45;&gt;Node26 -->
<g id="edge74" class="edge"><title>Node23&#45;&gt;Node26</title>
<path fill="none" stroke="midnightblue" d="M539.925,-159.177C446.976,-153.918 261.271,-140.095 107,-108 104.213,-107.42 101.369,-106.762 98.5102,-106.05"/>
<polygon fill="midnightblue" stroke="midnightblue" points="539.803,-162.676 549.981,-159.733 540.189,-155.686 539.803,-162.676"/>
</g>
<!-- Node27 -->
<g id="node65" class="node"><title>Node27</title>
<a xlink:href="k-means__step4_8cpp.html" target="_top" xlink:title="examples/tutorial/k\l&#45;means_step4.cpp">
<polygon fill="none" stroke="black" points="115.5,-73 115.5,-107 214.5,-107 214.5,-73 115.5,-73"/>
<text text-anchor="start" x="123.5" y="-94" font-family="Helvetica,sans-Serif" font-size="10.00">examples/tutorial/k</text>
<text text-anchor="middle" x="165" y="-81" font-family="Helvetica,sans-Serif" font-size="10.00">&#45;means_step4.cpp</text>
</a>
</g>
<!-- Node23&#45;&gt;Node27 -->
<g id="edge76" class="edge"><title>Node23&#45;&gt;Node27</title>
<path fill="none" stroke="midnightblue" d="M539.748,-156.421C465.216,-148.735 333.596,-132.938 223,-108 220.223,-107.374 217.387,-106.68 214.534,-105.938"/>
<polygon fill="midnightblue" stroke="midnightblue" points="539.575,-159.921 549.878,-157.452 540.283,-152.957 539.575,-159.921"/>
</g>
<!-- Node28 -->
<g id="node67" class="node"><title>Node28</title>
<a xlink:href="k-means__step5_8cpp.html" target="_top" xlink:title="examples/tutorial/k\l&#45;means_step5.cpp">
<polygon fill="none" stroke="black" points="231.5,-73 231.5,-107 330.5,-107 330.5,-73 231.5,-73"/>
<text text-anchor="start" x="239.5" y="-94" font-family="Helvetica,sans-Serif" font-size="10.00">examples/tutorial/k</text>
<text text-anchor="middle" x="281" y="-81" font-family="Helvetica,sans-Serif" font-size="10.00">&#45;means_step5.cpp</text>
</a>
</g>
<!-- Node23&#45;&gt;Node28 -->
<g id="edge78" class="edge"><title>Node23&#45;&gt;Node28</title>
<path fill="none" stroke="midnightblue" d="M539.904,-151.404C486.961,-141.515 407.352,-125.661 339,-108 336.244,-107.288 333.424,-106.526 330.584,-105.732"/>
<polygon fill="midnightblue" stroke="midnightblue" points="539.327,-154.857 549.797,-153.241 540.604,-147.975 539.327,-154.857"/>
</g>
<!-- Node29 -->
<g id="node69" class="node"><title>Node29</title>
<a xlink:href="k-means__step6_8cpp.html" target="_top" xlink:title="examples/tutorial/k\l&#45;means_step6.cpp">
<polygon fill="none" stroke="black" points="487.5,-73 487.5,-107 586.5,-107 586.5,-73 487.5,-73"/>
<text text-anchor="start" x="495.5" y="-94" font-family="Helvetica,sans-Serif" font-size="10.00">examples/tutorial/k</text>
<text text-anchor="middle" x="537" y="-81" font-family="Helvetica,sans-Serif" font-size="10.00">&#45;means_step6.cpp</text>
</a>
</g>
<!-- Node23&#45;&gt;Node29 -->
<g id="edge80" class="edge"><title>Node23&#45;&gt;Node29</title>
<path fill="none" stroke="midnightblue" d="M577.546,-137.086C569.132,-127.315 559.679,-116.337 552.018,-107.441"/>
<polygon fill="midnightblue" stroke="midnightblue" points="575.129,-139.643 584.307,-144.937 580.434,-135.075 575.129,-139.643"/>
</g>
<!-- Node30 -->
<g id="node71" class="node"><title>Node30</title>
<a xlink:href="word__count_8hpp.html" target="_top" xlink:title="examples/word_count\l/word_count.hpp">
<polygon fill="none" stroke="black" points="604,-73 604,-107 716,-107 716,-73 604,-73"/>
<text text-anchor="start" x="612" y="-94" font-family="Helvetica,sans-Serif" font-size="10.00">examples/word_count</text>
<text text-anchor="middle" x="660" y="-81" font-family="Helvetica,sans-Serif" font-size="10.00">/word_count.hpp</text>
</a>
</g>
<!-- Node23&#45;&gt;Node30 -->
<g id="edge82" class="edge"><title>Node23&#45;&gt;Node30</title>
<path fill="none" stroke="midnightblue" d="M620.108,-137.086C628.386,-127.315 637.687,-116.337 645.224,-107.441"/>
<polygon fill="midnightblue" stroke="midnightblue" points="617.25,-135.045 613.456,-144.937 622.591,-139.57 617.25,-135.045"/>
</g>
<!-- Node32 -->
<g id="node75" class="node"><title>Node32</title>
<a xlink:href="word__count__simple_8cpp.html" target="_top" xlink:title="examples/word_count\l/word_count_simple.cpp">
<polygon fill="none" stroke="black" points="348,-73 348,-107 470,-107 470,-73 348,-73"/>
<text text-anchor="start" x="356" y="-94" font-family="Helvetica,sans-Serif" font-size="10.00">examples/word_count</text>
<text text-anchor="middle" x="409" y="-81" font-family="Helvetica,sans-Serif" font-size="10.00">/word_count_simple.cpp</text>
</a>
</g>
<!-- Node23&#45;&gt;Node32 -->
<g id="edge86" class="edge"><title>Node23&#45;&gt;Node32</title>
<path fill="none" stroke="midnightblue" d="M544.507,-141.35C515.852,-130.491 481.147,-117.34 454.033,-107.065"/>
<polygon fill="midnightblue" stroke="midnightblue" points="543.381,-144.666 553.973,-144.937 545.862,-138.12 543.381,-144.666"/>
</g>
<!-- Node25 -->
<g id="node60" class="node"><title>Node25</title>
<a xlink:href="k-means__run_8cpp.html" target="_top" xlink:title="examples/k&#45;means/k\l&#45;means_run.cpp">
<polygon fill="none" stroke="black" points="733.5,-1 733.5,-35 840.5,-35 840.5,-1 733.5,-1"/>
<text text-anchor="start" x="741.5" y="-22" font-family="Helvetica,sans-Serif" font-size="10.00">examples/k&#45;means/k</text>
<text text-anchor="middle" x="787" y="-9" font-family="Helvetica,sans-Serif" font-size="10.00">&#45;means_run.cpp</text>
</a>
</g>
<!-- Node24&#45;&gt;Node25 -->
<g id="edge70" class="edge"><title>Node24&#45;&gt;Node25</title>
<path fill="none" stroke="midnightblue" d="M787,-62.7193C787,-53.572 787,-43.6255 787,-35.4407"/>
<polygon fill="midnightblue" stroke="midnightblue" points="783.5,-62.937 787,-72.937 790.5,-62.937 783.5,-62.937"/>
</g>
<!-- Node31 -->
<g id="node73" class="node"><title>Node31</title>
<a xlink:href="word__count__run_8cpp.html" target="_top" xlink:title="examples/word_count\l/word_count_run.cpp">
<polygon fill="none" stroke="black" points="604,-1 604,-35 716,-35 716,-1 604,-1"/>
<text text-anchor="start" x="612" y="-22" font-family="Helvetica,sans-Serif" font-size="10.00">examples/word_count</text>
<text text-anchor="middle" x="660" y="-9" font-family="Helvetica,sans-Serif" font-size="10.00">/word_count_run.cpp</text>
</a>
</g>
<!-- Node30&#45;&gt;Node31 -->
<g id="edge84" class="edge"><title>Node30&#45;&gt;Node31</title>
<path fill="none" stroke="midnightblue" d="M660,-62.7193C660,-53.572 660,-43.6255 660,-35.4407"/>
<polygon fill="midnightblue" stroke="midnightblue" points="656.5,-62.937 660,-72.937 663.5,-62.937 656.5,-62.937"/>
</g>
<!-- Node33&#45;&gt;Node4 -->
<g id="edge90" class="edge"><title>Node33&#45;&gt;Node4</title>
<path fill="none" stroke="midnightblue" d="M857.938,-144.032C982.295,-117.97 1019.69,-138.464 1139,-108 1146.31,-106.133 1154.03,-103.423 1161.02,-100.669"/>
<polygon fill="midnightblue" stroke="midnightblue" points="857.076,-140.637 848.038,-146.165 858.551,-147.48 857.076,-140.637"/>
</g>
<!-- Node33&#45;&gt;Node5 -->
<g id="edge92" class="edge"><title>Node33&#45;&gt;Node5</title>
<path fill="none" stroke="midnightblue" d="M858.071,-143.778C922.572,-125.814 986.731,-110.359 1028.85,-100.54"/>
<polygon fill="midnightblue" stroke="midnightblue" points="856.821,-140.493 848.138,-146.564 858.712,-147.233 856.821,-140.493"/>
</g>
<!-- Node33&#45;&gt;Node12 -->
<g id="edge94" class="edge"><title>Node33&#45;&gt;Node12</title>
<path fill="none" stroke="midnightblue" d="M834.898,-139.364C850.933,-128.962 869.643,-116.826 884.499,-107.19"/>
<polygon fill="midnightblue" stroke="midnightblue" points="832.79,-136.559 826.305,-144.937 836.6,-142.431 832.79,-136.559"/>
</g>
<!-- Node34&#45;&gt;Node4 -->
<g id="edge98" class="edge"><title>Node34&#45;&gt;Node4</title>
<path fill="none" stroke="midnightblue" d="M1899.09,-231.213C1758.5,-223.784 1393.03,-202.536 1343,-180 1321.79,-170.444 1324.32,-156.955 1305,-144 1276.82,-125.108 1240.96,-109.963 1215.8,-100.575"/>
<polygon fill="midnightblue" stroke="midnightblue" points="1899.05,-234.715 1909.22,-231.744 1899.41,-227.725 1899.05,-234.715"/>
</g>
<!-- Node34&#45;&gt;Node5 -->
<g id="edge100" class="edge"><title>Node34&#45;&gt;Node5</title>
<path fill="none" stroke="midnightblue" d="M1899.06,-231.885C1735.73,-225.347 1260.43,-204.425 1195,-180 1148.16,-162.514 1104.08,-120.632 1084.97,-100.784"/>
<polygon fill="midnightblue" stroke="midnightblue" points="1899.23,-235.394 1909.36,-232.295 1899.51,-228.4 1899.23,-235.394"/>
</g>
<!-- Node34&#45;&gt;Node7 -->
<g id="edge102" class="edge"><title>Node34&#45;&gt;Node7</title>
<path fill="none" stroke="midnightblue" d="M1899.13,-232.932C1800.08,-230.032 1596.38,-219.322 1539,-180 1513.76,-162.701 1500.32,-128.02 1494.21,-107.123"/>
<polygon fill="midnightblue" stroke="midnightblue" points="1899.15,-236.434 1909.24,-233.211 1899.34,-229.436 1899.15,-236.434"/>
</g>
<!-- Node34&#45;&gt;Node17 -->
<g id="edge130" class="edge"><title>Node34&#45;&gt;Node17</title>
<path fill="none" stroke="midnightblue" d="M1899.08,-230.643C1793.75,-223.644 1571.72,-205.954 1549,-180 1538.46,-167.962 1541.8,-158.287 1549,-144 1553.97,-134.146 1575.33,-118.92 1593.68,-107.145"/>
<polygon fill="midnightblue" stroke="midnightblue" points="1898.99,-234.145 1909.2,-231.307 1899.45,-227.16 1898.99,-234.145"/>
</g>
<!-- Node34&#45;&gt;Node18 -->
<g id="edge132" class="edge"><title>Node34&#45;&gt;Node18</title>
<path fill="none" stroke="midnightblue" d="M1912.64,-219.715C1889.99,-210.604 1862.28,-197.253 1841,-180 1815.31,-159.169 1793.62,-126.919 1781.75,-107.209"/>
<polygon fill="midnightblue" stroke="midnightblue" points="1911.42,-222.994 1922,-223.359 1913.95,-216.471 1911.42,-222.994"/>
</g>
<!-- Node34&#45;&gt;Node19 -->
<g id="edge134" class="edge"><title>Node34&#45;&gt;Node19</title>
<path fill="none" stroke="midnightblue" d="M1967.07,-214.75C1978.03,-196.014 1990.24,-167.072 1979,-144 1971.4,-128.411 1956.89,-115.997 1943.13,-107.023"/>
<polygon fill="midnightblue" stroke="midnightblue" points="1964.06,-212.958 1961.73,-223.295 1970,-216.663 1964.06,-212.958"/>
</g>
<!-- Node34&#45;&gt;Node20 -->
<g id="edge136" class="edge"><title>Node34&#45;&gt;Node20</title>
<path fill="none" stroke="midnightblue" d="M2008.73,-232.197C2133.25,-227.533 2429.3,-213.049 2459,-180 2469.7,-168.1 2469.55,-156.028 2459,-144 2436.25,-118.065 2216.99,-100.686 2108.37,-93.596"/>
<polygon fill="midnightblue" stroke="midnightblue" points="2008.51,-228.703 1998.64,-232.568 2008.76,-235.698 2008.51,-228.703"/>
</g>
<!-- Node35 -->
<g id="node87" class="node"><title>Node35</title>
<a xlink:href="check__sa_8hpp.html" target="_top" xlink:title="examples/suffix_sorting\l/check_sa.hpp">
<polygon fill="none" stroke="black" points="1850,-145 1850,-179 1970,-179 1970,-145 1850,-145"/>
<text text-anchor="start" x="1858" y="-166" font-family="Helvetica,sans-Serif" font-size="10.00">examples/suffix_sorting</text>
<text text-anchor="middle" x="1910" y="-153" font-family="Helvetica,sans-Serif" font-size="10.00">/check_sa.hpp</text>
</a>
</g>
<!-- Node34&#45;&gt;Node35 -->
<g id="edge104" class="edge"><title>Node34&#45;&gt;Node35</title>
<path fill="none" stroke="midnightblue" d="M1942.28,-214.819C1935.49,-203.705 1927.01,-189.833 1920.45,-179.094"/>
<polygon fill="midnightblue" stroke="midnightblue" points="1939.31,-216.668 1947.51,-223.376 1945.28,-213.018 1939.31,-216.668"/>
</g>
<!-- Node37 -->
<g id="node95" class="node"><title>Node37</title>
<a xlink:href="construct__bwt_8hpp.html" target="_top" xlink:title="examples/suffix_sorting\l/construct_bwt.hpp">
<polygon fill="none" stroke="black" points="2506,-145 2506,-179 2626,-179 2626,-145 2506,-145"/>
<text text-anchor="start" x="2514" y="-166" font-family="Helvetica,sans-Serif" font-size="10.00">examples/suffix_sorting</text>
<text text-anchor="middle" x="2566" y="-153" font-family="Helvetica,sans-Serif" font-size="10.00">/construct_bwt.hpp</text>
</a>
</g>
<!-- Node34&#45;&gt;Node37 -->
<g id="edge116" class="edge"><title>Node34&#45;&gt;Node37</title>
<path fill="none" stroke="midnightblue" d="M2008.78,-231.016C2106.44,-225.139 2316.79,-209.953 2492,-180 2496.56,-179.22 2501.26,-178.317 2505.97,-177.339"/>
<polygon fill="midnightblue" stroke="midnightblue" points="2008.34,-227.536 1998.57,-231.622 2008.76,-234.524 2008.34,-227.536"/>
</g>
<!-- Node38 -->
<g id="node98" class="node"><title>Node38</title>
<a xlink:href="construct__lcp_8hpp.html" target="_top" xlink:title="examples/suffix_sorting\l/construct_lcp.hpp">
<polygon fill="none" stroke="black" points="2644,-145 2644,-179 2764,-179 2764,-145 2644,-145"/>
<text text-anchor="start" x="2652" y="-166" font-family="Helvetica,sans-Serif" font-size="10.00">examples/suffix_sorting</text>
<text text-anchor="middle" x="2704" y="-153" font-family="Helvetica,sans-Serif" font-size="10.00">/construct_lcp.hpp</text>
</a>
</g>
<!-- Node34&#45;&gt;Node38 -->
<g id="edge120" class="edge"><title>Node34&#45;&gt;Node38</title>
<path fill="none" stroke="midnightblue" d="M2008.61,-232.925C2124.7,-229.929 2404.27,-218.931 2635,-180 2637.93,-179.506 2640.92,-178.946 2643.92,-178.337"/>
<polygon fill="midnightblue" stroke="midnightblue" points="2008.46,-229.428 1998.55,-233.175 2008.63,-236.426 2008.46,-229.428"/>
</g>
<!-- Node39 -->
<g id="node101" class="node"><title>Node39</title>
<a xlink:href="construct__wt_8hpp.html" target="_top" xlink:title="examples/suffix_sorting\l/construct_wt.hpp">
<polygon fill="none" stroke="black" points="2782,-145 2782,-179 2902,-179 2902,-145 2782,-145"/>
<text text-anchor="start" x="2790" y="-166" font-family="Helvetica,sans-Serif" font-size="10.00">examples/suffix_sorting</text>
<text text-anchor="middle" x="2842" y="-153" font-family="Helvetica,sans-Serif" font-size="10.00">/construct_wt.hpp</text>
</a>
</g>
<!-- Node34&#45;&gt;Node39 -->
<g id="edge124" class="edge"><title>Node34&#45;&gt;Node39</title>
<path fill="none" stroke="midnightblue" d="M2008.66,-231.749C2167.15,-225.007 2625.03,-203.956 2773,-180 2775.93,-179.525 2778.92,-178.981 2781.93,-178.385"/>
<polygon fill="midnightblue" stroke="midnightblue" points="2008.5,-228.252 1998.66,-232.172 2008.8,-235.246 2008.5,-228.252"/>
</g>
<!-- Node41 -->
<g id="node110" class="node"><title>Node41</title>
<a xlink:href="rl__bwt_8cpp.html" target="_top" xlink:title="examples/suffix_sorting\l/rl_bwt.cpp">
<polygon fill="none" stroke="black" points="1674,-145 1674,-179 1794,-179 1794,-145 1674,-145"/>
<text text-anchor="start" x="1682" y="-166" font-family="Helvetica,sans-Serif" font-size="10.00">examples/suffix_sorting</text>
<text text-anchor="middle" x="1734" y="-153" font-family="Helvetica,sans-Serif" font-size="10.00">/rl_bwt.cpp</text>
</a>
</g>
<!-- Node34&#45;&gt;Node41 -->
<g id="edge138" class="edge"><title>Node34&#45;&gt;Node41</title>
<path fill="none" stroke="midnightblue" d="M1911.89,-220.219C1876.12,-208.512 1824.62,-191.659 1786.23,-179.094"/>
<polygon fill="midnightblue" stroke="midnightblue" points="1910.95,-223.592 1921.54,-223.376 1913.12,-216.939 1910.95,-223.592"/>
</g>
<!-- Node42 -->
<g id="node112" class="node"><title>Node42</title>
<a xlink:href="wavelet__tree_8cpp.html" target="_top" xlink:title="examples/suffix_sorting\l/wavelet_tree.cpp">
<polygon fill="none" stroke="black" points="2026,-145 2026,-179 2146,-179 2146,-145 2026,-145"/>
<text text-anchor="start" x="2034" y="-166" font-family="Helvetica,sans-Serif" font-size="10.00">examples/suffix_sorting</text>
<text text-anchor="middle" x="2086" y="-153" font-family="Helvetica,sans-Serif" font-size="10.00">/wavelet_tree.cpp</text>
</a>
</g>
<!-- Node34&#45;&gt;Node42 -->
<g id="edge140" class="edge"><title>Node34&#45;&gt;Node42</title>
<path fill="none" stroke="midnightblue" d="M1982.35,-218.535C2003.62,-206.937 2032.71,-191.068 2054.66,-179.094"/>
<polygon fill="midnightblue" stroke="midnightblue" points="1980.58,-215.515 1973.48,-223.376 1983.93,-221.66 1980.58,-215.515"/>
</g>
<!-- Node43 -->
<g id="node114" class="node"><title>Node43</title>
<a xlink:href="wavelet__tree2_8cpp.html" target="_top" xlink:title="examples/suffix_sorting\l/wavelet_tree2.cpp">
<polygon fill="none" stroke="black" points="2164,-145 2164,-179 2284,-179 2284,-145 2164,-145"/>
<text text-anchor="start" x="2172" y="-166" font-family="Helvetica,sans-Serif" font-size="10.00">examples/suffix_sorting</text>
<text text-anchor="middle" x="2224" y="-153" font-family="Helvetica,sans-Serif" font-size="10.00">/wavelet_tree2.cpp</text>
</a>
</g>
<!-- Node34&#45;&gt;Node43 -->
<g id="edge142" class="edge"><title>Node34&#45;&gt;Node43</title>
<path fill="none" stroke="midnightblue" d="M2003.41,-220.823C2048.61,-208.771 2115.58,-190.911 2163.87,-178.035"/>
<polygon fill="midnightblue" stroke="midnightblue" points="2002.31,-217.495 1993.55,-223.453 2004.11,-224.259 2002.31,-217.495"/>
</g>
<!-- Node44 -->
<g id="node116" class="node"><title>Node44</title>
<a xlink:href="terasort_8cpp.html" target="_top" xlink:title="examples/terasort/terasort.cpp">
<polygon fill="none" stroke="black" points="2301.5,-151.5 2301.5,-172.5 2450.5,-172.5 2450.5,-151.5 2301.5,-151.5"/>
<text text-anchor="middle" x="2376" y="-159.5" font-family="Helvetica,sans-Serif" font-size="10.00">examples/terasort/terasort.cpp</text>
</a>
</g>
<!-- Node34&#45;&gt;Node44 -->
<g id="edge144" class="edge"><title>Node34&#45;&gt;Node44</title>
<path fill="none" stroke="midnightblue" d="M2008.49,-226.274C2075.6,-216.538 2193,-198.793 2293,-180 2304.88,-177.767 2317.67,-175.118 2329.56,-172.548"/>
<polygon fill="midnightblue" stroke="midnightblue" points="2007.96,-222.814 1998.56,-227.709 2008.96,-229.742 2007.96,-222.814"/>
</g>
<!-- Node35&#45;&gt;Node17 -->
<g id="edge106" class="edge"><title>Node35&#45;&gt;Node17</title>
<path fill="none" stroke="midnightblue" d="M1840.24,-144.56C1792.02,-132.504 1728.51,-116.627 1682.44,-105.11"/>
<polygon fill="midnightblue" stroke="midnightblue" points="1839.43,-147.964 1849.98,-146.994 1841.12,-141.173 1839.43,-147.964"/>
</g>
<!-- Node35&#45;&gt;Node18 -->
<g id="edge108" class="edge"><title>Node35&#45;&gt;Node18</title>
<path fill="none" stroke="midnightblue" d="M1868.27,-140.226C1847.97,-129.638 1823.93,-117.094 1804.95,-107.19"/>
<polygon fill="midnightblue" stroke="midnightblue" points="1866.81,-143.414 1877.3,-144.937 1870.05,-137.208 1866.81,-143.414"/>
</g>
<!-- Node35&#45;&gt;Node19 -->
<g id="edge110" class="edge"><title>Node35&#45;&gt;Node19</title>
<path fill="none" stroke="midnightblue" d="M1910,-134.719C1910,-125.572 1910,-115.625 1910,-107.441"/>
<polygon fill="midnightblue" stroke="midnightblue" points="1906.5,-134.937 1910,-144.937 1913.5,-134.937 1906.5,-134.937"/>
</g>
<!-- Node35&#45;&gt;Node20 -->
<g id="edge112" class="edge"><title>Node35&#45;&gt;Node20</title>
<path fill="none" stroke="midnightblue" d="M1951.73,-140.226C1972.03,-129.638 1996.07,-117.094 2015.05,-107.19"/>
<polygon fill="midnightblue" stroke="midnightblue" points="1949.95,-137.208 1942.7,-144.937 1953.19,-143.414 1949.95,-137.208"/>
</g>
<!-- Node36 -->
<g id="node93" class="node"><title>Node36</title>
<a xlink:href="suffix__sorting_8cpp.html" target="_top" xlink:title="examples/suffix_sorting\l/suffix_sorting.cpp">
<polygon fill="none" stroke="black" points="2575,-73 2575,-107 2695,-107 2695,-73 2575,-73"/>
<text text-anchor="start" x="2583" y="-94" font-family="Helvetica,sans-Serif" font-size="10.00">examples/suffix_sorting</text>
<text text-anchor="middle" x="2635" y="-81" font-family="Helvetica,sans-Serif" font-size="10.00">/suffix_sorting.cpp</text>
</a>
</g>
<!-- Node35&#45;&gt;Node36 -->
<g id="edge114" class="edge"><title>Node35&#45;&gt;Node36</title>
<path fill="none" stroke="midnightblue" d="M1980.29,-149.357C1992.5,-147.395 2005.1,-145.518 2017,-144 2220.79,-117.998 2464,-100.764 2574.74,-93.6683"/>
<polygon fill="midnightblue" stroke="midnightblue" points="1979.45,-145.949 1970.14,-151.02 1980.58,-152.857 1979.45,-145.949"/>
</g>
<!-- Node37&#45;&gt;Node36 -->
<g id="edge118" class="edge"><title>Node37&#45;&gt;Node36</title>
<path fill="none" stroke="midnightblue" d="M2589.32,-137.671C2598.82,-127.755 2609.59,-116.515 2618.29,-107.441"/>
<polygon fill="midnightblue" stroke="midnightblue" points="2586.74,-135.295 2582.35,-144.937 2591.8,-140.139 2586.74,-135.295"/>
</g>
<!-- Node38&#45;&gt;Node36 -->
<g id="edge122" class="edge"><title>Node38&#45;&gt;Node36</title>
<path fill="none" stroke="midnightblue" d="M2680.68,-137.671C2671.18,-127.755 2660.41,-116.515 2651.71,-107.441"/>
<polygon fill="midnightblue" stroke="midnightblue" points="2678.2,-140.139 2687.65,-144.937 2683.26,-135.295 2678.2,-140.139"/>
</g>
<!-- Node39&#45;&gt;Node36 -->
<g id="edge126" class="edge"><title>Node39&#45;&gt;Node36</title>
<path fill="none" stroke="midnightblue" d="M2783.44,-141.633C2752.07,-130.72 2713.86,-117.429 2684.06,-107.065"/>
<polygon fill="midnightblue" stroke="midnightblue" points="2782.35,-144.957 2792.94,-144.937 2784.65,-138.346 2782.35,-144.957"/>
</g>
<!-- Node40 -->
<g id="node104" class="node"><title>Node40</title>
<a xlink:href="wavelet__tree3_8cpp.html" target="_top" xlink:title="examples/suffix_sorting\l/wavelet_tree3.cpp">
<polygon fill="none" stroke="black" points="2782,-73 2782,-107 2902,-107 2902,-73 2782,-73"/>
<text text-anchor="start" x="2790" y="-94" font-family="Helvetica,sans-Serif" font-size="10.00">examples/suffix_sorting</text>
<text text-anchor="middle" x="2842" y="-81" font-family="Helvetica,sans-Serif" font-size="10.00">/wavelet_tree3.cpp</text>
</a>
</g>
<!-- Node39&#45;&gt;Node40 -->
<g id="edge128" class="edge"><title>Node39&#45;&gt;Node40</title>
<path fill="none" stroke="midnightblue" d="M2842,-134.719C2842,-125.572 2842,-115.625 2842,-107.441"/>
<polygon fill="midnightblue" stroke="midnightblue" points="2838.5,-134.937 2842,-144.937 2845.5,-134.937 2838.5,-134.937"/>
</g>
</g>
</svg>
