<?xml version="1.0" encoding="UTF-8" standalone="no"?>
<!DOCTYPE svg PUBLIC "-//W3C//DTD SVG 1.1//EN"
 "http://www.w3.org/Graphics/SVG/1.1/DTD/svg11.dtd">
<!-- Generated by graphviz version 2.26.3 (20100126.1600)
 -->
<!-- Title: thrill/data/multiplexer_header.hpp Pages: 1 -->
<svg width="528pt" height="116pt"
 viewBox="0.00 0.00 528.00 116.00" xmlns="http://www.w3.org/2000/svg" xmlns:xlink="http://www.w3.org/1999/xlink">
<g id="graph1" class="graph" transform="scale(1 1) rotate(0) translate(4 112)">
<title>thrill/data/multiplexer_header.hpp</title>
<!-- Node1 -->
<g id="node1" class="node"><title>Node1</title>
<polygon fill="#bfbfbf" stroke="black" points="226.5,-73 226.5,-107 333.5,-107 333.5,-73 226.5,-73"/>
<text text-anchor="start" x="234.5" y="-94" font-family="Helvetica,sans-Serif" font-size="10.00">thrill/data/multiplexer</text>
<text text-anchor="middle" x="280" y="-81" font-family="Helvetica,sans-Serif" font-size="10.00">_header.hpp</text>
</g>
<!-- Node2 -->
<g id="node3" class="node"><title>Node2</title>
<a xlink:href="cat__stream_8cpp.html" target="_top" xlink:title="thrill/data/cat_stream.cpp">
<polygon fill="none" stroke="black" points="-0.5,-7.5 -0.5,-28.5 126.5,-28.5 126.5,-7.5 -0.5,-7.5"/>
<text text-anchor="middle" x="63" y="-15.5" font-family="Helvetica,sans-Serif" font-size="10.00">thrill/data/cat_stream.cpp</text>
</a>
</g>
<!-- Node1&#45;&gt;Node2 -->
<g id="edge2" class="edge"><title>Node1&#45;&gt;Node2</title>
<path fill="none" stroke="midnightblue" d="M218.84,-69.7072C178.526,-56.3311 127.365,-39.3562 94.8934,-28.5821"/>
<polygon fill="midnightblue" stroke="midnightblue" points="217.981,-73.1097 228.574,-72.937 220.185,-66.4659 217.981,-73.1097"/>
</g>
<!-- Node3 -->
<g id="node5" class="node"><title>Node3</title>
<a xlink:href="mix__stream_8cpp.html" target="_top" xlink:title="thrill/data/mix_stream.cpp">
<polygon fill="none" stroke="black" points="143.5,-7.5 143.5,-28.5 272.5,-28.5 272.5,-7.5 143.5,-7.5"/>
<text text-anchor="middle" x="208" y="-15.5" font-family="Helvetica,sans-Serif" font-size="10.00">thrill/data/mix_stream.cpp</text>
</a>
</g>
<!-- Node1&#45;&gt;Node3 -->
<g id="edge4" class="edge"><title>Node1&#45;&gt;Node3</title>
<path fill="none" stroke="midnightblue" d="M255.516,-65.5161C243.073,-53.0732 228.579,-38.5787 218.901,-28.901"/>
<polygon fill="midnightblue" stroke="midnightblue" points="253.391,-68.3408 262.937,-72.937 258.341,-63.391 253.391,-68.3408"/>
</g>
<!-- Node4 -->
<g id="node7" class="node"><title>Node4</title>
<a xlink:href="multiplexer_8cpp.html" target="_top" xlink:title="thrill/data/multiplexer.cpp">
<polygon fill="none" stroke="black" points="289.5,-7.5 289.5,-28.5 414.5,-28.5 414.5,-7.5 289.5,-7.5"/>
<text text-anchor="middle" x="352" y="-15.5" font-family="Helvetica,sans-Serif" font-size="10.00">thrill/data/multiplexer.cpp</text>
</a>
</g>
<!-- Node1&#45;&gt;Node4 -->
<g id="edge6" class="edge"><title>Node1&#45;&gt;Node4</title>
<path fill="none" stroke="midnightblue" d="M304.484,-65.5161C316.927,-53.0732 331.421,-38.5787 341.099,-28.901"/>
<polygon fill="midnightblue" stroke="midnightblue" points="301.659,-63.391 297.063,-72.937 306.609,-68.3408 301.659,-63.391"/>
</g>
<!-- Node5 -->
<g id="node9" class="node"><title>Node5</title>
<a xlink:href="stream__sink_8cpp.html" target="_top" xlink:title="thrill/data/stream\l_sink.cpp">
<polygon fill="none" stroke="black" points="431.5,-1 431.5,-35 520.5,-35 520.5,-1 431.5,-1"/>
<text text-anchor="start" x="439.5" y="-22" font-family="Helvetica,sans-Serif" font-size="10.00">thrill/data/stream</text>
<text text-anchor="middle" x="476" y="-9" font-family="Helvetica,sans-Serif" font-size="10.00">_sink.cpp</text>
</a>
</g>
<!-- Node1&#45;&gt;Node5 -->
<g id="edge8" class="edge"><title>Node1&#45;&gt;Node5</title>
<path fill="none" stroke="midnightblue" d="M336.004,-69.4271C366.202,-58.334 402.961,-44.8307 431.233,-34.4449"/>
<polygon fill="midnightblue" stroke="midnightblue" points="334.629,-66.2034 326.449,-72.937 337.043,-72.7741 334.629,-66.2034"/>
</g>
</g>
</svg>
