<?xml version="1.0" encoding="UTF-8" standalone="no"?>
<!DOCTYPE svg PUBLIC "-//W3C//DTD SVG 1.1//EN"
 "http://www.w3.org/Graphics/SVG/1.1/DTD/svg11.dtd">
<!-- Generated by graphviz version 2.36.0 (20140111.2315)
 -->
<!-- Title: extlib/tlx/tlx/string/pad.cpp Pages: 1 -->
<svg width="102pt" height="152pt"
 viewBox="0.00 0.00 102.00 152.00" xmlns="http://www.w3.org/2000/svg" xmlns:xlink="http://www.w3.org/1999/xlink">
<g id="graph0" class="graph" transform="scale(1 1) rotate(0) translate(4 148)">
<title>extlib/tlx/tlx/string/pad.cpp</title>
<!-- Node1 -->
<g id="node1" class="node"><title>Node1</title>
<polygon fill="#bfbfbf" stroke="black" points="0,-113 0,-143 94,-143 94,-113 0,-113"/>
<text text-anchor="start" x="8" y="-131" font-family="Helvetica,sans-Serif" font-size="10.00">extlib/tlx/tlx/string</text>
<text text-anchor="middle" x="47" y="-120" font-family="Helvetica,sans-Serif" font-size="10.00">/pad.cpp</text>
</g>
<!-- Node2 -->
<g id="node2" class="node"><title>Node2</title>
<g id="a_node2"><a xlink:href="pad_8hpp.html" target="_top" xlink:title="tlx/string/pad.hpp">
<polygon fill="none" stroke="black" points="1,-56.5 1,-75.5 93,-75.5 93,-56.5 1,-56.5"/>
<text text-anchor="middle" x="47" y="-63.5" font-family="Helvetica,sans-Serif" font-size="10.00">tlx/string/pad.hpp</text>
</a>
</g>
</g>
<!-- Node1&#45;&gt;Node2 -->
<g id="edge1" class="edge"><title>Node1&#45;&gt;Node2</title>
<path fill="none" stroke="midnightblue" d="M47,-112.781C47,-104.781 47,-94.6887 47,-86.0168"/>
<polygon fill="midnightblue" stroke="midnightblue" points="50.5001,-85.7305 47,-75.7305 43.5001,-85.7306 50.5001,-85.7305"/>
</g>
<!-- Node3 -->
<g id="node3" class="node"><title>Node3</title>
<polygon fill="none" stroke="#bfbfbf" points="26.5,-0.5 26.5,-19.5 67.5,-19.5 67.5,-0.5 26.5,-0.5"/>
<text text-anchor="middle" x="47" y="-7.5" font-family="Helvetica,sans-Serif" font-size="10.00">string</text>
</g>
<!-- Node2&#45;&gt;Node3 -->
<g id="edge2" class="edge"><title>Node2&#45;&gt;Node3</title>
<path fill="none" stroke="midnightblue" d="M47,-56.083C47,-49.0059 47,-38.8611 47,-29.9865"/>
<polygon fill="midnightblue" stroke="midnightblue" points="50.5001,-29.751 47,-19.7511 43.5001,-29.7511 50.5001,-29.751"/>
</g>
</g>
</svg>
