<?xml version="1.0" encoding="UTF-8" standalone="no"?>
<!DOCTYPE svg PUBLIC "-//W3C//DTD SVG 1.1//EN"
 "http://www.w3.org/Graphics/SVG/1.1/DTD/svg11.dtd">
<!-- Generated by graphviz version 2.36.0 (20140111.2315)
 -->
<!-- Title: extlib/tlx/tlx/algorithm/parallel_multiway_merge.hpp Pages: 1 -->
<svg width="436pt" height="164pt"
 viewBox="0.00 0.00 436.00 164.00" xmlns="http://www.w3.org/2000/svg" xmlns:xlink="http://www.w3.org/1999/xlink">
<g id="graph0" class="graph" transform="scale(1 1) rotate(0) translate(4 160)">
<title>extlib/tlx/tlx/algorithm/parallel_multiway_merge.hpp</title>
<!-- Node1 -->
<g id="node1" class="node"><title>Node1</title>
<polygon fill="#bfbfbf" stroke="black" points="155,-125 155,-155 301,-155 301,-125 155,-125"/>
<text text-anchor="start" x="163" y="-143" font-family="Helvetica,sans-Serif" font-size="10.00">extlib/tlx/tlx/algorithm</text>
<text text-anchor="middle" x="228" y="-132" font-family="Helvetica,sans-Serif" font-size="10.00">/parallel_multiway_merge.hpp</text>
</g>
<!-- Node2 -->
<g id="node2" class="node"><title>Node2</title>
<g id="a_node2"><a xlink:href="parallel__multiway__merge_8cpp.html" target="_top" xlink:title="extlib/tlx/tlx/algorithm\l/parallel_multiway_merge.cpp">
<polygon fill="none" stroke="black" points="0,-57 0,-87 146,-87 146,-57 0,-57"/>
<text text-anchor="start" x="8" y="-75" font-family="Helvetica,sans-Serif" font-size="10.00">extlib/tlx/tlx/algorithm</text>
<text text-anchor="middle" x="73" y="-64" font-family="Helvetica,sans-Serif" font-size="10.00">/parallel_multiway_merge.cpp</text>
</a>
</g>
</g>
<!-- Node1&#45;&gt;Node2 -->
<g id="edge1" class="edge"><title>Node1&#45;&gt;Node2</title>
<path fill="none" stroke="midnightblue" d="M185.469,-120.89C160.388,-110.21 129.125,-96.8982 105.93,-87.0218"/>
<polygon fill="midnightblue" stroke="midnightblue" points="184.177,-124.144 194.749,-124.841 186.919,-117.703 184.177,-124.144"/>
</g>
<!-- Node3 -->
<g id="node3" class="node"><title>Node3</title>
<g id="a_node3"><a xlink:href="algorithm_8hpp.html" target="_top" xlink:title="extlib/tlx/tlx/algorithm.hpp">
<polygon fill="none" stroke="black" points="164,-62.5 164,-81.5 292,-81.5 292,-62.5 164,-62.5"/>
<text text-anchor="middle" x="228" y="-69.5" font-family="Helvetica,sans-Serif" font-size="10.00">extlib/tlx/tlx/algorithm.hpp</text>
</a>
</g>
</g>
<!-- Node1&#45;&gt;Node3 -->
<g id="edge2" class="edge"><title>Node1&#45;&gt;Node3</title>
<path fill="none" stroke="midnightblue" d="M228,-114.376C228,-102.971 228,-90.1364 228,-81.8283"/>
<polygon fill="midnightblue" stroke="midnightblue" points="224.5,-114.679 228,-124.679 231.5,-114.679 224.5,-114.679"/>
</g>
<!-- Node4 -->
<g id="node4" class="node"><title>Node4</title>
<g id="a_node4"><a xlink:href="parallel__mergesort_8hpp.html" target="_top" xlink:title="extlib/tlx/tlx/sort\l/parallel_mergesort.hpp">
<polygon fill="none" stroke="black" points="310,-57 310,-87 428,-87 428,-57 310,-57"/>
<text text-anchor="start" x="318" y="-75" font-family="Helvetica,sans-Serif" font-size="10.00">extlib/tlx/tlx/sort</text>
<text text-anchor="middle" x="369" y="-64" font-family="Helvetica,sans-Serif" font-size="10.00">/parallel_mergesort.hpp</text>
</a>
</g>
</g>
<!-- Node1&#45;&gt;Node4 -->
<g id="edge3" class="edge"><title>Node1&#45;&gt;Node4</title>
<path fill="none" stroke="midnightblue" d="M267.564,-120.48C290.141,-109.913 317.997,-96.8738 338.802,-87.1352"/>
<polygon fill="midnightblue" stroke="midnightblue" points="265.821,-117.432 258.248,-124.841 268.789,-123.772 265.821,-117.432"/>
</g>
<!-- Node5 -->
<g id="node5" class="node"><title>Node5</title>
<g id="a_node5"><a xlink:href="extlib_2tlx_2tlx_2sort_8hpp.html" target="_top" xlink:title="extlib/tlx/tlx/sort.hpp">
<polygon fill="none" stroke="black" points="316.5,-0.5 316.5,-19.5 421.5,-19.5 421.5,-0.5 316.5,-0.5"/>
<text text-anchor="middle" x="369" y="-7.5" font-family="Helvetica,sans-Serif" font-size="10.00">extlib/tlx/tlx/sort.hpp</text>
</a>
</g>
</g>
<!-- Node4&#45;&gt;Node5 -->
<g id="edge4" class="edge"><title>Node4&#45;&gt;Node5</title>
<path fill="none" stroke="midnightblue" d="M369,-46.5858C369,-37.0743 369,-26.7864 369,-19.7305"/>
<polygon fill="midnightblue" stroke="midnightblue" points="365.5,-46.7808 369,-56.7808 372.5,-46.7809 365.5,-46.7808"/>
</g>
</g>
</svg>
