<?xml version="1.0" encoding="UTF-8" standalone="no"?>
<!DOCTYPE svg PUBLIC "-//W3C//DTD SVG 1.1//EN"
 "http://www.w3.org/Graphics/SVG/1.1/DTD/svg11.dtd">
<!-- Generated by graphviz version 2.36.0 (20140111.2315)
 -->
<!-- Title: extlib/tlx/tlx/algorithm/parallel_multiway_merge.hpp Pages: 1 -->
<svg width="1022pt" height="300pt"
 viewBox="0.00 0.00 1022.47 300.00" xmlns="http://www.w3.org/2000/svg" xmlns:xlink="http://www.w3.org/1999/xlink">
<g id="graph0" class="graph" transform="scale(1 1) rotate(0) translate(4 296)">
<title>extlib/tlx/tlx/algorithm/parallel_multiway_merge.hpp</title>
<!-- Node1 -->
<g id="node1" class="node"><title>Node1</title>
<polygon fill="#bfbfbf" stroke="black" points="487.329,-261 487.329,-291 633.329,-291 633.329,-261 487.329,-261"/>
<text text-anchor="start" x="495.329" y="-279" font-family="Helvetica,sans-Serif" font-size="10.00">extlib/tlx/tlx/algorithm</text>
<text text-anchor="middle" x="560.329" y="-268" font-family="Helvetica,sans-Serif" font-size="10.00">/parallel_multiway_merge.hpp</text>
</g>
<!-- Node2 -->
<g id="node2" class="node"><title>Node2</title>
<polygon fill="none" stroke="#bfbfbf" points="835.329,-0.5 835.329,-19.5 891.329,-19.5 891.329,-0.5 835.329,-0.5"/>
<text text-anchor="middle" x="863.329" y="-7.5" font-family="Helvetica,sans-Serif" font-size="10.00">algorithm</text>
</g>
<!-- Node1&#45;&gt;Node2 -->
<g id="edge1" class="edge"><title>Node1&#45;&gt;Node2</title>
<path fill="none" stroke="midnightblue" d="M633.55,-272.008C699.132,-267.292 796.925,-255.165 876.329,-224 927.047,-204.094 944.879,-199.007 978.329,-156 1006.39,-119.921 1029.21,-92.963 1002.33,-56 979.509,-24.6262 934.341,-14.6784 901.675,-11.7534"/>
<polygon fill="midnightblue" stroke="midnightblue" points="901.775,-8.25178 891.552,-11.0322 901.278,-15.2341 901.775,-8.25178"/>
</g>
<!-- Node3 -->
<g id="node3" class="node"><title>Node3</title>
<polygon fill="none" stroke="#bfbfbf" points="113.829,-62.5 113.829,-81.5 172.829,-81.5 172.829,-62.5 113.829,-62.5"/>
<text text-anchor="middle" x="143.329" y="-69.5" font-family="Helvetica,sans-Serif" font-size="10.00">functional</text>
</g>
<!-- Node1&#45;&gt;Node3 -->
<g id="edge2" class="edge"><title>Node1&#45;&gt;Node3</title>
<path fill="none" stroke="midnightblue" d="M487.129,-268.048C407.545,-256.94 280.846,-228.435 199.329,-156 178.279,-137.295 161.445,-109.026 151.921,-90.7879"/>
<polygon fill="midnightblue" stroke="midnightblue" points="155.025,-89.1697 147.401,-81.8121 148.773,-92.3178 155.025,-89.1697"/>
</g>
<!-- Node4 -->
<g id="node4" class="node"><title>Node4</title>
<polygon fill="none" stroke="#bfbfbf" points="488.329,-198.5 488.329,-217.5 532.329,-217.5 532.329,-198.5 488.329,-198.5"/>
<text text-anchor="middle" x="510.329" y="-205.5" font-family="Helvetica,sans-Serif" font-size="10.00">thread</text>
</g>
<!-- Node1&#45;&gt;Node4 -->
<g id="edge3" class="edge"><title>Node1&#45;&gt;Node4</title>
<path fill="none" stroke="midnightblue" d="M549.48,-260.679C541.761,-250.49 531.359,-236.759 523.217,-226.011"/>
<polygon fill="midnightblue" stroke="midnightblue" points="525.846,-223.686 517.017,-217.828 520.266,-227.913 525.846,-223.686"/>
</g>
<!-- Node5 -->
<g id="node5" class="node"><title>Node5</title>
<polygon fill="none" stroke="#bfbfbf" points="929.329,-62.5 929.329,-81.5 973.329,-81.5 973.329,-62.5 929.329,-62.5"/>
<text text-anchor="middle" x="951.329" y="-69.5" font-family="Helvetica,sans-Serif" font-size="10.00">vector</text>
</g>
<!-- Node1&#45;&gt;Node5 -->
<g id="edge4" class="edge"><title>Node1&#45;&gt;Node5</title>
<path fill="none" stroke="midnightblue" d="M633.595,-263.839C738.015,-246.259 921.362,-208.621 960.329,-156 974.238,-137.217 967.054,-109.166 959.831,-90.9744"/>
<polygon fill="midnightblue" stroke="midnightblue" points="963.031,-89.5565 955.841,-81.7754 956.61,-92.3423 963.031,-89.5565"/>
</g>
<!-- Node6 -->
<g id="node6" class="node"><title>Node6</title>
<g id="a_node6"><a xlink:href="extlib_2tlx_2tlx_2algorithm_2multiway__merge_8hpp.html" target="_top" xlink:title="tlx/algorithm/multiway\l_merge.hpp">
<polygon fill="none" stroke="black" points="340.329,-193 340.329,-223 452.329,-223 452.329,-193 340.329,-193"/>
<text text-anchor="start" x="348.329" y="-211" font-family="Helvetica,sans-Serif" font-size="10.00">tlx/algorithm/multiway</text>
<text text-anchor="middle" x="396.329" y="-200" font-family="Helvetica,sans-Serif" font-size="10.00">_merge.hpp</text>
</a>
</g>
</g>
<!-- Node1&#45;&gt;Node6 -->
<g id="edge5" class="edge"><title>Node1&#45;&gt;Node6</title>
<path fill="none" stroke="midnightblue" d="M525.147,-260.841C500.419,-250.89 467.148,-237.5 440.614,-226.822"/>
<polygon fill="midnightblue" stroke="midnightblue" points="441.755,-223.508 431.171,-223.022 439.142,-230.002 441.755,-223.508"/>
</g>
<!-- Node18 -->
<g id="node18" class="node"><title>Node18</title>
<g id="a_node18"><a xlink:href="multiway__merge__splitting_8hpp.html" target="_top" xlink:title="tlx/algorithm/multiway\l_merge_splitting.hpp">
<polygon fill="none" stroke="black" points="617.329,-193 617.329,-223 729.329,-223 729.329,-193 617.329,-193"/>
<text text-anchor="start" x="625.329" y="-211" font-family="Helvetica,sans-Serif" font-size="10.00">tlx/algorithm/multiway</text>
<text text-anchor="middle" x="673.329" y="-200" font-family="Helvetica,sans-Serif" font-size="10.00">_merge_splitting.hpp</text>
</a>
</g>
</g>
<!-- Node1&#45;&gt;Node18 -->
<g id="edge28" class="edge"><title>Node1&#45;&gt;Node18</title>
<path fill="none" stroke="midnightblue" d="M584.571,-260.841C600.806,-251.359 622.387,-238.754 640.203,-228.348"/>
<polygon fill="midnightblue" stroke="midnightblue" points="642.258,-231.201 649.128,-223.135 638.728,-225.156 642.258,-231.201"/>
</g>
<!-- Node21 -->
<g id="node21" class="node"><title>Node21</title>
<g id="a_node21"><a xlink:href="simple__vector_8hpp.html" target="_top" xlink:title="tlx/simple_vector.hpp">
<polygon fill="none" stroke="black" points="477.329,-130.5 477.329,-149.5 587.329,-149.5 587.329,-130.5 477.329,-130.5"/>
<text text-anchor="middle" x="532.329" y="-137.5" font-family="Helvetica,sans-Serif" font-size="10.00">tlx/simple_vector.hpp</text>
</a>
</g>
</g>
<!-- Node1&#45;&gt;Node21 -->
<g id="edge42" class="edge"><title>Node1&#45;&gt;Node21</title>
<path fill="none" stroke="midnightblue" d="M557.333,-260.66C552.247,-236.32 541.927,-186.933 536.265,-159.837"/>
<polygon fill="midnightblue" stroke="midnightblue" points="539.624,-158.8 534.153,-149.728 532.772,-160.232 539.624,-158.8"/>
</g>
<!-- Node6&#45;&gt;Node2 -->
<g id="edge6" class="edge"><title>Node6&#45;&gt;Node2</title>
<path fill="none" stroke="midnightblue" d="M452.524,-196.477C461.479,-194.907 470.649,-193.36 479.329,-192 599.367,-173.191 639.188,-205.098 750.329,-156 770.526,-147.078 770.616,-137.181 788.329,-124 811.767,-106.559 826.291,-111.732 843.329,-88 855.634,-70.8623 860.375,-46.762 862.198,-30.1094"/>
<polygon fill="midnightblue" stroke="midnightblue" points="865.702,-30.2055 863.051,-19.9477 858.727,-29.6199 865.702,-30.2055"/>
</g>
<!-- Node6&#45;&gt;Node3 -->
<g id="edge7" class="edge"><title>Node6&#45;&gt;Node3</title>
<path fill="none" stroke="midnightblue" d="M341.745,-192.993C312.971,-184.437 277.659,-172.037 248.329,-156 213.899,-137.174 179.202,-107.067 159.573,-88.7554"/>
<polygon fill="midnightblue" stroke="midnightblue" points="161.793,-86.0369 152.127,-81.6968 156.976,-91.1169 161.793,-86.0369"/>
</g>
<!-- Node6&#45;&gt;Node5 -->
<g id="edge10" class="edge"><title>Node6&#45;&gt;Node5</title>
<path fill="none" stroke="midnightblue" d="M452.471,-196.111C461.433,-194.587 470.619,-193.152 479.329,-192 573.733,-179.518 826.627,-208.11 906.329,-156 928.913,-141.235 941.059,-111.141 946.853,-91.5361"/>
<polygon fill="midnightblue" stroke="midnightblue" points="950.296,-92.2087 949.504,-81.6436 943.535,-90.3972 950.296,-92.2087"/>
</g>
<!-- Node7 -->
<g id="node7" class="node"><title>Node7</title>
<polygon fill="none" stroke="#bfbfbf" points="407.829,-130.5 407.829,-149.5 458.829,-149.5 458.829,-130.5 407.829,-130.5"/>
<text text-anchor="middle" x="433.329" y="-137.5" font-family="Helvetica,sans-Serif" font-size="10.00">numeric</text>
</g>
<!-- Node6&#45;&gt;Node7 -->
<g id="edge8" class="edge"><title>Node6&#45;&gt;Node7</title>
<path fill="none" stroke="midnightblue" d="M404.358,-192.679C409.956,-182.694 417.46,-169.307 423.429,-158.66"/>
<polygon fill="midnightblue" stroke="midnightblue" points="426.543,-160.263 428.38,-149.828 420.437,-156.84 426.543,-160.263"/>
</g>
<!-- Node8 -->
<g id="node8" class="node"><title>Node8</title>
<polygon fill="none" stroke="#bfbfbf" points="269.329,-0.5 269.329,-19.5 309.329,-19.5 309.329,-0.5 269.329,-0.5"/>
<text text-anchor="middle" x="289.329" y="-7.5" font-family="Helvetica,sans-Serif" font-size="10.00">utility</text>
</g>
<!-- Node6&#45;&gt;Node8 -->
<g id="edge9" class="edge"><title>Node6&#45;&gt;Node8</title>
<path fill="none" stroke="midnightblue" d="M340.114,-200.945C286.179,-194.006 203.02,-180.321 134.329,-156 73.6049,-134.499 39.5171,-143.211 6.32931,-88 -0.997864,-75.8105 -2.90399,-66.8175 6.32931,-56 38.6068,-18.1846 192.993,-11.9873 259.139,-11.0876"/>
<polygon fill="midnightblue" stroke="midnightblue" points="259.366,-14.5855 269.329,-10.982 259.293,-7.58587 259.366,-14.5855"/>
</g>
<!-- Node9 -->
<g id="node9" class="node"><title>Node9</title>
<g id="a_node9"><a xlink:href="merge__advance_8hpp.html" target="_top" xlink:title="tlx/algorithm/merge\l_advance.hpp">
<polygon fill="none" stroke="black" points="797.329,-125 797.329,-155 897.329,-155 897.329,-125 797.329,-125"/>
<text text-anchor="start" x="805.329" y="-143" font-family="Helvetica,sans-Serif" font-size="10.00">tlx/algorithm/merge</text>
<text text-anchor="middle" x="847.329" y="-132" font-family="Helvetica,sans-Serif" font-size="10.00">_advance.hpp</text>
</a>
</g>
</g>
<!-- Node6&#45;&gt;Node9 -->
<g id="edge11" class="edge"><title>Node6&#45;&gt;Node9</title>
<path fill="none" stroke="midnightblue" d="M452.508,-196.369C461.464,-194.812 470.64,-193.298 479.329,-192 613.89,-171.893 649.33,-179.56 783.329,-156 784.594,-155.778 785.871,-155.546 787.157,-155.306"/>
<polygon fill="midnightblue" stroke="midnightblue" points="788.003,-158.706 797.131,-153.328 786.641,-151.84 788.003,-158.706"/>
</g>
<!-- Node10 -->
<g id="node10" class="node"><title>Node10</title>
<g id="a_node10"><a xlink:href="loser__tree_8hpp.html" target="_top" xlink:title="tlx/container/loser\l_tree.hpp">
<polygon fill="none" stroke="black" points="257.329,-125 257.329,-155 351.329,-155 351.329,-125 257.329,-125"/>
<text text-anchor="start" x="265.329" y="-143" font-family="Helvetica,sans-Serif" font-size="10.00">tlx/container/loser</text>
<text text-anchor="middle" x="304.329" y="-132" font-family="Helvetica,sans-Serif" font-size="10.00">_tree.hpp</text>
</a>
</g>
</g>
<!-- Node6&#45;&gt;Node10 -->
<g id="edge13" class="edge"><title>Node6&#45;&gt;Node10</title>
<path fill="none" stroke="midnightblue" d="M376.367,-192.679C363.5,-183.449 346.581,-171.311 332.373,-161.118"/>
<polygon fill="midnightblue" stroke="midnightblue" points="334.103,-158.052 323.937,-155.066 330.022,-163.739 334.103,-158.052"/>
</g>
<!-- Node12 -->
<g id="node12" class="node"><title>Node12</title>
<g id="a_node12"><a xlink:href="container_2simple__vector_8hpp.html" target="_top" xlink:title="tlx/container/simple\l_vector.hpp">
<polygon fill="none" stroke="black" points="387.829,-57 387.829,-87 488.829,-87 488.829,-57 387.829,-57"/>
<text text-anchor="start" x="395.829" y="-75" font-family="Helvetica,sans-Serif" font-size="10.00">tlx/container/simple</text>
<text text-anchor="middle" x="438.329" y="-64" font-family="Helvetica,sans-Serif" font-size="10.00">_vector.hpp</text>
</a>
</g>
</g>
<!-- Node6&#45;&gt;Node12 -->
<g id="edge26" class="edge"><title>Node6&#45;&gt;Node12</title>
<path fill="none" stroke="midnightblue" d="M394.014,-192.701C391.864,-175.755 390.1,-146.927 398.329,-124 402.189,-113.245 409.281,-102.998 416.433,-94.5477"/>
<polygon fill="midnightblue" stroke="midnightblue" points="419.107,-96.8089 423.205,-87.0388 413.909,-92.1207 419.107,-96.8089"/>
</g>
<!-- Node17 -->
<g id="node17" class="node"><title>Node17</title>
<g id="a_node17"><a xlink:href="unused_8hpp.html" target="_top" xlink:title="tlx/unused.hpp">
<polygon fill="none" stroke="black" points="15.3293,-62.5 15.3293,-81.5 95.3293,-81.5 95.3293,-62.5 15.3293,-62.5"/>
<text text-anchor="middle" x="55.3293" y="-69.5" font-family="Helvetica,sans-Serif" font-size="10.00">tlx/unused.hpp</text>
</a>
</g>
</g>
<!-- Node6&#45;&gt;Node17 -->
<g id="edge27" class="edge"><title>Node6&#45;&gt;Node17</title>
<path fill="none" stroke="midnightblue" d="M340.27,-196.694C300.127,-188.312 245.275,-174.784 199.329,-156 152.775,-136.967 102.862,-105.376 75.744,-87.1504"/>
<polygon fill="midnightblue" stroke="midnightblue" points="77.6971,-84.246 67.4592,-81.5192 73.7621,-90.0353 77.6971,-84.246"/>
</g>
<!-- Node9&#45;&gt;Node2 -->
<g id="edge12" class="edge"><title>Node9&#45;&gt;Node2</title>
<path fill="none" stroke="midnightblue" d="M858.505,-124.773C865.421,-115.031 873.659,-101.48 877.329,-88 882.724,-68.1877 876.871,-44.9332 871.169,-29.205"/>
<polygon fill="midnightblue" stroke="midnightblue" points="874.323,-27.6621 867.387,-19.6535 867.815,-30.2397 874.323,-27.6621"/>
</g>
<!-- Node10&#45;&gt;Node2 -->
<g id="edge14" class="edge"><title>Node10&#45;&gt;Node2</title>
<path fill="none" stroke="midnightblue" d="M314.835,-124.896C331.183,-103.381 362.475,-64.0054 378.329,-56 417.869,-36.0348 717.568,-18.6069 825.086,-12.9369"/>
<polygon fill="midnightblue" stroke="midnightblue" points="825.367,-16.4271 835.171,-12.41 825.002,-9.43664 825.367,-16.4271"/>
</g>
<!-- Node10&#45;&gt;Node3 -->
<g id="edge16" class="edge"><title>Node10&#45;&gt;Node3</title>
<path fill="none" stroke="midnightblue" d="M269.791,-124.841C241.318,-113.169 201.309,-96.7681 173.964,-85.5585"/>
<polygon fill="midnightblue" stroke="midnightblue" points="175.088,-82.2365 164.508,-81.6819 172.433,-88.7134 175.088,-82.2365"/>
</g>
<!-- Node10&#45;&gt;Node8 -->
<g id="edge17" class="edge"><title>Node10&#45;&gt;Node8</title>
<path fill="none" stroke="midnightblue" d="M264.27,-124.978C247.568,-116.917 229.868,-104.95 220.329,-88 213.354,-75.6055 213.555,-68.5053 220.329,-56 228.767,-40.4236 245.194,-29.3854 259.903,-22.1404"/>
<polygon fill="midnightblue" stroke="midnightblue" points="261.556,-25.2338 269.219,-17.9177 258.666,-18.8581 261.556,-25.2338"/>
</g>
<!-- Node11 -->
<g id="node11" class="node"><title>Node11</title>
<polygon fill="none" stroke="#bfbfbf" points="506.829,-62.5 506.829,-81.5 555.829,-81.5 555.829,-62.5 506.829,-62.5"/>
<text text-anchor="middle" x="531.329" y="-69.5" font-family="Helvetica,sans-Serif" font-size="10.00">cassert</text>
</g>
<!-- Node10&#45;&gt;Node11 -->
<g id="edge15" class="edge"><title>Node10&#45;&gt;Node11</title>
<path fill="none" stroke="midnightblue" d="M351.356,-128.757C390.823,-119.644 448.43,-105.128 497.329,-88 499.457,-87.2549 501.637,-86.4337 503.815,-85.5712"/>
<polygon fill="midnightblue" stroke="midnightblue" points="505.326,-88.7327 513.19,-81.6324 502.615,-82.2792 505.326,-88.7327"/>
</g>
<!-- Node10&#45;&gt;Node12 -->
<g id="edge18" class="edge"><title>Node10&#45;&gt;Node12</title>
<path fill="none" stroke="midnightblue" d="M333.076,-124.841C352.77,-115.141 379.097,-102.174 400.493,-91.6358"/>
<polygon fill="midnightblue" stroke="midnightblue" points="402.206,-94.6936 409.63,-87.1352 399.113,-88.414 402.206,-94.6936"/>
</g>
<!-- Node14 -->
<g id="node14" class="node"><title>Node14</title>
<g id="a_node14"><a xlink:href="likely_8hpp.html" target="_top" xlink:title="tlx/define/likely.hpp">
<polygon fill="none" stroke="black" points="229.829,-62.5 229.829,-81.5 330.829,-81.5 330.829,-62.5 229.829,-62.5"/>
<text text-anchor="middle" x="280.329" y="-69.5" font-family="Helvetica,sans-Serif" font-size="10.00">tlx/define/likely.hpp</text>
</a>
</g>
</g>
<!-- Node10&#45;&gt;Node14 -->
<g id="edge22" class="edge"><title>Node10&#45;&gt;Node14</title>
<path fill="none" stroke="midnightblue" d="M299.122,-124.679C295.565,-114.898 290.821,-101.852 286.989,-91.3148"/>
<polygon fill="midnightblue" stroke="midnightblue" points="290.246,-90.0301 283.54,-81.8283 283.668,-92.4224 290.246,-90.0301"/>
</g>
<!-- Node15 -->
<g id="node15" class="node"><title>Node15</title>
<g id="a_node15"><a xlink:href="round__to__power__of__two_8hpp.html" target="_top" xlink:title="tlx/math/round_to_power\l_of_two.hpp">
<polygon fill="none" stroke="black" points="573.329,-57 573.329,-87 697.329,-87 697.329,-57 573.329,-57"/>
<text text-anchor="start" x="581.329" y="-75" font-family="Helvetica,sans-Serif" font-size="10.00">tlx/math/round_to_power</text>
<text text-anchor="middle" x="635.329" y="-64" font-family="Helvetica,sans-Serif" font-size="10.00">_of_two.hpp</text>
</a>
</g>
</g>
<!-- Node10&#45;&gt;Node15 -->
<g id="edge23" class="edge"><title>Node10&#45;&gt;Node15</title>
<path fill="none" stroke="midnightblue" d="M351.34,-129.991C401.309,-120.368 482.919,-104.517 562.769,-88.3031"/>
<polygon fill="midnightblue" stroke="midnightblue" points="563.9,-91.6446 573.002,-86.2212 562.505,-84.7851 563.9,-91.6446"/>
</g>
<!-- Node10&#45;&gt;Node17 -->
<g id="edge25" class="edge"><title>Node10&#45;&gt;Node17</title>
<path fill="none" stroke="midnightblue" d="M257.286,-127.672C216.65,-117.727 156.428,-102.608 104.329,-88 100.441,-86.9098 96.3911,-85.7346 92.3592,-84.5388"/>
<polygon fill="midnightblue" stroke="midnightblue" points="93.0605,-81.0948 82.476,-81.5608 91.041,-87.7971 93.0605,-81.0948"/>
</g>
<!-- Node12&#45;&gt;Node2 -->
<g id="edge19" class="edge"><title>Node12&#45;&gt;Node2</title>
<path fill="none" stroke="midnightblue" d="M489.087,-57.661C491.868,-57.0661 494.629,-56.5072 497.329,-56 615.883,-33.7341 758.191,-19.867 825.064,-14.0972"/>
<polygon fill="midnightblue" stroke="midnightblue" points="825.466,-17.5757 835.133,-13.2407 824.873,-10.6009 825.466,-17.5757"/>
</g>
<!-- Node12&#45;&gt;Node8 -->
<g id="edge21" class="edge"><title>Node12&#45;&gt;Node8</title>
<path fill="none" stroke="midnightblue" d="M403.395,-56.9327C377.692,-46.5821 343.136,-32.667 318.817,-22.874"/>
<polygon fill="midnightblue" stroke="midnightblue" points="319.981,-19.5699 309.398,-19.0812 317.366,-26.0632 319.981,-19.5699"/>
</g>
<!-- Node13 -->
<g id="node13" class="node"><title>Node13</title>
<polygon fill="none" stroke="#bfbfbf" points="415.829,-0.5 415.829,-19.5 460.829,-19.5 460.829,-0.5 415.829,-0.5"/>
<text text-anchor="middle" x="438.329" y="-7.5" font-family="Helvetica,sans-Serif" font-size="10.00">cstdlib</text>
</g>
<!-- Node12&#45;&gt;Node13 -->
<g id="edge20" class="edge"><title>Node12&#45;&gt;Node13</title>
<path fill="none" stroke="midnightblue" d="M438.329,-56.7808C438.329,-48.7812 438.329,-38.6887 438.329,-30.0168"/>
<polygon fill="midnightblue" stroke="midnightblue" points="441.829,-29.7305 438.329,-19.7305 434.829,-29.7306 441.829,-29.7305"/>
</g>
<!-- Node16 -->
<g id="node16" class="node"><title>Node16</title>
<polygon fill="none" stroke="#bfbfbf" points="610.829,-0.5 610.829,-19.5 659.829,-19.5 659.829,-0.5 610.829,-0.5"/>
<text text-anchor="middle" x="635.329" y="-7.5" font-family="Helvetica,sans-Serif" font-size="10.00">cstddef</text>
</g>
<!-- Node15&#45;&gt;Node16 -->
<g id="edge24" class="edge"><title>Node15&#45;&gt;Node16</title>
<path fill="none" stroke="midnightblue" d="M635.329,-56.7808C635.329,-48.7812 635.329,-38.6887 635.329,-30.0168"/>
<polygon fill="midnightblue" stroke="midnightblue" points="638.829,-29.7305 635.329,-19.7305 631.829,-29.7306 638.829,-29.7305"/>
</g>
<!-- Node18&#45;&gt;Node2 -->
<g id="edge29" class="edge"><title>Node18&#45;&gt;Node2</title>
<path fill="none" stroke="midnightblue" d="M729.489,-203.854C803.117,-198.607 926.858,-185.568 960.329,-156 994.365,-125.933 1007.09,-93.3986 981.329,-56 963.517,-30.1435 928.708,-19.1335 901.492,-14.4509"/>
<polygon fill="midnightblue" stroke="midnightblue" points="901.893,-10.972 891.484,-12.9483 900.854,-17.8944 901.893,-10.972"/>
</g>
<!-- Node18&#45;&gt;Node5 -->
<g id="edge30" class="edge"><title>Node18&#45;&gt;Node5</title>
<path fill="none" stroke="midnightblue" d="M729.622,-203.714C798.989,-198.438 911.154,-185.497 939.329,-156 955.562,-139.006 956.095,-110.444 954.273,-91.6591"/>
<polygon fill="midnightblue" stroke="midnightblue" points="957.734,-91.1271 952.992,-81.6528 950.79,-92.0165 957.734,-91.1271"/>
</g>
<!-- Node19 -->
<g id="node19" class="node"><title>Node19</title>
<g id="a_node19"><a xlink:href="multisequence__partition_8hpp.html" target="_top" xlink:title="tlx/algorithm/multisequence\l_partition.hpp">
<polygon fill="none" stroke="black" points="605.329,-125 605.329,-155 741.329,-155 741.329,-125 605.329,-125"/>
<text text-anchor="start" x="613.329" y="-143" font-family="Helvetica,sans-Serif" font-size="10.00">tlx/algorithm/multisequence</text>
<text text-anchor="middle" x="673.329" y="-132" font-family="Helvetica,sans-Serif" font-size="10.00">_partition.hpp</text>
</a>
</g>
</g>
<!-- Node18&#45;&gt;Node19 -->
<g id="edge31" class="edge"><title>Node18&#45;&gt;Node19</title>
<path fill="none" stroke="midnightblue" d="M673.329,-192.679C673.329,-184.722 673.329,-174.605 673.329,-165.436"/>
<polygon fill="midnightblue" stroke="midnightblue" points="676.829,-165.293 673.329,-155.293 669.829,-165.293 676.829,-165.293"/>
</g>
<!-- Node18&#45;&gt;Node21 -->
<g id="edge40" class="edge"><title>Node18&#45;&gt;Node21</title>
<path fill="none" stroke="midnightblue" d="M643.081,-192.841C618.474,-181.323 584.027,-165.199 560.11,-154.004"/>
<polygon fill="midnightblue" stroke="midnightblue" points="561.418,-150.751 550.877,-149.682 558.45,-157.091 561.418,-150.751"/>
</g>
<!-- Node19&#45;&gt;Node2 -->
<g id="edge32" class="edge"><title>Node19&#45;&gt;Node2</title>
<path fill="none" stroke="midnightblue" d="M691.707,-124.777C720.298,-102.684 773.121,-62.019 782.329,-56 800.114,-44.3746 821.108,-32.7668 837.266,-24.2528"/>
<polygon fill="midnightblue" stroke="midnightblue" points="838.908,-27.3442 846.16,-19.6207 835.674,-21.1358 838.908,-27.3442"/>
</g>
<!-- Node19&#45;&gt;Node3 -->
<g id="edge34" class="edge"><title>Node19&#45;&gt;Node3</title>
<path fill="none" stroke="midnightblue" d="M604.954,-125.323C602.044,-124.854 599.16,-124.41 596.329,-124 430.19,-99.9219 386.469,-112.078 220.329,-88 208.132,-86.2323 194.937,-83.8401 182.973,-81.4857"/>
<polygon fill="midnightblue" stroke="midnightblue" points="183.327,-77.9867 172.832,-79.443 181.944,-84.8488 183.327,-77.9867"/>
</g>
<!-- Node19&#45;&gt;Node5 -->
<g id="edge37" class="edge"><title>Node19&#45;&gt;Node5</title>
<path fill="none" stroke="midnightblue" d="M732.626,-124.922C789.731,-111.365 873.943,-91.3722 919.408,-80.5784"/>
<polygon fill="midnightblue" stroke="midnightblue" points="920.375,-83.9462 929.296,-78.2308 918.758,-77.1355 920.375,-83.9462"/>
</g>
<!-- Node19&#45;&gt;Node8 -->
<g id="edge36" class="edge"><title>Node19&#45;&gt;Node8</title>
<path fill="none" stroke="midnightblue" d="M686.868,-124.753C702.288,-106.797 723.177,-75.882 705.329,-56 698.861,-48.794 414.425,-22.3606 319.676,-13.7391"/>
<polygon fill="midnightblue" stroke="midnightblue" points="319.868,-10.2423 309.593,-12.8238 319.235,-17.2136 319.868,-10.2423"/>
</g>
<!-- Node19&#45;&gt;Node11 -->
<g id="edge33" class="edge"><title>Node19&#45;&gt;Node11</title>
<path fill="none" stroke="midnightblue" d="M642.867,-124.841C618.085,-113.323 583.394,-97.1989 559.307,-86.0036"/>
<polygon fill="midnightblue" stroke="midnightblue" points="560.552,-82.7229 550.009,-81.6819 557.602,-89.0707 560.552,-82.7229"/>
</g>
<!-- Node19&#45;&gt;Node12 -->
<g id="edge38" class="edge"><title>Node19&#45;&gt;Node12</title>
<path fill="none" stroke="midnightblue" d="M623.204,-124.922C586.701,-114.67 537.094,-100.738 498.456,-89.8866"/>
<polygon fill="midnightblue" stroke="midnightblue" points="498.951,-86.3904 488.377,-87.0561 497.059,-93.1297 498.951,-86.3904"/>
</g>
<!-- Node19&#45;&gt;Node15 -->
<g id="edge39" class="edge"><title>Node19&#45;&gt;Node15</title>
<path fill="none" stroke="midnightblue" d="M665.084,-124.679C660.303,-116.376 654.169,-105.721 648.713,-96.2452"/>
<polygon fill="midnightblue" stroke="midnightblue" points="651.582,-94.2129 643.559,-87.2931 645.515,-97.7057 651.582,-94.2129"/>
</g>
<!-- Node20 -->
<g id="node20" class="node"><title>Node20</title>
<polygon fill="none" stroke="#bfbfbf" points="791.829,-62.5 791.829,-81.5 834.829,-81.5 834.829,-62.5 791.829,-62.5"/>
<text text-anchor="middle" x="813.329" y="-69.5" font-family="Helvetica,sans-Serif" font-size="10.00">queue</text>
</g>
<!-- Node19&#45;&gt;Node20 -->
<g id="edge35" class="edge"><title>Node19&#45;&gt;Node20</title>
<path fill="none" stroke="midnightblue" d="M703.363,-124.841C727.796,-113.323 761.998,-97.1989 785.746,-86.0036"/>
<polygon fill="midnightblue" stroke="midnightblue" points="787.36,-89.112 794.913,-81.6819 784.375,-82.7803 787.36,-89.112"/>
</g>
<!-- Node21&#45;&gt;Node12 -->
<g id="edge41" class="edge"><title>Node21&#45;&gt;Node12</title>
<path fill="none" stroke="midnightblue" d="M520.04,-130.372C506.612,-120.943 484.641,-105.517 466.862,-93.0338"/>
<polygon fill="midnightblue" stroke="midnightblue" points="468.722,-90.0633 458.527,-87.1815 464.7,-95.7922 468.722,-90.0633"/>
</g>
</g>
</svg>
