<?xml version="1.0" encoding="UTF-8" standalone="no"?>
<!DOCTYPE svg PUBLIC "-//W3C//DTD SVG 1.1//EN"
 "http://www.w3.org/Graphics/SVG/1.1/DTD/svg11.dtd">
<!-- Generated by graphviz version 2.40.1 (20161225.0304)
 -->
<!-- Title: extlib/tlx/tlx/sort/parallel_mergesort.hpp Pages: 1 -->
<svg width="1685pt" height="363pt"
 viewBox="0.00 0.00 1685.00 363.00" xmlns="http://www.w3.org/2000/svg" xmlns:xlink="http://www.w3.org/1999/xlink">
<g id="graph0" class="graph" transform="scale(1 1) rotate(0) translate(4 359)">
<title>extlib/tlx/tlx/sort/parallel_mergesort.hpp</title>
<!-- Node0 -->
<g id="node1" class="node">
<title>Node0</title>
<polygon fill="#bfbfbf" stroke="#000000" points="635.5,-324.5 635.5,-354.5 768.5,-354.5 768.5,-324.5 635.5,-324.5"/>
<text text-anchor="start" x="643.5" y="-342.5" font-family="Helvetica,sans-Serif" font-size="10.00" fill="#000000">extlib/tlx/tlx/sort</text>
<text text-anchor="middle" x="702" y="-331.5" font-family="Helvetica,sans-Serif" font-size="10.00" fill="#000000">/parallel_mergesort.hpp</text>
</g>
<!-- Node1 -->
<g id="node2" class="node">
<title>Node1</title>
<polygon fill="none" stroke="#bfbfbf" points="789,-.5 789,-19.5 853,-19.5 853,-.5 789,-.5"/>
<text text-anchor="middle" x="821" y="-7.5" font-family="Helvetica,sans-Serif" font-size="10.00" fill="#000000">algorithm</text>
</g>
<!-- Node0&#45;&gt;Node1 -->
<g id="edge1" class="edge">
<title>Node0&#45;&gt;Node1</title>
<path fill="none" stroke="#191970" d="M768.6241,-331.8184C926.645,-312.7005 1311,-260.5426 1311,-205.5 1311,-205.5 1311,-205.5 1311,-138.5 1311,-98.6701 1308.0621,-79.6314 1276,-56 1243.1411,-31.7814 969.4476,-16.7883 863.0627,-11.8276"/>
<polygon fill="#191970" stroke="#191970" points="863.1567,-8.3284 853.0066,-11.3655 862.8353,-15.321 863.1567,-8.3284"/>
</g>
<!-- Node2 -->
<g id="node3" class="node">
<title>Node2</title>
<polygon fill="none" stroke="#bfbfbf" points="1202.5,-62 1202.5,-81 1267.5,-81 1267.5,-62 1202.5,-62"/>
<text text-anchor="middle" x="1235" y="-69" font-family="Helvetica,sans-Serif" font-size="10.00" fill="#000000">functional</text>
</g>
<!-- Node0&#45;&gt;Node2 -->
<g id="edge2" class="edge">
<title>Node0&#45;&gt;Node2</title>
<path fill="none" stroke="#191970" d="M768.7188,-325.0278C850.9909,-306.0874 994.2631,-269.5117 1111,-221 1167.7653,-197.4104 1199.8316,-206.3828 1232,-154 1243.6218,-135.0752 1242.2737,-108.8346 1239.3988,-91.068"/>
<polygon fill="#191970" stroke="#191970" points="1242.7899,-90.168 1237.4621,-81.0103 1235.9162,-91.4917 1242.7899,-90.168"/>
</g>
<!-- Node3 -->
<g id="node4" class="node">
<title>Node3</title>
<polygon fill="none" stroke="#bfbfbf" points="155,-196 155,-215 203,-215 203,-196 155,-196"/>
<text text-anchor="middle" x="179" y="-203" font-family="Helvetica,sans-Serif" font-size="10.00" fill="#000000">thread</text>
</g>
<!-- Node0&#45;&gt;Node3 -->
<g id="edge3" class="edge">
<title>Node0&#45;&gt;Node3</title>
<path fill="none" stroke="#191970" d="M635.3865,-327.0876C585.0687,-317.3817 514.4196,-303.049 453,-288 347.0986,-262.0521 320.0814,-256.5335 217,-221 215.0803,-220.3382 213.117,-219.6317 211.1437,-218.8986"/>
<polygon fill="#191970" stroke="#191970" points="211.9373,-215.4522 201.3484,-215.0955 209.4037,-221.9777 211.9373,-215.4522"/>
</g>
<!-- Node4 -->
<g id="node5" class="node">
<title>Node4</title>
<polygon fill="none" stroke="#bfbfbf" points="154.5,-.5 154.5,-19.5 199.5,-19.5 199.5,-.5 154.5,-.5"/>
<text text-anchor="middle" x="177" y="-7.5" font-family="Helvetica,sans-Serif" font-size="10.00" fill="#000000">utility</text>
</g>
<!-- Node0&#45;&gt;Node4 -->
<g id="edge4" class="edge">
<title>Node0&#45;&gt;Node4</title>
<path fill="none" stroke="#191970" d="M635.1717,-335.476C515.4443,-327.8277 269.121,-309.9764 186,-288 98.5706,-264.8845 0,-295.9335 0,-205.5 0,-205.5 0,-205.5 0,-138.5 0,-67.9812 93.142,-32.1531 144.2929,-17.7942"/>
<polygon fill="#191970" stroke="#191970" points="145.4725,-21.1015 154.2227,-15.1279 143.6571,-14.341 145.4725,-21.1015"/>
</g>
<!-- Node5 -->
<g id="node6" class="node">
<title>Node5</title>
<g id="a_node6"><a xlink:href="multisequence__selection_8hpp.html" target="_top" xlink:title="tlx/algorithm/multisequence\l_selection.hpp">
<polygon fill="none" stroke="#000000" points="531.5,-123.5 531.5,-153.5 686.5,-153.5 686.5,-123.5 531.5,-123.5"/>
<text text-anchor="start" x="539.5" y="-141.5" font-family="Helvetica,sans-Serif" font-size="10.00" fill="#000000">tlx/algorithm/multisequence</text>
<text text-anchor="middle" x="609" y="-130.5" font-family="Helvetica,sans-Serif" font-size="10.00" fill="#000000">_selection.hpp</text>
</a>
</g>
</g>
<!-- Node0&#45;&gt;Node5 -->
<g id="edge5" class="edge">
<title>Node0&#45;&gt;Node5</title>
<path fill="none" stroke="#191970" d="M695.0099,-324.3923C679.015,-289.8226 639.6373,-204.7161 620.2098,-162.7277"/>
<polygon fill="#191970" stroke="#191970" points="623.3201,-161.1147 615.9444,-153.5088 616.9671,-164.0542 623.3201,-161.1147"/>
</g>
<!-- Node13 -->
<g id="node14" class="node">
<title>Node13</title>
<g id="a_node14"><a xlink:href="parallel__multiway__merge_8hpp.html" target="_top" xlink:title="tlx/algorithm/parallel\l_multiway_merge.hpp">
<polygon fill="none" stroke="#000000" points="462.5,-257.5 462.5,-287.5 587.5,-287.5 587.5,-257.5 462.5,-257.5"/>
<text text-anchor="start" x="470.5" y="-275.5" font-family="Helvetica,sans-Serif" font-size="10.00" fill="#000000">tlx/algorithm/parallel</text>
<text text-anchor="middle" x="525" y="-264.5" font-family="Helvetica,sans-Serif" font-size="10.00" fill="#000000">_multiway_merge.hpp</text>
</a>
</g>
</g>
<!-- Node0&#45;&gt;Node13 -->
<g id="edge17" class="edge">
<title>Node0&#45;&gt;Node13</title>
<path fill="none" stroke="#191970" d="M662.2777,-324.4639C636.2929,-314.6278 602.1493,-301.7034 574.4145,-291.2049"/>
<polygon fill="#191970" stroke="#191970" points="575.487,-287.8686 564.8955,-287.6017 573.0088,-294.4153 575.487,-287.8686"/>
</g>
<!-- Node22 -->
<g id="node23" class="node">
<title>Node22</title>
<g id="a_node23"><a xlink:href="simple__vector_8hpp.html" target="_top" xlink:title="tlx/simple_vector.hpp">
<polygon fill="none" stroke="#000000" points="66,-129 66,-148 188,-148 188,-129 66,-129"/>
<text text-anchor="middle" x="127" y="-136" font-family="Helvetica,sans-Serif" font-size="10.00" fill="#000000">tlx/simple_vector.hpp</text>
</a>
</g>
</g>
<!-- Node0&#45;&gt;Node22 -->
<g id="edge55" class="edge">
<title>Node0&#45;&gt;Node22</title>
<path fill="none" stroke="#191970" d="M635.2748,-334.8222C559.4433,-328.4817 432.3935,-314.7396 326,-288 243.2124,-267.1932 202.3129,-285.1528 146,-221 130.8241,-203.7114 127.1029,-176.7247 126.5024,-158.3609"/>
<polygon fill="#191970" stroke="#191970" points="130.0018,-158.1894 126.4574,-148.205 123.0019,-158.2205 130.0018,-158.1894"/>
</g>
<!-- Node23 -->
<g id="node24" class="node">
<title>Node23</title>
<g id="a_node24"><a xlink:href="thread__barrier__mutex_8hpp.html" target="_top" xlink:title="tlx/thread_barrier\l_mutex.hpp">
<polygon fill="none" stroke="#000000" points="1433.5,-257.5 1433.5,-287.5 1534.5,-287.5 1534.5,-257.5 1433.5,-257.5"/>
<text text-anchor="start" x="1441.5" y="-275.5" font-family="Helvetica,sans-Serif" font-size="10.00" fill="#000000">tlx/thread_barrier</text>
<text text-anchor="middle" x="1484" y="-264.5" font-family="Helvetica,sans-Serif" font-size="10.00" fill="#000000">_mutex.hpp</text>
</a>
</g>
</g>
<!-- Node0&#45;&gt;Node23 -->
<g id="edge56" class="edge">
<title>Node0&#45;&gt;Node23</title>
<path fill="none" stroke="#191970" d="M768.8697,-334.2965C882.9761,-325.3447 1122.5994,-306.2301 1325,-288 1357.3699,-285.0845 1393.4211,-281.5903 1423.0008,-278.6582"/>
<polygon fill="#191970" stroke="#191970" points="1423.5723,-282.1187 1433.1769,-277.6464 1422.8797,-275.1531 1423.5723,-282.1187"/>
</g>
<!-- Node5&#45;&gt;Node1 -->
<g id="edge6" class="edge">
<title>Node5&#45;&gt;Node1</title>
<path fill="none" stroke="#191970" d="M632.3311,-123.3589C647.8949,-113.194 668.7692,-99.4366 687,-87 706.7615,-73.5193 710.5208,-68.3632 731,-56 750.393,-44.2925 773.1134,-32.6952 790.874,-24.074"/>
<polygon fill="#191970" stroke="#191970" points="792.6769,-27.091 800.1781,-19.6089 789.6482,-20.7802 792.6769,-27.091"/>
</g>
<!-- Node5&#45;&gt;Node4 -->
<g id="edge9" class="edge">
<title>Node5&#45;&gt;Node4</title>
<path fill="none" stroke="#191970" d="M584.3446,-123.3777C568.5288,-113.4465 547.7142,-99.9429 530,-87 512.4012,-74.1414 512.0114,-64.6374 492,-56 379.2315,-7.3266 338.73,-42.5853 218,-20 215.3241,-19.4994 212.5612,-18.9335 209.7931,-18.3317"/>
<polygon fill="#191970" stroke="#191970" points="210.4213,-14.8848 199.8905,-16.0482 208.8483,-21.7058 210.4213,-14.8848"/>
</g>
<!-- Node6 -->
<g id="node7" class="node">
<title>Node6</title>
<polygon fill="none" stroke="#bfbfbf" points="431,-62 431,-81 483,-81 483,-62 431,-62"/>
<text text-anchor="middle" x="457" y="-69" font-family="Helvetica,sans-Serif" font-size="10.00" fill="#000000">cassert</text>
</g>
<!-- Node5&#45;&gt;Node6 -->
<g id="edge7" class="edge">
<title>Node5&#45;&gt;Node6</title>
<path fill="none" stroke="#191970" d="M574.8882,-123.4639C548.9251,-112.0196 513.477,-96.3945 488.2485,-85.274"/>
<polygon fill="#191970" stroke="#191970" points="489.3502,-81.9347 478.788,-81.1039 486.5268,-88.3401 489.3502,-81.9347"/>
</g>
<!-- Node7 -->
<g id="node8" class="node">
<title>Node7</title>
<polygon fill="none" stroke="#bfbfbf" points="365.5,-62 365.5,-81 412.5,-81 412.5,-62 365.5,-62"/>
<text text-anchor="middle" x="389" y="-69" font-family="Helvetica,sans-Serif" font-size="10.00" fill="#000000">queue</text>
</g>
<!-- Node5&#45;&gt;Node7 -->
<g id="edge8" class="edge">
<title>Node5&#45;&gt;Node7</title>
<path fill="none" stroke="#191970" d="M543.6649,-123.4142C507.3574,-114.3099 461.6415,-101.6469 422,-87 420.408,-86.4118 418.7876,-85.7768 417.162,-85.1112"/>
<polygon fill="#191970" stroke="#191970" points="418.5233,-81.8865 407.9593,-81.0783 415.7136,-88.2979 418.5233,-81.8865"/>
</g>
<!-- Node8 -->
<g id="node9" class="node">
<title>Node8</title>
<polygon fill="none" stroke="#bfbfbf" points="91.5,-62 91.5,-81 138.5,-81 138.5,-62 91.5,-62"/>
<text text-anchor="middle" x="115" y="-69" font-family="Helvetica,sans-Serif" font-size="10.00" fill="#000000">vector</text>
</g>
<!-- Node5&#45;&gt;Node8 -->
<g id="edge10" class="edge">
<title>Node5&#45;&gt;Node8</title>
<path fill="none" stroke="#191970" d="M531.2549,-124.3725C528.1318,-123.8926 525.0377,-123.4328 522,-123 373.3135,-101.8158 334.2497,-111.0517 186,-87 173.6707,-84.9997 160.2592,-82.2285 148.4463,-79.5817"/>
<polygon fill="#191970" stroke="#191970" points="149.0737,-76.1348 138.5443,-77.3103 147.5086,-82.9576 149.0737,-76.1348"/>
</g>
<!-- Node9 -->
<g id="node10" class="node">
<title>Node9</title>
<g id="a_node10"><a xlink:href="container_2simple__vector_8hpp.html" target="_top" xlink:title="tlx/container/simple\l_vector.hpp">
<polygon fill="none" stroke="#000000" points="195,-56.5 195,-86.5 309,-86.5 309,-56.5 195,-56.5"/>
<text text-anchor="start" x="203" y="-74.5" font-family="Helvetica,sans-Serif" font-size="10.00" fill="#000000">tlx/container/simple</text>
<text text-anchor="middle" x="252" y="-63.5" font-family="Helvetica,sans-Serif" font-size="10.00" fill="#000000">_vector.hpp</text>
</a>
</g>
</g>
<!-- Node5&#45;&gt;Node9 -->
<g id="edge11" class="edge">
<title>Node5&#45;&gt;Node9</title>
<path fill="none" stroke="#191970" d="M531.096,-123.8794C467.8705,-112.0135 379.6444,-95.4557 319.4186,-84.1528"/>
<polygon fill="#191970" stroke="#191970" points="319.7317,-80.6505 309.2576,-82.2458 318.4404,-87.5304 319.7317,-80.6505"/>
</g>
<!-- Node11 -->
<g id="node12" class="node">
<title>Node11</title>
<g id="a_node12"><a xlink:href="round__to__power__of__two_8hpp.html" target="_top" xlink:title="tlx/math/round_to_power\l_of_two.hpp">
<polygon fill="none" stroke="#000000" points="539.5,-56.5 539.5,-86.5 678.5,-86.5 678.5,-56.5 539.5,-56.5"/>
<text text-anchor="start" x="547.5" y="-74.5" font-family="Helvetica,sans-Serif" font-size="10.00" fill="#000000">tlx/math/round_to_power</text>
<text text-anchor="middle" x="609" y="-63.5" font-family="Helvetica,sans-Serif" font-size="10.00" fill="#000000">_of_two.hpp</text>
</a>
</g>
</g>
<!-- Node5&#45;&gt;Node11 -->
<g id="edge15" class="edge">
<title>Node5&#45;&gt;Node11</title>
<path fill="none" stroke="#191970" d="M609,-123.2967C609,-115.5013 609,-105.7991 609,-96.9064"/>
<polygon fill="#191970" stroke="#191970" points="612.5001,-96.6431 609,-86.6432 605.5001,-96.6432 612.5001,-96.6431"/>
</g>
<!-- Node9&#45;&gt;Node1 -->
<g id="edge12" class="edge">
<title>Node9&#45;&gt;Node1</title>
<path fill="none" stroke="#191970" d="M309.2379,-58.3722C313.8812,-57.5003 318.5114,-56.6946 323,-56 490.6222,-30.0621 692.413,-16.9239 778.6162,-12.1547"/>
<polygon fill="#191970" stroke="#191970" points="778.9934,-15.6394 788.7884,-11.6013 778.6131,-8.6498 778.9934,-15.6394"/>
</g>
<!-- Node9&#45;&gt;Node4 -->
<g id="edge14" class="edge">
<title>Node9&#45;&gt;Node4</title>
<path fill="none" stroke="#191970" d="M233.4607,-56.2977C222.3992,-47.2274 208.3509,-35.7077 197.0347,-26.4285"/>
<polygon fill="#191970" stroke="#191970" points="198.9604,-23.4813 189.0084,-19.8469 194.5219,-28.8942 198.9604,-23.4813"/>
</g>
<!-- Node10 -->
<g id="node11" class="node">
<title>Node10</title>
<polygon fill="none" stroke="#bfbfbf" points="227.5,-.5 227.5,-19.5 276.5,-19.5 276.5,-.5 227.5,-.5"/>
<text text-anchor="middle" x="252" y="-7.5" font-family="Helvetica,sans-Serif" font-size="10.00" fill="#000000">cstdlib</text>
</g>
<!-- Node9&#45;&gt;Node10 -->
<g id="edge13" class="edge">
<title>Node9&#45;&gt;Node10</title>
<path fill="none" stroke="#191970" d="M252,-56.2977C252,-48.3834 252,-38.6043 252,-30.0759"/>
<polygon fill="#191970" stroke="#191970" points="255.5001,-29.8469 252,-19.8469 248.5001,-29.847 255.5001,-29.8469"/>
</g>
<!-- Node12 -->
<g id="node13" class="node">
<title>Node12</title>
<polygon fill="none" stroke="#bfbfbf" points="582.5,-.5 582.5,-19.5 635.5,-19.5 635.5,-.5 582.5,-.5"/>
<text text-anchor="middle" x="609" y="-7.5" font-family="Helvetica,sans-Serif" font-size="10.00" fill="#000000">cstddef</text>
</g>
<!-- Node11&#45;&gt;Node12 -->
<g id="edge16" class="edge">
<title>Node11&#45;&gt;Node12</title>
<path fill="none" stroke="#191970" d="M609,-56.2977C609,-48.3834 609,-38.6043 609,-30.0759"/>
<polygon fill="#191970" stroke="#191970" points="612.5001,-29.8469 609,-19.8469 605.5001,-29.847 612.5001,-29.8469"/>
</g>
<!-- Node13&#45;&gt;Node1 -->
<g id="edge18" class="edge">
<title>Node13&#45;&gt;Node1</title>
<path fill="none" stroke="#191970" d="M565.4955,-257.4516C626.7471,-232.3761 741.568,-175.847 796,-87 806.9769,-69.0829 813.659,-45.8325 817.3191,-29.5884"/>
<polygon fill="#191970" stroke="#191970" points="820.7841,-30.1155 819.3857,-19.6134 813.9297,-28.6953 820.7841,-30.1155"/>
</g>
<!-- Node13&#45;&gt;Node2 -->
<g id="edge19" class="edge">
<title>Node13&#45;&gt;Node2</title>
<path fill="none" stroke="#191970" d="M587.6773,-270.305C739.2097,-263.6849 1119.4633,-238.812 1208,-154 1225.2043,-137.5195 1231.4565,-109.933 1233.7224,-91.2416"/>
<polygon fill="#191970" stroke="#191970" points="1237.2175,-91.4562 1234.6646,-81.1735 1230.248,-90.8039 1237.2175,-91.4562"/>
</g>
<!-- Node13&#45;&gt;Node3 -->
<g id="edge20" class="edge">
<title>Node13&#45;&gt;Node3</title>
<path fill="none" stroke="#191970" d="M462.457,-266.1602C399.5884,-258.8319 300.3185,-244.6418 217,-221 214.541,-220.3023 212.0249,-219.4957 209.5161,-218.6245"/>
<polygon fill="#191970" stroke="#191970" points="210.6033,-215.2939 200.0116,-215.0375 208.1317,-221.843 210.6033,-215.2939"/>
</g>
<!-- Node13&#45;&gt;Node8 -->
<g id="edge21" class="edge">
<title>Node13&#45;&gt;Node8</title>
<path fill="none" stroke="#191970" d="M462.4443,-264.1308C411.1542,-256.2028 337.1463,-242.3018 275,-221 245.4798,-210.8814 241.3911,-200.4876 212,-190 145.391,-166.232 100.9893,-209.3771 57,-154 39.1355,-131.5109 67.9816,-103.9677 91.0101,-87.0821"/>
<polygon fill="#191970" stroke="#191970" points="93.2666,-89.7744 99.4416,-81.1651 89.2456,-84.0445 93.2666,-89.7744"/>
</g>
<!-- Node14 -->
<g id="node15" class="node">
<title>Node14</title>
<g id="a_node15"><a xlink:href="extlib_2tlx_2tlx_2algorithm_2multiway__merge_8hpp.html" target="_top" xlink:title="tlx/algorithm/multiway\l_merge.hpp">
<polygon fill="none" stroke="#000000" points="832,-190.5 832,-220.5 960,-220.5 960,-190.5 832,-190.5"/>
<text text-anchor="start" x="840" y="-208.5" font-family="Helvetica,sans-Serif" font-size="10.00" fill="#000000">tlx/algorithm/multiway</text>
<text text-anchor="middle" x="896" y="-197.5" font-family="Helvetica,sans-Serif" font-size="10.00" fill="#000000">_merge.hpp</text>
</a>
</g>
</g>
<!-- Node13&#45;&gt;Node14 -->
<g id="edge22" class="edge">
<title>Node13&#45;&gt;Node14</title>
<path fill="none" stroke="#191970" d="M587.5156,-261.2101C652.272,-249.5156 753.421,-231.2488 822.0945,-218.8468"/>
<polygon fill="#191970" stroke="#191970" points="822.764,-222.2826 831.9828,-217.0611 821.5199,-215.394 822.764,-222.2826"/>
</g>
<!-- Node20 -->
<g id="node21" class="node">
<title>Node20</title>
<g id="a_node21"><a xlink:href="multiway__merge__splitting_8hpp.html" target="_top" xlink:title="tlx/algorithm/multiway\l_merge_splitting.hpp">
<polygon fill="none" stroke="#000000" points="372,-190.5 372,-220.5 500,-220.5 500,-190.5 372,-190.5"/>
<text text-anchor="start" x="380" y="-208.5" font-family="Helvetica,sans-Serif" font-size="10.00" fill="#000000">tlx/algorithm/multiway</text>
<text text-anchor="middle" x="436" y="-197.5" font-family="Helvetica,sans-Serif" font-size="10.00" fill="#000000">_merge_splitting.hpp</text>
</a>
</g>
</g>
<!-- Node13&#45;&gt;Node20 -->
<g id="edge41" class="edge">
<title>Node13&#45;&gt;Node20</title>
<path fill="none" stroke="#191970" d="M504.8045,-257.2967C492.8564,-248.302 477.5361,-236.7687 464.3862,-226.8694"/>
<polygon fill="#191970" stroke="#191970" points="466.2098,-223.8613 456.1156,-220.6432 461.9998,-229.4538 466.2098,-223.8613"/>
</g>
<!-- Node13&#45;&gt;Node22 -->
<g id="edge54" class="edge">
<title>Node13&#45;&gt;Node22</title>
<path fill="none" stroke="#191970" d="M476.3244,-257.4234C444.0954,-247.3432 400.9329,-233.6568 363,-221 291.8466,-197.2587 209.2094,-167.9743 163.0199,-151.4503"/>
<polygon fill="#191970" stroke="#191970" points="164.0546,-148.1032 153.46,-148.0263 161.6942,-154.6933 164.0546,-148.1032"/>
</g>
<!-- Node14&#45;&gt;Node1 -->
<g id="edge23" class="edge">
<title>Node14&#45;&gt;Node1</title>
<path fill="none" stroke="#191970" d="M930.6259,-190.3963C951.7,-180.7856 978.9157,-167.6192 1002,-154 1022.6032,-141.8446 1025.5729,-135.449 1046,-123 1075.5367,-104.9993 1097.0694,-116.5794 1115,-87 1122.1421,-75.2179 1123.9578,-66.4683 1115,-56 1098.8396,-37.1145 940.8283,-20.6274 863.372,-13.6055"/>
<polygon fill="#191970" stroke="#191970" points="863.2723,-10.0827 853.0003,-12.6782 862.6489,-17.0549 863.2723,-10.0827"/>
</g>
<!-- Node14&#45;&gt;Node2 -->
<g id="edge24" class="edge">
<title>Node14&#45;&gt;Node2</title>
<path fill="none" stroke="#191970" d="M960.2882,-199.5014C1032.0798,-191.8162 1142.8292,-176.7132 1178,-154 1201.6774,-138.7092 1218.2044,-109.7617 1227.155,-90.5472"/>
<polygon fill="#191970" stroke="#191970" points="1230.4151,-91.8286 1231.2443,-81.2662 1224.0093,-89.0061 1230.4151,-91.8286"/>
</g>
<!-- Node14&#45;&gt;Node4 -->
<g id="edge26" class="edge">
<title>Node14&#45;&gt;Node4</title>
<path fill="none" stroke="#191970" d="M831.9596,-203.544C692.1812,-198.7555 363.7365,-184.5373 257,-154 228.1422,-145.7438 224.7602,-134.4154 197,-123 147.4675,-102.6315 113.713,-130.1582 82,-87 73.8417,-75.8974 74.6823,-67.6738 82,-56 95.6115,-34.286 122.7028,-22.5683 144.4839,-16.4054"/>
<polygon fill="#191970" stroke="#191970" points="145.5386,-19.7483 154.3582,-13.8776 143.8025,-12.967 145.5386,-19.7483"/>
</g>
<!-- Node14&#45;&gt;Node8 -->
<g id="edge27" class="edge">
<title>Node14&#45;&gt;Node8</title>
<path fill="none" stroke="#191970" d="M831.8682,-204.0218C699.6931,-200.3069 401.3654,-188.2877 306,-154 283.1459,-145.783 282.64,-134.0243 261,-123 223.991,-104.1461 178.4628,-89.2885 148.1857,-80.4726"/>
<polygon fill="#191970" stroke="#191970" points="149.1135,-77.0977 138.5368,-77.7174 147.1915,-83.8287 149.1135,-77.0977"/>
</g>
<!-- Node14&#45;&gt;Node9 -->
<g id="edge39" class="edge">
<title>Node14&#45;&gt;Node9</title>
<path fill="none" stroke="#191970" d="M831.7415,-204.2682C706.5129,-201.085 434.5735,-190.1127 349,-154 332.439,-147.0111 297.7775,-115.6118 274.6938,-93.6342"/>
<polygon fill="#191970" stroke="#191970" points="276.9914,-90.9882 267.3521,-86.591 272.1453,-96.0396 276.9914,-90.9882"/>
</g>
<!-- Node15 -->
<g id="node16" class="node">
<title>Node15</title>
<polygon fill="none" stroke="#bfbfbf" points="781,-129 781,-148 837,-148 837,-129 781,-129"/>
<text text-anchor="middle" x="809" y="-136" font-family="Helvetica,sans-Serif" font-size="10.00" fill="#000000">numeric</text>
</g>
<!-- Node14&#45;&gt;Node15 -->
<g id="edge25" class="edge">
<title>Node14&#45;&gt;Node15</title>
<path fill="none" stroke="#191970" d="M876.2584,-190.2967C862.3085,-179.5537 843.6565,-165.1895 829.5332,-154.3129"/>
<polygon fill="#191970" stroke="#191970" points="831.4656,-151.3835 821.4072,-148.055 827.1945,-156.9295 831.4656,-151.3835"/>
</g>
<!-- Node16 -->
<g id="node17" class="node">
<title>Node16</title>
<g id="a_node17"><a xlink:href="merge__advance_8hpp.html" target="_top" xlink:title="tlx/algorithm/merge\l_advance.hpp">
<polygon fill="none" stroke="#000000" points="1055,-123.5 1055,-153.5 1169,-153.5 1169,-123.5 1055,-123.5"/>
<text text-anchor="start" x="1063" y="-141.5" font-family="Helvetica,sans-Serif" font-size="10.00" fill="#000000">tlx/algorithm/merge</text>
<text text-anchor="middle" x="1112" y="-130.5" font-family="Helvetica,sans-Serif" font-size="10.00" fill="#000000">_advance.hpp</text>
</a>
</g>
</g>
<!-- Node14&#45;&gt;Node16 -->
<g id="edge28" class="edge">
<title>Node14&#45;&gt;Node16</title>
<path fill="none" stroke="#191970" d="M944.4746,-190.4639C976.7388,-180.456 1019.3104,-167.2509 1053.4639,-156.657"/>
<polygon fill="#191970" stroke="#191970" points="1054.7998,-159.9072 1063.314,-153.6017 1052.7259,-153.2215 1054.7998,-159.9072"/>
</g>
<!-- Node17 -->
<g id="node18" class="node">
<title>Node17</title>
<g id="a_node18"><a xlink:href="loser__tree_8hpp.html" target="_top" xlink:title="tlx/container/loser\l_tree.hpp">
<polygon fill="none" stroke="#000000" points="855.5,-123.5 855.5,-153.5 960.5,-153.5 960.5,-123.5 855.5,-123.5"/>
<text text-anchor="start" x="863.5" y="-141.5" font-family="Helvetica,sans-Serif" font-size="10.00" fill="#000000">tlx/container/loser</text>
<text text-anchor="middle" x="908" y="-130.5" font-family="Helvetica,sans-Serif" font-size="10.00" fill="#000000">_tree.hpp</text>
</a>
</g>
</g>
<!-- Node14&#45;&gt;Node17 -->
<g id="edge30" class="edge">
<title>Node14&#45;&gt;Node17</title>
<path fill="none" stroke="#191970" d="M898.723,-190.2967C900.1345,-182.4156 901.8951,-172.5857 903.5021,-163.6135"/>
<polygon fill="#191970" stroke="#191970" points="906.9699,-164.1036 905.2878,-153.6432 900.0795,-162.8695 906.9699,-164.1036"/>
</g>
<!-- Node19 -->
<g id="node20" class="node">
<title>Node19</title>
<g id="a_node20"><a xlink:href="unused_8hpp.html" target="_top" xlink:title="tlx/unused.hpp">
<polygon fill="none" stroke="#000000" points="1017.5,-62 1017.5,-81 1106.5,-81 1106.5,-62 1017.5,-62"/>
<text text-anchor="middle" x="1062" y="-69" font-family="Helvetica,sans-Serif" font-size="10.00" fill="#000000">tlx/unused.hpp</text>
</a>
</g>
</g>
<!-- Node14&#45;&gt;Node19 -->
<g id="edge40" class="edge">
<title>Node14&#45;&gt;Node19</title>
<path fill="none" stroke="#191970" d="M918.8363,-190.3529C933.4723,-180.4118 952.7097,-166.9065 969,-154 996.2868,-132.3811 1026.1081,-105.2538 1044.4376,-88.1417"/>
<polygon fill="#191970" stroke="#191970" points="1047.1065,-90.4368 1052.0003,-81.0399 1042.3147,-85.334 1047.1065,-90.4368"/>
</g>
<!-- Node16&#45;&gt;Node1 -->
<g id="edge29" class="edge">
<title>Node16&#45;&gt;Node1</title>
<path fill="none" stroke="#191970" d="M1127.9466,-123.3277C1144.7067,-105.5606 1166.4073,-76.0189 1149,-56 1130.4825,-34.7043 947.4848,-19.0193 863.1574,-12.8628"/>
<polygon fill="#191970" stroke="#191970" points="863.3651,-9.3688 853.1398,-12.1425 862.863,-16.3508 863.3651,-9.3688"/>
</g>
<!-- Node17&#45;&gt;Node1 -->
<g id="edge31" class="edge">
<title>Node17&#45;&gt;Node1</title>
<path fill="none" stroke="#191970" d="M933.026,-123.3543C957.0942,-106.8521 987.4456,-79.6439 970,-56 957.1727,-38.6152 902.4229,-25.0275 863.0109,-17.2597"/>
<polygon fill="#191970" stroke="#191970" points="863.5846,-13.8061 853.1051,-15.3649 862.2694,-20.6814 863.5846,-13.8061"/>
</g>
<!-- Node17&#45;&gt;Node2 -->
<g id="edge33" class="edge">
<title>Node17&#45;&gt;Node2</title>
<path fill="none" stroke="#191970" d="M960.5382,-127.7353C1025.0494,-114.5174 1133.1981,-92.3585 1192.6528,-80.1766"/>
<polygon fill="#191970" stroke="#191970" points="1193.3707,-83.6024 1202.4646,-78.1663 1191.9656,-76.7448 1193.3707,-83.6024"/>
</g>
<!-- Node17&#45;&gt;Node4 -->
<g id="edge34" class="edge">
<title>Node17&#45;&gt;Node4</title>
<path fill="none" stroke="#191970" d="M876.2852,-123.4164C834.1207,-104.1268 756.79,-71.3827 687,-56 482.8428,-11.0008 424.4562,-52.8774 218,-20 215.3115,-19.5719 212.5398,-19.0574 209.7656,-18.4906"/>
<polygon fill="#191970" stroke="#191970" points="210.3754,-15.0405 199.8521,-16.2698 208.8452,-21.8712 210.3754,-15.0405"/>
</g>
<!-- Node17&#45;&gt;Node6 -->
<g id="edge32" class="edge">
<title>Node17&#45;&gt;Node6</title>
<path fill="none" stroke="#191970" d="M855.3372,-124.8335C852.1868,-124.1718 849.0569,-123.5538 846,-123 706.9108,-97.804 669.5174,-109.7054 530,-87 517.9334,-85.0363 504.8444,-82.4143 493.1259,-79.8862"/>
<polygon fill="#191970" stroke="#191970" points="493.7599,-76.442 483.2409,-77.7076 492.2532,-83.2779 493.7599,-76.442"/>
</g>
<!-- Node17&#45;&gt;Node9 -->
<g id="edge35" class="edge">
<title>Node17&#45;&gt;Node9</title>
<path fill="none" stroke="#191970" d="M855.3621,-124.6874C852.2055,-124.0624 849.0674,-123.4924 846,-123 630.3952,-88.392 573.0295,-111.1114 356,-87 344.0934,-85.6772 331.457,-84.014 319.2474,-82.2719"/>
<polygon fill="#191970" stroke="#191970" points="319.5173,-78.7744 309.1171,-80.7957 318.5079,-85.7012 319.5173,-78.7744"/>
</g>
<!-- Node17&#45;&gt;Node11 -->
<g id="edge37" class="edge">
<title>Node17&#45;&gt;Node11</title>
<path fill="none" stroke="#191970" d="M855.2618,-125.1973C852.1303,-124.4442 849.0252,-123.7067 846,-123 793.6668,-110.7755 734.6051,-97.939 688.533,-88.1394"/>
<polygon fill="#191970" stroke="#191970" points="689.1178,-84.6856 678.6089,-86.0328 687.6642,-91.5331 689.1178,-84.6856"/>
</g>
<!-- Node18 -->
<g id="node19" class="node">
<title>Node18</title>
<g id="a_node19"><a xlink:href="likely_8hpp.html" target="_top" xlink:title="tlx/define/likely.hpp">
<polygon fill="none" stroke="#000000" points="849,-62 849,-81 961,-81 961,-62 849,-62"/>
<text text-anchor="middle" x="905" y="-69" font-family="Helvetica,sans-Serif" font-size="10.00" fill="#000000">tlx/define/likely.hpp</text>
</a>
</g>
</g>
<!-- Node17&#45;&gt;Node18 -->
<g id="edge36" class="edge">
<title>Node17&#45;&gt;Node18</title>
<path fill="none" stroke="#191970" d="M907.3193,-123.2967C906.8927,-113.7699 906.3386,-101.3954 905.879,-91.1306"/>
<polygon fill="#191970" stroke="#191970" points="909.3717,-90.8884 905.4278,-81.055 902.3787,-91.2016 909.3717,-90.8884"/>
</g>
<!-- Node17&#45;&gt;Node19 -->
<g id="edge38" class="edge">
<title>Node17&#45;&gt;Node19</title>
<path fill="none" stroke="#191970" d="M942.5606,-123.4639C968.9818,-111.969 1005.0979,-96.2561 1030.6791,-85.1266"/>
<polygon fill="#191970" stroke="#191970" points="1032.1519,-88.3028 1039.9253,-81.1039 1029.3592,-81.884 1032.1519,-88.3028"/>
</g>
<!-- Node20&#45;&gt;Node1 -->
<g id="edge42" class="edge">
<title>Node20&#45;&gt;Node1</title>
<path fill="none" stroke="#191970" d="M500.2984,-197.5341C565.9049,-188.5614 662.5523,-172.7564 695,-154 748.9788,-122.7975 791.535,-59.9453 810.4031,-28.6234"/>
<polygon fill="#191970" stroke="#191970" points="813.6322,-30.0368 815.6813,-19.642 807.5971,-26.4902 813.6322,-30.0368"/>
</g>
<!-- Node20&#45;&gt;Node8 -->
<g id="edge43" class="edge">
<title>Node20&#45;&gt;Node8</title>
<path fill="none" stroke="#191970" d="M382.9604,-190.436C351.9393,-181.0777 312.2639,-168.1572 278,-154 228.0576,-133.3648 172.3942,-103.6547 140.7456,-86.0888"/>
<polygon fill="#191970" stroke="#191970" points="142.1646,-82.8724 131.7275,-81.0507 138.7505,-88.9834 142.1646,-82.8724"/>
</g>
<!-- Node21 -->
<g id="node22" class="node">
<title>Node21</title>
<g id="a_node22"><a xlink:href="multisequence__partition_8hpp.html" target="_top" xlink:title="tlx/algorithm/multisequence\l_partition.hpp">
<polygon fill="none" stroke="#000000" points="358.5,-123.5 358.5,-153.5 513.5,-153.5 513.5,-123.5 358.5,-123.5"/>
<text text-anchor="start" x="366.5" y="-141.5" font-family="Helvetica,sans-Serif" font-size="10.00" fill="#000000">tlx/algorithm/multisequence</text>
<text text-anchor="middle" x="436" y="-130.5" font-family="Helvetica,sans-Serif" font-size="10.00" fill="#000000">_partition.hpp</text>
</a>
</g>
</g>
<!-- Node20&#45;&gt;Node21 -->
<g id="edge44" class="edge">
<title>Node20&#45;&gt;Node21</title>
<path fill="none" stroke="#191970" d="M436,-190.2967C436,-182.5013 436,-172.7991 436,-163.9064"/>
<polygon fill="#191970" stroke="#191970" points="439.5001,-163.6431 436,-153.6432 432.5001,-163.6432 439.5001,-163.6431"/>
</g>
<!-- Node20&#45;&gt;Node22 -->
<g id="edge52" class="edge">
<title>Node20&#45;&gt;Node22</title>
<path fill="none" stroke="#191970" d="M371.975,-191.6176C315.5111,-179.3746 234.1546,-161.7342 180.9398,-150.1957"/>
<polygon fill="#191970" stroke="#191970" points="181.5303,-146.7425 171.0157,-148.0439 180.0469,-153.5835 181.5303,-146.7425"/>
</g>
<!-- Node21&#45;&gt;Node1 -->
<g id="edge45" class="edge">
<title>Node21&#45;&gt;Node1</title>
<path fill="none" stroke="#191970" d="M403.6359,-123.4392C372.8052,-107.1218 334.0989,-80.1746 356,-56 370.1144,-40.4205 666.3154,-19.9072 778.4712,-12.6681"/>
<polygon fill="#191970" stroke="#191970" points="778.9795,-16.1428 788.7348,-12.0096 778.5312,-9.1571 778.9795,-16.1428"/>
</g>
<!-- Node21&#45;&gt;Node4 -->
<g id="edge48" class="edge">
<title>Node21&#45;&gt;Node4</title>
<path fill="none" stroke="#191970" d="M358.356,-127.1551C289.4104,-116.3385 197.7724,-99.8414 186,-87 172.0482,-71.7814 171.5851,-47.1539 173.455,-29.8576"/>
<polygon fill="#191970" stroke="#191970" points="176.9533,-30.1172 174.9023,-19.7228 170.0236,-29.1275 176.9533,-30.1172"/>
</g>
<!-- Node21&#45;&gt;Node6 -->
<g id="edge46" class="edge">
<title>Node21&#45;&gt;Node6</title>
<path fill="none" stroke="#191970" d="M440.7652,-123.2967C443.783,-113.6685 447.7124,-101.1318 450.9496,-90.8038"/>
<polygon fill="#191970" stroke="#191970" points="454.354,-91.6441 454.0052,-81.055 447.6744,-89.5504 454.354,-91.6441"/>
</g>
<!-- Node21&#45;&gt;Node7 -->
<g id="edge47" class="edge">
<title>Node21&#45;&gt;Node7</title>
<path fill="none" stroke="#191970" d="M425.335,-123.2967C418.2965,-113.2631 409.0423,-100.0709 401.6348,-89.5113"/>
<polygon fill="#191970" stroke="#191970" points="404.3109,-87.2316 395.7027,-81.055 398.5803,-91.2516 404.3109,-87.2316"/>
</g>
<!-- Node21&#45;&gt;Node8 -->
<g id="edge49" class="edge">
<title>Node21&#45;&gt;Node8</title>
<path fill="none" stroke="#191970" d="M358.4265,-128.8078C300.9866,-120.5689 221.1993,-106.8809 153,-87 150.6914,-86.327 148.3311,-85.5621 145.9728,-84.7411"/>
<polygon fill="#191970" stroke="#191970" points="147.019,-81.3952 136.4271,-81.1431 144.55,-87.9453 147.019,-81.3952"/>
</g>
<!-- Node21&#45;&gt;Node9 -->
<g id="edge50" class="edge">
<title>Node21&#45;&gt;Node9</title>
<path fill="none" stroke="#191970" d="M394.7068,-123.4639C367.5764,-113.5849 331.8902,-100.5905 302.9914,-90.0675"/>
<polygon fill="#191970" stroke="#191970" points="304.0673,-86.7345 293.4733,-86.6017 301.6722,-93.312 304.0673,-86.7345"/>
</g>
<!-- Node21&#45;&gt;Node11 -->
<g id="edge51" class="edge">
<title>Node21&#45;&gt;Node11</title>
<path fill="none" stroke="#191970" d="M474.8246,-123.4639C500.1113,-113.6708 533.3029,-100.8162 560.3468,-90.3426"/>
<polygon fill="#191970" stroke="#191970" points="561.945,-93.477 570.0061,-86.6017 559.417,-86.9494 561.945,-93.477"/>
</g>
<!-- Node22&#45;&gt;Node9 -->
<g id="edge53" class="edge">
<title>Node22&#45;&gt;Node9</title>
<path fill="none" stroke="#191970" d="M144.9095,-128.9005C163.1459,-119.1258 191.9505,-103.6865 215.0948,-91.2812"/>
<polygon fill="#191970" stroke="#191970" points="216.814,-94.3308 223.9743,-86.5218 213.5071,-88.1612 216.814,-94.3308"/>
</g>
<!-- Node24 -->
<g id="node25" class="node">
<title>Node24</title>
<g id="a_node25"><a xlink:href="no__operation_8hpp.html" target="_top" xlink:title="tlx/meta/no_operation.hpp">
<polygon fill="none" stroke="#000000" points="1339,-196 1339,-215 1485,-215 1485,-196 1339,-196"/>
<text text-anchor="middle" x="1412" y="-203" font-family="Helvetica,sans-Serif" font-size="10.00" fill="#000000">tlx/meta/no_operation.hpp</text>
</a>
</g>
</g>
<!-- Node23&#45;&gt;Node24 -->
<g id="edge57" class="edge">
<title>Node23&#45;&gt;Node24</title>
<path fill="none" stroke="#191970" d="M1467.6621,-257.2967C1456.3352,-246.7564 1441.2624,-232.7303 1429.6586,-221.9323"/>
<polygon fill="#191970" stroke="#191970" points="1431.9731,-219.3051 1422.268,-215.055 1427.2044,-224.4296 1431.9731,-219.3051"/>
</g>
<!-- Node25 -->
<g id="node26" class="node">
<title>Node25</title>
<polygon fill="none" stroke="#bfbfbf" points="1503.5,-196 1503.5,-215 1610.5,-215 1610.5,-196 1503.5,-196"/>
<text text-anchor="middle" x="1557" y="-203" font-family="Helvetica,sans-Serif" font-size="10.00" fill="#000000">condition_variable</text>
</g>
<!-- Node23&#45;&gt;Node25 -->
<g id="edge58" class="edge">
<title>Node23&#45;&gt;Node25</title>
<path fill="none" stroke="#191970" d="M1500.5648,-257.2967C1512.049,-246.7564 1527.3312,-232.7303 1539.0962,-221.9323"/>
<polygon fill="#191970" stroke="#191970" points="1541.5886,-224.3954 1546.5894,-215.055 1536.8553,-219.2382 1541.5886,-224.3954"/>
</g>
<!-- Node26 -->
<g id="node27" class="node">
<title>Node26</title>
<polygon fill="none" stroke="#bfbfbf" points="1629,-196 1629,-215 1677,-215 1677,-196 1629,-196"/>
<text text-anchor="middle" x="1653" y="-203" font-family="Helvetica,sans-Serif" font-size="10.00" fill="#000000">mutex</text>
</g>
<!-- Node23&#45;&gt;Node26 -->
<g id="edge59" class="edge">
<title>Node23&#45;&gt;Node26</title>
<path fill="none" stroke="#191970" d="M1526.2994,-257.4367C1553.3117,-247.583 1588.9628,-234.1425 1620,-221 1621.3479,-220.4293 1622.7215,-219.8351 1624.1053,-219.2265"/>
<polygon fill="#191970" stroke="#191970" points="1625.5564,-222.4116 1633.2181,-215.094 1622.6653,-216.0365 1625.5564,-222.4116"/>
</g>
</g>
</svg>
