<?xml version="1.0" encoding="UTF-8" standalone="no"?>
<!DOCTYPE svg PUBLIC "-//W3C//DTD SVG 1.1//EN"
 "http://www.w3.org/Graphics/SVG/1.1/DTD/svg11.dtd">
<!-- Generated by graphviz version 2.36.0 (20140111.2315)
 -->
<!-- Title: extlib/tlx/tlx/sort/parallel_mergesort.hpp Pages: 1 -->
<svg width="1660pt" height="368pt"
 viewBox="0.00 0.00 1660.00 368.00" xmlns="http://www.w3.org/2000/svg" xmlns:xlink="http://www.w3.org/1999/xlink">
<g id="graph0" class="graph" transform="scale(1 1) rotate(0) translate(4 364)">
<title>extlib/tlx/tlx/sort/parallel_mergesort.hpp</title>
<!-- Node1 -->
<g id="node1" class="node"><title>Node1</title>
<polygon fill="#bfbfbf" stroke="black" points="662,-329 662,-359 780,-359 780,-329 662,-329"/>
<text text-anchor="start" x="670" y="-347" font-family="Helvetica,sans-Serif" font-size="10.00">extlib/tlx/tlx/sort</text>
<text text-anchor="middle" x="721" y="-336" font-family="Helvetica,sans-Serif" font-size="10.00">/parallel_mergesort.hpp</text>
</g>
<!-- Node2 -->
<g id="node2" class="node"><title>Node2</title>
<polygon fill="none" stroke="#bfbfbf" points="963,-0.5 963,-19.5 1019,-19.5 1019,-0.5 963,-0.5"/>
<text text-anchor="middle" x="991" y="-7.5" font-family="Helvetica,sans-Serif" font-size="10.00">algorithm</text>
</g>
<!-- Node1&#45;&gt;Node2 -->
<g id="edge1" class="edge"><title>Node1&#45;&gt;Node2</title>
<path fill="none" stroke="midnightblue" d="M780.25,-342.209C931.312,-338.599 1319,-318.652 1319,-209 1319,-209 1319,-209 1319,-139 1319,-77.3973 1115.68,-33.4521 1029.19,-17.5467"/>
<polygon fill="midnightblue" stroke="midnightblue" points="1029.71,-14.0836 1019.25,-15.7467 1028.47,-20.9717 1029.71,-14.0836"/>
</g>
<!-- Node3 -->
<g id="node3" class="node"><title>Node3</title>
<polygon fill="none" stroke="#bfbfbf" points="66.5,-62.5 66.5,-81.5 125.5,-81.5 125.5,-62.5 66.5,-62.5"/>
<text text-anchor="middle" x="96" y="-69.5" font-family="Helvetica,sans-Serif" font-size="10.00">functional</text>
</g>
<!-- Node1&#45;&gt;Node3 -->
<g id="edge2" class="edge"><title>Node1&#45;&gt;Node3</title>
<path fill="none" stroke="midnightblue" d="M672.447,-328.982C637.726,-318.886 589.916,-304.836 548,-292 357.154,-233.555 259.275,-298.971 120,-156 103.184,-138.738 98.0224,-110.454 96.5099,-91.7798"/>
<polygon fill="midnightblue" stroke="midnightblue" points="99.9937,-91.3793 95.9682,-81.579 93.0035,-91.7506 99.9937,-91.3793"/>
</g>
<!-- Node4 -->
<g id="node4" class="node"><title>Node4</title>
<polygon fill="none" stroke="#bfbfbf" points="1247,-198.5 1247,-217.5 1291,-217.5 1291,-198.5 1247,-198.5"/>
<text text-anchor="middle" x="1269" y="-205.5" font-family="Helvetica,sans-Serif" font-size="10.00">thread</text>
</g>
<!-- Node1&#45;&gt;Node4 -->
<g id="edge3" class="edge"><title>Node1&#45;&gt;Node4</title>
<path fill="none" stroke="midnightblue" d="M780.221,-332.56C876.48,-314.854 1072.3,-275.756 1233,-224 1235.57,-223.172 1238.21,-222.239 1240.84,-221.252"/>
<polygon fill="midnightblue" stroke="midnightblue" points="1242.17,-224.492 1250.16,-217.541 1239.58,-217.988 1242.17,-224.492"/>
</g>
<!-- Node5 -->
<g id="node5" class="node"><title>Node5</title>
<polygon fill="none" stroke="#bfbfbf" points="330,-0.5 330,-19.5 370,-19.5 370,-0.5 330,-0.5"/>
<text text-anchor="middle" x="350" y="-7.5" font-family="Helvetica,sans-Serif" font-size="10.00">utility</text>
</g>
<!-- Node1&#45;&gt;Node5 -->
<g id="edge4" class="edge"><title>Node1&#45;&gt;Node5</title>
<path fill="none" stroke="midnightblue" d="M661.998,-338.26C489.802,-323.642 0,-276.16 0,-209 0,-209 0,-209 0,-139 0,-96.3866 12.7623,-79.9627 48,-56 91.9103,-26.1397 252.058,-15.4559 319.613,-12.2219"/>
<polygon fill="midnightblue" stroke="midnightblue" points="320.168,-15.7003 329.999,-11.749 319.85,-8.70755 320.168,-15.7003"/>
</g>
<!-- Node6 -->
<g id="node6" class="node"><title>Node6</title>
<g id="a_node6"><a xlink:href="multisequence__selection_8hpp.html" target="_top" xlink:title="tlx/algorithm/multisequence\l_selection.hpp">
<polygon fill="none" stroke="black" points="357,-125 357,-155 493,-155 493,-125 357,-125"/>
<text text-anchor="start" x="365" y="-143" font-family="Helvetica,sans-Serif" font-size="10.00">tlx/algorithm/multisequence</text>
<text text-anchor="middle" x="425" y="-132" font-family="Helvetica,sans-Serif" font-size="10.00">_selection.hpp</text>
</a>
</g>
</g>
<!-- Node1&#45;&gt;Node6 -->
<g id="edge5" class="edge"><title>Node1&#45;&gt;Node6</title>
<path fill="none" stroke="midnightblue" d="M686.05,-328.857C640.312,-309.363 558.937,-271.228 499,-224 476.587,-206.339 455.386,-181.402 441.469,-163.479"/>
<polygon fill="midnightblue" stroke="midnightblue" points="444.091,-161.144 435.249,-155.306 438.52,-165.384 444.091,-161.144"/>
</g>
<!-- Node14 -->
<g id="node14" class="node"><title>Node14</title>
<g id="a_node14"><a xlink:href="parallel__multiway__merge_8hpp.html" target="_top" xlink:title="tlx/algorithm/parallel\l_multiway_merge.hpp">
<polygon fill="none" stroke="black" points="735,-261 735,-291 847,-291 847,-261 735,-261"/>
<text text-anchor="start" x="743" y="-279" font-family="Helvetica,sans-Serif" font-size="10.00">tlx/algorithm/parallel</text>
<text text-anchor="middle" x="791" y="-268" font-family="Helvetica,sans-Serif" font-size="10.00">_multiway_merge.hpp</text>
</a>
</g>
</g>
<!-- Node1&#45;&gt;Node14 -->
<g id="edge18" class="edge"><title>Node1&#45;&gt;Node14</title>
<path fill="none" stroke="midnightblue" d="M736.189,-328.679C745.637,-319.771 757.957,-308.155 768.523,-298.193"/>
<polygon fill="midnightblue" stroke="midnightblue" points="770.966,-300.7 775.841,-291.293 766.164,-295.607 770.966,-300.7"/>
</g>
<!-- Node23 -->
<g id="node23" class="node"><title>Node23</title>
<g id="a_node23"><a xlink:href="simple__vector_8hpp.html" target="_top" xlink:title="tlx/simple_vector.hpp">
<polygon fill="none" stroke="black" points="619,-130.5 619,-149.5 729,-149.5 729,-130.5 619,-130.5"/>
<text text-anchor="middle" x="674" y="-137.5" font-family="Helvetica,sans-Serif" font-size="10.00">tlx/simple_vector.hpp</text>
</a>
</g>
</g>
<!-- Node1&#45;&gt;Node23 -->
<g id="edge57" class="edge"><title>Node1&#45;&gt;Node23</title>
<path fill="none" stroke="midnightblue" d="M717.695,-328.796C709.386,-293.083 687.624,-199.552 678.32,-159.565"/>
<polygon fill="midnightblue" stroke="midnightblue" points="681.675,-158.544 676,-149.597 674.858,-160.13 681.675,-158.544"/>
</g>
<!-- Node24 -->
<g id="node24" class="node"><title>Node24</title>
<g id="a_node24"><a xlink:href="thread__barrier__mutex_8hpp.html" target="_top" xlink:title="tlx/thread_barrier\l_mutex.hpp">
<polygon fill="none" stroke="black" points="1432.5,-261 1432.5,-291 1521.5,-291 1521.5,-261 1432.5,-261"/>
<text text-anchor="start" x="1440.5" y="-279" font-family="Helvetica,sans-Serif" font-size="10.00">tlx/thread_barrier</text>
<text text-anchor="middle" x="1477" y="-268" font-family="Helvetica,sans-Serif" font-size="10.00">_mutex.hpp</text>
</a>
</g>
</g>
<!-- Node1&#45;&gt;Node24 -->
<g id="edge58" class="edge"><title>Node1&#45;&gt;Node24</title>
<path fill="none" stroke="midnightblue" d="M780.115,-338.482C889.367,-330.041 1130.25,-311.006 1333,-292 1362.51,-289.233 1395.39,-285.832 1422.28,-282.969"/>
<polygon fill="midnightblue" stroke="midnightblue" points="1422.7,-286.444 1432.27,-281.9 1421.95,-279.484 1422.7,-286.444"/>
</g>
<!-- Node6&#45;&gt;Node2 -->
<g id="edge6" class="edge"><title>Node6&#45;&gt;Node2</title>
<path fill="none" stroke="midnightblue" d="M493.39,-125.419C496.296,-124.924 499.175,-124.448 502,-124 631.581,-103.444 674.396,-139.658 795,-88 815.61,-79.172 814.145,-66.4159 834,-56 871.951,-36.0912 919.815,-24.0049 952.658,-17.444"/>
<polygon fill="midnightblue" stroke="midnightblue" points="953.601,-20.827 962.763,-15.5051 952.282,-13.9525 953.601,-20.827"/>
</g>
<!-- Node6&#45;&gt;Node3 -->
<g id="edge8" class="edge"><title>Node6&#45;&gt;Node3</title>
<path fill="none" stroke="midnightblue" d="M356.997,-125.657C353.958,-125.091 350.948,-124.536 348,-124 253.54,-106.82 227.6,-113.359 135,-88 131.851,-87.1378 128.605,-86.1152 125.392,-85.0152"/>
<polygon fill="midnightblue" stroke="midnightblue" points="126.579,-81.7227 115.985,-81.5664 124.169,-88.2949 126.579,-81.7227"/>
</g>
<!-- Node6&#45;&gt;Node5 -->
<g id="edge10" class="edge"><title>Node6&#45;&gt;Node5</title>
<path fill="none" stroke="midnightblue" d="M420.607,-124.805C414.965,-107.708 404.186,-78.4843 390,-56 383.391,-45.5242 374.329,-35.1047 366.502,-26.9339"/>
<polygon fill="midnightblue" stroke="midnightblue" points="368.75,-24.2299 359.223,-19.594 363.78,-29.159 368.75,-24.2299"/>
</g>
<!-- Node7 -->
<g id="node7" class="node"><title>Node7</title>
<polygon fill="none" stroke="#bfbfbf" points="476.5,-62.5 476.5,-81.5 525.5,-81.5 525.5,-62.5 476.5,-62.5"/>
<text text-anchor="middle" x="501" y="-69.5" font-family="Helvetica,sans-Serif" font-size="10.00">cassert</text>
</g>
<!-- Node6&#45;&gt;Node7 -->
<g id="edge7" class="edge"><title>Node6&#45;&gt;Node7</title>
<path fill="none" stroke="midnightblue" d="M441.491,-124.679C453.81,-113.981 470.627,-99.3768 483.241,-88.4223"/>
<polygon fill="midnightblue" stroke="midnightblue" points="485.579,-91.0278 490.834,-81.8283 480.989,-85.7426 485.579,-91.0278"/>
</g>
<!-- Node8 -->
<g id="node8" class="node"><title>Node8</title>
<polygon fill="none" stroke="#bfbfbf" points="843.5,-62.5 843.5,-81.5 886.5,-81.5 886.5,-62.5 843.5,-62.5"/>
<text text-anchor="middle" x="865" y="-69.5" font-family="Helvetica,sans-Serif" font-size="10.00">queue</text>
</g>
<!-- Node6&#45;&gt;Node8 -->
<g id="edge9" class="edge"><title>Node6&#45;&gt;Node8</title>
<path fill="none" stroke="midnightblue" d="M493.383,-125.374C496.291,-124.891 499.172,-124.43 502,-124 646.547,-102.003 687.415,-124.488 829,-88 831.985,-87.2307 835.047,-86.2605 838.065,-85.1853"/>
<polygon fill="midnightblue" stroke="midnightblue" points="839.378,-88.4297 847.401,-81.5099 836.814,-81.9163 839.378,-88.4297"/>
</g>
<!-- Node9 -->
<g id="node9" class="node"><title>Node9</title>
<polygon fill="none" stroke="#bfbfbf" points="1057,-62.5 1057,-81.5 1101,-81.5 1101,-62.5 1057,-62.5"/>
<text text-anchor="middle" x="1079" y="-69.5" font-family="Helvetica,sans-Serif" font-size="10.00">vector</text>
</g>
<!-- Node6&#45;&gt;Node9 -->
<g id="edge11" class="edge"><title>Node6&#45;&gt;Node9</title>
<path fill="none" stroke="midnightblue" d="M493.371,-125.297C496.283,-124.835 499.168,-124.4 502,-124 556.02,-116.372 933.046,-85.0313 1046.67,-75.6592"/>
<polygon fill="midnightblue" stroke="midnightblue" points="1047.14,-79.132 1056.82,-74.8223 1046.57,-72.1556 1047.14,-79.132"/>
</g>
<!-- Node10 -->
<g id="node10" class="node"><title>Node10</title>
<g id="a_node10"><a xlink:href="container_2simple__vector_8hpp.html" target="_top" xlink:title="tlx/container/simple\l_vector.hpp">
<polygon fill="none" stroke="black" points="685.5,-57 685.5,-87 786.5,-87 786.5,-57 685.5,-57"/>
<text text-anchor="start" x="693.5" y="-75" font-family="Helvetica,sans-Serif" font-size="10.00">tlx/container/simple</text>
<text text-anchor="middle" x="736" y="-64" font-family="Helvetica,sans-Serif" font-size="10.00">_vector.hpp</text>
</a>
</g>
</g>
<!-- Node6&#45;&gt;Node10 -->
<g id="edge12" class="edge"><title>Node6&#45;&gt;Node10</title>
<path fill="none" stroke="midnightblue" d="M493.025,-125.44C554.732,-113.082 641.074,-95.6285 675,-88 675.213,-87.9522 675.426,-87.9041 675.64,-87.856"/>
<polygon fill="midnightblue" stroke="midnightblue" points="676.483,-91.2534 685.442,-85.597 674.911,-84.4322 676.483,-91.2534"/>
</g>
<!-- Node12 -->
<g id="node12" class="node"><title>Node12</title>
<g id="a_node12"><a xlink:href="round__to__power__of__two_8hpp.html" target="_top" xlink:title="tlx/math/round_to_power\l_of_two.hpp">
<polygon fill="none" stroke="black" points="543,-57 543,-87 667,-87 667,-57 543,-57"/>
<text text-anchor="start" x="551" y="-75" font-family="Helvetica,sans-Serif" font-size="10.00">tlx/math/round_to_power</text>
<text text-anchor="middle" x="605" y="-64" font-family="Helvetica,sans-Serif" font-size="10.00">_of_two.hpp</text>
</a>
</g>
</g>
<!-- Node6&#45;&gt;Node12 -->
<g id="edge16" class="edge"><title>Node6&#45;&gt;Node12</title>
<path fill="none" stroke="midnightblue" d="M463.615,-124.841C490.993,-114.802 527.913,-101.265 557.159,-90.5416"/>
<polygon fill="midnightblue" stroke="midnightblue" points="558.575,-93.7505 566.759,-87.0218 556.165,-87.1784 558.575,-93.7505"/>
</g>
<!-- Node10&#45;&gt;Node2 -->
<g id="edge13" class="edge"><title>Node10&#45;&gt;Node2</title>
<path fill="none" stroke="midnightblue" d="M786.685,-59.0742C835.733,-47.5333 908.962,-30.303 953.138,-19.9088"/>
<polygon fill="midnightblue" stroke="midnightblue" points="953.974,-23.3076 962.907,-17.6102 952.371,-16.4937 953.974,-23.3076"/>
</g>
<!-- Node10&#45;&gt;Node5 -->
<g id="edge15" class="edge"><title>Node10&#45;&gt;Node5</title>
<path fill="none" stroke="midnightblue" d="M685.494,-58.1533C681.951,-57.3839 678.427,-56.6569 675,-56 567.522,-35.402 438.323,-20.3764 380.535,-14.16"/>
<polygon fill="midnightblue" stroke="midnightblue" points="380.591,-10.6463 370.276,-13.0688 379.85,-17.607 380.591,-10.6463"/>
</g>
<!-- Node11 -->
<g id="node11" class="node"><title>Node11</title>
<polygon fill="none" stroke="#bfbfbf" points="713.5,-0.5 713.5,-19.5 758.5,-19.5 758.5,-0.5 713.5,-0.5"/>
<text text-anchor="middle" x="736" y="-7.5" font-family="Helvetica,sans-Serif" font-size="10.00">cstdlib</text>
</g>
<!-- Node10&#45;&gt;Node11 -->
<g id="edge14" class="edge"><title>Node10&#45;&gt;Node11</title>
<path fill="none" stroke="midnightblue" d="M736,-56.7808C736,-48.7812 736,-38.6887 736,-30.0168"/>
<polygon fill="midnightblue" stroke="midnightblue" points="739.5,-29.7305 736,-19.7305 732.5,-29.7306 739.5,-29.7305"/>
</g>
<!-- Node13 -->
<g id="node13" class="node"><title>Node13</title>
<polygon fill="none" stroke="#bfbfbf" points="580.5,-0.5 580.5,-19.5 629.5,-19.5 629.5,-0.5 580.5,-0.5"/>
<text text-anchor="middle" x="605" y="-7.5" font-family="Helvetica,sans-Serif" font-size="10.00">cstddef</text>
</g>
<!-- Node12&#45;&gt;Node13 -->
<g id="edge17" class="edge"><title>Node12&#45;&gt;Node13</title>
<path fill="none" stroke="midnightblue" d="M605,-56.7808C605,-48.7812 605,-38.6887 605,-30.0168"/>
<polygon fill="midnightblue" stroke="midnightblue" points="608.5,-29.7305 605,-19.7305 601.5,-29.7306 608.5,-29.7305"/>
</g>
<!-- Node14&#45;&gt;Node2 -->
<g id="edge19" class="edge"><title>Node14&#45;&gt;Node2</title>
<path fill="none" stroke="midnightblue" d="M847.03,-275.027C904.206,-272.72 993.713,-262.482 1060,-224 1094.35,-204.057 1100.81,-191.81 1118,-156 1137.4,-115.596 1157.4,-92.2172 1131,-56 1107.93,-24.3528 1062.24,-14.4749 1029.32,-11.6405"/>
<polygon fill="midnightblue" stroke="midnightblue" points="1029.34,-8.13393 1019.13,-10.9491 1028.87,-15.1179 1029.34,-8.13393"/>
</g>
<!-- Node14&#45;&gt;Node3 -->
<g id="edge20" class="edge"><title>Node14&#45;&gt;Node3</title>
<path fill="none" stroke="midnightblue" d="M734.847,-269.966C597.954,-256.841 251.217,-218.216 155,-156 130.461,-140.132 113.013,-110.153 103.73,-90.9002"/>
<polygon fill="midnightblue" stroke="midnightblue" points="106.865,-89.3405 99.5221,-81.7033 100.5,-92.2529 106.865,-89.3405"/>
</g>
<!-- Node14&#45;&gt;Node4 -->
<g id="edge21" class="edge"><title>Node14&#45;&gt;Node4</title>
<path fill="none" stroke="midnightblue" d="M847.042,-273.536C931.859,-270.206 1097.33,-259.342 1233,-224 1235.83,-223.264 1238.72,-222.35 1241.58,-221.34"/>
<polygon fill="midnightblue" stroke="midnightblue" points="1242.99,-224.548 1251.03,-217.647 1240.44,-218.028 1242.99,-224.548"/>
</g>
<!-- Node14&#45;&gt;Node9 -->
<g id="edge22" class="edge"><title>Node14&#45;&gt;Node9</title>
<path fill="none" stroke="midnightblue" d="M847.129,-271.709C919.574,-264.094 1043.06,-238.939 1100,-156 1113.63,-136.148 1101.6,-108.184 1090.93,-90.3241"/>
<polygon fill="midnightblue" stroke="midnightblue" points="1093.65,-88.0888 1085.31,-81.5572 1087.76,-91.8654 1093.65,-88.0888"/>
</g>
<!-- Node15 -->
<g id="node15" class="node"><title>Node15</title>
<g id="a_node15"><a xlink:href="extlib_2tlx_2tlx_2algorithm_2multiway__merge_8hpp.html" target="_top" xlink:title="tlx/algorithm/multiway\l_merge.hpp">
<polygon fill="none" stroke="black" points="508,-193 508,-223 620,-223 620,-193 508,-193"/>
<text text-anchor="start" x="516" y="-211" font-family="Helvetica,sans-Serif" font-size="10.00">tlx/algorithm/multiway</text>
<text text-anchor="middle" x="564" y="-200" font-family="Helvetica,sans-Serif" font-size="10.00">_merge.hpp</text>
</a>
</g>
</g>
<!-- Node14&#45;&gt;Node15 -->
<g id="edge23" class="edge"><title>Node14&#45;&gt;Node15</title>
<path fill="none" stroke="midnightblue" d="M742.581,-260.922C707.32,-250.67 659.402,-236.738 622.08,-225.887"/>
<polygon fill="midnightblue" stroke="midnightblue" points="622.924,-222.487 612.344,-223.056 620.97,-229.209 622.924,-222.487"/>
</g>
<!-- Node21 -->
<g id="node21" class="node"><title>Node21</title>
<g id="a_node21"><a xlink:href="multiway__merge__splitting_8hpp.html" target="_top" xlink:title="tlx/algorithm/multiway\l_merge_splitting.hpp">
<polygon fill="none" stroke="black" points="759,-193 759,-223 871,-223 871,-193 759,-193"/>
<text text-anchor="start" x="767" y="-211" font-family="Helvetica,sans-Serif" font-size="10.00">tlx/algorithm/multiway</text>
<text text-anchor="middle" x="815" y="-200" font-family="Helvetica,sans-Serif" font-size="10.00">_merge_splitting.hpp</text>
</a>
</g>
</g>
<!-- Node14&#45;&gt;Node21 -->
<g id="edge42" class="edge"><title>Node14&#45;&gt;Node21</title>
<path fill="none" stroke="midnightblue" d="M796.208,-260.679C799.164,-252.549 802.94,-242.164 806.331,-232.839"/>
<polygon fill="midnightblue" stroke="midnightblue" points="809.674,-233.887 809.803,-223.293 803.096,-231.495 809.674,-233.887"/>
</g>
<!-- Node14&#45;&gt;Node23 -->
<g id="edge56" class="edge"><title>Node14&#45;&gt;Node23</title>
<path fill="none" stroke="midnightblue" d="M778.479,-260.66C756.563,-235.559 711.389,-183.822 688.288,-157.364"/>
<polygon fill="midnightblue" stroke="midnightblue" points="690.834,-154.958 681.62,-149.728 685.561,-159.562 690.834,-154.958"/>
</g>
<!-- Node15&#45;&gt;Node2 -->
<g id="edge24" class="edge"><title>Node15&#45;&gt;Node2</title>
<path fill="none" stroke="midnightblue" d="M620.329,-202.549C737.382,-193.03 997.159,-170.393 1010,-156 1041.89,-120.256 1016.45,-58.4393 1000.87,-28.396"/>
<polygon fill="midnightblue" stroke="midnightblue" points="1003.9,-26.637 996.058,-19.509 997.741,-29.9694 1003.9,-26.637"/>
</g>
<!-- Node15&#45;&gt;Node3 -->
<g id="edge25" class="edge"><title>Node15&#45;&gt;Node3</title>
<path fill="none" stroke="midnightblue" d="M507.705,-207.753C434.802,-206.807 305.106,-198.507 204,-156 184.317,-147.725 138.661,-109.823 113.471,-88.2104"/>
<polygon fill="midnightblue" stroke="midnightblue" points="115.636,-85.4562 105.779,-81.5717 111.063,-90.7553 115.636,-85.4562"/>
</g>
<!-- Node15&#45;&gt;Node5 -->
<g id="edge27" class="edge"><title>Node15&#45;&gt;Node5</title>
<path fill="none" stroke="midnightblue" d="M507.682,-203.423C410.693,-196.698 216.436,-180.595 153,-156 104.25,-137.099 81.0169,-134.444 57,-88 50.4672,-75.3669 47.7381,-66.793 57,-56 90.6424,-16.7962 251.713,-11.4061 319.659,-10.9054"/>
<polygon fill="midnightblue" stroke="midnightblue" points="319.746,-14.4052 329.731,-10.8626 319.716,-7.40522 319.746,-14.4052"/>
</g>
<!-- Node15&#45;&gt;Node9 -->
<g id="edge28" class="edge"><title>Node15&#45;&gt;Node9</title>
<path fill="none" stroke="midnightblue" d="M620.316,-202.524C743.271,-192.545 1026.15,-168.382 1043,-156 1063.74,-140.759 1072.68,-111.029 1076.42,-91.5988"/>
<polygon fill="midnightblue" stroke="midnightblue" points="1079.91,-91.9722 1078.08,-81.5363 1073,-90.8345 1079.91,-91.9722"/>
</g>
<!-- Node15&#45;&gt;Node10 -->
<g id="edge40" class="edge"><title>Node15&#45;&gt;Node10</title>
<path fill="none" stroke="midnightblue" d="M568.529,-192.757C574.999,-174.517 588.537,-143.002 610,-124 628.63,-107.506 653.287,-95.9474 675.847,-88.0566"/>
<polygon fill="midnightblue" stroke="midnightblue" points="676.977,-91.3695 685.364,-84.8957 674.77,-84.7263 676.977,-91.3695"/>
</g>
<!-- Node16 -->
<g id="node16" class="node"><title>Node16</title>
<polygon fill="none" stroke="#bfbfbf" points="511.5,-130.5 511.5,-149.5 562.5,-149.5 562.5,-130.5 511.5,-130.5"/>
<text text-anchor="middle" x="537" y="-137.5" font-family="Helvetica,sans-Serif" font-size="10.00">numeric</text>
</g>
<!-- Node15&#45;&gt;Node16 -->
<g id="edge26" class="edge"><title>Node15&#45;&gt;Node16</title>
<path fill="none" stroke="midnightblue" d="M558.141,-192.679C554.14,-182.898 548.803,-169.852 544.492,-159.315"/>
<polygon fill="midnightblue" stroke="midnightblue" points="547.637,-157.759 540.612,-149.828 541.159,-160.409 547.637,-157.759"/>
</g>
<!-- Node17 -->
<g id="node17" class="node"><title>Node17</title>
<g id="a_node17"><a xlink:href="merge__advance_8hpp.html" target="_top" xlink:title="tlx/algorithm/merge\l_advance.hpp">
<polygon fill="none" stroke="black" points="901,-125 901,-155 1001,-155 1001,-125 901,-125"/>
<text text-anchor="start" x="909" y="-143" font-family="Helvetica,sans-Serif" font-size="10.00">tlx/algorithm/merge</text>
<text text-anchor="middle" x="951" y="-132" font-family="Helvetica,sans-Serif" font-size="10.00">_advance.hpp</text>
</a>
</g>
</g>
<!-- Node15&#45;&gt;Node17 -->
<g id="edge29" class="edge"><title>Node15&#45;&gt;Node17</title>
<path fill="none" stroke="midnightblue" d="M620.002,-199.937C683.417,-191.571 789.999,-176.405 890.812,-156.133"/>
<polygon fill="midnightblue" stroke="midnightblue" points="891.76,-159.512 900.862,-154.091 890.366,-152.652 891.76,-159.512"/>
</g>
<!-- Node18 -->
<g id="node18" class="node"><title>Node18</title>
<g id="a_node18"><a xlink:href="loser__tree_8hpp.html" target="_top" xlink:title="tlx/container/loser\l_tree.hpp">
<polygon fill="none" stroke="black" points="245,-125 245,-155 339,-155 339,-125 245,-125"/>
<text text-anchor="start" x="253" y="-143" font-family="Helvetica,sans-Serif" font-size="10.00">tlx/container/loser</text>
<text text-anchor="middle" x="292" y="-132" font-family="Helvetica,sans-Serif" font-size="10.00">_tree.hpp</text>
</a>
</g>
</g>
<!-- Node15&#45;&gt;Node18 -->
<g id="edge31" class="edge"><title>Node15&#45;&gt;Node18</title>
<path fill="none" stroke="midnightblue" d="M507.946,-194.248C466.581,-184.728 408.676,-171.171 349.006,-156.216"/>
<polygon fill="midnightblue" stroke="midnightblue" points="349.579,-152.751 339.027,-153.706 347.871,-159.539 349.579,-152.751"/>
</g>
<!-- Node20 -->
<g id="node20" class="node"><title>Node20</title>
<g id="a_node20"><a xlink:href="unused_8hpp.html" target="_top" xlink:title="tlx/unused.hpp">
<polygon fill="none" stroke="black" points="144,-62.5 144,-81.5 224,-81.5 224,-62.5 144,-62.5"/>
<text text-anchor="middle" x="184" y="-69.5" font-family="Helvetica,sans-Serif" font-size="10.00">tlx/unused.hpp</text>
</a>
</g>
</g>
<!-- Node15&#45;&gt;Node20 -->
<g id="edge41" class="edge"><title>Node15&#45;&gt;Node20</title>
<path fill="none" stroke="midnightblue" d="M507.928,-203.868C426.288,-198.385 279.668,-184.778 236,-156 212.52,-140.526 197.676,-110.408 190.108,-91.0226"/>
<polygon fill="midnightblue" stroke="midnightblue" points="193.357,-89.7154 186.644,-81.5186 186.78,-92.1125 193.357,-89.7154"/>
</g>
<!-- Node17&#45;&gt;Node2 -->
<g id="edge30" class="edge"><title>Node17&#45;&gt;Node2</title>
<path fill="none" stroke="midnightblue" d="M955.49,-124.713C958.701,-114.49 963.123,-100.399 967,-88 973.255,-67.9976 980.4,-45.0639 985.256,-29.4638"/>
<polygon fill="midnightblue" stroke="midnightblue" points="988.712,-30.1357 988.342,-19.5474 982.028,-28.0557 988.712,-30.1357"/>
</g>
<!-- Node18&#45;&gt;Node2 -->
<g id="edge32" class="edge"><title>Node18&#45;&gt;Node2</title>
<path fill="none" stroke="midnightblue" d="M318.655,-124.914C359.797,-103.423 437.138,-64.0805 467,-56 558.815,-31.1554 848.253,-16.9446 952.831,-12.5148"/>
<polygon fill="midnightblue" stroke="midnightblue" points="953.091,-16.0071 962.936,-12.0929 952.799,-9.01316 953.091,-16.0071"/>
</g>
<!-- Node18&#45;&gt;Node3 -->
<g id="edge34" class="edge"><title>Node18&#45;&gt;Node3</title>
<path fill="none" stroke="midnightblue" d="M246.441,-124.904C214.987,-115 172.277,-101.213 135,-88 132.459,-87.0995 129.835,-86.1444 127.204,-85.1695"/>
<polygon fill="midnightblue" stroke="midnightblue" points="128.38,-81.8726 117.789,-81.6147 125.908,-88.4214 128.38,-81.8726"/>
</g>
<!-- Node18&#45;&gt;Node5 -->
<g id="edge35" class="edge"><title>Node18&#45;&gt;Node5</title>
<path fill="none" stroke="midnightblue" d="M282.368,-124.893C271.888,-107.626 258.227,-77.9748 271,-56 281.476,-37.9758 302.171,-26.5718 319.752,-19.7546"/>
<polygon fill="midnightblue" stroke="midnightblue" points="321.382,-22.8904 329.642,-16.2554 319.047,-16.2912 321.382,-22.8904"/>
</g>
<!-- Node18&#45;&gt;Node7 -->
<g id="edge33" class="edge"><title>Node18&#45;&gt;Node7</title>
<path fill="none" stroke="midnightblue" d="M336.579,-124.922C375.424,-112.656 430.952,-95.1203 466.491,-83.8975"/>
<polygon fill="midnightblue" stroke="midnightblue" points="467.914,-87.1186 476.396,-80.7697 465.806,-80.4435 467.914,-87.1186"/>
</g>
<!-- Node18&#45;&gt;Node10 -->
<g id="edge36" class="edge"><title>Node18&#45;&gt;Node10</title>
<path fill="none" stroke="midnightblue" d="M339.24,-125.805C342.194,-125.148 345.131,-124.539 348,-124 491.698,-97.0069 531.032,-113.512 675,-88 675.104,-87.9816 675.208,-87.9631 675.312,-87.9445"/>
<polygon fill="midnightblue" stroke="midnightblue" points="676.033,-91.37 685.181,-86.0264 674.697,-84.4986 676.033,-91.37"/>
</g>
<!-- Node18&#45;&gt;Node12 -->
<g id="edge38" class="edge"><title>Node18&#45;&gt;Node12</title>
<path fill="none" stroke="midnightblue" d="M339.298,-126.08C342.237,-125.355 345.156,-124.655 348,-124 427.006,-105.797 449.799,-104.758 532.803,-88.2138"/>
<polygon fill="midnightblue" stroke="midnightblue" points="533.56,-91.6316 542.674,-86.23 532.181,-84.7688 533.56,-91.6316"/>
</g>
<!-- Node19 -->
<g id="node19" class="node"><title>Node19</title>
<g id="a_node19"><a xlink:href="likely_8hpp.html" target="_top" xlink:title="tlx/define/likely.hpp">
<polygon fill="none" stroke="black" points="280.5,-62.5 280.5,-81.5 381.5,-81.5 381.5,-62.5 280.5,-62.5"/>
<text text-anchor="middle" x="331" y="-69.5" font-family="Helvetica,sans-Serif" font-size="10.00">tlx/define/likely.hpp</text>
</a>
</g>
</g>
<!-- Node18&#45;&gt;Node19 -->
<g id="edge37" class="edge"><title>Node18&#45;&gt;Node19</title>
<path fill="none" stroke="midnightblue" d="M300.462,-124.679C306.363,-114.694 314.273,-101.307 320.565,-90.6596"/>
<polygon fill="midnightblue" stroke="midnightblue" points="323.709,-92.2181 325.783,-81.8283 317.683,-88.657 323.709,-92.2181"/>
</g>
<!-- Node18&#45;&gt;Node20 -->
<g id="edge39" class="edge"><title>Node18&#45;&gt;Node20</title>
<path fill="none" stroke="midnightblue" d="M268.831,-124.841C250.569,-113.681 225.233,-98.1977 207.011,-87.0625"/>
<polygon fill="midnightblue" stroke="midnightblue" points="208.565,-83.9099 198.207,-81.6819 204.914,-89.8829 208.565,-83.9099"/>
</g>
<!-- Node21&#45;&gt;Node2 -->
<g id="edge43" class="edge"><title>Node21&#45;&gt;Node2</title>
<path fill="none" stroke="midnightblue" d="M871.205,-204.597C945.142,-200.196 1069.31,-188.117 1100,-156 1130.83,-123.737 1134.32,-92.7482 1109,-56 1091.19,-30.1435 1056.38,-19.1335 1029.16,-14.4509"/>
<polygon fill="midnightblue" stroke="midnightblue" points="1029.56,-10.972 1019.15,-12.9483 1028.52,-17.8944 1029.56,-10.972"/>
</g>
<!-- Node21&#45;&gt;Node9 -->
<g id="edge44" class="edge"><title>Node21&#45;&gt;Node9</title>
<path fill="none" stroke="midnightblue" d="M871.068,-204.38C941.093,-199.797 1054.9,-187.578 1081,-156 1095.81,-138.075 1091.16,-109.778 1085.7,-91.3012"/>
<polygon fill="midnightblue" stroke="midnightblue" points="1088.99,-90.1054 1082.52,-81.71 1082.34,-92.3033 1088.99,-90.1054"/>
</g>
<!-- Node22 -->
<g id="node22" class="node"><title>Node22</title>
<g id="a_node22"><a xlink:href="multisequence__partition_8hpp.html" target="_top" xlink:title="tlx/algorithm/multisequence\l_partition.hpp">
<polygon fill="none" stroke="black" points="747,-125 747,-155 883,-155 883,-125 747,-125"/>
<text text-anchor="start" x="755" y="-143" font-family="Helvetica,sans-Serif" font-size="10.00">tlx/algorithm/multisequence</text>
<text text-anchor="middle" x="815" y="-132" font-family="Helvetica,sans-Serif" font-size="10.00">_partition.hpp</text>
</a>
</g>
</g>
<!-- Node21&#45;&gt;Node22 -->
<g id="edge45" class="edge"><title>Node21&#45;&gt;Node22</title>
<path fill="none" stroke="midnightblue" d="M815,-192.679C815,-184.722 815,-174.605 815,-165.436"/>
<polygon fill="midnightblue" stroke="midnightblue" points="818.5,-165.293 815,-155.293 811.5,-165.293 818.5,-165.293"/>
</g>
<!-- Node21&#45;&gt;Node23 -->
<g id="edge54" class="edge"><title>Node21&#45;&gt;Node23</title>
<path fill="none" stroke="midnightblue" d="M784.752,-192.841C760.144,-181.323 725.698,-165.199 701.78,-154.004"/>
<polygon fill="midnightblue" stroke="midnightblue" points="703.088,-150.751 692.548,-149.682 700.121,-157.091 703.088,-150.751"/>
</g>
<!-- Node22&#45;&gt;Node2 -->
<g id="edge46" class="edge"><title>Node22&#45;&gt;Node2</title>
<path fill="none" stroke="midnightblue" d="M858.786,-124.984C881.178,-116.491 908.051,-104.151 929,-88 950.589,-71.3561 969.254,-45.7256 980.314,-28.666"/>
<polygon fill="midnightblue" stroke="midnightblue" points="983.562,-30.0757 985.912,-19.7448 977.632,-26.3553 983.562,-30.0757"/>
</g>
<!-- Node22&#45;&gt;Node3 -->
<g id="edge48" class="edge"><title>Node22&#45;&gt;Node3</title>
<path fill="none" stroke="midnightblue" d="M746.642,-125.195C743.727,-124.761 740.837,-124.359 738,-124 471.652,-90.2578 397.387,-144.86 135,-88 131.491,-87.2395 127.88,-86.2123 124.339,-85.0499"/>
<polygon fill="midnightblue" stroke="midnightblue" points="125.278,-81.6668 114.684,-81.5255 122.878,-88.2424 125.278,-81.6668"/>
</g>
<!-- Node22&#45;&gt;Node5 -->
<g id="edge50" class="edge"><title>Node22&#45;&gt;Node5</title>
<path fill="none" stroke="midnightblue" d="M845.214,-124.942C876.452,-108.583 917.708,-80.6601 895,-56 877.437,-36.9271 492.916,-17.634 380.565,-12.3878"/>
<polygon fill="midnightblue" stroke="midnightblue" points="380.422,-8.87748 370.271,-11.9109 380.098,-15.87 380.422,-8.87748"/>
</g>
<!-- Node22&#45;&gt;Node7 -->
<g id="edge47" class="edge"><title>Node22&#45;&gt;Node7</title>
<path fill="none" stroke="midnightblue" d="M746.992,-125.684C743.954,-125.11 740.946,-124.547 738,-124 647.479,-107.197 621.938,-115.265 534,-88 531.718,-87.2924 529.387,-86.4647 527.071,-85.5681"/>
<polygon fill="midnightblue" stroke="midnightblue" points="528.38,-82.3213 517.808,-81.6259 525.639,-88.7623 528.38,-82.3213"/>
</g>
<!-- Node22&#45;&gt;Node8 -->
<g id="edge49" class="edge"><title>Node22&#45;&gt;Node8</title>
<path fill="none" stroke="midnightblue" d="M825.849,-124.679C833.568,-114.49 843.971,-100.759 852.113,-90.0112"/>
<polygon fill="midnightblue" stroke="midnightblue" points="855.063,-91.9128 858.312,-81.8283 849.483,-87.6857 855.063,-91.9128"/>
</g>
<!-- Node22&#45;&gt;Node9 -->
<g id="edge51" class="edge"><title>Node22&#45;&gt;Node9</title>
<path fill="none" stroke="midnightblue" d="M871.311,-124.922C924.865,-111.534 1003.52,-91.8689 1047.06,-80.9856"/>
<polygon fill="midnightblue" stroke="midnightblue" points="1047.97,-84.3661 1056.82,-78.5452 1046.27,-77.5751 1047.97,-84.3661"/>
</g>
<!-- Node22&#45;&gt;Node10 -->
<g id="edge52" class="edge"><title>Node22&#45;&gt;Node10</title>
<path fill="none" stroke="midnightblue" d="M797.858,-124.679C787.018,-115.623 772.828,-103.768 760.774,-93.697"/>
<polygon fill="midnightblue" stroke="midnightblue" points="762.755,-90.7918 752.837,-87.0663 758.267,-96.1638 762.755,-90.7918"/>
</g>
<!-- Node22&#45;&gt;Node12 -->
<g id="edge53" class="edge"><title>Node22&#45;&gt;Node12</title>
<path fill="none" stroke="midnightblue" d="M770.207,-124.922C737.865,-114.757 694.011,-100.975 659.614,-90.1643"/>
<polygon fill="midnightblue" stroke="midnightblue" points="660.313,-86.7154 649.724,-87.0561 658.214,-93.3934 660.313,-86.7154"/>
</g>
<!-- Node23&#45;&gt;Node10 -->
<g id="edge55" class="edge"><title>Node23&#45;&gt;Node10</title>
<path fill="none" stroke="midnightblue" d="M682.105,-130.372C690.56,-121.371 704.148,-106.907 715.565,-94.7534"/>
<polygon fill="midnightblue" stroke="midnightblue" points="718.382,-96.8663 722.678,-87.1815 713.28,-92.0736 718.382,-96.8663"/>
</g>
<!-- Node25 -->
<g id="node25" class="node"><title>Node25</title>
<g id="a_node25"><a xlink:href="no__operation_8hpp.html" target="_top" xlink:title="tlx/meta/no_operation.hpp">
<polygon fill="none" stroke="black" points="1347.5,-198.5 1347.5,-217.5 1476.5,-217.5 1476.5,-198.5 1347.5,-198.5"/>
<text text-anchor="middle" x="1412" y="-205.5" font-family="Helvetica,sans-Serif" font-size="10.00">tlx/meta/no_operation.hpp</text>
</a>
</g>
</g>
<!-- Node24&#45;&gt;Node25 -->
<g id="edge59" class="edge"><title>Node24&#45;&gt;Node25</title>
<path fill="none" stroke="midnightblue" d="M1462.9,-260.679C1452.56,-250.184 1438.52,-235.932 1427.81,-225.052"/>
<polygon fill="midnightblue" stroke="midnightblue" points="1430.21,-222.497 1420.69,-217.828 1425.22,-227.409 1430.21,-222.497"/>
</g>
<!-- Node26 -->
<g id="node26" class="node"><title>Node26</title>
<polygon fill="none" stroke="#bfbfbf" points="1494.5,-198.5 1494.5,-217.5 1589.5,-217.5 1589.5,-198.5 1494.5,-198.5"/>
<text text-anchor="middle" x="1542" y="-205.5" font-family="Helvetica,sans-Serif" font-size="10.00">condition_variable</text>
</g>
<!-- Node24&#45;&gt;Node26 -->
<g id="edge60" class="edge"><title>Node24&#45;&gt;Node26</title>
<path fill="none" stroke="midnightblue" d="M1491.1,-260.679C1501.44,-250.184 1515.48,-235.932 1526.19,-225.052"/>
<polygon fill="midnightblue" stroke="midnightblue" points="1528.78,-227.409 1533.31,-217.828 1523.79,-222.497 1528.78,-227.409"/>
</g>
<!-- Node27 -->
<g id="node27" class="node"><title>Node27</title>
<polygon fill="none" stroke="#bfbfbf" points="1608,-198.5 1608,-217.5 1652,-217.5 1652,-198.5 1608,-198.5"/>
<text text-anchor="middle" x="1630" y="-205.5" font-family="Helvetica,sans-Serif" font-size="10.00">mutex</text>
</g>
<!-- Node24&#45;&gt;Node27 -->
<g id="edge61" class="edge"><title>Node24&#45;&gt;Node27</title>
<path fill="none" stroke="midnightblue" d="M1511.32,-260.959C1535.63,-250.91 1568.94,-236.927 1598,-224 1599.58,-223.297 1601.2,-222.567 1602.83,-221.824"/>
<polygon fill="midnightblue" stroke="midnightblue" points="1604.51,-224.906 1612.12,-217.534 1601.57,-218.552 1604.51,-224.906"/>
</g>
</g>
</svg>
