<?xml version="1.0" encoding="UTF-8" standalone="no"?>
<!DOCTYPE svg PUBLIC "-//W3C//DTD SVG 1.1//EN"
 "http://www.w3.org/Graphics/SVG/1.1/DTD/svg11.dtd">
<!-- Generated by graphviz version 2.36.0 (20140111.2315)
 -->
<!-- Title: thrill/mem/pool.hpp Pages: 1 -->
<svg width="1583pt" height="276pt"
 viewBox="0.00 0.00 1583.00 276.00" xmlns="http://www.w3.org/2000/svg" xmlns:xlink="http://www.w3.org/1999/xlink">
<g id="graph0" class="graph" transform="scale(1 1) rotate(0) translate(4 272)">
<title>thrill/mem/pool.hpp</title>
<!-- Node1 -->
<g id="node1" class="node"><title>Node1</title>
<polygon fill="#bfbfbf" stroke="black" points="1125.5,-248.5 1125.5,-267.5 1224.5,-267.5 1224.5,-248.5 1125.5,-248.5"/>
<text text-anchor="middle" x="1175" y="-255.5" font-family="Helvetica,sans-Serif" font-size="10.00">thrill/mem/pool.hpp</text>
</g>
<!-- Node2 -->
<g id="node2" class="node"><title>Node2</title>
<g id="a_node2"><a xlink:href="thrill_2common_2config_8hpp.html" target="_top" xlink:title="thrill/common/config.hpp">
<polygon fill="none" stroke="black" points="101.5,-186.5 101.5,-205.5 224.5,-205.5 224.5,-186.5 101.5,-186.5"/>
<text text-anchor="middle" x="163" y="-193.5" font-family="Helvetica,sans-Serif" font-size="10.00">thrill/common/config.hpp</text>
</a>
</g>
</g>
<!-- Node1&#45;&gt;Node2 -->
<g id="edge1" class="edge"><title>Node1&#45;&gt;Node2</title>
<path fill="none" stroke="midnightblue" d="M1125.31,-257.172C985.32,-257.105 575.907,-253.12 239,-212 229.784,-210.875 220.013,-209.266 210.655,-207.516"/>
<polygon fill="midnightblue" stroke="midnightblue" points="211.194,-204.055 200.709,-205.578 209.855,-210.926 211.194,-204.055"/>
</g>
<!-- Node3 -->
<g id="node3" class="node"><title>Node3</title>
<g id="a_node3"><a xlink:href="thrill_2mem_2allocator__base_8hpp.html" target="_top" xlink:title="thrill/mem/allocator\l_base.hpp">
<polygon fill="none" stroke="black" points="808.5,-181 808.5,-211 907.5,-211 907.5,-181 808.5,-181"/>
<text text-anchor="start" x="816.5" y="-199" font-family="Helvetica,sans-Serif" font-size="10.00">thrill/mem/allocator</text>
<text text-anchor="middle" x="858" y="-188" font-family="Helvetica,sans-Serif" font-size="10.00">_base.hpp</text>
</a>
</g>
</g>
<!-- Node1&#45;&gt;Node3 -->
<g id="edge2" class="edge"><title>Node1&#45;&gt;Node3</title>
<path fill="none" stroke="midnightblue" d="M1129.92,-248.467C1074.22,-237.925 979.274,-219.954 917.602,-208.281"/>
<polygon fill="midnightblue" stroke="midnightblue" points="918.1,-204.813 907.624,-206.393 916.798,-211.691 918.1,-204.813"/>
</g>
<!-- Node21 -->
<g id="node21" class="node"><title>Node21</title>
<polygon fill="none" stroke="#bfbfbf" points="232.5,-68.5 232.5,-87.5 273.5,-87.5 273.5,-68.5 232.5,-68.5"/>
<text text-anchor="middle" x="253" y="-75.5" font-family="Helvetica,sans-Serif" font-size="10.00">string</text>
</g>
<!-- Node1&#45;&gt;Node21 -->
<g id="edge45" class="edge"><title>Node1&#45;&gt;Node21</title>
<path fill="none" stroke="midnightblue" d="M1125.28,-257.006C982.201,-256.539 571.557,-251.682 444,-212 369.268,-188.751 298.283,-124.547 268.155,-94.6697"/>
<polygon fill="midnightblue" stroke="midnightblue" points="270.61,-92.1741 261.084,-87.5363 265.638,-97.1022 270.61,-92.1741"/>
</g>
<!-- Node22 -->
<g id="node22" class="node"><title>Node22</title>
<polygon fill="none" stroke="#bfbfbf" points="292,-68.5 292,-87.5 336,-87.5 336,-68.5 292,-68.5"/>
<text text-anchor="middle" x="314" y="-75.5" font-family="Helvetica,sans-Serif" font-size="10.00">vector</text>
</g>
<!-- Node1&#45;&gt;Node22 -->
<g id="edge48" class="edge"><title>Node1&#45;&gt;Node22</title>
<path fill="none" stroke="midnightblue" d="M1125.45,-255.781C967.93,-251.058 481.566,-229.7 354,-144 337.538,-132.941 326.652,-112.595 320.45,-97.6014"/>
<polygon fill="midnightblue" stroke="midnightblue" points="323.566,-95.9487 316.748,-87.8393 317.021,-98.4306 323.566,-95.9487"/>
</g>
<!-- Node25 -->
<g id="node25" class="node"><title>Node25</title>
<polygon fill="none" stroke="#bfbfbf" points="929,-68.5 929,-87.5 985,-87.5 985,-68.5 929,-68.5"/>
<text text-anchor="middle" x="957" y="-75.5" font-family="Helvetica,sans-Serif" font-size="10.00">algorithm</text>
</g>
<!-- Node1&#45;&gt;Node25 -->
<g id="edge40" class="edge"><title>Node1&#45;&gt;Node25</title>
<path fill="none" stroke="midnightblue" d="M1125.21,-256.26C1035.74,-254.089 852.164,-245.555 799,-212 768.762,-192.915 765.948,-178.346 756,-144 753.527,-135.462 750.429,-130.927 756,-124 800.851,-68.2353 843.64,-101.787 918.897,-87.9862"/>
<polygon fill="midnightblue" stroke="midnightblue" points="919.654,-91.4038 928.734,-85.9449 918.231,-84.5498 919.654,-91.4038"/>
</g>
<!-- Node29 -->
<g id="node29" class="node"><title>Node29</title>
<polygon fill="none" stroke="#bfbfbf" points="1247.5,-68.5 1247.5,-87.5 1296.5,-87.5 1296.5,-68.5 1247.5,-68.5"/>
<text text-anchor="middle" x="1272" y="-75.5" font-family="Helvetica,sans-Serif" font-size="10.00">cstddef</text>
</g>
<!-- Node1&#45;&gt;Node29 -->
<g id="edge41" class="edge"><title>Node1&#45;&gt;Node29</title>
<path fill="none" stroke="midnightblue" d="M1195.89,-248.486C1229.94,-233.316 1296.27,-198.041 1323,-144 1332.56,-124.665 1313.29,-105.614 1295.76,-93.1874"/>
<polygon fill="midnightblue" stroke="midnightblue" points="1297.69,-90.2699 1287.43,-87.6466 1293.82,-96.0987 1297.69,-90.2699"/>
</g>
<!-- Node30 -->
<g id="node30" class="node"><title>Node30</title>
<polygon fill="none" stroke="#bfbfbf" points="1341,-68.5 1341,-87.5 1393,-87.5 1393,-68.5 1341,-68.5"/>
<text text-anchor="middle" x="1367" y="-75.5" font-family="Helvetica,sans-Serif" font-size="10.00">memory</text>
</g>
<!-- Node1&#45;&gt;Node30 -->
<g id="edge43" class="edge"><title>Node1&#45;&gt;Node30</title>
<path fill="none" stroke="midnightblue" d="M1213.84,-248.445C1238.18,-241.625 1269.17,-230.146 1292,-212 1330.27,-181.577 1352.33,-125.956 1361.67,-97.2366"/>
<polygon fill="midnightblue" stroke="midnightblue" points="1365.02,-98.2431 1364.63,-87.6554 1358.33,-96.1742 1365.02,-98.2431"/>
</g>
<!-- Node31 -->
<g id="node31" class="node"><title>Node31</title>
<polygon fill="none" stroke="#bfbfbf" points="1144,-68.5 1144,-87.5 1206,-87.5 1206,-68.5 1144,-68.5"/>
<text text-anchor="middle" x="1175" y="-75.5" font-family="Helvetica,sans-Serif" font-size="10.00">type_traits</text>
</g>
<!-- Node1&#45;&gt;Node31 -->
<g id="edge46" class="edge"><title>Node1&#45;&gt;Node31</title>
<path fill="none" stroke="midnightblue" d="M1175,-248.415C1175,-221.227 1175,-136.563 1175,-98.2169"/>
<polygon fill="midnightblue" stroke="midnightblue" points="1178.5,-97.9184 1175,-87.9185 1171.5,-97.9185 1178.5,-97.9184"/>
</g>
<!-- Node35 -->
<g id="node35" class="node"><title>Node35</title>
<polygon fill="none" stroke="#bfbfbf" points="1409,-186.5 1409,-205.5 1455,-205.5 1455,-186.5 1409,-186.5"/>
<text text-anchor="middle" x="1432" y="-193.5" font-family="Helvetica,sans-Serif" font-size="10.00">cstdint</text>
</g>
<!-- Node1&#45;&gt;Node35 -->
<g id="edge42" class="edge"><title>Node1&#45;&gt;Node35</title>
<path fill="none" stroke="midnightblue" d="M1224.57,-249.532C1269.59,-242.124 1337.53,-229.367 1395,-212 1397.65,-211.2 1400.36,-210.286 1403.07,-209.312"/>
<polygon fill="midnightblue" stroke="midnightblue" points="1404.58,-212.481 1412.65,-205.622 1402.06,-205.949 1404.58,-212.481"/>
</g>
<!-- Node36 -->
<g id="node36" class="node"><title>Node36</title>
<polygon fill="none" stroke="#bfbfbf" points="1473,-186.5 1473,-205.5 1517,-205.5 1517,-186.5 1473,-186.5"/>
<text text-anchor="middle" x="1495" y="-193.5" font-family="Helvetica,sans-Serif" font-size="10.00">mutex</text>
</g>
<!-- Node1&#45;&gt;Node36 -->
<g id="edge44" class="edge"><title>Node1&#45;&gt;Node36</title>
<path fill="none" stroke="midnightblue" d="M1224.58,-253.758C1282.96,-248.923 1382.33,-237.495 1464,-212 1466.13,-211.334 1468.3,-210.543 1470.46,-209.677"/>
<polygon fill="midnightblue" stroke="midnightblue" points="1471.92,-212.859 1479.6,-205.563 1469.04,-206.476 1471.92,-212.859"/>
</g>
<!-- Node37 -->
<g id="node37" class="node"><title>Node37</title>
<polygon fill="none" stroke="#bfbfbf" points="1535,-186.5 1535,-205.5 1575,-205.5 1575,-186.5 1535,-186.5"/>
<text text-anchor="middle" x="1555" y="-193.5" font-family="Helvetica,sans-Serif" font-size="10.00">utility</text>
</g>
<!-- Node1&#45;&gt;Node37 -->
<g id="edge47" class="edge"><title>Node1&#45;&gt;Node37</title>
<path fill="none" stroke="midnightblue" d="M1224.79,-255.818C1293.66,-253.019 1421.27,-243.606 1525,-212 1526.96,-211.402 1528.96,-210.684 1530.93,-209.891"/>
<polygon fill="midnightblue" stroke="midnightblue" points="1532.84,-212.865 1540.45,-205.501 1529.91,-206.508 1532.84,-212.865"/>
</g>
<!-- Node4 -->
<g id="node4" class="node"><title>Node4</title>
<g id="a_node4"><a xlink:href="thrill_2common_2string_8hpp.html" target="_top" xlink:title="thrill/common/string.hpp">
<polygon fill="none" stroke="black" points="558.5,-124.5 558.5,-143.5 679.5,-143.5 679.5,-124.5 558.5,-124.5"/>
<text text-anchor="middle" x="619" y="-131.5" font-family="Helvetica,sans-Serif" font-size="10.00">thrill/common/string.hpp</text>
</a>
</g>
</g>
<!-- Node3&#45;&gt;Node4 -->
<g id="edge3" class="edge"><title>Node3&#45;&gt;Node4</title>
<path fill="none" stroke="midnightblue" d="M808.479,-182.568C765.533,-171.786 703.968,-156.331 662.792,-145.994"/>
<polygon fill="midnightblue" stroke="midnightblue" points="663.596,-142.587 653.045,-143.547 661.891,-149.376 663.596,-142.587"/>
</g>
<!-- Node3&#45;&gt;Node21 -->
<g id="edge37" class="edge"><title>Node3&#45;&gt;Node21</title>
<path fill="none" stroke="midnightblue" d="M808.117,-192.913C697.938,-187.827 437.019,-173.026 354,-144 321.909,-132.78 289.73,-109.489 270.589,-94.052"/>
<polygon fill="midnightblue" stroke="midnightblue" points="272.698,-91.2545 262.76,-87.5835 268.24,-96.651 272.698,-91.2545"/>
</g>
<!-- Node3&#45;&gt;Node22 -->
<g id="edge39" class="edge"><title>Node3&#45;&gt;Node22</title>
<path fill="none" stroke="midnightblue" d="M808.162,-193.482C702.709,-189.649 460.567,-177.388 386,-144 361.845,-133.184 340.213,-111.152 327.11,-95.7505"/>
<polygon fill="midnightblue" stroke="midnightblue" points="329.467,-93.1053 320.425,-87.5835 324.05,-97.5388 329.467,-93.1053"/>
</g>
<!-- Node23 -->
<g id="node23" class="node"><title>Node23</title>
<g id="a_node23"><a xlink:href="malloc__tracker_8hpp.html" target="_top" xlink:title="thrill/mem/malloc_tracker.hpp">
<polygon fill="none" stroke="black" points="395.5,-124.5 395.5,-143.5 540.5,-143.5 540.5,-124.5 395.5,-124.5"/>
<text text-anchor="middle" x="468" y="-131.5" font-family="Helvetica,sans-Serif" font-size="10.00">thrill/mem/malloc_tracker.hpp</text>
</a>
</g>
</g>
<!-- Node3&#45;&gt;Node23 -->
<g id="edge22" class="edge"><title>Node3&#45;&gt;Node23</title>
<path fill="none" stroke="midnightblue" d="M808.21,-187.34C738.345,-176.592 611.107,-157.016 533.595,-145.091"/>
<polygon fill="midnightblue" stroke="midnightblue" points="533.88,-141.594 523.465,-143.533 532.816,-148.513 533.88,-141.594"/>
</g>
<!-- Node24 -->
<g id="node24" class="node"><title>Node24</title>
<g id="a_node24"><a xlink:href="mem_2manager_8hpp.html" target="_top" xlink:title="thrill/mem/manager.hpp">
<polygon fill="none" stroke="black" points="951.5,-124.5 951.5,-143.5 1070.5,-143.5 1070.5,-124.5 951.5,-124.5"/>
<text text-anchor="middle" x="1011" y="-131.5" font-family="Helvetica,sans-Serif" font-size="10.00">thrill/mem/manager.hpp</text>
</a>
</g>
</g>
<!-- Node3&#45;&gt;Node24 -->
<g id="edge24" class="edge"><title>Node3&#45;&gt;Node24</title>
<path fill="none" stroke="midnightblue" d="M893.872,-180.933C919.915,-170.72 954.808,-157.036 979.721,-147.266"/>
<polygon fill="midnightblue" stroke="midnightblue" points="981.038,-150.509 989.07,-143.6 978.482,-143.993 981.038,-150.509"/>
</g>
<!-- Node26 -->
<g id="node26" class="node"><title>Node26</title>
<polygon fill="none" stroke="#bfbfbf" points="1074,-68.5 1074,-87.5 1120,-87.5 1120,-68.5 1074,-68.5"/>
<text text-anchor="middle" x="1097" y="-75.5" font-family="Helvetica,sans-Serif" font-size="10.00">atomic</text>
</g>
<!-- Node3&#45;&gt;Node26 -->
<g id="edge32" class="edge"><title>Node3&#45;&gt;Node26</title>
<path fill="none" stroke="midnightblue" d="M907.628,-189.47C965.038,-182.086 1054.79,-167.182 1079,-144 1091.41,-132.114 1095.51,-112.493 1096.74,-97.9121"/>
<polygon fill="midnightblue" stroke="midnightblue" points="1100.26,-97.6951 1097.23,-87.5433 1093.27,-97.3699 1100.26,-97.6951"/>
</g>
<!-- Node27 -->
<g id="node27" class="node"><title>Node27</title>
<polygon fill="none" stroke="#bfbfbf" points="1003.5,-68.5 1003.5,-87.5 1052.5,-87.5 1052.5,-68.5 1003.5,-68.5"/>
<text text-anchor="middle" x="1028" y="-75.5" font-family="Helvetica,sans-Serif" font-size="10.00">cassert</text>
</g>
<!-- Node3&#45;&gt;Node27 -->
<g id="edge33" class="edge"><title>Node3&#45;&gt;Node27</title>
<path fill="none" stroke="midnightblue" d="M814.494,-180.99C781.489,-168.103 744.942,-147.474 765,-124 798.322,-85.0034 942.771,-98.399 993,-88 993.104,-87.9785 993.208,-87.957 993.311,-87.9353"/>
<polygon fill="midnightblue" stroke="midnightblue" points="994.237,-91.3144 1003.21,-85.6846 992.685,-84.4885 994.237,-91.3144"/>
</g>
<!-- Node28 -->
<g id="node28" class="node"><title>Node28</title>
<g id="a_node28"><a xlink:href="extlib_2tlx_2tlx_2allocator__base_8hpp.html" target="_top" xlink:title="tlx/allocator_base.hpp">
<polygon fill="none" stroke="black" points="1203,-124.5 1203,-143.5 1315,-143.5 1315,-124.5 1203,-124.5"/>
<text text-anchor="middle" x="1259" y="-131.5" font-family="Helvetica,sans-Serif" font-size="10.00">tlx/allocator_base.hpp</text>
</a>
</g>
</g>
<!-- Node3&#45;&gt;Node28 -->
<g id="edge28" class="edge"><title>Node3&#45;&gt;Node28</title>
<path fill="none" stroke="midnightblue" d="M907.573,-187.583C979.413,-176.833 1112.61,-156.903 1192.79,-144.907"/>
<polygon fill="midnightblue" stroke="midnightblue" points="1193.4,-148.354 1202.78,-143.413 1192.37,-141.431 1193.4,-148.354"/>
</g>
<!-- Node3&#45;&gt;Node31 -->
<g id="edge38" class="edge"><title>Node3&#45;&gt;Node31</title>
<path fill="none" stroke="midnightblue" d="M907.89,-191.675C958.337,-186.692 1037.43,-174.352 1099,-144 1123.44,-131.951 1146.48,-110.247 1160.65,-95.2542"/>
<polygon fill="midnightblue" stroke="midnightblue" points="1163.38,-97.4541 1167.56,-87.719 1158.22,-92.7222 1163.38,-97.4541"/>
</g>
<!-- Node32 -->
<g id="node32" class="node"><title>Node32</title>
<polygon fill="none" stroke="#bfbfbf" points="774.5,-124.5 774.5,-143.5 817.5,-143.5 817.5,-124.5 774.5,-124.5"/>
<text text-anchor="middle" x="796" y="-131.5" font-family="Helvetica,sans-Serif" font-size="10.00">deque</text>
</g>
<!-- Node3&#45;&gt;Node32 -->
<g id="edge34" class="edge"><title>Node3&#45;&gt;Node32</title>
<path fill="none" stroke="midnightblue" d="M843.307,-180.781C834.019,-171.792 822.001,-160.162 812.402,-150.873"/>
<polygon fill="midnightblue" stroke="midnightblue" points="814.642,-148.17 805.022,-143.731 809.774,-153.2 814.642,-148.17"/>
</g>
<!-- Node33 -->
<g id="node33" class="node"><title>Node33</title>
<polygon fill="none" stroke="#bfbfbf" points="835.5,-124.5 835.5,-143.5 880.5,-143.5 880.5,-124.5 835.5,-124.5"/>
<text text-anchor="middle" x="858" y="-131.5" font-family="Helvetica,sans-Serif" font-size="10.00">iosfwd</text>
</g>
<!-- Node3&#45;&gt;Node33 -->
<g id="edge35" class="edge"><title>Node3&#45;&gt;Node33</title>
<path fill="none" stroke="midnightblue" d="M858,-180.781C858,-172.781 858,-162.689 858,-154.017"/>
<polygon fill="midnightblue" stroke="midnightblue" points="861.5,-153.73 858,-143.731 854.5,-153.731 861.5,-153.73"/>
</g>
<!-- Node34 -->
<g id="node34" class="node"><title>Node34</title>
<polygon fill="none" stroke="#bfbfbf" points="898.5,-124.5 898.5,-143.5 933.5,-143.5 933.5,-124.5 898.5,-124.5"/>
<text text-anchor="middle" x="916" y="-131.5" font-family="Helvetica,sans-Serif" font-size="10.00">new</text>
</g>
<!-- Node3&#45;&gt;Node34 -->
<g id="edge36" class="edge"><title>Node3&#45;&gt;Node34</title>
<path fill="none" stroke="midnightblue" d="M871.745,-180.781C880.347,-171.882 891.452,-160.394 900.386,-151.152"/>
<polygon fill="midnightblue" stroke="midnightblue" points="903.127,-153.353 907.56,-143.731 898.094,-148.488 903.127,-153.353"/>
</g>
<!-- Node5 -->
<g id="node5" class="node"><title>Node5</title>
<g id="a_node5"><a xlink:href="define_8hpp.html" target="_top" xlink:title="tlx/define.hpp">
<polygon fill="none" stroke="black" points="417.5,-68.5 417.5,-87.5 492.5,-87.5 492.5,-68.5 417.5,-68.5"/>
<text text-anchor="middle" x="455" y="-75.5" font-family="Helvetica,sans-Serif" font-size="10.00">tlx/define.hpp</text>
</a>
</g>
</g>
<!-- Node4&#45;&gt;Node5 -->
<g id="edge4" class="edge"><title>Node4&#45;&gt;Node5</title>
<path fill="none" stroke="midnightblue" d="M593.014,-124.444C565.304,-115.32 521.248,-100.813 490.384,-90.6509"/>
<polygon fill="midnightblue" stroke="midnightblue" points="491.458,-87.3196 480.865,-87.5164 489.268,-93.9684 491.458,-87.3196"/>
</g>
<!-- Node14 -->
<g id="node14" class="node"><title>Node14</title>
<g id="a_node14"><a xlink:href="unused_8hpp.html" target="_top" xlink:title="tlx/unused.hpp">
<polygon fill="none" stroke="black" points="511,-68.5 511,-87.5 591,-87.5 591,-68.5 511,-68.5"/>
<text text-anchor="middle" x="551" y="-75.5" font-family="Helvetica,sans-Serif" font-size="10.00">tlx/unused.hpp</text>
</a>
</g>
</g>
<!-- Node4&#45;&gt;Node14 -->
<g id="edge13" class="edge"><title>Node4&#45;&gt;Node14</title>
<path fill="none" stroke="midnightblue" d="M608.075,-124.324C597.825,-116.185 582.279,-103.839 569.999,-94.0874"/>
<polygon fill="midnightblue" stroke="midnightblue" points="572.132,-91.3119 562.124,-87.8339 567.779,-96.7937 572.132,-91.3119"/>
</g>
<!-- Node15 -->
<g id="node15" class="node"><title>Node15</title>
<polygon fill="none" stroke="#bfbfbf" points="609,-68.5 609,-87.5 647,-87.5 647,-68.5 609,-68.5"/>
<text text-anchor="middle" x="628" y="-75.5" font-family="Helvetica,sans-Serif" font-size="10.00">array</text>
</g>
<!-- Node4&#45;&gt;Node15 -->
<g id="edge14" class="edge"><title>Node4&#45;&gt;Node15</title>
<path fill="none" stroke="midnightblue" d="M620.486,-124.083C621.679,-116.927 623.394,-106.635 624.885,-97.6911"/>
<polygon fill="midnightblue" stroke="midnightblue" points="628.35,-98.1904 626.541,-87.7511 621.445,-97.0396 628.35,-98.1904"/>
</g>
<!-- Node16 -->
<g id="node16" class="node"><title>Node16</title>
<polygon fill="none" stroke="#bfbfbf" points="665.5,-68.5 665.5,-87.5 714.5,-87.5 714.5,-68.5 665.5,-68.5"/>
<text text-anchor="middle" x="690" y="-75.5" font-family="Helvetica,sans-Serif" font-size="10.00">cstdarg</text>
</g>
<!-- Node4&#45;&gt;Node16 -->
<g id="edge15" class="edge"><title>Node4&#45;&gt;Node16</title>
<path fill="none" stroke="midnightblue" d="M630.407,-124.324C641.109,-116.185 657.341,-103.839 670.163,-94.0874"/>
<polygon fill="midnightblue" stroke="midnightblue" points="672.544,-96.6734 678.385,-87.8339 668.307,-91.1018 672.544,-96.6734"/>
</g>
<!-- Node17 -->
<g id="node17" class="node"><title>Node17</title>
<polygon fill="none" stroke="#bfbfbf" points="354.5,-68.5 354.5,-87.5 399.5,-87.5 399.5,-68.5 354.5,-68.5"/>
<text text-anchor="middle" x="377" y="-75.5" font-family="Helvetica,sans-Serif" font-size="10.00">cstdlib</text>
</g>
<!-- Node4&#45;&gt;Node17 -->
<g id="edge16" class="edge"><title>Node4&#45;&gt;Node17</title>
<path fill="none" stroke="midnightblue" d="M574.327,-124.449C533.646,-116.444 471.717,-103.715 409.603,-88.2774"/>
<polygon fill="midnightblue" stroke="midnightblue" points="410.186,-84.8155 399.635,-85.7768 408.483,-91.6051 410.186,-84.8155"/>
</g>
<!-- Node18 -->
<g id="node18" class="node"><title>Node18</title>
<polygon fill="none" stroke="#bfbfbf" points="733,-68.5 733,-87.5 773,-87.5 773,-68.5 733,-68.5"/>
<text text-anchor="middle" x="753" y="-75.5" font-family="Helvetica,sans-Serif" font-size="10.00">limits</text>
</g>
<!-- Node4&#45;&gt;Node18 -->
<g id="edge17" class="edge"><title>Node4&#45;&gt;Node18</title>
<path fill="none" stroke="midnightblue" d="M640.233,-124.444C662.644,-115.412 698.143,-101.107 723.318,-90.9612"/>
<polygon fill="midnightblue" stroke="midnightblue" points="724.777,-94.1471 732.744,-87.1629 722.16,-87.6545 724.777,-94.1471"/>
</g>
<!-- Node19 -->
<g id="node19" class="node"><title>Node19</title>
<polygon fill="none" stroke="#bfbfbf" points="791.5,-68.5 791.5,-87.5 840.5,-87.5 840.5,-68.5 791.5,-68.5"/>
<text text-anchor="middle" x="816" y="-75.5" font-family="Helvetica,sans-Serif" font-size="10.00">random</text>
</g>
<!-- Node4&#45;&gt;Node19 -->
<g id="edge18" class="edge"><title>Node4&#45;&gt;Node19</title>
<path fill="none" stroke="midnightblue" d="M650.215,-124.444C686.016,-114.63 744.531,-98.5905 781.612,-88.4261"/>
<polygon fill="midnightblue" stroke="midnightblue" points="782.747,-91.7442 791.466,-85.7251 780.896,-84.9933 782.747,-91.7442"/>
</g>
<!-- Node20 -->
<g id="node20" class="node"><title>Node20</title>
<polygon fill="none" stroke="#bfbfbf" points="859,-68.5 859,-87.5 911,-87.5 911,-68.5 859,-68.5"/>
<text text-anchor="middle" x="885" y="-75.5" font-family="Helvetica,sans-Serif" font-size="10.00">sstream</text>
</g>
<!-- Node4&#45;&gt;Node20 -->
<g id="edge19" class="edge"><title>Node4&#45;&gt;Node20</title>
<path fill="none" stroke="midnightblue" d="M666.282,-124.489C710.791,-116.311 779.532,-103.256 848.901,-87.9225"/>
<polygon fill="midnightblue" stroke="midnightblue" points="849.69,-91.3327 858.691,-85.7441 848.17,-84.4998 849.69,-91.3327"/>
</g>
<!-- Node4&#45;&gt;Node21 -->
<g id="edge20" class="edge"><title>Node4&#45;&gt;Node21</title>
<path fill="none" stroke="midnightblue" d="M558.494,-125.148C474.12,-114.167 327.326,-94.9319 283.617,-87.5269"/>
<polygon fill="midnightblue" stroke="midnightblue" points="284.02,-84.0413 273.545,-85.6308 282.725,-90.9205 284.02,-84.0413"/>
</g>
<!-- Node4&#45;&gt;Node22 -->
<g id="edge21" class="edge"><title>Node4&#45;&gt;Node22</title>
<path fill="none" stroke="midnightblue" d="M558.465,-125.181C504.964,-117.791 424.675,-105.532 346.31,-88.0788"/>
<polygon fill="midnightblue" stroke="midnightblue" points="346.793,-84.5998 336.268,-85.8109 345.251,-91.4279 346.793,-84.5998"/>
</g>
<!-- Node6 -->
<g id="node6" class="node"><title>Node6</title>
<g id="a_node6"><a xlink:href="attribute__always__inline_8hpp.html" target="_top" xlink:title="tlx/define/attribute\l_always_inline.hpp">
<polygon fill="none" stroke="black" points="-0.5,-1 -0.5,-31 98.5,-31 98.5,-1 -0.5,-1"/>
<text text-anchor="start" x="7.5" y="-19" font-family="Helvetica,sans-Serif" font-size="10.00">tlx/define/attribute</text>
<text text-anchor="middle" x="49" y="-8" font-family="Helvetica,sans-Serif" font-size="10.00">_always_inline.hpp</text>
</a>
</g>
</g>
<!-- Node5&#45;&gt;Node6 -->
<g id="edge5" class="edge"><title>Node5&#45;&gt;Node6</title>
<path fill="none" stroke="midnightblue" d="M417.33,-69.5457C414.179,-68.9954 411.038,-68.4719 408,-68 278.116,-47.8226 241.196,-56.4722 108.705,-32.1746"/>
<polygon fill="midnightblue" stroke="midnightblue" points="109.048,-28.6783 98.5757,-30.2876 107.766,-35.5599 109.048,-28.6783"/>
</g>
<!-- Node7 -->
<g id="node7" class="node"><title>Node7</title>
<g id="a_node7"><a xlink:href="attribute__fallthrough_8hpp.html" target="_top" xlink:title="tlx/define/attribute\l_fallthrough.hpp">
<polygon fill="none" stroke="black" points="116.5,-1 116.5,-31 211.5,-31 211.5,-1 116.5,-1"/>
<text text-anchor="start" x="124.5" y="-19" font-family="Helvetica,sans-Serif" font-size="10.00">tlx/define/attribute</text>
<text text-anchor="middle" x="164" y="-8" font-family="Helvetica,sans-Serif" font-size="10.00">_fallthrough.hpp</text>
</a>
</g>
</g>
<!-- Node5&#45;&gt;Node7 -->
<g id="edge6" class="edge"><title>Node5&#45;&gt;Node7</title>
<path fill="none" stroke="midnightblue" d="M417.36,-69.7968C360.177,-58.8531 255.091,-38.7394 221.632,-32.0694"/>
<polygon fill="midnightblue" stroke="midnightblue" points="222.101,-28.5924 211.6,-30.0017 220.688,-35.4483 222.101,-28.5924"/>
</g>
<!-- Node8 -->
<g id="node8" class="node"><title>Node8</title>
<g id="a_node8"><a xlink:href="attribute__format__printf_8hpp.html" target="_top" xlink:title="tlx/define/attribute\l_format_printf.hpp">
<polygon fill="none" stroke="black" points="229.5,-1 229.5,-31 324.5,-31 324.5,-1 229.5,-1"/>
<text text-anchor="start" x="237.5" y="-19" font-family="Helvetica,sans-Serif" font-size="10.00">tlx/define/attribute</text>
<text text-anchor="middle" x="277" y="-8" font-family="Helvetica,sans-Serif" font-size="10.00">_format_printf.hpp</text>
</a>
</g>
</g>
<!-- Node5&#45;&gt;Node8 -->
<g id="edge7" class="edge"><title>Node5&#45;&gt;Node8</title>
<path fill="none" stroke="midnightblue" d="M429.497,-68.4035C403.161,-59.5263 361.348,-45.4321 328.161,-34.2453"/>
<polygon fill="midnightblue" stroke="midnightblue" points="329.203,-30.9029 318.608,-31.0253 326.967,-37.5362 329.203,-30.9029"/>
</g>
<!-- Node9 -->
<g id="node9" class="node"><title>Node9</title>
<g id="a_node9"><a xlink:href="attribute__packed_8hpp.html" target="_top" xlink:title="tlx/define/attribute\l_packed.hpp">
<polygon fill="none" stroke="black" points="342.5,-1 342.5,-31 437.5,-31 437.5,-1 342.5,-1"/>
<text text-anchor="start" x="350.5" y="-19" font-family="Helvetica,sans-Serif" font-size="10.00">tlx/define/attribute</text>
<text text-anchor="middle" x="390" y="-8" font-family="Helvetica,sans-Serif" font-size="10.00">_packed.hpp</text>
</a>
</g>
</g>
<!-- Node5&#45;&gt;Node9 -->
<g id="edge8" class="edge"><title>Node5&#45;&gt;Node9</title>
<path fill="none" stroke="midnightblue" d="M445.687,-68.4035C437.131,-60.5051 424.1,-48.4768 412.794,-38.0409"/>
<polygon fill="midnightblue" stroke="midnightblue" points="415.041,-35.3518 405.319,-31.1408 410.293,-40.4955 415.041,-35.3518"/>
</g>
<!-- Node10 -->
<g id="node10" class="node"><title>Node10</title>
<g id="a_node10"><a xlink:href="attribute__warn__unused__result_8hpp.html" target="_top" xlink:title="tlx/define/attribute\l_warn_unused_result.hpp">
<polygon fill="none" stroke="black" points="456,-1 456,-31 584,-31 584,-1 456,-1"/>
<text text-anchor="start" x="464" y="-19" font-family="Helvetica,sans-Serif" font-size="10.00">tlx/define/attribute</text>
<text text-anchor="middle" x="520" y="-8" font-family="Helvetica,sans-Serif" font-size="10.00">_warn_unused_result.hpp</text>
</a>
</g>
</g>
<!-- Node5&#45;&gt;Node10 -->
<g id="edge9" class="edge"><title>Node5&#45;&gt;Node10</title>
<path fill="none" stroke="midnightblue" d="M464.313,-68.4035C472.869,-60.5051 485.9,-48.4768 497.206,-38.0409"/>
<polygon fill="midnightblue" stroke="midnightblue" points="499.707,-40.4955 504.681,-31.1408 494.959,-35.3518 499.707,-40.4955"/>
</g>
<!-- Node11 -->
<g id="node11" class="node"><title>Node11</title>
<g id="a_node11"><a xlink:href="deprecated_8hpp.html" target="_top" xlink:title="tlx/define/deprecated.hpp">
<polygon fill="none" stroke="black" points="602,-6.5 602,-25.5 728,-25.5 728,-6.5 602,-6.5"/>
<text text-anchor="middle" x="665" y="-13.5" font-family="Helvetica,sans-Serif" font-size="10.00">tlx/define/deprecated.hpp</text>
</a>
</g>
</g>
<!-- Node5&#45;&gt;Node11 -->
<g id="edge10" class="edge"><title>Node5&#45;&gt;Node11</title>
<path fill="none" stroke="midnightblue" d="M485.088,-68.4035C521.89,-57.8886 584.311,-40.0539 625.094,-28.4016"/>
<polygon fill="midnightblue" stroke="midnightblue" points="626.314,-31.6932 634.968,-25.5806 624.391,-24.9625 626.314,-31.6932"/>
</g>
<!-- Node12 -->
<g id="node12" class="node"><title>Node12</title>
<g id="a_node12"><a xlink:href="endian_8hpp.html" target="_top" xlink:title="tlx/define/endian.hpp">
<polygon fill="none" stroke="black" points="746.5,-6.5 746.5,-25.5 853.5,-25.5 853.5,-6.5 746.5,-6.5"/>
<text text-anchor="middle" x="800" y="-13.5" font-family="Helvetica,sans-Serif" font-size="10.00">tlx/define/endian.hpp</text>
</a>
</g>
</g>
<!-- Node5&#45;&gt;Node12 -->
<g id="edge11" class="edge"><title>Node5&#45;&gt;Node12</title>
<path fill="none" stroke="midnightblue" d="M492.688,-69.6555C495.835,-69.0809 498.971,-68.5219 502,-68 606.129,-50.0608 633.296,-52.2538 737,-32 743.3,-30.7696 749.924,-29.3419 756.413,-27.8661"/>
<polygon fill="midnightblue" stroke="midnightblue" points="757.491,-31.2088 766.434,-25.5289 755.901,-24.3917 757.491,-31.2088"/>
</g>
<!-- Node13 -->
<g id="node13" class="node"><title>Node13</title>
<g id="a_node13"><a xlink:href="likely_8hpp.html" target="_top" xlink:title="tlx/define/likely.hpp">
<polygon fill="none" stroke="black" points="871.5,-6.5 871.5,-25.5 972.5,-25.5 972.5,-6.5 871.5,-6.5"/>
<text text-anchor="middle" x="922" y="-13.5" font-family="Helvetica,sans-Serif" font-size="10.00">tlx/define/likely.hpp</text>
</a>
</g>
</g>
<!-- Node5&#45;&gt;Node13 -->
<g id="edge12" class="edge"><title>Node5&#45;&gt;Node13</title>
<path fill="none" stroke="midnightblue" d="M492.66,-69.481C495.814,-68.945 498.958,-68.4424 502,-68 661.124,-44.856 703.584,-59.5724 862,-32 868.317,-30.9005 874.952,-29.4977 881.413,-27.9929"/>
<polygon fill="midnightblue" stroke="midnightblue" points="882.463,-31.3396 891.351,-25.5733 880.807,-24.5383 882.463,-31.3396"/>
</g>
<!-- Node23&#45;&gt;Node17 -->
<g id="edge23" class="edge"><title>Node23&#45;&gt;Node17</title>
<path fill="none" stroke="midnightblue" d="M453.379,-124.324C439.051,-115.822 416.987,-102.729 400.251,-92.7975"/>
<polygon fill="midnightblue" stroke="midnightblue" points="401.97,-89.7478 391.584,-87.6545 398.398,-95.7677 401.97,-89.7478"/>
</g>
<!-- Node24&#45;&gt;Node25 -->
<g id="edge25" class="edge"><title>Node24&#45;&gt;Node25</title>
<path fill="none" stroke="midnightblue" d="M1002.08,-124.083C994.22,-116.22 982.569,-104.569 973.081,-95.0813"/>
<polygon fill="midnightblue" stroke="midnightblue" points="975.297,-92.3473 965.751,-87.7511 970.347,-97.2971 975.297,-92.3473"/>
</g>
<!-- Node24&#45;&gt;Node26 -->
<g id="edge26" class="edge"><title>Node24&#45;&gt;Node26</title>
<path fill="none" stroke="midnightblue" d="M1024.82,-124.324C1038.23,-115.9 1058.82,-102.971 1074.59,-93.0741"/>
<polygon fill="midnightblue" stroke="midnightblue" points="1076.61,-95.9364 1083.22,-87.6545 1072.89,-90.0081 1076.61,-95.9364"/>
</g>
<!-- Node24&#45;&gt;Node27 -->
<g id="edge27" class="edge"><title>Node24&#45;&gt;Node27</title>
<path fill="none" stroke="midnightblue" d="M1013.81,-124.083C1016.08,-116.849 1019.37,-106.409 1022.21,-97.3968"/>
<polygon fill="midnightblue" stroke="midnightblue" points="1025.58,-98.3406 1025.25,-87.7511 1018.9,-96.2385 1025.58,-98.3406"/>
</g>
<!-- Node28&#45;&gt;Node29 -->
<g id="edge29" class="edge"><title>Node28&#45;&gt;Node29</title>
<path fill="none" stroke="midnightblue" d="M1261.15,-124.083C1262.87,-116.927 1265.35,-106.635 1267.5,-97.6911"/>
<polygon fill="midnightblue" stroke="midnightblue" points="1270.96,-98.2925 1269.89,-87.7511 1264.15,-96.6541 1270.96,-98.2925"/>
</g>
<!-- Node28&#45;&gt;Node30 -->
<g id="edge30" class="edge"><title>Node28&#45;&gt;Node30</title>
<path fill="none" stroke="midnightblue" d="M1276.35,-124.324C1293.67,-115.664 1320.52,-102.242 1340.5,-92.249"/>
<polygon fill="midnightblue" stroke="midnightblue" points="1342.31,-95.2572 1349.69,-87.6545 1339.18,-88.9962 1342.31,-95.2572"/>
</g>
<!-- Node28&#45;&gt;Node31 -->
<g id="edge31" class="edge"><title>Node28&#45;&gt;Node31</title>
<path fill="none" stroke="midnightblue" d="M1245.5,-124.324C1232.4,-115.9 1212.29,-102.971 1196.89,-93.0741"/>
<polygon fill="midnightblue" stroke="midnightblue" points="1198.77,-90.118 1188.46,-87.6545 1194.98,-96.0063 1198.77,-90.118"/>
</g>
</g>
</svg>
