<?xml version="1.0" encoding="UTF-8" standalone="no"?>
<!DOCTYPE svg PUBLIC "-//W3C//DTD SVG 1.1//EN"
 "http://www.w3.org/Graphics/SVG/1.1/DTD/svg11.dtd">
<!-- Generated by graphviz version 2.26.3 (20100126.1600)
 -->
<!-- Title: thrill/mem/pool.cpp Pages: 1 -->
<svg width="1341pt" height="348pt"
 viewBox="0.00 0.00 1340.87 348.00" xmlns="http://www.w3.org/2000/svg" xmlns:xlink="http://www.w3.org/1999/xlink">
<g id="graph1" class="graph" transform="scale(1 1) rotate(0) translate(4 344)">
<title>thrill/mem/pool.cpp</title>
<!-- Node1 -->
<g id="node1" class="node"><title>Node1</title>
<polygon fill="#bfbfbf" stroke="black" points="1034.5,-318.5 1034.5,-339.5 1133.5,-339.5 1133.5,-318.5 1034.5,-318.5"/>
<text text-anchor="middle" x="1084" y="-326.5" font-family="Helvetica,sans-Serif" font-size="10.00">thrill/mem/pool.cpp</text>
</g>
<!-- Node2 -->
<g id="node3" class="node"><title>Node2</title>
<a xlink:href="pool_8hpp.html" target="_top" xlink:title="thrill/mem/pool.hpp">
<polygon fill="none" stroke="black" points="836.5,-253.5 836.5,-274.5 935.5,-274.5 935.5,-253.5 836.5,-253.5"/>
<text text-anchor="middle" x="886" y="-261.5" font-family="Helvetica,sans-Serif" font-size="10.00">thrill/mem/pool.hpp</text>
</a>
</g>
<!-- Node1&#45;&gt;Node2 -->
<g id="edge2" class="edge"><title>Node1&#45;&gt;Node2</title>
<path fill="none" stroke="midnightblue" d="M1051.75,-318.412C1018.09,-307.364 965.173,-289.991 928.212,-277.857"/>
<polygon fill="midnightblue" stroke="midnightblue" points="928.832,-274.377 918.239,-274.584 926.648,-281.028 928.832,-274.377"/>
</g>
<!-- Node11 -->
<g id="node21" class="node"><title>Node11</title>
<polygon fill="none" stroke="#bfbfbf" points="278,-58.5 278,-79.5 318,-79.5 318,-58.5 278,-58.5"/>
<text text-anchor="middle" x="298" y="-66.5" font-family="Helvetica,sans-Serif" font-size="10.00">limits</text>
</g>
<!-- Node1&#45;&gt;Node11 -->
<g id="edge82" class="edge"><title>Node1&#45;&gt;Node11</title>
<path fill="none" stroke="midnightblue" d="M1034.24,-322.878C982.153,-315.773 898.315,-302.36 828,-282 631.148,-224.999 406.728,-121.22 327.536,-83.334"/>
<polygon fill="midnightblue" stroke="midnightblue" points="328.715,-80.0175 318.185,-78.8433 325.684,-86.3276 328.715,-80.0175"/>
</g>
<!-- Node23 -->
<g id="node48" class="node"><title>Node23</title>
<polygon fill="none" stroke="#bfbfbf" points="1297.5,-116.5 1297.5,-137.5 1332.5,-137.5 1332.5,-116.5 1297.5,-116.5"/>
<text text-anchor="middle" x="1315" y="-124.5" font-family="Helvetica,sans-Serif" font-size="10.00">new</text>
</g>
<!-- Node1&#45;&gt;Node23 -->
<g id="edge84" class="edge"><title>Node1&#45;&gt;Node23</title>
<path fill="none" stroke="midnightblue" d="M1133.96,-323.226C1188.83,-315.992 1272.44,-302.062 1297,-282 1335.77,-250.332 1336.22,-223.539 1329,-174 1327.69,-164.996 1325.03,-155.318 1322.38,-147.099"/>
<polygon fill="midnightblue" stroke="midnightblue" points="1325.69,-145.95 1319.13,-137.628 1319.07,-148.222 1325.69,-145.95"/>
</g>
<!-- Node29 -->
<g id="node67" class="node"><title>Node29</title>
<a xlink:href="splay__tree_8hpp.html" target="_top" xlink:title="thrill/common/splay\l_tree.hpp">
<polygon fill="none" stroke="black" points="1187.5,-247 1187.5,-281 1288.5,-281 1288.5,-247 1187.5,-247"/>
<text text-anchor="start" x="1195.5" y="-268" font-family="Helvetica,sans-Serif" font-size="10.00">thrill/common/splay</text>
<text text-anchor="middle" x="1238" y="-255" font-family="Helvetica,sans-Serif" font-size="10.00">_tree.hpp</text>
</a>
</g>
<!-- Node1&#45;&gt;Node29 -->
<g id="edge76" class="edge"><title>Node1&#45;&gt;Node29</title>
<path fill="none" stroke="midnightblue" d="M1109.09,-318.412C1130.42,-309.409 1161.69,-296.207 1188.1,-285.062"/>
<polygon fill="midnightblue" stroke="midnightblue" points="1189.73,-288.174 1197.58,-281.06 1187.01,-281.725 1189.73,-288.174"/>
</g>
<!-- Node3 -->
<g id="node5" class="node"><title>Node3</title>
<a xlink:href="config_8hpp.html" target="_top" xlink:title="thrill/common/config.hpp">
<polygon fill="none" stroke="black" points="-0.5,-181.5 -0.5,-202.5 122.5,-202.5 122.5,-181.5 -0.5,-181.5"/>
<text text-anchor="middle" x="61" y="-189.5" font-family="Helvetica,sans-Serif" font-size="10.00">thrill/common/config.hpp</text>
</a>
</g>
<!-- Node2&#45;&gt;Node3 -->
<g id="edge4" class="edge"><title>Node2&#45;&gt;Node3</title>
<path fill="none" stroke="midnightblue" d="M836.1,-263.223C715.252,-260.73 397.56,-250.524 136,-210 127.347,-208.659 118.221,-206.829 109.429,-204.847"/>
<polygon fill="midnightblue" stroke="midnightblue" points="110.221,-201.438 99.6859,-202.563 108.623,-208.253 110.221,-201.438"/>
</g>
<!-- Node4 -->
<g id="node7" class="node"><title>Node4</title>
<a xlink:href="allocator__base_8hpp.html" target="_top" xlink:title="thrill/mem/allocator\l_base.hpp">
<polygon fill="none" stroke="black" points="791.5,-175 791.5,-209 890.5,-209 890.5,-175 791.5,-175"/>
<text text-anchor="start" x="799.5" y="-196" font-family="Helvetica,sans-Serif" font-size="10.00">thrill/mem/allocator</text>
<text text-anchor="middle" x="841" y="-183" font-family="Helvetica,sans-Serif" font-size="10.00">_base.hpp</text>
</a>
</g>
<!-- Node2&#45;&gt;Node4 -->
<g id="edge6" class="edge"><title>Node2&#45;&gt;Node4</title>
<path fill="none" stroke="midnightblue" d="M879.36,-253.376C873.497,-243.996 864.712,-229.939 857.027,-217.644"/>
<polygon fill="midnightblue" stroke="midnightblue" points="859.952,-215.719 851.684,-209.094 854.016,-219.429 859.952,-215.719"/>
</g>
<!-- Node7 -->
<g id="node13" class="node"><title>Node7</title>
<polygon fill="none" stroke="#bfbfbf" points="157,-0.5 157,-21.5 219,-21.5 219,-0.5 157,-0.5"/>
<text text-anchor="middle" x="188" y="-8.5" font-family="Helvetica,sans-Serif" font-size="10.00">type_traits</text>
</g>
<!-- Node2&#45;&gt;Node7 -->
<g id="edge70" class="edge"><title>Node2&#45;&gt;Node7</title>
<path fill="none" stroke="midnightblue" d="M836.464,-261.251C696.264,-252.504 300.716,-220.858 206,-138 176.111,-111.853 179.129,-60.5077 183.711,-31.7578"/>
<polygon fill="midnightblue" stroke="midnightblue" points="187.21,-32.0783 185.546,-21.615 180.322,-30.8325 187.21,-32.0783"/>
</g>
<!-- Node14 -->
<g id="node27" class="node"><title>Node14</title>
<polygon fill="none" stroke="#bfbfbf" points="739.5,-58.5 739.5,-79.5 780.5,-79.5 780.5,-58.5 739.5,-58.5"/>
<text text-anchor="middle" x="760" y="-66.5" font-family="Helvetica,sans-Serif" font-size="10.00">string</text>
</g>
<!-- Node2&#45;&gt;Node14 -->
<g id="edge68" class="edge"><title>Node2&#45;&gt;Node14</title>
<path fill="none" stroke="midnightblue" d="M836.317,-255.442C809.859,-248.107 779.459,-234.624 763,-210 738.63,-173.538 746.893,-119.073 754.055,-89.6476"/>
<polygon fill="midnightblue" stroke="midnightblue" points="757.516,-90.2471 756.675,-79.6857 750.747,-88.4663 757.516,-90.2471"/>
</g>
<!-- Node15 -->
<g id="node29" class="node"><title>Node15</title>
<polygon fill="none" stroke="#bfbfbf" points="798,-58.5 798,-79.5 842,-79.5 842,-58.5 798,-58.5"/>
<text text-anchor="middle" x="820" y="-66.5" font-family="Helvetica,sans-Serif" font-size="10.00">vector</text>
</g>
<!-- Node2&#45;&gt;Node15 -->
<g id="edge74" class="edge"><title>Node2&#45;&gt;Node15</title>
<path fill="none" stroke="midnightblue" d="M838.284,-253.418C814.937,-245.577 788.923,-232.256 775,-210 750.284,-170.49 783.177,-116.19 804.455,-87.8885"/>
<polygon fill="midnightblue" stroke="midnightblue" points="807.479,-89.7031 810.868,-79.665 801.959,-85.3985 807.479,-89.7031"/>
</g>
<!-- Node18 -->
<g id="node36" class="node"><title>Node18</title>
<polygon fill="none" stroke="#bfbfbf" points="860,-58.5 860,-79.5 916,-79.5 916,-58.5 860,-58.5"/>
<text text-anchor="middle" x="888" y="-66.5" font-family="Helvetica,sans-Serif" font-size="10.00">algorithm</text>
</g>
<!-- Node2&#45;&gt;Node18 -->
<g id="edge58" class="edge"><title>Node2&#45;&gt;Node18</title>
<path fill="none" stroke="midnightblue" d="M844.268,-253.492C821.924,-245.508 796.323,-232.027 783,-210 774.72,-196.309 778.425,-189.332 783,-174 791.812,-144.469 799.557,-138.134 821,-116 832.647,-103.977 847.764,-93.0662 860.69,-84.79"/>
<polygon fill="midnightblue" stroke="midnightblue" points="862.566,-87.7451 869.22,-79.5 858.877,-81.7964 862.566,-87.7451"/>
</g>
<!-- Node24 -->
<g id="node54" class="node"><title>Node24</title>
<polygon fill="none" stroke="#bfbfbf" points="907.5,-181.5 907.5,-202.5 956.5,-202.5 956.5,-181.5 907.5,-181.5"/>
<text text-anchor="middle" x="932" y="-189.5" font-family="Helvetica,sans-Serif" font-size="10.00">cstddef</text>
</g>
<!-- Node2&#45;&gt;Node24 -->
<g id="edge60" class="edge"><title>Node2&#45;&gt;Node24</title>
<path fill="none" stroke="midnightblue" d="M892.787,-253.376C899.854,-242.316 911.074,-224.753 919.706,-211.243"/>
<polygon fill="midnightblue" stroke="midnightblue" points="922.75,-212.979 925.185,-202.667 916.851,-209.21 922.75,-212.979"/>
</g>
<!-- Node25 -->
<g id="node56" class="node"><title>Node25</title>
<polygon fill="none" stroke="#bfbfbf" points="974,-181.5 974,-202.5 1020,-202.5 1020,-181.5 974,-181.5"/>
<text text-anchor="middle" x="997" y="-189.5" font-family="Helvetica,sans-Serif" font-size="10.00">cstdint</text>
</g>
<!-- Node2&#45;&gt;Node25 -->
<g id="edge62" class="edge"><title>Node2&#45;&gt;Node25</title>
<path fill="none" stroke="midnightblue" d="M902.378,-253.376C920.742,-241.465 950.73,-222.013 972.021,-208.202"/>
<polygon fill="midnightblue" stroke="midnightblue" points="974.069,-211.046 980.554,-202.667 970.26,-205.173 974.069,-211.046"/>
</g>
<!-- Node26 -->
<g id="node58" class="node"><title>Node26</title>
<polygon fill="none" stroke="#bfbfbf" points="1038,-181.5 1038,-202.5 1090,-202.5 1090,-181.5 1038,-181.5"/>
<text text-anchor="middle" x="1064" y="-189.5" font-family="Helvetica,sans-Serif" font-size="10.00">memory</text>
</g>
<!-- Node2&#45;&gt;Node26 -->
<g id="edge64" class="edge"><title>Node2&#45;&gt;Node26</title>
<path fill="none" stroke="midnightblue" d="M917.094,-253.411C946.341,-243.182 991.166,-226.807 1029,-210 1031.03,-209.098 1033.11,-208.136 1035.19,-207.142"/>
<polygon fill="midnightblue" stroke="midnightblue" points="1036.79,-210.253 1044.2,-202.679 1033.69,-203.981 1036.79,-210.253"/>
</g>
<!-- Node27 -->
<g id="node60" class="node"><title>Node27</title>
<polygon fill="none" stroke="#bfbfbf" points="1108,-181.5 1108,-202.5 1152,-202.5 1152,-181.5 1108,-181.5"/>
<text text-anchor="middle" x="1130" y="-189.5" font-family="Helvetica,sans-Serif" font-size="10.00">mutex</text>
</g>
<!-- Node2&#45;&gt;Node27 -->
<g id="edge66" class="edge"><title>Node2&#45;&gt;Node27</title>
<path fill="none" stroke="midnightblue" d="M935.88,-255.429C979.855,-246.924 1045.13,-231.966 1099,-210 1100.86,-209.242 1102.74,-208.39 1104.61,-207.478"/>
<polygon fill="midnightblue" stroke="midnightblue" points="1106.55,-210.412 1113.7,-202.597 1103.24,-204.244 1106.55,-210.412"/>
</g>
<!-- Node28 -->
<g id="node64" class="node"><title>Node28</title>
<polygon fill="none" stroke="#bfbfbf" points="1170,-181.5 1170,-202.5 1210,-202.5 1210,-181.5 1170,-181.5"/>
<text text-anchor="middle" x="1190" y="-189.5" font-family="Helvetica,sans-Serif" font-size="10.00">utility</text>
</g>
<!-- Node2&#45;&gt;Node28 -->
<g id="edge72" class="edge"><title>Node2&#45;&gt;Node28</title>
<path fill="none" stroke="midnightblue" d="M935.691,-259.686C991.959,-253.573 1085.61,-239.649 1161,-210 1162.82,-209.284 1164.65,-208.454 1166.46,-207.551"/>
<polygon fill="midnightblue" stroke="midnightblue" points="1168.21,-210.584 1175.19,-202.616 1164.77,-204.49 1168.21,-210.584"/>
</g>
<!-- Node5 -->
<g id="node9" class="node"><title>Node5</title>
<a xlink:href="string_8hpp.html" target="_top" xlink:title="thrill/common/string.hpp">
<polygon fill="none" stroke="black" points="501.5,-116.5 501.5,-137.5 622.5,-137.5 622.5,-116.5 501.5,-116.5"/>
<text text-anchor="middle" x="562" y="-124.5" font-family="Helvetica,sans-Serif" font-size="10.00">thrill/common/string.hpp</text>
</a>
</g>
<!-- Node4&#45;&gt;Node5 -->
<g id="edge8" class="edge"><title>Node4&#45;&gt;Node5</title>
<path fill="none" stroke="midnightblue" d="M791.442,-180.454C742.557,-169.065 667.983,-151.691 617.223,-139.866"/>
<polygon fill="midnightblue" stroke="midnightblue" points="617.936,-136.438 607.403,-137.578 616.348,-143.255 617.936,-136.438"/>
</g>
<!-- Node4&#45;&gt;Node7 -->
<g id="edge54" class="edge"><title>Node4&#45;&gt;Node7</title>
<path fill="none" stroke="midnightblue" d="M791.075,-190.649C652.823,-186.488 272.248,-172.033 228,-138 195.324,-112.868 188.762,-61.1236 187.788,-32.0381"/>
<polygon fill="midnightblue" stroke="midnightblue" points="191.284,-31.7196 187.648,-21.7685 184.285,-31.8154 191.284,-31.7196"/>
</g>
<!-- Node4&#45;&gt;Node14 -->
<g id="edge52" class="edge"><title>Node4&#45;&gt;Node14</title>
<path fill="none" stroke="midnightblue" d="M829.737,-174.897C814.771,-152.17 788.398,-112.123 772.727,-88.3263"/>
<polygon fill="midnightblue" stroke="midnightblue" points="775.527,-86.2142 767.104,-79.7875 769.681,-90.0642 775.527,-86.2142"/>
</g>
<!-- Node4&#45;&gt;Node15 -->
<g id="edge56" class="edge"><title>Node4&#45;&gt;Node15</title>
<path fill="none" stroke="midnightblue" d="M832.968,-174.917C828.506,-164.501 823.386,-150.776 821,-138 818.045,-122.175 817.917,-103.952 818.462,-90.2087"/>
<polygon fill="midnightblue" stroke="midnightblue" points="821.976,-90.0461 819.031,-79.8689 814.986,-89.6615 821.976,-90.0461"/>
</g>
<!-- Node16 -->
<g id="node31" class="node"><title>Node16</title>
<a xlink:href="malloc__tracker_8hpp.html" target="_top" xlink:title="thrill/mem/malloc_tracker.hpp">
<polygon fill="none" stroke="black" points="236.5,-116.5 236.5,-137.5 381.5,-137.5 381.5,-116.5 236.5,-116.5"/>
<text text-anchor="middle" x="309" y="-124.5" font-family="Helvetica,sans-Serif" font-size="10.00">thrill/mem/malloc_tracker.hpp</text>
</a>
</g>
<!-- Node4&#45;&gt;Node16 -->
<g id="edge30" class="edge"><title>Node4&#45;&gt;Node16</title>
<path fill="none" stroke="midnightblue" d="M791.428,-185.943C700.003,-174.773 503.969,-150.821 391.97,-137.137"/>
<polygon fill="midnightblue" stroke="midnightblue" points="392.083,-133.625 381.733,-135.886 391.234,-140.574 392.083,-133.625"/>
</g>
<!-- Node17 -->
<g id="node34" class="node"><title>Node17</title>
<a xlink:href="mem_2manager_8hpp.html" target="_top" xlink:title="thrill/mem/manager.hpp">
<polygon fill="none" stroke="black" points="829.5,-116.5 829.5,-137.5 948.5,-137.5 948.5,-116.5 829.5,-116.5"/>
<text text-anchor="middle" x="889" y="-124.5" font-family="Helvetica,sans-Serif" font-size="10.00">thrill/mem/manager.hpp</text>
</a>
</g>
<!-- Node4&#45;&gt;Node17 -->
<g id="edge34" class="edge"><title>Node4&#45;&gt;Node17</title>
<path fill="none" stroke="midnightblue" d="M853.611,-174.922C860.179,-166.029 868.227,-155.13 874.989,-145.974"/>
<polygon fill="midnightblue" stroke="midnightblue" points="877.861,-147.976 880.986,-137.852 872.23,-143.817 877.861,-147.976"/>
</g>
<!-- Node19 -->
<g id="node38" class="node"><title>Node19</title>
<polygon fill="none" stroke="#bfbfbf" points="934,-58.5 934,-79.5 980,-79.5 980,-58.5 934,-58.5"/>
<text text-anchor="middle" x="957" y="-66.5" font-family="Helvetica,sans-Serif" font-size="10.00">atomic</text>
</g>
<!-- Node4&#45;&gt;Node19 -->
<g id="edge42" class="edge"><title>Node4&#45;&gt;Node19</title>
<path fill="none" stroke="midnightblue" d="M890.735,-174.967C918.524,-164.333 949.118,-150.363 957,-138 966.032,-123.833 965.167,-104.479 962.539,-89.8738"/>
<polygon fill="midnightblue" stroke="midnightblue" points="965.889,-88.8087 960.32,-79.7951 959.052,-90.3137 965.889,-88.8087"/>
</g>
<!-- Node20 -->
<g id="node40" class="node"><title>Node20</title>
<polygon fill="none" stroke="#bfbfbf" points="997.5,-58.5 997.5,-79.5 1046.5,-79.5 1046.5,-58.5 997.5,-58.5"/>
<text text-anchor="middle" x="1022" y="-66.5" font-family="Helvetica,sans-Serif" font-size="10.00">cassert</text>
</g>
<!-- Node4&#45;&gt;Node20 -->
<g id="edge44" class="edge"><title>Node4&#45;&gt;Node20</title>
<path fill="none" stroke="midnightblue" d="M890.529,-175.446C922.808,-164.022 961.374,-148.973 975,-138 991.576,-124.652 1004.6,-103.915 1012.69,-88.658"/>
<polygon fill="midnightblue" stroke="midnightblue" points="1015.91,-90.06 1017.29,-79.5555 1009.66,-86.906 1015.91,-90.06"/>
</g>
<!-- Node21 -->
<g id="node44" class="node"><title>Node21</title>
<polygon fill="none" stroke="#bfbfbf" points="1041.5,-116.5 1041.5,-137.5 1084.5,-137.5 1084.5,-116.5 1041.5,-116.5"/>
<text text-anchor="middle" x="1063" y="-124.5" font-family="Helvetica,sans-Serif" font-size="10.00">deque</text>
</g>
<!-- Node4&#45;&gt;Node21 -->
<g id="edge46" class="edge"><title>Node4&#45;&gt;Node21</title>
<path fill="none" stroke="midnightblue" d="M890.646,-176.49C893.47,-175.64 896.269,-174.805 899,-174 956.097,-157.177 970.933,-154.926 1028,-138 1029.07,-137.683 1030.15,-137.358 1031.25,-137.028"/>
<polygon fill="midnightblue" stroke="midnightblue" points="1032.66,-140.257 1041.19,-133.975 1030.6,-133.565 1032.66,-140.257"/>
</g>
<!-- Node22 -->
<g id="node46" class="node"><title>Node22</title>
<polygon fill="none" stroke="#bfbfbf" points="1101.5,-116.5 1101.5,-137.5 1146.5,-137.5 1146.5,-116.5 1101.5,-116.5"/>
<text text-anchor="middle" x="1124" y="-124.5" font-family="Helvetica,sans-Serif" font-size="10.00">iosfwd</text>
</g>
<!-- Node4&#45;&gt;Node22 -->
<g id="edge48" class="edge"><title>Node4&#45;&gt;Node22</title>
<path fill="none" stroke="midnightblue" d="M890.566,-176.197C893.411,-175.422 896.236,-174.683 899,-174 981.058,-153.727 1006.48,-160.21 1091.61,-138.08"/>
<polygon fill="midnightblue" stroke="midnightblue" points="1092.68,-141.418 1101.44,-135.467 1090.88,-134.652 1092.68,-141.418"/>
</g>
<!-- Node4&#45;&gt;Node23 -->
<g id="edge50" class="edge"><title>Node4&#45;&gt;Node23</title>
<path fill="none" stroke="midnightblue" d="M890.512,-175.961C893.37,-175.246 896.214,-174.584 899,-174 973.733,-158.328 1206.03,-136.72 1286.9,-129.478"/>
<polygon fill="midnightblue" stroke="midnightblue" points="1287.63,-132.927 1297.28,-128.553 1287,-125.955 1287.63,-132.927"/>
</g>
<!-- Node6 -->
<g id="node11" class="node"><title>Node6</title>
<a xlink:href="defines_8hpp.html" target="_top" xlink:title="thrill/common/defines.hpp">
<polygon fill="none" stroke="black" points="336,-58.5 336,-79.5 464,-79.5 464,-58.5 336,-58.5"/>
<text text-anchor="middle" x="400" y="-66.5" font-family="Helvetica,sans-Serif" font-size="10.00">thrill/common/defines.hpp</text>
</a>
</g>
<!-- Node5&#45;&gt;Node6 -->
<g id="edge10" class="edge"><title>Node5&#45;&gt;Node6</title>
<path fill="none" stroke="midnightblue" d="M532.663,-116.497C506.481,-107.123 467.94,-93.3242 439.137,-83.0122"/>
<polygon fill="midnightblue" stroke="midnightblue" points="439.987,-79.5987 429.392,-79.5231 437.627,-86.189 439.987,-79.5987"/>
</g>
<!-- Node8 -->
<g id="node15" class="node"><title>Node8</title>
<polygon fill="none" stroke="#bfbfbf" points="482,-58.5 482,-79.5 520,-79.5 520,-58.5 482,-58.5"/>
<text text-anchor="middle" x="501" y="-66.5" font-family="Helvetica,sans-Serif" font-size="10.00">array</text>
</g>
<!-- Node5&#45;&gt;Node8 -->
<g id="edge14" class="edge"><title>Node5&#45;&gt;Node8</title>
<path fill="none" stroke="midnightblue" d="M550.812,-116.362C542.041,-108.023 529.651,-96.2418 519.422,-86.5162"/>
<polygon fill="midnightblue" stroke="midnightblue" points="521.776,-83.9248 512.117,-79.5707 516.953,-88.9978 521.776,-83.9248"/>
</g>
<!-- Node9 -->
<g id="node17" class="node"><title>Node9</title>
<polygon fill="none" stroke="#bfbfbf" points="537.5,-58.5 537.5,-79.5 586.5,-79.5 586.5,-58.5 537.5,-58.5"/>
<text text-anchor="middle" x="562" y="-66.5" font-family="Helvetica,sans-Serif" font-size="10.00">cstdarg</text>
</g>
<!-- Node5&#45;&gt;Node9 -->
<g id="edge16" class="edge"><title>Node5&#45;&gt;Node9</title>
<path fill="none" stroke="midnightblue" d="M562,-116.362C562,-108.922 562,-98.7427 562,-89.7276"/>
<polygon fill="midnightblue" stroke="midnightblue" points="565.5,-89.5706 562,-79.5707 558.5,-89.5707 565.5,-89.5706"/>
</g>
<!-- Node10 -->
<g id="node19" class="node"><title>Node10</title>
<polygon fill="none" stroke="#bfbfbf" points="215.5,-58.5 215.5,-79.5 260.5,-79.5 260.5,-58.5 215.5,-58.5"/>
<text text-anchor="middle" x="238" y="-66.5" font-family="Helvetica,sans-Serif" font-size="10.00">cstdlib</text>
</g>
<!-- Node5&#45;&gt;Node10 -->
<g id="edge18" class="edge"><title>Node5&#45;&gt;Node10</title>
<path fill="none" stroke="midnightblue" d="M501.3,-120.532C443.799,-113.671 355.008,-101.175 270.312,-80.0176"/>
<polygon fill="midnightblue" stroke="midnightblue" points="271.094,-76.6052 260.54,-77.5327 269.369,-83.3893 271.094,-76.6052"/>
</g>
<!-- Node5&#45;&gt;Node11 -->
<g id="edge20" class="edge"><title>Node5&#45;&gt;Node11</title>
<path fill="none" stroke="midnightblue" d="M501.458,-117.722C455.942,-110.103 391.994,-98.0363 327.992,-79.9574"/>
<polygon fill="midnightblue" stroke="midnightblue" points="328.715,-76.5236 318.138,-77.1255 326.782,-83.2513 328.715,-76.5236"/>
</g>
<!-- Node12 -->
<g id="node23" class="node"><title>Node12</title>
<polygon fill="none" stroke="#bfbfbf" points="603.5,-58.5 603.5,-79.5 652.5,-79.5 652.5,-58.5 603.5,-58.5"/>
<text text-anchor="middle" x="628" y="-66.5" font-family="Helvetica,sans-Serif" font-size="10.00">random</text>
</g>
<!-- Node5&#45;&gt;Node12 -->
<g id="edge22" class="edge"><title>Node5&#45;&gt;Node12</title>
<path fill="none" stroke="midnightblue" d="M574.105,-116.362C583.688,-107.941 597.264,-96.0105 608.393,-86.2308"/>
<polygon fill="midnightblue" stroke="midnightblue" points="610.77,-88.8009 615.971,-79.5707 606.149,-83.5427 610.77,-88.8009"/>
</g>
<!-- Node13 -->
<g id="node25" class="node"><title>Node13</title>
<polygon fill="none" stroke="#bfbfbf" points="670,-58.5 670,-79.5 722,-79.5 722,-58.5 670,-58.5"/>
<text text-anchor="middle" x="696" y="-66.5" font-family="Helvetica,sans-Serif" font-size="10.00">sstream</text>
</g>
<!-- Node5&#45;&gt;Node13 -->
<g id="edge24" class="edge"><title>Node5&#45;&gt;Node13</title>
<path fill="none" stroke="midnightblue" d="M586.266,-116.497C607.478,-107.315 638.498,-93.8889 662.15,-83.6516"/>
<polygon fill="midnightblue" stroke="midnightblue" points="663.674,-86.8055 671.461,-79.6212 660.894,-80.3815 663.674,-86.8055"/>
</g>
<!-- Node5&#45;&gt;Node14 -->
<g id="edge26" class="edge"><title>Node5&#45;&gt;Node14</title>
<path fill="none" stroke="midnightblue" d="M603.989,-116.462C636.23,-108.116 682.009,-95.7165 729.887,-80.192"/>
<polygon fill="midnightblue" stroke="midnightblue" points="731.075,-83.486 739.488,-77.0457 728.895,-76.8341 731.075,-83.486"/>
</g>
<!-- Node5&#45;&gt;Node15 -->
<g id="edge28" class="edge"><title>Node5&#45;&gt;Node15</title>
<path fill="none" stroke="midnightblue" d="M622.761,-116.755C666.451,-108.855 726.868,-96.8444 787.958,-80.0384"/>
<polygon fill="midnightblue" stroke="midnightblue" points="789.075,-83.3603 797.766,-77.2999 787.193,-76.6182 789.075,-83.3603"/>
</g>
<!-- Node6&#45;&gt;Node7 -->
<g id="edge12" class="edge"><title>Node6&#45;&gt;Node7</title>
<path fill="none" stroke="midnightblue" d="M361.608,-58.4966C324.148,-48.248 267.353,-32.7099 229.019,-22.2223"/>
<polygon fill="midnightblue" stroke="midnightblue" points="229.781,-18.8021 219.212,-19.5391 227.934,-25.554 229.781,-18.8021"/>
</g>
<!-- Node16&#45;&gt;Node10 -->
<g id="edge32" class="edge"><title>Node16&#45;&gt;Node10</title>
<path fill="none" stroke="midnightblue" d="M295.978,-116.362C285.569,-107.859 270.781,-95.7785 258.745,-85.9466"/>
<polygon fill="midnightblue" stroke="midnightblue" points="260.899,-83.1866 250.94,-79.5707 256.47,-88.6077 260.899,-83.1866"/>
</g>
<!-- Node17&#45;&gt;Node18 -->
<g id="edge36" class="edge"><title>Node17&#45;&gt;Node18</title>
<path fill="none" stroke="midnightblue" d="M888.817,-116.362C888.688,-108.922 888.513,-98.7427 888.357,-89.7276"/>
<polygon fill="midnightblue" stroke="midnightblue" points="891.854,-89.5088 888.182,-79.5707 884.855,-89.6295 891.854,-89.5088"/>
</g>
<!-- Node17&#45;&gt;Node19 -->
<g id="edge38" class="edge"><title>Node17&#45;&gt;Node19</title>
<path fill="none" stroke="midnightblue" d="M901.472,-116.362C911.345,-107.941 925.333,-96.0105 936.798,-86.2308"/>
<polygon fill="midnightblue" stroke="midnightblue" points="939.27,-88.7231 944.607,-79.5707 934.727,-83.3972 939.27,-88.7231"/>
</g>
<!-- Node17&#45;&gt;Node20 -->
<g id="edge40" class="edge"><title>Node17&#45;&gt;Node20</title>
<path fill="none" stroke="midnightblue" d="M913.085,-116.497C934.139,-107.315 964.927,-93.8889 988.402,-83.6516"/>
<polygon fill="midnightblue" stroke="midnightblue" points="989.877,-86.8268 997.644,-79.6212 987.079,-80.4104 989.877,-86.8268"/>
</g>
<!-- Node29&#45;&gt;Node20 -->
<g id="edge78" class="edge"><title>Node29&#45;&gt;Node20</title>
<path fill="none" stroke="midnightblue" d="M1237.5,-246.974C1236.27,-228.006 1232.2,-196.988 1219,-174 1184.73,-114.322 1103.22,-86.9147 1056.49,-75.723"/>
<polygon fill="midnightblue" stroke="midnightblue" points="1057.05,-72.2605 1046.52,-73.455 1055.5,-79.0862 1057.05,-72.2605"/>
</g>
<!-- Node30 -->
<g id="node70" class="node"><title>Node30</title>
<polygon fill="none" stroke="#bfbfbf" points="1266,-181.5 1266,-202.5 1320,-202.5 1320,-181.5 1266,-181.5"/>
<text text-anchor="middle" x="1293" y="-189.5" font-family="Helvetica,sans-Serif" font-size="10.00">iostream</text>
</g>
<!-- Node29&#45;&gt;Node30 -->
<g id="edge80" class="edge"><title>Node29&#45;&gt;Node30</title>
<path fill="none" stroke="midnightblue" d="M1251.03,-246.937C1259.26,-236.174 1269.89,-222.255 1278.39,-211.12"/>
<polygon fill="midnightblue" stroke="midnightblue" points="1281.38,-212.972 1284.67,-202.901 1275.82,-208.723 1281.38,-212.972"/>
</g>
</g>
</svg>
