<?xml version="1.0" encoding="UTF-8" standalone="no"?>
<!DOCTYPE svg PUBLIC "-//W3C//DTD SVG 1.1//EN"
 "http://www.w3.org/Graphics/SVG/1.1/DTD/svg11.dtd">
<!-- Generated by graphviz version 2.36.0 (20140111.2315)
 -->
<!-- Title: thrill/mem/pool.cpp Pages: 1 -->
<svg width="2199pt" height="332pt"
 viewBox="0.00 0.00 2199.00 332.00" xmlns="http://www.w3.org/2000/svg" xmlns:xlink="http://www.w3.org/1999/xlink">
<g id="graph0" class="graph" transform="scale(1 1) rotate(0) translate(4 328)">
<title>thrill/mem/pool.cpp</title>
<!-- Node1 -->
<g id="node1" class="node"><title>Node1</title>
<polygon fill="#bfbfbf" stroke="black" points="1811.5,-304.5 1811.5,-323.5 1910.5,-323.5 1910.5,-304.5 1811.5,-304.5"/>
<text text-anchor="middle" x="1861" y="-311.5" font-family="Helvetica,sans-Serif" font-size="10.00">thrill/mem/pool.cpp</text>
</g>
<!-- Node2 -->
<g id="node2" class="node"><title>Node2</title>
<g id="a_node2"><a xlink:href="pool_8hpp.html" target="_top" xlink:title="thrill/mem/pool.hpp">
<polygon fill="none" stroke="black" points="1474.5,-248.5 1474.5,-267.5 1573.5,-267.5 1573.5,-248.5 1474.5,-248.5"/>
<text text-anchor="middle" x="1524" y="-255.5" font-family="Helvetica,sans-Serif" font-size="10.00">thrill/mem/pool.hpp</text>
</a>
</g>
</g>
<!-- Node1&#45;&gt;Node2 -->
<g id="edge1" class="edge"><title>Node1&#45;&gt;Node2</title>
<path fill="none" stroke="midnightblue" d="M1811.27,-305.032C1750.71,-295.327 1648.48,-278.947 1583.72,-268.569"/>
<polygon fill="midnightblue" stroke="midnightblue" points="1584.08,-265.083 1573.65,-266.957 1582.97,-271.995 1584.08,-265.083"/>
</g>
<!-- Node19 -->
<g id="node19" class="node"><title>Node19</title>
<polygon fill="none" stroke="#bfbfbf" points="800,-68.5 800,-87.5 840,-87.5 840,-68.5 800,-68.5"/>
<text text-anchor="middle" x="820" y="-75.5" font-family="Helvetica,sans-Serif" font-size="10.00">limits</text>
</g>
<!-- Node1&#45;&gt;Node19 -->
<g id="edge58" class="edge"><title>Node1&#45;&gt;Node19</title>
<path fill="none" stroke="midnightblue" d="M1811.24,-312.853C1654.54,-311.994 1172.76,-306.23 1022,-268 965.73,-253.731 947.44,-250.508 904,-212 866.489,-178.748 839.586,-124.806 827.362,-96.9376"/>
<polygon fill="midnightblue" stroke="midnightblue" points="830.539,-95.4639 823.405,-87.631 824.097,-98.2032 830.539,-95.4639"/>
</g>
<!-- Node35 -->
<g id="node35" class="node"><title>Node35</title>
<polygon fill="none" stroke="#bfbfbf" points="1843.5,-124.5 1843.5,-143.5 1878.5,-143.5 1878.5,-124.5 1843.5,-124.5"/>
<text text-anchor="middle" x="1861" y="-131.5" font-family="Helvetica,sans-Serif" font-size="10.00">new</text>
</g>
<!-- Node1&#45;&gt;Node35 -->
<g id="edge59" class="edge"><title>Node1&#45;&gt;Node35</title>
<path fill="none" stroke="midnightblue" d="M1861,-304.415C1861,-277.227 1861,-192.563 1861,-154.217"/>
<polygon fill="midnightblue" stroke="midnightblue" points="1864.5,-153.918 1861,-143.918 1857.5,-153.919 1864.5,-153.918"/>
</g>
<!-- Node39 -->
<g id="node39" class="node"><title>Node39</title>
<g id="a_node39"><a xlink:href="die_8hpp.html" target="_top" xlink:title="tlx/die.hpp">
<polygon fill="none" stroke="black" points="920,-124.5 920,-143.5 982,-143.5 982,-124.5 920,-124.5"/>
<text text-anchor="middle" x="951" y="-131.5" font-family="Helvetica,sans-Serif" font-size="10.00">tlx/die.hpp</text>
</a>
</g>
</g>
<!-- Node1&#45;&gt;Node39 -->
<g id="edge50" class="edge"><title>Node1&#45;&gt;Node39</title>
<path fill="none" stroke="midnightblue" d="M1811.48,-311.51C1625.28,-305.404 974.556,-279.358 914,-212 897.81,-193.991 917.324,-167.63 933.584,-150.898"/>
<polygon fill="midnightblue" stroke="midnightblue" points="936.417,-153.024 941.134,-143.536 931.53,-148.012 936.417,-153.024"/>
</g>
<!-- Node42 -->
<g id="node42" class="node"><title>Node42</title>
<g id="a_node42"><a xlink:href="ffs_8hpp.html" target="_top" xlink:title="tlx/math/ffs.hpp">
<polygon fill="none" stroke="black" points="1889.5,-248.5 1889.5,-267.5 1974.5,-267.5 1974.5,-248.5 1889.5,-248.5"/>
<text text-anchor="middle" x="1932" y="-255.5" font-family="Helvetica,sans-Serif" font-size="10.00">tlx/math/ffs.hpp</text>
</a>
</g>
</g>
<!-- Node1&#45;&gt;Node42 -->
<g id="edge55" class="edge"><title>Node1&#45;&gt;Node42</title>
<path fill="none" stroke="midnightblue" d="M1872.41,-304.324C1883.11,-296.185 1899.34,-283.839 1912.16,-274.087"/>
<polygon fill="midnightblue" stroke="midnightblue" points="1914.54,-276.673 1920.39,-267.834 1910.31,-271.102 1914.54,-276.673"/>
</g>
<!-- Node43 -->
<g id="node43" class="node"><title>Node43</title>
<g id="a_node43"><a xlink:href="integer__log2_8hpp.html" target="_top" xlink:title="tlx/math/integer_log2.hpp">
<polygon fill="none" stroke="black" points="1993,-248.5 1993,-267.5 2119,-267.5 2119,-248.5 1993,-248.5"/>
<text text-anchor="middle" x="2056" y="-255.5" font-family="Helvetica,sans-Serif" font-size="10.00">tlx/math/integer_log2.hpp</text>
</a>
</g>
</g>
<!-- Node1&#45;&gt;Node43 -->
<g id="edge56" class="edge"><title>Node1&#45;&gt;Node43</title>
<path fill="none" stroke="midnightblue" d="M1891.9,-304.444C1925.27,-295.201 1978.59,-280.436 2015.35,-270.257"/>
<polygon fill="midnightblue" stroke="midnightblue" points="2016.54,-273.558 2025.25,-267.516 2014.67,-266.812 2016.54,-273.558"/>
</g>
<!-- Node44 -->
<g id="node44" class="node"><title>Node44</title>
<polygon fill="none" stroke="#bfbfbf" points="2137,-248.5 2137,-267.5 2191,-267.5 2191,-248.5 2137,-248.5"/>
<text text-anchor="middle" x="2164" y="-255.5" font-family="Helvetica,sans-Serif" font-size="10.00">iostream</text>
</g>
<!-- Node1&#45;&gt;Node44 -->
<g id="edge57" class="edge"><title>Node1&#45;&gt;Node44</title>
<path fill="none" stroke="midnightblue" d="M1910.92,-305.777C1962.62,-298.03 2045.94,-284.803 2127.05,-268.067"/>
<polygon fill="midnightblue" stroke="midnightblue" points="2127.85,-271.475 2136.93,-266.009 2126.42,-264.623 2127.85,-271.475"/>
</g>
<!-- Node3 -->
<g id="node3" class="node"><title>Node3</title>
<g id="a_node3"><a xlink:href="config_8hpp.html" target="_top" xlink:title="thrill/common/config.hpp">
<polygon fill="none" stroke="black" points="923.5,-186.5 923.5,-205.5 1046.5,-205.5 1046.5,-186.5 923.5,-186.5"/>
<text text-anchor="middle" x="985" y="-193.5" font-family="Helvetica,sans-Serif" font-size="10.00">thrill/common/config.hpp</text>
</a>
</g>
</g>
<!-- Node2&#45;&gt;Node3 -->
<g id="edge2" class="edge"><title>Node2&#45;&gt;Node3</title>
<path fill="none" stroke="midnightblue" d="M1474.47,-253.786C1389.55,-247.919 1210.82,-234.011 1061,-212 1052.3,-210.722 1043.08,-209.118 1034.19,-207.438"/>
<polygon fill="midnightblue" stroke="midnightblue" points="1034.8,-203.992 1024.32,-205.522 1033.47,-210.864 1034.8,-203.992"/>
</g>
<!-- Node4 -->
<g id="node4" class="node"><title>Node4</title>
<g id="a_node4"><a xlink:href="thrill_2mem_2allocator__base_8hpp.html" target="_top" xlink:title="thrill/mem/allocator\l_base.hpp">
<polygon fill="none" stroke="black" points="1319.5,-181 1319.5,-211 1418.5,-211 1418.5,-181 1319.5,-181"/>
<text text-anchor="start" x="1327.5" y="-199" font-family="Helvetica,sans-Serif" font-size="10.00">thrill/mem/allocator</text>
<text text-anchor="middle" x="1369" y="-188" font-family="Helvetica,sans-Serif" font-size="10.00">_base.hpp</text>
</a>
</g>
</g>
<!-- Node2&#45;&gt;Node4 -->
<g id="edge3" class="edge"><title>Node2&#45;&gt;Node4</title>
<path fill="none" stroke="midnightblue" d="M1501.79,-248.403C1479.15,-239.641 1443.38,-225.794 1414.67,-214.679"/>
<polygon fill="midnightblue" stroke="midnightblue" points="1415.82,-211.371 1405.23,-211.025 1413.29,-217.899 1415.82,-211.371"/>
</g>
<!-- Node22 -->
<g id="node22" class="node"><title>Node22</title>
<polygon fill="none" stroke="#bfbfbf" points="1069.5,-68.5 1069.5,-87.5 1110.5,-87.5 1110.5,-68.5 1069.5,-68.5"/>
<text text-anchor="middle" x="1090" y="-75.5" font-family="Helvetica,sans-Serif" font-size="10.00">string</text>
</g>
<!-- Node2&#45;&gt;Node22 -->
<g id="edge46" class="edge"><title>Node2&#45;&gt;Node22</title>
<path fill="none" stroke="midnightblue" d="M1474.28,-254.48C1395.45,-249.762 1246,-237.662 1200,-212 1151.08,-184.706 1114.94,-126.344 1099.01,-96.8483"/>
<polygon fill="midnightblue" stroke="midnightblue" points="1101.97,-94.9532 1094.23,-87.7175 1095.77,-98.2002 1101.97,-94.9532"/>
</g>
<!-- Node23 -->
<g id="node23" class="node"><title>Node23</title>
<polygon fill="none" stroke="#bfbfbf" points="1129,-68.5 1129,-87.5 1173,-87.5 1173,-68.5 1129,-68.5"/>
<text text-anchor="middle" x="1151" y="-75.5" font-family="Helvetica,sans-Serif" font-size="10.00">vector</text>
</g>
<!-- Node2&#45;&gt;Node23 -->
<g id="edge49" class="edge"><title>Node2&#45;&gt;Node23</title>
<path fill="none" stroke="midnightblue" d="M1474.24,-253.575C1403.23,-247.953 1277.08,-235.026 1238,-212 1193.75,-185.93 1167.85,-127.456 1157.01,-97.4831"/>
<polygon fill="midnightblue" stroke="midnightblue" points="1160.26,-96.1595 1153.7,-87.8429 1153.64,-98.4376 1160.26,-96.1595"/>
</g>
<!-- Node26 -->
<g id="node26" class="node"><title>Node26</title>
<polygon fill="none" stroke="#bfbfbf" points="1218,-68.5 1218,-87.5 1274,-87.5 1274,-68.5 1218,-68.5"/>
<text text-anchor="middle" x="1246" y="-75.5" font-family="Helvetica,sans-Serif" font-size="10.00">algorithm</text>
</g>
<!-- Node2&#45;&gt;Node26 -->
<g id="edge41" class="edge"><title>Node2&#45;&gt;Node26</title>
<path fill="none" stroke="midnightblue" d="M1474.26,-252.29C1429.75,-246.752 1363.46,-235.194 1310,-212 1261.7,-191.045 1237.3,-190.707 1213,-144 1204.39,-127.45 1216.64,-108.408 1228.58,-95.2316"/>
<polygon fill="midnightblue" stroke="midnightblue" points="1231.29,-97.4578 1235.78,-87.8598 1226.29,-92.565 1231.29,-97.4578"/>
</g>
<!-- Node30 -->
<g id="node30" class="node"><title>Node30</title>
<polygon fill="none" stroke="#bfbfbf" points="1453.5,-68.5 1453.5,-87.5 1502.5,-87.5 1502.5,-68.5 1453.5,-68.5"/>
<text text-anchor="middle" x="1478" y="-75.5" font-family="Helvetica,sans-Serif" font-size="10.00">cstddef</text>
</g>
<!-- Node2&#45;&gt;Node30 -->
<g id="edge42" class="edge"><title>Node2&#45;&gt;Node30</title>
<path fill="none" stroke="midnightblue" d="M1517.5,-248.23C1504.43,-229.986 1475.34,-186.128 1465,-144 1461.19,-128.457 1465.35,-110.62 1469.95,-97.5681"/>
<polygon fill="midnightblue" stroke="midnightblue" points="1473.36,-98.4723 1473.76,-87.8849 1466.84,-95.914 1473.36,-98.4723"/>
</g>
<!-- Node31 -->
<g id="node31" class="node"><title>Node31</title>
<polygon fill="none" stroke="#bfbfbf" points="1541,-68.5 1541,-87.5 1593,-87.5 1593,-68.5 1541,-68.5"/>
<text text-anchor="middle" x="1567" y="-75.5" font-family="Helvetica,sans-Serif" font-size="10.00">memory</text>
</g>
<!-- Node2&#45;&gt;Node31 -->
<g id="edge44" class="edge"><title>Node2&#45;&gt;Node31</title>
<path fill="none" stroke="midnightblue" d="M1531.69,-248.457C1547.16,-230.631 1581.62,-187.503 1594,-144 1598.79,-127.166 1589.77,-108.821 1580.89,-95.9263"/>
<polygon fill="midnightblue" stroke="midnightblue" points="1583.45,-93.503 1574.65,-87.5994 1577.85,-97.7007 1583.45,-93.503"/>
</g>
<!-- Node32 -->
<g id="node32" class="node"><title>Node32</title>
<polygon fill="none" stroke="#bfbfbf" points="1621,-68.5 1621,-87.5 1683,-87.5 1683,-68.5 1621,-68.5"/>
<text text-anchor="middle" x="1652" y="-75.5" font-family="Helvetica,sans-Serif" font-size="10.00">type_traits</text>
</g>
<!-- Node2&#45;&gt;Node32 -->
<g id="edge47" class="edge"><title>Node2&#45;&gt;Node32</title>
<path fill="none" stroke="midnightblue" d="M1536.36,-248.39C1559.33,-232.739 1610.59,-199.449 1658,-180 1716.25,-156.108 1756.55,-193.854 1795,-144 1824.43,-105.837 1745.09,-89.3885 1693.12,-82.8605"/>
<polygon fill="midnightblue" stroke="midnightblue" points="1693.47,-79.378 1683.13,-81.6837 1692.65,-86.3299 1693.47,-79.378"/>
</g>
<!-- Node36 -->
<g id="node36" class="node"><title>Node36</title>
<polygon fill="none" stroke="#bfbfbf" points="1667,-186.5 1667,-205.5 1713,-205.5 1713,-186.5 1667,-186.5"/>
<text text-anchor="middle" x="1690" y="-193.5" font-family="Helvetica,sans-Serif" font-size="10.00">cstdint</text>
</g>
<!-- Node2&#45;&gt;Node36 -->
<g id="edge43" class="edge"><title>Node2&#45;&gt;Node36</title>
<path fill="none" stroke="midnightblue" d="M1549.83,-248.408C1575.97,-239.616 1617.49,-225.383 1653,-212 1655.24,-211.154 1657.56,-210.263 1659.88,-209.355"/>
<polygon fill="midnightblue" stroke="midnightblue" points="1661.33,-212.543 1669.33,-205.591 1658.74,-206.04 1661.33,-212.543"/>
</g>
<!-- Node37 -->
<g id="node37" class="node"><title>Node37</title>
<polygon fill="none" stroke="#bfbfbf" points="1731,-186.5 1731,-205.5 1775,-205.5 1775,-186.5 1731,-186.5"/>
<text text-anchor="middle" x="1753" y="-193.5" font-family="Helvetica,sans-Serif" font-size="10.00">mutex</text>
</g>
<!-- Node2&#45;&gt;Node37 -->
<g id="edge45" class="edge"><title>Node2&#45;&gt;Node37</title>
<path fill="none" stroke="midnightblue" d="M1573.7,-248.943C1614.28,-241.599 1672.76,-229.255 1722,-212 1723.86,-211.347 1725.76,-210.614 1727.65,-209.831"/>
<polygon fill="midnightblue" stroke="midnightblue" points="1729.22,-212.964 1736.89,-205.653 1726.33,-206.586 1729.22,-212.964"/>
</g>
<!-- Node38 -->
<g id="node38" class="node"><title>Node38</title>
<polygon fill="none" stroke="#bfbfbf" points="1793,-186.5 1793,-205.5 1833,-205.5 1833,-186.5 1793,-186.5"/>
<text text-anchor="middle" x="1813" y="-193.5" font-family="Helvetica,sans-Serif" font-size="10.00">utility</text>
</g>
<!-- Node2&#45;&gt;Node38 -->
<g id="edge48" class="edge"><title>Node2&#45;&gt;Node38</title>
<path fill="none" stroke="midnightblue" d="M1573.73,-252.703C1626.66,-247.135 1712.33,-235.248 1783,-212 1784.91,-211.372 1786.85,-210.641 1788.77,-209.846"/>
<polygon fill="midnightblue" stroke="midnightblue" points="1790.5,-212.902 1798.1,-205.519 1787.56,-206.551 1790.5,-212.902"/>
</g>
<!-- Node5 -->
<g id="node5" class="node"><title>Node5</title>
<g id="a_node5"><a xlink:href="thrill_2common_2string_8hpp.html" target="_top" xlink:title="thrill/common/string.hpp">
<polygon fill="none" stroke="black" points="696.5,-124.5 696.5,-143.5 817.5,-143.5 817.5,-124.5 696.5,-124.5"/>
<text text-anchor="middle" x="757" y="-131.5" font-family="Helvetica,sans-Serif" font-size="10.00">thrill/common/string.hpp</text>
</a>
</g>
</g>
<!-- Node4&#45;&gt;Node5 -->
<g id="edge4" class="edge"><title>Node4&#45;&gt;Node5</title>
<path fill="none" stroke="midnightblue" d="M1319.44,-190.141C1211.21,-179.531 953.448,-154.26 828.007,-141.961"/>
<polygon fill="midnightblue" stroke="midnightblue" points="828.042,-138.448 817.748,-140.956 827.359,-145.415 828.042,-138.448"/>
</g>
<!-- Node4&#45;&gt;Node22 -->
<g id="edge38" class="edge"><title>Node4&#45;&gt;Node22</title>
<path fill="none" stroke="midnightblue" d="M1319.41,-185.896C1281.46,-177.841 1228.43,-164.195 1185,-144 1156.19,-130.605 1126.52,-108.778 1108.18,-94.1585"/>
<polygon fill="midnightblue" stroke="midnightblue" points="1110.1,-91.2138 1100.13,-87.6291 1105.69,-96.6488 1110.1,-91.2138"/>
</g>
<!-- Node4&#45;&gt;Node23 -->
<g id="edge40" class="edge"><title>Node4&#45;&gt;Node23</title>
<path fill="none" stroke="midnightblue" d="M1319.2,-185.339C1287.14,-177.575 1245.54,-164.514 1213,-144 1192.9,-131.327 1174.76,-110.712 1163.37,-96.0995"/>
<polygon fill="midnightblue" stroke="midnightblue" points="1166.01,-93.7817 1157.19,-87.9012 1160.42,-97.9941 1166.01,-93.7817"/>
</g>
<!-- Node24 -->
<g id="node24" class="node"><title>Node24</title>
<g id="a_node24"><a xlink:href="malloc__tracker_8hpp.html" target="_top" xlink:title="thrill/mem/malloc_tracker.hpp">
<polygon fill="none" stroke="black" points="418.5,-124.5 418.5,-143.5 563.5,-143.5 563.5,-124.5 418.5,-124.5"/>
<text text-anchor="middle" x="491" y="-131.5" font-family="Helvetica,sans-Serif" font-size="10.00">thrill/mem/malloc_tracker.hpp</text>
</a>
</g>
</g>
<!-- Node4&#45;&gt;Node24 -->
<g id="edge23" class="edge"><title>Node4&#45;&gt;Node24</title>
<path fill="none" stroke="midnightblue" d="M1319.28,-191.602C1174.71,-181.723 753.4,-152.932 573.733,-140.654"/>
<polygon fill="midnightblue" stroke="midnightblue" points="573.762,-137.148 563.546,-139.958 573.284,-144.131 573.762,-137.148"/>
</g>
<!-- Node25 -->
<g id="node25" class="node"><title>Node25</title>
<g id="a_node25"><a xlink:href="mem_2manager_8hpp.html" target="_top" xlink:title="thrill/mem/manager.hpp">
<polygon fill="none" stroke="black" points="1222.5,-124.5 1222.5,-143.5 1341.5,-143.5 1341.5,-124.5 1222.5,-124.5"/>
<text text-anchor="middle" x="1282" y="-131.5" font-family="Helvetica,sans-Serif" font-size="10.00">thrill/mem/manager.hpp</text>
</a>
</g>
</g>
<!-- Node4&#45;&gt;Node25 -->
<g id="edge25" class="edge"><title>Node4&#45;&gt;Node25</title>
<path fill="none" stroke="midnightblue" d="M1348.38,-180.781C1334.61,-171.286 1316.57,-158.843 1302.77,-149.327"/>
<polygon fill="midnightblue" stroke="midnightblue" points="1304.62,-146.352 1294.41,-143.556 1300.65,-152.114 1304.62,-146.352"/>
</g>
<!-- Node27 -->
<g id="node27" class="node"><title>Node27</title>
<polygon fill="none" stroke="#bfbfbf" points="1305,-68.5 1305,-87.5 1351,-87.5 1351,-68.5 1305,-68.5"/>
<text text-anchor="middle" x="1328" y="-75.5" font-family="Helvetica,sans-Serif" font-size="10.00">atomic</text>
</g>
<!-- Node4&#45;&gt;Node27 -->
<g id="edge33" class="edge"><title>Node4&#45;&gt;Node27</title>
<path fill="none" stroke="midnightblue" d="M1366.07,-180.873C1362.86,-166.362 1357.2,-143.241 1350,-124 1346.53,-114.736 1341.8,-104.82 1337.62,-96.6603"/>
<polygon fill="midnightblue" stroke="midnightblue" points="1340.67,-94.9463 1332.9,-87.7407 1334.48,-98.2173 1340.67,-94.9463"/>
</g>
<!-- Node28 -->
<g id="node28" class="node"><title>Node28</title>
<polygon fill="none" stroke="#bfbfbf" points="1376.5,-68.5 1376.5,-87.5 1425.5,-87.5 1425.5,-68.5 1376.5,-68.5"/>
<text text-anchor="middle" x="1401" y="-75.5" font-family="Helvetica,sans-Serif" font-size="10.00">cassert</text>
</g>
<!-- Node4&#45;&gt;Node28 -->
<g id="edge34" class="edge"><title>Node4&#45;&gt;Node28</title>
<path fill="none" stroke="midnightblue" d="M1373.32,-180.744C1376.38,-170.535 1380.54,-156.45 1384,-144 1388.3,-128.527 1392.89,-110.898 1396.22,-97.9063"/>
<polygon fill="midnightblue" stroke="midnightblue" points="1399.7,-98.4085 1398.77,-87.8541 1392.92,-96.6818 1399.7,-98.4085"/>
</g>
<!-- Node29 -->
<g id="node29" class="node"><title>Node29</title>
<g id="a_node29"><a xlink:href="extlib_2tlx_2tlx_2allocator__base_8hpp.html" target="_top" xlink:title="tlx/allocator_base.hpp">
<polygon fill="none" stroke="black" points="1474,-124.5 1474,-143.5 1586,-143.5 1586,-124.5 1474,-124.5"/>
<text text-anchor="middle" x="1530" y="-131.5" font-family="Helvetica,sans-Serif" font-size="10.00">tlx/allocator_base.hpp</text>
</a>
</g>
</g>
<!-- Node4&#45;&gt;Node29 -->
<g id="edge29" class="edge"><title>Node4&#45;&gt;Node29</title>
<path fill="none" stroke="midnightblue" d="M1406.75,-180.933C1434.27,-170.674 1471.2,-156.915 1497.43,-147.137"/>
<polygon fill="midnightblue" stroke="midnightblue" points="1498.78,-150.372 1506.92,-143.6 1496.33,-143.813 1498.78,-150.372"/>
</g>
<!-- Node4&#45;&gt;Node32 -->
<g id="edge39" class="edge"><title>Node4&#45;&gt;Node32</title>
<path fill="none" stroke="midnightblue" d="M1418.7,-192.427C1466.55,-188.029 1539.48,-176.133 1594,-144 1614.07,-132.171 1630.99,-111.045 1641.28,-96.0925"/>
<polygon fill="midnightblue" stroke="midnightblue" points="1644.22,-97.9935 1646.8,-87.7182 1638.37,-94.1406 1644.22,-97.9935"/>
</g>
<!-- Node33 -->
<g id="node33" class="node"><title>Node33</title>
<polygon fill="none" stroke="#bfbfbf" points="1680.5,-124.5 1680.5,-143.5 1723.5,-143.5 1723.5,-124.5 1680.5,-124.5"/>
<text text-anchor="middle" x="1702" y="-131.5" font-family="Helvetica,sans-Serif" font-size="10.00">deque</text>
</g>
<!-- Node4&#45;&gt;Node33 -->
<g id="edge35" class="edge"><title>Node4&#45;&gt;Node33</title>
<path fill="none" stroke="midnightblue" d="M1418.61,-187.645C1477.76,-178.608 1579.48,-162.217 1666,-144 1667.46,-143.693 1668.95,-143.368 1670.45,-143.031"/>
<polygon fill="midnightblue" stroke="midnightblue" points="1671.43,-146.395 1680.36,-140.689 1669.82,-139.582 1671.43,-146.395"/>
</g>
<!-- Node34 -->
<g id="node34" class="node"><title>Node34</title>
<polygon fill="none" stroke="#bfbfbf" points="1741.5,-124.5 1741.5,-143.5 1786.5,-143.5 1786.5,-124.5 1741.5,-124.5"/>
<text text-anchor="middle" x="1764" y="-131.5" font-family="Helvetica,sans-Serif" font-size="10.00">iosfwd</text>
</g>
<!-- Node4&#45;&gt;Node34 -->
<g id="edge36" class="edge"><title>Node4&#45;&gt;Node34</title>
<path fill="none" stroke="midnightblue" d="M1418.69,-190.162C1487.03,-183.036 1613.95,-168.113 1731.48,-143.841"/>
<polygon fill="midnightblue" stroke="midnightblue" points="1732.3,-147.246 1741.37,-141.772 1730.86,-140.395 1732.3,-147.246"/>
</g>
<!-- Node4&#45;&gt;Node35 -->
<g id="edge37" class="edge"><title>Node4&#45;&gt;Node35</title>
<path fill="none" stroke="midnightblue" d="M1418.55,-189.334C1498.02,-180.188 1658.87,-161.429 1795,-144 1807.56,-142.392 1821.45,-140.513 1833.23,-138.89"/>
<polygon fill="midnightblue" stroke="midnightblue" points="1833.94,-142.325 1843.36,-137.485 1832.98,-135.391 1833.94,-142.325"/>
</g>
<!-- Node6 -->
<g id="node6" class="node"><title>Node6</title>
<g id="a_node6"><a xlink:href="define_8hpp.html" target="_top" xlink:title="tlx/define.hpp">
<polygon fill="none" stroke="black" points="417.5,-68.5 417.5,-87.5 492.5,-87.5 492.5,-68.5 417.5,-68.5"/>
<text text-anchor="middle" x="455" y="-75.5" font-family="Helvetica,sans-Serif" font-size="10.00">tlx/define.hpp</text>
</a>
</g>
</g>
<!-- Node5&#45;&gt;Node6 -->
<g id="edge5" class="edge"><title>Node5&#45;&gt;Node6</title>
<path fill="none" stroke="midnightblue" d="M707.122,-124.419C657.799,-115.883 579.899,-102.269 502.612,-88.0912"/>
<polygon fill="midnightblue" stroke="midnightblue" points="503.169,-84.635 492.701,-86.2692 501.903,-91.5197 503.169,-84.635"/>
</g>
<!-- Node15 -->
<g id="node15" class="node"><title>Node15</title>
<g id="a_node15"><a xlink:href="unused_8hpp.html" target="_top" xlink:title="tlx/unused.hpp">
<polygon fill="none" stroke="black" points="511,-68.5 511,-87.5 591,-87.5 591,-68.5 511,-68.5"/>
<text text-anchor="middle" x="551" y="-75.5" font-family="Helvetica,sans-Serif" font-size="10.00">tlx/unused.hpp</text>
</a>
</g>
</g>
<!-- Node5&#45;&gt;Node15 -->
<g id="edge14" class="edge"><title>Node5&#45;&gt;Node15</title>
<path fill="none" stroke="midnightblue" d="M724.359,-124.444C688.95,-115.162 632.291,-100.309 593.447,-90.127"/>
<polygon fill="midnightblue" stroke="midnightblue" points="594.049,-86.6666 583.489,-87.5164 592.274,-93.4378 594.049,-86.6666"/>
</g>
<!-- Node16 -->
<g id="node16" class="node"><title>Node16</title>
<polygon fill="none" stroke="#bfbfbf" points="609,-68.5 609,-87.5 647,-87.5 647,-68.5 609,-68.5"/>
<text text-anchor="middle" x="628" y="-75.5" font-family="Helvetica,sans-Serif" font-size="10.00">array</text>
</g>
<!-- Node5&#45;&gt;Node16 -->
<g id="edge15" class="edge"><title>Node5&#45;&gt;Node16</title>
<path fill="none" stroke="midnightblue" d="M736.56,-124.444C714.955,-115.4 680.717,-101.068 656.475,-90.9198"/>
<polygon fill="midnightblue" stroke="midnightblue" points="657.659,-87.6212 647.083,-86.9883 654.956,-94.0783 657.659,-87.6212"/>
</g>
<!-- Node17 -->
<g id="node17" class="node"><title>Node17</title>
<polygon fill="none" stroke="#bfbfbf" points="665.5,-68.5 665.5,-87.5 714.5,-87.5 714.5,-68.5 665.5,-68.5"/>
<text text-anchor="middle" x="690" y="-75.5" font-family="Helvetica,sans-Serif" font-size="10.00">cstdarg</text>
</g>
<!-- Node5&#45;&gt;Node17 -->
<g id="edge16" class="edge"><title>Node5&#45;&gt;Node17</title>
<path fill="none" stroke="midnightblue" d="M746.235,-124.324C736.234,-116.263 721.113,-104.077 709.07,-94.3695"/>
<polygon fill="midnightblue" stroke="midnightblue" points="710.943,-91.3841 700.961,-87.8339 706.55,-96.8343 710.943,-91.3841"/>
</g>
<!-- Node18 -->
<g id="node18" class="node"><title>Node18</title>
<polygon fill="none" stroke="#bfbfbf" points="354.5,-68.5 354.5,-87.5 399.5,-87.5 399.5,-68.5 354.5,-68.5"/>
<text text-anchor="middle" x="377" y="-75.5" font-family="Helvetica,sans-Serif" font-size="10.00">cstdlib</text>
</g>
<!-- Node5&#45;&gt;Node18 -->
<g id="edge17" class="edge"><title>Node5&#45;&gt;Node18</title>
<path fill="none" stroke="midnightblue" d="M696.314,-128.038C628.437,-121.849 515.146,-109.609 409.46,-88.0413"/>
<polygon fill="midnightblue" stroke="midnightblue" points="410.088,-84.5972 399.585,-85.994 408.667,-91.4514 410.088,-84.5972"/>
</g>
<!-- Node5&#45;&gt;Node19 -->
<g id="edge18" class="edge"><title>Node5&#45;&gt;Node19</title>
<path fill="none" stroke="midnightblue" d="M767.122,-124.324C776.526,-116.263 790.744,-104.077 802.069,-94.3695"/>
<polygon fill="midnightblue" stroke="midnightblue" points="804.379,-96.9993 809.694,-87.8339 799.823,-91.6844 804.379,-96.9993"/>
</g>
<!-- Node20 -->
<g id="node20" class="node"><title>Node20</title>
<polygon fill="none" stroke="#bfbfbf" points="732.5,-68.5 732.5,-87.5 781.5,-87.5 781.5,-68.5 732.5,-68.5"/>
<text text-anchor="middle" x="757" y="-75.5" font-family="Helvetica,sans-Serif" font-size="10.00">random</text>
</g>
<!-- Node5&#45;&gt;Node20 -->
<g id="edge19" class="edge"><title>Node5&#45;&gt;Node20</title>
<path fill="none" stroke="midnightblue" d="M757,-124.083C757,-117.006 757,-106.861 757,-97.9865"/>
<polygon fill="midnightblue" stroke="midnightblue" points="760.5,-97.751 757,-87.7511 753.5,-97.7511 760.5,-97.751"/>
</g>
<!-- Node21 -->
<g id="node21" class="node"><title>Node21</title>
<polygon fill="none" stroke="#bfbfbf" points="858,-68.5 858,-87.5 910,-87.5 910,-68.5 858,-68.5"/>
<text text-anchor="middle" x="884" y="-75.5" font-family="Helvetica,sans-Serif" font-size="10.00">sstream</text>
</g>
<!-- Node5&#45;&gt;Node21 -->
<g id="edge20" class="edge"><title>Node5&#45;&gt;Node21</title>
<path fill="none" stroke="midnightblue" d="M777.124,-124.444C798.024,-115.557 830.935,-101.563 854.716,-91.4514"/>
<polygon fill="midnightblue" stroke="midnightblue" points="856.138,-94.6504 863.971,-87.5164 853.398,-88.2085 856.138,-94.6504"/>
</g>
<!-- Node5&#45;&gt;Node22 -->
<g id="edge21" class="edge"><title>Node5&#45;&gt;Node22</title>
<path fill="none" stroke="midnightblue" d="M817.547,-126.609C876.887,-119.761 969.991,-107.456 1059.66,-87.7724"/>
<polygon fill="midnightblue" stroke="midnightblue" points="1060.45,-91.1829 1069.45,-85.5913 1058.92,-84.3506 1060.45,-91.1829"/>
</g>
<!-- Node5&#45;&gt;Node23 -->
<g id="edge22" class="edge"><title>Node5&#45;&gt;Node23</title>
<path fill="none" stroke="midnightblue" d="M817.657,-128.269C887.809,-122.171 1006.85,-109.897 1118.63,-87.7586"/>
<polygon fill="midnightblue" stroke="midnightblue" points="1119.61,-91.1305 1128.72,-85.727 1118.23,-84.2679 1119.61,-91.1305"/>
</g>
<!-- Node7 -->
<g id="node7" class="node"><title>Node7</title>
<g id="a_node7"><a xlink:href="attribute__always__inline_8hpp.html" target="_top" xlink:title="tlx/define/attribute\l_always_inline.hpp">
<polygon fill="none" stroke="black" points="-0.5,-1 -0.5,-31 98.5,-31 98.5,-1 -0.5,-1"/>
<text text-anchor="start" x="7.5" y="-19" font-family="Helvetica,sans-Serif" font-size="10.00">tlx/define/attribute</text>
<text text-anchor="middle" x="49" y="-8" font-family="Helvetica,sans-Serif" font-size="10.00">_always_inline.hpp</text>
</a>
</g>
</g>
<!-- Node6&#45;&gt;Node7 -->
<g id="edge6" class="edge"><title>Node6&#45;&gt;Node7</title>
<path fill="none" stroke="midnightblue" d="M417.33,-69.5457C414.179,-68.9954 411.038,-68.4719 408,-68 278.116,-47.8226 241.196,-56.4722 108.705,-32.1746"/>
<polygon fill="midnightblue" stroke="midnightblue" points="109.048,-28.6783 98.5757,-30.2876 107.766,-35.5599 109.048,-28.6783"/>
</g>
<!-- Node8 -->
<g id="node8" class="node"><title>Node8</title>
<g id="a_node8"><a xlink:href="attribute__fallthrough_8hpp.html" target="_top" xlink:title="tlx/define/attribute\l_fallthrough.hpp">
<polygon fill="none" stroke="black" points="116.5,-1 116.5,-31 211.5,-31 211.5,-1 116.5,-1"/>
<text text-anchor="start" x="124.5" y="-19" font-family="Helvetica,sans-Serif" font-size="10.00">tlx/define/attribute</text>
<text text-anchor="middle" x="164" y="-8" font-family="Helvetica,sans-Serif" font-size="10.00">_fallthrough.hpp</text>
</a>
</g>
</g>
<!-- Node6&#45;&gt;Node8 -->
<g id="edge7" class="edge"><title>Node6&#45;&gt;Node8</title>
<path fill="none" stroke="midnightblue" d="M417.36,-69.7968C360.177,-58.8531 255.091,-38.7394 221.632,-32.0694"/>
<polygon fill="midnightblue" stroke="midnightblue" points="222.101,-28.5924 211.6,-30.0017 220.688,-35.4483 222.101,-28.5924"/>
</g>
<!-- Node9 -->
<g id="node9" class="node"><title>Node9</title>
<g id="a_node9"><a xlink:href="attribute__format__printf_8hpp.html" target="_top" xlink:title="tlx/define/attribute\l_format_printf.hpp">
<polygon fill="none" stroke="black" points="229.5,-1 229.5,-31 324.5,-31 324.5,-1 229.5,-1"/>
<text text-anchor="start" x="237.5" y="-19" font-family="Helvetica,sans-Serif" font-size="10.00">tlx/define/attribute</text>
<text text-anchor="middle" x="277" y="-8" font-family="Helvetica,sans-Serif" font-size="10.00">_format_printf.hpp</text>
</a>
</g>
</g>
<!-- Node6&#45;&gt;Node9 -->
<g id="edge8" class="edge"><title>Node6&#45;&gt;Node9</title>
<path fill="none" stroke="midnightblue" d="M429.497,-68.4035C403.161,-59.5263 361.348,-45.4321 328.161,-34.2453"/>
<polygon fill="midnightblue" stroke="midnightblue" points="329.203,-30.9029 318.608,-31.0253 326.967,-37.5362 329.203,-30.9029"/>
</g>
<!-- Node10 -->
<g id="node10" class="node"><title>Node10</title>
<g id="a_node10"><a xlink:href="attribute__packed_8hpp.html" target="_top" xlink:title="tlx/define/attribute\l_packed.hpp">
<polygon fill="none" stroke="black" points="342.5,-1 342.5,-31 437.5,-31 437.5,-1 342.5,-1"/>
<text text-anchor="start" x="350.5" y="-19" font-family="Helvetica,sans-Serif" font-size="10.00">tlx/define/attribute</text>
<text text-anchor="middle" x="390" y="-8" font-family="Helvetica,sans-Serif" font-size="10.00">_packed.hpp</text>
</a>
</g>
</g>
<!-- Node6&#45;&gt;Node10 -->
<g id="edge9" class="edge"><title>Node6&#45;&gt;Node10</title>
<path fill="none" stroke="midnightblue" d="M445.687,-68.4035C437.131,-60.5051 424.1,-48.4768 412.794,-38.0409"/>
<polygon fill="midnightblue" stroke="midnightblue" points="415.041,-35.3518 405.319,-31.1408 410.293,-40.4955 415.041,-35.3518"/>
</g>
<!-- Node11 -->
<g id="node11" class="node"><title>Node11</title>
<g id="a_node11"><a xlink:href="attribute__warn__unused__result_8hpp.html" target="_top" xlink:title="tlx/define/attribute\l_warn_unused_result.hpp">
<polygon fill="none" stroke="black" points="456,-1 456,-31 584,-31 584,-1 456,-1"/>
<text text-anchor="start" x="464" y="-19" font-family="Helvetica,sans-Serif" font-size="10.00">tlx/define/attribute</text>
<text text-anchor="middle" x="520" y="-8" font-family="Helvetica,sans-Serif" font-size="10.00">_warn_unused_result.hpp</text>
</a>
</g>
</g>
<!-- Node6&#45;&gt;Node11 -->
<g id="edge10" class="edge"><title>Node6&#45;&gt;Node11</title>
<path fill="none" stroke="midnightblue" d="M464.313,-68.4035C472.869,-60.5051 485.9,-48.4768 497.206,-38.0409"/>
<polygon fill="midnightblue" stroke="midnightblue" points="499.707,-40.4955 504.681,-31.1408 494.959,-35.3518 499.707,-40.4955"/>
</g>
<!-- Node12 -->
<g id="node12" class="node"><title>Node12</title>
<g id="a_node12"><a xlink:href="deprecated_8hpp.html" target="_top" xlink:title="tlx/define/deprecated.hpp">
<polygon fill="none" stroke="black" points="602,-6.5 602,-25.5 728,-25.5 728,-6.5 602,-6.5"/>
<text text-anchor="middle" x="665" y="-13.5" font-family="Helvetica,sans-Serif" font-size="10.00">tlx/define/deprecated.hpp</text>
</a>
</g>
</g>
<!-- Node6&#45;&gt;Node12 -->
<g id="edge11" class="edge"><title>Node6&#45;&gt;Node12</title>
<path fill="none" stroke="midnightblue" d="M485.088,-68.4035C521.89,-57.8886 584.311,-40.0539 625.094,-28.4016"/>
<polygon fill="midnightblue" stroke="midnightblue" points="626.314,-31.6932 634.968,-25.5806 624.391,-24.9625 626.314,-31.6932"/>
</g>
<!-- Node13 -->
<g id="node13" class="node"><title>Node13</title>
<g id="a_node13"><a xlink:href="endian_8hpp.html" target="_top" xlink:title="tlx/define/endian.hpp">
<polygon fill="none" stroke="black" points="746.5,-6.5 746.5,-25.5 853.5,-25.5 853.5,-6.5 746.5,-6.5"/>
<text text-anchor="middle" x="800" y="-13.5" font-family="Helvetica,sans-Serif" font-size="10.00">tlx/define/endian.hpp</text>
</a>
</g>
</g>
<!-- Node6&#45;&gt;Node13 -->
<g id="edge12" class="edge"><title>Node6&#45;&gt;Node13</title>
<path fill="none" stroke="midnightblue" d="M492.688,-69.6555C495.835,-69.0809 498.971,-68.5219 502,-68 606.129,-50.0608 633.296,-52.2538 737,-32 743.3,-30.7696 749.924,-29.3419 756.413,-27.8661"/>
<polygon fill="midnightblue" stroke="midnightblue" points="757.491,-31.2088 766.434,-25.5289 755.901,-24.3917 757.491,-31.2088"/>
</g>
<!-- Node14 -->
<g id="node14" class="node"><title>Node14</title>
<g id="a_node14"><a xlink:href="likely_8hpp.html" target="_top" xlink:title="tlx/define/likely.hpp">
<polygon fill="none" stroke="black" points="871.5,-6.5 871.5,-25.5 972.5,-25.5 972.5,-6.5 871.5,-6.5"/>
<text text-anchor="middle" x="922" y="-13.5" font-family="Helvetica,sans-Serif" font-size="10.00">tlx/define/likely.hpp</text>
</a>
</g>
</g>
<!-- Node6&#45;&gt;Node14 -->
<g id="edge13" class="edge"><title>Node6&#45;&gt;Node14</title>
<path fill="none" stroke="midnightblue" d="M492.66,-69.481C495.814,-68.945 498.958,-68.4424 502,-68 661.124,-44.856 703.584,-59.5724 862,-32 868.317,-30.9005 874.952,-29.4977 881.413,-27.9929"/>
<polygon fill="midnightblue" stroke="midnightblue" points="882.463,-31.3396 891.351,-25.5733 880.807,-24.5383 882.463,-31.3396"/>
</g>
<!-- Node24&#45;&gt;Node18 -->
<g id="edge24" class="edge"><title>Node24&#45;&gt;Node18</title>
<path fill="none" stroke="midnightblue" d="M472.936,-124.444C454.425,-115.675 425.419,-101.935 404.145,-91.8579"/>
<polygon fill="midnightblue" stroke="midnightblue" points="405.515,-88.6343 394.979,-87.5164 402.518,-94.9604 405.515,-88.6343"/>
</g>
<!-- Node25&#45;&gt;Node26 -->
<g id="edge26" class="edge"><title>Node25&#45;&gt;Node26</title>
<path fill="none" stroke="midnightblue" d="M1276.06,-124.083C1271.02,-116.534 1263.66,-105.495 1257.49,-96.2298"/>
<polygon fill="midnightblue" stroke="midnightblue" points="1260.29,-94.1301 1251.83,-87.7511 1254.47,-98.0131 1260.29,-94.1301"/>
</g>
<!-- Node25&#45;&gt;Node27 -->
<g id="edge27" class="edge"><title>Node25&#45;&gt;Node27</title>
<path fill="none" stroke="midnightblue" d="M1289.6,-124.083C1296.23,-116.298 1306.02,-104.801 1314.06,-95.3665"/>
<polygon fill="midnightblue" stroke="midnightblue" points="1316.73,-97.6332 1320.55,-87.7511 1311.4,-93.0939 1316.73,-97.6332"/>
</g>
<!-- Node25&#45;&gt;Node28 -->
<g id="edge28" class="edge"><title>Node25&#45;&gt;Node28</title>
<path fill="none" stroke="midnightblue" d="M1300.86,-124.444C1320.27,-115.636 1350.73,-101.812 1372.96,-91.722"/>
<polygon fill="midnightblue" stroke="midnightblue" points="1374.57,-94.836 1382.23,-87.5164 1371.68,-88.4615 1374.57,-94.836"/>
</g>
<!-- Node29&#45;&gt;Node30 -->
<g id="edge30" class="edge"><title>Node29&#45;&gt;Node30</title>
<path fill="none" stroke="midnightblue" d="M1521.41,-124.083C1513.84,-116.22 1502.62,-104.569 1493.49,-95.0813"/>
<polygon fill="midnightblue" stroke="midnightblue" points="1495.88,-92.5266 1486.43,-87.7511 1490.84,-97.3821 1495.88,-92.5266"/>
</g>
<!-- Node29&#45;&gt;Node31 -->
<g id="edge31" class="edge"><title>Node29&#45;&gt;Node31</title>
<path fill="none" stroke="midnightblue" d="M1536.11,-124.083C1541.28,-116.534 1548.85,-105.495 1555.19,-96.2298"/>
<polygon fill="midnightblue" stroke="midnightblue" points="1558.24,-97.9787 1561,-87.7511 1552.46,-94.0221 1558.24,-97.9787"/>
</g>
<!-- Node29&#45;&gt;Node32 -->
<g id="edge32" class="edge"><title>Node29&#45;&gt;Node32</title>
<path fill="none" stroke="midnightblue" d="M1549.33,-124.444C1569.32,-115.596 1600.74,-101.687 1623.56,-91.5865"/>
<polygon fill="midnightblue" stroke="midnightblue" points="1625.03,-94.7645 1632.76,-87.5164 1622.2,-88.3635 1625.03,-94.7645"/>
</g>
<!-- Node39&#45;&gt;Node21 -->
<g id="edge52" class="edge"><title>Node39&#45;&gt;Node21</title>
<path fill="none" stroke="midnightblue" d="M940.235,-124.324C930.234,-116.263 915.113,-104.077 903.07,-94.3695"/>
<polygon fill="midnightblue" stroke="midnightblue" points="904.943,-91.3841 894.961,-87.8339 900.55,-96.8343 904.943,-91.3841"/>
</g>
<!-- Node39&#45;&gt;Node22 -->
<g id="edge54" class="edge"><title>Node39&#45;&gt;Node22</title>
<path fill="none" stroke="midnightblue" d="M973.025,-124.444C996.511,-115.319 1033.85,-100.813 1060.01,-90.6501"/>
<polygon fill="midnightblue" stroke="midnightblue" points="1061.38,-93.8721 1069.44,-86.9883 1058.85,-87.3471 1061.38,-93.8721"/>
</g>
<!-- Node40 -->
<g id="node40" class="node"><title>Node40</title>
<polygon fill="none" stroke="#bfbfbf" points="928,-68.5 928,-87.5 974,-87.5 974,-68.5 928,-68.5"/>
<text text-anchor="middle" x="951" y="-75.5" font-family="Helvetica,sans-Serif" font-size="10.00">cstring</text>
</g>
<!-- Node39&#45;&gt;Node40 -->
<g id="edge51" class="edge"><title>Node39&#45;&gt;Node40</title>
<path fill="none" stroke="midnightblue" d="M951,-124.083C951,-117.006 951,-106.861 951,-97.9865"/>
<polygon fill="midnightblue" stroke="midnightblue" points="954.5,-97.751 951,-87.7511 947.5,-97.7511 954.5,-97.751"/>
</g>
<!-- Node41 -->
<g id="node41" class="node"><title>Node41</title>
<polygon fill="none" stroke="#bfbfbf" points="992.5,-68.5 992.5,-87.5 1051.5,-87.5 1051.5,-68.5 992.5,-68.5"/>
<text text-anchor="middle" x="1022" y="-75.5" font-family="Helvetica,sans-Serif" font-size="10.00">stdexcept</text>
</g>
<!-- Node39&#45;&gt;Node41 -->
<g id="edge53" class="edge"><title>Node39&#45;&gt;Node41</title>
<path fill="none" stroke="midnightblue" d="M962.407,-124.324C973.109,-116.185 989.341,-103.839 1002.16,-94.0874"/>
<polygon fill="midnightblue" stroke="midnightblue" points="1004.54,-96.6734 1010.39,-87.8339 1000.31,-91.1018 1004.54,-96.6734"/>
</g>
</g>
</svg>
