<?xml version="1.0" encoding="UTF-8" standalone="no"?>
<!DOCTYPE svg PUBLIC "-//W3C//DTD SVG 1.1//EN"
 "http://www.w3.org/Graphics/SVG/1.1/DTD/svg11.dtd">
<!-- Generated by graphviz version 2.26.3 (20100126.1600)
 -->
<!-- Title: thrill/common/porting.hpp Pages: 1 -->
<svg width="1496pt" height="406pt"
 viewBox="0.00 0.00 1495.69 406.00" xmlns="http://www.w3.org/2000/svg" xmlns:xlink="http://www.w3.org/1999/xlink">
<g id="graph1" class="graph" transform="scale(1 1) rotate(0) translate(4 402)">
<title>thrill/common/porting.hpp</title>
<!-- Node1 -->
<g id="node1" class="node"><title>Node1</title>
<polygon fill="#bfbfbf" stroke="black" points="84.6342,-376.5 84.6342,-397.5 210.634,-397.5 210.634,-376.5 84.6342,-376.5"/>
<text text-anchor="middle" x="147.634" y="-384.5" font-family="Helvetica,sans-Serif" font-size="10.00">thrill/common/porting.hpp</text>
</g>
<!-- Node2 -->
<g id="node3" class="node"><title>Node2</title>
<a xlink:href="thrill_2common_2logger_8hpp.html" target="_top" xlink:title="thrill/common/logger.hpp">
<polygon fill="none" stroke="black" points="28.1342,-318.5 28.1342,-339.5 151.134,-339.5 151.134,-318.5 28.1342,-318.5"/>
<text text-anchor="middle" x="89.6342" y="-326.5" font-family="Helvetica,sans-Serif" font-size="10.00">thrill/common/logger.hpp</text>
</a>
</g>
<!-- Node1&#45;&gt;Node2 -->
<g id="edge2" class="edge"><title>Node1&#45;&gt;Node2</title>
<path fill="none" stroke="midnightblue" d="M136.996,-376.362C128.739,-368.104 117.107,-356.472 107.437,-346.803"/>
<polygon fill="midnightblue" stroke="midnightblue" points="109.751,-344.167 100.205,-339.571 104.801,-349.117 109.751,-344.167"/>
</g>
<!-- Node19 -->
<g id="node37" class="node"><title>Node19</title>
<polygon fill="none" stroke="#bfbfbf" points="18.1342,-72.5 18.1342,-93.5 59.1342,-93.5 59.1342,-72.5 18.1342,-72.5"/>
<text text-anchor="middle" x="38.6342" y="-80.5" font-family="Helvetica,sans-Serif" font-size="10.00">string</text>
</g>
<!-- Node1&#45;&gt;Node19 -->
<g id="edge122" class="edge"><title>Node1&#45;&gt;Node19</title>
<path fill="none" stroke="midnightblue" d="M84.4663,-376.424C61.2557,-369.592 36.5444,-358.379 19.6342,-340 -1.90263,-316.592 0.634212,-302.808 0.634212,-271 0.634212,-271 0.634212,-271 0.634212,-206 0.634212,-168.061 17.3422,-126.355 28.6005,-102.558"/>
<polygon fill="midnightblue" stroke="midnightblue" points="31.772,-104.04 33.0272,-93.5194 25.4855,-100.961 31.772,-104.04"/>
</g>
<!-- Node38 -->
<g id="node100" class="node"><title>Node38</title>
<polygon fill="none" stroke="#bfbfbf" points="168.634,-318.5 168.634,-339.5 242.634,-339.5 242.634,-318.5 168.634,-318.5"/>
<text text-anchor="middle" x="205.634" y="-326.5" font-family="Helvetica,sans-Serif" font-size="10.00">system_error</text>
</g>
<!-- Node1&#45;&gt;Node38 -->
<g id="edge124" class="edge"><title>Node1&#45;&gt;Node38</title>
<path fill="none" stroke="midnightblue" d="M158.272,-376.362C166.53,-368.104 178.162,-356.472 187.831,-346.803"/>
<polygon fill="midnightblue" stroke="midnightblue" points="190.467,-349.117 195.064,-339.571 185.518,-344.167 190.467,-349.117"/>
</g>
<!-- Node39 -->
<g id="node102" class="node"><title>Node39</title>
<polygon fill="none" stroke="#bfbfbf" points="260.634,-318.5 260.634,-339.5 304.634,-339.5 304.634,-318.5 260.634,-318.5"/>
<text text-anchor="middle" x="282.634" y="-326.5" font-family="Helvetica,sans-Serif" font-size="10.00">thread</text>
</g>
<!-- Node1&#45;&gt;Node39 -->
<g id="edge126" class="edge"><title>Node1&#45;&gt;Node39</title>
<path fill="none" stroke="midnightblue" d="M172.082,-376.497C194.253,-366.971 227.061,-352.876 251.18,-342.514"/>
<polygon fill="midnightblue" stroke="midnightblue" points="252.797,-345.628 260.604,-338.465 250.034,-339.197 252.797,-345.628"/>
</g>
<!-- Node3 -->
<g id="node5" class="node"><title>Node3</title>
<a xlink:href="allocator_8hpp.html" target="_top" xlink:title="thrill/mem/allocator.hpp">
<polygon fill="none" stroke="black" points="1078.63,-260.5 1078.63,-281.5 1196.63,-281.5 1196.63,-260.5 1078.63,-260.5"/>
<text text-anchor="middle" x="1137.63" y="-268.5" font-family="Helvetica,sans-Serif" font-size="10.00">thrill/mem/allocator.hpp</text>
</a>
</g>
<!-- Node2&#45;&gt;Node3 -->
<g id="edge4" class="edge"><title>Node2&#45;&gt;Node3</title>
<path fill="none" stroke="midnightblue" d="M151.424,-318.92C154.195,-318.585 156.942,-318.275 159.634,-318 499.265,-283.256 907.944,-274.1 1068.29,-271.767"/>
<polygon fill="midnightblue" stroke="midnightblue" points="1068.54,-275.264 1078.49,-271.623 1068.44,-268.264 1068.54,-275.264"/>
</g>
<!-- Node18 -->
<g id="node35" class="node"><title>Node18</title>
<polygon fill="none" stroke="#bfbfbf" points="76.6342,-72.5 76.6342,-93.5 128.634,-93.5 128.634,-72.5 76.6342,-72.5"/>
<text text-anchor="middle" x="102.634" y="-80.5" font-family="Helvetica,sans-Serif" font-size="10.00">sstream</text>
</g>
<!-- Node2&#45;&gt;Node18 -->
<g id="edge118" class="edge"><title>Node2&#45;&gt;Node18</title>
<path fill="none" stroke="midnightblue" d="M90.1928,-318.43C92.1721,-280.975 98.8749,-154.138 101.534,-103.819"/>
<polygon fill="midnightblue" stroke="midnightblue" points="105.045,-103.702 102.078,-93.5309 98.0548,-103.332 105.045,-103.702"/>
</g>
<!-- Node2&#45;&gt;Node19 -->
<g id="edge120" class="edge"><title>Node2&#45;&gt;Node19</title>
<path fill="none" stroke="midnightblue" d="M87.4428,-318.43C79.6614,-280.896 53.2715,-153.604 42.8846,-103.502"/>
<polygon fill="midnightblue" stroke="midnightblue" points="46.2747,-102.612 40.8175,-93.5309 39.4204,-104.033 46.2747,-102.612"/>
</g>
<!-- Node33 -->
<g id="node80" class="node"><title>Node33</title>
<a xlink:href="pool_8hpp.html" target="_top" xlink:title="thrill/mem/pool.hpp">
<polygon fill="none" stroke="black" points="403.134,-260.5 403.134,-281.5 502.134,-281.5 502.134,-260.5 403.134,-260.5"/>
<text text-anchor="middle" x="452.634" y="-268.5" font-family="Helvetica,sans-Serif" font-size="10.00">thrill/mem/pool.hpp</text>
</a>
</g>
<!-- Node2&#45;&gt;Node33 -->
<g id="edge94" class="edge"><title>Node2&#45;&gt;Node33</title>
<path fill="none" stroke="midnightblue" d="M151.212,-319.161C218.744,-308.371 326.369,-291.175 393.085,-280.515"/>
<polygon fill="midnightblue" stroke="midnightblue" points="393.703,-283.96 403.025,-278.926 392.598,-277.048 393.703,-283.96"/>
</g>
<!-- Node4 -->
<g id="node7" class="node"><title>Node4</title>
<a xlink:href="thrill_2mem_2allocator__base_8hpp.html" target="_top" xlink:title="thrill/mem/allocator\l_base.hpp">
<polygon fill="none" stroke="black" points="1011.13,-189 1011.13,-223 1110.13,-223 1110.13,-189 1011.13,-189"/>
<text text-anchor="start" x="1019.13" y="-210" font-family="Helvetica,sans-Serif" font-size="10.00">thrill/mem/allocator</text>
<text text-anchor="middle" x="1060.63" y="-197" font-family="Helvetica,sans-Serif" font-size="10.00">_base.hpp</text>
</a>
</g>
<!-- Node3&#45;&gt;Node4 -->
<g id="edge6" class="edge"><title>Node3&#45;&gt;Node4</title>
<path fill="none" stroke="midnightblue" d="M1124.92,-260.267C1115.11,-251.984 1101.16,-240.212 1088.77,-229.748"/>
<polygon fill="midnightblue" stroke="midnightblue" points="1090.8,-226.886 1080.9,-223.11 1086.29,-232.235 1090.8,-226.886"/>
</g>
<!-- Node3&#45;&gt;Node19 -->
<g id="edge88" class="edge"><title>Node3&#45;&gt;Node19</title>
<path fill="none" stroke="midnightblue" d="M1078.63,-263.794C892.485,-240.968 325.095,-170.673 243.634,-152 179.859,-137.381 107.935,-110.699 68.4962,-95.1465"/>
<polygon fill="midnightblue" stroke="midnightblue" points="69.7795,-91.8903 59.194,-91.4463 67.1922,-98.3946 69.7795,-91.8903"/>
</g>
<!-- Node20 -->
<g id="node39" class="node"><title>Node20</title>
<polygon fill="none" stroke="#bfbfbf" points="644.634,-72.5 644.634,-93.5 688.634,-93.5 688.634,-72.5 644.634,-72.5"/>
<text text-anchor="middle" x="666.634" y="-80.5" font-family="Helvetica,sans-Serif" font-size="10.00">vector</text>
</g>
<!-- Node3&#45;&gt;Node20 -->
<g id="edge92" class="edge"><title>Node3&#45;&gt;Node20</title>
<path fill="none" stroke="midnightblue" d="M1078.63,-264.543C1007.9,-256.222 893.96,-240.814 854.634,-224 784.04,-193.817 715.644,-131.818 684.362,-101.088"/>
<polygon fill="midnightblue" stroke="midnightblue" points="686.444,-98.2215 676.889,-93.6435 681.503,-103.181 686.444,-98.2215"/>
</g>
<!-- Node22 -->
<g id="node44" class="node"><title>Node22</title>
<a xlink:href="mem_2manager_8hpp.html" target="_top" xlink:title="thrill/mem/manager.hpp">
<polygon fill="none" stroke="black" points="1203.13,-130.5 1203.13,-151.5 1322.13,-151.5 1322.13,-130.5 1203.13,-130.5"/>
<text text-anchor="middle" x="1262.63" y="-138.5" font-family="Helvetica,sans-Serif" font-size="10.00">thrill/mem/manager.hpp</text>
</a>
</g>
<!-- Node3&#45;&gt;Node22 -->
<g id="edge76" class="edge"><title>Node3&#45;&gt;Node22</title>
<path fill="none" stroke="midnightblue" d="M1150.4,-260.182C1161.17,-250.897 1176.81,-236.994 1189.63,-224 1210.52,-202.827 1232.87,-176.87 1247.26,-159.681"/>
<polygon fill="midnightblue" stroke="midnightblue" points="1250.31,-161.491 1254.01,-151.564 1244.93,-157.016 1250.31,-161.491"/>
</g>
<!-- Node25 -->
<g id="node50" class="node"><title>Node25</title>
<polygon fill="none" stroke="#bfbfbf" points="1325.13,-72.5 1325.13,-93.5 1374.13,-93.5 1374.13,-72.5 1325.13,-72.5"/>
<text text-anchor="middle" x="1349.63" y="-80.5" font-family="Helvetica,sans-Serif" font-size="10.00">cassert</text>
</g>
<!-- Node3&#45;&gt;Node25 -->
<g id="edge78" class="edge"><title>Node3&#45;&gt;Node25</title>
<path fill="none" stroke="midnightblue" d="M1193.54,-260.452C1282.97,-242.246 1451.34,-202.022 1482.63,-152 1507.45,-112.328 1431.71,-94.3393 1384.49,-87.1501"/>
<polygon fill="midnightblue" stroke="midnightblue" points="1384.71,-83.6467 1374.32,-85.6995 1383.72,-90.5766 1384.71,-83.6467"/>
</g>
<!-- Node28 -->
<g id="node56" class="node"><title>Node28</title>
<polygon fill="none" stroke="#bfbfbf" points="772.634,-72.5 772.634,-93.5 824.634,-93.5 824.634,-72.5 772.634,-72.5"/>
<text text-anchor="middle" x="798.634" y="-80.5" font-family="Helvetica,sans-Serif" font-size="10.00">memory</text>
</g>
<!-- Node3&#45;&gt;Node28 -->
<g id="edge84" class="edge"><title>Node3&#45;&gt;Node28</title>
<path fill="none" stroke="midnightblue" d="M1078.57,-266.091C1005.45,-256.746 882.333,-229.743 814.634,-152 803.179,-138.846 799.506,-119.085 798.508,-104.078"/>
<polygon fill="midnightblue" stroke="midnightblue" points="801.995,-103.601 798.182,-93.716 794.998,-103.821 801.995,-103.601"/>
</g>
<!-- Node29 -->
<g id="node58" class="node"><title>Node29</title>
<polygon fill="none" stroke="#bfbfbf" points="951.634,-72.5 951.634,-93.5 1013.63,-93.5 1013.63,-72.5 951.634,-72.5"/>
<text text-anchor="middle" x="982.634" y="-80.5" font-family="Helvetica,sans-Serif" font-size="10.00">type_traits</text>
</g>
<!-- Node3&#45;&gt;Node29 -->
<g id="edge90" class="edge"><title>Node3&#45;&gt;Node29</title>
<path fill="none" stroke="midnightblue" d="M1143.66,-260.491C1157.31,-235.145 1187.12,-169.811 1156.63,-130 1148.44,-119.302 1072.5,-101.722 1023.69,-91.3647"/>
<polygon fill="midnightblue" stroke="midnightblue" points="1024.22,-87.901 1013.72,-89.2693 1022.78,-94.7513 1024.22,-87.901"/>
</g>
<!-- Node30 -->
<g id="node62" class="node"><title>Node30</title>
<polygon fill="none" stroke="#bfbfbf" points="1105.13,-130.5 1105.13,-151.5 1148.13,-151.5 1148.13,-130.5 1105.13,-130.5"/>
<text text-anchor="middle" x="1126.63" y="-138.5" font-family="Helvetica,sans-Serif" font-size="10.00">deque</text>
</g>
<!-- Node3&#45;&gt;Node30 -->
<g id="edge80" class="edge"><title>Node3&#45;&gt;Node30</title>
<path fill="none" stroke="midnightblue" d="M1136.73,-260.362C1134.92,-238.936 1130.8,-190.24 1128.42,-162.114"/>
<polygon fill="midnightblue" stroke="midnightblue" points="1131.88,-161.455 1127.55,-151.785 1124.9,-162.045 1131.88,-161.455"/>
</g>
<!-- Node31 -->
<g id="node64" class="node"><title>Node31</title>
<polygon fill="none" stroke="#bfbfbf" points="1377.13,-130.5 1377.13,-151.5 1422.13,-151.5 1422.13,-130.5 1377.13,-130.5"/>
<text text-anchor="middle" x="1399.63" y="-138.5" font-family="Helvetica,sans-Serif" font-size="10.00">iosfwd</text>
</g>
<!-- Node3&#45;&gt;Node31 -->
<g id="edge82" class="edge"><title>Node3&#45;&gt;Node31</title>
<path fill="none" stroke="midnightblue" d="M1159.07,-260.362C1205.54,-237.308 1315.63,-182.681 1369.24,-156.079"/>
<polygon fill="midnightblue" stroke="midnightblue" points="1370.86,-159.183 1378.26,-151.603 1367.75,-152.913 1370.86,-159.183"/>
</g>
<!-- Node32 -->
<g id="node66" class="node"><title>Node32</title>
<polygon fill="none" stroke="#bfbfbf" points="1439.13,-130.5 1439.13,-151.5 1474.13,-151.5 1474.13,-130.5 1439.13,-130.5"/>
<text text-anchor="middle" x="1456.63" y="-138.5" font-family="Helvetica,sans-Serif" font-size="10.00">new</text>
</g>
<!-- Node3&#45;&gt;Node32 -->
<g id="edge86" class="edge"><title>Node3&#45;&gt;Node32</title>
<path fill="none" stroke="midnightblue" d="M1174.76,-260.438C1204.34,-251.671 1246.62,-238.354 1282.63,-224 1335.83,-202.797 1395.65,-172.857 1429.47,-155.333"/>
<polygon fill="midnightblue" stroke="midnightblue" points="1431.45,-158.251 1438.7,-150.526 1428.21,-152.043 1431.45,-158.251"/>
</g>
<!-- Node5 -->
<g id="node9" class="node"><title>Node5</title>
<a xlink:href="thrill_2common_2string_8hpp.html" target="_top" xlink:title="thrill/common/string.hpp">
<polygon fill="none" stroke="black" points="295.134,-130.5 295.134,-151.5 416.134,-151.5 416.134,-130.5 295.134,-130.5"/>
<text text-anchor="middle" x="355.634" y="-138.5" font-family="Helvetica,sans-Serif" font-size="10.00">thrill/common/string.hpp</text>
</a>
</g>
<!-- Node4&#45;&gt;Node5 -->
<g id="edge8" class="edge"><title>Node4&#45;&gt;Node5</title>
<path fill="none" stroke="midnightblue" d="M1011,-201.727C908.5,-192.858 666.003,-171.635 462.634,-152 450.872,-150.864 438.386,-149.618 426.254,-148.385"/>
<polygon fill="midnightblue" stroke="midnightblue" points="426.473,-144.889 416.169,-147.355 425.762,-151.853 426.473,-144.889"/>
</g>
<!-- Node4&#45;&gt;Node19 -->
<g id="edge70" class="edge"><title>Node4&#45;&gt;Node19</title>
<path fill="none" stroke="midnightblue" d="M1011.04,-205.132C862.647,-202.129 423.872,-190.171 286.634,-152 265.952,-146.248 263.891,-137.105 243.634,-130 171.235,-104.607 146.27,-115.301 69.0857,-94.0874"/>
<polygon fill="midnightblue" stroke="midnightblue" points="69.9833,-90.7039 59.4074,-91.3376 68.0701,-97.4374 69.9833,-90.7039"/>
</g>
<!-- Node4&#45;&gt;Node20 -->
<g id="edge74" class="edge"><title>Node4&#45;&gt;Node20</title>
<path fill="none" stroke="midnightblue" d="M1010.76,-198.371C960.432,-189.906 880.906,-174.417 814.634,-152 771.446,-137.391 724.113,-113.907 694.887,-98.4635"/>
<polygon fill="midnightblue" stroke="midnightblue" points="696.171,-95.1818 685.701,-93.5589 692.874,-101.357 696.171,-95.1818"/>
</g>
<!-- Node21 -->
<g id="node41" class="node"><title>Node21</title>
<a xlink:href="malloc__tracker_8hpp.html" target="_top" xlink:title="thrill/mem/malloc_tracker.hpp">
<polygon fill="none" stroke="black" points="471.134,-130.5 471.134,-151.5 616.134,-151.5 616.134,-130.5 471.134,-130.5"/>
<text text-anchor="middle" x="543.634" y="-138.5" font-family="Helvetica,sans-Serif" font-size="10.00">thrill/mem/malloc_tracker.hpp</text>
</a>
</g>
<!-- Node4&#45;&gt;Node21 -->
<g id="edge40" class="edge"><title>Node4&#45;&gt;Node21</title>
<path fill="none" stroke="midnightblue" d="M1011.06,-199.768C922.219,-188.598 735.033,-165.064 626.422,-151.409"/>
<polygon fill="midnightblue" stroke="midnightblue" points="626.844,-147.934 616.485,-150.159 625.97,-154.879 626.844,-147.934"/>
</g>
<!-- Node4&#45;&gt;Node22 -->
<g id="edge44" class="edge"><title>Node4&#45;&gt;Node22</title>
<path fill="none" stroke="midnightblue" d="M1110.31,-190.016C1144.08,-179.149 1188.28,-164.927 1220.36,-154.603"/>
<polygon fill="midnightblue" stroke="midnightblue" points="1221.46,-157.927 1229.9,-151.532 1219.31,-151.264 1221.46,-157.927"/>
</g>
<!-- Node24 -->
<g id="node48" class="node"><title>Node24</title>
<polygon fill="none" stroke="#bfbfbf" points="1201.63,-72.5 1201.63,-93.5 1247.63,-93.5 1247.63,-72.5 1201.63,-72.5"/>
<text text-anchor="middle" x="1224.63" y="-80.5" font-family="Helvetica,sans-Serif" font-size="10.00">atomic</text>
</g>
<!-- Node4&#45;&gt;Node24 -->
<g id="edge60" class="edge"><title>Node4&#45;&gt;Node24</title>
<path fill="none" stroke="midnightblue" d="M1064.66,-188.919C1069.51,-171.825 1079.28,-145.852 1096.63,-130 1123.14,-105.792 1163.15,-93.7724 1191.37,-87.9953"/>
<polygon fill="midnightblue" stroke="midnightblue" points="1192.38,-91.3671 1201.56,-86.0744 1191.08,-84.4883 1192.38,-91.3671"/>
</g>
<!-- Node4&#45;&gt;Node25 -->
<g id="edge62" class="edge"><title>Node4&#45;&gt;Node25</title>
<path fill="none" stroke="midnightblue" d="M1110.14,-202.248C1179.12,-196.022 1299.23,-181.237 1330.63,-152 1343.81,-139.736 1348.15,-119.261 1349.45,-103.793"/>
<polygon fill="midnightblue" stroke="midnightblue" points="1352.95,-103.758 1349.93,-93.6034 1345.96,-103.426 1352.95,-103.758"/>
</g>
<!-- Node26 -->
<g id="node52" class="node"><title>Node26</title>
<a xlink:href="extlib_2tlx_2tlx_2allocator__base_8hpp.html" target="_top" xlink:title="tlx/allocator_base.hpp">
<polygon fill="none" stroke="black" points="823.634,-130.5 823.634,-151.5 935.634,-151.5 935.634,-130.5 823.634,-130.5"/>
<text text-anchor="middle" x="879.634" y="-138.5" font-family="Helvetica,sans-Serif" font-size="10.00">tlx/allocator_base.hpp</text>
</a>
</g>
<!-- Node4&#45;&gt;Node26 -->
<g id="edge52" class="edge"><title>Node4&#45;&gt;Node26</title>
<path fill="none" stroke="midnightblue" d="M1013.08,-188.922C983.694,-178.37 946.446,-164.993 918.774,-155.056"/>
<polygon fill="midnightblue" stroke="midnightblue" points="919.64,-151.648 909.045,-151.562 917.274,-158.236 919.64,-151.648"/>
</g>
<!-- Node4&#45;&gt;Node29 -->
<g id="edge72" class="edge"><title>Node4&#45;&gt;Node29</title>
<path fill="none" stroke="midnightblue" d="M1049.79,-188.897C1035.38,-166.17 1009.98,-126.123 994.89,-102.326"/>
<polygon fill="midnightblue" stroke="midnightblue" points="997.786,-100.358 989.475,-93.7875 991.875,-104.107 997.786,-100.358"/>
</g>
<!-- Node4&#45;&gt;Node30 -->
<g id="edge64" class="edge"><title>Node4&#45;&gt;Node30</title>
<path fill="none" stroke="midnightblue" d="M1077.97,-188.922C1087.28,-179.754 1098.76,-168.454 1108.23,-159.129"/>
<polygon fill="midnightblue" stroke="midnightblue" points="1110.95,-161.363 1115.62,-151.852 1106.03,-156.375 1110.95,-161.363"/>
</g>
<!-- Node4&#45;&gt;Node31 -->
<g id="edge66" class="edge"><title>Node4&#45;&gt;Node31</title>
<path fill="none" stroke="midnightblue" d="M1110.35,-199.016C1170.69,-190.11 1275.33,-173.279 1363.63,-152 1364.71,-151.74 1365.81,-151.466 1366.91,-151.18"/>
<polygon fill="midnightblue" stroke="midnightblue" points="1368.2,-154.455 1376.89,-148.4 1366.32,-147.712 1368.2,-154.455"/>
</g>
<!-- Node4&#45;&gt;Node32 -->
<g id="edge68" class="edge"><title>Node4&#45;&gt;Node32</title>
<path fill="none" stroke="midnightblue" d="M1110.24,-202.797C1180.07,-197.41 1311.15,-184.083 1429.04,-151.944"/>
<polygon fill="midnightblue" stroke="midnightblue" points="1430.25,-155.24 1438.95,-149.188 1428.37,-148.495 1430.25,-155.24"/>
</g>
<!-- Node6 -->
<g id="node11" class="node"><title>Node6</title>
<a xlink:href="define_8hpp.html" target="_top" xlink:title="tlx/define.hpp">
<polygon fill="none" stroke="black" points="490.134,-72.5 490.134,-93.5 565.134,-93.5 565.134,-72.5 490.134,-72.5"/>
<text text-anchor="middle" x="527.634" y="-80.5" font-family="Helvetica,sans-Serif" font-size="10.00">tlx/define.hpp</text>
</a>
</g>
<!-- Node5&#45;&gt;Node6 -->
<g id="edge10" class="edge"><title>Node5&#45;&gt;Node6</title>
<path fill="none" stroke="midnightblue" d="M386.782,-130.497C414.823,-121.041 456.216,-107.083 486.88,-96.7428"/>
<polygon fill="midnightblue" stroke="midnightblue" points="488.071,-100.035 496.428,-93.5231 485.834,-93.4019 488.071,-100.035"/>
</g>
<!-- Node12 -->
<g id="node23" class="node"><title>Node12</title>
<a xlink:href="unused_8hpp.html" target="_top" xlink:title="tlx/unused.hpp">
<polygon fill="none" stroke="black" points="146.634,-72.5 146.634,-93.5 226.634,-93.5 226.634,-72.5 146.634,-72.5"/>
<text text-anchor="middle" x="186.634" y="-80.5" font-family="Helvetica,sans-Serif" font-size="10.00">tlx/unused.hpp</text>
</a>
</g>
<!-- Node5&#45;&gt;Node12 -->
<g id="edge22" class="edge"><title>Node5&#45;&gt;Node12</title>
<path fill="none" stroke="midnightblue" d="M325.03,-130.497C297.597,-121.082 257.159,-107.204 227.07,-96.8773"/>
<polygon fill="midnightblue" stroke="midnightblue" points="227.891,-93.4588 217.296,-93.5231 225.619,-100.08 227.891,-93.4588"/>
</g>
<!-- Node13 -->
<g id="node25" class="node"><title>Node13</title>
<polygon fill="none" stroke="#bfbfbf" points="244.634,-72.5 244.634,-93.5 282.634,-93.5 282.634,-72.5 244.634,-72.5"/>
<text text-anchor="middle" x="263.634" y="-80.5" font-family="Helvetica,sans-Serif" font-size="10.00">array</text>
</g>
<!-- Node5&#45;&gt;Node13 -->
<g id="edge24" class="edge"><title>Node5&#45;&gt;Node13</title>
<path fill="none" stroke="midnightblue" d="M338.76,-130.362C324.884,-121.614 305,-109.079 289.174,-99.1015"/>
<polygon fill="midnightblue" stroke="midnightblue" points="290.727,-95.943 280.401,-93.5707 286.994,-101.864 290.727,-95.943"/>
</g>
<!-- Node14 -->
<g id="node27" class="node"><title>Node14</title>
<polygon fill="none" stroke="#bfbfbf" points="300.134,-72.5 300.134,-93.5 349.134,-93.5 349.134,-72.5 300.134,-72.5"/>
<text text-anchor="middle" x="324.634" y="-80.5" font-family="Helvetica,sans-Serif" font-size="10.00">cstdarg</text>
</g>
<!-- Node5&#45;&gt;Node14 -->
<g id="edge26" class="edge"><title>Node5&#45;&gt;Node14</title>
<path fill="none" stroke="midnightblue" d="M349.948,-130.362C345.797,-122.595 340.05,-111.843 335.081,-102.546"/>
<polygon fill="midnightblue" stroke="midnightblue" points="338.085,-100.74 330.284,-93.5707 331.911,-104.04 338.085,-100.74"/>
</g>
<!-- Node15 -->
<g id="node29" class="node"><title>Node15</title>
<polygon fill="none" stroke="#bfbfbf" points="582.134,-72.5 582.134,-93.5 627.134,-93.5 627.134,-72.5 582.134,-72.5"/>
<text text-anchor="middle" x="604.634" y="-80.5" font-family="Helvetica,sans-Serif" font-size="10.00">cstdlib</text>
</g>
<!-- Node5&#45;&gt;Node15 -->
<g id="edge28" class="edge"><title>Node5&#45;&gt;Node15</title>
<path fill="none" stroke="midnightblue" d="M414.431,-130.451C456.265,-122.461 513.908,-110.47 572.299,-94.1551"/>
<polygon fill="midnightblue" stroke="midnightblue" points="573.389,-97.4842 582.056,-91.39 571.48,-90.7494 573.389,-97.4842"/>
</g>
<!-- Node16 -->
<g id="node31" class="node"><title>Node16</title>
<polygon fill="none" stroke="#bfbfbf" points="366.634,-72.5 366.634,-93.5 406.634,-93.5 406.634,-72.5 366.634,-72.5"/>
<text text-anchor="middle" x="386.634" y="-80.5" font-family="Helvetica,sans-Serif" font-size="10.00">limits</text>
</g>
<!-- Node5&#45;&gt;Node16 -->
<g id="edge30" class="edge"><title>Node5&#45;&gt;Node16</title>
<path fill="none" stroke="midnightblue" d="M361.32,-130.362C365.471,-122.595 371.218,-111.843 376.187,-102.546"/>
<polygon fill="midnightblue" stroke="midnightblue" points="379.357,-104.04 380.984,-93.5707 373.184,-100.74 379.357,-104.04"/>
</g>
<!-- Node17 -->
<g id="node33" class="node"><title>Node17</title>
<polygon fill="none" stroke="#bfbfbf" points="424.134,-72.5 424.134,-93.5 473.134,-93.5 473.134,-72.5 424.134,-72.5"/>
<text text-anchor="middle" x="448.634" y="-80.5" font-family="Helvetica,sans-Serif" font-size="10.00">random</text>
</g>
<!-- Node5&#45;&gt;Node17 -->
<g id="edge32" class="edge"><title>Node5&#45;&gt;Node17</title>
<path fill="none" stroke="midnightblue" d="M372.692,-130.362C386.719,-121.614 406.819,-109.079 422.816,-99.1015"/>
<polygon fill="midnightblue" stroke="midnightblue" points="425.052,-101.832 431.685,-93.5707 421.347,-95.8927 425.052,-101.832"/>
</g>
<!-- Node5&#45;&gt;Node18 -->
<g id="edge34" class="edge"><title>Node5&#45;&gt;Node18</title>
<path fill="none" stroke="midnightblue" d="M299.745,-130.426C257.837,-122.162 198.899,-109.831 138.95,-94.193"/>
<polygon fill="midnightblue" stroke="midnightblue" points="139.494,-90.7167 128.932,-91.5506 137.708,-97.4852 139.494,-90.7167"/>
</g>
<!-- Node5&#45;&gt;Node19 -->
<g id="edge36" class="edge"><title>Node5&#45;&gt;Node19</title>
<path fill="none" stroke="midnightblue" d="M294.812,-131.741C223.551,-120.797 110.717,-103.147 69.1265,-93.8336"/>
<polygon fill="midnightblue" stroke="midnightblue" points="69.9249,-90.4258 59.3787,-91.4404 68.2558,-97.2239 69.9249,-90.4258"/>
</g>
<!-- Node5&#45;&gt;Node20 -->
<g id="edge38" class="edge"><title>Node5&#45;&gt;Node20</title>
<path fill="none" stroke="midnightblue" d="M416.372,-131.383C485.611,-120.338 593.64,-102.83 634.562,-93.7728"/>
<polygon fill="midnightblue" stroke="midnightblue" points="635.522,-97.1419 644.428,-91.4033 633.887,-90.3354 635.522,-97.1419"/>
</g>
<!-- Node7 -->
<g id="node13" class="node"><title>Node7</title>
<a xlink:href="attribute__always__inline_8hpp.html" target="_top" xlink:title="tlx/define/attribute\l_always_inline.hpp">
<polygon fill="none" stroke="black" points="252.134,-1 252.134,-35 351.134,-35 351.134,-1 252.134,-1"/>
<text text-anchor="start" x="260.134" y="-22" font-family="Helvetica,sans-Serif" font-size="10.00">tlx/define/attribute</text>
<text text-anchor="middle" x="301.634" y="-9" font-family="Helvetica,sans-Serif" font-size="10.00">_always_inline.hpp</text>
</a>
</g>
<!-- Node6&#45;&gt;Node7 -->
<g id="edge12" class="edge"><title>Node6&#45;&gt;Node7</title>
<path fill="none" stroke="midnightblue" d="M489.849,-72.7557C457.808,-63.9958 410.399,-50.8644 360.878,-36.3341"/>
<polygon fill="midnightblue" stroke="midnightblue" points="361.862,-32.9753 351.28,-33.5081 359.885,-39.6903 361.862,-32.9753"/>
</g>
<!-- Node8 -->
<g id="node15" class="node"><title>Node8</title>
<a xlink:href="attribute__format__printf_8hpp.html" target="_top" xlink:title="tlx/define/attribute\l_format_printf.hpp">
<polygon fill="none" stroke="black" points="368.134,-1 368.134,-35 463.134,-35 463.134,-1 368.134,-1"/>
<text text-anchor="start" x="376.134" y="-22" font-family="Helvetica,sans-Serif" font-size="10.00">tlx/define/attribute</text>
<text text-anchor="middle" x="415.634" y="-9" font-family="Helvetica,sans-Serif" font-size="10.00">_format_printf.hpp</text>
</a>
</g>
<!-- Node6&#45;&gt;Node8 -->
<g id="edge14" class="edge"><title>Node6&#45;&gt;Node8</title>
<path fill="none" stroke="midnightblue" d="M509.14,-72.2666C494.189,-63.5901 472.639,-51.083 453.994,-40.2622"/>
<polygon fill="midnightblue" stroke="midnightblue" points="455.522,-37.1023 445.116,-35.1099 452.008,-43.1565 455.522,-37.1023"/>
</g>
<!-- Node9 -->
<g id="node17" class="node"><title>Node9</title>
<a xlink:href="attribute__packed_8hpp.html" target="_top" xlink:title="tlx/define/attribute\l_packed.hpp">
<polygon fill="none" stroke="black" points="480.134,-1 480.134,-35 575.134,-35 575.134,-1 480.134,-1"/>
<text text-anchor="start" x="488.134" y="-22" font-family="Helvetica,sans-Serif" font-size="10.00">tlx/define/attribute</text>
<text text-anchor="middle" x="527.634" y="-9" font-family="Helvetica,sans-Serif" font-size="10.00">_packed.hpp</text>
</a>
</g>
<!-- Node6&#45;&gt;Node9 -->
<g id="edge16" class="edge"><title>Node6&#45;&gt;Node9</title>
<path fill="none" stroke="midnightblue" d="M527.634,-72.2666C527.634,-64.931 527.634,-54.8573 527.634,-45.3796"/>
<polygon fill="midnightblue" stroke="midnightblue" points="531.134,-45.1098 527.634,-35.1099 524.134,-45.1099 531.134,-45.1098"/>
</g>
<!-- Node10 -->
<g id="node19" class="node"><title>Node10</title>
<a xlink:href="attribute__warn__unused__result_8hpp.html" target="_top" xlink:title="tlx/define/attribute\l_warn_unused_result.hpp">
<polygon fill="none" stroke="black" points="592.634,-1 592.634,-35 720.634,-35 720.634,-1 592.634,-1"/>
<text text-anchor="start" x="600.634" y="-22" font-family="Helvetica,sans-Serif" font-size="10.00">tlx/define/attribute</text>
<text text-anchor="middle" x="656.634" y="-9" font-family="Helvetica,sans-Serif" font-size="10.00">_warn_unused_result.hpp</text>
</a>
</g>
<!-- Node6&#45;&gt;Node10 -->
<g id="edge18" class="edge"><title>Node6&#45;&gt;Node10</title>
<path fill="none" stroke="midnightblue" d="M548.647,-72.412C566.139,-63.5984 591.617,-50.7606 613.433,-39.768"/>
<polygon fill="midnightblue" stroke="midnightblue" points="615.169,-42.8124 622.525,-35.1869 612.019,-36.5612 615.169,-42.8124"/>
</g>
<!-- Node11 -->
<g id="node21" class="node"><title>Node11</title>
<a xlink:href="likely_8hpp.html" target="_top" xlink:title="tlx/define/likely.hpp">
<polygon fill="none" stroke="black" points="738.134,-7.5 738.134,-28.5 839.134,-28.5 839.134,-7.5 738.134,-7.5"/>
<text text-anchor="middle" x="788.634" y="-15.5" font-family="Helvetica,sans-Serif" font-size="10.00">tlx/define/likely.hpp</text>
</a>
</g>
<!-- Node6&#45;&gt;Node11 -->
<g id="edge20" class="edge"><title>Node6&#45;&gt;Node11</title>
<path fill="none" stroke="midnightblue" d="M565.284,-73.9711C568.109,-73.3015 570.916,-72.6385 573.634,-72 642.904,-55.7254 660.897,-54.3929 729.634,-36 734.871,-34.5986 740.345,-33.0476 745.756,-31.4608"/>
<polygon fill="midnightblue" stroke="midnightblue" points="746.784,-34.8066 755.364,-28.5909 744.78,-28.0994 746.784,-34.8066"/>
</g>
<!-- Node21&#45;&gt;Node15 -->
<g id="edge42" class="edge"><title>Node21&#45;&gt;Node15</title>
<path fill="none" stroke="midnightblue" d="M554.823,-130.362C563.593,-122.023 575.983,-110.242 586.212,-100.516"/>
<polygon fill="midnightblue" stroke="midnightblue" points="588.681,-102.998 593.517,-93.5707 583.858,-97.9248 588.681,-102.998"/>
</g>
<!-- Node23 -->
<g id="node46" class="node"><title>Node23</title>
<polygon fill="none" stroke="#bfbfbf" points="1051.63,-72.5 1051.63,-93.5 1107.63,-93.5 1107.63,-72.5 1051.63,-72.5"/>
<text text-anchor="middle" x="1079.63" y="-80.5" font-family="Helvetica,sans-Serif" font-size="10.00">algorithm</text>
</g>
<!-- Node22&#45;&gt;Node23 -->
<g id="edge46" class="edge"><title>Node22&#45;&gt;Node23</title>
<path fill="none" stroke="midnightblue" d="M1229.49,-130.497C1197.94,-120.497 1150.51,-105.462 1117.48,-94.996"/>
<polygon fill="midnightblue" stroke="midnightblue" points="1118.32,-91.5901 1107.73,-91.9052 1116.21,-98.263 1118.32,-91.5901"/>
</g>
<!-- Node22&#45;&gt;Node24 -->
<g id="edge48" class="edge"><title>Node22&#45;&gt;Node24</title>
<path fill="none" stroke="midnightblue" d="M1255.66,-130.362C1250.47,-122.431 1243.23,-111.389 1237.06,-101.961"/>
<polygon fill="midnightblue" stroke="midnightblue" points="1239.97,-100.017 1231.56,-93.5707 1234.11,-103.853 1239.97,-100.017"/>
</g>
<!-- Node22&#45;&gt;Node25 -->
<g id="edge50" class="edge"><title>Node22&#45;&gt;Node25</title>
<path fill="none" stroke="midnightblue" d="M1278.59,-130.362C1291.59,-121.696 1310.17,-109.313 1325.06,-99.3819"/>
<polygon fill="midnightblue" stroke="midnightblue" points="1327.4,-102.03 1333.78,-93.5707 1323.52,-96.2055 1327.4,-102.03"/>
</g>
<!-- Node27 -->
<g id="node54" class="node"><title>Node27</title>
<polygon fill="none" stroke="#bfbfbf" points="706.134,-72.5 706.134,-93.5 755.134,-93.5 755.134,-72.5 706.134,-72.5"/>
<text text-anchor="middle" x="730.634" y="-80.5" font-family="Helvetica,sans-Serif" font-size="10.00">cstddef</text>
</g>
<!-- Node26&#45;&gt;Node27 -->
<g id="edge54" class="edge"><title>Node26&#45;&gt;Node27</title>
<path fill="none" stroke="midnightblue" d="M852.651,-130.497C828.004,-120.902 791.447,-106.672 764.775,-96.2896"/>
<polygon fill="midnightblue" stroke="midnightblue" points="766.024,-93.0203 755.436,-92.6543 763.485,-99.5435 766.024,-93.0203"/>
</g>
<!-- Node26&#45;&gt;Node28 -->
<g id="edge56" class="edge"><title>Node26&#45;&gt;Node28</title>
<path fill="none" stroke="midnightblue" d="M864.778,-130.362C852.789,-121.777 835.707,-109.546 821.906,-99.6636"/>
<polygon fill="midnightblue" stroke="midnightblue" points="823.565,-96.5469 813.397,-93.5707 819.49,-102.238 823.565,-96.5469"/>
</g>
<!-- Node26&#45;&gt;Node29 -->
<g id="edge58" class="edge"><title>Node26&#45;&gt;Node29</title>
<path fill="none" stroke="midnightblue" d="M898.526,-130.362C914.352,-121.45 937.157,-108.609 955.029,-98.5447"/>
<polygon fill="midnightblue" stroke="midnightblue" points="956.866,-101.527 963.862,-93.5707 953.431,-95.4276 956.866,-101.527"/>
</g>
<!-- Node33&#45;&gt;Node4 -->
<g id="edge98" class="edge"><title>Node33&#45;&gt;Node4</title>
<path fill="none" stroke="midnightblue" d="M502.447,-267.776C593.49,-261.573 792.754,-246.565 959.634,-224 972.996,-222.193 987.288,-219.881 1000.79,-217.52"/>
<polygon fill="midnightblue" stroke="midnightblue" points="1001.7,-220.913 1010.93,-215.713 1000.47,-214.021 1001.7,-220.913"/>
</g>
<!-- Node33&#45;&gt;Node19 -->
<g id="edge110" class="edge"><title>Node33&#45;&gt;Node19</title>
<path fill="none" stroke="midnightblue" d="M403.06,-268.547C324.927,-263.886 177.508,-251.635 133.634,-224 87.6343,-195.026 58.6508,-134.76 46.0088,-103.225"/>
<polygon fill="midnightblue" stroke="midnightblue" points="49.2077,-101.792 42.347,-93.7187 42.6755,-104.308 49.2077,-101.792"/>
</g>
<!-- Node33&#45;&gt;Node20 -->
<g id="edge116" class="edge"><title>Node33&#45;&gt;Node20</title>
<path fill="none" stroke="midnightblue" d="M453.949,-260.188C455.066,-250.671 456.643,-236.433 457.634,-224 458.465,-213.574 455.821,-137.936 462.634,-130 511.792,-72.7376 556.39,-111.842 634.682,-93.792"/>
<polygon fill="midnightblue" stroke="midnightblue" points="635.584,-97.174 644.399,-91.2971 633.843,-90.3939 635.584,-97.174"/>
</g>
<!-- Node33&#45;&gt;Node23 -->
<g id="edge100" class="edge"><title>Node33&#45;&gt;Node23</title>
<path fill="none" stroke="midnightblue" d="M502.373,-269.345C572.913,-265.921 705.47,-255.502 813.634,-224 886.176,-202.873 901.139,-187.874 967.634,-152 998.549,-135.321 1032.75,-113.777 1055.12,-99.2339"/>
<polygon fill="midnightblue" stroke="midnightblue" points="1057.2,-102.055 1063.66,-93.6526 1053.37,-96.196 1057.2,-102.055"/>
</g>
<!-- Node33&#45;&gt;Node27 -->
<g id="edge102" class="edge"><title>Node33&#45;&gt;Node27</title>
<path fill="none" stroke="midnightblue" d="M468.377,-260.354C514.728,-229.009 650.926,-136.903 706.552,-99.2856"/>
<polygon fill="midnightblue" stroke="midnightblue" points="708.741,-102.031 715.064,-93.5296 704.82,-96.2322 708.741,-102.031"/>
</g>
<!-- Node33&#45;&gt;Node28 -->
<g id="edge106" class="edge"><title>Node33&#45;&gt;Node28</title>
<path fill="none" stroke="midnightblue" d="M479.96,-260.366C502.282,-251.407 534.468,-237.864 561.634,-224 641.49,-183.245 731.331,-126.669 773.82,-99.2238"/>
<polygon fill="midnightblue" stroke="midnightblue" points="775.899,-102.047 782.386,-93.6707 772.091,-96.1737 775.899,-102.047"/>
</g>
<!-- Node33&#45;&gt;Node29 -->
<g id="edge112" class="edge"><title>Node33&#45;&gt;Node29</title>
<path fill="none" stroke="midnightblue" d="M502.523,-264.127C613.136,-248.078 874.713,-205.415 944.634,-152 960.528,-139.858 970.664,-119.07 976.434,-103.477"/>
<polygon fill="midnightblue" stroke="midnightblue" points="979.858,-104.276 979.748,-93.682 973.227,-102.033 979.858,-104.276"/>
</g>
<!-- Node34 -->
<g id="node82" class="node"><title>Node34</title>
<a xlink:href="config_8hpp.html" target="_top" xlink:title="thrill/common/config.hpp">
<polygon fill="none" stroke="black" points="142.134,-195.5 142.134,-216.5 265.134,-216.5 265.134,-195.5 142.134,-195.5"/>
<text text-anchor="middle" x="203.634" y="-203.5" font-family="Helvetica,sans-Serif" font-size="10.00">thrill/common/config.hpp</text>
</a>
</g>
<!-- Node33&#45;&gt;Node34 -->
<g id="edge96" class="edge"><title>Node33&#45;&gt;Node34</title>
<path fill="none" stroke="midnightblue" d="M412.351,-260.484C369.137,-249.204 300.439,-231.27 253.76,-219.085"/>
<polygon fill="midnightblue" stroke="midnightblue" points="254.419,-215.64 243.859,-216.501 252.651,-222.413 254.419,-215.64"/>
</g>
<!-- Node35 -->
<g id="node87" class="node"><title>Node35</title>
<polygon fill="none" stroke="#bfbfbf" points="282.634,-195.5 282.634,-216.5 328.634,-216.5 328.634,-195.5 282.634,-195.5"/>
<text text-anchor="middle" x="305.634" y="-203.5" font-family="Helvetica,sans-Serif" font-size="10.00">cstdint</text>
</g>
<!-- Node33&#45;&gt;Node35 -->
<g id="edge104" class="edge"><title>Node33&#45;&gt;Node35</title>
<path fill="none" stroke="midnightblue" d="M423.847,-260.379C400.32,-251.428 366.375,-237.89 337.634,-224 336.056,-223.237 334.448,-222.431 332.834,-221.598"/>
<polygon fill="midnightblue" stroke="midnightblue" points="334.166,-218.341 323.702,-216.679 330.846,-224.503 334.166,-218.341"/>
</g>
<!-- Node36 -->
<g id="node90" class="node"><title>Node36</title>
<polygon fill="none" stroke="#bfbfbf" points="346.634,-195.5 346.634,-216.5 390.634,-216.5 390.634,-195.5 346.634,-195.5"/>
<text text-anchor="middle" x="368.634" y="-203.5" font-family="Helvetica,sans-Serif" font-size="10.00">mutex</text>
</g>
<!-- Node33&#45;&gt;Node36 -->
<g id="edge108" class="edge"><title>Node33&#45;&gt;Node36</title>
<path fill="none" stroke="midnightblue" d="M438.763,-260.267C425.553,-250.044 405.471,-234.504 390.177,-222.67"/>
<polygon fill="midnightblue" stroke="midnightblue" points="392.298,-219.886 382.247,-216.534 388.014,-225.422 392.298,-219.886"/>
</g>
<!-- Node37 -->
<g id="node94" class="node"><title>Node37</title>
<polygon fill="none" stroke="#bfbfbf" points="408.634,-195.5 408.634,-216.5 448.634,-216.5 448.634,-195.5 408.634,-195.5"/>
<text text-anchor="middle" x="428.634" y="-203.5" font-family="Helvetica,sans-Serif" font-size="10.00">utility</text>
</g>
<!-- Node33&#45;&gt;Node37 -->
<g id="edge114" class="edge"><title>Node33&#45;&gt;Node37</title>
<path fill="none" stroke="midnightblue" d="M448.671,-260.267C445.246,-250.991 440.205,-237.336 436.036,-226.045"/>
<polygon fill="midnightblue" stroke="midnightblue" points="439.271,-224.702 432.524,-216.534 432.704,-227.127 439.271,-224.702"/>
</g>
</g>
</svg>
