<?xml version="1.0" encoding="UTF-8" standalone="no"?>
<!DOCTYPE svg PUBLIC "-//W3C//DTD SVG 1.1//EN"
 "http://www.w3.org/Graphics/SVG/1.1/DTD/svg11.dtd">
<!-- Generated by graphviz version 2.36.0 (20140111.2315)
 -->
<!-- Title: thrill/common/porting.hpp Pages: 1 -->
<svg width="1507pt" height="388pt"
 viewBox="0.00 0.00 1506.58 388.00" xmlns="http://www.w3.org/2000/svg" xmlns:xlink="http://www.w3.org/1999/xlink">
<g id="graph0" class="graph" transform="scale(1 1) rotate(0) translate(4 384)">
<title>thrill/common/porting.hpp</title>
<!-- Node1 -->
<g id="node1" class="node"><title>Node1</title>
<polygon fill="#bfbfbf" stroke="black" points="85.4325,-360.5 85.4325,-379.5 211.433,-379.5 211.433,-360.5 85.4325,-360.5"/>
<text text-anchor="middle" x="148.433" y="-367.5" font-family="Helvetica,sans-Serif" font-size="10.00">thrill/common/porting.hpp</text>
</g>
<!-- Node2 -->
<g id="node2" class="node"><title>Node2</title>
<g id="a_node2"><a xlink:href="thrill_2common_2logger_8hpp.html" target="_top" xlink:title="thrill/common/logger.hpp">
<polygon fill="none" stroke="black" points="28.9325,-304.5 28.9325,-323.5 151.933,-323.5 151.933,-304.5 28.9325,-304.5"/>
<text text-anchor="middle" x="90.4325" y="-311.5" font-family="Helvetica,sans-Serif" font-size="10.00">thrill/common/logger.hpp</text>
</a>
</g>
</g>
<!-- Node1&#45;&gt;Node2 -->
<g id="edge1" class="edge"><title>Node1&#45;&gt;Node2</title>
<path fill="none" stroke="midnightblue" d="M139.114,-360.324C130.54,-352.341 117.62,-340.313 107.245,-330.653"/>
<polygon fill="midnightblue" stroke="midnightblue" points="109.625,-328.086 99.9208,-323.834 104.855,-333.21 109.625,-328.086"/>
</g>
<!-- Node20 -->
<g id="node20" class="node"><title>Node20</title>
<polygon fill="none" stroke="#bfbfbf" points="17.9325,-68.5 17.9325,-87.5 58.9325,-87.5 58.9325,-68.5 17.9325,-68.5"/>
<text text-anchor="middle" x="38.4325" y="-75.5" font-family="Helvetica,sans-Serif" font-size="10.00">string</text>
</g>
<!-- Node1&#45;&gt;Node20 -->
<g id="edge62" class="edge"><title>Node1&#45;&gt;Node20</title>
<path fill="none" stroke="midnightblue" d="M88.6114,-360.415C64.2273,-354.083 37.5664,-343.088 19.4325,-324 -1.29751,-302.179 0.432504,-289.098 0.432504,-259 0.432504,-259 0.432504,-259 0.432504,-195 0.432504,-158.613 17.5271,-118.853 28.7852,-96.6136"/>
<polygon fill="midnightblue" stroke="midnightblue" points="31.9136,-98.1842 33.4647,-87.7035 25.7163,-94.9294 31.9136,-98.1842"/>
</g>
<!-- Node39 -->
<g id="node39" class="node"><title>Node39</title>
<polygon fill="none" stroke="#bfbfbf" points="170.433,-304.5 170.433,-323.5 244.433,-323.5 244.433,-304.5 170.433,-304.5"/>
<text text-anchor="middle" x="207.433" y="-311.5" font-family="Helvetica,sans-Serif" font-size="10.00">system_error</text>
</g>
<!-- Node1&#45;&gt;Node39 -->
<g id="edge63" class="edge"><title>Node1&#45;&gt;Node39</title>
<path fill="none" stroke="midnightblue" d="M157.912,-360.324C166.634,-352.341 179.776,-340.313 190.33,-330.653"/>
<polygon fill="midnightblue" stroke="midnightblue" points="192.767,-333.167 197.781,-323.834 188.041,-328.004 192.767,-333.167"/>
</g>
<!-- Node40 -->
<g id="node40" class="node"><title>Node40</title>
<polygon fill="none" stroke="#bfbfbf" points="262.433,-304.5 262.433,-323.5 306.433,-323.5 306.433,-304.5 262.433,-304.5"/>
<text text-anchor="middle" x="284.433" y="-311.5" font-family="Helvetica,sans-Serif" font-size="10.00">thread</text>
</g>
<!-- Node1&#45;&gt;Node40 -->
<g id="edge64" class="edge"><title>Node1&#45;&gt;Node40</title>
<path fill="none" stroke="midnightblue" d="M169.982,-360.444C192.464,-351.517 227.92,-337.439 253.412,-327.317"/>
<polygon fill="midnightblue" stroke="midnightblue" points="254.981,-330.46 262.984,-323.516 252.398,-323.954 254.981,-330.46"/>
</g>
<!-- Node3 -->
<g id="node3" class="node"><title>Node3</title>
<g id="a_node3"><a xlink:href="allocator_8hpp.html" target="_top" xlink:title="thrill/mem/allocator.hpp">
<polygon fill="none" stroke="black" points="1085.43,-248.5 1085.43,-267.5 1203.43,-267.5 1203.43,-248.5 1085.43,-248.5"/>
<text text-anchor="middle" x="1144.43" y="-255.5" font-family="Helvetica,sans-Serif" font-size="10.00">thrill/mem/allocator.hpp</text>
</a>
</g>
</g>
<!-- Node2&#45;&gt;Node3 -->
<g id="edge2" class="edge"><title>Node2&#45;&gt;Node3</title>
<path fill="none" stroke="midnightblue" d="M151.974,-304.892C155.17,-304.567 158.338,-304.267 161.433,-304 503.488,-274.539 914.274,-263.602 1075.09,-260.26"/>
<polygon fill="midnightblue" stroke="midnightblue" points="1075.4,-263.755 1085.32,-260.051 1075.25,-256.756 1075.4,-263.755"/>
</g>
<!-- Node19 -->
<g id="node19" class="node"><title>Node19</title>
<polygon fill="none" stroke="#bfbfbf" points="77.4325,-68.5 77.4325,-87.5 129.433,-87.5 129.433,-68.5 77.4325,-68.5"/>
<text text-anchor="middle" x="103.433" y="-75.5" font-family="Helvetica,sans-Serif" font-size="10.00">sstream</text>
</g>
<!-- Node2&#45;&gt;Node19 -->
<g id="edge60" class="edge"><title>Node2&#45;&gt;Node19</title>
<path fill="none" stroke="midnightblue" d="M90.9106,-304.394C92.7896,-270.573 99.6946,-146.281 102.367,-98.1838"/>
<polygon fill="midnightblue" stroke="midnightblue" points="105.876,-98.1127 102.936,-87.9339 98.8868,-97.7244 105.876,-98.1127"/>
</g>
<!-- Node2&#45;&gt;Node20 -->
<g id="edge61" class="edge"><title>Node2&#45;&gt;Node20</title>
<path fill="none" stroke="midnightblue" d="M88.5201,-304.394C80.9884,-270.502 53.2671,-145.756 42.628,-97.8798"/>
<polygon fill="midnightblue" stroke="midnightblue" points="46.0039,-96.9365 40.4178,-87.9339 39.1705,-98.4551 46.0039,-96.9365"/>
</g>
<!-- Node34 -->
<g id="node34" class="node"><title>Node34</title>
<g id="a_node34"><a xlink:href="pool_8hpp.html" target="_top" xlink:title="thrill/mem/pool.hpp">
<polygon fill="none" stroke="black" points="404.933,-248.5 404.933,-267.5 503.933,-267.5 503.933,-248.5 404.933,-248.5"/>
<text text-anchor="middle" x="454.433" y="-255.5" font-family="Helvetica,sans-Serif" font-size="10.00">thrill/mem/pool.hpp</text>
</a>
</g>
</g>
<!-- Node2&#45;&gt;Node34 -->
<g id="edge48" class="edge"><title>Node2&#45;&gt;Node34</title>
<path fill="none" stroke="midnightblue" d="M148.109,-304.444C215.514,-294.444 326.497,-277.979 394.751,-267.854"/>
<polygon fill="midnightblue" stroke="midnightblue" points="395.535,-271.276 404.913,-266.346 394.508,-264.352 395.535,-271.276"/>
</g>
<!-- Node4 -->
<g id="node4" class="node"><title>Node4</title>
<g id="a_node4"><a xlink:href="thrill_2mem_2allocator__base_8hpp.html" target="_top" xlink:title="thrill/mem/allocator\l_base.hpp">
<polygon fill="none" stroke="black" points="1016.93,-181 1016.93,-211 1115.93,-211 1115.93,-181 1016.93,-181"/>
<text text-anchor="start" x="1024.93" y="-199" font-family="Helvetica,sans-Serif" font-size="10.00">thrill/mem/allocator</text>
<text text-anchor="middle" x="1066.43" y="-188" font-family="Helvetica,sans-Serif" font-size="10.00">_base.hpp</text>
</a>
</g>
</g>
<!-- Node3&#45;&gt;Node4 -->
<g id="edge3" class="edge"><title>Node3&#45;&gt;Node4</title>
<path fill="none" stroke="midnightblue" d="M1133.26,-248.403C1122.79,-240.353 1106.75,-228.013 1093.01,-217.441"/>
<polygon fill="midnightblue" stroke="midnightblue" points="1094.88,-214.464 1084.82,-211.141 1090.61,-220.012 1094.88,-214.464"/>
</g>
<!-- Node3&#45;&gt;Node20 -->
<g id="edge45" class="edge"><title>Node3&#45;&gt;Node20</title>
<path fill="none" stroke="midnightblue" d="M1085.21,-250.979C911.696,-233.115 406.543,-179.448 244.433,-144 180.735,-130.072 108.539,-105.081 68.7703,-90.4781"/>
<polygon fill="midnightblue" stroke="midnightblue" points="69.742,-87.1058 59.1489,-86.9151 67.311,-93.6701 69.742,-87.1058"/>
</g>
<!-- Node21 -->
<g id="node21" class="node"><title>Node21</title>
<polygon fill="none" stroke="#bfbfbf" points="651.433,-68.5 651.433,-87.5 695.433,-87.5 695.433,-68.5 651.433,-68.5"/>
<text text-anchor="middle" x="673.433" y="-75.5" font-family="Helvetica,sans-Serif" font-size="10.00">vector</text>
</g>
<!-- Node3&#45;&gt;Node21 -->
<g id="edge47" class="edge"><title>Node3&#45;&gt;Node21</title>
<path fill="none" stroke="midnightblue" d="M1085.27,-255.56C1026.1,-252.327 933.486,-242.326 859.433,-212 789.251,-183.26 720.235,-123.349 689.727,-94.7939"/>
<polygon fill="midnightblue" stroke="midnightblue" points="691.837,-91.9705 682.175,-87.6234 687.017,-97.047 691.837,-91.9705"/>
</g>
<!-- Node23 -->
<g id="node23" class="node"><title>Node23</title>
<g id="a_node23"><a xlink:href="mem_2manager_8hpp.html" target="_top" xlink:title="thrill/mem/manager.hpp">
<polygon fill="none" stroke="black" points="1210.93,-124.5 1210.93,-143.5 1329.93,-143.5 1329.93,-124.5 1210.93,-124.5"/>
<text text-anchor="middle" x="1270.43" y="-131.5" font-family="Helvetica,sans-Serif" font-size="10.00">thrill/mem/manager.hpp</text>
</a>
</g>
</g>
<!-- Node3&#45;&gt;Node23 -->
<g id="edge39" class="edge"><title>Node3&#45;&gt;Node23</title>
<path fill="none" stroke="midnightblue" d="M1155.04,-248.31C1165.73,-239.441 1182.58,-225.15 1196.43,-212 1217.73,-191.783 1241,-167.107 1255.65,-151.229"/>
<polygon fill="midnightblue" stroke="midnightblue" points="1258.29,-153.532 1262.47,-143.798 1253.13,-148.8 1258.29,-153.532"/>
</g>
<!-- Node26 -->
<g id="node26" class="node"><title>Node26</title>
<polygon fill="none" stroke="#bfbfbf" points="1333.93,-68.5 1333.93,-87.5 1382.93,-87.5 1382.93,-68.5 1333.93,-68.5"/>
<text text-anchor="middle" x="1358.43" y="-75.5" font-family="Helvetica,sans-Serif" font-size="10.00">cassert</text>
</g>
<!-- Node3&#45;&gt;Node26 -->
<g id="edge40" class="edge"><title>Node3&#45;&gt;Node26</title>
<path fill="none" stroke="midnightblue" d="M1195.55,-248.497C1284.35,-232.509 1460.78,-194.936 1493.43,-144 1518.81,-104.419 1441.06,-88.3282 1393.16,-82.2878"/>
<polygon fill="midnightblue" stroke="midnightblue" points="1393.48,-78.8024 1383.14,-81.1152 1392.67,-85.7549 1393.48,-78.8024"/>
</g>
<!-- Node29 -->
<g id="node29" class="node"><title>Node29</title>
<polygon fill="none" stroke="#bfbfbf" points="781.433,-68.5 781.433,-87.5 833.433,-87.5 833.433,-68.5 781.433,-68.5"/>
<text text-anchor="middle" x="807.433" y="-75.5" font-family="Helvetica,sans-Serif" font-size="10.00">memory</text>
</g>
<!-- Node3&#45;&gt;Node29 -->
<g id="edge43" class="edge"><title>Node3&#45;&gt;Node29</title>
<path fill="none" stroke="midnightblue" d="M1085.17,-253.928C1011.19,-246.723 886.257,-222.833 819.433,-144 808.659,-131.291 806.246,-112.09 806.176,-97.8495"/>
<polygon fill="midnightblue" stroke="midnightblue" points="809.678,-97.8193 806.506,-87.7105 802.682,-97.591 809.678,-97.8193"/>
</g>
<!-- Node30 -->
<g id="node30" class="node"><title>Node30</title>
<polygon fill="none" stroke="#bfbfbf" points="956.433,-68.5 956.433,-87.5 1018.43,-87.5 1018.43,-68.5 956.433,-68.5"/>
<text text-anchor="middle" x="987.433" y="-75.5" font-family="Helvetica,sans-Serif" font-size="10.00">type_traits</text>
</g>
<!-- Node3&#45;&gt;Node30 -->
<g id="edge46" class="edge"><title>Node3&#45;&gt;Node30</title>
<path fill="none" stroke="midnightblue" d="M1149.41,-248.437C1161.98,-225.55 1191.99,-162.117 1162.43,-124 1154.15,-113.325 1077.79,-96.6426 1028.71,-86.8699"/>
<polygon fill="midnightblue" stroke="midnightblue" points="1029.17,-83.394 1018.69,-84.8941 1027.82,-90.2619 1029.17,-83.394"/>
</g>
<!-- Node31 -->
<g id="node31" class="node"><title>Node31</title>
<polygon fill="none" stroke="#bfbfbf" points="1110.93,-124.5 1110.93,-143.5 1153.93,-143.5 1153.93,-124.5 1110.93,-124.5"/>
<text text-anchor="middle" x="1132.43" y="-131.5" font-family="Helvetica,sans-Serif" font-size="10.00">deque</text>
</g>
<!-- Node3&#45;&gt;Node31 -->
<g id="edge41" class="edge"><title>Node3&#45;&gt;Node31</title>
<path fill="none" stroke="midnightblue" d="M1143.57,-248.226C1141.63,-228.53 1136.9,-180.437 1134.27,-153.7"/>
<polygon fill="midnightblue" stroke="midnightblue" points="1137.75,-153.304 1133.29,-143.694 1130.78,-153.989 1137.75,-153.304"/>
</g>
<!-- Node32 -->
<g id="node32" class="node"><title>Node32</title>
<polygon fill="none" stroke="#bfbfbf" points="1386.93,-124.5 1386.93,-143.5 1431.93,-143.5 1431.93,-124.5 1386.93,-124.5"/>
<text text-anchor="middle" x="1409.43" y="-131.5" font-family="Helvetica,sans-Serif" font-size="10.00">iosfwd</text>
</g>
<!-- Node3&#45;&gt;Node32 -->
<g id="edge42" class="edge"><title>Node3&#45;&gt;Node32</title>
<path fill="none" stroke="midnightblue" d="M1163.07,-248.421C1208.87,-227.333 1327.18,-172.868 1381.46,-147.878"/>
<polygon fill="midnightblue" stroke="midnightblue" points="1383.2,-150.931 1390.82,-143.569 1380.27,-144.572 1383.2,-150.931"/>
</g>
<!-- Node33 -->
<g id="node33" class="node"><title>Node33</title>
<polygon fill="none" stroke="#bfbfbf" points="1449.93,-124.5 1449.93,-143.5 1484.93,-143.5 1484.93,-124.5 1449.93,-124.5"/>
<text text-anchor="middle" x="1467.43" y="-131.5" font-family="Helvetica,sans-Serif" font-size="10.00">new</text>
</g>
<!-- Node3&#45;&gt;Node33 -->
<g id="edge44" class="edge"><title>Node3&#45;&gt;Node33</title>
<path fill="none" stroke="midnightblue" d="M1176.04,-248.466C1206.05,-240.096 1252.26,-226.508 1291.43,-212 1345.23,-192.072 1406.2,-164.159 1440.41,-147.989"/>
<polygon fill="midnightblue" stroke="midnightblue" points="1442.19,-151.016 1449.72,-143.563 1439.19,-144.693 1442.19,-151.016"/>
</g>
<!-- Node5 -->
<g id="node5" class="node"><title>Node5</title>
<g id="a_node5"><a xlink:href="thrill_2common_2string_8hpp.html" target="_top" xlink:title="thrill/common/string.hpp">
<polygon fill="none" stroke="black" points="296.933,-124.5 296.933,-143.5 417.933,-143.5 417.933,-124.5 296.933,-124.5"/>
<text text-anchor="middle" x="357.433" y="-131.5" font-family="Helvetica,sans-Serif" font-size="10.00">thrill/common/string.hpp</text>
</a>
</g>
</g>
<!-- Node4&#45;&gt;Node5 -->
<g id="edge4" class="edge"><title>Node4&#45;&gt;Node5</title>
<path fill="none" stroke="midnightblue" d="M1016.86,-190.805C893.346,-180.352 571.557,-153.121 428.164,-140.986"/>
<polygon fill="midnightblue" stroke="midnightblue" points="428.413,-137.494 418.153,-140.139 427.822,-144.469 428.413,-137.494"/>
</g>
<!-- Node4&#45;&gt;Node20 -->
<g id="edge36" class="edge"><title>Node4&#45;&gt;Node20</title>
<path fill="none" stroke="midnightblue" d="M1016.85,-194.137C867.943,-191.17 426.372,-179.531 287.433,-144 267.012,-138.778 264.449,-130.601 244.433,-124 171.57,-99.9706 147.717,-106.878 68.9116,-87.8896"/>
<polygon fill="midnightblue" stroke="midnightblue" points="69.5699,-84.4469 59.0218,-85.4417 67.888,-91.2419 69.5699,-84.4469"/>
</g>
<!-- Node4&#45;&gt;Node21 -->
<g id="edge38" class="edge"><title>Node4&#45;&gt;Node21</title>
<path fill="none" stroke="midnightblue" d="M1016.89,-187.988C966.435,-180.104 886.333,-165.522 819.433,-144 775.723,-129.939 727.513,-106.895 698.887,-92.3573"/>
<polygon fill="midnightblue" stroke="midnightblue" points="700.113,-89.0522 689.618,-87.5987 696.916,-95.2795 700.113,-89.0522"/>
</g>
<!-- Node22 -->
<g id="node22" class="node"><title>Node22</title>
<g id="a_node22"><a xlink:href="malloc__tracker_8hpp.html" target="_top" xlink:title="thrill/mem/malloc_tracker.hpp">
<polygon fill="none" stroke="black" points="474.933,-124.5 474.933,-143.5 619.933,-143.5 619.933,-124.5 474.933,-124.5"/>
<text text-anchor="middle" x="547.433" y="-131.5" font-family="Helvetica,sans-Serif" font-size="10.00">thrill/mem/malloc_tracker.hpp</text>
</a>
</g>
</g>
<!-- Node4&#45;&gt;Node22 -->
<g id="edge21" class="edge"><title>Node4&#45;&gt;Node22</title>
<path fill="none" stroke="midnightblue" d="M1016.67,-189.247C927.359,-178.922 739.053,-157.153 630.09,-144.556"/>
<polygon fill="midnightblue" stroke="midnightblue" points="630.458,-141.075 620.122,-143.403 629.654,-148.029 630.458,-141.075"/>
</g>
<!-- Node4&#45;&gt;Node23 -->
<g id="edge23" class="edge"><title>Node4&#45;&gt;Node23</title>
<path fill="none" stroke="midnightblue" d="M1114.26,-180.933C1150.01,-170.417 1198.28,-156.222 1231.64,-146.409"/>
<polygon fill="midnightblue" stroke="midnightblue" points="1232.88,-149.692 1241.49,-143.513 1230.91,-142.977 1232.88,-149.692"/>
</g>
<!-- Node25 -->
<g id="node25" class="node"><title>Node25</title>
<polygon fill="none" stroke="#bfbfbf" points="1208.43,-68.5 1208.43,-87.5 1254.43,-87.5 1254.43,-68.5 1208.43,-68.5"/>
<text text-anchor="middle" x="1231.43" y="-75.5" font-family="Helvetica,sans-Serif" font-size="10.00">atomic</text>
</g>
<!-- Node4&#45;&gt;Node25 -->
<g id="edge31" class="edge"><title>Node4&#45;&gt;Node25</title>
<path fill="none" stroke="midnightblue" d="M1069.94,-180.729C1074.57,-164.773 1084.22,-139.185 1101.43,-124 1128.71,-99.9333 1169.54,-88.5753 1198.14,-83.3226"/>
<polygon fill="midnightblue" stroke="midnightblue" points="1198.8,-86.7614 1208.08,-81.6514 1197.64,-79.8583 1198.8,-86.7614"/>
</g>
<!-- Node4&#45;&gt;Node26 -->
<g id="edge32" class="edge"><title>Node4&#45;&gt;Node26</title>
<path fill="none" stroke="midnightblue" d="M1116.17,-191.753C1185.48,-186.237 1306.27,-172.718 1338.43,-144 1351.49,-132.345 1356.13,-112.397 1357.72,-97.6658"/>
<polygon fill="midnightblue" stroke="midnightblue" points="1361.22,-97.865 1358.44,-87.6414 1354.24,-97.3672 1361.22,-97.865"/>
</g>
<!-- Node27 -->
<g id="node27" class="node"><title>Node27</title>
<g id="a_node27"><a xlink:href="extlib_2tlx_2tlx_2allocator__base_8hpp.html" target="_top" xlink:title="tlx/allocator_base.hpp">
<polygon fill="none" stroke="black" points="828.433,-124.5 828.433,-143.5 940.433,-143.5 940.433,-124.5 828.433,-124.5"/>
<text text-anchor="middle" x="884.433" y="-131.5" font-family="Helvetica,sans-Serif" font-size="10.00">tlx/allocator_base.hpp</text>
</a>
</g>
</g>
<!-- Node4&#45;&gt;Node27 -->
<g id="edge27" class="edge"><title>Node4&#45;&gt;Node27</title>
<path fill="none" stroke="midnightblue" d="M1023.76,-180.933C992.139,-170.508 949.548,-156.467 919.812,-146.663"/>
<polygon fill="midnightblue" stroke="midnightblue" points="920.847,-143.32 910.254,-143.513 918.656,-149.968 920.847,-143.32"/>
</g>
<!-- Node4&#45;&gt;Node30 -->
<g id="edge37" class="edge"><title>Node4&#45;&gt;Node30</title>
<path fill="none" stroke="midnightblue" d="M1056.75,-180.776C1042.19,-159.401 1014.71,-119.06 999.084,-96.1083"/>
<polygon fill="midnightblue" stroke="midnightblue" points="1001.88,-94.0021 993.362,-87.707 996.098,-97.9424 1001.88,-94.0021"/>
</g>
<!-- Node4&#45;&gt;Node31 -->
<g id="edge33" class="edge"><title>Node4&#45;&gt;Node31</title>
<path fill="none" stroke="midnightblue" d="M1082.07,-180.781C1092.06,-171.703 1105.01,-159.929 1115.28,-150.595"/>
<polygon fill="midnightblue" stroke="midnightblue" points="1117.78,-153.047 1122.83,-143.731 1113.08,-147.867 1117.78,-153.047"/>
</g>
<!-- Node4&#45;&gt;Node32 -->
<g id="edge34" class="edge"><title>Node4&#45;&gt;Node32</title>
<path fill="none" stroke="midnightblue" d="M1116.19,-187.855C1176.92,-178.873 1282.6,-162.385 1372.43,-144 1373.89,-143.702 1375.38,-143.386 1376.88,-143.059"/>
<polygon fill="midnightblue" stroke="midnightblue" points="1377.83,-146.432 1386.79,-140.786 1376.26,-139.609 1377.83,-146.432"/>
</g>
<!-- Node4&#45;&gt;Node33 -->
<g id="edge35" class="edge"><title>Node4&#45;&gt;Node33</title>
<path fill="none" stroke="midnightblue" d="M1115.97,-191.202C1186.18,-185.171 1318.64,-171.412 1440.01,-143.669"/>
<polygon fill="midnightblue" stroke="midnightblue" points="1440.9,-147.056 1449.85,-141.384 1439.32,-140.238 1440.9,-147.056"/>
</g>
<!-- Node6 -->
<g id="node6" class="node"><title>Node6</title>
<g id="a_node6"><a xlink:href="define_8hpp.html" target="_top" xlink:title="tlx/define.hpp">
<polygon fill="none" stroke="black" points="494.933,-68.5 494.933,-87.5 569.933,-87.5 569.933,-68.5 494.933,-68.5"/>
<text text-anchor="middle" x="532.433" y="-75.5" font-family="Helvetica,sans-Serif" font-size="10.00">tlx/define.hpp</text>
</a>
</g>
</g>
<!-- Node5&#45;&gt;Node6 -->
<g id="edge5" class="edge"><title>Node5&#45;&gt;Node6</title>
<path fill="none" stroke="midnightblue" d="M385.162,-124.444C414.858,-115.28 462.149,-100.688 495.102,-90.5192"/>
<polygon fill="midnightblue" stroke="midnightblue" points="496.31,-93.8094 504.833,-87.5164 494.246,-87.1206 496.31,-93.8094"/>
</g>
<!-- Node13 -->
<g id="node13" class="node"><title>Node13</title>
<g id="a_node13"><a xlink:href="unused_8hpp.html" target="_top" xlink:title="tlx/unused.hpp">
<polygon fill="none" stroke="black" points="147.433,-68.5 147.433,-87.5 227.433,-87.5 227.433,-68.5 147.433,-68.5"/>
<text text-anchor="middle" x="187.433" y="-75.5" font-family="Helvetica,sans-Serif" font-size="10.00">tlx/unused.hpp</text>
</a>
</g>
</g>
<!-- Node5&#45;&gt;Node13 -->
<g id="edge12" class="edge"><title>Node5&#45;&gt;Node13</title>
<path fill="none" stroke="midnightblue" d="M330.495,-124.444C301.772,-115.32 256.104,-100.813 224.111,-90.6509"/>
<polygon fill="midnightblue" stroke="midnightblue" points="224.834,-87.2081 214.243,-87.5164 222.715,-93.8797 224.834,-87.2081"/>
</g>
<!-- Node14 -->
<g id="node14" class="node"><title>Node14</title>
<polygon fill="none" stroke="#bfbfbf" points="245.433,-68.5 245.433,-87.5 283.433,-87.5 283.433,-68.5 245.433,-68.5"/>
<text text-anchor="middle" x="264.433" y="-75.5" font-family="Helvetica,sans-Serif" font-size="10.00">array</text>
</g>
<!-- Node5&#45;&gt;Node14 -->
<g id="edge13" class="edge"><title>Node5&#45;&gt;Node14</title>
<path fill="none" stroke="midnightblue" d="M342.49,-124.324C327.847,-115.822 305.299,-102.729 288.195,-92.7975"/>
<polygon fill="midnightblue" stroke="midnightblue" points="289.743,-89.6491 279.337,-87.6545 286.228,-95.7027 289.743,-89.6491"/>
</g>
<!-- Node15 -->
<g id="node15" class="node"><title>Node15</title>
<polygon fill="none" stroke="#bfbfbf" points="301.933,-68.5 301.933,-87.5 350.933,-87.5 350.933,-68.5 301.933,-68.5"/>
<text text-anchor="middle" x="326.433" y="-75.5" font-family="Helvetica,sans-Serif" font-size="10.00">cstdarg</text>
</g>
<!-- Node5&#45;&gt;Node15 -->
<g id="edge14" class="edge"><title>Node5&#45;&gt;Node15</title>
<path fill="none" stroke="midnightblue" d="M352.313,-124.083C348.025,-116.613 341.774,-105.724 336.49,-96.5199"/>
<polygon fill="midnightblue" stroke="midnightblue" points="339.47,-94.6811 331.456,-87.7511 333.4,-98.1662 339.47,-94.6811"/>
</g>
<!-- Node16 -->
<g id="node16" class="node"><title>Node16</title>
<polygon fill="none" stroke="#bfbfbf" points="587.933,-68.5 587.933,-87.5 632.933,-87.5 632.933,-68.5 587.933,-68.5"/>
<text text-anchor="middle" x="610.433" y="-75.5" font-family="Helvetica,sans-Serif" font-size="10.00">cstdlib</text>
</g>
<!-- Node5&#45;&gt;Node16 -->
<g id="edge15" class="edge"><title>Node5&#45;&gt;Node16</title>
<path fill="none" stroke="midnightblue" d="M404.646,-124.425C447.351,-116.436 512.162,-103.735 577.67,-88.0387"/>
<polygon fill="midnightblue" stroke="midnightblue" points="578.864,-91.3508 587.761,-85.5979 577.218,-84.547 578.864,-91.3508"/>
</g>
<!-- Node17 -->
<g id="node17" class="node"><title>Node17</title>
<polygon fill="none" stroke="#bfbfbf" points="369.433,-68.5 369.433,-87.5 409.433,-87.5 409.433,-68.5 369.433,-68.5"/>
<text text-anchor="middle" x="389.433" y="-75.5" font-family="Helvetica,sans-Serif" font-size="10.00">limits</text>
</g>
<!-- Node5&#45;&gt;Node17 -->
<g id="edge16" class="edge"><title>Node5&#45;&gt;Node17</title>
<path fill="none" stroke="midnightblue" d="M362.717,-124.083C367.143,-116.613 373.596,-105.724 379.05,-96.5199"/>
<polygon fill="midnightblue" stroke="midnightblue" points="382.16,-98.1383 384.247,-87.7511 376.138,-94.5697 382.16,-98.1383"/>
</g>
<!-- Node18 -->
<g id="node18" class="node"><title>Node18</title>
<polygon fill="none" stroke="#bfbfbf" points="427.933,-68.5 427.933,-87.5 476.933,-87.5 476.933,-68.5 427.933,-68.5"/>
<text text-anchor="middle" x="452.433" y="-75.5" font-family="Helvetica,sans-Serif" font-size="10.00">random</text>
</g>
<!-- Node5&#45;&gt;Node18 -->
<g id="edge17" class="edge"><title>Node5&#45;&gt;Node18</title>
<path fill="none" stroke="midnightblue" d="M372.696,-124.324C387.654,-115.822 410.687,-102.729 428.159,-92.7975"/>
<polygon fill="midnightblue" stroke="midnightblue" points="430.243,-95.639 437.207,-87.6545 426.784,-89.5534 430.243,-95.639"/>
</g>
<!-- Node5&#45;&gt;Node19 -->
<g id="edge18" class="edge"><title>Node5&#45;&gt;Node19</title>
<path fill="none" stroke="midnightblue" d="M312.414,-124.42C270.208,-116.225 205.117,-103.206 139.826,-88.2402"/>
<polygon fill="midnightblue" stroke="midnightblue" points="140.303,-84.7584 129.772,-85.9205 138.729,-91.5792 140.303,-84.7584"/>
</g>
<!-- Node5&#45;&gt;Node20 -->
<g id="edge19" class="edge"><title>Node5&#45;&gt;Node20</title>
<path fill="none" stroke="midnightblue" d="M296.697,-124.542C229.492,-115.018 124.413,-99.598 69.0517,-87.8044"/>
<polygon fill="midnightblue" stroke="midnightblue" points="69.5115,-84.3214 58.9907,-85.5719 67.995,-91.1551 69.5115,-84.3214"/>
</g>
<!-- Node5&#45;&gt;Node21 -->
<g id="edge20" class="edge"><title>Node5&#45;&gt;Node21</title>
<path fill="none" stroke="midnightblue" d="M418.204,-125.467C473.771,-118.105 558.372,-105.708 641.297,-87.785"/>
<polygon fill="midnightblue" stroke="midnightblue" points="642.117,-91.1884 651.137,-85.6301 640.62,-84.3504 642.117,-91.1884"/>
</g>
<!-- Node7 -->
<g id="node7" class="node"><title>Node7</title>
<g id="a_node7"><a xlink:href="attribute__always__inline_8hpp.html" target="_top" xlink:title="tlx/define/attribute\l_always_inline.hpp">
<polygon fill="none" stroke="black" points="198.933,-1 198.933,-31 297.933,-31 297.933,-1 198.933,-1"/>
<text text-anchor="start" x="206.933" y="-19" font-family="Helvetica,sans-Serif" font-size="10.00">tlx/define/attribute</text>
<text text-anchor="middle" x="248.433" y="-8" font-family="Helvetica,sans-Serif" font-size="10.00">_always_inline.hpp</text>
</a>
</g>
</g>
<!-- Node6&#45;&gt;Node7 -->
<g id="edge6" class="edge"><title>Node6&#45;&gt;Node7</title>
<path fill="none" stroke="midnightblue" d="M494.693,-69.7542C443.928,-59.9647 355.343,-42.7218 308.049,-32.2785"/>
<polygon fill="midnightblue" stroke="midnightblue" points="308.586,-28.8118 298.061,-30.0319 307.05,-35.6412 308.586,-28.8118"/>
</g>
<!-- Node8 -->
<g id="node8" class="node"><title>Node8</title>
<g id="a_node8"><a xlink:href="attribute__fallthrough_8hpp.html" target="_top" xlink:title="tlx/define/attribute\l_fallthrough.hpp">
<polygon fill="none" stroke="black" points="315.933,-1 315.933,-31 410.933,-31 410.933,-1 315.933,-1"/>
<text text-anchor="start" x="323.933" y="-19" font-family="Helvetica,sans-Serif" font-size="10.00">tlx/define/attribute</text>
<text text-anchor="middle" x="363.433" y="-8" font-family="Helvetica,sans-Serif" font-size="10.00">_fallthrough.hpp</text>
</a>
</g>
</g>
<!-- Node6&#45;&gt;Node8 -->
<g id="edge7" class="edge"><title>Node6&#45;&gt;Node8</title>
<path fill="none" stroke="midnightblue" d="M508.219,-68.4035C483.322,-59.5644 443.857,-45.553 412.413,-34.3895"/>
<polygon fill="midnightblue" stroke="midnightblue" points="413.532,-31.0728 402.937,-31.0253 411.19,-37.6694 413.532,-31.0728"/>
</g>
<!-- Node9 -->
<g id="node9" class="node"><title>Node9</title>
<g id="a_node9"><a xlink:href="attribute__format__printf_8hpp.html" target="_top" xlink:title="tlx/define/attribute\l_format_printf.hpp">
<polygon fill="none" stroke="black" points="428.933,-1 428.933,-31 523.933,-31 523.933,-1 428.933,-1"/>
<text text-anchor="start" x="436.933" y="-19" font-family="Helvetica,sans-Serif" font-size="10.00">tlx/define/attribute</text>
<text text-anchor="middle" x="476.433" y="-8" font-family="Helvetica,sans-Serif" font-size="10.00">_format_printf.hpp</text>
</a>
</g>
</g>
<!-- Node6&#45;&gt;Node9 -->
<g id="edge8" class="edge"><title>Node6&#45;&gt;Node9</title>
<path fill="none" stroke="midnightblue" d="M524.409,-68.4035C517.179,-60.657 506.241,-48.9379 496.634,-38.6447"/>
<polygon fill="midnightblue" stroke="midnightblue" points="499.013,-36.0633 489.631,-31.1408 493.895,-40.8395 499.013,-36.0633"/>
</g>
<!-- Node10 -->
<g id="node10" class="node"><title>Node10</title>
<g id="a_node10"><a xlink:href="attribute__packed_8hpp.html" target="_top" xlink:title="tlx/define/attribute\l_packed.hpp">
<polygon fill="none" stroke="black" points="541.933,-1 541.933,-31 636.933,-31 636.933,-1 541.933,-1"/>
<text text-anchor="start" x="549.933" y="-19" font-family="Helvetica,sans-Serif" font-size="10.00">tlx/define/attribute</text>
<text text-anchor="middle" x="589.433" y="-8" font-family="Helvetica,sans-Serif" font-size="10.00">_packed.hpp</text>
</a>
</g>
</g>
<!-- Node6&#45;&gt;Node10 -->
<g id="edge9" class="edge"><title>Node6&#45;&gt;Node10</title>
<path fill="none" stroke="midnightblue" d="M540.599,-68.4035C547.958,-60.657 559.092,-48.9379 568.87,-38.6447"/>
<polygon fill="midnightblue" stroke="midnightblue" points="571.649,-40.8015 575.999,-31.1408 566.574,-35.9802 571.649,-40.8015"/>
</g>
<!-- Node11 -->
<g id="node11" class="node"><title>Node11</title>
<g id="a_node11"><a xlink:href="attribute__warn__unused__result_8hpp.html" target="_top" xlink:title="tlx/define/attribute\l_warn_unused_result.hpp">
<polygon fill="none" stroke="black" points="655.433,-1 655.433,-31 783.433,-31 783.433,-1 655.433,-1"/>
<text text-anchor="start" x="663.433" y="-19" font-family="Helvetica,sans-Serif" font-size="10.00">tlx/define/attribute</text>
<text text-anchor="middle" x="719.433" y="-8" font-family="Helvetica,sans-Serif" font-size="10.00">_warn_unused_result.hpp</text>
</a>
</g>
</g>
<!-- Node6&#45;&gt;Node11 -->
<g id="edge10" class="edge"><title>Node6&#45;&gt;Node11</title>
<path fill="none" stroke="midnightblue" d="M559.225,-68.4035C587.011,-59.4882 631.197,-45.311 666.133,-34.1014"/>
<polygon fill="midnightblue" stroke="midnightblue" points="667.268,-37.4132 675.72,-31.0253 665.129,-30.7479 667.268,-37.4132"/>
</g>
<!-- Node12 -->
<g id="node12" class="node"><title>Node12</title>
<g id="a_node12"><a xlink:href="likely_8hpp.html" target="_top" xlink:title="tlx/define/likely.hpp">
<polygon fill="none" stroke="black" points="801.933,-6.5 801.933,-25.5 902.933,-25.5 902.933,-6.5 801.933,-6.5"/>
<text text-anchor="middle" x="852.433" y="-13.5" font-family="Helvetica,sans-Serif" font-size="10.00">tlx/define/likely.hpp</text>
</a>
</g>
</g>
<!-- Node6&#45;&gt;Node12 -->
<g id="edge11" class="edge"><title>Node6&#45;&gt;Node12</title>
<path fill="none" stroke="midnightblue" d="M570.073,-69.5512C572.9,-69.0175 575.71,-68.4952 578.433,-68 673.323,-50.739 698.021,-51.7111 792.433,-32 798.223,-30.791 804.3,-29.4077 810.273,-27.981"/>
<polygon fill="midnightblue" stroke="midnightblue" points="811.274,-31.3394 820.155,-25.5623 809.61,-24.5401 811.274,-31.3394"/>
</g>
<!-- Node22&#45;&gt;Node16 -->
<g id="edge22" class="edge"><title>Node22&#45;&gt;Node16</title>
<path fill="none" stroke="midnightblue" d="M557.555,-124.324C566.959,-116.263 581.177,-104.077 592.501,-94.3695"/>
<polygon fill="midnightblue" stroke="midnightblue" points="594.811,-96.9993 600.126,-87.8339 590.256,-91.6844 594.811,-96.9993"/>
</g>
<!-- Node24 -->
<g id="node24" class="node"><title>Node24</title>
<polygon fill="none" stroke="#bfbfbf" points="1056.43,-68.5 1056.43,-87.5 1112.43,-87.5 1112.43,-68.5 1056.43,-68.5"/>
<text text-anchor="middle" x="1084.43" y="-75.5" font-family="Helvetica,sans-Serif" font-size="10.00">algorithm</text>
</g>
<!-- Node23&#45;&gt;Node24 -->
<g id="edge24" class="edge"><title>Node23&#45;&gt;Node24</title>
<path fill="none" stroke="midnightblue" d="M1240.96,-124.444C1208.89,-115.132 1157.51,-100.216 1122.43,-90.0308"/>
<polygon fill="midnightblue" stroke="midnightblue" points="1123.13,-86.5899 1112.55,-87.1629 1121.18,-93.3123 1123.13,-86.5899"/>
</g>
<!-- Node23&#45;&gt;Node25 -->
<g id="edge25" class="edge"><title>Node23&#45;&gt;Node25</title>
<path fill="none" stroke="midnightblue" d="M1263.99,-124.083C1258.48,-116.455 1250.4,-105.264 1243.67,-95.9408"/>
<polygon fill="midnightblue" stroke="midnightblue" points="1246.45,-93.8087 1237.75,-87.7511 1240.77,-97.9071 1246.45,-93.8087"/>
</g>
<!-- Node23&#45;&gt;Node26 -->
<g id="edge26" class="edge"><title>Node23&#45;&gt;Node26</title>
<path fill="none" stroke="midnightblue" d="M1284.57,-124.324C1298.3,-115.9 1319.37,-102.971 1335.5,-93.0741"/>
<polygon fill="midnightblue" stroke="midnightblue" points="1337.64,-95.8678 1344.33,-87.6545 1333.98,-89.9016 1337.64,-95.8678"/>
</g>
<!-- Node28 -->
<g id="node28" class="node"><title>Node28</title>
<polygon fill="none" stroke="#bfbfbf" points="713.933,-68.5 713.933,-87.5 762.933,-87.5 762.933,-68.5 713.933,-68.5"/>
<text text-anchor="middle" x="738.433" y="-75.5" font-family="Helvetica,sans-Serif" font-size="10.00">cstddef</text>
</g>
<!-- Node27&#45;&gt;Node28 -->
<g id="edge28" class="edge"><title>Node27&#45;&gt;Node28</title>
<path fill="none" stroke="midnightblue" d="M861.298,-124.444C836.95,-115.438 798.425,-101.189 771.01,-91.049"/>
<polygon fill="midnightblue" stroke="midnightblue" points="772.052,-87.7028 761.458,-87.5164 769.623,-94.2681 772.052,-87.7028"/>
</g>
<!-- Node27&#45;&gt;Node29 -->
<g id="edge29" class="edge"><title>Node27&#45;&gt;Node29</title>
<path fill="none" stroke="midnightblue" d="M872.061,-124.324C860.274,-116.058 842.3,-103.453 828.297,-93.6322"/>
<polygon fill="midnightblue" stroke="midnightblue" points="829.97,-90.5307 819.773,-87.6545 825.951,-96.2619 829.97,-90.5307"/>
</g>
<!-- Node27&#45;&gt;Node30 -->
<g id="edge30" class="edge"><title>Node27&#45;&gt;Node30</title>
<path fill="none" stroke="midnightblue" d="M900.981,-124.324C917.424,-115.703 942.867,-102.364 961.901,-92.3855"/>
<polygon fill="midnightblue" stroke="midnightblue" points="963.693,-95.3977 970.925,-87.6545 960.443,-89.198 963.693,-95.3977"/>
</g>
<!-- Node34&#45;&gt;Node4 -->
<g id="edge50" class="edge"><title>Node34&#45;&gt;Node4</title>
<path fill="none" stroke="midnightblue" d="M504.121,-253.578C595.441,-247.074 796.042,-231.794 964.433,-212 978.165,-210.386 992.897,-208.38 1006.78,-206.366"/>
<polygon fill="midnightblue" stroke="midnightblue" points="1007.32,-209.823 1016.7,-204.903 1006.3,-202.898 1007.32,-209.823"/>
</g>
<!-- Node34&#45;&gt;Node20 -->
<g id="edge56" class="edge"><title>Node34&#45;&gt;Node20</title>
<path fill="none" stroke="midnightblue" d="M404.645,-254.779C326.16,-250.498 178.007,-239.018 133.433,-212 88.2634,-184.622 58.5546,-126.742 45.7038,-97.1908"/>
<polygon fill="midnightblue" stroke="midnightblue" points="48.8204,-95.5712 41.7347,-87.6944 42.3618,-98.2706 48.8204,-95.5712"/>
</g>
<!-- Node34&#45;&gt;Node21 -->
<g id="edge59" class="edge"><title>Node34&#45;&gt;Node21</title>
<path fill="none" stroke="midnightblue" d="M455.5,-248.384C456.596,-239.335 458.296,-224.683 459.433,-212 460.307,-202.239 458.981,-131.377 465.433,-124 515.939,-66.2462 560.248,-103.625 641.067,-87.7157"/>
<polygon fill="midnightblue" stroke="midnightblue" points="642.096,-91.0731 651.107,-85.5015 640.588,-84.2374 642.096,-91.0731"/>
</g>
<!-- Node34&#45;&gt;Node24 -->
<g id="edge51" class="edge"><title>Node34&#45;&gt;Node24</title>
<path fill="none" stroke="midnightblue" d="M504.08,-254.237C598.149,-248.561 798.813,-234.223 864.433,-212 945.881,-184.417 1029.35,-123.016 1065.66,-94.3261"/>
<polygon fill="midnightblue" stroke="midnightblue" points="1068.22,-96.7574 1073.84,-87.7773 1063.85,-91.2915 1068.22,-96.7574"/>
</g>
<!-- Node34&#45;&gt;Node28 -->
<g id="edge52" class="edge"><title>Node34&#45;&gt;Node28</title>
<path fill="none" stroke="midnightblue" d="M468.13,-248.415C513.577,-219.93 659.68,-128.359 716.001,-93.0593"/>
<polygon fill="midnightblue" stroke="midnightblue" points="717.925,-95.9841 724.539,-87.7077 714.207,-90.0528 717.925,-95.9841"/>
</g>
<!-- Node34&#45;&gt;Node29 -->
<g id="edge54" class="edge"><title>Node34&#45;&gt;Node29</title>
<path fill="none" stroke="midnightblue" d="M477.289,-248.391C499.561,-239.809 534.24,-225.933 563.433,-212 646.415,-172.395 741.076,-118.046 784.035,-92.8561"/>
<polygon fill="midnightblue" stroke="midnightblue" points="786.022,-95.7475 792.867,-87.6603 782.473,-89.7141 786.022,-95.7475"/>
</g>
<!-- Node34&#45;&gt;Node30 -->
<g id="edge57" class="edge"><title>Node34&#45;&gt;Node30</title>
<path fill="none" stroke="midnightblue" d="M504.119,-257.956C599.463,-257.338 810.815,-243.84 948.433,-144 964.376,-132.433 975.007,-112.173 981.089,-97.3388"/>
<polygon fill="midnightblue" stroke="midnightblue" points="984.471,-98.2897 984.723,-87.6979 977.921,-95.8202 984.471,-98.2897"/>
</g>
<!-- Node35 -->
<g id="node35" class="node"><title>Node35</title>
<g id="a_node35"><a xlink:href="config_8hpp.html" target="_top" xlink:title="thrill/common/config.hpp">
<polygon fill="none" stroke="black" points="142.933,-186.5 142.933,-205.5 265.933,-205.5 265.933,-186.5 142.933,-186.5"/>
<text text-anchor="middle" x="204.433" y="-193.5" font-family="Helvetica,sans-Serif" font-size="10.00">thrill/common/config.hpp</text>
</a>
</g>
</g>
<!-- Node34&#45;&gt;Node35 -->
<g id="edge49" class="edge"><title>Node34&#45;&gt;Node35</title>
<path fill="none" stroke="midnightblue" d="M418.879,-248.467C374.453,-237.805 298.371,-219.545 249.791,-207.886"/>
<polygon fill="midnightblue" stroke="midnightblue" points="250.404,-204.434 239.863,-205.503 248.77,-211.241 250.404,-204.434"/>
</g>
<!-- Node36 -->
<g id="node36" class="node"><title>Node36</title>
<polygon fill="none" stroke="#bfbfbf" points="284.433,-186.5 284.433,-205.5 330.433,-205.5 330.433,-186.5 284.433,-186.5"/>
<text text-anchor="middle" x="307.433" y="-193.5" font-family="Helvetica,sans-Serif" font-size="10.00">cstdint</text>
</g>
<!-- Node34&#45;&gt;Node36 -->
<g id="edge53" class="edge"><title>Node34&#45;&gt;Node36</title>
<path fill="none" stroke="midnightblue" d="M431.343,-248.473C407.994,-239.731 370.952,-225.537 339.433,-212 337.843,-211.318 336.216,-210.603 334.579,-209.873"/>
<polygon fill="midnightblue" stroke="midnightblue" points="335.829,-206.596 325.279,-205.617 332.916,-212.961 335.829,-206.596"/>
</g>
<!-- Node37 -->
<g id="node37" class="node"><title>Node37</title>
<polygon fill="none" stroke="#bfbfbf" points="348.433,-186.5 348.433,-205.5 392.433,-205.5 392.433,-186.5 348.433,-186.5"/>
<text text-anchor="middle" x="370.433" y="-193.5" font-family="Helvetica,sans-Serif" font-size="10.00">mutex</text>
</g>
<!-- Node34&#45;&gt;Node37 -->
<g id="edge55" class="edge"><title>Node34&#45;&gt;Node37</title>
<path fill="none" stroke="midnightblue" d="M442.397,-248.403C428.924,-238.78 406.866,-223.024 390.717,-211.489"/>
<polygon fill="midnightblue" stroke="midnightblue" points="392.617,-208.545 382.445,-205.581 388.548,-214.241 392.617,-208.545"/>
</g>
<!-- Node38 -->
<g id="node38" class="node"><title>Node38</title>
<polygon fill="none" stroke="#bfbfbf" points="410.433,-186.5 410.433,-205.5 450.433,-205.5 450.433,-186.5 410.433,-186.5"/>
<text text-anchor="middle" x="430.433" y="-193.5" font-family="Helvetica,sans-Serif" font-size="10.00">utility</text>
</g>
<!-- Node34&#45;&gt;Node38 -->
<g id="edge58" class="edge"><title>Node34&#45;&gt;Node38</title>
<path fill="none" stroke="midnightblue" d="M450.994,-248.403C447.536,-239.76 442.101,-226.17 437.686,-215.134"/>
<polygon fill="midnightblue" stroke="midnightblue" points="440.828,-213.565 433.865,-205.581 434.329,-216.165 440.828,-213.565"/>
</g>
</g>
</svg>
