<?xml version="1.0" encoding="UTF-8" standalone="no"?>
<!DOCTYPE svg PUBLIC "-//W3C//DTD SVG 1.1//EN"
 "http://www.w3.org/Graphics/SVG/1.1/DTD/svg11.dtd">
<!-- Generated by graphviz version 2.36.0 (20140111.2315)
 -->
<!-- Title: thrill/api/prefix_sum.hpp Pages: 1 -->
<svg width="829pt" height="164pt"
 viewBox="0.00 0.00 829.00 164.00" xmlns="http://www.w3.org/2000/svg" xmlns:xlink="http://www.w3.org/1999/xlink">
<g id="graph0" class="graph" transform="scale(1 1) rotate(0) translate(4 160)">
<title>thrill/api/prefix_sum.hpp</title>
<!-- Node1 -->
<g id="node1" class="node"><title>Node1</title>
<polygon fill="#bfbfbf" stroke="black" points="287,-136.5 287,-155.5 407,-155.5 407,-136.5 287,-136.5"/>
<text text-anchor="middle" x="347" y="-143.5" font-family="Helvetica,sans-Serif" font-size="10.00">thrill/api/prefix_sum.hpp</text>
</g>
<!-- Node2 -->
<g id="node2" class="node"><title>Node2</title>
<g id="a_node2"><a xlink:href="ex__prefix__sum_8hpp.html" target="_top" xlink:title="thrill/api/ex_prefix\l_sum.hpp">
<polygon fill="none" stroke="black" points="-0.5,-69 -0.5,-99 92.5,-99 92.5,-69 -0.5,-69"/>
<text text-anchor="start" x="7.5" y="-87" font-family="Helvetica,sans-Serif" font-size="10.00">thrill/api/ex_prefix</text>
<text text-anchor="middle" x="46" y="-76" font-family="Helvetica,sans-Serif" font-size="10.00">_sum.hpp</text>
</a>
</g>
</g>
<!-- Node1&#45;&gt;Node2 -->
<g id="edge1" class="edge"><title>Node1&#45;&gt;Node2</title>
<path fill="none" stroke="midnightblue" d="M287.151,-134.734C238.484,-126.157 168.116,-113.233 107,-100 102.31,-98.9845 97.4304,-97.875 92.5646,-96.7338"/>
<polygon fill="midnightblue" stroke="midnightblue" points="286.741,-138.216 297.195,-136.497 287.951,-131.321 286.741,-138.216"/>
</g>
<!-- Node3 -->
<g id="node3" class="node"><title>Node3</title>
<g id="a_node3"><a xlink:href="thrill_8hpp.html" target="_top" xlink:title="thrill/thrill.hpp">
<polygon fill="none" stroke="black" points="33,-6.5 33,-25.5 107,-25.5 107,-6.5 33,-6.5"/>
<text text-anchor="middle" x="70" y="-13.5" font-family="Helvetica,sans-Serif" font-size="10.00">thrill/thrill.hpp</text>
</a>
</g>
</g>
<!-- Node1&#45;&gt;Node3 -->
<g id="edge3" class="edge"><title>Node1&#45;&gt;Node3</title>
<path fill="none" stroke="midnightblue" d="M276.388,-141.038C234.281,-136.01 181.182,-124.804 140,-100 108.512,-81.0349 84.3791,-42.8041 74.6659,-25.6615"/>
<polygon fill="midnightblue" stroke="midnightblue" points="276.243,-144.543 286.566,-142.16 277.01,-137.585 276.243,-144.543"/>
</g>
<!-- Node4 -->
<g id="node4" class="node"><title>Node4</title>
<g id="a_node4"><a xlink:href="construct__lcp_8hpp.html" target="_top" xlink:title="examples/suffix_sorting\l/construct_lcp.hpp">
<polygon fill="none" stroke="black" points="149,-69 149,-99 269,-99 269,-69 149,-69"/>
<text text-anchor="start" x="157" y="-87" font-family="Helvetica,sans-Serif" font-size="10.00">examples/suffix_sorting</text>
<text text-anchor="middle" x="209" y="-76" font-family="Helvetica,sans-Serif" font-size="10.00">/construct_lcp.hpp</text>
</a>
</g>
</g>
<!-- Node1&#45;&gt;Node4 -->
<g id="edge4" class="edge"><title>Node1&#45;&gt;Node4</title>
<path fill="none" stroke="midnightblue" d="M317.884,-132.341C295.448,-122.586 264.446,-109.107 241.258,-99.0253"/>
<polygon fill="midnightblue" stroke="midnightblue" points="316.662,-135.626 327.228,-136.403 319.453,-129.206 316.662,-135.626"/>
</g>
<!-- Node6 -->
<g id="node6" class="node"><title>Node6</title>
<g id="a_node6"><a xlink:href="dc3_8cpp.html" target="_top" xlink:title="examples/suffix_sorting\l/dc3.cpp">
<polygon fill="none" stroke="black" points="287,-69 287,-99 407,-99 407,-69 287,-69"/>
<text text-anchor="start" x="295" y="-87" font-family="Helvetica,sans-Serif" font-size="10.00">examples/suffix_sorting</text>
<text text-anchor="middle" x="347" y="-76" font-family="Helvetica,sans-Serif" font-size="10.00">/dc3.cpp</text>
</a>
</g>
</g>
<!-- Node1&#45;&gt;Node6 -->
<g id="edge6" class="edge"><title>Node1&#45;&gt;Node6</title>
<path fill="none" stroke="midnightblue" d="M347,-126.371C347,-117.585 347,-107.272 347,-99.1408"/>
<polygon fill="midnightblue" stroke="midnightblue" points="343.5,-126.403 347,-136.403 350.5,-126.403 343.5,-126.403"/>
</g>
<!-- Node7 -->
<g id="node7" class="node"><title>Node7</title>
<g id="a_node7"><a xlink:href="dc7_8cpp.html" target="_top" xlink:title="examples/suffix_sorting\l/dc7.cpp">
<polygon fill="none" stroke="black" points="425,-69 425,-99 545,-99 545,-69 425,-69"/>
<text text-anchor="start" x="433" y="-87" font-family="Helvetica,sans-Serif" font-size="10.00">examples/suffix_sorting</text>
<text text-anchor="middle" x="485" y="-76" font-family="Helvetica,sans-Serif" font-size="10.00">/dc7.cpp</text>
</a>
</g>
</g>
<!-- Node1&#45;&gt;Node7 -->
<g id="edge7" class="edge"><title>Node1&#45;&gt;Node7</title>
<path fill="none" stroke="midnightblue" d="M376.116,-132.341C398.552,-122.586 429.554,-109.107 452.742,-99.0253"/>
<polygon fill="midnightblue" stroke="midnightblue" points="374.547,-129.206 366.772,-136.403 377.338,-135.626 374.547,-129.206"/>
</g>
<!-- Node8 -->
<g id="node8" class="node"><title>Node8</title>
<g id="a_node8"><a xlink:href="prefix__doubling_8cpp.html" target="_top" xlink:title="examples/suffix_sorting\l/prefix_doubling.cpp">
<polygon fill="none" stroke="black" points="563,-69 563,-99 683,-99 683,-69 563,-69"/>
<text text-anchor="start" x="571" y="-87" font-family="Helvetica,sans-Serif" font-size="10.00">examples/suffix_sorting</text>
<text text-anchor="middle" x="623" y="-76" font-family="Helvetica,sans-Serif" font-size="10.00">/prefix_doubling.cpp</text>
</a>
</g>
</g>
<!-- Node1&#45;&gt;Node8 -->
<g id="edge8" class="edge"><title>Node1&#45;&gt;Node8</title>
<path fill="none" stroke="midnightblue" d="M396.112,-134.323C442.715,-124.192 512.862,-108.943 562.809,-98.0851"/>
<polygon fill="midnightblue" stroke="midnightblue" points="395.279,-130.923 386.251,-136.467 396.766,-137.763 395.279,-130.923"/>
</g>
<!-- Node9 -->
<g id="node9" class="node"><title>Node9</title>
<g id="a_node9"><a xlink:href="prefix__quadrupling_8cpp.html" target="_top" xlink:title="examples/suffix_sorting\l/prefix_quadrupling.cpp">
<polygon fill="none" stroke="black" points="701,-69 701,-99 821,-99 821,-69 701,-69"/>
<text text-anchor="start" x="709" y="-87" font-family="Helvetica,sans-Serif" font-size="10.00">examples/suffix_sorting</text>
<text text-anchor="middle" x="761" y="-76" font-family="Helvetica,sans-Serif" font-size="10.00">/prefix_quadrupling.cpp</text>
</a>
</g>
</g>
<!-- Node1&#45;&gt;Node9 -->
<g id="edge9" class="edge"><title>Node1&#45;&gt;Node9</title>
<path fill="none" stroke="midnightblue" d="M417.175,-137.506C486.871,-129.668 596.662,-116.251 691,-100 694.185,-99.4514 697.444,-98.8596 700.731,-98.2389"/>
<polygon fill="midnightblue" stroke="midnightblue" points="416.739,-134.033 407.19,-138.622 417.517,-140.99 416.739,-134.033"/>
</g>
<!-- Node2&#45;&gt;Node3 -->
<g id="edge2" class="edge"><title>Node2&#45;&gt;Node3</title>
<path fill="none" stroke="midnightblue" d="M54.6982,-59.08C58.9082,-47.5023 63.7063,-34.3077 66.7897,-25.8283"/>
<polygon fill="midnightblue" stroke="midnightblue" points="51.3359,-58.0849 51.2076,-68.679 57.9144,-60.4772 51.3359,-58.0849"/>
</g>
<!-- Node5 -->
<g id="node5" class="node"><title>Node5</title>
<g id="a_node5"><a xlink:href="suffix__sorting_8cpp.html" target="_top" xlink:title="examples/suffix_sorting\l/suffix_sorting.cpp">
<polygon fill="none" stroke="black" points="149,-1 149,-31 269,-31 269,-1 149,-1"/>
<text text-anchor="start" x="157" y="-19" font-family="Helvetica,sans-Serif" font-size="10.00">examples/suffix_sorting</text>
<text text-anchor="middle" x="209" y="-8" font-family="Helvetica,sans-Serif" font-size="10.00">/suffix_sorting.cpp</text>
</a>
</g>
</g>
<!-- Node4&#45;&gt;Node5 -->
<g id="edge5" class="edge"><title>Node4&#45;&gt;Node5</title>
<path fill="none" stroke="midnightblue" d="M209,-58.5322C209,-49.3606 209,-39.2449 209,-31.2931"/>
<polygon fill="midnightblue" stroke="midnightblue" points="205.5,-58.6789 209,-68.679 212.5,-58.679 205.5,-58.6789"/>
</g>
</g>
</svg>
