<?xml version="1.0" encoding="UTF-8" standalone="no"?>
<!DOCTYPE svg PUBLIC "-//W3C//DTD SVG 1.1//EN"
 "http://www.w3.org/Graphics/SVG/1.1/DTD/svg11.dtd">
<!-- Generated by graphviz version 2.26.3 (20100126.1600)
 -->
<!-- Title: thrill/common/profile_thread.hpp Pages: 1 -->
<svg width="953pt" height="174pt"
 viewBox="0.00 0.00 953.00 174.00" xmlns="http://www.w3.org/2000/svg" xmlns:xlink="http://www.w3.org/1999/xlink">
<g id="graph1" class="graph" transform="scale(1 1) rotate(0) translate(4 170)">
<title>thrill/common/profile_thread.hpp</title>
<!-- Node1 -->
<g id="node1" class="node"><title>Node1</title>
<polygon fill="#bfbfbf" stroke="black" points="574,-131 574,-165 678,-165 678,-131 574,-131"/>
<text text-anchor="start" x="582" y="-152" font-family="Helvetica,sans-Serif" font-size="10.00">thrill/common/profile</text>
<text text-anchor="middle" x="626" y="-139" font-family="Helvetica,sans-Serif" font-size="10.00">_thread.hpp</text>
</g>
<!-- Node2 -->
<g id="node3" class="node"><title>Node2</title>
<a xlink:href="binary__heap_8hpp.html" target="_top" xlink:title="thrill/common/binary\l_heap.hpp">
<polygon fill="none" stroke="black" points="80,-59 80,-93 184,-93 184,-59 80,-59"/>
<text text-anchor="start" x="88" y="-80" font-family="Helvetica,sans-Serif" font-size="10.00">thrill/common/binary</text>
<text text-anchor="middle" x="132" y="-67" font-family="Helvetica,sans-Serif" font-size="10.00">_heap.hpp</text>
</a>
</g>
<!-- Node1&#45;&gt;Node2 -->
<g id="edge2" class="edge"><title>Node1&#45;&gt;Node2</title>
<path fill="none" stroke="midnightblue" d="M573.601,-140.363C481.867,-126.993 292.608,-99.4085 194.318,-85.0828"/>
<polygon fill="midnightblue" stroke="midnightblue" points="194.633,-81.5918 184.233,-83.6129 193.623,-88.5186 194.633,-81.5918"/>
</g>
<!-- Node6 -->
<g id="node11" class="node"><title>Node6</title>
<a xlink:href="delegate_8hpp.html" target="_top" xlink:title="thrill/common/delegate.hpp">
<polygon fill="none" stroke="black" points="291,-65.5 291,-86.5 425,-86.5 425,-65.5 291,-65.5"/>
<text text-anchor="middle" x="358" y="-73.5" font-family="Helvetica,sans-Serif" font-size="10.00">thrill/common/delegate.hpp</text>
</a>
</g>
<!-- Node1&#45;&gt;Node6 -->
<g id="edge10" class="edge"><title>Node1&#45;&gt;Node6</title>
<path fill="none" stroke="midnightblue" d="M573.691,-133.947C525.338,-120.956 454.037,-101.801 406.827,-89.1177"/>
<polygon fill="midnightblue" stroke="midnightblue" points="407.701,-85.7285 397.135,-86.514 405.885,-92.4888 407.701,-85.7285"/>
</g>
<!-- Node12 -->
<g id="node24" class="node"><title>Node12</title>
<a xlink:href="profile__task_8hpp.html" target="_top" xlink:title="thrill/common/profile\l_task.hpp">
<polygon fill="none" stroke="black" points="443,-59 443,-93 547,-93 547,-59 443,-59"/>
<text text-anchor="start" x="451" y="-80" font-family="Helvetica,sans-Serif" font-size="10.00">thrill/common/profile</text>
<text text-anchor="middle" x="495" y="-67" font-family="Helvetica,sans-Serif" font-size="10.00">_task.hpp</text>
</a>
</g>
<!-- Node1&#45;&gt;Node12 -->
<g id="edge24" class="edge"><title>Node1&#45;&gt;Node12</title>
<path fill="none" stroke="midnightblue" d="M594.955,-130.937C577.058,-121.101 554.364,-108.627 535.124,-98.0531"/>
<polygon fill="midnightblue" stroke="midnightblue" points="536.726,-94.9395 526.276,-93.19 533.354,-101.074 536.726,-94.9395"/>
</g>
<!-- Node13 -->
<g id="node26" class="node"><title>Node13</title>
<polygon fill="none" stroke="#bfbfbf" points="552,-0.5 552,-21.5 598,-21.5 598,-0.5 552,-0.5"/>
<text text-anchor="middle" x="575" y="-8.5" font-family="Helvetica,sans-Serif" font-size="10.00">chrono</text>
</g>
<!-- Node1&#45;&gt;Node13 -->
<g id="edge30" class="edge"><title>Node1&#45;&gt;Node13</title>
<path fill="none" stroke="midnightblue" d="M613.88,-130.715C607.174,-120.454 599.174,-106.954 594,-94 585.814,-73.5046 580.714,-48.6854 577.884,-31.5563"/>
<polygon fill="midnightblue" stroke="midnightblue" points="581.322,-30.8853 576.343,-21.5333 574.404,-31.9491 581.322,-30.8853"/>
</g>
<!-- Node14 -->
<g id="node28" class="node"><title>Node14</title>
<polygon fill="none" stroke="#bfbfbf" points="603,-65.5 603,-86.5 649,-86.5 649,-65.5 603,-65.5"/>
<text text-anchor="middle" x="626" y="-73.5" font-family="Helvetica,sans-Serif" font-size="10.00">atomic</text>
</g>
<!-- Node1&#45;&gt;Node14 -->
<g id="edge28" class="edge"><title>Node1&#45;&gt;Node14</title>
<path fill="none" stroke="midnightblue" d="M626,-130.937C626,-120.814 626,-107.898 626,-97.1329"/>
<polygon fill="midnightblue" stroke="midnightblue" points="629.5,-96.901 626,-86.901 622.5,-96.9011 629.5,-96.901"/>
</g>
<!-- Node15 -->
<g id="node31" class="node"><title>Node15</title>
<polygon fill="none" stroke="#bfbfbf" points="666.5,-65.5 666.5,-86.5 761.5,-86.5 761.5,-65.5 666.5,-65.5"/>
<text text-anchor="middle" x="714" y="-73.5" font-family="Helvetica,sans-Serif" font-size="10.00">condition_variable</text>
</g>
<!-- Node1&#45;&gt;Node15 -->
<g id="edge32" class="edge"><title>Node1&#45;&gt;Node15</title>
<path fill="none" stroke="midnightblue" d="M646.855,-130.937C660.745,-119.573 678.936,-104.689 692.88,-93.28"/>
<polygon fill="midnightblue" stroke="midnightblue" points="695.414,-95.7293 700.937,-86.688 690.981,-90.3116 695.414,-95.7293"/>
</g>
<!-- Node16 -->
<g id="node33" class="node"><title>Node16</title>
<polygon fill="none" stroke="#bfbfbf" points="779,-65.5 779,-86.5 823,-86.5 823,-65.5 779,-65.5"/>
<text text-anchor="middle" x="801" y="-73.5" font-family="Helvetica,sans-Serif" font-size="10.00">mutex</text>
</g>
<!-- Node1&#45;&gt;Node16 -->
<g id="edge34" class="edge"><title>Node1&#45;&gt;Node16</title>
<path fill="none" stroke="midnightblue" d="M677.846,-130.922C705.639,-121.181 740.2,-108.117 770,-94 771.585,-93.249 773.197,-92.4451 774.811,-91.6091"/>
<polygon fill="midnightblue" stroke="midnightblue" points="776.819,-94.4994 783.896,-86.6147 773.447,-88.3652 776.819,-94.4994"/>
</g>
<!-- Node17 -->
<g id="node35" class="node"><title>Node17</title>
<polygon fill="none" stroke="#bfbfbf" points="840.5,-65.5 840.5,-86.5 883.5,-86.5 883.5,-65.5 840.5,-65.5"/>
<text text-anchor="middle" x="862" y="-73.5" font-family="Helvetica,sans-Serif" font-size="10.00">queue</text>
</g>
<!-- Node1&#45;&gt;Node17 -->
<g id="edge36" class="edge"><title>Node1&#45;&gt;Node17</title>
<path fill="none" stroke="midnightblue" d="M678.128,-138.611C720.596,-129.959 781.566,-115.228 832,-94 833.805,-93.2401 835.632,-92.386 837.446,-91.4735"/>
<polygon fill="midnightblue" stroke="midnightblue" points="839.204,-94.5008 846.251,-86.5899 835.809,-88.3793 839.204,-94.5008"/>
</g>
<!-- Node18 -->
<g id="node37" class="node"><title>Node18</title>
<polygon fill="none" stroke="#bfbfbf" points="901,-65.5 901,-86.5 945,-86.5 945,-65.5 901,-65.5"/>
<text text-anchor="middle" x="923" y="-73.5" font-family="Helvetica,sans-Serif" font-size="10.00">thread</text>
</g>
<!-- Node1&#45;&gt;Node18 -->
<g id="edge38" class="edge"><title>Node1&#45;&gt;Node18</title>
<path fill="none" stroke="midnightblue" d="M678.138,-142.506C732.805,-135.584 820.531,-121.161 892,-94 894.08,-93.2096 896.183,-92.289 898.263,-91.2898"/>
<polygon fill="midnightblue" stroke="midnightblue" points="899.92,-94.3727 907.085,-86.5678 896.617,-88.2012 899.92,-94.3727"/>
</g>
<!-- Node3 -->
<g id="node5" class="node"><title>Node3</title>
<polygon fill="none" stroke="#bfbfbf" points="138,-0.5 138,-21.5 194,-21.5 194,-0.5 138,-0.5"/>
<text text-anchor="middle" x="166" y="-8.5" font-family="Helvetica,sans-Serif" font-size="10.00">algorithm</text>
</g>
<!-- Node2&#45;&gt;Node3 -->
<g id="edge4" class="edge"><title>Node2&#45;&gt;Node3</title>
<path fill="none" stroke="midnightblue" d="M140.933,-58.922C145.441,-50.3037 150.934,-39.8018 155.628,-30.8282"/>
<polygon fill="midnightblue" stroke="midnightblue" points="158.79,-32.3353 160.324,-21.8521 152.587,-29.0908 158.79,-32.3353"/>
</g>
<!-- Node4 -->
<g id="node7" class="node"><title>Node4</title>
<polygon fill="none" stroke="#bfbfbf" points="-0.5,-0.5 -0.5,-21.5 58.5,-21.5 58.5,-0.5 -0.5,-0.5"/>
<text text-anchor="middle" x="29" y="-8.5" font-family="Helvetica,sans-Serif" font-size="10.00">functional</text>
</g>
<!-- Node2&#45;&gt;Node4 -->
<g id="edge6" class="edge"><title>Node2&#45;&gt;Node4</title>
<path fill="none" stroke="midnightblue" d="M104.938,-58.922C89.2929,-49.0489 69.7308,-36.7039 54.3798,-27.0164"/>
<polygon fill="midnightblue" stroke="midnightblue" points="56.2142,-24.0354 45.8894,-21.6584 52.4784,-29.9552 56.2142,-24.0354"/>
</g>
<!-- Node5 -->
<g id="node9" class="node"><title>Node5</title>
<polygon fill="none" stroke="#bfbfbf" points="76,-0.5 76,-21.5 120,-21.5 120,-0.5 76,-0.5"/>
<text text-anchor="middle" x="98" y="-8.5" font-family="Helvetica,sans-Serif" font-size="10.00">vector</text>
</g>
<!-- Node2&#45;&gt;Node5 -->
<g id="edge8" class="edge"><title>Node2&#45;&gt;Node5</title>
<path fill="none" stroke="midnightblue" d="M123.067,-58.922C118.559,-50.3037 113.066,-39.8018 108.372,-30.8282"/>
<polygon fill="midnightblue" stroke="midnightblue" points="111.413,-29.0908 103.676,-21.8521 105.21,-32.3353 111.413,-29.0908"/>
</g>
<!-- Node6&#45;&gt;Node3 -->
<g id="edge12" class="edge"><title>Node6&#45;&gt;Node3</title>
<path fill="none" stroke="midnightblue" d="M326.725,-65.412C293.118,-54.0347 239.703,-35.9516 203.774,-23.7882"/>
<polygon fill="midnightblue" stroke="midnightblue" points="204.73,-20.4165 194.135,-20.525 202.485,-27.0469 204.73,-20.4165"/>
</g>
<!-- Node7 -->
<g id="node14" class="node"><title>Node7</title>
<polygon fill="none" stroke="#bfbfbf" points="211.5,-0.5 211.5,-21.5 260.5,-21.5 260.5,-0.5 211.5,-0.5"/>
<text text-anchor="middle" x="236" y="-8.5" font-family="Helvetica,sans-Serif" font-size="10.00">cassert</text>
</g>
<!-- Node6&#45;&gt;Node7 -->
<g id="edge14" class="edge"><title>Node6&#45;&gt;Node7</title>
<path fill="none" stroke="midnightblue" d="M338.127,-65.412C318.276,-54.8357 287.549,-38.4645 264.981,-26.4408"/>
<polygon fill="midnightblue" stroke="midnightblue" points="266.336,-23.1967 255.864,-21.5835 263.044,-29.3746 266.336,-23.1967"/>
</g>
<!-- Node8 -->
<g id="node16" class="node"><title>Node8</title>
<polygon fill="none" stroke="#bfbfbf" points="277.5,-0.5 277.5,-21.5 326.5,-21.5 326.5,-0.5 277.5,-0.5"/>
<text text-anchor="middle" x="302" y="-8.5" font-family="Helvetica,sans-Serif" font-size="10.00">cstddef</text>
</g>
<!-- Node6&#45;&gt;Node8 -->
<g id="edge16" class="edge"><title>Node6&#45;&gt;Node8</title>
<path fill="none" stroke="midnightblue" d="M348.753,-65.2666C340.353,-55.5173 327.787,-40.9317 317.798,-29.3365"/>
<polygon fill="midnightblue" stroke="midnightblue" points="320.254,-26.8253 311.075,-21.5337 314.951,-31.3943 320.254,-26.8253"/>
</g>
<!-- Node9 -->
<g id="node18" class="node"><title>Node9</title>
<polygon fill="none" stroke="#bfbfbf" points="344,-0.5 344,-21.5 396,-21.5 396,-0.5 344,-0.5"/>
<text text-anchor="middle" x="370" y="-8.5" font-family="Helvetica,sans-Serif" font-size="10.00">memory</text>
</g>
<!-- Node6&#45;&gt;Node9 -->
<g id="edge18" class="edge"><title>Node6&#45;&gt;Node9</title>
<path fill="none" stroke="midnightblue" d="M359.982,-65.2666C361.677,-56.0852 364.163,-42.6146 366.235,-31.3917"/>
<polygon fill="midnightblue" stroke="midnightblue" points="369.682,-32.003 368.055,-21.5337 362.798,-30.7321 369.682,-32.003"/>
</g>
<!-- Node10 -->
<g id="node20" class="node"><title>Node10</title>
<polygon fill="none" stroke="#bfbfbf" points="414,-0.5 414,-21.5 476,-21.5 476,-0.5 414,-0.5"/>
<text text-anchor="middle" x="445" y="-8.5" font-family="Helvetica,sans-Serif" font-size="10.00">type_traits</text>
</g>
<!-- Node6&#45;&gt;Node10 -->
<g id="edge20" class="edge"><title>Node6&#45;&gt;Node10</title>
<path fill="none" stroke="midnightblue" d="M372.366,-65.2666C386.049,-55.0441 406.848,-39.5043 422.688,-27.6699"/>
<polygon fill="midnightblue" stroke="midnightblue" points="424.985,-30.3229 430.901,-21.5337 420.795,-24.7151 424.985,-30.3229"/>
</g>
<!-- Node11 -->
<g id="node22" class="node"><title>Node11</title>
<polygon fill="none" stroke="#bfbfbf" points="494,-0.5 494,-21.5 534,-21.5 534,-0.5 494,-0.5"/>
<text text-anchor="middle" x="514" y="-8.5" font-family="Helvetica,sans-Serif" font-size="10.00">utility</text>
</g>
<!-- Node6&#45;&gt;Node11 -->
<g id="edge22" class="edge"><title>Node6&#45;&gt;Node11</title>
<path fill="none" stroke="midnightblue" d="M383.411,-65.412C411.026,-53.906 455.1,-35.5416 484.294,-23.3777"/>
<polygon fill="midnightblue" stroke="midnightblue" points="485.694,-26.5861 493.578,-19.5091 483.001,-20.1245 485.694,-26.5861"/>
</g>
<!-- Node12&#45;&gt;Node13 -->
<g id="edge26" class="edge"><title>Node12&#45;&gt;Node13</title>
<path fill="none" stroke="midnightblue" d="M516.019,-58.922C527.642,-49.4785 542.048,-37.7736 553.713,-28.2957"/>
<polygon fill="midnightblue" stroke="midnightblue" points="556.09,-30.8745 561.644,-21.8521 551.675,-25.4416 556.09,-30.8745"/>
</g>
</g>
</svg>
