<?xml version="1.0" encoding="UTF-8" standalone="no"?>
<!DOCTYPE svg PUBLIC "-//W3C//DTD SVG 1.1//EN"
 "http://www.w3.org/Graphics/SVG/1.1/DTD/svg11.dtd">
<!-- Generated by graphviz version 2.26.3 (20100126.1600)
 -->
<!-- Title: thrill/common/qsort.hpp Pages: 1 -->
<svg width="1570pt" height="392pt"
 viewBox="0.00 0.00 1570.05 392.00" xmlns="http://www.w3.org/2000/svg" xmlns:xlink="http://www.w3.org/1999/xlink">
<g id="graph1" class="graph" transform="scale(1 1) rotate(0) translate(4 388)">
<title>thrill/common/qsort.hpp</title>
<!-- Node1 -->
<g id="node1" class="node"><title>Node1</title>
<polygon fill="#bfbfbf" stroke="black" points="969.545,-362.5 969.545,-383.5 1088.55,-383.5 1088.55,-362.5 969.545,-362.5"/>
<text text-anchor="middle" x="1029.05" y="-370.5" font-family="Helvetica,sans-Serif" font-size="10.00">thrill/common/qsort.hpp</text>
</g>
<!-- Node2 -->
<g id="node3" class="node"><title>Node2</title>
<a xlink:href="logger_8hpp.html" target="_top" xlink:title="thrill/common/logger.hpp">
<polygon fill="none" stroke="black" points="434.545,-304.5 434.545,-325.5 557.545,-325.5 557.545,-304.5 434.545,-304.5"/>
<text text-anchor="middle" x="496.045" y="-312.5" font-family="Helvetica,sans-Serif" font-size="10.00">thrill/common/logger.hpp</text>
</a>
</g>
<!-- Node1&#45;&gt;Node2 -->
<g id="edge2" class="edge"><title>Node1&#45;&gt;Node2</title>
<path fill="none" stroke="midnightblue" d="M969.455,-366.515C870.77,-355.777 673.793,-334.342 567.689,-322.796"/>
<polygon fill="midnightblue" stroke="midnightblue" points="568.031,-319.313 557.711,-321.71 567.273,-326.272 568.031,-319.313"/>
</g>
<!-- Node18 -->
<g id="node36" class="node"><title>Node18</title>
<polygon fill="none" stroke="#bfbfbf" points="1406.05,-58.5 1406.05,-79.5 1462.05,-79.5 1462.05,-58.5 1406.05,-58.5"/>
<text text-anchor="middle" x="1434.05" y="-66.5" font-family="Helvetica,sans-Serif" font-size="10.00">algorithm</text>
</g>
<!-- Node1&#45;&gt;Node18 -->
<g id="edge104" class="edge"><title>Node1&#45;&gt;Node18</title>
<path fill="none" stroke="midnightblue" d="M1088.64,-366.262C1227.72,-349.731 1562.05,-305.001 1562.05,-257 1562.05,-257 1562.05,-257 1562.05,-192 1562.05,-153.62 1548.18,-143.146 1521.05,-116 1507.15,-102.094 1488.27,-91.2236 1471.66,-83.4561"/>
<polygon fill="midnightblue" stroke="midnightblue" points="1472.75,-80.1107 1462.19,-79.2418 1469.9,-86.5058 1472.75,-80.1107"/>
</g>
<!-- Node3 -->
<g id="node5" class="node"><title>Node3</title>
<a xlink:href="allocator_8hpp.html" target="_top" xlink:title="thrill/mem/allocator.hpp">
<polygon fill="none" stroke="black" points="1090.05,-246.5 1090.05,-267.5 1208.05,-267.5 1208.05,-246.5 1090.05,-246.5"/>
<text text-anchor="middle" x="1149.05" y="-254.5" font-family="Helvetica,sans-Serif" font-size="10.00">thrill/mem/allocator.hpp</text>
</a>
</g>
<!-- Node2&#45;&gt;Node3 -->
<g id="edge4" class="edge"><title>Node2&#45;&gt;Node3</title>
<path fill="none" stroke="midnightblue" d="M557.772,-309.517C679.887,-298.671 951.544,-274.542 1079.65,-263.164"/>
<polygon fill="midnightblue" stroke="midnightblue" points="1080.08,-266.639 1089.73,-262.268 1079.46,-259.667 1080.08,-266.639"/>
</g>
<!-- Node13 -->
<g id="node25" class="node"><title>Node13</title>
<polygon fill="none" stroke="#bfbfbf" points="153.045,-58.5 153.045,-79.5 205.045,-79.5 205.045,-58.5 153.045,-58.5"/>
<text text-anchor="middle" x="179.045" y="-66.5" font-family="Helvetica,sans-Serif" font-size="10.00">sstream</text>
</g>
<!-- Node2&#45;&gt;Node13 -->
<g id="edge100" class="edge"><title>Node2&#45;&gt;Node13</title>
<path fill="none" stroke="midnightblue" d="M434.173,-310.987C315.634,-301.874 63.5811,-275.127 11.0451,-210 -34.588,-153.43 81.222,-102.833 143.099,-80.7497"/>
<polygon fill="midnightblue" stroke="midnightblue" points="144.607,-83.9307 152.895,-77.3306 142.3,-77.3217 144.607,-83.9307"/>
</g>
<!-- Node14 -->
<g id="node27" class="node"><title>Node14</title>
<polygon fill="none" stroke="#bfbfbf" points="550.545,-58.5 550.545,-79.5 591.545,-79.5 591.545,-58.5 550.545,-58.5"/>
<text text-anchor="middle" x="571.045" y="-66.5" font-family="Helvetica,sans-Serif" font-size="10.00">string</text>
</g>
<!-- Node2&#45;&gt;Node14 -->
<g id="edge102" class="edge"><title>Node2&#45;&gt;Node14</title>
<path fill="none" stroke="midnightblue" d="M499.268,-304.43C510.735,-266.817 549.683,-139.068 564.891,-89.187"/>
<polygon fill="midnightblue" stroke="midnightblue" points="568.266,-90.117 567.834,-79.5309 561.57,-88.0755 568.266,-90.117"/>
</g>
<!-- Node25 -->
<g id="node63" class="node"><title>Node25</title>
<a xlink:href="pool_8hpp.html" target="_top" xlink:title="thrill/mem/pool.hpp">
<polygon fill="none" stroke="black" points="369.545,-246.5 369.545,-267.5 468.545,-267.5 468.545,-246.5 369.545,-246.5"/>
<text text-anchor="middle" x="419.045" y="-254.5" font-family="Helvetica,sans-Serif" font-size="10.00">thrill/mem/pool.hpp</text>
</a>
</g>
<!-- Node2&#45;&gt;Node25 -->
<g id="edge76" class="edge"><title>Node2&#45;&gt;Node25</title>
<path fill="none" stroke="midnightblue" d="M481.922,-304.362C470.525,-295.777 454.287,-283.546 441.167,-273.664"/>
<polygon fill="midnightblue" stroke="midnightblue" points="443.172,-270.792 433.079,-267.571 438.96,-276.383 443.172,-270.792"/>
</g>
<!-- Node4 -->
<g id="node7" class="node"><title>Node4</title>
<a xlink:href="allocator__base_8hpp.html" target="_top" xlink:title="thrill/mem/allocator\l_base.hpp">
<polygon fill="none" stroke="black" points="1012.55,-175 1012.55,-209 1111.55,-209 1111.55,-175 1012.55,-175"/>
<text text-anchor="start" x="1020.55" y="-196" font-family="Helvetica,sans-Serif" font-size="10.00">thrill/mem/allocator</text>
<text text-anchor="middle" x="1062.05" y="-183" font-family="Helvetica,sans-Serif" font-size="10.00">_base.hpp</text>
</a>
</g>
<!-- Node3&#45;&gt;Node4 -->
<g id="edge6" class="edge"><title>Node3&#45;&gt;Node4</title>
<path fill="none" stroke="midnightblue" d="M1134.68,-246.267C1123.38,-237.827 1107.23,-225.762 1093.03,-215.151"/>
<polygon fill="midnightblue" stroke="midnightblue" points="1095.05,-212.291 1084.95,-209.11 1090.86,-217.899 1095.05,-212.291"/>
</g>
<!-- Node7 -->
<g id="node13" class="node"><title>Node7</title>
<polygon fill="none" stroke="#bfbfbf" points="1058.05,-0.5 1058.05,-21.5 1120.05,-21.5 1120.05,-0.5 1058.05,-0.5"/>
<text text-anchor="middle" x="1089.05" y="-8.5" font-family="Helvetica,sans-Serif" font-size="10.00">type_traits</text>
</g>
<!-- Node3&#45;&gt;Node7 -->
<g id="edge72" class="edge"><title>Node3&#45;&gt;Node7</title>
<path fill="none" stroke="midnightblue" d="M1155.16,-246.471C1168.15,-222.663 1196,-163.093 1179.05,-116 1165.84,-79.3448 1133.22,-46.9711 1111.1,-28.1786"/>
<polygon fill="midnightblue" stroke="midnightblue" points="1113.14,-25.324 1103.19,-21.6605 1108.68,-30.7239 1113.14,-25.324"/>
</g>
<!-- Node3&#45;&gt;Node14 -->
<g id="edge70" class="edge"><title>Node3&#45;&gt;Node14</title>
<path fill="none" stroke="midnightblue" d="M1089.92,-253.657C994.014,-247.635 809.087,-233.372 748.045,-210 678.664,-183.435 615.204,-119.18 586.775,-87.4115"/>
<polygon fill="midnightblue" stroke="midnightblue" points="589.246,-84.9211 580.014,-79.7233 583.99,-89.5439 589.246,-84.9211"/>
</g>
<!-- Node15 -->
<g id="node29" class="node"><title>Node15</title>
<polygon fill="none" stroke="#bfbfbf" points="609.045,-58.5 609.045,-79.5 653.045,-79.5 653.045,-58.5 609.045,-58.5"/>
<text text-anchor="middle" x="631.045" y="-66.5" font-family="Helvetica,sans-Serif" font-size="10.00">vector</text>
</g>
<!-- Node3&#45;&gt;Node15 -->
<g id="edge74" class="edge"><title>Node3&#45;&gt;Node15</title>
<path fill="none" stroke="midnightblue" d="M1089.84,-248.37C976.685,-230.919 735.08,-188.745 669.045,-138 653.186,-125.813 643.045,-105.031 637.265,-89.452"/>
<polygon fill="midnightblue" stroke="midnightblue" points="640.472,-88.0113 633.943,-79.6673 633.844,-90.2616 640.472,-88.0113"/>
</g>
<!-- Node17 -->
<g id="node34" class="node"><title>Node17</title>
<a xlink:href="mem_2manager_8hpp.html" target="_top" xlink:title="thrill/mem/manager.hpp">
<polygon fill="none" stroke="black" points="1225.55,-116.5 1225.55,-137.5 1344.55,-137.5 1344.55,-116.5 1225.55,-116.5"/>
<text text-anchor="middle" x="1285.05" y="-124.5" font-family="Helvetica,sans-Serif" font-size="10.00">thrill/mem/manager.hpp</text>
</a>
</g>
<!-- Node3&#45;&gt;Node17 -->
<g id="edge58" class="edge"><title>Node3&#45;&gt;Node17</title>
<path fill="none" stroke="midnightblue" d="M1165.03,-246.457C1178.21,-237.447 1197.1,-223.788 1212.05,-210 1234.02,-189.721 1256.3,-163.375 1270.36,-145.863"/>
<polygon fill="midnightblue" stroke="midnightblue" points="1273.45,-147.599 1276.92,-137.589 1267.96,-143.25 1273.45,-147.599"/>
</g>
<!-- Node20 -->
<g id="node40" class="node"><title>Node20</title>
<polygon fill="none" stroke="#bfbfbf" points="1289.55,-58.5 1289.55,-79.5 1338.55,-79.5 1338.55,-58.5 1289.55,-58.5"/>
<text text-anchor="middle" x="1314.05" y="-66.5" font-family="Helvetica,sans-Serif" font-size="10.00">cassert</text>
</g>
<!-- Node3&#45;&gt;Node20 -->
<g id="edge60" class="edge"><title>Node3&#45;&gt;Node20</title>
<path fill="none" stroke="midnightblue" d="M1207.31,-246.5C1299.52,-228.503 1472.06,-188.749 1505.05,-138 1510.37,-129.801 1511.08,-123.696 1505.05,-116 1495.37,-103.653 1401.18,-84.8165 1348.79,-75.1675"/>
<polygon fill="midnightblue" stroke="midnightblue" points="1349.37,-71.7159 1338.9,-73.3648 1348.11,-78.6023 1349.37,-71.7159"/>
</g>
<!-- Node21 -->
<g id="node44" class="node"><title>Node21</title>
<polygon fill="none" stroke="#bfbfbf" points="1127.55,-116.5 1127.55,-137.5 1170.55,-137.5 1170.55,-116.5 1127.55,-116.5"/>
<text text-anchor="middle" x="1149.05" y="-124.5" font-family="Helvetica,sans-Serif" font-size="10.00">deque</text>
</g>
<!-- Node3&#45;&gt;Node21 -->
<g id="edge62" class="edge"><title>Node3&#45;&gt;Node21</title>
<path fill="none" stroke="midnightblue" d="M1149.05,-246.362C1149.05,-224.936 1149.05,-176.24 1149.05,-148.114"/>
<polygon fill="midnightblue" stroke="midnightblue" points="1152.55,-147.785 1149.05,-137.785 1145.55,-147.785 1152.55,-147.785"/>
</g>
<!-- Node22 -->
<g id="node46" class="node"><title>Node22</title>
<polygon fill="none" stroke="#bfbfbf" points="1361.55,-116.5 1361.55,-137.5 1406.55,-137.5 1406.55,-116.5 1361.55,-116.5"/>
<text text-anchor="middle" x="1384.05" y="-124.5" font-family="Helvetica,sans-Serif" font-size="10.00">iosfwd</text>
</g>
<!-- Node3&#45;&gt;Node22 -->
<g id="edge64" class="edge"><title>Node3&#45;&gt;Node22</title>
<path fill="none" stroke="midnightblue" d="M1171.04,-246.357C1190.01,-237.065 1218.05,-223.059 1242.05,-210 1283.06,-187.678 1329.61,-160.01 1357.89,-142.931"/>
<polygon fill="midnightblue" stroke="midnightblue" points="1360.01,-145.742 1366.75,-137.568 1356.38,-139.754 1360.01,-145.742"/>
</g>
<!-- Node23 -->
<g id="node48" class="node"><title>Node23</title>
<polygon fill="none" stroke="#bfbfbf" points="1461.55,-116.5 1461.55,-137.5 1496.55,-137.5 1496.55,-116.5 1461.55,-116.5"/>
<text text-anchor="middle" x="1479.05" y="-124.5" font-family="Helvetica,sans-Serif" font-size="10.00">new</text>
</g>
<!-- Node3&#45;&gt;Node23 -->
<g id="edge68" class="edge"><title>Node3&#45;&gt;Node23</title>
<path fill="none" stroke="midnightblue" d="M1182.49,-246.435C1210.61,-237.359 1251.74,-223.617 1287.05,-210 1346.66,-187.004 1415.03,-156.408 1451.96,-139.524"/>
<polygon fill="midnightblue" stroke="midnightblue" points="1453.88,-142.495 1461.5,-135.143 1450.96,-136.133 1453.88,-142.495"/>
</g>
<!-- Node24 -->
<g id="node57" class="node"><title>Node24</title>
<polygon fill="none" stroke="#bfbfbf" points="562.045,-181.5 562.045,-202.5 614.045,-202.5 614.045,-181.5 562.045,-181.5"/>
<text text-anchor="middle" x="588.045" y="-189.5" font-family="Helvetica,sans-Serif" font-size="10.00">memory</text>
</g>
<!-- Node3&#45;&gt;Node24 -->
<g id="edge66" class="edge"><title>Node3&#45;&gt;Node24</title>
<path fill="none" stroke="midnightblue" d="M1089.89,-254.138C972.478,-248.052 713.918,-232.514 628.045,-210 624.445,-209.056 620.761,-207.816 617.158,-206.429"/>
<polygon fill="midnightblue" stroke="midnightblue" points="618.489,-203.192 607.916,-202.509 615.756,-209.636 618.489,-203.192"/>
</g>
<!-- Node5 -->
<g id="node9" class="node"><title>Node5</title>
<a xlink:href="string_8hpp.html" target="_top" xlink:title="thrill/common/string.hpp">
<polygon fill="none" stroke="black" points="875.545,-116.5 875.545,-137.5 996.545,-137.5 996.545,-116.5 875.545,-116.5"/>
<text text-anchor="middle" x="936.045" y="-124.5" font-family="Helvetica,sans-Serif" font-size="10.00">thrill/common/string.hpp</text>
</a>
</g>
<!-- Node4&#45;&gt;Node5 -->
<g id="edge8" class="edge"><title>Node4&#45;&gt;Node5</title>
<path fill="none" stroke="midnightblue" d="M1028.94,-174.922C1009.35,-164.818 984.75,-152.126 965.785,-142.342"/>
<polygon fill="midnightblue" stroke="midnightblue" points="967.198,-139.133 956.706,-137.658 963.988,-145.354 967.198,-139.133"/>
</g>
<!-- Node4&#45;&gt;Node7 -->
<g id="edge54" class="edge"><title>Node4&#45;&gt;Node7</title>
<path fill="none" stroke="midnightblue" d="M1059.23,-174.861C1057.45,-158.665 1057.07,-134.204 1067.05,-116 1080.03,-92.3032 1103.84,-104.111 1116.05,-80 1124.42,-63.4623 1114.81,-43.6811 1104.81,-29.5473"/>
<polygon fill="midnightblue" stroke="midnightblue" points="1107.55,-27.3681 1098.69,-21.5562 1101.99,-31.6238 1107.55,-27.3681"/>
</g>
<!-- Node4&#45;&gt;Node14 -->
<g id="edge52" class="edge"><title>Node4&#45;&gt;Node14</title>
<path fill="none" stroke="midnightblue" d="M1012.53,-188.133C921.364,-180.531 730.646,-162.248 669.045,-138 638.517,-125.983 608.42,-102.595 589.802,-86.4013"/>
<polygon fill="midnightblue" stroke="midnightblue" points="592.123,-83.7812 582.327,-79.7448 587.468,-89.009 592.123,-83.7812"/>
</g>
<!-- Node4&#45;&gt;Node15 -->
<g id="edge56" class="edge"><title>Node4&#45;&gt;Node15</title>
<path fill="none" stroke="midnightblue" d="M1012.44,-188.137C927.547,-180.928 758.377,-163.781 705.045,-138 680.893,-126.325 659.222,-104.024 645.667,-87.9295"/>
<polygon fill="midnightblue" stroke="midnightblue" points="648.03,-85.2874 639.007,-79.7338 642.597,-89.7019 648.03,-85.2874"/>
</g>
<!-- Node16 -->
<g id="node31" class="node"><title>Node16</title>
<a xlink:href="malloc__tracker_8hpp.html" target="_top" xlink:title="thrill/mem/malloc_tracker.hpp">
<polygon fill="none" stroke="black" points="713.545,-116.5 713.545,-137.5 858.545,-137.5 858.545,-116.5 713.545,-116.5"/>
<text text-anchor="middle" x="786.045" y="-124.5" font-family="Helvetica,sans-Serif" font-size="10.00">thrill/mem/malloc_tracker.hpp</text>
</a>
</g>
<!-- Node4&#45;&gt;Node16 -->
<g id="edge30" class="edge"><title>Node4&#45;&gt;Node16</title>
<path fill="none" stroke="midnightblue" d="M1012.38,-180.304C964.033,-168.917 890.723,-151.652 840.73,-139.879"/>
<polygon fill="midnightblue" stroke="midnightblue" points="841.281,-136.413 830.745,-137.527 839.676,-143.226 841.281,-136.413"/>
</g>
<!-- Node4&#45;&gt;Node17 -->
<g id="edge34" class="edge"><title>Node4&#45;&gt;Node17</title>
<path fill="none" stroke="midnightblue" d="M1111.81,-177.494C1149.83,-166.413 1201.83,-151.257 1238.91,-140.447"/>
<polygon fill="midnightblue" stroke="midnightblue" points="1240.33,-143.679 1248.95,-137.521 1238.37,-136.959 1240.33,-143.679"/>
</g>
<!-- Node19 -->
<g id="node38" class="node"><title>Node19</title>
<polygon fill="none" stroke="#bfbfbf" points="1226.05,-58.5 1226.05,-79.5 1272.05,-79.5 1272.05,-58.5 1226.05,-58.5"/>
<text text-anchor="middle" x="1249.05" y="-66.5" font-family="Helvetica,sans-Serif" font-size="10.00">atomic</text>
</g>
<!-- Node4&#45;&gt;Node19 -->
<g id="edge42" class="edge"><title>Node4&#45;&gt;Node19</title>
<path fill="none" stroke="midnightblue" d="M1062.92,-174.795C1064.72,-157.603 1070.1,-131.553 1086.05,-116 1104.46,-98.0397 1173.65,-82.705 1215.74,-74.7762"/>
<polygon fill="midnightblue" stroke="midnightblue" points="1216.61,-78.1753 1225.81,-72.9228 1215.34,-71.2909 1216.61,-78.1753"/>
</g>
<!-- Node4&#45;&gt;Node20 -->
<g id="edge44" class="edge"><title>Node4&#45;&gt;Node20</title>
<path fill="none" stroke="midnightblue" d="M1070.2,-174.968C1079.52,-157.401 1096.46,-130.575 1119.05,-116 1178.36,-77.7319 1207.42,-97.7711 1279.31,-80.172"/>
<polygon fill="midnightblue" stroke="midnightblue" points="1280.48,-83.4854 1289.26,-77.5652 1278.7,-76.7139 1280.48,-83.4854"/>
</g>
<!-- Node4&#45;&gt;Node21 -->
<g id="edge46" class="edge"><title>Node4&#45;&gt;Node21</title>
<path fill="none" stroke="midnightblue" d="M1084.9,-174.922C1097.75,-165.326 1113.72,-153.394 1126.51,-143.837"/>
<polygon fill="midnightblue" stroke="midnightblue" points="1128.86,-146.448 1134.78,-137.658 1124.67,-140.84 1128.86,-146.448"/>
</g>
<!-- Node4&#45;&gt;Node22 -->
<g id="edge48" class="edge"><title>Node4&#45;&gt;Node22</title>
<path fill="none" stroke="midnightblue" d="M1111.75,-185.215C1168.06,-176.989 1262.61,-161.546 1351.77,-138.066"/>
<polygon fill="midnightblue" stroke="midnightblue" points="1352.73,-141.431 1361.49,-135.467 1350.92,-134.668 1352.73,-141.431"/>
</g>
<!-- Node4&#45;&gt;Node23 -->
<g id="edge50" class="edge"><title>Node4&#45;&gt;Node23</title>
<path fill="none" stroke="midnightblue" d="M1111.78,-184.687C1180.16,-174.564 1307.03,-155.542 1415.05,-138 1426.94,-136.069 1440.05,-133.833 1451.29,-131.884"/>
<polygon fill="midnightblue" stroke="midnightblue" points="1452.15,-135.288 1461.4,-130.122 1450.95,-128.392 1452.15,-135.288"/>
</g>
<!-- Node6 -->
<g id="node11" class="node"><title>Node6</title>
<a xlink:href="defines_8hpp.html" target="_top" xlink:title="thrill/common/defines.hpp">
<polygon fill="none" stroke="black" points="979.045,-58.5 979.045,-79.5 1107.05,-79.5 1107.05,-58.5 979.045,-58.5"/>
<text text-anchor="middle" x="1043.05" y="-66.5" font-family="Helvetica,sans-Serif" font-size="10.00">thrill/common/defines.hpp</text>
</a>
</g>
<!-- Node5&#45;&gt;Node6 -->
<g id="edge10" class="edge"><title>Node5&#45;&gt;Node6</title>
<path fill="none" stroke="midnightblue" d="M955.671,-116.362C972.186,-107.409 996.019,-94.4908 1014.62,-84.4064"/>
<polygon fill="midnightblue" stroke="midnightblue" points="1016.42,-87.4132 1023.54,-79.5707 1013.08,-81.2592 1016.42,-87.4132"/>
</g>
<!-- Node8 -->
<g id="node15" class="node"><title>Node8</title>
<polygon fill="none" stroke="#bfbfbf" points="857.045,-58.5 857.045,-79.5 895.045,-79.5 895.045,-58.5 857.045,-58.5"/>
<text text-anchor="middle" x="876.045" y="-66.5" font-family="Helvetica,sans-Serif" font-size="10.00">array</text>
</g>
<!-- Node5&#45;&gt;Node8 -->
<g id="edge14" class="edge"><title>Node5&#45;&gt;Node8</title>
<path fill="none" stroke="midnightblue" d="M925.04,-116.362C916.498,-108.104 904.465,-96.4725 894.462,-86.8029"/>
<polygon fill="midnightblue" stroke="midnightblue" points="896.603,-84.0044 886.98,-79.5707 891.738,-89.0374 896.603,-84.0044"/>
</g>
<!-- Node9 -->
<g id="node17" class="node"><title>Node9</title>
<polygon fill="none" stroke="#bfbfbf" points="912.545,-58.5 912.545,-79.5 961.545,-79.5 961.545,-58.5 912.545,-58.5"/>
<text text-anchor="middle" x="937.045" y="-66.5" font-family="Helvetica,sans-Serif" font-size="10.00">cstdarg</text>
</g>
<!-- Node5&#45;&gt;Node9 -->
<g id="edge16" class="edge"><title>Node5&#45;&gt;Node9</title>
<path fill="none" stroke="midnightblue" d="M936.229,-116.362C936.357,-108.922 936.532,-98.7427 936.688,-89.7276"/>
<polygon fill="midnightblue" stroke="midnightblue" points="940.19,-89.6295 936.863,-79.5707 933.191,-89.5088 940.19,-89.6295"/>
</g>
<!-- Node10 -->
<g id="node19" class="node"><title>Node10</title>
<polygon fill="none" stroke="#bfbfbf" points="670.545,-58.5 670.545,-79.5 715.545,-79.5 715.545,-58.5 670.545,-58.5"/>
<text text-anchor="middle" x="693.045" y="-66.5" font-family="Helvetica,sans-Serif" font-size="10.00">cstdlib</text>
</g>
<!-- Node5&#45;&gt;Node10 -->
<g id="edge18" class="edge"><title>Node5&#45;&gt;Node10</title>
<path fill="none" stroke="midnightblue" d="M879.779,-116.485C839.131,-108.444 782.795,-96.3885 725.566,-80.2216"/>
<polygon fill="midnightblue" stroke="midnightblue" points="726.205,-76.7639 715.628,-77.3745 724.277,-83.4932 726.205,-76.7639"/>
</g>
<!-- Node11 -->
<g id="node21" class="node"><title>Node11</title>
<polygon fill="none" stroke="#bfbfbf" points="733.045,-58.5 733.045,-79.5 773.045,-79.5 773.045,-58.5 733.045,-58.5"/>
<text text-anchor="middle" x="753.045" y="-66.5" font-family="Helvetica,sans-Serif" font-size="10.00">limits</text>
</g>
<!-- Node5&#45;&gt;Node11 -->
<g id="edge20" class="edge"><title>Node5&#45;&gt;Node11</title>
<path fill="none" stroke="midnightblue" d="M899.108,-116.475C869.855,-107.972 827.773,-95.3754 782.883,-80.1529"/>
<polygon fill="midnightblue" stroke="midnightblue" points="783.859,-76.7879 773.264,-76.8652 781.595,-83.4116 783.859,-76.7879"/>
</g>
<!-- Node12 -->
<g id="node23" class="node"><title>Node12</title>
<polygon fill="none" stroke="#bfbfbf" points="790.545,-58.5 790.545,-79.5 839.545,-79.5 839.545,-58.5 790.545,-58.5"/>
<text text-anchor="middle" x="815.045" y="-66.5" font-family="Helvetica,sans-Serif" font-size="10.00">random</text>
</g>
<!-- Node5&#45;&gt;Node12 -->
<g id="edge22" class="edge"><title>Node5&#45;&gt;Node12</title>
<path fill="none" stroke="midnightblue" d="M914.133,-116.497C895.234,-107.438 867.714,-94.2462 846.469,-84.0628"/>
<polygon fill="midnightblue" stroke="midnightblue" points="847.734,-80.7876 837.203,-79.6212 844.708,-87.0999 847.734,-80.7876"/>
</g>
<!-- Node5&#45;&gt;Node13 -->
<g id="edge24" class="edge"><title>Node5&#45;&gt;Node13</title>
<path fill="none" stroke="midnightblue" d="M875.505,-117.033C872.648,-116.662 869.817,-116.315 867.045,-116 618.593,-87.7673 317.597,-74.3181 215.168,-70.3222"/>
<polygon fill="midnightblue" stroke="midnightblue" points="215.177,-66.8201 205.05,-69.9333 214.908,-73.8149 215.177,-66.8201"/>
</g>
<!-- Node5&#45;&gt;Node14 -->
<g id="edge26" class="edge"><title>Node5&#45;&gt;Node14</title>
<path fill="none" stroke="midnightblue" d="M875.476,-117.26C872.627,-116.828 869.805,-116.406 867.045,-116 751.819,-99.0497 717.954,-108.853 601.769,-80.0354"/>
<polygon fill="midnightblue" stroke="midnightblue" points="602.323,-76.5657 591.771,-77.512 600.61,-83.3529 602.323,-76.5657"/>
</g>
<!-- Node5&#45;&gt;Node15 -->
<g id="edge28" class="edge"><title>Node5&#45;&gt;Node15</title>
<path fill="none" stroke="midnightblue" d="M875.328,-117.15C807.637,-106.089 703.264,-88.7697 663.156,-79.7937"/>
<polygon fill="midnightblue" stroke="midnightblue" points="663.797,-76.3478 653.254,-77.3935 662.148,-83.1508 663.797,-76.3478"/>
</g>
<!-- Node6&#45;&gt;Node7 -->
<g id="edge12" class="edge"><title>Node6&#45;&gt;Node7</title>
<path fill="none" stroke="midnightblue" d="M1051.48,-58.3619C1057.84,-50.3496 1066.71,-39.1605 1074.24,-29.6696"/>
<polygon fill="midnightblue" stroke="midnightblue" points="1077.19,-31.5805 1080.66,-21.5707 1071.71,-27.2308 1077.19,-31.5805"/>
</g>
<!-- Node16&#45;&gt;Node10 -->
<g id="edge32" class="edge"><title>Node16&#45;&gt;Node10</title>
<path fill="none" stroke="midnightblue" d="M768.987,-116.362C754.96,-107.614 734.861,-95.0786 718.863,-85.1015"/>
<polygon fill="midnightblue" stroke="midnightblue" points="720.332,-81.8927 709.995,-79.5707 716.628,-87.8323 720.332,-81.8927"/>
</g>
<!-- Node17&#45;&gt;Node18 -->
<g id="edge36" class="edge"><title>Node17&#45;&gt;Node18</title>
<path fill="none" stroke="midnightblue" d="M1312.03,-116.497C1335.9,-107.205 1370.94,-93.5649 1397.35,-83.2832"/>
<polygon fill="midnightblue" stroke="midnightblue" points="1398.96,-86.4122 1407.01,-79.5231 1396.42,-79.889 1398.96,-86.4122"/>
</g>
<!-- Node17&#45;&gt;Node19 -->
<g id="edge38" class="edge"><title>Node17&#45;&gt;Node19</title>
<path fill="none" stroke="midnightblue" d="M1278.44,-116.362C1273.57,-108.513 1266.81,-97.6159 1261,-88.2527"/>
<polygon fill="midnightblue" stroke="midnightblue" points="1263.85,-86.2213 1255.61,-79.5707 1257.91,-89.9129 1263.85,-86.2213"/>
</g>
<!-- Node17&#45;&gt;Node20 -->
<g id="edge40" class="edge"><title>Node17&#45;&gt;Node20</title>
<path fill="none" stroke="midnightblue" d="M1290.36,-116.362C1294.25,-108.595 1299.62,-97.8426 1304.27,-88.5458"/>
<polygon fill="midnightblue" stroke="midnightblue" points="1307.42,-90.0802 1308.76,-79.5707 1301.16,-86.9497 1307.42,-90.0802"/>
</g>
<!-- Node25&#45;&gt;Node4 -->
<g id="edge80" class="edge"><title>Node25&#45;&gt;Node4</title>
<path fill="none" stroke="midnightblue" d="M468.699,-251.981C585.312,-240.192 876.31,-210.776 1002.32,-198.038"/>
<polygon fill="midnightblue" stroke="midnightblue" points="1002.95,-201.492 1012.54,-197.004 1002.24,-194.528 1002.95,-201.492"/>
</g>
<!-- Node25&#45;&gt;Node7 -->
<g id="edge94" class="edge"><title>Node25&#45;&gt;Node7</title>
<path fill="none" stroke="midnightblue" d="M419.911,-246.248C421.444,-230.158 425.336,-199.032 434.045,-174 457.192,-107.47 476.26,-83.1864 542.045,-58 634.422,-22.6326 936.569,-13.7196 1047.62,-11.6127"/>
<polygon fill="midnightblue" stroke="midnightblue" points="1047.82,-15.1097 1057.75,-11.4294 1047.69,-8.11088 1047.82,-15.1097"/>
</g>
<!-- Node25&#45;&gt;Node14 -->
<g id="edge92" class="edge"><title>Node25&#45;&gt;Node14</title>
<path fill="none" stroke="midnightblue" d="M422.849,-246.134C433.308,-216.715 462.986,-136.354 482.045,-116 498.115,-98.839 521.877,-86.734 540.807,-79.1108"/>
<polygon fill="midnightblue" stroke="midnightblue" points="542.102,-82.3628 550.199,-75.5298 539.609,-75.822 542.102,-82.3628"/>
</g>
<!-- Node25&#45;&gt;Node15 -->
<g id="edge98" class="edge"><title>Node25&#45;&gt;Node15</title>
<path fill="none" stroke="midnightblue" d="M431.051,-246.354C466.106,-215.267 568.552,-124.418 611.618,-86.2274"/>
<polygon fill="midnightblue" stroke="midnightblue" points="614.012,-88.7832 619.171,-79.5296 609.367,-83.5458 614.012,-88.7832"/>
</g>
<!-- Node25&#45;&gt;Node18 -->
<g id="edge82" class="edge"><title>Node25&#45;&gt;Node18</title>
<path fill="none" stroke="midnightblue" d="M469.012,-254.773C607.487,-248.422 994.225,-229.424 1120.05,-210 1253.42,-189.409 1318.23,-232.022 1415.05,-138 1427.96,-125.462 1432.34,-105.023 1433.71,-89.638"/>
<polygon fill="midnightblue" stroke="midnightblue" points="1437.21,-89.6875 1434.26,-79.5134 1430.22,-89.3104 1437.21,-89.6875"/>
</g>
<!-- Node25&#45;&gt;Node24 -->
<g id="edge88" class="edge"><title>Node25&#45;&gt;Node24</title>
<path fill="none" stroke="midnightblue" d="M450.044,-246.425C476.328,-237.287 514.923,-223.465 548.045,-210 550.691,-208.925 553.419,-207.778 556.15,-206.604"/>
<polygon fill="midnightblue" stroke="midnightblue" points="557.578,-209.8 565.325,-202.572 554.762,-203.391 557.578,-209.8"/>
</g>
<!-- Node26 -->
<g id="node65" class="node"><title>Node26</title>
<a xlink:href="config_8hpp.html" target="_top" xlink:title="thrill/common/config.hpp">
<polygon fill="none" stroke="black" points="19.5451,-181.5 19.5451,-202.5 142.545,-202.5 142.545,-181.5 19.5451,-181.5"/>
<text text-anchor="middle" x="81.0451" y="-189.5" font-family="Helvetica,sans-Serif" font-size="10.00">thrill/common/config.hpp</text>
</a>
</g>
<!-- Node25&#45;&gt;Node26 -->
<g id="edge78" class="edge"><title>Node25&#45;&gt;Node26</title>
<path fill="none" stroke="midnightblue" d="M369.426,-249.488C315.46,-241.04 226.77,-226.35 151.045,-210 144.205,-208.523 137.024,-206.836 129.974,-205.099"/>
<polygon fill="midnightblue" stroke="midnightblue" points="130.346,-201.584 119.794,-202.539 128.639,-208.373 130.346,-201.584"/>
</g>
<!-- Node27 -->
<g id="node69" class="node"><title>Node27</title>
<polygon fill="none" stroke="#bfbfbf" points="159.545,-181.5 159.545,-202.5 208.545,-202.5 208.545,-181.5 159.545,-181.5"/>
<text text-anchor="middle" x="184.045" y="-189.5" font-family="Helvetica,sans-Serif" font-size="10.00">cstddef</text>
</g>
<!-- Node25&#45;&gt;Node27 -->
<g id="edge84" class="edge"><title>Node25&#45;&gt;Node27</title>
<path fill="none" stroke="midnightblue" d="M369.371,-249.315C327.788,-241.973 267.348,-229.163 217.045,-210 214.914,-209.188 212.751,-208.263 210.603,-207.27"/>
<polygon fill="midnightblue" stroke="midnightblue" points="211.939,-204.023 201.436,-202.628 208.776,-210.268 211.939,-204.023"/>
</g>
<!-- Node28 -->
<g id="node71" class="node"><title>Node28</title>
<polygon fill="none" stroke="#bfbfbf" points="226.045,-181.5 226.045,-202.5 272.045,-202.5 272.045,-181.5 226.045,-181.5"/>
<text text-anchor="middle" x="249.045" y="-189.5" font-family="Helvetica,sans-Serif" font-size="10.00">cstdint</text>
</g>
<!-- Node25&#45;&gt;Node28 -->
<g id="edge86" class="edge"><title>Node25&#45;&gt;Node28</title>
<path fill="none" stroke="midnightblue" d="M382.022,-246.423C353.824,-237.884 314.319,-224.872 281.045,-210 279.256,-209.2 277.434,-208.333 275.615,-207.426"/>
<polygon fill="midnightblue" stroke="midnightblue" points="277.159,-204.283 266.685,-202.687 273.878,-210.466 277.159,-204.283"/>
</g>
<!-- Node29 -->
<g id="node74" class="node"><title>Node29</title>
<polygon fill="none" stroke="#bfbfbf" points="290.045,-181.5 290.045,-202.5 334.045,-202.5 334.045,-181.5 290.045,-181.5"/>
<text text-anchor="middle" x="312.045" y="-189.5" font-family="Helvetica,sans-Serif" font-size="10.00">mutex</text>
</g>
<!-- Node25&#45;&gt;Node29 -->
<g id="edge90" class="edge"><title>Node25&#45;&gt;Node29</title>
<path fill="none" stroke="midnightblue" d="M401.376,-246.267C384.159,-235.807 357.779,-219.782 338.143,-207.854"/>
<polygon fill="midnightblue" stroke="midnightblue" points="339.749,-204.734 329.385,-202.534 336.115,-210.717 339.749,-204.734"/>
</g>
<!-- Node30 -->
<g id="node78" class="node"><title>Node30</title>
<polygon fill="none" stroke="#bfbfbf" points="352.045,-181.5 352.045,-202.5 392.045,-202.5 392.045,-181.5 352.045,-181.5"/>
<text text-anchor="middle" x="372.045" y="-189.5" font-family="Helvetica,sans-Serif" font-size="10.00">utility</text>
</g>
<!-- Node25&#45;&gt;Node30 -->
<g id="edge96" class="edge"><title>Node25&#45;&gt;Node30</title>
<path fill="none" stroke="midnightblue" d="M411.284,-246.267C404.303,-236.612 393.893,-222.215 385.549,-210.675"/>
<polygon fill="midnightblue" stroke="midnightblue" points="388.358,-208.586 379.662,-202.534 382.685,-212.688 388.358,-208.586"/>
</g>
</g>
</svg>
