<?xml version="1.0" encoding="UTF-8" standalone="no"?>
<!DOCTYPE svg PUBLIC "-//W3C//DTD SVG 1.1//EN"
 "http://www.w3.org/Graphics/SVG/1.1/DTD/svg11.dtd">
<!-- Generated by graphviz version 2.26.3 (20100126.1600)
 -->
<!-- Title: thrill/common/qsort.hpp Pages: 1 -->
<svg width="1615pt" height="334pt"
 viewBox="0.00 0.00 1614.79 334.00" xmlns="http://www.w3.org/2000/svg" xmlns:xlink="http://www.w3.org/1999/xlink">
<g id="graph1" class="graph" transform="scale(1 1) rotate(0) translate(4 330)">
<title>thrill/common/qsort.hpp</title>
<!-- Node1 -->
<g id="node1" class="node"><title>Node1</title>
<polygon fill="#bfbfbf" stroke="black" points="1307.29,-304.5 1307.29,-325.5 1426.29,-325.5 1426.29,-304.5 1307.29,-304.5"/>
<text text-anchor="middle" x="1366.79" y="-312.5" font-family="Helvetica,sans-Serif" font-size="10.00">thrill/common/qsort.hpp</text>
</g>
<!-- Node2 -->
<g id="node3" class="node"><title>Node2</title>
<a xlink:href="logger_8hpp.html" target="_top" xlink:title="thrill/common/logger.hpp">
<polygon fill="none" stroke="black" points="1065.29,-246.5 1065.29,-267.5 1188.29,-267.5 1188.29,-246.5 1065.29,-246.5"/>
<text text-anchor="middle" x="1126.79" y="-254.5" font-family="Helvetica,sans-Serif" font-size="10.00">thrill/common/logger.hpp</text>
</a>
</g>
<!-- Node1&#45;&gt;Node2 -->
<g id="edge2" class="edge"><title>Node1&#45;&gt;Node2</title>
<path fill="none" stroke="midnightblue" d="M1323.33,-304.497C1283.11,-294.775 1223.18,-280.294 1180.09,-269.879"/>
<polygon fill="midnightblue" stroke="midnightblue" points="1180.88,-266.47 1170.34,-267.523 1179.24,-273.274 1180.88,-266.47"/>
</g>
<!-- Node18 -->
<g id="node36" class="node"><title>Node18</title>
<polygon fill="none" stroke="#bfbfbf" points="1540.79,-0.5 1540.79,-21.5 1596.79,-21.5 1596.79,-0.5 1540.79,-0.5"/>
<text text-anchor="middle" x="1568.79" y="-8.5" font-family="Helvetica,sans-Serif" font-size="10.00">algorithm</text>
</g>
<!-- Node1&#45;&gt;Node18 -->
<g id="edge106" class="edge"><title>Node1&#45;&gt;Node18</title>
<path fill="none" stroke="midnightblue" d="M1406.97,-304.461C1475.29,-285.343 1606.79,-242.849 1606.79,-199 1606.79,-199 1606.79,-199 1606.79,-134 1606.79,-96.0608 1590.09,-54.3545 1578.83,-30.5581"/>
<polygon fill="midnightblue" stroke="midnightblue" points="1581.94,-28.9608 1574.4,-21.5194 1575.66,-32.0397 1581.94,-28.9608"/>
</g>
<!-- Node3 -->
<g id="node5" class="node"><title>Node3</title>
<a xlink:href="allocator_8hpp.html" target="_top" xlink:title="thrill/mem/allocator.hpp">
<polygon fill="none" stroke="black" points="1067.79,-188.5 1067.79,-209.5 1185.79,-209.5 1185.79,-188.5 1067.79,-188.5"/>
<text text-anchor="middle" x="1126.79" y="-196.5" font-family="Helvetica,sans-Serif" font-size="10.00">thrill/mem/allocator.hpp</text>
</a>
</g>
<!-- Node2&#45;&gt;Node3 -->
<g id="edge4" class="edge"><title>Node2&#45;&gt;Node3</title>
<path fill="none" stroke="midnightblue" d="M1126.79,-246.362C1126.79,-238.922 1126.79,-228.743 1126.79,-219.728"/>
<polygon fill="midnightblue" stroke="midnightblue" points="1130.29,-219.571 1126.79,-209.571 1123.29,-219.571 1130.29,-219.571"/>
</g>
<!-- Node13 -->
<g id="node25" class="node"><title>Node13</title>
<polygon fill="none" stroke="#bfbfbf" points="1198.79,-0.5 1198.79,-21.5 1250.79,-21.5 1250.79,-0.5 1198.79,-0.5"/>
<text text-anchor="middle" x="1224.79" y="-8.5" font-family="Helvetica,sans-Serif" font-size="10.00">sstream</text>
</g>
<!-- Node2&#45;&gt;Node13 -->
<g id="edge102" class="edge"><title>Node2&#45;&gt;Node13</title>
<path fill="none" stroke="midnightblue" d="M1185.61,-246.46C1266.92,-228.381 1410.74,-182.941 1473.79,-80 1541.52,30.5777 1637,-110.491 1260.89,-22.0205"/>
<polygon fill="midnightblue" stroke="midnightblue" points="1261.6,-18.5914 1251.06,-19.6816 1259.98,-25.4013 1261.6,-18.5914"/>
</g>
<!-- Node14 -->
<g id="node27" class="node"><title>Node14</title>
<polygon fill="none" stroke="#bfbfbf" points="386.295,-0.5 386.295,-21.5 427.295,-21.5 427.295,-0.5 386.295,-0.5"/>
<text text-anchor="middle" x="406.795" y="-8.5" font-family="Helvetica,sans-Serif" font-size="10.00">string</text>
</g>
<!-- Node2&#45;&gt;Node14 -->
<g id="edge104" class="edge"><title>Node2&#45;&gt;Node14</title>
<path fill="none" stroke="midnightblue" d="M1065.08,-256.078C841.446,-252.086 83.087,-232.654 14.7948,-152 -12.7478,-119.472 0.916431,-85.1239 33.7948,-58 60.0785,-36.3166 291.664,-18.7353 376.134,-12.9913"/>
<polygon fill="midnightblue" stroke="midnightblue" points="376.394,-16.4818 386.138,-12.3199 375.926,-9.49754 376.394,-16.4818"/>
</g>
<!-- Node27 -->
<g id="node66" class="node"><title>Node27</title>
<a xlink:href="pool_8hpp.html" target="_top" xlink:title="thrill/mem/pool.hpp">
<polygon fill="none" stroke="black" points="370.295,-188.5 370.295,-209.5 469.295,-209.5 469.295,-188.5 370.295,-188.5"/>
<text text-anchor="middle" x="419.795" y="-196.5" font-family="Helvetica,sans-Serif" font-size="10.00">thrill/mem/pool.hpp</text>
</a>
</g>
<!-- Node2&#45;&gt;Node27 -->
<g id="edge78" class="edge"><title>Node2&#45;&gt;Node27</title>
<path fill="none" stroke="midnightblue" d="M1065.29,-251.954C930.882,-240.928 612.396,-214.8 479.577,-203.904"/>
<polygon fill="midnightblue" stroke="midnightblue" points="479.834,-200.414 469.581,-203.084 479.261,-207.39 479.834,-200.414"/>
</g>
<!-- Node4 -->
<g id="node7" class="node"><title>Node4</title>
<a xlink:href="allocator__base_8hpp.html" target="_top" xlink:title="thrill/mem/allocator\l_base.hpp">
<polygon fill="none" stroke="black" points="1013.29,-117 1013.29,-151 1112.29,-151 1112.29,-117 1013.29,-117"/>
<text text-anchor="start" x="1021.29" y="-138" font-family="Helvetica,sans-Serif" font-size="10.00">thrill/mem/allocator</text>
<text text-anchor="middle" x="1062.79" y="-125" font-family="Helvetica,sans-Serif" font-size="10.00">_base.hpp</text>
</a>
</g>
<!-- Node3&#45;&gt;Node4 -->
<g id="edge6" class="edge"><title>Node3&#45;&gt;Node4</title>
<path fill="none" stroke="midnightblue" d="M1116.23,-188.267C1108.23,-180.142 1096.92,-168.659 1086.77,-158.347"/>
<polygon fill="midnightblue" stroke="midnightblue" points="1089.15,-155.78 1079.64,-151.11 1084.16,-160.691 1089.15,-155.78"/>
</g>
<!-- Node3&#45;&gt;Node14 -->
<g id="edge72" class="edge"><title>Node3&#45;&gt;Node14</title>
<path fill="none" stroke="midnightblue" d="M1067.61,-195.912C940.292,-188.944 648.61,-171.108 607.795,-152 587.302,-142.406 590.387,-128.897 571.795,-116 540.091,-94.0072 525.652,-100.229 492.795,-80 468,-64.7345 442.308,-43.2496 425.539,-28.3256"/>
<polygon fill="midnightblue" stroke="midnightblue" points="427.836,-25.6836 418.067,-21.5823 423.146,-30.8804 427.836,-25.6836"/>
</g>
<!-- Node15 -->
<g id="node29" class="node"><title>Node15</title>
<polygon fill="none" stroke="#bfbfbf" points="543.795,-0.5 543.795,-21.5 587.795,-21.5 587.795,-0.5 543.795,-0.5"/>
<text text-anchor="middle" x="565.795" y="-8.5" font-family="Helvetica,sans-Serif" font-size="10.00">vector</text>
</g>
<!-- Node3&#45;&gt;Node15 -->
<g id="edge76" class="edge"><title>Node3&#45;&gt;Node15</title>
<path fill="none" stroke="midnightblue" d="M1067.56,-194.725C992.215,-188.595 858.358,-175.385 745.795,-152 731.957,-149.125 510.257,-91.32 501.795,-80 487.027,-60.2446 511.931,-39.7946 534.854,-26.3389"/>
<polygon fill="midnightblue" stroke="midnightblue" points="536.747,-29.2911 543.781,-21.3681 533.341,-23.1754 536.747,-29.2911"/>
</g>
<!-- Node17 -->
<g id="node34" class="node"><title>Node17</title>
<a xlink:href="mem_2manager_8hpp.html" target="_top" xlink:title="thrill/mem/manager.hpp">
<polygon fill="none" stroke="black" points="1286.29,-58.5 1286.29,-79.5 1405.29,-79.5 1405.29,-58.5 1286.29,-58.5"/>
<text text-anchor="middle" x="1345.79" y="-66.5" font-family="Helvetica,sans-Serif" font-size="10.00">thrill/mem/manager.hpp</text>
</a>
</g>
<!-- Node3&#45;&gt;Node17 -->
<g id="edge60" class="edge"><title>Node3&#45;&gt;Node17</title>
<path fill="none" stroke="midnightblue" d="M1144.72,-188.362C1183.23,-165.499 1274.06,-111.583 1319.27,-84.7454"/>
<polygon fill="midnightblue" stroke="midnightblue" points="1321.12,-87.7173 1327.93,-79.6031 1317.55,-81.698 1321.12,-87.7173"/>
</g>
<!-- Node20 -->
<g id="node40" class="node"><title>Node20</title>
<polygon fill="none" stroke="#bfbfbf" points="1332.29,-0.5 1332.29,-21.5 1381.29,-21.5 1381.29,-0.5 1332.29,-0.5"/>
<text text-anchor="middle" x="1356.79" y="-8.5" font-family="Helvetica,sans-Serif" font-size="10.00">cassert</text>
</g>
<!-- Node3&#45;&gt;Node20 -->
<g id="edge62" class="edge"><title>Node3&#45;&gt;Node20</title>
<path fill="none" stroke="midnightblue" d="M1182.05,-188.486C1271.42,-170.186 1441.06,-129.646 1473.79,-80 1496.52,-45.5349 1433.45,-25.9398 1391.3,-16.9947"/>
<polygon fill="midnightblue" stroke="midnightblue" points="1391.85,-13.536 1381.36,-14.9969 1390.47,-20.3988 1391.85,-13.536"/>
</g>
<!-- Node22 -->
<g id="node46" class="node"><title>Node22</title>
<polygon fill="none" stroke="#bfbfbf" points="1422.29,-58.5 1422.29,-79.5 1465.29,-79.5 1465.29,-58.5 1422.29,-58.5"/>
<text text-anchor="middle" x="1443.79" y="-66.5" font-family="Helvetica,sans-Serif" font-size="10.00">deque</text>
</g>
<!-- Node3&#45;&gt;Node22 -->
<g id="edge64" class="edge"><title>Node3&#45;&gt;Node22</title>
<path fill="none" stroke="midnightblue" d="M1155.25,-188.487C1180.26,-179.163 1217.59,-165.038 1249.79,-152 1307.62,-128.594 1374.35,-99.6023 1412.56,-82.8121"/>
<polygon fill="midnightblue" stroke="midnightblue" points="1414.35,-85.8482 1422.09,-78.6158 1411.53,-79.4415 1414.35,-85.8482"/>
</g>
<!-- Node23 -->
<g id="node48" class="node"><title>Node23</title>
<polygon fill="none" stroke="#bfbfbf" points="1172.29,-58.5 1172.29,-79.5 1217.29,-79.5 1217.29,-58.5 1172.29,-58.5"/>
<text text-anchor="middle" x="1194.79" y="-66.5" font-family="Helvetica,sans-Serif" font-size="10.00">iosfwd</text>
</g>
<!-- Node3&#45;&gt;Node23 -->
<g id="edge66" class="edge"><title>Node3&#45;&gt;Node23</title>
<path fill="none" stroke="midnightblue" d="M1132.36,-188.362C1143.72,-166.65 1169.72,-116.937 1184.33,-89.0003"/>
<polygon fill="midnightblue" stroke="midnightblue" points="1187.62,-90.2687 1189.15,-79.7854 1181.42,-87.0242 1187.62,-90.2687"/>
</g>
<!-- Node24 -->
<g id="node50" class="node"><title>Node24</title>
<polygon fill="none" stroke="#bfbfbf" points="1234.29,-58.5 1234.29,-79.5 1269.29,-79.5 1269.29,-58.5 1234.29,-58.5"/>
<text text-anchor="middle" x="1251.79" y="-66.5" font-family="Helvetica,sans-Serif" font-size="10.00">new</text>
</g>
<!-- Node3&#45;&gt;Node24 -->
<g id="edge70" class="edge"><title>Node3&#45;&gt;Node24</title>
<path fill="none" stroke="midnightblue" d="M1138,-188.322C1147.83,-178.891 1162.43,-164.703 1174.79,-152 1196.12,-130.092 1219.96,-104.164 1235.38,-87.1901"/>
<polygon fill="midnightblue" stroke="midnightblue" points="1238.11,-89.3936 1242.23,-79.6333 1232.92,-84.6931 1238.11,-89.3936"/>
</g>
<!-- Node25 -->
<g id="node53" class="node"><title>Node25</title>
<polygon fill="none" stroke="#bfbfbf" points="510.795,-58.5 510.795,-79.5 572.795,-79.5 572.795,-58.5 510.795,-58.5"/>
<text text-anchor="middle" x="541.795" y="-66.5" font-family="Helvetica,sans-Serif" font-size="10.00">type_traits</text>
</g>
<!-- Node3&#45;&gt;Node25 -->
<g id="edge74" class="edge"><title>Node3&#45;&gt;Node25</title>
<path fill="none" stroke="midnightblue" d="M1077.2,-188.467C981.985,-168.157 767.031,-121.883 586.795,-80 585.561,-79.7133 584.309,-79.4202 583.045,-79.1227"/>
<polygon fill="midnightblue" stroke="midnightblue" points="583.783,-75.7007 573.244,-76.7846 582.159,-82.5097 583.783,-75.7007"/>
</g>
<!-- Node26 -->
<g id="node60" class="node"><title>Node26</title>
<polygon fill="none" stroke="#bfbfbf" points="510.795,-123.5 510.795,-144.5 562.795,-144.5 562.795,-123.5 510.795,-123.5"/>
<text text-anchor="middle" x="536.795" y="-131.5" font-family="Helvetica,sans-Serif" font-size="10.00">memory</text>
</g>
<!-- Node3&#45;&gt;Node26 -->
<g id="edge68" class="edge"><title>Node3&#45;&gt;Node26</title>
<path fill="none" stroke="midnightblue" d="M1067.64,-196.463C945.309,-190.806 668.277,-175.754 576.795,-152 573.192,-151.065 569.507,-149.83 565.903,-148.445"/>
<polygon fill="midnightblue" stroke="midnightblue" points="567.234,-145.208 556.661,-144.529 564.503,-151.653 567.234,-145.208"/>
</g>
<!-- Node5 -->
<g id="node9" class="node"><title>Node5</title>
<a xlink:href="string_8hpp.html" target="_top" xlink:title="thrill/common/string.hpp">
<polygon fill="none" stroke="black" points="958.295,-58.5 958.295,-79.5 1079.29,-79.5 1079.29,-58.5 958.295,-58.5"/>
<text text-anchor="middle" x="1018.79" y="-66.5" font-family="Helvetica,sans-Serif" font-size="10.00">thrill/common/string.hpp</text>
</a>
</g>
<!-- Node4&#45;&gt;Node5 -->
<g id="edge8" class="edge"><title>Node4&#45;&gt;Node5</title>
<path fill="none" stroke="midnightblue" d="M1051.23,-116.922C1045.28,-108.12 1037.99,-97.3541 1031.83,-88.2575"/>
<polygon fill="midnightblue" stroke="midnightblue" points="1034.64,-86.1712 1026.14,-79.8521 1028.85,-90.0952 1034.64,-86.1712"/>
</g>
<!-- Node4&#45;&gt;Node14 -->
<g id="edge54" class="edge"><title>Node4&#45;&gt;Node14</title>
<path fill="none" stroke="midnightblue" d="M1013.06,-130.464C913.224,-122.953 691.797,-104.104 619.795,-80 601.289,-73.8048 599.818,-65.4841 581.795,-58 533.085,-37.7731 473.118,-23.8812 437.53,-16.702"/>
<polygon fill="midnightblue" stroke="midnightblue" points="437.796,-13.1872 427.308,-14.69 436.444,-20.0554 437.796,-13.1872"/>
</g>
<!-- Node4&#45;&gt;Node15 -->
<g id="edge58" class="edge"><title>Node4&#45;&gt;Node15</title>
<path fill="none" stroke="midnightblue" d="M1025.27,-116.976C1003.1,-106.693 974.605,-93.0837 949.795,-80 932.533,-70.8968 930.258,-64.322 911.795,-58 882.43,-47.9449 678.6,-23.897 598.25,-14.6808"/>
<polygon fill="midnightblue" stroke="midnightblue" points="598.534,-11.1905 588.201,-13.5317 597.738,-18.1452 598.534,-11.1905"/>
</g>
<!-- Node16 -->
<g id="node31" class="node"><title>Node16</title>
<a xlink:href="malloc__tracker_8hpp.html" target="_top" xlink:title="thrill/mem/malloc_tracker.hpp">
<polygon fill="none" stroke="black" points="628.295,-58.5 628.295,-79.5 773.295,-79.5 773.295,-58.5 628.295,-58.5"/>
<text text-anchor="middle" x="700.795" y="-66.5" font-family="Helvetica,sans-Serif" font-size="10.00">thrill/mem/malloc_tracker.hpp</text>
</a>
</g>
<!-- Node4&#45;&gt;Node16 -->
<g id="edge30" class="edge"><title>Node4&#45;&gt;Node16</title>
<path fill="none" stroke="midnightblue" d="M1013.22,-125.098C950.099,-113.765 840.715,-94.1238 769.56,-81.3474"/>
<polygon fill="midnightblue" stroke="midnightblue" points="769.81,-77.8364 759.349,-79.5139 768.573,-84.7262 769.81,-77.8364"/>
</g>
<!-- Node4&#45;&gt;Node17 -->
<g id="edge34" class="edge"><title>Node4&#45;&gt;Node17</title>
<path fill="none" stroke="midnightblue" d="M1112.41,-122.603C1162.05,-111.203 1238.26,-93.6979 1289.98,-81.8193"/>
<polygon fill="midnightblue" stroke="midnightblue" points="1291.02,-85.1719 1299.98,-79.5221 1289.45,-78.3495 1291.02,-85.1719"/>
</g>
<!-- Node19 -->
<g id="node38" class="node"><title>Node19</title>
<polygon fill="none" stroke="#bfbfbf" points="1268.79,-0.5 1268.79,-21.5 1314.79,-21.5 1314.79,-0.5 1268.79,-0.5"/>
<text text-anchor="middle" x="1291.79" y="-8.5" font-family="Helvetica,sans-Serif" font-size="10.00">atomic</text>
</g>
<!-- Node4&#45;&gt;Node19 -->
<g id="edge44" class="edge"><title>Node4&#45;&gt;Node19</title>
<path fill="none" stroke="midnightblue" d="M1073.72,-116.913C1085.68,-99.5607 1106.44,-73.1508 1130.79,-58 1178.77,-28.154 1200.69,-38.4646 1259.08,-21.98"/>
<polygon fill="midnightblue" stroke="midnightblue" points="1260.19,-25.3018 1268.78,-19.094 1258.19,-18.5927 1260.19,-25.3018"/>
</g>
<!-- Node4&#45;&gt;Node20 -->
<g id="edge46" class="edge"><title>Node4&#45;&gt;Node20</title>
<path fill="none" stroke="midnightblue" d="M1084.58,-116.836C1111.58,-95.6772 1155.13,-62.0071 1163.79,-58 1227.11,-28.7177 1251.47,-40.4163 1322.2,-22.1991"/>
<polygon fill="midnightblue" stroke="midnightblue" points="1323.26,-25.5364 1332.01,-19.558 1321.44,-18.7768 1323.26,-25.5364"/>
</g>
<!-- Node21 -->
<g id="node42" class="node"><title>Node21</title>
<polygon fill="none" stroke="#bfbfbf" points="790.795,-58.5 790.795,-79.5 902.795,-79.5 902.795,-58.5 790.795,-58.5"/>
<text text-anchor="middle" x="846.795" y="-66.5" font-family="Helvetica,sans-Serif" font-size="10.00">tlx/allocator_base.hpp</text>
</g>
<!-- Node4&#45;&gt;Node21 -->
<g id="edge42" class="edge"><title>Node4&#45;&gt;Node21</title>
<path fill="none" stroke="midnightblue" d="M1013.24,-119.088C976.581,-108.056 927.065,-93.1555 891.589,-82.4798"/>
<polygon fill="midnightblue" stroke="midnightblue" points="892.562,-79.1176 881.978,-79.5875 890.545,-85.8207 892.562,-79.1176"/>
</g>
<!-- Node4&#45;&gt;Node22 -->
<g id="edge48" class="edge"><title>Node4&#45;&gt;Node22</title>
<path fill="none" stroke="midnightblue" d="M1112.54,-129.492C1179.19,-122.764 1301.11,-108.042 1412.31,-80.0434"/>
<polygon fill="midnightblue" stroke="midnightblue" points="1413.18,-83.4325 1422,-77.5613 1411.44,-76.6513 1413.18,-83.4325"/>
</g>
<!-- Node4&#45;&gt;Node23 -->
<g id="edge50" class="edge"><title>Node4&#45;&gt;Node23</title>
<path fill="none" stroke="midnightblue" d="M1097.48,-116.922C1118.09,-106.772 1144.01,-94.0097 1163.91,-84.2079"/>
<polygon fill="midnightblue" stroke="midnightblue" points="1165.73,-87.2161 1173.15,-79.6584 1162.63,-80.9362 1165.73,-87.2161"/>
</g>
<!-- Node4&#45;&gt;Node24 -->
<g id="edge52" class="edge"><title>Node4&#45;&gt;Node24</title>
<path fill="none" stroke="midnightblue" d="M1112.37,-118.716C1142.64,-109.125 1182.27,-96.1087 1224.83,-80.1974"/>
<polygon fill="midnightblue" stroke="midnightblue" points="1226.13,-83.4506 1234.25,-76.6484 1223.66,-76.9005 1226.13,-83.4506"/>
</g>
<!-- Node4&#45;&gt;Node25 -->
<g id="edge56" class="edge"><title>Node4&#45;&gt;Node25</title>
<path fill="none" stroke="midnightblue" d="M1013.16,-130.454C926.263,-123.782 741.137,-107.504 586.795,-80 585.548,-79.7778 584.284,-79.5412 583.01,-79.293"/>
<polygon fill="midnightblue" stroke="midnightblue" points="583.667,-75.8546 573.158,-77.2044 582.215,-82.7024 583.667,-75.8546"/>
</g>
<!-- Node6 -->
<g id="node11" class="node"><title>Node6</title>
<polygon fill="none" stroke="#bfbfbf" points="886.295,-0.5 886.295,-21.5 961.295,-21.5 961.295,-0.5 886.295,-0.5"/>
<text text-anchor="middle" x="923.795" y="-8.5" font-family="Helvetica,sans-Serif" font-size="10.00">tlx/define.hpp</text>
</g>
<!-- Node5&#45;&gt;Node6 -->
<g id="edge10" class="edge"><title>Node5&#45;&gt;Node6</title>
<path fill="none" stroke="midnightblue" d="M1001.37,-58.3619C986.908,-49.532 966.125,-36.844 949.711,-26.8224"/>
<polygon fill="midnightblue" stroke="midnightblue" points="951.468,-23.7943 941.109,-21.5707 947.82,-29.7688 951.468,-23.7943"/>
</g>
<!-- Node7 -->
<g id="node13" class="node"><title>Node7</title>
<polygon fill="none" stroke="#bfbfbf" points="978.795,-0.5 978.795,-21.5 1058.79,-21.5 1058.79,-0.5 978.795,-0.5"/>
<text text-anchor="middle" x="1018.79" y="-8.5" font-family="Helvetica,sans-Serif" font-size="10.00">tlx/unused.hpp</text>
</g>
<!-- Node5&#45;&gt;Node7 -->
<g id="edge12" class="edge"><title>Node5&#45;&gt;Node7</title>
<path fill="none" stroke="midnightblue" d="M1018.79,-58.3619C1018.79,-50.9219 1018.79,-40.7427 1018.79,-31.7276"/>
<polygon fill="midnightblue" stroke="midnightblue" points="1022.29,-31.5706 1018.79,-21.5707 1015.29,-31.5707 1022.29,-31.5706"/>
</g>
<!-- Node8 -->
<g id="node15" class="node"><title>Node8</title>
<polygon fill="none" stroke="#bfbfbf" points="1076.79,-0.5 1076.79,-21.5 1114.79,-21.5 1114.79,-0.5 1076.79,-0.5"/>
<text text-anchor="middle" x="1095.79" y="-8.5" font-family="Helvetica,sans-Serif" font-size="10.00">array</text>
</g>
<!-- Node5&#45;&gt;Node8 -->
<g id="edge14" class="edge"><title>Node5&#45;&gt;Node8</title>
<path fill="none" stroke="midnightblue" d="M1032.92,-58.3619C1044.31,-49.7773 1060.55,-37.5459 1073.67,-27.6636"/>
<polygon fill="midnightblue" stroke="midnightblue" points="1075.88,-30.3829 1081.76,-21.5707 1071.67,-24.7916 1075.88,-30.3829"/>
</g>
<!-- Node9 -->
<g id="node17" class="node"><title>Node9</title>
<polygon fill="none" stroke="#bfbfbf" points="1132.29,-0.5 1132.29,-21.5 1181.29,-21.5 1181.29,-0.5 1132.29,-0.5"/>
<text text-anchor="middle" x="1156.79" y="-8.5" font-family="Helvetica,sans-Serif" font-size="10.00">cstdarg</text>
</g>
<!-- Node5&#45;&gt;Node9 -->
<g id="edge16" class="edge"><title>Node5&#45;&gt;Node9</title>
<path fill="none" stroke="midnightblue" d="M1043.79,-58.4966C1065.86,-49.2169 1098.26,-35.6005 1122.72,-25.3234"/>
<polygon fill="midnightblue" stroke="midnightblue" points="1124.13,-28.5265 1131.99,-21.4252 1121.41,-22.0733 1124.13,-28.5265"/>
</g>
<!-- Node10 -->
<g id="node19" class="node"><title>Node10</title>
<polygon fill="none" stroke="#bfbfbf" points="689.295,-0.5 689.295,-21.5 734.295,-21.5 734.295,-0.5 689.295,-0.5"/>
<text text-anchor="middle" x="711.795" y="-8.5" font-family="Helvetica,sans-Serif" font-size="10.00">cstdlib</text>
</g>
<!-- Node5&#45;&gt;Node10 -->
<g id="edge18" class="edge"><title>Node5&#45;&gt;Node10</title>
<path fill="none" stroke="midnightblue" d="M958.268,-59.6905C904.378,-51.0634 823.511,-37.2858 753.795,-22 750.728,-21.3275 747.547,-20.5827 744.37,-19.8067"/>
<polygon fill="midnightblue" stroke="midnightblue" points="744.937,-16.3396 734.383,-17.2732 743.215,-23.1247 744.937,-16.3396"/>
</g>
<!-- Node11 -->
<g id="node21" class="node"><title>Node11</title>
<polygon fill="none" stroke="#bfbfbf" points="762.795,-0.5 762.795,-21.5 802.795,-21.5 802.795,-0.5 762.795,-0.5"/>
<text text-anchor="middle" x="782.795" y="-8.5" font-family="Helvetica,sans-Serif" font-size="10.00">limits</text>
</g>
<!-- Node5&#45;&gt;Node11 -->
<g id="edge20" class="edge"><title>Node5&#45;&gt;Node11</title>
<path fill="none" stroke="midnightblue" d="M962.455,-58.4176C922.809,-50.4679 868.415,-38.5545 812.643,-21.9804"/>
<polygon fill="midnightblue" stroke="midnightblue" points="813.537,-18.5943 802.953,-19.0569 811.515,-25.296 813.537,-18.5943"/>
</g>
<!-- Node12 -->
<g id="node23" class="node"><title>Node12</title>
<polygon fill="none" stroke="#bfbfbf" points="820.295,-0.5 820.295,-21.5 869.295,-21.5 869.295,-0.5 820.295,-0.5"/>
<text text-anchor="middle" x="844.795" y="-8.5" font-family="Helvetica,sans-Serif" font-size="10.00">random</text>
</g>
<!-- Node5&#45;&gt;Node12 -->
<g id="edge22" class="edge"><title>Node5&#45;&gt;Node12</title>
<path fill="none" stroke="midnightblue" d="M987.285,-58.4966C956.709,-48.3047 910.439,-32.8814 878.985,-22.3966"/>
<polygon fill="midnightblue" stroke="midnightblue" points="879.925,-19.0208 869.331,-19.1788 877.711,-25.6616 879.925,-19.0208"/>
</g>
<!-- Node5&#45;&gt;Node13 -->
<g id="edge24" class="edge"><title>Node5&#45;&gt;Node13</title>
<path fill="none" stroke="midnightblue" d="M1058.65,-58.4854C1091.27,-49.7785 1138.85,-36.8586 1188.78,-22.2386"/>
<polygon fill="midnightblue" stroke="midnightblue" points="1189.85,-25.5716 1198.45,-19.3914 1187.87,-18.8562 1189.85,-25.5716"/>
</g>
<!-- Node5&#45;&gt;Node14 -->
<g id="edge26" class="edge"><title>Node5&#45;&gt;Node14</title>
<path fill="none" stroke="midnightblue" d="M958.257,-62.6737C943.089,-61.1169 926.849,-59.4743 911.795,-58 732.266,-40.4179 516.67,-20.8771 437.704,-13.7721"/>
<polygon fill="midnightblue" stroke="midnightblue" points="437.759,-10.2631 427.486,-12.8536 437.132,-17.235 437.759,-10.2631"/>
</g>
<!-- Node5&#45;&gt;Node15 -->
<g id="edge28" class="edge"><title>Node5&#45;&gt;Node15</title>
<path fill="none" stroke="midnightblue" d="M958.235,-59.8761C953.689,-59.2285 949.17,-58.5964 944.795,-58 816.599,-40.5258 663.629,-22.3827 598.138,-14.7435"/>
<polygon fill="midnightblue" stroke="midnightblue" points="598.37,-11.2471 588.033,-13.5673 597.561,-18.2001 598.37,-11.2471"/>
</g>
<!-- Node16&#45;&gt;Node10 -->
<g id="edge32" class="edge"><title>Node16&#45;&gt;Node10</title>
<path fill="none" stroke="midnightblue" d="M702.812,-58.3619C704.239,-50.8401 706.196,-40.5187 707.92,-31.4308"/>
<polygon fill="midnightblue" stroke="midnightblue" points="711.365,-32.0477 709.79,-21.5707 704.488,-30.7433 711.365,-32.0477"/>
</g>
<!-- Node17&#45;&gt;Node18 -->
<g id="edge36" class="edge"><title>Node17&#45;&gt;Node18</title>
<path fill="none" stroke="midnightblue" d="M1386.18,-58.4966C1427.37,-47.7831 1490.79,-31.2892 1531.01,-20.8271"/>
<polygon fill="midnightblue" stroke="midnightblue" points="1531.91,-24.209 1540.71,-18.3044 1530.15,-17.4343 1531.91,-24.209"/>
</g>
<!-- Node17&#45;&gt;Node19 -->
<g id="edge38" class="edge"><title>Node17&#45;&gt;Node19</title>
<path fill="none" stroke="midnightblue" d="M1335.89,-58.3619C1328.28,-50.1861 1317.59,-38.7025 1308.64,-29.0907"/>
<polygon fill="midnightblue" stroke="midnightblue" points="1311.01,-26.5046 1301.64,-21.5707 1305.89,-31.2746 1311.01,-26.5046"/>
</g>
<!-- Node17&#45;&gt;Node20 -->
<g id="edge40" class="edge"><title>Node17&#45;&gt;Node20</title>
<path fill="none" stroke="midnightblue" d="M1347.81,-58.3619C1349.24,-50.8401 1351.2,-40.5187 1352.92,-31.4308"/>
<polygon fill="midnightblue" stroke="midnightblue" points="1356.37,-32.0477 1354.79,-21.5707 1349.49,-30.7433 1356.37,-32.0477"/>
</g>
<!-- Node27&#45;&gt;Node4 -->
<g id="edge82" class="edge"><title>Node27&#45;&gt;Node4</title>
<path fill="none" stroke="midnightblue" d="M469.448,-193.981C586.061,-182.192 877.059,-152.776 1003.07,-140.038"/>
<polygon fill="midnightblue" stroke="midnightblue" points="1003.7,-143.492 1013.29,-139.004 1002.99,-136.528 1003.7,-143.492"/>
</g>
<!-- Node27&#45;&gt;Node14 -->
<g id="edge94" class="edge"><title>Node27&#45;&gt;Node14</title>
<path fill="none" stroke="midnightblue" d="M369.996,-196.526C271.113,-191.103 57.6066,-176.644 35.7948,-152 -63.1038,-40.2586 270.821,-16.6685 376.052,-12.0521"/>
<polygon fill="midnightblue" stroke="midnightblue" points="376.211,-15.5487 386.058,-11.6408 375.923,-8.55458 376.211,-15.5487"/>
</g>
<!-- Node27&#45;&gt;Node15 -->
<g id="edge100" class="edge"><title>Node27&#45;&gt;Node15</title>
<path fill="none" stroke="midnightblue" d="M420.73,-188.426C423.506,-162.936 433.829,-97.3061 468.795,-58 485.897,-38.7755 512.61,-26.6435 533.677,-19.531"/>
<polygon fill="midnightblue" stroke="midnightblue" points="535.015,-22.7793 543.499,-16.4336 532.909,-16.1034 535.015,-22.7793"/>
</g>
<!-- Node27&#45;&gt;Node18 -->
<g id="edge84" class="edge"><title>Node27&#45;&gt;Node18</title>
<path fill="none" stroke="midnightblue" d="M469.317,-197.962C584.248,-195.056 877.826,-184.773 1120.79,-152 1279.48,-130.596 1327.25,-144.513 1473.79,-80 1502.92,-67.1801 1531.84,-44.3407 1549.99,-28.4667"/>
<polygon fill="midnightblue" stroke="midnightblue" points="1552.41,-30.9995 1557.53,-21.7244 1547.74,-25.7816 1552.41,-30.9995"/>
</g>
<!-- Node27&#45;&gt;Node25 -->
<g id="edge96" class="edge"><title>Node27&#45;&gt;Node25</title>
<path fill="none" stroke="midnightblue" d="M429.779,-188.362C450.6,-166.174 498.867,-114.743 524.72,-87.1943"/>
<polygon fill="midnightblue" stroke="midnightblue" points="527.382,-89.4725 531.673,-79.7854 522.278,-84.6822 527.382,-89.4725"/>
</g>
<!-- Node27&#45;&gt;Node26 -->
<g id="edge90" class="edge"><title>Node27&#45;&gt;Node26</title>
<path fill="none" stroke="midnightblue" d="M438.853,-188.412C457.891,-177.836 487.359,-161.465 509.001,-149.441"/>
<polygon fill="midnightblue" stroke="midnightblue" points="510.703,-152.5 517.744,-144.584 507.303,-146.38 510.703,-152.5"/>
</g>
<!-- Node28 -->
<g id="node68" class="node"><title>Node28</title>
<a xlink:href="config_8hpp.html" target="_top" xlink:title="thrill/common/config.hpp">
<polygon fill="none" stroke="black" points="164.295,-123.5 164.295,-144.5 287.295,-144.5 287.295,-123.5 164.295,-123.5"/>
<text text-anchor="middle" x="225.795" y="-131.5" font-family="Helvetica,sans-Serif" font-size="10.00">thrill/common/config.hpp</text>
</a>
</g>
<!-- Node27&#45;&gt;Node28 -->
<g id="edge80" class="edge"><title>Node27&#45;&gt;Node28</title>
<path fill="none" stroke="midnightblue" d="M388.194,-188.412C355.218,-177.364 303.369,-159.991 267.154,-147.857"/>
<polygon fill="midnightblue" stroke="midnightblue" points="267.976,-144.442 257.382,-144.584 265.752,-151.079 267.976,-144.442"/>
</g>
<!-- Node29 -->
<g id="node72" class="node"><title>Node29</title>
<polygon fill="none" stroke="#bfbfbf" points="304.295,-123.5 304.295,-144.5 353.295,-144.5 353.295,-123.5 304.295,-123.5"/>
<text text-anchor="middle" x="328.795" y="-131.5" font-family="Helvetica,sans-Serif" font-size="10.00">cstddef</text>
</g>
<!-- Node27&#45;&gt;Node29 -->
<g id="edge86" class="edge"><title>Node27&#45;&gt;Node29</title>
<path fill="none" stroke="midnightblue" d="M404.768,-188.267C390.456,-178.044 368.701,-162.504 352.133,-150.67"/>
<polygon fill="midnightblue" stroke="midnightblue" points="353.714,-147.498 343.542,-144.534 349.645,-153.194 353.714,-147.498"/>
</g>
<!-- Node30 -->
<g id="node74" class="node"><title>Node30</title>
<polygon fill="none" stroke="#bfbfbf" points="370.795,-123.5 370.795,-144.5 416.795,-144.5 416.795,-123.5 370.795,-123.5"/>
<text text-anchor="middle" x="393.795" y="-131.5" font-family="Helvetica,sans-Serif" font-size="10.00">cstdint</text>
</g>
<!-- Node27&#45;&gt;Node30 -->
<g id="edge88" class="edge"><title>Node27&#45;&gt;Node30</title>
<path fill="none" stroke="midnightblue" d="M415.501,-188.267C411.791,-178.991 406.329,-165.336 401.813,-154.045"/>
<polygon fill="midnightblue" stroke="midnightblue" points="404.972,-152.519 398.008,-144.534 398.473,-155.118 404.972,-152.519"/>
</g>
<!-- Node31 -->
<g id="node77" class="node"><title>Node31</title>
<polygon fill="none" stroke="#bfbfbf" points="44.7948,-123.5 44.7948,-144.5 88.7948,-144.5 88.7948,-123.5 44.7948,-123.5"/>
<text text-anchor="middle" x="66.7948" y="-131.5" font-family="Helvetica,sans-Serif" font-size="10.00">mutex</text>
</g>
<!-- Node27&#45;&gt;Node31 -->
<g id="edge92" class="edge"><title>Node27&#45;&gt;Node31</title>
<path fill="none" stroke="midnightblue" d="M369.988,-194.065C292.535,-185.997 147.006,-169.159 97.7948,-152 95.6462,-151.251 93.479,-150.348 91.3424,-149.352"/>
<polygon fill="midnightblue" stroke="midnightblue" points="92.7967,-146.161 82.323,-144.564 89.5144,-152.344 92.7967,-146.161"/>
</g>
<!-- Node32 -->
<g id="node81" class="node"><title>Node32</title>
<polygon fill="none" stroke="#bfbfbf" points="106.795,-123.5 106.795,-144.5 146.795,-144.5 146.795,-123.5 106.795,-123.5"/>
<text text-anchor="middle" x="126.795" y="-131.5" font-family="Helvetica,sans-Serif" font-size="10.00">utility</text>
</g>
<!-- Node27&#45;&gt;Node32 -->
<g id="edge98" class="edge"><title>Node27&#45;&gt;Node32</title>
<path fill="none" stroke="midnightblue" d="M370.133,-195.779C315.923,-190.99 227.308,-179.396 155.795,-152 153.969,-151.3 152.132,-150.482 150.316,-149.587"/>
<polygon fill="midnightblue" stroke="midnightblue" points="152.011,-146.525 141.579,-144.671 148.578,-152.625 152.011,-146.525"/>
</g>
</g>
</svg>
