<?xml version="1.0" encoding="UTF-8" standalone="no"?>
<!DOCTYPE svg PUBLIC "-//W3C//DTD SVG 1.1//EN"
 "http://www.w3.org/Graphics/SVG/1.1/DTD/svg11.dtd">
<!-- Generated by graphviz version 2.36.0 (20140111.2315)
 -->
<!-- Title: thrill/common/radix_sort.hpp Pages: 1 -->
<svg width="266pt" height="108pt"
 viewBox="0.00 0.00 266.00 108.00" xmlns="http://www.w3.org/2000/svg" xmlns:xlink="http://www.w3.org/1999/xlink">
<g id="graph0" class="graph" transform="scale(1 1) rotate(0) translate(4 104)">
<title>thrill/common/radix_sort.hpp</title>
<!-- Node1 -->
<g id="node1" class="node"><title>Node1</title>
<polygon fill="#bfbfbf" stroke="black" points="79.5,-69 79.5,-99 178.5,-99 178.5,-69 79.5,-69"/>
<text text-anchor="start" x="87.5" y="-87" font-family="Helvetica,sans-Serif" font-size="10.00">thrill/common/radix</text>
<text text-anchor="middle" x="129" y="-76" font-family="Helvetica,sans-Serif" font-size="10.00">_sort.hpp</text>
</g>
<!-- Node2 -->
<g id="node2" class="node"><title>Node2</title>
<g id="a_node2"><a xlink:href="dc3_8cpp.html" target="_top" xlink:title="examples/suffix_sorting\l/dc3.cpp">
<polygon fill="none" stroke="black" points="0,-1 0,-31 120,-31 120,-1 0,-1"/>
<text text-anchor="start" x="8" y="-19" font-family="Helvetica,sans-Serif" font-size="10.00">examples/suffix_sorting</text>
<text text-anchor="middle" x="60" y="-8" font-family="Helvetica,sans-Serif" font-size="10.00">/dc3.cpp</text>
</a>
</g>
</g>
<!-- Node1&#45;&gt;Node2 -->
<g id="edge1" class="edge"><title>Node1&#45;&gt;Node2</title>
<path fill="none" stroke="midnightblue" d="M106.508,-61.4855C96.1573,-51.5852 84.1596,-40.1092 74.9428,-31.2931"/>
<polygon fill="midnightblue" stroke="midnightblue" points="104.382,-64.296 114.028,-68.679 109.221,-59.2375 104.382,-64.296"/>
</g>
<!-- Node3 -->
<g id="node3" class="node"><title>Node3</title>
<g id="a_node3"><a xlink:href="dc7_8cpp.html" target="_top" xlink:title="examples/suffix_sorting\l/dc7.cpp">
<polygon fill="none" stroke="black" points="138,-1 138,-31 258,-31 258,-1 138,-1"/>
<text text-anchor="start" x="146" y="-19" font-family="Helvetica,sans-Serif" font-size="10.00">examples/suffix_sorting</text>
<text text-anchor="middle" x="198" y="-8" font-family="Helvetica,sans-Serif" font-size="10.00">/dc7.cpp</text>
</a>
</g>
</g>
<!-- Node1&#45;&gt;Node3 -->
<g id="edge2" class="edge"><title>Node1&#45;&gt;Node3</title>
<path fill="none" stroke="midnightblue" d="M151.492,-61.4855C161.843,-51.5852 173.84,-40.1092 183.057,-31.2931"/>
<polygon fill="midnightblue" stroke="midnightblue" points="148.779,-59.2375 143.972,-68.679 153.618,-64.296 148.779,-59.2375"/>
</g>
</g>
</svg>
