<?xml version="1.0" encoding="UTF-8" standalone="no"?>
<!DOCTYPE svg PUBLIC "-//W3C//DTD SVG 1.1//EN"
 "http://www.w3.org/Graphics/SVG/1.1/DTD/svg11.dtd">
<!-- Generated by graphviz version 2.36.0 (20140111.2315)
 -->
<!-- Title: thrill/core/reduce_functional.hpp Pages: 1 -->
<svg width="853pt" height="152pt"
 viewBox="0.00 0.00 853.00 152.00" xmlns="http://www.w3.org/2000/svg" xmlns:xlink="http://www.w3.org/1999/xlink">
<g id="graph0" class="graph" transform="scale(1 1) rotate(0) translate(4 148)">
<title>thrill/core/reduce_functional.hpp</title>
<!-- Node1 -->
<g id="node1" class="node"><title>Node1</title>
<polygon fill="#bfbfbf" stroke="black" points="288.5,-113 288.5,-143 377.5,-143 377.5,-113 288.5,-113"/>
<text text-anchor="start" x="296.5" y="-131" font-family="Helvetica,sans-Serif" font-size="10.00">thrill/core/reduce</text>
<text text-anchor="middle" x="333" y="-120" font-family="Helvetica,sans-Serif" font-size="10.00">_functional.hpp</text>
</g>
<!-- Node2 -->
<g id="node2" class="node"><title>Node2</title>
<g id="a_node2"><a xlink:href="defines_8hpp.html" target="_top" xlink:title="thrill/common/defines.hpp">
<polygon fill="none" stroke="black" points="64,-56.5 64,-75.5 192,-75.5 192,-56.5 64,-56.5"/>
<text text-anchor="middle" x="128" y="-63.5" font-family="Helvetica,sans-Serif" font-size="10.00">thrill/common/defines.hpp</text>
</a>
</g>
</g>
<!-- Node1&#45;&gt;Node2 -->
<g id="edge1" class="edge"><title>Node1&#45;&gt;Node2</title>
<path fill="none" stroke="midnightblue" d="M288.265,-113.907C252.023,-103.299 201.474,-88.5047 166.895,-78.384"/>
<polygon fill="midnightblue" stroke="midnightblue" points="167.732,-74.982 157.151,-75.5321 165.765,-81.7002 167.732,-74.982"/>
</g>
<!-- Node4 -->
<g id="node4" class="node"><title>Node4</title>
<g id="a_node4"><a xlink:href="hash_8hpp.html" target="_top" xlink:title="thrill/common/hash.hpp">
<polygon fill="none" stroke="black" points="274,-56.5 274,-75.5 392,-75.5 392,-56.5 274,-56.5"/>
<text text-anchor="middle" x="333" y="-63.5" font-family="Helvetica,sans-Serif" font-size="10.00">thrill/common/hash.hpp</text>
</a>
</g>
</g>
<!-- Node1&#45;&gt;Node4 -->
<g id="edge3" class="edge"><title>Node1&#45;&gt;Node4</title>
<path fill="none" stroke="midnightblue" d="M333,-112.781C333,-104.781 333,-94.6887 333,-86.0168"/>
<polygon fill="midnightblue" stroke="midnightblue" points="336.5,-85.7305 333,-75.7305 329.5,-85.7306 336.5,-85.7305"/>
</g>
<!-- Node12 -->
<g id="node12" class="node"><title>Node12</title>
<g id="a_node12"><a xlink:href="thrill_2common_2math_8hpp.html" target="_top" xlink:title="thrill/common/math.hpp">
<polygon fill="none" stroke="black" points="601.5,-56.5 601.5,-75.5 720.5,-75.5 720.5,-56.5 601.5,-56.5"/>
<text text-anchor="middle" x="661" y="-63.5" font-family="Helvetica,sans-Serif" font-size="10.00">thrill/common/math.hpp</text>
</a>
</g>
</g>
<!-- Node1&#45;&gt;Node12 -->
<g id="edge12" class="edge"><title>Node1&#45;&gt;Node12</title>
<path fill="none" stroke="midnightblue" d="M377.577,-118.846C436.434,-108.079 540.113,-89.1134 604.43,-77.3482"/>
<polygon fill="midnightblue" stroke="midnightblue" points="605.195,-80.7665 614.401,-75.5241 603.935,-73.8807 605.195,-80.7665"/>
</g>
<!-- Node3 -->
<g id="node3" class="node"><title>Node3</title>
<polygon fill="none" stroke="#bfbfbf" points="0,-0.5 0,-19.5 62,-19.5 62,-0.5 0,-0.5"/>
<text text-anchor="middle" x="31" y="-7.5" font-family="Helvetica,sans-Serif" font-size="10.00">type_traits</text>
</g>
<!-- Node2&#45;&gt;Node3 -->
<g id="edge2" class="edge"><title>Node2&#45;&gt;Node3</title>
<path fill="none" stroke="midnightblue" d="M112.415,-56.324C97.0009,-47.7428 73.1878,-34.486 55.2903,-24.5224"/>
<polygon fill="midnightblue" stroke="midnightblue" points="56.9858,-21.4606 46.5461,-19.6545 53.5809,-27.5767 56.9858,-21.4606"/>
</g>
<!-- Node4&#45;&gt;Node3 -->
<g id="edge11" class="edge"><title>Node4&#45;&gt;Node3</title>
<path fill="none" stroke="midnightblue" d="M278.658,-56.4994C227.743,-48.3467 149.29,-35.3045 72.2813,-20.179"/>
<polygon fill="midnightblue" stroke="midnightblue" points="72.8997,-16.7335 62.4106,-18.227 71.5416,-23.6006 72.8997,-16.7335"/>
</g>
<!-- Node5 -->
<g id="node5" class="node"><title>Node5</title>
<g id="a_node5"><a xlink:href="config_8hpp.html" target="_top" xlink:title="thrill/common/config.hpp">
<polygon fill="none" stroke="black" points="80.5,-0.5 80.5,-19.5 203.5,-19.5 203.5,-0.5 80.5,-0.5"/>
<text text-anchor="middle" x="142" y="-7.5" font-family="Helvetica,sans-Serif" font-size="10.00">thrill/common/config.hpp</text>
</a>
</g>
</g>
<!-- Node4&#45;&gt;Node5 -->
<g id="edge4" class="edge"><title>Node4&#45;&gt;Node5</title>
<path fill="none" stroke="midnightblue" d="M302.735,-56.4435C270.045,-47.2011 217.818,-32.4356 181.817,-22.2572"/>
<polygon fill="midnightblue" stroke="midnightblue" points="182.698,-18.8691 172.123,-19.5164 180.794,-25.6051 182.698,-18.8691"/>
</g>
<!-- Node6 -->
<g id="node6" class="node"><title>Node6</title>
<polygon fill="none" stroke="#bfbfbf" points="222,-0.5 222,-19.5 260,-19.5 260,-0.5 222,-0.5"/>
<text text-anchor="middle" x="241" y="-7.5" font-family="Helvetica,sans-Serif" font-size="10.00">array</text>
</g>
<!-- Node4&#45;&gt;Node6 -->
<g id="edge5" class="edge"><title>Node4&#45;&gt;Node6</title>
<path fill="none" stroke="midnightblue" d="M318.219,-56.324C303.733,-47.8215 281.427,-34.7288 264.507,-24.7975"/>
<polygon fill="midnightblue" stroke="midnightblue" points="266.141,-21.6981 255.745,-19.6545 262.597,-27.735 266.141,-21.6981"/>
</g>
<!-- Node7 -->
<g id="node7" class="node"><title>Node7</title>
<polygon fill="none" stroke="#bfbfbf" points="531.5,-0.5 531.5,-19.5 580.5,-19.5 580.5,-0.5 531.5,-0.5"/>
<text text-anchor="middle" x="556" y="-7.5" font-family="Helvetica,sans-Serif" font-size="10.00">cassert</text>
</g>
<!-- Node4&#45;&gt;Node7 -->
<g id="edge6" class="edge"><title>Node4&#45;&gt;Node7</title>
<path fill="none" stroke="midnightblue" d="M370.007,-56.4775C406.146,-48.0907 462.945,-34.7401 521.367,-20.1126"/>
<polygon fill="midnightblue" stroke="midnightblue" points="522.29,-23.4895 531.136,-17.6584 520.585,-16.7005 522.29,-23.4895"/>
</g>
<!-- Node8 -->
<g id="node8" class="node"><title>Node8</title>
<polygon fill="none" stroke="#bfbfbf" points="278,-0.5 278,-19.5 324,-19.5 324,-0.5 278,-0.5"/>
<text text-anchor="middle" x="301" y="-7.5" font-family="Helvetica,sans-Serif" font-size="10.00">cstdint</text>
</g>
<!-- Node4&#45;&gt;Node8 -->
<g id="edge7" class="edge"><title>Node4&#45;&gt;Node8</title>
<path fill="none" stroke="midnightblue" d="M327.716,-56.083C323.289,-48.6127 316.837,-37.7244 311.382,-28.5199"/>
<polygon fill="midnightblue" stroke="midnightblue" points="314.295,-26.5697 306.186,-19.7511 308.273,-30.1383 314.295,-26.5697"/>
</g>
<!-- Node9 -->
<g id="node9" class="node"><title>Node9</title>
<polygon fill="none" stroke="#bfbfbf" points="342.5,-0.5 342.5,-19.5 387.5,-19.5 387.5,-0.5 342.5,-0.5"/>
<text text-anchor="middle" x="365" y="-7.5" font-family="Helvetica,sans-Serif" font-size="10.00">cstdlib</text>
</g>
<!-- Node4&#45;&gt;Node9 -->
<g id="edge8" class="edge"><title>Node4&#45;&gt;Node9</title>
<path fill="none" stroke="midnightblue" d="M338.284,-56.083C342.711,-48.6127 349.163,-37.7244 354.618,-28.5199"/>
<polygon fill="midnightblue" stroke="midnightblue" points="357.727,-30.1383 359.814,-19.7511 351.705,-26.5697 357.727,-30.1383"/>
</g>
<!-- Node10 -->
<g id="node10" class="node"><title>Node10</title>
<polygon fill="none" stroke="#bfbfbf" points="405.5,-0.5 405.5,-19.5 454.5,-19.5 454.5,-0.5 405.5,-0.5"/>
<text text-anchor="middle" x="430" y="-7.5" font-family="Helvetica,sans-Serif" font-size="10.00">random</text>
</g>
<!-- Node4&#45;&gt;Node10 -->
<g id="edge9" class="edge"><title>Node4&#45;&gt;Node10</title>
<path fill="none" stroke="midnightblue" d="M348.585,-56.324C363.999,-47.7428 387.812,-34.486 405.71,-24.5224"/>
<polygon fill="midnightblue" stroke="midnightblue" points="407.419,-27.5767 414.454,-19.6545 404.014,-21.4606 407.419,-27.5767"/>
</g>
<!-- Node11 -->
<g id="node11" class="node"><title>Node11</title>
<polygon fill="none" stroke="#bfbfbf" points="472.5,-0.5 472.5,-19.5 513.5,-19.5 513.5,-0.5 472.5,-0.5"/>
<text text-anchor="middle" x="493" y="-7.5" font-family="Helvetica,sans-Serif" font-size="10.00">string</text>
</g>
<!-- Node4&#45;&gt;Node11 -->
<g id="edge10" class="edge"><title>Node4&#45;&gt;Node11</title>
<path fill="none" stroke="midnightblue" d="M358.352,-56.4435C386.694,-46.8782 432.565,-31.3969 462.756,-21.2075"/>
<polygon fill="midnightblue" stroke="midnightblue" points="463.99,-24.4851 472.345,-17.971 461.751,-17.8526 463.99,-24.4851"/>
</g>
<!-- Node12&#45;&gt;Node7 -->
<g id="edge14" class="edge"><title>Node12&#45;&gt;Node7</title>
<path fill="none" stroke="midnightblue" d="M644.13,-56.324C627.291,-47.6641 601.193,-34.2424 581.762,-24.249"/>
<polygon fill="midnightblue" stroke="midnightblue" points="583.322,-21.1155 572.828,-19.6545 580.12,-27.3405 583.322,-21.1155"/>
</g>
<!-- Node13 -->
<g id="node13" class="node"><title>Node13</title>
<polygon fill="none" stroke="#bfbfbf" points="599,-0.5 599,-19.5 655,-19.5 655,-0.5 599,-0.5"/>
<text text-anchor="middle" x="627" y="-7.5" font-family="Helvetica,sans-Serif" font-size="10.00">algorithm</text>
</g>
<!-- Node12&#45;&gt;Node13 -->
<g id="edge13" class="edge"><title>Node12&#45;&gt;Node13</title>
<path fill="none" stroke="midnightblue" d="M655.386,-56.083C650.633,-48.5341 643.682,-37.4948 637.848,-28.2298"/>
<polygon fill="midnightblue" stroke="midnightblue" points="640.8,-26.3486 632.51,-19.7511 634.876,-30.0783 640.8,-26.3486"/>
</g>
<!-- Node14 -->
<g id="node14" class="node"><title>Node14</title>
<polygon fill="none" stroke="#bfbfbf" points="673,-0.5 673,-19.5 717,-19.5 717,-0.5 673,-0.5"/>
<text text-anchor="middle" x="695" y="-7.5" font-family="Helvetica,sans-Serif" font-size="10.00">cmath</text>
</g>
<!-- Node12&#45;&gt;Node14 -->
<g id="edge15" class="edge"><title>Node12&#45;&gt;Node14</title>
<path fill="none" stroke="midnightblue" d="M666.614,-56.083C671.367,-48.5341 678.318,-37.4948 684.152,-28.2298"/>
<polygon fill="midnightblue" stroke="midnightblue" points="687.124,-30.0783 689.49,-19.7511 681.2,-26.3486 687.124,-30.0783"/>
</g>
<!-- Node15 -->
<g id="node15" class="node"><title>Node15</title>
<polygon fill="none" stroke="#bfbfbf" points="735,-0.5 735,-19.5 775,-19.5 775,-0.5 735,-0.5"/>
<text text-anchor="middle" x="755" y="-7.5" font-family="Helvetica,sans-Serif" font-size="10.00">limits</text>
</g>
<!-- Node12&#45;&gt;Node15 -->
<g id="edge16" class="edge"><title>Node12&#45;&gt;Node15</title>
<path fill="none" stroke="midnightblue" d="M676.103,-56.324C690.903,-47.8215 713.694,-34.7288 730.982,-24.7975"/>
<polygon fill="midnightblue" stroke="midnightblue" points="733.007,-27.6707 739.935,-19.6545 729.52,-21.6009 733.007,-27.6707"/>
</g>
<!-- Node16 -->
<g id="node16" class="node"><title>Node16</title>
<polygon fill="none" stroke="#bfbfbf" points="793,-0.5 793,-19.5 845,-19.5 845,-0.5 793,-0.5"/>
<text text-anchor="middle" x="819" y="-7.5" font-family="Helvetica,sans-Serif" font-size="10.00">ostream</text>
</g>
<!-- Node12&#45;&gt;Node16 -->
<g id="edge17" class="edge"><title>Node12&#45;&gt;Node16</title>
<path fill="none" stroke="midnightblue" d="M686.036,-56.4435C712.616,-47.3591 754.809,-32.9388 784.523,-22.7831"/>
<polygon fill="midnightblue" stroke="midnightblue" points="785.751,-26.0625 794.082,-19.5164 783.487,-19.4386 785.751,-26.0625"/>
</g>
</g>
</svg>
