<?xml version="1.0" encoding="UTF-8" standalone="no"?>
<!DOCTYPE svg PUBLIC "-//W3C//DTD SVG 1.1//EN"
 "http://www.w3.org/Graphics/SVG/1.1/DTD/svg11.dtd">
<!-- Generated by graphviz version 2.26.3 (20100126.1600)
 -->
<!-- Title: thrill/api/reduce_to_index.hpp Pages: 1 -->
<svg width="334pt" height="188pt"
 viewBox="0.00 0.00 334.00 188.00" xmlns="http://www.w3.org/2000/svg" xmlns:xlink="http://www.w3.org/1999/xlink">
<g id="graph1" class="graph" transform="scale(1 1) rotate(0) translate(4 184)">
<title>thrill/api/reduce_to_index.hpp</title>
<!-- Node1 -->
<g id="node1" class="node"><title>Node1</title>
<polygon fill="#bfbfbf" stroke="black" points="99,-145 99,-179 195,-179 195,-145 99,-145"/>
<text text-anchor="start" x="107" y="-166" font-family="Helvetica,sans-Serif" font-size="10.00">thrill/api/reduce_to</text>
<text text-anchor="middle" x="147" y="-153" font-family="Helvetica,sans-Serif" font-size="10.00">_index.hpp</text>
</g>
<!-- Node2 -->
<g id="node3" class="node"><title>Node2</title>
<a xlink:href="thrill_8hpp.html" target="_top" xlink:title="thrill/thrill.hpp">
<polygon fill="none" stroke="black" points="0,-79.5 0,-100.5 74,-100.5 74,-79.5 0,-79.5"/>
<text text-anchor="middle" x="37" y="-87.5" font-family="Helvetica,sans-Serif" font-size="10.00">thrill/thrill.hpp</text>
</a>
</g>
<!-- Node1&#45;&gt;Node2 -->
<g id="edge2" class="edge"><title>Node1&#45;&gt;Node2</title>
<path fill="none" stroke="midnightblue" d="M112.473,-139.401C92.7216,-126.472 68.8609,-110.854 53.329,-100.688"/>
<polygon fill="midnightblue" stroke="midnightblue" points="110.648,-142.389 120.932,-144.937 114.481,-136.532 110.648,-142.389"/>
</g>
<!-- Node3 -->
<g id="node5" class="node"><title>Node3</title>
<a xlink:href="bfs_8cpp.html" target="_top" xlink:title="examples/bfs/bfs.cpp">
<polygon fill="none" stroke="black" points="92,-79.5 92,-100.5 202,-100.5 202,-79.5 92,-79.5"/>
<text text-anchor="middle" x="147" y="-87.5" font-family="Helvetica,sans-Serif" font-size="10.00">examples/bfs/bfs.cpp</text>
</a>
</g>
<!-- Node1&#45;&gt;Node3 -->
<g id="edge4" class="edge"><title>Node1&#45;&gt;Node3</title>
<path fill="none" stroke="midnightblue" d="M147,-134.667C147,-122.913 147,-109.848 147,-100.901"/>
<polygon fill="midnightblue" stroke="midnightblue" points="143.5,-134.937 147,-144.937 150.5,-134.937 143.5,-134.937"/>
</g>
<!-- Node4 -->
<g id="node7" class="node"><title>Node4</title>
<a xlink:href="page__rank_8hpp.html" target="_top" xlink:title="examples/page_rank\l/page_rank.hpp">
<polygon fill="none" stroke="black" points="219.5,-73 219.5,-107 326.5,-107 326.5,-73 219.5,-73"/>
<text text-anchor="start" x="227.5" y="-94" font-family="Helvetica,sans-Serif" font-size="10.00">examples/page_rank</text>
<text text-anchor="middle" x="273" y="-81" font-family="Helvetica,sans-Serif" font-size="10.00">/page_rank.hpp</text>
</a>
</g>
<!-- Node1&#45;&gt;Node4 -->
<g id="edge6" class="edge"><title>Node1&#45;&gt;Node4</title>
<path fill="none" stroke="midnightblue" d="M185.605,-139.94C204.028,-129.413 225.742,-117.004 242.917,-107.19"/>
<polygon fill="midnightblue" stroke="midnightblue" points="183.806,-136.937 176.86,-144.937 187.279,-143.014 183.806,-136.937"/>
</g>
<!-- Node5 -->
<g id="node9" class="node"><title>Node5</title>
<a xlink:href="page__rank__run_8cpp.html" target="_top" xlink:title="examples/page_rank\l/page_rank_run.cpp">
<polygon fill="none" stroke="black" points="219.5,-1 219.5,-35 326.5,-35 326.5,-1 219.5,-1"/>
<text text-anchor="start" x="227.5" y="-22" font-family="Helvetica,sans-Serif" font-size="10.00">examples/page_rank</text>
<text text-anchor="middle" x="273" y="-9" font-family="Helvetica,sans-Serif" font-size="10.00">/page_rank_run.cpp</text>
</a>
</g>
<!-- Node4&#45;&gt;Node5 -->
<g id="edge8" class="edge"><title>Node4&#45;&gt;Node5</title>
<path fill="none" stroke="midnightblue" d="M273,-62.7193C273,-53.572 273,-43.6255 273,-35.4407"/>
<polygon fill="midnightblue" stroke="midnightblue" points="269.5,-62.937 273,-72.937 276.5,-62.937 269.5,-62.937"/>
</g>
</g>
</svg>
