<?xml version="1.0" encoding="UTF-8" standalone="no"?>
<!DOCTYPE svg PUBLIC "-//W3C//DTD SVG 1.1//EN"
 "http://www.w3.org/Graphics/SVG/1.1/DTD/svg11.dtd">
<!-- Generated by graphviz version 2.26.3 (20100126.1600)
 -->
<!-- Title: thrill/core/reduce_bucket_hash_table.hpp Pages: 1 -->
<svg width="1489pt" height="332pt"
 viewBox="0.00 0.00 1489.05 332.00" xmlns="http://www.w3.org/2000/svg" xmlns:xlink="http://www.w3.org/1999/xlink">
<g id="graph1" class="graph" transform="scale(1 1) rotate(0) translate(4 328)">
<title>thrill/core/reduce_bucket_hash_table.hpp</title>
<!-- Node1 -->
<g id="node1" class="node"><title>Node1</title>
<polygon fill="#bfbfbf" stroke="black" points="359.054,-289 359.054,-323 481.054,-323 481.054,-289 359.054,-289"/>
<text text-anchor="start" x="367.054" y="-310" font-family="Helvetica,sans-Serif" font-size="10.00">thrill/core/reduce</text>
<text text-anchor="middle" x="420.054" y="-297" font-family="Helvetica,sans-Serif" font-size="10.00">_bucket_hash_table.hpp</text>
</g>
<!-- Node2 -->
<g id="node3" class="node"><title>Node2</title>
<a xlink:href="location__detection_8hpp.html" target="_top" xlink:title="thrill/core/location\l_detection.hpp">
<polygon fill="none" stroke="black" points="178.554,-217 178.554,-251 271.554,-251 271.554,-217 178.554,-217"/>
<text text-anchor="start" x="186.554" y="-238" font-family="Helvetica,sans-Serif" font-size="10.00">thrill/core/location</text>
<text text-anchor="middle" x="225.054" y="-225" font-family="Helvetica,sans-Serif" font-size="10.00">_detection.hpp</text>
</a>
</g>
<!-- Node1&#45;&gt;Node2 -->
<g id="edge2" class="edge"><title>Node1&#45;&gt;Node2</title>
<path fill="none" stroke="midnightblue" d="M364.126,-285.35C334.717,-274.491 299.099,-261.34 271.272,-251.065"/>
<polygon fill="midnightblue" stroke="midnightblue" points="363.248,-288.757 373.841,-288.937 365.673,-282.19 363.248,-288.757"/>
</g>
<!-- Node13 -->
<g id="node28" class="node"><title>Node13</title>
<a xlink:href="reduce__by__hash__post__phase_8hpp.html" target="_top" xlink:title="thrill/core/reduce\l_by_hash_post_phase.hpp">
<polygon fill="none" stroke="black" points="646.554,-217 646.554,-251 779.554,-251 779.554,-217 646.554,-217"/>
<text text-anchor="start" x="654.554" y="-238" font-family="Helvetica,sans-Serif" font-size="10.00">thrill/core/reduce</text>
<text text-anchor="middle" x="713.054" y="-225" font-family="Helvetica,sans-Serif" font-size="10.00">_by_hash_post_phase.hpp</text>
</a>
</g>
<!-- Node1&#45;&gt;Node13 -->
<g id="edge30" class="edge"><title>Node1&#45;&gt;Node13</title>
<path fill="none" stroke="midnightblue" d="M490.983,-288.57C538.288,-276.946 600.068,-261.764 646.453,-250.366"/>
<polygon fill="midnightblue" stroke="midnightblue" points="489.995,-285.209 481.119,-290.994 491.666,-292.007 489.995,-285.209"/>
</g>
<!-- Node24 -->
<g id="node52" class="node"><title>Node24</title>
<a xlink:href="reduce__pre__phase_8hpp.html" target="_top" xlink:title="thrill/core/reduce\l_pre_phase.hpp">
<polygon fill="none" stroke="black" points="440.554,-217 440.554,-251 529.554,-251 529.554,-217 440.554,-217"/>
<text text-anchor="start" x="448.554" y="-238" font-family="Helvetica,sans-Serif" font-size="10.00">thrill/core/reduce</text>
<text text-anchor="middle" x="485.054" y="-225" font-family="Helvetica,sans-Serif" font-size="10.00">_pre_phase.hpp</text>
</a>
</g>
<!-- Node1&#45;&gt;Node24 -->
<g id="edge56" class="edge"><title>Node1&#45;&gt;Node24</title>
<path fill="none" stroke="midnightblue" d="M442.281,-281.379C451.168,-271.535 461.197,-260.426 469.308,-251.441"/>
<polygon fill="midnightblue" stroke="midnightblue" points="439.561,-279.169 435.458,-288.937 444.757,-283.86 439.561,-279.169"/>
</g>
<!-- Node26 -->
<g id="node60" class="node"><title>Node26</title>
<a xlink:href="reduce__by__index__post__phase_8hpp.html" target="_top" xlink:title="thrill/core/reduce\l_by_index_post_phase.hpp">
<polygon fill="none" stroke="black" points="288.554,-217 288.554,-251 423.554,-251 423.554,-217 288.554,-217"/>
<text text-anchor="start" x="296.554" y="-238" font-family="Helvetica,sans-Serif" font-size="10.00">thrill/core/reduce</text>
<text text-anchor="middle" x="356.054" y="-225" font-family="Helvetica,sans-Serif" font-size="10.00">_by_index_post_phase.hpp</text>
</a>
</g>
<!-- Node1&#45;&gt;Node26 -->
<g id="edge68" class="edge"><title>Node1&#45;&gt;Node26</title>
<path fill="none" stroke="midnightblue" d="M398.168,-281.379C389.418,-271.535 379.543,-260.426 371.556,-251.441"/>
<polygon fill="midnightblue" stroke="midnightblue" points="395.627,-283.788 404.886,-288.937 400.859,-279.138 395.627,-283.788"/>
</g>
<!-- Node3 -->
<g id="node5" class="node"><title>Node3</title>
<a xlink:href="group__by__key_8hpp.html" target="_top" xlink:title="thrill/api/group_by\l_key.hpp">
<polygon fill="none" stroke="black" points="151.554,-145 151.554,-179 244.554,-179 244.554,-145 151.554,-145"/>
<text text-anchor="start" x="159.554" y="-166" font-family="Helvetica,sans-Serif" font-size="10.00">thrill/api/group_by</text>
<text text-anchor="middle" x="198.054" y="-153" font-family="Helvetica,sans-Serif" font-size="10.00">_key.hpp</text>
</a>
</g>
<!-- Node2&#45;&gt;Node3 -->
<g id="edge4" class="edge"><title>Node2&#45;&gt;Node3</title>
<path fill="none" stroke="midnightblue" d="M215.047,-207.315C211.555,-198.005 207.73,-187.803 204.594,-179.441"/>
<polygon fill="midnightblue" stroke="midnightblue" points="211.866,-208.803 218.655,-216.937 218.421,-206.345 211.866,-208.803"/>
</g>
<!-- Node8 -->
<g id="node15" class="node"><title>Node8</title>
<a xlink:href="inner__join_8hpp.html" target="_top" xlink:title="thrill/api/inner_join.hpp">
<polygon fill="none" stroke="black" points="412.554,-151.5 412.554,-172.5 525.554,-172.5 525.554,-151.5 412.554,-151.5"/>
<text text-anchor="middle" x="469.054" y="-159.5" font-family="Helvetica,sans-Serif" font-size="10.00">thrill/api/inner_join.hpp</text>
</a>
</g>
<!-- Node2&#45;&gt;Node8 -->
<g id="edge14" class="edge"><title>Node2&#45;&gt;Node8</title>
<path fill="none" stroke="midnightblue" d="M281.587,-215.595C320.747,-203.822 388.926,-184.533 431.638,-172.508"/>
<polygon fill="midnightblue" stroke="midnightblue" points="280.374,-212.305 271.823,-218.56 282.408,-219.003 280.374,-212.305"/>
</g>
<!-- Node4 -->
<g id="node7" class="node"><title>Node4</title>
<a xlink:href="thrill_8hpp.html" target="_top" xlink:title="thrill/thrill.hpp">
<polygon fill="none" stroke="black" points="271.054,-79.5 271.054,-100.5 345.054,-100.5 345.054,-79.5 271.054,-79.5"/>
<text text-anchor="middle" x="308.054" y="-87.5" font-family="Helvetica,sans-Serif" font-size="10.00">thrill/thrill.hpp</text>
</a>
</g>
<!-- Node3&#45;&gt;Node4 -->
<g id="edge6" class="edge"><title>Node3&#45;&gt;Node4</title>
<path fill="none" stroke="midnightblue" d="M232.58,-139.401C252.332,-126.472 276.193,-110.854 291.725,-100.688"/>
<polygon fill="midnightblue" stroke="midnightblue" points="230.572,-136.532 224.122,-144.937 234.406,-142.389 230.572,-136.532"/>
</g>
<!-- Node5 -->
<g id="node9" class="node"><title>Node5</title>
<a xlink:href="bfs_8cpp.html" target="_top" xlink:title="examples/bfs/bfs.cpp">
<polygon fill="none" stroke="black" points="143.054,-79.5 143.054,-100.5 253.054,-100.5 253.054,-79.5 143.054,-79.5"/>
<text text-anchor="middle" x="198.054" y="-87.5" font-family="Helvetica,sans-Serif" font-size="10.00">examples/bfs/bfs.cpp</text>
</a>
</g>
<!-- Node3&#45;&gt;Node5 -->
<g id="edge8" class="edge"><title>Node3&#45;&gt;Node5</title>
<path fill="none" stroke="midnightblue" d="M198.054,-134.667C198.054,-122.913 198.054,-109.848 198.054,-100.901"/>
<polygon fill="midnightblue" stroke="midnightblue" points="194.554,-134.937 198.054,-144.937 201.554,-134.937 194.554,-134.937"/>
</g>
<!-- Node6 -->
<g id="node11" class="node"><title>Node6</title>
<a xlink:href="page__rank__run_8cpp.html" target="_top" xlink:title="examples/page_rank\l/page_rank_run.cpp">
<polygon fill="none" stroke="black" points="117.554,-1 117.554,-35 224.554,-35 224.554,-1 117.554,-1"/>
<text text-anchor="start" x="125.554" y="-22" font-family="Helvetica,sans-Serif" font-size="10.00">examples/page_rank</text>
<text text-anchor="middle" x="171.054" y="-9" font-family="Helvetica,sans-Serif" font-size="10.00">/page_rank_run.cpp</text>
</a>
</g>
<!-- Node3&#45;&gt;Node6 -->
<g id="edge10" class="edge"><title>Node3&#45;&gt;Node6</title>
<path fill="none" stroke="midnightblue" d="M141.335,-153.528C91.4066,-144.773 24.2004,-129.375 8.05351,-108 -25.1673,-64.0218 58.1661,-38.702 117.536,-26.6948"/>
<polygon fill="midnightblue" stroke="midnightblue" points="140.94,-157.011 151.386,-155.243 142.117,-150.111 140.94,-157.011"/>
</g>
<!-- Node7 -->
<g id="node13" class="node"><title>Node7</title>
<a xlink:href="percentiles_8cpp.html" target="_top" xlink:title="examples/percentiles\l/percentiles.cpp">
<polygon fill="none" stroke="black" points="16.5535,-73 16.5535,-107 125.554,-107 125.554,-73 16.5535,-73"/>
<text text-anchor="start" x="24.5535" y="-94" font-family="Helvetica,sans-Serif" font-size="10.00">examples/percentiles</text>
<text text-anchor="middle" x="71.0535" y="-81" font-family="Helvetica,sans-Serif" font-size="10.00">/percentiles.cpp</text>
</a>
</g>
<!-- Node3&#45;&gt;Node7 -->
<g id="edge12" class="edge"><title>Node3&#45;&gt;Node7</title>
<path fill="none" stroke="midnightblue" d="M159.142,-139.94C140.573,-129.413 118.686,-117.004 101.375,-107.19"/>
<polygon fill="midnightblue" stroke="midnightblue" points="157.531,-143.05 167.956,-144.937 160.983,-136.96 157.531,-143.05"/>
</g>
<!-- Node8&#45;&gt;Node4 -->
<g id="edge16" class="edge"><title>Node8&#45;&gt;Node4</title>
<path fill="none" stroke="midnightblue" d="M436.164,-147.292C405.088,-133.395 359.238,-112.89 331.645,-100.55"/>
<polygon fill="midnightblue" stroke="midnightblue" points="434.74,-150.489 445.297,-151.376 437.598,-144.099 434.74,-150.489"/>
</g>
<!-- Node9 -->
<g id="node18" class="node"><title>Node9</title>
<a xlink:href="page__rank_8hpp.html" target="_top" xlink:title="examples/page_rank\l/page_rank.hpp">
<polygon fill="none" stroke="black" points="362.554,-73 362.554,-107 469.554,-107 469.554,-73 362.554,-73"/>
<text text-anchor="start" x="370.554" y="-94" font-family="Helvetica,sans-Serif" font-size="10.00">examples/page_rank</text>
<text text-anchor="middle" x="416.054" y="-81" font-family="Helvetica,sans-Serif" font-size="10.00">/page_rank.hpp</text>
</a>
</g>
<!-- Node8&#45;&gt;Node9 -->
<g id="edge18" class="edge"><title>Node8&#45;&gt;Node9</title>
<path fill="none" stroke="midnightblue" d="M455.179,-143.151C446.958,-131.983 436.621,-117.94 428.637,-107.094"/>
<polygon fill="midnightblue" stroke="midnightblue" points="452.486,-145.398 461.233,-151.376 458.124,-141.248 452.486,-145.398"/>
</g>
<!-- Node10 -->
<g id="node21" class="node"><title>Node10</title>
<a xlink:href="triangles_8hpp.html" target="_top" xlink:title="examples/triangles\l/triangles.hpp">
<polygon fill="none" stroke="black" points="525.054,-73 525.054,-107 623.054,-107 623.054,-73 525.054,-73"/>
<text text-anchor="start" x="533.054" y="-94" font-family="Helvetica,sans-Serif" font-size="10.00">examples/triangles</text>
<text text-anchor="middle" x="574.054" y="-81" font-family="Helvetica,sans-Serif" font-size="10.00">/triangles.hpp</text>
</a>
</g>
<!-- Node8&#45;&gt;Node10 -->
<g id="edge22" class="edge"><title>Node8&#45;&gt;Node10</title>
<path fill="none" stroke="midnightblue" d="M493.218,-145.43C509.967,-133.945 532.211,-118.692 549.124,-107.094"/>
<polygon fill="midnightblue" stroke="midnightblue" points="490.815,-142.834 484.547,-151.376 494.773,-148.607 490.815,-142.834"/>
</g>
<!-- Node11 -->
<g id="node23" class="node"><title>Node11</title>
<a xlink:href="tpch__run_8cpp.html" target="_top" xlink:title="examples/tpch/tpch\l_run.cpp">
<polygon fill="none" stroke="black" points="425.054,-1 425.054,-35 527.054,-35 527.054,-1 425.054,-1"/>
<text text-anchor="start" x="433.054" y="-22" font-family="Helvetica,sans-Serif" font-size="10.00">examples/tpch/tpch</text>
<text text-anchor="middle" x="476.054" y="-9" font-family="Helvetica,sans-Serif" font-size="10.00">_run.cpp</text>
</a>
</g>
<!-- Node8&#45;&gt;Node11 -->
<g id="edge28" class="edge"><title>Node8&#45;&gt;Node11</title>
<path fill="none" stroke="midnightblue" d="M473.297,-141.458C475.161,-131.418 477.132,-119.13 478.054,-108 480.142,-82.7675 478.786,-53.4292 477.509,-35.286"/>
<polygon fill="midnightblue" stroke="midnightblue" points="469.855,-140.822 471.372,-151.308 476.725,-142.165 469.855,-140.822"/>
</g>
<!-- Node9&#45;&gt;Node6 -->
<g id="edge20" class="edge"><title>Node9&#45;&gt;Node6</title>
<path fill="none" stroke="midnightblue" d="M352.452,-71.3088C312.792,-59.6538 262.324,-44.8222 224.694,-33.7638"/>
<polygon fill="midnightblue" stroke="midnightblue" points="351.706,-74.7377 362.287,-74.1993 353.68,-68.0217 351.706,-74.7377"/>
</g>
<!-- Node10&#45;&gt;Node11 -->
<g id="edge24" class="edge"><title>Node10&#45;&gt;Node11</title>
<path fill="none" stroke="midnightblue" d="M542.454,-66.7841C528.475,-56.5135 512.324,-44.6475 499.451,-35.19"/>
<polygon fill="midnightblue" stroke="midnightblue" points="540.698,-69.8368 550.829,-72.937 544.842,-64.1956 540.698,-69.8368"/>
</g>
<!-- Node12 -->
<g id="node25" class="node"><title>Node12</title>
<a xlink:href="triangles__run_8cpp.html" target="_top" xlink:title="examples/triangles\l/triangles_run.cpp">
<polygon fill="none" stroke="black" points="545.054,-1 545.054,-35 643.054,-35 643.054,-1 545.054,-1"/>
<text text-anchor="start" x="553.054" y="-22" font-family="Helvetica,sans-Serif" font-size="10.00">examples/triangles</text>
<text text-anchor="middle" x="594.054" y="-9" font-family="Helvetica,sans-Serif" font-size="10.00">/triangles_run.cpp</text>
</a>
</g>
<!-- Node10&#45;&gt;Node12 -->
<g id="edge26" class="edge"><title>Node10&#45;&gt;Node12</title>
<path fill="none" stroke="midnightblue" d="M581.549,-63.0173C584.112,-53.7884 586.911,-43.7144 589.209,-35.4407"/>
<polygon fill="midnightblue" stroke="midnightblue" points="578.097,-62.365 578.793,-72.937 584.842,-64.2386 578.097,-62.365"/>
</g>
<!-- Node14 -->
<g id="node30" class="node"><title>Node14</title>
<a xlink:href="reduce__by__key_8hpp.html" target="_top" xlink:title="thrill/api/reduce_by\l_key.hpp">
<polygon fill="none" stroke="black" points="765.054,-145 765.054,-179 863.054,-179 863.054,-145 765.054,-145"/>
<text text-anchor="start" x="773.054" y="-166" font-family="Helvetica,sans-Serif" font-size="10.00">thrill/api/reduce_by</text>
<text text-anchor="middle" x="814.054" y="-153" font-family="Helvetica,sans-Serif" font-size="10.00">_key.hpp</text>
</a>
</g>
<!-- Node13&#45;&gt;Node14 -->
<g id="edge32" class="edge"><title>Node13&#45;&gt;Node14</title>
<path fill="none" stroke="midnightblue" d="M745.213,-211.074C759.713,-200.738 776.548,-188.737 789.94,-179.19"/>
<polygon fill="midnightblue" stroke="midnightblue" points="743.1,-208.282 736.989,-216.937 747.164,-213.982 743.1,-208.282"/>
</g>
<!-- Node14&#45;&gt;Node4 -->
<g id="edge34" class="edge"><title>Node14&#45;&gt;Node4</title>
<path fill="none" stroke="midnightblue" d="M754.864,-159.887C666.434,-155.651 495.126,-143.26 354.054,-108 346.566,-106.128 338.657,-103.348 331.55,-100.529"/>
<polygon fill="midnightblue" stroke="midnightblue" points="754.82,-163.389 764.971,-160.353 755.143,-156.396 754.82,-163.389"/>
</g>
<!-- Node14&#45;&gt;Node9 -->
<g id="edge40" class="edge"><title>Node14&#45;&gt;Node9</title>
<path fill="none" stroke="midnightblue" d="M754.81,-151.283C677.636,-137.321 543.832,-113.116 469.582,-99.6835"/>
<polygon fill="midnightblue" stroke="midnightblue" points="754.388,-154.763 764.852,-153.099 755.635,-147.875 754.388,-154.763"/>
</g>
<!-- Node15 -->
<g id="node33" class="node"><title>Node15</title>
<a xlink:href="k-means_8hpp.html" target="_top" xlink:title="examples/k&#45;means/k\l&#45;means.hpp">
<polygon fill="none" stroke="black" points="640.554,-73 640.554,-107 747.554,-107 747.554,-73 640.554,-73"/>
<text text-anchor="start" x="648.554" y="-94" font-family="Helvetica,sans-Serif" font-size="10.00">examples/k&#45;means/k</text>
<text text-anchor="middle" x="694.054" y="-81" font-family="Helvetica,sans-Serif" font-size="10.00">&#45;means.hpp</text>
</a>
</g>
<!-- Node14&#45;&gt;Node15 -->
<g id="edge36" class="edge"><title>Node14&#45;&gt;Node15</title>
<path fill="none" stroke="midnightblue" d="M776.807,-139.652C759.365,-129.187 738.912,-116.915 722.704,-107.19"/>
<polygon fill="midnightblue" stroke="midnightblue" points="775.239,-142.793 785.615,-144.937 778.841,-136.791 775.239,-142.793"/>
</g>
<!-- Node17 -->
<g id="node38" class="node"><title>Node17</title>
<a xlink:href="k-means__step3_8cpp.html" target="_top" xlink:title="examples/tutorial/k\l&#45;means_step3.cpp">
<polygon fill="none" stroke="black" points="764.554,-73 764.554,-107 863.554,-107 863.554,-73 764.554,-73"/>
<text text-anchor="start" x="772.554" y="-94" font-family="Helvetica,sans-Serif" font-size="10.00">examples/tutorial/k</text>
<text text-anchor="middle" x="814.054" y="-81" font-family="Helvetica,sans-Serif" font-size="10.00">&#45;means_step3.cpp</text>
</a>
</g>
<!-- Node14&#45;&gt;Node17 -->
<g id="edge42" class="edge"><title>Node14&#45;&gt;Node17</title>
<path fill="none" stroke="midnightblue" d="M814.054,-134.719C814.054,-125.572 814.054,-115.625 814.054,-107.441"/>
<polygon fill="midnightblue" stroke="midnightblue" points="810.554,-134.937 814.054,-144.937 817.554,-134.937 810.554,-134.937"/>
</g>
<!-- Node18 -->
<g id="node40" class="node"><title>Node18</title>
<a xlink:href="k-means__step4_8cpp.html" target="_top" xlink:title="examples/tutorial/k\l&#45;means_step4.cpp">
<polygon fill="none" stroke="black" points="880.554,-73 880.554,-107 979.554,-107 979.554,-73 880.554,-73"/>
<text text-anchor="start" x="888.554" y="-94" font-family="Helvetica,sans-Serif" font-size="10.00">examples/tutorial/k</text>
<text text-anchor="middle" x="930.054" y="-81" font-family="Helvetica,sans-Serif" font-size="10.00">&#45;means_step4.cpp</text>
</a>
</g>
<!-- Node14&#45;&gt;Node18 -->
<g id="edge44" class="edge"><title>Node14&#45;&gt;Node18</title>
<path fill="none" stroke="midnightblue" d="M850.058,-139.652C866.919,-129.187 886.69,-116.915 902.358,-107.19"/>
<polygon fill="midnightblue" stroke="midnightblue" points="848.195,-136.69 841.544,-144.937 851.886,-142.637 848.195,-136.69"/>
</g>
<!-- Node19 -->
<g id="node42" class="node"><title>Node19</title>
<a xlink:href="k-means__step5_8cpp.html" target="_top" xlink:title="examples/tutorial/k\l&#45;means_step5.cpp">
<polygon fill="none" stroke="black" points="996.554,-73 996.554,-107 1095.55,-107 1095.55,-73 996.554,-73"/>
<text text-anchor="start" x="1004.55" y="-94" font-family="Helvetica,sans-Serif" font-size="10.00">examples/tutorial/k</text>
<text text-anchor="middle" x="1046.05" y="-81" font-family="Helvetica,sans-Serif" font-size="10.00">&#45;means_step5.cpp</text>
</a>
</g>
<!-- Node14&#45;&gt;Node19 -->
<g id="edge46" class="edge"><title>Node14&#45;&gt;Node19</title>
<path fill="none" stroke="midnightblue" d="M873.206,-143.642C911.365,-131.8 960.425,-116.574 996.524,-105.371"/>
<polygon fill="midnightblue" stroke="midnightblue" points="871.768,-140.424 863.255,-146.731 873.843,-147.109 871.768,-140.424"/>
</g>
<!-- Node20 -->
<g id="node44" class="node"><title>Node20</title>
<a xlink:href="k-means__step6_8cpp.html" target="_top" xlink:title="examples/tutorial/k\l&#45;means_step6.cpp">
<polygon fill="none" stroke="black" points="1112.55,-73 1112.55,-107 1211.55,-107 1211.55,-73 1112.55,-73"/>
<text text-anchor="start" x="1120.55" y="-94" font-family="Helvetica,sans-Serif" font-size="10.00">examples/tutorial/k</text>
<text text-anchor="middle" x="1162.05" y="-81" font-family="Helvetica,sans-Serif" font-size="10.00">&#45;means_step6.cpp</text>
</a>
</g>
<!-- Node14&#45;&gt;Node20 -->
<g id="edge48" class="edge"><title>Node14&#45;&gt;Node20</title>
<path fill="none" stroke="midnightblue" d="M873.411,-153.031C932.334,-143.64 1025.03,-127.549 1104.05,-108 1106.82,-107.316 1109.64,-106.577 1112.49,-105.801"/>
<polygon fill="midnightblue" stroke="midnightblue" points="872.504,-149.631 863.173,-154.65 873.597,-156.545 872.504,-149.631"/>
</g>
<!-- Node21 -->
<g id="node46" class="node"><title>Node21</title>
<a xlink:href="word__count_8hpp.html" target="_top" xlink:title="examples/word_count\l/word_count.hpp">
<polygon fill="none" stroke="black" points="1229.05,-73 1229.05,-107 1341.05,-107 1341.05,-73 1229.05,-73"/>
<text text-anchor="start" x="1237.05" y="-94" font-family="Helvetica,sans-Serif" font-size="10.00">examples/word_count</text>
<text text-anchor="middle" x="1285.05" y="-81" font-family="Helvetica,sans-Serif" font-size="10.00">/word_count.hpp</text>
</a>
</g>
<!-- Node14&#45;&gt;Node21 -->
<g id="edge50" class="edge"><title>Node14&#45;&gt;Node21</title>
<path fill="none" stroke="midnightblue" d="M873.464,-156.689C952.946,-148.996 1098.03,-132.886 1220.05,-108 1222.92,-107.415 1225.85,-106.773 1228.8,-106.09"/>
<polygon fill="midnightblue" stroke="midnightblue" points="872.784,-153.238 863.163,-157.675 873.451,-160.206 872.784,-153.238"/>
</g>
<!-- Node23 -->
<g id="node50" class="node"><title>Node23</title>
<a xlink:href="word__count__simple_8cpp.html" target="_top" xlink:title="examples/word_count\l/word_count_simple.cpp">
<polygon fill="none" stroke="black" points="1359.05,-73 1359.05,-107 1481.05,-107 1481.05,-73 1359.05,-73"/>
<text text-anchor="start" x="1367.05" y="-94" font-family="Helvetica,sans-Serif" font-size="10.00">examples/word_count</text>
<text text-anchor="middle" x="1420.05" y="-81" font-family="Helvetica,sans-Serif" font-size="10.00">/word_count_simple.cpp</text>
</a>
</g>
<!-- Node14&#45;&gt;Node23 -->
<g id="edge54" class="edge"><title>Node14&#45;&gt;Node23</title>
<path fill="none" stroke="midnightblue" d="M873.302,-158.967C972.548,-153.232 1178.41,-138.533 1350.05,-108 1352.89,-107.495 1355.79,-106.935 1358.71,-106.334"/>
<polygon fill="midnightblue" stroke="midnightblue" points="872.957,-155.481 863.172,-159.542 873.354,-162.469 872.957,-155.481"/>
</g>
<!-- Node16 -->
<g id="node35" class="node"><title>Node16</title>
<a xlink:href="k-means__run_8cpp.html" target="_top" xlink:title="examples/k&#45;means/k\l&#45;means_run.cpp">
<polygon fill="none" stroke="black" points="660.554,-1 660.554,-35 767.554,-35 767.554,-1 660.554,-1"/>
<text text-anchor="start" x="668.554" y="-22" font-family="Helvetica,sans-Serif" font-size="10.00">examples/k&#45;means/k</text>
<text text-anchor="middle" x="714.054" y="-9" font-family="Helvetica,sans-Serif" font-size="10.00">&#45;means_run.cpp</text>
</a>
</g>
<!-- Node15&#45;&gt;Node16 -->
<g id="edge38" class="edge"><title>Node15&#45;&gt;Node16</title>
<path fill="none" stroke="midnightblue" d="M701.549,-63.0173C704.112,-53.7884 706.911,-43.7144 709.209,-35.4407"/>
<polygon fill="midnightblue" stroke="midnightblue" points="698.097,-62.365 698.793,-72.937 704.842,-64.2386 698.097,-62.365"/>
</g>
<!-- Node22 -->
<g id="node48" class="node"><title>Node22</title>
<a xlink:href="word__count__run_8cpp.html" target="_top" xlink:title="examples/word_count\l/word_count_run.cpp">
<polygon fill="none" stroke="black" points="1229.05,-1 1229.05,-35 1341.05,-35 1341.05,-1 1229.05,-1"/>
<text text-anchor="start" x="1237.05" y="-22" font-family="Helvetica,sans-Serif" font-size="10.00">examples/word_count</text>
<text text-anchor="middle" x="1285.05" y="-9" font-family="Helvetica,sans-Serif" font-size="10.00">/word_count_run.cpp</text>
</a>
</g>
<!-- Node21&#45;&gt;Node22 -->
<g id="edge52" class="edge"><title>Node21&#45;&gt;Node22</title>
<path fill="none" stroke="midnightblue" d="M1285.05,-62.7193C1285.05,-53.572 1285.05,-43.6255 1285.05,-35.4407"/>
<polygon fill="midnightblue" stroke="midnightblue" points="1281.55,-62.937 1285.05,-72.937 1288.55,-62.937 1281.55,-62.937"/>
</g>
<!-- Node24&#45;&gt;Node14 -->
<g id="edge58" class="edge"><title>Node24&#45;&gt;Node14</title>
<path fill="none" stroke="midnightblue" d="M539.873,-222.003C602.648,-208.265 704.569,-185.96 764.877,-172.762"/>
<polygon fill="midnightblue" stroke="midnightblue" points="538.787,-218.658 529.766,-224.215 540.283,-225.496 538.787,-218.658"/>
</g>
<!-- Node25 -->
<g id="node55" class="node"><title>Node25</title>
<a xlink:href="reduce__to__index_8hpp.html" target="_top" xlink:title="thrill/api/reduce_to\l_index.hpp">
<polygon fill="none" stroke="black" points="299.054,-145 299.054,-179 395.054,-179 395.054,-145 299.054,-145"/>
<text text-anchor="start" x="307.054" y="-166" font-family="Helvetica,sans-Serif" font-size="10.00">thrill/api/reduce_to</text>
<text text-anchor="middle" x="347.054" y="-153" font-family="Helvetica,sans-Serif" font-size="10.00">_index.hpp</text>
</a>
</g>
<!-- Node24&#45;&gt;Node25 -->
<g id="edge60" class="edge"><title>Node24&#45;&gt;Node25</title>
<path fill="none" stroke="midnightblue" d="M443.321,-212.226C423.027,-201.638 398.983,-189.094 380.001,-179.19"/>
<polygon fill="midnightblue" stroke="midnightblue" points="441.865,-215.414 452.349,-216.937 445.103,-209.208 441.865,-215.414"/>
</g>
<!-- Node25&#45;&gt;Node4 -->
<g id="edge62" class="edge"><title>Node25&#45;&gt;Node4</title>
<path fill="none" stroke="midnightblue" d="M333.024,-136.099C326.463,-123.986 319.002,-110.213 313.958,-100.901"/>
<polygon fill="midnightblue" stroke="midnightblue" points="329.971,-137.811 337.811,-144.937 336.126,-134.477 329.971,-137.811"/>
</g>
<!-- Node25&#45;&gt;Node5 -->
<g id="edge64" class="edge"><title>Node25&#45;&gt;Node5</title>
<path fill="none" stroke="midnightblue" d="M302.432,-140.438C275.278,-127.317 241.777,-111.128 220.172,-100.688"/>
<polygon fill="midnightblue" stroke="midnightblue" points="301.216,-143.737 311.743,-144.937 304.262,-137.435 301.216,-143.737"/>
</g>
<!-- Node25&#45;&gt;Node9 -->
<g id="edge66" class="edge"><title>Node25&#45;&gt;Node9</title>
<path fill="none" stroke="midnightblue" d="M370.369,-137.671C379.872,-127.755 390.643,-116.515 399.34,-107.441"/>
<polygon fill="midnightblue" stroke="midnightblue" points="367.798,-135.295 363.406,-144.937 372.852,-140.139 367.798,-135.295"/>
</g>
<!-- Node26&#45;&gt;Node25 -->
<g id="edge70" class="edge"><title>Node26&#45;&gt;Node25</title>
<path fill="none" stroke="midnightblue" d="M352.643,-206.719C351.5,-197.572 350.257,-187.625 349.234,-179.441"/>
<polygon fill="midnightblue" stroke="midnightblue" points="349.207,-207.448 353.921,-216.937 356.153,-206.58 349.207,-207.448"/>
</g>
</g>
</svg>
