<?xml version="1.0" encoding="UTF-8" standalone="no"?>
<!DOCTYPE svg PUBLIC "-//W3C//DTD SVG 1.1//EN"
 "http://www.w3.org/Graphics/SVG/1.1/DTD/svg11.dtd">
<!-- Generated by graphviz version 2.26.3 (20100126.1600)
 -->
<!-- Title: extlib/tlx/tlx/string/replace.cpp Pages: 1 -->
<svg width="252pt" height="160pt"
 viewBox="0.00 0.00 252.00 160.00" xmlns="http://www.w3.org/2000/svg" xmlns:xlink="http://www.w3.org/1999/xlink">
<g id="graph1" class="graph" transform="scale(1 1) rotate(0) translate(4 156)">
<title>extlib/tlx/tlx/string/replace.cpp</title>
<!-- Node1 -->
<g id="node1" class="node"><title>Node1</title>
<polygon fill="#bfbfbf" stroke="black" points="105,-117 105,-151 199,-151 199,-117 105,-117"/>
<text text-anchor="start" x="113" y="-138" font-family="Helvetica,sans-Serif" font-size="10.00">extlib/tlx/tlx/string</text>
<text text-anchor="middle" x="152" y="-125" font-family="Helvetica,sans-Serif" font-size="10.00">/replace.cpp</text>
</g>
<!-- Node2 -->
<g id="node3" class="node"><title>Node2</title>
<a xlink:href="replace_8hpp.html" target="_top" xlink:title="tlx/string/replace.hpp">
<polygon fill="none" stroke="black" points="-0.5,-58.5 -0.5,-79.5 106.5,-79.5 106.5,-58.5 -0.5,-58.5"/>
<text text-anchor="middle" x="53" y="-66.5" font-family="Helvetica,sans-Serif" font-size="10.00">tlx/string/replace.hpp</text>
</a>
</g>
<!-- Node1&#45;&gt;Node2 -->
<g id="edge2" class="edge"><title>Node1&#45;&gt;Node2</title>
<path fill="none" stroke="midnightblue" d="M125.989,-116.922C111.092,-107.141 92.5001,-94.9344 77.8089,-85.2887"/>
<polygon fill="midnightblue" stroke="midnightblue" points="79.5138,-82.2211 69.2335,-79.6584 75.6718,-88.0726 79.5138,-82.2211"/>
</g>
<!-- Node4 -->
<g id="node7" class="node"><title>Node4</title>
<polygon fill="none" stroke="#bfbfbf" points="124,-58.5 124,-79.5 180,-79.5 180,-58.5 124,-58.5"/>
<text text-anchor="middle" x="152" y="-66.5" font-family="Helvetica,sans-Serif" font-size="10.00">algorithm</text>
</g>
<!-- Node1&#45;&gt;Node4 -->
<g id="edge6" class="edge"><title>Node1&#45;&gt;Node4</title>
<path fill="none" stroke="midnightblue" d="M152,-116.922C152,-108.67 152,-98.6922 152,-89.9818"/>
<polygon fill="midnightblue" stroke="midnightblue" points="155.5,-89.8521 152,-79.8521 148.5,-89.8521 155.5,-89.8521"/>
</g>
<!-- Node5 -->
<g id="node9" class="node"><title>Node5</title>
<polygon fill="none" stroke="#bfbfbf" points="198,-58.5 198,-79.5 244,-79.5 244,-58.5 198,-58.5"/>
<text text-anchor="middle" x="221" y="-66.5" font-family="Helvetica,sans-Serif" font-size="10.00">cstring</text>
</g>
<!-- Node1&#45;&gt;Node5 -->
<g id="edge8" class="edge"><title>Node1&#45;&gt;Node5</title>
<path fill="none" stroke="midnightblue" d="M170.129,-116.922C179.959,-107.662 192.097,-96.2273 202.051,-86.8503"/>
<polygon fill="midnightblue" stroke="midnightblue" points="204.601,-89.2567 209.48,-79.8521 199.801,-84.1614 204.601,-89.2567"/>
</g>
<!-- Node3 -->
<g id="node5" class="node"><title>Node3</title>
<polygon fill="none" stroke="#bfbfbf" points="32.5,-0.5 32.5,-21.5 73.5,-21.5 73.5,-0.5 32.5,-0.5"/>
<text text-anchor="middle" x="53" y="-8.5" font-family="Helvetica,sans-Serif" font-size="10.00">string</text>
</g>
<!-- Node2&#45;&gt;Node3 -->
<g id="edge4" class="edge"><title>Node2&#45;&gt;Node3</title>
<path fill="none" stroke="midnightblue" d="M53,-58.3619C53,-50.9219 53,-40.7427 53,-31.7276"/>
<polygon fill="midnightblue" stroke="midnightblue" points="56.5001,-31.5706 53,-21.5707 49.5001,-31.5707 56.5001,-31.5706"/>
</g>
</g>
</svg>
