<?xml version="1.0" encoding="UTF-8" standalone="no"?>
<!DOCTYPE svg PUBLIC "-//W3C//DTD SVG 1.1//EN"
 "http://www.w3.org/Graphics/SVG/1.1/DTD/svg11.dtd">
<!-- Generated by graphviz version 2.40.1 (20161225.0304)
 -->
<!-- Title: extlib/foxxll/foxxll/io/request_with_waiters.hpp Pages: 1 -->
<svg width="916pt" height="385pt"
 viewBox="0.00 0.00 916.00 385.00" xmlns="http://www.w3.org/2000/svg" xmlns:xlink="http://www.w3.org/1999/xlink">
<g id="graph0" class="graph" transform="scale(1 1) rotate(0) translate(4 381)">
<title>extlib/foxxll/foxxll/io/request_with_waiters.hpp</title>
<!-- Node26 -->
<g id="node1" class="node">
<title>Node26</title>
<polygon fill="#bfbfbf" stroke="#000000" points="171,-346.5 171,-376.5 328,-376.5 328,-346.5 171,-346.5"/>
<text text-anchor="start" x="179" y="-364.5" font-family="Helvetica,sans-Serif" font-size="10.00" fill="#000000">extlib/foxxll/foxxll</text>
<text text-anchor="middle" x="249.5" y="-353.5" font-family="Helvetica,sans-Serif" font-size="10.00" fill="#000000">/io/request_with_waiters.hpp</text>
</g>
<!-- Node27 -->
<g id="node2" class="node">
<title>Node27</title>
<g id="a_node2"><a xlink:href="request__with__state_8hpp.html" target="_top" xlink:title="extlib/foxxll/foxxll\l/io/request_with_state.hpp">
<polygon fill="none" stroke="#000000" points="92.5,-279.5 92.5,-309.5 238.5,-309.5 238.5,-279.5 92.5,-279.5"/>
<text text-anchor="start" x="100.5" y="-297.5" font-family="Helvetica,sans-Serif" font-size="10.00" fill="#000000">extlib/foxxll/foxxll</text>
<text text-anchor="middle" x="165.5" y="-286.5" font-family="Helvetica,sans-Serif" font-size="10.00" fill="#000000">/io/request_with_state.hpp</text>
</a>
</g>
</g>
<!-- Node26&#45;&gt;Node27 -->
<g id="edge1" class="edge">
<title>Node26&#45;&gt;Node27</title>
<path fill="none" stroke="#191970" d="M222.27,-339.7808C209.9301,-329.9383 195.6409,-318.541 184.4855,-309.6432"/>
<polygon fill="#191970" stroke="#191970" points="220.4388,-342.7973 230.4391,-346.2967 224.8038,-337.3248 220.4388,-342.7973"/>
</g>
<!-- Node42 -->
<g id="node17" class="node">
<title>Node42</title>
<g id="a_node17"><a xlink:href="request__with__waiters_8cpp.html" target="_top" xlink:title="extlib/foxxll/foxxll\l/io/request_with_waiters.cpp">
<polygon fill="none" stroke="#000000" points="256.5,-279.5 256.5,-309.5 412.5,-309.5 412.5,-279.5 256.5,-279.5"/>
<text text-anchor="start" x="264.5" y="-297.5" font-family="Helvetica,sans-Serif" font-size="10.00" fill="#000000">extlib/foxxll/foxxll</text>
<text text-anchor="middle" x="334.5" y="-286.5" font-family="Helvetica,sans-Serif" font-size="10.00" fill="#000000">/io/request_with_waiters.cpp</text>
</a>
</g>
</g>
<!-- Node26&#45;&gt;Node42 -->
<g id="edge20" class="edge">
<title>Node26&#45;&gt;Node42</title>
<path fill="none" stroke="#191970" d="M276.6945,-340.0643C289.2626,-330.1577 303.8917,-318.6265 315.2885,-309.6432"/>
<polygon fill="#191970" stroke="#191970" points="274.4747,-337.3574 268.7878,-346.2967 278.8081,-342.8549 274.4747,-337.3574"/>
</g>
<!-- Node28 -->
<g id="node3" class="node">
<title>Node28</title>
<g id="a_node3"><a xlink:href="request__with__state_8cpp.html" target="_top" xlink:title="extlib/foxxll/foxxll\l/io/request_with_state.cpp">
<polygon fill="none" stroke="#000000" points="0,-67.5 0,-97.5 145,-97.5 145,-67.5 0,-67.5"/>
<text text-anchor="start" x="8" y="-85.5" font-family="Helvetica,sans-Serif" font-size="10.00" fill="#000000">extlib/foxxll/foxxll</text>
<text text-anchor="middle" x="72.5" y="-74.5" font-family="Helvetica,sans-Serif" font-size="10.00" fill="#000000">/io/request_with_state.cpp</text>
</a>
</g>
</g>
<!-- Node27&#45;&gt;Node28 -->
<g id="edge2" class="edge">
<title>Node27&#45;&gt;Node28</title>
<path fill="none" stroke="#191970" d="M147.4559,-271.2773C130.5018,-248.3174 105.6767,-211.5611 91.5,-176 80.9494,-149.5348 75.9993,-116.4248 73.8867,-97.5458"/>
<polygon fill="#191970" stroke="#191970" points="144.7277,-273.4731 153.5297,-279.3702 150.3263,-269.2712 144.7277,-273.4731"/>
</g>
<!-- Node29 -->
<g id="node4" class="node">
<title>Node29</title>
<g id="a_node4"><a xlink:href="serving__request_8cpp.html" target="_top" xlink:title="extlib/foxxll/foxxll\l/io/serving_request.cpp">
<polygon fill="none" stroke="#000000" points="100.5,-140 100.5,-170 230.5,-170 230.5,-140 100.5,-140"/>
<text text-anchor="start" x="108.5" y="-158" font-family="Helvetica,sans-Serif" font-size="10.00" fill="#000000">extlib/foxxll/foxxll</text>
<text text-anchor="middle" x="165.5" y="-147" font-family="Helvetica,sans-Serif" font-size="10.00" fill="#000000">/io/serving_request.cpp</text>
</a>
</g>
</g>
<!-- Node27&#45;&gt;Node29 -->
<g id="edge3" class="edge">
<title>Node27&#45;&gt;Node29</title>
<path fill="none" stroke="#191970" d="M165.5,-269.1668C165.5,-240.2706 165.5,-193.9582 165.5,-170.1758"/>
<polygon fill="#191970" stroke="#191970" points="162.0001,-269.3055 165.5,-279.3055 169.0001,-269.3055 162.0001,-269.3055"/>
</g>
<!-- Node30 -->
<g id="node5" class="node">
<title>Node30</title>
<g id="a_node5"><a xlink:href="serving__request_8hpp.html" target="_top" xlink:title="extlib/foxxll/foxxll\l/io/serving_request.hpp">
<polygon fill="none" stroke="#000000" points="453,-212.5 453,-242.5 584,-242.5 584,-212.5 453,-212.5"/>
<text text-anchor="start" x="461" y="-230.5" font-family="Helvetica,sans-Serif" font-size="10.00" fill="#000000">extlib/foxxll/foxxll</text>
<text text-anchor="middle" x="518.5" y="-219.5" font-family="Helvetica,sans-Serif" font-size="10.00" fill="#000000">/io/serving_request.hpp</text>
</a>
</g>
</g>
<!-- Node27&#45;&gt;Node30 -->
<g id="edge4" class="edge">
<title>Node27&#45;&gt;Node30</title>
<path fill="none" stroke="#191970" d="M248.8444,-278.6811C311.1943,-266.847 395.2837,-250.8867 452.8872,-239.9534"/>
<polygon fill="#191970" stroke="#191970" points="247.8137,-275.3141 238.6418,-280.6176 249.1191,-282.1914 247.8137,-275.3141"/>
</g>
<!-- Node30&#45;&gt;Node29 -->
<g id="edge19" class="edge">
<title>Node30&#45;&gt;Node29</title>
<path fill="none" stroke="#191970" d="M442.8456,-215.5133C386.4957,-206.1068 307.8235,-191.9632 239.5,-176 231.9575,-174.2378 224.0342,-172.1961 216.2899,-170.0921"/>
<polygon fill="#191970" stroke="#191970" points="442.3091,-218.9721 452.7471,-217.1558 443.4547,-212.0664 442.3091,-218.9721"/>
</g>
<!-- Node31 -->
<g id="node6" class="node">
<title>Node31</title>
<g id="a_node6"><a xlink:href="disk__queued__file_8cpp.html" target="_top" xlink:title="extlib/foxxll/foxxll\l/io/disk_queued_file.cpp">
<polygon fill="none" stroke="#000000" points="621.5,-67.5 621.5,-97.5 755.5,-97.5 755.5,-67.5 621.5,-67.5"/>
<text text-anchor="start" x="629.5" y="-85.5" font-family="Helvetica,sans-Serif" font-size="10.00" fill="#000000">extlib/foxxll/foxxll</text>
<text text-anchor="middle" x="688.5" y="-74.5" font-family="Helvetica,sans-Serif" font-size="10.00" fill="#000000">/io/disk_queued_file.cpp</text>
</a>
</g>
</g>
<!-- Node30&#45;&gt;Node31 -->
<g id="edge5" class="edge">
<title>Node30&#45;&gt;Node31</title>
<path fill="none" stroke="#191970" d="M594.6782,-225.1342C673.4179,-220.8941 788.6673,-209.0553 816.5,-176 828.523,-161.7209 826.9495,-149.4678 816.5,-134 802.5547,-113.3574 778.8149,-100.9874 755.5402,-93.5754"/>
<polygon fill="#191970" stroke="#191970" points="594.1142,-221.6582 584.3044,-225.6605 594.469,-228.6492 594.1142,-221.6582"/>
</g>
<!-- Node32 -->
<g id="node7" class="node">
<title>Node32</title>
<g id="a_node7"><a xlink:href="disk__queues_8cpp.html" target="_top" xlink:title="extlib/foxxll/foxxll\l/io/disk_queues.cpp">
<polygon fill="none" stroke="#000000" points="795,-67.5 795,-97.5 908,-97.5 908,-67.5 795,-67.5"/>
<text text-anchor="start" x="803" y="-85.5" font-family="Helvetica,sans-Serif" font-size="10.00" fill="#000000">extlib/foxxll/foxxll</text>
<text text-anchor="middle" x="851.5" y="-74.5" font-family="Helvetica,sans-Serif" font-size="10.00" fill="#000000">/io/disk_queues.cpp</text>
</a>
</g>
</g>
<!-- Node30&#45;&gt;Node32 -->
<g id="edge6" class="edge">
<title>Node30&#45;&gt;Node32</title>
<path fill="none" stroke="#191970" d="M594.1107,-224.9667C676.5908,-220.5651 801.3277,-208.5708 834.5,-176 855.4553,-155.4247 855.4884,-118.2585 853.5633,-97.5204"/>
<polygon fill="#191970" stroke="#191970" points="593.8302,-221.4763 584.0204,-225.4788 594.185,-228.4673 593.8302,-221.4763"/>
</g>
<!-- Node33 -->
<g id="node8" class="node">
<title>Node33</title>
<g id="a_node8"><a xlink:href="disk__queues_8hpp.html" target="_top" xlink:title="extlib/foxxll/foxxll\l/io/disk_queues.hpp">
<polygon fill="none" stroke="#000000" points="249,-140 249,-170 362,-170 362,-140 249,-140"/>
<text text-anchor="start" x="257" y="-158" font-family="Helvetica,sans-Serif" font-size="10.00" fill="#000000">extlib/foxxll/foxxll</text>
<text text-anchor="middle" x="305.5" y="-147" font-family="Helvetica,sans-Serif" font-size="10.00" fill="#000000">/io/disk_queues.hpp</text>
</a>
</g>
</g>
<!-- Node30&#45;&gt;Node33 -->
<g id="edge7" class="edge">
<title>Node30&#45;&gt;Node33</title>
<path fill="none" stroke="#191970" d="M464.6255,-209.1624C429.0374,-197.0491 382.9774,-181.3714 349.5772,-170.0028"/>
<polygon fill="#191970" stroke="#191970" points="463.7718,-212.569 474.3663,-212.478 466.0274,-205.9423 463.7718,-212.569"/>
</g>
<!-- Node39 -->
<g id="node14" class="node">
<title>Node39</title>
<g id="a_node14"><a xlink:href="fileperblock__file_8cpp.html" target="_top" xlink:title="extlib/foxxll/foxxll\l/io/fileperblock_file.cpp">
<polygon fill="none" stroke="#000000" points="380,-140 380,-170 509,-170 509,-140 380,-140"/>
<text text-anchor="start" x="388" y="-158" font-family="Helvetica,sans-Serif" font-size="10.00" fill="#000000">extlib/foxxll/foxxll</text>
<text text-anchor="middle" x="444.5" y="-147" font-family="Helvetica,sans-Serif" font-size="10.00" fill="#000000">/io/fileperblock_file.cpp</text>
</a>
</g>
</g>
<!-- Node30&#45;&gt;Node39 -->
<g id="edge16" class="edge">
<title>Node30&#45;&gt;Node39</title>
<path fill="none" stroke="#191970" d="M495.8726,-205.3313C484.1829,-193.8785 470.2269,-180.2054 459.8132,-170.0028"/>
<polygon fill="#191970" stroke="#191970" points="493.5746,-207.9797 503.1672,-212.478 498.4734,-202.9795 493.5746,-207.9797"/>
</g>
<!-- Node40 -->
<g id="node15" class="node">
<title>Node40</title>
<g id="a_node15"><a xlink:href="request__queue__impl__1q_8cpp.html" target="_top" xlink:title="extlib/foxxll/foxxll\l/io/request_queue_impl\l_1q.cpp">
<polygon fill="none" stroke="#000000" points="527,-134.5 527,-175.5 658,-175.5 658,-134.5 527,-134.5"/>
<text text-anchor="start" x="535" y="-163.5" font-family="Helvetica,sans-Serif" font-size="10.00" fill="#000000">extlib/foxxll/foxxll</text>
<text text-anchor="start" x="535" y="-152.5" font-family="Helvetica,sans-Serif" font-size="10.00" fill="#000000">/io/request_queue_impl</text>
<text text-anchor="middle" x="592.5" y="-141.5" font-family="Helvetica,sans-Serif" font-size="10.00" fill="#000000">_1q.cpp</text>
</a>
</g>
</g>
<!-- Node30&#45;&gt;Node40 -->
<g id="edge17" class="edge">
<title>Node30&#45;&gt;Node40</title>
<path fill="none" stroke="#191970" d="M541.2009,-205.2593C550.8789,-195.7774 562.0995,-184.7843 571.5743,-175.5015"/>
<polygon fill="#191970" stroke="#191970" points="538.5266,-202.9795 533.8328,-212.478 543.4254,-207.9797 538.5266,-202.9795"/>
</g>
<!-- Node41 -->
<g id="node16" class="node">
<title>Node41</title>
<g id="a_node16"><a xlink:href="request__queue__impl__qwqr_8cpp.html" target="_top" xlink:title="extlib/foxxll/foxxll\l/io/request_queue_impl\l_qwqr.cpp">
<polygon fill="none" stroke="#000000" points="676,-134.5 676,-175.5 807,-175.5 807,-134.5 676,-134.5"/>
<text text-anchor="start" x="684" y="-163.5" font-family="Helvetica,sans-Serif" font-size="10.00" fill="#000000">extlib/foxxll/foxxll</text>
<text text-anchor="start" x="684" y="-152.5" font-family="Helvetica,sans-Serif" font-size="10.00" fill="#000000">/io/request_queue_impl</text>
<text text-anchor="middle" x="741.5" y="-141.5" font-family="Helvetica,sans-Serif" font-size="10.00" fill="#000000">_qwqr.cpp</text>
</a>
</g>
</g>
<!-- Node30&#45;&gt;Node41 -->
<g id="edge18" class="edge">
<title>Node30&#45;&gt;Node41</title>
<path fill="none" stroke="#191970" d="M574.2553,-209.3733C605.9147,-199.0804 645.647,-186.163 678.4402,-175.5015"/>
<polygon fill="#191970" stroke="#191970" points="573.1336,-206.0575 564.7057,-212.478 575.2979,-212.7146 573.1336,-206.0575"/>
</g>
<!-- Node33&#45;&gt;Node28 -->
<g id="edge10" class="edge">
<title>Node33&#45;&gt;Node28</title>
<path fill="none" stroke="#191970" d="M248.5116,-136.8322C245.4643,-135.8717 242.4457,-134.9228 239.5,-134 199.9793,-121.6191 155.1247,-107.7996 121.8603,-97.5955"/>
<polygon fill="#191970" stroke="#191970" points="247.6975,-140.2455 258.2874,-139.9215 249.8069,-133.5709 247.6975,-140.2455"/>
</g>
<!-- Node33&#45;&gt;Node31 -->
<g id="edge8" class="edge">
<title>Node33&#45;&gt;Node31</title>
<path fill="none" stroke="#191970" d="M358.7496,-137.0803C362.7067,-135.969 366.654,-134.927 370.5,-134 416.8509,-122.8278 542.5184,-103.6931 621.2901,-92.158"/>
<polygon fill="#191970" stroke="#191970" points="357.5544,-133.7834 348.9458,-139.9594 359.5268,-140.4998 357.5544,-133.7834"/>
</g>
<!-- Node33&#45;&gt;Node32 -->
<g id="edge9" class="edge">
<title>Node33&#45;&gt;Node32</title>
<path fill="none" stroke="#191970" d="M357.1746,-137.1754C361.6492,-135.9767 366.134,-134.8932 370.5,-134 542.7721,-98.7549 590.2291,-121.4424 764.5,-98 774.3833,-96.6705 784.8565,-95.0169 794.9828,-93.2895"/>
<polygon fill="#191970" stroke="#191970" points="356.0994,-133.8424 347.4451,-139.9542 358.0218,-140.5733 356.0994,-133.8424"/>
</g>
<!-- Node34 -->
<g id="node9" class="node">
<title>Node34</title>
<g id="a_node9"><a xlink:href="io_8hpp.html" target="_top" xlink:title="extlib/foxxll/foxxll\l/io.hpp">
<polygon fill="none" stroke="#000000" points="455.5,-67.5 455.5,-97.5 561.5,-97.5 561.5,-67.5 455.5,-67.5"/>
<text text-anchor="start" x="463.5" y="-85.5" font-family="Helvetica,sans-Serif" font-size="10.00" fill="#000000">extlib/foxxll/foxxll</text>
<text text-anchor="middle" x="508.5" y="-74.5" font-family="Helvetica,sans-Serif" font-size="10.00" fill="#000000">/io.hpp</text>
</a>
</g>
</g>
<!-- Node33&#45;&gt;Node34 -->
<g id="edge11" class="edge">
<title>Node33&#45;&gt;Node34</title>
<path fill="none" stroke="#191970" d="M357.2805,-136.5069C391.1374,-124.4152 434.796,-108.8228 466.4922,-97.5028"/>
<polygon fill="#191970" stroke="#191970" points="355.802,-133.3184 347.5617,-139.978 358.1564,-139.9106 355.802,-133.3184"/>
</g>
<!-- Node36 -->
<g id="node11" class="node">
<title>Node36</title>
<g id="a_node11"><a xlink:href="block__manager_8cpp.html" target="_top" xlink:title="extlib/foxxll/foxxll\l/mng/block_manager.cpp">
<polygon fill="none" stroke="#000000" points="163,-67.5 163,-97.5 302,-97.5 302,-67.5 163,-67.5"/>
<text text-anchor="start" x="171" y="-85.5" font-family="Helvetica,sans-Serif" font-size="10.00" fill="#000000">extlib/foxxll/foxxll</text>
<text text-anchor="middle" x="232.5" y="-74.5" font-family="Helvetica,sans-Serif" font-size="10.00" fill="#000000">/mng/block_manager.cpp</text>
</a>
</g>
</g>
<!-- Node33&#45;&gt;Node36 -->
<g id="edge13" class="edge">
<title>Node33&#45;&gt;Node36</title>
<path fill="none" stroke="#191970" d="M283.1784,-132.8313C271.6466,-121.3785 257.8792,-107.7054 247.6063,-97.5028"/>
<polygon fill="#191970" stroke="#191970" points="280.8126,-135.4146 290.3744,-139.978 285.7454,-130.4478 280.8126,-135.4146"/>
</g>
<!-- Node37 -->
<g id="node12" class="node">
<title>Node37</title>
<g id="a_node12"><a xlink:href="buf__writer_8hpp.html" target="_top" xlink:title="extlib/foxxll/foxxll\l/mng/buf_writer.hpp">
<polygon fill="none" stroke="#000000" points="320.5,-67.5 320.5,-97.5 434.5,-97.5 434.5,-67.5 320.5,-67.5"/>
<text text-anchor="start" x="328.5" y="-85.5" font-family="Helvetica,sans-Serif" font-size="10.00" fill="#000000">extlib/foxxll/foxxll</text>
<text text-anchor="middle" x="377.5" y="-74.5" font-family="Helvetica,sans-Serif" font-size="10.00" fill="#000000">/mng/buf_writer.hpp</text>
</a>
</g>
</g>
<!-- Node33&#45;&gt;Node37 -->
<g id="edge14" class="edge">
<title>Node33&#45;&gt;Node37</title>
<path fill="none" stroke="#191970" d="M327.5158,-132.8313C338.8896,-121.3785 352.4684,-107.7054 362.6007,-97.5028"/>
<polygon fill="#191970" stroke="#191970" points="324.9816,-130.4161 320.4184,-139.978 329.9485,-135.3487 324.9816,-130.4161"/>
</g>
<!-- Node35 -->
<g id="node10" class="node">
<title>Node35</title>
<g id="a_node10"><a xlink:href="create__file_8cpp.html" target="_top" xlink:title="extlib/foxxll/foxxll\l/io/create_file.cpp">
<polygon fill="none" stroke="#000000" points="457.5,-.5 457.5,-30.5 563.5,-30.5 563.5,-.5 457.5,-.5"/>
<text text-anchor="start" x="465.5" y="-18.5" font-family="Helvetica,sans-Serif" font-size="10.00" fill="#000000">extlib/foxxll/foxxll</text>
<text text-anchor="middle" x="510.5" y="-7.5" font-family="Helvetica,sans-Serif" font-size="10.00" fill="#000000">/io/create_file.cpp</text>
</a>
</g>
</g>
<!-- Node34&#45;&gt;Node35 -->
<g id="edge12" class="edge">
<title>Node34&#45;&gt;Node35</title>
<path fill="none" stroke="#191970" d="M509.2605,-57.0249C509.526,-48.128 509.8156,-38.4287 510.048,-30.6432"/>
<polygon fill="#191970" stroke="#191970" points="505.7539,-57.1967 508.9538,-67.2967 512.7507,-57.4056 505.7539,-57.1967"/>
</g>
<!-- Node38 -->
<g id="node13" class="node">
<title>Node38</title>
<g id="a_node13"><a xlink:href="buf__ostream_8hpp.html" target="_top" xlink:title="extlib/foxxll/foxxll\l/mng/buf_ostream.hpp">
<polygon fill="none" stroke="#000000" points="312,-.5 312,-30.5 439,-30.5 439,-.5 312,-.5"/>
<text text-anchor="start" x="320" y="-18.5" font-family="Helvetica,sans-Serif" font-size="10.00" fill="#000000">extlib/foxxll/foxxll</text>
<text text-anchor="middle" x="375.5" y="-7.5" font-family="Helvetica,sans-Serif" font-size="10.00" fill="#000000">/mng/buf_ostream.hpp</text>
</a>
</g>
</g>
<!-- Node37&#45;&gt;Node38 -->
<g id="edge15" class="edge">
<title>Node37&#45;&gt;Node38</title>
<path fill="none" stroke="#191970" d="M376.7395,-57.0249C376.474,-48.128 376.1844,-38.4287 375.952,-30.6432"/>
<polygon fill="#191970" stroke="#191970" points="373.2493,-57.4056 377.0462,-67.2967 380.2461,-57.1967 373.2493,-57.4056"/>
</g>
</g>
</svg>
