<?xml version="1.0" encoding="UTF-8" standalone="no"?>
<!DOCTYPE svg PUBLIC "-//W3C//DTD SVG 1.1//EN"
 "http://www.w3.org/Graphics/SVG/1.1/DTD/svg11.dtd">
<!-- Generated by graphviz version 2.36.0 (20140111.2315)
 -->
<!-- Title: extlib/foxxll/foxxll/io/request_interface.hpp Pages: 1 -->
<svg width="314pt" height="152pt"
 viewBox="0.00 0.00 314.00 152.00" xmlns="http://www.w3.org/2000/svg" xmlns:xlink="http://www.w3.org/1999/xlink">
<g id="graph0" class="graph" transform="scale(1 1) rotate(0) translate(4 148)">
<title>extlib/foxxll/foxxll/io/request_interface.hpp</title>
<!-- Node1 -->
<g id="node1" class="node"><title>Node1</title>
<polygon fill="#bfbfbf" stroke="black" points="17,-113 17,-143 141,-143 141,-113 17,-113"/>
<text text-anchor="start" x="25" y="-131" font-family="Helvetica,sans-Serif" font-size="10.00">extlib/foxxll/foxxll</text>
<text text-anchor="middle" x="79" y="-120" font-family="Helvetica,sans-Serif" font-size="10.00">/io/request_interface.hpp</text>
</g>
<!-- Node2 -->
<g id="node2" class="node"><title>Node2</title>
<polygon fill="none" stroke="#bfbfbf" points="0,-56.5 0,-75.5 52,-75.5 52,-56.5 0,-56.5"/>
<text text-anchor="middle" x="26" y="-63.5" font-family="Helvetica,sans-Serif" font-size="10.00">ostream</text>
</g>
<!-- Node1&#45;&gt;Node2 -->
<g id="edge1" class="edge"><title>Node1&#45;&gt;Node2</title>
<path fill="none" stroke="midnightblue" d="M66.4397,-112.781C58.6588,-103.972 48.6364,-92.6262 40.516,-83.4332"/>
<polygon fill="midnightblue" stroke="midnightblue" points="42.9555,-80.9082 33.712,-75.7305 37.7092,-85.5424 42.9555,-80.9082"/>
</g>
<!-- Node3 -->
<g id="node3" class="node"><title>Node3</title>
<g id="a_node3"><a xlink:href="types_8hpp.html" target="_top" xlink:title="foxxll/common/types.hpp">
<polygon fill="none" stroke="black" points="70,-56.5 70,-75.5 196,-75.5 196,-56.5 70,-56.5"/>
<text text-anchor="middle" x="133" y="-63.5" font-family="Helvetica,sans-Serif" font-size="10.00">foxxll/common/types.hpp</text>
</a>
</g>
</g>
<!-- Node1&#45;&gt;Node3 -->
<g id="edge2" class="edge"><title>Node1&#45;&gt;Node3</title>
<path fill="none" stroke="midnightblue" d="M91.7972,-112.781C99.725,-103.972 109.936,-92.6262 118.21,-83.4332"/>
<polygon fill="midnightblue" stroke="midnightblue" points="121.054,-85.5049 125.143,-75.7305 115.851,-80.8221 121.054,-85.5049"/>
</g>
<!-- Node4 -->
<g id="node4" class="node"><title>Node4</title>
<polygon fill="none" stroke="#bfbfbf" points="6.5,-0.5 6.5,-19.5 55.5,-19.5 55.5,-0.5 6.5,-0.5"/>
<text text-anchor="middle" x="31" y="-7.5" font-family="Helvetica,sans-Serif" font-size="10.00">cstddef</text>
</g>
<!-- Node3&#45;&gt;Node4 -->
<g id="edge3" class="edge"><title>Node3&#45;&gt;Node4</title>
<path fill="none" stroke="midnightblue" d="M116.612,-56.324C100.329,-47.7034 75.1325,-34.3643 56.2837,-24.3855"/>
<polygon fill="midnightblue" stroke="midnightblue" points="57.8229,-21.2402 47.3474,-19.6545 54.5477,-27.4267 57.8229,-21.2402"/>
</g>
<!-- Node5 -->
<g id="node5" class="node"><title>Node5</title>
<polygon fill="none" stroke="#bfbfbf" points="74,-0.5 74,-19.5 120,-19.5 120,-0.5 74,-0.5"/>
<text text-anchor="middle" x="97" y="-7.5" font-family="Helvetica,sans-Serif" font-size="10.00">cstdint</text>
</g>
<!-- Node3&#45;&gt;Node5 -->
<g id="edge4" class="edge"><title>Node3&#45;&gt;Node5</title>
<path fill="none" stroke="midnightblue" d="M127.055,-56.083C122.023,-48.5341 114.663,-37.4948 108.487,-28.2298"/>
<polygon fill="midnightblue" stroke="midnightblue" points="111.293,-26.1301 102.834,-19.7511 105.469,-30.0131 111.293,-26.1301"/>
</g>
<!-- Node6 -->
<g id="node6" class="node"><title>Node6</title>
<polygon fill="none" stroke="#bfbfbf" points="138,-0.5 138,-19.5 200,-19.5 200,-0.5 138,-0.5"/>
<text text-anchor="middle" x="169" y="-7.5" font-family="Helvetica,sans-Serif" font-size="10.00">type_traits</text>
</g>
<!-- Node3&#45;&gt;Node6 -->
<g id="edge5" class="edge"><title>Node3&#45;&gt;Node6</title>
<path fill="none" stroke="midnightblue" d="M138.945,-56.083C143.977,-48.5341 151.337,-37.4948 157.513,-28.2298"/>
<polygon fill="midnightblue" stroke="midnightblue" points="160.531,-30.0131 163.166,-19.7511 154.707,-26.1301 160.531,-30.0131"/>
</g>
<!-- Node7 -->
<g id="node7" class="node"><title>Node7</title>
<polygon fill="none" stroke="#bfbfbf" points="218,-0.5 218,-19.5 306,-19.5 306,-0.5 218,-0.5"/>
<text text-anchor="middle" x="262" y="-7.5" font-family="Helvetica,sans-Serif" font-size="10.00">foxxll/config.hpp</text>
</g>
<!-- Node3&#45;&gt;Node7 -->
<g id="edge6" class="edge"><title>Node3&#45;&gt;Node7</title>
<path fill="none" stroke="midnightblue" d="M153.44,-56.4435C174.67,-47.5566 208.099,-33.5632 232.255,-23.4514"/>
<polygon fill="midnightblue" stroke="midnightblue" points="233.782,-26.6064 241.655,-19.5164 231.079,-20.1493 233.782,-26.6064"/>
</g>
</g>
</svg>
