<?xml version="1.0" encoding="UTF-8" standalone="no"?>
<!DOCTYPE svg PUBLIC "-//W3C//DTD SVG 1.1//EN"
 "http://www.w3.org/Graphics/SVG/1.1/DTD/svg11.dtd">
<!-- Generated by graphviz version 2.36.0 (20140111.2315)
 -->
<!-- Title: thrill/io/request_queue_impl_worker.hpp Pages: 1 -->
<svg width="1623pt" height="524pt"
 viewBox="0.00 0.00 1623.00 524.00" xmlns="http://www.w3.org/2000/svg" xmlns:xlink="http://www.w3.org/1999/xlink">
<g id="graph0" class="graph" transform="scale(1 1) rotate(0) translate(4 520)">
<title>thrill/io/request_queue_impl_worker.hpp</title>
<!-- Node1 -->
<g id="node1" class="node"><title>Node1</title>
<polygon fill="#bfbfbf" stroke="black" points="262,-485 262,-515 374,-515 374,-485 262,-485"/>
<text text-anchor="start" x="270" y="-503" font-family="Helvetica,sans-Serif" font-size="10.00">thrill/io/request_queue</text>
<text text-anchor="middle" x="318" y="-492" font-family="Helvetica,sans-Serif" font-size="10.00">_impl_worker.hpp</text>
</g>
<!-- Node2 -->
<g id="node2" class="node"><title>Node2</title>
<g id="a_node2"><a xlink:href="config_8hpp.html" target="_top" xlink:title="thrill/common/config.hpp">
<polygon fill="none" stroke="black" points="109.5,-186.5 109.5,-205.5 232.5,-205.5 232.5,-186.5 109.5,-186.5"/>
<text text-anchor="middle" x="171" y="-193.5" font-family="Helvetica,sans-Serif" font-size="10.00">thrill/common/config.hpp</text>
</a>
</g>
</g>
<!-- Node1&#45;&gt;Node2 -->
<g id="edge1" class="edge"><title>Node1&#45;&gt;Node2</title>
<path fill="none" stroke="midnightblue" d="M261.88,-490.362C170.588,-474.711 0,-438.094 0,-383 0,-383 0,-383 0,-319 0,-257.459 74.3026,-224.04 124.95,-208.409"/>
<polygon fill="midnightblue" stroke="midnightblue" points="126.137,-211.708 134.735,-205.517 124.153,-204.995 126.137,-211.708"/>
</g>
<!-- Node3 -->
<g id="node3" class="node"><title>Node3</title>
<g id="a_node3"><a xlink:href="semaphore_8hpp.html" target="_top" xlink:title="thrill/common/semaphore.hpp">
<polygon fill="none" stroke="black" points="198.5,-310.5 198.5,-329.5 343.5,-329.5 343.5,-310.5 198.5,-310.5"/>
<text text-anchor="middle" x="271" y="-317.5" font-family="Helvetica,sans-Serif" font-size="10.00">thrill/common/semaphore.hpp</text>
</a>
</g>
</g>
<!-- Node1&#45;&gt;Node3 -->
<g id="edge2" class="edge"><title>Node1&#45;&gt;Node3</title>
<path fill="none" stroke="midnightblue" d="M308.477,-484.901C302.243,-474.996 294.455,-461.208 290,-448 277.514,-410.98 273.219,-365.13 271.752,-339.888"/>
<polygon fill="midnightblue" stroke="midnightblue" points="275.231,-339.379 271.246,-329.562 268.239,-339.722 275.231,-339.379"/>
</g>
<!-- Node6 -->
<g id="node6" class="node"><title>Node6</title>
<g id="a_node6"><a xlink:href="shared__state_8hpp.html" target="_top" xlink:title="thrill/common/shared\l_state.hpp">
<polygon fill="none" stroke="black" points="73.5,-305 73.5,-335 180.5,-335 180.5,-305 73.5,-305"/>
<text text-anchor="start" x="81.5" y="-323" font-family="Helvetica,sans-Serif" font-size="10.00">thrill/common/shared</text>
<text text-anchor="middle" x="127" y="-312" font-family="Helvetica,sans-Serif" font-size="10.00">_state.hpp</text>
</a>
</g>
</g>
<!-- Node1&#45;&gt;Node6 -->
<g id="edge5" class="edge"><title>Node1&#45;&gt;Node6</title>
<path fill="none" stroke="midnightblue" d="M302.693,-484.734C269.222,-453.542 189.37,-379.125 149.895,-342.336"/>
<polygon fill="midnightblue" stroke="midnightblue" points="151.817,-339.344 142.115,-335.086 147.045,-344.465 151.817,-339.344"/>
</g>
<!-- Node7 -->
<g id="node7" class="node"><title>Node7</title>
<g id="a_node7"><a xlink:href="request__queue_8hpp.html" target="_top" xlink:title="thrill/io/request_queue.hpp">
<polygon fill="none" stroke="black" points="299.5,-428.5 299.5,-447.5 430.5,-447.5 430.5,-428.5 299.5,-428.5"/>
<text text-anchor="middle" x="365" y="-435.5" font-family="Helvetica,sans-Serif" font-size="10.00">thrill/io/request_queue.hpp</text>
</a>
</g>
</g>
<!-- Node1&#45;&gt;Node7 -->
<g id="edge8" class="edge"><title>Node1&#45;&gt;Node7</title>
<path fill="none" stroke="midnightblue" d="M329.138,-484.781C335.968,-476.062 344.745,-464.857 351.906,-455.715"/>
<polygon fill="midnightblue" stroke="midnightblue" points="354.75,-457.761 358.161,-447.731 349.239,-453.445 354.75,-457.761"/>
</g>
<!-- Node46 -->
<g id="node46" class="node"><title>Node46</title>
<polygon fill="none" stroke="#bfbfbf" points="448.5,-428.5 448.5,-447.5 507.5,-447.5 507.5,-428.5 448.5,-428.5"/>
<text text-anchor="middle" x="478" y="-435.5" font-family="Helvetica,sans-Serif" font-size="10.00">functional</text>
</g>
<!-- Node1&#45;&gt;Node46 -->
<g id="edge82" class="edge"><title>Node1&#45;&gt;Node46</title>
<path fill="none" stroke="midnightblue" d="M355.513,-484.933C382.868,-474.674 419.561,-460.915 445.635,-451.137"/>
<polygon fill="midnightblue" stroke="midnightblue" points="446.932,-454.388 455.067,-447.6 444.474,-447.834 446.932,-454.388"/>
</g>
<!-- Node47 -->
<g id="node47" class="node"><title>Node47</title>
<polygon fill="none" stroke="#bfbfbf" points="526,-428.5 526,-447.5 570,-447.5 570,-428.5 526,-428.5"/>
<text text-anchor="middle" x="548" y="-435.5" font-family="Helvetica,sans-Serif" font-size="10.00">thread</text>
</g>
<!-- Node1&#45;&gt;Node47 -->
<g id="edge83" class="edge"><title>Node1&#45;&gt;Node47</title>
<path fill="none" stroke="midnightblue" d="M373.988,-484.929C413.688,-474.867 468.186,-460.88 516,-448 516.101,-447.973 516.202,-447.946 516.304,-447.918"/>
<polygon fill="midnightblue" stroke="midnightblue" points="517.267,-451.283 525.984,-445.261 515.414,-444.533 517.267,-451.283"/>
</g>
<!-- Node4 -->
<g id="node4" class="node"><title>Node4</title>
<polygon fill="none" stroke="#bfbfbf" points="181.5,-248.5 181.5,-267.5 276.5,-267.5 276.5,-248.5 181.5,-248.5"/>
<text text-anchor="middle" x="229" y="-255.5" font-family="Helvetica,sans-Serif" font-size="10.00">condition_variable</text>
</g>
<!-- Node3&#45;&gt;Node4 -->
<g id="edge3" class="edge"><title>Node3&#45;&gt;Node4</title>
<path fill="none" stroke="midnightblue" d="M264.982,-310.403C258.682,-301.403 248.629,-287.041 240.748,-275.782"/>
<polygon fill="midnightblue" stroke="midnightblue" points="243.608,-273.766 235.006,-267.581 237.874,-277.78 243.608,-273.766"/>
</g>
<!-- Node5 -->
<g id="node5" class="node"><title>Node5</title>
<polygon fill="none" stroke="#bfbfbf" points="297,-186.5 297,-205.5 341,-205.5 341,-186.5 297,-186.5"/>
<text text-anchor="middle" x="319" y="-193.5" font-family="Helvetica,sans-Serif" font-size="10.00">mutex</text>
</g>
<!-- Node3&#45;&gt;Node5 -->
<g id="edge4" class="edge"><title>Node3&#45;&gt;Node5</title>
<path fill="none" stroke="midnightblue" d="M274.452,-310.226C282.236,-290.442 301.292,-242.007 311.783,-215.344"/>
<polygon fill="midnightblue" stroke="midnightblue" points="315.175,-216.282 315.579,-205.694 308.661,-213.719 315.175,-216.282"/>
</g>
<!-- Node6&#45;&gt;Node4 -->
<g id="edge6" class="edge"><title>Node6&#45;&gt;Node4</title>
<path fill="none" stroke="midnightblue" d="M150.914,-304.933C167.355,-295.262 189.085,-282.479 205.447,-272.855"/>
<polygon fill="midnightblue" stroke="midnightblue" points="207.535,-275.687 214.38,-267.6 203.986,-269.654 207.535,-275.687"/>
</g>
<!-- Node6&#45;&gt;Node5 -->
<g id="edge7" class="edge"><title>Node6&#45;&gt;Node5</title>
<path fill="none" stroke="midnightblue" d="M132.484,-304.996C139.407,-289.043 152.782,-263.223 172,-248 205.863,-221.176 254.784,-207.963 286.734,-201.824"/>
<polygon fill="midnightblue" stroke="midnightblue" points="287.649,-205.216 296.873,-200.004 286.412,-198.326 287.649,-205.216"/>
</g>
<!-- Node8 -->
<g id="node8" class="node"><title>Node8</title>
<g id="a_node8"><a xlink:href="defines_8hpp.html" target="_top" xlink:title="thrill/common/defines.hpp">
<polygon fill="none" stroke="black" points="1042,-372.5 1042,-391.5 1170,-391.5 1170,-372.5 1042,-372.5"/>
<text text-anchor="middle" x="1106" y="-379.5" font-family="Helvetica,sans-Serif" font-size="10.00">thrill/common/defines.hpp</text>
</a>
</g>
</g>
<!-- Node7&#45;&gt;Node8 -->
<g id="edge9" class="edge"><title>Node7&#45;&gt;Node8</title>
<path fill="none" stroke="midnightblue" d="M430.748,-428.818C433.534,-428.53 436.294,-428.256 439,-428 653.942,-407.693 908.694,-393.138 1031.91,-386.697"/>
<polygon fill="midnightblue" stroke="midnightblue" points="1032.18,-390.188 1041.99,-386.173 1031.82,-383.197 1032.18,-390.188"/>
</g>
<!-- Node10 -->
<g id="node10" class="node"><title>Node10</title>
<g id="a_node10"><a xlink:href="request_8hpp.html" target="_top" xlink:title="thrill/io/request.hpp">
<polygon fill="none" stroke="black" points="379.5,-372.5 379.5,-391.5 478.5,-391.5 478.5,-372.5 379.5,-372.5"/>
<text text-anchor="middle" x="429" y="-379.5" font-family="Helvetica,sans-Serif" font-size="10.00">thrill/io/request.hpp</text>
</a>
</g>
</g>
<!-- Node7&#45;&gt;Node10 -->
<g id="edge11" class="edge"><title>Node7&#45;&gt;Node10</title>
<path fill="none" stroke="midnightblue" d="M375.283,-428.324C384.836,-420.263 399.28,-408.077 410.784,-398.369"/>
<polygon fill="midnightblue" stroke="midnightblue" points="413.144,-400.958 418.53,-391.834 408.63,-395.608 413.144,-400.958"/>
</g>
<!-- Node9 -->
<g id="node9" class="node"><title>Node9</title>
<polygon fill="none" stroke="#bfbfbf" points="656,-68.5 656,-87.5 718,-87.5 718,-68.5 656,-68.5"/>
<text text-anchor="middle" x="687" y="-75.5" font-family="Helvetica,sans-Serif" font-size="10.00">type_traits</text>
</g>
<!-- Node8&#45;&gt;Node9 -->
<g id="edge10" class="edge"><title>Node8&#45;&gt;Node9</title>
<path fill="none" stroke="midnightblue" d="M1163.74,-372.459C1204.92,-365.047 1255.19,-352.848 1268,-336 1313.7,-275.871 1392.54,-268.5 1207,-124 1167.16,-92.9756 804.206,-93.363 754,-88 745.703,-87.1138 736.848,-86.0256 728.383,-84.9161"/>
<polygon fill="midnightblue" stroke="midnightblue" points="728.693,-81.4264 718.316,-83.5643 727.761,-88.3642 728.693,-81.4264"/>
</g>
<!-- Node10&#45;&gt;Node5 -->
<g id="edge80" class="edge"><title>Node10&#45;&gt;Node5</title>
<path fill="none" stroke="midnightblue" d="M422.084,-372.27C415.157,-363.37 404.356,-349.056 396,-336 368.968,-293.762 341.502,-241.425 327.848,-214.626"/>
<polygon fill="midnightblue" stroke="midnightblue" points="330.959,-213.023 323.321,-205.68 324.713,-216.183 330.959,-213.023"/>
</g>
<!-- Node10&#45;&gt;Node6 -->
<g id="edge12" class="edge"><title>Node10&#45;&gt;Node6</title>
<path fill="none" stroke="midnightblue" d="M379.207,-372.443C332.747,-364.284 261.269,-351.285 190.681,-336.306"/>
<polygon fill="midnightblue" stroke="midnightblue" points="191.24,-332.847 180.729,-334.18 189.777,-339.692 191.24,-332.847"/>
</g>
<!-- Node11 -->
<g id="node11" class="node"><title>Node11</title>
<g id="a_node11"><a xlink:href="exceptions_8hpp.html" target="_top" xlink:title="thrill/io/exceptions.hpp">
<polygon fill="none" stroke="black" points="1145,-310.5 1145,-329.5 1259,-329.5 1259,-310.5 1145,-310.5"/>
<text text-anchor="middle" x="1202" y="-317.5" font-family="Helvetica,sans-Serif" font-size="10.00">thrill/io/exceptions.hpp</text>
</a>
</g>
</g>
<!-- Node10&#45;&gt;Node11 -->
<g id="edge13" class="edge"><title>Node10&#45;&gt;Node11</title>
<path fill="none" stroke="midnightblue" d="M478.531,-377.155C612.49,-366.758 982.111,-338.068 1134.73,-326.221"/>
<polygon fill="midnightblue" stroke="midnightblue" points="1135.2,-329.695 1144.9,-325.432 1134.66,-322.716 1135.2,-329.695"/>
</g>
<!-- Node12 -->
<g id="node12" class="node"><title>Node12</title>
<g id="a_node12"><a xlink:href="pool_8hpp.html" target="_top" xlink:title="thrill/mem/pool.hpp">
<polygon fill="none" stroke="black" points="767.5,-248.5 767.5,-267.5 866.5,-267.5 866.5,-248.5 767.5,-248.5"/>
<text text-anchor="middle" x="817" y="-255.5" font-family="Helvetica,sans-Serif" font-size="10.00">thrill/mem/pool.hpp</text>
</a>
</g>
</g>
<!-- Node10&#45;&gt;Node12 -->
<g id="edge63" class="edge"><title>Node10&#45;&gt;Node12</title>
<path fill="none" stroke="midnightblue" d="M462.474,-372.479C495.744,-363.853 548.145,-349.848 593,-336 661.532,-314.842 740.657,-286.773 784.13,-271.03"/>
<polygon fill="midnightblue" stroke="midnightblue" points="785.413,-274.288 793.618,-267.585 783.024,-267.708 785.413,-274.288"/>
</g>
<!-- Node28 -->
<g id="node28" class="node"><title>Node28</title>
<polygon fill="none" stroke="#bfbfbf" points="1574.5,-68.5 1574.5,-87.5 1615.5,-87.5 1615.5,-68.5 1574.5,-68.5"/>
<text text-anchor="middle" x="1595" y="-75.5" font-family="Helvetica,sans-Serif" font-size="10.00">string</text>
</g>
<!-- Node10&#45;&gt;Node28 -->
<g id="edge81" class="edge"><title>Node10&#45;&gt;Node28</title>
<path fill="none" stroke="midnightblue" d="M478.559,-379.82C647.28,-375.6 1193.04,-360.204 1268,-336 1412.99,-289.183 1447.39,-254.777 1552,-144 1565.6,-129.592 1577.72,-110.396 1585.59,-96.606"/>
<polygon fill="midnightblue" stroke="midnightblue" points="1588.76,-98.1102 1590.54,-87.6656 1582.63,-94.7218 1588.76,-98.1102"/>
</g>
<!-- Node34 -->
<g id="node34" class="node"><title>Node34</title>
<polygon fill="none" stroke="#bfbfbf" points="139.5,-68.5 139.5,-87.5 188.5,-87.5 188.5,-68.5 139.5,-68.5"/>
<text text-anchor="middle" x="164" y="-75.5" font-family="Helvetica,sans-Serif" font-size="10.00">cassert</text>
</g>
<!-- Node10&#45;&gt;Node34 -->
<g id="edge78" class="edge"><title>Node10&#45;&gt;Node34</title>
<path fill="none" stroke="midnightblue" d="M379.497,-381.221C291.18,-380.613 111.262,-374.526 64,-336 36.0027,-313.178 38,-295.121 38,-259 38,-259 38,-259 38,-195 38,-143.959 94.6539,-109.211 131.983,-91.8558"/>
<polygon fill="midnightblue" stroke="midnightblue" points="133.768,-94.8921 141.474,-87.6205 130.915,-88.4998 133.768,-94.8921"/>
</g>
<!-- Node37 -->
<g id="node37" class="node"><title>Node37</title>
<polygon fill="none" stroke="#bfbfbf" points="548,-68.5 548,-87.5 600,-87.5 600,-68.5 548,-68.5"/>
<text text-anchor="middle" x="574" y="-75.5" font-family="Helvetica,sans-Serif" font-size="10.00">memory</text>
</g>
<!-- Node10&#45;&gt;Node37 -->
<g id="edge79" class="edge"><title>Node10&#45;&gt;Node37</title>
<path fill="none" stroke="midnightblue" d="M431.254,-372.492C436.287,-352.723 448,-302.086 448,-259 448,-259 448,-259 448,-195 448,-143.959 504.654,-109.211 541.983,-91.8558"/>
<polygon fill="midnightblue" stroke="midnightblue" points="543.768,-94.8921 551.474,-87.6205 540.915,-88.4998 543.768,-94.8921"/>
</g>
<!-- Node44 -->
<g id="node44" class="node"><title>Node44</title>
<g id="a_node44"><a xlink:href="counting__ptr_8hpp.html" target="_top" xlink:title="tlx/counting_ptr.hpp">
<polygon fill="none" stroke="black" points="280,-124.5 280,-143.5 382,-143.5 382,-124.5 280,-124.5"/>
<text text-anchor="middle" x="331" y="-131.5" font-family="Helvetica,sans-Serif" font-size="10.00">tlx/counting_ptr.hpp</text>
</a>
</g>
</g>
<!-- Node10&#45;&gt;Node44 -->
<g id="edge64" class="edge"><title>Node10&#45;&gt;Node44</title>
<path fill="none" stroke="midnightblue" d="M425.496,-372.181C414.342,-344.109 378.647,-254.303 349,-180 345.448,-171.098 341.493,-161.209 338.198,-152.973"/>
<polygon fill="midnightblue" stroke="midnightblue" points="341.421,-151.608 334.455,-143.625 334.922,-154.21 341.421,-151.608"/>
</g>
<!-- Node45 -->
<g id="node45" class="node"><title>Node45</title>
<g id="a_node45"><a xlink:href="delegate_8hpp.html" target="_top" xlink:title="tlx/delegate.hpp">
<polygon fill="none" stroke="black" points="552,-124.5 552,-143.5 638,-143.5 638,-124.5 552,-124.5"/>
<text text-anchor="middle" x="595" y="-131.5" font-family="Helvetica,sans-Serif" font-size="10.00">tlx/delegate.hpp</text>
</a>
</g>
</g>
<!-- Node10&#45;&gt;Node45 -->
<g id="edge71" class="edge"><title>Node10&#45;&gt;Node45</title>
<path fill="none" stroke="midnightblue" d="M435.451,-372.462C442.195,-363.476 453.026,-348.876 462,-336 508.798,-268.849 561.731,-186.965 584.101,-152.068"/>
<polygon fill="midnightblue" stroke="midnightblue" points="587.127,-153.833 589.569,-143.523 581.231,-150.06 587.127,-153.833"/>
</g>
<!-- Node11&#45;&gt;Node12 -->
<g id="edge14" class="edge"><title>Node11&#45;&gt;Node12</title>
<path fill="none" stroke="midnightblue" d="M1147.25,-310.467C1075.67,-299.312 950.735,-279.842 876.764,-268.314"/>
<polygon fill="midnightblue" stroke="midnightblue" points="877.095,-264.823 866.675,-266.742 876.017,-271.74 877.095,-264.823"/>
</g>
<!-- Node11&#45;&gt;Node28 -->
<g id="edge61" class="edge"><title>Node11&#45;&gt;Node28</title>
<path fill="none" stroke="midnightblue" d="M1222.13,-310.461C1274.84,-287.63 1420.21,-221.603 1527,-144 1547.1,-129.394 1567.33,-109.191 1580.43,-95.2027"/>
<polygon fill="midnightblue" stroke="midnightblue" points="1583.07,-97.5021 1587.27,-87.7738 1577.92,-92.7617 1583.07,-97.5021"/>
</g>
<!-- Node42 -->
<g id="node42" class="node"><title>Node42</title>
<polygon fill="none" stroke="#bfbfbf" points="855,-68.5 855,-87.5 895,-87.5 895,-68.5 855,-68.5"/>
<text text-anchor="middle" x="875" y="-75.5" font-family="Helvetica,sans-Serif" font-size="10.00">utility</text>
</g>
<!-- Node11&#45;&gt;Node42 -->
<g id="edge62" class="edge"><title>Node11&#45;&gt;Node42</title>
<path fill="none" stroke="midnightblue" d="M1211.33,-310.289C1220.65,-300.892 1234.37,-284.979 1240,-268 1256.16,-219.254 1264.42,-174.308 1207,-124 1159.98,-82.8023 989.828,-97.2347 928,-88 920.597,-86.8942 912.63,-85.5979 905.18,-84.3391"/>
<polygon fill="midnightblue" stroke="midnightblue" points="905.552,-80.8518 895.104,-82.608 904.367,-87.7507 905.552,-80.8518"/>
</g>
<!-- Node43 -->
<g id="node43" class="node"><title>Node43</title>
<polygon fill="none" stroke="#bfbfbf" points="1172.5,-248.5 1172.5,-267.5 1231.5,-267.5 1231.5,-248.5 1172.5,-248.5"/>
<text text-anchor="middle" x="1202" y="-255.5" font-family="Helvetica,sans-Serif" font-size="10.00">stdexcept</text>
</g>
<!-- Node11&#45;&gt;Node43 -->
<g id="edge60" class="edge"><title>Node11&#45;&gt;Node43</title>
<path fill="none" stroke="midnightblue" d="M1202,-310.403C1202,-301.938 1202,-288.728 1202,-277.82"/>
<polygon fill="midnightblue" stroke="midnightblue" points="1205.5,-277.581 1202,-267.581 1198.5,-277.581 1205.5,-277.581"/>
</g>
<!-- Node12&#45;&gt;Node2 -->
<g id="edge15" class="edge"><title>Node12&#45;&gt;Node2</title>
<path fill="none" stroke="midnightblue" d="M767.339,-253.486C673.549,-246.691 463.973,-230.756 288,-212 273.357,-210.439 257.71,-208.572 242.777,-206.693"/>
<polygon fill="midnightblue" stroke="midnightblue" points="242.936,-203.185 232.574,-205.394 242.052,-210.129 242.936,-203.185"/>
</g>
<!-- Node12&#45;&gt;Node5 -->
<g id="edge55" class="edge"><title>Node12&#45;&gt;Node5</title>
<path fill="none" stroke="midnightblue" d="M767.243,-253.075C688.289,-246.535 529.563,-232.11 396,-212 381.19,-209.77 364.895,-206.688 351.124,-203.898"/>
<polygon fill="midnightblue" stroke="midnightblue" points="351.652,-200.433 341.151,-201.839 350.238,-207.288 351.652,-200.433"/>
</g>
<!-- Node12&#45;&gt;Node9 -->
<g id="edge57" class="edge"><title>Node12&#45;&gt;Node9</title>
<path fill="none" stroke="midnightblue" d="M803.564,-248.236C791.069,-239.754 772.285,-226.136 758,-212 730.764,-185.048 722.22,-178.23 705,-144 697.6,-129.29 692.898,-111.127 690.163,-97.7439"/>
<polygon fill="midnightblue" stroke="midnightblue" points="693.585,-96.9966 688.313,-87.8065 686.703,-98.2783 693.585,-96.9966"/>
</g>
<!-- Node13 -->
<g id="node13" class="node"><title>Node13</title>
<g id="a_node13"><a xlink:href="thrill_2mem_2allocator__base_8hpp.html" target="_top" xlink:title="thrill/mem/allocator\l_base.hpp">
<polygon fill="none" stroke="black" points="767.5,-181 767.5,-211 866.5,-211 866.5,-181 767.5,-181"/>
<text text-anchor="start" x="775.5" y="-199" font-family="Helvetica,sans-Serif" font-size="10.00">thrill/mem/allocator</text>
<text text-anchor="middle" x="817" y="-188" font-family="Helvetica,sans-Serif" font-size="10.00">_base.hpp</text>
</a>
</g>
</g>
<!-- Node12&#45;&gt;Node13 -->
<g id="edge16" class="edge"><title>Node12&#45;&gt;Node13</title>
<path fill="none" stroke="midnightblue" d="M817,-248.403C817,-241.341 817,-230.975 817,-221.399"/>
<polygon fill="midnightblue" stroke="midnightblue" points="820.5,-221.141 817,-211.141 813.5,-221.141 820.5,-221.141"/>
</g>
<!-- Node12&#45;&gt;Node28 -->
<g id="edge56" class="edge"><title>Node12&#45;&gt;Node28</title>
<path fill="none" stroke="midnightblue" d="M866.835,-257.172C958.283,-256.475 1158.51,-250.236 1322,-212 1403.25,-192.998 1422.91,-182.394 1497,-144 1525.64,-129.16 1556.25,-107.882 1575.5,-93.7635"/>
<polygon fill="midnightblue" stroke="midnightblue" points="1577.79,-96.4201 1583.73,-87.6484 1573.62,-90.8001 1577.79,-96.4201"/>
</g>
<!-- Node29 -->
<g id="node29" class="node"><title>Node29</title>
<polygon fill="none" stroke="#bfbfbf" points="1512,-68.5 1512,-87.5 1556,-87.5 1556,-68.5 1512,-68.5"/>
<text text-anchor="middle" x="1534" y="-75.5" font-family="Helvetica,sans-Serif" font-size="10.00">vector</text>
</g>
<!-- Node12&#45;&gt;Node29 -->
<g id="edge59" class="edge"><title>Node12&#45;&gt;Node29</title>
<path fill="none" stroke="midnightblue" d="M866.852,-256.754C977.959,-254.422 1252.17,-238.69 1456,-144 1481.09,-132.345 1504.73,-110.552 1519.27,-95.431"/>
<polygon fill="midnightblue" stroke="midnightblue" points="1522.1,-97.5246 1526.36,-87.8236 1516.98,-92.751 1522.1,-97.5246"/>
</g>
<!-- Node32 -->
<g id="node32" class="node"><title>Node32</title>
<polygon fill="none" stroke="#bfbfbf" points="324,-68.5 324,-87.5 380,-87.5 380,-68.5 324,-68.5"/>
<text text-anchor="middle" x="352" y="-75.5" font-family="Helvetica,sans-Serif" font-size="10.00">algorithm</text>
</g>
<!-- Node12&#45;&gt;Node32 -->
<g id="edge51" class="edge"><title>Node12&#45;&gt;Node32</title>
<path fill="none" stroke="midnightblue" d="M767.459,-253.109C717.147,-247.959 637.654,-236.488 573,-212 492.701,-181.586 408.705,-122.116 371.6,-94.1803"/>
<polygon fill="midnightblue" stroke="midnightblue" points="373.286,-91.0646 363.208,-87.7943 369.047,-96.6353 373.286,-91.0646"/>
</g>
<!-- Node36 -->
<g id="node36" class="node"><title>Node36</title>
<polygon fill="none" stroke="#bfbfbf" points="763.5,-68.5 763.5,-87.5 812.5,-87.5 812.5,-68.5 763.5,-68.5"/>
<text text-anchor="middle" x="788" y="-75.5" font-family="Helvetica,sans-Serif" font-size="10.00">cstddef</text>
</g>
<!-- Node12&#45;&gt;Node36 -->
<g id="edge52" class="edge"><title>Node12&#45;&gt;Node36</title>
<path fill="none" stroke="midnightblue" d="M838.442,-248.447C873.016,-233.331 939.937,-198.27 967,-144 970.967,-136.045 972.466,-131.01 967,-124 958.078,-112.558 872.184,-94.7819 822.697,-85.3614"/>
<polygon fill="midnightblue" stroke="midnightblue" points="823.206,-81.8958 812.731,-83.4833 821.909,-88.7747 823.206,-81.8958"/>
</g>
<!-- Node12&#45;&gt;Node37 -->
<g id="edge54" class="edge"><title>Node12&#45;&gt;Node37</title>
<path fill="none" stroke="midnightblue" d="M767.384,-252.732C703.049,-244.233 593.157,-218.941 543,-144 532.634,-128.512 544.85,-109.023 556.865,-95.4431"/>
<polygon fill="midnightblue" stroke="midnightblue" points="559.747,-97.4921 564.116,-87.8399 554.682,-92.661 559.747,-97.4921"/>
</g>
<!-- Node41 -->
<g id="node41" class="node"><title>Node41</title>
<polygon fill="none" stroke="#bfbfbf" points="951,-186.5 951,-205.5 997,-205.5 997,-186.5 951,-186.5"/>
<text text-anchor="middle" x="974" y="-193.5" font-family="Helvetica,sans-Serif" font-size="10.00">cstdint</text>
</g>
<!-- Node12&#45;&gt;Node41 -->
<g id="edge53" class="edge"><title>Node12&#45;&gt;Node41</title>
<path fill="none" stroke="midnightblue" d="M840.524,-248.387C864.768,-239.461 903.627,-225.02 937,-212 939.234,-211.129 941.54,-210.219 943.857,-209.297"/>
<polygon fill="midnightblue" stroke="midnightblue" points="945.32,-212.481 953.295,-205.506 942.711,-205.985 945.32,-212.481"/>
</g>
<!-- Node12&#45;&gt;Node42 -->
<g id="edge58" class="edge"><title>Node12&#45;&gt;Node42</title>
<path fill="none" stroke="midnightblue" d="M866.5,-252.096C916.555,-245.993 988.909,-233.638 1006,-212 1031.06,-180.277 1011.51,-152.657 983,-124 961.784,-102.676 928.975,-90.9647 905.084,-84.88"/>
<polygon fill="midnightblue" stroke="midnightblue" points="905.666,-81.4214 895.13,-82.5355 904.061,-88.235 905.666,-81.4214"/>
</g>
<!-- Node13&#45;&gt;Node9 -->
<g id="edge49" class="edge"><title>Node13&#45;&gt;Node9</title>
<path fill="none" stroke="midnightblue" d="M779.92,-180.816C761.189,-172.277 739.086,-159.947 723,-144 709.568,-130.684 699.712,-111.298 693.743,-97.1643"/>
<polygon fill="midnightblue" stroke="midnightblue" points="696.878,-95.575 689.941,-87.5671 690.37,-98.1533 696.878,-95.575"/>
</g>
<!-- Node14 -->
<g id="node14" class="node"><title>Node14</title>
<g id="a_node14"><a xlink:href="thrill_2common_2string_8hpp.html" target="_top" xlink:title="thrill/common/string.hpp">
<polygon fill="none" stroke="black" points="1293.5,-124.5 1293.5,-143.5 1414.5,-143.5 1414.5,-124.5 1293.5,-124.5"/>
<text text-anchor="middle" x="1354" y="-131.5" font-family="Helvetica,sans-Serif" font-size="10.00">thrill/common/string.hpp</text>
</a>
</g>
</g>
<!-- Node13&#45;&gt;Node14 -->
<g id="edge17" class="edge"><title>Node13&#45;&gt;Node14</title>
<path fill="none" stroke="midnightblue" d="M866.562,-188.93C889.508,-186.151 917.136,-182.85 942,-180 1061.75,-166.276 1201.19,-151.245 1283.28,-142.493"/>
<polygon fill="midnightblue" stroke="midnightblue" points="1283.67,-145.971 1293.24,-141.432 1282.93,-139.011 1283.67,-145.971"/>
</g>
<!-- Node13&#45;&gt;Node28 -->
<g id="edge48" class="edge"><title>Node13&#45;&gt;Node28</title>
<path fill="none" stroke="midnightblue" d="M866.516,-188.486C889.452,-185.616 917.086,-182.366 942,-180 1169.98,-158.351 1234.32,-201.47 1456,-144 1499.18,-132.806 1545.34,-108.449 1572.11,-92.936"/>
<polygon fill="midnightblue" stroke="midnightblue" points="1574.21,-95.7563 1581.05,-87.6617 1570.66,-89.7267 1574.21,-95.7563"/>
</g>
<!-- Node13&#45;&gt;Node29 -->
<g id="edge50" class="edge"><title>Node13&#45;&gt;Node29</title>
<path fill="none" stroke="midnightblue" d="M866.521,-188.541C889.459,-185.682 917.091,-182.425 942,-180 1155.37,-159.224 1218.34,-207.809 1423,-144 1441.4,-138.262 1485.47,-110.701 1512.21,-93.3612"/>
<polygon fill="midnightblue" stroke="midnightblue" points="1514.42,-96.1022 1520.88,-87.7067 1510.59,-90.2395 1514.42,-96.1022"/>
</g>
<!-- Node30 -->
<g id="node30" class="node"><title>Node30</title>
<g id="a_node30"><a xlink:href="malloc__tracker_8hpp.html" target="_top" xlink:title="thrill/mem/malloc_tracker.hpp">
<polygon fill="none" stroke="black" points="1053.5,-124.5 1053.5,-143.5 1198.5,-143.5 1198.5,-124.5 1053.5,-124.5"/>
<text text-anchor="middle" x="1126" y="-131.5" font-family="Helvetica,sans-Serif" font-size="10.00">thrill/mem/malloc_tracker.hpp</text>
</a>
</g>
</g>
<!-- Node13&#45;&gt;Node30 -->
<g id="edge33" class="edge"><title>Node13&#45;&gt;Node30</title>
<path fill="none" stroke="midnightblue" d="M866.646,-185.36C922.813,-174.454 1013.99,-156.75 1071.92,-145.501"/>
<polygon fill="midnightblue" stroke="midnightblue" points="1072.83,-148.889 1081.98,-143.547 1071.5,-142.018 1072.83,-148.889"/>
</g>
<!-- Node31 -->
<g id="node31" class="node"><title>Node31</title>
<g id="a_node31"><a xlink:href="mem_2manager_8hpp.html" target="_top" xlink:title="thrill/mem/manager.hpp">
<polygon fill="none" stroke="black" points="104.5,-124.5 104.5,-143.5 223.5,-143.5 223.5,-124.5 104.5,-124.5"/>
<text text-anchor="middle" x="164" y="-131.5" font-family="Helvetica,sans-Serif" font-size="10.00">thrill/mem/manager.hpp</text>
</a>
</g>
</g>
<!-- Node13&#45;&gt;Node31 -->
<g id="edge35" class="edge"><title>Node13&#45;&gt;Node31</title>
<path fill="none" stroke="midnightblue" d="M767.378,-191.187C667.209,-183.367 433.702,-164.514 238,-144 236.697,-143.863 235.381,-143.724 234.055,-143.581"/>
<polygon fill="midnightblue" stroke="midnightblue" points="234.08,-140.062 223.755,-142.44 233.309,-147.02 234.08,-140.062"/>
</g>
<!-- Node33 -->
<g id="node33" class="node"><title>Node33</title>
<polygon fill="none" stroke="#bfbfbf" points="229,-68.5 229,-87.5 275,-87.5 275,-68.5 229,-68.5"/>
<text text-anchor="middle" x="252" y="-75.5" font-family="Helvetica,sans-Serif" font-size="10.00">atomic</text>
</g>
<!-- Node13&#45;&gt;Node33 -->
<g id="edge43" class="edge"><title>Node13&#45;&gt;Node33</title>
<path fill="none" stroke="midnightblue" d="M767.443,-193.51C640.124,-189.245 308.867,-175.239 271,-144 257.558,-132.911 253.312,-112.873 252.12,-97.9666"/>
<polygon fill="midnightblue" stroke="midnightblue" points="255.61,-97.6482 251.701,-87.8006 248.615,-97.9361 255.61,-97.6482"/>
</g>
<!-- Node13&#45;&gt;Node34 -->
<g id="edge44" class="edge"><title>Node13&#45;&gt;Node34</title>
<path fill="none" stroke="midnightblue" d="M767.485,-193.338C608.19,-187.752 117.943,-168.621 95,-144 77.3133,-125.02 107.573,-104.768 133.437,-92.0072"/>
<polygon fill="midnightblue" stroke="midnightblue" points="135.112,-95.0868 142.669,-87.6612 132.131,-88.7534 135.112,-95.0868"/>
</g>
<!-- Node35 -->
<g id="node35" class="node"><title>Node35</title>
<g id="a_node35"><a xlink:href="extlib_2tlx_2tlx_2allocator__base_8hpp.html" target="_top" xlink:title="tlx/allocator_base.hpp">
<polygon fill="none" stroke="black" points="732,-124.5 732,-143.5 844,-143.5 844,-124.5 732,-124.5"/>
<text text-anchor="middle" x="788" y="-131.5" font-family="Helvetica,sans-Serif" font-size="10.00">tlx/allocator_base.hpp</text>
</a>
</g>
</g>
<!-- Node13&#45;&gt;Node35 -->
<g id="edge39" class="edge"><title>Node13&#45;&gt;Node35</title>
<path fill="none" stroke="midnightblue" d="M810.127,-180.781C806.087,-172.422 800.942,-161.777 796.631,-152.856"/>
<polygon fill="midnightblue" stroke="midnightblue" points="799.723,-151.211 792.22,-143.731 793.42,-154.257 799.723,-151.211"/>
</g>
<!-- Node38 -->
<g id="node38" class="node"><title>Node38</title>
<polygon fill="none" stroke="#bfbfbf" points="862.5,-124.5 862.5,-143.5 905.5,-143.5 905.5,-124.5 862.5,-124.5"/>
<text text-anchor="middle" x="884" y="-131.5" font-family="Helvetica,sans-Serif" font-size="10.00">deque</text>
</g>
<!-- Node13&#45;&gt;Node38 -->
<g id="edge45" class="edge"><title>Node13&#45;&gt;Node38</title>
<path fill="none" stroke="midnightblue" d="M832.878,-180.781C843.015,-171.703 856.162,-159.929 866.585,-150.595"/>
<polygon fill="midnightblue" stroke="midnightblue" points="869.136,-153.009 874.251,-143.731 864.466,-147.794 869.136,-153.009"/>
</g>
<!-- Node39 -->
<g id="node39" class="node"><title>Node39</title>
<polygon fill="none" stroke="#bfbfbf" points="420.5,-68.5 420.5,-87.5 465.5,-87.5 465.5,-68.5 420.5,-68.5"/>
<text text-anchor="middle" x="443" y="-75.5" font-family="Helvetica,sans-Serif" font-size="10.00">iosfwd</text>
</g>
<!-- Node13&#45;&gt;Node39 -->
<g id="edge46" class="edge"><title>Node13&#45;&gt;Node39</title>
<path fill="none" stroke="midnightblue" d="M767.378,-191.621C711.213,-186.478 617.81,-173.898 543,-144 511.986,-131.606 480.356,-109.026 461.197,-94.016"/>
<polygon fill="midnightblue" stroke="midnightblue" points="463.315,-91.2283 453.32,-87.7161 458.943,-96.6951 463.315,-91.2283"/>
</g>
<!-- Node40 -->
<g id="node40" class="node"><title>Node40</title>
<polygon fill="none" stroke="#bfbfbf" points="923.5,-124.5 923.5,-143.5 958.5,-143.5 958.5,-124.5 923.5,-124.5"/>
<text text-anchor="middle" x="941" y="-131.5" font-family="Helvetica,sans-Serif" font-size="10.00">new</text>
</g>
<!-- Node13&#45;&gt;Node40 -->
<g id="edge47" class="edge"><title>Node13&#45;&gt;Node40</title>
<path fill="none" stroke="midnightblue" d="M846.072,-180.933C866.619,-170.991 893.963,-157.76 914.025,-148.053"/>
<polygon fill="midnightblue" stroke="midnightblue" points="915.749,-151.106 923.227,-143.6 912.701,-144.805 915.749,-151.106"/>
</g>
<!-- Node15 -->
<g id="node15" class="node"><title>Node15</title>
<g id="a_node15"><a xlink:href="define_8hpp.html" target="_top" xlink:title="tlx/define.hpp">
<polygon fill="none" stroke="black" points="1000.5,-68.5 1000.5,-87.5 1075.5,-87.5 1075.5,-68.5 1000.5,-68.5"/>
<text text-anchor="middle" x="1038" y="-75.5" font-family="Helvetica,sans-Serif" font-size="10.00">tlx/define.hpp</text>
</a>
</g>
</g>
<!-- Node14&#45;&gt;Node15 -->
<g id="edge18" class="edge"><title>Node14&#45;&gt;Node15</title>
<path fill="none" stroke="midnightblue" d="M1300.85,-124.487C1248.67,-116.042 1166.53,-102.524 1085.56,-88.0664"/>
<polygon fill="midnightblue" stroke="midnightblue" points="1086.16,-84.6172 1075.7,-86.2989 1084.92,-91.5075 1086.16,-84.6172"/>
</g>
<!-- Node21 -->
<g id="node21" class="node"><title>Node21</title>
<g id="a_node21"><a xlink:href="unused_8hpp.html" target="_top" xlink:title="tlx/unused.hpp">
<polygon fill="none" stroke="black" points="1094,-68.5 1094,-87.5 1174,-87.5 1174,-68.5 1094,-68.5"/>
<text text-anchor="middle" x="1134" y="-75.5" font-family="Helvetica,sans-Serif" font-size="10.00">tlx/unused.hpp</text>
</a>
</g>
</g>
<!-- Node14&#45;&gt;Node21 -->
<g id="edge24" class="edge"><title>Node14&#45;&gt;Node21</title>
<path fill="none" stroke="midnightblue" d="M1319.14,-124.444C1281.08,-115.102 1220.04,-100.119 1178.54,-89.9326"/>
<polygon fill="midnightblue" stroke="midnightblue" points="1179.24,-86.5012 1168.7,-87.5164 1177.57,-93.2994 1179.24,-86.5012"/>
</g>
<!-- Node22 -->
<g id="node22" class="node"><title>Node22</title>
<polygon fill="none" stroke="#bfbfbf" points="1192,-68.5 1192,-87.5 1230,-87.5 1230,-68.5 1192,-68.5"/>
<text text-anchor="middle" x="1211" y="-75.5" font-family="Helvetica,sans-Serif" font-size="10.00">array</text>
</g>
<!-- Node14&#45;&gt;Node22 -->
<g id="edge25" class="edge"><title>Node14&#45;&gt;Node22</title>
<path fill="none" stroke="midnightblue" d="M1331.34,-124.444C1306.62,-115.108 1266.98,-100.139 1240,-89.9523"/>
<polygon fill="midnightblue" stroke="midnightblue" points="1240.93,-86.5626 1230.34,-86.3042 1238.46,-93.1113 1240.93,-86.5626"/>
</g>
<!-- Node23 -->
<g id="node23" class="node"><title>Node23</title>
<polygon fill="none" stroke="#bfbfbf" points="1248.5,-68.5 1248.5,-87.5 1297.5,-87.5 1297.5,-68.5 1248.5,-68.5"/>
<text text-anchor="middle" x="1273" y="-75.5" font-family="Helvetica,sans-Serif" font-size="10.00">cstdarg</text>
</g>
<!-- Node14&#45;&gt;Node23 -->
<g id="edge26" class="edge"><title>Node14&#45;&gt;Node23</title>
<path fill="none" stroke="midnightblue" d="M1340.99,-124.324C1328.47,-115.979 1309.32,-103.212 1294.53,-93.3524"/>
<polygon fill="midnightblue" stroke="midnightblue" points="1296.24,-90.2894 1285.98,-87.6545 1292.36,-96.1137 1296.24,-90.2894"/>
</g>
<!-- Node24 -->
<g id="node24" class="node"><title>Node24</title>
<polygon fill="none" stroke="#bfbfbf" points="937.5,-68.5 937.5,-87.5 982.5,-87.5 982.5,-68.5 937.5,-68.5"/>
<text text-anchor="middle" x="960" y="-75.5" font-family="Helvetica,sans-Serif" font-size="10.00">cstdlib</text>
</g>
<!-- Node14&#45;&gt;Node24 -->
<g id="edge27" class="edge"><title>Node14&#45;&gt;Node24</title>
<path fill="none" stroke="midnightblue" d="M1293.13,-125.579C1201.98,-114.451 1036.65,-94.2025 992.594,-87.6653"/>
<polygon fill="midnightblue" stroke="midnightblue" points="993.02,-84.1884 982.583,-86.007 991.876,-91.0943 993.02,-84.1884"/>
</g>
<!-- Node25 -->
<g id="node25" class="node"><title>Node25</title>
<polygon fill="none" stroke="#bfbfbf" points="1316,-68.5 1316,-87.5 1356,-87.5 1356,-68.5 1316,-68.5"/>
<text text-anchor="middle" x="1336" y="-75.5" font-family="Helvetica,sans-Serif" font-size="10.00">limits</text>
</g>
<!-- Node14&#45;&gt;Node25 -->
<g id="edge28" class="edge"><title>Node14&#45;&gt;Node25</title>
<path fill="none" stroke="midnightblue" d="M1351.03,-124.083C1348.62,-116.849 1345.14,-106.409 1342.13,-97.3968"/>
<polygon fill="midnightblue" stroke="midnightblue" points="1345.4,-96.1311 1338.92,-87.7511 1338.76,-98.3447 1345.4,-96.1311"/>
</g>
<!-- Node26 -->
<g id="node26" class="node"><title>Node26</title>
<polygon fill="none" stroke="#bfbfbf" points="1374.5,-68.5 1374.5,-87.5 1423.5,-87.5 1423.5,-68.5 1374.5,-68.5"/>
<text text-anchor="middle" x="1399" y="-75.5" font-family="Helvetica,sans-Serif" font-size="10.00">random</text>
</g>
<!-- Node14&#45;&gt;Node26 -->
<g id="edge29" class="edge"><title>Node14&#45;&gt;Node26</title>
<path fill="none" stroke="midnightblue" d="M1361.43,-124.083C1367.85,-116.377 1377.31,-105.033 1385.12,-95.6531"/>
<polygon fill="midnightblue" stroke="midnightblue" points="1387.99,-97.674 1391.71,-87.7511 1382.62,-93.1927 1387.99,-97.674"/>
</g>
<!-- Node27 -->
<g id="node27" class="node"><title>Node27</title>
<polygon fill="none" stroke="#bfbfbf" points="1442,-68.5 1442,-87.5 1494,-87.5 1494,-68.5 1442,-68.5"/>
<text text-anchor="middle" x="1468" y="-75.5" font-family="Helvetica,sans-Serif" font-size="10.00">sstream</text>
</g>
<!-- Node14&#45;&gt;Node27 -->
<g id="edge30" class="edge"><title>Node14&#45;&gt;Node27</title>
<path fill="none" stroke="midnightblue" d="M1372.06,-124.444C1390.57,-115.675 1419.58,-101.935 1440.86,-91.8579"/>
<polygon fill="midnightblue" stroke="midnightblue" points="1442.48,-94.9604 1450.02,-87.5164 1439.49,-88.6343 1442.48,-94.9604"/>
</g>
<!-- Node14&#45;&gt;Node28 -->
<g id="edge31" class="edge"><title>Node14&#45;&gt;Node28</title>
<path fill="none" stroke="midnightblue" d="M1398.46,-124.433C1441.11,-115.987 1507.24,-102.303 1564,-88 1564.21,-87.9469 1564.42,-87.8934 1564.63,-87.8395"/>
<polygon fill="midnightblue" stroke="midnightblue" points="1565.64,-91.1942 1574.38,-85.2094 1563.81,-84.436 1565.64,-91.1942"/>
</g>
<!-- Node14&#45;&gt;Node29 -->
<g id="edge32" class="edge"><title>Node14&#45;&gt;Node29</title>
<path fill="none" stroke="midnightblue" d="M1382.52,-124.444C1415.04,-114.687 1468.08,-98.7764 1501.99,-88.6036"/>
<polygon fill="midnightblue" stroke="midnightblue" points="1503.28,-91.8698 1511.85,-85.6439 1501.27,-85.165 1503.28,-91.8698"/>
</g>
<!-- Node16 -->
<g id="node16" class="node"><title>Node16</title>
<g id="a_node16"><a xlink:href="attribute__always__inline_8hpp.html" target="_top" xlink:title="tlx/define/attribute\l_always_inline.hpp">
<polygon fill="none" stroke="black" points="760.5,-1 760.5,-31 859.5,-31 859.5,-1 760.5,-1"/>
<text text-anchor="start" x="768.5" y="-19" font-family="Helvetica,sans-Serif" font-size="10.00">tlx/define/attribute</text>
<text text-anchor="middle" x="810" y="-8" font-family="Helvetica,sans-Serif" font-size="10.00">_always_inline.hpp</text>
</a>
</g>
</g>
<!-- Node15&#45;&gt;Node16 -->
<g id="edge19" class="edge"><title>Node15&#45;&gt;Node16</title>
<path fill="none" stroke="midnightblue" d="M1005.33,-68.4035C970.035,-59.1144 913.028,-44.1128 869.689,-32.7076"/>
<polygon fill="midnightblue" stroke="midnightblue" points="870.388,-29.2725 859.826,-30.1122 868.606,-36.042 870.388,-29.2725"/>
</g>
<!-- Node17 -->
<g id="node17" class="node"><title>Node17</title>
<g id="a_node17"><a xlink:href="attribute__format__printf_8hpp.html" target="_top" xlink:title="tlx/define/attribute\l_format_printf.hpp">
<polygon fill="none" stroke="black" points="877.5,-1 877.5,-31 972.5,-31 972.5,-1 877.5,-1"/>
<text text-anchor="start" x="885.5" y="-19" font-family="Helvetica,sans-Serif" font-size="10.00">tlx/define/attribute</text>
<text text-anchor="middle" x="925" y="-8" font-family="Helvetica,sans-Serif" font-size="10.00">_format_printf.hpp</text>
</a>
</g>
</g>
<!-- Node15&#45;&gt;Node17 -->
<g id="edge20" class="edge"><title>Node15&#45;&gt;Node17</title>
<path fill="none" stroke="midnightblue" d="M1021.81,-68.4035C1005.93,-59.9735 981.197,-46.8389 960.702,-35.957"/>
<polygon fill="midnightblue" stroke="midnightblue" points="962.105,-32.7392 951.632,-31.1408 958.823,-38.9218 962.105,-32.7392"/>
</g>
<!-- Node18 -->
<g id="node18" class="node"><title>Node18</title>
<g id="a_node18"><a xlink:href="attribute__packed_8hpp.html" target="_top" xlink:title="tlx/define/attribute\l_packed.hpp">
<polygon fill="none" stroke="black" points="990.5,-1 990.5,-31 1085.5,-31 1085.5,-1 990.5,-1"/>
<text text-anchor="start" x="998.5" y="-19" font-family="Helvetica,sans-Serif" font-size="10.00">tlx/define/attribute</text>
<text text-anchor="middle" x="1038" y="-8" font-family="Helvetica,sans-Serif" font-size="10.00">_packed.hpp</text>
</a>
</g>
</g>
<!-- Node15&#45;&gt;Node18 -->
<g id="edge21" class="edge"><title>Node15&#45;&gt;Node18</title>
<path fill="none" stroke="midnightblue" d="M1038,-68.4035C1038,-61.3405 1038,-50.975 1038,-41.399"/>
<polygon fill="midnightblue" stroke="midnightblue" points="1041.5,-41.1408 1038,-31.1408 1034.5,-41.1408 1041.5,-41.1408"/>
</g>
<!-- Node19 -->
<g id="node19" class="node"><title>Node19</title>
<g id="a_node19"><a xlink:href="attribute__warn__unused__result_8hpp.html" target="_top" xlink:title="tlx/define/attribute\l_warn_unused_result.hpp">
<polygon fill="none" stroke="black" points="1104,-1 1104,-31 1232,-31 1232,-1 1104,-1"/>
<text text-anchor="start" x="1112" y="-19" font-family="Helvetica,sans-Serif" font-size="10.00">tlx/define/attribute</text>
<text text-anchor="middle" x="1168" y="-8" font-family="Helvetica,sans-Serif" font-size="10.00">_warn_unused_result.hpp</text>
</a>
</g>
</g>
<!-- Node15&#45;&gt;Node19 -->
<g id="edge22" class="edge"><title>Node15&#45;&gt;Node19</title>
<path fill="none" stroke="midnightblue" d="M1056.63,-68.4035C1075.22,-59.8216 1104.38,-46.364 1128.2,-35.3711"/>
<polygon fill="midnightblue" stroke="midnightblue" points="1129.75,-38.5093 1137.36,-31.1408 1126.82,-32.1536 1129.75,-38.5093"/>
</g>
<!-- Node20 -->
<g id="node20" class="node"><title>Node20</title>
<g id="a_node20"><a xlink:href="likely_8hpp.html" target="_top" xlink:title="tlx/define/likely.hpp">
<polygon fill="none" stroke="black" points="1250.5,-6.5 1250.5,-25.5 1351.5,-25.5 1351.5,-6.5 1250.5,-6.5"/>
<text text-anchor="middle" x="1301" y="-13.5" font-family="Helvetica,sans-Serif" font-size="10.00">tlx/define/likely.hpp</text>
</a>
</g>
</g>
<!-- Node15&#45;&gt;Node20 -->
<g id="edge23" class="edge"><title>Node15&#45;&gt;Node20</title>
<path fill="none" stroke="midnightblue" d="M1075.86,-68.9257C1116.68,-60.1442 1183.55,-45.5453 1241,-32 1246.36,-30.7371 1251.97,-29.3787 1257.53,-28.0136"/>
<polygon fill="midnightblue" stroke="midnightblue" points="1258.54,-31.3702 1267.4,-25.5685 1256.85,-24.5755 1258.54,-31.3702"/>
</g>
<!-- Node30&#45;&gt;Node24 -->
<g id="edge34" class="edge"><title>Node30&#45;&gt;Node24</title>
<path fill="none" stroke="midnightblue" d="M1099.7,-124.444C1070.58,-114.971 1023.62,-99.6961 992.293,-89.5048"/>
<polygon fill="midnightblue" stroke="midnightblue" points="993.305,-86.1536 982.713,-86.3884 991.139,-92.8103 993.305,-86.1536"/>
</g>
<!-- Node31&#45;&gt;Node32 -->
<g id="edge36" class="edge"><title>Node31&#45;&gt;Node32</title>
<path fill="none" stroke="midnightblue" d="M193.789,-124.444C226.3,-115.105 278.441,-100.129 313.905,-89.9421"/>
<polygon fill="midnightblue" stroke="midnightblue" points="315.24,-93.2002 323.885,-87.0755 313.308,-86.4723 315.24,-93.2002"/>
</g>
<!-- Node31&#45;&gt;Node33 -->
<g id="edge37" class="edge"><title>Node31&#45;&gt;Node33</title>
<path fill="none" stroke="midnightblue" d="M178.139,-124.324C191.866,-115.9 212.936,-102.971 229.064,-93.0741"/>
<polygon fill="midnightblue" stroke="midnightblue" points="231.204,-95.8678 237.896,-87.6545 227.543,-89.9016 231.204,-95.8678"/>
</g>
<!-- Node31&#45;&gt;Node34 -->
<g id="edge38" class="edge"><title>Node31&#45;&gt;Node34</title>
<path fill="none" stroke="midnightblue" d="M164,-124.083C164,-117.006 164,-106.861 164,-97.9865"/>
<polygon fill="midnightblue" stroke="midnightblue" points="167.5,-97.751 164,-87.7511 160.5,-97.7511 167.5,-97.751"/>
</g>
<!-- Node35&#45;&gt;Node9 -->
<g id="edge42" class="edge"><title>Node35&#45;&gt;Node9</title>
<path fill="none" stroke="midnightblue" d="M771.773,-124.324C755.649,-115.703 730.7,-102.364 712.036,-92.3855"/>
<polygon fill="midnightblue" stroke="midnightblue" points="713.656,-89.283 703.187,-87.6545 710.356,-95.456 713.656,-89.283"/>
</g>
<!-- Node35&#45;&gt;Node36 -->
<g id="edge40" class="edge"><title>Node35&#45;&gt;Node36</title>
<path fill="none" stroke="midnightblue" d="M788,-124.083C788,-117.006 788,-106.861 788,-97.9865"/>
<polygon fill="midnightblue" stroke="midnightblue" points="791.5,-97.751 788,-87.7511 784.5,-97.7511 791.5,-97.751"/>
</g>
<!-- Node35&#45;&gt;Node37 -->
<g id="edge41" class="edge"><title>Node35&#45;&gt;Node37</title>
<path fill="none" stroke="midnightblue" d="M754.091,-124.444C714.735,-114.513 650.109,-98.2051 609.917,-88.0632"/>
<polygon fill="midnightblue" stroke="midnightblue" points="610.562,-84.6162 600.009,-85.5631 608.849,-91.4034 610.562,-84.6162"/>
</g>
<!-- Node44&#45;&gt;Node9 -->
<g id="edge69" class="edge"><title>Node44&#45;&gt;Node9</title>
<path fill="none" stroke="midnightblue" d="M382.006,-125.263C452.997,-114.495 580.222,-95.1966 645.648,-85.2724"/>
<polygon fill="midnightblue" stroke="midnightblue" points="646.238,-88.7231 655.6,-83.7629 645.188,-81.8023 646.238,-88.7231"/>
</g>
<!-- Node44&#45;&gt;Node32 -->
<g id="edge65" class="edge"><title>Node44&#45;&gt;Node32</title>
<path fill="none" stroke="midnightblue" d="M334.468,-124.083C337.312,-116.77 341.429,-106.181 344.96,-97.1034"/>
<polygon fill="midnightblue" stroke="midnightblue" points="348.234,-98.3397 348.597,-87.7511 341.71,-95.8025 348.234,-98.3397"/>
</g>
<!-- Node44&#45;&gt;Node33 -->
<g id="edge66" class="edge"><title>Node44&#45;&gt;Node33</title>
<path fill="none" stroke="midnightblue" d="M318.307,-124.324C306.099,-115.979 287.422,-103.212 272.997,-93.3524"/>
<polygon fill="midnightblue" stroke="midnightblue" points="274.892,-90.4082 264.661,-87.6545 270.942,-96.1871 274.892,-90.4082"/>
</g>
<!-- Node44&#45;&gt;Node34 -->
<g id="edge67" class="edge"><title>Node44&#45;&gt;Node34</title>
<path fill="none" stroke="midnightblue" d="M304.538,-124.444C275.824,-115.159 229.871,-100.3 198.38,-90.117"/>
<polygon fill="midnightblue" stroke="midnightblue" points="199.296,-86.7348 188.705,-86.9883 197.143,-93.3953 199.296,-86.7348"/>
</g>
<!-- Node44&#45;&gt;Node39 -->
<g id="edge68" class="edge"><title>Node44&#45;&gt;Node39</title>
<path fill="none" stroke="midnightblue" d="M348.995,-124.324C367.038,-115.625 395.047,-102.12 415.803,-92.113"/>
<polygon fill="midnightblue" stroke="midnightblue" points="417.562,-95.1502 425.05,-87.6545 414.522,-88.8449 417.562,-95.1502"/>
</g>
<!-- Node44&#45;&gt;Node42 -->
<g id="edge70" class="edge"><title>Node44&#45;&gt;Node42</title>
<path fill="none" stroke="midnightblue" d="M382.28,-129.539C471.617,-123.23 661.506,-108.587 821,-88 828.712,-87.0046 837.01,-85.7263 844.731,-84.4475"/>
<polygon fill="midnightblue" stroke="midnightblue" points="845.526,-87.8625 854.794,-82.7299 844.348,-80.9623 845.526,-87.8625"/>
</g>
<!-- Node45&#45;&gt;Node9 -->
<g id="edge76" class="edge"><title>Node45&#45;&gt;Node9</title>
<path fill="none" stroke="midnightblue" d="M609.781,-124.324C624.267,-115.822 646.573,-102.729 663.493,-92.7975"/>
<polygon fill="midnightblue" stroke="midnightblue" points="665.403,-95.735 672.255,-87.6545 661.859,-89.6981 665.403,-95.735"/>
</g>
<!-- Node45&#45;&gt;Node32 -->
<g id="edge72" class="edge"><title>Node45&#45;&gt;Node32</title>
<path fill="none" stroke="midnightblue" d="M556.496,-124.444C510.931,-114.318 435.535,-97.5632 390.132,-87.4738"/>
<polygon fill="midnightblue" stroke="midnightblue" points="390.618,-83.9965 380.097,-85.2437 389.099,-90.8298 390.618,-83.9965"/>
</g>
<!-- Node45&#45;&gt;Node34 -->
<g id="edge73" class="edge"><title>Node45&#45;&gt;Node34</title>
<path fill="none" stroke="midnightblue" d="M551.903,-128.394C482.087,-120.806 339.968,-104.832 220,-88 213.055,-87.0256 205.64,-85.8969 198.554,-84.775"/>
<polygon fill="midnightblue" stroke="midnightblue" points="198.931,-81.2906 188.501,-83.1551 197.817,-88.2014 198.931,-81.2906"/>
</g>
<!-- Node45&#45;&gt;Node36 -->
<g id="edge74" class="edge"><title>Node45&#45;&gt;Node36</title>
<path fill="none" stroke="midnightblue" d="M625.581,-124.444C660.461,-114.685 717.348,-98.768 753.705,-88.5956"/>
<polygon fill="midnightblue" stroke="midnightblue" points="754.692,-91.9537 763.38,-85.8886 752.806,-85.2126 754.692,-91.9537"/>
</g>
<!-- Node45&#45;&gt;Node37 -->
<g id="edge75" class="edge"><title>Node45&#45;&gt;Node37</title>
<path fill="none" stroke="midnightblue" d="M591.532,-124.083C588.688,-116.77 584.571,-106.181 581.04,-97.1034"/>
<polygon fill="midnightblue" stroke="midnightblue" points="584.29,-95.8025 577.403,-87.7511 577.766,-98.3397 584.29,-95.8025"/>
</g>
<!-- Node45&#45;&gt;Node42 -->
<g id="edge77" class="edge"><title>Node45&#45;&gt;Node42</title>
<path fill="none" stroke="midnightblue" d="M638.136,-124.681C695.423,-113.633 795.15,-94.3996 844.933,-84.7987"/>
<polygon fill="midnightblue" stroke="midnightblue" points="845.608,-88.233 854.765,-82.9026 844.283,-81.3596 845.608,-88.233"/>
</g>
</g>
</svg>
