<?xml version="1.0" encoding="UTF-8" standalone="no"?>
<!DOCTYPE svg PUBLIC "-//W3C//DTD SVG 1.1//EN"
 "http://www.w3.org/Graphics/SVG/1.1/DTD/svg11.dtd">
<!-- Generated by graphviz version 2.40.1 (20161225.0304)
 -->
<!-- Title: extlib/foxxll/foxxll/io/request_with_waiters.hpp Pages: 1 -->
<svg width="1037pt" height="274pt"
 viewBox="0.00 0.00 1036.50 274.00" xmlns="http://www.w3.org/2000/svg" xmlns:xlink="http://www.w3.org/1999/xlink">
<g id="graph0" class="graph" transform="scale(1 1) rotate(0) translate(4 270)">
<title>extlib/foxxll/foxxll/io/request_with_waiters.hpp</title>
<!-- Node0 -->
<g id="node1" class="node">
<title>Node0</title>
<polygon fill="#bfbfbf" stroke="#000000" points="83.5,-235.5 83.5,-265.5 240.5,-265.5 240.5,-235.5 83.5,-235.5"/>
<text text-anchor="start" x="91.5" y="-253.5" font-family="Helvetica,sans-Serif" font-size="10.00" fill="#000000">extlib/foxxll/foxxll</text>
<text text-anchor="middle" x="162" y="-242.5" font-family="Helvetica,sans-Serif" font-size="10.00" fill="#000000">/io/request_with_waiters.hpp</text>
</g>
<!-- Node1 -->
<g id="node2" class="node">
<title>Node1</title>
<polygon fill="none" stroke="#bfbfbf" points="0,-112.5 0,-131.5 48,-131.5 48,-112.5 0,-112.5"/>
<text text-anchor="middle" x="24" y="-119.5" font-family="Helvetica,sans-Serif" font-size="10.00" fill="#000000">mutex</text>
</g>
<!-- Node0&#45;&gt;Node1 -->
<g id="edge1" class="edge">
<title>Node0&#45;&gt;Node1</title>
<path fill="none" stroke="#191970" d="M104.9851,-235.4834C84.5867,-227.5873 62.9661,-215.916 48,-199 33.8434,-182.999 28.0363,-158.719 25.6547,-141.7128"/>
<polygon fill="#191970" stroke="#191970" points="29.1296,-141.2925 24.531,-131.7477 22.1737,-142.0769 29.1296,-141.2925"/>
</g>
<!-- Node2 -->
<g id="node3" class="node">
<title>Node2</title>
<polygon fill="none" stroke="#bfbfbf" points="193,-174 193,-193 225,-193 225,-174 193,-174"/>
<text text-anchor="middle" x="209" y="-181" font-family="Helvetica,sans-Serif" font-size="10.00" fill="#000000">set</text>
</g>
<!-- Node0&#45;&gt;Node2 -->
<g id="edge2" class="edge">
<title>Node0&#45;&gt;Node2</title>
<path fill="none" stroke="#191970" d="M172.665,-235.2967C179.7035,-225.2631 188.9577,-212.0709 196.3652,-201.5113"/>
<polygon fill="#191970" stroke="#191970" points="199.4197,-203.2516 202.2973,-193.055 193.6891,-199.2316 199.4197,-203.2516"/>
</g>
<!-- Node3 -->
<g id="node4" class="node">
<title>Node3</title>
<g id="a_node4"><a xlink:href="onoff__switch_8hpp.html" target="_top" xlink:title="foxxll/common/onoff\l_switch.hpp">
<polygon fill="none" stroke="#000000" points="57,-168.5 57,-198.5 175,-198.5 175,-168.5 57,-168.5"/>
<text text-anchor="start" x="65" y="-186.5" font-family="Helvetica,sans-Serif" font-size="10.00" fill="#000000">foxxll/common/onoff</text>
<text text-anchor="middle" x="116" y="-175.5" font-family="Helvetica,sans-Serif" font-size="10.00" fill="#000000">_switch.hpp</text>
</a>
</g>
</g>
<!-- Node0&#45;&gt;Node3 -->
<g id="edge3" class="edge">
<title>Node0&#45;&gt;Node3</title>
<path fill="none" stroke="#191970" d="M151.5619,-235.2967C145.8569,-226.9873 138.6646,-216.5115 132.2433,-207.1587"/>
<polygon fill="#191970" stroke="#191970" points="134.9423,-204.9062 126.3968,-198.6432 129.1715,-208.8682 134.9423,-204.9062"/>
</g>
<!-- Node5 -->
<g id="node6" class="node">
<title>Node5</title>
<g id="a_node6"><a xlink:href="request_8hpp.html" target="_top" xlink:title="foxxll/io/request.hpp">
<polygon fill="none" stroke="#000000" points="449.5,-174 449.5,-193 566.5,-193 566.5,-174 449.5,-174"/>
<text text-anchor="middle" x="508" y="-181" font-family="Helvetica,sans-Serif" font-size="10.00" fill="#000000">foxxll/io/request.hpp</text>
</a>
</g>
</g>
<!-- Node0&#45;&gt;Node5 -->
<g id="edge6" class="edge">
<title>Node0&#45;&gt;Node5</title>
<path fill="none" stroke="#191970" d="M239.6492,-235.4639C302.9908,-223.1983 391.1332,-206.1303 448.8565,-194.9526"/>
<polygon fill="#191970" stroke="#191970" points="449.7608,-198.3426 458.913,-193.0053 448.43,-191.4703 449.7608,-198.3426"/>
</g>
<!-- Node3&#45;&gt;Node1 -->
<g id="edge5" class="edge">
<title>Node3&#45;&gt;Node1</title>
<path fill="none" stroke="#191970" d="M93.2584,-168.2977C79.2033,-158.9022 61.217,-146.8787 47.0964,-137.4395"/>
<polygon fill="#191970" stroke="#191970" points="48.7143,-134.311 38.4556,-131.6633 44.8241,-140.1305 48.7143,-134.311"/>
</g>
<!-- Node4 -->
<g id="node5" class="node">
<title>Node4</title>
<polygon fill="none" stroke="#bfbfbf" points="66.5,-112.5 66.5,-131.5 173.5,-131.5 173.5,-112.5 66.5,-112.5"/>
<text text-anchor="middle" x="120" y="-119.5" font-family="Helvetica,sans-Serif" font-size="10.00" fill="#000000">condition_variable</text>
</g>
<!-- Node3&#45;&gt;Node4 -->
<g id="edge4" class="edge">
<title>Node3&#45;&gt;Node4</title>
<path fill="none" stroke="#191970" d="M116.9888,-168.2977C117.5035,-160.3834 118.1396,-150.6043 118.6943,-142.0759"/>
<polygon fill="#191970" stroke="#191970" points="122.203,-142.053 119.3595,-131.8469 115.2178,-141.5986 122.203,-142.053"/>
</g>
<!-- Node6 -->
<g id="node7" class="node">
<title>Node6</title>
<polygon fill="none" stroke="#bfbfbf" points="302,-56.5 302,-75.5 354,-75.5 354,-56.5 302,-56.5"/>
<text text-anchor="middle" x="328" y="-63.5" font-family="Helvetica,sans-Serif" font-size="10.00" fill="#000000">cassert</text>
</g>
<!-- Node5&#45;&gt;Node6 -->
<g id="edge7" class="edge">
<title>Node5&#45;&gt;Node6</title>
<path fill="none" stroke="#191970" d="M449.2675,-176.7423C416.8929,-170.1996 378.0951,-157.3261 352,-132 339.4503,-119.8201 333.4293,-100.5691 330.5608,-85.9946"/>
<polygon fill="#191970" stroke="#191970" points="333.9878,-85.2629 328.9258,-75.9556 327.0788,-86.3882 333.9878,-85.2629"/>
</g>
<!-- Node7 -->
<g id="node8" class="node">
<title>Node7</title>
<polygon fill="none" stroke="#bfbfbf" points="475.5,-112.5 475.5,-131.5 540.5,-131.5 540.5,-112.5 475.5,-112.5"/>
<text text-anchor="middle" x="508" y="-119.5" font-family="Helvetica,sans-Serif" font-size="10.00" fill="#000000">functional</text>
</g>
<!-- Node5&#45;&gt;Node7 -->
<g id="edge8" class="edge">
<title>Node5&#45;&gt;Node7</title>
<path fill="none" stroke="#191970" d="M508,-173.8906C508,-165.3657 508,-152.6392 508,-141.9235"/>
<polygon fill="#191970" stroke="#191970" points="511.5001,-141.7448 508,-131.7449 504.5001,-141.7449 511.5001,-141.7448"/>
</g>
<!-- Node8 -->
<g id="node9" class="node">
<title>Node8</title>
<polygon fill="none" stroke="#bfbfbf" points="512,-56.5 512,-75.5 570,-75.5 570,-56.5 512,-56.5"/>
<text text-anchor="middle" x="541" y="-63.5" font-family="Helvetica,sans-Serif" font-size="10.00" fill="#000000">memory</text>
</g>
<!-- Node5&#45;&gt;Node8 -->
<g id="edge9" class="edge">
<title>Node5&#45;&gt;Node8</title>
<path fill="none" stroke="#191970" d="M519.1885,-173.7687C529.1804,-164.2725 543.1187,-148.8302 549,-132 554.2878,-116.8681 551.4843,-98.7309 547.8121,-85.3021"/>
<polygon fill="#191970" stroke="#191970" points="551.1337,-84.1966 544.8188,-75.6893 544.4502,-86.2778 551.1337,-84.1966"/>
</g>
<!-- Node9 -->
<g id="node10" class="node">
<title>Node9</title>
<polygon fill="none" stroke="#bfbfbf" points="823,-56.5 823,-75.5 867,-75.5 867,-56.5 823,-56.5"/>
<text text-anchor="middle" x="845" y="-63.5" font-family="Helvetica,sans-Serif" font-size="10.00" fill="#000000">string</text>
</g>
<!-- Node5&#45;&gt;Node9 -->
<g id="edge10" class="edge">
<title>Node5&#45;&gt;Node9</title>
<path fill="none" stroke="#191970" d="M566.52,-175.8159C632.9613,-166.4436 736.7105,-149.6545 772,-132 795.4644,-120.2613 817.0456,-98.8572 830.5598,-83.6072"/>
<polygon fill="#191970" stroke="#191970" points="833.3438,-85.7374 837.1984,-75.8686 828.0309,-81.1796 833.3438,-85.7374"/>
</g>
<!-- Node10 -->
<g id="node11" class="node">
<title>Node10</title>
<g id="a_node11"><a xlink:href="counting__ptr_8hpp.html" target="_top" xlink:title="tlx/counting_ptr.hpp">
<polygon fill="none" stroke="#000000" points="191.5,-112.5 191.5,-131.5 304.5,-131.5 304.5,-112.5 191.5,-112.5"/>
<text text-anchor="middle" x="248" y="-119.5" font-family="Helvetica,sans-Serif" font-size="10.00" fill="#000000">tlx/counting_ptr.hpp</text>
</a>
</g>
</g>
<!-- Node5&#45;&gt;Node10 -->
<g id="edge11" class="edge">
<title>Node5&#45;&gt;Node10</title>
<path fill="none" stroke="#191970" d="M467.6603,-173.9581C422.0232,-163.1632 347.643,-145.5694 298.266,-133.8899"/>
<polygon fill="#191970" stroke="#191970" points="298.9715,-130.4602 288.4344,-131.5643 297.3602,-137.2722 298.9715,-130.4602"/>
</g>
<!-- Node16 -->
<g id="node17" class="node">
<title>Node16</title>
<g id="a_node17"><a xlink:href="delegate_8hpp.html" target="_top" xlink:title="tlx/delegate.hpp">
<polygon fill="none" stroke="#000000" points="361,-112.5 361,-131.5 457,-131.5 457,-112.5 361,-112.5"/>
<text text-anchor="middle" x="409" y="-119.5" font-family="Helvetica,sans-Serif" font-size="10.00" fill="#000000">tlx/delegate.hpp</text>
</a>
</g>
</g>
<!-- Node5&#45;&gt;Node16 -->
<g id="edge18" class="edge">
<title>Node5&#45;&gt;Node16</title>
<path fill="none" stroke="#191970" d="M492.5313,-173.8906C476.5479,-163.9616 451.3897,-148.333 432.8567,-136.8201"/>
<polygon fill="#191970" stroke="#191970" points="434.7015,-133.8457 424.3601,-131.5419 431.0076,-139.7918 434.7015,-133.8457"/>
</g>
<!-- Node18 -->
<g id="node19" class="node">
<title>Node18</title>
<g id="a_node19"><a xlink:href="exceptions_8hpp.html" target="_top" xlink:title="foxxll/common/exceptions.hpp">
<polygon fill="none" stroke="#000000" points="827.5,-112.5 827.5,-131.5 994.5,-131.5 994.5,-112.5 827.5,-112.5"/>
<text text-anchor="middle" x="911" y="-119.5" font-family="Helvetica,sans-Serif" font-size="10.00" fill="#000000">foxxll/common/exceptions.hpp</text>
</a>
</g>
</g>
<!-- Node5&#45;&gt;Node18 -->
<g id="edge25" class="edge">
<title>Node5&#45;&gt;Node18</title>
<path fill="none" stroke="#191970" d="M566.5997,-174.5574C638.5735,-163.5738 760.6623,-144.9424 838.4794,-133.067"/>
<polygon fill="#191970" stroke="#191970" points="839.3271,-136.4783 848.6846,-131.5097 838.271,-129.5584 839.3271,-136.4783"/>
</g>
<!-- Node21 -->
<g id="node22" class="node">
<title>Node21</title>
<g id="a_node22"><a xlink:href="request__interface_8hpp.html" target="_top" xlink:title="foxxll/io/request_interface.hpp">
<polygon fill="none" stroke="#000000" points="597,-112.5 597,-131.5 763,-131.5 763,-112.5 597,-112.5"/>
<text text-anchor="middle" x="680" y="-119.5" font-family="Helvetica,sans-Serif" font-size="10.00" fill="#000000">foxxll/io/request_interface.hpp</text>
</a>
</g>
</g>
<!-- Node5&#45;&gt;Node21 -->
<g id="edge29" class="edge">
<title>Node5&#45;&gt;Node21</title>
<path fill="none" stroke="#191970" d="M534.875,-173.8906C564.1586,-163.42 611.169,-146.6111 643.7137,-134.9745"/>
<polygon fill="#191970" stroke="#191970" points="645.0759,-138.2045 653.3137,-131.5419 642.7191,-131.6131 645.0759,-138.2045"/>
</g>
<!-- Node10&#45;&gt;Node6 -->
<g id="edge14" class="edge">
<title>Node10&#45;&gt;Node6</title>
<path fill="none" stroke="#191970" d="M261.9349,-112.2455C274.0947,-103.7337 291.9464,-91.2375 306.0285,-81.3801"/>
<polygon fill="#191970" stroke="#191970" points="308.0395,-84.2447 314.2248,-75.6427 304.0253,-78.51 308.0395,-84.2447"/>
</g>
<!-- Node11 -->
<g id="node12" class="node">
<title>Node11</title>
<polygon fill="none" stroke="#bfbfbf" points="220,-56.5 220,-75.5 284,-75.5 284,-56.5 220,-56.5"/>
<text text-anchor="middle" x="252" y="-63.5" font-family="Helvetica,sans-Serif" font-size="10.00" fill="#000000">algorithm</text>
</g>
<!-- Node10&#45;&gt;Node11 -->
<g id="edge12" class="edge">
<title>Node10&#45;&gt;Node11</title>
<path fill="none" stroke="#191970" d="M248.6967,-112.2455C249.2187,-104.9382 249.9504,-94.6944 250.5925,-85.7046"/>
<polygon fill="#191970" stroke="#191970" points="254.0898,-85.8667 251.3112,-75.6427 247.1076,-85.3679 254.0898,-85.8667"/>
</g>
<!-- Node12 -->
<g id="node13" class="node">
<title>Node12</title>
<polygon fill="none" stroke="#bfbfbf" points="84,-56.5 84,-75.5 134,-75.5 134,-56.5 84,-56.5"/>
<text text-anchor="middle" x="109" y="-63.5" font-family="Helvetica,sans-Serif" font-size="10.00" fill="#000000">atomic</text>
</g>
<!-- Node10&#45;&gt;Node12 -->
<g id="edge13" class="edge">
<title>Node10&#45;&gt;Node12</title>
<path fill="none" stroke="#191970" d="M224.105,-112.3733C201.4918,-103.2629 167.3458,-89.5062 142.1127,-79.3404"/>
<polygon fill="#191970" stroke="#191970" points="143.1666,-75.9917 132.5831,-75.5011 140.5507,-82.4845 143.1666,-75.9917"/>
</g>
<!-- Node13 -->
<g id="node14" class="node">
<title>Node13</title>
<polygon fill="none" stroke="#bfbfbf" points="152.5,-56.5 152.5,-75.5 201.5,-75.5 201.5,-56.5 152.5,-56.5"/>
<text text-anchor="middle" x="177" y="-63.5" font-family="Helvetica,sans-Serif" font-size="10.00" fill="#000000">iosfwd</text>
</g>
<!-- Node10&#45;&gt;Node13 -->
<g id="edge15" class="edge">
<title>Node10&#45;&gt;Node13</title>
<path fill="none" stroke="#191970" d="M235.6327,-112.2455C225.0446,-103.8943 209.5936,-91.7076 197.2107,-81.9408"/>
<polygon fill="#191970" stroke="#191970" points="199.2447,-79.0875 189.2255,-75.6427 194.9097,-84.5837 199.2447,-79.0875"/>
</g>
<!-- Node14 -->
<g id="node15" class="node">
<title>Node14</title>
<polygon fill="none" stroke="#bfbfbf" points="411.5,-.5 411.5,-19.5 480.5,-19.5 480.5,-.5 411.5,-.5"/>
<text text-anchor="middle" x="446" y="-7.5" font-family="Helvetica,sans-Serif" font-size="10.00" fill="#000000">type_traits</text>
</g>
<!-- Node10&#45;&gt;Node14 -->
<g id="edge16" class="edge">
<title>Node10&#45;&gt;Node14</title>
<path fill="none" stroke="#191970" d="M200.4818,-112.4545C152.0017,-102.2368 82.7903,-86.1324 75,-76 69.582,-68.9532 69.114,-62.6609 75,-56 96.3076,-31.8873 307.245,-17.5281 401.2239,-12.2813"/>
<polygon fill="#191970" stroke="#191970" points="401.4904,-15.7721 411.2837,-11.7296 401.107,-8.7826 401.4904,-15.7721"/>
</g>
<!-- Node15 -->
<g id="node16" class="node">
<title>Node15</title>
<polygon fill="none" stroke="#bfbfbf" points="372.5,-56.5 372.5,-75.5 417.5,-75.5 417.5,-56.5 372.5,-56.5"/>
<text text-anchor="middle" x="395" y="-63.5" font-family="Helvetica,sans-Serif" font-size="10.00" fill="#000000">utility</text>
</g>
<!-- Node10&#45;&gt;Node15 -->
<g id="edge17" class="edge">
<title>Node10&#45;&gt;Node15</title>
<path fill="none" stroke="#191970" d="M273.2702,-112.3733C298.1277,-102.9037 336.1621,-88.4144 363.0921,-78.1554"/>
<polygon fill="#191970" stroke="#191970" points="364.3674,-81.415 372.4663,-74.5843 361.8754,-74.8736 364.3674,-81.415"/>
</g>
<!-- Node16&#45;&gt;Node6 -->
<g id="edge20" class="edge">
<title>Node16&#45;&gt;Node6</title>
<path fill="none" stroke="#191970" d="M394.8909,-112.2455C382.5791,-103.7337 364.5042,-91.2375 350.2462,-81.3801"/>
<polygon fill="#191970" stroke="#191970" points="352.1634,-78.4506 341.9474,-75.6427 348.1826,-84.2085 352.1634,-78.4506"/>
</g>
<!-- Node16&#45;&gt;Node8 -->
<g id="edge22" class="edge">
<title>Node16&#45;&gt;Node8</title>
<path fill="none" stroke="#191970" d="M431.6916,-112.3733C453.0711,-103.3032 485.3057,-89.6279 509.2362,-79.4755"/>
<polygon fill="#191970" stroke="#191970" points="510.7656,-82.6287 518.6045,-75.5011 508.0317,-76.1846 510.7656,-82.6287"/>
</g>
<!-- Node16&#45;&gt;Node11 -->
<g id="edge19" class="edge">
<title>Node16&#45;&gt;Node11</title>
<path fill="none" stroke="#191970" d="M382.0107,-112.3733C356.1301,-103.1419 316.8752,-89.1402 288.2711,-78.9375"/>
<polygon fill="#191970" stroke="#191970" points="289.2317,-75.5642 278.6371,-75.5011 286.88,-82.1573 289.2317,-75.5642"/>
</g>
<!-- Node16&#45;&gt;Node14 -->
<g id="edge23" class="edge">
<title>Node16&#45;&gt;Node14</title>
<path fill="none" stroke="#191970" d="M412.8191,-112.1899C416.3827,-102.9177 421.7701,-88.5903 426,-76 431.1833,-60.5718 436.5012,-42.9187 440.3493,-29.7538"/>
<polygon fill="#191970" stroke="#191970" points="443.7835,-30.4771 443.2007,-19.8983 437.0593,-28.5316 443.7835,-30.4771"/>
</g>
<!-- Node16&#45;&gt;Node15 -->
<g id="edge24" class="edge">
<title>Node16&#45;&gt;Node15</title>
<path fill="none" stroke="#191970" d="M406.5614,-112.2455C404.7145,-104.8579 402.1172,-94.4689 399.8522,-85.4087"/>
<polygon fill="#191970" stroke="#191970" points="403.2316,-84.4952 397.4107,-75.6427 396.4406,-86.193 403.2316,-84.4952"/>
</g>
<!-- Node17 -->
<g id="node18" class="node">
<title>Node17</title>
<polygon fill="none" stroke="#bfbfbf" points="568.5,-.5 568.5,-19.5 621.5,-19.5 621.5,-.5 568.5,-.5"/>
<text text-anchor="middle" x="595" y="-7.5" font-family="Helvetica,sans-Serif" font-size="10.00" fill="#000000">cstddef</text>
</g>
<!-- Node16&#45;&gt;Node17 -->
<g id="edge21" class="edge">
<title>Node16&#45;&gt;Node17</title>
<path fill="none" stroke="#191970" d="M421.3724,-112.417C438.9801,-98.9896 472.5184,-74.1847 503,-56 522.8892,-44.1345 546.2382,-32.4854 564.437,-23.8787"/>
<polygon fill="#191970" stroke="#191970" points="566.1227,-26.9543 573.7002,-19.5494 563.1588,-20.6127 566.1227,-26.9543"/>
</g>
<!-- Node18&#45;&gt;Node9 -->
<g id="edge28" class="edge">
<title>Node18&#45;&gt;Node9</title>
<path fill="none" stroke="#191970" d="M899.5037,-112.2455C889.7558,-103.9746 875.5741,-91.9416 864.1202,-82.2232"/>
<polygon fill="#191970" stroke="#191970" points="866.2541,-79.4437 856.3646,-75.6427 861.7253,-84.7813 866.2541,-79.4437"/>
</g>
<!-- Node19 -->
<g id="node20" class="node">
<title>Node19</title>
<polygon fill="none" stroke="#bfbfbf" points="885,-56.5 885,-75.5 945,-75.5 945,-56.5 885,-56.5"/>
<text text-anchor="middle" x="915" y="-63.5" font-family="Helvetica,sans-Serif" font-size="10.00" fill="#000000">iostream</text>
</g>
<!-- Node18&#45;&gt;Node19 -->
<g id="edge26" class="edge">
<title>Node18&#45;&gt;Node19</title>
<path fill="none" stroke="#191970" d="M911.6967,-112.2455C912.2187,-104.9382 912.9504,-94.6944 913.5925,-85.7046"/>
<polygon fill="#191970" stroke="#191970" points="917.0898,-85.8667 914.3112,-75.6427 910.1076,-85.3679 917.0898,-85.8667"/>
</g>
<!-- Node20 -->
<g id="node21" class="node">
<title>Node20</title>
<polygon fill="none" stroke="#bfbfbf" points="963.5,-56.5 963.5,-75.5 1028.5,-75.5 1028.5,-56.5 963.5,-56.5"/>
<text text-anchor="middle" x="996" y="-63.5" font-family="Helvetica,sans-Serif" font-size="10.00" fill="#000000">stdexcept</text>
</g>
<!-- Node18&#45;&gt;Node20 -->
<g id="edge27" class="edge">
<title>Node18&#45;&gt;Node20</title>
<path fill="none" stroke="#191970" d="M925.8059,-112.2455C938.7256,-103.7337 957.6931,-91.2375 972.6552,-81.3801"/>
<polygon fill="#191970" stroke="#191970" points="974.9387,-84.067 981.3638,-75.6427 971.0876,-78.2216 974.9387,-84.067"/>
</g>
<!-- Node22 -->
<g id="node23" class="node">
<title>Node22</title>
<polygon fill="none" stroke="#bfbfbf" points="588.5,-56.5 588.5,-75.5 645.5,-75.5 645.5,-56.5 588.5,-56.5"/>
<text text-anchor="middle" x="617" y="-63.5" font-family="Helvetica,sans-Serif" font-size="10.00" fill="#000000">ostream</text>
</g>
<!-- Node21&#45;&gt;Node22 -->
<g id="edge30" class="edge">
<title>Node21&#45;&gt;Node22</title>
<path fill="none" stroke="#191970" d="M669.0262,-112.2455C659.8118,-104.0549 646.4468,-92.1749 635.5703,-82.5069"/>
<polygon fill="#191970" stroke="#191970" points="637.6474,-79.6704 627.848,-75.6427 632.9968,-84.9023 637.6474,-79.6704"/>
</g>
<!-- Node23 -->
<g id="node24" class="node">
<title>Node23</title>
<g id="a_node24"><a xlink:href="types_8hpp.html" target="_top" xlink:title="foxxll/common/types.hpp">
<polygon fill="none" stroke="#000000" points="663.5,-56.5 663.5,-75.5 804.5,-75.5 804.5,-56.5 663.5,-56.5"/>
<text text-anchor="middle" x="734" y="-63.5" font-family="Helvetica,sans-Serif" font-size="10.00" fill="#000000">foxxll/common/types.hpp</text>
</a>
</g>
</g>
<!-- Node21&#45;&gt;Node23 -->
<g id="edge31" class="edge">
<title>Node21&#45;&gt;Node23</title>
<path fill="none" stroke="#191970" d="M689.4061,-112.2455C697.1493,-104.2155 708.312,-92.6394 717.5318,-83.0781"/>
<polygon fill="#191970" stroke="#191970" points="720.2798,-85.2706 724.7017,-75.6427 715.2409,-80.4117 720.2798,-85.2706"/>
</g>
<!-- Node23&#45;&gt;Node14 -->
<g id="edge34" class="edge">
<title>Node23&#45;&gt;Node14</title>
<path fill="none" stroke="#191970" d="M684.8183,-56.4369C630.2954,-45.8352 543.1256,-28.8855 490.5435,-18.6612"/>
<polygon fill="#191970" stroke="#191970" points="490.9924,-15.183 480.5081,-16.7099 489.6562,-22.0543 490.9924,-15.183"/>
</g>
<!-- Node23&#45;&gt;Node17 -->
<g id="edge32" class="edge">
<title>Node23&#45;&gt;Node17</title>
<path fill="none" stroke="#191970" d="M710.105,-56.3733C687.4918,-47.2629 653.3458,-33.5062 628.1127,-23.3404"/>
<polygon fill="#191970" stroke="#191970" points="629.1666,-19.9917 618.5831,-19.5011 626.5507,-26.4845 629.1666,-19.9917"/>
</g>
<!-- Node24 -->
<g id="node25" class="node">
<title>Node24</title>
<polygon fill="none" stroke="#bfbfbf" points="663,-.5 663,-19.5 713,-19.5 713,-.5 663,-.5"/>
<text text-anchor="middle" x="688" y="-7.5" font-family="Helvetica,sans-Serif" font-size="10.00" fill="#000000">cstdint</text>
</g>
<!-- Node23&#45;&gt;Node24 -->
<g id="edge33" class="edge">
<title>Node23&#45;&gt;Node24</title>
<path fill="none" stroke="#191970" d="M725.9874,-56.2455C719.5232,-48.3761 710.2615,-37.101 702.5017,-27.6542"/>
<polygon fill="#191970" stroke="#191970" points="704.9727,-25.1484 695.9208,-19.6427 699.5636,-29.5916 704.9727,-25.1484"/>
</g>
<!-- Node25 -->
<g id="node26" class="node">
<title>Node25</title>
<polygon fill="none" stroke="#bfbfbf" points="731,-.5 731,-19.5 829,-19.5 829,-.5 731,-.5"/>
<text text-anchor="middle" x="780" y="-7.5" font-family="Helvetica,sans-Serif" font-size="10.00" fill="#000000">foxxll/config.hpp</text>
</g>
<!-- Node23&#45;&gt;Node25 -->
<g id="edge35" class="edge">
<title>Node23&#45;&gt;Node25</title>
<path fill="none" stroke="#191970" d="M742.0126,-56.2455C748.4768,-48.3761 757.7385,-37.101 765.4983,-27.6542"/>
<polygon fill="#191970" stroke="#191970" points="768.4364,-29.5916 772.0792,-19.6427 763.0273,-25.1484 768.4364,-29.5916"/>
</g>
</g>
</svg>
