<?xml version="1.0" encoding="UTF-8" standalone="no"?>
<!DOCTYPE svg PUBLIC "-//W3C//DTD SVG 1.1//EN"
 "http://www.w3.org/Graphics/SVG/1.1/DTD/svg11.dtd">
<!-- Generated by graphviz version 2.40.1 (20161225.0304)
 -->
<!-- Title: extlib/foxxll/foxxll/io/request.hpp Pages: 1 -->
<svg width="990pt" height="207pt"
 viewBox="0.00 0.00 989.50 207.00" xmlns="http://www.w3.org/2000/svg" xmlns:xlink="http://www.w3.org/1999/xlink">
<g id="graph0" class="graph" transform="scale(1 1) rotate(0) translate(4 203)">
<title>extlib/foxxll/foxxll/io/request.hpp</title>
<!-- Node0 -->
<g id="node1" class="node">
<title>Node0</title>
<polygon fill="#bfbfbf" stroke="#000000" points="404,-168.5 404,-198.5 510,-198.5 510,-168.5 404,-168.5"/>
<text text-anchor="start" x="412" y="-186.5" font-family="Helvetica,sans-Serif" font-size="10.00" fill="#000000">extlib/foxxll/foxxll</text>
<text text-anchor="middle" x="457" y="-175.5" font-family="Helvetica,sans-Serif" font-size="10.00" fill="#000000">/io/request.hpp</text>
</g>
<!-- Node1 -->
<g id="node2" class="node">
<title>Node1</title>
<polygon fill="none" stroke="#bfbfbf" points="152,-56.5 152,-75.5 204,-75.5 204,-56.5 152,-56.5"/>
<text text-anchor="middle" x="178" y="-63.5" font-family="Helvetica,sans-Serif" font-size="10.00" fill="#000000">cassert</text>
</g>
<!-- Node0&#45;&gt;Node1 -->
<g id="edge1" class="edge">
<title>Node0&#45;&gt;Node1</title>
<path fill="none" stroke="#191970" d="M410.1085,-168.3903C381.4539,-158.7774 344.2404,-145.6108 312,-132 274.1254,-116.0107 231.7723,-94.5144 205.0118,-80.4634"/>
<polygon fill="#191970" stroke="#191970" points="206.3723,-77.2238 195.8954,-75.6476 203.1026,-83.4133 206.3723,-77.2238"/>
</g>
<!-- Node2 -->
<g id="node3" class="node">
<title>Node2</title>
<polygon fill="none" stroke="#bfbfbf" points="650.5,-112.5 650.5,-131.5 715.5,-131.5 715.5,-112.5 650.5,-112.5"/>
<text text-anchor="middle" x="683" y="-119.5" font-family="Helvetica,sans-Serif" font-size="10.00" fill="#000000">functional</text>
</g>
<!-- Node0&#45;&gt;Node2 -->
<g id="edge2" class="edge">
<title>Node0&#45;&gt;Node2</title>
<path fill="none" stroke="#191970" d="M510.2727,-169.0032C549.9943,-158.194 603.5337,-143.6247 640.4229,-133.5863"/>
<polygon fill="#191970" stroke="#191970" points="641.6306,-136.885 650.3607,-130.8819 639.7925,-130.1306 641.6306,-136.885"/>
</g>
<!-- Node3 -->
<g id="node4" class="node">
<title>Node3</title>
<polygon fill="none" stroke="#bfbfbf" points="0,-56.5 0,-75.5 58,-75.5 58,-56.5 0,-56.5"/>
<text text-anchor="middle" x="29" y="-63.5" font-family="Helvetica,sans-Serif" font-size="10.00" fill="#000000">memory</text>
</g>
<!-- Node0&#45;&gt;Node3 -->
<g id="edge3" class="edge">
<title>Node0&#45;&gt;Node3</title>
<path fill="none" stroke="#191970" d="M403.8144,-178.4014C322.4456,-170.0888 171.2058,-152.473 121,-132 92.3745,-120.3271 64.1997,-98.0883 46.7248,-82.6706"/>
<polygon fill="#191970" stroke="#191970" points="48.8138,-79.8407 39.0506,-75.726 44.1169,-85.031 48.8138,-79.8407"/>
</g>
<!-- Node4 -->
<g id="node5" class="node">
<title>Node4</title>
<polygon fill="none" stroke="#bfbfbf" points="776,-56.5 776,-75.5 820,-75.5 820,-56.5 776,-56.5"/>
<text text-anchor="middle" x="798" y="-63.5" font-family="Helvetica,sans-Serif" font-size="10.00" fill="#000000">string</text>
</g>
<!-- Node0&#45;&gt;Node4 -->
<g id="edge4" class="edge">
<title>Node0&#45;&gt;Node4</title>
<path fill="none" stroke="#191970" d="M510.0148,-176.6787C576.753,-167.5087 687.1345,-150.2388 724,-132 747.6941,-120.2776 769.5892,-98.8702 783.3179,-83.6151"/>
<polygon fill="#191970" stroke="#191970" points="786.133,-85.712 790.0643,-75.8735 780.8557,-81.113 786.133,-85.712"/>
</g>
<!-- Node5 -->
<g id="node6" class="node">
<title>Node5</title>
<g id="a_node6"><a xlink:href="counting__ptr_8hpp.html" target="_top" xlink:title="tlx/counting_ptr.hpp">
<polygon fill="none" stroke="#000000" points="321.5,-112.5 321.5,-131.5 434.5,-131.5 434.5,-112.5 321.5,-112.5"/>
<text text-anchor="middle" x="378" y="-119.5" font-family="Helvetica,sans-Serif" font-size="10.00" fill="#000000">tlx/counting_ptr.hpp</text>
</a>
</g>
</g>
<!-- Node0&#45;&gt;Node5 -->
<g id="edge5" class="edge">
<title>Node0&#45;&gt;Node5</title>
<path fill="none" stroke="#191970" d="M437.4719,-168.2977C425.7063,-159.1384 410.7325,-147.4816 398.7535,-138.1562"/>
<polygon fill="#191970" stroke="#191970" points="400.6898,-135.228 390.6489,-131.8469 396.3897,-140.7516 400.6898,-135.228"/>
</g>
<!-- Node11 -->
<g id="node12" class="node">
<title>Node11</title>
<g id="a_node12"><a xlink:href="delegate_8hpp.html" target="_top" xlink:title="tlx/delegate.hpp">
<polygon fill="none" stroke="#000000" points="130,-112.5 130,-131.5 226,-131.5 226,-112.5 130,-112.5"/>
<text text-anchor="middle" x="178" y="-119.5" font-family="Helvetica,sans-Serif" font-size="10.00" fill="#000000">tlx/delegate.hpp</text>
</a>
</g>
</g>
<!-- Node0&#45;&gt;Node11 -->
<g id="edge12" class="edge">
<title>Node0&#45;&gt;Node11</title>
<path fill="none" stroke="#191970" d="M403.8655,-171.7876C354.3144,-160.865 280.795,-144.6591 231.2172,-133.7307"/>
<polygon fill="#191970" stroke="#191970" points="231.8461,-130.2853 221.327,-131.5506 230.3392,-137.1212 231.8461,-130.2853"/>
</g>
<!-- Node13 -->
<g id="node14" class="node">
<title>Node13</title>
<g id="a_node14"><a xlink:href="exceptions_8hpp.html" target="_top" xlink:title="foxxll/common/exceptions.hpp">
<polygon fill="none" stroke="#000000" points="780.5,-112.5 780.5,-131.5 947.5,-131.5 947.5,-112.5 780.5,-112.5"/>
<text text-anchor="middle" x="864" y="-119.5" font-family="Helvetica,sans-Serif" font-size="10.00" fill="#000000">foxxll/common/exceptions.hpp</text>
</a>
</g>
</g>
<!-- Node0&#45;&gt;Node13 -->
<g id="edge19" class="edge">
<title>Node0&#45;&gt;Node13</title>
<path fill="none" stroke="#191970" d="M510.2081,-175.4599C582.0139,-164.6097 710.2257,-145.2362 790.9977,-133.0311"/>
<polygon fill="#191970" stroke="#191970" points="791.7283,-136.4605 801.0931,-131.5056 790.6823,-129.5391 791.7283,-136.4605"/>
</g>
<!-- Node16 -->
<g id="node17" class="node">
<title>Node16</title>
<g id="a_node17"><a xlink:href="request__interface_8hpp.html" target="_top" xlink:title="foxxll/io/request_interface.hpp">
<polygon fill="none" stroke="#000000" points="466,-112.5 466,-131.5 632,-131.5 632,-112.5 466,-112.5"/>
<text text-anchor="middle" x="549" y="-119.5" font-family="Helvetica,sans-Serif" font-size="10.00" fill="#000000">foxxll/io/request_interface.hpp</text>
</a>
</g>
</g>
<!-- Node0&#45;&gt;Node16 -->
<g id="edge23" class="edge">
<title>Node0&#45;&gt;Node16</title>
<path fill="none" stroke="#191970" d="M479.7416,-168.2977C493.7967,-158.9022 511.783,-146.8787 525.9036,-137.4395"/>
<polygon fill="#191970" stroke="#191970" points="528.1759,-140.1305 534.5444,-131.6633 524.2857,-134.311 528.1759,-140.1305"/>
</g>
<!-- Node5&#45;&gt;Node1 -->
<g id="edge8" class="edge">
<title>Node5&#45;&gt;Node1</title>
<path fill="none" stroke="#191970" d="M343.5356,-112.461C312.1644,-103.7628 264.313,-90.457 214.1019,-76.3001"/>
<polygon fill="#191970" stroke="#191970" points="214.9428,-72.9008 204.3681,-73.5533 213.0417,-79.6377 214.9428,-72.9008"/>
</g>
<!-- Node6 -->
<g id="node7" class="node">
<title>Node6</title>
<polygon fill="none" stroke="#bfbfbf" points="222,-56.5 222,-75.5 286,-75.5 286,-56.5 222,-56.5"/>
<text text-anchor="middle" x="254" y="-63.5" font-family="Helvetica,sans-Serif" font-size="10.00" fill="#000000">algorithm</text>
</g>
<!-- Node5&#45;&gt;Node6 -->
<g id="edge6" class="edge">
<title>Node5&#45;&gt;Node6</title>
<path fill="none" stroke="#191970" d="M356.6836,-112.3733C336.7784,-103.3838 306.8564,-89.8706 284.44,-79.7471"/>
<polygon fill="#191970" stroke="#191970" points="285.5925,-76.4272 275.0382,-75.5011 282.7113,-82.8068 285.5925,-76.4272"/>
</g>
<!-- Node7 -->
<g id="node8" class="node">
<title>Node7</title>
<polygon fill="none" stroke="#bfbfbf" points="406,-56.5 406,-75.5 456,-75.5 456,-56.5 406,-56.5"/>
<text text-anchor="middle" x="431" y="-63.5" font-family="Helvetica,sans-Serif" font-size="10.00" fill="#000000">atomic</text>
</g>
<!-- Node5&#45;&gt;Node7 -->
<g id="edge7" class="edge">
<title>Node5&#45;&gt;Node7</title>
<path fill="none" stroke="#191970" d="M387.2319,-112.2455C394.8317,-104.2155 405.7877,-92.6394 414.8368,-83.0781"/>
<polygon fill="#191970" stroke="#191970" points="417.5421,-85.3115 421.8739,-75.6427 412.458,-80.4998 417.5421,-85.3115"/>
</g>
<!-- Node8 -->
<g id="node9" class="node">
<title>Node8</title>
<polygon fill="none" stroke="#bfbfbf" points="474.5,-56.5 474.5,-75.5 523.5,-75.5 523.5,-56.5 474.5,-56.5"/>
<text text-anchor="middle" x="499" y="-63.5" font-family="Helvetica,sans-Serif" font-size="10.00" fill="#000000">iosfwd</text>
</g>
<!-- Node5&#45;&gt;Node8 -->
<g id="edge9" class="edge">
<title>Node5&#45;&gt;Node8</title>
<path fill="none" stroke="#191970" d="M398.8006,-112.3733C418.2243,-103.3838 447.4224,-89.8706 469.2964,-79.7471"/>
<polygon fill="#191970" stroke="#191970" points="470.8656,-82.8776 478.4708,-75.5011 467.9255,-76.5249 470.8656,-82.8776"/>
</g>
<!-- Node9 -->
<g id="node10" class="node">
<title>Node9</title>
<polygon fill="none" stroke="#bfbfbf" points="343.5,-.5 343.5,-19.5 412.5,-19.5 412.5,-.5 343.5,-.5"/>
<text text-anchor="middle" x="378" y="-7.5" font-family="Helvetica,sans-Serif" font-size="10.00" fill="#000000">type_traits</text>
</g>
<!-- Node5&#45;&gt;Node9 -->
<g id="edge10" class="edge">
<title>Node5&#45;&gt;Node9</title>
<path fill="none" stroke="#191970" d="M378,-112.4509C378,-94.184 378,-53.9553 378,-29.6976"/>
<polygon fill="#191970" stroke="#191970" points="381.5001,-29.5249 378,-19.5249 374.5001,-29.5249 381.5001,-29.5249"/>
</g>
<!-- Node10 -->
<g id="node11" class="node">
<title>Node10</title>
<polygon fill="none" stroke="#bfbfbf" points="304.5,-56.5 304.5,-75.5 349.5,-75.5 349.5,-56.5 304.5,-56.5"/>
<text text-anchor="middle" x="327" y="-63.5" font-family="Helvetica,sans-Serif" font-size="10.00" fill="#000000">utility</text>
</g>
<!-- Node5&#45;&gt;Node10 -->
<g id="edge11" class="edge">
<title>Node5&#45;&gt;Node10</title>
<path fill="none" stroke="#191970" d="M369.1165,-112.2455C361.8034,-104.2155 351.2609,-92.6394 342.5533,-83.0781"/>
<polygon fill="#191970" stroke="#191970" points="345.1028,-80.6795 335.7817,-75.6427 339.9273,-85.3928 345.1028,-80.6795"/>
</g>
<!-- Node11&#45;&gt;Node1 -->
<g id="edge14" class="edge">
<title>Node11&#45;&gt;Node1</title>
<path fill="none" stroke="#191970" d="M178,-112.2455C178,-104.9382 178,-94.6944 178,-85.7046"/>
<polygon fill="#191970" stroke="#191970" points="181.5001,-85.6426 178,-75.6427 174.5001,-85.6427 181.5001,-85.6426"/>
</g>
<!-- Node11&#45;&gt;Node3 -->
<g id="edge16" class="edge">
<title>Node11&#45;&gt;Node3</title>
<path fill="none" stroke="#191970" d="M152.386,-112.3733C127.9313,-103.1822 90.8946,-89.2624 63.7791,-79.0713"/>
<polygon fill="#191970" stroke="#191970" points="64.8719,-75.7431 54.2798,-75.5011 62.4091,-82.2956 64.8719,-75.7431"/>
</g>
<!-- Node11&#45;&gt;Node6 -->
<g id="edge13" class="edge">
<title>Node11&#45;&gt;Node6</title>
<path fill="none" stroke="#191970" d="M191.2382,-112.2455C202.681,-103.814 219.4296,-91.4729 232.7475,-81.6598"/>
<polygon fill="#191970" stroke="#191970" points="234.9391,-84.3924 240.9135,-75.6427 230.7867,-78.757 234.9391,-84.3924"/>
</g>
<!-- Node11&#45;&gt;Node9 -->
<g id="edge17" class="edge">
<title>Node11&#45;&gt;Node9</title>
<path fill="none" stroke="#191970" d="M166.1459,-112.3164C150.9797,-98.7696 128.327,-73.8236 143,-56 166.6038,-27.328 271.7234,-16.2713 333.0812,-12.2077"/>
<polygon fill="#191970" stroke="#191970" points="333.5044,-15.6882 343.2664,-11.5706 333.0674,-8.7018 333.5044,-15.6882"/>
</g>
<!-- Node11&#45;&gt;Node10 -->
<g id="edge18" class="edge">
<title>Node11&#45;&gt;Node10</title>
<path fill="none" stroke="#191970" d="M203.614,-112.3733C228.8097,-102.9037 267.3616,-88.4144 294.658,-78.1554"/>
<polygon fill="#191970" stroke="#191970" points="296.0303,-81.3787 304.1597,-74.5843 293.5676,-74.8262 296.0303,-81.3787"/>
</g>
<!-- Node12 -->
<g id="node13" class="node">
<title>Node12</title>
<polygon fill="none" stroke="#bfbfbf" points="166.5,-.5 166.5,-19.5 219.5,-19.5 219.5,-.5 166.5,-.5"/>
<text text-anchor="middle" x="193" y="-7.5" font-family="Helvetica,sans-Serif" font-size="10.00" fill="#000000">cstddef</text>
</g>
<!-- Node11&#45;&gt;Node12 -->
<g id="edge15" class="edge">
<title>Node11&#45;&gt;Node12</title>
<path fill="none" stroke="#191970" d="M154.4456,-112.4072C129.6404,-100.7961 95.9712,-79.8142 110,-56 120.1599,-38.7533 139.3719,-27.5158 156.7551,-20.4683"/>
<polygon fill="#191970" stroke="#191970" points="158.0022,-23.7388 166.1551,-16.9726 155.5623,-17.1778 158.0022,-23.7388"/>
</g>
<!-- Node13&#45;&gt;Node4 -->
<g id="edge22" class="edge">
<title>Node13&#45;&gt;Node4</title>
<path fill="none" stroke="#191970" d="M852.5037,-112.2455C842.7558,-103.9746 828.5741,-91.9416 817.1202,-82.2232"/>
<polygon fill="#191970" stroke="#191970" points="819.2541,-79.4437 809.3646,-75.6427 814.7253,-84.7813 819.2541,-79.4437"/>
</g>
<!-- Node14 -->
<g id="node15" class="node">
<title>Node14</title>
<polygon fill="none" stroke="#bfbfbf" points="838,-56.5 838,-75.5 898,-75.5 898,-56.5 838,-56.5"/>
<text text-anchor="middle" x="868" y="-63.5" font-family="Helvetica,sans-Serif" font-size="10.00" fill="#000000">iostream</text>
</g>
<!-- Node13&#45;&gt;Node14 -->
<g id="edge20" class="edge">
<title>Node13&#45;&gt;Node14</title>
<path fill="none" stroke="#191970" d="M864.6967,-112.2455C865.2187,-104.9382 865.9504,-94.6944 866.5925,-85.7046"/>
<polygon fill="#191970" stroke="#191970" points="870.0898,-85.8667 867.3112,-75.6427 863.1076,-85.3679 870.0898,-85.8667"/>
</g>
<!-- Node15 -->
<g id="node16" class="node">
<title>Node15</title>
<polygon fill="none" stroke="#bfbfbf" points="916.5,-56.5 916.5,-75.5 981.5,-75.5 981.5,-56.5 916.5,-56.5"/>
<text text-anchor="middle" x="949" y="-63.5" font-family="Helvetica,sans-Serif" font-size="10.00" fill="#000000">stdexcept</text>
</g>
<!-- Node13&#45;&gt;Node15 -->
<g id="edge21" class="edge">
<title>Node13&#45;&gt;Node15</title>
<path fill="none" stroke="#191970" d="M878.8059,-112.2455C891.7256,-103.7337 910.6931,-91.2375 925.6552,-81.3801"/>
<polygon fill="#191970" stroke="#191970" points="927.9387,-84.067 934.3638,-75.6427 924.0876,-78.2216 927.9387,-84.067"/>
</g>
<!-- Node17 -->
<g id="node18" class="node">
<title>Node17</title>
<polygon fill="none" stroke="#bfbfbf" points="700.5,-56.5 700.5,-75.5 757.5,-75.5 757.5,-56.5 700.5,-56.5"/>
<text text-anchor="middle" x="729" y="-63.5" font-family="Helvetica,sans-Serif" font-size="10.00" fill="#000000">ostream</text>
</g>
<!-- Node16&#45;&gt;Node17 -->
<g id="edge24" class="edge">
<title>Node16&#45;&gt;Node17</title>
<path fill="none" stroke="#191970" d="M579.9431,-112.3733C610.5505,-102.851 657.4732,-88.2528 690.4791,-77.9843"/>
<polygon fill="#191970" stroke="#191970" points="691.7332,-81.2597 700.2421,-74.9469 689.6537,-74.5757 691.7332,-81.2597"/>
</g>
<!-- Node18 -->
<g id="node19" class="node">
<title>Node18</title>
<g id="a_node19"><a xlink:href="types_8hpp.html" target="_top" xlink:title="foxxll/common/types.hpp">
<polygon fill="none" stroke="#000000" points="541.5,-56.5 541.5,-75.5 682.5,-75.5 682.5,-56.5 541.5,-56.5"/>
<text text-anchor="middle" x="612" y="-63.5" font-family="Helvetica,sans-Serif" font-size="10.00" fill="#000000">foxxll/common/types.hpp</text>
</a>
</g>
</g>
<!-- Node16&#45;&gt;Node18 -->
<g id="edge25" class="edge">
<title>Node16&#45;&gt;Node18</title>
<path fill="none" stroke="#191970" d="M559.9738,-112.2455C569.1882,-104.0549 582.5532,-92.1749 593.4297,-82.5069"/>
<polygon fill="#191970" stroke="#191970" points="596.0032,-84.9023 601.152,-75.6427 591.3526,-79.6704 596.0032,-84.9023"/>
</g>
<!-- Node18&#45;&gt;Node9 -->
<g id="edge28" class="edge">
<title>Node18&#45;&gt;Node9</title>
<path fill="none" stroke="#191970" d="M572.0398,-56.4369C530.5898,-46.5172 465.9172,-31.04 422.771,-20.7144"/>
<polygon fill="#191970" stroke="#191970" points="423.3723,-17.2596 412.8322,-18.3359 421.743,-24.0673 423.3723,-17.2596"/>
</g>
<!-- Node18&#45;&gt;Node12 -->
<g id="edge26" class="edge">
<title>Node18&#45;&gt;Node12</title>
<path fill="none" stroke="#191970" d="M541.3962,-56.5637C451.5517,-44.5558 299.6789,-24.2578 229.9774,-14.9421"/>
<polygon fill="#191970" stroke="#191970" points="230.2878,-11.4525 219.9122,-13.5969 229.3604,-18.3908 230.2878,-11.4525"/>
</g>
<!-- Node19 -->
<g id="node20" class="node">
<title>Node19</title>
<polygon fill="none" stroke="#bfbfbf" points="541,-.5 541,-19.5 591,-19.5 591,-.5 541,-.5"/>
<text text-anchor="middle" x="566" y="-7.5" font-family="Helvetica,sans-Serif" font-size="10.00" fill="#000000">cstdint</text>
</g>
<!-- Node18&#45;&gt;Node19 -->
<g id="edge27" class="edge">
<title>Node18&#45;&gt;Node19</title>
<path fill="none" stroke="#191970" d="M603.9874,-56.2455C597.5232,-48.3761 588.2615,-37.101 580.5017,-27.6542"/>
<polygon fill="#191970" stroke="#191970" points="582.9727,-25.1484 573.9208,-19.6427 577.5636,-29.5916 582.9727,-25.1484"/>
</g>
<!-- Node20 -->
<g id="node21" class="node">
<title>Node20</title>
<polygon fill="none" stroke="#bfbfbf" points="609,-.5 609,-19.5 707,-19.5 707,-.5 609,-.5"/>
<text text-anchor="middle" x="658" y="-7.5" font-family="Helvetica,sans-Serif" font-size="10.00" fill="#000000">foxxll/config.hpp</text>
</g>
<!-- Node18&#45;&gt;Node20 -->
<g id="edge29" class="edge">
<title>Node18&#45;&gt;Node20</title>
<path fill="none" stroke="#191970" d="M620.0126,-56.2455C626.4768,-48.3761 635.7385,-37.101 643.4983,-27.6542"/>
<polygon fill="#191970" stroke="#191970" points="646.4364,-29.5916 650.0792,-19.6427 641.0273,-25.1484 646.4364,-29.5916"/>
</g>
</g>
</svg>
