<?xml version="1.0" encoding="UTF-8" standalone="no"?>
<!DOCTYPE svg PUBLIC "-//W3C//DTD SVG 1.1//EN"
 "http://www.w3.org/Graphics/SVG/1.1/DTD/svg11.dtd">
<!-- Generated by graphviz version 2.26.3 (20100126.1600)
 -->
<!-- Title: thrill/io/request_queue_impl_worker.hpp Pages: 1 -->
<svg width="867pt" height="332pt"
 viewBox="0.00 0.00 867.00 332.00" xmlns="http://www.w3.org/2000/svg" xmlns:xlink="http://www.w3.org/1999/xlink">
<g id="graph1" class="graph" transform="scale(1 1) rotate(0) translate(4 328)">
<title>thrill/io/request_queue_impl_worker.hpp</title>
<!-- Node1 -->
<g id="node1" class="node"><title>Node1</title>
<polygon fill="#bfbfbf" stroke="black" points="552,-289 552,-323 664,-323 664,-289 552,-289"/>
<text text-anchor="start" x="560" y="-310" font-family="Helvetica,sans-Serif" font-size="10.00">thrill/io/request_queue</text>
<text text-anchor="middle" x="608" y="-297" font-family="Helvetica,sans-Serif" font-size="10.00">_impl_worker.hpp</text>
</g>
<!-- Node2 -->
<g id="node3" class="node"><title>Node2</title>
<a xlink:href="linuxaio__queue_8hpp.html" target="_top" xlink:title="thrill/io/linuxaio\l_queue.hpp">
<polygon fill="none" stroke="black" points="365.5,-217 365.5,-251 446.5,-251 446.5,-217 365.5,-217"/>
<text text-anchor="start" x="373.5" y="-238" font-family="Helvetica,sans-Serif" font-size="10.00">thrill/io/linuxaio</text>
<text text-anchor="middle" x="406" y="-225" font-family="Helvetica,sans-Serif" font-size="10.00">_queue.hpp</text>
</a>
</g>
<!-- Node1&#45;&gt;Node2 -->
<g id="edge2" class="edge"><title>Node1&#45;&gt;Node2</title>
<path fill="none" stroke="midnightblue" d="M550.558,-285.526C517.416,-273.713 476.533,-259.14 446.711,-248.511"/>
<polygon fill="midnightblue" stroke="midnightblue" points="549.534,-288.876 560.129,-288.937 551.884,-282.283 549.534,-288.876"/>
</g>
<!-- Node11 -->
<g id="node25" class="node"><title>Node11</title>
<a xlink:href="request__queue__impl__qw__qr_8hpp.html" target="_top" xlink:title="thrill/io/request_queue\l_impl_qw_qr.hpp">
<polygon fill="none" stroke="black" points="487,-217 487,-251 599,-251 599,-217 487,-217"/>
<text text-anchor="start" x="495" y="-238" font-family="Helvetica,sans-Serif" font-size="10.00">thrill/io/request_queue</text>
<text text-anchor="middle" x="543" y="-225" font-family="Helvetica,sans-Serif" font-size="10.00">_impl_qw_qr.hpp</text>
</a>
</g>
<!-- Node1&#45;&gt;Node11 -->
<g id="edge28" class="edge"><title>Node1&#45;&gt;Node11</title>
<path fill="none" stroke="midnightblue" d="M585.772,-281.379C576.886,-271.535 566.857,-260.426 558.745,-251.441"/>
<polygon fill="midnightblue" stroke="midnightblue" points="583.297,-283.86 592.596,-288.937 588.493,-279.169 583.297,-283.86"/>
</g>
<!-- Node13 -->
<g id="node30" class="node"><title>Node13</title>
<a xlink:href="request__queue__impl__1q_8hpp.html" target="_top" xlink:title="thrill/io/request_queue\l_impl_1q.hpp">
<polygon fill="none" stroke="black" points="617,-217 617,-251 729,-251 729,-217 617,-217"/>
<text text-anchor="start" x="625" y="-238" font-family="Helvetica,sans-Serif" font-size="10.00">thrill/io/request_queue</text>
<text text-anchor="middle" x="673" y="-225" font-family="Helvetica,sans-Serif" font-size="10.00">_impl_1q.hpp</text>
</a>
</g>
<!-- Node1&#45;&gt;Node13 -->
<g id="edge34" class="edge"><title>Node1&#45;&gt;Node13</title>
<path fill="none" stroke="midnightblue" d="M630.228,-281.379C639.114,-271.535 649.143,-260.426 657.255,-251.441"/>
<polygon fill="midnightblue" stroke="midnightblue" points="627.507,-279.169 623.404,-288.937 632.703,-283.86 627.507,-279.169"/>
</g>
<!-- Node15 -->
<g id="node34" class="node"><title>Node15</title>
<a xlink:href="request__queue__impl__worker_8cpp.html" target="_top" xlink:title="thrill/io/request_queue\l_impl_worker.cpp">
<polygon fill="none" stroke="black" points="747,-217 747,-251 859,-251 859,-217 747,-217"/>
<text text-anchor="start" x="755" y="-238" font-family="Helvetica,sans-Serif" font-size="10.00">thrill/io/request_queue</text>
<text text-anchor="middle" x="803" y="-225" font-family="Helvetica,sans-Serif" font-size="10.00">_impl_worker.cpp</text>
</a>
</g>
<!-- Node1&#45;&gt;Node15 -->
<g id="edge38" class="edge"><title>Node1&#45;&gt;Node15</title>
<path fill="none" stroke="midnightblue" d="M663.928,-285.35C693.337,-274.491 728.954,-261.34 756.782,-251.065"/>
<polygon fill="midnightblue" stroke="midnightblue" points="662.381,-282.19 654.212,-288.937 664.806,-288.757 662.381,-282.19"/>
</g>
<!-- Node3 -->
<g id="node5" class="node"><title>Node3</title>
<a xlink:href="linuxaio__file_8hpp.html" target="_top" xlink:title="thrill/io/linuxaio\l_file.hpp">
<polygon fill="none" stroke="black" points="300.5,-145 300.5,-179 381.5,-179 381.5,-145 300.5,-145"/>
<text text-anchor="start" x="308.5" y="-166" font-family="Helvetica,sans-Serif" font-size="10.00">thrill/io/linuxaio</text>
<text text-anchor="middle" x="341" y="-153" font-family="Helvetica,sans-Serif" font-size="10.00">_file.hpp</text>
</a>
</g>
<!-- Node2&#45;&gt;Node3 -->
<g id="edge4" class="edge"><title>Node2&#45;&gt;Node3</title>
<path fill="none" stroke="midnightblue" d="M383.772,-209.379C374.886,-199.535 364.857,-188.426 356.745,-179.441"/>
<polygon fill="midnightblue" stroke="midnightblue" points="381.297,-211.86 390.596,-216.937 386.493,-207.169 381.297,-211.86"/>
</g>
<!-- Node5 -->
<g id="node9" class="node"><title>Node5</title>
<a xlink:href="disk__queues_8cpp.html" target="_top" xlink:title="thrill/io/disk_queues.cpp">
<polygon fill="none" stroke="black" points="410,-7.5 410,-28.5 532,-28.5 532,-7.5 410,-7.5"/>
<text text-anchor="middle" x="471" y="-15.5" font-family="Helvetica,sans-Serif" font-size="10.00">thrill/io/disk_queues.cpp</text>
</a>
</g>
<!-- Node2&#45;&gt;Node5 -->
<g id="edge24" class="edge"><title>Node2&#45;&gt;Node5</title>
<path fill="none" stroke="midnightblue" d="M414.123,-207.005C428.525,-159.147 457.94,-61.398 467.741,-28.8294"/>
<polygon fill="midnightblue" stroke="midnightblue" points="410.739,-206.105 411.209,-216.689 417.443,-208.122 410.739,-206.105"/>
</g>
<!-- Node8 -->
<g id="node16" class="node"><title>Node8</title>
<a xlink:href="linuxaio__queue_8cpp.html" target="_top" xlink:title="thrill/io/linuxaio\l_queue.cpp">
<polygon fill="none" stroke="black" points="-0.5,-1 -0.5,-35 80.5,-35 80.5,-1 -0.5,-1"/>
<text text-anchor="start" x="7.5" y="-22" font-family="Helvetica,sans-Serif" font-size="10.00">thrill/io/linuxaio</text>
<text text-anchor="middle" x="40" y="-9" font-family="Helvetica,sans-Serif" font-size="10.00">_queue.cpp</text>
</a>
</g>
<!-- Node2&#45;&gt;Node8 -->
<g id="edge26" class="edge"><title>Node2&#45;&gt;Node8</title>
<path fill="none" stroke="midnightblue" d="M360.158,-212.629C339.3,-202.817 314.338,-190.951 292,-180 228.464,-148.851 209.285,-146.63 150,-108 115.682,-85.6387 79.6185,-54.4348 58.5027,-35.2583"/>
<polygon fill="midnightblue" stroke="midnightblue" points="358.889,-215.9 369.428,-216.982 361.864,-209.563 358.889,-215.9"/>
</g>
<!-- Node4 -->
<g id="node7" class="node"><title>Node4</title>
<a xlink:href="create__file_8cpp.html" target="_top" xlink:title="thrill/io/create_file.cpp">
<polygon fill="none" stroke="black" points="285,-79.5 285,-100.5 397,-100.5 397,-79.5 285,-79.5"/>
<text text-anchor="middle" x="341" y="-87.5" font-family="Helvetica,sans-Serif" font-size="10.00">thrill/io/create_file.cpp</text>
</a>
</g>
<!-- Node3&#45;&gt;Node4 -->
<g id="edge6" class="edge"><title>Node3&#45;&gt;Node4</title>
<path fill="none" stroke="midnightblue" d="M341,-134.667C341,-122.913 341,-109.848 341,-100.901"/>
<polygon fill="midnightblue" stroke="midnightblue" points="337.5,-134.937 341,-144.937 344.5,-134.937 337.5,-134.937"/>
</g>
<!-- Node3&#45;&gt;Node5 -->
<g id="edge8" class="edge"><title>Node3&#45;&gt;Node5</title>
<path fill="none" stroke="midnightblue" d="M372.375,-138.594C383.537,-129.598 395.844,-118.868 406,-108 430.477,-81.8067 453.699,-46.1651 464.568,-28.6321"/>
<polygon fill="midnightblue" stroke="midnightblue" points="370.176,-135.871 364.498,-144.816 374.515,-141.365 370.176,-135.871"/>
</g>
<!-- Node6 -->
<g id="node11" class="node"><title>Node6</title>
<a xlink:href="linuxaio__request_8hpp.html" target="_top" xlink:title="thrill/io/linuxaio\l_request.hpp">
<polygon fill="none" stroke="black" points="186.5,-73 186.5,-107 267.5,-107 267.5,-73 186.5,-73"/>
<text text-anchor="start" x="194.5" y="-94" font-family="Helvetica,sans-Serif" font-size="10.00">thrill/io/linuxaio</text>
<text text-anchor="middle" x="227" y="-81" font-family="Helvetica,sans-Serif" font-size="10.00">_request.hpp</text>
</a>
</g>
<!-- Node3&#45;&gt;Node6 -->
<g id="edge10" class="edge"><title>Node3&#45;&gt;Node6</title>
<path fill="none" stroke="midnightblue" d="M305.159,-139.364C288.69,-128.962 269.474,-116.826 254.218,-107.19"/>
<polygon fill="midnightblue" stroke="midnightblue" points="303.66,-142.556 313.984,-144.937 307.398,-136.638 303.66,-142.556"/>
</g>
<!-- Node7 -->
<g id="node14" class="node"><title>Node7</title>
<a xlink:href="linuxaio__file_8cpp.html" target="_top" xlink:title="thrill/io/linuxaio\l_file.cpp">
<polygon fill="none" stroke="black" points="97.5,-1 97.5,-35 178.5,-35 178.5,-1 97.5,-1"/>
<text text-anchor="start" x="105.5" y="-22" font-family="Helvetica,sans-Serif" font-size="10.00">thrill/io/linuxaio</text>
<text text-anchor="middle" x="138" y="-9" font-family="Helvetica,sans-Serif" font-size="10.00">_file.cpp</text>
</a>
</g>
<!-- Node3&#45;&gt;Node7 -->
<g id="edge22" class="edge"><title>Node3&#45;&gt;Node7</title>
<path fill="none" stroke="midnightblue" d="M290.1,-156.071C254.883,-149.58 208.962,-136.059 178,-108 156.461,-88.4808 145.889,-55.1974 141.217,-35.038"/>
<polygon fill="midnightblue" stroke="midnightblue" points="289.745,-159.561 300.192,-157.796 290.924,-152.661 289.745,-159.561"/>
</g>
<!-- Node6&#45;&gt;Node5 -->
<g id="edge12" class="edge"><title>Node6&#45;&gt;Node5</title>
<path fill="none" stroke="midnightblue" d="M277.268,-71.7407C317.223,-59.369 387.21,-40.3981 431.502,-28.5271"/>
<polygon fill="midnightblue" stroke="midnightblue" points="276.033,-68.4604 267.553,-74.8124 278.143,-75.1347 276.033,-68.4604"/>
</g>
<!-- Node6&#45;&gt;Node7 -->
<g id="edge14" class="edge"><title>Node6&#45;&gt;Node7</title>
<path fill="none" stroke="midnightblue" d="M197.943,-66.493C185.331,-56.2899 170.829,-44.5583 159.249,-35.19"/>
<polygon fill="midnightblue" stroke="midnightblue" points="195.932,-69.3686 205.908,-72.937 200.335,-63.9264 195.932,-69.3686"/>
</g>
<!-- Node6&#45;&gt;Node8 -->
<g id="edge16" class="edge"><title>Node6&#45;&gt;Node8</title>
<path fill="none" stroke="midnightblue" d="M176.951,-70.7299C146.873,-59.149 109.081,-44.5978 80.8195,-33.7166"/>
<polygon fill="midnightblue" stroke="midnightblue" points="175.834,-74.0501 186.424,-74.3771 178.349,-67.5176 175.834,-74.0501"/>
</g>
<!-- Node9 -->
<g id="node18" class="node"><title>Node9</title>
<a xlink:href="linuxaio__request_8cpp.html" target="_top" xlink:title="thrill/io/linuxaio\l_request.cpp">
<polygon fill="none" stroke="black" points="195.5,-1 195.5,-35 276.5,-35 276.5,-1 195.5,-1"/>
<text text-anchor="start" x="203.5" y="-22" font-family="Helvetica,sans-Serif" font-size="10.00">thrill/io/linuxaio</text>
<text text-anchor="middle" x="236" y="-9" font-family="Helvetica,sans-Serif" font-size="10.00">_request.cpp</text>
</a>
</g>
<!-- Node6&#45;&gt;Node9 -->
<g id="edge18" class="edge"><title>Node6&#45;&gt;Node9</title>
<path fill="none" stroke="midnightblue" d="M230.41,-62.7193C231.554,-53.572 232.797,-43.6255 233.82,-35.4407"/>
<polygon fill="midnightblue" stroke="midnightblue" points="226.9,-62.5801 229.133,-72.937 233.846,-63.4484 226.9,-62.5801"/>
</g>
<!-- Node10 -->
<g id="node20" class="node"><title>Node10</title>
<a xlink:href="request_8cpp.html" target="_top" xlink:title="thrill/io/request.cpp">
<polygon fill="none" stroke="black" points="293.5,-7.5 293.5,-28.5 392.5,-28.5 392.5,-7.5 293.5,-7.5"/>
<text text-anchor="middle" x="343" y="-15.5" font-family="Helvetica,sans-Serif" font-size="10.00">thrill/io/request.cpp</text>
</a>
</g>
<!-- Node6&#45;&gt;Node10 -->
<g id="edge20" class="edge"><title>Node6&#45;&gt;Node10</title>
<path fill="none" stroke="midnightblue" d="M263.13,-67.5744C284.013,-54.6125 309.328,-38.9 325.78,-28.688"/>
<polygon fill="midnightblue" stroke="midnightblue" points="261.141,-64.6896 254.49,-72.937 264.833,-70.6371 261.141,-64.6896"/>
</g>
<!-- Node11&#45;&gt;Node5 -->
<g id="edge30" class="edge"><title>Node11&#45;&gt;Node5</title>
<path fill="none" stroke="midnightblue" d="M531.006,-207.437C527.276,-198.769 523.284,-189.047 520,-180 499.648,-123.931 480.762,-54.9184 473.814,-28.7461"/>
<polygon fill="midnightblue" stroke="midnightblue" points="527.837,-208.926 535.054,-216.682 534.249,-206.118 527.837,-208.926"/>
</g>
<!-- Node12 -->
<g id="node28" class="node"><title>Node12</title>
<a xlink:href="request__queue__impl__qw__qr_8cpp.html" target="_top" xlink:title="thrill/io/request_queue\l_impl_qw_qr.cpp">
<polygon fill="none" stroke="black" points="529,-145 529,-179 641,-179 641,-145 529,-145"/>
<text text-anchor="start" x="537" y="-166" font-family="Helvetica,sans-Serif" font-size="10.00">thrill/io/request_queue</text>
<text text-anchor="middle" x="585" y="-153" font-family="Helvetica,sans-Serif" font-size="10.00">_impl_qw_qr.cpp</text>
</a>
</g>
<!-- Node11&#45;&gt;Node12 -->
<g id="edge32" class="edge"><title>Node11&#45;&gt;Node12</title>
<path fill="none" stroke="midnightblue" d="M558.048,-208.203C563.616,-198.658 569.792,-188.07 574.826,-179.441"/>
<polygon fill="midnightblue" stroke="midnightblue" points="554.969,-206.536 552.953,-216.937 561.015,-210.063 554.969,-206.536"/>
</g>
<!-- Node14 -->
<g id="node32" class="node"><title>Node14</title>
<a xlink:href="request__queue__impl__1q_8cpp.html" target="_top" xlink:title="thrill/io/request_queue\l_impl_1q.cpp">
<polygon fill="none" stroke="black" points="659,-145 659,-179 771,-179 771,-145 659,-145"/>
<text text-anchor="start" x="667" y="-166" font-family="Helvetica,sans-Serif" font-size="10.00">thrill/io/request_queue</text>
<text text-anchor="middle" x="715" y="-153" font-family="Helvetica,sans-Serif" font-size="10.00">_impl_1q.cpp</text>
</a>
</g>
<!-- Node13&#45;&gt;Node14 -->
<g id="edge36" class="edge"><title>Node13&#45;&gt;Node14</title>
<path fill="none" stroke="midnightblue" d="M688.048,-208.203C693.616,-198.658 699.792,-188.07 704.826,-179.441"/>
<polygon fill="midnightblue" stroke="midnightblue" points="684.969,-206.536 682.953,-216.937 691.015,-210.063 684.969,-206.536"/>
</g>
</g>
</svg>
