<?xml version="1.0" encoding="UTF-8" standalone="no"?>
<!DOCTYPE svg PUBLIC "-//W3C//DTD SVG 1.1//EN"
 "http://www.w3.org/Graphics/SVG/1.1/DTD/svg11.dtd">
<!-- Generated by graphviz version 2.26.3 (20100126.1600)
 -->
<!-- Title: thrill/io/request_queue.hpp Pages: 1 -->
<svg width="1353pt" height="478pt"
 viewBox="0.00 0.00 1353.00 478.00" xmlns="http://www.w3.org/2000/svg" xmlns:xlink="http://www.w3.org/1999/xlink">
<g id="graph1" class="graph" transform="scale(1 1) rotate(0) translate(4 474)">
<title>thrill/io/request_queue.hpp</title>
<!-- Node1 -->
<g id="node1" class="node"><title>Node1</title>
<polygon fill="#bfbfbf" stroke="black" points="882.5,-448.5 882.5,-469.5 1013.5,-469.5 1013.5,-448.5 882.5,-448.5"/>
<text text-anchor="middle" x="948" y="-456.5" font-family="Helvetica,sans-Serif" font-size="10.00">thrill/io/request_queue.hpp</text>
</g>
<!-- Node2 -->
<g id="node3" class="node"><title>Node2</title>
<a xlink:href="defines_8hpp.html" target="_top" xlink:title="thrill/common/defines.hpp">
<polygon fill="none" stroke="black" points="1217,-58.5 1217,-79.5 1345,-79.5 1345,-58.5 1217,-58.5"/>
<text text-anchor="middle" x="1281" y="-66.5" font-family="Helvetica,sans-Serif" font-size="10.00">thrill/common/defines.hpp</text>
</a>
</g>
<!-- Node1&#45;&gt;Node2 -->
<g id="edge2" class="edge"><title>Node1&#45;&gt;Node2</title>
<path fill="none" stroke="midnightblue" d="M1013.92,-450.479C1118.81,-435.054 1312,-398.202 1312,-336 1312,-336 1312,-336 1312,-206 1312,-163.777 1297.82,-115.999 1288.64,-89.4947"/>
<polygon fill="midnightblue" stroke="midnightblue" points="1291.84,-88.0589 1285.18,-79.8213 1285.25,-90.4159 1291.84,-88.0589"/>
</g>
<!-- Node4 -->
<g id="node7" class="node"><title>Node4</title>
<a xlink:href="request_8hpp.html" target="_top" xlink:title="thrill/io/request.hpp">
<polygon fill="none" stroke="black" points="495.5,-390.5 495.5,-411.5 594.5,-411.5 594.5,-390.5 495.5,-390.5"/>
<text text-anchor="middle" x="545" y="-398.5" font-family="Helvetica,sans-Serif" font-size="10.00">thrill/io/request.hpp</text>
</a>
</g>
<!-- Node1&#45;&gt;Node4 -->
<g id="edge6" class="edge"><title>Node1&#45;&gt;Node4</title>
<path fill="none" stroke="midnightblue" d="M882.354,-449.552C805.455,-438.485 679.143,-420.306 604.84,-409.612"/>
<polygon fill="midnightblue" stroke="midnightblue" points="605.107,-406.115 594.711,-408.154 604.11,-413.043 605.107,-406.115"/>
</g>
<!-- Node3 -->
<g id="node5" class="node"><title>Node3</title>
<polygon fill="none" stroke="#bfbfbf" points="465,-0.5 465,-21.5 527,-21.5 527,-0.5 465,-0.5"/>
<text text-anchor="middle" x="496" y="-8.5" font-family="Helvetica,sans-Serif" font-size="10.00">type_traits</text>
</g>
<!-- Node2&#45;&gt;Node3 -->
<g id="edge4" class="edge"><title>Node2&#45;&gt;Node3</title>
<path fill="none" stroke="midnightblue" d="M1216.95,-59.0382C1213.92,-58.6658 1210.93,-58.317 1208,-58 954.119,-30.5412 647.454,-16.8294 537.62,-12.5295"/>
<polygon fill="midnightblue" stroke="midnightblue" points="537.439,-9.02002 527.312,-12.1311 537.169,-16.0148 537.439,-9.02002"/>
</g>
<!-- Node5 -->
<g id="node9" class="node"><title>Node5</title>
<a xlink:href="counting__ptr_8hpp.html" target="_top" xlink:title="thrill/common/counting\l_ptr.hpp">
<polygon fill="none" stroke="black" points="103.5,-117 103.5,-151 218.5,-151 218.5,-117 103.5,-117"/>
<text text-anchor="start" x="111.5" y="-138" font-family="Helvetica,sans-Serif" font-size="10.00">thrill/common/counting</text>
<text text-anchor="middle" x="161" y="-125" font-family="Helvetica,sans-Serif" font-size="10.00">_ptr.hpp</text>
</a>
</g>
<!-- Node4&#45;&gt;Node5 -->
<g id="edge8" class="edge"><title>Node4&#45;&gt;Node5</title>
<path fill="none" stroke="midnightblue" d="M495.325,-397.226C444.468,-392.062 363.901,-380.237 299,-354 244.829,-332.101 221.465,-330.581 189,-282 164.565,-245.436 160.151,-193.042 159.998,-161.396"/>
<polygon fill="midnightblue" stroke="midnightblue" points="163.5,-161.16 160.095,-151.128 156.5,-161.094 163.5,-161.16"/>
</g>
<!-- Node8 -->
<g id="node15" class="node"><title>Node8</title>
<polygon fill="none" stroke="#bfbfbf" points="51.5,-58.5 51.5,-79.5 100.5,-79.5 100.5,-58.5 51.5,-58.5"/>
<text text-anchor="middle" x="76" y="-66.5" font-family="Helvetica,sans-Serif" font-size="10.00">cassert</text>
</g>
<!-- Node4&#45;&gt;Node8 -->
<g id="edge124" class="edge"><title>Node4&#45;&gt;Node8</title>
<path fill="none" stroke="midnightblue" d="M495.19,-399.69C360.651,-394.811 0,-372.285 0,-271 0,-271 0,-271 0,-206 0,-158.348 35.5941,-111.755 58.0643,-87.0887"/>
<polygon fill="midnightblue" stroke="midnightblue" points="60.8106,-89.2773 65.1111,-79.5945 55.711,-84.4821 60.8106,-89.2773"/>
</g>
<!-- Node11 -->
<g id="node22" class="node"><title>Node11</title>
<a xlink:href="delegate_8hpp.html" target="_top" xlink:title="thrill/common/delegate.hpp">
<polygon fill="none" stroke="black" points="198,-260.5 198,-281.5 332,-281.5 332,-260.5 198,-260.5"/>
<text text-anchor="middle" x="265" y="-268.5" font-family="Helvetica,sans-Serif" font-size="10.00">thrill/common/delegate.hpp</text>
</a>
</g>
<!-- Node4&#45;&gt;Node11 -->
<g id="edge22" class="edge"><title>Node4&#45;&gt;Node11</title>
<path fill="none" stroke="midnightblue" d="M495.158,-397.034C453.106,-391.923 392.503,-380.303 346,-354 317.557,-337.912 292.623,-308.863 278.18,-289.753"/>
<polygon fill="midnightblue" stroke="midnightblue" points="280.872,-287.506 272.135,-281.513 275.228,-291.646 280.872,-287.506"/>
</g>
<!-- Node13 -->
<g id="node28" class="node"><title>Node13</title>
<polygon fill="none" stroke="#bfbfbf" points="378,-195.5 378,-216.5 430,-216.5 430,-195.5 378,-195.5"/>
<text text-anchor="middle" x="404" y="-203.5" font-family="Helvetica,sans-Serif" font-size="10.00">memory</text>
</g>
<!-- Node4&#45;&gt;Node13 -->
<g id="edge126" class="edge"><title>Node4&#45;&gt;Node13</title>
<path fill="none" stroke="midnightblue" d="M512.997,-390.49C471.323,-374.705 401.179,-340.335 379,-282 371.805,-263.077 380.907,-241.066 390.08,-225.617"/>
<polygon fill="midnightblue" stroke="midnightblue" points="393.199,-227.238 395.656,-216.932 387.308,-223.456 393.199,-227.238"/>
</g>
<!-- Node15 -->
<g id="node33" class="node"><title>Node15</title>
<a xlink:href="shared__state_8hpp.html" target="_top" xlink:title="thrill/common/shared\l_state.hpp">
<polygon fill="none" stroke="black" points="451.5,-319 451.5,-353 558.5,-353 558.5,-319 451.5,-319"/>
<text text-anchor="start" x="459.5" y="-340" font-family="Helvetica,sans-Serif" font-size="10.00">thrill/common/shared</text>
<text text-anchor="middle" x="505" y="-327" font-family="Helvetica,sans-Serif" font-size="10.00">_state.hpp</text>
</a>
</g>
<!-- Node4&#45;&gt;Node15 -->
<g id="edge36" class="edge"><title>Node4&#45;&gt;Node15</title>
<path fill="none" stroke="midnightblue" d="M538.395,-390.267C533.638,-382.537 527.01,-371.766 520.912,-361.857"/>
<polygon fill="midnightblue" stroke="midnightblue" points="523.751,-359.792 515.529,-353.11 517.789,-363.461 523.751,-359.792"/>
</g>
<!-- Node17 -->
<g id="node37" class="node"><title>Node17</title>
<polygon fill="none" stroke="#bfbfbf" points="506,-195.5 506,-216.5 550,-216.5 550,-195.5 506,-195.5"/>
<text text-anchor="middle" x="528" y="-203.5" font-family="Helvetica,sans-Serif" font-size="10.00">mutex</text>
</g>
<!-- Node4&#45;&gt;Node17 -->
<g id="edge128" class="edge"><title>Node4&#45;&gt;Node17</title>
<path fill="none" stroke="midnightblue" d="M551.683,-390.284C557.017,-381.06 564.065,-367.192 567,-354 577.323,-307.596 554.17,-253.769 539.289,-225.557"/>
<polygon fill="midnightblue" stroke="midnightblue" points="542.312,-223.79 534.439,-216.701 536.172,-227.153 542.312,-223.79"/>
</g>
<!-- Node18 -->
<g id="node39" class="node"><title>Node18</title>
<a xlink:href="exceptions_8hpp.html" target="_top" xlink:title="thrill/io/exceptions.hpp">
<polygon fill="none" stroke="black" points="652,-325.5 652,-346.5 766,-346.5 766,-325.5 652,-325.5"/>
<text text-anchor="middle" x="709" y="-333.5" font-family="Helvetica,sans-Serif" font-size="10.00">thrill/io/exceptions.hpp</text>
</a>
</g>
<!-- Node4&#45;&gt;Node18 -->
<g id="edge42" class="edge"><title>Node4&#45;&gt;Node18</title>
<path fill="none" stroke="midnightblue" d="M571.714,-390.412C599.233,-379.505 642.301,-362.436 672.853,-350.327"/>
<polygon fill="midnightblue" stroke="midnightblue" points="674.29,-353.522 682.297,-346.584 671.711,-347.014 674.29,-353.522"/>
</g>
<!-- Node19 -->
<g id="node41" class="node"><title>Node19</title>
<a xlink:href="pool_8hpp.html" target="_top" xlink:title="thrill/mem/pool.hpp">
<polygon fill="none" stroke="black" points="613.5,-260.5 613.5,-281.5 712.5,-281.5 712.5,-260.5 613.5,-260.5"/>
<text text-anchor="middle" x="663" y="-268.5" font-family="Helvetica,sans-Serif" font-size="10.00">thrill/mem/pool.hpp</text>
</a>
</g>
<!-- Node4&#45;&gt;Node19 -->
<g id="edge122" class="edge"><title>Node4&#45;&gt;Node19</title>
<path fill="none" stroke="midnightblue" d="M559.295,-390.181C570.852,-381.116 587.241,-367.519 600,-354 619.172,-333.685 638.135,-307.682 650.168,-290.242"/>
<polygon fill="midnightblue" stroke="midnightblue" points="653.366,-291.762 656.096,-281.525 647.578,-287.825 653.366,-291.762"/>
</g>
<!-- Node28 -->
<g id="node61" class="node"><title>Node28</title>
<polygon fill="none" stroke="#bfbfbf" points="1158.5,-58.5 1158.5,-79.5 1199.5,-79.5 1199.5,-58.5 1158.5,-58.5"/>
<text text-anchor="middle" x="1179" y="-66.5" font-family="Helvetica,sans-Serif" font-size="10.00">string</text>
</g>
<!-- Node4&#45;&gt;Node28 -->
<g id="edge130" class="edge"><title>Node4&#45;&gt;Node28</title>
<path fill="none" stroke="midnightblue" d="M594.534,-397.426C758.612,-384.932 1274,-340.181 1274,-271 1274,-271 1274,-271 1274,-206 1274,-155.158 1229.27,-109.584 1201.2,-85.9876"/>
<polygon fill="midnightblue" stroke="midnightblue" points="1203.39,-83.2615 1193.43,-79.6581 1198.97,-88.6882 1203.39,-83.2615"/>
</g>
<!-- Node5&#45;&gt;Node3 -->
<g id="edge20" class="edge"><title>Node5&#45;&gt;Node3</title>
<path fill="none" stroke="midnightblue" d="M153.984,-116.997C148.213,-99.9656 143.029,-74.0415 157,-58 176.316,-35.8218 368.529,-19.8357 454.646,-13.7298"/>
<polygon fill="midnightblue" stroke="midnightblue" points="455.115,-17.2056 464.847,-13.0176 454.628,-10.2226 455.115,-17.2056"/>
</g>
<!-- Node6 -->
<g id="node11" class="node"><title>Node6</title>
<polygon fill="none" stroke="#bfbfbf" points="284,-58.5 284,-79.5 340,-79.5 340,-58.5 284,-58.5"/>
<text text-anchor="middle" x="312" y="-66.5" font-family="Helvetica,sans-Serif" font-size="10.00">algorithm</text>
</g>
<!-- Node5&#45;&gt;Node6 -->
<g id="edge10" class="edge"><title>Node5&#45;&gt;Node6</title>
<path fill="none" stroke="midnightblue" d="M200.673,-116.922C224.681,-106.588 254.981,-93.5448 277.906,-83.6762"/>
<polygon fill="midnightblue" stroke="midnightblue" points="279.439,-86.8271 287.24,-79.6584 276.671,-80.3975 279.439,-86.8271"/>
</g>
<!-- Node7 -->
<g id="node13" class="node"><title>Node7</title>
<polygon fill="none" stroke="#bfbfbf" points="386,-58.5 386,-79.5 432,-79.5 432,-58.5 386,-58.5"/>
<text text-anchor="middle" x="409" y="-66.5" font-family="Helvetica,sans-Serif" font-size="10.00">atomic</text>
</g>
<!-- Node5&#45;&gt;Node7 -->
<g id="edge12" class="edge"><title>Node5&#45;&gt;Node7</title>
<path fill="none" stroke="midnightblue" d="M218.52,-118.924C267.355,-106.125 335.721,-88.2061 375.882,-77.6802"/>
<polygon fill="midnightblue" stroke="midnightblue" points="376.911,-81.0288 385.697,-75.1077 375.136,-74.2575 376.911,-81.0288"/>
</g>
<!-- Node5&#45;&gt;Node8 -->
<g id="edge14" class="edge"><title>Node5&#45;&gt;Node8</title>
<path fill="none" stroke="midnightblue" d="M138.667,-116.922C126.118,-107.326 110.515,-95.3942 98.0181,-85.8374"/>
<polygon fill="midnightblue" stroke="midnightblue" points="100.008,-82.9527 89.9379,-79.6584 95.7554,-88.5132 100.008,-82.9527"/>
</g>
<!-- Node9 -->
<g id="node17" class="node"><title>Node9</title>
<polygon fill="none" stroke="#bfbfbf" points="663.5,-58.5 663.5,-79.5 708.5,-79.5 708.5,-58.5 663.5,-58.5"/>
<text text-anchor="middle" x="686" y="-66.5" font-family="Helvetica,sans-Serif" font-size="10.00">cstdlib</text>
</g>
<!-- Node5&#45;&gt;Node9 -->
<g id="edge16" class="edge"><title>Node5&#45;&gt;Node9</title>
<path fill="none" stroke="midnightblue" d="M218.686,-126.858C328.894,-113.213 566.148,-83.8389 653.151,-73.0671"/>
<polygon fill="midnightblue" stroke="midnightblue" points="653.739,-76.5211 663.233,-71.8188 652.878,-69.5741 653.739,-76.5211"/>
</g>
<!-- Node10 -->
<g id="node19" class="node"><title>Node10</title>
<polygon fill="none" stroke="#bfbfbf" points="166,-58.5 166,-79.5 218,-79.5 218,-58.5 166,-58.5"/>
<text text-anchor="middle" x="192" y="-66.5" font-family="Helvetica,sans-Serif" font-size="10.00">ostream</text>
</g>
<!-- Node5&#45;&gt;Node10 -->
<g id="edge18" class="edge"><title>Node5&#45;&gt;Node10</title>
<path fill="none" stroke="midnightblue" d="M169.145,-116.922C173.211,-108.395 178.157,-98.0251 182.407,-89.1151"/>
<polygon fill="midnightblue" stroke="midnightblue" points="185.679,-90.3848 186.824,-79.8521 179.36,-87.3715 185.679,-90.3848"/>
</g>
<!-- Node11&#45;&gt;Node3 -->
<g id="edge32" class="edge"><title>Node11&#45;&gt;Node3</title>
<path fill="none" stroke="midnightblue" d="M261.431,-260.077C250.93,-225.645 223.956,-118.102 275,-58 297.769,-31.1904 397.094,-18.8777 454.54,-13.9075"/>
<polygon fill="midnightblue" stroke="midnightblue" points="455.073,-17.3754 464.751,-13.0631 454.496,-10.3992 455.073,-17.3754"/>
</g>
<!-- Node11&#45;&gt;Node6 -->
<g id="edge24" class="edge"><title>Node11&#45;&gt;Node6</title>
<path fill="none" stroke="midnightblue" d="M267.461,-260.424C274.897,-228.462 297.235,-132.458 307.158,-89.8085"/>
<polygon fill="midnightblue" stroke="midnightblue" points="310.592,-90.4942 309.45,-79.9612 303.774,-88.9078 310.592,-90.4942"/>
</g>
<!-- Node11&#45;&gt;Node8 -->
<g id="edge26" class="edge"><title>Node11&#45;&gt;Node8</title>
<path fill="none" stroke="midnightblue" d="M228.343,-260.412C182.521,-244.976 106.096,-211.449 73,-152 62.313,-132.803 65.411,-107.053 69.6701,-89.3528"/>
<polygon fill="midnightblue" stroke="midnightblue" points="73.102,-90.071 72.3591,-79.5022 66.3491,-88.2275 73.102,-90.071"/>
</g>
<!-- Node12 -->
<g id="node26" class="node"><title>Node12</title>
<polygon fill="none" stroke="#bfbfbf" points="311.5,-195.5 311.5,-216.5 360.5,-216.5 360.5,-195.5 311.5,-195.5"/>
<text text-anchor="middle" x="336" y="-203.5" font-family="Helvetica,sans-Serif" font-size="10.00">cstddef</text>
</g>
<!-- Node11&#45;&gt;Node12 -->
<g id="edge28" class="edge"><title>Node11&#45;&gt;Node12</title>
<path fill="none" stroke="midnightblue" d="M276.724,-260.267C287.684,-250.233 304.238,-235.078 317.069,-223.331"/>
<polygon fill="midnightblue" stroke="midnightblue" points="319.481,-225.868 324.494,-216.534 314.755,-220.705 319.481,-225.868"/>
</g>
<!-- Node11&#45;&gt;Node13 -->
<g id="edge30" class="edge"><title>Node11&#45;&gt;Node13</title>
<path fill="none" stroke="midnightblue" d="M289.537,-260.33C310.714,-251.021 342.056,-237.006 369,-224 370.8,-223.131 372.645,-222.226 374.503,-221.304"/>
<polygon fill="midnightblue" stroke="midnightblue" points="376.38,-224.277 383.729,-216.645 373.225,-218.028 376.38,-224.277"/>
</g>
<!-- Node14 -->
<g id="node31" class="node"><title>Node14</title>
<polygon fill="none" stroke="#bfbfbf" points="448,-195.5 448,-216.5 488,-216.5 488,-195.5 448,-195.5"/>
<text text-anchor="middle" x="468" y="-203.5" font-family="Helvetica,sans-Serif" font-size="10.00">utility</text>
</g>
<!-- Node11&#45;&gt;Node14 -->
<g id="edge34" class="edge"><title>Node11&#45;&gt;Node14</title>
<path fill="none" stroke="midnightblue" d="M320.075,-260.443C355.011,-252.705 400.683,-240.638 439,-224 440.607,-223.302 442.229,-222.526 443.842,-221.698"/>
<polygon fill="midnightblue" stroke="midnightblue" points="445.852,-224.581 452.803,-216.585 442.383,-218.501 445.852,-224.581"/>
</g>
<!-- Node16 -->
<g id="node35" class="node"><title>Node16</title>
<polygon fill="none" stroke="#bfbfbf" points="387.5,-260.5 387.5,-281.5 482.5,-281.5 482.5,-260.5 387.5,-260.5"/>
<text text-anchor="middle" x="435" y="-268.5" font-family="Helvetica,sans-Serif" font-size="10.00">condition_variable</text>
</g>
<!-- Node15&#45;&gt;Node16 -->
<g id="edge38" class="edge"><title>Node15&#45;&gt;Node16</title>
<path fill="none" stroke="midnightblue" d="M486.608,-318.922C476.636,-309.662 464.322,-298.227 454.223,-288.85"/>
<polygon fill="midnightblue" stroke="midnightblue" points="456.396,-286.092 446.687,-281.852 451.633,-291.221 456.396,-286.092"/>
</g>
<!-- Node15&#45;&gt;Node17 -->
<g id="edge40" class="edge"><title>Node15&#45;&gt;Node17</title>
<path fill="none" stroke="midnightblue" d="M508.054,-318.737C512.269,-294.912 519.859,-252.017 524.362,-226.563"/>
<polygon fill="midnightblue" stroke="midnightblue" points="527.842,-226.983 526.138,-216.527 520.949,-225.764 527.842,-226.983"/>
</g>
<!-- Node18&#45;&gt;Node14 -->
<g id="edge120" class="edge"><title>Node18&#45;&gt;Node14</title>
<path fill="none" stroke="midnightblue" d="M687.646,-325.399C649.084,-306.105 565.471,-263.584 497,-224 495.875,-223.349 494.729,-222.678 493.575,-221.994"/>
<polygon fill="midnightblue" stroke="midnightblue" points="495.126,-218.842 484.76,-216.65 491.497,-224.827 495.126,-218.842"/>
</g>
<!-- Node18&#45;&gt;Node19 -->
<g id="edge44" class="edge"><title>Node18&#45;&gt;Node19</title>
<path fill="none" stroke="midnightblue" d="M701.404,-325.267C694.639,-315.707 684.582,-301.496 676.457,-290.015"/>
<polygon fill="midnightblue" stroke="midnightblue" points="679.088,-287.675 670.455,-281.534 673.374,-291.718 679.088,-287.675"/>
</g>
<!-- Node18&#45;&gt;Node28 -->
<g id="edge118" class="edge"><title>Node18&#45;&gt;Node28</title>
<path fill="none" stroke="midnightblue" d="M766.126,-331.089C882.957,-319.811 1143.09,-287.973 1201,-224 1233.32,-188.29 1223.84,-162.134 1210,-116 1206.95,-105.824 1200.9,-95.8172 1194.95,-87.6697"/>
<polygon fill="midnightblue" stroke="midnightblue" points="1197.59,-85.3662 1188.68,-79.6387 1192.07,-89.6745 1197.59,-85.3662"/>
</g>
<!-- Node36 -->
<g id="node94" class="node"><title>Node36</title>
<polygon fill="none" stroke="#bfbfbf" points="729.5,-260.5 729.5,-281.5 788.5,-281.5 788.5,-260.5 729.5,-260.5"/>
<text text-anchor="middle" x="759" y="-268.5" font-family="Helvetica,sans-Serif" font-size="10.00">stdexcept</text>
</g>
<!-- Node18&#45;&gt;Node36 -->
<g id="edge116" class="edge"><title>Node18&#45;&gt;Node36</title>
<path fill="none" stroke="midnightblue" d="M717.256,-325.267C724.683,-315.612 735.758,-301.215 744.635,-289.675"/>
<polygon fill="midnightblue" stroke="midnightblue" points="747.574,-291.594 750.897,-281.534 742.026,-287.326 747.574,-291.594"/>
</g>
<!-- Node19&#45;&gt;Node3 -->
<g id="edge110" class="edge"><title>Node19&#45;&gt;Node3</title>
<path fill="none" stroke="midnightblue" d="M656.378,-260.245C645.314,-243.019 621.547,-209.046 594,-188 563.34,-164.575 537.999,-182.981 515,-152 488.629,-116.476 489.859,-61.6362 492.976,-31.9012"/>
<polygon fill="midnightblue" stroke="midnightblue" points="496.468,-32.178 494.21,-21.8268 489.52,-31.3272 496.468,-32.178"/>
</g>
<!-- Node19&#45;&gt;Node6 -->
<g id="edge98" class="edge"><title>Node19&#45;&gt;Node6</title>
<path fill="none" stroke="midnightblue" d="M648.822,-260.333C636.377,-250.91 617.843,-236.726 602,-224 582.569,-208.391 581.652,-198.398 559,-188 469.753,-147.032 416.161,-215.2 341,-152 322.64,-136.562 315.893,-108.799 313.42,-89.6611"/>
<polygon fill="midnightblue" stroke="midnightblue" points="316.886,-89.1476 312.402,-79.5483 309.921,-89.8485 316.886,-89.1476"/>
</g>
<!-- Node19&#45;&gt;Node12 -->
<g id="edge100" class="edge"><title>Node19&#45;&gt;Node12</title>
<path fill="none" stroke="midnightblue" d="M613.385,-268.222C553.92,-263.731 451.917,-252.302 369,-224 366.707,-223.217 364.385,-222.283 362.091,-221.258"/>
<polygon fill="midnightblue" stroke="midnightblue" points="363.469,-218.034 352.961,-216.685 360.334,-224.292 363.469,-218.034"/>
</g>
<!-- Node19&#45;&gt;Node13 -->
<g id="edge104" class="edge"><title>Node19&#45;&gt;Node13</title>
<path fill="none" stroke="midnightblue" d="M613.463,-264.509C567.369,-257.562 497.233,-244.659 439,-224 436.577,-223.14 434.11,-222.145 431.665,-221.071"/>
<polygon fill="midnightblue" stroke="midnightblue" points="433.008,-217.834 422.478,-216.671 429.985,-224.148 433.008,-217.834"/>
</g>
<!-- Node19&#45;&gt;Node14 -->
<g id="edge112" class="edge"><title>Node19&#45;&gt;Node14</title>
<path fill="none" stroke="midnightblue" d="M613.442,-260.802C579.769,-252.956 534.677,-240.632 497,-224 495.397,-223.293 493.778,-222.508 492.168,-221.675"/>
<polygon fill="midnightblue" stroke="midnightblue" points="493.63,-218.479 483.213,-216.548 490.152,-224.554 493.63,-218.479"/>
</g>
<!-- Node19&#45;&gt;Node17 -->
<g id="edge106" class="edge"><title>Node19&#45;&gt;Node17</title>
<path fill="none" stroke="midnightblue" d="M640.526,-260.49C620.419,-251.049 590.168,-236.752 564,-224 562.01,-223.03 559.96,-222.024 557.897,-221.007"/>
<polygon fill="midnightblue" stroke="midnightblue" points="559.417,-217.854 548.904,-216.542 556.305,-224.124 559.417,-217.854"/>
</g>
<!-- Node20 -->
<g id="node43" class="node"><title>Node20</title>
<a xlink:href="config_8hpp.html" target="_top" xlink:title="thrill/common/config.hpp">
<polygon fill="none" stroke="black" points="643.5,-195.5 643.5,-216.5 766.5,-216.5 766.5,-195.5 643.5,-195.5"/>
<text text-anchor="middle" x="705" y="-203.5" font-family="Helvetica,sans-Serif" font-size="10.00">thrill/common/config.hpp</text>
</a>
</g>
<!-- Node19&#45;&gt;Node20 -->
<g id="edge46" class="edge"><title>Node19&#45;&gt;Node20</title>
<path fill="none" stroke="midnightblue" d="M669.935,-260.267C676.113,-250.707 685.295,-236.496 692.713,-225.015"/>
<polygon fill="midnightblue" stroke="midnightblue" points="695.706,-226.832 698.194,-216.534 689.827,-223.033 695.706,-226.832"/>
</g>
<!-- Node21 -->
<g id="node45" class="node"><title>Node21</title>
<a xlink:href="allocator__base_8hpp.html" target="_top" xlink:title="thrill/mem/allocator\l_base.hpp">
<polygon fill="none" stroke="black" points="783.5,-189 783.5,-223 882.5,-223 882.5,-189 783.5,-189"/>
<text text-anchor="start" x="791.5" y="-210" font-family="Helvetica,sans-Serif" font-size="10.00">thrill/mem/allocator</text>
<text text-anchor="middle" x="833" y="-197" font-family="Helvetica,sans-Serif" font-size="10.00">_base.hpp</text>
</a>
</g>
<!-- Node19&#45;&gt;Node21 -->
<g id="edge48" class="edge"><title>Node19&#45;&gt;Node21</title>
<path fill="none" stroke="midnightblue" d="M690.692,-260.412C714.445,-251.33 749.373,-237.975 778.681,-226.769"/>
<polygon fill="midnightblue" stroke="midnightblue" points="780.29,-229.901 788.38,-223.06 777.79,-223.363 780.29,-229.901"/>
</g>
<!-- Node19&#45;&gt;Node28 -->
<g id="edge108" class="edge"><title>Node19&#45;&gt;Node28</title>
<path fill="none" stroke="midnightblue" d="M712.616,-261.222C715.448,-260.779 718.257,-260.367 721,-260 771.595,-253.234 1144.35,-261.482 1179,-224 1212.96,-187.27 1197.6,-122.16 1186.64,-89.2478"/>
<polygon fill="midnightblue" stroke="midnightblue" points="1189.93,-88.0413 1183.31,-79.7704 1183.32,-90.3652 1189.93,-88.0413"/>
</g>
<!-- Node29 -->
<g id="node63" class="node"><title>Node29</title>
<polygon fill="none" stroke="#bfbfbf" points="1042,-58.5 1042,-79.5 1086,-79.5 1086,-58.5 1042,-58.5"/>
<text text-anchor="middle" x="1064" y="-66.5" font-family="Helvetica,sans-Serif" font-size="10.00">vector</text>
</g>
<!-- Node19&#45;&gt;Node29 -->
<g id="edge114" class="edge"><title>Node19&#45;&gt;Node29</title>
<path fill="none" stroke="midnightblue" d="M712.681,-261.508C769.236,-250.57 858.044,-232.956 891,-224 987.025,-197.905 1045.04,-232.889 1103,-152 1117.72,-131.461 1099.2,-104.491 1083,-86.9563"/>
<polygon fill="midnightblue" stroke="midnightblue" points="1085.33,-84.3365 1075.84,-79.6206 1080.32,-89.2236 1085.33,-84.3365"/>
</g>
<!-- Node35 -->
<g id="node86" class="node"><title>Node35</title>
<polygon fill="none" stroke="#bfbfbf" points="1124,-195.5 1124,-216.5 1170,-216.5 1170,-195.5 1124,-195.5"/>
<text text-anchor="middle" x="1147" y="-203.5" font-family="Helvetica,sans-Serif" font-size="10.00">cstdint</text>
</g>
<!-- Node19&#45;&gt;Node35 -->
<g id="edge102" class="edge"><title>Node19&#45;&gt;Node35</title>
<path fill="none" stroke="midnightblue" d="M712.623,-261.267C715.452,-260.812 718.26,-260.386 721,-260 892.932,-235.796 942.78,-270.735 1110,-224 1113.16,-223.116 1116.39,-221.968 1119.54,-220.68"/>
<polygon fill="midnightblue" stroke="midnightblue" points="1121.04,-223.844 1128.69,-216.519 1118.14,-217.472 1121.04,-223.844"/>
</g>
<!-- Node21&#45;&gt;Node3 -->
<g id="edge94" class="edge"><title>Node21&#45;&gt;Node3</title>
<path fill="none" stroke="midnightblue" d="M783.36,-190.47C780.535,-189.625 777.733,-188.796 775,-188 716.619,-170.986 695.91,-181.972 643,-152 635.388,-147.688 551.679,-65.7629 514.089,-28.8127"/>
<polygon fill="midnightblue" stroke="midnightblue" points="516.396,-26.1719 506.812,-21.6547 511.487,-31.1624 516.396,-26.1719"/>
</g>
<!-- Node21&#45;&gt;Node7 -->
<g id="edge82" class="edge"><title>Node21&#45;&gt;Node7</title>
<path fill="none" stroke="midnightblue" d="M783.407,-190.301C780.57,-189.499 777.753,-188.726 775,-188 702.423,-168.859 677.392,-185.047 610,-152 587.621,-141.026 588.956,-127.798 567,-116 526.737,-94.3647 475.214,-81.4313 442.153,-74.7631"/>
<polygon fill="midnightblue" stroke="midnightblue" points="442.588,-71.2824 432.105,-72.8151 441.256,-78.1545 442.588,-71.2824"/>
</g>
<!-- Node21&#45;&gt;Node8 -->
<g id="edge84" class="edge"><title>Node21&#45;&gt;Node8</title>
<path fill="none" stroke="midnightblue" d="M783.208,-189.687C780.447,-189.053 777.698,-188.482 775,-188 700.519,-174.685 152.902,-200.703 95,-152 77.2214,-137.046 74.1107,-109.173 74.359,-89.8776"/>
<polygon fill="midnightblue" stroke="midnightblue" points="77.865,-89.815 74.8078,-79.6709 70.8718,-89.5075 77.865,-89.815"/>
</g>
<!-- Node22 -->
<g id="node47" class="node"><title>Node22</title>
<a xlink:href="string_8hpp.html" target="_top" xlink:title="thrill/common/string.hpp">
<polygon fill="none" stroke="black" points="813.5,-123.5 813.5,-144.5 934.5,-144.5 934.5,-123.5 813.5,-123.5"/>
<text text-anchor="middle" x="874" y="-131.5" font-family="Helvetica,sans-Serif" font-size="10.00">thrill/common/string.hpp</text>
</a>
</g>
<!-- Node21&#45;&gt;Node22 -->
<g id="edge50" class="edge"><title>Node21&#45;&gt;Node22</title>
<path fill="none" stroke="midnightblue" d="M842.716,-188.937C848.724,-178.387 856.458,-164.805 862.734,-153.785"/>
<polygon fill="midnightblue" stroke="midnightblue" points="865.885,-155.323 867.792,-144.901 859.803,-151.859 865.885,-155.323"/>
</g>
<!-- Node21&#45;&gt;Node28 -->
<g id="edge92" class="edge"><title>Node21&#45;&gt;Node28</title>
<path fill="none" stroke="midnightblue" d="M882.6,-199.835C949.882,-190.84 1065.94,-172.895 1103,-152 1130.5,-136.497 1153.56,-107.504 1166.83,-88.2224"/>
<polygon fill="midnightblue" stroke="midnightblue" points="1169.91,-89.9045 1172.53,-79.6389 1164.08,-86.0294 1169.91,-89.9045"/>
</g>
<!-- Node21&#45;&gt;Node29 -->
<g id="edge96" class="edge"><title>Node21&#45;&gt;Node29</title>
<path fill="none" stroke="midnightblue" d="M875.136,-188.926C896.344,-179.452 921.949,-166.63 943,-152 962.104,-138.723 962.295,-129.834 981,-116 997.249,-103.982 1016.87,-92.7407 1032.95,-84.2669"/>
<polygon fill="midnightblue" stroke="midnightblue" points="1034.68,-87.3121 1041.96,-79.6126 1031.47,-81.093 1034.68,-87.3121"/>
</g>
<!-- Node30 -->
<g id="node65" class="node"><title>Node30</title>
<a xlink:href="malloc__tracker_8hpp.html" target="_top" xlink:title="thrill/mem/malloc_tracker.hpp">
<polygon fill="none" stroke="black" points="651.5,-123.5 651.5,-144.5 796.5,-144.5 796.5,-123.5 651.5,-123.5"/>
<text text-anchor="middle" x="724" y="-131.5" font-family="Helvetica,sans-Serif" font-size="10.00">thrill/mem/malloc_tracker.hpp</text>
</a>
</g>
<!-- Node21&#45;&gt;Node30 -->
<g id="edge70" class="edge"><title>Node21&#45;&gt;Node30</title>
<path fill="none" stroke="midnightblue" d="M807.169,-188.937C789.477,-177.251 766.152,-161.843 748.706,-150.32"/>
<polygon fill="midnightblue" stroke="midnightblue" points="750.454,-147.279 740.181,-144.688 746.595,-153.12 750.454,-147.279"/>
</g>
<!-- Node31 -->
<g id="node68" class="node"><title>Node31</title>
<a xlink:href="mem_2manager_8hpp.html" target="_top" xlink:title="thrill/mem/manager.hpp">
<polygon fill="none" stroke="black" points="349.5,-123.5 349.5,-144.5 468.5,-144.5 468.5,-123.5 349.5,-123.5"/>
<text text-anchor="middle" x="409" y="-131.5" font-family="Helvetica,sans-Serif" font-size="10.00">thrill/mem/manager.hpp</text>
</a>
</g>
<!-- Node21&#45;&gt;Node31 -->
<g id="edge74" class="edge"><title>Node21&#45;&gt;Node31</title>
<path fill="none" stroke="midnightblue" d="M783.469,-190.045C780.616,-189.308 777.779,-188.619 775,-188 661.135,-162.627 630.297,-169.767 515,-152 503.254,-150.19 490.793,-148.167 478.7,-146.148"/>
<polygon fill="midnightblue" stroke="midnightblue" points="479.094,-142.666 468.652,-144.459 477.934,-149.569 479.094,-142.666"/>
</g>
<!-- Node32 -->
<g id="node75" class="node"><title>Node32</title>
<polygon fill="none" stroke="#bfbfbf" points="989.5,-123.5 989.5,-144.5 1032.5,-144.5 1032.5,-123.5 989.5,-123.5"/>
<text text-anchor="middle" x="1011" y="-131.5" font-family="Helvetica,sans-Serif" font-size="10.00">deque</text>
</g>
<!-- Node21&#45;&gt;Node32 -->
<g id="edge86" class="edge"><title>Node21&#45;&gt;Node32</title>
<path fill="none" stroke="midnightblue" d="M882.205,-188.988C910.044,-178.974 945.321,-165.628 976,-152 978.029,-151.098 980.108,-150.136 982.19,-149.142"/>
<polygon fill="midnightblue" stroke="midnightblue" points="983.794,-152.253 991.201,-144.679 980.687,-145.981 983.794,-152.253"/>
</g>
<!-- Node33 -->
<g id="node77" class="node"><title>Node33</title>
<polygon fill="none" stroke="#bfbfbf" points="1049.5,-123.5 1049.5,-144.5 1094.5,-144.5 1094.5,-123.5 1049.5,-123.5"/>
<text text-anchor="middle" x="1072" y="-131.5" font-family="Helvetica,sans-Serif" font-size="10.00">iosfwd</text>
</g>
<!-- Node21&#45;&gt;Node33 -->
<g id="edge88" class="edge"><title>Node21&#45;&gt;Node33</title>
<path fill="none" stroke="midnightblue" d="M882.549,-197.095C925.474,-188.457 988.723,-173.491 1041,-152 1042.86,-151.237 1044.74,-150.38 1046.61,-149.466"/>
<polygon fill="midnightblue" stroke="midnightblue" points="1048.54,-152.398 1055.69,-144.579 1045.23,-146.233 1048.54,-152.398"/>
</g>
<!-- Node34 -->
<g id="node79" class="node"><title>Node34</title>
<polygon fill="none" stroke="#bfbfbf" points="523.5,-123.5 523.5,-144.5 558.5,-144.5 558.5,-123.5 523.5,-123.5"/>
<text text-anchor="middle" x="541" y="-131.5" font-family="Helvetica,sans-Serif" font-size="10.00">new</text>
</g>
<!-- Node21&#45;&gt;Node34 -->
<g id="edge90" class="edge"><title>Node21&#45;&gt;Node34</title>
<path fill="none" stroke="midnightblue" d="M783.44,-190.171C780.594,-189.402 777.766,-188.672 775,-188 685.958,-166.378 658.05,-183.488 572,-152 569.911,-151.235 567.8,-150.333 565.715,-149.347"/>
<polygon fill="midnightblue" stroke="midnightblue" points="567.357,-146.256 556.884,-144.65 564.069,-152.436 567.357,-146.256"/>
</g>
<!-- Node22&#45;&gt;Node2 -->
<g id="edge52" class="edge"><title>Node22&#45;&gt;Node2</title>
<path fill="none" stroke="midnightblue" d="M934.529,-123.695C949.697,-121.147 965.939,-118.446 981,-116 1057.86,-103.515 1145.9,-89.7906 1206.63,-80.4135"/>
<polygon fill="midnightblue" stroke="midnightblue" points="1207.54,-83.8148 1216.89,-78.8308 1206.47,-76.8966 1207.54,-83.8148"/>
</g>
<!-- Node22&#45;&gt;Node9 -->
<g id="edge58" class="edge"><title>Node22&#45;&gt;Node9</title>
<path fill="none" stroke="midnightblue" d="M842.988,-123.433C813.278,-113.287 766.928,-97.4024 718.407,-80.4738"/>
<polygon fill="midnightblue" stroke="midnightblue" points="719.273,-77.069 708.678,-77.0756 716.964,-83.6774 719.273,-77.069"/>
</g>
<!-- Node23 -->
<g id="node50" class="node"><title>Node23</title>
<polygon fill="none" stroke="#bfbfbf" points="986,-58.5 986,-79.5 1024,-79.5 1024,-58.5 986,-58.5"/>
<text text-anchor="middle" x="1005" y="-66.5" font-family="Helvetica,sans-Serif" font-size="10.00">array</text>
</g>
<!-- Node22&#45;&gt;Node23 -->
<g id="edge54" class="edge"><title>Node22&#45;&gt;Node23</title>
<path fill="none" stroke="midnightblue" d="M895.339,-123.412C917.485,-112.424 952.237,-95.1802 976.672,-83.056"/>
<polygon fill="midnightblue" stroke="midnightblue" points="978.401,-86.1051 985.803,-78.525 975.29,-79.8345 978.401,-86.1051"/>
</g>
<!-- Node24 -->
<g id="node52" class="node"><title>Node24</title>
<polygon fill="none" stroke="#bfbfbf" points="725.5,-58.5 725.5,-79.5 774.5,-79.5 774.5,-58.5 725.5,-58.5"/>
<text text-anchor="middle" x="750" y="-66.5" font-family="Helvetica,sans-Serif" font-size="10.00">cstdarg</text>
</g>
<!-- Node22&#45;&gt;Node24 -->
<g id="edge56" class="edge"><title>Node22&#45;&gt;Node24</title>
<path fill="none" stroke="midnightblue" d="M853.801,-123.412C833.535,-112.788 802.115,-96.3182 779.15,-84.28"/>
<polygon fill="midnightblue" stroke="midnightblue" points="780.672,-81.1264 770.19,-79.5835 777.422,-87.3262 780.672,-81.1264"/>
</g>
<!-- Node25 -->
<g id="node55" class="node"><title>Node25</title>
<polygon fill="none" stroke="#bfbfbf" points="792,-58.5 792,-79.5 832,-79.5 832,-58.5 792,-58.5"/>
<text text-anchor="middle" x="812" y="-66.5" font-family="Helvetica,sans-Serif" font-size="10.00">limits</text>
</g>
<!-- Node22&#45;&gt;Node25 -->
<g id="edge60" class="edge"><title>Node22&#45;&gt;Node25</title>
<path fill="none" stroke="midnightblue" d="M863.762,-123.267C854.372,-113.423 840.28,-98.6481 829.169,-86.9996"/>
<polygon fill="midnightblue" stroke="midnightblue" points="831.482,-84.3541 822.048,-79.5337 826.417,-89.1856 831.482,-84.3541"/>
</g>
<!-- Node26 -->
<g id="node57" class="node"><title>Node26</title>
<polygon fill="none" stroke="#bfbfbf" points="849.5,-58.5 849.5,-79.5 898.5,-79.5 898.5,-58.5 849.5,-58.5"/>
<text text-anchor="middle" x="874" y="-66.5" font-family="Helvetica,sans-Serif" font-size="10.00">random</text>
</g>
<!-- Node22&#45;&gt;Node26 -->
<g id="edge62" class="edge"><title>Node22&#45;&gt;Node26</title>
<path fill="none" stroke="midnightblue" d="M874,-123.267C874,-114.18 874,-100.892 874,-89.7395"/>
<polygon fill="midnightblue" stroke="midnightblue" points="877.5,-89.5337 874,-79.5337 870.5,-89.5337 877.5,-89.5337"/>
</g>
<!-- Node27 -->
<g id="node59" class="node"><title>Node27</title>
<polygon fill="none" stroke="#bfbfbf" points="916,-58.5 916,-79.5 968,-79.5 968,-58.5 916,-58.5"/>
<text text-anchor="middle" x="942" y="-66.5" font-family="Helvetica,sans-Serif" font-size="10.00">sstream</text>
</g>
<!-- Node22&#45;&gt;Node27 -->
<g id="edge64" class="edge"><title>Node22&#45;&gt;Node27</title>
<path fill="none" stroke="midnightblue" d="M885.229,-123.267C895.626,-113.328 911.281,-98.3635 923.52,-86.6645"/>
<polygon fill="midnightblue" stroke="midnightblue" points="926.17,-88.9736 930.98,-79.5337 921.333,-83.9135 926.17,-88.9736"/>
</g>
<!-- Node22&#45;&gt;Node28 -->
<g id="edge66" class="edge"><title>Node22&#45;&gt;Node28</title>
<path fill="none" stroke="midnightblue" d="M923.343,-123.484C986.908,-109.938 1095.49,-86.7977 1148.32,-75.5387"/>
<polygon fill="midnightblue" stroke="midnightblue" points="1149.36,-78.8954 1158.41,-73.3879 1147.9,-72.0492 1149.36,-78.8954"/>
</g>
<!-- Node22&#45;&gt;Node29 -->
<g id="edge68" class="edge"><title>Node22&#45;&gt;Node29</title>
<path fill="none" stroke="midnightblue" d="M905.419,-123.47C935.58,-113.33 982.66,-97.4218 1032.36,-80.1949"/>
<polygon fill="midnightblue" stroke="midnightblue" points="1033.7,-83.435 1042,-76.8488 1031.4,-76.8221 1033.7,-83.435"/>
</g>
<!-- Node30&#45;&gt;Node9 -->
<g id="edge72" class="edge"><title>Node30&#45;&gt;Node9</title>
<path fill="none" stroke="midnightblue" d="M717.725,-123.267C712.192,-113.801 703.993,-99.7773 697.316,-88.3571"/>
<polygon fill="midnightblue" stroke="midnightblue" points="700.227,-86.4002 692.158,-79.5337 694.184,-89.9331 700.227,-86.4002"/>
</g>
<!-- Node31&#45;&gt;Node6 -->
<g id="edge76" class="edge"><title>Node31&#45;&gt;Node6</title>
<path fill="none" stroke="midnightblue" d="M392.982,-123.267C377.586,-112.949 354.107,-97.216 336.387,-85.3421"/>
<polygon fill="midnightblue" stroke="midnightblue" points="337.975,-82.1929 327.72,-79.5337 334.078,-88.0081 337.975,-82.1929"/>
</g>
<!-- Node31&#45;&gt;Node7 -->
<g id="edge78" class="edge"><title>Node31&#45;&gt;Node7</title>
<path fill="none" stroke="midnightblue" d="M409,-123.267C409,-114.18 409,-100.892 409,-89.7395"/>
<polygon fill="midnightblue" stroke="midnightblue" points="412.5,-89.5337 409,-79.5337 405.5,-89.5337 412.5,-89.5337"/>
</g>
<!-- Node31&#45;&gt;Node8 -->
<g id="edge80" class="edge"><title>Node31&#45;&gt;Node8</title>
<path fill="none" stroke="midnightblue" d="M355.128,-123.484C286.332,-110.056 169.242,-87.2004 111.021,-75.8359"/>
<polygon fill="midnightblue" stroke="midnightblue" points="111.345,-72.3332 100.859,-73.8524 110.004,-79.2035 111.345,-72.3332"/>
</g>
</g>
</svg>
