<?xml version="1.0" encoding="UTF-8" standalone="no"?>
<!DOCTYPE svg PUBLIC "-//W3C//DTD SVG 1.1//EN"
 "http://www.w3.org/Graphics/SVG/1.1/DTD/svg11.dtd">
<!-- Generated by graphviz version 2.36.0 (20140111.2315)
 -->
<!-- Title: thrill/common/reservoir_sampling.hpp Pages: 1 -->
<svg width="2004pt" height="412pt"
 viewBox="0.00 0.00 2004.00 412.00" xmlns="http://www.w3.org/2000/svg" xmlns:xlink="http://www.w3.org/1999/xlink">
<g id="graph0" class="graph" transform="scale(1 1) rotate(0) translate(4 408)">
<title>thrill/common/reservoir_sampling.hpp</title>
<!-- Node1 -->
<g id="node1" class="node"><title>Node1</title>
<polygon fill="#bfbfbf" stroke="black" points="659,-373 659,-403 775,-403 775,-373 659,-373"/>
<text text-anchor="start" x="667" y="-391" font-family="Helvetica,sans-Serif" font-size="10.00">thrill/common/reservoir</text>
<text text-anchor="middle" x="717" y="-380" font-family="Helvetica,sans-Serif" font-size="10.00">_sampling.hpp</text>
</g>
<!-- Node2 -->
<g id="node2" class="node"><title>Node2</title>
<g id="a_node2"><a xlink:href="thrill_2common_2logger_8hpp.html" target="_top" xlink:title="thrill/common/logger.hpp">
<polygon fill="none" stroke="black" points="1334.5,-316.5 1334.5,-335.5 1457.5,-335.5 1457.5,-316.5 1334.5,-316.5"/>
<text text-anchor="middle" x="1396" y="-323.5" font-family="Helvetica,sans-Serif" font-size="10.00">thrill/common/logger.hpp</text>
</a>
</g>
</g>
<!-- Node1&#45;&gt;Node2 -->
<g id="edge1" class="edge"><title>Node1&#45;&gt;Node2</title>
<path fill="none" stroke="midnightblue" d="M775.185,-381.858C899.148,-370.904 1188.98,-345.293 1324.18,-333.346"/>
<polygon fill="midnightblue" stroke="midnightblue" points="1324.77,-336.808 1334.43,-332.441 1324.16,-329.835 1324.77,-336.808"/>
</g>
<!-- Node21 -->
<g id="node21" class="node"><title>Node21</title>
<polygon fill="none" stroke="#bfbfbf" points="180,-68.5 180,-87.5 224,-87.5 224,-68.5 180,-68.5"/>
<text text-anchor="middle" x="202" y="-75.5" font-family="Helvetica,sans-Serif" font-size="10.00">vector</text>
</g>
<!-- Node1&#45;&gt;Node21 -->
<g id="edge74" class="edge"><title>Node1&#45;&gt;Node21</title>
<path fill="none" stroke="midnightblue" d="M658.815,-382.666C494.364,-369.643 38,-327.842 38,-265 38,-265 38,-265 38,-195 38,-130.993 122.293,-99.1408 170.016,-86.2364"/>
<polygon fill="midnightblue" stroke="midnightblue" points="171.07,-89.579 179.882,-83.6966 169.325,-82.8 171.07,-89.579"/>
</g>
<!-- Node26 -->
<g id="node26" class="node"><title>Node26</title>
<polygon fill="none" stroke="#bfbfbf" points="81.5,-68.5 81.5,-87.5 130.5,-87.5 130.5,-68.5 81.5,-68.5"/>
<text text-anchor="middle" x="106" y="-75.5" font-family="Helvetica,sans-Serif" font-size="10.00">cassert</text>
</g>
<!-- Node1&#45;&gt;Node26 -->
<g id="edge72" class="edge"><title>Node1&#45;&gt;Node26</title>
<path fill="none" stroke="midnightblue" d="M658.616,-384.41C533.468,-378.428 243.033,-362.132 148,-336 77.6558,-316.657 0,-337.955 0,-265 0,-265 0,-265 0,-195 0,-147.575 48.8793,-111.069 80.2537,-92.5208"/>
<polygon fill="midnightblue" stroke="midnightblue" points="82.0099,-95.5485 88.9693,-87.5598 78.5471,-89.4649 82.0099,-95.5485"/>
</g>
<!-- Node43 -->
<g id="node43" class="node"><title>Node43</title>
<polygon fill="none" stroke="#bfbfbf" points="1476,-316.5 1476,-335.5 1520,-335.5 1520,-316.5 1476,-316.5"/>
<text text-anchor="middle" x="1498" y="-323.5" font-family="Helvetica,sans-Serif" font-size="10.00">cmath</text>
</g>
<!-- Node1&#45;&gt;Node43 -->
<g id="edge73" class="edge"><title>Node1&#45;&gt;Node43</title>
<path fill="none" stroke="midnightblue" d="M775.279,-387.101C900.327,-386.441 1203.55,-380.152 1465.66,-335.626"/>
<polygon fill="midnightblue" stroke="midnightblue" points="1466.49,-339.035 1475.76,-333.889 1465.31,-332.136 1466.49,-339.035"/>
</g>
<!-- Node3 -->
<g id="node3" class="node"><title>Node3</title>
<g id="a_node3"><a xlink:href="allocator_8hpp.html" target="_top" xlink:title="thrill/mem/allocator.hpp">
<polygon fill="none" stroke="black" points="474,-254.5 474,-273.5 592,-273.5 592,-254.5 474,-254.5"/>
<text text-anchor="middle" x="533" y="-261.5" font-family="Helvetica,sans-Serif" font-size="10.00">thrill/mem/allocator.hpp</text>
</a>
</g>
</g>
<!-- Node2&#45;&gt;Node3 -->
<g id="edge2" class="edge"><title>Node2&#45;&gt;Node3</title>
<path fill="none" stroke="midnightblue" d="M1334.28,-320.709C1177.84,-309.833 766.578,-281.239 602.268,-269.816"/>
<polygon fill="midnightblue" stroke="midnightblue" points="602.495,-266.323 592.276,-269.121 602.009,-273.306 602.495,-266.323"/>
</g>
<!-- Node14 -->
<g id="node14" class="node"><title>Node14</title>
<polygon fill="none" stroke="#bfbfbf" points="1082,-68.5 1082,-87.5 1120,-87.5 1120,-68.5 1082,-68.5"/>
<text text-anchor="middle" x="1101" y="-75.5" font-family="Helvetica,sans-Serif" font-size="10.00">array</text>
</g>
<!-- Node2&#45;&gt;Node14 -->
<g id="edge66" class="edge"><title>Node2&#45;&gt;Node14</title>
<path fill="none" stroke="midnightblue" d="M1400.48,-316.386C1412.42,-292.092 1442,-222.069 1410,-180 1373.7,-132.285 1337.11,-162.245 1280,-144 1226.4,-126.875 1164.95,-103.79 1129.78,-90.2392"/>
<polygon fill="midnightblue" stroke="midnightblue" points="1130.76,-86.8639 1120.17,-86.52 1128.23,-93.3924 1130.76,-86.8639"/>
</g>
<!-- Node19 -->
<g id="node19" class="node"><title>Node19</title>
<polygon fill="none" stroke="#bfbfbf" points="1138,-68.5 1138,-87.5 1190,-87.5 1190,-68.5 1138,-68.5"/>
<text text-anchor="middle" x="1164" y="-75.5" font-family="Helvetica,sans-Serif" font-size="10.00">sstream</text>
</g>
<!-- Node2&#45;&gt;Node19 -->
<g id="edge67" class="edge"><title>Node2&#45;&gt;Node19</title>
<path fill="none" stroke="midnightblue" d="M1411.78,-316.467C1424.2,-308.769 1440.61,-296.179 1448,-280 1466.48,-239.578 1474.73,-215.51 1448,-180 1413.23,-133.808 1377.15,-164.252 1323,-144 1303.26,-136.617 1299.39,-132.26 1280,-124 1252.18,-112.148 1220.09,-99.8009 1196.73,-91.0448"/>
<polygon fill="midnightblue" stroke="midnightblue" points="1197.88,-87.7388 1187.29,-87.5239 1195.44,-94.2976 1197.88,-87.7388"/>
</g>
<!-- Node20 -->
<g id="node20" class="node"><title>Node20</title>
<polygon fill="none" stroke="#bfbfbf" points="1022.5,-68.5 1022.5,-87.5 1063.5,-87.5 1063.5,-68.5 1022.5,-68.5"/>
<text text-anchor="middle" x="1043" y="-75.5" font-family="Helvetica,sans-Serif" font-size="10.00">string</text>
</g>
<!-- Node2&#45;&gt;Node20 -->
<g id="edge68" class="edge"><title>Node2&#45;&gt;Node20</title>
<path fill="none" stroke="midnightblue" d="M1397.78,-316.45C1402.41,-291.719 1412.03,-219.364 1376,-180 1327.66,-127.193 1287.61,-164.443 1219,-144 1166.86,-128.465 1107.85,-105.535 1073.11,-91.4703"/>
<polygon fill="midnightblue" stroke="midnightblue" points="1074.15,-88.1132 1063.57,-87.5801 1071.51,-94.5955 1074.15,-88.1132"/>
</g>
<!-- Node2&#45;&gt;Node21 -->
<g id="edge71" class="edge"><title>Node2&#45;&gt;Node21</title>
<path fill="none" stroke="midnightblue" d="M1334.21,-323.47C1154.43,-318.787 633.684,-303.522 465,-280 333.027,-261.597 262.533,-310.689 173,-212 146.584,-182.882 150.496,-160.923 164,-124 168.057,-112.908 176.188,-102.665 183.891,-94.7625"/>
<polygon fill="midnightblue" stroke="midnightblue" points="186.475,-97.1351 191.286,-87.6955 181.638,-92.0747 186.475,-97.1351"/>
</g>
<!-- Node34 -->
<g id="node34" class="node"><title>Node34</title>
<g id="a_node34"><a xlink:href="pool_8hpp.html" target="_top" xlink:title="thrill/mem/pool.hpp">
<polygon fill="none" stroke="black" points="1181.5,-254.5 1181.5,-273.5 1280.5,-273.5 1280.5,-254.5 1181.5,-254.5"/>
<text text-anchor="middle" x="1231" y="-261.5" font-family="Helvetica,sans-Serif" font-size="10.00">thrill/mem/pool.hpp</text>
</a>
</g>
</g>
<!-- Node2&#45;&gt;Node34 -->
<g id="edge48" class="edge"><title>Node2&#45;&gt;Node34</title>
<path fill="none" stroke="midnightblue" d="M1372.36,-316.403C1343.93,-306.067 1296.06,-288.656 1264,-276.999"/>
<polygon fill="midnightblue" stroke="midnightblue" points="1265.19,-273.709 1254.6,-273.581 1262.8,-280.287 1265.19,-273.709"/>
</g>
<!-- Node38 -->
<g id="node38" class="node"><title>Node38</title>
<polygon fill="none" stroke="#bfbfbf" points="1604,-124.5 1604,-143.5 1644,-143.5 1644,-124.5 1604,-124.5"/>
<text text-anchor="middle" x="1624" y="-131.5" font-family="Helvetica,sans-Serif" font-size="10.00">utility</text>
</g>
<!-- Node2&#45;&gt;Node38 -->
<g id="edge70" class="edge"><title>Node2&#45;&gt;Node38</title>
<path fill="none" stroke="midnightblue" d="M1433.83,-316.475C1460.43,-309.377 1496.09,-297.566 1524,-280 1560.17,-257.234 1568.23,-247.524 1592,-212 1604.3,-193.621 1613.31,-169.761 1618.58,-153.504"/>
<polygon fill="midnightblue" stroke="midnightblue" points="1622.03,-154.212 1621.63,-143.624 1615.34,-152.149 1622.03,-154.212"/>
</g>
<!-- Node39 -->
<g id="node39" class="node"><title>Node39</title>
<g id="a_node39"><a xlink:href="call__foreach__tuple_8hpp.html" target="_top" xlink:title="tlx/meta/call_foreach\l_tuple.hpp">
<polygon fill="none" stroke="black" points="1705.5,-249 1705.5,-279 1812.5,-279 1812.5,-249 1705.5,-249"/>
<text text-anchor="start" x="1713.5" y="-267" font-family="Helvetica,sans-Serif" font-size="10.00">tlx/meta/call_foreach</text>
<text text-anchor="middle" x="1759" y="-256" font-family="Helvetica,sans-Serif" font-size="10.00">_tuple.hpp</text>
</a>
</g>
</g>
<!-- Node2&#45;&gt;Node39 -->
<g id="edge60" class="edge"><title>Node2&#45;&gt;Node39</title>
<path fill="none" stroke="midnightblue" d="M1453.2,-316.46C1510.62,-307.766 1601.56,-293.659 1680,-280 1685.03,-279.124 1690.23,-278.193 1695.46,-277.239"/>
<polygon fill="midnightblue" stroke="midnightblue" points="1696.3,-280.644 1705.5,-275.388 1695.03,-273.76 1696.3,-280.644"/>
</g>
<!-- Node40 -->
<g id="node40" class="node"><title>Node40</title>
<polygon fill="none" stroke="#bfbfbf" points="1652,-186.5 1652,-205.5 1690,-205.5 1690,-186.5 1652,-186.5"/>
<text text-anchor="middle" x="1671" y="-193.5" font-family="Helvetica,sans-Serif" font-size="10.00">tuple</text>
</g>
<!-- Node2&#45;&gt;Node40 -->
<g id="edge69" class="edge"><title>Node2&#45;&gt;Node40</title>
<path fill="none" stroke="midnightblue" d="M1457.51,-316.702C1524.54,-307.169 1624.16,-291.382 1638,-280 1657.53,-263.947 1665.57,-234.685 1668.83,-215.545"/>
<polygon fill="midnightblue" stroke="midnightblue" points="1672.3,-216.016 1670.25,-205.621 1665.37,-215.024 1672.3,-216.016"/>
</g>
<!-- Node4 -->
<g id="node4" class="node"><title>Node4</title>
<g id="a_node4"><a xlink:href="thrill_2mem_2allocator__base_8hpp.html" target="_top" xlink:title="thrill/mem/allocator\l_base.hpp">
<polygon fill="none" stroke="black" points="566.5,-181 566.5,-211 665.5,-211 665.5,-181 566.5,-181"/>
<text text-anchor="start" x="574.5" y="-199" font-family="Helvetica,sans-Serif" font-size="10.00">thrill/mem/allocator</text>
<text text-anchor="middle" x="616" y="-188" font-family="Helvetica,sans-Serif" font-size="10.00">_base.hpp</text>
</a>
</g>
</g>
<!-- Node3&#45;&gt;Node4 -->
<g id="edge3" class="edge"><title>Node3&#45;&gt;Node4</title>
<path fill="none" stroke="midnightblue" d="M543.851,-254.372C555.493,-245.114 574.405,-230.076 589.946,-217.718"/>
<polygon fill="midnightblue" stroke="midnightblue" points="592.517,-220.145 598.166,-211.181 588.16,-214.666 592.517,-220.145"/>
</g>
<!-- Node3&#45;&gt;Node20 -->
<g id="edge45" class="edge"><title>Node3&#45;&gt;Node20</title>
<path fill="none" stroke="midnightblue" d="M575.02,-254.45C684.459,-231.903 972.234,-170.731 1007,-144 1022.31,-132.231 1032.02,-112.005 1037.45,-97.2342"/>
<polygon fill="midnightblue" stroke="midnightblue" points="1040.8,-98.2354 1040.66,-87.6415 1034.17,-96.0112 1040.8,-98.2354"/>
</g>
<!-- Node3&#45;&gt;Node21 -->
<g id="edge47" class="edge"><title>Node3&#45;&gt;Node21</title>
<path fill="none" stroke="midnightblue" d="M473.699,-259.521C392.961,-253.795 253.708,-240.101 212,-212 176.216,-187.891 158.182,-165.2 171,-124 174.229,-113.622 180.776,-103.521 187.025,-95.5268"/>
<polygon fill="midnightblue" stroke="midnightblue" points="189.785,-97.6818 193.517,-87.7661 184.416,-93.1902 189.785,-97.6818"/>
</g>
<!-- Node23 -->
<g id="node23" class="node"><title>Node23</title>
<g id="a_node23"><a xlink:href="mem_2manager_8hpp.html" target="_top" xlink:title="thrill/mem/manager.hpp">
<polygon fill="none" stroke="black" points="473.5,-124.5 473.5,-143.5 592.5,-143.5 592.5,-124.5 473.5,-124.5"/>
<text text-anchor="middle" x="533" y="-131.5" font-family="Helvetica,sans-Serif" font-size="10.00">thrill/mem/manager.hpp</text>
</a>
</g>
</g>
<!-- Node3&#45;&gt;Node23 -->
<g id="edge39" class="edge"><title>Node3&#45;&gt;Node23</title>
<path fill="none" stroke="midnightblue" d="M533,-254.202C533,-233.551 533,-181.606 533,-153.594"/>
<polygon fill="midnightblue" stroke="midnightblue" points="536.5,-153.522 533,-143.522 529.5,-153.522 536.5,-153.522"/>
</g>
<!-- Node3&#45;&gt;Node26 -->
<g id="edge40" class="edge"><title>Node3&#45;&gt;Node26</title>
<path fill="none" stroke="midnightblue" d="M473.69,-261.154C384.171,-257.298 219.991,-245.72 173,-212 134.071,-184.065 116.393,-126.875 109.599,-97.4264"/>
<polygon fill="midnightblue" stroke="midnightblue" points="113.016,-96.6669 107.506,-87.6172 106.17,-98.1274 113.016,-96.6669"/>
</g>
<!-- Node29 -->
<g id="node29" class="node"><title>Node29</title>
<polygon fill="none" stroke="#bfbfbf" points="1446,-68.5 1446,-87.5 1498,-87.5 1498,-68.5 1446,-68.5"/>
<text text-anchor="middle" x="1472" y="-75.5" font-family="Helvetica,sans-Serif" font-size="10.00">memory</text>
</g>
<!-- Node3&#45;&gt;Node29 -->
<g id="edge43" class="edge"><title>Node3&#45;&gt;Node29</title>
<path fill="none" stroke="midnightblue" d="M592.291,-255.744C667.803,-246.36 802.269,-229.175 917,-212 1002.56,-199.192 1023.28,-191.632 1109,-180 1184.94,-169.695 1392.81,-192.692 1452,-144 1465.51,-132.882 1470.08,-112.849 1471.54,-97.9511"/>
<polygon fill="midnightblue" stroke="midnightblue" points="1475.04,-97.9813 1472.14,-87.7924 1468.05,-97.5689 1475.04,-97.9813"/>
</g>
<!-- Node30 -->
<g id="node30" class="node"><title>Node30</title>
<polygon fill="none" stroke="#bfbfbf" points="1208,-68.5 1208,-87.5 1270,-87.5 1270,-68.5 1208,-68.5"/>
<text text-anchor="middle" x="1239" y="-75.5" font-family="Helvetica,sans-Serif" font-size="10.00">type_traits</text>
</g>
<!-- Node3&#45;&gt;Node30 -->
<g id="edge46" class="edge"><title>Node3&#45;&gt;Node30</title>
<path fill="none" stroke="midnightblue" d="M592.159,-256.113C655.86,-248.073 759.921,-233.13 848,-212 944.22,-188.917 966.368,-176.004 1060,-144 1111.62,-126.357 1171.05,-104.457 1206.79,-91.1152"/>
<polygon fill="midnightblue" stroke="midnightblue" points="1208.07,-94.3715 1216.21,-87.5897 1205.62,-87.8152 1208.07,-94.3715"/>
</g>
<!-- Node31 -->
<g id="node31" class="node"><title>Node31</title>
<polygon fill="none" stroke="#bfbfbf" points="180.5,-124.5 180.5,-143.5 223.5,-143.5 223.5,-124.5 180.5,-124.5"/>
<text text-anchor="middle" x="202" y="-131.5" font-family="Helvetica,sans-Serif" font-size="10.00">deque</text>
</g>
<!-- Node3&#45;&gt;Node31 -->
<g id="edge41" class="edge"><title>Node3&#45;&gt;Node31</title>
<path fill="none" stroke="midnightblue" d="M473.943,-259.205C398.724,-253.302 274.14,-239.607 238,-212 219.354,-197.757 209.983,-171.503 205.558,-153.652"/>
<polygon fill="midnightblue" stroke="midnightblue" points="208.96,-152.827 203.403,-143.806 202.122,-154.323 208.96,-152.827"/>
</g>
<!-- Node32 -->
<g id="node32" class="node"><title>Node32</title>
<polygon fill="none" stroke="#bfbfbf" points="280.5,-124.5 280.5,-143.5 325.5,-143.5 325.5,-124.5 280.5,-124.5"/>
<text text-anchor="middle" x="303" y="-131.5" font-family="Helvetica,sans-Serif" font-size="10.00">iosfwd</text>
</g>
<!-- Node3&#45;&gt;Node32 -->
<g id="edge42" class="edge"><title>Node3&#45;&gt;Node32</title>
<path fill="none" stroke="midnightblue" d="M510.405,-254.329C486.808,-244.965 448.987,-229.078 418,-212 383.045,-192.735 345.033,-166.051 322.649,-149.687"/>
<polygon fill="midnightblue" stroke="midnightblue" points="324.461,-146.675 314.336,-143.558 320.307,-152.309 324.461,-146.675"/>
</g>
<!-- Node33 -->
<g id="node33" class="node"><title>Node33</title>
<polygon fill="none" stroke="#bfbfbf" points="343.5,-124.5 343.5,-143.5 378.5,-143.5 378.5,-124.5 343.5,-124.5"/>
<text text-anchor="middle" x="361" y="-131.5" font-family="Helvetica,sans-Serif" font-size="10.00">new</text>
</g>
<!-- Node3&#45;&gt;Node33 -->
<g id="edge44" class="edge"><title>Node3&#45;&gt;Node33</title>
<path fill="none" stroke="midnightblue" d="M521.448,-254.403C492.562,-232.906 416.931,-176.623 380.788,-149.726"/>
<polygon fill="midnightblue" stroke="midnightblue" points="382.614,-146.722 372.502,-143.56 378.435,-152.338 382.614,-146.722"/>
</g>
<!-- Node5 -->
<g id="node5" class="node"><title>Node5</title>
<g id="a_node5"><a xlink:href="thrill_2common_2string_8hpp.html" target="_top" xlink:title="thrill/common/string.hpp">
<polygon fill="none" stroke="black" points="687.5,-124.5 687.5,-143.5 808.5,-143.5 808.5,-124.5 687.5,-124.5"/>
<text text-anchor="middle" x="748" y="-131.5" font-family="Helvetica,sans-Serif" font-size="10.00">thrill/common/string.hpp</text>
</a>
</g>
</g>
<!-- Node4&#45;&gt;Node5 -->
<g id="edge4" class="edge"><title>Node4&#45;&gt;Node5</title>
<path fill="none" stroke="midnightblue" d="M646.948,-180.933C669.019,-170.9 698.458,-157.519 719.865,-147.789"/>
<polygon fill="midnightblue" stroke="midnightblue" points="721.425,-150.924 729.08,-143.6 718.528,-144.552 721.425,-150.924"/>
</g>
<!-- Node4&#45;&gt;Node20 -->
<g id="edge36" class="edge"><title>Node4&#45;&gt;Node20</title>
<path fill="none" stroke="midnightblue" d="M665.672,-192.031C752.085,-186.213 926.026,-171.424 980,-144 1001.58,-133.035 1020,-111.733 1031.25,-96.5033"/>
<polygon fill="midnightblue" stroke="midnightblue" points="1034.38,-98.1388 1037.29,-87.952 1028.66,-94.0996 1034.38,-98.1388"/>
</g>
<!-- Node4&#45;&gt;Node21 -->
<g id="edge38" class="edge"><title>Node4&#45;&gt;Node21</title>
<path fill="none" stroke="midnightblue" d="M569.62,-180.92C539.264,-171.343 498.903,-157.922 464,-144 444.423,-136.191 441.014,-130.61 421,-124 356.306,-102.632 277.371,-89.411 234.138,-83.2101"/>
<polygon fill="midnightblue" stroke="midnightblue" points="234.588,-79.7391 224.2,-81.8188 233.618,-86.6715 234.588,-79.7391"/>
</g>
<!-- Node22 -->
<g id="node22" class="node"><title>Node22</title>
<g id="a_node22"><a xlink:href="malloc__tracker_8hpp.html" target="_top" xlink:title="thrill/mem/malloc_tracker.hpp">
<polygon fill="none" stroke="black" points="826.5,-124.5 826.5,-143.5 971.5,-143.5 971.5,-124.5 826.5,-124.5"/>
<text text-anchor="middle" x="899" y="-131.5" font-family="Helvetica,sans-Serif" font-size="10.00">thrill/mem/malloc_tracker.hpp</text>
</a>
</g>
</g>
<!-- Node4&#45;&gt;Node22 -->
<g id="edge21" class="edge"><title>Node4&#45;&gt;Node22</title>
<path fill="none" stroke="midnightblue" d="M665.619,-184.48C717.039,-173.578 796.98,-156.63 848.664,-145.672"/>
<polygon fill="midnightblue" stroke="midnightblue" points="849.55,-149.062 858.607,-143.564 848.098,-142.214 849.55,-149.062"/>
</g>
<!-- Node4&#45;&gt;Node23 -->
<g id="edge23" class="edge"><title>Node4&#45;&gt;Node23</title>
<path fill="none" stroke="midnightblue" d="M596.33,-180.781C583.399,-171.433 566.514,-159.227 553.432,-149.77"/>
<polygon fill="midnightblue" stroke="midnightblue" points="555.232,-146.753 545.077,-143.731 551.131,-152.426 555.232,-146.753"/>
</g>
<!-- Node25 -->
<g id="node25" class="node"><title>Node25</title>
<polygon fill="none" stroke="#bfbfbf" points="436,-68.5 436,-87.5 482,-87.5 482,-68.5 436,-68.5"/>
<text text-anchor="middle" x="459" y="-75.5" font-family="Helvetica,sans-Serif" font-size="10.00">atomic</text>
</g>
<!-- Node4&#45;&gt;Node25 -->
<g id="edge31" class="edge"><title>Node4&#45;&gt;Node25</title>
<path fill="none" stroke="midnightblue" d="M616.943,-180.876C617.205,-165.056 615.125,-139.593 601,-124 597.219,-119.826 532.807,-100.489 492.047,-88.562"/>
<polygon fill="midnightblue" stroke="midnightblue" points="492.825,-85.1432 482.245,-85.7032 490.865,-91.8632 492.825,-85.1432"/>
</g>
<!-- Node4&#45;&gt;Node26 -->
<g id="edge32" class="edge"><title>Node4&#45;&gt;Node26</title>
<path fill="none" stroke="midnightblue" d="M566.294,-185.954C526.138,-177.717 468.664,-163.803 421,-144 404.81,-137.274 403.497,-129.933 387,-124 364.171,-115.789 210.955,-93.6874 140.87,-83.844"/>
<polygon fill="midnightblue" stroke="midnightblue" points="141.152,-80.3493 130.763,-82.4285 140.181,-87.2817 141.152,-80.3493"/>
</g>
<!-- Node27 -->
<g id="node27" class="node"><title>Node27</title>
<g id="a_node27"><a xlink:href="extlib_2tlx_2tlx_2allocator__base_8hpp.html" target="_top" xlink:title="tlx/allocator_base.hpp">
<polygon fill="none" stroke="black" points="1332,-124.5 1332,-143.5 1444,-143.5 1444,-124.5 1332,-124.5"/>
<text text-anchor="middle" x="1388" y="-131.5" font-family="Helvetica,sans-Serif" font-size="10.00">tlx/allocator_base.hpp</text>
</a>
</g>
</g>
<!-- Node4&#45;&gt;Node27 -->
<g id="edge27" class="edge"><title>Node4&#45;&gt;Node27</title>
<path fill="none" stroke="midnightblue" d="M665.762,-191.132C800.061,-180.695 1169.97,-151.945 1321.72,-140.151"/>
<polygon fill="midnightblue" stroke="midnightblue" points="1322.13,-143.63 1331.83,-139.365 1321.59,-136.651 1322.13,-143.63"/>
</g>
<!-- Node4&#45;&gt;Node30 -->
<g id="edge37" class="edge"><title>Node4&#45;&gt;Node30</title>
<path fill="none" stroke="midnightblue" d="M665.755,-190.816C740.408,-184.02 885.598,-168.791 1007,-144 1077.68,-129.567 1158.42,-105.082 1203.58,-90.6378"/>
<polygon fill="midnightblue" stroke="midnightblue" points="1204.76,-93.9375 1213.2,-87.5416 1202.61,-87.2742 1204.76,-93.9375"/>
</g>
<!-- Node4&#45;&gt;Node31 -->
<g id="edge33" class="edge"><title>Node4&#45;&gt;Node31</title>
<path fill="none" stroke="midnightblue" d="M566.473,-187.822C480.527,-175.366 306.071,-150.083 234.128,-139.656"/>
<polygon fill="midnightblue" stroke="midnightblue" points="234.283,-136.142 223.885,-138.172 233.279,-143.07 234.283,-136.142"/>
</g>
<!-- Node4&#45;&gt;Node32 -->
<g id="edge34" class="edge"><title>Node4&#45;&gt;Node32</title>
<path fill="none" stroke="midnightblue" d="M566.267,-187.605C511.775,-179.146 421.643,-164.113 335.549,-144.185"/>
<polygon fill="midnightblue" stroke="midnightblue" points="336.15,-140.731 325.615,-141.859 334.554,-147.547 336.15,-140.731"/>
</g>
<!-- Node4&#45;&gt;Node33 -->
<g id="edge35" class="edge"><title>Node4&#45;&gt;Node33</title>
<path fill="none" stroke="midnightblue" d="M566.232,-184.355C520.927,-174.49 452.267,-159.102 393,-144 391.532,-143.626 390.029,-143.234 388.512,-142.832"/>
<polygon fill="midnightblue" stroke="midnightblue" points="389.133,-139.373 378.563,-140.108 387.284,-146.124 389.133,-139.373"/>
</g>
<!-- Node6 -->
<g id="node6" class="node"><title>Node6</title>
<g id="a_node6"><a xlink:href="define_8hpp.html" target="_top" xlink:title="tlx/define.hpp">
<polygon fill="none" stroke="black" points="767.5,-68.5 767.5,-87.5 842.5,-87.5 842.5,-68.5 767.5,-68.5"/>
<text text-anchor="middle" x="805" y="-75.5" font-family="Helvetica,sans-Serif" font-size="10.00">tlx/define.hpp</text>
</a>
</g>
</g>
<!-- Node5&#45;&gt;Node6 -->
<g id="edge5" class="edge"><title>Node5&#45;&gt;Node6</title>
<path fill="none" stroke="midnightblue" d="M757.158,-124.324C765.501,-116.42 778.032,-104.548 788.177,-94.9377"/>
<polygon fill="midnightblue" stroke="midnightblue" points="790.823,-97.2522 795.675,-87.8339 786.009,-92.1705 790.823,-97.2522"/>
</g>
<!-- Node13 -->
<g id="node13" class="node"><title>Node13</title>
<g id="a_node13"><a xlink:href="unused_8hpp.html" target="_top" xlink:title="tlx/unused.hpp">
<polygon fill="none" stroke="black" points="861,-68.5 861,-87.5 941,-87.5 941,-68.5 861,-68.5"/>
<text text-anchor="middle" x="901" y="-75.5" font-family="Helvetica,sans-Serif" font-size="10.00">tlx/unused.hpp</text>
</a>
</g>
</g>
<!-- Node5&#45;&gt;Node13 -->
<g id="edge12" class="edge"><title>Node5&#45;&gt;Node13</title>
<path fill="none" stroke="midnightblue" d="M772.243,-124.444C797.871,-115.399 838.485,-101.064 867.238,-90.9158"/>
<polygon fill="midnightblue" stroke="midnightblue" points="868.605,-94.1452 876.87,-87.5164 866.275,-87.5442 868.605,-94.1452"/>
</g>
<!-- Node5&#45;&gt;Node14 -->
<g id="edge13" class="edge"><title>Node5&#45;&gt;Node14</title>
<path fill="none" stroke="midnightblue" d="M808.549,-124.849C898.767,-112.668 1059.3,-90.832 1072,-88 1072.1,-87.9778 1072.2,-87.9553 1072.3,-87.9328"/>
<polygon fill="midnightblue" stroke="midnightblue" points="1072.99,-91.3699 1081.77,-85.4461 1071.21,-84.5992 1072.99,-91.3699"/>
</g>
<!-- Node15 -->
<g id="node15" class="node"><title>Node15</title>
<polygon fill="none" stroke="#bfbfbf" points="574.5,-68.5 574.5,-87.5 623.5,-87.5 623.5,-68.5 574.5,-68.5"/>
<text text-anchor="middle" x="599" y="-75.5" font-family="Helvetica,sans-Serif" font-size="10.00">cstdarg</text>
</g>
<!-- Node5&#45;&gt;Node15 -->
<g id="edge14" class="edge"><title>Node5&#45;&gt;Node15</title>
<path fill="none" stroke="midnightblue" d="M724.391,-124.444C699.542,-115.438 660.226,-101.189 632.246,-91.049"/>
<polygon fill="midnightblue" stroke="midnightblue" points="633.093,-87.6332 622.499,-87.5164 630.708,-94.2144 633.093,-87.6332"/>
</g>
<!-- Node16 -->
<g id="node16" class="node"><title>Node16</title>
<polygon fill="none" stroke="#bfbfbf" points="959.5,-68.5 959.5,-87.5 1004.5,-87.5 1004.5,-68.5 959.5,-68.5"/>
<text text-anchor="middle" x="982" y="-75.5" font-family="Helvetica,sans-Serif" font-size="10.00">cstdlib</text>
</g>
<!-- Node5&#45;&gt;Node16 -->
<g id="edge15" class="edge"><title>Node5&#45;&gt;Node16</title>
<path fill="none" stroke="midnightblue" d="M789.552,-124.441C828.422,-116.279 888.308,-103.307 949.488,-88.0193"/>
<polygon fill="midnightblue" stroke="midnightblue" points="950.472,-91.381 959.316,-85.5462 948.764,-84.5927 950.472,-91.381"/>
</g>
<!-- Node17 -->
<g id="node17" class="node"><title>Node17</title>
<polygon fill="none" stroke="#bfbfbf" points="642,-68.5 642,-87.5 682,-87.5 682,-68.5 642,-68.5"/>
<text text-anchor="middle" x="662" y="-75.5" font-family="Helvetica,sans-Serif" font-size="10.00">limits</text>
</g>
<!-- Node5&#45;&gt;Node17 -->
<g id="edge16" class="edge"><title>Node5&#45;&gt;Node17</title>
<path fill="none" stroke="midnightblue" d="M734.183,-124.324C720.767,-115.9 700.176,-102.971 684.414,-93.0741"/>
<polygon fill="midnightblue" stroke="midnightblue" points="686.113,-90.0081 675.783,-87.6545 682.391,-95.9364 686.113,-90.0081"/>
</g>
<!-- Node18 -->
<g id="node18" class="node"><title>Node18</title>
<polygon fill="none" stroke="#bfbfbf" points="700.5,-68.5 700.5,-87.5 749.5,-87.5 749.5,-68.5 700.5,-68.5"/>
<text text-anchor="middle" x="725" y="-75.5" font-family="Helvetica,sans-Serif" font-size="10.00">random</text>
</g>
<!-- Node5&#45;&gt;Node18 -->
<g id="edge17" class="edge"><title>Node5&#45;&gt;Node18</title>
<path fill="none" stroke="midnightblue" d="M744.202,-124.083C741.087,-116.77 736.577,-106.181 732.711,-97.1034"/>
<polygon fill="midnightblue" stroke="midnightblue" points="735.866,-95.5798 728.727,-87.7511 729.426,-98.3229 735.866,-95.5798"/>
</g>
<!-- Node5&#45;&gt;Node19 -->
<g id="edge18" class="edge"><title>Node5&#45;&gt;Node19</title>
<path fill="none" stroke="midnightblue" d="M808.576,-125.047C811.423,-124.69 814.242,-124.339 817,-124 952.297,-107.372 989.998,-113.151 1127.63,-88.0334"/>
<polygon fill="midnightblue" stroke="midnightblue" points="1128.51,-91.4289 1137.71,-86.1708 1127.24,-84.5453 1128.51,-91.4289"/>
</g>
<!-- Node5&#45;&gt;Node20 -->
<g id="edge19" class="edge"><title>Node5&#45;&gt;Node20</title>
<path fill="none" stroke="midnightblue" d="M808.678,-124.869C860.346,-117.453 936.688,-105.336 1012.26,-87.913"/>
<polygon fill="midnightblue" stroke="midnightblue" points="1013.49,-91.2194 1022.43,-85.534 1011.9,-84.4033 1013.49,-91.2194"/>
</g>
<!-- Node5&#45;&gt;Node21 -->
<g id="edge20" class="edge"><title>Node5&#45;&gt;Node21</title>
<path fill="none" stroke="midnightblue" d="M687.482,-127.015C571.822,-115.576 322.998,-90.9668 234.258,-82.1903"/>
<polygon fill="midnightblue" stroke="midnightblue" points="234.545,-78.7018 224.249,-81.2005 233.856,-85.6678 234.545,-78.7018"/>
</g>
<!-- Node7 -->
<g id="node7" class="node"><title>Node7</title>
<g id="a_node7"><a xlink:href="attribute__always__inline_8hpp.html" target="_top" xlink:title="tlx/define/attribute\l_always_inline.hpp">
<polygon fill="none" stroke="black" points="471.5,-1 471.5,-31 570.5,-31 570.5,-1 471.5,-1"/>
<text text-anchor="start" x="479.5" y="-19" font-family="Helvetica,sans-Serif" font-size="10.00">tlx/define/attribute</text>
<text text-anchor="middle" x="521" y="-8" font-family="Helvetica,sans-Serif" font-size="10.00">_always_inline.hpp</text>
</a>
</g>
</g>
<!-- Node6&#45;&gt;Node7 -->
<g id="edge6" class="edge"><title>Node6&#45;&gt;Node7</title>
<path fill="none" stroke="midnightblue" d="M767.261,-69.7542C716.496,-59.9647 627.91,-42.7218 580.617,-32.2785"/>
<polygon fill="midnightblue" stroke="midnightblue" points="581.153,-28.8118 570.629,-30.0319 579.617,-35.6412 581.153,-28.8118"/>
</g>
<!-- Node8 -->
<g id="node8" class="node"><title>Node8</title>
<g id="a_node8"><a xlink:href="attribute__fallthrough_8hpp.html" target="_top" xlink:title="tlx/define/attribute\l_fallthrough.hpp">
<polygon fill="none" stroke="black" points="588.5,-1 588.5,-31 683.5,-31 683.5,-1 588.5,-1"/>
<text text-anchor="start" x="596.5" y="-19" font-family="Helvetica,sans-Serif" font-size="10.00">tlx/define/attribute</text>
<text text-anchor="middle" x="636" y="-8" font-family="Helvetica,sans-Serif" font-size="10.00">_fallthrough.hpp</text>
</a>
</g>
</g>
<!-- Node6&#45;&gt;Node8 -->
<g id="edge7" class="edge"><title>Node6&#45;&gt;Node8</title>
<path fill="none" stroke="midnightblue" d="M780.786,-68.4035C755.89,-59.5644 716.424,-45.553 684.98,-34.3895"/>
<polygon fill="midnightblue" stroke="midnightblue" points="686.099,-31.0728 675.505,-31.0253 683.757,-37.6694 686.099,-31.0728"/>
</g>
<!-- Node9 -->
<g id="node9" class="node"><title>Node9</title>
<g id="a_node9"><a xlink:href="attribute__format__printf_8hpp.html" target="_top" xlink:title="tlx/define/attribute\l_format_printf.hpp">
<polygon fill="none" stroke="black" points="701.5,-1 701.5,-31 796.5,-31 796.5,-1 701.5,-1"/>
<text text-anchor="start" x="709.5" y="-19" font-family="Helvetica,sans-Serif" font-size="10.00">tlx/define/attribute</text>
<text text-anchor="middle" x="749" y="-8" font-family="Helvetica,sans-Serif" font-size="10.00">_format_printf.hpp</text>
</a>
</g>
</g>
<!-- Node6&#45;&gt;Node9 -->
<g id="edge8" class="edge"><title>Node6&#45;&gt;Node9</title>
<path fill="none" stroke="midnightblue" d="M796.977,-68.4035C789.747,-60.657 778.809,-48.9379 769.202,-38.6447"/>
<polygon fill="midnightblue" stroke="midnightblue" points="771.58,-36.0633 762.198,-31.1408 766.463,-40.8395 771.58,-36.0633"/>
</g>
<!-- Node10 -->
<g id="node10" class="node"><title>Node10</title>
<g id="a_node10"><a xlink:href="attribute__packed_8hpp.html" target="_top" xlink:title="tlx/define/attribute\l_packed.hpp">
<polygon fill="none" stroke="black" points="814.5,-1 814.5,-31 909.5,-31 909.5,-1 814.5,-1"/>
<text text-anchor="start" x="822.5" y="-19" font-family="Helvetica,sans-Serif" font-size="10.00">tlx/define/attribute</text>
<text text-anchor="middle" x="862" y="-8" font-family="Helvetica,sans-Serif" font-size="10.00">_packed.hpp</text>
</a>
</g>
</g>
<!-- Node6&#45;&gt;Node10 -->
<g id="edge9" class="edge"><title>Node6&#45;&gt;Node10</title>
<path fill="none" stroke="midnightblue" d="M813.167,-68.4035C820.526,-60.657 831.659,-48.9379 841.438,-38.6447"/>
<polygon fill="midnightblue" stroke="midnightblue" points="844.216,-40.8015 848.566,-31.1408 839.141,-35.9802 844.216,-40.8015"/>
</g>
<!-- Node11 -->
<g id="node11" class="node"><title>Node11</title>
<g id="a_node11"><a xlink:href="attribute__warn__unused__result_8hpp.html" target="_top" xlink:title="tlx/define/attribute\l_warn_unused_result.hpp">
<polygon fill="none" stroke="black" points="928,-1 928,-31 1056,-31 1056,-1 928,-1"/>
<text text-anchor="start" x="936" y="-19" font-family="Helvetica,sans-Serif" font-size="10.00">tlx/define/attribute</text>
<text text-anchor="middle" x="992" y="-8" font-family="Helvetica,sans-Serif" font-size="10.00">_warn_unused_result.hpp</text>
</a>
</g>
</g>
<!-- Node6&#45;&gt;Node11 -->
<g id="edge10" class="edge"><title>Node6&#45;&gt;Node11</title>
<path fill="none" stroke="midnightblue" d="M831.793,-68.4035C859.578,-59.4882 903.764,-45.311 938.7,-34.1014"/>
<polygon fill="midnightblue" stroke="midnightblue" points="939.835,-37.4132 948.288,-31.0253 937.697,-30.7479 939.835,-37.4132"/>
</g>
<!-- Node12 -->
<g id="node12" class="node"><title>Node12</title>
<g id="a_node12"><a xlink:href="likely_8hpp.html" target="_top" xlink:title="tlx/define/likely.hpp">
<polygon fill="none" stroke="black" points="1074.5,-6.5 1074.5,-25.5 1175.5,-25.5 1175.5,-6.5 1074.5,-6.5"/>
<text text-anchor="middle" x="1125" y="-13.5" font-family="Helvetica,sans-Serif" font-size="10.00">tlx/define/likely.hpp</text>
</a>
</g>
</g>
<!-- Node6&#45;&gt;Node12 -->
<g id="edge11" class="edge"><title>Node6&#45;&gt;Node12</title>
<path fill="none" stroke="midnightblue" d="M842.697,-69.7067C845.842,-69.1209 848.975,-68.5452 852,-68 946.487,-50.9707 971.025,-51.6576 1065,-32 1070.79,-30.7888 1076.87,-29.4042 1082.84,-27.9769"/>
<polygon fill="midnightblue" stroke="midnightblue" points="1083.84,-31.3352 1092.72,-25.5577 1082.18,-24.536 1083.84,-31.3352"/>
</g>
<!-- Node22&#45;&gt;Node16 -->
<g id="edge22" class="edge"><title>Node22&#45;&gt;Node16</title>
<path fill="none" stroke="midnightblue" d="M912.335,-124.324C925.162,-115.979 944.785,-103.212 959.94,-93.3524"/>
<polygon fill="midnightblue" stroke="midnightblue" points="962.224,-96.0417 968.698,-87.6545 958.407,-90.1742 962.224,-96.0417"/>
</g>
<!-- Node24 -->
<g id="node24" class="node"><title>Node24</title>
<polygon fill="none" stroke="#bfbfbf" points="500,-68.5 500,-87.5 556,-87.5 556,-68.5 500,-68.5"/>
<text text-anchor="middle" x="528" y="-75.5" font-family="Helvetica,sans-Serif" font-size="10.00">algorithm</text>
</g>
<!-- Node23&#45;&gt;Node24 -->
<g id="edge24" class="edge"><title>Node23&#45;&gt;Node24</title>
<path fill="none" stroke="midnightblue" d="M532.174,-124.083C531.519,-117.006 530.58,-106.861 529.758,-97.9865"/>
<polygon fill="midnightblue" stroke="midnightblue" points="533.217,-97.3858 528.81,-87.7511 526.247,-98.0312 533.217,-97.3858"/>
</g>
<!-- Node23&#45;&gt;Node25 -->
<g id="edge25" class="edge"><title>Node23&#45;&gt;Node25</title>
<path fill="none" stroke="midnightblue" d="M521.111,-124.324C509.85,-116.107 492.713,-103.602 479.291,-93.8069"/>
<polygon fill="midnightblue" stroke="midnightblue" points="481.247,-90.9014 471.106,-87.8339 477.12,-96.5559 481.247,-90.9014"/>
</g>
<!-- Node23&#45;&gt;Node26 -->
<g id="edge26" class="edge"><title>Node23&#45;&gt;Node26</title>
<path fill="none" stroke="midnightblue" d="M473.395,-125.848C401.621,-117.177 277.431,-101.983 171,-88 161.212,-86.714 150.602,-85.2674 140.849,-83.9163"/>
<polygon fill="midnightblue" stroke="midnightblue" points="141.069,-80.4132 130.682,-82.4997 140.103,-87.3462 141.069,-80.4132"/>
</g>
<!-- Node28 -->
<g id="node28" class="node"><title>Node28</title>
<polygon fill="none" stroke="#bfbfbf" points="1523.5,-68.5 1523.5,-87.5 1572.5,-87.5 1572.5,-68.5 1523.5,-68.5"/>
<text text-anchor="middle" x="1548" y="-75.5" font-family="Helvetica,sans-Serif" font-size="10.00">cstddef</text>
</g>
<!-- Node27&#45;&gt;Node28 -->
<g id="edge28" class="edge"><title>Node27&#45;&gt;Node28</title>
<path fill="none" stroke="midnightblue" d="M1413.35,-124.444C1440.43,-115.306 1483.5,-100.769 1513.62,-90.6044"/>
<polygon fill="midnightblue" stroke="midnightblue" points="1514.94,-93.8531 1523.29,-87.339 1512.7,-87.2206 1514.94,-93.8531"/>
</g>
<!-- Node27&#45;&gt;Node29 -->
<g id="edge29" class="edge"><title>Node27&#45;&gt;Node29</title>
<path fill="none" stroke="midnightblue" d="M1401.5,-124.324C1414.6,-115.9 1434.71,-102.971 1450.11,-93.0741"/>
<polygon fill="midnightblue" stroke="midnightblue" points="1452.02,-96.0063 1458.54,-87.6545 1448.23,-90.118 1452.02,-96.0063"/>
</g>
<!-- Node27&#45;&gt;Node30 -->
<g id="edge30" class="edge"><title>Node27&#45;&gt;Node30</title>
<path fill="none" stroke="midnightblue" d="M1364.39,-124.444C1339.54,-115.438 1300.23,-101.189 1272.25,-91.049"/>
<polygon fill="midnightblue" stroke="midnightblue" points="1273.09,-87.6332 1262.5,-87.5164 1270.71,-94.2144 1273.09,-87.6332"/>
</g>
<!-- Node34&#45;&gt;Node4 -->
<g id="edge50" class="edge"><title>Node34&#45;&gt;Node4</title>
<path fill="none" stroke="midnightblue" d="M1181.45,-257.683C1069.52,-245.67 797.434,-216.471 676.113,-203.451"/>
<polygon fill="midnightblue" stroke="midnightblue" points="676.214,-199.942 665.897,-202.355 675.467,-206.902 676.214,-199.942"/>
</g>
<!-- Node34&#45;&gt;Node20 -->
<g id="edge56" class="edge"><title>Node34&#45;&gt;Node20</title>
<path fill="none" stroke="midnightblue" d="M1184.87,-254.457C1157.26,-247.253 1123.16,-234.394 1100,-212 1067.14,-180.23 1052.2,-126.443 1046.3,-97.979"/>
<polygon fill="midnightblue" stroke="midnightblue" points="1049.67,-96.9468 1044.36,-87.7797 1042.79,-98.2584 1049.67,-96.9468"/>
</g>
<!-- Node34&#45;&gt;Node21 -->
<g id="edge59" class="edge"><title>Node34&#45;&gt;Node21</title>
<path fill="none" stroke="midnightblue" d="M1181.22,-261.919C1069.13,-258.899 788.612,-248.066 557,-212 427.901,-191.897 386.003,-206.007 271,-144 248.477,-131.856 227.86,-110.486 215.142,-95.5766"/>
<polygon fill="midnightblue" stroke="midnightblue" points="217.676,-93.1488 208.612,-87.6634 212.277,-97.6041 217.676,-93.1488"/>
</g>
<!-- Node34&#45;&gt;Node24 -->
<g id="edge51" class="edge"><title>Node34&#45;&gt;Node24</title>
<path fill="none" stroke="midnightblue" d="M1181.32,-255.682C1083.45,-240.529 859.411,-202.197 678,-144 633.082,-129.59 583.26,-106.492 553.837,-92.0612"/>
<polygon fill="midnightblue" stroke="midnightblue" points="555.191,-88.8266 544.677,-87.5249 552.085,-95.0994 555.191,-88.8266"/>
</g>
<!-- Node34&#45;&gt;Node28 -->
<g id="edge52" class="edge"><title>Node34&#45;&gt;Node28</title>
<path fill="none" stroke="midnightblue" d="M1280.89,-261.186C1328.35,-257.34 1400.02,-245.834 1452,-212 1496.42,-183.082 1527,-125.901 1540.38,-96.8468"/>
<polygon fill="midnightblue" stroke="midnightblue" points="1543.66,-98.0792 1544.52,-87.5195 1537.26,-95.2364 1543.66,-98.0792"/>
</g>
<!-- Node34&#45;&gt;Node29 -->
<g id="edge54" class="edge"><title>Node34&#45;&gt;Node29</title>
<path fill="none" stroke="midnightblue" d="M1280.52,-256.956C1342.27,-246.378 1444.73,-218.035 1486,-144 1494.15,-129.377 1488.57,-110.461 1482.21,-96.8089"/>
<polygon fill="midnightblue" stroke="midnightblue" points="1485.11,-94.8137 1477.4,-87.5538 1478.9,-98.0412 1485.11,-94.8137"/>
</g>
<!-- Node34&#45;&gt;Node30 -->
<g id="edge57" class="edge"><title>Node34&#45;&gt;Node30</title>
<path fill="none" stroke="midnightblue" d="M1181.28,-255.608C1155.07,-248.909 1125.09,-236.172 1109,-212 1101.12,-200.162 1102.13,-192.456 1109,-180 1123.46,-153.759 1142.06,-162.023 1166,-144 1186.4,-128.641 1208.04,-108.881 1222.41,-95.2003"/>
<polygon fill="midnightblue" stroke="midnightblue" points="1225.19,-97.3824 1229.97,-87.9268 1220.34,-92.3381 1225.19,-97.3824"/>
</g>
<!-- Node35 -->
<g id="node35" class="node"><title>Node35</title>
<g id="a_node35"><a xlink:href="config_8hpp.html" target="_top" xlink:title="thrill/common/config.hpp">
<polygon fill="none" stroke="black" points="1118.5,-186.5 1118.5,-205.5 1241.5,-205.5 1241.5,-186.5 1118.5,-186.5"/>
<text text-anchor="middle" x="1180" y="-193.5" font-family="Helvetica,sans-Serif" font-size="10.00">thrill/common/config.hpp</text>
</a>
</g>
</g>
<!-- Node34&#45;&gt;Node35 -->
<g id="edge49" class="edge"><title>Node34&#45;&gt;Node35</title>
<path fill="none" stroke="midnightblue" d="M1224.33,-254.372C1216.44,-244.151 1203.09,-226.884 1193.1,-213.957"/>
<polygon fill="midnightblue" stroke="midnightblue" points="1195.72,-211.614 1186.83,-205.841 1190.18,-215.894 1195.72,-211.614"/>
</g>
<!-- Node36 -->
<g id="node36" class="node"><title>Node36</title>
<polygon fill="none" stroke="#bfbfbf" points="1260,-186.5 1260,-205.5 1306,-205.5 1306,-186.5 1260,-186.5"/>
<text text-anchor="middle" x="1283" y="-193.5" font-family="Helvetica,sans-Serif" font-size="10.00">cstdint</text>
</g>
<!-- Node34&#45;&gt;Node36 -->
<g id="edge53" class="edge"><title>Node34&#45;&gt;Node36</title>
<path fill="none" stroke="midnightblue" d="M1237.8,-254.372C1245.85,-244.151 1259.46,-226.884 1269.64,-213.957"/>
<polygon fill="midnightblue" stroke="midnightblue" points="1272.59,-215.862 1276.03,-205.841 1267.1,-211.53 1272.59,-215.862"/>
</g>
<!-- Node37 -->
<g id="node37" class="node"><title>Node37</title>
<polygon fill="none" stroke="#bfbfbf" points="1324,-186.5 1324,-205.5 1368,-205.5 1368,-186.5 1324,-186.5"/>
<text text-anchor="middle" x="1346" y="-193.5" font-family="Helvetica,sans-Serif" font-size="10.00">mutex</text>
</g>
<!-- Node34&#45;&gt;Node37 -->
<g id="edge55" class="edge"><title>Node34&#45;&gt;Node37</title>
<path fill="none" stroke="midnightblue" d="M1246.03,-254.372C1265.41,-243.254 1299.3,-223.8 1322.19,-210.662"/>
<polygon fill="midnightblue" stroke="midnightblue" points="1324.03,-213.644 1330.96,-205.63 1320.55,-207.573 1324.03,-213.644"/>
</g>
<!-- Node34&#45;&gt;Node38 -->
<g id="edge58" class="edge"><title>Node34&#45;&gt;Node38</title>
<path fill="none" stroke="midnightblue" d="M1280.56,-259.751C1360.82,-253.769 1515.03,-239.076 1562,-212 1586.09,-198.115 1604.52,-170.969 1614.8,-152.905"/>
<polygon fill="midnightblue" stroke="midnightblue" points="1617.97,-154.404 1619.67,-143.946 1611.82,-151.066 1617.97,-154.404"/>
</g>
<!-- Node39&#45;&gt;Node40 -->
<g id="edge61" class="edge"><title>Node39&#45;&gt;Node40</title>
<path fill="none" stroke="midnightblue" d="M1739.91,-248.679C1725.42,-237.816 1705.57,-222.926 1690.89,-211.919"/>
<polygon fill="midnightblue" stroke="midnightblue" points="1692.62,-208.838 1682.52,-205.638 1688.42,-214.438 1692.62,-208.838"/>
</g>
<!-- Node41 -->
<g id="node41" class="node"><title>Node41</title>
<g id="a_node41"><a xlink:href="call__foreach_8hpp.html" target="_top" xlink:title="tlx/meta/call_foreach.hpp">
<polygon fill="none" stroke="black" points="1708,-186.5 1708,-205.5 1834,-205.5 1834,-186.5 1708,-186.5"/>
<text text-anchor="middle" x="1771" y="-193.5" font-family="Helvetica,sans-Serif" font-size="10.00">tlx/meta/call_foreach.hpp</text>
</a>
</g>
</g>
<!-- Node39&#45;&gt;Node41 -->
<g id="edge62" class="edge"><title>Node39&#45;&gt;Node41</title>
<path fill="none" stroke="midnightblue" d="M1761.6,-248.679C1763.35,-239.101 1765.66,-226.394 1767.55,-215.977"/>
<polygon fill="midnightblue" stroke="midnightblue" points="1771.05,-216.293 1769.39,-205.828 1764.16,-215.041 1771.05,-216.293"/>
</g>
<!-- Node42 -->
<g id="node42" class="node"><title>Node42</title>
<g id="a_node42"><a xlink:href="index__sequence_8hpp.html" target="_top" xlink:title="tlx/meta/index_sequence.hpp">
<polygon fill="none" stroke="black" points="1852,-186.5 1852,-205.5 1996,-205.5 1996,-186.5 1852,-186.5"/>
<text text-anchor="middle" x="1924" y="-193.5" font-family="Helvetica,sans-Serif" font-size="10.00">tlx/meta/index_sequence.hpp</text>
</a>
</g>
</g>
<!-- Node39&#45;&gt;Node42 -->
<g id="edge64" class="edge"><title>Node39&#45;&gt;Node42</title>
<path fill="none" stroke="midnightblue" d="M1794.4,-248.841C1823.7,-237.118 1864.94,-220.624 1892.97,-209.411"/>
<polygon fill="midnightblue" stroke="midnightblue" points="1894.31,-212.646 1902.3,-205.682 1891.71,-206.146 1894.31,-212.646"/>
</g>
<!-- Node41&#45;&gt;Node38 -->
<g id="edge63" class="edge"><title>Node41&#45;&gt;Node38</title>
<path fill="none" stroke="midnightblue" d="M1749.94,-186.403C1724.66,-176.085 1682.1,-158.716 1653.55,-147.059"/>
<polygon fill="midnightblue" stroke="midnightblue" points="1654.66,-143.734 1644.08,-143.195 1652.01,-150.215 1654.66,-143.734"/>
</g>
<!-- Node42&#45;&gt;Node28 -->
<g id="edge65" class="edge"><title>Node42&#45;&gt;Node28</title>
<path fill="none" stroke="midnightblue" d="M1896.35,-186.47C1828.97,-165.682 1656.4,-112.441 1582.46,-89.6322"/>
<polygon fill="midnightblue" stroke="midnightblue" points="1583.29,-86.2259 1572.71,-86.6223 1581.23,-92.9148 1583.29,-86.2259"/>
</g>
</g>
</svg>
