<?xml version="1.0" encoding="UTF-8" standalone="no"?>
<!DOCTYPE svg PUBLIC "-//W3C//DTD SVG 1.1//EN"
 "http://www.w3.org/Graphics/SVG/1.1/DTD/svg11.dtd">
<!-- Generated by graphviz version 2.26.3 (20100126.1600)
 -->
<!-- Title: extlib/tlx/tlx/math/round_to_power_of_two.cpp Pages: 1 -->
<svg width="198pt" height="116pt"
 viewBox="0.00 0.00 198.00 116.00" xmlns="http://www.w3.org/2000/svg" xmlns:xlink="http://www.w3.org/1999/xlink">
<g id="graph1" class="graph" transform="scale(1 1) rotate(0) translate(4 112)">
<title>extlib/tlx/tlx/math/round_to_power_of_two.cpp</title>
<!-- Node1 -->
<g id="node1" class="node"><title>Node1</title>
<polygon fill="#bfbfbf" stroke="black" points="43,-73 43,-107 185,-107 185,-73 43,-73"/>
<text text-anchor="start" x="51" y="-94" font-family="Helvetica,sans-Serif" font-size="10.00">extlib/tlx/tlx/math</text>
<text text-anchor="middle" x="114" y="-81" font-family="Helvetica,sans-Serif" font-size="10.00">/round_to_power_of_two.cpp</text>
</g>
<!-- Node2 -->
<g id="node3" class="node"><title>Node2</title>
<a xlink:href="round__to__power__of__two_8hpp.html" target="_top" xlink:title="tlx/math/round_to_power\l_of_two.hpp">
<polygon fill="none" stroke="black" points="0,-1 0,-35 124,-35 124,-1 0,-1"/>
<text text-anchor="start" x="8" y="-22" font-family="Helvetica,sans-Serif" font-size="10.00">tlx/math/round_to_power</text>
<text text-anchor="middle" x="62" y="-9" font-family="Helvetica,sans-Serif" font-size="10.00">_of_two.hpp</text>
</a>
</g>
<!-- Node1&#45;&gt;Node2 -->
<g id="edge2" class="edge"><title>Node1&#45;&gt;Node2</title>
<path fill="none" stroke="midnightblue" d="M101.677,-72.937C95.3584,-64.1886 87.5338,-53.3545 80.5074,-43.6256"/>
<polygon fill="midnightblue" stroke="midnightblue" points="83.2884,-41.4983 74.596,-35.4407 77.6136,-45.5967 83.2884,-41.4983"/>
</g>
<!-- Node3 -->
<g id="node5" class="node"><title>Node3</title>
<polygon fill="none" stroke="#bfbfbf" points="141.5,-7.5 141.5,-28.5 190.5,-28.5 190.5,-7.5 141.5,-7.5"/>
<text text-anchor="middle" x="166" y="-15.5" font-family="Helvetica,sans-Serif" font-size="10.00">cstddef</text>
</g>
<!-- Node1&#45;&gt;Node3 -->
<g id="edge4" class="edge"><title>Node1&#45;&gt;Node3</title>
<path fill="none" stroke="midnightblue" d="M126.323,-72.937C134.096,-62.1744 144.149,-48.2549 152.191,-37.1203"/>
<polygon fill="midnightblue" stroke="midnightblue" points="155.109,-39.0571 158.127,-28.901 149.435,-34.9586 155.109,-39.0571"/>
</g>
</g>
</svg>
