<?xml version="1.0" encoding="UTF-8" standalone="no"?>
<!DOCTYPE svg PUBLIC "-//W3C//DTD SVG 1.1//EN"
 "http://www.w3.org/Graphics/SVG/1.1/DTD/svg11.dtd">
<!-- Generated by graphviz version 2.26.3 (20100126.1600)
 -->
<!-- Title: thrill/vfs/s3_file.hpp Pages: 1 -->
<svg width="1952pt" height="536pt"
 viewBox="0.00 0.00 1952.00 536.00" xmlns="http://www.w3.org/2000/svg" xmlns:xlink="http://www.w3.org/1999/xlink">
<g id="graph1" class="graph" transform="scale(1 1) rotate(0) translate(4 532)">
<title>thrill/vfs/s3_file.hpp</title>
<!-- Node1 -->
<g id="node1" class="node"><title>Node1</title>
<polygon fill="#bfbfbf" stroke="black" points="231.5,-506.5 231.5,-527.5 332.5,-527.5 332.5,-506.5 231.5,-506.5"/>
<text text-anchor="middle" x="282" y="-514.5" font-family="Helvetica,sans-Serif" font-size="10.00">thrill/vfs/s3_file.hpp</text>
</g>
<!-- Node2 -->
<g id="node3" class="node"><title>Node2</title>
<a xlink:href="file__io_8hpp.html" target="_top" xlink:title="thrill/vfs/file_io.hpp">
<polygon fill="none" stroke="black" points="515,-448.5 515,-469.5 613,-469.5 613,-448.5 515,-448.5"/>
<text text-anchor="middle" x="564" y="-456.5" font-family="Helvetica,sans-Serif" font-size="10.00">thrill/vfs/file_io.hpp</text>
</a>
</g>
<!-- Node1&#45;&gt;Node2 -->
<g id="edge2" class="edge"><title>Node1&#45;&gt;Node2</title>
<path fill="none" stroke="midnightblue" d="M332.742,-506.564C381.057,-496.627 453.765,-481.672 504.723,-471.192"/>
<polygon fill="midnightblue" stroke="midnightblue" points="505.522,-474.601 514.612,-469.158 504.111,-467.744 505.522,-474.601"/>
</g>
<!-- Node26 -->
<g id="node52" class="node"><title>Node26</title>
<polygon fill="none" stroke="#bfbfbf" points="131.5,-72.5 131.5,-93.5 172.5,-93.5 172.5,-72.5 131.5,-72.5"/>
<text text-anchor="middle" x="152" y="-80.5" font-family="Helvetica,sans-Serif" font-size="10.00">string</text>
</g>
<!-- Node1&#45;&gt;Node26 -->
<g id="edge172" class="edge"><title>Node1&#45;&gt;Node26</title>
<path fill="none" stroke="midnightblue" d="M233.843,-506.431C153.3,-487.349 0,-444.408 0,-394 0,-394 0,-394 0,-206 0,-144.115 77.079,-107.995 121.46,-92.3262"/>
<polygon fill="midnightblue" stroke="midnightblue" points="122.834,-95.5562 131.184,-89.0345 120.589,-88.9258 122.834,-95.5562"/>
</g>
<!-- Node3 -->
<g id="node5" class="node"><title>Node3</title>
<a xlink:href="thrill_2common_2math_8hpp.html" target="_top" xlink:title="thrill/common/math.hpp">
<polygon fill="none" stroke="black" points="1813.5,-130.5 1813.5,-151.5 1932.5,-151.5 1932.5,-130.5 1813.5,-130.5"/>
<text text-anchor="middle" x="1873" y="-138.5" font-family="Helvetica,sans-Serif" font-size="10.00">thrill/common/math.hpp</text>
</a>
</g>
<!-- Node2&#45;&gt;Node3 -->
<g id="edge4" class="edge"><title>Node2&#45;&gt;Node3</title>
<path fill="none" stroke="midnightblue" d="M613.114,-457.414C773.695,-452.064 1282.18,-433.798 1445,-412 1618.06,-388.831 1829,-503.608 1829,-329 1829,-329 1829,-329 1829,-271 1829,-230.163 1848.72,-185.739 1861.76,-160.834"/>
<polygon fill="midnightblue" stroke="midnightblue" points="1865.01,-162.172 1866.7,-151.712 1858.86,-158.839 1865.01,-162.172"/>
</g>
<!-- Node9 -->
<g id="node17" class="node"><title>Node9</title>
<a xlink:href="porting_8hpp.html" target="_top" xlink:title="thrill/common/porting.hpp">
<polygon fill="none" stroke="black" points="140,-383.5 140,-404.5 266,-404.5 266,-383.5 140,-383.5"/>
<text text-anchor="middle" x="203" y="-391.5" font-family="Helvetica,sans-Serif" font-size="10.00">thrill/common/porting.hpp</text>
</a>
</g>
<!-- Node2&#45;&gt;Node9 -->
<g id="edge16" class="edge"><title>Node2&#45;&gt;Node9</title>
<path fill="none" stroke="midnightblue" d="M514.938,-450.166C452.098,-438.851 342.834,-419.178 271.73,-406.375"/>
<polygon fill="midnightblue" stroke="midnightblue" points="271.988,-402.865 261.526,-404.538 270.748,-409.755 271.988,-402.865"/>
</g>
<!-- Node2&#45;&gt;Node26 -->
<g id="edge168" class="edge"><title>Node2&#45;&gt;Node26</title>
<path fill="none" stroke="midnightblue" d="M514.952,-457.426C416.556,-453.663 198.711,-442.107 131,-412 80.3778,-389.492 38,-384.401 38,-329 38,-329 38,-329 38,-206 38,-156.366 88.5515,-118.293 122.329,-98.3933"/>
<polygon fill="midnightblue" stroke="midnightblue" points="124.388,-101.249 131.355,-93.268 120.931,-95.1622 124.388,-101.249"/>
</g>
<!-- Node27 -->
<g id="node54" class="node"><title>Node27</title>
<polygon fill="none" stroke="#bfbfbf" points="1148,-72.5 1148,-93.5 1192,-93.5 1192,-72.5 1148,-72.5"/>
<text text-anchor="middle" x="1170" y="-80.5" font-family="Helvetica,sans-Serif" font-size="10.00">vector</text>
</g>
<!-- Node2&#45;&gt;Node27 -->
<g id="edge170" class="edge"><title>Node2&#45;&gt;Node27</title>
<path fill="none" stroke="midnightblue" d="M613.292,-456.594C792.922,-447.178 1402,-409.33 1402,-329 1402,-329 1402,-329 1402,-206 1402,-171.183 1407.96,-154.275 1383,-130 1357.6,-105.299 1255.54,-91.5981 1202.46,-86.0127"/>
<polygon fill="midnightblue" stroke="midnightblue" points="1202.52,-82.5017 1192.22,-84.9729 1201.82,-89.4659 1202.52,-82.5017"/>
</g>
<!-- Node45 -->
<g id="node117" class="node"><title>Node45</title>
<a xlink:href="system__exception_8hpp.html" target="_top" xlink:title="thrill/common/system\l_exception.hpp">
<polygon fill="none" stroke="black" points="509,-377 509,-411 619,-411 619,-377 509,-377"/>
<text text-anchor="start" x="517" y="-398" font-family="Helvetica,sans-Serif" font-size="10.00">thrill/common/system</text>
<text text-anchor="middle" x="564" y="-385" font-family="Helvetica,sans-Serif" font-size="10.00">_exception.hpp</text>
</a>
</g>
<!-- Node2&#45;&gt;Node45 -->
<g id="edge144" class="edge"><title>Node2&#45;&gt;Node45</title>
<path fill="none" stroke="midnightblue" d="M564,-448.267C564,-440.931 564,-430.857 564,-421.38"/>
<polygon fill="midnightblue" stroke="midnightblue" points="567.5,-421.11 564,-411.11 560.5,-421.11 567.5,-421.11"/>
</g>
<!-- Node49 -->
<g id="node126" class="node"><title>Node49</title>
<a xlink:href="counting__ptr_8hpp.html" target="_top" xlink:title="tlx/counting_ptr.hpp">
<polygon fill="none" stroke="black" points="1430,-195.5 1430,-216.5 1532,-216.5 1532,-195.5 1430,-195.5"/>
<text text-anchor="middle" x="1481" y="-203.5" font-family="Helvetica,sans-Serif" font-size="10.00">tlx/counting_ptr.hpp</text>
</a>
</g>
<!-- Node2&#45;&gt;Node49 -->
<g id="edge154" class="edge"><title>Node2&#45;&gt;Node49</title>
<path fill="none" stroke="midnightblue" d="M613.245,-457.822C790.063,-453.393 1384.15,-436.726 1416,-412 1474.19,-366.824 1481.35,-269.678 1481.53,-226.924"/>
<polygon fill="midnightblue" stroke="midnightblue" points="1485.03,-226.81 1481.44,-216.841 1478.03,-226.871 1485.03,-226.81"/>
</g>
<!-- Node4 -->
<g id="node7" class="node"><title>Node4</title>
<polygon fill="none" stroke="#bfbfbf" points="1736,-72.5 1736,-93.5 1792,-93.5 1792,-72.5 1736,-72.5"/>
<text text-anchor="middle" x="1764" y="-80.5" font-family="Helvetica,sans-Serif" font-size="10.00">algorithm</text>
</g>
<!-- Node3&#45;&gt;Node4 -->
<g id="edge6" class="edge"><title>Node3&#45;&gt;Node4</title>
<path fill="none" stroke="midnightblue" d="M1853.26,-130.497C1836.39,-121.519 1811.89,-108.484 1792.83,-98.3387"/>
<polygon fill="midnightblue" stroke="midnightblue" points="1794.43,-95.2289 1783.96,-93.6212 1791.14,-101.409 1794.43,-95.2289"/>
</g>
<!-- Node5 -->
<g id="node9" class="node"><title>Node5</title>
<polygon fill="none" stroke="#bfbfbf" points="1647.5,-72.5 1647.5,-93.5 1696.5,-93.5 1696.5,-72.5 1647.5,-72.5"/>
<text text-anchor="middle" x="1672" y="-80.5" font-family="Helvetica,sans-Serif" font-size="10.00">cassert</text>
</g>
<!-- Node3&#45;&gt;Node5 -->
<g id="edge8" class="edge"><title>Node3&#45;&gt;Node5</title>
<path fill="none" stroke="midnightblue" d="M1836.6,-130.497C1799.58,-119.814 1742.64,-103.385 1706.37,-92.9184"/>
<polygon fill="midnightblue" stroke="midnightblue" points="1707.3,-89.5439 1696.72,-90.1342 1705.36,-96.2695 1707.3,-89.5439"/>
</g>
<!-- Node6 -->
<g id="node11" class="node"><title>Node6</title>
<polygon fill="none" stroke="#bfbfbf" points="1830,-72.5 1830,-93.5 1874,-93.5 1874,-72.5 1830,-72.5"/>
<text text-anchor="middle" x="1852" y="-80.5" font-family="Helvetica,sans-Serif" font-size="10.00">cmath</text>
</g>
<!-- Node3&#45;&gt;Node6 -->
<g id="edge10" class="edge"><title>Node3&#45;&gt;Node6</title>
<path fill="none" stroke="midnightblue" d="M1869.15,-130.362C1866.4,-122.758 1862.61,-112.294 1859.29,-103.135"/>
<polygon fill="midnightblue" stroke="midnightblue" points="1862.52,-101.782 1855.83,-93.5707 1855.94,-104.165 1862.52,-101.782"/>
</g>
<!-- Node7 -->
<g id="node13" class="node"><title>Node7</title>
<polygon fill="none" stroke="#bfbfbf" points="1315,-72.5 1315,-93.5 1355,-93.5 1355,-72.5 1315,-72.5"/>
<text text-anchor="middle" x="1335" y="-80.5" font-family="Helvetica,sans-Serif" font-size="10.00">limits</text>
</g>
<!-- Node3&#45;&gt;Node7 -->
<g id="edge12" class="edge"><title>Node3&#45;&gt;Node7</title>
<path fill="none" stroke="midnightblue" d="M1813.37,-134.571C1698.72,-122.211 1451.27,-95.5343 1365.22,-86.2581"/>
<polygon fill="midnightblue" stroke="midnightblue" points="1365.41,-82.758 1355.09,-85.1659 1364.66,-89.7177 1365.41,-82.758"/>
</g>
<!-- Node8 -->
<g id="node15" class="node"><title>Node8</title>
<polygon fill="none" stroke="#bfbfbf" points="1892,-72.5 1892,-93.5 1944,-93.5 1944,-72.5 1892,-72.5"/>
<text text-anchor="middle" x="1918" y="-80.5" font-family="Helvetica,sans-Serif" font-size="10.00">ostream</text>
</g>
<!-- Node3&#45;&gt;Node8 -->
<g id="edge14" class="edge"><title>Node3&#45;&gt;Node8</title>
<path fill="none" stroke="midnightblue" d="M1881.25,-130.362C1887.47,-122.35 1896.15,-111.161 1903.51,-101.67"/>
<polygon fill="midnightblue" stroke="midnightblue" points="1906.43,-103.617 1909.8,-93.5707 1900.9,-99.326 1906.43,-103.617"/>
</g>
<!-- Node10 -->
<g id="node19" class="node"><title>Node10</title>
<a xlink:href="thrill_2common_2logger_8hpp.html" target="_top" xlink:title="thrill/common/logger.hpp">
<polygon fill="none" stroke="black" points="370.5,-318.5 370.5,-339.5 493.5,-339.5 493.5,-318.5 370.5,-318.5"/>
<text text-anchor="middle" x="432" y="-326.5" font-family="Helvetica,sans-Serif" font-size="10.00">thrill/common/logger.hpp</text>
</a>
</g>
<!-- Node9&#45;&gt;Node10 -->
<g id="edge18" class="edge"><title>Node9&#45;&gt;Node10</title>
<path fill="none" stroke="midnightblue" d="M240.047,-383.484C279.624,-372.251 342.442,-354.421 385.359,-342.239"/>
<polygon fill="midnightblue" stroke="midnightblue" points="386.342,-345.598 395.006,-339.501 384.43,-338.864 386.342,-345.598"/>
</g>
<!-- Node9&#45;&gt;Node26 -->
<g id="edge138" class="edge"><title>Node9&#45;&gt;Node26</title>
<path fill="none" stroke="midnightblue" d="M164.422,-383.499C141.162,-375.274 112.703,-361.54 95,-340 74.8039,-315.426 76,-302.808 76,-271 76,-271 76,-271 76,-206 76,-170.578 80.8592,-159.805 100,-130 107.398,-118.481 118.336,-108.009 128.274,-99.8893"/>
<polygon fill="midnightblue" stroke="midnightblue" points="130.547,-102.555 136.287,-93.6501 126.246,-97.032 130.547,-102.555"/>
</g>
<!-- Node43 -->
<g id="node113" class="node"><title>Node43</title>
<polygon fill="none" stroke="#bfbfbf" points="166,-318.5 166,-339.5 240,-339.5 240,-318.5 166,-318.5"/>
<text text-anchor="middle" x="203" y="-326.5" font-family="Helvetica,sans-Serif" font-size="10.00">system_error</text>
</g>
<!-- Node9&#45;&gt;Node43 -->
<g id="edge140" class="edge"><title>Node9&#45;&gt;Node43</title>
<path fill="none" stroke="midnightblue" d="M203,-383.267C203,-374.18 203,-360.892 203,-349.74"/>
<polygon fill="midnightblue" stroke="midnightblue" points="206.5,-349.534 203,-339.534 199.5,-349.534 206.5,-349.534"/>
</g>
<!-- Node44 -->
<g id="node115" class="node"><title>Node44</title>
<polygon fill="none" stroke="#bfbfbf" points="104,-318.5 104,-339.5 148,-339.5 148,-318.5 104,-318.5"/>
<text text-anchor="middle" x="126" y="-326.5" font-family="Helvetica,sans-Serif" font-size="10.00">thread</text>
</g>
<!-- Node9&#45;&gt;Node44 -->
<g id="edge142" class="edge"><title>Node9&#45;&gt;Node44</title>
<path fill="none" stroke="midnightblue" d="M190.285,-383.267C178.287,-373.139 160.107,-357.792 146.138,-346"/>
<polygon fill="midnightblue" stroke="midnightblue" points="148.377,-343.31 138.478,-339.534 143.862,-348.659 148.377,-343.31"/>
</g>
<!-- Node11 -->
<g id="node21" class="node"><title>Node11</title>
<a xlink:href="allocator_8hpp.html" target="_top" xlink:title="thrill/mem/allocator.hpp">
<polygon fill="none" stroke="black" points="1129,-260.5 1129,-281.5 1247,-281.5 1247,-260.5 1129,-260.5"/>
<text text-anchor="middle" x="1188" y="-268.5" font-family="Helvetica,sans-Serif" font-size="10.00">thrill/mem/allocator.hpp</text>
</a>
</g>
<!-- Node10&#45;&gt;Node11 -->
<g id="edge20" class="edge"><title>Node10&#45;&gt;Node11</title>
<path fill="none" stroke="midnightblue" d="M493.797,-318.989C496.566,-318.635 499.311,-318.303 502,-318 726.708,-292.696 994.468,-279.106 1118.54,-273.749"/>
<polygon fill="midnightblue" stroke="midnightblue" points="1118.82,-277.24 1128.66,-273.316 1118.52,-270.246 1118.82,-277.24"/>
</g>
<!-- Node25 -->
<g id="node50" class="node"><title>Node25</title>
<polygon fill="none" stroke="#bfbfbf" points="1078,-72.5 1078,-93.5 1130,-93.5 1130,-72.5 1078,-72.5"/>
<text text-anchor="middle" x="1104" y="-80.5" font-family="Helvetica,sans-Serif" font-size="10.00">sstream</text>
</g>
<!-- Node10&#45;&gt;Node25 -->
<g id="edge134" class="edge"><title>Node10&#45;&gt;Node25</title>
<path fill="none" stroke="midnightblue" d="M474.367,-318.44C567.925,-294.456 798.355,-231.722 981,-152 1016.22,-136.627 1054.49,-114.169 1078.83,-99.0913"/>
<polygon fill="midnightblue" stroke="midnightblue" points="1080.82,-101.975 1087.44,-93.7042 1077.1,-96.0408 1080.82,-101.975"/>
</g>
<!-- Node10&#45;&gt;Node26 -->
<g id="edge136" class="edge"><title>Node10&#45;&gt;Node26</title>
<path fill="none" stroke="midnightblue" d="M382.672,-318.456C330.419,-304.92 248.623,-276.631 198,-224 165.87,-190.595 156.181,-134.456 153.26,-104.068"/>
<polygon fill="midnightblue" stroke="midnightblue" points="156.724,-103.474 152.439,-93.7841 149.746,-104.031 156.724,-103.474"/>
</g>
<!-- Node38 -->
<g id="node93" class="node"><title>Node38</title>
<a xlink:href="pool_8hpp.html" target="_top" xlink:title="thrill/mem/pool.hpp">
<polygon fill="none" stroke="black" points="457.5,-260.5 457.5,-281.5 556.5,-281.5 556.5,-260.5 457.5,-260.5"/>
<text text-anchor="middle" x="507" y="-268.5" font-family="Helvetica,sans-Serif" font-size="10.00">thrill/mem/pool.hpp</text>
</a>
</g>
<!-- Node10&#45;&gt;Node38 -->
<g id="edge110" class="edge"><title>Node10&#45;&gt;Node38</title>
<path fill="none" stroke="midnightblue" d="M445.756,-318.362C456.751,-309.859 472.373,-297.779 485.086,-287.947"/>
<polygon fill="midnightblue" stroke="midnightblue" points="487.562,-290.457 493.331,-281.571 483.279,-284.919 487.562,-290.457"/>
</g>
<!-- Node11&#45;&gt;Node5 -->
<g id="edge94" class="edge"><title>Node11&#45;&gt;Node5</title>
<path fill="none" stroke="midnightblue" d="M1247.12,-267.173C1339.01,-260.644 1511.55,-245.897 1569,-224 1621.53,-203.978 1646.91,-201.797 1673,-152 1680.8,-137.117 1679.75,-117.831 1677.21,-103.434"/>
<polygon fill="midnightblue" stroke="midnightblue" points="1680.61,-102.581 1675.1,-93.5316 1673.76,-104.042 1680.61,-102.581"/>
</g>
<!-- Node12 -->
<g id="node23" class="node"><title>Node12</title>
<a xlink:href="thrill_2mem_2allocator__base_8hpp.html" target="_top" xlink:title="thrill/mem/allocator\l_base.hpp">
<polygon fill="none" stroke="black" points="1044.5,-189 1044.5,-223 1143.5,-223 1143.5,-189 1044.5,-189"/>
<text text-anchor="start" x="1052.5" y="-210" font-family="Helvetica,sans-Serif" font-size="10.00">thrill/mem/allocator</text>
<text text-anchor="middle" x="1094" y="-197" font-family="Helvetica,sans-Serif" font-size="10.00">_base.hpp</text>
</a>
</g>
<!-- Node11&#45;&gt;Node12 -->
<g id="edge22" class="edge"><title>Node11&#45;&gt;Node12</title>
<path fill="none" stroke="midnightblue" d="M1172.48,-260.267C1160.16,-251.748 1142.5,-239.537 1127.05,-228.854"/>
<polygon fill="midnightblue" stroke="midnightblue" points="1128.96,-225.919 1118.74,-223.11 1124.98,-231.676 1128.96,-225.919"/>
</g>
<!-- Node11&#45;&gt;Node26 -->
<g id="edge104" class="edge"><title>Node11&#45;&gt;Node26</title>
<path fill="none" stroke="midnightblue" d="M1128.8,-268.777C999.572,-263.521 695.791,-248.869 596,-224 556.984,-214.277 551.077,-200.92 513,-188 450.528,-166.803 432.465,-170.004 369,-152 301.717,-132.913 223.795,-107.254 182.071,-93.2222"/>
<polygon fill="midnightblue" stroke="midnightblue" points="183.109,-89.8786 172.514,-89.9986 180.871,-96.5114 183.109,-89.8786"/>
</g>
<!-- Node11&#45;&gt;Node27 -->
<g id="edge108" class="edge"><title>Node11&#45;&gt;Node27</title>
<path fill="none" stroke="midnightblue" d="M1204.88,-260.41C1240.11,-236.961 1315.6,-178.863 1283,-130 1265.2,-103.317 1229.1,-91.7602 1202.47,-86.7683"/>
<polygon fill="midnightblue" stroke="midnightblue" points="1202.87,-83.2868 1192.43,-85.1074 1201.73,-90.1929 1202.87,-83.2868"/>
</g>
<!-- Node29 -->
<g id="node59" class="node"><title>Node29</title>
<a xlink:href="mem_2manager_8hpp.html" target="_top" xlink:title="thrill/mem/manager.hpp">
<polygon fill="none" stroke="black" points="1525.5,-130.5 1525.5,-151.5 1644.5,-151.5 1644.5,-130.5 1525.5,-130.5"/>
<text text-anchor="middle" x="1585" y="-138.5" font-family="Helvetica,sans-Serif" font-size="10.00">thrill/mem/manager.hpp</text>
</a>
</g>
<!-- Node11&#45;&gt;Node29 -->
<g id="edge92" class="edge"><title>Node11&#45;&gt;Node29</title>
<path fill="none" stroke="midnightblue" d="M1247.13,-269.57C1335.01,-266.387 1494.69,-256.22 1541,-224 1562.24,-209.225 1574.05,-180.893 1579.96,-161.477"/>
<polygon fill="midnightblue" stroke="midnightblue" points="1583.36,-162.323 1582.66,-151.751 1576.62,-160.45 1583.36,-162.323"/>
</g>
<!-- Node33 -->
<g id="node69" class="node"><title>Node33</title>
<polygon fill="none" stroke="#bfbfbf" points="316,-72.5 316,-93.5 368,-93.5 368,-72.5 316,-72.5"/>
<text text-anchor="middle" x="342" y="-80.5" font-family="Helvetica,sans-Serif" font-size="10.00">memory</text>
</g>
<!-- Node11&#45;&gt;Node33 -->
<g id="edge100" class="edge"><title>Node11&#45;&gt;Node33</title>
<path fill="none" stroke="midnightblue" d="M1128.92,-263.27C951.06,-239.844 430.915,-170.139 399,-152 378.752,-140.492 362.674,-118.805 352.824,-102.805"/>
<polygon fill="midnightblue" stroke="midnightblue" points="355.582,-100.587 347.515,-93.7186 349.538,-104.118 355.582,-100.587"/>
</g>
<!-- Node34 -->
<g id="node71" class="node"><title>Node34</title>
<polygon fill="none" stroke="#bfbfbf" points="555,-72.5 555,-93.5 617,-93.5 617,-72.5 555,-72.5"/>
<text text-anchor="middle" x="586" y="-80.5" font-family="Helvetica,sans-Serif" font-size="10.00">type_traits</text>
</g>
<!-- Node11&#45;&gt;Node34 -->
<g id="edge106" class="edge"><title>Node11&#45;&gt;Node34</title>
<path fill="none" stroke="midnightblue" d="M1151.96,-260.379C1092.6,-243.19 970.312,-209.08 865,-188 755.358,-166.053 704.872,-219.859 616,-152 600.732,-140.342 593.106,-119.308 589.38,-103.517"/>
<polygon fill="midnightblue" stroke="midnightblue" points="592.788,-102.711 587.377,-93.6022 585.926,-104.097 592.788,-102.711"/>
</g>
<!-- Node35 -->
<g id="node75" class="node"><title>Node35</title>
<polygon fill="none" stroke="#bfbfbf" points="1179.5,-130.5 1179.5,-151.5 1222.5,-151.5 1222.5,-130.5 1179.5,-130.5"/>
<text text-anchor="middle" x="1201" y="-138.5" font-family="Helvetica,sans-Serif" font-size="10.00">deque</text>
</g>
<!-- Node11&#45;&gt;Node35 -->
<g id="edge96" class="edge"><title>Node11&#45;&gt;Node35</title>
<path fill="none" stroke="midnightblue" d="M1189.06,-260.362C1191.22,-238.841 1196.12,-189.807 1198.93,-161.74"/>
<polygon fill="midnightblue" stroke="midnightblue" points="1202.41,-162.084 1199.92,-151.785 1195.44,-161.388 1202.41,-162.084"/>
</g>
<!-- Node36 -->
<g id="node77" class="node"><title>Node36</title>
<polygon fill="none" stroke="#bfbfbf" points="1329.5,-130.5 1329.5,-151.5 1374.5,-151.5 1374.5,-130.5 1329.5,-130.5"/>
<text text-anchor="middle" x="1352" y="-138.5" font-family="Helvetica,sans-Serif" font-size="10.00">iosfwd</text>
</g>
<!-- Node11&#45;&gt;Node36 -->
<g id="edge98" class="edge"><title>Node11&#45;&gt;Node36</title>
<path fill="none" stroke="midnightblue" d="M1245.32,-260.488C1269.57,-253.575 1296.64,-242.284 1316,-224 1333.76,-207.233 1343.22,-180.216 1347.92,-161.585"/>
<polygon fill="midnightblue" stroke="midnightblue" points="1351.36,-162.252 1350.16,-151.725 1344.53,-160.7 1351.36,-162.252"/>
</g>
<!-- Node37 -->
<g id="node79" class="node"><title>Node37</title>
<polygon fill="none" stroke="#bfbfbf" points="1239.5,-130.5 1239.5,-151.5 1274.5,-151.5 1274.5,-130.5 1239.5,-130.5"/>
<text text-anchor="middle" x="1257" y="-138.5" font-family="Helvetica,sans-Serif" font-size="10.00">new</text>
</g>
<!-- Node11&#45;&gt;Node37 -->
<g id="edge102" class="edge"><title>Node11&#45;&gt;Node37</title>
<path fill="none" stroke="midnightblue" d="M1193.65,-260.362C1205.22,-238.555 1231.79,-188.5 1246.58,-160.634"/>
<polygon fill="midnightblue" stroke="midnightblue" points="1249.68,-162.259 1251.28,-151.785 1243.5,-158.977 1249.68,-162.259"/>
</g>
<!-- Node12&#45;&gt;Node5 -->
<g id="edge78" class="edge"><title>Node12&#45;&gt;Node5</title>
<path fill="none" stroke="midnightblue" d="M1105.62,-188.981C1119.04,-170.881 1142.91,-143.094 1171,-130 1181.61,-125.056 1525.65,-95.4442 1637.35,-85.9366"/>
<polygon fill="midnightblue" stroke="midnightblue" points="1637.75,-89.4155 1647.42,-85.0808 1637.16,-82.4407 1637.75,-89.4155"/>
</g>
<!-- Node13 -->
<g id="node25" class="node"><title>Node13</title>
<a xlink:href="thrill_2common_2string_8hpp.html" target="_top" xlink:title="thrill/common/string.hpp">
<polygon fill="none" stroke="black" points="851.5,-130.5 851.5,-151.5 972.5,-151.5 972.5,-130.5 851.5,-130.5"/>
<text text-anchor="middle" x="912" y="-138.5" font-family="Helvetica,sans-Serif" font-size="10.00">thrill/common/string.hpp</text>
</a>
</g>
<!-- Node12&#45;&gt;Node13 -->
<g id="edge24" class="edge"><title>Node12&#45;&gt;Node13</title>
<path fill="none" stroke="midnightblue" d="M1046.18,-188.922C1016.63,-178.37 979.181,-164.993 951.357,-155.056"/>
<polygon fill="midnightblue" stroke="midnightblue" points="952.168,-151.629 941.574,-151.562 949.814,-158.222 952.168,-151.629"/>
</g>
<!-- Node12&#45;&gt;Node26 -->
<g id="edge86" class="edge"><title>Node12&#45;&gt;Node26</title>
<path fill="none" stroke="midnightblue" d="M1044.29,-205.45C929.65,-203.463 638.245,-194.294 399,-152 388.15,-150.082 246.357,-109.863 182.641,-91.731"/>
<polygon fill="midnightblue" stroke="midnightblue" points="183.338,-88.2904 172.761,-88.9185 181.421,-95.0229 183.338,-88.2904"/>
</g>
<!-- Node12&#45;&gt;Node27 -->
<g id="edge90" class="edge"><title>Node12&#45;&gt;Node27</title>
<path fill="none" stroke="midnightblue" d="M1091.29,-188.741C1089.63,-172.458 1089.51,-147.938 1100,-130 1108.79,-114.97 1124.52,-103.76 1138.85,-96.0656"/>
<polygon fill="midnightblue" stroke="midnightblue" points="1140.59,-99.109 1147.97,-91.5119 1137.46,-92.8456 1140.59,-99.109"/>
</g>
<!-- Node28 -->
<g id="node56" class="node"><title>Node28</title>
<a xlink:href="malloc__tracker_8hpp.html" target="_top" xlink:title="thrill/mem/malloc_tracker.hpp">
<polygon fill="none" stroke="black" points="689.5,-130.5 689.5,-151.5 834.5,-151.5 834.5,-130.5 689.5,-130.5"/>
<text text-anchor="middle" x="762" y="-138.5" font-family="Helvetica,sans-Serif" font-size="10.00">thrill/mem/malloc_tracker.hpp</text>
</a>
</g>
<!-- Node12&#45;&gt;Node28 -->
<g id="edge56" class="edge"><title>Node12&#45;&gt;Node28</title>
<path fill="none" stroke="midnightblue" d="M1044.3,-196.269C986.088,-184.873 889.54,-165.97 825.837,-153.498"/>
<polygon fill="midnightblue" stroke="midnightblue" points="826.392,-150.04 815.905,-151.554 825.047,-156.91 826.392,-150.04"/>
</g>
<!-- Node12&#45;&gt;Node29 -->
<g id="edge60" class="edge"><title>Node12&#45;&gt;Node29</title>
<path fill="none" stroke="midnightblue" d="M1143.78,-199.41C1231.7,-187.771 1414.65,-163.551 1515.15,-150.247"/>
<polygon fill="midnightblue" stroke="midnightblue" points="1515.75,-153.698 1525.21,-148.916 1514.83,-146.758 1515.75,-153.698"/>
</g>
<!-- Node30 -->
<g id="node62" class="node"><title>Node30</title>
<polygon fill="none" stroke="#bfbfbf" points="1475,-72.5 1475,-93.5 1521,-93.5 1521,-72.5 1475,-72.5"/>
<text text-anchor="middle" x="1498" y="-80.5" font-family="Helvetica,sans-Serif" font-size="10.00">atomic</text>
</g>
<!-- Node12&#45;&gt;Node30 -->
<g id="edge76" class="edge"><title>Node12&#45;&gt;Node30</title>
<path fill="none" stroke="midnightblue" d="M1098.9,-188.982C1104.99,-171.158 1117.19,-143.868 1138,-130 1164.97,-112.023 1381.03,-92.5901 1464.89,-85.6481"/>
<polygon fill="midnightblue" stroke="midnightblue" points="1465.22,-89.133 1474.9,-84.827 1464.65,-82.1564 1465.22,-89.133"/>
</g>
<!-- Node31 -->
<g id="node65" class="node"><title>Node31</title>
<a xlink:href="extlib_2tlx_2tlx_2allocator__base_8hpp.html" target="_top" xlink:title="tlx/allocator_base.hpp">
<polygon fill="none" stroke="black" points="408,-130.5 408,-151.5 520,-151.5 520,-130.5 408,-130.5"/>
<text text-anchor="middle" x="464" y="-138.5" font-family="Helvetica,sans-Serif" font-size="10.00">tlx/allocator_base.hpp</text>
</a>
</g>
<!-- Node12&#45;&gt;Node31 -->
<g id="edge68" class="edge"><title>Node12&#45;&gt;Node31</title>
<path fill="none" stroke="midnightblue" d="M1044.3,-200.872C931.711,-189.256 657.141,-160.927 530.273,-147.838"/>
<polygon fill="midnightblue" stroke="midnightblue" points="530.603,-144.353 520.297,-146.808 529.885,-151.316 530.603,-144.353"/>
</g>
<!-- Node12&#45;&gt;Node34 -->
<g id="edge88" class="edge"><title>Node12&#45;&gt;Node34</title>
<path fill="none" stroke="midnightblue" d="M1044.33,-200.932C931.736,-189.315 665.429,-161.065 648,-152 626.263,-140.693 608.465,-118.456 597.601,-102.273"/>
<polygon fill="midnightblue" stroke="midnightblue" points="600.369,-100.106 592.028,-93.5727 594.475,-103.881 600.369,-100.106"/>
</g>
<!-- Node12&#45;&gt;Node35 -->
<g id="edge80" class="edge"><title>Node12&#45;&gt;Node35</title>
<path fill="none" stroke="midnightblue" d="M1122.11,-188.922C1138.37,-179.049 1158.69,-166.704 1174.63,-157.016"/>
<polygon fill="midnightblue" stroke="midnightblue" points="1176.73,-159.842 1183.45,-151.658 1173.09,-153.859 1176.73,-159.842"/>
</g>
<!-- Node12&#45;&gt;Node36 -->
<g id="edge82" class="edge"><title>Node12&#45;&gt;Node36</title>
<path fill="none" stroke="midnightblue" d="M1143.74,-193.467C1195.53,-180.421 1275.13,-160.365 1319.42,-149.208"/>
<polygon fill="midnightblue" stroke="midnightblue" points="1320.52,-152.541 1329.36,-146.704 1318.81,-145.753 1320.52,-152.541"/>
</g>
<!-- Node12&#45;&gt;Node37 -->
<g id="edge84" class="edge"><title>Node12&#45;&gt;Node37</title>
<path fill="none" stroke="midnightblue" d="M1138.23,-188.888C1162.91,-179.264 1194.43,-166.858 1229.82,-152.43"/>
<polygon fill="midnightblue" stroke="midnightblue" points="1231.47,-155.538 1239.4,-148.515 1228.82,-149.058 1231.47,-155.538"/>
</g>
<!-- Node13&#45;&gt;Node7 -->
<g id="edge46" class="edge"><title>Node13&#45;&gt;Node7</title>
<path fill="none" stroke="midnightblue" d="M972.606,-132.69C1064.33,-120.113 1235.06,-96.703 1304.47,-87.1857"/>
<polygon fill="midnightblue" stroke="midnightblue" points="1305.28,-90.6074 1314.72,-85.7813 1304.33,-83.6723 1305.28,-90.6074"/>
</g>
<!-- Node14 -->
<g id="node27" class="node"><title>Node14</title>
<a xlink:href="define_8hpp.html" target="_top" xlink:title="tlx/define.hpp">
<polygon fill="none" stroke="black" points="699.5,-72.5 699.5,-93.5 774.5,-93.5 774.5,-72.5 699.5,-72.5"/>
<text text-anchor="middle" x="737" y="-80.5" font-family="Helvetica,sans-Serif" font-size="10.00">tlx/define.hpp</text>
</a>
</g>
<!-- Node13&#45;&gt;Node14 -->
<g id="edge26" class="edge"><title>Node13&#45;&gt;Node14</title>
<path fill="none" stroke="midnightblue" d="M880.309,-130.497C851.779,-121.041 809.664,-107.083 778.465,-96.7428"/>
<polygon fill="midnightblue" stroke="midnightblue" points="779.344,-93.3468 768.751,-93.5231 777.142,-99.9914 779.344,-93.3468"/>
</g>
<!-- Node20 -->
<g id="node39" class="node"><title>Node20</title>
<a xlink:href="unused_8hpp.html" target="_top" xlink:title="tlx/unused.hpp">
<polygon fill="none" stroke="black" points="792,-72.5 792,-93.5 872,-93.5 872,-72.5 792,-72.5"/>
<text text-anchor="middle" x="832" y="-80.5" font-family="Helvetica,sans-Serif" font-size="10.00">tlx/unused.hpp</text>
</a>
</g>
<!-- Node13&#45;&gt;Node20 -->
<g id="edge38" class="edge"><title>Node13&#45;&gt;Node20</title>
<path fill="none" stroke="midnightblue" d="M897.327,-130.362C885.486,-121.777 868.615,-109.546 854.984,-99.6636"/>
<polygon fill="midnightblue" stroke="midnightblue" points="856.731,-96.6067 846.58,-93.5707 852.622,-102.274 856.731,-96.6067"/>
</g>
<!-- Node21 -->
<g id="node41" class="node"><title>Node21</title>
<polygon fill="none" stroke="#bfbfbf" points="890,-72.5 890,-93.5 928,-93.5 928,-72.5 890,-72.5"/>
<text text-anchor="middle" x="909" y="-80.5" font-family="Helvetica,sans-Serif" font-size="10.00">array</text>
</g>
<!-- Node13&#45;&gt;Node21 -->
<g id="edge40" class="edge"><title>Node13&#45;&gt;Node21</title>
<path fill="none" stroke="midnightblue" d="M911.45,-130.362C911.065,-122.922 910.538,-112.743 910.072,-103.728"/>
<polygon fill="midnightblue" stroke="midnightblue" points="913.559,-103.376 909.547,-93.5707 906.568,-103.738 913.559,-103.376"/>
</g>
<!-- Node22 -->
<g id="node43" class="node"><title>Node22</title>
<polygon fill="none" stroke="#bfbfbf" points="945.5,-72.5 945.5,-93.5 994.5,-93.5 994.5,-72.5 945.5,-72.5"/>
<text text-anchor="middle" x="970" y="-80.5" font-family="Helvetica,sans-Serif" font-size="10.00">cstdarg</text>
</g>
<!-- Node13&#45;&gt;Node22 -->
<g id="edge42" class="edge"><title>Node13&#45;&gt;Node22</title>
<path fill="none" stroke="midnightblue" d="M922.638,-130.362C930.896,-122.104 942.528,-110.472 952.197,-100.803"/>
<polygon fill="midnightblue" stroke="midnightblue" points="954.833,-103.117 959.429,-93.5707 949.883,-98.1669 954.833,-103.117"/>
</g>
<!-- Node23 -->
<g id="node45" class="node"><title>Node23</title>
<polygon fill="none" stroke="#bfbfbf" points="637.5,-72.5 637.5,-93.5 682.5,-93.5 682.5,-72.5 637.5,-72.5"/>
<text text-anchor="middle" x="660" y="-80.5" font-family="Helvetica,sans-Serif" font-size="10.00">cstdlib</text>
</g>
<!-- Node13&#45;&gt;Node23 -->
<g id="edge44" class="edge"><title>Node13&#45;&gt;Node23</title>
<path fill="none" stroke="midnightblue" d="M851.918,-130.435C809.535,-122.478 751.323,-110.535 692.418,-94.1715"/>
<polygon fill="midnightblue" stroke="midnightblue" points="693.151,-90.7418 682.576,-91.3975 691.252,-97.4792 693.151,-90.7418"/>
</g>
<!-- Node24 -->
<g id="node48" class="node"><title>Node24</title>
<polygon fill="none" stroke="#bfbfbf" points="1011.5,-72.5 1011.5,-93.5 1060.5,-93.5 1060.5,-72.5 1011.5,-72.5"/>
<text text-anchor="middle" x="1036" y="-80.5" font-family="Helvetica,sans-Serif" font-size="10.00">random</text>
</g>
<!-- Node13&#45;&gt;Node24 -->
<g id="edge48" class="edge"><title>Node13&#45;&gt;Node24</title>
<path fill="none" stroke="midnightblue" d="M934.455,-130.497C953.91,-121.397 982.28,-108.127 1004.09,-97.9253"/>
<polygon fill="midnightblue" stroke="midnightblue" points="1005.72,-101.028 1013.29,-93.6212 1002.75,-94.6878 1005.72,-101.028"/>
</g>
<!-- Node13&#45;&gt;Node25 -->
<g id="edge50" class="edge"><title>Node13&#45;&gt;Node25</title>
<path fill="none" stroke="midnightblue" d="M947.583,-130.498C977.379,-121.671 1021.27,-108.591 1067.95,-94.2977"/>
<polygon fill="midnightblue" stroke="midnightblue" points="1069.1,-97.6057 1077.64,-91.3273 1067.05,-90.9134 1069.1,-97.6057"/>
</g>
<!-- Node13&#45;&gt;Node26 -->
<g id="edge52" class="edge"><title>Node13&#45;&gt;Node26</title>
<path fill="none" stroke="midnightblue" d="M851.464,-130.997C848.606,-130.635 845.774,-130.3 843,-130 566.377,-100.06 494.515,-124.916 218,-94 206.452,-92.7089 193.852,-90.7472 182.784,-88.8362"/>
<polygon fill="midnightblue" stroke="midnightblue" points="183.187,-85.3529 172.728,-87.0431 181.958,-92.2442 183.187,-85.3529"/>
</g>
<!-- Node13&#45;&gt;Node27 -->
<g id="edge54" class="edge"><title>Node13&#45;&gt;Node27</title>
<path fill="none" stroke="midnightblue" d="M972.761,-130.755C1016.45,-122.855 1076.87,-110.844 1137.96,-94.0384"/>
<polygon fill="midnightblue" stroke="midnightblue" points="1139.08,-97.3603 1147.77,-91.2999 1137.19,-90.6182 1139.08,-97.3603"/>
</g>
<!-- Node15 -->
<g id="node29" class="node"><title>Node15</title>
<a xlink:href="attribute__always__inline_8hpp.html" target="_top" xlink:title="tlx/define/attribute\l_always_inline.hpp">
<polygon fill="none" stroke="black" points="461.5,-1 461.5,-35 560.5,-35 560.5,-1 461.5,-1"/>
<text text-anchor="start" x="469.5" y="-22" font-family="Helvetica,sans-Serif" font-size="10.00">tlx/define/attribute</text>
<text text-anchor="middle" x="511" y="-9" font-family="Helvetica,sans-Serif" font-size="10.00">_always_inline.hpp</text>
</a>
</g>
<!-- Node14&#45;&gt;Node15 -->
<g id="edge28" class="edge"><title>Node14&#45;&gt;Node15</title>
<path fill="none" stroke="midnightblue" d="M699.215,-72.7557C667.173,-63.9958 619.765,-50.8644 570.244,-36.3341"/>
<polygon fill="midnightblue" stroke="midnightblue" points="571.228,-32.9753 560.646,-33.5081 569.25,-39.6903 571.228,-32.9753"/>
</g>
<!-- Node16 -->
<g id="node31" class="node"><title>Node16</title>
<a xlink:href="attribute__format__printf_8hpp.html" target="_top" xlink:title="tlx/define/attribute\l_format_printf.hpp">
<polygon fill="none" stroke="black" points="577.5,-1 577.5,-35 672.5,-35 672.5,-1 577.5,-1"/>
<text text-anchor="start" x="585.5" y="-22" font-family="Helvetica,sans-Serif" font-size="10.00">tlx/define/attribute</text>
<text text-anchor="middle" x="625" y="-9" font-family="Helvetica,sans-Serif" font-size="10.00">_format_printf.hpp</text>
</a>
</g>
<!-- Node14&#45;&gt;Node16 -->
<g id="edge30" class="edge"><title>Node14&#45;&gt;Node16</title>
<path fill="none" stroke="midnightblue" d="M718.505,-72.2666C703.555,-63.5901 682.004,-51.083 663.36,-40.2622"/>
<polygon fill="midnightblue" stroke="midnightblue" points="664.887,-37.1023 654.482,-35.1099 661.374,-43.1565 664.887,-37.1023"/>
</g>
<!-- Node17 -->
<g id="node33" class="node"><title>Node17</title>
<a xlink:href="attribute__packed_8hpp.html" target="_top" xlink:title="tlx/define/attribute\l_packed.hpp">
<polygon fill="none" stroke="black" points="689.5,-1 689.5,-35 784.5,-35 784.5,-1 689.5,-1"/>
<text text-anchor="start" x="697.5" y="-22" font-family="Helvetica,sans-Serif" font-size="10.00">tlx/define/attribute</text>
<text text-anchor="middle" x="737" y="-9" font-family="Helvetica,sans-Serif" font-size="10.00">_packed.hpp</text>
</a>
</g>
<!-- Node14&#45;&gt;Node17 -->
<g id="edge32" class="edge"><title>Node14&#45;&gt;Node17</title>
<path fill="none" stroke="midnightblue" d="M737,-72.2666C737,-64.931 737,-54.8573 737,-45.3796"/>
<polygon fill="midnightblue" stroke="midnightblue" points="740.5,-45.1098 737,-35.1099 733.5,-45.1099 740.5,-45.1098"/>
</g>
<!-- Node18 -->
<g id="node35" class="node"><title>Node18</title>
<a xlink:href="attribute__warn__unused__result_8hpp.html" target="_top" xlink:title="tlx/define/attribute\l_warn_unused_result.hpp">
<polygon fill="none" stroke="black" points="802,-1 802,-35 930,-35 930,-1 802,-1"/>
<text text-anchor="start" x="810" y="-22" font-family="Helvetica,sans-Serif" font-size="10.00">tlx/define/attribute</text>
<text text-anchor="middle" x="866" y="-9" font-family="Helvetica,sans-Serif" font-size="10.00">_warn_unused_result.hpp</text>
</a>
</g>
<!-- Node14&#45;&gt;Node18 -->
<g id="edge34" class="edge"><title>Node14&#45;&gt;Node18</title>
<path fill="none" stroke="midnightblue" d="M758.013,-72.412C775.505,-63.5984 800.983,-50.7606 822.799,-39.768"/>
<polygon fill="midnightblue" stroke="midnightblue" points="824.535,-42.8124 831.891,-35.1869 821.385,-36.5612 824.535,-42.8124"/>
</g>
<!-- Node19 -->
<g id="node37" class="node"><title>Node19</title>
<a xlink:href="likely_8hpp.html" target="_top" xlink:title="tlx/define/likely.hpp">
<polygon fill="none" stroke="black" points="947.5,-7.5 947.5,-28.5 1048.5,-28.5 1048.5,-7.5 947.5,-7.5"/>
<text text-anchor="middle" x="998" y="-15.5" font-family="Helvetica,sans-Serif" font-size="10.00">tlx/define/likely.hpp</text>
</a>
</g>
<!-- Node14&#45;&gt;Node19 -->
<g id="edge36" class="edge"><title>Node14&#45;&gt;Node19</title>
<path fill="none" stroke="midnightblue" d="M774.65,-73.9711C777.475,-73.3015 780.282,-72.6385 783,-72 852.269,-55.7254 870.263,-54.3929 939,-36 944.237,-34.5986 949.71,-33.0476 955.121,-31.4608"/>
<polygon fill="midnightblue" stroke="midnightblue" points="956.15,-34.8066 964.73,-28.5909 954.146,-28.0994 956.15,-34.8066"/>
</g>
<!-- Node28&#45;&gt;Node23 -->
<g id="edge58" class="edge"><title>Node28&#45;&gt;Node23</title>
<path fill="none" stroke="midnightblue" d="M743.292,-130.362C727.619,-121.45 705.036,-108.609 687.337,-98.5447"/>
<polygon fill="midnightblue" stroke="midnightblue" points="689.013,-95.4712 678.59,-93.5707 685.553,-101.556 689.013,-95.4712"/>
</g>
<!-- Node29&#45;&gt;Node4 -->
<g id="edge62" class="edge"><title>Node29&#45;&gt;Node4</title>
<path fill="none" stroke="midnightblue" d="M1617.42,-130.497C1648.09,-120.556 1694.13,-105.64 1726.4,-95.1823"/>
<polygon fill="midnightblue" stroke="midnightblue" points="1727.51,-98.5025 1735.95,-92.0904 1725.35,-91.8433 1727.51,-98.5025"/>
</g>
<!-- Node29&#45;&gt;Node5 -->
<g id="edge66" class="edge"><title>Node29&#45;&gt;Node5</title>
<path fill="none" stroke="midnightblue" d="M1600.96,-130.362C1613.96,-121.696 1632.53,-109.313 1647.43,-99.3819"/>
<polygon fill="midnightblue" stroke="midnightblue" points="1649.76,-102.03 1656.14,-93.5707 1645.88,-96.2055 1649.76,-102.03"/>
</g>
<!-- Node29&#45;&gt;Node30 -->
<g id="edge64" class="edge"><title>Node29&#45;&gt;Node30</title>
<path fill="none" stroke="midnightblue" d="M1569.04,-130.362C1556.04,-121.696 1537.47,-109.313 1522.57,-99.3819"/>
<polygon fill="midnightblue" stroke="midnightblue" points="1524.12,-96.2055 1513.86,-93.5707 1520.24,-102.03 1524.12,-96.2055"/>
</g>
<!-- Node32 -->
<g id="node67" class="node"><title>Node32</title>
<polygon fill="none" stroke="#bfbfbf" points="226.5,-72.5 226.5,-93.5 275.5,-93.5 275.5,-72.5 226.5,-72.5"/>
<text text-anchor="middle" x="251" y="-80.5" font-family="Helvetica,sans-Serif" font-size="10.00">cstddef</text>
</g>
<!-- Node31&#45;&gt;Node32 -->
<g id="edge70" class="edge"><title>Node31&#45;&gt;Node32</title>
<path fill="none" stroke="midnightblue" d="M425.427,-130.497C385.479,-119.619 323.647,-102.782 285.337,-92.3499"/>
<polygon fill="midnightblue" stroke="midnightblue" points="286.231,-88.9659 275.662,-89.7155 284.391,-95.72 286.231,-88.9659"/>
</g>
<!-- Node31&#45;&gt;Node33 -->
<g id="edge72" class="edge"><title>Node31&#45;&gt;Node33</title>
<path fill="none" stroke="midnightblue" d="M441.907,-130.497C422.766,-121.397 394.854,-108.127 373.395,-97.9253"/>
<polygon fill="midnightblue" stroke="midnightblue" points="374.875,-94.7539 364.341,-93.6212 371.87,-101.076 374.875,-94.7539"/>
</g>
<!-- Node31&#45;&gt;Node34 -->
<g id="edge74" class="edge"><title>Node31&#45;&gt;Node34</title>
<path fill="none" stroke="midnightblue" d="M486.093,-130.497C505.234,-121.397 533.146,-108.127 554.605,-97.9253"/>
<polygon fill="midnightblue" stroke="midnightblue" points="556.13,-101.076 563.659,-93.6212 553.125,-94.7539 556.13,-101.076"/>
</g>
<!-- Node38&#45;&gt;Node4 -->
<g id="edge116" class="edge"><title>Node38&#45;&gt;Node4</title>
<path fill="none" stroke="midnightblue" d="M556.555,-269.822C749.514,-265.087 1444.73,-246.611 1541,-224 1618.1,-205.892 1640.26,-199.01 1704,-152 1722.83,-138.11 1739.87,-117.339 1750.94,-102.216"/>
<polygon fill="midnightblue" stroke="midnightblue" points="1754.09,-103.824 1757.02,-93.6421 1748.38,-99.7739 1754.09,-103.824"/>
</g>
<!-- Node38&#45;&gt;Node12 -->
<g id="edge114" class="edge"><title>Node38&#45;&gt;Node12</title>
<path fill="none" stroke="midnightblue" d="M556.541,-265.514C663.997,-253.615 918.141,-225.473 1034.26,-212.616"/>
<polygon fill="midnightblue" stroke="midnightblue" points="1034.83,-216.074 1044.38,-211.494 1034.06,-209.116 1034.83,-216.074"/>
</g>
<!-- Node38&#45;&gt;Node26 -->
<g id="edge126" class="edge"><title>Node38&#45;&gt;Node26</title>
<path fill="none" stroke="midnightblue" d="M457.333,-267.84C387.271,-262.523 263.937,-249.746 228,-224 206.499,-208.596 174.989,-138.233 160.216,-103.092"/>
<polygon fill="midnightblue" stroke="midnightblue" points="163.425,-101.693 156.356,-93.8014 156.96,-104.379 163.425,-101.693"/>
</g>
<!-- Node38&#45;&gt;Node27 -->
<g id="edge132" class="edge"><title>Node38&#45;&gt;Node27</title>
<path fill="none" stroke="midnightblue" d="M555.908,-260.489C642.404,-241.507 827.71,-199.084 981,-152 1037.25,-134.724 1101.3,-110.309 1138.54,-95.6293"/>
<polygon fill="midnightblue" stroke="midnightblue" points="1139.85,-98.8763 1147.85,-91.9393 1137.27,-92.3683 1139.85,-98.8763"/>
</g>
<!-- Node38&#45;&gt;Node32 -->
<g id="edge118" class="edge"><title>Node38&#45;&gt;Node32</title>
<path fill="none" stroke="midnightblue" d="M457.443,-269.338C389.624,-265.902 273.285,-255.462 247,-224 218.489,-189.873 232.438,-133.216 242.956,-103.163"/>
<polygon fill="midnightblue" stroke="midnightblue" points="246.262,-104.316 246.458,-93.7225 239.699,-101.881 246.262,-104.316"/>
</g>
<!-- Node38&#45;&gt;Node33 -->
<g id="edge122" class="edge"><title>Node38&#45;&gt;Node33</title>
<path fill="none" stroke="midnightblue" d="M511.934,-260.428C519.179,-243.156 530.091,-208.737 513,-188 459.726,-123.36 381.274,-216.64 328,-152 316.649,-138.227 322.801,-117.718 330.183,-102.638"/>
<polygon fill="midnightblue" stroke="midnightblue" points="333.371,-104.1 335.039,-93.6373 327.21,-100.776 333.371,-104.1"/>
</g>
<!-- Node38&#45;&gt;Node34 -->
<g id="edge128" class="edge"><title>Node38&#45;&gt;Node34</title>
<path fill="none" stroke="midnightblue" d="M518.088,-260.39C526.836,-251.445 538.736,-237.91 546,-224 566.064,-185.577 560.034,-171.662 572,-130 574.484,-121.351 577.303,-111.833 579.757,-103.637"/>
<polygon fill="midnightblue" stroke="midnightblue" points="583.185,-104.394 582.714,-93.8096 576.481,-102.377 583.185,-104.394"/>
</g>
<!-- Node39 -->
<g id="node95" class="node"><title>Node39</title>
<a xlink:href="config_8hpp.html" target="_top" xlink:title="thrill/common/config.hpp">
<polygon fill="none" stroke="black" points="255.5,-195.5 255.5,-216.5 378.5,-216.5 378.5,-195.5 255.5,-195.5"/>
<text text-anchor="middle" x="317" y="-203.5" font-family="Helvetica,sans-Serif" font-size="10.00">thrill/common/config.hpp</text>
</a>
</g>
<!-- Node38&#45;&gt;Node39 -->
<g id="edge112" class="edge"><title>Node38&#45;&gt;Node39</title>
<path fill="none" stroke="midnightblue" d="M476.05,-260.412C443.755,-249.364 392.974,-231.991 357.506,-219.857"/>
<polygon fill="midnightblue" stroke="midnightblue" points="358.531,-216.509 347.936,-216.584 356.265,-223.132 358.531,-216.509"/>
</g>
<!-- Node40 -->
<g id="node100" class="node"><title>Node40</title>
<polygon fill="none" stroke="#bfbfbf" points="396,-195.5 396,-216.5 442,-216.5 442,-195.5 396,-195.5"/>
<text text-anchor="middle" x="419" y="-203.5" font-family="Helvetica,sans-Serif" font-size="10.00">cstdint</text>
</g>
<!-- Node38&#45;&gt;Node40 -->
<g id="edge120" class="edge"><title>Node38&#45;&gt;Node40</title>
<path fill="none" stroke="midnightblue" d="M492.469,-260.267C478.629,-250.044 457.59,-234.504 441.568,-222.67"/>
<polygon fill="midnightblue" stroke="midnightblue" points="443.384,-219.66 433.261,-216.534 439.225,-225.29 443.384,-219.66"/>
</g>
<!-- Node41 -->
<g id="node103" class="node"><title>Node41</title>
<polygon fill="none" stroke="#bfbfbf" points="460,-195.5 460,-216.5 504,-216.5 504,-195.5 460,-195.5"/>
<text text-anchor="middle" x="482" y="-203.5" font-family="Helvetica,sans-Serif" font-size="10.00">mutex</text>
</g>
<!-- Node38&#45;&gt;Node41 -->
<g id="edge124" class="edge"><title>Node38&#45;&gt;Node41</title>
<path fill="none" stroke="midnightblue" d="M502.872,-260.267C499.304,-250.991 494.052,-237.336 489.71,-226.045"/>
<polygon fill="midnightblue" stroke="midnightblue" points="492.908,-224.611 486.051,-216.534 486.375,-227.124 492.908,-224.611"/>
</g>
<!-- Node42 -->
<g id="node107" class="node"><title>Node42</title>
<polygon fill="none" stroke="#bfbfbf" points="1430,-130.5 1430,-151.5 1470,-151.5 1470,-130.5 1430,-130.5"/>
<text text-anchor="middle" x="1450" y="-138.5" font-family="Helvetica,sans-Serif" font-size="10.00">utility</text>
</g>
<!-- Node38&#45;&gt;Node42 -->
<g id="edge130" class="edge"><title>Node38&#45;&gt;Node42</title>
<path fill="none" stroke="midnightblue" d="M556.735,-268.659C687.304,-262.307 1037.65,-243.887 1152,-224 1252.16,-206.581 1367.14,-169.539 1420.25,-151.42"/>
<polygon fill="midnightblue" stroke="midnightblue" points="1421.41,-154.723 1429.73,-148.163 1419.13,-148.103 1421.41,-154.723"/>
</g>
<!-- Node45&#45;&gt;Node26 -->
<g id="edge152" class="edge"><title>Node45&#45;&gt;Node26</title>
<path fill="none" stroke="midnightblue" d="M508.955,-383.532C441.279,-368.829 324.855,-337.445 239,-282 205.631,-260.45 191.703,-257.901 171,-224 148.157,-186.594 147.852,-133.3 149.816,-104.115"/>
<polygon fill="midnightblue" stroke="midnightblue" points="153.328,-104.117 150.671,-93.8609 146.353,-103.536 153.328,-104.117"/>
</g>
<!-- Node46 -->
<g id="node119" class="node"><title>Node46</title>
<polygon fill="none" stroke="#bfbfbf" points="511,-318.5 511,-339.5 555,-339.5 555,-318.5 511,-318.5"/>
<text text-anchor="middle" x="533" y="-326.5" font-family="Helvetica,sans-Serif" font-size="10.00">cerrno</text>
</g>
<!-- Node45&#45;&gt;Node46 -->
<g id="edge146" class="edge"><title>Node45&#45;&gt;Node46</title>
<path fill="none" stroke="midnightblue" d="M555.855,-376.922C551.789,-368.395 546.843,-358.025 542.593,-349.115"/>
<polygon fill="midnightblue" stroke="midnightblue" points="545.64,-347.371 538.176,-339.852 539.321,-350.385 545.64,-347.371"/>
</g>
<!-- Node47 -->
<g id="node121" class="node"><title>Node47</title>
<polygon fill="none" stroke="#bfbfbf" points="573,-318.5 573,-339.5 619,-339.5 619,-318.5 573,-318.5"/>
<text text-anchor="middle" x="596" y="-326.5" font-family="Helvetica,sans-Serif" font-size="10.00">cstring</text>
</g>
<!-- Node45&#45;&gt;Node47 -->
<g id="edge148" class="edge"><title>Node45&#45;&gt;Node47</title>
<path fill="none" stroke="midnightblue" d="M572.408,-376.922C576.65,-368.304 581.821,-357.802 586.238,-348.828"/>
<polygon fill="midnightblue" stroke="midnightblue" points="589.381,-350.37 590.657,-339.852 583.1,-347.278 589.381,-350.37"/>
</g>
<!-- Node48 -->
<g id="node123" class="node"><title>Node48</title>
<polygon fill="none" stroke="#bfbfbf" points="636.5,-318.5 636.5,-339.5 695.5,-339.5 695.5,-318.5 636.5,-318.5"/>
<text text-anchor="middle" x="666" y="-326.5" font-family="Helvetica,sans-Serif" font-size="10.00">stdexcept</text>
</g>
<!-- Node45&#45;&gt;Node48 -->
<g id="edge150" class="edge"><title>Node45&#45;&gt;Node48</title>
<path fill="none" stroke="midnightblue" d="M590.799,-376.922C606.148,-367.141 625.303,-354.934 640.439,-345.289"/>
<polygon fill="midnightblue" stroke="midnightblue" points="642.722,-347.984 649.275,-339.658 638.96,-342.081 642.722,-347.984"/>
</g>
<!-- Node49&#45;&gt;Node4 -->
<g id="edge156" class="edge"><title>Node49&#45;&gt;Node4</title>
<path fill="none" stroke="midnightblue" d="M1532.22,-197.041C1572.03,-188.81 1627.89,-174.433 1673,-152 1700.31,-138.42 1727.66,-116.246 1745.13,-100.71"/>
<polygon fill="midnightblue" stroke="midnightblue" points="1747.83,-102.995 1752.88,-93.6832 1743.12,-97.8109 1747.83,-102.995"/>
</g>
<!-- Node49&#45;&gt;Node5 -->
<g id="edge160" class="edge"><title>Node49&#45;&gt;Node5</title>
<path fill="none" stroke="midnightblue" d="M1532.33,-195.566C1576.65,-185.568 1636.16,-169.453 1653,-152 1665.43,-139.122 1669.89,-118.892 1671.41,-103.66"/>
<polygon fill="midnightblue" stroke="midnightblue" points="1674.9,-103.837 1672.07,-93.6285 1667.92,-103.377 1674.9,-103.837"/>
</g>
<!-- Node49&#45;&gt;Node30 -->
<g id="edge158" class="edge"><title>Node49&#45;&gt;Node30</title>
<path fill="none" stroke="midnightblue" d="M1482.51,-195.085C1485.34,-174.609 1491.49,-130.133 1495.13,-103.778"/>
<polygon fill="midnightblue" stroke="midnightblue" points="1498.62,-104.1 1496.52,-93.7153 1491.68,-103.142 1498.62,-104.1"/>
</g>
<!-- Node49&#45;&gt;Node34 -->
<g id="edge164" class="edge"><title>Node49&#45;&gt;Node34</title>
<path fill="none" stroke="midnightblue" d="M1429.91,-203.333C1259.05,-194.309 716.253,-164.78 681,-152 672.822,-149.035 633.31,-119.345 607.888,-99.8884"/>
<polygon fill="midnightblue" stroke="midnightblue" points="609.936,-97.0483 599.872,-93.7359 605.674,-102.601 609.936,-97.0483"/>
</g>
<!-- Node49&#45;&gt;Node36 -->
<g id="edge162" class="edge"><title>Node49&#45;&gt;Node36</title>
<path fill="none" stroke="midnightblue" d="M1459.99,-195.412C1438.81,-184.741 1405.93,-168.172 1382.01,-156.12"/>
<polygon fill="midnightblue" stroke="midnightblue" points="1383.51,-152.958 1373,-151.584 1380.36,-159.209 1383.51,-152.958"/>
</g>
<!-- Node49&#45;&gt;Node42 -->
<g id="edge166" class="edge"><title>Node49&#45;&gt;Node42</title>
<path fill="none" stroke="midnightblue" d="M1475.88,-195.267C1471.41,-185.896 1464.81,-172.057 1459.4,-160.7"/>
<polygon fill="midnightblue" stroke="midnightblue" points="1462.49,-159.053 1455.02,-151.534 1456.17,-162.066 1462.49,-159.053"/>
</g>
</g>
</svg>
