<?xml version="1.0" encoding="UTF-8" standalone="no"?>
<!DOCTYPE svg PUBLIC "-//W3C//DTD SVG 1.1//EN"
 "http://www.w3.org/Graphics/SVG/1.1/DTD/svg11.dtd">
<!-- Generated by graphviz version 2.26.3 (20100126.1600)
 -->
<!-- Title: thrill/common/semaphore.hpp Pages: 1 -->
<svg width="170pt" height="88pt"
 viewBox="0.00 0.00 170.00 88.00" xmlns="http://www.w3.org/2000/svg" xmlns:xlink="http://www.w3.org/1999/xlink">
<g id="graph1" class="graph" transform="scale(1 1) rotate(0) translate(4 84)">
<title>thrill/common/semaphore.hpp</title>
<!-- Node1 -->
<g id="node1" class="node"><title>Node1</title>
<polygon fill="#bfbfbf" stroke="black" points="17.5,-58.5 17.5,-79.5 162.5,-79.5 162.5,-58.5 17.5,-58.5"/>
<text text-anchor="middle" x="90" y="-66.5" font-family="Helvetica,sans-Serif" font-size="10.00">thrill/common/semaphore.hpp</text>
</g>
<!-- Node2 -->
<g id="node3" class="node"><title>Node2</title>
<polygon fill="none" stroke="#bfbfbf" points="-0.5,-0.5 -0.5,-21.5 94.5,-21.5 94.5,-0.5 -0.5,-0.5"/>
<text text-anchor="middle" x="47" y="-8.5" font-family="Helvetica,sans-Serif" font-size="10.00">condition_variable</text>
</g>
<!-- Node1&#45;&gt;Node2 -->
<g id="edge2" class="edge"><title>Node1&#45;&gt;Node2</title>
<path fill="none" stroke="midnightblue" d="M82.1131,-58.3619C76.173,-50.3496 67.8776,-39.1605 60.8412,-29.6696"/>
<polygon fill="midnightblue" stroke="midnightblue" points="63.6041,-27.5193 54.8369,-21.5707 57.9809,-31.6883 63.6041,-27.5193"/>
</g>
<!-- Node3 -->
<g id="node5" class="node"><title>Node3</title>
<polygon fill="none" stroke="#bfbfbf" points="112,-0.5 112,-21.5 156,-21.5 156,-0.5 112,-0.5"/>
<text text-anchor="middle" x="134" y="-8.5" font-family="Helvetica,sans-Serif" font-size="10.00">mutex</text>
</g>
<!-- Node1&#45;&gt;Node3 -->
<g id="edge4" class="edge"><title>Node1&#45;&gt;Node3</title>
<path fill="none" stroke="midnightblue" d="M98.0703,-58.3619C104.149,-50.3496 112.637,-39.1605 119.837,-29.6696"/>
<polygon fill="midnightblue" stroke="midnightblue" points="122.725,-31.653 125.981,-21.5707 117.149,-27.4222 122.725,-31.653"/>
</g>
</g>
</svg>
