<?xml version="1.0" encoding="UTF-8" standalone="no"?>
<!DOCTYPE svg PUBLIC "-//W3C//DTD SVG 1.1//EN"
 "http://www.w3.org/Graphics/SVG/1.1/DTD/svg11.dtd">
<!-- Generated by graphviz version 2.36.0 (20140111.2315)
 -->
<!-- Title: extlib/foxxll/foxxll/io/serving_request.hpp Pages: 1 -->
<svg width="912pt" height="254pt"
 viewBox="0.00 0.00 912.00 254.00" xmlns="http://www.w3.org/2000/svg" xmlns:xlink="http://www.w3.org/1999/xlink">
<g id="graph0" class="graph" transform="scale(1 1) rotate(0) translate(4 250)">
<title>extlib/foxxll/foxxll/io/serving_request.hpp</title>
<!-- Node1 -->
<g id="node1" class="node"><title>Node1</title>
<polygon fill="#bfbfbf" stroke="black" points="380,-215 380,-245 498,-245 498,-215 380,-215"/>
<text text-anchor="start" x="388" y="-233" font-family="Helvetica,sans-Serif" font-size="10.00">extlib/foxxll/foxxll</text>
<text text-anchor="middle" x="439" y="-222" font-family="Helvetica,sans-Serif" font-size="10.00">/io/serving_request.hpp</text>
</g>
<!-- Node2 -->
<g id="node2" class="node"><title>Node2</title>
<g id="a_node2"><a xlink:href="disk__queued__file_8cpp.html" target="_top" xlink:title="extlib/foxxll/foxxll\l/io/disk_queued_file.cpp">
<polygon fill="none" stroke="black" points="0,-69 0,-99 122,-99 122,-69 0,-69"/>
<text text-anchor="start" x="8" y="-87" font-family="Helvetica,sans-Serif" font-size="10.00">extlib/foxxll/foxxll</text>
<text text-anchor="middle" x="61" y="-76" font-family="Helvetica,sans-Serif" font-size="10.00">/io/disk_queued_file.cpp</text>
</a>
</g>
</g>
<!-- Node1&#45;&gt;Node2 -->
<g id="edge1" class="edge"><title>Node1&#45;&gt;Node2</title>
<path fill="none" stroke="midnightblue" d="M369.833,-219.711C323.665,-212.03 262.255,-198.921 211,-178 159.936,-157.157 106.523,-119.647 79.3097,-99.212"/>
<polygon fill="midnightblue" stroke="midnightblue" points="369.309,-223.172 379.739,-221.315 370.427,-216.262 369.309,-223.172"/>
</g>
<!-- Node3 -->
<g id="node3" class="node"><title>Node3</title>
<g id="a_node3"><a xlink:href="disk__queues_8cpp.html" target="_top" xlink:title="extlib/foxxll/foxxll\l/io/disk_queues.cpp">
<polygon fill="none" stroke="black" points="140,-69 140,-99 244,-99 244,-69 140,-69"/>
<text text-anchor="start" x="148" y="-87" font-family="Helvetica,sans-Serif" font-size="10.00">extlib/foxxll/foxxll</text>
<text text-anchor="middle" x="192" y="-76" font-family="Helvetica,sans-Serif" font-size="10.00">/io/disk_queues.cpp</text>
</a>
</g>
</g>
<!-- Node1&#45;&gt;Node3 -->
<g id="edge2" class="edge"><title>Node1&#45;&gt;Node3</title>
<path fill="none" stroke="midnightblue" d="M369.923,-222.814C331.55,-216.5 284.7,-203.748 250,-178 222.494,-157.59 204.994,-119.904 197.028,-99.3265"/>
<polygon fill="midnightblue" stroke="midnightblue" points="369.577,-226.302 379.992,-224.357 370.638,-219.383 369.577,-226.302"/>
</g>
<!-- Node4 -->
<g id="node4" class="node"><title>Node4</title>
<g id="a_node4"><a xlink:href="disk__queues_8hpp.html" target="_top" xlink:title="extlib/foxxll/foxxll\l/io/disk_queues.hpp">
<polygon fill="none" stroke="black" points="259,-142 259,-172 363,-172 363,-142 259,-142"/>
<text text-anchor="start" x="267" y="-160" font-family="Helvetica,sans-Serif" font-size="10.00">extlib/foxxll/foxxll</text>
<text text-anchor="middle" x="311" y="-149" font-family="Helvetica,sans-Serif" font-size="10.00">/io/disk_queues.hpp</text>
</a>
</g>
</g>
<!-- Node1&#45;&gt;Node4 -->
<g id="edge3" class="edge"><title>Node1&#45;&gt;Node4</title>
<path fill="none" stroke="midnightblue" d="M404.919,-210.096C383.489,-198.209 356.282,-183.118 336.674,-172.241"/>
<polygon fill="midnightblue" stroke="midnightblue" points="403.269,-213.183 413.711,-214.973 406.664,-207.061 403.269,-213.183"/>
</g>
<!-- Node11 -->
<g id="node11" class="node"><title>Node11</title>
<g id="a_node11"><a xlink:href="fileperblock__file_8cpp.html" target="_top" xlink:title="extlib/foxxll/foxxll\l/io/fileperblock_file.cpp">
<polygon fill="none" stroke="black" points="381,-142 381,-172 497,-172 497,-142 381,-142"/>
<text text-anchor="start" x="389" y="-160" font-family="Helvetica,sans-Serif" font-size="10.00">extlib/foxxll/foxxll</text>
<text text-anchor="middle" x="439" y="-149" font-family="Helvetica,sans-Serif" font-size="10.00">/io/fileperblock_file.cpp</text>
</a>
</g>
</g>
<!-- Node1&#45;&gt;Node11 -->
<g id="edge12" class="edge"><title>Node1&#45;&gt;Node11</title>
<path fill="none" stroke="midnightblue" d="M439,-204.898C439,-194.131 439,-181.801 439,-172.486"/>
<polygon fill="midnightblue" stroke="midnightblue" points="435.5,-204.973 439,-214.973 442.5,-204.973 435.5,-204.973"/>
</g>
<!-- Node12 -->
<g id="node12" class="node"><title>Node12</title>
<g id="a_node12"><a xlink:href="request__queue__impl__1q_8cpp.html" target="_top" xlink:title="extlib/foxxll/foxxll\l/io/request_queue_impl\l_1q.cpp">
<polygon fill="none" stroke="black" points="515.5,-136.5 515.5,-177.5 632.5,-177.5 632.5,-136.5 515.5,-136.5"/>
<text text-anchor="start" x="523.5" y="-165.5" font-family="Helvetica,sans-Serif" font-size="10.00">extlib/foxxll/foxxll</text>
<text text-anchor="start" x="523.5" y="-154.5" font-family="Helvetica,sans-Serif" font-size="10.00">/io/request_queue_impl</text>
<text text-anchor="middle" x="574" y="-143.5" font-family="Helvetica,sans-Serif" font-size="10.00">_1q.cpp</text>
</a>
</g>
</g>
<!-- Node1&#45;&gt;Node12 -->
<g id="edge13" class="edge"><title>Node1&#45;&gt;Node12</title>
<path fill="none" stroke="midnightblue" d="M474.695,-210.227C493.882,-200.136 517.513,-187.708 536.908,-177.507"/>
<polygon fill="midnightblue" stroke="midnightblue" points="472.893,-207.22 465.672,-214.973 476.151,-213.416 472.893,-207.22"/>
</g>
<!-- Node13 -->
<g id="node13" class="node"><title>Node13</title>
<g id="a_node13"><a xlink:href="request__queue__impl__qwqr_8cpp.html" target="_top" xlink:title="extlib/foxxll/foxxll\l/io/request_queue_impl\l_qwqr.cpp">
<polygon fill="none" stroke="black" points="650.5,-136.5 650.5,-177.5 767.5,-177.5 767.5,-136.5 650.5,-136.5"/>
<text text-anchor="start" x="658.5" y="-165.5" font-family="Helvetica,sans-Serif" font-size="10.00">extlib/foxxll/foxxll</text>
<text text-anchor="start" x="658.5" y="-154.5" font-family="Helvetica,sans-Serif" font-size="10.00">/io/request_queue_impl</text>
<text text-anchor="middle" x="709" y="-143.5" font-family="Helvetica,sans-Serif" font-size="10.00">_qwqr.cpp</text>
</a>
</g>
</g>
<!-- Node1&#45;&gt;Node13 -->
<g id="edge14" class="edge"><title>Node1&#45;&gt;Node13</title>
<path fill="none" stroke="midnightblue" d="M506.8,-212.578C546.092,-202.887 596.451,-190.17 641,-178 644.086,-177.157 647.247,-176.279 650.436,-175.381"/>
<polygon fill="midnightblue" stroke="midnightblue" points="505.933,-209.186 497.059,-214.974 507.606,-215.984 505.933,-209.186"/>
</g>
<!-- Node14 -->
<g id="node14" class="node"><title>Node14</title>
<g id="a_node14"><a xlink:href="serving__request_8cpp.html" target="_top" xlink:title="extlib/foxxll/foxxll\l/io/serving_request.cpp">
<polygon fill="none" stroke="black" points="786,-142 786,-172 904,-172 904,-142 786,-142"/>
<text text-anchor="start" x="794" y="-160" font-family="Helvetica,sans-Serif" font-size="10.00">extlib/foxxll/foxxll</text>
<text text-anchor="middle" x="845" y="-149" font-family="Helvetica,sans-Serif" font-size="10.00">/io/serving_request.cpp</text>
</a>
</g>
</g>
<!-- Node1&#45;&gt;Node14 -->
<g id="edge15" class="edge"><title>Node1&#45;&gt;Node14</title>
<path fill="none" stroke="midnightblue" d="M508.411,-221.212C576.891,-212.893 684.331,-198.13 776,-178 783.675,-176.315 791.751,-174.248 799.566,-172.089"/>
<polygon fill="midnightblue" stroke="midnightblue" points="507.69,-217.774 498.18,-222.443 508.526,-224.724 507.69,-217.774"/>
</g>
<!-- Node4&#45;&gt;Node2 -->
<g id="edge4" class="edge"><title>Node4&#45;&gt;Node2</title>
<path fill="none" stroke="midnightblue" d="M251.843,-139.199C208.858,-126.992 151.336,-110.655 110.717,-99.1195"/>
<polygon fill="midnightblue" stroke="midnightblue" points="251.032,-142.608 261.608,-141.973 252.945,-135.874 251.032,-142.608"/>
</g>
<!-- Node4&#45;&gt;Node3 -->
<g id="edge5" class="edge"><title>Node4&#45;&gt;Node3</title>
<path fill="none" stroke="midnightblue" d="M278.781,-136.777C258.941,-124.939 233.936,-110.02 215.869,-99.2412"/>
<polygon fill="midnightblue" stroke="midnightblue" points="277.108,-139.855 287.489,-141.973 280.695,-133.843 277.108,-139.855"/>
</g>
<!-- Node5 -->
<g id="node5" class="node"><title>Node5</title>
<g id="a_node5"><a xlink:href="request__with__state_8cpp.html" target="_top" xlink:title="extlib/foxxll/foxxll\l/io/request_with_state.cpp">
<polygon fill="none" stroke="black" points="527.5,-69 527.5,-99 658.5,-99 658.5,-69 527.5,-69"/>
<text text-anchor="start" x="535.5" y="-87" font-family="Helvetica,sans-Serif" font-size="10.00">extlib/foxxll/foxxll</text>
<text text-anchor="middle" x="593" y="-76" font-family="Helvetica,sans-Serif" font-size="10.00">/io/request_with_state.cpp</text>
</a>
</g>
</g>
<!-- Node4&#45;&gt;Node5 -->
<g id="edge6" class="edge"><title>Node4&#45;&gt;Node5</title>
<path fill="none" stroke="midnightblue" d="M361.841,-138.952C365.269,-137.92 368.679,-136.926 372,-136 423.776,-121.57 483.169,-108.028 527.336,-98.5306"/>
<polygon fill="midnightblue" stroke="midnightblue" points="360.709,-135.639 352.191,-141.938 362.778,-142.326 360.709,-135.639"/>
</g>
<!-- Node6 -->
<g id="node6" class="node"><title>Node6</title>
<g id="a_node6"><a xlink:href="io_8hpp.html" target="_top" xlink:title="extlib/foxxll/foxxll\l/io.hpp">
<polygon fill="none" stroke="black" points="677,-69 677,-99 769,-99 769,-69 677,-69"/>
<text text-anchor="start" x="685" y="-87" font-family="Helvetica,sans-Serif" font-size="10.00">extlib/foxxll/foxxll</text>
<text text-anchor="middle" x="723" y="-76" font-family="Helvetica,sans-Serif" font-size="10.00">/io.hpp</text>
</a>
</g>
</g>
<!-- Node4&#45;&gt;Node6 -->
<g id="edge7" class="edge"><title>Node4&#45;&gt;Node6</title>
<path fill="none" stroke="midnightblue" d="M359.667,-139.112C363.811,-137.959 367.961,-136.899 372,-136 500.925,-107.288 537.333,-125.149 667,-100 670.261,-99.3676 673.611,-98.649 676.974,-97.8769"/>
<polygon fill="midnightblue" stroke="midnightblue" points="358.664,-135.759 350.062,-141.945 360.644,-142.473 358.664,-135.759"/>
</g>
<!-- Node8 -->
<g id="node8" class="node"><title>Node8</title>
<g id="a_node8"><a xlink:href="block__manager_8cpp.html" target="_top" xlink:title="extlib/foxxll/foxxll\l/mng/block_manager.cpp">
<polygon fill="none" stroke="black" points="262,-69 262,-99 388,-99 388,-69 262,-69"/>
<text text-anchor="start" x="270" y="-87" font-family="Helvetica,sans-Serif" font-size="10.00">extlib/foxxll/foxxll</text>
<text text-anchor="middle" x="325" y="-76" font-family="Helvetica,sans-Serif" font-size="10.00">/mng/block_manager.cpp</text>
</a>
</g>
</g>
<!-- Node4&#45;&gt;Node8 -->
<g id="edge9" class="edge"><title>Node4&#45;&gt;Node8</title>
<path fill="none" stroke="midnightblue" d="M315.753,-131.898C317.875,-121.131 320.307,-108.801 322.144,-99.4856"/>
<polygon fill="midnightblue" stroke="midnightblue" points="312.267,-131.484 313.766,-141.973 319.134,-132.839 312.267,-131.484"/>
</g>
<!-- Node9 -->
<g id="node9" class="node"><title>Node9</title>
<g id="a_node9"><a xlink:href="buf__writer_8hpp.html" target="_top" xlink:title="extlib/foxxll/foxxll\l/mng/buf_writer.hpp">
<polygon fill="none" stroke="black" points="406.5,-69 406.5,-99 509.5,-99 509.5,-69 406.5,-69"/>
<text text-anchor="start" x="414.5" y="-87" font-family="Helvetica,sans-Serif" font-size="10.00">extlib/foxxll/foxxll</text>
<text text-anchor="middle" x="458" y="-76" font-family="Helvetica,sans-Serif" font-size="10.00">/mng/buf_writer.hpp</text>
</a>
</g>
</g>
<!-- Node4&#45;&gt;Node9 -->
<g id="edge10" class="edge"><title>Node4&#45;&gt;Node9</title>
<path fill="none" stroke="midnightblue" d="M349.185,-137.557C374.031,-125.557 405.938,-110.145 428.767,-99.1195"/>
<polygon fill="midnightblue" stroke="midnightblue" points="347.525,-134.472 340.042,-141.973 350.569,-140.775 347.525,-134.472"/>
</g>
<!-- Node7 -->
<g id="node7" class="node"><title>Node7</title>
<g id="a_node7"><a xlink:href="create__file_8cpp.html" target="_top" xlink:title="extlib/foxxll/foxxll\l/io/create_file.cpp">
<polygon fill="none" stroke="black" points="676,-1 676,-31 770,-31 770,-1 676,-1"/>
<text text-anchor="start" x="684" y="-19" font-family="Helvetica,sans-Serif" font-size="10.00">extlib/foxxll/foxxll</text>
<text text-anchor="middle" x="723" y="-8" font-family="Helvetica,sans-Serif" font-size="10.00">/io/create_file.cpp</text>
</a>
</g>
</g>
<!-- Node6&#45;&gt;Node7 -->
<g id="edge8" class="edge"><title>Node6&#45;&gt;Node7</title>
<path fill="none" stroke="midnightblue" d="M723,-58.5322C723,-49.3606 723,-39.2449 723,-31.2931"/>
<polygon fill="midnightblue" stroke="midnightblue" points="719.5,-58.6789 723,-68.679 726.5,-58.679 719.5,-58.6789"/>
</g>
<!-- Node10 -->
<g id="node10" class="node"><title>Node10</title>
<g id="a_node10"><a xlink:href="buf__ostream_8hpp.html" target="_top" xlink:title="extlib/foxxll/foxxll\l/mng/buf_ostream.hpp">
<polygon fill="none" stroke="black" points="401,-1 401,-31 515,-31 515,-1 401,-1"/>
<text text-anchor="start" x="409" y="-19" font-family="Helvetica,sans-Serif" font-size="10.00">extlib/foxxll/foxxll</text>
<text text-anchor="middle" x="458" y="-8" font-family="Helvetica,sans-Serif" font-size="10.00">/mng/buf_ostream.hpp</text>
</a>
</g>
</g>
<!-- Node9&#45;&gt;Node10 -->
<g id="edge11" class="edge"><title>Node9&#45;&gt;Node10</title>
<path fill="none" stroke="midnightblue" d="M458,-58.5322C458,-49.3606 458,-39.2449 458,-31.2931"/>
<polygon fill="midnightblue" stroke="midnightblue" points="454.5,-58.6789 458,-68.679 461.5,-58.679 454.5,-58.6789"/>
</g>
</g>
</svg>
