<?xml version="1.0" encoding="UTF-8" standalone="no"?>
<!DOCTYPE svg PUBLIC "-//W3C//DTD SVG 1.1//EN"
 "http://www.w3.org/Graphics/SVG/1.1/DTD/svg11.dtd">
<!-- Generated by graphviz version 2.40.1 (20161225.0304)
 -->
<!-- Title: extlib/tlx/tlx/logger/set.hpp Pages: 1 -->
<svg width="255pt" height="151pt"
 viewBox="0.00 0.00 254.50 151.00" xmlns="http://www.w3.org/2000/svg" xmlns:xlink="http://www.w3.org/1999/xlink">
<g id="graph0" class="graph" transform="scale(1 1) rotate(0) translate(4 147)">
<title>extlib/tlx/tlx/logger/set.hpp</title>
<!-- Node0 -->
<g id="node1" class="node">
<title>Node0</title>
<polygon fill="#bfbfbf" stroke="#000000" points="116,-112.5 116,-142.5 226,-142.5 226,-112.5 116,-112.5"/>
<text text-anchor="start" x="124" y="-130.5" font-family="Helvetica,sans-Serif" font-size="10.00" fill="#000000">extlib/tlx/tlx/logger</text>
<text text-anchor="middle" x="171" y="-119.5" font-family="Helvetica,sans-Serif" font-size="10.00" fill="#000000">/set.hpp</text>
</g>
<!-- Node1 -->
<g id="node2" class="node">
<title>Node1</title>
<g id="a_node2"><a xlink:href="logger_2core_8hpp.html" target="_top" xlink:title="tlx/logger/core.hpp">
<polygon fill="none" stroke="#000000" points="73,-56.5 73,-75.5 181,-75.5 181,-56.5 73,-56.5"/>
<text text-anchor="middle" x="127" y="-63.5" font-family="Helvetica,sans-Serif" font-size="10.00" fill="#000000">tlx/logger/core.hpp</text>
</a>
</g>
</g>
<!-- Node0&#45;&gt;Node1 -->
<g id="edge1" class="edge">
<title>Node0&#45;&gt;Node1</title>
<path fill="none" stroke="#191970" d="M160.1236,-112.2977C154.0159,-103.7609 146.3561,-93.0545 139.9412,-84.0883"/>
<polygon fill="#191970" stroke="#191970" points="142.7101,-81.9433 134.045,-75.8469 137.0171,-86.0163 142.7101,-81.9433"/>
</g>
<!-- Node6 -->
<g id="node7" class="node">
<title>Node6</title>
<polygon fill="none" stroke="#bfbfbf" points="199,-56.5 199,-75.5 231,-75.5 231,-56.5 199,-56.5"/>
<text text-anchor="middle" x="215" y="-63.5" font-family="Helvetica,sans-Serif" font-size="10.00" fill="#000000">set</text>
</g>
<!-- Node0&#45;&gt;Node6 -->
<g id="edge6" class="edge">
<title>Node0&#45;&gt;Node6</title>
<path fill="none" stroke="#191970" d="M181.8764,-112.2977C187.9841,-103.7609 195.6439,-93.0545 202.0588,-84.0883"/>
<polygon fill="#191970" stroke="#191970" points="204.9829,-86.0163 207.955,-75.8469 199.2899,-81.9433 204.9829,-86.0163"/>
</g>
<!-- Node2 -->
<g id="node3" class="node">
<title>Node2</title>
<polygon fill="none" stroke="#bfbfbf" points="0,-.5 0,-19.5 56,-19.5 56,-.5 0,-.5"/>
<text text-anchor="middle" x="28" y="-7.5" font-family="Helvetica,sans-Serif" font-size="10.00" fill="#000000">sstream</text>
</g>
<!-- Node1&#45;&gt;Node2 -->
<g id="edge2" class="edge">
<title>Node1&#45;&gt;Node2</title>
<path fill="none" stroke="#191970" d="M109.7555,-56.2455C94.4239,-47.5731 71.7801,-34.7645 54.2084,-24.825"/>
<polygon fill="#191970" stroke="#191970" points="55.4741,-21.5198 45.0469,-19.6427 52.0276,-27.6126 55.4741,-21.5198"/>
</g>
<!-- Node3 -->
<g id="node4" class="node">
<title>Node3</title>
<polygon fill="none" stroke="#bfbfbf" points="74,-.5 74,-19.5 118,-19.5 118,-.5 74,-.5"/>
<text text-anchor="middle" x="96" y="-7.5" font-family="Helvetica,sans-Serif" font-size="10.00" fill="#000000">string</text>
</g>
<!-- Node1&#45;&gt;Node3 -->
<g id="edge3" class="edge">
<title>Node1&#45;&gt;Node3</title>
<path fill="none" stroke="#191970" d="M121.6002,-56.2455C117.3773,-48.617 111.3827,-37.7881 106.2559,-28.5267"/>
<polygon fill="#191970" stroke="#191970" points="109.2432,-26.6965 101.3379,-19.6427 103.119,-30.0867 109.2432,-26.6965"/>
</g>
<!-- Node4 -->
<g id="node5" class="node">
<title>Node4</title>
<polygon fill="none" stroke="#bfbfbf" points="136.5,-.5 136.5,-19.5 181.5,-19.5 181.5,-.5 136.5,-.5"/>
<text text-anchor="middle" x="159" y="-7.5" font-family="Helvetica,sans-Serif" font-size="10.00" fill="#000000">utility</text>
</g>
<!-- Node1&#45;&gt;Node4 -->
<g id="edge4" class="edge">
<title>Node1&#45;&gt;Node4</title>
<path fill="none" stroke="#191970" d="M132.574,-56.2455C136.9331,-48.617 143.1211,-37.7881 148.4133,-28.5267"/>
<polygon fill="#191970" stroke="#191970" points="151.5673,-30.0616 153.4899,-19.6427 145.4896,-26.5886 151.5673,-30.0616"/>
</g>
<!-- Node5 -->
<g id="node6" class="node">
<title>Node5</title>
<polygon fill="none" stroke="#bfbfbf" points="199.5,-.5 199.5,-19.5 246.5,-19.5 246.5,-.5 199.5,-.5"/>
<text text-anchor="middle" x="223" y="-7.5" font-family="Helvetica,sans-Serif" font-size="10.00" fill="#000000">vector</text>
</g>
<!-- Node1&#45;&gt;Node5 -->
<g id="edge5" class="edge">
<title>Node1&#45;&gt;Node5</title>
<path fill="none" stroke="#191970" d="M143.7219,-56.2455C158.5889,-47.5731 180.5466,-34.7645 197.5858,-24.825"/>
<polygon fill="#191970" stroke="#191970" points="199.5955,-27.7047 206.4697,-19.6427 196.0683,-21.6582 199.5955,-27.7047"/>
</g>
</g>
</svg>
