<?xml version="1.0" encoding="UTF-8" standalone="no"?>
<!DOCTYPE svg PUBLIC "-//W3C//DTD SVG 1.1//EN"
 "http://www.w3.org/Graphics/SVG/1.1/DTD/svg11.dtd">
<!-- Generated by graphviz version 2.40.1 (20161225.0304)
 -->
<!-- Title: extlib/tlx/tlx/digest/sha256.hpp Pages: 1 -->
<svg width="266pt" height="106pt"
 viewBox="0.00 0.00 265.50 106.00" xmlns="http://www.w3.org/2000/svg" xmlns:xlink="http://www.w3.org/1999/xlink">
<g id="graph0" class="graph" transform="scale(1 1) rotate(0) translate(4 102)">
<title>extlib/tlx/tlx/digest/sha256.hpp</title>
<!-- Node3 -->
<g id="node1" class="node">
<title>Node3</title>
<polygon fill="#bfbfbf" stroke="#000000" points="69,-67.5 69,-97.5 178,-97.5 178,-67.5 69,-67.5"/>
<text text-anchor="start" x="77" y="-85.5" font-family="Helvetica,sans-Serif" font-size="10.00" fill="#000000">extlib/tlx/tlx/digest</text>
<text text-anchor="middle" x="123.5" y="-74.5" font-family="Helvetica,sans-Serif" font-size="10.00" fill="#000000">/sha256.hpp</text>
</g>
<!-- Node4 -->
<g id="node2" class="node">
<title>Node4</title>
<g id="a_node2"><a xlink:href="sha256_8cpp.html" target="_top" xlink:title="extlib/tlx/tlx/digest\l/sha256.cpp">
<polygon fill="none" stroke="#000000" points="0,-.5 0,-30.5 109,-30.5 109,-.5 0,-.5"/>
<text text-anchor="start" x="8" y="-18.5" font-family="Helvetica,sans-Serif" font-size="10.00" fill="#000000">extlib/tlx/tlx/digest</text>
<text text-anchor="middle" x="54.5" y="-7.5" font-family="Helvetica,sans-Serif" font-size="10.00" fill="#000000">/sha256.cpp</text>
</a>
</g>
</g>
<!-- Node3&#45;&gt;Node4 -->
<g id="edge1" class="edge">
<title>Node3&#45;&gt;Node4</title>
<path fill="none" stroke="#191970" d="M100.546,-60.2113C90.5457,-50.5009 79.0824,-39.3698 70.0952,-30.6432"/>
<polygon fill="#191970" stroke="#191970" points="98.2303,-62.8413 107.8428,-67.2967 103.1068,-57.8193 98.2303,-62.8413"/>
</g>
<!-- Node5 -->
<g id="node3" class="node">
<title>Node5</title>
<g id="a_node3"><a xlink:href="digest_8hpp.html" target="_top" xlink:title="extlib/tlx/tlx/digest.hpp">
<polygon fill="none" stroke="#000000" points="127.5,-6 127.5,-25 257.5,-25 257.5,-6 127.5,-6"/>
<text text-anchor="middle" x="192.5" y="-13" font-family="Helvetica,sans-Serif" font-size="10.00" fill="#000000">extlib/tlx/tlx/digest.hpp</text>
</a>
</g>
</g>
<!-- Node3&#45;&gt;Node5 -->
<g id="edge2" class="edge">
<title>Node3&#45;&gt;Node5</title>
<path fill="none" stroke="#191970" d="M146.4623,-60.2032C158.7586,-48.2634 173.2648,-34.1776 182.6598,-25.055"/>
<polygon fill="#191970" stroke="#191970" points="143.8932,-57.8193 139.1572,-67.2967 148.7697,-62.8413 143.8932,-57.8193"/>
</g>
</g>
</svg>
