<?xml version="1.0" encoding="UTF-8" standalone="no"?>
<!DOCTYPE svg PUBLIC "-//W3C//DTD SVG 1.1//EN"
 "http://www.w3.org/Graphics/SVG/1.1/DTD/svg11.dtd">
<!-- Generated by graphviz version 2.36.0 (20140111.2315)
 -->
<!-- Title: extlib/tlx/tlx/digest/sha512.hpp Pages: 1 -->
<svg width="237pt" height="108pt"
 viewBox="0.00 0.00 237.00 108.00" xmlns="http://www.w3.org/2000/svg" xmlns:xlink="http://www.w3.org/1999/xlink">
<g id="graph0" class="graph" transform="scale(1 1) rotate(0) translate(4 104)">
<title>extlib/tlx/tlx/digest/sha512.hpp</title>
<!-- Node1 -->
<g id="node1" class="node"><title>Node1</title>
<polygon fill="#bfbfbf" stroke="black" points="62,-69 62,-99 158,-99 158,-69 62,-69"/>
<text text-anchor="start" x="70" y="-87" font-family="Helvetica,sans-Serif" font-size="10.00">extlib/tlx/tlx/digest</text>
<text text-anchor="middle" x="110" y="-76" font-family="Helvetica,sans-Serif" font-size="10.00">/sha512.hpp</text>
</g>
<!-- Node2 -->
<g id="node2" class="node"><title>Node2</title>
<g id="a_node2"><a xlink:href="sha512_8cpp.html" target="_top" xlink:title="extlib/tlx/tlx/digest\l/sha512.cpp">
<polygon fill="none" stroke="black" points="0,-1 0,-31 96,-31 96,-1 0,-1"/>
<text text-anchor="start" x="8" y="-19" font-family="Helvetica,sans-Serif" font-size="10.00">extlib/tlx/tlx/digest</text>
<text text-anchor="middle" x="48" y="-8" font-family="Helvetica,sans-Serif" font-size="10.00">/sha512.cpp</text>
</a>
</g>
</g>
<!-- Node1&#45;&gt;Node2 -->
<g id="edge1" class="edge"><title>Node1&#45;&gt;Node2</title>
<path fill="none" stroke="midnightblue" d="M89.5154,-61.1939C80.278,-51.3605 69.6274,-40.0228 61.4268,-31.2931"/>
<polygon fill="midnightblue" stroke="midnightblue" points="87.1492,-63.7869 96.5469,-68.679 92.2511,-58.9941 87.1492,-63.7869"/>
</g>
<!-- Node3 -->
<g id="node3" class="node"><title>Node3</title>
<g id="a_node3"><a xlink:href="digest_8hpp.html" target="_top" xlink:title="extlib/tlx/tlx/digest.hpp">
<polygon fill="none" stroke="black" points="114.5,-6.5 114.5,-25.5 229.5,-25.5 229.5,-6.5 114.5,-6.5"/>
<text text-anchor="middle" x="172" y="-13.5" font-family="Helvetica,sans-Serif" font-size="10.00">extlib/tlx/tlx/digest.hpp</text>
</a>
</g>
</g>
<!-- Node1&#45;&gt;Node3 -->
<g id="edge2" class="edge"><title>Node1&#45;&gt;Node3</title>
<path fill="none" stroke="midnightblue" d="M130.511,-61.1658C141.828,-49.119 155.259,-34.8216 163.707,-25.8283"/>
<polygon fill="midnightblue" stroke="midnightblue" points="127.749,-58.9941 123.453,-68.679 132.851,-63.7869 127.749,-58.9941"/>
</g>
</g>
</svg>
