<?xml version="1.0" encoding="UTF-8" standalone="no"?>
<!DOCTYPE svg PUBLIC "-//W3C//DTD SVG 1.1//EN"
 "http://www.w3.org/Graphics/SVG/1.1/DTD/svg11.dtd">
<!-- Generated by graphviz version 2.26.3 (20100126.1600)
 -->
<!-- Title: thrill/common/shared_state.hpp Pages: 1 -->
<svg width="164pt" height="102pt"
 viewBox="0.00 0.00 164.00 102.00" xmlns="http://www.w3.org/2000/svg" xmlns:xlink="http://www.w3.org/1999/xlink">
<g id="graph1" class="graph" transform="scale(1 1) rotate(0) translate(4 98)">
<title>thrill/common/shared_state.hpp</title>
<!-- Node1 -->
<g id="node1" class="node"><title>Node1</title>
<polygon fill="#bfbfbf" stroke="black" points="36.5,-59 36.5,-93 143.5,-93 143.5,-59 36.5,-59"/>
<text text-anchor="start" x="44.5" y="-80" font-family="Helvetica,sans-Serif" font-size="10.00">thrill/common/shared</text>
<text text-anchor="middle" x="90" y="-67" font-family="Helvetica,sans-Serif" font-size="10.00">_state.hpp</text>
</g>
<!-- Node2 -->
<g id="node3" class="node"><title>Node2</title>
<polygon fill="none" stroke="#bfbfbf" points="-0.5,-0.5 -0.5,-21.5 94.5,-21.5 94.5,-0.5 -0.5,-0.5"/>
<text text-anchor="middle" x="47" y="-8.5" font-family="Helvetica,sans-Serif" font-size="10.00">condition_variable</text>
</g>
<!-- Node1&#45;&gt;Node2 -->
<g id="edge2" class="edge"><title>Node1&#45;&gt;Node2</title>
<path fill="none" stroke="midnightblue" d="M78.7023,-58.922C72.8796,-50.1203 65.7573,-39.3541 59.7396,-30.2575"/>
<polygon fill="midnightblue" stroke="midnightblue" points="62.6155,-28.2612 54.1791,-21.8521 56.7774,-32.1234 62.6155,-28.2612"/>
</g>
<!-- Node3 -->
<g id="node5" class="node"><title>Node3</title>
<polygon fill="none" stroke="#bfbfbf" points="112,-0.5 112,-21.5 156,-21.5 156,-0.5 112,-0.5"/>
<text text-anchor="middle" x="134" y="-8.5" font-family="Helvetica,sans-Serif" font-size="10.00">mutex</text>
</g>
<!-- Node1&#45;&gt;Node3 -->
<g id="edge4" class="edge"><title>Node1&#45;&gt;Node3</title>
<path fill="none" stroke="midnightblue" d="M101.56,-58.922C107.519,-50.1203 114.806,-39.3541 120.964,-30.2575"/>
<polygon fill="midnightblue" stroke="midnightblue" points="123.947,-32.0952 126.654,-21.8521 118.15,-28.1712 123.947,-32.0952"/>
</g>
</g>
</svg>
