<?xml version="1.0" encoding="UTF-8" standalone="no"?>
<!DOCTYPE svg PUBLIC "-//W3C//DTD SVG 1.1//EN"
 "http://www.w3.org/Graphics/SVG/1.1/DTD/svg11.dtd">
<!-- Generated by graphviz version 2.26.3 (20100126.1600)
 -->
<!-- Title: thrill/vfs/simple_glob.hpp Pages: 1 -->
<svg width="470pt" height="88pt"
 viewBox="0.00 0.00 470.00 88.00" xmlns="http://www.w3.org/2000/svg" xmlns:xlink="http://www.w3.org/1999/xlink">
<g id="graph1" class="graph" transform="scale(1 1) rotate(0) translate(4 84)">
<title>thrill/vfs/simple_glob.hpp</title>
<!-- Node1 -->
<g id="node1" class="node"><title>Node1</title>
<polygon fill="#bfbfbf" stroke="black" points="171.5,-58.5 171.5,-79.5 296.5,-79.5 296.5,-58.5 171.5,-58.5"/>
<text text-anchor="middle" x="234" y="-66.5" font-family="Helvetica,sans-Serif" font-size="10.00">thrill/vfs/simple_glob.hpp</text>
</g>
<!-- Node2 -->
<g id="node3" class="node"><title>Node2</title>
<polygon fill="none" stroke="#bfbfbf" points="-0.5,-0.5 -0.5,-21.5 44.5,-21.5 44.5,-0.5 -0.5,-0.5"/>
<text text-anchor="middle" x="22" y="-8.5" font-family="Helvetica,sans-Serif" font-size="10.00">climits</text>
</g>
<!-- Node1&#45;&gt;Node2 -->
<g id="edge2" class="edge"><title>Node1&#45;&gt;Node2</title>
<path fill="none" stroke="midnightblue" d="M189.066,-58.4838C154.485,-50.1317 105.334,-37.7044 54.4647,-22.2952"/>
<polygon fill="midnightblue" stroke="midnightblue" points="55.1977,-18.8594 44.6112,-19.279 53.1488,-25.5528 55.1977,-18.8594"/>
</g>
<!-- Node3 -->
<g id="node5" class="node"><title>Node3</title>
<polygon fill="none" stroke="#bfbfbf" points="61.5,-0.5 61.5,-21.5 104.5,-21.5 104.5,-0.5 61.5,-0.5"/>
<text text-anchor="middle" x="83" y="-8.5" font-family="Helvetica,sans-Serif" font-size="10.00">glob.h</text>
</g>
<!-- Node1&#45;&gt;Node3 -->
<g id="edge4" class="edge"><title>Node1&#45;&gt;Node3</title>
<path fill="none" stroke="midnightblue" d="M206.655,-58.4966C180.617,-48.4952 141.463,-33.4562 114.214,-22.9896"/>
<polygon fill="midnightblue" stroke="midnightblue" points="115.35,-19.6767 104.76,-19.3582 112.84,-26.2112 115.35,-19.6767"/>
</g>
<!-- Node4 -->
<g id="node7" class="node"><title>Node4</title>
<polygon fill="none" stroke="#bfbfbf" points="122,-0.5 122,-21.5 182,-21.5 182,-0.5 122,-0.5"/>
<text text-anchor="middle" x="152" y="-8.5" font-family="Helvetica,sans-Serif" font-size="10.00">sys/stat.h</text>
</g>
<!-- Node1&#45;&gt;Node4 -->
<g id="edge6" class="edge"><title>Node1&#45;&gt;Node4</title>
<path fill="none" stroke="midnightblue" d="M218.96,-58.3619C206.707,-49.6955 189.201,-37.3126 175.161,-27.3819"/>
<polygon fill="midnightblue" stroke="midnightblue" points="177.13,-24.4879 166.945,-21.5707 173.088,-30.2028 177.13,-24.4879"/>
</g>
<!-- Node5 -->
<g id="node9" class="node"><title>Node5</title>
<polygon fill="none" stroke="#bfbfbf" points="200,-0.5 200,-21.5 268,-21.5 268,-0.5 200,-0.5"/>
<text text-anchor="middle" x="234" y="-8.5" font-family="Helvetica,sans-Serif" font-size="10.00">sys/types.h</text>
</g>
<!-- Node1&#45;&gt;Node5 -->
<g id="edge8" class="edge"><title>Node1&#45;&gt;Node5</title>
<path fill="none" stroke="midnightblue" d="M234,-58.3619C234,-50.9219 234,-40.7427 234,-31.7276"/>
<polygon fill="midnightblue" stroke="midnightblue" points="237.5,-31.5706 234,-21.5707 230.5,-31.5707 237.5,-31.5706"/>
</g>
<!-- Node6 -->
<g id="node11" class="node"><title>Node6</title>
<polygon fill="none" stroke="#bfbfbf" points="285.5,-0.5 285.5,-21.5 336.5,-21.5 336.5,-0.5 285.5,-0.5"/>
<text text-anchor="middle" x="311" y="-8.5" font-family="Helvetica,sans-Serif" font-size="10.00">wchar.h</text>
</g>
<!-- Node1&#45;&gt;Node6 -->
<g id="edge10" class="edge"><title>Node1&#45;&gt;Node6</title>
<path fill="none" stroke="midnightblue" d="M248.123,-58.3619C259.52,-49.7773 275.758,-37.5459 288.878,-27.6636"/>
<polygon fill="midnightblue" stroke="midnightblue" points="291.085,-30.3829 296.967,-21.5707 286.873,-24.7916 291.085,-30.3829"/>
</g>
<!-- Node7 -->
<g id="node13" class="node"><title>Node7</title>
<polygon fill="none" stroke="#bfbfbf" points="353.5,-0.5 353.5,-21.5 398.5,-21.5 398.5,-0.5 353.5,-0.5"/>
<text text-anchor="middle" x="376" y="-8.5" font-family="Helvetica,sans-Serif" font-size="10.00">cstdlib</text>
</g>
<!-- Node1&#45;&gt;Node7 -->
<g id="edge12" class="edge"><title>Node1&#45;&gt;Node7</title>
<path fill="none" stroke="midnightblue" d="M259.715,-58.4966C283.281,-48.8711 318.271,-34.5796 343.71,-24.1887"/>
<polygon fill="midnightblue" stroke="midnightblue" points="345.353,-27.2984 353.287,-20.277 342.706,-20.8182 345.353,-27.2984"/>
</g>
<!-- Node8 -->
<g id="node15" class="node"><title>Node8</title>
<polygon fill="none" stroke="#bfbfbf" points="416,-0.5 416,-21.5 462,-21.5 462,-0.5 416,-0.5"/>
<text text-anchor="middle" x="439" y="-8.5" font-family="Helvetica,sans-Serif" font-size="10.00">cstring</text>
</g>
<!-- Node1&#45;&gt;Node8 -->
<g id="edge14" class="edge"><title>Node1&#45;&gt;Node8</title>
<path fill="none" stroke="midnightblue" d="M275.819,-58.4626C308.865,-49.951 356.344,-37.3155 406.301,-22.089"/>
<polygon fill="midnightblue" stroke="midnightblue" points="407.456,-25.3956 415.987,-19.1131 405.4,-18.7042 407.456,-25.3956"/>
</g>
</g>
</svg>
