<?xml version="1.0" encoding="UTF-8" standalone="no"?>
<!DOCTYPE svg PUBLIC "-//W3C//DTD SVG 1.1//EN"
 "http://www.w3.org/Graphics/SVG/1.1/DTD/svg11.dtd">
<!-- Generated by graphviz version 2.26.3 (20100126.1600)
 -->
<!-- Title: thrill/api/size.hpp Pages: 1 -->
<svg width="1682pt" height="174pt"
 viewBox="0.00 0.00 1682.00 174.00" xmlns="http://www.w3.org/2000/svg" xmlns:xlink="http://www.w3.org/1999/xlink">
<g id="graph1" class="graph" transform="scale(1 1) rotate(0) translate(4 170)">
<title>thrill/api/size.hpp</title>
<!-- Node1 -->
<g id="node1" class="node"><title>Node1</title>
<polygon fill="#bfbfbf" stroke="black" points="845,-144.5 845,-165.5 935,-165.5 935,-144.5 845,-144.5"/>
<text text-anchor="middle" x="890" y="-152.5" font-family="Helvetica,sans-Serif" font-size="10.00">thrill/api/size.hpp</text>
</g>
<!-- Node2 -->
<g id="node3" class="node"><title>Node2</title>
<a xlink:href="thrill_8hpp.html" target="_top" xlink:title="thrill/thrill.hpp">
<polygon fill="none" stroke="black" points="0,-79.5 0,-100.5 74,-100.5 74,-79.5 0,-79.5"/>
<text text-anchor="middle" x="37" y="-87.5" font-family="Helvetica,sans-Serif" font-size="10.00">thrill/thrill.hpp</text>
</a>
</g>
<!-- Node1&#45;&gt;Node2 -->
<g id="edge2" class="edge"><title>Node1&#45;&gt;Node2</title>
<path fill="none" stroke="midnightblue" d="M834.422,-154.032C676.408,-150.921 226.73,-139.475 83,-108 75.2929,-106.312 67.1844,-103.513 59.9583,-100.619"/>
<polygon fill="midnightblue" stroke="midnightblue" points="834.779,-157.54 844.845,-154.233 834.915,-150.541 834.779,-157.54"/>
</g>
<!-- Node3 -->
<g id="node5" class="node"><title>Node3</title>
<a xlink:href="logistic__regression_8hpp.html" target="_top" xlink:title="examples/logistic_regression\l/logistic_regression.hpp">
<polygon fill="none" stroke="black" points="91.5,-73 91.5,-107 234.5,-107 234.5,-73 91.5,-73"/>
<text text-anchor="start" x="99.5" y="-94" font-family="Helvetica,sans-Serif" font-size="10.00">examples/logistic_regression</text>
<text text-anchor="middle" x="163" y="-81" font-family="Helvetica,sans-Serif" font-size="10.00">/logistic_regression.hpp</text>
</a>
</g>
<!-- Node1&#45;&gt;Node3 -->
<g id="edge4" class="edge"><title>Node1&#45;&gt;Node3</title>
<path fill="none" stroke="midnightblue" d="M834.577,-153.75C722.354,-150.608 460.423,-140.175 243,-108 240.324,-107.604 237.605,-107.168 234.864,-106.699"/>
<polygon fill="midnightblue" stroke="midnightblue" points="834.553,-157.25 844.644,-154.023 834.743,-150.253 834.553,-157.25"/>
</g>
<!-- Node5 -->
<g id="node9" class="node"><title>Node5</title>
<a xlink:href="page__rank_8hpp.html" target="_top" xlink:title="examples/page_rank\l/page_rank.hpp">
<polygon fill="none" stroke="black" points="251.5,-73 251.5,-107 358.5,-107 358.5,-73 251.5,-73"/>
<text text-anchor="start" x="259.5" y="-94" font-family="Helvetica,sans-Serif" font-size="10.00">examples/page_rank</text>
<text text-anchor="middle" x="305" y="-81" font-family="Helvetica,sans-Serif" font-size="10.00">/page_rank.hpp</text>
</a>
</g>
<!-- Node1&#45;&gt;Node5 -->
<g id="edge8" class="edge"><title>Node1&#45;&gt;Node5</title>
<path fill="none" stroke="midnightblue" d="M834.773,-153.533C738.848,-150.21 535.56,-139.734 367,-108 364.246,-107.482 361.439,-106.893 358.615,-106.252"/>
<polygon fill="midnightblue" stroke="midnightblue" points="834.713,-157.033 844.824,-153.868 834.947,-150.037 834.713,-157.033"/>
</g>
<!-- Node7 -->
<g id="node13" class="node"><title>Node7</title>
<a xlink:href="percentiles_8cpp.html" target="_top" xlink:title="examples/percentiles\l/percentiles.cpp">
<polygon fill="none" stroke="black" points="375.5,-73 375.5,-107 484.5,-107 484.5,-73 375.5,-73"/>
<text text-anchor="start" x="383.5" y="-94" font-family="Helvetica,sans-Serif" font-size="10.00">examples/percentiles</text>
<text text-anchor="middle" x="430" y="-81" font-family="Helvetica,sans-Serif" font-size="10.00">/percentiles.cpp</text>
</a>
</g>
<!-- Node1&#45;&gt;Node7 -->
<g id="edge12" class="edge"><title>Node1&#45;&gt;Node7</title>
<path fill="none" stroke="midnightblue" d="M834.543,-151.258C757.391,-145.412 613.559,-132.196 493,-108 490.212,-107.44 487.367,-106.818 484.504,-106.152"/>
<polygon fill="midnightblue" stroke="midnightblue" points="834.745,-154.782 844.977,-152.034 835.265,-147.802 834.745,-154.782"/>
</g>
<!-- Node8 -->
<g id="node15" class="node"><title>Node8</title>
<a xlink:href="examples_2select_2select_8hpp.html" target="_top" xlink:title="examples/select/select.hpp">
<polygon fill="none" stroke="black" points="502,-79.5 502,-100.5 638,-100.5 638,-79.5 502,-79.5"/>
<text text-anchor="middle" x="570" y="-87.5" font-family="Helvetica,sans-Serif" font-size="10.00">examples/select/select.hpp</text>
</a>
</g>
<!-- Node1&#45;&gt;Node8 -->
<g id="edge14" class="edge"><title>Node1&#45;&gt;Node8</title>
<path fill="none" stroke="midnightblue" d="M834.521,-144.9C785.188,-135.768 711.144,-121.695 647,-108 636.259,-105.707 624.712,-103.089 613.911,-100.573"/>
<polygon fill="midnightblue" stroke="midnightblue" points="834.191,-148.398 844.66,-146.771 835.462,-141.514 834.191,-148.398"/>
</g>
<!-- Node10 -->
<g id="node19" class="node"><title>Node10</title>
<a xlink:href="sleep_8cpp.html" target="_top" xlink:title="examples/sleep/sleep.cpp">
<polygon fill="none" stroke="black" points="656,-79.5 656,-100.5 786,-100.5 786,-79.5 656,-79.5"/>
<text text-anchor="middle" x="721" y="-87.5" font-family="Helvetica,sans-Serif" font-size="10.00">examples/sleep/sleep.cpp</text>
</a>
</g>
<!-- Node1&#45;&gt;Node10 -->
<g id="edge18" class="edge"><title>Node1&#45;&gt;Node10</title>
<path fill="none" stroke="midnightblue" d="M852.738,-140.668C821.251,-128.558 776.87,-111.489 748.517,-100.584"/>
<polygon fill="midnightblue" stroke="midnightblue" points="851.881,-144.089 862.471,-144.412 854.394,-137.555 851.881,-144.089"/>
</g>
<!-- Node11 -->
<g id="node21" class="node"><title>Node11</title>
<a xlink:href="check__sa_8hpp.html" target="_top" xlink:title="examples/suffix_sorting\l/check_sa.hpp">
<polygon fill="none" stroke="black" points="918,-73 918,-107 1038,-107 1038,-73 918,-73"/>
<text text-anchor="start" x="926" y="-94" font-family="Helvetica,sans-Serif" font-size="10.00">examples/suffix_sorting</text>
<text text-anchor="middle" x="978" y="-81" font-family="Helvetica,sans-Serif" font-size="10.00">/check_sa.hpp</text>
</a>
</g>
<!-- Node1&#45;&gt;Node11 -->
<g id="edge20" class="edge"><title>Node1&#45;&gt;Node11</title>
<path fill="none" stroke="midnightblue" d="M912.883,-138.098C925.793,-128.562 941.881,-116.679 954.836,-107.11"/>
<polygon fill="midnightblue" stroke="midnightblue" points="910.496,-135.51 904.531,-144.267 914.655,-141.14 910.496,-135.51"/>
</g>
<!-- Node12 -->
<g id="node23" class="node"><title>Node12</title>
<a xlink:href="dc3_8cpp.html" target="_top" xlink:title="examples/suffix_sorting\l/dc3.cpp">
<polygon fill="none" stroke="black" points="642,-1 642,-35 762,-35 762,-1 642,-1"/>
<text text-anchor="start" x="650" y="-22" font-family="Helvetica,sans-Serif" font-size="10.00">examples/suffix_sorting</text>
<text text-anchor="middle" x="702" y="-9" font-family="Helvetica,sans-Serif" font-size="10.00">/dc3.cpp</text>
</a>
</g>
<!-- Node1&#45;&gt;Node12 -->
<g id="edge36" class="edge"><title>Node1&#45;&gt;Node12</title>
<path fill="none" stroke="midnightblue" d="M871.75,-137.158C853.246,-119.535 823.373,-92.3444 795,-72 775.882,-58.2917 753.054,-44.9961 734.8,-35.0278"/>
<polygon fill="midnightblue" stroke="midnightblue" points="869.543,-139.89 879.177,-144.299 874.395,-134.845 869.543,-139.89"/>
</g>
<!-- Node13 -->
<g id="node25" class="node"><title>Node13</title>
<a xlink:href="dc7_8cpp.html" target="_top" xlink:title="examples/suffix_sorting\l/dc7.cpp">
<polygon fill="none" stroke="black" points="780,-1 780,-35 900,-35 900,-1 780,-1"/>
<text text-anchor="start" x="788" y="-22" font-family="Helvetica,sans-Serif" font-size="10.00">examples/suffix_sorting</text>
<text text-anchor="middle" x="840" y="-9" font-family="Helvetica,sans-Serif" font-size="10.00">/dc7.cpp</text>
</a>
</g>
<!-- Node1&#45;&gt;Node13 -->
<g id="edge38" class="edge"><title>Node1&#45;&gt;Node13</title>
<path fill="none" stroke="midnightblue" d="M882.591,-134.698C872.773,-107.799 855.62,-60.7998 846.361,-35.4294"/>
<polygon fill="midnightblue" stroke="midnightblue" points="879.36,-136.056 886.077,-144.25 885.936,-133.656 879.36,-136.056"/>
</g>
<!-- Node14 -->
<g id="node27" class="node"><title>Node14</title>
<a xlink:href="prefix__doubling_8cpp.html" target="_top" xlink:title="examples/suffix_sorting\l/prefix_doubling.cpp">
<polygon fill="none" stroke="black" points="918,-1 918,-35 1038,-35 1038,-1 918,-1"/>
<text text-anchor="start" x="926" y="-22" font-family="Helvetica,sans-Serif" font-size="10.00">examples/suffix_sorting</text>
<text text-anchor="middle" x="978" y="-9" font-family="Helvetica,sans-Serif" font-size="10.00">/prefix_doubling.cpp</text>
</a>
</g>
<!-- Node1&#45;&gt;Node14 -->
<g id="edge40" class="edge"><title>Node1&#45;&gt;Node14</title>
<path fill="none" stroke="midnightblue" d="M890.906,-134.305C892.533,-116.555 896.98,-90.9237 909,-72 918.543,-56.977 933.775,-44.4065 947.504,-35.1848"/>
<polygon fill="midnightblue" stroke="midnightblue" points="887.403,-134.227 890.203,-144.445 894.386,-134.711 887.403,-134.227"/>
</g>
<!-- Node15 -->
<g id="node29" class="node"><title>Node15</title>
<a xlink:href="prefix__quadrupling_8cpp.html" target="_top" xlink:title="examples/suffix_sorting\l/prefix_quadrupling.cpp">
<polygon fill="none" stroke="black" points="1056,-1 1056,-35 1176,-35 1176,-1 1056,-1"/>
<text text-anchor="start" x="1064" y="-22" font-family="Helvetica,sans-Serif" font-size="10.00">examples/suffix_sorting</text>
<text text-anchor="middle" x="1116" y="-9" font-family="Helvetica,sans-Serif" font-size="10.00">/prefix_quadrupling.cpp</text>
</a>
</g>
<!-- Node1&#45;&gt;Node15 -->
<g id="edge42" class="edge"><title>Node1&#45;&gt;Node15</title>
<path fill="none" stroke="midnightblue" d="M945.246,-147.167C977.135,-140.617 1016.78,-128.845 1047,-108 1074.55,-88.9964 1095.94,-55.5439 1107.2,-35.2126"/>
<polygon fill="midnightblue" stroke="midnightblue" points="944.339,-143.777 935.187,-149.115 945.67,-150.65 944.339,-143.777"/>
</g>
<!-- Node17 -->
<g id="node33" class="node"><title>Node17</title>
<a xlink:href="construct__bwt_8hpp.html" target="_top" xlink:title="examples/suffix_sorting\l/construct_bwt.hpp">
<polygon fill="none" stroke="black" points="1094,-73 1094,-107 1214,-107 1214,-73 1094,-73"/>
<text text-anchor="start" x="1102" y="-94" font-family="Helvetica,sans-Serif" font-size="10.00">examples/suffix_sorting</text>
<text text-anchor="middle" x="1154" y="-81" font-family="Helvetica,sans-Serif" font-size="10.00">/construct_bwt.hpp</text>
</a>
</g>
<!-- Node1&#45;&gt;Node17 -->
<g id="edge32" class="edge"><title>Node1&#45;&gt;Node17</title>
<path fill="none" stroke="midnightblue" d="M942.537,-142.065C986.093,-131.341 1048.03,-116.09 1093.63,-104.865"/>
<polygon fill="midnightblue" stroke="midnightblue" points="941.583,-138.695 932.71,-144.484 943.256,-145.492 941.583,-138.695"/>
</g>
<!-- Node18 -->
<g id="node40" class="node"><title>Node18</title>
<a xlink:href="rl__bwt_8cpp.html" target="_top" xlink:title="examples/suffix_sorting\l/rl_bwt.cpp">
<polygon fill="none" stroke="black" points="1232,-73 1232,-107 1352,-107 1352,-73 1232,-73"/>
<text text-anchor="start" x="1240" y="-94" font-family="Helvetica,sans-Serif" font-size="10.00">examples/suffix_sorting</text>
<text text-anchor="middle" x="1292" y="-81" font-family="Helvetica,sans-Serif" font-size="10.00">/rl_bwt.cpp</text>
</a>
</g>
<!-- Node1&#45;&gt;Node18 -->
<g id="edge44" class="edge"><title>Node1&#45;&gt;Node18</title>
<path fill="none" stroke="midnightblue" d="M945.483,-149.146C1011.85,-141.689 1126.14,-127.403 1223,-108 1225.91,-107.416 1228.89,-106.784 1231.88,-106.117"/>
<polygon fill="midnightblue" stroke="midnightblue" points="944.804,-145.7 935.253,-150.284 945.578,-152.657 944.804,-145.7"/>
</g>
<!-- Node19 -->
<g id="node42" class="node"><title>Node19</title>
<a xlink:href="triangles_8hpp.html" target="_top" xlink:title="examples/triangles\l/triangles.hpp">
<polygon fill="none" stroke="black" points="1408,-73 1408,-107 1506,-107 1506,-73 1408,-73"/>
<text text-anchor="start" x="1416" y="-94" font-family="Helvetica,sans-Serif" font-size="10.00">examples/triangles</text>
<text text-anchor="middle" x="1457" y="-81" font-family="Helvetica,sans-Serif" font-size="10.00">/triangles.hpp</text>
</a>
</g>
<!-- Node1&#45;&gt;Node19 -->
<g id="edge46" class="edge"><title>Node1&#45;&gt;Node19</title>
<path fill="none" stroke="midnightblue" d="M945.28,-153.193C1038.53,-149.4 1232.71,-138.292 1394,-108 1398.47,-107.16 1403.08,-106.143 1407.68,-105.025"/>
<polygon fill="midnightblue" stroke="midnightblue" points="945.08,-149.698 935.226,-153.589 945.356,-156.692 945.08,-149.698"/>
</g>
<!-- Node20 -->
<g id="node44" class="node"><title>Node20</title>
<a xlink:href="tpch__run_8cpp.html" target="_top" xlink:title="examples/tpch/tpch\l_run.cpp">
<polygon fill="none" stroke="black" points="1340,-1 1340,-35 1442,-35 1442,-1 1340,-1"/>
<text text-anchor="start" x="1348" y="-22" font-family="Helvetica,sans-Serif" font-size="10.00">examples/tpch/tpch</text>
<text text-anchor="middle" x="1391" y="-9" font-family="Helvetica,sans-Serif" font-size="10.00">_run.cpp</text>
</a>
</g>
<!-- Node1&#45;&gt;Node20 -->
<g id="edge52" class="edge"><title>Node1&#45;&gt;Node20</title>
<path fill="none" stroke="midnightblue" d="M945.343,-152.824C1062.84,-147.731 1329.1,-133.492 1361,-108 1383,-90.4168 1389,-56.1673 1390.55,-35.3619"/>
<polygon fill="midnightblue" stroke="midnightblue" points="944.963,-149.337 935.121,-153.261 945.262,-156.331 944.963,-149.337"/>
</g>
<!-- Node21 -->
<g id="node46" class="node"><title>Node21</title>
<a xlink:href="triangles__run_8cpp.html" target="_top" xlink:title="examples/triangles\l/triangles_run.cpp">
<polygon fill="none" stroke="black" points="1476,-1 1476,-35 1574,-35 1574,-1 1476,-1"/>
<text text-anchor="start" x="1484" y="-22" font-family="Helvetica,sans-Serif" font-size="10.00">examples/triangles</text>
<text text-anchor="middle" x="1525" y="-9" font-family="Helvetica,sans-Serif" font-size="10.00">/triangles_run.cpp</text>
</a>
</g>
<!-- Node1&#45;&gt;Node21 -->
<g id="edge54" class="edge"><title>Node1&#45;&gt;Node21</title>
<path fill="none" stroke="midnightblue" d="M945.514,-152.735C1094.74,-146.396 1494.64,-127.647 1515,-108 1534.34,-89.3321 1532.31,-55.4469 1528.82,-35.0031"/>
<polygon fill="midnightblue" stroke="midnightblue" points="945.056,-149.251 935.212,-153.17 945.351,-156.245 945.056,-149.251"/>
</g>
<!-- Node22 -->
<g id="node50" class="node"><title>Node22</title>
<a xlink:href="line__count_8cpp.html" target="_top" xlink:title="examples/word_count\l/line_count.cpp">
<polygon fill="none" stroke="black" points="1562,-73 1562,-107 1674,-107 1674,-73 1562,-73"/>
<text text-anchor="start" x="1570" y="-94" font-family="Helvetica,sans-Serif" font-size="10.00">examples/word_count</text>
<text text-anchor="middle" x="1618" y="-81" font-family="Helvetica,sans-Serif" font-size="10.00">/line_count.cpp</text>
</a>
</g>
<!-- Node1&#45;&gt;Node22 -->
<g id="edge56" class="edge"><title>Node1&#45;&gt;Node22</title>
<path fill="none" stroke="midnightblue" d="M945.293,-152.338C1081.87,-145.554 1432.46,-126.823 1548,-108 1552.46,-107.274 1557.05,-106.396 1561.64,-105.423"/>
<polygon fill="midnightblue" stroke="midnightblue" points="944.877,-148.854 935.062,-152.843 945.223,-155.845 944.877,-148.854"/>
</g>
<!-- Node4 -->
<g id="node7" class="node"><title>Node4</title>
<a xlink:href="logistic__regression_8cpp.html" target="_top" xlink:title="examples/logistic_regression\l/logistic_regression.cpp">
<polygon fill="none" stroke="black" points="91.5,-1 91.5,-35 234.5,-35 234.5,-1 91.5,-1"/>
<text text-anchor="start" x="99.5" y="-22" font-family="Helvetica,sans-Serif" font-size="10.00">examples/logistic_regression</text>
<text text-anchor="middle" x="163" y="-9" font-family="Helvetica,sans-Serif" font-size="10.00">/logistic_regression.cpp</text>
</a>
</g>
<!-- Node3&#45;&gt;Node4 -->
<g id="edge6" class="edge"><title>Node3&#45;&gt;Node4</title>
<path fill="none" stroke="midnightblue" d="M163,-62.7193C163,-53.572 163,-43.6255 163,-35.4407"/>
<polygon fill="midnightblue" stroke="midnightblue" points="159.5,-62.937 163,-72.937 166.5,-62.937 159.5,-62.937"/>
</g>
<!-- Node6 -->
<g id="node11" class="node"><title>Node6</title>
<a xlink:href="page__rank__run_8cpp.html" target="_top" xlink:title="examples/page_rank\l/page_rank_run.cpp">
<polygon fill="none" stroke="black" points="251.5,-1 251.5,-35 358.5,-35 358.5,-1 251.5,-1"/>
<text text-anchor="start" x="259.5" y="-22" font-family="Helvetica,sans-Serif" font-size="10.00">examples/page_rank</text>
<text text-anchor="middle" x="305" y="-9" font-family="Helvetica,sans-Serif" font-size="10.00">/page_rank_run.cpp</text>
</a>
</g>
<!-- Node5&#45;&gt;Node6 -->
<g id="edge10" class="edge"><title>Node5&#45;&gt;Node6</title>
<path fill="none" stroke="midnightblue" d="M305,-62.7193C305,-53.572 305,-43.6255 305,-35.4407"/>
<polygon fill="midnightblue" stroke="midnightblue" points="301.5,-62.937 305,-72.937 308.5,-62.937 301.5,-62.937"/>
</g>
<!-- Node9 -->
<g id="node17" class="node"><title>Node9</title>
<a xlink:href="select__run_8cpp.html" target="_top" xlink:title="examples/select/select\l_run.cpp">
<polygon fill="none" stroke="black" points="507.5,-1 507.5,-35 624.5,-35 624.5,-1 507.5,-1"/>
<text text-anchor="start" x="515.5" y="-22" font-family="Helvetica,sans-Serif" font-size="10.00">examples/select/select</text>
<text text-anchor="middle" x="566" y="-9" font-family="Helvetica,sans-Serif" font-size="10.00">_run.cpp</text>
</a>
</g>
<!-- Node8&#45;&gt;Node9 -->
<g id="edge16" class="edge"><title>Node8&#45;&gt;Node9</title>
<path fill="none" stroke="midnightblue" d="M568.841,-69.1318C568.24,-58.3258 567.516,-45.2961 566.95,-35.0944"/>
<polygon fill="midnightblue" stroke="midnightblue" points="565.36,-69.5857 569.41,-79.3762 572.35,-69.1974 565.36,-69.5857"/>
</g>
<!-- Node11&#45;&gt;Node12 -->
<g id="edge22" class="edge"><title>Node11&#45;&gt;Node12</title>
<path fill="none" stroke="midnightblue" d="M908.075,-71.7588C863.029,-60.0076 805.071,-44.8882 762.1,-33.6782"/>
<polygon fill="midnightblue" stroke="midnightblue" points="907.212,-75.1506 917.772,-74.2883 908.979,-68.3773 907.212,-75.1506"/>
</g>
<!-- Node11&#45;&gt;Node13 -->
<g id="edge24" class="edge"><title>Node11&#45;&gt;Node13</title>
<path fill="none" stroke="midnightblue" d="M936.267,-68.2264C915.973,-57.6383 891.929,-45.0936 872.948,-35.19"/>
<polygon fill="midnightblue" stroke="midnightblue" points="934.811,-71.4143 945.296,-72.937 938.049,-65.2082 934.811,-71.4143"/>
</g>
<!-- Node11&#45;&gt;Node14 -->
<g id="edge26" class="edge"><title>Node11&#45;&gt;Node14</title>
<path fill="none" stroke="midnightblue" d="M978,-62.7193C978,-53.572 978,-43.6255 978,-35.4407"/>
<polygon fill="midnightblue" stroke="midnightblue" points="974.5,-62.937 978,-72.937 981.5,-62.937 974.5,-62.937"/>
</g>
<!-- Node11&#45;&gt;Node15 -->
<g id="edge28" class="edge"><title>Node11&#45;&gt;Node15</title>
<path fill="none" stroke="midnightblue" d="M1019.73,-68.2264C1040.03,-57.6383 1064.07,-45.0936 1083.05,-35.19"/>
<polygon fill="midnightblue" stroke="midnightblue" points="1017.95,-65.2082 1010.7,-72.937 1021.19,-71.4143 1017.95,-65.2082"/>
</g>
<!-- Node16 -->
<g id="node31" class="node"><title>Node16</title>
<a xlink:href="suffix__sorting_8cpp.html" target="_top" xlink:title="examples/suffix_sorting\l/suffix_sorting.cpp">
<polygon fill="none" stroke="black" points="1194,-1 1194,-35 1314,-35 1314,-1 1194,-1"/>
<text text-anchor="start" x="1202" y="-22" font-family="Helvetica,sans-Serif" font-size="10.00">examples/suffix_sorting</text>
<text text-anchor="middle" x="1254" y="-9" font-family="Helvetica,sans-Serif" font-size="10.00">/suffix_sorting.cpp</text>
</a>
</g>
<!-- Node11&#45;&gt;Node16 -->
<g id="edge30" class="edge"><title>Node11&#45;&gt;Node16</title>
<path fill="none" stroke="midnightblue" d="M1047.92,-71.7588C1092.97,-60.0076 1150.93,-44.8882 1193.9,-33.6782"/>
<polygon fill="midnightblue" stroke="midnightblue" points="1047.02,-68.3773 1038.23,-74.2883 1048.79,-75.1506 1047.02,-68.3773"/>
</g>
<!-- Node17&#45;&gt;Node16 -->
<g id="edge34" class="edge"><title>Node17&#45;&gt;Node16</title>
<path fill="none" stroke="midnightblue" d="M1185.84,-67.0743C1200.2,-56.7376 1216.87,-44.7368 1230.12,-35.19"/>
<polygon fill="midnightblue" stroke="midnightblue" points="1183.77,-64.2535 1177.7,-72.937 1187.86,-69.9343 1183.77,-64.2535"/>
</g>
<!-- Node19&#45;&gt;Node20 -->
<g id="edge48" class="edge"><title>Node19&#45;&gt;Node20</title>
<path fill="none" stroke="midnightblue" d="M1434.43,-65.3785C1425.41,-55.5349 1415.22,-44.4262 1406.99,-35.4407"/>
<polygon fill="midnightblue" stroke="midnightblue" points="1432.02,-67.9305 1441.36,-72.937 1437.18,-63.2004 1432.02,-67.9305"/>
</g>
<!-- Node19&#45;&gt;Node21 -->
<g id="edge50" class="edge"><title>Node19&#45;&gt;Node21</title>
<path fill="none" stroke="midnightblue" d="M1480.25,-65.3785C1489.55,-55.5349 1500.04,-44.4262 1508.53,-35.4407"/>
<polygon fill="midnightblue" stroke="midnightblue" points="1477.44,-63.2637 1473.12,-72.937 1482.53,-68.07 1477.44,-63.2637"/>
</g>
</g>
</svg>
