<?xml version="1.0" encoding="UTF-8" standalone="no"?>
<!DOCTYPE svg PUBLIC "-//W3C//DTD SVG 1.1//EN"
 "http://www.w3.org/Graphics/SVG/1.1/DTD/svg11.dtd">
<!-- Generated by graphviz version 2.26.3 (20100126.1600)
 -->
<!-- Title: thrill/net/tcp/socket_address.cpp Pages: 1 -->
<svg width="1974pt" height="348pt"
 viewBox="0.00 0.00 1973.73 348.00" xmlns="http://www.w3.org/2000/svg" xmlns:xlink="http://www.w3.org/1999/xlink">
<g id="graph1" class="graph" transform="scale(1 1) rotate(0) translate(4 344)">
<title>thrill/net/tcp/socket_address.cpp</title>
<!-- Node1 -->
<g id="node1" class="node"><title>Node1</title>
<polygon fill="#bfbfbf" stroke="black" points="1662.73,-305 1662.73,-339 1762.73,-339 1762.73,-305 1662.73,-305"/>
<text text-anchor="start" x="1670.73" y="-326" font-family="Helvetica,sans-Serif" font-size="10.00">thrill/net/tcp/socket</text>
<text text-anchor="middle" x="1712.73" y="-313" font-family="Helvetica,sans-Serif" font-size="10.00">_address.cpp</text>
</g>
<!-- Node2 -->
<g id="node3" class="node"><title>Node2</title>
<a xlink:href="logger_8hpp.html" target="_top" xlink:title="thrill/common/logger.hpp">
<polygon fill="none" stroke="black" points="861.233,-246.5 861.233,-267.5 984.233,-267.5 984.233,-246.5 861.233,-246.5"/>
<text text-anchor="middle" x="922.733" y="-254.5" font-family="Helvetica,sans-Serif" font-size="10.00">thrill/common/logger.hpp</text>
</a>
</g>
<!-- Node1&#45;&gt;Node2 -->
<g id="edge2" class="edge"><title>Node1&#45;&gt;Node2</title>
<path fill="none" stroke="midnightblue" d="M1662.72,-317.885C1527.14,-306.73 1152.23,-275.883 994.32,-262.89"/>
<polygon fill="midnightblue" stroke="midnightblue" points="994.491,-259.392 984.238,-262.061 993.917,-266.369 994.491,-259.392"/>
</g>
<!-- Node14 -->
<g id="node27" class="node"><title>Node14</title>
<polygon fill="none" stroke="#bfbfbf" points="1060.23,-0.5 1060.23,-21.5 1101.23,-21.5 1101.23,-0.5 1060.23,-0.5"/>
<text text-anchor="middle" x="1080.73" y="-8.5" font-family="Helvetica,sans-Serif" font-size="10.00">string</text>
</g>
<!-- Node1&#45;&gt;Node14 -->
<g id="edge130" class="edge"><title>Node1&#45;&gt;Node14</title>
<path fill="none" stroke="midnightblue" d="M1662.46,-314.772C1623.29,-307.463 1568.69,-293.482 1526.73,-268 1446.93,-219.538 1460.22,-166.563 1381.73,-116 1358.12,-100.787 1182.66,-43.6688 1111.04,-20.6767"/>
<polygon fill="midnightblue" stroke="midnightblue" points="1111.85,-17.2605 1101.26,-17.5411 1109.71,-23.9265 1111.85,-17.2605"/>
</g>
<!-- Node15 -->
<g id="node29" class="node"><title>Node15</title>
<polygon fill="none" stroke="#bfbfbf" points="1126.73,-0.5 1126.73,-21.5 1170.73,-21.5 1170.73,-0.5 1126.73,-0.5"/>
<text text-anchor="middle" x="1148.73" y="-8.5" font-family="Helvetica,sans-Serif" font-size="10.00">vector</text>
</g>
<!-- Node1&#45;&gt;Node15 -->
<g id="edge132" class="edge"><title>Node1&#45;&gt;Node15</title>
<path fill="none" stroke="midnightblue" d="M1662.51,-313.386C1603.85,-300.11 1514.73,-268.503 1514.73,-199 1514.73,-199 1514.73,-199 1514.73,-134 1514.73,-99.1827 1521.67,-81.2244 1495.73,-58 1472.46,-37.1646 1262.91,-19.4908 1181.17,-13.3312"/>
<polygon fill="midnightblue" stroke="midnightblue" points="1181.2,-9.82338 1170.96,-12.5719 1180.68,-16.8041 1181.2,-9.82338"/>
</g>
<!-- Node18 -->
<g id="node36" class="node"><title>Node18</title>
<polygon fill="none" stroke="#bfbfbf" points="1346.73,-0.5 1346.73,-21.5 1402.73,-21.5 1402.73,-0.5 1346.73,-0.5"/>
<text text-anchor="middle" x="1374.73" y="-8.5" font-family="Helvetica,sans-Serif" font-size="10.00">algorithm</text>
</g>
<!-- Node1&#45;&gt;Node18 -->
<g id="edge126" class="edge"><title>Node1&#45;&gt;Node18</title>
<path fill="none" stroke="midnightblue" d="M1723.7,-304.76C1753.28,-257.868 1833.34,-128.293 1845.73,-80 1848.16,-70.5293 1852.29,-65.2491 1845.73,-58 1816.85,-26.0873 1519.74,-14.9291 1412.81,-11.9294"/>
<polygon fill="midnightblue" stroke="midnightblue" points="1412.87,-8.42977 1402.78,-11.6564 1412.68,-15.4272 1412.87,-8.42977"/>
</g>
<!-- Node33 -->
<g id="node86" class="node"><title>Node33</title>
<a xlink:href="socket__address_8hpp.html" target="_top" xlink:title="thrill/net/tcp/socket\l_address.hpp">
<polygon fill="none" stroke="black" points="1566.73,-117 1566.73,-151 1666.73,-151 1666.73,-117 1566.73,-117"/>
<text text-anchor="start" x="1574.73" y="-138" font-family="Helvetica,sans-Serif" font-size="10.00">thrill/net/tcp/socket</text>
<text text-anchor="middle" x="1616.73" y="-125" font-family="Helvetica,sans-Serif" font-size="10.00">_address.hpp</text>
</a>
</g>
<!-- Node1&#45;&gt;Node33 -->
<g id="edge106" class="edge"><title>Node1&#45;&gt;Node33</title>
<path fill="none" stroke="midnightblue" d="M1704.04,-304.985C1687.24,-272.071 1650.17,-199.487 1630.17,-160.309"/>
<polygon fill="midnightblue" stroke="midnightblue" points="1633.14,-158.427 1625.47,-151.112 1626.9,-161.61 1633.14,-158.427"/>
</g>
<!-- Node37 -->
<g id="node98" class="node"><title>Node37</title>
<polygon fill="none" stroke="#bfbfbf" points="1775.73,-246.5 1775.73,-267.5 1837.73,-267.5 1837.73,-246.5 1775.73,-246.5"/>
<text text-anchor="middle" x="1806.73" y="-254.5" font-family="Helvetica,sans-Serif" font-size="10.00">arpa/inet.h</text>
</g>
<!-- Node1&#45;&gt;Node37 -->
<g id="edge122" class="edge"><title>Node1&#45;&gt;Node37</title>
<path fill="none" stroke="midnightblue" d="M1737.43,-304.922C1751.44,-295.233 1768.89,-283.165 1782.78,-273.562"/>
<polygon fill="midnightblue" stroke="midnightblue" points="1785.08,-276.225 1791.32,-267.658 1781.1,-270.467 1785.08,-276.225"/>
</g>
<!-- Node38 -->
<g id="node100" class="node"><title>Node38</title>
<polygon fill="none" stroke="#bfbfbf" points="1855.23,-246.5 1855.23,-267.5 1904.23,-267.5 1904.23,-246.5 1855.23,-246.5"/>
<text text-anchor="middle" x="1879.73" y="-254.5" font-family="Helvetica,sans-Serif" font-size="10.00">netdb.h</text>
</g>
<!-- Node1&#45;&gt;Node38 -->
<g id="edge124" class="edge"><title>Node1&#45;&gt;Node38</title>
<path fill="none" stroke="midnightblue" d="M1756.61,-304.922C1784.37,-294.116 1819.75,-280.348 1845.45,-270.345"/>
<polygon fill="midnightblue" stroke="midnightblue" points="1846.74,-273.598 1854.79,-266.709 1844.2,-267.075 1846.74,-273.598"/>
</g>
<!-- Node39 -->
<g id="node103" class="node"><title>Node39</title>
<polygon fill="none" stroke="#bfbfbf" points="1921.73,-246.5 1921.73,-267.5 1965.73,-267.5 1965.73,-246.5 1921.73,-246.5"/>
<text text-anchor="middle" x="1943.73" y="-254.5" font-family="Helvetica,sans-Serif" font-size="10.00">cerrno</text>
</g>
<!-- Node1&#45;&gt;Node39 -->
<g id="edge128" class="edge"><title>Node1&#45;&gt;Node39</title>
<path fill="none" stroke="midnightblue" d="M1762.77,-309.634C1801.19,-299.88 1855.73,-285.478 1911.72,-268.171"/>
<polygon fill="midnightblue" stroke="midnightblue" points="1912.94,-271.455 1921.45,-265.138 1910.86,-264.772 1912.94,-271.455"/>
</g>
<!-- Node3 -->
<g id="node5" class="node"><title>Node3</title>
<a xlink:href="allocator_8hpp.html" target="_top" xlink:title="thrill/mem/allocator.hpp">
<polygon fill="none" stroke="black" points="641.733,-188.5 641.733,-209.5 759.733,-209.5 759.733,-188.5 641.733,-188.5"/>
<text text-anchor="middle" x="700.733" y="-196.5" font-family="Helvetica,sans-Serif" font-size="10.00">thrill/mem/allocator.hpp</text>
</a>
</g>
<!-- Node2&#45;&gt;Node3 -->
<g id="edge4" class="edge"><title>Node2&#45;&gt;Node3</title>
<path fill="none" stroke="midnightblue" d="M882.53,-246.497C845.555,-236.836 790.591,-222.477 750.784,-212.077"/>
<polygon fill="midnightblue" stroke="midnightblue" points="751.57,-208.665 741.01,-209.523 749.801,-215.437 751.57,-208.665"/>
</g>
<!-- Node13 -->
<g id="node25" class="node"><title>Node13</title>
<polygon fill="none" stroke="#bfbfbf" points="158.733,-0.5 158.733,-21.5 210.733,-21.5 210.733,-0.5 158.733,-0.5"/>
<text text-anchor="middle" x="184.733" y="-8.5" font-family="Helvetica,sans-Serif" font-size="10.00">sstream</text>
</g>
<!-- Node2&#45;&gt;Node13 -->
<g id="edge102" class="edge"><title>Node2&#45;&gt;Node13</title>
<path fill="none" stroke="midnightblue" d="M861.188,-251.862C700.769,-237.977 272.969,-197.659 138.733,-152 78.035,-131.355 45.8169,-135.507 13.7325,-80 -30.7774,-2.99659 42.7525,-48.763 148.718,-22.0412"/>
<polygon fill="midnightblue" stroke="midnightblue" points="149.662,-25.4117 158.398,-19.4182 147.831,-18.6553 149.662,-25.4117"/>
</g>
<!-- Node2&#45;&gt;Node14 -->
<g id="edge104" class="edge"><title>Node2&#45;&gt;Node14</title>
<path fill="none" stroke="midnightblue" d="M924.249,-246.317C928.431,-220.584 942.395,-154.456 979.733,-116 1007.46,-87.4434 1035.7,-110.109 1061.73,-80 1073.26,-66.668 1077.85,-46.9268 1079.64,-31.9717"/>
<polygon fill="midnightblue" stroke="midnightblue" points="1083.16,-31.9203 1080.54,-21.6539 1076.19,-31.3117 1083.16,-31.9203"/>
</g>
<!-- Node27 -->
<g id="node66" class="node"><title>Node27</title>
<a xlink:href="pool_8hpp.html" target="_top" xlink:title="thrill/mem/pool.hpp">
<polygon fill="none" stroke="black" points="1045.23,-188.5 1045.23,-209.5 1144.23,-209.5 1144.23,-188.5 1045.23,-188.5"/>
<text text-anchor="middle" x="1094.73" y="-196.5" font-family="Helvetica,sans-Serif" font-size="10.00">thrill/mem/pool.hpp</text>
</a>
</g>
<!-- Node2&#45;&gt;Node27 -->
<g id="edge78" class="edge"><title>Node2&#45;&gt;Node27</title>
<path fill="none" stroke="midnightblue" d="M953.88,-246.497C981.921,-237.041 1023.31,-223.083 1053.98,-212.743"/>
<polygon fill="midnightblue" stroke="midnightblue" points="1055.17,-216.035 1063.53,-209.523 1052.93,-209.402 1055.17,-216.035"/>
</g>
<!-- Node4 -->
<g id="node7" class="node"><title>Node4</title>
<a xlink:href="allocator__base_8hpp.html" target="_top" xlink:title="thrill/mem/allocator\l_base.hpp">
<polygon fill="none" stroke="black" points="540.233,-117 540.233,-151 639.233,-151 639.233,-117 540.233,-117"/>
<text text-anchor="start" x="548.233" y="-138" font-family="Helvetica,sans-Serif" font-size="10.00">thrill/mem/allocator</text>
<text text-anchor="middle" x="589.733" y="-125" font-family="Helvetica,sans-Serif" font-size="10.00">_base.hpp</text>
</a>
</g>
<!-- Node3&#45;&gt;Node4 -->
<g id="edge6" class="edge"><title>Node3&#45;&gt;Node4</title>
<path fill="none" stroke="midnightblue" d="M682.403,-188.267C667.586,-179.59 646.228,-167.083 627.75,-156.262"/>
<polygon fill="midnightblue" stroke="midnightblue" points="629.349,-153.143 618.951,-151.11 625.812,-159.183 629.349,-153.143"/>
</g>
<!-- Node3&#45;&gt;Node14 -->
<g id="edge72" class="edge"><title>Node3&#45;&gt;Node14</title>
<path fill="none" stroke="midnightblue" d="M700.849,-188.337C701.616,-170.935 705.628,-136.333 724.733,-116 737.824,-102.066 868.416,-63.4808 886.733,-58 943.785,-40.9283 1011.66,-25.5978 1050.12,-17.3634"/>
<polygon fill="midnightblue" stroke="midnightblue" points="1051.1,-20.7337 1060.15,-15.2335 1049.64,-13.8862 1051.1,-20.7337"/>
</g>
<!-- Node3&#45;&gt;Node15 -->
<g id="edge76" class="edge"><title>Node3&#45;&gt;Node15</title>
<path fill="none" stroke="midnightblue" d="M706.289,-188.24C716.836,-168.177 739.849,-126.162 752.733,-116 792.128,-84.9273 812.396,-96.638 859.733,-80 886.528,-70.5817 892.354,-65.5581 919.733,-58 1002.58,-35.1292 1026.07,-41.6845 1109.73,-22 1112.04,-21.4562 1114.42,-20.8646 1116.81,-20.2473"/>
<polygon fill="midnightblue" stroke="midnightblue" points="1117.8,-23.6054 1126.55,-17.621 1115.98,-16.8471 1117.8,-23.6054"/>
</g>
<!-- Node17 -->
<g id="node34" class="node"><title>Node17</title>
<a xlink:href="mem_2manager_8hpp.html" target="_top" xlink:title="thrill/mem/manager.hpp">
<polygon fill="none" stroke="black" points="172.233,-58.5 172.233,-79.5 291.233,-79.5 291.233,-58.5 172.233,-58.5"/>
<text text-anchor="middle" x="231.733" y="-66.5" font-family="Helvetica,sans-Serif" font-size="10.00">thrill/mem/manager.hpp</text>
</a>
</g>
<!-- Node3&#45;&gt;Node17 -->
<g id="edge60" class="edge"><title>Node3&#45;&gt;Node17</title>
<path fill="none" stroke="midnightblue" d="M662.75,-188.472C577.851,-164.939 372.858,-108.118 279.492,-82.2383"/>
<polygon fill="midnightblue" stroke="midnightblue" points="280.314,-78.8341 269.742,-79.5357 278.444,-85.5798 280.314,-78.8341"/>
</g>
<!-- Node20 -->
<g id="node40" class="node"><title>Node20</title>
<polygon fill="none" stroke="#bfbfbf" points="28.2325,-0.5 28.2325,-21.5 77.2325,-21.5 77.2325,-0.5 28.2325,-0.5"/>
<text text-anchor="middle" x="52.7325" y="-8.5" font-family="Helvetica,sans-Serif" font-size="10.00">cassert</text>
</g>
<!-- Node3&#45;&gt;Node20 -->
<g id="edge62" class="edge"><title>Node3&#45;&gt;Node20</title>
<path fill="none" stroke="midnightblue" d="M641.507,-197.31C516.845,-193.222 231.248,-180.924 138.733,-152 77.5408,-132.869 45.8169,-135.507 13.7325,-80 3.68088,-62.6104 17.7715,-42.6185 31.741,-28.6455"/>
<polygon fill="midnightblue" stroke="midnightblue" points="34.4133,-30.939 39.3353,-21.5568 29.6368,-25.8218 34.4133,-30.939"/>
</g>
<!-- Node22 -->
<g id="node46" class="node"><title>Node22</title>
<polygon fill="none" stroke="#bfbfbf" points="22.2325,-58.5 22.2325,-79.5 65.2325,-79.5 65.2325,-58.5 22.2325,-58.5"/>
<text text-anchor="middle" x="43.7325" y="-66.5" font-family="Helvetica,sans-Serif" font-size="10.00">deque</text>
</g>
<!-- Node3&#45;&gt;Node22 -->
<g id="edge64" class="edge"><title>Node3&#45;&gt;Node22</title>
<path fill="none" stroke="midnightblue" d="M641.456,-195.083C535.252,-187.704 316.718,-170.79 242.733,-152 179.518,-135.946 110.17,-103.297 72.3206,-84.0795"/>
<polygon fill="midnightblue" stroke="midnightblue" points="73.8942,-80.9531 63.3993,-79.5013 70.6982,-87.1809 73.8942,-80.9531"/>
</g>
<!-- Node23 -->
<g id="node48" class="node"><title>Node23</title>
<polygon fill="none" stroke="#bfbfbf" points="1008.23,-58.5 1008.23,-79.5 1053.23,-79.5 1053.23,-58.5 1008.23,-58.5"/>
<text text-anchor="middle" x="1030.73" y="-66.5" font-family="Helvetica,sans-Serif" font-size="10.00">iosfwd</text>
</g>
<!-- Node3&#45;&gt;Node23 -->
<g id="edge66" class="edge"><title>Node3&#45;&gt;Node23</title>
<path fill="none" stroke="midnightblue" d="M724.451,-188.345C743.071,-179.576 769.335,-166.3 790.733,-152 811.455,-138.151 811.347,-126.96 833.733,-116 898.754,-84.1656 924.953,-99.2854 998.456,-80.0498"/>
<polygon fill="midnightblue" stroke="midnightblue" points="999.437,-83.41 1008.15,-77.3868 997.583,-76.6598 999.437,-83.41"/>
</g>
<!-- Node24 -->
<g id="node50" class="node"><title>Node24</title>
<polygon fill="none" stroke="#bfbfbf" points="82.2325,-58.5 82.2325,-79.5 117.233,-79.5 117.233,-58.5 82.2325,-58.5"/>
<text text-anchor="middle" x="99.7325" y="-66.5" font-family="Helvetica,sans-Serif" font-size="10.00">new</text>
</g>
<!-- Node3&#45;&gt;Node24 -->
<g id="edge70" class="edge"><title>Node3&#45;&gt;Node24</title>
<path fill="none" stroke="midnightblue" d="M641.568,-192.215C537.2,-179.086 314.271,-145.828 126.87,-80.8503"/>
<polygon fill="midnightblue" stroke="midnightblue" points="128.005,-77.5394 117.41,-77.5323 125.688,-84.1449 128.005,-77.5394"/>
</g>
<!-- Node25 -->
<g id="node53" class="node"><title>Node25</title>
<polygon fill="none" stroke="#bfbfbf" points="928.733,-58.5 928.733,-79.5 990.733,-79.5 990.733,-58.5 928.733,-58.5"/>
<text text-anchor="middle" x="959.733" y="-66.5" font-family="Helvetica,sans-Serif" font-size="10.00">type_traits</text>
</g>
<!-- Node3&#45;&gt;Node25 -->
<g id="edge74" class="edge"><title>Node3&#45;&gt;Node25</title>
<path fill="none" stroke="midnightblue" d="M712.43,-188.256C734.44,-168.219 781.523,-126.248 800.733,-116 821.218,-105.071 879.029,-89.251 918.986,-79.045"/>
<polygon fill="midnightblue" stroke="midnightblue" points="919.892,-82.4262 928.726,-76.5777 918.173,-75.6405 919.892,-82.4262"/>
</g>
<!-- Node26 -->
<g id="node60" class="node"><title>Node26</title>
<polygon fill="none" stroke="#bfbfbf" points="842.733,-123.5 842.733,-144.5 894.733,-144.5 894.733,-123.5 842.733,-123.5"/>
<text text-anchor="middle" x="868.733" y="-131.5" font-family="Helvetica,sans-Serif" font-size="10.00">memory</text>
</g>
<!-- Node3&#45;&gt;Node26 -->
<g id="edge68" class="edge"><title>Node3&#45;&gt;Node26</title>
<path fill="none" stroke="midnightblue" d="M731.224,-188.49C757.305,-179.337 795.745,-165.459 828.733,-152 831.377,-150.921 834.104,-149.772 836.835,-148.597"/>
<polygon fill="midnightblue" stroke="midnightblue" points="838.264,-151.792 846.008,-144.562 835.445,-145.384 838.264,-151.792"/>
</g>
<!-- Node5 -->
<g id="node9" class="node"><title>Node5</title>
<a xlink:href="string_8hpp.html" target="_top" xlink:title="thrill/common/string.hpp">
<polygon fill="none" stroke="black" points="346.233,-58.5 346.233,-79.5 467.233,-79.5 467.233,-58.5 346.233,-58.5"/>
<text text-anchor="middle" x="406.733" y="-66.5" font-family="Helvetica,sans-Serif" font-size="10.00">thrill/common/string.hpp</text>
</a>
</g>
<!-- Node4&#45;&gt;Node5 -->
<g id="edge8" class="edge"><title>Node4&#45;&gt;Node5</title>
<path fill="none" stroke="midnightblue" d="M541.651,-116.922C511.812,-106.323 473.952,-92.8758 445.938,-82.9253"/>
<polygon fill="midnightblue" stroke="midnightblue" points="447.063,-79.611 436.469,-79.562 444.72,-86.2072 447.063,-79.611"/>
</g>
<!-- Node4&#45;&gt;Node14 -->
<g id="edge54" class="edge"><title>Node4&#45;&gt;Node14</title>
<path fill="none" stroke="midnightblue" d="M603.508,-116.767C618.989,-98.7597 645.89,-71.3138 675.733,-58 742.847,-28.0573 967.545,-15.7667 1050.03,-12.1921"/>
<polygon fill="midnightblue" stroke="midnightblue" points="1050.19,-15.6887 1060.03,-11.7716 1049.89,-8.69487 1050.19,-15.6887"/>
</g>
<!-- Node4&#45;&gt;Node15 -->
<g id="edge58" class="edge"><title>Node4&#45;&gt;Node15</title>
<path fill="none" stroke="midnightblue" d="M639.565,-121.845C683.391,-111.083 748.88,-94.8258 805.733,-80 841.83,-70.5868 850.268,-65.8724 886.733,-58 984.866,-36.8136 1011.7,-43.6622 1109.73,-22 1112.05,-21.4877 1114.44,-20.9193 1116.83,-20.3185"/>
<polygon fill="midnightblue" stroke="midnightblue" points="1117.81,-23.6804 1126.57,-17.7268 1116.01,-16.9157 1117.81,-23.6804"/>
</g>
<!-- Node16 -->
<g id="node31" class="node"><title>Node16</title>
<a xlink:href="malloc__tracker_8hpp.html" target="_top" xlink:title="thrill/mem/malloc_tracker.hpp">
<polygon fill="none" stroke="black" points="484.233,-58.5 484.233,-79.5 629.233,-79.5 629.233,-58.5 484.233,-58.5"/>
<text text-anchor="middle" x="556.733" y="-66.5" font-family="Helvetica,sans-Serif" font-size="10.00">thrill/mem/malloc_tracker.hpp</text>
</a>
</g>
<!-- Node4&#45;&gt;Node16 -->
<g id="edge30" class="edge"><title>Node4&#45;&gt;Node16</title>
<path fill="none" stroke="midnightblue" d="M581.062,-116.922C576.687,-108.304 571.355,-97.8018 566.799,-88.8282"/>
<polygon fill="midnightblue" stroke="midnightblue" points="569.89,-87.1843 562.242,-79.8521 563.648,-90.3532 569.89,-87.1843"/>
</g>
<!-- Node4&#45;&gt;Node17 -->
<g id="edge34" class="edge"><title>Node4&#45;&gt;Node17</title>
<path fill="none" stroke="midnightblue" d="M539.954,-124.962C477.419,-113.608 369.827,-94.073 299.739,-81.3476"/>
<polygon fill="midnightblue" stroke="midnightblue" points="300.145,-77.8641 289.68,-79.5213 298.894,-84.7515 300.145,-77.8641"/>
</g>
<!-- Node19 -->
<g id="node38" class="node"><title>Node19</title>
<polygon fill="none" stroke="#bfbfbf" points="94.7325,-0.5 94.7325,-21.5 140.733,-21.5 140.733,-0.5 94.7325,-0.5"/>
<text text-anchor="middle" x="117.733" y="-8.5" font-family="Helvetica,sans-Serif" font-size="10.00">atomic</text>
</g>
<!-- Node4&#45;&gt;Node19 -->
<g id="edge44" class="edge"><title>Node4&#45;&gt;Node19</title>
<path fill="none" stroke="midnightblue" d="M540.179,-125.287C477.716,-113.974 374.106,-94.0219 337.733,-80 319.524,-72.9804 317.854,-65.2416 299.733,-58 238.928,-33.7018 217.489,-40.461 150.79,-22.0768"/>
<polygon fill="midnightblue" stroke="midnightblue" points="151.645,-18.6813 141.069,-19.31 149.729,-25.4139 151.645,-18.6813"/>
</g>
<!-- Node4&#45;&gt;Node20 -->
<g id="edge46" class="edge"><title>Node4&#45;&gt;Node20</title>
<path fill="none" stroke="midnightblue" d="M539.992,-130.376C443.006,-122.873 232.143,-104.286 163.733,-80 154.528,-76.7322 107.489,-46.6447 77.6752,-27.294"/>
<polygon fill="midnightblue" stroke="midnightblue" points="79.3277,-24.1937 69.0366,-21.6749 75.5108,-30.0615 79.3277,-24.1937"/>
</g>
<!-- Node21 -->
<g id="node42" class="node"><title>Node21</title>
<polygon fill="none" stroke="#bfbfbf" points="684.733,-58.5 684.733,-79.5 796.733,-79.5 796.733,-58.5 684.733,-58.5"/>
<text text-anchor="middle" x="740.733" y="-66.5" font-family="Helvetica,sans-Serif" font-size="10.00">tlx/allocator_base.hpp</text>
</g>
<!-- Node4&#45;&gt;Node21 -->
<g id="edge42" class="edge"><title>Node4&#45;&gt;Node21</title>
<path fill="none" stroke="midnightblue" d="M629.406,-116.922C653.414,-106.588 683.713,-93.5448 706.639,-83.6762"/>
<polygon fill="midnightblue" stroke="midnightblue" points="708.171,-86.8271 715.972,-79.6584 705.403,-80.3975 708.171,-86.8271"/>
</g>
<!-- Node4&#45;&gt;Node22 -->
<g id="edge48" class="edge"><title>Node4&#45;&gt;Node22</title>
<path fill="none" stroke="midnightblue" d="M539.971,-132.864C448.867,-129.907 249.346,-119.365 75.3383,-79.9543"/>
<polygon fill="midnightblue" stroke="midnightblue" points="76.0279,-76.5215 65.4975,-77.6879 74.4569,-83.343 76.0279,-76.5215"/>
</g>
<!-- Node4&#45;&gt;Node23 -->
<g id="edge50" class="edge"><title>Node4&#45;&gt;Node23</title>
<path fill="none" stroke="midnightblue" d="M639.255,-130.848C715.048,-125.29 864.298,-111.455 998.19,-80.0029"/>
<polygon fill="midnightblue" stroke="midnightblue" points="999.298,-83.3365 1008.21,-77.6083 997.672,-76.5282 999.298,-83.3365"/>
</g>
<!-- Node4&#45;&gt;Node24 -->
<g id="edge52" class="edge"><title>Node4&#45;&gt;Node24</title>
<path fill="none" stroke="midnightblue" d="M540.2,-131.807C455.368,-127.248 277.248,-114.158 130.733,-80 129.481,-79.7083 128.21,-79.3828 126.933,-79.0319"/>
<polygon fill="midnightblue" stroke="midnightblue" points="127.823,-75.6428 117.234,-75.9779 125.721,-82.3197 127.823,-75.6428"/>
</g>
<!-- Node4&#45;&gt;Node25 -->
<g id="edge56" class="edge"><title>Node4&#45;&gt;Node25</title>
<path fill="none" stroke="midnightblue" d="M639.248,-125.301C712.858,-112.37 849.815,-88.3098 918.383,-76.2641"/>
<polygon fill="midnightblue" stroke="midnightblue" points="919.141,-79.6847 928.384,-74.5072 917.929,-72.7903 919.141,-79.6847"/>
</g>
<!-- Node6 -->
<g id="node11" class="node"><title>Node6</title>
<polygon fill="none" stroke="#bfbfbf" points="572.233,-0.5 572.233,-21.5 647.233,-21.5 647.233,-0.5 572.233,-0.5"/>
<text text-anchor="middle" x="609.733" y="-8.5" font-family="Helvetica,sans-Serif" font-size="10.00">tlx/define.hpp</text>
</g>
<!-- Node5&#45;&gt;Node6 -->
<g id="edge10" class="edge"><title>Node5&#45;&gt;Node6</title>
<path fill="none" stroke="midnightblue" d="M443.494,-58.4966C477.019,-48.9183 526.714,-34.7196 563.036,-24.3418"/>
<polygon fill="midnightblue" stroke="midnightblue" points="564.248,-27.6357 572.902,-21.5231 562.325,-20.905 564.248,-27.6357"/>
</g>
<!-- Node7 -->
<g id="node13" class="node"><title>Node7</title>
<polygon fill="none" stroke="#bfbfbf" points="228.733,-0.5 228.733,-21.5 308.733,-21.5 308.733,-0.5 228.733,-0.5"/>
<text text-anchor="middle" x="268.733" y="-8.5" font-family="Helvetica,sans-Serif" font-size="10.00">tlx/unused.hpp</text>
</g>
<!-- Node5&#45;&gt;Node7 -->
<g id="edge12" class="edge"><title>Node5&#45;&gt;Node7</title>
<path fill="none" stroke="midnightblue" d="M381.742,-58.4966C359.8,-49.2746 327.667,-35.7695 303.269,-25.5153"/>
<polygon fill="midnightblue" stroke="midnightblue" points="304.579,-22.2693 294.004,-21.6212 301.866,-28.7225 304.579,-22.2693"/>
</g>
<!-- Node8 -->
<g id="node15" class="node"><title>Node8</title>
<polygon fill="none" stroke="#bfbfbf" points="326.733,-0.5 326.733,-21.5 364.733,-21.5 364.733,-0.5 326.733,-0.5"/>
<text text-anchor="middle" x="345.733" y="-8.5" font-family="Helvetica,sans-Serif" font-size="10.00">array</text>
</g>
<!-- Node5&#45;&gt;Node8 -->
<g id="edge14" class="edge"><title>Node5&#45;&gt;Node8</title>
<path fill="none" stroke="midnightblue" d="M395.544,-58.3619C386.773,-50.0226 374.383,-38.2418 364.155,-28.5162"/>
<polygon fill="midnightblue" stroke="midnightblue" points="366.509,-25.9248 356.85,-21.5707 361.685,-30.9978 366.509,-25.9248"/>
</g>
<!-- Node9 -->
<g id="node17" class="node"><title>Node9</title>
<polygon fill="none" stroke="#bfbfbf" points="382.233,-0.5 382.233,-21.5 431.233,-21.5 431.233,-0.5 382.233,-0.5"/>
<text text-anchor="middle" x="406.733" y="-8.5" font-family="Helvetica,sans-Serif" font-size="10.00">cstdarg</text>
</g>
<!-- Node5&#45;&gt;Node9 -->
<g id="edge16" class="edge"><title>Node5&#45;&gt;Node9</title>
<path fill="none" stroke="midnightblue" d="M406.733,-58.3619C406.733,-50.9219 406.733,-40.7427 406.733,-31.7276"/>
<polygon fill="midnightblue" stroke="midnightblue" points="410.233,-31.5706 406.733,-21.5707 403.233,-31.5707 410.233,-31.5706"/>
</g>
<!-- Node10 -->
<g id="node19" class="node"><title>Node10</title>
<polygon fill="none" stroke="#bfbfbf" points="664.233,-0.5 664.233,-21.5 709.233,-21.5 709.233,-0.5 664.233,-0.5"/>
<text text-anchor="middle" x="686.733" y="-8.5" font-family="Helvetica,sans-Serif" font-size="10.00">cstdlib</text>
</g>
<!-- Node5&#45;&gt;Node10 -->
<g id="edge18" class="edge"><title>Node5&#45;&gt;Node10</title>
<path fill="none" stroke="midnightblue" d="M467.452,-58.6489C525.003,-48.6528 608.316,-33.6588 654.387,-22.0348"/>
<polygon fill="midnightblue" stroke="midnightblue" points="655.393,-25.3891 664.173,-19.4589 653.612,-18.6197 655.393,-25.3891"/>
</g>
<!-- Node11 -->
<g id="node21" class="node"><title>Node11</title>
<polygon fill="none" stroke="#bfbfbf" points="448.733,-0.5 448.733,-21.5 488.733,-21.5 488.733,-0.5 448.733,-0.5"/>
<text text-anchor="middle" x="468.733" y="-8.5" font-family="Helvetica,sans-Serif" font-size="10.00">limits</text>
</g>
<!-- Node5&#45;&gt;Node11 -->
<g id="edge20" class="edge"><title>Node5&#45;&gt;Node11</title>
<path fill="none" stroke="midnightblue" d="M418.104,-58.3619C427.019,-50.0226 439.612,-38.2418 450.008,-28.5162"/>
<polygon fill="midnightblue" stroke="midnightblue" points="452.521,-30.9582 457.433,-21.5707 447.739,-25.8463 452.521,-30.9582"/>
</g>
<!-- Node12 -->
<g id="node23" class="node"><title>Node12</title>
<polygon fill="none" stroke="#bfbfbf" points="506.233,-0.5 506.233,-21.5 555.233,-21.5 555.233,-0.5 506.233,-0.5"/>
<text text-anchor="middle" x="530.733" y="-8.5" font-family="Helvetica,sans-Serif" font-size="10.00">random</text>
</g>
<!-- Node5&#45;&gt;Node12 -->
<g id="edge22" class="edge"><title>Node5&#45;&gt;Node12</title>
<path fill="none" stroke="midnightblue" d="M429.188,-58.4966C448.642,-49.397 477.012,-36.1273 498.823,-25.9253"/>
<polygon fill="midnightblue" stroke="midnightblue" points="500.45,-29.0285 508.025,-21.6212 497.484,-22.6878 500.45,-29.0285"/>
</g>
<!-- Node5&#45;&gt;Node13 -->
<g id="edge24" class="edge"><title>Node5&#45;&gt;Node13</title>
<path fill="none" stroke="midnightblue" d="M361.573,-58.4304C325.729,-49.865 274.143,-37.1495 220.7,-22.1751"/>
<polygon fill="midnightblue" stroke="midnightblue" points="221.631,-18.8013 211.057,-19.4539 219.73,-25.5382 221.631,-18.8013"/>
</g>
<!-- Node5&#45;&gt;Node14 -->
<g id="edge26" class="edge"><title>Node5&#45;&gt;Node14</title>
<path fill="none" stroke="midnightblue" d="M467.276,-59.0654C470.132,-58.6857 472.962,-58.3279 475.733,-58 694.925,-32.0567 960.562,-17.0977 1049.81,-12.5202"/>
<polygon fill="midnightblue" stroke="midnightblue" points="1050.23,-16.0035 1060.04,-12.0016 1049.88,-9.01248 1050.23,-16.0035"/>
</g>
<!-- Node5&#45;&gt;Node15 -->
<g id="edge28" class="edge"><title>Node5&#45;&gt;Node15</title>
<path fill="none" stroke="midnightblue" d="M467.268,-58.9937C470.126,-58.6332 472.959,-58.2991 475.733,-58 756.338,-27.745 831.372,-68.5843 1109.73,-22 1112.07,-21.6081 1114.48,-21.1284 1116.88,-20.5907"/>
<polygon fill="midnightblue" stroke="midnightblue" points="1117.81,-23.9674 1126.65,-18.1315 1116.1,-17.1793 1117.81,-23.9674"/>
</g>
<!-- Node16&#45;&gt;Node10 -->
<g id="edge32" class="edge"><title>Node16&#45;&gt;Node10</title>
<path fill="none" stroke="midnightblue" d="M580.275,-58.4966C601.018,-49.2419 631.429,-35.6738 654.442,-25.4065"/>
<polygon fill="midnightblue" stroke="midnightblue" points="656.096,-28.5013 663.802,-21.2305 653.244,-22.1087 656.096,-28.5013"/>
</g>
<!-- Node17&#45;&gt;Node18 -->
<g id="edge36" class="edge"><title>Node17&#45;&gt;Node18</title>
<path fill="none" stroke="midnightblue" d="M291.381,-62.1691C306.487,-60.6155 322.694,-59.1008 337.733,-58 711.297,-30.6563 805.628,-40.5483 1179.73,-22 1234.18,-19.3006 1297.14,-15.6537 1336.45,-13.3138"/>
<polygon fill="midnightblue" stroke="midnightblue" points="1336.87,-16.7951 1346.64,-12.7049 1336.45,-9.80755 1336.87,-16.7951"/>
</g>
<!-- Node17&#45;&gt;Node19 -->
<g id="edge38" class="edge"><title>Node17&#45;&gt;Node19</title>
<path fill="none" stroke="midnightblue" d="M211.088,-58.4966C193.363,-49.4786 167.588,-36.3649 147.609,-26.2006"/>
<polygon fill="midnightblue" stroke="midnightblue" points="149.109,-23.0364 138.609,-21.6212 145.934,-29.2753 149.109,-23.0364"/>
</g>
<!-- Node17&#45;&gt;Node20 -->
<g id="edge40" class="edge"><title>Node17&#45;&gt;Node20</title>
<path fill="none" stroke="midnightblue" d="M198.65,-58.4571C171.062,-49.6417 130.475,-36.618 87.1636,-22.4518"/>
<polygon fill="midnightblue" stroke="midnightblue" points="88.1824,-19.1026 77.5897,-19.3162 86.0036,-25.7549 88.1824,-19.1026"/>
</g>
<!-- Node27&#45;&gt;Node4 -->
<g id="edge82" class="edge"><title>Node27&#45;&gt;Node4</title>
<path fill="none" stroke="midnightblue" d="M1044.93,-192.59C951.466,-180.56 750.162,-154.649 649.538,-141.698"/>
<polygon fill="midnightblue" stroke="midnightblue" points="649.901,-138.216 639.535,-140.41 649.007,-145.158 649.901,-138.216"/>
</g>
<!-- Node27&#45;&gt;Node14 -->
<g id="edge94" class="edge"><title>Node27&#45;&gt;Node14</title>
<path fill="none" stroke="midnightblue" d="M1096.21,-188.199C1097.43,-178.689 1099.07,-164.455 1099.73,-152 1101.95,-110.222 1102.54,-99.1016 1094.73,-58 1093.05,-49.1599 1090.37,-39.6083 1087.81,-31.4394"/>
<polygon fill="midnightblue" stroke="midnightblue" points="1091.04,-30.0765 1084.59,-21.6732 1084.39,-32.2662 1091.04,-30.0765"/>
</g>
<!-- Node27&#45;&gt;Node15 -->
<g id="edge100" class="edge"><title>Node27&#45;&gt;Node15</title>
<path fill="none" stroke="midnightblue" d="M1099.55,-188.332C1103.68,-178.908 1109.6,-164.725 1113.73,-152 1127.35,-110.039 1138.7,-59.599 1144.52,-31.8521"/>
<polygon fill="midnightblue" stroke="midnightblue" points="1148.01,-32.2584 1146.6,-21.7572 1141.15,-30.843 1148.01,-32.2584"/>
</g>
<!-- Node27&#45;&gt;Node18 -->
<g id="edge84" class="edge"><title>Node27&#45;&gt;Node18</title>
<path fill="none" stroke="midnightblue" d="M1144.28,-194.361C1222.3,-186.551 1366.55,-169.869 1381.73,-152 1410.55,-118.081 1394.96,-61.337 1383.47,-31.2155"/>
<polygon fill="midnightblue" stroke="midnightblue" points="1386.64,-29.7179 1379.65,-21.7525 1380.14,-32.3358 1386.64,-29.7179"/>
</g>
<!-- Node27&#45;&gt;Node25 -->
<g id="edge96" class="edge"><title>Node27&#45;&gt;Node25</title>
<path fill="none" stroke="midnightblue" d="M1044.96,-189.583C1022.04,-182.801 996.315,-171.307 979.733,-152 964.857,-134.681 960.642,-108.155 959.644,-89.7714"/>
<polygon fill="midnightblue" stroke="midnightblue" points="963.136,-89.4358 959.372,-79.5324 956.139,-89.6219 963.136,-89.4358"/>
</g>
<!-- Node27&#45;&gt;Node26 -->
<g id="edge90" class="edge"><title>Node27&#45;&gt;Node26</title>
<path fill="none" stroke="midnightblue" d="M1058.17,-188.484C1015.93,-176.336 946.863,-156.471 904.823,-144.38"/>
<polygon fill="midnightblue" stroke="midnightblue" points="905.583,-140.957 895.005,-141.556 903.648,-147.684 905.583,-140.957"/>
</g>
<!-- Node28 -->
<g id="node68" class="node"><title>Node28</title>
<a xlink:href="config_8hpp.html" target="_top" xlink:title="thrill/common/config.hpp">
<polygon fill="none" stroke="black" points="1184.23,-123.5 1184.23,-144.5 1307.23,-144.5 1307.23,-123.5 1184.23,-123.5"/>
<text text-anchor="middle" x="1245.73" y="-131.5" font-family="Helvetica,sans-Serif" font-size="10.00">thrill/common/config.hpp</text>
</a>
</g>
<!-- Node27&#45;&gt;Node28 -->
<g id="edge80" class="edge"><title>Node27&#45;&gt;Node28</title>
<path fill="none" stroke="midnightblue" d="M1119.33,-188.412C1144.45,-177.6 1183.63,-160.731 1211.72,-148.642"/>
<polygon fill="midnightblue" stroke="midnightblue" points="1213.34,-151.752 1221.15,-144.584 1210.58,-145.323 1213.34,-151.752"/>
</g>
<!-- Node29 -->
<g id="node72" class="node"><title>Node29</title>
<polygon fill="none" stroke="#bfbfbf" points="1324.23,-123.5 1324.23,-144.5 1373.23,-144.5 1373.23,-123.5 1324.23,-123.5"/>
<text text-anchor="middle" x="1348.73" y="-131.5" font-family="Helvetica,sans-Serif" font-size="10.00">cstddef</text>
</g>
<!-- Node27&#45;&gt;Node29 -->
<g id="edge86" class="edge"><title>Node27&#45;&gt;Node29</title>
<path fill="none" stroke="midnightblue" d="M1144.6,-192.613C1190.17,-185.798 1258.9,-173.034 1315.73,-152 1318,-151.159 1320.31,-150.184 1322.6,-149.13"/>
<polygon fill="midnightblue" stroke="midnightblue" points="1324.37,-152.153 1331.71,-144.506 1321.21,-145.91 1324.37,-152.153"/>
</g>
<!-- Node30 -->
<g id="node74" class="node"><title>Node30</title>
<polygon fill="none" stroke="#bfbfbf" points="1440.73,-58.5 1440.73,-79.5 1486.73,-79.5 1486.73,-58.5 1440.73,-58.5"/>
<text text-anchor="middle" x="1463.73" y="-66.5" font-family="Helvetica,sans-Serif" font-size="10.00">cstdint</text>
</g>
<!-- Node27&#45;&gt;Node30 -->
<g id="edge88" class="edge"><title>Node27&#45;&gt;Node30</title>
<path fill="none" stroke="midnightblue" d="M1144.34,-196.879C1222.9,-192.677 1371.5,-181.048 1414.73,-152 1436.76,-137.196 1450.31,-108.871 1457.42,-89.4646"/>
<polygon fill="midnightblue" stroke="midnightblue" points="1460.82,-90.338 1460.72,-79.7435 1454.19,-88.0852 1460.82,-90.338"/>
</g>
<!-- Node31 -->
<g id="node77" class="node"><title>Node31</title>
<polygon fill="none" stroke="#bfbfbf" points="988.733,-123.5 988.733,-144.5 1032.73,-144.5 1032.73,-123.5 988.733,-123.5"/>
<text text-anchor="middle" x="1010.73" y="-131.5" font-family="Helvetica,sans-Serif" font-size="10.00">mutex</text>
</g>
<!-- Node27&#45;&gt;Node31 -->
<g id="edge92" class="edge"><title>Node27&#45;&gt;Node31</title>
<path fill="none" stroke="midnightblue" d="M1080.86,-188.267C1067.65,-178.044 1047.57,-162.504 1032.28,-150.67"/>
<polygon fill="midnightblue" stroke="midnightblue" points="1034.4,-147.886 1024.35,-144.534 1030.11,-153.422 1034.4,-147.886"/>
</g>
<!-- Node32 -->
<g id="node81" class="node"><title>Node32</title>
<polygon fill="none" stroke="#bfbfbf" points="1050.73,-123.5 1050.73,-144.5 1090.73,-144.5 1090.73,-123.5 1050.73,-123.5"/>
<text text-anchor="middle" x="1070.73" y="-131.5" font-family="Helvetica,sans-Serif" font-size="10.00">utility</text>
</g>
<!-- Node27&#45;&gt;Node32 -->
<g id="edge98" class="edge"><title>Node27&#45;&gt;Node32</title>
<path fill="none" stroke="midnightblue" d="M1090.77,-188.267C1087.34,-178.991 1082.3,-165.336 1078.13,-154.045"/>
<polygon fill="midnightblue" stroke="midnightblue" points="1081.37,-152.702 1074.62,-144.534 1074.8,-155.127 1081.37,-152.702"/>
</g>
<!-- Node33&#45;&gt;Node14 -->
<g id="edge118" class="edge"><title>Node33&#45;&gt;Node14</title>
<path fill="none" stroke="midnightblue" d="M1596.01,-116.685C1573.07,-98.6074 1534.25,-71.1019 1495.73,-58 1335.96,-3.65171 1283.39,-54.1972 1117.73,-22 1115.54,-21.5741 1113.29,-21.0727 1111.04,-20.5228"/>
<polygon fill="midnightblue" stroke="midnightblue" points="1111.87,-17.1204 1101.3,-17.8842 1110.04,-23.877 1111.87,-17.1204"/>
</g>
<!-- Node33&#45;&gt;Node15 -->
<g id="edge120" class="edge"><title>Node33&#45;&gt;Node15</title>
<path fill="none" stroke="midnightblue" d="M1610.55,-116.858C1603.12,-98.9281 1588.81,-71.5481 1566.73,-58 1534.03,-37.9296 1273.27,-19.1345 1180.97,-13.0493"/>
<polygon fill="midnightblue" stroke="midnightblue" points="1181.03,-9.54583 1170.82,-12.3869 1180.57,-16.531 1181.03,-9.54583"/>
</g>
<!-- Node33&#45;&gt;Node23 -->
<g id="edge116" class="edge"><title>Node33&#45;&gt;Node23</title>
<path fill="none" stroke="midnightblue" d="M1566.52,-128.43C1449.49,-115.449 1161.18,-83.469 1063.61,-72.6472"/>
<polygon fill="midnightblue" stroke="midnightblue" points="1063.79,-69.1454 1053.46,-71.5215 1063.02,-76.1027 1063.79,-69.1454"/>
</g>
<!-- Node33&#45;&gt;Node30 -->
<g id="edge112" class="edge"><title>Node33&#45;&gt;Node30</title>
<path fill="none" stroke="midnightblue" d="M1576.53,-116.922C1551.59,-106.324 1519.94,-92.8784 1496.52,-82.9282"/>
<polygon fill="midnightblue" stroke="midnightblue" points="1497.6,-79.5852 1487.03,-78.8964 1494.86,-86.0279 1497.6,-79.5852"/>
</g>
<!-- Node34 -->
<g id="node88" class="node"><title>Node34</title>
<polygon fill="none" stroke="#bfbfbf" points="1682.23,-58.5 1682.23,-79.5 1747.23,-79.5 1747.23,-58.5 1682.23,-58.5"/>
<text text-anchor="middle" x="1714.73" y="-66.5" font-family="Helvetica,sans-Serif" font-size="10.00">netinet/in.h</text>
</g>
<!-- Node33&#45;&gt;Node34 -->
<g id="edge108" class="edge"><title>Node33&#45;&gt;Node34</title>
<path fill="none" stroke="midnightblue" d="M1642.48,-116.922C1657.23,-107.141 1675.63,-94.9344 1690.17,-85.2887"/>
<polygon fill="midnightblue" stroke="midnightblue" points="1692.26,-88.1025 1698.66,-79.6584 1688.39,-82.269 1692.26,-88.1025"/>
</g>
<!-- Node35 -->
<g id="node90" class="node"><title>Node35</title>
<polygon fill="none" stroke="#bfbfbf" points="1764.23,-58.5 1764.23,-79.5 1837.23,-79.5 1837.23,-58.5 1764.23,-58.5"/>
<text text-anchor="middle" x="1800.73" y="-66.5" font-family="Helvetica,sans-Serif" font-size="10.00">sys/socket.h</text>
</g>
<!-- Node33&#45;&gt;Node35 -->
<g id="edge110" class="edge"><title>Node33&#45;&gt;Node35</title>
<path fill="none" stroke="midnightblue" d="M1665.08,-116.922C1695.08,-106.323 1733.15,-92.8758 1761.31,-82.9253"/>
<polygon fill="midnightblue" stroke="midnightblue" points="1762.57,-86.1931 1770.83,-79.562 1760.24,-79.5928 1762.57,-86.1931"/>
</g>
<!-- Node36 -->
<g id="node93" class="node"><title>Node36</title>
<polygon fill="none" stroke="#bfbfbf" points="1618.73,-58.5 1618.73,-79.5 1664.73,-79.5 1664.73,-58.5 1618.73,-58.5"/>
<text text-anchor="middle" x="1641.73" y="-66.5" font-family="Helvetica,sans-Serif" font-size="10.00">cstring</text>
</g>
<!-- Node33&#45;&gt;Node36 -->
<g id="edge114" class="edge"><title>Node33&#45;&gt;Node36</title>
<path fill="none" stroke="midnightblue" d="M1623.3,-116.922C1626.55,-108.487 1630.48,-98.2479 1633.89,-89.403"/>
<polygon fill="midnightblue" stroke="midnightblue" points="1637.24,-90.442 1637.56,-79.8521 1630.7,-87.9291 1637.24,-90.442"/>
</g>
</g>
</svg>
