<?xml version="1.0" encoding="UTF-8" standalone="no"?>
<!DOCTYPE svg PUBLIC "-//W3C//DTD SVG 1.1//EN"
 "http://www.w3.org/Graphics/SVG/1.1/DTD/svg11.dtd">
<!-- Generated by graphviz version 2.26.3 (20100126.1600)
 -->
<!-- Title: thrill/net/tcp/socket_address.hpp Pages: 1 -->
<svg width="444pt" height="376pt"
 viewBox="0.00 0.00 444.00 376.00" xmlns="http://www.w3.org/2000/svg" xmlns:xlink="http://www.w3.org/1999/xlink">
<g id="graph1" class="graph" transform="scale(1 1) rotate(0) translate(4 372)">
<title>thrill/net/tcp/socket_address.hpp</title>
<!-- Node1 -->
<g id="node1" class="node"><title>Node1</title>
<polygon fill="#bfbfbf" stroke="black" points="272,-333 272,-367 372,-367 372,-333 272,-333"/>
<text text-anchor="start" x="280" y="-354" font-family="Helvetica,sans-Serif" font-size="10.00">thrill/net/tcp/socket</text>
<text text-anchor="middle" x="322" y="-341" font-family="Helvetica,sans-Serif" font-size="10.00">_address.hpp</text>
</g>
<!-- Node2 -->
<g id="node3" class="node"><title>Node2</title>
<a xlink:href="socket_8hpp.html" target="_top" xlink:title="thrill/net/tcp/socket.hpp">
<polygon fill="none" stroke="black" points="199.5,-267.5 199.5,-288.5 318.5,-288.5 318.5,-267.5 199.5,-267.5"/>
<text text-anchor="middle" x="259" y="-275.5" font-family="Helvetica,sans-Serif" font-size="10.00">thrill/net/tcp/socket.hpp</text>
</a>
</g>
<!-- Node1&#45;&gt;Node2 -->
<g id="edge2" class="edge"><title>Node1&#45;&gt;Node2</title>
<path fill="none" stroke="midnightblue" d="M300.268,-325.163C289.45,-312.8 276.926,-298.487 268.538,-288.901"/>
<polygon fill="midnightblue" stroke="midnightblue" points="297.851,-327.716 307.07,-332.937 303.119,-323.106 297.851,-327.716"/>
</g>
<!-- Node11 -->
<g id="node27" class="node"><title>Node11</title>
<a xlink:href="socket__address_8cpp.html" target="_top" xlink:title="thrill/net/tcp/socket\l_address.cpp">
<polygon fill="none" stroke="black" points="336,-261 336,-295 436,-295 436,-261 336,-261"/>
<text text-anchor="start" x="344" y="-282" font-family="Helvetica,sans-Serif" font-size="10.00">thrill/net/tcp/socket</text>
<text text-anchor="middle" x="386" y="-269" font-family="Helvetica,sans-Serif" font-size="10.00">_address.cpp</text>
</a>
</g>
<!-- Node1&#45;&gt;Node11 -->
<g id="edge32" class="edge"><title>Node1&#45;&gt;Node11</title>
<path fill="none" stroke="midnightblue" d="M343.886,-325.379C352.636,-315.535 362.51,-304.426 370.497,-295.441"/>
<polygon fill="midnightblue" stroke="midnightblue" points="341.195,-323.138 337.167,-332.937 346.427,-327.788 341.195,-323.138"/>
</g>
<!-- Node3 -->
<g id="node5" class="node"><title>Node3</title>
<a xlink:href="tcp_2connection_8hpp.html" target="_top" xlink:title="thrill/net/tcp/connection.hpp">
<polygon fill="none" stroke="black" points="77.5,-202.5 77.5,-223.5 214.5,-223.5 214.5,-202.5 77.5,-202.5"/>
<text text-anchor="middle" x="146" y="-210.5" font-family="Helvetica,sans-Serif" font-size="10.00">thrill/net/tcp/connection.hpp</text>
</a>
</g>
<!-- Node2&#45;&gt;Node3 -->
<g id="edge4" class="edge"><title>Node2&#45;&gt;Node3</title>
<path fill="none" stroke="midnightblue" d="M231.867,-262.393C210.989,-250.383 182.7,-234.111 164.399,-223.584"/>
<polygon fill="midnightblue" stroke="midnightblue" points="230.18,-265.46 240.593,-267.412 233.67,-259.392 230.18,-265.46"/>
</g>
<!-- Node8 -->
<g id="node18" class="node"><title>Node8</title>
<a xlink:href="select__dispatcher_8hpp.html" target="_top" xlink:title="thrill/net/tcp/select\l_dispatcher.hpp">
<polygon fill="none" stroke="black" points="217.5,-131 217.5,-165 314.5,-165 314.5,-131 217.5,-131"/>
<text text-anchor="start" x="225.5" y="-152" font-family="Helvetica,sans-Serif" font-size="10.00">thrill/net/tcp/select</text>
<text text-anchor="middle" x="266" y="-139" font-family="Helvetica,sans-Serif" font-size="10.00">_dispatcher.hpp</text>
</a>
</g>
<!-- Node2&#45;&gt;Node8 -->
<g id="edge28" class="edge"><title>Node2&#45;&gt;Node8</title>
<path fill="none" stroke="midnightblue" d="M260.114,-257.312C261.485,-231.846 263.789,-189.061 265.07,-165.273"/>
<polygon fill="midnightblue" stroke="midnightblue" points="256.616,-257.188 259.573,-267.362 263.606,-257.564 256.616,-257.188"/>
</g>
<!-- Node10 -->
<g id="node25" class="node"><title>Node10</title>
<a xlink:href="socket_8cpp.html" target="_top" xlink:title="thrill/net/tcp/socket.cpp">
<polygon fill="none" stroke="black" points="286.5,-202.5 286.5,-223.5 405.5,-223.5 405.5,-202.5 286.5,-202.5"/>
<text text-anchor="middle" x="346" y="-210.5" font-family="Helvetica,sans-Serif" font-size="10.00">thrill/net/tcp/socket.cpp</text>
</a>
</g>
<!-- Node2&#45;&gt;Node10 -->
<g id="edge30" class="edge"><title>Node2&#45;&gt;Node10</title>
<path fill="none" stroke="midnightblue" d="M281.623,-261.098C297.527,-249.215 318.312,-233.686 331.901,-223.534"/>
<polygon fill="midnightblue" stroke="midnightblue" points="279.282,-258.477 273.366,-267.267 283.472,-264.085 279.282,-258.477"/>
</g>
<!-- Node4 -->
<g id="node7" class="node"><title>Node4</title>
<a xlink:href="construct_8cpp.html" target="_top" xlink:title="thrill/net/tcp/construct.cpp">
<polygon fill="none" stroke="black" points="0,-0.5 0,-21.5 130,-21.5 130,-0.5 0,-0.5"/>
<text text-anchor="middle" x="65" y="-8.5" font-family="Helvetica,sans-Serif" font-size="10.00">thrill/net/tcp/construct.cpp</text>
</a>
</g>
<!-- Node3&#45;&gt;Node4 -->
<g id="edge6" class="edge"><title>Node3&#45;&gt;Node4</title>
<path fill="none" stroke="midnightblue" d="M112.348,-197.428C98.7743,-189.674 83.9935,-179.123 74,-166 44.267,-126.956 43.9209,-106.563 51,-58 52.8667,-45.194 57.4523,-31.0258 60.8699,-21.6276"/>
<polygon fill="midnightblue" stroke="midnightblue" points="111.015,-200.685 121.478,-202.347 114.334,-194.523 111.015,-200.685"/>
</g>
<!-- Node5 -->
<g id="node9" class="node"><title>Node5</title>
<a xlink:href="tcp_2group_8hpp.html" target="_top" xlink:title="thrill/net/tcp/group.hpp">
<polygon fill="none" stroke="black" points="82.5,-137.5 82.5,-158.5 195.5,-158.5 195.5,-137.5 82.5,-137.5"/>
<text text-anchor="middle" x="139" y="-145.5" font-family="Helvetica,sans-Serif" font-size="10.00">thrill/net/tcp/group.hpp</text>
</a>
</g>
<!-- Node3&#45;&gt;Node5 -->
<g id="edge8" class="edge"><title>Node3&#45;&gt;Node5</title>
<path fill="none" stroke="midnightblue" d="M143.74,-192.014C142.536,-180.831 141.106,-167.558 140.134,-158.534"/>
<polygon fill="midnightblue" stroke="midnightblue" points="140.293,-192.699 144.844,-202.267 147.253,-191.949 140.293,-192.699"/>
</g>
<!-- Node3&#45;&gt;Node8 -->
<g id="edge20" class="edge"><title>Node3&#45;&gt;Node8</title>
<path fill="none" stroke="midnightblue" d="M174.417,-197.608C192.402,-187.866 215.682,-175.255 234.27,-165.187"/>
<polygon fill="midnightblue" stroke="midnightblue" points="172.673,-194.572 165.547,-202.412 176.007,-200.727 172.673,-194.572"/>
</g>
<!-- Node5&#45;&gt;Node4 -->
<g id="edge16" class="edge"><title>Node5&#45;&gt;Node4</title>
<path fill="none" stroke="midnightblue" d="M102.908,-132.632C87.0135,-123.822 69.9458,-111.074 61,-94 48.7474,-70.6151 56.0562,-38.2502 61.2208,-21.6936"/>
<polygon fill="midnightblue" stroke="midnightblue" points="101.57,-135.88 112.06,-137.367 104.786,-129.663 101.57,-135.88"/>
</g>
<!-- Node6 -->
<g id="node11" class="node"><title>Node6</title>
<a xlink:href="construct_8hpp.html" target="_top" xlink:title="thrill/net/tcp/construct.hpp">
<polygon fill="none" stroke="black" points="70,-65.5 70,-86.5 200,-86.5 200,-65.5 70,-65.5"/>
<text text-anchor="middle" x="135" y="-73.5" font-family="Helvetica,sans-Serif" font-size="10.00">thrill/net/tcp/construct.hpp</text>
</a>
</g>
<!-- Node5&#45;&gt;Node6 -->
<g id="edge10" class="edge"><title>Node5&#45;&gt;Node6</title>
<path fill="none" stroke="midnightblue" d="M137.846,-127.235C137.109,-113.969 136.184,-97.3188 135.593,-86.6674"/>
<polygon fill="midnightblue" stroke="midnightblue" points="134.36,-127.586 138.41,-137.376 141.35,-127.197 134.36,-127.586"/>
</g>
<!-- Node7 -->
<g id="node14" class="node"><title>Node7</title>
<a xlink:href="tcp_2group_8cpp.html" target="_top" xlink:title="thrill/net/tcp/group.cpp">
<polygon fill="none" stroke="black" points="171.5,-0.5 171.5,-21.5 284.5,-21.5 284.5,-0.5 171.5,-0.5"/>
<text text-anchor="middle" x="228" y="-8.5" font-family="Helvetica,sans-Serif" font-size="10.00">thrill/net/tcp/group.cpp</text>
</a>
</g>
<!-- Node5&#45;&gt;Node7 -->
<g id="edge18" class="edge"><title>Node5&#45;&gt;Node7</title>
<path fill="none" stroke="midnightblue" d="M167.963,-132.194C182.383,-122.894 198.858,-109.844 209,-94 223.664,-71.0914 227.064,-38.236 227.816,-21.5669"/>
<polygon fill="midnightblue" stroke="midnightblue" points="166.02,-129.28 159.325,-137.492 169.679,-135.248 166.02,-129.28"/>
</g>
<!-- Node6&#45;&gt;Node4 -->
<g id="edge12" class="edge"><title>Node6&#45;&gt;Node4</title>
<path fill="none" stroke="midnightblue" d="M116.083,-58.4338C103.384,-46.6419 87.0751,-31.4983 76.344,-21.5337"/>
<polygon fill="midnightblue" stroke="midnightblue" points="113.731,-61.0268 123.441,-65.2666 118.495,-55.8972 113.731,-61.0268"/>
</g>
<!-- Node6&#45;&gt;Node7 -->
<g id="edge14" class="edge"><title>Node6&#45;&gt;Node7</title>
<path fill="none" stroke="midnightblue" d="M158.712,-59.4268C175.772,-47.5032 198.268,-31.7803 212.929,-21.5337"/>
<polygon fill="midnightblue" stroke="midnightblue" points="156.548,-56.6691 150.357,-65.2666 160.559,-62.4066 156.548,-56.6691"/>
</g>
<!-- Node8&#45;&gt;Node4 -->
<g id="edge22" class="edge"><title>Node8&#45;&gt;Node4</title>
<path fill="none" stroke="midnightblue" d="M255.298,-121.649C245.88,-101.551 230.332,-74.5848 209,-58 185.54,-39.7601 154.734,-28.4652 127.638,-21.5379"/>
<polygon fill="midnightblue" stroke="midnightblue" points="252.152,-123.186 259.428,-130.887 258.542,-120.33 252.152,-123.186"/>
</g>
<!-- Node8&#45;&gt;Node7 -->
<g id="edge24" class="edge"><title>Node8&#45;&gt;Node7</title>
<path fill="none" stroke="midnightblue" d="M277.775,-121.125C284.071,-102.672 288.881,-77.9978 280,-58 273.085,-42.4299 258.182,-29.8332 246.095,-21.6143"/>
<polygon fill="midnightblue" stroke="midnightblue" points="274.431,-120.074 274.203,-130.667 280.987,-122.529 274.431,-120.074"/>
</g>
<!-- Node9 -->
<g id="node22" class="node"><title>Node9</title>
<a xlink:href="select__dispatcher_8cpp.html" target="_top" xlink:title="thrill/net/tcp/select\l_dispatcher.cpp">
<polygon fill="none" stroke="black" points="331.5,-59 331.5,-93 428.5,-93 428.5,-59 331.5,-59"/>
<text text-anchor="start" x="339.5" y="-80" font-family="Helvetica,sans-Serif" font-size="10.00">thrill/net/tcp/select</text>
<text text-anchor="middle" x="380" y="-67" font-family="Helvetica,sans-Serif" font-size="10.00">_dispatcher.cpp</text>
</a>
</g>
<!-- Node8&#45;&gt;Node9 -->
<g id="edge26" class="edge"><title>Node8&#45;&gt;Node9</title>
<path fill="none" stroke="midnightblue" d="M301.841,-125.364C318.31,-114.962 337.526,-102.826 352.782,-93.19"/>
<polygon fill="midnightblue" stroke="midnightblue" points="299.602,-122.638 293.016,-130.937 303.34,-128.556 299.602,-122.638"/>
</g>
</g>
</svg>
