<?xml version="1.0" encoding="UTF-8" standalone="no"?>
<!DOCTYPE svg PUBLIC "-//W3C//DTD SVG 1.1//EN"
 "http://www.w3.org/Graphics/SVG/1.1/DTD/svg11.dtd">
<!-- Generated by graphviz version 2.40.1 (20161225.0304)
 -->
<!-- Title: thrill/net/tcp/socket_address.hpp Pages: 1 -->
<svg width="508pt" height="95pt"
 viewBox="0.00 0.00 507.50 95.00" xmlns="http://www.w3.org/2000/svg" xmlns:xlink="http://www.w3.org/1999/xlink">
<g id="graph0" class="graph" transform="scale(1 1) rotate(0) translate(4 91)">
<title>thrill/net/tcp/socket_address.hpp</title>
<!-- Node0 -->
<g id="node1" class="node">
<title>Node0</title>
<polygon fill="#bfbfbf" stroke="#000000" points="223.5,-56.5 223.5,-86.5 334.5,-86.5 334.5,-56.5 223.5,-56.5"/>
<text text-anchor="start" x="231.5" y="-74.5" font-family="Helvetica,sans-Serif" font-size="10.00" fill="#000000">thrill/net/tcp/socket</text>
<text text-anchor="middle" x="279" y="-63.5" font-family="Helvetica,sans-Serif" font-size="10.00" fill="#000000">_address.hpp</text>
</g>
<!-- Node1 -->
<g id="node2" class="node">
<title>Node1</title>
<polygon fill="none" stroke="#bfbfbf" points="0,-.5 0,-19.5 72,-19.5 72,-.5 0,-.5"/>
<text text-anchor="middle" x="36" y="-7.5" font-family="Helvetica,sans-Serif" font-size="10.00" fill="#000000">netinet/in.h</text>
</g>
<!-- Node0&#45;&gt;Node1 -->
<g id="edge1" class="edge">
<title>Node0&#45;&gt;Node1</title>
<path fill="none" stroke="#191970" d="M223.2509,-57.3907C180.4943,-46.5695 122.1921,-31.8141 82.0607,-21.6573"/>
<polygon fill="#191970" stroke="#191970" points="82.8229,-18.24 72.2698,-19.1794 81.1054,-25.026 82.8229,-18.24"/>
</g>
<!-- Node2 -->
<g id="node3" class="node">
<title>Node2</title>
<polygon fill="none" stroke="#bfbfbf" points="90.5,-.5 90.5,-19.5 167.5,-19.5 167.5,-.5 90.5,-.5"/>
<text text-anchor="middle" x="129" y="-7.5" font-family="Helvetica,sans-Serif" font-size="10.00" fill="#000000">sys/socket.h</text>
</g>
<!-- Node0&#45;&gt;Node2 -->
<g id="edge2" class="edge">
<title>Node0&#45;&gt;Node2</title>
<path fill="none" stroke="#191970" d="M242.3059,-56.4554C217.6073,-46.329 185.3326,-33.0964 161.5494,-23.3453"/>
<polygon fill="#191970" stroke="#191970" points="162.825,-20.0855 152.2447,-19.5303 160.1694,-26.5623 162.825,-20.0855"/>
</g>
<!-- Node3 -->
<g id="node4" class="node">
<title>Node3</title>
<polygon fill="none" stroke="#bfbfbf" points="186,-.5 186,-19.5 236,-19.5 236,-.5 186,-.5"/>
<text text-anchor="middle" x="211" y="-7.5" font-family="Helvetica,sans-Serif" font-size="10.00" fill="#000000">cstdint</text>
</g>
<!-- Node0&#45;&gt;Node3 -->
<g id="edge3" class="edge">
<title>Node0&#45;&gt;Node3</title>
<path fill="none" stroke="#191970" d="M262.191,-56.2977C252.2603,-47.3163 239.6743,-35.9334 229.4673,-26.702"/>
<polygon fill="#191970" stroke="#191970" points="231.652,-23.9588 221.8877,-19.8469 226.9566,-29.1505 231.652,-23.9588"/>
</g>
<!-- Node4 -->
<g id="node5" class="node">
<title>Node4</title>
<polygon fill="none" stroke="#bfbfbf" points="254,-.5 254,-19.5 304,-19.5 304,-.5 254,-.5"/>
<text text-anchor="middle" x="279" y="-7.5" font-family="Helvetica,sans-Serif" font-size="10.00" fill="#000000">cstring</text>
</g>
<!-- Node0&#45;&gt;Node4 -->
<g id="edge4" class="edge">
<title>Node0&#45;&gt;Node4</title>
<path fill="none" stroke="#191970" d="M279,-56.2977C279,-48.3834 279,-38.6043 279,-30.0759"/>
<polygon fill="#191970" stroke="#191970" points="282.5001,-29.8469 279,-19.8469 275.5001,-29.847 282.5001,-29.8469"/>
</g>
<!-- Node5 -->
<g id="node6" class="node">
<title>Node5</title>
<polygon fill="none" stroke="#bfbfbf" points="322.5,-.5 322.5,-19.5 371.5,-19.5 371.5,-.5 322.5,-.5"/>
<text text-anchor="middle" x="347" y="-7.5" font-family="Helvetica,sans-Serif" font-size="10.00" fill="#000000">iosfwd</text>
</g>
<!-- Node0&#45;&gt;Node5 -->
<g id="edge5" class="edge">
<title>Node0&#45;&gt;Node5</title>
<path fill="none" stroke="#191970" d="M295.809,-56.2977C305.7397,-47.3163 318.3257,-35.9334 328.5327,-26.702"/>
<polygon fill="#191970" stroke="#191970" points="331.0434,-29.1505 336.1123,-19.8469 326.348,-23.9588 331.0434,-29.1505"/>
</g>
<!-- Node6 -->
<g id="node7" class="node">
<title>Node6</title>
<polygon fill="none" stroke="#bfbfbf" points="390,-.5 390,-19.5 434,-19.5 434,-.5 390,-.5"/>
<text text-anchor="middle" x="412" y="-7.5" font-family="Helvetica,sans-Serif" font-size="10.00" fill="#000000">string</text>
</g>
<!-- Node0&#45;&gt;Node6 -->
<g id="edge6" class="edge">
<title>Node0&#45;&gt;Node6</title>
<path fill="none" stroke="#191970" d="M311.5355,-56.4554C333.1429,-46.464 361.2898,-33.4487 382.292,-23.7372"/>
<polygon fill="#191970" stroke="#191970" points="383.7821,-26.9043 391.3897,-19.5303 380.8441,-20.5506 383.7821,-26.9043"/>
</g>
<!-- Node7 -->
<g id="node8" class="node">
<title>Node7</title>
<polygon fill="none" stroke="#bfbfbf" points="452.5,-.5 452.5,-19.5 499.5,-19.5 499.5,-.5 452.5,-.5"/>
<text text-anchor="middle" x="476" y="-7.5" font-family="Helvetica,sans-Serif" font-size="10.00" fill="#000000">vector</text>
</g>
<!-- Node0&#45;&gt;Node7 -->
<g id="edge7" class="edge">
<title>Node0&#45;&gt;Node7</title>
<path fill="none" stroke="#191970" d="M327.1916,-56.4554C363.0637,-45.2568 411.1044,-30.2593 442.7736,-20.3727"/>
<polygon fill="#191970" stroke="#191970" points="443.9417,-23.6747 452.4443,-17.3537 441.8556,-16.9928 443.9417,-23.6747"/>
</g>
</g>
</svg>
