<?xml version="1.0" encoding="UTF-8" standalone="no"?>
<!DOCTYPE svg PUBLIC "-//W3C//DTD SVG 1.1//EN"
 "http://www.w3.org/Graphics/SVG/1.1/DTD/svg11.dtd">
<!-- Generated by graphviz version 2.26.3 (20100126.1600)
 -->
<!-- Title: thrill/api/source_node.hpp Pages: 1 -->
<svg width="4006pt" height="258pt"
 viewBox="0.00 0.00 4006.27 258.00" xmlns="http://www.w3.org/2000/svg" xmlns:xlink="http://www.w3.org/1999/xlink">
<g id="graph1" class="graph" transform="scale(1 1) rotate(0) translate(4 254)">
<title>thrill/api/source_node.hpp</title>
<!-- Node1 -->
<g id="node1" class="node"><title>Node1</title>
<polygon fill="#bfbfbf" stroke="black" points="230.265,-228.5 230.265,-249.5 358.265,-249.5 358.265,-228.5 230.265,-228.5"/>
<text text-anchor="middle" x="294.265" y="-236.5" font-family="Helvetica,sans-Serif" font-size="10.00">thrill/api/source_node.hpp</text>
</g>
<!-- Node2 -->
<g id="node3" class="node"><title>Node2</title>
<a xlink:href="concat__to__dia_8hpp.html" target="_top" xlink:title="thrill/api/concat_to\l_dia.hpp">
<polygon fill="none" stroke="black" points="124.265,-157 124.265,-191 220.265,-191 220.265,-157 124.265,-157"/>
<text text-anchor="start" x="132.265" y="-178" font-family="Helvetica,sans-Serif" font-size="10.00">thrill/api/concat_to</text>
<text text-anchor="middle" x="172.265" y="-165" font-family="Helvetica,sans-Serif" font-size="10.00">_dia.hpp</text>
</a>
</g>
<!-- Node1&#45;&gt;Node2 -->
<g id="edge2" class="edge"><title>Node1&#45;&gt;Node2</title>
<path fill="none" stroke="midnightblue" d="M265.375,-223.608C247.09,-213.866 223.422,-201.255 204.524,-191.187"/>
<polygon fill="midnightblue" stroke="midnightblue" points="263.921,-226.799 274.392,-228.412 267.213,-220.621 263.921,-226.799"/>
</g>
<!-- Node3 -->
<g id="node5" class="node"><title>Node3</title>
<a xlink:href="thrill_8hpp.html" target="_top" xlink:title="thrill/thrill.hpp">
<polygon fill="none" stroke="black" points="24.2653,-85.5 24.2653,-106.5 98.2653,-106.5 98.2653,-85.5 24.2653,-85.5"/>
<text text-anchor="middle" x="61.2653" y="-93.5" font-family="Helvetica,sans-Serif" font-size="10.00">thrill/thrill.hpp</text>
</a>
</g>
<!-- Node1&#45;&gt;Node3 -->
<g id="edge140" class="edge"><title>Node1&#45;&gt;Node3</title>
<path fill="none" stroke="midnightblue" d="M220.108,-231.822C139.713,-223.276 20.961,-208.121 7.26531,-192 -16.1346,-164.456 24.4501,-125.257 47.2965,-106.625"/>
<polygon fill="midnightblue" stroke="midnightblue" points="219.891,-235.319 230.202,-232.882 220.622,-228.357 219.891,-235.319"/>
</g>
<!-- Node4 -->
<g id="node7" class="node"><title>Node4</title>
<a xlink:href="distribute_8hpp.html" target="_top" xlink:title="thrill/api/distribute.hpp">
<polygon fill="none" stroke="black" points="238.265,-163.5 238.265,-184.5 350.265,-184.5 350.265,-163.5 238.265,-163.5"/>
<text text-anchor="middle" x="294.265" y="-171.5" font-family="Helvetica,sans-Serif" font-size="10.00">thrill/api/distribute.hpp</text>
</a>
</g>
<!-- Node1&#45;&gt;Node4 -->
<g id="edge6" class="edge"><title>Node1&#45;&gt;Node4</title>
<path fill="none" stroke="midnightblue" d="M294.265,-218.014C294.265,-206.831 294.265,-193.558 294.265,-184.534"/>
<polygon fill="midnightblue" stroke="midnightblue" points="290.765,-218.267 294.265,-228.267 297.765,-218.267 290.765,-218.267"/>
</g>
<!-- Node5 -->
<g id="node10" class="node"><title>Node5</title>
<a xlink:href="equal__to__dia_8hpp.html" target="_top" xlink:title="thrill/api/equal_to\l_dia.hpp">
<polygon fill="none" stroke="black" points="16.2653,-157 16.2653,-191 106.265,-191 106.265,-157 16.2653,-157"/>
<text text-anchor="start" x="24.2653" y="-178" font-family="Helvetica,sans-Serif" font-size="10.00">thrill/api/equal_to</text>
<text text-anchor="middle" x="61.2653" y="-165" font-family="Helvetica,sans-Serif" font-size="10.00">_dia.hpp</text>
</a>
</g>
<!-- Node1&#45;&gt;Node5 -->
<g id="edge10" class="edge"><title>Node1&#45;&gt;Node5</title>
<path fill="none" stroke="midnightblue" d="M241.265,-226.045C205.507,-217.07 157.347,-204.524 115.265,-192 112.329,-191.126 109.312,-190.2 106.277,-189.247"/>
<polygon fill="midnightblue" stroke="midnightblue" points="240.456,-229.451 251.007,-228.479 242.153,-222.659 240.456,-229.451"/>
</g>
<!-- Node8 -->
<g id="node17" class="node"><title>Node8</title>
<a xlink:href="generate_8hpp.html" target="_top" xlink:title="thrill/api/generate.hpp">
<polygon fill="none" stroke="black" points="1736.27,-163.5 1736.27,-184.5 1846.27,-184.5 1846.27,-163.5 1736.27,-163.5"/>
<text text-anchor="middle" x="1791.27" y="-171.5" font-family="Helvetica,sans-Serif" font-size="10.00">thrill/api/generate.hpp</text>
</a>
</g>
<!-- Node1&#45;&gt;Node8 -->
<g id="edge18" class="edge"><title>Node1&#45;&gt;Node8</title>
<path fill="none" stroke="midnightblue" d="M368.763,-235.765C630.876,-224.384 1507.06,-186.34 1736.1,-176.395"/>
<polygon fill="midnightblue" stroke="midnightblue" points="368.428,-232.276 358.59,-236.207 368.732,-239.27 368.428,-232.276"/>
</g>
<!-- Node38 -->
<g id="node85" class="node"><title>Node38</title>
<a xlink:href="read__binary_8hpp.html" target="_top" xlink:title="thrill/api/read_binary.hpp">
<polygon fill="none" stroke="black" points="368.265,-163.5 368.265,-184.5 490.265,-184.5 490.265,-163.5 368.265,-163.5"/>
<text text-anchor="middle" x="429.265" y="-171.5" font-family="Helvetica,sans-Serif" font-size="10.00">thrill/api/read_binary.hpp</text>
</a>
</g>
<!-- Node1&#45;&gt;Node38 -->
<g id="edge94" class="edge"><title>Node1&#45;&gt;Node38</title>
<path fill="none" stroke="midnightblue" d="M325.347,-224.035C350.407,-211.969 385.027,-195.3 407.284,-184.584"/>
<polygon fill="midnightblue" stroke="midnightblue" points="323.748,-220.92 316.256,-228.412 326.784,-227.227 323.748,-220.92"/>
</g>
<!-- Node39 -->
<g id="node94" class="node"><title>Node39</title>
<a xlink:href="read__lines_8hpp.html" target="_top" xlink:title="thrill/api/read_lines.hpp">
<polygon fill="none" stroke="black" points="3038.27,-163.5 3038.27,-184.5 3154.27,-184.5 3154.27,-163.5 3038.27,-163.5"/>
<text text-anchor="middle" x="3096.27" y="-171.5" font-family="Helvetica,sans-Serif" font-size="10.00">thrill/api/read_lines.hpp</text>
</a>
</g>
<!-- Node1&#45;&gt;Node39 -->
<g id="edge110" class="edge"><title>Node1&#45;&gt;Node39</title>
<path fill="none" stroke="midnightblue" d="M368.435,-237.279C770.008,-227.964 2679.01,-183.679 3037.99,-175.352"/>
<polygon fill="midnightblue" stroke="midnightblue" points="368.306,-233.781 358.39,-237.512 368.468,-240.78 368.306,-233.781"/>
</g>
<!-- Node2&#45;&gt;Node3 -->
<g id="edge4" class="edge"><title>Node2&#45;&gt;Node3</title>
<path fill="none" stroke="midnightblue" d="M139.599,-151.045C118.683,-136.348 92.5272,-117.968 76.3589,-106.606"/>
<polygon fill="midnightblue" stroke="midnightblue" points="137.712,-153.997 147.906,-156.883 141.736,-148.269 137.712,-153.997"/>
</g>
<!-- Node4&#45;&gt;Node3 -->
<g id="edge8" class="edge"><title>Node4&#45;&gt;Node3</title>
<path fill="none" stroke="midnightblue" d="M246.203,-160.63C201.009,-147.897 136.746,-129.33 112.265,-120 102.024,-116.097 90.9822,-111.015 81.8005,-106.533"/>
<polygon fill="midnightblue" stroke="midnightblue" points="245.531,-164.077 256.105,-163.413 247.424,-157.338 245.531,-164.077"/>
</g>
<!-- Node5&#45;&gt;Node3 -->
<g id="edge12" class="edge"><title>Node5&#45;&gt;Node3</title>
<path fill="none" stroke="midnightblue" d="M61.2653,-146.31C61.2653,-132.646 61.2653,-116.954 61.2653,-106.779"/>
<polygon fill="midnightblue" stroke="midnightblue" points="57.7654,-146.689 61.2653,-156.689 64.7654,-146.689 57.7654,-146.689"/>
</g>
<!-- Node6 -->
<g id="node13" class="node"><title>Node6</title>
<a xlink:href="rl__bwt_8cpp.html" target="_top" xlink:title="examples/suffix_sorting\l/rl_bwt.cpp">
<polygon fill="none" stroke="black" points="154.265,-79 154.265,-113 274.265,-113 274.265,-79 154.265,-79"/>
<text text-anchor="start" x="162.265" y="-100" font-family="Helvetica,sans-Serif" font-size="10.00">examples/suffix_sorting</text>
<text text-anchor="middle" x="214.265" y="-87" font-family="Helvetica,sans-Serif" font-size="10.00">/rl_bwt.cpp</text>
</a>
</g>
<!-- Node5&#45;&gt;Node6 -->
<g id="edge14" class="edge"><title>Node5&#45;&gt;Node6</title>
<path fill="none" stroke="midnightblue" d="M103.846,-152.292C128.143,-139.905 158.164,-124.601 180.767,-113.078"/>
<polygon fill="midnightblue" stroke="midnightblue" points="102.161,-149.222 94.8418,-156.883 105.341,-155.459 102.161,-149.222"/>
</g>
<!-- Node7 -->
<g id="node15" class="node"><title>Node7</title>
<a xlink:href="suffix__sorting_8cpp.html" target="_top" xlink:title="examples/suffix_sorting\l/suffix_sorting.cpp">
<polygon fill="none" stroke="black" points="1583.27,-1 1583.27,-35 1703.27,-35 1703.27,-1 1583.27,-1"/>
<text text-anchor="start" x="1591.27" y="-22" font-family="Helvetica,sans-Serif" font-size="10.00">examples/suffix_sorting</text>
<text text-anchor="middle" x="1643.27" y="-9" font-family="Helvetica,sans-Serif" font-size="10.00">/suffix_sorting.cpp</text>
</a>
</g>
<!-- Node5&#45;&gt;Node7 -->
<g id="edge16" class="edge"><title>Node5&#45;&gt;Node7</title>
<path fill="none" stroke="midnightblue" d="M35.9103,-149.285C15.7882,-126.743 -5.7574,-93.7316 15.2653,-72 43.0537,-43.2746 1291.95,-23.1636 1583.06,-18.861"/>
<polygon fill="midnightblue" stroke="midnightblue" points="33.5196,-151.854 42.8963,-156.786 38.6421,-147.083 33.5196,-151.854"/>
</g>
<!-- Node8&#45;&gt;Node3 -->
<g id="edge20" class="edge"><title>Node8&#45;&gt;Node3</title>
<path fill="none" stroke="midnightblue" d="M1726,-172.806C1439.82,-167.441 303.085,-144.748 145.265,-120 127.135,-117.157 107.377,-111.64 91.5815,-106.611"/>
<polygon fill="midnightblue" stroke="midnightblue" points="1726.15,-176.309 1736.22,-172.997 1726.28,-169.31 1726.15,-176.309"/>
</g>
<!-- Node8&#45;&gt;Node6 -->
<g id="edge62" class="edge"><title>Node8&#45;&gt;Node6</title>
<path fill="none" stroke="midnightblue" d="M1726.17,-172.814C1455.45,-167.727 426.185,-146.785 283.265,-120 274.539,-118.365 265.426,-115.829 256.79,-113.008"/>
<polygon fill="midnightblue" stroke="midnightblue" points="1726.17,-176.315 1736.23,-173.002 1726.3,-169.316 1726.17,-176.315"/>
</g>
<!-- Node8&#45;&gt;Node7 -->
<g id="edge64" class="edge"><title>Node8&#45;&gt;Node7</title>
<path fill="none" stroke="midnightblue" d="M1726.37,-163.909C1699.58,-156.342 1670.76,-143.114 1653.27,-120 1634.58,-95.3113 1636.68,-57.0623 1639.94,-35.0922"/>
<polygon fill="midnightblue" stroke="midnightblue" points="1725.57,-167.316 1736.13,-166.449 1727.33,-160.542 1725.57,-167.316"/>
</g>
<!-- Node9 -->
<g id="node20" class="node"><title>Node9</title>
<a xlink:href="bfs_8cpp.html" target="_top" xlink:title="examples/bfs/bfs.cpp">
<polygon fill="none" stroke="black" points="3170.27,-85.5 3170.27,-106.5 3280.27,-106.5 3280.27,-85.5 3170.27,-85.5"/>
<text text-anchor="middle" x="3225.27" y="-93.5" font-family="Helvetica,sans-Serif" font-size="10.00">examples/bfs/bfs.cpp</text>
</a>
</g>
<!-- Node8&#45;&gt;Node9 -->
<g id="edge22" class="edge"><title>Node8&#45;&gt;Node9</title>
<path fill="none" stroke="midnightblue" d="M1856.62,-172.647C2111.74,-167.201 3032.82,-145.915 3161.27,-120 3175.34,-117.16 3190.41,-111.643 3202.39,-106.614"/>
<polygon fill="midnightblue" stroke="midnightblue" points="1856.32,-169.153 1846.4,-172.865 1856.47,-176.151 1856.32,-169.153"/>
</g>
<!-- Node10 -->
<g id="node22" class="node"><title>Node10</title>
<a xlink:href="k-means__run_8cpp.html" target="_top" xlink:title="examples/k&#45;means/k\l&#45;means_run.cpp">
<polygon fill="none" stroke="black" points="3297.77,-79 3297.77,-113 3404.77,-113 3404.77,-79 3297.77,-79"/>
<text text-anchor="start" x="3305.77" y="-100" font-family="Helvetica,sans-Serif" font-size="10.00">examples/k&#45;means/k</text>
<text text-anchor="middle" x="3351.27" y="-87" font-family="Helvetica,sans-Serif" font-size="10.00">&#45;means_run.cpp</text>
</a>
</g>
<!-- Node8&#45;&gt;Node10 -->
<g id="edge24" class="edge"><title>Node8&#45;&gt;Node10</title>
<path fill="none" stroke="midnightblue" d="M1856.41,-172.928C2126.12,-168.314 3147.86,-149.06 3289.27,-120 3297.18,-118.374 3305.4,-115.842 3313.17,-113.022"/>
<polygon fill="midnightblue" stroke="midnightblue" points="1856.32,-169.428 1846.38,-173.098 1856.44,-176.427 1856.32,-169.428"/>
</g>
<!-- Node11 -->
<g id="node24" class="node"><title>Node11</title>
<a xlink:href="logistic__regression_8cpp.html" target="_top" xlink:title="examples/logistic_regression\l/logistic_regression.cpp">
<polygon fill="none" stroke="black" points="3421.77,-79 3421.77,-113 3564.77,-113 3564.77,-79 3421.77,-79"/>
<text text-anchor="start" x="3429.77" y="-100" font-family="Helvetica,sans-Serif" font-size="10.00">examples/logistic_regression</text>
<text text-anchor="middle" x="3493.27" y="-87" font-family="Helvetica,sans-Serif" font-size="10.00">/logistic_regression.cpp</text>
</a>
</g>
<!-- Node8&#45;&gt;Node11 -->
<g id="edge26" class="edge"><title>Node8&#45;&gt;Node11</title>
<path fill="none" stroke="midnightblue" d="M1856.52,-172.822C2140.11,-167.57 3258.09,-145.42 3413.27,-120 3423.14,-118.383 3433.5,-115.894 3443.37,-113.12"/>
<polygon fill="midnightblue" stroke="midnightblue" points="1856.33,-169.325 1846.4,-173.009 1856.46,-176.324 1856.33,-169.325"/>
</g>
<!-- Node12 -->
<g id="node26" class="node"><title>Node12</title>
<a xlink:href="page__rank_8hpp.html" target="_top" xlink:title="examples/page_rank\l/page_rank.hpp">
<polygon fill="none" stroke="black" points="2285.77,-79 2285.77,-113 2392.77,-113 2392.77,-79 2285.77,-79"/>
<text text-anchor="start" x="2293.77" y="-100" font-family="Helvetica,sans-Serif" font-size="10.00">examples/page_rank</text>
<text text-anchor="middle" x="2339.27" y="-87" font-family="Helvetica,sans-Serif" font-size="10.00">/page_rank.hpp</text>
</a>
</g>
<!-- Node8&#45;&gt;Node12 -->
<g id="edge28" class="edge"><title>Node8&#45;&gt;Node12</title>
<path fill="none" stroke="midnightblue" d="M1856.6,-172.089C1950.79,-168.135 2129.63,-156.129 2277.27,-120 2284.66,-118.189 2292.37,-115.717 2299.73,-113.045"/>
<polygon fill="midnightblue" stroke="midnightblue" points="1856.22,-168.601 1846.37,-172.5 1856.5,-175.595 1856.22,-168.601"/>
</g>
<!-- Node14 -->
<g id="node30" class="node"><title>Node14</title>
<a xlink:href="select__run_8cpp.html" target="_top" xlink:title="examples/select/select\l_run.cpp">
<polygon fill="none" stroke="black" points="2151.77,-79 2151.77,-113 2268.77,-113 2268.77,-79 2151.77,-79"/>
<text text-anchor="start" x="2159.77" y="-100" font-family="Helvetica,sans-Serif" font-size="10.00">examples/select/select</text>
<text text-anchor="middle" x="2210.27" y="-87" font-family="Helvetica,sans-Serif" font-size="10.00">_run.cpp</text>
</a>
</g>
<!-- Node8&#45;&gt;Node14 -->
<g id="edge32" class="edge"><title>Node8&#45;&gt;Node14</title>
<path fill="none" stroke="midnightblue" d="M1856.55,-167.146C1926.77,-159.007 2041.42,-143.502 2138.27,-120 2146.33,-118.042 2154.79,-115.595 2162.96,-113.017"/>
<polygon fill="midnightblue" stroke="midnightblue" points="1856.05,-163.68 1846.51,-168.293 1856.85,-170.634 1856.05,-163.68"/>
</g>
<!-- Node15 -->
<g id="node32" class="node"><title>Node15</title>
<a xlink:href="sleep_8cpp.html" target="_top" xlink:title="examples/sleep/sleep.cpp">
<polygon fill="none" stroke="black" points="872.265,-85.5 872.265,-106.5 1002.27,-106.5 1002.27,-85.5 872.265,-85.5"/>
<text text-anchor="middle" x="937.265" y="-93.5" font-family="Helvetica,sans-Serif" font-size="10.00">examples/sleep/sleep.cpp</text>
</a>
</g>
<!-- Node8&#45;&gt;Node15 -->
<g id="edge34" class="edge"><title>Node8&#45;&gt;Node15</title>
<path fill="none" stroke="midnightblue" d="M1725.83,-171.529C1563.87,-165.082 1147.53,-146.401 1011.27,-120 995.354,-116.917 978.1,-111.451 964.258,-106.513"/>
<polygon fill="midnightblue" stroke="midnightblue" points="1726,-175.038 1736.13,-171.936 1726.27,-168.044 1726,-175.038"/>
</g>
<!-- Node16 -->
<g id="node34" class="node"><title>Node16</title>
<a xlink:href="stochastic__gradient__descent__run_8cpp.html" target="_top" xlink:title="examples/stochastic\l_gradient_descent/stochastic\l_gradient_descent_run.cpp">
<polygon fill="none" stroke="black" points="2410.27,-72.5 2410.27,-119.5 2554.27,-119.5 2554.27,-72.5 2410.27,-72.5"/>
<text text-anchor="start" x="2418.27" y="-106.5" font-family="Helvetica,sans-Serif" font-size="10.00">examples/stochastic</text>
<text text-anchor="start" x="2418.27" y="-93.5" font-family="Helvetica,sans-Serif" font-size="10.00">_gradient_descent/stochastic</text>
<text text-anchor="middle" x="2482.27" y="-80.5" font-family="Helvetica,sans-Serif" font-size="10.00">_gradient_descent_run.cpp</text>
</a>
</g>
<!-- Node8&#45;&gt;Node16 -->
<g id="edge36" class="edge"><title>Node8&#45;&gt;Node16</title>
<path fill="none" stroke="midnightblue" d="M1856.6,-172.488C1968.88,-168.942 2205.29,-157.319 2401.27,-120 2404.15,-119.451 2407.07,-118.842 2410.02,-118.184"/>
<polygon fill="midnightblue" stroke="midnightblue" points="1856.34,-168.994 1846.45,-172.797 1856.55,-175.991 1856.34,-168.994"/>
</g>
<!-- Node17 -->
<g id="node36" class="node"><title>Node17</title>
<a xlink:href="check__sa_8hpp.html" target="_top" xlink:title="examples/suffix_sorting\l/check_sa.hpp">
<polygon fill="none" stroke="black" points="1938.27,-79 1938.27,-113 2058.27,-113 2058.27,-79 1938.27,-79"/>
<text text-anchor="start" x="1946.27" y="-100" font-family="Helvetica,sans-Serif" font-size="10.00">examples/suffix_sorting</text>
<text text-anchor="middle" x="1998.27" y="-87" font-family="Helvetica,sans-Serif" font-size="10.00">/check_sa.hpp</text>
</a>
</g>
<!-- Node8&#45;&gt;Node17 -->
<g id="edge38" class="edge"><title>Node8&#45;&gt;Node17</title>
<path fill="none" stroke="midnightblue" d="M1828.54,-159.953C1863.46,-146.796 1915.71,-127.108 1953,-113.055"/>
<polygon fill="midnightblue" stroke="midnightblue" points="1827.31,-156.679 1819.18,-163.481 1829.77,-163.23 1827.31,-156.679"/>
</g>
<!-- Node20 -->
<g id="node42" class="node"><title>Node20</title>
<a xlink:href="prefix__doubling_8cpp.html" target="_top" xlink:title="examples/suffix_sorting\l/prefix_doubling.cpp">
<polygon fill="none" stroke="black" points="2016.27,-1 2016.27,-35 2136.27,-35 2136.27,-1 2016.27,-1"/>
<text text-anchor="start" x="2024.27" y="-22" font-family="Helvetica,sans-Serif" font-size="10.00">examples/suffix_sorting</text>
<text text-anchor="middle" x="2076.27" y="-9" font-family="Helvetica,sans-Serif" font-size="10.00">/prefix_doubling.cpp</text>
</a>
</g>
<!-- Node8&#45;&gt;Node20 -->
<g id="edge58" class="edge"><title>Node8&#45;&gt;Node20</title>
<path fill="none" stroke="midnightblue" d="M1856.53,-170.086C1929.1,-164.269 2039.78,-150.546 2067.27,-120 2088.08,-96.8757 2084.64,-57.702 2080.38,-35.2275"/>
<polygon fill="midnightblue" stroke="midnightblue" points="1856.25,-166.596 1846.55,-170.855 1856.79,-173.576 1856.25,-166.596"/>
</g>
<!-- Node21 -->
<g id="node44" class="node"><title>Node21</title>
<a xlink:href="prefix__quadrupling_8cpp.html" target="_top" xlink:title="examples/suffix_sorting\l/prefix_quadrupling.cpp">
<polygon fill="none" stroke="black" points="2154.27,-1 2154.27,-35 2274.27,-35 2274.27,-1 2154.27,-1"/>
<text text-anchor="start" x="2162.27" y="-22" font-family="Helvetica,sans-Serif" font-size="10.00">examples/suffix_sorting</text>
<text text-anchor="middle" x="2214.27" y="-9" font-family="Helvetica,sans-Serif" font-size="10.00">/prefix_quadrupling.cpp</text>
</a>
</g>
<!-- Node8&#45;&gt;Node21 -->
<g id="edge60" class="edge"><title>Node8&#45;&gt;Node21</title>
<path fill="none" stroke="midnightblue" d="M1856.58,-166.354C1931.51,-156.857 2049.19,-139.504 2089.27,-120 2118.14,-105.948 2118.47,-92.401 2143.27,-72 2158.81,-59.2093 2176.88,-45.484 2190.9,-35.0717"/>
<polygon fill="midnightblue" stroke="midnightblue" points="1855.79,-162.926 1846.31,-167.642 1856.66,-169.871 1855.79,-162.926"/>
</g>
<!-- Node22 -->
<g id="node47" class="node"><title>Node22</title>
<a xlink:href="construct__bwt_8hpp.html" target="_top" xlink:title="examples/suffix_sorting\l/construct_bwt.hpp">
<polygon fill="none" stroke="black" points="1662.27,-79 1662.27,-113 1782.27,-113 1782.27,-79 1662.27,-79"/>
<text text-anchor="start" x="1670.27" y="-100" font-family="Helvetica,sans-Serif" font-size="10.00">examples/suffix_sorting</text>
<text text-anchor="middle" x="1722.27" y="-87" font-family="Helvetica,sans-Serif" font-size="10.00">/construct_bwt.hpp</text>
</a>
</g>
<!-- Node8&#45;&gt;Node22 -->
<g id="edge50" class="edge"><title>Node8&#45;&gt;Node22</title>
<path fill="none" stroke="midnightblue" d="M1775.11,-155.739C1763.75,-142.892 1748.64,-125.81 1737.48,-113.203"/>
<polygon fill="midnightblue" stroke="midnightblue" points="1772.71,-158.31 1781.96,-163.481 1777.96,-153.672 1772.71,-158.31"/>
</g>
<!-- Node23 -->
<g id="node50" class="node"><title>Node23</title>
<a xlink:href="construct__lcp_8hpp.html" target="_top" xlink:title="examples/suffix_sorting\l/construct_lcp.hpp">
<polygon fill="none" stroke="black" points="1800.27,-79 1800.27,-113 1920.27,-113 1920.27,-79 1800.27,-79"/>
<text text-anchor="start" x="1808.27" y="-100" font-family="Helvetica,sans-Serif" font-size="10.00">examples/suffix_sorting</text>
<text text-anchor="middle" x="1860.27" y="-87" font-family="Helvetica,sans-Serif" font-size="10.00">/construct_lcp.hpp</text>
</a>
</g>
<!-- Node8&#45;&gt;Node23 -->
<g id="edge54" class="edge"><title>Node8&#45;&gt;Node23</title>
<path fill="none" stroke="midnightblue" d="M1807.42,-155.739C1818.78,-142.892 1833.9,-125.81 1845.05,-113.203"/>
<polygon fill="midnightblue" stroke="midnightblue" points="1804.58,-153.672 1800.57,-163.481 1809.82,-158.31 1804.58,-153.672"/>
</g>
<!-- Node24 -->
<g id="node57" class="node"><title>Node24</title>
<a xlink:href="wavelet__tree_8cpp.html" target="_top" xlink:title="examples/suffix_sorting\l/wavelet_tree.cpp">
<polygon fill="none" stroke="black" points="458.265,-79 458.265,-113 578.265,-113 578.265,-79 458.265,-79"/>
<text text-anchor="start" x="466.265" y="-100" font-family="Helvetica,sans-Serif" font-size="10.00">examples/suffix_sorting</text>
<text text-anchor="middle" x="518.265" y="-87" font-family="Helvetica,sans-Serif" font-size="10.00">/wavelet_tree.cpp</text>
</a>
</g>
<!-- Node8&#45;&gt;Node24 -->
<g id="edge66" class="edge"><title>Node8&#45;&gt;Node24</title>
<path fill="none" stroke="midnightblue" d="M1725.82,-173.556C1507.91,-171.688 808.263,-162.451 587.265,-120 578.671,-118.349 569.697,-115.845 561.172,-113.067"/>
<polygon fill="midnightblue" stroke="midnightblue" points="1726.1,-177.059 1736.13,-173.642 1726.16,-170.059 1726.1,-177.059"/>
</g>
<!-- Node25 -->
<g id="node59" class="node"><title>Node25</title>
<a xlink:href="wavelet__tree2_8cpp.html" target="_top" xlink:title="examples/suffix_sorting\l/wavelet_tree2.cpp">
<polygon fill="none" stroke="black" points="596.265,-79 596.265,-113 716.265,-113 716.265,-79 596.265,-79"/>
<text text-anchor="start" x="604.265" y="-100" font-family="Helvetica,sans-Serif" font-size="10.00">examples/suffix_sorting</text>
<text text-anchor="middle" x="656.265" y="-87" font-family="Helvetica,sans-Serif" font-size="10.00">/wavelet_tree2.cpp</text>
</a>
</g>
<!-- Node8&#45;&gt;Node25 -->
<g id="edge68" class="edge"><title>Node8&#45;&gt;Node25</title>
<path fill="none" stroke="midnightblue" d="M1725.93,-173.115C1525.05,-170.012 918.448,-157.689 725.265,-120 716.676,-118.324 707.704,-115.808 699.18,-113.027"/>
<polygon fill="midnightblue" stroke="midnightblue" points="1725.99,-176.616 1736.04,-173.269 1726.09,-169.617 1725.99,-176.616"/>
</g>
<!-- Node26 -->
<g id="node61" class="node"><title>Node26</title>
<a xlink:href="wavelet__tree3_8cpp.html" target="_top" xlink:title="examples/suffix_sorting\l/wavelet_tree3.cpp">
<polygon fill="none" stroke="black" points="734.265,-79 734.265,-113 854.265,-113 854.265,-79 734.265,-79"/>
<text text-anchor="start" x="742.265" y="-100" font-family="Helvetica,sans-Serif" font-size="10.00">examples/suffix_sorting</text>
<text text-anchor="middle" x="794.265" y="-87" font-family="Helvetica,sans-Serif" font-size="10.00">/wavelet_tree3.cpp</text>
</a>
</g>
<!-- Node8&#45;&gt;Node26 -->
<g id="edge70" class="edge"><title>Node8&#45;&gt;Node26</title>
<path fill="none" stroke="midnightblue" d="M1726.08,-172.547C1543.37,-168.103 1028.8,-152.941 863.265,-120 854.807,-118.317 845.973,-115.834 837.561,-113.096"/>
<polygon fill="midnightblue" stroke="midnightblue" points="1726.01,-176.046 1736.09,-172.788 1726.17,-169.048 1726.01,-176.046"/>
</g>
<!-- Node27 -->
<g id="node63" class="node"><title>Node27</title>
<a xlink:href="terasort_8cpp.html" target="_top" xlink:title="examples/terasort/terasort.cpp">
<polygon fill="none" stroke="black" points="291.765,-85.5 291.765,-106.5 440.765,-106.5 440.765,-85.5 291.765,-85.5"/>
<text text-anchor="middle" x="366.265" y="-93.5" font-family="Helvetica,sans-Serif" font-size="10.00">examples/terasort/terasort.cpp</text>
</a>
</g>
<!-- Node8&#45;&gt;Node27 -->
<g id="edge72" class="edge"><title>Node8&#45;&gt;Node27</title>
<path fill="none" stroke="midnightblue" d="M1725.98,-173.456C1492.48,-171.184 699.447,-160.592 449.265,-120 431.35,-117.093 411.827,-111.573 396.22,-106.558"/>
<polygon fill="midnightblue" stroke="midnightblue" points="1725.98,-176.956 1736.02,-173.551 1726.05,-169.956 1725.98,-176.956"/>
</g>
<!-- Node28 -->
<g id="node65" class="node"><title>Node28</title>
<a xlink:href="tpch__run_8cpp.html" target="_top" xlink:title="examples/tpch/tpch\l_run.cpp">
<polygon fill="none" stroke="black" points="2572.27,-79 2572.27,-113 2674.27,-113 2674.27,-79 2572.27,-79"/>
<text text-anchor="start" x="2580.27" y="-100" font-family="Helvetica,sans-Serif" font-size="10.00">examples/tpch/tpch</text>
<text text-anchor="middle" x="2623.27" y="-87" font-family="Helvetica,sans-Serif" font-size="10.00">_run.cpp</text>
</a>
</g>
<!-- Node8&#45;&gt;Node28 -->
<g id="edge74" class="edge"><title>Node8&#45;&gt;Node28</title>
<path fill="none" stroke="midnightblue" d="M1856.72,-172.029C2017.7,-166.763 2429.51,-150.638 2563.27,-120 2570.7,-118.297 2578.42,-115.805 2585.75,-113.064"/>
<polygon fill="midnightblue" stroke="midnightblue" points="1856.37,-168.539 1846.48,-172.36 1856.59,-175.535 1856.37,-168.539"/>
</g>
<!-- Node29 -->
<g id="node67" class="node"><title>Node29</title>
<a xlink:href="triangles__run_8cpp.html" target="_top" xlink:title="examples/triangles\l/triangles_run.cpp">
<polygon fill="none" stroke="black" points="2692.27,-79 2692.27,-113 2790.27,-113 2790.27,-79 2692.27,-79"/>
<text text-anchor="start" x="2700.27" y="-100" font-family="Helvetica,sans-Serif" font-size="10.00">examples/triangles</text>
<text text-anchor="middle" x="2741.27" y="-87" font-family="Helvetica,sans-Serif" font-size="10.00">/triangles_run.cpp</text>
</a>
</g>
<!-- Node8&#45;&gt;Node29 -->
<g id="edge76" class="edge"><title>Node8&#45;&gt;Node29</title>
<path fill="none" stroke="midnightblue" d="M1856.47,-172.847C2034.46,-169.257 2525.88,-156.255 2683.27,-120 2690.59,-118.312 2698.18,-115.791 2705.36,-113.007"/>
<polygon fill="midnightblue" stroke="midnightblue" points="1856.39,-169.348 1846.46,-173.046 1856.53,-176.347 1856.39,-169.348"/>
</g>
<!-- Node30 -->
<g id="node69" class="node"><title>Node30</title>
<a xlink:href="k-means__step1_8cpp.html" target="_top" xlink:title="examples/tutorial/k\l&#45;means_step1.cpp">
<polygon fill="none" stroke="black" points="1019.77,-79 1019.77,-113 1118.77,-113 1118.77,-79 1019.77,-79"/>
<text text-anchor="start" x="1027.77" y="-100" font-family="Helvetica,sans-Serif" font-size="10.00">examples/tutorial/k</text>
<text text-anchor="middle" x="1069.27" y="-87" font-family="Helvetica,sans-Serif" font-size="10.00">&#45;means_step1.cpp</text>
</a>
</g>
<!-- Node8&#45;&gt;Node30 -->
<g id="edge78" class="edge"><title>Node8&#45;&gt;Node30</title>
<path fill="none" stroke="midnightblue" d="M1726.14,-171.28C1581.98,-164.84 1239.74,-147.136 1127.27,-120 1120.06,-118.262 1112.59,-115.754 1105.51,-113.008"/>
<polygon fill="midnightblue" stroke="midnightblue" points="1726.03,-174.778 1736.18,-171.724 1726.34,-167.785 1726.03,-174.778"/>
</g>
<!-- Node31 -->
<g id="node71" class="node"><title>Node31</title>
<a xlink:href="k-means__step2_8cpp.html" target="_top" xlink:title="examples/tutorial/k\l&#45;means_step2.cpp">
<polygon fill="none" stroke="black" points="1135.77,-79 1135.77,-113 1234.77,-113 1234.77,-79 1135.77,-79"/>
<text text-anchor="start" x="1143.77" y="-100" font-family="Helvetica,sans-Serif" font-size="10.00">examples/tutorial/k</text>
<text text-anchor="middle" x="1185.27" y="-87" font-family="Helvetica,sans-Serif" font-size="10.00">&#45;means_step2.cpp</text>
</a>
</g>
<!-- Node8&#45;&gt;Node31 -->
<g id="edge80" class="edge"><title>Node8&#45;&gt;Node31</title>
<path fill="none" stroke="midnightblue" d="M1725.85,-169.97C1600.99,-161.879 1333.13,-142.495 1243.27,-120 1236.18,-118.227 1228.83,-115.738 1221.84,-113.03"/>
<polygon fill="midnightblue" stroke="midnightblue" points="1725.83,-173.476 1736.04,-170.625 1726.28,-166.49 1725.83,-173.476"/>
</g>
<!-- Node32 -->
<g id="node73" class="node"><title>Node32</title>
<a xlink:href="k-means__step3_8cpp.html" target="_top" xlink:title="examples/tutorial/k\l&#45;means_step3.cpp">
<polygon fill="none" stroke="black" points="1251.77,-79 1251.77,-113 1350.77,-113 1350.77,-79 1251.77,-79"/>
<text text-anchor="start" x="1259.77" y="-100" font-family="Helvetica,sans-Serif" font-size="10.00">examples/tutorial/k</text>
<text text-anchor="middle" x="1301.27" y="-87" font-family="Helvetica,sans-Serif" font-size="10.00">&#45;means_step3.cpp</text>
</a>
</g>
<!-- Node8&#45;&gt;Node32 -->
<g id="edge82" class="edge"><title>Node8&#45;&gt;Node32</title>
<path fill="none" stroke="midnightblue" d="M1726.08,-171.284C1640.6,-166.497 1486.54,-153.633 1359.27,-120 1352.31,-118.162 1345.09,-115.677 1338.2,-113"/>
<polygon fill="midnightblue" stroke="midnightblue" points="1725.98,-174.784 1736.16,-171.829 1726.36,-167.794 1725.98,-174.784"/>
</g>
<!-- Node33 -->
<g id="node75" class="node"><title>Node33</title>
<a xlink:href="k-means__step4_8cpp.html" target="_top" xlink:title="examples/tutorial/k\l&#45;means_step4.cpp">
<polygon fill="none" stroke="black" points="1367.77,-79 1367.77,-113 1466.77,-113 1466.77,-79 1367.77,-79"/>
<text text-anchor="start" x="1375.77" y="-100" font-family="Helvetica,sans-Serif" font-size="10.00">examples/tutorial/k</text>
<text text-anchor="middle" x="1417.27" y="-87" font-family="Helvetica,sans-Serif" font-size="10.00">&#45;means_step4.cpp</text>
</a>
</g>
<!-- Node8&#45;&gt;Node33 -->
<g id="edge84" class="edge"><title>Node8&#45;&gt;Node33</title>
<path fill="none" stroke="midnightblue" d="M1726.16,-167.178C1661.59,-159.414 1560.29,-144.522 1475.27,-120 1468.67,-118.097 1461.81,-115.678 1455.21,-113.111"/>
<polygon fill="midnightblue" stroke="midnightblue" points="1725.85,-170.667 1736.2,-168.364 1726.67,-163.715 1725.85,-170.667"/>
</g>
<!-- Node34 -->
<g id="node77" class="node"><title>Node34</title>
<a xlink:href="k-means__step5_8cpp.html" target="_top" xlink:title="examples/tutorial/k\l&#45;means_step5.cpp">
<polygon fill="none" stroke="black" points="2807.77,-79 2807.77,-113 2906.77,-113 2906.77,-79 2807.77,-79"/>
<text text-anchor="start" x="2815.77" y="-100" font-family="Helvetica,sans-Serif" font-size="10.00">examples/tutorial/k</text>
<text text-anchor="middle" x="2857.27" y="-87" font-family="Helvetica,sans-Serif" font-size="10.00">&#45;means_step5.cpp</text>
</a>
</g>
<!-- Node8&#45;&gt;Node34 -->
<g id="edge86" class="edge"><title>Node8&#45;&gt;Node34</title>
<path fill="none" stroke="midnightblue" d="M1856.43,-173.377C2049.91,-171.076 2618.76,-160.92 2799.27,-120 2806.6,-118.338 2814.19,-115.828 2821.37,-113.048"/>
<polygon fill="midnightblue" stroke="midnightblue" points="1856.37,-169.878 1846.41,-173.493 1856.45,-176.877 1856.37,-169.878"/>
</g>
<!-- Node35 -->
<g id="node79" class="node"><title>Node35</title>
<a xlink:href="k-means__step6_8cpp.html" target="_top" xlink:title="examples/tutorial/k\l&#45;means_step6.cpp">
<polygon fill="none" stroke="black" points="2923.77,-79 2923.77,-113 3022.77,-113 3022.77,-79 2923.77,-79"/>
<text text-anchor="start" x="2931.77" y="-100" font-family="Helvetica,sans-Serif" font-size="10.00">examples/tutorial/k</text>
<text text-anchor="middle" x="2973.27" y="-87" font-family="Helvetica,sans-Serif" font-size="10.00">&#45;means_step6.cpp</text>
</a>
</g>
<!-- Node8&#45;&gt;Node35 -->
<g id="edge88" class="edge"><title>Node8&#45;&gt;Node35</title>
<path fill="none" stroke="midnightblue" d="M1856.87,-172.162C2081.6,-165.684 2812.22,-143.061 2915.27,-120 2922.6,-118.358 2930.2,-115.857 2937.38,-113.081"/>
<polygon fill="midnightblue" stroke="midnightblue" points="1856.45,-168.672 1846.56,-172.458 1856.65,-175.669 1856.45,-168.672"/>
</g>
<!-- Node36 -->
<g id="node81" class="node"><title>Node36</title>
<a xlink:href="random__text__writer_8cpp.html" target="_top" xlink:title="examples/word_count\l/random_text_writer.cpp">
<polygon fill="none" stroke="black" points="1484.27,-79 1484.27,-113 1606.27,-113 1606.27,-79 1484.27,-79"/>
<text text-anchor="start" x="1492.27" y="-100" font-family="Helvetica,sans-Serif" font-size="10.00">examples/word_count</text>
<text text-anchor="middle" x="1545.27" y="-87" font-family="Helvetica,sans-Serif" font-size="10.00">/random_text_writer.cpp</text>
</a>
</g>
<!-- Node8&#45;&gt;Node36 -->
<g id="edge90" class="edge"><title>Node8&#45;&gt;Node36</title>
<path fill="none" stroke="midnightblue" d="M1748.05,-160.405C1713.47,-149.512 1663.74,-133.821 1620.27,-120 1613.23,-117.763 1605.83,-115.403 1598.52,-113.069"/>
<polygon fill="midnightblue" stroke="midnightblue" points="1747.24,-163.818 1757.83,-163.484 1749.34,-157.141 1747.24,-163.818"/>
</g>
<!-- Node37 -->
<g id="node83" class="node"><title>Node37</title>
<a xlink:href="word__count__run_8cpp.html" target="_top" xlink:title="examples/word_count\l/word_count_run.cpp">
<polygon fill="none" stroke="black" points="3040.27,-79 3040.27,-113 3152.27,-113 3152.27,-79 3040.27,-79"/>
<text text-anchor="start" x="3048.27" y="-100" font-family="Helvetica,sans-Serif" font-size="10.00">examples/word_count</text>
<text text-anchor="middle" x="3096.27" y="-87" font-family="Helvetica,sans-Serif" font-size="10.00">/word_count_run.cpp</text>
</a>
</g>
<!-- Node8&#45;&gt;Node37 -->
<g id="edge92" class="edge"><title>Node8&#45;&gt;Node37</title>
<path fill="none" stroke="midnightblue" d="M1856.67,-172.337C2095.97,-166.091 2916,-143.199 3031.27,-120 3039.4,-118.362 3047.88,-115.864 3055.91,-113.088"/>
<polygon fill="midnightblue" stroke="midnightblue" points="1856.29,-168.846 1846.38,-172.605 1856.47,-175.844 1856.29,-168.846"/>
</g>
<!-- Node13 -->
<g id="node28" class="node"><title>Node13</title>
<a xlink:href="page__rank__run_8cpp.html" target="_top" xlink:title="examples/page_rank\l/page_rank_run.cpp">
<polygon fill="none" stroke="black" points="2911.77,-1 2911.77,-35 3018.77,-35 3018.77,-1 2911.77,-1"/>
<text text-anchor="start" x="2919.77" y="-22" font-family="Helvetica,sans-Serif" font-size="10.00">examples/page_rank</text>
<text text-anchor="middle" x="2965.27" y="-9" font-family="Helvetica,sans-Serif" font-size="10.00">/page_rank_run.cpp</text>
</a>
</g>
<!-- Node12&#45;&gt;Node13 -->
<g id="edge30" class="edge"><title>Node12&#45;&gt;Node13</title>
<path fill="none" stroke="midnightblue" d="M2388.04,-75.707C2392.46,-74.2972 2396.91,-73.0297 2401.27,-72 2497.46,-49.2327 2790.29,-28.9278 2911.67,-21.2539"/>
<polygon fill="midnightblue" stroke="midnightblue" points="2386.77,-72.4392 2378.44,-78.9836 2389.04,-79.0634 2386.77,-72.4392"/>
</g>
<!-- Node17&#45;&gt;Node7 -->
<g id="edge48" class="edge"><title>Node17&#45;&gt;Node7</title>
<path fill="none" stroke="midnightblue" d="M1942.7,-75.8464C1938.18,-74.4602 1933.66,-73.1568 1929.27,-72 1842.77,-49.2399 1819.08,-52.963 1731.27,-36 1722.23,-34.2551 1712.69,-32.3584 1703.35,-30.4726"/>
<polygon fill="midnightblue" stroke="midnightblue" points="1941.96,-79.2836 1952.55,-78.9887 1944.09,-72.6147 1941.96,-79.2836"/>
</g>
<!-- Node18 -->
<g id="node38" class="node"><title>Node18</title>
<a xlink:href="dc3_8cpp.html" target="_top" xlink:title="examples/suffix_sorting\l/dc3.cpp">
<polygon fill="none" stroke="black" points="1740.27,-1 1740.27,-35 1860.27,-35 1860.27,-1 1740.27,-1"/>
<text text-anchor="start" x="1748.27" y="-22" font-family="Helvetica,sans-Serif" font-size="10.00">examples/suffix_sorting</text>
<text text-anchor="middle" x="1800.27" y="-9" font-family="Helvetica,sans-Serif" font-size="10.00">/dc3.cpp</text>
</a>
</g>
<!-- Node17&#45;&gt;Node18 -->
<g id="edge40" class="edge"><title>Node17&#45;&gt;Node18</title>
<path fill="none" stroke="midnightblue" d="M1945.23,-75.1063C1913.43,-62.5814 1873.51,-46.8544 1843.62,-35.0775"/>
<polygon fill="midnightblue" stroke="midnightblue" points="1944.23,-78.4737 1954.81,-78.8826 1946.79,-71.9608 1944.23,-78.4737"/>
</g>
<!-- Node19 -->
<g id="node40" class="node"><title>Node19</title>
<a xlink:href="dc7_8cpp.html" target="_top" xlink:title="examples/suffix_sorting\l/dc7.cpp">
<polygon fill="none" stroke="black" points="1878.27,-1 1878.27,-35 1998.27,-35 1998.27,-1 1878.27,-1"/>
<text text-anchor="start" x="1886.27" y="-22" font-family="Helvetica,sans-Serif" font-size="10.00">examples/suffix_sorting</text>
<text text-anchor="middle" x="1938.27" y="-9" font-family="Helvetica,sans-Serif" font-size="10.00">/dc7.cpp</text>
</a>
</g>
<!-- Node17&#45;&gt;Node19 -->
<g id="edge42" class="edge"><title>Node17&#45;&gt;Node19</title>
<path fill="none" stroke="midnightblue" d="M1978.77,-70.6516C1969.86,-59.0718 1959.54,-45.6543 1951.54,-35.2623"/>
<polygon fill="midnightblue" stroke="midnightblue" points="1976.08,-72.897 1984.95,-78.6893 1981.63,-68.629 1976.08,-72.897"/>
</g>
<!-- Node17&#45;&gt;Node20 -->
<g id="edge44" class="edge"><title>Node17&#45;&gt;Node20</title>
<path fill="none" stroke="midnightblue" d="M2022.94,-71.3241C2034.67,-59.594 2048.41,-45.8561 2059,-35.2623"/>
<polygon fill="midnightblue" stroke="midnightblue" points="2020.17,-69.1433 2015.58,-78.6893 2025.12,-74.0931 2020.17,-69.1433"/>
</g>
<!-- Node17&#45;&gt;Node21 -->
<g id="edge46" class="edge"><title>Node17&#45;&gt;Node21</title>
<path fill="none" stroke="midnightblue" d="M2054.96,-75.5265C2089.79,-62.9494 2133.89,-47.0238 2166.86,-35.1193"/>
<polygon fill="midnightblue" stroke="midnightblue" points="2053.62,-72.2905 2045.4,-78.979 2055.99,-78.8744 2053.62,-72.2905"/>
</g>
<!-- Node22&#45;&gt;Node7 -->
<g id="edge52" class="edge"><title>Node22&#45;&gt;Node7</title>
<path fill="none" stroke="midnightblue" d="M1697.61,-71.6587C1685.66,-59.8559 1671.58,-45.957 1660.75,-35.2623"/>
<polygon fill="midnightblue" stroke="midnightblue" points="1695.16,-74.154 1704.73,-78.6893 1700.08,-69.1728 1695.16,-74.154"/>
</g>
<!-- Node23&#45;&gt;Node7 -->
<g id="edge56" class="edge"><title>Node23&#45;&gt;Node7</title>
<path fill="none" stroke="midnightblue" d="M1803.31,-75.5265C1768.32,-62.9494 1724.01,-47.0238 1690.89,-35.1193"/>
<polygon fill="midnightblue" stroke="midnightblue" points="1802.32,-78.89 1812.91,-78.979 1804.69,-72.3026 1802.32,-78.89"/>
</g>
<!-- Node38&#45;&gt;Node3 -->
<g id="edge96" class="edge"><title>Node38&#45;&gt;Node3</title>
<path fill="none" stroke="midnightblue" d="M381.388,-160.965C374.009,-159.167 366.455,-157.444 359.265,-156 250.5,-134.155 218.498,-151.966 112.265,-120 101.208,-116.673 89.5086,-111.314 80.1082,-106.503"/>
<polygon fill="midnightblue" stroke="midnightblue" points="380.738,-164.411 391.289,-163.447 382.44,-157.621 380.738,-164.411"/>
</g>
<!-- Node38&#45;&gt;Node6 -->
<g id="edge98" class="edge"><title>Node38&#45;&gt;Node6</title>
<path fill="none" stroke="midnightblue" d="M390.546,-159.953C354.281,-146.796 300.011,-127.108 261.276,-113.055"/>
<polygon fill="midnightblue" stroke="midnightblue" points="389.675,-163.36 400.269,-163.481 392.063,-156.78 389.675,-163.36"/>
</g>
<!-- Node38&#45;&gt;Node7 -->
<g id="edge100" class="edge"><title>Node38&#45;&gt;Node7</title>
<path fill="none" stroke="midnightblue" d="M380.346,-160.857C373.295,-159.127 366.11,-157.453 359.265,-156 312.093,-145.986 176.408,-156.819 145.265,-120 131.488,-103.712 130.455,-87.3543 145.265,-72 170.644,-45.69 1306.06,-23.9556 1582.88,-19.0414"/>
<polygon fill="midnightblue" stroke="midnightblue" points="379.975,-164.373 390.527,-163.412 381.679,-157.583 379.975,-164.373"/>
</g>
<!-- Node38&#45;&gt;Node24 -->
<g id="edge102" class="edge"><title>Node38&#45;&gt;Node24</title>
<path fill="none" stroke="midnightblue" d="M448.857,-156.83C463.643,-143.871 483.841,-126.17 498.636,-113.203"/>
<polygon fill="midnightblue" stroke="midnightblue" points="446.482,-154.257 441.268,-163.481 451.096,-159.522 446.482,-154.257"/>
</g>
<!-- Node38&#45;&gt;Node25 -->
<g id="edge104" class="edge"><title>Node38&#45;&gt;Node25</title>
<path fill="none" stroke="midnightblue" d="M470.024,-160.137C501.943,-149.265 547.452,-133.728 587.265,-120 593.74,-117.768 600.554,-115.409 607.275,-113.077"/>
<polygon fill="midnightblue" stroke="midnightblue" points="468.501,-156.958 460.163,-163.495 470.758,-163.585 468.501,-156.958"/>
</g>
<!-- Node38&#45;&gt;Node26 -->
<g id="edge106" class="edge"><title>Node38&#45;&gt;Node26</title>
<path fill="none" stroke="midnightblue" d="M500.716,-164.129C561.093,-155.036 649.58,-139.939 725.265,-120 732.869,-117.997 740.837,-115.556 748.547,-113.007"/>
<polygon fill="midnightblue" stroke="midnightblue" points="499.902,-160.711 490.527,-165.646 500.934,-167.635 499.902,-160.711"/>
</g>
<!-- Node38&#45;&gt;Node27 -->
<g id="edge108" class="edge"><title>Node38&#45;&gt;Node27</title>
<path fill="none" stroke="midnightblue" d="M414.144,-155.278C401.837,-140.041 384.91,-119.084 374.828,-106.602"/>
<polygon fill="midnightblue" stroke="midnightblue" points="411.763,-157.9 420.769,-163.481 417.208,-153.502 411.763,-157.9"/>
</g>
<!-- Node39&#45;&gt;Node3 -->
<g id="edge112" class="edge"><title>Node39&#45;&gt;Node3</title>
<path fill="none" stroke="midnightblue" d="M3028.02,-172.995C2592.6,-166.557 218.904,-131.001 145.265,-120 126.965,-117.266 107.03,-111.687 91.174,-106.596"/>
<polygon fill="midnightblue" stroke="midnightblue" points="3028.19,-176.498 3038.24,-173.147 3028.29,-169.499 3028.19,-176.498"/>
</g>
<!-- Node39&#45;&gt;Node9 -->
<g id="edge114" class="edge"><title>Node39&#45;&gt;Node9</title>
<path fill="none" stroke="midnightblue" d="M3122.41,-158.191C3147.83,-142.819 3185.74,-119.9 3207.73,-106.602"/>
<polygon fill="midnightblue" stroke="midnightblue" points="3120.41,-155.311 3113.66,-163.481 3124.03,-161.301 3120.41,-155.311"/>
</g>
<!-- Node39&#45;&gt;Node10 -->
<g id="edge116" class="edge"><title>Node39&#45;&gt;Node10</title>
<path fill="none" stroke="midnightblue" d="M3148.49,-160.848C3187.56,-150.658 3242.14,-135.674 3289.27,-120 3295.62,-117.887 3302.27,-115.5 3308.77,-113.071"/>
<polygon fill="midnightblue" stroke="midnightblue" points="3147.21,-157.565 3138.41,-163.462 3148.97,-164.341 3147.21,-157.565"/>
</g>
<!-- Node39&#45;&gt;Node11 -->
<g id="edge118" class="edge"><title>Node39&#45;&gt;Node11</title>
<path fill="none" stroke="midnightblue" d="M3164.59,-164.836C3229.12,-155.599 3328.39,-139.881 3413.27,-120 3421.88,-117.983 3430.93,-115.564 3439.72,-113.05"/>
<polygon fill="midnightblue" stroke="midnightblue" points="3163.95,-161.392 3154.54,-166.263 3164.93,-168.323 3163.95,-161.392"/>
</g>
<!-- Node39&#45;&gt;Node13 -->
<g id="edge120" class="edge"><title>Node39&#45;&gt;Node13</title>
<path fill="none" stroke="midnightblue" d="M3164.65,-171.21C3290.07,-165.387 3546.54,-149.927 3573.27,-120 3587.48,-104.089 3587.67,-87.7381 3573.27,-72 3536.2,-31.4944 3160.66,-21.1813 3018.98,-18.7223"/>
<polygon fill="midnightblue" stroke="midnightblue" points="3164.22,-167.726 3154.39,-171.678 3164.54,-174.719 3164.22,-167.726"/>
</g>
<!-- Node39&#45;&gt;Node16 -->
<g id="edge124" class="edge"><title>Node39&#45;&gt;Node16</title>
<path fill="none" stroke="midnightblue" d="M3028,-171.172C2926.03,-166.029 2728.25,-152.502 2563.27,-120 2560.39,-119.433 2557.46,-118.808 2554.52,-118.138"/>
<polygon fill="midnightblue" stroke="midnightblue" points="3028.01,-174.676 3038.17,-171.673 3028.35,-167.685 3028.01,-174.676"/>
</g>
<!-- Node39&#45;&gt;Node28 -->
<g id="edge126" class="edge"><title>Node39&#45;&gt;Node28</title>
<path fill="none" stroke="midnightblue" d="M3027.9,-170.312C2945.16,-164.654 2802.15,-151.024 2683.27,-120 2676.21,-118.159 2668.87,-115.705 2661.84,-113.069"/>
<polygon fill="midnightblue" stroke="midnightblue" points="3027.72,-173.808 3037.93,-170.979 3028.18,-166.823 3027.72,-173.808"/>
</g>
<!-- Node39&#45;&gt;Node29 -->
<g id="edge128" class="edge"><title>Node39&#45;&gt;Node29</title>
<path fill="none" stroke="midnightblue" d="M3027.96,-165.783C2967.14,-157.479 2876.14,-142.615 2799.27,-120 2792.68,-118.063 2785.82,-115.625 2779.23,-113.051"/>
<polygon fill="midnightblue" stroke="midnightblue" points="3027.83,-169.297 3038.21,-167.159 3028.76,-162.359 3027.83,-169.297"/>
</g>
<!-- Node39&#45;&gt;Node34 -->
<g id="edge130" class="edge"><title>Node39&#45;&gt;Node34</title>
<path fill="none" stroke="midnightblue" d="M3046.77,-160.709C3010.14,-150.518 2959.19,-135.594 2915.27,-120 2909.31,-117.885 2903.07,-115.497 2896.99,-113.068"/>
<polygon fill="midnightblue" stroke="midnightblue" points="3046.13,-164.165 3056.7,-163.455 3047.99,-157.417 3046.13,-164.165"/>
</g>
<!-- Node39&#45;&gt;Node35 -->
<g id="edge132" class="edge"><title>Node39&#45;&gt;Node35</title>
<path fill="none" stroke="midnightblue" d="M3071.15,-158.074C3050.57,-145.024 3021.5,-126.59 3000.39,-113.203"/>
<polygon fill="midnightblue" stroke="midnightblue" points="3069.36,-161.081 3079.68,-163.481 3073.11,-155.169 3069.36,-161.081"/>
</g>
<!-- Node39&#45;&gt;Node37 -->
<g id="edge136" class="edge"><title>Node39&#45;&gt;Node37</title>
<path fill="none" stroke="midnightblue" d="M3096.27,-153.116C3096.27,-140.634 3096.27,-124.969 3096.27,-113.203"/>
<polygon fill="midnightblue" stroke="midnightblue" points="3092.77,-153.481 3096.27,-163.481 3099.77,-153.481 3092.77,-153.481"/>
</g>
<!-- Node40 -->
<g id="node101" class="node"><title>Node40</title>
<a xlink:href="percentiles_8cpp.html" target="_top" xlink:title="examples/percentiles\l/percentiles.cpp">
<polygon fill="none" stroke="black" points="3619.77,-79 3619.77,-113 3728.77,-113 3728.77,-79 3619.77,-79"/>
<text text-anchor="start" x="3627.77" y="-100" font-family="Helvetica,sans-Serif" font-size="10.00">examples/percentiles</text>
<text text-anchor="middle" x="3674.27" y="-87" font-family="Helvetica,sans-Serif" font-size="10.00">/percentiles.cpp</text>
</a>
</g>
<!-- Node39&#45;&gt;Node40 -->
<g id="edge122" class="edge"><title>Node39&#45;&gt;Node40</title>
<path fill="none" stroke="midnightblue" d="M3164.47,-171.835C3263.08,-167.569 3450.68,-155.184 3606.27,-120 3614.32,-118.178 3622.75,-115.7 3630.81,-113.025"/>
<polygon fill="midnightblue" stroke="midnightblue" points="3164.19,-168.344 3154.34,-172.258 3164.48,-175.337 3164.19,-168.344"/>
</g>
<!-- Node41 -->
<g id="node108" class="node"><title>Node41</title>
<a xlink:href="line__count_8cpp.html" target="_top" xlink:title="examples/word_count\l/line_count.cpp">
<polygon fill="none" stroke="black" points="3746.27,-79 3746.27,-113 3858.27,-113 3858.27,-79 3746.27,-79"/>
<text text-anchor="start" x="3754.27" y="-100" font-family="Helvetica,sans-Serif" font-size="10.00">examples/word_count</text>
<text text-anchor="middle" x="3802.27" y="-87" font-family="Helvetica,sans-Serif" font-size="10.00">/line_count.cpp</text>
</a>
</g>
<!-- Node39&#45;&gt;Node41 -->
<g id="edge134" class="edge"><title>Node39&#45;&gt;Node41</title>
<path fill="none" stroke="midnightblue" d="M3164.66,-170.573C3306.76,-163.071 3629.65,-143.938 3737.27,-120 3745.13,-118.25 3753.33,-115.772 3761.16,-113.067"/>
<polygon fill="midnightblue" stroke="midnightblue" points="3164.14,-167.095 3154.34,-171.114 3164.51,-174.086 3164.14,-167.095"/>
</g>
<!-- Node42 -->
<g id="node111" class="node"><title>Node42</title>
<a xlink:href="word__count__simple_8cpp.html" target="_top" xlink:title="examples/word_count\l/word_count_simple.cpp">
<polygon fill="none" stroke="black" points="3876.27,-79 3876.27,-113 3998.27,-113 3998.27,-79 3876.27,-79"/>
<text text-anchor="start" x="3884.27" y="-100" font-family="Helvetica,sans-Serif" font-size="10.00">examples/word_count</text>
<text text-anchor="middle" x="3937.27" y="-87" font-family="Helvetica,sans-Serif" font-size="10.00">/word_count_simple.cpp</text>
</a>
</g>
<!-- Node39&#45;&gt;Node42 -->
<g id="edge138" class="edge"><title>Node39&#45;&gt;Node42</title>
<path fill="none" stroke="midnightblue" d="M3164.75,-171.488C3327.51,-165.151 3733.84,-147.062 3867.27,-120 3875.83,-118.263 3884.78,-115.756 3893.31,-113.01"/>
<polygon fill="midnightblue" stroke="midnightblue" points="3164.25,-168.005 3154.39,-171.889 3164.52,-175 3164.25,-168.005"/>
</g>
</g>
</svg>
