<?xml version="1.0" encoding="UTF-8" standalone="no"?>
<!DOCTYPE svg PUBLIC "-//W3C//DTD SVG 1.1//EN"
 "http://www.w3.org/Graphics/SVG/1.1/DTD/svg11.dtd">
<!-- Generated by graphviz version 2.26.3 (20100126.1600)
 -->
<!-- Title: extlib/tlx/tlx/string/split.hpp Pages: 1 -->
<svg width="846pt" height="116pt"
 viewBox="0.00 0.00 846.00 116.00" xmlns="http://www.w3.org/2000/svg" xmlns:xlink="http://www.w3.org/1999/xlink">
<g id="graph1" class="graph" transform="scale(1 1) rotate(0) translate(4 112)">
<title>extlib/tlx/tlx/string/split.hpp</title>
<!-- Node1 -->
<g id="node1" class="node"><title>Node1</title>
<polygon fill="#bfbfbf" stroke="black" points="375,-73 375,-107 469,-107 469,-73 375,-73"/>
<text text-anchor="start" x="383" y="-94" font-family="Helvetica,sans-Serif" font-size="10.00">extlib/tlx/tlx/string</text>
<text text-anchor="middle" x="422" y="-81" font-family="Helvetica,sans-Serif" font-size="10.00">/split.hpp</text>
</g>
<!-- Node2 -->
<g id="node3" class="node"><title>Node2</title>
<a xlink:href="context_8cpp.html" target="_top" xlink:title="thrill/api/context.cpp">
<polygon fill="none" stroke="black" points="0,-7.5 0,-28.5 104,-28.5 104,-7.5 0,-7.5"/>
<text text-anchor="middle" x="52" y="-15.5" font-family="Helvetica,sans-Serif" font-size="10.00">thrill/api/context.cpp</text>
</a>
</g>
<!-- Node1&#45;&gt;Node2 -->
<g id="edge2" class="edge"><title>Node1&#45;&gt;Node2</title>
<path fill="none" stroke="midnightblue" d="M364.784,-81.9975C302.459,-72.8175 200.021,-56.3731 113,-36 103.862,-33.8606 94.0668,-31.1574 85.0589,-28.5008"/>
<polygon fill="midnightblue" stroke="midnightblue" points="364.409,-85.4799 374.81,-83.4626 365.421,-78.5534 364.409,-85.4799"/>
</g>
<!-- Node3 -->
<g id="node5" class="node"><title>Node3</title>
<a xlink:href="config__file_8cpp.html" target="_top" xlink:title="thrill/io/config_file.cpp">
<polygon fill="none" stroke="black" points="121.5,-7.5 121.5,-28.5 232.5,-28.5 232.5,-7.5 121.5,-7.5"/>
<text text-anchor="middle" x="177" y="-15.5" font-family="Helvetica,sans-Serif" font-size="10.00">thrill/io/config_file.cpp</text>
</a>
</g>
<!-- Node1&#45;&gt;Node3 -->
<g id="edge4" class="edge"><title>Node1&#45;&gt;Node3</title>
<path fill="none" stroke="midnightblue" d="M365.036,-73.2594C318.089,-59.463 252.944,-40.3182 212.953,-28.5658"/>
<polygon fill="midnightblue" stroke="midnightblue" points="364.18,-76.6561 374.762,-76.1177 366.154,-69.9401 364.18,-76.6561"/>
</g>
<!-- Node4 -->
<g id="node7" class="node"><title>Node4</title>
<a xlink:href="s3__file_8cpp.html" target="_top" xlink:title="thrill/vfs/s3_file.cpp">
<polygon fill="none" stroke="black" points="249.5,-7.5 249.5,-28.5 350.5,-28.5 350.5,-7.5 249.5,-7.5"/>
<text text-anchor="middle" x="300" y="-15.5" font-family="Helvetica,sans-Serif" font-size="10.00">thrill/vfs/s3_file.cpp</text>
</a>
</g>
<!-- Node1&#45;&gt;Node4 -->
<g id="edge6" class="edge"><title>Node1&#45;&gt;Node4</title>
<path fill="none" stroke="midnightblue" d="M384.295,-67.7478C362.276,-54.7529 335.491,-38.9456 318.11,-28.688"/>
<polygon fill="midnightblue" stroke="midnightblue" points="382.697,-70.8687 393.088,-72.937 386.255,-64.8402 382.697,-70.8687"/>
</g>
<!-- Node5 -->
<g id="node9" class="node"><title>Node5</title>
<a xlink:href="percentiles_8cpp.html" target="_top" xlink:title="examples/percentiles\l/percentiles.cpp">
<polygon fill="none" stroke="black" points="367.5,-1 367.5,-35 476.5,-35 476.5,-1 367.5,-1"/>
<text text-anchor="start" x="375.5" y="-22" font-family="Helvetica,sans-Serif" font-size="10.00">examples/percentiles</text>
<text text-anchor="middle" x="422" y="-9" font-family="Helvetica,sans-Serif" font-size="10.00">/percentiles.cpp</text>
</a>
</g>
<!-- Node1&#45;&gt;Node5 -->
<g id="edge8" class="edge"><title>Node1&#45;&gt;Node5</title>
<path fill="none" stroke="midnightblue" d="M422,-62.7193C422,-53.572 422,-43.6255 422,-35.4407"/>
<polygon fill="midnightblue" stroke="midnightblue" points="418.5,-62.937 422,-72.937 425.5,-62.937 418.5,-62.937"/>
</g>
<!-- Node6 -->
<g id="node11" class="node"><title>Node6</title>
<a xlink:href="tpch__run_8cpp.html" target="_top" xlink:title="examples/tpch/tpch\l_run.cpp">
<polygon fill="none" stroke="black" points="494,-1 494,-35 596,-35 596,-1 494,-1"/>
<text text-anchor="start" x="502" y="-22" font-family="Helvetica,sans-Serif" font-size="10.00">examples/tpch/tpch</text>
<text text-anchor="middle" x="545" y="-9" font-family="Helvetica,sans-Serif" font-size="10.00">_run.cpp</text>
</a>
</g>
<!-- Node1&#45;&gt;Node6 -->
<g id="edge10" class="edge"><title>Node1&#45;&gt;Node6</title>
<path fill="none" stroke="midnightblue" d="M460.177,-67.6522C478.055,-57.1871 499.02,-44.9152 515.634,-35.19"/>
<polygon fill="midnightblue" stroke="midnightblue" points="458.011,-64.8646 451.149,-72.937 461.548,-70.9057 458.011,-64.8646"/>
</g>
<!-- Node7 -->
<g id="node13" class="node"><title>Node7</title>
<a xlink:href="split_8cpp.html" target="_top" xlink:title="extlib/tlx/tlx/string\l/split.cpp">
<polygon fill="none" stroke="black" points="614,-1 614,-35 708,-35 708,-1 614,-1"/>
<text text-anchor="start" x="622" y="-22" font-family="Helvetica,sans-Serif" font-size="10.00">extlib/tlx/tlx/string</text>
<text text-anchor="middle" x="661" y="-9" font-family="Helvetica,sans-Serif" font-size="10.00">/split.cpp</text>
</a>
</g>
<!-- Node1&#45;&gt;Node7 -->
<g id="edge12" class="edge"><title>Node1&#45;&gt;Node7</title>
<path fill="none" stroke="midnightblue" d="M478.987,-73.5669C515.151,-63.0437 562.899,-48.9758 605,-36 607.928,-35.0977 610.938,-34.1596 613.972,-33.2066"/>
<polygon fill="midnightblue" stroke="midnightblue" points="477.734,-70.286 469.108,-76.4372 479.687,-77.008 477.734,-70.286"/>
</g>
<!-- Node8 -->
<g id="node15" class="node"><title>Node8</title>
<a xlink:href="extlib_2tlx_2tlx_2string_8hpp.html" target="_top" xlink:title="extlib/tlx/tlx/string.hpp">
<polygon fill="none" stroke="black" points="725.5,-7.5 725.5,-28.5 838.5,-28.5 838.5,-7.5 725.5,-7.5"/>
<text text-anchor="middle" x="782" y="-15.5" font-family="Helvetica,sans-Serif" font-size="10.00">extlib/tlx/tlx/string.hpp</text>
</a>
</g>
<!-- Node1&#45;&gt;Node8 -->
<g id="edge14" class="edge"><title>Node1&#45;&gt;Node8</title>
<path fill="none" stroke="midnightblue" d="M478.988,-81.1158C538.631,-71.4568 634.848,-54.8543 717,-36 726.473,-33.826 736.635,-31.1696 746.045,-28.5721"/>
<polygon fill="midnightblue" stroke="midnightblue" points="478.33,-77.6765 469.013,-82.7216 479.443,-84.5876 478.33,-77.6765"/>
</g>
</g>
</svg>
