<?xml version="1.0" encoding="UTF-8" standalone="no"?>
<!DOCTYPE svg PUBLIC "-//W3C//DTD SVG 1.1//EN"
 "http://www.w3.org/Graphics/SVG/1.1/DTD/svg11.dtd">
<!-- Generated by graphviz version 2.40.1 (20161225.0304)
 -->
<!-- Title: extlib/tlx/tlx/string/ssprintf.hpp Pages: 1 -->
<svg width="178pt" height="106pt"
 viewBox="0.00 0.00 177.50 106.00" xmlns="http://www.w3.org/2000/svg" xmlns:xlink="http://www.w3.org/1999/xlink">
<g id="graph0" class="graph" transform="scale(1 1) rotate(0) translate(4 102)">
<title>extlib/tlx/tlx/string/ssprintf.hpp</title>
<!-- Node0 -->
<g id="node1" class="node">
<title>Node0</title>
<polygon fill="#bfbfbf" stroke="#000000" points="47,-67.5 47,-97.5 154,-97.5 154,-67.5 47,-67.5"/>
<text text-anchor="start" x="55" y="-85.5" font-family="Helvetica,sans-Serif" font-size="10.00" fill="#000000">extlib/tlx/tlx/string</text>
<text text-anchor="middle" x="100.5" y="-74.5" font-family="Helvetica,sans-Serif" font-size="10.00" fill="#000000">/ssprintf.hpp</text>
</g>
<!-- Node1 -->
<g id="node2" class="node">
<title>Node1</title>
<g id="a_node2"><a xlink:href="attribute__format__printf_8hpp.html" target="_top" xlink:title="tlx/define/attribute\l_format_printf.hpp">
<polygon fill="none" stroke="#000000" points="0,-.5 0,-30.5 107,-30.5 107,-.5 0,-.5"/>
<text text-anchor="start" x="8" y="-18.5" font-family="Helvetica,sans-Serif" font-size="10.00" fill="#000000">tlx/define/attribute</text>
<text text-anchor="middle" x="53.5" y="-7.5" font-family="Helvetica,sans-Serif" font-size="10.00" fill="#000000">_format_printf.hpp</text>
</a>
</g>
</g>
<!-- Node0&#45;&gt;Node1 -->
<g id="edge1" class="edge">
<title>Node0&#45;&gt;Node1</title>
<path fill="none" stroke="#191970" d="M89.835,-67.2967C83.9459,-58.9016 76.5056,-48.2952 69.8938,-38.8698"/>
<polygon fill="#191970" stroke="#191970" points="72.731,-36.8198 64.1228,-30.6432 67.0004,-40.8398 72.731,-36.8198"/>
</g>
<!-- Node2 -->
<g id="node3" class="node">
<title>Node2</title>
<polygon fill="none" stroke="#bfbfbf" points="125.5,-6 125.5,-25 169.5,-25 169.5,-6 125.5,-6"/>
<text text-anchor="middle" x="147.5" y="-13" font-family="Helvetica,sans-Serif" font-size="10.00" fill="#000000">string</text>
</g>
<!-- Node0&#45;&gt;Node2 -->
<g id="edge2" class="edge">
<title>Node0&#45;&gt;Node2</title>
<path fill="none" stroke="#191970" d="M111.165,-67.2967C118.2035,-57.2631 127.4577,-44.0709 134.8652,-33.5113"/>
<polygon fill="#191970" stroke="#191970" points="137.9197,-35.2516 140.7973,-25.055 132.1891,-31.2316 137.9197,-35.2516"/>
</g>
</g>
</svg>
