<?xml version="1.0" encoding="UTF-8" standalone="no"?>
<!DOCTYPE svg PUBLIC "-//W3C//DTD SVG 1.1//EN"
 "http://www.w3.org/Graphics/SVG/1.1/DTD/svg11.dtd">
<!-- Generated by graphviz version 2.36.0 (20140111.2315)
 -->
<!-- Title: extlib/tlx/tlx/string/ssprintf.cpp Pages: 1 -->
<svg width="280pt" height="164pt"
 viewBox="0.00 0.00 280.00 164.00" xmlns="http://www.w3.org/2000/svg" xmlns:xlink="http://www.w3.org/1999/xlink">
<g id="graph0" class="graph" transform="scale(1 1) rotate(0) translate(4 160)">
<title>extlib/tlx/tlx/string/ssprintf.cpp</title>
<!-- Node1 -->
<g id="node1" class="node"><title>Node1</title>
<polygon fill="#bfbfbf" stroke="black" points="140,-125 140,-155 234,-155 234,-125 140,-125"/>
<text text-anchor="start" x="148" y="-143" font-family="Helvetica,sans-Serif" font-size="10.00">extlib/tlx/tlx/string</text>
<text text-anchor="middle" x="187" y="-132" font-family="Helvetica,sans-Serif" font-size="10.00">/ssprintf.cpp</text>
</g>
<!-- Node2 -->
<g id="node2" class="node"><title>Node2</title>
<g id="a_node2"><a xlink:href="ssprintf_8hpp.html" target="_top" xlink:title="tlx/string/ssprintf.hpp">
<polygon fill="none" stroke="black" points="36,-68.5 36,-87.5 144,-87.5 144,-68.5 36,-68.5"/>
<text text-anchor="middle" x="90" y="-75.5" font-family="Helvetica,sans-Serif" font-size="10.00">tlx/string/ssprintf.hpp</text>
</a>
</g>
</g>
<!-- Node1&#45;&gt;Node2 -->
<g id="edge1" class="edge"><title>Node1&#45;&gt;Node2</title>
<path fill="none" stroke="midnightblue" d="M164.012,-124.781C148.517,-115.196 128.163,-102.606 112.723,-93.0555"/>
<polygon fill="midnightblue" stroke="midnightblue" points="114.177,-89.8397 103.832,-87.5557 110.495,-95.7929 114.177,-89.8397"/>
</g>
<!-- Node5 -->
<g id="node5" class="node"><title>Node5</title>
<polygon fill="none" stroke="#bfbfbf" points="162.5,-68.5 162.5,-87.5 211.5,-87.5 211.5,-68.5 162.5,-68.5"/>
<text text-anchor="middle" x="187" y="-75.5" font-family="Helvetica,sans-Serif" font-size="10.00">cstdarg</text>
</g>
<!-- Node1&#45;&gt;Node5 -->
<g id="edge4" class="edge"><title>Node1&#45;&gt;Node5</title>
<path fill="none" stroke="midnightblue" d="M187,-124.781C187,-116.781 187,-106.689 187,-98.0168"/>
<polygon fill="midnightblue" stroke="midnightblue" points="190.5,-97.7305 187,-87.7305 183.5,-97.7306 190.5,-97.7305"/>
</g>
<!-- Node6 -->
<g id="node6" class="node"><title>Node6</title>
<polygon fill="none" stroke="#bfbfbf" points="229.5,-68.5 229.5,-87.5 272.5,-87.5 272.5,-68.5 229.5,-68.5"/>
<text text-anchor="middle" x="251" y="-75.5" font-family="Helvetica,sans-Serif" font-size="10.00">cstdio</text>
</g>
<!-- Node1&#45;&gt;Node6 -->
<g id="edge5" class="edge"><title>Node1&#45;&gt;Node6</title>
<path fill="none" stroke="midnightblue" d="M202.167,-124.781C211.851,-115.703 224.409,-103.929 234.365,-94.5951"/>
<polygon fill="midnightblue" stroke="midnightblue" points="236.786,-97.1234 241.687,-87.7305 231.998,-92.0166 236.786,-97.1234"/>
</g>
<!-- Node3 -->
<g id="node3" class="node"><title>Node3</title>
<g id="a_node3"><a xlink:href="attribute__format__printf_8hpp.html" target="_top" xlink:title="tlx/define/attribute\l_format_printf.hpp">
<polygon fill="none" stroke="black" points="-0.5,-1 -0.5,-31 94.5,-31 94.5,-1 -0.5,-1"/>
<text text-anchor="start" x="7.5" y="-19" font-family="Helvetica,sans-Serif" font-size="10.00">tlx/define/attribute</text>
<text text-anchor="middle" x="47" y="-8" font-family="Helvetica,sans-Serif" font-size="10.00">_format_printf.hpp</text>
</a>
</g>
</g>
<!-- Node2&#45;&gt;Node3 -->
<g id="edge2" class="edge"><title>Node2&#45;&gt;Node3</title>
<path fill="none" stroke="midnightblue" d="M83.8391,-68.4035C78.4508,-60.8849 70.3804,-49.6238 63.1655,-39.5565"/>
<polygon fill="midnightblue" stroke="midnightblue" points="65.8043,-37.2302 57.1342,-31.1408 60.1146,-41.3078 65.8043,-37.2302"/>
</g>
<!-- Node4 -->
<g id="node4" class="node"><title>Node4</title>
<polygon fill="none" stroke="#bfbfbf" points="112.5,-6.5 112.5,-25.5 153.5,-25.5 153.5,-6.5 112.5,-6.5"/>
<text text-anchor="middle" x="133" y="-13.5" font-family="Helvetica,sans-Serif" font-size="10.00">string</text>
</g>
<!-- Node2&#45;&gt;Node4 -->
<g id="edge3" class="edge"><title>Node2&#45;&gt;Node4</title>
<path fill="none" stroke="midnightblue" d="M96.1609,-68.4035C102.611,-59.4034 112.904,-45.0408 120.973,-33.7824"/>
<polygon fill="midnightblue" stroke="midnightblue" points="123.87,-35.7476 126.851,-25.5806 118.18,-31.6699 123.87,-35.7476"/>
</g>
</g>
</svg>
