<?xml version="1.0" encoding="UTF-8" standalone="no"?>
<!DOCTYPE svg PUBLIC "-//W3C//DTD SVG 1.1//EN"
 "http://www.w3.org/Graphics/SVG/1.1/DTD/svg11.dtd">
<!-- Generated by graphviz version 2.40.1 (20161225.0304)
 -->
<!-- Title: extlib/tlx/tlx/stack_allocator.hpp Pages: 1 -->
<svg width="322pt" height="151pt"
 viewBox="0.00 0.00 321.50 151.00" xmlns="http://www.w3.org/2000/svg" xmlns:xlink="http://www.w3.org/1999/xlink">
<g id="graph0" class="graph" transform="scale(1 1) rotate(0) translate(4 147)">
<title>extlib/tlx/tlx/stack_allocator.hpp</title>
<!-- Node0 -->
<g id="node1" class="node">
<title>Node0</title>
<polygon fill="#bfbfbf" stroke="#000000" points="53.5,-112.5 53.5,-142.5 158.5,-142.5 158.5,-112.5 53.5,-112.5"/>
<text text-anchor="start" x="61.5" y="-130.5" font-family="Helvetica,sans-Serif" font-size="10.00" fill="#000000">extlib/tlx/tlx/stack</text>
<text text-anchor="middle" x="106" y="-119.5" font-family="Helvetica,sans-Serif" font-size="10.00" fill="#000000">_allocator.hpp</text>
</g>
<!-- Node1 -->
<g id="node2" class="node">
<title>Node1</title>
<polygon fill="none" stroke="#bfbfbf" points="0,-56.5 0,-75.5 52,-75.5 52,-56.5 0,-56.5"/>
<text text-anchor="middle" x="26" y="-63.5" font-family="Helvetica,sans-Serif" font-size="10.00" fill="#000000">cassert</text>
</g>
<!-- Node0&#45;&gt;Node1 -->
<g id="edge1" class="edge">
<title>Node0&#45;&gt;Node1</title>
<path fill="none" stroke="#191970" d="M86.2247,-112.2977C74.3102,-103.1384 59.1468,-91.4816 47.0162,-82.1562"/>
<polygon fill="#191970" stroke="#191970" points="48.8703,-79.1668 38.809,-75.8469 44.604,-84.7165 48.8703,-79.1668"/>
</g>
<!-- Node2 -->
<g id="node3" class="node">
<title>Node2</title>
<polygon fill="none" stroke="#bfbfbf" points="95.5,-.5 95.5,-19.5 148.5,-19.5 148.5,-.5 95.5,-.5"/>
<text text-anchor="middle" x="122" y="-7.5" font-family="Helvetica,sans-Serif" font-size="10.00" fill="#000000">cstddef</text>
</g>
<!-- Node0&#45;&gt;Node2 -->
<g id="edge2" class="edge">
<title>Node0&#45;&gt;Node2</title>
<path fill="none" stroke="#191970" d="M101.6506,-112.242C98.1531,-97.6324 94.501,-75.0581 99,-56 101.2706,-46.3814 105.8775,-36.4809 110.3759,-28.3404"/>
<polygon fill="#191970" stroke="#191970" points="113.3973,-30.1071 115.4603,-19.7151 107.367,-26.5524 113.3973,-30.1071"/>
</g>
<!-- Node3 -->
<g id="node4" class="node">
<title>Node3</title>
<polygon fill="none" stroke="#bfbfbf" points="108.5,-56.5 108.5,-75.5 157.5,-75.5 157.5,-56.5 108.5,-56.5"/>
<text text-anchor="middle" x="133" y="-63.5" font-family="Helvetica,sans-Serif" font-size="10.00" fill="#000000">cstdlib</text>
</g>
<!-- Node0&#45;&gt;Node3 -->
<g id="edge3" class="edge">
<title>Node0&#45;&gt;Node3</title>
<path fill="none" stroke="#191970" d="M112.6742,-112.2977C116.2659,-104.1166 120.7324,-93.943 124.5629,-85.2179"/>
<polygon fill="#191970" stroke="#191970" points="127.8618,-86.4104 128.677,-75.8469 121.4522,-83.5964 127.8618,-86.4104"/>
</g>
<!-- Node4 -->
<g id="node5" class="node">
<title>Node4</title>
<g id="a_node5"><a xlink:href="extlib_2tlx_2tlx_2allocator__base_8hpp.html" target="_top" xlink:title="tlx/allocator_base.hpp">
<polygon fill="none" stroke="#000000" points="175.5,-56.5 175.5,-75.5 300.5,-75.5 300.5,-56.5 175.5,-56.5"/>
<text text-anchor="middle" x="238" y="-63.5" font-family="Helvetica,sans-Serif" font-size="10.00" fill="#000000">tlx/allocator_base.hpp</text>
</a>
</g>
</g>
<!-- Node0&#45;&gt;Node4 -->
<g id="edge4" class="edge">
<title>Node0&#45;&gt;Node4</title>
<path fill="none" stroke="#191970" d="M138.2908,-112.4554C159.6392,-102.509 187.4196,-89.5659 208.2333,-79.8686"/>
<polygon fill="#191970" stroke="#191970" points="209.9584,-82.9262 217.5447,-75.5303 207.0021,-76.581 209.9584,-82.9262"/>
</g>
<!-- Node4&#45;&gt;Node2 -->
<g id="edge5" class="edge">
<title>Node4&#45;&gt;Node2</title>
<path fill="none" stroke="#191970" d="M218.0589,-56.3733C199.5214,-47.4241 171.6972,-33.9917 150.7587,-23.8835"/>
<polygon fill="#191970" stroke="#191970" points="152.2081,-20.6967 141.6809,-19.5011 149.1648,-27.0006 152.2081,-20.6967"/>
</g>
<!-- Node5 -->
<g id="node6" class="node">
<title>Node5</title>
<polygon fill="none" stroke="#bfbfbf" points="168,-.5 168,-19.5 226,-19.5 226,-.5 168,-.5"/>
<text text-anchor="middle" x="197" y="-7.5" font-family="Helvetica,sans-Serif" font-size="10.00" fill="#000000">memory</text>
</g>
<!-- Node4&#45;&gt;Node5 -->
<g id="edge6" class="edge">
<title>Node4&#45;&gt;Node5</title>
<path fill="none" stroke="#191970" d="M230.8583,-56.2455C225.1556,-48.4564 217.01,-37.3308 210.1375,-27.9439"/>
<polygon fill="#191970" stroke="#191970" points="212.7913,-25.6437 204.0598,-19.6427 207.1432,-29.7789 212.7913,-25.6437"/>
</g>
<!-- Node6 -->
<g id="node7" class="node">
<title>Node6</title>
<polygon fill="none" stroke="#bfbfbf" points="244.5,-.5 244.5,-19.5 313.5,-19.5 313.5,-.5 244.5,-.5"/>
<text text-anchor="middle" x="279" y="-7.5" font-family="Helvetica,sans-Serif" font-size="10.00" fill="#000000">type_traits</text>
</g>
<!-- Node4&#45;&gt;Node6 -->
<g id="edge7" class="edge">
<title>Node4&#45;&gt;Node6</title>
<path fill="none" stroke="#191970" d="M245.1417,-56.2455C250.8444,-48.4564 258.99,-37.3308 265.8625,-27.9439"/>
<polygon fill="#191970" stroke="#191970" points="268.8568,-29.7789 271.9402,-19.6427 263.2087,-25.6437 268.8568,-29.7789"/>
</g>
</g>
</svg>
