<?xml version="1.0" encoding="UTF-8" standalone="no"?>
<!DOCTYPE svg PUBLIC "-//W3C//DTD SVG 1.1//EN"
 "http://www.w3.org/Graphics/SVG/1.1/DTD/svg11.dtd">
<!-- Generated by graphviz version 2.26.3 (20100126.1600)
 -->
<!-- Title: extlib/tlx/tlx/string/starts_with.cpp Pages: 1 -->
<svg width="336pt" height="160pt"
 viewBox="0.00 0.00 336.00 160.00" xmlns="http://www.w3.org/2000/svg" xmlns:xlink="http://www.w3.org/1999/xlink">
<g id="graph1" class="graph" transform="scale(1 1) rotate(0) translate(4 156)">
<title>extlib/tlx/tlx/string/starts_with.cpp</title>
<!-- Node1 -->
<g id="node1" class="node"><title>Node1</title>
<polygon fill="#bfbfbf" stroke="black" points="123,-117 123,-151 217,-151 217,-117 123,-117"/>
<text text-anchor="start" x="131" y="-138" font-family="Helvetica,sans-Serif" font-size="10.00">extlib/tlx/tlx/string</text>
<text text-anchor="middle" x="170" y="-125" font-family="Helvetica,sans-Serif" font-size="10.00">/starts_with.cpp</text>
</g>
<!-- Node2 -->
<g id="node3" class="node"><title>Node2</title>
<a xlink:href="starts__with_8hpp.html" target="_top" xlink:title="tlx/string/starts_with.hpp">
<polygon fill="none" stroke="black" points="0,-58.5 0,-79.5 124,-79.5 124,-58.5 0,-58.5"/>
<text text-anchor="middle" x="62" y="-66.5" font-family="Helvetica,sans-Serif" font-size="10.00">tlx/string/starts_with.hpp</text>
</a>
</g>
<!-- Node1&#45;&gt;Node2 -->
<g id="edge2" class="edge"><title>Node1&#45;&gt;Node2</title>
<path fill="none" stroke="midnightblue" d="M141.624,-116.922C125.22,-107.049 104.708,-94.7039 88.6118,-85.0164"/>
<polygon fill="midnightblue" stroke="midnightblue" points="90.0821,-81.8163 79.7093,-79.6584 86.4724,-87.8138 90.0821,-81.8163"/>
</g>
<!-- Node4 -->
<g id="node7" class="node"><title>Node4</title>
<polygon fill="none" stroke="#bfbfbf" points="142,-58.5 142,-79.5 198,-79.5 198,-58.5 142,-58.5"/>
<text text-anchor="middle" x="170" y="-66.5" font-family="Helvetica,sans-Serif" font-size="10.00">algorithm</text>
</g>
<!-- Node1&#45;&gt;Node4 -->
<g id="edge6" class="edge"><title>Node1&#45;&gt;Node4</title>
<path fill="none" stroke="midnightblue" d="M170,-116.922C170,-108.67 170,-98.6922 170,-89.9818"/>
<polygon fill="midnightblue" stroke="midnightblue" points="173.5,-89.8521 170,-79.8521 166.5,-89.8521 173.5,-89.8521"/>
</g>
<!-- Node5 -->
<g id="node9" class="node"><title>Node5</title>
<a xlink:href="to__lower_8hpp.html" target="_top" xlink:title="tlx/string/to_lower.hpp">
<polygon fill="none" stroke="black" points="215.5,-58.5 215.5,-79.5 328.5,-79.5 328.5,-58.5 215.5,-58.5"/>
<text text-anchor="middle" x="272" y="-66.5" font-family="Helvetica,sans-Serif" font-size="10.00">tlx/string/to_lower.hpp</text>
</a>
</g>
<!-- Node1&#45;&gt;Node5 -->
<g id="edge8" class="edge"><title>Node1&#45;&gt;Node5</title>
<path fill="none" stroke="midnightblue" d="M196.799,-116.922C212.148,-107.141 231.303,-94.9344 246.439,-85.2887"/>
<polygon fill="midnightblue" stroke="midnightblue" points="248.722,-87.9841 255.275,-79.6584 244.96,-82.0809 248.722,-87.9841"/>
</g>
<!-- Node3 -->
<g id="node5" class="node"><title>Node3</title>
<polygon fill="none" stroke="#bfbfbf" points="146.5,-0.5 146.5,-21.5 187.5,-21.5 187.5,-0.5 146.5,-0.5"/>
<text text-anchor="middle" x="167" y="-8.5" font-family="Helvetica,sans-Serif" font-size="10.00">string</text>
</g>
<!-- Node2&#45;&gt;Node3 -->
<g id="edge4" class="edge"><title>Node2&#45;&gt;Node3</title>
<path fill="none" stroke="midnightblue" d="M81.2586,-58.3619C97.4658,-49.4094 120.853,-36.4908 139.109,-26.4064"/>
<polygon fill="midnightblue" stroke="midnightblue" points="140.802,-29.4696 147.863,-21.5707 137.418,-23.3422 140.802,-29.4696"/>
</g>
<!-- Node5&#45;&gt;Node3 -->
<g id="edge10" class="edge"><title>Node5&#45;&gt;Node3</title>
<path fill="none" stroke="midnightblue" d="M252.741,-58.3619C236.534,-49.4094 213.147,-36.4908 194.891,-26.4064"/>
<polygon fill="midnightblue" stroke="midnightblue" points="196.582,-23.3422 186.137,-21.5707 193.198,-29.4696 196.582,-23.3422"/>
</g>
</g>
</svg>
