<?xml version="1.0" encoding="UTF-8" standalone="no"?>
<!DOCTYPE svg PUBLIC "-//W3C//DTD SVG 1.1//EN"
 "http://www.w3.org/Graphics/SVG/1.1/DTD/svg11.dtd">
<!-- Generated by graphviz version 2.40.1 (20161225.0304)
 -->
<!-- Title: thrill/common/stats_timer.hpp Pages: 1 -->
<svg width="832pt" height="218pt"
 viewBox="0.00 0.00 831.50 218.00" xmlns="http://www.w3.org/2000/svg" xmlns:xlink="http://www.w3.org/1999/xlink">
<g id="graph0" class="graph" transform="scale(1 1) rotate(0) translate(4 214)">
<title>thrill/common/stats_timer.hpp</title>
<!-- Node0 -->
<g id="node1" class="node">
<title>Node0</title>
<polygon fill="#bfbfbf" stroke="#000000" points="382,-179.5 382,-209.5 494,-209.5 494,-179.5 382,-179.5"/>
<text text-anchor="start" x="390" y="-197.5" font-family="Helvetica,sans-Serif" font-size="10.00" fill="#000000">thrill/common/stats</text>
<text text-anchor="middle" x="438" y="-186.5" font-family="Helvetica,sans-Serif" font-size="10.00" fill="#000000">_timer.hpp</text>
</g>
<!-- Node1 -->
<g id="node2" class="node">
<title>Node1</title>
<g id="a_node2"><a xlink:href="atomic__movable_8hpp.html" target="_top" xlink:title="thrill/common/atomic\l_movable.hpp">
<polygon fill="none" stroke="#000000" points="17,-112.5 17,-142.5 139,-142.5 139,-112.5 17,-112.5"/>
<text text-anchor="start" x="25" y="-130.5" font-family="Helvetica,sans-Serif" font-size="10.00" fill="#000000">thrill/common/atomic</text>
<text text-anchor="middle" x="78" y="-119.5" font-family="Helvetica,sans-Serif" font-size="10.00" fill="#000000">_movable.hpp</text>
</a>
</g>
</g>
<!-- Node0&#45;&gt;Node1 -->
<g id="edge1" class="edge">
<title>Node0&#45;&gt;Node1</title>
<path fill="none" stroke="#191970" d="M381.75,-184.0313C319.1134,-172.3739 217.7277,-153.5049 149.5073,-140.8083"/>
<polygon fill="#191970" stroke="#191970" points="149.7446,-137.2924 139.273,-138.9036 148.4638,-144.1743 149.7446,-137.2924"/>
</g>
<!-- Node4 -->
<g id="node5" class="node">
<title>Node4</title>
<g id="a_node5"><a xlink:href="json__logger_8hpp.html" target="_top" xlink:title="thrill/common/json\l_logger.hpp">
<polygon fill="none" stroke="#000000" points="384,-112.5 384,-142.5 492,-142.5 492,-112.5 384,-112.5"/>
<text text-anchor="start" x="392" y="-130.5" font-family="Helvetica,sans-Serif" font-size="10.00" fill="#000000">thrill/common/json</text>
<text text-anchor="middle" x="438" y="-119.5" font-family="Helvetica,sans-Serif" font-size="10.00" fill="#000000">_logger.hpp</text>
</a>
</g>
</g>
<!-- Node0&#45;&gt;Node4 -->
<g id="edge4" class="edge">
<title>Node0&#45;&gt;Node4</title>
<path fill="none" stroke="#191970" d="M438,-179.2967C438,-171.5013 438,-161.7991 438,-152.9064"/>
<polygon fill="#191970" stroke="#191970" points="441.5001,-152.6431 438,-142.6432 434.5001,-152.6432 441.5001,-152.6431"/>
</g>
<!-- Node7 -->
<g id="node8" class="node">
<title>Node7</title>
<polygon fill="none" stroke="#bfbfbf" points="106,-56.5 106,-75.5 158,-75.5 158,-56.5 106,-56.5"/>
<text text-anchor="middle" x="132" y="-63.5" font-family="Helvetica,sans-Serif" font-size="10.00" fill="#000000">cassert</text>
</g>
<!-- Node0&#45;&gt;Node7 -->
<g id="edge15" class="edge">
<title>Node0&#45;&gt;Node7</title>
<path fill="none" stroke="#191970" d="M401.9981,-179.3816C341.8118,-154.1072 221.7109,-103.6727 164.1771,-79.5123"/>
<polygon fill="#191970" stroke="#191970" points="165.419,-76.2378 154.8438,-75.5929 162.7087,-82.6918 165.419,-76.2378"/>
</g>
<!-- Node14 -->
<g id="node15" class="node">
<title>Node14</title>
<polygon fill="none" stroke="#bfbfbf" points="510,-118 510,-137 560,-137 560,-118 510,-118"/>
<text text-anchor="middle" x="535" y="-125" font-family="Helvetica,sans-Serif" font-size="10.00" fill="#000000">chrono</text>
</g>
<!-- Node0&#45;&gt;Node14 -->
<g id="edge16" class="edge">
<title>Node0&#45;&gt;Node14</title>
<path fill="none" stroke="#191970" d="M460.0108,-179.2967C475.7108,-168.4524 496.7528,-153.9182 512.551,-143.006"/>
<polygon fill="#191970" stroke="#191970" points="514.9278,-145.6181 521.1667,-137.055 510.9495,-139.8585 514.9278,-145.6181"/>
</g>
<!-- Node15 -->
<g id="node16" class="node">
<title>Node15</title>
<polygon fill="none" stroke="#bfbfbf" points="578.5,-118 578.5,-137 635.5,-137 635.5,-118 578.5,-118"/>
<text text-anchor="middle" x="607" y="-125" font-family="Helvetica,sans-Serif" font-size="10.00" fill="#000000">ostream</text>
</g>
<!-- Node0&#45;&gt;Node15 -->
<g id="edge17" class="edge">
<title>Node0&#45;&gt;Node15</title>
<path fill="none" stroke="#191970" d="M476.7428,-179.4181C502.8463,-169.2199 538.034,-155.4017 569,-143 570.637,-142.3444 572.3127,-141.6707 574.0042,-140.9885"/>
<polygon fill="#191970" stroke="#191970" points="575.7544,-144.0557 583.7073,-137.0556 573.1249,-137.5684 575.7544,-144.0557"/>
</g>
<!-- Node2 -->
<g id="node3" class="node">
<title>Node2</title>
<polygon fill="none" stroke="#bfbfbf" points="0,-56.5 0,-75.5 50,-75.5 50,-56.5 0,-56.5"/>
<text text-anchor="middle" x="25" y="-63.5" font-family="Helvetica,sans-Serif" font-size="10.00" fill="#000000">atomic</text>
</g>
<!-- Node1&#45;&gt;Node2 -->
<g id="edge2" class="edge">
<title>Node1&#45;&gt;Node2</title>
<path fill="none" stroke="#191970" d="M64.8989,-112.2977C57.3887,-103.5831 47.93,-92.6075 40.1073,-83.5302"/>
<polygon fill="#191970" stroke="#191970" points="42.6655,-81.1372 33.486,-75.8469 37.3629,-85.707 42.6655,-81.1372"/>
</g>
<!-- Node3 -->
<g id="node4" class="node">
<title>Node3</title>
<polygon fill="none" stroke="#bfbfbf" points="139.5,-.5 139.5,-19.5 184.5,-19.5 184.5,-.5 139.5,-.5"/>
<text text-anchor="middle" x="162" y="-7.5" font-family="Helvetica,sans-Serif" font-size="10.00" fill="#000000">utility</text>
</g>
<!-- Node1&#45;&gt;Node3 -->
<g id="edge3" class="edge">
<title>Node1&#45;&gt;Node3</title>
<path fill="none" stroke="#191970" d="M79.0322,-112.2843C80.7266,-96.8829 85.1991,-72.9809 97,-56 106.0149,-43.028 119.9321,-32.4716 132.5792,-24.7588"/>
<polygon fill="#191970" stroke="#191970" points="134.5457,-27.6656 141.4755,-19.6513 131.0605,-21.5949 134.5457,-27.6656"/>
</g>
<!-- Node5 -->
<g id="node6" class="node">
<title>Node5</title>
<g id="a_node6"><a xlink:href="call__foreach_8hpp.html" target="_top" xlink:title="tlx/meta/call_foreach.hpp">
<polygon fill="none" stroke="#000000" points="176.5,-56.5 176.5,-75.5 317.5,-75.5 317.5,-56.5 176.5,-56.5"/>
<text text-anchor="middle" x="247" y="-63.5" font-family="Helvetica,sans-Serif" font-size="10.00" fill="#000000">tlx/meta/call_foreach.hpp</text>
</a>
</g>
</g>
<!-- Node4&#45;&gt;Node5 -->
<g id="edge5" class="edge">
<title>Node4&#45;&gt;Node5</title>
<path fill="none" stroke="#191970" d="M391.2761,-112.4554C359.1277,-102.104 316.8989,-88.5067 286.4436,-78.7004"/>
<polygon fill="#191970" stroke="#191970" points="287.1897,-75.2638 276.5982,-75.5303 285.0442,-81.9269 287.1897,-75.2638"/>
</g>
<!-- Node6 -->
<g id="node7" class="node">
<title>Node6</title>
<polygon fill="none" stroke="#bfbfbf" points="336,-56.5 336,-75.5 378,-75.5 378,-56.5 336,-56.5"/>
<text text-anchor="middle" x="357" y="-63.5" font-family="Helvetica,sans-Serif" font-size="10.00" fill="#000000">array</text>
</g>
<!-- Node4&#45;&gt;Node6 -->
<g id="edge7" class="edge">
<title>Node4&#45;&gt;Node6</title>
<path fill="none" stroke="#191970" d="M417.9775,-112.2977C405.914,-103.1384 390.5612,-91.4816 378.2789,-82.1562"/>
<polygon fill="#191970" stroke="#191970" points="380.0501,-79.1065 369.9691,-75.8469 375.8171,-84.6816 380.0501,-79.1065"/>
</g>
<!-- Node4&#45;&gt;Node7 -->
<g id="edge8" class="edge">
<title>Node4&#45;&gt;Node7</title>
<path fill="none" stroke="#191970" d="M383.9635,-118.7141C331.1923,-109.8007 248.4469,-94.9417 168.0915,-76.1084"/>
<polygon fill="#191970" stroke="#191970" points="168.8434,-72.6898 158.3061,-73.7921 167.231,-79.5015 168.8434,-72.6898"/>
</g>
<!-- Node8 -->
<g id="node9" class="node">
<title>Node8</title>
<polygon fill="none" stroke="#bfbfbf" points="396.5,-56.5 396.5,-75.5 479.5,-75.5 479.5,-56.5 396.5,-56.5"/>
<text text-anchor="middle" x="438" y="-63.5" font-family="Helvetica,sans-Serif" font-size="10.00" fill="#000000">initializer_list</text>
</g>
<!-- Node4&#45;&gt;Node8 -->
<g id="edge9" class="edge">
<title>Node4&#45;&gt;Node8</title>
<path fill="none" stroke="#191970" d="M438,-112.2977C438,-104.3834 438,-94.6043 438,-86.0759"/>
<polygon fill="#191970" stroke="#191970" points="441.5001,-85.8469 438,-75.8469 434.5001,-85.847 441.5001,-85.8469"/>
</g>
<!-- Node9 -->
<g id="node10" class="node">
<title>Node9</title>
<polygon fill="none" stroke="#bfbfbf" points="498,-56.5 498,-75.5 556,-75.5 556,-56.5 498,-56.5"/>
<text text-anchor="middle" x="527" y="-63.5" font-family="Helvetica,sans-Serif" font-size="10.00" fill="#000000">memory</text>
</g>
<!-- Node4&#45;&gt;Node9 -->
<g id="edge10" class="edge">
<title>Node4&#45;&gt;Node9</title>
<path fill="none" stroke="#191970" d="M460,-112.2977C473.5968,-102.9022 490.9966,-90.8787 504.6567,-81.4395"/>
<polygon fill="#191970" stroke="#191970" points="506.7785,-84.2276 513.0158,-75.6633 502.7991,-78.4688 506.7785,-84.2276"/>
</g>
<!-- Node10 -->
<g id="node11" class="node">
<title>Node10</title>
<polygon fill="none" stroke="#bfbfbf" points="574,-56.5 574,-75.5 622,-75.5 622,-56.5 574,-56.5"/>
<text text-anchor="middle" x="598" y="-63.5" font-family="Helvetica,sans-Serif" font-size="10.00" fill="#000000">mutex</text>
</g>
<!-- Node4&#45;&gt;Node10 -->
<g id="edge11" class="edge">
<title>Node4&#45;&gt;Node10</title>
<path fill="none" stroke="#191970" d="M477.1404,-112.4554C503.766,-102.2212 538.6457,-88.8143 564.0876,-79.0351"/>
<polygon fill="#191970" stroke="#191970" points="565.6006,-82.2032 573.6791,-75.3484 563.0891,-75.6693 565.6006,-82.2032"/>
</g>
<!-- Node11 -->
<g id="node12" class="node">
<title>Node11</title>
<polygon fill="none" stroke="#bfbfbf" points="640,-56.5 640,-75.5 696,-75.5 696,-56.5 640,-56.5"/>
<text text-anchor="middle" x="668" y="-63.5" font-family="Helvetica,sans-Serif" font-size="10.00" fill="#000000">sstream</text>
</g>
<!-- Node4&#45;&gt;Node11 -->
<g id="edge12" class="edge">
<title>Node4&#45;&gt;Node11</title>
<path fill="none" stroke="#191970" d="M492.087,-113.117C528.5178,-103.4178 577.9116,-90.2456 629.9715,-76.271"/>
<polygon fill="#191970" stroke="#191970" points="630.9707,-79.6268 639.7208,-73.653 629.1552,-72.8663 630.9707,-79.6268"/>
</g>
<!-- Node12 -->
<g id="node13" class="node">
<title>Node12</title>
<polygon fill="none" stroke="#bfbfbf" points="714,-56.5 714,-75.5 758,-75.5 758,-56.5 714,-56.5"/>
<text text-anchor="middle" x="736" y="-63.5" font-family="Helvetica,sans-Serif" font-size="10.00" fill="#000000">string</text>
</g>
<!-- Node4&#45;&gt;Node12 -->
<g id="edge13" class="edge">
<title>Node4&#45;&gt;Node12</title>
<path fill="none" stroke="#191970" d="M492.2436,-113.9113C495.2013,-113.2463 498.1345,-112.6046 501,-112 588.005,-93.6414 613.8897,-97.8581 703.9466,-76.0006"/>
<polygon fill="#191970" stroke="#191970" points="704.8845,-79.3743 713.7544,-73.58 703.2071,-72.5782 704.8845,-79.3743"/>
</g>
<!-- Node13 -->
<g id="node14" class="node">
<title>Node13</title>
<polygon fill="none" stroke="#bfbfbf" points="776.5,-56.5 776.5,-75.5 823.5,-75.5 823.5,-56.5 776.5,-56.5"/>
<text text-anchor="middle" x="800" y="-63.5" font-family="Helvetica,sans-Serif" font-size="10.00" fill="#000000">vector</text>
</g>
<!-- Node4&#45;&gt;Node13 -->
<g id="edge14" class="edge">
<title>Node4&#45;&gt;Node13</title>
<path fill="none" stroke="#191970" d="M492.2156,-113.7717C495.1805,-113.1427 498.123,-112.547 501,-112 614.9959,-90.3268 648.6048,-100.7674 766.2052,-75.8546"/>
<polygon fill="#191970" stroke="#191970" points="767.2906,-79.201 776.3261,-73.6682 765.8125,-72.3588 767.2906,-79.201"/>
</g>
<!-- Node5&#45;&gt;Node3 -->
<g id="edge6" class="edge">
<title>Node5&#45;&gt;Node3</title>
<path fill="none" stroke="#191970" d="M232.1941,-56.2455C219.2744,-47.7337 200.3069,-35.2375 185.3448,-25.3801"/>
<polygon fill="#191970" stroke="#191970" points="186.9124,-22.2216 176.6362,-19.6427 183.0613,-28.067 186.9124,-22.2216"/>
</g>
</g>
</svg>
