<?xml version="1.0" encoding="UTF-8" standalone="no"?>
<!DOCTYPE svg PUBLIC "-//W3C//DTD SVG 1.1//EN"
 "http://www.w3.org/Graphics/SVG/1.1/DTD/svg11.dtd">
<!-- Generated by graphviz version 2.36.0 (20140111.2315)
 -->
<!-- Title: extlib/tlx/tlx/sort/strings.hpp Pages: 1 -->
<svg width="176pt" height="96pt"
 viewBox="0.00 0.00 176.00 96.00" xmlns="http://www.w3.org/2000/svg" xmlns:xlink="http://www.w3.org/1999/xlink">
<g id="graph0" class="graph" transform="scale(1 1) rotate(0) translate(4 92)">
<title>extlib/tlx/tlx/sort/strings.hpp</title>
<!-- Node1 -->
<g id="node1" class="node"><title>Node1</title>
<polygon fill="#bfbfbf" stroke="black" points="42,-57 42,-87 128,-87 128,-57 42,-57"/>
<text text-anchor="start" x="50" y="-75" font-family="Helvetica,sans-Serif" font-size="10.00">extlib/tlx/tlx/sort</text>
<text text-anchor="middle" x="85" y="-64" font-family="Helvetica,sans-Serif" font-size="10.00">/strings.hpp</text>
</g>
<!-- Node2 -->
<g id="node2" class="node"><title>Node2</title>
<polygon fill="none" stroke="#bfbfbf" points="0,-0.5 0,-19.5 46,-19.5 46,-0.5 0,-0.5"/>
<text text-anchor="middle" x="23" y="-7.5" font-family="Helvetica,sans-Serif" font-size="10.00">cstdint</text>
</g>
<!-- Node1&#45;&gt;Node2 -->
<g id="edge1" class="edge"><title>Node1&#45;&gt;Node2</title>
<path fill="none" stroke="midnightblue" d="M70.3069,-56.7808C61.0189,-47.7925 49.0007,-36.162 39.4022,-26.8731"/>
<polygon fill="midnightblue" stroke="midnightblue" points="41.6416,-24.1697 32.0215,-19.7305 36.7736,-29.1999 41.6416,-24.1697"/>
</g>
<!-- Node3 -->
<g id="node3" class="node"><title>Node3</title>
<polygon fill="none" stroke="#bfbfbf" points="64.5,-0.5 64.5,-19.5 105.5,-19.5 105.5,-0.5 64.5,-0.5"/>
<text text-anchor="middle" x="85" y="-7.5" font-family="Helvetica,sans-Serif" font-size="10.00">string</text>
</g>
<!-- Node1&#45;&gt;Node3 -->
<g id="edge2" class="edge"><title>Node1&#45;&gt;Node3</title>
<path fill="none" stroke="midnightblue" d="M85,-56.7808C85,-48.7812 85,-38.6887 85,-30.0168"/>
<polygon fill="midnightblue" stroke="midnightblue" points="88.5001,-29.7305 85,-19.7305 81.5001,-29.7306 88.5001,-29.7305"/>
</g>
<!-- Node4 -->
<g id="node4" class="node"><title>Node4</title>
<polygon fill="none" stroke="#bfbfbf" points="124,-0.5 124,-19.5 168,-19.5 168,-0.5 124,-0.5"/>
<text text-anchor="middle" x="146" y="-7.5" font-family="Helvetica,sans-Serif" font-size="10.00">vector</text>
</g>
<!-- Node1&#45;&gt;Node4 -->
<g id="edge3" class="edge"><title>Node1&#45;&gt;Node4</title>
<path fill="none" stroke="midnightblue" d="M99.4561,-56.7808C108.594,-47.7925 120.419,-36.162 129.862,-26.8731"/>
<polygon fill="midnightblue" stroke="midnightblue" points="132.449,-29.2382 137.124,-19.7305 127.54,-24.2477 132.449,-29.2382"/>
</g>
</g>
</svg>
