<?xml version="1.0" encoding="UTF-8" standalone="no"?>
<!DOCTYPE svg PUBLIC "-//W3C//DTD SVG 1.1//EN"
 "http://www.w3.org/Graphics/SVG/1.1/DTD/svg11.dtd">
<!-- Generated by graphviz version 2.36.0 (20140111.2315)
 -->
<!-- Title: extlib/tlx/tlx/sort/strings/string_set.hpp Pages: 1 -->
<svg width="383pt" height="456pt"
 viewBox="0.00 0.00 382.78 456.00" xmlns="http://www.w3.org/2000/svg" xmlns:xlink="http://www.w3.org/1999/xlink">
<g id="graph0" class="graph" transform="scale(1 1) rotate(0) translate(4 452)">
<title>extlib/tlx/tlx/sort/strings/string_set.hpp</title>
<!-- Node1 -->
<g id="node1" class="node"><title>Node1</title>
<polygon fill="#bfbfbf" stroke="black" points="93.5,-417 93.5,-447 206.5,-447 206.5,-417 93.5,-417"/>
<text text-anchor="start" x="101.5" y="-435" font-family="Helvetica,sans-Serif" font-size="10.00">extlib/tlx/tlx/sort</text>
<text text-anchor="middle" x="150" y="-424" font-family="Helvetica,sans-Serif" font-size="10.00">/strings/string_set.hpp</text>
</g>
<!-- Node2 -->
<g id="node2" class="node"><title>Node2</title>
<g id="a_node2"><a xlink:href="sample__sort__tools_8hpp.html" target="_top" xlink:title="extlib/tlx/tlx/sort\l/strings/sample_sort\l_tools.hpp">
<polygon fill="none" stroke="black" points="-0.5,-270.5 -0.5,-311.5 104.5,-311.5 104.5,-270.5 -0.5,-270.5"/>
<text text-anchor="start" x="7.5" y="-299.5" font-family="Helvetica,sans-Serif" font-size="10.00">extlib/tlx/tlx/sort</text>
<text text-anchor="start" x="7.5" y="-288.5" font-family="Helvetica,sans-Serif" font-size="10.00">/strings/sample_sort</text>
<text text-anchor="middle" x="52" y="-277.5" font-family="Helvetica,sans-Serif" font-size="10.00">_tools.hpp</text>
</a>
</g>
</g>
<!-- Node1&#45;&gt;Node2 -->
<g id="edge1" class="edge"><title>Node1&#45;&gt;Node2</title>
<path fill="none" stroke="midnightblue" d="M134.178,-408.559C115.317,-381.806 84.0857,-337.509 66.0443,-311.92"/>
<polygon fill="midnightblue" stroke="midnightblue" points="131.441,-410.751 140.064,-416.907 137.162,-406.717 131.441,-410.751"/>
</g>
<!-- Node6 -->
<g id="node6" class="node"><title>Node6</title>
<g id="a_node6"><a xlink:href="string__ptr_8hpp.html" target="_top" xlink:title="extlib/tlx/tlx/sort\l/strings/string_ptr.hpp">
<polygon fill="none" stroke="black" points="147.5,-349 147.5,-379 258.5,-379 258.5,-349 147.5,-349"/>
<text text-anchor="start" x="155.5" y="-367" font-family="Helvetica,sans-Serif" font-size="10.00">extlib/tlx/tlx/sort</text>
<text text-anchor="middle" x="203" y="-356" font-family="Helvetica,sans-Serif" font-size="10.00">/strings/string_ptr.hpp</text>
</a>
</g>
</g>
<!-- Node1&#45;&gt;Node6 -->
<g id="edge5" class="edge"><title>Node1&#45;&gt;Node6</title>
<path fill="none" stroke="midnightblue" d="M167.981,-408.608C175.767,-398.912 184.651,-387.85 191.522,-379.293"/>
<polygon fill="midnightblue" stroke="midnightblue" points="165.033,-406.69 161.5,-416.679 170.491,-411.073 165.033,-406.69"/>
</g>
<!-- Node3 -->
<g id="node3" class="node"><title>Node3</title>
<g id="a_node3"><a xlink:href="parallel__sample__sort_8hpp.html" target="_top" xlink:title="extlib/tlx/tlx/sort\l/strings/parallel_sample\l_sort.hpp">
<polygon fill="none" stroke="black" points="32.5,-192.5 32.5,-233.5 151.5,-233.5 151.5,-192.5 32.5,-192.5"/>
<text text-anchor="start" x="40.5" y="-221.5" font-family="Helvetica,sans-Serif" font-size="10.00">extlib/tlx/tlx/sort</text>
<text text-anchor="start" x="40.5" y="-210.5" font-family="Helvetica,sans-Serif" font-size="10.00">/strings/parallel_sample</text>
<text text-anchor="middle" x="92" y="-199.5" font-family="Helvetica,sans-Serif" font-size="10.00">_sort.hpp</text>
</a>
</g>
</g>
<!-- Node2&#45;&gt;Node3 -->
<g id="edge2" class="edge"><title>Node2&#45;&gt;Node3</title>
<path fill="none" stroke="midnightblue" d="M67.0179,-261.466C71.9249,-252.143 77.2593,-242.007 81.7339,-233.506"/>
<polygon fill="midnightblue" stroke="midnightblue" points="63.8613,-259.949 62.301,-270.428 70.0557,-263.209 63.8613,-259.949"/>
</g>
<!-- Node4 -->
<g id="node4" class="node"><title>Node4</title>
<g id="a_node4"><a xlink:href="strings__parallel_8hpp.html" target="_top" xlink:title="extlib/tlx/tlx/sort\l/strings_parallel.hpp">
<polygon fill="none" stroke="black" points="49,-57 49,-87 153,-87 153,-57 49,-57"/>
<text text-anchor="start" x="57" y="-75" font-family="Helvetica,sans-Serif" font-size="10.00">extlib/tlx/tlx/sort</text>
<text text-anchor="middle" x="101" y="-64" font-family="Helvetica,sans-Serif" font-size="10.00">/strings_parallel.hpp</text>
</a>
</g>
</g>
<!-- Node3&#45;&gt;Node4 -->
<g id="edge3" class="edge"><title>Node3&#45;&gt;Node4</title>
<path fill="none" stroke="midnightblue" d="M93.925,-182.27C95.827,-152.894 98.654,-109.232 100.091,-87.0427"/>
<polygon fill="midnightblue" stroke="midnightblue" points="90.4239,-182.174 93.2704,-192.38 97.4093,-182.627 90.4239,-182.174"/>
</g>
<!-- Node5 -->
<g id="node5" class="node"><title>Node5</title>
<g id="a_node5"><a xlink:href="extlib_2tlx_2tlx_2sort_8hpp.html" target="_top" xlink:title="extlib/tlx/tlx/sort.hpp">
<polygon fill="none" stroke="black" points="105.5,-0.5 105.5,-19.5 210.5,-19.5 210.5,-0.5 105.5,-0.5"/>
<text text-anchor="middle" x="158" y="-7.5" font-family="Helvetica,sans-Serif" font-size="10.00">extlib/tlx/tlx/sort.hpp</text>
</a>
</g>
</g>
<!-- Node4&#45;&gt;Node5 -->
<g id="edge4" class="edge"><title>Node4&#45;&gt;Node5</title>
<path fill="none" stroke="midnightblue" d="M121.594,-49.3217C131.309,-39.0958 142.354,-27.4692 149.706,-19.7305"/>
<polygon fill="midnightblue" stroke="midnightblue" points="118.858,-47.1202 114.508,-56.7808 123.933,-51.9415 118.858,-47.1202"/>
</g>
<!-- Node6&#45;&gt;Node3 -->
<g id="edge14" class="edge"><title>Node6&#45;&gt;Node3</title>
<path fill="none" stroke="midnightblue" d="M179.516,-341.79C170.419,-333.011 160.234,-322.45 152,-312 131.997,-286.616 113.283,-254.114 102.237,-233.668"/>
<polygon fill="midnightblue" stroke="midnightblue" points="177.163,-344.382 186.835,-348.704 181.97,-339.293 177.163,-344.382"/>
</g>
<!-- Node7 -->
<g id="node7" class="node"><title>Node7</title>
<g id="a_node7"><a xlink:href="insertion__sort_8hpp.html" target="_top" xlink:title="extlib/tlx/tlx/sort\l/strings/insertion_sort.hpp">
<polygon fill="none" stroke="black" points="161.5,-276 161.5,-306 290.5,-306 290.5,-276 161.5,-276"/>
<text text-anchor="start" x="169.5" y="-294" font-family="Helvetica,sans-Serif" font-size="10.00">extlib/tlx/tlx/sort</text>
<text text-anchor="middle" x="226" y="-283" font-family="Helvetica,sans-Serif" font-size="10.00">/strings/insertion_sort.hpp</text>
</a>
</g>
</g>
<!-- Node6&#45;&gt;Node7 -->
<g id="edge6" class="edge"><title>Node6&#45;&gt;Node7</title>
<path fill="none" stroke="midnightblue" d="M210.699,-339.234C214.212,-328.389 218.259,-315.898 221.307,-306.486"/>
<polygon fill="midnightblue" stroke="midnightblue" points="207.296,-338.381 207.544,-348.973 213.956,-340.538 207.296,-338.381"/>
</g>
<!-- Node9 -->
<g id="node9" class="node"><title>Node9</title>
<g id="a_node9"><a xlink:href="extlib_2tlx_2tlx_2sort_2strings_2radix__sort_8hpp.html" target="_top" xlink:title="extlib/tlx/tlx/sort\l/strings/radix_sort.hpp">
<polygon fill="none" stroke="black" points="246.5,-125 246.5,-155 359.5,-155 359.5,-125 246.5,-125"/>
<text text-anchor="start" x="254.5" y="-143" font-family="Helvetica,sans-Serif" font-size="10.00">extlib/tlx/tlx/sort</text>
<text text-anchor="middle" x="303" y="-132" font-family="Helvetica,sans-Serif" font-size="10.00">/strings/radix_sort.hpp</text>
</a>
</g>
</g>
<!-- Node6&#45;&gt;Node9 -->
<g id="edge15" class="edge"><title>Node6&#45;&gt;Node9</title>
<path fill="none" stroke="midnightblue" d="M247.884,-344.631C289.6,-324.607 348.311,-288.029 369,-234 375.675,-216.568 377.228,-208.756 369,-192 361.149,-176.012 345.607,-163.614 331.576,-155.048"/>
<polygon fill="midnightblue" stroke="midnightblue" points="246.323,-341.497 238.734,-348.891 249.277,-347.843 246.323,-341.497"/>
</g>
<!-- Node7&#45;&gt;Node3 -->
<g id="edge12" class="edge"><title>Node7&#45;&gt;Node3</title>
<path fill="none" stroke="midnightblue" d="M192.305,-270.889C172.24,-259.509 146.831,-245.098 126.607,-233.628"/>
<polygon fill="midnightblue" stroke="midnightblue" points="190.685,-273.994 201.11,-275.883 194.138,-267.905 190.685,-273.994"/>
</g>
<!-- Node8 -->
<g id="node8" class="node"><title>Node8</title>
<g id="a_node8"><a xlink:href="multikey__quicksort_8hpp.html" target="_top" xlink:title="extlib/tlx/tlx/sort\l/strings/multikey_quicksort.hpp">
<polygon fill="none" stroke="black" points="208,-198 208,-228 360,-228 360,-198 208,-198"/>
<text text-anchor="start" x="216" y="-216" font-family="Helvetica,sans-Serif" font-size="10.00">extlib/tlx/tlx/sort</text>
<text text-anchor="middle" x="284" y="-205" font-family="Helvetica,sans-Serif" font-size="10.00">/strings/multikey_quicksort.hpp</text>
</a>
</g>
</g>
<!-- Node7&#45;&gt;Node8 -->
<g id="edge7" class="edge"><title>Node7&#45;&gt;Node8</title>
<path fill="none" stroke="midnightblue" d="M243.216,-267.441C252.913,-254.735 264.728,-239.254 273.14,-228.231"/>
<polygon fill="midnightblue" stroke="midnightblue" points="240.194,-265.632 236.909,-275.705 245.758,-269.879 240.194,-265.632"/>
</g>
<!-- Node10 -->
<g id="node10" class="node"><title>Node10</title>
<g id="a_node10"><a xlink:href="strings_8hpp.html" target="_top" xlink:title="extlib/tlx/tlx/sort\l/strings.hpp">
<polygon fill="none" stroke="black" points="173,-57 173,-87 259,-87 259,-57 173,-57"/>
<text text-anchor="start" x="181" y="-75" font-family="Helvetica,sans-Serif" font-size="10.00">extlib/tlx/tlx/sort</text>
<text text-anchor="middle" x="216" y="-64" font-family="Helvetica,sans-Serif" font-size="10.00">/strings.hpp</text>
</a>
</g>
</g>
<!-- Node7&#45;&gt;Node10 -->
<g id="edge13" class="edge"><title>Node7&#45;&gt;Node10</title>
<path fill="none" stroke="midnightblue" d="M212.126,-267.19C206.916,-257.351 201.624,-245.482 199,-234 186.854,-180.843 202.88,-115.793 211.354,-87.4023"/>
<polygon fill="midnightblue" stroke="midnightblue" points="209.073,-268.901 217.006,-275.923 215.183,-265.486 209.073,-268.901"/>
</g>
<!-- Node8&#45;&gt;Node9 -->
<g id="edge8" class="edge"><title>Node8&#45;&gt;Node9</title>
<path fill="none" stroke="midnightblue" d="M290.36,-188.234C293.262,-177.389 296.605,-164.898 299.124,-155.486"/>
<polygon fill="midnightblue" stroke="midnightblue" points="286.958,-187.408 287.754,-197.973 293.72,-189.217 286.958,-187.408"/>
</g>
<!-- Node8&#45;&gt;Node10 -->
<g id="edge11" class="edge"><title>Node8&#45;&gt;Node10</title>
<path fill="none" stroke="midnightblue" d="M261.895,-190.385C253.015,-180.619 243.388,-168.482 237,-156 225.488,-133.506 220.005,-104.286 217.62,-87.1917"/>
<polygon fill="midnightblue" stroke="midnightblue" points="259.369,-192.807 268.782,-197.67 264.456,-187.998 259.369,-192.807"/>
</g>
<!-- Node9&#45;&gt;Node10 -->
<g id="edge9" class="edge"><title>Node9&#45;&gt;Node10</title>
<path fill="none" stroke="midnightblue" d="M276.108,-118.599C262.626,-108.371 246.638,-96.2428 234.542,-87.0663"/>
<polygon fill="midnightblue" stroke="midnightblue" points="274.04,-121.424 284.122,-124.679 278.271,-115.847 274.04,-121.424"/>
</g>
<!-- Node10&#45;&gt;Node5 -->
<g id="edge10" class="edge"><title>Node10&#45;&gt;Node5</title>
<path fill="none" stroke="midnightblue" d="M195.044,-49.3217C185.159,-39.0958 173.92,-27.4692 166.44,-19.7305"/>
<polygon fill="midnightblue" stroke="midnightblue" points="192.788,-52.0235 202.255,-56.7808 197.821,-47.1583 192.788,-52.0235"/>
</g>
</g>
</svg>
