<?xml version="1.0" encoding="UTF-8" standalone="no"?>
<!DOCTYPE svg PUBLIC "-//W3C//DTD SVG 1.1//EN"
 "http://www.w3.org/Graphics/SVG/1.1/DTD/svg11.dtd">
<!-- Generated by graphviz version 2.36.0 (20140111.2315)
 -->
<!-- Title: extlib/tlx/tlx/sort/strings3.cpp Pages: 1 -->
<svg width="713pt" height="424pt"
 viewBox="0.00 0.00 712.88 424.00" xmlns="http://www.w3.org/2000/svg" xmlns:xlink="http://www.w3.org/1999/xlink">
<g id="graph0" class="graph" transform="scale(1 1) rotate(0) translate(4 420)">
<title>extlib/tlx/tlx/sort/strings3.cpp</title>
<!-- Node1 -->
<g id="node1" class="node"><title>Node1</title>
<polygon fill="#bfbfbf" stroke="black" points="240.875,-385 240.875,-415 326.875,-415 326.875,-385 240.875,-385"/>
<text text-anchor="start" x="248.875" y="-403" font-family="Helvetica,sans-Serif" font-size="10.00">extlib/tlx/tlx/sort</text>
<text text-anchor="middle" x="283.875" y="-392" font-family="Helvetica,sans-Serif" font-size="10.00">/strings3.cpp</text>
</g>
<!-- Node2 -->
<g id="node2" class="node"><title>Node2</title>
<g id="a_node2"><a xlink:href="strings_8hpp.html" target="_top" xlink:title="tlx/sort/strings.hpp">
<polygon fill="none" stroke="black" points="133.875,-56.5 133.875,-75.5 231.875,-75.5 231.875,-56.5 133.875,-56.5"/>
<text text-anchor="middle" x="182.875" y="-63.5" font-family="Helvetica,sans-Serif" font-size="10.00">tlx/sort/strings.hpp</text>
</a>
</g>
</g>
<!-- Node1&#45;&gt;Node2 -->
<g id="edge1" class="edge"><title>Node1&#45;&gt;Node2</title>
<path fill="none" stroke="midnightblue" d="M261.864,-384.829C231.075,-363.083 178.875,-318.347 178.875,-265 178.875,-265 178.875,-265 178.875,-195 178.875,-156.229 180.731,-110.885 181.915,-85.9131"/>
<polygon fill="midnightblue" stroke="midnightblue" points="185.422,-85.8479 182.417,-75.6884 178.431,-85.5048 185.422,-85.8479"/>
</g>
<!-- Node6 -->
<g id="node6" class="node"><title>Node6</title>
<g id="a_node6"><a xlink:href="insertion__sort_8hpp.html" target="_top" xlink:title="tlx/sort/strings/insertion\l_sort.hpp">
<polygon fill="none" stroke="black" points="207.375,-181 207.375,-211 326.375,-211 326.375,-181 207.375,-181"/>
<text text-anchor="start" x="215.375" y="-199" font-family="Helvetica,sans-Serif" font-size="10.00">tlx/sort/strings/insertion</text>
<text text-anchor="middle" x="266.875" y="-188" font-family="Helvetica,sans-Serif" font-size="10.00">_sort.hpp</text>
</a>
</g>
</g>
<!-- Node1&#45;&gt;Node6 -->
<g id="edge5" class="edge"><title>Node1&#45;&gt;Node6</title>
<path fill="none" stroke="midnightblue" d="M282.248,-384.729C279.746,-362.411 274.925,-317.876 271.875,-280 270.294,-260.359 268.978,-238.066 268.093,-221.533"/>
<polygon fill="midnightblue" stroke="midnightblue" points="271.566,-220.916 267.552,-211.111 264.575,-221.279 271.566,-220.916"/>
</g>
<!-- Node15 -->
<g id="node15" class="node"><title>Node15</title>
<g id="a_node15"><a xlink:href="multikey__quicksort_8hpp.html" target="_top" xlink:title="tlx/sort/strings/multikey\l_quicksort.hpp">
<polygon fill="none" stroke="black" points="281.375,-249 281.375,-279 400.375,-279 400.375,-249 281.375,-249"/>
<text text-anchor="start" x="289.375" y="-267" font-family="Helvetica,sans-Serif" font-size="10.00">tlx/sort/strings/multikey</text>
<text text-anchor="middle" x="340.875" y="-256" font-family="Helvetica,sans-Serif" font-size="10.00">_quicksort.hpp</text>
</a>
</g>
</g>
<!-- Node1&#45;&gt;Node15 -->
<g id="edge19" class="edge"><title>Node1&#45;&gt;Node15</title>
<path fill="none" stroke="midnightblue" d="M289.975,-384.66C299.746,-361.689 319.007,-316.411 330.831,-288.614"/>
<polygon fill="midnightblue" stroke="midnightblue" points="334.126,-289.809 334.819,-279.237 327.684,-287.069 334.126,-289.809"/>
</g>
<!-- Node18 -->
<g id="node18" class="node"><title>Node18</title>
<g id="a_node18"><a xlink:href="extlib_2tlx_2tlx_2sort_2strings_2radix__sort_8hpp.html" target="_top" xlink:title="tlx/sort/strings/radix\l_sort.hpp">
<polygon fill="none" stroke="black" points="422.375,-317 422.375,-347 525.375,-347 525.375,-317 422.375,-317"/>
<text text-anchor="start" x="430.375" y="-335" font-family="Helvetica,sans-Serif" font-size="10.00">tlx/sort/strings/radix</text>
<text text-anchor="middle" x="473.875" y="-324" font-family="Helvetica,sans-Serif" font-size="10.00">_sort.hpp</text>
</a>
</g>
</g>
<!-- Node1&#45;&gt;Node18 -->
<g id="edge23" class="edge"><title>Node1&#45;&gt;Node18</title>
<path fill="none" stroke="midnightblue" d="M324.635,-384.841C353.661,-374.759 392.845,-361.147 423.779,-350.402"/>
<polygon fill="midnightblue" stroke="midnightblue" points="425.212,-353.609 433.51,-347.022 422.915,-346.997 425.212,-353.609"/>
</g>
<!-- Node3 -->
<g id="node3" class="node"><title>Node3</title>
<polygon fill="none" stroke="#bfbfbf" points="41.8754,-0.5 41.8754,-19.5 87.8754,-19.5 87.8754,-0.5 41.8754,-0.5"/>
<text text-anchor="middle" x="64.8754" y="-7.5" font-family="Helvetica,sans-Serif" font-size="10.00">cstdint</text>
</g>
<!-- Node2&#45;&gt;Node3 -->
<g id="edge2" class="edge"><title>Node2&#45;&gt;Node3</title>
<path fill="none" stroke="midnightblue" d="M164.178,-56.4435C144.931,-47.6356 114.723,-33.8116 92.6752,-23.722"/>
<polygon fill="midnightblue" stroke="midnightblue" points="94.0349,-20.4951 83.4854,-19.5164 91.122,-26.8603 94.0349,-20.4951"/>
</g>
<!-- Node4 -->
<g id="node4" class="node"><title>Node4</title>
<polygon fill="none" stroke="#bfbfbf" points="191.375,-0.5 191.375,-19.5 232.375,-19.5 232.375,-0.5 191.375,-0.5"/>
<text text-anchor="middle" x="211.875" y="-7.5" font-family="Helvetica,sans-Serif" font-size="10.00">string</text>
</g>
<!-- Node2&#45;&gt;Node4 -->
<g id="edge3" class="edge"><title>Node2&#45;&gt;Node4</title>
<path fill="none" stroke="midnightblue" d="M187.664,-56.083C191.634,-48.6913 197.4,-37.9533 202.31,-28.8111"/>
<polygon fill="midnightblue" stroke="midnightblue" points="205.528,-30.217 207.176,-19.7511 199.361,-26.9051 205.528,-30.217"/>
</g>
<!-- Node5 -->
<g id="node5" class="node"><title>Node5</title>
<polygon fill="none" stroke="#bfbfbf" points="279.875,-0.5 279.875,-19.5 323.875,-19.5 323.875,-0.5 279.875,-0.5"/>
<text text-anchor="middle" x="301.875" y="-7.5" font-family="Helvetica,sans-Serif" font-size="10.00">vector</text>
</g>
<!-- Node2&#45;&gt;Node5 -->
<g id="edge4" class="edge"><title>Node2&#45;&gt;Node5</title>
<path fill="none" stroke="midnightblue" d="M201.731,-56.4435C221.141,-47.6356 251.605,-33.8116 273.84,-23.722"/>
<polygon fill="midnightblue" stroke="midnightblue" points="275.448,-26.836 283.108,-19.5164 272.555,-20.4615 275.448,-26.836"/>
</g>
<!-- Node7 -->
<g id="node7" class="node"><title>Node7</title>
<g id="a_node7"><a xlink:href="likely_8hpp.html" target="_top" xlink:title="tlx/define/likely.hpp">
<polygon fill="none" stroke="black" points="573.375,-118.5 573.375,-137.5 674.375,-137.5 674.375,-118.5 573.375,-118.5"/>
<text text-anchor="middle" x="623.875" y="-125.5" font-family="Helvetica,sans-Serif" font-size="10.00">tlx/define/likely.hpp</text>
</a>
</g>
</g>
<!-- Node6&#45;&gt;Node7 -->
<g id="edge6" class="edge"><title>Node6&#45;&gt;Node7</title>
<path fill="none" stroke="midnightblue" d="M326.549,-181.686C329.362,-181.106 332.148,-180.541 334.875,-180 413.488,-164.4 504.61,-148.715 563.185,-138.94"/>
<polygon fill="midnightblue" stroke="midnightblue" points="564.085,-142.339 573.374,-137.244 562.935,-135.434 564.085,-142.339"/>
</g>
<!-- Node8 -->
<g id="node8" class="node"><title>Node8</title>
<g id="a_node8"><a xlink:href="string__set_8hpp.html" target="_top" xlink:title="tlx/sort/strings/string\l_set.hpp">
<polygon fill="none" stroke="black" points="254.875,-113 254.875,-143 360.875,-143 360.875,-113 254.875,-113"/>
<text text-anchor="start" x="262.875" y="-131" font-family="Helvetica,sans-Serif" font-size="10.00">tlx/sort/strings/string</text>
<text text-anchor="middle" x="307.875" y="-120" font-family="Helvetica,sans-Serif" font-size="10.00">_set.hpp</text>
</a>
</g>
</g>
<!-- Node6&#45;&gt;Node8 -->
<g id="edge7" class="edge"><title>Node6&#45;&gt;Node8</title>
<path fill="none" stroke="midnightblue" d="M275.772,-180.679C280.983,-172.29 287.687,-161.499 293.619,-151.949"/>
<polygon fill="midnightblue" stroke="midnightblue" points="296.693,-153.634 298.996,-143.293 290.746,-149.941 296.693,-153.634"/>
</g>
<!-- Node8&#45;&gt;Node3 -->
<g id="edge9" class="edge"><title>Node8&#45;&gt;Node3</title>
<path fill="none" stroke="midnightblue" d="M254.739,-125.982C176.529,-123.233 36.2658,-113.115 4.87538,-76 -10.6397,-57.6552 15.2158,-37.457 37.6719,-24.5217"/>
<polygon fill="midnightblue" stroke="midnightblue" points="39.5508,-27.4834 46.6431,-19.6126 36.1904,-21.3427 39.5508,-27.4834"/>
</g>
<!-- Node9 -->
<g id="node9" class="node"><title>Node9</title>
<polygon fill="none" stroke="#bfbfbf" points="249.375,-56.5 249.375,-75.5 298.375,-75.5 298.375,-56.5 249.375,-56.5"/>
<text text-anchor="middle" x="273.875" y="-63.5" font-family="Helvetica,sans-Serif" font-size="10.00">cassert</text>
</g>
<!-- Node8&#45;&gt;Node9 -->
<g id="edge8" class="edge"><title>Node8&#45;&gt;Node9</title>
<path fill="none" stroke="midnightblue" d="M299.818,-112.781C295.03,-104.332 288.919,-93.5481 283.831,-84.5693"/>
<polygon fill="midnightblue" stroke="midnightblue" points="286.798,-82.7052 278.823,-75.7305 280.708,-86.1563 286.798,-82.7052"/>
</g>
<!-- Node10 -->
<g id="node10" class="node"><title>Node10</title>
<polygon fill="none" stroke="#bfbfbf" points="316.875,-56.5 316.875,-75.5 368.875,-75.5 368.875,-56.5 316.875,-56.5"/>
<text text-anchor="middle" x="342.875" y="-63.5" font-family="Helvetica,sans-Serif" font-size="10.00">memory</text>
</g>
<!-- Node8&#45;&gt;Node10 -->
<g id="edge10" class="edge"><title>Node8&#45;&gt;Node10</title>
<path fill="none" stroke="midnightblue" d="M316.17,-112.781C321.099,-104.332 327.389,-93.5481 332.627,-84.5693"/>
<polygon fill="midnightblue" stroke="midnightblue" points="335.767,-86.1319 337.783,-75.7305 329.721,-82.6048 335.767,-86.1319"/>
</g>
<!-- Node11 -->
<g id="node11" class="node"><title>Node11</title>
<polygon fill="none" stroke="#bfbfbf" points="470.875,-0.5 470.875,-19.5 510.875,-19.5 510.875,-0.5 470.875,-0.5"/>
<text text-anchor="middle" x="490.875" y="-7.5" font-family="Helvetica,sans-Serif" font-size="10.00">utility</text>
</g>
<!-- Node8&#45;&gt;Node11 -->
<g id="edge11" class="edge"><title>Node8&#45;&gt;Node11</title>
<path fill="none" stroke="midnightblue" d="M361.06,-123.027C396.572,-117.647 441.905,-105.108 470.875,-76 482.968,-63.8501 487.777,-44.5745 489.675,-30.1638"/>
<polygon fill="midnightblue" stroke="midnightblue" points="493.19,-30.1659 490.656,-19.8787 486.222,-29.501 493.19,-30.1659"/>
</g>
<!-- Node12 -->
<g id="node12" class="node"><title>Node12</title>
<g id="a_node12"><a xlink:href="extlib_2tlx_2tlx_2logger_8hpp.html" target="_top" xlink:title="tlx/logger.hpp">
<polygon fill="none" stroke="black" points="387.375,-56.5 387.375,-75.5 462.375,-75.5 462.375,-56.5 387.375,-56.5"/>
<text text-anchor="middle" x="424.875" y="-63.5" font-family="Helvetica,sans-Serif" font-size="10.00">tlx/logger.hpp</text>
</a>
</g>
</g>
<!-- Node8&#45;&gt;Node12 -->
<g id="edge12" class="edge"><title>Node8&#45;&gt;Node12</title>
<path fill="none" stroke="midnightblue" d="M335.307,-112.933C354.605,-103.036 380.259,-89.8803 399.164,-80.1852"/>
<polygon fill="midnightblue" stroke="midnightblue" points="400.804,-83.2776 408.105,-75.6 397.61,-77.0489 400.804,-83.2776"/>
</g>
<!-- Node14 -->
<g id="node14" class="node"><title>Node14</title>
<g id="a_node14"><a xlink:href="bswap_8hpp.html" target="_top" xlink:title="tlx/math/bswap.hpp">
<polygon fill="none" stroke="black" points="13.8754,-56.5 13.8754,-75.5 115.875,-75.5 115.875,-56.5 13.8754,-56.5"/>
<text text-anchor="middle" x="64.8754" y="-63.5" font-family="Helvetica,sans-Serif" font-size="10.00">tlx/math/bswap.hpp</text>
</a>
</g>
</g>
<!-- Node8&#45;&gt;Node14 -->
<g id="edge17" class="edge"><title>Node8&#45;&gt;Node14</title>
<path fill="none" stroke="midnightblue" d="M254.848,-113.907C211.242,-103.14 150.165,-88.0593 109.146,-77.9311"/>
<polygon fill="midnightblue" stroke="midnightblue" points="109.978,-74.5313 99.4303,-75.5321 108.3,-81.3272 109.978,-74.5313"/>
</g>
<!-- Node12&#45;&gt;Node4 -->
<g id="edge14" class="edge"><title>Node12&#45;&gt;Node4</title>
<path fill="none" stroke="midnightblue" d="M391.125,-56.4435C350.206,-46.0696 281.84,-28.7375 242.42,-18.7438"/>
<polygon fill="midnightblue" stroke="midnightblue" points="243.14,-15.3155 232.586,-16.2506 241.419,-22.1009 243.14,-15.3155"/>
</g>
<!-- Node12&#45;&gt;Node5 -->
<g id="edge16" class="edge"><title>Node12&#45;&gt;Node5</title>
<path fill="none" stroke="midnightblue" d="M405.386,-56.4435C385.233,-47.5961 353.552,-33.6875 330.545,-23.5865"/>
<polygon fill="midnightblue" stroke="midnightblue" points="331.837,-20.3316 321.274,-19.5164 329.023,-26.7411 331.837,-20.3316"/>
</g>
<!-- Node12&#45;&gt;Node11 -->
<g id="edge15" class="edge"><title>Node12&#45;&gt;Node11</title>
<path fill="none" stroke="midnightblue" d="M435.479,-56.324C445.332,-48.2631 460.226,-36.0765 472.09,-26.3695"/>
<polygon fill="midnightblue" stroke="midnightblue" points="474.555,-28.8752 480.078,-19.8339 470.122,-23.4575 474.555,-28.8752"/>
</g>
<!-- Node13 -->
<g id="node13" class="node"><title>Node13</title>
<polygon fill="none" stroke="#bfbfbf" points="398.875,-0.5 398.875,-19.5 450.875,-19.5 450.875,-0.5 398.875,-0.5"/>
<text text-anchor="middle" x="424.875" y="-7.5" font-family="Helvetica,sans-Serif" font-size="10.00">sstream</text>
</g>
<!-- Node12&#45;&gt;Node13 -->
<g id="edge13" class="edge"><title>Node12&#45;&gt;Node13</title>
<path fill="none" stroke="midnightblue" d="M424.875,-56.083C424.875,-49.0059 424.875,-38.8611 424.875,-29.9865"/>
<polygon fill="midnightblue" stroke="midnightblue" points="428.375,-29.751 424.875,-19.7511 421.375,-29.7511 428.375,-29.751"/>
</g>
<!-- Node14&#45;&gt;Node3 -->
<g id="edge18" class="edge"><title>Node14&#45;&gt;Node3</title>
<path fill="none" stroke="midnightblue" d="M64.8754,-56.083C64.8754,-49.0059 64.8754,-38.8611 64.8754,-29.9865"/>
<polygon fill="midnightblue" stroke="midnightblue" points="68.3755,-29.751 64.8754,-19.7511 61.3755,-29.7511 68.3755,-29.751"/>
</g>
<!-- Node15&#45;&gt;Node6 -->
<g id="edge20" class="edge"><title>Node15&#45;&gt;Node6</title>
<path fill="none" stroke="midnightblue" d="M324.818,-248.679C314.762,-239.71 301.628,-227.996 290.407,-217.988"/>
<polygon fill="midnightblue" stroke="midnightblue" points="292.439,-215.11 282.647,-211.066 287.78,-220.335 292.439,-215.11"/>
</g>
<!-- Node16 -->
<g id="node16" class="node"><title>Node16</title>
<polygon fill="none" stroke="#bfbfbf" points="449.875,-186.5 449.875,-205.5 505.875,-205.5 505.875,-186.5 449.875,-186.5"/>
<text text-anchor="middle" x="477.875" y="-193.5" font-family="Helvetica,sans-Serif" font-size="10.00">algorithm</text>
</g>
<!-- Node15&#45;&gt;Node16 -->
<g id="edge21" class="edge"><title>Node15&#45;&gt;Node16</title>
<path fill="none" stroke="midnightblue" d="M370.265,-248.841C394.069,-237.374 427.347,-221.342 450.573,-210.153"/>
<polygon fill="midnightblue" stroke="midnightblue" points="452.364,-213.175 459.854,-205.682 449.326,-206.869 452.364,-213.175"/>
</g>
<!-- Node17 -->
<g id="node17" class="node"><title>Node17</title>
<polygon fill="none" stroke="#bfbfbf" points="344.375,-186.5 344.375,-205.5 393.375,-205.5 393.375,-186.5 344.375,-186.5"/>
<text text-anchor="middle" x="368.875" y="-193.5" font-family="Helvetica,sans-Serif" font-size="10.00">cstddef</text>
</g>
<!-- Node15&#45;&gt;Node17 -->
<g id="edge22" class="edge"><title>Node15&#45;&gt;Node17</title>
<path fill="none" stroke="midnightblue" d="M346.951,-248.679C351.101,-238.898 356.635,-225.852 361.105,-215.315"/>
<polygon fill="midnightblue" stroke="midnightblue" points="364.447,-216.401 365.13,-205.828 358.002,-213.667 364.447,-216.401"/>
</g>
<!-- Node18&#45;&gt;Node7 -->
<g id="edge24" class="edge"><title>Node18&#45;&gt;Node7</title>
<path fill="none" stroke="midnightblue" d="M522.156,-316.951C543.184,-308.884 566.859,-296.92 583.875,-280 620.015,-244.066 624.651,-179.521 624.561,-147.733"/>
<polygon fill="midnightblue" stroke="midnightblue" points="628.058,-147.547 624.363,-137.617 621.059,-147.683 628.058,-147.547"/>
</g>
<!-- Node18&#45;&gt;Node8 -->
<g id="edge30" class="edge"><title>Node18&#45;&gt;Node8</title>
<path fill="none" stroke="midnightblue" d="M468.312,-316.518C455.223,-282.991 422.069,-201.276 401.875,-180 389.054,-166.491 371.847,-155.739 355.661,-147.656"/>
<polygon fill="midnightblue" stroke="midnightblue" points="356.824,-144.334 346.289,-143.205 353.821,-150.657 356.824,-144.334"/>
</g>
<!-- Node18&#45;&gt;Node15 -->
<g id="edge29" class="edge"><title>Node18&#45;&gt;Node15</title>
<path fill="none" stroke="midnightblue" d="M445.344,-316.841C425.796,-307.141 399.666,-294.174 378.429,-283.636"/>
<polygon fill="midnightblue" stroke="midnightblue" points="379.874,-280.445 369.36,-279.135 376.762,-286.716 379.874,-280.445"/>
</g>
<!-- Node19 -->
<g id="node19" class="node"><title>Node19</title>
<g id="a_node19"><a xlink:href="simple__vector_8hpp.html" target="_top" xlink:title="tlx/simple_vector.hpp">
<polygon fill="none" stroke="black" points="464.875,-254.5 464.875,-273.5 574.875,-273.5 574.875,-254.5 464.875,-254.5"/>
<text text-anchor="middle" x="519.875" y="-261.5" font-family="Helvetica,sans-Serif" font-size="10.00">tlx/simple_vector.hpp</text>
</a>
</g>
</g>
<!-- Node18&#45;&gt;Node19 -->
<g id="edge25" class="edge"><title>Node18&#45;&gt;Node19</title>
<path fill="none" stroke="midnightblue" d="M483.857,-316.679C490.887,-306.592 500.337,-293.033 507.794,-282.335"/>
<polygon fill="midnightblue" stroke="midnightblue" points="510.876,-284.034 513.722,-273.828 505.133,-280.031 510.876,-284.034"/>
</g>
<!-- Node21 -->
<g id="node21" class="node"><title>Node21</title>
<polygon fill="none" stroke="#bfbfbf" points="664.375,-254.5 664.375,-273.5 705.375,-273.5 705.375,-254.5 664.375,-254.5"/>
<text text-anchor="middle" x="684.875" y="-261.5" font-family="Helvetica,sans-Serif" font-size="10.00">stack</text>
</g>
<!-- Node18&#45;&gt;Node21 -->
<g id="edge31" class="edge"><title>Node18&#45;&gt;Node21</title>
<path fill="none" stroke="midnightblue" d="M525.621,-317.802C560.971,-308.35 608.688,-294.73 649.875,-280 652.134,-279.192 654.455,-278.312 656.776,-277.397"/>
<polygon fill="midnightblue" stroke="midnightblue" points="658.245,-280.577 666.153,-273.526 655.574,-274.106 658.245,-280.577"/>
</g>
<!-- Node19&#45;&gt;Node11 -->
<g id="edge28" class="edge"><title>Node19&#45;&gt;Node11</title>
<path fill="none" stroke="midnightblue" d="M519.425,-254.261C518.605,-239.114 516.687,-207.015 513.875,-180 508.194,-125.419 498.685,-61.296 493.867,-30.0503"/>
<polygon fill="midnightblue" stroke="midnightblue" points="497.264,-29.1163 492.269,-19.7733 490.348,-30.1925 497.264,-29.1163"/>
</g>
<!-- Node19&#45;&gt;Node16 -->
<g id="edge26" class="edge"><title>Node19&#45;&gt;Node16</title>
<path fill="none" stroke="midnightblue" d="M514.385,-254.372C507.943,-244.25 497.103,-227.215 488.904,-214.331"/>
<polygon fill="midnightblue" stroke="midnightblue" points="491.823,-212.399 483.502,-205.841 485.918,-216.157 491.823,-212.399"/>
</g>
<!-- Node20 -->
<g id="node20" class="node"><title>Node20</title>
<polygon fill="none" stroke="#bfbfbf" points="562.375,-186.5 562.375,-205.5 607.375,-205.5 607.375,-186.5 562.375,-186.5"/>
<text text-anchor="middle" x="584.875" y="-193.5" font-family="Helvetica,sans-Serif" font-size="10.00">cstdlib</text>
</g>
<!-- Node19&#45;&gt;Node20 -->
<g id="edge27" class="edge"><title>Node19&#45;&gt;Node20</title>
<path fill="none" stroke="midnightblue" d="M528.373,-254.372C538.632,-243.955 556.101,-226.217 568.905,-213.216"/>
<polygon fill="midnightblue" stroke="midnightblue" points="571.645,-215.422 576.168,-205.841 566.658,-210.51 571.645,-215.422"/>
</g>
</g>
</svg>
