<?xml version="1.0" encoding="UTF-8" standalone="no"?>
<!DOCTYPE svg PUBLIC "-//W3C//DTD SVG 1.1//EN"
 "http://www.w3.org/Graphics/SVG/1.1/DTD/svg11.dtd">
<!-- Generated by graphviz version 2.26.3 (20100126.1600)
 -->
<!-- Title: thrill/common/string_view.hpp Pages: 1 -->
<svg width="532pt" height="188pt"
 viewBox="0.00 0.00 532.00 188.00" xmlns="http://www.w3.org/2000/svg" xmlns:xlink="http://www.w3.org/1999/xlink">
<g id="graph1" class="graph" transform="scale(1 1) rotate(0) translate(4 184)">
<title>thrill/common/string_view.hpp</title>
<!-- Node1 -->
<g id="node1" class="node"><title>Node1</title>
<polygon fill="#bfbfbf" stroke="black" points="192,-145 192,-179 294,-179 294,-145 192,-145"/>
<text text-anchor="start" x="200" y="-166" font-family="Helvetica,sans-Serif" font-size="10.00">thrill/common/string</text>
<text text-anchor="middle" x="243" y="-153" font-family="Helvetica,sans-Serif" font-size="10.00">_view.hpp</text>
</g>
<!-- Node2 -->
<g id="node3" class="node"><title>Node2</title>
<a xlink:href="linux__proc__stats_8cpp.html" target="_top" xlink:title="thrill/common/linux\l_proc_stats.cpp">
<polygon fill="none" stroke="black" points="0,-73 0,-107 98,-107 98,-73 0,-73"/>
<text text-anchor="start" x="8" y="-94" font-family="Helvetica,sans-Serif" font-size="10.00">thrill/common/linux</text>
<text text-anchor="middle" x="49" y="-81" font-family="Helvetica,sans-Serif" font-size="10.00">_proc_stats.cpp</text>
</a>
</g>
<!-- Node1&#45;&gt;Node2 -->
<g id="edge2" class="edge"><title>Node1&#45;&gt;Node2</title>
<path fill="none" stroke="midnightblue" d="M187.359,-141.35C158.101,-130.491 122.666,-117.34 94.9811,-107.065"/>
<polygon fill="midnightblue" stroke="midnightblue" points="186.432,-144.739 197.025,-144.937 188.867,-138.176 186.432,-144.739"/>
</g>
<!-- Node3 -->
<g id="node5" class="node"><title>Node3</title>
<a xlink:href="word__count_8hpp.html" target="_top" xlink:title="examples/word_count\l/word_count.hpp">
<polygon fill="none" stroke="black" points="116,-73 116,-107 228,-107 228,-73 116,-73"/>
<text text-anchor="start" x="124" y="-94" font-family="Helvetica,sans-Serif" font-size="10.00">examples/word_count</text>
<text text-anchor="middle" x="172" y="-81" font-family="Helvetica,sans-Serif" font-size="10.00">/word_count.hpp</text>
</a>
</g>
<!-- Node1&#45;&gt;Node3 -->
<g id="edge4" class="edge"><title>Node1&#45;&gt;Node3</title>
<path fill="none" stroke="midnightblue" d="M219.008,-137.671C209.231,-127.755 198.147,-116.515 189.198,-107.441"/>
<polygon fill="midnightblue" stroke="midnightblue" points="216.66,-140.274 226.174,-144.937 221.645,-135.359 216.66,-140.274"/>
</g>
<!-- Node5 -->
<g id="node9" class="node"><title>Node5</title>
<a xlink:href="word__count__sequential_8cpp.html" target="_top" xlink:title="examples/word_count\l/word_count_sequential.cpp">
<polygon fill="none" stroke="black" points="246,-73 246,-107 384,-107 384,-73 246,-73"/>
<text text-anchor="start" x="254" y="-94" font-family="Helvetica,sans-Serif" font-size="10.00">examples/word_count</text>
<text text-anchor="middle" x="315" y="-81" font-family="Helvetica,sans-Serif" font-size="10.00">/word_count_sequential.cpp</text>
</a>
</g>
<!-- Node1&#45;&gt;Node5 -->
<g id="edge8" class="edge"><title>Node1&#45;&gt;Node5</title>
<path fill="none" stroke="midnightblue" d="M267.329,-137.671C277.245,-127.755 288.485,-116.515 297.559,-107.441"/>
<polygon fill="midnightblue" stroke="midnightblue" points="264.659,-135.391 260.063,-144.937 269.609,-140.341 264.659,-135.391"/>
</g>
<!-- Node6 -->
<g id="node11" class="node"><title>Node6</title>
<a xlink:href="word__count__simple_8cpp.html" target="_top" xlink:title="examples/word_count\l/word_count_simple.cpp">
<polygon fill="none" stroke="black" points="402,-73 402,-107 524,-107 524,-73 402,-73"/>
<text text-anchor="start" x="410" y="-94" font-family="Helvetica,sans-Serif" font-size="10.00">examples/word_count</text>
<text text-anchor="middle" x="463" y="-81" font-family="Helvetica,sans-Serif" font-size="10.00">/word_count_simple.cpp</text>
</a>
</g>
<!-- Node1&#45;&gt;Node6 -->
<g id="edge10" class="edge"><title>Node1&#45;&gt;Node6</title>
<path fill="none" stroke="midnightblue" d="M303.726,-142.126C337.301,-131.138 378.596,-117.623 410.724,-107.109"/>
<polygon fill="midnightblue" stroke="midnightblue" points="302.441,-138.864 294.025,-145.301 304.618,-145.517 302.441,-138.864"/>
</g>
<!-- Node4 -->
<g id="node7" class="node"><title>Node4</title>
<a xlink:href="word__count__run_8cpp.html" target="_top" xlink:title="examples/word_count\l/word_count_run.cpp">
<polygon fill="none" stroke="black" points="116,-1 116,-35 228,-35 228,-1 116,-1"/>
<text text-anchor="start" x="124" y="-22" font-family="Helvetica,sans-Serif" font-size="10.00">examples/word_count</text>
<text text-anchor="middle" x="172" y="-9" font-family="Helvetica,sans-Serif" font-size="10.00">/word_count_run.cpp</text>
</a>
</g>
<!-- Node3&#45;&gt;Node4 -->
<g id="edge6" class="edge"><title>Node3&#45;&gt;Node4</title>
<path fill="none" stroke="midnightblue" d="M172,-62.7193C172,-53.572 172,-43.6255 172,-35.4407"/>
<polygon fill="midnightblue" stroke="midnightblue" points="168.5,-62.937 172,-72.937 175.5,-62.937 168.5,-62.937"/>
</g>
</g>
</svg>
