<?xml version="1.0" encoding="UTF-8" standalone="no"?>
<!DOCTYPE svg PUBLIC "-//W3C//DTD SVG 1.1//EN"
 "http://www.w3.org/Graphics/SVG/1.1/DTD/svg11.dtd">
<!-- Generated by graphviz version 2.40.1 (20161225.0304)
 -->
<!-- Title: extlib/tlx/tlx/sort/strings/string_set.hpp Pages: 1 -->
<svg width="690pt" height="151pt"
 viewBox="0.00 0.00 690.00 151.00" xmlns="http://www.w3.org/2000/svg" xmlns:xlink="http://www.w3.org/1999/xlink">
<g id="graph0" class="graph" transform="scale(1 1) rotate(0) translate(4 147)">
<title>extlib/tlx/tlx/sort/strings/string_set.hpp</title>
<!-- Node0 -->
<g id="node1" class="node">
<title>Node0</title>
<polygon fill="#bfbfbf" stroke="#000000" points="263.5,-112.5 263.5,-142.5 388.5,-142.5 388.5,-112.5 263.5,-112.5"/>
<text text-anchor="start" x="271.5" y="-130.5" font-family="Helvetica,sans-Serif" font-size="10.00" fill="#000000">extlib/tlx/tlx/sort</text>
<text text-anchor="middle" x="326" y="-119.5" font-family="Helvetica,sans-Serif" font-size="10.00" fill="#000000">/strings/string_set.hpp</text>
</g>
<!-- Node1 -->
<g id="node2" class="node">
<title>Node1</title>
<polygon fill="none" stroke="#bfbfbf" points="0,-56.5 0,-75.5 52,-75.5 52,-56.5 0,-56.5"/>
<text text-anchor="middle" x="26" y="-63.5" font-family="Helvetica,sans-Serif" font-size="10.00" fill="#000000">cassert</text>
</g>
<!-- Node0&#45;&gt;Node1 -->
<g id="edge1" class="edge">
<title>Node0&#45;&gt;Node1</title>
<path fill="none" stroke="#191970" d="M263.2945,-116.8892C211.7059,-107.8005 136.509,-93.7328 62.2967,-76.1673"/>
<polygon fill="#191970" stroke="#191970" points="62.8486,-72.7007 52.3089,-73.7803 61.2215,-79.5089 62.8486,-72.7007"/>
</g>
<!-- Node2 -->
<g id="node3" class="node">
<title>Node2</title>
<polygon fill="none" stroke="#bfbfbf" points="145,-.5 145,-19.5 195,-19.5 195,-.5 145,-.5"/>
<text text-anchor="middle" x="170" y="-7.5" font-family="Helvetica,sans-Serif" font-size="10.00" fill="#000000">cstdint</text>
</g>
<!-- Node0&#45;&gt;Node2 -->
<g id="edge2" class="edge">
<title>Node0&#45;&gt;Node2</title>
<path fill="none" stroke="#191970" d="M291.8251,-112.3696C272.9684,-103.2097 249.6632,-90.5072 231,-76 212.8412,-61.8849 195.3696,-42.1425 183.8144,-27.9331"/>
<polygon fill="#191970" stroke="#191970" points="186.3927,-25.5519 177.431,-19.9005 180.9125,-29.907 186.3927,-25.5519"/>
</g>
<!-- Node3 -->
<g id="node4" class="node">
<title>Node3</title>
<polygon fill="none" stroke="#bfbfbf" points="240,-56.5 240,-75.5 298,-75.5 298,-56.5 240,-56.5"/>
<text text-anchor="middle" x="269" y="-63.5" font-family="Helvetica,sans-Serif" font-size="10.00" fill="#000000">memory</text>
</g>
<!-- Node0&#45;&gt;Node3 -->
<g id="edge3" class="edge">
<title>Node0&#45;&gt;Node3</title>
<path fill="none" stroke="#191970" d="M311.9101,-112.2977C303.7507,-103.4941 293.4528,-92.3833 284.9905,-83.2529"/>
<polygon fill="#191970" stroke="#191970" points="287.4911,-80.8021 278.1264,-75.8469 282.3571,-85.5604 287.4911,-80.8021"/>
</g>
<!-- Node4 -->
<g id="node5" class="node">
<title>Node4</title>
<polygon fill="none" stroke="#bfbfbf" points="304,-.5 304,-19.5 348,-19.5 348,-.5 304,-.5"/>
<text text-anchor="middle" x="326" y="-7.5" font-family="Helvetica,sans-Serif" font-size="10.00" fill="#000000">string</text>
</g>
<!-- Node0&#45;&gt;Node4 -->
<g id="edge4" class="edge">
<title>Node0&#45;&gt;Node4</title>
<path fill="none" stroke="#191970" d="M326,-112.1389C326,-90.9692 326,-52.8174 326,-29.6112"/>
<polygon fill="#191970" stroke="#191970" points="329.5001,-29.5594 326,-19.5595 322.5001,-29.5595 329.5001,-29.5594"/>
</g>
<!-- Node5 -->
<g id="node6" class="node">
<title>Node5</title>
<polygon fill="none" stroke="#bfbfbf" points="366.5,-.5 366.5,-19.5 411.5,-19.5 411.5,-.5 366.5,-.5"/>
<text text-anchor="middle" x="389" y="-7.5" font-family="Helvetica,sans-Serif" font-size="10.00" fill="#000000">utility</text>
</g>
<!-- Node0&#45;&gt;Node5 -->
<g id="edge5" class="edge">
<title>Node0&#45;&gt;Node5</title>
<path fill="none" stroke="#191970" d="M334.2361,-112.1389C345.7415,-90.6806 366.6021,-51.7738 378.9896,-28.6702"/>
<polygon fill="#191970" stroke="#191970" points="382.2337,-30.0265 383.8745,-19.5595 376.0645,-26.7187 382.2337,-30.0265"/>
</g>
<!-- Node6 -->
<g id="node7" class="node">
<title>Node6</title>
<polygon fill="none" stroke="#bfbfbf" points="504.5,-.5 504.5,-19.5 551.5,-19.5 551.5,-.5 504.5,-.5"/>
<text text-anchor="middle" x="528" y="-7.5" font-family="Helvetica,sans-Serif" font-size="10.00" fill="#000000">vector</text>
</g>
<!-- Node0&#45;&gt;Node6 -->
<g id="edge6" class="edge">
<title>Node0&#45;&gt;Node6</title>
<path fill="none" stroke="#191970" d="M388.8617,-116.5542C434.7935,-107.3479 491.9124,-92.9858 509,-76 521.2645,-63.8085 525.7308,-44.2477 527.2983,-29.5803"/>
<polygon fill="#191970" stroke="#191970" points="530.7954,-29.744 528.0131,-19.521 523.813,-29.2478 530.7954,-29.744"/>
</g>
<!-- Node7 -->
<g id="node8" class="node">
<title>Node7</title>
<g id="a_node8"><a xlink:href="logger_2core_8hpp.html" target="_top" xlink:title="tlx/logger/core.hpp">
<polygon fill="none" stroke="#000000" points="392,-56.5 392,-75.5 500,-75.5 500,-56.5 392,-56.5"/>
<text text-anchor="middle" x="446" y="-63.5" font-family="Helvetica,sans-Serif" font-size="10.00" fill="#000000">tlx/logger/core.hpp</text>
</a>
</g>
</g>
<!-- Node0&#45;&gt;Node7 -->
<g id="edge7" class="edge">
<title>Node0&#45;&gt;Node7</title>
<path fill="none" stroke="#191970" d="M355.3553,-112.4554C374.5873,-102.599 399.5612,-89.7999 418.4241,-80.1327"/>
<polygon fill="#191970" stroke="#191970" points="420.1013,-83.206 427.4043,-75.5303 416.9086,-76.9765 420.1013,-83.206"/>
</g>
<!-- Node9 -->
<g id="node10" class="node">
<title>Node9</title>
<g id="a_node10"><a xlink:href="bswap_8hpp.html" target="_top" xlink:title="tlx/math/bswap.hpp">
<polygon fill="none" stroke="#000000" points="70.5,-56.5 70.5,-75.5 183.5,-75.5 183.5,-56.5 70.5,-56.5"/>
<text text-anchor="middle" x="127" y="-63.5" font-family="Helvetica,sans-Serif" font-size="10.00" fill="#000000">tlx/math/bswap.hpp</text>
</a>
</g>
</g>
<!-- Node0&#45;&gt;Node9 -->
<g id="edge12" class="edge">
<title>Node0&#45;&gt;Node9</title>
<path fill="none" stroke="#191970" d="M277.3191,-112.4554C243.6786,-102.059 199.4438,-88.3884 167.6825,-78.5727"/>
<polygon fill="#191970" stroke="#191970" points="168.4255,-75.1391 157.8379,-75.5303 166.3586,-81.827 168.4255,-75.1391"/>
</g>
<!-- Node10 -->
<g id="node11" class="node">
<title>Node10</title>
<g id="a_node11"><a xlink:href="enable__if_8hpp.html" target="_top" xlink:title="tlx/meta/enable_if.hpp">
<polygon fill="none" stroke="#000000" points="556,-56.5 556,-75.5 682,-75.5 682,-56.5 556,-56.5"/>
<text text-anchor="middle" x="619" y="-63.5" font-family="Helvetica,sans-Serif" font-size="10.00" fill="#000000">tlx/meta/enable_if.hpp</text>
</a>
</g>
</g>
<!-- Node0&#45;&gt;Node10 -->
<g id="edge14" class="edge">
<title>Node0&#45;&gt;Node10</title>
<path fill="none" stroke="#191970" d="M388.8559,-114.3067C440.769,-103.4103 513.7555,-88.0906 563.5259,-77.6439"/>
<polygon fill="#191970" stroke="#191970" points="564.3997,-81.0368 573.4675,-75.5572 562.9617,-74.1861 564.3997,-81.0368"/>
</g>
<!-- Node7&#45;&gt;Node4 -->
<g id="edge9" class="edge">
<title>Node7&#45;&gt;Node4</title>
<path fill="none" stroke="#191970" d="M425.3713,-56.3733C406.1081,-47.3838 377.1514,-33.8706 355.4581,-23.7471"/>
<polygon fill="#191970" stroke="#191970" points="356.9015,-20.5584 346.3595,-19.5011 353.9413,-26.9017 356.9015,-20.5584"/>
</g>
<!-- Node7&#45;&gt;Node5 -->
<g id="edge10" class="edge">
<title>Node7&#45;&gt;Node5</title>
<path fill="none" stroke="#191970" d="M436.0714,-56.2455C427.8162,-48.1352 415.8791,-36.4075 406.0918,-26.7919"/>
<polygon fill="#191970" stroke="#191970" points="408.4011,-24.1542 398.8149,-19.6427 403.4954,-29.1476 408.4011,-24.1542"/>
</g>
<!-- Node7&#45;&gt;Node6 -->
<g id="edge11" class="edge">
<title>Node7&#45;&gt;Node6</title>
<path fill="none" stroke="#191970" d="M460.2833,-56.2455C472.747,-47.7337 491.0451,-35.2375 505.4792,-25.3801"/>
<polygon fill="#191970" stroke="#191970" points="507.5962,-28.1726 513.8804,-19.6427 503.6485,-22.392 507.5962,-28.1726"/>
</g>
<!-- Node8 -->
<g id="node9" class="node">
<title>Node8</title>
<polygon fill="none" stroke="#bfbfbf" points="430,-.5 430,-19.5 486,-19.5 486,-.5 430,-.5"/>
<text text-anchor="middle" x="458" y="-7.5" font-family="Helvetica,sans-Serif" font-size="10.00" fill="#000000">sstream</text>
</g>
<!-- Node7&#45;&gt;Node8 -->
<g id="edge8" class="edge">
<title>Node7&#45;&gt;Node8</title>
<path fill="none" stroke="#191970" d="M448.0902,-56.2455C449.6561,-48.9382 451.8512,-38.6944 453.7776,-29.7046"/>
<polygon fill="#191970" stroke="#191970" points="457.2607,-30.1541 455.9337,-19.6427 450.416,-28.6873 457.2607,-30.1541"/>
</g>
<!-- Node9&#45;&gt;Node2 -->
<g id="edge13" class="edge">
<title>Node9&#45;&gt;Node2</title>
<path fill="none" stroke="#191970" d="M134.49,-56.2455C140.5326,-48.3761 149.1903,-37.101 156.4441,-27.6542"/>
<polygon fill="#191970" stroke="#191970" points="159.2815,-29.7058 162.5958,-19.6427 153.7295,-25.4426 159.2815,-29.7058"/>
</g>
</g>
</svg>
