<?xml version="1.0" encoding="UTF-8" standalone="no"?>
<!DOCTYPE svg PUBLIC "-//W3C//DTD SVG 1.1//EN"
 "http://www.w3.org/Graphics/SVG/1.1/DTD/svg11.dtd">
<!-- Generated by graphviz version 2.36.0 (20140111.2315)
 -->
<!-- Title: extlib/tlx/tlx/sort/strings/string_ptr.hpp Pages: 1 -->
<svg width="515pt" height="220pt"
 viewBox="0.00 0.00 515.00 220.00" xmlns="http://www.w3.org/2000/svg" xmlns:xlink="http://www.w3.org/1999/xlink">
<g id="graph0" class="graph" transform="scale(1 1) rotate(0) translate(4 216)">
<title>extlib/tlx/tlx/sort/strings/string_ptr.hpp</title>
<!-- Node1 -->
<g id="node1" class="node"><title>Node1</title>
<polygon fill="#bfbfbf" stroke="black" points="185.5,-181 185.5,-211 296.5,-211 296.5,-181 185.5,-181"/>
<text text-anchor="start" x="193.5" y="-199" font-family="Helvetica,sans-Serif" font-size="10.00">extlib/tlx/tlx/sort</text>
<text text-anchor="middle" x="241" y="-188" font-family="Helvetica,sans-Serif" font-size="10.00">/strings/string_ptr.hpp</text>
</g>
<!-- Node2 -->
<g id="node2" class="node"><title>Node2</title>
<g id="a_node2"><a xlink:href="string__set_8hpp.html" target="_top" xlink:title="tlx/sort/strings/string\l_set.hpp">
<polygon fill="none" stroke="black" points="139,-113 139,-143 245,-143 245,-113 139,-113"/>
<text text-anchor="start" x="147" y="-131" font-family="Helvetica,sans-Serif" font-size="10.00">tlx/sort/strings/string</text>
<text text-anchor="middle" x="192" y="-120" font-family="Helvetica,sans-Serif" font-size="10.00">_set.hpp</text>
</a>
</g>
</g>
<!-- Node1&#45;&gt;Node2 -->
<g id="edge1" class="edge"><title>Node1&#45;&gt;Node2</title>
<path fill="none" stroke="midnightblue" d="M230.368,-180.679C224.011,-172.117 215.797,-161.053 208.601,-151.36"/>
<polygon fill="midnightblue" stroke="midnightblue" points="211.383,-149.236 202.612,-143.293 205.762,-153.409 211.383,-149.236"/>
</g>
<!-- Node3 -->
<g id="node3" class="node"><title>Node3</title>
<polygon fill="none" stroke="#bfbfbf" points="-0.5,-56.5 -0.5,-75.5 48.5,-75.5 48.5,-56.5 -0.5,-56.5"/>
<text text-anchor="middle" x="24" y="-63.5" font-family="Helvetica,sans-Serif" font-size="10.00">cassert</text>
</g>
<!-- Node1&#45;&gt;Node3 -->
<g id="edge16" class="edge"><title>Node1&#45;&gt;Node3</title>
<path fill="none" stroke="midnightblue" d="M205.861,-180.965C183.572,-171.554 154.436,-158.3 130,-144 97.5347,-125.001 62.7794,-98.4159 42.2408,-81.974"/>
<polygon fill="midnightblue" stroke="midnightblue" points="44.3341,-79.1656 34.3571,-75.6003 39.9331,-84.6091 44.3341,-79.1656"/>
</g>
<!-- Node12 -->
<g id="node12" class="node"><title>Node12</title>
<polygon fill="none" stroke="#bfbfbf" points="263,-118.5 263,-137.5 319,-137.5 319,-118.5 263,-118.5"/>
<text text-anchor="middle" x="291" y="-125.5" font-family="Helvetica,sans-Serif" font-size="10.00">algorithm</text>
</g>
<!-- Node1&#45;&gt;Node12 -->
<g id="edge15" class="edge"><title>Node1&#45;&gt;Node12</title>
<path fill="none" stroke="midnightblue" d="M251.849,-180.679C259.568,-170.49 269.971,-156.759 278.113,-146.011"/>
<polygon fill="midnightblue" stroke="midnightblue" points="281.063,-147.913 284.312,-137.828 275.483,-143.686 281.063,-147.913"/>
</g>
<!-- Node13 -->
<g id="node13" class="node"><title>Node13</title>
<polygon fill="none" stroke="#bfbfbf" points="337.5,-118.5 337.5,-137.5 386.5,-137.5 386.5,-118.5 337.5,-118.5"/>
<text text-anchor="middle" x="362" y="-125.5" font-family="Helvetica,sans-Serif" font-size="10.00">stdint.h</text>
</g>
<!-- Node1&#45;&gt;Node13 -->
<g id="edge17" class="edge"><title>Node1&#45;&gt;Node13</title>
<path fill="none" stroke="midnightblue" d="M266.958,-180.841C287.699,-169.528 316.587,-153.771 337.057,-142.605"/>
<polygon fill="midnightblue" stroke="midnightblue" points="338.98,-145.543 346.083,-137.682 335.628,-139.398 338.98,-145.543"/>
</g>
<!-- Node2&#45;&gt;Node3 -->
<g id="edge2" class="edge"><title>Node2&#45;&gt;Node3</title>
<path fill="none" stroke="midnightblue" d="M152.611,-112.933C123.762,-102.629 85.0218,-88.7935 57.6222,-79.0079"/>
<polygon fill="midnightblue" stroke="midnightblue" points="58.6747,-75.6674 48.0801,-75.6 56.3203,-82.2596 58.6747,-75.6674"/>
</g>
<!-- Node4 -->
<g id="node4" class="node"><title>Node4</title>
<polygon fill="none" stroke="#bfbfbf" points="364,-0.5 364,-19.5 410,-19.5 410,-0.5 364,-0.5"/>
<text text-anchor="middle" x="387" y="-7.5" font-family="Helvetica,sans-Serif" font-size="10.00">cstdint</text>
</g>
<!-- Node2&#45;&gt;Node4 -->
<g id="edge3" class="edge"><title>Node2&#45;&gt;Node4</title>
<path fill="none" stroke="midnightblue" d="M245.095,-114.131C248.107,-113.408 251.092,-112.694 254,-112 321.949,-95.7864 363.628,-130.762 407,-76 417.944,-62.1818 409.321,-42.3736 400.231,-28.2618"/>
<polygon fill="midnightblue" stroke="midnightblue" points="402.998,-26.1107 394.392,-19.9311 397.266,-30.1287 402.998,-26.1107"/>
</g>
<!-- Node5 -->
<g id="node5" class="node"><title>Node5</title>
<polygon fill="none" stroke="#bfbfbf" points="455,-56.5 455,-75.5 507,-75.5 507,-56.5 455,-56.5"/>
<text text-anchor="middle" x="481" y="-63.5" font-family="Helvetica,sans-Serif" font-size="10.00">memory</text>
</g>
<!-- Node2&#45;&gt;Node5 -->
<g id="edge4" class="edge"><title>Node2&#45;&gt;Node5</title>
<path fill="none" stroke="midnightblue" d="M245.062,-113.988C248.083,-113.302 251.078,-112.634 254,-112 336.711,-94.0437 358.148,-93.2915 441,-76 442.254,-75.7382 443.53,-75.4688 444.818,-75.194"/>
<polygon fill="midnightblue" stroke="midnightblue" points="445.75,-78.573 454.775,-73.0232 444.259,-71.7336 445.75,-78.573"/>
</g>
<!-- Node6 -->
<g id="node6" class="node"><title>Node6</title>
<polygon fill="none" stroke="#bfbfbf" points="56.5,-0.5 56.5,-19.5 97.5,-19.5 97.5,-0.5 56.5,-0.5"/>
<text text-anchor="middle" x="77" y="-7.5" font-family="Helvetica,sans-Serif" font-size="10.00">string</text>
</g>
<!-- Node2&#45;&gt;Node6 -->
<g id="edge5" class="edge"><title>Node2&#45;&gt;Node6</title>
<path fill="none" stroke="midnightblue" d="M170.913,-112.909C157.343,-103.328 139.74,-89.9054 126,-76 111.312,-61.1352 97.2427,-41.7552 87.9787,-28.036"/>
<polygon fill="midnightblue" stroke="midnightblue" points="90.8166,-25.9821 82.3842,-19.5677 84.9761,-29.8406 90.8166,-25.9821"/>
</g>
<!-- Node7 -->
<g id="node7" class="node"><title>Node7</title>
<polygon fill="none" stroke="#bfbfbf" points="116,-0.5 116,-19.5 156,-19.5 156,-0.5 116,-0.5"/>
<text text-anchor="middle" x="136" y="-7.5" font-family="Helvetica,sans-Serif" font-size="10.00">utility</text>
</g>
<!-- Node2&#45;&gt;Node7 -->
<g id="edge6" class="edge"><title>Node2&#45;&gt;Node7</title>
<path fill="none" stroke="midnightblue" d="M167.707,-112.811C155.122,-103.989 140.962,-91.3935 134,-76 127.457,-61.5342 128.706,-43.3474 131.161,-29.8926"/>
<polygon fill="midnightblue" stroke="midnightblue" points="134.631,-30.4076 133.361,-19.8891 127.794,-28.9034 134.631,-30.4076"/>
</g>
<!-- Node8 -->
<g id="node8" class="node"><title>Node8</title>
<polygon fill="none" stroke="#bfbfbf" points="245,-0.5 245,-19.5 289,-19.5 289,-0.5 245,-0.5"/>
<text text-anchor="middle" x="267" y="-7.5" font-family="Helvetica,sans-Serif" font-size="10.00">vector</text>
</g>
<!-- Node2&#45;&gt;Node8 -->
<g id="edge7" class="edge"><title>Node2&#45;&gt;Node8</title>
<path fill="none" stroke="midnightblue" d="M212.936,-112.967C225.115,-103.788 239.826,-90.7793 249,-76 257.781,-61.8543 262.36,-43.3703 264.697,-29.7309"/>
<polygon fill="midnightblue" stroke="midnightblue" points="268.192,-30.0159 266.175,-19.6149 261.266,-29.0039 268.192,-30.0159"/>
</g>
<!-- Node9 -->
<g id="node9" class="node"><title>Node9</title>
<g id="a_node9"><a xlink:href="logger_2core_8hpp.html" target="_top" xlink:title="tlx/logger/core.hpp">
<polygon fill="none" stroke="black" points="143.5,-56.5 143.5,-75.5 240.5,-75.5 240.5,-56.5 143.5,-56.5"/>
<text text-anchor="middle" x="192" y="-63.5" font-family="Helvetica,sans-Serif" font-size="10.00">tlx/logger/core.hpp</text>
</a>
</g>
</g>
<!-- Node2&#45;&gt;Node9 -->
<g id="edge8" class="edge"><title>Node2&#45;&gt;Node9</title>
<path fill="none" stroke="midnightblue" d="M192,-112.781C192,-104.781 192,-94.6887 192,-86.0168"/>
<polygon fill="midnightblue" stroke="midnightblue" points="195.5,-85.7305 192,-75.7305 188.5,-85.7306 195.5,-85.7305"/>
</g>
<!-- Node11 -->
<g id="node11" class="node"><title>Node11</title>
<g id="a_node11"><a xlink:href="bswap_8hpp.html" target="_top" xlink:title="tlx/math/bswap.hpp">
<polygon fill="none" stroke="black" points="297,-56.5 297,-75.5 399,-75.5 399,-56.5 297,-56.5"/>
<text text-anchor="middle" x="348" y="-63.5" font-family="Helvetica,sans-Serif" font-size="10.00">tlx/math/bswap.hpp</text>
</a>
</g>
</g>
<!-- Node2&#45;&gt;Node11 -->
<g id="edge13" class="edge"><title>Node2&#45;&gt;Node11</title>
<path fill="none" stroke="midnightblue" d="M228.575,-112.933C255.129,-102.72 290.706,-89.036 316.107,-79.2664"/>
<polygon fill="midnightblue" stroke="midnightblue" points="317.563,-82.4566 325.64,-75.6 315.05,-75.9232 317.563,-82.4566"/>
</g>
<!-- Node9&#45;&gt;Node6 -->
<g id="edge10" class="edge"><title>Node9&#45;&gt;Node6</title>
<path fill="none" stroke="midnightblue" d="M173.778,-56.4435C155.104,-47.6751 125.844,-33.9355 104.383,-23.8579"/>
<polygon fill="midnightblue" stroke="midnightblue" points="105.676,-20.5988 95.1368,-19.5164 102.701,-26.935 105.676,-20.5988"/>
</g>
<!-- Node9&#45;&gt;Node7 -->
<g id="edge11" class="edge"><title>Node9&#45;&gt;Node7</title>
<path fill="none" stroke="midnightblue" d="M183.003,-56.324C174.806,-48.4196 162.494,-36.5482 152.528,-26.9377"/>
<polygon fill="midnightblue" stroke="midnightblue" points="154.789,-24.2558 145.161,-19.8339 149.93,-29.2947 154.789,-24.2558"/>
</g>
<!-- Node9&#45;&gt;Node8 -->
<g id="edge12" class="edge"><title>Node9&#45;&gt;Node8</title>
<path fill="none" stroke="midnightblue" d="M204.05,-56.324C215.463,-48.1066 232.831,-35.6017 246.435,-25.8069"/>
<polygon fill="midnightblue" stroke="midnightblue" points="248.66,-28.5174 254.731,-19.8339 244.57,-22.8366 248.66,-28.5174"/>
</g>
<!-- Node10 -->
<g id="node10" class="node"><title>Node10</title>
<polygon fill="none" stroke="#bfbfbf" points="174,-0.5 174,-19.5 226,-19.5 226,-0.5 174,-0.5"/>
<text text-anchor="middle" x="200" y="-7.5" font-family="Helvetica,sans-Serif" font-size="10.00">sstream</text>
</g>
<!-- Node9&#45;&gt;Node10 -->
<g id="edge9" class="edge"><title>Node9&#45;&gt;Node10</title>
<path fill="none" stroke="midnightblue" d="M193.321,-56.083C194.381,-48.9272 195.906,-38.6353 197.231,-29.6911"/>
<polygon fill="midnightblue" stroke="midnightblue" points="200.7,-30.1561 198.704,-19.7511 193.776,-29.1302 200.7,-30.1561"/>
</g>
<!-- Node11&#45;&gt;Node4 -->
<g id="edge14" class="edge"><title>Node11&#45;&gt;Node4</title>
<path fill="none" stroke="midnightblue" d="M354.44,-56.083C359.949,-48.4554 368.031,-37.2645 374.765,-27.9408"/>
<polygon fill="midnightblue" stroke="midnightblue" points="377.662,-29.9071 380.68,-19.7511 371.987,-25.8087 377.662,-29.9071"/>
</g>
</g>
</svg>
