<?xml version="1.0" encoding="UTF-8" standalone="no"?>
<!DOCTYPE svg PUBLIC "-//W3C//DTD SVG 1.1//EN"
 "http://www.w3.org/Graphics/SVG/1.1/DTD/svg11.dtd">
<!-- Generated by graphviz version 2.36.0 (20140111.2315)
 -->
<!-- Title: extlib/tlx/tlx/container/string_view.hpp Pages: 1 -->
<svg width="310pt" height="152pt"
 viewBox="0.00 0.00 310.00 152.00" xmlns="http://www.w3.org/2000/svg" xmlns:xlink="http://www.w3.org/1999/xlink">
<g id="graph0" class="graph" transform="scale(1 1) rotate(0) translate(4 148)">
<title>extlib/tlx/tlx/container/string_view.hpp</title>
<!-- Node1 -->
<g id="node1" class="node"><title>Node1</title>
<polygon fill="#bfbfbf" stroke="black" points="72,-113 72,-143 182,-143 182,-113 72,-113"/>
<text text-anchor="start" x="80" y="-131" font-family="Helvetica,sans-Serif" font-size="10.00">extlib/tlx/tlx/container</text>
<text text-anchor="middle" x="127" y="-120" font-family="Helvetica,sans-Serif" font-size="10.00">/string_view.hpp</text>
</g>
<!-- Node2 -->
<g id="node2" class="node"><title>Node2</title>
<polygon fill="none" stroke="#bfbfbf" points="0,-56.5 0,-75.5 56,-75.5 56,-56.5 0,-56.5"/>
<text text-anchor="middle" x="28" y="-63.5" font-family="Helvetica,sans-Serif" font-size="10.00">algorithm</text>
</g>
<!-- Node1&#45;&gt;Node2 -->
<g id="edge1" class="edge"><title>Node1&#45;&gt;Node2</title>
<path fill="none" stroke="midnightblue" d="M103.789,-112.933C87.8321,-103.262 66.7409,-90.4793 50.8601,-80.8546"/>
<polygon fill="midnightblue" stroke="midnightblue" points="52.5561,-77.7899 42.19,-75.6 48.928,-83.7763 52.5561,-77.7899"/>
</g>
<!-- Node3 -->
<g id="node3" class="node"><title>Node3</title>
<polygon fill="none" stroke="#bfbfbf" points="74,-56.5 74,-75.5 126,-75.5 126,-56.5 74,-56.5"/>
<text text-anchor="middle" x="100" y="-63.5" font-family="Helvetica,sans-Serif" font-size="10.00">ostream</text>
</g>
<!-- Node1&#45;&gt;Node3 -->
<g id="edge2" class="edge"><title>Node1&#45;&gt;Node3</title>
<path fill="none" stroke="midnightblue" d="M120.601,-112.781C116.84,-104.422 112.05,-93.7773 108.035,-84.8565"/>
<polygon fill="midnightblue" stroke="midnightblue" points="111.224,-83.4135 103.929,-75.7305 104.841,-86.2861 111.224,-83.4135"/>
</g>
<!-- Node4 -->
<g id="node4" class="node"><title>Node4</title>
<polygon fill="none" stroke="#bfbfbf" points="177.5,-0.5 177.5,-19.5 218.5,-19.5 218.5,-0.5 177.5,-0.5"/>
<text text-anchor="middle" x="198" y="-7.5" font-family="Helvetica,sans-Serif" font-size="10.00">string</text>
</g>
<!-- Node1&#45;&gt;Node4 -->
<g id="edge3" class="edge"><title>Node1&#45;&gt;Node4</title>
<path fill="none" stroke="midnightblue" d="M135.706,-112.776C148.731,-91.4957 173.261,-51.4183 187.341,-28.4154"/>
<polygon fill="midnightblue" stroke="midnightblue" points="190.435,-30.0634 192.671,-19.707 184.465,-26.409 190.435,-30.0634"/>
</g>
<!-- Node5 -->
<g id="node5" class="node"><title>Node5</title>
<g id="a_node5"><a xlink:href="hash__djb2_8hpp.html" target="_top" xlink:title="tlx/string/hash_djb2.hpp">
<polygon fill="none" stroke="black" points="182,-56.5 182,-75.5 302,-75.5 302,-56.5 182,-56.5"/>
<text text-anchor="middle" x="242" y="-63.5" font-family="Helvetica,sans-Serif" font-size="10.00">tlx/string/hash_djb2.hpp</text>
</a>
</g>
</g>
<!-- Node1&#45;&gt;Node5 -->
<g id="edge4" class="edge"><title>Node1&#45;&gt;Node5</title>
<path fill="none" stroke="midnightblue" d="M153.962,-112.933C172.845,-103.081 197.916,-90.0004 216.473,-80.3182"/>
<polygon fill="midnightblue" stroke="midnightblue" points="218.27,-83.3288 225.517,-75.6 215.032,-77.1227 218.27,-83.3288"/>
</g>
<!-- Node5&#45;&gt;Node4 -->
<g id="edge5" class="edge"><title>Node5&#45;&gt;Node4</title>
<path fill="none" stroke="midnightblue" d="M234.734,-56.083C228.455,-48.3768 219.212,-37.0333 211.569,-27.6531"/>
<polygon fill="midnightblue" stroke="midnightblue" points="214.161,-25.2926 205.131,-19.7511 208.734,-29.7143 214.161,-25.2926"/>
</g>
</g>
</svg>
