<?xml version="1.0" encoding="UTF-8" standalone="no"?>
<!DOCTYPE svg PUBLIC "-//W3C//DTD SVG 1.1//EN"
 "http://www.w3.org/Graphics/SVG/1.1/DTD/svg11.dtd">
<!-- Generated by graphviz version 2.40.1 (20161225.0304)
 -->
<!-- Title: extlib/tlx/tlx/sort/strings.hpp Pages: 1 -->
<svg width="1004pt" height="486pt"
 viewBox="0.00 0.00 1004.00 486.00" xmlns="http://www.w3.org/2000/svg" xmlns:xlink="http://www.w3.org/1999/xlink">
<g id="graph0" class="graph" transform="scale(1 1) rotate(0) translate(4 482)">
<title>extlib/tlx/tlx/sort/strings.hpp</title>
<!-- Node0 -->
<g id="node1" class="node">
<title>Node0</title>
<polygon fill="#bfbfbf" stroke="#000000" points="483,-447.5 483,-477.5 581,-477.5 581,-447.5 483,-447.5"/>
<text text-anchor="start" x="491" y="-465.5" font-family="Helvetica,sans-Serif" font-size="10.00" fill="#000000">extlib/tlx/tlx/sort</text>
<text text-anchor="middle" x="532" y="-454.5" font-family="Helvetica,sans-Serif" font-size="10.00" fill="#000000">/strings.hpp</text>
</g>
<!-- Node1 -->
<g id="node2" class="node">
<title>Node1</title>
<g id="a_node2"><a xlink:href="insertion__sort_8hpp.html" target="_top" xlink:title="tlx/sort/strings/insertion\l_sort.hpp">
<polygon fill="none" stroke="#000000" points="402.5,-246.5 402.5,-276.5 535.5,-276.5 535.5,-246.5 402.5,-246.5"/>
<text text-anchor="start" x="410.5" y="-264.5" font-family="Helvetica,sans-Serif" font-size="10.00" fill="#000000">tlx/sort/strings/insertion</text>
<text text-anchor="middle" x="469" y="-253.5" font-family="Helvetica,sans-Serif" font-size="10.00" fill="#000000">_sort.hpp</text>
</a>
</g>
</g>
<!-- Node0&#45;&gt;Node1 -->
<g id="edge1" class="edge">
<title>Node0&#45;&gt;Node1</title>
<path fill="none" stroke="#191970" d="M527.2648,-447.3923C516.4752,-412.9685 489.9791,-328.4334 476.7611,-286.2615"/>
<polygon fill="#191970" stroke="#191970" points="480.035,-285.0042 473.7042,-276.5088 473.3554,-287.0979 480.035,-285.0042"/>
</g>
<!-- Node7 -->
<g id="node8" class="node">
<title>Node7</title>
<polygon fill="none" stroke="#bfbfbf" points="195,-.5 195,-19.5 245,-19.5 245,-.5 195,-.5"/>
<text text-anchor="middle" x="220" y="-7.5" font-family="Helvetica,sans-Serif" font-size="10.00" fill="#000000">cstdint</text>
</g>
<!-- Node0&#45;&gt;Node7 -->
<g id="edge39" class="edge">
<title>Node0&#45;&gt;Node7</title>
<path fill="none" stroke="#191970" d="M482.9542,-461.2031C380.4485,-457.8113 147.2117,-446.3378 77,-411 32.1986,-388.4513 0,-378.6558 0,-328.5 0,-328.5 0,-328.5 0,-127.5 0,-91.3023 10.4077,-78.198 39,-56 61.5716,-38.4762 138.8727,-23.2757 184.8337,-15.5072"/>
<polygon fill="#191970" stroke="#191970" points="185.6693,-18.9166 194.9629,-13.8295 184.5254,-12.0106 185.6693,-18.9166"/>
</g>
<!-- Node9 -->
<g id="node10" class="node">
<title>Node9</title>
<polygon fill="none" stroke="#bfbfbf" points="368,-.5 368,-19.5 412,-19.5 412,-.5 368,-.5"/>
<text text-anchor="middle" x="390" y="-7.5" font-family="Helvetica,sans-Serif" font-size="10.00" fill="#000000">string</text>
</g>
<!-- Node0&#45;&gt;Node9 -->
<g id="edge40" class="edge">
<title>Node0&#45;&gt;Node9</title>
<path fill="none" stroke="#191970" d="M482.8274,-459.6363C357.8759,-451.0215 38,-420.029 38,-328.5 38,-328.5 38,-328.5 38,-127.5 38,-94.6194 32.3707,-77.7838 57,-56 79.3373,-36.2434 278.2678,-18.7123 357.5743,-12.4463"/>
<polygon fill="#191970" stroke="#191970" points="358.2425,-15.9049 367.94,-11.6378 357.6981,-8.9261 358.2425,-15.9049"/>
</g>
<!-- Node11 -->
<g id="node12" class="node">
<title>Node11</title>
<polygon fill="none" stroke="#bfbfbf" points="875.5,-.5 875.5,-19.5 922.5,-19.5 922.5,-.5 875.5,-.5"/>
<text text-anchor="middle" x="899" y="-7.5" font-family="Helvetica,sans-Serif" font-size="10.00" fill="#000000">vector</text>
</g>
<!-- Node0&#45;&gt;Node11 -->
<g id="edge41" class="edge">
<title>Node0&#45;&gt;Node11</title>
<path fill="none" stroke="#191970" d="M581.2168,-458.784C700.6329,-448.4196 996,-414.1293 996,-328.5 996,-328.5 996,-328.5 996,-127.5 996,-82.1921 952.5778,-44.9133 923.8382,-25.2017"/>
<polygon fill="#191970" stroke="#191970" points="925.7267,-22.2544 915.4547,-19.6588 921.8661,-28.0936 925.7267,-22.2544"/>
</g>
<!-- Node17 -->
<g id="node18" class="node">
<title>Node17</title>
<g id="a_node18"><a xlink:href="multikey__quicksort_8hpp.html" target="_top" xlink:title="tlx/sort/strings/multikey\l_quicksort.hpp">
<polygon fill="none" stroke="#000000" points="512,-313.5 512,-343.5 646,-343.5 646,-313.5 512,-313.5"/>
<text text-anchor="start" x="520" y="-331.5" font-family="Helvetica,sans-Serif" font-size="10.00" fill="#000000">tlx/sort/strings/multikey</text>
<text text-anchor="middle" x="579" y="-320.5" font-family="Helvetica,sans-Serif" font-size="10.00" fill="#000000">_quicksort.hpp</text>
</a>
</g>
</g>
<!-- Node0&#45;&gt;Node17 -->
<g id="edge23" class="edge">
<title>Node0&#45;&gt;Node17</title>
<path fill="none" stroke="#191970" d="M537.3001,-447.389C545.3043,-424.5686 560.5665,-381.055 570.2401,-353.4751"/>
<polygon fill="#191970" stroke="#191970" points="573.64,-354.3562 573.6471,-343.7614 567.0345,-352.0393 573.64,-354.3562"/>
</g>
<!-- Node19 -->
<g id="node20" class="node">
<title>Node19</title>
<g id="a_node20"><a xlink:href="extlib_2tlx_2tlx_2sort_2strings_2radix__sort_8hpp.html" target="_top" xlink:title="tlx/sort/strings/radix\l_sort.hpp">
<polygon fill="none" stroke="#000000" points="692.5,-380.5 692.5,-410.5 807.5,-410.5 807.5,-380.5 692.5,-380.5"/>
<text text-anchor="start" x="700.5" y="-398.5" font-family="Helvetica,sans-Serif" font-size="10.00" fill="#000000">tlx/sort/strings/radix</text>
<text text-anchor="middle" x="750" y="-387.5" font-family="Helvetica,sans-Serif" font-size="10.00" fill="#000000">_sort.hpp</text>
</a>
</g>
</g>
<!-- Node0&#45;&gt;Node19 -->
<g id="edge28" class="edge">
<title>Node0&#45;&gt;Node19</title>
<path fill="none" stroke="#191970" d="M580.9235,-447.4639C613.4864,-437.456 656.4522,-424.2509 690.9219,-413.657"/>
<polygon fill="#191970" stroke="#191970" points="692.3327,-416.8851 700.8632,-410.6017 690.2762,-410.194 692.3327,-416.8851"/>
</g>
<!-- Node2 -->
<g id="node3" class="node">
<title>Node2</title>
<g id="a_node3"><a xlink:href="likely_8hpp.html" target="_top" xlink:title="tlx/define/likely.hpp">
<polygon fill="none" stroke="#000000" points="529,-185 529,-204 641,-204 641,-185 529,-185"/>
<text text-anchor="middle" x="585" y="-192" font-family="Helvetica,sans-Serif" font-size="10.00" fill="#000000">tlx/define/likely.hpp</text>
</a>
</g>
</g>
<!-- Node1&#45;&gt;Node2 -->
<g id="edge2" class="edge">
<title>Node1&#45;&gt;Node2</title>
<path fill="none" stroke="#191970" d="M495.0327,-246.4639C514.3206,-235.3234 540.4678,-220.2212 559.6028,-209.1691"/>
<polygon fill="#191970" stroke="#191970" points="561.4635,-212.1363 568.3723,-204.1039 557.9624,-206.0747 561.4635,-212.1363"/>
</g>
<!-- Node3 -->
<g id="node4" class="node">
<title>Node3</title>
<g id="a_node4"><a xlink:href="enable__if_8hpp.html" target="_top" xlink:title="tlx/meta/enable_if.hpp">
<polygon fill="none" stroke="#000000" points="66,-56.5 66,-75.5 192,-75.5 192,-56.5 66,-56.5"/>
<text text-anchor="middle" x="129" y="-63.5" font-family="Helvetica,sans-Serif" font-size="10.00" fill="#000000">tlx/meta/enable_if.hpp</text>
</a>
</g>
</g>
<!-- Node1&#45;&gt;Node3 -->
<g id="edge3" class="edge">
<title>Node1&#45;&gt;Node3</title>
<path fill="none" stroke="#191970" d="M442.8853,-246.4841C379.4337,-209.9994 217.7494,-117.0309 154.7138,-80.7854"/>
<polygon fill="#191970" stroke="#191970" points="156.2263,-77.6178 145.8126,-75.6672 152.737,-83.6862 156.2263,-77.6178"/>
</g>
<!-- Node4 -->
<g id="node5" class="node">
<title>Node4</title>
<g id="a_node5"><a xlink:href="string__ptr_8hpp.html" target="_top" xlink:title="tlx/sort/strings/string\l_ptr.hpp">
<polygon fill="none" stroke="#000000" points="393,-179.5 393,-209.5 511,-209.5 511,-179.5 393,-179.5"/>
<text text-anchor="start" x="401" y="-197.5" font-family="Helvetica,sans-Serif" font-size="10.00" fill="#000000">tlx/sort/strings/string</text>
<text text-anchor="middle" x="452" y="-186.5" font-family="Helvetica,sans-Serif" font-size="10.00" fill="#000000">_ptr.hpp</text>
</a>
</g>
</g>
<!-- Node1&#45;&gt;Node4 -->
<g id="edge4" class="edge">
<title>Node1&#45;&gt;Node4</title>
<path fill="none" stroke="#191970" d="M465.1424,-246.2967C463.1428,-238.4156 460.6486,-228.5857 458.3721,-219.6135"/>
<polygon fill="#191970" stroke="#191970" points="461.6943,-218.4752 455.8423,-209.6432 454.9093,-220.1968 461.6943,-218.4752"/>
</g>
<!-- Node5 -->
<g id="node6" class="node">
<title>Node5</title>
<g id="a_node6"><a xlink:href="string__set_8hpp.html" target="_top" xlink:title="tlx/sort/strings/string\l_set.hpp">
<polygon fill="none" stroke="#000000" points="413,-112.5 413,-142.5 531,-142.5 531,-112.5 413,-112.5"/>
<text text-anchor="start" x="421" y="-130.5" font-family="Helvetica,sans-Serif" font-size="10.00" fill="#000000">tlx/sort/strings/string</text>
<text text-anchor="middle" x="472" y="-119.5" font-family="Helvetica,sans-Serif" font-size="10.00" fill="#000000">_set.hpp</text>
</a>
</g>
</g>
<!-- Node4&#45;&gt;Node5 -->
<g id="edge5" class="edge">
<title>Node4&#45;&gt;Node5</title>
<path fill="none" stroke="#191970" d="M456.5383,-179.2967C458.9164,-171.3299 461.889,-161.3718 464.5907,-152.3213"/>
<polygon fill="#191970" stroke="#191970" points="467.973,-153.2265 467.4797,-142.6432 461.2655,-151.2242 467.973,-153.2265"/>
</g>
<!-- Node6 -->
<g id="node7" class="node">
<title>Node6</title>
<polygon fill="none" stroke="#bfbfbf" points="696,-56.5 696,-75.5 748,-75.5 748,-56.5 696,-56.5"/>
<text text-anchor="middle" x="722" y="-63.5" font-family="Helvetica,sans-Serif" font-size="10.00" fill="#000000">cassert</text>
</g>
<!-- Node4&#45;&gt;Node6 -->
<g id="edge21" class="edge">
<title>Node4&#45;&gt;Node6</title>
<path fill="none" stroke="#191970" d="M483.7664,-179.3816C536.5428,-154.2639 641.5316,-104.297 692.6581,-79.9646"/>
<polygon fill="#191970" stroke="#191970" points="694.3182,-83.0507 701.8437,-75.5929 691.31,-76.73 694.3182,-83.0507"/>
</g>
<!-- Node15 -->
<g id="node16" class="node">
<title>Node15</title>
<polygon fill="none" stroke="#bfbfbf" points="637,-118 637,-137 701,-137 701,-118 637,-118"/>
<text text-anchor="middle" x="669" y="-125" font-family="Helvetica,sans-Serif" font-size="10.00" fill="#000000">algorithm</text>
</g>
<!-- Node4&#45;&gt;Node15 -->
<g id="edge20" class="edge">
<title>Node4&#45;&gt;Node15</title>
<path fill="none" stroke="#191970" d="M500.699,-179.4639C539.1912,-167.5792 592.2864,-151.1858 628.4801,-140.0108"/>
<polygon fill="#191970" stroke="#191970" points="629.6919,-143.2997 638.2142,-137.0053 627.6267,-136.6113 629.6919,-143.2997"/>
</g>
<!-- Node16 -->
<g id="node17" class="node">
<title>Node16</title>
<polygon fill="none" stroke="#bfbfbf" points="341.5,-118 341.5,-137 394.5,-137 394.5,-118 341.5,-118"/>
<text text-anchor="middle" x="368" y="-125" font-family="Helvetica,sans-Serif" font-size="10.00" fill="#000000">stdint.h</text>
</g>
<!-- Node4&#45;&gt;Node16 -->
<g id="edge22" class="edge">
<title>Node4&#45;&gt;Node16</title>
<path fill="none" stroke="#191970" d="M432.9391,-179.2967C419.4703,-168.5537 401.4615,-154.1895 387.8252,-143.3129"/>
<polygon fill="#191970" stroke="#191970" points="389.9796,-140.5544 379.9794,-137.055 385.6147,-146.0268 389.9796,-140.5544"/>
</g>
<!-- Node5&#45;&gt;Node3 -->
<g id="edge19" class="edge">
<title>Node5&#45;&gt;Node3</title>
<path fill="none" stroke="#191970" d="M412.9497,-114.0123C409.5874,-113.3137 406.253,-112.6379 403,-112 335.0458,-98.6736 257.1372,-85.8273 201.8103,-77.1137"/>
<polygon fill="#191970" stroke="#191970" points="202.1714,-73.6276 191.7498,-75.5356 201.0866,-80.543 202.1714,-73.6276"/>
</g>
<!-- Node5&#45;&gt;Node6 -->
<g id="edge6" class="edge">
<title>Node5&#45;&gt;Node6</title>
<path fill="none" stroke="#191970" d="M531.3068,-113.0309C573.3782,-102.7483 631.1687,-88.5867 682,-76 683.2507,-75.6903 684.5233,-75.3747 685.8085,-75.0556"/>
<polygon fill="#191970" stroke="#191970" points="686.8961,-78.3918 695.7542,-72.5793 685.2048,-71.5991 686.8961,-78.3918"/>
</g>
<!-- Node5&#45;&gt;Node7 -->
<g id="edge7" class="edge">
<title>Node5&#45;&gt;Node7</title>
<path fill="none" stroke="#191970" d="M412.9092,-114.2061C409.5572,-113.4581 406.2361,-112.7187 403,-112 330.1504,-95.822 293.4341,-127.0462 239,-76 226.3857,-64.1708 221.966,-44.5618 220.5045,-29.7845"/>
<polygon fill="#191970" stroke="#191970" points="223.9875,-29.3999 219.8769,-19.635 217.0009,-29.832 223.9875,-29.3999"/>
</g>
<!-- Node8 -->
<g id="node9" class="node">
<title>Node8</title>
<polygon fill="none" stroke="#bfbfbf" points="544,-56.5 544,-75.5 602,-75.5 602,-56.5 544,-56.5"/>
<text text-anchor="middle" x="573" y="-63.5" font-family="Helvetica,sans-Serif" font-size="10.00" fill="#000000">memory</text>
</g>
<!-- Node5&#45;&gt;Node8 -->
<g id="edge8" class="edge">
<title>Node5&#45;&gt;Node8</title>
<path fill="none" stroke="#191970" d="M496.7074,-112.4554C512.5247,-102.8241 532.9567,-90.3828 548.6949,-80.7996"/>
<polygon fill="#191970" stroke="#191970" points="550.6277,-83.7206 557.3486,-75.5303 546.9871,-77.7418 550.6277,-83.7206"/>
</g>
<!-- Node5&#45;&gt;Node9 -->
<g id="edge9" class="edge">
<title>Node5&#45;&gt;Node9</title>
<path fill="none" stroke="#191970" d="M447.0286,-112.4263C433.9683,-103.3668 418.7201,-90.7427 409,-76 399.7816,-62.0183 394.9592,-43.5118 392.484,-29.6542"/>
<polygon fill="#191970" stroke="#191970" points="395.9352,-29.0683 390.963,-19.7126 389.0157,-30.1269 395.9352,-29.0683"/>
</g>
<!-- Node10 -->
<g id="node11" class="node">
<title>Node10</title>
<polygon fill="none" stroke="#bfbfbf" points="753.5,-.5 753.5,-19.5 798.5,-19.5 798.5,-.5 753.5,-.5"/>
<text text-anchor="middle" x="776" y="-7.5" font-family="Helvetica,sans-Serif" font-size="10.00" fill="#000000">utility</text>
</g>
<!-- Node5&#45;&gt;Node10 -->
<g id="edge10" class="edge">
<title>Node5&#45;&gt;Node10</title>
<path fill="none" stroke="#191970" d="M515.241,-112.4922C542.8525,-102.6604 579.2905,-89.2234 611,-76 630.4534,-67.8876 634.5699,-64.1682 654,-56 684.0781,-43.3555 718.9623,-30.3668 743.7049,-21.4301"/>
<polygon fill="#191970" stroke="#191970" points="745.0869,-24.6528 753.3153,-17.9786 742.7208,-18.0648 745.0869,-24.6528"/>
</g>
<!-- Node5&#45;&gt;Node11 -->
<g id="edge11" class="edge">
<title>Node5&#45;&gt;Node11</title>
<path fill="none" stroke="#191970" d="M531.2086,-112.8839C565.5281,-103.7202 609.2781,-90.8452 647,-76 665.4955,-68.7213 668.2528,-62.6033 687,-56 748.0743,-34.4879 822.7355,-21.1227 865.1863,-14.6645"/>
<polygon fill="#191970" stroke="#191970" points="865.8789,-18.1001 875.257,-13.1706 864.8517,-11.1759 865.8789,-18.1001"/>
</g>
<!-- Node12 -->
<g id="node13" class="node">
<title>Node12</title>
<g id="a_node13"><a xlink:href="logger_2core_8hpp.html" target="_top" xlink:title="tlx/logger/core.hpp">
<polygon fill="none" stroke="#000000" points="418,-56.5 418,-75.5 526,-75.5 526,-56.5 418,-56.5"/>
<text text-anchor="middle" x="472" y="-63.5" font-family="Helvetica,sans-Serif" font-size="10.00" fill="#000000">tlx/logger/core.hpp</text>
</a>
</g>
</g>
<!-- Node5&#45;&gt;Node12 -->
<g id="edge12" class="edge">
<title>Node5&#45;&gt;Node12</title>
<path fill="none" stroke="#191970" d="M472,-112.2977C472,-104.3834 472,-94.6043 472,-86.0759"/>
<polygon fill="#191970" stroke="#191970" points="475.5001,-85.8469 472,-75.8469 468.5001,-85.847 475.5001,-85.8469"/>
</g>
<!-- Node14 -->
<g id="node15" class="node">
<title>Node14</title>
<g id="a_node15"><a xlink:href="bswap_8hpp.html" target="_top" xlink:title="tlx/math/bswap.hpp">
<polygon fill="none" stroke="#000000" points="248.5,-56.5 248.5,-75.5 361.5,-75.5 361.5,-56.5 248.5,-56.5"/>
<text text-anchor="middle" x="305" y="-63.5" font-family="Helvetica,sans-Serif" font-size="10.00" fill="#000000">tlx/math/bswap.hpp</text>
</a>
</g>
</g>
<!-- Node5&#45;&gt;Node14 -->
<g id="edge17" class="edge">
<title>Node5&#45;&gt;Node14</title>
<path fill="none" stroke="#191970" d="M431.1472,-112.4554C403.405,-102.239 367.0775,-88.8609 340.5345,-79.0861"/>
<polygon fill="#191970" stroke="#191970" points="341.4725,-75.7018 330.8791,-75.5303 339.0535,-82.2705 341.4725,-75.7018"/>
</g>
<!-- Node12&#45;&gt;Node9 -->
<g id="edge14" class="edge">
<title>Node12&#45;&gt;Node9</title>
<path fill="none" stroke="#191970" d="M457.7167,-56.2455C445.253,-47.7337 426.9549,-35.2375 412.5208,-25.3801"/>
<polygon fill="#191970" stroke="#191970" points="414.3515,-22.392 404.1196,-19.6427 410.4038,-28.1726 414.3515,-22.392"/>
</g>
<!-- Node12&#45;&gt;Node10 -->
<g id="edge15" class="edge">
<title>Node12&#45;&gt;Node10</title>
<path fill="none" stroke="#191970" d="M523.914,-56.4369C586.7402,-44.8636 690.6327,-25.7256 743.267,-16.0298"/>
<polygon fill="#191970" stroke="#191970" points="744.185,-19.4196 753.3854,-14.1658 742.9168,-12.5355 744.185,-19.4196"/>
</g>
<!-- Node12&#45;&gt;Node11 -->
<g id="edge16" class="edge">
<title>Node12&#45;&gt;Node11</title>
<path fill="none" stroke="#191970" d="M526.2797,-57.2723C529.2281,-56.8331 532.1495,-56.4062 535,-56 656.261,-38.7185 800.7306,-21.4445 865.1234,-13.9175"/>
<polygon fill="#191970" stroke="#191970" points="865.5879,-17.3871 875.1153,-12.7527 864.7773,-10.4342 865.5879,-17.3871"/>
</g>
<!-- Node13 -->
<g id="node14" class="node">
<title>Node13</title>
<polygon fill="none" stroke="#bfbfbf" points="444,-.5 444,-19.5 500,-19.5 500,-.5 444,-.5"/>
<text text-anchor="middle" x="472" y="-7.5" font-family="Helvetica,sans-Serif" font-size="10.00" fill="#000000">sstream</text>
</g>
<!-- Node12&#45;&gt;Node13 -->
<g id="edge13" class="edge">
<title>Node12&#45;&gt;Node13</title>
<path fill="none" stroke="#191970" d="M472,-56.2455C472,-48.9382 472,-38.6944 472,-29.7046"/>
<polygon fill="#191970" stroke="#191970" points="475.5001,-29.6426 472,-19.6427 468.5001,-29.6427 475.5001,-29.6426"/>
</g>
<!-- Node14&#45;&gt;Node7 -->
<g id="edge18" class="edge">
<title>Node14&#45;&gt;Node7</title>
<path fill="none" stroke="#191970" d="M290.1941,-56.2455C277.2744,-47.7337 258.3069,-35.2375 243.3448,-25.3801"/>
<polygon fill="#191970" stroke="#191970" points="244.9124,-22.2216 234.6362,-19.6427 241.0613,-28.067 244.9124,-22.2216"/>
</g>
<!-- Node17&#45;&gt;Node1 -->
<g id="edge24" class="edge">
<title>Node17&#45;&gt;Node1</title>
<path fill="none" stroke="#191970" d="M554.3139,-313.4639C539.1353,-304.2188 519.4772,-292.2452 502.8573,-282.1222"/>
<polygon fill="#191970" stroke="#191970" points="504.3455,-278.9305 493.9843,-276.7177 500.7041,-284.9089 504.3455,-278.9305"/>
</g>
<!-- Node17&#45;&gt;Node10 -->
<g id="edge27" class="edge">
<title>Node17&#45;&gt;Node10</title>
<path fill="none" stroke="#191970" d="M599.9798,-313.305C612.2621,-303.7598 627.5557,-290.6933 639,-277 705.4304,-197.515 716.1287,-171.1862 757,-76 763.4687,-60.935 768.4698,-43.013 771.7137,-29.6491"/>
<polygon fill="#191970" stroke="#191970" points="775.181,-30.1892 774.019,-19.6582 768.3602,-28.6153 775.181,-30.1892"/>
</g>
<!-- Node17&#45;&gt;Node15 -->
<g id="edge25" class="edge">
<title>Node17&#45;&gt;Node15</title>
<path fill="none" stroke="#191970" d="M590.5658,-313.0722C597.9048,-303.0192 607.4126,-289.4946 615,-277 632.4379,-248.284 638.3577,-241.5143 650,-210 657.6878,-189.1901 662.9151,-164.2399 665.9108,-147.2658"/>
<polygon fill="#191970" stroke="#191970" points="669.3655,-147.8268 667.5606,-137.3868 662.4611,-146.6737 669.3655,-147.8268"/>
</g>
<!-- Node18 -->
<g id="node19" class="node">
<title>Node18</title>
<polygon fill="none" stroke="#bfbfbf" points="553.5,-252 553.5,-271 606.5,-271 606.5,-252 553.5,-252"/>
<text text-anchor="middle" x="580" y="-259" font-family="Helvetica,sans-Serif" font-size="10.00" fill="#000000">cstddef</text>
</g>
<!-- Node17&#45;&gt;Node18 -->
<g id="edge26" class="edge">
<title>Node17&#45;&gt;Node18</title>
<path fill="none" stroke="#191970" d="M579.2269,-313.2967C579.3691,-303.7699 579.5538,-291.3954 579.707,-281.1306"/>
<polygon fill="#191970" stroke="#191970" points="583.2077,-281.1061 579.8574,-271.055 576.2084,-281.0016 583.2077,-281.1061"/>
</g>
<!-- Node19&#45;&gt;Node2 -->
<g id="edge33" class="edge">
<title>Node19&#45;&gt;Node2</title>
<path fill="none" stroke="#191970" d="M747.3909,-380.4582C741.6058,-351.1716 725.1622,-285.8798 688,-246 671.5271,-228.3225 647.651,-215.8578 627.0335,-207.6239"/>
<polygon fill="#191970" stroke="#191970" points="628.1169,-204.2917 617.5254,-204.0263 625.6396,-210.8387 628.1169,-204.2917"/>
</g>
<!-- Node19&#45;&gt;Node4 -->
<g id="edge35" class="edge">
<title>Node19&#45;&gt;Node4</title>
<path fill="none" stroke="#191970" d="M740.4297,-380.3599C720.669,-350.3115 672.3689,-282.8667 615,-246 598.8997,-235.6535 557.6493,-222.6605 520.6771,-212.3138"/>
<polygon fill="#191970" stroke="#191970" points="521.46,-208.899 510.8889,-209.6071 519.5944,-215.6458 521.46,-208.899"/>
</g>
<!-- Node19&#45;&gt;Node10 -->
<g id="edge37" class="edge">
<title>Node19&#45;&gt;Node10</title>
<path fill="none" stroke="#191970" d="M798.7152,-380.4193C848.9499,-361.4783 920,-323.6954 920,-261.5 920,-261.5 920,-261.5 920,-127.5 920,-70.2955 850.9384,-35.97 808.4693,-20.2698"/>
<polygon fill="#191970" stroke="#191970" points="809.412,-16.8907 798.8172,-16.8508 807.0746,-23.489 809.412,-16.8907"/>
</g>
<!-- Node19&#45;&gt;Node11 -->
<g id="edge38" class="edge">
<title>Node19&#45;&gt;Node11</title>
<path fill="none" stroke="#191970" d="M807.6634,-384.2556C869.2199,-368.5086 958,-333.344 958,-261.5 958,-261.5 958,-261.5 958,-127.5 958,-88.4059 931.5934,-49.0308 914.1126,-27.248"/>
<polygon fill="#191970" stroke="#191970" points="916.7913,-24.9952 907.7057,-19.5452 911.4096,-29.4715 916.7913,-24.9952"/>
</g>
<!-- Node19&#45;&gt;Node17 -->
<g id="edge34" class="edge">
<title>Node19&#45;&gt;Node17</title>
<path fill="none" stroke="#191970" d="M711.6243,-380.4639C686.6299,-370.6708 653.822,-357.8162 627.0908,-347.3426"/>
<polygon fill="#191970" stroke="#191970" points="628.1308,-343.9911 617.5431,-343.6017 625.5771,-350.5086 628.1308,-343.9911"/>
</g>
<!-- Node20 -->
<g id="node21" class="node">
<title>Node20</title>
<g id="a_node21"><a xlink:href="container_2simple__vector_8hpp.html" target="_top" xlink:title="tlx/container/simple\l_vector.hpp">
<polygon fill="none" stroke="#000000" points="778,-179.5 778,-209.5 892,-209.5 892,-179.5 778,-179.5"/>
<text text-anchor="start" x="786" y="-197.5" font-family="Helvetica,sans-Serif" font-size="10.00" fill="#000000">tlx/container/simple</text>
<text text-anchor="middle" x="835" y="-186.5" font-family="Helvetica,sans-Serif" font-size="10.00" fill="#000000">_vector.hpp</text>
</a>
</g>
</g>
<!-- Node19&#45;&gt;Node20 -->
<g id="edge29" class="edge">
<title>Node19&#45;&gt;Node20</title>
<path fill="none" stroke="#191970" d="M756.3888,-380.3923C771.0078,-345.8226 806.9981,-260.7161 824.7545,-218.7277"/>
<polygon fill="#191970" stroke="#191970" points="827.9816,-220.0823 828.653,-209.5088 821.5344,-217.3559 827.9816,-220.0823"/>
</g>
<!-- Node22 -->
<g id="node23" class="node">
<title>Node22</title>
<polygon fill="none" stroke="#bfbfbf" points="816.5,-319 816.5,-338 859.5,-338 859.5,-319 816.5,-319"/>
<text text-anchor="middle" x="838" y="-326" font-family="Helvetica,sans-Serif" font-size="10.00" fill="#000000">stack</text>
</g>
<!-- Node19&#45;&gt;Node22 -->
<g id="edge36" class="edge">
<title>Node19&#45;&gt;Node22</title>
<path fill="none" stroke="#191970" d="M769.9686,-380.2967C784.0787,-369.5537 802.9451,-355.1895 817.2308,-344.3129"/>
<polygon fill="#191970" stroke="#191970" points="819.614,-346.8975 825.4502,-338.055 815.3736,-341.328 819.614,-346.8975"/>
</g>
<!-- Node20&#45;&gt;Node10 -->
<g id="edge32" class="edge">
<title>Node20&#45;&gt;Node10</title>
<path fill="none" stroke="#191970" d="M830.1718,-179.4016C819.501,-146.0329 793.9258,-66.0561 782.1392,-29.1979"/>
<polygon fill="#191970" stroke="#191970" points="785.459,-28.0883 779.0794,-19.6295 778.7916,-30.2204 785.459,-28.0883"/>
</g>
<!-- Node20&#45;&gt;Node15 -->
<g id="edge30" class="edge">
<title>Node20&#45;&gt;Node15</title>
<path fill="none" stroke="#191970" d="M797.7464,-179.4639C769.1409,-167.9183 729.9928,-152.1176 702.3978,-140.9798"/>
<polygon fill="#191970" stroke="#191970" points="703.378,-137.6012 692.7948,-137.1039 700.758,-144.0924 703.378,-137.6012"/>
</g>
<!-- Node21 -->
<g id="node22" class="node">
<title>Node21</title>
<polygon fill="none" stroke="#bfbfbf" points="842.5,-118 842.5,-137 891.5,-137 891.5,-118 842.5,-118"/>
<text text-anchor="middle" x="867" y="-125" font-family="Helvetica,sans-Serif" font-size="10.00" fill="#000000">cstdlib</text>
</g>
<!-- Node20&#45;&gt;Node21 -->
<g id="edge31" class="edge">
<title>Node20&#45;&gt;Node21</title>
<path fill="none" stroke="#191970" d="M842.2613,-179.2967C846.9566,-169.4658 853.1002,-156.6026 858.0904,-146.1545"/>
<polygon fill="#191970" stroke="#191970" points="861.2849,-147.587 862.4364,-137.055 854.9683,-144.5702 861.2849,-147.587"/>
</g>
</g>
</svg>
