<?xml version="1.0" encoding="UTF-8" standalone="no"?>
<!DOCTYPE svg PUBLIC "-//W3C//DTD SVG 1.1//EN"
 "http://www.w3.org/Graphics/SVG/1.1/DTD/svg11.dtd">
<!-- Generated by graphviz version 2.36.0 (20140111.2315)
 -->
<!-- Title: extlib/tlx/tlx/sort/strings.hpp Pages: 1 -->
<svg width="866pt" height="492pt"
 viewBox="0.00 0.00 866.00 492.00" xmlns="http://www.w3.org/2000/svg" xmlns:xlink="http://www.w3.org/1999/xlink">
<g id="graph0" class="graph" transform="scale(1 1) rotate(0) translate(4 488)">
<title>extlib/tlx/tlx/sort/strings.hpp</title>
<!-- Node1 -->
<g id="node1" class="node"><title>Node1</title>
<polygon fill="#bfbfbf" stroke="black" points="370,-453 370,-483 456,-483 456,-453 370,-453"/>
<text text-anchor="start" x="378" y="-471" font-family="Helvetica,sans-Serif" font-size="10.00">extlib/tlx/tlx/sort</text>
<text text-anchor="middle" x="413" y="-460" font-family="Helvetica,sans-Serif" font-size="10.00">/strings.hpp</text>
</g>
<!-- Node1&#45;&gt;Node1 -->
<g id="edge1" class="edge"><title>Node1&#45;&gt;Node1</title>
<path fill="none" stroke="midnightblue" d="M456.036,-480.525C466.355,-479.546 474,-475.371 474,-468 474,-463.278 470.862,-459.867 465.894,-457.769"/>
<polygon fill="midnightblue" stroke="midnightblue" points="466.569,-454.332 456.036,-455.475 464.983,-461.15 466.569,-454.332"/>
</g>
<!-- Node2 -->
<g id="node2" class="node"><title>Node2</title>
<g id="a_node2"><a xlink:href="insertion__sort_8hpp.html" target="_top" xlink:title="tlx/sort/strings/insertion\l_sort.hpp">
<polygon fill="none" stroke="black" points="360.5,-249 360.5,-279 479.5,-279 479.5,-249 360.5,-249"/>
<text text-anchor="start" x="368.5" y="-267" font-family="Helvetica,sans-Serif" font-size="10.00">tlx/sort/strings/insertion</text>
<text text-anchor="middle" x="420" y="-256" font-family="Helvetica,sans-Serif" font-size="10.00">_sort.hpp</text>
</a>
</g>
</g>
<!-- Node1&#45;&gt;Node2 -->
<g id="edge2" class="edge"><title>Node1&#45;&gt;Node2</title>
<path fill="none" stroke="midnightblue" d="M413.44,-452.843C414.277,-426.102 416.18,-366.328 418,-316 418.312,-307.38 418.676,-297.941 419.007,-289.553"/>
<polygon fill="midnightblue" stroke="midnightblue" points="422.515,-289.42 419.416,-279.288 415.52,-289.141 422.515,-289.42"/>
</g>
<!-- Node8 -->
<g id="node8" class="node"><title>Node8</title>
<polygon fill="none" stroke="#bfbfbf" points="161,-0.5 161,-19.5 207,-19.5 207,-0.5 161,-0.5"/>
<text text-anchor="middle" x="184" y="-7.5" font-family="Helvetica,sans-Serif" font-size="10.00">cstdint</text>
</g>
<!-- Node1&#45;&gt;Node8 -->
<g id="edge39" class="edge"><title>Node1&#45;&gt;Node8</title>
<path fill="none" stroke="midnightblue" d="M369.85,-463.782C291.8,-457.406 130.655,-441.537 81,-416 35.1624,-392.427 0,-384.544 0,-333 0,-333 0,-333 0,-127 0,-90.9973 11.1121,-78.7698 39,-56 71.2845,-29.6405 119.007,-18.6757 150.779,-14.1445"/>
<polygon fill="midnightblue" stroke="midnightblue" points="151.426,-17.5902 160.897,-12.8415 150.532,-10.6475 151.426,-17.5902"/>
</g>
<!-- Node10 -->
<g id="node10" class="node"><title>Node10</title>
<polygon fill="none" stroke="#bfbfbf" points="280.5,-0.5 280.5,-19.5 321.5,-19.5 321.5,-0.5 280.5,-0.5"/>
<text text-anchor="middle" x="301" y="-7.5" font-family="Helvetica,sans-Serif" font-size="10.00">string</text>
</g>
<!-- Node1&#45;&gt;Node10 -->
<g id="edge40" class="edge"><title>Node1&#45;&gt;Node10</title>
<path fill="none" stroke="midnightblue" d="M369.983,-460.949C271.482,-445.889 38,-402.827 38,-333 38,-333 38,-333 38,-127 38,-94.3341 33.0065,-78.1669 57,-56 72.5528,-41.6312 208.156,-22.7881 270.222,-14.8204"/>
<polygon fill="midnightblue" stroke="midnightblue" points="270.739,-18.2829 280.218,-13.5497 269.856,-11.3388 270.739,-18.2829"/>
</g>
<!-- Node12 -->
<g id="node12" class="node"><title>Node12</title>
<polygon fill="none" stroke="#bfbfbf" points="522,-0.5 522,-19.5 566,-19.5 566,-0.5 522,-0.5"/>
<text text-anchor="middle" x="544" y="-7.5" font-family="Helvetica,sans-Serif" font-size="10.00">vector</text>
</g>
<!-- Node1&#45;&gt;Node12 -->
<g id="edge41" class="edge"><title>Node1&#45;&gt;Node12</title>
<path fill="none" stroke="midnightblue" d="M423.367,-452.731C449.723,-415.468 518.903,-311.233 543,-212 558.901,-146.518 551.383,-65.4588 546.728,-29.5799"/>
<polygon fill="midnightblue" stroke="midnightblue" points="550.185,-29.0234 545.351,-19.5955 543.25,-29.98 550.185,-29.0234"/>
</g>
<!-- Node18 -->
<g id="node18" class="node"><title>Node18</title>
<g id="a_node18"><a xlink:href="multikey__quicksort_8hpp.html" target="_top" xlink:title="tlx/sort/strings/multikey\l_quicksort.hpp">
<polygon fill="none" stroke="black" points="672.5,-317 672.5,-347 791.5,-347 791.5,-317 672.5,-317"/>
<text text-anchor="start" x="680.5" y="-335" font-family="Helvetica,sans-Serif" font-size="10.00">tlx/sort/strings/multikey</text>
<text text-anchor="middle" x="732" y="-324" font-family="Helvetica,sans-Serif" font-size="10.00">_quicksort.hpp</text>
</a>
</g>
</g>
<!-- Node1&#45;&gt;Node18 -->
<g id="edge23" class="edge"><title>Node1&#45;&gt;Node18</title>
<path fill="none" stroke="midnightblue" d="M456.009,-464.002C503.605,-459.222 581.449,-446.984 641,-416 670.212,-400.801 697.209,-373.852 714.085,-354.791"/>
<polygon fill="midnightblue" stroke="midnightblue" points="716.787,-357.017 720.675,-347.161 711.489,-352.441 716.787,-357.017"/>
</g>
<!-- Node20 -->
<g id="node20" class="node"><title>Node20</title>
<g id="a_node20"><a xlink:href="extlib_2tlx_2tlx_2sort_2strings_2radix__sort_8hpp.html" target="_top" xlink:title="tlx/sort/strings/radix\l_sort.hpp">
<polygon fill="none" stroke="black" points="529.5,-385 529.5,-415 632.5,-415 632.5,-385 529.5,-385"/>
<text text-anchor="start" x="537.5" y="-403" font-family="Helvetica,sans-Serif" font-size="10.00">tlx/sort/strings/radix</text>
<text text-anchor="middle" x="581" y="-392" font-family="Helvetica,sans-Serif" font-size="10.00">_sort.hpp</text>
</a>
</g>
</g>
<!-- Node1&#45;&gt;Node20 -->
<g id="edge28" class="edge"><title>Node1&#45;&gt;Node20</title>
<path fill="none" stroke="midnightblue" d="M449.04,-452.841C474.483,-442.846 508.753,-429.383 535.992,-418.682"/>
<polygon fill="midnightblue" stroke="midnightblue" points="537.28,-421.936 545.308,-415.022 534.721,-415.421 537.28,-421.936"/>
</g>
<!-- Node3 -->
<g id="node3" class="node"><title>Node3</title>
<g id="a_node3"><a xlink:href="likely_8hpp.html" target="_top" xlink:title="tlx/define/likely.hpp">
<polygon fill="none" stroke="black" points="433.5,-186.5 433.5,-205.5 534.5,-205.5 534.5,-186.5 433.5,-186.5"/>
<text text-anchor="middle" x="484" y="-193.5" font-family="Helvetica,sans-Serif" font-size="10.00">tlx/define/likely.hpp</text>
</a>
</g>
</g>
<!-- Node2&#45;&gt;Node3 -->
<g id="edge3" class="edge"><title>Node2&#45;&gt;Node3</title>
<path fill="none" stroke="midnightblue" d="M433.887,-248.679C444.064,-238.184 457.884,-223.932 468.434,-213.052"/>
<polygon fill="midnightblue" stroke="midnightblue" points="470.99,-215.444 475.439,-205.828 465.965,-210.571 470.99,-215.444"/>
</g>
<!-- Node4 -->
<g id="node4" class="node"><title>Node4</title>
<g id="a_node4"><a xlink:href="enable__if_8hpp.html" target="_top" xlink:title="tlx/meta/enable_if.hpp">
<polygon fill="none" stroke="black" points="302.5,-186.5 302.5,-205.5 415.5,-205.5 415.5,-186.5 302.5,-186.5"/>
<text text-anchor="middle" x="359" y="-193.5" font-family="Helvetica,sans-Serif" font-size="10.00">tlx/meta/enable_if.hpp</text>
</a>
</g>
</g>
<!-- Node2&#45;&gt;Node4 -->
<g id="edge4" class="edge"><title>Node2&#45;&gt;Node4</title>
<path fill="none" stroke="midnightblue" d="M406.764,-248.679C397.159,-238.286 384.147,-224.208 374.13,-213.37"/>
<polygon fill="midnightblue" stroke="midnightblue" points="376.517,-210.796 367.159,-205.828 371.377,-215.548 376.517,-210.796"/>
</g>
<!-- Node5 -->
<g id="node5" class="node"><title>Node5</title>
<g id="a_node5"><a xlink:href="string__ptr_8hpp.html" target="_top" xlink:title="tlx/sort/strings/string\l_ptr.hpp">
<polygon fill="none" stroke="black" points="178,-181 178,-211 284,-211 284,-181 178,-181"/>
<text text-anchor="start" x="186" y="-199" font-family="Helvetica,sans-Serif" font-size="10.00">tlx/sort/strings/string</text>
<text text-anchor="middle" x="231" y="-188" font-family="Helvetica,sans-Serif" font-size="10.00">_ptr.hpp</text>
</a>
</g>
</g>
<!-- Node2&#45;&gt;Node5 -->
<g id="edge5" class="edge"><title>Node2&#45;&gt;Node5</title>
<path fill="none" stroke="midnightblue" d="M379.455,-248.841C350.582,-238.759 311.604,-225.147 280.833,-214.402"/>
<polygon fill="midnightblue" stroke="midnightblue" points="281.748,-211.014 271.153,-211.022 279.44,-217.623 281.748,-211.014"/>
</g>
<!-- Node6 -->
<g id="node6" class="node"><title>Node6</title>
<g id="a_node6"><a xlink:href="string__set_8hpp.html" target="_top" xlink:title="tlx/sort/strings/string\l_set.hpp">
<polygon fill="none" stroke="black" points="229,-113 229,-143 335,-143 335,-113 229,-113"/>
<text text-anchor="start" x="237" y="-131" font-family="Helvetica,sans-Serif" font-size="10.00">tlx/sort/strings/string</text>
<text text-anchor="middle" x="282" y="-120" font-family="Helvetica,sans-Serif" font-size="10.00">_set.hpp</text>
</a>
</g>
</g>
<!-- Node5&#45;&gt;Node6 -->
<g id="edge6" class="edge"><title>Node5&#45;&gt;Node6</title>
<path fill="none" stroke="midnightblue" d="M242.066,-180.679C248.683,-172.117 257.232,-161.053 264.722,-151.36"/>
<polygon fill="midnightblue" stroke="midnightblue" points="267.61,-153.346 270.955,-143.293 262.071,-149.066 267.61,-153.346"/>
</g>
<!-- Node7 -->
<g id="node7" class="node"><title>Node7</title>
<polygon fill="none" stroke="#bfbfbf" points="66.5,-56.5 66.5,-75.5 115.5,-75.5 115.5,-56.5 66.5,-56.5"/>
<text text-anchor="middle" x="91" y="-63.5" font-family="Helvetica,sans-Serif" font-size="10.00">cassert</text>
</g>
<!-- Node5&#45;&gt;Node7 -->
<g id="edge21" class="edge"><title>Node5&#45;&gt;Node7</title>
<path fill="none" stroke="midnightblue" d="M215.483,-180.813C189.03,-156.627 135.412,-107.605 107.988,-82.5322"/>
<polygon fill="midnightblue" stroke="midnightblue" points="110.12,-79.7384 100.378,-75.5738 105.396,-84.9046 110.12,-79.7384"/>
</g>
<!-- Node16 -->
<g id="node16" class="node"><title>Node16</title>
<polygon fill="none" stroke="#bfbfbf" points="634,-118.5 634,-137.5 690,-137.5 690,-118.5 634,-118.5"/>
<text text-anchor="middle" x="662" y="-125.5" font-family="Helvetica,sans-Serif" font-size="10.00">algorithm</text>
</g>
<!-- Node5&#45;&gt;Node16 -->
<g id="edge20" class="edge"><title>Node5&#45;&gt;Node16</title>
<path fill="none" stroke="midnightblue" d="M284.024,-181.802C287.054,-181.163 290.062,-180.557 293,-180 412.721,-157.303 556.103,-140.389 623.462,-133.041"/>
<polygon fill="midnightblue" stroke="midnightblue" points="624.038,-136.499 633.604,-131.944 623.286,-129.539 624.038,-136.499"/>
</g>
<!-- Node17 -->
<g id="node17" class="node"><title>Node17</title>
<polygon fill="none" stroke="#bfbfbf" points="352.5,-118.5 352.5,-137.5 401.5,-137.5 401.5,-118.5 352.5,-118.5"/>
<text text-anchor="middle" x="377" y="-125.5" font-family="Helvetica,sans-Serif" font-size="10.00">stdint.h</text>
</g>
<!-- Node5&#45;&gt;Node17 -->
<g id="edge22" class="edge"><title>Node5&#45;&gt;Node17</title>
<path fill="none" stroke="midnightblue" d="M262.321,-180.841C287.914,-169.272 323.786,-153.055 348.564,-141.855"/>
<polygon fill="midnightblue" stroke="midnightblue" points="350.124,-144.99 357.795,-137.682 347.241,-138.612 350.124,-144.99"/>
</g>
<!-- Node6&#45;&gt;Node7 -->
<g id="edge7" class="edge"><title>Node6&#45;&gt;Node7</title>
<path fill="none" stroke="midnightblue" d="M237.219,-112.933C202.993,-102.181 156.524,-87.5833 125.236,-77.7548"/>
<polygon fill="midnightblue" stroke="midnightblue" points="126.235,-74.4001 115.646,-74.7422 124.137,-81.0783 126.235,-74.4001"/>
</g>
<!-- Node6&#45;&gt;Node8 -->
<g id="edge8" class="edge"><title>Node6&#45;&gt;Node8</title>
<path fill="none" stroke="midnightblue" d="M276.34,-112.854C269.821,-97.702 258.047,-73.4797 243,-56 232.686,-44.0188 218.703,-33.1836 206.938,-25.149"/>
<polygon fill="midnightblue" stroke="midnightblue" points="208.749,-22.151 198.471,-19.5782 204.901,-27.9987 208.749,-22.151"/>
</g>
<!-- Node9 -->
<g id="node9" class="node"><title>Node9</title>
<polygon fill="none" stroke="#bfbfbf" points="445,-56.5 445,-75.5 497,-75.5 497,-56.5 445,-56.5"/>
<text text-anchor="middle" x="471" y="-63.5" font-family="Helvetica,sans-Serif" font-size="10.00">memory</text>
</g>
<!-- Node6&#45;&gt;Node9 -->
<g id="edge9" class="edge"><title>Node6&#45;&gt;Node9</title>
<path fill="none" stroke="midnightblue" d="M326.312,-112.933C359.347,-102.445 403.908,-88.2989 434.812,-78.4883"/>
<polygon fill="midnightblue" stroke="midnightblue" points="436.26,-81.7008 444.732,-75.339 434.142,-75.029 436.26,-81.7008"/>
</g>
<!-- Node6&#45;&gt;Node10 -->
<g id="edge10" class="edge"><title>Node6&#45;&gt;Node10</title>
<path fill="none" stroke="midnightblue" d="M284.33,-112.776C287.753,-91.8757 294.146,-52.8436 297.943,-29.6638"/>
<polygon fill="midnightblue" stroke="midnightblue" points="301.411,-30.1413 299.574,-19.707 294.503,-29.0097 301.411,-30.1413"/>
</g>
<!-- Node11 -->
<g id="node11" class="node"><title>Node11</title>
<polygon fill="none" stroke="#bfbfbf" points="698,-0.5 698,-19.5 738,-19.5 738,-0.5 698,-0.5"/>
<text text-anchor="middle" x="718" y="-7.5" font-family="Helvetica,sans-Serif" font-size="10.00">utility</text>
</g>
<!-- Node6&#45;&gt;Node11 -->
<g id="edge11" class="edge"><title>Node6&#45;&gt;Node11</title>
<path fill="none" stroke="midnightblue" d="M335.193,-113.754C337.83,-113.149 340.444,-112.561 343,-112 425.241,-93.9413 447.656,-97.7452 529,-76 586.299,-60.6828 651.34,-36.842 688.241,-22.6886"/>
<polygon fill="midnightblue" stroke="midnightblue" points="689.805,-25.8365 697.872,-18.9686 687.283,-19.3066 689.805,-25.8365"/>
</g>
<!-- Node6&#45;&gt;Node12 -->
<g id="edge12" class="edge"><title>Node6&#45;&gt;Node12</title>
<path fill="none" stroke="midnightblue" d="M335.212,-113.836C337.844,-113.21 340.451,-112.595 343,-112 415.249,-95.1409 446.033,-119.683 506,-76 521.814,-64.4805 532.126,-44.2124 537.963,-29.3632"/>
<polygon fill="midnightblue" stroke="midnightblue" points="541.344,-30.3054 541.438,-19.711 534.758,-27.9343 541.344,-30.3054"/>
</g>
<!-- Node13 -->
<g id="node13" class="node"><title>Node13</title>
<g id="a_node13"><a xlink:href="logger_2core_8hpp.html" target="_top" xlink:title="tlx/logger/core.hpp">
<polygon fill="none" stroke="black" points="329.5,-56.5 329.5,-75.5 426.5,-75.5 426.5,-56.5 329.5,-56.5"/>
<text text-anchor="middle" x="378" y="-63.5" font-family="Helvetica,sans-Serif" font-size="10.00">tlx/logger/core.hpp</text>
</a>
</g>
</g>
<!-- Node6&#45;&gt;Node13 -->
<g id="edge13" class="edge"><title>Node6&#45;&gt;Node13</title>
<path fill="none" stroke="midnightblue" d="M304.751,-112.781C320.087,-103.196 340.23,-90.6062 355.511,-81.0555"/>
<polygon fill="midnightblue" stroke="midnightblue" points="357.686,-83.8237 364.311,-75.5557 353.976,-77.8877 357.686,-83.8237"/>
</g>
<!-- Node15 -->
<g id="node15" class="node"><title>Node15</title>
<g id="a_node15"><a xlink:href="bswap_8hpp.html" target="_top" xlink:title="tlx/math/bswap.hpp">
<polygon fill="none" stroke="black" points="133,-56.5 133,-75.5 235,-75.5 235,-56.5 133,-56.5"/>
<text text-anchor="middle" x="184" y="-63.5" font-family="Helvetica,sans-Serif" font-size="10.00">tlx/math/bswap.hpp</text>
</a>
</g>
</g>
<!-- Node6&#45;&gt;Node15 -->
<g id="edge18" class="edge"><title>Node6&#45;&gt;Node15</title>
<path fill="none" stroke="midnightblue" d="M258.775,-112.781C242.972,-103.105 222.168,-90.3684 206.517,-80.7861"/>
<polygon fill="midnightblue" stroke="midnightblue" points="208.33,-77.7923 197.974,-75.5557 204.675,-83.7623 208.33,-77.7923"/>
</g>
<!-- Node13&#45;&gt;Node10 -->
<g id="edge15" class="edge"><title>Node13&#45;&gt;Node10</title>
<path fill="none" stroke="midnightblue" d="M365.629,-56.324C353.842,-48.0577 335.868,-35.4527 321.864,-25.6322"/>
<polygon fill="midnightblue" stroke="midnightblue" points="323.538,-22.5307 313.341,-19.6545 319.518,-28.2619 323.538,-22.5307"/>
</g>
<!-- Node13&#45;&gt;Node11 -->
<g id="edge16" class="edge"><title>Node13&#45;&gt;Node11</title>
<path fill="none" stroke="midnightblue" d="M426.714,-57.2631C497.932,-45.952 628.408,-25.2293 687.492,-15.8454"/>
<polygon fill="midnightblue" stroke="midnightblue" points="688.336,-19.2553 697.663,-14.23 687.238,-12.342 688.336,-19.2553"/>
</g>
<!-- Node13&#45;&gt;Node12 -->
<g id="edge17" class="edge"><title>Node13&#45;&gt;Node12</title>
<path fill="none" stroke="midnightblue" d="M404.303,-56.4435C433.588,-46.9171 480.911,-31.5228 512.238,-21.3321"/>
<polygon fill="midnightblue" stroke="midnightblue" points="513.377,-24.6422 521.804,-18.2203 511.212,-17.9855 513.377,-24.6422"/>
</g>
<!-- Node14 -->
<g id="node14" class="node"><title>Node14</title>
<polygon fill="none" stroke="#bfbfbf" points="352,-0.5 352,-19.5 404,-19.5 404,-0.5 352,-0.5"/>
<text text-anchor="middle" x="378" y="-7.5" font-family="Helvetica,sans-Serif" font-size="10.00">sstream</text>
</g>
<!-- Node13&#45;&gt;Node14 -->
<g id="edge14" class="edge"><title>Node13&#45;&gt;Node14</title>
<path fill="none" stroke="midnightblue" d="M378,-56.083C378,-49.0059 378,-38.8611 378,-29.9865"/>
<polygon fill="midnightblue" stroke="midnightblue" points="381.5,-29.751 378,-19.7511 374.5,-29.7511 381.5,-29.751"/>
</g>
<!-- Node15&#45;&gt;Node8 -->
<g id="edge19" class="edge"><title>Node15&#45;&gt;Node8</title>
<path fill="none" stroke="midnightblue" d="M184,-56.083C184,-49.0059 184,-38.8611 184,-29.9865"/>
<polygon fill="midnightblue" stroke="midnightblue" points="187.5,-29.751 184,-19.7511 180.5,-29.7511 187.5,-29.751"/>
</g>
<!-- Node18&#45;&gt;Node2 -->
<g id="edge24" class="edge"><title>Node18&#45;&gt;Node2</title>
<path fill="none" stroke="midnightblue" d="M672.212,-318.353C620.075,-307.323 544.413,-291.318 489.573,-279.717"/>
<polygon fill="midnightblue" stroke="midnightblue" points="490.093,-276.25 479.585,-277.605 488.644,-283.098 490.093,-276.25"/>
</g>
<!-- Node18&#45;&gt;Node11 -->
<g id="edge27" class="edge"><title>Node18&#45;&gt;Node11</title>
<path fill="none" stroke="midnightblue" d="M749.386,-316.951C775.032,-294.522 820,-247.933 820,-197 820,-197 820,-197 820,-127 820,-80.5812 773.368,-43.9019 743.164,-25.0131"/>
<polygon fill="midnightblue" stroke="midnightblue" points="744.761,-21.8889 734.388,-19.731 741.151,-27.8865 744.761,-21.8889"/>
</g>
<!-- Node18&#45;&gt;Node16 -->
<g id="edge25" class="edge"><title>Node18&#45;&gt;Node16</title>
<path fill="none" stroke="midnightblue" d="M721.997,-316.818C715.336,-306.877 706.78,-293.079 701,-280 680.904,-234.525 669.572,-176.598 664.77,-147.479"/>
<polygon fill="midnightblue" stroke="midnightblue" points="668.212,-146.836 663.198,-137.502 661.298,-147.925 668.212,-146.836"/>
</g>
<!-- Node19 -->
<g id="node19" class="node"><title>Node19</title>
<polygon fill="none" stroke="#bfbfbf" points="710.5,-254.5 710.5,-273.5 759.5,-273.5 759.5,-254.5 710.5,-254.5"/>
<text text-anchor="middle" x="735" y="-261.5" font-family="Helvetica,sans-Serif" font-size="10.00">cstddef</text>
</g>
<!-- Node18&#45;&gt;Node19 -->
<g id="edge26" class="edge"><title>Node18&#45;&gt;Node19</title>
<path fill="none" stroke="midnightblue" d="M732.651,-316.679C733.086,-307.101 733.664,-294.394 734.137,-283.977"/>
<polygon fill="midnightblue" stroke="midnightblue" points="737.641,-283.977 734.599,-273.828 730.648,-283.659 737.641,-283.977"/>
</g>
<!-- Node20&#45;&gt;Node3 -->
<g id="edge33" class="edge"><title>Node20&#45;&gt;Node3</title>
<path fill="none" stroke="midnightblue" d="M561.483,-384.936C549.915,-375.654 535.834,-362.55 527,-348 501.023,-305.218 490.188,-246.12 486.138,-216.125"/>
<polygon fill="midnightblue" stroke="midnightblue" points="489.566,-215.319 484.865,-205.824 482.618,-216.178 489.566,-215.319"/>
</g>
<!-- Node20&#45;&gt;Node5 -->
<g id="edge35" class="edge"><title>Node20&#45;&gt;Node5</title>
<path fill="none" stroke="midnightblue" d="M550.932,-384.964C506.364,-363.822 420.549,-321.812 351,-280 318.13,-260.239 282.166,-234.82 258.265,-217.348"/>
<polygon fill="midnightblue" stroke="midnightblue" points="260.163,-214.399 250.033,-211.295 256.017,-220.039 260.163,-214.399"/>
</g>
<!-- Node20&#45;&gt;Node11 -->
<g id="edge37" class="edge"><title>Node20&#45;&gt;Node11</title>
<path fill="none" stroke="midnightblue" d="M632.777,-396.629C712.95,-389.869 858,-363.964 858,-265 858,-265 858,-265 858,-127 858,-70.1372 788.673,-35.8608 747.59,-20.5407"/>
<polygon fill="midnightblue" stroke="midnightblue" points="748.653,-17.2039 738.059,-17.1357 746.298,-23.7959 748.653,-17.2039"/>
</g>
<!-- Node20&#45;&gt;Node12 -->
<g id="edge38" class="edge"><title>Node20&#45;&gt;Node12</title>
<path fill="none" stroke="midnightblue" d="M585.469,-384.688C592.66,-360.356 606,-309.254 606,-265 606,-265 606,-265 606,-195 606,-131.892 602.688,-113.643 577,-56 572.424,-45.7322 565.217,-35.5276 558.704,-27.4383"/>
<polygon fill="midnightblue" stroke="midnightblue" points="561.196,-24.9642 552.066,-19.5878 555.85,-29.4839 561.196,-24.9642"/>
</g>
<!-- Node20&#45;&gt;Node18 -->
<g id="edge34" class="edge"><title>Node20&#45;&gt;Node18</title>
<path fill="none" stroke="midnightblue" d="M613.393,-384.841C635.962,-374.977 666.258,-361.735 690.581,-351.104"/>
<polygon fill="midnightblue" stroke="midnightblue" points="692.159,-354.234 699.92,-347.022 689.355,-347.82 692.159,-354.234"/>
</g>
<!-- Node21 -->
<g id="node21" class="node"><title>Node21</title>
<g id="a_node21"><a xlink:href="container_2simple__vector_8hpp.html" target="_top" xlink:title="tlx/container/simple\l_vector.hpp">
<polygon fill="none" stroke="black" points="690.5,-181 690.5,-211 791.5,-211 791.5,-181 690.5,-181"/>
<text text-anchor="start" x="698.5" y="-199" font-family="Helvetica,sans-Serif" font-size="10.00">tlx/container/simple</text>
<text text-anchor="middle" x="741" y="-188" font-family="Helvetica,sans-Serif" font-size="10.00">_vector.hpp</text>
</a>
</g>
</g>
<!-- Node20&#45;&gt;Node21 -->
<g id="edge29" class="edge"><title>Node20&#45;&gt;Node21</title>
<path fill="none" stroke="midnightblue" d="M592.251,-384.796C619.735,-350.097 690.449,-260.82 723.495,-219.101"/>
<polygon fill="midnightblue" stroke="midnightblue" points="726.296,-221.201 729.762,-211.189 720.809,-216.854 726.296,-221.201"/>
</g>
<!-- Node23 -->
<g id="node23" class="node"><title>Node23</title>
<polygon fill="none" stroke="#bfbfbf" points="536.5,-322.5 536.5,-341.5 577.5,-341.5 577.5,-322.5 536.5,-322.5"/>
<text text-anchor="middle" x="557" y="-329.5" font-family="Helvetica,sans-Serif" font-size="10.00">stack</text>
</g>
<!-- Node20&#45;&gt;Node23 -->
<g id="edge36" class="edge"><title>Node20&#45;&gt;Node23</title>
<path fill="none" stroke="midnightblue" d="M575.792,-384.679C572.235,-374.898 567.491,-361.852 563.66,-351.315"/>
<polygon fill="midnightblue" stroke="midnightblue" points="566.917,-350.03 560.21,-341.828 560.339,-352.422 566.917,-350.03"/>
</g>
<!-- Node21&#45;&gt;Node11 -->
<g id="edge32" class="edge"><title>Node21&#45;&gt;Node11</title>
<path fill="none" stroke="midnightblue" d="M739.233,-180.867C735.134,-148.074 724.975,-66.7976 720.355,-29.8364"/>
<polygon fill="midnightblue" stroke="midnightblue" points="723.825,-29.3798 719.111,-19.8912 716.879,-30.2481 723.825,-29.3798"/>
</g>
<!-- Node21&#45;&gt;Node16 -->
<g id="edge30" class="edge"><title>Node21&#45;&gt;Node16</title>
<path fill="none" stroke="midnightblue" d="M723.858,-180.679C711.053,-169.981 693.572,-155.377 680.46,-144.422"/>
<polygon fill="midnightblue" stroke="midnightblue" points="682.485,-141.554 672.567,-137.828 677.997,-146.926 682.485,-141.554"/>
</g>
<!-- Node22 -->
<g id="node22" class="node"><title>Node22</title>
<polygon fill="none" stroke="#bfbfbf" points="746.5,-118.5 746.5,-137.5 791.5,-137.5 791.5,-118.5 746.5,-118.5"/>
<text text-anchor="middle" x="769" y="-125.5" font-family="Helvetica,sans-Serif" font-size="10.00">cstdlib</text>
</g>
<!-- Node21&#45;&gt;Node22 -->
<g id="edge31" class="edge"><title>Node21&#45;&gt;Node22</title>
<path fill="none" stroke="midnightblue" d="M747.076,-180.679C751.225,-170.898 756.76,-157.852 761.23,-147.315"/>
<polygon fill="midnightblue" stroke="midnightblue" points="764.571,-148.401 765.255,-137.828 758.127,-145.667 764.571,-148.401"/>
</g>
</g>
</svg>
