<?xml version="1.0" encoding="UTF-8" standalone="no"?>
<!DOCTYPE svg PUBLIC "-//W3C//DTD SVG 1.1//EN"
 "http://www.w3.org/Graphics/SVG/1.1/DTD/svg11.dtd">
<!-- Generated by graphviz version 2.40.1 (20161225.0304)
 -->
<!-- Title: extlib/tlx/tlx/sort/strings/string_ptr.hpp Pages: 1 -->
<svg width="669pt" height="218pt"
 viewBox="0.00 0.00 669.00 218.00" xmlns="http://www.w3.org/2000/svg" xmlns:xlink="http://www.w3.org/1999/xlink">
<g id="graph0" class="graph" transform="scale(1 1) rotate(0) translate(4 214)">
<title>extlib/tlx/tlx/sort/strings/string_ptr.hpp</title>
<!-- Node0 -->
<g id="node1" class="node">
<title>Node0</title>
<polygon fill="#bfbfbf" stroke="#000000" points="276,-179.5 276,-209.5 398,-209.5 398,-179.5 276,-179.5"/>
<text text-anchor="start" x="284" y="-197.5" font-family="Helvetica,sans-Serif" font-size="10.00" fill="#000000">extlib/tlx/tlx/sort</text>
<text text-anchor="middle" x="337" y="-186.5" font-family="Helvetica,sans-Serif" font-size="10.00" fill="#000000">/strings/string_ptr.hpp</text>
</g>
<!-- Node1 -->
<g id="node2" class="node">
<title>Node1</title>
<g id="a_node2"><a xlink:href="string__set_8hpp.html" target="_top" xlink:title="tlx/sort/strings/string\l_set.hpp">
<polygon fill="none" stroke="#000000" points="224,-112.5 224,-142.5 342,-142.5 342,-112.5 224,-112.5"/>
<text text-anchor="start" x="232" y="-130.5" font-family="Helvetica,sans-Serif" font-size="10.00" fill="#000000">tlx/sort/strings/string</text>
<text text-anchor="middle" x="283" y="-119.5" font-family="Helvetica,sans-Serif" font-size="10.00" fill="#000000">_set.hpp</text>
</a>
</g>
</g>
<!-- Node0&#45;&gt;Node1 -->
<g id="edge1" class="edge">
<title>Node0&#45;&gt;Node1</title>
<path fill="none" stroke="#191970" d="M324.7466,-179.2967C317.9114,-170.816 309.2573,-160.0785 301.6031,-150.5817"/>
<polygon fill="#191970" stroke="#191970" points="304.2053,-148.2328 295.2049,-142.6432 298.7551,-152.6255 304.2053,-148.2328"/>
</g>
<!-- Node2 -->
<g id="node3" class="node">
<title>Node2</title>
<polygon fill="none" stroke="#bfbfbf" points="0,-56.5 0,-75.5 52,-75.5 52,-56.5 0,-56.5"/>
<text text-anchor="middle" x="26" y="-63.5" font-family="Helvetica,sans-Serif" font-size="10.00" fill="#000000">cassert</text>
</g>
<!-- Node0&#45;&gt;Node2 -->
<g id="edge17" class="edge">
<title>Node0&#45;&gt;Node2</title>
<path fill="none" stroke="#191970" d="M300.4098,-179.3816C239.24,-154.1072 117.1768,-103.6727 58.7029,-79.5123"/>
<polygon fill="#191970" stroke="#191970" points="59.7958,-76.1769 49.2171,-75.5929 57.1227,-82.6464 59.7958,-76.1769"/>
</g>
<!-- Node12 -->
<g id="node13" class="node">
<title>Node12</title>
<polygon fill="none" stroke="#bfbfbf" points="360,-118 360,-137 424,-137 424,-118 360,-118"/>
<text text-anchor="middle" x="392" y="-125" font-family="Helvetica,sans-Serif" font-size="10.00" fill="#000000">algorithm</text>
</g>
<!-- Node0&#45;&gt;Node12 -->
<g id="edge16" class="edge">
<title>Node0&#45;&gt;Node12</title>
<path fill="none" stroke="#191970" d="M349.4804,-179.2967C357.8832,-169.0605 368.9849,-155.5366 377.7373,-144.8746"/>
<polygon fill="#191970" stroke="#191970" points="380.5167,-147.005 384.1564,-137.055 375.1061,-142.5635 380.5167,-147.005"/>
</g>
<!-- Node13 -->
<g id="node14" class="node">
<title>Node13</title>
<polygon fill="none" stroke="#bfbfbf" points="442.5,-118 442.5,-137 495.5,-137 495.5,-118 442.5,-118"/>
<text text-anchor="middle" x="469" y="-125" font-family="Helvetica,sans-Serif" font-size="10.00" fill="#000000">stdint.h</text>
</g>
<!-- Node0&#45;&gt;Node13 -->
<g id="edge18" class="edge">
<title>Node0&#45;&gt;Node13</title>
<path fill="none" stroke="#191970" d="M366.6234,-179.4639C388.8711,-168.1715 419.1384,-152.8086 440.9861,-141.7192"/>
<polygon fill="#191970" stroke="#191970" points="442.7459,-144.7511 450.0788,-137.1039 439.5776,-138.5091 442.7459,-144.7511"/>
</g>
<!-- Node1&#45;&gt;Node2 -->
<g id="edge2" class="edge">
<title>Node1&#45;&gt;Node2</title>
<path fill="none" stroke="#191970" d="M223.909,-114.6419C181.3431,-105.1846 122.3282,-91.6755 62.022,-76.1812"/>
<polygon fill="#191970" stroke="#191970" points="62.8921,-72.7912 52.3345,-73.6778 61.1407,-79.5685 62.8921,-72.7912"/>
</g>
<!-- Node3 -->
<g id="node4" class="node">
<title>Node3</title>
<polygon fill="none" stroke="#bfbfbf" points="174,-.5 174,-19.5 224,-19.5 224,-.5 174,-.5"/>
<text text-anchor="middle" x="199" y="-7.5" font-family="Helvetica,sans-Serif" font-size="10.00" fill="#000000">cstdint</text>
</g>
<!-- Node1&#45;&gt;Node3 -->
<g id="edge3" class="edge">
<title>Node1&#45;&gt;Node3</title>
<path fill="none" stroke="#191970" d="M223.9132,-113.0059C204.9899,-105.2686 186.0855,-93.5675 175,-76 165.4994,-60.9442 174.6444,-41.5917 184.2559,-27.742"/>
<polygon fill="#191970" stroke="#191970" points="187.2185,-29.6266 190.4481,-19.5359 181.6308,-25.4102 187.2185,-29.6266"/>
</g>
<!-- Node4 -->
<g id="node5" class="node">
<title>Node4</title>
<polygon fill="none" stroke="#bfbfbf" points="70,-56.5 70,-75.5 128,-75.5 128,-56.5 70,-56.5"/>
<text text-anchor="middle" x="99" y="-63.5" font-family="Helvetica,sans-Serif" font-size="10.00" fill="#000000">memory</text>
</g>
<!-- Node1&#45;&gt;Node4 -->
<g id="edge4" class="edge">
<title>Node1&#45;&gt;Node4</title>
<path fill="none" stroke="#191970" d="M237.9885,-112.4554C207.0184,-102.104 166.3372,-88.5067 136.998,-78.7004"/>
<polygon fill="#191970" stroke="#191970" points="138.1073,-75.3809 127.5135,-75.5303 135.8882,-82.0199 138.1073,-75.3809"/>
</g>
<!-- Node5 -->
<g id="node6" class="node">
<title>Node5</title>
<polygon fill="none" stroke="#bfbfbf" points="617,-.5 617,-19.5 661,-19.5 661,-.5 617,-.5"/>
<text text-anchor="middle" x="639" y="-7.5" font-family="Helvetica,sans-Serif" font-size="10.00" fill="#000000">string</text>
</g>
<!-- Node1&#45;&gt;Node5 -->
<g id="edge5" class="edge">
<title>Node1&#45;&gt;Node5</title>
<path fill="none" stroke="#191970" d="M342.2697,-113.6368C345.2166,-113.0584 348.1389,-112.5088 351,-112 412.7654,-101.0162 586.8011,-120.5203 631,-76 642.7939,-64.1204 643.7922,-44.518 642.4417,-29.7561"/>
<polygon fill="#191970" stroke="#191970" points="645.8812,-29.0692 641.0911,-19.6191 638.9426,-29.9938 645.8812,-29.0692"/>
</g>
<!-- Node6 -->
<g id="node7" class="node">
<title>Node6</title>
<polygon fill="none" stroke="#bfbfbf" points="309.5,-.5 309.5,-19.5 354.5,-19.5 354.5,-.5 309.5,-.5"/>
<text text-anchor="middle" x="332" y="-7.5" font-family="Helvetica,sans-Serif" font-size="10.00" fill="#000000">utility</text>
</g>
<!-- Node1&#45;&gt;Node6 -->
<g id="edge6" class="edge">
<title>Node1&#45;&gt;Node6</title>
<path fill="none" stroke="#191970" d="M290.0238,-112.2545C294.674,-102.0455 300.8429,-88.2782 306,-76 312.5479,-60.4107 319.5508,-42.5591 324.6373,-29.3558"/>
<polygon fill="#191970" stroke="#191970" points="327.9523,-30.486 328.2603,-19.8956 321.4153,-27.9824 327.9523,-30.486"/>
</g>
<!-- Node7 -->
<g id="node8" class="node">
<title>Node7</title>
<polygon fill="none" stroke="#bfbfbf" points="519.5,-.5 519.5,-19.5 566.5,-19.5 566.5,-.5 519.5,-.5"/>
<text text-anchor="middle" x="543" y="-7.5" font-family="Helvetica,sans-Serif" font-size="10.00" fill="#000000">vector</text>
</g>
<!-- Node1&#45;&gt;Node7 -->
<g id="edge7" class="edge">
<title>Node1&#45;&gt;Node7</title>
<path fill="none" stroke="#191970" d="M342.2745,-113.6637C345.2201,-113.0783 348.1408,-112.5197 351,-112 409.2549,-101.4102 576.0635,-120.6064 615,-76 632.2567,-56.2304 602.3389,-36.2442 575.9751,-23.5277"/>
<polygon fill="#191970" stroke="#191970" points="577.429,-20.344 566.8813,-19.3451 574.504,-26.7036 577.429,-20.344"/>
</g>
<!-- Node8 -->
<g id="node9" class="node">
<title>Node8</title>
<g id="a_node9"><a xlink:href="logger_2core_8hpp.html" target="_top" xlink:title="tlx/logger/core.hpp">
<polygon fill="none" stroke="#000000" points="354,-56.5 354,-75.5 462,-75.5 462,-56.5 354,-56.5"/>
<text text-anchor="middle" x="408" y="-63.5" font-family="Helvetica,sans-Serif" font-size="10.00" fill="#000000">tlx/logger/core.hpp</text>
</a>
</g>
</g>
<!-- Node1&#45;&gt;Node8 -->
<g id="edge8" class="edge">
<title>Node1&#45;&gt;Node8</title>
<path fill="none" stroke="#191970" d="M313.5784,-112.4554C333.7032,-102.554 359.8639,-89.683 379.5438,-80.0004"/>
<polygon fill="#191970" stroke="#191970" points="381.2018,-83.0855 388.6294,-75.5303 378.1115,-76.8045 381.2018,-83.0855"/>
</g>
<!-- Node10 -->
<g id="node11" class="node">
<title>Node10</title>
<g id="a_node11"><a xlink:href="bswap_8hpp.html" target="_top" xlink:title="tlx/math/bswap.hpp">
<polygon fill="none" stroke="#000000" points="184.5,-56.5 184.5,-75.5 297.5,-75.5 297.5,-56.5 184.5,-56.5"/>
<text text-anchor="middle" x="241" y="-63.5" font-family="Helvetica,sans-Serif" font-size="10.00" fill="#000000">tlx/math/bswap.hpp</text>
</a>
</g>
</g>
<!-- Node1&#45;&gt;Node10 -->
<g id="edge13" class="edge">
<title>Node1&#45;&gt;Node10</title>
<path fill="none" stroke="#191970" d="M272.618,-112.2977C266.8487,-103.8498 259.6284,-93.2773 253.5447,-84.369"/>
<polygon fill="#191970" stroke="#191970" points="256.2547,-82.1311 247.7247,-75.8469 250.4741,-86.0788 256.2547,-82.1311"/>
</g>
<!-- Node11 -->
<g id="node12" class="node">
<title>Node11</title>
<g id="a_node12"><a xlink:href="enable__if_8hpp.html" target="_top" xlink:title="tlx/meta/enable_if.hpp">
<polygon fill="none" stroke="#000000" points="480,-56.5 480,-75.5 606,-75.5 606,-56.5 480,-56.5"/>
<text text-anchor="middle" x="543" y="-63.5" font-family="Helvetica,sans-Serif" font-size="10.00" fill="#000000">tlx/meta/enable_if.hpp</text>
</a>
</g>
</g>
<!-- Node1&#45;&gt;Node11 -->
<g id="edge15" class="edge">
<title>Node1&#45;&gt;Node11</title>
<path fill="none" stroke="#191970" d="M342.3234,-113.4677C387.6953,-102.7355 449.5698,-88.0998 492.5698,-77.9287"/>
<polygon fill="#191970" stroke="#191970" points="493.6036,-81.2808 502.5294,-75.5728 491.9923,-74.4688 493.6036,-81.2808"/>
</g>
<!-- Node8&#45;&gt;Node5 -->
<g id="edge10" class="edge">
<title>Node8&#45;&gt;Node5</title>
<path fill="none" stroke="#191970" d="M447.4478,-56.4369C492.4703,-45.5223 565.2468,-27.8796 606.9326,-17.7739"/>
<polygon fill="#191970" stroke="#191970" points="607.9311,-21.1333 616.825,-15.3758 606.2818,-14.3304 607.9311,-21.1333"/>
</g>
<!-- Node8&#45;&gt;Node6 -->
<g id="edge11" class="edge">
<title>Node8&#45;&gt;Node6</title>
<path fill="none" stroke="#191970" d="M394.7618,-56.2455C383.319,-47.814 366.5704,-35.4729 353.2525,-25.6598"/>
<polygon fill="#191970" stroke="#191970" points="355.2133,-22.757 345.0865,-19.6427 351.0609,-28.3924 355.2133,-22.757"/>
</g>
<!-- Node8&#45;&gt;Node7 -->
<g id="edge12" class="edge">
<title>Node8&#45;&gt;Node7</title>
<path fill="none" stroke="#191970" d="M431.2073,-56.3733C453.1699,-47.2629 486.3332,-33.5062 510.8401,-23.3404"/>
<polygon fill="#191970" stroke="#191970" points="512.1997,-26.5657 520.0955,-19.5011 509.5176,-20.0999 512.1997,-26.5657"/>
</g>
<!-- Node9 -->
<g id="node10" class="node">
<title>Node9</title>
<polygon fill="none" stroke="#bfbfbf" points="380,-.5 380,-19.5 436,-19.5 436,-.5 380,-.5"/>
<text text-anchor="middle" x="408" y="-7.5" font-family="Helvetica,sans-Serif" font-size="10.00" fill="#000000">sstream</text>
</g>
<!-- Node8&#45;&gt;Node9 -->
<g id="edge9" class="edge">
<title>Node8&#45;&gt;Node9</title>
<path fill="none" stroke="#191970" d="M408,-56.2455C408,-48.9382 408,-38.6944 408,-29.7046"/>
<polygon fill="#191970" stroke="#191970" points="411.5001,-29.6426 408,-19.6427 404.5001,-29.6427 411.5001,-29.6426"/>
</g>
<!-- Node10&#45;&gt;Node3 -->
<g id="edge14" class="edge">
<title>Node10&#45;&gt;Node3</title>
<path fill="none" stroke="#191970" d="M233.6842,-56.2455C227.7821,-48.3761 219.3258,-37.101 212.2406,-27.6542"/>
<polygon fill="#191970" stroke="#191970" points="215.0321,-25.5427 206.232,-19.6427 209.432,-29.7427 215.0321,-25.5427"/>
</g>
</g>
</svg>
