<?xml version="1.0" encoding="UTF-8" standalone="no"?>
<!DOCTYPE svg PUBLIC "-//W3C//DTD SVG 1.1//EN"
 "http://www.w3.org/Graphics/SVG/1.1/DTD/svg11.dtd">
<!-- Generated by graphviz version 2.36.0 (20140111.2315)
 -->
<!-- Title: MixBlockQueue::SrcBlockPair Pages: 1 -->
<svg width="156pt" height="222pt"
 viewBox="0.00 0.00 156.00 222.00" xmlns="http://www.w3.org/2000/svg" xmlns:xlink="http://www.w3.org/1999/xlink">
<g id="graph0" class="graph" transform="scale(1 1) rotate(0) translate(4 218)">
<title>MixBlockQueue::SrcBlockPair</title>
<!-- Node1 -->
<g id="node1" class="node"><title>Node1</title>
<polygon fill="#bfbfbf" stroke="black" points="-0.5,-0.5 -0.5,-19.5 148.5,-19.5 148.5,-0.5 -0.5,-0.5"/>
<text text-anchor="middle" x="74" y="-7.5" font-family="Helvetica,sans-Serif" font-size="10.00">MixBlockQueue::SrcBlockPair</text>
</g>
<!-- Node2 -->
<g id="node2" class="node"><title>Node2</title>
<g id="a_node2"><a xlink:href="classthrill_1_1data_1_1Block.html" target="_top" xlink:title="Block combines a reference to a read&#45;only ByteBlock and book&#45;keeping information. ...">
<polygon fill="none" stroke="black" points="53.5,-68.5 53.5,-87.5 94.5,-87.5 94.5,-68.5 53.5,-68.5"/>
<text text-anchor="middle" x="74" y="-75.5" font-family="Helvetica,sans-Serif" font-size="10.00">Block</text>
</a>
</g>
</g>
<!-- Node2&#45;&gt;Node1 -->
<g id="edge1" class="edge"><title>Node2&#45;&gt;Node1</title>
<path fill="none" stroke="#9a32cd" stroke-dasharray="5,2" d="M74,-58.0413C74,-45.4724 74,-29.5631 74,-19.8411"/>
<polygon fill="#9a32cd" stroke="#9a32cd" points="70.5001,-58.3716 74,-68.3717 77.5001,-58.3717 70.5001,-58.3716"/>
<text text-anchor="middle" x="87.5" y="-41.5" font-family="Helvetica,sans-Serif" font-size="10.00"> block</text>
</g>
<!-- Node3 -->
<g id="node3" class="node"><title>Node3</title>
<g id="a_node3"><a xlink:href="classthrill_1_1data_1_1ByteBlockPtr.html" target="_top" xlink:title="A non&#45;pinned counting pointer to a ByteBlock. ">
<polygon fill="none" stroke="black" points="37,-136.5 37,-155.5 111,-155.5 111,-136.5 37,-136.5"/>
<text text-anchor="middle" x="74" y="-143.5" font-family="Helvetica,sans-Serif" font-size="10.00">ByteBlockPtr</text>
</a>
</g>
</g>
<!-- Node3&#45;&gt;Node2 -->
<g id="edge2" class="edge"><title>Node3&#45;&gt;Node2</title>
<path fill="none" stroke="#9a32cd" stroke-dasharray="5,2" d="M74,-126.041C74,-113.472 74,-97.5631 74,-87.8411"/>
<polygon fill="#9a32cd" stroke="#9a32cd" points="70.5001,-126.372 74,-136.372 77.5001,-126.372 70.5001,-126.372"/>
<text text-anchor="middle" x="102" y="-109.5" font-family="Helvetica,sans-Serif" font-size="10.00"> byte_block_</text>
</g>
<!-- Node4 -->
<g id="node4" class="node"><title>Node4</title>
<g id="a_node4"><a xlink:href="classtlx_1_1CountingPtr.html" target="_top" xlink:title="High&#45;performance smart pointer used as a wrapping reference counting pointer. ">
<polygon fill="none" stroke="black" points="37,-194.5 37,-213.5 111,-213.5 111,-194.5 37,-194.5"/>
<text text-anchor="middle" x="74" y="-201.5" font-family="Helvetica,sans-Serif" font-size="10.00">ByteBlockPtr</text>
</a>
</g>
</g>
<!-- Node4&#45;&gt;Node3 -->
<g id="edge3" class="edge"><title>Node4&#45;&gt;Node3</title>
<path fill="none" stroke="midnightblue" d="M74,-183.953C74,-174.287 74,-163.031 74,-155.505"/>
<polygon fill="midnightblue" stroke="midnightblue" points="70.5001,-184.25 74,-194.25 77.5001,-184.25 70.5001,-184.25"/>
</g>
</g>
</svg>
