<?xml version="1.0" encoding="UTF-8" standalone="no"?>
<!DOCTYPE svg PUBLIC "-//W3C//DTD SVG 1.1//EN"
 "http://www.w3.org/Graphics/SVG/1.1/DTD/svg11.dtd">
<!-- Generated by graphviz version 2.36.0 (20140111.2315)
 -->
<!-- Title: block_scheduler_algorithm_offline_lru_prefetching&lt; SwappableBlockType &gt;::read_after_write Pages: 1 -->
<svg width="386pt" height="436pt"
 viewBox="0.00 0.00 386.00 436.00" xmlns="http://www.w3.org/2000/svg" xmlns:xlink="http://www.w3.org/1999/xlink">
<g id="graph0" class="graph" transform="scale(1 1) rotate(0) translate(4 432)">
<title>block_scheduler_algorithm_offline_lru_prefetching&lt; SwappableBlockType &gt;::read_after_write</title>
<!-- Node1 -->
<g id="node1" class="node"><title>Node1</title>
<polygon fill="#bfbfbf" stroke="black" points="131,-1 131,-53 285,-53 285,-1 131,-1"/>
<text text-anchor="start" x="139" y="-41" font-family="Helvetica,sans-Serif" font-size="10.00">block_scheduler_algorithm</text>
<text text-anchor="start" x="139" y="-30" font-family="Helvetica,sans-Serif" font-size="10.00">_offline_lru_prefetching</text>
<text text-anchor="start" x="139" y="-19" font-family="Helvetica,sans-Serif" font-size="10.00">&lt; SwappableBlockType &gt;::read</text>
<text text-anchor="middle" x="208" y="-8" font-family="Helvetica,sans-Serif" font-size="10.00">_after_write</text>
</g>
<!-- Node2 -->
<g id="node2" class="node"><title>Node2</title>
<g id="a_node2"><a xlink:href="structfoxxll_1_1block__scheduler__algorithm__offline__lru__prefetching_1_1write__read__request.html" target="_top" xlink:title="write_read_request">
<polygon fill="none" stroke="black" points="158.5,-102.5 158.5,-121.5 257.5,-121.5 257.5,-102.5 158.5,-102.5"/>
<text text-anchor="middle" x="208" y="-109.5" font-family="Helvetica,sans-Serif" font-size="10.00">write_read_request</text>
</a>
</g>
</g>
<!-- Node2&#45;&gt;Node1 -->
<g id="edge1" class="edge"><title>Node2&#45;&gt;Node1</title>
<path fill="none" stroke="#9a32cd" stroke-dasharray="5,2" d="M208,-92.2377C208,-80.7018 208,-65.7752 208,-53.2143"/>
<polygon fill="#9a32cd" stroke="#9a32cd" points="204.5,-92.4301 208,-102.43 211.5,-92.4302 204.5,-92.4301"/>
<text text-anchor="middle" x="216.5" y="-75.5" font-family="Helvetica,sans-Serif" font-size="10.00"> wrr</text>
</g>
<!-- Node3 -->
<g id="node3" class="node"><title>Node3</title>
<g id="a_node3"><a xlink:href="classtlx_1_1CountingPtr.html" target="_top" xlink:title="CountingPtr\&lt; request \&gt;">
<polygon fill="none" stroke="black" points="148.5,-170.5 148.5,-189.5 267.5,-189.5 267.5,-170.5 148.5,-170.5"/>
<text text-anchor="middle" x="208" y="-177.5" font-family="Helvetica,sans-Serif" font-size="10.00">CountingPtr&lt; request &gt;</text>
</a>
</g>
</g>
<!-- Node3&#45;&gt;Node2 -->
<g id="edge2" class="edge"><title>Node3&#45;&gt;Node2</title>
<path fill="none" stroke="#9a32cd" stroke-dasharray="5,2" d="M208,-160.041C208,-147.472 208,-131.563 208,-121.841"/>
<polygon fill="#9a32cd" stroke="#9a32cd" points="204.5,-160.372 208,-170.372 211.5,-160.372 204.5,-160.372"/>
<text text-anchor="middle" x="229.5" y="-143.5" font-family="Helvetica,sans-Serif" font-size="10.00"> write_req</text>
</g>
<!-- Node4 -->
<g id="node4" class="node"><title>Node4</title>
<g id="a_node4"><a xlink:href="classfoxxll_1_1request.html" target="_top" xlink:title="Request object encapsulating basic properties like file and offset. ">
<polygon fill="none" stroke="black" points="114.5,-244.5 114.5,-263.5 163.5,-263.5 163.5,-244.5 114.5,-244.5"/>
<text text-anchor="middle" x="139" y="-251.5" font-family="Helvetica,sans-Serif" font-size="10.00">request</text>
</a>
</g>
</g>
<!-- Node4&#45;&gt;Node3 -->
<g id="edge3" class="edge"><title>Node4&#45;&gt;Node3</title>
<path fill="none" stroke="#9a32cd" stroke-dasharray="5,2" d="M154.251,-237.086C168.305,-222.421 188.626,-201.217 199.824,-189.531"/>
<polygon fill="#9a32cd" stroke="#9a32cd" points="151.578,-234.816 147.186,-244.458 156.632,-239.66 151.578,-234.816"/>
<text text-anchor="middle" x="192" y="-211.5" font-family="Helvetica,sans-Serif" font-size="10.00"> ptr_</text>
</g>
<!-- Node5 -->
<g id="node5" class="node"><title>Node5</title>
<g id="a_node5"><a xlink:href="classfoxxll_1_1request__interface.html" target="_top" xlink:title="request_interface">
<polygon fill="none" stroke="black" points="0,-324.5 0,-343.5 92,-343.5 92,-324.5 0,-324.5"/>
<text text-anchor="middle" x="46" y="-331.5" font-family="Helvetica,sans-Serif" font-size="10.00">request_interface</text>
</a>
</g>
</g>
<!-- Node5&#45;&gt;Node4 -->
<g id="edge4" class="edge"><title>Node5&#45;&gt;Node4</title>
<path fill="none" stroke="midnightblue" d="M64.0722,-317.843C83.2984,-301.717 113.046,-276.768 128.646,-263.684"/>
<polygon fill="midnightblue" stroke="midnightblue" points="61.7207,-315.247 56.308,-324.355 66.2191,-320.61 61.7207,-315.247"/>
</g>
<!-- Node6 -->
<g id="node6" class="node"><title>Node6</title>
<g id="a_node6"><a xlink:href="classtlx_1_1ReferenceCounter.html" target="_top" xlink:title="Provides reference counting abilities for use with CountingPtr. ">
<polygon fill="none" stroke="black" points="59.5,-408.5 59.5,-427.5 154.5,-427.5 154.5,-408.5 59.5,-408.5"/>
<text text-anchor="middle" x="107" y="-415.5" font-family="Helvetica,sans-Serif" font-size="10.00">reference_counter</text>
</a>
</g>
</g>
<!-- Node6&#45;&gt;Node4 -->
<g id="edge5" class="edge"><title>Node6&#45;&gt;Node4</title>
<path fill="none" stroke="midnightblue" d="M110.666,-398.442C117.567,-363.504 132.246,-289.19 137.271,-263.753"/>
<polygon fill="midnightblue" stroke="midnightblue" points="107.225,-397.801 108.72,-408.29 114.092,-399.158 107.225,-397.801"/>
</g>
<!-- Node7 -->
<g id="node7" class="node"><title>Node7</title>
<g id="a_node7"><a xlink:href="classfoxxll_1_1file.html" target="_top" xlink:title="file">
<polygon fill="none" stroke="black" points="148.5,-324.5 148.5,-343.5 177.5,-343.5 177.5,-324.5 148.5,-324.5"/>
<text text-anchor="middle" x="163" y="-331.5" font-family="Helvetica,sans-Serif" font-size="10.00">file</text>
</a>
</g>
</g>
<!-- Node6&#45;&gt;Node7 -->
<g id="edge7" class="edge"><title>Node6&#45;&gt;Node7</title>
<path fill="none" stroke="midnightblue" d="M124.285,-401.283C127.713,-397.748 131.134,-393.887 134,-390 145.146,-374.882 154.538,-354.906 159.411,-343.661"/>
<polygon fill="midnightblue" stroke="midnightblue" points="121.711,-398.904 116.982,-408.385 126.591,-403.922 121.711,-398.904"/>
</g>
<!-- Node7&#45;&gt;Node4 -->
<g id="edge6" class="edge"><title>Node7&#45;&gt;Node4</title>
<path fill="none" stroke="#9a32cd" stroke-dasharray="5,2" d="M157.318,-314.534C152.407,-298.574 145.522,-276.196 141.746,-263.924"/>
<polygon fill="#9a32cd" stroke="#9a32cd" points="154.054,-315.826 160.34,-324.355 160.744,-313.767 154.054,-315.826"/>
<text text-anchor="middle" x="164" y="-291.5" font-family="Helvetica,sans-Serif" font-size="10.00"> file_</text>
</g>
<!-- Node8 -->
<g id="node8" class="node"><title>Node8</title>
<g id="a_node8"><a xlink:href="classfoxxll_1_1file__stats.html" target="_top" xlink:title="file_stats">
<polygon fill="none" stroke="black" points="173,-408.5 173,-427.5 229,-427.5 229,-408.5 173,-408.5"/>
<text text-anchor="middle" x="201" y="-415.5" font-family="Helvetica,sans-Serif" font-size="10.00">file_stats</text>
</a>
</g>
</g>
<!-- Node8&#45;&gt;Node7 -->
<g id="edge8" class="edge"><title>Node8&#45;&gt;Node7</title>
<path fill="none" stroke="#9a32cd" stroke-dasharray="5,2" d="M192.536,-398.736C184.6,-381.61 173.077,-356.744 167.037,-343.712"/>
<polygon fill="#9a32cd" stroke="#9a32cd" points="189.553,-400.623 196.933,-408.225 195.904,-397.68 189.553,-400.623"/>
<text text-anchor="middle" x="212.5" y="-376.5" font-family="Helvetica,sans-Serif" font-size="10.00"> file_stats_</text>
</g>
<!-- Node9 -->
<g id="node9" class="node"><title>Node9</title>
<g id="a_node9"><a xlink:href="classtlx_1_1Delegate.html" target="_top" xlink:title="Delegate\&lt; void(request\l *r, bool success)\&gt;">
<polygon fill="none" stroke="black" points="220,-319 220,-349 338,-349 338,-319 220,-319"/>
<text text-anchor="start" x="228" y="-337" font-family="Helvetica,sans-Serif" font-size="10.00">Delegate&lt; void(request</text>
<text text-anchor="middle" x="279" y="-326" font-family="Helvetica,sans-Serif" font-size="10.00"> *r, bool success)&gt;</text>
</a>
</g>
</g>
<!-- Node9&#45;&gt;Node4 -->
<g id="edge9" class="edge"><title>Node9&#45;&gt;Node4</title>
<path fill="none" stroke="#9a32cd" stroke-dasharray="5,2" d="M244.738,-313.911C215.997,-297.898 176.271,-275.765 154.615,-263.7"/>
<polygon fill="#9a32cd" stroke="#9a32cd" points="243.208,-317.065 253.647,-318.875 246.615,-310.95 243.208,-317.065"/>
<text text-anchor="middle" x="250" y="-291.5" font-family="Helvetica,sans-Serif" font-size="10.00"> on_complete_</text>
</g>
<!-- Node10 -->
<g id="node10" class="node"><title>Node10</title>
<g id="a_node10"><a xlink:href="classtlx_1_1Delegate.html" target="_top" xlink:title="Delegate\&lt; T, Allocator \&gt;">
<polygon fill="none" stroke="black" points="247,-408.5 247,-427.5 371,-427.5 371,-408.5 247,-408.5"/>
<text text-anchor="middle" x="309" y="-415.5" font-family="Helvetica,sans-Serif" font-size="10.00">Delegate&lt; T, Allocator &gt;</text>
</a>
</g>
</g>
<!-- Node10&#45;&gt;Node9 -->
<g id="edge10" class="edge"><title>Node10&#45;&gt;Node9</title>
<path fill="none" stroke="orange" stroke-dasharray="5,2" d="M302.25,-398.551C296.782,-383.604 289.19,-362.852 284.189,-349.184"/>
<polygon fill="orange" stroke="orange" points="299.067,-400.036 305.789,-408.225 305.641,-397.631 299.067,-400.036"/>
<text text-anchor="start" x="299" y="-382" font-family="Helvetica,sans-Serif" font-size="10.00"> &lt; void(request *r,</text>
<text text-anchor="middle" x="338.5" y="-371" font-family="Helvetica,sans-Serif" font-size="10.00"> bool success)&gt;</text>
</g>
<!-- Node11 -->
<g id="node11" class="node"><title>Node11</title>
<g id="a_node11"><a xlink:href="classtlx_1_1CountingPtr.html" target="_top" xlink:title="High&#45;performance smart pointer used as a wrapping reference counting pointer. ">
<polygon fill="none" stroke="black" points="181,-239 181,-269 283,-269 283,-239 181,-239"/>
<text text-anchor="start" x="189" y="-257" font-family="Helvetica,sans-Serif" font-size="10.00">CountingPtr&lt; Type,</text>
<text text-anchor="middle" x="232" y="-246" font-family="Helvetica,sans-Serif" font-size="10.00"> Deleter &gt;</text>
</a>
</g>
</g>
<!-- Node11&#45;&gt;Node3 -->
<g id="edge11" class="edge"><title>Node11&#45;&gt;Node3</title>
<path fill="none" stroke="orange" stroke-dasharray="5,2" d="M224.029,-229.087C219.523,-215.568 214.159,-199.476 210.92,-189.759"/>
<polygon fill="orange" stroke="orange" points="220.776,-230.395 227.258,-238.775 227.416,-228.181 220.776,-230.395"/>
<text text-anchor="middle" x="248" y="-211.5" font-family="Helvetica,sans-Serif" font-size="10.00"> &lt; request &gt;</text>
</g>
</g>
</svg>
