<?xml version="1.0" encoding="UTF-8" standalone="no"?>
<!DOCTYPE svg PUBLIC "-//W3C//DTD SVG 1.1//EN"
 "http://www.w3.org/Graphics/SVG/1.1/DTD/svg11.dtd">
<!-- Generated by graphviz version 2.36.0 (20140111.2315)
 -->
<!-- Title: DataPoint&lt; Vector &gt; Pages: 1 -->
<svg width="125pt" height="164pt"
 viewBox="0.00 0.00 125.00 164.00" xmlns="http://www.w3.org/2000/svg" xmlns:xlink="http://www.w3.org/1999/xlink">
<g id="graph0" class="graph" transform="scale(1 1) rotate(0) translate(4 160)">
<title>DataPoint&lt; Vector &gt;</title>
<!-- Node1 -->
<g id="node1" class="node"><title>Node1</title>
<polygon fill="#bfbfbf" stroke="black" points="-0.5,-0.5 -0.5,-19.5 106.5,-19.5 106.5,-0.5 -0.5,-0.5"/>
<text text-anchor="middle" x="53" y="-7.5" font-family="Helvetica,sans-Serif" font-size="10.00">DataPoint&lt; Vector &gt;</text>
</g>
<!-- Node2 -->
<g id="node2" class="node"><title>Node2</title>
<g id="a_node2"><a xlink:href="classthrill_1_1common_1_1Vector.html" target="_top" xlink:title="Vector\&lt; D, double \&gt;">
<polygon fill="none" stroke="black" points="0.5,-68.5 0.5,-87.5 105.5,-87.5 105.5,-68.5 0.5,-68.5"/>
<text text-anchor="middle" x="53" y="-75.5" font-family="Helvetica,sans-Serif" font-size="10.00">Vector&lt; D, double &gt;</text>
</a>
</g>
</g>
<!-- Node2&#45;&gt;Node1 -->
<g id="edge1" class="edge"><title>Node2&#45;&gt;Node1</title>
<path fill="none" stroke="#9a32cd" stroke-dasharray="5,2" d="M53,-58.0413C53,-45.4724 53,-29.5631 53,-19.8411"/>
<polygon fill="#9a32cd" stroke="#9a32cd" points="49.5001,-58.3716 53,-68.3717 56.5001,-58.3717 49.5001,-58.3716"/>
<text text-anchor="middle" x="64" y="-41.5" font-family="Helvetica,sans-Serif" font-size="10.00"> data</text>
</g>
<!-- Node3 -->
<g id="node3" class="node"><title>Node3</title>
<g id="a_node3"><a xlink:href="classthrill_1_1common_1_1Vector.html" target="_top" xlink:title="A compile&#45;time fixed&#45;length D&#45;dimensional point with double precision. ">
<polygon fill="none" stroke="black" points="4,-136.5 4,-155.5 102,-155.5 102,-136.5 4,-136.5"/>
<text text-anchor="middle" x="53" y="-143.5" font-family="Helvetica,sans-Serif" font-size="10.00">Vector&lt; D, Type &gt;</text>
</a>
</g>
</g>
<!-- Node3&#45;&gt;Node2 -->
<g id="edge2" class="edge"><title>Node3&#45;&gt;Node2</title>
<path fill="none" stroke="orange" stroke-dasharray="5,2" d="M53,-126.041C53,-113.472 53,-97.5631 53,-87.8411"/>
<polygon fill="orange" stroke="orange" points="49.5001,-126.372 53,-136.372 56.5001,-126.372 49.5001,-126.372"/>
<text text-anchor="middle" x="85" y="-109.5" font-family="Helvetica,sans-Serif" font-size="10.00"> &lt; D, double &gt;</text>
</g>
</g>
</svg>
