<?xml version="1.0" encoding="UTF-8" standalone="no"?>
<!DOCTYPE svg PUBLIC "-//W3C//DTD SVG 1.1//EN"
 "http://www.w3.org/Graphics/SVG/1.1/DTD/svg11.dtd">
<!-- Generated by graphviz version 2.40.1 (20161225.0304)
 -->
<!-- Title: random_cyclic Pages: 1 -->
<svg width="256pt" height="140pt"
 viewBox="0.00 0.00 255.50 140.00" xmlns="http://www.w3.org/2000/svg" xmlns:xlink="http://www.w3.org/1999/xlink">
<g id="graph0" class="graph" transform="scale(1 1) rotate(0) translate(4 136)">
<title>random_cyclic</title>
<!-- Node0 -->
<g id="node1" class="node">
<title>Node0</title>
<polygon fill="#bfbfbf" stroke="#000000" points="79,-56.5 79,-75.5 166,-75.5 166,-56.5 79,-56.5"/>
<text text-anchor="middle" x="122.5" y="-63.5" font-family="Helvetica,sans-Serif" font-size="10.00" fill="#000000">random_cyclic</text>
</g>
<!-- Node2 -->
<g id="node3" class="node">
<title>Node2</title>
<g id="a_node3"><a xlink:href="structfoxxll_1_1random__cyclic__disk.html" target="_top" xlink:title="random_cyclic_disk">
<polygon fill="none" stroke="#000000" points="0,-.5 0,-19.5 113,-19.5 113,-.5 0,-.5"/>
<text text-anchor="middle" x="56.5" y="-7.5" font-family="Helvetica,sans-Serif" font-size="10.00" fill="#000000">random_cyclic_disk</text>
</a>
</g>
</g>
<!-- Node0&#45;&gt;Node2 -->
<g id="edge2" class="edge">
<title>Node0&#45;&gt;Node2</title>
<path fill="none" stroke="#191970" d="M103.2245,-49.645C91.7462,-39.9058 77.5723,-27.8795 67.8646,-19.6427"/>
<polygon fill="#191970" stroke="#191970" points="101.1141,-52.4445 111.0037,-56.2455 105.643,-47.1069 101.1141,-52.4445"/>
</g>
<!-- Node3 -->
<g id="node4" class="node">
<title>Node3</title>
<g id="a_node4"><a xlink:href="structfoxxll_1_1random__cyclic__flash.html" target="_top" xlink:title="random_cyclic_flash">
<polygon fill="none" stroke="#000000" points="131.5,-.5 131.5,-19.5 247.5,-19.5 247.5,-.5 131.5,-.5"/>
<text text-anchor="middle" x="189.5" y="-7.5" font-family="Helvetica,sans-Serif" font-size="10.00" fill="#000000">random_cyclic_flash</text>
</a>
</g>
</g>
<!-- Node0&#45;&gt;Node3 -->
<g id="edge3" class="edge">
<title>Node0&#45;&gt;Node3</title>
<path fill="none" stroke="#191970" d="M142.0676,-49.645C153.7198,-39.9058 168.1084,-27.8795 177.9632,-19.6427"/>
<polygon fill="#191970" stroke="#191970" points="139.5988,-47.1469 134.1705,-56.2455 144.0879,-52.5179 139.5988,-47.1469"/>
</g>
<!-- Node1 -->
<g id="node2" class="node">
<title>Node1</title>
<g id="a_node2"><a xlink:href="structfoxxll_1_1striping.html" target="_top" xlink:title="striping">
<polygon fill="none" stroke="#000000" points="96,-112.5 96,-131.5 149,-131.5 149,-112.5 96,-112.5"/>
<text text-anchor="middle" x="122.5" y="-119.5" font-family="Helvetica,sans-Serif" font-size="10.00" fill="#000000">striping</text>
</a>
</g>
</g>
<!-- Node1&#45;&gt;Node0 -->
<g id="edge1" class="edge">
<title>Node1&#45;&gt;Node0</title>
<path fill="none" stroke="#191970" d="M122.5,-102.1575C122.5,-93.155 122.5,-82.9199 122.5,-75.6427"/>
<polygon fill="#191970" stroke="#191970" points="119.0001,-102.2455 122.5,-112.2455 126.0001,-102.2456 119.0001,-102.2455"/>
</g>
</g>
</svg>
