<?xml version="1.0" encoding="UTF-8" standalone="no"?>
<!DOCTYPE svg PUBLIC "-//W3C//DTD SVG 1.1//EN"
 "http://www.w3.org/Graphics/SVG/1.1/DTD/svg11.dtd">
<!-- Generated by graphviz version 2.26.3 (20100126.1600)
 -->
<!-- Title: UnionNode&lt; ValueType &gt;::UnionChild Pages: 1 -->
<svg width="1790pt" height="727pt"
 viewBox="0.00 0.00 1790.00 727.00" xmlns="http://www.w3.org/2000/svg" xmlns:xlink="http://www.w3.org/1999/xlink">
<g id="graph1" class="graph" transform="scale(1 1) rotate(0) translate(4 723)">
<title>UnionNode&lt; ValueType &gt;::UnionChild</title>
<!-- Node1 -->
<g id="node1" class="node"><title>Node1</title>
<polygon fill="#bfbfbf" stroke="black" points="1660.5,-105 1660.5,-139 1781.5,-139 1781.5,-105 1660.5,-105"/>
<text text-anchor="start" x="1668.5" y="-126" font-family="Helvetica,sans-Serif" font-size="10.00">UnionNode&lt; ValueType</text>
<text text-anchor="middle" x="1721" y="-113" font-family="Helvetica,sans-Serif" font-size="10.00"> &gt;::UnionChild</text>
</g>
<!-- Node2 -->
<g id="node2" class="node"><title>Node2</title>
<a xlink:href="classtlx_1_1Delegate.html" target="_top" xlink:title="Delegate\&lt; T, Allocator \&gt;">
<polygon fill="none" stroke="black" points="1460,-130.5 1460,-151.5 1584,-151.5 1584,-130.5 1460,-130.5"/>
<text text-anchor="middle" x="1522" y="-138.5" font-family="Helvetica,sans-Serif" font-size="10.00">Delegate&lt; T, Allocator &gt;</text>
</a>
</g>
<!-- Node2&#45;&gt;Node1 -->
<g id="edge2" class="edge"><title>Node2&#45;&gt;Node1</title>
<path fill="none" stroke="#9a32cd" stroke-dasharray="5,2" d="M1594.29,-134.098C1615.96,-132.029 1639.5,-129.781 1660.35,-127.791"/>
<polygon fill="#9a32cd" stroke="#9a32cd" points="1593.77,-130.632 1584.15,-135.066 1594.43,-137.6 1593.77,-130.632"/>
<text text-anchor="middle" x="1622" y="-137" font-family="Helvetica,sans-Serif" font-size="10.00"> callback</text>
</g>
<!-- Node3 -->
<g id="node4" class="node"><title>Node3</title>
<a xlink:href="classthrill_1_1api_1_1DIABase.html" target="_top" xlink:title="The DIABase is the untyped super class of DIANode.">
<polygon fill="none" stroke="black" points="1494,-90.5 1494,-111.5 1550,-111.5 1550,-90.5 1494,-90.5"/>
<text text-anchor="middle" x="1522" y="-98.5" font-family="Helvetica,sans-Serif" font-size="10.00">DIABase</text>
</a>
</g>
<!-- Node3&#45;&gt;Node1 -->
<g id="edge4" class="edge"><title>Node3&#45;&gt;Node1</title>
<path fill="none" stroke="#9a32cd" stroke-dasharray="5,2" d="M1560.43,-104.183C1584,-106.219 1614.77,-109.029 1642,-112 1647.91,-112.645 1654.06,-113.355 1660.21,-114.091"/>
<polygon fill="#9a32cd" stroke="#9a32cd" points="1560.41,-100.669 1550.15,-103.305 1559.82,-107.644 1560.41,-100.669"/>
<text text-anchor="middle" x="1622" y="-116" font-family="Helvetica,sans-Serif" font-size="10.00"> node</text>
</g>
<!-- Node4 -->
<g id="node6" class="node"><title>Node4</title>
<a xlink:href="classtlx_1_1ReferenceCounter.html" target="_top" xlink:title="Provides reference counting abilities for use with CountingPtr.">
<polygon fill="none" stroke="black" points="1274,-252.5 1274,-273.5 1370,-273.5 1370,-252.5 1274,-252.5"/>
<text text-anchor="middle" x="1322" y="-260.5" font-family="Helvetica,sans-Serif" font-size="10.00">ReferenceCounter</text>
</a>
</g>
<!-- Node4&#45;&gt;Node3 -->
<g id="edge6" class="edge"><title>Node4&#45;&gt;Node3</title>
<path fill="none" stroke="midnightblue" d="M1360.59,-248.143C1363.84,-246.528 1367.01,-244.809 1370,-243 1405.63,-221.414 1419.2,-217.858 1442,-183 1457.71,-158.988 1440.01,-141.586 1460,-121 1468.9,-111.831 1482.03,-106.859 1493.91,-104.167"/>
<polygon fill="midnightblue" stroke="midnightblue" points="1358.98,-245.032 1351.37,-252.406 1361.92,-251.386 1358.98,-245.032"/>
</g>
<!-- Node5 -->
<g id="node8" class="node"><title>Node5</title>
<a xlink:href="classthrill_1_1api_1_1Context.html" target="_top" xlink:title="The Context of a job is a unique instance per worker which holds references to all underlying parts o...">
<polygon fill="none" stroke="black" points="1296.5,-212.5 1296.5,-233.5 1347.5,-233.5 1347.5,-212.5 1296.5,-212.5"/>
<text text-anchor="middle" x="1322" y="-220.5" font-family="Helvetica,sans-Serif" font-size="10.00">Context</text>
</a>
</g>
<!-- Node5&#45;&gt;Node3 -->
<g id="edge8" class="edge"><title>Node5&#45;&gt;Node3</title>
<path fill="none" stroke="#9a32cd" stroke-dasharray="5,2" d="M1341.48,-205.364C1367.03,-183.021 1414.04,-144.593 1460,-121 1470.56,-115.577 1482.89,-111.237 1493.76,-108.006"/>
<polygon fill="#9a32cd" stroke="#9a32cd" points="1338.83,-203.03 1333.67,-212.279 1343.47,-208.271 1338.83,-203.03"/>
<text text-anchor="middle" x="1415" y="-170" font-family="Helvetica,sans-Serif" font-size="10.00"> context_</text>
</g>
<!-- Node6 -->
<g id="node10" class="node"><title>Node6</title>
<a xlink:href="exceptionthrill_1_1net_1_1Manager.html" target="_top" xlink:title="Initializes communication channels, manages communication channels and handles errors.">
<polygon fill="none" stroke="black" points="503,-202.5 503,-223.5 557,-223.5 557,-202.5 503,-202.5"/>
<text text-anchor="middle" x="530" y="-210.5" font-family="Helvetica,sans-Serif" font-size="10.00">Manager</text>
</a>
</g>
<!-- Node6&#45;&gt;Node5 -->
<g id="edge74" class="edge"><title>Node6&#45;&gt;Node5</title>
<path fill="none" stroke="#9a32cd" stroke-dasharray="5,2" d="M567.309,-209.737C583.494,-208.416 602.672,-206.974 620,-206 902.249,-190.131 974.668,-187.273 1256,-215 1269.32,-216.313 1284.12,-218.079 1296.33,-219.617"/>
<polygon fill="#9a32cd" stroke="#9a32cd" points="566.83,-206.265 557.155,-210.583 567.411,-213.241 566.83,-206.265"/>
<text text-anchor="middle" x="957" y="-199" font-family="Helvetica,sans-Serif" font-size="10.00"> mem_manager_</text>
</g>
<!-- Node6&#45;&gt;Node5 -->
<g id="edge10" class="edge"><title>Node6&#45;&gt;Node5</title>
<path fill="none" stroke="#9a32cd" stroke-dasharray="5,2" d="M567.33,-211.985C583.518,-211.592 602.693,-211.192 620,-211 676.885,-210.368 691.114,-210.405 748,-211 959.797,-213.214 1215.48,-220.021 1296.26,-222.27"/>
<polygon fill="#9a32cd" stroke="#9a32cd" points="567.082,-208.49 557.172,-212.239 567.257,-215.488 567.082,-208.49"/>
<text text-anchor="middle" x="957" y="-219" font-family="Helvetica,sans-Serif" font-size="10.00"> net_manager_</text>
</g>
<!-- Node21 -->
<g id="node44" class="node"><title>Node21</title>
<a xlink:href="classthrill_1_1data_1_1Multiplexer.html" target="_top" xlink:title="Multiplexes virtual Connections on Dispatcher.">
<polygon fill="none" stroke="black" points="1064,-290.5 1064,-311.5 1128,-311.5 1128,-290.5 1064,-290.5"/>
<text text-anchor="middle" x="1096" y="-298.5" font-family="Helvetica,sans-Serif" font-size="10.00">Multiplexer</text>
</a>
</g>
<!-- Node6&#45;&gt;Node21 -->
<g id="edge68" class="edge"><title>Node6&#45;&gt;Node21</title>
<path fill="none" stroke="#9a32cd" stroke-dasharray="5,2" d="M567.682,-213.42C633.625,-214.757 773.978,-220.286 890,-243 952.897,-255.313 1024.56,-277.367 1064.62,-290.444"/>
<polygon fill="#9a32cd" stroke="#9a32cd" points="567.44,-209.915 557.378,-213.233 567.313,-216.914 567.44,-209.915"/>
<text text-anchor="middle" x="828" y="-247" font-family="Helvetica,sans-Serif" font-size="10.00"> mem_manager_</text>
</g>
<!-- Node22 -->
<g id="node46" class="node"><title>Node22</title>
<a xlink:href="classthrill_1_1net_1_1DispatcherThread.html" target="_top" xlink:title="DispatcherThread contains a net::Dispatcher object and an associated thread that runs in the dispatch...">
<polygon fill="none" stroke="black" points="781,-317.5 781,-338.5 875,-338.5 875,-317.5 781,-317.5"/>
<text text-anchor="middle" x="828" y="-325.5" font-family="Helvetica,sans-Serif" font-size="10.00">DispatcherThread</text>
</a>
</g>
<!-- Node6&#45;&gt;Node22 -->
<g id="edge56" class="edge"><title>Node6&#45;&gt;Node22</title>
<path fill="none" stroke="#9a32cd" stroke-dasharray="5,2" d="M559.821,-228.366C572.917,-235.314 588.38,-243.795 602,-252 610.236,-256.962 611.314,-259.876 620,-264 672.732,-289.035 737.575,-307.163 780.704,-317.602"/>
<polygon fill="#9a32cd" stroke="#9a32cd" points="561.244,-225.16 550.764,-223.603 557.986,-231.355 561.244,-225.16"/>
<text text-anchor="middle" x="684" y="-312" font-family="Helvetica,sans-Serif" font-size="10.00"> mem_manager_</text>
</g>
<!-- Node25 -->
<g id="node54" class="node"><title>Node25</title>
<a xlink:href="classthrill_1_1data_1_1BlockPool.html" target="_top" xlink:title="Pool to allocate, keep, swap out/in, and free all ByteBlocks on the host.">
<polygon fill="none" stroke="black" points="797.5,-265.5 797.5,-286.5 858.5,-286.5 858.5,-265.5 797.5,-265.5"/>
<text text-anchor="middle" x="828" y="-273.5" font-family="Helvetica,sans-Serif" font-size="10.00">BlockPool</text>
</a>
</g>
<!-- Node6&#45;&gt;Node25 -->
<g id="edge66" class="edge"><title>Node6&#45;&gt;Node25</title>
<path fill="none" stroke="#9a32cd" stroke-dasharray="5,2" d="M567.403,-217.944C620.398,-225.102 714.608,-238.429 748,-247 766.745,-251.811 787.255,-259.292 802.814,-265.451"/>
<polygon fill="#9a32cd" stroke="#9a32cd" points="567.761,-214.461 557.384,-216.598 566.829,-221.399 567.761,-214.461"/>
<text text-anchor="middle" x="684" y="-251" font-family="Helvetica,sans-Serif" font-size="10.00"> mem_manager_</text>
</g>
<!-- Node7 -->
<g id="node12" class="node"><title>Node7</title>
<a xlink:href="classthrill_1_1common_1_1ProfileTask.html" target="_top" xlink:title="ProfileTask">
<polygon fill="none" stroke="black" points="194,-306.5 194,-327.5 260,-327.5 260,-306.5 194,-306.5"/>
<text text-anchor="middle" x="227" y="-314.5" font-family="Helvetica,sans-Serif" font-size="10.00">ProfileTask</text>
</a>
</g>
<!-- Node7&#45;&gt;Node6 -->
<g id="edge12" class="edge"><title>Node7&#45;&gt;Node6</title>
<path fill="none" stroke="midnightblue" d="M267.274,-303.177C329.941,-281.667 449.148,-240.751 502.725,-222.362"/>
<polygon fill="midnightblue" stroke="midnightblue" points="266.043,-299.899 257.721,-306.456 268.315,-306.52 266.043,-299.899"/>
</g>
<!-- Node7&#45;&gt;Node25 -->
<g id="edge62" class="edge"><title>Node7&#45;&gt;Node25</title>
<path fill="none" stroke="midnightblue" d="M270.408,-320.819C378.962,-329.815 659.814,-349.515 748,-321 757.39,-317.964 757.592,-313.166 766,-308 778.694,-300.2 793.503,-292.508 805.463,-286.621"/>
<polygon fill="midnightblue" stroke="midnightblue" points="270.408,-317.307 260.15,-319.958 269.822,-324.282 270.408,-317.307"/>
</g>
<!-- Node8 -->
<g id="node14" class="node"><title>Node8</title>
<a xlink:href="classthrill_1_1common_1_1JsonLogger.html" target="_top" xlink:title="JsonLogger is a receiver of JSON output objects for logging.">
<polygon fill="none" stroke="black" points="193.5,-122.5 193.5,-143.5 260.5,-143.5 260.5,-122.5 193.5,-122.5"/>
<text text-anchor="middle" x="227" y="-130.5" font-family="Helvetica,sans-Serif" font-size="10.00">JsonLogger</text>
</a>
</g>
<!-- Node8&#45;&gt;Node3 -->
<g id="edge76" class="edge"><title>Node8&#45;&gt;Node3</title>
<path fill="none" stroke="#9a32cd" stroke-dasharray="5,2" d="M257.544,-117.911C273.477,-110.504 293.464,-101.922 312,-96 406.325,-65.8623 430.978,-50 530,-50 530,-50 530,-50 1322,-50 1386.86,-50 1459.98,-75.4946 1497.26,-90.4328"/>
<polygon fill="#9a32cd" stroke="#9a32cd" points="255.736,-114.895 248.196,-122.338 258.732,-121.221 255.736,-114.895"/>
<text text-anchor="middle" x="957" y="-54" font-family="Helvetica,sans-Serif" font-size="10.00"> logger_</text>
</g>
<!-- Node8&#45;&gt;Node5 -->
<g id="edge46" class="edge"><title>Node8&#45;&gt;Node5</title>
<path fill="none" stroke="#9a32cd" stroke-dasharray="5,2" d="M270.96,-124.23C329.729,-113.289 437.263,-96 530,-96 530,-96 530,-96 1096,-96 1190.51,-96 1282.04,-181.46 1311.89,-212.172"/>
<polygon fill="#9a32cd" stroke="#9a32cd" points="270.092,-120.832 260.915,-126.127 271.391,-127.711 270.092,-120.832"/>
<text text-anchor="middle" x="828" y="-113" font-family="Helvetica,sans-Serif" font-size="10.00"> logger_</text>
<text text-anchor="middle" x="828" y="-100" font-family="Helvetica,sans-Serif" font-size="10.00">base_logger_</text>
</g>
<!-- Node8&#45;&gt;Node6 -->
<g id="edge14" class="edge"><title>Node8&#45;&gt;Node6</title>
<path fill="none" stroke="#9a32cd" stroke-dasharray="5,2" d="M270.3,-144.432C333.785,-161.194 450.282,-191.952 502.917,-205.849"/>
<polygon fill="#9a32cd" stroke="#9a32cd" points="271.146,-141.036 260.584,-141.867 269.359,-147.804 271.146,-141.036"/>
<text text-anchor="middle" x="376" y="-191" font-family="Helvetica,sans-Serif" font-size="10.00"> logger_</text>
</g>
<!-- Node8&#45;&gt;Node8 -->
<g id="edge18" class="edge"><title>Node8&#45;&gt;Node8</title>
<path fill="none" stroke="#9a32cd" stroke-dasharray="5,2" d="M207.097,-153.427C208.632,-158.349 215.267,-162 227,-162 245.773,-162 251.493,-152.653 244.16,-143.708"/>
<polygon fill="#9a32cd" stroke="#9a32cd" points="210.492,-154.283 209.84,-143.708 203.755,-152.381 210.492,-154.283"/>
<text text-anchor="middle" x="227" y="-166" font-family="Helvetica,sans-Serif" font-size="10.00"> super_</text>
</g>
<!-- Node8&#45;&gt;Node25 -->
<g id="edge64" class="edge"><title>Node8&#45;&gt;Node25</title>
<path fill="none" stroke="#9a32cd" stroke-dasharray="5,2" d="M243.265,-150.987C259.161,-167.404 284.868,-191.028 312,-204 481.124,-284.861 714.601,-281.986 797.39,-277.958"/>
<polygon fill="#9a32cd" stroke="#9a32cd" points="245.693,-148.46 236.287,-143.584 240.6,-153.261 245.693,-148.46"/>
<text text-anchor="middle" x="530" y="-277" font-family="Helvetica,sans-Serif" font-size="10.00"> logger_</text>
</g>
<!-- Node9 -->
<g id="node16" class="node"><title>Node9</title>
<a xlink:href="classthrill_1_1common_1_1JsonVerbatim.html" target="_top" xlink:title="A special class to output verbatim text.">
<polygon fill="none" stroke="black" points="0.5,-122.5 0.5,-143.5 77.5,-143.5 77.5,-122.5 0.5,-122.5"/>
<text text-anchor="middle" x="39" y="-130.5" font-family="Helvetica,sans-Serif" font-size="10.00">JsonVerbatim</text>
</a>
</g>
<!-- Node9&#45;&gt;Node8 -->
<g id="edge16" class="edge"><title>Node9&#45;&gt;Node8</title>
<path fill="none" stroke="#9a32cd" stroke-dasharray="5,2" d="M88.3395,-133C121.461,-133 164.221,-133 193.445,-133"/>
<polygon fill="#9a32cd" stroke="#9a32cd" points="87.9538,-129.5 77.9537,-133 87.9537,-136.5 87.9538,-129.5"/>
<text text-anchor="middle" x="119" y="-137" font-family="Helvetica,sans-Serif" font-size="10.00"> common_</text>
</g>
<!-- Node10 -->
<g id="node19" class="node"><title>Node10</title>
<a xlink:href="classthrill_1_1net_1_1FlowControlChannel.html" target="_top" xlink:title="Provides a blocking collection for communication.">
<polygon fill="none" stroke="black" points="1043.5,-425.5 1043.5,-446.5 1148.5,-446.5 1148.5,-425.5 1043.5,-425.5"/>
<text text-anchor="middle" x="1096" y="-433.5" font-family="Helvetica,sans-Serif" font-size="10.00">FlowControlChannel</text>
</a>
</g>
<!-- Node10&#45;&gt;Node5 -->
<g id="edge20" class="edge"><title>Node10&#45;&gt;Node5</title>
<path fill="none" stroke="#9a32cd" stroke-dasharray="5,2" d="M1155.49,-422.604C1190.21,-411.639 1231.83,-392.467 1256,-360 1287.42,-317.8 1241.56,-284.423 1274,-243 1279.57,-235.892 1288.11,-231.286 1296.45,-228.311"/>
<polygon fill="#9a32cd" stroke="#9a32cd" points="1154.46,-419.256 1145.89,-425.484 1156.48,-425.961 1154.46,-419.256"/>
<text text-anchor="middle" x="1221" y="-414" font-family="Helvetica,sans-Serif" font-size="10.00"> net</text>
</g>
<!-- Node11 -->
<g id="node21" class="node"><title>Node11</title>
<a xlink:href="classthrill_1_1net_1_1FlowControlChannel_1_1LocalData.html" target="_top" xlink:title="LocalData">
<polygon fill="none" stroke="black" points="797.5,-685.5 797.5,-706.5 858.5,-706.5 858.5,-685.5 797.5,-685.5"/>
<text text-anchor="middle" x="828" y="-693.5" font-family="Helvetica,sans-Serif" font-size="10.00">LocalData</text>
</a>
</g>
<!-- Node11&#45;&gt;Node10 -->
<g id="edge22" class="edge"><title>Node11&#45;&gt;Node10</title>
<path fill="none" stroke="#9a32cd" stroke-dasharray="5,2" d="M868.401,-704.018C909.224,-709.533 971.108,-710.338 1006,-674 1039.67,-638.938 993.017,-493.455 1024,-456 1029.13,-449.802 1035.99,-445.433 1043.46,-442.371"/>
<polygon fill="#9a32cd" stroke="#9a32cd" points="868.914,-700.556 858.505,-702.535 867.876,-707.479 868.914,-700.556"/>
<text text-anchor="middle" x="957" y="-710" font-family="Helvetica,sans-Serif" font-size="10.00"> shmem_</text>
</g>
<!-- Node12 -->
<g id="node23" class="node"><title>Node12</title>
<a xlink:href="classthrill_1_1net_1_1Group.html" target="_top" xlink:title="A network Group is a collection of enumerated communication links, which provides point&#45;to&#45;point comm...">
<polygon fill="none" stroke="black" points="806.5,-365.5 806.5,-386.5 849.5,-386.5 849.5,-365.5 806.5,-365.5"/>
<text text-anchor="middle" x="828" y="-373.5" font-family="Helvetica,sans-Serif" font-size="10.00">Group</text>
</a>
</g>
<!-- Node12&#45;&gt;Node10 -->
<g id="edge24" class="edge"><title>Node12&#45;&gt;Node10</title>
<path fill="none" stroke="#9a32cd" stroke-dasharray="5,2" d="M859.8,-381.16C895.556,-387.174 955.257,-397.852 1006,-410 1024.66,-414.468 1045.24,-420.341 1062.01,-425.375"/>
<polygon fill="#9a32cd" stroke="#9a32cd" points="859.947,-377.637 849.508,-379.447 858.798,-384.542 859.947,-377.637"/>
<text text-anchor="middle" x="957" y="-414" font-family="Helvetica,sans-Serif" font-size="10.00"> group_</text>
</g>
<!-- Node12&#45;&gt;Node21 -->
<g id="edge58" class="edge"><title>Node12&#45;&gt;Node21</title>
<path fill="none" stroke="#9a32cd" stroke-dasharray="5,2" d="M859.769,-373.403C896.583,-369.389 958.292,-359.512 1006,-336 1015.34,-331.397 1014.78,-325.835 1024,-321 1036.29,-314.555 1050.89,-310.004 1063.71,-306.889"/>
<polygon fill="#9a32cd" stroke="#9a32cd" points="859.23,-369.94 849.633,-374.428 859.934,-376.904 859.23,-369.94"/>
<text text-anchor="middle" x="957" y="-369" font-family="Helvetica,sans-Serif" font-size="10.00"> group_</text>
</g>
<!-- Node13 -->
<g id="node25" class="node"><title>Node13</title>
<a xlink:href="classthrill_1_1common_1_1AtomicMovable.html" target="_top" xlink:title="AtomicMovable\&lt; size_t \&gt;">
<polygon fill="none" stroke="black" points="620,-462.5 620,-483.5 748,-483.5 748,-462.5 620,-462.5"/>
<text text-anchor="middle" x="684" y="-470.5" font-family="Helvetica,sans-Serif" font-size="10.00">AtomicMovable&lt; size_t &gt;</text>
</a>
</g>
<!-- Node13&#45;&gt;Node10 -->
<g id="edge26" class="edge"><title>Node13&#45;&gt;Node10</title>
<path fill="none" stroke="#9a32cd" stroke-dasharray="5,2" d="M758.445,-468.387C823.777,-464.061 921.311,-456.927 1006,-448 1018.07,-446.728 1031.02,-445.135 1043.23,-443.53"/>
<polygon fill="#9a32cd" stroke="#9a32cd" points="757.992,-464.909 748.243,-469.057 758.451,-471.894 757.992,-464.909"/>
<text text-anchor="middle" x="828" y="-536" font-family="Helvetica,sans-Serif" font-size="10.00"> count_allreduce_</text>
<text text-anchor="middle" x="828" y="-523" font-family="Helvetica,sans-Serif" font-size="10.00">count_broadcast_</text>
<text text-anchor="middle" x="828" y="-510" font-family="Helvetica,sans-Serif" font-size="10.00">count_reduce_</text>
<text text-anchor="middle" x="828" y="-497" font-family="Helvetica,sans-Serif" font-size="10.00">count_prefixsum_</text>
<text text-anchor="middle" x="828" y="-484" font-family="Helvetica,sans-Serif" font-size="10.00">count_barrier_</text>
<text text-anchor="middle" x="828" y="-471" font-family="Helvetica,sans-Serif" font-size="10.00">count_predecessor_</text>
</g>
<!-- Node14 -->
<g id="node27" class="node"><title>Node14</title>
<a xlink:href="classthrill_1_1common_1_1AtomicMovable.html" target="_top" xlink:title="This is a derivative of std::atomic which enables easier and less error&#45;prone writing of move&#45;only cl...">
<polygon fill="none" stroke="black" points="173,-445.5 173,-466.5 281,-466.5 281,-445.5 173,-445.5"/>
<text text-anchor="middle" x="227" y="-453.5" font-family="Helvetica,sans-Serif" font-size="10.00">AtomicMovable&lt; T &gt;</text>
</a>
</g>
<!-- Node14&#45;&gt;Node13 -->
<g id="edge28" class="edge"><title>Node14&#45;&gt;Node13</title>
<path fill="none" stroke="orange" stroke-dasharray="5,2" d="M291.238,-458.39C378.331,-461.629 532.96,-467.381 619.954,-470.618"/>
<polygon fill="orange" stroke="orange" points="291.342,-454.891 281.219,-458.017 291.081,-461.886 291.342,-454.891"/>
<text text-anchor="middle" x="376" y="-467" font-family="Helvetica,sans-Serif" font-size="10.00"> &lt; size_t &gt;</text>
</g>
<!-- Node16 -->
<g id="node31" class="node"><title>Node16</title>
<a xlink:href="classthrill_1_1common_1_1AtomicMovable.html" target="_top" xlink:title="AtomicMovable\&lt; uint64_t \&gt;">
<polygon fill="none" stroke="black" points="461.5,-425.5 461.5,-446.5 598.5,-446.5 598.5,-425.5 461.5,-425.5"/>
<text text-anchor="middle" x="530" y="-433.5" font-family="Helvetica,sans-Serif" font-size="10.00">AtomicMovable&lt; uint64_t &gt;</text>
</a>
</g>
<!-- Node14&#45;&gt;Node16 -->
<g id="edge34" class="edge"><title>Node14&#45;&gt;Node16</title>
<path fill="none" stroke="orange" stroke-dasharray="5,2" d="M285.282,-443.696C294.196,-442.201 303.317,-440.89 312,-440 361.706,-434.902 418.112,-433.998 461.094,-434.318"/>
<polygon fill="orange" stroke="orange" points="284.581,-440.266 275.341,-445.449 285.796,-447.159 284.581,-440.266"/>
<text text-anchor="middle" x="376" y="-444" font-family="Helvetica,sans-Serif" font-size="10.00"> &lt; uint64_t &gt;</text>
</g>
<!-- Node15 -->
<g id="node29" class="node"><title>Node15</title>
<a xlink:href="classthrill_1_1common_1_1ThreadBarrierSpinning.html" target="_top" xlink:title="Implements a cyclic barrier using atomics and a spin lock that can be used to synchronize threads...">
<polygon fill="none" stroke="black" points="771.5,-413.5 771.5,-434.5 884.5,-434.5 884.5,-413.5 771.5,-413.5"/>
<text text-anchor="middle" x="828" y="-421.5" font-family="Helvetica,sans-Serif" font-size="10.00">ThreadBarrierSpinning</text>
</a>
</g>
<!-- Node15&#45;&gt;Node10 -->
<g id="edge30" class="edge"><title>Node15&#45;&gt;Node10</title>
<path fill="none" stroke="#9a32cd" stroke-dasharray="5,2" d="M894.66,-426.985C940.54,-429.039 1000.65,-431.731 1043.21,-433.636"/>
<polygon fill="#9a32cd" stroke="#9a32cd" points="894.655,-423.481 884.508,-426.53 894.342,-430.474 894.655,-423.481"/>
<text text-anchor="middle" x="957" y="-435" font-family="Helvetica,sans-Serif" font-size="10.00"> barrier_</text>
</g>
<!-- Node16&#45;&gt;Node15 -->
<g id="edge32" class="edge"><title>Node16&#45;&gt;Node15</title>
<path fill="none" stroke="#9a32cd" stroke-dasharray="5,2" d="M608.749,-432.829C659.788,-430.774 725.088,-428.144 771.104,-426.291"/>
<polygon fill="#9a32cd" stroke="#9a32cd" points="608.592,-429.332 598.741,-433.232 608.874,-436.327 608.592,-429.332"/>
<text text-anchor="middle" x="684" y="-436" font-family="Helvetica,sans-Serif" font-size="10.00"> wait_time_</text>
</g>
<!-- Node17 -->
<g id="node34" class="node"><title>Node17</title>
<a xlink:href="classthrill_1_1common_1_1StatsTimerBaseStopped.html" target="_top" xlink:title="StatsTimerBaseStopped\l\&lt; enable_stats \&gt;">
<polygon fill="none" stroke="black" points="766.5,-567 766.5,-601 889.5,-601 889.5,-567 766.5,-567"/>
<text text-anchor="start" x="774.5" y="-588" font-family="Helvetica,sans-Serif" font-size="10.00">StatsTimerBaseStopped</text>
<text text-anchor="middle" x="828" y="-575" font-family="Helvetica,sans-Serif" font-size="10.00">&lt; enable_stats &gt;</text>
</a>
</g>
<!-- Node17&#45;&gt;Node10 -->
<g id="edge36" class="edge"><title>Node17&#45;&gt;Node10</title>
<path fill="none" stroke="#9a32cd" stroke-dasharray="5,2" d="M881.021,-561.212C884.275,-558.716 887.314,-555.984 890,-553 905.244,-536.067 890.89,-520.045 908,-505 941.597,-475.457 969.022,-507.183 1006,-482 1017.62,-474.089 1012.55,-464.144 1024,-456 1029.82,-451.865 1036.45,-448.584 1043.3,-445.98"/>
<polygon fill="#9a32cd" stroke="#9a32cd" points="878.884,-558.432 872.567,-566.938 882.81,-564.228 878.884,-558.432"/>
<text text-anchor="start" x="908.5" y="-665" font-family="Helvetica,sans-Serif" font-size="10.00"> timer_communication</text>
<text text-anchor="middle" x="957" y="-652" font-family="Helvetica,sans-Serif" font-size="10.00">_</text>
<text text-anchor="start" x="908.5" y="-639" font-family="Helvetica,sans-Serif" font-size="10.00">timer_predecessor</text>
<text text-anchor="middle" x="957" y="-626" font-family="Helvetica,sans-Serif" font-size="10.00">_</text>
<text text-anchor="start" x="908.5" y="-613" font-family="Helvetica,sans-Serif" font-size="10.00">timer_allreduce</text>
<text text-anchor="middle" x="957" y="-600" font-family="Helvetica,sans-Serif" font-size="10.00">_</text>
<text text-anchor="start" x="908.5" y="-587" font-family="Helvetica,sans-Serif" font-size="10.00">timer_barrier</text>
<text text-anchor="middle" x="957" y="-574" font-family="Helvetica,sans-Serif" font-size="10.00">_</text>
<text text-anchor="start" x="908.5" y="-561" font-family="Helvetica,sans-Serif" font-size="10.00">timer_prefixsum</text>
<text text-anchor="middle" x="957" y="-548" font-family="Helvetica,sans-Serif" font-size="10.00">_</text>
<text text-anchor="start" x="908.5" y="-535" font-family="Helvetica,sans-Serif" font-size="10.00">timer_broadcast</text>
<text text-anchor="middle" x="957" y="-522" font-family="Helvetica,sans-Serif" font-size="10.00">_</text>
<text text-anchor="middle" x="957" y="-509" font-family="Helvetica,sans-Serif" font-size="10.00">timer_reduce_</text>
</g>
<!-- Node18 -->
<g id="node36" class="node"><title>Node18</title>
<a xlink:href="classthrill_1_1common_1_1StatsTimerBase.html" target="_top" xlink:title="This class provides a statistical stop watch timer that can easily be deactivated using a boolean tem...">
<polygon fill="none" stroke="black" points="160.5,-570.5 160.5,-591.5 293.5,-591.5 293.5,-570.5 160.5,-570.5"/>
<text text-anchor="middle" x="227" y="-578.5" font-family="Helvetica,sans-Serif" font-size="10.00">StatsTimerBase&lt; Active &gt;</text>
</a>
</g>
<!-- Node18&#45;&gt;Node17 -->
<g id="edge38" class="edge"><title>Node18&#45;&gt;Node17</title>
<path fill="none" stroke="midnightblue" d="M303.865,-581.384C424.392,-581.985 655.478,-583.139 766.062,-583.691"/>
<polygon fill="midnightblue" stroke="midnightblue" points="303.631,-577.883 293.614,-581.333 303.596,-584.882 303.631,-577.883"/>
</g>
<!-- Node19 -->
<g id="node38" class="node"><title>Node19</title>
<a xlink:href="classthrill_1_1common_1_1StatsTimerBaseStopped.html" target="_top" xlink:title="StatsTimerBaseStopped\l\&lt; Active \&gt;">
<polygon fill="none" stroke="black" points="468.5,-592 468.5,-626 591.5,-626 591.5,-592 468.5,-592"/>
<text text-anchor="start" x="476.5" y="-613" font-family="Helvetica,sans-Serif" font-size="10.00">StatsTimerBaseStopped</text>
<text text-anchor="middle" x="530" y="-600" font-family="Helvetica,sans-Serif" font-size="10.00">&lt; Active &gt;</text>
</a>
</g>
<!-- Node18&#45;&gt;Node19 -->
<g id="edge42" class="edge"><title>Node18&#45;&gt;Node19</title>
<path fill="none" stroke="midnightblue" d="M303.861,-588.103C354.869,-592.816 420.924,-598.92 468.457,-603.313"/>
<polygon fill="midnightblue" stroke="midnightblue" points="304.149,-584.614 293.87,-587.179 303.505,-591.585 304.149,-584.614"/>
</g>
<!-- Node19&#45;&gt;Node17 -->
<g id="edge40" class="edge"><title>Node19&#45;&gt;Node17</title>
<path fill="none" stroke="orange" stroke-dasharray="5,2" d="M601.888,-602.969C652.125,-598.755 718.506,-593.186 766.333,-589.173"/>
<polygon fill="orange" stroke="orange" points="601.418,-599.496 591.746,-603.82 602.003,-606.472 601.418,-599.496"/>
<text text-anchor="middle" x="684" y="-604" font-family="Helvetica,sans-Serif" font-size="10.00"> &lt; enable_stats &gt;</text>
</g>
<!-- Node20 -->
<g id="node41" class="node"><title>Node20</title>
<a xlink:href="classthrill_1_1api_1_1MemoryConfig.html" target="_top" xlink:title="MemoryConfig">
<polygon fill="none" stroke="black" points="1056,-465.5 1056,-486.5 1136,-486.5 1136,-465.5 1056,-465.5"/>
<text text-anchor="middle" x="1096" y="-473.5" font-family="Helvetica,sans-Serif" font-size="10.00">MemoryConfig</text>
</a>
</g>
<!-- Node20&#45;&gt;Node5 -->
<g id="edge44" class="edge"><title>Node20&#45;&gt;Node5</title>
<path fill="none" stroke="#9a32cd" stroke-dasharray="5,2" d="M1146.56,-474.773C1182.93,-470.978 1229.98,-459.513 1256,-427 1307.35,-362.85 1225.14,-309.065 1274,-243 1279.42,-235.669 1288.04,-231.009 1296.48,-228.054"/>
<polygon fill="#9a32cd" stroke="#9a32cd" points="1145.79,-471.327 1136.13,-475.685 1146.4,-478.3 1145.79,-471.327"/>
<text text-anchor="middle" x="1221" y="-471" font-family="Helvetica,sans-Serif" font-size="10.00"> mem_config_</text>
</g>
<!-- Node21&#45;&gt;Node5 -->
<g id="edge48" class="edge"><title>Node21&#45;&gt;Node5</title>
<path fill="none" stroke="#9a32cd" stroke-dasharray="5,2" d="M1138.28,-302.882C1172.79,-302.376 1221.35,-296.8 1256,-273 1268.82,-264.197 1262.23,-253.166 1274,-243 1280.42,-237.452 1288.6,-233.282 1296.38,-230.225"/>
<polygon fill="#9a32cd" stroke="#9a32cd" points="1138.05,-299.382 1128.05,-302.891 1138.06,-306.382 1138.05,-299.382"/>
<text text-anchor="middle" x="1221" y="-302" font-family="Helvetica,sans-Serif" font-size="10.00"> multiplexer_</text>
</g>
<!-- Node22&#45;&gt;Node21 -->
<g id="edge50" class="edge"><title>Node22&#45;&gt;Node21</title>
<path fill="none" stroke="#9a32cd" stroke-dasharray="5,2" d="M885.499,-322.207C939.986,-316.718 1019.85,-308.672 1063.89,-304.235"/>
<polygon fill="#9a32cd" stroke="#9a32cd" points="884.895,-318.75 875.296,-323.235 885.597,-325.715 884.895,-318.75"/>
<text text-anchor="middle" x="957" y="-323" font-family="Helvetica,sans-Serif" font-size="10.00"> dispatcher_</text>
</g>
<!-- Node23 -->
<g id="node48" class="node"><title>Node23</title>
<a xlink:href="classthrill_1_1common_1_1OurConcurrentQueue.html" target="_top" xlink:title="OurConcurrentQueue\l\&lt; tlx::Delegate, mem\l::Allocator\&lt; tlx::Delegate \&gt; \&gt;">
<polygon fill="none" stroke="black" points="458.5,-359.5 458.5,-406.5 601.5,-406.5 601.5,-359.5 458.5,-359.5"/>
<text text-anchor="start" x="466.5" y="-393.5" font-family="Helvetica,sans-Serif" font-size="10.00">OurConcurrentQueue</text>
<text text-anchor="start" x="466.5" y="-380.5" font-family="Helvetica,sans-Serif" font-size="10.00">&lt; tlx::Delegate, mem</text>
<text text-anchor="middle" x="530" y="-367.5" font-family="Helvetica,sans-Serif" font-size="10.00">::Allocator&lt; tlx::Delegate &gt; &gt;</text>
</a>
</g>
<!-- Node23&#45;&gt;Node22 -->
<g id="edge52" class="edge"><title>Node23&#45;&gt;Node22</title>
<path fill="none" stroke="#9a32cd" stroke-dasharray="5,2" d="M611.483,-372.304C652.599,-366.398 703.14,-358.361 748,-349 762.197,-346.038 777.644,-342.144 791.145,-338.515"/>
<polygon fill="#9a32cd" stroke="#9a32cd" points="610.921,-368.849 601.514,-373.721 611.907,-375.779 610.921,-368.849"/>
<text text-anchor="middle" x="684" y="-374" font-family="Helvetica,sans-Serif" font-size="10.00"> jobqueue_</text>
</g>
<!-- Node24 -->
<g id="node50" class="node"><title>Node24</title>
<a xlink:href="classthrill_1_1common_1_1OurConcurrentQueue.html" target="_top" xlink:title="This is a queue, similar to std::queue and tbb::concurrent_queue, except that it uses mutexes for syn...">
<polygon fill="none" stroke="black" points="172.5,-366 172.5,-400 281.5,-400 281.5,-366 172.5,-366"/>
<text text-anchor="start" x="180.5" y="-387" font-family="Helvetica,sans-Serif" font-size="10.00">OurConcurrentQueue</text>
<text text-anchor="middle" x="227" y="-374" font-family="Helvetica,sans-Serif" font-size="10.00">&lt; T, Allocator &gt;</text>
</a>
</g>
<!-- Node24&#45;&gt;Node23 -->
<g id="edge54" class="edge"><title>Node24&#45;&gt;Node23</title>
<path fill="none" stroke="orange" stroke-dasharray="5,2" d="M291.665,-383C340.563,-383 407.681,-383 458.234,-383"/>
<polygon fill="orange" stroke="orange" points="291.52,-379.5 281.52,-383 291.52,-386.5 291.52,-379.5"/>
<text text-anchor="start" x="312.5" y="-400" font-family="Helvetica,sans-Serif" font-size="10.00"> &lt; tlx::Delegate, mem</text>
<text text-anchor="middle" x="376" y="-387" font-family="Helvetica,sans-Serif" font-size="10.00">::Allocator&lt; tlx::Delegate &gt; &gt;</text>
</g>
<!-- Node25&#45;&gt;Node5 -->
<g id="edge70" class="edge"><title>Node25&#45;&gt;Node5</title>
<path fill="none" stroke="#9a32cd" stroke-dasharray="5,2" d="M868.665,-271.637C966.999,-261.087 1215.5,-234.426 1296.23,-225.765"/>
<polygon fill="#9a32cd" stroke="#9a32cd" points="868.099,-268.178 858.529,-272.725 868.845,-275.138 868.099,-268.178"/>
<text text-anchor="middle" x="1096" y="-258" font-family="Helvetica,sans-Serif" font-size="10.00"> block_pool_</text>
</g>
<!-- Node25&#45;&gt;Node21 -->
<g id="edge60" class="edge"><title>Node25&#45;&gt;Node21</title>
<path fill="none" stroke="#9a32cd" stroke-dasharray="5,2" d="M868.905,-279.816C922.453,-284.811 1015.21,-293.464 1063.96,-298.011"/>
<polygon fill="#9a32cd" stroke="#9a32cd" points="869.025,-276.312 858.743,-278.868 868.375,-283.282 869.025,-276.312"/>
<text text-anchor="middle" x="957" y="-296" font-family="Helvetica,sans-Serif" font-size="10.00"> block_pool_</text>
</g>
<!-- Node26 -->
<g id="node61" class="node"><title>Node26</title>
<a xlink:href="classthrill_1_1net_1_1FlowControlChannelManager.html" target="_top" xlink:title="FlowControlChannelManager">
<polygon fill="none" stroke="black" points="1024.5,-330.5 1024.5,-351.5 1167.5,-351.5 1167.5,-330.5 1024.5,-330.5"/>
<text text-anchor="middle" x="1096" y="-338.5" font-family="Helvetica,sans-Serif" font-size="10.00">FlowControlChannelManager</text>
</a>
</g>
<!-- Node26&#45;&gt;Node5 -->
<g id="edge72" class="edge"><title>Node26&#45;&gt;Node5</title>
<path fill="none" stroke="#9a32cd" stroke-dasharray="5,2" d="M1177.85,-345.112C1205.71,-342.357 1235.06,-334.254 1256,-315 1280.28,-292.675 1252.49,-268.004 1274,-243 1279.77,-236.293 1288.16,-231.791 1296.31,-228.787"/>
<polygon fill="#9a32cd" stroke="#9a32cd" points="1177.38,-341.638 1167.68,-345.896 1177.92,-348.618 1177.38,-341.638"/>
<text text-anchor="middle" x="1221" y="-347" font-family="Helvetica,sans-Serif" font-size="10.00"> flow_manager_</text>
</g>
<!-- Node27 -->
<g id="node65" class="node"><title>Node27</title>
<a xlink:href="classthrill_1_1api_1_1DIAMemUse.html" target="_top" xlink:title="Description of the amount of RAM the internal data structures of a DIANode require.">
<polygon fill="none" stroke="black" points="1285,-0.5 1285,-21.5 1359,-21.5 1359,-0.5 1285,-0.5"/>
<text text-anchor="middle" x="1322" y="-8.5" font-family="Helvetica,sans-Serif" font-size="10.00">DIAMemUse</text>
</a>
</g>
<!-- Node27&#45;&gt;Node3 -->
<g id="edge78" class="edge"><title>Node27&#45;&gt;Node3</title>
<path fill="none" stroke="#9a32cd" stroke-dasharray="5,2" d="M1369.28,-8.5964C1392.19,-9.17553 1419.54,-12.5288 1442,-23 1474.88,-38.3259 1502.41,-72.8812 1514.86,-90.3953"/>
<polygon fill="#9a32cd" stroke="#9a32cd" points="1369.13,-5.09508 1359.1,-8.50992 1369.07,-12.0948 1369.13,-5.09508"/>
<text text-anchor="middle" x="1415" y="-27" font-family="Helvetica,sans-Serif" font-size="10.00"> mem_limit_</text>
</g>
</g>
</svg>
