<?xml version="1.0" encoding="UTF-8" standalone="no"?>
<!DOCTYPE svg PUBLIC "-//W3C//DTD SVG 1.1//EN"
 "http://www.w3.org/Graphics/SVG/1.1/DTD/svg11.dtd">
<!-- Generated by graphviz version 2.36.0 (20140111.2315)
 -->
<!-- Title: DIANode&lt; ValueType &gt;::Child Pages: 1 -->
<svg width="1868pt" height="739pt"
 viewBox="0.00 0.00 1868.00 739.00" xmlns="http://www.w3.org/2000/svg" xmlns:xlink="http://www.w3.org/1999/xlink">
<g id="graph0" class="graph" transform="scale(1 1) rotate(0) translate(4 735)">
<title>DIANode&lt; ValueType &gt;::Child</title>
<!-- Node1 -->
<g id="node1" class="node"><title>Node1</title>
<polygon fill="#bfbfbf" stroke="black" points="1746.5,-142 1746.5,-172 1859.5,-172 1859.5,-142 1746.5,-142"/>
<text text-anchor="start" x="1754.5" y="-160" font-family="Helvetica,sans-Serif" font-size="10.00">DIANode&lt; ValueType</text>
<text text-anchor="middle" x="1803" y="-149" font-family="Helvetica,sans-Serif" font-size="10.00"> &gt;::Child</text>
</g>
<!-- Node2 -->
<g id="node2" class="node"><title>Node2</title>
<g id="a_node2"><a xlink:href="classtlx_1_1Delegate.html" target="_top" xlink:title="Delegate\&lt; void(const\l ValueType &amp;)\&gt;">
<polygon fill="none" stroke="black" points="1560,-169 1560,-199 1670,-199 1670,-169 1560,-169"/>
<text text-anchor="start" x="1568" y="-187" font-family="Helvetica,sans-Serif" font-size="10.00">Delegate&lt; void(const</text>
<text text-anchor="middle" x="1615" y="-176" font-family="Helvetica,sans-Serif" font-size="10.00"> ValueType &amp;)&gt;</text>
</a>
</g>
</g>
<!-- Node2&#45;&gt;Node1 -->
<g id="edge1" class="edge"><title>Node2&#45;&gt;Node1</title>
<path fill="none" stroke="#9a32cd" stroke-dasharray="5,2" d="M1680.07,-174.699C1701.58,-171.577 1725.38,-168.122 1746.2,-165.1"/>
<polygon fill="#9a32cd" stroke="#9a32cd" points="1679.44,-171.254 1670.05,-176.154 1680.45,-178.181 1679.44,-171.254"/>
<text text-anchor="middle" x="1708" y="-176" font-family="Helvetica,sans-Serif" font-size="10.00"> callback</text>
</g>
<!-- Node3 -->
<g id="node3" class="node"><title>Node3</title>
<g id="a_node3"><a xlink:href="classtlx_1_1Delegate.html" target="_top" xlink:title="Delegate\&lt; T, Allocator \&gt;">
<polygon fill="none" stroke="black" points="1274,-190.5 1274,-209.5 1398,-209.5 1398,-190.5 1274,-190.5"/>
<text text-anchor="middle" x="1336" y="-197.5" font-family="Helvetica,sans-Serif" font-size="10.00">Delegate&lt; T, Allocator &gt;</text>
</a>
</g>
</g>
<!-- Node3&#45;&gt;Node2 -->
<g id="edge2" class="edge"><title>Node3&#45;&gt;Node2</title>
<path fill="none" stroke="orange" stroke-dasharray="5,2" d="M1408.28,-195.883C1455.44,-193.159 1516.32,-189.642 1559.59,-187.143"/>
<polygon fill="orange" stroke="orange" points="1407.91,-192.398 1398.13,-196.469 1408.32,-199.386 1407.91,-192.398"/>
<text text-anchor="middle" x="1479" y="-199" font-family="Helvetica,sans-Serif" font-size="10.00"> &lt; void(const ValueType &amp;)&gt;</text>
</g>
<!-- Node4 -->
<g id="node4" class="node"><title>Node4</title>
<g id="a_node4"><a xlink:href="classthrill_1_1api_1_1DIABase.html" target="_top" xlink:title="The DIABase is the untyped super class of DIANode. ">
<polygon fill="none" stroke="black" points="1587,-114.5 1587,-133.5 1643,-133.5 1643,-114.5 1587,-114.5"/>
<text text-anchor="middle" x="1615" y="-121.5" font-family="Helvetica,sans-Serif" font-size="10.00">DIABase</text>
</a>
</g>
</g>
<!-- Node4&#45;&gt;Node1 -->
<g id="edge3" class="edge"><title>Node4&#45;&gt;Node1</title>
<path fill="none" stroke="#9a32cd" stroke-dasharray="5,2" d="M1653.09,-130.581C1679.7,-135.301 1716.02,-141.745 1746.12,-147.086"/>
<polygon fill="#9a32cd" stroke="#9a32cd" points="1653.5,-127.099 1643.05,-128.798 1652.28,-133.992 1653.5,-127.099"/>
<text text-anchor="middle" x="1708" y="-147" font-family="Helvetica,sans-Serif" font-size="10.00"> node</text>
</g>
<!-- Node5 -->
<g id="node5" class="node"><title>Node5</title>
<g id="a_node5"><a xlink:href="classtlx_1_1ReferenceCounter.html" target="_top" xlink:title="Provides reference counting abilities for use with CountingPtr. ">
<polygon fill="none" stroke="black" points="1288,-76.5 1288,-95.5 1384,-95.5 1384,-76.5 1288,-76.5"/>
<text text-anchor="middle" x="1336" y="-83.5" font-family="Helvetica,sans-Serif" font-size="10.00">ReferenceCounter</text>
</a>
</g>
</g>
<!-- Node5&#45;&gt;Node4 -->
<g id="edge4" class="edge"><title>Node5&#45;&gt;Node4</title>
<path fill="none" stroke="midnightblue" d="M1394.56,-93.8961C1453.39,-101.966 1542.23,-114.154 1586.66,-120.25"/>
<polygon fill="midnightblue" stroke="midnightblue" points="1394.69,-90.3809 1384.3,-92.4893 1393.73,-97.316 1394.69,-90.3809"/>
</g>
<!-- Node6 -->
<g id="node6" class="node"><title>Node6</title>
<g id="a_node6"><a xlink:href="classthrill_1_1api_1_1Context.html" target="_top" xlink:title="The Context of a job is a unique instance per worker which holds references to all underlying parts o...">
<polygon fill="none" stroke="black" points="1310.5,-152.5 1310.5,-171.5 1361.5,-171.5 1361.5,-152.5 1310.5,-152.5"/>
<text text-anchor="middle" x="1336" y="-159.5" font-family="Helvetica,sans-Serif" font-size="10.00">Context</text>
</a>
</g>
</g>
<!-- Node6&#45;&gt;Node4 -->
<g id="edge5" class="edge"><title>Node6&#45;&gt;Node4</title>
<path fill="none" stroke="#9a32cd" stroke-dasharray="5,2" d="M1371.68,-158.746C1412.53,-154.727 1482.39,-147.271 1542,-138 1556.85,-135.691 1573.31,-132.536 1586.73,-129.805"/>
<polygon fill="#9a32cd" stroke="#9a32cd" points="1371.31,-155.266 1361.69,-159.717 1371.99,-162.233 1371.31,-155.266"/>
<text text-anchor="middle" x="1479" y="-157" font-family="Helvetica,sans-Serif" font-size="10.00"> context_</text>
</g>
<!-- Node7 -->
<g id="node7" class="node"><title>Node7</title>
<g id="a_node7"><a xlink:href="classthrill_1_1net_1_1Manager.html" target="_top" xlink:title="Initializes communication channels, manages communication channels and handles errors. ">
<polygon fill="none" stroke="black" points="503,-215.5 503,-234.5 557,-234.5 557,-215.5 503,-215.5"/>
<text text-anchor="middle" x="530" y="-222.5" font-family="Helvetica,sans-Serif" font-size="10.00">Manager</text>
</a>
</g>
</g>
<!-- Node7&#45;&gt;Node6 -->
<g id="edge6" class="edge"><title>Node7&#45;&gt;Node6</title>
<path fill="none" stroke="#9a32cd" stroke-dasharray="5,2" d="M567.285,-223.933C673.52,-220.511 992.979,-208.099 1256,-176 1274.25,-173.773 1294.68,-170.12 1310.2,-167.104"/>
<polygon fill="#9a32cd" stroke="#9a32cd" points="566.99,-220.44 557.105,-224.254 567.21,-227.437 566.99,-220.44"/>
<text text-anchor="middle" x="957" y="-210" font-family="Helvetica,sans-Serif" font-size="10.00"> net_manager_</text>
</g>
<!-- Node7&#45;&gt;Node6 -->
<g id="edge38" class="edge"><title>Node7&#45;&gt;Node6</title>
<path fill="none" stroke="#9a32cd" stroke-dasharray="5,2" d="M567.167,-219.785C583.316,-217.544 602.591,-214.989 620,-213 747.73,-198.408 779.798,-195.609 908,-186 1060.9,-174.54 1244.96,-165.952 1310.43,-163.06"/>
<polygon fill="#9a32cd" stroke="#9a32cd" points="566.474,-216.348 557.058,-221.203 567.447,-223.28 566.474,-216.348"/>
<text text-anchor="middle" x="957" y="-189" font-family="Helvetica,sans-Serif" font-size="10.00"> mem_manager_</text>
</g>
<!-- Node22 -->
<g id="node22" class="node"><title>Node22</title>
<g id="a_node22"><a xlink:href="classthrill_1_1data_1_1Multiplexer.html" target="_top" xlink:title="Multiplexes virtual Connections on Dispatcher. ">
<polygon fill="none" stroke="black" points="1064,-300.5 1064,-319.5 1128,-319.5 1128,-300.5 1064,-300.5"/>
<text text-anchor="middle" x="1096" y="-307.5" font-family="Helvetica,sans-Serif" font-size="10.00">Multiplexer</text>
</a>
</g>
</g>
<!-- Node7&#45;&gt;Node22 -->
<g id="edge35" class="edge"><title>Node7&#45;&gt;Node22</title>
<path fill="none" stroke="#9a32cd" stroke-dasharray="5,2" d="M567.195,-225.816C610.396,-227.14 684.741,-230.528 748,-239 865.628,-254.753 1003.12,-287.108 1063.67,-302.079"/>
<polygon fill="#9a32cd" stroke="#9a32cd" points="567.264,-222.317 557.168,-225.529 567.064,-229.314 567.264,-222.317"/>
<text text-anchor="middle" x="828" y="-266" font-family="Helvetica,sans-Serif" font-size="10.00"> mem_manager_</text>
</g>
<!-- Node23 -->
<g id="node23" class="node"><title>Node23</title>
<g id="a_node23"><a xlink:href="classthrill_1_1net_1_1DispatcherThread.html" target="_top" xlink:title="DispatcherThread contains a net::Dispatcher object and an associated thread that runs in the dispatch...">
<polygon fill="none" stroke="black" points="781,-390.5 781,-409.5 875,-409.5 875,-390.5 781,-390.5"/>
<text text-anchor="middle" x="828" y="-397.5" font-family="Helvetica,sans-Serif" font-size="10.00">DispatcherThread</text>
</a>
</g>
</g>
<!-- Node7&#45;&gt;Node23 -->
<g id="edge29" class="edge"><title>Node7&#45;&gt;Node23</title>
<path fill="none" stroke="#9a32cd" stroke-dasharray="5,2" d="M553.755,-240.334C595.138,-267.948 685.855,-327.232 766,-371 778.761,-377.969 793.472,-384.991 805.249,-390.379"/>
<polygon fill="#9a32cd" stroke="#9a32cd" points="555.495,-237.287 545.239,-234.633 551.601,-243.104 555.495,-237.287"/>
<text text-anchor="middle" x="684" y="-364" font-family="Helvetica,sans-Serif" font-size="10.00"> mem_manager_</text>
</g>
<!-- Node26 -->
<g id="node26" class="node"><title>Node26</title>
<g id="a_node26"><a xlink:href="classthrill_1_1data_1_1BlockPool.html" target="_top" xlink:title="Pool to allocate, keep, swap out/in, and free all ByteBlocks on the host. ">
<polygon fill="none" stroke="black" points="797.5,-294.5 797.5,-313.5 858.5,-313.5 858.5,-294.5 797.5,-294.5"/>
<text text-anchor="middle" x="828" y="-301.5" font-family="Helvetica,sans-Serif" font-size="10.00">BlockPool</text>
</a>
</g>
</g>
<!-- Node7&#45;&gt;Node26 -->
<g id="edge34" class="edge"><title>Node7&#45;&gt;Node26</title>
<path fill="none" stroke="#9a32cd" stroke-dasharray="5,2" d="M567.114,-229.932C624.377,-237.861 731.27,-253.146 748,-259 772.732,-267.654 798.607,-284.006 813.743,-294.434"/>
<polygon fill="#9a32cd" stroke="#9a32cd" points="567.416,-226.44 557.032,-228.541 566.46,-233.375 567.416,-226.44"/>
<text text-anchor="middle" x="684" y="-262" font-family="Helvetica,sans-Serif" font-size="10.00"> mem_manager_</text>
</g>
<!-- Node8 -->
<g id="node8" class="node"><title>Node8</title>
<g id="a_node8"><a xlink:href="classthrill_1_1common_1_1ProfileTask.html" target="_top" xlink:title="ProfileTask">
<polygon fill="none" stroke="black" points="194,-341.5 194,-360.5 260,-360.5 260,-341.5 194,-341.5"/>
<text text-anchor="middle" x="227" y="-348.5" font-family="Helvetica,sans-Serif" font-size="10.00">ProfileTask</text>
</a>
</g>
</g>
<!-- Node8&#45;&gt;Node7 -->
<g id="edge7" class="edge"><title>Node8&#45;&gt;Node7</title>
<path fill="none" stroke="midnightblue" d="M260.705,-337.31C322.136,-311.594 453.337,-256.673 506.214,-234.538"/>
<polygon fill="midnightblue" stroke="midnightblue" points="258.992,-334.232 251.119,-341.322 261.695,-340.689 258.992,-334.232"/>
</g>
<!-- Node8&#45;&gt;Node26 -->
<g id="edge32" class="edge"><title>Node8&#45;&gt;Node26</title>
<path fill="none" stroke="midnightblue" d="M270.284,-353.754C359.507,-358.629 573.196,-365.359 748,-332 768.154,-328.154 790.072,-320.05 805.698,-313.546"/>
<polygon fill="midnightblue" stroke="midnightblue" points="270.214,-350.244 260.032,-353.172 269.817,-357.233 270.214,-350.244"/>
</g>
<!-- Node9 -->
<g id="node9" class="node"><title>Node9</title>
<g id="a_node9"><a xlink:href="classthrill_1_1common_1_1JsonLogger.html" target="_top" xlink:title="JsonLogger is a receiver of JSON output objects for logging. ">
<polygon fill="none" stroke="black" points="193.5,-138.5 193.5,-157.5 260.5,-157.5 260.5,-138.5 193.5,-138.5"/>
<text text-anchor="middle" x="227" y="-145.5" font-family="Helvetica,sans-Serif" font-size="10.00">JsonLogger</text>
</a>
</g>
</g>
<!-- Node9&#45;&gt;Node4 -->
<g id="edge39" class="edge"><title>Node9&#45;&gt;Node4</title>
<path fill="none" stroke="#9a32cd" stroke-dasharray="5,2" d="M253.25,-133.445C303.831,-105.705 421.916,-48 529,-48 529,-48 529,-48 1337,-48 1436.24,-48 1548.57,-93.924 1593.68,-114.375"/>
<polygon fill="#9a32cd" stroke="#9a32cd" points="251.366,-130.488 244.333,-138.412 254.773,-136.603 251.366,-130.488"/>
<text text-anchor="middle" x="957" y="-51" font-family="Helvetica,sans-Serif" font-size="10.00"> logger_</text>
</g>
<!-- Node9&#45;&gt;Node6 -->
<g id="edge24" class="edge"><title>Node9&#45;&gt;Node6</title>
<path fill="none" stroke="#9a32cd" stroke-dasharray="5,2" d="M270.554,-148.538C453.108,-150.847 1167.18,-159.878 1310.04,-161.684"/>
<polygon fill="#9a32cd" stroke="#9a32cd" points="270.574,-145.038 260.531,-148.411 270.486,-152.038 270.574,-145.038"/>
<text text-anchor="middle" x="828" y="-171" font-family="Helvetica,sans-Serif" font-size="10.00"> logger_</text>
<text text-anchor="middle" x="828" y="-160" font-family="Helvetica,sans-Serif" font-size="10.00">base_logger_</text>
</g>
<!-- Node9&#45;&gt;Node7 -->
<g id="edge8" class="edge"><title>Node9&#45;&gt;Node7</title>
<path fill="none" stroke="#9a32cd" stroke-dasharray="5,2" d="M270.844,-158.96C334.161,-175.157 450.824,-205.002 502.812,-218.301"/>
<polygon fill="#9a32cd" stroke="#9a32cd" points="271.341,-155.475 260.785,-156.387 269.606,-162.256 271.341,-155.475"/>
<text text-anchor="middle" x="376" y="-204" font-family="Helvetica,sans-Serif" font-size="10.00"> logger_</text>
</g>
<!-- Node9&#45;&gt;Node9 -->
<g id="edge10" class="edge"><title>Node9&#45;&gt;Node9</title>
<path fill="none" stroke="#9a32cd" stroke-dasharray="5,2" d="M207.001,-167.4C208.337,-172.315 215.003,-176 227,-176 246.195,-176 251.744,-166.565 243.646,-157.757"/>
<polygon fill="#9a32cd" stroke="#9a32cd" points="210.376,-168.352 210.354,-157.757 203.764,-166.053 210.376,-168.352"/>
<text text-anchor="middle" x="227" y="-179" font-family="Helvetica,sans-Serif" font-size="10.00"> super_</text>
</g>
<!-- Node9&#45;&gt;Node26 -->
<g id="edge33" class="edge"><title>Node9&#45;&gt;Node26</title>
<path fill="none" stroke="#9a32cd" stroke-dasharray="5,2" d="M244.863,-165.142C260.85,-180.491 286.199,-202.587 312,-216 438.317,-281.667 479.009,-284.254 620,-304 682.639,-312.773 756.989,-309.483 797.341,-306.57"/>
<polygon fill="#9a32cd" stroke="#9a32cd" points="246.99,-162.325 237.404,-157.812 242.083,-167.318 246.99,-162.325"/>
<text text-anchor="middle" x="530" y="-305" font-family="Helvetica,sans-Serif" font-size="10.00"> logger_</text>
</g>
<!-- Node10 -->
<g id="node10" class="node"><title>Node10</title>
<g id="a_node10"><a xlink:href="classthrill_1_1common_1_1JsonVerbatim.html" target="_top" xlink:title="A special class to output verbatim text. ">
<polygon fill="none" stroke="black" points="0.5,-138.5 0.5,-157.5 77.5,-157.5 77.5,-138.5 0.5,-138.5"/>
<text text-anchor="middle" x="39" y="-145.5" font-family="Helvetica,sans-Serif" font-size="10.00">JsonVerbatim</text>
</a>
</g>
</g>
<!-- Node10&#45;&gt;Node9 -->
<g id="edge9" class="edge"><title>Node10&#45;&gt;Node9</title>
<path fill="none" stroke="#9a32cd" stroke-dasharray="5,2" d="M88.0045,-148C121.105,-148 164.226,-148 193.388,-148"/>
<polygon fill="#9a32cd" stroke="#9a32cd" points="87.6399,-144.5 77.6399,-148 87.6398,-151.5 87.6399,-144.5"/>
<text text-anchor="middle" x="119" y="-151" font-family="Helvetica,sans-Serif" font-size="10.00"> common_</text>
</g>
<!-- Node11 -->
<g id="node11" class="node"><title>Node11</title>
<g id="a_node11"><a xlink:href="classthrill_1_1net_1_1FlowControlChannel.html" target="_top" xlink:title="Provides a blocking collection for communication. ">
<polygon fill="none" stroke="black" points="1043.5,-447.5 1043.5,-466.5 1148.5,-466.5 1148.5,-447.5 1043.5,-447.5"/>
<text text-anchor="middle" x="1096" y="-454.5" font-family="Helvetica,sans-Serif" font-size="10.00">FlowControlChannel</text>
</a>
</g>
</g>
<!-- Node11&#45;&gt;Node6 -->
<g id="edge11" class="edge"><title>Node11&#45;&gt;Node6</title>
<path fill="none" stroke="#9a32cd" stroke-dasharray="5,2" d="M1126.6,-442.612C1163.73,-422.84 1226.16,-383.538 1256,-330 1288.48,-271.737 1231.31,-232.252 1274,-181 1282.87,-170.347 1297.63,-165.567 1310.4,-163.465"/>
<polygon fill="#9a32cd" stroke="#9a32cd" points="1124.56,-439.729 1117.29,-447.441 1127.78,-445.943 1124.56,-439.729"/>
<text text-anchor="middle" x="1221" y="-406" font-family="Helvetica,sans-Serif" font-size="10.00"> net</text>
</g>
<!-- Node12 -->
<g id="node12" class="node"><title>Node12</title>
<g id="a_node12"><a xlink:href="classthrill_1_1net_1_1FlowControlChannel_1_1LocalData.html" target="_top" xlink:title="LocalData">
<polygon fill="none" stroke="black" points="797.5,-428.5 797.5,-447.5 858.5,-447.5 858.5,-428.5 797.5,-428.5"/>
<text text-anchor="middle" x="828" y="-435.5" font-family="Helvetica,sans-Serif" font-size="10.00">LocalData</text>
</a>
</g>
</g>
<!-- Node12&#45;&gt;Node11 -->
<g id="edge12" class="edge"><title>Node12&#45;&gt;Node11</title>
<path fill="none" stroke="#9a32cd" stroke-dasharray="5,2" d="M868.592,-437.264C904.527,-436.984 958.934,-437.526 1006,-442 1019.1,-443.246 1033.19,-445.289 1046.2,-447.472"/>
<polygon fill="#9a32cd" stroke="#9a32cd" points="868.479,-433.765 858.515,-437.369 868.551,-440.765 868.479,-433.765"/>
<text text-anchor="middle" x="957" y="-445" font-family="Helvetica,sans-Serif" font-size="10.00"> shmem_</text>
</g>
<!-- Node13 -->
<g id="node13" class="node"><title>Node13</title>
<g id="a_node13"><a xlink:href="classthrill_1_1net_1_1Group.html" target="_top" xlink:title="A network Group is a collection of enumerated communication links, which provides point&#45;to&#45;point comm...">
<polygon fill="none" stroke="black" points="806.5,-342.5 806.5,-361.5 849.5,-361.5 849.5,-342.5 806.5,-342.5"/>
<text text-anchor="middle" x="828" y="-349.5" font-family="Helvetica,sans-Serif" font-size="10.00">Group</text>
</a>
</g>
</g>
<!-- Node13&#45;&gt;Node11 -->
<g id="edge13" class="edge"><title>Node13&#45;&gt;Node11</title>
<path fill="none" stroke="#9a32cd" stroke-dasharray="5,2" d="M859.769,-352.909C903.409,-354.601 980.785,-359.203 1006,-371 1043.76,-388.664 1075.4,-428.944 1088.51,-447.419"/>
<polygon fill="#9a32cd" stroke="#9a32cd" points="859.83,-349.409 849.711,-352.547 859.579,-356.404 859.83,-349.409"/>
<text text-anchor="middle" x="957" y="-374" font-family="Helvetica,sans-Serif" font-size="10.00"> group_</text>
</g>
<!-- Node13&#45;&gt;Node22 -->
<g id="edge30" class="edge"><title>Node13&#45;&gt;Node22</title>
<path fill="none" stroke="#9a32cd" stroke-dasharray="5,2" d="M859.8,-346.864C874.403,-344.446 892.096,-341.542 908,-339 962.826,-330.238 1026.76,-320.406 1063.88,-314.736"/>
<polygon fill="#9a32cd" stroke="#9a32cd" points="859.075,-343.436 849.783,-348.526 860.221,-350.342 859.075,-343.436"/>
<text text-anchor="middle" x="957" y="-342" font-family="Helvetica,sans-Serif" font-size="10.00"> group_</text>
</g>
<!-- Node14 -->
<g id="node14" class="node"><title>Node14</title>
<g id="a_node14"><a xlink:href="classthrill_1_1common_1_1AtomicMovable.html" target="_top" xlink:title="AtomicMovable\&lt; size_t \&gt;">
<polygon fill="none" stroke="black" points="620,-510.5 620,-529.5 748,-529.5 748,-510.5 620,-510.5"/>
<text text-anchor="middle" x="684" y="-517.5" font-family="Helvetica,sans-Serif" font-size="10.00">AtomicMovable&lt; size_t &gt;</text>
</a>
</g>
</g>
<!-- Node14&#45;&gt;Node11 -->
<g id="edge14" class="edge"><title>Node14&#45;&gt;Node11</title>
<path fill="none" stroke="#9a32cd" stroke-dasharray="5,2" d="M758.23,-516.116C823.712,-511.674 922.021,-502.61 1006,-485 1027.72,-480.446 1051.68,-472.747 1069.26,-466.574"/>
<polygon fill="#9a32cd" stroke="#9a32cd" points="757.758,-512.639 748.01,-516.79 758.218,-519.624 757.758,-512.639"/>
<text text-anchor="middle" x="828" y="-574" font-family="Helvetica,sans-Serif" font-size="10.00"> count_allreduce_</text>
<text text-anchor="middle" x="828" y="-563" font-family="Helvetica,sans-Serif" font-size="10.00">count_broadcast_</text>
<text text-anchor="middle" x="828" y="-552" font-family="Helvetica,sans-Serif" font-size="10.00">count_reduce_</text>
<text text-anchor="middle" x="828" y="-541" font-family="Helvetica,sans-Serif" font-size="10.00">count_prefixsum_</text>
<text text-anchor="middle" x="828" y="-530" font-family="Helvetica,sans-Serif" font-size="10.00">count_barrier_</text>
<text text-anchor="middle" x="828" y="-519" font-family="Helvetica,sans-Serif" font-size="10.00">count_predecessor_</text>
</g>
<!-- Node15 -->
<g id="node15" class="node"><title>Node15</title>
<g id="a_node15"><a xlink:href="classthrill_1_1common_1_1AtomicMovable.html" target="_top" xlink:title="This is a derivative of std::atomic which enables easier and less error&#45;prone writing of move&#45;only cl...">
<polygon fill="none" stroke="black" points="173,-488.5 173,-507.5 281,-507.5 281,-488.5 173,-488.5"/>
<text text-anchor="middle" x="227" y="-495.5" font-family="Helvetica,sans-Serif" font-size="10.00">AtomicMovable&lt; T &gt;</text>
</a>
</g>
</g>
<!-- Node15&#45;&gt;Node14 -->
<g id="edge15" class="edge"><title>Node15&#45;&gt;Node14</title>
<path fill="none" stroke="orange" stroke-dasharray="5,2" d="M291.317,-501.061C378.065,-505.256 532.963,-512.745 619.701,-516.939"/>
<polygon fill="orange" stroke="orange" points="291.242,-497.554 281.085,-500.567 290.904,-504.546 291.242,-497.554"/>
<text text-anchor="middle" x="376" y="-512" font-family="Helvetica,sans-Serif" font-size="10.00"> &lt; size_t &gt;</text>
</g>
<!-- Node17 -->
<g id="node17" class="node"><title>Node17</title>
<g id="a_node17"><a xlink:href="classthrill_1_1common_1_1AtomicMovable.html" target="_top" xlink:title="AtomicMovable\&lt; uint64_t \&gt;">
<polygon fill="none" stroke="black" points="461.5,-467.5 461.5,-486.5 598.5,-486.5 598.5,-467.5 461.5,-467.5"/>
<text text-anchor="middle" x="530" y="-474.5" font-family="Helvetica,sans-Serif" font-size="10.00">AtomicMovable&lt; uint64_t &gt;</text>
</a>
</g>
</g>
<!-- Node15&#45;&gt;Node17 -->
<g id="edge18" class="edge"><title>Node15&#45;&gt;Node17</title>
<path fill="none" stroke="orange" stroke-dasharray="5,2" d="M284.339,-486.75C293.55,-485.254 303.017,-483.921 312,-483 361.864,-477.887 418.487,-476.468 461.387,-476.284"/>
<polygon fill="orange" stroke="orange" points="283.75,-483.3 274.478,-488.426 284.923,-490.201 283.75,-483.3"/>
<text text-anchor="middle" x="376" y="-486" font-family="Helvetica,sans-Serif" font-size="10.00"> &lt; uint64_t &gt;</text>
</g>
<!-- Node16 -->
<g id="node16" class="node"><title>Node16</title>
<g id="a_node16"><a xlink:href="classthrill_1_1common_1_1ThreadBarrierSpinning.html" target="_top" xlink:title="Implements a cyclic barrier using atomics and a spin lock that can be used to synchronize threads...">
<polygon fill="none" stroke="black" points="771.5,-466.5 771.5,-485.5 884.5,-485.5 884.5,-466.5 771.5,-466.5"/>
<text text-anchor="middle" x="828" y="-473.5" font-family="Helvetica,sans-Serif" font-size="10.00">ThreadBarrierSpinning</text>
</a>
</g>
</g>
<!-- Node16&#45;&gt;Node11 -->
<g id="edge16" class="edge"><title>Node16&#45;&gt;Node11</title>
<path fill="none" stroke="#9a32cd" stroke-dasharray="5,2" d="M894.903,-471.293C940.749,-468.018 1001.01,-463.714 1043.37,-460.688"/>
<polygon fill="#9a32cd" stroke="#9a32cd" points="894.488,-467.813 884.762,-472.017 894.986,-474.796 894.488,-467.813"/>
<text text-anchor="middle" x="957" y="-473" font-family="Helvetica,sans-Serif" font-size="10.00"> barrier_</text>
</g>
<!-- Node17&#45;&gt;Node16 -->
<g id="edge17" class="edge"><title>Node17&#45;&gt;Node16</title>
<path fill="none" stroke="#9a32cd" stroke-dasharray="5,2" d="M608.542,-476.738C659.588,-476.566 725.22,-476.344 771.166,-476.189"/>
<polygon fill="#9a32cd" stroke="#9a32cd" points="608.525,-473.238 598.537,-476.772 608.549,-480.238 608.525,-473.238"/>
<text text-anchor="middle" x="684" y="-480" font-family="Helvetica,sans-Serif" font-size="10.00"> wait_time_</text>
</g>
<!-- Node18 -->
<g id="node18" class="node"><title>Node18</title>
<g id="a_node18"><a xlink:href="classthrill_1_1common_1_1StatsTimerBaseStopped.html" target="_top" xlink:title="StatsTimerBaseStopped\l\&lt; enable_stats \&gt;">
<polygon fill="none" stroke="black" points="766.5,-607 766.5,-637 889.5,-637 889.5,-607 766.5,-607"/>
<text text-anchor="start" x="774.5" y="-625" font-family="Helvetica,sans-Serif" font-size="10.00">StatsTimerBaseStopped</text>
<text text-anchor="middle" x="828" y="-614" font-family="Helvetica,sans-Serif" font-size="10.00">&lt; enable_stats &gt;</text>
</a>
</g>
</g>
<!-- Node18&#45;&gt;Node11 -->
<g id="edge19" class="edge"><title>Node18&#45;&gt;Node11</title>
<path fill="none" stroke="#9a32cd" stroke-dasharray="5,2" d="M877.062,-602.905C913.795,-587.321 964.931,-563.445 1006,-536 1037.95,-514.648 1070.46,-482.62 1085.84,-466.701"/>
<polygon fill="#9a32cd" stroke="#9a32cd" points="875.447,-599.787 867.577,-606.881 878.153,-606.243 875.447,-599.787"/>
<text text-anchor="start" x="908.5" y="-723" font-family="Helvetica,sans-Serif" font-size="10.00"> timer_communication</text>
<text text-anchor="middle" x="957" y="-712" font-family="Helvetica,sans-Serif" font-size="10.00">_</text>
<text text-anchor="start" x="908.5" y="-701" font-family="Helvetica,sans-Serif" font-size="10.00">timer_predecessor</text>
<text text-anchor="middle" x="957" y="-690" font-family="Helvetica,sans-Serif" font-size="10.00">_</text>
<text text-anchor="start" x="908.5" y="-679" font-family="Helvetica,sans-Serif" font-size="10.00">timer_allreduce</text>
<text text-anchor="middle" x="957" y="-668" font-family="Helvetica,sans-Serif" font-size="10.00">_</text>
<text text-anchor="start" x="908.5" y="-657" font-family="Helvetica,sans-Serif" font-size="10.00">timer_barrier</text>
<text text-anchor="middle" x="957" y="-646" font-family="Helvetica,sans-Serif" font-size="10.00">_</text>
<text text-anchor="start" x="908.5" y="-635" font-family="Helvetica,sans-Serif" font-size="10.00">timer_prefixsum</text>
<text text-anchor="middle" x="957" y="-624" font-family="Helvetica,sans-Serif" font-size="10.00">_</text>
<text text-anchor="start" x="908.5" y="-613" font-family="Helvetica,sans-Serif" font-size="10.00">timer_broadcast</text>
<text text-anchor="middle" x="957" y="-602" font-family="Helvetica,sans-Serif" font-size="10.00">_</text>
<text text-anchor="middle" x="957" y="-591" font-family="Helvetica,sans-Serif" font-size="10.00">timer_reduce_</text>
</g>
<!-- Node19 -->
<g id="node19" class="node"><title>Node19</title>
<g id="a_node19"><a xlink:href="classthrill_1_1common_1_1StatsTimerBase.html" target="_top" xlink:title="This class provides a statistical stop watch timer that can easily be deactivated using a boolean tem...">
<polygon fill="none" stroke="black" points="160.5,-609.5 160.5,-628.5 293.5,-628.5 293.5,-609.5 160.5,-609.5"/>
<text text-anchor="middle" x="227" y="-616.5" font-family="Helvetica,sans-Serif" font-size="10.00">StatsTimerBase&lt; Active &gt;</text>
</a>
</g>
</g>
<!-- Node19&#45;&gt;Node18 -->
<g id="edge20" class="edge"><title>Node19&#45;&gt;Node18</title>
<path fill="none" stroke="midnightblue" d="M303.757,-619.379C424.049,-619.982 656.359,-621.145 766.387,-621.696"/>
<polygon fill="midnightblue" stroke="midnightblue" points="303.548,-615.878 293.53,-619.328 303.512,-622.878 303.548,-615.878"/>
</g>
<!-- Node20 -->
<g id="node20" class="node"><title>Node20</title>
<g id="a_node20"><a xlink:href="classthrill_1_1common_1_1StatsTimerBaseStopped.html" target="_top" xlink:title="StatsTimerBaseStopped\l\&lt; Active \&gt;">
<polygon fill="none" stroke="black" points="468.5,-631 468.5,-661 591.5,-661 591.5,-631 468.5,-631"/>
<text text-anchor="start" x="476.5" y="-649" font-family="Helvetica,sans-Serif" font-size="10.00">StatsTimerBaseStopped</text>
<text text-anchor="middle" x="530" y="-638" font-family="Helvetica,sans-Serif" font-size="10.00">&lt; Active &gt;</text>
</a>
</g>
</g>
<!-- Node19&#45;&gt;Node20 -->
<g id="edge22" class="edge"><title>Node19&#45;&gt;Node20</title>
<path fill="none" stroke="midnightblue" d="M303.655,-625.786C354.584,-630.355 420.852,-636.299 468.321,-640.557"/>
<polygon fill="midnightblue" stroke="midnightblue" points="303.957,-622.299 293.684,-624.892 303.331,-629.271 303.957,-622.299"/>
</g>
<!-- Node20&#45;&gt;Node18 -->
<g id="edge21" class="edge"><title>Node20&#45;&gt;Node18</title>
<path fill="none" stroke="orange" stroke-dasharray="5,2" d="M601.749,-640.264C651.978,-636.191 718.701,-630.781 766.467,-626.908"/>
<polygon fill="orange" stroke="orange" points="601.299,-636.789 591.614,-641.085 601.864,-643.766 601.299,-636.789"/>
<text text-anchor="middle" x="684" y="-641" font-family="Helvetica,sans-Serif" font-size="10.00"> &lt; enable_stats &gt;</text>
</g>
<!-- Node21 -->
<g id="node21" class="node"><title>Node21</title>
<g id="a_node21"><a xlink:href="classthrill_1_1api_1_1MemoryConfig.html" target="_top" xlink:title="MemoryConfig">
<polygon fill="none" stroke="black" points="1056,-76.5 1056,-95.5 1136,-95.5 1136,-76.5 1056,-76.5"/>
<text text-anchor="middle" x="1096" y="-83.5" font-family="Helvetica,sans-Serif" font-size="10.00">MemoryConfig</text>
</a>
</g>
</g>
<!-- Node21&#45;&gt;Node6 -->
<g id="edge23" class="edge"><title>Node21&#45;&gt;Node6</title>
<path fill="none" stroke="#9a32cd" stroke-dasharray="5,2" d="M1146.4,-77.4492C1180.37,-74.3632 1224.81,-76.1641 1256,-99 1273.05,-111.482 1258.43,-128.719 1274,-143 1283.89,-152.072 1298.06,-156.813 1310.25,-159.29"/>
<polygon fill="#9a32cd" stroke="#9a32cd" points="1145.79,-73.9949 1136.22,-78.5459 1146.54,-80.9547 1145.79,-73.9949"/>
<text text-anchor="middle" x="1221" y="-102" font-family="Helvetica,sans-Serif" font-size="10.00"> mem_config_</text>
</g>
<!-- Node22&#45;&gt;Node6 -->
<g id="edge25" class="edge"><title>Node22&#45;&gt;Node6</title>
<path fill="none" stroke="#9a32cd" stroke-dasharray="5,2" d="M1138.46,-315.666C1174.45,-318.082 1225.46,-315.068 1256,-285 1289.42,-252.087 1243.06,-216.263 1274,-181 1283.07,-170.661 1297.67,-165.88 1310.31,-163.698"/>
<polygon fill="#9a32cd" stroke="#9a32cd" points="1138.53,-312.16 1128.27,-314.813 1137.94,-319.136 1138.53,-312.16"/>
<text text-anchor="middle" x="1221" y="-318" font-family="Helvetica,sans-Serif" font-size="10.00"> multiplexer_</text>
</g>
<!-- Node23&#45;&gt;Node22 -->
<g id="edge26" class="edge"><title>Node23&#45;&gt;Node22</title>
<path fill="none" stroke="#9a32cd" stroke-dasharray="5,2" d="M885.414,-403.322C921.229,-403.423 967.848,-399.767 1006,-384 1041.1,-369.494 1072.88,-336.073 1087.12,-319.572"/>
<polygon fill="#9a32cd" stroke="#9a32cd" points="885.186,-399.819 875.142,-403.19 885.096,-406.818 885.186,-399.819"/>
<text text-anchor="middle" x="957" y="-406" font-family="Helvetica,sans-Serif" font-size="10.00"> dispatcher_</text>
</g>
<!-- Node24 -->
<g id="node24" class="node"><title>Node24</title>
<g id="a_node24"><a xlink:href="classthrill_1_1common_1_1OurConcurrentQueue.html" target="_top" xlink:title="OurConcurrentQueue\l\&lt; tlx::Delegate, mem\l::Allocator\&lt; tlx::Delegate \&gt; \&gt;">
<polygon fill="none" stroke="black" points="458.5,-392.5 458.5,-433.5 601.5,-433.5 601.5,-392.5 458.5,-392.5"/>
<text text-anchor="start" x="466.5" y="-421.5" font-family="Helvetica,sans-Serif" font-size="10.00">OurConcurrentQueue</text>
<text text-anchor="start" x="466.5" y="-410.5" font-family="Helvetica,sans-Serif" font-size="10.00">&lt; tlx::Delegate, mem</text>
<text text-anchor="middle" x="530" y="-399.5" font-family="Helvetica,sans-Serif" font-size="10.00">::Allocator&lt; tlx::Delegate &gt; &gt;</text>
</a>
</g>
</g>
<!-- Node24&#45;&gt;Node23 -->
<g id="edge27" class="edge"><title>Node24&#45;&gt;Node23</title>
<path fill="none" stroke="#9a32cd" stroke-dasharray="5,2" d="M611.83,-409.45C666.183,-407.063 735.876,-404.002 780.978,-402.021"/>
<polygon fill="#9a32cd" stroke="#9a32cd" points="611.36,-405.967 601.523,-409.903 611.667,-412.96 611.36,-405.967"/>
<text text-anchor="middle" x="684" y="-412" font-family="Helvetica,sans-Serif" font-size="10.00"> jobqueue_</text>
</g>
<!-- Node25 -->
<g id="node25" class="node"><title>Node25</title>
<g id="a_node25"><a xlink:href="classthrill_1_1common_1_1OurConcurrentQueue.html" target="_top" xlink:title="This is a queue, similar to std::queue and tbb::concurrent_queue, except that it uses mutexes for syn...">
<polygon fill="none" stroke="black" points="172.5,-398 172.5,-428 281.5,-428 281.5,-398 172.5,-398"/>
<text text-anchor="start" x="180.5" y="-416" font-family="Helvetica,sans-Serif" font-size="10.00">OurConcurrentQueue</text>
<text text-anchor="middle" x="227" y="-405" font-family="Helvetica,sans-Serif" font-size="10.00">&lt; T, Allocator &gt;</text>
</a>
</g>
</g>
<!-- Node25&#45;&gt;Node24 -->
<g id="edge28" class="edge"><title>Node25&#45;&gt;Node24</title>
<path fill="none" stroke="orange" stroke-dasharray="5,2" d="M291.937,-413C340.753,-413 407.978,-413 458.377,-413"/>
<polygon fill="orange" stroke="orange" points="291.813,-409.5 281.813,-413 291.813,-416.5 291.813,-409.5"/>
<text text-anchor="start" x="312.5" y="-427" font-family="Helvetica,sans-Serif" font-size="10.00"> &lt; tlx::Delegate, mem</text>
<text text-anchor="middle" x="376" y="-416" font-family="Helvetica,sans-Serif" font-size="10.00">::Allocator&lt; tlx::Delegate &gt; &gt;</text>
</g>
<!-- Node26&#45;&gt;Node6 -->
<g id="edge36" class="edge"><title>Node26&#45;&gt;Node6</title>
<path fill="none" stroke="#9a32cd" stroke-dasharray="5,2" d="M868.826,-299.879C962.669,-289.505 1194.4,-259.827 1256,-214 1269.4,-204.028 1261.08,-191.592 1274,-181 1284.29,-172.561 1298.34,-167.859 1310.36,-165.245"/>
<polygon fill="#9a32cd" stroke="#9a32cd" points="868.17,-296.429 858.608,-300.992 868.929,-303.388 868.17,-296.429"/>
<text text-anchor="middle" x="1096" y="-282" font-family="Helvetica,sans-Serif" font-size="10.00"> block_pool_</text>
</g>
<!-- Node26&#45;&gt;Node22 -->
<g id="edge31" class="edge"><title>Node26&#45;&gt;Node22</title>
<path fill="none" stroke="#9a32cd" stroke-dasharray="5,2" d="M868.826,-303.652C904.706,-303.474 958.895,-303.545 1006,-305 1025.18,-305.593 1046.66,-306.784 1063.71,-307.856"/>
<polygon fill="#9a32cd" stroke="#9a32cd" points="868.739,-300.152 858.76,-303.71 868.78,-307.152 868.739,-300.152"/>
<text text-anchor="middle" x="957" y="-308" font-family="Helvetica,sans-Serif" font-size="10.00"> block_pool_</text>
</g>
<!-- Node27 -->
<g id="node27" class="node"><title>Node27</title>
<g id="a_node27"><a xlink:href="classthrill_1_1net_1_1FlowControlChannelManager.html" target="_top" xlink:title="FlowControlChannelManager">
<polygon fill="none" stroke="black" points="1024.5,-0.5 1024.5,-19.5 1167.5,-19.5 1167.5,-0.5 1024.5,-0.5"/>
<text text-anchor="middle" x="1096" y="-7.5" font-family="Helvetica,sans-Serif" font-size="10.00">FlowControlChannelManager</text>
</a>
</g>
</g>
<!-- Node27&#45;&gt;Node6 -->
<g id="edge37" class="edge"><title>Node27&#45;&gt;Node6</title>
<path fill="none" stroke="#9a32cd" stroke-dasharray="5,2" d="M1177.7,-19.7093C1206.05,-27.0186 1235.84,-39.7742 1256,-62 1280.78,-89.3155 1249.03,-115.86 1274,-143 1283.31,-153.122 1297.92,-157.896 1310.5,-160.128"/>
<polygon fill="#9a32cd" stroke="#9a32cd" points="1178.28,-16.251 1167.74,-17.3445 1176.66,-23.0614 1178.28,-16.251"/>
<text text-anchor="middle" x="1221" y="-65" font-family="Helvetica,sans-Serif" font-size="10.00"> flow_manager_</text>
</g>
<!-- Node28 -->
<g id="node28" class="node"><title>Node28</title>
<g id="a_node28"><a xlink:href="classthrill_1_1api_1_1DIAMemUse.html" target="_top" xlink:title="Description of the amount of RAM the internal data structures of a DIANode require. ">
<polygon fill="none" stroke="black" points="1299,-114.5 1299,-133.5 1373,-133.5 1373,-114.5 1299,-114.5"/>
<text text-anchor="middle" x="1336" y="-121.5" font-family="Helvetica,sans-Serif" font-size="10.00">DIAMemUse</text>
</a>
</g>
</g>
<!-- Node28&#45;&gt;Node4 -->
<g id="edge40" class="edge"><title>Node28&#45;&gt;Node4</title>
<path fill="none" stroke="#9a32cd" stroke-dasharray="5,2" d="M1383.25,-124C1441.5,-124 1539.65,-124 1586.94,-124"/>
<polygon fill="#9a32cd" stroke="#9a32cd" points="1383.21,-120.5 1373.21,-124 1383.21,-127.5 1383.21,-120.5"/>
<text text-anchor="middle" x="1479" y="-127" font-family="Helvetica,sans-Serif" font-size="10.00"> mem_limit_</text>
</g>
</g>
</svg>
