<?xml version="1.0" encoding="UTF-8" standalone="no"?>
<!DOCTYPE svg PUBLIC "-//W3C//DTD SVG 1.1//EN"
 "http://www.w3.org/Graphics/SVG/1.1/DTD/svg11.dtd">
<!-- Generated by graphviz version 2.36.0 (20140111.2315)
 -->
<!-- Title: write_pool&lt; BlockType &gt;::busy_entry Pages: 1 -->
<svg width="386pt" height="346pt"
 viewBox="0.00 0.00 386.00 346.00" xmlns="http://www.w3.org/2000/svg" xmlns:xlink="http://www.w3.org/1999/xlink">
<g id="graph0" class="graph" transform="scale(1 1) rotate(0) translate(4 342)">
<title>write_pool&lt; BlockType &gt;::busy_entry</title>
<!-- Node1 -->
<g id="node1" class="node"><title>Node1</title>
<polygon fill="#bfbfbf" stroke="black" points="150,-1 150,-31 266,-31 266,-1 150,-1"/>
<text text-anchor="start" x="158" y="-19" font-family="Helvetica,sans-Serif" font-size="10.00">write_pool&lt; BlockType</text>
<text text-anchor="middle" x="208" y="-8" font-family="Helvetica,sans-Serif" font-size="10.00"> &gt;::busy_entry</text>
</g>
<!-- Node2 -->
<g id="node2" class="node"><title>Node2</title>
<g id="a_node2"><a xlink:href="classtlx_1_1CountingPtr.html" target="_top" xlink:title="CountingPtr\&lt; request \&gt;">
<polygon fill="none" stroke="black" points="148.5,-80.5 148.5,-99.5 267.5,-99.5 267.5,-80.5 148.5,-80.5"/>
<text text-anchor="middle" x="208" y="-87.5" font-family="Helvetica,sans-Serif" font-size="10.00">CountingPtr&lt; request &gt;</text>
</a>
</g>
</g>
<!-- Node2&#45;&gt;Node1 -->
<g id="edge1" class="edge"><title>Node2&#45;&gt;Node1</title>
<path fill="none" stroke="#9a32cd" stroke-dasharray="5,2" d="M208,-70.0846C208,-57.9148 208,-42.3538 208,-31.2316"/>
<polygon fill="#9a32cd" stroke="#9a32cd" points="204.5,-70.4579 208,-80.4579 211.5,-70.4579 204.5,-70.4579"/>
<text text-anchor="middle" x="216.5" y="-53.5" font-family="Helvetica,sans-Serif" font-size="10.00"> req</text>
</g>
<!-- Node3 -->
<g id="node3" class="node"><title>Node3</title>
<g id="a_node3"><a xlink:href="classfoxxll_1_1request.html" target="_top" xlink:title="Request object encapsulating basic properties like file and offset. ">
<polygon fill="none" stroke="black" points="114.5,-154.5 114.5,-173.5 163.5,-173.5 163.5,-154.5 114.5,-154.5"/>
<text text-anchor="middle" x="139" y="-161.5" font-family="Helvetica,sans-Serif" font-size="10.00">request</text>
</a>
</g>
</g>
<!-- Node3&#45;&gt;Node2 -->
<g id="edge2" class="edge"><title>Node3&#45;&gt;Node2</title>
<path fill="none" stroke="#9a32cd" stroke-dasharray="5,2" d="M154.251,-147.086C168.305,-132.421 188.626,-111.217 199.824,-99.531"/>
<polygon fill="#9a32cd" stroke="#9a32cd" points="151.578,-144.816 147.186,-154.458 156.632,-149.66 151.578,-144.816"/>
<text text-anchor="middle" x="192" y="-121.5" font-family="Helvetica,sans-Serif" font-size="10.00"> ptr_</text>
</g>
<!-- Node4 -->
<g id="node4" class="node"><title>Node4</title>
<g id="a_node4"><a xlink:href="classfoxxll_1_1request__interface.html" target="_top" xlink:title="request_interface">
<polygon fill="none" stroke="black" points="0,-234.5 0,-253.5 92,-253.5 92,-234.5 0,-234.5"/>
<text text-anchor="middle" x="46" y="-241.5" font-family="Helvetica,sans-Serif" font-size="10.00">request_interface</text>
</a>
</g>
</g>
<!-- Node4&#45;&gt;Node3 -->
<g id="edge3" class="edge"><title>Node4&#45;&gt;Node3</title>
<path fill="none" stroke="midnightblue" d="M64.0722,-227.843C83.2984,-211.717 113.046,-186.768 128.646,-173.684"/>
<polygon fill="midnightblue" stroke="midnightblue" points="61.7207,-225.247 56.308,-234.355 66.2191,-230.61 61.7207,-225.247"/>
</g>
<!-- Node5 -->
<g id="node5" class="node"><title>Node5</title>
<g id="a_node5"><a xlink:href="classtlx_1_1ReferenceCounter.html" target="_top" xlink:title="Provides reference counting abilities for use with CountingPtr. ">
<polygon fill="none" stroke="black" points="59.5,-318.5 59.5,-337.5 154.5,-337.5 154.5,-318.5 59.5,-318.5"/>
<text text-anchor="middle" x="107" y="-325.5" font-family="Helvetica,sans-Serif" font-size="10.00">reference_counter</text>
</a>
</g>
</g>
<!-- Node5&#45;&gt;Node3 -->
<g id="edge4" class="edge"><title>Node5&#45;&gt;Node3</title>
<path fill="none" stroke="midnightblue" d="M110.666,-308.442C117.567,-273.504 132.246,-199.19 137.271,-173.753"/>
<polygon fill="midnightblue" stroke="midnightblue" points="107.225,-307.801 108.72,-318.29 114.092,-309.158 107.225,-307.801"/>
</g>
<!-- Node6 -->
<g id="node6" class="node"><title>Node6</title>
<g id="a_node6"><a xlink:href="classfoxxll_1_1file.html" target="_top" xlink:title="file">
<polygon fill="none" stroke="black" points="148.5,-234.5 148.5,-253.5 177.5,-253.5 177.5,-234.5 148.5,-234.5"/>
<text text-anchor="middle" x="163" y="-241.5" font-family="Helvetica,sans-Serif" font-size="10.00">file</text>
</a>
</g>
</g>
<!-- Node5&#45;&gt;Node6 -->
<g id="edge6" class="edge"><title>Node5&#45;&gt;Node6</title>
<path fill="none" stroke="midnightblue" d="M124.285,-311.283C127.713,-307.748 131.134,-303.887 134,-300 145.146,-284.882 154.538,-264.906 159.411,-253.661"/>
<polygon fill="midnightblue" stroke="midnightblue" points="121.711,-308.904 116.982,-318.385 126.591,-313.922 121.711,-308.904"/>
</g>
<!-- Node6&#45;&gt;Node3 -->
<g id="edge5" class="edge"><title>Node6&#45;&gt;Node3</title>
<path fill="none" stroke="#9a32cd" stroke-dasharray="5,2" d="M157.318,-224.534C152.407,-208.574 145.522,-186.196 141.746,-173.924"/>
<polygon fill="#9a32cd" stroke="#9a32cd" points="154.054,-225.826 160.34,-234.355 160.744,-223.767 154.054,-225.826"/>
<text text-anchor="middle" x="164" y="-201.5" font-family="Helvetica,sans-Serif" font-size="10.00"> file_</text>
</g>
<!-- Node7 -->
<g id="node7" class="node"><title>Node7</title>
<g id="a_node7"><a xlink:href="classfoxxll_1_1file__stats.html" target="_top" xlink:title="file_stats">
<polygon fill="none" stroke="black" points="173,-318.5 173,-337.5 229,-337.5 229,-318.5 173,-318.5"/>
<text text-anchor="middle" x="201" y="-325.5" font-family="Helvetica,sans-Serif" font-size="10.00">file_stats</text>
</a>
</g>
</g>
<!-- Node7&#45;&gt;Node6 -->
<g id="edge7" class="edge"><title>Node7&#45;&gt;Node6</title>
<path fill="none" stroke="#9a32cd" stroke-dasharray="5,2" d="M192.536,-308.736C184.6,-291.61 173.077,-266.744 167.037,-253.712"/>
<polygon fill="#9a32cd" stroke="#9a32cd" points="189.553,-310.623 196.933,-318.225 195.904,-307.68 189.553,-310.623"/>
<text text-anchor="middle" x="212.5" y="-286.5" font-family="Helvetica,sans-Serif" font-size="10.00"> file_stats_</text>
</g>
<!-- Node8 -->
<g id="node8" class="node"><title>Node8</title>
<g id="a_node8"><a xlink:href="classtlx_1_1Delegate.html" target="_top" xlink:title="Delegate\&lt; void(request\l *r, bool success)\&gt;">
<polygon fill="none" stroke="black" points="220,-229 220,-259 338,-259 338,-229 220,-229"/>
<text text-anchor="start" x="228" y="-247" font-family="Helvetica,sans-Serif" font-size="10.00">Delegate&lt; void(request</text>
<text text-anchor="middle" x="279" y="-236" font-family="Helvetica,sans-Serif" font-size="10.00"> *r, bool success)&gt;</text>
</a>
</g>
</g>
<!-- Node8&#45;&gt;Node3 -->
<g id="edge8" class="edge"><title>Node8&#45;&gt;Node3</title>
<path fill="none" stroke="#9a32cd" stroke-dasharray="5,2" d="M244.738,-223.911C215.997,-207.898 176.271,-185.765 154.615,-173.7"/>
<polygon fill="#9a32cd" stroke="#9a32cd" points="243.208,-227.065 253.647,-228.875 246.615,-220.95 243.208,-227.065"/>
<text text-anchor="middle" x="250" y="-201.5" font-family="Helvetica,sans-Serif" font-size="10.00"> on_complete_</text>
</g>
<!-- Node9 -->
<g id="node9" class="node"><title>Node9</title>
<g id="a_node9"><a xlink:href="classtlx_1_1Delegate.html" target="_top" xlink:title="Delegate\&lt; T, Allocator \&gt;">
<polygon fill="none" stroke="black" points="247,-318.5 247,-337.5 371,-337.5 371,-318.5 247,-318.5"/>
<text text-anchor="middle" x="309" y="-325.5" font-family="Helvetica,sans-Serif" font-size="10.00">Delegate&lt; T, Allocator &gt;</text>
</a>
</g>
</g>
<!-- Node9&#45;&gt;Node8 -->
<g id="edge9" class="edge"><title>Node9&#45;&gt;Node8</title>
<path fill="none" stroke="orange" stroke-dasharray="5,2" d="M302.25,-308.551C296.782,-293.604 289.19,-272.852 284.189,-259.184"/>
<polygon fill="orange" stroke="orange" points="299.067,-310.036 305.789,-318.225 305.641,-307.631 299.067,-310.036"/>
<text text-anchor="start" x="299" y="-292" font-family="Helvetica,sans-Serif" font-size="10.00"> &lt; void(request *r,</text>
<text text-anchor="middle" x="338.5" y="-281" font-family="Helvetica,sans-Serif" font-size="10.00"> bool success)&gt;</text>
</g>
<!-- Node10 -->
<g id="node10" class="node"><title>Node10</title>
<g id="a_node10"><a xlink:href="classtlx_1_1CountingPtr.html" target="_top" xlink:title="High&#45;performance smart pointer used as a wrapping reference counting pointer. ">
<polygon fill="none" stroke="black" points="181,-149 181,-179 283,-179 283,-149 181,-149"/>
<text text-anchor="start" x="189" y="-167" font-family="Helvetica,sans-Serif" font-size="10.00">CountingPtr&lt; Type,</text>
<text text-anchor="middle" x="232" y="-156" font-family="Helvetica,sans-Serif" font-size="10.00"> Deleter &gt;</text>
</a>
</g>
</g>
<!-- Node10&#45;&gt;Node2 -->
<g id="edge10" class="edge"><title>Node10&#45;&gt;Node2</title>
<path fill="none" stroke="orange" stroke-dasharray="5,2" d="M224.029,-139.087C219.523,-125.568 214.159,-109.476 210.92,-99.7589"/>
<polygon fill="orange" stroke="orange" points="220.776,-140.395 227.258,-148.775 227.416,-138.181 220.776,-140.395"/>
<text text-anchor="middle" x="248" y="-121.5" font-family="Helvetica,sans-Serif" font-size="10.00"> &lt; request &gt;</text>
</g>
</g>
</svg>
