<?xml version="1.0" encoding="UTF-8" standalone="no"?>
<!DOCTYPE svg PUBLIC "-//W3C//DTD SVG 1.1//EN"
 "http://www.w3.org/Graphics/SVG/1.1/DTD/svg11.dtd">
<!-- Generated by graphviz version 2.26.3 (20100126.1600)
 -->
<!-- Title: Striping Pages: 1 -->
<svg width="280pt" height="146pt"
 viewBox="0.00 0.00 280.00 146.00" xmlns="http://www.w3.org/2000/svg" xmlns:xlink="http://www.w3.org/1999/xlink">
<g id="graph1" class="graph" transform="scale(1 1) rotate(0) translate(4 142)">
<title>Striping</title>
<!-- Node1 -->
<g id="node1" class="node"><title>Node1</title>
<polygon fill="#bfbfbf" stroke="black" points="107,-116.5 107,-137.5 157,-137.5 157,-116.5 107,-116.5"/>
<text text-anchor="middle" x="132" y="-124.5" font-family="Helvetica,sans-Serif" font-size="10.00">Striping</text>
</g>
<!-- Node2 -->
<g id="node3" class="node"><title>Node2</title>
<a xlink:href="structthrill_1_1io_1_1FullyRandom.html" target="_top" xlink:title="FullyRandom">
<polygon fill="none" stroke="black" points="0,-58.5 0,-79.5 74,-79.5 74,-58.5 0,-58.5"/>
<text text-anchor="middle" x="37" y="-66.5" font-family="Helvetica,sans-Serif" font-size="10.00">FullyRandom</text>
</a>
</g>
<!-- Node1&#45;&gt;Node2 -->
<g id="edge2" class="edge"><title>Node1&#45;&gt;Node2</title>
<path fill="none" stroke="midnightblue" d="M105.958,-111.101C89.5216,-101.066 68.7445,-88.3808 54.314,-79.5707"/>
<polygon fill="midnightblue" stroke="midnightblue" points="104.217,-114.138 114.576,-116.362 107.864,-108.164 104.217,-114.138"/>
</g>
<!-- Node3 -->
<g id="node5" class="node"><title>Node3</title>
<a xlink:href="structthrill_1_1io_1_1RandomCyclic.html" target="_top" xlink:title="RandomCyclic">
<polygon fill="none" stroke="black" points="91.5,-58.5 91.5,-79.5 172.5,-79.5 172.5,-58.5 91.5,-58.5"/>
<text text-anchor="middle" x="132" y="-66.5" font-family="Helvetica,sans-Serif" font-size="10.00">RandomCyclic</text>
</a>
</g>
<!-- Node1&#45;&gt;Node3 -->
<g id="edge4" class="edge"><title>Node1&#45;&gt;Node3</title>
<path fill="none" stroke="midnightblue" d="M132,-106.191C132,-97.1684 132,-86.9941 132,-79.5707"/>
<polygon fill="midnightblue" stroke="midnightblue" points="128.5,-106.362 132,-116.362 135.5,-106.362 128.5,-106.362"/>
</g>
<!-- Node6 -->
<g id="node11" class="node"><title>Node6</title>
<a xlink:href="structthrill_1_1io_1_1SimpleRandom.html" target="_top" xlink:title="SimpleRandom">
<polygon fill="none" stroke="black" points="189.5,-58.5 189.5,-79.5 272.5,-79.5 272.5,-58.5 189.5,-58.5"/>
<text text-anchor="middle" x="231" y="-66.5" font-family="Helvetica,sans-Serif" font-size="10.00">SimpleRandom</text>
</a>
</g>
<!-- Node1&#45;&gt;Node6 -->
<g id="edge10" class="edge"><title>Node1&#45;&gt;Node6</title>
<path fill="none" stroke="midnightblue" d="M159.138,-111.101C176.267,-101.066 197.919,-88.3808 212.957,-79.5707"/>
<polygon fill="midnightblue" stroke="midnightblue" points="157.017,-108.287 150.158,-116.362 160.556,-114.327 157.017,-108.287"/>
</g>
<!-- Node4 -->
<g id="node7" class="node"><title>Node4</title>
<a xlink:href="structthrill_1_1io_1_1RCDisk.html" target="_top" xlink:title="RCDisk">
<polygon fill="none" stroke="black" points="70,-0.5 70,-21.5 122,-21.5 122,-0.5 70,-0.5"/>
<text text-anchor="middle" x="96" y="-8.5" font-family="Helvetica,sans-Serif" font-size="10.00">RCDisk</text>
</a>
</g>
<!-- Node3&#45;&gt;Node4 -->
<g id="edge6" class="edge"><title>Node3&#45;&gt;Node4</title>
<path fill="none" stroke="midnightblue" d="M120,-49.6667C114.183,-40.2948 107.422,-29.4019 102.561,-21.5707"/>
<polygon fill="midnightblue" stroke="midnightblue" points="117.15,-51.7113 125.397,-58.3619 123.097,-48.0197 117.15,-51.7113"/>
</g>
<!-- Node5 -->
<g id="node9" class="node"><title>Node5</title>
<a xlink:href="structthrill_1_1io_1_1RCFlash.html" target="_top" xlink:title="RCFlash">
<polygon fill="none" stroke="black" points="140,-0.5 140,-21.5 196,-21.5 196,-0.5 140,-0.5"/>
<text text-anchor="middle" x="168" y="-8.5" font-family="Helvetica,sans-Serif" font-size="10.00">RCFlash</text>
</a>
</g>
<!-- Node3&#45;&gt;Node5 -->
<g id="edge8" class="edge"><title>Node3&#45;&gt;Node5</title>
<path fill="none" stroke="midnightblue" d="M144,-49.6667C149.817,-40.2948 156.578,-29.4019 161.439,-21.5707"/>
<polygon fill="midnightblue" stroke="midnightblue" points="140.903,-48.0197 138.603,-58.3619 146.85,-51.7113 140.903,-48.0197"/>
</g>
</g>
</svg>
