<?xml version="1.0" encoding="UTF-8" standalone="no"?>
<!DOCTYPE svg PUBLIC "-//W3C//DTD SVG 1.1//EN"
 "http://www.w3.org/Graphics/SVG/1.1/DTD/svg11.dtd">
<!-- Generated by graphviz version 2.36.0 (20140111.2315)
 -->
<!-- Title: ClosestCentroid&lt; Point &gt; Pages: 1 -->
<svg width="212pt" height="324pt"
 viewBox="0.00 0.00 212.00 324.00" xmlns="http://www.w3.org/2000/svg" xmlns:xlink="http://www.w3.org/1999/xlink">
<g id="graph0" class="graph" transform="scale(1 1) rotate(0) translate(4 320)">
<title>ClosestCentroid&lt; Point &gt;</title>
<!-- Node1 -->
<g id="node1" class="node"><title>Node1</title>
<polygon fill="#bfbfbf" stroke="black" points="0,-0.5 0,-19.5 128,-19.5 128,-0.5 0,-0.5"/>
<text text-anchor="middle" x="64" y="-7.5" font-family="Helvetica,sans-Serif" font-size="10.00">ClosestCentroid&lt; Point &gt;</text>
</g>
<!-- Node2 -->
<g id="node2" class="node"><title>Node2</title>
<g id="a_node2"><a xlink:href="structexamples_1_1k__means_1_1CentroidAccumulated.html" target="_top" xlink:title="CentroidAccumulated\l\&lt; Vector\&lt; D, double \&gt; \&gt;">
<polygon fill="none" stroke="black" points="2.5,-69 2.5,-99 125.5,-99 125.5,-69 2.5,-69"/>
<text text-anchor="start" x="10.5" y="-87" font-family="Helvetica,sans-Serif" font-size="10.00">CentroidAccumulated</text>
<text text-anchor="middle" x="64" y="-76" font-family="Helvetica,sans-Serif" font-size="10.00">&lt; Vector&lt; D, double &gt; &gt;</text>
</a>
</g>
</g>
<!-- Node2&#45;&gt;Node1 -->
<g id="edge1" class="edge"><title>Node2&#45;&gt;Node1</title>
<path fill="none" stroke="#9a32cd" stroke-dasharray="5,2" d="M64,-58.6883C64,-45.2526 64,-29.3805 64,-19.7589"/>
<polygon fill="#9a32cd" stroke="#9a32cd" points="60.5001,-58.7751 64,-68.7751 67.5001,-58.7752 60.5001,-58.7751"/>
<text text-anchor="middle" x="79.5" y="-41.5" font-family="Helvetica,sans-Serif" font-size="10.00"> center</text>
</g>
<!-- Node3 -->
<g id="node3" class="node"><title>Node3</title>
<g id="a_node3"><a xlink:href="classthrill_1_1common_1_1Vector.html" target="_top" xlink:title="Vector\&lt; D, double \&gt;">
<polygon fill="none" stroke="black" points="-0.5,-228.5 -0.5,-247.5 104.5,-247.5 104.5,-228.5 -0.5,-228.5"/>
<text text-anchor="middle" x="52" y="-235.5" font-family="Helvetica,sans-Serif" font-size="10.00">Vector&lt; D, double &gt;</text>
</a>
</g>
</g>
<!-- Node3&#45;&gt;Node2 -->
<g id="edge2" class="edge"><title>Node3&#45;&gt;Node2</title>
<path fill="none" stroke="#9a32cd" stroke-dasharray="5,2" d="M48.1018,-218.312C44.905,-200.245 41.4393,-172.138 45,-148 47.5341,-130.821 53.7572,-111.832 58.3952,-99.239"/>
<polygon fill="#9a32cd" stroke="#9a32cd" points="44.7101,-219.208 50.0398,-228.365 51.5836,-217.883 44.7101,-219.208"/>
<text text-anchor="middle" x="49.5" y="-161.5" font-family="Helvetica,sans-Serif" font-size="10.00"> p</text>
</g>
<!-- Node5 -->
<g id="node5" class="node"><title>Node5</title>
<g id="a_node5"><a xlink:href="structexamples_1_1k__means_1_1CentroidAccumulated.html" target="_top" xlink:title="A point which contains &quot;count&quot; accumulated vectors. ">
<polygon fill="none" stroke="black" points="63,-149 63,-179 173,-179 173,-149 63,-149"/>
<text text-anchor="start" x="71" y="-167" font-family="Helvetica,sans-Serif" font-size="10.00">CentroidAccumulated</text>
<text text-anchor="middle" x="118" y="-156" font-family="Helvetica,sans-Serif" font-size="10.00">&lt; Point &gt;</text>
</a>
</g>
</g>
<!-- Node3&#45;&gt;Node5 -->
<g id="edge5" class="edge"><title>Node3&#45;&gt;Node5</title>
<path fill="none" stroke="#9a32cd" stroke-dasharray="5,2" d="M66.6464,-221.022C78.1142,-208.512 93.9181,-191.271 104.954,-179.232"/>
<polygon fill="#9a32cd" stroke="#9a32cd" points="64.0075,-218.721 59.8302,-228.458 69.1676,-223.451 64.0075,-218.721"/>
<text text-anchor="middle" x="90.5" y="-201.5" font-family="Helvetica,sans-Serif" font-size="10.00"> p</text>
</g>
<!-- Node4 -->
<g id="node4" class="node"><title>Node4</title>
<g id="a_node4"><a xlink:href="classthrill_1_1common_1_1Vector.html" target="_top" xlink:title="A compile&#45;time fixed&#45;length D&#45;dimensional point with double precision. ">
<polygon fill="none" stroke="black" points="3,-296.5 3,-315.5 101,-315.5 101,-296.5 3,-296.5"/>
<text text-anchor="middle" x="52" y="-303.5" font-family="Helvetica,sans-Serif" font-size="10.00">Vector&lt; D, Type &gt;</text>
</a>
</g>
</g>
<!-- Node4&#45;&gt;Node3 -->
<g id="edge3" class="edge"><title>Node4&#45;&gt;Node3</title>
<path fill="none" stroke="orange" stroke-dasharray="5,2" d="M52,-286.041C52,-273.472 52,-257.563 52,-247.841"/>
<polygon fill="orange" stroke="orange" points="48.5001,-286.372 52,-296.372 55.5001,-286.372 48.5001,-286.372"/>
<text text-anchor="middle" x="84" y="-269.5" font-family="Helvetica,sans-Serif" font-size="10.00"> &lt; D, double &gt;</text>
</g>
<!-- Node5&#45;&gt;Node2 -->
<g id="edge4" class="edge"><title>Node5&#45;&gt;Node2</title>
<path fill="none" stroke="orange" stroke-dasharray="5,2" d="M102.149,-140.105C92.9845,-126.867 81.7404,-110.625 73.8416,-99.2157"/>
<polygon fill="orange" stroke="orange" points="99.5257,-142.464 108.096,-148.694 105.281,-138.479 99.5257,-142.464"/>
<text text-anchor="middle" x="149" y="-121.5" font-family="Helvetica,sans-Serif" font-size="10.00"> &lt; Vector&lt; D, double &gt; &gt;</text>
</g>
</g>
</svg>
