<?xml version="1.0" encoding="UTF-8" standalone="no"?>
<!DOCTYPE svg PUBLIC "-//W3C//DTD SVG 1.1//EN"
 "http://www.w3.org/Graphics/SVG/1.1/DTD/svg11.dtd">
<!-- Generated by graphviz version 2.26.3 (20100126.1600)
 -->
<!-- Title: examples/suffix_sorting/suffix_sorting.hpp Pages: 1 -->
<svg width="680pt" height="188pt"
 viewBox="0.00 0.00 680.00 188.00" xmlns="http://www.w3.org/2000/svg" xmlns:xlink="http://www.w3.org/1999/xlink">
<g id="graph1" class="graph" transform="scale(1 1) rotate(0) translate(4 184)">
<title>examples/suffix_sorting/suffix_sorting.hpp</title>
<!-- Node1 -->
<g id="node1" class="node"><title>Node1</title>
<polygon fill="#bfbfbf" stroke="black" points="276,-145 276,-179 396,-179 396,-145 276,-145"/>
<text text-anchor="start" x="284" y="-166" font-family="Helvetica,sans-Serif" font-size="10.00">examples/suffix_sorting</text>
<text text-anchor="middle" x="336" y="-153" font-family="Helvetica,sans-Serif" font-size="10.00">/suffix_sorting.hpp</text>
</g>
<!-- Node2 -->
<g id="node3" class="node"><title>Node2</title>
<a xlink:href="construct__lcp_8hpp.html" target="_top" xlink:title="examples/suffix_sorting\l/construct_lcp.hpp">
<polygon fill="none" stroke="black" points="0,-73 0,-107 120,-107 120,-73 0,-73"/>
<text text-anchor="start" x="8" y="-94" font-family="Helvetica,sans-Serif" font-size="10.00">examples/suffix_sorting</text>
<text text-anchor="middle" x="60" y="-81" font-family="Helvetica,sans-Serif" font-size="10.00">/construct_lcp.hpp</text>
</a>
</g>
<!-- Node1&#45;&gt;Node2 -->
<g id="edge2" class="edge"><title>Node1&#45;&gt;Node2</title>
<path fill="none" stroke="midnightblue" d="M266.075,-143.759C221.029,-132.008 163.071,-116.888 120.1,-105.678"/>
<polygon fill="midnightblue" stroke="midnightblue" points="265.212,-147.151 275.772,-146.288 266.979,-140.377 265.212,-147.151"/>
</g>
<!-- Node4 -->
<g id="node7" class="node"><title>Node4</title>
<a xlink:href="dc3_8cpp.html" target="_top" xlink:title="examples/suffix_sorting\l/dc3.cpp">
<polygon fill="none" stroke="black" points="138,-73 138,-107 258,-107 258,-73 138,-73"/>
<text text-anchor="start" x="146" y="-94" font-family="Helvetica,sans-Serif" font-size="10.00">examples/suffix_sorting</text>
<text text-anchor="middle" x="198" y="-81" font-family="Helvetica,sans-Serif" font-size="10.00">/dc3.cpp</text>
</a>
</g>
<!-- Node1&#45;&gt;Node4 -->
<g id="edge6" class="edge"><title>Node1&#45;&gt;Node4</title>
<path fill="none" stroke="midnightblue" d="M294.267,-140.226C273.973,-129.638 249.929,-117.094 230.948,-107.19"/>
<polygon fill="midnightblue" stroke="midnightblue" points="292.811,-143.414 303.296,-144.937 296.049,-137.208 292.811,-143.414"/>
</g>
<!-- Node5 -->
<g id="node9" class="node"><title>Node5</title>
<a xlink:href="dc7_8cpp.html" target="_top" xlink:title="examples/suffix_sorting\l/dc7.cpp">
<polygon fill="none" stroke="black" points="276,-73 276,-107 396,-107 396,-73 276,-73"/>
<text text-anchor="start" x="284" y="-94" font-family="Helvetica,sans-Serif" font-size="10.00">examples/suffix_sorting</text>
<text text-anchor="middle" x="336" y="-81" font-family="Helvetica,sans-Serif" font-size="10.00">/dc7.cpp</text>
</a>
</g>
<!-- Node1&#45;&gt;Node5 -->
<g id="edge8" class="edge"><title>Node1&#45;&gt;Node5</title>
<path fill="none" stroke="midnightblue" d="M336,-134.719C336,-125.572 336,-115.625 336,-107.441"/>
<polygon fill="midnightblue" stroke="midnightblue" points="332.5,-134.937 336,-144.937 339.5,-134.937 332.5,-134.937"/>
</g>
<!-- Node6 -->
<g id="node11" class="node"><title>Node6</title>
<a xlink:href="prefix__doubling_8cpp.html" target="_top" xlink:title="examples/suffix_sorting\l/prefix_doubling.cpp">
<polygon fill="none" stroke="black" points="414,-73 414,-107 534,-107 534,-73 414,-73"/>
<text text-anchor="start" x="422" y="-94" font-family="Helvetica,sans-Serif" font-size="10.00">examples/suffix_sorting</text>
<text text-anchor="middle" x="474" y="-81" font-family="Helvetica,sans-Serif" font-size="10.00">/prefix_doubling.cpp</text>
</a>
</g>
<!-- Node1&#45;&gt;Node6 -->
<g id="edge10" class="edge"><title>Node1&#45;&gt;Node6</title>
<path fill="none" stroke="midnightblue" d="M377.733,-140.226C398.027,-129.638 422.071,-117.094 441.052,-107.19"/>
<polygon fill="midnightblue" stroke="midnightblue" points="375.951,-137.208 368.704,-144.937 379.189,-143.414 375.951,-137.208"/>
</g>
<!-- Node7 -->
<g id="node13" class="node"><title>Node7</title>
<a xlink:href="prefix__quadrupling_8cpp.html" target="_top" xlink:title="examples/suffix_sorting\l/prefix_quadrupling.cpp">
<polygon fill="none" stroke="black" points="552,-73 552,-107 672,-107 672,-73 552,-73"/>
<text text-anchor="start" x="560" y="-94" font-family="Helvetica,sans-Serif" font-size="10.00">examples/suffix_sorting</text>
<text text-anchor="middle" x="612" y="-81" font-family="Helvetica,sans-Serif" font-size="10.00">/prefix_quadrupling.cpp</text>
</a>
</g>
<!-- Node1&#45;&gt;Node7 -->
<g id="edge12" class="edge"><title>Node1&#45;&gt;Node7</title>
<path fill="none" stroke="midnightblue" d="M405.925,-143.759C450.971,-132.008 508.929,-116.888 551.9,-105.678"/>
<polygon fill="midnightblue" stroke="midnightblue" points="405.021,-140.377 396.228,-146.288 406.788,-147.151 405.021,-140.377"/>
</g>
<!-- Node3 -->
<g id="node5" class="node"><title>Node3</title>
<a xlink:href="suffix__sorting_8cpp.html" target="_top" xlink:title="examples/suffix_sorting\l/suffix_sorting.cpp">
<polygon fill="none" stroke="black" points="0,-1 0,-35 120,-35 120,-1 0,-1"/>
<text text-anchor="start" x="8" y="-22" font-family="Helvetica,sans-Serif" font-size="10.00">examples/suffix_sorting</text>
<text text-anchor="middle" x="60" y="-9" font-family="Helvetica,sans-Serif" font-size="10.00">/suffix_sorting.cpp</text>
</a>
</g>
<!-- Node2&#45;&gt;Node3 -->
<g id="edge4" class="edge"><title>Node2&#45;&gt;Node3</title>
<path fill="none" stroke="midnightblue" d="M60,-62.7193C60,-53.572 60,-43.6255 60,-35.4407"/>
<polygon fill="midnightblue" stroke="midnightblue" points="56.5001,-62.937 60,-72.937 63.5001,-62.937 56.5001,-62.937"/>
</g>
</g>
</svg>
