<?xml version="1.0" encoding="UTF-8" standalone="no"?>
<!DOCTYPE svg PUBLIC "-//W3C//DTD SVG 1.1//EN"
 "http://www.w3.org/Graphics/SVG/1.1/DTD/svg11.dtd">
<!-- Generated by graphviz version 2.26.3 (20100126.1600)
 -->
<!-- Title: thrill/api/sum.hpp Pages: 1 -->
<svg width="1484pt" height="198pt"
 viewBox="0.00 0.00 1484.00 198.00" xmlns="http://www.w3.org/2000/svg" xmlns:xlink="http://www.w3.org/1999/xlink">
<g id="graph1" class="graph" transform="scale(1 1) rotate(0) translate(4 194)">
<title>thrill/api/sum.hpp</title>
<!-- Node1 -->
<g id="node1" class="node"><title>Node1</title>
<polygon fill="#bfbfbf" stroke="black" points="648.5,-168.5 648.5,-189.5 739.5,-189.5 739.5,-168.5 648.5,-168.5"/>
<text text-anchor="middle" x="694" y="-176.5" font-family="Helvetica,sans-Serif" font-size="10.00">thrill/api/sum.hpp</text>
</g>
<!-- Node2 -->
<g id="node3" class="node"><title>Node2</title>
<a xlink:href="thrill_8hpp.html" target="_top" xlink:title="thrill/thrill.hpp">
<polygon fill="none" stroke="black" points="0,-97.5 0,-118.5 74,-118.5 74,-97.5 0,-97.5"/>
<text text-anchor="middle" x="37" y="-105.5" font-family="Helvetica,sans-Serif" font-size="10.00">thrill/thrill.hpp</text>
</a>
</g>
<!-- Node1&#45;&gt;Node2 -->
<g id="edge2" class="edge"><title>Node1&#45;&gt;Node2</title>
<path fill="none" stroke="midnightblue" d="M638.227,-177.572C507.867,-173.773 186.443,-161.614 83,-132 72.6082,-129.025 61.8513,-123.566 53.3549,-118.605"/>
<polygon fill="midnightblue" stroke="midnightblue" points="638.294,-181.075 648.39,-177.862 638.494,-174.078 638.294,-181.075"/>
</g>
<!-- Node3 -->
<g id="node5" class="node"><title>Node3</title>
<a xlink:href="k-means_8hpp.html" target="_top" xlink:title="examples/k&#45;means/k\l&#45;means.hpp">
<polygon fill="none" stroke="black" points="91.5,-91 91.5,-125 198.5,-125 198.5,-91 91.5,-91"/>
<text text-anchor="start" x="99.5" y="-112" font-family="Helvetica,sans-Serif" font-size="10.00">examples/k&#45;means/k</text>
<text text-anchor="middle" x="145" y="-99" font-family="Helvetica,sans-Serif" font-size="10.00">&#45;means.hpp</text>
</a>
</g>
<!-- Node1&#45;&gt;Node3 -->
<g id="edge4" class="edge"><title>Node1&#45;&gt;Node3</title>
<path fill="none" stroke="midnightblue" d="M637.885,-175.516C527.872,-168.368 287.568,-151.1 207,-132 199.475,-130.216 191.642,-127.722 184.178,-125.012"/>
<polygon fill="midnightblue" stroke="midnightblue" points="637.91,-179.025 648.115,-176.176 638.361,-172.039 637.91,-179.025"/>
</g>
<!-- Node5 -->
<g id="node9" class="node"><title>Node5</title>
<a xlink:href="logistic__regression_8hpp.html" target="_top" xlink:title="examples/logistic_regression\l/logistic_regression.hpp">
<polygon fill="none" stroke="black" points="215.5,-91 215.5,-125 358.5,-125 358.5,-91 215.5,-91"/>
<text text-anchor="start" x="223.5" y="-112" font-family="Helvetica,sans-Serif" font-size="10.00">examples/logistic_regression</text>
<text text-anchor="middle" x="287" y="-99" font-family="Helvetica,sans-Serif" font-size="10.00">/logistic_regression.hpp</text>
</a>
</g>
<!-- Node1&#45;&gt;Node5 -->
<g id="edge8" class="edge"><title>Node1&#45;&gt;Node5</title>
<path fill="none" stroke="midnightblue" d="M638.292,-173.546C572.847,-166.551 461.233,-152.786 367,-132 358.221,-130.063 349.002,-127.657 340.071,-125.122"/>
<polygon fill="midnightblue" stroke="midnightblue" points="638.078,-177.042 648.389,-174.61 638.812,-170.081 638.078,-177.042"/>
</g>
<!-- Node7 -->
<g id="node13" class="node"><title>Node7</title>
<a xlink:href="page__rank__run_8cpp.html" target="_top" xlink:title="examples/page_rank\l/page_rank_run.cpp">
<polygon fill="none" stroke="black" points="375.5,-91 375.5,-125 482.5,-125 482.5,-91 375.5,-91"/>
<text text-anchor="start" x="383.5" y="-112" font-family="Helvetica,sans-Serif" font-size="10.00">examples/page_rank</text>
<text text-anchor="middle" x="429" y="-99" font-family="Helvetica,sans-Serif" font-size="10.00">/page_rank_run.cpp</text>
</a>
</g>
<!-- Node1&#45;&gt;Node7 -->
<g id="edge12" class="edge"><title>Node1&#45;&gt;Node7</title>
<path fill="none" stroke="midnightblue" d="M638.529,-168.373C597.404,-159.961 540.192,-147.132 491,-132 484.381,-129.964 477.459,-127.564 470.739,-125.082"/>
<polygon fill="midnightblue" stroke="midnightblue" points="637.864,-171.809 648.36,-170.363 639.253,-164.949 637.864,-171.809"/>
</g>
<!-- Node8 -->
<g id="node15" class="node"><title>Node8</title>
<a xlink:href="percentiles_8cpp.html" target="_top" xlink:title="examples/percentiles\l/percentiles.cpp">
<polygon fill="none" stroke="black" points="499.5,-91 499.5,-125 608.5,-125 608.5,-91 499.5,-91"/>
<text text-anchor="start" x="507.5" y="-112" font-family="Helvetica,sans-Serif" font-size="10.00">examples/percentiles</text>
<text text-anchor="middle" x="554" y="-99" font-family="Helvetica,sans-Serif" font-size="10.00">/percentiles.cpp</text>
</a>
</g>
<!-- Node1&#45;&gt;Node8 -->
<g id="edge14" class="edge"><title>Node1&#45;&gt;Node8</title>
<path fill="none" stroke="midnightblue" d="M663.978,-163.775C641.548,-152.4 610.881,-136.847 587.628,-125.054"/>
<polygon fill="midnightblue" stroke="midnightblue" points="662.539,-166.969 673.041,-168.371 665.705,-160.726 662.539,-166.969"/>
</g>
<!-- Node9 -->
<g id="node17" class="node"><title>Node9</title>
<a xlink:href="examples_2select_2select_8hpp.html" target="_top" xlink:title="examples/select/select.hpp">
<polygon fill="none" stroke="black" points="626,-97.5 626,-118.5 762,-118.5 762,-97.5 626,-97.5"/>
<text text-anchor="middle" x="694" y="-105.5" font-family="Helvetica,sans-Serif" font-size="10.00">examples/select/select.hpp</text>
</a>
</g>
<!-- Node1&#45;&gt;Node9 -->
<g id="edge16" class="edge"><title>Node1&#45;&gt;Node9</title>
<path fill="none" stroke="midnightblue" d="M694,-157.936C694,-145.106 694,-129.242 694,-118.885"/>
<polygon fill="midnightblue" stroke="midnightblue" points="690.5,-158.217 694,-168.217 697.5,-158.217 690.5,-158.217"/>
</g>
<!-- Node11 -->
<g id="node21" class="node"><title>Node11</title>
<a xlink:href="stochastic__gradient__descent_8hpp.html" target="_top" xlink:title="examples/stochastic\l_gradient_descent/stochastic\l_gradient_descent.hpp">
<polygon fill="none" stroke="black" points="780,-84.5 780,-131.5 924,-131.5 924,-84.5 780,-84.5"/>
<text text-anchor="start" x="788" y="-118.5" font-family="Helvetica,sans-Serif" font-size="10.00">examples/stochastic</text>
<text text-anchor="start" x="788" y="-105.5" font-family="Helvetica,sans-Serif" font-size="10.00">_gradient_descent/stochastic</text>
<text text-anchor="middle" x="852" y="-92.5" font-family="Helvetica,sans-Serif" font-size="10.00">_gradient_descent.hpp</text>
</a>
</g>
<!-- Node1&#45;&gt;Node11 -->
<g id="edge20" class="edge"><title>Node1&#45;&gt;Node11</title>
<path fill="none" stroke="midnightblue" d="M727.058,-164.145C747.981,-154.743 775.493,-142.38 799.373,-131.649"/>
<polygon fill="midnightblue" stroke="midnightblue" points="725.341,-161.079 717.654,-168.371 728.21,-167.464 725.341,-161.079"/>
</g>
<!-- Node13 -->
<g id="node25" class="node"><title>Node13</title>
<a xlink:href="dc3_8cpp.html" target="_top" xlink:title="examples/suffix_sorting\l/dc3.cpp">
<polygon fill="none" stroke="black" points="942,-91 942,-125 1062,-125 1062,-91 942,-91"/>
<text text-anchor="start" x="950" y="-112" font-family="Helvetica,sans-Serif" font-size="10.00">examples/suffix_sorting</text>
<text text-anchor="middle" x="1002" y="-99" font-family="Helvetica,sans-Serif" font-size="10.00">/dc3.cpp</text>
</a>
</g>
<!-- Node1&#45;&gt;Node13 -->
<g id="edge24" class="edge"><title>Node1&#45;&gt;Node13</title>
<path fill="none" stroke="midnightblue" d="M749.846,-170.304C798.611,-162.169 871.076,-148.769 933,-132 940.468,-129.978 948.294,-127.557 955.885,-125.041"/>
<polygon fill="midnightblue" stroke="midnightblue" points="749.109,-166.878 739.813,-171.959 750.249,-173.785 749.109,-166.878"/>
</g>
<!-- Node14 -->
<g id="node27" class="node"><title>Node14</title>
<a xlink:href="dc7_8cpp.html" target="_top" xlink:title="examples/suffix_sorting\l/dc7.cpp">
<polygon fill="none" stroke="black" points="1080,-91 1080,-125 1200,-125 1200,-91 1080,-91"/>
<text text-anchor="start" x="1088" y="-112" font-family="Helvetica,sans-Serif" font-size="10.00">examples/suffix_sorting</text>
<text text-anchor="middle" x="1140" y="-99" font-family="Helvetica,sans-Serif" font-size="10.00">/dc7.cpp</text>
</a>
</g>
<!-- Node1&#45;&gt;Node14 -->
<g id="edge26" class="edge"><title>Node1&#45;&gt;Node14</title>
<path fill="none" stroke="midnightblue" d="M749.562,-175.746C823.67,-170.574 958.585,-158.248 1071,-132 1079.03,-130.126 1087.43,-127.656 1095.49,-125.014"/>
<polygon fill="midnightblue" stroke="midnightblue" points="749.257,-172.258 739.517,-176.429 749.731,-179.242 749.257,-172.258"/>
</g>
<!-- Node15 -->
<g id="node29" class="node"><title>Node15</title>
<a xlink:href="prefix__doubling_8cpp.html" target="_top" xlink:title="examples/suffix_sorting\l/prefix_doubling.cpp">
<polygon fill="none" stroke="black" points="1218,-91 1218,-125 1338,-125 1338,-91 1218,-91"/>
<text text-anchor="start" x="1226" y="-112" font-family="Helvetica,sans-Serif" font-size="10.00">examples/suffix_sorting</text>
<text text-anchor="middle" x="1278" y="-99" font-family="Helvetica,sans-Serif" font-size="10.00">/prefix_doubling.cpp</text>
</a>
</g>
<!-- Node1&#45;&gt;Node15 -->
<g id="edge28" class="edge"><title>Node1&#45;&gt;Node15</title>
<path fill="none" stroke="midnightblue" d="M749.935,-175.623C864.567,-168.418 1122.63,-150.67 1209,-132 1217.18,-130.231 1225.73,-127.78 1233.91,-125.114"/>
<polygon fill="midnightblue" stroke="midnightblue" points="749.391,-172.15 739.628,-176.266 749.827,-179.136 749.391,-172.15"/>
</g>
<!-- Node16 -->
<g id="node31" class="node"><title>Node16</title>
<a xlink:href="prefix__quadrupling_8cpp.html" target="_top" xlink:title="examples/suffix_sorting\l/prefix_quadrupling.cpp">
<polygon fill="none" stroke="black" points="1356,-91 1356,-125 1476,-125 1476,-91 1356,-91"/>
<text text-anchor="start" x="1364" y="-112" font-family="Helvetica,sans-Serif" font-size="10.00">examples/suffix_sorting</text>
<text text-anchor="middle" x="1416" y="-99" font-family="Helvetica,sans-Serif" font-size="10.00">/prefix_quadrupling.cpp</text>
</a>
</g>
<!-- Node1&#45;&gt;Node16 -->
<g id="edge30" class="edge"><title>Node1&#45;&gt;Node16</title>
<path fill="none" stroke="midnightblue" d="M749.954,-176.862C886.425,-171.345 1233.49,-155.4 1347,-132 1355.45,-130.259 1364.27,-127.749 1372.69,-125.002"/>
<polygon fill="midnightblue" stroke="midnightblue" points="749.576,-173.375 739.725,-177.272 749.857,-180.369 749.576,-173.375"/>
</g>
<!-- Node4 -->
<g id="node7" class="node"><title>Node4</title>
<a xlink:href="k-means__run_8cpp.html" target="_top" xlink:title="examples/k&#45;means/k\l&#45;means_run.cpp">
<polygon fill="none" stroke="black" points="91.5,-7 91.5,-41 198.5,-41 198.5,-7 91.5,-7"/>
<text text-anchor="start" x="99.5" y="-28" font-family="Helvetica,sans-Serif" font-size="10.00">examples/k&#45;means/k</text>
<text text-anchor="middle" x="145" y="-15" font-family="Helvetica,sans-Serif" font-size="10.00">&#45;means_run.cpp</text>
</a>
</g>
<!-- Node3&#45;&gt;Node4 -->
<g id="edge6" class="edge"><title>Node3&#45;&gt;Node4</title>
<path fill="none" stroke="midnightblue" d="M145,-80.3304C145,-67.3804 145,-52.3652 145,-41.0952"/>
<polygon fill="midnightblue" stroke="midnightblue" points="141.5,-80.5951 145,-90.5951 148.5,-80.5952 141.5,-80.5951"/>
</g>
<!-- Node6 -->
<g id="node11" class="node"><title>Node6</title>
<a xlink:href="logistic__regression_8cpp.html" target="_top" xlink:title="examples/logistic_regression\l/logistic_regression.cpp">
<polygon fill="none" stroke="black" points="215.5,-7 215.5,-41 358.5,-41 358.5,-7 215.5,-7"/>
<text text-anchor="start" x="223.5" y="-28" font-family="Helvetica,sans-Serif" font-size="10.00">examples/logistic_regression</text>
<text text-anchor="middle" x="287" y="-15" font-family="Helvetica,sans-Serif" font-size="10.00">/logistic_regression.cpp</text>
</a>
</g>
<!-- Node5&#45;&gt;Node6 -->
<g id="edge10" class="edge"><title>Node5&#45;&gt;Node6</title>
<path fill="none" stroke="midnightblue" d="M287,-80.3304C287,-67.3804 287,-52.3652 287,-41.0952"/>
<polygon fill="midnightblue" stroke="midnightblue" points="283.5,-80.5951 287,-90.5951 290.5,-80.5952 283.5,-80.5951"/>
</g>
<!-- Node10 -->
<g id="node19" class="node"><title>Node10</title>
<a xlink:href="select__run_8cpp.html" target="_top" xlink:title="examples/select/select\l_run.cpp">
<polygon fill="none" stroke="black" points="635.5,-7 635.5,-41 752.5,-41 752.5,-7 635.5,-7"/>
<text text-anchor="start" x="643.5" y="-28" font-family="Helvetica,sans-Serif" font-size="10.00">examples/select/select</text>
<text text-anchor="middle" x="694" y="-15" font-family="Helvetica,sans-Serif" font-size="10.00">_run.cpp</text>
</a>
</g>
<!-- Node9&#45;&gt;Node10 -->
<g id="edge18" class="edge"><title>Node9&#45;&gt;Node10</title>
<path fill="none" stroke="midnightblue" d="M694,-87.1344C694,-73.0026 694,-54.5535 694,-41.2522"/>
<polygon fill="midnightblue" stroke="midnightblue" points="690.5,-87.3613 694,-97.3613 697.5,-87.3614 690.5,-87.3613"/>
</g>
<!-- Node12 -->
<g id="node23" class="node"><title>Node12</title>
<a xlink:href="stochastic__gradient__descent__run_8cpp.html" target="_top" xlink:title="examples/stochastic\l_gradient_descent/stochastic\l_gradient_descent_run.cpp">
<polygon fill="none" stroke="black" points="780,-0.5 780,-47.5 924,-47.5 924,-0.5 780,-0.5"/>
<text text-anchor="start" x="788" y="-34.5" font-family="Helvetica,sans-Serif" font-size="10.00">examples/stochastic</text>
<text text-anchor="start" x="788" y="-21.5" font-family="Helvetica,sans-Serif" font-size="10.00">_gradient_descent/stochastic</text>
<text text-anchor="middle" x="852" y="-8.5" font-family="Helvetica,sans-Serif" font-size="10.00">_gradient_descent_run.cpp</text>
</a>
</g>
<!-- Node11&#45;&gt;Node12 -->
<g id="edge22" class="edge"><title>Node11&#45;&gt;Node12</title>
<path fill="none" stroke="midnightblue" d="M852,-74.0664C852,-65.1933 852,-55.821 852,-47.6152"/>
<polygon fill="midnightblue" stroke="midnightblue" points="848.5,-74.1536 852,-84.1537 855.5,-74.1537 848.5,-74.1536"/>
</g>
</g>
</svg>
