<?xml version="1.0" encoding="UTF-8" standalone="no"?>
<!DOCTYPE svg PUBLIC "-//W3C//DTD SVG 1.1//EN"
 "http://www.w3.org/Graphics/SVG/1.1/DTD/svg11.dtd">
<!-- Generated by graphviz version 2.40.1 (20161225.0304)
 -->
<!-- Title: thrill/vfs/sys_file.hpp Pages: 1 -->
<svg width="254pt" height="84pt"
 viewBox="0.00 0.00 253.50 84.00" xmlns="http://www.w3.org/2000/svg" xmlns:xlink="http://www.w3.org/1999/xlink">
<g id="graph0" class="graph" transform="scale(1 1) rotate(0) translate(4 80)">
<title>thrill/vfs/sys_file.hpp</title>
<!-- Node66 -->
<g id="node1" class="node">
<title>Node66</title>
<polygon fill="#bfbfbf" stroke="#000000" points="62,-56.5 62,-75.5 180,-75.5 180,-56.5 62,-56.5"/>
<text text-anchor="middle" x="121" y="-63.5" font-family="Helvetica,sans-Serif" font-size="10.00" fill="#000000">thrill/vfs/sys_file.hpp</text>
</g>
<!-- Node67 -->
<g id="node2" class="node">
<title>Node67</title>
<g id="a_node2"><a xlink:href="file__io_8cpp.html" target="_top" xlink:title="thrill/vfs/file_io.cpp">
<polygon fill="none" stroke="#000000" points="0,-.5 0,-19.5 110,-19.5 110,-.5 0,-.5"/>
<text text-anchor="middle" x="55" y="-7.5" font-family="Helvetica,sans-Serif" font-size="10.00" fill="#000000">thrill/vfs/file_io.cpp</text>
</a>
</g>
</g>
<!-- Node66&#45;&gt;Node67 -->
<g id="edge1" class="edge">
<title>Node66&#45;&gt;Node67</title>
<path fill="none" stroke="#191970" d="M101.7245,-49.645C90.2462,-39.9058 76.0723,-27.8795 66.3646,-19.6427"/>
<polygon fill="#191970" stroke="#191970" points="99.6141,-52.4445 109.5037,-56.2455 104.143,-47.1069 99.6141,-52.4445"/>
</g>
<!-- Node68 -->
<g id="node3" class="node">
<title>Node68</title>
<g id="a_node3"><a xlink:href="sys__file_8cpp.html" target="_top" xlink:title="thrill/vfs/sys_file.cpp">
<polygon fill="none" stroke="#000000" points="128.5,-.5 128.5,-19.5 245.5,-19.5 245.5,-.5 128.5,-.5"/>
<text text-anchor="middle" x="187" y="-7.5" font-family="Helvetica,sans-Serif" font-size="10.00" fill="#000000">thrill/vfs/sys_file.cpp</text>
</a>
</g>
</g>
<!-- Node66&#45;&gt;Node68 -->
<g id="edge2" class="edge">
<title>Node66&#45;&gt;Node68</title>
<path fill="none" stroke="#191970" d="M140.2755,-49.645C151.7538,-39.9058 165.9277,-27.8795 175.6354,-19.6427"/>
<polygon fill="#191970" stroke="#191970" points="137.857,-47.1069 132.4963,-56.2455 142.3859,-52.4445 137.857,-47.1069"/>
</g>
</g>
</svg>
