<?xml version="1.0" encoding="UTF-8" standalone="no"?>
<!DOCTYPE svg PUBLIC "-//W3C//DTD SVG 1.1//EN"
 "http://www.w3.org/Graphics/SVG/1.1/DTD/svg11.dtd">
<!-- Generated by graphviz version 2.36.0 (20140111.2315)
 -->
<!-- Title: thrill/net/tcp/connection.hpp Pages: 1 -->
<svg width="407pt" height="220pt"
 viewBox="0.00 0.00 407.00 220.00" xmlns="http://www.w3.org/2000/svg" xmlns:xlink="http://www.w3.org/1999/xlink">
<g id="graph0" class="graph" transform="scale(1 1) rotate(0) translate(4 216)">
<title>thrill/net/tcp/connection.hpp</title>
<!-- Node1 -->
<g id="node1" class="node"><title>Node1</title>
<polygon fill="#bfbfbf" stroke="black" points="78.5,-192.5 78.5,-211.5 215.5,-211.5 215.5,-192.5 78.5,-192.5"/>
<text text-anchor="middle" x="147" y="-199.5" font-family="Helvetica,sans-Serif" font-size="10.00">thrill/net/tcp/connection.hpp</text>
</g>
<!-- Node2 -->
<g id="node2" class="node"><title>Node2</title>
<g id="a_node2"><a xlink:href="construct_8cpp.html" target="_top" xlink:title="thrill/net/tcp/construct.cpp">
<polygon fill="none" stroke="black" points="0,-6.5 0,-25.5 130,-25.5 130,-6.5 0,-6.5"/>
<text text-anchor="middle" x="65" y="-13.5" font-family="Helvetica,sans-Serif" font-size="10.00">thrill/net/tcp/construct.cpp</text>
</a>
</g>
</g>
<!-- Node1&#45;&gt;Node2 -->
<g id="edge1" class="edge"><title>Node1&#45;&gt;Node2</title>
<path fill="none" stroke="midnightblue" d="M120.047,-187.612C106.797,-179.9 91.47,-169.125 81,-156 55.8592,-124.485 56.6407,-108.246 59,-68 59.8765,-53.0481 62.1866,-35.7567 63.6712,-25.6356"/>
<polygon fill="midnightblue" stroke="midnightblue" points="118.357,-190.677 128.802,-192.453 121.744,-184.551 118.357,-190.677"/>
</g>
<!-- Node3 -->
<g id="node3" class="node"><title>Node3</title>
<g id="a_node3"><a xlink:href="tcp_2group_8hpp.html" target="_top" xlink:title="thrill/net/tcp/group.hpp">
<polygon fill="none" stroke="black" points="90.5,-136.5 90.5,-155.5 203.5,-155.5 203.5,-136.5 90.5,-136.5"/>
<text text-anchor="middle" x="147" y="-143.5" font-family="Helvetica,sans-Serif" font-size="10.00">thrill/net/tcp/group.hpp</text>
</a>
</g>
</g>
<!-- Node1&#45;&gt;Node3 -->
<g id="edge2" class="edge"><title>Node1&#45;&gt;Node3</title>
<path fill="none" stroke="midnightblue" d="M147,-181.805C147,-172.91 147,-162.78 147,-155.751"/>
<polygon fill="midnightblue" stroke="midnightblue" points="143.5,-182.083 147,-192.083 150.5,-182.083 143.5,-182.083"/>
</g>
<!-- Node6 -->
<g id="node6" class="node"><title>Node6</title>
<g id="a_node6"><a xlink:href="select__dispatcher_8hpp.html" target="_top" xlink:title="thrill/net/tcp/select\l_dispatcher.hpp">
<polygon fill="none" stroke="black" points="268.5,-69 268.5,-99 365.5,-99 365.5,-69 268.5,-69"/>
<text text-anchor="start" x="276.5" y="-87" font-family="Helvetica,sans-Serif" font-size="10.00">thrill/net/tcp/select</text>
<text text-anchor="middle" x="317" y="-76" font-family="Helvetica,sans-Serif" font-size="10.00">_dispatcher.hpp</text>
</a>
</g>
</g>
<!-- Node1&#45;&gt;Node6 -->
<g id="edge8" class="edge"><title>Node1&#45;&gt;Node6</title>
<path fill="none" stroke="midnightblue" d="M167.876,-186.755C200.598,-164.428 263.588,-121.446 296.238,-99.1668"/>
<polygon fill="midnightblue" stroke="midnightblue" points="165.788,-183.943 159.501,-192.47 169.733,-189.725 165.788,-183.943"/>
</g>
<!-- Node3&#45;&gt;Node2 -->
<g id="edge6" class="edge"><title>Node3&#45;&gt;Node2</title>
<path fill="none" stroke="midnightblue" d="M112.371,-132.231C97.7862,-125.037 82.1109,-114.524 73,-100 58.2296,-76.4545 61.1148,-41.5398 63.4805,-25.554"/>
<polygon fill="midnightblue" stroke="midnightblue" points="111.166,-135.528 121.718,-136.488 114.068,-129.158 111.166,-135.528"/>
</g>
<!-- Node4 -->
<g id="node4" class="node"><title>Node4</title>
<g id="a_node4"><a xlink:href="construct_8hpp.html" target="_top" xlink:title="thrill/net/tcp/construct.hpp">
<polygon fill="none" stroke="black" points="82,-74.5 82,-93.5 212,-93.5 212,-74.5 82,-74.5"/>
<text text-anchor="middle" x="147" y="-81.5" font-family="Helvetica,sans-Serif" font-size="10.00">thrill/net/tcp/construct.hpp</text>
</a>
</g>
</g>
<!-- Node3&#45;&gt;Node4 -->
<g id="edge3" class="edge"><title>Node3&#45;&gt;Node4</title>
<path fill="none" stroke="midnightblue" d="M147,-126.16C147,-115.248 147,-102.04 147,-93.5806"/>
<polygon fill="midnightblue" stroke="midnightblue" points="143.5,-126.403 147,-136.403 150.5,-126.403 143.5,-126.403"/>
</g>
<!-- Node5 -->
<g id="node5" class="node"><title>Node5</title>
<g id="a_node5"><a xlink:href="tcp_2group_8cpp.html" target="_top" xlink:title="thrill/net/tcp/group.cpp">
<polygon fill="none" stroke="black" points="171.5,-6.5 171.5,-25.5 284.5,-25.5 284.5,-6.5 171.5,-6.5"/>
<text text-anchor="middle" x="228" y="-13.5" font-family="Helvetica,sans-Serif" font-size="10.00">thrill/net/tcp/group.cpp</text>
</a>
</g>
</g>
<!-- Node3&#45;&gt;Node5 -->
<g id="edge7" class="edge"><title>Node3&#45;&gt;Node5</title>
<path fill="none" stroke="midnightblue" d="M182.025,-132.125C196.535,-124.945 212.041,-114.473 221,-100 235.614,-76.3922 232.244,-41.5086 229.646,-25.5423"/>
<polygon fill="midnightblue" stroke="midnightblue" points="180.355,-129.04 172.712,-136.377 183.262,-135.408 180.355,-129.04"/>
</g>
<!-- Node4&#45;&gt;Node2 -->
<g id="edge4" class="edge"><title>Node4&#45;&gt;Node2</title>
<path fill="none" stroke="midnightblue" d="M128.483,-68.0961C112.214,-55.0012 89.1065,-36.4028 75.7227,-25.6305"/>
<polygon fill="midnightblue" stroke="midnightblue" points="126.295,-70.8281 136.28,-74.3717 130.684,-65.375 126.295,-70.8281"/>
</g>
<!-- Node4&#45;&gt;Node5 -->
<g id="edge5" class="edge"><title>Node4&#45;&gt;Node5</title>
<path fill="none" stroke="midnightblue" d="M165.735,-67.7343C181.78,-54.6606 204.309,-36.3039 217.408,-25.6305"/>
<polygon fill="midnightblue" stroke="midnightblue" points="163.131,-65.3416 157.589,-74.3717 167.553,-70.7682 163.131,-65.3416"/>
</g>
<!-- Node6&#45;&gt;Node2 -->
<g id="edge9" class="edge"><title>Node6&#45;&gt;Node2</title>
<path fill="none" stroke="midnightblue" d="M258.7,-67.731C208.72,-54.641 138.526,-36.2569 97.7992,-25.5903"/>
<polygon fill="midnightblue" stroke="midnightblue" points="257.851,-71.1267 268.412,-70.2745 259.625,-64.3551 257.851,-71.1267"/>
</g>
<!-- Node6&#45;&gt;Node5 -->
<g id="edge10" class="edge"><title>Node6&#45;&gt;Node5</title>
<path fill="none" stroke="midnightblue" d="M289.349,-62.495C272.637,-50.1014 252.204,-34.9491 239.648,-25.6379"/>
<polygon fill="midnightblue" stroke="midnightblue" points="287.571,-65.5337 297.688,-68.679 291.741,-59.911 287.571,-65.5337"/>
</g>
<!-- Node7 -->
<g id="node7" class="node"><title>Node7</title>
<g id="a_node7"><a xlink:href="select__dispatcher_8cpp.html" target="_top" xlink:title="thrill/net/tcp/select\l_dispatcher.cpp">
<polygon fill="none" stroke="black" points="302.5,-1 302.5,-31 399.5,-31 399.5,-1 302.5,-1"/>
<text text-anchor="start" x="310.5" y="-19" font-family="Helvetica,sans-Serif" font-size="10.00">thrill/net/tcp/select</text>
<text text-anchor="middle" x="351" y="-8" font-family="Helvetica,sans-Serif" font-size="10.00">_dispatcher.cpp</text>
</a>
</g>
</g>
<!-- Node6&#45;&gt;Node7 -->
<g id="edge11" class="edge"><title>Node6&#45;&gt;Node7</title>
<path fill="none" stroke="midnightblue" d="M328.991,-59.7229C333.874,-50.2443 339.362,-39.5906 343.637,-31.2931"/>
<polygon fill="midnightblue" stroke="midnightblue" points="325.846,-58.1864 324.377,-68.679 332.069,-61.3921 325.846,-58.1864"/>
</g>
</g>
</svg>
