<?xml version="1.0" encoding="UTF-8" standalone="no"?>
<!DOCTYPE svg PUBLIC "-//W3C//DTD SVG 1.1//EN"
 "http://www.w3.org/Graphics/SVG/1.1/DTD/svg11.dtd">
<!-- Generated by graphviz version 2.36.0 (20140111.2315)
 -->
<!-- Title: thrill/vfs/temporary_directory.cpp Pages: 1 -->
<svg width="2435pt" height="424pt"
 viewBox="0.00 0.00 2435.31 424.00" xmlns="http://www.w3.org/2000/svg" xmlns:xlink="http://www.w3.org/1999/xlink">
<g id="graph0" class="graph" transform="scale(1 1) rotate(0) translate(4 420)">
<title>thrill/vfs/temporary_directory.cpp</title>
<!-- Node1 -->
<g id="node1" class="node"><title>Node1</title>
<polygon fill="#bfbfbf" stroke="black" points="2125.31,-385 2125.31,-415 2223.31,-415 2223.31,-385 2125.31,-385"/>
<text text-anchor="start" x="2133.31" y="-403" font-family="Helvetica,sans-Serif" font-size="10.00">thrill/vfs/temporary</text>
<text text-anchor="middle" x="2174.31" y="-392" font-family="Helvetica,sans-Serif" font-size="10.00">_directory.cpp</text>
</g>
<!-- Node2 -->
<g id="node2" class="node"><title>Node2</title>
<g id="a_node2"><a xlink:href="temporary__directory_8hpp.html" target="_top" xlink:title="thrill/vfs/temporary\l_directory.hpp">
<polygon fill="none" stroke="black" points="2064.31,-317 2064.31,-347 2162.31,-347 2162.31,-317 2064.31,-317"/>
<text text-anchor="start" x="2072.31" y="-335" font-family="Helvetica,sans-Serif" font-size="10.00">thrill/vfs/temporary</text>
<text text-anchor="middle" x="2113.31" y="-324" font-family="Helvetica,sans-Serif" font-size="10.00">_directory.hpp</text>
</a>
</g>
</g>
<!-- Node1&#45;&gt;Node2 -->
<g id="edge1" class="edge"><title>Node1&#45;&gt;Node2</title>
<path fill="none" stroke="midnightblue" d="M2161.08,-384.679C2153,-375.944 2142.52,-364.605 2133.44,-354.775"/>
<polygon fill="midnightblue" stroke="midnightblue" points="2135.88,-352.261 2126.52,-347.293 2130.74,-357.012 2135.88,-352.261"/>
</g>
<!-- Node3 -->
<g id="node3" class="node"><title>Node3</title>
<polygon fill="none" stroke="#bfbfbf" points="1958.81,-68.5 1958.81,-87.5 1999.81,-87.5 1999.81,-68.5 1958.81,-68.5"/>
<text text-anchor="middle" x="1979.31" y="-75.5" font-family="Helvetica,sans-Serif" font-size="10.00">string</text>
</g>
<!-- Node1&#45;&gt;Node3 -->
<g id="edge81" class="edge"><title>Node1&#45;&gt;Node3</title>
<path fill="none" stroke="midnightblue" d="M2125.07,-389.013C2100.73,-381.623 2072.88,-369.053 2055.31,-348 2031.06,-318.946 2036.31,-302.843 2036.31,-265 2036.31,-265 2036.31,-265 2036.31,-195 2036.31,-156.148 2010.24,-116.788 1993.36,-95.3787"/>
<polygon fill="midnightblue" stroke="midnightblue" points="1996.04,-93.1263 1987,-87.6004 1990.62,-97.5574 1996.04,-93.1263"/>
</g>
<!-- Node4 -->
<g id="node4" class="node"><title>Node4</title>
<g id="a_node4"><a xlink:href="thrill_2common_2logger_8hpp.html" target="_top" xlink:title="thrill/common/logger.hpp">
<polygon fill="none" stroke="black" points="1089.81,-322.5 1089.81,-341.5 1212.81,-341.5 1212.81,-322.5 1089.81,-322.5"/>
<text text-anchor="middle" x="1151.31" y="-329.5" font-family="Helvetica,sans-Serif" font-size="10.00">thrill/common/logger.hpp</text>
</a>
</g>
</g>
<!-- Node1&#45;&gt;Node4 -->
<g id="edge3" class="edge"><title>Node1&#45;&gt;Node4</title>
<path fill="none" stroke="midnightblue" d="M2124.97,-395.817C1958.82,-385.097 1419.16,-350.281 1223.23,-337.64"/>
<polygon fill="midnightblue" stroke="midnightblue" points="1223.25,-334.134 1213.05,-336.983 1222.8,-341.119 1223.25,-334.134"/>
</g>
<!-- Node44 -->
<g id="node44" class="node"><title>Node44</title>
<g id="a_node44"><a xlink:href="system__exception_8hpp.html" target="_top" xlink:title="thrill/common/system\l_exception.hpp">
<polygon fill="none" stroke="black" points="2180.31,-317 2180.31,-347 2290.31,-347 2290.31,-317 2180.31,-317"/>
<text text-anchor="start" x="2188.31" y="-335" font-family="Helvetica,sans-Serif" font-size="10.00">thrill/common/system</text>
<text text-anchor="middle" x="2235.31" y="-324" font-family="Helvetica,sans-Serif" font-size="10.00">_exception.hpp</text>
</a>
</g>
</g>
<!-- Node1&#45;&gt;Node44 -->
<g id="edge74" class="edge"><title>Node1&#45;&gt;Node44</title>
<path fill="none" stroke="midnightblue" d="M2187.55,-384.679C2195.62,-375.944 2206.1,-364.605 2215.19,-354.775"/>
<polygon fill="midnightblue" stroke="midnightblue" points="2217.89,-357.012 2222.1,-347.293 2212.74,-352.261 2217.89,-357.012"/>
</g>
<!-- Node48 -->
<g id="node48" class="node"><title>Node48</title>
<polygon fill="none" stroke="#bfbfbf" points="2308.81,-322.5 2308.81,-341.5 2357.81,-341.5 2357.81,-322.5 2308.81,-322.5"/>
<text text-anchor="middle" x="2333.31" y="-329.5" font-family="Helvetica,sans-Serif" font-size="10.00">dirent.h</text>
</g>
<!-- Node1&#45;&gt;Node48 -->
<g id="edge79" class="edge"><title>Node1&#45;&gt;Node48</title>
<path fill="none" stroke="midnightblue" d="M2209.44,-384.973C2234.56,-374.872 2269.11,-360.822 2299.31,-348 2301.14,-347.225 2303.02,-346.419 2304.91,-345.602"/>
<polygon fill="midnightblue" stroke="midnightblue" points="2306.53,-348.714 2314.29,-341.504 2303.73,-342.299 2306.53,-348.714"/>
</g>
<!-- Node49 -->
<g id="node49" class="node"><title>Node49</title>
<polygon fill="none" stroke="#bfbfbf" points="2375.81,-322.5 2375.81,-341.5 2426.81,-341.5 2426.81,-322.5 2375.81,-322.5"/>
<text text-anchor="middle" x="2401.31" y="-329.5" font-family="Helvetica,sans-Serif" font-size="10.00">unistd.h</text>
</g>
<!-- Node1&#45;&gt;Node49 -->
<g id="edge80" class="edge"><title>Node1&#45;&gt;Node49</title>
<path fill="none" stroke="midnightblue" d="M2223.43,-388.036C2262.58,-378.801 2318.55,-364.481 2366.31,-348 2368.58,-347.218 2370.91,-346.356 2373.23,-345.453"/>
<polygon fill="midnightblue" stroke="midnightblue" points="2374.69,-348.637 2382.62,-341.606 2372.04,-342.16 2374.69,-348.637"/>
</g>
<!-- Node2&#45;&gt;Node3 -->
<g id="edge2" class="edge"><title>Node2&#45;&gt;Node3</title>
<path fill="none" stroke="midnightblue" d="M2110.38,-316.983C2101.55,-275.709 2074.32,-155.534 2050.31,-124 2039.65,-109.998 2023.28,-99.2022 2008.95,-91.6992"/>
<polygon fill="midnightblue" stroke="midnightblue" points="2010.42,-88.522 1999.9,-87.2435 2007.32,-94.8017 2010.42,-88.522"/>
</g>
<!-- Node4&#45;&gt;Node3 -->
<g id="edge70" class="edge"><title>Node4&#45;&gt;Node3</title>
<path fill="none" stroke="midnightblue" d="M1213,-330.407C1334.09,-327.041 1608.95,-308.416 1814.31,-212 1865.32,-188.054 1878.37,-180.479 1921.31,-144 1938.52,-129.382 1955.38,-109.707 1966.45,-95.8447"/>
<polygon fill="midnightblue" stroke="midnightblue" points="1969.43,-97.7195 1972.83,-87.6866 1963.92,-93.4066 1969.43,-97.7195"/>
</g>
<!-- Node5 -->
<g id="node5" class="node"><title>Node5</title>
<g id="a_node5"><a xlink:href="allocator_8hpp.html" target="_top" xlink:title="thrill/mem/allocator.hpp">
<polygon fill="none" stroke="black" points="1476.31,-254.5 1476.31,-273.5 1594.31,-273.5 1594.31,-254.5 1476.31,-254.5"/>
<text text-anchor="middle" x="1535.31" y="-261.5" font-family="Helvetica,sans-Serif" font-size="10.00">thrill/mem/allocator.hpp</text>
</a>
</g>
</g>
<!-- Node4&#45;&gt;Node5 -->
<g id="edge4" class="edge"><title>Node4&#45;&gt;Node5</title>
<path fill="none" stroke="midnightblue" d="M1201.12,-322.439C1271.48,-310.347 1399.78,-288.294 1475.3,-275.315"/>
<polygon fill="midnightblue" stroke="midnightblue" points="1476.33,-278.689 1485.59,-273.546 1475.15,-271.79 1476.33,-278.689"/>
</g>
<!-- Node16 -->
<g id="node16" class="node"><title>Node16</title>
<polygon fill="none" stroke="#bfbfbf" points="1286.31,-68.5 1286.31,-87.5 1324.31,-87.5 1324.31,-68.5 1286.31,-68.5"/>
<text text-anchor="middle" x="1305.31" y="-75.5" font-family="Helvetica,sans-Serif" font-size="10.00">array</text>
</g>
<!-- Node4&#45;&gt;Node16 -->
<g id="edge68" class="edge"><title>Node4&#45;&gt;Node16</title>
<path fill="none" stroke="midnightblue" d="M1156.61,-322.326C1178.83,-285.976 1264.66,-145.526 1294.79,-96.2249"/>
<polygon fill="midnightblue" stroke="midnightblue" points="1297.81,-97.9958 1300.03,-87.6379 1291.83,-94.3457 1297.81,-97.9958"/>
</g>
<!-- Node21 -->
<g id="node21" class="node"><title>Node21</title>
<polygon fill="none" stroke="#bfbfbf" points="1216.31,-68.5 1216.31,-87.5 1268.31,-87.5 1268.31,-68.5 1216.31,-68.5"/>
<text text-anchor="middle" x="1242.31" y="-75.5" font-family="Helvetica,sans-Serif" font-size="10.00">sstream</text>
</g>
<!-- Node4&#45;&gt;Node21 -->
<g id="edge69" class="edge"><title>Node4&#45;&gt;Node21</title>
<path fill="none" stroke="midnightblue" d="M1152.98,-322.409C1158.77,-293.47 1179.56,-197.256 1213.31,-124 1217.83,-114.187 1224.23,-104.007 1229.86,-95.8163"/>
<polygon fill="midnightblue" stroke="midnightblue" points="1232.81,-97.7151 1235.76,-87.5403 1227.11,-93.6524 1232.81,-97.7151"/>
</g>
<!-- Node22 -->
<g id="node22" class="node"><title>Node22</title>
<polygon fill="none" stroke="#bfbfbf" points="1342.31,-68.5 1342.31,-87.5 1386.31,-87.5 1386.31,-68.5 1342.31,-68.5"/>
<text text-anchor="middle" x="1364.31" y="-75.5" font-family="Helvetica,sans-Serif" font-size="10.00">vector</text>
</g>
<!-- Node4&#45;&gt;Node22 -->
<g id="edge73" class="edge"><title>Node4&#45;&gt;Node22</title>
<path fill="none" stroke="midnightblue" d="M1161.71,-322.457C1173.33,-312.699 1192.47,-296.007 1207.31,-280 1266.45,-216.212 1327.28,-131.963 1352.38,-96.2163"/>
<polygon fill="midnightblue" stroke="midnightblue" points="1355.37,-98.047 1358.22,-87.8443 1349.63,-94.0392 1355.37,-98.047"/>
</g>
<!-- Node35 -->
<g id="node35" class="node"><title>Node35</title>
<g id="a_node35"><a xlink:href="pool_8hpp.html" target="_top" xlink:title="thrill/mem/pool.hpp">
<polygon fill="none" stroke="black" points="697.813,-254.5 697.813,-273.5 796.813,-273.5 796.813,-254.5 697.813,-254.5"/>
<text text-anchor="middle" x="747.313" y="-261.5" font-family="Helvetica,sans-Serif" font-size="10.00">thrill/mem/pool.hpp</text>
</a>
</g>
</g>
<!-- Node4&#45;&gt;Node35 -->
<g id="edge50" class="edge"><title>Node4&#45;&gt;Node35</title>
<path fill="none" stroke="midnightblue" d="M1098.91,-322.439C1023.92,-310.189 886.359,-287.715 807.361,-274.81"/>
<polygon fill="midnightblue" stroke="midnightblue" points="807.52,-271.289 797.086,-273.131 806.391,-278.198 807.52,-271.289"/>
</g>
<!-- Node39 -->
<g id="node39" class="node"><title>Node39</title>
<polygon fill="none" stroke="#bfbfbf" points="223.313,-124.5 223.313,-143.5 263.313,-143.5 263.313,-124.5 223.313,-124.5"/>
<text text-anchor="middle" x="243.313" y="-131.5" font-family="Helvetica,sans-Serif" font-size="10.00">utility</text>
</g>
<!-- Node4&#45;&gt;Node39 -->
<g id="edge72" class="edge"><title>Node4&#45;&gt;Node39</title>
<path fill="none" stroke="midnightblue" d="M1089.78,-329.542C911.386,-325.008 396.132,-309.645 230.313,-280 129.15,-261.914 70.3667,-294.664 9.31278,-212 -42.7548,-141.503 138.474,-134.529 212.865,-134.553"/>
<polygon fill="midnightblue" stroke="midnightblue" points="213.009,-138.054 223.025,-134.601 213.042,-131.054 213.009,-138.054"/>
</g>
<!-- Node40 -->
<g id="node40" class="node"><title>Node40</title>
<g id="a_node40"><a xlink:href="call__foreach__tuple_8hpp.html" target="_top" xlink:title="tlx/meta/call_foreach\l_tuple.hpp">
<polygon fill="none" stroke="black" points="239.813,-249 239.813,-279 346.813,-279 346.813,-249 239.813,-249"/>
<text text-anchor="start" x="247.813" y="-267" font-family="Helvetica,sans-Serif" font-size="10.00">tlx/meta/call_foreach</text>
<text text-anchor="middle" x="293.313" y="-256" font-family="Helvetica,sans-Serif" font-size="10.00">_tuple.hpp</text>
</a>
</g>
</g>
<!-- Node4&#45;&gt;Node40 -->
<g id="edge62" class="edge"><title>Node4&#45;&gt;Node40</title>
<path fill="none" stroke="midnightblue" d="M1089.61,-326.253C932.163,-314.142 516.714,-282.185 357.062,-269.904"/>
<polygon fill="midnightblue" stroke="midnightblue" points="357.16,-266.401 346.921,-269.124 356.623,-273.38 357.16,-266.401"/>
</g>
<!-- Node41 -->
<g id="node41" class="node"><title>Node41</title>
<polygon fill="none" stroke="#bfbfbf" points="324.313,-186.5 324.313,-205.5 362.313,-205.5 362.313,-186.5 324.313,-186.5"/>
<text text-anchor="middle" x="343.313" y="-193.5" font-family="Helvetica,sans-Serif" font-size="10.00">tuple</text>
</g>
<!-- Node4&#45;&gt;Node41 -->
<g id="edge71" class="edge"><title>Node4&#45;&gt;Node41</title>
<path fill="none" stroke="midnightblue" d="M1089.64,-326.163C1000.65,-318.741 831.236,-302.952 688.313,-280 544.325,-256.877 502.543,-266.59 367.313,-212 366.436,-211.646 365.555,-211.26 364.676,-210.85"/>
<polygon fill="midnightblue" stroke="midnightblue" points="366.018,-207.593 355.574,-205.81 362.627,-213.716 366.018,-207.593"/>
</g>
<!-- Node5&#45;&gt;Node3 -->
<g id="edge47" class="edge"><title>Node5&#45;&gt;Node3</title>
<path fill="none" stroke="midnightblue" d="M1594.72,-255.907C1643.07,-248.765 1712.39,-235.372 1769.31,-212 1845.86,-180.571 1925.55,-121.607 1960.73,-93.9886"/>
<polygon fill="midnightblue" stroke="midnightblue" points="1963.03,-96.6347 1968.69,-87.6783 1958.68,-91.1503 1963.03,-96.6347"/>
</g>
<!-- Node6 -->
<g id="node6" class="node"><title>Node6</title>
<g id="a_node6"><a xlink:href="thrill_2mem_2allocator__base_8hpp.html" target="_top" xlink:title="thrill/mem/allocator\l_base.hpp">
<polygon fill="none" stroke="black" points="1407.81,-181 1407.81,-211 1506.81,-211 1506.81,-181 1407.81,-181"/>
<text text-anchor="start" x="1415.81" y="-199" font-family="Helvetica,sans-Serif" font-size="10.00">thrill/mem/allocator</text>
<text text-anchor="middle" x="1457.31" y="-188" font-family="Helvetica,sans-Serif" font-size="10.00">_base.hpp</text>
</a>
</g>
</g>
<!-- Node5&#45;&gt;Node6 -->
<g id="edge5" class="edge"><title>Node5&#45;&gt;Node6</title>
<path fill="none" stroke="midnightblue" d="M1525.12,-254.372C1514.18,-245.114 1496.4,-230.076 1481.8,-217.718"/>
<polygon fill="midnightblue" stroke="midnightblue" points="1483.97,-214.969 1474.07,-211.181 1479.45,-220.313 1483.97,-214.969"/>
</g>
<!-- Node5&#45;&gt;Node22 -->
<g id="edge49" class="edge"><title>Node5&#45;&gt;Node22</title>
<path fill="none" stroke="midnightblue" d="M1478.33,-254.461C1450.57,-247.478 1418.85,-234.835 1398.31,-212 1369.32,-179.757 1364.36,-126.17 1363.92,-97.8603"/>
<polygon fill="midnightblue" stroke="midnightblue" points="1367.42,-97.7288 1363.95,-87.7206 1360.42,-97.7124 1367.42,-97.7288"/>
</g>
<!-- Node24 -->
<g id="node24" class="node"><title>Node24</title>
<g id="a_node24"><a xlink:href="mem_2manager_8hpp.html" target="_top" xlink:title="thrill/mem/manager.hpp">
<polygon fill="none" stroke="black" points="1660.81,-124.5 1660.81,-143.5 1779.81,-143.5 1779.81,-124.5 1660.81,-124.5"/>
<text text-anchor="middle" x="1720.31" y="-131.5" font-family="Helvetica,sans-Serif" font-size="10.00">thrill/mem/manager.hpp</text>
</a>
</g>
</g>
<!-- Node5&#45;&gt;Node24 -->
<g id="edge41" class="edge"><title>Node5&#45;&gt;Node24</title>
<path fill="none" stroke="midnightblue" d="M1547.74,-254.403C1578.94,-232.815 1660.84,-176.146 1699.52,-149.386"/>
<polygon fill="midnightblue" stroke="midnightblue" points="1701.71,-152.128 1707.94,-143.56 1697.73,-146.371 1701.71,-152.128"/>
</g>
<!-- Node27 -->
<g id="node27" class="node"><title>Node27</title>
<polygon fill="none" stroke="#bfbfbf" points="1783.81,-68.5 1783.81,-87.5 1832.81,-87.5 1832.81,-68.5 1783.81,-68.5"/>
<text text-anchor="middle" x="1808.31" y="-75.5" font-family="Helvetica,sans-Serif" font-size="10.00">cassert</text>
</g>
<!-- Node5&#45;&gt;Node27 -->
<g id="edge42" class="edge"><title>Node5&#45;&gt;Node27</title>
<path fill="none" stroke="midnightblue" d="M1594.41,-256.111C1659.68,-244.996 1761.81,-216.42 1809.31,-144 1818.2,-130.448 1816.8,-111.645 1813.86,-97.748"/>
<polygon fill="midnightblue" stroke="midnightblue" points="1817.2,-96.6743 1811.34,-87.8483 1810.42,-98.403 1817.2,-96.6743"/>
</g>
<!-- Node30 -->
<g id="node30" class="node"><title>Node30</title>
<polygon fill="none" stroke="#bfbfbf" points="578.313,-68.5 578.313,-87.5 630.313,-87.5 630.313,-68.5 578.313,-68.5"/>
<text text-anchor="middle" x="604.313" y="-75.5" font-family="Helvetica,sans-Serif" font-size="10.00">memory</text>
</g>
<!-- Node5&#45;&gt;Node30 -->
<g id="edge45" class="edge"><title>Node5&#45;&gt;Node30</title>
<path fill="none" stroke="midnightblue" d="M1476.16,-257.078C1279.17,-237.124 655.906,-172.029 623.313,-144 610.101,-132.638 605.818,-112.643 604.555,-97.8214"/>
<polygon fill="midnightblue" stroke="midnightblue" points="608.046,-97.5478 604.079,-87.7237 601.053,-97.8775 608.046,-97.5478"/>
</g>
<!-- Node31 -->
<g id="node31" class="node"><title>Node31</title>
<polygon fill="none" stroke="#bfbfbf" points="688.313,-68.5 688.313,-87.5 750.313,-87.5 750.313,-68.5 688.313,-68.5"/>
<text text-anchor="middle" x="719.313" y="-75.5" font-family="Helvetica,sans-Serif" font-size="10.00">type_traits</text>
</g>
<!-- Node5&#45;&gt;Node31 -->
<g id="edge48" class="edge"><title>Node5&#45;&gt;Node31</title>
<path fill="none" stroke="midnightblue" d="M1498.65,-254.483C1427.42,-238.172 1265.23,-202.183 1127.31,-180 993.42,-158.465 952.331,-188.75 824.313,-144 791.169,-132.414 757.461,-109.052 737.474,-93.721"/>
<polygon fill="midnightblue" stroke="midnightblue" points="739.578,-90.9229 729.549,-87.5069 735.259,-96.4315 739.578,-90.9229"/>
</g>
<!-- Node32 -->
<g id="node32" class="node"><title>Node32</title>
<polygon fill="none" stroke="#bfbfbf" points="1599.81,-124.5 1599.81,-143.5 1642.81,-143.5 1642.81,-124.5 1599.81,-124.5"/>
<text text-anchor="middle" x="1621.31" y="-131.5" font-family="Helvetica,sans-Serif" font-size="10.00">deque</text>
</g>
<!-- Node5&#45;&gt;Node32 -->
<g id="edge43" class="edge"><title>Node5&#45;&gt;Node32</title>
<path fill="none" stroke="midnightblue" d="M1541.22,-254.202C1555.35,-233.184 1591.25,-179.75 1609.81,-152.123"/>
<polygon fill="midnightblue" stroke="midnightblue" points="1612.92,-153.775 1615.59,-143.522 1607.1,-149.871 1612.92,-153.775"/>
</g>
<!-- Node33 -->
<g id="node33" class="node"><title>Node33</title>
<polygon fill="none" stroke="#bfbfbf" points="1483.81,-124.5 1483.81,-143.5 1528.81,-143.5 1528.81,-124.5 1483.81,-124.5"/>
<text text-anchor="middle" x="1506.31" y="-131.5" font-family="Helvetica,sans-Serif" font-size="10.00">iosfwd</text>
</g>
<!-- Node5&#45;&gt;Node33 -->
<g id="edge44" class="edge"><title>Node5&#45;&gt;Node33</title>
<path fill="none" stroke="midnightblue" d="M1533.32,-254.202C1528.64,-233.551 1516.87,-181.606 1510.53,-153.594"/>
<polygon fill="midnightblue" stroke="midnightblue" points="1513.87,-152.502 1508.24,-143.522 1507.04,-154.049 1513.87,-152.502"/>
</g>
<!-- Node34 -->
<g id="node34" class="node"><title>Node34</title>
<polygon fill="none" stroke="#bfbfbf" points="1546.81,-124.5 1546.81,-143.5 1581.81,-143.5 1581.81,-124.5 1546.81,-124.5"/>
<text text-anchor="middle" x="1564.31" y="-131.5" font-family="Helvetica,sans-Serif" font-size="10.00">new</text>
</g>
<!-- Node5&#45;&gt;Node34 -->
<g id="edge46" class="edge"><title>Node5&#45;&gt;Node34</title>
<path fill="none" stroke="midnightblue" d="M1537.31,-254.202C1541.98,-233.551 1553.75,-181.606 1560.1,-153.594"/>
<polygon fill="midnightblue" stroke="midnightblue" points="1563.59,-154.049 1562.38,-143.522 1556.76,-152.502 1563.59,-154.049"/>
</g>
<!-- Node6&#45;&gt;Node3 -->
<g id="edge38" class="edge"><title>Node6&#45;&gt;Node3</title>
<path fill="none" stroke="midnightblue" d="M1506.97,-191.29C1575.76,-185.366 1703.54,-171.521 1809.31,-144 1836.5,-136.925 1907.95,-108.313 1949.05,-91.4997"/>
<polygon fill="midnightblue" stroke="midnightblue" points="1950.63,-94.634 1958.56,-87.6003 1947.98,-88.1579 1950.63,-94.634"/>
</g>
<!-- Node7 -->
<g id="node7" class="node"><title>Node7</title>
<g id="a_node7"><a xlink:href="thrill_2common_2string_8hpp.html" target="_top" xlink:title="thrill/common/string.hpp">
<polygon fill="none" stroke="black" points="1039.81,-124.5 1039.81,-143.5 1160.81,-143.5 1160.81,-124.5 1039.81,-124.5"/>
<text text-anchor="middle" x="1100.31" y="-131.5" font-family="Helvetica,sans-Serif" font-size="10.00">thrill/common/string.hpp</text>
</a>
</g>
</g>
<!-- Node6&#45;&gt;Node7 -->
<g id="edge6" class="edge"><title>Node6&#45;&gt;Node7</title>
<path fill="none" stroke="midnightblue" d="M1407.67,-186.657C1343.12,-175.808 1230.43,-156.868 1160.9,-145.183"/>
<polygon fill="midnightblue" stroke="midnightblue" points="1161.41,-141.72 1150.97,-143.514 1160.25,-148.623 1161.41,-141.72"/>
</g>
<!-- Node6&#45;&gt;Node22 -->
<g id="edge40" class="edge"><title>Node6&#45;&gt;Node22</title>
<path fill="none" stroke="midnightblue" d="M1445.91,-180.776C1428.7,-159.306 1396.14,-118.701 1377.78,-95.8034"/>
<polygon fill="midnightblue" stroke="midnightblue" points="1380.28,-93.3198 1371.29,-87.707 1374.82,-97.6984 1380.28,-93.3198"/>
</g>
<!-- Node23 -->
<g id="node23" class="node"><title>Node23</title>
<g id="a_node23"><a xlink:href="malloc__tracker_8hpp.html" target="_top" xlink:title="thrill/mem/malloc_tracker.hpp">
<polygon fill="none" stroke="black" points="876.813,-124.5 876.813,-143.5 1021.81,-143.5 1021.81,-124.5 876.813,-124.5"/>
<text text-anchor="middle" x="949.313" y="-131.5" font-family="Helvetica,sans-Serif" font-size="10.00">thrill/mem/malloc_tracker.hpp</text>
</a>
</g>
</g>
<!-- Node6&#45;&gt;Node23 -->
<g id="edge23" class="edge"><title>Node6&#45;&gt;Node23</title>
<path fill="none" stroke="midnightblue" d="M1407.68,-189.138C1320.25,-178.811 1137.98,-157.283 1031.51,-144.708"/>
<polygon fill="midnightblue" stroke="midnightblue" points="1031.79,-141.217 1021.45,-143.52 1030.97,-148.169 1031.79,-141.217"/>
</g>
<!-- Node6&#45;&gt;Node24 -->
<g id="edge25" class="edge"><title>Node6&#45;&gt;Node24</title>
<path fill="none" stroke="midnightblue" d="M1507.09,-183.644C1554.82,-172.756 1626.34,-156.439 1673.16,-145.756"/>
<polygon fill="midnightblue" stroke="midnightblue" points="1674.08,-149.137 1683.05,-143.5 1672.53,-142.312 1674.08,-149.137"/>
</g>
<!-- Node26 -->
<g id="node26" class="node"><title>Node26</title>
<polygon fill="none" stroke="#bfbfbf" points="1646.31,-68.5 1646.31,-87.5 1692.31,-87.5 1692.31,-68.5 1646.31,-68.5"/>
<text text-anchor="middle" x="1669.31" y="-75.5" font-family="Helvetica,sans-Serif" font-size="10.00">atomic</text>
</g>
<!-- Node6&#45;&gt;Node26 -->
<g id="edge33" class="edge"><title>Node6&#45;&gt;Node26</title>
<path fill="none" stroke="midnightblue" d="M1456.6,-180.915C1456.6,-164.886 1459.19,-138.995 1474.31,-124 1496.84,-101.662 1586.44,-88.2957 1635.97,-82.4675"/>
<polygon fill="midnightblue" stroke="midnightblue" points="1636.64,-85.9136 1646.18,-81.3057 1635.85,-78.9585 1636.64,-85.9136"/>
</g>
<!-- Node6&#45;&gt;Node27 -->
<g id="edge34" class="edge"><title>Node6&#45;&gt;Node27</title>
<path fill="none" stroke="midnightblue" d="M1506.87,-193.654C1588.68,-190.43 1747.07,-179.638 1788.31,-144 1801.55,-132.559 1806.17,-112.577 1807.7,-97.7793"/>
<polygon fill="midnightblue" stroke="midnightblue" points="1811.2,-97.911 1808.37,-87.7015 1804.22,-97.4482 1811.2,-97.911"/>
</g>
<!-- Node28 -->
<g id="node28" class="node"><title>Node28</title>
<g id="a_node28"><a xlink:href="extlib_2tlx_2tlx_2allocator__base_8hpp.html" target="_top" xlink:title="tlx/allocator_base.hpp">
<polygon fill="none" stroke="black" points="632.313,-124.5 632.313,-143.5 744.313,-143.5 744.313,-124.5 632.313,-124.5"/>
<text text-anchor="middle" x="688.313" y="-131.5" font-family="Helvetica,sans-Serif" font-size="10.00">tlx/allocator_base.hpp</text>
</a>
</g>
</g>
<!-- Node6&#45;&gt;Node28 -->
<g id="edge29" class="edge"><title>Node6&#45;&gt;Node28</title>
<path fill="none" stroke="midnightblue" d="M1407.74,-191.132C1274.05,-180.701 905.943,-151.98 754.609,-140.173"/>
<polygon fill="midnightblue" stroke="midnightblue" points="754.768,-136.675 744.526,-139.386 754.224,-143.653 754.768,-136.675"/>
</g>
<!-- Node6&#45;&gt;Node31 -->
<g id="edge39" class="edge"><title>Node6&#45;&gt;Node31</title>
<path fill="none" stroke="midnightblue" d="M1407.36,-191.683C1274.46,-182.717 918.843,-157.752 867.313,-144 846.948,-138.565 843.557,-132.597 824.313,-124 799.145,-112.757 770.355,-100.458 749.295,-91.5631"/>
<polygon fill="midnightblue" stroke="midnightblue" points="750.49,-88.2687 739.915,-87.6111 747.772,-94.7195 750.49,-88.2687"/>
</g>
<!-- Node6&#45;&gt;Node32 -->
<g id="edge35" class="edge"><title>Node6&#45;&gt;Node32</title>
<path fill="none" stroke="midnightblue" d="M1495.76,-180.933C1524.47,-170.429 1563.22,-156.254 1590.04,-146.441"/>
<polygon fill="midnightblue" stroke="midnightblue" points="1591.5,-149.634 1599.69,-142.911 1589.1,-143.06 1591.5,-149.634"/>
</g>
<!-- Node6&#45;&gt;Node33 -->
<g id="edge36" class="edge"><title>Node6&#45;&gt;Node33</title>
<path fill="none" stroke="midnightblue" d="M1468.93,-180.781C1476.05,-172.062 1485.2,-160.857 1492.66,-151.715"/>
<polygon fill="midnightblue" stroke="midnightblue" points="1495.57,-153.69 1499.18,-143.731 1490.15,-149.262 1495.57,-153.69"/>
</g>
<!-- Node6&#45;&gt;Node34 -->
<g id="edge37" class="edge"><title>Node6&#45;&gt;Node34</title>
<path fill="none" stroke="midnightblue" d="M1482.4,-180.933C1499.81,-171.171 1522.87,-158.24 1540.09,-148.586"/>
<polygon fill="midnightblue" stroke="midnightblue" points="1541.97,-151.544 1548.98,-143.6 1538.54,-145.438 1541.97,-151.544"/>
</g>
<!-- Node7&#45;&gt;Node3 -->
<g id="edge21" class="edge"><title>Node7&#45;&gt;Node3</title>
<path fill="none" stroke="midnightblue" d="M1160.83,-129.417C1287.24,-121.912 1588.56,-103.917 1841.31,-88 1878.12,-85.6821 1920.44,-82.9055 1948.41,-81.0552"/>
<polygon fill="midnightblue" stroke="midnightblue" points="1948.99,-84.5242 1958.74,-80.3705 1948.53,-77.5395 1948.99,-84.5242"/>
</g>
<!-- Node8 -->
<g id="node8" class="node"><title>Node8</title>
<g id="a_node8"><a xlink:href="define_8hpp.html" target="_top" xlink:title="tlx/define.hpp">
<polygon fill="none" stroke="black" points="898.813,-68.5 898.813,-87.5 973.813,-87.5 973.813,-68.5 898.813,-68.5"/>
<text text-anchor="middle" x="936.313" y="-75.5" font-family="Helvetica,sans-Serif" font-size="10.00">tlx/define.hpp</text>
</a>
</g>
</g>
<!-- Node7&#45;&gt;Node8 -->
<g id="edge7" class="edge"><title>Node7&#45;&gt;Node8</title>
<path fill="none" stroke="midnightblue" d="M1074.33,-124.444C1046.62,-115.32 1002.56,-100.813 971.697,-90.6509"/>
<polygon fill="midnightblue" stroke="midnightblue" points="972.77,-87.3196 962.177,-87.5164 970.581,-93.9684 972.77,-87.3196"/>
</g>
<!-- Node15 -->
<g id="node15" class="node"><title>Node15</title>
<g id="a_node15"><a xlink:href="unused_8hpp.html" target="_top" xlink:title="tlx/unused.hpp">
<polygon fill="none" stroke="black" points="992.313,-68.5 992.313,-87.5 1072.31,-87.5 1072.31,-68.5 992.313,-68.5"/>
<text text-anchor="middle" x="1032.31" y="-75.5" font-family="Helvetica,sans-Serif" font-size="10.00">tlx/unused.hpp</text>
</a>
</g>
</g>
<!-- Node7&#45;&gt;Node15 -->
<g id="edge14" class="edge"><title>Node7&#45;&gt;Node15</title>
<path fill="none" stroke="midnightblue" d="M1089.39,-124.324C1079.14,-116.185 1063.59,-103.839 1051.31,-94.0874"/>
<polygon fill="midnightblue" stroke="midnightblue" points="1053.44,-91.3119 1043.44,-87.8339 1049.09,-96.7937 1053.44,-91.3119"/>
</g>
<!-- Node7&#45;&gt;Node16 -->
<g id="edge15" class="edge"><title>Node7&#45;&gt;Node16</title>
<path fill="none" stroke="midnightblue" d="M1136.76,-124.433C1170.64,-116.316 1222.7,-103.449 1276.39,-88.1385"/>
<polygon fill="midnightblue" stroke="midnightblue" points="1277.44,-91.4808 1286.08,-85.3547 1275.5,-84.7531 1277.44,-91.4808"/>
</g>
<!-- Node17 -->
<g id="node17" class="node"><title>Node17</title>
<polygon fill="none" stroke="#bfbfbf" points="1090.81,-68.5 1090.81,-87.5 1139.81,-87.5 1139.81,-68.5 1090.81,-68.5"/>
<text text-anchor="middle" x="1115.31" y="-75.5" font-family="Helvetica,sans-Serif" font-size="10.00">cstdarg</text>
</g>
<!-- Node7&#45;&gt;Node17 -->
<g id="edge16" class="edge"><title>Node7&#45;&gt;Node17</title>
<path fill="none" stroke="midnightblue" d="M1102.79,-124.083C1104.8,-116.849 1107.7,-106.409 1110.2,-97.3968"/>
<polygon fill="midnightblue" stroke="midnightblue" points="1113.58,-98.323 1112.88,-87.7511 1106.83,-96.4495 1113.58,-98.323"/>
</g>
<!-- Node18 -->
<g id="node18" class="node"><title>Node18</title>
<polygon fill="none" stroke="#bfbfbf" points="768.813,-68.5 768.813,-87.5 813.813,-87.5 813.813,-68.5 768.813,-68.5"/>
<text text-anchor="middle" x="791.313" y="-75.5" font-family="Helvetica,sans-Serif" font-size="10.00">cstdlib</text>
</g>
<!-- Node7&#45;&gt;Node18 -->
<g id="edge17" class="edge"><title>Node7&#45;&gt;Node18</title>
<path fill="none" stroke="midnightblue" d="M1042.51,-124.494C978.053,-114.869 876.815,-99.3001 823.843,-88.0892"/>
<polygon fill="midnightblue" stroke="midnightblue" points="824.435,-84.636 813.917,-85.9082 822.933,-91.4729 824.435,-84.636"/>
</g>
<!-- Node19 -->
<g id="node19" class="node"><title>Node19</title>
<polygon fill="none" stroke="#bfbfbf" points="1158.31,-68.5 1158.31,-87.5 1198.31,-87.5 1198.31,-68.5 1158.31,-68.5"/>
<text text-anchor="middle" x="1178.31" y="-75.5" font-family="Helvetica,sans-Serif" font-size="10.00">limits</text>
</g>
<!-- Node7&#45;&gt;Node19 -->
<g id="edge18" class="edge"><title>Node7&#45;&gt;Node19</title>
<path fill="none" stroke="midnightblue" d="M1112.84,-124.324C1124.9,-115.979 1143.34,-103.212 1157.58,-93.3524"/>
<polygon fill="midnightblue" stroke="midnightblue" points="1159.58,-96.2243 1165.81,-87.6545 1155.6,-90.469 1159.58,-96.2243"/>
</g>
<!-- Node20 -->
<g id="node20" class="node"><title>Node20</title>
<polygon fill="none" stroke="#bfbfbf" points="831.813,-68.5 831.813,-87.5 880.813,-87.5 880.813,-68.5 831.813,-68.5"/>
<text text-anchor="middle" x="856.313" y="-75.5" font-family="Helvetica,sans-Serif" font-size="10.00">random</text>
</g>
<!-- Node7&#45;&gt;Node20 -->
<g id="edge19" class="edge"><title>Node7&#45;&gt;Node20</title>
<path fill="none" stroke="midnightblue" d="M1056.91,-124.485C1016.31,-116.355 953.76,-103.406 891.181,-88.3634"/>
<polygon fill="midnightblue" stroke="midnightblue" points="891.683,-84.884 881.14,-85.9316 890.035,-91.6873 891.683,-84.884"/>
</g>
<!-- Node7&#45;&gt;Node21 -->
<g id="edge20" class="edge"><title>Node7&#45;&gt;Node21</title>
<path fill="none" stroke="midnightblue" d="M1122.81,-124.444C1146.39,-115.478 1183.64,-101.314 1210.28,-91.1827"/>
<polygon fill="midnightblue" stroke="midnightblue" points="1211.81,-94.3424 1219.92,-87.5164 1209.33,-87.7995 1211.81,-94.3424"/>
</g>
<!-- Node7&#45;&gt;Node22 -->
<g id="edge22" class="edge"><title>Node7&#45;&gt;Node22</title>
<path fill="none" stroke="midnightblue" d="M1151.97,-124.426C1197.16,-116.609 1264.73,-104.16 1332.09,-88.1266"/>
<polygon fill="midnightblue" stroke="midnightblue" points="1333.12,-91.4785 1342.03,-85.7352 1331.49,-84.673 1333.12,-91.4785"/>
</g>
<!-- Node9 -->
<g id="node9" class="node"><title>Node9</title>
<g id="a_node9"><a xlink:href="attribute__always__inline_8hpp.html" target="_top" xlink:title="tlx/define/attribute\l_always_inline.hpp">
<polygon fill="none" stroke="black" points="602.813,-1 602.813,-31 701.813,-31 701.813,-1 602.813,-1"/>
<text text-anchor="start" x="610.813" y="-19" font-family="Helvetica,sans-Serif" font-size="10.00">tlx/define/attribute</text>
<text text-anchor="middle" x="652.313" y="-8" font-family="Helvetica,sans-Serif" font-size="10.00">_always_inline.hpp</text>
</a>
</g>
</g>
<!-- Node8&#45;&gt;Node9 -->
<g id="edge8" class="edge"><title>Node8&#45;&gt;Node9</title>
<path fill="none" stroke="midnightblue" d="M898.574,-69.7542C847.808,-59.9647 759.223,-42.7218 711.929,-32.2785"/>
<polygon fill="midnightblue" stroke="midnightblue" points="712.466,-28.8118 701.942,-30.0319 710.93,-35.6412 712.466,-28.8118"/>
</g>
<!-- Node10 -->
<g id="node10" class="node"><title>Node10</title>
<g id="a_node10"><a xlink:href="attribute__fallthrough_8hpp.html" target="_top" xlink:title="tlx/define/attribute\l_fallthrough.hpp">
<polygon fill="none" stroke="black" points="719.813,-1 719.813,-31 814.813,-31 814.813,-1 719.813,-1"/>
<text text-anchor="start" x="727.813" y="-19" font-family="Helvetica,sans-Serif" font-size="10.00">tlx/define/attribute</text>
<text text-anchor="middle" x="767.313" y="-8" font-family="Helvetica,sans-Serif" font-size="10.00">_fallthrough.hpp</text>
</a>
</g>
</g>
<!-- Node8&#45;&gt;Node10 -->
<g id="edge9" class="edge"><title>Node8&#45;&gt;Node10</title>
<path fill="none" stroke="midnightblue" d="M912.099,-68.4035C887.203,-59.5644 847.737,-45.553 816.293,-34.3895"/>
<polygon fill="midnightblue" stroke="midnightblue" points="817.412,-31.0728 806.817,-31.0253 815.07,-37.6694 817.412,-31.0728"/>
</g>
<!-- Node11 -->
<g id="node11" class="node"><title>Node11</title>
<g id="a_node11"><a xlink:href="attribute__format__printf_8hpp.html" target="_top" xlink:title="tlx/define/attribute\l_format_printf.hpp">
<polygon fill="none" stroke="black" points="832.813,-1 832.813,-31 927.813,-31 927.813,-1 832.813,-1"/>
<text text-anchor="start" x="840.813" y="-19" font-family="Helvetica,sans-Serif" font-size="10.00">tlx/define/attribute</text>
<text text-anchor="middle" x="880.313" y="-8" font-family="Helvetica,sans-Serif" font-size="10.00">_format_printf.hpp</text>
</a>
</g>
</g>
<!-- Node8&#45;&gt;Node11 -->
<g id="edge10" class="edge"><title>Node8&#45;&gt;Node11</title>
<path fill="none" stroke="midnightblue" d="M928.289,-68.4035C921.059,-60.657 910.121,-48.9379 900.514,-38.6447"/>
<polygon fill="midnightblue" stroke="midnightblue" points="902.893,-36.0633 893.511,-31.1408 897.775,-40.8395 902.893,-36.0633"/>
</g>
<!-- Node12 -->
<g id="node12" class="node"><title>Node12</title>
<g id="a_node12"><a xlink:href="attribute__packed_8hpp.html" target="_top" xlink:title="tlx/define/attribute\l_packed.hpp">
<polygon fill="none" stroke="black" points="945.813,-1 945.813,-31 1040.81,-31 1040.81,-1 945.813,-1"/>
<text text-anchor="start" x="953.813" y="-19" font-family="Helvetica,sans-Serif" font-size="10.00">tlx/define/attribute</text>
<text text-anchor="middle" x="993.313" y="-8" font-family="Helvetica,sans-Serif" font-size="10.00">_packed.hpp</text>
</a>
</g>
</g>
<!-- Node8&#45;&gt;Node12 -->
<g id="edge11" class="edge"><title>Node8&#45;&gt;Node12</title>
<path fill="none" stroke="midnightblue" d="M944.479,-68.4035C951.839,-60.657 962.972,-48.9379 972.75,-38.6447"/>
<polygon fill="midnightblue" stroke="midnightblue" points="975.529,-40.8015 979.879,-31.1408 970.454,-35.9802 975.529,-40.8015"/>
</g>
<!-- Node13 -->
<g id="node13" class="node"><title>Node13</title>
<g id="a_node13"><a xlink:href="attribute__warn__unused__result_8hpp.html" target="_top" xlink:title="tlx/define/attribute\l_warn_unused_result.hpp">
<polygon fill="none" stroke="black" points="1059.31,-1 1059.31,-31 1187.31,-31 1187.31,-1 1059.31,-1"/>
<text text-anchor="start" x="1067.31" y="-19" font-family="Helvetica,sans-Serif" font-size="10.00">tlx/define/attribute</text>
<text text-anchor="middle" x="1123.31" y="-8" font-family="Helvetica,sans-Serif" font-size="10.00">_warn_unused_result.hpp</text>
</a>
</g>
</g>
<!-- Node8&#45;&gt;Node13 -->
<g id="edge12" class="edge"><title>Node8&#45;&gt;Node13</title>
<path fill="none" stroke="midnightblue" d="M963.105,-68.4035C990.891,-59.4882 1035.08,-45.311 1070.01,-34.1014"/>
<polygon fill="midnightblue" stroke="midnightblue" points="1071.15,-37.4132 1079.6,-31.0253 1069.01,-30.7479 1071.15,-37.4132"/>
</g>
<!-- Node14 -->
<g id="node14" class="node"><title>Node14</title>
<g id="a_node14"><a xlink:href="likely_8hpp.html" target="_top" xlink:title="tlx/define/likely.hpp">
<polygon fill="none" stroke="black" points="1205.81,-6.5 1205.81,-25.5 1306.81,-25.5 1306.81,-6.5 1205.81,-6.5"/>
<text text-anchor="middle" x="1256.31" y="-13.5" font-family="Helvetica,sans-Serif" font-size="10.00">tlx/define/likely.hpp</text>
</a>
</g>
</g>
<!-- Node8&#45;&gt;Node14 -->
<g id="edge13" class="edge"><title>Node8&#45;&gt;Node14</title>
<path fill="none" stroke="midnightblue" d="M974.009,-69.7067C977.155,-69.1209 980.288,-68.5452 983.313,-68 1077.8,-50.9707 1102.34,-51.6576 1196.31,-32 1202.1,-30.7888 1208.18,-29.4042 1214.15,-27.9769"/>
<polygon fill="midnightblue" stroke="midnightblue" points="1215.15,-31.3352 1224.03,-25.5577 1213.49,-24.536 1215.15,-31.3352"/>
</g>
<!-- Node23&#45;&gt;Node18 -->
<g id="edge24" class="edge"><title>Node23&#45;&gt;Node18</title>
<path fill="none" stroke="midnightblue" d="M924.277,-124.444C896.993,-115.119 853.259,-100.172 823.456,-89.9858"/>
<polygon fill="midnightblue" stroke="midnightblue" points="824.522,-86.6512 813.927,-86.729 822.258,-93.2751 824.522,-86.6512"/>
</g>
<!-- Node25 -->
<g id="node25" class="node"><title>Node25</title>
<polygon fill="none" stroke="#bfbfbf" points="1470.31,-68.5 1470.31,-87.5 1526.31,-87.5 1526.31,-68.5 1470.31,-68.5"/>
<text text-anchor="middle" x="1498.31" y="-75.5" font-family="Helvetica,sans-Serif" font-size="10.00">algorithm</text>
</g>
<!-- Node24&#45;&gt;Node25 -->
<g id="edge26" class="edge"><title>Node24&#45;&gt;Node25</title>
<path fill="none" stroke="midnightblue" d="M1685.14,-124.444C1644.59,-114.58 1578.18,-98.4272 1536.43,-88.2715"/>
<polygon fill="midnightblue" stroke="midnightblue" points="1537.18,-84.8514 1526.63,-85.8886 1535.52,-91.6531 1537.18,-84.8514"/>
</g>
<!-- Node24&#45;&gt;Node26 -->
<g id="edge27" class="edge"><title>Node24&#45;&gt;Node26</title>
<path fill="none" stroke="midnightblue" d="M1711.89,-124.083C1704.46,-116.22 1693.46,-104.569 1684.5,-95.0813"/>
<polygon fill="midnightblue" stroke="midnightblue" points="1686.99,-92.618 1677.58,-87.7511 1681.9,-97.4244 1686.99,-92.618"/>
</g>
<!-- Node24&#45;&gt;Node27 -->
<g id="edge28" class="edge"><title>Node24&#45;&gt;Node27</title>
<path fill="none" stroke="midnightblue" d="M1734.45,-124.324C1748.18,-115.9 1769.25,-102.971 1785.38,-93.0741"/>
<polygon fill="midnightblue" stroke="midnightblue" points="1787.52,-95.8678 1794.21,-87.6545 1783.86,-89.9016 1787.52,-95.8678"/>
</g>
<!-- Node29 -->
<g id="node29" class="node"><title>Node29</title>
<polygon fill="none" stroke="#bfbfbf" points="503.813,-68.5 503.813,-87.5 552.813,-87.5 552.813,-68.5 503.813,-68.5"/>
<text text-anchor="middle" x="528.313" y="-75.5" font-family="Helvetica,sans-Serif" font-size="10.00">cstddef</text>
</g>
<!-- Node28&#45;&gt;Node29 -->
<g id="edge30" class="edge"><title>Node28&#45;&gt;Node29</title>
<path fill="none" stroke="midnightblue" d="M662.96,-124.444C635.885,-115.306 592.813,-100.769 562.696,-90.6044"/>
<polygon fill="midnightblue" stroke="midnightblue" points="563.615,-87.2206 553.021,-87.339 561.377,-93.8531 563.615,-87.2206"/>
</g>
<!-- Node28&#45;&gt;Node30 -->
<g id="edge31" class="edge"><title>Node28&#45;&gt;Node30</title>
<path fill="none" stroke="midnightblue" d="M674.817,-124.324C661.713,-115.9 641.601,-102.971 626.206,-93.0741"/>
<polygon fill="midnightblue" stroke="midnightblue" points="628.08,-90.118 617.775,-87.6545 624.294,-96.0063 628.08,-90.118"/>
</g>
<!-- Node28&#45;&gt;Node31 -->
<g id="edge32" class="edge"><title>Node28&#45;&gt;Node31</title>
<path fill="none" stroke="midnightblue" d="M693.432,-124.083C697.72,-116.613 703.971,-105.724 709.255,-96.5199"/>
<polygon fill="midnightblue" stroke="midnightblue" points="712.346,-98.1662 714.289,-87.7511 706.275,-94.6811 712.346,-98.1662"/>
</g>
<!-- Node35&#45;&gt;Node3 -->
<g id="edge58" class="edge"><title>Node35&#45;&gt;Node3</title>
<path fill="none" stroke="midnightblue" d="M796.959,-262.005C919.468,-259.049 1245.79,-248.138 1515.31,-212 1665.89,-191.81 1706.76,-193.734 1850.31,-144 1889.19,-130.533 1931.21,-107.635 1956.38,-92.9225"/>
<polygon fill="midnightblue" stroke="midnightblue" points="1958.34,-95.8288 1965.16,-87.7213 1954.78,-89.8059 1958.34,-95.8288"/>
</g>
<!-- Node35&#45;&gt;Node6 -->
<g id="edge52" class="edge"><title>Node35&#45;&gt;Node6</title>
<path fill="none" stroke="midnightblue" d="M796.956,-258.385C923.773,-246.597 1259.32,-215.405 1397.03,-202.603"/>
<polygon fill="midnightblue" stroke="midnightblue" points="1397.75,-206.052 1407.39,-201.641 1397.11,-199.082 1397.75,-206.052"/>
</g>
<!-- Node35&#45;&gt;Node22 -->
<g id="edge61" class="edge"><title>Node35&#45;&gt;Node22</title>
<path fill="none" stroke="midnightblue" d="M779.492,-254.479C850.275,-235.614 1024.7,-188.464 1169.31,-144 1227.24,-126.189 1294.12,-103.404 1332.59,-90.083"/>
<polygon fill="midnightblue" stroke="midnightblue" points="1333.9,-93.3347 1342.2,-86.7487 1331.6,-86.7218 1333.9,-93.3347"/>
</g>
<!-- Node35&#45;&gt;Node25 -->
<g id="edge53" class="edge"><title>Node35&#45;&gt;Node25</title>
<path fill="none" stroke="midnightblue" d="M796.412,-254.44C848.853,-245.048 934.294,-229.029 1007.31,-212 1177.81,-172.24 1378.67,-114.308 1460.64,-90.187"/>
<polygon fill="midnightblue" stroke="midnightblue" points="1461.66,-93.5344 1470.26,-87.3491 1459.68,-86.8201 1461.66,-93.5344"/>
</g>
<!-- Node35&#45;&gt;Node29 -->
<g id="edge54" class="edge"><title>Node35&#45;&gt;Node29</title>
<path fill="none" stroke="midnightblue" d="M724.733,-254.343C703.353,-245.533 670.946,-230.555 646.313,-212 622.423,-194.005 567.088,-127.046 541.602,-95.5611"/>
<polygon fill="midnightblue" stroke="midnightblue" points="544.258,-93.2789 535.256,-87.6916 538.809,-97.673 544.258,-93.2789"/>
</g>
<!-- Node35&#45;&gt;Node30 -->
<g id="edge56" class="edge"><title>Node35&#45;&gt;Node30</title>
<path fill="none" stroke="midnightblue" d="M737.585,-254.357C719.919,-238.813 681.167,-205.392 646.313,-180 622.398,-162.578 604.491,-169.97 590.313,-144 582.29,-129.306 587.851,-110.399 594.179,-96.7686"/>
<polygon fill="midnightblue" stroke="midnightblue" points="597.472,-98.0217 598.956,-87.5313 591.254,-94.8064 597.472,-98.0217"/>
</g>
<!-- Node35&#45;&gt;Node31 -->
<g id="edge59" class="edge"><title>Node35&#45;&gt;Node31</title>
<path fill="none" stroke="midnightblue" d="M749.713,-254.233C755.41,-231.823 768.134,-170.906 752.313,-124 748.728,-113.371 741.636,-103.152 734.942,-95.1459"/>
<polygon fill="midnightblue" stroke="midnightblue" points="737.545,-92.8069 728.274,-87.6794 732.324,-97.4695 737.545,-92.8069"/>
</g>
<!-- Node36 -->
<g id="node36" class="node"><title>Node36</title>
<g id="a_node36"><a xlink:href="config_8hpp.html" target="_top" xlink:title="thrill/common/config.hpp">
<polygon fill="none" stroke="black" points="480.813,-186.5 480.813,-205.5 603.813,-205.5 603.813,-186.5 480.813,-186.5"/>
<text text-anchor="middle" x="542.313" y="-193.5" font-family="Helvetica,sans-Serif" font-size="10.00">thrill/common/config.hpp</text>
</a>
</g>
</g>
<!-- Node35&#45;&gt;Node36 -->
<g id="edge51" class="edge"><title>Node35&#45;&gt;Node36</title>
<path fill="none" stroke="midnightblue" d="M720.513,-254.372C684.117,-242.654 618.951,-221.674 578.316,-208.591"/>
<polygon fill="midnightblue" stroke="midnightblue" points="579.386,-205.259 568.795,-205.526 577.241,-211.922 579.386,-205.259"/>
</g>
<!-- Node37 -->
<g id="node37" class="node"><title>Node37</title>
<polygon fill="none" stroke="#bfbfbf" points="698.313,-186.5 698.313,-205.5 744.313,-205.5 744.313,-186.5 698.313,-186.5"/>
<text text-anchor="middle" x="721.313" y="-193.5" font-family="Helvetica,sans-Serif" font-size="10.00">cstdint</text>
</g>
<!-- Node35&#45;&gt;Node37 -->
<g id="edge55" class="edge"><title>Node35&#45;&gt;Node37</title>
<path fill="none" stroke="midnightblue" d="M743.914,-254.372C740.042,-244.544 733.604,-228.202 728.588,-215.467"/>
<polygon fill="midnightblue" stroke="midnightblue" points="731.717,-213.862 724.796,-205.841 725.205,-216.428 731.717,-213.862"/>
</g>
<!-- Node38 -->
<g id="node38" class="node"><title>Node38</title>
<polygon fill="none" stroke="#bfbfbf" points="418.313,-186.5 418.313,-205.5 462.313,-205.5 462.313,-186.5 418.313,-186.5"/>
<text text-anchor="middle" x="440.313" y="-193.5" font-family="Helvetica,sans-Serif" font-size="10.00">mutex</text>
</g>
<!-- Node35&#45;&gt;Node38 -->
<g id="edge57" class="edge"><title>Node35&#45;&gt;Node38</title>
<path fill="none" stroke="midnightblue" d="M697.714,-257.892C641.69,-251.198 548.294,-237.228 471.313,-212 469.395,-211.372 467.445,-210.648 465.503,-209.866"/>
<polygon fill="midnightblue" stroke="midnightblue" points="466.619,-206.53 456.062,-205.628 463.752,-212.916 466.619,-206.53"/>
</g>
<!-- Node35&#45;&gt;Node39 -->
<g id="edge60" class="edge"><title>Node35&#45;&gt;Node39</title>
<path fill="none" stroke="midnightblue" d="M697.578,-258.837C616.497,-251.496 459.8,-234.839 409.313,-212 389.196,-202.9 390.485,-190.951 371.313,-180 339.894,-162.053 300.094,-149.442 273.284,-142.225"/>
<polygon fill="midnightblue" stroke="midnightblue" points="273.903,-138.769 263.343,-139.636 272.139,-145.543 273.903,-138.769"/>
</g>
<!-- Node40&#45;&gt;Node41 -->
<g id="edge63" class="edge"><title>Node40&#45;&gt;Node41</title>
<path fill="none" stroke="midnightblue" d="M304.162,-248.679C311.881,-238.49 322.283,-224.759 330.425,-214.011"/>
<polygon fill="midnightblue" stroke="midnightblue" points="333.376,-215.913 336.625,-205.828 327.796,-211.686 333.376,-215.913"/>
</g>
<!-- Node42 -->
<g id="node42" class="node"><title>Node42</title>
<g id="a_node42"><a xlink:href="call__foreach_8hpp.html" target="_top" xlink:title="tlx/meta/call_foreach.hpp">
<polygon fill="none" stroke="black" points="180.313,-186.5 180.313,-205.5 306.313,-205.5 306.313,-186.5 180.313,-186.5"/>
<text text-anchor="middle" x="243.313" y="-193.5" font-family="Helvetica,sans-Serif" font-size="10.00">tlx/meta/call_foreach.hpp</text>
</a>
</g>
</g>
<!-- Node40&#45;&gt;Node42 -->
<g id="edge64" class="edge"><title>Node40&#45;&gt;Node42</title>
<path fill="none" stroke="midnightblue" d="M282.464,-248.679C274.745,-238.49 264.342,-224.759 256.2,-214.011"/>
<polygon fill="midnightblue" stroke="midnightblue" points="258.829,-211.686 250.001,-205.828 253.25,-215.913 258.829,-211.686"/>
</g>
<!-- Node43 -->
<g id="node43" class="node"><title>Node43</title>
<g id="a_node43"><a xlink:href="index__sequence_8hpp.html" target="_top" xlink:title="tlx/meta/index_sequence.hpp">
<polygon fill="none" stroke="black" points="18.3128,-186.5 18.3128,-205.5 162.313,-205.5 162.313,-186.5 18.3128,-186.5"/>
<text text-anchor="middle" x="90.3128" y="-193.5" font-family="Helvetica,sans-Serif" font-size="10.00">tlx/meta/index_sequence.hpp</text>
</a>
</g>
</g>
<!-- Node40&#45;&gt;Node43 -->
<g id="edge66" class="edge"><title>Node40&#45;&gt;Node43</title>
<path fill="none" stroke="midnightblue" d="M249.764,-248.841C212.971,-236.879 160.898,-219.949 126.396,-208.731"/>
<polygon fill="midnightblue" stroke="midnightblue" points="127.316,-205.35 116.724,-205.587 125.152,-212.007 127.316,-205.35"/>
</g>
<!-- Node42&#45;&gt;Node39 -->
<g id="edge65" class="edge"><title>Node42&#45;&gt;Node39</title>
<path fill="none" stroke="midnightblue" d="M243.313,-186.403C243.313,-177.938 243.313,-164.728 243.313,-153.82"/>
<polygon fill="midnightblue" stroke="midnightblue" points="246.813,-153.581 243.313,-143.581 239.813,-153.581 246.813,-153.581"/>
</g>
<!-- Node43&#45;&gt;Node29 -->
<g id="edge67" class="edge"><title>Node43&#45;&gt;Node29</title>
<path fill="none" stroke="midnightblue" d="M101.901,-186.332C123.026,-171.012 169.741,-139.326 214.313,-124 311.631,-90.5379 434.184,-81.9499 493.276,-79.7518"/>
<polygon fill="midnightblue" stroke="midnightblue" points="493.673,-83.2407 503.551,-79.4112 493.441,-76.2445 493.673,-83.2407"/>
</g>
<!-- Node44&#45;&gt;Node3 -->
<g id="edge78" class="edge"><title>Node44&#45;&gt;Node3</title>
<path fill="none" stroke="midnightblue" d="M2196.78,-316.91C2178.11,-308.52 2156.51,-296.296 2141.31,-280 2089.37,-224.283 2123.31,-178.723 2070.31,-124 2053.61,-106.749 2028.91,-95.1141 2009.45,-88.0036"/>
<polygon fill="midnightblue" stroke="midnightblue" points="2010.42,-84.6362 1999.83,-84.692 2008.15,-91.2553 2010.42,-84.6362"/>
</g>
<!-- Node45 -->
<g id="node45" class="node"><title>Node45</title>
<polygon fill="none" stroke="#bfbfbf" points="2150.31,-254.5 2150.31,-273.5 2194.31,-273.5 2194.31,-254.5 2150.31,-254.5"/>
<text text-anchor="middle" x="2172.31" y="-261.5" font-family="Helvetica,sans-Serif" font-size="10.00">cerrno</text>
</g>
<!-- Node44&#45;&gt;Node45 -->
<g id="edge75" class="edge"><title>Node44&#45;&gt;Node45</title>
<path fill="none" stroke="midnightblue" d="M2221.64,-316.679C2211.72,-306.286 2198.28,-292.208 2187.94,-281.37"/>
<polygon fill="midnightblue" stroke="midnightblue" points="2190.18,-278.645 2180.74,-273.828 2185.11,-283.479 2190.18,-278.645"/>
</g>
<!-- Node46 -->
<g id="node46" class="node"><title>Node46</title>
<polygon fill="none" stroke="#bfbfbf" points="2212.31,-254.5 2212.31,-273.5 2258.31,-273.5 2258.31,-254.5 2212.31,-254.5"/>
<text text-anchor="middle" x="2235.31" y="-261.5" font-family="Helvetica,sans-Serif" font-size="10.00">cstring</text>
</g>
<!-- Node44&#45;&gt;Node46 -->
<g id="edge76" class="edge"><title>Node44&#45;&gt;Node46</title>
<path fill="none" stroke="midnightblue" d="M2235.31,-316.679C2235.31,-307.101 2235.31,-294.394 2235.31,-283.977"/>
<polygon fill="midnightblue" stroke="midnightblue" points="2238.81,-283.828 2235.31,-273.828 2231.81,-283.828 2238.81,-283.828"/>
</g>
<!-- Node47 -->
<g id="node47" class="node"><title>Node47</title>
<polygon fill="none" stroke="#bfbfbf" points="2276.81,-254.5 2276.81,-273.5 2335.81,-273.5 2335.81,-254.5 2276.81,-254.5"/>
<text text-anchor="middle" x="2306.31" y="-261.5" font-family="Helvetica,sans-Serif" font-size="10.00">stdexcept</text>
</g>
<!-- Node44&#45;&gt;Node47 -->
<g id="edge77" class="edge"><title>Node44&#45;&gt;Node47</title>
<path fill="none" stroke="midnightblue" d="M2250.72,-316.679C2262.12,-306.082 2277.64,-291.655 2289.38,-280.736"/>
<polygon fill="midnightblue" stroke="midnightblue" points="2291.87,-283.2 2296.82,-273.828 2287.11,-278.073 2291.87,-283.2"/>
</g>
</g>
</svg>
