<?xml version="1.0" encoding="UTF-8" standalone="no"?>
<!DOCTYPE svg PUBLIC "-//W3C//DTD SVG 1.1//EN"
 "http://www.w3.org/Graphics/SVG/1.1/DTD/svg11.dtd">
<!-- Generated by graphviz version 2.36.0 (20140111.2315)
 -->
<!-- Title: thrill/common/uint_types.hpp Pages: 1 -->
<svg width="680pt" height="108pt"
 viewBox="0.00 0.00 680.00 108.00" xmlns="http://www.w3.org/2000/svg" xmlns:xlink="http://www.w3.org/1999/xlink">
<g id="graph0" class="graph" transform="scale(1 1) rotate(0) translate(4 104)">
<title>thrill/common/uint_types.hpp</title>
<!-- Node1 -->
<g id="node1" class="node"><title>Node1</title>
<polygon fill="#bfbfbf" stroke="black" points="289,-69 289,-99 383,-99 383,-69 289,-69"/>
<text text-anchor="start" x="297" y="-87" font-family="Helvetica,sans-Serif" font-size="10.00">thrill/common/uint</text>
<text text-anchor="middle" x="336" y="-76" font-family="Helvetica,sans-Serif" font-size="10.00">_types.hpp</text>
</g>
<!-- Node2 -->
<g id="node2" class="node"><title>Node2</title>
<g id="a_node2"><a xlink:href="dc3_8cpp.html" target="_top" xlink:title="examples/suffix_sorting\l/dc3.cpp">
<polygon fill="none" stroke="black" points="0,-1 0,-31 120,-31 120,-1 0,-1"/>
<text text-anchor="start" x="8" y="-19" font-family="Helvetica,sans-Serif" font-size="10.00">examples/suffix_sorting</text>
<text text-anchor="middle" x="60" y="-8" font-family="Helvetica,sans-Serif" font-size="10.00">/dc3.cpp</text>
</a>
</g>
</g>
<!-- Node1&#45;&gt;Node2 -->
<g id="edge1" class="edge"><title>Node1&#45;&gt;Node2</title>
<path fill="none" stroke="midnightblue" d="M278.898,-69.3452C232.134,-58.1626 166.213,-42.3987 118.953,-31.0975"/>
<polygon fill="midnightblue" stroke="midnightblue" points="278.328,-72.8074 288.868,-71.7292 279.956,-65.9994 278.328,-72.8074"/>
</g>
<!-- Node3 -->
<g id="node3" class="node"><title>Node3</title>
<g id="a_node3"><a xlink:href="dc7_8cpp.html" target="_top" xlink:title="examples/suffix_sorting\l/dc7.cpp">
<polygon fill="none" stroke="black" points="138,-1 138,-31 258,-31 258,-1 138,-1"/>
<text text-anchor="start" x="146" y="-19" font-family="Helvetica,sans-Serif" font-size="10.00">examples/suffix_sorting</text>
<text text-anchor="middle" x="198" y="-8" font-family="Helvetica,sans-Serif" font-size="10.00">/dc7.cpp</text>
</a>
</g>
</g>
<!-- Node1&#45;&gt;Node3 -->
<g id="edge2" class="edge"><title>Node1&#45;&gt;Node3</title>
<path fill="none" stroke="midnightblue" d="M297.277,-64.4805C275.181,-53.9128 247.918,-40.8738 227.556,-31.1352"/>
<polygon fill="midnightblue" stroke="midnightblue" points="295.864,-67.6842 306.396,-68.8413 298.884,-61.3693 295.864,-67.6842"/>
</g>
<!-- Node4 -->
<g id="node4" class="node"><title>Node4</title>
<g id="a_node4"><a xlink:href="prefix__doubling_8cpp.html" target="_top" xlink:title="examples/suffix_sorting\l/prefix_doubling.cpp">
<polygon fill="none" stroke="black" points="276,-1 276,-31 396,-31 396,-1 276,-1"/>
<text text-anchor="start" x="284" y="-19" font-family="Helvetica,sans-Serif" font-size="10.00">examples/suffix_sorting</text>
<text text-anchor="middle" x="336" y="-8" font-family="Helvetica,sans-Serif" font-size="10.00">/prefix_doubling.cpp</text>
</a>
</g>
</g>
<!-- Node1&#45;&gt;Node4 -->
<g id="edge3" class="edge"><title>Node1&#45;&gt;Node4</title>
<path fill="none" stroke="midnightblue" d="M336,-58.5322C336,-49.3606 336,-39.2449 336,-31.2931"/>
<polygon fill="midnightblue" stroke="midnightblue" points="332.5,-58.6789 336,-68.679 339.5,-58.679 332.5,-58.6789"/>
</g>
<!-- Node5 -->
<g id="node5" class="node"><title>Node5</title>
<g id="a_node5"><a xlink:href="prefix__quadrupling_8cpp.html" target="_top" xlink:title="examples/suffix_sorting\l/prefix_quadrupling.cpp">
<polygon fill="none" stroke="black" points="414,-1 414,-31 534,-31 534,-1 414,-1"/>
<text text-anchor="start" x="422" y="-19" font-family="Helvetica,sans-Serif" font-size="10.00">examples/suffix_sorting</text>
<text text-anchor="middle" x="474" y="-8" font-family="Helvetica,sans-Serif" font-size="10.00">/prefix_quadrupling.cpp</text>
</a>
</g>
</g>
<!-- Node1&#45;&gt;Node5 -->
<g id="edge4" class="edge"><title>Node1&#45;&gt;Node5</title>
<path fill="none" stroke="midnightblue" d="M374.723,-64.4805C396.819,-53.9128 424.082,-40.8738 444.444,-31.1352"/>
<polygon fill="midnightblue" stroke="midnightblue" points="373.116,-61.3693 365.604,-68.8413 376.136,-67.6842 373.116,-61.3693"/>
</g>
<!-- Node6 -->
<g id="node6" class="node"><title>Node6</title>
<g id="a_node6"><a xlink:href="suffix__sorting_8cpp.html" target="_top" xlink:title="examples/suffix_sorting\l/suffix_sorting.cpp">
<polygon fill="none" stroke="black" points="552,-1 552,-31 672,-31 672,-1 552,-1"/>
<text text-anchor="start" x="560" y="-19" font-family="Helvetica,sans-Serif" font-size="10.00">examples/suffix_sorting</text>
<text text-anchor="middle" x="612" y="-8" font-family="Helvetica,sans-Serif" font-size="10.00">/suffix_sorting.cpp</text>
</a>
</g>
</g>
<!-- Node1&#45;&gt;Node6 -->
<g id="edge5" class="edge"><title>Node1&#45;&gt;Node6</title>
<path fill="none" stroke="midnightblue" d="M393.102,-69.3452C439.866,-58.1626 505.787,-42.3987 553.047,-31.0975"/>
<polygon fill="midnightblue" stroke="midnightblue" points="392.044,-65.9994 383.132,-71.7292 393.672,-72.8074 392.044,-65.9994"/>
</g>
</g>
</svg>
