<?xml version="1.0" encoding="UTF-8" standalone="no"?>
<!DOCTYPE svg PUBLIC "-//W3C//DTD SVG 1.1//EN"
 "http://www.w3.org/Graphics/SVG/1.1/DTD/svg11.dtd">
<!-- Generated by graphviz version 2.26.3 (20100126.1600)
 -->
<!-- Title: thrill/common/ring_buffer.hpp Pages: 1 -->
<svg width="456pt" height="174pt"
 viewBox="0.00 0.00 456.00 174.00" xmlns="http://www.w3.org/2000/svg" xmlns:xlink="http://www.w3.org/1999/xlink">
<g id="graph1" class="graph" transform="scale(1 1) rotate(0) translate(4 170)">
<title>thrill/common/ring_buffer.hpp</title>
<!-- Node1 -->
<g id="node1" class="node"><title>Node1</title>
<polygon fill="#bfbfbf" stroke="black" points="138,-131 138,-165 232,-165 232,-131 138,-131"/>
<text text-anchor="start" x="146" y="-152" font-family="Helvetica,sans-Serif" font-size="10.00">thrill/common/ring</text>
<text text-anchor="middle" x="185" y="-139" font-family="Helvetica,sans-Serif" font-size="10.00">_buffer.hpp</text>
</g>
<!-- Node2 -->
<g id="node3" class="node"><title>Node2</title>
<a xlink:href="extlib_2tlx_2tlx_2ring__buffer_8hpp.html" target="_top" xlink:title="tlx/ring_buffer.hpp">
<polygon fill="none" stroke="black" points="137.5,-72.5 137.5,-93.5 232.5,-93.5 232.5,-72.5 137.5,-72.5"/>
<text text-anchor="middle" x="185" y="-80.5" font-family="Helvetica,sans-Serif" font-size="10.00">tlx/ring_buffer.hpp</text>
</a>
</g>
<!-- Node1&#45;&gt;Node2 -->
<g id="edge2" class="edge"><title>Node1&#45;&gt;Node2</title>
<path fill="none" stroke="midnightblue" d="M185,-130.922C185,-122.67 185,-112.692 185,-103.982"/>
<polygon fill="midnightblue" stroke="midnightblue" points="188.5,-103.852 185,-93.8521 181.5,-103.852 188.5,-103.852"/>
</g>
<!-- Node3 -->
<g id="node5" class="node"><title>Node3</title>
<polygon fill="none" stroke="#bfbfbf" points="-0.5,-7.5 -0.5,-28.5 48.5,-28.5 48.5,-7.5 -0.5,-7.5"/>
<text text-anchor="middle" x="24" y="-15.5" font-family="Helvetica,sans-Serif" font-size="10.00">cassert</text>
</g>
<!-- Node2&#45;&gt;Node3 -->
<g id="edge4" class="edge"><title>Node2&#45;&gt;Node3</title>
<path fill="none" stroke="midnightblue" d="M152.115,-72.4187C125.94,-63.6417 88.5867,-50.3194 57,-36 55.1723,-35.1714 53.3075,-34.2822 51.441,-33.3589"/>
<polygon fill="midnightblue" stroke="midnightblue" points="52.7434,-30.0911 42.2568,-28.5805 49.5125,-36.3009 52.7434,-30.0911"/>
</g>
<!-- Node4 -->
<g id="node7" class="node"><title>Node4</title>
<polygon fill="none" stroke="#bfbfbf" points="66,-7.5 66,-28.5 112,-28.5 112,-7.5 66,-7.5"/>
<text text-anchor="middle" x="89" y="-15.5" font-family="Helvetica,sans-Serif" font-size="10.00">cstdint</text>
</g>
<!-- Node2&#45;&gt;Node4 -->
<g id="edge6" class="edge"><title>Node2&#45;&gt;Node4</title>
<path fill="none" stroke="midnightblue" d="M169.148,-72.2666C153.91,-61.9494 130.673,-46.216 113.136,-34.3421"/>
<polygon fill="midnightblue" stroke="midnightblue" points="114.8,-31.2421 104.557,-28.5337 110.876,-37.0385 114.8,-31.2421"/>
</g>
<!-- Node5 -->
<g id="node9" class="node"><title>Node5</title>
<polygon fill="none" stroke="#bfbfbf" points="129.5,-7.5 129.5,-28.5 174.5,-28.5 174.5,-7.5 129.5,-7.5"/>
<text text-anchor="middle" x="152" y="-15.5" font-family="Helvetica,sans-Serif" font-size="10.00">cstdlib</text>
</g>
<!-- Node2&#45;&gt;Node5 -->
<g id="edge8" class="edge"><title>Node2&#45;&gt;Node5</title>
<path fill="none" stroke="midnightblue" d="M179.551,-72.2666C174.793,-62.8959 167.768,-49.0573 162.002,-37.7004"/>
<polygon fill="midnightblue" stroke="midnightblue" points="164.996,-35.8659 157.348,-28.5337 158.754,-39.0348 164.996,-35.8659"/>
</g>
<!-- Node6 -->
<g id="node11" class="node"><title>Node6</title>
<polygon fill="none" stroke="#bfbfbf" points="192,-7.5 192,-28.5 244,-28.5 244,-7.5 192,-7.5"/>
<text text-anchor="middle" x="218" y="-15.5" font-family="Helvetica,sans-Serif" font-size="10.00">memory</text>
</g>
<!-- Node2&#45;&gt;Node6 -->
<g id="edge10" class="edge"><title>Node2&#45;&gt;Node6</title>
<path fill="none" stroke="midnightblue" d="M190.449,-72.2666C195.207,-62.8959 202.232,-49.0573 207.998,-37.7004"/>
<polygon fill="midnightblue" stroke="midnightblue" points="211.246,-39.0348 212.652,-28.5337 205.004,-35.8659 211.246,-39.0348"/>
</g>
<!-- Node7 -->
<g id="node13" class="node"><title>Node7</title>
<polygon fill="none" stroke="#bfbfbf" points="262,-7.5 262,-28.5 306,-28.5 306,-7.5 262,-7.5"/>
<text text-anchor="middle" x="284" y="-15.5" font-family="Helvetica,sans-Serif" font-size="10.00">vector</text>
</g>
<!-- Node2&#45;&gt;Node7 -->
<g id="edge12" class="edge"><title>Node2&#45;&gt;Node7</title>
<path fill="none" stroke="midnightblue" d="M201.348,-72.2666C217.062,-61.9494 241.025,-46.216 259.11,-34.3421"/>
<polygon fill="midnightblue" stroke="midnightblue" points="261.518,-36.9479 267.956,-28.5337 257.676,-31.0964 261.518,-36.9479"/>
</g>
<!-- Node8 -->
<g id="node15" class="node"><title>Node8</title>
<a xlink:href="round__to__power__of__two_8hpp.html" target="_top" xlink:title="tlx/math/round_to_power\l_of_two.hpp">
<polygon fill="none" stroke="black" points="324,-1 324,-35 448,-35 448,-1 324,-1"/>
<text text-anchor="start" x="332" y="-22" font-family="Helvetica,sans-Serif" font-size="10.00">tlx/math/round_to_power</text>
<text text-anchor="middle" x="386" y="-9" font-family="Helvetica,sans-Serif" font-size="10.00">_of_two.hpp</text>
</a>
</g>
<!-- Node2&#45;&gt;Node8 -->
<g id="edge14" class="edge"><title>Node2&#45;&gt;Node8</title>
<path fill="none" stroke="midnightblue" d="M217.741,-72.412C246.314,-63.1721 288.564,-49.5092 323.578,-38.1863"/>
<polygon fill="midnightblue" stroke="midnightblue" points="324.806,-41.4676 333.244,-35.0604 322.652,-34.8072 324.806,-41.4676"/>
</g>
</g>
</svg>
