<?xml version="1.0" encoding="UTF-8" standalone="no"?>
<!DOCTYPE svg PUBLIC "-//W3C//DTD SVG 1.1//EN"
 "http://www.w3.org/Graphics/SVG/1.1/DTD/svg11.dtd">
<!-- Generated by graphviz version 2.36.0 (20140111.2315)
 -->
<!-- Title: thrill/common/logger.cpp Pages: 1 -->
<svg width="1958pt" height="400pt"
 viewBox="0.00 0.00 1957.99 400.00" xmlns="http://www.w3.org/2000/svg" xmlns:xlink="http://www.w3.org/1999/xlink">
<g id="graph0" class="graph" transform="scale(1 1) rotate(0) translate(4 396)">
<title>thrill/common/logger.cpp</title>
<!-- Node1 -->
<g id="node1" class="node"><title>Node1</title>
<polygon fill="#bfbfbf" stroke="black" points="1551.5,-372.5 1551.5,-391.5 1674.5,-391.5 1674.5,-372.5 1551.5,-372.5"/>
<text text-anchor="middle" x="1613" y="-379.5" font-family="Helvetica,sans-Serif" font-size="10.00">thrill/common/logger.cpp</text>
</g>
<!-- Node2 -->
<g id="node2" class="node"><title>Node2</title>
<g id="a_node2"><a xlink:href="thrill_2common_2logger_8hpp.html" target="_top" xlink:title="thrill/common/logger.hpp">
<polygon fill="none" stroke="black" points="799.5,-316.5 799.5,-335.5 922.5,-335.5 922.5,-316.5 799.5,-316.5"/>
<text text-anchor="middle" x="861" y="-323.5" font-family="Helvetica,sans-Serif" font-size="10.00">thrill/common/logger.hpp</text>
</a>
</g>
</g>
<!-- Node1&#45;&gt;Node2 -->
<g id="edge1" class="edge"><title>Node1&#45;&gt;Node2</title>
<path fill="none" stroke="midnightblue" d="M1551.46,-376.581C1413.5,-366.674 1080.05,-342.73 932.868,-332.161"/>
<polygon fill="midnightblue" stroke="midnightblue" points="932.823,-328.649 922.598,-331.423 932.322,-335.631 932.823,-328.649"/>
</g>
<!-- Node22 -->
<g id="node22" class="node"><title>Node22</title>
<polygon fill="none" stroke="#bfbfbf" points="83.5,-68.5 83.5,-87.5 124.5,-87.5 124.5,-68.5 83.5,-68.5"/>
<text text-anchor="middle" x="104" y="-75.5" font-family="Helvetica,sans-Serif" font-size="10.00">string</text>
</g>
<!-- Node1&#45;&gt;Node22 -->
<g id="edge80" class="edge"><title>Node1&#45;&gt;Node22</title>
<path fill="none" stroke="midnightblue" d="M1551.25,-379.852C1255.71,-373.962 0,-344.27 0,-265 0,-265 0,-265 0,-195 0,-148.182 47.5462,-111.643 78.3422,-92.8875"/>
<polygon fill="midnightblue" stroke="midnightblue" points="80.4309,-95.7203 87.2906,-87.6459 76.8929,-89.6802 80.4309,-95.7203"/>
</g>
<!-- Node25 -->
<g id="node25" class="node"><title>Node25</title>
<g id="a_node25"><a xlink:href="mem_2manager_8hpp.html" target="_top" xlink:title="thrill/mem/manager.hpp">
<polygon fill="none" stroke="black" points="1004.5,-124.5 1004.5,-143.5 1123.5,-143.5 1123.5,-124.5 1004.5,-124.5"/>
<text text-anchor="middle" x="1064" y="-131.5" font-family="Helvetica,sans-Serif" font-size="10.00">thrill/mem/manager.hpp</text>
</a>
</g>
</g>
<!-- Node1&#45;&gt;Node25 -->
<g id="edge74" class="edge"><title>Node1&#45;&gt;Node25</title>
<path fill="none" stroke="midnightblue" d="M1551.2,-381.365C1475.41,-380.067 1343.98,-372.107 1238,-336 1191.97,-320.318 1177.81,-314.951 1144,-280 1106.79,-241.536 1081.4,-182.347 1070.31,-152.907"/>
<polygon fill="midnightblue" stroke="midnightblue" points="1073.59,-151.695 1066.87,-143.501 1067.02,-154.095 1073.59,-151.695"/>
</g>
<!-- Node39 -->
<g id="node39" class="node"><title>Node39</title>
<polygon fill="none" stroke="#bfbfbf" points="1118,-186.5 1118,-205.5 1162,-205.5 1162,-186.5 1118,-186.5"/>
<text text-anchor="middle" x="1140" y="-193.5" font-family="Helvetica,sans-Serif" font-size="10.00">mutex</text>
</g>
<!-- Node1&#45;&gt;Node39 -->
<g id="edge79" class="edge"><title>Node1&#45;&gt;Node39</title>
<path fill="none" stroke="midnightblue" d="M1551.13,-374.635C1442.04,-362.211 1221.72,-331.362 1166,-280 1148.08,-263.48 1142.42,-234.795 1140.69,-215.853"/>
<polygon fill="midnightblue" stroke="midnightblue" points="1144.17,-215.512 1140.05,-205.753 1137.19,-215.954 1144.17,-215.512"/>
</g>
<!-- Node40 -->
<g id="node40" class="node"><title>Node40</title>
<polygon fill="none" stroke="#bfbfbf" points="1883,-124.5 1883,-143.5 1923,-143.5 1923,-124.5 1883,-124.5"/>
<text text-anchor="middle" x="1903" y="-131.5" font-family="Helvetica,sans-Serif" font-size="10.00">utility</text>
</g>
<!-- Node1&#45;&gt;Node40 -->
<g id="edge82" class="edge"><title>Node1&#45;&gt;Node40</title>
<path fill="none" stroke="midnightblue" d="M1608.06,-372.269C1601.05,-358.591 1590.48,-332.02 1604,-316 1665.35,-243.294 1724.86,-310.419 1815,-280 1876.78,-259.151 1911.23,-267.778 1945,-212 1952.37,-199.834 1950.22,-193.231 1945,-180 1940.49,-168.548 1931.53,-158.291 1923.05,-150.472"/>
<polygon fill="midnightblue" stroke="midnightblue" points="1925.09,-147.611 1915.21,-143.764 1920.53,-152.927 1925.09,-147.611"/>
</g>
<!-- Node45 -->
<g id="node45" class="node"><title>Node45</title>
<polygon fill="none" stroke="#bfbfbf" points="1612.5,-316.5 1612.5,-335.5 1671.5,-335.5 1671.5,-316.5 1612.5,-316.5"/>
<text text-anchor="middle" x="1642" y="-323.5" font-family="Helvetica,sans-Serif" font-size="10.00">functional</text>
</g>
<!-- Node1&#45;&gt;Node45 -->
<g id="edge75" class="edge"><title>Node1&#45;&gt;Node45</title>
<path fill="none" stroke="midnightblue" d="M1617.79,-372.083C1621.76,-364.691 1627.53,-353.953 1632.43,-344.811"/>
<polygon fill="midnightblue" stroke="midnightblue" points="1635.65,-346.217 1637.3,-335.751 1629.49,-342.905 1635.65,-346.217"/>
</g>
<!-- Node46 -->
<g id="node46" class="node"><title>Node46</title>
<polygon fill="none" stroke="#bfbfbf" points="1690,-316.5 1690,-335.5 1740,-335.5 1740,-316.5 1690,-316.5"/>
<text text-anchor="middle" x="1715" y="-323.5" font-family="Helvetica,sans-Serif" font-size="10.00">iomanip</text>
</g>
<!-- Node1&#45;&gt;Node46 -->
<g id="edge76" class="edge"><title>Node1&#45;&gt;Node46</title>
<path fill="none" stroke="midnightblue" d="M1629.39,-372.324C1645.67,-363.703 1670.87,-350.364 1689.72,-340.386"/>
<polygon fill="midnightblue" stroke="midnightblue" points="1691.45,-343.427 1698.65,-335.655 1688.18,-337.24 1691.45,-343.427"/>
</g>
<!-- Node47 -->
<g id="node47" class="node"><title>Node47</title>
<polygon fill="none" stroke="#bfbfbf" points="1758,-316.5 1758,-335.5 1812,-335.5 1812,-316.5 1758,-316.5"/>
<text text-anchor="middle" x="1785" y="-323.5" font-family="Helvetica,sans-Serif" font-size="10.00">iostream</text>
</g>
<!-- Node1&#45;&gt;Node47 -->
<g id="edge77" class="edge"><title>Node1&#45;&gt;Node47</title>
<path fill="none" stroke="midnightblue" d="M1640.25,-372.444C1669.44,-363.28 1715.92,-348.688 1748.31,-338.519"/>
<polygon fill="midnightblue" stroke="midnightblue" points="1749.38,-341.851 1757.87,-335.516 1747.28,-335.173 1749.38,-341.851"/>
</g>
<!-- Node48 -->
<g id="node48" class="node"><title>Node48</title>
<polygon fill="none" stroke="#bfbfbf" points="1830.5,-316.5 1830.5,-335.5 1865.5,-335.5 1865.5,-316.5 1830.5,-316.5"/>
<text text-anchor="middle" x="1848" y="-323.5" font-family="Helvetica,sans-Serif" font-size="10.00">map</text>
</g>
<!-- Node1&#45;&gt;Node48 -->
<g id="edge78" class="edge"><title>Node1&#45;&gt;Node48</title>
<path fill="none" stroke="midnightblue" d="M1659.61,-372.421C1699.85,-364.679 1759.67,-352.365 1820.58,-335.867"/>
<polygon fill="midnightblue" stroke="midnightblue" points="1821.65,-339.205 1830.37,-333.184 1819.8,-332.454 1821.65,-339.205"/>
</g>
<!-- Node49 -->
<g id="node49" class="node"><title>Node49</title>
<polygon fill="none" stroke="#bfbfbf" points="1884,-316.5 1884,-335.5 1928,-335.5 1928,-316.5 1884,-316.5"/>
<text text-anchor="middle" x="1906" y="-323.5" font-family="Helvetica,sans-Serif" font-size="10.00">thread</text>
</g>
<!-- Node1&#45;&gt;Node49 -->
<g id="edge81" class="edge"><title>Node1&#45;&gt;Node49</title>
<path fill="none" stroke="midnightblue" d="M1672.95,-372.467C1723.8,-364.821 1798.82,-352.579 1873.62,-335.869"/>
<polygon fill="midnightblue" stroke="midnightblue" points="1874.71,-339.211 1883.7,-333.591 1873.17,-332.383 1874.71,-339.211"/>
</g>
<!-- Node3 -->
<g id="node3" class="node"><title>Node3</title>
<g id="a_node3"><a xlink:href="allocator_8hpp.html" target="_top" xlink:title="thrill/mem/allocator.hpp">
<polygon fill="none" stroke="black" points="740,-254.5 740,-273.5 858,-273.5 858,-254.5 740,-254.5"/>
<text text-anchor="middle" x="799" y="-261.5" font-family="Helvetica,sans-Serif" font-size="10.00">thrill/mem/allocator.hpp</text>
</a>
</g>
</g>
<!-- Node2&#45;&gt;Node3 -->
<g id="edge2" class="edge"><title>Node2&#45;&gt;Node3</title>
<path fill="none" stroke="midnightblue" d="M852.117,-316.403C842.541,-307.136 827.089,-292.183 815.314,-280.788"/>
<polygon fill="midnightblue" stroke="midnightblue" points="817.487,-278.02 807.867,-273.581 812.619,-283.05 817.487,-278.02"/>
</g>
<!-- Node16 -->
<g id="node16" class="node"><title>Node16</title>
<polygon fill="none" stroke="#bfbfbf" points="349,-68.5 349,-87.5 387,-87.5 387,-68.5 349,-68.5"/>
<text text-anchor="middle" x="368" y="-75.5" font-family="Helvetica,sans-Serif" font-size="10.00">array</text>
</g>
<!-- Node2&#45;&gt;Node16 -->
<g id="edge68" class="edge"><title>Node2&#45;&gt;Node16</title>
<path fill="none" stroke="midnightblue" d="M825.934,-316.461C760.598,-300.015 616.402,-261.183 501,-212 443.178,-187.357 412.666,-195.755 377,-144 367.808,-130.662 366.051,-112.088 366.305,-98.2098"/>
<polygon fill="midnightblue" stroke="midnightblue" points="369.819,-98.0509 366.872,-87.874 362.829,-97.6671 369.819,-98.0509"/>
</g>
<!-- Node21 -->
<g id="node21" class="node"><title>Node21</title>
<polygon fill="none" stroke="#bfbfbf" points="171,-68.5 171,-87.5 223,-87.5 223,-68.5 171,-68.5"/>
<text text-anchor="middle" x="197" y="-75.5" font-family="Helvetica,sans-Serif" font-size="10.00">sstream</text>
</g>
<!-- Node2&#45;&gt;Node21 -->
<g id="edge69" class="edge"><title>Node2&#45;&gt;Node21</title>
<path fill="none" stroke="midnightblue" d="M799.208,-322.675C684.093,-317.811 441.224,-304.893 361,-280 302.083,-261.718 279.064,-259.743 240,-212 212.177,-177.995 202.201,-125.564 198.744,-97.7792"/>
<polygon fill="midnightblue" stroke="midnightblue" points="202.221,-97.3727 197.657,-87.8111 195.262,-98.1316 202.221,-97.3727"/>
</g>
<!-- Node2&#45;&gt;Node22 -->
<g id="edge70" class="edge"><title>Node2&#45;&gt;Node22</title>
<path fill="none" stroke="midnightblue" d="M799.108,-325.186C668.137,-324.786 367.318,-319.45 274,-280 189.893,-244.444 167.29,-222.114 120,-144 111.442,-129.864 107.455,-111.379 105.601,-97.7368"/>
<polygon fill="midnightblue" stroke="midnightblue" points="109.061,-97.1772 104.492,-87.6181 102.102,-97.9399 109.061,-97.1772"/>
</g>
<!-- Node23 -->
<g id="node23" class="node"><title>Node23</title>
<polygon fill="none" stroke="#bfbfbf" points="287,-68.5 287,-87.5 331,-87.5 331,-68.5 287,-68.5"/>
<text text-anchor="middle" x="309" y="-75.5" font-family="Helvetica,sans-Serif" font-size="10.00">vector</text>
</g>
<!-- Node2&#45;&gt;Node23 -->
<g id="edge73" class="edge"><title>Node2&#45;&gt;Node23</title>
<path fill="none" stroke="midnightblue" d="M799.431,-319.758C667.02,-307.437 360.491,-272.981 278,-212 243.742,-186.675 219.709,-161.459 240,-124 248.102,-109.042 263.571,-98.2698 277.812,-91.0221"/>
<polygon fill="midnightblue" stroke="midnightblue" points="279.335,-94.1738 286.904,-86.7598 276.363,-87.8358 279.335,-94.1738"/>
</g>
<!-- Node36 -->
<g id="node36" class="node"><title>Node36</title>
<g id="a_node36"><a xlink:href="pool_8hpp.html" target="_top" xlink:title="thrill/mem/pool.hpp">
<polygon fill="none" stroke="black" points="1175.5,-254.5 1175.5,-273.5 1274.5,-273.5 1274.5,-254.5 1175.5,-254.5"/>
<text text-anchor="middle" x="1225" y="-261.5" font-family="Helvetica,sans-Serif" font-size="10.00">thrill/mem/pool.hpp</text>
</a>
</g>
</g>
<!-- Node2&#45;&gt;Node36 -->
<g id="edge50" class="edge"><title>Node2&#45;&gt;Node36</title>
<path fill="none" stroke="midnightblue" d="M912.766,-316.467C979.459,-305.474 1095.15,-286.404 1165.43,-274.82"/>
<polygon fill="midnightblue" stroke="midnightblue" points="1166.16,-278.247 1175.46,-273.167 1165.02,-271.34 1166.16,-278.247"/>
</g>
<!-- Node2&#45;&gt;Node40 -->
<g id="edge72" class="edge"><title>Node2&#45;&gt;Node40</title>
<path fill="none" stroke="midnightblue" d="M922.574,-323.732C1091.46,-319.936 1559.46,-307.205 1711,-280 1810.9,-262.067 1868.86,-293.756 1929,-212 1942.26,-193.971 1929.11,-168.721 1917.18,-152.121"/>
<polygon fill="midnightblue" stroke="midnightblue" points="1919.72,-149.687 1910.86,-143.889 1914.17,-153.952 1919.72,-149.687"/>
</g>
<!-- Node41 -->
<g id="node41" class="node"><title>Node41</title>
<g id="a_node41"><a xlink:href="call__foreach__tuple_8hpp.html" target="_top" xlink:title="tlx/meta/call_foreach\l_tuple.hpp">
<polygon fill="none" stroke="black" points="1595.5,-249 1595.5,-279 1702.5,-279 1702.5,-249 1595.5,-249"/>
<text text-anchor="start" x="1603.5" y="-267" font-family="Helvetica,sans-Serif" font-size="10.00">tlx/meta/call_foreach</text>
<text text-anchor="middle" x="1649" y="-256" font-family="Helvetica,sans-Serif" font-size="10.00">_tuple.hpp</text>
</a>
</g>
</g>
<!-- Node2&#45;&gt;Node41 -->
<g id="edge62" class="edge"><title>Node2&#45;&gt;Node41</title>
<path fill="none" stroke="midnightblue" d="M922.694,-320.702C1033.1,-312.957 1271.75,-295.975 1473,-280 1510.26,-277.042 1551.94,-273.501 1585.38,-270.601"/>
<polygon fill="midnightblue" stroke="midnightblue" points="1585.82,-274.076 1595.48,-269.724 1585.22,-267.103 1585.82,-274.076"/>
</g>
<!-- Node42 -->
<g id="node42" class="node"><title>Node42</title>
<polygon fill="none" stroke="#bfbfbf" points="1576,-186.5 1576,-205.5 1614,-205.5 1614,-186.5 1576,-186.5"/>
<text text-anchor="middle" x="1595" y="-193.5" font-family="Helvetica,sans-Serif" font-size="10.00">tuple</text>
</g>
<!-- Node2&#45;&gt;Node42 -->
<g id="edge71" class="edge"><title>Node2&#45;&gt;Node42</title>
<path fill="none" stroke="midnightblue" d="M922.511,-321.045C1005,-315.149 1155.82,-302.288 1283,-280 1407.86,-258.119 1439.78,-252.214 1560,-212 1562.41,-211.193 1564.89,-210.289 1567.36,-209.336"/>
<polygon fill="midnightblue" stroke="midnightblue" points="1568.76,-212.545 1576.69,-205.517 1566.11,-206.067 1568.76,-212.545"/>
</g>
<!-- Node4 -->
<g id="node4" class="node"><title>Node4</title>
<g id="a_node4"><a xlink:href="thrill_2mem_2allocator__base_8hpp.html" target="_top" xlink:title="thrill/mem/allocator\l_base.hpp">
<polygon fill="none" stroke="black" points="749.5,-181 749.5,-211 848.5,-211 848.5,-181 749.5,-181"/>
<text text-anchor="start" x="757.5" y="-199" font-family="Helvetica,sans-Serif" font-size="10.00">thrill/mem/allocator</text>
<text text-anchor="middle" x="799" y="-188" font-family="Helvetica,sans-Serif" font-size="10.00">_base.hpp</text>
</a>
</g>
</g>
<!-- Node3&#45;&gt;Node4 -->
<g id="edge3" class="edge"><title>Node3&#45;&gt;Node4</title>
<path fill="none" stroke="midnightblue" d="M799,-254.372C799,-245.971 799,-232.811 799,-221.213"/>
<polygon fill="midnightblue" stroke="midnightblue" points="802.5,-221.181 799,-211.181 795.5,-221.181 802.5,-221.181"/>
</g>
<!-- Node3&#45;&gt;Node22 -->
<g id="edge47" class="edge"><title>Node3&#45;&gt;Node22</title>
<path fill="none" stroke="midnightblue" d="M739.934,-263.937C642.008,-264.014 440.698,-257.881 278,-212 211.423,-193.225 187.636,-192.179 138,-144 124.601,-130.994 115.397,-111.564 109.978,-97.3343"/>
<polygon fill="midnightblue" stroke="midnightblue" points="113.193,-95.9257 106.565,-87.6596 106.591,-98.2544 113.193,-95.9257"/>
</g>
<!-- Node3&#45;&gt;Node23 -->
<g id="edge49" class="edge"><title>Node3&#45;&gt;Node23</title>
<path fill="none" stroke="midnightblue" d="M739.989,-261.02C660.642,-257.122 515.796,-245.635 397,-212 326.571,-192.06 286.659,-205.522 247,-144 234.062,-123.929 258.783,-104.613 280.742,-92.3301"/>
<polygon fill="midnightblue" stroke="midnightblue" points="282.656,-95.2777 289.866,-87.5148 279.388,-89.087 282.656,-95.2777"/>
</g>
<!-- Node3&#45;&gt;Node25 -->
<g id="edge41" class="edge"><title>Node3&#45;&gt;Node25</title>
<path fill="none" stroke="midnightblue" d="M833.513,-254.482C865.257,-245.961 913.151,-231.345 952,-212 956.83,-209.595 1011.95,-171.305 1043.02,-149.647"/>
<polygon fill="midnightblue" stroke="midnightblue" points="1045.25,-152.361 1051.45,-143.769 1041.24,-146.62 1045.25,-152.361"/>
</g>
<!-- Node28 -->
<g id="node28" class="node"><title>Node28</title>
<polygon fill="none" stroke="#bfbfbf" points="913.5,-68.5 913.5,-87.5 962.5,-87.5 962.5,-68.5 913.5,-68.5"/>
<text text-anchor="middle" x="938" y="-75.5" font-family="Helvetica,sans-Serif" font-size="10.00">cassert</text>
</g>
<!-- Node3&#45;&gt;Node28 -->
<g id="edge42" class="edge"><title>Node3&#45;&gt;Node28</title>
<path fill="none" stroke="midnightblue" d="M810.393,-254.311C822.632,-244.686 842.301,-228.356 857,-212 881.727,-184.485 885.91,-175.687 905,-144 914.276,-128.603 923.417,-110.283 929.718,-97.0228"/>
<polygon fill="midnightblue" stroke="midnightblue" points="933.046,-98.1669 934.11,-87.6255 926.705,-95.2028 933.046,-98.1669"/>
</g>
<!-- Node31 -->
<g id="node31" class="node"><title>Node31</title>
<polygon fill="none" stroke="#bfbfbf" points="1202,-68.5 1202,-87.5 1254,-87.5 1254,-68.5 1202,-68.5"/>
<text text-anchor="middle" x="1228" y="-75.5" font-family="Helvetica,sans-Serif" font-size="10.00">memory</text>
</g>
<!-- Node3&#45;&gt;Node31 -->
<g id="edge45" class="edge"><title>Node3&#45;&gt;Node31</title>
<path fill="none" stroke="midnightblue" d="M839.322,-254.42C878.241,-245.617 938.526,-230.6 989,-212 1055.03,-187.666 1070.91,-178.939 1132,-144 1159.45,-128.3 1189.37,-107.387 1208.38,-93.5744"/>
<polygon fill="midnightblue" stroke="midnightblue" points="1210.55,-96.3284 1216.54,-87.5948 1206.41,-90.6818 1210.55,-96.3284"/>
</g>
<!-- Node32 -->
<g id="node32" class="node"><title>Node32</title>
<polygon fill="none" stroke="#bfbfbf" points="1384,-68.5 1384,-87.5 1446,-87.5 1446,-68.5 1384,-68.5"/>
<text text-anchor="middle" x="1415" y="-75.5" font-family="Helvetica,sans-Serif" font-size="10.00">type_traits</text>
</g>
<!-- Node3&#45;&gt;Node32 -->
<g id="edge48" class="edge"><title>Node3&#45;&gt;Node32</title>
<path fill="none" stroke="midnightblue" d="M858.23,-254.627C908.093,-246.623 980.852,-232.687 1042,-212 1073.26,-201.425 1077.33,-189.257 1109,-180 1171.54,-161.722 1351.6,-187.625 1400,-144 1412.75,-132.508 1415.76,-112.534 1416.04,-97.7521"/>
<polygon fill="midnightblue" stroke="midnightblue" points="1419.54,-97.6137 1415.84,-87.6871 1412.54,-97.7563 1419.54,-97.6137"/>
</g>
<!-- Node33 -->
<g id="node33" class="node"><title>Node33</title>
<polygon fill="none" stroke="#bfbfbf" points="386.5,-124.5 386.5,-143.5 429.5,-143.5 429.5,-124.5 386.5,-124.5"/>
<text text-anchor="middle" x="408" y="-131.5" font-family="Helvetica,sans-Serif" font-size="10.00">deque</text>
</g>
<!-- Node3&#45;&gt;Node33 -->
<g id="edge43" class="edge"><title>Node3&#45;&gt;Node33</title>
<path fill="none" stroke="midnightblue" d="M751.306,-254.442C706.86,-245.847 639.053,-231.143 582,-212 527.842,-193.828 467.454,-165.071 433.966,-148.321"/>
<polygon fill="midnightblue" stroke="midnightblue" points="435.372,-145.111 424.867,-143.734 432.221,-151.361 435.372,-145.111"/>
</g>
<!-- Node34 -->
<g id="node34" class="node"><title>Node34</title>
<polygon fill="none" stroke="#bfbfbf" points="447.5,-124.5 447.5,-143.5 492.5,-143.5 492.5,-124.5 447.5,-124.5"/>
<text text-anchor="middle" x="470" y="-131.5" font-family="Helvetica,sans-Serif" font-size="10.00">iosfwd</text>
</g>
<!-- Node3&#45;&gt;Node34 -->
<g id="edge44" class="edge"><title>Node3&#45;&gt;Node34</title>
<path fill="none" stroke="midnightblue" d="M776.903,-254.403C719.894,-232.223 567.7,-173.011 501.493,-147.253"/>
<polygon fill="midnightblue" stroke="midnightblue" points="502.59,-143.924 492.001,-143.56 500.052,-150.448 502.59,-143.924"/>
</g>
<!-- Node35 -->
<g id="node35" class="node"><title>Node35</title>
<polygon fill="none" stroke="#bfbfbf" points="256.5,-124.5 256.5,-143.5 291.5,-143.5 291.5,-124.5 256.5,-124.5"/>
<text text-anchor="middle" x="274" y="-131.5" font-family="Helvetica,sans-Serif" font-size="10.00">new</text>
</g>
<!-- Node3&#45;&gt;Node35 -->
<g id="edge46" class="edge"><title>Node3&#45;&gt;Node35</title>
<path fill="none" stroke="midnightblue" d="M739.904,-255.684C679.362,-247.537 582.788,-232.733 501,-212 427.398,-193.343 343.402,-162.167 301.216,-145.794"/>
<polygon fill="midnightblue" stroke="midnightblue" points="302.251,-142.441 291.663,-142.061 299.703,-148.961 302.251,-142.441"/>
</g>
<!-- Node5 -->
<g id="node5" class="node"><title>Node5</title>
<g id="a_node5"><a xlink:href="thrill_2common_2string_8hpp.html" target="_top" xlink:title="thrill/common/string.hpp">
<polygon fill="none" stroke="black" points="587.5,-124.5 587.5,-143.5 708.5,-143.5 708.5,-124.5 587.5,-124.5"/>
<text text-anchor="middle" x="648" y="-131.5" font-family="Helvetica,sans-Serif" font-size="10.00">thrill/common/string.hpp</text>
</a>
</g>
</g>
<!-- Node4&#45;&gt;Node5 -->
<g id="edge4" class="edge"><title>Node4&#45;&gt;Node5</title>
<path fill="none" stroke="midnightblue" d="M763.597,-180.933C738.008,-170.765 703.762,-157.157 679.197,-147.396"/>
<polygon fill="midnightblue" stroke="midnightblue" points="680.229,-144.04 669.643,-143.6 677.644,-150.545 680.229,-144.04"/>
</g>
<!-- Node4&#45;&gt;Node22 -->
<g id="edge38" class="edge"><title>Node4&#45;&gt;Node22</title>
<path fill="none" stroke="midnightblue" d="M749.461,-190.514C695.357,-184.461 606.833,-171.143 535,-144 518.6,-137.803 517.648,-129.494 501,-124 357.119,-76.517 312.238,-107.622 162,-88 153.067,-86.8333 143.387,-85.3991 134.541,-84.0213"/>
<polygon fill="midnightblue" stroke="midnightblue" points="135.06,-80.5599 124.635,-82.4492 133.963,-87.4734 135.06,-80.5599"/>
</g>
<!-- Node4&#45;&gt;Node23 -->
<g id="edge40" class="edge"><title>Node4&#45;&gt;Node23</title>
<path fill="none" stroke="midnightblue" d="M749.458,-186.632C704.117,-178.257 635.533,-163.776 578,-144 558.067,-137.149 555.079,-130.409 535,-124 454.075,-98.1707 427.662,-107.558 341.257,-88.0737"/>
<polygon fill="midnightblue" stroke="midnightblue" points="341.813,-84.6098 331.28,-85.7574 340.23,-91.4284 341.813,-84.6098"/>
</g>
<!-- Node24 -->
<g id="node24" class="node"><title>Node24</title>
<g id="a_node24"><a xlink:href="malloc__tracker_8hpp.html" target="_top" xlink:title="thrill/mem/malloc_tracker.hpp">
<polygon fill="none" stroke="black" points="726.5,-124.5 726.5,-143.5 871.5,-143.5 871.5,-124.5 726.5,-124.5"/>
<text text-anchor="middle" x="799" y="-131.5" font-family="Helvetica,sans-Serif" font-size="10.00">thrill/mem/malloc_tracker.hpp</text>
</a>
</g>
</g>
<!-- Node4&#45;&gt;Node24 -->
<g id="edge23" class="edge"><title>Node4&#45;&gt;Node24</title>
<path fill="none" stroke="midnightblue" d="M799,-180.781C799,-172.781 799,-162.689 799,-154.017"/>
<polygon fill="midnightblue" stroke="midnightblue" points="802.5,-153.73 799,-143.731 795.5,-153.731 802.5,-153.73"/>
</g>
<!-- Node4&#45;&gt;Node25 -->
<g id="edge25" class="edge"><title>Node4&#45;&gt;Node25</title>
<path fill="none" stroke="midnightblue" d="M848.534,-183.785C896.544,-172.915 968.872,-156.538 1016.26,-145.808"/>
<polygon fill="midnightblue" stroke="midnightblue" points="1017.29,-149.164 1026.27,-143.542 1015.75,-142.337 1017.29,-149.164"/>
</g>
<!-- Node27 -->
<g id="node27" class="node"><title>Node27</title>
<polygon fill="none" stroke="#bfbfbf" points="1011,-68.5 1011,-87.5 1057,-87.5 1057,-68.5 1011,-68.5"/>
<text text-anchor="middle" x="1034" y="-75.5" font-family="Helvetica,sans-Serif" font-size="10.00">atomic</text>
</g>
<!-- Node4&#45;&gt;Node27 -->
<g id="edge33" class="edge"><title>Node4&#45;&gt;Node27</title>
<path fill="none" stroke="midnightblue" d="M828.77,-180.856C850.054,-170.7 879.351,-156.631 905,-144 940.909,-126.316 982.186,-105.417 1008.18,-92.1849"/>
<polygon fill="midnightblue" stroke="midnightblue" points="1010.03,-95.1706 1017.35,-87.5119 1006.85,-88.9336 1010.03,-95.1706"/>
</g>
<!-- Node4&#45;&gt;Node28 -->
<g id="edge34" class="edge"><title>Node4&#45;&gt;Node28</title>
<path fill="none" stroke="midnightblue" d="M825.442,-180.878C841.922,-171.481 863.125,-158.273 880,-144 897.24,-129.418 914.098,-109.737 925.156,-95.8636"/>
<polygon fill="midnightblue" stroke="midnightblue" points="928.136,-97.7339 931.531,-87.6977 922.618,-93.4263 928.136,-97.7339"/>
</g>
<!-- Node29 -->
<g id="node29" class="node"><title>Node29</title>
<g id="a_node29"><a xlink:href="extlib_2tlx_2tlx_2allocator__base_8hpp.html" target="_top" xlink:title="tlx/allocator_base.hpp">
<polygon fill="none" stroke="black" points="1256,-124.5 1256,-143.5 1368,-143.5 1368,-124.5 1256,-124.5"/>
<text text-anchor="middle" x="1312" y="-131.5" font-family="Helvetica,sans-Serif" font-size="10.00">tlx/allocator_base.hpp</text>
</a>
</g>
</g>
<!-- Node4&#45;&gt;Node29 -->
<g id="edge29" class="edge"><title>Node4&#45;&gt;Node29</title>
<path fill="none" stroke="midnightblue" d="M848.655,-189.192C941.492,-178.334 1141.37,-154.956 1245.65,-142.761"/>
<polygon fill="midnightblue" stroke="midnightblue" points="1246.21,-146.219 1255.74,-141.58 1245.4,-139.266 1246.21,-146.219"/>
</g>
<!-- Node4&#45;&gt;Node32 -->
<g id="edge39" class="edge"><title>Node4&#45;&gt;Node32</title>
<path fill="none" stroke="midnightblue" d="M848.928,-191.82C985.012,-182.99 1353.78,-157.906 1376,-144 1392.88,-133.437 1403.43,-112.659 1409.23,-97.4285"/>
<polygon fill="midnightblue" stroke="midnightblue" points="1412.69,-98.1383 1412.65,-87.5436 1406.07,-95.8537 1412.69,-98.1383"/>
</g>
<!-- Node4&#45;&gt;Node33 -->
<g id="edge35" class="edge"><title>Node4&#45;&gt;Node33</title>
<path fill="none" stroke="midnightblue" d="M749.237,-190.374C681.205,-183.521 555.286,-168.958 439.614,-144.084"/>
<polygon fill="midnightblue" stroke="midnightblue" points="440.044,-140.596 429.528,-141.883 438.552,-147.435 440.044,-140.596"/>
</g>
<!-- Node4&#45;&gt;Node34 -->
<g id="edge36" class="edge"><title>Node4&#45;&gt;Node34</title>
<path fill="none" stroke="midnightblue" d="M749.471,-187.367C691.234,-178.157 591.758,-161.69 507,-144 505.544,-143.696 504.058,-143.376 502.559,-143.045"/>
<polygon fill="midnightblue" stroke="midnightblue" points="503.176,-139.596 492.645,-140.758 501.602,-146.416 503.176,-139.596"/>
</g>
<!-- Node4&#45;&gt;Node35 -->
<g id="edge37" class="edge"><title>Node4&#45;&gt;Node35</title>
<path fill="none" stroke="midnightblue" d="M749.136,-189.301C640.755,-176.915 386.66,-147.875 302.001,-138.2"/>
<polygon fill="midnightblue" stroke="midnightblue" points="302.204,-134.701 291.871,-137.042 301.409,-141.655 302.204,-134.701"/>
</g>
<!-- Node6 -->
<g id="node6" class="node"><title>Node6</title>
<g id="a_node6"><a xlink:href="define_8hpp.html" target="_top" xlink:title="tlx/define.hpp">
<polygon fill="none" stroke="black" points="571.5,-68.5 571.5,-87.5 646.5,-87.5 646.5,-68.5 571.5,-68.5"/>
<text text-anchor="middle" x="609" y="-75.5" font-family="Helvetica,sans-Serif" font-size="10.00">tlx/define.hpp</text>
</a>
</g>
</g>
<!-- Node5&#45;&gt;Node6 -->
<g id="edge5" class="edge"><title>Node5&#45;&gt;Node6</title>
<path fill="none" stroke="midnightblue" d="M641.56,-124.083C636.051,-116.455 627.969,-105.264 621.235,-95.9408"/>
<polygon fill="midnightblue" stroke="midnightblue" points="624.013,-93.8087 615.32,-87.7511 618.338,-97.9071 624.013,-93.8087"/>
</g>
<!-- Node15 -->
<g id="node15" class="node"><title>Node15</title>
<g id="a_node15"><a xlink:href="unused_8hpp.html" target="_top" xlink:title="tlx/unused.hpp">
<polygon fill="none" stroke="black" points="473,-68.5 473,-87.5 553,-87.5 553,-68.5 473,-68.5"/>
<text text-anchor="middle" x="513" y="-75.5" font-family="Helvetica,sans-Serif" font-size="10.00">tlx/unused.hpp</text>
</a>
</g>
</g>
<!-- Node5&#45;&gt;Node15 -->
<g id="edge14" class="edge"><title>Node5&#45;&gt;Node15</title>
<path fill="none" stroke="midnightblue" d="M626.609,-124.444C604.293,-115.517 569.097,-101.439 543.792,-91.3168"/>
<polygon fill="midnightblue" stroke="midnightblue" points="544.876,-87.9807 534.291,-87.5164 542.276,-94.4801 544.876,-87.9807"/>
</g>
<!-- Node5&#45;&gt;Node16 -->
<g id="edge15" class="edge"><title>Node5&#45;&gt;Node16</title>
<path fill="none" stroke="midnightblue" d="M587.438,-124.522C538.396,-117.126 467.416,-105.225 397.098,-88.0053"/>
<polygon fill="midnightblue" stroke="midnightblue" points="397.731,-84.5563 387.182,-85.5402 396.042,-91.3496 397.731,-84.5563"/>
</g>
<!-- Node17 -->
<g id="node17" class="node"><title>Node17</title>
<polygon fill="none" stroke="#bfbfbf" points="664.5,-68.5 664.5,-87.5 713.5,-87.5 713.5,-68.5 664.5,-68.5"/>
<text text-anchor="middle" x="689" y="-75.5" font-family="Helvetica,sans-Serif" font-size="10.00">cstdarg</text>
</g>
<!-- Node5&#45;&gt;Node17 -->
<g id="edge16" class="edge"><title>Node5&#45;&gt;Node17</title>
<path fill="none" stroke="midnightblue" d="M654.77,-124.083C660.562,-116.455 669.058,-105.264 676.138,-95.9408"/>
<polygon fill="midnightblue" stroke="midnightblue" points="679.096,-97.8321 682.356,-87.7511 673.521,-93.5991 679.096,-97.8321"/>
</g>
<!-- Node18 -->
<g id="node18" class="node"><title>Node18</title>
<polygon fill="none" stroke="#bfbfbf" points="790.5,-68.5 790.5,-87.5 835.5,-87.5 835.5,-68.5 790.5,-68.5"/>
<text text-anchor="middle" x="813" y="-75.5" font-family="Helvetica,sans-Serif" font-size="10.00">cstdlib</text>
</g>
<!-- Node5&#45;&gt;Node18 -->
<g id="edge17" class="edge"><title>Node5&#45;&gt;Node18</title>
<path fill="none" stroke="midnightblue" d="M674.145,-124.444C703.089,-114.971 749.762,-99.6961 780.902,-89.5048"/>
<polygon fill="midnightblue" stroke="midnightblue" points="782.009,-92.8253 790.424,-86.3884 779.832,-86.1725 782.009,-92.8253"/>
</g>
<!-- Node19 -->
<g id="node19" class="node"><title>Node19</title>
<polygon fill="none" stroke="#bfbfbf" points="732,-68.5 732,-87.5 772,-87.5 772,-68.5 732,-68.5"/>
<text text-anchor="middle" x="752" y="-75.5" font-family="Helvetica,sans-Serif" font-size="10.00">limits</text>
</g>
<!-- Node5&#45;&gt;Node19 -->
<g id="edge18" class="edge"><title>Node5&#45;&gt;Node19</title>
<path fill="none" stroke="midnightblue" d="M664.709,-124.324C681.312,-115.703 707.002,-102.364 726.22,-92.3855"/>
<polygon fill="midnightblue" stroke="midnightblue" points="728.07,-95.3689 735.332,-87.6545 724.844,-89.1565 728.07,-95.3689"/>
</g>
<!-- Node20 -->
<g id="node20" class="node"><title>Node20</title>
<polygon fill="none" stroke="#bfbfbf" points="405.5,-68.5 405.5,-87.5 454.5,-87.5 454.5,-68.5 405.5,-68.5"/>
<text text-anchor="middle" x="430" y="-75.5" font-family="Helvetica,sans-Serif" font-size="10.00">random</text>
</g>
<!-- Node5&#45;&gt;Node20 -->
<g id="edge19" class="edge"><title>Node5&#45;&gt;Node20</title>
<path fill="none" stroke="midnightblue" d="M612.333,-124.488C577.257,-116.071 521.937,-102.672 464.799,-88.1682"/>
<polygon fill="midnightblue" stroke="midnightblue" points="465.423,-84.7153 454.868,-85.6408 463.696,-91.4991 465.423,-84.7153"/>
</g>
<!-- Node5&#45;&gt;Node21 -->
<g id="edge20" class="edge"><title>Node5&#45;&gt;Node21</title>
<path fill="none" stroke="midnightblue" d="M587.176,-125.717C491.992,-114.321 310.737,-92.6182 233.417,-83.3604"/>
<polygon fill="midnightblue" stroke="midnightblue" points="233.562,-79.8527 223.216,-82.139 232.729,-86.8031 233.562,-79.8527"/>
</g>
<!-- Node5&#45;&gt;Node22 -->
<g id="edge21" class="edge"><title>Node5&#45;&gt;Node22</title>
<path fill="none" stroke="midnightblue" d="M587.199,-127.842C475.74,-118.308 242.731,-97.9915 162,-88 153.06,-86.8935 143.377,-85.4779 134.531,-84.0987"/>
<polygon fill="midnightblue" stroke="midnightblue" points="135.053,-80.6377 124.626,-82.517 133.949,-87.5501 135.053,-80.6377"/>
</g>
<!-- Node5&#45;&gt;Node23 -->
<g id="edge22" class="edge"><title>Node5&#45;&gt;Node23</title>
<path fill="none" stroke="midnightblue" d="M587.256,-125.134C515.659,-115.697 399.934,-99.8837 341.199,-87.9619"/>
<polygon fill="midnightblue" stroke="midnightblue" points="341.765,-84.5044 331.257,-85.8588 340.316,-91.3528 341.765,-84.5044"/>
</g>
<!-- Node7 -->
<g id="node7" class="node"><title>Node7</title>
<g id="a_node7"><a xlink:href="attribute__always__inline_8hpp.html" target="_top" xlink:title="tlx/define/attribute\l_always_inline.hpp">
<polygon fill="none" stroke="black" points="153.5,-1 153.5,-31 252.5,-31 252.5,-1 153.5,-1"/>
<text text-anchor="start" x="161.5" y="-19" font-family="Helvetica,sans-Serif" font-size="10.00">tlx/define/attribute</text>
<text text-anchor="middle" x="203" y="-8" font-family="Helvetica,sans-Serif" font-size="10.00">_always_inline.hpp</text>
</a>
</g>
</g>
<!-- Node6&#45;&gt;Node7 -->
<g id="edge6" class="edge"><title>Node6&#45;&gt;Node7</title>
<path fill="none" stroke="midnightblue" d="M571.33,-69.5457C568.179,-68.9954 565.038,-68.4719 562,-68 432.116,-47.8226 395.196,-56.4722 262.705,-32.1746"/>
<polygon fill="midnightblue" stroke="midnightblue" points="263.048,-28.6783 252.576,-30.2876 261.766,-35.5599 263.048,-28.6783"/>
</g>
<!-- Node8 -->
<g id="node8" class="node"><title>Node8</title>
<g id="a_node8"><a xlink:href="attribute__fallthrough_8hpp.html" target="_top" xlink:title="tlx/define/attribute\l_fallthrough.hpp">
<polygon fill="none" stroke="black" points="270.5,-1 270.5,-31 365.5,-31 365.5,-1 270.5,-1"/>
<text text-anchor="start" x="278.5" y="-19" font-family="Helvetica,sans-Serif" font-size="10.00">tlx/define/attribute</text>
<text text-anchor="middle" x="318" y="-8" font-family="Helvetica,sans-Serif" font-size="10.00">_fallthrough.hpp</text>
</a>
</g>
</g>
<!-- Node6&#45;&gt;Node8 -->
<g id="edge7" class="edge"><title>Node6&#45;&gt;Node8</title>
<path fill="none" stroke="midnightblue" d="M571.36,-69.7968C514.177,-58.8531 409.091,-38.7394 375.632,-32.0694"/>
<polygon fill="midnightblue" stroke="midnightblue" points="376.101,-28.5924 365.6,-30.0017 374.688,-35.4483 376.101,-28.5924"/>
</g>
<!-- Node9 -->
<g id="node9" class="node"><title>Node9</title>
<g id="a_node9"><a xlink:href="attribute__format__printf_8hpp.html" target="_top" xlink:title="tlx/define/attribute\l_format_printf.hpp">
<polygon fill="none" stroke="black" points="383.5,-1 383.5,-31 478.5,-31 478.5,-1 383.5,-1"/>
<text text-anchor="start" x="391.5" y="-19" font-family="Helvetica,sans-Serif" font-size="10.00">tlx/define/attribute</text>
<text text-anchor="middle" x="431" y="-8" font-family="Helvetica,sans-Serif" font-size="10.00">_format_printf.hpp</text>
</a>
</g>
</g>
<!-- Node6&#45;&gt;Node9 -->
<g id="edge8" class="edge"><title>Node6&#45;&gt;Node9</title>
<path fill="none" stroke="midnightblue" d="M583.497,-68.4035C557.161,-59.5263 515.348,-45.4321 482.161,-34.2453"/>
<polygon fill="midnightblue" stroke="midnightblue" points="483.203,-30.9029 472.608,-31.0253 480.967,-37.5362 483.203,-30.9029"/>
</g>
<!-- Node10 -->
<g id="node10" class="node"><title>Node10</title>
<g id="a_node10"><a xlink:href="attribute__packed_8hpp.html" target="_top" xlink:title="tlx/define/attribute\l_packed.hpp">
<polygon fill="none" stroke="black" points="496.5,-1 496.5,-31 591.5,-31 591.5,-1 496.5,-1"/>
<text text-anchor="start" x="504.5" y="-19" font-family="Helvetica,sans-Serif" font-size="10.00">tlx/define/attribute</text>
<text text-anchor="middle" x="544" y="-8" font-family="Helvetica,sans-Serif" font-size="10.00">_packed.hpp</text>
</a>
</g>
</g>
<!-- Node6&#45;&gt;Node10 -->
<g id="edge9" class="edge"><title>Node6&#45;&gt;Node10</title>
<path fill="none" stroke="midnightblue" d="M599.687,-68.4035C591.131,-60.5051 578.1,-48.4768 566.794,-38.0409"/>
<polygon fill="midnightblue" stroke="midnightblue" points="569.041,-35.3518 559.319,-31.1408 564.293,-40.4955 569.041,-35.3518"/>
</g>
<!-- Node11 -->
<g id="node11" class="node"><title>Node11</title>
<g id="a_node11"><a xlink:href="attribute__warn__unused__result_8hpp.html" target="_top" xlink:title="tlx/define/attribute\l_warn_unused_result.hpp">
<polygon fill="none" stroke="black" points="610,-1 610,-31 738,-31 738,-1 610,-1"/>
<text text-anchor="start" x="618" y="-19" font-family="Helvetica,sans-Serif" font-size="10.00">tlx/define/attribute</text>
<text text-anchor="middle" x="674" y="-8" font-family="Helvetica,sans-Serif" font-size="10.00">_warn_unused_result.hpp</text>
</a>
</g>
</g>
<!-- Node6&#45;&gt;Node11 -->
<g id="edge10" class="edge"><title>Node6&#45;&gt;Node11</title>
<path fill="none" stroke="midnightblue" d="M618.313,-68.4035C626.869,-60.5051 639.9,-48.4768 651.206,-38.0409"/>
<polygon fill="midnightblue" stroke="midnightblue" points="653.707,-40.4955 658.681,-31.1408 648.959,-35.3518 653.707,-40.4955"/>
</g>
<!-- Node12 -->
<g id="node12" class="node"><title>Node12</title>
<g id="a_node12"><a xlink:href="deprecated_8hpp.html" target="_top" xlink:title="tlx/define/deprecated.hpp">
<polygon fill="none" stroke="black" points="756,-6.5 756,-25.5 882,-25.5 882,-6.5 756,-6.5"/>
<text text-anchor="middle" x="819" y="-13.5" font-family="Helvetica,sans-Serif" font-size="10.00">tlx/define/deprecated.hpp</text>
</a>
</g>
</g>
<!-- Node6&#45;&gt;Node12 -->
<g id="edge11" class="edge"><title>Node6&#45;&gt;Node12</title>
<path fill="none" stroke="midnightblue" d="M639.088,-68.4035C675.89,-57.8886 738.311,-40.0539 779.094,-28.4016"/>
<polygon fill="midnightblue" stroke="midnightblue" points="780.314,-31.6932 788.968,-25.5806 778.391,-24.9625 780.314,-31.6932"/>
</g>
<!-- Node13 -->
<g id="node13" class="node"><title>Node13</title>
<g id="a_node13"><a xlink:href="endian_8hpp.html" target="_top" xlink:title="tlx/define/endian.hpp">
<polygon fill="none" stroke="black" points="900.5,-6.5 900.5,-25.5 1007.5,-25.5 1007.5,-6.5 900.5,-6.5"/>
<text text-anchor="middle" x="954" y="-13.5" font-family="Helvetica,sans-Serif" font-size="10.00">tlx/define/endian.hpp</text>
</a>
</g>
</g>
<!-- Node6&#45;&gt;Node13 -->
<g id="edge12" class="edge"><title>Node6&#45;&gt;Node13</title>
<path fill="none" stroke="midnightblue" d="M646.632,-69.5042C649.461,-68.9814 652.274,-68.4743 655,-68 759.531,-49.8096 786.859,-52.3049 891,-32 897.301,-30.7715 903.924,-29.345 910.414,-27.8697"/>
<polygon fill="midnightblue" stroke="midnightblue" points="911.491,-31.2124 920.435,-25.5329 909.902,-24.3953 911.491,-31.2124"/>
</g>
<!-- Node14 -->
<g id="node14" class="node"><title>Node14</title>
<g id="a_node14"><a xlink:href="likely_8hpp.html" target="_top" xlink:title="tlx/define/likely.hpp">
<polygon fill="none" stroke="black" points="1025.5,-6.5 1025.5,-25.5 1126.5,-25.5 1126.5,-6.5 1025.5,-6.5"/>
<text text-anchor="middle" x="1076" y="-13.5" font-family="Helvetica,sans-Serif" font-size="10.00">tlx/define/likely.hpp</text>
</a>
</g>
</g>
<!-- Node6&#45;&gt;Node14 -->
<g id="edge13" class="edge"><title>Node6&#45;&gt;Node14</title>
<path fill="none" stroke="midnightblue" d="M646.606,-69.344C649.441,-68.8583 652.263,-68.4033 655,-68 814.518,-44.4941 857.144,-59.6264 1016,-32 1022.32,-30.9014 1028.95,-29.499 1035.41,-27.9945"/>
<polygon fill="midnightblue" stroke="midnightblue" points="1036.46,-31.3411 1045.35,-25.575 1034.81,-24.5398 1036.46,-31.3411"/>
</g>
<!-- Node24&#45;&gt;Node18 -->
<g id="edge24" class="edge"><title>Node24&#45;&gt;Node18</title>
<path fill="none" stroke="midnightblue" d="M801.312,-124.083C803.167,-116.927 805.835,-106.635 808.154,-97.6911"/>
<polygon fill="midnightblue" stroke="midnightblue" points="811.609,-98.3094 810.731,-87.7511 804.834,-96.5527 811.609,-98.3094"/>
</g>
<!-- Node26 -->
<g id="node26" class="node"><title>Node26</title>
<polygon fill="none" stroke="#bfbfbf" points="1117,-68.5 1117,-87.5 1173,-87.5 1173,-68.5 1117,-68.5"/>
<text text-anchor="middle" x="1145" y="-75.5" font-family="Helvetica,sans-Serif" font-size="10.00">algorithm</text>
</g>
<!-- Node25&#45;&gt;Node26 -->
<g id="edge26" class="edge"><title>Node25&#45;&gt;Node26</title>
<path fill="none" stroke="midnightblue" d="M1077.01,-124.324C1089.53,-115.979 1108.68,-103.212 1123.47,-93.3524"/>
<polygon fill="midnightblue" stroke="midnightblue" points="1125.64,-96.1137 1132.02,-87.6545 1121.76,-90.2894 1125.64,-96.1137"/>
</g>
<!-- Node25&#45;&gt;Node27 -->
<g id="edge27" class="edge"><title>Node25&#45;&gt;Node27</title>
<path fill="none" stroke="midnightblue" d="M1059.05,-124.083C1054.9,-116.613 1048.85,-105.724 1043.73,-96.5199"/>
<polygon fill="midnightblue" stroke="midnightblue" points="1046.78,-94.7929 1038.86,-87.7511 1040.66,-98.1924 1046.78,-94.7929"/>
</g>
<!-- Node25&#45;&gt;Node28 -->
<g id="edge28" class="edge"><title>Node25&#45;&gt;Node28</title>
<path fill="none" stroke="midnightblue" d="M1044.03,-124.444C1023.39,-115.596 990.937,-101.687 967.368,-91.5865"/>
<polygon fill="midnightblue" stroke="midnightblue" points="968.442,-88.2387 957.872,-87.5164 965.684,-94.6727 968.442,-88.2387"/>
</g>
<!-- Node30 -->
<g id="node30" class="node"><title>Node30</title>
<polygon fill="none" stroke="#bfbfbf" points="1485.5,-68.5 1485.5,-87.5 1534.5,-87.5 1534.5,-68.5 1485.5,-68.5"/>
<text text-anchor="middle" x="1510" y="-75.5" font-family="Helvetica,sans-Serif" font-size="10.00">cstddef</text>
</g>
<!-- Node29&#45;&gt;Node30 -->
<g id="edge30" class="edge"><title>Node29&#45;&gt;Node30</title>
<path fill="none" stroke="midnightblue" d="M1343.37,-124.444C1379.36,-114.63 1438.17,-98.5905 1475.44,-88.4261"/>
<polygon fill="midnightblue" stroke="midnightblue" points="1476.61,-91.733 1485.34,-85.7251 1474.77,-84.9796 1476.61,-91.733"/>
</g>
<!-- Node29&#45;&gt;Node31 -->
<g id="edge31" class="edge"><title>Node29&#45;&gt;Node31</title>
<path fill="none" stroke="midnightblue" d="M1298.5,-124.324C1285.4,-115.9 1265.29,-102.971 1249.89,-93.0741"/>
<polygon fill="midnightblue" stroke="midnightblue" points="1251.77,-90.118 1241.46,-87.6545 1247.98,-96.0063 1251.77,-90.118"/>
</g>
<!-- Node29&#45;&gt;Node32 -->
<g id="edge32" class="edge"><title>Node29&#45;&gt;Node32</title>
<path fill="none" stroke="midnightblue" d="M1328.55,-124.324C1344.99,-115.703 1370.43,-102.364 1389.47,-92.3855"/>
<polygon fill="midnightblue" stroke="midnightblue" points="1391.26,-95.3977 1398.49,-87.6545 1388.01,-89.198 1391.26,-95.3977"/>
</g>
<!-- Node36&#45;&gt;Node4 -->
<g id="edge52" class="edge"><title>Node36&#45;&gt;Node4</title>
<path fill="none" stroke="midnightblue" d="M1175.3,-255.3C1096.52,-243.095 943.28,-219.353 858.681,-206.246"/>
<polygon fill="midnightblue" stroke="midnightblue" points="859.132,-202.774 848.714,-204.702 858.06,-209.692 859.132,-202.774"/>
</g>
<!-- Node36&#45;&gt;Node22 -->
<g id="edge58" class="edge"><title>Node36&#45;&gt;Node22</title>
<path fill="none" stroke="midnightblue" d="M1175.39,-260.926C1032.07,-254.721 619.176,-235.279 486,-212 377.211,-192.984 350.67,-182.067 247,-144 205.094,-128.612 158.309,-106.326 130.021,-92.2551"/>
<polygon fill="midnightblue" stroke="midnightblue" points="131.332,-88.9976 120.824,-87.6456 128.196,-95.2555 131.332,-88.9976"/>
</g>
<!-- Node36&#45;&gt;Node23 -->
<g id="edge61" class="edge"><title>Node36&#45;&gt;Node23</title>
<path fill="none" stroke="midnightblue" d="M1175.44,-260.305C1016.02,-250.981 518.533,-216.61 377,-144 354.407,-132.409 334.174,-110.92 321.768,-95.8325"/>
<polygon fill="midnightblue" stroke="midnightblue" points="324.365,-93.4739 315.41,-87.8119 318.879,-97.8225 324.365,-93.4739"/>
</g>
<!-- Node36&#45;&gt;Node26 -->
<g id="edge53" class="edge"><title>Node36&#45;&gt;Node26</title>
<path fill="none" stroke="midnightblue" d="M1221.14,-254.125C1208.76,-225.647 1169.85,-136.166 1152.96,-97.3099"/>
<polygon fill="midnightblue" stroke="midnightblue" points="1156.02,-95.5608 1148.82,-87.7857 1149.6,-98.3519 1156.02,-95.5608"/>
</g>
<!-- Node36&#45;&gt;Node30 -->
<g id="edge54" class="edge"><title>Node36&#45;&gt;Node30</title>
<path fill="none" stroke="midnightblue" d="M1253.73,-254.435C1261.86,-252.171 1270.74,-249.847 1279,-248 1325.42,-237.621 1456.7,-245.965 1490,-212 1520.02,-181.384 1517.26,-126.261 1513.31,-97.5393"/>
<polygon fill="midnightblue" stroke="midnightblue" points="1516.76,-96.9487 1511.74,-87.6163 1509.84,-98.0396 1516.76,-96.9487"/>
</g>
<!-- Node36&#45;&gt;Node31 -->
<g id="edge56" class="edge"><title>Node36&#45;&gt;Node31</title>
<path fill="none" stroke="midnightblue" d="M1225.14,-254.125C1225.61,-225.769 1227.06,-136.93 1227.69,-97.8108"/>
<polygon fill="midnightblue" stroke="midnightblue" points="1231.19,-97.8414 1227.86,-87.7857 1224.19,-97.7272 1231.19,-97.8414"/>
</g>
<!-- Node36&#45;&gt;Node32 -->
<g id="edge59" class="edge"><title>Node36&#45;&gt;Node32</title>
<path fill="none" stroke="midnightblue" d="M1228.66,-254.35C1236.38,-237.229 1256.02,-199.034 1285,-180 1347.01,-139.272 1401.54,-201.841 1448,-144 1460.06,-128.988 1446.13,-108.862 1432.84,-95.0024"/>
<polygon fill="midnightblue" stroke="midnightblue" points="1434.9,-92.1216 1425.29,-87.6522 1430.02,-97.1365 1434.9,-92.1216"/>
</g>
<!-- Node37 -->
<g id="node37" class="node"><title>Node37</title>
<g id="a_node37"><a xlink:href="config_8hpp.html" target="_top" xlink:title="thrill/common/config.hpp">
<polygon fill="none" stroke="black" points="1358.5,-186.5 1358.5,-205.5 1481.5,-205.5 1481.5,-186.5 1358.5,-186.5"/>
<text text-anchor="middle" x="1420" y="-193.5" font-family="Helvetica,sans-Serif" font-size="10.00">thrill/common/config.hpp</text>
</a>
</g>
</g>
<!-- Node36&#45;&gt;Node37 -->
<g id="edge51" class="edge"><title>Node36&#45;&gt;Node37</title>
<path fill="none" stroke="midnightblue" d="M1250.49,-254.372C1284.89,-242.728 1346.32,-221.939 1385.01,-208.841"/>
<polygon fill="midnightblue" stroke="midnightblue" points="1386.46,-212.047 1394.81,-205.526 1384.22,-205.417 1386.46,-212.047"/>
</g>
<!-- Node38 -->
<g id="node38" class="node"><title>Node38</title>
<polygon fill="none" stroke="#bfbfbf" points="1294,-186.5 1294,-205.5 1340,-205.5 1340,-186.5 1294,-186.5"/>
<text text-anchor="middle" x="1317" y="-193.5" font-family="Helvetica,sans-Serif" font-size="10.00">cstdint</text>
</g>
<!-- Node36&#45;&gt;Node38 -->
<g id="edge55" class="edge"><title>Node36&#45;&gt;Node38</title>
<path fill="none" stroke="midnightblue" d="M1237.03,-254.372C1252.18,-243.502 1278.44,-224.66 1296.72,-211.547"/>
<polygon fill="midnightblue" stroke="midnightblue" points="1298.88,-214.303 1304.97,-205.63 1294.8,-208.616 1298.88,-214.303"/>
</g>
<!-- Node36&#45;&gt;Node39 -->
<g id="edge57" class="edge"><title>Node36&#45;&gt;Node39</title>
<path fill="none" stroke="midnightblue" d="M1213.89,-254.372C1200.02,-243.6 1176.06,-225.002 1159.2,-211.906"/>
<polygon fill="midnightblue" stroke="midnightblue" points="1161.16,-208.999 1151.11,-205.63 1156.87,-214.528 1161.16,-208.999"/>
</g>
<!-- Node36&#45;&gt;Node40 -->
<g id="edge60" class="edge"><title>Node36&#45;&gt;Node40</title>
<path fill="none" stroke="midnightblue" d="M1274.62,-261.583C1335.62,-258.281 1441.21,-247.427 1524,-212 1545.9,-202.628 1544.93,-188.979 1567,-180 1622.22,-157.529 1800.48,-142.441 1872.45,-137.124"/>
<polygon fill="midnightblue" stroke="midnightblue" points="1872.94,-140.598 1882.66,-136.383 1872.43,-133.616 1872.94,-140.598"/>
</g>
<!-- Node41&#45;&gt;Node42 -->
<g id="edge63" class="edge"><title>Node41&#45;&gt;Node42</title>
<path fill="none" stroke="midnightblue" d="M1637.28,-248.679C1628.86,-238.388 1617.49,-224.484 1608.66,-213.69"/>
<polygon fill="midnightblue" stroke="midnightblue" points="1611.26,-211.352 1602.22,-205.828 1605.85,-215.784 1611.26,-211.352"/>
</g>
<!-- Node43 -->
<g id="node43" class="node"><title>Node43</title>
<g id="a_node43"><a xlink:href="call__foreach_8hpp.html" target="_top" xlink:title="tlx/meta/call_foreach.hpp">
<polygon fill="none" stroke="black" points="1794,-186.5 1794,-205.5 1920,-205.5 1920,-186.5 1794,-186.5"/>
<text text-anchor="middle" x="1857" y="-193.5" font-family="Helvetica,sans-Serif" font-size="10.00">tlx/meta/call_foreach.hpp</text>
</a>
</g>
</g>
<!-- Node41&#45;&gt;Node43 -->
<g id="edge64" class="edge"><title>Node41&#45;&gt;Node43</title>
<path fill="none" stroke="midnightblue" d="M1693.37,-248.922C1731.16,-236.931 1784.81,-219.906 1820.24,-208.664"/>
<polygon fill="midnightblue" stroke="midnightblue" points="1821.7,-211.874 1830.17,-205.514 1819.58,-205.202 1821.7,-211.874"/>
</g>
<!-- Node44 -->
<g id="node44" class="node"><title>Node44</title>
<g id="a_node44"><a xlink:href="index__sequence_8hpp.html" target="_top" xlink:title="tlx/meta/index_sequence.hpp">
<polygon fill="none" stroke="black" points="1632,-186.5 1632,-205.5 1776,-205.5 1776,-186.5 1632,-186.5"/>
<text text-anchor="middle" x="1704" y="-193.5" font-family="Helvetica,sans-Serif" font-size="10.00">tlx/meta/index_sequence.hpp</text>
</a>
</g>
</g>
<!-- Node41&#45;&gt;Node44 -->
<g id="edge66" class="edge"><title>Node41&#45;&gt;Node44</title>
<path fill="none" stroke="midnightblue" d="M1660.93,-248.679C1669.51,-238.388 1681.1,-224.484 1690.09,-213.69"/>
<polygon fill="midnightblue" stroke="midnightblue" points="1692.93,-215.751 1696.64,-205.828 1687.55,-211.27 1692.93,-215.751"/>
</g>
<!-- Node43&#45;&gt;Node40 -->
<g id="edge65" class="edge"><title>Node43&#45;&gt;Node40</title>
<path fill="none" stroke="midnightblue" d="M1863.59,-186.403C1870.49,-177.403 1881.5,-163.041 1890.13,-151.782"/>
<polygon fill="midnightblue" stroke="midnightblue" points="1893.11,-153.646 1896.42,-143.581 1887.56,-149.387 1893.11,-153.646"/>
</g>
<!-- Node44&#45;&gt;Node30 -->
<g id="edge67" class="edge"><title>Node44&#45;&gt;Node30</title>
<path fill="none" stroke="midnightblue" d="M1689.73,-186.47C1656.45,-166.569 1573.42,-116.922 1532.93,-92.711"/>
<polygon fill="midnightblue" stroke="midnightblue" points="1534.67,-89.6703 1524.29,-87.5423 1531.07,-95.6782 1534.67,-89.6703"/>
</g>
</g>
</svg>
