<?xml version="1.0" encoding="UTF-8" standalone="no"?>
<!DOCTYPE svg PUBLIC "-//W3C//DTD SVG 1.1//EN"
 "http://www.w3.org/Graphics/SVG/1.1/DTD/svg11.dtd">
<!-- Generated by graphviz version 2.40.1 (20161225.0304)
 -->
<!-- Title: thrill/common/ring_buffer.hpp Pages: 1 -->
<svg width="1343pt" height="229pt"
 viewBox="0.00 0.00 1343.00 229.00" xmlns="http://www.w3.org/2000/svg" xmlns:xlink="http://www.w3.org/1999/xlink">
<g id="graph0" class="graph" transform="scale(1 1) rotate(0) translate(4 225)">
<title>thrill/common/ring_buffer.hpp</title>
<!-- Node9 -->
<g id="node1" class="node">
<title>Node9</title>
<polygon fill="#bfbfbf" stroke="#000000" points="777.5,-190.5 777.5,-220.5 884.5,-220.5 884.5,-190.5 777.5,-190.5"/>
<text text-anchor="start" x="785.5" y="-208.5" font-family="Helvetica,sans-Serif" font-size="10.00" fill="#000000">thrill/common/ring</text>
<text text-anchor="middle" x="831" y="-197.5" font-family="Helvetica,sans-Serif" font-size="10.00" fill="#000000">_buffer.hpp</text>
</g>
<!-- Node10 -->
<g id="node2" class="node">
<title>Node10</title>
<g id="a_node2"><a xlink:href="window_8hpp.html" target="_top" xlink:title="thrill/api/window.hpp">
<polygon fill="none" stroke="#000000" points="573,-134.5 573,-153.5 691,-153.5 691,-134.5 573,-134.5"/>
<text text-anchor="middle" x="632" y="-141.5" font-family="Helvetica,sans-Serif" font-size="10.00" fill="#000000">thrill/api/window.hpp</text>
</a>
</g>
</g>
<!-- Node9&#45;&gt;Node10 -->
<g id="edge1" class="edge">
<title>Node9&#45;&gt;Node10</title>
<path fill="none" stroke="#191970" d="M772.4392,-187.4021C736.5295,-176.3044 692.0031,-162.5437 662.8379,-153.5303"/>
<polygon fill="#191970" stroke="#191970" points="771.7315,-190.8466 782.3191,-190.4554 773.7984,-184.1587 771.7315,-190.8466"/>
</g>
<!-- Node22 -->
<g id="node14" class="node">
<title>Node22</title>
<g id="a_node14"><a xlink:href="rl__bwt_8cpp.html" target="_top" xlink:title="examples/suffix_sorting\l/rl_bwt.cpp">
<polygon fill="none" stroke="#000000" points="1201,-67.5 1201,-97.5 1335,-97.5 1335,-67.5 1201,-67.5"/>
<text text-anchor="start" x="1209" y="-85.5" font-family="Helvetica,sans-Serif" font-size="10.00" fill="#000000">examples/suffix_sorting</text>
<text text-anchor="middle" x="1268" y="-74.5" font-family="Helvetica,sans-Serif" font-size="10.00" fill="#000000">/rl_bwt.cpp</text>
</a>
</g>
</g>
<!-- Node9&#45;&gt;Node22 -->
<g id="edge22" class="edge">
<title>Node9&#45;&gt;Node22</title>
<path fill="none" stroke="#191970" d="M894.2614,-187.6941C980.6028,-163.3921 1133.8286,-120.2645 1214.6611,-97.513"/>
<polygon fill="#191970" stroke="#191970" points="893.2624,-184.3393 884.5848,-190.4178 895.1591,-191.0774 893.2624,-184.3393"/>
</g>
<!-- Node11 -->
<g id="node3" class="node">
<title>Node11</title>
<g id="a_node3"><a xlink:href="thrill_8hpp.html" target="_top" xlink:title="thrill/thrill.hpp">
<polygon fill="none" stroke="#000000" points="945,-73 945,-92 1031,-92 1031,-73 945,-73"/>
<text text-anchor="middle" x="988" y="-80" font-family="Helvetica,sans-Serif" font-size="10.00" fill="#000000">thrill/thrill.hpp</text>
</a>
</g>
</g>
<!-- Node10&#45;&gt;Node11 -->
<g id="edge2" class="edge">
<title>Node10&#45;&gt;Node11</title>
<path fill="none" stroke="#191970" d="M701.0611,-136.338C763.0104,-128.8056 856.1833,-115.843 936,-98 943.3547,-96.3559 951.1908,-94.2256 958.4893,-92.0737"/>
<polygon fill="#191970" stroke="#191970" points="700.5239,-132.8773 691.0129,-137.5454 701.3591,-139.8273 700.5239,-132.8773"/>
</g>
<!-- Node12 -->
<g id="node4" class="node">
<title>Node12</title>
<g id="a_node4"><a xlink:href="check__sa_8hpp.html" target="_top" xlink:title="examples/suffix_sorting\l/check_sa.hpp">
<polygon fill="none" stroke="#000000" points="299,-67.5 299,-97.5 433,-97.5 433,-67.5 299,-67.5"/>
<text text-anchor="start" x="307" y="-85.5" font-family="Helvetica,sans-Serif" font-size="10.00" fill="#000000">examples/suffix_sorting</text>
<text text-anchor="middle" x="366" y="-74.5" font-family="Helvetica,sans-Serif" font-size="10.00" fill="#000000">/check_sa.hpp</text>
</a>
</g>
</g>
<!-- Node10&#45;&gt;Node12 -->
<g id="edge3" class="edge">
<title>Node10&#45;&gt;Node12</title>
<path fill="none" stroke="#191970" d="M580.8366,-132.1709C538.158,-122.3035 477.0884,-108.184 430.9616,-97.5193"/>
<polygon fill="#191970" stroke="#191970" points="580.1979,-135.6155 590.7294,-134.4581 581.7748,-128.7954 580.1979,-135.6155"/>
</g>
<!-- Node13 -->
<g id="node5" class="node">
<title>Node13</title>
<g id="a_node5"><a xlink:href="dc3_8cpp.html" target="_top" xlink:title="examples/suffix_sorting\l/dc3.cpp">
<polygon fill="none" stroke="#000000" points="456,-.5 456,-30.5 590,-30.5 590,-.5 456,-.5"/>
<text text-anchor="start" x="464" y="-18.5" font-family="Helvetica,sans-Serif" font-size="10.00" fill="#000000">examples/suffix_sorting</text>
<text text-anchor="middle" x="523" y="-7.5" font-family="Helvetica,sans-Serif" font-size="10.00" fill="#000000">/dc3.cpp</text>
</a>
</g>
</g>
<!-- Node10&#45;&gt;Node13 -->
<g id="edge16" class="edge">
<title>Node10&#45;&gt;Node13</title>
<path fill="none" stroke="#191970" d="M566.8851,-132.2946C530.6903,-124.3187 490.8138,-112.5707 480,-98 463.9249,-76.3401 487.1216,-47.8315 505.1934,-30.6271"/>
<polygon fill="#191970" stroke="#191970" points="566.4592,-135.7824 576.969,-134.4434 567.9181,-128.9361 566.4592,-135.7824"/>
</g>
<!-- Node14 -->
<g id="node6" class="node">
<title>Node14</title>
<g id="a_node6"><a xlink:href="dc7_8cpp.html" target="_top" xlink:title="examples/suffix_sorting\l/dc7.cpp">
<polygon fill="none" stroke="#000000" points="0,-.5 0,-30.5 134,-30.5 134,-.5 0,-.5"/>
<text text-anchor="start" x="8" y="-18.5" font-family="Helvetica,sans-Serif" font-size="10.00" fill="#000000">examples/suffix_sorting</text>
<text text-anchor="middle" x="67" y="-7.5" font-family="Helvetica,sans-Serif" font-size="10.00" fill="#000000">/dc7.cpp</text>
</a>
</g>
</g>
<!-- Node10&#45;&gt;Node14 -->
<g id="edge17" class="edge">
<title>Node10&#45;&gt;Node14</title>
<path fill="none" stroke="#191970" d="M562.856,-138.458C467.8878,-130.3908 302.2304,-114.5607 244,-98 187.2585,-81.8627 125.8804,-49.5491 92.3817,-30.5039"/>
<polygon fill="#191970" stroke="#191970" points="562.6883,-141.9561 572.9469,-139.3085 563.2763,-134.9809 562.6883,-141.9561"/>
</g>
<!-- Node15 -->
<g id="node7" class="node">
<title>Node15</title>
<g id="a_node7"><a xlink:href="prefix__doubling_8cpp.html" target="_top" xlink:title="examples/suffix_sorting\l/prefix_doubling.cpp">
<polygon fill="none" stroke="#000000" points="152,-.5 152,-30.5 286,-30.5 286,-.5 152,-.5"/>
<text text-anchor="start" x="160" y="-18.5" font-family="Helvetica,sans-Serif" font-size="10.00" fill="#000000">examples/suffix_sorting</text>
<text text-anchor="middle" x="219" y="-7.5" font-family="Helvetica,sans-Serif" font-size="10.00" fill="#000000">/prefix_doubling.cpp</text>
</a>
</g>
</g>
<!-- Node10&#45;&gt;Node15 -->
<g id="edge18" class="edge">
<title>Node10&#45;&gt;Node15</title>
<path fill="none" stroke="#191970" d="M562.6424,-141.3201C474.0136,-136.8162 326.4912,-125.367 280,-98 253.2896,-82.277 234.7082,-49.8145 225.5449,-30.6314"/>
<polygon fill="#191970" stroke="#191970" points="562.7233,-144.8282 572.883,-141.823 563.0667,-137.8366 562.7233,-144.8282"/>
</g>
<!-- Node16 -->
<g id="node8" class="node">
<title>Node16</title>
<g id="a_node8"><a xlink:href="prefix__quadrupling_8cpp.html" target="_top" xlink:title="examples/suffix_sorting\l/prefix_quadrupling.cpp">
<polygon fill="none" stroke="#000000" points="304,-.5 304,-30.5 438,-30.5 438,-.5 304,-.5"/>
<text text-anchor="start" x="312" y="-18.5" font-family="Helvetica,sans-Serif" font-size="10.00" fill="#000000">examples/suffix_sorting</text>
<text text-anchor="middle" x="371" y="-7.5" font-family="Helvetica,sans-Serif" font-size="10.00" fill="#000000">/prefix_quadrupling.cpp</text>
</a>
</g>
</g>
<!-- Node10&#45;&gt;Node16 -->
<g id="edge19" class="edge">
<title>Node10&#45;&gt;Node16</title>
<path fill="none" stroke="#191970" d="M562.5469,-139.4936C467.7844,-132.6265 307.6464,-118.1788 290,-98 268.462,-73.3712 307.1896,-46.6592 338.17,-30.5017"/>
<polygon fill="#191970" stroke="#191970" points="562.4112,-142.9927 572.6351,-140.2139 562.9099,-136.0105 562.4112,-142.9927"/>
</g>
<!-- Node18 -->
<g id="node10" class="node">
<title>Node18</title>
<g id="a_node10"><a xlink:href="construct__bwt_8hpp.html" target="_top" xlink:title="examples/suffix_sorting\l/construct_bwt.hpp">
<polygon fill="none" stroke="#000000" points="489,-67.5 489,-97.5 623,-97.5 623,-67.5 489,-67.5"/>
<text text-anchor="start" x="497" y="-85.5" font-family="Helvetica,sans-Serif" font-size="10.00" fill="#000000">examples/suffix_sorting</text>
<text text-anchor="middle" x="556" y="-74.5" font-family="Helvetica,sans-Serif" font-size="10.00" fill="#000000">/construct_bwt.hpp</text>
</a>
</g>
</g>
<!-- Node10&#45;&gt;Node18 -->
<g id="edge9" class="edge">
<title>Node10&#45;&gt;Node18</title>
<path fill="none" stroke="#191970" d="M612.2752,-128.0385C600.6455,-118.6276 586.0183,-106.7911 574.5917,-97.5446"/>
<polygon fill="#191970" stroke="#191970" points="610.1496,-130.8209 620.125,-134.3906 614.553,-125.3793 610.1496,-130.8209"/>
</g>
<!-- Node19 -->
<g id="node11" class="node">
<title>Node19</title>
<g id="a_node11"><a xlink:href="construct__lcp_8hpp.html" target="_top" xlink:title="examples/suffix_sorting\l/construct_lcp.hpp">
<polygon fill="none" stroke="#000000" points="641,-67.5 641,-97.5 775,-97.5 775,-67.5 641,-67.5"/>
<text text-anchor="start" x="649" y="-85.5" font-family="Helvetica,sans-Serif" font-size="10.00" fill="#000000">examples/suffix_sorting</text>
<text text-anchor="middle" x="708" y="-74.5" font-family="Helvetica,sans-Serif" font-size="10.00" fill="#000000">/construct_lcp.hpp</text>
</a>
</g>
</g>
<!-- Node10&#45;&gt;Node19 -->
<g id="edge11" class="edge">
<title>Node10&#45;&gt;Node19</title>
<path fill="none" stroke="#191970" d="M651.7248,-128.0385C663.3545,-118.6276 677.9817,-106.7911 689.4083,-97.5446"/>
<polygon fill="#191970" stroke="#191970" points="649.447,-125.3793 643.875,-134.3906 653.8504,-130.8209 649.447,-125.3793"/>
</g>
<!-- Node20 -->
<g id="node12" class="node">
<title>Node20</title>
<g id="a_node12"><a xlink:href="construct__wt_8hpp.html" target="_top" xlink:title="examples/suffix_sorting\l/construct_wt.hpp">
<polygon fill="none" stroke="#000000" points="1049,-67.5 1049,-97.5 1183,-97.5 1183,-67.5 1049,-67.5"/>
<text text-anchor="start" x="1057" y="-85.5" font-family="Helvetica,sans-Serif" font-size="10.00" fill="#000000">examples/suffix_sorting</text>
<text text-anchor="middle" x="1116" y="-74.5" font-family="Helvetica,sans-Serif" font-size="10.00" fill="#000000">/construct_wt.hpp</text>
</a>
</g>
</g>
<!-- Node10&#45;&gt;Node20 -->
<g id="edge13" class="edge">
<title>Node10&#45;&gt;Node20</title>
<path fill="none" stroke="#191970" d="M701.1182,-138.0963C782.4689,-130.7116 921.5014,-116.7258 1040,-98 1042.9262,-97.5376 1045.9108,-97.0402 1048.922,-96.5172"/>
<polygon fill="#191970" stroke="#191970" points="700.6484,-134.6244 691.0027,-139.0075 701.2764,-141.5962 700.6484,-134.6244"/>
</g>
<!-- Node10&#45;&gt;Node22 -->
<g id="edge20" class="edge">
<title>Node10&#45;&gt;Node22</title>
<path fill="none" stroke="#191970" d="M701.3678,-140.9658C807.4789,-135.7244 1016.2924,-123.0431 1192,-98 1194.9329,-97.582 1197.923,-97.1213 1200.9388,-96.6285"/>
<polygon fill="#191970" stroke="#191970" points="700.9321,-137.4827 691.1141,-141.4648 701.2724,-144.4745 700.9321,-137.4827"/>
</g>
<!-- Node23 -->
<g id="node15" class="node">
<title>Node23</title>
<g id="a_node15"><a xlink:href="wavelet__tree2_8cpp.html" target="_top" xlink:title="examples/suffix_sorting\l/wavelet_tree2.cpp">
<polygon fill="none" stroke="#000000" points="793,-67.5 793,-97.5 927,-97.5 927,-67.5 793,-67.5"/>
<text text-anchor="start" x="801" y="-85.5" font-family="Helvetica,sans-Serif" font-size="10.00" fill="#000000">examples/suffix_sorting</text>
<text text-anchor="middle" x="860" y="-74.5" font-family="Helvetica,sans-Serif" font-size="10.00" fill="#000000">/wavelet_tree2.cpp</text>
</a>
</g>
</g>
<!-- Node10&#45;&gt;Node23 -->
<g id="edge21" class="edge">
<title>Node10&#45;&gt;Node23</title>
<path fill="none" stroke="#191970" d="M677.493,-131.7289C713.9573,-121.8931 765.2856,-108.048 804.2249,-97.5446"/>
<polygon fill="#191970" stroke="#191970" points="676.3684,-128.407 667.625,-134.3906 678.1915,-135.1655 676.3684,-128.407"/>
</g>
<!-- Node12&#45;&gt;Node13 -->
<g id="edge4" class="edge">
<title>Node12&#45;&gt;Node13</title>
<path fill="none" stroke="#191970" d="M410.6359,-63.4516C435.035,-53.0392 464.834,-40.3224 487.6125,-30.6017"/>
<polygon fill="#191970" stroke="#191970" points="409.0576,-60.3197 401.2339,-67.4639 411.8052,-66.7579 409.0576,-60.3197"/>
</g>
<!-- Node12&#45;&gt;Node14 -->
<g id="edge5" class="edge">
<title>Node12&#45;&gt;Node14</title>
<path fill="none" stroke="#191970" d="M288.8871,-65.2205C240.9937,-54.4886 180.0356,-40.8291 134.1356,-30.5438"/>
<polygon fill="#191970" stroke="#191970" points="288.3752,-68.6925 298.8986,-67.4639 289.9059,-61.8619 288.3752,-68.6925"/>
</g>
<!-- Node12&#45;&gt;Node15 -->
<g id="edge6" class="edge">
<title>Node12&#45;&gt;Node15</title>
<path fill="none" stroke="#191970" d="M323.9036,-63.3132C301.1153,-52.9267 273.3667,-40.2794 252.1336,-30.6017"/>
<polygon fill="#191970" stroke="#191970" points="322.4593,-66.5013 333.0103,-67.4639 325.3625,-60.1317 322.4593,-66.5013"/>
</g>
<!-- Node12&#45;&gt;Node16 -->
<g id="edge7" class="edge">
<title>Node12&#45;&gt;Node16</title>
<path fill="none" stroke="#191970" d="M367.8793,-57.3179C368.5491,-48.3414 369.2825,-38.5143 369.8699,-30.6432"/>
<polygon fill="#191970" stroke="#191970" points="364.3886,-57.0639 367.1346,-67.2967 371.3692,-57.5849 364.3886,-57.0639"/>
</g>
<!-- Node17 -->
<g id="node9" class="node">
<title>Node17</title>
<g id="a_node9"><a xlink:href="suffix__sorting_8cpp.html" target="_top" xlink:title="examples/suffix_sorting\l/suffix_sorting.cpp">
<polygon fill="none" stroke="#000000" points="625,-.5 625,-30.5 759,-30.5 759,-.5 625,-.5"/>
<text text-anchor="start" x="633" y="-18.5" font-family="Helvetica,sans-Serif" font-size="10.00" fill="#000000">examples/suffix_sorting</text>
<text text-anchor="middle" x="692" y="-7.5" font-family="Helvetica,sans-Serif" font-size="10.00" fill="#000000">/suffix_sorting.cpp</text>
</a>
</g>
</g>
<!-- Node12&#45;&gt;Node17 -->
<g id="edge8" class="edge">
<title>Node12&#45;&gt;Node17</title>
<path fill="none" stroke="#191970" d="M443.2467,-66.6242C498.5032,-55.2678 572.1416,-40.1335 624.935,-29.2833"/>
<polygon fill="#191970" stroke="#191970" points="442.2428,-63.2572 433.1521,-68.6988 443.652,-70.1139 442.2428,-63.2572"/>
</g>
<!-- Node18&#45;&gt;Node17 -->
<g id="edge10" class="edge">
<title>Node18&#45;&gt;Node17</title>
<path fill="none" stroke="#191970" d="M595.7583,-62.9132C616.6011,-52.645 641.7487,-40.2561 661.1103,-30.7177"/>
<polygon fill="#191970" stroke="#191970" points="593.9448,-59.9049 586.5211,-67.4639 597.0383,-66.1842 593.9448,-59.9049"/>
</g>
<!-- Node19&#45;&gt;Node17 -->
<g id="edge12" class="edge">
<title>Node19&#45;&gt;Node17</title>
<path fill="none" stroke="#191970" d="M701.9864,-57.3179C699.8427,-48.3414 697.4959,-38.5143 695.6163,-30.6432"/>
<polygon fill="#191970" stroke="#191970" points="698.6423,-58.3831 704.3694,-67.2967 705.4508,-56.7572 698.6423,-58.3831"/>
</g>
<!-- Node20&#45;&gt;Node17 -->
<g id="edge14" class="edge">
<title>Node20&#45;&gt;Node17</title>
<path fill="none" stroke="#191970" d="M1038.9257,-66.8629C935.6668,-48.8954 827.2368,-33.5465 759.2127,-24.345"/>
<polygon fill="#191970" stroke="#191970" points="1038.447,-70.3322 1048.9008,-68.6097 1039.6545,-63.4371 1038.447,-70.3322"/>
</g>
<!-- Node21 -->
<g id="node13" class="node">
<title>Node21</title>
<g id="a_node13"><a xlink:href="wavelet__tree3_8cpp.html" target="_top" xlink:title="examples/suffix_sorting\l/wavelet_tree3.cpp">
<polygon fill="none" stroke="#000000" points="1049,-.5 1049,-30.5 1183,-30.5 1183,-.5 1049,-.5"/>
<text text-anchor="start" x="1057" y="-18.5" font-family="Helvetica,sans-Serif" font-size="10.00" fill="#000000">examples/suffix_sorting</text>
<text text-anchor="middle" x="1116" y="-7.5" font-family="Helvetica,sans-Serif" font-size="10.00" fill="#000000">/wavelet_tree3.cpp</text>
</a>
</g>
</g>
<!-- Node20&#45;&gt;Node21 -->
<g id="edge15" class="edge">
<title>Node20&#45;&gt;Node21</title>
<path fill="none" stroke="#191970" d="M1116,-57.0249C1116,-48.128 1116,-38.4287 1116,-30.6432"/>
<polygon fill="#191970" stroke="#191970" points="1112.5001,-57.2966 1116,-67.2967 1119.5001,-57.2967 1112.5001,-57.2966"/>
</g>
</g>
</svg>
