<?xml version="1.0" encoding="UTF-8" standalone="no"?>
<!DOCTYPE svg PUBLIC "-//W3C//DTD SVG 1.1//EN"
 "http://www.w3.org/Graphics/SVG/1.1/DTD/svg11.dtd">
<!-- Generated by graphviz version 2.40.1 (20161225.0304)
 -->
<!-- Title: thrill/common/math.hpp Pages: 1 -->
<svg width="346pt" height="84pt"
 viewBox="0.00 0.00 345.50 84.00" xmlns="http://www.w3.org/2000/svg" xmlns:xlink="http://www.w3.org/1999/xlink">
<g id="graph0" class="graph" transform="scale(1 1) rotate(0) translate(4 80)">
<title>thrill/common/math.hpp</title>
<!-- Node0 -->
<g id="node1" class="node">
<title>Node0</title>
<polygon fill="#bfbfbf" stroke="#000000" points="109,-56.5 109,-75.5 243,-75.5 243,-56.5 109,-56.5"/>
<text text-anchor="middle" x="176" y="-63.5" font-family="Helvetica,sans-Serif" font-size="10.00" fill="#000000">thrill/common/math.hpp</text>
</g>
<!-- Node1 -->
<g id="node2" class="node">
<title>Node1</title>
<polygon fill="none" stroke="#bfbfbf" points="0,-.5 0,-19.5 64,-19.5 64,-.5 0,-.5"/>
<text text-anchor="middle" x="32" y="-7.5" font-family="Helvetica,sans-Serif" font-size="10.00" fill="#000000">algorithm</text>
</g>
<!-- Node0&#45;&gt;Node1 -->
<g id="edge1" class="edge">
<title>Node0&#45;&gt;Node1</title>
<path fill="none" stroke="#191970" d="M151.2455,-56.3733C127.7151,-47.2226 92.1313,-33.3844 65.9574,-23.2057"/>
<polygon fill="#191970" stroke="#191970" points="67.0201,-19.8636 56.4315,-19.5011 64.4829,-26.3877 67.0201,-19.8636"/>
</g>
<!-- Node2 -->
<g id="node3" class="node">
<title>Node2</title>
<polygon fill="none" stroke="#bfbfbf" points="82,-.5 82,-19.5 134,-19.5 134,-.5 82,-.5"/>
<text text-anchor="middle" x="108" y="-7.5" font-family="Helvetica,sans-Serif" font-size="10.00" fill="#000000">cassert</text>
</g>
<!-- Node0&#45;&gt;Node2 -->
<g id="edge2" class="edge">
<title>Node0&#45;&gt;Node2</title>
<path fill="none" stroke="#191970" d="M164.1553,-56.2455C154.112,-47.9746 139.5005,-35.9416 127.6996,-26.2232"/>
<polygon fill="#191970" stroke="#191970" points="129.6533,-23.298 119.709,-19.6427 125.2033,-28.7015 129.6533,-23.298"/>
</g>
<!-- Node3 -->
<g id="node4" class="node">
<title>Node3</title>
<polygon fill="none" stroke="#bfbfbf" points="152.5,-.5 152.5,-19.5 199.5,-19.5 199.5,-.5 152.5,-.5"/>
<text text-anchor="middle" x="176" y="-7.5" font-family="Helvetica,sans-Serif" font-size="10.00" fill="#000000">cmath</text>
</g>
<!-- Node0&#45;&gt;Node3 -->
<g id="edge3" class="edge">
<title>Node0&#45;&gt;Node3</title>
<path fill="none" stroke="#191970" d="M176,-56.2455C176,-48.9382 176,-38.6944 176,-29.7046"/>
<polygon fill="#191970" stroke="#191970" points="179.5001,-29.6426 176,-19.6427 172.5001,-29.6427 179.5001,-29.6426"/>
</g>
<!-- Node4 -->
<g id="node5" class="node">
<title>Node4</title>
<polygon fill="none" stroke="#bfbfbf" points="218,-.5 218,-19.5 262,-19.5 262,-.5 218,-.5"/>
<text text-anchor="middle" x="240" y="-7.5" font-family="Helvetica,sans-Serif" font-size="10.00" fill="#000000">limits</text>
</g>
<!-- Node0&#45;&gt;Node4 -->
<g id="edge4" class="edge">
<title>Node0&#45;&gt;Node4</title>
<path fill="none" stroke="#191970" d="M187.1479,-56.2455C196.5087,-48.0549 210.0858,-36.1749 221.1349,-26.5069"/>
<polygon fill="#191970" stroke="#191970" points="223.7588,-28.8618 228.9798,-19.6427 219.1492,-23.5937 223.7588,-28.8618"/>
</g>
<!-- Node5 -->
<g id="node6" class="node">
<title>Node5</title>
<polygon fill="none" stroke="#bfbfbf" points="280.5,-.5 280.5,-19.5 337.5,-19.5 337.5,-.5 280.5,-.5"/>
<text text-anchor="middle" x="309" y="-7.5" font-family="Helvetica,sans-Serif" font-size="10.00" fill="#000000">ostream</text>
</g>
<!-- Node0&#45;&gt;Node5 -->
<g id="edge5" class="edge">
<title>Node0&#45;&gt;Node5</title>
<path fill="none" stroke="#191970" d="M198.8635,-56.3733C220.405,-47.3032 252.8838,-33.6279 276.9956,-23.4755"/>
<polygon fill="#191970" stroke="#191970" points="278.5767,-26.6075 286.4348,-19.5011 275.8603,-20.156 278.5767,-26.6075"/>
</g>
</g>
</svg>
