<?xml version="1.0" encoding="UTF-8" standalone="no"?>
<!DOCTYPE svg PUBLIC "-//W3C//DTD SVG 1.1//EN"
 "http://www.w3.org/Graphics/SVG/1.1/DTD/svg11.dtd">
<!-- Generated by graphviz version 2.36.0 (20140111.2315)
 -->
<!-- Title: thrill/mem/allocator_base.hpp Pages: 1 -->
<svg width="1395pt" height="220pt"
 viewBox="0.00 0.00 1395.00 220.00" xmlns="http://www.w3.org/2000/svg" xmlns:xlink="http://www.w3.org/1999/xlink">
<g id="graph0" class="graph" transform="scale(1 1) rotate(0) translate(4 216)">
<title>thrill/mem/allocator_base.hpp</title>
<!-- Node1 -->
<g id="node1" class="node"><title>Node1</title>
<polygon fill="#bfbfbf" stroke="black" points="938.5,-181 938.5,-211 1037.5,-211 1037.5,-181 938.5,-181"/>
<text text-anchor="start" x="946.5" y="-199" font-family="Helvetica,sans-Serif" font-size="10.00">thrill/mem/allocator</text>
<text text-anchor="middle" x="988" y="-188" font-family="Helvetica,sans-Serif" font-size="10.00">_base.hpp</text>
</g>
<!-- Node2 -->
<g id="node2" class="node"><title>Node2</title>
<g id="a_node2"><a xlink:href="thrill_2common_2string_8hpp.html" target="_top" xlink:title="thrill/common/string.hpp">
<polygon fill="none" stroke="black" points="507.5,-124.5 507.5,-143.5 628.5,-143.5 628.5,-124.5 507.5,-124.5"/>
<text text-anchor="middle" x="568" y="-131.5" font-family="Helvetica,sans-Serif" font-size="10.00">thrill/common/string.hpp</text>
</a>
</g>
</g>
<!-- Node1&#45;&gt;Node2 -->
<g id="edge1" class="edge"><title>Node1&#45;&gt;Node2</title>
<path fill="none" stroke="midnightblue" d="M938.171,-187.882C863.524,-177.218 722.398,-157.057 637.61,-144.944"/>
<polygon fill="midnightblue" stroke="midnightblue" points="637.952,-141.458 627.558,-143.508 636.962,-148.387 637.952,-141.458"/>
</g>
<!-- Node17 -->
<g id="node17" class="node"><title>Node17</title>
<polygon fill="none" stroke="#bfbfbf" points="736.5,-68.5 736.5,-87.5 777.5,-87.5 777.5,-68.5 736.5,-68.5"/>
<text text-anchor="middle" x="757" y="-75.5" font-family="Helvetica,sans-Serif" font-size="10.00">string</text>
</g>
<!-- Node1&#45;&gt;Node17 -->
<g id="edge33" class="edge"><title>Node1&#45;&gt;Node17</title>
<path fill="none" stroke="midnightblue" d="M938.453,-181.505C909.937,-172.757 873.937,-160.007 844,-144 817.948,-130.07 791.195,-108.842 774.359,-94.4678"/>
<polygon fill="midnightblue" stroke="midnightblue" points="776.358,-91.5686 766.515,-87.6508 771.767,-96.8522 776.358,-91.5686"/>
</g>
<!-- Node18 -->
<g id="node18" class="node"><title>Node18</title>
<polygon fill="none" stroke="#bfbfbf" points="796,-68.5 796,-87.5 840,-87.5 840,-68.5 796,-68.5"/>
<text text-anchor="middle" x="818" y="-75.5" font-family="Helvetica,sans-Serif" font-size="10.00">vector</text>
</g>
<!-- Node1&#45;&gt;Node18 -->
<g id="edge35" class="edge"><title>Node1&#45;&gt;Node18</title>
<path fill="none" stroke="midnightblue" d="M938.444,-181.096C914.897,-172.865 887.311,-160.723 866,-144 849.501,-131.053 835.903,-111.061 827.444,-96.6666"/>
<polygon fill="midnightblue" stroke="midnightblue" points="830.385,-94.7561 822.436,-87.7514 824.282,-98.1842 830.385,-94.7561"/>
</g>
<!-- Node19 -->
<g id="node19" class="node"><title>Node19</title>
<g id="a_node19"><a xlink:href="malloc__tracker_8hpp.html" target="_top" xlink:title="thrill/mem/malloc_tracker.hpp">
<polygon fill="none" stroke="black" points="228.5,-124.5 228.5,-143.5 373.5,-143.5 373.5,-124.5 228.5,-124.5"/>
<text text-anchor="middle" x="301" y="-131.5" font-family="Helvetica,sans-Serif" font-size="10.00">thrill/mem/malloc_tracker.hpp</text>
</a>
</g>
</g>
<!-- Node1&#45;&gt;Node19 -->
<g id="edge18" class="edge"><title>Node1&#45;&gt;Node19</title>
<path fill="none" stroke="midnightblue" d="M938.316,-190.661C821.456,-180.455 528.179,-154.841 383.853,-142.236"/>
<polygon fill="midnightblue" stroke="midnightblue" points="383.99,-138.735 373.724,-141.351 383.381,-145.708 383.99,-138.735"/>
</g>
<!-- Node20 -->
<g id="node20" class="node"><title>Node20</title>
<g id="a_node20"><a xlink:href="mem_2manager_8hpp.html" target="_top" xlink:title="thrill/mem/manager.hpp">
<polygon fill="none" stroke="black" points="884.5,-124.5 884.5,-143.5 1003.5,-143.5 1003.5,-124.5 884.5,-124.5"/>
<text text-anchor="middle" x="944" y="-131.5" font-family="Helvetica,sans-Serif" font-size="10.00">thrill/mem/manager.hpp</text>
</a>
</g>
</g>
<!-- Node1&#45;&gt;Node20 -->
<g id="edge20" class="edge"><title>Node1&#45;&gt;Node20</title>
<path fill="none" stroke="midnightblue" d="M977.573,-180.781C971.245,-172.152 963.131,-161.088 956.466,-151.999"/>
<polygon fill="midnightblue" stroke="midnightblue" points="959.138,-149.725 950.402,-143.731 953.494,-153.864 959.138,-149.725"/>
</g>
<!-- Node22 -->
<g id="node22" class="node"><title>Node22</title>
<polygon fill="none" stroke="#bfbfbf" points="858,-68.5 858,-87.5 904,-87.5 904,-68.5 858,-68.5"/>
<text text-anchor="middle" x="881" y="-75.5" font-family="Helvetica,sans-Serif" font-size="10.00">atomic</text>
</g>
<!-- Node1&#45;&gt;Node22 -->
<g id="edge28" class="edge"><title>Node1&#45;&gt;Node22</title>
<path fill="none" stroke="midnightblue" d="M938.366,-185.573C914.931,-178.364 889.07,-165.787 875,-144 866.083,-130.193 869.196,-111.168 873.569,-97.2688"/>
<polygon fill="midnightblue" stroke="midnightblue" points="876.88,-98.4048 876.981,-87.8105 870.295,-96.0295 876.88,-98.4048"/>
</g>
<!-- Node23 -->
<g id="node23" class="node"><title>Node23</title>
<polygon fill="none" stroke="#bfbfbf" points="996.5,-68.5 996.5,-87.5 1045.5,-87.5 1045.5,-68.5 996.5,-68.5"/>
<text text-anchor="middle" x="1021" y="-75.5" font-family="Helvetica,sans-Serif" font-size="10.00">cassert</text>
</g>
<!-- Node1&#45;&gt;Node23 -->
<g id="edge29" class="edge"><title>Node1&#45;&gt;Node23</title>
<path fill="none" stroke="midnightblue" d="M996.146,-180.733C1001.48,-170.754 1008.16,-156.945 1012,-144 1016.52,-128.796 1018.78,-110.905 1019.91,-97.7465"/>
<polygon fill="midnightblue" stroke="midnightblue" points="1023.41,-97.8113 1020.64,-87.5873 1016.43,-97.3124 1023.41,-97.8113"/>
</g>
<!-- Node24 -->
<g id="node24" class="node"><title>Node24</title>
<g id="a_node24"><a xlink:href="extlib_2tlx_2tlx_2allocator__base_8hpp.html" target="_top" xlink:title="tlx/allocator_base.hpp">
<polygon fill="none" stroke="black" points="1060,-124.5 1060,-143.5 1172,-143.5 1172,-124.5 1060,-124.5"/>
<text text-anchor="middle" x="1116" y="-131.5" font-family="Helvetica,sans-Serif" font-size="10.00">tlx/allocator_base.hpp</text>
</a>
</g>
</g>
<!-- Node1&#45;&gt;Node24 -->
<g id="edge24" class="edge"><title>Node1&#45;&gt;Node24</title>
<path fill="none" stroke="midnightblue" d="M1018.01,-180.933C1039.32,-170.946 1067.7,-157.64 1088.44,-147.92"/>
<polygon fill="midnightblue" stroke="midnightblue" points="1090.08,-151.014 1097.65,-143.6 1087.11,-144.675 1090.08,-151.014"/>
</g>
<!-- Node27 -->
<g id="node27" class="node"><title>Node27</title>
<polygon fill="none" stroke="#bfbfbf" points="1201,-68.5 1201,-87.5 1263,-87.5 1263,-68.5 1201,-68.5"/>
<text text-anchor="middle" x="1232" y="-75.5" font-family="Helvetica,sans-Serif" font-size="10.00">type_traits</text>
</g>
<!-- Node1&#45;&gt;Node27 -->
<g id="edge34" class="edge"><title>Node1&#45;&gt;Node27</title>
<path fill="none" stroke="midnightblue" d="M1037.62,-190.487C1078.59,-184.826 1136.81,-172.164 1180,-144 1198.47,-131.956 1213.4,-111.179 1222.44,-96.3572"/>
<polygon fill="midnightblue" stroke="midnightblue" points="1225.51,-98.0333 1227.51,-87.6287 1219.46,-94.5159 1225.51,-98.0333"/>
</g>
<!-- Node28 -->
<g id="node28" class="node"><title>Node28</title>
<polygon fill="none" stroke="#bfbfbf" points="1228.5,-124.5 1228.5,-143.5 1271.5,-143.5 1271.5,-124.5 1228.5,-124.5"/>
<text text-anchor="middle" x="1250" y="-131.5" font-family="Helvetica,sans-Serif" font-size="10.00">deque</text>
</g>
<!-- Node1&#45;&gt;Node28 -->
<g id="edge30" class="edge"><title>Node1&#45;&gt;Node28</title>
<path fill="none" stroke="midnightblue" d="M1037.9,-184.086C1083.74,-173.976 1153.54,-158.377 1214,-144 1215.45,-143.655 1216.93,-143.3 1218.43,-142.937"/>
<polygon fill="midnightblue" stroke="midnightblue" points="1219.44,-146.292 1228.32,-140.506 1217.77,-139.494 1219.44,-146.292"/>
</g>
<!-- Node29 -->
<g id="node29" class="node"><title>Node29</title>
<polygon fill="none" stroke="#bfbfbf" points="1289.5,-124.5 1289.5,-143.5 1334.5,-143.5 1334.5,-124.5 1289.5,-124.5"/>
<text text-anchor="middle" x="1312" y="-131.5" font-family="Helvetica,sans-Serif" font-size="10.00">iosfwd</text>
</g>
<!-- Node1&#45;&gt;Node29 -->
<g id="edge31" class="edge"><title>Node1&#45;&gt;Node29</title>
<path fill="none" stroke="midnightblue" d="M1037.64,-187.897C1093.94,-179.494 1188.62,-164.31 1279.44,-143.926"/>
<polygon fill="midnightblue" stroke="midnightblue" points="1280.37,-147.303 1289.35,-141.677 1278.82,-140.477 1280.37,-147.303"/>
</g>
<!-- Node30 -->
<g id="node30" class="node"><title>Node30</title>
<polygon fill="none" stroke="#bfbfbf" points="1352.5,-124.5 1352.5,-143.5 1387.5,-143.5 1387.5,-124.5 1352.5,-124.5"/>
<text text-anchor="middle" x="1370" y="-131.5" font-family="Helvetica,sans-Serif" font-size="10.00">new</text>
</g>
<!-- Node1&#45;&gt;Node30 -->
<g id="edge32" class="edge"><title>Node1&#45;&gt;Node30</title>
<path fill="none" stroke="midnightblue" d="M1037.62,-190.701C1104.78,-184.263 1228.35,-170.224 1342.46,-143.715"/>
<polygon fill="midnightblue" stroke="midnightblue" points="1343.48,-147.07 1352.41,-141.366 1341.88,-140.257 1343.48,-147.07"/>
</g>
<!-- Node3 -->
<g id="node3" class="node"><title>Node3</title>
<g id="a_node3"><a xlink:href="define_8hpp.html" target="_top" xlink:title="tlx/define.hpp">
<polygon fill="none" stroke="black" points="295.5,-68.5 295.5,-87.5 370.5,-87.5 370.5,-68.5 295.5,-68.5"/>
<text text-anchor="middle" x="333" y="-75.5" font-family="Helvetica,sans-Serif" font-size="10.00">tlx/define.hpp</text>
</a>
</g>
</g>
<!-- Node2&#45;&gt;Node3 -->
<g id="edge2" class="edge"><title>Node2&#45;&gt;Node3</title>
<path fill="none" stroke="midnightblue" d="M530.764,-124.444C489.94,-115.063 424.357,-99.9926 380.016,-89.8036"/>
<polygon fill="midnightblue" stroke="midnightblue" points="380.592,-86.3449 370.062,-87.5164 379.024,-93.1671 380.592,-86.3449"/>
</g>
<!-- Node10 -->
<g id="node10" class="node"><title>Node10</title>
<g id="a_node10"><a xlink:href="unused_8hpp.html" target="_top" xlink:title="tlx/unused.hpp">
<polygon fill="none" stroke="black" points="389,-68.5 389,-87.5 469,-87.5 469,-68.5 389,-68.5"/>
<text text-anchor="middle" x="429" y="-75.5" font-family="Helvetica,sans-Serif" font-size="10.00">tlx/unused.hpp</text>
</a>
</g>
</g>
<!-- Node2&#45;&gt;Node10 -->
<g id="edge9" class="edge"><title>Node2&#45;&gt;Node10</title>
<path fill="none" stroke="midnightblue" d="M545.975,-124.444C522.896,-115.478 486.438,-101.314 460.359,-91.1827"/>
<polygon fill="midnightblue" stroke="midnightblue" points="461.511,-87.8753 450.922,-87.5164 458.976,-94.4002 461.511,-87.8753"/>
</g>
<!-- Node11 -->
<g id="node11" class="node"><title>Node11</title>
<polygon fill="none" stroke="#bfbfbf" points="487,-68.5 487,-87.5 525,-87.5 525,-68.5 487,-68.5"/>
<text text-anchor="middle" x="506" y="-75.5" font-family="Helvetica,sans-Serif" font-size="10.00">array</text>
</g>
<!-- Node2&#45;&gt;Node11 -->
<g id="edge10" class="edge"><title>Node2&#45;&gt;Node11</title>
<path fill="none" stroke="midnightblue" d="M558.039,-124.324C548.873,-116.341 535.063,-104.313 523.972,-94.6529"/>
<polygon fill="midnightblue" stroke="midnightblue" points="525.982,-91.7624 516.143,-87.8339 521.385,-97.041 525.982,-91.7624"/>
</g>
<!-- Node12 -->
<g id="node12" class="node"><title>Node12</title>
<polygon fill="none" stroke="#bfbfbf" points="543.5,-68.5 543.5,-87.5 592.5,-87.5 592.5,-68.5 543.5,-68.5"/>
<text text-anchor="middle" x="568" y="-75.5" font-family="Helvetica,sans-Serif" font-size="10.00">cstdarg</text>
</g>
<!-- Node2&#45;&gt;Node12 -->
<g id="edge11" class="edge"><title>Node2&#45;&gt;Node12</title>
<path fill="none" stroke="midnightblue" d="M568,-124.083C568,-117.006 568,-106.861 568,-97.9865"/>
<polygon fill="midnightblue" stroke="midnightblue" points="571.5,-97.751 568,-87.7511 564.5,-97.7511 571.5,-97.751"/>
</g>
<!-- Node13 -->
<g id="node13" class="node"><title>Node13</title>
<polygon fill="none" stroke="#bfbfbf" points="161.5,-68.5 161.5,-87.5 206.5,-87.5 206.5,-68.5 161.5,-68.5"/>
<text text-anchor="middle" x="184" y="-75.5" font-family="Helvetica,sans-Serif" font-size="10.00">cstdlib</text>
</g>
<!-- Node2&#45;&gt;Node13 -->
<g id="edge12" class="edge"><title>Node2&#45;&gt;Node13</title>
<path fill="none" stroke="midnightblue" d="M507.454,-127.988C439.101,-121.72 324.476,-109.376 216.697,-87.8503"/>
<polygon fill="midnightblue" stroke="midnightblue" points="217.121,-84.365 206.625,-85.8074 215.73,-91.2253 217.121,-84.365"/>
</g>
<!-- Node14 -->
<g id="node14" class="node"><title>Node14</title>
<polygon fill="none" stroke="#bfbfbf" points="611,-68.5 611,-87.5 651,-87.5 651,-68.5 611,-68.5"/>
<text text-anchor="middle" x="631" y="-75.5" font-family="Helvetica,sans-Serif" font-size="10.00">limits</text>
</g>
<!-- Node2&#45;&gt;Node14 -->
<g id="edge13" class="edge"><title>Node2&#45;&gt;Node14</title>
<path fill="none" stroke="midnightblue" d="M578.122,-124.324C587.526,-116.263 601.744,-104.077 613.069,-94.3695"/>
<polygon fill="midnightblue" stroke="midnightblue" points="615.379,-96.9993 620.694,-87.8339 610.823,-91.6844 615.379,-96.9993"/>
</g>
<!-- Node15 -->
<g id="node15" class="node"><title>Node15</title>
<polygon fill="none" stroke="#bfbfbf" points="669.5,-68.5 669.5,-87.5 718.5,-87.5 718.5,-68.5 669.5,-68.5"/>
<text text-anchor="middle" x="694" y="-75.5" font-family="Helvetica,sans-Serif" font-size="10.00">random</text>
</g>
<!-- Node2&#45;&gt;Node15 -->
<g id="edge14" class="edge"><title>Node2&#45;&gt;Node15</title>
<path fill="none" stroke="midnightblue" d="M587.965,-124.444C608.609,-115.596 641.063,-101.687 664.632,-91.5865"/>
<polygon fill="midnightblue" stroke="midnightblue" points="666.316,-94.6727 674.128,-87.5164 663.558,-88.2387 666.316,-94.6727"/>
</g>
<!-- Node16 -->
<g id="node16" class="node"><title>Node16</title>
<polygon fill="none" stroke="#bfbfbf" points="225,-68.5 225,-87.5 277,-87.5 277,-68.5 225,-68.5"/>
<text text-anchor="middle" x="251" y="-75.5" font-family="Helvetica,sans-Serif" font-size="10.00">sstream</text>
</g>
<!-- Node2&#45;&gt;Node16 -->
<g id="edge15" class="edge"><title>Node2&#45;&gt;Node16</title>
<path fill="none" stroke="midnightblue" d="M507.466,-125.009C452.397,-117.362 368.696,-104.796 287.233,-88.103"/>
<polygon fill="midnightblue" stroke="midnightblue" points="287.814,-84.6491 277.312,-86.0468 286.393,-91.5035 287.814,-84.6491"/>
</g>
<!-- Node2&#45;&gt;Node17 -->
<g id="edge16" class="edge"><title>Node2&#45;&gt;Node17</title>
<path fill="none" stroke="midnightblue" d="M598.819,-124.432C628.94,-116.023 676.338,-102.703 726.605,-88.0817"/>
<polygon fill="midnightblue" stroke="midnightblue" points="727.735,-91.3981 736.356,-85.2395 725.776,-84.6778 727.735,-91.3981"/>
</g>
<!-- Node2&#45;&gt;Node18 -->
<g id="edge17" class="edge"><title>Node2&#45;&gt;Node18</title>
<path fill="none" stroke="midnightblue" d="M614.143,-124.456C656.251,-116.44 720.405,-103.678 785.624,-87.9428"/>
<polygon fill="midnightblue" stroke="midnightblue" points="786.785,-91.2625 795.673,-85.4963 785.129,-84.4611 786.785,-91.2625"/>
</g>
<!-- Node4 -->
<g id="node4" class="node"><title>Node4</title>
<g id="a_node4"><a xlink:href="attribute__always__inline_8hpp.html" target="_top" xlink:title="tlx/define/attribute\l_always_inline.hpp">
<polygon fill="none" stroke="black" points="-0.5,-1 -0.5,-31 98.5,-31 98.5,-1 -0.5,-1"/>
<text text-anchor="start" x="7.5" y="-19" font-family="Helvetica,sans-Serif" font-size="10.00">tlx/define/attribute</text>
<text text-anchor="middle" x="49" y="-8" font-family="Helvetica,sans-Serif" font-size="10.00">_always_inline.hpp</text>
</a>
</g>
</g>
<!-- Node3&#45;&gt;Node4 -->
<g id="edge3" class="edge"><title>Node3&#45;&gt;Node4</title>
<path fill="none" stroke="midnightblue" d="M295.261,-69.7542C244.496,-59.9647 155.91,-42.7218 108.617,-32.2785"/>
<polygon fill="midnightblue" stroke="midnightblue" points="109.153,-28.8118 98.629,-30.0319 107.617,-35.6412 109.153,-28.8118"/>
</g>
<!-- Node5 -->
<g id="node5" class="node"><title>Node5</title>
<g id="a_node5"><a xlink:href="attribute__fallthrough_8hpp.html" target="_top" xlink:title="tlx/define/attribute\l_fallthrough.hpp">
<polygon fill="none" stroke="black" points="116.5,-1 116.5,-31 211.5,-31 211.5,-1 116.5,-1"/>
<text text-anchor="start" x="124.5" y="-19" font-family="Helvetica,sans-Serif" font-size="10.00">tlx/define/attribute</text>
<text text-anchor="middle" x="164" y="-8" font-family="Helvetica,sans-Serif" font-size="10.00">_fallthrough.hpp</text>
</a>
</g>
</g>
<!-- Node3&#45;&gt;Node5 -->
<g id="edge4" class="edge"><title>Node3&#45;&gt;Node5</title>
<path fill="none" stroke="midnightblue" d="M308.786,-68.4035C283.89,-59.5644 244.424,-45.553 212.98,-34.3895"/>
<polygon fill="midnightblue" stroke="midnightblue" points="214.099,-31.0728 203.505,-31.0253 211.757,-37.6694 214.099,-31.0728"/>
</g>
<!-- Node6 -->
<g id="node6" class="node"><title>Node6</title>
<g id="a_node6"><a xlink:href="attribute__format__printf_8hpp.html" target="_top" xlink:title="tlx/define/attribute\l_format_printf.hpp">
<polygon fill="none" stroke="black" points="229.5,-1 229.5,-31 324.5,-31 324.5,-1 229.5,-1"/>
<text text-anchor="start" x="237.5" y="-19" font-family="Helvetica,sans-Serif" font-size="10.00">tlx/define/attribute</text>
<text text-anchor="middle" x="277" y="-8" font-family="Helvetica,sans-Serif" font-size="10.00">_format_printf.hpp</text>
</a>
</g>
</g>
<!-- Node3&#45;&gt;Node6 -->
<g id="edge5" class="edge"><title>Node3&#45;&gt;Node6</title>
<path fill="none" stroke="midnightblue" d="M324.977,-68.4035C317.747,-60.657 306.809,-48.9379 297.202,-38.6447"/>
<polygon fill="midnightblue" stroke="midnightblue" points="299.58,-36.0633 290.198,-31.1408 294.463,-40.8395 299.58,-36.0633"/>
</g>
<!-- Node7 -->
<g id="node7" class="node"><title>Node7</title>
<g id="a_node7"><a xlink:href="attribute__packed_8hpp.html" target="_top" xlink:title="tlx/define/attribute\l_packed.hpp">
<polygon fill="none" stroke="black" points="342.5,-1 342.5,-31 437.5,-31 437.5,-1 342.5,-1"/>
<text text-anchor="start" x="350.5" y="-19" font-family="Helvetica,sans-Serif" font-size="10.00">tlx/define/attribute</text>
<text text-anchor="middle" x="390" y="-8" font-family="Helvetica,sans-Serif" font-size="10.00">_packed.hpp</text>
</a>
</g>
</g>
<!-- Node3&#45;&gt;Node7 -->
<g id="edge6" class="edge"><title>Node3&#45;&gt;Node7</title>
<path fill="none" stroke="midnightblue" d="M341.167,-68.4035C348.526,-60.657 359.659,-48.9379 369.438,-38.6447"/>
<polygon fill="midnightblue" stroke="midnightblue" points="372.216,-40.8015 376.566,-31.1408 367.141,-35.9802 372.216,-40.8015"/>
</g>
<!-- Node8 -->
<g id="node8" class="node"><title>Node8</title>
<g id="a_node8"><a xlink:href="attribute__warn__unused__result_8hpp.html" target="_top" xlink:title="tlx/define/attribute\l_warn_unused_result.hpp">
<polygon fill="none" stroke="black" points="456,-1 456,-31 584,-31 584,-1 456,-1"/>
<text text-anchor="start" x="464" y="-19" font-family="Helvetica,sans-Serif" font-size="10.00">tlx/define/attribute</text>
<text text-anchor="middle" x="520" y="-8" font-family="Helvetica,sans-Serif" font-size="10.00">_warn_unused_result.hpp</text>
</a>
</g>
</g>
<!-- Node3&#45;&gt;Node8 -->
<g id="edge7" class="edge"><title>Node3&#45;&gt;Node8</title>
<path fill="none" stroke="midnightblue" d="M359.793,-68.4035C387.578,-59.4882 431.764,-45.311 466.7,-34.1014"/>
<polygon fill="midnightblue" stroke="midnightblue" points="467.835,-37.4132 476.288,-31.0253 465.697,-30.7479 467.835,-37.4132"/>
</g>
<!-- Node9 -->
<g id="node9" class="node"><title>Node9</title>
<g id="a_node9"><a xlink:href="likely_8hpp.html" target="_top" xlink:title="tlx/define/likely.hpp">
<polygon fill="none" stroke="black" points="602.5,-6.5 602.5,-25.5 703.5,-25.5 703.5,-6.5 602.5,-6.5"/>
<text text-anchor="middle" x="653" y="-13.5" font-family="Helvetica,sans-Serif" font-size="10.00">tlx/define/likely.hpp</text>
</a>
</g>
</g>
<!-- Node3&#45;&gt;Node9 -->
<g id="edge8" class="edge"><title>Node3&#45;&gt;Node9</title>
<path fill="none" stroke="midnightblue" d="M370.697,-69.7067C373.842,-69.1209 376.975,-68.5452 380,-68 474.487,-50.9707 499.025,-51.6576 593,-32 598.79,-30.7888 604.867,-29.4042 610.839,-27.9769"/>
<polygon fill="midnightblue" stroke="midnightblue" points="611.841,-31.3352 620.722,-25.5577 610.176,-24.536 611.841,-31.3352"/>
</g>
<!-- Node19&#45;&gt;Node13 -->
<g id="edge19" class="edge"><title>Node19&#45;&gt;Node13</title>
<path fill="none" stroke="midnightblue" d="M282.461,-124.444C263.377,-115.636 233.425,-101.812 211.564,-91.722"/>
<polygon fill="midnightblue" stroke="midnightblue" points="212.999,-88.5292 202.452,-87.5164 210.065,-94.8849 212.999,-88.5292"/>
</g>
<!-- Node21 -->
<g id="node21" class="node"><title>Node21</title>
<polygon fill="none" stroke="#bfbfbf" points="922,-68.5 922,-87.5 978,-87.5 978,-68.5 922,-68.5"/>
<text text-anchor="middle" x="950" y="-75.5" font-family="Helvetica,sans-Serif" font-size="10.00">algorithm</text>
</g>
<!-- Node20&#45;&gt;Node21 -->
<g id="edge21" class="edge"><title>Node20&#45;&gt;Node21</title>
<path fill="none" stroke="midnightblue" d="M944.991,-124.083C945.786,-116.927 946.929,-106.635 947.923,-97.6911"/>
<polygon fill="midnightblue" stroke="midnightblue" points="951.402,-98.0765 949.028,-87.7511 944.445,-97.3034 951.402,-98.0765"/>
</g>
<!-- Node20&#45;&gt;Node22 -->
<g id="edge22" class="edge"><title>Node20&#45;&gt;Node22</title>
<path fill="none" stroke="midnightblue" d="M933.878,-124.324C924.474,-116.263 910.256,-104.077 898.931,-94.3695"/>
<polygon fill="midnightblue" stroke="midnightblue" points="901.177,-91.6844 891.306,-87.8339 896.621,-96.9993 901.177,-91.6844"/>
</g>
<!-- Node20&#45;&gt;Node23 -->
<g id="edge23" class="edge"><title>Node20&#45;&gt;Node23</title>
<path fill="none" stroke="midnightblue" d="M956.371,-124.324C968.158,-116.058 986.132,-103.453 1000.14,-93.6322"/>
<polygon fill="midnightblue" stroke="midnightblue" points="1002.48,-96.2619 1008.66,-87.6545 998.462,-90.5307 1002.48,-96.2619"/>
</g>
<!-- Node25 -->
<g id="node25" class="node"><title>Node25</title>
<polygon fill="none" stroke="#bfbfbf" points="1063.5,-68.5 1063.5,-87.5 1112.5,-87.5 1112.5,-68.5 1063.5,-68.5"/>
<text text-anchor="middle" x="1088" y="-75.5" font-family="Helvetica,sans-Serif" font-size="10.00">cstddef</text>
</g>
<!-- Node24&#45;&gt;Node25 -->
<g id="edge25" class="edge"><title>Node24&#45;&gt;Node25</title>
<path fill="none" stroke="midnightblue" d="M1111.38,-124.083C1107.54,-116.691 1101.98,-105.953 1097.24,-96.8111"/>
<polygon fill="midnightblue" stroke="midnightblue" points="1100.25,-95.0175 1092.54,-87.7511 1094.03,-98.2398 1100.25,-95.0175"/>
</g>
<!-- Node26 -->
<g id="node26" class="node"><title>Node26</title>
<polygon fill="none" stroke="#bfbfbf" points="1131,-68.5 1131,-87.5 1183,-87.5 1183,-68.5 1131,-68.5"/>
<text text-anchor="middle" x="1157" y="-75.5" font-family="Helvetica,sans-Serif" font-size="10.00">memory</text>
</g>
<!-- Node24&#45;&gt;Node26 -->
<g id="edge26" class="edge"><title>Node24&#45;&gt;Node26</title>
<path fill="none" stroke="midnightblue" d="M1122.77,-124.083C1128.56,-116.455 1137.06,-105.264 1144.14,-95.9408"/>
<polygon fill="midnightblue" stroke="midnightblue" points="1147.1,-97.8321 1150.36,-87.7511 1141.52,-93.5991 1147.1,-97.8321"/>
</g>
<!-- Node24&#45;&gt;Node27 -->
<g id="edge27" class="edge"><title>Node24&#45;&gt;Node27</title>
<path fill="none" stroke="midnightblue" d="M1134.38,-124.444C1153.22,-115.675 1182.73,-101.935 1204.38,-91.8579"/>
<polygon fill="midnightblue" stroke="midnightblue" points="1206.12,-94.9098 1213.71,-87.5164 1203.16,-88.5637 1206.12,-94.9098"/>
</g>
</g>
</svg>
