<?xml version="1.0" encoding="UTF-8" standalone="no"?>
<!DOCTYPE svg PUBLIC "-//W3C//DTD SVG 1.1//EN"
 "http://www.w3.org/Graphics/SVG/1.1/DTD/svg11.dtd">
<!-- Generated by graphviz version 2.26.3 (20100126.1600)
 -->
<!-- Title: thrill/common/logger.cpp Pages: 1 -->
<svg width="1582pt" height="406pt"
 viewBox="0.00 0.00 1582.00 406.00" xmlns="http://www.w3.org/2000/svg" xmlns:xlink="http://www.w3.org/1999/xlink">
<g id="graph1" class="graph" transform="scale(1 1) rotate(0) translate(4 402)">
<title>thrill/common/logger.cpp</title>
<!-- Node1 -->
<g id="node1" class="node"><title>Node1</title>
<polygon fill="#bfbfbf" stroke="black" points="1200.5,-376.5 1200.5,-397.5 1323.5,-397.5 1323.5,-376.5 1200.5,-376.5"/>
<text text-anchor="middle" x="1262" y="-384.5" font-family="Helvetica,sans-Serif" font-size="10.00">thrill/common/logger.cpp</text>
</g>
<!-- Node2 -->
<g id="node3" class="node"><title>Node2</title>
<a xlink:href="thrill_2common_2logger_8hpp.html" target="_top" xlink:title="thrill/common/logger.hpp">
<polygon fill="none" stroke="black" points="934.5,-318.5 934.5,-339.5 1057.5,-339.5 1057.5,-318.5 934.5,-318.5"/>
<text text-anchor="middle" x="996" y="-326.5" font-family="Helvetica,sans-Serif" font-size="10.00">thrill/common/logger.hpp</text>
</a>
</g>
<!-- Node1&#45;&gt;Node2 -->
<g id="edge2" class="edge"><title>Node1&#45;&gt;Node2</title>
<path fill="none" stroke="midnightblue" d="M1213.83,-376.497C1168.96,-366.714 1101.99,-352.111 1054.16,-341.682"/>
<polygon fill="midnightblue" stroke="midnightblue" points="1054.78,-338.234 1044.26,-339.523 1053.29,-345.073 1054.78,-338.234"/>
</g>
<!-- Node19 -->
<g id="node37" class="node"><title>Node19</title>
<polygon fill="none" stroke="#bfbfbf" points="135.5,-72.5 135.5,-93.5 176.5,-93.5 176.5,-72.5 135.5,-72.5"/>
<text text-anchor="middle" x="156" y="-80.5" font-family="Helvetica,sans-Serif" font-size="10.00">string</text>
</g>
<!-- Node1&#45;&gt;Node19 -->
<g id="edge134" class="edge"><title>Node1&#45;&gt;Node19</title>
<path fill="none" stroke="midnightblue" d="M1200.28,-384.601C946.906,-374.356 0,-331.987 0,-271 0,-271 0,-271 0,-206 0,-142.673 80.2514,-106.912 125.635,-91.7518"/>
<polygon fill="midnightblue" stroke="midnightblue" points="126.828,-95.045 135.284,-88.6625 124.693,-88.3784 126.828,-95.045"/>
</g>
<!-- Node22 -->
<g id="node44" class="node"><title>Node22</title>
<a xlink:href="mem_2manager_8hpp.html" target="_top" xlink:title="thrill/mem/manager.hpp">
<polygon fill="none" stroke="black" points="1339.5,-130.5 1339.5,-151.5 1458.5,-151.5 1458.5,-130.5 1339.5,-130.5"/>
<text text-anchor="middle" x="1399" y="-138.5" font-family="Helvetica,sans-Serif" font-size="10.00">thrill/mem/manager.hpp</text>
</a>
</g>
<!-- Node1&#45;&gt;Node22 -->
<g id="edge122" class="edge"><title>Node1&#45;&gt;Node22</title>
<path fill="none" stroke="midnightblue" d="M1257.63,-376.386C1252.61,-362.55 1245.89,-337.783 1253,-318 1259.77,-299.148 1346.03,-200.651 1382.69,-159.303"/>
<polygon fill="midnightblue" stroke="midnightblue" points="1385.5,-161.416 1389.52,-151.615 1380.26,-156.768 1385.5,-161.416"/>
</g>
<!-- Node36 -->
<g id="node90" class="node"><title>Node36</title>
<polygon fill="none" stroke="#bfbfbf" points="66,-195.5 66,-216.5 110,-216.5 110,-195.5 66,-195.5"/>
<text text-anchor="middle" x="88" y="-203.5" font-family="Helvetica,sans-Serif" font-size="10.00">mutex</text>
</g>
<!-- Node1&#45;&gt;Node36 -->
<g id="edge132" class="edge"><title>Node1&#45;&gt;Node36</title>
<path fill="none" stroke="midnightblue" d="M1200.35,-382.166C1055.98,-370.305 685.034,-336.676 379,-282 270.123,-262.548 242.867,-256.012 137,-224 131.47,-222.328 125.655,-220.372 120.041,-218.378"/>
<polygon fill="midnightblue" stroke="midnightblue" points="120.85,-214.947 110.256,-214.8 118.446,-221.521 120.85,-214.947"/>
</g>
<!-- Node37 -->
<g id="node94" class="node"><title>Node37</title>
<polygon fill="none" stroke="#bfbfbf" points="560,-195.5 560,-216.5 600,-216.5 600,-195.5 560,-195.5"/>
<text text-anchor="middle" x="580" y="-203.5" font-family="Helvetica,sans-Serif" font-size="10.00">utility</text>
</g>
<!-- Node1&#45;&gt;Node37 -->
<g id="edge138" class="edge"><title>Node1&#45;&gt;Node37</title>
<path fill="none" stroke="midnightblue" d="M1235.73,-376.487C1198.45,-361.862 1127.86,-335.237 1066,-318 868.344,-262.921 807.029,-293.581 614,-224 611.581,-223.128 609.121,-222.111 606.686,-221.013"/>
<polygon fill="midnightblue" stroke="midnightblue" points="608.081,-217.798 597.566,-216.506 604.98,-224.074 608.081,-217.798"/>
</g>
<!-- Node38 -->
<g id="node100" class="node"><title>Node38</title>
<polygon fill="none" stroke="#bfbfbf" points="1261.5,-318.5 1261.5,-339.5 1320.5,-339.5 1320.5,-318.5 1261.5,-318.5"/>
<text text-anchor="middle" x="1291" y="-326.5" font-family="Helvetica,sans-Serif" font-size="10.00">functional</text>
</g>
<!-- Node1&#45;&gt;Node38 -->
<g id="edge124" class="edge"><title>Node1&#45;&gt;Node38</title>
<path fill="none" stroke="midnightblue" d="M1267.32,-376.362C1271.2,-368.595 1276.58,-357.843 1281.23,-348.546"/>
<polygon fill="midnightblue" stroke="midnightblue" points="1284.37,-350.08 1285.71,-339.571 1278.11,-346.95 1284.37,-350.08"/>
</g>
<!-- Node39 -->
<g id="node102" class="node"><title>Node39</title>
<polygon fill="none" stroke="#bfbfbf" points="1338,-318.5 1338,-339.5 1388,-339.5 1388,-318.5 1338,-318.5"/>
<text text-anchor="middle" x="1363" y="-326.5" font-family="Helvetica,sans-Serif" font-size="10.00">iomanip</text>
</g>
<!-- Node1&#45;&gt;Node39 -->
<g id="edge126" class="edge"><title>Node1&#45;&gt;Node39</title>
<path fill="none" stroke="midnightblue" d="M1280.52,-376.362C1295.9,-367.532 1318,-354.844 1335.45,-344.822"/>
<polygon fill="midnightblue" stroke="midnightblue" points="1337.66,-347.586 1344.59,-339.571 1334.18,-341.515 1337.66,-347.586"/>
</g>
<!-- Node40 -->
<g id="node104" class="node"><title>Node40</title>
<polygon fill="none" stroke="#bfbfbf" points="1406,-318.5 1406,-339.5 1460,-339.5 1460,-318.5 1406,-318.5"/>
<text text-anchor="middle" x="1433" y="-326.5" font-family="Helvetica,sans-Serif" font-size="10.00">iostream</text>
</g>
<!-- Node1&#45;&gt;Node40 -->
<g id="edge128" class="edge"><title>Node1&#45;&gt;Node40</title>
<path fill="none" stroke="midnightblue" d="M1292.97,-376.497C1322.06,-366.629 1365.61,-351.857 1396.41,-341.411"/>
<polygon fill="midnightblue" stroke="midnightblue" points="1397.58,-344.71 1405.92,-338.184 1395.33,-338.081 1397.58,-344.71"/>
</g>
<!-- Node41 -->
<g id="node106" class="node"><title>Node41</title>
<polygon fill="none" stroke="#bfbfbf" points="1477.5,-318.5 1477.5,-339.5 1512.5,-339.5 1512.5,-318.5 1477.5,-318.5"/>
<text text-anchor="middle" x="1495" y="-326.5" font-family="Helvetica,sans-Serif" font-size="10.00">map</text>
</g>
<!-- Node1&#45;&gt;Node41 -->
<g id="edge130" class="edge"><title>Node1&#45;&gt;Node41</title>
<path fill="none" stroke="midnightblue" d="M1321.19,-376.455C1360.63,-368.769 1413.65,-357.175 1467.54,-340.127"/>
<polygon fill="midnightblue" stroke="midnightblue" points="1468.81,-343.396 1477.25,-336.997 1466.66,-336.733 1468.81,-343.396"/>
</g>
<!-- Node42 -->
<g id="node110" class="node"><title>Node42</title>
<polygon fill="none" stroke="#bfbfbf" points="1530,-318.5 1530,-339.5 1574,-339.5 1574,-318.5 1530,-318.5"/>
<text text-anchor="middle" x="1552" y="-326.5" font-family="Helvetica,sans-Serif" font-size="10.00">thread</text>
</g>
<!-- Node1&#45;&gt;Node42 -->
<g id="edge136" class="edge"><title>Node1&#45;&gt;Node42</title>
<path fill="none" stroke="midnightblue" d="M1323.58,-378.688C1374.18,-371.21 1447.77,-358.847 1520.06,-339.952"/>
<polygon fill="midnightblue" stroke="midnightblue" points="1521.02,-343.318 1529.78,-337.367 1519.22,-336.553 1521.02,-343.318"/>
</g>
<!-- Node3 -->
<g id="node5" class="node"><title>Node3</title>
<a xlink:href="allocator_8hpp.html" target="_top" xlink:title="thrill/mem/allocator.hpp">
<polygon fill="none" stroke="black" points="1151,-260.5 1151,-281.5 1269,-281.5 1269,-260.5 1151,-260.5"/>
<text text-anchor="middle" x="1210" y="-268.5" font-family="Helvetica,sans-Serif" font-size="10.00">thrill/mem/allocator.hpp</text>
</a>
</g>
<!-- Node2&#45;&gt;Node3 -->
<g id="edge4" class="edge"><title>Node2&#45;&gt;Node3</title>
<path fill="none" stroke="midnightblue" d="M1034.75,-318.497C1070.25,-308.877 1122.93,-294.598 1161.26,-284.209"/>
<polygon fill="midnightblue" stroke="midnightblue" points="1162.44,-287.517 1171.17,-281.523 1160.61,-280.761 1162.44,-287.517"/>
</g>
<!-- Node18 -->
<g id="node35" class="node"><title>Node18</title>
<polygon fill="none" stroke="#bfbfbf" points="1211,-72.5 1211,-93.5 1263,-93.5 1263,-72.5 1211,-72.5"/>
<text text-anchor="middle" x="1237" y="-80.5" font-family="Helvetica,sans-Serif" font-size="10.00">sstream</text>
</g>
<!-- Node2&#45;&gt;Node18 -->
<g id="edge118" class="edge"><title>Node2&#45;&gt;Node18</title>
<path fill="none" stroke="midnightblue" d="M1020.16,-318.39C1085.37,-289.202 1262.16,-206.277 1293,-152 1304.17,-132.341 1284.2,-112.577 1265.08,-99.2715"/>
<polygon fill="midnightblue" stroke="midnightblue" points="1266.75,-96.1845 1256.47,-93.6361 1262.92,-102.041 1266.75,-96.1845"/>
</g>
<!-- Node2&#45;&gt;Node19 -->
<g id="edge120" class="edge"><title>Node2&#45;&gt;Node19</title>
<path fill="none" stroke="midnightblue" d="M934.419,-326.937C734.527,-319.598 113.419,-291.489 57,-224 21.2407,-181.224 90.0443,-125.986 130.098,-99.1131"/>
<polygon fill="midnightblue" stroke="midnightblue" points="132.188,-101.928 138.635,-93.5202 128.352,-96.0727 132.188,-101.928"/>
</g>
<!-- Node33 -->
<g id="node80" class="node"><title>Node33</title>
<a xlink:href="pool_8hpp.html" target="_top" xlink:title="thrill/mem/pool.hpp">
<polygon fill="none" stroke="black" points="387.5,-260.5 387.5,-281.5 486.5,-281.5 486.5,-260.5 387.5,-260.5"/>
<text text-anchor="middle" x="437" y="-268.5" font-family="Helvetica,sans-Serif" font-size="10.00">thrill/mem/pool.hpp</text>
</a>
</g>
<!-- Node2&#45;&gt;Node33 -->
<g id="edge94" class="edge"><title>Node2&#45;&gt;Node33</title>
<path fill="none" stroke="midnightblue" d="M934.31,-322.599C826.071,-311.369 603.331,-288.258 496.592,-277.183"/>
<polygon fill="midnightblue" stroke="midnightblue" points="496.94,-273.7 486.632,-276.15 496.217,-280.663 496.94,-273.7"/>
</g>
<!-- Node4 -->
<g id="node7" class="node"><title>Node4</title>
<a xlink:href="thrill_2mem_2allocator__base_8hpp.html" target="_top" xlink:title="thrill/mem/allocator\l_base.hpp">
<polygon fill="none" stroke="black" points="943.5,-189 943.5,-223 1042.5,-223 1042.5,-189 943.5,-189"/>
<text text-anchor="start" x="951.5" y="-210" font-family="Helvetica,sans-Serif" font-size="10.00">thrill/mem/allocator</text>
<text text-anchor="middle" x="993" y="-197" font-family="Helvetica,sans-Serif" font-size="10.00">_base.hpp</text>
</a>
</g>
<!-- Node3&#45;&gt;Node4 -->
<g id="edge6" class="edge"><title>Node3&#45;&gt;Node4</title>
<path fill="none" stroke="midnightblue" d="M1174.65,-260.412C1141.55,-250.496 1091.44,-235.487 1052.23,-223.742"/>
<polygon fill="midnightblue" stroke="midnightblue" points="1053.1,-220.348 1042.51,-220.831 1051.09,-227.053 1053.1,-220.348"/>
</g>
<!-- Node3&#45;&gt;Node19 -->
<g id="edge88" class="edge"><title>Node3&#45;&gt;Node19</title>
<path fill="none" stroke="midnightblue" d="M1150.83,-268.544C1014.58,-262.541 686.87,-245.991 642,-224 622.51,-214.448 628.379,-197.775 609,-188 473.327,-119.565 412.911,-200.786 269,-152 234.177,-140.195 198.753,-116.203 177.075,-99.8626"/>
<polygon fill="midnightblue" stroke="midnightblue" points="178.995,-96.9231 168.936,-93.5964 174.725,-102.47 178.995,-96.9231"/>
</g>
<!-- Node20 -->
<g id="node39" class="node"><title>Node20</title>
<polygon fill="none" stroke="#bfbfbf" points="636,-72.5 636,-93.5 680,-93.5 680,-72.5 636,-72.5"/>
<text text-anchor="middle" x="658" y="-80.5" font-family="Helvetica,sans-Serif" font-size="10.00">vector</text>
</g>
<!-- Node3&#45;&gt;Node20 -->
<g id="edge92" class="edge"><title>Node3&#45;&gt;Node20</title>
<path fill="none" stroke="midnightblue" d="M1150.87,-265.518C1026.93,-252.834 745.835,-217.428 679,-152 666.112,-139.383 661.078,-119.12 659.141,-103.809"/>
<polygon fill="midnightblue" stroke="midnightblue" points="662.614,-103.352 658.21,-93.7164 655.644,-103.996 662.614,-103.352"/>
</g>
<!-- Node3&#45;&gt;Node22 -->
<g id="edge76" class="edge"><title>Node3&#45;&gt;Node22</title>
<path fill="none" stroke="midnightblue" d="M1225.47,-260.362C1258.36,-237.737 1335.46,-184.705 1374.87,-157.595"/>
<polygon fill="midnightblue" stroke="midnightblue" points="1377.33,-160.154 1383.58,-151.603 1373.36,-154.387 1377.33,-160.154"/>
</g>
<!-- Node25 -->
<g id="node50" class="node"><title>Node25</title>
<polygon fill="none" stroke="#bfbfbf" points="1418.5,-72.5 1418.5,-93.5 1467.5,-93.5 1467.5,-72.5 1418.5,-72.5"/>
<text text-anchor="middle" x="1443" y="-80.5" font-family="Helvetica,sans-Serif" font-size="10.00">cassert</text>
</g>
<!-- Node3&#45;&gt;Node25 -->
<g id="edge78" class="edge"><title>Node3&#45;&gt;Node25</title>
<path fill="none" stroke="midnightblue" d="M1269.11,-262.405C1330.72,-249.933 1424.14,-220.306 1467,-152 1476.71,-136.519 1467.89,-116.605 1458.32,-102.153"/>
<polygon fill="midnightblue" stroke="midnightblue" points="1461.1,-100.026 1452.42,-93.949 1455.41,-104.112 1461.1,-100.026"/>
</g>
<!-- Node28 -->
<g id="node56" class="node"><title>Node28</title>
<polygon fill="none" stroke="#bfbfbf" points="302,-72.5 302,-93.5 354,-93.5 354,-72.5 302,-72.5"/>
<text text-anchor="middle" x="328" y="-80.5" font-family="Helvetica,sans-Serif" font-size="10.00">memory</text>
</g>
<!-- Node3&#45;&gt;Node28 -->
<g id="edge84" class="edge"><title>Node3&#45;&gt;Node28</title>
<path fill="none" stroke="midnightblue" d="M1150.57,-267.935C1021.16,-260.944 722.056,-242.954 680,-224 658.79,-214.441 663.049,-197.907 642,-188 522.492,-131.752 447.015,-238.273 347,-152 333.297,-140.18 329.036,-119.475 327.909,-103.821"/>
<polygon fill="midnightblue" stroke="midnightblue" points="331.396,-103.387 327.552,-93.5145 324.4,-103.63 331.396,-103.387"/>
</g>
<!-- Node29 -->
<g id="node58" class="node"><title>Node29</title>
<polygon fill="none" stroke="#bfbfbf" points="503,-72.5 503,-93.5 565,-93.5 565,-72.5 503,-72.5"/>
<text text-anchor="middle" x="534" y="-80.5" font-family="Helvetica,sans-Serif" font-size="10.00">type_traits</text>
</g>
<!-- Node3&#45;&gt;Node29 -->
<g id="edge90" class="edge"><title>Node3&#45;&gt;Node29</title>
<path fill="none" stroke="midnightblue" d="M1150.91,-265.127C1024.59,-252.569 739.601,-224.22 739,-224 718.767,-216.592 605.55,-135.084 556.577,-99.4793"/>
<polygon fill="midnightblue" stroke="midnightblue" points="558.63,-96.6442 548.485,-93.5884 554.51,-102.304 558.63,-96.6442"/>
</g>
<!-- Node30 -->
<g id="node62" class="node"><title>Node30</title>
<polygon fill="none" stroke="#bfbfbf" points="1127.5,-130.5 1127.5,-151.5 1170.5,-151.5 1170.5,-130.5 1127.5,-130.5"/>
<text text-anchor="middle" x="1149" y="-138.5" font-family="Helvetica,sans-Serif" font-size="10.00">deque</text>
</g>
<!-- Node3&#45;&gt;Node30 -->
<g id="edge80" class="edge"><title>Node3&#45;&gt;Node30</title>
<path fill="none" stroke="midnightblue" d="M1205.01,-260.362C1194.82,-238.65 1171.49,-188.937 1158.38,-161"/>
<polygon fill="midnightblue" stroke="midnightblue" points="1161.48,-159.352 1154.06,-151.785 1155.14,-162.325 1161.48,-159.352"/>
</g>
<!-- Node31 -->
<g id="node64" class="node"><title>Node31</title>
<polygon fill="none" stroke="#bfbfbf" points="1187.5,-130.5 1187.5,-151.5 1232.5,-151.5 1232.5,-130.5 1187.5,-130.5"/>
<text text-anchor="middle" x="1210" y="-138.5" font-family="Helvetica,sans-Serif" font-size="10.00">iosfwd</text>
</g>
<!-- Node3&#45;&gt;Node31 -->
<g id="edge82" class="edge"><title>Node3&#45;&gt;Node31</title>
<path fill="none" stroke="midnightblue" d="M1210,-260.362C1210,-238.936 1210,-190.24 1210,-162.114"/>
<polygon fill="midnightblue" stroke="midnightblue" points="1213.5,-161.785 1210,-151.785 1206.5,-161.785 1213.5,-161.785"/>
</g>
<!-- Node32 -->
<g id="node66" class="node"><title>Node32</title>
<polygon fill="none" stroke="#bfbfbf" points="1249.5,-130.5 1249.5,-151.5 1284.5,-151.5 1284.5,-130.5 1249.5,-130.5"/>
<text text-anchor="middle" x="1267" y="-138.5" font-family="Helvetica,sans-Serif" font-size="10.00">new</text>
</g>
<!-- Node3&#45;&gt;Node32 -->
<g id="edge86" class="edge"><title>Node3&#45;&gt;Node32</title>
<path fill="none" stroke="midnightblue" d="M1214.66,-260.362C1224.18,-238.65 1245.98,-188.937 1258.23,-161"/>
<polygon fill="midnightblue" stroke="midnightblue" points="1261.46,-162.349 1262.27,-151.785 1255.05,-159.538 1261.46,-162.349"/>
</g>
<!-- Node5 -->
<g id="node9" class="node"><title>Node5</title>
<a xlink:href="thrill_2common_2string_8hpp.html" target="_top" xlink:title="thrill/common/string.hpp">
<polygon fill="none" stroke="black" points="875.5,-130.5 875.5,-151.5 996.5,-151.5 996.5,-130.5 875.5,-130.5"/>
<text text-anchor="middle" x="936" y="-138.5" font-family="Helvetica,sans-Serif" font-size="10.00">thrill/common/string.hpp</text>
</a>
</g>
<!-- Node4&#45;&gt;Node5 -->
<g id="edge8" class="edge"><title>Node4&#45;&gt;Node5</title>
<path fill="none" stroke="midnightblue" d="M978.024,-188.922C970.064,-179.845 960.273,-168.679 952.144,-159.41"/>
<polygon fill="midnightblue" stroke="midnightblue" points="954.741,-157.063 945.516,-151.852 949.478,-161.678 954.741,-157.063"/>
</g>
<!-- Node4&#45;&gt;Node19 -->
<g id="edge70" class="edge"><title>Node4&#45;&gt;Node19</title>
<path fill="none" stroke="midnightblue" d="M943.092,-203.53C812.084,-196.773 460.663,-176.825 347,-152 288.188,-139.155 222.862,-112.75 185.874,-96.5876"/>
<polygon fill="midnightblue" stroke="midnightblue" points="187.223,-93.3573 176.662,-92.517 184.394,-99.7601 187.223,-93.3573"/>
</g>
<!-- Node4&#45;&gt;Node20 -->
<g id="edge74" class="edge"><title>Node4&#45;&gt;Node20</title>
<path fill="none" stroke="midnightblue" d="M943.248,-201.299C871.547,-193.757 743.533,-177.195 705,-152 686.988,-140.223 674.06,-118.896 666.377,-103.059"/>
<polygon fill="midnightblue" stroke="midnightblue" points="669.404,-101.26 662.085,-93.6 663.029,-104.153 669.404,-101.26"/>
</g>
<!-- Node21 -->
<g id="node41" class="node"><title>Node21</title>
<a xlink:href="malloc__tracker_8hpp.html" target="_top" xlink:title="thrill/mem/malloc_tracker.hpp">
<polygon fill="none" stroke="black" points="713.5,-130.5 713.5,-151.5 858.5,-151.5 858.5,-130.5 713.5,-130.5"/>
<text text-anchor="middle" x="786" y="-138.5" font-family="Helvetica,sans-Serif" font-size="10.00">thrill/mem/malloc_tracker.hpp</text>
</a>
</g>
<!-- Node4&#45;&gt;Node21 -->
<g id="edge40" class="edge"><title>Node4&#45;&gt;Node21</title>
<path fill="none" stroke="midnightblue" d="M943.418,-190.431C908.732,-179.539 862.837,-165.127 829.558,-154.678"/>
<polygon fill="midnightblue" stroke="midnightblue" points="830.25,-151.227 819.661,-151.57 828.153,-157.905 830.25,-151.227"/>
</g>
<!-- Node4&#45;&gt;Node22 -->
<g id="edge44" class="edge"><title>Node4&#45;&gt;Node22</title>
<path fill="none" stroke="midnightblue" d="M1042.78,-198.03C1114.57,-186.538 1247.45,-165.262 1329.06,-152.197"/>
<polygon fill="midnightblue" stroke="midnightblue" points="1329.92,-155.604 1339.24,-150.567 1328.82,-148.692 1329.92,-155.604"/>
</g>
<!-- Node24 -->
<g id="node48" class="node"><title>Node24</title>
<polygon fill="none" stroke="#bfbfbf" points="1355,-72.5 1355,-93.5 1401,-93.5 1401,-72.5 1355,-72.5"/>
<text text-anchor="middle" x="1378" y="-80.5" font-family="Helvetica,sans-Serif" font-size="10.00">atomic</text>
</g>
<!-- Node4&#45;&gt;Node24 -->
<g id="edge60" class="edge"><title>Node4&#45;&gt;Node24</title>
<path fill="none" stroke="midnightblue" d="M1008.26,-188.906C1025.3,-171.018 1054.66,-143.674 1086,-130 1190,-84.6285 1230.31,-119.088 1344.89,-93.853"/>
<polygon fill="midnightblue" stroke="midnightblue" points="1345.78,-97.2405 1354.74,-91.5801 1344.2,-90.42 1345.78,-97.2405"/>
</g>
<!-- Node4&#45;&gt;Node25 -->
<g id="edge62" class="edge"><title>Node4&#45;&gt;Node25</title>
<path fill="none" stroke="midnightblue" d="M1020.67,-188.911C1056.13,-167.07 1113.69,-131.837 1119,-130 1239.04,-88.4927 1280.77,-121.003 1408.15,-94.0547"/>
<polygon fill="midnightblue" stroke="midnightblue" points="1409.27,-97.3923 1418.28,-91.8251 1407.76,-90.5559 1409.27,-97.3923"/>
</g>
<!-- Node26 -->
<g id="node52" class="node"><title>Node26</title>
<a xlink:href="extlib_2tlx_2tlx_2allocator__base_8hpp.html" target="_top" xlink:title="tlx/allocator_base.hpp">
<polygon fill="none" stroke="black" points="356,-130.5 356,-151.5 468,-151.5 468,-130.5 356,-130.5"/>
<text text-anchor="middle" x="412" y="-138.5" font-family="Helvetica,sans-Serif" font-size="10.00">tlx/allocator_base.hpp</text>
</a>
</g>
<!-- Node4&#45;&gt;Node26 -->
<g id="edge52" class="edge"><title>Node4&#45;&gt;Node26</title>
<path fill="none" stroke="midnightblue" d="M943.464,-200.458C838.939,-188.764 595.796,-161.562 478.132,-148.399"/>
<polygon fill="midnightblue" stroke="midnightblue" points="478.498,-144.918 468.171,-147.284 477.719,-151.874 478.498,-144.918"/>
</g>
<!-- Node4&#45;&gt;Node29 -->
<g id="edge72" class="edge"><title>Node4&#45;&gt;Node29</title>
<path fill="none" stroke="midnightblue" d="M943.329,-201.695C880.578,-195.3 769.817,-180.814 679,-152 636.026,-138.365 589.483,-114.422 561.029,-98.635"/>
<polygon fill="midnightblue" stroke="midnightblue" points="562.537,-95.4676 552.104,-93.6206 559.108,-101.57 562.537,-95.4676"/>
</g>
<!-- Node4&#45;&gt;Node30 -->
<g id="edge64" class="edge"><title>Node4&#45;&gt;Node30</title>
<path fill="none" stroke="midnightblue" d="M1033.99,-188.922C1060.33,-177.946 1094,-163.916 1118.09,-153.877"/>
<polygon fill="midnightblue" stroke="midnightblue" points="1119.58,-157.051 1127.46,-149.974 1116.89,-150.589 1119.58,-157.051"/>
</g>
<!-- Node4&#45;&gt;Node31 -->
<g id="edge66" class="edge"><title>Node4&#45;&gt;Node31</title>
<path fill="none" stroke="midnightblue" d="M1042.58,-192.455C1077.99,-182.59 1126.93,-168.563 1177.84,-152.272"/>
<polygon fill="midnightblue" stroke="midnightblue" points="1178.92,-155.601 1187.37,-149.204 1176.77,-148.938 1178.92,-155.601"/>
</g>
<!-- Node4&#45;&gt;Node32 -->
<g id="edge68" class="edge"><title>Node4&#45;&gt;Node32</title>
<path fill="none" stroke="midnightblue" d="M1042.65,-197.994C1091.05,-189.566 1166.74,-174.738 1239.48,-152.113"/>
<polygon fill="midnightblue" stroke="midnightblue" points="1240.78,-155.373 1249.26,-149.019 1238.67,-148.699 1240.78,-155.373"/>
</g>
<!-- Node6 -->
<g id="node11" class="node"><title>Node6</title>
<a xlink:href="define_8hpp.html" target="_top" xlink:title="tlx/define.hpp">
<polygon fill="none" stroke="black" points="898.5,-72.5 898.5,-93.5 973.5,-93.5 973.5,-72.5 898.5,-72.5"/>
<text text-anchor="middle" x="936" y="-80.5" font-family="Helvetica,sans-Serif" font-size="10.00">tlx/define.hpp</text>
</a>
</g>
<!-- Node5&#45;&gt;Node6 -->
<g id="edge10" class="edge"><title>Node5&#45;&gt;Node6</title>
<path fill="none" stroke="midnightblue" d="M936,-130.362C936,-122.922 936,-112.743 936,-103.728"/>
<polygon fill="midnightblue" stroke="midnightblue" points="939.5,-103.571 936,-93.5707 932.5,-103.571 939.5,-103.571"/>
</g>
<!-- Node12 -->
<g id="node23" class="node"><title>Node12</title>
<a xlink:href="unused_8hpp.html" target="_top" xlink:title="tlx/unused.hpp">
<polygon fill="none" stroke="black" points="991,-72.5 991,-93.5 1071,-93.5 1071,-72.5 991,-72.5"/>
<text text-anchor="middle" x="1031" y="-80.5" font-family="Helvetica,sans-Serif" font-size="10.00">tlx/unused.hpp</text>
</a>
</g>
<!-- Node5&#45;&gt;Node12 -->
<g id="edge22" class="edge"><title>Node5&#45;&gt;Node12</title>
<path fill="none" stroke="midnightblue" d="M953.424,-130.362C967.887,-121.532 988.669,-108.844 1005.08,-98.8224"/>
<polygon fill="midnightblue" stroke="midnightblue" points="1006.97,-101.769 1013.69,-93.5707 1003.33,-95.7943 1006.97,-101.769"/>
</g>
<!-- Node13 -->
<g id="node25" class="node"><title>Node13</title>
<polygon fill="none" stroke="#bfbfbf" points="1089,-72.5 1089,-93.5 1127,-93.5 1127,-72.5 1089,-72.5"/>
<text text-anchor="middle" x="1108" y="-80.5" font-family="Helvetica,sans-Serif" font-size="10.00">array</text>
</g>
<!-- Node5&#45;&gt;Node13 -->
<g id="edge24" class="edge"><title>Node5&#45;&gt;Node13</title>
<path fill="none" stroke="midnightblue" d="M970.233,-130.451C997.471,-121.919 1036.74,-109.312 1079.11,-94.196"/>
<polygon fill="midnightblue" stroke="midnightblue" points="1080.55,-97.3993 1088.78,-90.7239 1078.18,-90.8117 1080.55,-97.3993"/>
</g>
<!-- Node14 -->
<g id="node27" class="node"><title>Node14</title>
<polygon fill="none" stroke="#bfbfbf" points="1144.5,-72.5 1144.5,-93.5 1193.5,-93.5 1193.5,-72.5 1144.5,-72.5"/>
<text text-anchor="middle" x="1169" y="-80.5" font-family="Helvetica,sans-Serif" font-size="10.00">cstdarg</text>
</g>
<!-- Node5&#45;&gt;Node14 -->
<g id="edge26" class="edge"><title>Node5&#45;&gt;Node14</title>
<path fill="none" stroke="midnightblue" d="M986.463,-130.473C1024.8,-122.175 1078.99,-109.803 1134.25,-94.3491"/>
<polygon fill="midnightblue" stroke="midnightblue" points="1135.54,-97.6214 1144.21,-91.5324 1133.63,-90.8855 1135.54,-97.6214"/>
</g>
<!-- Node15 -->
<g id="node29" class="node"><title>Node15</title>
<polygon fill="none" stroke="#bfbfbf" points="712.5,-72.5 712.5,-93.5 757.5,-93.5 757.5,-72.5 712.5,-72.5"/>
<text text-anchor="middle" x="735" y="-80.5" font-family="Helvetica,sans-Serif" font-size="10.00">cstdlib</text>
</g>
<!-- Node5&#45;&gt;Node15 -->
<g id="edge28" class="edge"><title>Node5&#45;&gt;Node15</title>
<path fill="none" stroke="midnightblue" d="M894.536,-130.42C862.126,-121.952 815.759,-109.407 767.333,-94.294"/>
<polygon fill="midnightblue" stroke="midnightblue" points="768.214,-90.9019 757.624,-91.2375 766.112,-97.5788 768.214,-90.9019"/>
</g>
<!-- Node16 -->
<g id="node31" class="node"><title>Node16</title>
<polygon fill="none" stroke="#bfbfbf" points="775,-72.5 775,-93.5 815,-93.5 815,-72.5 775,-72.5"/>
<text text-anchor="middle" x="795" y="-80.5" font-family="Helvetica,sans-Serif" font-size="10.00">limits</text>
</g>
<!-- Node5&#45;&gt;Node16 -->
<g id="edge30" class="edge"><title>Node5&#45;&gt;Node16</title>
<path fill="none" stroke="midnightblue" d="M910.466,-130.497C886.365,-120.583 850.232,-105.72 824.819,-95.2661"/>
<polygon fill="midnightblue" stroke="midnightblue" points="825.899,-91.9256 815.319,-91.3582 823.236,-98.3993 825.899,-91.9256"/>
</g>
<!-- Node17 -->
<g id="node33" class="node"><title>Node17</title>
<polygon fill="none" stroke="#bfbfbf" points="832.5,-72.5 832.5,-93.5 881.5,-93.5 881.5,-72.5 832.5,-72.5"/>
<text text-anchor="middle" x="857" y="-80.5" font-family="Helvetica,sans-Serif" font-size="10.00">random</text>
</g>
<!-- Node5&#45;&gt;Node17 -->
<g id="edge32" class="edge"><title>Node5&#45;&gt;Node17</title>
<path fill="none" stroke="midnightblue" d="M921.51,-130.362C909.817,-121.777 893.157,-109.546 879.697,-99.6636"/>
<polygon fill="midnightblue" stroke="midnightblue" points="881.53,-96.6675 871.398,-93.5707 877.387,-102.31 881.53,-96.6675"/>
</g>
<!-- Node5&#45;&gt;Node18 -->
<g id="edge34" class="edge"><title>Node5&#45;&gt;Node18</title>
<path fill="none" stroke="midnightblue" d="M996.6,-131.23C1058.27,-121.132 1150.71,-105.53 1200.73,-94.0432"/>
<polygon fill="midnightblue" stroke="midnightblue" points="1201.81,-97.3822 1210.73,-91.6579 1200.19,-90.5731 1201.81,-97.3822"/>
</g>
<!-- Node5&#45;&gt;Node19 -->
<g id="edge36" class="edge"><title>Node5&#45;&gt;Node19</title>
<path fill="none" stroke="midnightblue" d="M875.465,-130.985C872.607,-130.627 869.774,-130.296 867,-130 573.561,-98.7287 496.223,-135.109 204,-94 198.391,-93.211 192.471,-92.0936 186.776,-90.8708"/>
<polygon fill="midnightblue" stroke="midnightblue" points="187.413,-87.4261 176.884,-88.6037 185.849,-94.2492 187.413,-87.4261"/>
</g>
<!-- Node5&#45;&gt;Node20 -->
<g id="edge38" class="edge"><title>Node5&#45;&gt;Node20</title>
<path fill="none" stroke="midnightblue" d="M881.042,-130.426C833.961,-121.234 764.395,-107.334 704,-94 699.55,-93.0175 694.867,-91.944 690.262,-90.8651"/>
<polygon fill="midnightblue" stroke="midnightblue" points="690.963,-87.4343 680.425,-88.5279 689.345,-94.2447 690.963,-87.4343"/>
</g>
<!-- Node7 -->
<g id="node13" class="node"><title>Node7</title>
<a xlink:href="attribute__always__inline_8hpp.html" target="_top" xlink:title="tlx/define/attribute\l_always_inline.hpp">
<polygon fill="none" stroke="black" points="660.5,-1 660.5,-35 759.5,-35 759.5,-1 660.5,-1"/>
<text text-anchor="start" x="668.5" y="-22" font-family="Helvetica,sans-Serif" font-size="10.00">tlx/define/attribute</text>
<text text-anchor="middle" x="710" y="-9" font-family="Helvetica,sans-Serif" font-size="10.00">_always_inline.hpp</text>
</a>
</g>
<!-- Node6&#45;&gt;Node7 -->
<g id="edge12" class="edge"><title>Node6&#45;&gt;Node7</title>
<path fill="none" stroke="midnightblue" d="M898.215,-72.7557C866.173,-63.9958 818.765,-50.8644 769.244,-36.3341"/>
<polygon fill="midnightblue" stroke="midnightblue" points="770.228,-32.9753 759.646,-33.5081 768.25,-39.6903 770.228,-32.9753"/>
</g>
<!-- Node8 -->
<g id="node15" class="node"><title>Node8</title>
<a xlink:href="attribute__format__printf_8hpp.html" target="_top" xlink:title="tlx/define/attribute\l_format_printf.hpp">
<polygon fill="none" stroke="black" points="776.5,-1 776.5,-35 871.5,-35 871.5,-1 776.5,-1"/>
<text text-anchor="start" x="784.5" y="-22" font-family="Helvetica,sans-Serif" font-size="10.00">tlx/define/attribute</text>
<text text-anchor="middle" x="824" y="-9" font-family="Helvetica,sans-Serif" font-size="10.00">_format_printf.hpp</text>
</a>
</g>
<!-- Node6&#45;&gt;Node8 -->
<g id="edge14" class="edge"><title>Node6&#45;&gt;Node8</title>
<path fill="none" stroke="midnightblue" d="M917.505,-72.2666C902.555,-63.5901 881.004,-51.083 862.36,-40.2622"/>
<polygon fill="midnightblue" stroke="midnightblue" points="863.887,-37.1023 853.482,-35.1099 860.374,-43.1565 863.887,-37.1023"/>
</g>
<!-- Node9 -->
<g id="node17" class="node"><title>Node9</title>
<a xlink:href="attribute__packed_8hpp.html" target="_top" xlink:title="tlx/define/attribute\l_packed.hpp">
<polygon fill="none" stroke="black" points="888.5,-1 888.5,-35 983.5,-35 983.5,-1 888.5,-1"/>
<text text-anchor="start" x="896.5" y="-22" font-family="Helvetica,sans-Serif" font-size="10.00">tlx/define/attribute</text>
<text text-anchor="middle" x="936" y="-9" font-family="Helvetica,sans-Serif" font-size="10.00">_packed.hpp</text>
</a>
</g>
<!-- Node6&#45;&gt;Node9 -->
<g id="edge16" class="edge"><title>Node6&#45;&gt;Node9</title>
<path fill="none" stroke="midnightblue" d="M936,-72.2666C936,-64.931 936,-54.8573 936,-45.3796"/>
<polygon fill="midnightblue" stroke="midnightblue" points="939.5,-45.1098 936,-35.1099 932.5,-45.1099 939.5,-45.1098"/>
</g>
<!-- Node10 -->
<g id="node19" class="node"><title>Node10</title>
<a xlink:href="attribute__warn__unused__result_8hpp.html" target="_top" xlink:title="tlx/define/attribute\l_warn_unused_result.hpp">
<polygon fill="none" stroke="black" points="1001,-1 1001,-35 1129,-35 1129,-1 1001,-1"/>
<text text-anchor="start" x="1009" y="-22" font-family="Helvetica,sans-Serif" font-size="10.00">tlx/define/attribute</text>
<text text-anchor="middle" x="1065" y="-9" font-family="Helvetica,sans-Serif" font-size="10.00">_warn_unused_result.hpp</text>
</a>
</g>
<!-- Node6&#45;&gt;Node10 -->
<g id="edge18" class="edge"><title>Node6&#45;&gt;Node10</title>
<path fill="none" stroke="midnightblue" d="M957.013,-72.412C974.505,-63.5984 999.983,-50.7606 1021.8,-39.768"/>
<polygon fill="midnightblue" stroke="midnightblue" points="1023.54,-42.8124 1030.89,-35.1869 1020.39,-36.5612 1023.54,-42.8124"/>
</g>
<!-- Node11 -->
<g id="node21" class="node"><title>Node11</title>
<a xlink:href="likely_8hpp.html" target="_top" xlink:title="tlx/define/likely.hpp">
<polygon fill="none" stroke="black" points="1146.5,-7.5 1146.5,-28.5 1247.5,-28.5 1247.5,-7.5 1146.5,-7.5"/>
<text text-anchor="middle" x="1197" y="-15.5" font-family="Helvetica,sans-Serif" font-size="10.00">tlx/define/likely.hpp</text>
</a>
</g>
<!-- Node6&#45;&gt;Node11 -->
<g id="edge20" class="edge"><title>Node6&#45;&gt;Node11</title>
<path fill="none" stroke="midnightblue" d="M973.65,-73.9711C976.475,-73.3015 979.282,-72.6385 982,-72 1051.27,-55.7254 1069.26,-54.3929 1138,-36 1143.24,-34.5986 1148.71,-33.0476 1154.12,-31.4608"/>
<polygon fill="midnightblue" stroke="midnightblue" points="1155.15,-34.8066 1163.73,-28.5909 1153.15,-28.0994 1155.15,-34.8066"/>
</g>
<!-- Node21&#45;&gt;Node15 -->
<g id="edge42" class="edge"><title>Node21&#45;&gt;Node15</title>
<path fill="none" stroke="midnightblue" d="M776.646,-130.362C769.457,-122.186 759.359,-110.702 750.907,-101.091"/>
<polygon fill="midnightblue" stroke="midnightblue" points="753.527,-98.7692 744.295,-93.5707 748.27,-103.392 753.527,-98.7692"/>
</g>
<!-- Node23 -->
<g id="node46" class="node"><title>Node23</title>
<polygon fill="none" stroke="#bfbfbf" points="1281,-72.5 1281,-93.5 1337,-93.5 1337,-72.5 1281,-72.5"/>
<text text-anchor="middle" x="1309" y="-80.5" font-family="Helvetica,sans-Serif" font-size="10.00">algorithm</text>
</g>
<!-- Node22&#45;&gt;Node23 -->
<g id="edge46" class="edge"><title>Node22&#45;&gt;Node23</title>
<path fill="none" stroke="midnightblue" d="M1382.49,-130.362C1368.92,-121.614 1349.47,-109.079 1333.99,-99.1015"/>
<polygon fill="midnightblue" stroke="midnightblue" points="1335.7,-96.0457 1325.4,-93.5707 1331.91,-101.93 1335.7,-96.0457"/>
</g>
<!-- Node22&#45;&gt;Node24 -->
<g id="edge48" class="edge"><title>Node22&#45;&gt;Node24</title>
<path fill="none" stroke="midnightblue" d="M1395.15,-130.362C1392.4,-122.758 1388.61,-112.294 1385.29,-103.135"/>
<polygon fill="midnightblue" stroke="midnightblue" points="1388.52,-101.782 1381.83,-93.5707 1381.94,-104.165 1388.52,-101.782"/>
</g>
<!-- Node22&#45;&gt;Node25 -->
<g id="edge50" class="edge"><title>Node22&#45;&gt;Node25</title>
<path fill="none" stroke="midnightblue" d="M1407.07,-130.362C1413.15,-122.35 1421.64,-111.161 1428.84,-101.67"/>
<polygon fill="midnightblue" stroke="midnightblue" points="1431.73,-103.653 1434.98,-93.5707 1426.15,-99.4222 1431.73,-103.653"/>
</g>
<!-- Node27 -->
<g id="node54" class="node"><title>Node27</title>
<polygon fill="none" stroke="#bfbfbf" points="212.5,-72.5 212.5,-93.5 261.5,-93.5 261.5,-72.5 212.5,-72.5"/>
<text text-anchor="middle" x="237" y="-80.5" font-family="Helvetica,sans-Serif" font-size="10.00">cstddef</text>
</g>
<!-- Node26&#45;&gt;Node27 -->
<g id="edge54" class="edge"><title>Node26&#45;&gt;Node27</title>
<path fill="none" stroke="midnightblue" d="M380.309,-130.497C349.557,-120.305 303.021,-104.881 271.386,-94.3966"/>
<polygon fill="midnightblue" stroke="midnightblue" points="272.271,-91.0026 261.677,-91.1788 270.069,-97.6472 272.271,-91.0026"/>
</g>
<!-- Node26&#45;&gt;Node28 -->
<g id="edge56" class="edge"><title>Node26&#45;&gt;Node28</title>
<path fill="none" stroke="midnightblue" d="M396.593,-130.362C384.042,-121.696 366.108,-109.313 351.725,-99.3819"/>
<polygon fill="midnightblue" stroke="midnightblue" points="353.527,-96.3725 343.309,-93.5707 349.55,-102.133 353.527,-96.3725"/>
</g>
<!-- Node26&#45;&gt;Node29 -->
<g id="edge58" class="edge"><title>Node26&#45;&gt;Node29</title>
<path fill="none" stroke="midnightblue" d="M434.093,-130.497C453.234,-121.397 481.146,-108.127 502.605,-97.9253"/>
<polygon fill="midnightblue" stroke="midnightblue" points="504.13,-101.076 511.659,-93.6212 501.125,-94.7539 504.13,-101.076"/>
</g>
<!-- Node33&#45;&gt;Node4 -->
<g id="edge98" class="edge"><title>Node33&#45;&gt;Node4</title>
<path fill="none" stroke="midnightblue" d="M486.831,-265.174C589.316,-253.193 823.332,-225.835 933.53,-212.952"/>
<polygon fill="midnightblue" stroke="midnightblue" points="933.955,-216.427 943.481,-211.789 933.142,-209.474 933.955,-216.427"/>
</g>
<!-- Node33&#45;&gt;Node19 -->
<g id="edge110" class="edge"><title>Node33&#45;&gt;Node19</title>
<path fill="none" stroke="midnightblue" d="M387.437,-266.131C311.05,-258.124 171.767,-241.327 157,-224 128.292,-190.315 139.635,-133.882 148.776,-103.634"/>
<polygon fill="midnightblue" stroke="midnightblue" points="152.221,-104.357 151.966,-93.7648 145.56,-102.204 152.221,-104.357"/>
</g>
<!-- Node33&#45;&gt;Node20 -->
<g id="edge116" class="edge"><title>Node33&#45;&gt;Node20</title>
<path fill="none" stroke="midnightblue" d="M446.489,-260.264C461.141,-243.929 490.464,-212.178 518,-188 556.524,-154.175 605.087,-119.322 633.718,-99.4923"/>
<polygon fill="midnightblue" stroke="midnightblue" points="636.022,-102.155 642.275,-93.6022 632.054,-96.3889 636.022,-102.155"/>
</g>
<!-- Node33&#45;&gt;Node23 -->
<g id="edge100" class="edge"><title>Node33&#45;&gt;Node23</title>
<path fill="none" stroke="midnightblue" d="M456.452,-260.442C472.248,-251.527 494.807,-238.007 513,-224 531.434,-209.808 529.746,-197.46 551,-188 735.922,-105.695 811.098,-210.071 1005,-152 1024.44,-146.179 1025.81,-136.576 1045,-130 1138.62,-97.9277 1170.4,-115.423 1270.88,-93.9929"/>
<polygon fill="midnightblue" stroke="midnightblue" points="1271.81,-97.3709 1280.82,-91.7945 1270.3,-90.536 1271.81,-97.3709"/>
</g>
<!-- Node33&#45;&gt;Node27 -->
<g id="edge102" class="edge"><title>Node33&#45;&gt;Node27</title>
<path fill="none" stroke="midnightblue" d="M427.136,-260.209C406.674,-237.827 361.464,-188.388 361,-188 338.013,-168.781 327.266,-170.88 304,-152 284.925,-136.52 265.645,-116.043 252.697,-101.426"/>
<polygon fill="midnightblue" stroke="midnightblue" points="255.064,-98.8151 245.854,-93.5783 249.788,-103.416 255.064,-98.8151"/>
</g>
<!-- Node33&#45;&gt;Node28 -->
<g id="edge106" class="edge"><title>Node33&#45;&gt;Node28</title>
<path fill="none" stroke="midnightblue" d="M434.031,-260.43C428.689,-243.162 415.925,-208.748 394,-188 365.68,-161.201 335.17,-184.742 314,-152 304.509,-137.322 309.99,-117.512 316.677,-102.884"/>
<polygon fill="midnightblue" stroke="midnightblue" points="319.928,-104.212 321.331,-93.7108 313.685,-101.045 319.928,-104.212"/>
</g>
<!-- Node33&#45;&gt;Node29 -->
<g id="edge112" class="edge"><title>Node33&#45;&gt;Node29</title>
<path fill="none" stroke="midnightblue" d="M442.493,-260.354C458.232,-229.849 503.663,-141.797 523.977,-102.426"/>
<polygon fill="midnightblue" stroke="midnightblue" points="527.092,-104.021 528.567,-93.5296 520.872,-100.812 527.092,-104.021"/>
</g>
<!-- Node34 -->
<g id="node82" class="node"><title>Node34</title>
<a xlink:href="config_8hpp.html" target="_top" xlink:title="thrill/common/config.hpp">
<polygon fill="none" stroke="black" points="165.5,-195.5 165.5,-216.5 288.5,-216.5 288.5,-195.5 165.5,-195.5"/>
<text text-anchor="middle" x="227" y="-203.5" font-family="Helvetica,sans-Serif" font-size="10.00">thrill/common/config.hpp</text>
</a>
</g>
<!-- Node33&#45;&gt;Node34 -->
<g id="edge96" class="edge"><title>Node33&#45;&gt;Node34</title>
<path fill="none" stroke="midnightblue" d="M402.792,-260.412C366.793,-249.269 310.011,-231.694 270.769,-219.547"/>
<polygon fill="midnightblue" stroke="midnightblue" points="271.781,-216.197 261.193,-216.584 269.711,-222.884 271.781,-216.197"/>
</g>
<!-- Node35 -->
<g id="node87" class="node"><title>Node35</title>
<polygon fill="none" stroke="#bfbfbf" points="306,-195.5 306,-216.5 352,-216.5 352,-195.5 306,-195.5"/>
<text text-anchor="middle" x="329" y="-203.5" font-family="Helvetica,sans-Serif" font-size="10.00">cstdint</text>
</g>
<!-- Node33&#45;&gt;Node35 -->
<g id="edge104" class="edge"><title>Node33&#45;&gt;Node35</title>
<path fill="none" stroke="midnightblue" d="M419.166,-260.267C401.709,-249.76 374.92,-233.637 355.074,-221.692"/>
<polygon fill="midnightblue" stroke="midnightblue" points="356.875,-218.692 346.502,-216.534 353.265,-224.689 356.875,-218.692"/>
</g>
<!-- Node33&#45;&gt;Node36 -->
<g id="edge108" class="edge"><title>Node33&#45;&gt;Node36</title>
<path fill="none" stroke="midnightblue" d="M387.396,-268.366C324.75,-263.955 214.244,-252.544 124,-224 121.252,-223.131 118.455,-222.074 115.695,-220.913"/>
<polygon fill="midnightblue" stroke="midnightblue" points="117.132,-217.722 106.588,-216.685 114.185,-224.071 117.132,-217.722"/>
</g>
<!-- Node33&#45;&gt;Node37 -->
<g id="edge114" class="edge"><title>Node33&#45;&gt;Node37</title>
<path fill="none" stroke="midnightblue" d="M463.25,-260.372C485.494,-251.202 518.125,-237.362 546,-224 547.807,-223.134 549.657,-222.224 551.516,-221.291"/>
<polygon fill="midnightblue" stroke="midnightblue" points="553.431,-224.242 560.718,-216.55 550.225,-218.019 553.431,-224.242"/>
</g>
</g>
</svg>
