<?xml version="1.0" encoding="UTF-8" standalone="no"?>
<!DOCTYPE svg PUBLIC "-//W3C//DTD SVG 1.1//EN"
 "http://www.w3.org/Graphics/SVG/1.1/DTD/svg11.dtd">
<!-- Generated by graphviz version 2.36.0 (20140111.2315)
 -->
<!-- Title: thrill/common/string.hpp Pages: 1 -->
<svg width="926pt" height="152pt"
 viewBox="0.00 0.00 926.00 152.00" xmlns="http://www.w3.org/2000/svg" xmlns:xlink="http://www.w3.org/1999/xlink">
<g id="graph0" class="graph" transform="scale(1 1) rotate(0) translate(4 148)">
<title>thrill/common/string.hpp</title>
<!-- Node1 -->
<g id="node1" class="node"><title>Node1</title>
<polygon fill="#bfbfbf" stroke="black" points="546.5,-124.5 546.5,-143.5 667.5,-143.5 667.5,-124.5 546.5,-124.5"/>
<text text-anchor="middle" x="607" y="-131.5" font-family="Helvetica,sans-Serif" font-size="10.00">thrill/common/string.hpp</text>
</g>
<!-- Node2 -->
<g id="node2" class="node"><title>Node2</title>
<g id="a_node2"><a xlink:href="define_8hpp.html" target="_top" xlink:title="tlx/define.hpp">
<polygon fill="none" stroke="black" points="239.5,-68.5 239.5,-87.5 314.5,-87.5 314.5,-68.5 239.5,-68.5"/>
<text text-anchor="middle" x="277" y="-75.5" font-family="Helvetica,sans-Serif" font-size="10.00">tlx/define.hpp</text>
</a>
</g>
</g>
<!-- Node1&#45;&gt;Node2 -->
<g id="edge1" class="edge"><title>Node1&#45;&gt;Node2</title>
<path fill="none" stroke="midnightblue" d="M549.997,-124.475C494.961,-116.123 409.014,-102.76 324.697,-88.0758"/>
<polygon fill="midnightblue" stroke="midnightblue" points="325.144,-84.6011 314.691,-86.3257 323.938,-91.4964 325.144,-84.6011"/>
</g>
<!-- Node8 -->
<g id="node8" class="node"><title>Node8</title>
<g id="a_node8"><a xlink:href="unused_8hpp.html" target="_top" xlink:title="tlx/unused.hpp">
<polygon fill="none" stroke="black" points="333,-68.5 333,-87.5 413,-87.5 413,-68.5 333,-68.5"/>
<text text-anchor="middle" x="373" y="-75.5" font-family="Helvetica,sans-Serif" font-size="10.00">tlx/unused.hpp</text>
</a>
</g>
</g>
<!-- Node1&#45;&gt;Node8 -->
<g id="edge7" class="edge"><title>Node1&#45;&gt;Node8</title>
<path fill="none" stroke="midnightblue" d="M569.922,-124.444C529.272,-115.063 463.968,-99.9926 419.816,-89.8036"/>
<polygon fill="midnightblue" stroke="midnightblue" points="420.435,-86.3547 409.905,-87.5164 418.861,-93.1755 420.435,-86.3547"/>
</g>
<!-- Node9 -->
<g id="node9" class="node"><title>Node9</title>
<polygon fill="none" stroke="#bfbfbf" points="431,-68.5 431,-87.5 469,-87.5 469,-68.5 431,-68.5"/>
<text text-anchor="middle" x="450" y="-75.5" font-family="Helvetica,sans-Serif" font-size="10.00">array</text>
</g>
<!-- Node1&#45;&gt;Node9 -->
<g id="edge8" class="edge"><title>Node1&#45;&gt;Node9</title>
<path fill="none" stroke="midnightblue" d="M582.123,-124.444C554.124,-114.813 508.691,-99.1868 479.077,-89.0011"/>
<polygon fill="midnightblue" stroke="midnightblue" points="479.911,-85.5867 469.316,-85.6439 477.634,-92.2061 479.911,-85.5867"/>
</g>
<!-- Node10 -->
<g id="node10" class="node"><title>Node10</title>
<polygon fill="none" stroke="#bfbfbf" points="487.5,-68.5 487.5,-87.5 536.5,-87.5 536.5,-68.5 487.5,-68.5"/>
<text text-anchor="middle" x="512" y="-75.5" font-family="Helvetica,sans-Serif" font-size="10.00">cstdarg</text>
</g>
<!-- Node1&#45;&gt;Node10 -->
<g id="edge9" class="edge"><title>Node1&#45;&gt;Node10</title>
<path fill="none" stroke="midnightblue" d="M591.737,-124.324C576.779,-115.822 553.745,-102.729 536.273,-92.7975"/>
<polygon fill="midnightblue" stroke="midnightblue" points="537.649,-89.5534 527.226,-87.6545 534.19,-95.639 537.649,-89.5534"/>
</g>
<!-- Node11 -->
<g id="node11" class="node"><title>Node11</title>
<polygon fill="none" stroke="#bfbfbf" points="554.5,-68.5 554.5,-87.5 599.5,-87.5 599.5,-68.5 554.5,-68.5"/>
<text text-anchor="middle" x="577" y="-75.5" font-family="Helvetica,sans-Serif" font-size="10.00">cstdlib</text>
</g>
<!-- Node1&#45;&gt;Node11 -->
<g id="edge10" class="edge"><title>Node1&#45;&gt;Node11</title>
<path fill="none" stroke="midnightblue" d="M602.046,-124.083C597.896,-116.613 591.847,-105.724 586.733,-96.5199"/>
<polygon fill="midnightblue" stroke="midnightblue" points="589.778,-94.7929 581.862,-87.7511 583.659,-98.1924 589.778,-94.7929"/>
</g>
<!-- Node12 -->
<g id="node12" class="node"><title>Node12</title>
<polygon fill="none" stroke="#bfbfbf" points="618,-68.5 618,-87.5 658,-87.5 658,-68.5 618,-68.5"/>
<text text-anchor="middle" x="638" y="-75.5" font-family="Helvetica,sans-Serif" font-size="10.00">limits</text>
</g>
<!-- Node1&#45;&gt;Node12 -->
<g id="edge11" class="edge"><title>Node1&#45;&gt;Node12</title>
<path fill="none" stroke="midnightblue" d="M612.119,-124.083C616.408,-116.613 622.658,-105.724 627.942,-96.5199"/>
<polygon fill="midnightblue" stroke="midnightblue" points="631.033,-98.1662 632.976,-87.7511 624.962,-94.6811 631.033,-98.1662"/>
</g>
<!-- Node13 -->
<g id="node13" class="node"><title>Node13</title>
<polygon fill="none" stroke="#bfbfbf" points="676.5,-68.5 676.5,-87.5 725.5,-87.5 725.5,-68.5 676.5,-68.5"/>
<text text-anchor="middle" x="701" y="-75.5" font-family="Helvetica,sans-Serif" font-size="10.00">random</text>
</g>
<!-- Node1&#45;&gt;Node13 -->
<g id="edge12" class="edge"><title>Node1&#45;&gt;Node13</title>
<path fill="none" stroke="midnightblue" d="M622.103,-124.324C636.903,-115.822 659.694,-102.729 676.982,-92.7975"/>
<polygon fill="midnightblue" stroke="midnightblue" points="679.007,-95.6707 685.935,-87.6545 675.52,-89.6009 679.007,-95.6707"/>
</g>
<!-- Node14 -->
<g id="node14" class="node"><title>Node14</title>
<polygon fill="none" stroke="#bfbfbf" points="744,-68.5 744,-87.5 796,-87.5 796,-68.5 744,-68.5"/>
<text text-anchor="middle" x="770" y="-75.5" font-family="Helvetica,sans-Serif" font-size="10.00">sstream</text>
</g>
<!-- Node1&#45;&gt;Node14 -->
<g id="edge13" class="edge"><title>Node1&#45;&gt;Node14</title>
<path fill="none" stroke="midnightblue" d="M632.828,-124.444C660.249,-115.359 703.777,-100.939 734.432,-90.7831"/>
<polygon fill="midnightblue" stroke="midnightblue" points="735.901,-93.9837 744.293,-87.5164 733.7,-87.3389 735.901,-93.9837"/>
</g>
<!-- Node15 -->
<g id="node15" class="node"><title>Node15</title>
<polygon fill="none" stroke="#bfbfbf" points="814.5,-68.5 814.5,-87.5 855.5,-87.5 855.5,-68.5 814.5,-68.5"/>
<text text-anchor="middle" x="835" y="-75.5" font-family="Helvetica,sans-Serif" font-size="10.00">string</text>
</g>
<!-- Node1&#45;&gt;Node15 -->
<g id="edge14" class="edge"><title>Node1&#45;&gt;Node15</title>
<path fill="none" stroke="midnightblue" d="M648.535,-124.42C686.617,-116.361 744.772,-103.576 804.422,-88.0077"/>
<polygon fill="midnightblue" stroke="midnightblue" points="805.616,-91.3129 814.395,-85.3822 803.834,-84.5435 805.616,-91.3129"/>
</g>
<!-- Node16 -->
<g id="node16" class="node"><title>Node16</title>
<polygon fill="none" stroke="#bfbfbf" points="874,-68.5 874,-87.5 918,-87.5 918,-68.5 874,-68.5"/>
<text text-anchor="middle" x="896" y="-75.5" font-family="Helvetica,sans-Serif" font-size="10.00">vector</text>
</g>
<!-- Node1&#45;&gt;Node16 -->
<g id="edge15" class="edge"><title>Node1&#45;&gt;Node16</title>
<path fill="none" stroke="midnightblue" d="M665.514,-124.476C715.576,-116.793 789.717,-104.492 863.728,-87.851"/>
<polygon fill="midnightblue" stroke="midnightblue" points="864.72,-91.2149 873.694,-85.5834 863.167,-84.3894 864.72,-91.2149"/>
</g>
<!-- Node3 -->
<g id="node3" class="node"><title>Node3</title>
<g id="a_node3"><a xlink:href="attribute__always__inline_8hpp.html" target="_top" xlink:title="tlx/define/attribute\l_always_inline.hpp">
<polygon fill="none" stroke="black" points="-0.5,-1 -0.5,-31 98.5,-31 98.5,-1 -0.5,-1"/>
<text text-anchor="start" x="7.5" y="-19" font-family="Helvetica,sans-Serif" font-size="10.00">tlx/define/attribute</text>
<text text-anchor="middle" x="49" y="-8" font-family="Helvetica,sans-Serif" font-size="10.00">_always_inline.hpp</text>
</a>
</g>
</g>
<!-- Node2&#45;&gt;Node3 -->
<g id="edge2" class="edge"><title>Node2&#45;&gt;Node3</title>
<path fill="none" stroke="midnightblue" d="M244.333,-68.4035C209.035,-59.1144 152.028,-44.1128 108.689,-32.7076"/>
<polygon fill="midnightblue" stroke="midnightblue" points="109.388,-29.2725 98.8264,-30.1122 107.606,-36.042 109.388,-29.2725"/>
</g>
<!-- Node4 -->
<g id="node4" class="node"><title>Node4</title>
<g id="a_node4"><a xlink:href="attribute__format__printf_8hpp.html" target="_top" xlink:title="tlx/define/attribute\l_format_printf.hpp">
<polygon fill="none" stroke="black" points="116.5,-1 116.5,-31 211.5,-31 211.5,-1 116.5,-1"/>
<text text-anchor="start" x="124.5" y="-19" font-family="Helvetica,sans-Serif" font-size="10.00">tlx/define/attribute</text>
<text text-anchor="middle" x="164" y="-8" font-family="Helvetica,sans-Serif" font-size="10.00">_format_printf.hpp</text>
</a>
</g>
</g>
<!-- Node2&#45;&gt;Node4 -->
<g id="edge3" class="edge"><title>Node2&#45;&gt;Node4</title>
<path fill="none" stroke="midnightblue" d="M260.81,-68.4035C244.933,-59.9735 220.197,-46.8389 199.702,-35.957"/>
<polygon fill="midnightblue" stroke="midnightblue" points="201.105,-32.7392 190.632,-31.1408 197.823,-38.9218 201.105,-32.7392"/>
</g>
<!-- Node5 -->
<g id="node5" class="node"><title>Node5</title>
<g id="a_node5"><a xlink:href="attribute__packed_8hpp.html" target="_top" xlink:title="tlx/define/attribute\l_packed.hpp">
<polygon fill="none" stroke="black" points="229.5,-1 229.5,-31 324.5,-31 324.5,-1 229.5,-1"/>
<text text-anchor="start" x="237.5" y="-19" font-family="Helvetica,sans-Serif" font-size="10.00">tlx/define/attribute</text>
<text text-anchor="middle" x="277" y="-8" font-family="Helvetica,sans-Serif" font-size="10.00">_packed.hpp</text>
</a>
</g>
</g>
<!-- Node2&#45;&gt;Node5 -->
<g id="edge4" class="edge"><title>Node2&#45;&gt;Node5</title>
<path fill="none" stroke="midnightblue" d="M277,-68.4035C277,-61.3405 277,-50.975 277,-41.399"/>
<polygon fill="midnightblue" stroke="midnightblue" points="280.5,-41.1408 277,-31.1408 273.5,-41.1408 280.5,-41.1408"/>
</g>
<!-- Node6 -->
<g id="node6" class="node"><title>Node6</title>
<g id="a_node6"><a xlink:href="attribute__warn__unused__result_8hpp.html" target="_top" xlink:title="tlx/define/attribute\l_warn_unused_result.hpp">
<polygon fill="none" stroke="black" points="343,-1 343,-31 471,-31 471,-1 343,-1"/>
<text text-anchor="start" x="351" y="-19" font-family="Helvetica,sans-Serif" font-size="10.00">tlx/define/attribute</text>
<text text-anchor="middle" x="407" y="-8" font-family="Helvetica,sans-Serif" font-size="10.00">_warn_unused_result.hpp</text>
</a>
</g>
</g>
<!-- Node2&#45;&gt;Node6 -->
<g id="edge5" class="edge"><title>Node2&#45;&gt;Node6</title>
<path fill="none" stroke="midnightblue" d="M295.626,-68.4035C314.22,-59.8216 343.378,-46.364 367.196,-35.3711"/>
<polygon fill="midnightblue" stroke="midnightblue" points="368.749,-38.5093 376.362,-31.1408 365.815,-32.1536 368.749,-38.5093"/>
</g>
<!-- Node7 -->
<g id="node7" class="node"><title>Node7</title>
<g id="a_node7"><a xlink:href="likely_8hpp.html" target="_top" xlink:title="tlx/define/likely.hpp">
<polygon fill="none" stroke="black" points="489.5,-6.5 489.5,-25.5 590.5,-25.5 590.5,-6.5 489.5,-6.5"/>
<text text-anchor="middle" x="540" y="-13.5" font-family="Helvetica,sans-Serif" font-size="10.00">tlx/define/likely.hpp</text>
</a>
</g>
</g>
<!-- Node2&#45;&gt;Node7 -->
<g id="edge6" class="edge"><title>Node2&#45;&gt;Node7</title>
<path fill="none" stroke="midnightblue" d="M314.857,-68.9257C355.682,-60.1442 422.554,-45.5453 480,-32 485.356,-30.7371 490.972,-29.3787 496.53,-28.0136"/>
<polygon fill="midnightblue" stroke="midnightblue" points="497.536,-31.3702 506.401,-25.5685 495.853,-24.5755 497.536,-31.3702"/>
</g>
</g>
</svg>
