<?xml version="1.0" encoding="UTF-8" standalone="no"?>
<!DOCTYPE svg PUBLIC "-//W3C//DTD SVG 1.1//EN"
 "http://www.w3.org/Graphics/SVG/1.1/DTD/svg11.dtd">
<!-- Generated by graphviz version 2.36.0 (20140111.2315)
 -->
<!-- Title: thrill/common/ring_buffer.hpp Pages: 1 -->
<svg width="459pt" height="176pt"
 viewBox="0.00 0.00 459.00 176.00" xmlns="http://www.w3.org/2000/svg" xmlns:xlink="http://www.w3.org/1999/xlink">
<g id="graph0" class="graph" transform="scale(1 1) rotate(0) translate(4 172)">
<title>thrill/common/ring_buffer.hpp</title>
<!-- Node1 -->
<g id="node1" class="node"><title>Node1</title>
<polygon fill="#bfbfbf" stroke="black" points="140,-137 140,-167 234,-167 234,-137 140,-137"/>
<text text-anchor="start" x="148" y="-155" font-family="Helvetica,sans-Serif" font-size="10.00">thrill/common/ring</text>
<text text-anchor="middle" x="187" y="-144" font-family="Helvetica,sans-Serif" font-size="10.00">_buffer.hpp</text>
</g>
<!-- Node2 -->
<g id="node2" class="node"><title>Node2</title>
<g id="a_node2"><a xlink:href="extlib_2tlx_2tlx_2container_2ring__buffer_8hpp.html" target="_top" xlink:title="tlx/container/ring\l_buffer.hpp">
<polygon fill="none" stroke="black" points="142.5,-69 142.5,-99 231.5,-99 231.5,-69 142.5,-69"/>
<text text-anchor="start" x="150.5" y="-87" font-family="Helvetica,sans-Serif" font-size="10.00">tlx/container/ring</text>
<text text-anchor="middle" x="187" y="-76" font-family="Helvetica,sans-Serif" font-size="10.00">_buffer.hpp</text>
</a>
</g>
</g>
<!-- Node1&#45;&gt;Node2 -->
<g id="edge1" class="edge"><title>Node1&#45;&gt;Node2</title>
<path fill="none" stroke="midnightblue" d="M187,-136.679C187,-128.722 187,-118.605 187,-109.436"/>
<polygon fill="midnightblue" stroke="midnightblue" points="190.5,-109.293 187,-99.2931 183.5,-109.293 190.5,-109.293"/>
</g>
<!-- Node3 -->
<g id="node3" class="node"><title>Node3</title>
<polygon fill="none" stroke="#bfbfbf" points="-0.5,-6.5 -0.5,-25.5 48.5,-25.5 48.5,-6.5 -0.5,-6.5"/>
<text text-anchor="middle" x="24" y="-13.5" font-family="Helvetica,sans-Serif" font-size="10.00">cassert</text>
</g>
<!-- Node2&#45;&gt;Node3 -->
<g id="edge2" class="edge"><title>Node2&#45;&gt;Node3</title>
<path fill="none" stroke="midnightblue" d="M150.426,-68.9782C124.516,-58.9381 88.9954,-44.9584 58,-32 56.1696,-31.2348 54.2884,-30.4369 52.395,-29.6254"/>
<polygon fill="midnightblue" stroke="midnightblue" points="53.571,-26.3202 43.0049,-25.5408 50.7787,-32.7392 53.571,-26.3202"/>
</g>
<!-- Node4 -->
<g id="node4" class="node"><title>Node4</title>
<polygon fill="none" stroke="#bfbfbf" points="67,-6.5 67,-25.5 113,-25.5 113,-6.5 67,-6.5"/>
<text text-anchor="middle" x="90" y="-13.5" font-family="Helvetica,sans-Serif" font-size="10.00">cstdint</text>
</g>
<!-- Node2&#45;&gt;Node4 -->
<g id="edge3" class="edge"><title>Node2&#45;&gt;Node4</title>
<path fill="none" stroke="midnightblue" d="M165.952,-68.679C149.686,-57.6109 127.276,-42.363 111.017,-31.3002"/>
<polygon fill="midnightblue" stroke="midnightblue" points="112.932,-28.3697 102.695,-25.6379 108.994,-34.157 112.932,-28.3697"/>
</g>
<!-- Node5 -->
<g id="node5" class="node"><title>Node5</title>
<polygon fill="none" stroke="#bfbfbf" points="131.5,-6.5 131.5,-25.5 176.5,-25.5 176.5,-6.5 131.5,-6.5"/>
<text text-anchor="middle" x="154" y="-13.5" font-family="Helvetica,sans-Serif" font-size="10.00">cstdlib</text>
</g>
<!-- Node2&#45;&gt;Node5 -->
<g id="edge4" class="edge"><title>Node2&#45;&gt;Node5</title>
<path fill="none" stroke="midnightblue" d="M179.839,-68.679C174.898,-58.7957 168.29,-45.5795 162.993,-34.9864"/>
<polygon fill="midnightblue" stroke="midnightblue" points="166.017,-33.2073 158.414,-25.8283 159.756,-36.3378 166.017,-33.2073"/>
</g>
<!-- Node6 -->
<g id="node6" class="node"><title>Node6</title>
<polygon fill="none" stroke="#bfbfbf" points="195,-6.5 195,-25.5 247,-25.5 247,-6.5 195,-6.5"/>
<text text-anchor="middle" x="221" y="-13.5" font-family="Helvetica,sans-Serif" font-size="10.00">memory</text>
</g>
<!-- Node2&#45;&gt;Node6 -->
<g id="edge5" class="edge"><title>Node2&#45;&gt;Node6</title>
<path fill="none" stroke="midnightblue" d="M194.377,-68.679C199.469,-58.7957 206.277,-45.5795 211.734,-34.9864"/>
<polygon fill="midnightblue" stroke="midnightblue" points="214.984,-36.3209 216.452,-25.8283 208.761,-33.1152 214.984,-36.3209"/>
</g>
<!-- Node7 -->
<g id="node7" class="node"><title>Node7</title>
<polygon fill="none" stroke="#bfbfbf" points="265,-6.5 265,-25.5 309,-25.5 309,-6.5 265,-6.5"/>
<text text-anchor="middle" x="287" y="-13.5" font-family="Helvetica,sans-Serif" font-size="10.00">vector</text>
</g>
<!-- Node2&#45;&gt;Node7 -->
<g id="edge6" class="edge"><title>Node2&#45;&gt;Node7</title>
<path fill="none" stroke="midnightblue" d="M208.699,-68.679C225.468,-57.6109 248.571,-42.363 265.333,-31.3002"/>
<polygon fill="midnightblue" stroke="midnightblue" points="267.494,-34.0675 273.912,-25.6379 263.638,-28.2252 267.494,-34.0675"/>
</g>
<!-- Node8 -->
<g id="node8" class="node"><title>Node8</title>
<g id="a_node8"><a xlink:href="round__to__power__of__two_8hpp.html" target="_top" xlink:title="tlx/math/round_to_power\l_of_two.hpp">
<polygon fill="none" stroke="black" points="327,-1 327,-31 451,-31 451,-1 327,-1"/>
<text text-anchor="start" x="335" y="-19" font-family="Helvetica,sans-Serif" font-size="10.00">tlx/math/round_to_power</text>
<text text-anchor="middle" x="389" y="-8" font-family="Helvetica,sans-Serif" font-size="10.00">_of_two.hpp</text>
</a>
</g>
</g>
<!-- Node2&#45;&gt;Node8 -->
<g id="edge7" class="edge"><title>Node2&#45;&gt;Node8</title>
<path fill="none" stroke="midnightblue" d="M230.334,-68.8413C261.326,-58.7152 303.213,-45.0295 336.166,-34.2625"/>
<polygon fill="midnightblue" stroke="midnightblue" points="337.666,-37.4546 346.085,-31.0218 335.492,-30.8007 337.666,-37.4546"/>
</g>
</g>
</svg>
