<?xml version="1.0" encoding="UTF-8" standalone="no"?>
<!DOCTYPE svg PUBLIC "-//W3C//DTD SVG 1.1//EN"
 "http://www.w3.org/Graphics/SVG/1.1/DTD/svg11.dtd">
<!-- Generated by graphviz version 2.36.0 (20140111.2315)
 -->
<!-- Title: extlib/tlx/tlx/timestamp.cpp Pages: 1 -->
<svg width="167pt" height="84pt"
 viewBox="0.00 0.00 167.00 84.00" xmlns="http://www.w3.org/2000/svg" xmlns:xlink="http://www.w3.org/1999/xlink">
<g id="graph0" class="graph" transform="scale(1 1) rotate(0) translate(4 80)">
<title>extlib/tlx/tlx/timestamp.cpp</title>
<!-- Node1 -->
<g id="node1" class="node"><title>Node1</title>
<polygon fill="#bfbfbf" stroke="black" points="24,-56.5 24,-75.5 158,-75.5 158,-56.5 24,-56.5"/>
<text text-anchor="middle" x="91" y="-63.5" font-family="Helvetica,sans-Serif" font-size="10.00">extlib/tlx/tlx/timestamp.cpp</text>
</g>
<!-- Node2 -->
<g id="node2" class="node"><title>Node2</title>
<g id="a_node2"><a xlink:href="timestamp_8hpp.html" target="_top" xlink:title="tlx/timestamp.hpp">
<polygon fill="none" stroke="black" points="-0.5,-0.5 -0.5,-19.5 94.5,-19.5 94.5,-0.5 -0.5,-0.5"/>
<text text-anchor="middle" x="47" y="-7.5" font-family="Helvetica,sans-Serif" font-size="10.00">tlx/timestamp.hpp</text>
</a>
</g>
</g>
<!-- Node1&#45;&gt;Node2 -->
<g id="edge1" class="edge"><title>Node1&#45;&gt;Node2</title>
<path fill="none" stroke="midnightblue" d="M83.7343,-56.083C77.4552,-48.3768 68.2124,-37.0333 60.5692,-27.6531"/>
<polygon fill="midnightblue" stroke="midnightblue" points="63.1606,-25.2926 54.1305,-19.7511 57.7339,-29.7143 63.1606,-25.2926"/>
</g>
<!-- Node3 -->
<g id="node3" class="node"><title>Node3</title>
<polygon fill="none" stroke="#bfbfbf" points="113,-0.5 113,-19.5 159,-19.5 159,-0.5 113,-0.5"/>
<text text-anchor="middle" x="136" y="-7.5" font-family="Helvetica,sans-Serif" font-size="10.00">chrono</text>
</g>
<!-- Node1&#45;&gt;Node3 -->
<g id="edge2" class="edge"><title>Node1&#45;&gt;Node3</title>
<path fill="none" stroke="midnightblue" d="M98.4308,-56.083C104.853,-48.3768 114.306,-37.0333 122.122,-27.6531"/>
<polygon fill="midnightblue" stroke="midnightblue" points="124.994,-29.674 128.707,-19.7511 119.617,-25.1927 124.994,-29.674"/>
</g>
</g>
</svg>
