<?xml version="1.0" encoding="UTF-8" standalone="no"?>
<!DOCTYPE svg PUBLIC "-//W3C//DTD SVG 1.1//EN"
 "http://www.w3.org/Graphics/SVG/1.1/DTD/svg11.dtd">
<!-- Generated by graphviz version 2.36.0 (20140111.2315)
 -->
<!-- Title: extlib/foxxll/foxxll/common/timer.hpp Pages: 1 -->
<svg width="902pt" height="220pt"
 viewBox="0.00 0.00 902.00 220.00" xmlns="http://www.w3.org/2000/svg" xmlns:xlink="http://www.w3.org/1999/xlink">
<g id="graph0" class="graph" transform="scale(1 1) rotate(0) translate(4 216)">
<title>extlib/foxxll/foxxll/common/timer.hpp</title>
<!-- Node1 -->
<g id="node1" class="node"><title>Node1</title>
<polygon fill="#bfbfbf" stroke="black" points="195.5,-181 195.5,-211 296.5,-211 296.5,-181 195.5,-181"/>
<text text-anchor="start" x="203.5" y="-199" font-family="Helvetica,sans-Serif" font-size="10.00">extlib/foxxll/foxxll</text>
<text text-anchor="middle" x="246" y="-188" font-family="Helvetica,sans-Serif" font-size="10.00">/common/timer.hpp</text>
</g>
<!-- Node2 -->
<g id="node2" class="node"><title>Node2</title>
<polygon fill="none" stroke="#bfbfbf" points="0,-118.5 0,-137.5 46,-137.5 46,-118.5 0,-118.5"/>
<text text-anchor="middle" x="23" y="-125.5" font-family="Helvetica,sans-Serif" font-size="10.00">chrono</text>
</g>
<!-- Node1&#45;&gt;Node2 -->
<g id="edge1" class="edge"><title>Node1&#45;&gt;Node2</title>
<path fill="none" stroke="midnightblue" d="M195.387,-182.836C157.707,-173.368 105.195,-159.298 60,-144 57.4415,-143.134 54.8046,-142.184 52.1724,-141.196"/>
<polygon fill="midnightblue" stroke="midnightblue" points="53.3968,-137.917 42.809,-137.53 50.8451,-144.435 53.3968,-137.917"/>
</g>
<!-- Node3 -->
<g id="node3" class="node"><title>Node3</title>
<polygon fill="none" stroke="#bfbfbf" points="64,-56.5 64,-75.5 104,-75.5 104,-56.5 64,-56.5"/>
<text text-anchor="middle" x="84" y="-63.5" font-family="Helvetica,sans-Serif" font-size="10.00">limits</text>
</g>
<!-- Node1&#45;&gt;Node3 -->
<g id="edge2" class="edge"><title>Node1&#45;&gt;Node3</title>
<path fill="none" stroke="midnightblue" d="M195.358,-182.883C171.171,-175.036 143.175,-162.701 123,-144 105.781,-128.039 95.0307,-102.773 89.2806,-85.5697"/>
<polygon fill="midnightblue" stroke="midnightblue" points="92.4997,-84.1314 86.2064,-75.6083 85.811,-86.1957 92.4997,-84.1314"/>
</g>
<!-- Node4 -->
<g id="node4" class="node"><title>Node4</title>
<polygon fill="none" stroke="#bfbfbf" points="850,-118.5 850,-137.5 894,-137.5 894,-118.5 850,-118.5"/>
<text text-anchor="middle" x="872" y="-125.5" font-family="Helvetica,sans-Serif" font-size="10.00">mutex</text>
</g>
<!-- Node1&#45;&gt;Node4 -->
<g id="edge3" class="edge"><title>Node1&#45;&gt;Node4</title>
<path fill="none" stroke="midnightblue" d="M296.573,-195.823C399.646,-196.372 640.787,-191.877 836,-144 838.994,-143.266 842.062,-142.318 845.083,-141.256"/>
<polygon fill="midnightblue" stroke="midnightblue" points="846.389,-144.504 854.423,-137.597 843.835,-137.986 846.389,-144.504"/>
</g>
<!-- Node5 -->
<g id="node5" class="node"><title>Node5</title>
<polygon fill="none" stroke="#bfbfbf" points="142.5,-56.5 142.5,-75.5 183.5,-75.5 183.5,-56.5 142.5,-56.5"/>
<text text-anchor="middle" x="163" y="-63.5" font-family="Helvetica,sans-Serif" font-size="10.00">string</text>
</g>
<!-- Node1&#45;&gt;Node5 -->
<g id="edge4" class="edge"><title>Node1&#45;&gt;Node5</title>
<path fill="none" stroke="midnightblue" d="M195.216,-185.714C171.452,-178.549 145.29,-165.97 131,-144 118.363,-124.572 134.046,-99.33 147.571,-83.1435"/>
<polygon fill="midnightblue" stroke="midnightblue" points="150.262,-85.3845 154.285,-75.5833 145.028,-80.7362 150.262,-85.3845"/>
</g>
<!-- Node6 -->
<g id="node6" class="node"><title>Node6</title>
<g id="a_node6"><a xlink:href="logger_2core_8hpp.html" target="_top" xlink:title="tlx/logger/core.hpp">
<polygon fill="none" stroke="black" points="255.5,-118.5 255.5,-137.5 352.5,-137.5 352.5,-118.5 255.5,-118.5"/>
<text text-anchor="middle" x="304" y="-125.5" font-family="Helvetica,sans-Serif" font-size="10.00">tlx/logger/core.hpp</text>
</a>
</g>
</g>
<!-- Node1&#45;&gt;Node6 -->
<g id="edge5" class="edge"><title>Node1&#45;&gt;Node6</title>
<path fill="none" stroke="midnightblue" d="M258.585,-180.679C267.718,-170.286 280.09,-156.208 289.614,-145.37"/>
<polygon fill="midnightblue" stroke="midnightblue" points="292.27,-147.65 296.242,-137.828 287.012,-143.03 292.27,-147.65"/>
</g>
<!-- Node10 -->
<g id="node10" class="node"><title>Node10</title>
<g id="a_node10"><a xlink:href="utils_8hpp.html" target="_top" xlink:title="foxxll/common/utils.hpp">
<polygon fill="none" stroke="black" points="370,-118.5 370,-137.5 490,-137.5 490,-118.5 370,-118.5"/>
<text text-anchor="middle" x="430" y="-125.5" font-family="Helvetica,sans-Serif" font-size="10.00">foxxll/common/utils.hpp</text>
</a>
</g>
</g>
<!-- Node1&#45;&gt;Node10 -->
<g id="edge10" class="edge"><title>Node1&#45;&gt;Node10</title>
<path fill="none" stroke="midnightblue" d="M285.473,-180.841C318.536,-168.982 365.212,-152.239 396.485,-141.022"/>
<polygon fill="midnightblue" stroke="midnightblue" points="397.83,-144.258 406.061,-137.587 395.466,-137.669 397.83,-144.258"/>
</g>
<!-- Node18 -->
<g id="node18" class="node"><title>Node18</title>
<polygon fill="none" stroke="#bfbfbf" points="778,-0.5 778,-19.5 866,-19.5 866,-0.5 778,-0.5"/>
<text text-anchor="middle" x="822" y="-7.5" font-family="Helvetica,sans-Serif" font-size="10.00">foxxll/config.hpp</text>
</g>
<!-- Node1&#45;&gt;Node18 -->
<g id="edge26" class="edge"><title>Node1&#45;&gt;Node18</title>
<path fill="none" stroke="midnightblue" d="M296.857,-189.606C416.844,-175.996 713.245,-136.942 790,-76 804.601,-64.4074 813.021,-44.4494 817.524,-29.6989"/>
<polygon fill="midnightblue" stroke="midnightblue" points="821.007,-30.226 820.24,-19.6589 814.25,-28.3975 821.007,-30.226"/>
</g>
<!-- Node19 -->
<g id="node19" class="node"><title>Node19</title>
<g id="a_node19"><a xlink:href="format__si__iec__units_8hpp.html" target="_top" xlink:title="tlx/string/format_si\l_iec_units.hpp">
<polygon fill="none" stroke="black" points="140,-113 140,-143 238,-143 238,-113 140,-113"/>
<text text-anchor="start" x="148" y="-131" font-family="Helvetica,sans-Serif" font-size="10.00">tlx/string/format_si</text>
<text text-anchor="middle" x="189" y="-120" font-family="Helvetica,sans-Serif" font-size="10.00">_iec_units.hpp</text>
</a>
</g>
</g>
<!-- Node1&#45;&gt;Node19 -->
<g id="edge27" class="edge"><title>Node1&#45;&gt;Node19</title>
<path fill="none" stroke="midnightblue" d="M233.632,-180.679C226.162,-172.03 216.489,-160.829 208.058,-151.067"/>
<polygon fill="midnightblue" stroke="midnightblue" points="210.529,-148.574 201.344,-143.293 205.231,-153.149 210.529,-148.574"/>
</g>
<!-- Node6&#45;&gt;Node5 -->
<g id="edge7" class="edge"><title>Node6&#45;&gt;Node5</title>
<path fill="none" stroke="midnightblue" d="M283.798,-118.403C259.926,-108.245 219.998,-91.2547 192.627,-79.6074"/>
<polygon fill="midnightblue" stroke="midnightblue" points="193.736,-76.2757 183.164,-75.5806 190.995,-82.7167 193.736,-76.2757"/>
</g>
<!-- Node7 -->
<g id="node7" class="node"><title>Node7</title>
<polygon fill="none" stroke="#bfbfbf" points="202,-56.5 202,-75.5 254,-75.5 254,-56.5 202,-56.5"/>
<text text-anchor="middle" x="228" y="-63.5" font-family="Helvetica,sans-Serif" font-size="10.00">sstream</text>
</g>
<!-- Node6&#45;&gt;Node7 -->
<g id="edge6" class="edge"><title>Node6&#45;&gt;Node7</title>
<path fill="none" stroke="midnightblue" d="M293.111,-118.403C281.034,-108.869 261.333,-93.3154 246.76,-81.8106"/>
<polygon fill="midnightblue" stroke="midnightblue" points="248.886,-79.03 238.869,-75.5806 244.549,-84.5242 248.886,-79.03"/>
</g>
<!-- Node8 -->
<g id="node8" class="node"><title>Node8</title>
<polygon fill="none" stroke="#bfbfbf" points="272,-56.5 272,-75.5 312,-75.5 312,-56.5 272,-56.5"/>
<text text-anchor="middle" x="292" y="-63.5" font-family="Helvetica,sans-Serif" font-size="10.00">utility</text>
</g>
<!-- Node6&#45;&gt;Node8 -->
<g id="edge8" class="edge"><title>Node6&#45;&gt;Node8</title>
<path fill="none" stroke="midnightblue" d="M302.281,-118.403C300.57,-109.849 297.89,-96.4497 295.695,-85.4762"/>
<polygon fill="midnightblue" stroke="midnightblue" points="299.109,-84.7 293.716,-75.5806 292.245,-86.0728 299.109,-84.7"/>
</g>
<!-- Node9 -->
<g id="node9" class="node"><title>Node9</title>
<polygon fill="none" stroke="#bfbfbf" points="330,-56.5 330,-75.5 374,-75.5 374,-56.5 330,-56.5"/>
<text text-anchor="middle" x="352" y="-63.5" font-family="Helvetica,sans-Serif" font-size="10.00">vector</text>
</g>
<!-- Node6&#45;&gt;Node9 -->
<g id="edge9" class="edge"><title>Node6&#45;&gt;Node9</title>
<path fill="none" stroke="midnightblue" d="M310.877,-118.403C318.149,-109.314 329.795,-94.7559 338.841,-83.4489"/>
<polygon fill="midnightblue" stroke="midnightblue" points="341.622,-85.5757 345.136,-75.5806 336.155,-81.2029 341.622,-85.5757"/>
</g>
<!-- Node10&#45;&gt;Node3 -->
<g id="edge14" class="edge"><title>Node10&#45;&gt;Node3</title>
<path fill="none" stroke="midnightblue" d="M392.478,-118.433C382.289,-116.219 371.242,-113.92 361,-112 260.168,-93.0958 234.125,-93.2678 133,-76 126.883,-74.9554 120.345,-73.7894 114.104,-72.6521"/>
<polygon fill="midnightblue" stroke="midnightblue" points="114.474,-69.1615 104.006,-70.7916 113.206,-76.0457 114.474,-69.1615"/>
</g>
<!-- Node10&#45;&gt;Node5 -->
<g id="edge16" class="edge"><title>Node10&#45;&gt;Node5</title>
<path fill="none" stroke="midnightblue" d="M390.959,-118.492C381.178,-116.366 370.706,-114.095 361,-112 289.419,-96.55 268.647,-95.0861 193.539,-75.9685"/>
<polygon fill="midnightblue" stroke="midnightblue" points="194.152,-72.5123 183.596,-73.4161 192.412,-79.2925 194.152,-72.5123"/>
</g>
<!-- Node10&#45;&gt;Node7 -->
<g id="edge15" class="edge"><title>Node10&#45;&gt;Node7</title>
<path fill="none" stroke="midnightblue" d="M401.058,-118.403C364.83,-107.643 302.792,-89.2154 263.667,-77.5941"/>
<polygon fill="midnightblue" stroke="midnightblue" points="264.585,-74.2158 254.002,-74.7235 262.592,-80.9261 264.585,-74.2158"/>
</g>
<!-- Node10&#45;&gt;Node8 -->
<g id="edge18" class="edge"><title>Node10&#45;&gt;Node8</title>
<path fill="none" stroke="midnightblue" d="M410.228,-118.403C386.864,-108.245 347.786,-91.2547 320.997,-79.6074"/>
<polygon fill="midnightblue" stroke="midnightblue" points="322.302,-76.3582 311.735,-75.5806 319.511,-82.7777 322.302,-76.3582"/>
</g>
<!-- Node10&#45;&gt;Node9 -->
<g id="edge19" class="edge"><title>Node10&#45;&gt;Node9</title>
<path fill="none" stroke="midnightblue" d="M418.825,-118.403C406.429,-108.869 386.21,-93.3154 371.254,-81.8106"/>
<polygon fill="midnightblue" stroke="midnightblue" points="373.215,-78.9035 363.155,-75.5806 368.947,-84.4519 373.215,-78.9035"/>
</g>
<!-- Node11 -->
<g id="node11" class="node"><title>Node11</title>
<polygon fill="none" stroke="#bfbfbf" points="392,-56.5 392,-75.5 448,-75.5 448,-56.5 392,-56.5"/>
<text text-anchor="middle" x="420" y="-63.5" font-family="Helvetica,sans-Serif" font-size="10.00">algorithm</text>
</g>
<!-- Node10&#45;&gt;Node11 -->
<g id="edge11" class="edge"><title>Node10&#45;&gt;Node11</title>
<path fill="none" stroke="midnightblue" d="M428.567,-118.403C427.141,-109.849 424.908,-96.4497 423.079,-85.4762"/>
<polygon fill="midnightblue" stroke="midnightblue" points="426.527,-84.8691 421.43,-75.5806 419.622,-86.02 426.527,-84.8691"/>
</g>
<!-- Node12 -->
<g id="node12" class="node"><title>Node12</title>
<polygon fill="none" stroke="#bfbfbf" points="466,-56.5 466,-75.5 510,-75.5 510,-56.5 466,-56.5"/>
<text text-anchor="middle" x="488" y="-63.5" font-family="Helvetica,sans-Serif" font-size="10.00">cmath</text>
</g>
<!-- Node10&#45;&gt;Node12 -->
<g id="edge12" class="edge"><title>Node10&#45;&gt;Node12</title>
<path fill="none" stroke="midnightblue" d="M438.31,-118.403C447.268,-109.136 461.723,-94.1828 472.739,-82.7876"/>
<polygon fill="midnightblue" stroke="midnightblue" points="475.272,-85.2031 479.705,-75.5806 470.239,-80.3379 475.272,-85.2031"/>
</g>
<!-- Node13 -->
<g id="node13" class="node"><title>Node13</title>
<polygon fill="none" stroke="#bfbfbf" points="528.5,-56.5 528.5,-75.5 573.5,-75.5 573.5,-56.5 528.5,-56.5"/>
<text text-anchor="middle" x="551" y="-63.5" font-family="Helvetica,sans-Serif" font-size="10.00">cstdlib</text>
</g>
<!-- Node10&#45;&gt;Node13 -->
<g id="edge13" class="edge"><title>Node10&#45;&gt;Node13</title>
<path fill="none" stroke="midnightblue" d="M447.336,-118.403C467.553,-108.379 501.187,-91.7006 524.642,-80.0699"/>
<polygon fill="midnightblue" stroke="midnightblue" points="526.292,-83.1588 533.696,-75.5806 523.182,-76.8875 526.292,-83.1588"/>
</g>
<!-- Node14 -->
<g id="node14" class="node"><title>Node14</title>
<polygon fill="none" stroke="#bfbfbf" points="566,-0.5 566,-19.5 628,-19.5 628,-0.5 566,-0.5"/>
<text text-anchor="middle" x="597" y="-7.5" font-family="Helvetica,sans-Serif" font-size="10.00">type_traits</text>
</g>
<!-- Node10&#45;&gt;Node14 -->
<g id="edge17" class="edge"><title>Node10&#45;&gt;Node14</title>
<path fill="none" stroke="midnightblue" d="M490.303,-120.844C521.83,-114.529 558.618,-101.766 582,-76 593.3,-63.5483 596.607,-44.3132 597.353,-29.9941"/>
<polygon fill="midnightblue" stroke="midnightblue" points="600.856,-29.8392 597.506,-19.7879 593.857,-29.7343 600.856,-29.8392"/>
</g>
<!-- Node15 -->
<g id="node15" class="node"><title>Node15</title>
<g id="a_node15"><a xlink:href="types_8hpp.html" target="_top" xlink:title="foxxll/common/types.hpp">
<polygon fill="none" stroke="black" points="630,-56.5 630,-75.5 756,-75.5 756,-56.5 630,-56.5"/>
<text text-anchor="middle" x="693" y="-63.5" font-family="Helvetica,sans-Serif" font-size="10.00">foxxll/common/types.hpp</text>
</a>
</g>
</g>
<!-- Node10&#45;&gt;Node15 -->
<g id="edge20" class="edge"><title>Node10&#45;&gt;Node15</title>
<path fill="none" stroke="midnightblue" d="M467.402,-118.467C514.334,-107.76 594.847,-89.3922 645.923,-77.74"/>
<polygon fill="midnightblue" stroke="midnightblue" points="646.756,-81.14 655.727,-75.5034 645.199,-74.3154 646.756,-81.14"/>
</g>
<!-- Node10&#45;&gt;Node18 -->
<g id="edge25" class="edge"><title>Node10&#45;&gt;Node18</title>
<path fill="none" stroke="midnightblue" d="M490.156,-122.797C573.435,-116.147 718.818,-101.288 765,-76 785.278,-64.8965 801.789,-43.623 811.726,-28.4375"/>
<polygon fill="midnightblue" stroke="midnightblue" points="814.719,-30.2524 817.038,-19.9145 808.778,-26.5499 814.719,-30.2524"/>
</g>
<!-- Node15&#45;&gt;Node14 -->
<g id="edge23" class="edge"><title>Node15&#45;&gt;Node14</title>
<path fill="none" stroke="midnightblue" d="M677.576,-56.324C662.46,-47.8215 639.185,-34.7288 621.529,-24.7975"/>
<polygon fill="midnightblue" stroke="midnightblue" points="622.817,-21.5066 612.386,-19.6545 619.386,-27.6077 622.817,-21.5066"/>
</g>
<!-- Node16 -->
<g id="node16" class="node"><title>Node16</title>
<polygon fill="none" stroke="#bfbfbf" points="646.5,-0.5 646.5,-19.5 695.5,-19.5 695.5,-0.5 646.5,-0.5"/>
<text text-anchor="middle" x="671" y="-7.5" font-family="Helvetica,sans-Serif" font-size="10.00">cstddef</text>
</g>
<!-- Node15&#45;&gt;Node16 -->
<g id="edge21" class="edge"><title>Node15&#45;&gt;Node16</title>
<path fill="none" stroke="midnightblue" d="M689.367,-56.083C686.388,-48.77 682.074,-38.1814 678.375,-29.1034"/>
<polygon fill="midnightblue" stroke="midnightblue" points="681.58,-27.6914 674.565,-19.7511 675.097,-30.3326 681.58,-27.6914"/>
</g>
<!-- Node17 -->
<g id="node17" class="node"><title>Node17</title>
<polygon fill="none" stroke="#bfbfbf" points="714,-0.5 714,-19.5 760,-19.5 760,-0.5 714,-0.5"/>
<text text-anchor="middle" x="737" y="-7.5" font-family="Helvetica,sans-Serif" font-size="10.00">cstdint</text>
</g>
<!-- Node15&#45;&gt;Node17 -->
<g id="edge22" class="edge"><title>Node15&#45;&gt;Node17</title>
<path fill="none" stroke="midnightblue" d="M700.266,-56.083C706.545,-48.3768 715.788,-37.0333 723.431,-27.6531"/>
<polygon fill="midnightblue" stroke="midnightblue" points="726.266,-29.7143 729.869,-19.7511 720.839,-25.2926 726.266,-29.7143"/>
</g>
<!-- Node15&#45;&gt;Node18 -->
<g id="edge24" class="edge"><title>Node15&#45;&gt;Node18</title>
<path fill="none" stroke="midnightblue" d="M713.44,-56.4435C734.67,-47.5566 768.099,-33.5632 792.255,-23.4514"/>
<polygon fill="midnightblue" stroke="midnightblue" points="793.782,-26.6064 801.655,-19.5164 791.079,-20.1493 793.782,-26.6064"/>
</g>
<!-- Node19&#45;&gt;Node5 -->
<g id="edge28" class="edge"><title>Node19&#45;&gt;Node5</title>
<path fill="none" stroke="midnightblue" d="M182.838,-112.781C179.255,-104.512 174.703,-94.006 170.863,-85.1448"/>
<polygon fill="midnightblue" stroke="midnightblue" points="173.971,-83.5144 166.783,-75.7305 167.548,-86.2977 173.971,-83.5144"/>
</g>
</g>
</svg>
