<?xml version="1.0" encoding="UTF-8" standalone="no"?>
<!DOCTYPE svg PUBLIC "-//W3C//DTD SVG 1.1//EN"
 "http://www.w3.org/Graphics/SVG/1.1/DTD/svg11.dtd">
<!-- Generated by graphviz version 2.40.1 (20161225.0304)
 -->
<!-- Title: extlib/foxxll/foxxll/common/tmeta.hpp Pages: 1 -->
<svg width="333pt" height="151pt"
 viewBox="0.00 0.00 332.50 151.00" xmlns="http://www.w3.org/2000/svg" xmlns:xlink="http://www.w3.org/1999/xlink">
<g id="graph0" class="graph" transform="scale(1 1) rotate(0) translate(4 147)">
<title>extlib/foxxll/foxxll/common/tmeta.hpp</title>
<!-- Node0 -->
<g id="node1" class="node">
<title>Node0</title>
<polygon fill="#bfbfbf" stroke="#000000" points="25.5,-112.5 25.5,-142.5 141.5,-142.5 141.5,-112.5 25.5,-112.5"/>
<text text-anchor="start" x="33.5" y="-130.5" font-family="Helvetica,sans-Serif" font-size="10.00" fill="#000000">extlib/foxxll/foxxll</text>
<text text-anchor="middle" x="83.5" y="-119.5" font-family="Helvetica,sans-Serif" font-size="10.00" fill="#000000">/common/tmeta.hpp</text>
</g>
<!-- Node1 -->
<g id="node2" class="node">
<title>Node1</title>
<polygon fill="none" stroke="#bfbfbf" points="0,-.5 0,-19.5 69,-19.5 69,-.5 0,-.5"/>
<text text-anchor="middle" x="34.5" y="-7.5" font-family="Helvetica,sans-Serif" font-size="10.00" fill="#000000">type_traits</text>
</g>
<!-- Node0&#45;&gt;Node1 -->
<g id="edge1" class="edge">
<title>Node0&#45;&gt;Node1</title>
<path fill="none" stroke="#191970" d="M73.2665,-112.2461C66.9132,-102.2625 58.949,-88.7499 53.5,-76 47.0568,-60.9241 42.0538,-43.0029 38.8026,-29.6421"/>
<polygon fill="#191970" stroke="#191970" points="42.1557,-28.6072 36.4906,-19.6541 35.336,-30.1859 42.1557,-28.6072"/>
</g>
<!-- Node2 -->
<g id="node3" class="node">
<title>Node2</title>
<g id="a_node3"><a xlink:href="types_8hpp.html" target="_top" xlink:title="foxxll/common/types.hpp">
<polygon fill="none" stroke="#000000" points="63,-56.5 63,-75.5 204,-75.5 204,-56.5 63,-56.5"/>
<text text-anchor="middle" x="133.5" y="-63.5" font-family="Helvetica,sans-Serif" font-size="10.00" fill="#000000">foxxll/common/types.hpp</text>
</a>
</g>
</g>
<!-- Node0&#45;&gt;Node2 -->
<g id="edge2" class="edge">
<title>Node0&#45;&gt;Node2</title>
<path fill="none" stroke="#191970" d="M95.8596,-112.2977C102.8724,-103.672 111.686,-92.8312 119.0214,-83.8087"/>
<polygon fill="#191970" stroke="#191970" points="121.9018,-85.8141 125.4944,-75.8469 116.4703,-81.3982 121.9018,-85.8141"/>
</g>
<!-- Node2&#45;&gt;Node1 -->
<g id="edge5" class="edge">
<title>Node2&#45;&gt;Node1</title>
<path fill="none" stroke="#191970" d="M116.2555,-56.2455C100.9239,-47.5731 78.2801,-34.7645 60.7084,-24.825"/>
<polygon fill="#191970" stroke="#191970" points="61.9741,-21.5198 51.5469,-19.6427 58.5276,-27.6126 61.9741,-21.5198"/>
</g>
<!-- Node3 -->
<g id="node4" class="node">
<title>Node3</title>
<polygon fill="none" stroke="#bfbfbf" points="87,-.5 87,-19.5 140,-19.5 140,-.5 87,-.5"/>
<text text-anchor="middle" x="113.5" y="-7.5" font-family="Helvetica,sans-Serif" font-size="10.00" fill="#000000">cstddef</text>
</g>
<!-- Node2&#45;&gt;Node3 -->
<g id="edge3" class="edge">
<title>Node2&#45;&gt;Node3</title>
<path fill="none" stroke="#191970" d="M130.0163,-56.2455C127.3492,-48.7776 123.5867,-38.2427 120.3263,-29.1137"/>
<polygon fill="#191970" stroke="#191970" points="123.6033,-27.8829 116.9438,-19.6427 117.0111,-30.2373 123.6033,-27.8829"/>
</g>
<!-- Node4 -->
<g id="node5" class="node">
<title>Node4</title>
<polygon fill="none" stroke="#bfbfbf" points="158.5,-.5 158.5,-19.5 208.5,-19.5 208.5,-.5 158.5,-.5"/>
<text text-anchor="middle" x="183.5" y="-7.5" font-family="Helvetica,sans-Serif" font-size="10.00" fill="#000000">cstdint</text>
</g>
<!-- Node2&#45;&gt;Node4 -->
<g id="edge4" class="edge">
<title>Node2&#45;&gt;Node4</title>
<path fill="none" stroke="#191970" d="M142.2093,-56.2455C149.3073,-48.2958 159.5084,-36.8706 167.995,-27.3656"/>
<polygon fill="#191970" stroke="#191970" points="170.8411,-29.4331 174.8905,-19.6427 165.6195,-24.771 170.8411,-29.4331"/>
</g>
<!-- Node5 -->
<g id="node6" class="node">
<title>Node5</title>
<polygon fill="none" stroke="#bfbfbf" points="226.5,-.5 226.5,-19.5 324.5,-19.5 324.5,-.5 226.5,-.5"/>
<text text-anchor="middle" x="275.5" y="-7.5" font-family="Helvetica,sans-Serif" font-size="10.00" fill="#000000">foxxll/config.hpp</text>
</g>
<!-- Node2&#45;&gt;Node5 -->
<g id="edge6" class="edge">
<title>Node2&#45;&gt;Node5</title>
<path fill="none" stroke="#191970" d="M157.9107,-56.3733C181.1142,-47.2226 216.2038,-33.3844 242.0142,-23.2057"/>
<polygon fill="#191970" stroke="#191970" points="243.3892,-26.4258 251.4079,-19.5011 240.8211,-19.9139 243.3892,-26.4258"/>
</g>
</g>
</svg>
