<?xml version="1.0" encoding="UTF-8" standalone="no"?>
<!DOCTYPE svg PUBLIC "-//W3C//DTD SVG 1.1//EN"
 "http://www.w3.org/Graphics/SVG/1.1/DTD/svg11.dtd">
<!-- Generated by graphviz version 2.36.0 (20140111.2315)
 -->
<!-- Title: extlib/foxxll/foxxll/common/tmeta.hpp Pages: 1 -->
<svg width="308pt" height="152pt"
 viewBox="0.00 0.00 308.00 152.00" xmlns="http://www.w3.org/2000/svg" xmlns:xlink="http://www.w3.org/1999/xlink">
<g id="graph0" class="graph" transform="scale(1 1) rotate(0) translate(4 148)">
<title>extlib/foxxll/foxxll/common/tmeta.hpp</title>
<!-- Node1 -->
<g id="node1" class="node"><title>Node1</title>
<polygon fill="#bfbfbf" stroke="black" points="24,-113 24,-143 128,-143 128,-113 24,-113"/>
<text text-anchor="start" x="32" y="-131" font-family="Helvetica,sans-Serif" font-size="10.00">extlib/foxxll/foxxll</text>
<text text-anchor="middle" x="76" y="-120" font-family="Helvetica,sans-Serif" font-size="10.00">/common/tmeta.hpp</text>
</g>
<!-- Node2 -->
<g id="node2" class="node"><title>Node2</title>
<polygon fill="none" stroke="#bfbfbf" points="0,-0.5 0,-19.5 62,-19.5 62,-0.5 0,-0.5"/>
<text text-anchor="middle" x="31" y="-7.5" font-family="Helvetica,sans-Serif" font-size="10.00">type_traits</text>
</g>
<!-- Node1&#45;&gt;Node2 -->
<g id="edge1" class="edge"><title>Node1&#45;&gt;Node2</title>
<path fill="none" stroke="midnightblue" d="M67.746,-112.607C62.2206,-102.571 55.0607,-88.7471 50,-76 43.8994,-60.6335 38.7679,-42.5355 35.3817,-29.3437"/>
<polygon fill="midnightblue" stroke="midnightblue" points="38.7661,-28.4496 32.9647,-19.5842 31.9713,-30.1324 38.7661,-28.4496"/>
</g>
<!-- Node3 -->
<g id="node3" class="node"><title>Node3</title>
<g id="a_node3"><a xlink:href="types_8hpp.html" target="_top" xlink:title="foxxll/common/types.hpp">
<polygon fill="none" stroke="black" points="59,-56.5 59,-75.5 185,-75.5 185,-56.5 59,-56.5"/>
<text text-anchor="middle" x="122" y="-63.5" font-family="Helvetica,sans-Serif" font-size="10.00">foxxll/common/types.hpp</text>
</a>
</g>
</g>
<!-- Node1&#45;&gt;Node3 -->
<g id="edge2" class="edge"><title>Node1&#45;&gt;Node3</title>
<path fill="none" stroke="midnightblue" d="M86.9014,-112.781C93.5857,-104.062 102.176,-92.8574 109.185,-83.7153"/>
<polygon fill="midnightblue" stroke="midnightblue" points="112,-85.7961 115.307,-75.7305 106.445,-81.5371 112,-85.7961"/>
</g>
<!-- Node3&#45;&gt;Node2 -->
<g id="edge5" class="edge"><title>Node3&#45;&gt;Node2</title>
<path fill="none" stroke="midnightblue" d="M107.379,-56.324C93.0511,-47.8215 70.9875,-34.7288 54.2513,-24.7975"/>
<polygon fill="midnightblue" stroke="midnightblue" points="55.9704,-21.7478 45.5844,-19.6545 52.3982,-27.7677 55.9704,-21.7478"/>
</g>
<!-- Node4 -->
<g id="node4" class="node"><title>Node4</title>
<polygon fill="none" stroke="#bfbfbf" points="80.5,-0.5 80.5,-19.5 129.5,-19.5 129.5,-0.5 80.5,-0.5"/>
<text text-anchor="middle" x="105" y="-7.5" font-family="Helvetica,sans-Serif" font-size="10.00">cstddef</text>
</g>
<!-- Node3&#45;&gt;Node4 -->
<g id="edge3" class="edge"><title>Node3&#45;&gt;Node4</title>
<path fill="none" stroke="midnightblue" d="M119.193,-56.083C116.915,-48.8486 113.629,-38.4087 110.792,-29.3968"/>
<polygon fill="midnightblue" stroke="midnightblue" points="114.096,-28.2385 107.755,-19.7511 107.419,-30.3406 114.096,-28.2385"/>
</g>
<!-- Node5 -->
<g id="node5" class="node"><title>Node5</title>
<polygon fill="none" stroke="#bfbfbf" points="148,-0.5 148,-19.5 194,-19.5 194,-0.5 148,-0.5"/>
<text text-anchor="middle" x="171" y="-7.5" font-family="Helvetica,sans-Serif" font-size="10.00">cstdint</text>
</g>
<!-- Node3&#45;&gt;Node5 -->
<g id="edge4" class="edge"><title>Node3&#45;&gt;Node5</title>
<path fill="none" stroke="midnightblue" d="M130.091,-56.083C137.155,-48.2982 147.588,-36.8015 156.149,-27.3665"/>
<polygon fill="midnightblue" stroke="midnightblue" points="158.931,-29.5087 163.059,-19.7511 153.747,-24.8047 158.931,-29.5087"/>
</g>
<!-- Node6 -->
<g id="node6" class="node"><title>Node6</title>
<polygon fill="none" stroke="#bfbfbf" points="212,-0.5 212,-19.5 300,-19.5 300,-0.5 212,-0.5"/>
<text text-anchor="middle" x="256" y="-7.5" font-family="Helvetica,sans-Serif" font-size="10.00">foxxll/config.hpp</text>
</g>
<!-- Node3&#45;&gt;Node6 -->
<g id="edge6" class="edge"><title>Node3&#45;&gt;Node6</title>
<path fill="none" stroke="midnightblue" d="M143.233,-56.4435C165.384,-47.5171 200.319,-33.4387 225.436,-23.3168"/>
<polygon fill="midnightblue" stroke="midnightblue" points="226.9,-26.5006 234.867,-19.5164 224.283,-20.0079 226.9,-26.5006"/>
</g>
</g>
</svg>
