<?xml version="1.0" encoding="UTF-8" standalone="no"?>
<!DOCTYPE svg PUBLIC "-//W3C//DTD SVG 1.1//EN"
 "http://www.w3.org/Graphics/SVG/1.1/DTD/svg11.dtd">
<!-- Generated by graphviz version 2.26.3 (20100126.1600)
 -->
<!-- Title: extlib/tlx/tlx/string/to_lower.hpp Pages: 1 -->
<svg width="802pt" height="116pt"
 viewBox="0.00 0.00 802.00 116.00" xmlns="http://www.w3.org/2000/svg" xmlns:xlink="http://www.w3.org/1999/xlink">
<g id="graph1" class="graph" transform="scale(1 1) rotate(0) translate(4 112)">
<title>extlib/tlx/tlx/string/to_lower.hpp</title>
<!-- Node1 -->
<g id="node1" class="node"><title>Node1</title>
<polygon fill="#bfbfbf" stroke="black" points="346,-73 346,-107 440,-107 440,-73 346,-73"/>
<text text-anchor="start" x="354" y="-94" font-family="Helvetica,sans-Serif" font-size="10.00">extlib/tlx/tlx/string</text>
<text text-anchor="middle" x="393" y="-81" font-family="Helvetica,sans-Serif" font-size="10.00">/to_lower.hpp</text>
</g>
<!-- Node2 -->
<g id="node3" class="node"><title>Node2</title>
<a xlink:href="compare__icase_8cpp.html" target="_top" xlink:title="extlib/tlx/tlx/string\l/compare_icase.cpp">
<polygon fill="none" stroke="black" points="0,-1 0,-35 104,-35 104,-1 0,-1"/>
<text text-anchor="start" x="8" y="-22" font-family="Helvetica,sans-Serif" font-size="10.00">extlib/tlx/tlx/string</text>
<text text-anchor="middle" x="52" y="-9" font-family="Helvetica,sans-Serif" font-size="10.00">/compare_icase.cpp</text>
</a>
</g>
<!-- Node1&#45;&gt;Node2 -->
<g id="edge2" class="edge"><title>Node1&#45;&gt;Node2</title>
<path fill="none" stroke="midnightblue" d="M335.76,-80.6259C278.923,-70.9276 189.462,-54.6086 113,-36 110.103,-35.295 107.139,-34.5385 104.154,-33.7492"/>
<polygon fill="midnightblue" stroke="midnightblue" points="335.191,-84.0792 345.635,-82.3003 336.361,-77.1777 335.191,-84.0792"/>
</g>
<!-- Node3 -->
<g id="node5" class="node"><title>Node3</title>
<a xlink:href="ends__with_8cpp.html" target="_top" xlink:title="extlib/tlx/tlx/string\l/ends_with.cpp">
<polygon fill="none" stroke="black" points="122,-1 122,-35 216,-35 216,-1 122,-1"/>
<text text-anchor="start" x="130" y="-22" font-family="Helvetica,sans-Serif" font-size="10.00">extlib/tlx/tlx/string</text>
<text text-anchor="middle" x="169" y="-9" font-family="Helvetica,sans-Serif" font-size="10.00">/ends_with.cpp</text>
</a>
</g>
<!-- Node1&#45;&gt;Node3 -->
<g id="edge4" class="edge"><title>Node1&#45;&gt;Node3</title>
<path fill="none" stroke="midnightblue" d="M336.096,-71.7095C298.993,-59.7834 251.145,-44.4039 216.166,-33.1606"/>
<polygon fill="midnightblue" stroke="midnightblue" points="335.178,-75.0906 345.769,-74.8186 337.32,-68.4264 335.178,-75.0906"/>
</g>
<!-- Node4 -->
<g id="node7" class="node"><title>Node4</title>
<a xlink:href="equal__icase_8cpp.html" target="_top" xlink:title="extlib/tlx/tlx/string\l/equal_icase.cpp">
<polygon fill="none" stroke="black" points="234,-1 234,-35 328,-35 328,-1 234,-1"/>
<text text-anchor="start" x="242" y="-22" font-family="Helvetica,sans-Serif" font-size="10.00">extlib/tlx/tlx/string</text>
<text text-anchor="middle" x="281" y="-9" font-family="Helvetica,sans-Serif" font-size="10.00">/equal_icase.cpp</text>
</a>
</g>
<!-- Node1&#45;&gt;Node4 -->
<g id="edge6" class="edge"><title>Node1&#45;&gt;Node4</title>
<path fill="none" stroke="midnightblue" d="M357.788,-67.3637C341.608,-56.9622 322.729,-44.826 307.74,-35.19"/>
<polygon fill="midnightblue" stroke="midnightblue" points="356.153,-70.4735 366.458,-72.937 359.938,-64.5853 356.153,-70.4735"/>
</g>
<!-- Node5 -->
<g id="node9" class="node"><title>Node5</title>
<a xlink:href="less__icase_8cpp.html" target="_top" xlink:title="extlib/tlx/tlx/string\l/less_icase.cpp">
<polygon fill="none" stroke="black" points="346,-1 346,-35 440,-35 440,-1 346,-1"/>
<text text-anchor="start" x="354" y="-22" font-family="Helvetica,sans-Serif" font-size="10.00">extlib/tlx/tlx/string</text>
<text text-anchor="middle" x="393" y="-9" font-family="Helvetica,sans-Serif" font-size="10.00">/less_icase.cpp</text>
</a>
</g>
<!-- Node1&#45;&gt;Node5 -->
<g id="edge8" class="edge"><title>Node1&#45;&gt;Node5</title>
<path fill="none" stroke="midnightblue" d="M393,-62.7193C393,-53.572 393,-43.6255 393,-35.4407"/>
<polygon fill="midnightblue" stroke="midnightblue" points="389.5,-62.937 393,-72.937 396.5,-62.937 389.5,-62.937"/>
</g>
<!-- Node6 -->
<g id="node11" class="node"><title>Node6</title>
<a xlink:href="starts__with_8cpp.html" target="_top" xlink:title="extlib/tlx/tlx/string\l/starts_with.cpp">
<polygon fill="none" stroke="black" points="458,-1 458,-35 552,-35 552,-1 458,-1"/>
<text text-anchor="start" x="466" y="-22" font-family="Helvetica,sans-Serif" font-size="10.00">extlib/tlx/tlx/string</text>
<text text-anchor="middle" x="505" y="-9" font-family="Helvetica,sans-Serif" font-size="10.00">/starts_with.cpp</text>
</a>
</g>
<!-- Node1&#45;&gt;Node6 -->
<g id="edge10" class="edge"><title>Node1&#45;&gt;Node6</title>
<path fill="none" stroke="midnightblue" d="M428.212,-67.3637C444.392,-56.9622 463.271,-44.826 478.26,-35.19"/>
<polygon fill="midnightblue" stroke="midnightblue" points="426.062,-64.5853 419.542,-72.937 429.847,-70.4735 426.062,-64.5853"/>
</g>
<!-- Node7 -->
<g id="node13" class="node"><title>Node7</title>
<a xlink:href="to__lower_8cpp.html" target="_top" xlink:title="extlib/tlx/tlx/string\l/to_lower.cpp">
<polygon fill="none" stroke="black" points="570,-1 570,-35 664,-35 664,-1 570,-1"/>
<text text-anchor="start" x="578" y="-22" font-family="Helvetica,sans-Serif" font-size="10.00">extlib/tlx/tlx/string</text>
<text text-anchor="middle" x="617" y="-9" font-family="Helvetica,sans-Serif" font-size="10.00">/to_lower.cpp</text>
</a>
</g>
<!-- Node1&#45;&gt;Node7 -->
<g id="edge12" class="edge"><title>Node1&#45;&gt;Node7</title>
<path fill="none" stroke="midnightblue" d="M449.904,-71.7095C487.007,-59.7834 534.855,-44.4039 569.834,-33.1606"/>
<polygon fill="midnightblue" stroke="midnightblue" points="448.68,-68.4264 440.231,-74.8186 450.822,-75.0906 448.68,-68.4264"/>
</g>
<!-- Node8 -->
<g id="node15" class="node"><title>Node8</title>
<a xlink:href="extlib_2tlx_2tlx_2string_8hpp.html" target="_top" xlink:title="extlib/tlx/tlx/string.hpp">
<polygon fill="none" stroke="black" points="681.5,-7.5 681.5,-28.5 794.5,-28.5 794.5,-7.5 681.5,-7.5"/>
<text text-anchor="middle" x="738" y="-15.5" font-family="Helvetica,sans-Serif" font-size="10.00">extlib/tlx/tlx/string.hpp</text>
</a>
</g>
<!-- Node1&#45;&gt;Node8 -->
<g id="edge14" class="edge"><title>Node1&#45;&gt;Node8</title>
<path fill="none" stroke="midnightblue" d="M450.174,-80.349C506.961,-70.4406 596.384,-53.9662 673,-36 682.462,-33.7812 692.621,-31.109 702.031,-28.5106"/>
<polygon fill="midnightblue" stroke="midnightblue" points="449.562,-76.9028 440.308,-82.0616 450.759,-83.7996 449.562,-76.9028"/>
</g>
</g>
</svg>
