<?xml version="1.0" encoding="UTF-8" standalone="no"?>
<!DOCTYPE svg PUBLIC "-//W3C//DTD SVG 1.1//EN"
 "http://www.w3.org/Graphics/SVG/1.1/DTD/svg11.dtd">
<!-- Generated by graphviz version 2.40.1 (20161225.0304)
 -->
<!-- Title: extlib/tlx/tlx/string/to_upper.cpp Pages: 1 -->
<svg width="216pt" height="151pt"
 viewBox="0.00 0.00 216.00 151.00" xmlns="http://www.w3.org/2000/svg" xmlns:xlink="http://www.w3.org/1999/xlink">
<g id="graph0" class="graph" transform="scale(1 1) rotate(0) translate(4 147)">
<title>extlib/tlx/tlx/string/to_upper.cpp</title>
<!-- Node0 -->
<g id="node1" class="node">
<title>Node0</title>
<polygon fill="#bfbfbf" stroke="#000000" points="65.5,-112.5 65.5,-142.5 172.5,-142.5 172.5,-112.5 65.5,-112.5"/>
<text text-anchor="start" x="73.5" y="-130.5" font-family="Helvetica,sans-Serif" font-size="10.00" fill="#000000">extlib/tlx/tlx/string</text>
<text text-anchor="middle" x="119" y="-119.5" font-family="Helvetica,sans-Serif" font-size="10.00" fill="#000000">/to_upper.cpp</text>
</g>
<!-- Node1 -->
<g id="node2" class="node">
<title>Node1</title>
<g id="a_node2"><a xlink:href="to__upper_8hpp.html" target="_top" xlink:title="tlx/string/to_upper.hpp">
<polygon fill="none" stroke="#000000" points="0,-56.5 0,-75.5 126,-75.5 126,-56.5 0,-56.5"/>
<text text-anchor="middle" x="63" y="-63.5" font-family="Helvetica,sans-Serif" font-size="10.00" fill="#000000">tlx/string/to_upper.hpp</text>
</a>
</g>
</g>
<!-- Node0&#45;&gt;Node1 -->
<g id="edge1" class="edge">
<title>Node0&#45;&gt;Node1</title>
<path fill="none" stroke="#191970" d="M105.1573,-112.2977C97.141,-103.4941 87.0238,-92.3833 78.71,-83.2529"/>
<polygon fill="#191970" stroke="#191970" points="81.2869,-80.8845 71.9663,-75.8469 76.1112,-85.5974 81.2869,-80.8845"/>
</g>
<!-- Node3 -->
<g id="node4" class="node">
<title>Node3</title>
<polygon fill="none" stroke="#bfbfbf" points="144,-56.5 144,-75.5 208,-75.5 208,-56.5 144,-56.5"/>
<text text-anchor="middle" x="176" y="-63.5" font-family="Helvetica,sans-Serif" font-size="10.00" fill="#000000">algorithm</text>
</g>
<!-- Node0&#45;&gt;Node3 -->
<g id="edge3" class="edge">
<title>Node0&#45;&gt;Node3</title>
<path fill="none" stroke="#191970" d="M133.0899,-112.2977C141.2493,-103.4941 151.5472,-92.3833 160.0095,-83.2529"/>
<polygon fill="#191970" stroke="#191970" points="162.6429,-85.5604 166.8736,-75.8469 157.5089,-80.8021 162.6429,-85.5604"/>
</g>
<!-- Node2 -->
<g id="node3" class="node">
<title>Node2</title>
<polygon fill="none" stroke="#bfbfbf" points="41,-.5 41,-19.5 85,-19.5 85,-.5 41,-.5"/>
<text text-anchor="middle" x="63" y="-7.5" font-family="Helvetica,sans-Serif" font-size="10.00" fill="#000000">string</text>
</g>
<!-- Node1&#45;&gt;Node2 -->
<g id="edge2" class="edge">
<title>Node1&#45;&gt;Node2</title>
<path fill="none" stroke="#191970" d="M63,-56.2455C63,-48.9382 63,-38.6944 63,-29.7046"/>
<polygon fill="#191970" stroke="#191970" points="66.5001,-29.6426 63,-19.6427 59.5001,-29.6427 66.5001,-29.6426"/>
</g>
</g>
</svg>
