<?xml version="1.0" encoding="UTF-8" standalone="no"?>
<!DOCTYPE svg PUBLIC "-//W3C//DTD SVG 1.1//EN"
 "http://www.w3.org/Graphics/SVG/1.1/DTD/svg11.dtd">
<!-- Generated by graphviz version 2.36.0 (20140111.2315)
 -->
<!-- Title: extlib/tlx/tlx/string/trim.hpp Pages: 1 -->
<svg width="349pt" height="108pt"
 viewBox="0.00 0.00 349.00 108.00" xmlns="http://www.w3.org/2000/svg" xmlns:xlink="http://www.w3.org/1999/xlink">
<g id="graph0" class="graph" transform="scale(1 1) rotate(0) translate(4 104)">
<title>extlib/tlx/tlx/string/trim.hpp</title>
<!-- Node1 -->
<g id="node1" class="node"><title>Node1</title>
<polygon fill="#bfbfbf" stroke="black" points="116,-69 116,-99 210,-99 210,-69 116,-69"/>
<text text-anchor="start" x="124" y="-87" font-family="Helvetica,sans-Serif" font-size="10.00">extlib/tlx/tlx/string</text>
<text text-anchor="middle" x="163" y="-76" font-family="Helvetica,sans-Serif" font-size="10.00">/trim.hpp</text>
</g>
<!-- Node2 -->
<g id="node2" class="node"><title>Node2</title>
<g id="a_node2"><a xlink:href="linux__proc__stats_8cpp.html" target="_top" xlink:title="thrill/common/linux\l_proc_stats.cpp">
<polygon fill="none" stroke="black" points="0,-1 0,-31 98,-31 98,-1 0,-1"/>
<text text-anchor="start" x="8" y="-19" font-family="Helvetica,sans-Serif" font-size="10.00">thrill/common/linux</text>
<text text-anchor="middle" x="49" y="-8" font-family="Helvetica,sans-Serif" font-size="10.00">_proc_stats.cpp</text>
</a>
</g>
</g>
<!-- Node1&#45;&gt;Node2 -->
<g id="edge1" class="edge"><title>Node1&#45;&gt;Node2</title>
<path fill="none" stroke="midnightblue" d="M129.536,-63.6261C111.556,-53.2166 89.786,-40.6129 73.4154,-31.1352"/>
<polygon fill="midnightblue" stroke="midnightblue" points="128.136,-66.8599 138.544,-68.8413 131.644,-60.8019 128.136,-66.8599"/>
</g>
<!-- Node3 -->
<g id="node3" class="node"><title>Node3</title>
<g id="a_node3"><a xlink:href="trim_8cpp.html" target="_top" xlink:title="extlib/tlx/tlx/string\l/trim.cpp">
<polygon fill="none" stroke="black" points="116,-1 116,-31 210,-31 210,-1 116,-1"/>
<text text-anchor="start" x="124" y="-19" font-family="Helvetica,sans-Serif" font-size="10.00">extlib/tlx/tlx/string</text>
<text text-anchor="middle" x="163" y="-8" font-family="Helvetica,sans-Serif" font-size="10.00">/trim.cpp</text>
</a>
</g>
</g>
<!-- Node1&#45;&gt;Node3 -->
<g id="edge2" class="edge"><title>Node1&#45;&gt;Node3</title>
<path fill="none" stroke="midnightblue" d="M163,-58.5322C163,-49.3606 163,-39.2449 163,-31.2931"/>
<polygon fill="midnightblue" stroke="midnightblue" points="159.5,-58.6789 163,-68.679 166.5,-58.679 159.5,-58.6789"/>
</g>
<!-- Node4 -->
<g id="node4" class="node"><title>Node4</title>
<g id="a_node4"><a xlink:href="extlib_2tlx_2tlx_2string_8hpp.html" target="_top" xlink:title="extlib/tlx/tlx/string.hpp">
<polygon fill="none" stroke="black" points="228.5,-6.5 228.5,-25.5 341.5,-25.5 341.5,-6.5 228.5,-6.5"/>
<text text-anchor="middle" x="285" y="-13.5" font-family="Helvetica,sans-Serif" font-size="10.00">extlib/tlx/tlx/string.hpp</text>
</a>
</g>
</g>
<!-- Node1&#45;&gt;Node4 -->
<g id="edge3" class="edge"><title>Node1&#45;&gt;Node4</title>
<path fill="none" stroke="midnightblue" d="M198.101,-64.0109C221.453,-51.378 251.023,-35.3809 268.952,-25.6819"/>
<polygon fill="midnightblue" stroke="midnightblue" points="196.302,-61.0047 189.172,-68.8413 199.633,-67.1615 196.302,-61.0047"/>
</g>
</g>
</svg>
