<?xml version="1.0" encoding="UTF-8" standalone="no"?>
<!DOCTYPE svg PUBLIC "-//W3C//DTD SVG 1.1//EN"
 "http://www.w3.org/Graphics/SVG/1.1/DTD/svg11.dtd">
<!-- Generated by graphviz version 2.36.0 (20140111.2315)
 -->
<!-- Title: extlib/tlx/tlx/logger/tuple.hpp Pages: 1 -->
<svg width="555pt" height="288pt"
 viewBox="0.00 0.00 555.00 288.00" xmlns="http://www.w3.org/2000/svg" xmlns:xlink="http://www.w3.org/1999/xlink">
<g id="graph0" class="graph" transform="scale(1 1) rotate(0) translate(4 284)">
<title>extlib/tlx/tlx/logger/tuple.hpp</title>
<!-- Node1 -->
<g id="node1" class="node"><title>Node1</title>
<polygon fill="#bfbfbf" stroke="black" points="201,-249 201,-279 297,-279 297,-249 201,-249"/>
<text text-anchor="start" x="209" y="-267" font-family="Helvetica,sans-Serif" font-size="10.00">extlib/tlx/tlx/logger</text>
<text text-anchor="middle" x="249" y="-256" font-family="Helvetica,sans-Serif" font-size="10.00">/tuple.hpp</text>
</g>
<!-- Node2 -->
<g id="node2" class="node"><title>Node2</title>
<g id="a_node2"><a xlink:href="extlib_2tlx_2tlx_2logger_8hpp.html" target="_top" xlink:title="tlx/logger.hpp">
<polygon fill="none" stroke="black" points="102.5,-186.5 102.5,-205.5 177.5,-205.5 177.5,-186.5 102.5,-186.5"/>
<text text-anchor="middle" x="140" y="-193.5" font-family="Helvetica,sans-Serif" font-size="10.00">tlx/logger.hpp</text>
</a>
</g>
</g>
<!-- Node1&#45;&gt;Node2 -->
<g id="edge1" class="edge"><title>Node1&#45;&gt;Node2</title>
<path fill="none" stroke="midnightblue" d="M225.617,-248.841C207.101,-237.63 181.38,-222.056 162.972,-210.91"/>
<polygon fill="midnightblue" stroke="midnightblue" points="164.705,-207.868 154.338,-205.682 161.08,-213.855 164.705,-207.868"/>
</g>
<!-- Node7 -->
<g id="node7" class="node"><title>Node7</title>
<g id="a_node7"><a xlink:href="call__foreach__tuple__with__index_8hpp.html" target="_top" xlink:title="tlx/meta/call_foreach\l_tuple_with_index.hpp">
<polygon fill="none" stroke="black" points="280.5,-181 280.5,-211 393.5,-211 393.5,-181 280.5,-181"/>
<text text-anchor="start" x="288.5" y="-199" font-family="Helvetica,sans-Serif" font-size="10.00">tlx/meta/call_foreach</text>
<text text-anchor="middle" x="337" y="-188" font-family="Helvetica,sans-Serif" font-size="10.00">_tuple_with_index.hpp</text>
</a>
</g>
</g>
<!-- Node1&#45;&gt;Node7 -->
<g id="edge6" class="edge"><title>Node1&#45;&gt;Node7</title>
<path fill="none" stroke="midnightblue" d="M268.095,-248.679C280.402,-239.449 296.586,-227.311 310.176,-217.118"/>
<polygon fill="midnightblue" stroke="midnightblue" points="312.345,-219.866 318.245,-211.066 308.145,-214.266 312.345,-219.866"/>
</g>
<!-- Node8 -->
<g id="node8" class="node"><title>Node8</title>
<polygon fill="none" stroke="#bfbfbf" points="230,-118.5 230,-137.5 268,-137.5 268,-118.5 230,-118.5"/>
<text text-anchor="middle" x="249" y="-125.5" font-family="Helvetica,sans-Serif" font-size="10.00">tuple</text>
</g>
<!-- Node1&#45;&gt;Node8 -->
<g id="edge14" class="edge"><title>Node1&#45;&gt;Node8</title>
<path fill="none" stroke="midnightblue" d="M249,-248.66C249,-224.32 249,-174.933 249,-147.837"/>
<polygon fill="midnightblue" stroke="midnightblue" points="252.5,-147.727 249,-137.728 245.5,-147.728 252.5,-147.727"/>
</g>
<!-- Node3 -->
<g id="node3" class="node"><title>Node3</title>
<polygon fill="none" stroke="#bfbfbf" points="0,-118.5 0,-137.5 52,-137.5 52,-118.5 0,-118.5"/>
<text text-anchor="middle" x="26" y="-125.5" font-family="Helvetica,sans-Serif" font-size="10.00">sstream</text>
</g>
<!-- Node2&#45;&gt;Node3 -->
<g id="edge2" class="edge"><title>Node2&#45;&gt;Node3</title>
<path fill="none" stroke="midnightblue" d="M125.096,-186.372C105.894,-175.254 72.2903,-155.8 49.5987,-142.662"/>
<polygon fill="midnightblue" stroke="midnightblue" points="51.3151,-139.612 40.9072,-137.63 47.8078,-145.67 51.3151,-139.612"/>
</g>
<!-- Node4 -->
<g id="node4" class="node"><title>Node4</title>
<polygon fill="none" stroke="#bfbfbf" points="70.5,-118.5 70.5,-137.5 111.5,-137.5 111.5,-118.5 70.5,-118.5"/>
<text text-anchor="middle" x="91" y="-125.5" font-family="Helvetica,sans-Serif" font-size="10.00">string</text>
</g>
<!-- Node2&#45;&gt;Node4 -->
<g id="edge3" class="edge"><title>Node2&#45;&gt;Node4</title>
<path fill="none" stroke="midnightblue" d="M133.594,-186.372C126.006,-176.151 113.187,-158.884 103.589,-145.957"/>
<polygon fill="midnightblue" stroke="midnightblue" points="106.335,-143.784 97.5639,-137.841 100.715,-147.957 106.335,-143.784"/>
</g>
<!-- Node5 -->
<g id="node5" class="node"><title>Node5</title>
<polygon fill="none" stroke="#bfbfbf" points="170,-56.5 170,-75.5 210,-75.5 210,-56.5 170,-56.5"/>
<text text-anchor="middle" x="190" y="-63.5" font-family="Helvetica,sans-Serif" font-size="10.00">utility</text>
</g>
<!-- Node2&#45;&gt;Node5 -->
<g id="edge4" class="edge"><title>Node2&#45;&gt;Node5</title>
<path fill="none" stroke="midnightblue" d="M140.884,-186.421C142.706,-170.978 147.698,-137.712 159,-112 163.429,-101.923 170.212,-91.7361 176.305,-83.6092"/>
<polygon fill="midnightblue" stroke="midnightblue" points="179.088,-85.7319 182.501,-75.7019 173.578,-81.4143 179.088,-85.7319"/>
</g>
<!-- Node6 -->
<g id="node6" class="node"><title>Node6</title>
<polygon fill="none" stroke="#bfbfbf" points="168,-118.5 168,-137.5 212,-137.5 212,-118.5 168,-118.5"/>
<text text-anchor="middle" x="190" y="-125.5" font-family="Helvetica,sans-Serif" font-size="10.00">vector</text>
</g>
<!-- Node2&#45;&gt;Node6 -->
<g id="edge5" class="edge"><title>Node2&#45;&gt;Node6</title>
<path fill="none" stroke="midnightblue" d="M146.537,-186.372C154.279,-176.151 167.361,-158.884 177.154,-145.957"/>
<polygon fill="midnightblue" stroke="midnightblue" points="180.053,-147.926 183.302,-137.841 174.474,-143.699 180.053,-147.926"/>
</g>
<!-- Node7&#45;&gt;Node8 -->
<g id="edge7" class="edge"><title>Node7&#45;&gt;Node8</title>
<path fill="none" stroke="midnightblue" d="M317.905,-180.679C303.421,-169.816 283.568,-154.926 268.892,-143.919"/>
<polygon fill="midnightblue" stroke="midnightblue" points="270.617,-140.838 260.517,-137.638 266.417,-146.438 270.617,-140.838"/>
</g>
<!-- Node9 -->
<g id="node9" class="node"><title>Node9</title>
<g id="a_node9"><a xlink:href="call__foreach__with__index_8hpp.html" target="_top" xlink:title="tlx/meta/call_foreach\l_with_index.hpp">
<polygon fill="none" stroke="black" points="286.5,-113 286.5,-143 393.5,-143 393.5,-113 286.5,-113"/>
<text text-anchor="start" x="294.5" y="-131" font-family="Helvetica,sans-Serif" font-size="10.00">tlx/meta/call_foreach</text>
<text text-anchor="middle" x="340" y="-120" font-family="Helvetica,sans-Serif" font-size="10.00">_with_index.hpp</text>
</a>
</g>
</g>
<!-- Node7&#45;&gt;Node9 -->
<g id="edge8" class="edge"><title>Node7&#45;&gt;Node9</title>
<path fill="none" stroke="midnightblue" d="M337.651,-180.679C338.013,-172.722 338.473,-162.605 338.889,-153.436"/>
<polygon fill="midnightblue" stroke="midnightblue" points="342.393,-153.442 339.35,-143.293 335.4,-153.124 342.393,-153.442"/>
</g>
<!-- Node12 -->
<g id="node12" class="node"><title>Node12</title>
<g id="a_node12"><a xlink:href="index__sequence_8hpp.html" target="_top" xlink:title="tlx/meta/index_sequence.hpp">
<polygon fill="none" stroke="black" points="403,-56.5 403,-75.5 547,-75.5 547,-56.5 403,-56.5"/>
<text text-anchor="middle" x="475" y="-63.5" font-family="Helvetica,sans-Serif" font-size="10.00">tlx/meta/index_sequence.hpp</text>
</a>
</g>
</g>
<!-- Node7&#45;&gt;Node12 -->
<g id="edge12" class="edge"><title>Node7&#45;&gt;Node12</title>
<path fill="none" stroke="midnightblue" d="M356.371,-180.977C369.62,-171.106 387.365,-157.328 402,-144 423.572,-124.355 446.395,-99.5432 460.663,-83.4783"/>
<polygon fill="midnightblue" stroke="midnightblue" points="463.312,-85.7668 467.293,-75.9484 458.058,-81.1412 463.312,-85.7668"/>
</g>
<!-- Node9&#45;&gt;Node5 -->
<g id="edge9" class="edge"><title>Node9&#45;&gt;Node5</title>
<path fill="none" stroke="midnightblue" d="M304.832,-112.933C278.955,-102.582 244.167,-88.667 219.685,-78.874"/>
<polygon fill="midnightblue" stroke="midnightblue" points="220.788,-75.5455 210.203,-75.0812 218.188,-82.0448 220.788,-75.5455"/>
</g>
<!-- Node10 -->
<g id="node10" class="node"><title>Node10</title>
<g id="a_node10"><a xlink:href="static__index_8hpp.html" target="_top" xlink:title="tlx/meta/static_index.hpp">
<polygon fill="none" stroke="black" points="259,-56.5 259,-75.5 385,-75.5 385,-56.5 259,-56.5"/>
<text text-anchor="middle" x="322" y="-63.5" font-family="Helvetica,sans-Serif" font-size="10.00">tlx/meta/static_index.hpp</text>
</a>
</g>
</g>
<!-- Node9&#45;&gt;Node10 -->
<g id="edge10" class="edge"><title>Node9&#45;&gt;Node10</title>
<path fill="none" stroke="midnightblue" d="M335.734,-112.781C333.28,-104.601 330.17,-94.2341 327.53,-85.4344"/>
<polygon fill="midnightblue" stroke="midnightblue" points="330.845,-84.3031 324.619,-75.7305 324.14,-86.3145 330.845,-84.3031"/>
</g>
<!-- Node11 -->
<g id="node11" class="node"><title>Node11</title>
<polygon fill="none" stroke="#bfbfbf" points="373.5,-0.5 373.5,-19.5 422.5,-19.5 422.5,-0.5 373.5,-0.5"/>
<text text-anchor="middle" x="398" y="-7.5" font-family="Helvetica,sans-Serif" font-size="10.00">cstddef</text>
</g>
<!-- Node10&#45;&gt;Node11 -->
<g id="edge11" class="edge"><title>Node10&#45;&gt;Node11</title>
<path fill="none" stroke="midnightblue" d="M334.211,-56.324C345.776,-48.1066 363.375,-35.6017 377.161,-25.8069"/>
<polygon fill="midnightblue" stroke="midnightblue" points="379.443,-28.4791 385.567,-19.8339 375.388,-22.7729 379.443,-28.4791"/>
</g>
<!-- Node12&#45;&gt;Node11 -->
<g id="edge13" class="edge"><title>Node12&#45;&gt;Node11</title>
<path fill="none" stroke="midnightblue" d="M462.629,-56.324C450.842,-48.0577 432.868,-35.4527 418.864,-25.6322"/>
<polygon fill="midnightblue" stroke="midnightblue" points="420.538,-22.5307 410.341,-19.6545 416.518,-28.2619 420.538,-22.5307"/>
</g>
</g>
</svg>
