<?xml version="1.0" encoding="UTF-8" standalone="no"?>
<!DOCTYPE svg PUBLIC "-//W3C//DTD SVG 1.1//EN"
 "http://www.w3.org/Graphics/SVG/1.1/DTD/svg11.dtd">
<!-- Generated by graphviz version 2.40.1 (20161225.0304)
 -->
<!-- Title: extlib/tlx/tlx/logger/tuple.hpp Pages: 1 -->
<svg width="596pt" height="285pt"
 viewBox="0.00 0.00 595.50 285.00" xmlns="http://www.w3.org/2000/svg" xmlns:xlink="http://www.w3.org/1999/xlink">
<g id="graph0" class="graph" transform="scale(1 1) rotate(0) translate(4 281)">
<title>extlib/tlx/tlx/logger/tuple.hpp</title>
<!-- Node0 -->
<g id="node1" class="node">
<title>Node0</title>
<polygon fill="#bfbfbf" stroke="#000000" points="205,-246.5 205,-276.5 315,-276.5 315,-246.5 205,-246.5"/>
<text text-anchor="start" x="213" y="-264.5" font-family="Helvetica,sans-Serif" font-size="10.00" fill="#000000">extlib/tlx/tlx/logger</text>
<text text-anchor="middle" x="260" y="-253.5" font-family="Helvetica,sans-Serif" font-size="10.00" fill="#000000">/tuple.hpp</text>
</g>
<!-- Node1 -->
<g id="node2" class="node">
<title>Node1</title>
<g id="a_node2"><a xlink:href="logger_2core_8hpp.html" target="_top" xlink:title="tlx/logger/core.hpp">
<polygon fill="none" stroke="#000000" points="92,-185 92,-204 200,-204 200,-185 92,-185"/>
<text text-anchor="middle" x="146" y="-192" font-family="Helvetica,sans-Serif" font-size="10.00" fill="#000000">tlx/logger/core.hpp</text>
</a>
</g>
</g>
<!-- Node0&#45;&gt;Node1 -->
<g id="edge1" class="edge">
<title>Node0&#45;&gt;Node1</title>
<path fill="none" stroke="#191970" d="M234.4162,-246.4639C215.5469,-235.3741 189.9979,-220.3584 171.2161,-209.32"/>
<polygon fill="#191970" stroke="#191970" points="172.7357,-206.1534 162.341,-204.1039 169.1889,-212.1883 172.7357,-206.1534"/>
</g>
<!-- Node6 -->
<g id="node7" class="node">
<title>Node6</title>
<g id="a_node7"><a xlink:href="call__foreach__tuple__with__index_8hpp.html" target="_top" xlink:title="tlx/meta/call_foreach\l_tuple_with_index.hpp">
<polygon fill="none" stroke="#000000" points="292,-179.5 292,-209.5 418,-209.5 418,-179.5 292,-179.5"/>
<text text-anchor="start" x="300" y="-197.5" font-family="Helvetica,sans-Serif" font-size="10.00" fill="#000000">tlx/meta/call_foreach</text>
<text text-anchor="middle" x="355" y="-186.5" font-family="Helvetica,sans-Serif" font-size="10.00" fill="#000000">_tuple_with_index.hpp</text>
</a>
</g>
</g>
<!-- Node0&#45;&gt;Node6 -->
<g id="edge6" class="edge">
<title>Node0&#45;&gt;Node6</title>
<path fill="none" stroke="#191970" d="M281.557,-246.2967C294.4321,-237.2163 310.9755,-225.5488 325.1005,-215.587"/>
<polygon fill="#191970" stroke="#191970" points="327.3735,-218.2669 333.5283,-209.6432 323.339,-212.5464 327.3735,-218.2669"/>
</g>
<!-- Node7 -->
<g id="node8" class="node">
<title>Node7</title>
<polygon fill="none" stroke="#bfbfbf" points="239.5,-118 239.5,-137 280.5,-137 280.5,-118 239.5,-118"/>
<text text-anchor="middle" x="260" y="-125" font-family="Helvetica,sans-Serif" font-size="10.00" fill="#000000">tuple</text>
</g>
<!-- Node0&#45;&gt;Node7 -->
<g id="edge14" class="edge">
<title>Node0&#45;&gt;Node7</title>
<path fill="none" stroke="#191970" d="M260,-246.389C260,-222.0735 260,-174.2644 260,-147.2698"/>
<polygon fill="#191970" stroke="#191970" points="263.5001,-147.1041 260,-137.1042 256.5001,-147.1042 263.5001,-147.1041"/>
</g>
<!-- Node2 -->
<g id="node3" class="node">
<title>Node2</title>
<polygon fill="none" stroke="#bfbfbf" points="0,-118 0,-137 56,-137 56,-118 0,-118"/>
<text text-anchor="middle" x="28" y="-125" font-family="Helvetica,sans-Serif" font-size="10.00" fill="#000000">sstream</text>
</g>
<!-- Node1&#45;&gt;Node2 -->
<g id="edge2" class="edge">
<title>Node1&#45;&gt;Node2</title>
<path fill="none" stroke="#191970" d="M129.0935,-184.9005C109.378,-173.7062 76.5778,-155.0823 53.7041,-142.0947"/>
<polygon fill="#191970" stroke="#191970" points="55.2993,-138.9757 44.8752,-137.0817 51.843,-145.0629 55.2993,-138.9757"/>
</g>
<!-- Node3 -->
<g id="node4" class="node">
<title>Node3</title>
<polygon fill="none" stroke="#bfbfbf" points="74,-118 74,-137 118,-137 118,-118 74,-118"/>
<text text-anchor="middle" x="96" y="-125" font-family="Helvetica,sans-Serif" font-size="10.00" fill="#000000">string</text>
</g>
<!-- Node1&#45;&gt;Node3 -->
<g id="edge3" class="edge">
<title>Node1&#45;&gt;Node3</title>
<path fill="none" stroke="#191970" d="M138.8362,-184.9005C131.1134,-174.552 118.6524,-157.8542 109.1563,-145.1295"/>
<polygon fill="#191970" stroke="#191970" points="111.9364,-143.0027 103.1505,-137.0817 106.3264,-147.1893 111.9364,-143.0027"/>
</g>
<!-- Node4 -->
<g id="node5" class="node">
<title>Node4</title>
<polygon fill="none" stroke="#bfbfbf" points="194.5,-56.5 194.5,-75.5 239.5,-75.5 239.5,-56.5 194.5,-56.5"/>
<text text-anchor="middle" x="217" y="-63.5" font-family="Helvetica,sans-Serif" font-size="10.00" fill="#000000">utility</text>
</g>
<!-- Node1&#45;&gt;Node4 -->
<g id="edge4" class="edge">
<title>Node1&#45;&gt;Node4</title>
<path fill="none" stroke="#191970" d="M146.3353,-184.8993C147.2895,-168.7556 150.9527,-135.6241 165,-112 172.0265,-100.1831 183.1147,-89.7644 193.2502,-81.8439"/>
<polygon fill="#191970" stroke="#191970" points="195.4655,-84.5589 201.4299,-75.8024 191.3067,-78.9283 195.4655,-84.5589"/>
</g>
<!-- Node5 -->
<g id="node6" class="node">
<title>Node5</title>
<polygon fill="none" stroke="#bfbfbf" points="174.5,-118 174.5,-137 221.5,-137 221.5,-118 174.5,-118"/>
<text text-anchor="middle" x="198" y="-125" font-family="Helvetica,sans-Serif" font-size="10.00" fill="#000000">vector</text>
</g>
<!-- Node1&#45;&gt;Node5 -->
<g id="edge5" class="edge">
<title>Node1&#45;&gt;Node5</title>
<path fill="none" stroke="#191970" d="M153.4503,-184.9005C161.4821,-174.552 174.4415,-157.8542 184.3174,-145.1295"/>
<polygon fill="#191970" stroke="#191970" points="187.1972,-147.1275 190.5635,-137.0817 181.6672,-142.8356 187.1972,-147.1275"/>
</g>
<!-- Node6&#45;&gt;Node7 -->
<g id="edge7" class="edge">
<title>Node6&#45;&gt;Node7</title>
<path fill="none" stroke="#191970" d="M333.443,-179.2967C318.0668,-168.4524 297.4586,-153.9182 281.9862,-143.006"/>
<polygon fill="#191970" stroke="#191970" points="283.7374,-139.9582 273.5481,-137.055 279.703,-145.6787 283.7374,-139.9582"/>
</g>
<!-- Node8 -->
<g id="node9" class="node">
<title>Node8</title>
<g id="a_node9"><a xlink:href="call__foreach__with__index_8hpp.html" target="_top" xlink:title="tlx/meta/call_foreach\l_with_index.hpp">
<polygon fill="none" stroke="#000000" points="299,-112.5 299,-142.5 419,-142.5 419,-112.5 299,-112.5"/>
<text text-anchor="start" x="307" y="-130.5" font-family="Helvetica,sans-Serif" font-size="10.00" fill="#000000">tlx/meta/call_foreach</text>
<text text-anchor="middle" x="359" y="-119.5" font-family="Helvetica,sans-Serif" font-size="10.00" fill="#000000">_with_index.hpp</text>
</a>
</g>
</g>
<!-- Node6&#45;&gt;Node8 -->
<g id="edge8" class="edge">
<title>Node6&#45;&gt;Node8</title>
<path fill="none" stroke="#191970" d="M355.9077,-179.2967C356.3731,-171.5013 356.9523,-161.7991 357.4832,-152.9064"/>
<polygon fill="#191970" stroke="#191970" points="360.9937,-152.834 358.0959,-142.6432 354.0061,-152.4168 360.9937,-152.834"/>
</g>
<!-- Node11 -->
<g id="node12" class="node">
<title>Node11</title>
<g id="a_node12"><a xlink:href="index__sequence_8hpp.html" target="_top" xlink:title="tlx/meta/index_sequence.hpp">
<polygon fill="none" stroke="#000000" points="426.5,-56.5 426.5,-75.5 587.5,-75.5 587.5,-56.5 426.5,-56.5"/>
<text text-anchor="middle" x="507" y="-63.5" font-family="Helvetica,sans-Serif" font-size="10.00" fill="#000000">tlx/meta/index_sequence.hpp</text>
</a>
</g>
</g>
<!-- Node6&#45;&gt;Node11 -->
<g id="edge12" class="edge">
<title>Node6&#45;&gt;Node11</title>
<path fill="none" stroke="#191970" d="M378.376,-179.3901C393.0524,-169.5715 412.1363,-156.1861 428,-143 451.0779,-123.8173 475.5005,-99.271 490.9763,-83.1129"/>
<polygon fill="#191970" stroke="#191970" points="493.8549,-85.164 498.1991,-75.5007 488.777,-80.3458 493.8549,-85.164"/>
</g>
<!-- Node8&#45;&gt;Node4 -->
<g id="edge9" class="edge">
<title>Node8&#45;&gt;Node4</title>
<path fill="none" stroke="#191970" d="M324.2629,-112.4554C301.0894,-102.419 270.8708,-89.3314 248.4158,-79.6061"/>
<polygon fill="#191970" stroke="#191970" points="249.5723,-76.2929 239.005,-75.5303 246.7903,-82.7164 249.5723,-76.2929"/>
</g>
<!-- Node9 -->
<g id="node10" class="node">
<title>Node9</title>
<g id="a_node10"><a xlink:href="static__index_8hpp.html" target="_top" xlink:title="tlx/meta/static_index.hpp">
<polygon fill="none" stroke="#000000" points="267.5,-56.5 267.5,-75.5 408.5,-75.5 408.5,-56.5 267.5,-56.5"/>
<text text-anchor="middle" x="338" y="-63.5" font-family="Helvetica,sans-Serif" font-size="10.00" fill="#000000">tlx/meta/static_index.hpp</text>
</a>
</g>
</g>
<!-- Node8&#45;&gt;Node9 -->
<g id="edge10" class="edge">
<title>Node8&#45;&gt;Node9</title>
<path fill="none" stroke="#191970" d="M353.809,-112.2977C351.0458,-104.2055 347.6169,-94.1639 344.6595,-85.5029"/>
<polygon fill="#191970" stroke="#191970" points="347.9061,-84.1794 341.3624,-75.8469 341.2816,-86.4415 347.9061,-84.1794"/>
</g>
<!-- Node10 -->
<g id="node11" class="node">
<title>Node10</title>
<polygon fill="none" stroke="#bfbfbf" points="395.5,-.5 395.5,-19.5 448.5,-19.5 448.5,-.5 395.5,-.5"/>
<text text-anchor="middle" x="422" y="-7.5" font-family="Helvetica,sans-Serif" font-size="10.00" fill="#000000">cstddef</text>
</g>
<!-- Node9&#45;&gt;Node10 -->
<g id="edge11" class="edge">
<title>Node9&#45;&gt;Node10</title>
<path fill="none" stroke="#191970" d="M352.6317,-56.2455C365.3994,-47.7337 384.1438,-35.2375 398.9299,-25.3801"/>
<polygon fill="#191970" stroke="#191970" points="401.1569,-28.1019 407.536,-19.6427 397.274,-22.2775 401.1569,-28.1019"/>
</g>
<!-- Node11&#45;&gt;Node10 -->
<g id="edge13" class="edge">
<title>Node11&#45;&gt;Node10</title>
<path fill="none" stroke="#191970" d="M492.1941,-56.2455C479.2744,-47.7337 460.3069,-35.2375 445.3448,-25.3801"/>
<polygon fill="#191970" stroke="#191970" points="446.9124,-22.2216 436.6362,-19.6427 443.0613,-28.067 446.9124,-22.2216"/>
</g>
</g>
</svg>
