<?xml version="1.0" encoding="UTF-8" standalone="no"?>
<!DOCTYPE svg PUBLIC "-//W3C//DTD SVG 1.1//EN"
 "http://www.w3.org/Graphics/SVG/1.1/DTD/svg11.dtd">
<!-- Generated by graphviz version 2.40.1 (20161225.0304)
 -->
<!-- Title: extlib/foxxll/foxxll/common/types.hpp Pages: 1 -->
<svg width="334pt" height="95pt"
 viewBox="0.00 0.00 333.50 95.00" xmlns="http://www.w3.org/2000/svg" xmlns:xlink="http://www.w3.org/1999/xlink">
<g id="graph0" class="graph" transform="scale(1 1) rotate(0) translate(4 91)">
<title>extlib/foxxll/foxxll/common/types.hpp</title>
<!-- Node0 -->
<g id="node1" class="node">
<title>Node0</title>
<polygon fill="#bfbfbf" stroke="#000000" points="79,-56.5 79,-86.5 192,-86.5 192,-56.5 79,-56.5"/>
<text text-anchor="start" x="87" y="-74.5" font-family="Helvetica,sans-Serif" font-size="10.00" fill="#000000">extlib/foxxll/foxxll</text>
<text text-anchor="middle" x="135.5" y="-63.5" font-family="Helvetica,sans-Serif" font-size="10.00" fill="#000000">/common/types.hpp</text>
</g>
<!-- Node1 -->
<g id="node2" class="node">
<title>Node1</title>
<polygon fill="none" stroke="#bfbfbf" points="0,-.5 0,-19.5 53,-19.5 53,-.5 0,-.5"/>
<text text-anchor="middle" x="26.5" y="-7.5" font-family="Helvetica,sans-Serif" font-size="10.00" fill="#000000">cstddef</text>
</g>
<!-- Node0&#45;&gt;Node1 -->
<g id="edge1" class="edge">
<title>Node0&#45;&gt;Node1</title>
<path fill="none" stroke="#191970" d="M108.8356,-56.4554C91.6059,-46.734 69.3025,-34.15 52.2554,-24.5317"/>
<polygon fill="#191970" stroke="#191970" points="53.8204,-21.3961 43.3911,-19.5303 50.3806,-27.4926 53.8204,-21.3961"/>
</g>
<!-- Node2 -->
<g id="node3" class="node">
<title>Node2</title>
<polygon fill="none" stroke="#bfbfbf" points="71.5,-.5 71.5,-19.5 121.5,-19.5 121.5,-.5 71.5,-.5"/>
<text text-anchor="middle" x="96.5" y="-7.5" font-family="Helvetica,sans-Serif" font-size="10.00" fill="#000000">cstdint</text>
</g>
<!-- Node0&#45;&gt;Node2 -->
<g id="edge2" class="edge">
<title>Node0&#45;&gt;Node2</title>
<path fill="none" stroke="#191970" d="M125.8595,-56.2977C120.5023,-47.8498 113.7978,-37.2773 108.1487,-28.369"/>
<polygon fill="#191970" stroke="#191970" points="111.0556,-26.4176 102.7444,-19.8469 105.1441,-30.1664 111.0556,-26.4176"/>
</g>
<!-- Node3 -->
<g id="node4" class="node">
<title>Node3</title>
<polygon fill="none" stroke="#bfbfbf" points="140,-.5 140,-19.5 209,-19.5 209,-.5 140,-.5"/>
<text text-anchor="middle" x="174.5" y="-7.5" font-family="Helvetica,sans-Serif" font-size="10.00" fill="#000000">type_traits</text>
</g>
<!-- Node0&#45;&gt;Node3 -->
<g id="edge3" class="edge">
<title>Node0&#45;&gt;Node3</title>
<path fill="none" stroke="#191970" d="M145.1405,-56.2977C150.4977,-47.8498 157.2022,-37.2773 162.8513,-28.369"/>
<polygon fill="#191970" stroke="#191970" points="165.8559,-30.1664 168.2556,-19.8469 159.9444,-26.4176 165.8559,-30.1664"/>
</g>
<!-- Node4 -->
<g id="node5" class="node">
<title>Node4</title>
<polygon fill="none" stroke="#bfbfbf" points="227.5,-.5 227.5,-19.5 325.5,-19.5 325.5,-.5 227.5,-.5"/>
<text text-anchor="middle" x="276.5" y="-7.5" font-family="Helvetica,sans-Serif" font-size="10.00" fill="#000000">foxxll/config.hpp</text>
</g>
<!-- Node0&#45;&gt;Node4 -->
<g id="edge4" class="edge">
<title>Node0&#45;&gt;Node4</title>
<path fill="none" stroke="#191970" d="M169.9925,-56.4554C193.0028,-46.419 223.0086,-33.3314 245.3055,-23.6061"/>
<polygon fill="#191970" stroke="#191970" points="246.8833,-26.7364 254.65,-19.5303 244.0846,-20.3202 246.8833,-26.7364"/>
</g>
</g>
</svg>
