<?xml version="1.0" encoding="UTF-8" standalone="no"?>
<!DOCTYPE svg PUBLIC "-//W3C//DTD SVG 1.1//EN"
 "http://www.w3.org/Graphics/SVG/1.1/DTD/svg11.dtd">
<!-- Generated by graphviz version 2.26.3 (20100126.1600)
 -->
<!-- Title: thrill/io/ufs_file_base.hpp Pages: 1 -->
<svg width="1488pt" height="260pt"
 viewBox="0.00 0.00 1488.00 260.00" xmlns="http://www.w3.org/2000/svg" xmlns:xlink="http://www.w3.org/1999/xlink">
<g id="graph1" class="graph" transform="scale(1 1) rotate(0) translate(4 256)">
<title>thrill/io/ufs_file_base.hpp</title>
<!-- Node1 -->
<g id="node1" class="node"><title>Node1</title>
<polygon fill="#bfbfbf" stroke="black" points="1089,-217 1089,-251 1169,-251 1169,-217 1089,-217"/>
<text text-anchor="start" x="1097" y="-238" font-family="Helvetica,sans-Serif" font-size="10.00">thrill/io/ufs_file</text>
<text text-anchor="middle" x="1129" y="-225" font-family="Helvetica,sans-Serif" font-size="10.00">_base.hpp</text>
</g>
<!-- Node2 -->
<g id="node3" class="node"><title>Node2</title>
<a xlink:href="syscall__file_8hpp.html" target="_top" xlink:title="thrill/io/syscall_file.hpp">
<polygon fill="none" stroke="black" points="726,-151.5 726,-172.5 842,-172.5 842,-151.5 726,-151.5"/>
<text text-anchor="middle" x="784" y="-159.5" font-family="Helvetica,sans-Serif" font-size="10.00">thrill/io/syscall_file.hpp</text>
</a>
</g>
<!-- Node1&#45;&gt;Node2 -->
<g id="edge2" class="edge"><title>Node1&#45;&gt;Node2</title>
<path fill="none" stroke="midnightblue" d="M1078.69,-223.501C1013.38,-209.871 900.042,-186.217 834.592,-172.558"/>
<polygon fill="midnightblue" stroke="midnightblue" points="1078.24,-226.983 1088.75,-225.6 1079.67,-220.131 1078.24,-226.983"/>
</g>
<!-- Node13 -->
<g id="node25" class="node"><title>Node13</title>
<a xlink:href="linuxaio__file_8hpp.html" target="_top" xlink:title="thrill/io/linuxaio\l_file.hpp">
<polygon fill="none" stroke="black" points="1031.5,-145 1031.5,-179 1112.5,-179 1112.5,-145 1031.5,-145"/>
<text text-anchor="start" x="1039.5" y="-166" font-family="Helvetica,sans-Serif" font-size="10.00">thrill/io/linuxaio</text>
<text text-anchor="middle" x="1072" y="-153" font-family="Helvetica,sans-Serif" font-size="10.00">_file.hpp</text>
</a>
</g>
<!-- Node1&#45;&gt;Node13 -->
<g id="edge24" class="edge"><title>Node1&#45;&gt;Node13</title>
<path fill="none" stroke="midnightblue" d="M1109.28,-209.086C1101.54,-199.315 1092.85,-188.337 1085.81,-179.441"/>
<polygon fill="midnightblue" stroke="midnightblue" points="1106.54,-211.269 1115.49,-216.937 1112.03,-206.924 1106.54,-211.269"/>
</g>
<!-- Node20 -->
<g id="node42" class="node"><title>Node20</title>
<a xlink:href="mmap__file_8hpp.html" target="_top" xlink:title="thrill/io/mmap_file.hpp">
<polygon fill="none" stroke="black" points="1130,-151.5 1130,-172.5 1242,-172.5 1242,-151.5 1130,-151.5"/>
<text text-anchor="middle" x="1186" y="-159.5" font-family="Helvetica,sans-Serif" font-size="10.00">thrill/io/mmap_file.hpp</text>
</a>
</g>
<!-- Node1&#45;&gt;Node20 -->
<g id="edge44" class="edge"><title>Node1&#45;&gt;Node20</title>
<path fill="none" stroke="midnightblue" d="M1148.94,-208.81C1158.67,-196.528 1169.85,-182.396 1177.37,-172.901"/>
<polygon fill="midnightblue" stroke="midnightblue" points="1145.97,-206.924 1142.51,-216.937 1151.46,-211.269 1145.97,-206.924"/>
</g>
<!-- Node22 -->
<g id="node47" class="node"><title>Node22</title>
<a xlink:href="ufs__file__base_8cpp.html" target="_top" xlink:title="thrill/io/ufs_file\l_base.cpp">
<polygon fill="none" stroke="black" points="1260,-145 1260,-179 1340,-179 1340,-145 1260,-145"/>
<text text-anchor="start" x="1268" y="-166" font-family="Helvetica,sans-Serif" font-size="10.00">thrill/io/ufs_file</text>
<text text-anchor="middle" x="1300" y="-153" font-family="Helvetica,sans-Serif" font-size="10.00">_base.cpp</text>
</a>
</g>
<!-- Node1&#45;&gt;Node22 -->
<g id="edge50" class="edge"><title>Node1&#45;&gt;Node22</title>
<path fill="none" stroke="midnightblue" d="M1178.35,-213.219C1204.22,-202.327 1235.5,-189.157 1259.86,-178.9"/>
<polygon fill="midnightblue" stroke="midnightblue" points="1176.95,-210.013 1169.09,-217.119 1179.67,-216.464 1176.95,-210.013"/>
</g>
<!-- Node3 -->
<g id="node5" class="node"><title>Node3</title>
<a xlink:href="read__binary_8hpp.html" target="_top" xlink:title="thrill/api/read_binary.hpp">
<polygon fill="none" stroke="black" points="551,-79.5 551,-100.5 673,-100.5 673,-79.5 551,-79.5"/>
<text text-anchor="middle" x="612" y="-87.5" font-family="Helvetica,sans-Serif" font-size="10.00">thrill/api/read_binary.hpp</text>
</a>
</g>
<!-- Node2&#45;&gt;Node3 -->
<g id="edge4" class="edge"><title>Node2&#45;&gt;Node3</title>
<path fill="none" stroke="midnightblue" d="M749.292,-147.471C716.087,-133.571 666.808,-112.943 637.203,-100.55"/>
<polygon fill="midnightblue" stroke="midnightblue" points="748.045,-150.743 758.621,-151.376 750.748,-144.286 748.045,-150.743"/>
</g>
<!-- Node11 -->
<g id="node21" class="node"><title>Node11</title>
<a xlink:href="create__file_8cpp.html" target="_top" xlink:title="thrill/io/create_file.cpp">
<polygon fill="none" stroke="black" points="1016,-79.5 1016,-100.5 1128,-100.5 1128,-79.5 1016,-79.5"/>
<text text-anchor="middle" x="1072" y="-87.5" font-family="Helvetica,sans-Serif" font-size="10.00">thrill/io/create_file.cpp</text>
</a>
</g>
<!-- Node2&#45;&gt;Node11 -->
<g id="edge20" class="edge"><title>Node2&#45;&gt;Node11</title>
<path fill="none" stroke="midnightblue" d="M836.166,-148.959C891.64,-135.09 978.317,-113.421 1029.7,-100.575"/>
<polygon fill="midnightblue" stroke="midnightblue" points="835.039,-145.633 826.186,-151.453 836.736,-152.424 835.039,-145.633"/>
</g>
<!-- Node12 -->
<g id="node23" class="node"><title>Node12</title>
<a xlink:href="syscall__file_8cpp.html" target="_top" xlink:title="thrill/io/syscall_file.cpp">
<polygon fill="none" stroke="black" points="417,-79.5 417,-100.5 533,-100.5 533,-79.5 417,-79.5"/>
<text text-anchor="middle" x="475" y="-87.5" font-family="Helvetica,sans-Serif" font-size="10.00">thrill/io/syscall_file.cpp</text>
</a>
</g>
<!-- Node2&#45;&gt;Node12 -->
<g id="edge22" class="edge"><title>Node2&#45;&gt;Node12</title>
<path fill="none" stroke="midnightblue" d="M723.98,-149.356C674.908,-138.839 603.792,-123.187 542,-108 532.643,-105.7 522.591,-103.08 513.192,-100.564"/>
<polygon fill="midnightblue" stroke="midnightblue" points="723.287,-152.787 733.798,-151.455 724.75,-145.942 723.287,-152.787"/>
</g>
<!-- Node4 -->
<g id="node7" class="node"><title>Node4</title>
<a xlink:href="thrill_8hpp.html" target="_top" xlink:title="thrill/thrill.hpp">
<polygon fill="none" stroke="black" points="856,-7.5 856,-28.5 930,-28.5 930,-7.5 856,-7.5"/>
<text text-anchor="middle" x="893" y="-15.5" font-family="Helvetica,sans-Serif" font-size="10.00">thrill/thrill.hpp</text>
</a>
</g>
<!-- Node3&#45;&gt;Node4 -->
<g id="edge6" class="edge"><title>Node3&#45;&gt;Node4</title>
<path fill="none" stroke="midnightblue" d="M678.492,-77.4422C725.933,-67.8247 790.985,-53.2922 847,-36 853.883,-33.8751 861.202,-31.2067 867.929,-28.5802"/>
<polygon fill="midnightblue" stroke="midnightblue" points="677.761,-74.0191 668.645,-79.4191 679.139,-80.8821 677.761,-74.0191"/>
</g>
<!-- Node5 -->
<g id="node9" class="node"><title>Node5</title>
<a xlink:href="rl__bwt_8cpp.html" target="_top" xlink:title="examples/suffix_sorting\l/rl_bwt.cpp">
<polygon fill="none" stroke="black" points="0,-1 0,-35 120,-35 120,-1 0,-1"/>
<text text-anchor="start" x="8" y="-22" font-family="Helvetica,sans-Serif" font-size="10.00">examples/suffix_sorting</text>
<text text-anchor="middle" x="60" y="-9" font-family="Helvetica,sans-Serif" font-size="10.00">/rl_bwt.cpp</text>
</a>
</g>
<!-- Node3&#45;&gt;Node5 -->
<g id="edge8" class="edge"><title>Node3&#45;&gt;Node5</title>
<path fill="none" stroke="midnightblue" d="M565.759,-76.967C557.879,-75.0751 549.74,-73.3232 542,-72 360.383,-40.9516 310.562,-67.3655 129,-36 126.072,-35.4942 123.087,-34.925 120.081,-34.3088"/>
<polygon fill="midnightblue" stroke="midnightblue" points="565.002,-80.3854 575.553,-79.4165 566.701,-73.5946 565.002,-80.3854"/>
</g>
<!-- Node6 -->
<g id="node11" class="node"><title>Node6</title>
<a xlink:href="suffix__sorting_8cpp.html" target="_top" xlink:title="examples/suffix_sorting\l/suffix_sorting.cpp">
<polygon fill="none" stroke="black" points="138,-1 138,-35 258,-35 258,-1 138,-1"/>
<text text-anchor="start" x="146" y="-22" font-family="Helvetica,sans-Serif" font-size="10.00">examples/suffix_sorting</text>
<text text-anchor="middle" x="198" y="-9" font-family="Helvetica,sans-Serif" font-size="10.00">/suffix_sorting.cpp</text>
</a>
</g>
<!-- Node3&#45;&gt;Node6 -->
<g id="edge10" class="edge"><title>Node3&#45;&gt;Node6</title>
<path fill="none" stroke="midnightblue" d="M564.656,-76.9967C557.112,-75.1647 549.367,-73.4239 542,-72 420.975,-48.6078 387.984,-59.6035 267,-36 264.084,-35.4311 261.108,-34.8106 258.109,-34.1532"/>
<polygon fill="midnightblue" stroke="midnightblue" points="563.858,-80.4049 574.409,-79.4385 565.558,-73.6145 563.858,-80.4049"/>
</g>
<!-- Node7 -->
<g id="node13" class="node"><title>Node7</title>
<a xlink:href="wavelet__tree_8cpp.html" target="_top" xlink:title="examples/suffix_sorting\l/wavelet_tree.cpp">
<polygon fill="none" stroke="black" points="276,-1 276,-35 396,-35 396,-1 276,-1"/>
<text text-anchor="start" x="284" y="-22" font-family="Helvetica,sans-Serif" font-size="10.00">examples/suffix_sorting</text>
<text text-anchor="middle" x="336" y="-9" font-family="Helvetica,sans-Serif" font-size="10.00">/wavelet_tree.cpp</text>
</a>
</g>
<!-- Node3&#45;&gt;Node7 -->
<g id="edge12" class="edge"><title>Node3&#45;&gt;Node7</title>
<path fill="none" stroke="midnightblue" d="M561.697,-76.8775C515.089,-64.7189 445.694,-46.6158 396.169,-33.6964"/>
<polygon fill="midnightblue" stroke="midnightblue" points="561.012,-80.3158 571.572,-79.4535 562.779,-73.5425 561.012,-80.3158"/>
</g>
<!-- Node8 -->
<g id="node15" class="node"><title>Node8</title>
<a xlink:href="wavelet__tree2_8cpp.html" target="_top" xlink:title="examples/suffix_sorting\l/wavelet_tree2.cpp">
<polygon fill="none" stroke="black" points="414,-1 414,-35 534,-35 534,-1 414,-1"/>
<text text-anchor="start" x="422" y="-22" font-family="Helvetica,sans-Serif" font-size="10.00">examples/suffix_sorting</text>
<text text-anchor="middle" x="474" y="-9" font-family="Helvetica,sans-Serif" font-size="10.00">/wavelet_tree2.cpp</text>
</a>
</g>
<!-- Node3&#45;&gt;Node8 -->
<g id="edge14" class="edge"><title>Node3&#45;&gt;Node8</title>
<path fill="none" stroke="midnightblue" d="M582.657,-74.6904C560.403,-63.0796 529.817,-47.1217 506.764,-35.0944"/>
<polygon fill="midnightblue" stroke="midnightblue" points="581.153,-77.8535 591.638,-79.3762 584.391,-71.6474 581.153,-77.8535"/>
</g>
<!-- Node9 -->
<g id="node17" class="node"><title>Node9</title>
<a xlink:href="wavelet__tree3_8cpp.html" target="_top" xlink:title="examples/suffix_sorting\l/wavelet_tree3.cpp">
<polygon fill="none" stroke="black" points="552,-1 552,-35 672,-35 672,-1 552,-1"/>
<text text-anchor="start" x="560" y="-22" font-family="Helvetica,sans-Serif" font-size="10.00">examples/suffix_sorting</text>
<text text-anchor="middle" x="612" y="-9" font-family="Helvetica,sans-Serif" font-size="10.00">/wavelet_tree3.cpp</text>
</a>
</g>
<!-- Node3&#45;&gt;Node9 -->
<g id="edge16" class="edge"><title>Node3&#45;&gt;Node9</title>
<path fill="none" stroke="midnightblue" d="M612,-69.1318C612,-58.3258 612,-45.2961 612,-35.0944"/>
<polygon fill="midnightblue" stroke="midnightblue" points="608.5,-69.3761 612,-79.3762 615.5,-69.3762 608.5,-69.3761"/>
</g>
<!-- Node10 -->
<g id="node19" class="node"><title>Node10</title>
<a xlink:href="terasort_8cpp.html" target="_top" xlink:title="examples/terasort/terasort.cpp">
<polygon fill="none" stroke="black" points="689.5,-7.5 689.5,-28.5 838.5,-28.5 838.5,-7.5 689.5,-7.5"/>
<text text-anchor="middle" x="764" y="-15.5" font-family="Helvetica,sans-Serif" font-size="10.00">examples/terasort/terasort.cpp</text>
</a>
</g>
<!-- Node3&#45;&gt;Node10 -->
<g id="edge18" class="edge"><title>Node3&#45;&gt;Node10</title>
<path fill="none" stroke="midnightblue" d="M643.784,-74.9443C673.013,-61.099 715.621,-40.9165 741.48,-28.6674"/>
<polygon fill="midnightblue" stroke="midnightblue" points="641.967,-71.9321 634.428,-79.3762 644.964,-78.2583 641.967,-71.9321"/>
</g>
<!-- Node13&#45;&gt;Node11 -->
<g id="edge26" class="edge"><title>Node13&#45;&gt;Node11</title>
<path fill="none" stroke="midnightblue" d="M1072,-134.667C1072,-122.913 1072,-109.848 1072,-100.901"/>
<polygon fill="midnightblue" stroke="midnightblue" points="1068.5,-134.937 1072,-144.937 1075.5,-134.937 1068.5,-134.937"/>
</g>
<!-- Node14 -->
<g id="node28" class="node"><title>Node14</title>
<a xlink:href="disk__queues_8cpp.html" target="_top" xlink:title="thrill/io/disk_queues.cpp">
<polygon fill="none" stroke="black" points="1358,-7.5 1358,-28.5 1480,-28.5 1480,-7.5 1358,-7.5"/>
<text text-anchor="middle" x="1419" y="-15.5" font-family="Helvetica,sans-Serif" font-size="10.00">thrill/io/disk_queues.cpp</text>
</a>
</g>
<!-- Node13&#45;&gt;Node14 -->
<g id="edge28" class="edge"><title>Node13&#45;&gt;Node14</title>
<path fill="none" stroke="midnightblue" d="M1122.18,-143.772C1173.4,-127.642 1191.81,-133.431 1235,-108 1255.05,-96.1964 1253.24,-84.2851 1273,-72 1305.59,-51.735 1346.95,-37.3369 1377.32,-28.5321"/>
<polygon fill="midnightblue" stroke="midnightblue" points="1121,-140.477 1112.59,-146.925 1123.18,-147.127 1121,-140.477"/>
</g>
<!-- Node15 -->
<g id="node30" class="node"><title>Node15</title>
<a xlink:href="linuxaio__request_8hpp.html" target="_top" xlink:title="thrill/io/linuxaio\l_request.hpp">
<polygon fill="none" stroke="black" points="1145.5,-73 1145.5,-107 1226.5,-107 1226.5,-73 1145.5,-73"/>
<text text-anchor="start" x="1153.5" y="-94" font-family="Helvetica,sans-Serif" font-size="10.00">thrill/io/linuxaio</text>
<text text-anchor="middle" x="1186" y="-81" font-family="Helvetica,sans-Serif" font-size="10.00">_request.hpp</text>
</a>
</g>
<!-- Node13&#45;&gt;Node15 -->
<g id="edge30" class="edge"><title>Node13&#45;&gt;Node15</title>
<path fill="none" stroke="midnightblue" d="M1107.84,-139.364C1124.31,-128.962 1143.53,-116.826 1158.78,-107.19"/>
<polygon fill="midnightblue" stroke="midnightblue" points="1105.6,-136.638 1099.02,-144.937 1109.34,-142.556 1105.6,-136.638"/>
</g>
<!-- Node16 -->
<g id="node33" class="node"><title>Node16</title>
<a xlink:href="linuxaio__file_8cpp.html" target="_top" xlink:title="thrill/io/linuxaio\l_file.cpp">
<polygon fill="none" stroke="black" points="947.5,-1 947.5,-35 1028.5,-35 1028.5,-1 947.5,-1"/>
<text text-anchor="start" x="955.5" y="-22" font-family="Helvetica,sans-Serif" font-size="10.00">thrill/io/linuxaio</text>
<text text-anchor="middle" x="988" y="-9" font-family="Helvetica,sans-Serif" font-size="10.00">_file.cpp</text>
</a>
</g>
<!-- Node13&#45;&gt;Node16 -->
<g id="edge42" class="edge"><title>Node13&#45;&gt;Node16</title>
<path fill="none" stroke="midnightblue" d="M1035.42,-138.69C1024.79,-130.233 1014.13,-119.812 1007,-108 993.307,-85.3013 989.383,-54.1976 988.317,-35.1332"/>
<polygon fill="midnightblue" stroke="midnightblue" points="1033.4,-141.547 1043.49,-144.765 1037.61,-135.954 1033.4,-141.547"/>
</g>
<!-- Node15&#45;&gt;Node14 -->
<g id="edge32" class="edge"><title>Node15&#45;&gt;Node14</title>
<path fill="none" stroke="midnightblue" d="M1236.3,-73.1794C1237.55,-72.7805 1238.78,-72.3868 1240,-72 1289.35,-56.3358 1346.69,-39.2285 1382.91,-28.557"/>
<polygon fill="midnightblue" stroke="midnightblue" points="1235.08,-69.8965 1226.65,-76.3111 1237.24,-76.555 1235.08,-69.8965"/>
</g>
<!-- Node15&#45;&gt;Node16 -->
<g id="edge34" class="edge"><title>Node15&#45;&gt;Node16</title>
<path fill="none" stroke="midnightblue" d="M1135.94,-71.6257C1091.08,-55.3434 1078.62,-51.1351 1037,-36 1034.27,-35.0088 1031.46,-33.9842 1028.63,-32.95"/>
<polygon fill="midnightblue" stroke="midnightblue" points="1134.77,-74.9242 1145.37,-75.05 1137.16,-68.3451 1134.77,-74.9242"/>
</g>
<!-- Node17 -->
<g id="node35" class="node"><title>Node17</title>
<a xlink:href="linuxaio__queue_8cpp.html" target="_top" xlink:title="thrill/io/linuxaio\l_queue.cpp">
<polygon fill="none" stroke="black" points="1259.5,-1 1259.5,-35 1340.5,-35 1340.5,-1 1259.5,-1"/>
<text text-anchor="start" x="1267.5" y="-22" font-family="Helvetica,sans-Serif" font-size="10.00">thrill/io/linuxaio</text>
<text text-anchor="middle" x="1300" y="-9" font-family="Helvetica,sans-Serif" font-size="10.00">_queue.cpp</text>
</a>
</g>
<!-- Node15&#45;&gt;Node17 -->
<g id="edge36" class="edge"><title>Node15&#45;&gt;Node17</title>
<path fill="none" stroke="midnightblue" d="M1221.84,-67.3637C1238.31,-56.9622 1257.53,-44.826 1272.78,-35.19"/>
<polygon fill="midnightblue" stroke="midnightblue" points="1219.6,-64.6378 1213.02,-72.937 1223.34,-70.5562 1219.6,-64.6378"/>
</g>
<!-- Node18 -->
<g id="node37" class="node"><title>Node18</title>
<a xlink:href="linuxaio__request_8cpp.html" target="_top" xlink:title="thrill/io/linuxaio\l_request.cpp">
<polygon fill="none" stroke="black" points="1045.5,-1 1045.5,-35 1126.5,-35 1126.5,-1 1045.5,-1"/>
<text text-anchor="start" x="1053.5" y="-22" font-family="Helvetica,sans-Serif" font-size="10.00">thrill/io/linuxaio</text>
<text text-anchor="middle" x="1086" y="-9" font-family="Helvetica,sans-Serif" font-size="10.00">_request.cpp</text>
</a>
</g>
<!-- Node15&#45;&gt;Node18 -->
<g id="edge38" class="edge"><title>Node15&#45;&gt;Node18</title>
<path fill="none" stroke="midnightblue" d="M1154.16,-67.0743C1139.8,-56.7376 1123.13,-44.7368 1109.88,-35.19"/>
<polygon fill="midnightblue" stroke="midnightblue" points="1152.14,-69.9343 1162.3,-72.937 1156.23,-64.2535 1152.14,-69.9343"/>
</g>
<!-- Node19 -->
<g id="node39" class="node"><title>Node19</title>
<a xlink:href="request_8cpp.html" target="_top" xlink:title="thrill/io/request.cpp">
<polygon fill="none" stroke="black" points="1143.5,-7.5 1143.5,-28.5 1242.5,-28.5 1242.5,-7.5 1143.5,-7.5"/>
<text text-anchor="middle" x="1193" y="-15.5" font-family="Helvetica,sans-Serif" font-size="10.00">thrill/io/request.cpp</text>
</a>
</g>
<!-- Node15&#45;&gt;Node19 -->
<g id="edge40" class="edge"><title>Node15&#45;&gt;Node19</title>
<path fill="none" stroke="midnightblue" d="M1188.66,-62.6667C1189.8,-50.9127 1191.07,-37.8483 1191.94,-28.901"/>
<polygon fill="midnightblue" stroke="midnightblue" points="1185.14,-62.6452 1187.66,-72.937 1192.11,-63.3226 1185.14,-62.6452"/>
</g>
<!-- Node20&#45;&gt;Node11 -->
<g id="edge46" class="edge"><title>Node20&#45;&gt;Node11</title>
<path fill="none" stroke="midnightblue" d="M1160.72,-146.033C1138.86,-132.225 1107.86,-112.65 1088.89,-100.667"/>
<polygon fill="midnightblue" stroke="midnightblue" points="1158.86,-148.995 1169.18,-151.376 1162.59,-143.077 1158.86,-148.995"/>
</g>
<!-- Node21 -->
<g id="node45" class="node"><title>Node21</title>
<a xlink:href="mmap__file_8cpp.html" target="_top" xlink:title="thrill/io/mmap_file.cpp">
<polygon fill="none" stroke="black" points="1282,-79.5 1282,-100.5 1394,-100.5 1394,-79.5 1282,-79.5"/>
<text text-anchor="middle" x="1338" y="-87.5" font-family="Helvetica,sans-Serif" font-size="10.00">thrill/io/mmap_file.cpp</text>
</a>
</g>
<!-- Node20&#45;&gt;Node21 -->
<g id="edge48" class="edge"><title>Node20&#45;&gt;Node21</title>
<path fill="none" stroke="midnightblue" d="M1217.78,-146.944C1247.01,-133.099 1289.62,-112.917 1315.48,-100.667"/>
<polygon fill="midnightblue" stroke="midnightblue" points="1215.97,-143.932 1208.43,-151.376 1218.96,-150.258 1215.97,-143.932"/>
</g>
</g>
</svg>
