<?xml version="1.0" encoding="UTF-8" standalone="no"?>
<!DOCTYPE svg PUBLIC "-//W3C//DTD SVG 1.1//EN"
 "http://www.w3.org/Graphics/SVG/1.1/DTD/svg11.dtd">
<!-- Generated by graphviz version 2.40.1 (20161225.0304)
 -->
<!-- Title: thrill/api/union.hpp Pages: 1 -->
<svg width="702pt" height="95pt"
 viewBox="0.00 0.00 702.00 95.00" xmlns="http://www.w3.org/2000/svg" xmlns:xlink="http://www.w3.org/1999/xlink">
<g id="graph0" class="graph" transform="scale(1 1) rotate(0) translate(4 91)">
<title>thrill/api/union.hpp</title>
<!-- Node201 -->
<g id="node1" class="node">
<title>Node201</title>
<polygon fill="#bfbfbf" stroke="#000000" points="269,-67.5 269,-86.5 377,-86.5 377,-67.5 269,-67.5"/>
<text text-anchor="middle" x="323" y="-74.5" font-family="Helvetica,sans-Serif" font-size="10.00" fill="#000000">thrill/api/union.hpp</text>
</g>
<!-- Node202 -->
<g id="node2" class="node">
<title>Node202</title>
<g id="a_node2"><a xlink:href="thrill_8hpp.html" target="_top" xlink:title="thrill/thrill.hpp">
<polygon fill="none" stroke="#000000" points="0,-6 0,-25 86,-25 86,-6 0,-6"/>
<text text-anchor="middle" x="43" y="-13" font-family="Helvetica,sans-Serif" font-size="10.00" fill="#000000">thrill/thrill.hpp</text>
</a>
</g>
</g>
<!-- Node201&#45;&gt;Node202 -->
<g id="edge1" class="edge">
<title>Node201&#45;&gt;Node202</title>
<path fill="none" stroke="#191970" d="M258.6915,-65.6357C212.8255,-57.1392 149.8213,-44.6709 95,-31 87.9619,-29.2449 80.4533,-27.1433 73.3939,-25.0625"/>
<polygon fill="#191970" stroke="#191970" points="258.3248,-69.1269 268.7931,-67.4941 259.5914,-62.2424 258.3248,-69.1269"/>
</g>
<!-- Node203 -->
<g id="node3" class="node">
<title>Node203</title>
<g id="a_node3"><a xlink:href="dc3_8cpp.html" target="_top" xlink:title="examples/suffix_sorting\l/dc3.cpp">
<polygon fill="none" stroke="#000000" points="104,-.5 104,-30.5 238,-30.5 238,-.5 104,-.5"/>
<text text-anchor="start" x="112" y="-18.5" font-family="Helvetica,sans-Serif" font-size="10.00" fill="#000000">examples/suffix_sorting</text>
<text text-anchor="middle" x="171" y="-7.5" font-family="Helvetica,sans-Serif" font-size="10.00" fill="#000000">/dc3.cpp</text>
</a>
</g>
</g>
<!-- Node201&#45;&gt;Node203 -->
<g id="edge2" class="edge">
<title>Node201&#45;&gt;Node203</title>
<path fill="none" stroke="#191970" d="M289.8235,-63.5766C265.7418,-53.833 233.1445,-40.644 208.1834,-30.5446"/>
<polygon fill="#191970" stroke="#191970" points="288.6673,-66.8844 299.25,-67.3906 291.2928,-60.3954 288.6673,-66.8844"/>
</g>
<!-- Node204 -->
<g id="node4" class="node">
<title>Node204</title>
<g id="a_node4"><a xlink:href="dc7_8cpp.html" target="_top" xlink:title="examples/suffix_sorting\l/dc7.cpp">
<polygon fill="none" stroke="#000000" points="256,-.5 256,-30.5 390,-30.5 390,-.5 256,-.5"/>
<text text-anchor="start" x="264" y="-18.5" font-family="Helvetica,sans-Serif" font-size="10.00" fill="#000000">examples/suffix_sorting</text>
<text text-anchor="middle" x="323" y="-7.5" font-family="Helvetica,sans-Serif" font-size="10.00" fill="#000000">/dc7.cpp</text>
</a>
</g>
</g>
<!-- Node201&#45;&gt;Node204 -->
<g id="edge3" class="edge">
<title>Node201&#45;&gt;Node204</title>
<path fill="none" stroke="#191970" d="M323,-57.3693C323,-48.681 323,-38.6241 323,-30.5446"/>
<polygon fill="#191970" stroke="#191970" points="319.5001,-57.3906 323,-67.3906 326.5001,-57.3907 319.5001,-57.3906"/>
</g>
<!-- Node205 -->
<g id="node5" class="node">
<title>Node205</title>
<g id="a_node5"><a xlink:href="prefix__doubling_8cpp.html" target="_top" xlink:title="examples/suffix_sorting\l/prefix_doubling.cpp">
<polygon fill="none" stroke="#000000" points="408,-.5 408,-30.5 542,-30.5 542,-.5 408,-.5"/>
<text text-anchor="start" x="416" y="-18.5" font-family="Helvetica,sans-Serif" font-size="10.00" fill="#000000">examples/suffix_sorting</text>
<text text-anchor="middle" x="475" y="-7.5" font-family="Helvetica,sans-Serif" font-size="10.00" fill="#000000">/prefix_doubling.cpp</text>
</a>
</g>
</g>
<!-- Node201&#45;&gt;Node205 -->
<g id="edge4" class="edge">
<title>Node201&#45;&gt;Node205</title>
<path fill="none" stroke="#191970" d="M356.1765,-63.5766C380.2582,-53.833 412.8555,-40.644 437.8166,-30.5446"/>
<polygon fill="#191970" stroke="#191970" points="354.7072,-60.3954 346.75,-67.3906 357.3327,-66.8844 354.7072,-60.3954"/>
</g>
<!-- Node206 -->
<g id="node6" class="node">
<title>Node206</title>
<g id="a_node6"><a xlink:href="prefix__quadrupling_8cpp.html" target="_top" xlink:title="examples/suffix_sorting\l/prefix_quadrupling.cpp">
<polygon fill="none" stroke="#000000" points="560,-.5 560,-30.5 694,-30.5 694,-.5 560,-.5"/>
<text text-anchor="start" x="568" y="-18.5" font-family="Helvetica,sans-Serif" font-size="10.00" fill="#000000">examples/suffix_sorting</text>
<text text-anchor="middle" x="627" y="-7.5" font-family="Helvetica,sans-Serif" font-size="10.00" fill="#000000">/prefix_quadrupling.cpp</text>
</a>
</g>
</g>
<!-- Node201&#45;&gt;Node206 -->
<g id="edge5" class="edge">
<title>Node201&#45;&gt;Node206</title>
<path fill="none" stroke="#191970" d="M380.4151,-65.451C426.5238,-56.168 492.9304,-42.7795 551,-31 553.9034,-30.411 556.8691,-29.8088 559.8648,-29.2"/>
<polygon fill="#191970" stroke="#191970" points="379.7172,-62.0212 370.6045,-67.4259 381.0986,-68.8836 379.7172,-62.0212"/>
</g>
</g>
</svg>
