<?xml version="1.0" encoding="UTF-8" standalone="no"?>
<!DOCTYPE svg PUBLIC "-//W3C//DTD SVG 1.1//EN"
 "http://www.w3.org/Graphics/SVG/1.1/DTD/svg11.dtd">
<!-- Generated by graphviz version 2.26.3 (20100126.1600)
 -->
<!-- Title: extlib/tlx/tlx/string/union_words.cpp Pages: 1 -->
<svg width="250pt" height="174pt"
 viewBox="0.00 0.00 250.00 174.00" xmlns="http://www.w3.org/2000/svg" xmlns:xlink="http://www.w3.org/1999/xlink">
<g id="graph1" class="graph" transform="scale(1 1) rotate(0) translate(4 170)">
<title>extlib/tlx/tlx/string/union_words.cpp</title>
<!-- Node1 -->
<g id="node1" class="node"><title>Node1</title>
<polygon fill="#bfbfbf" stroke="black" points="65,-131 65,-165 159,-165 159,-131 65,-131"/>
<text text-anchor="start" x="73" y="-152" font-family="Helvetica,sans-Serif" font-size="10.00">extlib/tlx/tlx/string</text>
<text text-anchor="middle" x="112" y="-139" font-family="Helvetica,sans-Serif" font-size="10.00">/union_words.cpp</text>
</g>
<!-- Node2 -->
<g id="node3" class="node"><title>Node2</title>
<a xlink:href="contains__word_8hpp.html" target="_top" xlink:title="tlx/string/contains\l_word.hpp">
<polygon fill="none" stroke="black" points="0,-59 0,-93 94,-93 94,-59 0,-59"/>
<text text-anchor="start" x="8" y="-80" font-family="Helvetica,sans-Serif" font-size="10.00">tlx/string/contains</text>
<text text-anchor="middle" x="47" y="-67" font-family="Helvetica,sans-Serif" font-size="10.00">_word.hpp</text>
</a>
</g>
<!-- Node1&#45;&gt;Node2 -->
<g id="edge2" class="edge"><title>Node1&#45;&gt;Node2</title>
<path fill="none" stroke="midnightblue" d="M96.5959,-130.937C88.5385,-122.012 78.5213,-110.916 69.6031,-101.037"/>
<polygon fill="midnightblue" stroke="midnightblue" points="72.0441,-98.518 62.7451,-93.4407 66.8482,-103.209 72.0441,-98.518"/>
</g>
<!-- Node4 -->
<g id="node7" class="node"><title>Node4</title>
<a xlink:href="union__words_8hpp.html" target="_top" xlink:title="tlx/string/union_words.hpp">
<polygon fill="none" stroke="black" points="111.5,-65.5 111.5,-86.5 242.5,-86.5 242.5,-65.5 111.5,-65.5"/>
<text text-anchor="middle" x="177" y="-73.5" font-family="Helvetica,sans-Serif" font-size="10.00">tlx/string/union_words.hpp</text>
</a>
</g>
<!-- Node1&#45;&gt;Node4 -->
<g id="edge6" class="edge"><title>Node1&#45;&gt;Node4</title>
<path fill="none" stroke="midnightblue" d="M127.404,-130.937C137.313,-119.961 150.185,-105.702 160.333,-94.4621"/>
<polygon fill="midnightblue" stroke="midnightblue" points="163.056,-96.6691 167.159,-86.901 157.86,-91.9784 163.056,-96.6691"/>
</g>
<!-- Node3 -->
<g id="node5" class="node"><title>Node3</title>
<polygon fill="none" stroke="#bfbfbf" points="91.5,-0.5 91.5,-21.5 132.5,-21.5 132.5,-0.5 91.5,-0.5"/>
<text text-anchor="middle" x="112" y="-8.5" font-family="Helvetica,sans-Serif" font-size="10.00">string</text>
</g>
<!-- Node2&#45;&gt;Node3 -->
<g id="edge4" class="edge"><title>Node2&#45;&gt;Node3</title>
<path fill="none" stroke="midnightblue" d="M64.078,-58.922C73.2464,-49.7536 84.5465,-38.4535 93.8706,-29.1294"/>
<polygon fill="midnightblue" stroke="midnightblue" points="96.5517,-31.3981 101.148,-21.8521 91.6019,-26.4483 96.5517,-31.3981"/>
</g>
<!-- Node4&#45;&gt;Node3 -->
<g id="edge8" class="edge"><title>Node4&#45;&gt;Node3</title>
<path fill="none" stroke="midnightblue" d="M166.267,-65.2666C156.328,-55.328 141.363,-40.3635 129.664,-28.6645"/>
<polygon fill="midnightblue" stroke="midnightblue" points="132.08,-26.1299 122.534,-21.5337 127.13,-31.0797 132.08,-26.1299"/>
</g>
</g>
</svg>
