<?xml version="1.0" encoding="UTF-8" standalone="no"?>
<!DOCTYPE svg PUBLIC "-//W3C//DTD SVG 1.1//EN"
 "http://www.w3.org/Graphics/SVG/1.1/DTD/svg11.dtd">
<!-- Generated by graphviz version 2.26.3 (20100126.1600)
 -->
<!-- Title: thrill/common/vector.hpp Pages: 1 -->
<svg width="132pt" height="174pt"
 viewBox="0.00 0.00 132.00 174.00" xmlns="http://www.w3.org/2000/svg" xmlns:xlink="http://www.w3.org/1999/xlink">
<g id="graph1" class="graph" transform="scale(1 1) rotate(0) translate(4 170)">
<title>thrill/common/vector.hpp</title>
<!-- Node1 -->
<g id="node1" class="node"><title>Node1</title>
<polygon fill="#bfbfbf" stroke="black" points="0,-144.5 0,-165.5 124,-165.5 124,-144.5 0,-144.5"/>
<text text-anchor="middle" x="62" y="-152.5" font-family="Helvetica,sans-Serif" font-size="10.00">thrill/common/vector.hpp</text>
</g>
<!-- Node2 -->
<g id="node3" class="node"><title>Node2</title>
<a xlink:href="k-means_8hpp.html" target="_top" xlink:title="examples/k&#45;means/k\l&#45;means.hpp">
<polygon fill="none" stroke="black" points="8.5,-73 8.5,-107 115.5,-107 115.5,-73 8.5,-73"/>
<text text-anchor="start" x="16.5" y="-94" font-family="Helvetica,sans-Serif" font-size="10.00">examples/k&#45;means/k</text>
<text text-anchor="middle" x="62" y="-81" font-family="Helvetica,sans-Serif" font-size="10.00">&#45;means.hpp</text>
</a>
</g>
<!-- Node1&#45;&gt;Node2 -->
<g id="edge2" class="edge"><title>Node1&#45;&gt;Node2</title>
<path fill="none" stroke="midnightblue" d="M62,-134.131C62,-125.405 62,-115.391 62,-107.11"/>
<polygon fill="midnightblue" stroke="midnightblue" points="58.5001,-134.267 62,-144.267 65.5001,-134.267 58.5001,-134.267"/>
</g>
<!-- Node3 -->
<g id="node5" class="node"><title>Node3</title>
<a xlink:href="k-means__run_8cpp.html" target="_top" xlink:title="examples/k&#45;means/k\l&#45;means_run.cpp">
<polygon fill="none" stroke="black" points="8.5,-1 8.5,-35 115.5,-35 115.5,-1 8.5,-1"/>
<text text-anchor="start" x="16.5" y="-22" font-family="Helvetica,sans-Serif" font-size="10.00">examples/k&#45;means/k</text>
<text text-anchor="middle" x="62" y="-9" font-family="Helvetica,sans-Serif" font-size="10.00">&#45;means_run.cpp</text>
</a>
</g>
<!-- Node2&#45;&gt;Node3 -->
<g id="edge4" class="edge"><title>Node2&#45;&gt;Node3</title>
<path fill="none" stroke="midnightblue" d="M62,-62.7193C62,-53.572 62,-43.6255 62,-35.4407"/>
<polygon fill="midnightblue" stroke="midnightblue" points="58.5001,-62.937 62,-72.937 65.5001,-62.937 58.5001,-62.937"/>
</g>
</g>
</svg>
