<?xml version="1.0" encoding="UTF-8" standalone="no"?>
<!DOCTYPE svg PUBLIC "-//W3C//DTD SVG 1.1//EN"
 "http://www.w3.org/Graphics/SVG/1.1/DTD/svg11.dtd">
<!-- Generated by graphviz version 2.36.0 (20140111.2315)
 -->
<!-- Title: thrill/common/vector.hpp Pages: 1 -->
<svg width="473pt" height="140pt"
 viewBox="0.00 0.00 473.00 140.00" xmlns="http://www.w3.org/2000/svg" xmlns:xlink="http://www.w3.org/1999/xlink">
<g id="graph0" class="graph" transform="scale(1 1) rotate(0) translate(4 136)">
<title>thrill/common/vector.hpp</title>
<!-- Node1 -->
<g id="node1" class="node"><title>Node1</title>
<polygon fill="#bfbfbf" stroke="black" points="208,-112.5 208,-131.5 332,-131.5 332,-112.5 208,-112.5"/>
<text text-anchor="middle" x="270" y="-119.5" font-family="Helvetica,sans-Serif" font-size="10.00">thrill/common/vector.hpp</text>
</g>
<!-- Node2 -->
<g id="node2" class="node"><title>Node2</title>
<g id="a_node2"><a xlink:href="die_8hpp.html" target="_top" xlink:title="tlx/die.hpp">
<polygon fill="none" stroke="black" points="59,-56.5 59,-75.5 121,-75.5 121,-56.5 59,-56.5"/>
<text text-anchor="middle" x="90" y="-63.5" font-family="Helvetica,sans-Serif" font-size="10.00">tlx/die.hpp</text>
</a>
</g>
</g>
<!-- Node1&#45;&gt;Node2 -->
<g id="edge1" class="edge"><title>Node1&#45;&gt;Node2</title>
<path fill="none" stroke="midnightblue" d="M241.478,-112.444C210.934,-103.28 162.292,-88.6876 128.397,-78.5192"/>
<polygon fill="midnightblue" stroke="midnightblue" points="128.972,-75.0376 118.388,-75.5164 126.961,-81.7424 128.972,-75.0376"/>
</g>
<!-- Node6 -->
<g id="node6" class="node"><title>Node6</title>
<polygon fill="none" stroke="#bfbfbf" points="139,-56.5 139,-75.5 195,-75.5 195,-56.5 139,-56.5"/>
<text text-anchor="middle" x="167" y="-63.5" font-family="Helvetica,sans-Serif" font-size="10.00">algorithm</text>
</g>
<!-- Node1&#45;&gt;Node6 -->
<g id="edge5" class="edge"><title>Node1&#45;&gt;Node6</title>
<path fill="none" stroke="midnightblue" d="M253.451,-112.324C237.008,-103.703 211.565,-90.3643 192.532,-80.3855"/>
<polygon fill="midnightblue" stroke="midnightblue" points="193.989,-77.198 183.508,-75.6545 190.739,-83.3977 193.989,-77.198"/>
</g>
<!-- Node7 -->
<g id="node7" class="node"><title>Node7</title>
<polygon fill="none" stroke="#bfbfbf" points="213.5,-56.5 213.5,-75.5 262.5,-75.5 262.5,-56.5 213.5,-56.5"/>
<text text-anchor="middle" x="238" y="-63.5" font-family="Helvetica,sans-Serif" font-size="10.00">cassert</text>
</g>
<!-- Node1&#45;&gt;Node7 -->
<g id="edge6" class="edge"><title>Node1&#45;&gt;Node7</title>
<path fill="none" stroke="midnightblue" d="M264.716,-112.083C260.289,-104.613 253.837,-93.7244 248.382,-84.5199"/>
<polygon fill="midnightblue" stroke="midnightblue" points="251.295,-82.5697 243.186,-75.7511 245.273,-86.1383 251.295,-82.5697"/>
</g>
<!-- Node8 -->
<g id="node8" class="node"><title>Node8</title>
<polygon fill="none" stroke="#bfbfbf" points="281,-56.5 281,-75.5 325,-75.5 325,-56.5 281,-56.5"/>
<text text-anchor="middle" x="303" y="-63.5" font-family="Helvetica,sans-Serif" font-size="10.00">cmath</text>
</g>
<!-- Node1&#45;&gt;Node8 -->
<g id="edge7" class="edge"><title>Node1&#45;&gt;Node8</title>
<path fill="none" stroke="midnightblue" d="M275.449,-112.083C280.014,-104.613 286.668,-93.7244 292.293,-84.5199"/>
<polygon fill="midnightblue" stroke="midnightblue" points="295.424,-86.109 297.652,-75.7511 289.451,-82.4588 295.424,-86.109"/>
</g>
<!-- Node9 -->
<g id="node9" class="node"><title>Node9</title>
<polygon fill="none" stroke="#bfbfbf" points="343.5,-56.5 343.5,-75.5 402.5,-75.5 402.5,-56.5 343.5,-56.5"/>
<text text-anchor="middle" x="373" y="-63.5" font-family="Helvetica,sans-Serif" font-size="10.00">functional</text>
</g>
<!-- Node1&#45;&gt;Node9 -->
<g id="edge8" class="edge"><title>Node1&#45;&gt;Node9</title>
<path fill="none" stroke="midnightblue" d="M286.549,-112.324C302.992,-103.703 328.435,-90.3643 347.468,-80.3855"/>
<polygon fill="midnightblue" stroke="midnightblue" points="349.261,-83.3977 356.492,-75.6545 346.011,-77.198 349.261,-83.3977"/>
</g>
<!-- Node10 -->
<g id="node10" class="node"><title>Node10</title>
<polygon fill="none" stroke="#bfbfbf" points="421,-56.5 421,-75.5 465,-75.5 465,-56.5 421,-56.5"/>
<text text-anchor="middle" x="443" y="-63.5" font-family="Helvetica,sans-Serif" font-size="10.00">vector</text>
</g>
<!-- Node1&#45;&gt;Node10 -->
<g id="edge9" class="edge"><title>Node1&#45;&gt;Node10</title>
<path fill="none" stroke="midnightblue" d="M297.412,-112.444C328.276,-102.81 378.365,-87.1752 410.996,-76.9896"/>
<polygon fill="midnightblue" stroke="midnightblue" points="412.428,-80.2093 420.931,-73.8886 410.342,-73.5273 412.428,-80.2093"/>
</g>
<!-- Node3 -->
<g id="node3" class="node"><title>Node3</title>
<polygon fill="none" stroke="#bfbfbf" points="0,-0.5 0,-19.5 46,-19.5 46,-0.5 0,-0.5"/>
<text text-anchor="middle" x="23" y="-7.5" font-family="Helvetica,sans-Serif" font-size="10.00">cstring</text>
</g>
<!-- Node2&#45;&gt;Node3 -->
<g id="edge2" class="edge"><title>Node2&#45;&gt;Node3</title>
<path fill="none" stroke="midnightblue" d="M79.2353,-56.324C69.2339,-48.2631 54.1135,-36.0765 42.0695,-26.3695"/>
<polygon fill="midnightblue" stroke="midnightblue" points="43.9429,-23.3841 33.9606,-19.8339 39.5502,-28.8343 43.9429,-23.3841"/>
</g>
<!-- Node4 -->
<g id="node4" class="node"><title>Node4</title>
<polygon fill="none" stroke="#bfbfbf" points="64,-0.5 64,-19.5 116,-19.5 116,-0.5 64,-0.5"/>
<text text-anchor="middle" x="90" y="-7.5" font-family="Helvetica,sans-Serif" font-size="10.00">sstream</text>
</g>
<!-- Node2&#45;&gt;Node4 -->
<g id="edge3" class="edge"><title>Node2&#45;&gt;Node4</title>
<path fill="none" stroke="midnightblue" d="M90,-56.083C90,-49.0059 90,-38.8611 90,-29.9865"/>
<polygon fill="midnightblue" stroke="midnightblue" points="93.5001,-29.751 90,-19.7511 86.5001,-29.7511 93.5001,-29.751"/>
</g>
<!-- Node5 -->
<g id="node5" class="node"><title>Node5</title>
<polygon fill="none" stroke="#bfbfbf" points="134.5,-0.5 134.5,-19.5 175.5,-19.5 175.5,-0.5 134.5,-0.5"/>
<text text-anchor="middle" x="155" y="-7.5" font-family="Helvetica,sans-Serif" font-size="10.00">string</text>
</g>
<!-- Node2&#45;&gt;Node5 -->
<g id="edge4" class="edge"><title>Node2&#45;&gt;Node5</title>
<path fill="none" stroke="midnightblue" d="M100.443,-56.324C110.146,-48.2631 124.815,-36.0765 136.5,-26.3695"/>
<polygon fill="midnightblue" stroke="midnightblue" points="138.911,-28.9163 144.367,-19.8339 134.438,-23.532 138.911,-28.9163"/>
</g>
</g>
</svg>
