<?xml version="1.0" encoding="UTF-8" standalone="no"?>
<!DOCTYPE svg PUBLIC "-//W3C//DTD SVG 1.1//EN"
 "http://www.w3.org/Graphics/SVG/1.1/DTD/svg11.dtd">
<!-- Generated by graphviz version 2.36.0 (20140111.2315)
 -->
<!-- Title: thrill/common/vector.hpp Pages: 1 -->
<svg width="510pt" height="196pt"
 viewBox="0.00 0.00 510.00 196.00" xmlns="http://www.w3.org/2000/svg" xmlns:xlink="http://www.w3.org/1999/xlink">
<g id="graph0" class="graph" transform="scale(1 1) rotate(0) translate(4 192)">
<title>thrill/common/vector.hpp</title>
<!-- Node1 -->
<g id="node1" class="node"><title>Node1</title>
<polygon fill="#bfbfbf" stroke="black" points="245,-168.5 245,-187.5 369,-187.5 369,-168.5 245,-168.5"/>
<text text-anchor="middle" x="307" y="-175.5" font-family="Helvetica,sans-Serif" font-size="10.00">thrill/common/vector.hpp</text>
</g>
<!-- Node2 -->
<g id="node2" class="node"><title>Node2</title>
<g id="a_node2"><a xlink:href="die_8hpp.html" target="_top" xlink:title="tlx/die.hpp">
<polygon fill="none" stroke="black" points="96,-112.5 96,-131.5 158,-131.5 158,-112.5 96,-112.5"/>
<text text-anchor="middle" x="127" y="-119.5" font-family="Helvetica,sans-Serif" font-size="10.00">tlx/die.hpp</text>
</a>
</g>
</g>
<!-- Node1&#45;&gt;Node2 -->
<g id="edge1" class="edge"><title>Node1&#45;&gt;Node2</title>
<path fill="none" stroke="midnightblue" d="M278.478,-168.444C247.934,-159.28 199.292,-144.688 165.397,-134.519"/>
<polygon fill="midnightblue" stroke="midnightblue" points="165.972,-131.038 155.388,-131.516 163.961,-137.742 165.972,-131.038"/>
</g>
<!-- Node8 -->
<g id="node8" class="node"><title>Node8</title>
<polygon fill="none" stroke="#bfbfbf" points="176,-112.5 176,-131.5 232,-131.5 232,-112.5 176,-112.5"/>
<text text-anchor="middle" x="204" y="-119.5" font-family="Helvetica,sans-Serif" font-size="10.00">algorithm</text>
</g>
<!-- Node1&#45;&gt;Node8 -->
<g id="edge7" class="edge"><title>Node1&#45;&gt;Node8</title>
<path fill="none" stroke="midnightblue" d="M290.451,-168.324C274.008,-159.703 248.565,-146.364 229.532,-136.386"/>
<polygon fill="midnightblue" stroke="midnightblue" points="230.989,-133.198 220.508,-131.655 227.739,-139.398 230.989,-133.198"/>
</g>
<!-- Node9 -->
<g id="node9" class="node"><title>Node9</title>
<polygon fill="none" stroke="#bfbfbf" points="250.5,-112.5 250.5,-131.5 299.5,-131.5 299.5,-112.5 250.5,-112.5"/>
<text text-anchor="middle" x="275" y="-119.5" font-family="Helvetica,sans-Serif" font-size="10.00">cassert</text>
</g>
<!-- Node1&#45;&gt;Node9 -->
<g id="edge8" class="edge"><title>Node1&#45;&gt;Node9</title>
<path fill="none" stroke="midnightblue" d="M301.716,-168.083C297.289,-160.613 290.837,-149.724 285.382,-140.52"/>
<polygon fill="midnightblue" stroke="midnightblue" points="288.295,-138.57 280.186,-131.751 282.273,-142.138 288.295,-138.57"/>
</g>
<!-- Node10 -->
<g id="node10" class="node"><title>Node10</title>
<polygon fill="none" stroke="#bfbfbf" points="318,-112.5 318,-131.5 362,-131.5 362,-112.5 318,-112.5"/>
<text text-anchor="middle" x="340" y="-119.5" font-family="Helvetica,sans-Serif" font-size="10.00">cmath</text>
</g>
<!-- Node1&#45;&gt;Node10 -->
<g id="edge9" class="edge"><title>Node1&#45;&gt;Node10</title>
<path fill="none" stroke="midnightblue" d="M312.449,-168.083C317.014,-160.613 323.668,-149.724 329.293,-140.52"/>
<polygon fill="midnightblue" stroke="midnightblue" points="332.424,-142.109 334.652,-131.751 326.451,-138.459 332.424,-142.109"/>
</g>
<!-- Node11 -->
<g id="node11" class="node"><title>Node11</title>
<polygon fill="none" stroke="#bfbfbf" points="380.5,-112.5 380.5,-131.5 439.5,-131.5 439.5,-112.5 380.5,-112.5"/>
<text text-anchor="middle" x="410" y="-119.5" font-family="Helvetica,sans-Serif" font-size="10.00">functional</text>
</g>
<!-- Node1&#45;&gt;Node11 -->
<g id="edge10" class="edge"><title>Node1&#45;&gt;Node11</title>
<path fill="none" stroke="midnightblue" d="M323.549,-168.324C339.992,-159.703 365.435,-146.364 384.468,-136.386"/>
<polygon fill="midnightblue" stroke="midnightblue" points="386.261,-139.398 393.492,-131.655 383.011,-133.198 386.261,-139.398"/>
</g>
<!-- Node12 -->
<g id="node12" class="node"><title>Node12</title>
<polygon fill="none" stroke="#bfbfbf" points="458,-112.5 458,-131.5 502,-131.5 502,-112.5 458,-112.5"/>
<text text-anchor="middle" x="480" y="-119.5" font-family="Helvetica,sans-Serif" font-size="10.00">vector</text>
</g>
<!-- Node1&#45;&gt;Node12 -->
<g id="edge11" class="edge"><title>Node1&#45;&gt;Node12</title>
<path fill="none" stroke="midnightblue" d="M334.412,-168.444C365.276,-158.81 415.365,-143.175 447.996,-132.99"/>
<polygon fill="midnightblue" stroke="midnightblue" points="449.428,-136.209 457.931,-129.889 447.342,-129.527 449.428,-136.209"/>
</g>
<!-- Node3 -->
<g id="node3" class="node"><title>Node3</title>
<g id="a_node3"><a xlink:href="die_2core_8hpp.html" target="_top" xlink:title="tlx/die/core.hpp">
<polygon fill="none" stroke="black" points="85.5,-56.5 85.5,-75.5 168.5,-75.5 168.5,-56.5 85.5,-56.5"/>
<text text-anchor="middle" x="127" y="-63.5" font-family="Helvetica,sans-Serif" font-size="10.00">tlx/die/core.hpp</text>
</a>
</g>
</g>
<!-- Node2&#45;&gt;Node3 -->
<g id="edge2" class="edge"><title>Node2&#45;&gt;Node3</title>
<path fill="none" stroke="midnightblue" d="M127,-112.083C127,-105.006 127,-94.8611 127,-85.9865"/>
<polygon fill="midnightblue" stroke="midnightblue" points="130.5,-85.751 127,-75.7511 123.5,-85.7511 130.5,-85.751"/>
</g>
<!-- Node4 -->
<g id="node4" class="node"><title>Node4</title>
<polygon fill="none" stroke="#bfbfbf" points="0,-0.5 0,-19.5 46,-19.5 46,-0.5 0,-0.5"/>
<text text-anchor="middle" x="23" y="-7.5" font-family="Helvetica,sans-Serif" font-size="10.00">cstring</text>
</g>
<!-- Node3&#45;&gt;Node4 -->
<g id="edge3" class="edge"><title>Node3&#45;&gt;Node4</title>
<path fill="none" stroke="midnightblue" d="M110.291,-56.324C93.6881,-47.7034 67.9979,-34.3643 48.7795,-24.3855"/>
<polygon fill="midnightblue" stroke="midnightblue" points="50.1558,-21.1565 39.6679,-19.6545 46.93,-27.3689 50.1558,-21.1565"/>
</g>
<!-- Node5 -->
<g id="node5" class="node"><title>Node5</title>
<polygon fill="none" stroke="#bfbfbf" points="64,-0.5 64,-19.5 116,-19.5 116,-0.5 64,-0.5"/>
<text text-anchor="middle" x="90" y="-7.5" font-family="Helvetica,sans-Serif" font-size="10.00">sstream</text>
</g>
<!-- Node3&#45;&gt;Node5 -->
<g id="edge4" class="edge"><title>Node3&#45;&gt;Node5</title>
<path fill="none" stroke="midnightblue" d="M120.89,-56.083C115.718,-48.5341 108.154,-37.4948 101.806,-28.2298"/>
<polygon fill="midnightblue" stroke="midnightblue" points="104.536,-26.0221 95.9961,-19.7511 98.7612,-29.9787 104.536,-26.0221"/>
</g>
<!-- Node6 -->
<g id="node6" class="node"><title>Node6</title>
<polygon fill="none" stroke="#bfbfbf" points="134.5,-0.5 134.5,-19.5 193.5,-19.5 193.5,-0.5 134.5,-0.5"/>
<text text-anchor="middle" x="164" y="-7.5" font-family="Helvetica,sans-Serif" font-size="10.00">stdexcept</text>
</g>
<!-- Node3&#45;&gt;Node6 -->
<g id="edge5" class="edge"><title>Node3&#45;&gt;Node6</title>
<path fill="none" stroke="midnightblue" d="M133.11,-56.083C138.282,-48.5341 145.846,-37.4948 152.194,-28.2298"/>
<polygon fill="midnightblue" stroke="midnightblue" points="155.239,-29.9787 158.004,-19.7511 149.464,-26.0221 155.239,-29.9787"/>
</g>
<!-- Node7 -->
<g id="node7" class="node"><title>Node7</title>
<polygon fill="none" stroke="#bfbfbf" points="211.5,-0.5 211.5,-19.5 252.5,-19.5 252.5,-0.5 211.5,-0.5"/>
<text text-anchor="middle" x="232" y="-7.5" font-family="Helvetica,sans-Serif" font-size="10.00">string</text>
</g>
<!-- Node3&#45;&gt;Node7 -->
<g id="edge6" class="edge"><title>Node3&#45;&gt;Node7</title>
<path fill="none" stroke="midnightblue" d="M143.87,-56.324C160.709,-47.6641 186.807,-34.2424 206.238,-24.249"/>
<polygon fill="midnightblue" stroke="midnightblue" points="207.88,-27.3405 215.172,-19.6545 204.678,-21.1155 207.88,-27.3405"/>
</g>
</g>
</svg>
