<?xml version="1.0" encoding="UTF-8" standalone="no"?>
<!DOCTYPE svg PUBLIC "-//W3C//DTD SVG 1.1//EN"
 "http://www.w3.org/Graphics/SVG/1.1/DTD/svg11.dtd">
<!-- Generated by graphviz version 2.36.0 (20140111.2315)
 -->
<!-- Title: extlib/foxxll/foxxll/common/version.cpp Pages: 1 -->
<svg width="357pt" height="208pt"
 viewBox="0.00 0.00 357.00 208.00" xmlns="http://www.w3.org/2000/svg" xmlns:xlink="http://www.w3.org/1999/xlink">
<g id="graph0" class="graph" transform="scale(1 1) rotate(0) translate(4 204)">
<title>extlib/foxxll/foxxll/common/version.cpp</title>
<!-- Node1 -->
<g id="node1" class="node"><title>Node1</title>
<polygon fill="#bfbfbf" stroke="black" points="25,-169 25,-199 135,-199 135,-169 25,-169"/>
<text text-anchor="start" x="33" y="-187" font-family="Helvetica,sans-Serif" font-size="10.00">extlib/foxxll/foxxll</text>
<text text-anchor="middle" x="80" y="-176" font-family="Helvetica,sans-Serif" font-size="10.00">/common/version.cpp</text>
</g>
<!-- Node2 -->
<g id="node2" class="node"><title>Node2</title>
<polygon fill="none" stroke="#bfbfbf" points="0,-56.5 0,-75.5 88,-75.5 88,-56.5 0,-56.5"/>
<text text-anchor="middle" x="44" y="-63.5" font-family="Helvetica,sans-Serif" font-size="10.00">foxxll/config.hpp</text>
</g>
<!-- Node1&#45;&gt;Node2 -->
<g id="edge1" class="edge"><title>Node1&#45;&gt;Node2</title>
<path fill="none" stroke="midnightblue" d="M75.0939,-168.757C71.6183,-158.554 66.8996,-144.471 63,-132 58.1205,-116.396 52.9357,-98.564 49.2171,-85.5295"/>
<polygon fill="midnightblue" stroke="midnightblue" points="52.5716,-84.5294 46.4773,-75.8629 45.8369,-86.4384 52.5716,-84.5294"/>
</g>
<!-- Node3 -->
<g id="node3" class="node"><title>Node3</title>
<g id="a_node3"><a xlink:href="foxxll_2foxxll_2version_8hpp.html" target="_top" xlink:title="foxxll/version.hpp">
<polygon fill="none" stroke="black" points="71.5,-112.5 71.5,-131.5 164.5,-131.5 164.5,-112.5 71.5,-112.5"/>
<text text-anchor="middle" x="118" y="-119.5" font-family="Helvetica,sans-Serif" font-size="10.00">foxxll/version.hpp</text>
</a>
</g>
</g>
<!-- Node1&#45;&gt;Node3 -->
<g id="edge2" class="edge"><title>Node1&#45;&gt;Node3</title>
<path fill="none" stroke="midnightblue" d="M89.0055,-168.781C94.4135,-160.242 101.332,-149.318 107.054,-140.283"/>
<polygon fill="midnightblue" stroke="midnightblue" points="110.077,-142.051 112.471,-131.731 104.163,-138.306 110.077,-142.051"/>
</g>
<!-- Node3&#45;&gt;Node2 -->
<g id="edge9" class="edge"><title>Node3&#45;&gt;Node2</title>
<path fill="none" stroke="midnightblue" d="M106.111,-112.324C94.8498,-104.107 77.7134,-91.6017 64.2909,-81.8069"/>
<polygon fill="midnightblue" stroke="midnightblue" points="66.2468,-78.9014 56.1057,-75.8339 62.1205,-84.5559 66.2468,-78.9014"/>
</g>
<!-- Node4 -->
<g id="node4" class="node"><title>Node4</title>
<polygon fill="none" stroke="#bfbfbf" points="96.5,-0.5 96.5,-19.5 137.5,-19.5 137.5,-0.5 96.5,-0.5"/>
<text text-anchor="middle" x="117" y="-7.5" font-family="Helvetica,sans-Serif" font-size="10.00">string</text>
</g>
<!-- Node3&#45;&gt;Node4 -->
<g id="edge3" class="edge"><title>Node3&#45;&gt;Node4</title>
<path fill="none" stroke="midnightblue" d="M117.922,-112.368C117.76,-94.617 117.388,-53.6664 117.169,-29.5974"/>
<polygon fill="midnightblue" stroke="midnightblue" points="120.669,-29.5592 117.078,-19.5914 113.669,-29.6229 120.669,-29.5592"/>
</g>
<!-- Node5 -->
<g id="node5" class="node"><title>Node5</title>
<g id="a_node5"><a xlink:href="die_2core_8hpp.html" target="_top" xlink:title="tlx/die/core.hpp">
<polygon fill="none" stroke="black" points="145.5,-56.5 145.5,-75.5 228.5,-75.5 228.5,-56.5 145.5,-56.5"/>
<text text-anchor="middle" x="187" y="-63.5" font-family="Helvetica,sans-Serif" font-size="10.00">tlx/die/core.hpp</text>
</a>
</g>
</g>
<!-- Node3&#45;&gt;Node5 -->
<g id="edge4" class="edge"><title>Node3&#45;&gt;Node5</title>
<path fill="none" stroke="midnightblue" d="M129.086,-112.324C139.486,-104.185 155.261,-91.8395 167.722,-82.0874"/>
<polygon fill="midnightblue" stroke="midnightblue" points="169.994,-84.7533 175.712,-75.8339 165.68,-79.2407 169.994,-84.7533"/>
</g>
<!-- Node5&#45;&gt;Node4 -->
<g id="edge8" class="edge"><title>Node5&#45;&gt;Node4</title>
<path fill="none" stroke="midnightblue" d="M175.753,-56.324C165.203,-48.1849 149.199,-35.8395 136.558,-26.0874"/>
<polygon fill="midnightblue" stroke="midnightblue" points="138.507,-23.1707 128.451,-19.8339 134.231,-28.7132 138.507,-23.1707"/>
</g>
<!-- Node6 -->
<g id="node6" class="node"><title>Node6</title>
<polygon fill="none" stroke="#bfbfbf" points="156,-0.5 156,-19.5 202,-19.5 202,-0.5 156,-0.5"/>
<text text-anchor="middle" x="179" y="-7.5" font-family="Helvetica,sans-Serif" font-size="10.00">cstring</text>
</g>
<!-- Node5&#45;&gt;Node6 -->
<g id="edge5" class="edge"><title>Node5&#45;&gt;Node6</title>
<path fill="none" stroke="midnightblue" d="M185.679,-56.083C184.619,-48.9272 183.094,-38.6353 181.769,-29.6911"/>
<polygon fill="midnightblue" stroke="midnightblue" points="185.224,-29.1302 180.296,-19.7511 178.3,-30.1561 185.224,-29.1302"/>
</g>
<!-- Node7 -->
<g id="node7" class="node"><title>Node7</title>
<polygon fill="none" stroke="#bfbfbf" points="220,-0.5 220,-19.5 272,-19.5 272,-0.5 220,-0.5"/>
<text text-anchor="middle" x="246" y="-7.5" font-family="Helvetica,sans-Serif" font-size="10.00">sstream</text>
</g>
<!-- Node5&#45;&gt;Node7 -->
<g id="edge6" class="edge"><title>Node5&#45;&gt;Node7</title>
<path fill="none" stroke="midnightblue" d="M196.479,-56.324C205.201,-48.3414 218.343,-36.3128 228.898,-26.6529"/>
<polygon fill="midnightblue" stroke="midnightblue" points="231.334,-29.1674 236.348,-19.8339 226.608,-24.0036 231.334,-29.1674"/>
</g>
<!-- Node8 -->
<g id="node8" class="node"><title>Node8</title>
<polygon fill="none" stroke="#bfbfbf" points="290.5,-0.5 290.5,-19.5 349.5,-19.5 349.5,-0.5 290.5,-0.5"/>
<text text-anchor="middle" x="320" y="-7.5" font-family="Helvetica,sans-Serif" font-size="10.00">stdexcept</text>
</g>
<!-- Node5&#45;&gt;Node8 -->
<g id="edge7" class="edge"><title>Node5&#45;&gt;Node8</title>
<path fill="none" stroke="midnightblue" d="M208.074,-56.4435C230.06,-47.5171 264.734,-33.4387 289.664,-23.3168"/>
<polygon fill="midnightblue" stroke="midnightblue" points="291.076,-26.5213 299.024,-19.5164 288.442,-20.0355 291.076,-26.5213"/>
</g>
</g>
</svg>
