<?xml version="1.0" encoding="UTF-8" standalone="no"?>
<!DOCTYPE svg PUBLIC "-//W3C//DTD SVG 1.1//EN"
 "http://www.w3.org/Graphics/SVG/1.1/DTD/svg11.dtd">
<!-- Generated by graphviz version 2.36.0 (20140111.2315)
 -->
<!-- Title: extlib/tlx/tlx/meta/vmap_foreach_tuple_with_index.hpp Pages: 1 -->
<svg width="401pt" height="230pt"
 viewBox="0.00 0.00 401.00 230.00" xmlns="http://www.w3.org/2000/svg" xmlns:xlink="http://www.w3.org/1999/xlink">
<g id="graph0" class="graph" transform="scale(1 1) rotate(0) translate(4 226)">
<title>extlib/tlx/tlx/meta/vmap_foreach_tuple_with_index.hpp</title>
<!-- Node1 -->
<g id="node1" class="node"><title>Node1</title>
<polygon fill="#bfbfbf" stroke="black" points="118.5,-180.5 118.5,-221.5 225.5,-221.5 225.5,-180.5 118.5,-180.5"/>
<text text-anchor="start" x="126.5" y="-209.5" font-family="Helvetica,sans-Serif" font-size="10.00">extlib/tlx/tlx/meta</text>
<text text-anchor="start" x="126.5" y="-198.5" font-family="Helvetica,sans-Serif" font-size="10.00">/vmap_foreach_tuple</text>
<text text-anchor="middle" x="172" y="-187.5" font-family="Helvetica,sans-Serif" font-size="10.00">_with_index.hpp</text>
</g>
<!-- Node2 -->
<g id="node2" class="node"><title>Node2</title>
<g id="a_node2"><a xlink:href="index__sequence_8hpp.html" target="_top" xlink:title="tlx/meta/index_sequence.hpp">
<polygon fill="none" stroke="black" points="0,-118.5 0,-137.5 144,-137.5 144,-118.5 0,-118.5"/>
<text text-anchor="middle" x="72" y="-125.5" font-family="Helvetica,sans-Serif" font-size="10.00">tlx/meta/index_sequence.hpp</text>
</a>
</g>
</g>
<!-- Node1&#45;&gt;Node2 -->
<g id="edge1" class="edge"><title>Node1&#45;&gt;Node2</title>
<path fill="none" stroke="midnightblue" d="M144.41,-180.411C128.037,-168.786 107.621,-154.291 92.6451,-143.658"/>
<polygon fill="midnightblue" stroke="midnightblue" points="94.2883,-140.532 84.1082,-137.597 90.2358,-146.24 94.2883,-140.532"/>
</g>
<!-- Node4 -->
<g id="node4" class="node"><title>Node4</title>
<g id="a_node4"><a xlink:href="vmap__foreach__with__index_8hpp.html" target="_top" xlink:title="tlx/meta/vmap_foreach\l_with_index.hpp">
<polygon fill="none" stroke="black" points="200,-113 200,-143 316,-143 316,-113 200,-113"/>
<text text-anchor="start" x="208" y="-131" font-family="Helvetica,sans-Serif" font-size="10.00">tlx/meta/vmap_foreach</text>
<text text-anchor="middle" x="258" y="-120" font-family="Helvetica,sans-Serif" font-size="10.00">_with_index.hpp</text>
</a>
</g>
</g>
<!-- Node1&#45;&gt;Node4 -->
<g id="edge3" class="edge"><title>Node1&#45;&gt;Node4</title>
<path fill="none" stroke="midnightblue" d="M195.956,-180.223C207.474,-170.713 221.277,-159.318 232.936,-149.692"/>
<polygon fill="midnightblue" stroke="midnightblue" points="235.5,-152.114 240.983,-143.049 231.044,-146.716 235.5,-152.114"/>
</g>
<!-- Node5 -->
<g id="node5" class="node"><title>Node5</title>
<polygon fill="none" stroke="#bfbfbf" points="153,-56.5 153,-75.5 191,-75.5 191,-56.5 153,-56.5"/>
<text text-anchor="middle" x="172" y="-63.5" font-family="Helvetica,sans-Serif" font-size="10.00">tuple</text>
</g>
<!-- Node1&#45;&gt;Node5 -->
<g id="edge8" class="edge"><title>Node1&#45;&gt;Node5</title>
<path fill="none" stroke="midnightblue" d="M172,-180.375C172,-154.935 172,-110.871 172,-85.8273"/>
<polygon fill="midnightblue" stroke="midnightblue" points="175.5,-85.794 172,-75.794 168.5,-85.7941 175.5,-85.794"/>
</g>
<!-- Node3 -->
<g id="node3" class="node"><title>Node3</title>
<polygon fill="none" stroke="#bfbfbf" points="189.5,-0.5 189.5,-19.5 238.5,-19.5 238.5,-0.5 189.5,-0.5"/>
<text text-anchor="middle" x="214" y="-7.5" font-family="Helvetica,sans-Serif" font-size="10.00">cstddef</text>
</g>
<!-- Node2&#45;&gt;Node3 -->
<g id="edge2" class="edge"><title>Node2&#45;&gt;Node3</title>
<path fill="none" stroke="midnightblue" d="M79.8973,-118.1C92.618,-104.031 118.779,-76.1821 144,-56 158.389,-44.4854 175.819,-33.2728 189.687,-24.9203"/>
<polygon fill="midnightblue" stroke="midnightblue" points="191.812,-27.7297 198.637,-19.6261 188.248,-21.7049 191.812,-27.7297"/>
</g>
<!-- Node4&#45;&gt;Node5 -->
<g id="edge4" class="edge"><title>Node4&#45;&gt;Node5</title>
<path fill="none" stroke="midnightblue" d="M237.619,-112.781C224.01,-103.286 206.176,-90.8434 192.535,-81.3267"/>
<polygon fill="midnightblue" stroke="midnightblue" points="194.467,-78.4071 184.263,-75.5557 190.462,-84.148 194.467,-78.4071"/>
</g>
<!-- Node6 -->
<g id="node6" class="node"><title>Node6</title>
<polygon fill="none" stroke="#bfbfbf" points="209,-56.5 209,-75.5 249,-75.5 249,-56.5 209,-56.5"/>
<text text-anchor="middle" x="229" y="-63.5" font-family="Helvetica,sans-Serif" font-size="10.00">utility</text>
</g>
<!-- Node4&#45;&gt;Node6 -->
<g id="edge5" class="edge"><title>Node4&#45;&gt;Node6</title>
<path fill="none" stroke="midnightblue" d="M251.127,-112.781C247.087,-104.422 241.942,-93.7773 237.631,-84.8565"/>
<polygon fill="midnightblue" stroke="midnightblue" points="240.723,-83.2109 233.22,-75.7305 234.42,-86.2571 240.723,-83.2109"/>
</g>
<!-- Node7 -->
<g id="node7" class="node"><title>Node7</title>
<g id="a_node7"><a xlink:href="static__index_8hpp.html" target="_top" xlink:title="tlx/meta/static_index.hpp">
<polygon fill="none" stroke="black" points="267,-56.5 267,-75.5 393,-75.5 393,-56.5 267,-56.5"/>
<text text-anchor="middle" x="330" y="-63.5" font-family="Helvetica,sans-Serif" font-size="10.00">tlx/meta/static_index.hpp</text>
</a>
</g>
</g>
<!-- Node4&#45;&gt;Node7 -->
<g id="edge6" class="edge"><title>Node4&#45;&gt;Node7</title>
<path fill="none" stroke="midnightblue" d="M275.063,-112.781C286.065,-103.613 300.365,-91.6957 311.618,-82.3186"/>
<polygon fill="midnightblue" stroke="midnightblue" points="314.082,-84.8212 319.523,-75.7305 309.6,-79.4436 314.082,-84.8212"/>
</g>
<!-- Node7&#45;&gt;Node3 -->
<g id="edge7" class="edge"><title>Node7&#45;&gt;Node3</title>
<path fill="none" stroke="midnightblue" d="M311.619,-56.4435C292.784,-47.6751 263.269,-33.9355 241.621,-23.8579"/>
<polygon fill="midnightblue" stroke="midnightblue" points="242.838,-20.5637 232.295,-19.5164 239.883,-26.9098 242.838,-20.5637"/>
</g>
</g>
</svg>
