<?xml version="1.0" encoding="UTF-8" standalone="no"?>
<!DOCTYPE svg PUBLIC "-//W3C//DTD SVG 1.1//EN"
 "http://www.w3.org/Graphics/SVG/1.1/DTD/svg11.dtd">
<!-- Generated by graphviz version 2.36.0 (20140111.2315)
 -->
<!-- Title: extlib/tlx/tlx/meta/vmap_for_range.hpp Pages: 1 -->
<svg width="248pt" height="152pt"
 viewBox="0.00 0.00 248.00 152.00" xmlns="http://www.w3.org/2000/svg" xmlns:xlink="http://www.w3.org/1999/xlink">
<g id="graph0" class="graph" transform="scale(1 1) rotate(0) translate(4 148)">
<title>extlib/tlx/tlx/meta/vmap_for_range.hpp</title>
<!-- Node1 -->
<g id="node1" class="node"><title>Node1</title>
<polygon fill="#bfbfbf" stroke="black" points="22,-113 22,-143 130,-143 130,-113 22,-113"/>
<text text-anchor="start" x="30" y="-131" font-family="Helvetica,sans-Serif" font-size="10.00">extlib/tlx/tlx/meta</text>
<text text-anchor="middle" x="76" y="-120" font-family="Helvetica,sans-Serif" font-size="10.00">/vmap_for_range.hpp</text>
</g>
<!-- Node2 -->
<g id="node2" class="node"><title>Node2</title>
<polygon fill="none" stroke="#bfbfbf" points="0,-56.5 0,-75.5 38,-75.5 38,-56.5 0,-56.5"/>
<text text-anchor="middle" x="19" y="-63.5" font-family="Helvetica,sans-Serif" font-size="10.00">tuple</text>
</g>
<!-- Node1&#45;&gt;Node2 -->
<g id="edge1" class="edge"><title>Node1&#45;&gt;Node2</title>
<path fill="none" stroke="midnightblue" d="M62.4918,-112.781C54.0382,-103.882 43.1246,-92.3943 34.3448,-83.1524"/>
<polygon fill="midnightblue" stroke="midnightblue" points="36.719,-80.5699 27.294,-75.7305 31.644,-85.3912 36.719,-80.5699"/>
</g>
<!-- Node3 -->
<g id="node3" class="node"><title>Node3</title>
<polygon fill="none" stroke="#bfbfbf" points="56,-56.5 56,-75.5 96,-75.5 96,-56.5 56,-56.5"/>
<text text-anchor="middle" x="76" y="-63.5" font-family="Helvetica,sans-Serif" font-size="10.00">utility</text>
</g>
<!-- Node1&#45;&gt;Node3 -->
<g id="edge2" class="edge"><title>Node1&#45;&gt;Node3</title>
<path fill="none" stroke="midnightblue" d="M76,-112.781C76,-104.781 76,-94.6887 76,-86.0168"/>
<polygon fill="midnightblue" stroke="midnightblue" points="79.5001,-85.7305 76,-75.7305 72.5001,-85.7306 79.5001,-85.7305"/>
</g>
<!-- Node4 -->
<g id="node4" class="node"><title>Node4</title>
<g id="a_node4"><a xlink:href="static__index_8hpp.html" target="_top" xlink:title="tlx/meta/static_index.hpp">
<polygon fill="none" stroke="black" points="114,-56.5 114,-75.5 240,-75.5 240,-56.5 114,-56.5"/>
<text text-anchor="middle" x="177" y="-63.5" font-family="Helvetica,sans-Serif" font-size="10.00">tlx/meta/static_index.hpp</text>
</a>
</g>
</g>
<!-- Node1&#45;&gt;Node4 -->
<g id="edge3" class="edge"><title>Node1&#45;&gt;Node4</title>
<path fill="none" stroke="midnightblue" d="M99.68,-112.933C115.959,-103.262 137.477,-90.4793 153.678,-80.8546"/>
<polygon fill="midnightblue" stroke="midnightblue" points="155.713,-83.7165 162.523,-75.6 152.138,-77.6983 155.713,-83.7165"/>
</g>
<!-- Node5 -->
<g id="node5" class="node"><title>Node5</title>
<polygon fill="none" stroke="#bfbfbf" points="152.5,-0.5 152.5,-19.5 201.5,-19.5 201.5,-0.5 152.5,-0.5"/>
<text text-anchor="middle" x="177" y="-7.5" font-family="Helvetica,sans-Serif" font-size="10.00">cstddef</text>
</g>
<!-- Node4&#45;&gt;Node5 -->
<g id="edge4" class="edge"><title>Node4&#45;&gt;Node5</title>
<path fill="none" stroke="midnightblue" d="M177,-56.083C177,-49.0059 177,-38.8611 177,-29.9865"/>
<polygon fill="midnightblue" stroke="midnightblue" points="180.5,-29.751 177,-19.7511 173.5,-29.7511 180.5,-29.751"/>
</g>
</g>
</svg>
