<?xml version="1.0" encoding="UTF-8" standalone="no"?>
<!DOCTYPE svg PUBLIC "-//W3C//DTD SVG 1.1//EN"
 "http://www.w3.org/Graphics/SVG/1.1/DTD/svg11.dtd">
<!-- Generated by graphviz version 2.40.1 (20161225.0304)
 -->
<!-- Title: extlib/tlx/tlx/meta/vmap_for_range.hpp Pages: 1 -->
<svg width="271pt" height="151pt"
 viewBox="0.00 0.00 271.00 151.00" xmlns="http://www.w3.org/2000/svg" xmlns:xlink="http://www.w3.org/1999/xlink">
<g id="graph0" class="graph" transform="scale(1 1) rotate(0) translate(4 147)">
<title>extlib/tlx/tlx/meta/vmap_for_range.hpp</title>
<!-- Node0 -->
<g id="node1" class="node">
<title>Node0</title>
<polygon fill="#bfbfbf" stroke="#000000" points="21.5,-112.5 21.5,-142.5 141.5,-142.5 141.5,-112.5 21.5,-112.5"/>
<text text-anchor="start" x="29.5" y="-130.5" font-family="Helvetica,sans-Serif" font-size="10.00" fill="#000000">extlib/tlx/tlx/meta</text>
<text text-anchor="middle" x="81.5" y="-119.5" font-family="Helvetica,sans-Serif" font-size="10.00" fill="#000000">/vmap_for_range.hpp</text>
</g>
<!-- Node1 -->
<g id="node2" class="node">
<title>Node1</title>
<polygon fill="none" stroke="#bfbfbf" points="0,-56.5 0,-75.5 41,-75.5 41,-56.5 0,-56.5"/>
<text text-anchor="middle" x="20.5" y="-63.5" font-family="Helvetica,sans-Serif" font-size="10.00" fill="#000000">tuple</text>
</g>
<!-- Node0&#45;&gt;Node1 -->
<g id="edge1" class="edge">
<title>Node0&#45;&gt;Node1</title>
<path fill="none" stroke="#191970" d="M66.4213,-112.2977C57.6011,-103.4052 46.4459,-92.1586 37.3388,-82.9769"/>
<polygon fill="#191970" stroke="#191970" points="39.794,-80.4821 30.2669,-75.8469 34.8241,-85.4116 39.794,-80.4821"/>
</g>
<!-- Node2 -->
<g id="node3" class="node">
<title>Node2</title>
<polygon fill="none" stroke="#bfbfbf" points="59,-56.5 59,-75.5 104,-75.5 104,-56.5 59,-56.5"/>
<text text-anchor="middle" x="81.5" y="-63.5" font-family="Helvetica,sans-Serif" font-size="10.00" fill="#000000">utility</text>
</g>
<!-- Node0&#45;&gt;Node2 -->
<g id="edge2" class="edge">
<title>Node0&#45;&gt;Node2</title>
<path fill="none" stroke="#191970" d="M81.5,-112.2977C81.5,-104.3834 81.5,-94.6043 81.5,-86.0759"/>
<polygon fill="#191970" stroke="#191970" points="85.0001,-85.8469 81.5,-75.8469 78.0001,-85.847 85.0001,-85.8469"/>
</g>
<!-- Node3 -->
<g id="node4" class="node">
<title>Node3</title>
<g id="a_node4"><a xlink:href="static__index_8hpp.html" target="_top" xlink:title="tlx/meta/static_index.hpp">
<polygon fill="none" stroke="#000000" points="122,-56.5 122,-75.5 263,-75.5 263,-56.5 122,-56.5"/>
<text text-anchor="middle" x="192.5" y="-63.5" font-family="Helvetica,sans-Serif" font-size="10.00" fill="#000000">tlx/meta/static_index.hpp</text>
</a>
</g>
</g>
<!-- Node0&#45;&gt;Node3 -->
<g id="edge3" class="edge">
<title>Node0&#45;&gt;Node3</title>
<path fill="none" stroke="#191970" d="M108.6537,-112.4554C126.1995,-102.734 148.9122,-90.15 166.2721,-80.5317"/>
<polygon fill="#191970" stroke="#191970" points="168.248,-83.4383 175.2989,-75.5303 164.8555,-77.3153 168.248,-83.4383"/>
</g>
<!-- Node4 -->
<g id="node5" class="node">
<title>Node4</title>
<polygon fill="none" stroke="#bfbfbf" points="166,-.5 166,-19.5 219,-19.5 219,-.5 166,-.5"/>
<text text-anchor="middle" x="192.5" y="-7.5" font-family="Helvetica,sans-Serif" font-size="10.00" fill="#000000">cstddef</text>
</g>
<!-- Node3&#45;&gt;Node4 -->
<g id="edge4" class="edge">
<title>Node3&#45;&gt;Node4</title>
<path fill="none" stroke="#191970" d="M192.5,-56.2455C192.5,-48.9382 192.5,-38.6944 192.5,-29.7046"/>
<polygon fill="#191970" stroke="#191970" points="196.0001,-29.6426 192.5,-19.6427 189.0001,-29.6427 196.0001,-29.6426"/>
</g>
</g>
</svg>
