<?xml version="1.0" encoding="UTF-8" standalone="no"?>
<!DOCTYPE svg PUBLIC "-//W3C//DTD SVG 1.1//EN"
 "http://www.w3.org/Graphics/SVG/1.1/DTD/svg11.dtd">
<!-- Generated by graphviz version 2.36.0 (20140111.2315)
 -->
<!-- Title: extlib/foxxll/foxxll/io/wincall_file.cpp Pages: 1 -->
<svg width="126pt" height="152pt"
 viewBox="0.00 0.00 126.00 152.00" xmlns="http://www.w3.org/2000/svg" xmlns:xlink="http://www.w3.org/1999/xlink">
<g id="graph0" class="graph" transform="scale(1 1) rotate(0) translate(4 148)">
<title>extlib/foxxll/foxxll/io/wincall_file.cpp</title>
<!-- Node1 -->
<g id="node1" class="node"><title>Node1</title>
<polygon fill="#bfbfbf" stroke="black" points="10.5,-113 10.5,-143 107.5,-143 107.5,-113 10.5,-113"/>
<text text-anchor="start" x="18.5" y="-131" font-family="Helvetica,sans-Serif" font-size="10.00">extlib/foxxll/foxxll</text>
<text text-anchor="middle" x="59" y="-120" font-family="Helvetica,sans-Serif" font-size="10.00">/io/wincall_file.cpp</text>
</g>
<!-- Node2 -->
<g id="node2" class="node"><title>Node2</title>
<g id="a_node2"><a xlink:href="wincall__file_8hpp.html" target="_top" xlink:title="foxxll/io/wincall_file.hpp">
<polygon fill="none" stroke="black" points="-1,-56.5 -1,-75.5 119,-75.5 119,-56.5 -1,-56.5"/>
<text text-anchor="middle" x="59" y="-63.5" font-family="Helvetica,sans-Serif" font-size="10.00">foxxll/io/wincall_file.hpp</text>
</a>
</g>
</g>
<!-- Node1&#45;&gt;Node2 -->
<g id="edge1" class="edge"><title>Node1&#45;&gt;Node2</title>
<path fill="none" stroke="midnightblue" d="M59,-112.781C59,-104.781 59,-94.6887 59,-86.0168"/>
<polygon fill="midnightblue" stroke="midnightblue" points="62.5001,-85.7305 59,-75.7305 55.5001,-85.7306 62.5001,-85.7305"/>
</g>
<!-- Node3 -->
<g id="node3" class="node"><title>Node3</title>
<polygon fill="none" stroke="#bfbfbf" points="15,-0.5 15,-19.5 103,-19.5 103,-0.5 15,-0.5"/>
<text text-anchor="middle" x="59" y="-7.5" font-family="Helvetica,sans-Serif" font-size="10.00">foxxll/config.hpp</text>
</g>
<!-- Node2&#45;&gt;Node3 -->
<g id="edge2" class="edge"><title>Node2&#45;&gt;Node3</title>
<path fill="none" stroke="midnightblue" d="M59,-56.083C59,-49.0059 59,-38.8611 59,-29.9865"/>
<polygon fill="midnightblue" stroke="midnightblue" points="62.5001,-29.751 59,-19.7511 55.5001,-29.7511 62.5001,-29.751"/>
</g>
</g>
</svg>
