<?xml version="1.0" encoding="UTF-8" standalone="no"?>
<!DOCTYPE svg PUBLIC "-//W3C//DTD SVG 1.1//EN"
 "http://www.w3.org/Graphics/SVG/1.1/DTD/svg11.dtd">
<!-- Generated by graphviz version 2.40.1 (20161225.0304)
 -->
<!-- Title: extlib/tlx/tlx/string/word_wrap.cpp Pages: 1 -->
<svg width="212pt" height="151pt"
 viewBox="0.00 0.00 212.00 151.00" xmlns="http://www.w3.org/2000/svg" xmlns:xlink="http://www.w3.org/1999/xlink">
<g id="graph0" class="graph" transform="scale(1 1) rotate(0) translate(4 147)">
<title>extlib/tlx/tlx/string/word_wrap.cpp</title>
<!-- Node0 -->
<g id="node1" class="node">
<title>Node0</title>
<polygon fill="#bfbfbf" stroke="#000000" points="70,-112.5 70,-142.5 177,-142.5 177,-112.5 70,-112.5"/>
<text text-anchor="start" x="78" y="-130.5" font-family="Helvetica,sans-Serif" font-size="10.00" fill="#000000">extlib/tlx/tlx/string</text>
<text text-anchor="middle" x="123.5" y="-119.5" font-family="Helvetica,sans-Serif" font-size="10.00" fill="#000000">/word_wrap.cpp</text>
</g>
<!-- Node1 -->
<g id="node2" class="node">
<title>Node1</title>
<g id="a_node2"><a xlink:href="word__wrap_8hpp.html" target="_top" xlink:title="tlx/string/word_wrap.hpp">
<polygon fill="none" stroke="#000000" points="0,-56.5 0,-75.5 137,-75.5 137,-56.5 0,-56.5"/>
<text text-anchor="middle" x="68.5" y="-63.5" font-family="Helvetica,sans-Serif" font-size="10.00" fill="#000000">tlx/string/word_wrap.hpp</text>
</a>
</g>
</g>
<!-- Node0&#45;&gt;Node1 -->
<g id="edge1" class="edge">
<title>Node0&#45;&gt;Node1</title>
<path fill="none" stroke="#191970" d="M109.9045,-112.2977C102.1109,-103.5831 92.2953,-92.6075 84.1774,-83.5302"/>
<polygon fill="#191970" stroke="#191970" points="86.5813,-80.9678 77.3062,-75.8469 81.3635,-85.6341 86.5813,-80.9678"/>
</g>
<!-- Node3 -->
<g id="node4" class="node">
<title>Node3</title>
<polygon fill="none" stroke="#bfbfbf" points="155,-56.5 155,-75.5 204,-75.5 204,-56.5 155,-56.5"/>
<text text-anchor="middle" x="179.5" y="-63.5" font-family="Helvetica,sans-Serif" font-size="10.00" fill="#000000">cctype</text>
</g>
<!-- Node0&#45;&gt;Node3 -->
<g id="edge3" class="edge">
<title>Node0&#45;&gt;Node3</title>
<path fill="none" stroke="#191970" d="M137.3427,-112.2977C145.359,-103.4941 155.4762,-92.3833 163.79,-83.2529"/>
<polygon fill="#191970" stroke="#191970" points="166.3888,-85.5974 170.5337,-75.8469 161.2131,-80.8845 166.3888,-85.5974"/>
</g>
<!-- Node2 -->
<g id="node3" class="node">
<title>Node2</title>
<polygon fill="none" stroke="#bfbfbf" points="46.5,-.5 46.5,-19.5 90.5,-19.5 90.5,-.5 46.5,-.5"/>
<text text-anchor="middle" x="68.5" y="-7.5" font-family="Helvetica,sans-Serif" font-size="10.00" fill="#000000">string</text>
</g>
<!-- Node1&#45;&gt;Node2 -->
<g id="edge2" class="edge">
<title>Node1&#45;&gt;Node2</title>
<path fill="none" stroke="#191970" d="M68.5,-56.2455C68.5,-48.9382 68.5,-38.6944 68.5,-29.7046"/>
<polygon fill="#191970" stroke="#191970" points="72.0001,-29.6426 68.5,-19.6427 65.0001,-29.6427 72.0001,-29.6426"/>
</g>
</g>
</svg>
