<?xml version="1.0" encoding="UTF-8" standalone="no"?>
<!DOCTYPE svg PUBLIC "-//W3C//DTD SVG 1.1//EN"
 "http://www.w3.org/Graphics/SVG/1.1/DTD/svg11.dtd">
<!-- Generated by graphviz version 2.26.3 (20100126.1600)
 -->
<!-- Title: thrill/api/zip_window.hpp Pages: 1 -->
<svg width="358pt" height="102pt"
 viewBox="0.00 0.00 358.00 102.00" xmlns="http://www.w3.org/2000/svg" xmlns:xlink="http://www.w3.org/1999/xlink">
<g id="graph1" class="graph" transform="scale(1 1) rotate(0) translate(4 98)">
<title>thrill/api/zip_window.hpp</title>
<!-- Node1 -->
<g id="node1" class="node"><title>Node1</title>
<polygon fill="#bfbfbf" stroke="black" points="90.5,-72.5 90.5,-93.5 213.5,-93.5 213.5,-72.5 90.5,-72.5"/>
<text text-anchor="middle" x="152" y="-80.5" font-family="Helvetica,sans-Serif" font-size="10.00">thrill/api/zip_window.hpp</text>
</g>
<!-- Node2 -->
<g id="node3" class="node"><title>Node2</title>
<a xlink:href="thrill_8hpp.html" target="_top" xlink:title="thrill/thrill.hpp">
<polygon fill="none" stroke="black" points="0,-7.5 0,-28.5 74,-28.5 74,-7.5 0,-7.5"/>
<text text-anchor="middle" x="37" y="-15.5" font-family="Helvetica,sans-Serif" font-size="10.00">thrill/thrill.hpp</text>
</a>
</g>
<!-- Node1&#45;&gt;Node2 -->
<g id="edge2" class="edge"><title>Node1&#45;&gt;Node2</title>
<path fill="none" stroke="midnightblue" d="M124.387,-67.3927C103.139,-55.383 74.3501,-39.1109 55.7247,-28.5835"/>
<polygon fill="midnightblue" stroke="midnightblue" points="122.839,-70.5383 133.267,-72.412 126.284,-64.4444 122.839,-70.5383"/>
</g>
<!-- Node3 -->
<g id="node5" class="node"><title>Node3</title>
<a xlink:href="dc3_8cpp.html" target="_top" xlink:title="examples/suffix_sorting\l/dc3.cpp">
<polygon fill="none" stroke="black" points="92,-1 92,-35 212,-35 212,-1 92,-1"/>
<text text-anchor="start" x="100" y="-22" font-family="Helvetica,sans-Serif" font-size="10.00">examples/suffix_sorting</text>
<text text-anchor="middle" x="152" y="-9" font-family="Helvetica,sans-Serif" font-size="10.00">/dc3.cpp</text>
</a>
</g>
<!-- Node1&#45;&gt;Node3 -->
<g id="edge4" class="edge"><title>Node1&#45;&gt;Node3</title>
<path fill="none" stroke="midnightblue" d="M152,-62.1306C152,-53.4049 152,-43.3908 152,-35.1099"/>
<polygon fill="midnightblue" stroke="midnightblue" points="148.5,-62.2665 152,-72.2666 155.5,-62.2666 148.5,-62.2665"/>
</g>
<!-- Node4 -->
<g id="node7" class="node"><title>Node4</title>
<a xlink:href="dc7_8cpp.html" target="_top" xlink:title="examples/suffix_sorting\l/dc7.cpp">
<polygon fill="none" stroke="black" points="230,-1 230,-35 350,-35 350,-1 230,-1"/>
<text text-anchor="start" x="238" y="-22" font-family="Helvetica,sans-Serif" font-size="10.00">examples/suffix_sorting</text>
<text text-anchor="middle" x="290" y="-9" font-family="Helvetica,sans-Serif" font-size="10.00">/dc7.cpp</text>
</a>
</g>
<!-- Node1&#45;&gt;Node4 -->
<g id="edge6" class="edge"><title>Node1&#45;&gt;Node4</title>
<path fill="none" stroke="midnightblue" d="M183.581,-68.1249C204.493,-58.2749 231.98,-45.3284 253.779,-35.0604"/>
<polygon fill="midnightblue" stroke="midnightblue" points="182.035,-64.9844 174.479,-72.412 185.017,-71.3171 182.035,-64.9844"/>
</g>
</g>
</svg>
