<?xml version="1.0" encoding="UTF-8" standalone="no"?>
<!DOCTYPE svg PUBLIC "-//W3C//DTD SVG 1.1//EN"
 "http://www.w3.org/Graphics/SVG/1.1/DTD/svg11.dtd">
<!-- Generated by graphviz version 2.36.0 (20140111.2315)
 -->
<!-- Title: thrill/api/zip_with_index.hpp Pages: 1 -->
<svg width="888pt" height="176pt"
 viewBox="0.00 0.00 888.00 176.00" xmlns="http://www.w3.org/2000/svg" xmlns:xlink="http://www.w3.org/1999/xlink">
<g id="graph0" class="graph" transform="scale(1 1) rotate(0) translate(4 172)">
<title>thrill/api/zip_with_index.hpp</title>
<!-- Node1 -->
<g id="node1" class="node"><title>Node1</title>
<polygon fill="#bfbfbf" stroke="black" points="361.5,-137 361.5,-167 450.5,-167 450.5,-137 361.5,-137"/>
<text text-anchor="start" x="369.5" y="-155" font-family="Helvetica,sans-Serif" font-size="10.00">thrill/api/zip_with</text>
<text text-anchor="middle" x="406" y="-144" font-family="Helvetica,sans-Serif" font-size="10.00">_index.hpp</text>
</g>
<!-- Node2 -->
<g id="node2" class="node"><title>Node2</title>
<g id="a_node2"><a xlink:href="thrill_8hpp.html" target="_top" xlink:title="thrill/thrill.hpp">
<polygon fill="none" stroke="black" points="0,-74.5 0,-93.5 74,-93.5 74,-74.5 0,-74.5"/>
<text text-anchor="middle" x="37" y="-81.5" font-family="Helvetica,sans-Serif" font-size="10.00">thrill/thrill.hpp</text>
</a>
</g>
</g>
<!-- Node1&#45;&gt;Node2 -->
<g id="edge1" class="edge"><title>Node1&#45;&gt;Node2</title>
<path fill="none" stroke="midnightblue" d="M351.446,-145.065C286.808,-137.419 176.133,-122.388 83,-100 75.6494,-98.233 67.7818,-95.8545 60.6692,-93.5129"/>
<polygon fill="midnightblue" stroke="midnightblue" points="351.077,-148.546 361.416,-146.229 351.889,-141.593 351.077,-148.546"/>
</g>
<!-- Node3 -->
<g id="node3" class="node"><title>Node3</title>
<g id="a_node3"><a xlink:href="bfs_8cpp.html" target="_top" xlink:title="examples/bfs/bfs.cpp">
<polygon fill="none" stroke="black" points="92,-74.5 92,-93.5 202,-93.5 202,-74.5 92,-74.5"/>
<text text-anchor="middle" x="147" y="-81.5" font-family="Helvetica,sans-Serif" font-size="10.00">examples/bfs/bfs.cpp</text>
</a>
</g>
</g>
<!-- Node1&#45;&gt;Node3 -->
<g id="edge2" class="edge"><title>Node1&#45;&gt;Node3</title>
<path fill="none" stroke="midnightblue" d="M351.492,-137.11C299.87,-123.955 223.989,-104.619 180.649,-93.5747"/>
<polygon fill="midnightblue" stroke="midnightblue" points="350.922,-140.576 361.476,-139.654 352.65,-133.793 350.922,-140.576"/>
</g>
<!-- Node4 -->
<g id="node4" class="node"><title>Node4</title>
<g id="a_node4"><a xlink:href="page__rank__run_8cpp.html" target="_top" xlink:title="examples/page_rank\l/page_rank_run.cpp">
<polygon fill="none" stroke="black" points="220.5,-69 220.5,-99 327.5,-99 327.5,-69 220.5,-69"/>
<text text-anchor="start" x="228.5" y="-87" font-family="Helvetica,sans-Serif" font-size="10.00">examples/page_rank</text>
<text text-anchor="middle" x="274" y="-76" font-family="Helvetica,sans-Serif" font-size="10.00">/page_rank_run.cpp</text>
</a>
</g>
</g>
<!-- Node1&#45;&gt;Node4 -->
<g id="edge3" class="edge"><title>Node1&#45;&gt;Node4</title>
<path fill="none" stroke="midnightblue" d="M368.678,-132.339C347.593,-121.796 321.661,-108.83 302.27,-99.1352"/>
<polygon fill="midnightblue" stroke="midnightblue" points="367.173,-135.5 377.683,-136.841 370.304,-129.239 367.173,-135.5"/>
</g>
<!-- Node5 -->
<g id="node5" class="node"><title>Node5</title>
<g id="a_node5"><a xlink:href="construct__bwt_8hpp.html" target="_top" xlink:title="examples/suffix_sorting\l/construct_bwt.hpp">
<polygon fill="none" stroke="black" points="346,-69 346,-99 466,-99 466,-69 346,-69"/>
<text text-anchor="start" x="354" y="-87" font-family="Helvetica,sans-Serif" font-size="10.00">examples/suffix_sorting</text>
<text text-anchor="middle" x="406" y="-76" font-family="Helvetica,sans-Serif" font-size="10.00">/construct_bwt.hpp</text>
</a>
</g>
</g>
<!-- Node1&#45;&gt;Node5 -->
<g id="edge4" class="edge"><title>Node1&#45;&gt;Node5</title>
<path fill="none" stroke="midnightblue" d="M406,-126.532C406,-117.361 406,-107.245 406,-99.2931"/>
<polygon fill="midnightblue" stroke="midnightblue" points="402.5,-126.679 406,-136.679 409.5,-126.679 402.5,-126.679"/>
</g>
<!-- Node7 -->
<g id="node7" class="node"><title>Node7</title>
<g id="a_node7"><a xlink:href="construct__lcp_8hpp.html" target="_top" xlink:title="examples/suffix_sorting\l/construct_lcp.hpp">
<polygon fill="none" stroke="black" points="484,-69 484,-99 604,-99 604,-69 484,-69"/>
<text text-anchor="start" x="492" y="-87" font-family="Helvetica,sans-Serif" font-size="10.00">examples/suffix_sorting</text>
<text text-anchor="middle" x="544" y="-76" font-family="Helvetica,sans-Serif" font-size="10.00">/construct_lcp.hpp</text>
</a>
</g>
</g>
<!-- Node1&#45;&gt;Node7 -->
<g id="edge6" class="edge"><title>Node1&#45;&gt;Node7</title>
<path fill="none" stroke="midnightblue" d="M444.723,-132.48C466.819,-121.913 494.082,-108.874 514.444,-99.1352"/>
<polygon fill="midnightblue" stroke="midnightblue" points="443.116,-129.369 435.604,-136.841 446.136,-135.684 443.116,-129.369"/>
</g>
<!-- Node8 -->
<g id="node8" class="node"><title>Node8</title>
<g id="a_node8"><a xlink:href="dc3_8cpp.html" target="_top" xlink:title="examples/suffix_sorting\l/dc3.cpp">
<polygon fill="none" stroke="black" points="622,-69 622,-99 742,-99 742,-69 622,-69"/>
<text text-anchor="start" x="630" y="-87" font-family="Helvetica,sans-Serif" font-size="10.00">examples/suffix_sorting</text>
<text text-anchor="middle" x="682" y="-76" font-family="Helvetica,sans-Serif" font-size="10.00">/dc3.cpp</text>
</a>
</g>
</g>
<!-- Node1&#45;&gt;Node8 -->
<g id="edge8" class="edge"><title>Node1&#45;&gt;Node8</title>
<path fill="none" stroke="midnightblue" d="M460.636,-137.935C507.579,-126.709 575.106,-110.562 623.213,-99.0577"/>
<polygon fill="midnightblue" stroke="midnightblue" points="459.563,-134.593 450.651,-140.323 461.191,-141.401 459.563,-134.593"/>
</g>
<!-- Node9 -->
<g id="node9" class="node"><title>Node9</title>
<g id="a_node9"><a xlink:href="dc7_8cpp.html" target="_top" xlink:title="examples/suffix_sorting\l/dc7.cpp">
<polygon fill="none" stroke="black" points="760,-69 760,-99 880,-99 880,-69 760,-69"/>
<text text-anchor="start" x="768" y="-87" font-family="Helvetica,sans-Serif" font-size="10.00">examples/suffix_sorting</text>
<text text-anchor="middle" x="820" y="-76" font-family="Helvetica,sans-Serif" font-size="10.00">/dc7.cpp</text>
</a>
</g>
</g>
<!-- Node1&#45;&gt;Node9 -->
<g id="edge9" class="edge"><title>Node1&#45;&gt;Node9</title>
<path fill="none" stroke="midnightblue" d="M460.738,-143.984C528.757,-135.012 648.286,-118.418 750,-100 753.18,-99.4242 756.436,-98.8107 759.719,-98.1729"/>
<polygon fill="midnightblue" stroke="midnightblue" points="460.139,-140.532 450.679,-145.304 461.05,-147.473 460.139,-140.532"/>
</g>
<!-- Node6 -->
<g id="node6" class="node"><title>Node6</title>
<g id="a_node6"><a xlink:href="suffix__sorting_8cpp.html" target="_top" xlink:title="examples/suffix_sorting\l/suffix_sorting.cpp">
<polygon fill="none" stroke="black" points="415,-1 415,-31 535,-31 535,-1 415,-1"/>
<text text-anchor="start" x="423" y="-19" font-family="Helvetica,sans-Serif" font-size="10.00">examples/suffix_sorting</text>
<text text-anchor="middle" x="475" y="-8" font-family="Helvetica,sans-Serif" font-size="10.00">/suffix_sorting.cpp</text>
</a>
</g>
</g>
<!-- Node5&#45;&gt;Node6 -->
<g id="edge5" class="edge"><title>Node5&#45;&gt;Node6</title>
<path fill="none" stroke="midnightblue" d="M428.492,-61.4855C438.843,-51.5852 450.84,-40.1092 460.057,-31.2931"/>
<polygon fill="midnightblue" stroke="midnightblue" points="425.779,-59.2375 420.972,-68.679 430.618,-64.296 425.779,-59.2375"/>
</g>
<!-- Node7&#45;&gt;Node6 -->
<g id="edge7" class="edge"><title>Node7&#45;&gt;Node6</title>
<path fill="none" stroke="midnightblue" d="M521.508,-61.4855C511.157,-51.5852 499.16,-40.1092 489.943,-31.2931"/>
<polygon fill="midnightblue" stroke="midnightblue" points="519.382,-64.296 529.028,-68.679 524.221,-59.2375 519.382,-64.296"/>
</g>
</g>
</svg>
