<?xml version="1.0" encoding="UTF-8" standalone="no"?>
<!DOCTYPE svg PUBLIC "-//W3C//DTD SVG 1.1//EN"
 "http://www.w3.org/Graphics/SVG/1.1/DTD/svg11.dtd">
<!-- Generated by graphviz version 2.40.1 (20161225.0304)
 -->
<!-- Title: thrill/api/zip_window.hpp Pages: 1 -->
<svg width="398pt" height="95pt"
 viewBox="0.00 0.00 398.00 95.00" xmlns="http://www.w3.org/2000/svg" xmlns:xlink="http://www.w3.org/1999/xlink">
<g id="graph0" class="graph" transform="scale(1 1) rotate(0) translate(4 91)">
<title>thrill/api/zip_window.hpp</title>
<!-- Node205 -->
<g id="node1" class="node">
<title>Node205</title>
<polygon fill="#bfbfbf" stroke="#000000" points="102.5,-67.5 102.5,-86.5 239.5,-86.5 239.5,-67.5 102.5,-67.5"/>
<text text-anchor="middle" x="171" y="-74.5" font-family="Helvetica,sans-Serif" font-size="10.00" fill="#000000">thrill/api/zip_window.hpp</text>
</g>
<!-- Node206 -->
<g id="node2" class="node">
<title>Node206</title>
<g id="a_node2"><a xlink:href="thrill_8hpp.html" target="_top" xlink:title="thrill/thrill.hpp">
<polygon fill="none" stroke="#000000" points="0,-6 0,-25 86,-25 86,-6 0,-6"/>
<text text-anchor="middle" x="43" y="-13" font-family="Helvetica,sans-Serif" font-size="10.00" fill="#000000">thrill/thrill.hpp</text>
</a>
</g>
</g>
<!-- Node205&#45;&gt;Node206 -->
<g id="edge1" class="edge">
<title>Node205&#45;&gt;Node206</title>
<path fill="none" stroke="#191970" d="M141.9361,-63.0357C117.7739,-51.4265 84.033,-35.2151 62.8596,-25.0419"/>
<polygon fill="#191970" stroke="#191970" points="140.4706,-66.2146 151,-67.3906 143.5022,-59.9051 140.4706,-66.2146"/>
</g>
<!-- Node207 -->
<g id="node3" class="node">
<title>Node207</title>
<g id="a_node3"><a xlink:href="dc3_8cpp.html" target="_top" xlink:title="examples/suffix_sorting\l/dc3.cpp">
<polygon fill="none" stroke="#000000" points="104,-.5 104,-30.5 238,-30.5 238,-.5 104,-.5"/>
<text text-anchor="start" x="112" y="-18.5" font-family="Helvetica,sans-Serif" font-size="10.00" fill="#000000">examples/suffix_sorting</text>
<text text-anchor="middle" x="171" y="-7.5" font-family="Helvetica,sans-Serif" font-size="10.00" fill="#000000">/dc3.cpp</text>
</a>
</g>
</g>
<!-- Node205&#45;&gt;Node207 -->
<g id="edge2" class="edge">
<title>Node205&#45;&gt;Node207</title>
<path fill="none" stroke="#191970" d="M171,-57.3693C171,-48.681 171,-38.6241 171,-30.5446"/>
<polygon fill="#191970" stroke="#191970" points="167.5001,-57.3906 171,-67.3906 174.5001,-57.3907 167.5001,-57.3906"/>
</g>
<!-- Node208 -->
<g id="node4" class="node">
<title>Node208</title>
<g id="a_node4"><a xlink:href="dc7_8cpp.html" target="_top" xlink:title="examples/suffix_sorting\l/dc7.cpp">
<polygon fill="none" stroke="#000000" points="256,-.5 256,-30.5 390,-30.5 390,-.5 256,-.5"/>
<text text-anchor="start" x="264" y="-18.5" font-family="Helvetica,sans-Serif" font-size="10.00" fill="#000000">examples/suffix_sorting</text>
<text text-anchor="middle" x="323" y="-7.5" font-family="Helvetica,sans-Serif" font-size="10.00" fill="#000000">/dc7.cpp</text>
</a>
</g>
</g>
<!-- Node205&#45;&gt;Node208 -->
<g id="edge3" class="edge">
<title>Node205&#45;&gt;Node208</title>
<path fill="none" stroke="#191970" d="M204.1765,-63.5766C228.2582,-53.833 260.8555,-40.644 285.8166,-30.5446"/>
<polygon fill="#191970" stroke="#191970" points="202.7072,-60.3954 194.75,-67.3906 205.3327,-66.8844 202.7072,-60.3954"/>
</g>
</g>
</svg>
