<?xml version="1.0" encoding="UTF-8" standalone="no"?>
<!DOCTYPE svg PUBLIC "-//W3C//DTD SVG 1.1//EN"
 "http://www.w3.org/Graphics/SVG/1.1/DTD/svg11.dtd">
<!-- Generated by graphviz version 2.26.3 (20100126.1600)
 -->
<!-- Title: examples/page_rank/zipf_graph_gen.cpp Pages: 1 -->
<svg width="1830pt" height="564pt"
 viewBox="0.00 0.00 1829.83 564.00" xmlns="http://www.w3.org/2000/svg" xmlns:xlink="http://www.w3.org/1999/xlink">
<g id="graph1" class="graph" transform="scale(1 1) rotate(0) translate(4 560)">
<title>examples/page_rank/zipf_graph_gen.cpp</title>
<!-- Node1 -->
<g id="node1" class="node"><title>Node1</title>
<polygon fill="#bfbfbf" stroke="black" points="444.5,-521 444.5,-555 551.5,-555 551.5,-521 444.5,-521"/>
<text text-anchor="start" x="452.5" y="-542" font-family="Helvetica,sans-Serif" font-size="10.00">examples/page_rank</text>
<text text-anchor="middle" x="498" y="-529" font-family="Helvetica,sans-Serif" font-size="10.00">/zipf_graph_gen.cpp</text>
</g>
<!-- Node2 -->
<g id="node3" class="node"><title>Node2</title>
<a xlink:href="zipf__graph__gen_8hpp.html" target="_top" xlink:title="examples/page_rank\l/zipf_graph_gen.hpp">
<polygon fill="none" stroke="black" points="253.5,-449 253.5,-483 360.5,-483 360.5,-449 253.5,-449"/>
<text text-anchor="start" x="261.5" y="-470" font-family="Helvetica,sans-Serif" font-size="10.00">examples/page_rank</text>
<text text-anchor="middle" x="307" y="-457" font-family="Helvetica,sans-Serif" font-size="10.00">/zipf_graph_gen.hpp</text>
</a>
</g>
<!-- Node1&#45;&gt;Node2 -->
<g id="edge2" class="edge"><title>Node1&#45;&gt;Node2</title>
<path fill="none" stroke="midnightblue" d="M452.736,-520.937C425.48,-510.663 390.593,-497.511 361.786,-486.652"/>
<polygon fill="midnightblue" stroke="midnightblue" points="362.862,-483.317 352.27,-483.065 360.393,-489.868 362.862,-483.317"/>
</g>
<!-- Node17 -->
<g id="node33" class="node"><title>Node17</title>
<polygon fill="none" stroke="#bfbfbf" points="31.5,-72.5 31.5,-93.5 72.5,-93.5 72.5,-72.5 31.5,-72.5"/>
<text text-anchor="middle" x="52" y="-80.5" font-family="Helvetica,sans-Serif" font-size="10.00">string</text>
</g>
<!-- Node1&#45;&gt;Node17 -->
<g id="edge150" class="edge"><title>Node1&#45;&gt;Node17</title>
<path fill="none" stroke="midnightblue" d="M444.232,-533.911C315.46,-522.645 0,-485.688 0,-394 0,-394 0,-394 0,-206 0,-166.498 23.0343,-125.093 38.4416,-101.816"/>
<polygon fill="midnightblue" stroke="midnightblue" points="41.3389,-103.78 44.1023,-93.5514 35.5637,-99.8238 41.3389,-103.78"/>
</g>
<!-- Node18 -->
<g id="node35" class="node"><title>Node18</title>
<polygon fill="none" stroke="#bfbfbf" points="658,-72.5 658,-93.5 702,-93.5 702,-72.5 658,-72.5"/>
<text text-anchor="middle" x="680" y="-80.5" font-family="Helvetica,sans-Serif" font-size="10.00">vector</text>
</g>
<!-- Node1&#45;&gt;Node18 -->
<g id="edge152" class="edge"><title>Node1&#45;&gt;Node18</title>
<path fill="none" stroke="midnightblue" d="M498.717,-520.932C501.605,-454.778 512.998,-217.489 529,-188 554.683,-140.671 612.058,-110.132 648.224,-94.8015"/>
<polygon fill="midnightblue" stroke="midnightblue" points="649.886,-97.9033 657.818,-90.8795 647.237,-91.4238 649.886,-97.9033"/>
</g>
<!-- Node20 -->
<g id="node39" class="node"><title>Node20</title>
<a xlink:href="thrill_2common_2logger_8hpp.html" target="_top" xlink:title="thrill/common/logger.hpp">
<polygon fill="none" stroke="black" points="372.5,-318.5 372.5,-339.5 495.5,-339.5 495.5,-318.5 372.5,-318.5"/>
<text text-anchor="middle" x="434" y="-326.5" font-family="Helvetica,sans-Serif" font-size="10.00">thrill/common/logger.hpp</text>
</a>
</g>
<!-- Node1&#45;&gt;Node20 -->
<g id="edge138" class="edge"><title>Node1&#45;&gt;Node20</title>
<path fill="none" stroke="midnightblue" d="M492.763,-520.897C481.088,-482.772 452.967,-390.941 440.334,-349.683"/>
<polygon fill="midnightblue" stroke="midnightblue" points="443.615,-348.445 437.34,-339.908 436.922,-350.495 443.615,-348.445"/>
</g>
<!-- Node40 -->
<g id="node110" class="node"><title>Node40</title>
<a xlink:href="cmdline__parser_8hpp.html" target="_top" xlink:title="tlx/cmdline_parser.hpp">
<polygon fill="none" stroke="black" points="537.5,-195.5 537.5,-216.5 652.5,-216.5 652.5,-195.5 537.5,-195.5"/>
<text text-anchor="middle" x="595" y="-203.5" font-family="Helvetica,sans-Serif" font-size="10.00">tlx/cmdline_parser.hpp</text>
</a>
</g>
<!-- Node1&#45;&gt;Node40 -->
<g id="edge140" class="edge"><title>Node1&#45;&gt;Node40</title>
<path fill="none" stroke="midnightblue" d="M532.557,-520.908C547.614,-511.852 564.245,-499.392 575,-484 598.712,-450.066 599,-435.398 599,-394 599,-394 599,-394 599,-329 599,-293.033 597.27,-251.182 596.086,-226.738"/>
<polygon fill="midnightblue" stroke="midnightblue" points="599.57,-226.338 595.573,-216.526 592.579,-226.689 599.57,-226.338"/>
</g>
<!-- Node41 -->
<g id="node115" class="node"><title>Node41</title>
<polygon fill="none" stroke="#bfbfbf" points="627,-455.5 627,-476.5 681,-476.5 681,-455.5 627,-455.5"/>
<text text-anchor="middle" x="654" y="-463.5" font-family="Helvetica,sans-Serif" font-size="10.00">iostream</text>
</g>
<!-- Node1&#45;&gt;Node41 -->
<g id="edge148" class="edge"><title>Node1&#45;&gt;Node41</title>
<path fill="none" stroke="midnightblue" d="M534.97,-520.937C561.335,-508.769 596.443,-492.565 621.689,-480.913"/>
<polygon fill="midnightblue" stroke="midnightblue" points="623.23,-484.057 630.843,-476.688 620.296,-477.701 623.23,-484.057"/>
</g>
<!-- Node3 -->
<g id="node5" class="node"><title>Node3</title>
<a xlink:href="thrill_2common_2string_8hpp.html" target="_top" xlink:title="thrill/common/string.hpp">
<polygon fill="none" stroke="black" points="293.5,-130.5 293.5,-151.5 414.5,-151.5 414.5,-130.5 293.5,-130.5"/>
<text text-anchor="middle" x="354" y="-138.5" font-family="Helvetica,sans-Serif" font-size="10.00">thrill/common/string.hpp</text>
</a>
</g>
<!-- Node2&#45;&gt;Node3 -->
<g id="edge4" class="edge"><title>Node2&#45;&gt;Node3</title>
<path fill="none" stroke="midnightblue" d="M262.168,-448.837C216.39,-428.042 152,-388.259 152,-329 152,-329 152,-329 152,-271 152,-204.434 230.526,-170.338 289.658,-154.1"/>
<polygon fill="midnightblue" stroke="midnightblue" points="290.557,-157.482 299.336,-151.551 288.774,-150.713 290.557,-157.482"/>
</g>
<!-- Node2&#45;&gt;Node17 -->
<g id="edge134" class="edge"><title>Node2&#45;&gt;Node17</title>
<path fill="none" stroke="midnightblue" d="M253.21,-462.258C174.709,-453.547 38,-424.647 38,-329 38,-329 38,-329 38,-206 38,-169.843 44.0461,-128.089 48.1918,-103.709"/>
<polygon fill="midnightblue" stroke="midnightblue" points="51.6471,-104.268 49.9343,-93.8123 44.7532,-103.054 51.6471,-104.268"/>
</g>
<!-- Node2&#45;&gt;Node18 -->
<g id="edge136" class="edge"><title>Node2&#45;&gt;Node18</title>
<path fill="none" stroke="midnightblue" d="M298.554,-448.819C290.708,-430.511 281.307,-400.808 289,-376 319.013,-279.212 347.498,-260.788 418,-188 448.305,-156.712 457.461,-148.274 497,-130 557.189,-102.183 580.317,-112.575 647.903,-94.0374"/>
<polygon fill="midnightblue" stroke="midnightblue" points="649.092,-97.3379 657.744,-91.2227 647.167,-90.6078 649.092,-97.3379"/>
</g>
<!-- Node19 -->
<g id="node37" class="node"><title>Node19</title>
<a xlink:href="zipf__distribution_8hpp.html" target="_top" xlink:title="thrill/common/zipf\l_distribution.hpp">
<polygon fill="none" stroke="black" points="298,-377 298,-411 392,-411 392,-377 298,-377"/>
<text text-anchor="start" x="306" y="-398" font-family="Helvetica,sans-Serif" font-size="10.00">thrill/common/zipf</text>
<text text-anchor="middle" x="345" y="-385" font-family="Helvetica,sans-Serif" font-size="10.00">_distribution.hpp</text>
</a>
</g>
<!-- Node2&#45;&gt;Node19 -->
<g id="edge36" class="edge"><title>Node2&#45;&gt;Node19</title>
<path fill="none" stroke="midnightblue" d="M316.005,-448.937C320.483,-440.454 325.995,-430.009 331.007,-420.513"/>
<polygon fill="midnightblue" stroke="midnightblue" points="334.223,-421.918 335.795,-411.441 328.032,-418.651 334.223,-421.918"/>
</g>
<!-- Node25 -->
<g id="node51" class="node"><title>Node25</title>
<polygon fill="none" stroke="#bfbfbf" points="1304,-72.5 1304,-93.5 1360,-93.5 1360,-72.5 1304,-72.5"/>
<text text-anchor="middle" x="1332" y="-80.5" font-family="Helvetica,sans-Serif" font-size="10.00">algorithm</text>
</g>
<!-- Node2&#45;&gt;Node25 -->
<g id="edge132" class="edge"><title>Node2&#45;&gt;Node25</title>
<path fill="none" stroke="midnightblue" d="M360.648,-456.234C548.85,-420.957 1175.1,-294.644 1313,-152 1325.44,-139.133 1329.9,-118.901 1331.41,-103.666"/>
<polygon fill="midnightblue" stroke="midnightblue" points="1334.91,-103.84 1332.07,-93.632 1327.93,-103.381 1334.91,-103.84"/>
</g>
<!-- Node4 -->
<g id="node7" class="node"><title>Node4</title>
<a xlink:href="define_8hpp.html" target="_top" xlink:title="tlx/define.hpp">
<polygon fill="none" stroke="black" points="433.5,-72.5 433.5,-93.5 508.5,-93.5 508.5,-72.5 433.5,-72.5"/>
<text text-anchor="middle" x="471" y="-80.5" font-family="Helvetica,sans-Serif" font-size="10.00">tlx/define.hpp</text>
</a>
</g>
<!-- Node3&#45;&gt;Node4 -->
<g id="edge6" class="edge"><title>Node3&#45;&gt;Node4</title>
<path fill="none" stroke="midnightblue" d="M375.188,-130.497C393.462,-121.438 420.072,-108.246 440.615,-98.0628"/>
<polygon fill="midnightblue" stroke="midnightblue" points="442.169,-101.199 449.574,-93.6212 439.06,-94.9269 442.169,-101.199"/>
</g>
<!-- Node10 -->
<g id="node19" class="node"><title>Node10</title>
<a xlink:href="unused_8hpp.html" target="_top" xlink:title="tlx/unused.hpp">
<polygon fill="none" stroke="black" points="156,-72.5 156,-93.5 236,-93.5 236,-72.5 156,-72.5"/>
<text text-anchor="middle" x="196" y="-80.5" font-family="Helvetica,sans-Serif" font-size="10.00">tlx/unused.hpp</text>
</a>
</g>
<!-- Node3&#45;&gt;Node10 -->
<g id="edge18" class="edge"><title>Node3&#45;&gt;Node10</title>
<path fill="none" stroke="midnightblue" d="M325.387,-130.497C299.852,-121.123 262.263,-107.324 234.171,-97.0122"/>
<polygon fill="midnightblue" stroke="midnightblue" points="235.26,-93.6835 224.666,-93.5231 232.848,-100.255 235.26,-93.6835"/>
</g>
<!-- Node11 -->
<g id="node21" class="node"><title>Node11</title>
<polygon fill="none" stroke="#bfbfbf" points="254,-72.5 254,-93.5 292,-93.5 292,-72.5 254,-72.5"/>
<text text-anchor="middle" x="273" y="-80.5" font-family="Helvetica,sans-Serif" font-size="10.00">array</text>
</g>
<!-- Node3&#45;&gt;Node11 -->
<g id="edge20" class="edge"><title>Node3&#45;&gt;Node11</title>
<path fill="none" stroke="midnightblue" d="M339.143,-130.362C327.154,-121.777 310.073,-109.546 296.272,-99.6636"/>
<polygon fill="midnightblue" stroke="midnightblue" points="297.931,-96.5469 287.762,-93.5707 293.855,-102.238 297.931,-96.5469"/>
</g>
<!-- Node12 -->
<g id="node23" class="node"><title>Node12</title>
<polygon fill="none" stroke="#bfbfbf" points="309.5,-72.5 309.5,-93.5 358.5,-93.5 358.5,-72.5 309.5,-72.5"/>
<text text-anchor="middle" x="334" y="-80.5" font-family="Helvetica,sans-Serif" font-size="10.00">cstdarg</text>
</g>
<!-- Node3&#45;&gt;Node12 -->
<g id="edge22" class="edge"><title>Node3&#45;&gt;Node12</title>
<path fill="none" stroke="midnightblue" d="M350.332,-130.362C347.71,-122.758 344.101,-112.294 340.943,-103.135"/>
<polygon fill="midnightblue" stroke="midnightblue" points="344.214,-101.883 337.645,-93.5707 337.596,-104.165 344.214,-101.883"/>
</g>
<!-- Node13 -->
<g id="node25" class="node"><title>Node13</title>
<polygon fill="none" stroke="#bfbfbf" points="595.5,-72.5 595.5,-93.5 640.5,-93.5 640.5,-72.5 595.5,-72.5"/>
<text text-anchor="middle" x="618" y="-80.5" font-family="Helvetica,sans-Serif" font-size="10.00">cstdlib</text>
</g>
<!-- Node3&#45;&gt;Node13 -->
<g id="edge24" class="edge"><title>Node3&#45;&gt;Node13</title>
<path fill="none" stroke="midnightblue" d="M414.902,-131.156C459.929,-123.322 522.827,-111.215 585.744,-94.1009"/>
<polygon fill="midnightblue" stroke="midnightblue" points="586.724,-97.4614 595.431,-91.4255 584.861,-90.714 586.724,-97.4614"/>
</g>
<!-- Node14 -->
<g id="node27" class="node"><title>Node14</title>
<polygon fill="none" stroke="#bfbfbf" points="376,-72.5 376,-93.5 416,-93.5 416,-72.5 376,-72.5"/>
<text text-anchor="middle" x="396" y="-80.5" font-family="Helvetica,sans-Serif" font-size="10.00">limits</text>
</g>
<!-- Node3&#45;&gt;Node14 -->
<g id="edge26" class="edge"><title>Node3&#45;&gt;Node14</title>
<path fill="none" stroke="midnightblue" d="M361.703,-130.362C367.446,-122.431 375.443,-111.389 382.27,-101.961"/>
<polygon fill="midnightblue" stroke="midnightblue" points="385.315,-103.723 388.345,-93.5707 379.645,-99.6173 385.315,-103.723"/>
</g>
<!-- Node15 -->
<g id="node29" class="node"><title>Node15</title>
<polygon fill="none" stroke="#bfbfbf" points="89.5,-72.5 89.5,-93.5 138.5,-93.5 138.5,-72.5 89.5,-72.5"/>
<text text-anchor="middle" x="114" y="-80.5" font-family="Helvetica,sans-Serif" font-size="10.00">random</text>
</g>
<!-- Node3&#45;&gt;Node15 -->
<g id="edge28" class="edge"><title>Node3&#45;&gt;Node15</title>
<path fill="none" stroke="midnightblue" d="M300.89,-130.445C261.158,-122.208 205.332,-109.917 148.632,-94.297"/>
<polygon fill="midnightblue" stroke="midnightblue" points="149.358,-90.866 138.785,-91.5528 147.479,-97.6091 149.358,-90.866"/>
</g>
<!-- Node16 -->
<g id="node31" class="node"><title>Node16</title>
<polygon fill="none" stroke="#bfbfbf" points="526,-72.5 526,-93.5 578,-93.5 578,-72.5 526,-72.5"/>
<text text-anchor="middle" x="552" y="-80.5" font-family="Helvetica,sans-Serif" font-size="10.00">sstream</text>
</g>
<!-- Node3&#45;&gt;Node16 -->
<g id="edge30" class="edge"><title>Node3&#45;&gt;Node16</title>
<path fill="none" stroke="midnightblue" d="M391.624,-130.426C422.642,-121.647 468.022,-108.663 516.017,-94.2556"/>
<polygon fill="midnightblue" stroke="midnightblue" points="517.081,-97.5905 525.647,-91.356 515.063,-90.8878 517.081,-97.5905"/>
</g>
<!-- Node3&#45;&gt;Node17 -->
<g id="edge32" class="edge"><title>Node3&#45;&gt;Node17</title>
<path fill="none" stroke="midnightblue" d="M293.217,-131.929C229.738,-122.225 133.402,-106.793 82.5806,-94.0178"/>
<polygon fill="midnightblue" stroke="midnightblue" points="83.3131,-90.5913 72.7506,-91.4179 81.5233,-97.3586 83.3131,-90.5913"/>
</g>
<!-- Node3&#45;&gt;Node18 -->
<g id="edge34" class="edge"><title>Node3&#45;&gt;Node18</title>
<path fill="none" stroke="midnightblue" d="M414.547,-134.639C472.417,-127.822 562.131,-115.331 647.902,-93.9392"/>
<polygon fill="midnightblue" stroke="midnightblue" points="648.969,-97.2796 657.8,-91.426 647.246,-90.4949 648.969,-97.2796"/>
</g>
<!-- Node5 -->
<g id="node9" class="node"><title>Node5</title>
<a xlink:href="attribute__always__inline_8hpp.html" target="_top" xlink:title="tlx/define/attribute\l_always_inline.hpp">
<polygon fill="none" stroke="black" points="195.5,-1 195.5,-35 294.5,-35 294.5,-1 195.5,-1"/>
<text text-anchor="start" x="203.5" y="-22" font-family="Helvetica,sans-Serif" font-size="10.00">tlx/define/attribute</text>
<text text-anchor="middle" x="245" y="-9" font-family="Helvetica,sans-Serif" font-size="10.00">_always_inline.hpp</text>
</a>
</g>
<!-- Node4&#45;&gt;Node5 -->
<g id="edge8" class="edge"><title>Node4&#45;&gt;Node5</title>
<path fill="none" stroke="midnightblue" d="M433.215,-72.7557C401.173,-63.9958 353.765,-50.8644 304.244,-36.3341"/>
<polygon fill="midnightblue" stroke="midnightblue" points="305.228,-32.9753 294.646,-33.5081 303.25,-39.6903 305.228,-32.9753"/>
</g>
<!-- Node6 -->
<g id="node11" class="node"><title>Node6</title>
<a xlink:href="attribute__format__printf_8hpp.html" target="_top" xlink:title="tlx/define/attribute\l_format_printf.hpp">
<polygon fill="none" stroke="black" points="311.5,-1 311.5,-35 406.5,-35 406.5,-1 311.5,-1"/>
<text text-anchor="start" x="319.5" y="-22" font-family="Helvetica,sans-Serif" font-size="10.00">tlx/define/attribute</text>
<text text-anchor="middle" x="359" y="-9" font-family="Helvetica,sans-Serif" font-size="10.00">_format_printf.hpp</text>
</a>
</g>
<!-- Node4&#45;&gt;Node6 -->
<g id="edge10" class="edge"><title>Node4&#45;&gt;Node6</title>
<path fill="none" stroke="midnightblue" d="M452.505,-72.2666C437.555,-63.5901 416.004,-51.083 397.36,-40.2622"/>
<polygon fill="midnightblue" stroke="midnightblue" points="398.887,-37.1023 388.482,-35.1099 395.374,-43.1565 398.887,-37.1023"/>
</g>
<!-- Node7 -->
<g id="node13" class="node"><title>Node7</title>
<a xlink:href="attribute__packed_8hpp.html" target="_top" xlink:title="tlx/define/attribute\l_packed.hpp">
<polygon fill="none" stroke="black" points="423.5,-1 423.5,-35 518.5,-35 518.5,-1 423.5,-1"/>
<text text-anchor="start" x="431.5" y="-22" font-family="Helvetica,sans-Serif" font-size="10.00">tlx/define/attribute</text>
<text text-anchor="middle" x="471" y="-9" font-family="Helvetica,sans-Serif" font-size="10.00">_packed.hpp</text>
</a>
</g>
<!-- Node4&#45;&gt;Node7 -->
<g id="edge12" class="edge"><title>Node4&#45;&gt;Node7</title>
<path fill="none" stroke="midnightblue" d="M471,-72.2666C471,-64.931 471,-54.8573 471,-45.3796"/>
<polygon fill="midnightblue" stroke="midnightblue" points="474.5,-45.1098 471,-35.1099 467.5,-45.1099 474.5,-45.1098"/>
</g>
<!-- Node8 -->
<g id="node15" class="node"><title>Node8</title>
<a xlink:href="attribute__warn__unused__result_8hpp.html" target="_top" xlink:title="tlx/define/attribute\l_warn_unused_result.hpp">
<polygon fill="none" stroke="black" points="536,-1 536,-35 664,-35 664,-1 536,-1"/>
<text text-anchor="start" x="544" y="-22" font-family="Helvetica,sans-Serif" font-size="10.00">tlx/define/attribute</text>
<text text-anchor="middle" x="600" y="-9" font-family="Helvetica,sans-Serif" font-size="10.00">_warn_unused_result.hpp</text>
</a>
</g>
<!-- Node4&#45;&gt;Node8 -->
<g id="edge14" class="edge"><title>Node4&#45;&gt;Node8</title>
<path fill="none" stroke="midnightblue" d="M492.013,-72.412C509.505,-63.5984 534.983,-50.7606 556.799,-39.768"/>
<polygon fill="midnightblue" stroke="midnightblue" points="558.535,-42.8124 565.891,-35.1869 555.385,-36.5612 558.535,-42.8124"/>
</g>
<!-- Node9 -->
<g id="node17" class="node"><title>Node9</title>
<a xlink:href="likely_8hpp.html" target="_top" xlink:title="tlx/define/likely.hpp">
<polygon fill="none" stroke="black" points="681.5,-7.5 681.5,-28.5 782.5,-28.5 782.5,-7.5 681.5,-7.5"/>
<text text-anchor="middle" x="732" y="-15.5" font-family="Helvetica,sans-Serif" font-size="10.00">tlx/define/likely.hpp</text>
</a>
</g>
<!-- Node4&#45;&gt;Node9 -->
<g id="edge16" class="edge"><title>Node4&#45;&gt;Node9</title>
<path fill="none" stroke="midnightblue" d="M508.65,-73.9711C511.475,-73.3015 514.282,-72.6385 517,-72 586.269,-55.7254 604.263,-54.3929 673,-36 678.237,-34.5986 683.71,-33.0476 689.121,-31.4608"/>
<polygon fill="midnightblue" stroke="midnightblue" points="690.15,-34.8066 698.73,-28.5909 688.146,-28.0994 690.15,-34.8066"/>
</g>
<!-- Node19&#45;&gt;Node15 -->
<g id="edge128" class="edge"><title>Node19&#45;&gt;Node15</title>
<path fill="none" stroke="midnightblue" d="M332.251,-376.836C292.292,-323.038 169.674,-157.955 128.018,-101.873"/>
<polygon fill="midnightblue" stroke="midnightblue" points="130.615,-99.4987 121.842,-93.5579 124.995,-103.673 130.615,-99.4987"/>
</g>
<!-- Node19&#45;&gt;Node18 -->
<g id="edge130" class="edge"><title>Node19&#45;&gt;Node18</title>
<path fill="none" stroke="midnightblue" d="M347.386,-376.77C350.017,-360.942 355.107,-337.113 364,-318 394.08,-253.356 407.038,-237.866 458,-188 523.379,-124.027 557.286,-124.778 648.103,-94.2362"/>
<polygon fill="midnightblue" stroke="midnightblue" points="649.33,-97.5157 657.664,-90.9749 647.07,-90.8905 649.33,-97.5157"/>
</g>
<!-- Node19&#45;&gt;Node20 -->
<g id="edge38" class="edge"><title>Node19&#45;&gt;Node20</title>
<path fill="none" stroke="midnightblue" d="M368.384,-376.922C381.65,-367.233 398.175,-355.165 411.322,-345.562"/>
<polygon fill="midnightblue" stroke="midnightblue" points="413.395,-348.383 419.406,-339.658 409.266,-342.73 413.395,-348.383"/>
</g>
<!-- Node20&#45;&gt;Node16 -->
<g id="edge124" class="edge"><title>Node20&#45;&gt;Node16</title>
<path fill="none" stroke="midnightblue" d="M434.039,-318.222C434.501,-293.902 437.77,-233.355 458,-188 474.173,-151.741 507.611,-119.261 529.928,-100.338"/>
<polygon fill="midnightblue" stroke="midnightblue" points="532.398,-102.837 537.878,-93.7696 527.94,-97.441 532.398,-102.837"/>
</g>
<!-- Node20&#45;&gt;Node17 -->
<g id="edge126" class="edge"><title>Node20&#45;&gt;Node17</title>
<path fill="none" stroke="midnightblue" d="M411.769,-318.326C359.744,-292.9 226.922,-225.373 127,-152 105.822,-136.449 83.9771,-115.722 69.3651,-101.056"/>
<polygon fill="midnightblue" stroke="midnightblue" points="71.5471,-98.2832 62.0416,-93.6038 66.5543,-103.19 71.5471,-98.2832"/>
</g>
<!-- Node21 -->
<g id="node41" class="node"><title>Node21</title>
<a xlink:href="allocator_8hpp.html" target="_top" xlink:title="thrill/mem/allocator.hpp">
<polygon fill="none" stroke="black" points="735,-260.5 735,-281.5 853,-281.5 853,-260.5 735,-260.5"/>
<text text-anchor="middle" x="794" y="-268.5" font-family="Helvetica,sans-Serif" font-size="10.00">thrill/mem/allocator.hpp</text>
</a>
</g>
<!-- Node20&#45;&gt;Node21 -->
<g id="edge40" class="edge"><title>Node20&#45;&gt;Node21</title>
<path fill="none" stroke="midnightblue" d="M495.886,-319.029C559.562,-308.771 658.544,-292.823 724.78,-282.152"/>
<polygon fill="midnightblue" stroke="midnightblue" points="725.397,-285.598 734.712,-280.552 724.283,-278.687 725.397,-285.598"/>
</g>
<!-- Node35 -->
<g id="node85" class="node"><title>Node35</title>
<a xlink:href="pool_8hpp.html" target="_top" xlink:title="thrill/mem/pool.hpp">
<polygon fill="none" stroke="black" points="1440.5,-260.5 1440.5,-281.5 1539.5,-281.5 1539.5,-260.5 1440.5,-260.5"/>
<text text-anchor="middle" x="1490" y="-268.5" font-family="Helvetica,sans-Serif" font-size="10.00">thrill/mem/pool.hpp</text>
</a>
</g>
<!-- Node20&#45;&gt;Node35 -->
<g id="edge100" class="edge"><title>Node20&#45;&gt;Node35</title>
<path fill="none" stroke="midnightblue" d="M495.727,-325.61C683.309,-315.307 1245.09,-284.452 1430.15,-274.287"/>
<polygon fill="midnightblue" stroke="midnightblue" points="1430.44,-277.777 1440.24,-273.733 1430.06,-270.787 1430.44,-277.777"/>
</g>
<!-- Node21&#45;&gt;Node17 -->
<g id="edge94" class="edge"><title>Node21&#45;&gt;Node17</title>
<path fill="none" stroke="midnightblue" d="M734.626,-266.469C622.274,-256.411 372.253,-226.891 176,-152 139.466,-138.059 100.568,-114.88 76.2812,-99.2784"/>
<polygon fill="midnightblue" stroke="midnightblue" points="78.0135,-96.2297 67.7239,-93.7048 74.1931,-102.095 78.0135,-96.2297"/>
</g>
<!-- Node21&#45;&gt;Node18 -->
<g id="edge98" class="edge"><title>Node21&#45;&gt;Node18</title>
<path fill="none" stroke="midnightblue" d="M765.382,-260.438C746.475,-252.467 721.963,-240.141 704,-224 675.393,-198.295 667.145,-188.809 656,-152 650.864,-135.036 658.487,-116.031 666.47,-102.268"/>
<polygon fill="midnightblue" stroke="midnightblue" points="669.521,-103.992 671.902,-93.6678 663.603,-100.254 669.521,-103.992"/>
</g>
<!-- Node22 -->
<g id="node43" class="node"><title>Node22</title>
<a xlink:href="thrill_2mem_2allocator__base_8hpp.html" target="_top" xlink:title="thrill/mem/allocator\l_base.hpp">
<polygon fill="none" stroke="black" points="902.5,-189 902.5,-223 1001.5,-223 1001.5,-189 902.5,-189"/>
<text text-anchor="start" x="910.5" y="-210" font-family="Helvetica,sans-Serif" font-size="10.00">thrill/mem/allocator</text>
<text text-anchor="middle" x="952" y="-197" font-family="Helvetica,sans-Serif" font-size="10.00">_base.hpp</text>
</a>
</g>
<!-- Node21&#45;&gt;Node22 -->
<g id="edge42" class="edge"><title>Node21&#45;&gt;Node22</title>
<path fill="none" stroke="midnightblue" d="M819.737,-260.412C841.717,-251.37 873.994,-238.091 901.16,-226.915"/>
<polygon fill="midnightblue" stroke="midnightblue" points="902.614,-230.102 910.53,-223.06 899.95,-223.628 902.614,-230.102"/>
</g>
<!-- Node24 -->
<g id="node49" class="node"><title>Node24</title>
<a xlink:href="mem_2manager_8hpp.html" target="_top" xlink:title="thrill/mem/manager.hpp">
<polygon fill="none" stroke="black" points="1185.5,-130.5 1185.5,-151.5 1304.5,-151.5 1304.5,-130.5 1185.5,-130.5"/>
<text text-anchor="middle" x="1245" y="-138.5" font-family="Helvetica,sans-Serif" font-size="10.00">thrill/mem/manager.hpp</text>
</a>
</g>
<!-- Node21&#45;&gt;Node24 -->
<g id="edge82" class="edge"><title>Node21&#45;&gt;Node24</title>
<path fill="none" stroke="midnightblue" d="M853.392,-260.961C897.192,-252.864 957.959,-240.172 1010,-224 1050.35,-211.46 1058.29,-202.446 1098,-188 1131.67,-175.751 1170.28,-163.473 1199.48,-154.54"/>
<polygon fill="midnightblue" stroke="midnightblue" points="1200.84,-157.784 1209.39,-151.525 1198.8,-151.087 1200.84,-157.784"/>
</g>
<!-- Node27 -->
<g id="node55" class="node"><title>Node27</title>
<polygon fill="none" stroke="#bfbfbf" points="1057.5,-72.5 1057.5,-93.5 1106.5,-93.5 1106.5,-72.5 1057.5,-72.5"/>
<text text-anchor="middle" x="1082" y="-80.5" font-family="Helvetica,sans-Serif" font-size="10.00">cassert</text>
</g>
<!-- Node21&#45;&gt;Node27 -->
<g id="edge84" class="edge"><title>Node21&#45;&gt;Node27</title>
<path fill="none" stroke="midnightblue" d="M782.088,-260.492C750.415,-231.985 667.93,-153.74 689,-130 712.638,-103.366 955.674,-89.0486 1047.3,-84.5644"/>
<polygon fill="midnightblue" stroke="midnightblue" points="1047.63,-88.0528 1057.45,-84.0778 1047.29,-81.0608 1047.63,-88.0528"/>
</g>
<!-- Node30 -->
<g id="node61" class="node"><title>Node30</title>
<polygon fill="none" stroke="#bfbfbf" points="1626,-72.5 1626,-93.5 1678,-93.5 1678,-72.5 1626,-72.5"/>
<text text-anchor="middle" x="1652" y="-80.5" font-family="Helvetica,sans-Serif" font-size="10.00">memory</text>
</g>
<!-- Node21&#45;&gt;Node30 -->
<g id="edge90" class="edge"><title>Node21&#45;&gt;Node30</title>
<path fill="none" stroke="midnightblue" d="M853.33,-265.003C932.189,-256.824 1075.81,-241.209 1198,-224 1222.26,-220.584 1614.8,-168.391 1633,-152 1646.37,-139.957 1650.7,-119.454 1651.93,-103.918"/>
<polygon fill="midnightblue" stroke="midnightblue" points="1655.44,-103.816 1652.37,-93.6762 1648.44,-103.518 1655.44,-103.816"/>
</g>
<!-- Node31 -->
<g id="node63" class="node"><title>Node31</title>
<polygon fill="none" stroke="#bfbfbf" points="1434,-72.5 1434,-93.5 1496,-93.5 1496,-72.5 1434,-72.5"/>
<text text-anchor="middle" x="1465" y="-80.5" font-family="Helvetica,sans-Serif" font-size="10.00">type_traits</text>
</g>
<!-- Node21&#45;&gt;Node31 -->
<g id="edge96" class="edge"><title>Node21&#45;&gt;Node31</title>
<path fill="none" stroke="midnightblue" d="M853.047,-265.937C957.664,-255.359 1180.85,-225.492 1354,-152 1386.86,-138.053 1421.25,-115.189 1442.89,-99.6351"/>
<polygon fill="midnightblue" stroke="midnightblue" points="1445.05,-102.389 1451.06,-93.665 1440.92,-96.7351 1445.05,-102.389"/>
</g>
<!-- Node32 -->
<g id="node67" class="node"><title>Node32</title>
<polygon fill="none" stroke="#bfbfbf" points="759.5,-130.5 759.5,-151.5 802.5,-151.5 802.5,-130.5 759.5,-130.5"/>
<text text-anchor="middle" x="781" y="-138.5" font-family="Helvetica,sans-Serif" font-size="10.00">deque</text>
</g>
<!-- Node21&#45;&gt;Node32 -->
<g id="edge86" class="edge"><title>Node21&#45;&gt;Node32</title>
<path fill="none" stroke="midnightblue" d="M792.936,-260.362C790.784,-238.841 785.881,-189.807 783.074,-161.74"/>
<polygon fill="midnightblue" stroke="midnightblue" points="786.556,-161.388 782.079,-151.785 779.591,-162.084 786.556,-161.388"/>
</g>
<!-- Node33 -->
<g id="node69" class="node"><title>Node33</title>
<polygon fill="none" stroke="#bfbfbf" points="697.5,-130.5 697.5,-151.5 742.5,-151.5 742.5,-130.5 697.5,-130.5"/>
<text text-anchor="middle" x="720" y="-138.5" font-family="Helvetica,sans-Serif" font-size="10.00">iosfwd</text>
</g>
<!-- Node21&#45;&gt;Node33 -->
<g id="edge88" class="edge"><title>Node21&#45;&gt;Node33</title>
<path fill="none" stroke="midnightblue" d="M787.944,-260.362C775.531,-238.555 747.039,-188.5 731.176,-160.634"/>
<polygon fill="midnightblue" stroke="midnightblue" points="734.128,-158.745 726.139,-151.785 728.045,-162.208 734.128,-158.745"/>
</g>
<!-- Node34 -->
<g id="node71" class="node"><title>Node34</title>
<polygon fill="none" stroke="#bfbfbf" points="819.5,-130.5 819.5,-151.5 854.5,-151.5 854.5,-130.5 819.5,-130.5"/>
<text text-anchor="middle" x="837" y="-138.5" font-family="Helvetica,sans-Serif" font-size="10.00">new</text>
</g>
<!-- Node21&#45;&gt;Node34 -->
<g id="edge92" class="edge"><title>Node21&#45;&gt;Node34</title>
<path fill="none" stroke="midnightblue" d="M797.519,-260.362C804.669,-238.746 821,-189.372 830.263,-161.369"/>
<polygon fill="midnightblue" stroke="midnightblue" points="833.615,-162.379 833.433,-151.785 826.969,-160.18 833.615,-162.379"/>
</g>
<!-- Node22&#45;&gt;Node3 -->
<g id="edge44" class="edge"><title>Node22&#45;&gt;Node3</title>
<path fill="none" stroke="midnightblue" d="M902.299,-200.598C796.255,-189.071 547.512,-162.034 424.888,-148.705"/>
<polygon fill="midnightblue" stroke="midnightblue" points="425.171,-145.215 414.851,-147.614 424.414,-152.174 425.171,-145.215"/>
</g>
<!-- Node22&#45;&gt;Node17 -->
<g id="edge76" class="edge"><title>Node22&#45;&gt;Node17</title>
<path fill="none" stroke="midnightblue" d="M902.368,-203.103C757.859,-194.512 343.88,-168.73 285,-152 264.35,-146.133 262.192,-137.289 242,-130 175.997,-106.173 153.195,-114.265 82.5938,-94.1731"/>
<polygon fill="midnightblue" stroke="midnightblue" points="83.3681,-90.7527 72.787,-91.291 81.3943,-97.4687 83.3681,-90.7527"/>
</g>
<!-- Node22&#45;&gt;Node18 -->
<g id="edge80" class="edge"><title>Node22&#45;&gt;Node18</title>
<path fill="none" stroke="midnightblue" d="M987.41,-188.934C1014.12,-173.814 1043.29,-150.949 1025,-130 1004.55,-106.575 794.095,-90.4429 712.282,-85.0133"/>
<polygon fill="midnightblue" stroke="midnightblue" points="712.276,-81.5056 702.069,-84.347 711.82,-88.4907 712.276,-81.5056"/>
</g>
<!-- Node23 -->
<g id="node46" class="node"><title>Node23</title>
<a xlink:href="malloc__tracker_8hpp.html" target="_top" xlink:title="thrill/mem/malloc_tracker.hpp">
<polygon fill="none" stroke="black" points="871.5,-130.5 871.5,-151.5 1016.5,-151.5 1016.5,-130.5 871.5,-130.5"/>
<text text-anchor="middle" x="944" y="-138.5" font-family="Helvetica,sans-Serif" font-size="10.00">thrill/mem/malloc_tracker.hpp</text>
</a>
</g>
<!-- Node22&#45;&gt;Node23 -->
<g id="edge46" class="edge"><title>Node22&#45;&gt;Node23</title>
<path fill="none" stroke="midnightblue" d="M949.898,-188.922C948.883,-180.67 947.654,-170.692 946.582,-161.982"/>
<polygon fill="midnightblue" stroke="midnightblue" points="950.031,-161.35 945.336,-151.852 943.083,-162.205 950.031,-161.35"/>
</g>
<!-- Node22&#45;&gt;Node24 -->
<g id="edge50" class="edge"><title>Node22&#45;&gt;Node24</title>
<path fill="none" stroke="midnightblue" d="M1001.7,-194.974C1053.19,-183.551 1133.56,-165.722 1187.69,-153.713"/>
<polygon fill="midnightblue" stroke="midnightblue" points="1188.48,-157.124 1197.48,-151.541 1186.96,-150.29 1188.48,-157.124"/>
</g>
<!-- Node26 -->
<g id="node53" class="node"><title>Node26</title>
<polygon fill="none" stroke="#bfbfbf" points="1173,-72.5 1173,-93.5 1219,-93.5 1219,-72.5 1173,-72.5"/>
<text text-anchor="middle" x="1196" y="-80.5" font-family="Helvetica,sans-Serif" font-size="10.00">atomic</text>
</g>
<!-- Node22&#45;&gt;Node26 -->
<g id="edge66" class="edge"><title>Node22&#45;&gt;Node26</title>
<path fill="none" stroke="midnightblue" d="M995.47,-188.931C1020.04,-178.899 1051.12,-165.554 1078,-152 1110.74,-135.494 1146.94,-113.78 1170.5,-99.1566"/>
<polygon fill="midnightblue" stroke="midnightblue" points="1172.55,-102.003 1179.17,-93.7364 1168.84,-96.0662 1172.55,-102.003"/>
</g>
<!-- Node22&#45;&gt;Node27 -->
<g id="edge68" class="edge"><title>Node22&#45;&gt;Node27</title>
<path fill="none" stroke="midnightblue" d="M1001.54,-190.049C1021.4,-181.5 1043.07,-169.122 1058,-152 1069.82,-138.441 1075.91,-118.725 1078.99,-103.837"/>
<polygon fill="midnightblue" stroke="midnightblue" points="1082.51,-104.031 1080.81,-93.5747 1075.62,-102.813 1082.51,-104.031"/>
</g>
<!-- Node28 -->
<g id="node57" class="node"><title>Node28</title>
<a xlink:href="extlib_2tlx_2tlx_2allocator__base_8hpp.html" target="_top" xlink:title="tlx/allocator_base.hpp">
<polygon fill="none" stroke="black" points="1512,-130.5 1512,-151.5 1624,-151.5 1624,-130.5 1512,-130.5"/>
<text text-anchor="middle" x="1568" y="-138.5" font-family="Helvetica,sans-Serif" font-size="10.00">tlx/allocator_base.hpp</text>
</a>
</g>
<!-- Node22&#45;&gt;Node28 -->
<g id="edge58" class="edge"><title>Node22&#45;&gt;Node28</title>
<path fill="none" stroke="midnightblue" d="M1001.63,-200.763C1111.91,-189.126 1377.4,-161.112 1501.7,-147.995"/>
<polygon fill="midnightblue" stroke="midnightblue" points="1502.27,-151.455 1511.85,-146.925 1501.54,-144.494 1502.27,-151.455"/>
</g>
<!-- Node22&#45;&gt;Node31 -->
<g id="edge78" class="edge"><title>Node22&#45;&gt;Node31</title>
<path fill="none" stroke="midnightblue" d="M1001.69,-202.94C1072.18,-197.623 1204.67,-184.009 1313,-152 1358.14,-138.661 1407.19,-114.473 1437.01,-98.572"/>
<polygon fill="midnightblue" stroke="midnightblue" points="1438.86,-101.555 1445.99,-93.7247 1435.53,-95.3954 1438.86,-101.555"/>
</g>
<!-- Node22&#45;&gt;Node32 -->
<g id="edge70" class="edge"><title>Node22&#45;&gt;Node32</title>
<path fill="none" stroke="midnightblue" d="M907.072,-188.922C877.239,-177.582 838.827,-162.981 812.283,-152.891"/>
<polygon fill="midnightblue" stroke="midnightblue" points="813.324,-149.543 802.733,-149.261 810.837,-156.086 813.324,-149.543"/>
</g>
<!-- Node22&#45;&gt;Node33 -->
<g id="edge72" class="edge"><title>Node22&#45;&gt;Node33</title>
<path fill="none" stroke="midnightblue" d="M902.127,-193.762C863.498,-184.02 808.482,-169.578 752.365,-152.286"/>
<polygon fill="midnightblue" stroke="midnightblue" points="753.206,-148.882 742.618,-149.257 751.129,-155.567 753.206,-148.882"/>
</g>
<!-- Node22&#45;&gt;Node34 -->
<g id="edge74" class="edge"><title>Node22&#45;&gt;Node34</title>
<path fill="none" stroke="midnightblue" d="M921.785,-188.922C903.705,-178.703 880.939,-165.835 863.552,-156.007"/>
<polygon fill="midnightblue" stroke="midnightblue" points="864.937,-152.77 854.509,-150.896 861.492,-158.864 864.937,-152.77"/>
</g>
<!-- Node23&#45;&gt;Node13 -->
<g id="edge48" class="edge"><title>Node23&#45;&gt;Node13</title>
<path fill="none" stroke="midnightblue" d="M871.369,-130.982C802.607,-121.237 703.275,-106.418 650.459,-93.9876"/>
<polygon fill="midnightblue" stroke="midnightblue" points="651.087,-90.5375 640.539,-91.5355 649.407,-97.333 651.087,-90.5375"/>
</g>
<!-- Node24&#45;&gt;Node25 -->
<g id="edge52" class="edge"><title>Node24&#45;&gt;Node25</title>
<path fill="none" stroke="midnightblue" d="M1260.96,-130.362C1273.96,-121.696 1292.53,-109.313 1307.43,-99.3819"/>
<polygon fill="midnightblue" stroke="midnightblue" points="1309.76,-102.03 1316.14,-93.5707 1305.88,-96.2055 1309.76,-102.03"/>
</g>
<!-- Node24&#45;&gt;Node26 -->
<g id="edge54" class="edge"><title>Node24&#45;&gt;Node26</title>
<path fill="none" stroke="midnightblue" d="M1236.01,-130.362C1229.17,-122.268 1219.6,-110.932 1211.53,-101.38"/>
<polygon fill="midnightblue" stroke="midnightblue" points="1214.06,-98.9508 1204.93,-93.5707 1208.71,-103.468 1214.06,-98.9508"/>
</g>
<!-- Node24&#45;&gt;Node27 -->
<g id="edge56" class="edge"><title>Node24&#45;&gt;Node27</title>
<path fill="none" stroke="midnightblue" d="M1215.48,-130.497C1187.46,-120.525 1145.36,-105.545 1115.96,-95.0826"/>
<polygon fill="midnightblue" stroke="midnightblue" points="1117.1,-91.7764 1106.51,-91.7214 1114.76,-98.3713 1117.1,-91.7764"/>
</g>
<!-- Node29 -->
<g id="node59" class="node"><title>Node29</title>
<polygon fill="none" stroke="#bfbfbf" points="1758.5,-72.5 1758.5,-93.5 1807.5,-93.5 1807.5,-72.5 1758.5,-72.5"/>
<text text-anchor="middle" x="1783" y="-80.5" font-family="Helvetica,sans-Serif" font-size="10.00">cstddef</text>
</g>
<!-- Node28&#45;&gt;Node29 -->
<g id="edge60" class="edge"><title>Node28&#45;&gt;Node29</title>
<path fill="none" stroke="midnightblue" d="M1606.93,-130.497C1647.37,-119.589 1710.02,-102.689 1748.66,-92.2638"/>
<polygon fill="midnightblue" stroke="midnightblue" points="1749.67,-95.6169 1758.41,-89.633 1747.85,-88.8585 1749.67,-95.6169"/>
</g>
<!-- Node28&#45;&gt;Node30 -->
<g id="edge62" class="edge"><title>Node28&#45;&gt;Node30</title>
<path fill="none" stroke="midnightblue" d="M1583.41,-130.362C1595.96,-121.696 1613.89,-109.313 1628.27,-99.3819"/>
<polygon fill="midnightblue" stroke="midnightblue" points="1630.45,-102.133 1636.69,-93.5707 1626.47,-96.3725 1630.45,-102.133"/>
</g>
<!-- Node28&#45;&gt;Node31 -->
<g id="edge64" class="edge"><title>Node28&#45;&gt;Node31</title>
<path fill="none" stroke="midnightblue" d="M1549.11,-130.362C1533.28,-121.45 1510.48,-108.609 1492.61,-98.5447"/>
<polygon fill="midnightblue" stroke="midnightblue" points="1494.2,-95.4276 1483.77,-93.5707 1490.77,-101.527 1494.2,-95.4276"/>
</g>
<!-- Node35&#45;&gt;Node17 -->
<g id="edge116" class="edge"><title>Node35&#45;&gt;Node17</title>
<path fill="none" stroke="midnightblue" d="M1440.33,-269.739C1269.64,-265.225 707.795,-248.801 529,-224 458.519,-214.223 442.466,-203.413 373,-188 298.027,-171.365 275.34,-180.429 204,-152 186.581,-145.058 184.745,-138.438 168,-130 152.551,-122.216 111.445,-105.932 82.5738,-94.7339"/>
<polygon fill="midnightblue" stroke="midnightblue" points="83.5236,-91.3487 72.9343,-91.0072 80.9994,-97.8777 83.5236,-91.3487"/>
</g>
<!-- Node35&#45;&gt;Node18 -->
<g id="edge122" class="edge"><title>Node35&#45;&gt;Node18</title>
<path fill="none" stroke="midnightblue" d="M1462.35,-260.446C1392.71,-234.274 1203.97,-165.909 1041,-130 921.389,-103.645 776.002,-90.2585 712.404,-85.3086"/>
<polygon fill="midnightblue" stroke="midnightblue" points="712.445,-81.8017 702.208,-84.5334 711.914,-88.7816 712.445,-81.8017"/>
</g>
<!-- Node35&#45;&gt;Node22 -->
<g id="edge104" class="edge"><title>Node35&#45;&gt;Node22</title>
<path fill="none" stroke="midnightblue" d="M1440.35,-265.001C1341.06,-253.006 1118.41,-226.105 1011.51,-213.189"/>
<polygon fill="midnightblue" stroke="midnightblue" points="1011.88,-209.709 1001.53,-211.984 1011.04,-216.658 1011.88,-209.709"/>
</g>
<!-- Node35&#45;&gt;Node25 -->
<g id="edge106" class="edge"><title>Node35&#45;&gt;Node25</title>
<path fill="none" stroke="midnightblue" d="M1481.05,-260.354C1455.2,-229.59 1380.16,-140.301 1347.49,-101.435"/>
<polygon fill="midnightblue" stroke="midnightblue" points="1349.96,-98.9332 1340.85,-93.5296 1344.6,-103.437 1349.96,-98.9332"/>
</g>
<!-- Node35&#45;&gt;Node29 -->
<g id="edge108" class="edge"><title>Node35&#45;&gt;Node29</title>
<path fill="none" stroke="midnightblue" d="M1539.73,-267.185C1624.78,-260.152 1790.73,-244.015 1808,-224 1837.75,-189.525 1812.13,-132.196 1795.14,-102.369"/>
<polygon fill="midnightblue" stroke="midnightblue" points="1798.12,-100.532 1790.01,-93.7155 1792.1,-104.102 1798.12,-100.532"/>
</g>
<!-- Node35&#45;&gt;Node30 -->
<g id="edge112" class="edge"><title>Node35&#45;&gt;Node30</title>
<path fill="none" stroke="midnightblue" d="M1539.65,-266.697C1620.44,-259.187 1773.01,-242.696 1789,-224 1830.35,-175.647 1738.85,-122.955 1686.04,-97.8778"/>
<polygon fill="midnightblue" stroke="midnightblue" points="1687.22,-94.564 1676.67,-93.5239 1684.27,-100.912 1687.22,-94.564"/>
</g>
<!-- Node35&#45;&gt;Node31 -->
<g id="edge118" class="edge"><title>Node35&#45;&gt;Node31</title>
<path fill="none" stroke="midnightblue" d="M1482.42,-260.418C1476.36,-251.276 1468.35,-237.451 1465,-224 1459.49,-201.914 1461.99,-137.503 1463.76,-103.92"/>
<polygon fill="midnightblue" stroke="midnightblue" points="1467.26,-103.997 1464.33,-93.8178 1460.28,-103.608 1467.26,-103.997"/>
</g>
<!-- Node36 -->
<g id="node87" class="node"><title>Node36</title>
<a xlink:href="config_8hpp.html" target="_top" xlink:title="thrill/common/config.hpp">
<polygon fill="none" stroke="black" points="1473.5,-195.5 1473.5,-216.5 1596.5,-216.5 1596.5,-195.5 1473.5,-195.5"/>
<text text-anchor="middle" x="1535" y="-203.5" font-family="Helvetica,sans-Serif" font-size="10.00">thrill/common/config.hpp</text>
</a>
</g>
<!-- Node35&#45;&gt;Node36 -->
<g id="edge102" class="edge"><title>Node35&#45;&gt;Node36</title>
<path fill="none" stroke="midnightblue" d="M1497.43,-260.267C1504.05,-250.707 1513.89,-236.496 1521.84,-225.015"/>
<polygon fill="midnightblue" stroke="midnightblue" points="1524.89,-226.748 1527.71,-216.534 1519.14,-222.763 1524.89,-226.748"/>
</g>
<!-- Node37 -->
<g id="node92" class="node"><title>Node37</title>
<polygon fill="none" stroke="#bfbfbf" points="1614,-195.5 1614,-216.5 1660,-216.5 1660,-195.5 1614,-195.5"/>
<text text-anchor="middle" x="1637" y="-203.5" font-family="Helvetica,sans-Serif" font-size="10.00">cstdint</text>
</g>
<!-- Node35&#45;&gt;Node37 -->
<g id="edge110" class="edge"><title>Node35&#45;&gt;Node37</title>
<path fill="none" stroke="midnightblue" d="M1518.79,-260.379C1542.31,-251.428 1576.26,-237.89 1605,-224 1606.58,-223.237 1608.19,-222.431 1609.8,-221.598"/>
<polygon fill="midnightblue" stroke="midnightblue" points="1611.79,-224.503 1618.93,-216.679 1608.47,-218.341 1611.79,-224.503"/>
</g>
<!-- Node38 -->
<g id="node95" class="node"><title>Node38</title>
<polygon fill="none" stroke="#bfbfbf" points="1678,-195.5 1678,-216.5 1722,-216.5 1722,-195.5 1678,-195.5"/>
<text text-anchor="middle" x="1700" y="-203.5" font-family="Helvetica,sans-Serif" font-size="10.00">mutex</text>
</g>
<!-- Node35&#45;&gt;Node38 -->
<g id="edge114" class="edge"><title>Node35&#45;&gt;Node38</title>
<path fill="none" stroke="midnightblue" d="M1539.79,-261.695C1576.36,-253.963 1626.83,-241.406 1669,-224 1670.86,-223.234 1672.74,-222.376 1674.6,-221.46"/>
<polygon fill="midnightblue" stroke="midnightblue" points="1676.54,-224.391 1683.69,-216.569 1673.23,-218.227 1676.54,-224.391"/>
</g>
<!-- Node39 -->
<g id="node99" class="node"><title>Node39</title>
<polygon fill="none" stroke="#bfbfbf" points="1740,-195.5 1740,-216.5 1780,-216.5 1780,-195.5 1740,-195.5"/>
<text text-anchor="middle" x="1760" y="-203.5" font-family="Helvetica,sans-Serif" font-size="10.00">utility</text>
</g>
<!-- Node35&#45;&gt;Node39 -->
<g id="edge120" class="edge"><title>Node35&#45;&gt;Node39</title>
<path fill="none" stroke="midnightblue" d="M1539.94,-266.59C1589.73,-260.975 1667.71,-248.844 1731,-224 1732.82,-223.285 1734.65,-222.456 1736.47,-221.553"/>
<polygon fill="midnightblue" stroke="midnightblue" points="1738.21,-224.587 1745.2,-216.62 1734.77,-218.492 1738.21,-224.587"/>
</g>
<!-- Node40&#45;&gt;Node17 -->
<g id="edge144" class="edge"><title>Node40&#45;&gt;Node17</title>
<path fill="none" stroke="midnightblue" d="M556.862,-195.461C546.276,-192.774 534.739,-190.065 524,-188 404.25,-164.977 369.171,-185.779 252,-152 229.451,-145.499 225.986,-138.206 204,-130 153.45,-111.132 136.757,-111.961 82.03,-94.1631"/>
<polygon fill="midnightblue" stroke="midnightblue" points="83.1174,-90.8364 72.524,-91.0109 80.9141,-97.4806 83.1174,-90.8364"/>
</g>
<!-- Node40&#45;&gt;Node18 -->
<g id="edge146" class="edge"><title>Node40&#45;&gt;Node18</title>
<path fill="none" stroke="midnightblue" d="M596.13,-195.267C598.213,-179.666 603.825,-150.367 618,-130 626.608,-117.632 639.488,-107.117 651.282,-99.1902"/>
<polygon fill="midnightblue" stroke="midnightblue" points="653.441,-101.965 660,-93.6446 649.684,-96.0584 653.441,-101.965"/>
</g>
<!-- Node40&#45;&gt;Node33 -->
<g id="edge142" class="edge"><title>Node40&#45;&gt;Node33</title>
<path fill="none" stroke="midnightblue" d="M615.362,-195.412C635.791,-184.788 667.465,-168.318 690.615,-156.28"/>
<polygon fill="midnightblue" stroke="midnightblue" points="692.39,-159.302 699.647,-151.584 689.16,-153.092 692.39,-159.302"/>
</g>
</g>
</svg>
